<?xml version="1.0" encoding="utf-8" standalone="no"?>
<!DOCTYPE svg PUBLIC "-//W3C//DTD SVG 1.1//EN"
  "http://www.w3.org/Graphics/SVG/1.1/DTD/svg11.dtd">
<svg height="345.6pt" version="1.1" viewBox="0 0 460.8 345.6" width="460.8pt" xmlns="http://www.w3.org/2000/svg" xmlns:xlink="http://www.w3.org/1999/xlink">
 <metadata>
  <rdf:RDF xmlns:cc="http://creativecommons.org/ns#" xmlns:dc="http://purl.org/dc/elements/1.1/" xmlns:rdf="http://www.w3.org/1999/02/22-rdf-syntax-ns#">
   <cc:Work>
    <dc:type rdf:resource="http://purl.org/dc/dcmitype/StillImage"/>
    <dc:date>2022-06-05T10:02:30.459424</dc:date>
    <dc:format>image/svg+xml</dc:format>
    <dc:creator>
     <cc:Agent>
      <dc:title>Matplotlib v3.4.3, https://matplotlib.org/</dc:title>
     </cc:Agent>
    </dc:creator>
   </cc:Work>
  </rdf:RDF>
 </metadata>
 <defs>
  <style type="text/css">*{stroke-linecap:butt;stroke-linejoin:round;}</style>
 </defs>
 <g id="figure_1">
  <g id="patch_1">
   <path d="M 0 345.6 
L 460.8 345.6 
L 460.8 0 
L 0 0 
z
" style="fill:#ffffff;"/>
  </g>
  <g id="axes_1">
   <g id="patch_2">
    <path d="M 57.6 276.48 
L 414.72 276.48 
L 414.72 41.472 
L 57.6 41.472 
z
" style="fill:#ffffff;"/>
   </g>
   <g id="matplotlib.axis_1">
    <g id="xtick_1">
     <g id="line2d_1">
      <defs>
       <path d="M 0 0 
L 0 3.5 
" id="m917d3ab29d" style="stroke:#000000;stroke-width:0.8;"/>
      </defs>
      <g>
       <use style="stroke:#000000;stroke-width:0.8;" x="95.256631" xlink:href="#m917d3ab29d" y="276.48"/>
      </g>
     </g>
     <g id="text_1">
      <!-- 2021-12 -->
      <g transform="translate(58.03181 310.951846)rotate(-30)scale(0.1 -0.1)">
       <defs>
        <path d="M 1228 531 
L 3431 531 
L 3431 0 
L 469 0 
L 469 531 
Q 828 903 1448 1529 
Q 2069 2156 2228 2338 
Q 2531 2678 2651 2914 
Q 2772 3150 2772 3378 
Q 2772 3750 2511 3984 
Q 2250 4219 1831 4219 
Q 1534 4219 1204 4116 
Q 875 4013 500 3803 
L 500 4441 
Q 881 4594 1212 4672 
Q 1544 4750 1819 4750 
Q 2544 4750 2975 4387 
Q 3406 4025 3406 3419 
Q 3406 3131 3298 2873 
Q 3191 2616 2906 2266 
Q 2828 2175 2409 1742 
Q 1991 1309 1228 531 
z
" id="DejaVuSans-32" transform="scale(0.015625)"/>
        <path d="M 2034 4250 
Q 1547 4250 1301 3770 
Q 1056 3291 1056 2328 
Q 1056 1369 1301 889 
Q 1547 409 2034 409 
Q 2525 409 2770 889 
Q 3016 1369 3016 2328 
Q 3016 3291 2770 3770 
Q 2525 4250 2034 4250 
z
M 2034 4750 
Q 2819 4750 3233 4129 
Q 3647 3509 3647 2328 
Q 3647 1150 3233 529 
Q 2819 -91 2034 -91 
Q 1250 -91 836 529 
Q 422 1150 422 2328 
Q 422 3509 836 4129 
Q 1250 4750 2034 4750 
z
" id="DejaVuSans-30" transform="scale(0.015625)"/>
        <path d="M 794 531 
L 1825 531 
L 1825 4091 
L 703 3866 
L 703 4441 
L 1819 4666 
L 2450 4666 
L 2450 531 
L 3481 531 
L 3481 0 
L 794 0 
L 794 531 
z
" id="DejaVuSans-31" transform="scale(0.015625)"/>
        <path d="M 313 2009 
L 1997 2009 
L 1997 1497 
L 313 1497 
L 313 2009 
z
" id="DejaVuSans-2d" transform="scale(0.015625)"/>
       </defs>
       <use xlink:href="#DejaVuSans-32"/>
       <use x="63.623047" xlink:href="#DejaVuSans-30"/>
       <use x="127.246094" xlink:href="#DejaVuSans-32"/>
       <use x="190.869141" xlink:href="#DejaVuSans-31"/>
       <use x="254.492188" xlink:href="#DejaVuSans-2d"/>
       <use x="290.576172" xlink:href="#DejaVuSans-31"/>
       <use x="354.199219" xlink:href="#DejaVuSans-32"/>
      </g>
     </g>
    </g>
    <g id="xtick_2">
     <g id="line2d_2">
      <g>
       <use style="stroke:#000000;stroke-width:0.8;" x="146.344402" xlink:href="#m917d3ab29d" y="276.48"/>
      </g>
     </g>
     <g id="text_2">
      <!-- 2022-01 -->
      <g transform="translate(109.119582 310.951846)rotate(-30)scale(0.1 -0.1)">
       <use xlink:href="#DejaVuSans-32"/>
       <use x="63.623047" xlink:href="#DejaVuSans-30"/>
       <use x="127.246094" xlink:href="#DejaVuSans-32"/>
       <use x="190.869141" xlink:href="#DejaVuSans-32"/>
       <use x="254.492188" xlink:href="#DejaVuSans-2d"/>
       <use x="290.576172" xlink:href="#DejaVuSans-30"/>
       <use x="354.199219" xlink:href="#DejaVuSans-31"/>
      </g>
     </g>
    </g>
    <g id="xtick_3">
     <g id="line2d_3">
      <g>
       <use style="stroke:#000000;stroke-width:0.8;" x="197.432174" xlink:href="#m917d3ab29d" y="276.48"/>
      </g>
     </g>
     <g id="text_3">
      <!-- 2022-02 -->
      <g transform="translate(160.207353 310.951846)rotate(-30)scale(0.1 -0.1)">
       <use xlink:href="#DejaVuSans-32"/>
       <use x="63.623047" xlink:href="#DejaVuSans-30"/>
       <use x="127.246094" xlink:href="#DejaVuSans-32"/>
       <use x="190.869141" xlink:href="#DejaVuSans-32"/>
       <use x="254.492188" xlink:href="#DejaVuSans-2d"/>
       <use x="290.576172" xlink:href="#DejaVuSans-30"/>
       <use x="354.199219" xlink:href="#DejaVuSans-32"/>
      </g>
     </g>
    </g>
    <g id="xtick_4">
     <g id="line2d_4">
      <g>
       <use style="stroke:#000000;stroke-width:0.8;" x="243.575967" xlink:href="#m917d3ab29d" y="276.48"/>
      </g>
     </g>
     <g id="text_4">
      <!-- 2022-03 -->
      <g transform="translate(206.351146 310.951846)rotate(-30)scale(0.1 -0.1)">
       <defs>
        <path d="M 2597 2516 
Q 3050 2419 3304 2112 
Q 3559 1806 3559 1356 
Q 3559 666 3084 287 
Q 2609 -91 1734 -91 
Q 1441 -91 1130 -33 
Q 819 25 488 141 
L 488 750 
Q 750 597 1062 519 
Q 1375 441 1716 441 
Q 2309 441 2620 675 
Q 2931 909 2931 1356 
Q 2931 1769 2642 2001 
Q 2353 2234 1838 2234 
L 1294 2234 
L 1294 2753 
L 1863 2753 
Q 2328 2753 2575 2939 
Q 2822 3125 2822 3475 
Q 2822 3834 2567 4026 
Q 2313 4219 1838 4219 
Q 1578 4219 1281 4162 
Q 984 4106 628 3988 
L 628 4550 
Q 988 4650 1302 4700 
Q 1616 4750 1894 4750 
Q 2613 4750 3031 4423 
Q 3450 4097 3450 3541 
Q 3450 3153 3228 2886 
Q 3006 2619 2597 2516 
z
" id="DejaVuSans-33" transform="scale(0.015625)"/>
       </defs>
       <use xlink:href="#DejaVuSans-32"/>
       <use x="63.623047" xlink:href="#DejaVuSans-30"/>
       <use x="127.246094" xlink:href="#DejaVuSans-32"/>
       <use x="190.869141" xlink:href="#DejaVuSans-32"/>
       <use x="254.492188" xlink:href="#DejaVuSans-2d"/>
       <use x="290.576172" xlink:href="#DejaVuSans-30"/>
       <use x="354.199219" xlink:href="#DejaVuSans-33"/>
      </g>
     </g>
    </g>
    <g id="xtick_5">
     <g id="line2d_5">
      <g>
       <use style="stroke:#000000;stroke-width:0.8;" x="294.663738" xlink:href="#m917d3ab29d" y="276.48"/>
      </g>
     </g>
     <g id="text_5">
      <!-- 2022-04 -->
      <g transform="translate(257.438917 310.951846)rotate(-30)scale(0.1 -0.1)">
       <defs>
        <path d="M 2419 4116 
L 825 1625 
L 2419 1625 
L 2419 4116 
z
M 2253 4666 
L 3047 4666 
L 3047 1625 
L 3713 1625 
L 3713 1100 
L 3047 1100 
L 3047 0 
L 2419 0 
L 2419 1100 
L 313 1100 
L 313 1709 
L 2253 4666 
z
" id="DejaVuSans-34" transform="scale(0.015625)"/>
       </defs>
       <use xlink:href="#DejaVuSans-32"/>
       <use x="63.623047" xlink:href="#DejaVuSans-30"/>
       <use x="127.246094" xlink:href="#DejaVuSans-32"/>
       <use x="190.869141" xlink:href="#DejaVuSans-32"/>
       <use x="254.492188" xlink:href="#DejaVuSans-2d"/>
       <use x="290.576172" xlink:href="#DejaVuSans-30"/>
       <use x="354.199219" xlink:href="#DejaVuSans-34"/>
      </g>
     </g>
    </g>
    <g id="xtick_6">
     <g id="line2d_6">
      <g>
       <use style="stroke:#000000;stroke-width:0.8;" x="344.103516" xlink:href="#m917d3ab29d" y="276.48"/>
      </g>
     </g>
     <g id="text_6">
      <!-- 2022-05 -->
      <g transform="translate(306.878696 310.951846)rotate(-30)scale(0.1 -0.1)">
       <defs>
        <path d="M 691 4666 
L 3169 4666 
L 3169 4134 
L 1269 4134 
L 1269 2991 
Q 1406 3038 1543 3061 
Q 1681 3084 1819 3084 
Q 2600 3084 3056 2656 
Q 3513 2228 3513 1497 
Q 3513 744 3044 326 
Q 2575 -91 1722 -91 
Q 1428 -91 1123 -41 
Q 819 9 494 109 
L 494 744 
Q 775 591 1075 516 
Q 1375 441 1709 441 
Q 2250 441 2565 725 
Q 2881 1009 2881 1497 
Q 2881 1984 2565 2268 
Q 2250 2553 1709 2553 
Q 1456 2553 1204 2497 
Q 953 2441 691 2322 
L 691 4666 
z
" id="DejaVuSans-35" transform="scale(0.015625)"/>
       </defs>
       <use xlink:href="#DejaVuSans-32"/>
       <use x="63.623047" xlink:href="#DejaVuSans-30"/>
       <use x="127.246094" xlink:href="#DejaVuSans-32"/>
       <use x="190.869141" xlink:href="#DejaVuSans-32"/>
       <use x="254.492188" xlink:href="#DejaVuSans-2d"/>
       <use x="290.576172" xlink:href="#DejaVuSans-30"/>
       <use x="354.199219" xlink:href="#DejaVuSans-35"/>
      </g>
     </g>
    </g>
    <g id="xtick_7">
     <g id="line2d_7">
      <g>
       <use style="stroke:#000000;stroke-width:0.8;" x="395.191287" xlink:href="#m917d3ab29d" y="276.48"/>
      </g>
     </g>
     <g id="text_7">
      <!-- 2022-06 -->
      <g transform="translate(357.966467 310.951846)rotate(-30)scale(0.1 -0.1)">
       <defs>
        <path d="M 2113 2584 
Q 1688 2584 1439 2293 
Q 1191 2003 1191 1497 
Q 1191 994 1439 701 
Q 1688 409 2113 409 
Q 2538 409 2786 701 
Q 3034 994 3034 1497 
Q 3034 2003 2786 2293 
Q 2538 2584 2113 2584 
z
M 3366 4563 
L 3366 3988 
Q 3128 4100 2886 4159 
Q 2644 4219 2406 4219 
Q 1781 4219 1451 3797 
Q 1122 3375 1075 2522 
Q 1259 2794 1537 2939 
Q 1816 3084 2150 3084 
Q 2853 3084 3261 2657 
Q 3669 2231 3669 1497 
Q 3669 778 3244 343 
Q 2819 -91 2113 -91 
Q 1303 -91 875 529 
Q 447 1150 447 2328 
Q 447 3434 972 4092 
Q 1497 4750 2381 4750 
Q 2619 4750 2861 4703 
Q 3103 4656 3366 4563 
z
" id="DejaVuSans-36" transform="scale(0.015625)"/>
       </defs>
       <use xlink:href="#DejaVuSans-32"/>
       <use x="63.623047" xlink:href="#DejaVuSans-30"/>
       <use x="127.246094" xlink:href="#DejaVuSans-32"/>
       <use x="190.869141" xlink:href="#DejaVuSans-32"/>
       <use x="254.492188" xlink:href="#DejaVuSans-2d"/>
       <use x="290.576172" xlink:href="#DejaVuSans-30"/>
       <use x="354.199219" xlink:href="#DejaVuSans-36"/>
      </g>
     </g>
    </g>
    <g id="text_8">
     <!-- date -->
     <g transform="translate(224.885 324.351346)scale(0.1 -0.1)">
      <defs>
       <path d="M 2906 2969 
L 2906 4863 
L 3481 4863 
L 3481 0 
L 2906 0 
L 2906 525 
Q 2725 213 2448 61 
Q 2172 -91 1784 -91 
Q 1150 -91 751 415 
Q 353 922 353 1747 
Q 353 2572 751 3078 
Q 1150 3584 1784 3584 
Q 2172 3584 2448 3432 
Q 2725 3281 2906 2969 
z
M 947 1747 
Q 947 1113 1208 752 
Q 1469 391 1925 391 
Q 2381 391 2643 752 
Q 2906 1113 2906 1747 
Q 2906 2381 2643 2742 
Q 2381 3103 1925 3103 
Q 1469 3103 1208 2742 
Q 947 2381 947 1747 
z
" id="DejaVuSans-64" transform="scale(0.015625)"/>
       <path d="M 2194 1759 
Q 1497 1759 1228 1600 
Q 959 1441 959 1056 
Q 959 750 1161 570 
Q 1363 391 1709 391 
Q 2188 391 2477 730 
Q 2766 1069 2766 1631 
L 2766 1759 
L 2194 1759 
z
M 3341 1997 
L 3341 0 
L 2766 0 
L 2766 531 
Q 2569 213 2275 61 
Q 1981 -91 1556 -91 
Q 1019 -91 701 211 
Q 384 513 384 1019 
Q 384 1609 779 1909 
Q 1175 2209 1959 2209 
L 2766 2209 
L 2766 2266 
Q 2766 2663 2505 2880 
Q 2244 3097 1772 3097 
Q 1472 3097 1187 3025 
Q 903 2953 641 2809 
L 641 3341 
Q 956 3463 1253 3523 
Q 1550 3584 1831 3584 
Q 2591 3584 2966 3190 
Q 3341 2797 3341 1997 
z
" id="DejaVuSans-61" transform="scale(0.015625)"/>
       <path d="M 1172 4494 
L 1172 3500 
L 2356 3500 
L 2356 3053 
L 1172 3053 
L 1172 1153 
Q 1172 725 1289 603 
Q 1406 481 1766 481 
L 2356 481 
L 2356 0 
L 1766 0 
Q 1100 0 847 248 
Q 594 497 594 1153 
L 594 3053 
L 172 3053 
L 172 3500 
L 594 3500 
L 594 4494 
L 1172 4494 
z
" id="DejaVuSans-74" transform="scale(0.015625)"/>
       <path d="M 3597 1894 
L 3597 1613 
L 953 1613 
Q 991 1019 1311 708 
Q 1631 397 2203 397 
Q 2534 397 2845 478 
Q 3156 559 3463 722 
L 3463 178 
Q 3153 47 2828 -22 
Q 2503 -91 2169 -91 
Q 1331 -91 842 396 
Q 353 884 353 1716 
Q 353 2575 817 3079 
Q 1281 3584 2069 3584 
Q 2775 3584 3186 3129 
Q 3597 2675 3597 1894 
z
M 3022 2063 
Q 3016 2534 2758 2815 
Q 2500 3097 2075 3097 
Q 1594 3097 1305 2825 
Q 1016 2553 972 2059 
L 3022 2063 
z
" id="DejaVuSans-65" transform="scale(0.015625)"/>
      </defs>
      <use xlink:href="#DejaVuSans-64"/>
      <use x="63.476562" xlink:href="#DejaVuSans-61"/>
      <use x="124.755859" xlink:href="#DejaVuSans-74"/>
      <use x="163.964844" xlink:href="#DejaVuSans-65"/>
     </g>
    </g>
   </g>
   <g id="matplotlib.axis_2">
    <g id="ytick_1">
     <g id="line2d_8">
      <defs>
       <path d="M 0 0 
L -3.5 0 
" id="mbaf4a60a7d" style="stroke:#000000;stroke-width:0.8;"/>
      </defs>
      <g>
       <use style="stroke:#000000;stroke-width:0.8;" x="57.6" xlink:href="#mbaf4a60a7d" y="256.53301"/>
      </g>
     </g>
     <g id="text_9">
      <!-- 85000 -->
      <g transform="translate(18.7875 260.332229)scale(0.1 -0.1)">
       <defs>
        <path d="M 2034 2216 
Q 1584 2216 1326 1975 
Q 1069 1734 1069 1313 
Q 1069 891 1326 650 
Q 1584 409 2034 409 
Q 2484 409 2743 651 
Q 3003 894 3003 1313 
Q 3003 1734 2745 1975 
Q 2488 2216 2034 2216 
z
M 1403 2484 
Q 997 2584 770 2862 
Q 544 3141 544 3541 
Q 544 4100 942 4425 
Q 1341 4750 2034 4750 
Q 2731 4750 3128 4425 
Q 3525 4100 3525 3541 
Q 3525 3141 3298 2862 
Q 3072 2584 2669 2484 
Q 3125 2378 3379 2068 
Q 3634 1759 3634 1313 
Q 3634 634 3220 271 
Q 2806 -91 2034 -91 
Q 1263 -91 848 271 
Q 434 634 434 1313 
Q 434 1759 690 2068 
Q 947 2378 1403 2484 
z
M 1172 3481 
Q 1172 3119 1398 2916 
Q 1625 2713 2034 2713 
Q 2441 2713 2670 2916 
Q 2900 3119 2900 3481 
Q 2900 3844 2670 4047 
Q 2441 4250 2034 4250 
Q 1625 4250 1398 4047 
Q 1172 3844 1172 3481 
z
" id="DejaVuSans-38" transform="scale(0.015625)"/>
       </defs>
       <use xlink:href="#DejaVuSans-38"/>
       <use x="63.623047" xlink:href="#DejaVuSans-35"/>
       <use x="127.246094" xlink:href="#DejaVuSans-30"/>
       <use x="190.869141" xlink:href="#DejaVuSans-30"/>
       <use x="254.492188" xlink:href="#DejaVuSans-30"/>
      </g>
     </g>
    </g>
    <g id="ytick_2">
     <g id="line2d_9">
      <g>
       <use style="stroke:#000000;stroke-width:0.8;" x="57.6" xlink:href="#mbaf4a60a7d" y="215.163917"/>
      </g>
     </g>
     <g id="text_10">
      <!-- 90000 -->
      <g transform="translate(18.7875 218.963136)scale(0.1 -0.1)">
       <defs>
        <path d="M 703 97 
L 703 672 
Q 941 559 1184 500 
Q 1428 441 1663 441 
Q 2288 441 2617 861 
Q 2947 1281 2994 2138 
Q 2813 1869 2534 1725 
Q 2256 1581 1919 1581 
Q 1219 1581 811 2004 
Q 403 2428 403 3163 
Q 403 3881 828 4315 
Q 1253 4750 1959 4750 
Q 2769 4750 3195 4129 
Q 3622 3509 3622 2328 
Q 3622 1225 3098 567 
Q 2575 -91 1691 -91 
Q 1453 -91 1209 -44 
Q 966 3 703 97 
z
M 1959 2075 
Q 2384 2075 2632 2365 
Q 2881 2656 2881 3163 
Q 2881 3666 2632 3958 
Q 2384 4250 1959 4250 
Q 1534 4250 1286 3958 
Q 1038 3666 1038 3163 
Q 1038 2656 1286 2365 
Q 1534 2075 1959 2075 
z
" id="DejaVuSans-39" transform="scale(0.015625)"/>
       </defs>
       <use xlink:href="#DejaVuSans-39"/>
       <use x="63.623047" xlink:href="#DejaVuSans-30"/>
       <use x="127.246094" xlink:href="#DejaVuSans-30"/>
       <use x="190.869141" xlink:href="#DejaVuSans-30"/>
       <use x="254.492188" xlink:href="#DejaVuSans-30"/>
      </g>
     </g>
    </g>
    <g id="ytick_3">
     <g id="line2d_10">
      <g>
       <use style="stroke:#000000;stroke-width:0.8;" x="57.6" xlink:href="#mbaf4a60a7d" y="173.794825"/>
      </g>
     </g>
     <g id="text_11">
      <!-- 95000 -->
      <g transform="translate(18.7875 177.594044)scale(0.1 -0.1)">
       <use xlink:href="#DejaVuSans-39"/>
       <use x="63.623047" xlink:href="#DejaVuSans-35"/>
       <use x="127.246094" xlink:href="#DejaVuSans-30"/>
       <use x="190.869141" xlink:href="#DejaVuSans-30"/>
       <use x="254.492188" xlink:href="#DejaVuSans-30"/>
      </g>
     </g>
    </g>
    <g id="ytick_4">
     <g id="line2d_11">
      <g>
       <use style="stroke:#000000;stroke-width:0.8;" x="57.6" xlink:href="#mbaf4a60a7d" y="132.425732"/>
      </g>
     </g>
     <g id="text_12">
      <!-- 100000 -->
      <g transform="translate(12.425 136.224951)scale(0.1 -0.1)">
       <use xlink:href="#DejaVuSans-31"/>
       <use x="63.623047" xlink:href="#DejaVuSans-30"/>
       <use x="127.246094" xlink:href="#DejaVuSans-30"/>
       <use x="190.869141" xlink:href="#DejaVuSans-30"/>
       <use x="254.492188" xlink:href="#DejaVuSans-30"/>
       <use x="318.115234" xlink:href="#DejaVuSans-30"/>
      </g>
     </g>
    </g>
    <g id="ytick_5">
     <g id="line2d_12">
      <g>
       <use style="stroke:#000000;stroke-width:0.8;" x="57.6" xlink:href="#mbaf4a60a7d" y="91.05664"/>
      </g>
     </g>
     <g id="text_13">
      <!-- 105000 -->
      <g transform="translate(12.425 94.855859)scale(0.1 -0.1)">
       <use xlink:href="#DejaVuSans-31"/>
       <use x="63.623047" xlink:href="#DejaVuSans-30"/>
       <use x="127.246094" xlink:href="#DejaVuSans-35"/>
       <use x="190.869141" xlink:href="#DejaVuSans-30"/>
       <use x="254.492188" xlink:href="#DejaVuSans-30"/>
       <use x="318.115234" xlink:href="#DejaVuSans-30"/>
      </g>
     </g>
    </g>
    <g id="ytick_6">
     <g id="line2d_13">
      <g>
       <use style="stroke:#000000;stroke-width:0.8;" x="57.6" xlink:href="#mbaf4a60a7d" y="49.687547"/>
      </g>
     </g>
     <g id="text_14">
      <!-- 110000 -->
      <g transform="translate(12.425 53.486766)scale(0.1 -0.1)">
       <use xlink:href="#DejaVuSans-31"/>
       <use x="63.623047" xlink:href="#DejaVuSans-31"/>
       <use x="127.246094" xlink:href="#DejaVuSans-30"/>
       <use x="190.869141" xlink:href="#DejaVuSans-30"/>
       <use x="254.492188" xlink:href="#DejaVuSans-30"/>
       <use x="318.115234" xlink:href="#DejaVuSans-30"/>
      </g>
     </g>
    </g>
   </g>
   <g id="line2d_14">
    <path clip-path="url(#pc00cee4076)" d="M 73.832727 52.154182 
L 75.48072 57.400003 
L 80.424698 61.355986 
L 82.07269 61.848675 
L 83.720683 58.205274 
L 87.016668 58.441247 
L 91.960646 74.441132 
L 93.608639 94.214872 
L 95.256631 110.671915 
L 96.904624 91.80031 
L 98.552617 102.306341 
L 103.496594 91.147865 
L 105.144587 71.745475 
L 106.79258 67.301206 
L 108.440572 79.185274 
L 110.088565 76.653785 
L 115.032543 84.023762 
L 116.680535 91.226799 
L 118.328528 79.409374 
L 119.976521 88.834368 
L 121.624513 91.184576 
L 126.568491 102.669308 
L 128.216484 82.774372 
L 131.512469 69.586106 
L 138.104439 62.665068 
L 139.752432 64.836711 
L 141.400425 62.471979 
L 143.048417 63.142057 
L 144.69641 64.345107 
L 151.28838 62.727122 
L 152.936373 86.071995 
L 154.584365 83.724861 
L 156.232358 89.157597 
L 161.176336 91.447345 
L 162.824329 82.302103 
L 164.472321 82.340603 
L 166.120314 93.143409 
L 167.768306 95.132292 
L 174.360277 113.614498 
L 176.008269 123.2761 
L 177.656262 134.351373 
L 179.304255 149.50899 
L 184.248233 139.862835 
L 185.896225 152.533214 
L 187.544218 159.082122 
L 189.19221 167.630948 
L 190.840203 149.685761 
L 195.784181 129.579923 
L 197.432174 121.891307 
L 199.080166 119.7677 
L 200.728159 137.233823 
L 202.376151 132.061166 
L 207.320129 131.992897 
L 208.968122 122.723365 
L 210.616114 106.332173 
L 213.9121 134.481059 
L 218.856078 139.34186 
L 220.50407 122.438836 
L 222.152063 121.516651 
L 223.800055 141.606113 
L 225.448048 147.984901 
L 232.040018 157.848303 
L 233.688011 173.066302 
L 235.336004 157.158408 
L 236.983996 138.407739 
L 241.927974 138.281739 
L 243.575967 152.247462 
L 245.223959 135.804879 
L 246.871952 142.767115 
L 248.519945 152.245211 
L 253.463922 178.232011 
L 255.111915 180.760979 
L 256.759908 159.102741 
L 258.4079 161.500998 
L 260.055893 173.910342 
L 264.999871 182.859423 
L 266.647863 168.202293 
L 268.295856 146.407474 
L 269.943849 134.417531 
L 271.591841 124.009374 
L 276.535819 126.924068 
L 278.183812 118.362113 
L 279.831804 131.882012 
L 281.479797 121.103738 
L 283.12779 118.435082 
L 288.071767 114.845487 
L 289.71976 98.705507 
L 291.367753 108.033086 
L 293.015745 119.546221 
L 294.663738 114.416016 
L 299.607716 110.191001 
L 301.255708 123.774945 
L 302.903701 132.14554 
L 304.551694 131.323687 
L 306.199686 133.112523 
L 311.143664 142.367477 
L 312.791657 143.994746 
L 314.439649 132.211505 
L 316.087642 141.079915 
L 322.679612 144.29239 
L 324.327605 127.961437 
L 325.975598 126.152745 
L 327.62359 142.59713 
L 329.271583 163.912589 
L 334.215561 159.134677 
L 335.863553 182.345918 
L 337.511546 181.933166 
L 339.159539 165.773942 
L 340.807531 191.298758 
L 345.751509 186.184112 
L 347.399502 181.948243 
L 349.047494 159.856174 
L 350.695487 189.949827 
L 357.287457 229.702173 
L 358.93545 230.30958 
L 360.583443 244.606788 
L 362.231435 239.326731 
L 363.879428 217.276535 
L 368.823406 222.485831 
L 370.471398 205.114644 
L 372.119391 234.080266 
L 373.767383 232.87056 
L 375.415376 232.506834 
L 380.359354 223.455565 
L 382.007347 232.802849 
L 383.655339 222.260256 
L 385.303332 206.364334 
L 386.951324 185.712301 
L 393.543295 194.73605 
L 395.191287 200.920076 
L 396.83928 183.503396 
L 398.487273 193.856996 
L 398.487273 193.856996 
" style="fill:none;stroke:#0000ff;stroke-linecap:square;stroke-opacity:0.9;stroke-width:2;"/>
   </g>
   <g id="line2d_15">
    <path clip-path="url(#pc00cee4076)" d="M 73.832727 52.154182 
L 75.48072 57.237294 
L 80.424698 61.260047 
L 82.07269 61.464288 
L 83.720683 58.098454 
L 87.016668 80.590759 
L 91.960646 74.278287 
L 93.608639 94.452335 
L 95.256631 110.995656 
L 96.904624 92.462134 
L 98.552617 102.397464 
L 103.496594 91.616709 
L 105.144587 72.306896 
L 106.79258 67.152649 
L 108.440572 79.559339 
L 110.088565 76.862169 
L 115.032543 84.350659 
L 116.680535 91.014786 
L 118.328528 79.913776 
L 119.976521 88.807738 
L 121.624513 91.035699 
L 126.568491 103.101096 
L 128.216484 82.943006 
L 129.864476 76.099672 
L 131.512469 69.887127 
L 138.104439 63.016392 
L 139.752432 64.857706 
L 141.400425 62.550611 
L 143.048417 63.212295 
L 144.69641 64.4036 
L 149.640388 63.11019 
L 151.28838 62.999487 
L 152.936373 84.928106 
L 154.584365 83.043314 
L 156.232358 88.038854 
L 161.176336 90.687706 
L 162.824329 81.472592 
L 164.472321 81.770101 
L 166.120314 92.248089 
L 167.768306 93.670755 
L 174.360277 112.029514 
L 176.008269 121.533149 
L 177.656262 132.435602 
L 179.304255 147.708357 
L 184.248233 138.452171 
L 185.896225 150.85677 
L 187.544218 156.762912 
L 189.19221 165.272871 
L 190.840203 147.439178 
L 195.784181 128.372575 
L 197.432174 120.693392 
L 199.080166 118.209895 
L 200.728159 135.131184 
L 202.376151 131.08506 
L 207.320129 130.952596 
L 208.968122 120.910841 
L 210.616114 105.882306 
L 213.9121 132.768865 
L 218.856078 137.717604 
L 220.50407 121.603512 
L 222.152063 120.531083 
L 223.800055 139.405535 
L 225.448048 145.538882 
L 232.040018 155.402874 
L 233.688011 171.074193 
L 235.336004 156.116986 
L 236.983996 136.761792 
L 241.927974 137.270269 
L 243.575967 150.80985 
L 245.223959 133.84628 
L 246.871952 141.056766 
L 248.519945 150.180798 
L 253.463922 175.929067 
L 255.111915 177.95121 
L 256.759908 157.170518 
L 258.4079 159.331936 
L 260.055893 171.131901 
L 264.999871 179.203438 
L 266.647863 164.900881 
L 268.295856 144.225006 
L 269.943849 131.904669 
L 271.591841 122.649457 
L 276.535819 125.556144 
L 278.183812 116.434018 
L 279.831804 130.493594 
L 281.479797 119.737488 
L 283.12779 116.831863 
L 288.071767 113.833452 
L 289.71976 97.120292 
L 291.367753 106.508093 
L 293.015745 117.733812 
L 294.663738 112.819052 
L 299.607716 109.209823 
L 301.255708 122.384412 
L 302.903701 130.384953 
L 304.551694 129.135191 
L 306.199686 130.820182 
L 311.143664 140.13712 
L 312.791657 141.941106 
L 314.439649 129.710145 
L 316.087642 138.525579 
L 322.679612 141.529773 
L 324.327605 125.310274 
L 325.975598 123.574588 
L 327.62359 138.576797 
L 329.271583 160.985245 
L 334.215561 156.049589 
L 335.863553 178.477286 
L 337.511546 177.874657 
L 339.159539 162.350358 
L 340.807531 188.541956 
L 345.751509 183.527288 
L 347.399502 178.644786 
L 349.047494 156.703657 
L 350.695487 185.779132 
L 352.343479 194.569855 
L 357.287457 224.200306 
L 358.93545 224.956414 
L 360.583443 237.300081 
L 362.231435 232.967561 
L 363.879428 211.54261 
L 368.823406 216.331183 
L 370.471398 199.570477 
L 372.119391 227.9767 
L 373.767383 228.042318 
L 375.415376 227.8629 
L 380.359354 217.840248 
L 382.007347 226.493896 
L 383.655339 216.375306 
L 385.303332 200.458965 
L 386.951324 181.103028 
L 393.543295 188.654803 
L 395.191287 195.651018 
L 396.83928 179.336149 
L 398.487273 189.203578 
L 398.487273 189.203578 
" style="fill:none;stroke:#ff0000;stroke-linecap:square;stroke-opacity:0.9;stroke-width:2;"/>
   </g>
   <g id="line2d_16">
    <path clip-path="url(#pc00cee4076)" d="M 73.832727 52.154182 
L 75.48072 56.810938 
L 80.424698 60.925533 
L 82.07269 61.567025 
L 83.720683 58.113753 
L 87.016668 80.685272 
L 91.960646 74.591033 
L 93.608639 94.46155 
L 95.256631 110.66234 
L 96.904624 91.549021 
L 98.552617 102.529209 
L 103.496594 91.113817 
L 105.144587 72.032293 
L 106.79258 66.484999 
L 108.440572 79.369284 
L 110.088565 76.758093 
L 115.032543 84.010874 
L 116.680535 91.441581 
L 118.328528 79.685776 
L 119.976521 89.090228 
L 121.624513 90.427683 
L 126.568491 102.830925 
L 128.216484 82.602224 
L 129.864476 75.565402 
L 131.512469 69.285912 
L 138.104439 62.68669 
L 139.752432 64.517738 
L 141.400425 62.242657 
L 144.69641 64.016425 
L 149.640388 63.186539 
L 151.28838 62.27751 
L 152.936373 85.098184 
L 154.584365 83.668101 
L 156.232358 88.87002 
L 161.176336 90.937745 
L 162.824329 81.569312 
L 164.472321 82.249474 
L 166.120314 92.535832 
L 167.768306 94.815886 
L 174.360277 113.616718 
L 176.008269 122.852611 
L 177.656262 133.713783 
L 179.304255 149.098627 
L 184.248233 139.590653 
L 185.896225 152.49309 
L 187.544218 158.820538 
L 189.19221 167.579777 
L 190.840203 149.620944 
L 195.784181 129.357959 
L 197.432174 121.411566 
L 199.080166 119.654317 
L 200.728159 136.983317 
L 202.376151 132.058466 
L 207.320129 131.81371 
L 208.968122 122.125275 
L 210.616114 106.420507 
L 213.9121 133.595823 
L 218.856078 139.230206 
L 220.50407 122.088058 
L 222.152063 121.02068 
L 223.800055 140.908583 
L 225.448048 147.605294 
L 232.040018 157.663314 
L 233.688011 172.804819 
L 235.336004 157.243445 
L 236.983996 137.191459 
L 241.927974 137.873754 
L 243.575967 151.31097 
L 245.223959 135.287532 
L 246.871952 142.293132 
L 248.519945 151.831835 
L 253.463922 177.520862 
L 255.111915 179.378803 
L 256.759908 158.034528 
L 258.4079 160.531439 
L 260.055893 172.583466 
L 264.999871 181.897986 
L 266.647863 167.821944 
L 268.295856 146.335175 
L 269.943849 133.103171 
L 271.591841 123.786238 
L 276.535819 126.498795 
L 278.183812 117.240716 
L 279.831804 131.448424 
L 281.479797 120.129144 
L 283.12779 117.267297 
L 288.071767 114.000912 
L 289.71976 98.038283 
L 291.367753 106.833132 
L 293.015745 118.298586 
L 294.663738 113.847719 
L 299.607716 109.118627 
L 301.255708 122.504812 
L 302.903701 131.564357 
L 304.551694 130.497517 
L 306.199686 132.705705 
L 311.143664 141.810959 
L 312.791657 143.134435 
L 314.439649 130.673693 
L 316.087642 139.769345 
L 322.679612 143.541943 
L 324.327605 127.212577 
L 325.975598 125.408829 
L 327.62359 141.437903 
L 329.271583 163.474414 
L 334.215561 157.923999 
L 335.863553 181.710664 
L 337.511546 181.108029 
L 339.159539 165.204772 
L 340.807531 190.508181 
L 345.751509 185.307166 
L 347.399502 181.443462 
L 349.047494 159.339778 
L 350.695487 189.44637 
L 357.287457 229.003795 
L 358.93545 229.997494 
L 360.583443 243.60948 
L 362.231435 238.884276 
L 363.879428 215.923495 
L 368.823406 221.6598 
L 370.471398 204.417952 
L 372.119391 233.539384 
L 373.767383 232.098938 
L 375.415376 231.623627 
L 380.359354 222.532053 
L 382.007347 232.122977 
L 383.655339 221.85049 
L 385.303332 205.074498 
L 386.951324 185.073352 
L 393.543295 193.21841 
L 395.191287 200.367905 
L 396.83928 183.033478 
L 398.487273 193.071293 
L 398.487273 193.071293 
" style="fill:none;stroke:#008000;stroke-linecap:square;stroke-opacity:0.9;stroke-width:2;"/>
   </g>
   <g id="line2d_17">
    <path clip-path="url(#pc00cee4076)" d="M 73.832727 52.154182 
L 75.48072 56.665504 
L 80.424698 61.175612 
L 82.07269 61.317941 
L 83.720683 57.968117 
L 87.016668 80.16344 
L 91.960646 74.586495 
L 93.608639 94.474317 
L 95.256631 110.881076 
L 96.904624 92.193688 
L 98.552617 102.781324 
L 103.496594 91.099247 
L 105.144587 72.268136 
L 106.79258 66.844469 
L 108.440572 79.221886 
L 110.088565 76.820002 
L 115.032543 84.308079 
L 116.680535 91.248139 
L 118.328528 79.156693 
L 119.976521 88.602717 
L 121.624513 90.690047 
L 126.568491 102.640791 
L 128.216484 82.996729 
L 131.512469 69.609363 
L 138.104439 62.742316 
L 139.752432 64.843289 
L 141.400425 62.446942 
L 143.048417 62.885881 
L 144.69641 64.780056 
L 149.640388 63.204832 
L 151.28838 62.468611 
L 152.936373 85.6985 
L 154.584365 83.367307 
L 156.232358 88.731137 
L 161.176336 91.515756 
L 162.824329 82.051818 
L 164.472321 81.810191 
L 166.120314 93.366803 
L 167.768306 94.476977 
L 174.360277 113.967118 
L 176.008269 122.817718 
L 177.656262 133.621124 
L 179.304255 149.388218 
L 184.248233 139.514037 
L 185.896225 152.676594 
L 187.544218 159.255766 
L 189.19221 167.448936 
L 190.840203 149.405204 
L 195.784181 129.616417 
L 197.432174 121.87185 
L 199.080166 119.995341 
L 200.728159 136.772412 
L 202.376151 132.624249 
L 207.320129 131.910777 
L 208.968122 122.874642 
L 210.616114 106.698893 
L 212.264107 119.770917 
L 213.9121 133.740114 
L 218.856078 138.686612 
L 220.50407 122.626434 
L 222.152063 121.637014 
L 223.800055 141.314124 
L 225.448048 147.390627 
L 232.040018 157.982055 
L 233.688011 172.688115 
L 235.336004 157.130806 
L 236.983996 137.429728 
L 241.927974 138.261865 
L 243.575967 151.828661 
L 245.223959 135.529461 
L 246.871952 142.968776 
L 248.519945 152.29259 
L 253.463922 178.153043 
L 255.111915 180.4065 
L 256.759908 158.847639 
L 258.4079 161.008875 
L 260.055893 172.989061 
L 264.999871 182.005635 
L 266.647863 168.193511 
L 268.295856 146.457718 
L 269.943849 133.621841 
L 271.591841 124.133865 
L 276.535819 126.790766 
L 278.183812 117.77972 
L 279.831804 131.474255 
L 281.479797 120.744137 
L 283.12779 117.531724 
L 288.071767 115.006128 
L 289.71976 97.661076 
L 291.367753 107.513895 
L 293.015745 118.572568 
L 294.663738 113.827645 
L 299.607716 109.220116 
L 301.255708 123.064404 
L 302.903701 131.645529 
L 304.551694 130.661039 
L 306.199686 133.3298 
L 311.143664 141.701395 
L 312.791657 143.642197 
L 314.439649 130.983483 
L 316.087642 140.304079 
L 322.679612 143.675531 
L 324.327605 127.271817 
L 325.975598 125.968471 
L 327.62359 141.918192 
L 329.271583 163.569815 
L 334.215561 158.40813 
L 335.863553 181.708368 
L 337.511546 181.54637 
L 339.159539 164.942605 
L 340.807531 190.793958 
L 345.751509 185.961266 
L 347.399502 181.048096 
L 349.047494 159.275283 
L 350.695487 189.820963 
L 352.343479 199.347403 
L 357.287457 229.197705 
L 358.93545 229.515762 
L 360.583443 243.598935 
L 362.231435 238.444171 
L 363.879428 216.780618 
L 368.823406 222.001592 
L 370.471398 204.262789 
L 372.119391 233.148563 
L 373.767383 232.679832 
L 375.415376 232.528312 
L 380.359354 222.393517 
L 382.007347 232.303001 
L 383.655339 221.872727 
L 385.303332 205.784846 
L 386.951324 185.097474 
L 393.543295 194.093871 
L 395.191287 200.268702 
L 396.83928 182.468829 
L 398.487273 193.3747 
L 398.487273 193.3747 
" style="fill:none;stroke:#ec5283;stroke-linecap:square;stroke-width:2;"/>
   </g>
   <g id="line2d_18">
    <path clip-path="url(#pc00cee4076)" d="M 73.832727 52.154182 
L 75.48072 56.616049 
L 80.424698 60.928308 
L 82.07269 61.379665 
L 83.720683 57.787093 
L 87.016668 80.117938 
L 91.960646 74.181273 
L 93.608639 94.345818 
L 95.256631 110.32943 
L 96.904624 91.806956 
L 98.552617 101.725653 
L 103.496594 90.94421 
L 105.144587 72.190997 
L 106.79258 66.481987 
L 108.440572 78.492555 
L 110.088565 76.263291 
L 115.032543 83.981111 
L 116.680535 91.441579 
L 118.328528 79.071384 
L 119.976521 88.295226 
L 121.624513 90.653797 
L 126.568491 102.704612 
L 128.216484 82.991112 
L 129.864476 75.188357 
L 131.512469 69.130742 
L 138.104439 62.164854 
L 139.752432 64.571442 
L 141.400425 62.696629 
L 144.69641 64.475337 
L 149.640388 63.231615 
L 151.28838 62.305102 
L 152.936373 85.185526 
L 154.584365 82.741411 
L 156.232358 88.124953 
L 161.176336 91.018497 
L 162.824329 81.399187 
L 164.472321 81.991125 
L 166.120314 92.64109 
L 167.768306 94.261666 
L 174.360277 113.469142 
L 176.008269 121.999156 
L 177.656262 133.068906 
L 179.304255 148.531777 
L 184.248233 139.318386 
L 185.896225 151.48844 
L 187.544218 158.17406 
L 189.19221 167.414549 
L 190.840203 149.267705 
L 195.784181 128.826134 
L 197.432174 120.773716 
L 199.080166 119.171199 
L 200.728159 136.380565 
L 202.376151 131.728907 
L 207.320129 131.74664 
L 208.968122 121.858858 
L 210.616114 106.173065 
L 212.264107 119.041958 
L 213.9121 133.822237 
L 218.856078 138.030682 
L 220.50407 121.717357 
L 222.152063 120.431947 
L 223.800055 140.247282 
L 225.448048 147.090246 
L 232.040018 156.547591 
L 233.688011 171.894978 
L 235.336004 156.68832 
L 236.983996 137.021119 
L 241.927974 137.624264 
L 243.575967 150.528393 
L 245.223959 134.247415 
L 246.871952 141.570773 
L 248.519945 151.192495 
L 253.463922 176.712545 
L 255.111915 179.303928 
L 256.759908 157.741369 
L 258.4079 160.226443 
L 260.055893 172.578023 
L 264.999871 181.691842 
L 266.647863 167.34596 
L 268.295856 145.720266 
L 269.943849 132.742955 
L 271.591841 122.811078 
L 276.535819 125.403489 
L 278.183812 116.699935 
L 279.831804 130.556928 
L 281.479797 119.974219 
L 283.12779 117.526693 
L 288.071767 114.169665 
L 289.71976 97.438314 
L 291.367753 106.694426 
L 293.015745 118.152918 
L 294.663738 112.951564 
L 299.607716 108.860284 
L 301.255708 121.965515 
L 302.903701 131.369159 
L 304.551694 129.884645 
L 306.199686 132.155507 
L 311.143664 140.873068 
L 312.791657 143.094779 
L 314.439649 130.569396 
L 316.087642 139.166741 
L 322.679612 142.820429 
L 324.327605 126.72903 
L 325.975598 124.765784 
L 327.62359 141.275454 
L 329.271583 162.858998 
L 334.215561 157.727079 
L 335.863553 180.733919 
L 337.511546 180.504275 
L 339.159539 164.312358 
L 340.807531 190.257003 
L 345.751509 184.63536 
L 347.399502 180.422078 
L 349.047494 158.735571 
L 350.695487 188.662132 
L 352.343479 198.100229 
L 357.287457 228.294863 
L 358.93545 228.760939 
L 360.583443 242.755237 
L 362.231435 237.793792 
L 363.879428 215.378591 
L 368.823406 220.523745 
L 370.471398 203.41884 
L 372.119391 232.323175 
L 373.767383 231.384168 
L 375.415376 231.053452 
L 380.359354 221.72542 
L 382.007347 231.187644 
L 383.655339 220.809756 
L 385.303332 204.409525 
L 386.951324 184.581522 
L 393.543295 192.979772 
L 395.191287 199.872861 
L 396.83928 182.288483 
L 398.487273 192.542632 
L 398.487273 192.542632 
" style="fill:none;stroke:#00ff00;stroke-linecap:square;stroke-opacity:0.9;stroke-width:2;"/>
   </g>
   <g id="line2d_19">
    <path clip-path="url(#pc00cee4076)" d="M 73.832727 52.154182 
L 75.48072 58.195005 
L 82.07269 63.905405 
L 83.720683 59.504054 
L 87.016668 80.936869 
L 91.960646 76.812425 
L 93.608639 97.651227 
L 95.256631 114.188698 
L 96.904624 93.647628 
L 98.552617 104.792639 
L 103.496594 92.557327 
L 105.144587 72.780701 
L 106.79258 67.133942 
L 108.440572 81.095777 
L 110.088565 80.473265 
L 115.032543 87.996211 
L 116.680535 95.039167 
L 118.328528 83.709791 
L 119.976521 93.74482 
L 121.624513 92.42897 
L 126.568491 105.246187 
L 128.216484 83.286151 
L 129.864476 75.530004 
L 131.512469 69.731635 
L 138.104439 59.754433 
L 139.752432 62.437415 
L 141.400425 60.087165 
L 143.048417 59.975315 
L 144.69641 60.903919 
L 149.640388 59.433763 
L 151.28838 60.861193 
L 152.936373 88.91467 
L 154.584365 88.231336 
L 156.232358 96.580742 
L 161.176336 98.391831 
L 162.824329 88.279857 
L 164.472321 89.306028 
L 166.120314 104.810828 
L 167.768306 107.907121 
L 174.360277 128.954605 
L 176.008269 136.907046 
L 177.656262 147.490797 
L 179.304255 163.501452 
L 184.248233 152.121144 
L 185.896225 168.521752 
L 187.544218 175.708631 
L 189.19221 186.295277 
L 190.840203 164.842708 
L 197.432174 131.450171 
L 199.080166 132.11887 
L 200.728159 150.430689 
L 202.376151 143.890814 
L 207.320129 143.917428 
L 208.968122 134.301946 
L 210.616114 117.264742 
L 212.264107 130.6528 
L 213.9121 145.833879 
L 218.856078 149.768515 
L 220.50407 132.14881 
L 222.152063 132.405096 
L 223.800055 154.702943 
L 225.448048 162.092318 
L 232.040018 172.124982 
L 233.688011 188.74662 
L 235.336004 168.82633 
L 236.983996 151.338043 
L 241.927974 151.019096 
L 243.575967 162.82332 
L 245.223959 147.999085 
L 248.519945 166.572212 
L 253.463922 193.413176 
L 255.111915 196.158861 
L 256.759908 172.676369 
L 258.4079 176.827399 
L 260.055893 190.221673 
L 264.999871 200.793948 
L 266.647863 184.243833 
L 268.295856 160.555845 
L 269.943849 147.004995 
L 271.591841 135.814919 
L 276.535819 138.498732 
L 278.183812 128.969151 
L 279.831804 140.419041 
L 281.479797 128.887576 
L 283.12779 128.130976 
L 288.071767 123.266426 
L 289.71976 104.457617 
L 293.015745 126.27133 
L 294.663738 120.258256 
L 299.607716 115.555157 
L 301.255708 129.774632 
L 302.903701 138.38455 
L 304.551694 137.561092 
L 311.143664 148.476427 
L 312.791657 150.765042 
L 314.439649 137.098692 
L 316.087642 147.712436 
L 322.679612 151.819958 
L 324.327605 134.063474 
L 325.975598 135.830949 
L 327.62359 154.486014 
L 329.271583 176.291805 
L 334.215561 167.361322 
L 335.863553 194.285439 
L 337.511546 194.653123 
L 339.159539 175.764442 
L 340.807531 202.653283 
L 345.751509 195.00067 
L 347.399502 193.151087 
L 349.047494 171.765139 
L 350.695487 204.757929 
L 352.343479 216.637437 
L 357.287457 249.710122 
L 358.93545 248.521196 
L 360.583443 265.797818 
L 362.231435 258.912331 
L 363.879428 232.495678 
L 368.823406 240.914418 
L 370.471398 223.680931 
L 372.119391 253.226735 
L 373.767383 250.513588 
L 375.415376 249.537918 
L 380.359354 239.93191 
L 382.007347 252.941867 
L 383.655339 242.943457 
L 385.303332 225.476068 
L 386.951324 203.637842 
L 393.543295 211.59716 
L 395.191287 219.290022 
L 396.83928 199.165823 
L 398.487273 210.516745 
L 398.487273 210.516745 
" style="fill:none;stroke:#a5b9cf;stroke-linecap:square;stroke-width:2;"/>
   </g>
   <g id="patch_3">
    <path d="M 57.6 276.48 
L 57.6 41.472 
" style="fill:none;stroke:#000000;stroke-linecap:square;stroke-linejoin:miter;stroke-width:0.8;"/>
   </g>
   <g id="patch_4">
    <path d="M 414.72 276.48 
L 414.72 41.472 
" style="fill:none;stroke:#000000;stroke-linecap:square;stroke-linejoin:miter;stroke-width:0.8;"/>
   </g>
   <g id="patch_5">
    <path d="M 57.6 276.48 
L 414.72 276.48 
" style="fill:none;stroke:#000000;stroke-linecap:square;stroke-linejoin:miter;stroke-width:0.8;"/>
   </g>
   <g id="patch_6">
    <path d="M 57.6 41.472 
L 414.72 41.472 
" style="fill:none;stroke:#000000;stroke-linecap:square;stroke-linejoin:miter;stroke-width:0.8;"/>
   </g>
   <g id="text_15">
    <!-- SCHMOO -->
    <g transform="translate(209.025937 22.034625)scale(0.12 -0.12)">
     <defs>
      <path d="M 3425 4513 
L 3425 3897 
Q 3066 4069 2747 4153 
Q 2428 4238 2131 4238 
Q 1616 4238 1336 4038 
Q 1056 3838 1056 3469 
Q 1056 3159 1242 3001 
Q 1428 2844 1947 2747 
L 2328 2669 
Q 3034 2534 3370 2195 
Q 3706 1856 3706 1288 
Q 3706 609 3251 259 
Q 2797 -91 1919 -91 
Q 1588 -91 1214 -16 
Q 841 59 441 206 
L 441 856 
Q 825 641 1194 531 
Q 1563 422 1919 422 
Q 2459 422 2753 634 
Q 3047 847 3047 1241 
Q 3047 1584 2836 1778 
Q 2625 1972 2144 2069 
L 1759 2144 
Q 1053 2284 737 2584 
Q 422 2884 422 3419 
Q 422 4038 858 4394 
Q 1294 4750 2059 4750 
Q 2388 4750 2728 4690 
Q 3069 4631 3425 4513 
z
" id="DejaVuSans-53" transform="scale(0.015625)"/>
      <path d="M 4122 4306 
L 4122 3641 
Q 3803 3938 3442 4084 
Q 3081 4231 2675 4231 
Q 1875 4231 1450 3742 
Q 1025 3253 1025 2328 
Q 1025 1406 1450 917 
Q 1875 428 2675 428 
Q 3081 428 3442 575 
Q 3803 722 4122 1019 
L 4122 359 
Q 3791 134 3420 21 
Q 3050 -91 2638 -91 
Q 1578 -91 968 557 
Q 359 1206 359 2328 
Q 359 3453 968 4101 
Q 1578 4750 2638 4750 
Q 3056 4750 3426 4639 
Q 3797 4528 4122 4306 
z
" id="DejaVuSans-43" transform="scale(0.015625)"/>
      <path d="M 628 4666 
L 1259 4666 
L 1259 2753 
L 3553 2753 
L 3553 4666 
L 4184 4666 
L 4184 0 
L 3553 0 
L 3553 2222 
L 1259 2222 
L 1259 0 
L 628 0 
L 628 4666 
z
" id="DejaVuSans-48" transform="scale(0.015625)"/>
      <path d="M 628 4666 
L 1569 4666 
L 2759 1491 
L 3956 4666 
L 4897 4666 
L 4897 0 
L 4281 0 
L 4281 4097 
L 3078 897 
L 2444 897 
L 1241 4097 
L 1241 0 
L 628 0 
L 628 4666 
z
" id="DejaVuSans-4d" transform="scale(0.015625)"/>
      <path d="M 2522 4238 
Q 1834 4238 1429 3725 
Q 1025 3213 1025 2328 
Q 1025 1447 1429 934 
Q 1834 422 2522 422 
Q 3209 422 3611 934 
Q 4013 1447 4013 2328 
Q 4013 3213 3611 3725 
Q 3209 4238 2522 4238 
z
M 2522 4750 
Q 3503 4750 4090 4092 
Q 4678 3434 4678 2328 
Q 4678 1225 4090 567 
Q 3503 -91 2522 -91 
Q 1538 -91 948 565 
Q 359 1222 359 2328 
Q 359 3434 948 4092 
Q 1538 4750 2522 4750 
z
" id="DejaVuSans-4f" transform="scale(0.015625)"/>
     </defs>
     <use xlink:href="#DejaVuSans-53"/>
     <use x="63.476562" xlink:href="#DejaVuSans-43"/>
     <use x="133.300781" xlink:href="#DejaVuSans-48"/>
     <use x="208.496094" xlink:href="#DejaVuSans-4d"/>
     <use x="294.775391" xlink:href="#DejaVuSans-4f"/>
     <use x="373.486328" xlink:href="#DejaVuSans-4f"/>
    </g>
    <!-- daily_report -->
    <g transform="translate(200.466563 35.472)scale(0.12 -0.12)">
     <defs>
      <path d="M 603 3500 
L 1178 3500 
L 1178 0 
L 603 0 
L 603 3500 
z
M 603 4863 
L 1178 4863 
L 1178 4134 
L 603 4134 
L 603 4863 
z
" id="DejaVuSans-69" transform="scale(0.015625)"/>
      <path d="M 603 4863 
L 1178 4863 
L 1178 0 
L 603 0 
L 603 4863 
z
" id="DejaVuSans-6c" transform="scale(0.015625)"/>
      <path d="M 2059 -325 
Q 1816 -950 1584 -1140 
Q 1353 -1331 966 -1331 
L 506 -1331 
L 506 -850 
L 844 -850 
Q 1081 -850 1212 -737 
Q 1344 -625 1503 -206 
L 1606 56 
L 191 3500 
L 800 3500 
L 1894 763 
L 2988 3500 
L 3597 3500 
L 2059 -325 
z
" id="DejaVuSans-79" transform="scale(0.015625)"/>
      <path d="M 3263 -1063 
L 3263 -1509 
L -63 -1509 
L -63 -1063 
L 3263 -1063 
z
" id="DejaVuSans-5f" transform="scale(0.015625)"/>
      <path d="M 2631 2963 
Q 2534 3019 2420 3045 
Q 2306 3072 2169 3072 
Q 1681 3072 1420 2755 
Q 1159 2438 1159 1844 
L 1159 0 
L 581 0 
L 581 3500 
L 1159 3500 
L 1159 2956 
Q 1341 3275 1631 3429 
Q 1922 3584 2338 3584 
Q 2397 3584 2469 3576 
Q 2541 3569 2628 3553 
L 2631 2963 
z
" id="DejaVuSans-72" transform="scale(0.015625)"/>
      <path d="M 1159 525 
L 1159 -1331 
L 581 -1331 
L 581 3500 
L 1159 3500 
L 1159 2969 
Q 1341 3281 1617 3432 
Q 1894 3584 2278 3584 
Q 2916 3584 3314 3078 
Q 3713 2572 3713 1747 
Q 3713 922 3314 415 
Q 2916 -91 2278 -91 
Q 1894 -91 1617 61 
Q 1341 213 1159 525 
z
M 3116 1747 
Q 3116 2381 2855 2742 
Q 2594 3103 2138 3103 
Q 1681 3103 1420 2742 
Q 1159 2381 1159 1747 
Q 1159 1113 1420 752 
Q 1681 391 2138 391 
Q 2594 391 2855 752 
Q 3116 1113 3116 1747 
z
" id="DejaVuSans-70" transform="scale(0.015625)"/>
      <path d="M 1959 3097 
Q 1497 3097 1228 2736 
Q 959 2375 959 1747 
Q 959 1119 1226 758 
Q 1494 397 1959 397 
Q 2419 397 2687 759 
Q 2956 1122 2956 1747 
Q 2956 2369 2687 2733 
Q 2419 3097 1959 3097 
z
M 1959 3584 
Q 2709 3584 3137 3096 
Q 3566 2609 3566 1747 
Q 3566 888 3137 398 
Q 2709 -91 1959 -91 
Q 1206 -91 779 398 
Q 353 888 353 1747 
Q 353 2609 779 3096 
Q 1206 3584 1959 3584 
z
" id="DejaVuSans-6f" transform="scale(0.015625)"/>
     </defs>
     <use xlink:href="#DejaVuSans-64"/>
     <use x="63.476562" xlink:href="#DejaVuSans-61"/>
     <use x="124.755859" xlink:href="#DejaVuSans-69"/>
     <use x="152.539062" xlink:href="#DejaVuSans-6c"/>
     <use x="180.322266" xlink:href="#DejaVuSans-79"/>
     <use x="239.501953" xlink:href="#DejaVuSans-5f"/>
     <use x="289.501953" xlink:href="#DejaVuSans-72"/>
     <use x="328.365234" xlink:href="#DejaVuSans-65"/>
     <use x="389.888672" xlink:href="#DejaVuSans-70"/>
     <use x="453.365234" xlink:href="#DejaVuSans-6f"/>
     <use x="514.546875" xlink:href="#DejaVuSans-72"/>
     <use x="555.660156" xlink:href="#DejaVuSans-74"/>
    </g>
   </g>
   <g id="legend_1">
    <g id="patch_7">
     <path d="M 64.6 271.48 
L 178.64375 271.48 
Q 180.64375 271.48 180.64375 269.48 
L 180.64375 182.41125 
Q 180.64375 180.41125 178.64375 180.41125 
L 64.6 180.41125 
Q 62.6 180.41125 62.6 182.41125 
L 62.6 269.48 
Q 62.6 271.48 64.6 271.48 
z
" style="fill:#ffffff;opacity:0.8;stroke:#cccccc;stroke-linejoin:miter;"/>
    </g>
    <g id="line2d_20">
     <path d="M 66.6 188.509687 
L 86.6 188.509687 
" style="fill:none;stroke:#0000ff;stroke-linecap:square;stroke-opacity:0.9;stroke-width:2;"/>
    </g>
    <g id="line2d_21"/>
    <g id="text_16">
     <!-- alpaca -->
     <g transform="translate(94.6 192.009687)scale(0.1 -0.1)">
      <defs>
       <path d="M 3122 3366 
L 3122 2828 
Q 2878 2963 2633 3030 
Q 2388 3097 2138 3097 
Q 1578 3097 1268 2742 
Q 959 2388 959 1747 
Q 959 1106 1268 751 
Q 1578 397 2138 397 
Q 2388 397 2633 464 
Q 2878 531 3122 666 
L 3122 134 
Q 2881 22 2623 -34 
Q 2366 -91 2075 -91 
Q 1284 -91 818 406 
Q 353 903 353 1747 
Q 353 2603 823 3093 
Q 1294 3584 2113 3584 
Q 2378 3584 2631 3529 
Q 2884 3475 3122 3366 
z
" id="DejaVuSans-63" transform="scale(0.015625)"/>
      </defs>
      <use xlink:href="#DejaVuSans-61"/>
      <use x="61.279297" xlink:href="#DejaVuSans-6c"/>
      <use x="89.0625" xlink:href="#DejaVuSans-70"/>
      <use x="152.539062" xlink:href="#DejaVuSans-61"/>
      <use x="213.818359" xlink:href="#DejaVuSans-63"/>
      <use x="268.798828" xlink:href="#DejaVuSans-61"/>
     </g>
    </g>
    <g id="line2d_22">
     <path d="M 66.6 203.187812 
L 86.6 203.187812 
" style="fill:none;stroke:#ff0000;stroke-linecap:square;stroke-opacity:0.9;stroke-width:2;"/>
    </g>
    <g id="line2d_23"/>
    <g id="text_17">
     <!-- mattress -->
     <g transform="translate(94.6 206.687812)scale(0.1 -0.1)">
      <defs>
       <path d="M 3328 2828 
Q 3544 3216 3844 3400 
Q 4144 3584 4550 3584 
Q 5097 3584 5394 3201 
Q 5691 2819 5691 2113 
L 5691 0 
L 5113 0 
L 5113 2094 
Q 5113 2597 4934 2840 
Q 4756 3084 4391 3084 
Q 3944 3084 3684 2787 
Q 3425 2491 3425 1978 
L 3425 0 
L 2847 0 
L 2847 2094 
Q 2847 2600 2669 2842 
Q 2491 3084 2119 3084 
Q 1678 3084 1418 2786 
Q 1159 2488 1159 1978 
L 1159 0 
L 581 0 
L 581 3500 
L 1159 3500 
L 1159 2956 
Q 1356 3278 1631 3431 
Q 1906 3584 2284 3584 
Q 2666 3584 2933 3390 
Q 3200 3197 3328 2828 
z
" id="DejaVuSans-6d" transform="scale(0.015625)"/>
       <path d="M 2834 3397 
L 2834 2853 
Q 2591 2978 2328 3040 
Q 2066 3103 1784 3103 
Q 1356 3103 1142 2972 
Q 928 2841 928 2578 
Q 928 2378 1081 2264 
Q 1234 2150 1697 2047 
L 1894 2003 
Q 2506 1872 2764 1633 
Q 3022 1394 3022 966 
Q 3022 478 2636 193 
Q 2250 -91 1575 -91 
Q 1294 -91 989 -36 
Q 684 19 347 128 
L 347 722 
Q 666 556 975 473 
Q 1284 391 1588 391 
Q 1994 391 2212 530 
Q 2431 669 2431 922 
Q 2431 1156 2273 1281 
Q 2116 1406 1581 1522 
L 1381 1569 
Q 847 1681 609 1914 
Q 372 2147 372 2553 
Q 372 3047 722 3315 
Q 1072 3584 1716 3584 
Q 2034 3584 2315 3537 
Q 2597 3491 2834 3397 
z
" id="DejaVuSans-73" transform="scale(0.015625)"/>
      </defs>
      <use xlink:href="#DejaVuSans-6d"/>
      <use x="97.412109" xlink:href="#DejaVuSans-61"/>
      <use x="158.691406" xlink:href="#DejaVuSans-74"/>
      <use x="197.900391" xlink:href="#DejaVuSans-74"/>
      <use x="237.109375" xlink:href="#DejaVuSans-72"/>
      <use x="275.972656" xlink:href="#DejaVuSans-65"/>
      <use x="337.496094" xlink:href="#DejaVuSans-73"/>
      <use x="389.595703" xlink:href="#DejaVuSans-73"/>
     </g>
    </g>
    <g id="line2d_24">
     <path d="M 66.6 217.865937 
L 86.6 217.865937 
" style="fill:none;stroke:#008000;stroke-linecap:square;stroke-opacity:0.9;stroke-width:2;"/>
    </g>
    <g id="line2d_25"/>
    <g id="text_18">
     <!-- daily-open-rebal -->
     <g transform="translate(94.6 221.365937)scale(0.1 -0.1)">
      <defs>
       <path d="M 3513 2113 
L 3513 0 
L 2938 0 
L 2938 2094 
Q 2938 2591 2744 2837 
Q 2550 3084 2163 3084 
Q 1697 3084 1428 2787 
Q 1159 2491 1159 1978 
L 1159 0 
L 581 0 
L 581 3500 
L 1159 3500 
L 1159 2956 
Q 1366 3272 1645 3428 
Q 1925 3584 2291 3584 
Q 2894 3584 3203 3211 
Q 3513 2838 3513 2113 
z
" id="DejaVuSans-6e" transform="scale(0.015625)"/>
       <path d="M 3116 1747 
Q 3116 2381 2855 2742 
Q 2594 3103 2138 3103 
Q 1681 3103 1420 2742 
Q 1159 2381 1159 1747 
Q 1159 1113 1420 752 
Q 1681 391 2138 391 
Q 2594 391 2855 752 
Q 3116 1113 3116 1747 
z
M 1159 2969 
Q 1341 3281 1617 3432 
Q 1894 3584 2278 3584 
Q 2916 3584 3314 3078 
Q 3713 2572 3713 1747 
Q 3713 922 3314 415 
Q 2916 -91 2278 -91 
Q 1894 -91 1617 61 
Q 1341 213 1159 525 
L 1159 0 
L 581 0 
L 581 4863 
L 1159 4863 
L 1159 2969 
z
" id="DejaVuSans-62" transform="scale(0.015625)"/>
      </defs>
      <use xlink:href="#DejaVuSans-64"/>
      <use x="63.476562" xlink:href="#DejaVuSans-61"/>
      <use x="124.755859" xlink:href="#DejaVuSans-69"/>
      <use x="152.539062" xlink:href="#DejaVuSans-6c"/>
      <use x="180.322266" xlink:href="#DejaVuSans-79"/>
      <use x="237.751953" xlink:href="#DejaVuSans-2d"/>
      <use x="275.710938" xlink:href="#DejaVuSans-6f"/>
      <use x="336.892578" xlink:href="#DejaVuSans-70"/>
      <use x="400.369141" xlink:href="#DejaVuSans-65"/>
      <use x="461.892578" xlink:href="#DejaVuSans-6e"/>
      <use x="525.271484" xlink:href="#DejaVuSans-2d"/>
      <use x="561.355469" xlink:href="#DejaVuSans-72"/>
      <use x="600.21875" xlink:href="#DejaVuSans-65"/>
      <use x="661.742188" xlink:href="#DejaVuSans-62"/>
      <use x="725.21875" xlink:href="#DejaVuSans-61"/>
      <use x="786.498047" xlink:href="#DejaVuSans-6c"/>
     </g>
    </g>
    <g id="line2d_26">
     <path d="M 66.6 232.544062 
L 86.6 232.544062 
" style="fill:none;stroke:#ec5283;stroke-linecap:square;stroke-width:2;"/>
    </g>
    <g id="line2d_27"/>
    <g id="text_19">
     <!-- daily-close-rebal -->
     <g transform="translate(94.6 236.044062)scale(0.1 -0.1)">
      <use xlink:href="#DejaVuSans-64"/>
      <use x="63.476562" xlink:href="#DejaVuSans-61"/>
      <use x="124.755859" xlink:href="#DejaVuSans-69"/>
      <use x="152.539062" xlink:href="#DejaVuSans-6c"/>
      <use x="180.322266" xlink:href="#DejaVuSans-79"/>
      <use x="237.751953" xlink:href="#DejaVuSans-2d"/>
      <use x="273.835938" xlink:href="#DejaVuSans-63"/>
      <use x="328.816406" xlink:href="#DejaVuSans-6c"/>
      <use x="356.599609" xlink:href="#DejaVuSans-6f"/>
      <use x="417.78125" xlink:href="#DejaVuSans-73"/>
      <use x="469.880859" xlink:href="#DejaVuSans-65"/>
      <use x="531.404297" xlink:href="#DejaVuSans-2d"/>
      <use x="567.488281" xlink:href="#DejaVuSans-72"/>
      <use x="606.351562" xlink:href="#DejaVuSans-65"/>
      <use x="667.875" xlink:href="#DejaVuSans-62"/>
      <use x="731.351562" xlink:href="#DejaVuSans-61"/>
      <use x="792.630859" xlink:href="#DejaVuSans-6c"/>
     </g>
    </g>
    <g id="line2d_28">
     <path d="M 66.6 247.222187 
L 86.6 247.222187 
" style="fill:none;stroke:#00ff00;stroke-linecap:square;stroke-opacity:0.9;stroke-width:2;"/>
    </g>
    <g id="line2d_29"/>
    <g id="text_20">
     <!-- trader-baseline -->
     <g transform="translate(94.6 250.722187)scale(0.1 -0.1)">
      <use xlink:href="#DejaVuSans-74"/>
      <use x="39.208984" xlink:href="#DejaVuSans-72"/>
      <use x="80.322266" xlink:href="#DejaVuSans-61"/>
      <use x="141.601562" xlink:href="#DejaVuSans-64"/>
      <use x="205.078125" xlink:href="#DejaVuSans-65"/>
      <use x="266.601562" xlink:href="#DejaVuSans-72"/>
      <use x="301.339844" xlink:href="#DejaVuSans-2d"/>
      <use x="337.423828" xlink:href="#DejaVuSans-62"/>
      <use x="400.900391" xlink:href="#DejaVuSans-61"/>
      <use x="462.179688" xlink:href="#DejaVuSans-73"/>
      <use x="514.279297" xlink:href="#DejaVuSans-65"/>
      <use x="575.802734" xlink:href="#DejaVuSans-6c"/>
      <use x="603.585938" xlink:href="#DejaVuSans-69"/>
      <use x="631.369141" xlink:href="#DejaVuSans-6e"/>
      <use x="694.748047" xlink:href="#DejaVuSans-65"/>
     </g>
    </g>
    <g id="line2d_30">
     <path d="M 66.6 261.900312 
L 86.6 261.900312 
" style="fill:none;stroke:#a5b9cf;stroke-linecap:square;stroke-width:2;"/>
    </g>
    <g id="line2d_31"/>
    <g id="text_21">
     <!-- default-cfg -->
     <g transform="translate(94.6 265.400312)scale(0.1 -0.1)">
      <defs>
       <path d="M 2375 4863 
L 2375 4384 
L 1825 4384 
Q 1516 4384 1395 4259 
Q 1275 4134 1275 3809 
L 1275 3500 
L 2222 3500 
L 2222 3053 
L 1275 3053 
L 1275 0 
L 697 0 
L 697 3053 
L 147 3053 
L 147 3500 
L 697 3500 
L 697 3744 
Q 697 4328 969 4595 
Q 1241 4863 1831 4863 
L 2375 4863 
z
" id="DejaVuSans-66" transform="scale(0.015625)"/>
       <path d="M 544 1381 
L 544 3500 
L 1119 3500 
L 1119 1403 
Q 1119 906 1312 657 
Q 1506 409 1894 409 
Q 2359 409 2629 706 
Q 2900 1003 2900 1516 
L 2900 3500 
L 3475 3500 
L 3475 0 
L 2900 0 
L 2900 538 
Q 2691 219 2414 64 
Q 2138 -91 1772 -91 
Q 1169 -91 856 284 
Q 544 659 544 1381 
z
M 1991 3584 
L 1991 3584 
z
" id="DejaVuSans-75" transform="scale(0.015625)"/>
       <path d="M 2906 1791 
Q 2906 2416 2648 2759 
Q 2391 3103 1925 3103 
Q 1463 3103 1205 2759 
Q 947 2416 947 1791 
Q 947 1169 1205 825 
Q 1463 481 1925 481 
Q 2391 481 2648 825 
Q 2906 1169 2906 1791 
z
M 3481 434 
Q 3481 -459 3084 -895 
Q 2688 -1331 1869 -1331 
Q 1566 -1331 1297 -1286 
Q 1028 -1241 775 -1147 
L 775 -588 
Q 1028 -725 1275 -790 
Q 1522 -856 1778 -856 
Q 2344 -856 2625 -561 
Q 2906 -266 2906 331 
L 2906 616 
Q 2728 306 2450 153 
Q 2172 0 1784 0 
Q 1141 0 747 490 
Q 353 981 353 1791 
Q 353 2603 747 3093 
Q 1141 3584 1784 3584 
Q 2172 3584 2450 3431 
Q 2728 3278 2906 2969 
L 2906 3500 
L 3481 3500 
L 3481 434 
z
" id="DejaVuSans-67" transform="scale(0.015625)"/>
      </defs>
      <use xlink:href="#DejaVuSans-64"/>
      <use x="63.476562" xlink:href="#DejaVuSans-65"/>
      <use x="125" xlink:href="#DejaVuSans-66"/>
      <use x="160.205078" xlink:href="#DejaVuSans-61"/>
      <use x="221.484375" xlink:href="#DejaVuSans-75"/>
      <use x="284.863281" xlink:href="#DejaVuSans-6c"/>
      <use x="312.646484" xlink:href="#DejaVuSans-74"/>
      <use x="351.855469" xlink:href="#DejaVuSans-2d"/>
      <use x="387.939453" xlink:href="#DejaVuSans-63"/>
      <use x="442.919922" xlink:href="#DejaVuSans-66"/>
      <use x="478.125" xlink:href="#DejaVuSans-67"/>
     </g>
    </g>
   </g>
  </g>
 </g>
 <defs>
  <clipPath id="pc00cee4076">
   <rect height="235.008" width="357.12" x="57.6" y="41.472"/>
  </clipPath>
 </defs>
</svg>
