<?xml version="1.0" encoding="utf-8" standalone="no"?>
<!DOCTYPE svg PUBLIC "-//W3C//DTD SVG 1.1//EN"
  "http://www.w3.org/Graphics/SVG/1.1/DTD/svg11.dtd">
<svg height="345.6pt" version="1.1" viewBox="0 0 460.8 345.6" width="460.8pt" xmlns="http://www.w3.org/2000/svg" xmlns:xlink="http://www.w3.org/1999/xlink">
 <metadata>
  <rdf:RDF xmlns:cc="http://creativecommons.org/ns#" xmlns:dc="http://purl.org/dc/elements/1.1/" xmlns:rdf="http://www.w3.org/1999/02/22-rdf-syntax-ns#">
   <cc:Work>
    <dc:type rdf:resource="http://purl.org/dc/dcmitype/StillImage"/>
    <dc:date>2022-06-05T10:02:21.800542</dc:date>
    <dc:format>image/svg+xml</dc:format>
    <dc:creator>
     <cc:Agent>
      <dc:title>Matplotlib v3.4.3, https://matplotlib.org/</dc:title>
     </cc:Agent>
    </dc:creator>
   </cc:Work>
  </rdf:RDF>
 </metadata>
 <defs>
  <style type="text/css">*{stroke-linecap:butt;stroke-linejoin:round;}</style>
 </defs>
 <g id="figure_1">
  <g id="patch_1">
   <path d="M 0 345.6 
L 460.8 345.6 
L 460.8 0 
L 0 0 
z
" style="fill:#ffffff;"/>
  </g>
  <g id="axes_1">
   <g id="patch_2">
    <path d="M 57.6 276.48 
L 414.72 276.48 
L 414.72 41.472 
L 57.6 41.472 
z
" style="fill:#ffffff;"/>
   </g>
   <g id="matplotlib.axis_1">
    <g id="xtick_1">
     <g id="line2d_1">
      <defs>
       <path d="M 0 0 
L 0 3.5 
" id="m06a900a36f" style="stroke:#000000;stroke-width:0.8;"/>
      </defs>
      <g>
       <use style="stroke:#000000;stroke-width:0.8;" x="95.256631" xlink:href="#m06a900a36f" y="276.48"/>
      </g>
     </g>
     <g id="text_1">
      <!-- 2021-12 -->
      <g transform="translate(58.03181 310.951846)rotate(-30)scale(0.1 -0.1)">
       <defs>
        <path d="M 1228 531 
L 3431 531 
L 3431 0 
L 469 0 
L 469 531 
Q 828 903 1448 1529 
Q 2069 2156 2228 2338 
Q 2531 2678 2651 2914 
Q 2772 3150 2772 3378 
Q 2772 3750 2511 3984 
Q 2250 4219 1831 4219 
Q 1534 4219 1204 4116 
Q 875 4013 500 3803 
L 500 4441 
Q 881 4594 1212 4672 
Q 1544 4750 1819 4750 
Q 2544 4750 2975 4387 
Q 3406 4025 3406 3419 
Q 3406 3131 3298 2873 
Q 3191 2616 2906 2266 
Q 2828 2175 2409 1742 
Q 1991 1309 1228 531 
z
" id="DejaVuSans-32" transform="scale(0.015625)"/>
        <path d="M 2034 4250 
Q 1547 4250 1301 3770 
Q 1056 3291 1056 2328 
Q 1056 1369 1301 889 
Q 1547 409 2034 409 
Q 2525 409 2770 889 
Q 3016 1369 3016 2328 
Q 3016 3291 2770 3770 
Q 2525 4250 2034 4250 
z
M 2034 4750 
Q 2819 4750 3233 4129 
Q 3647 3509 3647 2328 
Q 3647 1150 3233 529 
Q 2819 -91 2034 -91 
Q 1250 -91 836 529 
Q 422 1150 422 2328 
Q 422 3509 836 4129 
Q 1250 4750 2034 4750 
z
" id="DejaVuSans-30" transform="scale(0.015625)"/>
        <path d="M 794 531 
L 1825 531 
L 1825 4091 
L 703 3866 
L 703 4441 
L 1819 4666 
L 2450 4666 
L 2450 531 
L 3481 531 
L 3481 0 
L 794 0 
L 794 531 
z
" id="DejaVuSans-31" transform="scale(0.015625)"/>
        <path d="M 313 2009 
L 1997 2009 
L 1997 1497 
L 313 1497 
L 313 2009 
z
" id="DejaVuSans-2d" transform="scale(0.015625)"/>
       </defs>
       <use xlink:href="#DejaVuSans-32"/>
       <use x="63.623047" xlink:href="#DejaVuSans-30"/>
       <use x="127.246094" xlink:href="#DejaVuSans-32"/>
       <use x="190.869141" xlink:href="#DejaVuSans-31"/>
       <use x="254.492188" xlink:href="#DejaVuSans-2d"/>
       <use x="290.576172" xlink:href="#DejaVuSans-31"/>
       <use x="354.199219" xlink:href="#DejaVuSans-32"/>
      </g>
     </g>
    </g>
    <g id="xtick_2">
     <g id="line2d_2">
      <g>
       <use style="stroke:#000000;stroke-width:0.8;" x="146.344402" xlink:href="#m06a900a36f" y="276.48"/>
      </g>
     </g>
     <g id="text_2">
      <!-- 2022-01 -->
      <g transform="translate(109.119582 310.951846)rotate(-30)scale(0.1 -0.1)">
       <use xlink:href="#DejaVuSans-32"/>
       <use x="63.623047" xlink:href="#DejaVuSans-30"/>
       <use x="127.246094" xlink:href="#DejaVuSans-32"/>
       <use x="190.869141" xlink:href="#DejaVuSans-32"/>
       <use x="254.492188" xlink:href="#DejaVuSans-2d"/>
       <use x="290.576172" xlink:href="#DejaVuSans-30"/>
       <use x="354.199219" xlink:href="#DejaVuSans-31"/>
      </g>
     </g>
    </g>
    <g id="xtick_3">
     <g id="line2d_3">
      <g>
       <use style="stroke:#000000;stroke-width:0.8;" x="197.432174" xlink:href="#m06a900a36f" y="276.48"/>
      </g>
     </g>
     <g id="text_3">
      <!-- 2022-02 -->
      <g transform="translate(160.207353 310.951846)rotate(-30)scale(0.1 -0.1)">
       <use xlink:href="#DejaVuSans-32"/>
       <use x="63.623047" xlink:href="#DejaVuSans-30"/>
       <use x="127.246094" xlink:href="#DejaVuSans-32"/>
       <use x="190.869141" xlink:href="#DejaVuSans-32"/>
       <use x="254.492188" xlink:href="#DejaVuSans-2d"/>
       <use x="290.576172" xlink:href="#DejaVuSans-30"/>
       <use x="354.199219" xlink:href="#DejaVuSans-32"/>
      </g>
     </g>
    </g>
    <g id="xtick_4">
     <g id="line2d_4">
      <g>
       <use style="stroke:#000000;stroke-width:0.8;" x="243.575967" xlink:href="#m06a900a36f" y="276.48"/>
      </g>
     </g>
     <g id="text_4">
      <!-- 2022-03 -->
      <g transform="translate(206.351146 310.951846)rotate(-30)scale(0.1 -0.1)">
       <defs>
        <path d="M 2597 2516 
Q 3050 2419 3304 2112 
Q 3559 1806 3559 1356 
Q 3559 666 3084 287 
Q 2609 -91 1734 -91 
Q 1441 -91 1130 -33 
Q 819 25 488 141 
L 488 750 
Q 750 597 1062 519 
Q 1375 441 1716 441 
Q 2309 441 2620 675 
Q 2931 909 2931 1356 
Q 2931 1769 2642 2001 
Q 2353 2234 1838 2234 
L 1294 2234 
L 1294 2753 
L 1863 2753 
Q 2328 2753 2575 2939 
Q 2822 3125 2822 3475 
Q 2822 3834 2567 4026 
Q 2313 4219 1838 4219 
Q 1578 4219 1281 4162 
Q 984 4106 628 3988 
L 628 4550 
Q 988 4650 1302 4700 
Q 1616 4750 1894 4750 
Q 2613 4750 3031 4423 
Q 3450 4097 3450 3541 
Q 3450 3153 3228 2886 
Q 3006 2619 2597 2516 
z
" id="DejaVuSans-33" transform="scale(0.015625)"/>
       </defs>
       <use xlink:href="#DejaVuSans-32"/>
       <use x="63.623047" xlink:href="#DejaVuSans-30"/>
       <use x="127.246094" xlink:href="#DejaVuSans-32"/>
       <use x="190.869141" xlink:href="#DejaVuSans-32"/>
       <use x="254.492188" xlink:href="#DejaVuSans-2d"/>
       <use x="290.576172" xlink:href="#DejaVuSans-30"/>
       <use x="354.199219" xlink:href="#DejaVuSans-33"/>
      </g>
     </g>
    </g>
    <g id="xtick_5">
     <g id="line2d_5">
      <g>
       <use style="stroke:#000000;stroke-width:0.8;" x="294.663738" xlink:href="#m06a900a36f" y="276.48"/>
      </g>
     </g>
     <g id="text_5">
      <!-- 2022-04 -->
      <g transform="translate(257.438917 310.951846)rotate(-30)scale(0.1 -0.1)">
       <defs>
        <path d="M 2419 4116 
L 825 1625 
L 2419 1625 
L 2419 4116 
z
M 2253 4666 
L 3047 4666 
L 3047 1625 
L 3713 1625 
L 3713 1100 
L 3047 1100 
L 3047 0 
L 2419 0 
L 2419 1100 
L 313 1100 
L 313 1709 
L 2253 4666 
z
" id="DejaVuSans-34" transform="scale(0.015625)"/>
       </defs>
       <use xlink:href="#DejaVuSans-32"/>
       <use x="63.623047" xlink:href="#DejaVuSans-30"/>
       <use x="127.246094" xlink:href="#DejaVuSans-32"/>
       <use x="190.869141" xlink:href="#DejaVuSans-32"/>
       <use x="254.492188" xlink:href="#DejaVuSans-2d"/>
       <use x="290.576172" xlink:href="#DejaVuSans-30"/>
       <use x="354.199219" xlink:href="#DejaVuSans-34"/>
      </g>
     </g>
    </g>
    <g id="xtick_6">
     <g id="line2d_6">
      <g>
       <use style="stroke:#000000;stroke-width:0.8;" x="344.103516" xlink:href="#m06a900a36f" y="276.48"/>
      </g>
     </g>
     <g id="text_6">
      <!-- 2022-05 -->
      <g transform="translate(306.878696 310.951846)rotate(-30)scale(0.1 -0.1)">
       <defs>
        <path d="M 691 4666 
L 3169 4666 
L 3169 4134 
L 1269 4134 
L 1269 2991 
Q 1406 3038 1543 3061 
Q 1681 3084 1819 3084 
Q 2600 3084 3056 2656 
Q 3513 2228 3513 1497 
Q 3513 744 3044 326 
Q 2575 -91 1722 -91 
Q 1428 -91 1123 -41 
Q 819 9 494 109 
L 494 744 
Q 775 591 1075 516 
Q 1375 441 1709 441 
Q 2250 441 2565 725 
Q 2881 1009 2881 1497 
Q 2881 1984 2565 2268 
Q 2250 2553 1709 2553 
Q 1456 2553 1204 2497 
Q 953 2441 691 2322 
L 691 4666 
z
" id="DejaVuSans-35" transform="scale(0.015625)"/>
       </defs>
       <use xlink:href="#DejaVuSans-32"/>
       <use x="63.623047" xlink:href="#DejaVuSans-30"/>
       <use x="127.246094" xlink:href="#DejaVuSans-32"/>
       <use x="190.869141" xlink:href="#DejaVuSans-32"/>
       <use x="254.492188" xlink:href="#DejaVuSans-2d"/>
       <use x="290.576172" xlink:href="#DejaVuSans-30"/>
       <use x="354.199219" xlink:href="#DejaVuSans-35"/>
      </g>
     </g>
    </g>
    <g id="xtick_7">
     <g id="line2d_7">
      <g>
       <use style="stroke:#000000;stroke-width:0.8;" x="395.191287" xlink:href="#m06a900a36f" y="276.48"/>
      </g>
     </g>
     <g id="text_7">
      <!-- 2022-06 -->
      <g transform="translate(357.966467 310.951846)rotate(-30)scale(0.1 -0.1)">
       <defs>
        <path d="M 2113 2584 
Q 1688 2584 1439 2293 
Q 1191 2003 1191 1497 
Q 1191 994 1439 701 
Q 1688 409 2113 409 
Q 2538 409 2786 701 
Q 3034 994 3034 1497 
Q 3034 2003 2786 2293 
Q 2538 2584 2113 2584 
z
M 3366 4563 
L 3366 3988 
Q 3128 4100 2886 4159 
Q 2644 4219 2406 4219 
Q 1781 4219 1451 3797 
Q 1122 3375 1075 2522 
Q 1259 2794 1537 2939 
Q 1816 3084 2150 3084 
Q 2853 3084 3261 2657 
Q 3669 2231 3669 1497 
Q 3669 778 3244 343 
Q 2819 -91 2113 -91 
Q 1303 -91 875 529 
Q 447 1150 447 2328 
Q 447 3434 972 4092 
Q 1497 4750 2381 4750 
Q 2619 4750 2861 4703 
Q 3103 4656 3366 4563 
z
" id="DejaVuSans-36" transform="scale(0.015625)"/>
       </defs>
       <use xlink:href="#DejaVuSans-32"/>
       <use x="63.623047" xlink:href="#DejaVuSans-30"/>
       <use x="127.246094" xlink:href="#DejaVuSans-32"/>
       <use x="190.869141" xlink:href="#DejaVuSans-32"/>
       <use x="254.492188" xlink:href="#DejaVuSans-2d"/>
       <use x="290.576172" xlink:href="#DejaVuSans-30"/>
       <use x="354.199219" xlink:href="#DejaVuSans-36"/>
      </g>
     </g>
    </g>
    <g id="text_8">
     <!-- date -->
     <g transform="translate(224.885 324.351346)scale(0.1 -0.1)">
      <defs>
       <path d="M 2906 2969 
L 2906 4863 
L 3481 4863 
L 3481 0 
L 2906 0 
L 2906 525 
Q 2725 213 2448 61 
Q 2172 -91 1784 -91 
Q 1150 -91 751 415 
Q 353 922 353 1747 
Q 353 2572 751 3078 
Q 1150 3584 1784 3584 
Q 2172 3584 2448 3432 
Q 2725 3281 2906 2969 
z
M 947 1747 
Q 947 1113 1208 752 
Q 1469 391 1925 391 
Q 2381 391 2643 752 
Q 2906 1113 2906 1747 
Q 2906 2381 2643 2742 
Q 2381 3103 1925 3103 
Q 1469 3103 1208 2742 
Q 947 2381 947 1747 
z
" id="DejaVuSans-64" transform="scale(0.015625)"/>
       <path d="M 2194 1759 
Q 1497 1759 1228 1600 
Q 959 1441 959 1056 
Q 959 750 1161 570 
Q 1363 391 1709 391 
Q 2188 391 2477 730 
Q 2766 1069 2766 1631 
L 2766 1759 
L 2194 1759 
z
M 3341 1997 
L 3341 0 
L 2766 0 
L 2766 531 
Q 2569 213 2275 61 
Q 1981 -91 1556 -91 
Q 1019 -91 701 211 
Q 384 513 384 1019 
Q 384 1609 779 1909 
Q 1175 2209 1959 2209 
L 2766 2209 
L 2766 2266 
Q 2766 2663 2505 2880 
Q 2244 3097 1772 3097 
Q 1472 3097 1187 3025 
Q 903 2953 641 2809 
L 641 3341 
Q 956 3463 1253 3523 
Q 1550 3584 1831 3584 
Q 2591 3584 2966 3190 
Q 3341 2797 3341 1997 
z
" id="DejaVuSans-61" transform="scale(0.015625)"/>
       <path d="M 1172 4494 
L 1172 3500 
L 2356 3500 
L 2356 3053 
L 1172 3053 
L 1172 1153 
Q 1172 725 1289 603 
Q 1406 481 1766 481 
L 2356 481 
L 2356 0 
L 1766 0 
Q 1100 0 847 248 
Q 594 497 594 1153 
L 594 3053 
L 172 3053 
L 172 3500 
L 594 3500 
L 594 4494 
L 1172 4494 
z
" id="DejaVuSans-74" transform="scale(0.015625)"/>
       <path d="M 3597 1894 
L 3597 1613 
L 953 1613 
Q 991 1019 1311 708 
Q 1631 397 2203 397 
Q 2534 397 2845 478 
Q 3156 559 3463 722 
L 3463 178 
Q 3153 47 2828 -22 
Q 2503 -91 2169 -91 
Q 1331 -91 842 396 
Q 353 884 353 1716 
Q 353 2575 817 3079 
Q 1281 3584 2069 3584 
Q 2775 3584 3186 3129 
Q 3597 2675 3597 1894 
z
M 3022 2063 
Q 3016 2534 2758 2815 
Q 2500 3097 2075 3097 
Q 1594 3097 1305 2825 
Q 1016 2553 972 2059 
L 3022 2063 
z
" id="DejaVuSans-65" transform="scale(0.015625)"/>
      </defs>
      <use xlink:href="#DejaVuSans-64"/>
      <use x="63.476562" xlink:href="#DejaVuSans-61"/>
      <use x="124.755859" xlink:href="#DejaVuSans-74"/>
      <use x="163.964844" xlink:href="#DejaVuSans-65"/>
     </g>
    </g>
   </g>
   <g id="matplotlib.axis_2">
    <g id="ytick_1">
     <g id="line2d_8">
      <defs>
       <path d="M 0 0 
L -3.5 0 
" id="me33cd5c2e2" style="stroke:#000000;stroke-width:0.8;"/>
      </defs>
      <g>
       <use style="stroke:#000000;stroke-width:0.8;" x="57.6" xlink:href="#me33cd5c2e2" y="241.410222"/>
      </g>
     </g>
     <g id="text_9">
      <!-- 50000 -->
      <g transform="translate(18.7875 245.209441)scale(0.1 -0.1)">
       <use xlink:href="#DejaVuSans-35"/>
       <use x="63.623047" xlink:href="#DejaVuSans-30"/>
       <use x="127.246094" xlink:href="#DejaVuSans-30"/>
       <use x="190.869141" xlink:href="#DejaVuSans-30"/>
       <use x="254.492188" xlink:href="#DejaVuSans-30"/>
      </g>
     </g>
    </g>
    <g id="ytick_2">
     <g id="line2d_9">
      <g>
       <use style="stroke:#000000;stroke-width:0.8;" x="57.6" xlink:href="#me33cd5c2e2" y="203.179739"/>
      </g>
     </g>
     <g id="text_10">
      <!-- 60000 -->
      <g transform="translate(18.7875 206.978958)scale(0.1 -0.1)">
       <use xlink:href="#DejaVuSans-36"/>
       <use x="63.623047" xlink:href="#DejaVuSans-30"/>
       <use x="127.246094" xlink:href="#DejaVuSans-30"/>
       <use x="190.869141" xlink:href="#DejaVuSans-30"/>
       <use x="254.492188" xlink:href="#DejaVuSans-30"/>
      </g>
     </g>
    </g>
    <g id="ytick_3">
     <g id="line2d_10">
      <g>
       <use style="stroke:#000000;stroke-width:0.8;" x="57.6" xlink:href="#me33cd5c2e2" y="164.949255"/>
      </g>
     </g>
     <g id="text_11">
      <!-- 70000 -->
      <g transform="translate(18.7875 168.748474)scale(0.1 -0.1)">
       <defs>
        <path d="M 525 4666 
L 3525 4666 
L 3525 4397 
L 1831 0 
L 1172 0 
L 2766 4134 
L 525 4134 
L 525 4666 
z
" id="DejaVuSans-37" transform="scale(0.015625)"/>
       </defs>
       <use xlink:href="#DejaVuSans-37"/>
       <use x="63.623047" xlink:href="#DejaVuSans-30"/>
       <use x="127.246094" xlink:href="#DejaVuSans-30"/>
       <use x="190.869141" xlink:href="#DejaVuSans-30"/>
       <use x="254.492188" xlink:href="#DejaVuSans-30"/>
      </g>
     </g>
    </g>
    <g id="ytick_4">
     <g id="line2d_11">
      <g>
       <use style="stroke:#000000;stroke-width:0.8;" x="57.6" xlink:href="#me33cd5c2e2" y="126.718771"/>
      </g>
     </g>
     <g id="text_12">
      <!-- 80000 -->
      <g transform="translate(18.7875 130.51799)scale(0.1 -0.1)">
       <defs>
        <path d="M 2034 2216 
Q 1584 2216 1326 1975 
Q 1069 1734 1069 1313 
Q 1069 891 1326 650 
Q 1584 409 2034 409 
Q 2484 409 2743 651 
Q 3003 894 3003 1313 
Q 3003 1734 2745 1975 
Q 2488 2216 2034 2216 
z
M 1403 2484 
Q 997 2584 770 2862 
Q 544 3141 544 3541 
Q 544 4100 942 4425 
Q 1341 4750 2034 4750 
Q 2731 4750 3128 4425 
Q 3525 4100 3525 3541 
Q 3525 3141 3298 2862 
Q 3072 2584 2669 2484 
Q 3125 2378 3379 2068 
Q 3634 1759 3634 1313 
Q 3634 634 3220 271 
Q 2806 -91 2034 -91 
Q 1263 -91 848 271 
Q 434 634 434 1313 
Q 434 1759 690 2068 
Q 947 2378 1403 2484 
z
M 1172 3481 
Q 1172 3119 1398 2916 
Q 1625 2713 2034 2713 
Q 2441 2713 2670 2916 
Q 2900 3119 2900 3481 
Q 2900 3844 2670 4047 
Q 2441 4250 2034 4250 
Q 1625 4250 1398 4047 
Q 1172 3844 1172 3481 
z
" id="DejaVuSans-38" transform="scale(0.015625)"/>
       </defs>
       <use xlink:href="#DejaVuSans-38"/>
       <use x="63.623047" xlink:href="#DejaVuSans-30"/>
       <use x="127.246094" xlink:href="#DejaVuSans-30"/>
       <use x="190.869141" xlink:href="#DejaVuSans-30"/>
       <use x="254.492188" xlink:href="#DejaVuSans-30"/>
      </g>
     </g>
    </g>
    <g id="ytick_5">
     <g id="line2d_12">
      <g>
       <use style="stroke:#000000;stroke-width:0.8;" x="57.6" xlink:href="#me33cd5c2e2" y="88.488288"/>
      </g>
     </g>
     <g id="text_13">
      <!-- 90000 -->
      <g transform="translate(18.7875 92.287506)scale(0.1 -0.1)">
       <defs>
        <path d="M 703 97 
L 703 672 
Q 941 559 1184 500 
Q 1428 441 1663 441 
Q 2288 441 2617 861 
Q 2947 1281 2994 2138 
Q 2813 1869 2534 1725 
Q 2256 1581 1919 1581 
Q 1219 1581 811 2004 
Q 403 2428 403 3163 
Q 403 3881 828 4315 
Q 1253 4750 1959 4750 
Q 2769 4750 3195 4129 
Q 3622 3509 3622 2328 
Q 3622 1225 3098 567 
Q 2575 -91 1691 -91 
Q 1453 -91 1209 -44 
Q 966 3 703 97 
z
M 1959 2075 
Q 2384 2075 2632 2365 
Q 2881 2656 2881 3163 
Q 2881 3666 2632 3958 
Q 2384 4250 1959 4250 
Q 1534 4250 1286 3958 
Q 1038 3666 1038 3163 
Q 1038 2656 1286 2365 
Q 1534 2075 1959 2075 
z
" id="DejaVuSans-39" transform="scale(0.015625)"/>
       </defs>
       <use xlink:href="#DejaVuSans-39"/>
       <use x="63.623047" xlink:href="#DejaVuSans-30"/>
       <use x="127.246094" xlink:href="#DejaVuSans-30"/>
       <use x="190.869141" xlink:href="#DejaVuSans-30"/>
       <use x="254.492188" xlink:href="#DejaVuSans-30"/>
      </g>
     </g>
    </g>
    <g id="ytick_6">
     <g id="line2d_13">
      <g>
       <use style="stroke:#000000;stroke-width:0.8;" x="57.6" xlink:href="#me33cd5c2e2" y="50.257804"/>
      </g>
     </g>
     <g id="text_14">
      <!-- 100000 -->
      <g transform="translate(12.425 54.057023)scale(0.1 -0.1)">
       <use xlink:href="#DejaVuSans-31"/>
       <use x="63.623047" xlink:href="#DejaVuSans-30"/>
       <use x="127.246094" xlink:href="#DejaVuSans-30"/>
       <use x="190.869141" xlink:href="#DejaVuSans-30"/>
       <use x="254.492188" xlink:href="#DejaVuSans-30"/>
       <use x="318.115234" xlink:href="#DejaVuSans-30"/>
      </g>
     </g>
    </g>
   </g>
   <g id="line2d_14">
    <path clip-path="url(#p2827cd1d61)" d="M 73.832727 60.795623 
L 75.48072 56.70023 
L 80.424698 52.154182 
L 82.07269 64.786113 
L 83.720683 64.322758 
L 87.016668 64.449495 
L 91.960646 72.784031 
L 93.608639 81.301523 
L 95.256631 103.956058 
L 96.904624 101.969457 
L 98.552617 120.249089 
L 103.496594 119.771897 
L 105.144587 104.100743 
L 106.79258 96.900344 
L 108.440572 115.620545 
L 110.088565 118.25314 
L 115.032543 132.328479 
L 118.328528 124.093233 
L 119.976521 131.851005 
L 121.624513 120.997925 
L 126.568491 129.454323 
L 128.216484 117.752009 
L 129.864476 116.927854 
L 131.512469 113.93545 
L 138.104439 114.691599 
L 139.752432 119.216755 
L 141.400425 125.128359 
L 143.048417 118.082414 
L 144.69641 125.780094 
L 149.640388 114.311711 
L 151.28838 123.200925 
L 152.936373 145.328843 
L 154.584365 147.258955 
L 156.232358 143.813118 
L 161.176336 148.140424 
L 162.824329 142.273235 
L 164.472321 139.400277 
L 166.120314 157.033559 
L 167.768306 156.203091 
L 174.360277 171.019248 
L 176.008269 177.042522 
L 177.656262 181.963704 
L 179.304255 192.57153 
L 184.248233 198.762901 
L 185.896225 204.754147 
L 187.544218 204.726767 
L 189.19221 221.727056 
L 190.840203 216.854018 
L 197.432174 186.271365 
L 199.080166 197.132493 
L 200.728159 205.2679 
L 202.376151 196.813378 
L 207.320129 198.894236 
L 208.968122 188.261477 
L 210.616114 173.954057 
L 212.264107 181.737135 
L 213.9121 192.256417 
L 218.856078 197.017585 
L 220.50407 174.148583 
L 222.152063 175.983176 
L 223.800055 189.578425 
L 225.448048 198.061426 
L 232.040018 206.590599 
L 233.688011 215.028009 
L 235.336004 201.446034 
L 236.983996 197.125853 
L 241.927974 187.251965 
L 243.575967 188.510757 
L 245.223959 184.442075 
L 246.871952 197.04035 
L 248.519945 208.293567 
L 253.463922 219.790696 
L 255.111915 215.102168 
L 256.759908 205.735764 
L 258.4079 212.696391 
L 260.055893 226.323012 
L 264.999871 240.261272 
L 266.647863 229.924294 
L 268.295856 210.417089 
L 269.943849 201.947364 
L 271.591841 192.402861 
L 276.535819 191.568475 
L 278.183812 173.289345 
L 279.831804 166.375104 
L 281.479797 162.673411 
L 283.12779 166.133205 
L 288.071767 141.143221 
L 289.71976 130.306489 
L 291.367753 139.83826 
L 293.015745 150.497877 
L 294.663738 151.226207 
L 299.607716 137.993572 
L 301.255708 157.481314 
L 302.903701 168.605733 
L 304.551694 173.606724 
L 306.199686 183.465397 
L 311.143664 185.556351 
L 312.791657 189.196655 
L 314.439649 179.869858 
L 316.087642 187.48761 
L 322.679612 192.827823 
L 324.327605 183.165151 
L 325.975598 196.599028 
L 327.62359 202.845774 
L 329.271583 205.868432 
L 334.215561 203.631845 
L 335.863553 220.020592 
L 337.511546 218.527062 
L 339.159539 216.179433 
L 340.807531 222.405606 
L 347.399502 214.463054 
L 349.047494 205.689013 
L 350.695487 224.445718 
L 352.343479 231.952129 
L 357.287457 250.303191 
L 358.93545 251.19401 
L 360.583443 265.797818 
L 362.231435 258.167117 
L 363.879428 243.362995 
L 368.823406 248.201127 
L 370.471398 233.599559 
L 372.119391 243.061746 
L 373.767383 237.269382 
L 375.415376 243.400737 
L 380.359354 243.493318 
L 382.007347 255.816739 
L 383.655339 243.897638 
L 385.303332 232.952677 
L 386.951324 218.135321 
L 393.543295 219.45543 
L 395.191287 227.964764 
L 396.83928 212.637732 
L 398.487273 222.069919 
L 398.487273 222.069919 
" style="fill:none;stroke:#0000ff;stroke-linecap:square;stroke-opacity:0.9;stroke-width:2;"/>
   </g>
   <g id="line2d_15">
    <path clip-path="url(#p2827cd1d61)" d="M 73.832727 60.795623 
L 75.48072 56.538141 
L 80.424698 52.454072 
L 82.07269 64.531471 
L 83.720683 64.265455 
L 87.016668 75.967627 
L 91.960646 72.883855 
L 93.608639 81.586037 
L 95.256631 103.857332 
L 96.904624 101.936078 
L 98.552617 119.825509 
L 103.496594 119.475546 
L 105.144587 103.936308 
L 106.79258 96.914333 
L 108.440572 115.40244 
L 110.088565 118.241802 
L 115.032543 131.911673 
L 116.680535 128.236767 
L 118.328528 124.229952 
L 119.976521 131.893847 
L 121.624513 120.694586 
L 126.568491 129.523257 
L 128.216484 117.839583 
L 129.864476 116.970069 
L 131.512469 113.950159 
L 138.104439 114.944605 
L 139.752432 119.613436 
L 141.400425 125.606849 
L 143.048417 118.393166 
L 144.69641 125.842325 
L 149.640388 114.402049 
L 151.28838 122.983329 
L 152.936373 143.394398 
L 154.584365 145.114068 
L 156.232358 142.33316 
L 161.176336 146.148512 
L 162.824329 139.662201 
L 164.472321 135.530211 
L 166.120314 151.527509 
L 167.768306 150.607699 
L 174.360277 164.403591 
L 176.008269 170.523949 
L 177.656262 175.669784 
L 179.304255 187.655419 
L 184.248233 193.945934 
L 185.896225 199.816598 
L 187.544218 200.45404 
L 189.19221 217.572074 
L 190.840203 212.817145 
L 197.432174 184.146924 
L 199.080166 192.604256 
L 200.728159 200.071809 
L 202.376151 192.595998 
L 207.320129 193.449047 
L 208.968122 183.918735 
L 210.616114 171.677722 
L 212.264107 179.951613 
L 213.9121 191.959821 
L 218.856078 196.329668 
L 220.50407 175.977791 
L 222.152063 177.578157 
L 223.800055 190.48079 
L 225.448048 198.067523 
L 232.040018 205.283792 
L 233.688011 214.09383 
L 235.336004 202.788515 
L 236.983996 196.876478 
L 241.927974 188.178425 
L 243.575967 190.216507 
L 245.223959 185.716111 
L 248.519945 209.246105 
L 253.463922 220.588921 
L 255.111915 215.463536 
L 256.759908 205.824101 
L 258.4079 213.113748 
L 260.055893 224.989956 
L 264.999871 236.713038 
L 266.647863 227.145384 
L 268.295856 209.452374 
L 269.943849 202.247263 
L 271.591841 194.275387 
L 276.535819 192.346616 
L 278.183812 177.110829 
L 279.831804 172.075858 
L 281.479797 167.666556 
L 283.12779 170.245588 
L 289.71976 139.951205 
L 293.015745 159.075356 
L 294.663738 159.569142 
L 299.607716 147.599918 
L 301.255708 166.131932 
L 302.903701 176.253229 
L 304.551694 180.066388 
L 306.199686 188.520123 
L 311.143664 191.059358 
L 312.791657 193.63569 
L 314.439649 184.449894 
L 316.087642 190.809665 
L 322.679612 195.150566 
L 324.327605 187.058084 
L 325.975598 198.806435 
L 327.62359 203.904867 
L 329.271583 207.467692 
L 334.215561 207.2379 
L 335.863553 223.484208 
L 337.511546 221.187807 
L 339.159539 219.506091 
L 340.807531 224.798328 
L 345.751509 220.2988 
L 347.399502 217.7996 
L 349.047494 209.56183 
L 350.695487 227.46736 
L 357.287457 250.122121 
L 358.93545 250.520441 
L 360.583443 263.09063 
L 362.231435 257.746487 
L 363.879428 244.709711 
L 368.823406 248.843469 
L 370.471398 235.507574 
L 372.119391 245.316429 
L 373.767383 240.131183 
L 375.415376 245.546133 
L 380.359354 244.258052 
L 382.007347 254.264013 
L 383.655339 244.065494 
L 385.303332 232.54362 
L 386.951324 219.688381 
L 393.543295 222.550962 
L 395.191287 229.23972 
L 396.83928 215.041494 
L 398.487273 223.710996 
L 398.487273 223.710996 
" style="fill:none;stroke:#ff0000;stroke-linecap:square;stroke-opacity:0.9;stroke-width:2;"/>
   </g>
   <g id="line2d_16">
    <path clip-path="url(#p2827cd1d61)" d="M 73.832727 60.795623 
L 75.48072 56.747805 
L 80.424698 52.956007 
L 82.07269 64.48286 
L 83.720683 63.985471 
L 87.016668 75.242239 
L 91.960646 72.408195 
L 93.608639 81.207327 
L 95.256631 104.363 
L 96.904624 101.48813 
L 98.552617 119.329073 
L 103.496594 118.63962 
L 105.144587 102.82954 
L 106.79258 95.426617 
L 108.440572 114.395512 
L 110.088565 117.808636 
L 115.032543 132.684794 
L 116.680535 127.540468 
L 118.328528 123.528531 
L 119.976521 131.166306 
L 121.624513 118.067045 
L 126.568491 126.408894 
L 128.216484 114.518375 
L 129.864476 114.314926 
L 131.512469 111.542612 
L 138.104439 113.192194 
L 139.752432 118.205193 
L 141.400425 124.131023 
L 143.048417 115.444477 
L 144.69641 123.956172 
L 149.640388 112.839687 
L 151.28838 121.756729 
L 152.936373 143.897779 
L 154.584365 146.011634 
L 156.232358 141.749794 
L 161.176336 145.832941 
L 162.824329 140.102282 
L 164.472321 137.217373 
L 166.120314 154.998245 
L 167.768306 154.286493 
L 174.360277 168.92543 
L 176.008269 175.509921 
L 177.656262 180.480173 
L 179.304255 190.786333 
L 184.248233 197.003611 
L 185.896225 203.06004 
L 187.544218 203.371735 
L 189.19221 220.480071 
L 190.840203 215.581226 
L 197.432174 185.090068 
L 199.080166 195.495512 
L 200.728159 204.1894 
L 202.376151 195.466249 
L 207.320129 197.586313 
L 208.968122 186.882109 
L 210.616114 172.623387 
L 212.264107 180.621972 
L 213.9121 190.742885 
L 218.856078 195.91245 
L 220.50407 173.048079 
L 222.152063 175.430457 
L 223.800055 188.638214 
L 225.448048 197.267083 
L 232.040018 205.844231 
L 233.688011 214.175896 
L 235.336004 200.662567 
L 236.983996 196.460649 
L 241.927974 186.188339 
L 243.575967 187.465876 
L 245.223959 183.543657 
L 246.871952 196.551815 
L 248.519945 208.109306 
L 253.463922 219.699764 
L 255.111915 215.227532 
L 256.759908 205.469608 
L 258.4079 213.096677 
L 260.055893 226.285743 
L 264.999871 240.20835 
L 266.647863 229.929014 
L 268.295856 210.32759 
L 269.943849 202.718592 
L 271.591841 192.978539 
L 276.535819 191.989799 
L 278.183812 172.700333 
L 279.831804 165.137152 
L 281.479797 161.392054 
L 283.12779 164.908644 
L 288.071767 137.685848 
L 289.71976 127.152571 
L 291.367753 136.971387 
L 293.015745 148.000779 
L 294.663738 147.926898 
L 299.607716 134.635594 
L 301.255708 154.243731 
L 302.903701 165.298122 
L 304.551694 170.17981 
L 306.199686 179.723816 
L 311.143664 181.613091 
L 312.791657 185.343429 
L 314.439649 175.763022 
L 316.087642 183.305201 
L 322.679612 188.493278 
L 324.327605 178.792166 
L 325.975598 192.616804 
L 327.62359 199.204681 
L 329.271583 202.261036 
L 334.215561 199.85423 
L 335.863553 216.445315 
L 337.511546 214.849622 
L 339.159539 212.630428 
L 340.807531 218.883781 
L 345.751509 213.425759 
L 347.399502 211.120749 
L 349.047494 202.138027 
L 350.695487 221.485928 
L 352.343479 228.712859 
L 357.287457 247.481392 
L 358.93545 248.847093 
L 360.583443 263.376739 
L 362.231435 255.581496 
L 363.879428 240.756108 
L 368.823406 245.527747 
L 370.471398 230.403529 
L 372.119391 240.530475 
L 373.767383 234.160997 
L 375.415376 240.671257 
L 380.359354 240.486833 
L 382.007347 252.681548 
L 385.303332 228.760738 
L 386.951324 213.92638 
L 393.543295 215.553117 
L 395.191287 223.32451 
L 396.83928 208.019883 
L 398.487273 218.057774 
L 398.487273 218.057774 
" style="fill:none;stroke:#008000;stroke-linecap:square;stroke-opacity:0.9;stroke-width:2;"/>
   </g>
   <g id="line2d_17">
    <path clip-path="url(#p2827cd1d61)" d="M 73.832727 60.795623 
L 75.48072 56.864253 
L 80.424698 52.723839 
L 82.07269 64.211269 
L 83.720683 63.856293 
L 87.016668 75.141975 
L 91.960646 72.384442 
L 93.608639 80.994131 
L 95.256631 103.975273 
L 96.904624 101.305364 
L 98.552617 119.185049 
L 103.496594 119.03943 
L 105.144587 102.75325 
L 106.79258 95.507866 
L 108.440572 114.549916 
L 110.088565 117.912455 
L 115.032543 132.62303 
L 118.328528 124.207433 
L 119.976521 132.155791 
L 121.624513 118.943458 
L 126.568491 127.354646 
L 128.216484 115.629922 
L 129.864476 115.082896 
L 131.512469 112.466591 
L 138.104439 114.081576 
L 139.752432 118.939751 
L 141.400425 124.816764 
L 143.048417 116.105667 
L 144.69641 124.755901 
L 149.640388 113.83312 
L 151.28838 122.304343 
L 152.936373 144.534684 
L 154.584365 146.225605 
L 156.232358 142.712154 
L 161.176336 146.992109 
L 162.824329 141.358975 
L 164.472321 138.510819 
L 166.120314 155.87192 
L 167.768306 155.362527 
L 174.360277 170.092802 
L 176.008269 176.647351 
L 177.656262 181.467552 
L 179.304255 191.92196 
L 184.248233 197.875305 
L 185.896225 203.88007 
L 187.544218 204.258243 
L 189.19221 221.461597 
L 190.840203 216.719263 
L 197.432174 186.148051 
L 199.080166 196.833942 
L 200.728159 205.267496 
L 202.376151 196.641144 
L 207.320129 198.42548 
L 208.968122 187.87134 
L 210.616114 173.495735 
L 212.264107 181.536306 
L 213.9121 191.697742 
L 218.856078 196.886336 
L 220.50407 173.752151 
L 222.152063 175.615157 
L 223.800055 189.118887 
L 225.448048 197.505228 
L 232.040018 206.023444 
L 233.688011 214.869813 
L 235.336004 200.83861 
L 236.983996 196.834734 
L 241.927974 186.563906 
L 243.575967 187.469367 
L 245.223959 183.618878 
L 246.871952 196.366837 
L 248.519945 208.114249 
L 253.463922 219.572626 
L 255.111915 215.251209 
L 256.759908 205.390028 
L 258.4079 213.160103 
L 260.055893 226.508136 
L 264.999871 240.594547 
L 266.647863 230.185269 
L 268.295856 210.590441 
L 269.943849 202.717863 
L 271.591841 193.117179 
L 276.535819 192.047632 
L 278.183812 172.956855 
L 279.831804 165.833984 
L 281.479797 162.051393 
L 283.12779 165.26616 
L 288.071767 138.276698 
L 289.71976 127.781734 
L 291.367753 137.539196 
L 293.015745 148.578075 
L 294.663738 149.085165 
L 299.607716 135.875201 
L 301.255708 155.443052 
L 302.903701 166.457886 
L 304.551694 171.415913 
L 306.199686 180.620781 
L 311.143664 182.900404 
L 312.791657 186.554632 
L 314.439649 176.987827 
L 316.087642 184.379333 
L 322.679612 189.943925 
L 324.327605 180.053581 
L 325.975598 193.681064 
L 327.62359 200.351692 
L 329.271583 203.439043 
L 334.215561 201.299489 
L 335.863553 217.565199 
L 337.511546 215.984912 
L 339.159539 213.716893 
L 340.807531 220.052977 
L 345.751509 214.610116 
L 347.399502 212.279549 
L 349.047494 203.135786 
L 350.695487 222.487855 
L 352.343479 229.875654 
L 357.287457 248.480028 
L 358.93545 249.52144 
L 360.583443 264.173845 
L 362.231435 256.404736 
L 363.879428 241.555248 
L 368.823406 246.371622 
L 370.471398 231.558517 
L 372.119391 241.167166 
L 373.767383 235.503577 
L 375.415376 241.426452 
L 380.359354 241.278516 
L 382.007347 253.664809 
L 385.303332 229.674932 
L 386.951324 215.037739 
L 393.543295 216.877976 
L 395.191287 224.938985 
L 396.83928 209.814769 
L 398.487273 219.80218 
L 398.487273 219.80218 
" style="fill:none;stroke:#ec5283;stroke-linecap:square;stroke-width:2;"/>
   </g>
   <g id="line2d_18">
    <path clip-path="url(#p2827cd1d61)" d="M 73.832727 60.795623 
L 75.48072 56.668702 
L 80.424698 53.111963 
L 82.07269 64.283001 
L 83.720683 63.753961 
L 87.016668 75.104399 
L 91.960646 72.123899 
L 93.608639 80.641722 
L 95.256631 103.199928 
L 96.904624 100.61517 
L 98.552617 117.881091 
L 103.496594 117.46217 
L 105.144587 101.90288 
L 106.79258 94.629283 
L 108.440572 113.415281 
L 110.088565 116.528332 
L 115.032543 130.749829 
L 116.680535 125.975259 
L 118.328528 121.87808 
L 119.976521 129.584251 
L 121.624513 116.53641 
L 126.568491 124.922675 
L 128.216484 113.205875 
L 129.864476 113.167156 
L 131.512469 110.284902 
L 138.104439 112.13118 
L 139.752432 117.003433 
L 141.400425 122.79496 
L 143.048417 113.888169 
L 144.69641 122.256122 
L 149.640388 111.686781 
L 151.28838 120.129972 
L 152.936373 142.200835 
L 154.584365 143.938513 
L 156.232358 139.656109 
L 161.176336 143.866212 
L 162.824329 138.007687 
L 164.472321 135.382513 
L 166.120314 152.416166 
L 167.768306 152.174459 
L 174.360277 166.560162 
L 176.008269 172.635455 
L 177.656262 177.281112 
L 179.304255 187.554811 
L 184.248233 193.798294 
L 185.896225 199.578446 
L 187.544218 199.902874 
L 189.19221 216.724804 
L 190.840203 211.719684 
L 197.432174 181.809178 
L 199.080166 192.362973 
L 200.728159 200.48237 
L 202.376151 192.451691 
L 207.320129 194.071762 
L 208.968122 183.856216 
L 210.616114 169.837172 
L 212.264107 177.446413 
L 213.9121 187.855726 
L 218.856078 192.412521 
L 220.50407 170.293711 
L 222.152063 172.649037 
L 223.800055 185.560471 
L 225.448048 193.804606 
L 232.040018 202.274946 
L 233.688011 210.563829 
L 235.336004 197.066568 
L 236.983996 193.325085 
L 241.927974 183.27231 
L 243.575967 184.481539 
L 245.223959 180.599077 
L 246.871952 193.29046 
L 248.519945 204.1964 
L 253.463922 215.689843 
L 255.111915 211.504902 
L 256.759908 201.881064 
L 258.4079 209.411773 
L 260.055893 222.284034 
L 264.999871 236.11041 
L 266.647863 225.867317 
L 268.295856 206.803624 
L 269.943849 198.960536 
L 271.591841 189.720198 
L 276.535819 188.681686 
L 278.183812 169.876206 
L 279.831804 162.389474 
L 281.479797 158.834653 
L 283.12779 162.112087 
L 288.071767 135.703825 
L 289.71976 125.501494 
L 293.015745 145.730588 
L 294.663738 145.749444 
L 299.607716 132.811146 
L 301.255708 152.098295 
L 302.903701 162.662923 
L 304.551694 167.597051 
L 306.199686 176.591311 
L 311.143664 178.682113 
L 312.791657 182.151745 
L 314.439649 172.791272 
L 316.087642 180.387224 
L 322.679612 185.728356 
L 324.327605 175.946755 
L 325.975598 189.149618 
L 327.62359 195.822627 
L 329.271583 198.757892 
L 334.215561 196.780993 
L 335.863553 212.89548 
L 337.511546 211.098765 
L 339.159539 209.064894 
L 340.807531 215.074739 
L 347.399502 207.594664 
L 349.047494 198.650394 
L 350.695487 217.500858 
L 352.343479 224.903011 
L 357.287457 243.035409 
L 358.93545 244.317693 
L 360.583443 258.359348 
L 362.231435 250.780983 
L 363.879428 236.190179 
L 368.823406 240.858491 
L 370.471398 226.567194 
L 372.119391 236.052867 
L 373.767383 230.136026 
L 375.415376 235.986288 
L 380.359354 235.872605 
L 382.007347 248.154895 
L 385.303332 224.745683 
L 386.951324 210.061682 
L 393.543295 211.52493 
L 395.191287 219.551133 
L 396.83928 204.220488 
L 398.487273 214.287081 
L 398.487273 214.287081 
" style="fill:none;stroke:#00ff00;stroke-linecap:square;stroke-opacity:0.9;stroke-width:2;"/>
   </g>
   <g id="line2d_19">
    <path clip-path="url(#p2827cd1d61)" d="M 73.832727 60.795623 
L 75.48072 58.827111 
L 80.424698 58.254895 
L 82.07269 63.255536 
L 83.720683 63.492357 
L 87.016668 74.030787 
L 91.960646 74.138133 
L 93.608639 81.574636 
L 95.256631 103.66191 
L 96.904624 99.608172 
L 98.552617 116.694807 
L 103.496594 113.135428 
L 105.144587 97.318599 
L 106.79258 87.303807 
L 108.440572 107.644317 
L 110.088565 112.710193 
L 115.032543 124.670091 
L 116.680535 121.935393 
L 118.328528 117.692787 
L 119.976521 126.541112 
L 121.624513 110.464493 
L 126.568491 121.104858 
L 128.216484 107.388496 
L 129.864476 108.036072 
L 131.512469 104.464909 
L 138.104439 109.455726 
L 139.752432 115.51901 
L 141.400425 124.670196 
L 143.048417 110.726581 
L 144.69641 121.268848 
L 149.640388 111.672064 
L 151.28838 119.695912 
L 152.936373 145.750874 
L 154.584365 147.709293 
L 156.232358 143.830895 
L 161.176336 149.095363 
L 162.824329 143.720326 
L 164.472321 143.422776 
L 166.120314 161.939359 
L 167.768306 162.041041 
L 174.360277 177.222117 
L 176.008269 184.343423 
L 177.656262 189.34902 
L 179.304255 199.388498 
L 184.248233 202.970231 
L 185.896225 208.851292 
L 187.544218 208.032969 
L 189.19221 224.802295 
L 190.840203 220.405847 
L 195.784181 194.245617 
L 197.432174 186.391343 
L 199.080166 199.460621 
L 200.728159 209.156577 
L 202.376151 199.518772 
L 207.320129 202.513821 
L 208.968122 191.357093 
L 210.616114 175.917211 
L 212.264107 183.827475 
L 213.9121 193.209621 
L 218.856078 198.078072 
L 220.50407 168.016148 
L 222.152063 171.604222 
L 223.800055 186.380642 
L 225.448048 197.270832 
L 232.040018 206.994039 
L 233.688011 215.08827 
L 235.336004 198.824915 
L 236.983996 196.26023 
L 241.927974 184.03889 
L 243.575967 179.082835 
L 245.223959 176.590792 
L 246.871952 192.927244 
L 248.519945 204.854467 
L 253.463922 216.917814 
L 255.111915 213.935425 
L 256.759908 201.870771 
L 258.4079 212.075451 
L 260.055893 225.006164 
L 264.999871 240.719108 
L 266.647863 229.175895 
L 268.295856 206.400146 
L 269.943849 199.738449 
L 271.591841 188.631721 
L 276.535819 187.480907 
L 278.183812 164.021063 
L 279.831804 156.421324 
L 281.479797 152.799741 
L 283.12779 159.041605 
L 288.071767 136.349553 
L 289.71976 121.449026 
L 291.367753 128.432912 
L 293.015745 141.505576 
L 294.663738 138.140728 
L 299.607716 125.688792 
L 301.255708 145.719633 
L 302.903701 155.130776 
L 304.551694 159.459636 
L 306.199686 167.865415 
L 311.143664 169.520665 
L 312.791657 172.440763 
L 314.439649 162.714712 
L 316.087642 172.162991 
L 322.679612 179.436592 
L 324.327605 168.457046 
L 325.975598 185.289927 
L 327.62359 193.900653 
L 329.271583 196.251829 
L 334.215561 190.688379 
L 335.863553 206.91748 
L 337.511546 207.142352 
L 339.159539 204.540816 
L 340.807531 211.586673 
L 345.751509 202.539798 
L 347.399502 200.97114 
L 349.047494 190.834533 
L 350.695487 212.267211 
L 352.343479 222.427456 
L 357.287457 243.042302 
L 358.93545 244.441582 
L 360.583443 261.181467 
L 362.231435 250.602088 
L 363.879428 233.523694 
L 368.823406 239.465597 
L 370.471398 223.484028 
L 372.119391 233.948228 
L 373.767383 226.751693 
L 375.415376 234.340496 
L 380.359354 234.889249 
L 382.007347 249.299167 
L 383.655339 235.642035 
L 385.303332 223.670069 
L 386.951324 207.117718 
L 393.543295 208.067436 
L 395.191287 217.590486 
L 396.83928 200.333644 
L 398.487273 212.852705 
L 398.487273 212.852705 
" style="fill:none;stroke:#a5b9cf;stroke-linecap:square;stroke-width:2;"/>
   </g>
   <g id="patch_3">
    <path d="M 57.6 276.48 
L 57.6 41.472 
" style="fill:none;stroke:#000000;stroke-linecap:square;stroke-linejoin:miter;stroke-width:0.8;"/>
   </g>
   <g id="patch_4">
    <path d="M 414.72 276.48 
L 414.72 41.472 
" style="fill:none;stroke:#000000;stroke-linecap:square;stroke-linejoin:miter;stroke-width:0.8;"/>
   </g>
   <g id="patch_5">
    <path d="M 57.6 276.48 
L 414.72 276.48 
" style="fill:none;stroke:#000000;stroke-linecap:square;stroke-linejoin:miter;stroke-width:0.8;"/>
   </g>
   <g id="patch_6">
    <path d="M 57.6 41.472 
L 414.72 41.472 
" style="fill:none;stroke:#000000;stroke-linecap:square;stroke-linejoin:miter;stroke-width:0.8;"/>
   </g>
   <g id="text_15">
    <!-- STONKS -->
    <g transform="translate(211.730625 22.034625)scale(0.12 -0.12)">
     <defs>
      <path d="M 3425 4513 
L 3425 3897 
Q 3066 4069 2747 4153 
Q 2428 4238 2131 4238 
Q 1616 4238 1336 4038 
Q 1056 3838 1056 3469 
Q 1056 3159 1242 3001 
Q 1428 2844 1947 2747 
L 2328 2669 
Q 3034 2534 3370 2195 
Q 3706 1856 3706 1288 
Q 3706 609 3251 259 
Q 2797 -91 1919 -91 
Q 1588 -91 1214 -16 
Q 841 59 441 206 
L 441 856 
Q 825 641 1194 531 
Q 1563 422 1919 422 
Q 2459 422 2753 634 
Q 3047 847 3047 1241 
Q 3047 1584 2836 1778 
Q 2625 1972 2144 2069 
L 1759 2144 
Q 1053 2284 737 2584 
Q 422 2884 422 3419 
Q 422 4038 858 4394 
Q 1294 4750 2059 4750 
Q 2388 4750 2728 4690 
Q 3069 4631 3425 4513 
z
" id="DejaVuSans-53" transform="scale(0.015625)"/>
      <path d="M -19 4666 
L 3928 4666 
L 3928 4134 
L 2272 4134 
L 2272 0 
L 1638 0 
L 1638 4134 
L -19 4134 
L -19 4666 
z
" id="DejaVuSans-54" transform="scale(0.015625)"/>
      <path d="M 2522 4238 
Q 1834 4238 1429 3725 
Q 1025 3213 1025 2328 
Q 1025 1447 1429 934 
Q 1834 422 2522 422 
Q 3209 422 3611 934 
Q 4013 1447 4013 2328 
Q 4013 3213 3611 3725 
Q 3209 4238 2522 4238 
z
M 2522 4750 
Q 3503 4750 4090 4092 
Q 4678 3434 4678 2328 
Q 4678 1225 4090 567 
Q 3503 -91 2522 -91 
Q 1538 -91 948 565 
Q 359 1222 359 2328 
Q 359 3434 948 4092 
Q 1538 4750 2522 4750 
z
" id="DejaVuSans-4f" transform="scale(0.015625)"/>
      <path d="M 628 4666 
L 1478 4666 
L 3547 763 
L 3547 4666 
L 4159 4666 
L 4159 0 
L 3309 0 
L 1241 3903 
L 1241 0 
L 628 0 
L 628 4666 
z
" id="DejaVuSans-4e" transform="scale(0.015625)"/>
      <path d="M 628 4666 
L 1259 4666 
L 1259 2694 
L 3353 4666 
L 4166 4666 
L 1850 2491 
L 4331 0 
L 3500 0 
L 1259 2247 
L 1259 0 
L 628 0 
L 628 4666 
z
" id="DejaVuSans-4b" transform="scale(0.015625)"/>
     </defs>
     <use xlink:href="#DejaVuSans-53"/>
     <use x="63.476562" xlink:href="#DejaVuSans-54"/>
     <use x="124.560547" xlink:href="#DejaVuSans-4f"/>
     <use x="203.271484" xlink:href="#DejaVuSans-4e"/>
     <use x="278.076172" xlink:href="#DejaVuSans-4b"/>
     <use x="343.652344" xlink:href="#DejaVuSans-53"/>
    </g>
    <!-- daily_report -->
    <g transform="translate(200.466563 35.472)scale(0.12 -0.12)">
     <defs>
      <path d="M 603 3500 
L 1178 3500 
L 1178 0 
L 603 0 
L 603 3500 
z
M 603 4863 
L 1178 4863 
L 1178 4134 
L 603 4134 
L 603 4863 
z
" id="DejaVuSans-69" transform="scale(0.015625)"/>
      <path d="M 603 4863 
L 1178 4863 
L 1178 0 
L 603 0 
L 603 4863 
z
" id="DejaVuSans-6c" transform="scale(0.015625)"/>
      <path d="M 2059 -325 
Q 1816 -950 1584 -1140 
Q 1353 -1331 966 -1331 
L 506 -1331 
L 506 -850 
L 844 -850 
Q 1081 -850 1212 -737 
Q 1344 -625 1503 -206 
L 1606 56 
L 191 3500 
L 800 3500 
L 1894 763 
L 2988 3500 
L 3597 3500 
L 2059 -325 
z
" id="DejaVuSans-79" transform="scale(0.015625)"/>
      <path d="M 3263 -1063 
L 3263 -1509 
L -63 -1509 
L -63 -1063 
L 3263 -1063 
z
" id="DejaVuSans-5f" transform="scale(0.015625)"/>
      <path d="M 2631 2963 
Q 2534 3019 2420 3045 
Q 2306 3072 2169 3072 
Q 1681 3072 1420 2755 
Q 1159 2438 1159 1844 
L 1159 0 
L 581 0 
L 581 3500 
L 1159 3500 
L 1159 2956 
Q 1341 3275 1631 3429 
Q 1922 3584 2338 3584 
Q 2397 3584 2469 3576 
Q 2541 3569 2628 3553 
L 2631 2963 
z
" id="DejaVuSans-72" transform="scale(0.015625)"/>
      <path d="M 1159 525 
L 1159 -1331 
L 581 -1331 
L 581 3500 
L 1159 3500 
L 1159 2969 
Q 1341 3281 1617 3432 
Q 1894 3584 2278 3584 
Q 2916 3584 3314 3078 
Q 3713 2572 3713 1747 
Q 3713 922 3314 415 
Q 2916 -91 2278 -91 
Q 1894 -91 1617 61 
Q 1341 213 1159 525 
z
M 3116 1747 
Q 3116 2381 2855 2742 
Q 2594 3103 2138 3103 
Q 1681 3103 1420 2742 
Q 1159 2381 1159 1747 
Q 1159 1113 1420 752 
Q 1681 391 2138 391 
Q 2594 391 2855 752 
Q 3116 1113 3116 1747 
z
" id="DejaVuSans-70" transform="scale(0.015625)"/>
      <path d="M 1959 3097 
Q 1497 3097 1228 2736 
Q 959 2375 959 1747 
Q 959 1119 1226 758 
Q 1494 397 1959 397 
Q 2419 397 2687 759 
Q 2956 1122 2956 1747 
Q 2956 2369 2687 2733 
Q 2419 3097 1959 3097 
z
M 1959 3584 
Q 2709 3584 3137 3096 
Q 3566 2609 3566 1747 
Q 3566 888 3137 398 
Q 2709 -91 1959 -91 
Q 1206 -91 779 398 
Q 353 888 353 1747 
Q 353 2609 779 3096 
Q 1206 3584 1959 3584 
z
" id="DejaVuSans-6f" transform="scale(0.015625)"/>
     </defs>
     <use xlink:href="#DejaVuSans-64"/>
     <use x="63.476562" xlink:href="#DejaVuSans-61"/>
     <use x="124.755859" xlink:href="#DejaVuSans-69"/>
     <use x="152.539062" xlink:href="#DejaVuSans-6c"/>
     <use x="180.322266" xlink:href="#DejaVuSans-79"/>
     <use x="239.501953" xlink:href="#DejaVuSans-5f"/>
     <use x="289.501953" xlink:href="#DejaVuSans-72"/>
     <use x="328.365234" xlink:href="#DejaVuSans-65"/>
     <use x="389.888672" xlink:href="#DejaVuSans-70"/>
     <use x="453.365234" xlink:href="#DejaVuSans-6f"/>
     <use x="514.546875" xlink:href="#DejaVuSans-72"/>
     <use x="555.660156" xlink:href="#DejaVuSans-74"/>
    </g>
   </g>
   <g id="legend_1">
    <g id="patch_7">
     <path d="M 293.67625 137.54075 
L 407.72 137.54075 
Q 409.72 137.54075 409.72 135.54075 
L 409.72 48.472 
Q 409.72 46.472 407.72 46.472 
L 293.67625 46.472 
Q 291.67625 46.472 291.67625 48.472 
L 291.67625 135.54075 
Q 291.67625 137.54075 293.67625 137.54075 
z
" style="fill:#ffffff;opacity:0.8;stroke:#cccccc;stroke-linejoin:miter;"/>
    </g>
    <g id="line2d_20">
     <path d="M 295.67625 54.570437 
L 315.67625 54.570437 
" style="fill:none;stroke:#0000ff;stroke-linecap:square;stroke-opacity:0.9;stroke-width:2;"/>
    </g>
    <g id="line2d_21"/>
    <g id="text_16">
     <!-- alpaca -->
     <g transform="translate(323.67625 58.070437)scale(0.1 -0.1)">
      <defs>
       <path d="M 3122 3366 
L 3122 2828 
Q 2878 2963 2633 3030 
Q 2388 3097 2138 3097 
Q 1578 3097 1268 2742 
Q 959 2388 959 1747 
Q 959 1106 1268 751 
Q 1578 397 2138 397 
Q 2388 397 2633 464 
Q 2878 531 3122 666 
L 3122 134 
Q 2881 22 2623 -34 
Q 2366 -91 2075 -91 
Q 1284 -91 818 406 
Q 353 903 353 1747 
Q 353 2603 823 3093 
Q 1294 3584 2113 3584 
Q 2378 3584 2631 3529 
Q 2884 3475 3122 3366 
z
" id="DejaVuSans-63" transform="scale(0.015625)"/>
      </defs>
      <use xlink:href="#DejaVuSans-61"/>
      <use x="61.279297" xlink:href="#DejaVuSans-6c"/>
      <use x="89.0625" xlink:href="#DejaVuSans-70"/>
      <use x="152.539062" xlink:href="#DejaVuSans-61"/>
      <use x="213.818359" xlink:href="#DejaVuSans-63"/>
      <use x="268.798828" xlink:href="#DejaVuSans-61"/>
     </g>
    </g>
    <g id="line2d_22">
     <path d="M 295.67625 69.248562 
L 315.67625 69.248562 
" style="fill:none;stroke:#ff0000;stroke-linecap:square;stroke-opacity:0.9;stroke-width:2;"/>
    </g>
    <g id="line2d_23"/>
    <g id="text_17">
     <!-- mattress -->
     <g transform="translate(323.67625 72.748562)scale(0.1 -0.1)">
      <defs>
       <path d="M 3328 2828 
Q 3544 3216 3844 3400 
Q 4144 3584 4550 3584 
Q 5097 3584 5394 3201 
Q 5691 2819 5691 2113 
L 5691 0 
L 5113 0 
L 5113 2094 
Q 5113 2597 4934 2840 
Q 4756 3084 4391 3084 
Q 3944 3084 3684 2787 
Q 3425 2491 3425 1978 
L 3425 0 
L 2847 0 
L 2847 2094 
Q 2847 2600 2669 2842 
Q 2491 3084 2119 3084 
Q 1678 3084 1418 2786 
Q 1159 2488 1159 1978 
L 1159 0 
L 581 0 
L 581 3500 
L 1159 3500 
L 1159 2956 
Q 1356 3278 1631 3431 
Q 1906 3584 2284 3584 
Q 2666 3584 2933 3390 
Q 3200 3197 3328 2828 
z
" id="DejaVuSans-6d" transform="scale(0.015625)"/>
       <path d="M 2834 3397 
L 2834 2853 
Q 2591 2978 2328 3040 
Q 2066 3103 1784 3103 
Q 1356 3103 1142 2972 
Q 928 2841 928 2578 
Q 928 2378 1081 2264 
Q 1234 2150 1697 2047 
L 1894 2003 
Q 2506 1872 2764 1633 
Q 3022 1394 3022 966 
Q 3022 478 2636 193 
Q 2250 -91 1575 -91 
Q 1294 -91 989 -36 
Q 684 19 347 128 
L 347 722 
Q 666 556 975 473 
Q 1284 391 1588 391 
Q 1994 391 2212 530 
Q 2431 669 2431 922 
Q 2431 1156 2273 1281 
Q 2116 1406 1581 1522 
L 1381 1569 
Q 847 1681 609 1914 
Q 372 2147 372 2553 
Q 372 3047 722 3315 
Q 1072 3584 1716 3584 
Q 2034 3584 2315 3537 
Q 2597 3491 2834 3397 
z
" id="DejaVuSans-73" transform="scale(0.015625)"/>
      </defs>
      <use xlink:href="#DejaVuSans-6d"/>
      <use x="97.412109" xlink:href="#DejaVuSans-61"/>
      <use x="158.691406" xlink:href="#DejaVuSans-74"/>
      <use x="197.900391" xlink:href="#DejaVuSans-74"/>
      <use x="237.109375" xlink:href="#DejaVuSans-72"/>
      <use x="275.972656" xlink:href="#DejaVuSans-65"/>
      <use x="337.496094" xlink:href="#DejaVuSans-73"/>
      <use x="389.595703" xlink:href="#DejaVuSans-73"/>
     </g>
    </g>
    <g id="line2d_24">
     <path d="M 295.67625 83.926687 
L 315.67625 83.926687 
" style="fill:none;stroke:#008000;stroke-linecap:square;stroke-opacity:0.9;stroke-width:2;"/>
    </g>
    <g id="line2d_25"/>
    <g id="text_18">
     <!-- daily-open-rebal -->
     <g transform="translate(323.67625 87.426687)scale(0.1 -0.1)">
      <defs>
       <path d="M 3513 2113 
L 3513 0 
L 2938 0 
L 2938 2094 
Q 2938 2591 2744 2837 
Q 2550 3084 2163 3084 
Q 1697 3084 1428 2787 
Q 1159 2491 1159 1978 
L 1159 0 
L 581 0 
L 581 3500 
L 1159 3500 
L 1159 2956 
Q 1366 3272 1645 3428 
Q 1925 3584 2291 3584 
Q 2894 3584 3203 3211 
Q 3513 2838 3513 2113 
z
" id="DejaVuSans-6e" transform="scale(0.015625)"/>
       <path d="M 3116 1747 
Q 3116 2381 2855 2742 
Q 2594 3103 2138 3103 
Q 1681 3103 1420 2742 
Q 1159 2381 1159 1747 
Q 1159 1113 1420 752 
Q 1681 391 2138 391 
Q 2594 391 2855 752 
Q 3116 1113 3116 1747 
z
M 1159 2969 
Q 1341 3281 1617 3432 
Q 1894 3584 2278 3584 
Q 2916 3584 3314 3078 
Q 3713 2572 3713 1747 
Q 3713 922 3314 415 
Q 2916 -91 2278 -91 
Q 1894 -91 1617 61 
Q 1341 213 1159 525 
L 1159 0 
L 581 0 
L 581 4863 
L 1159 4863 
L 1159 2969 
z
" id="DejaVuSans-62" transform="scale(0.015625)"/>
      </defs>
      <use xlink:href="#DejaVuSans-64"/>
      <use x="63.476562" xlink:href="#DejaVuSans-61"/>
      <use x="124.755859" xlink:href="#DejaVuSans-69"/>
      <use x="152.539062" xlink:href="#DejaVuSans-6c"/>
      <use x="180.322266" xlink:href="#DejaVuSans-79"/>
      <use x="237.751953" xlink:href="#DejaVuSans-2d"/>
      <use x="275.710938" xlink:href="#DejaVuSans-6f"/>
      <use x="336.892578" xlink:href="#DejaVuSans-70"/>
      <use x="400.369141" xlink:href="#DejaVuSans-65"/>
      <use x="461.892578" xlink:href="#DejaVuSans-6e"/>
      <use x="525.271484" xlink:href="#DejaVuSans-2d"/>
      <use x="561.355469" xlink:href="#DejaVuSans-72"/>
      <use x="600.21875" xlink:href="#DejaVuSans-65"/>
      <use x="661.742188" xlink:href="#DejaVuSans-62"/>
      <use x="725.21875" xlink:href="#DejaVuSans-61"/>
      <use x="786.498047" xlink:href="#DejaVuSans-6c"/>
     </g>
    </g>
    <g id="line2d_26">
     <path d="M 295.67625 98.604812 
L 315.67625 98.604812 
" style="fill:none;stroke:#ec5283;stroke-linecap:square;stroke-width:2;"/>
    </g>
    <g id="line2d_27"/>
    <g id="text_19">
     <!-- daily-close-rebal -->
     <g transform="translate(323.67625 102.104812)scale(0.1 -0.1)">
      <use xlink:href="#DejaVuSans-64"/>
      <use x="63.476562" xlink:href="#DejaVuSans-61"/>
      <use x="124.755859" xlink:href="#DejaVuSans-69"/>
      <use x="152.539062" xlink:href="#DejaVuSans-6c"/>
      <use x="180.322266" xlink:href="#DejaVuSans-79"/>
      <use x="237.751953" xlink:href="#DejaVuSans-2d"/>
      <use x="273.835938" xlink:href="#DejaVuSans-63"/>
      <use x="328.816406" xlink:href="#DejaVuSans-6c"/>
      <use x="356.599609" xlink:href="#DejaVuSans-6f"/>
      <use x="417.78125" xlink:href="#DejaVuSans-73"/>
      <use x="469.880859" xlink:href="#DejaVuSans-65"/>
      <use x="531.404297" xlink:href="#DejaVuSans-2d"/>
      <use x="567.488281" xlink:href="#DejaVuSans-72"/>
      <use x="606.351562" xlink:href="#DejaVuSans-65"/>
      <use x="667.875" xlink:href="#DejaVuSans-62"/>
      <use x="731.351562" xlink:href="#DejaVuSans-61"/>
      <use x="792.630859" xlink:href="#DejaVuSans-6c"/>
     </g>
    </g>
    <g id="line2d_28">
     <path d="M 295.67625 113.282937 
L 315.67625 113.282937 
" style="fill:none;stroke:#00ff00;stroke-linecap:square;stroke-opacity:0.9;stroke-width:2;"/>
    </g>
    <g id="line2d_29"/>
    <g id="text_20">
     <!-- trader-baseline -->
     <g transform="translate(323.67625 116.782937)scale(0.1 -0.1)">
      <use xlink:href="#DejaVuSans-74"/>
      <use x="39.208984" xlink:href="#DejaVuSans-72"/>
      <use x="80.322266" xlink:href="#DejaVuSans-61"/>
      <use x="141.601562" xlink:href="#DejaVuSans-64"/>
      <use x="205.078125" xlink:href="#DejaVuSans-65"/>
      <use x="266.601562" xlink:href="#DejaVuSans-72"/>
      <use x="301.339844" xlink:href="#DejaVuSans-2d"/>
      <use x="337.423828" xlink:href="#DejaVuSans-62"/>
      <use x="400.900391" xlink:href="#DejaVuSans-61"/>
      <use x="462.179688" xlink:href="#DejaVuSans-73"/>
      <use x="514.279297" xlink:href="#DejaVuSans-65"/>
      <use x="575.802734" xlink:href="#DejaVuSans-6c"/>
      <use x="603.585938" xlink:href="#DejaVuSans-69"/>
      <use x="631.369141" xlink:href="#DejaVuSans-6e"/>
      <use x="694.748047" xlink:href="#DejaVuSans-65"/>
     </g>
    </g>
    <g id="line2d_30">
     <path d="M 295.67625 127.961062 
L 315.67625 127.961062 
" style="fill:none;stroke:#a5b9cf;stroke-linecap:square;stroke-width:2;"/>
    </g>
    <g id="line2d_31"/>
    <g id="text_21">
     <!-- default-cfg -->
     <g transform="translate(323.67625 131.461062)scale(0.1 -0.1)">
      <defs>
       <path d="M 2375 4863 
L 2375 4384 
L 1825 4384 
Q 1516 4384 1395 4259 
Q 1275 4134 1275 3809 
L 1275 3500 
L 2222 3500 
L 2222 3053 
L 1275 3053 
L 1275 0 
L 697 0 
L 697 3053 
L 147 3053 
L 147 3500 
L 697 3500 
L 697 3744 
Q 697 4328 969 4595 
Q 1241 4863 1831 4863 
L 2375 4863 
z
" id="DejaVuSans-66" transform="scale(0.015625)"/>
       <path d="M 544 1381 
L 544 3500 
L 1119 3500 
L 1119 1403 
Q 1119 906 1312 657 
Q 1506 409 1894 409 
Q 2359 409 2629 706 
Q 2900 1003 2900 1516 
L 2900 3500 
L 3475 3500 
L 3475 0 
L 2900 0 
L 2900 538 
Q 2691 219 2414 64 
Q 2138 -91 1772 -91 
Q 1169 -91 856 284 
Q 544 659 544 1381 
z
M 1991 3584 
L 1991 3584 
z
" id="DejaVuSans-75" transform="scale(0.015625)"/>
       <path d="M 2906 1791 
Q 2906 2416 2648 2759 
Q 2391 3103 1925 3103 
Q 1463 3103 1205 2759 
Q 947 2416 947 1791 
Q 947 1169 1205 825 
Q 1463 481 1925 481 
Q 2391 481 2648 825 
Q 2906 1169 2906 1791 
z
M 3481 434 
Q 3481 -459 3084 -895 
Q 2688 -1331 1869 -1331 
Q 1566 -1331 1297 -1286 
Q 1028 -1241 775 -1147 
L 775 -588 
Q 1028 -725 1275 -790 
Q 1522 -856 1778 -856 
Q 2344 -856 2625 -561 
Q 2906 -266 2906 331 
L 2906 616 
Q 2728 306 2450 153 
Q 2172 0 1784 0 
Q 1141 0 747 490 
Q 353 981 353 1791 
Q 353 2603 747 3093 
Q 1141 3584 1784 3584 
Q 2172 3584 2450 3431 
Q 2728 3278 2906 2969 
L 2906 3500 
L 3481 3500 
L 3481 434 
z
" id="DejaVuSans-67" transform="scale(0.015625)"/>
      </defs>
      <use xlink:href="#DejaVuSans-64"/>
      <use x="63.476562" xlink:href="#DejaVuSans-65"/>
      <use x="125" xlink:href="#DejaVuSans-66"/>
      <use x="160.205078" xlink:href="#DejaVuSans-61"/>
      <use x="221.484375" xlink:href="#DejaVuSans-75"/>
      <use x="284.863281" xlink:href="#DejaVuSans-6c"/>
      <use x="312.646484" xlink:href="#DejaVuSans-74"/>
      <use x="351.855469" xlink:href="#DejaVuSans-2d"/>
      <use x="387.939453" xlink:href="#DejaVuSans-63"/>
      <use x="442.919922" xlink:href="#DejaVuSans-66"/>
      <use x="478.125" xlink:href="#DejaVuSans-67"/>
     </g>
    </g>
   </g>
  </g>
 </g>
 <defs>
  <clipPath id="p2827cd1d61">
   <rect height="235.008" width="357.12" x="57.6" y="41.472"/>
  </clipPath>
 </defs>
</svg>
