<?xml version="1.0" encoding="utf-8" standalone="no"?>
<!DOCTYPE svg PUBLIC "-//W3C//DTD SVG 1.1//EN"
  "http://www.w3.org/Graphics/SVG/1.1/DTD/svg11.dtd">
<svg height="345.6pt" version="1.1" viewBox="0 0 460.8 345.6" width="460.8pt" xmlns="http://www.w3.org/2000/svg" xmlns:xlink="http://www.w3.org/1999/xlink">
 <metadata>
  <rdf:RDF xmlns:cc="http://creativecommons.org/ns#" xmlns:dc="http://purl.org/dc/elements/1.1/" xmlns:rdf="http://www.w3.org/1999/02/22-rdf-syntax-ns#">
   <cc:Work>
    <dc:type rdf:resource="http://purl.org/dc/dcmitype/StillImage"/>
    <dc:date>2022-05-27T01:01:46.910194</dc:date>
    <dc:format>image/svg+xml</dc:format>
    <dc:creator>
     <cc:Agent>
      <dc:title>Matplotlib v3.4.3, https://matplotlib.org/</dc:title>
     </cc:Agent>
    </dc:creator>
   </cc:Work>
  </rdf:RDF>
 </metadata>
 <defs>
  <style type="text/css">*{stroke-linecap:butt;stroke-linejoin:round;}</style>
 </defs>
 <g id="figure_1">
  <g id="patch_1">
   <path d="M 0 345.6 
L 460.8 345.6 
L 460.8 0 
L 0 0 
z
" style="fill:#ffffff;"/>
  </g>
  <g id="axes_1">
   <g id="patch_2">
    <path d="M 57.6 276.48 
L 414.72 276.48 
L 414.72 41.472 
L 57.6 41.472 
z
" style="fill:#ffffff;"/>
   </g>
   <g id="matplotlib.axis_1">
    <g id="xtick_1">
     <g id="line2d_1">
      <defs>
       <path d="M 0 0 
L 0 3.5 
" id="m43fd52d7ca" style="stroke:#000000;stroke-width:0.8;"/>
      </defs>
      <g>
       <use style="stroke:#000000;stroke-width:0.8;" x="84.419289" xlink:href="#m43fd52d7ca" y="276.48"/>
      </g>
     </g>
     <g id="text_1">
      <!-- 2021-09 -->
      <g transform="translate(47.194468 310.951846)rotate(-30)scale(0.1 -0.1)">
       <defs>
        <path d="M 1228 531 
L 3431 531 
L 3431 0 
L 469 0 
L 469 531 
Q 828 903 1448 1529 
Q 2069 2156 2228 2338 
Q 2531 2678 2651 2914 
Q 2772 3150 2772 3378 
Q 2772 3750 2511 3984 
Q 2250 4219 1831 4219 
Q 1534 4219 1204 4116 
Q 875 4013 500 3803 
L 500 4441 
Q 881 4594 1212 4672 
Q 1544 4750 1819 4750 
Q 2544 4750 2975 4387 
Q 3406 4025 3406 3419 
Q 3406 3131 3298 2873 
Q 3191 2616 2906 2266 
Q 2828 2175 2409 1742 
Q 1991 1309 1228 531 
z
" id="DejaVuSans-32" transform="scale(0.015625)"/>
        <path d="M 2034 4250 
Q 1547 4250 1301 3770 
Q 1056 3291 1056 2328 
Q 1056 1369 1301 889 
Q 1547 409 2034 409 
Q 2525 409 2770 889 
Q 3016 1369 3016 2328 
Q 3016 3291 2770 3770 
Q 2525 4250 2034 4250 
z
M 2034 4750 
Q 2819 4750 3233 4129 
Q 3647 3509 3647 2328 
Q 3647 1150 3233 529 
Q 2819 -91 2034 -91 
Q 1250 -91 836 529 
Q 422 1150 422 2328 
Q 422 3509 836 4129 
Q 1250 4750 2034 4750 
z
" id="DejaVuSans-30" transform="scale(0.015625)"/>
        <path d="M 794 531 
L 1825 531 
L 1825 4091 
L 703 3866 
L 703 4441 
L 1819 4666 
L 2450 4666 
L 2450 531 
L 3481 531 
L 3481 0 
L 794 0 
L 794 531 
z
" id="DejaVuSans-31" transform="scale(0.015625)"/>
        <path d="M 313 2009 
L 1997 2009 
L 1997 1497 
L 313 1497 
L 313 2009 
z
" id="DejaVuSans-2d" transform="scale(0.015625)"/>
        <path d="M 703 97 
L 703 672 
Q 941 559 1184 500 
Q 1428 441 1663 441 
Q 2288 441 2617 861 
Q 2947 1281 2994 2138 
Q 2813 1869 2534 1725 
Q 2256 1581 1919 1581 
Q 1219 1581 811 2004 
Q 403 2428 403 3163 
Q 403 3881 828 4315 
Q 1253 4750 1959 4750 
Q 2769 4750 3195 4129 
Q 3622 3509 3622 2328 
Q 3622 1225 3098 567 
Q 2575 -91 1691 -91 
Q 1453 -91 1209 -44 
Q 966 3 703 97 
z
M 1959 2075 
Q 2384 2075 2632 2365 
Q 2881 2656 2881 3163 
Q 2881 3666 2632 3958 
Q 2384 4250 1959 4250 
Q 1534 4250 1286 3958 
Q 1038 3666 1038 3163 
Q 1038 2656 1286 2365 
Q 1534 2075 1959 2075 
z
" id="DejaVuSans-39" transform="scale(0.015625)"/>
       </defs>
       <use xlink:href="#DejaVuSans-32"/>
       <use x="63.623047" xlink:href="#DejaVuSans-30"/>
       <use x="127.246094" xlink:href="#DejaVuSans-32"/>
       <use x="190.869141" xlink:href="#DejaVuSans-31"/>
       <use x="254.492188" xlink:href="#DejaVuSans-2d"/>
       <use x="290.576172" xlink:href="#DejaVuSans-30"/>
       <use x="354.199219" xlink:href="#DejaVuSans-39"/>
      </g>
     </g>
    </g>
    <g id="xtick_2">
     <g id="line2d_2">
      <g>
       <use style="stroke:#000000;stroke-width:0.8;" x="119.707826" xlink:href="#m43fd52d7ca" y="276.48"/>
      </g>
     </g>
     <g id="text_2">
      <!-- 2021-10 -->
      <g transform="translate(82.483005 310.951846)rotate(-30)scale(0.1 -0.1)">
       <use xlink:href="#DejaVuSans-32"/>
       <use x="63.623047" xlink:href="#DejaVuSans-30"/>
       <use x="127.246094" xlink:href="#DejaVuSans-32"/>
       <use x="190.869141" xlink:href="#DejaVuSans-31"/>
       <use x="254.492188" xlink:href="#DejaVuSans-2d"/>
       <use x="290.576172" xlink:href="#DejaVuSans-31"/>
       <use x="354.199219" xlink:href="#DejaVuSans-30"/>
      </g>
     </g>
    </g>
    <g id="xtick_3">
     <g id="line2d_3">
      <g>
       <use style="stroke:#000000;stroke-width:0.8;" x="156.172648" xlink:href="#m43fd52d7ca" y="276.48"/>
      </g>
     </g>
     <g id="text_3">
      <!-- 2021-11 -->
      <g transform="translate(118.947827 310.951846)rotate(-30)scale(0.1 -0.1)">
       <use xlink:href="#DejaVuSans-32"/>
       <use x="63.623047" xlink:href="#DejaVuSans-30"/>
       <use x="127.246094" xlink:href="#DejaVuSans-32"/>
       <use x="190.869141" xlink:href="#DejaVuSans-31"/>
       <use x="254.492188" xlink:href="#DejaVuSans-2d"/>
       <use x="290.576172" xlink:href="#DejaVuSans-31"/>
       <use x="354.199219" xlink:href="#DejaVuSans-31"/>
      </g>
     </g>
    </g>
    <g id="xtick_4">
     <g id="line2d_4">
      <g>
       <use style="stroke:#000000;stroke-width:0.8;" x="191.461186" xlink:href="#m43fd52d7ca" y="276.48"/>
      </g>
     </g>
     <g id="text_4">
      <!-- 2021-12 -->
      <g transform="translate(154.236365 310.951846)rotate(-30)scale(0.1 -0.1)">
       <use xlink:href="#DejaVuSans-32"/>
       <use x="63.623047" xlink:href="#DejaVuSans-30"/>
       <use x="127.246094" xlink:href="#DejaVuSans-32"/>
       <use x="190.869141" xlink:href="#DejaVuSans-31"/>
       <use x="254.492188" xlink:href="#DejaVuSans-2d"/>
       <use x="290.576172" xlink:href="#DejaVuSans-31"/>
       <use x="354.199219" xlink:href="#DejaVuSans-32"/>
      </g>
     </g>
    </g>
    <g id="xtick_5">
     <g id="line2d_5">
      <g>
       <use style="stroke:#000000;stroke-width:0.8;" x="227.926008" xlink:href="#m43fd52d7ca" y="276.48"/>
      </g>
     </g>
     <g id="text_5">
      <!-- 2022-01 -->
      <g transform="translate(190.701187 310.951846)rotate(-30)scale(0.1 -0.1)">
       <use xlink:href="#DejaVuSans-32"/>
       <use x="63.623047" xlink:href="#DejaVuSans-30"/>
       <use x="127.246094" xlink:href="#DejaVuSans-32"/>
       <use x="190.869141" xlink:href="#DejaVuSans-32"/>
       <use x="254.492188" xlink:href="#DejaVuSans-2d"/>
       <use x="290.576172" xlink:href="#DejaVuSans-30"/>
       <use x="354.199219" xlink:href="#DejaVuSans-31"/>
      </g>
     </g>
    </g>
    <g id="xtick_6">
     <g id="line2d_6">
      <g>
       <use style="stroke:#000000;stroke-width:0.8;" x="264.39083" xlink:href="#m43fd52d7ca" y="276.48"/>
      </g>
     </g>
     <g id="text_6">
      <!-- 2022-02 -->
      <g transform="translate(227.166009 310.951846)rotate(-30)scale(0.1 -0.1)">
       <use xlink:href="#DejaVuSans-32"/>
       <use x="63.623047" xlink:href="#DejaVuSans-30"/>
       <use x="127.246094" xlink:href="#DejaVuSans-32"/>
       <use x="190.869141" xlink:href="#DejaVuSans-32"/>
       <use x="254.492188" xlink:href="#DejaVuSans-2d"/>
       <use x="290.576172" xlink:href="#DejaVuSans-30"/>
       <use x="354.199219" xlink:href="#DejaVuSans-32"/>
      </g>
     </g>
    </g>
    <g id="xtick_7">
     <g id="line2d_7">
      <g>
       <use style="stroke:#000000;stroke-width:0.8;" x="297.326798" xlink:href="#m43fd52d7ca" y="276.48"/>
      </g>
     </g>
     <g id="text_7">
      <!-- 2022-03 -->
      <g transform="translate(260.101978 310.951846)rotate(-30)scale(0.1 -0.1)">
       <defs>
        <path d="M 2597 2516 
Q 3050 2419 3304 2112 
Q 3559 1806 3559 1356 
Q 3559 666 3084 287 
Q 2609 -91 1734 -91 
Q 1441 -91 1130 -33 
Q 819 25 488 141 
L 488 750 
Q 750 597 1062 519 
Q 1375 441 1716 441 
Q 2309 441 2620 675 
Q 2931 909 2931 1356 
Q 2931 1769 2642 2001 
Q 2353 2234 1838 2234 
L 1294 2234 
L 1294 2753 
L 1863 2753 
Q 2328 2753 2575 2939 
Q 2822 3125 2822 3475 
Q 2822 3834 2567 4026 
Q 2313 4219 1838 4219 
Q 1578 4219 1281 4162 
Q 984 4106 628 3988 
L 628 4550 
Q 988 4650 1302 4700 
Q 1616 4750 1894 4750 
Q 2613 4750 3031 4423 
Q 3450 4097 3450 3541 
Q 3450 3153 3228 2886 
Q 3006 2619 2597 2516 
z
" id="DejaVuSans-33" transform="scale(0.015625)"/>
       </defs>
       <use xlink:href="#DejaVuSans-32"/>
       <use x="63.623047" xlink:href="#DejaVuSans-30"/>
       <use x="127.246094" xlink:href="#DejaVuSans-32"/>
       <use x="190.869141" xlink:href="#DejaVuSans-32"/>
       <use x="254.492188" xlink:href="#DejaVuSans-2d"/>
       <use x="290.576172" xlink:href="#DejaVuSans-30"/>
       <use x="354.199219" xlink:href="#DejaVuSans-33"/>
      </g>
     </g>
    </g>
    <g id="xtick_8">
     <g id="line2d_8">
      <g>
       <use style="stroke:#000000;stroke-width:0.8;" x="333.791621" xlink:href="#m43fd52d7ca" y="276.48"/>
      </g>
     </g>
     <g id="text_8">
      <!-- 2022-04 -->
      <g transform="translate(296.5668 310.951846)rotate(-30)scale(0.1 -0.1)">
       <defs>
        <path d="M 2419 4116 
L 825 1625 
L 2419 1625 
L 2419 4116 
z
M 2253 4666 
L 3047 4666 
L 3047 1625 
L 3713 1625 
L 3713 1100 
L 3047 1100 
L 3047 0 
L 2419 0 
L 2419 1100 
L 313 1100 
L 313 1709 
L 2253 4666 
z
" id="DejaVuSans-34" transform="scale(0.015625)"/>
       </defs>
       <use xlink:href="#DejaVuSans-32"/>
       <use x="63.623047" xlink:href="#DejaVuSans-30"/>
       <use x="127.246094" xlink:href="#DejaVuSans-32"/>
       <use x="190.869141" xlink:href="#DejaVuSans-32"/>
       <use x="254.492188" xlink:href="#DejaVuSans-2d"/>
       <use x="290.576172" xlink:href="#DejaVuSans-30"/>
       <use x="354.199219" xlink:href="#DejaVuSans-34"/>
      </g>
     </g>
    </g>
    <g id="xtick_9">
     <g id="line2d_9">
      <g>
       <use style="stroke:#000000;stroke-width:0.8;" x="369.080158" xlink:href="#m43fd52d7ca" y="276.48"/>
      </g>
     </g>
     <g id="text_9">
      <!-- 2022-05 -->
      <g transform="translate(331.855337 310.951846)rotate(-30)scale(0.1 -0.1)">
       <defs>
        <path d="M 691 4666 
L 3169 4666 
L 3169 4134 
L 1269 4134 
L 1269 2991 
Q 1406 3038 1543 3061 
Q 1681 3084 1819 3084 
Q 2600 3084 3056 2656 
Q 3513 2228 3513 1497 
Q 3513 744 3044 326 
Q 2575 -91 1722 -91 
Q 1428 -91 1123 -41 
Q 819 9 494 109 
L 494 744 
Q 775 591 1075 516 
Q 1375 441 1709 441 
Q 2250 441 2565 725 
Q 2881 1009 2881 1497 
Q 2881 1984 2565 2268 
Q 2250 2553 1709 2553 
Q 1456 2553 1204 2497 
Q 953 2441 691 2322 
L 691 4666 
z
" id="DejaVuSans-35" transform="scale(0.015625)"/>
       </defs>
       <use xlink:href="#DejaVuSans-32"/>
       <use x="63.623047" xlink:href="#DejaVuSans-30"/>
       <use x="127.246094" xlink:href="#DejaVuSans-32"/>
       <use x="190.869141" xlink:href="#DejaVuSans-32"/>
       <use x="254.492188" xlink:href="#DejaVuSans-2d"/>
       <use x="290.576172" xlink:href="#DejaVuSans-30"/>
       <use x="354.199219" xlink:href="#DejaVuSans-35"/>
      </g>
     </g>
    </g>
    <g id="xtick_10">
     <g id="line2d_10">
      <g>
       <use style="stroke:#000000;stroke-width:0.8;" x="405.54498" xlink:href="#m43fd52d7ca" y="276.48"/>
      </g>
     </g>
     <g id="text_10">
      <!-- 2022-06 -->
      <g transform="translate(368.320159 310.951846)rotate(-30)scale(0.1 -0.1)">
       <defs>
        <path d="M 2113 2584 
Q 1688 2584 1439 2293 
Q 1191 2003 1191 1497 
Q 1191 994 1439 701 
Q 1688 409 2113 409 
Q 2538 409 2786 701 
Q 3034 994 3034 1497 
Q 3034 2003 2786 2293 
Q 2538 2584 2113 2584 
z
M 3366 4563 
L 3366 3988 
Q 3128 4100 2886 4159 
Q 2644 4219 2406 4219 
Q 1781 4219 1451 3797 
Q 1122 3375 1075 2522 
Q 1259 2794 1537 2939 
Q 1816 3084 2150 3084 
Q 2853 3084 3261 2657 
Q 3669 2231 3669 1497 
Q 3669 778 3244 343 
Q 2819 -91 2113 -91 
Q 1303 -91 875 529 
Q 447 1150 447 2328 
Q 447 3434 972 4092 
Q 1497 4750 2381 4750 
Q 2619 4750 2861 4703 
Q 3103 4656 3366 4563 
z
" id="DejaVuSans-36" transform="scale(0.015625)"/>
       </defs>
       <use xlink:href="#DejaVuSans-32"/>
       <use x="63.623047" xlink:href="#DejaVuSans-30"/>
       <use x="127.246094" xlink:href="#DejaVuSans-32"/>
       <use x="190.869141" xlink:href="#DejaVuSans-32"/>
       <use x="254.492188" xlink:href="#DejaVuSans-2d"/>
       <use x="290.576172" xlink:href="#DejaVuSans-30"/>
       <use x="354.199219" xlink:href="#DejaVuSans-36"/>
      </g>
     </g>
    </g>
    <g id="text_11">
     <!-- date -->
     <g transform="translate(224.885 324.351346)scale(0.1 -0.1)">
      <defs>
       <path d="M 2906 2969 
L 2906 4863 
L 3481 4863 
L 3481 0 
L 2906 0 
L 2906 525 
Q 2725 213 2448 61 
Q 2172 -91 1784 -91 
Q 1150 -91 751 415 
Q 353 922 353 1747 
Q 353 2572 751 3078 
Q 1150 3584 1784 3584 
Q 2172 3584 2448 3432 
Q 2725 3281 2906 2969 
z
M 947 1747 
Q 947 1113 1208 752 
Q 1469 391 1925 391 
Q 2381 391 2643 752 
Q 2906 1113 2906 1747 
Q 2906 2381 2643 2742 
Q 2381 3103 1925 3103 
Q 1469 3103 1208 2742 
Q 947 2381 947 1747 
z
" id="DejaVuSans-64" transform="scale(0.015625)"/>
       <path d="M 2194 1759 
Q 1497 1759 1228 1600 
Q 959 1441 959 1056 
Q 959 750 1161 570 
Q 1363 391 1709 391 
Q 2188 391 2477 730 
Q 2766 1069 2766 1631 
L 2766 1759 
L 2194 1759 
z
M 3341 1997 
L 3341 0 
L 2766 0 
L 2766 531 
Q 2569 213 2275 61 
Q 1981 -91 1556 -91 
Q 1019 -91 701 211 
Q 384 513 384 1019 
Q 384 1609 779 1909 
Q 1175 2209 1959 2209 
L 2766 2209 
L 2766 2266 
Q 2766 2663 2505 2880 
Q 2244 3097 1772 3097 
Q 1472 3097 1187 3025 
Q 903 2953 641 2809 
L 641 3341 
Q 956 3463 1253 3523 
Q 1550 3584 1831 3584 
Q 2591 3584 2966 3190 
Q 3341 2797 3341 1997 
z
" id="DejaVuSans-61" transform="scale(0.015625)"/>
       <path d="M 1172 4494 
L 1172 3500 
L 2356 3500 
L 2356 3053 
L 1172 3053 
L 1172 1153 
Q 1172 725 1289 603 
Q 1406 481 1766 481 
L 2356 481 
L 2356 0 
L 1766 0 
Q 1100 0 847 248 
Q 594 497 594 1153 
L 594 3053 
L 172 3053 
L 172 3500 
L 594 3500 
L 594 4494 
L 1172 4494 
z
" id="DejaVuSans-74" transform="scale(0.015625)"/>
       <path d="M 3597 1894 
L 3597 1613 
L 953 1613 
Q 991 1019 1311 708 
Q 1631 397 2203 397 
Q 2534 397 2845 478 
Q 3156 559 3463 722 
L 3463 178 
Q 3153 47 2828 -22 
Q 2503 -91 2169 -91 
Q 1331 -91 842 396 
Q 353 884 353 1716 
Q 353 2575 817 3079 
Q 1281 3584 2069 3584 
Q 2775 3584 3186 3129 
Q 3597 2675 3597 1894 
z
M 3022 2063 
Q 3016 2534 2758 2815 
Q 2500 3097 2075 3097 
Q 1594 3097 1305 2825 
Q 1016 2553 972 2059 
L 3022 2063 
z
" id="DejaVuSans-65" transform="scale(0.015625)"/>
      </defs>
      <use xlink:href="#DejaVuSans-64"/>
      <use x="63.476562" xlink:href="#DejaVuSans-61"/>
      <use x="124.755859" xlink:href="#DejaVuSans-74"/>
      <use x="163.964844" xlink:href="#DejaVuSans-65"/>
     </g>
    </g>
   </g>
   <g id="matplotlib.axis_2">
    <g id="ytick_1">
     <g id="line2d_11">
      <defs>
       <path d="M 0 0 
L -3.5 0 
" id="mad30670a27" style="stroke:#000000;stroke-width:0.8;"/>
      </defs>
      <g>
       <use style="stroke:#000000;stroke-width:0.8;" x="57.6" xlink:href="#mad30670a27" y="271.715079"/>
      </g>
     </g>
     <g id="text_12">
      <!-- 75000 -->
      <g transform="translate(18.7875 275.514298)scale(0.1 -0.1)">
       <defs>
        <path d="M 525 4666 
L 3525 4666 
L 3525 4397 
L 1831 0 
L 1172 0 
L 2766 4134 
L 525 4134 
L 525 4666 
z
" id="DejaVuSans-37" transform="scale(0.015625)"/>
       </defs>
       <use xlink:href="#DejaVuSans-37"/>
       <use x="63.623047" xlink:href="#DejaVuSans-35"/>
       <use x="127.246094" xlink:href="#DejaVuSans-30"/>
       <use x="190.869141" xlink:href="#DejaVuSans-30"/>
       <use x="254.492188" xlink:href="#DejaVuSans-30"/>
      </g>
     </g>
    </g>
    <g id="ytick_2">
     <g id="line2d_12">
      <g>
       <use style="stroke:#000000;stroke-width:0.8;" x="57.6" xlink:href="#mad30670a27" y="244.531291"/>
      </g>
     </g>
     <g id="text_13">
      <!-- 80000 -->
      <g transform="translate(18.7875 248.33051)scale(0.1 -0.1)">
       <defs>
        <path d="M 2034 2216 
Q 1584 2216 1326 1975 
Q 1069 1734 1069 1313 
Q 1069 891 1326 650 
Q 1584 409 2034 409 
Q 2484 409 2743 651 
Q 3003 894 3003 1313 
Q 3003 1734 2745 1975 
Q 2488 2216 2034 2216 
z
M 1403 2484 
Q 997 2584 770 2862 
Q 544 3141 544 3541 
Q 544 4100 942 4425 
Q 1341 4750 2034 4750 
Q 2731 4750 3128 4425 
Q 3525 4100 3525 3541 
Q 3525 3141 3298 2862 
Q 3072 2584 2669 2484 
Q 3125 2378 3379 2068 
Q 3634 1759 3634 1313 
Q 3634 634 3220 271 
Q 2806 -91 2034 -91 
Q 1263 -91 848 271 
Q 434 634 434 1313 
Q 434 1759 690 2068 
Q 947 2378 1403 2484 
z
M 1172 3481 
Q 1172 3119 1398 2916 
Q 1625 2713 2034 2713 
Q 2441 2713 2670 2916 
Q 2900 3119 2900 3481 
Q 2900 3844 2670 4047 
Q 2441 4250 2034 4250 
Q 1625 4250 1398 4047 
Q 1172 3844 1172 3481 
z
" id="DejaVuSans-38" transform="scale(0.015625)"/>
       </defs>
       <use xlink:href="#DejaVuSans-38"/>
       <use x="63.623047" xlink:href="#DejaVuSans-30"/>
       <use x="127.246094" xlink:href="#DejaVuSans-30"/>
       <use x="190.869141" xlink:href="#DejaVuSans-30"/>
       <use x="254.492188" xlink:href="#DejaVuSans-30"/>
      </g>
     </g>
    </g>
    <g id="ytick_3">
     <g id="line2d_13">
      <g>
       <use style="stroke:#000000;stroke-width:0.8;" x="57.6" xlink:href="#mad30670a27" y="217.347503"/>
      </g>
     </g>
     <g id="text_14">
      <!-- 85000 -->
      <g transform="translate(18.7875 221.146722)scale(0.1 -0.1)">
       <use xlink:href="#DejaVuSans-38"/>
       <use x="63.623047" xlink:href="#DejaVuSans-35"/>
       <use x="127.246094" xlink:href="#DejaVuSans-30"/>
       <use x="190.869141" xlink:href="#DejaVuSans-30"/>
       <use x="254.492188" xlink:href="#DejaVuSans-30"/>
      </g>
     </g>
    </g>
    <g id="ytick_4">
     <g id="line2d_14">
      <g>
       <use style="stroke:#000000;stroke-width:0.8;" x="57.6" xlink:href="#mad30670a27" y="190.163715"/>
      </g>
     </g>
     <g id="text_15">
      <!-- 90000 -->
      <g transform="translate(18.7875 193.962934)scale(0.1 -0.1)">
       <use xlink:href="#DejaVuSans-39"/>
       <use x="63.623047" xlink:href="#DejaVuSans-30"/>
       <use x="127.246094" xlink:href="#DejaVuSans-30"/>
       <use x="190.869141" xlink:href="#DejaVuSans-30"/>
       <use x="254.492188" xlink:href="#DejaVuSans-30"/>
      </g>
     </g>
    </g>
    <g id="ytick_5">
     <g id="line2d_15">
      <g>
       <use style="stroke:#000000;stroke-width:0.8;" x="57.6" xlink:href="#mad30670a27" y="162.979927"/>
      </g>
     </g>
     <g id="text_16">
      <!-- 95000 -->
      <g transform="translate(18.7875 166.779145)scale(0.1 -0.1)">
       <use xlink:href="#DejaVuSans-39"/>
       <use x="63.623047" xlink:href="#DejaVuSans-35"/>
       <use x="127.246094" xlink:href="#DejaVuSans-30"/>
       <use x="190.869141" xlink:href="#DejaVuSans-30"/>
       <use x="254.492188" xlink:href="#DejaVuSans-30"/>
      </g>
     </g>
    </g>
    <g id="ytick_6">
     <g id="line2d_16">
      <g>
       <use style="stroke:#000000;stroke-width:0.8;" x="57.6" xlink:href="#mad30670a27" y="135.796139"/>
      </g>
     </g>
     <g id="text_17">
      <!-- 100000 -->
      <g transform="translate(12.425 139.595357)scale(0.1 -0.1)">
       <use xlink:href="#DejaVuSans-31"/>
       <use x="63.623047" xlink:href="#DejaVuSans-30"/>
       <use x="127.246094" xlink:href="#DejaVuSans-30"/>
       <use x="190.869141" xlink:href="#DejaVuSans-30"/>
       <use x="254.492188" xlink:href="#DejaVuSans-30"/>
       <use x="318.115234" xlink:href="#DejaVuSans-30"/>
      </g>
     </g>
    </g>
    <g id="ytick_7">
     <g id="line2d_17">
      <g>
       <use style="stroke:#000000;stroke-width:0.8;" x="57.6" xlink:href="#mad30670a27" y="108.612351"/>
      </g>
     </g>
     <g id="text_18">
      <!-- 105000 -->
      <g transform="translate(12.425 112.411569)scale(0.1 -0.1)">
       <use xlink:href="#DejaVuSans-31"/>
       <use x="63.623047" xlink:href="#DejaVuSans-30"/>
       <use x="127.246094" xlink:href="#DejaVuSans-35"/>
       <use x="190.869141" xlink:href="#DejaVuSans-30"/>
       <use x="254.492188" xlink:href="#DejaVuSans-30"/>
       <use x="318.115234" xlink:href="#DejaVuSans-30"/>
      </g>
     </g>
    </g>
    <g id="ytick_8">
     <g id="line2d_18">
      <g>
       <use style="stroke:#000000;stroke-width:0.8;" x="57.6" xlink:href="#mad30670a27" y="81.428562"/>
      </g>
     </g>
     <g id="text_19">
      <!-- 110000 -->
      <g transform="translate(12.425 85.227781)scale(0.1 -0.1)">
       <use xlink:href="#DejaVuSans-31"/>
       <use x="63.623047" xlink:href="#DejaVuSans-31"/>
       <use x="127.246094" xlink:href="#DejaVuSans-30"/>
       <use x="190.869141" xlink:href="#DejaVuSans-30"/>
       <use x="254.492188" xlink:href="#DejaVuSans-30"/>
       <use x="318.115234" xlink:href="#DejaVuSans-30"/>
      </g>
     </g>
    </g>
    <g id="ytick_9">
     <g id="line2d_19">
      <g>
       <use style="stroke:#000000;stroke-width:0.8;" x="57.6" xlink:href="#mad30670a27" y="54.244774"/>
      </g>
     </g>
     <g id="text_20">
      <!-- 115000 -->
      <g transform="translate(12.425 58.043993)scale(0.1 -0.1)">
       <use xlink:href="#DejaVuSans-31"/>
       <use x="63.623047" xlink:href="#DejaVuSans-31"/>
       <use x="127.246094" xlink:href="#DejaVuSans-35"/>
       <use x="190.869141" xlink:href="#DejaVuSans-30"/>
       <use x="254.492188" xlink:href="#DejaVuSans-30"/>
       <use x="318.115234" xlink:href="#DejaVuSans-30"/>
      </g>
     </g>
    </g>
   </g>
   <g id="line2d_20">
    <path clip-path="url(#pefe76ed67e)" d="M 73.832727 135.796139 
L 75.009012 136.234934 
L 76.185296 134.020722 
L 77.361581 137.17634 
L 78.537866 131.873338 
L 82.066719 128.369867 
L 83.243004 127.475425 
L 84.419289 128.782057 
L 85.595573 128.362793 
L 86.771858 128.812416 
L 91.476996 128.650005 
L 93.829565 132.587928 
L 95.00585 137.292545 
L 98.534704 132.8832 
L 99.710988 140.6203 
L 100.887273 136.631435 
L 102.063557 137.61013 
L 103.239842 142.97439 
L 106.768696 152.121432 
L 107.94498 153.520758 
L 109.121265 149.226116 
L 110.297549 140.868449 
L 111.473834 136.164063 
L 115.002688 132.300824 
L 116.178972 144.005396 
L 117.355257 142.051702 
L 118.531542 146.488966 
L 119.707826 138.007539 
L 123.23668 148.120612 
L 124.412964 139.882446 
L 125.589249 138.238332 
L 126.765534 137.931358 
L 127.941818 137.291508 
L 132.646957 135.935108 
L 133.823241 143.057838 
L 134.999526 132.283184 
L 136.17581 131.376116 
L 139.704664 127.23963 
L 140.880949 121.484287 
L 142.057233 119.113745 
L 143.233518 129.020332 
L 144.409802 135.681066 
L 147.938656 135.58171 
L 149.114941 140.130095 
L 150.291225 141.321255 
L 151.46751 134.192883 
L 152.643794 141.524983 
L 156.172648 130.115791 
L 157.348933 130.751766 
L 158.525217 125.199118 
L 159.701502 131.513393 
L 160.877787 127.990885 
L 164.40664 127.440249 
L 165.582925 134.332247 
L 166.759209 134.302483 
L 167.935494 138.880654 
L 169.111779 134.58218 
L 172.640632 132.668112 
L 173.816917 132.986972 
L 174.993202 136.039352 
L 176.169486 137.163264 
L 177.345771 137.698605 
L 180.874625 134.610241 
L 182.050909 129.618701 
L 183.227194 130.142703 
L 185.579763 129.941792 
L 189.108617 134.930797 
L 190.284901 145.740501 
L 191.461186 152.623851 
L 192.63747 145.980017 
L 193.813755 149.337086 
L 197.342609 139.413183 
L 198.518893 129.862972 
L 199.695178 125.401369 
L 200.871462 125.440022 
L 202.047747 123.351729 
L 205.576601 128.699443 
L 206.752885 125.941056 
L 207.92917 122.796394 
L 209.105455 120.734899 
L 210.281739 127.004072 
L 213.810593 134.499007 
L 214.986877 121.788386 
L 216.163162 119.421568 
L 217.339447 114.316611 
L 222.044585 106.925768 
L 223.22087 107.662494 
L 224.397154 107.217498 
L 225.573439 108.09431 
L 226.749723 110.999895 
L 230.278577 102.193032 
L 231.454862 95.165907 
L 232.631146 110.30276 
L 233.807431 105.521637 
L 234.983715 103.117346 
L 238.512569 103.268466 
L 239.688854 98.228647 
L 240.865138 96.929272 
L 242.041423 103.745877 
L 243.217708 102.08565 
L 249.09913 117.602454 
L 250.275415 124.078241 
L 251.4517 136.872622 
L 254.980553 135.626236 
L 256.156838 142.360817 
L 257.333123 142.301154 
L 258.509407 145.862553 
L 259.685692 131.733461 
L 263.214545 120.409748 
L 264.39083 114.653728 
L 265.567115 106.509833 
L 266.743399 142.365452 
L 267.919684 141.476571 
L 271.448538 151.049247 
L 272.624822 152.00486 
L 273.801107 140.414341 
L 274.977391 150.132238 
L 276.153676 162.06349 
L 279.68253 165.686447 
L 280.858814 159.23269 
L 282.035099 162.252754 
L 283.211383 171.409205 
L 284.387668 174.685916 
L 289.092806 180.276175 
L 290.269091 187.086744 
L 291.445375 176.193207 
L 292.62166 166.874875 
L 296.150514 168.607902 
L 297.326798 176.591068 
L 298.503083 166.252749 
L 299.679368 168.274361 
L 300.855652 172.246281 
L 304.384506 193.478201 
L 305.560791 193.375411 
L 306.737075 173.194163 
L 307.91336 179.475149 
L 309.089644 188.182853 
L 312.618498 190.290149 
L 313.794783 180.32463 
L 314.971067 164.574302 
L 316.147352 158.470054 
L 317.323636 148.850308 
L 320.85249 151.552729 
L 322.028775 141.218429 
L 323.205059 146.975636 
L 324.381344 137.619291 
L 325.557628 132.362326 
L 329.086482 130.744818 
L 330.262767 125.851203 
L 331.439051 127.759366 
L 332.615336 139.869313 
L 333.791621 137.759043 
L 337.320474 130.879875 
L 338.496759 137.251464 
L 339.673043 145.959498 
L 340.849328 146.554103 
L 342.025613 147.497367 
L 345.554466 157.618827 
L 346.730751 161.398552 
L 347.907036 158.588173 
L 349.08332 167.680876 
L 353.788458 164.568688 
L 354.964743 155.158184 
L 356.141028 161.80232 
L 357.317312 173.611989 
L 358.493597 190.18292 
L 362.022451 185.381736 
L 363.198735 194.438794 
L 364.37502 200.33468 
L 365.551304 168.309745 
L 366.727589 184.152599 
L 370.256443 176.991615 
L 371.432727 172.537102 
L 372.609012 150.365702 
L 373.785296 173.814123 
L 374.961581 176.483974 
L 378.490435 190.725313 
L 379.666719 188.246568 
L 380.843004 198.136284 
L 382.019289 201.530633 
L 383.195573 189.863376 
L 386.724427 193.31827 
L 387.900711 183.943354 
L 389.076996 203.639442 
L 390.253281 209.018216 
L 391.429565 210.780335 
L 394.958419 198.057825 
L 396.134704 213.747894 
L 397.310988 212.785404 
L 398.487273 202.43209 
L 398.487273 202.43209 
" style="fill:none;stroke:#0000ff;stroke-linecap:square;stroke-opacity:0.9;stroke-width:2;"/>
   </g>
   <g id="line2d_21">
    <path clip-path="url(#pefe76ed67e)" d="M 73.832727 135.796139 
L 75.009012 132.677852 
L 76.185296 130.217892 
L 77.361581 133.552894 
L 78.537866 127.292067 
L 82.066719 125.359944 
L 83.243004 124.567516 
L 84.419289 124.809512 
L 85.595573 125.234886 
L 86.771858 125.258796 
L 91.476996 124.570321 
L 92.653281 126.214624 
L 93.829565 127.487784 
L 95.00585 133.224208 
L 98.534704 129.655111 
L 99.710988 134.438613 
L 100.887273 132.007393 
L 102.063557 133.90964 
L 103.239842 140.635391 
L 106.768696 149.074693 
L 107.94498 149.493138 
L 109.121265 146.27713 
L 110.297549 139.291371 
L 111.473834 135.564287 
L 115.002688 131.852776 
L 116.178972 142.69469 
L 117.355257 141.789249 
L 118.531542 147.177219 
L 119.707826 139.184572 
L 123.23668 145.312114 
L 124.412964 137.255199 
L 125.589249 136.131271 
L 126.765534 134.61183 
L 127.941818 132.06112 
L 131.470672 135.094711 
L 132.646957 139.255916 
L 133.823241 140.823571 
L 134.999526 127.931532 
L 136.17581 123.723904 
L 139.704664 122.64065 
L 140.880949 117.826171 
L 142.057233 114.857574 
L 143.233518 122.351179 
L 144.409802 124.967214 
L 147.938656 126.668414 
L 149.114941 129.238058 
L 150.291225 132.733599 
L 151.46751 124.719478 
L 152.643794 123.826243 
L 156.172648 123.407551 
L 157.348933 121.410494 
L 158.525217 117.365573 
L 159.701502 118.761373 
L 160.877787 118.476316 
L 164.40664 117.822732 
L 165.582925 122.03016 
L 166.759209 124.969684 
L 167.935494 124.983989 
L 169.111779 121.2803 
L 172.640632 119.878167 
L 173.816917 121.432825 
L 174.993202 121.739912 
L 176.169486 121.838255 
L 177.345771 123.86555 
L 180.874625 121.530656 
L 182.050909 115.800274 
L 183.227194 115.633169 
L 185.579763 130.066861 
L 189.108617 123.96107 
L 190.284901 135.757417 
L 191.461186 142.169419 
L 192.63747 134.333188 
L 193.813755 139.043391 
L 197.342609 130.69767 
L 198.518893 121.449803 
L 199.695178 117.990979 
L 200.871462 118.677807 
L 202.047747 115.083469 
L 205.576601 120.503595 
L 206.752885 120.453469 
L 207.92917 116.010151 
L 209.105455 115.800496 
L 210.281739 123.334349 
L 213.810593 129.7784 
L 214.986877 119.164953 
L 216.163162 115.899597 
L 217.339447 110.942133 
L 222.044585 103.876367 
L 223.22087 104.066642 
L 224.397154 103.792313 
L 225.573439 104.314229 
L 226.749723 106.857012 
L 230.278577 100.450613 
L 231.454862 94.965567 
L 232.631146 107.526718 
L 233.807431 105.334885 
L 234.983715 101.848312 
L 238.512569 102.70026 
L 239.688854 99.054798 
L 240.865138 99.221714 
L 242.041423 103.743483 
L 243.217708 103.827904 
L 247.922846 116.079318 
L 250.275415 127.132762 
L 251.4517 138.804108 
L 254.980553 139.369082 
L 256.156838 138.075719 
L 257.333123 138.629146 
L 258.509407 143.37166 
L 259.685692 130.45767 
L 263.214545 122.059526 
L 264.39083 115.665997 
L 265.567115 106.493431 
L 266.743399 131.894186 
L 267.919684 127.746988 
L 271.448538 130.805683 
L 272.624822 127.568809 
L 273.801107 122.056376 
L 274.977391 131.338116 
L 276.153676 142.988538 
L 279.68253 148.03547 
L 280.858814 141.443339 
L 282.035099 142.599171 
L 283.211383 153.429539 
L 284.387668 155.826393 
L 289.092806 160.64895 
L 290.269091 167.478761 
L 291.445375 164.454121 
L 292.62166 152.249063 
L 296.150514 157.415955 
L 297.326798 167.992084 
L 298.503083 156.198552 
L 299.679368 157.006252 
L 300.855652 164.747036 
L 304.384506 182.767085 
L 305.560791 185.171397 
L 306.737075 166.99526 
L 307.91336 173.759488 
L 309.089644 179.362359 
L 312.618498 179.881433 
L 313.794783 171.420258 
L 314.971067 159.442043 
L 317.323636 149.189565 
L 320.85249 149.196168 
L 322.028775 140.29438 
L 323.205059 145.296829 
L 324.381344 137.775884 
L 325.557628 131.784296 
L 329.086482 131.049321 
L 330.262767 128.187445 
L 331.439051 129.010061 
L 332.615336 139.413722 
L 333.791621 136.994924 
L 337.320474 133.070178 
L 338.496759 138.478439 
L 339.673043 145.165565 
L 340.849328 145.366179 
L 342.025613 145.28315 
L 345.554466 153.587264 
L 346.730751 155.953884 
L 347.907036 154.340826 
L 349.08332 162.016432 
L 353.788458 158.895471 
L 354.964743 151.44178 
L 356.141028 149.073127 
L 357.317312 155.706089 
L 358.493597 171.368888 
L 362.022451 169.94264 
L 363.198735 178.58007 
L 364.37502 179.902459 
L 365.551304 162.89945 
L 366.727589 178.938903 
L 370.256443 175.933619 
L 371.432727 171.622422 
L 372.609012 149.931118 
L 373.785296 168.90938 
L 374.961581 167.668903 
L 380.843004 191.732613 
L 382.019289 195.32019 
L 383.195573 187.3868 
L 386.724427 188.866496 
L 387.900711 178.952024 
L 389.076996 198.063163 
L 390.253281 204.239958 
L 391.429565 208.441565 
L 394.958419 195.713798 
L 396.134704 202.130414 
L 397.310988 201.703242 
L 398.487273 191.350276 
L 398.487273 191.350276 
" style="fill:none;stroke:#ff0000;stroke-linecap:square;stroke-opacity:0.9;stroke-width:2;"/>
   </g>
   <g id="line2d_22">
    <path clip-path="url(#pefe76ed67e)" d="M 73.832727 135.796139 
L 75.009012 132.669789 
L 76.185296 130.901264 
L 77.361581 133.928399 
L 78.537866 128.758418 
L 82.066719 124.734286 
L 83.243004 123.982502 
L 84.419289 125.491199 
L 85.595573 124.397492 
L 86.771858 125.07142 
L 91.476996 125.020869 
L 92.653281 126.874391 
L 93.829565 128.472047 
L 95.00585 133.237444 
L 98.534704 128.322236 
L 99.710988 136.142667 
L 100.887273 132.610771 
L 102.063557 133.127046 
L 103.239842 138.329003 
L 106.768696 147.772923 
L 107.94498 148.829313 
L 109.121265 144.78718 
L 110.297549 136.317868 
L 111.473834 131.805779 
L 115.002688 127.220818 
L 116.178972 138.4146 
L 117.355257 136.922955 
L 118.531542 141.052205 
L 119.707826 132.438144 
L 123.23668 142.655185 
L 124.412964 134.389131 
L 125.589249 132.446364 
L 126.765534 131.05783 
L 127.941818 128.439515 
L 131.470672 131.532898 
L 132.646957 136.284258 
L 133.823241 137.286924 
L 134.999526 126.333053 
L 136.17581 125.707103 
L 139.704664 121.214047 
L 140.880949 115.289855 
L 142.057233 112.993726 
L 143.233518 121.876064 
L 144.409802 129.351735 
L 147.938656 128.647369 
L 149.114941 133.693432 
L 150.291225 135.308362 
L 151.46751 128.475777 
L 152.643794 127.422649 
L 156.172648 124.493306 
L 157.348933 123.187847 
L 158.525217 119.173999 
L 159.701502 118.558309 
L 160.877787 114.771249 
L 164.40664 114.311885 
L 165.582925 121.174962 
L 166.759209 125.106461 
L 167.935494 125.748124 
L 169.111779 121.197549 
L 172.640632 119.193867 
L 173.816917 121.997699 
L 174.993202 122.596113 
L 176.169486 123.991253 
L 177.345771 123.787695 
L 180.874625 120.424303 
L 182.050909 116.132153 
L 183.227194 116.625392 
L 185.579763 128.804304 
L 189.108617 121.695066 
L 190.284901 132.597465 
L 191.461186 140.270613 
L 192.63747 133.565225 
L 193.813755 137.161058 
L 197.342609 127.022006 
L 198.518893 117.459208 
L 199.695178 112.727352 
L 200.871462 112.375708 
L 202.047747 110.369084 
L 205.576601 115.75893 
L 206.752885 113.378134 
L 207.92917 110.096129 
L 209.105455 107.943484 
L 210.281739 114.314463 
L 213.810593 122.311673 
L 214.986877 109.228163 
L 216.163162 106.577313 
L 217.339447 101.201481 
L 222.044585 93.938287 
L 223.22087 94.210119 
L 224.397154 94.172579 
L 225.573439 95.292373 
L 226.749723 97.653123 
L 230.278577 88.832499 
L 231.454862 81.526288 
L 232.631146 96.979027 
L 233.807431 90.925718 
L 234.983715 88.880431 
L 238.512569 87.620578 
L 239.688854 82.3501 
L 240.865138 80.852861 
L 242.041423 88.191419 
L 243.217708 86.444068 
L 249.09913 102.177926 
L 250.275415 108.487165 
L 251.4517 121.520004 
L 254.980553 120.8086 
L 256.156838 127.515152 
L 257.333123 127.07871 
L 258.509407 130.752298 
L 259.685692 116.830509 
L 263.214545 104.579996 
L 264.39083 98.95243 
L 265.567115 89.217698 
L 266.743399 128.853375 
L 267.919684 128.187858 
L 271.448538 137.795507 
L 272.624822 139.080874 
L 273.801107 126.655907 
L 274.977391 136.577229 
L 276.153676 148.718683 
L 279.68253 152.804329 
L 280.858814 145.69629 
L 282.035099 148.92651 
L 283.211383 158.874184 
L 284.387668 161.733265 
L 289.092806 166.853874 
L 290.269091 174.357393 
L 291.445375 162.492427 
L 292.62166 152.958392 
L 296.150514 154.557052 
L 297.326798 162.934353 
L 298.503083 151.728787 
L 299.679368 154.9565 
L 300.855652 161.990409 
L 304.384506 184.399134 
L 305.560791 181.823221 
L 306.737075 160.01686 
L 309.089644 175.810642 
L 312.618498 176.489883 
L 313.794783 166.702707 
L 314.971067 149.775349 
L 316.147352 143.752067 
L 317.323636 135.239107 
L 320.85249 137.395998 
L 322.028775 125.891233 
L 323.205059 132.24537 
L 324.381344 124.151193 
L 325.557628 117.824382 
L 329.086482 117.235984 
L 330.262767 112.959986 
L 331.439051 115.566467 
L 332.615336 130.13166 
L 333.791621 128.758989 
L 337.320474 123.961197 
L 338.496759 130.966985 
L 339.673043 139.081769 
L 340.849328 141.327803 
L 342.025613 141.197397 
L 345.554466 150.254834 
L 346.730751 152.70153 
L 347.907036 150.355953 
L 349.08332 160.79781 
L 353.788458 154.696495 
L 354.964743 145.057711 
L 356.141028 148.492535 
L 357.317312 159.957378 
L 358.493597 177.476289 
L 362.022451 174.518613 
L 363.198735 187.328051 
L 364.37502 192.591922 
L 365.551304 164.634264 
L 366.727589 180.50645 
L 370.256443 171.872615 
L 371.432727 165.967518 
L 372.609012 142.736849 
L 373.785296 165.040865 
L 374.961581 167.513939 
L 378.490435 182.876352 
L 379.666719 182.183998 
L 380.843004 191.75444 
L 382.019289 195.335097 
L 383.195573 185.009005 
L 386.724427 188.106513 
L 387.900711 177.045158 
L 389.076996 197.164407 
L 390.253281 203.00941 
L 391.429565 207.083903 
L 394.958419 191.953662 
L 396.134704 205.467681 
L 397.310988 203.423775 
L 398.487273 190.587677 
L 398.487273 190.587677 
" style="fill:none;stroke:#ff8040;stroke-linecap:square;stroke-opacity:0.9;stroke-width:2;"/>
   </g>
   <g id="line2d_23">
    <path clip-path="url(#pefe76ed67e)" d="M 73.832727 136.339814 
L 76.185296 133.144466 
L 77.361581 137.311781 
L 78.537866 131.938892 
L 82.066719 132.522081 
L 83.243004 131.251981 
L 84.419289 133.271454 
L 85.595573 132.855321 
L 86.771858 132.248424 
L 91.476996 135.397738 
L 92.653281 137.990647 
L 93.829565 139.192541 
L 95.00585 145.446123 
L 98.534704 141.453592 
L 99.710988 147.832619 
L 100.887273 145.078287 
L 102.063557 145.819218 
L 103.239842 152.562663 
L 106.768696 161.705787 
L 107.94498 162.317098 
L 109.121265 156.658266 
L 110.297549 149.088895 
L 111.473834 146.16701 
L 115.002688 146.271126 
L 116.178972 156.847607 
L 117.355257 155.076282 
L 118.531542 160.166353 
L 119.707826 151.906179 
L 123.23668 159.943826 
L 124.412964 153.465539 
L 125.589249 150.998722 
L 127.941818 147.138031 
L 131.470672 150.699529 
L 132.646957 155.519089 
L 133.823241 157.226484 
L 134.999526 145.148358 
L 136.17581 144.219487 
L 139.704664 142.933738 
L 140.880949 137.283362 
L 142.057233 136.709286 
L 143.233518 139.197286 
L 144.409802 148.375366 
L 147.938656 149.833433 
L 149.114941 151.795291 
L 150.291225 157.899445 
L 151.46751 152.937396 
L 152.643794 149.527257 
L 156.172648 150.009352 
L 157.348933 147.896024 
L 158.525217 143.527584 
L 159.701502 142.539383 
L 160.877787 140.860118 
L 164.40664 141.006815 
L 165.582925 144.812935 
L 166.759209 149.275841 
L 167.935494 148.834666 
L 169.111779 144.908799 
L 172.640632 142.412312 
L 173.816917 142.86586 
L 174.993202 143.03455 
L 176.169486 142.700396 
L 177.345771 145.715409 
L 180.874625 144.558052 
L 182.050909 139.693326 
L 183.227194 139.705023 
L 185.579763 153.294155 
L 189.108617 148.745796 
L 190.284901 164.355245 
L 191.461186 170.664041 
L 192.63747 165.167711 
L 193.813755 169.579121 
L 197.342609 161.00683 
L 198.518893 152.32886 
L 199.695178 151.968853 
L 200.871462 151.884969 
L 202.047747 148.042608 
L 205.576601 154.311112 
L 206.752885 152.328559 
L 209.105455 143.477224 
L 210.281739 150.707619 
L 213.810593 158.895293 
L 214.986877 147.571543 
L 216.163162 143.767025 
L 217.339447 139.216144 
L 222.044585 132.612822 
L 223.22087 133.085398 
L 224.397154 132.451346 
L 225.573439 132.718988 
L 226.749723 136.260194 
L 230.278577 132.628256 
L 231.454862 127.238389 
L 232.631146 136.683064 
L 233.807431 136.358926 
L 234.983715 133.035932 
L 238.512569 134.072387 
L 239.688854 131.870944 
L 240.865138 130.84894 
L 242.041423 134.841887 
L 243.217708 135.402402 
L 247.922846 149.376946 
L 250.275415 158.612841 
L 251.4517 169.32477 
L 254.980553 172.544476 
L 256.156838 170.911603 
L 257.333123 173.482641 
L 258.509407 177.512702 
L 259.685692 162.096516 
L 263.214545 155.679192 
L 265.567115 143.785791 
L 266.743399 175.312026 
L 267.919684 172.631033 
L 271.448538 174.422533 
L 272.624822 172.056727 
L 273.801107 168.374075 
L 276.153676 187.910974 
L 279.68253 190.73058 
L 280.858814 185.61025 
L 282.035099 187.216292 
L 283.211383 197.536729 
L 284.387668 200.205472 
L 289.092806 204.951213 
L 290.269091 212.252526 
L 291.445375 208.180944 
L 292.62166 198.01787 
L 296.150514 202.375857 
L 297.326798 211.955728 
L 298.503083 202.756883 
L 299.679368 204.793489 
L 300.855652 211.094546 
L 304.384506 230.879362 
L 305.560791 234.365243 
L 306.737075 218.123355 
L 307.91336 226.478058 
L 309.089644 233.955201 
L 312.618498 235.182171 
L 313.794783 226.601646 
L 314.971067 215.620454 
L 316.147352 211.390959 
L 317.323636 204.029538 
L 320.85249 203.538321 
L 322.028775 196.379881 
L 323.205059 203.238407 
L 324.381344 194.782323 
L 325.557628 188.013169 
L 329.086482 187.552948 
L 330.262767 185.462586 
L 331.439051 186.262635 
L 332.615336 197.464611 
L 333.791621 194.779304 
L 337.320474 192.726334 
L 338.496759 197.785203 
L 339.673043 203.394672 
L 340.849328 203.704553 
L 342.025613 203.400839 
L 346.730751 213.59934 
L 347.907036 210.310168 
L 349.08332 219.134303 
L 353.788458 213.653609 
L 354.964743 207.256595 
L 356.141028 212.804165 
L 357.317312 220.832827 
L 358.493597 232.773023 
L 362.022451 230.49161 
L 363.198735 243.333512 
L 364.37502 244.328304 
L 365.551304 230.099171 
L 366.727589 244.40226 
L 370.256443 237.013612 
L 371.432727 232.467993 
L 372.609012 212.73208 
L 373.785296 232.773577 
L 374.961581 234.271252 
L 378.490435 246.251482 
L 379.666719 248.286955 
L 380.843004 254.656168 
L 382.019289 256.003017 
L 383.195573 250.005234 
L 386.724427 251.357539 
L 387.900711 243.208345 
L 389.076996 259.098059 
L 390.253281 264.880104 
L 391.429565 265.797818 
L 394.958419 254.71738 
L 396.134704 258.336856 
L 397.310988 257.169852 
L 398.487273 248.513067 
L 398.487273 248.513067 
" style="fill:none;stroke:#0d0d0d;stroke-linecap:square;stroke-opacity:0.25;stroke-width:2;"/>
   </g>
   <g id="line2d_24">
    <path clip-path="url(#pefe76ed67e)" d="M 73.832727 135.252463 
L 75.009012 130.900839 
L 76.185296 127.214705 
L 77.361581 130.234718 
L 78.537866 122.976857 
L 82.066719 117.0477 
L 83.243004 115.685848 
L 84.419289 115.790042 
L 85.595573 115.328764 
L 86.771858 114.533777 
L 91.476996 112.915221 
L 92.653281 114.451059 
L 93.829565 115.220804 
L 95.00585 121.282448 
L 98.534704 117.255822 
L 99.710988 122.065014 
L 100.887273 120.26131 
L 102.063557 121.265715 
L 103.239842 128.594202 
L 106.768696 136.121982 
L 107.94498 135.164839 
L 109.121265 130.808959 
L 110.297549 122.058607 
L 111.473834 117.286925 
L 115.002688 112.422386 
L 116.178972 122.792948 
L 117.355257 121.981804 
L 118.531542 126.128643 
L 119.707826 119.125023 
L 123.23668 122.918054 
L 124.412964 116.027757 
L 126.765534 113.465916 
L 127.941818 110.551906 
L 131.470672 113.761509 
L 132.646957 118.190961 
L 133.823241 120.058618 
L 134.999526 104.422455 
L 136.17581 98.039608 
L 139.704664 93.574001 
L 140.880949 89.301582 
L 142.057233 84.488975 
L 143.233518 85.87901 
L 144.409802 91.279603 
L 147.938656 92.925609 
L 149.114941 96.163246 
L 150.291225 97.788229 
L 151.46751 89.971861 
L 152.643794 86.721942 
L 156.172648 85.5551 
L 157.348933 83.606669 
L 158.525217 79.482572 
L 159.701502 82.336361 
L 160.877787 81.151739 
L 164.40664 81.065035 
L 166.759209 89.117559 
L 167.935494 89.495579 
L 169.111779 89.5913 
L 172.640632 87.490635 
L 173.816917 89.017777 
L 174.993202 88.458921 
L 176.169486 91.330262 
L 177.345771 90.938713 
L 180.874625 88.303334 
L 182.050909 83.602591 
L 183.227194 82.642826 
L 185.579763 95.480301 
L 189.108617 88.089665 
L 190.284901 94.689066 
L 191.461186 98.719121 
L 192.63747 92.692433 
L 193.813755 96.233016 
L 197.342609 88.024394 
L 198.518893 79.7163 
L 199.695178 77.322564 
L 200.871462 77.224296 
L 202.047747 74.84267 
L 205.576601 79.796022 
L 206.752885 79.924891 
L 209.105455 72.289933 
L 210.281739 79.3669 
L 213.810593 86.10648 
L 214.986877 74.503913 
L 216.163162 72.078661 
L 217.339447 67.196375 
L 222.044585 62.039802 
L 223.22087 62.866635 
L 224.397154 62.172314 
L 225.573439 63.516756 
L 226.749723 64.621653 
L 230.278577 59.015643 
L 231.454862 52.383601 
L 232.631146 66.088699 
L 233.807431 59.492919 
L 234.983715 57.199532 
L 238.512569 56.760598 
L 239.688854 53.530888 
L 240.865138 52.154182 
L 242.041423 57.244959 
L 243.217708 57.12676 
L 249.09913 72.33838 
L 250.275415 78.052528 
L 251.4517 91.376684 
L 254.980553 91.701231 
L 256.156838 86.887695 
L 257.333123 86.708269 
L 258.509407 92.999948 
L 259.685692 79.392361 
L 263.214545 68.772198 
L 264.39083 60.830563 
L 265.567115 53.826804 
L 266.743399 83.32962 
L 267.919684 80.882613 
L 271.448538 84.361079 
L 272.624822 81.311204 
L 273.801107 71.39992 
L 274.977391 83.872323 
L 276.153676 98.381023 
L 279.68253 102.574396 
L 280.858814 95.260831 
L 282.035099 95.723805 
L 283.211383 106.805981 
L 284.387668 110.137285 
L 289.092806 115.113297 
L 290.269091 122.01053 
L 291.445375 117.643105 
L 292.62166 105.532112 
L 296.150514 111.916836 
L 297.326798 126.154361 
L 298.503083 114.874505 
L 299.679368 116.189342 
L 300.855652 120.499681 
L 304.384506 138.041852 
L 305.560791 142.929306 
L 306.737075 118.623629 
L 307.91336 124.866533 
L 309.089644 131.894602 
L 312.618498 134.762999 
L 313.794783 124.961901 
L 314.971067 111.54334 
L 316.147352 106.882145 
L 317.323636 101.618439 
L 320.85249 101.198504 
L 322.028775 89.589002 
L 323.205059 94.660008 
L 324.381344 86.237011 
L 325.557628 80.634886 
L 329.086482 77.547973 
L 330.262767 75.159025 
L 331.439051 75.543881 
L 332.615336 87.101837 
L 337.320474 74.392864 
L 338.496759 81.483022 
L 339.673043 90.932731 
L 340.849328 89.898748 
L 342.025613 90.500927 
L 345.554466 97.119446 
L 346.730751 101.594891 
L 347.907036 98.653073 
L 349.08332 108.981968 
L 353.788458 106.08627 
L 354.964743 98.40685 
L 356.141028 102.200694 
L 357.317312 106.673656 
L 358.493597 123.723916 
L 362.022451 117.799636 
L 363.198735 124.760794 
L 364.37502 125.605508 
L 365.551304 89.424512 
L 366.727589 106.657966 
L 370.256443 100.185605 
L 371.432727 96.55248 
L 372.609012 71.543319 
L 373.785296 93.515785 
L 374.961581 97.414033 
L 378.490435 113.398683 
L 379.666719 115.475158 
L 380.843004 118.52102 
L 382.019289 118.897767 
L 383.195573 109.090481 
L 386.724427 110.039412 
L 387.900711 97.4242 
L 389.076996 122.126962 
L 390.253281 129.228049 
L 391.429565 130.853269 
L 394.958419 118.099814 
L 396.134704 127.748236 
L 397.310988 126.821666 
L 398.487273 114.012097 
L 398.487273 114.012097 
" style="fill:none;stroke:#0d0d0d;stroke-linecap:square;stroke-opacity:0.25;stroke-width:2;"/>
   </g>
   <g id="patch_3">
    <path d="M 57.6 276.48 
L 57.6 41.472 
" style="fill:none;stroke:#000000;stroke-linecap:square;stroke-linejoin:miter;stroke-width:0.8;"/>
   </g>
   <g id="patch_4">
    <path d="M 414.72 276.48 
L 414.72 41.472 
" style="fill:none;stroke:#000000;stroke-linecap:square;stroke-linejoin:miter;stroke-width:0.8;"/>
   </g>
   <g id="patch_5">
    <path d="M 57.6 276.48 
L 414.72 276.48 
" style="fill:none;stroke:#000000;stroke-linecap:square;stroke-linejoin:miter;stroke-width:0.8;"/>
   </g>
   <g id="patch_6">
    <path d="M 57.6 41.472 
L 414.72 41.472 
" style="fill:none;stroke:#000000;stroke-linecap:square;stroke-linejoin:miter;stroke-width:0.8;"/>
   </g>
   <g id="text_21">
    <!-- TESTFUNDS1330 -->
    <g transform="translate(185.200312 22.034625)scale(0.12 -0.12)">
     <defs>
      <path d="M -19 4666 
L 3928 4666 
L 3928 4134 
L 2272 4134 
L 2272 0 
L 1638 0 
L 1638 4134 
L -19 4134 
L -19 4666 
z
" id="DejaVuSans-54" transform="scale(0.015625)"/>
      <path d="M 628 4666 
L 3578 4666 
L 3578 4134 
L 1259 4134 
L 1259 2753 
L 3481 2753 
L 3481 2222 
L 1259 2222 
L 1259 531 
L 3634 531 
L 3634 0 
L 628 0 
L 628 4666 
z
" id="DejaVuSans-45" transform="scale(0.015625)"/>
      <path d="M 3425 4513 
L 3425 3897 
Q 3066 4069 2747 4153 
Q 2428 4238 2131 4238 
Q 1616 4238 1336 4038 
Q 1056 3838 1056 3469 
Q 1056 3159 1242 3001 
Q 1428 2844 1947 2747 
L 2328 2669 
Q 3034 2534 3370 2195 
Q 3706 1856 3706 1288 
Q 3706 609 3251 259 
Q 2797 -91 1919 -91 
Q 1588 -91 1214 -16 
Q 841 59 441 206 
L 441 856 
Q 825 641 1194 531 
Q 1563 422 1919 422 
Q 2459 422 2753 634 
Q 3047 847 3047 1241 
Q 3047 1584 2836 1778 
Q 2625 1972 2144 2069 
L 1759 2144 
Q 1053 2284 737 2584 
Q 422 2884 422 3419 
Q 422 4038 858 4394 
Q 1294 4750 2059 4750 
Q 2388 4750 2728 4690 
Q 3069 4631 3425 4513 
z
" id="DejaVuSans-53" transform="scale(0.015625)"/>
      <path d="M 628 4666 
L 3309 4666 
L 3309 4134 
L 1259 4134 
L 1259 2759 
L 3109 2759 
L 3109 2228 
L 1259 2228 
L 1259 0 
L 628 0 
L 628 4666 
z
" id="DejaVuSans-46" transform="scale(0.015625)"/>
      <path d="M 556 4666 
L 1191 4666 
L 1191 1831 
Q 1191 1081 1462 751 
Q 1734 422 2344 422 
Q 2950 422 3222 751 
Q 3494 1081 3494 1831 
L 3494 4666 
L 4128 4666 
L 4128 1753 
Q 4128 841 3676 375 
Q 3225 -91 2344 -91 
Q 1459 -91 1007 375 
Q 556 841 556 1753 
L 556 4666 
z
" id="DejaVuSans-55" transform="scale(0.015625)"/>
      <path d="M 628 4666 
L 1478 4666 
L 3547 763 
L 3547 4666 
L 4159 4666 
L 4159 0 
L 3309 0 
L 1241 3903 
L 1241 0 
L 628 0 
L 628 4666 
z
" id="DejaVuSans-4e" transform="scale(0.015625)"/>
      <path d="M 1259 4147 
L 1259 519 
L 2022 519 
Q 2988 519 3436 956 
Q 3884 1394 3884 2338 
Q 3884 3275 3436 3711 
Q 2988 4147 2022 4147 
L 1259 4147 
z
M 628 4666 
L 1925 4666 
Q 3281 4666 3915 4102 
Q 4550 3538 4550 2338 
Q 4550 1131 3912 565 
Q 3275 0 1925 0 
L 628 0 
L 628 4666 
z
" id="DejaVuSans-44" transform="scale(0.015625)"/>
     </defs>
     <use xlink:href="#DejaVuSans-54"/>
     <use x="61.083984" xlink:href="#DejaVuSans-45"/>
     <use x="124.267578" xlink:href="#DejaVuSans-53"/>
     <use x="187.744141" xlink:href="#DejaVuSans-54"/>
     <use x="248.828125" xlink:href="#DejaVuSans-46"/>
     <use x="306.347656" xlink:href="#DejaVuSans-55"/>
     <use x="379.541016" xlink:href="#DejaVuSans-4e"/>
     <use x="454.345703" xlink:href="#DejaVuSans-44"/>
     <use x="531.347656" xlink:href="#DejaVuSans-53"/>
     <use x="594.824219" xlink:href="#DejaVuSans-31"/>
     <use x="658.447266" xlink:href="#DejaVuSans-33"/>
     <use x="722.070312" xlink:href="#DejaVuSans-33"/>
     <use x="785.693359" xlink:href="#DejaVuSans-30"/>
    </g>
    <!-- daily_report -->
    <g transform="translate(200.466563 35.472)scale(0.12 -0.12)">
     <defs>
      <path d="M 603 3500 
L 1178 3500 
L 1178 0 
L 603 0 
L 603 3500 
z
M 603 4863 
L 1178 4863 
L 1178 4134 
L 603 4134 
L 603 4863 
z
" id="DejaVuSans-69" transform="scale(0.015625)"/>
      <path d="M 603 4863 
L 1178 4863 
L 1178 0 
L 603 0 
L 603 4863 
z
" id="DejaVuSans-6c" transform="scale(0.015625)"/>
      <path d="M 2059 -325 
Q 1816 -950 1584 -1140 
Q 1353 -1331 966 -1331 
L 506 -1331 
L 506 -850 
L 844 -850 
Q 1081 -850 1212 -737 
Q 1344 -625 1503 -206 
L 1606 56 
L 191 3500 
L 800 3500 
L 1894 763 
L 2988 3500 
L 3597 3500 
L 2059 -325 
z
" id="DejaVuSans-79" transform="scale(0.015625)"/>
      <path d="M 3263 -1063 
L 3263 -1509 
L -63 -1509 
L -63 -1063 
L 3263 -1063 
z
" id="DejaVuSans-5f" transform="scale(0.015625)"/>
      <path d="M 2631 2963 
Q 2534 3019 2420 3045 
Q 2306 3072 2169 3072 
Q 1681 3072 1420 2755 
Q 1159 2438 1159 1844 
L 1159 0 
L 581 0 
L 581 3500 
L 1159 3500 
L 1159 2956 
Q 1341 3275 1631 3429 
Q 1922 3584 2338 3584 
Q 2397 3584 2469 3576 
Q 2541 3569 2628 3553 
L 2631 2963 
z
" id="DejaVuSans-72" transform="scale(0.015625)"/>
      <path d="M 1159 525 
L 1159 -1331 
L 581 -1331 
L 581 3500 
L 1159 3500 
L 1159 2969 
Q 1341 3281 1617 3432 
Q 1894 3584 2278 3584 
Q 2916 3584 3314 3078 
Q 3713 2572 3713 1747 
Q 3713 922 3314 415 
Q 2916 -91 2278 -91 
Q 1894 -91 1617 61 
Q 1341 213 1159 525 
z
M 3116 1747 
Q 3116 2381 2855 2742 
Q 2594 3103 2138 3103 
Q 1681 3103 1420 2742 
Q 1159 2381 1159 1747 
Q 1159 1113 1420 752 
Q 1681 391 2138 391 
Q 2594 391 2855 752 
Q 3116 1113 3116 1747 
z
" id="DejaVuSans-70" transform="scale(0.015625)"/>
      <path d="M 1959 3097 
Q 1497 3097 1228 2736 
Q 959 2375 959 1747 
Q 959 1119 1226 758 
Q 1494 397 1959 397 
Q 2419 397 2687 759 
Q 2956 1122 2956 1747 
Q 2956 2369 2687 2733 
Q 2419 3097 1959 3097 
z
M 1959 3584 
Q 2709 3584 3137 3096 
Q 3566 2609 3566 1747 
Q 3566 888 3137 398 
Q 2709 -91 1959 -91 
Q 1206 -91 779 398 
Q 353 888 353 1747 
Q 353 2609 779 3096 
Q 1206 3584 1959 3584 
z
" id="DejaVuSans-6f" transform="scale(0.015625)"/>
     </defs>
     <use xlink:href="#DejaVuSans-64"/>
     <use x="63.476562" xlink:href="#DejaVuSans-61"/>
     <use x="124.755859" xlink:href="#DejaVuSans-69"/>
     <use x="152.539062" xlink:href="#DejaVuSans-6c"/>
     <use x="180.322266" xlink:href="#DejaVuSans-79"/>
     <use x="239.501953" xlink:href="#DejaVuSans-5f"/>
     <use x="289.501953" xlink:href="#DejaVuSans-72"/>
     <use x="328.365234" xlink:href="#DejaVuSans-65"/>
     <use x="389.888672" xlink:href="#DejaVuSans-70"/>
     <use x="453.365234" xlink:href="#DejaVuSans-6f"/>
     <use x="514.546875" xlink:href="#DejaVuSans-72"/>
     <use x="555.660156" xlink:href="#DejaVuSans-74"/>
    </g>
   </g>
   <g id="legend_1">
    <g id="patch_7">
     <path d="M 64.6 271.48 
L 155.792188 271.48 
Q 157.792188 271.48 157.792188 269.48 
L 157.792188 197.089375 
Q 157.792188 195.089375 155.792188 195.089375 
L 64.6 195.089375 
Q 62.6 195.089375 62.6 197.089375 
L 62.6 269.48 
Q 62.6 271.48 64.6 271.48 
z
" style="fill:#ffffff;opacity:0.8;stroke:#cccccc;stroke-linejoin:miter;"/>
    </g>
    <g id="line2d_25">
     <path d="M 66.6 203.187812 
L 86.6 203.187812 
" style="fill:none;stroke:#0000ff;stroke-linecap:square;stroke-opacity:0.9;stroke-width:2;"/>
    </g>
    <g id="line2d_26"/>
    <g id="text_22">
     <!-- alpaca -->
     <g transform="translate(94.6 206.687812)scale(0.1 -0.1)">
      <defs>
       <path d="M 3122 3366 
L 3122 2828 
Q 2878 2963 2633 3030 
Q 2388 3097 2138 3097 
Q 1578 3097 1268 2742 
Q 959 2388 959 1747 
Q 959 1106 1268 751 
Q 1578 397 2138 397 
Q 2388 397 2633 464 
Q 2878 531 3122 666 
L 3122 134 
Q 2881 22 2623 -34 
Q 2366 -91 2075 -91 
Q 1284 -91 818 406 
Q 353 903 353 1747 
Q 353 2603 823 3093 
Q 1294 3584 2113 3584 
Q 2378 3584 2631 3529 
Q 2884 3475 3122 3366 
z
" id="DejaVuSans-63" transform="scale(0.015625)"/>
      </defs>
      <use xlink:href="#DejaVuSans-61"/>
      <use x="61.279297" xlink:href="#DejaVuSans-6c"/>
      <use x="89.0625" xlink:href="#DejaVuSans-70"/>
      <use x="152.539062" xlink:href="#DejaVuSans-61"/>
      <use x="213.818359" xlink:href="#DejaVuSans-63"/>
      <use x="268.798828" xlink:href="#DejaVuSans-61"/>
     </g>
    </g>
    <g id="line2d_27">
     <path d="M 66.6 217.865937 
L 86.6 217.865937 
" style="fill:none;stroke:#ff0000;stroke-linecap:square;stroke-opacity:0.9;stroke-width:2;"/>
    </g>
    <g id="line2d_28"/>
    <g id="text_23">
     <!-- mattress -->
     <g transform="translate(94.6 221.365937)scale(0.1 -0.1)">
      <defs>
       <path d="M 3328 2828 
Q 3544 3216 3844 3400 
Q 4144 3584 4550 3584 
Q 5097 3584 5394 3201 
Q 5691 2819 5691 2113 
L 5691 0 
L 5113 0 
L 5113 2094 
Q 5113 2597 4934 2840 
Q 4756 3084 4391 3084 
Q 3944 3084 3684 2787 
Q 3425 2491 3425 1978 
L 3425 0 
L 2847 0 
L 2847 2094 
Q 2847 2600 2669 2842 
Q 2491 3084 2119 3084 
Q 1678 3084 1418 2786 
Q 1159 2488 1159 1978 
L 1159 0 
L 581 0 
L 581 3500 
L 1159 3500 
L 1159 2956 
Q 1356 3278 1631 3431 
Q 1906 3584 2284 3584 
Q 2666 3584 2933 3390 
Q 3200 3197 3328 2828 
z
" id="DejaVuSans-6d" transform="scale(0.015625)"/>
       <path d="M 2834 3397 
L 2834 2853 
Q 2591 2978 2328 3040 
Q 2066 3103 1784 3103 
Q 1356 3103 1142 2972 
Q 928 2841 928 2578 
Q 928 2378 1081 2264 
Q 1234 2150 1697 2047 
L 1894 2003 
Q 2506 1872 2764 1633 
Q 3022 1394 3022 966 
Q 3022 478 2636 193 
Q 2250 -91 1575 -91 
Q 1294 -91 989 -36 
Q 684 19 347 128 
L 347 722 
Q 666 556 975 473 
Q 1284 391 1588 391 
Q 1994 391 2212 530 
Q 2431 669 2431 922 
Q 2431 1156 2273 1281 
Q 2116 1406 1581 1522 
L 1381 1569 
Q 847 1681 609 1914 
Q 372 2147 372 2553 
Q 372 3047 722 3315 
Q 1072 3584 1716 3584 
Q 2034 3584 2315 3537 
Q 2597 3491 2834 3397 
z
" id="DejaVuSans-73" transform="scale(0.015625)"/>
      </defs>
      <use xlink:href="#DejaVuSans-6d"/>
      <use x="97.412109" xlink:href="#DejaVuSans-61"/>
      <use x="158.691406" xlink:href="#DejaVuSans-74"/>
      <use x="197.900391" xlink:href="#DejaVuSans-74"/>
      <use x="237.109375" xlink:href="#DejaVuSans-72"/>
      <use x="275.972656" xlink:href="#DejaVuSans-65"/>
      <use x="337.496094" xlink:href="#DejaVuSans-73"/>
      <use x="389.595703" xlink:href="#DejaVuSans-73"/>
     </g>
    </g>
    <g id="line2d_29">
     <path d="M 66.6 232.544062 
L 86.6 232.544062 
" style="fill:none;stroke:#ff8040;stroke-linecap:square;stroke-opacity:0.9;stroke-width:2;"/>
    </g>
    <g id="line2d_30"/>
    <g id="text_24">
     <!-- trader-0850 -->
     <g transform="translate(94.6 236.044062)scale(0.1 -0.1)">
      <use xlink:href="#DejaVuSans-74"/>
      <use x="39.208984" xlink:href="#DejaVuSans-72"/>
      <use x="80.322266" xlink:href="#DejaVuSans-61"/>
      <use x="141.601562" xlink:href="#DejaVuSans-64"/>
      <use x="205.078125" xlink:href="#DejaVuSans-65"/>
      <use x="266.601562" xlink:href="#DejaVuSans-72"/>
      <use x="301.339844" xlink:href="#DejaVuSans-2d"/>
      <use x="337.423828" xlink:href="#DejaVuSans-30"/>
      <use x="401.046875" xlink:href="#DejaVuSans-38"/>
      <use x="464.669922" xlink:href="#DejaVuSans-35"/>
      <use x="528.292969" xlink:href="#DejaVuSans-30"/>
     </g>
    </g>
    <g id="line2d_31">
     <path d="M 66.6 247.222187 
L 86.6 247.222187 
" style="fill:none;stroke:#0d0d0d;stroke-linecap:square;stroke-opacity:0.25;stroke-width:2;"/>
    </g>
    <g id="line2d_32"/>
    <g id="text_25">
     <!-- rando-min -->
     <g transform="translate(94.6 250.722187)scale(0.1 -0.1)">
      <defs>
       <path d="M 3513 2113 
L 3513 0 
L 2938 0 
L 2938 2094 
Q 2938 2591 2744 2837 
Q 2550 3084 2163 3084 
Q 1697 3084 1428 2787 
Q 1159 2491 1159 1978 
L 1159 0 
L 581 0 
L 581 3500 
L 1159 3500 
L 1159 2956 
Q 1366 3272 1645 3428 
Q 1925 3584 2291 3584 
Q 2894 3584 3203 3211 
Q 3513 2838 3513 2113 
z
" id="DejaVuSans-6e" transform="scale(0.015625)"/>
      </defs>
      <use xlink:href="#DejaVuSans-72"/>
      <use x="41.113281" xlink:href="#DejaVuSans-61"/>
      <use x="102.392578" xlink:href="#DejaVuSans-6e"/>
      <use x="165.771484" xlink:href="#DejaVuSans-64"/>
      <use x="229.248047" xlink:href="#DejaVuSans-6f"/>
      <use x="292.304688" xlink:href="#DejaVuSans-2d"/>
      <use x="328.388672" xlink:href="#DejaVuSans-6d"/>
      <use x="425.800781" xlink:href="#DejaVuSans-69"/>
      <use x="453.583984" xlink:href="#DejaVuSans-6e"/>
     </g>
    </g>
    <g id="line2d_33">
     <path d="M 66.6 261.900312 
L 86.6 261.900312 
" style="fill:none;stroke:#0d0d0d;stroke-linecap:square;stroke-opacity:0.25;stroke-width:2;"/>
    </g>
    <g id="line2d_34"/>
    <g id="text_26">
     <!-- rando-max -->
     <g transform="translate(94.6 265.400312)scale(0.1 -0.1)">
      <defs>
       <path d="M 3513 3500 
L 2247 1797 
L 3578 0 
L 2900 0 
L 1881 1375 
L 863 0 
L 184 0 
L 1544 1831 
L 300 3500 
L 978 3500 
L 1906 2253 
L 2834 3500 
L 3513 3500 
z
" id="DejaVuSans-78" transform="scale(0.015625)"/>
      </defs>
      <use xlink:href="#DejaVuSans-72"/>
      <use x="41.113281" xlink:href="#DejaVuSans-61"/>
      <use x="102.392578" xlink:href="#DejaVuSans-6e"/>
      <use x="165.771484" xlink:href="#DejaVuSans-64"/>
      <use x="229.248047" xlink:href="#DejaVuSans-6f"/>
      <use x="292.304688" xlink:href="#DejaVuSans-2d"/>
      <use x="328.388672" xlink:href="#DejaVuSans-6d"/>
      <use x="425.800781" xlink:href="#DejaVuSans-61"/>
      <use x="487.080078" xlink:href="#DejaVuSans-78"/>
     </g>
    </g>
   </g>
  </g>
 </g>
 <defs>
  <clipPath id="pefe76ed67e">
   <rect height="235.008" width="357.12" x="57.6" y="41.472"/>
  </clipPath>
 </defs>
</svg>
