<?xml version="1.0" encoding="utf-8" standalone="no"?>
<!DOCTYPE svg PUBLIC "-//W3C//DTD SVG 1.1//EN"
  "http://www.w3.org/Graphics/SVG/1.1/DTD/svg11.dtd">
<svg height="345.6pt" version="1.1" viewBox="0 0 460.8 345.6" width="460.8pt" xmlns="http://www.w3.org/2000/svg" xmlns:xlink="http://www.w3.org/1999/xlink">
 <metadata>
  <rdf:RDF xmlns:cc="http://creativecommons.org/ns#" xmlns:dc="http://purl.org/dc/elements/1.1/" xmlns:rdf="http://www.w3.org/1999/02/22-rdf-syntax-ns#">
   <cc:Work>
    <dc:type rdf:resource="http://purl.org/dc/dcmitype/StillImage"/>
    <dc:date>2022-04-20T01:01:33.082057</dc:date>
    <dc:format>image/svg+xml</dc:format>
    <dc:creator>
     <cc:Agent>
      <dc:title>Matplotlib v3.4.3, https://matplotlib.org/</dc:title>
     </cc:Agent>
    </dc:creator>
   </cc:Work>
  </rdf:RDF>
 </metadata>
 <defs>
  <style type="text/css">*{stroke-linecap:butt;stroke-linejoin:round;}</style>
 </defs>
 <g id="figure_1">
  <g id="patch_1">
   <path d="M 0 345.6 
L 460.8 345.6 
L 460.8 0 
L 0 0 
z
" style="fill:#ffffff;"/>
  </g>
  <g id="axes_1">
   <g id="patch_2">
    <path d="M 57.6 276.48 
L 414.72 276.48 
L 414.72 41.472 
L 57.6 41.472 
z
" style="fill:#ffffff;"/>
   </g>
   <g id="matplotlib.axis_1">
    <g id="xtick_1">
     <g id="line2d_1">
      <defs>
       <path d="M 0 0 
L 0 3.5 
" id="m869f3049df" style="stroke:#000000;stroke-width:0.8;"/>
      </defs>
      <g>
       <use style="stroke:#000000;stroke-width:0.8;" x="86.058212" xlink:href="#m869f3049df" y="276.48"/>
      </g>
     </g>
     <g id="text_1">
      <!-- 2021-09 -->
      <g transform="translate(48.833391 310.951846)rotate(-30)scale(0.1 -0.1)">
       <defs>
        <path d="M 1228 531 
L 3431 531 
L 3431 0 
L 469 0 
L 469 531 
Q 828 903 1448 1529 
Q 2069 2156 2228 2338 
Q 2531 2678 2651 2914 
Q 2772 3150 2772 3378 
Q 2772 3750 2511 3984 
Q 2250 4219 1831 4219 
Q 1534 4219 1204 4116 
Q 875 4013 500 3803 
L 500 4441 
Q 881 4594 1212 4672 
Q 1544 4750 1819 4750 
Q 2544 4750 2975 4387 
Q 3406 4025 3406 3419 
Q 3406 3131 3298 2873 
Q 3191 2616 2906 2266 
Q 2828 2175 2409 1742 
Q 1991 1309 1228 531 
z
" id="DejaVuSans-32" transform="scale(0.015625)"/>
        <path d="M 2034 4250 
Q 1547 4250 1301 3770 
Q 1056 3291 1056 2328 
Q 1056 1369 1301 889 
Q 1547 409 2034 409 
Q 2525 409 2770 889 
Q 3016 1369 3016 2328 
Q 3016 3291 2770 3770 
Q 2525 4250 2034 4250 
z
M 2034 4750 
Q 2819 4750 3233 4129 
Q 3647 3509 3647 2328 
Q 3647 1150 3233 529 
Q 2819 -91 2034 -91 
Q 1250 -91 836 529 
Q 422 1150 422 2328 
Q 422 3509 836 4129 
Q 1250 4750 2034 4750 
z
" id="DejaVuSans-30" transform="scale(0.015625)"/>
        <path d="M 794 531 
L 1825 531 
L 1825 4091 
L 703 3866 
L 703 4441 
L 1819 4666 
L 2450 4666 
L 2450 531 
L 3481 531 
L 3481 0 
L 794 0 
L 794 531 
z
" id="DejaVuSans-31" transform="scale(0.015625)"/>
        <path d="M 313 2009 
L 1997 2009 
L 1997 1497 
L 313 1497 
L 313 2009 
z
" id="DejaVuSans-2d" transform="scale(0.015625)"/>
        <path d="M 703 97 
L 703 672 
Q 941 559 1184 500 
Q 1428 441 1663 441 
Q 2288 441 2617 861 
Q 2947 1281 2994 2138 
Q 2813 1869 2534 1725 
Q 2256 1581 1919 1581 
Q 1219 1581 811 2004 
Q 403 2428 403 3163 
Q 403 3881 828 4315 
Q 1253 4750 1959 4750 
Q 2769 4750 3195 4129 
Q 3622 3509 3622 2328 
Q 3622 1225 3098 567 
Q 2575 -91 1691 -91 
Q 1453 -91 1209 -44 
Q 966 3 703 97 
z
M 1959 2075 
Q 2384 2075 2632 2365 
Q 2881 2656 2881 3163 
Q 2881 3666 2632 3958 
Q 2384 4250 1959 4250 
Q 1534 4250 1286 3958 
Q 1038 3666 1038 3163 
Q 1038 2656 1286 2365 
Q 1534 2075 1959 2075 
z
" id="DejaVuSans-39" transform="scale(0.015625)"/>
       </defs>
       <use xlink:href="#DejaVuSans-32"/>
       <use x="63.623047" xlink:href="#DejaVuSans-30"/>
       <use x="127.246094" xlink:href="#DejaVuSans-32"/>
       <use x="190.869141" xlink:href="#DejaVuSans-31"/>
       <use x="254.492188" xlink:href="#DejaVuSans-2d"/>
       <use x="290.576172" xlink:href="#DejaVuSans-30"/>
       <use x="354.199219" xlink:href="#DejaVuSans-39"/>
      </g>
     </g>
    </g>
    <g id="xtick_2">
     <g id="line2d_2">
      <g>
       <use style="stroke:#000000;stroke-width:0.8;" x="126.809829" xlink:href="#m869f3049df" y="276.48"/>
      </g>
     </g>
     <g id="text_2">
      <!-- 2021-10 -->
      <g transform="translate(89.585008 310.951846)rotate(-30)scale(0.1 -0.1)">
       <use xlink:href="#DejaVuSans-32"/>
       <use x="63.623047" xlink:href="#DejaVuSans-30"/>
       <use x="127.246094" xlink:href="#DejaVuSans-32"/>
       <use x="190.869141" xlink:href="#DejaVuSans-31"/>
       <use x="254.492188" xlink:href="#DejaVuSans-2d"/>
       <use x="290.576172" xlink:href="#DejaVuSans-31"/>
       <use x="354.199219" xlink:href="#DejaVuSans-30"/>
      </g>
     </g>
    </g>
    <g id="xtick_3">
     <g id="line2d_3">
      <g>
       <use style="stroke:#000000;stroke-width:0.8;" x="168.919833" xlink:href="#m869f3049df" y="276.48"/>
      </g>
     </g>
     <g id="text_3">
      <!-- 2021-11 -->
      <g transform="translate(131.695012 310.951846)rotate(-30)scale(0.1 -0.1)">
       <use xlink:href="#DejaVuSans-32"/>
       <use x="63.623047" xlink:href="#DejaVuSans-30"/>
       <use x="127.246094" xlink:href="#DejaVuSans-32"/>
       <use x="190.869141" xlink:href="#DejaVuSans-31"/>
       <use x="254.492188" xlink:href="#DejaVuSans-2d"/>
       <use x="290.576172" xlink:href="#DejaVuSans-31"/>
       <use x="354.199219" xlink:href="#DejaVuSans-31"/>
      </g>
     </g>
    </g>
    <g id="xtick_4">
     <g id="line2d_4">
      <g>
       <use style="stroke:#000000;stroke-width:0.8;" x="209.671449" xlink:href="#m869f3049df" y="276.48"/>
      </g>
     </g>
     <g id="text_4">
      <!-- 2021-12 -->
      <g transform="translate(172.446628 310.951846)rotate(-30)scale(0.1 -0.1)">
       <use xlink:href="#DejaVuSans-32"/>
       <use x="63.623047" xlink:href="#DejaVuSans-30"/>
       <use x="127.246094" xlink:href="#DejaVuSans-32"/>
       <use x="190.869141" xlink:href="#DejaVuSans-31"/>
       <use x="254.492188" xlink:href="#DejaVuSans-2d"/>
       <use x="290.576172" xlink:href="#DejaVuSans-31"/>
       <use x="354.199219" xlink:href="#DejaVuSans-32"/>
      </g>
     </g>
    </g>
    <g id="xtick_5">
     <g id="line2d_5">
      <g>
       <use style="stroke:#000000;stroke-width:0.8;" x="251.781453" xlink:href="#m869f3049df" y="276.48"/>
      </g>
     </g>
     <g id="text_5">
      <!-- 2022-01 -->
      <g transform="translate(214.556632 310.951846)rotate(-30)scale(0.1 -0.1)">
       <use xlink:href="#DejaVuSans-32"/>
       <use x="63.623047" xlink:href="#DejaVuSans-30"/>
       <use x="127.246094" xlink:href="#DejaVuSans-32"/>
       <use x="190.869141" xlink:href="#DejaVuSans-32"/>
       <use x="254.492188" xlink:href="#DejaVuSans-2d"/>
       <use x="290.576172" xlink:href="#DejaVuSans-30"/>
       <use x="354.199219" xlink:href="#DejaVuSans-31"/>
      </g>
     </g>
    </g>
    <g id="xtick_6">
     <g id="line2d_6">
      <g>
       <use style="stroke:#000000;stroke-width:0.8;" x="293.891457" xlink:href="#m869f3049df" y="276.48"/>
      </g>
     </g>
     <g id="text_6">
      <!-- 2022-02 -->
      <g transform="translate(256.666636 310.951846)rotate(-30)scale(0.1 -0.1)">
       <use xlink:href="#DejaVuSans-32"/>
       <use x="63.623047" xlink:href="#DejaVuSans-30"/>
       <use x="127.246094" xlink:href="#DejaVuSans-32"/>
       <use x="190.869141" xlink:href="#DejaVuSans-32"/>
       <use x="254.492188" xlink:href="#DejaVuSans-2d"/>
       <use x="290.576172" xlink:href="#DejaVuSans-30"/>
       <use x="354.199219" xlink:href="#DejaVuSans-32"/>
      </g>
     </g>
    </g>
    <g id="xtick_7">
     <g id="line2d_7">
      <g>
       <use style="stroke:#000000;stroke-width:0.8;" x="331.926299" xlink:href="#m869f3049df" y="276.48"/>
      </g>
     </g>
     <g id="text_7">
      <!-- 2022-03 -->
      <g transform="translate(294.701478 310.951846)rotate(-30)scale(0.1 -0.1)">
       <defs>
        <path d="M 2597 2516 
Q 3050 2419 3304 2112 
Q 3559 1806 3559 1356 
Q 3559 666 3084 287 
Q 2609 -91 1734 -91 
Q 1441 -91 1130 -33 
Q 819 25 488 141 
L 488 750 
Q 750 597 1062 519 
Q 1375 441 1716 441 
Q 2309 441 2620 675 
Q 2931 909 2931 1356 
Q 2931 1769 2642 2001 
Q 2353 2234 1838 2234 
L 1294 2234 
L 1294 2753 
L 1863 2753 
Q 2328 2753 2575 2939 
Q 2822 3125 2822 3475 
Q 2822 3834 2567 4026 
Q 2313 4219 1838 4219 
Q 1578 4219 1281 4162 
Q 984 4106 628 3988 
L 628 4550 
Q 988 4650 1302 4700 
Q 1616 4750 1894 4750 
Q 2613 4750 3031 4423 
Q 3450 4097 3450 3541 
Q 3450 3153 3228 2886 
Q 3006 2619 2597 2516 
z
" id="DejaVuSans-33" transform="scale(0.015625)"/>
       </defs>
       <use xlink:href="#DejaVuSans-32"/>
       <use x="63.623047" xlink:href="#DejaVuSans-30"/>
       <use x="127.246094" xlink:href="#DejaVuSans-32"/>
       <use x="190.869141" xlink:href="#DejaVuSans-32"/>
       <use x="254.492188" xlink:href="#DejaVuSans-2d"/>
       <use x="290.576172" xlink:href="#DejaVuSans-30"/>
       <use x="354.199219" xlink:href="#DejaVuSans-33"/>
      </g>
     </g>
    </g>
    <g id="xtick_8">
     <g id="line2d_8">
      <g>
       <use style="stroke:#000000;stroke-width:0.8;" x="374.036303" xlink:href="#m869f3049df" y="276.48"/>
      </g>
     </g>
     <g id="text_8">
      <!-- 2022-04 -->
      <g transform="translate(336.811482 310.951846)rotate(-30)scale(0.1 -0.1)">
       <defs>
        <path d="M 2419 4116 
L 825 1625 
L 2419 1625 
L 2419 4116 
z
M 2253 4666 
L 3047 4666 
L 3047 1625 
L 3713 1625 
L 3713 1100 
L 3047 1100 
L 3047 0 
L 2419 0 
L 2419 1100 
L 313 1100 
L 313 1709 
L 2253 4666 
z
" id="DejaVuSans-34" transform="scale(0.015625)"/>
       </defs>
       <use xlink:href="#DejaVuSans-32"/>
       <use x="63.623047" xlink:href="#DejaVuSans-30"/>
       <use x="127.246094" xlink:href="#DejaVuSans-32"/>
       <use x="190.869141" xlink:href="#DejaVuSans-32"/>
       <use x="254.492188" xlink:href="#DejaVuSans-2d"/>
       <use x="290.576172" xlink:href="#DejaVuSans-30"/>
       <use x="354.199219" xlink:href="#DejaVuSans-34"/>
      </g>
     </g>
    </g>
    <g id="text_9">
     <!-- date -->
     <g transform="translate(224.885 324.351346)scale(0.1 -0.1)">
      <defs>
       <path d="M 2906 2969 
L 2906 4863 
L 3481 4863 
L 3481 0 
L 2906 0 
L 2906 525 
Q 2725 213 2448 61 
Q 2172 -91 1784 -91 
Q 1150 -91 751 415 
Q 353 922 353 1747 
Q 353 2572 751 3078 
Q 1150 3584 1784 3584 
Q 2172 3584 2448 3432 
Q 2725 3281 2906 2969 
z
M 947 1747 
Q 947 1113 1208 752 
Q 1469 391 1925 391 
Q 2381 391 2643 752 
Q 2906 1113 2906 1747 
Q 2906 2381 2643 2742 
Q 2381 3103 1925 3103 
Q 1469 3103 1208 2742 
Q 947 2381 947 1747 
z
" id="DejaVuSans-64" transform="scale(0.015625)"/>
       <path d="M 2194 1759 
Q 1497 1759 1228 1600 
Q 959 1441 959 1056 
Q 959 750 1161 570 
Q 1363 391 1709 391 
Q 2188 391 2477 730 
Q 2766 1069 2766 1631 
L 2766 1759 
L 2194 1759 
z
M 3341 1997 
L 3341 0 
L 2766 0 
L 2766 531 
Q 2569 213 2275 61 
Q 1981 -91 1556 -91 
Q 1019 -91 701 211 
Q 384 513 384 1019 
Q 384 1609 779 1909 
Q 1175 2209 1959 2209 
L 2766 2209 
L 2766 2266 
Q 2766 2663 2505 2880 
Q 2244 3097 1772 3097 
Q 1472 3097 1187 3025 
Q 903 2953 641 2809 
L 641 3341 
Q 956 3463 1253 3523 
Q 1550 3584 1831 3584 
Q 2591 3584 2966 3190 
Q 3341 2797 3341 1997 
z
" id="DejaVuSans-61" transform="scale(0.015625)"/>
       <path d="M 1172 4494 
L 1172 3500 
L 2356 3500 
L 2356 3053 
L 1172 3053 
L 1172 1153 
Q 1172 725 1289 603 
Q 1406 481 1766 481 
L 2356 481 
L 2356 0 
L 1766 0 
Q 1100 0 847 248 
Q 594 497 594 1153 
L 594 3053 
L 172 3053 
L 172 3500 
L 594 3500 
L 594 4494 
L 1172 4494 
z
" id="DejaVuSans-74" transform="scale(0.015625)"/>
       <path d="M 3597 1894 
L 3597 1613 
L 953 1613 
Q 991 1019 1311 708 
Q 1631 397 2203 397 
Q 2534 397 2845 478 
Q 3156 559 3463 722 
L 3463 178 
Q 3153 47 2828 -22 
Q 2503 -91 2169 -91 
Q 1331 -91 842 396 
Q 353 884 353 1716 
Q 353 2575 817 3079 
Q 1281 3584 2069 3584 
Q 2775 3584 3186 3129 
Q 3597 2675 3597 1894 
z
M 3022 2063 
Q 3016 2534 2758 2815 
Q 2500 3097 2075 3097 
Q 1594 3097 1305 2825 
Q 1016 2553 972 2059 
L 3022 2063 
z
" id="DejaVuSans-65" transform="scale(0.015625)"/>
      </defs>
      <use xlink:href="#DejaVuSans-64"/>
      <use x="63.476562" xlink:href="#DejaVuSans-61"/>
      <use x="124.755859" xlink:href="#DejaVuSans-74"/>
      <use x="163.964844" xlink:href="#DejaVuSans-65"/>
     </g>
    </g>
   </g>
   <g id="matplotlib.axis_2">
    <g id="ytick_1">
     <g id="line2d_9">
      <defs>
       <path d="M 0 0 
L -3.5 0 
" id="m83166db948" style="stroke:#000000;stroke-width:0.8;"/>
      </defs>
      <g>
       <use style="stroke:#000000;stroke-width:0.8;" x="57.6" xlink:href="#m83166db948" y="274.823424"/>
      </g>
     </g>
     <g id="text_10">
      <!-- 80000 -->
      <g transform="translate(18.7875 278.622642)scale(0.1 -0.1)">
       <defs>
        <path d="M 2034 2216 
Q 1584 2216 1326 1975 
Q 1069 1734 1069 1313 
Q 1069 891 1326 650 
Q 1584 409 2034 409 
Q 2484 409 2743 651 
Q 3003 894 3003 1313 
Q 3003 1734 2745 1975 
Q 2488 2216 2034 2216 
z
M 1403 2484 
Q 997 2584 770 2862 
Q 544 3141 544 3541 
Q 544 4100 942 4425 
Q 1341 4750 2034 4750 
Q 2731 4750 3128 4425 
Q 3525 4100 3525 3541 
Q 3525 3141 3298 2862 
Q 3072 2584 2669 2484 
Q 3125 2378 3379 2068 
Q 3634 1759 3634 1313 
Q 3634 634 3220 271 
Q 2806 -91 2034 -91 
Q 1263 -91 848 271 
Q 434 634 434 1313 
Q 434 1759 690 2068 
Q 947 2378 1403 2484 
z
M 1172 3481 
Q 1172 3119 1398 2916 
Q 1625 2713 2034 2713 
Q 2441 2713 2670 2916 
Q 2900 3119 2900 3481 
Q 2900 3844 2670 4047 
Q 2441 4250 2034 4250 
Q 1625 4250 1398 4047 
Q 1172 3844 1172 3481 
z
" id="DejaVuSans-38" transform="scale(0.015625)"/>
       </defs>
       <use xlink:href="#DejaVuSans-38"/>
       <use x="63.623047" xlink:href="#DejaVuSans-30"/>
       <use x="127.246094" xlink:href="#DejaVuSans-30"/>
       <use x="190.869141" xlink:href="#DejaVuSans-30"/>
       <use x="254.492188" xlink:href="#DejaVuSans-30"/>
      </g>
     </g>
    </g>
    <g id="ytick_2">
     <g id="line2d_10">
      <g>
       <use style="stroke:#000000;stroke-width:0.8;" x="57.6" xlink:href="#m83166db948" y="242.730067"/>
      </g>
     </g>
     <g id="text_11">
      <!-- 85000 -->
      <g transform="translate(18.7875 246.529286)scale(0.1 -0.1)">
       <defs>
        <path d="M 691 4666 
L 3169 4666 
L 3169 4134 
L 1269 4134 
L 1269 2991 
Q 1406 3038 1543 3061 
Q 1681 3084 1819 3084 
Q 2600 3084 3056 2656 
Q 3513 2228 3513 1497 
Q 3513 744 3044 326 
Q 2575 -91 1722 -91 
Q 1428 -91 1123 -41 
Q 819 9 494 109 
L 494 744 
Q 775 591 1075 516 
Q 1375 441 1709 441 
Q 2250 441 2565 725 
Q 2881 1009 2881 1497 
Q 2881 1984 2565 2268 
Q 2250 2553 1709 2553 
Q 1456 2553 1204 2497 
Q 953 2441 691 2322 
L 691 4666 
z
" id="DejaVuSans-35" transform="scale(0.015625)"/>
       </defs>
       <use xlink:href="#DejaVuSans-38"/>
       <use x="63.623047" xlink:href="#DejaVuSans-35"/>
       <use x="127.246094" xlink:href="#DejaVuSans-30"/>
       <use x="190.869141" xlink:href="#DejaVuSans-30"/>
       <use x="254.492188" xlink:href="#DejaVuSans-30"/>
      </g>
     </g>
    </g>
    <g id="ytick_3">
     <g id="line2d_11">
      <g>
       <use style="stroke:#000000;stroke-width:0.8;" x="57.6" xlink:href="#m83166db948" y="210.636711"/>
      </g>
     </g>
     <g id="text_12">
      <!-- 90000 -->
      <g transform="translate(18.7875 214.43593)scale(0.1 -0.1)">
       <use xlink:href="#DejaVuSans-39"/>
       <use x="63.623047" xlink:href="#DejaVuSans-30"/>
       <use x="127.246094" xlink:href="#DejaVuSans-30"/>
       <use x="190.869141" xlink:href="#DejaVuSans-30"/>
       <use x="254.492188" xlink:href="#DejaVuSans-30"/>
      </g>
     </g>
    </g>
    <g id="ytick_4">
     <g id="line2d_12">
      <g>
       <use style="stroke:#000000;stroke-width:0.8;" x="57.6" xlink:href="#m83166db948" y="178.543355"/>
      </g>
     </g>
     <g id="text_13">
      <!-- 95000 -->
      <g transform="translate(18.7875 182.342573)scale(0.1 -0.1)">
       <use xlink:href="#DejaVuSans-39"/>
       <use x="63.623047" xlink:href="#DejaVuSans-35"/>
       <use x="127.246094" xlink:href="#DejaVuSans-30"/>
       <use x="190.869141" xlink:href="#DejaVuSans-30"/>
       <use x="254.492188" xlink:href="#DejaVuSans-30"/>
      </g>
     </g>
    </g>
    <g id="ytick_5">
     <g id="line2d_13">
      <g>
       <use style="stroke:#000000;stroke-width:0.8;" x="57.6" xlink:href="#m83166db948" y="146.449998"/>
      </g>
     </g>
     <g id="text_14">
      <!-- 100000 -->
      <g transform="translate(12.425 150.249217)scale(0.1 -0.1)">
       <use xlink:href="#DejaVuSans-31"/>
       <use x="63.623047" xlink:href="#DejaVuSans-30"/>
       <use x="127.246094" xlink:href="#DejaVuSans-30"/>
       <use x="190.869141" xlink:href="#DejaVuSans-30"/>
       <use x="254.492188" xlink:href="#DejaVuSans-30"/>
       <use x="318.115234" xlink:href="#DejaVuSans-30"/>
      </g>
     </g>
    </g>
    <g id="ytick_6">
     <g id="line2d_14">
      <g>
       <use style="stroke:#000000;stroke-width:0.8;" x="57.6" xlink:href="#m83166db948" y="114.356642"/>
      </g>
     </g>
     <g id="text_15">
      <!-- 105000 -->
      <g transform="translate(12.425 118.155861)scale(0.1 -0.1)">
       <use xlink:href="#DejaVuSans-31"/>
       <use x="63.623047" xlink:href="#DejaVuSans-30"/>
       <use x="127.246094" xlink:href="#DejaVuSans-35"/>
       <use x="190.869141" xlink:href="#DejaVuSans-30"/>
       <use x="254.492188" xlink:href="#DejaVuSans-30"/>
       <use x="318.115234" xlink:href="#DejaVuSans-30"/>
      </g>
     </g>
    </g>
    <g id="ytick_7">
     <g id="line2d_15">
      <g>
       <use style="stroke:#000000;stroke-width:0.8;" x="57.6" xlink:href="#m83166db948" y="82.263286"/>
      </g>
     </g>
     <g id="text_16">
      <!-- 110000 -->
      <g transform="translate(12.425 86.062504)scale(0.1 -0.1)">
       <use xlink:href="#DejaVuSans-31"/>
       <use x="63.623047" xlink:href="#DejaVuSans-31"/>
       <use x="127.246094" xlink:href="#DejaVuSans-30"/>
       <use x="190.869141" xlink:href="#DejaVuSans-30"/>
       <use x="254.492188" xlink:href="#DejaVuSans-30"/>
       <use x="318.115234" xlink:href="#DejaVuSans-30"/>
      </g>
     </g>
    </g>
    <g id="ytick_8">
     <g id="line2d_16">
      <g>
       <use style="stroke:#000000;stroke-width:0.8;" x="57.6" xlink:href="#m83166db948" y="50.169929"/>
      </g>
     </g>
     <g id="text_17">
      <!-- 115000 -->
      <g transform="translate(12.425 53.969148)scale(0.1 -0.1)">
       <use xlink:href="#DejaVuSans-31"/>
       <use x="63.623047" xlink:href="#DejaVuSans-31"/>
       <use x="127.246094" xlink:href="#DejaVuSans-35"/>
       <use x="190.869141" xlink:href="#DejaVuSans-30"/>
       <use x="254.492188" xlink:href="#DejaVuSans-30"/>
       <use x="318.115234" xlink:href="#DejaVuSans-30"/>
      </g>
     </g>
    </g>
   </g>
   <g id="line2d_17">
    <path clip-path="url(#pd395ef5f1c)" d="M 73.832727 146.449998 
L 75.191114 144.766801 
L 76.549502 142.303395 
L 77.907889 145.934543 
L 79.266276 139.61289 
L 83.341438 135.944832 
L 84.699825 134.056697 
L 86.058212 136.053907 
L 87.416599 135.510137 
L 88.774987 135.407608 
L 94.208536 135.842145 
L 95.566923 136.769141 
L 96.92531 139.047122 
L 98.283697 144.820286 
L 102.358859 139.723403 
L 103.717246 148.814031 
L 105.075633 144.251096 
L 106.434021 145.410901 
L 107.792408 151.508608 
L 111.867569 163.038846 
L 113.225957 164.059908 
L 114.584344 159.176018 
L 115.942731 149.428098 
L 117.301118 143.835571 
L 121.37628 139.42284 
L 122.734667 153.305761 
L 124.093054 152.234904 
L 125.451442 157.027073 
L 126.809829 147.325408 
L 130.88499 159.392023 
L 132.243378 149.629685 
L 133.601765 147.422244 
L 134.960152 147.257168 
L 136.318539 146.785824 
L 140.393701 145.809576 
L 141.752088 145.048958 
L 143.110475 153.710747 
L 144.468863 140.824552 
L 145.82725 139.710575 
L 149.902412 134.816761 
L 151.260799 128.126619 
L 152.619186 125.734383 
L 153.977573 137.781513 
L 155.33596 146.709253 
L 159.411122 145.966528 
L 160.769509 150.851139 
L 162.127897 153.102224 
L 163.486284 145.018262 
L 164.844671 153.569039 
L 168.919833 140.342568 
L 170.27822 139.999456 
L 171.636607 133.827774 
L 172.994994 141.35083 
L 174.353382 137.003351 
L 178.428543 136.009445 
L 179.78693 144.333183 
L 181.145318 143.991088 
L 182.503705 149.313079 
L 183.862092 144.239948 
L 187.937254 142.19396 
L 189.295641 142.494093 
L 190.654028 146.02397 
L 192.012415 147.775862 
L 193.370803 148.532547 
L 197.445964 144.341207 
L 198.804351 139.023479 
L 200.162739 139.407921 
L 202.879513 139.750035 
L 206.954675 145.21565 
L 208.313062 157.746674 
L 209.671449 166.814874 
L 211.029836 158.817405 
L 212.388224 163.132964 
L 216.463385 151.546533 
L 217.821773 140.075351 
L 219.18016 135.339712 
L 220.538547 134.96931 
L 221.896934 132.641634 
L 225.972096 139.452523 
L 228.68887 132.879946 
L 230.047258 129.216204 
L 231.405645 136.708955 
L 235.480806 145.71729 
L 236.839194 130.452359 
L 238.197581 127.202796 
L 239.555968 121.798574 
L 244.989517 112.910026 
L 246.347904 113.82157 
L 247.706291 113.38 
L 249.064679 114.605797 
L 250.423066 118.004265 
L 254.498227 107.443072 
L 255.856615 99.188069 
L 257.215002 117.308216 
L 258.573389 111.542268 
L 259.931776 110.091828 
L 264.006938 109.777911 
L 265.365325 103.823289 
L 266.723712 102.844402 
L 268.0821 110.790879 
L 269.440487 109.042453 
L 274.874036 123.553622 
L 276.232423 127.956822 
L 277.59081 135.044379 
L 278.949197 150.125421 
L 283.024359 149.433823 
L 284.382746 157.318183 
L 285.741134 157.092017 
L 287.099521 160.909678 
L 288.457908 145.1394 
L 292.53307 131.119566 
L 293.891457 125.427675 
L 295.249844 113.378967 
L 296.608231 155.975569 
L 297.966618 155.243904 
L 302.04178 166.024566 
L 303.400167 167.361847 
L 304.758555 154.014902 
L 306.116942 165.067696 
L 307.475329 178.958349 
L 311.550491 183.198692 
L 312.908878 175.869197 
L 314.267265 179.01919 
L 315.625652 190.232532 
L 316.98404 194.613706 
L 322.417588 200.85867 
L 323.775976 209.046293 
L 325.134363 195.691353 
L 326.49275 184.44141 
L 330.567912 187.367263 
L 331.926299 197.371411 
L 333.284686 185.156196 
L 334.643073 187.538624 
L 336.001461 195.457821 
L 340.076622 220.002567 
L 341.43501 219.781513 
L 342.793397 195.563342 
L 344.151784 203.563197 
L 345.510171 213.000003 
L 349.585333 214.254756 
L 350.94372 203.155462 
L 352.302107 184.592828 
L 353.660494 177.977597 
L 355.018882 167.329854 
L 359.094043 170.08029 
L 360.452431 158.436274 
L 361.810818 165.051019 
L 363.169205 155.361376 
L 364.527592 149.236018 
L 368.602754 147.252726 
L 369.961141 141.752262 
L 371.319528 144.768594 
L 372.677916 159.186361 
L 374.036303 157.605268 
L 378.111464 150.260911 
L 379.469852 157.262659 
L 380.828239 166.758736 
L 382.186626 167.687273 
L 383.545013 168.753321 
L 387.620175 179.716598 
L 388.978562 184.030779 
L 390.336949 181.520698 
L 391.695337 192.663773 
L 397.128886 187.256145 
L 398.487273 183.664169 
L 398.487273 183.664169 
" style="fill:none;stroke:#0000ff;stroke-linecap:square;stroke-opacity:0.9;stroke-width:2;"/>
   </g>
   <g id="line2d_18">
    <path clip-path="url(#pd395ef5f1c)" d="M 73.832727 146.449998 
L 76.549502 139.88334 
L 77.907889 143.690489 
L 79.266276 136.057908 
L 83.341438 134.006046 
L 84.699825 133.161747 
L 86.058212 133.091211 
L 87.416599 134.52158 
L 88.774987 133.911607 
L 94.208536 133.021811 
L 95.566923 135.626263 
L 96.92531 136.639209 
L 98.283697 143.403869 
L 102.358859 139.04104 
L 103.717246 144.975454 
L 105.075633 141.71958 
L 106.434021 144.054744 
L 107.792408 152.212335 
L 111.867569 162.709858 
L 113.225957 162.606089 
L 114.584344 158.707471 
L 115.942731 150.732267 
L 117.301118 145.806016 
L 121.37628 141.829635 
L 122.734667 154.540484 
L 124.093054 153.458939 
L 125.451442 160.126025 
L 126.809829 150.549934 
L 130.88499 157.547518 
L 132.243378 148.515766 
L 133.601765 146.762549 
L 134.960152 145.196674 
L 136.318539 142.113657 
L 140.393701 145.826616 
L 141.752088 150.480377 
L 143.110475 152.6218 
L 144.468863 137.174115 
L 145.82725 132.719923 
L 149.902412 131.106231 
L 151.260799 125.024726 
L 152.619186 121.780075 
L 153.977573 130.447641 
L 155.33596 133.43717 
L 159.411122 135.439471 
L 162.127897 142.756797 
L 163.486284 133.785816 
L 164.844671 132.642824 
L 168.919833 132.290189 
L 170.27822 129.701284 
L 171.636607 124.571875 
L 172.994994 125.807964 
L 174.353382 125.968308 
L 178.428543 125.22589 
L 179.78693 130.106834 
L 181.145318 133.553552 
L 182.503705 133.279939 
L 183.862092 128.974408 
L 187.937254 127.801734 
L 189.295641 129.059861 
L 190.654028 129.889737 
L 192.012415 129.742109 
L 193.370803 132.047358 
L 197.445964 129.193519 
L 198.804351 122.729897 
L 200.162739 122.382729 
L 202.879513 139.633617 
L 206.954675 132.755999 
L 208.313062 146.408234 
L 209.671449 153.69142 
L 211.029836 145.241821 
L 212.388224 150.197286 
L 216.463385 140.281199 
L 217.821773 129.577161 
L 219.18016 125.587156 
L 220.538547 126.43371 
L 221.896934 121.703631 
L 225.972096 128.425374 
L 227.330483 128.292409 
L 228.68887 123.451279 
L 230.047258 123.027998 
L 231.405645 131.793609 
L 235.480806 139.276194 
L 236.839194 126.489717 
L 238.197581 122.654178 
L 239.555968 117.444944 
L 244.989517 108.306012 
L 246.347904 108.690369 
L 247.706291 108.69388 
L 249.064679 109.680105 
L 250.423066 112.183711 
L 254.498227 104.90753 
L 255.856615 97.831472 
L 257.215002 113.01573 
L 258.573389 110.066312 
L 259.931776 106.408097 
L 264.006938 107.053111 
L 265.365325 103.359814 
L 266.723712 103.094243 
L 268.0821 108.394883 
L 269.440487 108.443345 
L 274.874036 123.285327 
L 276.232423 130.101052 
L 277.59081 136.191775 
L 278.949197 149.778909 
L 283.024359 150.375284 
L 284.382746 148.839037 
L 285.741134 149.892532 
L 287.099521 155.862834 
L 288.457908 140.036061 
L 292.53307 130.010983 
L 293.891457 122.402092 
L 295.249844 112.213586 
L 296.608231 141.518179 
L 297.966618 136.363852 
L 302.04178 141.010063 
L 303.400167 136.698243 
L 304.758555 130.354733 
L 306.116942 141.625998 
L 307.475329 154.557478 
L 311.550491 160.595031 
L 312.908878 153.518877 
L 314.267265 154.753157 
L 315.625652 166.958276 
L 316.98404 169.789053 
L 322.417588 175.593495 
L 323.775976 183.597083 
L 325.134363 180.630502 
L 326.49275 165.665841 
L 330.567912 171.907127 
L 331.926299 184.889559 
L 333.284686 170.322835 
L 334.643073 171.630601 
L 336.001461 180.487708 
L 340.076622 202.129629 
L 341.43501 205.317912 
L 342.793397 183.24846 
L 344.151784 191.176186 
L 345.510171 197.754631 
L 349.585333 198.255185 
L 350.94372 188.185331 
L 352.302107 174.319238 
L 355.018882 162.457701 
L 359.094043 161.875284 
L 360.452431 151.561697 
L 361.810818 157.77973 
L 363.169205 148.783831 
L 364.527592 141.602141 
L 368.602754 140.522921 
L 369.961141 137.805254 
L 371.319528 138.208269 
L 372.677916 150.723241 
L 374.036303 147.721533 
L 378.111464 143.732727 
L 379.469852 149.331145 
L 380.828239 158.016168 
L 382.186626 158.135759 
L 383.545013 157.537375 
L 387.620175 166.862748 
L 388.978562 170.561334 
L 390.336949 168.219164 
L 391.695337 177.523813 
L 397.128886 173.707945 
L 398.487273 164.847307 
L 398.487273 164.847307 
" style="fill:none;stroke:#ff0000;stroke-linecap:square;stroke-opacity:0.9;stroke-width:2;"/>
   </g>
   <g id="line2d_19">
    <path clip-path="url(#pd395ef5f1c)" d="M 73.832727 146.449998 
L 75.191114 143.031451 
L 76.549502 140.881196 
L 77.907889 144.276344 
L 79.266276 137.896328 
L 84.699825 132.497345 
L 86.058212 134.094004 
L 87.416599 133.249367 
L 88.774987 133.466302 
L 94.208536 133.935742 
L 95.566923 134.893046 
L 96.92531 137.191366 
L 98.283697 142.426681 
L 102.358859 137.352331 
L 103.717246 146.159845 
L 105.075633 141.437793 
L 106.434021 142.779023 
L 107.792408 148.292762 
L 111.867569 159.35393 
L 113.225957 160.721258 
L 114.584344 155.577993 
L 115.942731 146.268722 
L 117.301118 140.343852 
L 121.37628 135.653907 
L 122.734667 149.366785 
L 124.093054 147.890129 
L 125.451442 152.666163 
L 126.809829 143.152399 
L 130.88499 155.335996 
L 132.243378 144.957399 
L 133.601765 142.89273 
L 134.960152 141.16971 
L 136.318539 138.713455 
L 140.393701 142.707799 
L 141.752088 147.530893 
L 143.110475 148.846439 
L 144.468863 136.274965 
L 145.82725 135.071476 
L 149.902412 130.256733 
L 151.260799 123.059094 
L 152.619186 120.776756 
L 153.977573 132.276482 
L 155.33596 141.321261 
L 159.411122 140.430108 
L 160.769509 146.199411 
L 162.127897 148.19269 
L 163.486284 140.080748 
L 164.844671 138.651236 
L 168.919833 134.666369 
L 170.27822 133.592692 
L 171.636607 127.888369 
L 172.994994 127.68891 
L 174.353382 122.719869 
L 178.428543 122.223094 
L 179.78693 130.069939 
L 181.145318 135.300666 
L 182.503705 135.641413 
L 183.862092 130.52366 
L 187.937254 128.300954 
L 189.295641 131.271757 
L 190.654028 131.910601 
L 192.012415 133.301029 
L 193.370803 134.235858 
L 197.445964 129.897328 
L 198.804351 124.758002 
L 200.162739 125.056856 
L 202.879513 139.325292 
L 206.954675 130.763471 
L 208.313062 143.755578 
L 209.671449 152.995499 
L 211.029836 144.742214 
L 212.388224 149.153071 
L 216.463385 137.10181 
L 217.821773 125.704315 
L 219.18016 120.35392 
L 220.538547 119.862513 
L 221.896934 118.107747 
L 225.972096 124.146953 
L 227.330483 121.412173 
L 230.047258 113.801765 
L 231.405645 121.214296 
L 235.480806 130.350251 
L 236.839194 114.481523 
L 238.197581 111.936993 
L 239.555968 105.843318 
L 244.989517 97.147149 
L 246.347904 97.397973 
L 247.706291 97.266435 
L 249.064679 98.639068 
L 250.423066 101.595802 
L 254.498227 90.917706 
L 255.856615 82.574868 
L 257.215002 101.279011 
L 258.573389 95.143335 
L 259.931776 92.973031 
L 264.006938 92.816816 
L 265.365325 86.66964 
L 266.723712 85.511999 
L 268.0821 94.068423 
L 269.440487 91.865793 
L 274.874036 106.488216 
L 276.232423 111.335404 
L 277.59081 118.402362 
L 278.949197 134.134667 
L 283.024359 132.736362 
L 284.382746 141.021888 
L 285.741134 141.062712 
L 287.099521 145.468558 
L 288.457908 128.771405 
L 292.53307 114.145778 
L 293.891457 108.248257 
L 295.249844 95.813704 
L 296.608231 139.535628 
L 297.966618 138.216354 
L 302.04178 149.550434 
L 303.400167 150.703465 
L 304.758555 137.026994 
L 306.116942 148.774673 
L 307.475329 162.629923 
L 311.550491 167.294498 
L 312.908878 159.167723 
L 314.267265 162.694007 
L 315.625652 174.335273 
L 316.98404 178.43049 
L 322.417588 184.790585 
L 323.775976 193.750262 
L 325.134363 179.365331 
L 326.49275 167.646147 
L 330.567912 170.747415 
L 331.926299 181.344644 
L 333.284686 167.796325 
L 334.643073 172.119205 
L 336.001461 183.629113 
L 340.076622 209.904066 
L 341.43501 207.223284 
L 342.793397 180.662544 
L 345.510171 199.683083 
L 349.585333 200.611609 
L 350.94372 188.548807 
L 352.302107 168.921504 
L 353.660494 161.961157 
L 355.018882 152.639344 
L 359.094043 155.091342 
L 360.452431 141.385586 
L 361.810818 149.319786 
L 363.169205 139.675908 
L 364.527592 132.170661 
L 368.602754 131.482751 
L 369.961141 126.539049 
L 371.319528 129.707503 
L 372.677916 147.028004 
L 374.036303 145.346542 
L 378.111464 139.321631 
L 379.469852 147.227902 
L 380.828239 156.862743 
L 382.186626 159.425962 
L 383.545013 159.250311 
L 388.978562 173.207679 
L 390.336949 170.466798 
L 391.695337 182.472256 
L 397.128886 175.592728 
L 398.487273 163.799552 
L 398.487273 163.799552 
" style="fill:none;stroke:#ff8040;stroke-linecap:square;stroke-opacity:0.9;stroke-width:2;"/>
   </g>
   <g id="line2d_20">
    <path clip-path="url(#pd395ef5f1c)" d="M 73.832727 147.091865 
L 75.191114 145.339562 
L 76.549502 145.043315 
L 77.907889 148.882063 
L 79.266276 142.714897 
L 83.341438 143.187074 
L 84.699825 141.482565 
L 86.058212 142.334787 
L 87.416599 142.951417 
L 88.774987 142.574658 
L 94.208536 141.786886 
L 95.566923 143.67341 
L 96.92531 145.064252 
L 98.283697 152.935531 
L 102.358859 150.36981 
L 103.717246 159.122195 
L 105.075633 155.647803 
L 106.434021 159.073813 
L 107.792408 165.403811 
L 111.867569 175.777516 
L 113.225957 176.198162 
L 114.584344 174.080336 
L 115.942731 167.786258 
L 117.301118 163.149596 
L 121.37628 160.697369 
L 122.734667 173.961857 
L 124.093054 172.53983 
L 125.451442 179.603419 
L 126.809829 170.570682 
L 130.88499 176.725196 
L 132.243378 167.806291 
L 133.601765 167.435974 
L 134.960152 165.451657 
L 136.318539 162.344502 
L 140.393701 165.17716 
L 141.752088 169.019263 
L 143.110475 171.028977 
L 144.468863 156.181835 
L 145.82725 152.848016 
L 149.902412 152.722443 
L 151.260799 147.056648 
L 152.619186 143.948581 
L 153.977573 162.545323 
L 155.33596 165.649514 
L 159.411122 166.39296 
L 162.127897 175.806756 
L 163.486284 165.673055 
L 164.844671 163.640218 
L 168.919833 163.984417 
L 170.27822 161.238885 
L 171.636607 155.06731 
L 172.994994 156.808723 
L 174.353382 155.839544 
L 178.428543 155.180065 
L 181.145318 163.897646 
L 182.503705 163.264582 
L 183.862092 158.406558 
L 187.937254 155.685854 
L 189.295641 157.180755 
L 190.654028 157.76675 
L 192.012415 156.667965 
L 193.370803 158.929439 
L 197.445964 157.720879 
L 198.804351 152.970671 
L 200.162739 152.310032 
L 202.879513 170.668034 
L 206.954675 164.037097 
L 208.313062 178.609553 
L 209.671449 184.646462 
L 211.029836 177.130753 
L 212.388224 178.106064 
L 216.463385 170.651683 
L 217.821773 160.434319 
L 219.18016 159.05834 
L 220.538547 158.648552 
L 221.896934 154.305548 
L 225.972096 161.971065 
L 227.330483 162.408904 
L 228.68887 157.17966 
L 230.047258 161.01195 
L 231.405645 170.485496 
L 235.480806 176.774008 
L 236.839194 165.577052 
L 238.197581 163.112274 
L 239.555968 155.470746 
L 244.989517 148.254792 
L 246.347904 148.285109 
L 247.706291 147.12508 
L 249.064679 147.762439 
L 250.423066 149.1224 
L 254.498227 143.05003 
L 255.856615 136.349415 
L 257.215002 149.740831 
L 258.573389 146.343159 
L 259.931776 143.370404 
L 264.006938 141.525069 
L 265.365325 138.386361 
L 266.723712 137.790507 
L 268.0821 143.077591 
L 269.440487 141.374257 
L 274.874036 155.492158 
L 276.232423 163.186483 
L 277.59081 169.511564 
L 278.949197 182.409479 
L 283.024359 183.783571 
L 284.382746 187.531702 
L 285.741134 190.329757 
L 287.099521 196.44836 
L 288.457908 184.748774 
L 292.53307 176.891095 
L 293.891457 170.245225 
L 295.249844 159.187796 
L 296.608231 208.041541 
L 297.966618 201.119361 
L 302.04178 206.725052 
L 303.400167 202.033386 
L 304.758555 191.682214 
L 306.116942 202.479132 
L 307.475329 217.318164 
L 311.550491 221.663006 
L 312.908878 213.330344 
L 314.267265 215.923013 
L 315.625652 227.709356 
L 316.98404 231.286592 
L 322.417588 237.36758 
L 323.775976 245.931886 
L 325.134363 241.54117 
L 326.49275 231.240529 
L 330.567912 235.353584 
L 331.926299 244.293815 
L 333.284686 233.151862 
L 334.643073 233.859467 
L 336.001461 242.429651 
L 340.076622 264.473471 
L 341.43501 265.797818 
L 342.793397 243.763295 
L 344.151784 250.064493 
L 345.510171 255.406855 
L 349.585333 259.91234 
L 350.94372 250.483559 
L 352.302107 237.732204 
L 353.660494 231.469859 
L 355.018882 228.433325 
L 359.094043 227.209049 
L 360.452431 219.717446 
L 361.810818 226.373222 
L 363.169205 218.45744 
L 364.527592 212.357181 
L 368.602754 210.515747 
L 369.961141 205.638882 
L 371.319528 207.192636 
L 372.677916 219.366508 
L 374.036303 216.902955 
L 378.111464 212.315085 
L 379.469852 219.245373 
L 380.828239 227.202666 
L 382.186626 227.606079 
L 383.545013 225.855234 
L 387.620175 235.994488 
L 388.978562 238.023397 
L 390.336949 237.692597 
L 391.695337 245.952521 
L 397.128886 240.910517 
L 398.487273 232.999066 
L 398.487273 232.999066 
" style="fill:none;stroke:#0d0d0d;stroke-linecap:square;stroke-opacity:0.25;stroke-width:2;"/>
   </g>
   <g id="line2d_21">
    <path clip-path="url(#pd395ef5f1c)" d="M 73.832727 145.808131 
L 75.191114 140.420853 
L 76.549502 135.490317 
L 77.907889 137.081489 
L 79.266276 130.491179 
L 83.341438 123.02885 
L 84.699825 122.959927 
L 86.058212 121.577696 
L 87.416599 122.306644 
L 88.774987 122.316662 
L 94.208536 122.165684 
L 95.566923 125.451368 
L 96.92531 126.409304 
L 98.283697 130.451733 
L 102.358859 126.143432 
L 103.717246 132.409626 
L 105.075633 128.237367 
L 106.434021 129.421439 
L 107.792408 138.517472 
L 111.867569 148.003138 
L 113.225957 147.657585 
L 114.584344 141.617776 
L 115.942731 134.608541 
L 117.301118 129.733111 
L 121.37628 120.063047 
L 122.734667 132.389463 
L 124.093054 131.596404 
L 125.451442 138.19444 
L 126.809829 128.032305 
L 130.88499 136.220486 
L 132.243378 127.379622 
L 133.601765 124.367132 
L 134.960152 122.549553 
L 136.318539 119.71943 
L 140.393701 122.740374 
L 141.752088 127.580888 
L 143.110475 128.297263 
L 144.468863 111.382464 
L 145.82725 106.335148 
L 149.902412 103.413982 
L 151.260799 96.17177 
L 152.619186 95.17593 
L 153.977573 105.527716 
L 155.33596 106.138738 
L 159.411122 107.6158 
L 160.769509 113.257332 
L 162.127897 110.937042 
L 163.486284 99.904056 
L 164.844671 96.603897 
L 168.919833 99.127155 
L 170.27822 97.715878 
L 171.636607 93.572261 
L 172.994994 95.007935 
L 174.353382 95.035677 
L 178.428543 94.12281 
L 179.78693 96.805177 
L 181.145318 98.881517 
L 182.503705 98.986703 
L 183.862092 96.009607 
L 187.937254 92.136364 
L 189.295641 94.767845 
L 190.654028 94.570046 
L 192.012415 95.530111 
L 193.370803 95.832847 
L 197.445964 94.346558 
L 198.804351 90.652013 
L 200.162739 88.40419 
L 202.879513 107.784294 
L 206.954675 99.463885 
L 208.313062 105.533191 
L 209.671449 115.062669 
L 211.029836 104.604867 
L 212.388224 110.069283 
L 216.463385 97.991194 
L 217.821773 84.83828 
L 219.18016 79.284311 
L 220.538547 80.339166 
L 221.896934 77.303338 
L 225.972096 84.146826 
L 227.330483 83.796775 
L 228.68887 82.531463 
L 230.047258 79.200636 
L 231.405645 85.311982 
L 235.480806 92.754542 
L 236.839194 80.367395 
L 238.197581 77.271662 
L 239.555968 69.39534 
L 244.989517 62.485589 
L 246.347904 62.016699 
L 247.706291 62.024226 
L 249.064679 63.748681 
L 250.423066 68.194634 
L 254.498227 58.370367 
L 255.856615 52.154182 
L 257.215002 65.982631 
L 259.931776 59.600391 
L 264.006938 60.709185 
L 265.365325 53.297231 
L 266.723712 52.767662 
L 268.0821 60.74692 
L 269.440487 58.347232 
L 274.874036 74.851564 
L 276.232423 80.610642 
L 277.59081 88.466866 
L 278.949197 104.559665 
L 283.024359 107.256094 
L 284.382746 104.281402 
L 285.741134 108.045403 
L 287.099521 114.582466 
L 288.457908 101.819631 
L 292.53307 91.145077 
L 293.891457 80.820106 
L 295.249844 68.067913 
L 296.608231 80.110047 
L 297.966618 76.7647 
L 302.04178 85.369856 
L 303.400167 82.416455 
L 304.758555 77.704541 
L 306.116942 87.346842 
L 307.475329 99.706112 
L 311.550491 105.178575 
L 312.908878 97.616901 
L 314.267265 99.078374 
L 315.625652 107.965593 
L 316.98404 112.200935 
L 322.417588 119.109913 
L 323.775976 128.961127 
L 325.134363 125.76098 
L 326.49275 107.900348 
L 330.567912 113.097085 
L 331.926299 127.846556 
L 333.284686 108.971454 
L 334.643073 108.657826 
L 336.001461 118.840722 
L 340.076622 140.909719 
L 341.43501 142.434078 
L 342.793397 119.509999 
L 344.151784 130.544683 
L 345.510171 138.634804 
L 349.585333 146.334433 
L 350.94372 135.763659 
L 352.302107 118.112401 
L 353.660494 111.405031 
L 355.018882 102.006295 
L 359.094043 104.317331 
L 360.452431 93.593249 
L 361.810818 103.568188 
L 363.169205 91.242029 
L 364.527592 83.857694 
L 368.602754 84.50737 
L 369.961141 82.00181 
L 371.319528 82.882049 
L 372.677916 96.375796 
L 374.036303 91.26246 
L 378.111464 86.41215 
L 379.469852 91.856437 
L 380.828239 100.793152 
L 382.186626 103.45083 
L 383.545013 100.926002 
L 387.620175 113.800268 
L 388.978562 116.240506 
L 390.336949 114.076066 
L 391.695337 123.037821 
L 397.128886 119.142035 
L 398.487273 108.49395 
L 398.487273 108.49395 
" style="fill:none;stroke:#0d0d0d;stroke-linecap:square;stroke-opacity:0.25;stroke-width:2;"/>
   </g>
   <g id="patch_3">
    <path d="M 57.6 276.48 
L 57.6 41.472 
" style="fill:none;stroke:#000000;stroke-linecap:square;stroke-linejoin:miter;stroke-width:0.8;"/>
   </g>
   <g id="patch_4">
    <path d="M 414.72 276.48 
L 414.72 41.472 
" style="fill:none;stroke:#000000;stroke-linecap:square;stroke-linejoin:miter;stroke-width:0.8;"/>
   </g>
   <g id="patch_5">
    <path d="M 57.6 276.48 
L 414.72 276.48 
" style="fill:none;stroke:#000000;stroke-linecap:square;stroke-linejoin:miter;stroke-width:0.8;"/>
   </g>
   <g id="patch_6">
    <path d="M 57.6 41.472 
L 414.72 41.472 
" style="fill:none;stroke:#000000;stroke-linecap:square;stroke-linejoin:miter;stroke-width:0.8;"/>
   </g>
   <g id="text_18">
    <!-- TESTFUNDS0830 -->
    <g transform="translate(185.200312 22.034625)scale(0.12 -0.12)">
     <defs>
      <path d="M -19 4666 
L 3928 4666 
L 3928 4134 
L 2272 4134 
L 2272 0 
L 1638 0 
L 1638 4134 
L -19 4134 
L -19 4666 
z
" id="DejaVuSans-54" transform="scale(0.015625)"/>
      <path d="M 628 4666 
L 3578 4666 
L 3578 4134 
L 1259 4134 
L 1259 2753 
L 3481 2753 
L 3481 2222 
L 1259 2222 
L 1259 531 
L 3634 531 
L 3634 0 
L 628 0 
L 628 4666 
z
" id="DejaVuSans-45" transform="scale(0.015625)"/>
      <path d="M 3425 4513 
L 3425 3897 
Q 3066 4069 2747 4153 
Q 2428 4238 2131 4238 
Q 1616 4238 1336 4038 
Q 1056 3838 1056 3469 
Q 1056 3159 1242 3001 
Q 1428 2844 1947 2747 
L 2328 2669 
Q 3034 2534 3370 2195 
Q 3706 1856 3706 1288 
Q 3706 609 3251 259 
Q 2797 -91 1919 -91 
Q 1588 -91 1214 -16 
Q 841 59 441 206 
L 441 856 
Q 825 641 1194 531 
Q 1563 422 1919 422 
Q 2459 422 2753 634 
Q 3047 847 3047 1241 
Q 3047 1584 2836 1778 
Q 2625 1972 2144 2069 
L 1759 2144 
Q 1053 2284 737 2584 
Q 422 2884 422 3419 
Q 422 4038 858 4394 
Q 1294 4750 2059 4750 
Q 2388 4750 2728 4690 
Q 3069 4631 3425 4513 
z
" id="DejaVuSans-53" transform="scale(0.015625)"/>
      <path d="M 628 4666 
L 3309 4666 
L 3309 4134 
L 1259 4134 
L 1259 2759 
L 3109 2759 
L 3109 2228 
L 1259 2228 
L 1259 0 
L 628 0 
L 628 4666 
z
" id="DejaVuSans-46" transform="scale(0.015625)"/>
      <path d="M 556 4666 
L 1191 4666 
L 1191 1831 
Q 1191 1081 1462 751 
Q 1734 422 2344 422 
Q 2950 422 3222 751 
Q 3494 1081 3494 1831 
L 3494 4666 
L 4128 4666 
L 4128 1753 
Q 4128 841 3676 375 
Q 3225 -91 2344 -91 
Q 1459 -91 1007 375 
Q 556 841 556 1753 
L 556 4666 
z
" id="DejaVuSans-55" transform="scale(0.015625)"/>
      <path d="M 628 4666 
L 1478 4666 
L 3547 763 
L 3547 4666 
L 4159 4666 
L 4159 0 
L 3309 0 
L 1241 3903 
L 1241 0 
L 628 0 
L 628 4666 
z
" id="DejaVuSans-4e" transform="scale(0.015625)"/>
      <path d="M 1259 4147 
L 1259 519 
L 2022 519 
Q 2988 519 3436 956 
Q 3884 1394 3884 2338 
Q 3884 3275 3436 3711 
Q 2988 4147 2022 4147 
L 1259 4147 
z
M 628 4666 
L 1925 4666 
Q 3281 4666 3915 4102 
Q 4550 3538 4550 2338 
Q 4550 1131 3912 565 
Q 3275 0 1925 0 
L 628 0 
L 628 4666 
z
" id="DejaVuSans-44" transform="scale(0.015625)"/>
     </defs>
     <use xlink:href="#DejaVuSans-54"/>
     <use x="61.083984" xlink:href="#DejaVuSans-45"/>
     <use x="124.267578" xlink:href="#DejaVuSans-53"/>
     <use x="187.744141" xlink:href="#DejaVuSans-54"/>
     <use x="248.828125" xlink:href="#DejaVuSans-46"/>
     <use x="306.347656" xlink:href="#DejaVuSans-55"/>
     <use x="379.541016" xlink:href="#DejaVuSans-4e"/>
     <use x="454.345703" xlink:href="#DejaVuSans-44"/>
     <use x="531.347656" xlink:href="#DejaVuSans-53"/>
     <use x="594.824219" xlink:href="#DejaVuSans-30"/>
     <use x="658.447266" xlink:href="#DejaVuSans-38"/>
     <use x="722.070312" xlink:href="#DejaVuSans-33"/>
     <use x="785.693359" xlink:href="#DejaVuSans-30"/>
    </g>
    <!-- daily_report -->
    <g transform="translate(200.466563 35.472)scale(0.12 -0.12)">
     <defs>
      <path d="M 603 3500 
L 1178 3500 
L 1178 0 
L 603 0 
L 603 3500 
z
M 603 4863 
L 1178 4863 
L 1178 4134 
L 603 4134 
L 603 4863 
z
" id="DejaVuSans-69" transform="scale(0.015625)"/>
      <path d="M 603 4863 
L 1178 4863 
L 1178 0 
L 603 0 
L 603 4863 
z
" id="DejaVuSans-6c" transform="scale(0.015625)"/>
      <path d="M 2059 -325 
Q 1816 -950 1584 -1140 
Q 1353 -1331 966 -1331 
L 506 -1331 
L 506 -850 
L 844 -850 
Q 1081 -850 1212 -737 
Q 1344 -625 1503 -206 
L 1606 56 
L 191 3500 
L 800 3500 
L 1894 763 
L 2988 3500 
L 3597 3500 
L 2059 -325 
z
" id="DejaVuSans-79" transform="scale(0.015625)"/>
      <path d="M 3263 -1063 
L 3263 -1509 
L -63 -1509 
L -63 -1063 
L 3263 -1063 
z
" id="DejaVuSans-5f" transform="scale(0.015625)"/>
      <path d="M 2631 2963 
Q 2534 3019 2420 3045 
Q 2306 3072 2169 3072 
Q 1681 3072 1420 2755 
Q 1159 2438 1159 1844 
L 1159 0 
L 581 0 
L 581 3500 
L 1159 3500 
L 1159 2956 
Q 1341 3275 1631 3429 
Q 1922 3584 2338 3584 
Q 2397 3584 2469 3576 
Q 2541 3569 2628 3553 
L 2631 2963 
z
" id="DejaVuSans-72" transform="scale(0.015625)"/>
      <path d="M 1159 525 
L 1159 -1331 
L 581 -1331 
L 581 3500 
L 1159 3500 
L 1159 2969 
Q 1341 3281 1617 3432 
Q 1894 3584 2278 3584 
Q 2916 3584 3314 3078 
Q 3713 2572 3713 1747 
Q 3713 922 3314 415 
Q 2916 -91 2278 -91 
Q 1894 -91 1617 61 
Q 1341 213 1159 525 
z
M 3116 1747 
Q 3116 2381 2855 2742 
Q 2594 3103 2138 3103 
Q 1681 3103 1420 2742 
Q 1159 2381 1159 1747 
Q 1159 1113 1420 752 
Q 1681 391 2138 391 
Q 2594 391 2855 752 
Q 3116 1113 3116 1747 
z
" id="DejaVuSans-70" transform="scale(0.015625)"/>
      <path d="M 1959 3097 
Q 1497 3097 1228 2736 
Q 959 2375 959 1747 
Q 959 1119 1226 758 
Q 1494 397 1959 397 
Q 2419 397 2687 759 
Q 2956 1122 2956 1747 
Q 2956 2369 2687 2733 
Q 2419 3097 1959 3097 
z
M 1959 3584 
Q 2709 3584 3137 3096 
Q 3566 2609 3566 1747 
Q 3566 888 3137 398 
Q 2709 -91 1959 -91 
Q 1206 -91 779 398 
Q 353 888 353 1747 
Q 353 2609 779 3096 
Q 1206 3584 1959 3584 
z
" id="DejaVuSans-6f" transform="scale(0.015625)"/>
     </defs>
     <use xlink:href="#DejaVuSans-64"/>
     <use x="63.476562" xlink:href="#DejaVuSans-61"/>
     <use x="124.755859" xlink:href="#DejaVuSans-69"/>
     <use x="152.539062" xlink:href="#DejaVuSans-6c"/>
     <use x="180.322266" xlink:href="#DejaVuSans-79"/>
     <use x="239.501953" xlink:href="#DejaVuSans-5f"/>
     <use x="289.501953" xlink:href="#DejaVuSans-72"/>
     <use x="328.365234" xlink:href="#DejaVuSans-65"/>
     <use x="389.888672" xlink:href="#DejaVuSans-70"/>
     <use x="453.365234" xlink:href="#DejaVuSans-6f"/>
     <use x="514.546875" xlink:href="#DejaVuSans-72"/>
     <use x="555.660156" xlink:href="#DejaVuSans-74"/>
    </g>
   </g>
   <g id="legend_1">
    <g id="patch_7">
     <path d="M 64.6 271.48 
L 155.792188 271.48 
Q 157.792188 271.48 157.792188 269.48 
L 157.792188 197.089375 
Q 157.792188 195.089375 155.792188 195.089375 
L 64.6 195.089375 
Q 62.6 195.089375 62.6 197.089375 
L 62.6 269.48 
Q 62.6 271.48 64.6 271.48 
z
" style="fill:#ffffff;opacity:0.8;stroke:#cccccc;stroke-linejoin:miter;"/>
    </g>
    <g id="line2d_22">
     <path d="M 66.6 203.187812 
L 86.6 203.187812 
" style="fill:none;stroke:#0000ff;stroke-linecap:square;stroke-opacity:0.9;stroke-width:2;"/>
    </g>
    <g id="line2d_23"/>
    <g id="text_19">
     <!-- alpaca -->
     <g transform="translate(94.6 206.687812)scale(0.1 -0.1)">
      <defs>
       <path d="M 3122 3366 
L 3122 2828 
Q 2878 2963 2633 3030 
Q 2388 3097 2138 3097 
Q 1578 3097 1268 2742 
Q 959 2388 959 1747 
Q 959 1106 1268 751 
Q 1578 397 2138 397 
Q 2388 397 2633 464 
Q 2878 531 3122 666 
L 3122 134 
Q 2881 22 2623 -34 
Q 2366 -91 2075 -91 
Q 1284 -91 818 406 
Q 353 903 353 1747 
Q 353 2603 823 3093 
Q 1294 3584 2113 3584 
Q 2378 3584 2631 3529 
Q 2884 3475 3122 3366 
z
" id="DejaVuSans-63" transform="scale(0.015625)"/>
      </defs>
      <use xlink:href="#DejaVuSans-61"/>
      <use x="61.279297" xlink:href="#DejaVuSans-6c"/>
      <use x="89.0625" xlink:href="#DejaVuSans-70"/>
      <use x="152.539062" xlink:href="#DejaVuSans-61"/>
      <use x="213.818359" xlink:href="#DejaVuSans-63"/>
      <use x="268.798828" xlink:href="#DejaVuSans-61"/>
     </g>
    </g>
    <g id="line2d_24">
     <path d="M 66.6 217.865937 
L 86.6 217.865937 
" style="fill:none;stroke:#ff0000;stroke-linecap:square;stroke-opacity:0.9;stroke-width:2;"/>
    </g>
    <g id="line2d_25"/>
    <g id="text_20">
     <!-- mattress -->
     <g transform="translate(94.6 221.365937)scale(0.1 -0.1)">
      <defs>
       <path d="M 3328 2828 
Q 3544 3216 3844 3400 
Q 4144 3584 4550 3584 
Q 5097 3584 5394 3201 
Q 5691 2819 5691 2113 
L 5691 0 
L 5113 0 
L 5113 2094 
Q 5113 2597 4934 2840 
Q 4756 3084 4391 3084 
Q 3944 3084 3684 2787 
Q 3425 2491 3425 1978 
L 3425 0 
L 2847 0 
L 2847 2094 
Q 2847 2600 2669 2842 
Q 2491 3084 2119 3084 
Q 1678 3084 1418 2786 
Q 1159 2488 1159 1978 
L 1159 0 
L 581 0 
L 581 3500 
L 1159 3500 
L 1159 2956 
Q 1356 3278 1631 3431 
Q 1906 3584 2284 3584 
Q 2666 3584 2933 3390 
Q 3200 3197 3328 2828 
z
" id="DejaVuSans-6d" transform="scale(0.015625)"/>
       <path d="M 2834 3397 
L 2834 2853 
Q 2591 2978 2328 3040 
Q 2066 3103 1784 3103 
Q 1356 3103 1142 2972 
Q 928 2841 928 2578 
Q 928 2378 1081 2264 
Q 1234 2150 1697 2047 
L 1894 2003 
Q 2506 1872 2764 1633 
Q 3022 1394 3022 966 
Q 3022 478 2636 193 
Q 2250 -91 1575 -91 
Q 1294 -91 989 -36 
Q 684 19 347 128 
L 347 722 
Q 666 556 975 473 
Q 1284 391 1588 391 
Q 1994 391 2212 530 
Q 2431 669 2431 922 
Q 2431 1156 2273 1281 
Q 2116 1406 1581 1522 
L 1381 1569 
Q 847 1681 609 1914 
Q 372 2147 372 2553 
Q 372 3047 722 3315 
Q 1072 3584 1716 3584 
Q 2034 3584 2315 3537 
Q 2597 3491 2834 3397 
z
" id="DejaVuSans-73" transform="scale(0.015625)"/>
      </defs>
      <use xlink:href="#DejaVuSans-6d"/>
      <use x="97.412109" xlink:href="#DejaVuSans-61"/>
      <use x="158.691406" xlink:href="#DejaVuSans-74"/>
      <use x="197.900391" xlink:href="#DejaVuSans-74"/>
      <use x="237.109375" xlink:href="#DejaVuSans-72"/>
      <use x="275.972656" xlink:href="#DejaVuSans-65"/>
      <use x="337.496094" xlink:href="#DejaVuSans-73"/>
      <use x="389.595703" xlink:href="#DejaVuSans-73"/>
     </g>
    </g>
    <g id="line2d_26">
     <path d="M 66.6 232.544062 
L 86.6 232.544062 
" style="fill:none;stroke:#ff8040;stroke-linecap:square;stroke-opacity:0.9;stroke-width:2;"/>
    </g>
    <g id="line2d_27"/>
    <g id="text_21">
     <!-- trader-0850 -->
     <g transform="translate(94.6 236.044062)scale(0.1 -0.1)">
      <use xlink:href="#DejaVuSans-74"/>
      <use x="39.208984" xlink:href="#DejaVuSans-72"/>
      <use x="80.322266" xlink:href="#DejaVuSans-61"/>
      <use x="141.601562" xlink:href="#DejaVuSans-64"/>
      <use x="205.078125" xlink:href="#DejaVuSans-65"/>
      <use x="266.601562" xlink:href="#DejaVuSans-72"/>
      <use x="301.339844" xlink:href="#DejaVuSans-2d"/>
      <use x="337.423828" xlink:href="#DejaVuSans-30"/>
      <use x="401.046875" xlink:href="#DejaVuSans-38"/>
      <use x="464.669922" xlink:href="#DejaVuSans-35"/>
      <use x="528.292969" xlink:href="#DejaVuSans-30"/>
     </g>
    </g>
    <g id="line2d_28">
     <path d="M 66.6 247.222187 
L 86.6 247.222187 
" style="fill:none;stroke:#0d0d0d;stroke-linecap:square;stroke-opacity:0.25;stroke-width:2;"/>
    </g>
    <g id="line2d_29"/>
    <g id="text_22">
     <!-- rando-min -->
     <g transform="translate(94.6 250.722187)scale(0.1 -0.1)">
      <defs>
       <path d="M 3513 2113 
L 3513 0 
L 2938 0 
L 2938 2094 
Q 2938 2591 2744 2837 
Q 2550 3084 2163 3084 
Q 1697 3084 1428 2787 
Q 1159 2491 1159 1978 
L 1159 0 
L 581 0 
L 581 3500 
L 1159 3500 
L 1159 2956 
Q 1366 3272 1645 3428 
Q 1925 3584 2291 3584 
Q 2894 3584 3203 3211 
Q 3513 2838 3513 2113 
z
" id="DejaVuSans-6e" transform="scale(0.015625)"/>
      </defs>
      <use xlink:href="#DejaVuSans-72"/>
      <use x="41.113281" xlink:href="#DejaVuSans-61"/>
      <use x="102.392578" xlink:href="#DejaVuSans-6e"/>
      <use x="165.771484" xlink:href="#DejaVuSans-64"/>
      <use x="229.248047" xlink:href="#DejaVuSans-6f"/>
      <use x="292.304688" xlink:href="#DejaVuSans-2d"/>
      <use x="328.388672" xlink:href="#DejaVuSans-6d"/>
      <use x="425.800781" xlink:href="#DejaVuSans-69"/>
      <use x="453.583984" xlink:href="#DejaVuSans-6e"/>
     </g>
    </g>
    <g id="line2d_30">
     <path d="M 66.6 261.900312 
L 86.6 261.900312 
" style="fill:none;stroke:#0d0d0d;stroke-linecap:square;stroke-opacity:0.25;stroke-width:2;"/>
    </g>
    <g id="line2d_31"/>
    <g id="text_23">
     <!-- rando-max -->
     <g transform="translate(94.6 265.400312)scale(0.1 -0.1)">
      <defs>
       <path d="M 3513 3500 
L 2247 1797 
L 3578 0 
L 2900 0 
L 1881 1375 
L 863 0 
L 184 0 
L 1544 1831 
L 300 3500 
L 978 3500 
L 1906 2253 
L 2834 3500 
L 3513 3500 
z
" id="DejaVuSans-78" transform="scale(0.015625)"/>
      </defs>
      <use xlink:href="#DejaVuSans-72"/>
      <use x="41.113281" xlink:href="#DejaVuSans-61"/>
      <use x="102.392578" xlink:href="#DejaVuSans-6e"/>
      <use x="165.771484" xlink:href="#DejaVuSans-64"/>
      <use x="229.248047" xlink:href="#DejaVuSans-6f"/>
      <use x="292.304688" xlink:href="#DejaVuSans-2d"/>
      <use x="328.388672" xlink:href="#DejaVuSans-6d"/>
      <use x="425.800781" xlink:href="#DejaVuSans-61"/>
      <use x="487.080078" xlink:href="#DejaVuSans-78"/>
     </g>
    </g>
   </g>
  </g>
 </g>
 <defs>
  <clipPath id="pd395ef5f1c">
   <rect height="235.008" width="357.12" x="57.6" y="41.472"/>
  </clipPath>
 </defs>
</svg>
