<?xml version="1.0" encoding="utf-8" standalone="no"?>
<!DOCTYPE svg PUBLIC "-//W3C//DTD SVG 1.1//EN"
  "http://www.w3.org/Graphics/SVG/1.1/DTD/svg11.dtd">
<svg height="345.6pt" version="1.1" viewBox="0 0 460.8 345.6" width="460.8pt" xmlns="http://www.w3.org/2000/svg" xmlns:xlink="http://www.w3.org/1999/xlink">
 <metadata>
  <rdf:RDF xmlns:cc="http://creativecommons.org/ns#" xmlns:dc="http://purl.org/dc/elements/1.1/" xmlns:rdf="http://www.w3.org/1999/02/22-rdf-syntax-ns#">
   <cc:Work>
    <dc:type rdf:resource="http://purl.org/dc/dcmitype/StillImage"/>
    <dc:date>2022-05-29T10:02:05.543391</dc:date>
    <dc:format>image/svg+xml</dc:format>
    <dc:creator>
     <cc:Agent>
      <dc:title>Matplotlib v3.4.3, https://matplotlib.org/</dc:title>
     </cc:Agent>
    </dc:creator>
   </cc:Work>
  </rdf:RDF>
 </metadata>
 <defs>
  <style type="text/css">*{stroke-linecap:butt;stroke-linejoin:round;}</style>
 </defs>
 <g id="figure_1">
  <g id="patch_1">
   <path d="M 0 345.6 
L 460.8 345.6 
L 460.8 0 
L 0 0 
z
" style="fill:#ffffff;"/>
  </g>
  <g id="axes_1">
   <g id="patch_2">
    <path d="M 57.6 276.48 
L 414.72 276.48 
L 414.72 41.472 
L 57.6 41.472 
z
" style="fill:#ffffff;"/>
   </g>
   <g id="matplotlib.axis_1">
    <g id="xtick_1">
     <g id="line2d_1">
      <defs>
       <path d="M 0 0 
L 0 3.5 
" id="mea35295c32" style="stroke:#000000;stroke-width:0.8;"/>
      </defs>
      <g>
       <use style="stroke:#000000;stroke-width:0.8;" x="96.045933" xlink:href="#mea35295c32" y="276.48"/>
      </g>
     </g>
     <g id="text_1">
      <!-- 2021-12 -->
      <g transform="translate(58.821112 310.951846)rotate(-30)scale(0.1 -0.1)">
       <defs>
        <path d="M 1228 531 
L 3431 531 
L 3431 0 
L 469 0 
L 469 531 
Q 828 903 1448 1529 
Q 2069 2156 2228 2338 
Q 2531 2678 2651 2914 
Q 2772 3150 2772 3378 
Q 2772 3750 2511 3984 
Q 2250 4219 1831 4219 
Q 1534 4219 1204 4116 
Q 875 4013 500 3803 
L 500 4441 
Q 881 4594 1212 4672 
Q 1544 4750 1819 4750 
Q 2544 4750 2975 4387 
Q 3406 4025 3406 3419 
Q 3406 3131 3298 2873 
Q 3191 2616 2906 2266 
Q 2828 2175 2409 1742 
Q 1991 1309 1228 531 
z
" id="DejaVuSans-32" transform="scale(0.015625)"/>
        <path d="M 2034 4250 
Q 1547 4250 1301 3770 
Q 1056 3291 1056 2328 
Q 1056 1369 1301 889 
Q 1547 409 2034 409 
Q 2525 409 2770 889 
Q 3016 1369 3016 2328 
Q 3016 3291 2770 3770 
Q 2525 4250 2034 4250 
z
M 2034 4750 
Q 2819 4750 3233 4129 
Q 3647 3509 3647 2328 
Q 3647 1150 3233 529 
Q 2819 -91 2034 -91 
Q 1250 -91 836 529 
Q 422 1150 422 2328 
Q 422 3509 836 4129 
Q 1250 4750 2034 4750 
z
" id="DejaVuSans-30" transform="scale(0.015625)"/>
        <path d="M 794 531 
L 1825 531 
L 1825 4091 
L 703 3866 
L 703 4441 
L 1819 4666 
L 2450 4666 
L 2450 531 
L 3481 531 
L 3481 0 
L 794 0 
L 794 531 
z
" id="DejaVuSans-31" transform="scale(0.015625)"/>
        <path d="M 313 2009 
L 1997 2009 
L 1997 1497 
L 313 1497 
L 313 2009 
z
" id="DejaVuSans-2d" transform="scale(0.015625)"/>
       </defs>
       <use xlink:href="#DejaVuSans-32"/>
       <use x="63.623047" xlink:href="#DejaVuSans-30"/>
       <use x="127.246094" xlink:href="#DejaVuSans-32"/>
       <use x="190.869141" xlink:href="#DejaVuSans-31"/>
       <use x="254.492188" xlink:href="#DejaVuSans-2d"/>
       <use x="290.576172" xlink:href="#DejaVuSans-31"/>
       <use x="354.199219" xlink:href="#DejaVuSans-32"/>
      </g>
     </g>
    </g>
    <g id="xtick_2">
     <g id="line2d_2">
      <g>
       <use style="stroke:#000000;stroke-width:0.8;" x="149.015885" xlink:href="#mea35295c32" y="276.48"/>
      </g>
     </g>
     <g id="text_2">
      <!-- 2022-01 -->
      <g transform="translate(111.791064 310.951846)rotate(-30)scale(0.1 -0.1)">
       <use xlink:href="#DejaVuSans-32"/>
       <use x="63.623047" xlink:href="#DejaVuSans-30"/>
       <use x="127.246094" xlink:href="#DejaVuSans-32"/>
       <use x="190.869141" xlink:href="#DejaVuSans-32"/>
       <use x="254.492188" xlink:href="#DejaVuSans-2d"/>
       <use x="290.576172" xlink:href="#DejaVuSans-30"/>
       <use x="354.199219" xlink:href="#DejaVuSans-31"/>
      </g>
     </g>
    </g>
    <g id="xtick_3">
     <g id="line2d_3">
      <g>
       <use style="stroke:#000000;stroke-width:0.8;" x="201.985837" xlink:href="#mea35295c32" y="276.48"/>
      </g>
     </g>
     <g id="text_3">
      <!-- 2022-02 -->
      <g transform="translate(164.761017 310.951846)rotate(-30)scale(0.1 -0.1)">
       <use xlink:href="#DejaVuSans-32"/>
       <use x="63.623047" xlink:href="#DejaVuSans-30"/>
       <use x="127.246094" xlink:href="#DejaVuSans-32"/>
       <use x="190.869141" xlink:href="#DejaVuSans-32"/>
       <use x="254.492188" xlink:href="#DejaVuSans-2d"/>
       <use x="290.576172" xlink:href="#DejaVuSans-30"/>
       <use x="354.199219" xlink:href="#DejaVuSans-32"/>
      </g>
     </g>
    </g>
    <g id="xtick_4">
     <g id="line2d_4">
      <g>
       <use style="stroke:#000000;stroke-width:0.8;" x="249.829665" xlink:href="#mea35295c32" y="276.48"/>
      </g>
     </g>
     <g id="text_4">
      <!-- 2022-03 -->
      <g transform="translate(212.604844 310.951846)rotate(-30)scale(0.1 -0.1)">
       <defs>
        <path d="M 2597 2516 
Q 3050 2419 3304 2112 
Q 3559 1806 3559 1356 
Q 3559 666 3084 287 
Q 2609 -91 1734 -91 
Q 1441 -91 1130 -33 
Q 819 25 488 141 
L 488 750 
Q 750 597 1062 519 
Q 1375 441 1716 441 
Q 2309 441 2620 675 
Q 2931 909 2931 1356 
Q 2931 1769 2642 2001 
Q 2353 2234 1838 2234 
L 1294 2234 
L 1294 2753 
L 1863 2753 
Q 2328 2753 2575 2939 
Q 2822 3125 2822 3475 
Q 2822 3834 2567 4026 
Q 2313 4219 1838 4219 
Q 1578 4219 1281 4162 
Q 984 4106 628 3988 
L 628 4550 
Q 988 4650 1302 4700 
Q 1616 4750 1894 4750 
Q 2613 4750 3031 4423 
Q 3450 4097 3450 3541 
Q 3450 3153 3228 2886 
Q 3006 2619 2597 2516 
z
" id="DejaVuSans-33" transform="scale(0.015625)"/>
       </defs>
       <use xlink:href="#DejaVuSans-32"/>
       <use x="63.623047" xlink:href="#DejaVuSans-30"/>
       <use x="127.246094" xlink:href="#DejaVuSans-32"/>
       <use x="190.869141" xlink:href="#DejaVuSans-32"/>
       <use x="254.492188" xlink:href="#DejaVuSans-2d"/>
       <use x="290.576172" xlink:href="#DejaVuSans-30"/>
       <use x="354.199219" xlink:href="#DejaVuSans-33"/>
      </g>
     </g>
    </g>
    <g id="xtick_5">
     <g id="line2d_5">
      <g>
       <use style="stroke:#000000;stroke-width:0.8;" x="302.799617" xlink:href="#mea35295c32" y="276.48"/>
      </g>
     </g>
     <g id="text_5">
      <!-- 2022-04 -->
      <g transform="translate(265.574796 310.951846)rotate(-30)scale(0.1 -0.1)">
       <defs>
        <path d="M 2419 4116 
L 825 1625 
L 2419 1625 
L 2419 4116 
z
M 2253 4666 
L 3047 4666 
L 3047 1625 
L 3713 1625 
L 3713 1100 
L 3047 1100 
L 3047 0 
L 2419 0 
L 2419 1100 
L 313 1100 
L 313 1709 
L 2253 4666 
z
" id="DejaVuSans-34" transform="scale(0.015625)"/>
       </defs>
       <use xlink:href="#DejaVuSans-32"/>
       <use x="63.623047" xlink:href="#DejaVuSans-30"/>
       <use x="127.246094" xlink:href="#DejaVuSans-32"/>
       <use x="190.869141" xlink:href="#DejaVuSans-32"/>
       <use x="254.492188" xlink:href="#DejaVuSans-2d"/>
       <use x="290.576172" xlink:href="#DejaVuSans-30"/>
       <use x="354.199219" xlink:href="#DejaVuSans-34"/>
      </g>
     </g>
    </g>
    <g id="xtick_6">
     <g id="line2d_6">
      <g>
       <use style="stroke:#000000;stroke-width:0.8;" x="354.060861" xlink:href="#mea35295c32" y="276.48"/>
      </g>
     </g>
     <g id="text_6">
      <!-- 2022-05 -->
      <g transform="translate(316.83604 310.951846)rotate(-30)scale(0.1 -0.1)">
       <defs>
        <path d="M 691 4666 
L 3169 4666 
L 3169 4134 
L 1269 4134 
L 1269 2991 
Q 1406 3038 1543 3061 
Q 1681 3084 1819 3084 
Q 2600 3084 3056 2656 
Q 3513 2228 3513 1497 
Q 3513 744 3044 326 
Q 2575 -91 1722 -91 
Q 1428 -91 1123 -41 
Q 819 9 494 109 
L 494 744 
Q 775 591 1075 516 
Q 1375 441 1709 441 
Q 2250 441 2565 725 
Q 2881 1009 2881 1497 
Q 2881 1984 2565 2268 
Q 2250 2553 1709 2553 
Q 1456 2553 1204 2497 
Q 953 2441 691 2322 
L 691 4666 
z
" id="DejaVuSans-35" transform="scale(0.015625)"/>
       </defs>
       <use xlink:href="#DejaVuSans-32"/>
       <use x="63.623047" xlink:href="#DejaVuSans-30"/>
       <use x="127.246094" xlink:href="#DejaVuSans-32"/>
       <use x="190.869141" xlink:href="#DejaVuSans-32"/>
       <use x="254.492188" xlink:href="#DejaVuSans-2d"/>
       <use x="290.576172" xlink:href="#DejaVuSans-30"/>
       <use x="354.199219" xlink:href="#DejaVuSans-35"/>
      </g>
     </g>
    </g>
    <g id="xtick_7">
     <g id="line2d_7">
      <g>
       <use style="stroke:#000000;stroke-width:0.8;" x="407.030813" xlink:href="#mea35295c32" y="276.48"/>
      </g>
     </g>
     <g id="text_7">
      <!-- 2022-06 -->
      <g transform="translate(369.805993 310.951846)rotate(-30)scale(0.1 -0.1)">
       <defs>
        <path d="M 2113 2584 
Q 1688 2584 1439 2293 
Q 1191 2003 1191 1497 
Q 1191 994 1439 701 
Q 1688 409 2113 409 
Q 2538 409 2786 701 
Q 3034 994 3034 1497 
Q 3034 2003 2786 2293 
Q 2538 2584 2113 2584 
z
M 3366 4563 
L 3366 3988 
Q 3128 4100 2886 4159 
Q 2644 4219 2406 4219 
Q 1781 4219 1451 3797 
Q 1122 3375 1075 2522 
Q 1259 2794 1537 2939 
Q 1816 3084 2150 3084 
Q 2853 3084 3261 2657 
Q 3669 2231 3669 1497 
Q 3669 778 3244 343 
Q 2819 -91 2113 -91 
Q 1303 -91 875 529 
Q 447 1150 447 2328 
Q 447 3434 972 4092 
Q 1497 4750 2381 4750 
Q 2619 4750 2861 4703 
Q 3103 4656 3366 4563 
z
" id="DejaVuSans-36" transform="scale(0.015625)"/>
       </defs>
       <use xlink:href="#DejaVuSans-32"/>
       <use x="63.623047" xlink:href="#DejaVuSans-30"/>
       <use x="127.246094" xlink:href="#DejaVuSans-32"/>
       <use x="190.869141" xlink:href="#DejaVuSans-32"/>
       <use x="254.492188" xlink:href="#DejaVuSans-2d"/>
       <use x="290.576172" xlink:href="#DejaVuSans-30"/>
       <use x="354.199219" xlink:href="#DejaVuSans-36"/>
      </g>
     </g>
    </g>
    <g id="text_8">
     <!-- date -->
     <g transform="translate(224.885 324.351346)scale(0.1 -0.1)">
      <defs>
       <path d="M 2906 2969 
L 2906 4863 
L 3481 4863 
L 3481 0 
L 2906 0 
L 2906 525 
Q 2725 213 2448 61 
Q 2172 -91 1784 -91 
Q 1150 -91 751 415 
Q 353 922 353 1747 
Q 353 2572 751 3078 
Q 1150 3584 1784 3584 
Q 2172 3584 2448 3432 
Q 2725 3281 2906 2969 
z
M 947 1747 
Q 947 1113 1208 752 
Q 1469 391 1925 391 
Q 2381 391 2643 752 
Q 2906 1113 2906 1747 
Q 2906 2381 2643 2742 
Q 2381 3103 1925 3103 
Q 1469 3103 1208 2742 
Q 947 2381 947 1747 
z
" id="DejaVuSans-64" transform="scale(0.015625)"/>
       <path d="M 2194 1759 
Q 1497 1759 1228 1600 
Q 959 1441 959 1056 
Q 959 750 1161 570 
Q 1363 391 1709 391 
Q 2188 391 2477 730 
Q 2766 1069 2766 1631 
L 2766 1759 
L 2194 1759 
z
M 3341 1997 
L 3341 0 
L 2766 0 
L 2766 531 
Q 2569 213 2275 61 
Q 1981 -91 1556 -91 
Q 1019 -91 701 211 
Q 384 513 384 1019 
Q 384 1609 779 1909 
Q 1175 2209 1959 2209 
L 2766 2209 
L 2766 2266 
Q 2766 2663 2505 2880 
Q 2244 3097 1772 3097 
Q 1472 3097 1187 3025 
Q 903 2953 641 2809 
L 641 3341 
Q 956 3463 1253 3523 
Q 1550 3584 1831 3584 
Q 2591 3584 2966 3190 
Q 3341 2797 3341 1997 
z
" id="DejaVuSans-61" transform="scale(0.015625)"/>
       <path d="M 1172 4494 
L 1172 3500 
L 2356 3500 
L 2356 3053 
L 1172 3053 
L 1172 1153 
Q 1172 725 1289 603 
Q 1406 481 1766 481 
L 2356 481 
L 2356 0 
L 1766 0 
Q 1100 0 847 248 
Q 594 497 594 1153 
L 594 3053 
L 172 3053 
L 172 3500 
L 594 3500 
L 594 4494 
L 1172 4494 
z
" id="DejaVuSans-74" transform="scale(0.015625)"/>
       <path d="M 3597 1894 
L 3597 1613 
L 953 1613 
Q 991 1019 1311 708 
Q 1631 397 2203 397 
Q 2534 397 2845 478 
Q 3156 559 3463 722 
L 3463 178 
Q 3153 47 2828 -22 
Q 2503 -91 2169 -91 
Q 1331 -91 842 396 
Q 353 884 353 1716 
Q 353 2575 817 3079 
Q 1281 3584 2069 3584 
Q 2775 3584 3186 3129 
Q 3597 2675 3597 1894 
z
M 3022 2063 
Q 3016 2534 2758 2815 
Q 2500 3097 2075 3097 
Q 1594 3097 1305 2825 
Q 1016 2553 972 2059 
L 3022 2063 
z
" id="DejaVuSans-65" transform="scale(0.015625)"/>
      </defs>
      <use xlink:href="#DejaVuSans-64"/>
      <use x="63.476562" xlink:href="#DejaVuSans-61"/>
      <use x="124.755859" xlink:href="#DejaVuSans-74"/>
      <use x="163.964844" xlink:href="#DejaVuSans-65"/>
     </g>
    </g>
   </g>
   <g id="matplotlib.axis_2">
    <g id="ytick_1">
     <g id="line2d_8">
      <defs>
       <path d="M 0 0 
L -3.5 0 
" id="mcd3666fc68" style="stroke:#000000;stroke-width:0.8;"/>
      </defs>
      <g>
       <use style="stroke:#000000;stroke-width:0.8;" x="57.6" xlink:href="#mcd3666fc68" y="241.291027"/>
      </g>
     </g>
     <g id="text_9">
      <!-- 50000 -->
      <g transform="translate(18.7875 245.090246)scale(0.1 -0.1)">
       <use xlink:href="#DejaVuSans-35"/>
       <use x="63.623047" xlink:href="#DejaVuSans-30"/>
       <use x="127.246094" xlink:href="#DejaVuSans-30"/>
       <use x="190.869141" xlink:href="#DejaVuSans-30"/>
       <use x="254.492188" xlink:href="#DejaVuSans-30"/>
      </g>
     </g>
    </g>
    <g id="ytick_2">
     <g id="line2d_9">
      <g>
       <use style="stroke:#000000;stroke-width:0.8;" x="57.6" xlink:href="#mcd3666fc68" y="203.091322"/>
      </g>
     </g>
     <g id="text_10">
      <!-- 60000 -->
      <g transform="translate(18.7875 206.890541)scale(0.1 -0.1)">
       <use xlink:href="#DejaVuSans-36"/>
       <use x="63.623047" xlink:href="#DejaVuSans-30"/>
       <use x="127.246094" xlink:href="#DejaVuSans-30"/>
       <use x="190.869141" xlink:href="#DejaVuSans-30"/>
       <use x="254.492188" xlink:href="#DejaVuSans-30"/>
      </g>
     </g>
    </g>
    <g id="ytick_3">
     <g id="line2d_10">
      <g>
       <use style="stroke:#000000;stroke-width:0.8;" x="57.6" xlink:href="#mcd3666fc68" y="164.891618"/>
      </g>
     </g>
     <g id="text_11">
      <!-- 70000 -->
      <g transform="translate(18.7875 168.690836)scale(0.1 -0.1)">
       <defs>
        <path d="M 525 4666 
L 3525 4666 
L 3525 4397 
L 1831 0 
L 1172 0 
L 2766 4134 
L 525 4134 
L 525 4666 
z
" id="DejaVuSans-37" transform="scale(0.015625)"/>
       </defs>
       <use xlink:href="#DejaVuSans-37"/>
       <use x="63.623047" xlink:href="#DejaVuSans-30"/>
       <use x="127.246094" xlink:href="#DejaVuSans-30"/>
       <use x="190.869141" xlink:href="#DejaVuSans-30"/>
       <use x="254.492188" xlink:href="#DejaVuSans-30"/>
      </g>
     </g>
    </g>
    <g id="ytick_4">
     <g id="line2d_11">
      <g>
       <use style="stroke:#000000;stroke-width:0.8;" x="57.6" xlink:href="#mcd3666fc68" y="126.691913"/>
      </g>
     </g>
     <g id="text_12">
      <!-- 80000 -->
      <g transform="translate(18.7875 130.491131)scale(0.1 -0.1)">
       <defs>
        <path d="M 2034 2216 
Q 1584 2216 1326 1975 
Q 1069 1734 1069 1313 
Q 1069 891 1326 650 
Q 1584 409 2034 409 
Q 2484 409 2743 651 
Q 3003 894 3003 1313 
Q 3003 1734 2745 1975 
Q 2488 2216 2034 2216 
z
M 1403 2484 
Q 997 2584 770 2862 
Q 544 3141 544 3541 
Q 544 4100 942 4425 
Q 1341 4750 2034 4750 
Q 2731 4750 3128 4425 
Q 3525 4100 3525 3541 
Q 3525 3141 3298 2862 
Q 3072 2584 2669 2484 
Q 3125 2378 3379 2068 
Q 3634 1759 3634 1313 
Q 3634 634 3220 271 
Q 2806 -91 2034 -91 
Q 1263 -91 848 271 
Q 434 634 434 1313 
Q 434 1759 690 2068 
Q 947 2378 1403 2484 
z
M 1172 3481 
Q 1172 3119 1398 2916 
Q 1625 2713 2034 2713 
Q 2441 2713 2670 2916 
Q 2900 3119 2900 3481 
Q 2900 3844 2670 4047 
Q 2441 4250 2034 4250 
Q 1625 4250 1398 4047 
Q 1172 3844 1172 3481 
z
" id="DejaVuSans-38" transform="scale(0.015625)"/>
       </defs>
       <use xlink:href="#DejaVuSans-38"/>
       <use x="63.623047" xlink:href="#DejaVuSans-30"/>
       <use x="127.246094" xlink:href="#DejaVuSans-30"/>
       <use x="190.869141" xlink:href="#DejaVuSans-30"/>
       <use x="254.492188" xlink:href="#DejaVuSans-30"/>
      </g>
     </g>
    </g>
    <g id="ytick_5">
     <g id="line2d_12">
      <g>
       <use style="stroke:#000000;stroke-width:0.8;" x="57.6" xlink:href="#mcd3666fc68" y="88.492208"/>
      </g>
     </g>
     <g id="text_13">
      <!-- 90000 -->
      <g transform="translate(18.7875 92.291427)scale(0.1 -0.1)">
       <defs>
        <path d="M 703 97 
L 703 672 
Q 941 559 1184 500 
Q 1428 441 1663 441 
Q 2288 441 2617 861 
Q 2947 1281 2994 2138 
Q 2813 1869 2534 1725 
Q 2256 1581 1919 1581 
Q 1219 1581 811 2004 
Q 403 2428 403 3163 
Q 403 3881 828 4315 
Q 1253 4750 1959 4750 
Q 2769 4750 3195 4129 
Q 3622 3509 3622 2328 
Q 3622 1225 3098 567 
Q 2575 -91 1691 -91 
Q 1453 -91 1209 -44 
Q 966 3 703 97 
z
M 1959 2075 
Q 2384 2075 2632 2365 
Q 2881 2656 2881 3163 
Q 2881 3666 2632 3958 
Q 2384 4250 1959 4250 
Q 1534 4250 1286 3958 
Q 1038 3666 1038 3163 
Q 1038 2656 1286 2365 
Q 1534 2075 1959 2075 
z
" id="DejaVuSans-39" transform="scale(0.015625)"/>
       </defs>
       <use xlink:href="#DejaVuSans-39"/>
       <use x="63.623047" xlink:href="#DejaVuSans-30"/>
       <use x="127.246094" xlink:href="#DejaVuSans-30"/>
       <use x="190.869141" xlink:href="#DejaVuSans-30"/>
       <use x="254.492188" xlink:href="#DejaVuSans-30"/>
      </g>
     </g>
    </g>
    <g id="ytick_6">
     <g id="line2d_13">
      <g>
       <use style="stroke:#000000;stroke-width:0.8;" x="57.6" xlink:href="#mcd3666fc68" y="50.292503"/>
      </g>
     </g>
     <g id="text_14">
      <!-- 100000 -->
      <g transform="translate(12.425 54.091722)scale(0.1 -0.1)">
       <use xlink:href="#DejaVuSans-31"/>
       <use x="63.623047" xlink:href="#DejaVuSans-30"/>
       <use x="127.246094" xlink:href="#DejaVuSans-30"/>
       <use x="190.869141" xlink:href="#DejaVuSans-30"/>
       <use x="254.492188" xlink:href="#DejaVuSans-30"/>
       <use x="318.115234" xlink:href="#DejaVuSans-30"/>
      </g>
     </g>
    </g>
   </g>
   <g id="line2d_14">
    <path clip-path="url(#p814bb7ac12)" d="M 73.832727 60.821838 
L 75.541435 56.706687 
L 80.66756 52.154182 
L 82.376268 64.751965 
L 84.084976 64.32828 
L 87.502392 64.380378 
L 92.628517 72.905719 
L 94.337225 81.340756 
L 96.045933 103.979164 
L 97.754641 101.815231 
L 99.463349 120.10529 
L 104.589474 119.873129 
L 106.298182 104.124946 
L 108.00689 97.034927 
L 109.715598 115.493525 
L 111.424306 118.243553 
L 116.550431 132.3704 
L 118.259139 128.428546 
L 119.967847 124.084084 
L 121.676555 131.834788 
L 123.385263 121.096836 
L 128.511388 129.372216 
L 130.220096 117.868873 
L 131.928804 116.661927 
L 133.637512 114.104286 
L 140.472344 114.454733 
L 142.181053 119.450522 
L 143.889761 125.01773 
L 145.598469 118.087347 
L 147.307177 125.765175 
L 152.433301 114.638663 
L 154.14201 123.075832 
L 155.850718 145.444568 
L 157.559426 147.032955 
L 159.268134 143.718604 
L 164.394258 147.934958 
L 166.102967 142.063711 
L 167.811675 139.445898 
L 169.520383 156.767028 
L 171.229091 156.163297 
L 178.063923 170.8343 
L 179.772632 177.173857 
L 181.48134 182.069457 
L 183.190048 192.510394 
L 188.316172 198.568753 
L 190.02488 204.839864 
L 191.733589 204.45814 
L 193.442297 221.595422 
L 195.151005 216.960513 
L 201.985837 186.392412 
L 203.694545 197.070784 
L 205.403254 205.313481 
L 207.111962 196.751979 
L 212.238086 198.751909 
L 213.946794 188.057021 
L 215.655502 173.932588 
L 217.364211 181.79104 
L 219.072919 192.198146 
L 224.199043 197.027697 
L 225.907751 174.171786 
L 227.616459 175.921458 
L 229.325167 189.500495 
L 231.033876 197.733877 
L 237.868708 206.571347 
L 239.577416 214.811822 
L 241.286124 201.218597 
L 242.994833 197.088286 
L 248.120957 186.987031 
L 249.829665 188.386422 
L 251.538373 184.364769 
L 253.247081 197.119896 
L 254.955789 208.369683 
L 260.081914 219.548946 
L 261.790622 215.188146 
L 263.49933 205.451307 
L 265.208038 212.860203 
L 266.916746 226.143327 
L 272.042871 240.113371 
L 273.751579 229.831816 
L 275.460287 210.278983 
L 277.168995 201.943115 
L 278.877703 192.142455 
L 284.003828 191.776344 
L 285.712536 173.267959 
L 287.421244 166.220445 
L 289.129952 162.636068 
L 290.83866 166.153955 
L 295.964785 141.089164 
L 297.673493 130.372149 
L 299.382201 139.850986 
L 301.090909 150.25207 
L 302.799617 151.505989 
L 307.925742 138.053184 
L 309.63445 157.265481 
L 311.343158 168.684026 
L 313.051866 173.649745 
L 314.760574 183.186799 
L 319.886699 185.168385 
L 321.595407 189.198355 
L 323.304115 179.620892 
L 325.012823 187.434264 
L 331.847656 192.619542 
L 333.556364 183.075514 
L 335.265072 196.478255 
L 336.97378 202.755811 
L 338.682488 206.112504 
L 343.808612 203.630436 
L 345.517321 219.943922 
L 347.226029 218.273099 
L 348.934737 216.295096 
L 350.643445 222.406806 
L 355.769569 216.580144 
L 357.478278 214.370232 
L 359.186986 205.505047 
L 360.895694 224.476894 
L 362.604402 231.940196 
L 367.730526 250.002909 
L 369.439234 251.003166 
L 371.147943 265.797818 
L 372.856651 258.005123 
L 374.565359 243.219269 
L 379.691483 247.968944 
L 381.400191 233.499072 
L 383.1089 242.965163 
L 384.817608 237.209922 
L 386.526316 243.457955 
L 391.65244 243.200499 
L 393.361148 255.556589 
L 396.778565 232.794505 
L 398.487273 216.555599 
L 398.487273 216.555599 
" style="fill:none;stroke:#0000ff;stroke-linecap:square;stroke-opacity:0.9;stroke-width:2;"/>
   </g>
   <g id="line2d_15">
    <path clip-path="url(#p814bb7ac12)" d="M 73.832727 60.821838 
L 75.541435 56.565023 
L 80.66756 52.422697 
L 82.376268 64.837924 
L 84.084976 64.612349 
L 87.502392 75.913901 
L 92.628517 73.054863 
L 94.337225 81.301965 
L 96.045933 103.856513 
L 97.754641 102.075094 
L 99.463349 119.887807 
L 104.589474 119.605908 
L 106.298182 104.082661 
L 108.00689 96.777935 
L 109.715598 115.498235 
L 111.424306 118.189184 
L 116.550431 131.788424 
L 118.259139 128.207238 
L 119.967847 124.232613 
L 121.676555 131.806085 
L 123.385263 120.843452 
L 128.511388 129.446371 
L 130.220096 117.553975 
L 131.928804 116.823841 
L 133.637512 114.164987 
L 140.472344 114.939236 
L 142.181053 119.75558 
L 143.889761 125.470185 
L 145.598469 118.369138 
L 147.307177 126.041168 
L 152.433301 114.081294 
L 154.14201 122.614297 
L 155.850718 143.486405 
L 157.559426 145.086008 
L 159.268134 142.295189 
L 164.394258 145.912707 
L 166.102967 139.521711 
L 167.811675 135.52479 
L 169.520383 151.580235 
L 171.229091 150.547801 
L 178.063923 164.360271 
L 179.772632 170.263423 
L 181.48134 175.73748 
L 183.190048 187.290021 
L 188.316172 193.855025 
L 190.02488 199.880088 
L 191.733589 200.482192 
L 193.442297 217.658169 
L 195.151005 212.848029 
L 201.985837 183.790187 
L 203.694545 192.432139 
L 205.403254 200.064214 
L 207.111962 192.358668 
L 212.238086 193.447655 
L 213.946794 183.947774 
L 215.655502 171.588852 
L 217.364211 179.813981 
L 219.072919 191.716592 
L 224.199043 196.276396 
L 225.907751 175.781265 
L 227.616459 177.687905 
L 229.325167 190.408811 
L 231.033876 197.854087 
L 237.868708 205.344233 
L 239.577416 214.09625 
L 241.286124 202.66933 
L 242.994833 196.929643 
L 248.120957 187.994197 
L 249.829665 189.98991 
L 251.538373 185.528334 
L 253.247081 197.732446 
L 254.955789 209.069231 
L 260.081914 220.153065 
L 261.790622 215.666351 
L 263.49933 205.871626 
L 265.208038 212.723388 
L 266.916746 224.766588 
L 272.042871 236.755896 
L 273.751579 227.352176 
L 275.460287 209.375831 
L 277.168995 202.421879 
L 278.877703 194.1213 
L 284.003828 192.238571 
L 285.712536 176.872461 
L 287.421244 171.673937 
L 289.129952 167.546259 
L 290.83866 170.113792 
L 297.673493 139.954108 
L 301.090909 159.137741 
L 302.799617 159.468742 
L 307.925742 147.541808 
L 309.63445 166.107 
L 311.343158 176.19984 
L 313.051866 179.965907 
L 314.760574 188.3307 
L 319.886699 190.709225 
L 321.595407 193.670677 
L 323.304115 184.47064 
L 325.012823 190.762512 
L 331.847656 195.106867 
L 333.556364 186.73073 
L 335.265072 198.86924 
L 336.97378 203.89298 
L 338.682488 207.483175 
L 343.808612 207.201554 
L 345.517321 223.492029 
L 348.934737 219.383098 
L 350.643445 224.687318 
L 355.769569 220.252617 
L 357.478278 217.802936 
L 359.186986 209.262973 
L 360.895694 227.687209 
L 362.604402 232.90916 
L 367.730526 250.022826 
L 369.439234 250.253574 
L 371.147943 262.742881 
L 372.856651 257.97536 
L 374.565359 244.689506 
L 379.691483 248.64414 
L 381.400191 235.603956 
L 383.1089 245.039573 
L 384.817608 240.211012 
L 386.526316 245.402922 
L 391.65244 243.788025 
L 393.361148 254.107892 
L 395.069856 244.182216 
L 396.778565 232.393752 
L 398.487273 219.771996 
L 398.487273 219.771996 
" style="fill:none;stroke:#ff0000;stroke-linecap:square;stroke-opacity:0.9;stroke-width:2;"/>
   </g>
   <g id="line2d_16">
    <path clip-path="url(#p814bb7ac12)" d="M 73.832727 60.821838 
L 75.541435 56.76806 
L 80.66756 52.984095 
L 82.376268 64.366429 
L 84.084976 64.082634 
L 87.502392 75.346715 
L 92.628517 72.491942 
L 94.337225 81.127781 
L 96.045933 104.283882 
L 97.754641 101.591121 
L 99.463349 119.112871 
L 104.589474 118.576098 
L 106.298182 102.93259 
L 108.00689 95.634844 
L 109.715598 114.732953 
L 111.424306 117.898549 
L 116.550431 132.730882 
L 118.259139 127.464166 
L 119.967847 123.213007 
L 121.676555 131.007587 
L 123.385263 117.846829 
L 128.511388 126.395798 
L 130.220096 114.544638 
L 131.928804 114.595084 
L 133.637512 111.84426 
L 140.472344 113.150057 
L 142.181053 118.387973 
L 143.889761 124.206064 
L 145.598469 115.212863 
L 147.307177 123.917417 
L 152.433301 113.045809 
L 154.14201 121.885036 
L 155.850718 143.872327 
L 157.559426 145.861351 
L 159.268134 141.584586 
L 164.394258 145.966665 
L 166.102967 139.877612 
L 167.811675 137.098516 
L 169.520383 154.664144 
L 171.229091 154.334814 
L 178.063923 168.984197 
L 179.772632 175.392835 
L 181.48134 180.316208 
L 183.190048 190.737671 
L 188.316172 196.86566 
L 190.02488 203.078963 
L 191.733589 203.402042 
L 193.442297 220.520442 
L 195.151005 215.482884 
L 201.985837 185.014068 
L 203.694545 195.628036 
L 205.403254 204.192688 
L 207.111962 195.568788 
L 212.238086 197.624699 
L 213.946794 186.783402 
L 215.655502 172.621325 
L 217.364211 180.480318 
L 219.072919 190.8929 
L 224.199043 195.83346 
L 225.907751 173.242645 
L 227.616459 175.209355 
L 229.325167 188.580663 
L 231.033876 196.995242 
L 237.868708 205.632885 
L 239.577416 214.168523 
L 241.286124 200.478241 
L 242.994833 196.627236 
L 248.120957 186.288405 
L 249.829665 187.320334 
L 251.538373 183.705377 
L 253.247081 196.330212 
L 254.955789 207.986061 
L 260.081914 219.645362 
L 261.790622 215.044801 
L 263.49933 205.121855 
L 265.208038 213.092304 
L 266.916746 226.194021 
L 272.042871 240.340871 
L 273.751579 229.806503 
L 275.460287 210.232918 
L 277.168995 202.45833 
L 278.877703 192.828275 
L 284.003828 191.86084 
L 285.712536 172.391284 
L 287.421244 165.032907 
L 289.129952 161.330899 
L 290.83866 164.869046 
L 295.964785 137.683574 
L 297.673493 126.850437 
L 301.090909 147.61228 
L 302.799617 147.870388 
L 307.925742 134.504073 
L 309.63445 154.433629 
L 311.343158 165.033605 
L 313.051866 170.123638 
L 314.760574 179.752182 
L 319.886699 181.631008 
L 321.595407 185.269767 
L 323.304115 175.447875 
L 325.012823 182.992202 
L 331.847656 188.583029 
L 333.556364 179.00632 
L 335.265072 192.318739 
L 336.97378 199.06611 
L 338.682488 202.477982 
L 343.808612 200.025247 
L 345.517321 216.331657 
L 347.226029 214.911608 
L 348.934737 212.894343 
L 350.643445 219.027279 
L 355.769569 213.318239 
L 357.478278 210.991572 
L 359.186986 201.892922 
L 360.895694 221.179042 
L 362.604402 228.918213 
L 367.730526 247.373804 
L 369.439234 248.727799 
L 371.147943 263.32316 
L 372.856651 255.303911 
L 374.565359 240.649566 
L 379.691483 245.423866 
L 381.400191 230.478582 
L 383.1089 240.201193 
L 384.817608 234.236334 
L 386.526316 240.369914 
L 391.65244 240.351199 
L 393.361148 252.5758 
L 396.778565 228.847235 
L 398.487273 213.87021 
L 398.487273 213.87021 
" style="fill:none;stroke:#008000;stroke-linecap:square;stroke-opacity:0.9;stroke-width:2;"/>
   </g>
   <g id="line2d_17">
    <path clip-path="url(#p814bb7ac12)" d="M 73.832727 60.821838 
L 75.541435 56.712003 
L 80.66756 52.989302 
L 82.376268 64.392103 
L 84.084976 63.892017 
L 87.502392 75.322988 
L 92.628517 72.476672 
L 94.337225 80.976629 
L 96.045933 104.182077 
L 97.754641 101.352255 
L 99.463349 119.207219 
L 104.589474 119.024657 
L 106.298182 102.950952 
L 108.00689 95.684247 
L 109.715598 114.824916 
L 111.424306 117.722172 
L 116.550431 132.756351 
L 119.967847 124.203623 
L 121.676555 132.300663 
L 123.385263 118.795992 
L 128.511388 127.274522 
L 130.220096 115.672459 
L 131.928804 115.213329 
L 133.637512 112.392643 
L 140.472344 114.077917 
L 142.181053 119.110172 
L 143.889761 124.962926 
L 145.598469 116.051709 
L 147.307177 124.455567 
L 152.433301 113.568933 
L 154.14201 122.164129 
L 155.850718 144.752341 
L 157.559426 146.290095 
L 159.268134 142.689732 
L 164.394258 146.951551 
L 166.102967 141.232572 
L 167.811675 138.373067 
L 169.520383 156.074258 
L 171.229091 155.477988 
L 178.063923 170.211444 
L 179.772632 176.388522 
L 181.48134 181.196652 
L 183.190048 191.790658 
L 188.316172 197.842258 
L 190.02488 203.804726 
L 191.733589 204.127804 
L 193.442297 221.430125 
L 195.151005 216.301864 
L 201.985837 185.874415 
L 203.694545 196.797682 
L 205.403254 205.133816 
L 207.111962 196.568286 
L 212.238086 198.609656 
L 213.946794 187.653115 
L 215.655502 173.457018 
L 217.364211 181.553537 
L 219.072919 191.563022 
L 224.199043 196.598977 
L 225.907751 173.609386 
L 227.616459 175.823095 
L 229.325167 189.24136 
L 231.033876 197.6629 
L 237.868708 206.255193 
L 239.577416 214.598036 
L 241.286124 200.907234 
L 242.994833 196.854077 
L 248.120957 186.422366 
L 249.829665 187.740924 
L 251.538373 183.665448 
L 253.247081 196.455426 
L 254.955789 207.924064 
L 260.081914 219.603963 
L 261.790622 215.286947 
L 263.49933 205.537101 
L 265.208038 213.234465 
L 266.916746 226.261026 
L 272.042871 240.235879 
L 273.751579 229.89277 
L 275.460287 210.600066 
L 277.168995 202.617759 
L 278.877703 192.998812 
L 284.003828 192.086309 
L 285.712536 172.873798 
L 287.421244 165.660988 
L 289.129952 161.994162 
L 290.83866 165.520543 
L 295.964785 138.111792 
L 297.673493 127.612151 
L 299.382201 137.66933 
L 301.090909 148.553946 
L 302.799617 148.999727 
L 307.925742 135.995608 
L 309.63445 155.402174 
L 311.343158 166.248901 
L 313.051866 171.631329 
L 314.760574 180.822786 
L 319.886699 182.775293 
L 321.595407 186.24877 
L 323.304115 176.983399 
L 325.012823 184.411336 
L 331.847656 189.801863 
L 333.556364 180.157902 
L 335.265072 193.716748 
L 336.97378 200.123679 
L 338.682488 203.315967 
L 343.808612 201.198495 
L 345.517321 217.651644 
L 347.226029 215.856008 
L 348.934737 213.861453 
L 350.643445 220.09412 
L 355.769569 214.329252 
L 357.478278 212.050675 
L 359.186986 203.163515 
L 360.895694 222.353957 
L 362.604402 229.766877 
L 367.730526 248.153614 
L 369.439234 249.386154 
L 371.147943 264.013468 
L 372.856651 256.404655 
L 374.565359 241.707273 
L 379.691483 246.467686 
L 381.400191 231.715206 
L 383.1089 241.034551 
L 384.817608 235.356645 
L 386.526316 241.396031 
L 391.65244 241.140762 
L 393.361148 253.674738 
L 395.069856 241.30187 
L 396.778565 229.877326 
L 398.487273 215.003022 
L 398.487273 215.003022 
" style="fill:none;stroke:#ec5283;stroke-linecap:square;stroke-width:2;"/>
   </g>
   <g id="line2d_18">
    <path clip-path="url(#p814bb7ac12)" d="M 73.832727 60.821838 
L 75.541435 56.914188 
L 80.66756 53.027499 
L 82.376268 64.412554 
L 84.084976 63.804257 
L 87.502392 75.029645 
L 92.628517 72.078936 
L 94.337225 80.766212 
L 96.045933 103.205535 
L 97.754641 100.53254 
L 99.463349 117.814798 
L 104.589474 117.284889 
L 106.298182 101.594466 
L 108.00689 94.830821 
L 109.715598 113.331808 
L 111.424306 116.323817 
L 116.550431 130.713116 
L 118.259139 125.781151 
L 119.967847 121.988375 
L 121.676555 129.585068 
L 123.385263 116.756711 
L 128.511388 124.895152 
L 130.220096 113.419001 
L 131.928804 113.058525 
L 133.637512 110.277142 
L 140.472344 112.168543 
L 142.181053 116.844762 
L 143.889761 122.773259 
L 145.598469 113.999281 
L 147.307177 122.277521 
L 152.433301 111.677508 
L 154.14201 120.203824 
L 155.850718 141.855631 
L 157.559426 143.834103 
L 159.268134 139.445607 
L 164.394258 143.664395 
L 166.102967 138.005773 
L 167.811675 135.341156 
L 169.520383 152.313167 
L 171.229091 151.867609 
L 178.063923 166.256145 
L 179.772632 172.513092 
L 181.48134 177.523543 
L 183.190048 187.435086 
L 188.316172 193.69777 
L 190.02488 199.40198 
L 191.733589 199.915976 
L 193.442297 216.689233 
L 195.151005 211.634296 
L 201.985837 181.826577 
L 203.694545 192.334599 
L 205.403254 200.671065 
L 207.111962 192.426998 
L 212.238086 194.162134 
L 213.946794 183.539011 
L 215.655502 169.812825 
L 217.364211 177.540067 
L 219.072919 187.652618 
L 224.199043 192.681253 
L 225.907751 170.389889 
L 227.616459 172.242563 
L 229.325167 185.615518 
L 231.033876 193.590445 
L 237.868708 201.995464 
L 239.577416 210.324527 
L 241.286124 196.834324 
L 242.994833 193.278139 
L 248.120957 183.195964 
L 249.829665 184.107974 
L 251.538373 180.438103 
L 253.247081 192.9881 
L 254.955789 204.462631 
L 260.081914 215.745455 
L 261.790622 211.249206 
L 263.49933 201.845308 
L 265.208038 209.549161 
L 266.916746 222.131006 
L 272.042871 236.032979 
L 273.751579 225.711701 
L 275.460287 206.660586 
L 277.168995 199.077069 
L 278.877703 189.547121 
L 284.003828 188.559822 
L 285.712536 169.891817 
L 287.421244 162.541813 
L 289.129952 158.881597 
L 290.83866 162.369733 
L 295.964785 135.66377 
L 297.673493 125.460006 
L 299.382201 135.113114 
L 301.090909 145.570477 
L 302.799617 145.625774 
L 307.925742 133.023129 
L 309.63445 151.944434 
L 311.343158 162.496895 
L 313.051866 167.517709 
L 314.760574 176.495081 
L 319.886699 178.777981 
L 321.595407 181.945745 
L 323.304115 172.66733 
L 325.012823 180.1113 
L 331.847656 185.359741 
L 333.556364 176.139813 
L 335.265072 189.35083 
L 336.97378 195.678134 
L 338.682488 198.796575 
L 343.808612 196.504987 
L 345.517321 212.887641 
L 347.226029 211.1977 
L 348.934737 208.988135 
L 350.643445 215.074272 
L 355.769569 209.640907 
L 357.478278 207.32428 
L 359.186986 198.491733 
L 360.895694 217.147328 
L 362.604402 224.596685 
L 367.730526 242.710268 
L 369.439234 243.939464 
L 371.147943 258.345424 
L 372.856651 250.593355 
L 374.565359 236.118057 
L 379.691483 240.682445 
L 381.400191 226.151737 
L 383.1089 235.932694 
L 384.817608 229.885636 
L 386.526316 235.996848 
L 391.65244 235.908364 
L 393.361148 248.118841 
L 396.778565 224.434463 
L 398.487273 209.808724 
L 398.487273 209.808724 
" style="fill:none;stroke:#00ff00;stroke-linecap:square;stroke-opacity:0.9;stroke-width:2;"/>
   </g>
   <g id="line2d_19">
    <path clip-path="url(#p814bb7ac12)" d="M 73.832727 60.821838 
L 75.541435 58.749138 
L 80.66756 58.107102 
L 82.376268 63.248212 
L 84.084976 63.261801 
L 87.502392 73.78356 
L 92.628517 73.980318 
L 94.337225 81.526883 
L 96.045933 103.527244 
L 97.754641 99.633055 
L 99.463349 116.62169 
L 104.589474 113.211946 
L 106.298182 97.302336 
L 108.00689 87.228218 
L 109.715598 107.474905 
L 111.424306 112.741757 
L 116.550431 124.59863 
L 118.259139 121.75129 
L 119.967847 117.519502 
L 121.676555 126.362395 
L 123.385263 110.392395 
L 128.511388 121.109159 
L 130.220096 107.57448 
L 131.928804 108.027885 
L 133.637512 104.293204 
L 140.472344 109.49159 
L 142.181053 115.597493 
L 143.889761 124.394495 
L 145.598469 110.876794 
L 147.307177 121.373465 
L 152.433301 111.939472 
L 154.14201 119.532984 
L 155.850718 145.590156 
L 157.559426 147.575468 
L 159.268134 143.463375 
L 164.394258 148.936612 
L 166.102967 143.418096 
L 167.811675 143.283791 
L 169.520383 161.91126 
L 171.229091 161.959091 
L 178.063923 177.145043 
L 179.772632 184.429754 
L 181.48134 189.369682 
L 183.190048 199.233035 
L 188.316172 202.737871 
L 190.02488 208.808948 
L 191.733589 207.893563 
L 193.442297 224.90374 
L 195.151005 220.173442 
L 200.277129 194.25193 
L 201.985837 186.251245 
L 203.694545 199.502349 
L 205.403254 208.987897 
L 207.111962 199.091492 
L 212.238086 202.253594 
L 213.946794 191.32612 
L 215.655502 175.742028 
L 217.364211 183.510207 
L 219.072919 193.196134 
L 224.199043 197.750697 
L 225.907751 167.805937 
L 227.616459 171.247827 
L 229.325167 186.221776 
L 231.033876 197.235902 
L 237.868708 206.916883 
L 239.577416 214.981489 
L 241.286124 198.930021 
L 242.994833 196.076104 
L 248.120957 184.060113 
L 249.829665 178.943604 
L 251.538373 176.807639 
L 253.247081 192.76437 
L 254.955789 205.016135 
L 260.081914 216.935996 
L 261.790622 213.703043 
L 263.49933 201.683748 
L 265.208038 212.023854 
L 266.916746 224.799325 
L 272.042871 240.582711 
L 273.751579 228.901307 
L 275.460287 206.350098 
L 277.168995 199.729816 
L 278.877703 188.43883 
L 284.003828 187.453 
L 285.712536 164.041386 
L 287.421244 156.485941 
L 289.129952 152.723874 
L 290.83866 159.185072 
L 295.964785 136.642213 
L 297.673493 121.643544 
L 299.382201 128.414813 
L 301.090909 141.494405 
L 302.799617 138.151754 
L 307.925742 125.700778 
L 309.63445 145.64838 
L 311.343158 155.099475 
L 313.051866 159.563116 
L 314.760574 167.680157 
L 319.886699 169.68037 
L 321.595407 172.432717 
L 323.304115 162.509793 
L 325.012823 172.403119 
L 331.847656 179.162371 
L 333.556364 168.57025 
L 335.265072 185.169968 
L 336.97378 193.79932 
L 338.682488 196.295318 
L 343.808612 190.67295 
L 345.517321 206.910917 
L 347.226029 207.013696 
L 348.934737 204.377294 
L 350.643445 211.461213 
L 355.769569 202.518265 
L 357.478278 201.083273 
L 359.186986 190.849854 
L 360.895694 212.240732 
L 362.604402 222.564652 
L 367.730526 243.194443 
L 369.439234 244.323298 
L 371.147943 260.978005 
L 372.856651 250.527159 
L 374.565359 233.270023 
L 379.691483 239.60637 
L 381.400191 223.434361 
L 383.1089 233.829828 
L 384.817608 226.738155 
L 386.526316 234.035741 
L 391.65244 234.527577 
L 393.361148 249.043194 
L 395.069856 235.613928 
L 396.778565 223.505697 
L 398.487273 207.002313 
L 398.487273 207.002313 
" style="fill:none;stroke:#a5b9cf;stroke-linecap:square;stroke-width:2;"/>
   </g>
   <g id="patch_3">
    <path d="M 57.6 276.48 
L 57.6 41.472 
" style="fill:none;stroke:#000000;stroke-linecap:square;stroke-linejoin:miter;stroke-width:0.8;"/>
   </g>
   <g id="patch_4">
    <path d="M 414.72 276.48 
L 414.72 41.472 
" style="fill:none;stroke:#000000;stroke-linecap:square;stroke-linejoin:miter;stroke-width:0.8;"/>
   </g>
   <g id="patch_5">
    <path d="M 57.6 276.48 
L 414.72 276.48 
" style="fill:none;stroke:#000000;stroke-linecap:square;stroke-linejoin:miter;stroke-width:0.8;"/>
   </g>
   <g id="patch_6">
    <path d="M 57.6 41.472 
L 414.72 41.472 
" style="fill:none;stroke:#000000;stroke-linecap:square;stroke-linejoin:miter;stroke-width:0.8;"/>
   </g>
   <g id="text_15">
    <!-- STONKS -->
    <g transform="translate(211.730625 22.034625)scale(0.12 -0.12)">
     <defs>
      <path d="M 3425 4513 
L 3425 3897 
Q 3066 4069 2747 4153 
Q 2428 4238 2131 4238 
Q 1616 4238 1336 4038 
Q 1056 3838 1056 3469 
Q 1056 3159 1242 3001 
Q 1428 2844 1947 2747 
L 2328 2669 
Q 3034 2534 3370 2195 
Q 3706 1856 3706 1288 
Q 3706 609 3251 259 
Q 2797 -91 1919 -91 
Q 1588 -91 1214 -16 
Q 841 59 441 206 
L 441 856 
Q 825 641 1194 531 
Q 1563 422 1919 422 
Q 2459 422 2753 634 
Q 3047 847 3047 1241 
Q 3047 1584 2836 1778 
Q 2625 1972 2144 2069 
L 1759 2144 
Q 1053 2284 737 2584 
Q 422 2884 422 3419 
Q 422 4038 858 4394 
Q 1294 4750 2059 4750 
Q 2388 4750 2728 4690 
Q 3069 4631 3425 4513 
z
" id="DejaVuSans-53" transform="scale(0.015625)"/>
      <path d="M -19 4666 
L 3928 4666 
L 3928 4134 
L 2272 4134 
L 2272 0 
L 1638 0 
L 1638 4134 
L -19 4134 
L -19 4666 
z
" id="DejaVuSans-54" transform="scale(0.015625)"/>
      <path d="M 2522 4238 
Q 1834 4238 1429 3725 
Q 1025 3213 1025 2328 
Q 1025 1447 1429 934 
Q 1834 422 2522 422 
Q 3209 422 3611 934 
Q 4013 1447 4013 2328 
Q 4013 3213 3611 3725 
Q 3209 4238 2522 4238 
z
M 2522 4750 
Q 3503 4750 4090 4092 
Q 4678 3434 4678 2328 
Q 4678 1225 4090 567 
Q 3503 -91 2522 -91 
Q 1538 -91 948 565 
Q 359 1222 359 2328 
Q 359 3434 948 4092 
Q 1538 4750 2522 4750 
z
" id="DejaVuSans-4f" transform="scale(0.015625)"/>
      <path d="M 628 4666 
L 1478 4666 
L 3547 763 
L 3547 4666 
L 4159 4666 
L 4159 0 
L 3309 0 
L 1241 3903 
L 1241 0 
L 628 0 
L 628 4666 
z
" id="DejaVuSans-4e" transform="scale(0.015625)"/>
      <path d="M 628 4666 
L 1259 4666 
L 1259 2694 
L 3353 4666 
L 4166 4666 
L 1850 2491 
L 4331 0 
L 3500 0 
L 1259 2247 
L 1259 0 
L 628 0 
L 628 4666 
z
" id="DejaVuSans-4b" transform="scale(0.015625)"/>
     </defs>
     <use xlink:href="#DejaVuSans-53"/>
     <use x="63.476562" xlink:href="#DejaVuSans-54"/>
     <use x="124.560547" xlink:href="#DejaVuSans-4f"/>
     <use x="203.271484" xlink:href="#DejaVuSans-4e"/>
     <use x="278.076172" xlink:href="#DejaVuSans-4b"/>
     <use x="343.652344" xlink:href="#DejaVuSans-53"/>
    </g>
    <!-- daily_report -->
    <g transform="translate(200.466563 35.472)scale(0.12 -0.12)">
     <defs>
      <path d="M 603 3500 
L 1178 3500 
L 1178 0 
L 603 0 
L 603 3500 
z
M 603 4863 
L 1178 4863 
L 1178 4134 
L 603 4134 
L 603 4863 
z
" id="DejaVuSans-69" transform="scale(0.015625)"/>
      <path d="M 603 4863 
L 1178 4863 
L 1178 0 
L 603 0 
L 603 4863 
z
" id="DejaVuSans-6c" transform="scale(0.015625)"/>
      <path d="M 2059 -325 
Q 1816 -950 1584 -1140 
Q 1353 -1331 966 -1331 
L 506 -1331 
L 506 -850 
L 844 -850 
Q 1081 -850 1212 -737 
Q 1344 -625 1503 -206 
L 1606 56 
L 191 3500 
L 800 3500 
L 1894 763 
L 2988 3500 
L 3597 3500 
L 2059 -325 
z
" id="DejaVuSans-79" transform="scale(0.015625)"/>
      <path d="M 3263 -1063 
L 3263 -1509 
L -63 -1509 
L -63 -1063 
L 3263 -1063 
z
" id="DejaVuSans-5f" transform="scale(0.015625)"/>
      <path d="M 2631 2963 
Q 2534 3019 2420 3045 
Q 2306 3072 2169 3072 
Q 1681 3072 1420 2755 
Q 1159 2438 1159 1844 
L 1159 0 
L 581 0 
L 581 3500 
L 1159 3500 
L 1159 2956 
Q 1341 3275 1631 3429 
Q 1922 3584 2338 3584 
Q 2397 3584 2469 3576 
Q 2541 3569 2628 3553 
L 2631 2963 
z
" id="DejaVuSans-72" transform="scale(0.015625)"/>
      <path d="M 1159 525 
L 1159 -1331 
L 581 -1331 
L 581 3500 
L 1159 3500 
L 1159 2969 
Q 1341 3281 1617 3432 
Q 1894 3584 2278 3584 
Q 2916 3584 3314 3078 
Q 3713 2572 3713 1747 
Q 3713 922 3314 415 
Q 2916 -91 2278 -91 
Q 1894 -91 1617 61 
Q 1341 213 1159 525 
z
M 3116 1747 
Q 3116 2381 2855 2742 
Q 2594 3103 2138 3103 
Q 1681 3103 1420 2742 
Q 1159 2381 1159 1747 
Q 1159 1113 1420 752 
Q 1681 391 2138 391 
Q 2594 391 2855 752 
Q 3116 1113 3116 1747 
z
" id="DejaVuSans-70" transform="scale(0.015625)"/>
      <path d="M 1959 3097 
Q 1497 3097 1228 2736 
Q 959 2375 959 1747 
Q 959 1119 1226 758 
Q 1494 397 1959 397 
Q 2419 397 2687 759 
Q 2956 1122 2956 1747 
Q 2956 2369 2687 2733 
Q 2419 3097 1959 3097 
z
M 1959 3584 
Q 2709 3584 3137 3096 
Q 3566 2609 3566 1747 
Q 3566 888 3137 398 
Q 2709 -91 1959 -91 
Q 1206 -91 779 398 
Q 353 888 353 1747 
Q 353 2609 779 3096 
Q 1206 3584 1959 3584 
z
" id="DejaVuSans-6f" transform="scale(0.015625)"/>
     </defs>
     <use xlink:href="#DejaVuSans-64"/>
     <use x="63.476562" xlink:href="#DejaVuSans-61"/>
     <use x="124.755859" xlink:href="#DejaVuSans-69"/>
     <use x="152.539062" xlink:href="#DejaVuSans-6c"/>
     <use x="180.322266" xlink:href="#DejaVuSans-79"/>
     <use x="239.501953" xlink:href="#DejaVuSans-5f"/>
     <use x="289.501953" xlink:href="#DejaVuSans-72"/>
     <use x="328.365234" xlink:href="#DejaVuSans-65"/>
     <use x="389.888672" xlink:href="#DejaVuSans-70"/>
     <use x="453.365234" xlink:href="#DejaVuSans-6f"/>
     <use x="514.546875" xlink:href="#DejaVuSans-72"/>
     <use x="555.660156" xlink:href="#DejaVuSans-74"/>
    </g>
   </g>
   <g id="legend_1">
    <g id="patch_7">
     <path d="M 179.138125 137.54075 
L 293.181875 137.54075 
Q 295.181875 137.54075 295.181875 135.54075 
L 295.181875 48.472 
Q 295.181875 46.472 293.181875 46.472 
L 179.138125 46.472 
Q 177.138125 46.472 177.138125 48.472 
L 177.138125 135.54075 
Q 177.138125 137.54075 179.138125 137.54075 
z
" style="fill:#ffffff;opacity:0.8;stroke:#cccccc;stroke-linejoin:miter;"/>
    </g>
    <g id="line2d_20">
     <path d="M 181.138125 54.570437 
L 201.138125 54.570437 
" style="fill:none;stroke:#0000ff;stroke-linecap:square;stroke-opacity:0.9;stroke-width:2;"/>
    </g>
    <g id="line2d_21"/>
    <g id="text_16">
     <!-- alpaca -->
     <g transform="translate(209.138125 58.070437)scale(0.1 -0.1)">
      <defs>
       <path d="M 3122 3366 
L 3122 2828 
Q 2878 2963 2633 3030 
Q 2388 3097 2138 3097 
Q 1578 3097 1268 2742 
Q 959 2388 959 1747 
Q 959 1106 1268 751 
Q 1578 397 2138 397 
Q 2388 397 2633 464 
Q 2878 531 3122 666 
L 3122 134 
Q 2881 22 2623 -34 
Q 2366 -91 2075 -91 
Q 1284 -91 818 406 
Q 353 903 353 1747 
Q 353 2603 823 3093 
Q 1294 3584 2113 3584 
Q 2378 3584 2631 3529 
Q 2884 3475 3122 3366 
z
" id="DejaVuSans-63" transform="scale(0.015625)"/>
      </defs>
      <use xlink:href="#DejaVuSans-61"/>
      <use x="61.279297" xlink:href="#DejaVuSans-6c"/>
      <use x="89.0625" xlink:href="#DejaVuSans-70"/>
      <use x="152.539062" xlink:href="#DejaVuSans-61"/>
      <use x="213.818359" xlink:href="#DejaVuSans-63"/>
      <use x="268.798828" xlink:href="#DejaVuSans-61"/>
     </g>
    </g>
    <g id="line2d_22">
     <path d="M 181.138125 69.248562 
L 201.138125 69.248562 
" style="fill:none;stroke:#ff0000;stroke-linecap:square;stroke-opacity:0.9;stroke-width:2;"/>
    </g>
    <g id="line2d_23"/>
    <g id="text_17">
     <!-- mattress -->
     <g transform="translate(209.138125 72.748562)scale(0.1 -0.1)">
      <defs>
       <path d="M 3328 2828 
Q 3544 3216 3844 3400 
Q 4144 3584 4550 3584 
Q 5097 3584 5394 3201 
Q 5691 2819 5691 2113 
L 5691 0 
L 5113 0 
L 5113 2094 
Q 5113 2597 4934 2840 
Q 4756 3084 4391 3084 
Q 3944 3084 3684 2787 
Q 3425 2491 3425 1978 
L 3425 0 
L 2847 0 
L 2847 2094 
Q 2847 2600 2669 2842 
Q 2491 3084 2119 3084 
Q 1678 3084 1418 2786 
Q 1159 2488 1159 1978 
L 1159 0 
L 581 0 
L 581 3500 
L 1159 3500 
L 1159 2956 
Q 1356 3278 1631 3431 
Q 1906 3584 2284 3584 
Q 2666 3584 2933 3390 
Q 3200 3197 3328 2828 
z
" id="DejaVuSans-6d" transform="scale(0.015625)"/>
       <path d="M 2834 3397 
L 2834 2853 
Q 2591 2978 2328 3040 
Q 2066 3103 1784 3103 
Q 1356 3103 1142 2972 
Q 928 2841 928 2578 
Q 928 2378 1081 2264 
Q 1234 2150 1697 2047 
L 1894 2003 
Q 2506 1872 2764 1633 
Q 3022 1394 3022 966 
Q 3022 478 2636 193 
Q 2250 -91 1575 -91 
Q 1294 -91 989 -36 
Q 684 19 347 128 
L 347 722 
Q 666 556 975 473 
Q 1284 391 1588 391 
Q 1994 391 2212 530 
Q 2431 669 2431 922 
Q 2431 1156 2273 1281 
Q 2116 1406 1581 1522 
L 1381 1569 
Q 847 1681 609 1914 
Q 372 2147 372 2553 
Q 372 3047 722 3315 
Q 1072 3584 1716 3584 
Q 2034 3584 2315 3537 
Q 2597 3491 2834 3397 
z
" id="DejaVuSans-73" transform="scale(0.015625)"/>
      </defs>
      <use xlink:href="#DejaVuSans-6d"/>
      <use x="97.412109" xlink:href="#DejaVuSans-61"/>
      <use x="158.691406" xlink:href="#DejaVuSans-74"/>
      <use x="197.900391" xlink:href="#DejaVuSans-74"/>
      <use x="237.109375" xlink:href="#DejaVuSans-72"/>
      <use x="275.972656" xlink:href="#DejaVuSans-65"/>
      <use x="337.496094" xlink:href="#DejaVuSans-73"/>
      <use x="389.595703" xlink:href="#DejaVuSans-73"/>
     </g>
    </g>
    <g id="line2d_24">
     <path d="M 181.138125 83.926687 
L 201.138125 83.926687 
" style="fill:none;stroke:#008000;stroke-linecap:square;stroke-opacity:0.9;stroke-width:2;"/>
    </g>
    <g id="line2d_25"/>
    <g id="text_18">
     <!-- daily-open-rebal -->
     <g transform="translate(209.138125 87.426687)scale(0.1 -0.1)">
      <defs>
       <path d="M 3513 2113 
L 3513 0 
L 2938 0 
L 2938 2094 
Q 2938 2591 2744 2837 
Q 2550 3084 2163 3084 
Q 1697 3084 1428 2787 
Q 1159 2491 1159 1978 
L 1159 0 
L 581 0 
L 581 3500 
L 1159 3500 
L 1159 2956 
Q 1366 3272 1645 3428 
Q 1925 3584 2291 3584 
Q 2894 3584 3203 3211 
Q 3513 2838 3513 2113 
z
" id="DejaVuSans-6e" transform="scale(0.015625)"/>
       <path d="M 3116 1747 
Q 3116 2381 2855 2742 
Q 2594 3103 2138 3103 
Q 1681 3103 1420 2742 
Q 1159 2381 1159 1747 
Q 1159 1113 1420 752 
Q 1681 391 2138 391 
Q 2594 391 2855 752 
Q 3116 1113 3116 1747 
z
M 1159 2969 
Q 1341 3281 1617 3432 
Q 1894 3584 2278 3584 
Q 2916 3584 3314 3078 
Q 3713 2572 3713 1747 
Q 3713 922 3314 415 
Q 2916 -91 2278 -91 
Q 1894 -91 1617 61 
Q 1341 213 1159 525 
L 1159 0 
L 581 0 
L 581 4863 
L 1159 4863 
L 1159 2969 
z
" id="DejaVuSans-62" transform="scale(0.015625)"/>
      </defs>
      <use xlink:href="#DejaVuSans-64"/>
      <use x="63.476562" xlink:href="#DejaVuSans-61"/>
      <use x="124.755859" xlink:href="#DejaVuSans-69"/>
      <use x="152.539062" xlink:href="#DejaVuSans-6c"/>
      <use x="180.322266" xlink:href="#DejaVuSans-79"/>
      <use x="237.751953" xlink:href="#DejaVuSans-2d"/>
      <use x="275.710938" xlink:href="#DejaVuSans-6f"/>
      <use x="336.892578" xlink:href="#DejaVuSans-70"/>
      <use x="400.369141" xlink:href="#DejaVuSans-65"/>
      <use x="461.892578" xlink:href="#DejaVuSans-6e"/>
      <use x="525.271484" xlink:href="#DejaVuSans-2d"/>
      <use x="561.355469" xlink:href="#DejaVuSans-72"/>
      <use x="600.21875" xlink:href="#DejaVuSans-65"/>
      <use x="661.742188" xlink:href="#DejaVuSans-62"/>
      <use x="725.21875" xlink:href="#DejaVuSans-61"/>
      <use x="786.498047" xlink:href="#DejaVuSans-6c"/>
     </g>
    </g>
    <g id="line2d_26">
     <path d="M 181.138125 98.604812 
L 201.138125 98.604812 
" style="fill:none;stroke:#ec5283;stroke-linecap:square;stroke-width:2;"/>
    </g>
    <g id="line2d_27"/>
    <g id="text_19">
     <!-- daily-close-rebal -->
     <g transform="translate(209.138125 102.104812)scale(0.1 -0.1)">
      <use xlink:href="#DejaVuSans-64"/>
      <use x="63.476562" xlink:href="#DejaVuSans-61"/>
      <use x="124.755859" xlink:href="#DejaVuSans-69"/>
      <use x="152.539062" xlink:href="#DejaVuSans-6c"/>
      <use x="180.322266" xlink:href="#DejaVuSans-79"/>
      <use x="237.751953" xlink:href="#DejaVuSans-2d"/>
      <use x="273.835938" xlink:href="#DejaVuSans-63"/>
      <use x="328.816406" xlink:href="#DejaVuSans-6c"/>
      <use x="356.599609" xlink:href="#DejaVuSans-6f"/>
      <use x="417.78125" xlink:href="#DejaVuSans-73"/>
      <use x="469.880859" xlink:href="#DejaVuSans-65"/>
      <use x="531.404297" xlink:href="#DejaVuSans-2d"/>
      <use x="567.488281" xlink:href="#DejaVuSans-72"/>
      <use x="606.351562" xlink:href="#DejaVuSans-65"/>
      <use x="667.875" xlink:href="#DejaVuSans-62"/>
      <use x="731.351562" xlink:href="#DejaVuSans-61"/>
      <use x="792.630859" xlink:href="#DejaVuSans-6c"/>
     </g>
    </g>
    <g id="line2d_28">
     <path d="M 181.138125 113.282937 
L 201.138125 113.282937 
" style="fill:none;stroke:#00ff00;stroke-linecap:square;stroke-opacity:0.9;stroke-width:2;"/>
    </g>
    <g id="line2d_29"/>
    <g id="text_20">
     <!-- trader-baseline -->
     <g transform="translate(209.138125 116.782937)scale(0.1 -0.1)">
      <use xlink:href="#DejaVuSans-74"/>
      <use x="39.208984" xlink:href="#DejaVuSans-72"/>
      <use x="80.322266" xlink:href="#DejaVuSans-61"/>
      <use x="141.601562" xlink:href="#DejaVuSans-64"/>
      <use x="205.078125" xlink:href="#DejaVuSans-65"/>
      <use x="266.601562" xlink:href="#DejaVuSans-72"/>
      <use x="301.339844" xlink:href="#DejaVuSans-2d"/>
      <use x="337.423828" xlink:href="#DejaVuSans-62"/>
      <use x="400.900391" xlink:href="#DejaVuSans-61"/>
      <use x="462.179688" xlink:href="#DejaVuSans-73"/>
      <use x="514.279297" xlink:href="#DejaVuSans-65"/>
      <use x="575.802734" xlink:href="#DejaVuSans-6c"/>
      <use x="603.585938" xlink:href="#DejaVuSans-69"/>
      <use x="631.369141" xlink:href="#DejaVuSans-6e"/>
      <use x="694.748047" xlink:href="#DejaVuSans-65"/>
     </g>
    </g>
    <g id="line2d_30">
     <path d="M 181.138125 127.961062 
L 201.138125 127.961062 
" style="fill:none;stroke:#a5b9cf;stroke-linecap:square;stroke-width:2;"/>
    </g>
    <g id="line2d_31"/>
    <g id="text_21">
     <!-- default-cfg -->
     <g transform="translate(209.138125 131.461062)scale(0.1 -0.1)">
      <defs>
       <path d="M 2375 4863 
L 2375 4384 
L 1825 4384 
Q 1516 4384 1395 4259 
Q 1275 4134 1275 3809 
L 1275 3500 
L 2222 3500 
L 2222 3053 
L 1275 3053 
L 1275 0 
L 697 0 
L 697 3053 
L 147 3053 
L 147 3500 
L 697 3500 
L 697 3744 
Q 697 4328 969 4595 
Q 1241 4863 1831 4863 
L 2375 4863 
z
" id="DejaVuSans-66" transform="scale(0.015625)"/>
       <path d="M 544 1381 
L 544 3500 
L 1119 3500 
L 1119 1403 
Q 1119 906 1312 657 
Q 1506 409 1894 409 
Q 2359 409 2629 706 
Q 2900 1003 2900 1516 
L 2900 3500 
L 3475 3500 
L 3475 0 
L 2900 0 
L 2900 538 
Q 2691 219 2414 64 
Q 2138 -91 1772 -91 
Q 1169 -91 856 284 
Q 544 659 544 1381 
z
M 1991 3584 
L 1991 3584 
z
" id="DejaVuSans-75" transform="scale(0.015625)"/>
       <path d="M 2906 1791 
Q 2906 2416 2648 2759 
Q 2391 3103 1925 3103 
Q 1463 3103 1205 2759 
Q 947 2416 947 1791 
Q 947 1169 1205 825 
Q 1463 481 1925 481 
Q 2391 481 2648 825 
Q 2906 1169 2906 1791 
z
M 3481 434 
Q 3481 -459 3084 -895 
Q 2688 -1331 1869 -1331 
Q 1566 -1331 1297 -1286 
Q 1028 -1241 775 -1147 
L 775 -588 
Q 1028 -725 1275 -790 
Q 1522 -856 1778 -856 
Q 2344 -856 2625 -561 
Q 2906 -266 2906 331 
L 2906 616 
Q 2728 306 2450 153 
Q 2172 0 1784 0 
Q 1141 0 747 490 
Q 353 981 353 1791 
Q 353 2603 747 3093 
Q 1141 3584 1784 3584 
Q 2172 3584 2450 3431 
Q 2728 3278 2906 2969 
L 2906 3500 
L 3481 3500 
L 3481 434 
z
" id="DejaVuSans-67" transform="scale(0.015625)"/>
      </defs>
      <use xlink:href="#DejaVuSans-64"/>
      <use x="63.476562" xlink:href="#DejaVuSans-65"/>
      <use x="125" xlink:href="#DejaVuSans-66"/>
      <use x="160.205078" xlink:href="#DejaVuSans-61"/>
      <use x="221.484375" xlink:href="#DejaVuSans-75"/>
      <use x="284.863281" xlink:href="#DejaVuSans-6c"/>
      <use x="312.646484" xlink:href="#DejaVuSans-74"/>
      <use x="351.855469" xlink:href="#DejaVuSans-2d"/>
      <use x="387.939453" xlink:href="#DejaVuSans-63"/>
      <use x="442.919922" xlink:href="#DejaVuSans-66"/>
      <use x="478.125" xlink:href="#DejaVuSans-67"/>
     </g>
    </g>
   </g>
  </g>
 </g>
 <defs>
  <clipPath id="p814bb7ac12">
   <rect height="235.008" width="357.12" x="57.6" y="41.472"/>
  </clipPath>
 </defs>
</svg>
