<?xml version="1.0" encoding="utf-8" standalone="no"?>
<!DOCTYPE svg PUBLIC "-//W3C//DTD SVG 1.1//EN"
  "http://www.w3.org/Graphics/SVG/1.1/DTD/svg11.dtd">
<svg height="345.6pt" version="1.1" viewBox="0 0 460.8 345.6" width="460.8pt" xmlns="http://www.w3.org/2000/svg" xmlns:xlink="http://www.w3.org/1999/xlink">
 <metadata>
  <rdf:RDF xmlns:cc="http://creativecommons.org/ns#" xmlns:dc="http://purl.org/dc/elements/1.1/" xmlns:rdf="http://www.w3.org/1999/02/22-rdf-syntax-ns#">
   <cc:Work>
    <dc:type rdf:resource="http://purl.org/dc/dcmitype/StillImage"/>
    <dc:date>2022-05-29T10:01:51.719991</dc:date>
    <dc:format>image/svg+xml</dc:format>
    <dc:creator>
     <cc:Agent>
      <dc:title>Matplotlib v3.4.3, https://matplotlib.org/</dc:title>
     </cc:Agent>
    </dc:creator>
   </cc:Work>
  </rdf:RDF>
 </metadata>
 <defs>
  <style type="text/css">*{stroke-linecap:butt;stroke-linejoin:round;}</style>
 </defs>
 <g id="figure_1">
  <g id="patch_1">
   <path d="M 0 345.6 
L 460.8 345.6 
L 460.8 0 
L 0 0 
z
" style="fill:#ffffff;"/>
  </g>
  <g id="axes_1">
   <g id="patch_2">
    <path d="M 57.6 276.48 
L 414.72 276.48 
L 414.72 41.472 
L 57.6 41.472 
z
" style="fill:#ffffff;"/>
   </g>
   <g id="matplotlib.axis_1">
    <g id="xtick_1">
     <g id="line2d_1">
      <defs>
       <path d="M 0 0 
L 0 3.5 
" id="m1c45c8bfbf" style="stroke:#000000;stroke-width:0.8;"/>
      </defs>
      <g>
       <use style="stroke:#000000;stroke-width:0.8;" x="96.045933" xlink:href="#m1c45c8bfbf" y="276.48"/>
      </g>
     </g>
     <g id="text_1">
      <!-- 2021-12 -->
      <g transform="translate(58.821112 310.951846)rotate(-30)scale(0.1 -0.1)">
       <defs>
        <path d="M 1228 531 
L 3431 531 
L 3431 0 
L 469 0 
L 469 531 
Q 828 903 1448 1529 
Q 2069 2156 2228 2338 
Q 2531 2678 2651 2914 
Q 2772 3150 2772 3378 
Q 2772 3750 2511 3984 
Q 2250 4219 1831 4219 
Q 1534 4219 1204 4116 
Q 875 4013 500 3803 
L 500 4441 
Q 881 4594 1212 4672 
Q 1544 4750 1819 4750 
Q 2544 4750 2975 4387 
Q 3406 4025 3406 3419 
Q 3406 3131 3298 2873 
Q 3191 2616 2906 2266 
Q 2828 2175 2409 1742 
Q 1991 1309 1228 531 
z
" id="DejaVuSans-32" transform="scale(0.015625)"/>
        <path d="M 2034 4250 
Q 1547 4250 1301 3770 
Q 1056 3291 1056 2328 
Q 1056 1369 1301 889 
Q 1547 409 2034 409 
Q 2525 409 2770 889 
Q 3016 1369 3016 2328 
Q 3016 3291 2770 3770 
Q 2525 4250 2034 4250 
z
M 2034 4750 
Q 2819 4750 3233 4129 
Q 3647 3509 3647 2328 
Q 3647 1150 3233 529 
Q 2819 -91 2034 -91 
Q 1250 -91 836 529 
Q 422 1150 422 2328 
Q 422 3509 836 4129 
Q 1250 4750 2034 4750 
z
" id="DejaVuSans-30" transform="scale(0.015625)"/>
        <path d="M 794 531 
L 1825 531 
L 1825 4091 
L 703 3866 
L 703 4441 
L 1819 4666 
L 2450 4666 
L 2450 531 
L 3481 531 
L 3481 0 
L 794 0 
L 794 531 
z
" id="DejaVuSans-31" transform="scale(0.015625)"/>
        <path d="M 313 2009 
L 1997 2009 
L 1997 1497 
L 313 1497 
L 313 2009 
z
" id="DejaVuSans-2d" transform="scale(0.015625)"/>
       </defs>
       <use xlink:href="#DejaVuSans-32"/>
       <use x="63.623047" xlink:href="#DejaVuSans-30"/>
       <use x="127.246094" xlink:href="#DejaVuSans-32"/>
       <use x="190.869141" xlink:href="#DejaVuSans-31"/>
       <use x="254.492188" xlink:href="#DejaVuSans-2d"/>
       <use x="290.576172" xlink:href="#DejaVuSans-31"/>
       <use x="354.199219" xlink:href="#DejaVuSans-32"/>
      </g>
     </g>
    </g>
    <g id="xtick_2">
     <g id="line2d_2">
      <g>
       <use style="stroke:#000000;stroke-width:0.8;" x="149.015885" xlink:href="#m1c45c8bfbf" y="276.48"/>
      </g>
     </g>
     <g id="text_2">
      <!-- 2022-01 -->
      <g transform="translate(111.791064 310.951846)rotate(-30)scale(0.1 -0.1)">
       <use xlink:href="#DejaVuSans-32"/>
       <use x="63.623047" xlink:href="#DejaVuSans-30"/>
       <use x="127.246094" xlink:href="#DejaVuSans-32"/>
       <use x="190.869141" xlink:href="#DejaVuSans-32"/>
       <use x="254.492188" xlink:href="#DejaVuSans-2d"/>
       <use x="290.576172" xlink:href="#DejaVuSans-30"/>
       <use x="354.199219" xlink:href="#DejaVuSans-31"/>
      </g>
     </g>
    </g>
    <g id="xtick_3">
     <g id="line2d_3">
      <g>
       <use style="stroke:#000000;stroke-width:0.8;" x="201.985837" xlink:href="#m1c45c8bfbf" y="276.48"/>
      </g>
     </g>
     <g id="text_3">
      <!-- 2022-02 -->
      <g transform="translate(164.761017 310.951846)rotate(-30)scale(0.1 -0.1)">
       <use xlink:href="#DejaVuSans-32"/>
       <use x="63.623047" xlink:href="#DejaVuSans-30"/>
       <use x="127.246094" xlink:href="#DejaVuSans-32"/>
       <use x="190.869141" xlink:href="#DejaVuSans-32"/>
       <use x="254.492188" xlink:href="#DejaVuSans-2d"/>
       <use x="290.576172" xlink:href="#DejaVuSans-30"/>
       <use x="354.199219" xlink:href="#DejaVuSans-32"/>
      </g>
     </g>
    </g>
    <g id="xtick_4">
     <g id="line2d_4">
      <g>
       <use style="stroke:#000000;stroke-width:0.8;" x="249.829665" xlink:href="#m1c45c8bfbf" y="276.48"/>
      </g>
     </g>
     <g id="text_4">
      <!-- 2022-03 -->
      <g transform="translate(212.604844 310.951846)rotate(-30)scale(0.1 -0.1)">
       <defs>
        <path d="M 2597 2516 
Q 3050 2419 3304 2112 
Q 3559 1806 3559 1356 
Q 3559 666 3084 287 
Q 2609 -91 1734 -91 
Q 1441 -91 1130 -33 
Q 819 25 488 141 
L 488 750 
Q 750 597 1062 519 
Q 1375 441 1716 441 
Q 2309 441 2620 675 
Q 2931 909 2931 1356 
Q 2931 1769 2642 2001 
Q 2353 2234 1838 2234 
L 1294 2234 
L 1294 2753 
L 1863 2753 
Q 2328 2753 2575 2939 
Q 2822 3125 2822 3475 
Q 2822 3834 2567 4026 
Q 2313 4219 1838 4219 
Q 1578 4219 1281 4162 
Q 984 4106 628 3988 
L 628 4550 
Q 988 4650 1302 4700 
Q 1616 4750 1894 4750 
Q 2613 4750 3031 4423 
Q 3450 4097 3450 3541 
Q 3450 3153 3228 2886 
Q 3006 2619 2597 2516 
z
" id="DejaVuSans-33" transform="scale(0.015625)"/>
       </defs>
       <use xlink:href="#DejaVuSans-32"/>
       <use x="63.623047" xlink:href="#DejaVuSans-30"/>
       <use x="127.246094" xlink:href="#DejaVuSans-32"/>
       <use x="190.869141" xlink:href="#DejaVuSans-32"/>
       <use x="254.492188" xlink:href="#DejaVuSans-2d"/>
       <use x="290.576172" xlink:href="#DejaVuSans-30"/>
       <use x="354.199219" xlink:href="#DejaVuSans-33"/>
      </g>
     </g>
    </g>
    <g id="xtick_5">
     <g id="line2d_5">
      <g>
       <use style="stroke:#000000;stroke-width:0.8;" x="302.799617" xlink:href="#m1c45c8bfbf" y="276.48"/>
      </g>
     </g>
     <g id="text_5">
      <!-- 2022-04 -->
      <g transform="translate(265.574796 310.951846)rotate(-30)scale(0.1 -0.1)">
       <defs>
        <path d="M 2419 4116 
L 825 1625 
L 2419 1625 
L 2419 4116 
z
M 2253 4666 
L 3047 4666 
L 3047 1625 
L 3713 1625 
L 3713 1100 
L 3047 1100 
L 3047 0 
L 2419 0 
L 2419 1100 
L 313 1100 
L 313 1709 
L 2253 4666 
z
" id="DejaVuSans-34" transform="scale(0.015625)"/>
       </defs>
       <use xlink:href="#DejaVuSans-32"/>
       <use x="63.623047" xlink:href="#DejaVuSans-30"/>
       <use x="127.246094" xlink:href="#DejaVuSans-32"/>
       <use x="190.869141" xlink:href="#DejaVuSans-32"/>
       <use x="254.492188" xlink:href="#DejaVuSans-2d"/>
       <use x="290.576172" xlink:href="#DejaVuSans-30"/>
       <use x="354.199219" xlink:href="#DejaVuSans-34"/>
      </g>
     </g>
    </g>
    <g id="xtick_6">
     <g id="line2d_6">
      <g>
       <use style="stroke:#000000;stroke-width:0.8;" x="354.060861" xlink:href="#m1c45c8bfbf" y="276.48"/>
      </g>
     </g>
     <g id="text_6">
      <!-- 2022-05 -->
      <g transform="translate(316.83604 310.951846)rotate(-30)scale(0.1 -0.1)">
       <defs>
        <path d="M 691 4666 
L 3169 4666 
L 3169 4134 
L 1269 4134 
L 1269 2991 
Q 1406 3038 1543 3061 
Q 1681 3084 1819 3084 
Q 2600 3084 3056 2656 
Q 3513 2228 3513 1497 
Q 3513 744 3044 326 
Q 2575 -91 1722 -91 
Q 1428 -91 1123 -41 
Q 819 9 494 109 
L 494 744 
Q 775 591 1075 516 
Q 1375 441 1709 441 
Q 2250 441 2565 725 
Q 2881 1009 2881 1497 
Q 2881 1984 2565 2268 
Q 2250 2553 1709 2553 
Q 1456 2553 1204 2497 
Q 953 2441 691 2322 
L 691 4666 
z
" id="DejaVuSans-35" transform="scale(0.015625)"/>
       </defs>
       <use xlink:href="#DejaVuSans-32"/>
       <use x="63.623047" xlink:href="#DejaVuSans-30"/>
       <use x="127.246094" xlink:href="#DejaVuSans-32"/>
       <use x="190.869141" xlink:href="#DejaVuSans-32"/>
       <use x="254.492188" xlink:href="#DejaVuSans-2d"/>
       <use x="290.576172" xlink:href="#DejaVuSans-30"/>
       <use x="354.199219" xlink:href="#DejaVuSans-35"/>
      </g>
     </g>
    </g>
    <g id="xtick_7">
     <g id="line2d_7">
      <g>
       <use style="stroke:#000000;stroke-width:0.8;" x="407.030813" xlink:href="#m1c45c8bfbf" y="276.48"/>
      </g>
     </g>
     <g id="text_7">
      <!-- 2022-06 -->
      <g transform="translate(369.805993 310.951846)rotate(-30)scale(0.1 -0.1)">
       <defs>
        <path d="M 2113 2584 
Q 1688 2584 1439 2293 
Q 1191 2003 1191 1497 
Q 1191 994 1439 701 
Q 1688 409 2113 409 
Q 2538 409 2786 701 
Q 3034 994 3034 1497 
Q 3034 2003 2786 2293 
Q 2538 2584 2113 2584 
z
M 3366 4563 
L 3366 3988 
Q 3128 4100 2886 4159 
Q 2644 4219 2406 4219 
Q 1781 4219 1451 3797 
Q 1122 3375 1075 2522 
Q 1259 2794 1537 2939 
Q 1816 3084 2150 3084 
Q 2853 3084 3261 2657 
Q 3669 2231 3669 1497 
Q 3669 778 3244 343 
Q 2819 -91 2113 -91 
Q 1303 -91 875 529 
Q 447 1150 447 2328 
Q 447 3434 972 4092 
Q 1497 4750 2381 4750 
Q 2619 4750 2861 4703 
Q 3103 4656 3366 4563 
z
" id="DejaVuSans-36" transform="scale(0.015625)"/>
       </defs>
       <use xlink:href="#DejaVuSans-32"/>
       <use x="63.623047" xlink:href="#DejaVuSans-30"/>
       <use x="127.246094" xlink:href="#DejaVuSans-32"/>
       <use x="190.869141" xlink:href="#DejaVuSans-32"/>
       <use x="254.492188" xlink:href="#DejaVuSans-2d"/>
       <use x="290.576172" xlink:href="#DejaVuSans-30"/>
       <use x="354.199219" xlink:href="#DejaVuSans-36"/>
      </g>
     </g>
    </g>
    <g id="text_8">
     <!-- date -->
     <g transform="translate(224.885 324.351346)scale(0.1 -0.1)">
      <defs>
       <path d="M 2906 2969 
L 2906 4863 
L 3481 4863 
L 3481 0 
L 2906 0 
L 2906 525 
Q 2725 213 2448 61 
Q 2172 -91 1784 -91 
Q 1150 -91 751 415 
Q 353 922 353 1747 
Q 353 2572 751 3078 
Q 1150 3584 1784 3584 
Q 2172 3584 2448 3432 
Q 2725 3281 2906 2969 
z
M 947 1747 
Q 947 1113 1208 752 
Q 1469 391 1925 391 
Q 2381 391 2643 752 
Q 2906 1113 2906 1747 
Q 2906 2381 2643 2742 
Q 2381 3103 1925 3103 
Q 1469 3103 1208 2742 
Q 947 2381 947 1747 
z
" id="DejaVuSans-64" transform="scale(0.015625)"/>
       <path d="M 2194 1759 
Q 1497 1759 1228 1600 
Q 959 1441 959 1056 
Q 959 750 1161 570 
Q 1363 391 1709 391 
Q 2188 391 2477 730 
Q 2766 1069 2766 1631 
L 2766 1759 
L 2194 1759 
z
M 3341 1997 
L 3341 0 
L 2766 0 
L 2766 531 
Q 2569 213 2275 61 
Q 1981 -91 1556 -91 
Q 1019 -91 701 211 
Q 384 513 384 1019 
Q 384 1609 779 1909 
Q 1175 2209 1959 2209 
L 2766 2209 
L 2766 2266 
Q 2766 2663 2505 2880 
Q 2244 3097 1772 3097 
Q 1472 3097 1187 3025 
Q 903 2953 641 2809 
L 641 3341 
Q 956 3463 1253 3523 
Q 1550 3584 1831 3584 
Q 2591 3584 2966 3190 
Q 3341 2797 3341 1997 
z
" id="DejaVuSans-61" transform="scale(0.015625)"/>
       <path d="M 1172 4494 
L 1172 3500 
L 2356 3500 
L 2356 3053 
L 1172 3053 
L 1172 1153 
Q 1172 725 1289 603 
Q 1406 481 1766 481 
L 2356 481 
L 2356 0 
L 1766 0 
Q 1100 0 847 248 
Q 594 497 594 1153 
L 594 3053 
L 172 3053 
L 172 3500 
L 594 3500 
L 594 4494 
L 1172 4494 
z
" id="DejaVuSans-74" transform="scale(0.015625)"/>
       <path d="M 3597 1894 
L 3597 1613 
L 953 1613 
Q 991 1019 1311 708 
Q 1631 397 2203 397 
Q 2534 397 2845 478 
Q 3156 559 3463 722 
L 3463 178 
Q 3153 47 2828 -22 
Q 2503 -91 2169 -91 
Q 1331 -91 842 396 
Q 353 884 353 1716 
Q 353 2575 817 3079 
Q 1281 3584 2069 3584 
Q 2775 3584 3186 3129 
Q 3597 2675 3597 1894 
z
M 3022 2063 
Q 3016 2534 2758 2815 
Q 2500 3097 2075 3097 
Q 1594 3097 1305 2825 
Q 1016 2553 972 2059 
L 3022 2063 
z
" id="DejaVuSans-65" transform="scale(0.015625)"/>
      </defs>
      <use xlink:href="#DejaVuSans-64"/>
      <use x="63.476562" xlink:href="#DejaVuSans-61"/>
      <use x="124.755859" xlink:href="#DejaVuSans-74"/>
      <use x="163.964844" xlink:href="#DejaVuSans-65"/>
     </g>
    </g>
   </g>
   <g id="matplotlib.axis_2">
    <g id="ytick_1">
     <g id="line2d_8">
      <defs>
       <path d="M 0 0 
L -3.5 0 
" id="mbc9c05f510" style="stroke:#000000;stroke-width:0.8;"/>
      </defs>
      <g>
       <use style="stroke:#000000;stroke-width:0.8;" x="57.6" xlink:href="#mbc9c05f510" y="258.758293"/>
      </g>
     </g>
     <g id="text_9">
      <!-- 85000 -->
      <g transform="translate(18.7875 262.557512)scale(0.1 -0.1)">
       <defs>
        <path d="M 2034 2216 
Q 1584 2216 1326 1975 
Q 1069 1734 1069 1313 
Q 1069 891 1326 650 
Q 1584 409 2034 409 
Q 2484 409 2743 651 
Q 3003 894 3003 1313 
Q 3003 1734 2745 1975 
Q 2488 2216 2034 2216 
z
M 1403 2484 
Q 997 2584 770 2862 
Q 544 3141 544 3541 
Q 544 4100 942 4425 
Q 1341 4750 2034 4750 
Q 2731 4750 3128 4425 
Q 3525 4100 3525 3541 
Q 3525 3141 3298 2862 
Q 3072 2584 2669 2484 
Q 3125 2378 3379 2068 
Q 3634 1759 3634 1313 
Q 3634 634 3220 271 
Q 2806 -91 2034 -91 
Q 1263 -91 848 271 
Q 434 634 434 1313 
Q 434 1759 690 2068 
Q 947 2378 1403 2484 
z
M 1172 3481 
Q 1172 3119 1398 2916 
Q 1625 2713 2034 2713 
Q 2441 2713 2670 2916 
Q 2900 3119 2900 3481 
Q 2900 3844 2670 4047 
Q 2441 4250 2034 4250 
Q 1625 4250 1398 4047 
Q 1172 3844 1172 3481 
z
" id="DejaVuSans-38" transform="scale(0.015625)"/>
       </defs>
       <use xlink:href="#DejaVuSans-38"/>
       <use x="63.623047" xlink:href="#DejaVuSans-35"/>
       <use x="127.246094" xlink:href="#DejaVuSans-30"/>
       <use x="190.869141" xlink:href="#DejaVuSans-30"/>
       <use x="254.492188" xlink:href="#DejaVuSans-30"/>
      </g>
     </g>
    </g>
    <g id="ytick_2">
     <g id="line2d_9">
      <g>
       <use style="stroke:#000000;stroke-width:0.8;" x="57.6" xlink:href="#mbc9c05f510" y="212.793038"/>
      </g>
     </g>
     <g id="text_10">
      <!-- 90000 -->
      <g transform="translate(18.7875 216.592256)scale(0.1 -0.1)">
       <defs>
        <path d="M 703 97 
L 703 672 
Q 941 559 1184 500 
Q 1428 441 1663 441 
Q 2288 441 2617 861 
Q 2947 1281 2994 2138 
Q 2813 1869 2534 1725 
Q 2256 1581 1919 1581 
Q 1219 1581 811 2004 
Q 403 2428 403 3163 
Q 403 3881 828 4315 
Q 1253 4750 1959 4750 
Q 2769 4750 3195 4129 
Q 3622 3509 3622 2328 
Q 3622 1225 3098 567 
Q 2575 -91 1691 -91 
Q 1453 -91 1209 -44 
Q 966 3 703 97 
z
M 1959 2075 
Q 2384 2075 2632 2365 
Q 2881 2656 2881 3163 
Q 2881 3666 2632 3958 
Q 2384 4250 1959 4250 
Q 1534 4250 1286 3958 
Q 1038 3666 1038 3163 
Q 1038 2656 1286 2365 
Q 1534 2075 1959 2075 
z
" id="DejaVuSans-39" transform="scale(0.015625)"/>
       </defs>
       <use xlink:href="#DejaVuSans-39"/>
       <use x="63.623047" xlink:href="#DejaVuSans-30"/>
       <use x="127.246094" xlink:href="#DejaVuSans-30"/>
       <use x="190.869141" xlink:href="#DejaVuSans-30"/>
       <use x="254.492188" xlink:href="#DejaVuSans-30"/>
      </g>
     </g>
    </g>
    <g id="ytick_3">
     <g id="line2d_10">
      <g>
       <use style="stroke:#000000;stroke-width:0.8;" x="57.6" xlink:href="#mbc9c05f510" y="166.827782"/>
      </g>
     </g>
     <g id="text_11">
      <!-- 95000 -->
      <g transform="translate(18.7875 170.627001)scale(0.1 -0.1)">
       <use xlink:href="#DejaVuSans-39"/>
       <use x="63.623047" xlink:href="#DejaVuSans-35"/>
       <use x="127.246094" xlink:href="#DejaVuSans-30"/>
       <use x="190.869141" xlink:href="#DejaVuSans-30"/>
       <use x="254.492188" xlink:href="#DejaVuSans-30"/>
      </g>
     </g>
    </g>
    <g id="ytick_4">
     <g id="line2d_11">
      <g>
       <use style="stroke:#000000;stroke-width:0.8;" x="57.6" xlink:href="#mbc9c05f510" y="120.862527"/>
      </g>
     </g>
     <g id="text_12">
      <!-- 100000 -->
      <g transform="translate(12.425 124.661746)scale(0.1 -0.1)">
       <use xlink:href="#DejaVuSans-31"/>
       <use x="63.623047" xlink:href="#DejaVuSans-30"/>
       <use x="127.246094" xlink:href="#DejaVuSans-30"/>
       <use x="190.869141" xlink:href="#DejaVuSans-30"/>
       <use x="254.492188" xlink:href="#DejaVuSans-30"/>
       <use x="318.115234" xlink:href="#DejaVuSans-30"/>
      </g>
     </g>
    </g>
    <g id="ytick_5">
     <g id="line2d_12">
      <g>
       <use style="stroke:#000000;stroke-width:0.8;" x="57.6" xlink:href="#mbc9c05f510" y="74.897272"/>
      </g>
     </g>
     <g id="text_13">
      <!-- 105000 -->
      <g transform="translate(12.425 78.696491)scale(0.1 -0.1)">
       <use xlink:href="#DejaVuSans-31"/>
       <use x="63.623047" xlink:href="#DejaVuSans-30"/>
       <use x="127.246094" xlink:href="#DejaVuSans-35"/>
       <use x="190.869141" xlink:href="#DejaVuSans-30"/>
       <use x="254.492188" xlink:href="#DejaVuSans-30"/>
       <use x="318.115234" xlink:href="#DejaVuSans-30"/>
      </g>
     </g>
    </g>
   </g>
   <g id="line2d_13">
    <path clip-path="url(#p528c4d0997)" d="M 73.832727 123.543398 
L 75.541435 126.636438 
L 80.66756 123.089625 
L 82.376268 114.576423 
L 84.084976 113.870329 
L 87.502392 114.057218 
L 92.628517 126.449767 
L 94.337225 145.404233 
L 96.045933 156.236593 
L 97.754641 145.010832 
L 99.463349 151.48386 
L 104.589474 137.95734 
L 106.298182 121.614676 
L 108.00689 115.788433 
L 109.715598 117.096659 
L 111.424306 111.322432 
L 116.550431 119.888393 
L 118.259139 119.877441 
L 119.967847 111.894619 
L 121.676555 111.810376 
L 123.385263 122.743859 
L 128.511388 133.723698 
L 130.220096 115.748671 
L 131.928804 110.753831 
L 133.637512 103.067187 
L 140.472344 90.434566 
L 142.181053 91.464327 
L 143.889761 90.772246 
L 145.598469 91.305677 
L 147.307177 95.366989 
L 152.433301 85.676246 
L 154.14201 76.373134 
L 155.850718 97.030391 
L 157.559426 93.277047 
L 159.268134 88.613078 
L 164.394258 89.582643 
L 166.102967 84.28739 
L 167.811675 83.987235 
L 169.520383 91.27944 
L 171.229091 91.269114 
L 178.063923 112.268123 
L 179.772632 120.152988 
L 181.48134 129.569997 
L 183.190048 148.380184 
L 188.316172 148.979934 
L 190.02488 148.200888 
L 191.733589 149.640017 
L 193.442297 156.899193 
L 195.151005 135.149921 
L 200.277129 121.069727 
L 201.985837 109.953381 
L 203.694545 95.135147 
L 205.403254 141.396028 
L 207.111962 135.470894 
L 212.238086 143.500156 
L 213.946794 139.514781 
L 215.655502 128.26055 
L 217.364211 144.451548 
L 219.072919 163.769809 
L 224.199043 171.52449 
L 225.907751 160.816045 
L 227.616459 164.070038 
L 229.325167 182.460638 
L 231.033876 186.869168 
L 237.868708 194.722544 
L 239.577416 206.475192 
L 241.286124 198.528141 
L 242.994833 179.681972 
L 248.120957 186.543169 
L 249.829665 204.218744 
L 251.538373 185.319583 
L 253.247081 187.369362 
L 254.955789 199.293571 
L 260.081914 229.903298 
L 261.790622 232.932833 
L 263.49933 202.926164 
L 266.916746 224.248811 
L 272.042871 224.939627 
L 273.751579 210.493553 
L 275.460287 189.600302 
L 277.168995 180.041726 
L 278.877703 169.725844 
L 284.003828 170.93712 
L 285.712536 156.276386 
L 287.421244 165.046238 
L 289.129952 151.87751 
L 290.83866 141.887462 
L 295.964785 140.758638 
L 297.673493 135.198667 
L 299.382201 136.465417 
L 301.090909 153.660642 
L 302.799617 149.440956 
L 307.925742 140.966465 
L 309.63445 150.12665 
L 311.343158 162.485343 
L 313.051866 163.211775 
L 314.760574 163.093862 
L 321.595407 181.556811 
L 323.304115 178.831356 
L 325.012823 191.815279 
L 331.847656 186.672499 
L 333.556364 173.203663 
L 335.265072 173.597805 
L 336.97378 187.877383 
L 338.682488 212.550603 
L 343.808612 209.103834 
L 345.517321 223.396185 
L 347.226029 227.881122 
L 348.934737 192.407876 
L 350.643445 218.166309 
L 355.769569 210.47287 
L 357.478278 204.032049 
L 359.186986 167.969327 
L 360.895694 199.990193 
L 362.604402 199.488815 
L 367.730526 223.73385 
L 369.439234 229.219879 
L 371.147943 240.393388 
L 372.856651 244.297868 
L 374.565359 229.683777 
L 379.691483 231.883775 
L 381.400191 216.090938 
L 383.1089 248.602859 
L 384.817608 258.708508 
L 386.526316 264.321718 
L 391.65244 243.536214 
L 393.361148 258.507545 
L 395.069856 255.875046 
L 396.778565 238.057373 
L 398.487273 218.42297 
L 398.487273 218.42297 
" style="fill:none;stroke:#0000ff;stroke-linecap:square;stroke-opacity:0.9;stroke-width:2;"/>
   </g>
   <g id="line2d_14">
    <path clip-path="url(#p528c4d0997)" d="M 73.832727 123.543398 
L 75.541435 126.350582 
L 80.66756 123.150378 
L 82.376268 114.306737 
L 84.084976 113.686283 
L 87.502392 136.93394 
L 92.628517 126.543106 
L 94.337225 146.490524 
L 96.045933 156.986699 
L 97.754641 145.276113 
L 99.463349 151.925381 
L 104.589474 138.131281 
L 106.298182 122.745512 
L 108.00689 116.925429 
L 109.715598 116.897981 
L 111.424306 111.078926 
L 116.550431 120.371974 
L 118.259139 119.957265 
L 119.967847 113.110784 
L 121.676555 111.844188 
L 123.385263 123.093476 
L 128.511388 134.224498 
L 130.220096 116.803523 
L 131.928804 111.374931 
L 133.637512 103.688321 
L 140.472344 91.07048 
L 142.181053 91.646637 
L 143.889761 90.534185 
L 145.598469 91.57 
L 147.307177 95.744992 
L 152.433301 85.474045 
L 154.14201 76.119472 
L 155.850718 97.371056 
L 157.559426 94.118957 
L 159.268134 88.88682 
L 164.394258 90.474739 
L 166.102967 84.749456 
L 167.811675 84.658483 
L 169.520383 91.045099 
L 171.229091 91.868748 
L 178.063923 112.444368 
L 179.772632 121.48437 
L 181.48134 129.594252 
L 183.190048 149.050271 
L 188.316172 149.200576 
L 190.02488 146.94207 
L 191.733589 149.151797 
L 193.442297 156.918088 
L 195.151005 134.704451 
L 200.277129 121.230069 
L 201.985837 110.503118 
L 203.694545 95.640469 
L 205.403254 139.254368 
L 207.111962 133.048391 
L 212.238086 139.341228 
L 213.946794 133.612283 
L 215.655502 125.048682 
L 217.364211 140.477327 
L 219.072919 158.948139 
L 224.199043 167.469016 
L 225.907751 157.84075 
L 227.616459 160.108123 
L 229.325167 177.099995 
L 231.033876 181.626641 
L 237.868708 188.670286 
L 239.577416 201.140975 
L 241.286124 195.991746 
L 242.994833 175.541112 
L 248.120957 183.817611 
L 249.829665 201.972395 
L 251.538373 181.331926 
L 253.247081 182.883088 
L 254.955789 194.711411 
L 260.081914 224.070236 
L 261.790622 228.245439 
L 263.49933 198.678179 
L 265.208038 209.738913 
L 266.916746 218.76218 
L 272.042871 220.134917 
L 273.751579 206.063895 
L 275.460287 186.414399 
L 277.168995 178.00708 
L 278.877703 168.998386 
L 284.003828 169.788198 
L 285.712536 155.189465 
L 287.421244 163.909874 
L 289.129952 150.394649 
L 290.83866 140.394844 
L 295.964785 139.804419 
L 297.673493 135.046224 
L 299.382201 135.701798 
L 301.090909 152.956602 
L 302.799617 148.957651 
L 307.925742 142.432399 
L 309.63445 151.081518 
L 311.343158 162.101258 
L 313.051866 162.818495 
L 314.760574 162.801657 
L 319.886699 175.350762 
L 321.595407 180.272774 
L 323.304115 176.690389 
L 325.012823 189.138724 
L 331.847656 184.48508 
L 333.556364 172.075257 
L 335.265072 167.160321 
L 336.97378 178.536525 
L 338.682488 203.365246 
L 343.808612 200.754145 
L 345.517321 215.447171 
L 347.226029 217.120875 
L 348.934737 189.234707 
L 350.643445 215.547545 
L 355.769569 209.380251 
L 357.478278 203.885977 
L 359.186986 167.471887 
L 360.895694 198.51545 
L 362.604402 196.267424 
L 367.730526 220.731894 
L 369.439234 227.998454 
L 371.147943 237.290705 
L 372.856651 241.311834 
L 374.565359 228.147835 
L 379.691483 230.627614 
L 381.400191 213.690565 
L 383.1089 245.836099 
L 384.817608 256.493001 
L 386.526316 263.724005 
L 391.65244 242.812743 
L 393.361148 253.132787 
L 395.069856 252.249036 
L 398.487273 215.998714 
L 398.487273 215.998714 
" style="fill:none;stroke:#ff0000;stroke-linecap:square;stroke-opacity:0.9;stroke-width:2;"/>
   </g>
   <g id="line2d_15">
    <path clip-path="url(#p528c4d0997)" d="M 73.832727 123.543398 
L 75.541435 126.270865 
L 80.66756 122.462587 
L 82.376268 114.220366 
L 84.084976 113.623843 
L 87.502392 136.75448 
L 92.628517 125.740849 
L 94.337225 145.435928 
L 96.045933 156.829995 
L 97.754641 144.325007 
L 99.463349 151.646366 
L 104.589474 137.310894 
L 106.298182 121.615327 
L 108.00689 116.38055 
L 109.715598 117.086203 
L 111.424306 111.259249 
L 116.550431 120.0752 
L 118.259139 119.939562 
L 119.967847 112.903762 
L 121.676555 110.929693 
L 123.385263 122.855928 
L 128.511388 133.246459 
L 130.220096 116.08214 
L 131.928804 111.136988 
L 133.637512 103.06868 
L 140.472344 90.93867 
L 142.181053 90.84815 
L 143.889761 90.379586 
L 145.598469 91.313379 
L 147.307177 95.708788 
L 152.433301 85.412893 
L 154.14201 76.388471 
L 155.850718 97.498701 
L 159.268134 88.650879 
L 164.394258 89.647577 
L 166.102967 84.205414 
L 167.811675 83.869488 
L 169.520383 91.156789 
L 171.229091 91.01148 
L 178.063923 112.014811 
L 179.772632 119.997975 
L 181.48134 128.861541 
L 183.190048 148.392562 
L 188.316172 149.076072 
L 190.02488 147.826673 
L 191.733589 149.736436 
L 193.442297 156.887388 
L 195.151005 135.537231 
L 200.277129 120.653307 
L 201.985837 109.880686 
L 203.694545 93.761166 
L 205.403254 140.934699 
L 207.111962 134.714379 
L 212.238086 142.675722 
L 213.946794 139.054575 
L 215.655502 127.57335 
L 217.364211 143.336365 
L 219.072919 162.242538 
L 224.199043 170.671895 
L 225.907751 159.628452 
L 227.616459 163.314358 
L 229.325167 181.506804 
L 231.033876 185.452292 
L 237.868708 194.14815 
L 239.577416 205.469065 
L 241.286124 197.136552 
L 242.994833 178.361513 
L 248.120957 185.770496 
L 249.829665 203.362277 
L 251.538373 183.478181 
L 253.247081 186.634911 
L 254.955789 198.090291 
L 260.081914 229.383625 
L 261.790622 232.167996 
L 263.49933 201.17914 
L 266.916746 222.905791 
L 272.042871 223.862274 
L 273.751579 209.044134 
L 275.460287 188.52532 
L 277.168995 179.011231 
L 278.877703 168.622325 
L 284.003828 170.173138 
L 285.712536 154.953377 
L 287.421244 164.382572 
L 289.129952 150.408805 
L 290.83866 140.699868 
L 295.964785 139.45685 
L 297.673493 133.653572 
L 299.382201 135.080134 
L 301.090909 152.839118 
L 302.799617 148.421538 
L 307.925742 140.637863 
L 309.63445 148.690283 
L 311.343158 161.450039 
L 313.051866 162.477787 
L 314.760574 161.773521 
L 319.886699 175.906709 
L 321.595407 181.207676 
L 323.304115 178.385751 
L 325.012823 191.157978 
L 331.847656 186.201032 
L 333.556364 172.878702 
L 335.265072 172.71644 
L 336.97378 187.190181 
L 338.682488 212.37488 
L 343.808612 208.240814 
L 345.517321 223.992657 
L 347.226029 228.066358 
L 348.934737 192.454729 
L 350.643445 218.733644 
L 355.769569 210.446387 
L 357.478278 203.401347 
L 359.186986 167.897124 
L 360.895694 200.094426 
L 362.604402 199.339616 
L 367.730526 223.941337 
L 369.439234 229.745624 
L 371.147943 240.867076 
L 372.856651 244.197817 
L 374.565359 230.139081 
L 379.691483 232.277992 
L 381.400191 216.303281 
L 383.1089 248.869329 
L 384.817608 258.604822 
L 386.526316 264.874456 
L 391.65244 243.316204 
L 393.361148 258.605808 
L 395.069856 256.234619 
L 396.778565 238.544653 
L 398.487273 219.010023 
L 398.487273 219.010023 
" style="fill:none;stroke:#008000;stroke-linecap:square;stroke-opacity:0.9;stroke-width:2;"/>
   </g>
   <g id="line2d_16">
    <path clip-path="url(#p528c4d0997)" d="M 73.832727 123.543398 
L 75.541435 126.261355 
L 80.66756 122.973485 
L 82.376268 114.209453 
L 84.084976 113.565068 
L 87.502392 136.532165 
L 92.628517 126.229039 
L 94.337225 145.490125 
L 96.045933 156.529128 
L 97.754641 144.801732 
L 99.463349 151.228391 
L 104.589474 137.714038 
L 106.298182 121.56116 
L 108.00689 116.685793 
L 109.715598 117.409437 
L 111.424306 111.350437 
L 116.550431 120.277797 
L 118.259139 120.145461 
L 119.967847 113.045452 
L 121.676555 111.80878 
L 123.385263 123.021808 
L 128.511388 134.064474 
L 130.220096 115.603199 
L 131.928804 110.704254 
L 133.637512 103.021849 
L 140.472344 90.800386 
L 142.181053 91.378559 
L 143.889761 90.214358 
L 145.598469 92.165411 
L 147.307177 95.530259 
L 152.433301 85.356353 
L 154.14201 76.067612 
L 155.850718 97.879381 
L 157.559426 93.652052 
L 159.268134 88.651464 
L 164.394258 90.314858 
L 166.102967 84.405089 
L 167.811675 83.436128 
L 169.520383 91.276872 
L 171.229091 91.659664 
L 178.063923 111.787845 
L 181.48134 129.691425 
L 183.190048 148.95882 
L 188.316172 149.369738 
L 190.02488 147.655267 
L 191.733589 149.704905 
L 193.442297 157.417198 
L 195.151005 135.196299 
L 200.277129 121.272058 
L 201.985837 110.285566 
L 203.694545 94.985293 
L 205.403254 141.286912 
L 207.111962 135.233101 
L 212.238086 144.380224 
L 213.946794 139.805586 
L 215.655502 128.7281 
L 217.364211 144.013992 
L 219.072919 163.27685 
L 224.199043 171.892432 
L 225.907751 161.390762 
L 227.616459 163.68791 
L 229.325167 182.689733 
L 231.033876 187.209373 
L 237.868708 194.788369 
L 239.577416 206.31136 
L 241.286124 198.8469 
L 242.994833 179.502087 
L 248.120957 186.566062 
L 249.829665 204.259933 
L 251.538373 184.513768 
L 253.247081 186.873611 
L 254.955789 198.897288 
L 260.081914 229.680414 
L 261.790622 232.579688 
L 263.49933 202.332239 
L 266.916746 223.772724 
L 272.042871 224.739475 
L 273.751579 210.341694 
L 275.460287 189.068946 
L 277.168995 179.717952 
L 278.877703 169.500933 
L 284.003828 171.247073 
L 285.712536 156.481901 
L 287.421244 165.357202 
L 289.129952 151.212174 
L 290.83866 141.723773 
L 295.964785 140.307316 
L 297.673493 134.626324 
L 299.382201 136.121163 
L 301.090909 154.099755 
L 302.799617 149.561439 
L 307.925742 141.710645 
L 309.63445 150.008561 
L 311.343158 162.405167 
L 313.051866 162.895254 
L 314.760574 162.945106 
L 319.886699 177.090344 
L 321.595407 181.422626 
L 323.304115 179.224602 
L 325.012823 192.170499 
L 331.847656 186.63246 
L 333.556364 173.422073 
L 335.265072 173.933274 
L 336.97378 187.794898 
L 338.682488 212.260186 
L 343.808612 208.763158 
L 345.517321 223.972102 
L 347.226029 228.648368 
L 348.934737 193.344377 
L 350.643445 218.468727 
L 355.769569 210.496801 
L 357.478278 203.490631 
L 359.186986 167.315197 
L 360.895694 200.292519 
L 362.604402 199.521503 
L 367.730526 224.402349 
L 369.439234 230.250615 
L 371.147943 240.044832 
L 372.856651 244.952278 
L 374.565359 230.235455 
L 379.691483 232.680757 
L 381.400191 216.20892 
L 383.1089 248.71046 
L 384.817608 258.613278 
L 386.526316 264.474065 
L 391.65244 243.472427 
L 393.361148 258.721593 
L 395.069856 256.499155 
L 398.487273 219.440067 
L 398.487273 219.440067 
" style="fill:none;stroke:#ec5283;stroke-linecap:square;stroke-width:2;"/>
   </g>
   <g id="line2d_17">
    <path clip-path="url(#p528c4d0997)" d="M 73.832727 123.543398 
L 75.541435 126.713603 
L 80.66756 122.385698 
L 82.376268 114.404376 
L 84.084976 113.296644 
L 87.502392 136.148511 
L 92.628517 125.785617 
L 94.337225 145.382964 
L 96.045933 156.682196 
L 97.754641 144.604651 
L 99.463349 150.945381 
L 104.589474 136.782181 
L 106.298182 121.430178 
L 108.00689 116.552406 
L 109.715598 116.930941 
L 111.424306 111.27332 
L 116.550431 119.887364 
L 118.259139 119.033898 
L 119.967847 112.238058 
L 121.676555 111.602045 
L 123.385263 122.750592 
L 128.511388 133.633068 
L 130.220096 116.037952 
L 131.928804 110.85464 
L 133.637512 102.848657 
L 140.472344 90.456638 
L 142.181053 90.70953 
L 143.889761 90.518897 
L 145.598469 91.74874 
L 147.307177 95.780011 
L 152.433301 85.445564 
L 154.14201 76.295131 
L 155.850718 97.329343 
L 157.559426 93.628734 
L 159.268134 88.915232 
L 164.394258 89.611439 
L 166.102967 83.681537 
L 167.811675 83.768686 
L 169.520383 91.243452 
L 171.229091 90.402538 
L 178.063923 111.346039 
L 181.48134 128.475729 
L 183.190048 148.252527 
L 188.316172 148.524818 
L 190.02488 147.16074 
L 191.733589 148.956561 
L 193.442297 156.517672 
L 195.151005 135.179593 
L 200.277129 120.556436 
L 201.985837 109.183672 
L 203.694545 94.245231 
L 205.403254 140.700935 
L 207.111962 134.049954 
L 212.238086 142.866724 
L 213.946794 139.231178 
L 215.655502 127.574609 
L 217.364211 143.292596 
L 219.072919 162.872864 
L 224.199043 169.976638 
L 225.907751 159.85444 
L 227.616459 163.00793 
L 229.325167 181.140369 
L 231.033876 185.424793 
L 237.868708 193.297966 
L 239.577416 205.611667 
L 241.286124 197.778243 
L 242.994833 177.815034 
L 248.120957 185.879886 
L 249.829665 203.251903 
L 251.538373 183.592655 
L 253.247081 186.054928 
L 254.955789 197.725665 
L 260.081914 228.514519 
L 261.790622 231.962382 
L 263.49933 201.767841 
L 266.916746 222.399689 
L 272.042871 224.225992 
L 273.751579 209.00873 
L 275.460287 188.010458 
L 277.168995 179.533654 
L 278.877703 168.345826 
L 284.003828 169.709734 
L 285.712536 155.258803 
L 287.421244 164.371242 
L 289.129952 150.909313 
L 290.83866 140.593429 
L 295.964785 139.588466 
L 297.673493 133.972065 
L 299.382201 134.608951 
L 301.090909 152.470997 
L 302.799617 148.670447 
L 307.925742 140.907135 
L 309.63445 148.638041 
L 311.343158 161.139967 
L 313.051866 162.466071 
L 314.760574 161.553448 
L 321.595407 180.652813 
L 323.304115 178.39003 
L 325.012823 190.765669 
L 331.847656 185.912003 
L 333.556364 171.929527 
L 335.265072 172.930002 
L 336.97378 187.493655 
L 338.682488 212.312653 
L 343.808612 208.291246 
L 345.517321 223.228839 
L 347.226029 228.446754 
L 348.934737 192.961677 
L 350.643445 218.499937 
L 355.769569 210.439573 
L 357.478278 203.368889 
L 359.186986 167.1493 
L 360.895694 199.69342 
L 362.604402 199.803759 
L 367.730526 223.877754 
L 369.439234 229.187731 
L 371.147943 240.178063 
L 372.856651 244.392625 
L 374.565359 230.116211 
L 379.691483 232.190871 
L 381.400191 216.074433 
L 383.1089 248.070526 
L 384.817608 258.793045 
L 386.526316 264.173583 
L 391.65244 243.294707 
L 393.361148 258.681141 
L 395.069856 256.2988 
L 396.778565 238.653566 
L 398.487273 218.542208 
L 398.487273 218.542208 
" style="fill:none;stroke:#00ff00;stroke-linecap:square;stroke-opacity:0.9;stroke-width:2;"/>
   </g>
   <g id="line2d_18">
    <path clip-path="url(#p528c4d0997)" d="M 73.832727 123.543398 
L 75.541435 125.418876 
L 80.66756 119.067241 
L 82.376268 113.327401 
L 84.084976 113.688399 
L 87.502392 132.748754 
L 92.628517 121.210187 
L 94.337225 139.504531 
L 96.045933 152.369877 
L 97.754641 140.543701 
L 99.463349 146.244644 
L 104.589474 128.868861 
L 106.298182 112.732551 
L 108.00689 105.872507 
L 109.715598 105.558924 
L 111.424306 102.36013 
L 116.550431 111.770505 
L 118.259139 106.88353 
L 119.967847 100.863118 
L 121.676555 95.366362 
L 123.385263 105.706742 
L 128.511388 118.215107 
L 130.220096 97.122566 
L 131.928804 92.502923 
L 133.637512 84.192633 
L 140.472344 71.78481 
L 142.181053 72.234452 
L 143.889761 71.799703 
L 145.598469 73.427576 
L 147.307177 78.509701 
L 152.433301 63.212033 
L 154.14201 52.154182 
L 155.850718 78.624291 
L 157.559426 70.840864 
L 159.268134 68.605342 
L 164.394258 68.628734 
L 166.102967 60.433597 
L 167.811675 58.821571 
L 169.520383 70.086433 
L 171.229091 67.622954 
L 178.063923 87.722212 
L 179.772632 93.235394 
L 181.48134 104.086141 
L 183.190048 125.900855 
L 188.316172 124.026256 
L 190.02488 134.803404 
L 191.733589 135.188403 
L 193.442297 141.520404 
L 195.151005 118.211633 
L 200.277129 98.190692 
L 201.985837 89.509021 
L 203.694545 75.903278 
L 205.403254 132.735442 
L 207.111962 130.336218 
L 212.238086 146.090361 
L 213.946794 148.138557 
L 215.655502 129.026634 
L 217.364211 143.970977 
L 219.072919 163.93669 
L 224.199043 170.557908 
L 225.907751 159.815188 
L 227.616459 163.663563 
L 229.325167 180.609944 
L 231.033876 185.550042 
L 237.868708 195.492505 
L 239.577416 206.725359 
L 241.286124 187.529916 
L 242.994833 171.368549 
L 248.120957 175.272882 
L 249.829665 191.53273 
L 251.538373 172.695722 
L 253.247081 177.521425 
L 254.955789 193.798295 
L 260.081914 232.054767 
L 261.790622 228.424884 
L 263.49933 190.97299 
L 265.208038 203.344053 
L 266.916746 217.462984 
L 272.042871 218.410504 
L 273.751579 201.600169 
L 275.460287 173.901293 
L 277.168995 163.705193 
L 278.877703 150.11181 
L 284.003828 153.93802 
L 285.712536 134.478357 
L 287.421244 145.515037 
L 289.129952 131.805545 
L 290.83866 121.132348 
L 295.964785 119.692309 
L 297.673493 113.351716 
L 299.382201 117.802677 
L 301.090909 141.36421 
L 302.799617 138.953149 
L 307.925742 130.875032 
L 311.343158 154.676208 
L 313.051866 158.775722 
L 314.760574 158.722798 
L 319.886699 172.829946 
L 321.595407 178.04422 
L 323.304115 174.213704 
L 325.012823 191.015888 
L 331.847656 181.078971 
L 333.556364 164.994354 
L 335.265072 169.983572 
L 336.97378 193.096925 
L 338.682488 220.9682 
L 343.808612 214.812315 
L 345.517321 234.822798 
L 347.226029 244.966547 
L 348.934737 197.491818 
L 350.643445 224.009403 
L 355.769569 209.510846 
L 357.478278 199.31052 
L 359.186986 161.286915 
L 360.895694 198.710181 
L 362.604402 201.689601 
L 367.730526 226.873635 
L 369.439234 226.877654 
L 371.147943 241.360443 
L 372.856651 247.004797 
L 374.565359 230.544824 
L 379.691483 235.176248 
L 381.400191 217.135029 
L 383.1089 249.339983 
L 384.817608 259.06382 
L 386.526316 265.797818 
L 391.65244 240.495853 
L 393.361148 263.539584 
L 395.069856 260.676616 
L 398.487273 218.834019 
L 398.487273 218.834019 
" style="fill:none;stroke:#a5b9cf;stroke-linecap:square;stroke-width:2;"/>
   </g>
   <g id="patch_3">
    <path d="M 57.6 276.48 
L 57.6 41.472 
" style="fill:none;stroke:#000000;stroke-linecap:square;stroke-linejoin:miter;stroke-width:0.8;"/>
   </g>
   <g id="patch_4">
    <path d="M 414.72 276.48 
L 414.72 41.472 
" style="fill:none;stroke:#000000;stroke-linecap:square;stroke-linejoin:miter;stroke-width:0.8;"/>
   </g>
   <g id="patch_5">
    <path d="M 57.6 276.48 
L 414.72 276.48 
" style="fill:none;stroke:#000000;stroke-linecap:square;stroke-linejoin:miter;stroke-width:0.8;"/>
   </g>
   <g id="patch_6">
    <path d="M 57.6 41.472 
L 414.72 41.472 
" style="fill:none;stroke:#000000;stroke-linecap:square;stroke-linejoin:miter;stroke-width:0.8;"/>
   </g>
   <g id="text_14">
    <!-- TESTFUNDS -->
    <g transform="translate(200.470313 22.034625)scale(0.12 -0.12)">
     <defs>
      <path d="M -19 4666 
L 3928 4666 
L 3928 4134 
L 2272 4134 
L 2272 0 
L 1638 0 
L 1638 4134 
L -19 4134 
L -19 4666 
z
" id="DejaVuSans-54" transform="scale(0.015625)"/>
      <path d="M 628 4666 
L 3578 4666 
L 3578 4134 
L 1259 4134 
L 1259 2753 
L 3481 2753 
L 3481 2222 
L 1259 2222 
L 1259 531 
L 3634 531 
L 3634 0 
L 628 0 
L 628 4666 
z
" id="DejaVuSans-45" transform="scale(0.015625)"/>
      <path d="M 3425 4513 
L 3425 3897 
Q 3066 4069 2747 4153 
Q 2428 4238 2131 4238 
Q 1616 4238 1336 4038 
Q 1056 3838 1056 3469 
Q 1056 3159 1242 3001 
Q 1428 2844 1947 2747 
L 2328 2669 
Q 3034 2534 3370 2195 
Q 3706 1856 3706 1288 
Q 3706 609 3251 259 
Q 2797 -91 1919 -91 
Q 1588 -91 1214 -16 
Q 841 59 441 206 
L 441 856 
Q 825 641 1194 531 
Q 1563 422 1919 422 
Q 2459 422 2753 634 
Q 3047 847 3047 1241 
Q 3047 1584 2836 1778 
Q 2625 1972 2144 2069 
L 1759 2144 
Q 1053 2284 737 2584 
Q 422 2884 422 3419 
Q 422 4038 858 4394 
Q 1294 4750 2059 4750 
Q 2388 4750 2728 4690 
Q 3069 4631 3425 4513 
z
" id="DejaVuSans-53" transform="scale(0.015625)"/>
      <path d="M 628 4666 
L 3309 4666 
L 3309 4134 
L 1259 4134 
L 1259 2759 
L 3109 2759 
L 3109 2228 
L 1259 2228 
L 1259 0 
L 628 0 
L 628 4666 
z
" id="DejaVuSans-46" transform="scale(0.015625)"/>
      <path d="M 556 4666 
L 1191 4666 
L 1191 1831 
Q 1191 1081 1462 751 
Q 1734 422 2344 422 
Q 2950 422 3222 751 
Q 3494 1081 3494 1831 
L 3494 4666 
L 4128 4666 
L 4128 1753 
Q 4128 841 3676 375 
Q 3225 -91 2344 -91 
Q 1459 -91 1007 375 
Q 556 841 556 1753 
L 556 4666 
z
" id="DejaVuSans-55" transform="scale(0.015625)"/>
      <path d="M 628 4666 
L 1478 4666 
L 3547 763 
L 3547 4666 
L 4159 4666 
L 4159 0 
L 3309 0 
L 1241 3903 
L 1241 0 
L 628 0 
L 628 4666 
z
" id="DejaVuSans-4e" transform="scale(0.015625)"/>
      <path d="M 1259 4147 
L 1259 519 
L 2022 519 
Q 2988 519 3436 956 
Q 3884 1394 3884 2338 
Q 3884 3275 3436 3711 
Q 2988 4147 2022 4147 
L 1259 4147 
z
M 628 4666 
L 1925 4666 
Q 3281 4666 3915 4102 
Q 4550 3538 4550 2338 
Q 4550 1131 3912 565 
Q 3275 0 1925 0 
L 628 0 
L 628 4666 
z
" id="DejaVuSans-44" transform="scale(0.015625)"/>
     </defs>
     <use xlink:href="#DejaVuSans-54"/>
     <use x="61.083984" xlink:href="#DejaVuSans-45"/>
     <use x="124.267578" xlink:href="#DejaVuSans-53"/>
     <use x="187.744141" xlink:href="#DejaVuSans-54"/>
     <use x="248.828125" xlink:href="#DejaVuSans-46"/>
     <use x="306.347656" xlink:href="#DejaVuSans-55"/>
     <use x="379.541016" xlink:href="#DejaVuSans-4e"/>
     <use x="454.345703" xlink:href="#DejaVuSans-44"/>
     <use x="531.347656" xlink:href="#DejaVuSans-53"/>
    </g>
    <!-- daily_report -->
    <g transform="translate(200.466563 35.472)scale(0.12 -0.12)">
     <defs>
      <path d="M 603 3500 
L 1178 3500 
L 1178 0 
L 603 0 
L 603 3500 
z
M 603 4863 
L 1178 4863 
L 1178 4134 
L 603 4134 
L 603 4863 
z
" id="DejaVuSans-69" transform="scale(0.015625)"/>
      <path d="M 603 4863 
L 1178 4863 
L 1178 0 
L 603 0 
L 603 4863 
z
" id="DejaVuSans-6c" transform="scale(0.015625)"/>
      <path d="M 2059 -325 
Q 1816 -950 1584 -1140 
Q 1353 -1331 966 -1331 
L 506 -1331 
L 506 -850 
L 844 -850 
Q 1081 -850 1212 -737 
Q 1344 -625 1503 -206 
L 1606 56 
L 191 3500 
L 800 3500 
L 1894 763 
L 2988 3500 
L 3597 3500 
L 2059 -325 
z
" id="DejaVuSans-79" transform="scale(0.015625)"/>
      <path d="M 3263 -1063 
L 3263 -1509 
L -63 -1509 
L -63 -1063 
L 3263 -1063 
z
" id="DejaVuSans-5f" transform="scale(0.015625)"/>
      <path d="M 2631 2963 
Q 2534 3019 2420 3045 
Q 2306 3072 2169 3072 
Q 1681 3072 1420 2755 
Q 1159 2438 1159 1844 
L 1159 0 
L 581 0 
L 581 3500 
L 1159 3500 
L 1159 2956 
Q 1341 3275 1631 3429 
Q 1922 3584 2338 3584 
Q 2397 3584 2469 3576 
Q 2541 3569 2628 3553 
L 2631 2963 
z
" id="DejaVuSans-72" transform="scale(0.015625)"/>
      <path d="M 1159 525 
L 1159 -1331 
L 581 -1331 
L 581 3500 
L 1159 3500 
L 1159 2969 
Q 1341 3281 1617 3432 
Q 1894 3584 2278 3584 
Q 2916 3584 3314 3078 
Q 3713 2572 3713 1747 
Q 3713 922 3314 415 
Q 2916 -91 2278 -91 
Q 1894 -91 1617 61 
Q 1341 213 1159 525 
z
M 3116 1747 
Q 3116 2381 2855 2742 
Q 2594 3103 2138 3103 
Q 1681 3103 1420 2742 
Q 1159 2381 1159 1747 
Q 1159 1113 1420 752 
Q 1681 391 2138 391 
Q 2594 391 2855 752 
Q 3116 1113 3116 1747 
z
" id="DejaVuSans-70" transform="scale(0.015625)"/>
      <path d="M 1959 3097 
Q 1497 3097 1228 2736 
Q 959 2375 959 1747 
Q 959 1119 1226 758 
Q 1494 397 1959 397 
Q 2419 397 2687 759 
Q 2956 1122 2956 1747 
Q 2956 2369 2687 2733 
Q 2419 3097 1959 3097 
z
M 1959 3584 
Q 2709 3584 3137 3096 
Q 3566 2609 3566 1747 
Q 3566 888 3137 398 
Q 2709 -91 1959 -91 
Q 1206 -91 779 398 
Q 353 888 353 1747 
Q 353 2609 779 3096 
Q 1206 3584 1959 3584 
z
" id="DejaVuSans-6f" transform="scale(0.015625)"/>
     </defs>
     <use xlink:href="#DejaVuSans-64"/>
     <use x="63.476562" xlink:href="#DejaVuSans-61"/>
     <use x="124.755859" xlink:href="#DejaVuSans-69"/>
     <use x="152.539062" xlink:href="#DejaVuSans-6c"/>
     <use x="180.322266" xlink:href="#DejaVuSans-79"/>
     <use x="239.501953" xlink:href="#DejaVuSans-5f"/>
     <use x="289.501953" xlink:href="#DejaVuSans-72"/>
     <use x="328.365234" xlink:href="#DejaVuSans-65"/>
     <use x="389.888672" xlink:href="#DejaVuSans-70"/>
     <use x="453.365234" xlink:href="#DejaVuSans-6f"/>
     <use x="514.546875" xlink:href="#DejaVuSans-72"/>
     <use x="555.660156" xlink:href="#DejaVuSans-74"/>
    </g>
   </g>
   <g id="legend_1">
    <g id="patch_7">
     <path d="M 64.6 271.48 
L 178.64375 271.48 
Q 180.64375 271.48 180.64375 269.48 
L 180.64375 182.41125 
Q 180.64375 180.41125 178.64375 180.41125 
L 64.6 180.41125 
Q 62.6 180.41125 62.6 182.41125 
L 62.6 269.48 
Q 62.6 271.48 64.6 271.48 
z
" style="fill:#ffffff;opacity:0.8;stroke:#cccccc;stroke-linejoin:miter;"/>
    </g>
    <g id="line2d_19">
     <path d="M 66.6 188.509687 
L 86.6 188.509687 
" style="fill:none;stroke:#0000ff;stroke-linecap:square;stroke-opacity:0.9;stroke-width:2;"/>
    </g>
    <g id="line2d_20"/>
    <g id="text_15">
     <!-- alpaca -->
     <g transform="translate(94.6 192.009687)scale(0.1 -0.1)">
      <defs>
       <path d="M 3122 3366 
L 3122 2828 
Q 2878 2963 2633 3030 
Q 2388 3097 2138 3097 
Q 1578 3097 1268 2742 
Q 959 2388 959 1747 
Q 959 1106 1268 751 
Q 1578 397 2138 397 
Q 2388 397 2633 464 
Q 2878 531 3122 666 
L 3122 134 
Q 2881 22 2623 -34 
Q 2366 -91 2075 -91 
Q 1284 -91 818 406 
Q 353 903 353 1747 
Q 353 2603 823 3093 
Q 1294 3584 2113 3584 
Q 2378 3584 2631 3529 
Q 2884 3475 3122 3366 
z
" id="DejaVuSans-63" transform="scale(0.015625)"/>
      </defs>
      <use xlink:href="#DejaVuSans-61"/>
      <use x="61.279297" xlink:href="#DejaVuSans-6c"/>
      <use x="89.0625" xlink:href="#DejaVuSans-70"/>
      <use x="152.539062" xlink:href="#DejaVuSans-61"/>
      <use x="213.818359" xlink:href="#DejaVuSans-63"/>
      <use x="268.798828" xlink:href="#DejaVuSans-61"/>
     </g>
    </g>
    <g id="line2d_21">
     <path d="M 66.6 203.187812 
L 86.6 203.187812 
" style="fill:none;stroke:#ff0000;stroke-linecap:square;stroke-opacity:0.9;stroke-width:2;"/>
    </g>
    <g id="line2d_22"/>
    <g id="text_16">
     <!-- mattress -->
     <g transform="translate(94.6 206.687812)scale(0.1 -0.1)">
      <defs>
       <path d="M 3328 2828 
Q 3544 3216 3844 3400 
Q 4144 3584 4550 3584 
Q 5097 3584 5394 3201 
Q 5691 2819 5691 2113 
L 5691 0 
L 5113 0 
L 5113 2094 
Q 5113 2597 4934 2840 
Q 4756 3084 4391 3084 
Q 3944 3084 3684 2787 
Q 3425 2491 3425 1978 
L 3425 0 
L 2847 0 
L 2847 2094 
Q 2847 2600 2669 2842 
Q 2491 3084 2119 3084 
Q 1678 3084 1418 2786 
Q 1159 2488 1159 1978 
L 1159 0 
L 581 0 
L 581 3500 
L 1159 3500 
L 1159 2956 
Q 1356 3278 1631 3431 
Q 1906 3584 2284 3584 
Q 2666 3584 2933 3390 
Q 3200 3197 3328 2828 
z
" id="DejaVuSans-6d" transform="scale(0.015625)"/>
       <path d="M 2834 3397 
L 2834 2853 
Q 2591 2978 2328 3040 
Q 2066 3103 1784 3103 
Q 1356 3103 1142 2972 
Q 928 2841 928 2578 
Q 928 2378 1081 2264 
Q 1234 2150 1697 2047 
L 1894 2003 
Q 2506 1872 2764 1633 
Q 3022 1394 3022 966 
Q 3022 478 2636 193 
Q 2250 -91 1575 -91 
Q 1294 -91 989 -36 
Q 684 19 347 128 
L 347 722 
Q 666 556 975 473 
Q 1284 391 1588 391 
Q 1994 391 2212 530 
Q 2431 669 2431 922 
Q 2431 1156 2273 1281 
Q 2116 1406 1581 1522 
L 1381 1569 
Q 847 1681 609 1914 
Q 372 2147 372 2553 
Q 372 3047 722 3315 
Q 1072 3584 1716 3584 
Q 2034 3584 2315 3537 
Q 2597 3491 2834 3397 
z
" id="DejaVuSans-73" transform="scale(0.015625)"/>
      </defs>
      <use xlink:href="#DejaVuSans-6d"/>
      <use x="97.412109" xlink:href="#DejaVuSans-61"/>
      <use x="158.691406" xlink:href="#DejaVuSans-74"/>
      <use x="197.900391" xlink:href="#DejaVuSans-74"/>
      <use x="237.109375" xlink:href="#DejaVuSans-72"/>
      <use x="275.972656" xlink:href="#DejaVuSans-65"/>
      <use x="337.496094" xlink:href="#DejaVuSans-73"/>
      <use x="389.595703" xlink:href="#DejaVuSans-73"/>
     </g>
    </g>
    <g id="line2d_23">
     <path d="M 66.6 217.865937 
L 86.6 217.865937 
" style="fill:none;stroke:#008000;stroke-linecap:square;stroke-opacity:0.9;stroke-width:2;"/>
    </g>
    <g id="line2d_24"/>
    <g id="text_17">
     <!-- daily-open-rebal -->
     <g transform="translate(94.6 221.365937)scale(0.1 -0.1)">
      <defs>
       <path d="M 3513 2113 
L 3513 0 
L 2938 0 
L 2938 2094 
Q 2938 2591 2744 2837 
Q 2550 3084 2163 3084 
Q 1697 3084 1428 2787 
Q 1159 2491 1159 1978 
L 1159 0 
L 581 0 
L 581 3500 
L 1159 3500 
L 1159 2956 
Q 1366 3272 1645 3428 
Q 1925 3584 2291 3584 
Q 2894 3584 3203 3211 
Q 3513 2838 3513 2113 
z
" id="DejaVuSans-6e" transform="scale(0.015625)"/>
       <path d="M 3116 1747 
Q 3116 2381 2855 2742 
Q 2594 3103 2138 3103 
Q 1681 3103 1420 2742 
Q 1159 2381 1159 1747 
Q 1159 1113 1420 752 
Q 1681 391 2138 391 
Q 2594 391 2855 752 
Q 3116 1113 3116 1747 
z
M 1159 2969 
Q 1341 3281 1617 3432 
Q 1894 3584 2278 3584 
Q 2916 3584 3314 3078 
Q 3713 2572 3713 1747 
Q 3713 922 3314 415 
Q 2916 -91 2278 -91 
Q 1894 -91 1617 61 
Q 1341 213 1159 525 
L 1159 0 
L 581 0 
L 581 4863 
L 1159 4863 
L 1159 2969 
z
" id="DejaVuSans-62" transform="scale(0.015625)"/>
      </defs>
      <use xlink:href="#DejaVuSans-64"/>
      <use x="63.476562" xlink:href="#DejaVuSans-61"/>
      <use x="124.755859" xlink:href="#DejaVuSans-69"/>
      <use x="152.539062" xlink:href="#DejaVuSans-6c"/>
      <use x="180.322266" xlink:href="#DejaVuSans-79"/>
      <use x="237.751953" xlink:href="#DejaVuSans-2d"/>
      <use x="275.710938" xlink:href="#DejaVuSans-6f"/>
      <use x="336.892578" xlink:href="#DejaVuSans-70"/>
      <use x="400.369141" xlink:href="#DejaVuSans-65"/>
      <use x="461.892578" xlink:href="#DejaVuSans-6e"/>
      <use x="525.271484" xlink:href="#DejaVuSans-2d"/>
      <use x="561.355469" xlink:href="#DejaVuSans-72"/>
      <use x="600.21875" xlink:href="#DejaVuSans-65"/>
      <use x="661.742188" xlink:href="#DejaVuSans-62"/>
      <use x="725.21875" xlink:href="#DejaVuSans-61"/>
      <use x="786.498047" xlink:href="#DejaVuSans-6c"/>
     </g>
    </g>
    <g id="line2d_25">
     <path d="M 66.6 232.544062 
L 86.6 232.544062 
" style="fill:none;stroke:#ec5283;stroke-linecap:square;stroke-width:2;"/>
    </g>
    <g id="line2d_26"/>
    <g id="text_18">
     <!-- daily-close-rebal -->
     <g transform="translate(94.6 236.044062)scale(0.1 -0.1)">
      <use xlink:href="#DejaVuSans-64"/>
      <use x="63.476562" xlink:href="#DejaVuSans-61"/>
      <use x="124.755859" xlink:href="#DejaVuSans-69"/>
      <use x="152.539062" xlink:href="#DejaVuSans-6c"/>
      <use x="180.322266" xlink:href="#DejaVuSans-79"/>
      <use x="237.751953" xlink:href="#DejaVuSans-2d"/>
      <use x="273.835938" xlink:href="#DejaVuSans-63"/>
      <use x="328.816406" xlink:href="#DejaVuSans-6c"/>
      <use x="356.599609" xlink:href="#DejaVuSans-6f"/>
      <use x="417.78125" xlink:href="#DejaVuSans-73"/>
      <use x="469.880859" xlink:href="#DejaVuSans-65"/>
      <use x="531.404297" xlink:href="#DejaVuSans-2d"/>
      <use x="567.488281" xlink:href="#DejaVuSans-72"/>
      <use x="606.351562" xlink:href="#DejaVuSans-65"/>
      <use x="667.875" xlink:href="#DejaVuSans-62"/>
      <use x="731.351562" xlink:href="#DejaVuSans-61"/>
      <use x="792.630859" xlink:href="#DejaVuSans-6c"/>
     </g>
    </g>
    <g id="line2d_27">
     <path d="M 66.6 247.222187 
L 86.6 247.222187 
" style="fill:none;stroke:#00ff00;stroke-linecap:square;stroke-opacity:0.9;stroke-width:2;"/>
    </g>
    <g id="line2d_28"/>
    <g id="text_19">
     <!-- trader-baseline -->
     <g transform="translate(94.6 250.722187)scale(0.1 -0.1)">
      <use xlink:href="#DejaVuSans-74"/>
      <use x="39.208984" xlink:href="#DejaVuSans-72"/>
      <use x="80.322266" xlink:href="#DejaVuSans-61"/>
      <use x="141.601562" xlink:href="#DejaVuSans-64"/>
      <use x="205.078125" xlink:href="#DejaVuSans-65"/>
      <use x="266.601562" xlink:href="#DejaVuSans-72"/>
      <use x="301.339844" xlink:href="#DejaVuSans-2d"/>
      <use x="337.423828" xlink:href="#DejaVuSans-62"/>
      <use x="400.900391" xlink:href="#DejaVuSans-61"/>
      <use x="462.179688" xlink:href="#DejaVuSans-73"/>
      <use x="514.279297" xlink:href="#DejaVuSans-65"/>
      <use x="575.802734" xlink:href="#DejaVuSans-6c"/>
      <use x="603.585938" xlink:href="#DejaVuSans-69"/>
      <use x="631.369141" xlink:href="#DejaVuSans-6e"/>
      <use x="694.748047" xlink:href="#DejaVuSans-65"/>
     </g>
    </g>
    <g id="line2d_29">
     <path d="M 66.6 261.900312 
L 86.6 261.900312 
" style="fill:none;stroke:#a5b9cf;stroke-linecap:square;stroke-width:2;"/>
    </g>
    <g id="line2d_30"/>
    <g id="text_20">
     <!-- default-cfg -->
     <g transform="translate(94.6 265.400312)scale(0.1 -0.1)">
      <defs>
       <path d="M 2375 4863 
L 2375 4384 
L 1825 4384 
Q 1516 4384 1395 4259 
Q 1275 4134 1275 3809 
L 1275 3500 
L 2222 3500 
L 2222 3053 
L 1275 3053 
L 1275 0 
L 697 0 
L 697 3053 
L 147 3053 
L 147 3500 
L 697 3500 
L 697 3744 
Q 697 4328 969 4595 
Q 1241 4863 1831 4863 
L 2375 4863 
z
" id="DejaVuSans-66" transform="scale(0.015625)"/>
       <path d="M 544 1381 
L 544 3500 
L 1119 3500 
L 1119 1403 
Q 1119 906 1312 657 
Q 1506 409 1894 409 
Q 2359 409 2629 706 
Q 2900 1003 2900 1516 
L 2900 3500 
L 3475 3500 
L 3475 0 
L 2900 0 
L 2900 538 
Q 2691 219 2414 64 
Q 2138 -91 1772 -91 
Q 1169 -91 856 284 
Q 544 659 544 1381 
z
M 1991 3584 
L 1991 3584 
z
" id="DejaVuSans-75" transform="scale(0.015625)"/>
       <path d="M 2906 1791 
Q 2906 2416 2648 2759 
Q 2391 3103 1925 3103 
Q 1463 3103 1205 2759 
Q 947 2416 947 1791 
Q 947 1169 1205 825 
Q 1463 481 1925 481 
Q 2391 481 2648 825 
Q 2906 1169 2906 1791 
z
M 3481 434 
Q 3481 -459 3084 -895 
Q 2688 -1331 1869 -1331 
Q 1566 -1331 1297 -1286 
Q 1028 -1241 775 -1147 
L 775 -588 
Q 1028 -725 1275 -790 
Q 1522 -856 1778 -856 
Q 2344 -856 2625 -561 
Q 2906 -266 2906 331 
L 2906 616 
Q 2728 306 2450 153 
Q 2172 0 1784 0 
Q 1141 0 747 490 
Q 353 981 353 1791 
Q 353 2603 747 3093 
Q 1141 3584 1784 3584 
Q 2172 3584 2450 3431 
Q 2728 3278 2906 2969 
L 2906 3500 
L 3481 3500 
L 3481 434 
z
" id="DejaVuSans-67" transform="scale(0.015625)"/>
      </defs>
      <use xlink:href="#DejaVuSans-64"/>
      <use x="63.476562" xlink:href="#DejaVuSans-65"/>
      <use x="125" xlink:href="#DejaVuSans-66"/>
      <use x="160.205078" xlink:href="#DejaVuSans-61"/>
      <use x="221.484375" xlink:href="#DejaVuSans-75"/>
      <use x="284.863281" xlink:href="#DejaVuSans-6c"/>
      <use x="312.646484" xlink:href="#DejaVuSans-74"/>
      <use x="351.855469" xlink:href="#DejaVuSans-2d"/>
      <use x="387.939453" xlink:href="#DejaVuSans-63"/>
      <use x="442.919922" xlink:href="#DejaVuSans-66"/>
      <use x="478.125" xlink:href="#DejaVuSans-67"/>
     </g>
    </g>
   </g>
  </g>
 </g>
 <defs>
  <clipPath id="p528c4d0997">
   <rect height="235.008" width="357.12" x="57.6" y="41.472"/>
  </clipPath>
 </defs>
</svg>
