<?xml version="1.0" encoding="utf-8" standalone="no"?>
<!DOCTYPE svg PUBLIC "-//W3C//DTD SVG 1.1//EN"
  "http://www.w3.org/Graphics/SVG/1.1/DTD/svg11.dtd">
<svg height="345.6pt" version="1.1" viewBox="0 0 460.8 345.6" width="460.8pt" xmlns="http://www.w3.org/2000/svg" xmlns:xlink="http://www.w3.org/1999/xlink">
 <metadata>
  <rdf:RDF xmlns:cc="http://creativecommons.org/ns#" xmlns:dc="http://purl.org/dc/elements/1.1/" xmlns:rdf="http://www.w3.org/1999/02/22-rdf-syntax-ns#">
   <cc:Work>
    <dc:type rdf:resource="http://purl.org/dc/dcmitype/StillImage"/>
    <dc:date>2022-05-21T01:01:41.179204</dc:date>
    <dc:format>image/svg+xml</dc:format>
    <dc:creator>
     <cc:Agent>
      <dc:title>Matplotlib v3.4.3, https://matplotlib.org/</dc:title>
     </cc:Agent>
    </dc:creator>
   </cc:Work>
  </rdf:RDF>
 </metadata>
 <defs>
  <style type="text/css">*{stroke-linecap:butt;stroke-linejoin:round;}</style>
 </defs>
 <g id="figure_1">
  <g id="patch_1">
   <path d="M 0 345.6 
L 460.8 345.6 
L 460.8 0 
L 0 0 
z
" style="fill:#ffffff;"/>
  </g>
  <g id="axes_1">
   <g id="patch_2">
    <path d="M 57.6 276.48 
L 414.72 276.48 
L 414.72 41.472 
L 57.6 41.472 
z
" style="fill:#ffffff;"/>
   </g>
   <g id="matplotlib.axis_1">
    <g id="xtick_1">
     <g id="line2d_1">
      <defs>
       <path d="M 0 0 
L 0 3.5 
" id="m4174cbee6f" style="stroke:#000000;stroke-width:0.8;"/>
      </defs>
      <g>
       <use style="stroke:#000000;stroke-width:0.8;" x="84.654545" xlink:href="#m4174cbee6f" y="276.48"/>
      </g>
     </g>
     <g id="text_1">
      <!-- 2021-09 -->
      <g transform="translate(47.429725 310.951846)rotate(-30)scale(0.1 -0.1)">
       <defs>
        <path d="M 1228 531 
L 3431 531 
L 3431 0 
L 469 0 
L 469 531 
Q 828 903 1448 1529 
Q 2069 2156 2228 2338 
Q 2531 2678 2651 2914 
Q 2772 3150 2772 3378 
Q 2772 3750 2511 3984 
Q 2250 4219 1831 4219 
Q 1534 4219 1204 4116 
Q 875 4013 500 3803 
L 500 4441 
Q 881 4594 1212 4672 
Q 1544 4750 1819 4750 
Q 2544 4750 2975 4387 
Q 3406 4025 3406 3419 
Q 3406 3131 3298 2873 
Q 3191 2616 2906 2266 
Q 2828 2175 2409 1742 
Q 1991 1309 1228 531 
z
" id="DejaVuSans-32" transform="scale(0.015625)"/>
        <path d="M 2034 4250 
Q 1547 4250 1301 3770 
Q 1056 3291 1056 2328 
Q 1056 1369 1301 889 
Q 1547 409 2034 409 
Q 2525 409 2770 889 
Q 3016 1369 3016 2328 
Q 3016 3291 2770 3770 
Q 2525 4250 2034 4250 
z
M 2034 4750 
Q 2819 4750 3233 4129 
Q 3647 3509 3647 2328 
Q 3647 1150 3233 529 
Q 2819 -91 2034 -91 
Q 1250 -91 836 529 
Q 422 1150 422 2328 
Q 422 3509 836 4129 
Q 1250 4750 2034 4750 
z
" id="DejaVuSans-30" transform="scale(0.015625)"/>
        <path d="M 794 531 
L 1825 531 
L 1825 4091 
L 703 3866 
L 703 4441 
L 1819 4666 
L 2450 4666 
L 2450 531 
L 3481 531 
L 3481 0 
L 794 0 
L 794 531 
z
" id="DejaVuSans-31" transform="scale(0.015625)"/>
        <path d="M 313 2009 
L 1997 2009 
L 1997 1497 
L 313 1497 
L 313 2009 
z
" id="DejaVuSans-2d" transform="scale(0.015625)"/>
        <path d="M 703 97 
L 703 672 
Q 941 559 1184 500 
Q 1428 441 1663 441 
Q 2288 441 2617 861 
Q 2947 1281 2994 2138 
Q 2813 1869 2534 1725 
Q 2256 1581 1919 1581 
Q 1219 1581 811 2004 
Q 403 2428 403 3163 
Q 403 3881 828 4315 
Q 1253 4750 1959 4750 
Q 2769 4750 3195 4129 
Q 3622 3509 3622 2328 
Q 3622 1225 3098 567 
Q 2575 -91 1691 -91 
Q 1453 -91 1209 -44 
Q 966 3 703 97 
z
M 1959 2075 
Q 2384 2075 2632 2365 
Q 2881 2656 2881 3163 
Q 2881 3666 2632 3958 
Q 2384 4250 1959 4250 
Q 1534 4250 1286 3958 
Q 1038 3666 1038 3163 
Q 1038 2656 1286 2365 
Q 1534 2075 1959 2075 
z
" id="DejaVuSans-39" transform="scale(0.015625)"/>
       </defs>
       <use xlink:href="#DejaVuSans-32"/>
       <use x="63.623047" xlink:href="#DejaVuSans-30"/>
       <use x="127.246094" xlink:href="#DejaVuSans-32"/>
       <use x="190.869141" xlink:href="#DejaVuSans-31"/>
       <use x="254.492188" xlink:href="#DejaVuSans-2d"/>
       <use x="290.576172" xlink:href="#DejaVuSans-30"/>
       <use x="354.199219" xlink:href="#DejaVuSans-39"/>
      </g>
     </g>
    </g>
    <g id="xtick_2">
     <g id="line2d_2">
      <g>
       <use style="stroke:#000000;stroke-width:0.8;" x="120.727273" xlink:href="#m4174cbee6f" y="276.48"/>
      </g>
     </g>
     <g id="text_2">
      <!-- 2021-10 -->
      <g transform="translate(83.502452 310.951846)rotate(-30)scale(0.1 -0.1)">
       <use xlink:href="#DejaVuSans-32"/>
       <use x="63.623047" xlink:href="#DejaVuSans-30"/>
       <use x="127.246094" xlink:href="#DejaVuSans-32"/>
       <use x="190.869141" xlink:href="#DejaVuSans-31"/>
       <use x="254.492188" xlink:href="#DejaVuSans-2d"/>
       <use x="290.576172" xlink:href="#DejaVuSans-31"/>
       <use x="354.199219" xlink:href="#DejaVuSans-30"/>
      </g>
     </g>
    </g>
    <g id="xtick_3">
     <g id="line2d_3">
      <g>
       <use style="stroke:#000000;stroke-width:0.8;" x="158.002424" xlink:href="#m4174cbee6f" y="276.48"/>
      </g>
     </g>
     <g id="text_3">
      <!-- 2021-11 -->
      <g transform="translate(120.777603 310.951846)rotate(-30)scale(0.1 -0.1)">
       <use xlink:href="#DejaVuSans-32"/>
       <use x="63.623047" xlink:href="#DejaVuSans-30"/>
       <use x="127.246094" xlink:href="#DejaVuSans-32"/>
       <use x="190.869141" xlink:href="#DejaVuSans-31"/>
       <use x="254.492188" xlink:href="#DejaVuSans-2d"/>
       <use x="290.576172" xlink:href="#DejaVuSans-31"/>
       <use x="354.199219" xlink:href="#DejaVuSans-31"/>
      </g>
     </g>
    </g>
    <g id="xtick_4">
     <g id="line2d_4">
      <g>
       <use style="stroke:#000000;stroke-width:0.8;" x="194.075152" xlink:href="#m4174cbee6f" y="276.48"/>
      </g>
     </g>
     <g id="text_4">
      <!-- 2021-12 -->
      <g transform="translate(156.850331 310.951846)rotate(-30)scale(0.1 -0.1)">
       <use xlink:href="#DejaVuSans-32"/>
       <use x="63.623047" xlink:href="#DejaVuSans-30"/>
       <use x="127.246094" xlink:href="#DejaVuSans-32"/>
       <use x="190.869141" xlink:href="#DejaVuSans-31"/>
       <use x="254.492188" xlink:href="#DejaVuSans-2d"/>
       <use x="290.576172" xlink:href="#DejaVuSans-31"/>
       <use x="354.199219" xlink:href="#DejaVuSans-32"/>
      </g>
     </g>
    </g>
    <g id="xtick_5">
     <g id="line2d_5">
      <g>
       <use style="stroke:#000000;stroke-width:0.8;" x="231.350303" xlink:href="#m4174cbee6f" y="276.48"/>
      </g>
     </g>
     <g id="text_5">
      <!-- 2022-01 -->
      <g transform="translate(194.125482 310.951846)rotate(-30)scale(0.1 -0.1)">
       <use xlink:href="#DejaVuSans-32"/>
       <use x="63.623047" xlink:href="#DejaVuSans-30"/>
       <use x="127.246094" xlink:href="#DejaVuSans-32"/>
       <use x="190.869141" xlink:href="#DejaVuSans-32"/>
       <use x="254.492188" xlink:href="#DejaVuSans-2d"/>
       <use x="290.576172" xlink:href="#DejaVuSans-30"/>
       <use x="354.199219" xlink:href="#DejaVuSans-31"/>
      </g>
     </g>
    </g>
    <g id="xtick_6">
     <g id="line2d_6">
      <g>
       <use style="stroke:#000000;stroke-width:0.8;" x="268.625455" xlink:href="#m4174cbee6f" y="276.48"/>
      </g>
     </g>
     <g id="text_6">
      <!-- 2022-02 -->
      <g transform="translate(231.400634 310.951846)rotate(-30)scale(0.1 -0.1)">
       <use xlink:href="#DejaVuSans-32"/>
       <use x="63.623047" xlink:href="#DejaVuSans-30"/>
       <use x="127.246094" xlink:href="#DejaVuSans-32"/>
       <use x="190.869141" xlink:href="#DejaVuSans-32"/>
       <use x="254.492188" xlink:href="#DejaVuSans-2d"/>
       <use x="290.576172" xlink:href="#DejaVuSans-30"/>
       <use x="354.199219" xlink:href="#DejaVuSans-32"/>
      </g>
     </g>
    </g>
    <g id="xtick_7">
     <g id="line2d_7">
      <g>
       <use style="stroke:#000000;stroke-width:0.8;" x="302.293333" xlink:href="#m4174cbee6f" y="276.48"/>
      </g>
     </g>
     <g id="text_7">
      <!-- 2022-03 -->
      <g transform="translate(265.068513 310.951846)rotate(-30)scale(0.1 -0.1)">
       <defs>
        <path d="M 2597 2516 
Q 3050 2419 3304 2112 
Q 3559 1806 3559 1356 
Q 3559 666 3084 287 
Q 2609 -91 1734 -91 
Q 1441 -91 1130 -33 
Q 819 25 488 141 
L 488 750 
Q 750 597 1062 519 
Q 1375 441 1716 441 
Q 2309 441 2620 675 
Q 2931 909 2931 1356 
Q 2931 1769 2642 2001 
Q 2353 2234 1838 2234 
L 1294 2234 
L 1294 2753 
L 1863 2753 
Q 2328 2753 2575 2939 
Q 2822 3125 2822 3475 
Q 2822 3834 2567 4026 
Q 2313 4219 1838 4219 
Q 1578 4219 1281 4162 
Q 984 4106 628 3988 
L 628 4550 
Q 988 4650 1302 4700 
Q 1616 4750 1894 4750 
Q 2613 4750 3031 4423 
Q 3450 4097 3450 3541 
Q 3450 3153 3228 2886 
Q 3006 2619 2597 2516 
z
" id="DejaVuSans-33" transform="scale(0.015625)"/>
       </defs>
       <use xlink:href="#DejaVuSans-32"/>
       <use x="63.623047" xlink:href="#DejaVuSans-30"/>
       <use x="127.246094" xlink:href="#DejaVuSans-32"/>
       <use x="190.869141" xlink:href="#DejaVuSans-32"/>
       <use x="254.492188" xlink:href="#DejaVuSans-2d"/>
       <use x="290.576172" xlink:href="#DejaVuSans-30"/>
       <use x="354.199219" xlink:href="#DejaVuSans-33"/>
      </g>
     </g>
    </g>
    <g id="xtick_8">
     <g id="line2d_8">
      <g>
       <use style="stroke:#000000;stroke-width:0.8;" x="339.568485" xlink:href="#m4174cbee6f" y="276.48"/>
      </g>
     </g>
     <g id="text_8">
      <!-- 2022-04 -->
      <g transform="translate(302.343664 310.951846)rotate(-30)scale(0.1 -0.1)">
       <defs>
        <path d="M 2419 4116 
L 825 1625 
L 2419 1625 
L 2419 4116 
z
M 2253 4666 
L 3047 4666 
L 3047 1625 
L 3713 1625 
L 3713 1100 
L 3047 1100 
L 3047 0 
L 2419 0 
L 2419 1100 
L 313 1100 
L 313 1709 
L 2253 4666 
z
" id="DejaVuSans-34" transform="scale(0.015625)"/>
       </defs>
       <use xlink:href="#DejaVuSans-32"/>
       <use x="63.623047" xlink:href="#DejaVuSans-30"/>
       <use x="127.246094" xlink:href="#DejaVuSans-32"/>
       <use x="190.869141" xlink:href="#DejaVuSans-32"/>
       <use x="254.492188" xlink:href="#DejaVuSans-2d"/>
       <use x="290.576172" xlink:href="#DejaVuSans-30"/>
       <use x="354.199219" xlink:href="#DejaVuSans-34"/>
      </g>
     </g>
    </g>
    <g id="xtick_9">
     <g id="line2d_9">
      <g>
       <use style="stroke:#000000;stroke-width:0.8;" x="375.641212" xlink:href="#m4174cbee6f" y="276.48"/>
      </g>
     </g>
     <g id="text_9">
      <!-- 2022-05 -->
      <g transform="translate(338.416391 310.951846)rotate(-30)scale(0.1 -0.1)">
       <defs>
        <path d="M 691 4666 
L 3169 4666 
L 3169 4134 
L 1269 4134 
L 1269 2991 
Q 1406 3038 1543 3061 
Q 1681 3084 1819 3084 
Q 2600 3084 3056 2656 
Q 3513 2228 3513 1497 
Q 3513 744 3044 326 
Q 2575 -91 1722 -91 
Q 1428 -91 1123 -41 
Q 819 9 494 109 
L 494 744 
Q 775 591 1075 516 
Q 1375 441 1709 441 
Q 2250 441 2565 725 
Q 2881 1009 2881 1497 
Q 2881 1984 2565 2268 
Q 2250 2553 1709 2553 
Q 1456 2553 1204 2497 
Q 953 2441 691 2322 
L 691 4666 
z
" id="DejaVuSans-35" transform="scale(0.015625)"/>
       </defs>
       <use xlink:href="#DejaVuSans-32"/>
       <use x="63.623047" xlink:href="#DejaVuSans-30"/>
       <use x="127.246094" xlink:href="#DejaVuSans-32"/>
       <use x="190.869141" xlink:href="#DejaVuSans-32"/>
       <use x="254.492188" xlink:href="#DejaVuSans-2d"/>
       <use x="290.576172" xlink:href="#DejaVuSans-30"/>
       <use x="354.199219" xlink:href="#DejaVuSans-35"/>
      </g>
     </g>
    </g>
    <g id="xtick_10">
     <g id="line2d_10">
      <g>
       <use style="stroke:#000000;stroke-width:0.8;" x="412.916364" xlink:href="#m4174cbee6f" y="276.48"/>
      </g>
     </g>
     <g id="text_10">
      <!-- 2022-06 -->
      <g transform="translate(375.691543 310.951846)rotate(-30)scale(0.1 -0.1)">
       <defs>
        <path d="M 2113 2584 
Q 1688 2584 1439 2293 
Q 1191 2003 1191 1497 
Q 1191 994 1439 701 
Q 1688 409 2113 409 
Q 2538 409 2786 701 
Q 3034 994 3034 1497 
Q 3034 2003 2786 2293 
Q 2538 2584 2113 2584 
z
M 3366 4563 
L 3366 3988 
Q 3128 4100 2886 4159 
Q 2644 4219 2406 4219 
Q 1781 4219 1451 3797 
Q 1122 3375 1075 2522 
Q 1259 2794 1537 2939 
Q 1816 3084 2150 3084 
Q 2853 3084 3261 2657 
Q 3669 2231 3669 1497 
Q 3669 778 3244 343 
Q 2819 -91 2113 -91 
Q 1303 -91 875 529 
Q 447 1150 447 2328 
Q 447 3434 972 4092 
Q 1497 4750 2381 4750 
Q 2619 4750 2861 4703 
Q 3103 4656 3366 4563 
z
" id="DejaVuSans-36" transform="scale(0.015625)"/>
       </defs>
       <use xlink:href="#DejaVuSans-32"/>
       <use x="63.623047" xlink:href="#DejaVuSans-30"/>
       <use x="127.246094" xlink:href="#DejaVuSans-32"/>
       <use x="190.869141" xlink:href="#DejaVuSans-32"/>
       <use x="254.492188" xlink:href="#DejaVuSans-2d"/>
       <use x="290.576172" xlink:href="#DejaVuSans-30"/>
       <use x="354.199219" xlink:href="#DejaVuSans-36"/>
      </g>
     </g>
    </g>
    <g id="text_11">
     <!-- date -->
     <g transform="translate(224.885 324.351346)scale(0.1 -0.1)">
      <defs>
       <path d="M 2906 2969 
L 2906 4863 
L 3481 4863 
L 3481 0 
L 2906 0 
L 2906 525 
Q 2725 213 2448 61 
Q 2172 -91 1784 -91 
Q 1150 -91 751 415 
Q 353 922 353 1747 
Q 353 2572 751 3078 
Q 1150 3584 1784 3584 
Q 2172 3584 2448 3432 
Q 2725 3281 2906 2969 
z
M 947 1747 
Q 947 1113 1208 752 
Q 1469 391 1925 391 
Q 2381 391 2643 752 
Q 2906 1113 2906 1747 
Q 2906 2381 2643 2742 
Q 2381 3103 1925 3103 
Q 1469 3103 1208 2742 
Q 947 2381 947 1747 
z
" id="DejaVuSans-64" transform="scale(0.015625)"/>
       <path d="M 2194 1759 
Q 1497 1759 1228 1600 
Q 959 1441 959 1056 
Q 959 750 1161 570 
Q 1363 391 1709 391 
Q 2188 391 2477 730 
Q 2766 1069 2766 1631 
L 2766 1759 
L 2194 1759 
z
M 3341 1997 
L 3341 0 
L 2766 0 
L 2766 531 
Q 2569 213 2275 61 
Q 1981 -91 1556 -91 
Q 1019 -91 701 211 
Q 384 513 384 1019 
Q 384 1609 779 1909 
Q 1175 2209 1959 2209 
L 2766 2209 
L 2766 2266 
Q 2766 2663 2505 2880 
Q 2244 3097 1772 3097 
Q 1472 3097 1187 3025 
Q 903 2953 641 2809 
L 641 3341 
Q 956 3463 1253 3523 
Q 1550 3584 1831 3584 
Q 2591 3584 2966 3190 
Q 3341 2797 3341 1997 
z
" id="DejaVuSans-61" transform="scale(0.015625)"/>
       <path d="M 1172 4494 
L 1172 3500 
L 2356 3500 
L 2356 3053 
L 1172 3053 
L 1172 1153 
Q 1172 725 1289 603 
Q 1406 481 1766 481 
L 2356 481 
L 2356 0 
L 1766 0 
Q 1100 0 847 248 
Q 594 497 594 1153 
L 594 3053 
L 172 3053 
L 172 3500 
L 594 3500 
L 594 4494 
L 1172 4494 
z
" id="DejaVuSans-74" transform="scale(0.015625)"/>
       <path d="M 3597 1894 
L 3597 1613 
L 953 1613 
Q 991 1019 1311 708 
Q 1631 397 2203 397 
Q 2534 397 2845 478 
Q 3156 559 3463 722 
L 3463 178 
Q 3153 47 2828 -22 
Q 2503 -91 2169 -91 
Q 1331 -91 842 396 
Q 353 884 353 1716 
Q 353 2575 817 3079 
Q 1281 3584 2069 3584 
Q 2775 3584 3186 3129 
Q 3597 2675 3597 1894 
z
M 3022 2063 
Q 3016 2534 2758 2815 
Q 2500 3097 2075 3097 
Q 1594 3097 1305 2825 
Q 1016 2553 972 2059 
L 3022 2063 
z
" id="DejaVuSans-65" transform="scale(0.015625)"/>
      </defs>
      <use xlink:href="#DejaVuSans-64"/>
      <use x="63.476562" xlink:href="#DejaVuSans-61"/>
      <use x="124.755859" xlink:href="#DejaVuSans-74"/>
      <use x="163.964844" xlink:href="#DejaVuSans-65"/>
     </g>
    </g>
   </g>
   <g id="matplotlib.axis_2">
    <g id="ytick_1">
     <g id="line2d_11">
      <defs>
       <path d="M 0 0 
L -3.5 0 
" id="mf067c1486d" style="stroke:#000000;stroke-width:0.8;"/>
      </defs>
      <g>
       <use style="stroke:#000000;stroke-width:0.8;" x="57.6" xlink:href="#mf067c1486d" y="239.038913"/>
      </g>
     </g>
     <g id="text_12">
      <!-- 80000 -->
      <g transform="translate(18.7875 242.838132)scale(0.1 -0.1)">
       <defs>
        <path d="M 2034 2216 
Q 1584 2216 1326 1975 
Q 1069 1734 1069 1313 
Q 1069 891 1326 650 
Q 1584 409 2034 409 
Q 2484 409 2743 651 
Q 3003 894 3003 1313 
Q 3003 1734 2745 1975 
Q 2488 2216 2034 2216 
z
M 1403 2484 
Q 997 2584 770 2862 
Q 544 3141 544 3541 
Q 544 4100 942 4425 
Q 1341 4750 2034 4750 
Q 2731 4750 3128 4425 
Q 3525 4100 3525 3541 
Q 3525 3141 3298 2862 
Q 3072 2584 2669 2484 
Q 3125 2378 3379 2068 
Q 3634 1759 3634 1313 
Q 3634 634 3220 271 
Q 2806 -91 2034 -91 
Q 1263 -91 848 271 
Q 434 634 434 1313 
Q 434 1759 690 2068 
Q 947 2378 1403 2484 
z
M 1172 3481 
Q 1172 3119 1398 2916 
Q 1625 2713 2034 2713 
Q 2441 2713 2670 2916 
Q 2900 3119 2900 3481 
Q 2900 3844 2670 4047 
Q 2441 4250 2034 4250 
Q 1625 4250 1398 4047 
Q 1172 3844 1172 3481 
z
" id="DejaVuSans-38" transform="scale(0.015625)"/>
       </defs>
       <use xlink:href="#DejaVuSans-38"/>
       <use x="63.623047" xlink:href="#DejaVuSans-30"/>
       <use x="127.246094" xlink:href="#DejaVuSans-30"/>
       <use x="190.869141" xlink:href="#DejaVuSans-30"/>
       <use x="254.492188" xlink:href="#DejaVuSans-30"/>
      </g>
     </g>
    </g>
    <g id="ytick_2">
     <g id="line2d_12">
      <g>
       <use style="stroke:#000000;stroke-width:0.8;" x="57.6" xlink:href="#mf067c1486d" y="189.567466"/>
      </g>
     </g>
     <g id="text_13">
      <!-- 90000 -->
      <g transform="translate(18.7875 193.366684)scale(0.1 -0.1)">
       <use xlink:href="#DejaVuSans-39"/>
       <use x="63.623047" xlink:href="#DejaVuSans-30"/>
       <use x="127.246094" xlink:href="#DejaVuSans-30"/>
       <use x="190.869141" xlink:href="#DejaVuSans-30"/>
       <use x="254.492188" xlink:href="#DejaVuSans-30"/>
      </g>
     </g>
    </g>
    <g id="ytick_3">
     <g id="line2d_13">
      <g>
       <use style="stroke:#000000;stroke-width:0.8;" x="57.6" xlink:href="#mf067c1486d" y="140.096018"/>
      </g>
     </g>
     <g id="text_14">
      <!-- 100000 -->
      <g transform="translate(12.425 143.895237)scale(0.1 -0.1)">
       <use xlink:href="#DejaVuSans-31"/>
       <use x="63.623047" xlink:href="#DejaVuSans-30"/>
       <use x="127.246094" xlink:href="#DejaVuSans-30"/>
       <use x="190.869141" xlink:href="#DejaVuSans-30"/>
       <use x="254.492188" xlink:href="#DejaVuSans-30"/>
       <use x="318.115234" xlink:href="#DejaVuSans-30"/>
      </g>
     </g>
    </g>
    <g id="ytick_4">
     <g id="line2d_14">
      <g>
       <use style="stroke:#000000;stroke-width:0.8;" x="57.6" xlink:href="#mf067c1486d" y="90.624571"/>
      </g>
     </g>
     <g id="text_15">
      <!-- 110000 -->
      <g transform="translate(12.425 94.42379)scale(0.1 -0.1)">
       <use xlink:href="#DejaVuSans-31"/>
       <use x="63.623047" xlink:href="#DejaVuSans-31"/>
       <use x="127.246094" xlink:href="#DejaVuSans-30"/>
       <use x="190.869141" xlink:href="#DejaVuSans-30"/>
       <use x="254.492188" xlink:href="#DejaVuSans-30"/>
       <use x="318.115234" xlink:href="#DejaVuSans-30"/>
      </g>
     </g>
    </g>
   </g>
   <g id="line2d_15">
    <path clip-path="url(#p7d969c6294)" d="M 73.832727 140.096018 
L 75.035152 140.696502 
L 76.237576 138.388382 
L 77.44 141.451915 
L 78.642424 136.520757 
L 83.452121 132.614354 
L 84.654545 133.757213 
L 85.85697 133.282206 
L 91.869091 133.906738 
L 93.071515 135.619366 
L 94.273939 136.991575 
L 95.476364 141.08871 
L 99.083636 137.185912 
L 100.286061 144.490472 
L 101.488485 140.850638 
L 102.690909 141.827006 
L 103.893333 146.553524 
L 107.500606 155.029122 
L 108.70303 156.132515 
L 109.905455 152.623421 
L 111.107879 144.971109 
L 112.310303 140.799513 
L 115.917576 137.051335 
L 117.12 147.227446 
L 118.322424 145.56817 
L 119.524848 149.746428 
L 120.727273 142.307758 
L 124.334545 151.434752 
L 125.53697 143.80735 
L 126.739394 142.172533 
L 127.941818 141.808749 
L 129.144242 141.327408 
L 132.751515 140.614106 
L 133.953939 140.175682 
L 135.156364 146.658201 
L 136.358788 136.636397 
L 137.561212 135.988959 
L 141.168485 132.076024 
L 142.370909 127.251475 
L 143.573333 124.935667 
L 144.775758 133.812274 
L 145.978182 140.330566 
L 149.585455 139.88208 
L 150.787879 143.833944 
L 151.990303 145.319425 
L 153.192727 138.706714 
L 154.395152 145.326044 
L 158.002424 135.288471 
L 159.204848 135.5134 
L 160.407273 130.302129 
L 161.609697 136.201918 
L 162.812121 132.89443 
L 166.419394 132.780457 
L 167.621818 138.713307 
L 168.824242 138.656125 
L 170.026667 142.569394 
L 171.229091 139.100425 
L 174.836364 137.650643 
L 176.038788 137.574244 
L 177.241212 140.039465 
L 178.443636 141.437504 
L 179.646061 141.677644 
L 183.253333 138.965975 
L 184.455758 134.651351 
L 185.658182 135.128794 
L 188.06303 135.089583 
L 191.670303 139.033121 
L 192.872727 149.013855 
L 194.075152 155.308868 
L 195.277576 149.624841 
L 196.48 152.472962 
L 200.087273 143.393503 
L 201.289697 134.728345 
L 202.492121 130.80851 
L 203.694545 130.663627 
L 204.89697 129.074898 
L 208.504242 133.81646 
L 212.111515 126.17829 
L 213.313939 132.107451 
L 216.921212 138.950953 
L 218.123636 127.284941 
L 219.326061 125.266088 
L 220.528485 120.361712 
L 225.338182 114.27396 
L 226.540606 114.054064 
L 227.74303 114.000389 
L 228.945455 115.084291 
L 230.147879 117.448481 
L 233.755152 109.238767 
L 234.957576 103.088916 
L 236.16 116.741315 
L 237.362424 112.365077 
L 238.564848 110.690326 
L 242.172121 110.302125 
L 243.374545 105.892973 
L 244.57697 104.731463 
L 245.779394 111.153574 
L 246.981818 109.775877 
L 252.993939 123.521655 
L 254.196364 129.582852 
L 255.398788 141.060221 
L 259.006061 140.274584 
L 260.208485 146.025841 
L 261.410909 146.145333 
L 262.613333 149.048911 
L 263.815758 136.345027 
L 267.42303 125.917216 
L 268.625455 121.035911 
L 269.827879 113.050383 
L 271.030303 146.039169 
L 272.232727 145.483681 
L 275.84 153.647106 
L 277.042424 155.093571 
L 278.244848 144.14729 
L 279.447273 152.867465 
L 280.649697 163.727338 
L 284.25697 167.140461 
L 285.459394 161.267393 
L 286.661818 163.836289 
L 287.864242 172.599338 
L 289.066667 175.678686 
L 293.876364 180.273133 
L 295.078788 186.82209 
L 297.483636 168.212375 
L 301.090909 169.962173 
L 302.293333 177.463805 
L 303.495758 167.915871 
L 304.698182 169.410786 
L 305.900606 173.471516 
L 309.507879 192.273744 
L 310.710303 192.74774 
L 311.912727 174.039063 
L 313.115152 179.692435 
L 314.317576 187.959356 
L 317.924848 189.514422 
L 319.127273 180.653401 
L 320.329697 166.062318 
L 321.532121 160.86437 
L 322.734545 152.121796 
L 326.341818 154.514933 
L 327.544242 145.172219 
L 328.746667 150.235524 
L 329.949091 142.170246 
L 331.151515 136.957015 
L 334.758788 135.838138 
L 335.961212 131.136929 
L 337.163636 132.788475 
L 338.366061 143.984584 
L 339.568485 142.110269 
L 343.175758 135.597696 
L 344.378182 141.19713 
L 345.580606 149.210089 
L 347.985455 150.97801 
L 351.592727 159.814361 
L 352.795152 163.207552 
L 353.997576 160.764641 
L 355.2 169.513423 
L 360.009697 166.137281 
L 361.212121 157.604371 
L 362.414545 163.661777 
L 363.61697 174.518954 
L 364.819394 189.300383 
L 368.426667 185.615616 
L 369.629091 193.77865 
L 370.831515 198.792926 
L 372.033939 169.892995 
L 373.236364 184.290182 
L 376.843636 177.612715 
L 378.046061 173.158601 
L 379.248485 153.616093 
L 380.450909 174.70491 
L 381.653333 176.810093 
L 385.260606 189.703159 
L 386.46303 188.159712 
L 387.665455 196.603546 
L 388.867879 199.785845 
L 390.070303 189.010479 
L 393.677576 192.015662 
L 394.88 183.93066 
L 396.082424 201.883747 
L 397.284848 206.475375 
L 398.487273 215.478676 
L 398.487273 215.478676 
" style="fill:none;stroke:#0000ff;stroke-linecap:square;stroke-opacity:0.9;stroke-width:2;"/>
   </g>
   <g id="line2d_16">
    <path clip-path="url(#p7d969c6294)" d="M 73.832727 140.096018 
L 76.237576 135.02301 
L 77.44 138.240872 
L 78.642424 132.372564 
L 82.249697 130.793833 
L 83.452121 129.969912 
L 84.654545 130.231029 
L 85.85697 130.819971 
L 87.059394 130.472645 
L 91.869091 129.421208 
L 93.071515 131.570361 
L 94.273939 132.716044 
L 95.476364 137.625491 
L 99.083636 134.351072 
L 100.286061 139.191607 
L 101.488485 136.487061 
L 102.690909 138.381212 
L 103.893333 144.503326 
L 107.500606 152.214931 
L 108.70303 152.454684 
L 109.905455 149.763646 
L 111.107879 143.41996 
L 112.310303 139.472253 
L 115.917576 136.503251 
L 117.12 146.140166 
L 118.322424 145.667415 
L 119.524848 150.324374 
L 120.727273 143.194092 
L 124.334545 148.922523 
L 125.53697 141.564637 
L 126.739394 140.349627 
L 127.941818 138.942774 
L 129.144242 136.821398 
L 132.751515 139.624174 
L 133.953939 143.212128 
L 135.156364 144.980859 
L 136.358788 132.694487 
L 137.561212 129.130516 
L 141.168485 127.906242 
L 142.370909 123.800532 
L 143.573333 121.131046 
L 144.775758 127.727128 
L 145.978182 130.275297 
L 149.585455 131.598771 
L 150.787879 134.281107 
L 151.990303 137.362411 
L 153.192727 130.074803 
L 154.395152 129.144452 
L 158.002424 128.766823 
L 159.204848 126.941569 
L 160.407273 123.213307 
L 161.609697 124.1267 
L 162.812121 124.188314 
L 166.419394 123.640153 
L 167.621818 127.705638 
L 168.824242 130.131545 
L 170.026667 129.934771 
L 171.229091 126.717545 
L 174.836364 125.496399 
L 176.038788 126.802804 
L 178.443636 127.24329 
L 179.646061 128.905042 
L 183.253333 126.725802 
L 184.455758 121.928126 
L 185.658182 121.509072 
L 188.06303 134.955528 
L 191.670303 129.215719 
L 192.872727 139.806589 
L 194.075152 145.747935 
L 195.277576 139.252775 
L 196.48 142.93168 
L 200.087273 135.721515 
L 201.289697 127.019103 
L 202.492121 124.308209 
L 203.694545 124.64923 
L 204.89697 121.27686 
L 208.504242 126.191483 
L 209.706667 126.148488 
L 210.909091 121.957756 
L 212.111515 122.089298 
L 213.313939 128.423564 
L 216.921212 134.28449 
L 218.123636 124.874657 
L 219.326061 122.053366 
L 220.528485 117.783561 
L 225.338182 110.678959 
L 226.540606 111.407295 
L 227.74303 110.804847 
L 228.945455 111.49891 
L 230.147879 113.425671 
L 233.755152 107.867 
L 234.957576 102.668483 
L 236.16 114.432379 
L 238.564848 109.577909 
L 242.172121 109.859975 
L 243.374545 106.808919 
L 244.57697 106.514863 
L 245.779394 110.603683 
L 246.981818 110.926824 
L 251.791515 122.398664 
L 254.196364 132.033664 
L 255.398788 142.386842 
L 259.006061 143.362786 
L 260.208485 142.170398 
L 261.410909 142.743141 
L 262.613333 147.286052 
L 263.815758 135.073763 
L 267.42303 127.4847 
L 268.625455 121.515678 
L 269.827879 113.321503 
L 271.030303 136.393689 
L 272.232727 132.491275 
L 275.84 135.706866 
L 277.042424 132.617477 
L 278.244848 127.636803 
L 279.447273 136.148667 
L 280.649697 146.394324 
L 284.25697 151.268631 
L 285.459394 145.493351 
L 286.661818 146.289836 
L 287.864242 156.113635 
L 289.066667 158.346381 
L 293.876364 162.647453 
L 295.078788 169.153403 
L 296.281212 166.367384 
L 297.483636 155.054381 
L 301.090909 159.71216 
L 302.293333 169.428296 
L 303.495758 158.643651 
L 304.698182 159.456716 
L 305.900606 166.180905 
L 309.507879 182.81254 
L 310.710303 185.369963 
L 311.912727 168.450512 
L 313.115152 174.334428 
L 314.317576 179.52646 
L 317.924848 180.232319 
L 319.127273 172.389155 
L 320.329697 161.709685 
L 322.734545 152.318902 
L 326.341818 152.28532 
L 327.544242 144.406798 
L 328.746667 148.742468 
L 329.949091 141.718166 
L 331.151515 136.457124 
L 334.758788 135.776849 
L 335.961212 133.35882 
L 337.163636 133.813171 
L 338.366061 143.171874 
L 339.568485 141.022669 
L 343.175758 137.697352 
L 344.378182 142.757766 
L 345.580606 148.861421 
L 346.78303 149.077786 
L 347.985455 148.598561 
L 352.795152 158.538008 
L 353.997576 156.761548 
L 355.2 164.012676 
L 360.009697 160.949313 
L 361.212121 154.395917 
L 362.414545 152.049487 
L 363.61697 158.166584 
L 364.819394 172.620906 
L 368.426667 171.321384 
L 369.629091 178.820512 
L 370.831515 179.903985 
L 372.033939 164.851429 
L 373.236364 179.20671 
L 376.843636 176.283991 
L 378.046061 172.79505 
L 379.248485 153.163706 
L 380.450909 170.22451 
L 381.653333 169.110395 
L 385.260606 182.245827 
L 386.46303 186.095999 
L 387.665455 191.289876 
L 388.867879 194.069642 
L 390.070303 186.747542 
L 393.677576 188.105883 
L 394.88 179.090762 
L 396.082424 196.700719 
L 397.284848 202.403499 
L 398.487273 206.204064 
L 398.487273 206.204064 
" style="fill:none;stroke:#ff0000;stroke-linecap:square;stroke-opacity:0.9;stroke-width:2;"/>
   </g>
   <g id="line2d_17">
    <path clip-path="url(#p7d969c6294)" d="M 73.832727 140.096018 
L 75.035152 137.306474 
L 76.237576 135.466106 
L 77.44 138.155341 
L 78.642424 133.332134 
L 83.452121 129.416493 
L 84.654545 130.553004 
L 85.85697 129.715684 
L 87.059394 130.04311 
L 91.869091 130.043289 
L 94.273939 133.455694 
L 95.476364 137.594968 
L 99.083636 133.276349 
L 100.286061 140.405186 
L 101.488485 137.289504 
L 102.690909 138.05457 
L 103.893333 142.294725 
L 107.500606 151.056822 
L 108.70303 152.059237 
L 109.905455 148.298133 
L 111.107879 140.479219 
L 112.310303 136.060783 
L 115.917576 132.005249 
L 117.12 142.80232 
L 118.322424 140.966268 
L 119.524848 144.867051 
L 120.727273 137.080664 
L 124.334545 146.239001 
L 125.53697 138.808698 
L 126.739394 136.83265 
L 127.941818 135.705479 
L 129.144242 133.780933 
L 132.751515 136.621379 
L 133.953939 140.344497 
L 135.156364 141.225149 
L 136.358788 131.741734 
L 137.561212 131.040723 
L 141.168485 126.493935 
L 142.370909 121.389394 
L 143.573333 119.262559 
L 144.775758 127.694111 
L 145.978182 134.426407 
L 149.585455 133.842779 
L 150.787879 138.262372 
L 151.990303 139.458721 
L 153.192727 133.134822 
L 154.395152 132.448028 
L 159.204848 128.9934 
L 160.407273 124.746574 
L 161.609697 124.318133 
L 162.812121 120.913353 
L 166.419394 120.302485 
L 167.621818 126.557915 
L 168.824242 130.818633 
L 170.026667 130.590473 
L 171.229091 126.902099 
L 174.836364 125.054346 
L 176.038788 127.565524 
L 177.241212 127.849393 
L 178.443636 129.233089 
L 179.646061 129.332104 
L 183.253333 126.046554 
L 184.455758 122.05921 
L 185.658182 122.539152 
L 188.06303 133.734061 
L 191.670303 127.42034 
L 192.872727 137.271726 
L 194.075152 144.247347 
L 195.277576 138.353421 
L 196.48 141.444417 
L 200.087273 132.098462 
L 201.289697 123.002407 
L 202.492121 118.813923 
L 203.694545 118.743707 
L 204.89697 116.873858 
L 208.504242 122.064699 
L 209.706667 119.418649 
L 210.909091 116.489266 
L 212.111515 114.410786 
L 213.313939 120.632045 
L 216.921212 127.875147 
L 218.123636 115.736037 
L 219.326061 113.530631 
L 220.528485 108.608181 
L 225.338182 102.294259 
L 226.540606 102.153599 
L 227.74303 102.351817 
L 228.945455 102.96978 
L 230.147879 105.679838 
L 233.755152 97.323483 
L 234.957576 90.707342 
L 236.16 104.559097 
L 237.362424 99.258618 
L 238.564848 97.403061 
L 242.172121 96.424385 
L 243.374545 91.183289 
L 244.57697 90.095102 
L 245.779394 96.916203 
L 246.981818 95.280449 
L 251.791515 106.814373 
L 252.993939 109.24106 
L 254.196364 115.448652 
L 255.398788 127.250527 
L 259.006061 126.209703 
L 260.208485 132.660818 
L 261.410909 132.308473 
L 262.613333 135.61079 
L 263.815758 122.982795 
L 267.42303 111.522899 
L 268.625455 106.878983 
L 269.827879 97.935116 
L 271.030303 133.618137 
L 272.232727 133.20151 
L 275.84 142.04734 
L 277.042424 143.166958 
L 278.244848 132.202156 
L 279.447273 140.888302 
L 280.649697 152.101999 
L 284.25697 155.572123 
L 285.459394 149.101458 
L 286.661818 151.971758 
L 287.864242 160.710154 
L 289.066667 163.882443 
L 293.876364 168.362912 
L 295.078788 175.226016 
L 296.281212 164.235653 
L 297.483636 155.866833 
L 301.090909 157.065223 
L 302.293333 164.646637 
L 303.495758 154.526716 
L 304.698182 157.303948 
L 305.900606 163.891843 
L 309.507879 184.297673 
L 310.710303 181.95904 
L 311.912727 162.248868 
L 313.115152 169.162277 
L 314.317576 176.92053 
L 317.924848 177.060766 
L 319.127273 168.227994 
L 320.329697 152.829499 
L 321.532121 147.32564 
L 322.734545 139.762934 
L 326.341818 141.531684 
L 327.544242 131.282607 
L 328.746667 137.091608 
L 329.949091 129.695962 
L 331.151515 123.446025 
L 334.758788 123.121719 
L 335.961212 119.680576 
L 337.163636 122.05511 
L 338.366061 134.831602 
L 339.568485 133.71722 
L 343.175758 129.053792 
L 344.378182 135.415616 
L 345.580606 142.862022 
L 346.78303 144.923767 
L 347.985455 145.242753 
L 351.592727 152.886842 
L 352.795152 155.717659 
L 353.997576 153.301794 
L 355.2 162.449277 
L 360.009697 157.618429 
L 361.212121 148.885106 
L 362.414545 151.799173 
L 363.61697 162.15903 
L 364.819394 177.856127 
L 368.426667 174.899302 
L 369.629091 186.584014 
L 370.831515 191.936309 
L 372.033939 166.665892 
L 373.236364 180.76114 
L 376.843636 172.914789 
L 378.046061 167.556651 
L 379.248485 146.439118 
L 380.450909 166.993593 
L 381.653333 168.855573 
L 385.260606 182.838711 
L 386.46303 182.689709 
L 387.665455 191.053853 
L 388.867879 194.082033 
L 390.070303 184.970665 
L 393.677576 187.74292 
L 394.88 177.455424 
L 396.082424 195.503316 
L 397.284848 201.392466 
L 398.487273 205.039969 
L 398.487273 205.039969 
" style="fill:none;stroke:#ff8040;stroke-linecap:square;stroke-opacity:0.9;stroke-width:2;"/>
   </g>
   <g id="line2d_18">
    <path clip-path="url(#p7d969c6294)" d="M 73.832727 140.590733 
L 75.035152 139.242124 
L 76.237576 138.386617 
L 77.44 142.467077 
L 78.642424 136.530481 
L 82.249697 138.071227 
L 83.452121 136.882898 
L 84.654545 137.43268 
L 85.85697 138.391158 
L 91.869091 136.921891 
L 93.071515 138.972352 
L 94.273939 139.89491 
L 95.476364 146.11453 
L 99.083636 142.630061 
L 100.286061 149.313855 
L 101.488485 147.189403 
L 102.690909 148.430698 
L 103.893333 155.173599 
L 107.500606 163.525989 
L 108.70303 163.588646 
L 109.905455 162.646449 
L 111.107879 157.507892 
L 112.310303 152.891544 
L 115.917576 148.629791 
L 117.12 158.891674 
L 118.322424 157.759932 
L 119.524848 161.90025 
L 120.727273 154.811534 
L 124.334545 159.727682 
L 125.53697 154.536955 
L 126.739394 153.987084 
L 129.144242 149.260975 
L 132.751515 151.909576 
L 133.953939 155.631419 
L 135.156364 156.685739 
L 136.358788 146.541197 
L 137.561212 143.183731 
L 141.168485 141.675454 
L 142.370909 138.365877 
L 143.573333 136.834514 
L 144.775758 149.55893 
L 145.978182 151.604512 
L 149.585455 155.12691 
L 150.787879 157.359801 
L 151.990303 163.730296 
L 153.192727 156.564527 
L 154.395152 155.403182 
L 158.002424 155.844453 
L 159.204848 153.915699 
L 160.407273 149.856729 
L 161.609697 153.760551 
L 162.812121 152.655986 
L 166.419394 151.83088 
L 167.621818 155.523979 
L 168.824242 158.856678 
L 170.026667 158.970841 
L 171.229091 153.59398 
L 174.836364 153.105141 
L 176.038788 155.161231 
L 177.241212 153.266822 
L 178.443636 154.939132 
L 179.646061 155.442533 
L 183.253333 153.671187 
L 184.455758 146.721714 
L 185.658182 147.524158 
L 188.06303 158.429047 
L 191.670303 154.329657 
L 192.872727 164.099588 
L 194.075152 172.793854 
L 195.277576 169.042555 
L 196.48 172.121167 
L 200.087273 162.712304 
L 201.289697 155.364219 
L 202.492121 152.226758 
L 203.694545 153.475654 
L 204.89697 152.05245 
L 208.504242 157.682695 
L 209.706667 157.15582 
L 210.909091 152.10485 
L 212.111515 155.34206 
L 213.313939 160.586929 
L 216.921212 164.339328 
L 218.123636 153.600919 
L 219.326061 150.397354 
L 220.528485 146.438521 
L 225.338182 140.922609 
L 226.540606 139.874986 
L 227.74303 139.792984 
L 228.945455 139.936929 
L 230.147879 142.95342 
L 233.755152 137.829011 
L 234.957576 138.208689 
L 236.16 148.728463 
L 237.362424 148.821901 
L 238.564848 145.096092 
L 242.172121 145.593959 
L 243.374545 143.108692 
L 244.57697 142.698913 
L 245.779394 146.94907 
L 246.981818 147.724976 
L 251.791515 158.334002 
L 252.993939 165.647839 
L 254.196364 169.375034 
L 255.398788 178.242844 
L 259.006061 177.286942 
L 260.208485 182.83752 
L 261.410909 186.098252 
L 262.613333 188.581718 
L 263.815758 180.335913 
L 268.625455 170.670399 
L 269.827879 162.69072 
L 271.030303 190.888063 
L 272.232727 187.002329 
L 275.84 189.432111 
L 277.042424 187.485896 
L 278.244848 185.213828 
L 279.447273 192.429496 
L 280.649697 203.466766 
L 284.25697 206.966884 
L 285.459394 201.483623 
L 286.661818 204.111071 
L 287.864242 215.777179 
L 289.066667 217.147902 
L 293.876364 220.843168 
L 295.078788 226.358166 
L 296.281212 222.559819 
L 297.483636 213.229533 
L 301.090909 217.510757 
L 302.293333 225.670591 
L 303.495758 216.361016 
L 304.698182 220.985948 
L 305.900606 224.519217 
L 309.507879 241.427934 
L 310.710303 242.812775 
L 311.912727 228.10068 
L 313.115152 232.250877 
L 314.317576 237.763728 
L 317.924848 238.37681 
L 319.127273 230.292505 
L 320.329697 218.850992 
L 322.734545 208.009113 
L 326.341818 208.866239 
L 327.544242 201.64987 
L 328.746667 205.065739 
L 329.949091 199.911721 
L 331.151515 195.474446 
L 334.758788 195.67119 
L 335.961212 191.651055 
L 337.163636 192.367134 
L 338.366061 200.892146 
L 339.568485 197.268537 
L 343.175758 191.79348 
L 344.378182 195.14765 
L 345.580606 201.623423 
L 346.78303 202.58698 
L 347.985455 202.160874 
L 351.592727 208.799995 
L 352.795152 211.28019 
L 353.997576 210.646195 
L 355.2 220.571454 
L 360.009697 218.977035 
L 361.212121 212.23405 
L 362.414545 220.315304 
L 363.61697 221.171489 
L 364.819394 233.521106 
L 368.426667 230.959793 
L 369.629091 240.270786 
L 370.831515 239.385201 
L 372.033939 232.221791 
L 373.236364 243.868213 
L 376.843636 239.097593 
L 378.046061 237.035238 
L 379.248485 222.423921 
L 380.450909 235.517434 
L 381.653333 234.462473 
L 385.260606 244.794605 
L 386.46303 247.202112 
L 387.665455 255.63416 
L 388.867879 256.202874 
L 390.070303 248.778971 
L 393.677576 250.462167 
L 394.88 243.397565 
L 396.082424 258.205323 
L 397.284848 262.51544 
L 398.487273 265.797818 
L 398.487273 265.797818 
" style="fill:none;stroke:#0d0d0d;stroke-linecap:square;stroke-opacity:0.25;stroke-width:2;"/>
   </g>
   <g id="line2d_19">
    <path clip-path="url(#p7d969c6294)" d="M 73.832727 139.601304 
L 75.035152 135.423078 
L 76.237576 132.243129 
L 77.44 135.311724 
L 78.642424 128.30143 
L 82.249697 123.711204 
L 83.452121 122.9376 
L 84.654545 123.763277 
L 85.85697 123.1218 
L 87.059394 123.016832 
L 91.869091 119.272661 
L 93.071515 120.640109 
L 94.273939 121.523754 
L 95.476364 127.270474 
L 99.083636 122.042536 
L 100.286061 125.171545 
L 101.488485 122.306906 
L 102.690909 124.694182 
L 103.893333 131.123006 
L 107.500606 139.828817 
L 108.70303 139.07095 
L 109.905455 133.789026 
L 111.107879 125.039377 
L 112.310303 120.109793 
L 115.917576 116.27401 
L 117.12 126.11741 
L 118.322424 126.00795 
L 119.524848 131.149093 
L 120.727273 123.389631 
L 124.334545 129.047043 
L 125.53697 122.975573 
L 126.739394 121.976937 
L 127.941818 120.407236 
L 129.144242 117.267325 
L 132.751515 121.169288 
L 133.953939 125.531288 
L 135.156364 126.727533 
L 136.358788 113.214277 
L 137.561212 109.250815 
L 141.168485 108.130459 
L 142.370909 103.68852 
L 143.573333 100.886054 
L 144.775758 104.635147 
L 145.978182 111.580915 
L 149.585455 112.877269 
L 150.787879 112.977413 
L 151.990303 115.647257 
L 153.192727 109.421985 
L 154.395152 107.511607 
L 158.002424 107.932302 
L 159.204848 104.918793 
L 160.407273 101.216175 
L 161.609697 100.868996 
L 162.812121 99.386448 
L 166.419394 99.648049 
L 167.621818 104.434555 
L 168.824242 108.677671 
L 170.026667 108.248315 
L 171.229091 102.783069 
L 174.836364 102.160861 
L 176.038788 103.076621 
L 177.241212 102.939467 
L 178.443636 102.45918 
L 179.646061 102.858783 
L 183.253333 100.379522 
L 184.455758 96.312405 
L 185.658182 94.72207 
L 188.06303 106.529517 
L 191.670303 99.918857 
L 192.872727 110.797199 
L 194.075152 115.384722 
L 195.277576 108.730888 
L 196.48 113.095921 
L 200.087273 103.582793 
L 201.289697 93.981142 
L 202.492121 90.074776 
L 203.694545 90.488987 
L 204.89697 87.328621 
L 208.504242 93.223028 
L 209.706667 91.479557 
L 210.909091 84.299228 
L 212.111515 84.829524 
L 213.313939 91.596511 
L 216.921212 95.869576 
L 218.123636 84.05469 
L 219.326061 80.844499 
L 220.528485 76.079379 
L 225.338182 68.99164 
L 226.540606 68.512753 
L 227.74303 68.184861 
L 228.945455 69.334787 
L 230.147879 72.521307 
L 233.755152 65.168592 
L 234.957576 59.150121 
L 236.16 69.568021 
L 237.362424 60.379506 
L 238.564848 58.495705 
L 242.172121 57.13304 
L 243.374545 52.365819 
L 244.57697 52.154182 
L 245.779394 55.687941 
L 246.981818 55.470777 
L 251.791515 67.583472 
L 252.993939 74.45815 
L 254.196364 80.387343 
L 255.398788 94.236048 
L 259.006061 93.256509 
L 260.208485 87.674087 
L 261.410909 91.130118 
L 262.613333 95.531552 
L 263.815758 82.645462 
L 267.42303 74.257181 
L 268.625455 67.624167 
L 269.827879 58.399557 
L 271.030303 87.902377 
L 272.232727 80.081065 
L 275.84 91.166046 
L 277.042424 87.001864 
L 278.244848 80.229228 
L 279.447273 90.045533 
L 280.649697 104.598476 
L 284.25697 109.475175 
L 285.459394 103.634967 
L 286.661818 106.530417 
L 287.864242 118.827588 
L 289.066667 120.518197 
L 293.876364 125.634088 
L 295.078788 133.792704 
L 296.281212 126.12259 
L 297.483636 112.971932 
L 301.090909 117.076503 
L 302.293333 130.066134 
L 303.495758 118.495947 
L 304.698182 116.636149 
L 305.900606 120.643847 
L 309.507879 135.753901 
L 310.710303 136.077912 
L 311.912727 117.488517 
L 313.115152 124.004458 
L 314.317576 132.960319 
L 317.924848 136.569667 
L 319.127273 127.055913 
L 320.329697 115.473224 
L 321.532121 110.063771 
L 322.734545 102.009524 
L 326.341818 104.032645 
L 327.544242 96.198189 
L 328.746667 102.020266 
L 329.949091 94.961966 
L 331.151515 89.759823 
L 334.758788 90.334036 
L 335.961212 85.661686 
L 337.163636 87.189611 
L 338.366061 96.828273 
L 339.568485 94.985463 
L 343.175758 91.099167 
L 344.378182 97.406782 
L 345.580606 104.809175 
L 346.78303 105.787704 
L 347.985455 105.826558 
L 352.795152 116.296575 
L 353.997576 114.938774 
L 355.2 123.497702 
L 360.009697 118.970548 
L 361.212121 108.714736 
L 362.414545 101.783121 
L 363.61697 108.650704 
L 364.819394 123.703525 
L 368.426667 122.683641 
L 369.629091 128.863959 
L 370.831515 129.120543 
L 372.033939 112.301193 
L 373.236364 128.77966 
L 376.843636 124.411767 
L 378.046061 119.468625 
L 379.248485 99.770386 
L 380.450909 121.240651 
L 381.653333 118.171856 
L 385.260606 133.189515 
L 386.46303 136.035724 
L 387.665455 143.787834 
L 388.867879 149.062337 
L 390.070303 138.555285 
L 393.677576 138.814412 
L 394.88 131.172557 
L 396.082424 149.868868 
L 397.284848 157.048458 
L 398.487273 161.026203 
L 398.487273 161.026203 
" style="fill:none;stroke:#0d0d0d;stroke-linecap:square;stroke-opacity:0.25;stroke-width:2;"/>
   </g>
   <g id="patch_3">
    <path d="M 57.6 276.48 
L 57.6 41.472 
" style="fill:none;stroke:#000000;stroke-linecap:square;stroke-linejoin:miter;stroke-width:0.8;"/>
   </g>
   <g id="patch_4">
    <path d="M 414.72 276.48 
L 414.72 41.472 
" style="fill:none;stroke:#000000;stroke-linecap:square;stroke-linejoin:miter;stroke-width:0.8;"/>
   </g>
   <g id="patch_5">
    <path d="M 57.6 276.48 
L 414.72 276.48 
" style="fill:none;stroke:#000000;stroke-linecap:square;stroke-linejoin:miter;stroke-width:0.8;"/>
   </g>
   <g id="patch_6">
    <path d="M 57.6 41.472 
L 414.72 41.472 
" style="fill:none;stroke:#000000;stroke-linecap:square;stroke-linejoin:miter;stroke-width:0.8;"/>
   </g>
   <g id="text_16">
    <!-- TESTFUNDS1330 -->
    <g transform="translate(185.200312 22.034625)scale(0.12 -0.12)">
     <defs>
      <path d="M -19 4666 
L 3928 4666 
L 3928 4134 
L 2272 4134 
L 2272 0 
L 1638 0 
L 1638 4134 
L -19 4134 
L -19 4666 
z
" id="DejaVuSans-54" transform="scale(0.015625)"/>
      <path d="M 628 4666 
L 3578 4666 
L 3578 4134 
L 1259 4134 
L 1259 2753 
L 3481 2753 
L 3481 2222 
L 1259 2222 
L 1259 531 
L 3634 531 
L 3634 0 
L 628 0 
L 628 4666 
z
" id="DejaVuSans-45" transform="scale(0.015625)"/>
      <path d="M 3425 4513 
L 3425 3897 
Q 3066 4069 2747 4153 
Q 2428 4238 2131 4238 
Q 1616 4238 1336 4038 
Q 1056 3838 1056 3469 
Q 1056 3159 1242 3001 
Q 1428 2844 1947 2747 
L 2328 2669 
Q 3034 2534 3370 2195 
Q 3706 1856 3706 1288 
Q 3706 609 3251 259 
Q 2797 -91 1919 -91 
Q 1588 -91 1214 -16 
Q 841 59 441 206 
L 441 856 
Q 825 641 1194 531 
Q 1563 422 1919 422 
Q 2459 422 2753 634 
Q 3047 847 3047 1241 
Q 3047 1584 2836 1778 
Q 2625 1972 2144 2069 
L 1759 2144 
Q 1053 2284 737 2584 
Q 422 2884 422 3419 
Q 422 4038 858 4394 
Q 1294 4750 2059 4750 
Q 2388 4750 2728 4690 
Q 3069 4631 3425 4513 
z
" id="DejaVuSans-53" transform="scale(0.015625)"/>
      <path d="M 628 4666 
L 3309 4666 
L 3309 4134 
L 1259 4134 
L 1259 2759 
L 3109 2759 
L 3109 2228 
L 1259 2228 
L 1259 0 
L 628 0 
L 628 4666 
z
" id="DejaVuSans-46" transform="scale(0.015625)"/>
      <path d="M 556 4666 
L 1191 4666 
L 1191 1831 
Q 1191 1081 1462 751 
Q 1734 422 2344 422 
Q 2950 422 3222 751 
Q 3494 1081 3494 1831 
L 3494 4666 
L 4128 4666 
L 4128 1753 
Q 4128 841 3676 375 
Q 3225 -91 2344 -91 
Q 1459 -91 1007 375 
Q 556 841 556 1753 
L 556 4666 
z
" id="DejaVuSans-55" transform="scale(0.015625)"/>
      <path d="M 628 4666 
L 1478 4666 
L 3547 763 
L 3547 4666 
L 4159 4666 
L 4159 0 
L 3309 0 
L 1241 3903 
L 1241 0 
L 628 0 
L 628 4666 
z
" id="DejaVuSans-4e" transform="scale(0.015625)"/>
      <path d="M 1259 4147 
L 1259 519 
L 2022 519 
Q 2988 519 3436 956 
Q 3884 1394 3884 2338 
Q 3884 3275 3436 3711 
Q 2988 4147 2022 4147 
L 1259 4147 
z
M 628 4666 
L 1925 4666 
Q 3281 4666 3915 4102 
Q 4550 3538 4550 2338 
Q 4550 1131 3912 565 
Q 3275 0 1925 0 
L 628 0 
L 628 4666 
z
" id="DejaVuSans-44" transform="scale(0.015625)"/>
     </defs>
     <use xlink:href="#DejaVuSans-54"/>
     <use x="61.083984" xlink:href="#DejaVuSans-45"/>
     <use x="124.267578" xlink:href="#DejaVuSans-53"/>
     <use x="187.744141" xlink:href="#DejaVuSans-54"/>
     <use x="248.828125" xlink:href="#DejaVuSans-46"/>
     <use x="306.347656" xlink:href="#DejaVuSans-55"/>
     <use x="379.541016" xlink:href="#DejaVuSans-4e"/>
     <use x="454.345703" xlink:href="#DejaVuSans-44"/>
     <use x="531.347656" xlink:href="#DejaVuSans-53"/>
     <use x="594.824219" xlink:href="#DejaVuSans-31"/>
     <use x="658.447266" xlink:href="#DejaVuSans-33"/>
     <use x="722.070312" xlink:href="#DejaVuSans-33"/>
     <use x="785.693359" xlink:href="#DejaVuSans-30"/>
    </g>
    <!-- daily_report -->
    <g transform="translate(200.466563 35.472)scale(0.12 -0.12)">
     <defs>
      <path d="M 603 3500 
L 1178 3500 
L 1178 0 
L 603 0 
L 603 3500 
z
M 603 4863 
L 1178 4863 
L 1178 4134 
L 603 4134 
L 603 4863 
z
" id="DejaVuSans-69" transform="scale(0.015625)"/>
      <path d="M 603 4863 
L 1178 4863 
L 1178 0 
L 603 0 
L 603 4863 
z
" id="DejaVuSans-6c" transform="scale(0.015625)"/>
      <path d="M 2059 -325 
Q 1816 -950 1584 -1140 
Q 1353 -1331 966 -1331 
L 506 -1331 
L 506 -850 
L 844 -850 
Q 1081 -850 1212 -737 
Q 1344 -625 1503 -206 
L 1606 56 
L 191 3500 
L 800 3500 
L 1894 763 
L 2988 3500 
L 3597 3500 
L 2059 -325 
z
" id="DejaVuSans-79" transform="scale(0.015625)"/>
      <path d="M 3263 -1063 
L 3263 -1509 
L -63 -1509 
L -63 -1063 
L 3263 -1063 
z
" id="DejaVuSans-5f" transform="scale(0.015625)"/>
      <path d="M 2631 2963 
Q 2534 3019 2420 3045 
Q 2306 3072 2169 3072 
Q 1681 3072 1420 2755 
Q 1159 2438 1159 1844 
L 1159 0 
L 581 0 
L 581 3500 
L 1159 3500 
L 1159 2956 
Q 1341 3275 1631 3429 
Q 1922 3584 2338 3584 
Q 2397 3584 2469 3576 
Q 2541 3569 2628 3553 
L 2631 2963 
z
" id="DejaVuSans-72" transform="scale(0.015625)"/>
      <path d="M 1159 525 
L 1159 -1331 
L 581 -1331 
L 581 3500 
L 1159 3500 
L 1159 2969 
Q 1341 3281 1617 3432 
Q 1894 3584 2278 3584 
Q 2916 3584 3314 3078 
Q 3713 2572 3713 1747 
Q 3713 922 3314 415 
Q 2916 -91 2278 -91 
Q 1894 -91 1617 61 
Q 1341 213 1159 525 
z
M 3116 1747 
Q 3116 2381 2855 2742 
Q 2594 3103 2138 3103 
Q 1681 3103 1420 2742 
Q 1159 2381 1159 1747 
Q 1159 1113 1420 752 
Q 1681 391 2138 391 
Q 2594 391 2855 752 
Q 3116 1113 3116 1747 
z
" id="DejaVuSans-70" transform="scale(0.015625)"/>
      <path d="M 1959 3097 
Q 1497 3097 1228 2736 
Q 959 2375 959 1747 
Q 959 1119 1226 758 
Q 1494 397 1959 397 
Q 2419 397 2687 759 
Q 2956 1122 2956 1747 
Q 2956 2369 2687 2733 
Q 2419 3097 1959 3097 
z
M 1959 3584 
Q 2709 3584 3137 3096 
Q 3566 2609 3566 1747 
Q 3566 888 3137 398 
Q 2709 -91 1959 -91 
Q 1206 -91 779 398 
Q 353 888 353 1747 
Q 353 2609 779 3096 
Q 1206 3584 1959 3584 
z
" id="DejaVuSans-6f" transform="scale(0.015625)"/>
     </defs>
     <use xlink:href="#DejaVuSans-64"/>
     <use x="63.476562" xlink:href="#DejaVuSans-61"/>
     <use x="124.755859" xlink:href="#DejaVuSans-69"/>
     <use x="152.539062" xlink:href="#DejaVuSans-6c"/>
     <use x="180.322266" xlink:href="#DejaVuSans-79"/>
     <use x="239.501953" xlink:href="#DejaVuSans-5f"/>
     <use x="289.501953" xlink:href="#DejaVuSans-72"/>
     <use x="328.365234" xlink:href="#DejaVuSans-65"/>
     <use x="389.888672" xlink:href="#DejaVuSans-70"/>
     <use x="453.365234" xlink:href="#DejaVuSans-6f"/>
     <use x="514.546875" xlink:href="#DejaVuSans-72"/>
     <use x="555.660156" xlink:href="#DejaVuSans-74"/>
    </g>
   </g>
   <g id="legend_1">
    <g id="patch_7">
     <path d="M 64.6 271.48 
L 155.792188 271.48 
Q 157.792188 271.48 157.792188 269.48 
L 157.792188 197.089375 
Q 157.792188 195.089375 155.792188 195.089375 
L 64.6 195.089375 
Q 62.6 195.089375 62.6 197.089375 
L 62.6 269.48 
Q 62.6 271.48 64.6 271.48 
z
" style="fill:#ffffff;opacity:0.8;stroke:#cccccc;stroke-linejoin:miter;"/>
    </g>
    <g id="line2d_20">
     <path d="M 66.6 203.187812 
L 86.6 203.187812 
" style="fill:none;stroke:#0000ff;stroke-linecap:square;stroke-opacity:0.9;stroke-width:2;"/>
    </g>
    <g id="line2d_21"/>
    <g id="text_17">
     <!-- alpaca -->
     <g transform="translate(94.6 206.687812)scale(0.1 -0.1)">
      <defs>
       <path d="M 3122 3366 
L 3122 2828 
Q 2878 2963 2633 3030 
Q 2388 3097 2138 3097 
Q 1578 3097 1268 2742 
Q 959 2388 959 1747 
Q 959 1106 1268 751 
Q 1578 397 2138 397 
Q 2388 397 2633 464 
Q 2878 531 3122 666 
L 3122 134 
Q 2881 22 2623 -34 
Q 2366 -91 2075 -91 
Q 1284 -91 818 406 
Q 353 903 353 1747 
Q 353 2603 823 3093 
Q 1294 3584 2113 3584 
Q 2378 3584 2631 3529 
Q 2884 3475 3122 3366 
z
" id="DejaVuSans-63" transform="scale(0.015625)"/>
      </defs>
      <use xlink:href="#DejaVuSans-61"/>
      <use x="61.279297" xlink:href="#DejaVuSans-6c"/>
      <use x="89.0625" xlink:href="#DejaVuSans-70"/>
      <use x="152.539062" xlink:href="#DejaVuSans-61"/>
      <use x="213.818359" xlink:href="#DejaVuSans-63"/>
      <use x="268.798828" xlink:href="#DejaVuSans-61"/>
     </g>
    </g>
    <g id="line2d_22">
     <path d="M 66.6 217.865937 
L 86.6 217.865937 
" style="fill:none;stroke:#ff0000;stroke-linecap:square;stroke-opacity:0.9;stroke-width:2;"/>
    </g>
    <g id="line2d_23"/>
    <g id="text_18">
     <!-- mattress -->
     <g transform="translate(94.6 221.365937)scale(0.1 -0.1)">
      <defs>
       <path d="M 3328 2828 
Q 3544 3216 3844 3400 
Q 4144 3584 4550 3584 
Q 5097 3584 5394 3201 
Q 5691 2819 5691 2113 
L 5691 0 
L 5113 0 
L 5113 2094 
Q 5113 2597 4934 2840 
Q 4756 3084 4391 3084 
Q 3944 3084 3684 2787 
Q 3425 2491 3425 1978 
L 3425 0 
L 2847 0 
L 2847 2094 
Q 2847 2600 2669 2842 
Q 2491 3084 2119 3084 
Q 1678 3084 1418 2786 
Q 1159 2488 1159 1978 
L 1159 0 
L 581 0 
L 581 3500 
L 1159 3500 
L 1159 2956 
Q 1356 3278 1631 3431 
Q 1906 3584 2284 3584 
Q 2666 3584 2933 3390 
Q 3200 3197 3328 2828 
z
" id="DejaVuSans-6d" transform="scale(0.015625)"/>
       <path d="M 2834 3397 
L 2834 2853 
Q 2591 2978 2328 3040 
Q 2066 3103 1784 3103 
Q 1356 3103 1142 2972 
Q 928 2841 928 2578 
Q 928 2378 1081 2264 
Q 1234 2150 1697 2047 
L 1894 2003 
Q 2506 1872 2764 1633 
Q 3022 1394 3022 966 
Q 3022 478 2636 193 
Q 2250 -91 1575 -91 
Q 1294 -91 989 -36 
Q 684 19 347 128 
L 347 722 
Q 666 556 975 473 
Q 1284 391 1588 391 
Q 1994 391 2212 530 
Q 2431 669 2431 922 
Q 2431 1156 2273 1281 
Q 2116 1406 1581 1522 
L 1381 1569 
Q 847 1681 609 1914 
Q 372 2147 372 2553 
Q 372 3047 722 3315 
Q 1072 3584 1716 3584 
Q 2034 3584 2315 3537 
Q 2597 3491 2834 3397 
z
" id="DejaVuSans-73" transform="scale(0.015625)"/>
      </defs>
      <use xlink:href="#DejaVuSans-6d"/>
      <use x="97.412109" xlink:href="#DejaVuSans-61"/>
      <use x="158.691406" xlink:href="#DejaVuSans-74"/>
      <use x="197.900391" xlink:href="#DejaVuSans-74"/>
      <use x="237.109375" xlink:href="#DejaVuSans-72"/>
      <use x="275.972656" xlink:href="#DejaVuSans-65"/>
      <use x="337.496094" xlink:href="#DejaVuSans-73"/>
      <use x="389.595703" xlink:href="#DejaVuSans-73"/>
     </g>
    </g>
    <g id="line2d_24">
     <path d="M 66.6 232.544062 
L 86.6 232.544062 
" style="fill:none;stroke:#ff8040;stroke-linecap:square;stroke-opacity:0.9;stroke-width:2;"/>
    </g>
    <g id="line2d_25"/>
    <g id="text_19">
     <!-- trader-0850 -->
     <g transform="translate(94.6 236.044062)scale(0.1 -0.1)">
      <use xlink:href="#DejaVuSans-74"/>
      <use x="39.208984" xlink:href="#DejaVuSans-72"/>
      <use x="80.322266" xlink:href="#DejaVuSans-61"/>
      <use x="141.601562" xlink:href="#DejaVuSans-64"/>
      <use x="205.078125" xlink:href="#DejaVuSans-65"/>
      <use x="266.601562" xlink:href="#DejaVuSans-72"/>
      <use x="301.339844" xlink:href="#DejaVuSans-2d"/>
      <use x="337.423828" xlink:href="#DejaVuSans-30"/>
      <use x="401.046875" xlink:href="#DejaVuSans-38"/>
      <use x="464.669922" xlink:href="#DejaVuSans-35"/>
      <use x="528.292969" xlink:href="#DejaVuSans-30"/>
     </g>
    </g>
    <g id="line2d_26">
     <path d="M 66.6 247.222187 
L 86.6 247.222187 
" style="fill:none;stroke:#0d0d0d;stroke-linecap:square;stroke-opacity:0.25;stroke-width:2;"/>
    </g>
    <g id="line2d_27"/>
    <g id="text_20">
     <!-- rando-min -->
     <g transform="translate(94.6 250.722187)scale(0.1 -0.1)">
      <defs>
       <path d="M 3513 2113 
L 3513 0 
L 2938 0 
L 2938 2094 
Q 2938 2591 2744 2837 
Q 2550 3084 2163 3084 
Q 1697 3084 1428 2787 
Q 1159 2491 1159 1978 
L 1159 0 
L 581 0 
L 581 3500 
L 1159 3500 
L 1159 2956 
Q 1366 3272 1645 3428 
Q 1925 3584 2291 3584 
Q 2894 3584 3203 3211 
Q 3513 2838 3513 2113 
z
" id="DejaVuSans-6e" transform="scale(0.015625)"/>
      </defs>
      <use xlink:href="#DejaVuSans-72"/>
      <use x="41.113281" xlink:href="#DejaVuSans-61"/>
      <use x="102.392578" xlink:href="#DejaVuSans-6e"/>
      <use x="165.771484" xlink:href="#DejaVuSans-64"/>
      <use x="229.248047" xlink:href="#DejaVuSans-6f"/>
      <use x="292.304688" xlink:href="#DejaVuSans-2d"/>
      <use x="328.388672" xlink:href="#DejaVuSans-6d"/>
      <use x="425.800781" xlink:href="#DejaVuSans-69"/>
      <use x="453.583984" xlink:href="#DejaVuSans-6e"/>
     </g>
    </g>
    <g id="line2d_28">
     <path d="M 66.6 261.900312 
L 86.6 261.900312 
" style="fill:none;stroke:#0d0d0d;stroke-linecap:square;stroke-opacity:0.25;stroke-width:2;"/>
    </g>
    <g id="line2d_29"/>
    <g id="text_21">
     <!-- rando-max -->
     <g transform="translate(94.6 265.400312)scale(0.1 -0.1)">
      <defs>
       <path d="M 3513 3500 
L 2247 1797 
L 3578 0 
L 2900 0 
L 1881 1375 
L 863 0 
L 184 0 
L 1544 1831 
L 300 3500 
L 978 3500 
L 1906 2253 
L 2834 3500 
L 3513 3500 
z
" id="DejaVuSans-78" transform="scale(0.015625)"/>
      </defs>
      <use xlink:href="#DejaVuSans-72"/>
      <use x="41.113281" xlink:href="#DejaVuSans-61"/>
      <use x="102.392578" xlink:href="#DejaVuSans-6e"/>
      <use x="165.771484" xlink:href="#DejaVuSans-64"/>
      <use x="229.248047" xlink:href="#DejaVuSans-6f"/>
      <use x="292.304688" xlink:href="#DejaVuSans-2d"/>
      <use x="328.388672" xlink:href="#DejaVuSans-6d"/>
      <use x="425.800781" xlink:href="#DejaVuSans-61"/>
      <use x="487.080078" xlink:href="#DejaVuSans-78"/>
     </g>
    </g>
   </g>
  </g>
 </g>
 <defs>
  <clipPath id="p7d969c6294">
   <rect height="235.008" width="357.12" x="57.6" y="41.472"/>
  </clipPath>
 </defs>
</svg>
