<?xml version="1.0" encoding="utf-8" standalone="no"?>
<!DOCTYPE svg PUBLIC "-//W3C//DTD SVG 1.1//EN"
  "http://www.w3.org/Graphics/SVG/1.1/DTD/svg11.dtd">
<svg height="345.6pt" version="1.1" viewBox="0 0 460.8 345.6" width="460.8pt" xmlns="http://www.w3.org/2000/svg" xmlns:xlink="http://www.w3.org/1999/xlink">
 <metadata>
  <rdf:RDF xmlns:cc="http://creativecommons.org/ns#" xmlns:dc="http://purl.org/dc/elements/1.1/" xmlns:rdf="http://www.w3.org/1999/02/22-rdf-syntax-ns#">
   <cc:Work>
    <dc:type rdf:resource="http://purl.org/dc/dcmitype/StillImage"/>
    <dc:date>2022-05-21T01:01:30.900796</dc:date>
    <dc:format>image/svg+xml</dc:format>
    <dc:creator>
     <cc:Agent>
      <dc:title>Matplotlib v3.4.3, https://matplotlib.org/</dc:title>
     </cc:Agent>
    </dc:creator>
   </cc:Work>
  </rdf:RDF>
 </metadata>
 <defs>
  <style type="text/css">*{stroke-linecap:butt;stroke-linejoin:round;}</style>
 </defs>
 <g id="figure_1">
  <g id="patch_1">
   <path d="M 0 345.6 
L 460.8 345.6 
L 460.8 0 
L 0 0 
z
" style="fill:#ffffff;"/>
  </g>
  <g id="axes_1">
   <g id="patch_2">
    <path d="M 57.6 276.48 
L 414.72 276.48 
L 414.72 41.472 
L 57.6 41.472 
z
" style="fill:#ffffff;"/>
   </g>
   <g id="matplotlib.axis_1">
    <g id="xtick_1">
     <g id="line2d_1">
      <defs>
       <path d="M 0 0 
L 0 3.5 
" id="m4cd61d7faf" style="stroke:#000000;stroke-width:0.8;"/>
      </defs>
      <g>
       <use style="stroke:#000000;stroke-width:0.8;" x="84.654545" xlink:href="#m4cd61d7faf" y="276.48"/>
      </g>
     </g>
     <g id="text_1">
      <!-- 2021-09 -->
      <g transform="translate(47.429725 310.951846)rotate(-30)scale(0.1 -0.1)">
       <defs>
        <path d="M 1228 531 
L 3431 531 
L 3431 0 
L 469 0 
L 469 531 
Q 828 903 1448 1529 
Q 2069 2156 2228 2338 
Q 2531 2678 2651 2914 
Q 2772 3150 2772 3378 
Q 2772 3750 2511 3984 
Q 2250 4219 1831 4219 
Q 1534 4219 1204 4116 
Q 875 4013 500 3803 
L 500 4441 
Q 881 4594 1212 4672 
Q 1544 4750 1819 4750 
Q 2544 4750 2975 4387 
Q 3406 4025 3406 3419 
Q 3406 3131 3298 2873 
Q 3191 2616 2906 2266 
Q 2828 2175 2409 1742 
Q 1991 1309 1228 531 
z
" id="DejaVuSans-32" transform="scale(0.015625)"/>
        <path d="M 2034 4250 
Q 1547 4250 1301 3770 
Q 1056 3291 1056 2328 
Q 1056 1369 1301 889 
Q 1547 409 2034 409 
Q 2525 409 2770 889 
Q 3016 1369 3016 2328 
Q 3016 3291 2770 3770 
Q 2525 4250 2034 4250 
z
M 2034 4750 
Q 2819 4750 3233 4129 
Q 3647 3509 3647 2328 
Q 3647 1150 3233 529 
Q 2819 -91 2034 -91 
Q 1250 -91 836 529 
Q 422 1150 422 2328 
Q 422 3509 836 4129 
Q 1250 4750 2034 4750 
z
" id="DejaVuSans-30" transform="scale(0.015625)"/>
        <path d="M 794 531 
L 1825 531 
L 1825 4091 
L 703 3866 
L 703 4441 
L 1819 4666 
L 2450 4666 
L 2450 531 
L 3481 531 
L 3481 0 
L 794 0 
L 794 531 
z
" id="DejaVuSans-31" transform="scale(0.015625)"/>
        <path d="M 313 2009 
L 1997 2009 
L 1997 1497 
L 313 1497 
L 313 2009 
z
" id="DejaVuSans-2d" transform="scale(0.015625)"/>
        <path d="M 703 97 
L 703 672 
Q 941 559 1184 500 
Q 1428 441 1663 441 
Q 2288 441 2617 861 
Q 2947 1281 2994 2138 
Q 2813 1869 2534 1725 
Q 2256 1581 1919 1581 
Q 1219 1581 811 2004 
Q 403 2428 403 3163 
Q 403 3881 828 4315 
Q 1253 4750 1959 4750 
Q 2769 4750 3195 4129 
Q 3622 3509 3622 2328 
Q 3622 1225 3098 567 
Q 2575 -91 1691 -91 
Q 1453 -91 1209 -44 
Q 966 3 703 97 
z
M 1959 2075 
Q 2384 2075 2632 2365 
Q 2881 2656 2881 3163 
Q 2881 3666 2632 3958 
Q 2384 4250 1959 4250 
Q 1534 4250 1286 3958 
Q 1038 3666 1038 3163 
Q 1038 2656 1286 2365 
Q 1534 2075 1959 2075 
z
" id="DejaVuSans-39" transform="scale(0.015625)"/>
       </defs>
       <use xlink:href="#DejaVuSans-32"/>
       <use x="63.623047" xlink:href="#DejaVuSans-30"/>
       <use x="127.246094" xlink:href="#DejaVuSans-32"/>
       <use x="190.869141" xlink:href="#DejaVuSans-31"/>
       <use x="254.492188" xlink:href="#DejaVuSans-2d"/>
       <use x="290.576172" xlink:href="#DejaVuSans-30"/>
       <use x="354.199219" xlink:href="#DejaVuSans-39"/>
      </g>
     </g>
    </g>
    <g id="xtick_2">
     <g id="line2d_2">
      <g>
       <use style="stroke:#000000;stroke-width:0.8;" x="120.727273" xlink:href="#m4cd61d7faf" y="276.48"/>
      </g>
     </g>
     <g id="text_2">
      <!-- 2021-10 -->
      <g transform="translate(83.502452 310.951846)rotate(-30)scale(0.1 -0.1)">
       <use xlink:href="#DejaVuSans-32"/>
       <use x="63.623047" xlink:href="#DejaVuSans-30"/>
       <use x="127.246094" xlink:href="#DejaVuSans-32"/>
       <use x="190.869141" xlink:href="#DejaVuSans-31"/>
       <use x="254.492188" xlink:href="#DejaVuSans-2d"/>
       <use x="290.576172" xlink:href="#DejaVuSans-31"/>
       <use x="354.199219" xlink:href="#DejaVuSans-30"/>
      </g>
     </g>
    </g>
    <g id="xtick_3">
     <g id="line2d_3">
      <g>
       <use style="stroke:#000000;stroke-width:0.8;" x="158.002424" xlink:href="#m4cd61d7faf" y="276.48"/>
      </g>
     </g>
     <g id="text_3">
      <!-- 2021-11 -->
      <g transform="translate(120.777603 310.951846)rotate(-30)scale(0.1 -0.1)">
       <use xlink:href="#DejaVuSans-32"/>
       <use x="63.623047" xlink:href="#DejaVuSans-30"/>
       <use x="127.246094" xlink:href="#DejaVuSans-32"/>
       <use x="190.869141" xlink:href="#DejaVuSans-31"/>
       <use x="254.492188" xlink:href="#DejaVuSans-2d"/>
       <use x="290.576172" xlink:href="#DejaVuSans-31"/>
       <use x="354.199219" xlink:href="#DejaVuSans-31"/>
      </g>
     </g>
    </g>
    <g id="xtick_4">
     <g id="line2d_4">
      <g>
       <use style="stroke:#000000;stroke-width:0.8;" x="194.075152" xlink:href="#m4cd61d7faf" y="276.48"/>
      </g>
     </g>
     <g id="text_4">
      <!-- 2021-12 -->
      <g transform="translate(156.850331 310.951846)rotate(-30)scale(0.1 -0.1)">
       <use xlink:href="#DejaVuSans-32"/>
       <use x="63.623047" xlink:href="#DejaVuSans-30"/>
       <use x="127.246094" xlink:href="#DejaVuSans-32"/>
       <use x="190.869141" xlink:href="#DejaVuSans-31"/>
       <use x="254.492188" xlink:href="#DejaVuSans-2d"/>
       <use x="290.576172" xlink:href="#DejaVuSans-31"/>
       <use x="354.199219" xlink:href="#DejaVuSans-32"/>
      </g>
     </g>
    </g>
    <g id="xtick_5">
     <g id="line2d_5">
      <g>
       <use style="stroke:#000000;stroke-width:0.8;" x="231.350303" xlink:href="#m4cd61d7faf" y="276.48"/>
      </g>
     </g>
     <g id="text_5">
      <!-- 2022-01 -->
      <g transform="translate(194.125482 310.951846)rotate(-30)scale(0.1 -0.1)">
       <use xlink:href="#DejaVuSans-32"/>
       <use x="63.623047" xlink:href="#DejaVuSans-30"/>
       <use x="127.246094" xlink:href="#DejaVuSans-32"/>
       <use x="190.869141" xlink:href="#DejaVuSans-32"/>
       <use x="254.492188" xlink:href="#DejaVuSans-2d"/>
       <use x="290.576172" xlink:href="#DejaVuSans-30"/>
       <use x="354.199219" xlink:href="#DejaVuSans-31"/>
      </g>
     </g>
    </g>
    <g id="xtick_6">
     <g id="line2d_6">
      <g>
       <use style="stroke:#000000;stroke-width:0.8;" x="268.625455" xlink:href="#m4cd61d7faf" y="276.48"/>
      </g>
     </g>
     <g id="text_6">
      <!-- 2022-02 -->
      <g transform="translate(231.400634 310.951846)rotate(-30)scale(0.1 -0.1)">
       <use xlink:href="#DejaVuSans-32"/>
       <use x="63.623047" xlink:href="#DejaVuSans-30"/>
       <use x="127.246094" xlink:href="#DejaVuSans-32"/>
       <use x="190.869141" xlink:href="#DejaVuSans-32"/>
       <use x="254.492188" xlink:href="#DejaVuSans-2d"/>
       <use x="290.576172" xlink:href="#DejaVuSans-30"/>
       <use x="354.199219" xlink:href="#DejaVuSans-32"/>
      </g>
     </g>
    </g>
    <g id="xtick_7">
     <g id="line2d_7">
      <g>
       <use style="stroke:#000000;stroke-width:0.8;" x="302.293333" xlink:href="#m4cd61d7faf" y="276.48"/>
      </g>
     </g>
     <g id="text_7">
      <!-- 2022-03 -->
      <g transform="translate(265.068513 310.951846)rotate(-30)scale(0.1 -0.1)">
       <defs>
        <path d="M 2597 2516 
Q 3050 2419 3304 2112 
Q 3559 1806 3559 1356 
Q 3559 666 3084 287 
Q 2609 -91 1734 -91 
Q 1441 -91 1130 -33 
Q 819 25 488 141 
L 488 750 
Q 750 597 1062 519 
Q 1375 441 1716 441 
Q 2309 441 2620 675 
Q 2931 909 2931 1356 
Q 2931 1769 2642 2001 
Q 2353 2234 1838 2234 
L 1294 2234 
L 1294 2753 
L 1863 2753 
Q 2328 2753 2575 2939 
Q 2822 3125 2822 3475 
Q 2822 3834 2567 4026 
Q 2313 4219 1838 4219 
Q 1578 4219 1281 4162 
Q 984 4106 628 3988 
L 628 4550 
Q 988 4650 1302 4700 
Q 1616 4750 1894 4750 
Q 2613 4750 3031 4423 
Q 3450 4097 3450 3541 
Q 3450 3153 3228 2886 
Q 3006 2619 2597 2516 
z
" id="DejaVuSans-33" transform="scale(0.015625)"/>
       </defs>
       <use xlink:href="#DejaVuSans-32"/>
       <use x="63.623047" xlink:href="#DejaVuSans-30"/>
       <use x="127.246094" xlink:href="#DejaVuSans-32"/>
       <use x="190.869141" xlink:href="#DejaVuSans-32"/>
       <use x="254.492188" xlink:href="#DejaVuSans-2d"/>
       <use x="290.576172" xlink:href="#DejaVuSans-30"/>
       <use x="354.199219" xlink:href="#DejaVuSans-33"/>
      </g>
     </g>
    </g>
    <g id="xtick_8">
     <g id="line2d_8">
      <g>
       <use style="stroke:#000000;stroke-width:0.8;" x="339.568485" xlink:href="#m4cd61d7faf" y="276.48"/>
      </g>
     </g>
     <g id="text_8">
      <!-- 2022-04 -->
      <g transform="translate(302.343664 310.951846)rotate(-30)scale(0.1 -0.1)">
       <defs>
        <path d="M 2419 4116 
L 825 1625 
L 2419 1625 
L 2419 4116 
z
M 2253 4666 
L 3047 4666 
L 3047 1625 
L 3713 1625 
L 3713 1100 
L 3047 1100 
L 3047 0 
L 2419 0 
L 2419 1100 
L 313 1100 
L 313 1709 
L 2253 4666 
z
" id="DejaVuSans-34" transform="scale(0.015625)"/>
       </defs>
       <use xlink:href="#DejaVuSans-32"/>
       <use x="63.623047" xlink:href="#DejaVuSans-30"/>
       <use x="127.246094" xlink:href="#DejaVuSans-32"/>
       <use x="190.869141" xlink:href="#DejaVuSans-32"/>
       <use x="254.492188" xlink:href="#DejaVuSans-2d"/>
       <use x="290.576172" xlink:href="#DejaVuSans-30"/>
       <use x="354.199219" xlink:href="#DejaVuSans-34"/>
      </g>
     </g>
    </g>
    <g id="xtick_9">
     <g id="line2d_9">
      <g>
       <use style="stroke:#000000;stroke-width:0.8;" x="375.641212" xlink:href="#m4cd61d7faf" y="276.48"/>
      </g>
     </g>
     <g id="text_9">
      <!-- 2022-05 -->
      <g transform="translate(338.416391 310.951846)rotate(-30)scale(0.1 -0.1)">
       <defs>
        <path d="M 691 4666 
L 3169 4666 
L 3169 4134 
L 1269 4134 
L 1269 2991 
Q 1406 3038 1543 3061 
Q 1681 3084 1819 3084 
Q 2600 3084 3056 2656 
Q 3513 2228 3513 1497 
Q 3513 744 3044 326 
Q 2575 -91 1722 -91 
Q 1428 -91 1123 -41 
Q 819 9 494 109 
L 494 744 
Q 775 591 1075 516 
Q 1375 441 1709 441 
Q 2250 441 2565 725 
Q 2881 1009 2881 1497 
Q 2881 1984 2565 2268 
Q 2250 2553 1709 2553 
Q 1456 2553 1204 2497 
Q 953 2441 691 2322 
L 691 4666 
z
" id="DejaVuSans-35" transform="scale(0.015625)"/>
       </defs>
       <use xlink:href="#DejaVuSans-32"/>
       <use x="63.623047" xlink:href="#DejaVuSans-30"/>
       <use x="127.246094" xlink:href="#DejaVuSans-32"/>
       <use x="190.869141" xlink:href="#DejaVuSans-32"/>
       <use x="254.492188" xlink:href="#DejaVuSans-2d"/>
       <use x="290.576172" xlink:href="#DejaVuSans-30"/>
       <use x="354.199219" xlink:href="#DejaVuSans-35"/>
      </g>
     </g>
    </g>
    <g id="xtick_10">
     <g id="line2d_10">
      <g>
       <use style="stroke:#000000;stroke-width:0.8;" x="412.916364" xlink:href="#m4cd61d7faf" y="276.48"/>
      </g>
     </g>
     <g id="text_10">
      <!-- 2022-06 -->
      <g transform="translate(375.691543 310.951846)rotate(-30)scale(0.1 -0.1)">
       <defs>
        <path d="M 2113 2584 
Q 1688 2584 1439 2293 
Q 1191 2003 1191 1497 
Q 1191 994 1439 701 
Q 1688 409 2113 409 
Q 2538 409 2786 701 
Q 3034 994 3034 1497 
Q 3034 2003 2786 2293 
Q 2538 2584 2113 2584 
z
M 3366 4563 
L 3366 3988 
Q 3128 4100 2886 4159 
Q 2644 4219 2406 4219 
Q 1781 4219 1451 3797 
Q 1122 3375 1075 2522 
Q 1259 2794 1537 2939 
Q 1816 3084 2150 3084 
Q 2853 3084 3261 2657 
Q 3669 2231 3669 1497 
Q 3669 778 3244 343 
Q 2819 -91 2113 -91 
Q 1303 -91 875 529 
Q 447 1150 447 2328 
Q 447 3434 972 4092 
Q 1497 4750 2381 4750 
Q 2619 4750 2861 4703 
Q 3103 4656 3366 4563 
z
" id="DejaVuSans-36" transform="scale(0.015625)"/>
       </defs>
       <use xlink:href="#DejaVuSans-32"/>
       <use x="63.623047" xlink:href="#DejaVuSans-30"/>
       <use x="127.246094" xlink:href="#DejaVuSans-32"/>
       <use x="190.869141" xlink:href="#DejaVuSans-32"/>
       <use x="254.492188" xlink:href="#DejaVuSans-2d"/>
       <use x="290.576172" xlink:href="#DejaVuSans-30"/>
       <use x="354.199219" xlink:href="#DejaVuSans-36"/>
      </g>
     </g>
    </g>
    <g id="text_11">
     <!-- date -->
     <g transform="translate(224.885 324.351346)scale(0.1 -0.1)">
      <defs>
       <path d="M 2906 2969 
L 2906 4863 
L 3481 4863 
L 3481 0 
L 2906 0 
L 2906 525 
Q 2725 213 2448 61 
Q 2172 -91 1784 -91 
Q 1150 -91 751 415 
Q 353 922 353 1747 
Q 353 2572 751 3078 
Q 1150 3584 1784 3584 
Q 2172 3584 2448 3432 
Q 2725 3281 2906 2969 
z
M 947 1747 
Q 947 1113 1208 752 
Q 1469 391 1925 391 
Q 2381 391 2643 752 
Q 2906 1113 2906 1747 
Q 2906 2381 2643 2742 
Q 2381 3103 1925 3103 
Q 1469 3103 1208 2742 
Q 947 2381 947 1747 
z
" id="DejaVuSans-64" transform="scale(0.015625)"/>
       <path d="M 2194 1759 
Q 1497 1759 1228 1600 
Q 959 1441 959 1056 
Q 959 750 1161 570 
Q 1363 391 1709 391 
Q 2188 391 2477 730 
Q 2766 1069 2766 1631 
L 2766 1759 
L 2194 1759 
z
M 3341 1997 
L 3341 0 
L 2766 0 
L 2766 531 
Q 2569 213 2275 61 
Q 1981 -91 1556 -91 
Q 1019 -91 701 211 
Q 384 513 384 1019 
Q 384 1609 779 1909 
Q 1175 2209 1959 2209 
L 2766 2209 
L 2766 2266 
Q 2766 2663 2505 2880 
Q 2244 3097 1772 3097 
Q 1472 3097 1187 3025 
Q 903 2953 641 2809 
L 641 3341 
Q 956 3463 1253 3523 
Q 1550 3584 1831 3584 
Q 2591 3584 2966 3190 
Q 3341 2797 3341 1997 
z
" id="DejaVuSans-61" transform="scale(0.015625)"/>
       <path d="M 1172 4494 
L 1172 3500 
L 2356 3500 
L 2356 3053 
L 1172 3053 
L 1172 1153 
Q 1172 725 1289 603 
Q 1406 481 1766 481 
L 2356 481 
L 2356 0 
L 1766 0 
Q 1100 0 847 248 
Q 594 497 594 1153 
L 594 3053 
L 172 3053 
L 172 3500 
L 594 3500 
L 594 4494 
L 1172 4494 
z
" id="DejaVuSans-74" transform="scale(0.015625)"/>
       <path d="M 3597 1894 
L 3597 1613 
L 953 1613 
Q 991 1019 1311 708 
Q 1631 397 2203 397 
Q 2534 397 2845 478 
Q 3156 559 3463 722 
L 3463 178 
Q 3153 47 2828 -22 
Q 2503 -91 2169 -91 
Q 1331 -91 842 396 
Q 353 884 353 1716 
Q 353 2575 817 3079 
Q 1281 3584 2069 3584 
Q 2775 3584 3186 3129 
Q 3597 2675 3597 1894 
z
M 3022 2063 
Q 3016 2534 2758 2815 
Q 2500 3097 2075 3097 
Q 1594 3097 1305 2825 
Q 1016 2553 972 2059 
L 3022 2063 
z
" id="DejaVuSans-65" transform="scale(0.015625)"/>
      </defs>
      <use xlink:href="#DejaVuSans-64"/>
      <use x="63.476562" xlink:href="#DejaVuSans-61"/>
      <use x="124.755859" xlink:href="#DejaVuSans-74"/>
      <use x="163.964844" xlink:href="#DejaVuSans-65"/>
     </g>
    </g>
   </g>
   <g id="matplotlib.axis_2">
    <g id="ytick_1">
     <g id="line2d_11">
      <defs>
       <path d="M 0 0 
L -3.5 0 
" id="m0b4ec91e2c" style="stroke:#000000;stroke-width:0.8;"/>
      </defs>
      <g>
       <use style="stroke:#000000;stroke-width:0.8;" x="57.6" xlink:href="#m0b4ec91e2c" y="250.484529"/>
      </g>
     </g>
     <g id="text_12">
      <!-- 80000 -->
      <g transform="translate(18.7875 254.283747)scale(0.1 -0.1)">
       <defs>
        <path d="M 2034 2216 
Q 1584 2216 1326 1975 
Q 1069 1734 1069 1313 
Q 1069 891 1326 650 
Q 1584 409 2034 409 
Q 2484 409 2743 651 
Q 3003 894 3003 1313 
Q 3003 1734 2745 1975 
Q 2488 2216 2034 2216 
z
M 1403 2484 
Q 997 2584 770 2862 
Q 544 3141 544 3541 
Q 544 4100 942 4425 
Q 1341 4750 2034 4750 
Q 2731 4750 3128 4425 
Q 3525 4100 3525 3541 
Q 3525 3141 3298 2862 
Q 3072 2584 2669 2484 
Q 3125 2378 3379 2068 
Q 3634 1759 3634 1313 
Q 3634 634 3220 271 
Q 2806 -91 2034 -91 
Q 1263 -91 848 271 
Q 434 634 434 1313 
Q 434 1759 690 2068 
Q 947 2378 1403 2484 
z
M 1172 3481 
Q 1172 3119 1398 2916 
Q 1625 2713 2034 2713 
Q 2441 2713 2670 2916 
Q 2900 3119 2900 3481 
Q 2900 3844 2670 4047 
Q 2441 4250 2034 4250 
Q 1625 4250 1398 4047 
Q 1172 3844 1172 3481 
z
" id="DejaVuSans-38" transform="scale(0.015625)"/>
       </defs>
       <use xlink:href="#DejaVuSans-38"/>
       <use x="63.623047" xlink:href="#DejaVuSans-30"/>
       <use x="127.246094" xlink:href="#DejaVuSans-30"/>
       <use x="190.869141" xlink:href="#DejaVuSans-30"/>
       <use x="254.492188" xlink:href="#DejaVuSans-30"/>
      </g>
     </g>
    </g>
    <g id="ytick_2">
     <g id="line2d_12">
      <g>
       <use style="stroke:#000000;stroke-width:0.8;" x="57.6" xlink:href="#m0b4ec91e2c" y="223.685561"/>
      </g>
     </g>
     <g id="text_13">
      <!-- 85000 -->
      <g transform="translate(18.7875 227.48478)scale(0.1 -0.1)">
       <use xlink:href="#DejaVuSans-38"/>
       <use x="63.623047" xlink:href="#DejaVuSans-35"/>
       <use x="127.246094" xlink:href="#DejaVuSans-30"/>
       <use x="190.869141" xlink:href="#DejaVuSans-30"/>
       <use x="254.492188" xlink:href="#DejaVuSans-30"/>
      </g>
     </g>
    </g>
    <g id="ytick_3">
     <g id="line2d_13">
      <g>
       <use style="stroke:#000000;stroke-width:0.8;" x="57.6" xlink:href="#m0b4ec91e2c" y="196.886594"/>
      </g>
     </g>
     <g id="text_14">
      <!-- 90000 -->
      <g transform="translate(18.7875 200.685813)scale(0.1 -0.1)">
       <use xlink:href="#DejaVuSans-39"/>
       <use x="63.623047" xlink:href="#DejaVuSans-30"/>
       <use x="127.246094" xlink:href="#DejaVuSans-30"/>
       <use x="190.869141" xlink:href="#DejaVuSans-30"/>
       <use x="254.492188" xlink:href="#DejaVuSans-30"/>
      </g>
     </g>
    </g>
    <g id="ytick_4">
     <g id="line2d_14">
      <g>
       <use style="stroke:#000000;stroke-width:0.8;" x="57.6" xlink:href="#m0b4ec91e2c" y="170.087627"/>
      </g>
     </g>
     <g id="text_15">
      <!-- 95000 -->
      <g transform="translate(18.7875 173.886845)scale(0.1 -0.1)">
       <use xlink:href="#DejaVuSans-39"/>
       <use x="63.623047" xlink:href="#DejaVuSans-35"/>
       <use x="127.246094" xlink:href="#DejaVuSans-30"/>
       <use x="190.869141" xlink:href="#DejaVuSans-30"/>
       <use x="254.492188" xlink:href="#DejaVuSans-30"/>
      </g>
     </g>
    </g>
    <g id="ytick_5">
     <g id="line2d_15">
      <g>
       <use style="stroke:#000000;stroke-width:0.8;" x="57.6" xlink:href="#m0b4ec91e2c" y="143.288659"/>
      </g>
     </g>
     <g id="text_16">
      <!-- 100000 -->
      <g transform="translate(12.425 147.087878)scale(0.1 -0.1)">
       <use xlink:href="#DejaVuSans-31"/>
       <use x="63.623047" xlink:href="#DejaVuSans-30"/>
       <use x="127.246094" xlink:href="#DejaVuSans-30"/>
       <use x="190.869141" xlink:href="#DejaVuSans-30"/>
       <use x="254.492188" xlink:href="#DejaVuSans-30"/>
       <use x="318.115234" xlink:href="#DejaVuSans-30"/>
      </g>
     </g>
    </g>
    <g id="ytick_6">
     <g id="line2d_16">
      <g>
       <use style="stroke:#000000;stroke-width:0.8;" x="57.6" xlink:href="#m0b4ec91e2c" y="116.489692"/>
      </g>
     </g>
     <g id="text_17">
      <!-- 105000 -->
      <g transform="translate(12.425 120.288911)scale(0.1 -0.1)">
       <use xlink:href="#DejaVuSans-31"/>
       <use x="63.623047" xlink:href="#DejaVuSans-30"/>
       <use x="127.246094" xlink:href="#DejaVuSans-35"/>
       <use x="190.869141" xlink:href="#DejaVuSans-30"/>
       <use x="254.492188" xlink:href="#DejaVuSans-30"/>
       <use x="318.115234" xlink:href="#DejaVuSans-30"/>
      </g>
     </g>
    </g>
    <g id="ytick_7">
     <g id="line2d_17">
      <g>
       <use style="stroke:#000000;stroke-width:0.8;" x="57.6" xlink:href="#m0b4ec91e2c" y="89.690725"/>
      </g>
     </g>
     <g id="text_18">
      <!-- 110000 -->
      <g transform="translate(12.425 93.489944)scale(0.1 -0.1)">
       <use xlink:href="#DejaVuSans-31"/>
       <use x="63.623047" xlink:href="#DejaVuSans-31"/>
       <use x="127.246094" xlink:href="#DejaVuSans-30"/>
       <use x="190.869141" xlink:href="#DejaVuSans-30"/>
       <use x="254.492188" xlink:href="#DejaVuSans-30"/>
       <use x="318.115234" xlink:href="#DejaVuSans-30"/>
      </g>
     </g>
    </g>
    <g id="ytick_8">
     <g id="line2d_18">
      <g>
       <use style="stroke:#000000;stroke-width:0.8;" x="57.6" xlink:href="#m0b4ec91e2c" y="62.891757"/>
      </g>
     </g>
     <g id="text_19">
      <!-- 115000 -->
      <g transform="translate(12.425 66.690976)scale(0.1 -0.1)">
       <use xlink:href="#DejaVuSans-31"/>
       <use x="63.623047" xlink:href="#DejaVuSans-31"/>
       <use x="127.246094" xlink:href="#DejaVuSans-35"/>
       <use x="190.869141" xlink:href="#DejaVuSans-30"/>
       <use x="254.492188" xlink:href="#DejaVuSans-30"/>
       <use x="318.115234" xlink:href="#DejaVuSans-30"/>
      </g>
     </g>
    </g>
   </g>
   <g id="line2d_19">
    <path clip-path="url(#p35eb1ca3c4)" d="M 73.832727 143.288659 
L 75.035152 141.601094 
L 76.237576 139.693612 
L 77.44 142.852128 
L 78.642424 137.442475 
L 82.249697 134.221197 
L 83.452121 132.956461 
L 84.654545 134.911191 
L 85.85697 134.009808 
L 87.059394 134.134882 
L 91.869091 134.359443 
L 93.071515 135.24743 
L 94.273939 137.297896 
L 95.476364 141.950681 
L 99.083636 137.919817 
L 100.286061 145.077726 
L 101.488485 141.588223 
L 102.690909 142.497369 
L 103.893333 147.727295 
L 107.500606 157.137061 
L 108.70303 157.957794 
L 109.905455 153.83655 
L 111.107879 146.114481 
L 112.310303 141.50417 
L 115.917576 137.61526 
L 117.12 149.00271 
L 118.322424 148.185602 
L 119.524848 152.227961 
L 120.727273 144.079987 
L 124.334545 154.095688 
L 125.53697 145.852017 
L 126.739394 144.243176 
L 127.941818 144.111501 
L 129.144242 143.796265 
L 132.751515 142.709306 
L 133.953939 142.582057 
L 135.156364 149.116114 
L 136.358788 138.866598 
L 137.561212 137.864981 
L 141.168485 133.874713 
L 142.370909 128.284226 
L 143.573333 125.963448 
L 144.775758 136.008643 
L 145.978182 143.18311 
L 149.585455 142.654379 
L 150.787879 147.200185 
L 151.990303 148.784561 
L 153.192727 141.993788 
L 154.395152 149.25043 
L 158.002424 137.828289 
L 159.204848 137.904971 
L 160.407273 132.438972 
L 161.609697 139.127573 
L 162.812121 135.239317 
L 166.419394 134.577047 
L 167.621818 141.195504 
L 168.824242 141.598556 
L 170.026667 145.93453 
L 171.229091 141.362015 
L 174.836364 139.809901 
L 176.038788 140.131969 
L 177.241212 143.190836 
L 178.443636 144.200082 
L 179.646061 144.730029 
L 183.253333 141.611197 
L 184.455758 137.506895 
L 185.658182 137.819404 
L 188.06303 137.427825 
L 191.670303 142.530456 
L 192.872727 153.112824 
L 194.075152 160.385473 
L 195.277576 153.821044 
L 196.48 157.627741 
L 200.087273 147.393892 
L 201.289697 138.103749 
L 202.492121 133.903965 
L 203.694545 133.958142 
L 204.89697 132.068738 
L 208.504242 137.252457 
L 209.706667 134.724019 
L 212.111515 128.889109 
L 213.313939 134.70952 
L 216.921212 142.429767 
L 218.123636 129.696961 
L 219.326061 127.490587 
L 220.528485 122.364609 
L 225.338182 115.758414 
L 226.540606 116.040008 
L 227.74303 115.979146 
L 228.945455 116.969094 
L 230.147879 119.214438 
L 233.755152 111.04216 
L 234.957576 103.926067 
L 236.16 119.374394 
L 237.362424 114.296597 
L 238.564848 112.861742 
L 242.172121 112.652885 
L 243.374545 107.868013 
L 244.57697 106.477126 
L 245.779394 113.705846 
L 246.981818 111.981232 
L 251.791515 124.076109 
L 252.993939 127.857726 
L 254.196364 134.077212 
L 255.398788 146.643474 
L 259.006061 145.957389 
L 260.208485 152.067225 
L 261.410909 151.915268 
L 262.613333 155.590112 
L 263.815758 141.782766 
L 267.42303 130.638341 
L 268.625455 125.429922 
L 269.827879 116.052017 
L 271.030303 151.569542 
L 272.232727 150.487901 
L 275.84 159.52558 
L 277.042424 160.43531 
L 278.244848 149.24418 
L 279.447273 158.868108 
L 280.649697 170.510219 
L 284.25697 174.408569 
L 285.459394 167.526897 
L 286.661818 170.53756 
L 287.864242 180.174623 
L 289.066667 183.498959 
L 293.876364 188.471234 
L 295.078788 195.920105 
L 296.281212 184.36715 
L 297.483636 174.800699 
L 301.090909 177.343227 
L 302.293333 185.705528 
L 303.495758 175.653745 
L 304.698182 177.970982 
L 305.900606 184.195768 
L 309.507879 204.583832 
L 310.710303 204.788622 
L 311.912727 184.355372 
L 313.115152 190.753574 
L 314.317576 199.061124 
L 317.924848 200.171699 
L 319.127273 190.15162 
L 320.329697 174.896605 
L 321.532121 169.394883 
L 322.734545 160.790198 
L 326.341818 163.211082 
L 327.544242 153.282326 
L 328.746667 159.123208 
L 329.949091 151.088925 
L 331.151515 145.113853 
L 334.758788 143.89777 
L 335.961212 139.3336 
L 337.163636 141.75985 
L 338.366061 154.284882 
L 339.568485 152.480915 
L 343.175758 146.796364 
L 344.378182 152.598227 
L 345.580606 160.378901 
L 347.985455 161.763889 
L 351.592727 171.146536 
L 352.795152 174.633141 
L 353.997576 172.383996 
L 355.2 181.668548 
L 360.009697 177.442306 
L 361.212121 168.248715 
L 362.414545 173.409428 
L 363.61697 187.434415 
L 364.819394 203.284343 
L 368.426667 199.487248 
L 369.629091 208.567296 
L 370.831515 213.700139 
L 372.033939 184.664162 
L 373.236364 200.46443 
L 376.843636 193.345905 
L 378.046061 188.437309 
L 379.248485 167.350053 
L 380.450909 189.085587 
L 381.653333 191.42854 
L 385.260606 205.582104 
L 386.46303 204.321826 
L 387.665455 213.025146 
L 388.867879 216.079833 
L 390.070303 205.940862 
L 393.677576 209.006189 
L 394.88 199.838167 
L 396.082424 218.735115 
L 397.284848 224.076538 
L 398.487273 232.301892 
L 398.487273 232.301892 
" style="fill:none;stroke:#0000ff;stroke-linecap:square;stroke-opacity:0.9;stroke-width:2;"/>
   </g>
   <g id="line2d_20">
    <path clip-path="url(#p35eb1ca3c4)" d="M 73.832727 143.288659 
L 76.237576 137.955848 
L 77.44 141.148851 
L 78.642424 134.67605 
L 82.249697 132.923775 
L 83.452121 132.015362 
L 84.654545 132.088384 
L 85.85697 133.100715 
L 87.059394 132.917046 
L 91.869091 131.705155 
L 93.071515 134.038881 
L 94.273939 135.267163 
L 95.476364 140.634741 
L 99.083636 136.84861 
L 100.286061 142.080287 
L 101.488485 139.70708 
L 102.690909 141.158234 
L 103.893333 148.064968 
L 107.500606 156.478313 
L 108.70303 156.580328 
L 109.905455 153.786382 
L 111.107879 146.649246 
L 112.310303 142.991458 
L 115.917576 139.301987 
L 117.12 150.098822 
L 118.322424 149.27234 
L 119.524848 154.326849 
L 120.727273 146.718627 
L 124.334545 152.762585 
L 125.53697 145.15554 
L 126.739394 143.513572 
L 127.941818 142.19131 
L 129.144242 139.345962 
L 132.751515 142.482537 
L 133.953939 146.779601 
L 135.156364 148.196886 
L 136.358788 135.318894 
L 137.561212 131.464938 
L 141.168485 130.414003 
L 142.370909 125.761478 
L 143.573333 122.460756 
L 144.775758 129.947504 
L 145.978182 132.490279 
L 149.585455 133.98135 
L 151.990303 139.95571 
L 153.192727 132.760264 
L 154.395152 131.776614 
L 158.002424 131.495984 
L 159.204848 129.070042 
L 160.407273 125.291117 
L 161.609697 126.333288 
L 162.812121 126.387984 
L 166.419394 125.248843 
L 167.621818 129.921017 
L 168.824242 132.559727 
L 170.026667 132.710965 
L 171.229091 129.092021 
L 174.836364 127.822624 
L 176.038788 128.782805 
L 177.241212 129.423279 
L 178.443636 129.464953 
L 179.646061 131.337343 
L 183.253333 129.268922 
L 184.455758 123.72578 
L 185.658182 123.172731 
L 188.06303 137.574775 
L 191.670303 131.516911 
L 192.872727 143.209404 
L 194.075152 149.623839 
L 195.277576 142.250164 
L 196.48 146.413848 
L 200.087273 138.318652 
L 201.289697 128.968144 
L 202.492121 125.989177 
L 203.694545 126.247229 
L 204.89697 123.066088 
L 208.504242 128.267245 
L 209.706667 127.979648 
L 210.909091 123.685979 
L 212.111515 123.640015 
L 213.313939 130.724422 
L 216.921212 137.366387 
L 218.123636 126.879782 
L 219.326061 123.399259 
L 220.528485 118.71113 
L 225.338182 111.528129 
L 226.540606 112.046257 
L 227.74303 111.420496 
L 228.945455 112.473816 
L 230.147879 114.50835 
L 233.755152 108.269995 
L 234.957576 102.650753 
L 236.16 115.425327 
L 238.564848 110.251192 
L 242.172121 110.556964 
L 243.374545 107.093792 
L 244.57697 106.963003 
L 245.779394 111.586446 
L 246.981818 111.529165 
L 251.791515 124.154053 
L 254.196364 134.712849 
L 255.398788 145.970065 
L 259.006061 146.906808 
L 260.208485 145.235976 
L 261.410909 146.301831 
L 262.613333 151.175299 
L 263.815758 137.832699 
L 267.42303 129.61663 
L 268.625455 123.212851 
L 269.827879 114.431594 
L 271.030303 139.421392 
L 272.232727 135.025038 
L 275.84 138.452306 
L 277.042424 135.209158 
L 278.244848 129.843854 
L 279.447273 139.251033 
L 280.649697 150.223306 
L 284.25697 155.212533 
L 285.459394 149.045978 
L 286.661818 150.104863 
L 287.864242 160.199874 
L 289.066667 163.253752 
L 293.876364 167.806547 
L 295.078788 174.628638 
L 296.281212 171.539317 
L 297.483636 159.558553 
L 301.090909 164.690759 
L 302.293333 175.451722 
L 303.495758 162.995893 
L 304.698182 164.529586 
L 305.900606 171.964583 
L 309.507879 189.759478 
L 310.710303 192.029295 
L 311.912727 173.998202 
L 313.115152 180.579467 
L 314.317576 186.272651 
L 317.924848 186.918696 
L 319.127273 178.065894 
L 320.329697 166.484918 
L 322.734545 156.802846 
L 326.341818 156.358156 
L 327.544242 147.577327 
L 328.746667 153.094036 
L 329.949091 145.10846 
L 331.151515 139.305023 
L 334.758788 138.743242 
L 335.961212 136.009993 
L 337.163636 136.452472 
L 338.366061 146.693108 
L 339.568485 144.517593 
L 343.175758 140.847225 
L 344.378182 145.827346 
L 345.580606 152.851277 
L 346.78303 152.925466 
L 347.985455 152.687253 
L 352.795152 163.415061 
L 353.997576 161.434456 
L 355.2 169.153903 
L 360.009697 165.796555 
L 361.212121 158.466867 
L 362.414545 156.040291 
L 363.61697 163.330319 
L 364.819394 178.199174 
L 368.426667 177.268346 
L 369.629091 185.193067 
L 370.831515 186.78113 
L 372.033939 170.04631 
L 373.236364 185.53608 
L 376.843636 182.502454 
L 378.046061 178.858715 
L 379.248485 157.320393 
L 380.450909 175.635796 
L 381.653333 174.306405 
L 385.260606 189.150529 
L 386.46303 193.328291 
L 387.665455 198.864866 
L 388.867879 201.613219 
L 390.070303 194.024408 
L 393.677576 195.54351 
L 394.88 185.452301 
L 396.082424 204.797149 
L 397.284848 210.868337 
L 398.487273 214.986888 
L 398.487273 214.986888 
" style="fill:none;stroke:#ff0000;stroke-linecap:square;stroke-opacity:0.9;stroke-width:2;"/>
   </g>
   <g id="line2d_21">
    <path clip-path="url(#p35eb1ca3c4)" d="M 73.832727 143.288659 
L 75.035152 140.311087 
L 76.237576 138.424727 
L 77.44 141.255665 
L 78.642424 136.203801 
L 82.249697 133.091954 
L 83.452121 131.787273 
L 84.654545 133.242469 
L 85.85697 132.36976 
L 87.059394 132.669969 
L 91.869091 132.875047 
L 93.071515 133.705093 
L 94.273939 135.077965 
L 95.476364 140.383139 
L 99.083636 135.46339 
L 100.286061 142.65747 
L 101.488485 139.087209 
L 102.690909 139.942049 
L 103.893333 144.877487 
L 107.500606 153.900685 
L 108.70303 154.779544 
L 109.905455 151.333896 
L 111.107879 142.939955 
L 112.310303 138.343643 
L 115.917576 134.233008 
L 117.12 145.830437 
L 118.322424 144.488009 
L 119.524848 148.463924 
L 120.727273 140.630444 
L 124.334545 150.921895 
L 125.53697 142.548076 
L 126.739394 140.556341 
L 127.941818 138.889692 
L 129.144242 136.833798 
L 132.751515 140.334532 
L 133.953939 144.425954 
L 135.156364 145.366379 
L 136.358788 134.74315 
L 137.561212 133.660938 
L 141.168485 129.766502 
L 142.370909 124.082963 
L 143.573333 122.023333 
L 144.775758 131.426711 
L 145.978182 139.08842 
L 149.585455 138.281594 
L 150.787879 143.100774 
L 151.990303 144.959299 
L 153.192727 137.983089 
L 154.395152 136.673492 
L 158.002424 133.755072 
L 159.204848 132.502127 
L 160.407273 127.969661 
L 161.609697 127.768222 
L 162.812121 123.496135 
L 166.419394 122.81693 
L 167.621818 129.901914 
L 168.824242 134.254206 
L 170.026667 134.283612 
L 171.229091 129.977104 
L 174.836364 128.057086 
L 176.038788 130.785094 
L 177.241212 130.860766 
L 178.443636 132.630103 
L 179.646061 133.228291 
L 183.253333 129.221259 
L 184.455758 125.312923 
L 185.658182 125.368534 
L 188.06303 136.962404 
L 191.670303 130.327233 
L 192.872727 141.219992 
L 194.075152 148.586379 
L 195.277576 141.5842 
L 196.48 145.425026 
L 200.087273 135.344259 
L 201.289697 125.857446 
L 202.492121 121.643593 
L 203.694545 120.966974 
L 204.89697 119.539126 
L 208.504242 124.828529 
L 209.706667 122.379139 
L 212.111515 116.14356 
L 213.313939 122.322188 
L 216.921212 130.154689 
L 218.123636 116.731961 
L 219.326061 114.488435 
L 220.528485 109.459077 
L 225.338182 102.10836 
L 226.540606 102.657018 
L 227.74303 102.163829 
L 228.945455 103.488206 
L 230.147879 106.079706 
L 233.755152 96.925695 
L 234.957576 89.850629 
L 236.16 105.490096 
L 237.362424 100.163439 
L 238.564848 98.973073 
L 242.172121 98.510988 
L 243.374545 93.640107 
L 244.57697 92.534371 
L 245.779394 99.547695 
L 246.981818 97.432556 
L 252.993939 113.752593 
L 254.196364 119.868978 
L 255.398788 132.910689 
L 259.006061 132.195487 
L 260.208485 138.722034 
L 261.410909 138.462353 
L 262.613333 142.275908 
L 263.815758 128.260206 
L 267.42303 116.28156 
L 268.625455 111.423826 
L 269.827879 101.09847 
L 271.030303 137.399301 
L 272.232727 136.19203 
L 275.84 145.838977 
L 277.042424 146.973284 
L 278.244848 135.469749 
L 279.447273 144.87678 
L 280.649697 157.09677 
L 284.25697 160.501261 
L 285.459394 153.74387 
L 286.661818 157.004927 
L 287.864242 166.542717 
L 289.066667 169.83896 
L 293.876364 175.277114 
L 295.078788 182.319728 
L 296.281212 170.465327 
L 297.483636 161.045702 
L 301.090909 163.486981 
L 302.293333 172.076554 
L 303.495758 161.140643 
L 304.698182 164.489587 
L 305.900606 174.278504 
L 309.507879 196.318448 
L 310.710303 193.990653 
L 311.912727 172.077779 
L 314.317576 188.09599 
L 317.924848 188.571441 
L 319.127273 178.726522 
L 320.329697 162.124239 
L 321.532121 156.351701 
L 322.734545 148.402344 
L 326.341818 150.306434 
L 327.544242 139.097591 
L 328.746667 145.360983 
L 329.949091 137.787468 
L 331.151515 131.540025 
L 334.758788 130.925442 
L 335.961212 127.103222 
L 337.163636 129.439163 
L 338.366061 143.36682 
L 339.568485 142.253613 
L 343.175758 137.402304 
L 344.378182 143.993737 
L 345.580606 151.894885 
L 346.78303 154.03852 
L 347.985455 154.104779 
L 351.592727 162.479525 
L 352.795152 165.906504 
L 353.997576 163.436351 
L 355.2 173.360735 
L 360.009697 167.506836 
L 361.212121 158.223394 
L 362.414545 161.106107 
L 363.61697 175.546485 
L 364.819394 191.755015 
L 368.426667 188.757404 
L 369.629091 200.985712 
L 370.831515 206.229199 
L 372.033939 177.867774 
L 373.236364 193.594511 
L 376.843636 185.282483 
L 378.046061 178.899929 
L 379.248485 156.307658 
L 380.450909 178.408705 
L 381.653333 180.755921 
L 385.260606 195.501108 
L 386.46303 194.993943 
L 387.665455 204.182366 
L 388.867879 207.625081 
L 390.070303 197.673279 
L 393.677576 200.750493 
L 394.88 189.65116 
L 396.082424 209.23625 
L 397.284848 215.38914 
L 398.487273 219.265877 
L 398.487273 219.265877 
" style="fill:none;stroke:#ff8040;stroke-linecap:square;stroke-opacity:0.9;stroke-width:2;"/>
   </g>
   <g id="line2d_22">
    <path clip-path="url(#p35eb1ca3c4)" d="M 73.832727 143.824639 
L 75.035152 142.273078 
L 76.237576 142.124497 
L 77.44 146.370341 
L 78.642424 139.962266 
L 82.249697 139.204771 
L 83.452121 139.236288 
L 84.654545 141.267959 
L 85.85697 142.211347 
L 87.059394 141.867744 
L 91.869091 143.051473 
L 93.071515 146.403251 
L 94.273939 147.957093 
L 95.476364 153.404876 
L 99.083636 150.544249 
L 100.286061 155.259015 
L 101.488485 151.863695 
L 102.690909 154.245844 
L 103.893333 160.940593 
L 107.500606 167.478912 
L 108.70303 167.948379 
L 109.905455 170.779928 
L 111.107879 164.913257 
L 112.310303 160.214792 
L 115.917576 157.309141 
L 117.12 169.647527 
L 118.322424 169.467754 
L 119.524848 173.938029 
L 120.727273 166.542458 
L 124.334545 174.011812 
L 125.53697 166.941644 
L 126.739394 165.547335 
L 127.941818 166.941021 
L 129.144242 165.454545 
L 132.751515 168.632252 
L 133.953939 172.29994 
L 135.156364 172.89682 
L 136.358788 159.667587 
L 137.561212 156.205139 
L 141.168485 156.003972 
L 142.370909 149.95941 
L 143.573333 147.697969 
L 144.775758 162.377126 
L 145.978182 167.001618 
L 149.585455 168.473392 
L 150.787879 169.739666 
L 151.990303 170.290391 
L 153.192727 162.865123 
L 154.395152 160.47943 
L 158.002424 161.093065 
L 159.204848 158.609842 
L 160.407273 155.773181 
L 161.609697 154.702479 
L 162.812121 155.390323 
L 166.419394 155.706056 
L 167.621818 160.489099 
L 168.824242 167.13776 
L 170.026667 166.828759 
L 171.229091 164.641308 
L 174.836364 164.516657 
L 176.038788 166.485318 
L 177.241212 166.274279 
L 178.443636 166.546488 
L 179.646061 168.100262 
L 183.253333 169.482167 
L 184.455758 165.276255 
L 185.658182 166.34914 
L 188.06303 179.590379 
L 191.670303 172.651726 
L 192.872727 184.440091 
L 194.075152 189.244521 
L 195.277576 181.292658 
L 196.48 186.095778 
L 200.087273 178.12929 
L 201.289697 169.124415 
L 202.492121 165.111095 
L 203.694545 164.115052 
L 204.89697 164.093147 
L 208.504242 169.990391 
L 209.706667 168.389195 
L 210.909091 163.97586 
L 212.111515 166.935337 
L 213.313939 171.995222 
L 216.921212 177.750273 
L 218.123636 169.384578 
L 219.326061 165.307341 
L 220.528485 160.614751 
L 225.338182 153.151694 
L 226.540606 152.585685 
L 227.74303 152.367685 
L 230.147879 155.37379 
L 233.755152 149.860105 
L 234.957576 145.048343 
L 236.16 155.749016 
L 237.362424 152.075665 
L 238.564848 149.829056 
L 242.172121 150.512314 
L 243.374545 150.042474 
L 244.57697 149.319062 
L 245.779394 153.790873 
L 246.981818 155.270447 
L 251.791515 169.392195 
L 252.993939 172.031589 
L 254.196364 176.547762 
L 255.398788 187.601548 
L 259.006061 188.025117 
L 260.208485 184.998136 
L 261.410909 187.274594 
L 262.613333 190.943854 
L 263.815758 180.146466 
L 267.42303 168.539928 
L 268.625455 162.023941 
L 269.827879 153.726157 
L 271.030303 183.615653 
L 272.232727 181.33375 
L 275.84 184.642732 
L 277.042424 181.873729 
L 278.244848 176.097035 
L 279.447273 184.244057 
L 280.649697 195.571867 
L 284.25697 200.595065 
L 285.459394 194.558371 
L 286.661818 197.406738 
L 287.864242 207.863754 
L 289.066667 210.051681 
L 293.876364 214.517873 
L 295.078788 221.832782 
L 296.281212 213.569112 
L 297.483636 204.234157 
L 301.090909 206.057835 
L 302.293333 216.297007 
L 303.495758 208.389194 
L 304.698182 209.159859 
L 305.900606 217.482001 
L 309.507879 234.917625 
L 310.710303 234.809818 
L 311.912727 218.956592 
L 313.115152 224.836093 
L 314.317576 229.374005 
L 317.924848 228.915468 
L 319.127273 221.391502 
L 320.329697 211.450865 
L 321.532121 206.583357 
L 322.734545 203.074676 
L 326.341818 202.591252 
L 327.544242 192.252452 
L 328.746667 196.473051 
L 329.949091 188.68289 
L 331.151515 184.288427 
L 334.758788 183.874774 
L 335.961212 181.064482 
L 337.163636 180.805071 
L 338.366061 191.230488 
L 339.568485 189.642526 
L 343.175758 184.479543 
L 344.378182 188.943547 
L 345.580606 195.063939 
L 346.78303 195.57099 
L 347.985455 194.642289 
L 351.592727 202.988441 
L 352.795152 205.116693 
L 353.997576 202.645814 
L 355.2 210.991017 
L 360.009697 208.334769 
L 361.212121 200.995392 
L 362.414545 204.047957 
L 363.61697 212.479399 
L 364.819394 226.17479 
L 368.426667 224.705751 
L 369.629091 235.534282 
L 370.831515 235.324021 
L 372.033939 225.522688 
L 373.236364 239.538829 
L 376.843636 237.033685 
L 378.046061 233.941078 
L 379.248485 214.988407 
L 380.450909 228.719636 
L 381.653333 230.112223 
L 385.260606 241.672954 
L 386.46303 244.415795 
L 387.665455 251.693155 
L 388.867879 251.401738 
L 390.070303 245.050875 
L 393.677576 246.048597 
L 394.88 237.127508 
L 396.082424 253.749067 
L 397.284848 260.295926 
L 398.487273 265.797818 
L 398.487273 265.797818 
" style="fill:none;stroke:#0d0d0d;stroke-linecap:square;stroke-opacity:0.25;stroke-width:2;"/>
   </g>
   <g id="line2d_23">
    <path clip-path="url(#p35eb1ca3c4)" d="M 73.832727 142.75268 
L 75.035152 137.919431 
L 76.237576 134.848406 
L 77.44 137.848549 
L 78.642424 130.478778 
L 82.249697 125.845719 
L 83.452121 124.679275 
L 84.654545 124.687603 
L 85.85697 126.072334 
L 87.059394 125.449668 
L 91.869091 123.670779 
L 93.071515 125.270623 
L 94.273939 126.298907 
L 95.476364 129.162616 
L 99.083636 125.099685 
L 100.286061 129.054124 
L 101.488485 126.068243 
L 102.690909 127.033464 
L 103.893333 134.80183 
L 107.500606 144.106822 
L 108.70303 144.266247 
L 109.905455 141.419002 
L 111.107879 133.675602 
L 112.310303 128.970205 
L 115.917576 124.955796 
L 117.12 135.302019 
L 118.322424 134.634184 
L 119.524848 139.74597 
L 120.727273 132.538907 
L 124.334545 136.451776 
L 125.53697 128.66806 
L 126.739394 128.026951 
L 127.941818 126.208282 
L 129.144242 124.017262 
L 132.751515 128.162558 
L 133.953939 132.136002 
L 135.156364 130.308504 
L 136.358788 118.066045 
L 137.561212 114.309923 
L 141.168485 113.035791 
L 142.370909 107.615132 
L 143.573333 104.95322 
L 144.775758 107.140414 
L 145.978182 112.869012 
L 149.585455 114.530959 
L 151.990303 121.007489 
L 153.192727 112.877867 
L 154.395152 110.108559 
L 158.002424 108.141456 
L 159.204848 107.680905 
L 160.407273 102.46549 
L 161.609697 104.710544 
L 162.812121 100.847262 
L 166.419394 99.590625 
L 167.621818 103.515615 
L 168.824242 106.058162 
L 170.026667 105.825443 
L 171.229091 101.702817 
L 174.836364 100.815763 
L 176.038788 103.249968 
L 177.241212 102.677027 
L 178.443636 101.641052 
L 179.646061 100.256863 
L 183.253333 96.832433 
L 184.455758 94.192244 
L 185.658182 92.304851 
L 188.06303 107.359493 
L 191.670303 97.082769 
L 192.872727 112.439067 
L 194.075152 118.793451 
L 195.277576 113.049258 
L 196.48 119.037714 
L 200.087273 107.299854 
L 201.289697 98.202696 
L 202.492121 96.475861 
L 203.694545 97.022024 
L 204.89697 93.665718 
L 208.504242 100.880213 
L 209.706667 97.828285 
L 210.909091 91.654923 
L 212.111515 84.185557 
L 213.313939 90.689682 
L 216.921212 98.321791 
L 218.123636 85.232834 
L 219.326061 81.499196 
L 220.528485 76.619748 
L 225.338182 67.901232 
L 226.540606 69.489114 
L 228.945455 69.3751 
L 230.147879 73.906137 
L 233.755152 65.339818 
L 234.957576 53.92894 
L 236.16 65.918047 
L 237.362424 62.498497 
L 238.564848 54.476784 
L 242.172121 56.408238 
L 243.374545 52.154182 
L 244.57697 53.267404 
L 245.779394 57.188604 
L 246.981818 56.994 
L 251.791515 73.713863 
L 252.993939 82.116409 
L 254.196364 87.734052 
L 255.398788 98.013739 
L 259.006061 100.007562 
L 260.208485 102.496012 
L 261.410909 102.265392 
L 262.613333 107.828294 
L 263.815758 96.556923 
L 267.42303 85.997925 
L 268.625455 79.072003 
L 269.827879 75.028197 
L 271.030303 97.719056 
L 272.232727 92.382589 
L 275.84 100.81704 
L 277.042424 99.55035 
L 278.244848 89.19307 
L 279.447273 96.490828 
L 280.649697 109.441304 
L 284.25697 113.749531 
L 285.459394 108.546546 
L 286.661818 110.497981 
L 287.864242 124.633034 
L 289.066667 128.966228 
L 293.876364 133.587311 
L 295.078788 140.636475 
L 296.281212 135.896111 
L 297.483636 125.089455 
L 301.090909 128.151625 
L 302.293333 140.025157 
L 303.495758 127.722205 
L 304.698182 128.730118 
L 305.900606 134.157625 
L 310.710303 153.255081 
L 311.912727 133.107644 
L 313.115152 139.93399 
L 314.317576 148.688467 
L 317.924848 151.122058 
L 319.127273 141.150665 
L 320.329697 127.52933 
L 321.532121 123.195728 
L 322.734545 116.827208 
L 326.341818 117.641076 
L 327.544242 107.029113 
L 328.746667 112.200711 
L 329.949091 102.44585 
L 331.151515 96.167918 
L 334.758788 92.738974 
L 335.961212 89.124411 
L 337.163636 92.490501 
L 338.366061 104.52553 
L 339.568485 101.226928 
L 343.175758 95.704832 
L 345.580606 108.045132 
L 347.985455 110.490722 
L 351.592727 117.994904 
L 352.795152 121.013465 
L 353.997576 119.041933 
L 355.2 127.18528 
L 360.009697 124.08448 
L 361.212121 118.321665 
L 362.414545 116.270867 
L 363.61697 124.653504 
L 364.819394 139.162949 
L 368.426667 140.468856 
L 369.629091 152.606933 
L 370.831515 154.792002 
L 372.033939 125.281153 
L 373.236364 141.938404 
L 376.843636 137.946064 
L 378.046061 132.510935 
L 379.248485 108.234209 
L 380.450909 123.497508 
L 381.653333 124.678309 
L 385.260606 140.949908 
L 386.46303 142.644694 
L 387.665455 149.452187 
L 388.867879 149.677429 
L 390.070303 141.833342 
L 393.677576 143.535915 
L 394.88 132.636571 
L 396.082424 152.802432 
L 397.284848 158.639835 
L 398.487273 163.588349 
L 398.487273 163.588349 
" style="fill:none;stroke:#0d0d0d;stroke-linecap:square;stroke-opacity:0.25;stroke-width:2;"/>
   </g>
   <g id="patch_3">
    <path d="M 57.6 276.48 
L 57.6 41.472 
" style="fill:none;stroke:#000000;stroke-linecap:square;stroke-linejoin:miter;stroke-width:0.8;"/>
   </g>
   <g id="patch_4">
    <path d="M 414.72 276.48 
L 414.72 41.472 
" style="fill:none;stroke:#000000;stroke-linecap:square;stroke-linejoin:miter;stroke-width:0.8;"/>
   </g>
   <g id="patch_5">
    <path d="M 57.6 276.48 
L 414.72 276.48 
" style="fill:none;stroke:#000000;stroke-linecap:square;stroke-linejoin:miter;stroke-width:0.8;"/>
   </g>
   <g id="patch_6">
    <path d="M 57.6 41.472 
L 414.72 41.472 
" style="fill:none;stroke:#000000;stroke-linecap:square;stroke-linejoin:miter;stroke-width:0.8;"/>
   </g>
   <g id="text_20">
    <!-- TESTFUNDS0830 -->
    <g transform="translate(185.200312 22.034625)scale(0.12 -0.12)">
     <defs>
      <path d="M -19 4666 
L 3928 4666 
L 3928 4134 
L 2272 4134 
L 2272 0 
L 1638 0 
L 1638 4134 
L -19 4134 
L -19 4666 
z
" id="DejaVuSans-54" transform="scale(0.015625)"/>
      <path d="M 628 4666 
L 3578 4666 
L 3578 4134 
L 1259 4134 
L 1259 2753 
L 3481 2753 
L 3481 2222 
L 1259 2222 
L 1259 531 
L 3634 531 
L 3634 0 
L 628 0 
L 628 4666 
z
" id="DejaVuSans-45" transform="scale(0.015625)"/>
      <path d="M 3425 4513 
L 3425 3897 
Q 3066 4069 2747 4153 
Q 2428 4238 2131 4238 
Q 1616 4238 1336 4038 
Q 1056 3838 1056 3469 
Q 1056 3159 1242 3001 
Q 1428 2844 1947 2747 
L 2328 2669 
Q 3034 2534 3370 2195 
Q 3706 1856 3706 1288 
Q 3706 609 3251 259 
Q 2797 -91 1919 -91 
Q 1588 -91 1214 -16 
Q 841 59 441 206 
L 441 856 
Q 825 641 1194 531 
Q 1563 422 1919 422 
Q 2459 422 2753 634 
Q 3047 847 3047 1241 
Q 3047 1584 2836 1778 
Q 2625 1972 2144 2069 
L 1759 2144 
Q 1053 2284 737 2584 
Q 422 2884 422 3419 
Q 422 4038 858 4394 
Q 1294 4750 2059 4750 
Q 2388 4750 2728 4690 
Q 3069 4631 3425 4513 
z
" id="DejaVuSans-53" transform="scale(0.015625)"/>
      <path d="M 628 4666 
L 3309 4666 
L 3309 4134 
L 1259 4134 
L 1259 2759 
L 3109 2759 
L 3109 2228 
L 1259 2228 
L 1259 0 
L 628 0 
L 628 4666 
z
" id="DejaVuSans-46" transform="scale(0.015625)"/>
      <path d="M 556 4666 
L 1191 4666 
L 1191 1831 
Q 1191 1081 1462 751 
Q 1734 422 2344 422 
Q 2950 422 3222 751 
Q 3494 1081 3494 1831 
L 3494 4666 
L 4128 4666 
L 4128 1753 
Q 4128 841 3676 375 
Q 3225 -91 2344 -91 
Q 1459 -91 1007 375 
Q 556 841 556 1753 
L 556 4666 
z
" id="DejaVuSans-55" transform="scale(0.015625)"/>
      <path d="M 628 4666 
L 1478 4666 
L 3547 763 
L 3547 4666 
L 4159 4666 
L 4159 0 
L 3309 0 
L 1241 3903 
L 1241 0 
L 628 0 
L 628 4666 
z
" id="DejaVuSans-4e" transform="scale(0.015625)"/>
      <path d="M 1259 4147 
L 1259 519 
L 2022 519 
Q 2988 519 3436 956 
Q 3884 1394 3884 2338 
Q 3884 3275 3436 3711 
Q 2988 4147 2022 4147 
L 1259 4147 
z
M 628 4666 
L 1925 4666 
Q 3281 4666 3915 4102 
Q 4550 3538 4550 2338 
Q 4550 1131 3912 565 
Q 3275 0 1925 0 
L 628 0 
L 628 4666 
z
" id="DejaVuSans-44" transform="scale(0.015625)"/>
     </defs>
     <use xlink:href="#DejaVuSans-54"/>
     <use x="61.083984" xlink:href="#DejaVuSans-45"/>
     <use x="124.267578" xlink:href="#DejaVuSans-53"/>
     <use x="187.744141" xlink:href="#DejaVuSans-54"/>
     <use x="248.828125" xlink:href="#DejaVuSans-46"/>
     <use x="306.347656" xlink:href="#DejaVuSans-55"/>
     <use x="379.541016" xlink:href="#DejaVuSans-4e"/>
     <use x="454.345703" xlink:href="#DejaVuSans-44"/>
     <use x="531.347656" xlink:href="#DejaVuSans-53"/>
     <use x="594.824219" xlink:href="#DejaVuSans-30"/>
     <use x="658.447266" xlink:href="#DejaVuSans-38"/>
     <use x="722.070312" xlink:href="#DejaVuSans-33"/>
     <use x="785.693359" xlink:href="#DejaVuSans-30"/>
    </g>
    <!-- daily_report -->
    <g transform="translate(200.466563 35.472)scale(0.12 -0.12)">
     <defs>
      <path d="M 603 3500 
L 1178 3500 
L 1178 0 
L 603 0 
L 603 3500 
z
M 603 4863 
L 1178 4863 
L 1178 4134 
L 603 4134 
L 603 4863 
z
" id="DejaVuSans-69" transform="scale(0.015625)"/>
      <path d="M 603 4863 
L 1178 4863 
L 1178 0 
L 603 0 
L 603 4863 
z
" id="DejaVuSans-6c" transform="scale(0.015625)"/>
      <path d="M 2059 -325 
Q 1816 -950 1584 -1140 
Q 1353 -1331 966 -1331 
L 506 -1331 
L 506 -850 
L 844 -850 
Q 1081 -850 1212 -737 
Q 1344 -625 1503 -206 
L 1606 56 
L 191 3500 
L 800 3500 
L 1894 763 
L 2988 3500 
L 3597 3500 
L 2059 -325 
z
" id="DejaVuSans-79" transform="scale(0.015625)"/>
      <path d="M 3263 -1063 
L 3263 -1509 
L -63 -1509 
L -63 -1063 
L 3263 -1063 
z
" id="DejaVuSans-5f" transform="scale(0.015625)"/>
      <path d="M 2631 2963 
Q 2534 3019 2420 3045 
Q 2306 3072 2169 3072 
Q 1681 3072 1420 2755 
Q 1159 2438 1159 1844 
L 1159 0 
L 581 0 
L 581 3500 
L 1159 3500 
L 1159 2956 
Q 1341 3275 1631 3429 
Q 1922 3584 2338 3584 
Q 2397 3584 2469 3576 
Q 2541 3569 2628 3553 
L 2631 2963 
z
" id="DejaVuSans-72" transform="scale(0.015625)"/>
      <path d="M 1159 525 
L 1159 -1331 
L 581 -1331 
L 581 3500 
L 1159 3500 
L 1159 2969 
Q 1341 3281 1617 3432 
Q 1894 3584 2278 3584 
Q 2916 3584 3314 3078 
Q 3713 2572 3713 1747 
Q 3713 922 3314 415 
Q 2916 -91 2278 -91 
Q 1894 -91 1617 61 
Q 1341 213 1159 525 
z
M 3116 1747 
Q 3116 2381 2855 2742 
Q 2594 3103 2138 3103 
Q 1681 3103 1420 2742 
Q 1159 2381 1159 1747 
Q 1159 1113 1420 752 
Q 1681 391 2138 391 
Q 2594 391 2855 752 
Q 3116 1113 3116 1747 
z
" id="DejaVuSans-70" transform="scale(0.015625)"/>
      <path d="M 1959 3097 
Q 1497 3097 1228 2736 
Q 959 2375 959 1747 
Q 959 1119 1226 758 
Q 1494 397 1959 397 
Q 2419 397 2687 759 
Q 2956 1122 2956 1747 
Q 2956 2369 2687 2733 
Q 2419 3097 1959 3097 
z
M 1959 3584 
Q 2709 3584 3137 3096 
Q 3566 2609 3566 1747 
Q 3566 888 3137 398 
Q 2709 -91 1959 -91 
Q 1206 -91 779 398 
Q 353 888 353 1747 
Q 353 2609 779 3096 
Q 1206 3584 1959 3584 
z
" id="DejaVuSans-6f" transform="scale(0.015625)"/>
     </defs>
     <use xlink:href="#DejaVuSans-64"/>
     <use x="63.476562" xlink:href="#DejaVuSans-61"/>
     <use x="124.755859" xlink:href="#DejaVuSans-69"/>
     <use x="152.539062" xlink:href="#DejaVuSans-6c"/>
     <use x="180.322266" xlink:href="#DejaVuSans-79"/>
     <use x="239.501953" xlink:href="#DejaVuSans-5f"/>
     <use x="289.501953" xlink:href="#DejaVuSans-72"/>
     <use x="328.365234" xlink:href="#DejaVuSans-65"/>
     <use x="389.888672" xlink:href="#DejaVuSans-70"/>
     <use x="453.365234" xlink:href="#DejaVuSans-6f"/>
     <use x="514.546875" xlink:href="#DejaVuSans-72"/>
     <use x="555.660156" xlink:href="#DejaVuSans-74"/>
    </g>
   </g>
   <g id="legend_1">
    <g id="patch_7">
     <path d="M 64.6 271.48 
L 155.792188 271.48 
Q 157.792188 271.48 157.792188 269.48 
L 157.792188 197.089375 
Q 157.792188 195.089375 155.792188 195.089375 
L 64.6 195.089375 
Q 62.6 195.089375 62.6 197.089375 
L 62.6 269.48 
Q 62.6 271.48 64.6 271.48 
z
" style="fill:#ffffff;opacity:0.8;stroke:#cccccc;stroke-linejoin:miter;"/>
    </g>
    <g id="line2d_24">
     <path d="M 66.6 203.187812 
L 86.6 203.187812 
" style="fill:none;stroke:#0000ff;stroke-linecap:square;stroke-opacity:0.9;stroke-width:2;"/>
    </g>
    <g id="line2d_25"/>
    <g id="text_21">
     <!-- alpaca -->
     <g transform="translate(94.6 206.687812)scale(0.1 -0.1)">
      <defs>
       <path d="M 3122 3366 
L 3122 2828 
Q 2878 2963 2633 3030 
Q 2388 3097 2138 3097 
Q 1578 3097 1268 2742 
Q 959 2388 959 1747 
Q 959 1106 1268 751 
Q 1578 397 2138 397 
Q 2388 397 2633 464 
Q 2878 531 3122 666 
L 3122 134 
Q 2881 22 2623 -34 
Q 2366 -91 2075 -91 
Q 1284 -91 818 406 
Q 353 903 353 1747 
Q 353 2603 823 3093 
Q 1294 3584 2113 3584 
Q 2378 3584 2631 3529 
Q 2884 3475 3122 3366 
z
" id="DejaVuSans-63" transform="scale(0.015625)"/>
      </defs>
      <use xlink:href="#DejaVuSans-61"/>
      <use x="61.279297" xlink:href="#DejaVuSans-6c"/>
      <use x="89.0625" xlink:href="#DejaVuSans-70"/>
      <use x="152.539062" xlink:href="#DejaVuSans-61"/>
      <use x="213.818359" xlink:href="#DejaVuSans-63"/>
      <use x="268.798828" xlink:href="#DejaVuSans-61"/>
     </g>
    </g>
    <g id="line2d_26">
     <path d="M 66.6 217.865937 
L 86.6 217.865937 
" style="fill:none;stroke:#ff0000;stroke-linecap:square;stroke-opacity:0.9;stroke-width:2;"/>
    </g>
    <g id="line2d_27"/>
    <g id="text_22">
     <!-- mattress -->
     <g transform="translate(94.6 221.365937)scale(0.1 -0.1)">
      <defs>
       <path d="M 3328 2828 
Q 3544 3216 3844 3400 
Q 4144 3584 4550 3584 
Q 5097 3584 5394 3201 
Q 5691 2819 5691 2113 
L 5691 0 
L 5113 0 
L 5113 2094 
Q 5113 2597 4934 2840 
Q 4756 3084 4391 3084 
Q 3944 3084 3684 2787 
Q 3425 2491 3425 1978 
L 3425 0 
L 2847 0 
L 2847 2094 
Q 2847 2600 2669 2842 
Q 2491 3084 2119 3084 
Q 1678 3084 1418 2786 
Q 1159 2488 1159 1978 
L 1159 0 
L 581 0 
L 581 3500 
L 1159 3500 
L 1159 2956 
Q 1356 3278 1631 3431 
Q 1906 3584 2284 3584 
Q 2666 3584 2933 3390 
Q 3200 3197 3328 2828 
z
" id="DejaVuSans-6d" transform="scale(0.015625)"/>
       <path d="M 2834 3397 
L 2834 2853 
Q 2591 2978 2328 3040 
Q 2066 3103 1784 3103 
Q 1356 3103 1142 2972 
Q 928 2841 928 2578 
Q 928 2378 1081 2264 
Q 1234 2150 1697 2047 
L 1894 2003 
Q 2506 1872 2764 1633 
Q 3022 1394 3022 966 
Q 3022 478 2636 193 
Q 2250 -91 1575 -91 
Q 1294 -91 989 -36 
Q 684 19 347 128 
L 347 722 
Q 666 556 975 473 
Q 1284 391 1588 391 
Q 1994 391 2212 530 
Q 2431 669 2431 922 
Q 2431 1156 2273 1281 
Q 2116 1406 1581 1522 
L 1381 1569 
Q 847 1681 609 1914 
Q 372 2147 372 2553 
Q 372 3047 722 3315 
Q 1072 3584 1716 3584 
Q 2034 3584 2315 3537 
Q 2597 3491 2834 3397 
z
" id="DejaVuSans-73" transform="scale(0.015625)"/>
      </defs>
      <use xlink:href="#DejaVuSans-6d"/>
      <use x="97.412109" xlink:href="#DejaVuSans-61"/>
      <use x="158.691406" xlink:href="#DejaVuSans-74"/>
      <use x="197.900391" xlink:href="#DejaVuSans-74"/>
      <use x="237.109375" xlink:href="#DejaVuSans-72"/>
      <use x="275.972656" xlink:href="#DejaVuSans-65"/>
      <use x="337.496094" xlink:href="#DejaVuSans-73"/>
      <use x="389.595703" xlink:href="#DejaVuSans-73"/>
     </g>
    </g>
    <g id="line2d_28">
     <path d="M 66.6 232.544062 
L 86.6 232.544062 
" style="fill:none;stroke:#ff8040;stroke-linecap:square;stroke-opacity:0.9;stroke-width:2;"/>
    </g>
    <g id="line2d_29"/>
    <g id="text_23">
     <!-- trader-0850 -->
     <g transform="translate(94.6 236.044062)scale(0.1 -0.1)">
      <use xlink:href="#DejaVuSans-74"/>
      <use x="39.208984" xlink:href="#DejaVuSans-72"/>
      <use x="80.322266" xlink:href="#DejaVuSans-61"/>
      <use x="141.601562" xlink:href="#DejaVuSans-64"/>
      <use x="205.078125" xlink:href="#DejaVuSans-65"/>
      <use x="266.601562" xlink:href="#DejaVuSans-72"/>
      <use x="301.339844" xlink:href="#DejaVuSans-2d"/>
      <use x="337.423828" xlink:href="#DejaVuSans-30"/>
      <use x="401.046875" xlink:href="#DejaVuSans-38"/>
      <use x="464.669922" xlink:href="#DejaVuSans-35"/>
      <use x="528.292969" xlink:href="#DejaVuSans-30"/>
     </g>
    </g>
    <g id="line2d_30">
     <path d="M 66.6 247.222187 
L 86.6 247.222187 
" style="fill:none;stroke:#0d0d0d;stroke-linecap:square;stroke-opacity:0.25;stroke-width:2;"/>
    </g>
    <g id="line2d_31"/>
    <g id="text_24">
     <!-- rando-min -->
     <g transform="translate(94.6 250.722187)scale(0.1 -0.1)">
      <defs>
       <path d="M 3513 2113 
L 3513 0 
L 2938 0 
L 2938 2094 
Q 2938 2591 2744 2837 
Q 2550 3084 2163 3084 
Q 1697 3084 1428 2787 
Q 1159 2491 1159 1978 
L 1159 0 
L 581 0 
L 581 3500 
L 1159 3500 
L 1159 2956 
Q 1366 3272 1645 3428 
Q 1925 3584 2291 3584 
Q 2894 3584 3203 3211 
Q 3513 2838 3513 2113 
z
" id="DejaVuSans-6e" transform="scale(0.015625)"/>
      </defs>
      <use xlink:href="#DejaVuSans-72"/>
      <use x="41.113281" xlink:href="#DejaVuSans-61"/>
      <use x="102.392578" xlink:href="#DejaVuSans-6e"/>
      <use x="165.771484" xlink:href="#DejaVuSans-64"/>
      <use x="229.248047" xlink:href="#DejaVuSans-6f"/>
      <use x="292.304688" xlink:href="#DejaVuSans-2d"/>
      <use x="328.388672" xlink:href="#DejaVuSans-6d"/>
      <use x="425.800781" xlink:href="#DejaVuSans-69"/>
      <use x="453.583984" xlink:href="#DejaVuSans-6e"/>
     </g>
    </g>
    <g id="line2d_32">
     <path d="M 66.6 261.900312 
L 86.6 261.900312 
" style="fill:none;stroke:#0d0d0d;stroke-linecap:square;stroke-opacity:0.25;stroke-width:2;"/>
    </g>
    <g id="line2d_33"/>
    <g id="text_25">
     <!-- rando-max -->
     <g transform="translate(94.6 265.400312)scale(0.1 -0.1)">
      <defs>
       <path d="M 3513 3500 
L 2247 1797 
L 3578 0 
L 2900 0 
L 1881 1375 
L 863 0 
L 184 0 
L 1544 1831 
L 300 3500 
L 978 3500 
L 1906 2253 
L 2834 3500 
L 3513 3500 
z
" id="DejaVuSans-78" transform="scale(0.015625)"/>
      </defs>
      <use xlink:href="#DejaVuSans-72"/>
      <use x="41.113281" xlink:href="#DejaVuSans-61"/>
      <use x="102.392578" xlink:href="#DejaVuSans-6e"/>
      <use x="165.771484" xlink:href="#DejaVuSans-64"/>
      <use x="229.248047" xlink:href="#DejaVuSans-6f"/>
      <use x="292.304688" xlink:href="#DejaVuSans-2d"/>
      <use x="328.388672" xlink:href="#DejaVuSans-6d"/>
      <use x="425.800781" xlink:href="#DejaVuSans-61"/>
      <use x="487.080078" xlink:href="#DejaVuSans-78"/>
     </g>
    </g>
   </g>
  </g>
 </g>
 <defs>
  <clipPath id="p35eb1ca3c4">
   <rect height="235.008" width="357.12" x="57.6" y="41.472"/>
  </clipPath>
 </defs>
</svg>
