<?xml version="1.0" encoding="utf-8" standalone="no"?>
<!DOCTYPE svg PUBLIC "-//W3C//DTD SVG 1.1//EN"
  "http://www.w3.org/Graphics/SVG/1.1/DTD/svg11.dtd">
<svg height="345.6pt" version="1.1" viewBox="0 0 460.8 345.6" width="460.8pt" xmlns="http://www.w3.org/2000/svg" xmlns:xlink="http://www.w3.org/1999/xlink">
 <metadata>
  <rdf:RDF xmlns:cc="http://creativecommons.org/ns#" xmlns:dc="http://purl.org/dc/elements/1.1/" xmlns:rdf="http://www.w3.org/1999/02/22-rdf-syntax-ns#">
   <cc:Work>
    <dc:type rdf:resource="http://purl.org/dc/dcmitype/StillImage"/>
    <dc:date>2022-05-21T01:01:50.984219</dc:date>
    <dc:format>image/svg+xml</dc:format>
    <dc:creator>
     <cc:Agent>
      <dc:title>Matplotlib v3.4.3, https://matplotlib.org/</dc:title>
     </cc:Agent>
    </dc:creator>
   </cc:Work>
  </rdf:RDF>
 </metadata>
 <defs>
  <style type="text/css">*{stroke-linecap:butt;stroke-linejoin:round;}</style>
 </defs>
 <g id="figure_1">
  <g id="patch_1">
   <path d="M 0 345.6 
L 460.8 345.6 
L 460.8 0 
L 0 0 
z
" style="fill:#ffffff;"/>
  </g>
  <g id="axes_1">
   <g id="patch_2">
    <path d="M 57.6 276.48 
L 414.72 276.48 
L 414.72 41.472 
L 57.6 41.472 
z
" style="fill:#ffffff;"/>
   </g>
   <g id="matplotlib.axis_1">
    <g id="xtick_1">
     <g id="line2d_1">
      <defs>
       <path d="M 0 0 
L 0 3.5 
" id="m199e0e1cca" style="stroke:#000000;stroke-width:0.8;"/>
      </defs>
      <g>
       <use style="stroke:#000000;stroke-width:0.8;" x="84.654545" xlink:href="#m199e0e1cca" y="276.48"/>
      </g>
     </g>
     <g id="text_1">
      <!-- 2021-09 -->
      <g transform="translate(47.429725 310.951846)rotate(-30)scale(0.1 -0.1)">
       <defs>
        <path d="M 1228 531 
L 3431 531 
L 3431 0 
L 469 0 
L 469 531 
Q 828 903 1448 1529 
Q 2069 2156 2228 2338 
Q 2531 2678 2651 2914 
Q 2772 3150 2772 3378 
Q 2772 3750 2511 3984 
Q 2250 4219 1831 4219 
Q 1534 4219 1204 4116 
Q 875 4013 500 3803 
L 500 4441 
Q 881 4594 1212 4672 
Q 1544 4750 1819 4750 
Q 2544 4750 2975 4387 
Q 3406 4025 3406 3419 
Q 3406 3131 3298 2873 
Q 3191 2616 2906 2266 
Q 2828 2175 2409 1742 
Q 1991 1309 1228 531 
z
" id="DejaVuSans-32" transform="scale(0.015625)"/>
        <path d="M 2034 4250 
Q 1547 4250 1301 3770 
Q 1056 3291 1056 2328 
Q 1056 1369 1301 889 
Q 1547 409 2034 409 
Q 2525 409 2770 889 
Q 3016 1369 3016 2328 
Q 3016 3291 2770 3770 
Q 2525 4250 2034 4250 
z
M 2034 4750 
Q 2819 4750 3233 4129 
Q 3647 3509 3647 2328 
Q 3647 1150 3233 529 
Q 2819 -91 2034 -91 
Q 1250 -91 836 529 
Q 422 1150 422 2328 
Q 422 3509 836 4129 
Q 1250 4750 2034 4750 
z
" id="DejaVuSans-30" transform="scale(0.015625)"/>
        <path d="M 794 531 
L 1825 531 
L 1825 4091 
L 703 3866 
L 703 4441 
L 1819 4666 
L 2450 4666 
L 2450 531 
L 3481 531 
L 3481 0 
L 794 0 
L 794 531 
z
" id="DejaVuSans-31" transform="scale(0.015625)"/>
        <path d="M 313 2009 
L 1997 2009 
L 1997 1497 
L 313 1497 
L 313 2009 
z
" id="DejaVuSans-2d" transform="scale(0.015625)"/>
        <path d="M 703 97 
L 703 672 
Q 941 559 1184 500 
Q 1428 441 1663 441 
Q 2288 441 2617 861 
Q 2947 1281 2994 2138 
Q 2813 1869 2534 1725 
Q 2256 1581 1919 1581 
Q 1219 1581 811 2004 
Q 403 2428 403 3163 
Q 403 3881 828 4315 
Q 1253 4750 1959 4750 
Q 2769 4750 3195 4129 
Q 3622 3509 3622 2328 
Q 3622 1225 3098 567 
Q 2575 -91 1691 -91 
Q 1453 -91 1209 -44 
Q 966 3 703 97 
z
M 1959 2075 
Q 2384 2075 2632 2365 
Q 2881 2656 2881 3163 
Q 2881 3666 2632 3958 
Q 2384 4250 1959 4250 
Q 1534 4250 1286 3958 
Q 1038 3666 1038 3163 
Q 1038 2656 1286 2365 
Q 1534 2075 1959 2075 
z
" id="DejaVuSans-39" transform="scale(0.015625)"/>
       </defs>
       <use xlink:href="#DejaVuSans-32"/>
       <use x="63.623047" xlink:href="#DejaVuSans-30"/>
       <use x="127.246094" xlink:href="#DejaVuSans-32"/>
       <use x="190.869141" xlink:href="#DejaVuSans-31"/>
       <use x="254.492188" xlink:href="#DejaVuSans-2d"/>
       <use x="290.576172" xlink:href="#DejaVuSans-30"/>
       <use x="354.199219" xlink:href="#DejaVuSans-39"/>
      </g>
     </g>
    </g>
    <g id="xtick_2">
     <g id="line2d_2">
      <g>
       <use style="stroke:#000000;stroke-width:0.8;" x="120.727273" xlink:href="#m199e0e1cca" y="276.48"/>
      </g>
     </g>
     <g id="text_2">
      <!-- 2021-10 -->
      <g transform="translate(83.502452 310.951846)rotate(-30)scale(0.1 -0.1)">
       <use xlink:href="#DejaVuSans-32"/>
       <use x="63.623047" xlink:href="#DejaVuSans-30"/>
       <use x="127.246094" xlink:href="#DejaVuSans-32"/>
       <use x="190.869141" xlink:href="#DejaVuSans-31"/>
       <use x="254.492188" xlink:href="#DejaVuSans-2d"/>
       <use x="290.576172" xlink:href="#DejaVuSans-31"/>
       <use x="354.199219" xlink:href="#DejaVuSans-30"/>
      </g>
     </g>
    </g>
    <g id="xtick_3">
     <g id="line2d_3">
      <g>
       <use style="stroke:#000000;stroke-width:0.8;" x="158.002424" xlink:href="#m199e0e1cca" y="276.48"/>
      </g>
     </g>
     <g id="text_3">
      <!-- 2021-11 -->
      <g transform="translate(120.777603 310.951846)rotate(-30)scale(0.1 -0.1)">
       <use xlink:href="#DejaVuSans-32"/>
       <use x="63.623047" xlink:href="#DejaVuSans-30"/>
       <use x="127.246094" xlink:href="#DejaVuSans-32"/>
       <use x="190.869141" xlink:href="#DejaVuSans-31"/>
       <use x="254.492188" xlink:href="#DejaVuSans-2d"/>
       <use x="290.576172" xlink:href="#DejaVuSans-31"/>
       <use x="354.199219" xlink:href="#DejaVuSans-31"/>
      </g>
     </g>
    </g>
    <g id="xtick_4">
     <g id="line2d_4">
      <g>
       <use style="stroke:#000000;stroke-width:0.8;" x="194.075152" xlink:href="#m199e0e1cca" y="276.48"/>
      </g>
     </g>
     <g id="text_4">
      <!-- 2021-12 -->
      <g transform="translate(156.850331 310.951846)rotate(-30)scale(0.1 -0.1)">
       <use xlink:href="#DejaVuSans-32"/>
       <use x="63.623047" xlink:href="#DejaVuSans-30"/>
       <use x="127.246094" xlink:href="#DejaVuSans-32"/>
       <use x="190.869141" xlink:href="#DejaVuSans-31"/>
       <use x="254.492188" xlink:href="#DejaVuSans-2d"/>
       <use x="290.576172" xlink:href="#DejaVuSans-31"/>
       <use x="354.199219" xlink:href="#DejaVuSans-32"/>
      </g>
     </g>
    </g>
    <g id="xtick_5">
     <g id="line2d_5">
      <g>
       <use style="stroke:#000000;stroke-width:0.8;" x="231.350303" xlink:href="#m199e0e1cca" y="276.48"/>
      </g>
     </g>
     <g id="text_5">
      <!-- 2022-01 -->
      <g transform="translate(194.125482 310.951846)rotate(-30)scale(0.1 -0.1)">
       <use xlink:href="#DejaVuSans-32"/>
       <use x="63.623047" xlink:href="#DejaVuSans-30"/>
       <use x="127.246094" xlink:href="#DejaVuSans-32"/>
       <use x="190.869141" xlink:href="#DejaVuSans-32"/>
       <use x="254.492188" xlink:href="#DejaVuSans-2d"/>
       <use x="290.576172" xlink:href="#DejaVuSans-30"/>
       <use x="354.199219" xlink:href="#DejaVuSans-31"/>
      </g>
     </g>
    </g>
    <g id="xtick_6">
     <g id="line2d_6">
      <g>
       <use style="stroke:#000000;stroke-width:0.8;" x="268.625455" xlink:href="#m199e0e1cca" y="276.48"/>
      </g>
     </g>
     <g id="text_6">
      <!-- 2022-02 -->
      <g transform="translate(231.400634 310.951846)rotate(-30)scale(0.1 -0.1)">
       <use xlink:href="#DejaVuSans-32"/>
       <use x="63.623047" xlink:href="#DejaVuSans-30"/>
       <use x="127.246094" xlink:href="#DejaVuSans-32"/>
       <use x="190.869141" xlink:href="#DejaVuSans-32"/>
       <use x="254.492188" xlink:href="#DejaVuSans-2d"/>
       <use x="290.576172" xlink:href="#DejaVuSans-30"/>
       <use x="354.199219" xlink:href="#DejaVuSans-32"/>
      </g>
     </g>
    </g>
    <g id="xtick_7">
     <g id="line2d_7">
      <g>
       <use style="stroke:#000000;stroke-width:0.8;" x="302.293333" xlink:href="#m199e0e1cca" y="276.48"/>
      </g>
     </g>
     <g id="text_7">
      <!-- 2022-03 -->
      <g transform="translate(265.068513 310.951846)rotate(-30)scale(0.1 -0.1)">
       <defs>
        <path d="M 2597 2516 
Q 3050 2419 3304 2112 
Q 3559 1806 3559 1356 
Q 3559 666 3084 287 
Q 2609 -91 1734 -91 
Q 1441 -91 1130 -33 
Q 819 25 488 141 
L 488 750 
Q 750 597 1062 519 
Q 1375 441 1716 441 
Q 2309 441 2620 675 
Q 2931 909 2931 1356 
Q 2931 1769 2642 2001 
Q 2353 2234 1838 2234 
L 1294 2234 
L 1294 2753 
L 1863 2753 
Q 2328 2753 2575 2939 
Q 2822 3125 2822 3475 
Q 2822 3834 2567 4026 
Q 2313 4219 1838 4219 
Q 1578 4219 1281 4162 
Q 984 4106 628 3988 
L 628 4550 
Q 988 4650 1302 4700 
Q 1616 4750 1894 4750 
Q 2613 4750 3031 4423 
Q 3450 4097 3450 3541 
Q 3450 3153 3228 2886 
Q 3006 2619 2597 2516 
z
" id="DejaVuSans-33" transform="scale(0.015625)"/>
       </defs>
       <use xlink:href="#DejaVuSans-32"/>
       <use x="63.623047" xlink:href="#DejaVuSans-30"/>
       <use x="127.246094" xlink:href="#DejaVuSans-32"/>
       <use x="190.869141" xlink:href="#DejaVuSans-32"/>
       <use x="254.492188" xlink:href="#DejaVuSans-2d"/>
       <use x="290.576172" xlink:href="#DejaVuSans-30"/>
       <use x="354.199219" xlink:href="#DejaVuSans-33"/>
      </g>
     </g>
    </g>
    <g id="xtick_8">
     <g id="line2d_8">
      <g>
       <use style="stroke:#000000;stroke-width:0.8;" x="339.568485" xlink:href="#m199e0e1cca" y="276.48"/>
      </g>
     </g>
     <g id="text_8">
      <!-- 2022-04 -->
      <g transform="translate(302.343664 310.951846)rotate(-30)scale(0.1 -0.1)">
       <defs>
        <path d="M 2419 4116 
L 825 1625 
L 2419 1625 
L 2419 4116 
z
M 2253 4666 
L 3047 4666 
L 3047 1625 
L 3713 1625 
L 3713 1100 
L 3047 1100 
L 3047 0 
L 2419 0 
L 2419 1100 
L 313 1100 
L 313 1709 
L 2253 4666 
z
" id="DejaVuSans-34" transform="scale(0.015625)"/>
       </defs>
       <use xlink:href="#DejaVuSans-32"/>
       <use x="63.623047" xlink:href="#DejaVuSans-30"/>
       <use x="127.246094" xlink:href="#DejaVuSans-32"/>
       <use x="190.869141" xlink:href="#DejaVuSans-32"/>
       <use x="254.492188" xlink:href="#DejaVuSans-2d"/>
       <use x="290.576172" xlink:href="#DejaVuSans-30"/>
       <use x="354.199219" xlink:href="#DejaVuSans-34"/>
      </g>
     </g>
    </g>
    <g id="xtick_9">
     <g id="line2d_9">
      <g>
       <use style="stroke:#000000;stroke-width:0.8;" x="375.641212" xlink:href="#m199e0e1cca" y="276.48"/>
      </g>
     </g>
     <g id="text_9">
      <!-- 2022-05 -->
      <g transform="translate(338.416391 310.951846)rotate(-30)scale(0.1 -0.1)">
       <defs>
        <path d="M 691 4666 
L 3169 4666 
L 3169 4134 
L 1269 4134 
L 1269 2991 
Q 1406 3038 1543 3061 
Q 1681 3084 1819 3084 
Q 2600 3084 3056 2656 
Q 3513 2228 3513 1497 
Q 3513 744 3044 326 
Q 2575 -91 1722 -91 
Q 1428 -91 1123 -41 
Q 819 9 494 109 
L 494 744 
Q 775 591 1075 516 
Q 1375 441 1709 441 
Q 2250 441 2565 725 
Q 2881 1009 2881 1497 
Q 2881 1984 2565 2268 
Q 2250 2553 1709 2553 
Q 1456 2553 1204 2497 
Q 953 2441 691 2322 
L 691 4666 
z
" id="DejaVuSans-35" transform="scale(0.015625)"/>
       </defs>
       <use xlink:href="#DejaVuSans-32"/>
       <use x="63.623047" xlink:href="#DejaVuSans-30"/>
       <use x="127.246094" xlink:href="#DejaVuSans-32"/>
       <use x="190.869141" xlink:href="#DejaVuSans-32"/>
       <use x="254.492188" xlink:href="#DejaVuSans-2d"/>
       <use x="290.576172" xlink:href="#DejaVuSans-30"/>
       <use x="354.199219" xlink:href="#DejaVuSans-35"/>
      </g>
     </g>
    </g>
    <g id="xtick_10">
     <g id="line2d_10">
      <g>
       <use style="stroke:#000000;stroke-width:0.8;" x="412.916364" xlink:href="#m199e0e1cca" y="276.48"/>
      </g>
     </g>
     <g id="text_10">
      <!-- 2022-06 -->
      <g transform="translate(375.691543 310.951846)rotate(-30)scale(0.1 -0.1)">
       <defs>
        <path d="M 2113 2584 
Q 1688 2584 1439 2293 
Q 1191 2003 1191 1497 
Q 1191 994 1439 701 
Q 1688 409 2113 409 
Q 2538 409 2786 701 
Q 3034 994 3034 1497 
Q 3034 2003 2786 2293 
Q 2538 2584 2113 2584 
z
M 3366 4563 
L 3366 3988 
Q 3128 4100 2886 4159 
Q 2644 4219 2406 4219 
Q 1781 4219 1451 3797 
Q 1122 3375 1075 2522 
Q 1259 2794 1537 2939 
Q 1816 3084 2150 3084 
Q 2853 3084 3261 2657 
Q 3669 2231 3669 1497 
Q 3669 778 3244 343 
Q 2819 -91 2113 -91 
Q 1303 -91 875 529 
Q 447 1150 447 2328 
Q 447 3434 972 4092 
Q 1497 4750 2381 4750 
Q 2619 4750 2861 4703 
Q 3103 4656 3366 4563 
z
" id="DejaVuSans-36" transform="scale(0.015625)"/>
       </defs>
       <use xlink:href="#DejaVuSans-32"/>
       <use x="63.623047" xlink:href="#DejaVuSans-30"/>
       <use x="127.246094" xlink:href="#DejaVuSans-32"/>
       <use x="190.869141" xlink:href="#DejaVuSans-32"/>
       <use x="254.492188" xlink:href="#DejaVuSans-2d"/>
       <use x="290.576172" xlink:href="#DejaVuSans-30"/>
       <use x="354.199219" xlink:href="#DejaVuSans-36"/>
      </g>
     </g>
    </g>
    <g id="text_11">
     <!-- date -->
     <g transform="translate(224.885 324.351346)scale(0.1 -0.1)">
      <defs>
       <path d="M 2906 2969 
L 2906 4863 
L 3481 4863 
L 3481 0 
L 2906 0 
L 2906 525 
Q 2725 213 2448 61 
Q 2172 -91 1784 -91 
Q 1150 -91 751 415 
Q 353 922 353 1747 
Q 353 2572 751 3078 
Q 1150 3584 1784 3584 
Q 2172 3584 2448 3432 
Q 2725 3281 2906 2969 
z
M 947 1747 
Q 947 1113 1208 752 
Q 1469 391 1925 391 
Q 2381 391 2643 752 
Q 2906 1113 2906 1747 
Q 2906 2381 2643 2742 
Q 2381 3103 1925 3103 
Q 1469 3103 1208 2742 
Q 947 2381 947 1747 
z
" id="DejaVuSans-64" transform="scale(0.015625)"/>
       <path d="M 2194 1759 
Q 1497 1759 1228 1600 
Q 959 1441 959 1056 
Q 959 750 1161 570 
Q 1363 391 1709 391 
Q 2188 391 2477 730 
Q 2766 1069 2766 1631 
L 2766 1759 
L 2194 1759 
z
M 3341 1997 
L 3341 0 
L 2766 0 
L 2766 531 
Q 2569 213 2275 61 
Q 1981 -91 1556 -91 
Q 1019 -91 701 211 
Q 384 513 384 1019 
Q 384 1609 779 1909 
Q 1175 2209 1959 2209 
L 2766 2209 
L 2766 2266 
Q 2766 2663 2505 2880 
Q 2244 3097 1772 3097 
Q 1472 3097 1187 3025 
Q 903 2953 641 2809 
L 641 3341 
Q 956 3463 1253 3523 
Q 1550 3584 1831 3584 
Q 2591 3584 2966 3190 
Q 3341 2797 3341 1997 
z
" id="DejaVuSans-61" transform="scale(0.015625)"/>
       <path d="M 1172 4494 
L 1172 3500 
L 2356 3500 
L 2356 3053 
L 1172 3053 
L 1172 1153 
Q 1172 725 1289 603 
Q 1406 481 1766 481 
L 2356 481 
L 2356 0 
L 1766 0 
Q 1100 0 847 248 
Q 594 497 594 1153 
L 594 3053 
L 172 3053 
L 172 3500 
L 594 3500 
L 594 4494 
L 1172 4494 
z
" id="DejaVuSans-74" transform="scale(0.015625)"/>
       <path d="M 3597 1894 
L 3597 1613 
L 953 1613 
Q 991 1019 1311 708 
Q 1631 397 2203 397 
Q 2534 397 2845 478 
Q 3156 559 3463 722 
L 3463 178 
Q 3153 47 2828 -22 
Q 2503 -91 2169 -91 
Q 1331 -91 842 396 
Q 353 884 353 1716 
Q 353 2575 817 3079 
Q 1281 3584 2069 3584 
Q 2775 3584 3186 3129 
Q 3597 2675 3597 1894 
z
M 3022 2063 
Q 3016 2534 2758 2815 
Q 2500 3097 2075 3097 
Q 1594 3097 1305 2825 
Q 1016 2553 972 2059 
L 3022 2063 
z
" id="DejaVuSans-65" transform="scale(0.015625)"/>
      </defs>
      <use xlink:href="#DejaVuSans-64"/>
      <use x="63.476562" xlink:href="#DejaVuSans-61"/>
      <use x="124.755859" xlink:href="#DejaVuSans-74"/>
      <use x="163.964844" xlink:href="#DejaVuSans-65"/>
     </g>
    </g>
   </g>
   <g id="matplotlib.axis_2">
    <g id="ytick_1">
     <g id="line2d_11">
      <defs>
       <path d="M 0 0 
L -3.5 0 
" id="me87309464c" style="stroke:#000000;stroke-width:0.8;"/>
      </defs>
      <g>
       <use style="stroke:#000000;stroke-width:0.8;" x="57.6" xlink:href="#me87309464c" y="250.367598"/>
      </g>
     </g>
     <g id="text_12">
      <!-- 80000 -->
      <g transform="translate(18.7875 254.166817)scale(0.1 -0.1)">
       <defs>
        <path d="M 2034 2216 
Q 1584 2216 1326 1975 
Q 1069 1734 1069 1313 
Q 1069 891 1326 650 
Q 1584 409 2034 409 
Q 2484 409 2743 651 
Q 3003 894 3003 1313 
Q 3003 1734 2745 1975 
Q 2488 2216 2034 2216 
z
M 1403 2484 
Q 997 2584 770 2862 
Q 544 3141 544 3541 
Q 544 4100 942 4425 
Q 1341 4750 2034 4750 
Q 2731 4750 3128 4425 
Q 3525 4100 3525 3541 
Q 3525 3141 3298 2862 
Q 3072 2584 2669 2484 
Q 3125 2378 3379 2068 
Q 3634 1759 3634 1313 
Q 3634 634 3220 271 
Q 2806 -91 2034 -91 
Q 1263 -91 848 271 
Q 434 634 434 1313 
Q 434 1759 690 2068 
Q 947 2378 1403 2484 
z
M 1172 3481 
Q 1172 3119 1398 2916 
Q 1625 2713 2034 2713 
Q 2441 2713 2670 2916 
Q 2900 3119 2900 3481 
Q 2900 3844 2670 4047 
Q 2441 4250 2034 4250 
Q 1625 4250 1398 4047 
Q 1172 3844 1172 3481 
z
" id="DejaVuSans-38" transform="scale(0.015625)"/>
       </defs>
       <use xlink:href="#DejaVuSans-38"/>
       <use x="63.623047" xlink:href="#DejaVuSans-30"/>
       <use x="127.246094" xlink:href="#DejaVuSans-30"/>
       <use x="190.869141" xlink:href="#DejaVuSans-30"/>
       <use x="254.492188" xlink:href="#DejaVuSans-30"/>
      </g>
     </g>
    </g>
    <g id="ytick_2">
     <g id="line2d_12">
      <g>
       <use style="stroke:#000000;stroke-width:0.8;" x="57.6" xlink:href="#me87309464c" y="224.166195"/>
      </g>
     </g>
     <g id="text_13">
      <!-- 85000 -->
      <g transform="translate(18.7875 227.965414)scale(0.1 -0.1)">
       <use xlink:href="#DejaVuSans-38"/>
       <use x="63.623047" xlink:href="#DejaVuSans-35"/>
       <use x="127.246094" xlink:href="#DejaVuSans-30"/>
       <use x="190.869141" xlink:href="#DejaVuSans-30"/>
       <use x="254.492188" xlink:href="#DejaVuSans-30"/>
      </g>
     </g>
    </g>
    <g id="ytick_3">
     <g id="line2d_13">
      <g>
       <use style="stroke:#000000;stroke-width:0.8;" x="57.6" xlink:href="#me87309464c" y="197.964792"/>
      </g>
     </g>
     <g id="text_14">
      <!-- 90000 -->
      <g transform="translate(18.7875 201.764011)scale(0.1 -0.1)">
       <use xlink:href="#DejaVuSans-39"/>
       <use x="63.623047" xlink:href="#DejaVuSans-30"/>
       <use x="127.246094" xlink:href="#DejaVuSans-30"/>
       <use x="190.869141" xlink:href="#DejaVuSans-30"/>
       <use x="254.492188" xlink:href="#DejaVuSans-30"/>
      </g>
     </g>
    </g>
    <g id="ytick_4">
     <g id="line2d_14">
      <g>
       <use style="stroke:#000000;stroke-width:0.8;" x="57.6" xlink:href="#me87309464c" y="171.763389"/>
      </g>
     </g>
     <g id="text_15">
      <!-- 95000 -->
      <g transform="translate(18.7875 175.562608)scale(0.1 -0.1)">
       <use xlink:href="#DejaVuSans-39"/>
       <use x="63.623047" xlink:href="#DejaVuSans-35"/>
       <use x="127.246094" xlink:href="#DejaVuSans-30"/>
       <use x="190.869141" xlink:href="#DejaVuSans-30"/>
       <use x="254.492188" xlink:href="#DejaVuSans-30"/>
      </g>
     </g>
    </g>
    <g id="ytick_5">
     <g id="line2d_15">
      <g>
       <use style="stroke:#000000;stroke-width:0.8;" x="57.6" xlink:href="#me87309464c" y="145.561986"/>
      </g>
     </g>
     <g id="text_16">
      <!-- 100000 -->
      <g transform="translate(12.425 149.361205)scale(0.1 -0.1)">
       <use xlink:href="#DejaVuSans-31"/>
       <use x="63.623047" xlink:href="#DejaVuSans-30"/>
       <use x="127.246094" xlink:href="#DejaVuSans-30"/>
       <use x="190.869141" xlink:href="#DejaVuSans-30"/>
       <use x="254.492188" xlink:href="#DejaVuSans-30"/>
       <use x="318.115234" xlink:href="#DejaVuSans-30"/>
      </g>
     </g>
    </g>
    <g id="ytick_6">
     <g id="line2d_16">
      <g>
       <use style="stroke:#000000;stroke-width:0.8;" x="57.6" xlink:href="#me87309464c" y="119.360583"/>
      </g>
     </g>
     <g id="text_17">
      <!-- 105000 -->
      <g transform="translate(12.425 123.159802)scale(0.1 -0.1)">
       <use xlink:href="#DejaVuSans-31"/>
       <use x="63.623047" xlink:href="#DejaVuSans-30"/>
       <use x="127.246094" xlink:href="#DejaVuSans-35"/>
       <use x="190.869141" xlink:href="#DejaVuSans-30"/>
       <use x="254.492188" xlink:href="#DejaVuSans-30"/>
       <use x="318.115234" xlink:href="#DejaVuSans-30"/>
      </g>
     </g>
    </g>
    <g id="ytick_7">
     <g id="line2d_17">
      <g>
       <use style="stroke:#000000;stroke-width:0.8;" x="57.6" xlink:href="#me87309464c" y="93.159181"/>
      </g>
     </g>
     <g id="text_18">
      <!-- 110000 -->
      <g transform="translate(12.425 96.958399)scale(0.1 -0.1)">
       <use xlink:href="#DejaVuSans-31"/>
       <use x="63.623047" xlink:href="#DejaVuSans-31"/>
       <use x="127.246094" xlink:href="#DejaVuSans-30"/>
       <use x="190.869141" xlink:href="#DejaVuSans-30"/>
       <use x="254.492188" xlink:href="#DejaVuSans-30"/>
       <use x="318.115234" xlink:href="#DejaVuSans-30"/>
      </g>
     </g>
    </g>
    <g id="ytick_8">
     <g id="line2d_18">
      <g>
       <use style="stroke:#000000;stroke-width:0.8;" x="57.6" xlink:href="#me87309464c" y="66.957778"/>
      </g>
     </g>
     <g id="text_19">
      <!-- 115000 -->
      <g transform="translate(12.425 70.756996)scale(0.1 -0.1)">
       <use xlink:href="#DejaVuSans-31"/>
       <use x="63.623047" xlink:href="#DejaVuSans-31"/>
       <use x="127.246094" xlink:href="#DejaVuSans-35"/>
       <use x="190.869141" xlink:href="#DejaVuSans-30"/>
       <use x="254.492188" xlink:href="#DejaVuSans-30"/>
       <use x="318.115234" xlink:href="#DejaVuSans-30"/>
      </g>
     </g>
    </g>
   </g>
   <g id="line2d_19">
    <path clip-path="url(#p034e978df0)" d="M 73.832727 145.561986 
L 75.035152 145.665862 
L 76.237576 143.54675 
L 77.44 146.755659 
L 78.642424 141.385293 
L 82.249697 138.158963 
L 83.452121 137.341024 
L 84.654545 138.887696 
L 85.85697 138.27764 
L 87.059394 138.062412 
L 91.869091 138.545357 
L 93.071515 140.459763 
L 94.273939 141.981739 
L 95.476364 146.280239 
L 99.083636 142.226997 
L 100.286061 149.856365 
L 101.488485 146.499349 
L 102.690909 147.40979 
L 103.893333 152.877913 
L 107.500606 161.714063 
L 108.70303 163.244193 
L 109.905455 159.080749 
L 111.107879 150.774382 
L 112.310303 146.661644 
L 115.917576 142.367147 
L 117.12 153.983909 
L 118.322424 152.142094 
L 119.524848 155.886766 
L 120.727273 148.203315 
L 124.334545 157.817857 
L 125.53697 150.056403 
L 126.739394 148.425708 
L 127.941818 148.209398 
L 129.144242 147.531892 
L 132.751515 146.609182 
L 133.953939 146.038496 
L 135.156364 152.84534 
L 136.358788 142.385173 
L 137.561212 141.542598 
L 141.168485 137.55159 
L 142.370909 132.136606 
L 143.573333 130.217532 
L 144.775758 139.245484 
L 145.978182 145.898559 
L 149.585455 145.889325 
L 150.787879 150.436119 
L 151.990303 151.584299 
L 153.192727 144.771732 
L 154.395152 151.763269 
L 158.002424 141.173749 
L 159.204848 141.186799 
L 160.407273 136.076821 
L 161.609697 142.211301 
L 162.812121 139.156022 
L 166.419394 138.40509 
L 167.621818 144.75583 
L 168.824242 144.981891 
L 170.026667 149.258246 
L 171.229091 144.905006 
L 174.836364 143.50549 
L 176.038788 143.570877 
L 177.241212 146.068344 
L 178.443636 147.400178 
L 179.646061 148.135053 
L 183.253333 144.505712 
L 184.455758 140.301881 
L 185.658182 140.59828 
L 188.06303 140.939801 
L 191.670303 145.583215 
L 192.872727 155.572168 
L 194.075152 162.736488 
L 195.277576 156.093506 
L 196.48 159.590326 
L 200.087273 149.774179 
L 201.289697 140.50938 
L 202.492121 136.355648 
L 203.694545 136.170377 
L 204.89697 134.318697 
L 208.504242 139.47281 
L 209.706667 137.125766 
L 210.909091 134.255837 
L 212.111515 131.679977 
L 213.313939 137.98032 
L 216.921212 145.396393 
L 218.123636 133.299098 
L 219.326061 130.533159 
L 220.528485 125.758254 
L 225.338182 119.217676 
L 226.540606 119.414433 
L 227.74303 119.076791 
L 228.945455 119.966168 
L 230.147879 122.802387 
L 233.755152 114.307858 
L 234.957576 107.342609 
L 236.16 121.784464 
L 237.362424 117.151027 
L 238.564848 115.174405 
L 242.172121 114.487363 
L 243.374545 109.683216 
L 244.57697 109.051545 
L 245.779394 115.334006 
L 246.981818 114.073986 
L 251.791515 125.624945 
L 252.993939 128.871275 
L 254.196364 134.804906 
L 255.398788 147.350482 
L 259.006061 146.319367 
L 260.208485 152.555034 
L 261.410909 152.573491 
L 262.613333 155.748168 
L 263.815758 142.74894 
L 267.42303 131.559539 
L 268.625455 126.182456 
L 269.827879 118.202957 
L 271.030303 153.272978 
L 272.232727 153.197535 
L 275.84 161.881368 
L 277.042424 163.265833 
L 278.244848 151.875384 
L 279.447273 160.894685 
L 280.649697 172.523768 
L 284.25697 175.752718 
L 285.459394 169.767624 
L 286.661818 172.445747 
L 287.864242 181.541294 
L 289.066667 184.563648 
L 293.876364 190.004913 
L 295.078788 196.705674 
L 296.281212 185.797533 
L 297.483636 176.979746 
L 301.090909 178.8922 
L 302.293333 186.466081 
L 303.495758 176.404359 
L 304.698182 177.984061 
L 305.900606 181.619738 
L 309.507879 201.801154 
L 310.710303 201.911032 
L 311.912727 182.682461 
L 313.115152 188.768386 
L 314.317576 197.076173 
L 317.924848 198.999112 
L 319.127273 189.842101 
L 320.329697 174.536311 
L 321.532121 168.606112 
L 322.734545 160.004949 
L 326.341818 161.690027 
L 327.544242 152.171828 
L 328.746667 157.676603 
L 329.949091 148.781081 
L 331.151515 143.835829 
L 334.758788 142.187262 
L 335.961212 137.392869 
L 337.163636 139.13621 
L 338.366061 150.851177 
L 339.568485 148.682097 
L 343.175758 142.516593 
L 344.378182 148.08285 
L 345.580606 156.405905 
L 346.78303 157.242818 
L 347.985455 158.26514 
L 352.795152 170.934632 
L 353.997576 168.343596 
L 355.2 177.804186 
L 360.009697 174.330942 
L 361.212121 165.31667 
L 362.414545 171.709365 
L 363.61697 183.0161 
L 364.819394 198.422759 
L 368.426667 194.487188 
L 369.629091 203.02401 
L 370.831515 208.573441 
L 372.033939 178.376932 
L 373.236364 193.492604 
L 376.843636 186.412124 
L 378.046061 182.245849 
L 379.248485 161.480664 
L 380.450909 184.141806 
L 381.653333 186.154955 
L 385.260606 199.474042 
L 386.46303 197.747013 
L 387.665455 206.788972 
L 388.867879 210.297584 
L 390.070303 199.024356 
L 393.677576 202.393629 
L 394.88 193.313949 
L 396.082424 212.256284 
L 397.284848 217.413398 
L 398.487273 226.388297 
L 398.487273 226.388297 
" style="fill:none;stroke:#0000ff;stroke-linecap:square;stroke-opacity:0.9;stroke-width:2;"/>
   </g>
   <g id="line2d_20">
    <path clip-path="url(#p034e978df0)" d="M 73.832727 145.561986 
L 75.035152 142.740524 
L 76.237576 140.374047 
L 77.44 143.57119 
L 78.642424 137.434418 
L 82.249697 135.561848 
L 83.452121 134.67082 
L 84.654545 134.734783 
L 85.85697 135.362249 
L 87.059394 135.100988 
L 91.869091 134.29687 
L 93.071515 136.309069 
L 94.273939 137.61266 
L 95.476364 142.955 
L 99.083636 139.242237 
L 100.286061 144.42872 
L 101.488485 141.799844 
L 102.690909 143.595973 
L 103.893333 149.826896 
L 107.500606 158.72799 
L 108.70303 158.645183 
L 109.905455 155.728842 
L 111.107879 149.195866 
L 112.310303 145.31026 
L 115.917576 141.8724 
L 117.12 151.987088 
L 118.322424 151.467272 
L 119.524848 156.718813 
L 120.727273 148.956892 
L 124.334545 154.760365 
L 125.53697 147.207155 
L 126.739394 145.589331 
L 127.941818 144.521333 
L 129.144242 142.044882 
L 132.751515 145.14239 
L 133.953939 149.023842 
L 135.156364 150.534437 
L 136.358788 137.673373 
L 137.561212 133.972759 
L 141.168485 133.075854 
L 142.370909 128.066746 
L 143.573333 125.150935 
L 144.775758 132.601903 
L 145.978182 134.988473 
L 149.585455 136.854997 
L 150.787879 139.177861 
L 151.990303 142.452438 
L 153.192727 135.004927 
L 154.395152 133.88425 
L 158.002424 133.879264 
L 159.204848 131.756978 
L 160.407273 127.545275 
L 161.609697 128.741354 
L 162.812121 128.649251 
L 166.419394 128.104798 
L 167.621818 132.367693 
L 168.824242 135.256636 
L 170.026667 135.257331 
L 171.229091 131.75567 
L 174.836364 130.362111 
L 176.038788 131.380921 
L 177.241212 131.818368 
L 178.443636 131.859891 
L 179.646061 134.050373 
L 183.253333 131.853327 
L 184.455758 126.443878 
L 185.658182 125.923683 
L 188.06303 140.147445 
L 191.670303 134.146312 
L 192.872727 145.652188 
L 194.075152 151.704458 
L 195.277576 144.527267 
L 196.48 148.874431 
L 200.087273 140.805323 
L 201.289697 131.679924 
L 202.492121 128.701084 
L 203.694545 129.245343 
L 204.89697 125.783984 
L 208.504242 131.280445 
L 209.706667 130.999491 
L 210.909091 126.419703 
L 212.111515 126.521808 
L 213.313939 133.480673 
L 216.921212 139.303948 
L 218.123636 129.263209 
L 219.326061 126.114468 
L 220.528485 121.770132 
L 225.338182 114.827129 
L 226.540606 114.907867 
L 227.74303 114.455865 
L 228.945455 115.241968 
L 230.147879 117.609941 
L 233.755152 111.43143 
L 234.957576 105.901054 
L 236.16 118.161201 
L 237.362424 115.772945 
L 238.564848 112.90092 
L 242.172121 113.371058 
L 243.374545 110.235232 
L 244.57697 110.299466 
L 245.779394 114.581913 
L 246.981818 114.521667 
L 251.791515 126.850035 
L 254.196364 137.078205 
L 255.398788 148.26117 
L 259.006061 149.010703 
L 260.208485 147.722764 
L 261.410909 148.736798 
L 262.613333 153.18901 
L 263.815758 140.622936 
L 267.42303 132.330423 
L 268.625455 125.753824 
L 269.827879 117.541264 
L 271.030303 141.519484 
L 272.232727 137.691943 
L 275.84 141.152673 
L 277.042424 137.607404 
L 278.244848 132.735193 
L 279.447273 141.531404 
L 280.649697 152.262613 
L 284.25697 157.022133 
L 285.459394 150.925804 
L 286.661818 152.094961 
L 287.864242 162.112867 
L 289.066667 164.844784 
L 293.876364 169.041373 
L 295.078788 176.001227 
L 296.281212 173.390793 
L 297.483636 161.368899 
L 301.090909 166.494935 
L 302.293333 176.571383 
L 303.495758 164.8484 
L 304.698182 166.180775 
L 305.900606 173.611008 
L 309.507879 190.872337 
L 310.710303 193.183357 
L 311.912727 175.679497 
L 313.115152 182.020431 
L 314.317576 187.59269 
L 317.924848 187.909113 
L 319.127273 179.821769 
L 320.329697 168.581306 
L 321.532121 163.787312 
L 322.734545 158.527841 
L 326.341818 158.122561 
L 327.544242 149.955721 
L 328.746667 154.81443 
L 329.949091 147.397518 
L 331.151515 141.294288 
L 334.758788 140.765244 
L 335.961212 138.478947 
L 337.163636 138.680755 
L 338.366061 149.048701 
L 339.568485 146.412115 
L 343.175758 143.332007 
L 344.378182 147.969952 
L 345.580606 154.509544 
L 346.78303 155.021829 
L 347.985455 154.832566 
L 352.795152 164.853028 
L 353.997576 163.422684 
L 355.2 170.901712 
L 360.009697 167.380049 
L 361.212121 160.638463 
L 362.414545 158.456693 
L 363.61697 165.008733 
L 364.819394 179.764072 
L 368.426667 178.727207 
L 369.629091 186.742043 
L 370.831515 187.823605 
L 372.033939 172.050301 
L 373.236364 187.15055 
L 376.843636 183.934679 
L 378.046061 180.405065 
L 379.248485 159.459291 
L 380.450909 177.491744 
L 381.653333 175.792868 
L 385.260606 190.399075 
L 386.46303 194.365069 
L 387.665455 199.922438 
L 388.867879 202.653995 
L 390.070303 195.321368 
L 393.677576 196.416053 
L 394.88 186.872972 
L 396.082424 205.318567 
L 397.284848 211.754898 
L 398.487273 215.568053 
L 398.487273 215.568053 
" style="fill:none;stroke:#ff0000;stroke-linecap:square;stroke-opacity:0.9;stroke-width:2;"/>
   </g>
   <g id="line2d_21">
    <path clip-path="url(#p034e978df0)" d="M 73.832727 145.561986 
L 75.035152 142.680696 
L 76.237576 140.694907 
L 77.44 143.639749 
L 78.642424 138.788135 
L 82.249697 135.199672 
L 83.452121 134.428376 
L 84.654545 135.311506 
L 85.85697 134.909893 
L 87.059394 134.975044 
L 91.869091 135.069865 
L 93.071515 136.815391 
L 94.273939 138.278622 
L 95.476364 143.082776 
L 99.083636 138.570456 
L 100.286061 146.193419 
L 101.488485 143.023341 
L 102.690909 143.92082 
L 103.893333 148.828194 
L 107.500606 158.012979 
L 108.70303 158.960505 
L 109.905455 155.376489 
L 111.107879 147.15613 
L 112.310303 142.776297 
L 115.917576 138.278169 
L 117.12 149.539535 
L 118.322424 147.596345 
L 119.524848 151.573601 
L 120.727273 143.226525 
L 124.334545 153.093337 
L 125.53697 145.577828 
L 126.739394 143.226353 
L 127.941818 141.794049 
L 129.144242 139.818904 
L 132.751515 142.587855 
L 133.953939 146.793026 
L 135.156364 147.626887 
L 136.358788 137.624074 
L 137.561212 136.739468 
L 141.168485 132.124023 
L 142.370909 127.044266 
L 143.573333 124.872717 
L 144.775758 133.295943 
L 145.978182 140.169064 
L 149.585455 139.719138 
L 150.787879 144.598363 
L 151.990303 145.668826 
L 153.192727 139.479993 
L 154.395152 138.430439 
L 158.002424 135.690333 
L 159.204848 134.614092 
L 160.407273 130.263991 
L 161.609697 129.922872 
L 162.812121 126.029777 
L 166.419394 125.823304 
L 167.621818 132.474679 
L 168.824242 136.799603 
L 170.026667 137.009295 
L 171.229091 132.339538 
L 174.836364 130.830916 
L 176.038788 133.428254 
L 177.241212 133.621039 
L 178.443636 135.041548 
L 179.646061 135.021344 
L 183.253333 132.034872 
L 184.455758 127.660143 
L 185.658182 127.895516 
L 188.06303 139.856059 
L 191.670303 132.957017 
L 192.872727 143.713612 
L 194.075152 150.777089 
L 195.277576 144.557817 
L 196.48 148.3024 
L 200.087273 138.287735 
L 201.289697 128.623415 
L 202.492121 124.378971 
L 203.694545 124.2371 
L 204.89697 122.043112 
L 208.504242 127.621861 
L 209.706667 124.986985 
L 210.909091 121.832625 
L 212.111515 119.92164 
L 213.313939 126.103566 
L 216.921212 133.336611 
L 218.123636 120.831992 
L 219.326061 118.276005 
L 220.528485 113.111866 
L 225.338182 106.268002 
L 226.540606 106.573782 
L 227.74303 106.41146 
L 228.945455 107.262478 
L 230.147879 109.803032 
L 233.755152 101.280207 
L 234.957576 94.108297 
L 236.16 109.101984 
L 237.362424 103.24636 
L 238.564848 101.415336 
L 242.172121 100.255042 
L 243.374545 95.128621 
L 244.57697 93.677128 
L 245.779394 100.56713 
L 246.981818 98.96272 
L 252.993939 113.951692 
L 254.196364 120.413723 
L 255.398788 133.003182 
L 259.006061 132.115429 
L 260.208485 138.489425 
L 261.410909 138.593 
L 262.613333 141.737766 
L 263.815758 128.570999 
L 267.42303 116.646618 
L 268.625455 111.239082 
L 269.827879 101.688424 
L 271.030303 139.770847 
L 272.232727 139.30259 
L 275.84 148.471965 
L 277.042424 149.648529 
L 278.244848 138.117224 
L 279.447273 147.685826 
L 280.649697 159.063837 
L 284.25697 162.849534 
L 285.459394 156.153377 
L 286.661818 159.043567 
L 287.864242 168.636357 
L 289.066667 171.531665 
L 293.876364 176.63112 
L 295.078788 183.734843 
L 296.281212 172.376237 
L 297.483636 162.934415 
L 301.090909 164.515278 
L 302.293333 172.396258 
L 303.495758 162.262283 
L 304.698182 164.906067 
L 305.900606 171.80975 
L 309.507879 193.193137 
L 310.710303 190.998939 
L 311.912727 170.086527 
L 314.317576 185.445762 
L 317.924848 185.77326 
L 319.127273 176.397793 
L 320.329697 159.839602 
L 321.532121 154.249458 
L 322.734545 146.020655 
L 326.341818 148.427373 
L 327.544242 137.235854 
L 328.746667 143.544169 
L 329.949091 135.526009 
L 331.151515 129.020494 
L 334.758788 128.718387 
L 335.961212 124.859095 
L 337.163636 127.609546 
L 338.366061 140.968794 
L 339.568485 140.124774 
L 343.175758 135.117343 
L 344.378182 141.997681 
L 345.580606 149.856281 
L 346.78303 151.554454 
L 347.985455 151.803385 
L 352.795152 163.090731 
L 353.997576 160.612743 
L 355.2 170.417914 
L 360.009697 164.79357 
L 361.212121 155.768457 
L 362.414545 158.579908 
L 363.61697 170.044125 
L 364.819394 186.397543 
L 368.426667 183.547675 
L 369.629091 195.911112 
L 370.831515 201.384404 
L 372.033939 174.671784 
L 373.236364 189.667174 
L 376.843636 181.232072 
L 378.046061 175.811474 
L 379.248485 153.296871 
L 380.450909 174.72982 
L 381.653333 177.051003 
L 385.260606 191.838284 
L 386.46303 191.672201 
L 387.665455 200.175375 
L 388.867879 203.96787 
L 390.070303 194.17326 
L 393.677576 197.173236 
L 394.88 186.37894 
L 396.082424 205.590482 
L 397.284848 211.303371 
L 398.487273 215.231006 
L 398.487273 215.231006 
" style="fill:none;stroke:#ff8040;stroke-linecap:square;stroke-opacity:0.9;stroke-width:2;"/>
   </g>
   <g id="line2d_22">
    <path clip-path="url(#p034e978df0)" d="M 73.832727 146.086014 
L 75.035152 144.507439 
L 76.237576 143.115968 
L 77.44 146.680114 
L 78.642424 141.24487 
L 83.452121 140.012168 
L 84.654545 140.354691 
L 85.85697 142.461837 
L 87.059394 142.423536 
L 91.869091 141.577083 
L 93.071515 144.400946 
L 94.273939 145.09721 
L 95.476364 152.224395 
L 99.083636 150.045159 
L 100.286061 155.633215 
L 101.488485 153.20249 
L 102.690909 154.993793 
L 103.893333 162.398458 
L 107.500606 172.163299 
L 108.70303 171.769928 
L 109.905455 167.481569 
L 112.310303 156.28166 
L 115.917576 154.624323 
L 117.12 164.128124 
L 118.322424 164.889667 
L 119.524848 170.277131 
L 120.727273 162.865679 
L 124.334545 169.986258 
L 125.53697 163.037346 
L 126.739394 161.733532 
L 127.941818 160.626516 
L 129.144242 158.516935 
L 132.751515 161.464703 
L 133.953939 167.028156 
L 135.156364 167.991483 
L 136.358788 155.09432 
L 137.561212 152.227925 
L 141.168485 150.06349 
L 142.370909 146.261352 
L 143.573333 143.501831 
L 144.775758 152.657338 
L 145.978182 155.651996 
L 149.585455 155.648496 
L 150.787879 161.839505 
L 151.990303 166.783546 
L 153.192727 157.872757 
L 154.395152 158.67505 
L 158.002424 160.153903 
L 160.407273 153.759293 
L 161.609697 155.578214 
L 162.812121 155.452154 
L 166.419394 153.737399 
L 167.621818 160.613167 
L 168.824242 163.155283 
L 170.026667 162.988344 
L 171.229091 164.631373 
L 174.836364 164.798453 
L 176.038788 167.336294 
L 177.241212 168.788835 
L 178.443636 171.048434 
L 179.646061 172.106362 
L 183.253333 170.964353 
L 184.455758 166.330883 
L 185.658182 165.887557 
L 188.06303 177.615569 
L 191.670303 172.955328 
L 192.872727 182.961521 
L 194.075152 186.475782 
L 195.277576 176.743673 
L 196.48 178.911161 
L 200.087273 172.735969 
L 201.289697 162.479702 
L 202.492121 160.682433 
L 203.694545 161.805232 
L 204.89697 156.758735 
L 208.504242 162.254818 
L 209.706667 160.331533 
L 210.909091 153.996094 
L 212.111515 156.025829 
L 213.313939 163.17737 
L 216.921212 168.396434 
L 218.123636 158.079384 
L 219.326061 157.72675 
L 220.528485 154.027001 
L 225.338182 144.894635 
L 226.540606 145.170281 
L 227.74303 144.602637 
L 228.945455 144.181274 
L 230.147879 146.824707 
L 233.755152 140.529519 
L 234.957576 135.616009 
L 236.16 146.587154 
L 237.362424 145.792669 
L 238.564848 141.885782 
L 242.172121 143.533052 
L 243.374545 141.623047 
L 244.57697 141.833974 
L 245.779394 146.957486 
L 246.981818 147.714886 
L 251.791515 159.446453 
L 252.993939 163.652467 
L 254.196364 168.735888 
L 255.398788 180.887143 
L 259.006061 180.450684 
L 260.208485 184.010639 
L 261.410909 186.497948 
L 262.613333 189.812516 
L 263.815758 181.768223 
L 267.42303 172.782473 
L 268.625455 166.70896 
L 269.827879 161.459822 
L 271.030303 204.145798 
L 272.232727 200.989434 
L 275.84 207.061401 
L 277.042424 204.75052 
L 278.244848 201.565364 
L 279.447273 209.931789 
L 280.649697 219.109482 
L 284.25697 222.411413 
L 285.459394 217.73876 
L 286.661818 219.367446 
L 287.864242 231.817447 
L 289.066667 234.228234 
L 293.876364 239.673081 
L 295.078788 245.2234 
L 296.281212 243.71657 
L 297.483636 234.085112 
L 301.090909 238.734567 
L 302.293333 248.409476 
L 303.495758 237.12976 
L 304.698182 236.432379 
L 305.900606 245.345119 
L 309.507879 260.221911 
L 310.710303 263.319585 
L 311.912727 244.350122 
L 313.115152 250.785323 
L 314.317576 255.888551 
L 317.924848 255.875328 
L 319.127273 248.240209 
L 320.329697 239.326065 
L 321.532121 235.293538 
L 322.734545 228.892438 
L 326.341818 229.138458 
L 327.544242 218.939838 
L 328.746667 223.843031 
L 329.949091 217.617961 
L 331.151515 212.567216 
L 334.758788 212.14773 
L 335.961212 208.292829 
L 337.163636 208.417582 
L 338.366061 217.876297 
L 339.568485 215.980174 
L 343.175758 211.295026 
L 344.378182 215.301687 
L 345.580606 222.648837 
L 346.78303 222.721094 
L 347.985455 220.34697 
L 351.592727 227.278527 
L 352.795152 231.207003 
L 353.997576 227.104141 
L 355.2 232.117269 
L 360.009697 231.28459 
L 361.212121 224.155052 
L 362.414545 220.133993 
L 363.61697 231.225175 
L 364.819394 244.599742 
L 368.426667 244.359875 
L 369.629091 256.249389 
L 370.831515 258.070246 
L 372.033939 232.410455 
L 373.236364 244.893122 
L 376.843636 240.94605 
L 378.046061 238.356964 
L 379.248485 214.137251 
L 380.450909 228.737378 
L 381.653333 228.568995 
L 385.260606 240.497859 
L 386.46303 243.181331 
L 387.665455 256.293366 
L 388.867879 256.093172 
L 390.070303 247.933472 
L 393.677576 247.213303 
L 394.88 238.337215 
L 396.082424 256.088638 
L 397.284848 261.42533 
L 398.487273 265.797818 
L 398.487273 265.797818 
" style="fill:none;stroke:#0d0d0d;stroke-linecap:square;stroke-opacity:0.25;stroke-width:2;"/>
   </g>
   <g id="line2d_23">
    <path clip-path="url(#p034e978df0)" d="M 73.832727 145.037958 
L 75.035152 140.792491 
L 76.237576 137.193346 
L 77.44 140.441779 
L 78.642424 133.52193 
L 82.249697 129.65073 
L 83.452121 127.443091 
L 84.654545 126.417302 
L 85.85697 129.512839 
L 87.059394 129.036688 
L 91.869091 126.138343 
L 93.071515 128.516353 
L 94.273939 129.340072 
L 95.476364 136.43712 
L 99.083636 132.110048 
L 100.286061 136.473233 
L 101.488485 133.87758 
L 102.690909 135.364428 
L 103.893333 141.717077 
L 107.500606 149.831733 
L 108.70303 149.620783 
L 109.905455 144.801043 
L 111.107879 135.791823 
L 112.310303 130.774989 
L 115.917576 126.017443 
L 117.12 136.938336 
L 118.322424 137.701567 
L 119.524848 142.509388 
L 120.727273 133.442976 
L 124.334545 139.008871 
L 125.53697 131.171707 
L 126.739394 130.393546 
L 127.941818 126.565306 
L 129.144242 123.50069 
L 132.751515 127.211632 
L 133.953939 131.106126 
L 135.156364 129.249563 
L 136.358788 114.679919 
L 137.561212 110.081438 
L 141.168485 109.457754 
L 142.370909 104.74287 
L 143.573333 102.406971 
L 144.775758 106.597593 
L 145.978182 112.325529 
L 149.585455 114.238501 
L 150.787879 116.041985 
L 151.990303 114.84351 
L 153.192727 107.253393 
L 154.395152 107.578412 
L 158.002424 105.624461 
L 159.204848 101.769002 
L 160.407273 99.477068 
L 161.609697 100.554448 
L 162.812121 96.941455 
L 166.419394 95.176146 
L 167.621818 98.572361 
L 168.824242 102.866901 
L 170.026667 102.264657 
L 171.229091 97.480705 
L 174.836364 96.578301 
L 176.038788 99.069499 
L 177.241212 101.13136 
L 178.443636 99.191416 
L 179.646061 98.602093 
L 183.253333 94.984607 
L 184.455758 84.59903 
L 185.658182 84.98465 
L 188.06303 98.608131 
L 191.670303 91.980619 
L 192.872727 99.793221 
L 194.075152 103.856018 
L 195.277576 91.213833 
L 196.48 93.591686 
L 200.087273 84.666986 
L 201.289697 73.757594 
L 202.492121 70.968425 
L 203.694545 71.997544 
L 204.89697 68.182135 
L 208.504242 74.997476 
L 209.706667 75.689426 
L 210.909091 74.007061 
L 212.111515 70.099074 
L 213.313939 77.64896 
L 216.921212 85.580741 
L 218.123636 74.148311 
L 219.326061 71.999409 
L 220.528485 66.406508 
L 225.338182 57.457143 
L 226.540606 56.351099 
L 227.74303 54.675216 
L 228.945455 56.69244 
L 230.147879 57.812327 
L 233.755152 54.77035 
L 234.957576 52.154182 
L 236.16 69.440859 
L 237.362424 66.218016 
L 238.564848 62.003489 
L 242.172121 60.405534 
L 244.57697 58.905067 
L 245.779394 62.929395 
L 246.981818 62.678642 
L 251.791515 72.486156 
L 252.993939 74.21501 
L 254.196364 81.306938 
L 255.398788 94.962365 
L 259.006061 94.792012 
L 260.208485 95.924041 
L 261.410909 96.219075 
L 262.613333 101.513861 
L 263.815758 88.876497 
L 267.42303 79.538416 
L 269.827879 64.137541 
L 271.030303 74.799962 
L 272.232727 70.025048 
L 275.84 75.442087 
L 277.042424 71.724303 
L 278.244848 61.865909 
L 279.447273 72.194654 
L 280.649697 85.567342 
L 284.25697 90.802921 
L 285.459394 83.417648 
L 286.661818 84.552376 
L 287.864242 97.556874 
L 289.066667 102.253765 
L 293.876364 107.772754 
L 295.078788 114.41171 
L 296.281212 113.777984 
L 297.483636 100.103218 
L 301.090909 104.034303 
L 302.293333 116.159753 
L 303.495758 102.569242 
L 304.698182 107.619643 
L 305.900606 115.496824 
L 309.507879 131.081674 
L 310.710303 134.406792 
L 311.912727 111.476888 
L 314.317576 123.164511 
L 317.924848 123.005003 
L 319.127273 112.685342 
L 320.329697 98.842921 
L 321.532121 92.486848 
L 322.734545 85.398121 
L 326.341818 85.614747 
L 327.544242 76.799046 
L 328.746667 83.281342 
L 329.949091 75.056039 
L 331.151515 68.36274 
L 334.758788 68.899905 
L 335.961212 67.457353 
L 337.163636 69.892745 
L 338.366061 82.576564 
L 339.568485 77.870873 
L 343.175758 74.001188 
L 344.378182 79.60076 
L 345.580606 87.718621 
L 346.78303 88.208112 
L 347.985455 89.072111 
L 351.592727 97.812074 
L 352.795152 100.127028 
L 353.997576 98.411576 
L 355.2 107.415568 
L 360.009697 103.052252 
L 361.212121 95.336535 
L 362.414545 92.136899 
L 363.61697 104.34822 
L 364.819394 119.828619 
L 368.426667 118.334513 
L 369.629091 125.257411 
L 370.831515 130.471953 
L 372.033939 101.362365 
L 373.236364 118.562773 
L 376.843636 115.865802 
L 378.046061 112.841986 
L 379.248485 89.870876 
L 380.450909 112.601082 
L 381.653333 114.554655 
L 385.260606 130.159068 
L 386.46303 131.50392 
L 387.665455 136.287 
L 388.867879 137.009385 
L 390.070303 125.318805 
L 393.677576 126.860066 
L 394.88 116.23328 
L 396.082424 136.986794 
L 397.284848 145.525839 
L 398.487273 151.541141 
L 398.487273 151.541141 
" style="fill:none;stroke:#0d0d0d;stroke-linecap:square;stroke-opacity:0.25;stroke-width:2;"/>
   </g>
   <g id="patch_3">
    <path d="M 57.6 276.48 
L 57.6 41.472 
" style="fill:none;stroke:#000000;stroke-linecap:square;stroke-linejoin:miter;stroke-width:0.8;"/>
   </g>
   <g id="patch_4">
    <path d="M 414.72 276.48 
L 414.72 41.472 
" style="fill:none;stroke:#000000;stroke-linecap:square;stroke-linejoin:miter;stroke-width:0.8;"/>
   </g>
   <g id="patch_5">
    <path d="M 57.6 276.48 
L 414.72 276.48 
" style="fill:none;stroke:#000000;stroke-linecap:square;stroke-linejoin:miter;stroke-width:0.8;"/>
   </g>
   <g id="patch_6">
    <path d="M 57.6 41.472 
L 414.72 41.472 
" style="fill:none;stroke:#000000;stroke-linecap:square;stroke-linejoin:miter;stroke-width:0.8;"/>
   </g>
   <g id="text_20">
    <!-- TESTFUNDS1550 -->
    <g transform="translate(185.200312 22.034625)scale(0.12 -0.12)">
     <defs>
      <path d="M -19 4666 
L 3928 4666 
L 3928 4134 
L 2272 4134 
L 2272 0 
L 1638 0 
L 1638 4134 
L -19 4134 
L -19 4666 
z
" id="DejaVuSans-54" transform="scale(0.015625)"/>
      <path d="M 628 4666 
L 3578 4666 
L 3578 4134 
L 1259 4134 
L 1259 2753 
L 3481 2753 
L 3481 2222 
L 1259 2222 
L 1259 531 
L 3634 531 
L 3634 0 
L 628 0 
L 628 4666 
z
" id="DejaVuSans-45" transform="scale(0.015625)"/>
      <path d="M 3425 4513 
L 3425 3897 
Q 3066 4069 2747 4153 
Q 2428 4238 2131 4238 
Q 1616 4238 1336 4038 
Q 1056 3838 1056 3469 
Q 1056 3159 1242 3001 
Q 1428 2844 1947 2747 
L 2328 2669 
Q 3034 2534 3370 2195 
Q 3706 1856 3706 1288 
Q 3706 609 3251 259 
Q 2797 -91 1919 -91 
Q 1588 -91 1214 -16 
Q 841 59 441 206 
L 441 856 
Q 825 641 1194 531 
Q 1563 422 1919 422 
Q 2459 422 2753 634 
Q 3047 847 3047 1241 
Q 3047 1584 2836 1778 
Q 2625 1972 2144 2069 
L 1759 2144 
Q 1053 2284 737 2584 
Q 422 2884 422 3419 
Q 422 4038 858 4394 
Q 1294 4750 2059 4750 
Q 2388 4750 2728 4690 
Q 3069 4631 3425 4513 
z
" id="DejaVuSans-53" transform="scale(0.015625)"/>
      <path d="M 628 4666 
L 3309 4666 
L 3309 4134 
L 1259 4134 
L 1259 2759 
L 3109 2759 
L 3109 2228 
L 1259 2228 
L 1259 0 
L 628 0 
L 628 4666 
z
" id="DejaVuSans-46" transform="scale(0.015625)"/>
      <path d="M 556 4666 
L 1191 4666 
L 1191 1831 
Q 1191 1081 1462 751 
Q 1734 422 2344 422 
Q 2950 422 3222 751 
Q 3494 1081 3494 1831 
L 3494 4666 
L 4128 4666 
L 4128 1753 
Q 4128 841 3676 375 
Q 3225 -91 2344 -91 
Q 1459 -91 1007 375 
Q 556 841 556 1753 
L 556 4666 
z
" id="DejaVuSans-55" transform="scale(0.015625)"/>
      <path d="M 628 4666 
L 1478 4666 
L 3547 763 
L 3547 4666 
L 4159 4666 
L 4159 0 
L 3309 0 
L 1241 3903 
L 1241 0 
L 628 0 
L 628 4666 
z
" id="DejaVuSans-4e" transform="scale(0.015625)"/>
      <path d="M 1259 4147 
L 1259 519 
L 2022 519 
Q 2988 519 3436 956 
Q 3884 1394 3884 2338 
Q 3884 3275 3436 3711 
Q 2988 4147 2022 4147 
L 1259 4147 
z
M 628 4666 
L 1925 4666 
Q 3281 4666 3915 4102 
Q 4550 3538 4550 2338 
Q 4550 1131 3912 565 
Q 3275 0 1925 0 
L 628 0 
L 628 4666 
z
" id="DejaVuSans-44" transform="scale(0.015625)"/>
     </defs>
     <use xlink:href="#DejaVuSans-54"/>
     <use x="61.083984" xlink:href="#DejaVuSans-45"/>
     <use x="124.267578" xlink:href="#DejaVuSans-53"/>
     <use x="187.744141" xlink:href="#DejaVuSans-54"/>
     <use x="248.828125" xlink:href="#DejaVuSans-46"/>
     <use x="306.347656" xlink:href="#DejaVuSans-55"/>
     <use x="379.541016" xlink:href="#DejaVuSans-4e"/>
     <use x="454.345703" xlink:href="#DejaVuSans-44"/>
     <use x="531.347656" xlink:href="#DejaVuSans-53"/>
     <use x="594.824219" xlink:href="#DejaVuSans-31"/>
     <use x="658.447266" xlink:href="#DejaVuSans-35"/>
     <use x="722.070312" xlink:href="#DejaVuSans-35"/>
     <use x="785.693359" xlink:href="#DejaVuSans-30"/>
    </g>
    <!-- daily_report -->
    <g transform="translate(200.466563 35.472)scale(0.12 -0.12)">
     <defs>
      <path d="M 603 3500 
L 1178 3500 
L 1178 0 
L 603 0 
L 603 3500 
z
M 603 4863 
L 1178 4863 
L 1178 4134 
L 603 4134 
L 603 4863 
z
" id="DejaVuSans-69" transform="scale(0.015625)"/>
      <path d="M 603 4863 
L 1178 4863 
L 1178 0 
L 603 0 
L 603 4863 
z
" id="DejaVuSans-6c" transform="scale(0.015625)"/>
      <path d="M 2059 -325 
Q 1816 -950 1584 -1140 
Q 1353 -1331 966 -1331 
L 506 -1331 
L 506 -850 
L 844 -850 
Q 1081 -850 1212 -737 
Q 1344 -625 1503 -206 
L 1606 56 
L 191 3500 
L 800 3500 
L 1894 763 
L 2988 3500 
L 3597 3500 
L 2059 -325 
z
" id="DejaVuSans-79" transform="scale(0.015625)"/>
      <path d="M 3263 -1063 
L 3263 -1509 
L -63 -1509 
L -63 -1063 
L 3263 -1063 
z
" id="DejaVuSans-5f" transform="scale(0.015625)"/>
      <path d="M 2631 2963 
Q 2534 3019 2420 3045 
Q 2306 3072 2169 3072 
Q 1681 3072 1420 2755 
Q 1159 2438 1159 1844 
L 1159 0 
L 581 0 
L 581 3500 
L 1159 3500 
L 1159 2956 
Q 1341 3275 1631 3429 
Q 1922 3584 2338 3584 
Q 2397 3584 2469 3576 
Q 2541 3569 2628 3553 
L 2631 2963 
z
" id="DejaVuSans-72" transform="scale(0.015625)"/>
      <path d="M 1159 525 
L 1159 -1331 
L 581 -1331 
L 581 3500 
L 1159 3500 
L 1159 2969 
Q 1341 3281 1617 3432 
Q 1894 3584 2278 3584 
Q 2916 3584 3314 3078 
Q 3713 2572 3713 1747 
Q 3713 922 3314 415 
Q 2916 -91 2278 -91 
Q 1894 -91 1617 61 
Q 1341 213 1159 525 
z
M 3116 1747 
Q 3116 2381 2855 2742 
Q 2594 3103 2138 3103 
Q 1681 3103 1420 2742 
Q 1159 2381 1159 1747 
Q 1159 1113 1420 752 
Q 1681 391 2138 391 
Q 2594 391 2855 752 
Q 3116 1113 3116 1747 
z
" id="DejaVuSans-70" transform="scale(0.015625)"/>
      <path d="M 1959 3097 
Q 1497 3097 1228 2736 
Q 959 2375 959 1747 
Q 959 1119 1226 758 
Q 1494 397 1959 397 
Q 2419 397 2687 759 
Q 2956 1122 2956 1747 
Q 2956 2369 2687 2733 
Q 2419 3097 1959 3097 
z
M 1959 3584 
Q 2709 3584 3137 3096 
Q 3566 2609 3566 1747 
Q 3566 888 3137 398 
Q 2709 -91 1959 -91 
Q 1206 -91 779 398 
Q 353 888 353 1747 
Q 353 2609 779 3096 
Q 1206 3584 1959 3584 
z
" id="DejaVuSans-6f" transform="scale(0.015625)"/>
     </defs>
     <use xlink:href="#DejaVuSans-64"/>
     <use x="63.476562" xlink:href="#DejaVuSans-61"/>
     <use x="124.755859" xlink:href="#DejaVuSans-69"/>
     <use x="152.539062" xlink:href="#DejaVuSans-6c"/>
     <use x="180.322266" xlink:href="#DejaVuSans-79"/>
     <use x="239.501953" xlink:href="#DejaVuSans-5f"/>
     <use x="289.501953" xlink:href="#DejaVuSans-72"/>
     <use x="328.365234" xlink:href="#DejaVuSans-65"/>
     <use x="389.888672" xlink:href="#DejaVuSans-70"/>
     <use x="453.365234" xlink:href="#DejaVuSans-6f"/>
     <use x="514.546875" xlink:href="#DejaVuSans-72"/>
     <use x="555.660156" xlink:href="#DejaVuSans-74"/>
    </g>
   </g>
   <g id="legend_1">
    <g id="patch_7">
     <path d="M 64.6 271.48 
L 155.792188 271.48 
Q 157.792188 271.48 157.792188 269.48 
L 157.792188 197.089375 
Q 157.792188 195.089375 155.792188 195.089375 
L 64.6 195.089375 
Q 62.6 195.089375 62.6 197.089375 
L 62.6 269.48 
Q 62.6 271.48 64.6 271.48 
z
" style="fill:#ffffff;opacity:0.8;stroke:#cccccc;stroke-linejoin:miter;"/>
    </g>
    <g id="line2d_24">
     <path d="M 66.6 203.187812 
L 86.6 203.187812 
" style="fill:none;stroke:#0000ff;stroke-linecap:square;stroke-opacity:0.9;stroke-width:2;"/>
    </g>
    <g id="line2d_25"/>
    <g id="text_21">
     <!-- alpaca -->
     <g transform="translate(94.6 206.687812)scale(0.1 -0.1)">
      <defs>
       <path d="M 3122 3366 
L 3122 2828 
Q 2878 2963 2633 3030 
Q 2388 3097 2138 3097 
Q 1578 3097 1268 2742 
Q 959 2388 959 1747 
Q 959 1106 1268 751 
Q 1578 397 2138 397 
Q 2388 397 2633 464 
Q 2878 531 3122 666 
L 3122 134 
Q 2881 22 2623 -34 
Q 2366 -91 2075 -91 
Q 1284 -91 818 406 
Q 353 903 353 1747 
Q 353 2603 823 3093 
Q 1294 3584 2113 3584 
Q 2378 3584 2631 3529 
Q 2884 3475 3122 3366 
z
" id="DejaVuSans-63" transform="scale(0.015625)"/>
      </defs>
      <use xlink:href="#DejaVuSans-61"/>
      <use x="61.279297" xlink:href="#DejaVuSans-6c"/>
      <use x="89.0625" xlink:href="#DejaVuSans-70"/>
      <use x="152.539062" xlink:href="#DejaVuSans-61"/>
      <use x="213.818359" xlink:href="#DejaVuSans-63"/>
      <use x="268.798828" xlink:href="#DejaVuSans-61"/>
     </g>
    </g>
    <g id="line2d_26">
     <path d="M 66.6 217.865937 
L 86.6 217.865937 
" style="fill:none;stroke:#ff0000;stroke-linecap:square;stroke-opacity:0.9;stroke-width:2;"/>
    </g>
    <g id="line2d_27"/>
    <g id="text_22">
     <!-- mattress -->
     <g transform="translate(94.6 221.365937)scale(0.1 -0.1)">
      <defs>
       <path d="M 3328 2828 
Q 3544 3216 3844 3400 
Q 4144 3584 4550 3584 
Q 5097 3584 5394 3201 
Q 5691 2819 5691 2113 
L 5691 0 
L 5113 0 
L 5113 2094 
Q 5113 2597 4934 2840 
Q 4756 3084 4391 3084 
Q 3944 3084 3684 2787 
Q 3425 2491 3425 1978 
L 3425 0 
L 2847 0 
L 2847 2094 
Q 2847 2600 2669 2842 
Q 2491 3084 2119 3084 
Q 1678 3084 1418 2786 
Q 1159 2488 1159 1978 
L 1159 0 
L 581 0 
L 581 3500 
L 1159 3500 
L 1159 2956 
Q 1356 3278 1631 3431 
Q 1906 3584 2284 3584 
Q 2666 3584 2933 3390 
Q 3200 3197 3328 2828 
z
" id="DejaVuSans-6d" transform="scale(0.015625)"/>
       <path d="M 2834 3397 
L 2834 2853 
Q 2591 2978 2328 3040 
Q 2066 3103 1784 3103 
Q 1356 3103 1142 2972 
Q 928 2841 928 2578 
Q 928 2378 1081 2264 
Q 1234 2150 1697 2047 
L 1894 2003 
Q 2506 1872 2764 1633 
Q 3022 1394 3022 966 
Q 3022 478 2636 193 
Q 2250 -91 1575 -91 
Q 1294 -91 989 -36 
Q 684 19 347 128 
L 347 722 
Q 666 556 975 473 
Q 1284 391 1588 391 
Q 1994 391 2212 530 
Q 2431 669 2431 922 
Q 2431 1156 2273 1281 
Q 2116 1406 1581 1522 
L 1381 1569 
Q 847 1681 609 1914 
Q 372 2147 372 2553 
Q 372 3047 722 3315 
Q 1072 3584 1716 3584 
Q 2034 3584 2315 3537 
Q 2597 3491 2834 3397 
z
" id="DejaVuSans-73" transform="scale(0.015625)"/>
      </defs>
      <use xlink:href="#DejaVuSans-6d"/>
      <use x="97.412109" xlink:href="#DejaVuSans-61"/>
      <use x="158.691406" xlink:href="#DejaVuSans-74"/>
      <use x="197.900391" xlink:href="#DejaVuSans-74"/>
      <use x="237.109375" xlink:href="#DejaVuSans-72"/>
      <use x="275.972656" xlink:href="#DejaVuSans-65"/>
      <use x="337.496094" xlink:href="#DejaVuSans-73"/>
      <use x="389.595703" xlink:href="#DejaVuSans-73"/>
     </g>
    </g>
    <g id="line2d_28">
     <path d="M 66.6 232.544062 
L 86.6 232.544062 
" style="fill:none;stroke:#ff8040;stroke-linecap:square;stroke-opacity:0.9;stroke-width:2;"/>
    </g>
    <g id="line2d_29"/>
    <g id="text_23">
     <!-- trader-0850 -->
     <g transform="translate(94.6 236.044062)scale(0.1 -0.1)">
      <use xlink:href="#DejaVuSans-74"/>
      <use x="39.208984" xlink:href="#DejaVuSans-72"/>
      <use x="80.322266" xlink:href="#DejaVuSans-61"/>
      <use x="141.601562" xlink:href="#DejaVuSans-64"/>
      <use x="205.078125" xlink:href="#DejaVuSans-65"/>
      <use x="266.601562" xlink:href="#DejaVuSans-72"/>
      <use x="301.339844" xlink:href="#DejaVuSans-2d"/>
      <use x="337.423828" xlink:href="#DejaVuSans-30"/>
      <use x="401.046875" xlink:href="#DejaVuSans-38"/>
      <use x="464.669922" xlink:href="#DejaVuSans-35"/>
      <use x="528.292969" xlink:href="#DejaVuSans-30"/>
     </g>
    </g>
    <g id="line2d_30">
     <path d="M 66.6 247.222187 
L 86.6 247.222187 
" style="fill:none;stroke:#0d0d0d;stroke-linecap:square;stroke-opacity:0.25;stroke-width:2;"/>
    </g>
    <g id="line2d_31"/>
    <g id="text_24">
     <!-- rando-min -->
     <g transform="translate(94.6 250.722187)scale(0.1 -0.1)">
      <defs>
       <path d="M 3513 2113 
L 3513 0 
L 2938 0 
L 2938 2094 
Q 2938 2591 2744 2837 
Q 2550 3084 2163 3084 
Q 1697 3084 1428 2787 
Q 1159 2491 1159 1978 
L 1159 0 
L 581 0 
L 581 3500 
L 1159 3500 
L 1159 2956 
Q 1366 3272 1645 3428 
Q 1925 3584 2291 3584 
Q 2894 3584 3203 3211 
Q 3513 2838 3513 2113 
z
" id="DejaVuSans-6e" transform="scale(0.015625)"/>
      </defs>
      <use xlink:href="#DejaVuSans-72"/>
      <use x="41.113281" xlink:href="#DejaVuSans-61"/>
      <use x="102.392578" xlink:href="#DejaVuSans-6e"/>
      <use x="165.771484" xlink:href="#DejaVuSans-64"/>
      <use x="229.248047" xlink:href="#DejaVuSans-6f"/>
      <use x="292.304688" xlink:href="#DejaVuSans-2d"/>
      <use x="328.388672" xlink:href="#DejaVuSans-6d"/>
      <use x="425.800781" xlink:href="#DejaVuSans-69"/>
      <use x="453.583984" xlink:href="#DejaVuSans-6e"/>
     </g>
    </g>
    <g id="line2d_32">
     <path d="M 66.6 261.900312 
L 86.6 261.900312 
" style="fill:none;stroke:#0d0d0d;stroke-linecap:square;stroke-opacity:0.25;stroke-width:2;"/>
    </g>
    <g id="line2d_33"/>
    <g id="text_25">
     <!-- rando-max -->
     <g transform="translate(94.6 265.400312)scale(0.1 -0.1)">
      <defs>
       <path d="M 3513 3500 
L 2247 1797 
L 3578 0 
L 2900 0 
L 1881 1375 
L 863 0 
L 184 0 
L 1544 1831 
L 300 3500 
L 978 3500 
L 1906 2253 
L 2834 3500 
L 3513 3500 
z
" id="DejaVuSans-78" transform="scale(0.015625)"/>
      </defs>
      <use xlink:href="#DejaVuSans-72"/>
      <use x="41.113281" xlink:href="#DejaVuSans-61"/>
      <use x="102.392578" xlink:href="#DejaVuSans-6e"/>
      <use x="165.771484" xlink:href="#DejaVuSans-64"/>
      <use x="229.248047" xlink:href="#DejaVuSans-6f"/>
      <use x="292.304688" xlink:href="#DejaVuSans-2d"/>
      <use x="328.388672" xlink:href="#DejaVuSans-6d"/>
      <use x="425.800781" xlink:href="#DejaVuSans-61"/>
      <use x="487.080078" xlink:href="#DejaVuSans-78"/>
     </g>
    </g>
   </g>
  </g>
 </g>
 <defs>
  <clipPath id="p034e978df0">
   <rect height="235.008" width="357.12" x="57.6" y="41.472"/>
  </clipPath>
 </defs>
</svg>
