<?xml version="1.0" encoding="utf-8" standalone="no"?>
<!DOCTYPE svg PUBLIC "-//W3C//DTD SVG 1.1//EN"
  "http://www.w3.org/Graphics/SVG/1.1/DTD/svg11.dtd">
<svg height="345.6pt" version="1.1" viewBox="0 0 460.8 345.6" width="460.8pt" xmlns="http://www.w3.org/2000/svg" xmlns:xlink="http://www.w3.org/1999/xlink">
 <metadata>
  <rdf:RDF xmlns:cc="http://creativecommons.org/ns#" xmlns:dc="http://purl.org/dc/elements/1.1/" xmlns:rdf="http://www.w3.org/1999/02/22-rdf-syntax-ns#">
   <cc:Work>
    <dc:type rdf:resource="http://purl.org/dc/dcmitype/StillImage"/>
    <dc:date>2022-02-03T01:02:00.596794</dc:date>
    <dc:format>image/svg+xml</dc:format>
    <dc:creator>
     <cc:Agent>
      <dc:title>Matplotlib v3.4.3, https://matplotlib.org/</dc:title>
     </cc:Agent>
    </dc:creator>
   </cc:Work>
  </rdf:RDF>
 </metadata>
 <defs>
  <style type="text/css">*{stroke-linecap:butt;stroke-linejoin:round;}</style>
 </defs>
 <g id="figure_1">
  <g id="patch_1">
   <path d="M 0 345.6 
L 460.8 345.6 
L 460.8 0 
L 0 0 
z
" style="fill:#ffffff;"/>
  </g>
  <g id="axes_1">
   <g id="patch_2">
    <path d="M 57.6 276.48 
L 414.72 276.48 
L 414.72 41.472 
L 57.6 41.472 
z
" style="fill:#ffffff;"/>
   </g>
   <g id="matplotlib.axis_1">
    <g id="xtick_1">
     <g id="line2d_1">
      <defs>
       <path d="M 0 0 
L 0 3.5 
" id="mc054f6850c" style="stroke:#000000;stroke-width:0.8;"/>
      </defs>
      <g>
       <use style="stroke:#000000;stroke-width:0.8;" x="91.758438" xlink:href="#mc054f6850c" y="276.48"/>
      </g>
     </g>
     <g id="text_1">
      <!-- 2021-09 -->
      <g transform="translate(54.533618 310.951846)rotate(-30)scale(0.1 -0.1)">
       <defs>
        <path d="M 1228 531 
L 3431 531 
L 3431 0 
L 469 0 
L 469 531 
Q 828 903 1448 1529 
Q 2069 2156 2228 2338 
Q 2531 2678 2651 2914 
Q 2772 3150 2772 3378 
Q 2772 3750 2511 3984 
Q 2250 4219 1831 4219 
Q 1534 4219 1204 4116 
Q 875 4013 500 3803 
L 500 4441 
Q 881 4594 1212 4672 
Q 1544 4750 1819 4750 
Q 2544 4750 2975 4387 
Q 3406 4025 3406 3419 
Q 3406 3131 3298 2873 
Q 3191 2616 2906 2266 
Q 2828 2175 2409 1742 
Q 1991 1309 1228 531 
z
" id="DejaVuSans-32" transform="scale(0.015625)"/>
        <path d="M 2034 4250 
Q 1547 4250 1301 3770 
Q 1056 3291 1056 2328 
Q 1056 1369 1301 889 
Q 1547 409 2034 409 
Q 2525 409 2770 889 
Q 3016 1369 3016 2328 
Q 3016 3291 2770 3770 
Q 2525 4250 2034 4250 
z
M 2034 4750 
Q 2819 4750 3233 4129 
Q 3647 3509 3647 2328 
Q 3647 1150 3233 529 
Q 2819 -91 2034 -91 
Q 1250 -91 836 529 
Q 422 1150 422 2328 
Q 422 3509 836 4129 
Q 1250 4750 2034 4750 
z
" id="DejaVuSans-30" transform="scale(0.015625)"/>
        <path d="M 794 531 
L 1825 531 
L 1825 4091 
L 703 3866 
L 703 4441 
L 1819 4666 
L 2450 4666 
L 2450 531 
L 3481 531 
L 3481 0 
L 794 0 
L 794 531 
z
" id="DejaVuSans-31" transform="scale(0.015625)"/>
        <path d="M 313 2009 
L 1997 2009 
L 1997 1497 
L 313 1497 
L 313 2009 
z
" id="DejaVuSans-2d" transform="scale(0.015625)"/>
        <path d="M 703 97 
L 703 672 
Q 941 559 1184 500 
Q 1428 441 1663 441 
Q 2288 441 2617 861 
Q 2947 1281 2994 2138 
Q 2813 1869 2534 1725 
Q 2256 1581 1919 1581 
Q 1219 1581 811 2004 
Q 403 2428 403 3163 
Q 403 3881 828 4315 
Q 1253 4750 1959 4750 
Q 2769 4750 3195 4129 
Q 3622 3509 3622 2328 
Q 3622 1225 3098 567 
Q 2575 -91 1691 -91 
Q 1453 -91 1209 -44 
Q 966 3 703 97 
z
M 1959 2075 
Q 2384 2075 2632 2365 
Q 2881 2656 2881 3163 
Q 2881 3666 2632 3958 
Q 2384 4250 1959 4250 
Q 1534 4250 1286 3958 
Q 1038 3666 1038 3163 
Q 1038 2656 1286 2365 
Q 1534 2075 1959 2075 
z
" id="DejaVuSans-39" transform="scale(0.015625)"/>
       </defs>
       <use xlink:href="#DejaVuSans-32"/>
       <use x="63.623047" xlink:href="#DejaVuSans-30"/>
       <use x="127.246094" xlink:href="#DejaVuSans-32"/>
       <use x="190.869141" xlink:href="#DejaVuSans-31"/>
       <use x="254.492188" xlink:href="#DejaVuSans-2d"/>
       <use x="290.576172" xlink:href="#DejaVuSans-30"/>
       <use x="354.199219" xlink:href="#DejaVuSans-39"/>
      </g>
     </g>
    </g>
    <g id="xtick_2">
     <g id="line2d_2">
      <g>
       <use style="stroke:#000000;stroke-width:0.8;" x="151.510809" xlink:href="#mc054f6850c" y="276.48"/>
      </g>
     </g>
     <g id="text_2">
      <!-- 2021-10 -->
      <g transform="translate(114.285988 310.951846)rotate(-30)scale(0.1 -0.1)">
       <use xlink:href="#DejaVuSans-32"/>
       <use x="63.623047" xlink:href="#DejaVuSans-30"/>
       <use x="127.246094" xlink:href="#DejaVuSans-32"/>
       <use x="190.869141" xlink:href="#DejaVuSans-31"/>
       <use x="254.492188" xlink:href="#DejaVuSans-2d"/>
       <use x="290.576172" xlink:href="#DejaVuSans-31"/>
       <use x="354.199219" xlink:href="#DejaVuSans-30"/>
      </g>
     </g>
    </g>
    <g id="xtick_3">
     <g id="line2d_3">
      <g>
       <use style="stroke:#000000;stroke-width:0.8;" x="213.254925" xlink:href="#mc054f6850c" y="276.48"/>
      </g>
     </g>
     <g id="text_3">
      <!-- 2021-11 -->
      <g transform="translate(176.030104 310.951846)rotate(-30)scale(0.1 -0.1)">
       <use xlink:href="#DejaVuSans-32"/>
       <use x="63.623047" xlink:href="#DejaVuSans-30"/>
       <use x="127.246094" xlink:href="#DejaVuSans-32"/>
       <use x="190.869141" xlink:href="#DejaVuSans-31"/>
       <use x="254.492188" xlink:href="#DejaVuSans-2d"/>
       <use x="290.576172" xlink:href="#DejaVuSans-31"/>
       <use x="354.199219" xlink:href="#DejaVuSans-31"/>
      </g>
     </g>
    </g>
    <g id="xtick_4">
     <g id="line2d_4">
      <g>
       <use style="stroke:#000000;stroke-width:0.8;" x="273.007295" xlink:href="#mc054f6850c" y="276.48"/>
      </g>
     </g>
     <g id="text_4">
      <!-- 2021-12 -->
      <g transform="translate(235.782474 310.951846)rotate(-30)scale(0.1 -0.1)">
       <use xlink:href="#DejaVuSans-32"/>
       <use x="63.623047" xlink:href="#DejaVuSans-30"/>
       <use x="127.246094" xlink:href="#DejaVuSans-32"/>
       <use x="190.869141" xlink:href="#DejaVuSans-31"/>
       <use x="254.492188" xlink:href="#DejaVuSans-2d"/>
       <use x="290.576172" xlink:href="#DejaVuSans-31"/>
       <use x="354.199219" xlink:href="#DejaVuSans-32"/>
      </g>
     </g>
    </g>
    <g id="xtick_5">
     <g id="line2d_5">
      <g>
       <use style="stroke:#000000;stroke-width:0.8;" x="334.751411" xlink:href="#mc054f6850c" y="276.48"/>
      </g>
     </g>
     <g id="text_5">
      <!-- 2022-01 -->
      <g transform="translate(297.52659 310.951846)rotate(-30)scale(0.1 -0.1)">
       <use xlink:href="#DejaVuSans-32"/>
       <use x="63.623047" xlink:href="#DejaVuSans-30"/>
       <use x="127.246094" xlink:href="#DejaVuSans-32"/>
       <use x="190.869141" xlink:href="#DejaVuSans-32"/>
       <use x="254.492188" xlink:href="#DejaVuSans-2d"/>
       <use x="290.576172" xlink:href="#DejaVuSans-30"/>
       <use x="354.199219" xlink:href="#DejaVuSans-31"/>
      </g>
     </g>
    </g>
    <g id="xtick_6">
     <g id="line2d_6">
      <g>
       <use style="stroke:#000000;stroke-width:0.8;" x="396.495527" xlink:href="#mc054f6850c" y="276.48"/>
      </g>
     </g>
     <g id="text_6">
      <!-- 2022-02 -->
      <g transform="translate(359.270706 310.951846)rotate(-30)scale(0.1 -0.1)">
       <use xlink:href="#DejaVuSans-32"/>
       <use x="63.623047" xlink:href="#DejaVuSans-30"/>
       <use x="127.246094" xlink:href="#DejaVuSans-32"/>
       <use x="190.869141" xlink:href="#DejaVuSans-32"/>
       <use x="254.492188" xlink:href="#DejaVuSans-2d"/>
       <use x="290.576172" xlink:href="#DejaVuSans-30"/>
       <use x="354.199219" xlink:href="#DejaVuSans-32"/>
      </g>
     </g>
    </g>
    <g id="text_7">
     <!-- date -->
     <g transform="translate(224.885 324.351346)scale(0.1 -0.1)">
      <defs>
       <path d="M 2906 2969 
L 2906 4863 
L 3481 4863 
L 3481 0 
L 2906 0 
L 2906 525 
Q 2725 213 2448 61 
Q 2172 -91 1784 -91 
Q 1150 -91 751 415 
Q 353 922 353 1747 
Q 353 2572 751 3078 
Q 1150 3584 1784 3584 
Q 2172 3584 2448 3432 
Q 2725 3281 2906 2969 
z
M 947 1747 
Q 947 1113 1208 752 
Q 1469 391 1925 391 
Q 2381 391 2643 752 
Q 2906 1113 2906 1747 
Q 2906 2381 2643 2742 
Q 2381 3103 1925 3103 
Q 1469 3103 1208 2742 
Q 947 2381 947 1747 
z
" id="DejaVuSans-64" transform="scale(0.015625)"/>
       <path d="M 2194 1759 
Q 1497 1759 1228 1600 
Q 959 1441 959 1056 
Q 959 750 1161 570 
Q 1363 391 1709 391 
Q 2188 391 2477 730 
Q 2766 1069 2766 1631 
L 2766 1759 
L 2194 1759 
z
M 3341 1997 
L 3341 0 
L 2766 0 
L 2766 531 
Q 2569 213 2275 61 
Q 1981 -91 1556 -91 
Q 1019 -91 701 211 
Q 384 513 384 1019 
Q 384 1609 779 1909 
Q 1175 2209 1959 2209 
L 2766 2209 
L 2766 2266 
Q 2766 2663 2505 2880 
Q 2244 3097 1772 3097 
Q 1472 3097 1187 3025 
Q 903 2953 641 2809 
L 641 3341 
Q 956 3463 1253 3523 
Q 1550 3584 1831 3584 
Q 2591 3584 2966 3190 
Q 3341 2797 3341 1997 
z
" id="DejaVuSans-61" transform="scale(0.015625)"/>
       <path d="M 1172 4494 
L 1172 3500 
L 2356 3500 
L 2356 3053 
L 1172 3053 
L 1172 1153 
Q 1172 725 1289 603 
Q 1406 481 1766 481 
L 2356 481 
L 2356 0 
L 1766 0 
Q 1100 0 847 248 
Q 594 497 594 1153 
L 594 3053 
L 172 3053 
L 172 3500 
L 594 3500 
L 594 4494 
L 1172 4494 
z
" id="DejaVuSans-74" transform="scale(0.015625)"/>
       <path d="M 3597 1894 
L 3597 1613 
L 953 1613 
Q 991 1019 1311 708 
Q 1631 397 2203 397 
Q 2534 397 2845 478 
Q 3156 559 3463 722 
L 3463 178 
Q 3153 47 2828 -22 
Q 2503 -91 2169 -91 
Q 1331 -91 842 396 
Q 353 884 353 1716 
Q 353 2575 817 3079 
Q 1281 3584 2069 3584 
Q 2775 3584 3186 3129 
Q 3597 2675 3597 1894 
z
M 3022 2063 
Q 3016 2534 2758 2815 
Q 2500 3097 2075 3097 
Q 1594 3097 1305 2825 
Q 1016 2553 972 2059 
L 3022 2063 
z
" id="DejaVuSans-65" transform="scale(0.015625)"/>
      </defs>
      <use xlink:href="#DejaVuSans-64"/>
      <use x="63.476562" xlink:href="#DejaVuSans-61"/>
      <use x="124.755859" xlink:href="#DejaVuSans-74"/>
      <use x="163.964844" xlink:href="#DejaVuSans-65"/>
     </g>
    </g>
   </g>
   <g id="matplotlib.axis_2">
    <g id="ytick_1">
     <g id="line2d_7">
      <defs>
       <path d="M 0 0 
L -3.5 0 
" id="m6c390a7d37" style="stroke:#000000;stroke-width:0.8;"/>
      </defs>
      <g>
       <use style="stroke:#000000;stroke-width:0.8;" x="57.6" xlink:href="#m6c390a7d37" y="266.127272"/>
      </g>
     </g>
     <g id="text_8">
      <!-- 90000 -->
      <g transform="translate(18.7875 269.926491)scale(0.1 -0.1)">
       <use xlink:href="#DejaVuSans-39"/>
       <use x="63.623047" xlink:href="#DejaVuSans-30"/>
       <use x="127.246094" xlink:href="#DejaVuSans-30"/>
       <use x="190.869141" xlink:href="#DejaVuSans-30"/>
       <use x="254.492188" xlink:href="#DejaVuSans-30"/>
      </g>
     </g>
    </g>
    <g id="ytick_2">
     <g id="line2d_8">
      <g>
       <use style="stroke:#000000;stroke-width:0.8;" x="57.6" xlink:href="#m6c390a7d37" y="225.418105"/>
      </g>
     </g>
     <g id="text_9">
      <!-- 95000 -->
      <g transform="translate(18.7875 229.217324)scale(0.1 -0.1)">
       <defs>
        <path d="M 691 4666 
L 3169 4666 
L 3169 4134 
L 1269 4134 
L 1269 2991 
Q 1406 3038 1543 3061 
Q 1681 3084 1819 3084 
Q 2600 3084 3056 2656 
Q 3513 2228 3513 1497 
Q 3513 744 3044 326 
Q 2575 -91 1722 -91 
Q 1428 -91 1123 -41 
Q 819 9 494 109 
L 494 744 
Q 775 591 1075 516 
Q 1375 441 1709 441 
Q 2250 441 2565 725 
Q 2881 1009 2881 1497 
Q 2881 1984 2565 2268 
Q 2250 2553 1709 2553 
Q 1456 2553 1204 2497 
Q 953 2441 691 2322 
L 691 4666 
z
" id="DejaVuSans-35" transform="scale(0.015625)"/>
       </defs>
       <use xlink:href="#DejaVuSans-39"/>
       <use x="63.623047" xlink:href="#DejaVuSans-35"/>
       <use x="127.246094" xlink:href="#DejaVuSans-30"/>
       <use x="190.869141" xlink:href="#DejaVuSans-30"/>
       <use x="254.492188" xlink:href="#DejaVuSans-30"/>
      </g>
     </g>
    </g>
    <g id="ytick_3">
     <g id="line2d_9">
      <g>
       <use style="stroke:#000000;stroke-width:0.8;" x="57.6" xlink:href="#m6c390a7d37" y="184.708938"/>
      </g>
     </g>
     <g id="text_10">
      <!-- 100000 -->
      <g transform="translate(12.425 188.508157)scale(0.1 -0.1)">
       <use xlink:href="#DejaVuSans-31"/>
       <use x="63.623047" xlink:href="#DejaVuSans-30"/>
       <use x="127.246094" xlink:href="#DejaVuSans-30"/>
       <use x="190.869141" xlink:href="#DejaVuSans-30"/>
       <use x="254.492188" xlink:href="#DejaVuSans-30"/>
       <use x="318.115234" xlink:href="#DejaVuSans-30"/>
      </g>
     </g>
    </g>
    <g id="ytick_4">
     <g id="line2d_10">
      <g>
       <use style="stroke:#000000;stroke-width:0.8;" x="57.6" xlink:href="#m6c390a7d37" y="143.999771"/>
      </g>
     </g>
     <g id="text_11">
      <!-- 105000 -->
      <g transform="translate(12.425 147.79899)scale(0.1 -0.1)">
       <use xlink:href="#DejaVuSans-31"/>
       <use x="63.623047" xlink:href="#DejaVuSans-30"/>
       <use x="127.246094" xlink:href="#DejaVuSans-35"/>
       <use x="190.869141" xlink:href="#DejaVuSans-30"/>
       <use x="254.492188" xlink:href="#DejaVuSans-30"/>
       <use x="318.115234" xlink:href="#DejaVuSans-30"/>
      </g>
     </g>
    </g>
    <g id="ytick_5">
     <g id="line2d_11">
      <g>
       <use style="stroke:#000000;stroke-width:0.8;" x="57.6" xlink:href="#m6c390a7d37" y="103.290604"/>
      </g>
     </g>
     <g id="text_12">
      <!-- 110000 -->
      <g transform="translate(12.425 107.089823)scale(0.1 -0.1)">
       <use xlink:href="#DejaVuSans-31"/>
       <use x="63.623047" xlink:href="#DejaVuSans-31"/>
       <use x="127.246094" xlink:href="#DejaVuSans-30"/>
       <use x="190.869141" xlink:href="#DejaVuSans-30"/>
       <use x="254.492188" xlink:href="#DejaVuSans-30"/>
       <use x="318.115234" xlink:href="#DejaVuSans-30"/>
      </g>
     </g>
    </g>
    <g id="ytick_6">
     <g id="line2d_12">
      <g>
       <use style="stroke:#000000;stroke-width:0.8;" x="57.6" xlink:href="#m6c390a7d37" y="62.581437"/>
      </g>
     </g>
     <g id="text_13">
      <!-- 115000 -->
      <g transform="translate(12.425 66.380655)scale(0.1 -0.1)">
       <use xlink:href="#DejaVuSans-31"/>
       <use x="63.623047" xlink:href="#DejaVuSans-31"/>
       <use x="127.246094" xlink:href="#DejaVuSans-35"/>
       <use x="190.869141" xlink:href="#DejaVuSans-30"/>
       <use x="254.492188" xlink:href="#DejaVuSans-30"/>
       <use x="318.115234" xlink:href="#DejaVuSans-30"/>
      </g>
     </g>
    </g>
   </g>
   <g id="line2d_13">
    <path clip-path="url(#p937f3b4d07)" d="M 73.832727 184.708938 
L 75.824473 184.644519 
L 77.816219 181.663732 
L 79.807964 186.011946 
L 81.79971 178.697745 
L 87.774947 173.249402 
L 89.766693 172.192383 
L 91.758438 174.044585 
L 93.750184 173.306938 
L 95.74193 173.10698 
L 103.708912 173.835585 
L 105.700658 176.001307 
L 107.692404 178.855148 
L 109.684149 186.101505 
L 115.659387 179.74365 
L 117.651132 191.229909 
L 119.642878 185.677866 
L 121.634624 187.326449 
L 123.626369 195.965444 
L 129.601606 210.204049 
L 131.593352 211.638222 
L 133.585098 205.734388 
L 135.576843 192.906694 
L 137.568589 186.087912 
L 143.543826 180.080753 
L 145.535572 197.711594 
L 147.527317 194.812246 
L 149.519063 201.336446 
L 151.510809 188.742017 
L 157.486046 203.892457 
L 159.477791 191.727533 
L 161.469537 188.865268 
L 163.461283 188.224818 
L 165.453028 187.386012 
L 171.428265 186.263568 
L 173.420011 185.964337 
L 175.411757 196.245296 
L 177.403503 179.926274 
L 179.395248 179.127349 
L 185.370485 171.907126 
L 187.362231 163.851176 
L 189.353977 160.527518 
L 191.345722 175.362594 
L 193.337468 185.862552 
L 199.312705 184.698738 
L 201.304451 192.037662 
L 203.296196 193.672129 
L 205.287942 183.907668 
L 207.279688 194.507314 
L 213.254925 177.92992 
L 215.24667 177.958632 
L 217.238416 169.760451 
L 219.230162 180.026989 
L 221.221907 174.390039 
L 227.197144 173.537638 
L 229.18889 184.050864 
L 231.180636 183.719239 
L 233.172381 189.88565 
L 235.164127 183.838499 
L 241.139364 181.543669 
L 243.13111 181.174301 
L 245.122856 185.211848 
L 247.114601 187.437639 
L 249.106347 188.367678 
L 255.081584 183.370009 
L 257.07333 176.316383 
L 259.065075 176.96026 
L 263.048567 177.05454 
L 269.023804 184.247334 
L 271.015549 200.503907 
L 273.007295 211.516838 
L 274.999041 201.497109 
L 276.990786 206.755757 
L 282.966023 191.76752 
L 284.957769 177.179088 
L 286.949515 170.306383 
L 288.94126 170.26689 
L 290.933006 167.685328 
L 296.908243 175.19007 
L 298.899989 171.162007 
L 300.891735 166.885191 
L 302.88348 163.179791 
L 304.875226 172.893606 
L 310.850463 184.31876 
L 312.842209 165.360546 
L 314.833954 161.728918 
L 316.8257 154.547067 
L 324.792683 143.208984 
L 326.784428 144.224941 
L 328.776174 143.936572 
L 330.76792 145.543021 
L 332.759665 148.900611 
L 338.734902 135.840908 
L 340.726648 125.131793 
L 342.718394 147.780217 
L 344.710139 140.670155 
L 346.701885 137.241102 
L 352.677122 136.905283 
L 354.668868 129.354493 
L 356.660613 127.355048 
L 358.652359 138.103058 
L 360.644105 135.228944 
L 368.611088 153.818912 
L 370.602833 158.602367 
L 372.594579 167.94779 
L 374.586325 187.426117 
L 380.561562 185.77717 
L 382.553307 195.336604 
L 384.545053 195.535235 
L 386.536799 200.586925 
L 388.528544 180.398759 
L 394.503781 162.953896 
L 396.495527 154.305808 
L 398.487273 185.175246 
" style="fill:none;stroke:#0000ff;stroke-linecap:square;stroke-opacity:0.9;stroke-width:2;"/>
   </g>
   <g id="line2d_14">
    <path clip-path="url(#p937f3b4d07)" d="M 73.832727 184.708938 
L 75.824473 180.637223 
L 77.816219 176.040817 
L 79.807964 181.297084 
L 81.79971 171.376927 
L 87.774947 168.824927 
L 89.766693 167.75436 
L 91.758438 168.195686 
L 93.750184 169.438879 
L 95.74193 168.971154 
L 103.708912 167.631823 
L 105.700658 170.826775 
L 107.692404 172.291603 
L 109.684149 181.170973 
L 115.659387 175.103001 
L 117.651132 182.682452 
L 119.642878 179.343894 
L 121.634624 181.412465 
L 123.626369 191.440996 
L 129.601606 205.25941 
L 131.593352 204.887004 
L 133.585098 200.184344 
L 135.576843 190.168789 
L 137.568589 184.076179 
L 143.543826 178.778389 
L 145.535572 195.067971 
L 147.527317 193.890788 
L 149.519063 201.383024 
L 151.510809 189.893061 
L 157.486046 198.573133 
L 159.477791 187.027602 
L 161.469537 184.796963 
L 163.461283 183.187688 
L 165.453028 179.401874 
L 171.428265 184.050054 
L 173.420011 190.532342 
L 175.411757 192.207842 
L 177.403503 173.132921 
L 179.395248 167.137592 
L 185.370485 164.535131 
L 187.362231 158.114669 
L 189.353977 152.932382 
L 191.345722 163.989098 
L 193.337468 168.220961 
L 199.312705 170.463317 
L 201.304451 175.125117 
L 203.296196 179.857146 
L 205.287942 168.053395 
L 207.279688 166.548553 
L 213.254925 166.416761 
L 215.24667 163.702725 
L 217.238416 156.745231 
L 219.230162 158.908234 
L 221.221907 159.018656 
L 227.197144 157.764318 
L 229.18889 164.417012 
L 231.180636 168.920527 
L 233.172381 168.024036 
L 235.164127 162.587267 
L 241.139364 160.972041 
L 243.13111 163.212547 
L 245.122856 163.299325 
L 247.114601 163.677328 
L 249.106347 166.4734 
L 255.081584 163.138937 
L 257.07333 154.918173 
L 259.065075 154.884566 
L 263.048567 175.852335 
L 269.023804 167.203933 
L 271.015549 184.913499 
L 273.007295 194.139252 
L 274.999041 183.222499 
L 276.990786 189.581893 
L 282.966023 176.992913 
L 284.957769 163.398662 
L 286.949515 158.721568 
L 288.94126 159.328558 
L 290.933006 153.631787 
L 296.908243 162.401843 
L 298.899989 162.139713 
L 300.891735 155.296594 
L 302.88348 154.703909 
L 304.875226 165.573489 
L 310.850463 175.073357 
L 312.842209 159.7889 
L 314.833954 154.875086 
L 316.8257 147.253108 
L 324.792683 136.502854 
L 326.784428 136.874384 
L 328.776174 136.616589 
L 330.76792 138.089324 
L 332.759665 140.868799 
L 338.734902 131.917339 
L 340.726648 123.084056 
L 342.718394 141.82218 
L 344.710139 138.833036 
L 346.701885 134.479673 
L 352.677122 135.326229 
L 354.668868 129.688253 
L 356.660613 130.069316 
L 358.652359 136.434526 
L 360.644105 136.87564 
L 368.611088 155.465329 
L 370.602833 163.532554 
L 372.594579 171.633655 
L 374.586325 188.869168 
L 380.561562 189.782688 
L 382.553307 187.963853 
L 384.545053 188.976876 
L 386.536799 196.58294 
L 388.528544 177.091258 
L 394.503781 164.323091 
L 396.495527 154.316678 
L 398.487273 140.879461 
" style="fill:none;stroke:#ff0000;stroke-linecap:square;stroke-opacity:0.9;stroke-width:2;"/>
   </g>
   <g id="line2d_15">
    <path clip-path="url(#p937f3b4d07)" d="M 73.832727 184.708938 
L 75.824473 180.357887 
L 77.816219 176.90274 
L 79.807964 181.354737 
L 81.79971 173.466556 
L 87.774947 168.316473 
L 89.766693 167.023351 
L 91.758438 169.273853 
L 93.750184 167.928553 
L 95.74193 168.725382 
L 103.708912 168.492758 
L 105.700658 171.521937 
L 107.692404 173.582591 
L 109.684149 180.911597 
L 115.659387 174.404102 
L 117.651132 185.156665 
L 119.642878 180.717169 
L 121.634624 182.566675 
L 123.626369 189.917555 
L 129.601606 203.986759 
L 131.593352 205.738634 
L 133.585098 200.016175 
L 135.576843 186.938985 
L 137.568589 180.139436 
L 143.543826 172.798498 
L 145.535572 190.963153 
L 147.527317 188.07286 
L 149.519063 193.568392 
L 151.510809 181.071735 
L 157.486046 196.72452 
L 159.477791 184.074878 
L 161.469537 181.27413 
L 163.461283 178.886822 
L 165.453028 175.3878 
L 171.428265 179.865812 
L 173.420011 186.891003 
L 175.411757 188.377076 
L 177.403503 172.174665 
L 179.395248 170.688573 
L 185.370485 164.169455 
L 187.362231 156.072534 
L 189.353977 152.617299 
L 191.345722 165.990232 
L 193.337468 176.507527 
L 199.312705 176.089693 
L 201.304451 183.682924 
L 203.296196 185.51451 
L 205.287942 174.824647 
L 207.279688 173.34841 
L 213.254925 169.093747 
L 215.24667 167.757981 
L 217.238416 160.923081 
L 219.230162 160.324694 
L 221.221907 154.96771 
L 227.197144 154.016468 
L 229.18889 164.183991 
L 231.180636 170.445597 
L 233.172381 171.291874 
L 235.164127 164.602293 
L 241.139364 162.149005 
L 243.13111 166.006333 
L 245.122856 166.171285 
L 247.114601 168.727154 
L 249.106347 168.29744 
L 255.081584 163.355275 
L 257.07333 156.27871 
L 259.065075 157.581634 
L 263.048567 176.148557 
L 269.023804 165.891883 
L 271.015549 181.680385 
L 273.007295 192.743999 
L 274.999041 183.236378 
L 276.990786 188.746123 
L 282.966023 173.293158 
L 284.957769 158.594694 
L 286.949515 151.778065 
L 288.94126 151.449232 
L 290.933006 148.390147 
L 296.908243 156.874503 
L 298.899989 152.533195 
L 300.891735 148.120145 
L 302.88348 144.442419 
L 304.875226 154.686568 
L 310.850463 166.04057 
L 312.842209 146.535135 
L 314.833954 142.260968 
L 316.8257 134.47439 
L 324.792683 124.070252 
L 326.784428 124.385562 
L 328.776174 124.413423 
L 330.76792 125.56868 
L 332.759665 129.228303 
L 338.734902 115.833653 
L 340.726648 105.318069 
L 342.718394 128.059434 
L 344.710139 118.923465 
L 346.701885 116.066468 
L 352.677122 113.974147 
L 354.668868 106.286853 
L 356.660613 104.756447 
L 358.652359 114.794462 
L 360.644105 112.833695 
L 368.611088 131.175982 
L 370.602833 135.418433 
L 372.594579 145.181925 
L 374.586325 165.612062 
L 380.561562 164.105073 
L 382.553307 173.775484 
L 384.545053 173.747122 
L 386.536799 179.494273 
L 388.528544 157.888334 
L 394.503781 139.957026 
L 396.495527 131.235165 
L 398.487273 117.293561 
" style="fill:none;stroke:#ff8040;stroke-linecap:square;stroke-opacity:0.9;stroke-width:2;"/>
   </g>
   <g id="line2d_16">
    <path clip-path="url(#p937f3b4d07)" d="M 73.832727 185.523121 
L 75.824473 183.320632 
L 77.816219 181.722244 
L 79.807964 187.537136 
L 81.79971 178.234213 
L 87.774947 179.68012 
L 89.766693 179.240426 
L 91.758438 181.013097 
L 93.750184 181.916419 
L 95.74193 180.93078 
L 103.708912 178.869098 
L 105.700658 183.777662 
L 107.692404 185.904993 
L 109.684149 195.944 
L 115.659387 190.085057 
L 117.651132 198.903905 
L 119.642878 195.465986 
L 121.634624 198.378634 
L 123.626369 210.417628 
L 129.601606 226.079094 
L 131.593352 227.190416 
L 133.585098 223.558189 
L 135.576843 213.802553 
L 137.568589 209.416693 
L 143.543826 206.4831 
L 145.535572 226.085052 
L 147.527317 225.595384 
L 149.519063 232.014901 
L 151.510809 218.969705 
L 157.486046 227.007474 
L 159.477791 217.554935 
L 161.469537 214.875828 
L 163.461283 213.207298 
L 165.453028 210.422271 
L 171.428265 214.125419 
L 173.420011 220.926878 
L 175.411757 221.217534 
L 177.403503 203.098135 
L 179.395248 198.669222 
L 185.370485 193.583992 
L 187.362231 188.019655 
L 189.353977 184.859792 
L 191.345722 201.575272 
L 193.337468 212.528565 
L 199.312705 212.342256 
L 201.304451 220.573484 
L 203.296196 227.932023 
L 205.287942 216.760204 
L 207.279688 213.984998 
L 213.254925 213.385566 
L 215.24667 211.64182 
L 217.238416 204.460092 
L 219.230162 206.553254 
L 221.221907 208.417312 
L 227.197144 207.153341 
L 229.18889 213.341898 
L 231.180636 219.428132 
L 233.172381 218.384859 
L 235.164127 218.051273 
L 241.139364 218.654965 
L 243.13111 220.212558 
L 245.122856 219.60375 
L 247.114601 219.142488 
L 249.106347 214.760412 
L 255.081584 207.657616 
L 257.07333 202.826379 
L 259.065075 202.32964 
L 263.048567 225.776235 
L 269.023804 218.957886 
L 271.015549 229.499842 
L 273.007295 240.455142 
L 274.999041 234.933981 
L 276.990786 240.065736 
L 282.966023 230.932908 
L 284.957769 216.658626 
L 286.949515 212.078009 
L 288.94126 213.712221 
L 290.933006 208.400335 
L 296.908243 215.091204 
L 298.899989 212.033182 
L 300.891735 207.874838 
L 302.88348 205.279567 
L 304.875226 217.813662 
L 310.850463 225.501829 
L 312.842209 211.897459 
L 314.833954 208.205384 
L 316.8257 203.173543 
L 324.792683 192.927898 
L 326.784428 192.779564 
L 328.776174 193.209513 
L 330.76792 194.039864 
L 332.759665 197.286466 
L 338.734902 187.687209 
L 340.726648 182.586669 
L 342.718394 203.450311 
L 344.710139 199.407857 
L 346.701885 197.08124 
L 352.677122 197.699925 
L 354.668868 194.01794 
L 356.660613 192.792458 
L 358.652359 198.471465 
L 360.644105 200.708882 
L 368.611088 217.90075 
L 370.602833 225.400229 
L 372.594579 233.046324 
L 374.586325 251.217534 
L 380.561562 250.779101 
L 382.553307 257.70291 
L 384.545053 259.026657 
L 386.536799 265.797818 
L 388.528544 246.868559 
L 394.503781 235.557421 
L 396.495527 229.007083 
L 398.487273 214.688445 
" style="fill:none;stroke:#0d0d0d;stroke-linecap:square;stroke-opacity:0.25;stroke-width:2;"/>
   </g>
   <g id="line2d_17">
    <path clip-path="url(#p937f3b4d07)" d="M 73.832727 183.894755 
L 75.824473 177.635314 
L 77.816219 172.752408 
L 79.807964 175.696641 
L 81.79971 163.722338 
L 87.774947 153.259231 
L 89.766693 151.26317 
L 91.758438 150.317096 
L 93.750184 150.62577 
L 95.74193 151.464855 
L 103.708912 149.552521 
L 105.700658 151.901916 
L 107.692404 152.680331 
L 109.684149 163.12551 
L 115.659387 154.864938 
L 117.651132 166.014314 
L 119.642878 162.183756 
L 121.634624 164.609038 
L 123.626369 173.003054 
L 129.601606 182.356963 
L 131.593352 181.749939 
L 133.585098 178.773119 
L 135.576843 161.239906 
L 137.568589 155.68135 
L 143.543826 152.97825 
L 145.535572 171.077393 
L 147.527317 169.310393 
L 149.519063 177.018505 
L 151.510809 168.23253 
L 157.486046 178.755985 
L 159.477791 162.983782 
L 161.469537 161.079721 
L 163.461283 157.917199 
L 165.453028 152.953554 
L 171.428265 156.932869 
L 173.420011 162.622343 
L 175.411757 164.11775 
L 177.403503 142.544486 
L 179.395248 135.690252 
L 185.370485 134.279379 
L 187.362231 127.560691 
L 189.353977 121.629326 
L 191.345722 125.13192 
L 193.337468 129.966288 
L 199.312705 133.148936 
L 201.304451 137.630275 
L 203.296196 140.366231 
L 205.287942 127.980602 
L 207.279688 122.395359 
L 213.254925 121.497222 
L 215.24667 117.887989 
L 217.238416 110.759966 
L 219.230162 111.553273 
L 221.221907 115.763393 
L 227.197144 115.864731 
L 229.18889 121.329391 
L 231.180636 126.521989 
L 233.172381 126.045345 
L 235.164127 120.263537 
L 241.139364 117.309052 
L 243.13111 117.242861 
L 245.122856 119.325259 
L 247.114601 116.352604 
L 249.106347 123.860853 
L 255.081584 112.954368 
L 257.07333 104.920175 
L 259.065075 102.092979 
L 263.048567 128.706455 
L 269.023804 120.809326 
L 271.015549 140.576164 
L 273.007295 152.957117 
L 274.999041 134.562195 
L 276.990786 140.03725 
L 282.966023 124.199844 
L 284.957769 108.989315 
L 286.949515 104.565873 
L 288.94126 105.002969 
L 290.933006 97.358266 
L 296.908243 102.391352 
L 298.899989 102.988471 
L 300.891735 95.488606 
L 302.88348 92.262643 
L 304.875226 105.386678 
L 310.850463 116.457794 
L 312.842209 100.093181 
L 314.833954 94.496319 
L 316.8257 85.464392 
L 324.792683 74.257208 
L 326.784428 72.509107 
L 328.776174 72.003863 
L 330.76792 71.249325 
L 332.759665 76.233055 
L 338.734902 62.392715 
L 340.726648 52.154182 
L 342.718394 72.388534 
L 344.710139 63.131403 
L 346.701885 58.464918 
L 352.677122 60.122392 
L 354.668868 55.529582 
L 356.660613 56.799717 
L 358.652359 61.991455 
L 360.644105 60.492024 
L 368.611088 81.479984 
L 370.602833 92.359535 
L 372.594579 102.536815 
L 374.586325 124.250048 
L 380.561562 127.06091 
L 382.553307 122.957819 
L 384.545053 121.074347 
L 386.536799 128.327564 
L 388.528544 107.43569 
L 394.503781 95.114148 
L 396.495527 86.092477 
L 398.487273 68.827176 
" style="fill:none;stroke:#0d0d0d;stroke-linecap:square;stroke-opacity:0.25;stroke-width:2;"/>
   </g>
   <g id="patch_3">
    <path d="M 57.6 276.48 
L 57.6 41.472 
" style="fill:none;stroke:#000000;stroke-linecap:square;stroke-linejoin:miter;stroke-width:0.8;"/>
   </g>
   <g id="patch_4">
    <path d="M 414.72 276.48 
L 414.72 41.472 
" style="fill:none;stroke:#000000;stroke-linecap:square;stroke-linejoin:miter;stroke-width:0.8;"/>
   </g>
   <g id="patch_5">
    <path d="M 57.6 276.48 
L 414.72 276.48 
" style="fill:none;stroke:#000000;stroke-linecap:square;stroke-linejoin:miter;stroke-width:0.8;"/>
   </g>
   <g id="patch_6">
    <path d="M 57.6 41.472 
L 414.72 41.472 
" style="fill:none;stroke:#000000;stroke-linecap:square;stroke-linejoin:miter;stroke-width:0.8;"/>
   </g>
   <g id="text_14">
    <!-- TESTFUNDS1550 -->
    <g transform="translate(185.200312 22.034625)scale(0.12 -0.12)">
     <defs>
      <path d="M -19 4666 
L 3928 4666 
L 3928 4134 
L 2272 4134 
L 2272 0 
L 1638 0 
L 1638 4134 
L -19 4134 
L -19 4666 
z
" id="DejaVuSans-54" transform="scale(0.015625)"/>
      <path d="M 628 4666 
L 3578 4666 
L 3578 4134 
L 1259 4134 
L 1259 2753 
L 3481 2753 
L 3481 2222 
L 1259 2222 
L 1259 531 
L 3634 531 
L 3634 0 
L 628 0 
L 628 4666 
z
" id="DejaVuSans-45" transform="scale(0.015625)"/>
      <path d="M 3425 4513 
L 3425 3897 
Q 3066 4069 2747 4153 
Q 2428 4238 2131 4238 
Q 1616 4238 1336 4038 
Q 1056 3838 1056 3469 
Q 1056 3159 1242 3001 
Q 1428 2844 1947 2747 
L 2328 2669 
Q 3034 2534 3370 2195 
Q 3706 1856 3706 1288 
Q 3706 609 3251 259 
Q 2797 -91 1919 -91 
Q 1588 -91 1214 -16 
Q 841 59 441 206 
L 441 856 
Q 825 641 1194 531 
Q 1563 422 1919 422 
Q 2459 422 2753 634 
Q 3047 847 3047 1241 
Q 3047 1584 2836 1778 
Q 2625 1972 2144 2069 
L 1759 2144 
Q 1053 2284 737 2584 
Q 422 2884 422 3419 
Q 422 4038 858 4394 
Q 1294 4750 2059 4750 
Q 2388 4750 2728 4690 
Q 3069 4631 3425 4513 
z
" id="DejaVuSans-53" transform="scale(0.015625)"/>
      <path d="M 628 4666 
L 3309 4666 
L 3309 4134 
L 1259 4134 
L 1259 2759 
L 3109 2759 
L 3109 2228 
L 1259 2228 
L 1259 0 
L 628 0 
L 628 4666 
z
" id="DejaVuSans-46" transform="scale(0.015625)"/>
      <path d="M 556 4666 
L 1191 4666 
L 1191 1831 
Q 1191 1081 1462 751 
Q 1734 422 2344 422 
Q 2950 422 3222 751 
Q 3494 1081 3494 1831 
L 3494 4666 
L 4128 4666 
L 4128 1753 
Q 4128 841 3676 375 
Q 3225 -91 2344 -91 
Q 1459 -91 1007 375 
Q 556 841 556 1753 
L 556 4666 
z
" id="DejaVuSans-55" transform="scale(0.015625)"/>
      <path d="M 628 4666 
L 1478 4666 
L 3547 763 
L 3547 4666 
L 4159 4666 
L 4159 0 
L 3309 0 
L 1241 3903 
L 1241 0 
L 628 0 
L 628 4666 
z
" id="DejaVuSans-4e" transform="scale(0.015625)"/>
      <path d="M 1259 4147 
L 1259 519 
L 2022 519 
Q 2988 519 3436 956 
Q 3884 1394 3884 2338 
Q 3884 3275 3436 3711 
Q 2988 4147 2022 4147 
L 1259 4147 
z
M 628 4666 
L 1925 4666 
Q 3281 4666 3915 4102 
Q 4550 3538 4550 2338 
Q 4550 1131 3912 565 
Q 3275 0 1925 0 
L 628 0 
L 628 4666 
z
" id="DejaVuSans-44" transform="scale(0.015625)"/>
     </defs>
     <use xlink:href="#DejaVuSans-54"/>
     <use x="61.083984" xlink:href="#DejaVuSans-45"/>
     <use x="124.267578" xlink:href="#DejaVuSans-53"/>
     <use x="187.744141" xlink:href="#DejaVuSans-54"/>
     <use x="248.828125" xlink:href="#DejaVuSans-46"/>
     <use x="306.347656" xlink:href="#DejaVuSans-55"/>
     <use x="379.541016" xlink:href="#DejaVuSans-4e"/>
     <use x="454.345703" xlink:href="#DejaVuSans-44"/>
     <use x="531.347656" xlink:href="#DejaVuSans-53"/>
     <use x="594.824219" xlink:href="#DejaVuSans-31"/>
     <use x="658.447266" xlink:href="#DejaVuSans-35"/>
     <use x="722.070312" xlink:href="#DejaVuSans-35"/>
     <use x="785.693359" xlink:href="#DejaVuSans-30"/>
    </g>
    <!-- daily_report -->
    <g transform="translate(200.466563 35.472)scale(0.12 -0.12)">
     <defs>
      <path d="M 603 3500 
L 1178 3500 
L 1178 0 
L 603 0 
L 603 3500 
z
M 603 4863 
L 1178 4863 
L 1178 4134 
L 603 4134 
L 603 4863 
z
" id="DejaVuSans-69" transform="scale(0.015625)"/>
      <path d="M 603 4863 
L 1178 4863 
L 1178 0 
L 603 0 
L 603 4863 
z
" id="DejaVuSans-6c" transform="scale(0.015625)"/>
      <path d="M 2059 -325 
Q 1816 -950 1584 -1140 
Q 1353 -1331 966 -1331 
L 506 -1331 
L 506 -850 
L 844 -850 
Q 1081 -850 1212 -737 
Q 1344 -625 1503 -206 
L 1606 56 
L 191 3500 
L 800 3500 
L 1894 763 
L 2988 3500 
L 3597 3500 
L 2059 -325 
z
" id="DejaVuSans-79" transform="scale(0.015625)"/>
      <path d="M 3263 -1063 
L 3263 -1509 
L -63 -1509 
L -63 -1063 
L 3263 -1063 
z
" id="DejaVuSans-5f" transform="scale(0.015625)"/>
      <path d="M 2631 2963 
Q 2534 3019 2420 3045 
Q 2306 3072 2169 3072 
Q 1681 3072 1420 2755 
Q 1159 2438 1159 1844 
L 1159 0 
L 581 0 
L 581 3500 
L 1159 3500 
L 1159 2956 
Q 1341 3275 1631 3429 
Q 1922 3584 2338 3584 
Q 2397 3584 2469 3576 
Q 2541 3569 2628 3553 
L 2631 2963 
z
" id="DejaVuSans-72" transform="scale(0.015625)"/>
      <path d="M 1159 525 
L 1159 -1331 
L 581 -1331 
L 581 3500 
L 1159 3500 
L 1159 2969 
Q 1341 3281 1617 3432 
Q 1894 3584 2278 3584 
Q 2916 3584 3314 3078 
Q 3713 2572 3713 1747 
Q 3713 922 3314 415 
Q 2916 -91 2278 -91 
Q 1894 -91 1617 61 
Q 1341 213 1159 525 
z
M 3116 1747 
Q 3116 2381 2855 2742 
Q 2594 3103 2138 3103 
Q 1681 3103 1420 2742 
Q 1159 2381 1159 1747 
Q 1159 1113 1420 752 
Q 1681 391 2138 391 
Q 2594 391 2855 752 
Q 3116 1113 3116 1747 
z
" id="DejaVuSans-70" transform="scale(0.015625)"/>
      <path d="M 1959 3097 
Q 1497 3097 1228 2736 
Q 959 2375 959 1747 
Q 959 1119 1226 758 
Q 1494 397 1959 397 
Q 2419 397 2687 759 
Q 2956 1122 2956 1747 
Q 2956 2369 2687 2733 
Q 2419 3097 1959 3097 
z
M 1959 3584 
Q 2709 3584 3137 3096 
Q 3566 2609 3566 1747 
Q 3566 888 3137 398 
Q 2709 -91 1959 -91 
Q 1206 -91 779 398 
Q 353 888 353 1747 
Q 353 2609 779 3096 
Q 1206 3584 1959 3584 
z
" id="DejaVuSans-6f" transform="scale(0.015625)"/>
     </defs>
     <use xlink:href="#DejaVuSans-64"/>
     <use x="63.476562" xlink:href="#DejaVuSans-61"/>
     <use x="124.755859" xlink:href="#DejaVuSans-69"/>
     <use x="152.539062" xlink:href="#DejaVuSans-6c"/>
     <use x="180.322266" xlink:href="#DejaVuSans-79"/>
     <use x="239.501953" xlink:href="#DejaVuSans-5f"/>
     <use x="289.501953" xlink:href="#DejaVuSans-72"/>
     <use x="328.365234" xlink:href="#DejaVuSans-65"/>
     <use x="389.888672" xlink:href="#DejaVuSans-70"/>
     <use x="453.365234" xlink:href="#DejaVuSans-6f"/>
     <use x="514.546875" xlink:href="#DejaVuSans-72"/>
     <use x="555.660156" xlink:href="#DejaVuSans-74"/>
    </g>
   </g>
   <g id="legend_1">
    <g id="patch_7">
     <path d="M 64.6 122.862625 
L 155.792188 122.862625 
Q 157.792188 122.862625 157.792188 120.862625 
L 157.792188 48.472 
Q 157.792188 46.472 155.792188 46.472 
L 64.6 46.472 
Q 62.6 46.472 62.6 48.472 
L 62.6 120.862625 
Q 62.6 122.862625 64.6 122.862625 
z
" style="fill:#ffffff;opacity:0.8;stroke:#cccccc;stroke-linejoin:miter;"/>
    </g>
    <g id="line2d_18">
     <path d="M 66.6 54.570437 
L 86.6 54.570437 
" style="fill:none;stroke:#0000ff;stroke-linecap:square;stroke-opacity:0.9;stroke-width:2;"/>
    </g>
    <g id="line2d_19"/>
    <g id="text_15">
     <!-- alpaca -->
     <g transform="translate(94.6 58.070437)scale(0.1 -0.1)">
      <defs>
       <path d="M 3122 3366 
L 3122 2828 
Q 2878 2963 2633 3030 
Q 2388 3097 2138 3097 
Q 1578 3097 1268 2742 
Q 959 2388 959 1747 
Q 959 1106 1268 751 
Q 1578 397 2138 397 
Q 2388 397 2633 464 
Q 2878 531 3122 666 
L 3122 134 
Q 2881 22 2623 -34 
Q 2366 -91 2075 -91 
Q 1284 -91 818 406 
Q 353 903 353 1747 
Q 353 2603 823 3093 
Q 1294 3584 2113 3584 
Q 2378 3584 2631 3529 
Q 2884 3475 3122 3366 
z
" id="DejaVuSans-63" transform="scale(0.015625)"/>
      </defs>
      <use xlink:href="#DejaVuSans-61"/>
      <use x="61.279297" xlink:href="#DejaVuSans-6c"/>
      <use x="89.0625" xlink:href="#DejaVuSans-70"/>
      <use x="152.539062" xlink:href="#DejaVuSans-61"/>
      <use x="213.818359" xlink:href="#DejaVuSans-63"/>
      <use x="268.798828" xlink:href="#DejaVuSans-61"/>
     </g>
    </g>
    <g id="line2d_20">
     <path d="M 66.6 69.248562 
L 86.6 69.248562 
" style="fill:none;stroke:#ff0000;stroke-linecap:square;stroke-opacity:0.9;stroke-width:2;"/>
    </g>
    <g id="line2d_21"/>
    <g id="text_16">
     <!-- mattress -->
     <g transform="translate(94.6 72.748562)scale(0.1 -0.1)">
      <defs>
       <path d="M 3328 2828 
Q 3544 3216 3844 3400 
Q 4144 3584 4550 3584 
Q 5097 3584 5394 3201 
Q 5691 2819 5691 2113 
L 5691 0 
L 5113 0 
L 5113 2094 
Q 5113 2597 4934 2840 
Q 4756 3084 4391 3084 
Q 3944 3084 3684 2787 
Q 3425 2491 3425 1978 
L 3425 0 
L 2847 0 
L 2847 2094 
Q 2847 2600 2669 2842 
Q 2491 3084 2119 3084 
Q 1678 3084 1418 2786 
Q 1159 2488 1159 1978 
L 1159 0 
L 581 0 
L 581 3500 
L 1159 3500 
L 1159 2956 
Q 1356 3278 1631 3431 
Q 1906 3584 2284 3584 
Q 2666 3584 2933 3390 
Q 3200 3197 3328 2828 
z
" id="DejaVuSans-6d" transform="scale(0.015625)"/>
       <path d="M 2834 3397 
L 2834 2853 
Q 2591 2978 2328 3040 
Q 2066 3103 1784 3103 
Q 1356 3103 1142 2972 
Q 928 2841 928 2578 
Q 928 2378 1081 2264 
Q 1234 2150 1697 2047 
L 1894 2003 
Q 2506 1872 2764 1633 
Q 3022 1394 3022 966 
Q 3022 478 2636 193 
Q 2250 -91 1575 -91 
Q 1294 -91 989 -36 
Q 684 19 347 128 
L 347 722 
Q 666 556 975 473 
Q 1284 391 1588 391 
Q 1994 391 2212 530 
Q 2431 669 2431 922 
Q 2431 1156 2273 1281 
Q 2116 1406 1581 1522 
L 1381 1569 
Q 847 1681 609 1914 
Q 372 2147 372 2553 
Q 372 3047 722 3315 
Q 1072 3584 1716 3584 
Q 2034 3584 2315 3537 
Q 2597 3491 2834 3397 
z
" id="DejaVuSans-73" transform="scale(0.015625)"/>
      </defs>
      <use xlink:href="#DejaVuSans-6d"/>
      <use x="97.412109" xlink:href="#DejaVuSans-61"/>
      <use x="158.691406" xlink:href="#DejaVuSans-74"/>
      <use x="197.900391" xlink:href="#DejaVuSans-74"/>
      <use x="237.109375" xlink:href="#DejaVuSans-72"/>
      <use x="275.972656" xlink:href="#DejaVuSans-65"/>
      <use x="337.496094" xlink:href="#DejaVuSans-73"/>
      <use x="389.595703" xlink:href="#DejaVuSans-73"/>
     </g>
    </g>
    <g id="line2d_22">
     <path d="M 66.6 83.926687 
L 86.6 83.926687 
" style="fill:none;stroke:#ff8040;stroke-linecap:square;stroke-opacity:0.9;stroke-width:2;"/>
    </g>
    <g id="line2d_23"/>
    <g id="text_17">
     <!-- trader-0850 -->
     <g transform="translate(94.6 87.426687)scale(0.1 -0.1)">
      <defs>
       <path d="M 2034 2216 
Q 1584 2216 1326 1975 
Q 1069 1734 1069 1313 
Q 1069 891 1326 650 
Q 1584 409 2034 409 
Q 2484 409 2743 651 
Q 3003 894 3003 1313 
Q 3003 1734 2745 1975 
Q 2488 2216 2034 2216 
z
M 1403 2484 
Q 997 2584 770 2862 
Q 544 3141 544 3541 
Q 544 4100 942 4425 
Q 1341 4750 2034 4750 
Q 2731 4750 3128 4425 
Q 3525 4100 3525 3541 
Q 3525 3141 3298 2862 
Q 3072 2584 2669 2484 
Q 3125 2378 3379 2068 
Q 3634 1759 3634 1313 
Q 3634 634 3220 271 
Q 2806 -91 2034 -91 
Q 1263 -91 848 271 
Q 434 634 434 1313 
Q 434 1759 690 2068 
Q 947 2378 1403 2484 
z
M 1172 3481 
Q 1172 3119 1398 2916 
Q 1625 2713 2034 2713 
Q 2441 2713 2670 2916 
Q 2900 3119 2900 3481 
Q 2900 3844 2670 4047 
Q 2441 4250 2034 4250 
Q 1625 4250 1398 4047 
Q 1172 3844 1172 3481 
z
" id="DejaVuSans-38" transform="scale(0.015625)"/>
      </defs>
      <use xlink:href="#DejaVuSans-74"/>
      <use x="39.208984" xlink:href="#DejaVuSans-72"/>
      <use x="80.322266" xlink:href="#DejaVuSans-61"/>
      <use x="141.601562" xlink:href="#DejaVuSans-64"/>
      <use x="205.078125" xlink:href="#DejaVuSans-65"/>
      <use x="266.601562" xlink:href="#DejaVuSans-72"/>
      <use x="301.339844" xlink:href="#DejaVuSans-2d"/>
      <use x="337.423828" xlink:href="#DejaVuSans-30"/>
      <use x="401.046875" xlink:href="#DejaVuSans-38"/>
      <use x="464.669922" xlink:href="#DejaVuSans-35"/>
      <use x="528.292969" xlink:href="#DejaVuSans-30"/>
     </g>
    </g>
    <g id="line2d_24">
     <path d="M 66.6 98.604812 
L 86.6 98.604812 
" style="fill:none;stroke:#0d0d0d;stroke-linecap:square;stroke-opacity:0.25;stroke-width:2;"/>
    </g>
    <g id="line2d_25"/>
    <g id="text_18">
     <!-- rando-min -->
     <g transform="translate(94.6 102.104812)scale(0.1 -0.1)">
      <defs>
       <path d="M 3513 2113 
L 3513 0 
L 2938 0 
L 2938 2094 
Q 2938 2591 2744 2837 
Q 2550 3084 2163 3084 
Q 1697 3084 1428 2787 
Q 1159 2491 1159 1978 
L 1159 0 
L 581 0 
L 581 3500 
L 1159 3500 
L 1159 2956 
Q 1366 3272 1645 3428 
Q 1925 3584 2291 3584 
Q 2894 3584 3203 3211 
Q 3513 2838 3513 2113 
z
" id="DejaVuSans-6e" transform="scale(0.015625)"/>
      </defs>
      <use xlink:href="#DejaVuSans-72"/>
      <use x="41.113281" xlink:href="#DejaVuSans-61"/>
      <use x="102.392578" xlink:href="#DejaVuSans-6e"/>
      <use x="165.771484" xlink:href="#DejaVuSans-64"/>
      <use x="229.248047" xlink:href="#DejaVuSans-6f"/>
      <use x="292.304688" xlink:href="#DejaVuSans-2d"/>
      <use x="328.388672" xlink:href="#DejaVuSans-6d"/>
      <use x="425.800781" xlink:href="#DejaVuSans-69"/>
      <use x="453.583984" xlink:href="#DejaVuSans-6e"/>
     </g>
    </g>
    <g id="line2d_26">
     <path d="M 66.6 113.282937 
L 86.6 113.282937 
" style="fill:none;stroke:#0d0d0d;stroke-linecap:square;stroke-opacity:0.25;stroke-width:2;"/>
    </g>
    <g id="line2d_27"/>
    <g id="text_19">
     <!-- rando-max -->
     <g transform="translate(94.6 116.782937)scale(0.1 -0.1)">
      <defs>
       <path d="M 3513 3500 
L 2247 1797 
L 3578 0 
L 2900 0 
L 1881 1375 
L 863 0 
L 184 0 
L 1544 1831 
L 300 3500 
L 978 3500 
L 1906 2253 
L 2834 3500 
L 3513 3500 
z
" id="DejaVuSans-78" transform="scale(0.015625)"/>
      </defs>
      <use xlink:href="#DejaVuSans-72"/>
      <use x="41.113281" xlink:href="#DejaVuSans-61"/>
      <use x="102.392578" xlink:href="#DejaVuSans-6e"/>
      <use x="165.771484" xlink:href="#DejaVuSans-64"/>
      <use x="229.248047" xlink:href="#DejaVuSans-6f"/>
      <use x="292.304688" xlink:href="#DejaVuSans-2d"/>
      <use x="328.388672" xlink:href="#DejaVuSans-6d"/>
      <use x="425.800781" xlink:href="#DejaVuSans-61"/>
      <use x="487.080078" xlink:href="#DejaVuSans-78"/>
     </g>
    </g>
   </g>
  </g>
 </g>
 <defs>
  <clipPath id="p937f3b4d07">
   <rect height="235.008" width="357.12" x="57.6" y="41.472"/>
  </clipPath>
 </defs>
</svg>
