<?xml version="1.0" encoding="utf-8" standalone="no"?>
<!DOCTYPE svg PUBLIC "-//W3C//DTD SVG 1.1//EN"
  "http://www.w3.org/Graphics/SVG/1.1/DTD/svg11.dtd">
<svg height="345.6pt" version="1.1" viewBox="0 0 460.8 345.6" width="460.8pt" xmlns="http://www.w3.org/2000/svg" xmlns:xlink="http://www.w3.org/1999/xlink">
 <metadata>
  <rdf:RDF xmlns:cc="http://creativecommons.org/ns#" xmlns:dc="http://purl.org/dc/elements/1.1/" xmlns:rdf="http://www.w3.org/1999/02/22-rdf-syntax-ns#">
   <cc:Work>
    <dc:type rdf:resource="http://purl.org/dc/dcmitype/StillImage"/>
    <dc:date>2022-05-25T01:01:36.417814</dc:date>
    <dc:format>image/svg+xml</dc:format>
    <dc:creator>
     <cc:Agent>
      <dc:title>Matplotlib v3.4.3, https://matplotlib.org/</dc:title>
     </cc:Agent>
    </dc:creator>
   </cc:Work>
  </rdf:RDF>
 </metadata>
 <defs>
  <style type="text/css">*{stroke-linecap:butt;stroke-linejoin:round;}</style>
 </defs>
 <g id="figure_1">
  <g id="patch_1">
   <path d="M 0 345.6 
L 460.8 345.6 
L 460.8 0 
L 0 0 
z
" style="fill:#ffffff;"/>
  </g>
  <g id="axes_1">
   <g id="patch_2">
    <path d="M 57.6 276.48 
L 414.72 276.48 
L 414.72 41.472 
L 57.6 41.472 
z
" style="fill:#ffffff;"/>
   </g>
   <g id="matplotlib.axis_1">
    <g id="xtick_1">
     <g id="line2d_1">
      <defs>
       <path d="M 0 0 
L 0 3.5 
" id="m00812b61b8" style="stroke:#000000;stroke-width:0.8;"/>
      </defs>
      <g>
       <use style="stroke:#000000;stroke-width:0.8;" x="84.496563" xlink:href="#m00812b61b8" y="276.48"/>
      </g>
     </g>
     <g id="text_1">
      <!-- 2021-09 -->
      <g transform="translate(47.271742 310.951846)rotate(-30)scale(0.1 -0.1)">
       <defs>
        <path d="M 1228 531 
L 3431 531 
L 3431 0 
L 469 0 
L 469 531 
Q 828 903 1448 1529 
Q 2069 2156 2228 2338 
Q 2531 2678 2651 2914 
Q 2772 3150 2772 3378 
Q 2772 3750 2511 3984 
Q 2250 4219 1831 4219 
Q 1534 4219 1204 4116 
Q 875 4013 500 3803 
L 500 4441 
Q 881 4594 1212 4672 
Q 1544 4750 1819 4750 
Q 2544 4750 2975 4387 
Q 3406 4025 3406 3419 
Q 3406 3131 3298 2873 
Q 3191 2616 2906 2266 
Q 2828 2175 2409 1742 
Q 1991 1309 1228 531 
z
" id="DejaVuSans-32" transform="scale(0.015625)"/>
        <path d="M 2034 4250 
Q 1547 4250 1301 3770 
Q 1056 3291 1056 2328 
Q 1056 1369 1301 889 
Q 1547 409 2034 409 
Q 2525 409 2770 889 
Q 3016 1369 3016 2328 
Q 3016 3291 2770 3770 
Q 2525 4250 2034 4250 
z
M 2034 4750 
Q 2819 4750 3233 4129 
Q 3647 3509 3647 2328 
Q 3647 1150 3233 529 
Q 2819 -91 2034 -91 
Q 1250 -91 836 529 
Q 422 1150 422 2328 
Q 422 3509 836 4129 
Q 1250 4750 2034 4750 
z
" id="DejaVuSans-30" transform="scale(0.015625)"/>
        <path d="M 794 531 
L 1825 531 
L 1825 4091 
L 703 3866 
L 703 4441 
L 1819 4666 
L 2450 4666 
L 2450 531 
L 3481 531 
L 3481 0 
L 794 0 
L 794 531 
z
" id="DejaVuSans-31" transform="scale(0.015625)"/>
        <path d="M 313 2009 
L 1997 2009 
L 1997 1497 
L 313 1497 
L 313 2009 
z
" id="DejaVuSans-2d" transform="scale(0.015625)"/>
        <path d="M 703 97 
L 703 672 
Q 941 559 1184 500 
Q 1428 441 1663 441 
Q 2288 441 2617 861 
Q 2947 1281 2994 2138 
Q 2813 1869 2534 1725 
Q 2256 1581 1919 1581 
Q 1219 1581 811 2004 
Q 403 2428 403 3163 
Q 403 3881 828 4315 
Q 1253 4750 1959 4750 
Q 2769 4750 3195 4129 
Q 3622 3509 3622 2328 
Q 3622 1225 3098 567 
Q 2575 -91 1691 -91 
Q 1453 -91 1209 -44 
Q 966 3 703 97 
z
M 1959 2075 
Q 2384 2075 2632 2365 
Q 2881 2656 2881 3163 
Q 2881 3666 2632 3958 
Q 2384 4250 1959 4250 
Q 1534 4250 1286 3958 
Q 1038 3666 1038 3163 
Q 1038 2656 1286 2365 
Q 1534 2075 1959 2075 
z
" id="DejaVuSans-39" transform="scale(0.015625)"/>
       </defs>
       <use xlink:href="#DejaVuSans-32"/>
       <use x="63.623047" xlink:href="#DejaVuSans-30"/>
       <use x="127.246094" xlink:href="#DejaVuSans-32"/>
       <use x="190.869141" xlink:href="#DejaVuSans-31"/>
       <use x="254.492188" xlink:href="#DejaVuSans-2d"/>
       <use x="290.576172" xlink:href="#DejaVuSans-30"/>
       <use x="354.199219" xlink:href="#DejaVuSans-39"/>
      </g>
     </g>
    </g>
    <g id="xtick_2">
     <g id="line2d_2">
      <g>
       <use style="stroke:#000000;stroke-width:0.8;" x="120.042681" xlink:href="#m00812b61b8" y="276.48"/>
      </g>
     </g>
     <g id="text_2">
      <!-- 2021-10 -->
      <g transform="translate(82.81786 310.951846)rotate(-30)scale(0.1 -0.1)">
       <use xlink:href="#DejaVuSans-32"/>
       <use x="63.623047" xlink:href="#DejaVuSans-30"/>
       <use x="127.246094" xlink:href="#DejaVuSans-32"/>
       <use x="190.869141" xlink:href="#DejaVuSans-31"/>
       <use x="254.492188" xlink:href="#DejaVuSans-2d"/>
       <use x="290.576172" xlink:href="#DejaVuSans-31"/>
       <use x="354.199219" xlink:href="#DejaVuSans-30"/>
      </g>
     </g>
    </g>
    <g id="xtick_3">
     <g id="line2d_3">
      <g>
       <use style="stroke:#000000;stroke-width:0.8;" x="156.77367" xlink:href="#m00812b61b8" y="276.48"/>
      </g>
     </g>
     <g id="text_3">
      <!-- 2021-11 -->
      <g transform="translate(119.548849 310.951846)rotate(-30)scale(0.1 -0.1)">
       <use xlink:href="#DejaVuSans-32"/>
       <use x="63.623047" xlink:href="#DejaVuSans-30"/>
       <use x="127.246094" xlink:href="#DejaVuSans-32"/>
       <use x="190.869141" xlink:href="#DejaVuSans-31"/>
       <use x="254.492188" xlink:href="#DejaVuSans-2d"/>
       <use x="290.576172" xlink:href="#DejaVuSans-31"/>
       <use x="354.199219" xlink:href="#DejaVuSans-31"/>
      </g>
     </g>
    </g>
    <g id="xtick_4">
     <g id="line2d_4">
      <g>
       <use style="stroke:#000000;stroke-width:0.8;" x="192.319788" xlink:href="#m00812b61b8" y="276.48"/>
      </g>
     </g>
     <g id="text_4">
      <!-- 2021-12 -->
      <g transform="translate(155.094967 310.951846)rotate(-30)scale(0.1 -0.1)">
       <use xlink:href="#DejaVuSans-32"/>
       <use x="63.623047" xlink:href="#DejaVuSans-30"/>
       <use x="127.246094" xlink:href="#DejaVuSans-32"/>
       <use x="190.869141" xlink:href="#DejaVuSans-31"/>
       <use x="254.492188" xlink:href="#DejaVuSans-2d"/>
       <use x="290.576172" xlink:href="#DejaVuSans-31"/>
       <use x="354.199219" xlink:href="#DejaVuSans-32"/>
      </g>
     </g>
    </g>
    <g id="xtick_5">
     <g id="line2d_5">
      <g>
       <use style="stroke:#000000;stroke-width:0.8;" x="229.050776" xlink:href="#m00812b61b8" y="276.48"/>
      </g>
     </g>
     <g id="text_5">
      <!-- 2022-01 -->
      <g transform="translate(191.825956 310.951846)rotate(-30)scale(0.1 -0.1)">
       <use xlink:href="#DejaVuSans-32"/>
       <use x="63.623047" xlink:href="#DejaVuSans-30"/>
       <use x="127.246094" xlink:href="#DejaVuSans-32"/>
       <use x="190.869141" xlink:href="#DejaVuSans-32"/>
       <use x="254.492188" xlink:href="#DejaVuSans-2d"/>
       <use x="290.576172" xlink:href="#DejaVuSans-30"/>
       <use x="354.199219" xlink:href="#DejaVuSans-31"/>
      </g>
     </g>
    </g>
    <g id="xtick_6">
     <g id="line2d_6">
      <g>
       <use style="stroke:#000000;stroke-width:0.8;" x="265.781765" xlink:href="#m00812b61b8" y="276.48"/>
      </g>
     </g>
     <g id="text_6">
      <!-- 2022-02 -->
      <g transform="translate(228.556944 310.951846)rotate(-30)scale(0.1 -0.1)">
       <use xlink:href="#DejaVuSans-32"/>
       <use x="63.623047" xlink:href="#DejaVuSans-30"/>
       <use x="127.246094" xlink:href="#DejaVuSans-32"/>
       <use x="190.869141" xlink:href="#DejaVuSans-32"/>
       <use x="254.492188" xlink:href="#DejaVuSans-2d"/>
       <use x="290.576172" xlink:href="#DejaVuSans-30"/>
       <use x="354.199219" xlink:href="#DejaVuSans-32"/>
      </g>
     </g>
    </g>
    <g id="xtick_7">
     <g id="line2d_7">
      <g>
       <use style="stroke:#000000;stroke-width:0.8;" x="298.958142" xlink:href="#m00812b61b8" y="276.48"/>
      </g>
     </g>
     <g id="text_7">
      <!-- 2022-03 -->
      <g transform="translate(261.733321 310.951846)rotate(-30)scale(0.1 -0.1)">
       <defs>
        <path d="M 2597 2516 
Q 3050 2419 3304 2112 
Q 3559 1806 3559 1356 
Q 3559 666 3084 287 
Q 2609 -91 1734 -91 
Q 1441 -91 1130 -33 
Q 819 25 488 141 
L 488 750 
Q 750 597 1062 519 
Q 1375 441 1716 441 
Q 2309 441 2620 675 
Q 2931 909 2931 1356 
Q 2931 1769 2642 2001 
Q 2353 2234 1838 2234 
L 1294 2234 
L 1294 2753 
L 1863 2753 
Q 2328 2753 2575 2939 
Q 2822 3125 2822 3475 
Q 2822 3834 2567 4026 
Q 2313 4219 1838 4219 
Q 1578 4219 1281 4162 
Q 984 4106 628 3988 
L 628 4550 
Q 988 4650 1302 4700 
Q 1616 4750 1894 4750 
Q 2613 4750 3031 4423 
Q 3450 4097 3450 3541 
Q 3450 3153 3228 2886 
Q 3006 2619 2597 2516 
z
" id="DejaVuSans-33" transform="scale(0.015625)"/>
       </defs>
       <use xlink:href="#DejaVuSans-32"/>
       <use x="63.623047" xlink:href="#DejaVuSans-30"/>
       <use x="127.246094" xlink:href="#DejaVuSans-32"/>
       <use x="190.869141" xlink:href="#DejaVuSans-32"/>
       <use x="254.492188" xlink:href="#DejaVuSans-2d"/>
       <use x="290.576172" xlink:href="#DejaVuSans-30"/>
       <use x="354.199219" xlink:href="#DejaVuSans-33"/>
      </g>
     </g>
    </g>
    <g id="xtick_8">
     <g id="line2d_8">
      <g>
       <use style="stroke:#000000;stroke-width:0.8;" x="335.689131" xlink:href="#m00812b61b8" y="276.48"/>
      </g>
     </g>
     <g id="text_8">
      <!-- 2022-04 -->
      <g transform="translate(298.46431 310.951846)rotate(-30)scale(0.1 -0.1)">
       <defs>
        <path d="M 2419 4116 
L 825 1625 
L 2419 1625 
L 2419 4116 
z
M 2253 4666 
L 3047 4666 
L 3047 1625 
L 3713 1625 
L 3713 1100 
L 3047 1100 
L 3047 0 
L 2419 0 
L 2419 1100 
L 313 1100 
L 313 1709 
L 2253 4666 
z
" id="DejaVuSans-34" transform="scale(0.015625)"/>
       </defs>
       <use xlink:href="#DejaVuSans-32"/>
       <use x="63.623047" xlink:href="#DejaVuSans-30"/>
       <use x="127.246094" xlink:href="#DejaVuSans-32"/>
       <use x="190.869141" xlink:href="#DejaVuSans-32"/>
       <use x="254.492188" xlink:href="#DejaVuSans-2d"/>
       <use x="290.576172" xlink:href="#DejaVuSans-30"/>
       <use x="354.199219" xlink:href="#DejaVuSans-34"/>
      </g>
     </g>
    </g>
    <g id="xtick_9">
     <g id="line2d_9">
      <g>
       <use style="stroke:#000000;stroke-width:0.8;" x="371.235249" xlink:href="#m00812b61b8" y="276.48"/>
      </g>
     </g>
     <g id="text_9">
      <!-- 2022-05 -->
      <g transform="translate(334.010428 310.951846)rotate(-30)scale(0.1 -0.1)">
       <defs>
        <path d="M 691 4666 
L 3169 4666 
L 3169 4134 
L 1269 4134 
L 1269 2991 
Q 1406 3038 1543 3061 
Q 1681 3084 1819 3084 
Q 2600 3084 3056 2656 
Q 3513 2228 3513 1497 
Q 3513 744 3044 326 
Q 2575 -91 1722 -91 
Q 1428 -91 1123 -41 
Q 819 9 494 109 
L 494 744 
Q 775 591 1075 516 
Q 1375 441 1709 441 
Q 2250 441 2565 725 
Q 2881 1009 2881 1497 
Q 2881 1984 2565 2268 
Q 2250 2553 1709 2553 
Q 1456 2553 1204 2497 
Q 953 2441 691 2322 
L 691 4666 
z
" id="DejaVuSans-35" transform="scale(0.015625)"/>
       </defs>
       <use xlink:href="#DejaVuSans-32"/>
       <use x="63.623047" xlink:href="#DejaVuSans-30"/>
       <use x="127.246094" xlink:href="#DejaVuSans-32"/>
       <use x="190.869141" xlink:href="#DejaVuSans-32"/>
       <use x="254.492188" xlink:href="#DejaVuSans-2d"/>
       <use x="290.576172" xlink:href="#DejaVuSans-30"/>
       <use x="354.199219" xlink:href="#DejaVuSans-35"/>
      </g>
     </g>
    </g>
    <g id="xtick_10">
     <g id="line2d_10">
      <g>
       <use style="stroke:#000000;stroke-width:0.8;" x="407.966238" xlink:href="#m00812b61b8" y="276.48"/>
      </g>
     </g>
     <g id="text_10">
      <!-- 2022-06 -->
      <g transform="translate(370.741417 310.951846)rotate(-30)scale(0.1 -0.1)">
       <defs>
        <path d="M 2113 2584 
Q 1688 2584 1439 2293 
Q 1191 2003 1191 1497 
Q 1191 994 1439 701 
Q 1688 409 2113 409 
Q 2538 409 2786 701 
Q 3034 994 3034 1497 
Q 3034 2003 2786 2293 
Q 2538 2584 2113 2584 
z
M 3366 4563 
L 3366 3988 
Q 3128 4100 2886 4159 
Q 2644 4219 2406 4219 
Q 1781 4219 1451 3797 
Q 1122 3375 1075 2522 
Q 1259 2794 1537 2939 
Q 1816 3084 2150 3084 
Q 2853 3084 3261 2657 
Q 3669 2231 3669 1497 
Q 3669 778 3244 343 
Q 2819 -91 2113 -91 
Q 1303 -91 875 529 
Q 447 1150 447 2328 
Q 447 3434 972 4092 
Q 1497 4750 2381 4750 
Q 2619 4750 2861 4703 
Q 3103 4656 3366 4563 
z
" id="DejaVuSans-36" transform="scale(0.015625)"/>
       </defs>
       <use xlink:href="#DejaVuSans-32"/>
       <use x="63.623047" xlink:href="#DejaVuSans-30"/>
       <use x="127.246094" xlink:href="#DejaVuSans-32"/>
       <use x="190.869141" xlink:href="#DejaVuSans-32"/>
       <use x="254.492188" xlink:href="#DejaVuSans-2d"/>
       <use x="290.576172" xlink:href="#DejaVuSans-30"/>
       <use x="354.199219" xlink:href="#DejaVuSans-36"/>
      </g>
     </g>
    </g>
    <g id="text_11">
     <!-- date -->
     <g transform="translate(224.885 324.351346)scale(0.1 -0.1)">
      <defs>
       <path d="M 2906 2969 
L 2906 4863 
L 3481 4863 
L 3481 0 
L 2906 0 
L 2906 525 
Q 2725 213 2448 61 
Q 2172 -91 1784 -91 
Q 1150 -91 751 415 
Q 353 922 353 1747 
Q 353 2572 751 3078 
Q 1150 3584 1784 3584 
Q 2172 3584 2448 3432 
Q 2725 3281 2906 2969 
z
M 947 1747 
Q 947 1113 1208 752 
Q 1469 391 1925 391 
Q 2381 391 2643 752 
Q 2906 1113 2906 1747 
Q 2906 2381 2643 2742 
Q 2381 3103 1925 3103 
Q 1469 3103 1208 2742 
Q 947 2381 947 1747 
z
" id="DejaVuSans-64" transform="scale(0.015625)"/>
       <path d="M 2194 1759 
Q 1497 1759 1228 1600 
Q 959 1441 959 1056 
Q 959 750 1161 570 
Q 1363 391 1709 391 
Q 2188 391 2477 730 
Q 2766 1069 2766 1631 
L 2766 1759 
L 2194 1759 
z
M 3341 1997 
L 3341 0 
L 2766 0 
L 2766 531 
Q 2569 213 2275 61 
Q 1981 -91 1556 -91 
Q 1019 -91 701 211 
Q 384 513 384 1019 
Q 384 1609 779 1909 
Q 1175 2209 1959 2209 
L 2766 2209 
L 2766 2266 
Q 2766 2663 2505 2880 
Q 2244 3097 1772 3097 
Q 1472 3097 1187 3025 
Q 903 2953 641 2809 
L 641 3341 
Q 956 3463 1253 3523 
Q 1550 3584 1831 3584 
Q 2591 3584 2966 3190 
Q 3341 2797 3341 1997 
z
" id="DejaVuSans-61" transform="scale(0.015625)"/>
       <path d="M 1172 4494 
L 1172 3500 
L 2356 3500 
L 2356 3053 
L 1172 3053 
L 1172 1153 
Q 1172 725 1289 603 
Q 1406 481 1766 481 
L 2356 481 
L 2356 0 
L 1766 0 
Q 1100 0 847 248 
Q 594 497 594 1153 
L 594 3053 
L 172 3053 
L 172 3500 
L 594 3500 
L 594 4494 
L 1172 4494 
z
" id="DejaVuSans-74" transform="scale(0.015625)"/>
       <path d="M 3597 1894 
L 3597 1613 
L 953 1613 
Q 991 1019 1311 708 
Q 1631 397 2203 397 
Q 2534 397 2845 478 
Q 3156 559 3463 722 
L 3463 178 
Q 3153 47 2828 -22 
Q 2503 -91 2169 -91 
Q 1331 -91 842 396 
Q 353 884 353 1716 
Q 353 2575 817 3079 
Q 1281 3584 2069 3584 
Q 2775 3584 3186 3129 
Q 3597 2675 3597 1894 
z
M 3022 2063 
Q 3016 2534 2758 2815 
Q 2500 3097 2075 3097 
Q 1594 3097 1305 2825 
Q 1016 2553 972 2059 
L 3022 2063 
z
" id="DejaVuSans-65" transform="scale(0.015625)"/>
      </defs>
      <use xlink:href="#DejaVuSans-64"/>
      <use x="63.476562" xlink:href="#DejaVuSans-61"/>
      <use x="124.755859" xlink:href="#DejaVuSans-74"/>
      <use x="163.964844" xlink:href="#DejaVuSans-65"/>
     </g>
    </g>
   </g>
   <g id="matplotlib.axis_2">
    <g id="ytick_1">
     <g id="line2d_11">
      <defs>
       <path d="M 0 0 
L -3.5 0 
" id="m4d3b770216" style="stroke:#000000;stroke-width:0.8;"/>
      </defs>
      <g>
       <use style="stroke:#000000;stroke-width:0.8;" x="57.6" xlink:href="#m4d3b770216" y="252.679517"/>
      </g>
     </g>
     <g id="text_12">
      <!-- 80000 -->
      <g transform="translate(18.7875 256.478736)scale(0.1 -0.1)">
       <defs>
        <path d="M 2034 2216 
Q 1584 2216 1326 1975 
Q 1069 1734 1069 1313 
Q 1069 891 1326 650 
Q 1584 409 2034 409 
Q 2484 409 2743 651 
Q 3003 894 3003 1313 
Q 3003 1734 2745 1975 
Q 2488 2216 2034 2216 
z
M 1403 2484 
Q 997 2584 770 2862 
Q 544 3141 544 3541 
Q 544 4100 942 4425 
Q 1341 4750 2034 4750 
Q 2731 4750 3128 4425 
Q 3525 4100 3525 3541 
Q 3525 3141 3298 2862 
Q 3072 2584 2669 2484 
Q 3125 2378 3379 2068 
Q 3634 1759 3634 1313 
Q 3634 634 3220 271 
Q 2806 -91 2034 -91 
Q 1263 -91 848 271 
Q 434 634 434 1313 
Q 434 1759 690 2068 
Q 947 2378 1403 2484 
z
M 1172 3481 
Q 1172 3119 1398 2916 
Q 1625 2713 2034 2713 
Q 2441 2713 2670 2916 
Q 2900 3119 2900 3481 
Q 2900 3844 2670 4047 
Q 2441 4250 2034 4250 
Q 1625 4250 1398 4047 
Q 1172 3844 1172 3481 
z
" id="DejaVuSans-38" transform="scale(0.015625)"/>
       </defs>
       <use xlink:href="#DejaVuSans-38"/>
       <use x="63.623047" xlink:href="#DejaVuSans-30"/>
       <use x="127.246094" xlink:href="#DejaVuSans-30"/>
       <use x="190.869141" xlink:href="#DejaVuSans-30"/>
       <use x="254.492188" xlink:href="#DejaVuSans-30"/>
      </g>
     </g>
    </g>
    <g id="ytick_2">
     <g id="line2d_12">
      <g>
       <use style="stroke:#000000;stroke-width:0.8;" x="57.6" xlink:href="#m4d3b770216" y="226.001856"/>
      </g>
     </g>
     <g id="text_13">
      <!-- 85000 -->
      <g transform="translate(18.7875 229.801075)scale(0.1 -0.1)">
       <use xlink:href="#DejaVuSans-38"/>
       <use x="63.623047" xlink:href="#DejaVuSans-35"/>
       <use x="127.246094" xlink:href="#DejaVuSans-30"/>
       <use x="190.869141" xlink:href="#DejaVuSans-30"/>
       <use x="254.492188" xlink:href="#DejaVuSans-30"/>
      </g>
     </g>
    </g>
    <g id="ytick_3">
     <g id="line2d_13">
      <g>
       <use style="stroke:#000000;stroke-width:0.8;" x="57.6" xlink:href="#m4d3b770216" y="199.324196"/>
      </g>
     </g>
     <g id="text_14">
      <!-- 90000 -->
      <g transform="translate(18.7875 203.123414)scale(0.1 -0.1)">
       <use xlink:href="#DejaVuSans-39"/>
       <use x="63.623047" xlink:href="#DejaVuSans-30"/>
       <use x="127.246094" xlink:href="#DejaVuSans-30"/>
       <use x="190.869141" xlink:href="#DejaVuSans-30"/>
       <use x="254.492188" xlink:href="#DejaVuSans-30"/>
      </g>
     </g>
    </g>
    <g id="ytick_4">
     <g id="line2d_14">
      <g>
       <use style="stroke:#000000;stroke-width:0.8;" x="57.6" xlink:href="#m4d3b770216" y="172.646535"/>
      </g>
     </g>
     <g id="text_15">
      <!-- 95000 -->
      <g transform="translate(18.7875 176.445754)scale(0.1 -0.1)">
       <use xlink:href="#DejaVuSans-39"/>
       <use x="63.623047" xlink:href="#DejaVuSans-35"/>
       <use x="127.246094" xlink:href="#DejaVuSans-30"/>
       <use x="190.869141" xlink:href="#DejaVuSans-30"/>
       <use x="254.492188" xlink:href="#DejaVuSans-30"/>
      </g>
     </g>
    </g>
    <g id="ytick_5">
     <g id="line2d_15">
      <g>
       <use style="stroke:#000000;stroke-width:0.8;" x="57.6" xlink:href="#m4d3b770216" y="145.968874"/>
      </g>
     </g>
     <g id="text_16">
      <!-- 100000 -->
      <g transform="translate(12.425 149.768093)scale(0.1 -0.1)">
       <use xlink:href="#DejaVuSans-31"/>
       <use x="63.623047" xlink:href="#DejaVuSans-30"/>
       <use x="127.246094" xlink:href="#DejaVuSans-30"/>
       <use x="190.869141" xlink:href="#DejaVuSans-30"/>
       <use x="254.492188" xlink:href="#DejaVuSans-30"/>
       <use x="318.115234" xlink:href="#DejaVuSans-30"/>
      </g>
     </g>
    </g>
    <g id="ytick_6">
     <g id="line2d_16">
      <g>
       <use style="stroke:#000000;stroke-width:0.8;" x="57.6" xlink:href="#m4d3b770216" y="119.291213"/>
      </g>
     </g>
     <g id="text_17">
      <!-- 105000 -->
      <g transform="translate(12.425 123.090432)scale(0.1 -0.1)">
       <use xlink:href="#DejaVuSans-31"/>
       <use x="63.623047" xlink:href="#DejaVuSans-30"/>
       <use x="127.246094" xlink:href="#DejaVuSans-35"/>
       <use x="190.869141" xlink:href="#DejaVuSans-30"/>
       <use x="254.492188" xlink:href="#DejaVuSans-30"/>
       <use x="318.115234" xlink:href="#DejaVuSans-30"/>
      </g>
     </g>
    </g>
    <g id="ytick_7">
     <g id="line2d_17">
      <g>
       <use style="stroke:#000000;stroke-width:0.8;" x="57.6" xlink:href="#m4d3b770216" y="92.613553"/>
      </g>
     </g>
     <g id="text_18">
      <!-- 110000 -->
      <g transform="translate(12.425 96.412772)scale(0.1 -0.1)">
       <use xlink:href="#DejaVuSans-31"/>
       <use x="63.623047" xlink:href="#DejaVuSans-31"/>
       <use x="127.246094" xlink:href="#DejaVuSans-30"/>
       <use x="190.869141" xlink:href="#DejaVuSans-30"/>
       <use x="254.492188" xlink:href="#DejaVuSans-30"/>
       <use x="318.115234" xlink:href="#DejaVuSans-30"/>
      </g>
     </g>
    </g>
    <g id="ytick_8">
     <g id="line2d_18">
      <g>
       <use style="stroke:#000000;stroke-width:0.8;" x="57.6" xlink:href="#m4d3b770216" y="65.935892"/>
      </g>
     </g>
     <g id="text_19">
      <!-- 115000 -->
      <g transform="translate(12.425 69.735111)scale(0.1 -0.1)">
       <use xlink:href="#DejaVuSans-31"/>
       <use x="63.623047" xlink:href="#DejaVuSans-31"/>
       <use x="127.246094" xlink:href="#DejaVuSans-35"/>
       <use x="190.869141" xlink:href="#DejaVuSans-30"/>
       <use x="254.492188" xlink:href="#DejaVuSans-30"/>
       <use x="318.115234" xlink:href="#DejaVuSans-30"/>
      </g>
     </g>
    </g>
   </g>
   <g id="line2d_19">
    <path clip-path="url(#p80449e7612)" d="M 73.832727 145.968874 
L 75.017598 144.283701 
L 76.202468 142.307232 
L 77.387339 145.48623 
L 78.57221 140.073969 
L 83.311692 135.866472 
L 84.496563 137.620389 
L 85.681433 136.836773 
L 86.866304 136.963781 
L 91.605786 136.757857 
L 93.975528 139.664136 
L 95.160398 144.834964 
L 98.71501 140.417805 
L 99.899881 147.540053 
L 101.084751 144.256573 
L 102.269622 145.128297 
L 103.454492 150.219694 
L 107.009104 159.641546 
L 108.193975 160.742749 
L 109.378845 156.928554 
L 110.563716 148.538652 
L 111.748587 143.737086 
L 115.303198 140.515267 
L 116.488069 152.033999 
L 117.67294 150.911475 
L 118.85781 154.670887 
L 120.042681 146.711591 
L 123.597293 157.156163 
L 124.782163 148.664608 
L 125.967034 146.888821 
L 127.151904 146.79972 
L 128.336775 146.113618 
L 131.891387 145.651797 
L 133.076257 145.116183 
L 134.261128 151.800637 
L 135.445999 141.787585 
L 136.630869 140.519935 
L 140.185481 136.467139 
L 141.370352 130.920083 
L 142.555222 128.965258 
L 143.740093 138.651198 
L 144.924964 145.768346 
L 148.479575 145.48589 
L 149.664446 149.815938 
L 150.849317 151.850374 
L 152.034187 144.605547 
L 153.219058 151.807406 
L 156.77367 140.614666 
L 157.95854 140.944437 
L 159.143411 135.372269 
L 160.328281 141.954207 
L 161.513152 137.620434 
L 165.067764 137.313986 
L 166.252634 143.982494 
L 167.437505 144.046069 
L 168.622376 148.386792 
L 169.807246 144.29019 
L 173.361858 142.429848 
L 174.546729 142.93188 
L 175.731599 145.719667 
L 176.91647 146.789917 
L 178.10134 147.271273 
L 181.655952 144.229654 
L 182.840823 139.891423 
L 184.025693 140.539791 
L 186.395435 140.15422 
L 189.950046 145.284123 
L 191.134917 155.36652 
L 192.319788 162.765951 
L 193.504658 156.462461 
L 194.689529 160.045722 
L 198.244141 150.227788 
L 199.429011 141.150373 
L 200.613882 136.837051 
L 201.798752 136.313597 
L 202.983623 134.749443 
L 206.538235 139.836347 
L 207.723106 137.792747 
L 208.907976 134.408073 
L 210.092847 131.745623 
L 211.277717 137.882879 
L 214.832329 145.078438 
L 216.0172 132.725884 
L 217.20207 130.052777 
L 218.386941 125.119147 
L 223.126423 118.575635 
L 224.311294 118.79986 
L 225.496165 118.72867 
L 226.681035 119.63128 
L 227.865906 122.309725 
L 231.420518 113.707115 
L 232.605388 107.152378 
L 233.790259 122.035758 
L 234.975129 116.789496 
L 236.16 115.426844 
L 239.714612 115.587257 
L 240.899482 110.869977 
L 242.084353 109.445949 
L 243.269224 116.545769 
L 244.454094 114.820726 
L 249.193577 126.9386 
L 250.378447 130.274602 
L 251.563318 136.613659 
L 252.748188 148.994736 
L 256.3028 148.131981 
L 257.487671 154.937144 
L 258.672541 154.992687 
L 259.857412 158.208188 
L 261.042283 144.90754 
L 264.596894 133.11247 
L 265.781765 128.416963 
L 266.966636 118.366669 
L 268.151506 154.006575 
L 269.336377 153.069945 
L 272.890989 162.279164 
L 274.075859 163.401054 
L 275.26073 152.160603 
L 276.445601 161.486053 
L 277.630471 173.268354 
L 281.185083 176.517837 
L 282.369954 170.057507 
L 283.554824 172.938491 
L 284.739695 182.532124 
L 285.924565 185.696937 
L 290.664048 190.956235 
L 291.848918 197.950431 
L 293.033789 186.515606 
L 294.21866 177.419374 
L 297.773271 180.021707 
L 298.958142 188.450529 
L 300.143013 178.094079 
L 301.327883 180.210125 
L 302.512754 186.497492 
L 306.067366 207.172748 
L 307.252236 206.938612 
L 308.437107 186.733999 
L 309.621977 193.542231 
L 310.806848 201.589599 
L 314.36146 202.201492 
L 315.54633 192.895528 
L 316.731201 177.568766 
L 317.916072 172.054106 
L 319.100942 163.427707 
L 322.655554 165.710276 
L 323.840425 155.627651 
L 325.025295 161.508496 
L 326.210166 153.469033 
L 327.395036 147.868647 
L 330.949648 146.382664 
L 332.134519 142.181449 
L 333.31939 144.518195 
L 334.50426 157.029561 
L 335.689131 154.780583 
L 339.243743 149.447095 
L 340.428613 154.945243 
L 341.613484 163.002461 
L 343.983225 164.481531 
L 347.537837 173.761883 
L 348.722707 177.31584 
L 349.907578 174.938527 
L 351.092449 183.977282 
L 355.831931 180.141985 
L 357.016802 170.850355 
L 358.201672 175.955705 
L 359.386543 189.99077 
L 360.571413 205.868831 
L 364.126025 202.262932 
L 365.310896 211.076642 
L 366.495766 216.050248 
L 367.680637 187.272839 
L 368.865508 202.413632 
L 372.420119 195.596668 
L 373.60499 190.693459 
L 374.789861 169.872855 
L 375.974731 191.582333 
L 377.159602 193.848377 
L 380.714214 207.872782 
L 381.899084 206.520925 
L 383.083955 215.47022 
L 384.268825 218.440349 
L 385.453696 207.977256 
L 389.008308 211.609908 
L 390.193179 202.087025 
L 391.378049 221.196475 
L 392.56292 226.055133 
L 393.74779 228.791707 
L 397.302402 216.080273 
L 398.487273 230.365136 
L 398.487273 230.365136 
" style="fill:none;stroke:#0000ff;stroke-linecap:square;stroke-opacity:0.9;stroke-width:2;"/>
   </g>
   <g id="line2d_20">
    <path clip-path="url(#p80449e7612)" d="M 73.832727 145.968874 
L 76.202468 140.735296 
L 77.387339 144.179017 
L 78.57221 137.61207 
L 82.126821 135.715341 
L 83.311692 134.754837 
L 84.496563 134.976682 
L 85.681433 135.691743 
L 86.866304 135.625947 
L 91.605786 134.623766 
L 92.790657 136.723458 
L 93.975528 138.027568 
L 95.160398 143.436933 
L 98.71501 139.914463 
L 99.899881 144.743625 
L 101.084751 142.536258 
L 102.269622 143.750976 
L 103.454492 150.724329 
L 107.009104 159.007407 
L 108.193975 159.298461 
L 109.378845 156.195721 
L 110.563716 149.476274 
L 111.748587 145.23481 
L 115.303198 142.030702 
L 116.488069 152.870242 
L 117.67294 151.907926 
L 118.85781 157.186339 
L 120.042681 149.524467 
L 123.597293 155.414271 
L 124.782163 147.758502 
L 125.967034 146.087329 
L 127.151904 144.734107 
L 128.336775 142.373234 
L 131.891387 145.106742 
L 133.076257 149.417048 
L 134.261128 151.096185 
L 135.445999 138.118345 
L 136.630869 134.301376 
L 140.185481 132.811644 
L 141.370352 128.336808 
L 142.555222 125.557194 
L 143.740093 132.302517 
L 144.924964 135.549559 
L 148.479575 136.772551 
L 150.849317 142.805853 
L 152.034187 135.37082 
L 153.219058 134.443142 
L 156.77367 134.066477 
L 157.95854 131.818183 
L 159.143411 127.886402 
L 160.328281 128.798846 
L 161.513152 129.042013 
L 165.067764 128.288731 
L 166.252634 132.751257 
L 167.437505 135.20791 
L 168.622376 135.291284 
L 169.807246 131.887084 
L 173.361858 130.206506 
L 174.546729 131.380482 
L 175.731599 131.969416 
L 176.91647 132.324623 
L 178.10134 134.187922 
L 181.655952 131.849173 
L 182.840823 126.592317 
L 184.025693 126.276925 
L 186.395435 140.364279 
L 189.950046 134.468666 
L 191.134917 145.810889 
L 192.319788 152.311846 
L 193.504658 144.994963 
L 194.689529 149.044259 
L 198.244141 141.287629 
L 199.429011 131.76752 
L 200.613882 128.795779 
L 201.798752 129.175791 
L 202.983623 125.781158 
L 206.538235 131.168384 
L 207.723106 130.827646 
L 208.907976 126.420902 
L 210.092847 126.577891 
L 211.277717 133.502513 
L 214.832329 139.766066 
L 216.0172 129.630487 
L 217.20207 126.200439 
L 218.386941 121.424085 
L 223.126423 114.564161 
L 224.311294 114.752165 
L 225.496165 114.304696 
L 226.681035 115.389033 
L 227.865906 117.282135 
L 231.420518 111.030654 
L 232.605388 105.621592 
L 233.790259 117.94819 
L 234.975129 115.893439 
L 236.16 112.808829 
L 239.714612 113.253802 
L 240.899482 110.161401 
L 242.084353 110.146094 
L 243.269224 114.336708 
L 244.454094 114.308097 
L 249.193577 126.983805 
L 251.563318 137.676184 
L 252.748188 148.558856 
L 256.3028 149.226206 
L 257.487671 147.93548 
L 258.672541 148.804511 
L 259.857412 153.794663 
L 261.042283 140.534369 
L 264.596894 132.531055 
L 265.781765 126.069754 
L 266.966636 117.243673 
L 268.151506 142.198407 
L 269.336377 137.649162 
L 272.890989 141.44704 
L 274.075859 137.807864 
L 275.26073 132.781595 
L 276.445601 141.84496 
L 277.630471 152.925507 
L 281.185083 157.687833 
L 282.369954 151.845693 
L 283.554824 152.821366 
L 284.739695 163.022992 
L 285.924565 165.589527 
L 290.664048 169.871329 
L 291.848918 176.913985 
L 293.033789 174.085565 
L 294.21866 162.329356 
L 297.773271 167.280294 
L 298.958142 177.618886 
L 300.143013 165.810715 
L 301.327883 166.892679 
L 302.512754 174.220688 
L 306.067366 192.01048 
L 307.252236 194.615021 
L 308.437107 176.478437 
L 310.806848 188.865676 
L 314.36146 189.092413 
L 315.54633 180.820546 
L 316.731201 169.372226 
L 319.100942 159.180586 
L 322.655554 159.257059 
L 323.840425 150.516994 
L 325.025295 155.35107 
L 326.210166 147.841179 
L 327.395036 141.93014 
L 330.949648 141.233225 
L 332.134519 138.409546 
L 333.31939 139.321164 
L 334.50426 149.709737 
L 335.689131 147.004429 
L 339.243743 143.541604 
L 340.428613 148.702364 
L 341.613484 155.51278 
L 342.798354 155.781906 
L 343.983225 155.202452 
L 348.722707 165.998957 
L 349.907578 163.964667 
L 351.092449 171.724493 
L 355.831931 168.186618 
L 357.016802 161.56467 
L 358.201672 159.131141 
L 359.386543 165.749839 
L 360.571413 180.825099 
L 364.126025 179.608155 
L 365.310896 188.090476 
L 366.495766 188.878163 
L 367.680637 172.485986 
L 368.865508 188.18552 
L 372.420119 185.069476 
L 373.60499 181.29626 
L 374.789861 159.722004 
L 375.974731 178.366992 
L 377.159602 177.016906 
L 383.083955 201.18235 
L 384.268825 204.266316 
L 385.453696 196.53193 
L 389.008308 197.682244 
L 390.193179 188.10244 
L 391.378049 206.879909 
L 392.56292 213.269823 
L 393.74779 217.367387 
L 397.302402 204.999884 
L 398.487273 211.056222 
L 398.487273 211.056222 
" style="fill:none;stroke:#ff0000;stroke-linecap:square;stroke-opacity:0.9;stroke-width:2;"/>
   </g>
   <g id="line2d_21">
    <path clip-path="url(#p80449e7612)" d="M 73.832727 145.968874 
L 75.017598 143.06552 
L 76.202468 141.122878 
L 77.387339 144.072807 
L 78.57221 138.870969 
L 83.311692 134.692471 
L 84.496563 135.774717 
L 85.681433 134.902499 
L 86.866304 135.430726 
L 91.605786 135.418352 
L 92.790657 136.563675 
L 93.975528 138.199355 
L 95.160398 142.729949 
L 98.71501 138.342411 
L 99.899881 145.69195 
L 101.084751 142.189535 
L 102.269622 143.048814 
L 103.454492 147.603194 
L 107.009104 157.018565 
L 108.193975 157.545328 
L 109.378845 153.830446 
L 110.563716 145.465952 
L 111.748587 140.782091 
L 115.303198 137.075433 
L 116.488069 148.518257 
L 117.67294 147.024704 
L 118.85781 151.358905 
L 120.042681 143.103601 
L 123.597293 153.118034 
L 124.782163 144.912979 
L 125.967034 142.994844 
L 127.151904 141.878633 
L 128.336775 139.742303 
L 131.891387 142.620109 
L 133.076257 146.802613 
L 134.261128 147.784538 
L 135.445999 137.671366 
L 136.630869 136.430782 
L 140.185481 132.526332 
L 141.370352 126.761747 
L 142.555222 124.661802 
L 143.740093 134.210877 
L 144.924964 141.740566 
L 148.479575 141.184689 
L 149.664446 145.694859 
L 150.849317 147.824356 
L 152.034187 140.318697 
L 153.219058 139.400301 
L 157.95854 135.288055 
L 159.143411 130.854762 
L 160.328281 130.476128 
L 161.513152 126.382666 
L 165.067764 125.529442 
L 166.252634 132.78189 
L 167.437505 136.843447 
L 168.622376 136.819989 
L 169.807246 132.789918 
L 173.361858 130.687356 
L 174.546729 133.361016 
L 175.731599 133.941252 
L 176.91647 135.430411 
L 178.10134 135.638152 
L 181.655952 132.203436 
L 182.840823 127.648195 
L 184.025693 128.341337 
L 186.395435 139.771546 
L 189.950046 133.155798 
L 191.134917 143.550649 
L 192.319788 150.987683 
L 193.504658 144.456207 
L 194.689529 148.084876 
L 198.244141 137.827637 
L 199.429011 128.614831 
L 200.613882 124.58101 
L 201.798752 124.054775 
L 202.983623 122.412857 
L 206.538235 127.58686 
L 207.723106 124.87268 
L 208.907976 121.666514 
L 210.092847 119.198837 
L 211.277717 125.088227 
L 214.832329 132.899879 
L 216.0172 119.546352 
L 217.20207 117.197378 
L 218.386941 112.248123 
L 223.126423 104.742273 
L 224.311294 105.117746 
L 225.496165 105.15012 
L 226.681035 106.35447 
L 227.865906 108.910712 
L 231.420518 99.964554 
L 232.605388 92.951745 
L 233.790259 108.09597 
L 234.975129 103.277349 
L 236.16 101.693635 
L 239.714612 101.53541 
L 240.899482 96.649595 
L 242.084353 95.612514 
L 243.269224 102.297678 
L 244.454094 100.593141 
L 249.193577 112.91596 
L 250.378447 116.886483 
L 251.563318 123.064561 
L 252.748188 135.847016 
L 256.3028 134.797084 
L 257.487671 141.684267 
L 258.672541 141.242585 
L 259.857412 145.091794 
L 261.042283 131.23182 
L 264.596894 119.138696 
L 265.781765 114.192574 
L 266.966636 103.818564 
L 268.151506 140.148817 
L 269.336377 139.03011 
L 272.890989 148.583944 
L 274.075859 149.386657 
L 275.26073 138.168681 
L 276.445601 147.484149 
L 277.630471 159.37713 
L 281.185083 162.946798 
L 282.369954 156.769807 
L 283.554824 159.442374 
L 284.739695 169.200765 
L 285.924565 172.822257 
L 290.664048 177.730752 
L 291.848918 185.200134 
L 293.033789 173.421219 
L 294.21866 163.665015 
L 297.773271 165.665824 
L 298.958142 174.555614 
L 300.143013 163.792231 
L 301.327883 167.034967 
L 302.512754 176.463048 
L 306.067366 198.84704 
L 307.252236 196.525381 
L 308.437107 174.429687 
L 310.806848 190.61781 
L 314.36146 190.941399 
L 315.54633 180.989453 
L 316.731201 164.404625 
L 317.916072 158.720974 
L 319.100942 150.820707 
L 322.655554 153.092995 
L 323.840425 141.905002 
L 325.025295 148.235119 
L 326.210166 140.609923 
L 327.395036 134.204601 
L 330.949648 133.524445 
L 332.134519 129.615461 
L 333.31939 132.353265 
L 334.50426 146.048942 
L 335.689131 145.18395 
L 339.243743 139.907053 
L 341.613484 154.732792 
L 342.798354 156.303783 
L 343.983225 157.012678 
L 347.537837 165.159877 
L 348.722707 168.365272 
L 349.907578 165.88583 
L 351.092449 175.96032 
L 355.831931 170.161044 
L 357.016802 160.714303 
L 358.201672 163.888491 
L 359.386543 178.011466 
L 360.571413 194.262379 
L 364.126025 191.291316 
L 365.310896 203.343878 
L 366.495766 208.462152 
L 367.680637 180.345994 
L 368.865508 196.157943 
L 372.420119 187.702964 
L 373.60499 181.644618 
L 374.789861 158.94209 
L 375.974731 180.812658 
L 377.159602 182.927031 
L 380.714214 197.676386 
L 381.899084 197.876733 
L 383.083955 206.516218 
L 384.268825 209.711301 
L 385.453696 200.029919 
L 389.008308 203.1497 
L 390.193179 192.336023 
L 391.378049 211.551245 
L 392.56292 217.78343 
L 393.74779 222.030449 
L 397.302402 206.566654 
L 398.487273 220.229125 
L 398.487273 220.229125 
" style="fill:none;stroke:#ff8040;stroke-linecap:square;stroke-opacity:0.9;stroke-width:2;"/>
   </g>
   <g id="line2d_22">
    <path clip-path="url(#p80449e7612)" d="M 73.832727 146.502427 
L 76.202468 144.005755 
L 77.387339 147.505674 
L 78.57221 141.967917 
L 82.126821 142.465021 
L 83.311692 143.92097 
L 84.496563 144.94026 
L 85.681433 144.709983 
L 86.866304 144.12455 
L 91.605786 143.597444 
L 92.790657 146.629521 
L 93.975528 147.486843 
L 95.160398 152.776819 
L 98.71501 148.84558 
L 99.899881 154.365882 
L 101.084751 151.803704 
L 102.269622 153.595552 
L 103.454492 160.413363 
L 107.009104 169.046397 
L 108.193975 169.288281 
L 109.378845 169.239305 
L 110.563716 162.809505 
L 111.748587 159.263048 
L 115.303198 157.633542 
L 116.488069 167.901438 
L 117.67294 167.278757 
L 118.85781 173.554774 
L 120.042681 166.056861 
L 123.597293 170.938139 
L 124.782163 163.941176 
L 125.967034 163.15518 
L 127.151904 163.4928 
L 128.336775 160.942965 
L 131.891387 163.097322 
L 133.076257 167.05435 
L 134.261128 168.52822 
L 135.445999 157.013248 
L 136.630869 154.850254 
L 140.185481 157.202005 
L 141.370352 152.420099 
L 142.555222 149.839427 
L 143.740093 162.61748 
L 144.924964 163.272762 
L 148.479575 163.411645 
L 149.664446 164.520173 
L 150.849317 169.805339 
L 152.034187 162.798714 
L 153.219058 164.799689 
L 156.77367 165.322279 
L 157.95854 163.60887 
L 159.143411 160.891609 
L 160.328281 162.781002 
L 161.513152 163.273144 
L 165.067764 163.234284 
L 167.437505 174.455636 
L 168.622376 173.928714 
L 169.807246 168.088587 
L 173.361858 168.061869 
L 174.546729 171.407895 
L 175.731599 171.611253 
L 176.91647 170.977602 
L 178.10134 171.148435 
L 181.655952 173.187777 
L 182.840823 167.091594 
L 184.025693 165.809553 
L 186.395435 178.949877 
L 189.950046 175.252835 
L 191.134917 187.735857 
L 192.319788 193.977802 
L 193.504658 187.738742 
L 194.689529 192.476255 
L 198.244141 184.866609 
L 199.429011 176.35236 
L 200.613882 173.553114 
L 201.798752 174.617744 
L 202.983623 172.837223 
L 206.538235 175.787703 
L 207.723106 175.670075 
L 208.907976 171.718115 
L 210.092847 165.73843 
L 211.277717 172.742371 
L 214.832329 178.184312 
L 216.0172 169.673829 
L 217.20207 166.482947 
L 218.386941 162.0644 
L 223.126423 156.521742 
L 224.311294 156.45339 
L 225.496165 156.086457 
L 226.681035 156.885757 
L 227.865906 158.773697 
L 231.420518 152.932552 
L 232.605388 145.78788 
L 233.790259 157.805042 
L 234.975129 156.922453 
L 236.16 155.175159 
L 239.714612 156.220998 
L 240.899482 153.937477 
L 242.084353 151.90512 
L 243.269224 152.79333 
L 244.454094 151.865158 
L 249.193577 164.267922 
L 250.378447 168.130325 
L 251.563318 173.628798 
L 252.748188 183.465144 
L 256.3028 183.864787 
L 257.487671 183.535236 
L 258.672541 185.820598 
L 259.857412 189.20665 
L 261.042283 180.27588 
L 264.596894 172.496043 
L 266.966636 159.991249 
L 268.151506 194.834224 
L 269.336377 193.302666 
L 272.890989 199.675015 
L 274.075859 199.351842 
L 275.26073 190.871518 
L 276.445601 198.552511 
L 277.630471 209.179897 
L 281.185083 212.524647 
L 282.369954 206.164379 
L 283.554824 207.936081 
L 284.739695 216.352709 
L 285.924565 218.707756 
L 290.664048 222.923844 
L 291.848918 229.816091 
L 293.033789 224.802209 
L 294.21866 214.114783 
L 297.773271 217.413103 
L 298.958142 229.711939 
L 300.143013 219.797245 
L 301.327883 222.604083 
L 302.512754 228.795581 
L 306.067366 244.411111 
L 307.252236 246.17188 
L 308.437107 229.944977 
L 310.806848 241.826908 
L 314.36146 243.092399 
L 315.54633 235.229219 
L 316.731201 221.357279 
L 317.916072 216.252276 
L 319.100942 214.197097 
L 322.655554 213.928748 
L 323.840425 208.334832 
L 325.025295 212.899765 
L 326.210166 204.451669 
L 327.395036 199.373348 
L 330.949648 199.173201 
L 332.134519 195.336593 
L 333.31939 195.713988 
L 334.50426 203.41516 
L 335.689131 199.593734 
L 339.243743 193.748066 
L 340.428613 198.241821 
L 341.613484 205.642637 
L 342.798354 204.715159 
L 343.983225 206.392751 
L 347.537837 215.285011 
L 348.722707 217.506746 
L 349.907578 215.095895 
L 351.092449 224.371586 
L 355.831931 219.951519 
L 357.016802 211.733298 
L 359.386543 225.484679 
L 360.571413 238.820796 
L 364.126025 239.176514 
L 365.310896 243.493108 
L 366.495766 244.363634 
L 367.680637 225.247421 
L 368.865508 239.301758 
L 372.420119 235.668615 
L 373.60499 233.132713 
L 374.789861 212.434982 
L 375.974731 231.979513 
L 377.159602 230.276477 
L 380.714214 241.873979 
L 381.899084 246.854671 
L 383.083955 252.481507 
L 384.268825 254.88202 
L 385.453696 248.91045 
L 389.008308 250.496077 
L 390.193179 241.433093 
L 391.378049 257.743207 
L 392.56292 263.072695 
L 393.74779 265.797818 
L 397.302402 255.025567 
L 398.487273 264.967862 
L 398.487273 264.967862 
" style="fill:none;stroke:#0d0d0d;stroke-linecap:square;stroke-opacity:0.25;stroke-width:2;"/>
   </g>
   <g id="line2d_23">
    <path clip-path="url(#p80449e7612)" d="M 73.832727 145.435321 
L 76.202468 136.333413 
L 77.387339 140.624705 
L 78.57221 133.737256 
L 82.126821 129.568916 
L 83.311692 128.759146 
L 84.496563 128.656308 
L 85.681433 129.845954 
L 86.866304 129.086892 
L 91.605786 127.120969 
L 92.790657 128.177214 
L 93.975528 129.418396 
L 95.160398 135.026467 
L 98.71501 129.530014 
L 99.899881 132.52824 
L 101.084751 128.551977 
L 102.269622 130.379858 
L 103.454492 137.623786 
L 107.009104 146.83181 
L 108.193975 146.38105 
L 109.378845 143.510371 
L 110.563716 136.829533 
L 111.748587 131.944982 
L 115.303198 127.108078 
L 116.488069 137.992282 
L 117.67294 135.864056 
L 118.85781 139.601579 
L 120.042681 133.495883 
L 123.597293 139.54032 
L 124.782163 129.041907 
L 125.967034 127.736744 
L 127.151904 127.327244 
L 128.336775 125.176833 
L 131.891387 127.540444 
L 133.076257 132.013387 
L 134.261128 133.561001 
L 135.445999 119.269002 
L 136.630869 112.94691 
L 140.185481 113.220935 
L 141.370352 108.407764 
L 142.555222 104.309937 
L 143.740093 110.863889 
L 144.924964 111.40892 
L 148.479575 113.17503 
L 149.664446 115.378491 
L 150.849317 119.76132 
L 153.219058 103.88796 
L 156.77367 101.761584 
L 157.95854 101.515476 
L 159.143411 97.16672 
L 160.328281 98.691447 
L 161.513152 99.509516 
L 165.067764 97.864454 
L 166.252634 103.587211 
L 167.437505 105.352945 
L 168.622376 104.475105 
L 169.807246 102.272666 
L 173.361858 98.582907 
L 175.731599 100.321049 
L 176.91647 98.808811 
L 178.10134 99.765259 
L 181.655952 98.90491 
L 182.840823 93.483947 
L 184.025693 93.372486 
L 186.395435 105.841449 
L 189.950046 100.019623 
L 191.134917 107.558416 
L 192.319788 113.405351 
L 193.504658 105.689793 
L 194.689529 106.520926 
L 198.244141 96.668865 
L 199.429011 84.207687 
L 200.613882 84.264382 
L 201.798752 83.962133 
L 202.983623 81.055369 
L 206.538235 87.651436 
L 207.723106 88.877374 
L 208.907976 83.267464 
L 210.092847 79.02283 
L 211.277717 86.569034 
L 214.832329 94.222352 
L 216.0172 82.726538 
L 217.20207 78.618996 
L 218.386941 72.625742 
L 223.126423 64.908911 
L 224.311294 65.509551 
L 225.496165 65.445231 
L 226.681035 66.052392 
L 227.865906 67.676599 
L 231.420518 60.705888 
L 232.605388 52.154182 
L 233.790259 65.894926 
L 234.975129 60.316493 
L 236.16 58.439461 
L 239.714612 59.283548 
L 240.899482 55.671683 
L 242.084353 54.500536 
L 243.269224 60.00807 
L 244.454094 60.341636 
L 249.193577 71.396283 
L 250.378447 76.464548 
L 251.563318 82.927051 
L 252.748188 95.767161 
L 256.3028 95.078307 
L 257.487671 93.548009 
L 258.672541 94.692372 
L 259.857412 97.994894 
L 261.042283 86.700123 
L 264.596894 78.724096 
L 265.781765 72.502097 
L 266.966636 60.644623 
L 268.151506 81.506271 
L 269.336377 78.65132 
L 272.890989 85.498251 
L 274.075859 85.097848 
L 275.26073 80.785736 
L 276.445601 93.925748 
L 277.630471 110.310212 
L 281.185083 112.890162 
L 282.369954 105.887423 
L 283.554824 108.230124 
L 284.739695 122.696903 
L 285.924565 126.40037 
L 290.664048 129.501962 
L 291.848918 137.458375 
L 293.033789 130.294201 
L 294.21866 119.833298 
L 297.773271 125.953741 
L 298.958142 135.203283 
L 300.143013 120.275605 
L 301.327883 120.219641 
L 307.252236 154.085084 
L 308.437107 131.041601 
L 310.806848 144.523448 
L 314.36146 144.119293 
L 315.54633 133.032464 
L 316.731201 116.439525 
L 317.916072 110.078923 
L 319.100942 103.028335 
L 322.655554 104.172048 
L 323.840425 93.460887 
L 325.025295 101.602936 
L 326.210166 92.87191 
L 327.395036 86.104385 
L 330.949648 87.333291 
L 332.134519 84.493466 
L 333.31939 84.858374 
L 334.50426 94.422827 
L 335.689131 91.156633 
L 339.243743 86.194171 
L 340.428613 90.650596 
L 341.613484 98.983716 
L 342.798354 98.790386 
L 343.983225 99.731994 
L 347.537837 106.827096 
L 348.722707 110.39182 
L 349.907578 107.154775 
L 351.092449 118.002427 
L 355.831931 113.157462 
L 357.016802 106.243286 
L 358.201672 104.7482 
L 359.386543 118.953365 
L 360.571413 135.181332 
L 364.126025 134.574583 
L 365.310896 135.315424 
L 366.495766 141.435312 
L 367.680637 121.068862 
L 368.865508 136.979317 
L 373.60499 121.35466 
L 374.789861 92.951163 
L 375.974731 116.963808 
L 377.159602 116.082745 
L 380.714214 131.568625 
L 381.899084 135.454044 
L 383.083955 140.036425 
L 384.268825 145.59768 
L 385.453696 134.309967 
L 389.008308 134.064692 
L 390.193179 120.672626 
L 391.378049 141.82275 
L 392.56292 151.098806 
L 393.74779 155.264526 
L 397.302402 143.172446 
L 398.487273 154.60832 
L 398.487273 154.60832 
" style="fill:none;stroke:#0d0d0d;stroke-linecap:square;stroke-opacity:0.25;stroke-width:2;"/>
   </g>
   <g id="patch_3">
    <path d="M 57.6 276.48 
L 57.6 41.472 
" style="fill:none;stroke:#000000;stroke-linecap:square;stroke-linejoin:miter;stroke-width:0.8;"/>
   </g>
   <g id="patch_4">
    <path d="M 414.72 276.48 
L 414.72 41.472 
" style="fill:none;stroke:#000000;stroke-linecap:square;stroke-linejoin:miter;stroke-width:0.8;"/>
   </g>
   <g id="patch_5">
    <path d="M 57.6 276.48 
L 414.72 276.48 
" style="fill:none;stroke:#000000;stroke-linecap:square;stroke-linejoin:miter;stroke-width:0.8;"/>
   </g>
   <g id="patch_6">
    <path d="M 57.6 41.472 
L 414.72 41.472 
" style="fill:none;stroke:#000000;stroke-linecap:square;stroke-linejoin:miter;stroke-width:0.8;"/>
   </g>
   <g id="text_20">
    <!-- TESTFUNDS0830 -->
    <g transform="translate(185.200312 22.034625)scale(0.12 -0.12)">
     <defs>
      <path d="M -19 4666 
L 3928 4666 
L 3928 4134 
L 2272 4134 
L 2272 0 
L 1638 0 
L 1638 4134 
L -19 4134 
L -19 4666 
z
" id="DejaVuSans-54" transform="scale(0.015625)"/>
      <path d="M 628 4666 
L 3578 4666 
L 3578 4134 
L 1259 4134 
L 1259 2753 
L 3481 2753 
L 3481 2222 
L 1259 2222 
L 1259 531 
L 3634 531 
L 3634 0 
L 628 0 
L 628 4666 
z
" id="DejaVuSans-45" transform="scale(0.015625)"/>
      <path d="M 3425 4513 
L 3425 3897 
Q 3066 4069 2747 4153 
Q 2428 4238 2131 4238 
Q 1616 4238 1336 4038 
Q 1056 3838 1056 3469 
Q 1056 3159 1242 3001 
Q 1428 2844 1947 2747 
L 2328 2669 
Q 3034 2534 3370 2195 
Q 3706 1856 3706 1288 
Q 3706 609 3251 259 
Q 2797 -91 1919 -91 
Q 1588 -91 1214 -16 
Q 841 59 441 206 
L 441 856 
Q 825 641 1194 531 
Q 1563 422 1919 422 
Q 2459 422 2753 634 
Q 3047 847 3047 1241 
Q 3047 1584 2836 1778 
Q 2625 1972 2144 2069 
L 1759 2144 
Q 1053 2284 737 2584 
Q 422 2884 422 3419 
Q 422 4038 858 4394 
Q 1294 4750 2059 4750 
Q 2388 4750 2728 4690 
Q 3069 4631 3425 4513 
z
" id="DejaVuSans-53" transform="scale(0.015625)"/>
      <path d="M 628 4666 
L 3309 4666 
L 3309 4134 
L 1259 4134 
L 1259 2759 
L 3109 2759 
L 3109 2228 
L 1259 2228 
L 1259 0 
L 628 0 
L 628 4666 
z
" id="DejaVuSans-46" transform="scale(0.015625)"/>
      <path d="M 556 4666 
L 1191 4666 
L 1191 1831 
Q 1191 1081 1462 751 
Q 1734 422 2344 422 
Q 2950 422 3222 751 
Q 3494 1081 3494 1831 
L 3494 4666 
L 4128 4666 
L 4128 1753 
Q 4128 841 3676 375 
Q 3225 -91 2344 -91 
Q 1459 -91 1007 375 
Q 556 841 556 1753 
L 556 4666 
z
" id="DejaVuSans-55" transform="scale(0.015625)"/>
      <path d="M 628 4666 
L 1478 4666 
L 3547 763 
L 3547 4666 
L 4159 4666 
L 4159 0 
L 3309 0 
L 1241 3903 
L 1241 0 
L 628 0 
L 628 4666 
z
" id="DejaVuSans-4e" transform="scale(0.015625)"/>
      <path d="M 1259 4147 
L 1259 519 
L 2022 519 
Q 2988 519 3436 956 
Q 3884 1394 3884 2338 
Q 3884 3275 3436 3711 
Q 2988 4147 2022 4147 
L 1259 4147 
z
M 628 4666 
L 1925 4666 
Q 3281 4666 3915 4102 
Q 4550 3538 4550 2338 
Q 4550 1131 3912 565 
Q 3275 0 1925 0 
L 628 0 
L 628 4666 
z
" id="DejaVuSans-44" transform="scale(0.015625)"/>
     </defs>
     <use xlink:href="#DejaVuSans-54"/>
     <use x="61.083984" xlink:href="#DejaVuSans-45"/>
     <use x="124.267578" xlink:href="#DejaVuSans-53"/>
     <use x="187.744141" xlink:href="#DejaVuSans-54"/>
     <use x="248.828125" xlink:href="#DejaVuSans-46"/>
     <use x="306.347656" xlink:href="#DejaVuSans-55"/>
     <use x="379.541016" xlink:href="#DejaVuSans-4e"/>
     <use x="454.345703" xlink:href="#DejaVuSans-44"/>
     <use x="531.347656" xlink:href="#DejaVuSans-53"/>
     <use x="594.824219" xlink:href="#DejaVuSans-30"/>
     <use x="658.447266" xlink:href="#DejaVuSans-38"/>
     <use x="722.070312" xlink:href="#DejaVuSans-33"/>
     <use x="785.693359" xlink:href="#DejaVuSans-30"/>
    </g>
    <!-- daily_report -->
    <g transform="translate(200.466563 35.472)scale(0.12 -0.12)">
     <defs>
      <path d="M 603 3500 
L 1178 3500 
L 1178 0 
L 603 0 
L 603 3500 
z
M 603 4863 
L 1178 4863 
L 1178 4134 
L 603 4134 
L 603 4863 
z
" id="DejaVuSans-69" transform="scale(0.015625)"/>
      <path d="M 603 4863 
L 1178 4863 
L 1178 0 
L 603 0 
L 603 4863 
z
" id="DejaVuSans-6c" transform="scale(0.015625)"/>
      <path d="M 2059 -325 
Q 1816 -950 1584 -1140 
Q 1353 -1331 966 -1331 
L 506 -1331 
L 506 -850 
L 844 -850 
Q 1081 -850 1212 -737 
Q 1344 -625 1503 -206 
L 1606 56 
L 191 3500 
L 800 3500 
L 1894 763 
L 2988 3500 
L 3597 3500 
L 2059 -325 
z
" id="DejaVuSans-79" transform="scale(0.015625)"/>
      <path d="M 3263 -1063 
L 3263 -1509 
L -63 -1509 
L -63 -1063 
L 3263 -1063 
z
" id="DejaVuSans-5f" transform="scale(0.015625)"/>
      <path d="M 2631 2963 
Q 2534 3019 2420 3045 
Q 2306 3072 2169 3072 
Q 1681 3072 1420 2755 
Q 1159 2438 1159 1844 
L 1159 0 
L 581 0 
L 581 3500 
L 1159 3500 
L 1159 2956 
Q 1341 3275 1631 3429 
Q 1922 3584 2338 3584 
Q 2397 3584 2469 3576 
Q 2541 3569 2628 3553 
L 2631 2963 
z
" id="DejaVuSans-72" transform="scale(0.015625)"/>
      <path d="M 1159 525 
L 1159 -1331 
L 581 -1331 
L 581 3500 
L 1159 3500 
L 1159 2969 
Q 1341 3281 1617 3432 
Q 1894 3584 2278 3584 
Q 2916 3584 3314 3078 
Q 3713 2572 3713 1747 
Q 3713 922 3314 415 
Q 2916 -91 2278 -91 
Q 1894 -91 1617 61 
Q 1341 213 1159 525 
z
M 3116 1747 
Q 3116 2381 2855 2742 
Q 2594 3103 2138 3103 
Q 1681 3103 1420 2742 
Q 1159 2381 1159 1747 
Q 1159 1113 1420 752 
Q 1681 391 2138 391 
Q 2594 391 2855 752 
Q 3116 1113 3116 1747 
z
" id="DejaVuSans-70" transform="scale(0.015625)"/>
      <path d="M 1959 3097 
Q 1497 3097 1228 2736 
Q 959 2375 959 1747 
Q 959 1119 1226 758 
Q 1494 397 1959 397 
Q 2419 397 2687 759 
Q 2956 1122 2956 1747 
Q 2956 2369 2687 2733 
Q 2419 3097 1959 3097 
z
M 1959 3584 
Q 2709 3584 3137 3096 
Q 3566 2609 3566 1747 
Q 3566 888 3137 398 
Q 2709 -91 1959 -91 
Q 1206 -91 779 398 
Q 353 888 353 1747 
Q 353 2609 779 3096 
Q 1206 3584 1959 3584 
z
" id="DejaVuSans-6f" transform="scale(0.015625)"/>
     </defs>
     <use xlink:href="#DejaVuSans-64"/>
     <use x="63.476562" xlink:href="#DejaVuSans-61"/>
     <use x="124.755859" xlink:href="#DejaVuSans-69"/>
     <use x="152.539062" xlink:href="#DejaVuSans-6c"/>
     <use x="180.322266" xlink:href="#DejaVuSans-79"/>
     <use x="239.501953" xlink:href="#DejaVuSans-5f"/>
     <use x="289.501953" xlink:href="#DejaVuSans-72"/>
     <use x="328.365234" xlink:href="#DejaVuSans-65"/>
     <use x="389.888672" xlink:href="#DejaVuSans-70"/>
     <use x="453.365234" xlink:href="#DejaVuSans-6f"/>
     <use x="514.546875" xlink:href="#DejaVuSans-72"/>
     <use x="555.660156" xlink:href="#DejaVuSans-74"/>
    </g>
   </g>
   <g id="legend_1">
    <g id="patch_7">
     <path d="M 64.6 271.48 
L 155.792188 271.48 
Q 157.792188 271.48 157.792188 269.48 
L 157.792188 197.089375 
Q 157.792188 195.089375 155.792188 195.089375 
L 64.6 195.089375 
Q 62.6 195.089375 62.6 197.089375 
L 62.6 269.48 
Q 62.6 271.48 64.6 271.48 
z
" style="fill:#ffffff;opacity:0.8;stroke:#cccccc;stroke-linejoin:miter;"/>
    </g>
    <g id="line2d_24">
     <path d="M 66.6 203.187812 
L 86.6 203.187812 
" style="fill:none;stroke:#0000ff;stroke-linecap:square;stroke-opacity:0.9;stroke-width:2;"/>
    </g>
    <g id="line2d_25"/>
    <g id="text_21">
     <!-- alpaca -->
     <g transform="translate(94.6 206.687812)scale(0.1 -0.1)">
      <defs>
       <path d="M 3122 3366 
L 3122 2828 
Q 2878 2963 2633 3030 
Q 2388 3097 2138 3097 
Q 1578 3097 1268 2742 
Q 959 2388 959 1747 
Q 959 1106 1268 751 
Q 1578 397 2138 397 
Q 2388 397 2633 464 
Q 2878 531 3122 666 
L 3122 134 
Q 2881 22 2623 -34 
Q 2366 -91 2075 -91 
Q 1284 -91 818 406 
Q 353 903 353 1747 
Q 353 2603 823 3093 
Q 1294 3584 2113 3584 
Q 2378 3584 2631 3529 
Q 2884 3475 3122 3366 
z
" id="DejaVuSans-63" transform="scale(0.015625)"/>
      </defs>
      <use xlink:href="#DejaVuSans-61"/>
      <use x="61.279297" xlink:href="#DejaVuSans-6c"/>
      <use x="89.0625" xlink:href="#DejaVuSans-70"/>
      <use x="152.539062" xlink:href="#DejaVuSans-61"/>
      <use x="213.818359" xlink:href="#DejaVuSans-63"/>
      <use x="268.798828" xlink:href="#DejaVuSans-61"/>
     </g>
    </g>
    <g id="line2d_26">
     <path d="M 66.6 217.865937 
L 86.6 217.865937 
" style="fill:none;stroke:#ff0000;stroke-linecap:square;stroke-opacity:0.9;stroke-width:2;"/>
    </g>
    <g id="line2d_27"/>
    <g id="text_22">
     <!-- mattress -->
     <g transform="translate(94.6 221.365937)scale(0.1 -0.1)">
      <defs>
       <path d="M 3328 2828 
Q 3544 3216 3844 3400 
Q 4144 3584 4550 3584 
Q 5097 3584 5394 3201 
Q 5691 2819 5691 2113 
L 5691 0 
L 5113 0 
L 5113 2094 
Q 5113 2597 4934 2840 
Q 4756 3084 4391 3084 
Q 3944 3084 3684 2787 
Q 3425 2491 3425 1978 
L 3425 0 
L 2847 0 
L 2847 2094 
Q 2847 2600 2669 2842 
Q 2491 3084 2119 3084 
Q 1678 3084 1418 2786 
Q 1159 2488 1159 1978 
L 1159 0 
L 581 0 
L 581 3500 
L 1159 3500 
L 1159 2956 
Q 1356 3278 1631 3431 
Q 1906 3584 2284 3584 
Q 2666 3584 2933 3390 
Q 3200 3197 3328 2828 
z
" id="DejaVuSans-6d" transform="scale(0.015625)"/>
       <path d="M 2834 3397 
L 2834 2853 
Q 2591 2978 2328 3040 
Q 2066 3103 1784 3103 
Q 1356 3103 1142 2972 
Q 928 2841 928 2578 
Q 928 2378 1081 2264 
Q 1234 2150 1697 2047 
L 1894 2003 
Q 2506 1872 2764 1633 
Q 3022 1394 3022 966 
Q 3022 478 2636 193 
Q 2250 -91 1575 -91 
Q 1294 -91 989 -36 
Q 684 19 347 128 
L 347 722 
Q 666 556 975 473 
Q 1284 391 1588 391 
Q 1994 391 2212 530 
Q 2431 669 2431 922 
Q 2431 1156 2273 1281 
Q 2116 1406 1581 1522 
L 1381 1569 
Q 847 1681 609 1914 
Q 372 2147 372 2553 
Q 372 3047 722 3315 
Q 1072 3584 1716 3584 
Q 2034 3584 2315 3537 
Q 2597 3491 2834 3397 
z
" id="DejaVuSans-73" transform="scale(0.015625)"/>
      </defs>
      <use xlink:href="#DejaVuSans-6d"/>
      <use x="97.412109" xlink:href="#DejaVuSans-61"/>
      <use x="158.691406" xlink:href="#DejaVuSans-74"/>
      <use x="197.900391" xlink:href="#DejaVuSans-74"/>
      <use x="237.109375" xlink:href="#DejaVuSans-72"/>
      <use x="275.972656" xlink:href="#DejaVuSans-65"/>
      <use x="337.496094" xlink:href="#DejaVuSans-73"/>
      <use x="389.595703" xlink:href="#DejaVuSans-73"/>
     </g>
    </g>
    <g id="line2d_28">
     <path d="M 66.6 232.544062 
L 86.6 232.544062 
" style="fill:none;stroke:#ff8040;stroke-linecap:square;stroke-opacity:0.9;stroke-width:2;"/>
    </g>
    <g id="line2d_29"/>
    <g id="text_23">
     <!-- trader-0850 -->
     <g transform="translate(94.6 236.044062)scale(0.1 -0.1)">
      <use xlink:href="#DejaVuSans-74"/>
      <use x="39.208984" xlink:href="#DejaVuSans-72"/>
      <use x="80.322266" xlink:href="#DejaVuSans-61"/>
      <use x="141.601562" xlink:href="#DejaVuSans-64"/>
      <use x="205.078125" xlink:href="#DejaVuSans-65"/>
      <use x="266.601562" xlink:href="#DejaVuSans-72"/>
      <use x="301.339844" xlink:href="#DejaVuSans-2d"/>
      <use x="337.423828" xlink:href="#DejaVuSans-30"/>
      <use x="401.046875" xlink:href="#DejaVuSans-38"/>
      <use x="464.669922" xlink:href="#DejaVuSans-35"/>
      <use x="528.292969" xlink:href="#DejaVuSans-30"/>
     </g>
    </g>
    <g id="line2d_30">
     <path d="M 66.6 247.222187 
L 86.6 247.222187 
" style="fill:none;stroke:#0d0d0d;stroke-linecap:square;stroke-opacity:0.25;stroke-width:2;"/>
    </g>
    <g id="line2d_31"/>
    <g id="text_24">
     <!-- rando-min -->
     <g transform="translate(94.6 250.722187)scale(0.1 -0.1)">
      <defs>
       <path d="M 3513 2113 
L 3513 0 
L 2938 0 
L 2938 2094 
Q 2938 2591 2744 2837 
Q 2550 3084 2163 3084 
Q 1697 3084 1428 2787 
Q 1159 2491 1159 1978 
L 1159 0 
L 581 0 
L 581 3500 
L 1159 3500 
L 1159 2956 
Q 1366 3272 1645 3428 
Q 1925 3584 2291 3584 
Q 2894 3584 3203 3211 
Q 3513 2838 3513 2113 
z
" id="DejaVuSans-6e" transform="scale(0.015625)"/>
      </defs>
      <use xlink:href="#DejaVuSans-72"/>
      <use x="41.113281" xlink:href="#DejaVuSans-61"/>
      <use x="102.392578" xlink:href="#DejaVuSans-6e"/>
      <use x="165.771484" xlink:href="#DejaVuSans-64"/>
      <use x="229.248047" xlink:href="#DejaVuSans-6f"/>
      <use x="292.304688" xlink:href="#DejaVuSans-2d"/>
      <use x="328.388672" xlink:href="#DejaVuSans-6d"/>
      <use x="425.800781" xlink:href="#DejaVuSans-69"/>
      <use x="453.583984" xlink:href="#DejaVuSans-6e"/>
     </g>
    </g>
    <g id="line2d_32">
     <path d="M 66.6 261.900312 
L 86.6 261.900312 
" style="fill:none;stroke:#0d0d0d;stroke-linecap:square;stroke-opacity:0.25;stroke-width:2;"/>
    </g>
    <g id="line2d_33"/>
    <g id="text_25">
     <!-- rando-max -->
     <g transform="translate(94.6 265.400312)scale(0.1 -0.1)">
      <defs>
       <path d="M 3513 3500 
L 2247 1797 
L 3578 0 
L 2900 0 
L 1881 1375 
L 863 0 
L 184 0 
L 1544 1831 
L 300 3500 
L 978 3500 
L 1906 2253 
L 2834 3500 
L 3513 3500 
z
" id="DejaVuSans-78" transform="scale(0.015625)"/>
      </defs>
      <use xlink:href="#DejaVuSans-72"/>
      <use x="41.113281" xlink:href="#DejaVuSans-61"/>
      <use x="102.392578" xlink:href="#DejaVuSans-6e"/>
      <use x="165.771484" xlink:href="#DejaVuSans-64"/>
      <use x="229.248047" xlink:href="#DejaVuSans-6f"/>
      <use x="292.304688" xlink:href="#DejaVuSans-2d"/>
      <use x="328.388672" xlink:href="#DejaVuSans-6d"/>
      <use x="425.800781" xlink:href="#DejaVuSans-61"/>
      <use x="487.080078" xlink:href="#DejaVuSans-78"/>
     </g>
    </g>
   </g>
  </g>
 </g>
 <defs>
  <clipPath id="p80449e7612">
   <rect height="235.008" width="357.12" x="57.6" y="41.472"/>
  </clipPath>
 </defs>
</svg>
