<?xml version="1.0" encoding="utf-8" standalone="no"?>
<!DOCTYPE svg PUBLIC "-//W3C//DTD SVG 1.1//EN"
  "http://www.w3.org/Graphics/SVG/1.1/DTD/svg11.dtd">
<svg height="345.6pt" version="1.1" viewBox="0 0 460.8 345.6" width="460.8pt" xmlns="http://www.w3.org/2000/svg" xmlns:xlink="http://www.w3.org/1999/xlink">
 <metadata>
  <rdf:RDF xmlns:cc="http://creativecommons.org/ns#" xmlns:dc="http://purl.org/dc/elements/1.1/" xmlns:rdf="http://www.w3.org/1999/02/22-rdf-syntax-ns#">
   <cc:Work>
    <dc:type rdf:resource="http://purl.org/dc/dcmitype/StillImage"/>
    <dc:date>2022-01-30T01:01:55.213173</dc:date>
    <dc:format>image/svg+xml</dc:format>
    <dc:creator>
     <cc:Agent>
      <dc:title>Matplotlib v3.4.3, https://matplotlib.org/</dc:title>
     </cc:Agent>
    </dc:creator>
   </cc:Work>
  </rdf:RDF>
 </metadata>
 <defs>
  <style type="text/css">*{stroke-linecap:butt;stroke-linejoin:round;}</style>
 </defs>
 <g id="figure_1">
  <g id="patch_1">
   <path d="M 0 345.6 
L 460.8 345.6 
L 460.8 0 
L 0 0 
z
" style="fill:#ffffff;"/>
  </g>
  <g id="axes_1">
   <g id="patch_2">
    <path d="M 57.6 276.48 
L 414.72 276.48 
L 414.72 41.472 
L 57.6 41.472 
z
" style="fill:#ffffff;"/>
   </g>
   <g id="matplotlib.axis_1">
    <g id="xtick_1">
     <g id="line2d_1">
      <defs>
       <path d="M 0 0 
L 0 3.5 
" id="m6f0bb34833" style="stroke:#000000;stroke-width:0.8;"/>
      </defs>
      <g>
       <use style="stroke:#000000;stroke-width:0.8;" x="92.325708" xlink:href="#m6f0bb34833" y="276.48"/>
      </g>
     </g>
     <g id="text_1">
      <!-- 2021-09 -->
      <g transform="translate(55.100887 310.951846)rotate(-30)scale(0.1 -0.1)">
       <defs>
        <path d="M 1228 531 
L 3431 531 
L 3431 0 
L 469 0 
L 469 531 
Q 828 903 1448 1529 
Q 2069 2156 2228 2338 
Q 2531 2678 2651 2914 
Q 2772 3150 2772 3378 
Q 2772 3750 2511 3984 
Q 2250 4219 1831 4219 
Q 1534 4219 1204 4116 
Q 875 4013 500 3803 
L 500 4441 
Q 881 4594 1212 4672 
Q 1544 4750 1819 4750 
Q 2544 4750 2975 4387 
Q 3406 4025 3406 3419 
Q 3406 3131 3298 2873 
Q 3191 2616 2906 2266 
Q 2828 2175 2409 1742 
Q 1991 1309 1228 531 
z
" id="DejaVuSans-32" transform="scale(0.015625)"/>
        <path d="M 2034 4250 
Q 1547 4250 1301 3770 
Q 1056 3291 1056 2328 
Q 1056 1369 1301 889 
Q 1547 409 2034 409 
Q 2525 409 2770 889 
Q 3016 1369 3016 2328 
Q 3016 3291 2770 3770 
Q 2525 4250 2034 4250 
z
M 2034 4750 
Q 2819 4750 3233 4129 
Q 3647 3509 3647 2328 
Q 3647 1150 3233 529 
Q 2819 -91 2034 -91 
Q 1250 -91 836 529 
Q 422 1150 422 2328 
Q 422 3509 836 4129 
Q 1250 4750 2034 4750 
z
" id="DejaVuSans-30" transform="scale(0.015625)"/>
        <path d="M 794 531 
L 1825 531 
L 1825 4091 
L 703 3866 
L 703 4441 
L 1819 4666 
L 2450 4666 
L 2450 531 
L 3481 531 
L 3481 0 
L 794 0 
L 794 531 
z
" id="DejaVuSans-31" transform="scale(0.015625)"/>
        <path d="M 313 2009 
L 1997 2009 
L 1997 1497 
L 313 1497 
L 313 2009 
z
" id="DejaVuSans-2d" transform="scale(0.015625)"/>
        <path d="M 703 97 
L 703 672 
Q 941 559 1184 500 
Q 1428 441 1663 441 
Q 2288 441 2617 861 
Q 2947 1281 2994 2138 
Q 2813 1869 2534 1725 
Q 2256 1581 1919 1581 
Q 1219 1581 811 2004 
Q 403 2428 403 3163 
Q 403 3881 828 4315 
Q 1253 4750 1959 4750 
Q 2769 4750 3195 4129 
Q 3622 3509 3622 2328 
Q 3622 1225 3098 567 
Q 2575 -91 1691 -91 
Q 1453 -91 1209 -44 
Q 966 3 703 97 
z
M 1959 2075 
Q 2384 2075 2632 2365 
Q 2881 2656 2881 3163 
Q 2881 3666 2632 3958 
Q 2384 4250 1959 4250 
Q 1534 4250 1286 3958 
Q 1038 3666 1038 3163 
Q 1038 2656 1286 2365 
Q 1534 2075 1959 2075 
z
" id="DejaVuSans-39" transform="scale(0.015625)"/>
       </defs>
       <use xlink:href="#DejaVuSans-32"/>
       <use x="63.623047" xlink:href="#DejaVuSans-30"/>
       <use x="127.246094" xlink:href="#DejaVuSans-32"/>
       <use x="190.869141" xlink:href="#DejaVuSans-31"/>
       <use x="254.492188" xlink:href="#DejaVuSans-2d"/>
       <use x="290.576172" xlink:href="#DejaVuSans-30"/>
       <use x="354.199219" xlink:href="#DejaVuSans-39"/>
      </g>
     </g>
    </g>
    <g id="xtick_2">
     <g id="line2d_2">
      <g>
       <use style="stroke:#000000;stroke-width:0.8;" x="153.968976" xlink:href="#m6f0bb34833" y="276.48"/>
      </g>
     </g>
     <g id="text_2">
      <!-- 2021-10 -->
      <g transform="translate(116.744155 310.951846)rotate(-30)scale(0.1 -0.1)">
       <use xlink:href="#DejaVuSans-32"/>
       <use x="63.623047" xlink:href="#DejaVuSans-30"/>
       <use x="127.246094" xlink:href="#DejaVuSans-32"/>
       <use x="190.869141" xlink:href="#DejaVuSans-31"/>
       <use x="254.492188" xlink:href="#DejaVuSans-2d"/>
       <use x="290.576172" xlink:href="#DejaVuSans-31"/>
       <use x="354.199219" xlink:href="#DejaVuSans-30"/>
      </g>
     </g>
    </g>
    <g id="xtick_3">
     <g id="line2d_3">
      <g>
       <use style="stroke:#000000;stroke-width:0.8;" x="217.66702" xlink:href="#m6f0bb34833" y="276.48"/>
      </g>
     </g>
     <g id="text_3">
      <!-- 2021-11 -->
      <g transform="translate(180.442199 310.951846)rotate(-30)scale(0.1 -0.1)">
       <use xlink:href="#DejaVuSans-32"/>
       <use x="63.623047" xlink:href="#DejaVuSans-30"/>
       <use x="127.246094" xlink:href="#DejaVuSans-32"/>
       <use x="190.869141" xlink:href="#DejaVuSans-31"/>
       <use x="254.492188" xlink:href="#DejaVuSans-2d"/>
       <use x="290.576172" xlink:href="#DejaVuSans-31"/>
       <use x="354.199219" xlink:href="#DejaVuSans-31"/>
      </g>
     </g>
    </g>
    <g id="xtick_4">
     <g id="line2d_4">
      <g>
       <use style="stroke:#000000;stroke-width:0.8;" x="279.310288" xlink:href="#m6f0bb34833" y="276.48"/>
      </g>
     </g>
     <g id="text_4">
      <!-- 2021-12 -->
      <g transform="translate(242.085467 310.951846)rotate(-30)scale(0.1 -0.1)">
       <use xlink:href="#DejaVuSans-32"/>
       <use x="63.623047" xlink:href="#DejaVuSans-30"/>
       <use x="127.246094" xlink:href="#DejaVuSans-32"/>
       <use x="190.869141" xlink:href="#DejaVuSans-31"/>
       <use x="254.492188" xlink:href="#DejaVuSans-2d"/>
       <use x="290.576172" xlink:href="#DejaVuSans-31"/>
       <use x="354.199219" xlink:href="#DejaVuSans-32"/>
      </g>
     </g>
    </g>
    <g id="xtick_5">
     <g id="line2d_5">
      <g>
       <use style="stroke:#000000;stroke-width:0.8;" x="343.008331" xlink:href="#m6f0bb34833" y="276.48"/>
      </g>
     </g>
     <g id="text_5">
      <!-- 2022-01 -->
      <g transform="translate(305.783511 310.951846)rotate(-30)scale(0.1 -0.1)">
       <use xlink:href="#DejaVuSans-32"/>
       <use x="63.623047" xlink:href="#DejaVuSans-30"/>
       <use x="127.246094" xlink:href="#DejaVuSans-32"/>
       <use x="190.869141" xlink:href="#DejaVuSans-32"/>
       <use x="254.492188" xlink:href="#DejaVuSans-2d"/>
       <use x="290.576172" xlink:href="#DejaVuSans-30"/>
       <use x="354.199219" xlink:href="#DejaVuSans-31"/>
      </g>
     </g>
    </g>
    <g id="xtick_6">
     <g id="line2d_6">
      <g>
       <use style="stroke:#000000;stroke-width:0.8;" x="406.706375" xlink:href="#m6f0bb34833" y="276.48"/>
      </g>
     </g>
     <g id="text_6">
      <!-- 2022-02 -->
      <g transform="translate(369.481554 310.951846)rotate(-30)scale(0.1 -0.1)">
       <use xlink:href="#DejaVuSans-32"/>
       <use x="63.623047" xlink:href="#DejaVuSans-30"/>
       <use x="127.246094" xlink:href="#DejaVuSans-32"/>
       <use x="190.869141" xlink:href="#DejaVuSans-32"/>
       <use x="254.492188" xlink:href="#DejaVuSans-2d"/>
       <use x="290.576172" xlink:href="#DejaVuSans-30"/>
       <use x="354.199219" xlink:href="#DejaVuSans-32"/>
      </g>
     </g>
    </g>
    <g id="text_7">
     <!-- date -->
     <g transform="translate(224.885 324.351346)scale(0.1 -0.1)">
      <defs>
       <path d="M 2906 2969 
L 2906 4863 
L 3481 4863 
L 3481 0 
L 2906 0 
L 2906 525 
Q 2725 213 2448 61 
Q 2172 -91 1784 -91 
Q 1150 -91 751 415 
Q 353 922 353 1747 
Q 353 2572 751 3078 
Q 1150 3584 1784 3584 
Q 2172 3584 2448 3432 
Q 2725 3281 2906 2969 
z
M 947 1747 
Q 947 1113 1208 752 
Q 1469 391 1925 391 
Q 2381 391 2643 752 
Q 2906 1113 2906 1747 
Q 2906 2381 2643 2742 
Q 2381 3103 1925 3103 
Q 1469 3103 1208 2742 
Q 947 2381 947 1747 
z
" id="DejaVuSans-64" transform="scale(0.015625)"/>
       <path d="M 2194 1759 
Q 1497 1759 1228 1600 
Q 959 1441 959 1056 
Q 959 750 1161 570 
Q 1363 391 1709 391 
Q 2188 391 2477 730 
Q 2766 1069 2766 1631 
L 2766 1759 
L 2194 1759 
z
M 3341 1997 
L 3341 0 
L 2766 0 
L 2766 531 
Q 2569 213 2275 61 
Q 1981 -91 1556 -91 
Q 1019 -91 701 211 
Q 384 513 384 1019 
Q 384 1609 779 1909 
Q 1175 2209 1959 2209 
L 2766 2209 
L 2766 2266 
Q 2766 2663 2505 2880 
Q 2244 3097 1772 3097 
Q 1472 3097 1187 3025 
Q 903 2953 641 2809 
L 641 3341 
Q 956 3463 1253 3523 
Q 1550 3584 1831 3584 
Q 2591 3584 2966 3190 
Q 3341 2797 3341 1997 
z
" id="DejaVuSans-61" transform="scale(0.015625)"/>
       <path d="M 1172 4494 
L 1172 3500 
L 2356 3500 
L 2356 3053 
L 1172 3053 
L 1172 1153 
Q 1172 725 1289 603 
Q 1406 481 1766 481 
L 2356 481 
L 2356 0 
L 1766 0 
Q 1100 0 847 248 
Q 594 497 594 1153 
L 594 3053 
L 172 3053 
L 172 3500 
L 594 3500 
L 594 4494 
L 1172 4494 
z
" id="DejaVuSans-74" transform="scale(0.015625)"/>
       <path d="M 3597 1894 
L 3597 1613 
L 953 1613 
Q 991 1019 1311 708 
Q 1631 397 2203 397 
Q 2534 397 2845 478 
Q 3156 559 3463 722 
L 3463 178 
Q 3153 47 2828 -22 
Q 2503 -91 2169 -91 
Q 1331 -91 842 396 
Q 353 884 353 1716 
Q 353 2575 817 3079 
Q 1281 3584 2069 3584 
Q 2775 3584 3186 3129 
Q 3597 2675 3597 1894 
z
M 3022 2063 
Q 3016 2534 2758 2815 
Q 2500 3097 2075 3097 
Q 1594 3097 1305 2825 
Q 1016 2553 972 2059 
L 3022 2063 
z
" id="DejaVuSans-65" transform="scale(0.015625)"/>
      </defs>
      <use xlink:href="#DejaVuSans-64"/>
      <use x="63.476562" xlink:href="#DejaVuSans-61"/>
      <use x="124.755859" xlink:href="#DejaVuSans-74"/>
      <use x="163.964844" xlink:href="#DejaVuSans-65"/>
     </g>
    </g>
   </g>
   <g id="matplotlib.axis_2">
    <g id="ytick_1">
     <g id="line2d_7">
      <defs>
       <path d="M 0 0 
L -3.5 0 
" id="m9b7a08f7f1" style="stroke:#000000;stroke-width:0.8;"/>
      </defs>
      <g>
       <use style="stroke:#000000;stroke-width:0.8;" x="57.6" xlink:href="#m9b7a08f7f1" y="236.099218"/>
      </g>
     </g>
     <g id="text_8">
      <!-- 95000 -->
      <g transform="translate(18.7875 239.898436)scale(0.1 -0.1)">
       <defs>
        <path d="M 691 4666 
L 3169 4666 
L 3169 4134 
L 1269 4134 
L 1269 2991 
Q 1406 3038 1543 3061 
Q 1681 3084 1819 3084 
Q 2600 3084 3056 2656 
Q 3513 2228 3513 1497 
Q 3513 744 3044 326 
Q 2575 -91 1722 -91 
Q 1428 -91 1123 -41 
Q 819 9 494 109 
L 494 744 
Q 775 591 1075 516 
Q 1375 441 1709 441 
Q 2250 441 2565 725 
Q 2881 1009 2881 1497 
Q 2881 1984 2565 2268 
Q 2250 2553 1709 2553 
Q 1456 2553 1204 2497 
Q 953 2441 691 2322 
L 691 4666 
z
" id="DejaVuSans-35" transform="scale(0.015625)"/>
       </defs>
       <use xlink:href="#DejaVuSans-39"/>
       <use x="63.623047" xlink:href="#DejaVuSans-35"/>
       <use x="127.246094" xlink:href="#DejaVuSans-30"/>
       <use x="190.869141" xlink:href="#DejaVuSans-30"/>
       <use x="254.492188" xlink:href="#DejaVuSans-30"/>
      </g>
     </g>
    </g>
    <g id="ytick_2">
     <g id="line2d_8">
      <g>
       <use style="stroke:#000000;stroke-width:0.8;" x="57.6" xlink:href="#m9b7a08f7f1" y="188.196853"/>
      </g>
     </g>
     <g id="text_9">
      <!-- 100000 -->
      <g transform="translate(12.425 191.996071)scale(0.1 -0.1)">
       <use xlink:href="#DejaVuSans-31"/>
       <use x="63.623047" xlink:href="#DejaVuSans-30"/>
       <use x="127.246094" xlink:href="#DejaVuSans-30"/>
       <use x="190.869141" xlink:href="#DejaVuSans-30"/>
       <use x="254.492188" xlink:href="#DejaVuSans-30"/>
       <use x="318.115234" xlink:href="#DejaVuSans-30"/>
      </g>
     </g>
    </g>
    <g id="ytick_3">
     <g id="line2d_9">
      <g>
       <use style="stroke:#000000;stroke-width:0.8;" x="57.6" xlink:href="#m9b7a08f7f1" y="140.294487"/>
      </g>
     </g>
     <g id="text_10">
      <!-- 105000 -->
      <g transform="translate(12.425 144.093706)scale(0.1 -0.1)">
       <use xlink:href="#DejaVuSans-31"/>
       <use x="63.623047" xlink:href="#DejaVuSans-30"/>
       <use x="127.246094" xlink:href="#DejaVuSans-35"/>
       <use x="190.869141" xlink:href="#DejaVuSans-30"/>
       <use x="254.492188" xlink:href="#DejaVuSans-30"/>
       <use x="318.115234" xlink:href="#DejaVuSans-30"/>
      </g>
     </g>
    </g>
    <g id="ytick_4">
     <g id="line2d_10">
      <g>
       <use style="stroke:#000000;stroke-width:0.8;" x="57.6" xlink:href="#m9b7a08f7f1" y="92.392122"/>
      </g>
     </g>
     <g id="text_11">
      <!-- 110000 -->
      <g transform="translate(12.425 96.191341)scale(0.1 -0.1)">
       <use xlink:href="#DejaVuSans-31"/>
       <use x="63.623047" xlink:href="#DejaVuSans-31"/>
       <use x="127.246094" xlink:href="#DejaVuSans-30"/>
       <use x="190.869141" xlink:href="#DejaVuSans-30"/>
       <use x="254.492188" xlink:href="#DejaVuSans-30"/>
       <use x="318.115234" xlink:href="#DejaVuSans-30"/>
      </g>
     </g>
    </g>
    <g id="ytick_5">
     <g id="line2d_11">
      <g>
       <use style="stroke:#000000;stroke-width:0.8;" x="57.6" xlink:href="#m9b7a08f7f1" y="44.489757"/>
      </g>
     </g>
     <g id="text_12">
      <!-- 115000 -->
      <g transform="translate(12.425 48.288976)scale(0.1 -0.1)">
       <use xlink:href="#DejaVuSans-31"/>
       <use x="63.623047" xlink:href="#DejaVuSans-31"/>
       <use x="127.246094" xlink:href="#DejaVuSans-35"/>
       <use x="190.869141" xlink:href="#DejaVuSans-30"/>
       <use x="254.492188" xlink:href="#DejaVuSans-30"/>
       <use x="318.115234" xlink:href="#DejaVuSans-30"/>
      </g>
     </g>
    </g>
   </g>
   <g id="line2d_12">
    <path clip-path="url(#p1cd81ea506)" d="M 73.832727 188.196853 
L 75.887503 188.579924 
L 77.942278 184.393879 
L 79.997054 190.216441 
L 82.05183 180.753306 
L 88.216157 174.964795 
L 90.270932 173.072404 
L 92.325708 176.068552 
L 94.380483 174.251165 
L 96.435259 174.907451 
L 104.654361 175.32232 
L 106.709137 178.793265 
L 108.763913 181.675726 
L 110.818688 189.8529 
L 116.983015 182.558524 
L 119.037791 195.233367 
L 121.092566 189.696191 
L 123.147342 192.111915 
L 125.202117 201.017631 
L 131.366444 218.037507 
L 133.42122 220.260415 
L 135.475995 213.351266 
L 137.530771 197.88754 
L 139.585547 189.904288 
L 145.749873 182.780186 
L 147.804649 203.480595 
L 149.859425 200.156195 
L 151.9142 207.114567 
L 153.968976 193.454988 
L 160.133303 211.302578 
L 162.188078 196.584178 
L 164.242854 193.401983 
L 166.297629 193.045894 
L 168.352405 191.266048 
L 174.516732 189.764066 
L 176.571507 189.410464 
L 178.626283 201.576873 
L 180.681059 183.088135 
L 182.735834 181.239401 
L 188.900161 173.21324 
L 190.954937 164.01523 
L 193.009712 160.06665 
L 195.064488 176.78562 
L 197.119264 189.681454 
L 203.28359 188.689186 
L 205.338366 196.955446 
L 207.393142 199.3181 
L 209.447917 186.988382 
L 211.502693 199.497212 
L 217.66702 179.8451 
L 219.721795 180.160577 
L 221.776571 170.867184 
L 223.831346 182.461794 
L 225.886122 176.065589 
L 232.050449 174.912865 
L 234.105224 187.402996 
L 236.16 186.743641 
L 238.214776 194.334569 
L 240.269551 186.617978 
L 246.433878 184.298832 
L 248.488654 184.500825 
L 250.543429 188.946737 
L 252.598205 191.714577 
L 254.65298 192.181058 
L 260.817307 186.272634 
L 262.872083 178.800092 
L 264.926858 179.796781 
L 269.03641 178.895004 
L 275.200736 188.011591 
L 277.255512 206.274077 
L 279.310288 219.055793 
L 281.365063 207.544728 
L 283.419839 213.834483 
L 289.584166 196.088956 
L 291.638941 179.274127 
L 293.693717 171.358546 
L 295.748493 171.313035 
L 297.803268 168.262941 
L 303.967595 177.661425 
L 306.022371 172.430531 
L 308.077146 167.521192 
L 310.131922 163.050181 
L 312.186697 174.571733 
L 318.351024 187.737914 
L 320.4058 165.052805 
L 322.460575 160.835064 
L 324.515351 151.854431 
L 332.734453 139.31278 
L 334.789229 140.170999 
L 336.844005 139.927674 
L 338.89878 141.412852 
L 340.953556 145.84089 
L 347.117883 130.645081 
L 349.172658 117.934642 
L 351.227434 144.446554 
L 353.282209 136.385097 
L 355.336985 132.211885 
L 361.501312 131.538266 
L 363.556087 123.130765 
L 365.610863 121.389105 
L 367.665639 133.217212 
L 369.720414 130.344244 
L 377.939517 152.401469 
L 379.994292 156.792074 
L 382.049068 168.398692 
L 384.103843 191.301945 
L 390.26817 189.54296 
L 392.322946 200.727665 
L 394.377722 200.84314 
L 396.432497 207.185644 
L 398.487273 181.398416 
" style="fill:none;stroke:#0000ff;stroke-linecap:square;stroke-opacity:0.9;stroke-width:2;"/>
   </g>
   <g id="line2d_13">
    <path clip-path="url(#p1cd81ea506)" d="M 73.832727 188.196853 
L 75.887503 182.712891 
L 77.942278 178.869516 
L 79.997054 184.170187 
L 82.05183 173.393373 
L 88.216157 169.607012 
L 90.270932 168.088829 
L 92.325708 168.698473 
L 94.380483 169.660202 
L 96.435259 169.958075 
L 104.654361 168.064776 
L 106.709137 171.877324 
L 108.763913 173.506087 
L 110.818688 183.849318 
L 116.983015 176.604798 
L 119.037791 186.503802 
L 121.092566 181.729771 
L 123.147342 184.313555 
L 125.202117 195.976977 
L 131.366444 211.994094 
L 133.42122 212.45287 
L 135.475995 206.153338 
L 137.530771 194.713603 
L 139.585547 187.736297 
L 145.749873 181.003561 
L 147.804649 199.918465 
L 149.859425 198.935567 
L 151.9142 208.580068 
L 153.968976 194.354919 
L 160.133303 204.996995 
L 162.188078 191.110273 
L 164.242854 188.606486 
L 166.297629 185.996271 
L 168.352405 181.879484 
L 174.516732 186.701747 
L 176.571507 194.552306 
L 178.626283 197.356344 
L 180.681059 174.261396 
L 182.735834 167.741629 
L 188.900161 164.90801 
L 190.954937 156.274003 
L 193.009712 151.210953 
L 195.064488 164.046053 
L 197.119264 169.455494 
L 203.28359 172.066283 
L 205.338366 177.223647 
L 207.393142 182.222739 
L 209.447917 169.301085 
L 211.502693 167.482102 
L 217.66702 166.254528 
L 219.721795 163.267588 
L 221.776571 155.374939 
L 223.831346 158.091759 
L 225.886122 158.048761 
L 232.050449 156.178168 
L 234.105224 163.668717 
L 236.16 168.902182 
L 238.214776 169.13667 
L 240.269551 162.616662 
L 246.433878 160.459416 
L 248.488654 162.071022 
L 250.543429 162.898143 
L 252.598205 163.233502 
L 254.65298 167.242475 
L 260.817307 162.719634 
L 262.872083 153.441188 
L 264.926858 152.654938 
L 269.03641 178.436297 
L 275.200736 167.40213 
L 277.255512 187.759123 
L 279.310288 199.709987 
L 281.365063 186.256459 
L 283.419839 194.255212 
L 289.584166 179.205235 
L 291.638941 162.499313 
L 293.693717 156.747617 
L 295.748493 158.145114 
L 297.803268 151.248724 
L 303.967595 161.713944 
L 306.022371 161.10551 
L 308.077146 153.550849 
L 310.131922 152.869099 
L 312.186697 166.222035 
L 318.351024 176.8608 
L 320.4058 158.19976 
L 322.460575 152.636108 
L 324.515351 144.695238 
L 332.734453 131.471295 
L 334.789229 132.110929 
L 336.844005 131.5585 
L 338.89878 132.790322 
L 340.953556 136.3434 
L 347.117883 126.006839 
L 349.172658 116.100308 
L 351.227434 137.882651 
L 353.282209 133.693835 
L 355.336985 128.514149 
L 361.501312 130.18435 
L 363.556087 124.082525 
L 365.610863 123.91675 
L 367.665639 130.953185 
L 369.720414 131.459238 
L 377.939517 154.142812 
L 379.994292 163.361023 
L 382.049068 173.213401 
L 384.103843 193.220376 
L 390.26817 194.055524 
L 392.322946 192.529056 
L 394.377722 193.856643 
L 396.432497 201.890993 
L 398.487273 178.838593 
" style="fill:none;stroke:#ff0000;stroke-linecap:square;stroke-opacity:0.9;stroke-width:2;"/>
   </g>
   <g id="line2d_14">
    <path clip-path="url(#p1cd81ea506)" d="M 73.832727 188.196853 
L 75.887503 183.282296 
L 77.942278 179.689804 
L 79.997054 184.228488 
L 82.05183 175.14246 
L 88.216157 168.790665 
L 90.270932 167.541617 
L 92.325708 169.94222 
L 94.380483 168.868117 
L 96.435259 169.159182 
L 104.654361 169.306444 
L 106.709137 172.686604 
L 108.763913 174.710577 
L 110.818688 183.431326 
L 116.983015 175.909193 
L 119.037791 188.851271 
L 121.092566 183.583469 
L 123.147342 185.586724 
L 125.202117 194.774364 
L 131.366444 210.912508 
L 133.42122 213.049203 
L 135.475995 206.47946 
L 137.530771 191.09505 
L 139.585547 183.219578 
L 145.749873 174.084711 
L 147.804649 195.559727 
L 149.859425 192.239141 
L 151.9142 198.977978 
L 153.968976 184.822575 
L 160.133303 202.17323 
L 162.188078 188.286073 
L 164.242854 184.167854 
L 166.297629 181.774243 
L 168.352405 177.505153 
L 174.516732 182.677845 
L 176.571507 190.30975 
L 178.626283 192.104368 
L 180.681059 173.924601 
L 182.735834 171.753177 
L 188.900161 164.254926 
L 190.954937 154.448898 
L 193.009712 149.957071 
L 195.064488 166.17311 
L 197.119264 178.983237 
L 203.28359 178.145385 
L 205.338366 187.082914 
L 207.393142 188.819569 
L 209.447917 176.968153 
L 211.502693 174.986493 
L 217.66702 169.630898 
L 219.721795 167.853285 
L 221.776571 160.069387 
L 223.831346 159.560189 
L 225.886122 152.730652 
L 232.050449 151.953564 
L 234.105224 164.48368 
L 236.16 171.812662 
L 238.214776 172.286231 
L 240.269551 164.828312 
L 246.433878 161.720333 
L 248.488654 166.123552 
L 250.543429 166.810443 
L 252.598205 169.532356 
L 254.65298 169.632061 
L 260.817307 163.514548 
L 262.872083 154.822512 
L 264.926858 156.26121 
L 269.03641 178.203246 
L 275.200736 165.853475 
L 277.255512 184.301271 
L 279.310288 198.061714 
L 281.365063 186.338636 
L 283.419839 193.248118 
L 289.584166 174.233496 
L 291.638941 157.099775 
L 293.693717 149.70282 
L 295.748493 149.107029 
L 297.803268 145.349405 
L 303.967595 155.204494 
L 306.022371 150.388591 
L 308.077146 144.457046 
L 310.131922 140.508459 
L 312.186697 153.146827 
L 318.351024 166.380336 
L 320.4058 143.207589 
L 322.460575 138.660341 
L 324.515351 129.675035 
L 332.734453 117.086235 
L 334.789229 117.31823 
L 336.844005 116.628829 
L 338.89878 118.111537 
L 340.953556 123.555856 
L 347.117883 107.071048 
L 349.172658 94.353012 
L 351.227434 121.672482 
L 353.282209 111.405349 
L 355.336985 106.935804 
L 361.501312 105.517157 
L 363.556087 96.123308 
L 365.610863 93.339766 
L 367.665639 106.358467 
L 369.720414 103.347802 
L 377.939517 125.574265 
L 379.994292 130.52936 
L 382.049068 142.520088 
L 384.103843 165.7925 
L 390.26817 164.003725 
L 392.322946 175.960566 
L 394.377722 175.420287 
L 396.432497 181.921786 
L 398.487273 156.898712 
" style="fill:none;stroke:#ff8040;stroke-linecap:square;stroke-opacity:0.9;stroke-width:2;"/>
   </g>
   <g id="line2d_15">
    <path clip-path="url(#p1cd81ea506)" d="M 73.832727 189.1549 
L 75.887503 186.239015 
L 77.942278 183.054428 
L 79.997054 191.327854 
L 82.05183 182.228264 
L 88.216157 185.403087 
L 90.270932 182.543808 
L 92.325708 183.713759 
L 94.380483 188.783999 
L 96.435259 187.44141 
L 104.654361 186.192023 
L 106.709137 189.703055 
L 108.763913 190.632982 
L 110.818688 206.240186 
L 116.983015 196.785825 
L 119.037791 207.393204 
L 121.092566 200.662199 
L 123.147342 204.07822 
L 125.202117 215.528191 
L 131.366444 229.505391 
L 133.42122 230.40517 
L 135.475995 227.895878 
L 137.530771 217.302186 
L 139.585547 211.293737 
L 145.749873 209.373167 
L 147.804649 230.273872 
L 149.859425 228.447474 
L 151.9142 237.499406 
L 153.968976 221.939858 
L 160.133303 233.509135 
L 162.188078 220.962363 
L 164.242854 218.593411 
L 166.297629 216.185247 
L 168.352405 212.251439 
L 174.516732 218.841313 
L 176.571507 228.094878 
L 178.626283 229.312855 
L 180.681059 208.024595 
L 182.735834 202.021645 
L 188.900161 204.366037 
L 190.954937 197.7444 
L 193.009712 191.487744 
L 195.064488 209.619851 
L 197.119264 224.02688 
L 203.28359 227.977717 
L 205.338366 234.753799 
L 207.393142 249.423726 
L 209.447917 235.351206 
L 211.502693 234.117617 
L 217.66702 236.893489 
L 219.721795 231.95801 
L 221.776571 225.490148 
L 223.831346 218.758667 
L 225.886122 219.597385 
L 232.050449 219.317382 
L 234.105224 225.682153 
L 236.16 231.265456 
L 238.214776 230.27264 
L 240.269551 224.496141 
L 246.433878 220.565948 
L 248.488654 223.205311 
L 250.543429 223.785712 
L 252.598205 223.938065 
L 254.65298 227.03987 
L 260.817307 222.070674 
L 262.872083 212.729684 
L 264.926858 211.781698 
L 269.03641 231.219813 
L 275.200736 222.153461 
L 277.255512 240.677957 
L 279.310288 247.296469 
L 281.365063 235.019404 
L 283.419839 243.312451 
L 289.584166 229.535733 
L 291.638941 211.95183 
L 293.693717 210.447666 
L 295.748493 210.714186 
L 297.803268 205.192217 
L 303.967595 214.807327 
L 306.022371 213.351247 
L 308.077146 202.31664 
L 310.131922 204.544934 
L 312.186697 225.029067 
L 318.351024 234.116296 
L 320.4058 215.820025 
L 322.460575 210.848947 
L 324.515351 204.602812 
L 332.734453 197.152943 
L 334.789229 196.614687 
L 336.844005 196.444223 
L 338.89878 197.146727 
L 340.953556 204.58326 
L 347.117883 194.844176 
L 349.172658 188.236669 
L 351.227434 211.93959 
L 353.282209 205.85294 
L 355.336985 202.019287 
L 361.501312 201.972382 
L 363.556087 197.138659 
L 365.610863 193.637638 
L 367.665639 202.038295 
L 369.720414 199.952076 
L 377.939517 216.62019 
L 379.994292 227.009916 
L 382.049068 236.122414 
L 384.103843 256.835265 
L 390.26817 259.456271 
L 392.322946 256.946045 
L 394.377722 260.425372 
L 396.432497 265.797818 
L 398.487273 250.75976 
" style="fill:none;stroke:#0d0d0d;stroke-linecap:square;stroke-opacity:0.25;stroke-width:2;"/>
   </g>
   <g id="line2d_16">
    <path clip-path="url(#p1cd81ea506)" d="M 73.832727 187.238805 
L 75.887503 178.841908 
L 77.942278 172.594466 
L 79.997054 176.029425 
L 82.05183 161.398031 
L 88.216157 155.534227 
L 90.270932 153.389892 
L 92.325708 150.744416 
L 94.380483 149.510962 
L 96.435259 148.33897 
L 104.654361 151.474799 
L 106.709137 153.073981 
L 108.763913 154.359563 
L 110.818688 166.073915 
L 116.983015 157.315573 
L 119.037791 163.705915 
L 121.092566 158.486317 
L 123.147342 163.741474 
L 125.202117 174.85841 
L 131.366444 194.831201 
L 133.42122 194.508717 
L 135.475995 185.29165 
L 137.530771 172.891278 
L 139.585547 166.536983 
L 145.749873 152.721724 
L 147.804649 172.831081 
L 149.859425 168.785311 
L 151.9142 177.19447 
L 153.968976 161.681185 
L 160.133303 171.619109 
L 162.188078 159.37729 
L 164.242854 157.289394 
L 166.297629 154.156226 
L 168.352405 150.395674 
L 174.516732 154.733675 
L 176.571507 163.233799 
L 178.626283 165.93056 
L 180.681059 140.696833 
L 182.735834 133.02178 
L 188.900161 129.348562 
L 190.954937 120.027933 
L 193.009712 115.497658 
L 195.064488 125.548132 
L 197.119264 130.95836 
L 203.28359 135.169312 
L 205.338366 140.721122 
L 207.393142 143.753754 
L 209.447917 130.960535 
L 211.502693 131.416907 
L 217.66702 131.309155 
L 219.721795 126.264845 
L 221.776571 115.092897 
L 223.831346 109.551381 
L 225.886122 108.806763 
L 232.050449 109.818084 
L 234.105224 120.48109 
L 236.16 127.240239 
L 238.214776 127.488384 
L 240.269551 119.150563 
L 246.433878 114.846337 
L 248.488654 116.29706 
L 250.543429 116.373084 
L 252.598205 117.517821 
L 254.65298 118.715895 
L 260.817307 114.552499 
L 262.872083 107.000149 
L 264.926858 106.765344 
L 269.03641 131.380117 
L 275.200736 114.240194 
L 277.255512 139.186673 
L 279.310288 147.229166 
L 281.365063 127.725757 
L 283.419839 135.323711 
L 289.584166 119.702561 
L 291.638941 103.350475 
L 293.693717 98.258783 
L 295.748493 99.60567 
L 297.803268 92.866176 
L 303.967595 102.999972 
L 306.022371 105.345655 
L 308.077146 97.042755 
L 310.131922 96.759881 
L 312.186697 114.251056 
L 318.351024 125.369163 
L 320.4058 102.625208 
L 322.460575 99.225278 
L 324.515351 90.396455 
L 332.734453 75.377108 
L 334.789229 75.084649 
L 336.844005 74.350699 
L 338.89878 76.593948 
L 340.953556 78.860641 
L 347.117883 66.569296 
L 349.172658 52.154182 
L 351.227434 82.009225 
L 353.282209 74.91518 
L 355.336985 68.621695 
L 361.501312 70.326179 
L 363.556087 60.545314 
L 365.610863 59.007804 
L 367.665639 65.566773 
L 369.720414 66.680294 
L 377.939517 91.278074 
L 379.994292 101.28075 
L 382.049068 112.149268 
L 384.103843 133.707079 
L 390.26817 133.749204 
L 392.322946 130.013389 
L 394.377722 131.793273 
L 396.432497 138.777309 
L 398.487273 114.474445 
" style="fill:none;stroke:#0d0d0d;stroke-linecap:square;stroke-opacity:0.25;stroke-width:2;"/>
   </g>
   <g id="patch_3">
    <path d="M 57.6 276.48 
L 57.6 41.472 
" style="fill:none;stroke:#000000;stroke-linecap:square;stroke-linejoin:miter;stroke-width:0.8;"/>
   </g>
   <g id="patch_4">
    <path d="M 414.72 276.48 
L 414.72 41.472 
" style="fill:none;stroke:#000000;stroke-linecap:square;stroke-linejoin:miter;stroke-width:0.8;"/>
   </g>
   <g id="patch_5">
    <path d="M 57.6 276.48 
L 414.72 276.48 
" style="fill:none;stroke:#000000;stroke-linecap:square;stroke-linejoin:miter;stroke-width:0.8;"/>
   </g>
   <g id="patch_6">
    <path d="M 57.6 41.472 
L 414.72 41.472 
" style="fill:none;stroke:#000000;stroke-linecap:square;stroke-linejoin:miter;stroke-width:0.8;"/>
   </g>
   <g id="text_13">
    <!-- TESTFUNDS1550 -->
    <g transform="translate(185.200312 22.034625)scale(0.12 -0.12)">
     <defs>
      <path d="M -19 4666 
L 3928 4666 
L 3928 4134 
L 2272 4134 
L 2272 0 
L 1638 0 
L 1638 4134 
L -19 4134 
L -19 4666 
z
" id="DejaVuSans-54" transform="scale(0.015625)"/>
      <path d="M 628 4666 
L 3578 4666 
L 3578 4134 
L 1259 4134 
L 1259 2753 
L 3481 2753 
L 3481 2222 
L 1259 2222 
L 1259 531 
L 3634 531 
L 3634 0 
L 628 0 
L 628 4666 
z
" id="DejaVuSans-45" transform="scale(0.015625)"/>
      <path d="M 3425 4513 
L 3425 3897 
Q 3066 4069 2747 4153 
Q 2428 4238 2131 4238 
Q 1616 4238 1336 4038 
Q 1056 3838 1056 3469 
Q 1056 3159 1242 3001 
Q 1428 2844 1947 2747 
L 2328 2669 
Q 3034 2534 3370 2195 
Q 3706 1856 3706 1288 
Q 3706 609 3251 259 
Q 2797 -91 1919 -91 
Q 1588 -91 1214 -16 
Q 841 59 441 206 
L 441 856 
Q 825 641 1194 531 
Q 1563 422 1919 422 
Q 2459 422 2753 634 
Q 3047 847 3047 1241 
Q 3047 1584 2836 1778 
Q 2625 1972 2144 2069 
L 1759 2144 
Q 1053 2284 737 2584 
Q 422 2884 422 3419 
Q 422 4038 858 4394 
Q 1294 4750 2059 4750 
Q 2388 4750 2728 4690 
Q 3069 4631 3425 4513 
z
" id="DejaVuSans-53" transform="scale(0.015625)"/>
      <path d="M 628 4666 
L 3309 4666 
L 3309 4134 
L 1259 4134 
L 1259 2759 
L 3109 2759 
L 3109 2228 
L 1259 2228 
L 1259 0 
L 628 0 
L 628 4666 
z
" id="DejaVuSans-46" transform="scale(0.015625)"/>
      <path d="M 556 4666 
L 1191 4666 
L 1191 1831 
Q 1191 1081 1462 751 
Q 1734 422 2344 422 
Q 2950 422 3222 751 
Q 3494 1081 3494 1831 
L 3494 4666 
L 4128 4666 
L 4128 1753 
Q 4128 841 3676 375 
Q 3225 -91 2344 -91 
Q 1459 -91 1007 375 
Q 556 841 556 1753 
L 556 4666 
z
" id="DejaVuSans-55" transform="scale(0.015625)"/>
      <path d="M 628 4666 
L 1478 4666 
L 3547 763 
L 3547 4666 
L 4159 4666 
L 4159 0 
L 3309 0 
L 1241 3903 
L 1241 0 
L 628 0 
L 628 4666 
z
" id="DejaVuSans-4e" transform="scale(0.015625)"/>
      <path d="M 1259 4147 
L 1259 519 
L 2022 519 
Q 2988 519 3436 956 
Q 3884 1394 3884 2338 
Q 3884 3275 3436 3711 
Q 2988 4147 2022 4147 
L 1259 4147 
z
M 628 4666 
L 1925 4666 
Q 3281 4666 3915 4102 
Q 4550 3538 4550 2338 
Q 4550 1131 3912 565 
Q 3275 0 1925 0 
L 628 0 
L 628 4666 
z
" id="DejaVuSans-44" transform="scale(0.015625)"/>
     </defs>
     <use xlink:href="#DejaVuSans-54"/>
     <use x="61.083984" xlink:href="#DejaVuSans-45"/>
     <use x="124.267578" xlink:href="#DejaVuSans-53"/>
     <use x="187.744141" xlink:href="#DejaVuSans-54"/>
     <use x="248.828125" xlink:href="#DejaVuSans-46"/>
     <use x="306.347656" xlink:href="#DejaVuSans-55"/>
     <use x="379.541016" xlink:href="#DejaVuSans-4e"/>
     <use x="454.345703" xlink:href="#DejaVuSans-44"/>
     <use x="531.347656" xlink:href="#DejaVuSans-53"/>
     <use x="594.824219" xlink:href="#DejaVuSans-31"/>
     <use x="658.447266" xlink:href="#DejaVuSans-35"/>
     <use x="722.070312" xlink:href="#DejaVuSans-35"/>
     <use x="785.693359" xlink:href="#DejaVuSans-30"/>
    </g>
    <!-- daily_report -->
    <g transform="translate(200.466563 35.472)scale(0.12 -0.12)">
     <defs>
      <path d="M 603 3500 
L 1178 3500 
L 1178 0 
L 603 0 
L 603 3500 
z
M 603 4863 
L 1178 4863 
L 1178 4134 
L 603 4134 
L 603 4863 
z
" id="DejaVuSans-69" transform="scale(0.015625)"/>
      <path d="M 603 4863 
L 1178 4863 
L 1178 0 
L 603 0 
L 603 4863 
z
" id="DejaVuSans-6c" transform="scale(0.015625)"/>
      <path d="M 2059 -325 
Q 1816 -950 1584 -1140 
Q 1353 -1331 966 -1331 
L 506 -1331 
L 506 -850 
L 844 -850 
Q 1081 -850 1212 -737 
Q 1344 -625 1503 -206 
L 1606 56 
L 191 3500 
L 800 3500 
L 1894 763 
L 2988 3500 
L 3597 3500 
L 2059 -325 
z
" id="DejaVuSans-79" transform="scale(0.015625)"/>
      <path d="M 3263 -1063 
L 3263 -1509 
L -63 -1509 
L -63 -1063 
L 3263 -1063 
z
" id="DejaVuSans-5f" transform="scale(0.015625)"/>
      <path d="M 2631 2963 
Q 2534 3019 2420 3045 
Q 2306 3072 2169 3072 
Q 1681 3072 1420 2755 
Q 1159 2438 1159 1844 
L 1159 0 
L 581 0 
L 581 3500 
L 1159 3500 
L 1159 2956 
Q 1341 3275 1631 3429 
Q 1922 3584 2338 3584 
Q 2397 3584 2469 3576 
Q 2541 3569 2628 3553 
L 2631 2963 
z
" id="DejaVuSans-72" transform="scale(0.015625)"/>
      <path d="M 1159 525 
L 1159 -1331 
L 581 -1331 
L 581 3500 
L 1159 3500 
L 1159 2969 
Q 1341 3281 1617 3432 
Q 1894 3584 2278 3584 
Q 2916 3584 3314 3078 
Q 3713 2572 3713 1747 
Q 3713 922 3314 415 
Q 2916 -91 2278 -91 
Q 1894 -91 1617 61 
Q 1341 213 1159 525 
z
M 3116 1747 
Q 3116 2381 2855 2742 
Q 2594 3103 2138 3103 
Q 1681 3103 1420 2742 
Q 1159 2381 1159 1747 
Q 1159 1113 1420 752 
Q 1681 391 2138 391 
Q 2594 391 2855 752 
Q 3116 1113 3116 1747 
z
" id="DejaVuSans-70" transform="scale(0.015625)"/>
      <path d="M 1959 3097 
Q 1497 3097 1228 2736 
Q 959 2375 959 1747 
Q 959 1119 1226 758 
Q 1494 397 1959 397 
Q 2419 397 2687 759 
Q 2956 1122 2956 1747 
Q 2956 2369 2687 2733 
Q 2419 3097 1959 3097 
z
M 1959 3584 
Q 2709 3584 3137 3096 
Q 3566 2609 3566 1747 
Q 3566 888 3137 398 
Q 2709 -91 1959 -91 
Q 1206 -91 779 398 
Q 353 888 353 1747 
Q 353 2609 779 3096 
Q 1206 3584 1959 3584 
z
" id="DejaVuSans-6f" transform="scale(0.015625)"/>
     </defs>
     <use xlink:href="#DejaVuSans-64"/>
     <use x="63.476562" xlink:href="#DejaVuSans-61"/>
     <use x="124.755859" xlink:href="#DejaVuSans-69"/>
     <use x="152.539062" xlink:href="#DejaVuSans-6c"/>
     <use x="180.322266" xlink:href="#DejaVuSans-79"/>
     <use x="239.501953" xlink:href="#DejaVuSans-5f"/>
     <use x="289.501953" xlink:href="#DejaVuSans-72"/>
     <use x="328.365234" xlink:href="#DejaVuSans-65"/>
     <use x="389.888672" xlink:href="#DejaVuSans-70"/>
     <use x="453.365234" xlink:href="#DejaVuSans-6f"/>
     <use x="514.546875" xlink:href="#DejaVuSans-72"/>
     <use x="555.660156" xlink:href="#DejaVuSans-74"/>
    </g>
   </g>
   <g id="legend_1">
    <g id="patch_7">
     <path d="M 64.6 122.862625 
L 155.792188 122.862625 
Q 157.792188 122.862625 157.792188 120.862625 
L 157.792188 48.472 
Q 157.792188 46.472 155.792188 46.472 
L 64.6 46.472 
Q 62.6 46.472 62.6 48.472 
L 62.6 120.862625 
Q 62.6 122.862625 64.6 122.862625 
z
" style="fill:#ffffff;opacity:0.8;stroke:#cccccc;stroke-linejoin:miter;"/>
    </g>
    <g id="line2d_17">
     <path d="M 66.6 54.570437 
L 86.6 54.570437 
" style="fill:none;stroke:#0000ff;stroke-linecap:square;stroke-opacity:0.9;stroke-width:2;"/>
    </g>
    <g id="line2d_18"/>
    <g id="text_14">
     <!-- alpaca -->
     <g transform="translate(94.6 58.070437)scale(0.1 -0.1)">
      <defs>
       <path d="M 3122 3366 
L 3122 2828 
Q 2878 2963 2633 3030 
Q 2388 3097 2138 3097 
Q 1578 3097 1268 2742 
Q 959 2388 959 1747 
Q 959 1106 1268 751 
Q 1578 397 2138 397 
Q 2388 397 2633 464 
Q 2878 531 3122 666 
L 3122 134 
Q 2881 22 2623 -34 
Q 2366 -91 2075 -91 
Q 1284 -91 818 406 
Q 353 903 353 1747 
Q 353 2603 823 3093 
Q 1294 3584 2113 3584 
Q 2378 3584 2631 3529 
Q 2884 3475 3122 3366 
z
" id="DejaVuSans-63" transform="scale(0.015625)"/>
      </defs>
      <use xlink:href="#DejaVuSans-61"/>
      <use x="61.279297" xlink:href="#DejaVuSans-6c"/>
      <use x="89.0625" xlink:href="#DejaVuSans-70"/>
      <use x="152.539062" xlink:href="#DejaVuSans-61"/>
      <use x="213.818359" xlink:href="#DejaVuSans-63"/>
      <use x="268.798828" xlink:href="#DejaVuSans-61"/>
     </g>
    </g>
    <g id="line2d_19">
     <path d="M 66.6 69.248562 
L 86.6 69.248562 
" style="fill:none;stroke:#ff0000;stroke-linecap:square;stroke-opacity:0.9;stroke-width:2;"/>
    </g>
    <g id="line2d_20"/>
    <g id="text_15">
     <!-- mattress -->
     <g transform="translate(94.6 72.748562)scale(0.1 -0.1)">
      <defs>
       <path d="M 3328 2828 
Q 3544 3216 3844 3400 
Q 4144 3584 4550 3584 
Q 5097 3584 5394 3201 
Q 5691 2819 5691 2113 
L 5691 0 
L 5113 0 
L 5113 2094 
Q 5113 2597 4934 2840 
Q 4756 3084 4391 3084 
Q 3944 3084 3684 2787 
Q 3425 2491 3425 1978 
L 3425 0 
L 2847 0 
L 2847 2094 
Q 2847 2600 2669 2842 
Q 2491 3084 2119 3084 
Q 1678 3084 1418 2786 
Q 1159 2488 1159 1978 
L 1159 0 
L 581 0 
L 581 3500 
L 1159 3500 
L 1159 2956 
Q 1356 3278 1631 3431 
Q 1906 3584 2284 3584 
Q 2666 3584 2933 3390 
Q 3200 3197 3328 2828 
z
" id="DejaVuSans-6d" transform="scale(0.015625)"/>
       <path d="M 2834 3397 
L 2834 2853 
Q 2591 2978 2328 3040 
Q 2066 3103 1784 3103 
Q 1356 3103 1142 2972 
Q 928 2841 928 2578 
Q 928 2378 1081 2264 
Q 1234 2150 1697 2047 
L 1894 2003 
Q 2506 1872 2764 1633 
Q 3022 1394 3022 966 
Q 3022 478 2636 193 
Q 2250 -91 1575 -91 
Q 1294 -91 989 -36 
Q 684 19 347 128 
L 347 722 
Q 666 556 975 473 
Q 1284 391 1588 391 
Q 1994 391 2212 530 
Q 2431 669 2431 922 
Q 2431 1156 2273 1281 
Q 2116 1406 1581 1522 
L 1381 1569 
Q 847 1681 609 1914 
Q 372 2147 372 2553 
Q 372 3047 722 3315 
Q 1072 3584 1716 3584 
Q 2034 3584 2315 3537 
Q 2597 3491 2834 3397 
z
" id="DejaVuSans-73" transform="scale(0.015625)"/>
      </defs>
      <use xlink:href="#DejaVuSans-6d"/>
      <use x="97.412109" xlink:href="#DejaVuSans-61"/>
      <use x="158.691406" xlink:href="#DejaVuSans-74"/>
      <use x="197.900391" xlink:href="#DejaVuSans-74"/>
      <use x="237.109375" xlink:href="#DejaVuSans-72"/>
      <use x="275.972656" xlink:href="#DejaVuSans-65"/>
      <use x="337.496094" xlink:href="#DejaVuSans-73"/>
      <use x="389.595703" xlink:href="#DejaVuSans-73"/>
     </g>
    </g>
    <g id="line2d_21">
     <path d="M 66.6 83.926687 
L 86.6 83.926687 
" style="fill:none;stroke:#ff8040;stroke-linecap:square;stroke-opacity:0.9;stroke-width:2;"/>
    </g>
    <g id="line2d_22"/>
    <g id="text_16">
     <!-- trader-0850 -->
     <g transform="translate(94.6 87.426687)scale(0.1 -0.1)">
      <defs>
       <path d="M 2034 2216 
Q 1584 2216 1326 1975 
Q 1069 1734 1069 1313 
Q 1069 891 1326 650 
Q 1584 409 2034 409 
Q 2484 409 2743 651 
Q 3003 894 3003 1313 
Q 3003 1734 2745 1975 
Q 2488 2216 2034 2216 
z
M 1403 2484 
Q 997 2584 770 2862 
Q 544 3141 544 3541 
Q 544 4100 942 4425 
Q 1341 4750 2034 4750 
Q 2731 4750 3128 4425 
Q 3525 4100 3525 3541 
Q 3525 3141 3298 2862 
Q 3072 2584 2669 2484 
Q 3125 2378 3379 2068 
Q 3634 1759 3634 1313 
Q 3634 634 3220 271 
Q 2806 -91 2034 -91 
Q 1263 -91 848 271 
Q 434 634 434 1313 
Q 434 1759 690 2068 
Q 947 2378 1403 2484 
z
M 1172 3481 
Q 1172 3119 1398 2916 
Q 1625 2713 2034 2713 
Q 2441 2713 2670 2916 
Q 2900 3119 2900 3481 
Q 2900 3844 2670 4047 
Q 2441 4250 2034 4250 
Q 1625 4250 1398 4047 
Q 1172 3844 1172 3481 
z
" id="DejaVuSans-38" transform="scale(0.015625)"/>
      </defs>
      <use xlink:href="#DejaVuSans-74"/>
      <use x="39.208984" xlink:href="#DejaVuSans-72"/>
      <use x="80.322266" xlink:href="#DejaVuSans-61"/>
      <use x="141.601562" xlink:href="#DejaVuSans-64"/>
      <use x="205.078125" xlink:href="#DejaVuSans-65"/>
      <use x="266.601562" xlink:href="#DejaVuSans-72"/>
      <use x="301.339844" xlink:href="#DejaVuSans-2d"/>
      <use x="337.423828" xlink:href="#DejaVuSans-30"/>
      <use x="401.046875" xlink:href="#DejaVuSans-38"/>
      <use x="464.669922" xlink:href="#DejaVuSans-35"/>
      <use x="528.292969" xlink:href="#DejaVuSans-30"/>
     </g>
    </g>
    <g id="line2d_23">
     <path d="M 66.6 98.604812 
L 86.6 98.604812 
" style="fill:none;stroke:#0d0d0d;stroke-linecap:square;stroke-opacity:0.25;stroke-width:2;"/>
    </g>
    <g id="line2d_24"/>
    <g id="text_17">
     <!-- rando-min -->
     <g transform="translate(94.6 102.104812)scale(0.1 -0.1)">
      <defs>
       <path d="M 3513 2113 
L 3513 0 
L 2938 0 
L 2938 2094 
Q 2938 2591 2744 2837 
Q 2550 3084 2163 3084 
Q 1697 3084 1428 2787 
Q 1159 2491 1159 1978 
L 1159 0 
L 581 0 
L 581 3500 
L 1159 3500 
L 1159 2956 
Q 1366 3272 1645 3428 
Q 1925 3584 2291 3584 
Q 2894 3584 3203 3211 
Q 3513 2838 3513 2113 
z
" id="DejaVuSans-6e" transform="scale(0.015625)"/>
      </defs>
      <use xlink:href="#DejaVuSans-72"/>
      <use x="41.113281" xlink:href="#DejaVuSans-61"/>
      <use x="102.392578" xlink:href="#DejaVuSans-6e"/>
      <use x="165.771484" xlink:href="#DejaVuSans-64"/>
      <use x="229.248047" xlink:href="#DejaVuSans-6f"/>
      <use x="292.304688" xlink:href="#DejaVuSans-2d"/>
      <use x="328.388672" xlink:href="#DejaVuSans-6d"/>
      <use x="425.800781" xlink:href="#DejaVuSans-69"/>
      <use x="453.583984" xlink:href="#DejaVuSans-6e"/>
     </g>
    </g>
    <g id="line2d_25">
     <path d="M 66.6 113.282937 
L 86.6 113.282937 
" style="fill:none;stroke:#0d0d0d;stroke-linecap:square;stroke-opacity:0.25;stroke-width:2;"/>
    </g>
    <g id="line2d_26"/>
    <g id="text_18">
     <!-- rando-max -->
     <g transform="translate(94.6 116.782937)scale(0.1 -0.1)">
      <defs>
       <path d="M 3513 3500 
L 2247 1797 
L 3578 0 
L 2900 0 
L 1881 1375 
L 863 0 
L 184 0 
L 1544 1831 
L 300 3500 
L 978 3500 
L 1906 2253 
L 2834 3500 
L 3513 3500 
z
" id="DejaVuSans-78" transform="scale(0.015625)"/>
      </defs>
      <use xlink:href="#DejaVuSans-72"/>
      <use x="41.113281" xlink:href="#DejaVuSans-61"/>
      <use x="102.392578" xlink:href="#DejaVuSans-6e"/>
      <use x="165.771484" xlink:href="#DejaVuSans-64"/>
      <use x="229.248047" xlink:href="#DejaVuSans-6f"/>
      <use x="292.304688" xlink:href="#DejaVuSans-2d"/>
      <use x="328.388672" xlink:href="#DejaVuSans-6d"/>
      <use x="425.800781" xlink:href="#DejaVuSans-61"/>
      <use x="487.080078" xlink:href="#DejaVuSans-78"/>
     </g>
    </g>
   </g>
  </g>
 </g>
 <defs>
  <clipPath id="p1cd81ea506">
   <rect height="235.008" width="357.12" x="57.6" y="41.472"/>
  </clipPath>
 </defs>
</svg>
