<?xml version="1.0" encoding="utf-8" standalone="no"?>
<!DOCTYPE svg PUBLIC "-//W3C//DTD SVG 1.1//EN"
  "http://www.w3.org/Graphics/SVG/1.1/DTD/svg11.dtd">
<svg height="345.6pt" version="1.1" viewBox="0 0 460.8 345.6" width="460.8pt" xmlns="http://www.w3.org/2000/svg" xmlns:xlink="http://www.w3.org/1999/xlink">
 <metadata>
  <rdf:RDF xmlns:cc="http://creativecommons.org/ns#" xmlns:dc="http://purl.org/dc/elements/1.1/" xmlns:rdf="http://www.w3.org/1999/02/22-rdf-syntax-ns#">
   <cc:Work>
    <dc:type rdf:resource="http://purl.org/dc/dcmitype/StillImage"/>
    <dc:date>2022-02-16T01:01:47.259298</dc:date>
    <dc:format>image/svg+xml</dc:format>
    <dc:creator>
     <cc:Agent>
      <dc:title>Matplotlib v3.4.3, https://matplotlib.org/</dc:title>
     </cc:Agent>
    </dc:creator>
   </cc:Work>
  </rdf:RDF>
 </metadata>
 <defs>
  <style type="text/css">*{stroke-linecap:butt;stroke-linejoin:round;}</style>
 </defs>
 <g id="figure_1">
  <g id="patch_1">
   <path d="M 0 345.6 
L 460.8 345.6 
L 460.8 0 
L 0 0 
z
" style="fill:#ffffff;"/>
  </g>
  <g id="axes_1">
   <g id="patch_2">
    <path d="M 57.6 276.48 
L 414.72 276.48 
L 414.72 41.472 
L 57.6 41.472 
z
" style="fill:#ffffff;"/>
   </g>
   <g id="matplotlib.axis_1">
    <g id="xtick_1">
     <g id="line2d_1">
      <defs>
       <path d="M 0 0 
L 0 3.5 
" id="mb16fd65c48" style="stroke:#000000;stroke-width:0.8;"/>
      </defs>
      <g>
       <use style="stroke:#000000;stroke-width:0.8;" x="90.43438" xlink:href="#mb16fd65c48" y="276.48"/>
      </g>
     </g>
     <g id="text_1">
      <!-- 2021-09 -->
      <g transform="translate(53.209559 310.951846)rotate(-30)scale(0.1 -0.1)">
       <defs>
        <path d="M 1228 531 
L 3431 531 
L 3431 0 
L 469 0 
L 469 531 
Q 828 903 1448 1529 
Q 2069 2156 2228 2338 
Q 2531 2678 2651 2914 
Q 2772 3150 2772 3378 
Q 2772 3750 2511 3984 
Q 2250 4219 1831 4219 
Q 1534 4219 1204 4116 
Q 875 4013 500 3803 
L 500 4441 
Q 881 4594 1212 4672 
Q 1544 4750 1819 4750 
Q 2544 4750 2975 4387 
Q 3406 4025 3406 3419 
Q 3406 3131 3298 2873 
Q 3191 2616 2906 2266 
Q 2828 2175 2409 1742 
Q 1991 1309 1228 531 
z
" id="DejaVuSans-32" transform="scale(0.015625)"/>
        <path d="M 2034 4250 
Q 1547 4250 1301 3770 
Q 1056 3291 1056 2328 
Q 1056 1369 1301 889 
Q 1547 409 2034 409 
Q 2525 409 2770 889 
Q 3016 1369 3016 2328 
Q 3016 3291 2770 3770 
Q 2525 4250 2034 4250 
z
M 2034 4750 
Q 2819 4750 3233 4129 
Q 3647 3509 3647 2328 
Q 3647 1150 3233 529 
Q 2819 -91 2034 -91 
Q 1250 -91 836 529 
Q 422 1150 422 2328 
Q 422 3509 836 4129 
Q 1250 4750 2034 4750 
z
" id="DejaVuSans-30" transform="scale(0.015625)"/>
        <path d="M 794 531 
L 1825 531 
L 1825 4091 
L 703 3866 
L 703 4441 
L 1819 4666 
L 2450 4666 
L 2450 531 
L 3481 531 
L 3481 0 
L 794 0 
L 794 531 
z
" id="DejaVuSans-31" transform="scale(0.015625)"/>
        <path d="M 313 2009 
L 1997 2009 
L 1997 1497 
L 313 1497 
L 313 2009 
z
" id="DejaVuSans-2d" transform="scale(0.015625)"/>
        <path d="M 703 97 
L 703 672 
Q 941 559 1184 500 
Q 1428 441 1663 441 
Q 2288 441 2617 861 
Q 2947 1281 2994 2138 
Q 2813 1869 2534 1725 
Q 2256 1581 1919 1581 
Q 1219 1581 811 2004 
Q 403 2428 403 3163 
Q 403 3881 828 4315 
Q 1253 4750 1959 4750 
Q 2769 4750 3195 4129 
Q 3622 3509 3622 2328 
Q 3622 1225 3098 567 
Q 2575 -91 1691 -91 
Q 1453 -91 1209 -44 
Q 966 3 703 97 
z
M 1959 2075 
Q 2384 2075 2632 2365 
Q 2881 2656 2881 3163 
Q 2881 3666 2632 3958 
Q 2384 4250 1959 4250 
Q 1534 4250 1286 3958 
Q 1038 3666 1038 3163 
Q 1038 2656 1286 2365 
Q 1534 2075 1959 2075 
z
" id="DejaVuSans-39" transform="scale(0.015625)"/>
       </defs>
       <use xlink:href="#DejaVuSans-32"/>
       <use x="63.623047" xlink:href="#DejaVuSans-30"/>
       <use x="127.246094" xlink:href="#DejaVuSans-32"/>
       <use x="190.869141" xlink:href="#DejaVuSans-31"/>
       <use x="254.492188" xlink:href="#DejaVuSans-2d"/>
       <use x="290.576172" xlink:href="#DejaVuSans-30"/>
       <use x="354.199219" xlink:href="#DejaVuSans-39"/>
      </g>
     </g>
    </g>
    <g id="xtick_2">
     <g id="line2d_2">
      <g>
       <use style="stroke:#000000;stroke-width:0.8;" x="145.773223" xlink:href="#mb16fd65c48" y="276.48"/>
      </g>
     </g>
     <g id="text_2">
      <!-- 2021-10 -->
      <g transform="translate(108.548402 310.951846)rotate(-30)scale(0.1 -0.1)">
       <use xlink:href="#DejaVuSans-32"/>
       <use x="63.623047" xlink:href="#DejaVuSans-30"/>
       <use x="127.246094" xlink:href="#DejaVuSans-32"/>
       <use x="190.869141" xlink:href="#DejaVuSans-31"/>
       <use x="254.492188" xlink:href="#DejaVuSans-2d"/>
       <use x="290.576172" xlink:href="#DejaVuSans-31"/>
       <use x="354.199219" xlink:href="#DejaVuSans-30"/>
      </g>
     </g>
    </g>
    <g id="xtick_3">
     <g id="line2d_3">
      <g>
       <use style="stroke:#000000;stroke-width:0.8;" x="202.956694" xlink:href="#mb16fd65c48" y="276.48"/>
      </g>
     </g>
     <g id="text_3">
      <!-- 2021-11 -->
      <g transform="translate(165.731873 310.951846)rotate(-30)scale(0.1 -0.1)">
       <use xlink:href="#DejaVuSans-32"/>
       <use x="63.623047" xlink:href="#DejaVuSans-30"/>
       <use x="127.246094" xlink:href="#DejaVuSans-32"/>
       <use x="190.869141" xlink:href="#DejaVuSans-31"/>
       <use x="254.492188" xlink:href="#DejaVuSans-2d"/>
       <use x="290.576172" xlink:href="#DejaVuSans-31"/>
       <use x="354.199219" xlink:href="#DejaVuSans-31"/>
      </g>
     </g>
    </g>
    <g id="xtick_4">
     <g id="line2d_4">
      <g>
       <use style="stroke:#000000;stroke-width:0.8;" x="258.295537" xlink:href="#mb16fd65c48" y="276.48"/>
      </g>
     </g>
     <g id="text_4">
      <!-- 2021-12 -->
      <g transform="translate(221.070716 310.951846)rotate(-30)scale(0.1 -0.1)">
       <use xlink:href="#DejaVuSans-32"/>
       <use x="63.623047" xlink:href="#DejaVuSans-30"/>
       <use x="127.246094" xlink:href="#DejaVuSans-32"/>
       <use x="190.869141" xlink:href="#DejaVuSans-31"/>
       <use x="254.492188" xlink:href="#DejaVuSans-2d"/>
       <use x="290.576172" xlink:href="#DejaVuSans-31"/>
       <use x="354.199219" xlink:href="#DejaVuSans-32"/>
      </g>
     </g>
    </g>
    <g id="xtick_5">
     <g id="line2d_5">
      <g>
       <use style="stroke:#000000;stroke-width:0.8;" x="315.479008" xlink:href="#mb16fd65c48" y="276.48"/>
      </g>
     </g>
     <g id="text_5">
      <!-- 2022-01 -->
      <g transform="translate(278.254187 310.951846)rotate(-30)scale(0.1 -0.1)">
       <use xlink:href="#DejaVuSans-32"/>
       <use x="63.623047" xlink:href="#DejaVuSans-30"/>
       <use x="127.246094" xlink:href="#DejaVuSans-32"/>
       <use x="190.869141" xlink:href="#DejaVuSans-32"/>
       <use x="254.492188" xlink:href="#DejaVuSans-2d"/>
       <use x="290.576172" xlink:href="#DejaVuSans-30"/>
       <use x="354.199219" xlink:href="#DejaVuSans-31"/>
      </g>
     </g>
    </g>
    <g id="xtick_6">
     <g id="line2d_6">
      <g>
       <use style="stroke:#000000;stroke-width:0.8;" x="372.662479" xlink:href="#mb16fd65c48" y="276.48"/>
      </g>
     </g>
     <g id="text_6">
      <!-- 2022-02 -->
      <g transform="translate(335.437659 310.951846)rotate(-30)scale(0.1 -0.1)">
       <use xlink:href="#DejaVuSans-32"/>
       <use x="63.623047" xlink:href="#DejaVuSans-30"/>
       <use x="127.246094" xlink:href="#DejaVuSans-32"/>
       <use x="190.869141" xlink:href="#DejaVuSans-32"/>
       <use x="254.492188" xlink:href="#DejaVuSans-2d"/>
       <use x="290.576172" xlink:href="#DejaVuSans-30"/>
       <use x="354.199219" xlink:href="#DejaVuSans-32"/>
      </g>
     </g>
    </g>
    <g id="text_7">
     <!-- date -->
     <g transform="translate(224.885 324.351346)scale(0.1 -0.1)">
      <defs>
       <path d="M 2906 2969 
L 2906 4863 
L 3481 4863 
L 3481 0 
L 2906 0 
L 2906 525 
Q 2725 213 2448 61 
Q 2172 -91 1784 -91 
Q 1150 -91 751 415 
Q 353 922 353 1747 
Q 353 2572 751 3078 
Q 1150 3584 1784 3584 
Q 2172 3584 2448 3432 
Q 2725 3281 2906 2969 
z
M 947 1747 
Q 947 1113 1208 752 
Q 1469 391 1925 391 
Q 2381 391 2643 752 
Q 2906 1113 2906 1747 
Q 2906 2381 2643 2742 
Q 2381 3103 1925 3103 
Q 1469 3103 1208 2742 
Q 947 2381 947 1747 
z
" id="DejaVuSans-64" transform="scale(0.015625)"/>
       <path d="M 2194 1759 
Q 1497 1759 1228 1600 
Q 959 1441 959 1056 
Q 959 750 1161 570 
Q 1363 391 1709 391 
Q 2188 391 2477 730 
Q 2766 1069 2766 1631 
L 2766 1759 
L 2194 1759 
z
M 3341 1997 
L 3341 0 
L 2766 0 
L 2766 531 
Q 2569 213 2275 61 
Q 1981 -91 1556 -91 
Q 1019 -91 701 211 
Q 384 513 384 1019 
Q 384 1609 779 1909 
Q 1175 2209 1959 2209 
L 2766 2209 
L 2766 2266 
Q 2766 2663 2505 2880 
Q 2244 3097 1772 3097 
Q 1472 3097 1187 3025 
Q 903 2953 641 2809 
L 641 3341 
Q 956 3463 1253 3523 
Q 1550 3584 1831 3584 
Q 2591 3584 2966 3190 
Q 3341 2797 3341 1997 
z
" id="DejaVuSans-61" transform="scale(0.015625)"/>
       <path d="M 1172 4494 
L 1172 3500 
L 2356 3500 
L 2356 3053 
L 1172 3053 
L 1172 1153 
Q 1172 725 1289 603 
Q 1406 481 1766 481 
L 2356 481 
L 2356 0 
L 1766 0 
Q 1100 0 847 248 
Q 594 497 594 1153 
L 594 3053 
L 172 3053 
L 172 3500 
L 594 3500 
L 594 4494 
L 1172 4494 
z
" id="DejaVuSans-74" transform="scale(0.015625)"/>
       <path d="M 3597 1894 
L 3597 1613 
L 953 1613 
Q 991 1019 1311 708 
Q 1631 397 2203 397 
Q 2534 397 2845 478 
Q 3156 559 3463 722 
L 3463 178 
Q 3153 47 2828 -22 
Q 2503 -91 2169 -91 
Q 1331 -91 842 396 
Q 353 884 353 1716 
Q 353 2575 817 3079 
Q 1281 3584 2069 3584 
Q 2775 3584 3186 3129 
Q 3597 2675 3597 1894 
z
M 3022 2063 
Q 3016 2534 2758 2815 
Q 2500 3097 2075 3097 
Q 1594 3097 1305 2825 
Q 1016 2553 972 2059 
L 3022 2063 
z
" id="DejaVuSans-65" transform="scale(0.015625)"/>
      </defs>
      <use xlink:href="#DejaVuSans-64"/>
      <use x="63.476562" xlink:href="#DejaVuSans-61"/>
      <use x="124.755859" xlink:href="#DejaVuSans-74"/>
      <use x="163.964844" xlink:href="#DejaVuSans-65"/>
     </g>
    </g>
   </g>
   <g id="matplotlib.axis_2">
    <g id="ytick_1">
     <g id="line2d_7">
      <defs>
       <path d="M 0 0 
L -3.5 0 
" id="mba8b1dc6d7" style="stroke:#000000;stroke-width:0.8;"/>
      </defs>
      <g>
       <use style="stroke:#000000;stroke-width:0.8;" x="57.6" xlink:href="#mba8b1dc6d7" y="248.970475"/>
      </g>
     </g>
     <g id="text_8">
      <!-- 90000 -->
      <g transform="translate(18.7875 252.769694)scale(0.1 -0.1)">
       <use xlink:href="#DejaVuSans-39"/>
       <use x="63.623047" xlink:href="#DejaVuSans-30"/>
       <use x="127.246094" xlink:href="#DejaVuSans-30"/>
       <use x="190.869141" xlink:href="#DejaVuSans-30"/>
       <use x="254.492188" xlink:href="#DejaVuSans-30"/>
      </g>
     </g>
    </g>
    <g id="ytick_2">
     <g id="line2d_8">
      <g>
       <use style="stroke:#000000;stroke-width:0.8;" x="57.6" xlink:href="#mba8b1dc6d7" y="209.111792"/>
      </g>
     </g>
     <g id="text_9">
      <!-- 95000 -->
      <g transform="translate(18.7875 212.911011)scale(0.1 -0.1)">
       <defs>
        <path d="M 691 4666 
L 3169 4666 
L 3169 4134 
L 1269 4134 
L 1269 2991 
Q 1406 3038 1543 3061 
Q 1681 3084 1819 3084 
Q 2600 3084 3056 2656 
Q 3513 2228 3513 1497 
Q 3513 744 3044 326 
Q 2575 -91 1722 -91 
Q 1428 -91 1123 -41 
Q 819 9 494 109 
L 494 744 
Q 775 591 1075 516 
Q 1375 441 1709 441 
Q 2250 441 2565 725 
Q 2881 1009 2881 1497 
Q 2881 1984 2565 2268 
Q 2250 2553 1709 2553 
Q 1456 2553 1204 2497 
Q 953 2441 691 2322 
L 691 4666 
z
" id="DejaVuSans-35" transform="scale(0.015625)"/>
       </defs>
       <use xlink:href="#DejaVuSans-39"/>
       <use x="63.623047" xlink:href="#DejaVuSans-35"/>
       <use x="127.246094" xlink:href="#DejaVuSans-30"/>
       <use x="190.869141" xlink:href="#DejaVuSans-30"/>
       <use x="254.492188" xlink:href="#DejaVuSans-30"/>
      </g>
     </g>
    </g>
    <g id="ytick_3">
     <g id="line2d_9">
      <g>
       <use style="stroke:#000000;stroke-width:0.8;" x="57.6" xlink:href="#mba8b1dc6d7" y="169.253109"/>
      </g>
     </g>
     <g id="text_10">
      <!-- 100000 -->
      <g transform="translate(12.425 173.052328)scale(0.1 -0.1)">
       <use xlink:href="#DejaVuSans-31"/>
       <use x="63.623047" xlink:href="#DejaVuSans-30"/>
       <use x="127.246094" xlink:href="#DejaVuSans-30"/>
       <use x="190.869141" xlink:href="#DejaVuSans-30"/>
       <use x="254.492188" xlink:href="#DejaVuSans-30"/>
       <use x="318.115234" xlink:href="#DejaVuSans-30"/>
      </g>
     </g>
    </g>
    <g id="ytick_4">
     <g id="line2d_10">
      <g>
       <use style="stroke:#000000;stroke-width:0.8;" x="57.6" xlink:href="#mba8b1dc6d7" y="129.394426"/>
      </g>
     </g>
     <g id="text_11">
      <!-- 105000 -->
      <g transform="translate(12.425 133.193645)scale(0.1 -0.1)">
       <use xlink:href="#DejaVuSans-31"/>
       <use x="63.623047" xlink:href="#DejaVuSans-30"/>
       <use x="127.246094" xlink:href="#DejaVuSans-35"/>
       <use x="190.869141" xlink:href="#DejaVuSans-30"/>
       <use x="254.492188" xlink:href="#DejaVuSans-30"/>
       <use x="318.115234" xlink:href="#DejaVuSans-30"/>
      </g>
     </g>
    </g>
    <g id="ytick_5">
     <g id="line2d_11">
      <g>
       <use style="stroke:#000000;stroke-width:0.8;" x="57.6" xlink:href="#mba8b1dc6d7" y="89.535744"/>
      </g>
     </g>
     <g id="text_12">
      <!-- 110000 -->
      <g transform="translate(12.425 93.334962)scale(0.1 -0.1)">
       <use xlink:href="#DejaVuSans-31"/>
       <use x="63.623047" xlink:href="#DejaVuSans-31"/>
       <use x="127.246094" xlink:href="#DejaVuSans-30"/>
       <use x="190.869141" xlink:href="#DejaVuSans-30"/>
       <use x="254.492188" xlink:href="#DejaVuSans-30"/>
       <use x="318.115234" xlink:href="#DejaVuSans-30"/>
      </g>
     </g>
    </g>
    <g id="ytick_6">
     <g id="line2d_12">
      <g>
       <use style="stroke:#000000;stroke-width:0.8;" x="57.6" xlink:href="#mba8b1dc6d7" y="49.677061"/>
      </g>
     </g>
     <g id="text_13">
      <!-- 115000 -->
      <g transform="translate(12.425 53.47628)scale(0.1 -0.1)">
       <use xlink:href="#DejaVuSans-31"/>
       <use x="63.623047" xlink:href="#DejaVuSans-31"/>
       <use x="127.246094" xlink:href="#DejaVuSans-35"/>
       <use x="190.869141" xlink:href="#DejaVuSans-30"/>
       <use x="254.492188" xlink:href="#DejaVuSans-30"/>
       <use x="318.115234" xlink:href="#DejaVuSans-30"/>
      </g>
     </g>
    </g>
   </g>
   <g id="line2d_13">
    <path clip-path="url(#pa8672c5109)" d="M 73.832727 169.253109 
L 75.677355 169.704012 
L 77.521983 166.678842 
L 79.366612 170.779854 
L 81.21124 163.434237 
L 86.745124 158.023843 
L 88.589752 156.530584 
L 90.43438 158.576742 
L 92.279008 157.902337 
L 94.123636 158.474568 
L 101.502149 158.387924 
L 103.346777 161.158913 
L 105.191405 163.587963 
L 107.036033 170.463108 
L 112.569917 164.391326 
L 114.414545 175.188432 
L 116.259174 170.830102 
L 118.103802 171.80981 
L 119.94843 180.065564 
L 125.482314 194.241781 
L 127.326942 195.729485 
L 129.17157 189.644905 
L 131.016198 177.079345 
L 132.860826 171.014696 
L 138.394711 164.939084 
L 140.239339 181.894174 
L 142.083967 179.189996 
L 143.928595 185.384035 
L 145.773223 173.347339 
L 151.307107 187.962309 
L 153.151736 176.161746 
L 154.996364 173.550234 
L 156.840992 173.212378 
L 158.68562 172.254187 
L 164.219504 170.904847 
L 166.064132 170.61922 
L 167.90876 180.369651 
L 169.753388 164.892097 
L 171.598017 163.595706 
L 177.131901 157.057214 
L 178.976529 148.983208 
L 180.821157 145.893997 
L 182.665785 159.610987 
L 184.510413 169.915706 
L 190.044298 169.287798 
L 191.888926 176.103483 
L 193.733554 178.612556 
L 195.578182 168.194031 
L 197.42281 178.640341 
L 202.956694 162.528412 
L 204.801322 163.083237 
L 206.64595 154.225207 
L 208.490579 164.826136 
L 210.335207 159.061469 
L 215.869091 158.308367 
L 217.713719 168.048483 
L 219.558347 168.23553 
L 221.402975 174.765141 
L 223.247603 168.427877 
L 228.781488 165.606265 
L 230.626116 166.134656 
L 232.470744 169.73536 
L 234.315372 171.983818 
L 236.16 172.658193 
L 241.693884 168.257204 
L 243.538512 161.169053 
L 245.38314 162.243495 
L 249.072397 162.097469 
L 254.606281 169.331436 
L 256.450909 184.88735 
L 258.295537 195.335276 
L 260.140165 185.352037 
L 261.984793 190.241497 
L 267.518678 175.743616 
L 269.363306 161.983589 
L 271.207934 155.165228 
L 273.052562 154.898235 
L 274.89719 152.215332 
L 280.431074 160.125527 
L 282.275702 155.904646 
L 284.120331 151.871485 
L 285.964959 148.098894 
L 287.809587 158.085799 
L 293.343471 168.694168 
L 295.188099 150.286294 
L 297.032727 146.96429 
L 298.877355 139.352597 
L 306.255868 128.597537 
L 308.100496 129.62204 
L 309.945124 129.508497 
L 311.789752 130.279245 
L 313.63438 134.404133 
L 319.168264 121.823712 
L 321.012893 110.691112 
L 322.857521 132.78652 
L 324.702149 125.992127 
L 326.546777 122.543021 
L 332.080661 122.002814 
L 333.925289 115.21156 
L 335.769917 113.34611 
L 337.614545 123.424381 
L 339.459174 121.308994 
L 346.837686 139.488253 
L 348.682314 143.819813 
L 350.526942 152.70983 
L 352.37157 171.781645 
L 357.905455 170.474855 
L 359.750083 180.119431 
L 361.594711 179.794493 
L 363.439339 185.2006 
L 365.283967 164.403595 
L 370.817851 147.459256 
L 372.662479 139.525389 
L 374.507107 127.20187 
L 376.351736 181.041412 
L 378.196364 180.161054 
L 383.730248 194.264909 
L 385.574876 195.94381 
L 387.419504 178.738517 
L 389.264132 192.828653 
L 391.10876 209.973294 
L 396.642645 215.207785 
L 398.487273 207.881734 
" style="fill:none;stroke:#0000ff;stroke-linecap:square;stroke-opacity:0.9;stroke-width:2;"/>
   </g>
   <g id="line2d_14">
    <path clip-path="url(#pa8672c5109)" d="M 73.832727 169.253109 
L 75.677355 164.575289 
L 77.521983 161.404804 
L 79.366612 165.872448 
L 81.21124 156.237848 
L 86.745124 153.81401 
L 88.589752 153.14699 
L 90.43438 152.565649 
L 92.279008 154.260177 
L 94.123636 153.463468 
L 101.502149 152.546364 
L 103.346777 155.254874 
L 105.191405 157.484759 
L 107.036033 165.669719 
L 112.569917 159.868074 
L 114.414545 167.519498 
L 116.259174 164.031988 
L 118.103802 166.225594 
L 119.94843 175.938659 
L 125.482314 189.146348 
L 127.326942 189.246746 
L 129.17157 184.167321 
L 131.016198 174.737982 
L 132.860826 168.125232 
L 138.394711 163.419382 
L 140.239339 179.080684 
L 142.083967 177.943902 
L 143.928595 185.844693 
L 145.773223 174.326969 
L 151.307107 182.73327 
L 153.151736 171.404724 
L 154.996364 169.580301 
L 156.840992 167.794488 
L 158.68562 163.402692 
L 164.219504 168.171417 
L 166.064132 174.46861 
L 167.90876 177.024737 
L 169.753388 157.414773 
L 171.598017 151.626423 
L 177.131901 149.850064 
L 178.976529 143.029106 
L 180.821157 138.386077 
L 182.665785 149.312507 
L 184.510413 153.506799 
L 190.044298 156.032257 
L 191.888926 160.083154 
L 193.733554 164.20483 
L 195.578182 153.331004 
L 197.42281 151.861743 
L 202.956694 151.744792 
L 204.801322 148.093195 
L 206.64595 142.463253 
L 208.490579 143.712754 
L 210.335207 143.430723 
L 215.869091 143.089583 
L 217.713719 149.426546 
L 219.558347 153.093659 
L 221.402975 152.888676 
L 223.247603 147.980326 
L 228.781488 145.687133 
L 230.626116 147.662976 
L 232.470744 148.233122 
L 234.315372 148.636883 
L 236.16 151.537619 
L 241.693884 148.167148 
L 243.538512 140.239544 
L 245.38314 139.409047 
L 249.072397 161.020486 
L 254.606281 151.886645 
L 256.450909 169.541449 
L 258.295537 178.629145 
L 260.140165 167.892825 
L 261.984793 173.610821 
L 267.518678 162.196217 
L 269.363306 148.271905 
L 271.207934 143.781298 
L 273.052562 143.822249 
L 274.89719 139.030264 
L 280.431074 147.011996 
L 282.275702 147.068741 
L 284.120331 140.39227 
L 285.964959 139.877495 
L 287.809587 150.47301 
L 293.343471 160.09593 
L 295.188099 144.280877 
L 297.032727 139.784425 
L 298.877355 133.291447 
L 306.255868 122.234941 
L 308.100496 122.654047 
L 309.945124 121.952216 
L 311.789752 122.964902 
L 313.63438 126.409203 
L 319.168264 116.995511 
L 321.012893 108.919911 
L 322.857521 127.964502 
L 324.702149 124.540993 
L 326.546777 119.835043 
L 332.080661 120.646449 
L 333.925289 115.879496 
L 335.769917 115.154448 
L 337.614545 121.997259 
L 339.459174 122.523721 
L 346.837686 140.800664 
L 348.682314 148.812149 
L 350.526942 156.930039 
L 352.37157 173.269868 
L 357.905455 174.043147 
L 359.750083 172.339822 
L 361.594711 173.853707 
L 363.439339 180.714324 
L 365.283967 161.180111 
L 370.817851 148.894249 
L 372.662479 139.756388 
L 374.507107 126.521817 
L 376.351736 163.131047 
L 378.196364 157.32636 
L 383.730248 162.3806 
L 385.574876 157.113804 
L 387.419504 149.166506 
L 389.264132 162.694448 
L 391.10876 179.753423 
L 396.642645 186.970569 
L 398.487273 177.844541 
" style="fill:none;stroke:#ff0000;stroke-linecap:square;stroke-opacity:0.9;stroke-width:2;"/>
   </g>
   <g id="line2d_15">
    <path clip-path="url(#pa8672c5109)" d="M 73.832727 169.253109 
L 75.677355 165.450111 
L 77.521983 161.889225 
L 79.366612 165.865041 
L 81.21124 158.750215 
L 86.745124 153.203414 
L 88.589752 151.699673 
L 90.43438 154.226445 
L 92.279008 152.655745 
L 94.123636 152.974997 
L 101.502149 153.544065 
L 103.346777 155.913178 
L 105.191405 158.772504 
L 107.036033 165.120486 
L 112.569917 158.878972 
L 114.414545 169.705503 
L 116.259174 164.985932 
L 118.103802 166.960068 
L 119.94843 174.853146 
L 125.482314 188.143312 
L 127.326942 190.276587 
L 129.17157 183.939755 
L 131.016198 171.672949 
L 132.860826 165.050928 
L 138.394711 157.559495 
L 140.239339 174.902818 
L 142.083967 172.235049 
L 143.928595 177.972849 
L 145.773223 165.834751 
L 151.307107 180.845385 
L 153.151736 169.031674 
L 154.996364 165.658049 
L 156.840992 163.546039 
L 158.68562 160.321738 
L 164.219504 164.772706 
L 166.064132 171.540923 
L 167.90876 172.97208 
L 169.753388 156.901776 
L 171.598017 155.728515 
L 177.131901 149.106378 
L 178.976529 141.013211 
L 180.821157 137.477449 
L 182.665785 150.949889 
L 184.510413 161.475524 
L 190.044298 160.969482 
L 191.888926 167.680515 
L 193.733554 169.467829 
L 195.578182 160.084433 
L 197.42281 158.27311 
L 202.956694 153.904215 
L 204.801322 152.660431 
L 206.64595 146.217919 
L 208.490579 146.058694 
L 210.335207 139.659583 
L 215.869091 139.191496 
L 217.713719 149.059171 
L 219.558347 155.194353 
L 221.402975 155.503195 
L 223.247603 149.520886 
L 228.781488 147.156107 
L 230.626116 150.633514 
L 232.470744 151.128251 
L 234.315372 153.25499 
L 236.16 153.755842 
L 241.693884 148.537104 
L 243.538512 142.108276 
L 245.38314 142.131251 
L 249.072397 160.628051 
L 254.606281 150.089379 
L 256.450909 166.570697 
L 258.295537 177.061706 
L 260.140165 167.941804 
L 261.984793 173.011894 
L 267.518678 157.866453 
L 269.363306 143.717315 
L 271.207934 136.833176 
L 273.052562 137.05512 
L 274.89719 134.017112 
L 280.431074 141.96121 
L 282.275702 137.725449 
L 284.120331 133.053849 
L 285.964959 130.126852 
L 287.809587 139.916174 
L 293.343471 150.934019 
L 295.188099 131.984775 
L 297.032727 128.134447 
L 298.877355 120.429705 
L 306.255868 109.968133 
L 308.100496 110.066421 
L 309.945124 109.957884 
L 311.789752 111.019754 
L 313.63438 114.991902 
L 319.168264 101.739846 
L 321.012893 91.475526 
L 322.857521 113.651184 
L 324.702149 105.492915 
L 326.546777 101.820082 
L 332.080661 100.496242 
L 333.925289 92.377237 
L 335.769917 90.94512 
L 337.614545 100.840507 
L 339.459174 98.702879 
L 346.837686 116.909845 
L 348.682314 121.340047 
L 350.526942 130.781028 
L 352.37157 150.673445 
L 357.905455 148.894843 
L 359.750083 158.792261 
L 361.594711 158.535916 
L 363.439339 163.511505 
L 365.283967 142.81556 
L 370.817851 125.050924 
L 372.662479 117.635489 
L 374.507107 103.230435 
L 376.351736 160.788236 
L 378.196364 159.672764 
L 383.730248 173.789293 
L 385.574876 175.883122 
L 387.419504 158.14124 
L 389.264132 171.790722 
L 391.10876 189.793688 
L 396.642645 195.368343 
L 398.487273 185.740243 
" style="fill:none;stroke:#ff8040;stroke-linecap:square;stroke-opacity:0.9;stroke-width:2;"/>
   </g>
   <g id="line2d_16">
    <path clip-path="url(#pa8672c5109)" d="M 73.832727 170.050283 
L 75.677355 167.561582 
L 77.521983 166.360617 
L 79.366612 172.562625 
L 81.21124 164.433818 
L 86.745124 163.664276 
L 88.589752 163.356709 
L 90.43438 165.300811 
L 92.279008 167.978123 
L 94.123636 168.06319 
L 101.502149 164.993005 
L 103.346777 170.156712 
L 105.191405 171.721277 
L 107.036033 178.664833 
L 112.569917 173.003403 
L 114.414545 185.514867 
L 116.259174 181.051626 
L 118.103802 183.293922 
L 119.94843 192.236602 
L 125.482314 210.192447 
L 127.326942 210.205861 
L 129.17157 204.147228 
L 131.016198 197.141595 
L 132.860826 191.524239 
L 138.394711 191.790743 
L 140.239339 206.829718 
L 142.083967 206.091869 
L 143.928595 214.135091 
L 145.773223 204.352365 
L 151.307107 219.366418 
L 153.151736 208.803078 
L 154.996364 206.644662 
L 156.840992 209.601392 
L 158.68562 205.834972 
L 164.219504 209.168255 
L 166.064132 214.686045 
L 167.90876 217.86007 
L 169.753388 200.61882 
L 171.598017 193.749529 
L 177.131901 192.833549 
L 178.976529 185.78773 
L 180.821157 181.672018 
L 182.665785 208.588159 
L 184.510413 205.59084 
L 190.044298 206.947456 
L 191.888926 213.035689 
L 193.733554 216.911056 
L 195.578182 205.723881 
L 197.42281 205.692844 
L 202.956694 205.85813 
L 204.801322 202.747104 
L 206.64595 198.038289 
L 208.490579 198.993018 
L 210.335207 198.508019 
L 215.869091 196.450538 
L 217.713719 205.148625 
L 219.558347 208.378402 
L 221.402975 208.770795 
L 223.247603 203.939323 
L 228.781488 202.044823 
L 230.626116 202.512416 
L 232.470744 200.599928 
L 234.315372 200.527943 
L 236.16 202.872803 
L 241.693884 198.395421 
L 243.538512 192.291083 
L 245.38314 190.868881 
L 249.072397 209.94038 
L 254.606281 204.460315 
L 256.450909 221.361995 
L 258.295537 229.582432 
L 260.140165 220.876031 
L 261.984793 229.376184 
L 267.518678 218.141519 
L 269.363306 205.331172 
L 271.207934 202.745068 
L 273.052562 201.913635 
L 274.89719 199.464816 
L 280.431074 205.11376 
L 282.275702 205.128224 
L 284.120331 200.289358 
L 285.964959 192.051694 
L 287.809587 204.663361 
L 293.343471 213.874724 
L 295.188099 200.854556 
L 297.032727 196.927017 
L 298.877355 188.388596 
L 306.255868 173.800722 
L 308.100496 172.877087 
L 309.945124 173.205901 
L 311.789752 173.425064 
L 313.63438 175.183001 
L 319.168264 166.651265 
L 321.012893 164.035524 
L 322.857521 186.117989 
L 324.702149 185.717257 
L 326.546777 180.878841 
L 332.080661 181.767504 
L 333.925289 178.104037 
L 335.769917 179.800551 
L 337.614545 182.077821 
L 339.459174 182.291726 
L 346.837686 197.367561 
L 348.682314 204.719752 
L 350.526942 211.317169 
L 352.37157 228.417275 
L 357.905455 230.711889 
L 359.750083 228.355806 
L 361.594711 230.572168 
L 363.439339 237.836684 
L 365.283967 222.595851 
L 370.817851 212.858369 
L 372.662479 205.748969 
L 374.507107 196.466268 
L 376.351736 238.007152 
L 378.196364 233.321234 
L 383.730248 241.92182 
L 385.574876 244.013433 
L 387.419504 228.556724 
L 389.264132 242.914468 
L 391.10876 260.861216 
L 396.642645 265.797818 
L 398.487273 258.015371 
" style="fill:none;stroke:#0d0d0d;stroke-linecap:square;stroke-opacity:0.25;stroke-width:2;"/>
   </g>
   <g id="line2d_17">
    <path clip-path="url(#pa8672c5109)" d="M 73.832727 168.455936 
L 75.677355 161.092663 
L 77.521983 156.706195 
L 79.366612 161.374009 
L 81.21124 149.969125 
L 86.745124 141.636663 
L 88.589752 140.951686 
L 90.43438 140.353757 
L 92.279008 142.385651 
L 94.123636 141.387845 
L 101.502149 140.784252 
L 103.346777 141.249566 
L 105.191405 142.210185 
L 107.036033 151.318481 
L 112.569917 143.613795 
L 114.414545 151.420027 
L 116.259174 147.145466 
L 118.103802 149.310876 
L 119.94843 159.328742 
L 125.482314 169.809933 
L 127.326942 169.254021 
L 129.17157 160.067272 
L 131.016198 152.712288 
L 132.860826 146.866712 
L 138.394711 132.252153 
L 140.239339 152.676971 
L 142.083967 152.032448 
L 143.928595 158.380306 
L 145.773223 147.800808 
L 151.307107 155.761489 
L 153.151736 145.69515 
L 154.996364 144.078149 
L 156.840992 139.592769 
L 158.68562 136.244644 
L 164.219504 142.67111 
L 166.064132 149.832079 
L 167.90876 153.360212 
L 169.753388 131.751659 
L 171.598017 126.212994 
L 177.131901 124.604555 
L 178.976529 117.171896 
L 180.821157 111.61108 
L 182.665785 118.10807 
L 184.510413 116.909326 
L 190.044298 118.000835 
L 191.888926 120.935405 
L 193.733554 125.697233 
L 195.578182 113.94773 
L 197.42281 114.313833 
L 202.956694 110.808307 
L 204.801322 108.014006 
L 206.64595 102.664174 
L 208.490579 107.019929 
L 210.335207 109.036764 
L 215.869091 107.709686 
L 217.713719 117.373035 
L 219.558347 120.549196 
L 221.402975 120.03406 
L 223.247603 109.617955 
L 228.781488 106.140239 
L 230.626116 106.378798 
L 232.470744 108.388413 
L 234.315372 108.978974 
L 236.16 110.268644 
L 241.693884 104.227313 
L 243.538512 95.356707 
L 245.38314 94.550436 
L 249.072397 113.520742 
L 254.606281 105.373061 
L 256.450909 127.772323 
L 258.295537 137.348555 
L 260.140165 125.509775 
L 261.984793 129.195139 
L 267.518678 116.422126 
L 269.363306 103.974788 
L 271.207934 101.518718 
L 273.052562 102.687688 
L 274.89719 96.013498 
L 280.431074 100.891352 
L 282.275702 100.881711 
L 284.120331 94.295212 
L 285.964959 92.602504 
L 287.809587 103.811396 
L 293.343471 113.482905 
L 295.188099 93.763237 
L 297.032727 88.437544 
L 298.877355 80.165137 
L 306.255868 67.304831 
L 308.100496 64.300792 
L 309.945124 64.182183 
L 311.789752 65.188834 
L 313.63438 68.878118 
L 319.168264 64.022146 
L 321.012893 58.10967 
L 322.857521 73.888194 
L 324.702149 69.816405 
L 326.546777 62.940679 
L 332.080661 66.183837 
L 333.925289 62.502463 
L 335.769917 61.559419 
L 337.614545 65.797224 
L 339.459174 62.98446 
L 346.837686 84.531852 
L 348.682314 89.754267 
L 350.526942 98.139059 
L 352.37157 120.105277 
L 357.905455 123.424711 
L 359.750083 113.714332 
L 361.594711 117.262932 
L 363.439339 125.240584 
L 365.283967 98.952008 
L 370.817851 83.80043 
L 372.662479 71.65946 
L 374.507107 52.154182 
L 376.351736 76.242407 
L 378.196364 69.554075 
L 383.730248 77.935945 
L 385.574876 69.584151 
L 387.419504 58.085869 
L 389.264132 75.931475 
L 391.10876 96.747465 
L 396.642645 107.041777 
L 398.487273 97.254756 
" style="fill:none;stroke:#0d0d0d;stroke-linecap:square;stroke-opacity:0.25;stroke-width:2;"/>
   </g>
   <g id="patch_3">
    <path d="M 57.6 276.48 
L 57.6 41.472 
" style="fill:none;stroke:#000000;stroke-linecap:square;stroke-linejoin:miter;stroke-width:0.8;"/>
   </g>
   <g id="patch_4">
    <path d="M 414.72 276.48 
L 414.72 41.472 
" style="fill:none;stroke:#000000;stroke-linecap:square;stroke-linejoin:miter;stroke-width:0.8;"/>
   </g>
   <g id="patch_5">
    <path d="M 57.6 276.48 
L 414.72 276.48 
" style="fill:none;stroke:#000000;stroke-linecap:square;stroke-linejoin:miter;stroke-width:0.8;"/>
   </g>
   <g id="patch_6">
    <path d="M 57.6 41.472 
L 414.72 41.472 
" style="fill:none;stroke:#000000;stroke-linecap:square;stroke-linejoin:miter;stroke-width:0.8;"/>
   </g>
   <g id="text_14">
    <!-- TESTFUNDS1550 -->
    <g transform="translate(185.200312 22.034625)scale(0.12 -0.12)">
     <defs>
      <path d="M -19 4666 
L 3928 4666 
L 3928 4134 
L 2272 4134 
L 2272 0 
L 1638 0 
L 1638 4134 
L -19 4134 
L -19 4666 
z
" id="DejaVuSans-54" transform="scale(0.015625)"/>
      <path d="M 628 4666 
L 3578 4666 
L 3578 4134 
L 1259 4134 
L 1259 2753 
L 3481 2753 
L 3481 2222 
L 1259 2222 
L 1259 531 
L 3634 531 
L 3634 0 
L 628 0 
L 628 4666 
z
" id="DejaVuSans-45" transform="scale(0.015625)"/>
      <path d="M 3425 4513 
L 3425 3897 
Q 3066 4069 2747 4153 
Q 2428 4238 2131 4238 
Q 1616 4238 1336 4038 
Q 1056 3838 1056 3469 
Q 1056 3159 1242 3001 
Q 1428 2844 1947 2747 
L 2328 2669 
Q 3034 2534 3370 2195 
Q 3706 1856 3706 1288 
Q 3706 609 3251 259 
Q 2797 -91 1919 -91 
Q 1588 -91 1214 -16 
Q 841 59 441 206 
L 441 856 
Q 825 641 1194 531 
Q 1563 422 1919 422 
Q 2459 422 2753 634 
Q 3047 847 3047 1241 
Q 3047 1584 2836 1778 
Q 2625 1972 2144 2069 
L 1759 2144 
Q 1053 2284 737 2584 
Q 422 2884 422 3419 
Q 422 4038 858 4394 
Q 1294 4750 2059 4750 
Q 2388 4750 2728 4690 
Q 3069 4631 3425 4513 
z
" id="DejaVuSans-53" transform="scale(0.015625)"/>
      <path d="M 628 4666 
L 3309 4666 
L 3309 4134 
L 1259 4134 
L 1259 2759 
L 3109 2759 
L 3109 2228 
L 1259 2228 
L 1259 0 
L 628 0 
L 628 4666 
z
" id="DejaVuSans-46" transform="scale(0.015625)"/>
      <path d="M 556 4666 
L 1191 4666 
L 1191 1831 
Q 1191 1081 1462 751 
Q 1734 422 2344 422 
Q 2950 422 3222 751 
Q 3494 1081 3494 1831 
L 3494 4666 
L 4128 4666 
L 4128 1753 
Q 4128 841 3676 375 
Q 3225 -91 2344 -91 
Q 1459 -91 1007 375 
Q 556 841 556 1753 
L 556 4666 
z
" id="DejaVuSans-55" transform="scale(0.015625)"/>
      <path d="M 628 4666 
L 1478 4666 
L 3547 763 
L 3547 4666 
L 4159 4666 
L 4159 0 
L 3309 0 
L 1241 3903 
L 1241 0 
L 628 0 
L 628 4666 
z
" id="DejaVuSans-4e" transform="scale(0.015625)"/>
      <path d="M 1259 4147 
L 1259 519 
L 2022 519 
Q 2988 519 3436 956 
Q 3884 1394 3884 2338 
Q 3884 3275 3436 3711 
Q 2988 4147 2022 4147 
L 1259 4147 
z
M 628 4666 
L 1925 4666 
Q 3281 4666 3915 4102 
Q 4550 3538 4550 2338 
Q 4550 1131 3912 565 
Q 3275 0 1925 0 
L 628 0 
L 628 4666 
z
" id="DejaVuSans-44" transform="scale(0.015625)"/>
     </defs>
     <use xlink:href="#DejaVuSans-54"/>
     <use x="61.083984" xlink:href="#DejaVuSans-45"/>
     <use x="124.267578" xlink:href="#DejaVuSans-53"/>
     <use x="187.744141" xlink:href="#DejaVuSans-54"/>
     <use x="248.828125" xlink:href="#DejaVuSans-46"/>
     <use x="306.347656" xlink:href="#DejaVuSans-55"/>
     <use x="379.541016" xlink:href="#DejaVuSans-4e"/>
     <use x="454.345703" xlink:href="#DejaVuSans-44"/>
     <use x="531.347656" xlink:href="#DejaVuSans-53"/>
     <use x="594.824219" xlink:href="#DejaVuSans-31"/>
     <use x="658.447266" xlink:href="#DejaVuSans-35"/>
     <use x="722.070312" xlink:href="#DejaVuSans-35"/>
     <use x="785.693359" xlink:href="#DejaVuSans-30"/>
    </g>
    <!-- daily_report -->
    <g transform="translate(200.466563 35.472)scale(0.12 -0.12)">
     <defs>
      <path d="M 603 3500 
L 1178 3500 
L 1178 0 
L 603 0 
L 603 3500 
z
M 603 4863 
L 1178 4863 
L 1178 4134 
L 603 4134 
L 603 4863 
z
" id="DejaVuSans-69" transform="scale(0.015625)"/>
      <path d="M 603 4863 
L 1178 4863 
L 1178 0 
L 603 0 
L 603 4863 
z
" id="DejaVuSans-6c" transform="scale(0.015625)"/>
      <path d="M 2059 -325 
Q 1816 -950 1584 -1140 
Q 1353 -1331 966 -1331 
L 506 -1331 
L 506 -850 
L 844 -850 
Q 1081 -850 1212 -737 
Q 1344 -625 1503 -206 
L 1606 56 
L 191 3500 
L 800 3500 
L 1894 763 
L 2988 3500 
L 3597 3500 
L 2059 -325 
z
" id="DejaVuSans-79" transform="scale(0.015625)"/>
      <path d="M 3263 -1063 
L 3263 -1509 
L -63 -1509 
L -63 -1063 
L 3263 -1063 
z
" id="DejaVuSans-5f" transform="scale(0.015625)"/>
      <path d="M 2631 2963 
Q 2534 3019 2420 3045 
Q 2306 3072 2169 3072 
Q 1681 3072 1420 2755 
Q 1159 2438 1159 1844 
L 1159 0 
L 581 0 
L 581 3500 
L 1159 3500 
L 1159 2956 
Q 1341 3275 1631 3429 
Q 1922 3584 2338 3584 
Q 2397 3584 2469 3576 
Q 2541 3569 2628 3553 
L 2631 2963 
z
" id="DejaVuSans-72" transform="scale(0.015625)"/>
      <path d="M 1159 525 
L 1159 -1331 
L 581 -1331 
L 581 3500 
L 1159 3500 
L 1159 2969 
Q 1341 3281 1617 3432 
Q 1894 3584 2278 3584 
Q 2916 3584 3314 3078 
Q 3713 2572 3713 1747 
Q 3713 922 3314 415 
Q 2916 -91 2278 -91 
Q 1894 -91 1617 61 
Q 1341 213 1159 525 
z
M 3116 1747 
Q 3116 2381 2855 2742 
Q 2594 3103 2138 3103 
Q 1681 3103 1420 2742 
Q 1159 2381 1159 1747 
Q 1159 1113 1420 752 
Q 1681 391 2138 391 
Q 2594 391 2855 752 
Q 3116 1113 3116 1747 
z
" id="DejaVuSans-70" transform="scale(0.015625)"/>
      <path d="M 1959 3097 
Q 1497 3097 1228 2736 
Q 959 2375 959 1747 
Q 959 1119 1226 758 
Q 1494 397 1959 397 
Q 2419 397 2687 759 
Q 2956 1122 2956 1747 
Q 2956 2369 2687 2733 
Q 2419 3097 1959 3097 
z
M 1959 3584 
Q 2709 3584 3137 3096 
Q 3566 2609 3566 1747 
Q 3566 888 3137 398 
Q 2709 -91 1959 -91 
Q 1206 -91 779 398 
Q 353 888 353 1747 
Q 353 2609 779 3096 
Q 1206 3584 1959 3584 
z
" id="DejaVuSans-6f" transform="scale(0.015625)"/>
     </defs>
     <use xlink:href="#DejaVuSans-64"/>
     <use x="63.476562" xlink:href="#DejaVuSans-61"/>
     <use x="124.755859" xlink:href="#DejaVuSans-69"/>
     <use x="152.539062" xlink:href="#DejaVuSans-6c"/>
     <use x="180.322266" xlink:href="#DejaVuSans-79"/>
     <use x="239.501953" xlink:href="#DejaVuSans-5f"/>
     <use x="289.501953" xlink:href="#DejaVuSans-72"/>
     <use x="328.365234" xlink:href="#DejaVuSans-65"/>
     <use x="389.888672" xlink:href="#DejaVuSans-70"/>
     <use x="453.365234" xlink:href="#DejaVuSans-6f"/>
     <use x="514.546875" xlink:href="#DejaVuSans-72"/>
     <use x="555.660156" xlink:href="#DejaVuSans-74"/>
    </g>
   </g>
   <g id="legend_1">
    <g id="patch_7">
     <path d="M 64.6 122.862625 
L 155.792188 122.862625 
Q 157.792188 122.862625 157.792188 120.862625 
L 157.792188 48.472 
Q 157.792188 46.472 155.792188 46.472 
L 64.6 46.472 
Q 62.6 46.472 62.6 48.472 
L 62.6 120.862625 
Q 62.6 122.862625 64.6 122.862625 
z
" style="fill:#ffffff;opacity:0.8;stroke:#cccccc;stroke-linejoin:miter;"/>
    </g>
    <g id="line2d_18">
     <path d="M 66.6 54.570437 
L 86.6 54.570437 
" style="fill:none;stroke:#0000ff;stroke-linecap:square;stroke-opacity:0.9;stroke-width:2;"/>
    </g>
    <g id="line2d_19"/>
    <g id="text_15">
     <!-- alpaca -->
     <g transform="translate(94.6 58.070437)scale(0.1 -0.1)">
      <defs>
       <path d="M 3122 3366 
L 3122 2828 
Q 2878 2963 2633 3030 
Q 2388 3097 2138 3097 
Q 1578 3097 1268 2742 
Q 959 2388 959 1747 
Q 959 1106 1268 751 
Q 1578 397 2138 397 
Q 2388 397 2633 464 
Q 2878 531 3122 666 
L 3122 134 
Q 2881 22 2623 -34 
Q 2366 -91 2075 -91 
Q 1284 -91 818 406 
Q 353 903 353 1747 
Q 353 2603 823 3093 
Q 1294 3584 2113 3584 
Q 2378 3584 2631 3529 
Q 2884 3475 3122 3366 
z
" id="DejaVuSans-63" transform="scale(0.015625)"/>
      </defs>
      <use xlink:href="#DejaVuSans-61"/>
      <use x="61.279297" xlink:href="#DejaVuSans-6c"/>
      <use x="89.0625" xlink:href="#DejaVuSans-70"/>
      <use x="152.539062" xlink:href="#DejaVuSans-61"/>
      <use x="213.818359" xlink:href="#DejaVuSans-63"/>
      <use x="268.798828" xlink:href="#DejaVuSans-61"/>
     </g>
    </g>
    <g id="line2d_20">
     <path d="M 66.6 69.248562 
L 86.6 69.248562 
" style="fill:none;stroke:#ff0000;stroke-linecap:square;stroke-opacity:0.9;stroke-width:2;"/>
    </g>
    <g id="line2d_21"/>
    <g id="text_16">
     <!-- mattress -->
     <g transform="translate(94.6 72.748562)scale(0.1 -0.1)">
      <defs>
       <path d="M 3328 2828 
Q 3544 3216 3844 3400 
Q 4144 3584 4550 3584 
Q 5097 3584 5394 3201 
Q 5691 2819 5691 2113 
L 5691 0 
L 5113 0 
L 5113 2094 
Q 5113 2597 4934 2840 
Q 4756 3084 4391 3084 
Q 3944 3084 3684 2787 
Q 3425 2491 3425 1978 
L 3425 0 
L 2847 0 
L 2847 2094 
Q 2847 2600 2669 2842 
Q 2491 3084 2119 3084 
Q 1678 3084 1418 2786 
Q 1159 2488 1159 1978 
L 1159 0 
L 581 0 
L 581 3500 
L 1159 3500 
L 1159 2956 
Q 1356 3278 1631 3431 
Q 1906 3584 2284 3584 
Q 2666 3584 2933 3390 
Q 3200 3197 3328 2828 
z
" id="DejaVuSans-6d" transform="scale(0.015625)"/>
       <path d="M 2834 3397 
L 2834 2853 
Q 2591 2978 2328 3040 
Q 2066 3103 1784 3103 
Q 1356 3103 1142 2972 
Q 928 2841 928 2578 
Q 928 2378 1081 2264 
Q 1234 2150 1697 2047 
L 1894 2003 
Q 2506 1872 2764 1633 
Q 3022 1394 3022 966 
Q 3022 478 2636 193 
Q 2250 -91 1575 -91 
Q 1294 -91 989 -36 
Q 684 19 347 128 
L 347 722 
Q 666 556 975 473 
Q 1284 391 1588 391 
Q 1994 391 2212 530 
Q 2431 669 2431 922 
Q 2431 1156 2273 1281 
Q 2116 1406 1581 1522 
L 1381 1569 
Q 847 1681 609 1914 
Q 372 2147 372 2553 
Q 372 3047 722 3315 
Q 1072 3584 1716 3584 
Q 2034 3584 2315 3537 
Q 2597 3491 2834 3397 
z
" id="DejaVuSans-73" transform="scale(0.015625)"/>
      </defs>
      <use xlink:href="#DejaVuSans-6d"/>
      <use x="97.412109" xlink:href="#DejaVuSans-61"/>
      <use x="158.691406" xlink:href="#DejaVuSans-74"/>
      <use x="197.900391" xlink:href="#DejaVuSans-74"/>
      <use x="237.109375" xlink:href="#DejaVuSans-72"/>
      <use x="275.972656" xlink:href="#DejaVuSans-65"/>
      <use x="337.496094" xlink:href="#DejaVuSans-73"/>
      <use x="389.595703" xlink:href="#DejaVuSans-73"/>
     </g>
    </g>
    <g id="line2d_22">
     <path d="M 66.6 83.926687 
L 86.6 83.926687 
" style="fill:none;stroke:#ff8040;stroke-linecap:square;stroke-opacity:0.9;stroke-width:2;"/>
    </g>
    <g id="line2d_23"/>
    <g id="text_17">
     <!-- trader-0850 -->
     <g transform="translate(94.6 87.426687)scale(0.1 -0.1)">
      <defs>
       <path d="M 2034 2216 
Q 1584 2216 1326 1975 
Q 1069 1734 1069 1313 
Q 1069 891 1326 650 
Q 1584 409 2034 409 
Q 2484 409 2743 651 
Q 3003 894 3003 1313 
Q 3003 1734 2745 1975 
Q 2488 2216 2034 2216 
z
M 1403 2484 
Q 997 2584 770 2862 
Q 544 3141 544 3541 
Q 544 4100 942 4425 
Q 1341 4750 2034 4750 
Q 2731 4750 3128 4425 
Q 3525 4100 3525 3541 
Q 3525 3141 3298 2862 
Q 3072 2584 2669 2484 
Q 3125 2378 3379 2068 
Q 3634 1759 3634 1313 
Q 3634 634 3220 271 
Q 2806 -91 2034 -91 
Q 1263 -91 848 271 
Q 434 634 434 1313 
Q 434 1759 690 2068 
Q 947 2378 1403 2484 
z
M 1172 3481 
Q 1172 3119 1398 2916 
Q 1625 2713 2034 2713 
Q 2441 2713 2670 2916 
Q 2900 3119 2900 3481 
Q 2900 3844 2670 4047 
Q 2441 4250 2034 4250 
Q 1625 4250 1398 4047 
Q 1172 3844 1172 3481 
z
" id="DejaVuSans-38" transform="scale(0.015625)"/>
      </defs>
      <use xlink:href="#DejaVuSans-74"/>
      <use x="39.208984" xlink:href="#DejaVuSans-72"/>
      <use x="80.322266" xlink:href="#DejaVuSans-61"/>
      <use x="141.601562" xlink:href="#DejaVuSans-64"/>
      <use x="205.078125" xlink:href="#DejaVuSans-65"/>
      <use x="266.601562" xlink:href="#DejaVuSans-72"/>
      <use x="301.339844" xlink:href="#DejaVuSans-2d"/>
      <use x="337.423828" xlink:href="#DejaVuSans-30"/>
      <use x="401.046875" xlink:href="#DejaVuSans-38"/>
      <use x="464.669922" xlink:href="#DejaVuSans-35"/>
      <use x="528.292969" xlink:href="#DejaVuSans-30"/>
     </g>
    </g>
    <g id="line2d_24">
     <path d="M 66.6 98.604812 
L 86.6 98.604812 
" style="fill:none;stroke:#0d0d0d;stroke-linecap:square;stroke-opacity:0.25;stroke-width:2;"/>
    </g>
    <g id="line2d_25"/>
    <g id="text_18">
     <!-- rando-min -->
     <g transform="translate(94.6 102.104812)scale(0.1 -0.1)">
      <defs>
       <path d="M 3513 2113 
L 3513 0 
L 2938 0 
L 2938 2094 
Q 2938 2591 2744 2837 
Q 2550 3084 2163 3084 
Q 1697 3084 1428 2787 
Q 1159 2491 1159 1978 
L 1159 0 
L 581 0 
L 581 3500 
L 1159 3500 
L 1159 2956 
Q 1366 3272 1645 3428 
Q 1925 3584 2291 3584 
Q 2894 3584 3203 3211 
Q 3513 2838 3513 2113 
z
" id="DejaVuSans-6e" transform="scale(0.015625)"/>
      </defs>
      <use xlink:href="#DejaVuSans-72"/>
      <use x="41.113281" xlink:href="#DejaVuSans-61"/>
      <use x="102.392578" xlink:href="#DejaVuSans-6e"/>
      <use x="165.771484" xlink:href="#DejaVuSans-64"/>
      <use x="229.248047" xlink:href="#DejaVuSans-6f"/>
      <use x="292.304688" xlink:href="#DejaVuSans-2d"/>
      <use x="328.388672" xlink:href="#DejaVuSans-6d"/>
      <use x="425.800781" xlink:href="#DejaVuSans-69"/>
      <use x="453.583984" xlink:href="#DejaVuSans-6e"/>
     </g>
    </g>
    <g id="line2d_26">
     <path d="M 66.6 113.282937 
L 86.6 113.282937 
" style="fill:none;stroke:#0d0d0d;stroke-linecap:square;stroke-opacity:0.25;stroke-width:2;"/>
    </g>
    <g id="line2d_27"/>
    <g id="text_19">
     <!-- rando-max -->
     <g transform="translate(94.6 116.782937)scale(0.1 -0.1)">
      <defs>
       <path d="M 3513 3500 
L 2247 1797 
L 3578 0 
L 2900 0 
L 1881 1375 
L 863 0 
L 184 0 
L 1544 1831 
L 300 3500 
L 978 3500 
L 1906 2253 
L 2834 3500 
L 3513 3500 
z
" id="DejaVuSans-78" transform="scale(0.015625)"/>
      </defs>
      <use xlink:href="#DejaVuSans-72"/>
      <use x="41.113281" xlink:href="#DejaVuSans-61"/>
      <use x="102.392578" xlink:href="#DejaVuSans-6e"/>
      <use x="165.771484" xlink:href="#DejaVuSans-64"/>
      <use x="229.248047" xlink:href="#DejaVuSans-6f"/>
      <use x="292.304688" xlink:href="#DejaVuSans-2d"/>
      <use x="328.388672" xlink:href="#DejaVuSans-6d"/>
      <use x="425.800781" xlink:href="#DejaVuSans-61"/>
      <use x="487.080078" xlink:href="#DejaVuSans-78"/>
     </g>
    </g>
   </g>
  </g>
 </g>
 <defs>
  <clipPath id="pa8672c5109">
   <rect height="235.008" width="357.12" x="57.6" y="41.472"/>
  </clipPath>
 </defs>
</svg>
