<?xml version="1.0" encoding="utf-8" standalone="no"?>
<!DOCTYPE svg PUBLIC "-//W3C//DTD SVG 1.1//EN"
  "http://www.w3.org/Graphics/SVG/1.1/DTD/svg11.dtd">
<svg height="345.6pt" version="1.1" viewBox="0 0 460.8 345.6" width="460.8pt" xmlns="http://www.w3.org/2000/svg" xmlns:xlink="http://www.w3.org/1999/xlink">
 <metadata>
  <rdf:RDF xmlns:cc="http://creativecommons.org/ns#" xmlns:dc="http://purl.org/dc/elements/1.1/" xmlns:rdf="http://www.w3.org/1999/02/22-rdf-syntax-ns#">
   <cc:Work>
    <dc:type rdf:resource="http://purl.org/dc/dcmitype/StillImage"/>
    <dc:date>2022-04-24T10:01:51.523390</dc:date>
    <dc:format>image/svg+xml</dc:format>
    <dc:creator>
     <cc:Agent>
      <dc:title>Matplotlib v3.4.3, https://matplotlib.org/</dc:title>
     </cc:Agent>
    </dc:creator>
   </cc:Work>
  </rdf:RDF>
 </metadata>
 <defs>
  <style type="text/css">*{stroke-linecap:butt;stroke-linejoin:round;}</style>
 </defs>
 <g id="figure_1">
  <g id="patch_1">
   <path d="M 0 345.6 
L 460.8 345.6 
L 460.8 0 
L 0 0 
z
" style="fill:#ffffff;"/>
  </g>
  <g id="axes_1">
   <g id="patch_2">
    <path d="M 57.6 276.48 
L 414.72 276.48 
L 414.72 41.472 
L 57.6 41.472 
z
" style="fill:#ffffff;"/>
   </g>
   <g id="matplotlib.axis_1">
    <g id="xtick_1">
     <g id="line2d_1">
      <defs>
       <path d="M 0 0 
L 0 3.5 
" id="mdf4a21d878" style="stroke:#000000;stroke-width:0.8;"/>
      </defs>
      <g>
       <use style="stroke:#000000;stroke-width:0.8;" x="101.061818" xlink:href="#mdf4a21d878" y="276.48"/>
      </g>
     </g>
     <g id="text_1">
      <!-- 2021-12 -->
      <g transform="translate(63.836997 310.951846)rotate(-30)scale(0.1 -0.1)">
       <defs>
        <path d="M 1228 531 
L 3431 531 
L 3431 0 
L 469 0 
L 469 531 
Q 828 903 1448 1529 
Q 2069 2156 2228 2338 
Q 2531 2678 2651 2914 
Q 2772 3150 2772 3378 
Q 2772 3750 2511 3984 
Q 2250 4219 1831 4219 
Q 1534 4219 1204 4116 
Q 875 4013 500 3803 
L 500 4441 
Q 881 4594 1212 4672 
Q 1544 4750 1819 4750 
Q 2544 4750 2975 4387 
Q 3406 4025 3406 3419 
Q 3406 3131 3298 2873 
Q 3191 2616 2906 2266 
Q 2828 2175 2409 1742 
Q 1991 1309 1228 531 
z
" id="DejaVuSans-32" transform="scale(0.015625)"/>
        <path d="M 2034 4250 
Q 1547 4250 1301 3770 
Q 1056 3291 1056 2328 
Q 1056 1369 1301 889 
Q 1547 409 2034 409 
Q 2525 409 2770 889 
Q 3016 1369 3016 2328 
Q 3016 3291 2770 3770 
Q 2525 4250 2034 4250 
z
M 2034 4750 
Q 2819 4750 3233 4129 
Q 3647 3509 3647 2328 
Q 3647 1150 3233 529 
Q 2819 -91 2034 -91 
Q 1250 -91 836 529 
Q 422 1150 422 2328 
Q 422 3509 836 4129 
Q 1250 4750 2034 4750 
z
" id="DejaVuSans-30" transform="scale(0.015625)"/>
        <path d="M 794 531 
L 1825 531 
L 1825 4091 
L 703 3866 
L 703 4441 
L 1819 4666 
L 2450 4666 
L 2450 531 
L 3481 531 
L 3481 0 
L 794 0 
L 794 531 
z
" id="DejaVuSans-31" transform="scale(0.015625)"/>
        <path d="M 313 2009 
L 1997 2009 
L 1997 1497 
L 313 1497 
L 313 2009 
z
" id="DejaVuSans-2d" transform="scale(0.015625)"/>
       </defs>
       <use xlink:href="#DejaVuSans-32"/>
       <use x="63.623047" xlink:href="#DejaVuSans-30"/>
       <use x="127.246094" xlink:href="#DejaVuSans-32"/>
       <use x="190.869141" xlink:href="#DejaVuSans-31"/>
       <use x="254.492188" xlink:href="#DejaVuSans-2d"/>
       <use x="290.576172" xlink:href="#DejaVuSans-31"/>
       <use x="354.199219" xlink:href="#DejaVuSans-32"/>
      </g>
     </g>
    </g>
    <g id="xtick_2">
     <g id="line2d_2">
      <g>
       <use style="stroke:#000000;stroke-width:0.8;" x="165.992727" xlink:href="#mdf4a21d878" y="276.48"/>
      </g>
     </g>
     <g id="text_2">
      <!-- 2022-01 -->
      <g transform="translate(128.767906 310.951846)rotate(-30)scale(0.1 -0.1)">
       <use xlink:href="#DejaVuSans-32"/>
       <use x="63.623047" xlink:href="#DejaVuSans-30"/>
       <use x="127.246094" xlink:href="#DejaVuSans-32"/>
       <use x="190.869141" xlink:href="#DejaVuSans-32"/>
       <use x="254.492188" xlink:href="#DejaVuSans-2d"/>
       <use x="290.576172" xlink:href="#DejaVuSans-30"/>
       <use x="354.199219" xlink:href="#DejaVuSans-31"/>
      </g>
     </g>
    </g>
    <g id="xtick_3">
     <g id="line2d_3">
      <g>
       <use style="stroke:#000000;stroke-width:0.8;" x="230.923636" xlink:href="#mdf4a21d878" y="276.48"/>
      </g>
     </g>
     <g id="text_3">
      <!-- 2022-02 -->
      <g transform="translate(193.698816 310.951846)rotate(-30)scale(0.1 -0.1)">
       <use xlink:href="#DejaVuSans-32"/>
       <use x="63.623047" xlink:href="#DejaVuSans-30"/>
       <use x="127.246094" xlink:href="#DejaVuSans-32"/>
       <use x="190.869141" xlink:href="#DejaVuSans-32"/>
       <use x="254.492188" xlink:href="#DejaVuSans-2d"/>
       <use x="290.576172" xlink:href="#DejaVuSans-30"/>
       <use x="354.199219" xlink:href="#DejaVuSans-32"/>
      </g>
     </g>
    </g>
    <g id="xtick_4">
     <g id="line2d_4">
      <g>
       <use style="stroke:#000000;stroke-width:0.8;" x="289.570909" xlink:href="#mdf4a21d878" y="276.48"/>
      </g>
     </g>
     <g id="text_4">
      <!-- 2022-03 -->
      <g transform="translate(252.346088 310.951846)rotate(-30)scale(0.1 -0.1)">
       <defs>
        <path d="M 2597 2516 
Q 3050 2419 3304 2112 
Q 3559 1806 3559 1356 
Q 3559 666 3084 287 
Q 2609 -91 1734 -91 
Q 1441 -91 1130 -33 
Q 819 25 488 141 
L 488 750 
Q 750 597 1062 519 
Q 1375 441 1716 441 
Q 2309 441 2620 675 
Q 2931 909 2931 1356 
Q 2931 1769 2642 2001 
Q 2353 2234 1838 2234 
L 1294 2234 
L 1294 2753 
L 1863 2753 
Q 2328 2753 2575 2939 
Q 2822 3125 2822 3475 
Q 2822 3834 2567 4026 
Q 2313 4219 1838 4219 
Q 1578 4219 1281 4162 
Q 984 4106 628 3988 
L 628 4550 
Q 988 4650 1302 4700 
Q 1616 4750 1894 4750 
Q 2613 4750 3031 4423 
Q 3450 4097 3450 3541 
Q 3450 3153 3228 2886 
Q 3006 2619 2597 2516 
z
" id="DejaVuSans-33" transform="scale(0.015625)"/>
       </defs>
       <use xlink:href="#DejaVuSans-32"/>
       <use x="63.623047" xlink:href="#DejaVuSans-30"/>
       <use x="127.246094" xlink:href="#DejaVuSans-32"/>
       <use x="190.869141" xlink:href="#DejaVuSans-32"/>
       <use x="254.492188" xlink:href="#DejaVuSans-2d"/>
       <use x="290.576172" xlink:href="#DejaVuSans-30"/>
       <use x="354.199219" xlink:href="#DejaVuSans-33"/>
      </g>
     </g>
    </g>
    <g id="xtick_5">
     <g id="line2d_5">
      <g>
       <use style="stroke:#000000;stroke-width:0.8;" x="354.501818" xlink:href="#mdf4a21d878" y="276.48"/>
      </g>
     </g>
     <g id="text_5">
      <!-- 2022-04 -->
      <g transform="translate(317.276997 310.951846)rotate(-30)scale(0.1 -0.1)">
       <defs>
        <path d="M 2419 4116 
L 825 1625 
L 2419 1625 
L 2419 4116 
z
M 2253 4666 
L 3047 4666 
L 3047 1625 
L 3713 1625 
L 3713 1100 
L 3047 1100 
L 3047 0 
L 2419 0 
L 2419 1100 
L 313 1100 
L 313 1709 
L 2253 4666 
z
" id="DejaVuSans-34" transform="scale(0.015625)"/>
       </defs>
       <use xlink:href="#DejaVuSans-32"/>
       <use x="63.623047" xlink:href="#DejaVuSans-30"/>
       <use x="127.246094" xlink:href="#DejaVuSans-32"/>
       <use x="190.869141" xlink:href="#DejaVuSans-32"/>
       <use x="254.492188" xlink:href="#DejaVuSans-2d"/>
       <use x="290.576172" xlink:href="#DejaVuSans-30"/>
       <use x="354.199219" xlink:href="#DejaVuSans-34"/>
      </g>
     </g>
    </g>
    <g id="text_6">
     <!-- date -->
     <g transform="translate(224.885 324.351346)scale(0.1 -0.1)">
      <defs>
       <path d="M 2906 2969 
L 2906 4863 
L 3481 4863 
L 3481 0 
L 2906 0 
L 2906 525 
Q 2725 213 2448 61 
Q 2172 -91 1784 -91 
Q 1150 -91 751 415 
Q 353 922 353 1747 
Q 353 2572 751 3078 
Q 1150 3584 1784 3584 
Q 2172 3584 2448 3432 
Q 2725 3281 2906 2969 
z
M 947 1747 
Q 947 1113 1208 752 
Q 1469 391 1925 391 
Q 2381 391 2643 752 
Q 2906 1113 2906 1747 
Q 2906 2381 2643 2742 
Q 2381 3103 1925 3103 
Q 1469 3103 1208 2742 
Q 947 2381 947 1747 
z
" id="DejaVuSans-64" transform="scale(0.015625)"/>
       <path d="M 2194 1759 
Q 1497 1759 1228 1600 
Q 959 1441 959 1056 
Q 959 750 1161 570 
Q 1363 391 1709 391 
Q 2188 391 2477 730 
Q 2766 1069 2766 1631 
L 2766 1759 
L 2194 1759 
z
M 3341 1997 
L 3341 0 
L 2766 0 
L 2766 531 
Q 2569 213 2275 61 
Q 1981 -91 1556 -91 
Q 1019 -91 701 211 
Q 384 513 384 1019 
Q 384 1609 779 1909 
Q 1175 2209 1959 2209 
L 2766 2209 
L 2766 2266 
Q 2766 2663 2505 2880 
Q 2244 3097 1772 3097 
Q 1472 3097 1187 3025 
Q 903 2953 641 2809 
L 641 3341 
Q 956 3463 1253 3523 
Q 1550 3584 1831 3584 
Q 2591 3584 2966 3190 
Q 3341 2797 3341 1997 
z
" id="DejaVuSans-61" transform="scale(0.015625)"/>
       <path d="M 1172 4494 
L 1172 3500 
L 2356 3500 
L 2356 3053 
L 1172 3053 
L 1172 1153 
Q 1172 725 1289 603 
Q 1406 481 1766 481 
L 2356 481 
L 2356 0 
L 1766 0 
Q 1100 0 847 248 
Q 594 497 594 1153 
L 594 3053 
L 172 3053 
L 172 3500 
L 594 3500 
L 594 4494 
L 1172 4494 
z
" id="DejaVuSans-74" transform="scale(0.015625)"/>
       <path d="M 3597 1894 
L 3597 1613 
L 953 1613 
Q 991 1019 1311 708 
Q 1631 397 2203 397 
Q 2534 397 2845 478 
Q 3156 559 3463 722 
L 3463 178 
Q 3153 47 2828 -22 
Q 2503 -91 2169 -91 
Q 1331 -91 842 396 
Q 353 884 353 1716 
Q 353 2575 817 3079 
Q 1281 3584 2069 3584 
Q 2775 3584 3186 3129 
Q 3597 2675 3597 1894 
z
M 3022 2063 
Q 3016 2534 2758 2815 
Q 2500 3097 2075 3097 
Q 1594 3097 1305 2825 
Q 1016 2553 972 2059 
L 3022 2063 
z
" id="DejaVuSans-65" transform="scale(0.015625)"/>
      </defs>
      <use xlink:href="#DejaVuSans-64"/>
      <use x="63.476562" xlink:href="#DejaVuSans-61"/>
      <use x="124.755859" xlink:href="#DejaVuSans-74"/>
      <use x="163.964844" xlink:href="#DejaVuSans-65"/>
     </g>
    </g>
   </g>
   <g id="matplotlib.axis_2">
    <g id="ytick_1">
     <g id="line2d_6">
      <defs>
       <path d="M 0 0 
L -3.5 0 
" id="m5133e63f25" style="stroke:#000000;stroke-width:0.8;"/>
      </defs>
      <g>
       <use style="stroke:#000000;stroke-width:0.8;" x="57.6" xlink:href="#m5133e63f25" y="269.226211"/>
      </g>
     </g>
     <g id="text_7">
      <!-- 87500 -->
      <g transform="translate(18.7875 273.02543)scale(0.1 -0.1)">
       <defs>
        <path d="M 2034 2216 
Q 1584 2216 1326 1975 
Q 1069 1734 1069 1313 
Q 1069 891 1326 650 
Q 1584 409 2034 409 
Q 2484 409 2743 651 
Q 3003 894 3003 1313 
Q 3003 1734 2745 1975 
Q 2488 2216 2034 2216 
z
M 1403 2484 
Q 997 2584 770 2862 
Q 544 3141 544 3541 
Q 544 4100 942 4425 
Q 1341 4750 2034 4750 
Q 2731 4750 3128 4425 
Q 3525 4100 3525 3541 
Q 3525 3141 3298 2862 
Q 3072 2584 2669 2484 
Q 3125 2378 3379 2068 
Q 3634 1759 3634 1313 
Q 3634 634 3220 271 
Q 2806 -91 2034 -91 
Q 1263 -91 848 271 
Q 434 634 434 1313 
Q 434 1759 690 2068 
Q 947 2378 1403 2484 
z
M 1172 3481 
Q 1172 3119 1398 2916 
Q 1625 2713 2034 2713 
Q 2441 2713 2670 2916 
Q 2900 3119 2900 3481 
Q 2900 3844 2670 4047 
Q 2441 4250 2034 4250 
Q 1625 4250 1398 4047 
Q 1172 3844 1172 3481 
z
" id="DejaVuSans-38" transform="scale(0.015625)"/>
        <path d="M 525 4666 
L 3525 4666 
L 3525 4397 
L 1831 0 
L 1172 0 
L 2766 4134 
L 525 4134 
L 525 4666 
z
" id="DejaVuSans-37" transform="scale(0.015625)"/>
        <path d="M 691 4666 
L 3169 4666 
L 3169 4134 
L 1269 4134 
L 1269 2991 
Q 1406 3038 1543 3061 
Q 1681 3084 1819 3084 
Q 2600 3084 3056 2656 
Q 3513 2228 3513 1497 
Q 3513 744 3044 326 
Q 2575 -91 1722 -91 
Q 1428 -91 1123 -41 
Q 819 9 494 109 
L 494 744 
Q 775 591 1075 516 
Q 1375 441 1709 441 
Q 2250 441 2565 725 
Q 2881 1009 2881 1497 
Q 2881 1984 2565 2268 
Q 2250 2553 1709 2553 
Q 1456 2553 1204 2497 
Q 953 2441 691 2322 
L 691 4666 
z
" id="DejaVuSans-35" transform="scale(0.015625)"/>
       </defs>
       <use xlink:href="#DejaVuSans-38"/>
       <use x="63.623047" xlink:href="#DejaVuSans-37"/>
       <use x="127.246094" xlink:href="#DejaVuSans-35"/>
       <use x="190.869141" xlink:href="#DejaVuSans-30"/>
       <use x="254.492188" xlink:href="#DejaVuSans-30"/>
      </g>
     </g>
    </g>
    <g id="ytick_2">
     <g id="line2d_7">
      <g>
       <use style="stroke:#000000;stroke-width:0.8;" x="57.6" xlink:href="#m5133e63f25" y="241.962701"/>
      </g>
     </g>
     <g id="text_8">
      <!-- 90000 -->
      <g transform="translate(18.7875 245.76192)scale(0.1 -0.1)">
       <defs>
        <path d="M 703 97 
L 703 672 
Q 941 559 1184 500 
Q 1428 441 1663 441 
Q 2288 441 2617 861 
Q 2947 1281 2994 2138 
Q 2813 1869 2534 1725 
Q 2256 1581 1919 1581 
Q 1219 1581 811 2004 
Q 403 2428 403 3163 
Q 403 3881 828 4315 
Q 1253 4750 1959 4750 
Q 2769 4750 3195 4129 
Q 3622 3509 3622 2328 
Q 3622 1225 3098 567 
Q 2575 -91 1691 -91 
Q 1453 -91 1209 -44 
Q 966 3 703 97 
z
M 1959 2075 
Q 2384 2075 2632 2365 
Q 2881 2656 2881 3163 
Q 2881 3666 2632 3958 
Q 2384 4250 1959 4250 
Q 1534 4250 1286 3958 
Q 1038 3666 1038 3163 
Q 1038 2656 1286 2365 
Q 1534 2075 1959 2075 
z
" id="DejaVuSans-39" transform="scale(0.015625)"/>
       </defs>
       <use xlink:href="#DejaVuSans-39"/>
       <use x="63.623047" xlink:href="#DejaVuSans-30"/>
       <use x="127.246094" xlink:href="#DejaVuSans-30"/>
       <use x="190.869141" xlink:href="#DejaVuSans-30"/>
       <use x="254.492188" xlink:href="#DejaVuSans-30"/>
      </g>
     </g>
    </g>
    <g id="ytick_3">
     <g id="line2d_8">
      <g>
       <use style="stroke:#000000;stroke-width:0.8;" x="57.6" xlink:href="#m5133e63f25" y="214.699191"/>
      </g>
     </g>
     <g id="text_9">
      <!-- 92500 -->
      <g transform="translate(18.7875 218.49841)scale(0.1 -0.1)">
       <use xlink:href="#DejaVuSans-39"/>
       <use x="63.623047" xlink:href="#DejaVuSans-32"/>
       <use x="127.246094" xlink:href="#DejaVuSans-35"/>
       <use x="190.869141" xlink:href="#DejaVuSans-30"/>
       <use x="254.492188" xlink:href="#DejaVuSans-30"/>
      </g>
     </g>
    </g>
    <g id="ytick_4">
     <g id="line2d_9">
      <g>
       <use style="stroke:#000000;stroke-width:0.8;" x="57.6" xlink:href="#m5133e63f25" y="187.435681"/>
      </g>
     </g>
     <g id="text_10">
      <!-- 95000 -->
      <g transform="translate(18.7875 191.2349)scale(0.1 -0.1)">
       <use xlink:href="#DejaVuSans-39"/>
       <use x="63.623047" xlink:href="#DejaVuSans-35"/>
       <use x="127.246094" xlink:href="#DejaVuSans-30"/>
       <use x="190.869141" xlink:href="#DejaVuSans-30"/>
       <use x="254.492188" xlink:href="#DejaVuSans-30"/>
      </g>
     </g>
    </g>
    <g id="ytick_5">
     <g id="line2d_10">
      <g>
       <use style="stroke:#000000;stroke-width:0.8;" x="57.6" xlink:href="#m5133e63f25" y="160.172171"/>
      </g>
     </g>
     <g id="text_11">
      <!-- 97500 -->
      <g transform="translate(18.7875 163.971389)scale(0.1 -0.1)">
       <use xlink:href="#DejaVuSans-39"/>
       <use x="63.623047" xlink:href="#DejaVuSans-37"/>
       <use x="127.246094" xlink:href="#DejaVuSans-35"/>
       <use x="190.869141" xlink:href="#DejaVuSans-30"/>
       <use x="254.492188" xlink:href="#DejaVuSans-30"/>
      </g>
     </g>
    </g>
    <g id="ytick_6">
     <g id="line2d_11">
      <g>
       <use style="stroke:#000000;stroke-width:0.8;" x="57.6" xlink:href="#m5133e63f25" y="132.90866"/>
      </g>
     </g>
     <g id="text_12">
      <!-- 100000 -->
      <g transform="translate(12.425 136.707879)scale(0.1 -0.1)">
       <use xlink:href="#DejaVuSans-31"/>
       <use x="63.623047" xlink:href="#DejaVuSans-30"/>
       <use x="127.246094" xlink:href="#DejaVuSans-30"/>
       <use x="190.869141" xlink:href="#DejaVuSans-30"/>
       <use x="254.492188" xlink:href="#DejaVuSans-30"/>
       <use x="318.115234" xlink:href="#DejaVuSans-30"/>
      </g>
     </g>
    </g>
    <g id="ytick_7">
     <g id="line2d_12">
      <g>
       <use style="stroke:#000000;stroke-width:0.8;" x="57.6" xlink:href="#m5133e63f25" y="105.64515"/>
      </g>
     </g>
     <g id="text_13">
      <!-- 102500 -->
      <g transform="translate(12.425 109.444369)scale(0.1 -0.1)">
       <use xlink:href="#DejaVuSans-31"/>
       <use x="63.623047" xlink:href="#DejaVuSans-30"/>
       <use x="127.246094" xlink:href="#DejaVuSans-32"/>
       <use x="190.869141" xlink:href="#DejaVuSans-35"/>
       <use x="254.492188" xlink:href="#DejaVuSans-30"/>
       <use x="318.115234" xlink:href="#DejaVuSans-30"/>
      </g>
     </g>
    </g>
    <g id="ytick_8">
     <g id="line2d_13">
      <g>
       <use style="stroke:#000000;stroke-width:0.8;" x="57.6" xlink:href="#m5133e63f25" y="78.38164"/>
      </g>
     </g>
     <g id="text_14">
      <!-- 105000 -->
      <g transform="translate(12.425 82.180859)scale(0.1 -0.1)">
       <use xlink:href="#DejaVuSans-31"/>
       <use x="63.623047" xlink:href="#DejaVuSans-30"/>
       <use x="127.246094" xlink:href="#DejaVuSans-35"/>
       <use x="190.869141" xlink:href="#DejaVuSans-30"/>
       <use x="254.492188" xlink:href="#DejaVuSans-30"/>
       <use x="318.115234" xlink:href="#DejaVuSans-30"/>
      </g>
     </g>
    </g>
    <g id="ytick_9">
     <g id="line2d_14">
      <g>
       <use style="stroke:#000000;stroke-width:0.8;" x="57.6" xlink:href="#m5133e63f25" y="51.11813"/>
      </g>
     </g>
     <g id="text_15">
      <!-- 107500 -->
      <g transform="translate(12.425 54.917349)scale(0.1 -0.1)">
       <use xlink:href="#DejaVuSans-31"/>
       <use x="63.623047" xlink:href="#DejaVuSans-30"/>
       <use x="127.246094" xlink:href="#DejaVuSans-37"/>
       <use x="190.869141" xlink:href="#DejaVuSans-35"/>
       <use x="254.492188" xlink:href="#DejaVuSans-30"/>
       <use x="318.115234" xlink:href="#DejaVuSans-30"/>
      </g>
     </g>
    </g>
   </g>
   <g id="line2d_15">
    <path clip-path="url(#pd9fa06688b)" d="M 73.832727 136.088887 
L 75.927273 139.794954 
L 82.210909 135.063636 
L 84.305455 125.033503 
L 86.4 124.909351 
L 90.589091 124.121601 
L 96.872727 139.445777 
L 98.967273 162.941983 
L 101.061818 175.305385 
L 103.156364 161.241231 
L 105.250909 169.530353 
L 111.534545 152.542656 
L 113.629091 134.038877 
L 115.723636 127.551158 
L 117.818182 127.673153 
L 119.912727 120.5944 
L 126.196364 131.820845 
L 128.290909 131.889513 
L 130.385455 122.362651 
L 132.48 122.68638 
L 134.574545 136.046548 
L 140.858182 148.510034 
L 142.952727 127.45903 
L 145.047273 121.049493 
L 147.141818 111.726746 
L 155.52 96.840803 
L 157.614545 97.459773 
L 159.709091 96.296179 
L 161.803636 98.269756 
L 163.898182 102.653971 
L 170.181818 91.544331 
L 172.276364 80.327567 
L 174.370909 105.063586 
L 176.465455 99.956937 
L 178.56 94.675506 
L 184.843636 95.90237 
L 186.938182 89.187684 
L 189.032727 88.733735 
L 191.127273 97.726712 
L 193.221818 97.094605 
L 201.6 122.031025 
L 203.694545 132.156011 
L 205.789091 142.462603 
L 207.883636 165.760222 
L 214.167273 166.385766 
L 216.261818 164.595133 
L 218.356364 166.611879 
L 220.450909 175.868204 
L 222.545455 150.408642 
L 228.829091 133.504602 
L 230.923636 120.100128 
L 233.018182 102.286324 
L 235.112727 157.117366 
L 237.207273 149.742676 
L 243.490909 160.056449 
L 245.585455 155.745662 
L 247.68 141.910507 
L 249.774545 159.954452 
L 251.869091 183.757796 
L 258.152727 192.685778 
L 260.247273 180.525325 
L 262.341818 184.343064 
L 264.436364 205.343818 
L 266.530909 211.353092 
L 274.909091 220.052038 
L 277.003636 234.843858 
L 279.098182 225.588508 
L 281.192727 202.506945 
L 287.476364 211.674878 
L 289.570909 231.43341 
L 291.665455 208.730004 
L 293.76 211.621416 
L 295.854545 225.150485 
L 302.138182 262.430224 
L 304.232727 265.797818 
L 306.327273 230.162905 
L 308.421818 242.313731 
L 310.516364 255.013724 
L 316.8 257.049448 
L 318.894545 239.706768 
L 320.989091 213.656193 
L 323.083636 203.339504 
L 325.178182 190.777099 
L 331.461818 193.036439 
L 333.556364 175.702365 
L 335.650909 185.331435 
L 337.745455 169.578551 
L 339.84 158.228549 
L 346.123636 156.633513 
L 348.218182 149.106223 
L 350.312727 150.755966 
L 352.407273 171.478817 
L 354.501818 166.248178 
L 360.785455 156.790048 
L 362.88 167.269658 
L 364.974545 181.843584 
L 367.069091 182.885457 
L 369.163636 182.130486 
L 375.447273 199.313376 
L 377.541818 204.606477 
L 379.636364 201.365338 
L 381.730909 216.824765 
L 390.109091 211.060153 
L 392.203636 194.843679 
L 394.298182 195.546686 
L 396.392727 211.889966 
L 398.487273 243.018104 
" style="fill:none;stroke:#0000ff;stroke-linecap:square;stroke-opacity:0.9;stroke-width:2;"/>
   </g>
   <g id="line2d_16">
    <path clip-path="url(#pd9fa06688b)" d="M 73.832727 136.088887 
L 75.927273 139.285617 
L 82.210909 135.090858 
L 84.305455 125.529328 
L 86.4 125.084196 
L 90.589091 152.427184 
L 96.872727 139.498391 
L 98.967273 162.34028 
L 101.061818 175.463389 
L 103.156364 161.294944 
L 105.250909 169.063672 
L 111.534545 153.487945 
L 113.629091 134.963021 
L 115.723636 128.157196 
L 117.818182 128.15539 
L 119.912727 121.455353 
L 126.196364 131.922758 
L 128.290909 131.362366 
L 130.385455 123.379792 
L 132.48 122.419198 
L 134.574545 136.349957 
L 140.858182 148.42346 
L 142.952727 127.536317 
L 145.047273 121.611515 
L 147.141818 112.38457 
L 155.52 97.225383 
L 157.614545 98.136675 
L 159.709091 96.771594 
L 161.803636 97.970353 
L 163.898182 103.506874 
L 170.181818 91.162812 
L 172.276364 80.55429 
L 174.370909 104.374672 
L 176.465455 101.192665 
L 178.56 95.36137 
L 184.843636 96.016622 
L 186.938182 89.897112 
L 189.032727 89.215023 
L 191.127273 97.854488 
L 193.221818 98.621909 
L 201.6 122.01982 
L 203.694545 133.266746 
L 205.789091 143.598333 
L 207.883636 165.542045 
L 214.167273 167.46839 
L 216.261818 163.547709 
L 218.356364 165.761533 
L 220.450909 175.561353 
L 222.545455 150.018827 
L 228.829091 133.809443 
L 230.923636 120.253865 
L 233.018182 102.564651 
L 235.112727 155.264001 
L 237.207273 146.971829 
L 243.490909 154.804157 
L 245.585455 148.652494 
L 247.68 138.012143 
L 249.774545 155.836082 
L 251.869091 178.487254 
L 258.152727 188.540803 
L 260.247273 176.508549 
L 262.341818 179.426181 
L 264.436364 199.372966 
L 266.530909 204.695944 
L 274.909091 213.482748 
L 277.003636 227.78804 
L 279.098182 221.407152 
L 281.192727 197.420354 
L 287.476364 207.390295 
L 289.570909 228.252248 
L 291.665455 204.482675 
L 293.76 206.537672 
L 295.854545 220.872387 
L 302.138182 255.366851 
L 304.232727 259.633223 
L 306.327273 225.657881 
L 308.421818 238.38769 
L 310.516364 249.220293 
L 316.8 250.941918 
L 318.894545 233.713856 
L 320.989091 210.657583 
L 323.083636 201.220794 
L 325.178182 190.747512 
L 331.461818 190.497188 
L 333.556364 173.611678 
L 335.650909 184.111533 
L 337.745455 167.748759 
L 339.84 155.809568 
L 346.123636 155.022772 
L 348.218182 149.563721 
L 350.312727 150.154502 
L 352.407273 171.033759 
L 354.501818 166.162582 
L 360.785455 158.081079 
L 362.88 168.454972 
L 364.974545 181.42646 
L 367.069091 182.756592 
L 369.163636 181.639494 
L 375.447273 198.081151 
L 377.541818 203.216868 
L 379.636364 199.958074 
L 381.730909 213.769622 
L 390.109091 208.347504 
L 392.203636 193.233155 
L 394.298182 187.144007 
L 396.392727 201.361285 
L 398.487273 230.866191 
" style="fill:none;stroke:#ff0000;stroke-linecap:square;stroke-opacity:0.9;stroke-width:2;"/>
   </g>
   <g id="line2d_17">
    <path clip-path="url(#pd9fa06688b)" d="M 73.832727 136.088887 
L 75.927273 139.1102 
L 82.210909 135.545308 
L 84.305455 125.256876 
L 86.4 124.377813 
L 90.589091 151.593915 
L 96.872727 138.925667 
L 98.967273 162.116181 
L 101.061818 174.728689 
L 103.156364 160.963793 
L 105.250909 168.746709 
L 111.534545 152.221149 
L 113.629091 133.60273 
L 115.723636 127.441519 
L 117.818182 127.86092 
L 119.912727 122.229664 
L 126.196364 131.574385 
L 128.290909 131.391524 
L 130.385455 123.132851 
L 132.48 121.664433 
L 134.574545 135.443439 
L 140.858182 148.058355 
L 142.952727 126.680535 
L 145.047273 120.595473 
L 147.141818 111.855685 
L 155.52 96.596938 
L 157.614545 97.830994 
L 159.709091 96.76978 
L 161.803636 98.390281 
L 163.898182 103.357222 
L 170.181818 90.944868 
L 172.276364 79.893198 
L 174.370909 105.137561 
L 176.465455 99.693283 
L 178.56 95.42582 
L 184.843636 95.630676 
L 186.938182 88.593734 
L 189.032727 88.599282 
L 191.127273 97.024924 
L 193.221818 96.763172 
L 201.6 122.020083 
L 203.694545 132.079638 
L 205.789091 142.079614 
L 207.883636 165.536137 
L 214.167273 165.955711 
L 216.261818 164.218368 
L 218.356364 166.581223 
L 220.450909 175.426434 
L 222.545455 150.12403 
L 228.829091 133.266783 
L 230.923636 119.39754 
L 233.018182 101.128319 
L 235.112727 155.864441 
L 237.207273 149.13048 
L 243.490909 159.421096 
L 245.585455 153.794779 
L 247.68 141.315052 
L 249.774545 159.413532 
L 251.869091 182.744114 
L 258.152727 191.994329 
L 260.247273 178.944538 
L 262.341818 183.204484 
L 264.436364 204.076717 
L 266.530909 209.626226 
L 274.909091 219.384789 
L 277.003636 233.499953 
L 279.098182 224.133738 
L 281.192727 200.695046 
L 287.476364 209.575549 
L 289.570909 230.075214 
L 291.665455 207.39882 
L 293.76 210.012455 
L 295.854545 224.846022 
L 302.138182 260.93952 
L 304.232727 264.131417 
L 306.327273 228.796585 
L 308.421818 241.679466 
L 310.516364 254.35578 
L 316.8 255.284217 
L 318.894545 238.339115 
L 320.989091 212.652408 
L 323.083636 201.72049 
L 325.178182 189.900011 
L 331.461818 191.17727 
L 333.556364 174.055594 
L 335.650909 184.143519 
L 337.745455 168.334544 
L 339.84 156.629586 
L 346.123636 154.90936 
L 348.218182 147.508094 
L 350.312727 149.353822 
L 352.407273 170.238696 
L 354.501818 165.900731 
L 360.785455 155.92501 
L 362.88 166.873055 
L 364.974545 181.521463 
L 367.069091 181.308929 
L 369.163636 182.156925 
L 375.447273 197.881981 
L 377.541818 204.094018 
L 379.636364 201.263221 
L 381.730909 216.064105 
L 390.109091 210.462809 
L 392.203636 194.640589 
L 394.298182 195.122625 
L 396.392727 211.965989 
L 398.487273 241.527391 
" style="fill:none;stroke:#008000;stroke-linecap:square;stroke-opacity:0.9;stroke-width:2;"/>
   </g>
   <g id="line2d_18">
    <path clip-path="url(#pd9fa06688b)" d="M 73.832727 136.088887 
L 75.927273 139.727184 
L 82.210909 134.739571 
L 84.305455 125.578208 
L 86.4 124.331261 
L 90.589091 151.724358 
L 96.872727 139.910662 
L 98.967273 162.262297 
L 101.061818 175.010856 
L 103.156364 161.313258 
L 105.250909 169.140214 
L 111.534545 152.393236 
L 113.629091 134.739265 
L 115.723636 128.026836 
L 117.818182 127.89465 
L 119.912727 121.673909 
L 126.196364 132.87579 
L 128.290909 131.469221 
L 130.385455 123.322636 
L 132.48 122.062033 
L 134.574545 135.413383 
L 140.858182 148.574458 
L 142.952727 126.964492 
L 145.047273 121.433193 
L 147.141818 111.664739 
L 155.52 96.838165 
L 157.614545 97.592753 
L 159.709091 96.541099 
L 161.803636 98.678539 
L 163.898182 102.841582 
L 170.181818 91.48397 
L 172.276364 79.595463 
L 174.370909 104.931593 
L 176.465455 100.875896 
L 178.56 95.064187 
L 184.843636 96.041805 
L 186.938182 89.116003 
L 189.032727 88.686409 
L 191.127273 98.05 
L 193.221818 97.915927 
L 201.6 122.625395 
L 203.694545 132.458771 
L 205.789091 143.565178 
L 207.883636 165.950226 
L 214.167273 166.215747 
L 216.261818 165.054942 
L 218.356364 166.947104 
L 220.450909 176.270069 
L 222.545455 150.6479 
L 228.829091 133.086237 
L 230.923636 119.459391 
L 233.018182 102.434609 
L 235.112727 157.4414 
L 237.207273 150.107307 
L 243.490909 159.875883 
L 245.585455 155.599145 
L 247.68 142.116368 
L 249.774545 161.11125 
L 251.869091 183.659153 
L 258.152727 193.250541 
L 260.247273 180.333884 
L 262.341818 183.847817 
L 264.436364 206.347996 
L 266.530909 211.110178 
L 274.909091 221.199213 
L 277.003636 234.216885 
L 279.098182 225.700306 
L 281.192727 202.458851 
L 287.476364 211.720181 
L 289.570909 232.078922 
L 291.665455 208.196903 
L 293.76 211.786417 
L 295.854545 225.148308 
L 302.138182 262.143484 
L 304.232727 265.23404 
L 306.327273 229.331727 
L 308.421818 242.811233 
L 310.516364 254.960031 
L 316.8 256.85893 
L 318.894545 239.333724 
L 320.989091 213.602207 
L 323.083636 203.486893 
L 325.178182 191.416079 
L 331.461818 192.738425 
L 333.556364 175.346069 
L 335.650909 185.800935 
L 337.745455 169.478085 
L 339.84 157.64707 
L 346.123636 155.602505 
L 348.218182 149.207137 
L 350.312727 150.405564 
L 352.407273 171.7676 
L 354.501818 166.354576 
L 360.785455 157.527692 
L 362.88 167.374895 
L 364.974545 181.837697 
L 367.069091 182.67656 
L 369.163636 182.458554 
L 375.447273 199.044059 
L 377.541818 205.129857 
L 379.636364 202.248297 
L 381.730909 217.945018 
L 390.109091 210.602933 
L 392.203636 195.365919 
L 394.298182 194.854454 
L 396.392727 212.663941 
L 398.487273 241.802146 
" style="fill:none;stroke:#ec5283;stroke-linecap:square;stroke-width:2;"/>
   </g>
   <g id="line2d_19">
    <path clip-path="url(#pd9fa06688b)" d="M 73.832727 136.088887 
L 75.927273 139.865599 
L 82.210909 135.035117 
L 84.305455 124.992551 
L 86.4 124.188278 
L 90.589091 151.222266 
L 96.872727 138.928621 
L 98.967273 161.838183 
L 101.061818 175.323736 
L 103.156364 161.086927 
L 105.250909 169.079931 
L 111.534545 152.636431 
L 113.629091 134.08906 
L 115.723636 127.808882 
L 117.818182 128.08111 
L 119.912727 122.255538 
L 126.196364 132.345855 
L 128.290909 131.075563 
L 130.385455 123.3879 
L 132.48 121.168059 
L 134.574545 135.680865 
L 140.858182 147.836742 
L 142.952727 127.119527 
L 145.047273 121.322437 
L 147.141818 111.557525 
L 155.52 97.104745 
L 157.614545 97.784761 
L 159.709091 96.380098 
L 161.803636 97.826524 
L 163.898182 102.503724 
L 170.181818 90.891352 
L 172.276364 79.84624 
L 174.370909 105.442081 
L 176.465455 100.624553 
L 178.56 95.436344 
L 184.843636 96.301882 
L 186.938182 89.228264 
L 189.032727 88.192372 
L 191.127273 96.998037 
L 193.221818 97.22722 
L 201.6 121.616732 
L 203.694545 131.94059 
L 205.789091 142.722112 
L 207.883636 165.392136 
L 214.167273 166.283449 
L 216.261818 164.23605 
L 218.356364 166.020571 
L 220.450909 175.59574 
L 222.545455 149.975606 
L 228.829091 132.568742 
L 230.923636 119.139579 
L 233.018182 101.245984 
L 235.112727 156.617195 
L 237.207273 149.542892 
L 243.490909 159.163869 
L 245.585455 153.79149 
L 247.68 140.939585 
L 249.774545 159.134925 
L 251.869091 182.447877 
L 258.152727 192.012878 
L 260.247273 179.826848 
L 262.341818 182.531635 
L 264.436364 204.472755 
L 266.530909 209.789534 
L 274.909091 219.221024 
L 277.003636 233.232185 
L 279.098182 223.826034 
L 281.192727 200.387158 
L 287.476364 210.027933 
L 289.570909 230.640415 
L 291.665455 207.238988 
L 293.76 210.665401 
L 295.854545 224.547444 
L 302.138182 261.553584 
L 304.232727 263.976047 
L 306.327273 228.492903 
L 308.421818 241.153494 
L 310.516364 253.646345 
L 316.8 255.347137 
L 318.894545 237.893956 
L 320.989091 212.780262 
L 323.083636 202.478182 
L 325.178182 190.2036 
L 331.461818 191.084733 
L 333.556364 173.535892 
L 335.650909 184.087008 
L 337.745455 167.948291 
L 339.84 156.461505 
L 346.123636 154.423023 
L 348.218182 148.399617 
L 350.312727 149.675812 
L 352.407273 170.492401 
L 354.501818 165.017251 
L 360.785455 156.164712 
L 362.88 166.121181 
L 364.974545 181.002157 
L 367.069091 181.806781 
L 369.163636 181.38795 
L 375.447273 198.592197 
L 377.541818 203.500973 
L 379.636364 201.071991 
L 381.730909 215.865673 
L 390.109091 210.225996 
L 392.203636 193.97461 
L 394.298182 194.681403 
L 396.392727 211.440189 
L 398.487273 241.256567 
" style="fill:none;stroke:#00ff00;stroke-linecap:square;stroke-opacity:0.9;stroke-width:2;"/>
   </g>
   <g id="line2d_20">
    <path clip-path="url(#pd9fa06688b)" d="M 73.832727 136.088887 
L 75.927273 137.81854 
L 82.210909 131.280302 
L 84.305455 123.624059 
L 86.4 123.579399 
L 90.589091 146.878176 
L 96.872727 133.498294 
L 98.967273 154.891065 
L 101.061818 170.189216 
L 103.156364 155.729152 
L 105.250909 162.556396 
L 111.534545 142.240424 
L 113.629091 123.929647 
L 115.723636 115.168495 
L 117.818182 114.39481 
L 119.912727 110.803253 
L 126.196364 121.737364 
L 128.290909 116.042688 
L 130.385455 108.357845 
L 132.48 102.414805 
L 134.574545 115.417468 
L 140.858182 129.765646 
L 142.952727 103.919346 
L 145.047273 99.271285 
L 147.141818 88.562762 
L 155.52 74.585805 
L 157.614545 74.866078 
L 159.709091 75.21627 
L 161.803636 77.534087 
L 163.898182 82.824502 
L 170.181818 64.870957 
L 172.276364 52.154182 
L 174.370909 82.506677 
L 176.465455 73.519171 
L 178.56 70.188882 
L 184.843636 71.179339 
L 186.938182 60.942983 
L 189.032727 58.340735 
L 191.127273 73.159541 
L 193.221818 69.587755 
L 201.6 93.757991 
L 203.694545 100.607873 
L 205.789091 112.966162 
L 207.883636 137.882474 
L 214.167273 137.514711 
L 216.261818 150.164834 
L 218.356364 149.708081 
L 220.450909 156.791513 
L 222.545455 129.271559 
L 228.829091 106.024927 
L 230.923636 95.456192 
L 233.018182 79.166393 
L 235.112727 147.177372 
L 237.207273 144.78046 
L 243.490909 162.762721 
L 245.585455 165.189172 
L 247.68 141.684825 
L 249.774545 161.033412 
L 251.869091 184.114639 
L 258.152727 191.967749 
L 260.247273 178.723567 
L 262.341818 184.569182 
L 264.436364 203.768544 
L 266.530909 210.121392 
L 274.909091 221.284523 
L 277.003636 235.612334 
L 279.098182 212.216796 
L 281.192727 192.825322 
L 287.476364 198.308607 
L 289.570909 216.840982 
L 291.665455 193.75255 
L 293.76 200.109394 
L 295.854545 219.553133 
L 302.138182 265.468251 
L 304.232727 259.684379 
L 306.327273 216.253334 
L 308.421818 231.716047 
L 310.516364 247.941061 
L 316.8 248.373134 
L 318.894545 229.612711 
L 320.989091 195.060286 
L 323.083636 183.73113 
L 325.178182 168.460306 
L 331.461818 171.535428 
L 333.556364 148.682354 
L 335.650909 161.488224 
L 337.745455 146.463817 
L 339.84 132.809249 
L 346.123636 132.004355 
L 348.218182 123.688041 
L 350.312727 129.405106 
L 352.407273 156.662251 
L 354.501818 154.669477 
L 360.785455 144.884556 
L 362.88 157.762485 
L 364.974545 173.623603 
L 367.069091 177.237875 
L 369.163636 178.450285 
L 375.447273 195.166893 
L 377.541818 201.218264 
L 379.636364 195.770179 
L 381.730909 216.094205 
L 390.109091 204.684983 
L 392.203636 185.751283 
L 394.298182 192.088248 
L 396.392727 218.912271 
L 398.487273 251.303391 
" style="fill:none;stroke:#a5b9cf;stroke-linecap:square;stroke-width:2;"/>
   </g>
   <g id="patch_3">
    <path d="M 57.6 276.48 
L 57.6 41.472 
" style="fill:none;stroke:#000000;stroke-linecap:square;stroke-linejoin:miter;stroke-width:0.8;"/>
   </g>
   <g id="patch_4">
    <path d="M 414.72 276.48 
L 414.72 41.472 
" style="fill:none;stroke:#000000;stroke-linecap:square;stroke-linejoin:miter;stroke-width:0.8;"/>
   </g>
   <g id="patch_5">
    <path d="M 57.6 276.48 
L 414.72 276.48 
" style="fill:none;stroke:#000000;stroke-linecap:square;stroke-linejoin:miter;stroke-width:0.8;"/>
   </g>
   <g id="patch_6">
    <path d="M 57.6 41.472 
L 414.72 41.472 
" style="fill:none;stroke:#000000;stroke-linecap:square;stroke-linejoin:miter;stroke-width:0.8;"/>
   </g>
   <g id="text_16">
    <!-- TESTFUNDS -->
    <g transform="translate(200.470313 22.034625)scale(0.12 -0.12)">
     <defs>
      <path d="M -19 4666 
L 3928 4666 
L 3928 4134 
L 2272 4134 
L 2272 0 
L 1638 0 
L 1638 4134 
L -19 4134 
L -19 4666 
z
" id="DejaVuSans-54" transform="scale(0.015625)"/>
      <path d="M 628 4666 
L 3578 4666 
L 3578 4134 
L 1259 4134 
L 1259 2753 
L 3481 2753 
L 3481 2222 
L 1259 2222 
L 1259 531 
L 3634 531 
L 3634 0 
L 628 0 
L 628 4666 
z
" id="DejaVuSans-45" transform="scale(0.015625)"/>
      <path d="M 3425 4513 
L 3425 3897 
Q 3066 4069 2747 4153 
Q 2428 4238 2131 4238 
Q 1616 4238 1336 4038 
Q 1056 3838 1056 3469 
Q 1056 3159 1242 3001 
Q 1428 2844 1947 2747 
L 2328 2669 
Q 3034 2534 3370 2195 
Q 3706 1856 3706 1288 
Q 3706 609 3251 259 
Q 2797 -91 1919 -91 
Q 1588 -91 1214 -16 
Q 841 59 441 206 
L 441 856 
Q 825 641 1194 531 
Q 1563 422 1919 422 
Q 2459 422 2753 634 
Q 3047 847 3047 1241 
Q 3047 1584 2836 1778 
Q 2625 1972 2144 2069 
L 1759 2144 
Q 1053 2284 737 2584 
Q 422 2884 422 3419 
Q 422 4038 858 4394 
Q 1294 4750 2059 4750 
Q 2388 4750 2728 4690 
Q 3069 4631 3425 4513 
z
" id="DejaVuSans-53" transform="scale(0.015625)"/>
      <path d="M 628 4666 
L 3309 4666 
L 3309 4134 
L 1259 4134 
L 1259 2759 
L 3109 2759 
L 3109 2228 
L 1259 2228 
L 1259 0 
L 628 0 
L 628 4666 
z
" id="DejaVuSans-46" transform="scale(0.015625)"/>
      <path d="M 556 4666 
L 1191 4666 
L 1191 1831 
Q 1191 1081 1462 751 
Q 1734 422 2344 422 
Q 2950 422 3222 751 
Q 3494 1081 3494 1831 
L 3494 4666 
L 4128 4666 
L 4128 1753 
Q 4128 841 3676 375 
Q 3225 -91 2344 -91 
Q 1459 -91 1007 375 
Q 556 841 556 1753 
L 556 4666 
z
" id="DejaVuSans-55" transform="scale(0.015625)"/>
      <path d="M 628 4666 
L 1478 4666 
L 3547 763 
L 3547 4666 
L 4159 4666 
L 4159 0 
L 3309 0 
L 1241 3903 
L 1241 0 
L 628 0 
L 628 4666 
z
" id="DejaVuSans-4e" transform="scale(0.015625)"/>
      <path d="M 1259 4147 
L 1259 519 
L 2022 519 
Q 2988 519 3436 956 
Q 3884 1394 3884 2338 
Q 3884 3275 3436 3711 
Q 2988 4147 2022 4147 
L 1259 4147 
z
M 628 4666 
L 1925 4666 
Q 3281 4666 3915 4102 
Q 4550 3538 4550 2338 
Q 4550 1131 3912 565 
Q 3275 0 1925 0 
L 628 0 
L 628 4666 
z
" id="DejaVuSans-44" transform="scale(0.015625)"/>
     </defs>
     <use xlink:href="#DejaVuSans-54"/>
     <use x="61.083984" xlink:href="#DejaVuSans-45"/>
     <use x="124.267578" xlink:href="#DejaVuSans-53"/>
     <use x="187.744141" xlink:href="#DejaVuSans-54"/>
     <use x="248.828125" xlink:href="#DejaVuSans-46"/>
     <use x="306.347656" xlink:href="#DejaVuSans-55"/>
     <use x="379.541016" xlink:href="#DejaVuSans-4e"/>
     <use x="454.345703" xlink:href="#DejaVuSans-44"/>
     <use x="531.347656" xlink:href="#DejaVuSans-53"/>
    </g>
    <!-- daily_report -->
    <g transform="translate(200.466563 35.472)scale(0.12 -0.12)">
     <defs>
      <path d="M 603 3500 
L 1178 3500 
L 1178 0 
L 603 0 
L 603 3500 
z
M 603 4863 
L 1178 4863 
L 1178 4134 
L 603 4134 
L 603 4863 
z
" id="DejaVuSans-69" transform="scale(0.015625)"/>
      <path d="M 603 4863 
L 1178 4863 
L 1178 0 
L 603 0 
L 603 4863 
z
" id="DejaVuSans-6c" transform="scale(0.015625)"/>
      <path d="M 2059 -325 
Q 1816 -950 1584 -1140 
Q 1353 -1331 966 -1331 
L 506 -1331 
L 506 -850 
L 844 -850 
Q 1081 -850 1212 -737 
Q 1344 -625 1503 -206 
L 1606 56 
L 191 3500 
L 800 3500 
L 1894 763 
L 2988 3500 
L 3597 3500 
L 2059 -325 
z
" id="DejaVuSans-79" transform="scale(0.015625)"/>
      <path d="M 3263 -1063 
L 3263 -1509 
L -63 -1509 
L -63 -1063 
L 3263 -1063 
z
" id="DejaVuSans-5f" transform="scale(0.015625)"/>
      <path d="M 2631 2963 
Q 2534 3019 2420 3045 
Q 2306 3072 2169 3072 
Q 1681 3072 1420 2755 
Q 1159 2438 1159 1844 
L 1159 0 
L 581 0 
L 581 3500 
L 1159 3500 
L 1159 2956 
Q 1341 3275 1631 3429 
Q 1922 3584 2338 3584 
Q 2397 3584 2469 3576 
Q 2541 3569 2628 3553 
L 2631 2963 
z
" id="DejaVuSans-72" transform="scale(0.015625)"/>
      <path d="M 1159 525 
L 1159 -1331 
L 581 -1331 
L 581 3500 
L 1159 3500 
L 1159 2969 
Q 1341 3281 1617 3432 
Q 1894 3584 2278 3584 
Q 2916 3584 3314 3078 
Q 3713 2572 3713 1747 
Q 3713 922 3314 415 
Q 2916 -91 2278 -91 
Q 1894 -91 1617 61 
Q 1341 213 1159 525 
z
M 3116 1747 
Q 3116 2381 2855 2742 
Q 2594 3103 2138 3103 
Q 1681 3103 1420 2742 
Q 1159 2381 1159 1747 
Q 1159 1113 1420 752 
Q 1681 391 2138 391 
Q 2594 391 2855 752 
Q 3116 1113 3116 1747 
z
" id="DejaVuSans-70" transform="scale(0.015625)"/>
      <path d="M 1959 3097 
Q 1497 3097 1228 2736 
Q 959 2375 959 1747 
Q 959 1119 1226 758 
Q 1494 397 1959 397 
Q 2419 397 2687 759 
Q 2956 1122 2956 1747 
Q 2956 2369 2687 2733 
Q 2419 3097 1959 3097 
z
M 1959 3584 
Q 2709 3584 3137 3096 
Q 3566 2609 3566 1747 
Q 3566 888 3137 398 
Q 2709 -91 1959 -91 
Q 1206 -91 779 398 
Q 353 888 353 1747 
Q 353 2609 779 3096 
Q 1206 3584 1959 3584 
z
" id="DejaVuSans-6f" transform="scale(0.015625)"/>
     </defs>
     <use xlink:href="#DejaVuSans-64"/>
     <use x="63.476562" xlink:href="#DejaVuSans-61"/>
     <use x="124.755859" xlink:href="#DejaVuSans-69"/>
     <use x="152.539062" xlink:href="#DejaVuSans-6c"/>
     <use x="180.322266" xlink:href="#DejaVuSans-79"/>
     <use x="239.501953" xlink:href="#DejaVuSans-5f"/>
     <use x="289.501953" xlink:href="#DejaVuSans-72"/>
     <use x="328.365234" xlink:href="#DejaVuSans-65"/>
     <use x="389.888672" xlink:href="#DejaVuSans-70"/>
     <use x="453.365234" xlink:href="#DejaVuSans-6f"/>
     <use x="514.546875" xlink:href="#DejaVuSans-72"/>
     <use x="555.660156" xlink:href="#DejaVuSans-74"/>
    </g>
   </g>
   <g id="legend_1">
    <g id="patch_7">
     <path d="M 64.6 271.48 
L 178.64375 271.48 
Q 180.64375 271.48 180.64375 269.48 
L 180.64375 182.41125 
Q 180.64375 180.41125 178.64375 180.41125 
L 64.6 180.41125 
Q 62.6 180.41125 62.6 182.41125 
L 62.6 269.48 
Q 62.6 271.48 64.6 271.48 
z
" style="fill:#ffffff;opacity:0.8;stroke:#cccccc;stroke-linejoin:miter;"/>
    </g>
    <g id="line2d_21">
     <path d="M 66.6 188.509687 
L 86.6 188.509687 
" style="fill:none;stroke:#0000ff;stroke-linecap:square;stroke-opacity:0.9;stroke-width:2;"/>
    </g>
    <g id="line2d_22"/>
    <g id="text_17">
     <!-- alpaca -->
     <g transform="translate(94.6 192.009687)scale(0.1 -0.1)">
      <defs>
       <path d="M 3122 3366 
L 3122 2828 
Q 2878 2963 2633 3030 
Q 2388 3097 2138 3097 
Q 1578 3097 1268 2742 
Q 959 2388 959 1747 
Q 959 1106 1268 751 
Q 1578 397 2138 397 
Q 2388 397 2633 464 
Q 2878 531 3122 666 
L 3122 134 
Q 2881 22 2623 -34 
Q 2366 -91 2075 -91 
Q 1284 -91 818 406 
Q 353 903 353 1747 
Q 353 2603 823 3093 
Q 1294 3584 2113 3584 
Q 2378 3584 2631 3529 
Q 2884 3475 3122 3366 
z
" id="DejaVuSans-63" transform="scale(0.015625)"/>
      </defs>
      <use xlink:href="#DejaVuSans-61"/>
      <use x="61.279297" xlink:href="#DejaVuSans-6c"/>
      <use x="89.0625" xlink:href="#DejaVuSans-70"/>
      <use x="152.539062" xlink:href="#DejaVuSans-61"/>
      <use x="213.818359" xlink:href="#DejaVuSans-63"/>
      <use x="268.798828" xlink:href="#DejaVuSans-61"/>
     </g>
    </g>
    <g id="line2d_23">
     <path d="M 66.6 203.187812 
L 86.6 203.187812 
" style="fill:none;stroke:#ff0000;stroke-linecap:square;stroke-opacity:0.9;stroke-width:2;"/>
    </g>
    <g id="line2d_24"/>
    <g id="text_18">
     <!-- mattress -->
     <g transform="translate(94.6 206.687812)scale(0.1 -0.1)">
      <defs>
       <path d="M 3328 2828 
Q 3544 3216 3844 3400 
Q 4144 3584 4550 3584 
Q 5097 3584 5394 3201 
Q 5691 2819 5691 2113 
L 5691 0 
L 5113 0 
L 5113 2094 
Q 5113 2597 4934 2840 
Q 4756 3084 4391 3084 
Q 3944 3084 3684 2787 
Q 3425 2491 3425 1978 
L 3425 0 
L 2847 0 
L 2847 2094 
Q 2847 2600 2669 2842 
Q 2491 3084 2119 3084 
Q 1678 3084 1418 2786 
Q 1159 2488 1159 1978 
L 1159 0 
L 581 0 
L 581 3500 
L 1159 3500 
L 1159 2956 
Q 1356 3278 1631 3431 
Q 1906 3584 2284 3584 
Q 2666 3584 2933 3390 
Q 3200 3197 3328 2828 
z
" id="DejaVuSans-6d" transform="scale(0.015625)"/>
       <path d="M 2834 3397 
L 2834 2853 
Q 2591 2978 2328 3040 
Q 2066 3103 1784 3103 
Q 1356 3103 1142 2972 
Q 928 2841 928 2578 
Q 928 2378 1081 2264 
Q 1234 2150 1697 2047 
L 1894 2003 
Q 2506 1872 2764 1633 
Q 3022 1394 3022 966 
Q 3022 478 2636 193 
Q 2250 -91 1575 -91 
Q 1294 -91 989 -36 
Q 684 19 347 128 
L 347 722 
Q 666 556 975 473 
Q 1284 391 1588 391 
Q 1994 391 2212 530 
Q 2431 669 2431 922 
Q 2431 1156 2273 1281 
Q 2116 1406 1581 1522 
L 1381 1569 
Q 847 1681 609 1914 
Q 372 2147 372 2553 
Q 372 3047 722 3315 
Q 1072 3584 1716 3584 
Q 2034 3584 2315 3537 
Q 2597 3491 2834 3397 
z
" id="DejaVuSans-73" transform="scale(0.015625)"/>
      </defs>
      <use xlink:href="#DejaVuSans-6d"/>
      <use x="97.412109" xlink:href="#DejaVuSans-61"/>
      <use x="158.691406" xlink:href="#DejaVuSans-74"/>
      <use x="197.900391" xlink:href="#DejaVuSans-74"/>
      <use x="237.109375" xlink:href="#DejaVuSans-72"/>
      <use x="275.972656" xlink:href="#DejaVuSans-65"/>
      <use x="337.496094" xlink:href="#DejaVuSans-73"/>
      <use x="389.595703" xlink:href="#DejaVuSans-73"/>
     </g>
    </g>
    <g id="line2d_25">
     <path d="M 66.6 217.865937 
L 86.6 217.865937 
" style="fill:none;stroke:#008000;stroke-linecap:square;stroke-opacity:0.9;stroke-width:2;"/>
    </g>
    <g id="line2d_26"/>
    <g id="text_19">
     <!-- daily-open-rebal -->
     <g transform="translate(94.6 221.365937)scale(0.1 -0.1)">
      <defs>
       <path d="M 3513 2113 
L 3513 0 
L 2938 0 
L 2938 2094 
Q 2938 2591 2744 2837 
Q 2550 3084 2163 3084 
Q 1697 3084 1428 2787 
Q 1159 2491 1159 1978 
L 1159 0 
L 581 0 
L 581 3500 
L 1159 3500 
L 1159 2956 
Q 1366 3272 1645 3428 
Q 1925 3584 2291 3584 
Q 2894 3584 3203 3211 
Q 3513 2838 3513 2113 
z
" id="DejaVuSans-6e" transform="scale(0.015625)"/>
       <path d="M 3116 1747 
Q 3116 2381 2855 2742 
Q 2594 3103 2138 3103 
Q 1681 3103 1420 2742 
Q 1159 2381 1159 1747 
Q 1159 1113 1420 752 
Q 1681 391 2138 391 
Q 2594 391 2855 752 
Q 3116 1113 3116 1747 
z
M 1159 2969 
Q 1341 3281 1617 3432 
Q 1894 3584 2278 3584 
Q 2916 3584 3314 3078 
Q 3713 2572 3713 1747 
Q 3713 922 3314 415 
Q 2916 -91 2278 -91 
Q 1894 -91 1617 61 
Q 1341 213 1159 525 
L 1159 0 
L 581 0 
L 581 4863 
L 1159 4863 
L 1159 2969 
z
" id="DejaVuSans-62" transform="scale(0.015625)"/>
      </defs>
      <use xlink:href="#DejaVuSans-64"/>
      <use x="63.476562" xlink:href="#DejaVuSans-61"/>
      <use x="124.755859" xlink:href="#DejaVuSans-69"/>
      <use x="152.539062" xlink:href="#DejaVuSans-6c"/>
      <use x="180.322266" xlink:href="#DejaVuSans-79"/>
      <use x="237.751953" xlink:href="#DejaVuSans-2d"/>
      <use x="275.710938" xlink:href="#DejaVuSans-6f"/>
      <use x="336.892578" xlink:href="#DejaVuSans-70"/>
      <use x="400.369141" xlink:href="#DejaVuSans-65"/>
      <use x="461.892578" xlink:href="#DejaVuSans-6e"/>
      <use x="525.271484" xlink:href="#DejaVuSans-2d"/>
      <use x="561.355469" xlink:href="#DejaVuSans-72"/>
      <use x="600.21875" xlink:href="#DejaVuSans-65"/>
      <use x="661.742188" xlink:href="#DejaVuSans-62"/>
      <use x="725.21875" xlink:href="#DejaVuSans-61"/>
      <use x="786.498047" xlink:href="#DejaVuSans-6c"/>
     </g>
    </g>
    <g id="line2d_27">
     <path d="M 66.6 232.544062 
L 86.6 232.544062 
" style="fill:none;stroke:#ec5283;stroke-linecap:square;stroke-width:2;"/>
    </g>
    <g id="line2d_28"/>
    <g id="text_20">
     <!-- daily-close-rebal -->
     <g transform="translate(94.6 236.044062)scale(0.1 -0.1)">
      <use xlink:href="#DejaVuSans-64"/>
      <use x="63.476562" xlink:href="#DejaVuSans-61"/>
      <use x="124.755859" xlink:href="#DejaVuSans-69"/>
      <use x="152.539062" xlink:href="#DejaVuSans-6c"/>
      <use x="180.322266" xlink:href="#DejaVuSans-79"/>
      <use x="237.751953" xlink:href="#DejaVuSans-2d"/>
      <use x="273.835938" xlink:href="#DejaVuSans-63"/>
      <use x="328.816406" xlink:href="#DejaVuSans-6c"/>
      <use x="356.599609" xlink:href="#DejaVuSans-6f"/>
      <use x="417.78125" xlink:href="#DejaVuSans-73"/>
      <use x="469.880859" xlink:href="#DejaVuSans-65"/>
      <use x="531.404297" xlink:href="#DejaVuSans-2d"/>
      <use x="567.488281" xlink:href="#DejaVuSans-72"/>
      <use x="606.351562" xlink:href="#DejaVuSans-65"/>
      <use x="667.875" xlink:href="#DejaVuSans-62"/>
      <use x="731.351562" xlink:href="#DejaVuSans-61"/>
      <use x="792.630859" xlink:href="#DejaVuSans-6c"/>
     </g>
    </g>
    <g id="line2d_29">
     <path d="M 66.6 247.222187 
L 86.6 247.222187 
" style="fill:none;stroke:#00ff00;stroke-linecap:square;stroke-opacity:0.9;stroke-width:2;"/>
    </g>
    <g id="line2d_30"/>
    <g id="text_21">
     <!-- trader-baseline -->
     <g transform="translate(94.6 250.722187)scale(0.1 -0.1)">
      <use xlink:href="#DejaVuSans-74"/>
      <use x="39.208984" xlink:href="#DejaVuSans-72"/>
      <use x="80.322266" xlink:href="#DejaVuSans-61"/>
      <use x="141.601562" xlink:href="#DejaVuSans-64"/>
      <use x="205.078125" xlink:href="#DejaVuSans-65"/>
      <use x="266.601562" xlink:href="#DejaVuSans-72"/>
      <use x="301.339844" xlink:href="#DejaVuSans-2d"/>
      <use x="337.423828" xlink:href="#DejaVuSans-62"/>
      <use x="400.900391" xlink:href="#DejaVuSans-61"/>
      <use x="462.179688" xlink:href="#DejaVuSans-73"/>
      <use x="514.279297" xlink:href="#DejaVuSans-65"/>
      <use x="575.802734" xlink:href="#DejaVuSans-6c"/>
      <use x="603.585938" xlink:href="#DejaVuSans-69"/>
      <use x="631.369141" xlink:href="#DejaVuSans-6e"/>
      <use x="694.748047" xlink:href="#DejaVuSans-65"/>
     </g>
    </g>
    <g id="line2d_31">
     <path d="M 66.6 261.900312 
L 86.6 261.900312 
" style="fill:none;stroke:#a5b9cf;stroke-linecap:square;stroke-width:2;"/>
    </g>
    <g id="line2d_32"/>
    <g id="text_22">
     <!-- default-cfg -->
     <g transform="translate(94.6 265.400312)scale(0.1 -0.1)">
      <defs>
       <path d="M 2375 4863 
L 2375 4384 
L 1825 4384 
Q 1516 4384 1395 4259 
Q 1275 4134 1275 3809 
L 1275 3500 
L 2222 3500 
L 2222 3053 
L 1275 3053 
L 1275 0 
L 697 0 
L 697 3053 
L 147 3053 
L 147 3500 
L 697 3500 
L 697 3744 
Q 697 4328 969 4595 
Q 1241 4863 1831 4863 
L 2375 4863 
z
" id="DejaVuSans-66" transform="scale(0.015625)"/>
       <path d="M 544 1381 
L 544 3500 
L 1119 3500 
L 1119 1403 
Q 1119 906 1312 657 
Q 1506 409 1894 409 
Q 2359 409 2629 706 
Q 2900 1003 2900 1516 
L 2900 3500 
L 3475 3500 
L 3475 0 
L 2900 0 
L 2900 538 
Q 2691 219 2414 64 
Q 2138 -91 1772 -91 
Q 1169 -91 856 284 
Q 544 659 544 1381 
z
M 1991 3584 
L 1991 3584 
z
" id="DejaVuSans-75" transform="scale(0.015625)"/>
       <path d="M 2906 1791 
Q 2906 2416 2648 2759 
Q 2391 3103 1925 3103 
Q 1463 3103 1205 2759 
Q 947 2416 947 1791 
Q 947 1169 1205 825 
Q 1463 481 1925 481 
Q 2391 481 2648 825 
Q 2906 1169 2906 1791 
z
M 3481 434 
Q 3481 -459 3084 -895 
Q 2688 -1331 1869 -1331 
Q 1566 -1331 1297 -1286 
Q 1028 -1241 775 -1147 
L 775 -588 
Q 1028 -725 1275 -790 
Q 1522 -856 1778 -856 
Q 2344 -856 2625 -561 
Q 2906 -266 2906 331 
L 2906 616 
Q 2728 306 2450 153 
Q 2172 0 1784 0 
Q 1141 0 747 490 
Q 353 981 353 1791 
Q 353 2603 747 3093 
Q 1141 3584 1784 3584 
Q 2172 3584 2450 3431 
Q 2728 3278 2906 2969 
L 2906 3500 
L 3481 3500 
L 3481 434 
z
" id="DejaVuSans-67" transform="scale(0.015625)"/>
      </defs>
      <use xlink:href="#DejaVuSans-64"/>
      <use x="63.476562" xlink:href="#DejaVuSans-65"/>
      <use x="125" xlink:href="#DejaVuSans-66"/>
      <use x="160.205078" xlink:href="#DejaVuSans-61"/>
      <use x="221.484375" xlink:href="#DejaVuSans-75"/>
      <use x="284.863281" xlink:href="#DejaVuSans-6c"/>
      <use x="312.646484" xlink:href="#DejaVuSans-74"/>
      <use x="351.855469" xlink:href="#DejaVuSans-2d"/>
      <use x="387.939453" xlink:href="#DejaVuSans-63"/>
      <use x="442.919922" xlink:href="#DejaVuSans-66"/>
      <use x="478.125" xlink:href="#DejaVuSans-67"/>
     </g>
    </g>
   </g>
  </g>
 </g>
 <defs>
  <clipPath id="pd9fa06688b">
   <rect height="235.008" width="357.12" x="57.6" y="41.472"/>
  </clipPath>
 </defs>
</svg>
