<?xml version="1.0" encoding="utf-8" standalone="no"?>
<!DOCTYPE svg PUBLIC "-//W3C//DTD SVG 1.1//EN"
  "http://www.w3.org/Graphics/SVG/1.1/DTD/svg11.dtd">
<svg height="345.6pt" version="1.1" viewBox="0 0 460.8 345.6" width="460.8pt" xmlns="http://www.w3.org/2000/svg" xmlns:xlink="http://www.w3.org/1999/xlink">
 <metadata>
  <rdf:RDF xmlns:cc="http://creativecommons.org/ns#" xmlns:dc="http://purl.org/dc/elements/1.1/" xmlns:rdf="http://www.w3.org/1999/02/22-rdf-syntax-ns#">
   <cc:Work>
    <dc:type rdf:resource="http://purl.org/dc/dcmitype/StillImage"/>
    <dc:date>2022-05-24T01:02:07.704879</dc:date>
    <dc:format>image/svg+xml</dc:format>
    <dc:creator>
     <cc:Agent>
      <dc:title>Matplotlib v3.4.3, https://matplotlib.org/</dc:title>
     </cc:Agent>
    </dc:creator>
   </cc:Work>
  </rdf:RDF>
 </metadata>
 <defs>
  <style type="text/css">*{stroke-linecap:butt;stroke-linejoin:round;}</style>
 </defs>
 <g id="figure_1">
  <g id="patch_1">
   <path d="M 0 345.6 
L 460.8 345.6 
L 460.8 0 
L 0 0 
z
" style="fill:#ffffff;"/>
  </g>
  <g id="axes_1">
   <g id="patch_2">
    <path d="M 57.6 276.48 
L 414.72 276.48 
L 414.72 41.472 
L 57.6 41.472 
z
" style="fill:#ffffff;"/>
   </g>
   <g id="matplotlib.axis_1">
    <g id="xtick_1">
     <g id="line2d_1">
      <defs>
       <path d="M 0 0 
L 0 3.5 
" id="mfd2d2d9806" style="stroke:#000000;stroke-width:0.8;"/>
      </defs>
      <g>
       <use style="stroke:#000000;stroke-width:0.8;" x="84.535624" xlink:href="#mfd2d2d9806" y="276.48"/>
      </g>
     </g>
     <g id="text_1">
      <!-- 2021-09 -->
      <g transform="translate(47.310804 310.951846)rotate(-30)scale(0.1 -0.1)">
       <defs>
        <path d="M 1228 531 
L 3431 531 
L 3431 0 
L 469 0 
L 469 531 
Q 828 903 1448 1529 
Q 2069 2156 2228 2338 
Q 2531 2678 2651 2914 
Q 2772 3150 2772 3378 
Q 2772 3750 2511 3984 
Q 2250 4219 1831 4219 
Q 1534 4219 1204 4116 
Q 875 4013 500 3803 
L 500 4441 
Q 881 4594 1212 4672 
Q 1544 4750 1819 4750 
Q 2544 4750 2975 4387 
Q 3406 4025 3406 3419 
Q 3406 3131 3298 2873 
Q 3191 2616 2906 2266 
Q 2828 2175 2409 1742 
Q 1991 1309 1228 531 
z
" id="DejaVuSans-32" transform="scale(0.015625)"/>
        <path d="M 2034 4250 
Q 1547 4250 1301 3770 
Q 1056 3291 1056 2328 
Q 1056 1369 1301 889 
Q 1547 409 2034 409 
Q 2525 409 2770 889 
Q 3016 1369 3016 2328 
Q 3016 3291 2770 3770 
Q 2525 4250 2034 4250 
z
M 2034 4750 
Q 2819 4750 3233 4129 
Q 3647 3509 3647 2328 
Q 3647 1150 3233 529 
Q 2819 -91 2034 -91 
Q 1250 -91 836 529 
Q 422 1150 422 2328 
Q 422 3509 836 4129 
Q 1250 4750 2034 4750 
z
" id="DejaVuSans-30" transform="scale(0.015625)"/>
        <path d="M 794 531 
L 1825 531 
L 1825 4091 
L 703 3866 
L 703 4441 
L 1819 4666 
L 2450 4666 
L 2450 531 
L 3481 531 
L 3481 0 
L 794 0 
L 794 531 
z
" id="DejaVuSans-31" transform="scale(0.015625)"/>
        <path d="M 313 2009 
L 1997 2009 
L 1997 1497 
L 313 1497 
L 313 2009 
z
" id="DejaVuSans-2d" transform="scale(0.015625)"/>
        <path d="M 703 97 
L 703 672 
Q 941 559 1184 500 
Q 1428 441 1663 441 
Q 2288 441 2617 861 
Q 2947 1281 2994 2138 
Q 2813 1869 2534 1725 
Q 2256 1581 1919 1581 
Q 1219 1581 811 2004 
Q 403 2428 403 3163 
Q 403 3881 828 4315 
Q 1253 4750 1959 4750 
Q 2769 4750 3195 4129 
Q 3622 3509 3622 2328 
Q 3622 1225 3098 567 
Q 2575 -91 1691 -91 
Q 1453 -91 1209 -44 
Q 966 3 703 97 
z
M 1959 2075 
Q 2384 2075 2632 2365 
Q 2881 2656 2881 3163 
Q 2881 3666 2632 3958 
Q 2384 4250 1959 4250 
Q 1534 4250 1286 3958 
Q 1038 3666 1038 3163 
Q 1038 2656 1286 2365 
Q 1534 2075 1959 2075 
z
" id="DejaVuSans-39" transform="scale(0.015625)"/>
       </defs>
       <use xlink:href="#DejaVuSans-32"/>
       <use x="63.623047" xlink:href="#DejaVuSans-30"/>
       <use x="127.246094" xlink:href="#DejaVuSans-32"/>
       <use x="190.869141" xlink:href="#DejaVuSans-31"/>
       <use x="254.492188" xlink:href="#DejaVuSans-2d"/>
       <use x="290.576172" xlink:href="#DejaVuSans-30"/>
       <use x="354.199219" xlink:href="#DejaVuSans-39"/>
      </g>
     </g>
    </g>
    <g id="xtick_2">
     <g id="line2d_2">
      <g>
       <use style="stroke:#000000;stroke-width:0.8;" x="120.211948" xlink:href="#mfd2d2d9806" y="276.48"/>
      </g>
     </g>
     <g id="text_2">
      <!-- 2021-10 -->
      <g transform="translate(82.987127 310.951846)rotate(-30)scale(0.1 -0.1)">
       <use xlink:href="#DejaVuSans-32"/>
       <use x="63.623047" xlink:href="#DejaVuSans-30"/>
       <use x="127.246094" xlink:href="#DejaVuSans-32"/>
       <use x="190.869141" xlink:href="#DejaVuSans-31"/>
       <use x="254.492188" xlink:href="#DejaVuSans-2d"/>
       <use x="290.576172" xlink:href="#DejaVuSans-31"/>
       <use x="354.199219" xlink:href="#DejaVuSans-30"/>
      </g>
     </g>
    </g>
    <g id="xtick_3">
     <g id="line2d_3">
      <g>
       <use style="stroke:#000000;stroke-width:0.8;" x="157.077483" xlink:href="#mfd2d2d9806" y="276.48"/>
      </g>
     </g>
     <g id="text_3">
      <!-- 2021-11 -->
      <g transform="translate(119.852662 310.951846)rotate(-30)scale(0.1 -0.1)">
       <use xlink:href="#DejaVuSans-32"/>
       <use x="63.623047" xlink:href="#DejaVuSans-30"/>
       <use x="127.246094" xlink:href="#DejaVuSans-32"/>
       <use x="190.869141" xlink:href="#DejaVuSans-31"/>
       <use x="254.492188" xlink:href="#DejaVuSans-2d"/>
       <use x="290.576172" xlink:href="#DejaVuSans-31"/>
       <use x="354.199219" xlink:href="#DejaVuSans-31"/>
      </g>
     </g>
    </g>
    <g id="xtick_4">
     <g id="line2d_4">
      <g>
       <use style="stroke:#000000;stroke-width:0.8;" x="192.753806" xlink:href="#mfd2d2d9806" y="276.48"/>
      </g>
     </g>
     <g id="text_4">
      <!-- 2021-12 -->
      <g transform="translate(155.528985 310.951846)rotate(-30)scale(0.1 -0.1)">
       <use xlink:href="#DejaVuSans-32"/>
       <use x="63.623047" xlink:href="#DejaVuSans-30"/>
       <use x="127.246094" xlink:href="#DejaVuSans-32"/>
       <use x="190.869141" xlink:href="#DejaVuSans-31"/>
       <use x="254.492188" xlink:href="#DejaVuSans-2d"/>
       <use x="290.576172" xlink:href="#DejaVuSans-31"/>
       <use x="354.199219" xlink:href="#DejaVuSans-32"/>
      </g>
     </g>
    </g>
    <g id="xtick_5">
     <g id="line2d_5">
      <g>
       <use style="stroke:#000000;stroke-width:0.8;" x="229.619341" xlink:href="#mfd2d2d9806" y="276.48"/>
      </g>
     </g>
     <g id="text_5">
      <!-- 2022-01 -->
      <g transform="translate(192.39452 310.951846)rotate(-30)scale(0.1 -0.1)">
       <use xlink:href="#DejaVuSans-32"/>
       <use x="63.623047" xlink:href="#DejaVuSans-30"/>
       <use x="127.246094" xlink:href="#DejaVuSans-32"/>
       <use x="190.869141" xlink:href="#DejaVuSans-32"/>
       <use x="254.492188" xlink:href="#DejaVuSans-2d"/>
       <use x="290.576172" xlink:href="#DejaVuSans-30"/>
       <use x="354.199219" xlink:href="#DejaVuSans-31"/>
      </g>
     </g>
    </g>
    <g id="xtick_6">
     <g id="line2d_6">
      <g>
       <use style="stroke:#000000;stroke-width:0.8;" x="266.484875" xlink:href="#mfd2d2d9806" y="276.48"/>
      </g>
     </g>
     <g id="text_6">
      <!-- 2022-02 -->
      <g transform="translate(229.260054 310.951846)rotate(-30)scale(0.1 -0.1)">
       <use xlink:href="#DejaVuSans-32"/>
       <use x="63.623047" xlink:href="#DejaVuSans-30"/>
       <use x="127.246094" xlink:href="#DejaVuSans-32"/>
       <use x="190.869141" xlink:href="#DejaVuSans-32"/>
       <use x="254.492188" xlink:href="#DejaVuSans-2d"/>
       <use x="290.576172" xlink:href="#DejaVuSans-30"/>
       <use x="354.199219" xlink:href="#DejaVuSans-32"/>
      </g>
     </g>
    </g>
    <g id="xtick_7">
     <g id="line2d_7">
      <g>
       <use style="stroke:#000000;stroke-width:0.8;" x="299.782777" xlink:href="#mfd2d2d9806" y="276.48"/>
      </g>
     </g>
     <g id="text_7">
      <!-- 2022-03 -->
      <g transform="translate(262.557956 310.951846)rotate(-30)scale(0.1 -0.1)">
       <defs>
        <path d="M 2597 2516 
Q 3050 2419 3304 2112 
Q 3559 1806 3559 1356 
Q 3559 666 3084 287 
Q 2609 -91 1734 -91 
Q 1441 -91 1130 -33 
Q 819 25 488 141 
L 488 750 
Q 750 597 1062 519 
Q 1375 441 1716 441 
Q 2309 441 2620 675 
Q 2931 909 2931 1356 
Q 2931 1769 2642 2001 
Q 2353 2234 1838 2234 
L 1294 2234 
L 1294 2753 
L 1863 2753 
Q 2328 2753 2575 2939 
Q 2822 3125 2822 3475 
Q 2822 3834 2567 4026 
Q 2313 4219 1838 4219 
Q 1578 4219 1281 4162 
Q 984 4106 628 3988 
L 628 4550 
Q 988 4650 1302 4700 
Q 1616 4750 1894 4750 
Q 2613 4750 3031 4423 
Q 3450 4097 3450 3541 
Q 3450 3153 3228 2886 
Q 3006 2619 2597 2516 
z
" id="DejaVuSans-33" transform="scale(0.015625)"/>
       </defs>
       <use xlink:href="#DejaVuSans-32"/>
       <use x="63.623047" xlink:href="#DejaVuSans-30"/>
       <use x="127.246094" xlink:href="#DejaVuSans-32"/>
       <use x="190.869141" xlink:href="#DejaVuSans-32"/>
       <use x="254.492188" xlink:href="#DejaVuSans-2d"/>
       <use x="290.576172" xlink:href="#DejaVuSans-30"/>
       <use x="354.199219" xlink:href="#DejaVuSans-33"/>
      </g>
     </g>
    </g>
    <g id="xtick_8">
     <g id="line2d_8">
      <g>
       <use style="stroke:#000000;stroke-width:0.8;" x="336.648312" xlink:href="#mfd2d2d9806" y="276.48"/>
      </g>
     </g>
     <g id="text_8">
      <!-- 2022-04 -->
      <g transform="translate(299.423491 310.951846)rotate(-30)scale(0.1 -0.1)">
       <defs>
        <path d="M 2419 4116 
L 825 1625 
L 2419 1625 
L 2419 4116 
z
M 2253 4666 
L 3047 4666 
L 3047 1625 
L 3713 1625 
L 3713 1100 
L 3047 1100 
L 3047 0 
L 2419 0 
L 2419 1100 
L 313 1100 
L 313 1709 
L 2253 4666 
z
" id="DejaVuSans-34" transform="scale(0.015625)"/>
       </defs>
       <use xlink:href="#DejaVuSans-32"/>
       <use x="63.623047" xlink:href="#DejaVuSans-30"/>
       <use x="127.246094" xlink:href="#DejaVuSans-32"/>
       <use x="190.869141" xlink:href="#DejaVuSans-32"/>
       <use x="254.492188" xlink:href="#DejaVuSans-2d"/>
       <use x="290.576172" xlink:href="#DejaVuSans-30"/>
       <use x="354.199219" xlink:href="#DejaVuSans-34"/>
      </g>
     </g>
    </g>
    <g id="xtick_9">
     <g id="line2d_9">
      <g>
       <use style="stroke:#000000;stroke-width:0.8;" x="372.324635" xlink:href="#mfd2d2d9806" y="276.48"/>
      </g>
     </g>
     <g id="text_9">
      <!-- 2022-05 -->
      <g transform="translate(335.099815 310.951846)rotate(-30)scale(0.1 -0.1)">
       <defs>
        <path d="M 691 4666 
L 3169 4666 
L 3169 4134 
L 1269 4134 
L 1269 2991 
Q 1406 3038 1543 3061 
Q 1681 3084 1819 3084 
Q 2600 3084 3056 2656 
Q 3513 2228 3513 1497 
Q 3513 744 3044 326 
Q 2575 -91 1722 -91 
Q 1428 -91 1123 -41 
Q 819 9 494 109 
L 494 744 
Q 775 591 1075 516 
Q 1375 441 1709 441 
Q 2250 441 2565 725 
Q 2881 1009 2881 1497 
Q 2881 1984 2565 2268 
Q 2250 2553 1709 2553 
Q 1456 2553 1204 2497 
Q 953 2441 691 2322 
L 691 4666 
z
" id="DejaVuSans-35" transform="scale(0.015625)"/>
       </defs>
       <use xlink:href="#DejaVuSans-32"/>
       <use x="63.623047" xlink:href="#DejaVuSans-30"/>
       <use x="127.246094" xlink:href="#DejaVuSans-32"/>
       <use x="190.869141" xlink:href="#DejaVuSans-32"/>
       <use x="254.492188" xlink:href="#DejaVuSans-2d"/>
       <use x="290.576172" xlink:href="#DejaVuSans-30"/>
       <use x="354.199219" xlink:href="#DejaVuSans-35"/>
      </g>
     </g>
    </g>
    <g id="xtick_10">
     <g id="line2d_10">
      <g>
       <use style="stroke:#000000;stroke-width:0.8;" x="409.19017" xlink:href="#mfd2d2d9806" y="276.48"/>
      </g>
     </g>
     <g id="text_10">
      <!-- 2022-06 -->
      <g transform="translate(371.965349 310.951846)rotate(-30)scale(0.1 -0.1)">
       <defs>
        <path d="M 2113 2584 
Q 1688 2584 1439 2293 
Q 1191 2003 1191 1497 
Q 1191 994 1439 701 
Q 1688 409 2113 409 
Q 2538 409 2786 701 
Q 3034 994 3034 1497 
Q 3034 2003 2786 2293 
Q 2538 2584 2113 2584 
z
M 3366 4563 
L 3366 3988 
Q 3128 4100 2886 4159 
Q 2644 4219 2406 4219 
Q 1781 4219 1451 3797 
Q 1122 3375 1075 2522 
Q 1259 2794 1537 2939 
Q 1816 3084 2150 3084 
Q 2853 3084 3261 2657 
Q 3669 2231 3669 1497 
Q 3669 778 3244 343 
Q 2819 -91 2113 -91 
Q 1303 -91 875 529 
Q 447 1150 447 2328 
Q 447 3434 972 4092 
Q 1497 4750 2381 4750 
Q 2619 4750 2861 4703 
Q 3103 4656 3366 4563 
z
" id="DejaVuSans-36" transform="scale(0.015625)"/>
       </defs>
       <use xlink:href="#DejaVuSans-32"/>
       <use x="63.623047" xlink:href="#DejaVuSans-30"/>
       <use x="127.246094" xlink:href="#DejaVuSans-32"/>
       <use x="190.869141" xlink:href="#DejaVuSans-32"/>
       <use x="254.492188" xlink:href="#DejaVuSans-2d"/>
       <use x="290.576172" xlink:href="#DejaVuSans-30"/>
       <use x="354.199219" xlink:href="#DejaVuSans-36"/>
      </g>
     </g>
    </g>
    <g id="text_11">
     <!-- date -->
     <g transform="translate(224.885 324.351346)scale(0.1 -0.1)">
      <defs>
       <path d="M 2906 2969 
L 2906 4863 
L 3481 4863 
L 3481 0 
L 2906 0 
L 2906 525 
Q 2725 213 2448 61 
Q 2172 -91 1784 -91 
Q 1150 -91 751 415 
Q 353 922 353 1747 
Q 353 2572 751 3078 
Q 1150 3584 1784 3584 
Q 2172 3584 2448 3432 
Q 2725 3281 2906 2969 
z
M 947 1747 
Q 947 1113 1208 752 
Q 1469 391 1925 391 
Q 2381 391 2643 752 
Q 2906 1113 2906 1747 
Q 2906 2381 2643 2742 
Q 2381 3103 1925 3103 
Q 1469 3103 1208 2742 
Q 947 2381 947 1747 
z
" id="DejaVuSans-64" transform="scale(0.015625)"/>
       <path d="M 2194 1759 
Q 1497 1759 1228 1600 
Q 959 1441 959 1056 
Q 959 750 1161 570 
Q 1363 391 1709 391 
Q 2188 391 2477 730 
Q 2766 1069 2766 1631 
L 2766 1759 
L 2194 1759 
z
M 3341 1997 
L 3341 0 
L 2766 0 
L 2766 531 
Q 2569 213 2275 61 
Q 1981 -91 1556 -91 
Q 1019 -91 701 211 
Q 384 513 384 1019 
Q 384 1609 779 1909 
Q 1175 2209 1959 2209 
L 2766 2209 
L 2766 2266 
Q 2766 2663 2505 2880 
Q 2244 3097 1772 3097 
Q 1472 3097 1187 3025 
Q 903 2953 641 2809 
L 641 3341 
Q 956 3463 1253 3523 
Q 1550 3584 1831 3584 
Q 2591 3584 2966 3190 
Q 3341 2797 3341 1997 
z
" id="DejaVuSans-61" transform="scale(0.015625)"/>
       <path d="M 1172 4494 
L 1172 3500 
L 2356 3500 
L 2356 3053 
L 1172 3053 
L 1172 1153 
Q 1172 725 1289 603 
Q 1406 481 1766 481 
L 2356 481 
L 2356 0 
L 1766 0 
Q 1100 0 847 248 
Q 594 497 594 1153 
L 594 3053 
L 172 3053 
L 172 3500 
L 594 3500 
L 594 4494 
L 1172 4494 
z
" id="DejaVuSans-74" transform="scale(0.015625)"/>
       <path d="M 3597 1894 
L 3597 1613 
L 953 1613 
Q 991 1019 1311 708 
Q 1631 397 2203 397 
Q 2534 397 2845 478 
Q 3156 559 3463 722 
L 3463 178 
Q 3153 47 2828 -22 
Q 2503 -91 2169 -91 
Q 1331 -91 842 396 
Q 353 884 353 1716 
Q 353 2575 817 3079 
Q 1281 3584 2069 3584 
Q 2775 3584 3186 3129 
Q 3597 2675 3597 1894 
z
M 3022 2063 
Q 3016 2534 2758 2815 
Q 2500 3097 2075 3097 
Q 1594 3097 1305 2825 
Q 1016 2553 972 2059 
L 3022 2063 
z
" id="DejaVuSans-65" transform="scale(0.015625)"/>
      </defs>
      <use xlink:href="#DejaVuSans-64"/>
      <use x="63.476562" xlink:href="#DejaVuSans-61"/>
      <use x="124.755859" xlink:href="#DejaVuSans-74"/>
      <use x="163.964844" xlink:href="#DejaVuSans-65"/>
     </g>
    </g>
   </g>
   <g id="matplotlib.axis_2">
    <g id="ytick_1">
     <g id="line2d_11">
      <defs>
       <path d="M 0 0 
L -3.5 0 
" id="m5f1cda7ab6" style="stroke:#000000;stroke-width:0.8;"/>
      </defs>
      <g>
       <use style="stroke:#000000;stroke-width:0.8;" x="57.6" xlink:href="#m5f1cda7ab6" y="258.894504"/>
      </g>
     </g>
     <g id="text_12">
      <!-- 80000 -->
      <g transform="translate(18.7875 262.693723)scale(0.1 -0.1)">
       <defs>
        <path d="M 2034 2216 
Q 1584 2216 1326 1975 
Q 1069 1734 1069 1313 
Q 1069 891 1326 650 
Q 1584 409 2034 409 
Q 2484 409 2743 651 
Q 3003 894 3003 1313 
Q 3003 1734 2745 1975 
Q 2488 2216 2034 2216 
z
M 1403 2484 
Q 997 2584 770 2862 
Q 544 3141 544 3541 
Q 544 4100 942 4425 
Q 1341 4750 2034 4750 
Q 2731 4750 3128 4425 
Q 3525 4100 3525 3541 
Q 3525 3141 3298 2862 
Q 3072 2584 2669 2484 
Q 3125 2378 3379 2068 
Q 3634 1759 3634 1313 
Q 3634 634 3220 271 
Q 2806 -91 2034 -91 
Q 1263 -91 848 271 
Q 434 634 434 1313 
Q 434 1759 690 2068 
Q 947 2378 1403 2484 
z
M 1172 3481 
Q 1172 3119 1398 2916 
Q 1625 2713 2034 2713 
Q 2441 2713 2670 2916 
Q 2900 3119 2900 3481 
Q 2900 3844 2670 4047 
Q 2441 4250 2034 4250 
Q 1625 4250 1398 4047 
Q 1172 3844 1172 3481 
z
" id="DejaVuSans-38" transform="scale(0.015625)"/>
       </defs>
       <use xlink:href="#DejaVuSans-38"/>
       <use x="63.623047" xlink:href="#DejaVuSans-30"/>
       <use x="127.246094" xlink:href="#DejaVuSans-30"/>
       <use x="190.869141" xlink:href="#DejaVuSans-30"/>
       <use x="254.492188" xlink:href="#DejaVuSans-30"/>
      </g>
     </g>
    </g>
    <g id="ytick_2">
     <g id="line2d_12">
      <g>
       <use style="stroke:#000000;stroke-width:0.8;" x="57.6" xlink:href="#m5f1cda7ab6" y="229.72083"/>
      </g>
     </g>
     <g id="text_13">
      <!-- 85000 -->
      <g transform="translate(18.7875 233.520048)scale(0.1 -0.1)">
       <use xlink:href="#DejaVuSans-38"/>
       <use x="63.623047" xlink:href="#DejaVuSans-35"/>
       <use x="127.246094" xlink:href="#DejaVuSans-30"/>
       <use x="190.869141" xlink:href="#DejaVuSans-30"/>
       <use x="254.492188" xlink:href="#DejaVuSans-30"/>
      </g>
     </g>
    </g>
    <g id="ytick_3">
     <g id="line2d_13">
      <g>
       <use style="stroke:#000000;stroke-width:0.8;" x="57.6" xlink:href="#m5f1cda7ab6" y="200.547155"/>
      </g>
     </g>
     <g id="text_14">
      <!-- 90000 -->
      <g transform="translate(18.7875 204.346374)scale(0.1 -0.1)">
       <use xlink:href="#DejaVuSans-39"/>
       <use x="63.623047" xlink:href="#DejaVuSans-30"/>
       <use x="127.246094" xlink:href="#DejaVuSans-30"/>
       <use x="190.869141" xlink:href="#DejaVuSans-30"/>
       <use x="254.492188" xlink:href="#DejaVuSans-30"/>
      </g>
     </g>
    </g>
    <g id="ytick_4">
     <g id="line2d_14">
      <g>
       <use style="stroke:#000000;stroke-width:0.8;" x="57.6" xlink:href="#m5f1cda7ab6" y="171.373481"/>
      </g>
     </g>
     <g id="text_15">
      <!-- 95000 -->
      <g transform="translate(18.7875 175.1727)scale(0.1 -0.1)">
       <use xlink:href="#DejaVuSans-39"/>
       <use x="63.623047" xlink:href="#DejaVuSans-35"/>
       <use x="127.246094" xlink:href="#DejaVuSans-30"/>
       <use x="190.869141" xlink:href="#DejaVuSans-30"/>
       <use x="254.492188" xlink:href="#DejaVuSans-30"/>
      </g>
     </g>
    </g>
    <g id="ytick_5">
     <g id="line2d_15">
      <g>
       <use style="stroke:#000000;stroke-width:0.8;" x="57.6" xlink:href="#m5f1cda7ab6" y="142.199807"/>
      </g>
     </g>
     <g id="text_16">
      <!-- 100000 -->
      <g transform="translate(12.425 145.999026)scale(0.1 -0.1)">
       <use xlink:href="#DejaVuSans-31"/>
       <use x="63.623047" xlink:href="#DejaVuSans-30"/>
       <use x="127.246094" xlink:href="#DejaVuSans-30"/>
       <use x="190.869141" xlink:href="#DejaVuSans-30"/>
       <use x="254.492188" xlink:href="#DejaVuSans-30"/>
       <use x="318.115234" xlink:href="#DejaVuSans-30"/>
      </g>
     </g>
    </g>
    <g id="ytick_6">
     <g id="line2d_16">
      <g>
       <use style="stroke:#000000;stroke-width:0.8;" x="57.6" xlink:href="#m5f1cda7ab6" y="113.026133"/>
      </g>
     </g>
     <g id="text_17">
      <!-- 105000 -->
      <g transform="translate(12.425 116.825351)scale(0.1 -0.1)">
       <use xlink:href="#DejaVuSans-31"/>
       <use x="63.623047" xlink:href="#DejaVuSans-30"/>
       <use x="127.246094" xlink:href="#DejaVuSans-35"/>
       <use x="190.869141" xlink:href="#DejaVuSans-30"/>
       <use x="254.492188" xlink:href="#DejaVuSans-30"/>
       <use x="318.115234" xlink:href="#DejaVuSans-30"/>
      </g>
     </g>
    </g>
    <g id="ytick_7">
     <g id="line2d_17">
      <g>
       <use style="stroke:#000000;stroke-width:0.8;" x="57.6" xlink:href="#m5f1cda7ab6" y="83.852458"/>
      </g>
     </g>
     <g id="text_18">
      <!-- 110000 -->
      <g transform="translate(12.425 87.651677)scale(0.1 -0.1)">
       <use xlink:href="#DejaVuSans-31"/>
       <use x="63.623047" xlink:href="#DejaVuSans-31"/>
       <use x="127.246094" xlink:href="#DejaVuSans-30"/>
       <use x="190.869141" xlink:href="#DejaVuSans-30"/>
       <use x="254.492188" xlink:href="#DejaVuSans-30"/>
       <use x="318.115234" xlink:href="#DejaVuSans-30"/>
      </g>
     </g>
    </g>
    <g id="ytick_8">
     <g id="line2d_18">
      <g>
       <use style="stroke:#000000;stroke-width:0.8;" x="57.6" xlink:href="#m5f1cda7ab6" y="54.678784"/>
      </g>
     </g>
     <g id="text_19">
      <!-- 115000 -->
      <g transform="translate(12.425 58.478003)scale(0.1 -0.1)">
       <use xlink:href="#DejaVuSans-31"/>
       <use x="63.623047" xlink:href="#DejaVuSans-31"/>
       <use x="127.246094" xlink:href="#DejaVuSans-35"/>
       <use x="190.869141" xlink:href="#DejaVuSans-30"/>
       <use x="254.492188" xlink:href="#DejaVuSans-30"/>
       <use x="318.115234" xlink:href="#DejaVuSans-30"/>
      </g>
     </g>
    </g>
   </g>
   <g id="line2d_19">
    <path clip-path="url(#p6b18bffd35)" d="M 73.832727 142.199807 
L 75.021938 142.526278 
L 76.211149 140.188769 
L 77.40036 143.414434 
L 78.58957 138.280693 
L 82.157203 134.234519 
L 83.346414 133.412325 
L 84.535624 135.027957 
L 85.724835 134.318195 
L 86.914046 134.609992 
L 91.670889 134.410013 
L 92.8601 136.983357 
L 94.049311 138.416405 
L 95.238521 143.66163 
L 98.806154 139.259743 
L 99.995365 147.104635 
L 101.184575 143.276473 
L 102.373786 143.8839 
L 103.562997 149.724497 
L 107.130629 160.074629 
L 108.31984 161.279573 
L 109.509051 156.993141 
L 110.698262 147.966235 
L 111.887473 142.926017 
L 115.455105 138.649185 
L 116.644316 150.951219 
L 117.833526 149.13691 
L 119.022737 153.348742 
L 120.211948 144.925966 
L 123.77958 155.488313 
L 124.968791 146.687571 
L 126.158002 144.74427 
L 127.347213 144.066369 
L 128.536424 143.579833 
L 132.104056 142.706524 
L 133.293267 142.29205 
L 134.482478 149.790729 
L 135.671688 138.595314 
L 136.860899 137.710762 
L 140.428531 132.948865 
L 141.617742 126.636038 
L 142.806953 124.693852 
L 143.996164 134.914991 
L 145.185375 141.930524 
L 148.753007 141.868328 
L 149.942218 147.036584 
L 151.131429 148.127207 
L 152.320639 140.533029 
L 153.50985 148.289753 
L 157.077483 136.53441 
L 158.266693 136.518792 
L 159.455904 130.642098 
L 160.645115 138.042133 
L 161.834326 134.109135 
L 165.401958 133.093361 
L 166.591169 140.461192 
L 167.78038 140.799916 
L 168.96959 145.484547 
L 170.158801 141.040622 
L 173.726434 139.307616 
L 174.915644 138.99967 
L 176.104855 141.938912 
L 177.294066 143.863856 
L 178.483277 144.355482 
L 182.050909 140.762859 
L 183.24012 135.708046 
L 184.429331 136.070422 
L 186.807752 136.157466 
L 190.375385 140.988021 
L 191.564595 152.789871 
L 192.753806 160.548334 
L 193.943017 153.353037 
L 195.132228 156.8138 
L 198.69986 146.098012 
L 199.889071 135.702567 
L 201.078282 131.373042 
L 202.267493 131.062262 
L 203.456703 128.984487 
L 207.024336 134.989171 
L 208.213546 131.503062 
L 209.402757 128.505044 
L 210.591968 125.881818 
L 211.781179 132.998809 
L 215.348811 140.593866 
L 216.538022 127.37701 
L 217.727233 124.253146 
L 218.916444 119.235518 
L 223.673287 111.598243 
L 224.862498 111.766159 
L 226.051708 111.404484 
L 227.240919 112.584429 
L 228.43013 115.052074 
L 231.997762 105.894074 
L 233.186973 98.558844 
L 234.376184 114.702029 
L 235.565395 109.548854 
L 236.754605 107.320644 
L 240.322238 106.944299 
L 241.511449 102.005327 
L 242.700659 100.593539 
L 243.88987 107.777966 
L 245.079081 106.531383 
L 251.025135 122.481255 
L 252.214346 129.763484 
L 253.403556 143.574474 
L 256.971189 142.426367 
L 258.1604 148.771825 
L 259.34961 149.079745 
L 260.538821 153.018244 
L 261.728032 137.929808 
L 265.295664 125.664405 
L 266.484875 119.586811 
L 267.674086 110.581536 
L 268.863297 149.445485 
L 270.052507 148.710825 
L 273.62014 158.477905 
L 274.809351 159.723451 
L 275.998561 147.032798 
L 277.187772 157.446652 
L 278.376983 169.962676 
L 281.944615 174.279101 
L 283.133826 167.225715 
L 284.323037 170.238109 
L 285.512248 180.845181 
L 286.701459 184.190714 
L 291.458302 190.057611 
L 292.647512 197.58373 
L 293.836723 185.626106 
L 295.025934 175.756999 
L 298.593566 177.203245 
L 299.782777 185.92616 
L 300.971988 175.06078 
L 302.161199 176.821915 
L 303.35041 181.35633 
L 306.918042 203.954503 
L 308.107253 204.03439 
L 309.296464 182.326627 
L 310.485674 189.138089 
L 311.674885 198.762267 
L 315.242517 200.592332 
L 316.431728 190.056629 
L 317.620939 173.167332 
L 318.81015 166.254417 
L 319.999361 156.575899 
L 323.566993 159.233294 
L 324.756204 148.344655 
L 325.945415 154.283323 
L 327.134625 144.250552 
L 328.323836 138.749195 
L 331.891469 136.897702 
L 333.080679 131.555891 
L 334.26989 133.206728 
L 335.459101 147.022389 
L 340.215944 137.027412 
L 341.405155 143.664578 
L 342.594366 153.11239 
L 344.972787 155.083147 
L 349.72963 169.225053 
L 350.918841 166.646271 
L 352.108052 176.541478 
L 356.864895 172.691481 
L 358.054106 163.044054 
L 359.243317 170.171252 
L 360.432527 182.774873 
L 361.621738 200.428224 
L 365.189371 195.665448 
L 366.378581 205.249514 
L 367.567792 211.538047 
L 368.757003 177.448489 
L 369.946214 193.915653 
L 373.513846 186.165425 
L 374.703057 181.290236 
L 375.892268 158.239727 
L 377.081479 183.266052 
L 378.270689 185.489203 
L 381.838322 201.127866 
L 383.027532 198.518195 
L 384.216743 208.951365 
L 385.405954 212.968157 
L 386.595165 199.855947 
L 390.162797 203.908327 
L 391.352008 193.916884 
L 392.541219 214.892832 
L 393.73043 220.758819 
L 394.91964 222.884114 
L 398.487273 225.536107 
L 398.487273 225.536107 
" style="fill:none;stroke:#0000ff;stroke-linecap:square;stroke-opacity:0.9;stroke-width:2;"/>
   </g>
   <g id="line2d_20">
    <path clip-path="url(#p6b18bffd35)" d="M 73.832727 142.199807 
L 75.021938 138.793168 
L 76.211149 136.344157 
L 77.40036 139.803592 
L 78.58957 132.914256 
L 82.157203 131.185251 
L 83.346414 130.054688 
L 84.535624 130.031225 
L 85.724835 130.99382 
L 86.914046 130.846926 
L 91.670889 129.767646 
L 92.8601 132.355889 
L 94.049311 133.340717 
L 95.238521 139.612806 
L 98.806154 135.140299 
L 99.995365 141.223216 
L 101.184575 138.350234 
L 102.373786 139.855225 
L 103.562997 147.426676 
L 107.130629 156.609469 
L 108.31984 156.837556 
L 109.509051 153.543428 
L 110.698262 146.117645 
L 111.887473 141.943318 
L 115.455105 138.065364 
L 116.644316 149.80763 
L 117.833526 148.886001 
L 119.022737 154.615936 
L 120.211948 145.882582 
L 123.77958 152.355789 
L 124.968791 143.905963 
L 127.347213 141.145138 
L 128.536424 137.947346 
L 132.104056 141.793775 
L 133.293267 146.052554 
L 134.482478 147.625284 
L 135.671688 133.660885 
L 136.860899 129.540168 
L 140.428531 128.247723 
L 141.617742 123.027452 
L 142.806953 119.877002 
L 143.996164 127.334355 
L 145.185375 130.329059 
L 148.753007 132.293047 
L 151.131429 138.703153 
L 152.320639 130.608727 
L 153.50985 129.183654 
L 157.077483 128.815567 
L 158.266693 126.68447 
L 159.455904 122.487666 
L 160.645115 123.912422 
L 161.834326 123.609512 
L 165.401958 123.048909 
L 166.591169 127.443201 
L 167.78038 130.700406 
L 168.96959 130.46401 
L 170.158801 126.792531 
L 173.726434 125.431789 
L 174.915644 126.509074 
L 176.104855 127.220863 
L 177.294066 127.299877 
L 178.483277 129.48444 
L 182.050909 126.468772 
L 183.24012 120.914607 
L 184.429331 120.560649 
L 186.807752 136.272901 
L 190.375385 129.608348 
L 191.564595 142.253793 
L 192.753806 148.699355 
L 193.943017 140.819611 
L 195.132228 145.694129 
L 198.69986 136.842845 
L 199.889071 126.547995 
L 201.078282 123.178813 
L 202.267493 123.641711 
L 203.456703 120.133509 
L 207.024336 125.757716 
L 208.213546 125.815111 
L 209.402757 121.183945 
L 210.591968 120.66676 
L 211.781179 128.676992 
L 215.348811 135.425602 
L 216.538022 124.016795 
L 217.727233 120.670844 
L 218.916444 115.476685 
L 223.673287 107.724805 
L 224.862498 108.036806 
L 226.051708 107.833049 
L 227.240919 108.233552 
L 228.43013 110.874468 
L 231.997762 104.206061 
L 233.186973 98.359064 
L 234.376184 111.761187 
L 235.565395 109.186648 
L 236.754605 106.226844 
L 240.322238 106.564688 
L 241.511449 103.151424 
L 242.700659 102.868055 
L 243.88987 107.426173 
L 245.079081 107.752721 
L 249.835924 121.053962 
L 251.025135 127.38306 
L 252.214346 132.82606 
L 253.403556 144.994617 
L 256.971189 145.931567 
L 258.1604 144.266432 
L 259.34961 145.683737 
L 260.538821 150.816072 
L 261.728032 136.534604 
L 265.295664 127.675145 
L 266.484875 120.095923 
L 267.674086 110.728062 
L 268.863297 138.135833 
L 270.052507 133.223123 
L 273.62014 136.87517 
L 274.809351 133.305717 
L 275.998561 127.914595 
L 277.187772 137.588759 
L 278.376983 149.863339 
L 281.944615 154.965721 
L 283.133826 148.402999 
L 284.323037 149.536825 
L 285.512248 160.747999 
L 286.701459 163.728239 
L 291.458302 168.378562 
L 292.647512 176.158365 
L 293.836723 173.413671 
L 295.025934 159.685545 
L 298.593566 165.623483 
L 299.782777 177.113907 
L 300.971988 163.768235 
L 302.161199 164.878284 
L 303.35041 173.342212 
L 306.918042 192.7223 
L 308.107253 195.59716 
L 309.296464 175.968066 
L 310.485674 183.017151 
L 311.674885 188.935928 
L 315.242517 189.502024 
L 316.431728 180.452345 
L 317.620939 167.863088 
L 319.999361 156.550761 
L 323.566993 156.253742 
L 324.756204 147.171652 
L 325.945415 152.828288 
L 327.134625 143.941898 
L 328.323836 137.555249 
L 331.891469 137.178544 
L 333.080679 133.866736 
L 334.26989 134.604095 
L 335.459101 145.932721 
L 336.648312 143.532516 
L 340.215944 139.250547 
L 341.405155 145.254909 
L 342.594366 152.241652 
L 343.783576 152.942526 
L 344.972787 152.152297 
L 349.72963 164.108084 
L 350.918841 161.760468 
L 352.108052 170.02652 
L 356.864895 166.759559 
L 358.054106 158.734586 
L 359.243317 156.183876 
L 360.432527 163.97485 
L 361.621738 180.4802 
L 365.189371 178.75915 
L 366.378581 188.290186 
L 367.567792 189.335471 
L 368.757003 171.43649 
L 369.946214 188.618628 
L 373.513846 185.162175 
L 374.703057 180.855224 
L 375.892268 157.596068 
L 377.081479 177.469844 
L 378.270689 176.358365 
L 381.838322 192.086701 
L 383.027532 196.368782 
L 384.216743 202.450866 
L 385.405954 205.640097 
L 386.595165 197.494751 
L 390.162797 199.224735 
L 391.352008 188.05478 
L 392.541219 208.842414 
L 393.73043 215.834125 
L 394.91964 220.657726 
L 398.487273 206.644313 
L 398.487273 206.644313 
" style="fill:none;stroke:#ff0000;stroke-linecap:square;stroke-opacity:0.9;stroke-width:2;"/>
   </g>
   <g id="line2d_21">
    <path clip-path="url(#p6b18bffd35)" d="M 73.832727 142.199807 
L 76.211149 136.506775 
L 77.40036 140.230576 
L 78.58957 134.714072 
L 82.157203 130.838602 
L 83.346414 129.891828 
L 84.535624 130.845788 
L 85.724835 130.18719 
L 86.914046 130.696708 
L 91.670889 130.710893 
L 92.8601 132.68874 
L 94.049311 134.261038 
L 95.238521 139.390808 
L 98.806154 134.395597 
L 99.995365 142.409859 
L 101.184575 138.497856 
L 102.373786 139.786888 
L 103.562997 144.8868 
L 107.130629 154.862973 
L 108.31984 156.143859 
L 109.509051 152.039485 
L 110.698262 143.014862 
L 111.887473 137.71907 
L 115.455105 132.677916 
L 116.644316 145.253591 
L 117.833526 143.242598 
L 119.022737 147.947338 
L 120.211948 138.466559 
L 123.77958 149.684315 
L 124.968791 141.013013 
L 126.158002 138.541599 
L 127.347213 137.166536 
L 128.536424 134.479523 
L 132.104056 137.892303 
L 133.293267 142.435093 
L 134.482478 143.245147 
L 135.671688 132.130692 
L 136.860899 131.35562 
L 140.428531 126.024304 
L 141.617742 120.219632 
L 142.806953 117.7419 
L 143.996164 127.787995 
L 145.185375 135.134853 
L 148.753007 134.738453 
L 149.942218 140.031474 
L 151.131429 141.494435 
L 152.320639 133.8125 
L 153.50985 133.174431 
L 157.077483 129.936676 
L 158.266693 129.054832 
L 159.455904 124.323526 
L 160.645115 123.73134 
L 161.834326 119.523327 
L 165.401958 118.704037 
L 166.591169 126.277696 
L 167.78038 131.004549 
L 168.96959 131.39213 
L 170.158801 126.43762 
L 173.726434 124.334308 
L 174.915644 127.546918 
L 176.104855 128.02803 
L 177.294066 129.545143 
L 178.483277 129.54522 
L 182.050909 125.717843 
L 183.24012 120.764154 
L 184.429331 121.289437 
L 186.807752 134.827487 
L 190.375385 127.338923 
L 191.564595 139.069509 
L 192.753806 146.709026 
L 193.943017 140.011041 
L 195.132228 143.72607 
L 198.69986 132.990809 
L 199.889071 122.283652 
L 201.078282 117.625987 
L 202.267493 117.047359 
L 203.456703 115.099607 
L 207.024336 120.596055 
L 208.213546 117.659733 
L 209.402757 114.320243 
L 210.591968 111.999339 
L 211.781179 119.48869 
L 215.348811 127.344432 
L 216.538022 113.678783 
L 217.727233 110.894232 
L 218.916444 105.055006 
L 223.673287 97.482441 
L 224.862498 97.630874 
L 226.051708 97.486659 
L 227.240919 98.564358 
L 228.43013 101.220031 
L 231.997762 91.8425 
L 233.186973 83.798688 
L 234.376184 100.176665 
L 235.565395 94.29283 
L 236.754605 91.475459 
L 240.322238 90.514404 
L 241.511449 84.520849 
L 242.700659 83.32435 
L 243.88987 91.369044 
L 245.079081 89.480275 
L 251.025135 105.671823 
L 252.214346 112.776622 
L 253.403556 127.342171 
L 256.971189 126.240945 
L 258.1604 133.35938 
L 259.34961 133.388484 
L 260.538821 137.145901 
L 261.728032 121.585763 
L 265.295664 109.067921 
L 266.484875 102.719078 
L 267.674086 92.480815 
L 268.863297 134.624034 
L 270.052507 134.336468 
L 273.62014 144.338902 
L 274.809351 145.635672 
L 275.998561 132.740769 
L 277.187772 143.333408 
L 278.376983 156.037274 
L 281.944615 160.262351 
L 283.133826 152.980784 
L 284.323037 156.178171 
L 285.512248 166.930541 
L 286.701459 169.961052 
L 291.458302 175.803844 
L 292.647512 183.544536 
L 293.836723 170.799612 
L 295.025934 160.423032 
L 298.593566 162.445523 
L 299.782777 171.460268 
L 300.971988 159.649939 
L 302.161199 162.286528 
L 303.35041 170.596298 
L 306.918042 194.2143 
L 308.107253 191.692867 
L 309.296464 168.116329 
L 311.674885 185.507898 
L 315.242517 185.724092 
L 316.431728 175.027309 
L 317.620939 157.047506 
L 318.81015 150.384956 
L 319.999361 141.628044 
L 323.566993 144.202168 
L 324.756204 131.772478 
L 325.945415 138.481442 
L 327.134625 129.450883 
L 328.323836 123.079531 
L 331.891469 122.534904 
L 333.080679 117.916715 
L 334.26989 120.481231 
L 335.459101 136.110396 
L 336.648312 135.037917 
L 340.215944 129.151306 
L 341.405155 136.680011 
L 342.594366 145.909115 
L 343.783576 147.758272 
L 344.972787 147.931228 
L 349.72963 160.695571 
L 350.918841 157.768748 
L 352.108052 168.639383 
L 356.864895 162.579822 
L 358.054106 152.452909 
L 359.243317 155.606904 
L 360.432527 168.059698 
L 361.621738 187.022751 
L 365.189371 183.536801 
L 366.378581 197.361296 
L 367.567792 203.105704 
L 368.757003 173.524409 
L 369.946214 190.66114 
L 373.513846 181.230568 
L 374.703057 174.948777 
L 375.892268 149.585528 
L 377.081479 173.914864 
L 378.270689 176.336531 
L 381.838322 192.275283 
L 383.027532 191.990575 
L 384.216743 202.417528 
L 385.405954 205.819508 
L 386.595165 195.431832 
L 390.162797 198.720075 
L 391.352008 186.233512 
L 392.541219 207.930425 
L 393.73043 214.156303 
L 394.91964 218.900556 
L 398.487273 202.473102 
L 398.487273 202.473102 
" style="fill:none;stroke:#ff8040;stroke-linecap:square;stroke-opacity:0.9;stroke-width:2;"/>
   </g>
   <g id="line2d_22">
    <path clip-path="url(#p6b18bffd35)" d="M 73.832727 142.78328 
L 75.021938 141.29071 
L 76.211149 140.48078 
L 77.40036 144.368441 
L 78.58957 139.77902 
L 82.157203 138.69004 
L 83.346414 137.819778 
L 84.535624 138.512787 
L 85.724835 139.835985 
L 86.914046 139.604631 
L 91.670889 138.495692 
L 92.8601 141.603349 
L 94.049311 143.026903 
L 95.238521 153.011384 
L 98.806154 149.947915 
L 99.995365 155.779159 
L 101.184575 153.351912 
L 102.373786 155.401314 
L 103.562997 163.56693 
L 107.130629 172.474358 
L 108.31984 171.382618 
L 109.509051 169.204748 
L 110.698262 161.815368 
L 111.887473 157.361439 
L 115.455105 152.704336 
L 116.644316 164.435228 
L 117.833526 163.453172 
L 119.022737 168.434143 
L 120.211948 160.900642 
L 123.77958 172.942296 
L 124.968791 167.292599 
L 126.158002 164.872521 
L 127.347213 164.2976 
L 128.536424 162.246002 
L 132.104056 166.267476 
L 133.293267 171.107248 
L 134.482478 172.705521 
L 135.671688 158.853412 
L 136.860899 153.995415 
L 140.428531 149.301095 
L 141.617742 144.945408 
L 142.806953 141.588803 
L 145.185375 155.177403 
L 148.753007 155.064409 
L 149.942218 158.053344 
L 151.131429 157.293146 
L 152.320639 149.872573 
L 153.50985 150.395151 
L 157.077483 147.132052 
L 158.266693 145.277754 
L 159.455904 140.930245 
L 160.645115 142.415183 
L 161.834326 143.391949 
L 165.401958 142.293569 
L 167.78038 149.970795 
L 168.96959 149.607279 
L 170.158801 146.092972 
L 173.726434 144.508238 
L 174.915644 147.74512 
L 176.104855 147.478299 
L 177.294066 152.410081 
L 178.483277 153.397589 
L 182.050909 147.049392 
L 183.24012 140.84083 
L 184.429331 140.460894 
L 186.807752 156.70174 
L 190.375385 151.304502 
L 191.564595 164.790181 
L 192.753806 171.35918 
L 193.943017 166.861676 
L 195.132228 173.085939 
L 198.69986 164.23199 
L 199.889071 154.800982 
L 201.078282 153.666654 
L 202.267493 154.191619 
L 203.456703 151.142684 
L 207.024336 154.424095 
L 208.213546 154.214166 
L 209.402757 152.51545 
L 210.591968 153.959006 
L 211.781179 160.260627 
L 215.348811 167.676507 
L 216.538022 155.940088 
L 217.727233 153.816293 
L 218.916444 149.551003 
L 223.673287 144.336637 
L 224.862498 146.992932 
L 226.051708 146.772002 
L 227.240919 147.174084 
L 228.43013 149.04537 
L 231.997762 141.611895 
L 233.186973 137.911965 
L 234.376184 151.673703 
L 235.565395 149.31664 
L 236.754605 146.08405 
L 240.322238 147.852554 
L 241.511449 142.407489 
L 242.700659 142.53749 
L 243.88987 146.235716 
L 245.079081 146.245047 
L 251.025135 161.019257 
L 252.214346 165.471763 
L 253.403556 175.846437 
L 256.971189 176.071127 
L 258.1604 178.256665 
L 259.34961 177.122782 
L 260.538821 181.59573 
L 261.728032 169.438163 
L 265.295664 157.589683 
L 266.484875 152.044475 
L 267.674086 143.426769 
L 268.863297 184.063964 
L 270.052507 178.855018 
L 273.62014 185.682178 
L 274.809351 183.376373 
L 275.998561 177.981848 
L 277.187772 187.153461 
L 278.376983 198.194378 
L 281.944615 203.652299 
L 283.133826 197.857532 
L 284.323037 200.942688 
L 285.512248 211.449662 
L 286.701459 214.35766 
L 291.458302 220.206424 
L 292.647512 227.337097 
L 293.836723 223.354997 
L 295.025934 212.185215 
L 298.593566 217.430692 
L 299.782777 226.243275 
L 300.971988 214.872252 
L 302.161199 216.306811 
L 303.35041 224.742017 
L 306.918042 244.933964 
L 308.107253 248.383399 
L 309.296464 230.285744 
L 310.485674 237.815321 
L 311.674885 243.580467 
L 315.242517 248.220592 
L 316.431728 238.967185 
L 317.620939 226.368566 
L 318.81015 219.844704 
L 319.999361 214.17686 
L 323.566993 213.765301 
L 324.756204 202.978624 
L 325.945415 207.238557 
L 327.134625 196.300486 
L 328.323836 192.351629 
L 331.891469 191.226699 
L 333.080679 187.52643 
L 334.26989 187.976299 
L 335.459101 199.942211 
L 336.648312 197.880409 
L 340.215944 198.010047 
L 342.594366 207.486512 
L 343.783576 208.012243 
L 344.972787 206.697414 
L 348.54042 215.69559 
L 349.72963 220.332308 
L 350.918841 218.52357 
L 352.108052 224.892071 
L 356.864895 220.114972 
L 358.054106 214.164883 
L 359.243317 213.397974 
L 360.432527 217.45187 
L 361.621738 233.359749 
L 365.189371 232.091113 
L 366.378581 243.363992 
L 367.567792 245.130643 
L 368.757003 215.933868 
L 369.946214 231.14677 
L 373.513846 228.05672 
L 374.703057 223.644717 
L 375.892268 200.310176 
L 377.081479 220.941627 
L 378.270689 222.541809 
L 383.027532 240.670643 
L 384.216743 246.572602 
L 385.405954 250.248422 
L 386.595165 241.775148 
L 390.162797 242.458434 
L 391.352008 233.415766 
L 392.541219 252.727799 
L 393.73043 259.732546 
L 394.91964 265.797818 
L 398.487273 250.741385 
L 398.487273 250.741385 
" style="fill:none;stroke:#0d0d0d;stroke-linecap:square;stroke-opacity:0.25;stroke-width:2;"/>
   </g>
   <g id="line2d_23">
    <path clip-path="url(#p6b18bffd35)" d="M 73.832727 141.616333 
L 76.211149 132.513003 
L 77.40036 135.807077 
L 78.58957 128.112803 
L 83.346414 119.346694 
L 84.535624 120.380005 
L 85.724835 120.93765 
L 91.670889 118.299459 
L 92.8601 121.485549 
L 94.049311 123.091635 
L 95.238521 128.029288 
L 98.806154 123.76798 
L 99.995365 128.808077 
L 101.184575 126.191143 
L 102.373786 126.379701 
L 103.562997 133.937969 
L 107.130629 143.592802 
L 108.31984 142.214523 
L 109.509051 137.562167 
L 111.887473 125.549012 
L 115.455105 121.020749 
L 116.644316 133.770492 
L 117.833526 132.974779 
L 119.022737 138.513755 
L 120.211948 128.356952 
L 123.77958 137.897911 
L 124.968791 129.022359 
L 126.158002 127.318094 
L 127.347213 127.400197 
L 128.536424 124.948445 
L 132.104056 127.830763 
L 133.293267 132.420554 
L 134.482478 132.927386 
L 135.671688 117.311959 
L 136.860899 110.123561 
L 140.428531 108.517799 
L 141.617742 102.527952 
L 142.806953 98.335765 
L 143.996164 99.523883 
L 145.185375 97.31746 
L 148.753007 98.575254 
L 149.942218 100.253149 
L 151.131429 105.06477 
L 152.320639 96.034132 
L 153.50985 95.68321 
L 157.077483 97.641237 
L 158.266693 96.302912 
L 159.455904 89.030833 
L 160.645115 90.450502 
L 161.834326 89.973032 
L 165.401958 89.410416 
L 166.591169 94.148884 
L 167.78038 97.150827 
L 168.96959 97.175963 
L 170.158801 90.218101 
L 173.726434 87.181289 
L 174.915644 91.475359 
L 176.104855 91.624952 
L 177.294066 92.038252 
L 178.483277 91.730428 
L 182.050909 89.46407 
L 183.24012 84.016255 
L 184.429331 82.366388 
L 186.807752 99.188219 
L 190.375385 91.668835 
L 191.564595 100.722417 
L 192.753806 111.904336 
L 193.943017 104.905642 
L 195.132228 109.016881 
L 198.69986 99.74448 
L 199.889071 85.522424 
L 201.078282 80.587985 
L 202.267493 81.207381 
L 203.456703 77.85965 
L 207.024336 87.59233 
L 208.213546 86.906141 
L 209.402757 84.491877 
L 210.591968 80.620663 
L 211.781179 89.597996 
L 215.348811 95.800684 
L 216.538022 79.560949 
L 217.727233 76.275331 
L 218.916444 69.990872 
L 223.673287 61.970857 
L 226.051708 63.067196 
L 228.43013 66.227796 
L 231.997762 58.483987 
L 233.186973 52.355982 
L 234.376184 63.790943 
L 235.565395 63.021333 
L 236.754605 58.56754 
L 240.322238 59.848985 
L 241.511449 57.102719 
L 242.700659 58.532833 
L 243.88987 58.213867 
L 245.079081 60.124881 
L 251.025135 76.558854 
L 252.214346 82.582068 
L 253.403556 99.970565 
L 256.971189 101.039663 
L 258.1604 93.68112 
L 259.34961 95.273359 
L 260.538821 101.457656 
L 261.728032 81.156548 
L 265.295664 73.151343 
L 266.484875 66.360946 
L 267.674086 52.154182 
L 268.863297 83.083366 
L 270.052507 77.114163 
L 273.62014 84.133202 
L 274.809351 81.46043 
L 275.998561 73.186928 
L 278.376983 95.484152 
L 281.944615 99.219447 
L 283.133826 91.220818 
L 284.323037 92.295866 
L 285.512248 108.033823 
L 286.701459 110.197176 
L 291.458302 116.23522 
L 292.647512 126.695166 
L 293.836723 123.760571 
L 295.025934 110.294781 
L 298.593566 113.737204 
L 299.782777 124.863141 
L 300.971988 110.598985 
L 302.161199 111.996891 
L 303.35041 117.740144 
L 306.918042 137.509886 
L 308.107253 137.618845 
L 309.296464 115.265054 
L 310.485674 122.010447 
L 311.674885 131.479053 
L 315.242517 128.452038 
L 316.431728 120.213796 
L 317.620939 104.655205 
L 318.81015 97.894828 
L 319.999361 89.879705 
L 323.566993 91.620469 
L 324.756204 78.583223 
L 325.945415 85.171021 
L 327.134625 76.898092 
L 328.323836 70.241622 
L 331.891469 68.873034 
L 333.080679 65.902896 
L 334.26989 67.144225 
L 335.459101 81.752221 
L 336.648312 78.190732 
L 340.215944 73.132118 
L 341.405155 78.121029 
L 342.594366 88.689205 
L 343.783576 89.57091 
L 344.972787 88.869017 
L 348.54042 98.046801 
L 349.72963 102.849536 
L 350.918841 99.334752 
L 352.108052 107.025222 
L 356.864895 104.400429 
L 358.054106 93.872423 
L 359.243317 85.62405 
L 360.432527 97.992143 
L 361.621738 117.16115 
L 365.189371 113.474528 
L 366.378581 130.577327 
L 367.567792 137.523462 
L 368.757003 112.451089 
L 369.946214 131.301367 
L 373.513846 123.615831 
L 374.703057 118.617192 
L 375.892268 93.054602 
L 377.081479 116.895606 
L 378.270689 116.173835 
L 383.027532 136.304221 
L 384.216743 138.98972 
L 385.405954 142.425708 
L 386.595165 129.865647 
L 390.162797 130.907313 
L 391.352008 119.138212 
L 392.541219 143.072615 
L 393.73043 149.614591 
L 394.91964 154.363067 
L 398.487273 137.752246 
L 398.487273 137.752246 
" style="fill:none;stroke:#0d0d0d;stroke-linecap:square;stroke-opacity:0.25;stroke-width:2;"/>
   </g>
   <g id="patch_3">
    <path d="M 57.6 276.48 
L 57.6 41.472 
" style="fill:none;stroke:#000000;stroke-linecap:square;stroke-linejoin:miter;stroke-width:0.8;"/>
   </g>
   <g id="patch_4">
    <path d="M 414.72 276.48 
L 414.72 41.472 
" style="fill:none;stroke:#000000;stroke-linecap:square;stroke-linejoin:miter;stroke-width:0.8;"/>
   </g>
   <g id="patch_5">
    <path d="M 57.6 276.48 
L 414.72 276.48 
" style="fill:none;stroke:#000000;stroke-linecap:square;stroke-linejoin:miter;stroke-width:0.8;"/>
   </g>
   <g id="patch_6">
    <path d="M 57.6 41.472 
L 414.72 41.472 
" style="fill:none;stroke:#000000;stroke-linecap:square;stroke-linejoin:miter;stroke-width:0.8;"/>
   </g>
   <g id="text_20">
    <!-- TESTFUNDS1330 -->
    <g transform="translate(185.200312 22.034625)scale(0.12 -0.12)">
     <defs>
      <path d="M -19 4666 
L 3928 4666 
L 3928 4134 
L 2272 4134 
L 2272 0 
L 1638 0 
L 1638 4134 
L -19 4134 
L -19 4666 
z
" id="DejaVuSans-54" transform="scale(0.015625)"/>
      <path d="M 628 4666 
L 3578 4666 
L 3578 4134 
L 1259 4134 
L 1259 2753 
L 3481 2753 
L 3481 2222 
L 1259 2222 
L 1259 531 
L 3634 531 
L 3634 0 
L 628 0 
L 628 4666 
z
" id="DejaVuSans-45" transform="scale(0.015625)"/>
      <path d="M 3425 4513 
L 3425 3897 
Q 3066 4069 2747 4153 
Q 2428 4238 2131 4238 
Q 1616 4238 1336 4038 
Q 1056 3838 1056 3469 
Q 1056 3159 1242 3001 
Q 1428 2844 1947 2747 
L 2328 2669 
Q 3034 2534 3370 2195 
Q 3706 1856 3706 1288 
Q 3706 609 3251 259 
Q 2797 -91 1919 -91 
Q 1588 -91 1214 -16 
Q 841 59 441 206 
L 441 856 
Q 825 641 1194 531 
Q 1563 422 1919 422 
Q 2459 422 2753 634 
Q 3047 847 3047 1241 
Q 3047 1584 2836 1778 
Q 2625 1972 2144 2069 
L 1759 2144 
Q 1053 2284 737 2584 
Q 422 2884 422 3419 
Q 422 4038 858 4394 
Q 1294 4750 2059 4750 
Q 2388 4750 2728 4690 
Q 3069 4631 3425 4513 
z
" id="DejaVuSans-53" transform="scale(0.015625)"/>
      <path d="M 628 4666 
L 3309 4666 
L 3309 4134 
L 1259 4134 
L 1259 2759 
L 3109 2759 
L 3109 2228 
L 1259 2228 
L 1259 0 
L 628 0 
L 628 4666 
z
" id="DejaVuSans-46" transform="scale(0.015625)"/>
      <path d="M 556 4666 
L 1191 4666 
L 1191 1831 
Q 1191 1081 1462 751 
Q 1734 422 2344 422 
Q 2950 422 3222 751 
Q 3494 1081 3494 1831 
L 3494 4666 
L 4128 4666 
L 4128 1753 
Q 4128 841 3676 375 
Q 3225 -91 2344 -91 
Q 1459 -91 1007 375 
Q 556 841 556 1753 
L 556 4666 
z
" id="DejaVuSans-55" transform="scale(0.015625)"/>
      <path d="M 628 4666 
L 1478 4666 
L 3547 763 
L 3547 4666 
L 4159 4666 
L 4159 0 
L 3309 0 
L 1241 3903 
L 1241 0 
L 628 0 
L 628 4666 
z
" id="DejaVuSans-4e" transform="scale(0.015625)"/>
      <path d="M 1259 4147 
L 1259 519 
L 2022 519 
Q 2988 519 3436 956 
Q 3884 1394 3884 2338 
Q 3884 3275 3436 3711 
Q 2988 4147 2022 4147 
L 1259 4147 
z
M 628 4666 
L 1925 4666 
Q 3281 4666 3915 4102 
Q 4550 3538 4550 2338 
Q 4550 1131 3912 565 
Q 3275 0 1925 0 
L 628 0 
L 628 4666 
z
" id="DejaVuSans-44" transform="scale(0.015625)"/>
     </defs>
     <use xlink:href="#DejaVuSans-54"/>
     <use x="61.083984" xlink:href="#DejaVuSans-45"/>
     <use x="124.267578" xlink:href="#DejaVuSans-53"/>
     <use x="187.744141" xlink:href="#DejaVuSans-54"/>
     <use x="248.828125" xlink:href="#DejaVuSans-46"/>
     <use x="306.347656" xlink:href="#DejaVuSans-55"/>
     <use x="379.541016" xlink:href="#DejaVuSans-4e"/>
     <use x="454.345703" xlink:href="#DejaVuSans-44"/>
     <use x="531.347656" xlink:href="#DejaVuSans-53"/>
     <use x="594.824219" xlink:href="#DejaVuSans-31"/>
     <use x="658.447266" xlink:href="#DejaVuSans-33"/>
     <use x="722.070312" xlink:href="#DejaVuSans-33"/>
     <use x="785.693359" xlink:href="#DejaVuSans-30"/>
    </g>
    <!-- daily_report -->
    <g transform="translate(200.466563 35.472)scale(0.12 -0.12)">
     <defs>
      <path d="M 603 3500 
L 1178 3500 
L 1178 0 
L 603 0 
L 603 3500 
z
M 603 4863 
L 1178 4863 
L 1178 4134 
L 603 4134 
L 603 4863 
z
" id="DejaVuSans-69" transform="scale(0.015625)"/>
      <path d="M 603 4863 
L 1178 4863 
L 1178 0 
L 603 0 
L 603 4863 
z
" id="DejaVuSans-6c" transform="scale(0.015625)"/>
      <path d="M 2059 -325 
Q 1816 -950 1584 -1140 
Q 1353 -1331 966 -1331 
L 506 -1331 
L 506 -850 
L 844 -850 
Q 1081 -850 1212 -737 
Q 1344 -625 1503 -206 
L 1606 56 
L 191 3500 
L 800 3500 
L 1894 763 
L 2988 3500 
L 3597 3500 
L 2059 -325 
z
" id="DejaVuSans-79" transform="scale(0.015625)"/>
      <path d="M 3263 -1063 
L 3263 -1509 
L -63 -1509 
L -63 -1063 
L 3263 -1063 
z
" id="DejaVuSans-5f" transform="scale(0.015625)"/>
      <path d="M 2631 2963 
Q 2534 3019 2420 3045 
Q 2306 3072 2169 3072 
Q 1681 3072 1420 2755 
Q 1159 2438 1159 1844 
L 1159 0 
L 581 0 
L 581 3500 
L 1159 3500 
L 1159 2956 
Q 1341 3275 1631 3429 
Q 1922 3584 2338 3584 
Q 2397 3584 2469 3576 
Q 2541 3569 2628 3553 
L 2631 2963 
z
" id="DejaVuSans-72" transform="scale(0.015625)"/>
      <path d="M 1159 525 
L 1159 -1331 
L 581 -1331 
L 581 3500 
L 1159 3500 
L 1159 2969 
Q 1341 3281 1617 3432 
Q 1894 3584 2278 3584 
Q 2916 3584 3314 3078 
Q 3713 2572 3713 1747 
Q 3713 922 3314 415 
Q 2916 -91 2278 -91 
Q 1894 -91 1617 61 
Q 1341 213 1159 525 
z
M 3116 1747 
Q 3116 2381 2855 2742 
Q 2594 3103 2138 3103 
Q 1681 3103 1420 2742 
Q 1159 2381 1159 1747 
Q 1159 1113 1420 752 
Q 1681 391 2138 391 
Q 2594 391 2855 752 
Q 3116 1113 3116 1747 
z
" id="DejaVuSans-70" transform="scale(0.015625)"/>
      <path d="M 1959 3097 
Q 1497 3097 1228 2736 
Q 959 2375 959 1747 
Q 959 1119 1226 758 
Q 1494 397 1959 397 
Q 2419 397 2687 759 
Q 2956 1122 2956 1747 
Q 2956 2369 2687 2733 
Q 2419 3097 1959 3097 
z
M 1959 3584 
Q 2709 3584 3137 3096 
Q 3566 2609 3566 1747 
Q 3566 888 3137 398 
Q 2709 -91 1959 -91 
Q 1206 -91 779 398 
Q 353 888 353 1747 
Q 353 2609 779 3096 
Q 1206 3584 1959 3584 
z
" id="DejaVuSans-6f" transform="scale(0.015625)"/>
     </defs>
     <use xlink:href="#DejaVuSans-64"/>
     <use x="63.476562" xlink:href="#DejaVuSans-61"/>
     <use x="124.755859" xlink:href="#DejaVuSans-69"/>
     <use x="152.539062" xlink:href="#DejaVuSans-6c"/>
     <use x="180.322266" xlink:href="#DejaVuSans-79"/>
     <use x="239.501953" xlink:href="#DejaVuSans-5f"/>
     <use x="289.501953" xlink:href="#DejaVuSans-72"/>
     <use x="328.365234" xlink:href="#DejaVuSans-65"/>
     <use x="389.888672" xlink:href="#DejaVuSans-70"/>
     <use x="453.365234" xlink:href="#DejaVuSans-6f"/>
     <use x="514.546875" xlink:href="#DejaVuSans-72"/>
     <use x="555.660156" xlink:href="#DejaVuSans-74"/>
    </g>
   </g>
   <g id="legend_1">
    <g id="patch_7">
     <path d="M 64.6 271.48 
L 155.792188 271.48 
Q 157.792188 271.48 157.792188 269.48 
L 157.792188 197.089375 
Q 157.792188 195.089375 155.792188 195.089375 
L 64.6 195.089375 
Q 62.6 195.089375 62.6 197.089375 
L 62.6 269.48 
Q 62.6 271.48 64.6 271.48 
z
" style="fill:#ffffff;opacity:0.8;stroke:#cccccc;stroke-linejoin:miter;"/>
    </g>
    <g id="line2d_24">
     <path d="M 66.6 203.187812 
L 86.6 203.187812 
" style="fill:none;stroke:#0000ff;stroke-linecap:square;stroke-opacity:0.9;stroke-width:2;"/>
    </g>
    <g id="line2d_25"/>
    <g id="text_21">
     <!-- alpaca -->
     <g transform="translate(94.6 206.687812)scale(0.1 -0.1)">
      <defs>
       <path d="M 3122 3366 
L 3122 2828 
Q 2878 2963 2633 3030 
Q 2388 3097 2138 3097 
Q 1578 3097 1268 2742 
Q 959 2388 959 1747 
Q 959 1106 1268 751 
Q 1578 397 2138 397 
Q 2388 397 2633 464 
Q 2878 531 3122 666 
L 3122 134 
Q 2881 22 2623 -34 
Q 2366 -91 2075 -91 
Q 1284 -91 818 406 
Q 353 903 353 1747 
Q 353 2603 823 3093 
Q 1294 3584 2113 3584 
Q 2378 3584 2631 3529 
Q 2884 3475 3122 3366 
z
" id="DejaVuSans-63" transform="scale(0.015625)"/>
      </defs>
      <use xlink:href="#DejaVuSans-61"/>
      <use x="61.279297" xlink:href="#DejaVuSans-6c"/>
      <use x="89.0625" xlink:href="#DejaVuSans-70"/>
      <use x="152.539062" xlink:href="#DejaVuSans-61"/>
      <use x="213.818359" xlink:href="#DejaVuSans-63"/>
      <use x="268.798828" xlink:href="#DejaVuSans-61"/>
     </g>
    </g>
    <g id="line2d_26">
     <path d="M 66.6 217.865937 
L 86.6 217.865937 
" style="fill:none;stroke:#ff0000;stroke-linecap:square;stroke-opacity:0.9;stroke-width:2;"/>
    </g>
    <g id="line2d_27"/>
    <g id="text_22">
     <!-- mattress -->
     <g transform="translate(94.6 221.365937)scale(0.1 -0.1)">
      <defs>
       <path d="M 3328 2828 
Q 3544 3216 3844 3400 
Q 4144 3584 4550 3584 
Q 5097 3584 5394 3201 
Q 5691 2819 5691 2113 
L 5691 0 
L 5113 0 
L 5113 2094 
Q 5113 2597 4934 2840 
Q 4756 3084 4391 3084 
Q 3944 3084 3684 2787 
Q 3425 2491 3425 1978 
L 3425 0 
L 2847 0 
L 2847 2094 
Q 2847 2600 2669 2842 
Q 2491 3084 2119 3084 
Q 1678 3084 1418 2786 
Q 1159 2488 1159 1978 
L 1159 0 
L 581 0 
L 581 3500 
L 1159 3500 
L 1159 2956 
Q 1356 3278 1631 3431 
Q 1906 3584 2284 3584 
Q 2666 3584 2933 3390 
Q 3200 3197 3328 2828 
z
" id="DejaVuSans-6d" transform="scale(0.015625)"/>
       <path d="M 2834 3397 
L 2834 2853 
Q 2591 2978 2328 3040 
Q 2066 3103 1784 3103 
Q 1356 3103 1142 2972 
Q 928 2841 928 2578 
Q 928 2378 1081 2264 
Q 1234 2150 1697 2047 
L 1894 2003 
Q 2506 1872 2764 1633 
Q 3022 1394 3022 966 
Q 3022 478 2636 193 
Q 2250 -91 1575 -91 
Q 1294 -91 989 -36 
Q 684 19 347 128 
L 347 722 
Q 666 556 975 473 
Q 1284 391 1588 391 
Q 1994 391 2212 530 
Q 2431 669 2431 922 
Q 2431 1156 2273 1281 
Q 2116 1406 1581 1522 
L 1381 1569 
Q 847 1681 609 1914 
Q 372 2147 372 2553 
Q 372 3047 722 3315 
Q 1072 3584 1716 3584 
Q 2034 3584 2315 3537 
Q 2597 3491 2834 3397 
z
" id="DejaVuSans-73" transform="scale(0.015625)"/>
      </defs>
      <use xlink:href="#DejaVuSans-6d"/>
      <use x="97.412109" xlink:href="#DejaVuSans-61"/>
      <use x="158.691406" xlink:href="#DejaVuSans-74"/>
      <use x="197.900391" xlink:href="#DejaVuSans-74"/>
      <use x="237.109375" xlink:href="#DejaVuSans-72"/>
      <use x="275.972656" xlink:href="#DejaVuSans-65"/>
      <use x="337.496094" xlink:href="#DejaVuSans-73"/>
      <use x="389.595703" xlink:href="#DejaVuSans-73"/>
     </g>
    </g>
    <g id="line2d_28">
     <path d="M 66.6 232.544062 
L 86.6 232.544062 
" style="fill:none;stroke:#ff8040;stroke-linecap:square;stroke-opacity:0.9;stroke-width:2;"/>
    </g>
    <g id="line2d_29"/>
    <g id="text_23">
     <!-- trader-0850 -->
     <g transform="translate(94.6 236.044062)scale(0.1 -0.1)">
      <use xlink:href="#DejaVuSans-74"/>
      <use x="39.208984" xlink:href="#DejaVuSans-72"/>
      <use x="80.322266" xlink:href="#DejaVuSans-61"/>
      <use x="141.601562" xlink:href="#DejaVuSans-64"/>
      <use x="205.078125" xlink:href="#DejaVuSans-65"/>
      <use x="266.601562" xlink:href="#DejaVuSans-72"/>
      <use x="301.339844" xlink:href="#DejaVuSans-2d"/>
      <use x="337.423828" xlink:href="#DejaVuSans-30"/>
      <use x="401.046875" xlink:href="#DejaVuSans-38"/>
      <use x="464.669922" xlink:href="#DejaVuSans-35"/>
      <use x="528.292969" xlink:href="#DejaVuSans-30"/>
     </g>
    </g>
    <g id="line2d_30">
     <path d="M 66.6 247.222187 
L 86.6 247.222187 
" style="fill:none;stroke:#0d0d0d;stroke-linecap:square;stroke-opacity:0.25;stroke-width:2;"/>
    </g>
    <g id="line2d_31"/>
    <g id="text_24">
     <!-- rando-min -->
     <g transform="translate(94.6 250.722187)scale(0.1 -0.1)">
      <defs>
       <path d="M 3513 2113 
L 3513 0 
L 2938 0 
L 2938 2094 
Q 2938 2591 2744 2837 
Q 2550 3084 2163 3084 
Q 1697 3084 1428 2787 
Q 1159 2491 1159 1978 
L 1159 0 
L 581 0 
L 581 3500 
L 1159 3500 
L 1159 2956 
Q 1366 3272 1645 3428 
Q 1925 3584 2291 3584 
Q 2894 3584 3203 3211 
Q 3513 2838 3513 2113 
z
" id="DejaVuSans-6e" transform="scale(0.015625)"/>
      </defs>
      <use xlink:href="#DejaVuSans-72"/>
      <use x="41.113281" xlink:href="#DejaVuSans-61"/>
      <use x="102.392578" xlink:href="#DejaVuSans-6e"/>
      <use x="165.771484" xlink:href="#DejaVuSans-64"/>
      <use x="229.248047" xlink:href="#DejaVuSans-6f"/>
      <use x="292.304688" xlink:href="#DejaVuSans-2d"/>
      <use x="328.388672" xlink:href="#DejaVuSans-6d"/>
      <use x="425.800781" xlink:href="#DejaVuSans-69"/>
      <use x="453.583984" xlink:href="#DejaVuSans-6e"/>
     </g>
    </g>
    <g id="line2d_32">
     <path d="M 66.6 261.900312 
L 86.6 261.900312 
" style="fill:none;stroke:#0d0d0d;stroke-linecap:square;stroke-opacity:0.25;stroke-width:2;"/>
    </g>
    <g id="line2d_33"/>
    <g id="text_25">
     <!-- rando-max -->
     <g transform="translate(94.6 265.400312)scale(0.1 -0.1)">
      <defs>
       <path d="M 3513 3500 
L 2247 1797 
L 3578 0 
L 2900 0 
L 1881 1375 
L 863 0 
L 184 0 
L 1544 1831 
L 300 3500 
L 978 3500 
L 1906 2253 
L 2834 3500 
L 3513 3500 
z
" id="DejaVuSans-78" transform="scale(0.015625)"/>
      </defs>
      <use xlink:href="#DejaVuSans-72"/>
      <use x="41.113281" xlink:href="#DejaVuSans-61"/>
      <use x="102.392578" xlink:href="#DejaVuSans-6e"/>
      <use x="165.771484" xlink:href="#DejaVuSans-64"/>
      <use x="229.248047" xlink:href="#DejaVuSans-6f"/>
      <use x="292.304688" xlink:href="#DejaVuSans-2d"/>
      <use x="328.388672" xlink:href="#DejaVuSans-6d"/>
      <use x="425.800781" xlink:href="#DejaVuSans-61"/>
      <use x="487.080078" xlink:href="#DejaVuSans-78"/>
     </g>
    </g>
   </g>
  </g>
 </g>
 <defs>
  <clipPath id="p6b18bffd35">
   <rect height="235.008" width="357.12" x="57.6" y="41.472"/>
  </clipPath>
 </defs>
</svg>
