<?xml version="1.0" encoding="utf-8" standalone="no"?>
<!DOCTYPE svg PUBLIC "-//W3C//DTD SVG 1.1//EN"
  "http://www.w3.org/Graphics/SVG/1.1/DTD/svg11.dtd">
<svg height="345.6pt" version="1.1" viewBox="0 0 460.8 345.6" width="460.8pt" xmlns="http://www.w3.org/2000/svg" xmlns:xlink="http://www.w3.org/1999/xlink">
 <metadata>
  <rdf:RDF xmlns:cc="http://creativecommons.org/ns#" xmlns:dc="http://purl.org/dc/elements/1.1/" xmlns:rdf="http://www.w3.org/1999/02/22-rdf-syntax-ns#">
   <cc:Work>
    <dc:type rdf:resource="http://purl.org/dc/dcmitype/StillImage"/>
    <dc:date>2022-04-27T01:01:55.297773</dc:date>
    <dc:format>image/svg+xml</dc:format>
    <dc:creator>
     <cc:Agent>
      <dc:title>Matplotlib v3.4.3, https://matplotlib.org/</dc:title>
     </cc:Agent>
    </dc:creator>
   </cc:Work>
  </rdf:RDF>
 </metadata>
 <defs>
  <style type="text/css">*{stroke-linecap:butt;stroke-linejoin:round;}</style>
 </defs>
 <g id="figure_1">
  <g id="patch_1">
   <path d="M 0 345.6 
L 460.8 345.6 
L 460.8 0 
L 0 0 
z
" style="fill:#ffffff;"/>
  </g>
  <g id="axes_1">
   <g id="patch_2">
    <path d="M 57.6 276.48 
L 414.72 276.48 
L 414.72 41.472 
L 57.6 41.472 
z
" style="fill:#ffffff;"/>
   </g>
   <g id="matplotlib.axis_1">
    <g id="xtick_1">
     <g id="line2d_1">
      <defs>
       <path d="M 0 0 
L 0 3.5 
" id="ma0838f7919" style="stroke:#000000;stroke-width:0.8;"/>
      </defs>
      <g>
       <use style="stroke:#000000;stroke-width:0.8;" x="85.710333" xlink:href="#ma0838f7919" y="276.48"/>
      </g>
     </g>
     <g id="text_1">
      <!-- 2021-09 -->
      <g transform="translate(48.485512 310.951846)rotate(-30)scale(0.1 -0.1)">
       <defs>
        <path d="M 1228 531 
L 3431 531 
L 3431 0 
L 469 0 
L 469 531 
Q 828 903 1448 1529 
Q 2069 2156 2228 2338 
Q 2531 2678 2651 2914 
Q 2772 3150 2772 3378 
Q 2772 3750 2511 3984 
Q 2250 4219 1831 4219 
Q 1534 4219 1204 4116 
Q 875 4013 500 3803 
L 500 4441 
Q 881 4594 1212 4672 
Q 1544 4750 1819 4750 
Q 2544 4750 2975 4387 
Q 3406 4025 3406 3419 
Q 3406 3131 3298 2873 
Q 3191 2616 2906 2266 
Q 2828 2175 2409 1742 
Q 1991 1309 1228 531 
z
" id="DejaVuSans-32" transform="scale(0.015625)"/>
        <path d="M 2034 4250 
Q 1547 4250 1301 3770 
Q 1056 3291 1056 2328 
Q 1056 1369 1301 889 
Q 1547 409 2034 409 
Q 2525 409 2770 889 
Q 3016 1369 3016 2328 
Q 3016 3291 2770 3770 
Q 2525 4250 2034 4250 
z
M 2034 4750 
Q 2819 4750 3233 4129 
Q 3647 3509 3647 2328 
Q 3647 1150 3233 529 
Q 2819 -91 2034 -91 
Q 1250 -91 836 529 
Q 422 1150 422 2328 
Q 422 3509 836 4129 
Q 1250 4750 2034 4750 
z
" id="DejaVuSans-30" transform="scale(0.015625)"/>
        <path d="M 794 531 
L 1825 531 
L 1825 4091 
L 703 3866 
L 703 4441 
L 1819 4666 
L 2450 4666 
L 2450 531 
L 3481 531 
L 3481 0 
L 794 0 
L 794 531 
z
" id="DejaVuSans-31" transform="scale(0.015625)"/>
        <path d="M 313 2009 
L 1997 2009 
L 1997 1497 
L 313 1497 
L 313 2009 
z
" id="DejaVuSans-2d" transform="scale(0.015625)"/>
        <path d="M 703 97 
L 703 672 
Q 941 559 1184 500 
Q 1428 441 1663 441 
Q 2288 441 2617 861 
Q 2947 1281 2994 2138 
Q 2813 1869 2534 1725 
Q 2256 1581 1919 1581 
Q 1219 1581 811 2004 
Q 403 2428 403 3163 
Q 403 3881 828 4315 
Q 1253 4750 1959 4750 
Q 2769 4750 3195 4129 
Q 3622 3509 3622 2328 
Q 3622 1225 3098 567 
Q 2575 -91 1691 -91 
Q 1453 -91 1209 -44 
Q 966 3 703 97 
z
M 1959 2075 
Q 2384 2075 2632 2365 
Q 2881 2656 2881 3163 
Q 2881 3666 2632 3958 
Q 2384 4250 1959 4250 
Q 1534 4250 1286 3958 
Q 1038 3666 1038 3163 
Q 1038 2656 1286 2365 
Q 1534 2075 1959 2075 
z
" id="DejaVuSans-39" transform="scale(0.015625)"/>
       </defs>
       <use xlink:href="#DejaVuSans-32"/>
       <use x="63.623047" xlink:href="#DejaVuSans-30"/>
       <use x="127.246094" xlink:href="#DejaVuSans-32"/>
       <use x="190.869141" xlink:href="#DejaVuSans-31"/>
       <use x="254.492188" xlink:href="#DejaVuSans-2d"/>
       <use x="290.576172" xlink:href="#DejaVuSans-30"/>
       <use x="354.199219" xlink:href="#DejaVuSans-39"/>
      </g>
     </g>
    </g>
    <g id="xtick_2">
     <g id="line2d_2">
      <g>
       <use style="stroke:#000000;stroke-width:0.8;" x="125.30235" xlink:href="#ma0838f7919" y="276.48"/>
      </g>
     </g>
     <g id="text_2">
      <!-- 2021-10 -->
      <g transform="translate(88.07753 310.951846)rotate(-30)scale(0.1 -0.1)">
       <use xlink:href="#DejaVuSans-32"/>
       <use x="63.623047" xlink:href="#DejaVuSans-30"/>
       <use x="127.246094" xlink:href="#DejaVuSans-32"/>
       <use x="190.869141" xlink:href="#DejaVuSans-31"/>
       <use x="254.492188" xlink:href="#DejaVuSans-2d"/>
       <use x="290.576172" xlink:href="#DejaVuSans-31"/>
       <use x="354.199219" xlink:href="#DejaVuSans-30"/>
      </g>
     </g>
    </g>
    <g id="xtick_3">
     <g id="line2d_3">
      <g>
       <use style="stroke:#000000;stroke-width:0.8;" x="166.214102" xlink:href="#ma0838f7919" y="276.48"/>
      </g>
     </g>
     <g id="text_3">
      <!-- 2021-11 -->
      <g transform="translate(128.989281 310.951846)rotate(-30)scale(0.1 -0.1)">
       <use xlink:href="#DejaVuSans-32"/>
       <use x="63.623047" xlink:href="#DejaVuSans-30"/>
       <use x="127.246094" xlink:href="#DejaVuSans-32"/>
       <use x="190.869141" xlink:href="#DejaVuSans-31"/>
       <use x="254.492188" xlink:href="#DejaVuSans-2d"/>
       <use x="290.576172" xlink:href="#DejaVuSans-31"/>
       <use x="354.199219" xlink:href="#DejaVuSans-31"/>
      </g>
     </g>
    </g>
    <g id="xtick_4">
     <g id="line2d_4">
      <g>
       <use style="stroke:#000000;stroke-width:0.8;" x="205.80612" xlink:href="#ma0838f7919" y="276.48"/>
      </g>
     </g>
     <g id="text_4">
      <!-- 2021-12 -->
      <g transform="translate(168.581299 310.951846)rotate(-30)scale(0.1 -0.1)">
       <use xlink:href="#DejaVuSans-32"/>
       <use x="63.623047" xlink:href="#DejaVuSans-30"/>
       <use x="127.246094" xlink:href="#DejaVuSans-32"/>
       <use x="190.869141" xlink:href="#DejaVuSans-31"/>
       <use x="254.492188" xlink:href="#DejaVuSans-2d"/>
       <use x="290.576172" xlink:href="#DejaVuSans-31"/>
       <use x="354.199219" xlink:href="#DejaVuSans-32"/>
      </g>
     </g>
    </g>
    <g id="xtick_5">
     <g id="line2d_5">
      <g>
       <use style="stroke:#000000;stroke-width:0.8;" x="246.717871" xlink:href="#ma0838f7919" y="276.48"/>
      </g>
     </g>
     <g id="text_5">
      <!-- 2022-01 -->
      <g transform="translate(209.493051 310.951846)rotate(-30)scale(0.1 -0.1)">
       <use xlink:href="#DejaVuSans-32"/>
       <use x="63.623047" xlink:href="#DejaVuSans-30"/>
       <use x="127.246094" xlink:href="#DejaVuSans-32"/>
       <use x="190.869141" xlink:href="#DejaVuSans-32"/>
       <use x="254.492188" xlink:href="#DejaVuSans-2d"/>
       <use x="290.576172" xlink:href="#DejaVuSans-30"/>
       <use x="354.199219" xlink:href="#DejaVuSans-31"/>
      </g>
     </g>
    </g>
    <g id="xtick_6">
     <g id="line2d_6">
      <g>
       <use style="stroke:#000000;stroke-width:0.8;" x="287.629623" xlink:href="#ma0838f7919" y="276.48"/>
      </g>
     </g>
     <g id="text_6">
      <!-- 2022-02 -->
      <g transform="translate(250.404802 310.951846)rotate(-30)scale(0.1 -0.1)">
       <use xlink:href="#DejaVuSans-32"/>
       <use x="63.623047" xlink:href="#DejaVuSans-30"/>
       <use x="127.246094" xlink:href="#DejaVuSans-32"/>
       <use x="190.869141" xlink:href="#DejaVuSans-32"/>
       <use x="254.492188" xlink:href="#DejaVuSans-2d"/>
       <use x="290.576172" xlink:href="#DejaVuSans-30"/>
       <use x="354.199219" xlink:href="#DejaVuSans-32"/>
      </g>
     </g>
    </g>
    <g id="xtick_7">
     <g id="line2d_7">
      <g>
       <use style="stroke:#000000;stroke-width:0.8;" x="324.582173" xlink:href="#ma0838f7919" y="276.48"/>
      </g>
     </g>
     <g id="text_7">
      <!-- 2022-03 -->
      <g transform="translate(287.357352 310.951846)rotate(-30)scale(0.1 -0.1)">
       <defs>
        <path d="M 2597 2516 
Q 3050 2419 3304 2112 
Q 3559 1806 3559 1356 
Q 3559 666 3084 287 
Q 2609 -91 1734 -91 
Q 1441 -91 1130 -33 
Q 819 25 488 141 
L 488 750 
Q 750 597 1062 519 
Q 1375 441 1716 441 
Q 2309 441 2620 675 
Q 2931 909 2931 1356 
Q 2931 1769 2642 2001 
Q 2353 2234 1838 2234 
L 1294 2234 
L 1294 2753 
L 1863 2753 
Q 2328 2753 2575 2939 
Q 2822 3125 2822 3475 
Q 2822 3834 2567 4026 
Q 2313 4219 1838 4219 
Q 1578 4219 1281 4162 
Q 984 4106 628 3988 
L 628 4550 
Q 988 4650 1302 4700 
Q 1616 4750 1894 4750 
Q 2613 4750 3031 4423 
Q 3450 4097 3450 3541 
Q 3450 3153 3228 2886 
Q 3006 2619 2597 2516 
z
" id="DejaVuSans-33" transform="scale(0.015625)"/>
       </defs>
       <use xlink:href="#DejaVuSans-32"/>
       <use x="63.623047" xlink:href="#DejaVuSans-30"/>
       <use x="127.246094" xlink:href="#DejaVuSans-32"/>
       <use x="190.869141" xlink:href="#DejaVuSans-32"/>
       <use x="254.492188" xlink:href="#DejaVuSans-2d"/>
       <use x="290.576172" xlink:href="#DejaVuSans-30"/>
       <use x="354.199219" xlink:href="#DejaVuSans-33"/>
      </g>
     </g>
    </g>
    <g id="xtick_8">
     <g id="line2d_8">
      <g>
       <use style="stroke:#000000;stroke-width:0.8;" x="365.493925" xlink:href="#ma0838f7919" y="276.48"/>
      </g>
     </g>
     <g id="text_8">
      <!-- 2022-04 -->
      <g transform="translate(328.269104 310.951846)rotate(-30)scale(0.1 -0.1)">
       <defs>
        <path d="M 2419 4116 
L 825 1625 
L 2419 1625 
L 2419 4116 
z
M 2253 4666 
L 3047 4666 
L 3047 1625 
L 3713 1625 
L 3713 1100 
L 3047 1100 
L 3047 0 
L 2419 0 
L 2419 1100 
L 313 1100 
L 313 1709 
L 2253 4666 
z
" id="DejaVuSans-34" transform="scale(0.015625)"/>
       </defs>
       <use xlink:href="#DejaVuSans-32"/>
       <use x="63.623047" xlink:href="#DejaVuSans-30"/>
       <use x="127.246094" xlink:href="#DejaVuSans-32"/>
       <use x="190.869141" xlink:href="#DejaVuSans-32"/>
       <use x="254.492188" xlink:href="#DejaVuSans-2d"/>
       <use x="290.576172" xlink:href="#DejaVuSans-30"/>
       <use x="354.199219" xlink:href="#DejaVuSans-34"/>
      </g>
     </g>
    </g>
    <g id="xtick_9">
     <g id="line2d_9">
      <g>
       <use style="stroke:#000000;stroke-width:0.8;" x="405.085942" xlink:href="#ma0838f7919" y="276.48"/>
      </g>
     </g>
     <g id="text_9">
      <!-- 2022-05 -->
      <g transform="translate(367.861122 310.951846)rotate(-30)scale(0.1 -0.1)">
       <defs>
        <path d="M 691 4666 
L 3169 4666 
L 3169 4134 
L 1269 4134 
L 1269 2991 
Q 1406 3038 1543 3061 
Q 1681 3084 1819 3084 
Q 2600 3084 3056 2656 
Q 3513 2228 3513 1497 
Q 3513 744 3044 326 
Q 2575 -91 1722 -91 
Q 1428 -91 1123 -41 
Q 819 9 494 109 
L 494 744 
Q 775 591 1075 516 
Q 1375 441 1709 441 
Q 2250 441 2565 725 
Q 2881 1009 2881 1497 
Q 2881 1984 2565 2268 
Q 2250 2553 1709 2553 
Q 1456 2553 1204 2497 
Q 953 2441 691 2322 
L 691 4666 
z
" id="DejaVuSans-35" transform="scale(0.015625)"/>
       </defs>
       <use xlink:href="#DejaVuSans-32"/>
       <use x="63.623047" xlink:href="#DejaVuSans-30"/>
       <use x="127.246094" xlink:href="#DejaVuSans-32"/>
       <use x="190.869141" xlink:href="#DejaVuSans-32"/>
       <use x="254.492188" xlink:href="#DejaVuSans-2d"/>
       <use x="290.576172" xlink:href="#DejaVuSans-30"/>
       <use x="354.199219" xlink:href="#DejaVuSans-35"/>
      </g>
     </g>
    </g>
    <g id="text_10">
     <!-- date -->
     <g transform="translate(224.885 324.351346)scale(0.1 -0.1)">
      <defs>
       <path d="M 2906 2969 
L 2906 4863 
L 3481 4863 
L 3481 0 
L 2906 0 
L 2906 525 
Q 2725 213 2448 61 
Q 2172 -91 1784 -91 
Q 1150 -91 751 415 
Q 353 922 353 1747 
Q 353 2572 751 3078 
Q 1150 3584 1784 3584 
Q 2172 3584 2448 3432 
Q 2725 3281 2906 2969 
z
M 947 1747 
Q 947 1113 1208 752 
Q 1469 391 1925 391 
Q 2381 391 2643 752 
Q 2906 1113 2906 1747 
Q 2906 2381 2643 2742 
Q 2381 3103 1925 3103 
Q 1469 3103 1208 2742 
Q 947 2381 947 1747 
z
" id="DejaVuSans-64" transform="scale(0.015625)"/>
       <path d="M 2194 1759 
Q 1497 1759 1228 1600 
Q 959 1441 959 1056 
Q 959 750 1161 570 
Q 1363 391 1709 391 
Q 2188 391 2477 730 
Q 2766 1069 2766 1631 
L 2766 1759 
L 2194 1759 
z
M 3341 1997 
L 3341 0 
L 2766 0 
L 2766 531 
Q 2569 213 2275 61 
Q 1981 -91 1556 -91 
Q 1019 -91 701 211 
Q 384 513 384 1019 
Q 384 1609 779 1909 
Q 1175 2209 1959 2209 
L 2766 2209 
L 2766 2266 
Q 2766 2663 2505 2880 
Q 2244 3097 1772 3097 
Q 1472 3097 1187 3025 
Q 903 2953 641 2809 
L 641 3341 
Q 956 3463 1253 3523 
Q 1550 3584 1831 3584 
Q 2591 3584 2966 3190 
Q 3341 2797 3341 1997 
z
" id="DejaVuSans-61" transform="scale(0.015625)"/>
       <path d="M 1172 4494 
L 1172 3500 
L 2356 3500 
L 2356 3053 
L 1172 3053 
L 1172 1153 
Q 1172 725 1289 603 
Q 1406 481 1766 481 
L 2356 481 
L 2356 0 
L 1766 0 
Q 1100 0 847 248 
Q 594 497 594 1153 
L 594 3053 
L 172 3053 
L 172 3500 
L 594 3500 
L 594 4494 
L 1172 4494 
z
" id="DejaVuSans-74" transform="scale(0.015625)"/>
       <path d="M 3597 1894 
L 3597 1613 
L 953 1613 
Q 991 1019 1311 708 
Q 1631 397 2203 397 
Q 2534 397 2845 478 
Q 3156 559 3463 722 
L 3463 178 
Q 3153 47 2828 -22 
Q 2503 -91 2169 -91 
Q 1331 -91 842 396 
Q 353 884 353 1716 
Q 353 2575 817 3079 
Q 1281 3584 2069 3584 
Q 2775 3584 3186 3129 
Q 3597 2675 3597 1894 
z
M 3022 2063 
Q 3016 2534 2758 2815 
Q 2500 3097 2075 3097 
Q 1594 3097 1305 2825 
Q 1016 2553 972 2059 
L 3022 2063 
z
" id="DejaVuSans-65" transform="scale(0.015625)"/>
      </defs>
      <use xlink:href="#DejaVuSans-64"/>
      <use x="63.476562" xlink:href="#DejaVuSans-61"/>
      <use x="124.755859" xlink:href="#DejaVuSans-74"/>
      <use x="163.964844" xlink:href="#DejaVuSans-65"/>
     </g>
    </g>
   </g>
   <g id="matplotlib.axis_2">
    <g id="ytick_1">
     <g id="line2d_10">
      <defs>
       <path d="M 0 0 
L -3.5 0 
" id="mf7797d6535" style="stroke:#000000;stroke-width:0.8;"/>
      </defs>
      <g>
       <use style="stroke:#000000;stroke-width:0.8;" x="57.6" xlink:href="#mf7797d6535" y="276.444837"/>
      </g>
     </g>
     <g id="text_11">
      <!-- 80000 -->
      <g transform="translate(18.7875 280.244055)scale(0.1 -0.1)">
       <defs>
        <path d="M 2034 2216 
Q 1584 2216 1326 1975 
Q 1069 1734 1069 1313 
Q 1069 891 1326 650 
Q 1584 409 2034 409 
Q 2484 409 2743 651 
Q 3003 894 3003 1313 
Q 3003 1734 2745 1975 
Q 2488 2216 2034 2216 
z
M 1403 2484 
Q 997 2584 770 2862 
Q 544 3141 544 3541 
Q 544 4100 942 4425 
Q 1341 4750 2034 4750 
Q 2731 4750 3128 4425 
Q 3525 4100 3525 3541 
Q 3525 3141 3298 2862 
Q 3072 2584 2669 2484 
Q 3125 2378 3379 2068 
Q 3634 1759 3634 1313 
Q 3634 634 3220 271 
Q 2806 -91 2034 -91 
Q 1263 -91 848 271 
Q 434 634 434 1313 
Q 434 1759 690 2068 
Q 947 2378 1403 2484 
z
M 1172 3481 
Q 1172 3119 1398 2916 
Q 1625 2713 2034 2713 
Q 2441 2713 2670 2916 
Q 2900 3119 2900 3481 
Q 2900 3844 2670 4047 
Q 2441 4250 2034 4250 
Q 1625 4250 1398 4047 
Q 1172 3844 1172 3481 
z
" id="DejaVuSans-38" transform="scale(0.015625)"/>
       </defs>
       <use xlink:href="#DejaVuSans-38"/>
       <use x="63.623047" xlink:href="#DejaVuSans-30"/>
       <use x="127.246094" xlink:href="#DejaVuSans-30"/>
       <use x="190.869141" xlink:href="#DejaVuSans-30"/>
       <use x="254.492188" xlink:href="#DejaVuSans-30"/>
      </g>
     </g>
    </g>
    <g id="ytick_2">
     <g id="line2d_11">
      <g>
       <use style="stroke:#000000;stroke-width:0.8;" x="57.6" xlink:href="#mf7797d6535" y="245.794445"/>
      </g>
     </g>
     <g id="text_12">
      <!-- 85000 -->
      <g transform="translate(18.7875 249.593664)scale(0.1 -0.1)">
       <use xlink:href="#DejaVuSans-38"/>
       <use x="63.623047" xlink:href="#DejaVuSans-35"/>
       <use x="127.246094" xlink:href="#DejaVuSans-30"/>
       <use x="190.869141" xlink:href="#DejaVuSans-30"/>
       <use x="254.492188" xlink:href="#DejaVuSans-30"/>
      </g>
     </g>
    </g>
    <g id="ytick_3">
     <g id="line2d_12">
      <g>
       <use style="stroke:#000000;stroke-width:0.8;" x="57.6" xlink:href="#mf7797d6535" y="215.144054"/>
      </g>
     </g>
     <g id="text_13">
      <!-- 90000 -->
      <g transform="translate(18.7875 218.943273)scale(0.1 -0.1)">
       <use xlink:href="#DejaVuSans-39"/>
       <use x="63.623047" xlink:href="#DejaVuSans-30"/>
       <use x="127.246094" xlink:href="#DejaVuSans-30"/>
       <use x="190.869141" xlink:href="#DejaVuSans-30"/>
       <use x="254.492188" xlink:href="#DejaVuSans-30"/>
      </g>
     </g>
    </g>
    <g id="ytick_4">
     <g id="line2d_13">
      <g>
       <use style="stroke:#000000;stroke-width:0.8;" x="57.6" xlink:href="#mf7797d6535" y="184.493663"/>
      </g>
     </g>
     <g id="text_14">
      <!-- 95000 -->
      <g transform="translate(18.7875 188.292882)scale(0.1 -0.1)">
       <use xlink:href="#DejaVuSans-39"/>
       <use x="63.623047" xlink:href="#DejaVuSans-35"/>
       <use x="127.246094" xlink:href="#DejaVuSans-30"/>
       <use x="190.869141" xlink:href="#DejaVuSans-30"/>
       <use x="254.492188" xlink:href="#DejaVuSans-30"/>
      </g>
     </g>
    </g>
    <g id="ytick_5">
     <g id="line2d_14">
      <g>
       <use style="stroke:#000000;stroke-width:0.8;" x="57.6" xlink:href="#mf7797d6535" y="153.843272"/>
      </g>
     </g>
     <g id="text_15">
      <!-- 100000 -->
      <g transform="translate(12.425 157.642491)scale(0.1 -0.1)">
       <use xlink:href="#DejaVuSans-31"/>
       <use x="63.623047" xlink:href="#DejaVuSans-30"/>
       <use x="127.246094" xlink:href="#DejaVuSans-30"/>
       <use x="190.869141" xlink:href="#DejaVuSans-30"/>
       <use x="254.492188" xlink:href="#DejaVuSans-30"/>
       <use x="318.115234" xlink:href="#DejaVuSans-30"/>
      </g>
     </g>
    </g>
    <g id="ytick_6">
     <g id="line2d_15">
      <g>
       <use style="stroke:#000000;stroke-width:0.8;" x="57.6" xlink:href="#mf7797d6535" y="123.192881"/>
      </g>
     </g>
     <g id="text_16">
      <!-- 105000 -->
      <g transform="translate(12.425 126.9921)scale(0.1 -0.1)">
       <use xlink:href="#DejaVuSans-31"/>
       <use x="63.623047" xlink:href="#DejaVuSans-30"/>
       <use x="127.246094" xlink:href="#DejaVuSans-35"/>
       <use x="190.869141" xlink:href="#DejaVuSans-30"/>
       <use x="254.492188" xlink:href="#DejaVuSans-30"/>
       <use x="318.115234" xlink:href="#DejaVuSans-30"/>
      </g>
     </g>
    </g>
    <g id="ytick_7">
     <g id="line2d_16">
      <g>
       <use style="stroke:#000000;stroke-width:0.8;" x="57.6" xlink:href="#mf7797d6535" y="92.54249"/>
      </g>
     </g>
     <g id="text_17">
      <!-- 110000 -->
      <g transform="translate(12.425 96.341708)scale(0.1 -0.1)">
       <use xlink:href="#DejaVuSans-31"/>
       <use x="63.623047" xlink:href="#DejaVuSans-31"/>
       <use x="127.246094" xlink:href="#DejaVuSans-30"/>
       <use x="190.869141" xlink:href="#DejaVuSans-30"/>
       <use x="254.492188" xlink:href="#DejaVuSans-30"/>
       <use x="318.115234" xlink:href="#DejaVuSans-30"/>
      </g>
     </g>
    </g>
    <g id="ytick_8">
     <g id="line2d_17">
      <g>
       <use style="stroke:#000000;stroke-width:0.8;" x="57.6" xlink:href="#mf7797d6535" y="61.892098"/>
      </g>
     </g>
     <g id="text_18">
      <!-- 115000 -->
      <g transform="translate(12.425 65.691317)scale(0.1 -0.1)">
       <use xlink:href="#DejaVuSans-31"/>
       <use x="63.623047" xlink:href="#DejaVuSans-31"/>
       <use x="127.246094" xlink:href="#DejaVuSans-35"/>
       <use x="190.869141" xlink:href="#DejaVuSans-30"/>
       <use x="254.492188" xlink:href="#DejaVuSans-30"/>
       <use x="318.115234" xlink:href="#DejaVuSans-30"/>
      </g>
     </g>
    </g>
   </g>
   <g id="line2d_18">
    <path clip-path="url(#pd701caac87)" d="M 73.832727 153.843272 
L 75.152461 154.272289 
L 76.472195 151.668274 
L 77.791929 155.077598 
L 79.111663 148.932586 
L 84.390599 144.023244 
L 85.710333 145.643675 
L 87.030067 144.972289 
L 88.3498 145.52031 
L 93.628736 145.33485 
L 94.94847 147.823662 
L 96.268204 149.665967 
L 97.587938 155.126146 
L 101.54714 150.133436 
L 102.866874 158.442175 
L 104.186608 154.85043 
L 105.506341 156.168087 
L 106.826075 162.419629 
L 110.785277 172.856292 
L 112.105011 174.357723 
L 113.424745 169.614784 
L 114.744479 160.034229 
L 116.064213 155.155815 
L 120.023415 150.420862 
L 121.343149 163.603979 
L 122.662882 161.705382 
L 123.982616 166.403368 
L 125.30235 157.146832 
L 129.261552 168.198631 
L 130.581286 159.224632 
L 131.90102 156.818442 
L 133.220754 156.813335 
L 134.540488 156.158508 
L 138.49969 155.213225 
L 139.819424 154.382466 
L 141.139157 162.107549 
L 142.458891 150.411253 
L 143.778625 149.518528 
L 147.737827 144.561058 
L 149.057561 138.147336 
L 150.377295 135.89023 
L 151.697029 146.774103 
L 153.016763 154.661532 
L 156.975965 153.832683 
L 158.295698 159.628256 
L 159.615432 160.755462 
L 160.935166 153.158897 
L 162.2549 161.223316 
L 166.214102 148.657871 
L 167.533836 149.02368 
L 168.85357 142.83147 
L 170.173304 149.922703 
L 171.493038 146.121507 
L 175.452239 145.550476 
L 176.771973 153.335947 
L 178.091707 152.895369 
L 179.411441 157.667788 
L 180.731175 153.019769 
L 184.690377 151.075832 
L 186.010111 151.034202 
L 187.329845 154.312517 
L 188.649579 156.266635 
L 189.969313 156.426536 
L 193.928514 152.940396 
L 195.248248 147.37792 
L 196.567982 148.415631 
L 199.20745 147.858919 
L 203.166652 153.433488 
L 204.486386 165.769437 
L 205.80612 173.741194 
L 207.125854 166.199315 
L 208.445588 170.348055 
L 212.404789 159.137409 
L 213.724523 148.196081 
L 215.044257 143.028656 
L 216.363991 142.984735 
L 217.683725 141.028635 
L 221.642927 146.759729 
L 224.282395 140.15748 
L 225.602129 137.99998 
L 226.921863 145.347574 
L 230.881064 153.496949 
L 232.200798 139.315453 
L 233.520532 136.222255 
L 234.840266 131.00506 
L 240.119202 122.722641 
L 241.438936 123.466458 
L 242.75867 123.108262 
L 244.078404 124.255644 
L 245.398137 126.777727 
L 249.357339 116.904574 
L 250.677073 109.039841 
L 251.996807 126.111242 
L 253.316541 120.437902 
L 254.636275 118.07879 
L 258.595477 117.987969 
L 259.915211 112.189074 
L 261.234945 110.633974 
L 262.554678 118.560677 
L 263.874412 116.606239 
L 270.473082 133.926688 
L 271.792816 141.300768 
L 273.11255 155.625456 
L 277.071752 154.852684 
L 278.391486 162.167816 
L 279.71122 161.905995 
L 281.030953 165.682121 
L 282.350687 150.388687 
L 286.309889 137.43377 
L 287.629623 130.987158 
L 288.949357 121.485969 
L 290.269091 162.811943 
L 291.588825 162.555587 
L 295.548027 172.784613 
L 296.867761 174.204909 
L 298.187494 161.20384 
L 299.507228 171.905581 
L 300.826962 185.053731 
L 304.786164 189.59399 
L 306.105898 181.889597 
L 307.425632 185.296486 
L 308.745366 196.158954 
L 310.0651 199.123689 
L 315.344035 205.828664 
L 316.663769 213.570866 
L 317.983503 201.108102 
L 319.303237 190.423785 
L 323.262439 192.633629 
L 324.582173 201.767227 
L 325.901907 189.561141 
L 327.221641 191.971678 
L 328.541375 196.426929 
L 332.500576 219.542965 
L 333.82031 219.863879 
L 335.140044 197.28821 
L 336.459778 204.641658 
L 337.779512 214.17002 
L 341.738714 216.62119 
L 343.058448 205.234109 
L 344.378182 187.55216 
L 345.697916 181.138168 
L 347.01765 170.424123 
L 350.976851 172.713609 
L 352.296585 161.675162 
L 353.616319 167.772907 
L 354.936053 157.780384 
L 356.255787 151.607132 
L 360.214989 149.471346 
L 361.534723 144.130966 
L 362.854457 146.485089 
L 364.174191 160.068992 
L 365.493925 157.403994 
L 369.453126 149.743479 
L 370.77286 156.651494 
L 372.092594 166.745471 
L 373.412328 167.637839 
L 374.732062 168.926672 
L 380.010998 183.797339 
L 381.330732 180.924741 
L 382.650466 191.120788 
L 387.929401 187.146316 
L 389.249135 177.007714 
L 390.568869 184.455236 
L 391.888603 197.638194 
L 393.208337 216.236735 
L 397.167539 210.835231 
L 398.487273 234.547453 
L 398.487273 234.547453 
" style="fill:none;stroke:#0000ff;stroke-linecap:square;stroke-opacity:0.9;stroke-width:2;"/>
   </g>
   <g id="line2d_19">
    <path clip-path="url(#pd701caac87)" d="M 73.832727 153.843272 
L 75.152461 150.388728 
L 76.472195 147.707279 
L 77.791929 151.514152 
L 79.111663 144.30425 
L 83.070865 141.957341 
L 84.390599 141.025012 
L 85.710333 141.147209 
L 87.030067 141.973407 
L 88.3498 141.811051 
L 93.628736 140.988556 
L 94.94847 143.182603 
L 96.268204 144.263222 
L 97.587938 151.346227 
L 101.54714 146.729238 
L 102.866874 152.518624 
L 104.186608 149.505082 
L 105.506341 151.345796 
L 106.826075 158.824712 
L 110.785277 169.20533 
L 112.105011 169.299742 
L 113.424745 165.464248 
L 114.744479 157.683265 
L 116.064213 153.091327 
L 120.023415 149.233884 
L 121.343149 161.58129 
L 122.662882 160.910243 
L 123.982616 166.388129 
L 125.30235 157.752802 
L 129.261552 164.268184 
L 130.581286 155.742514 
L 131.90102 154.377075 
L 133.220754 152.361519 
L 134.540488 149.328591 
L 138.49969 153.247526 
L 139.819424 157.825949 
L 141.139157 159.706202 
L 142.458891 145.075135 
L 143.778625 140.46288 
L 147.737827 138.986709 
L 149.057561 133.513726 
L 150.377295 130.147329 
L 151.697029 138.201397 
L 153.016763 141.648533 
L 156.975965 143.102373 
L 159.615432 150.460355 
L 160.935166 141.296202 
L 162.2549 140.487572 
L 166.214102 139.98165 
L 167.533836 138.079697 
L 168.85357 132.996283 
L 170.173304 134.138455 
L 171.493038 134.481413 
L 175.452239 133.398163 
L 176.771973 138.156064 
L 178.091707 141.559855 
L 179.411441 141.30236 
L 180.731175 137.339646 
L 184.690377 136.146774 
L 186.010111 137.260069 
L 188.649579 137.8754 
L 189.969313 140.075654 
L 193.928514 137.871877 
L 195.248248 131.609696 
L 196.567982 130.900594 
L 199.20745 147.27506 
L 203.166652 140.796353 
L 204.486386 153.787587 
L 205.80612 160.89806 
L 207.125854 152.397114 
L 208.445588 157.572286 
L 212.404789 148.091405 
L 213.724523 137.818886 
L 215.044257 134.069992 
L 216.363991 134.168356 
L 217.683725 130.636021 
L 221.642927 136.729544 
L 222.962661 136.911028 
L 224.282395 131.47741 
L 225.602129 131.425869 
L 226.921863 139.584265 
L 230.881064 146.675486 
L 232.200798 134.938759 
L 233.520532 131.467798 
L 234.840266 126.107597 
L 240.119202 117.543689 
L 241.438936 118.076124 
L 242.75867 117.729061 
L 244.078404 118.526208 
L 245.398137 121.184519 
L 249.357339 113.952038 
L 250.677073 107.514895 
L 251.996807 121.864101 
L 253.316541 119.210745 
L 254.636275 115.920626 
L 258.595477 116.73586 
L 259.915211 112.545154 
L 261.234945 112.643385 
L 262.554678 117.374286 
L 263.874412 118.027356 
L 269.153348 132.206671 
L 271.792816 144.296275 
L 273.11255 157.157997 
L 277.071752 157.472125 
L 278.391486 156.078164 
L 279.71122 157.170872 
L 281.030953 162.876963 
L 282.350687 148.019206 
L 286.309889 138.373231 
L 287.629623 130.946504 
L 288.949357 120.954344 
L 290.269091 149.353866 
L 291.588825 144.765878 
L 295.548027 148.226677 
L 296.867761 144.09615 
L 298.187494 138.514679 
L 299.507228 149.076443 
L 300.826962 161.959692 
L 304.786164 167.510982 
L 306.105898 160.245242 
L 307.425632 161.848305 
L 308.745366 173.647414 
L 310.0651 176.697423 
L 315.344035 181.702813 
L 316.663769 189.368782 
L 317.983503 186.614726 
L 319.303237 172.704275 
L 323.262439 178.510876 
L 324.582173 190.434778 
L 325.901907 176.471292 
L 327.221641 178.177385 
L 328.541375 186.618832 
L 332.500576 206.976487 
L 333.82031 209.732254 
L 335.140044 188.969298 
L 336.459778 196.792639 
L 337.779512 202.695018 
L 341.738714 203.467619 
L 343.058448 193.714223 
L 344.378182 180.417433 
L 347.01765 169.306675 
L 350.976851 168.771223 
L 352.296585 158.578098 
L 353.616319 164.571552 
L 354.936053 155.746538 
L 356.255787 149.283568 
L 360.214989 148.088272 
L 361.534723 145.489572 
L 362.854457 145.908793 
L 364.174191 158.22486 
L 365.493925 155.258682 
L 369.453126 151.120477 
L 370.77286 156.910818 
L 372.092594 164.630684 
L 373.412328 165.158153 
L 374.732062 164.643609 
L 378.691264 173.852078 
L 380.010998 176.331774 
L 381.330732 174.408287 
L 382.650466 183.559386 
L 387.929401 179.708333 
L 389.249135 171.44815 
L 390.568869 168.37029 
L 391.888603 176.41159 
L 393.208337 194.107828 
L 397.167539 192.1587 
L 398.487273 202.120583 
L 398.487273 202.120583 
" style="fill:none;stroke:#ff0000;stroke-linecap:square;stroke-opacity:0.9;stroke-width:2;"/>
   </g>
   <g id="line2d_20">
    <path clip-path="url(#pd701caac87)" d="M 73.832727 153.843272 
L 75.152461 150.548305 
L 76.472195 147.953681 
L 77.791929 151.491665 
L 79.111663 145.653435 
L 83.070865 141.411507 
L 84.390599 140.686134 
L 85.710333 142.037943 
L 87.030067 141.353369 
L 88.3498 141.522892 
L 93.628736 141.945656 
L 94.94847 143.723257 
L 96.268204 145.195625 
L 97.587938 150.768306 
L 101.54714 146.022736 
L 102.866874 154.20689 
L 104.186608 150.594753 
L 105.506341 151.954239 
L 106.826075 157.595509 
L 110.785277 168.598869 
L 112.105011 170.050828 
L 113.424745 165.181781 
L 114.744479 155.563987 
L 116.064213 150.053815 
L 120.023415 144.962172 
L 121.343149 158.093155 
L 122.662882 156.019173 
L 123.982616 160.89604 
L 125.30235 151.360004 
L 129.261552 162.935073 
L 130.581286 153.891114 
L 131.90102 150.94742 
L 133.220754 149.563302 
L 134.540488 146.806202 
L 138.49969 150.333414 
L 139.819424 155.225914 
L 141.139157 156.655492 
L 142.458891 144.604519 
L 143.778625 143.69404 
L 147.737827 138.229475 
L 149.057561 131.99161 
L 150.377295 129.298738 
L 151.697029 139.83782 
L 153.016763 147.771679 
L 156.975965 147.09825 
L 158.295698 152.621597 
L 159.615432 154.011955 
L 160.935166 146.31712 
L 162.2549 145.53715 
L 166.214102 141.828529 
L 167.533836 141.142372 
L 168.85357 136.333363 
L 170.173304 135.772021 
L 171.493038 131.457271 
L 175.452239 130.393232 
L 176.771973 138.391753 
L 178.091707 143.209499 
L 179.411441 143.688134 
L 180.731175 138.40567 
L 184.690377 136.507041 
L 186.010111 139.779977 
L 187.329845 139.938586 
L 188.649579 141.637671 
L 189.969313 141.635299 
L 193.928514 138.006889 
L 195.248248 132.364818 
L 196.567982 133.101744 
L 199.20745 147.430769 
L 203.166652 139.333314 
L 204.486386 151.637779 
L 205.80612 160.165629 
L 207.125854 152.641151 
L 208.445588 156.890378 
L 212.404789 144.991668 
L 213.724523 134.219077 
L 215.044257 129.303339 
L 216.363991 129.006909 
L 217.683725 126.493659 
L 221.642927 132.69354 
L 224.282395 126.298676 
L 225.602129 123.684087 
L 226.921863 130.879868 
L 230.881064 139.55655 
L 232.200798 125.256449 
L 233.520532 121.813686 
L 234.840266 116.420978 
L 240.119202 107.910418 
L 241.438936 108.487907 
L 242.75867 108.570428 
L 244.078404 109.193549 
L 245.398137 112.045488 
L 249.357339 102.259503 
L 250.677073 94.077422 
L 251.996807 111.036003 
L 253.316541 104.698144 
L 254.636275 102.316582 
L 258.595477 100.672047 
L 259.915211 94.583031 
L 261.234945 93.607636 
L 262.554678 101.455677 
L 263.874412 99.291889 
L 270.473082 117.098664 
L 271.792816 124.488737 
L 273.11255 139.15774 
L 277.071752 138.151192 
L 278.391486 146.01144 
L 279.71122 145.397204 
L 281.030953 149.529495 
L 282.350687 133.74589 
L 286.309889 120.038824 
L 287.629623 113.877005 
L 288.949357 102.539078 
L 290.269091 147.271338 
L 291.588825 146.498802 
L 295.548027 157.241391 
L 296.867761 158.618223 
L 298.187494 144.890448 
L 299.507228 156.333408 
L 300.826962 169.939399 
L 304.786164 174.288157 
L 306.105898 166.206658 
L 307.425632 169.83442 
L 308.745366 180.932624 
L 310.0651 184.276922 
L 315.344035 189.914414 
L 316.663769 198.331994 
L 317.983503 185.205045 
L 319.303237 174.568241 
L 323.262439 176.21209 
L 324.582173 185.452741 
L 325.901907 172.860935 
L 327.221641 176.243498 
L 328.541375 184.86781 
L 332.500576 209.520894 
L 333.82031 207.389231 
L 335.140044 182.440633 
L 336.459778 190.922996 
L 337.779512 200.400419 
L 341.738714 200.610853 
L 343.058448 189.863795 
L 344.378182 170.653632 
L 345.697916 163.678632 
L 347.01765 154.666107 
L 350.976851 157.075057 
L 352.296585 144.185926 
L 353.616319 151.634565 
L 354.936053 142.093448 
L 356.255787 134.981781 
L 360.214989 134.375425 
L 361.534723 129.419889 
L 362.854457 132.403379 
L 364.174191 148.764685 
L 365.493925 147.462585 
L 369.453126 141.637501 
L 370.77286 149.323319 
L 372.092594 158.419021 
L 373.412328 160.783455 
L 374.732062 161.367511 
L 380.010998 174.503647 
L 381.330732 171.806827 
L 382.650466 182.825894 
L 387.929401 176.47946 
L 389.249135 165.648663 
L 390.568869 169.274595 
L 391.888603 182.27876 
L 393.208337 201.540673 
L 397.167539 198.204188 
L 398.487273 212.900838 
L 398.487273 212.900838 
" style="fill:none;stroke:#ff8040;stroke-linecap:square;stroke-opacity:0.9;stroke-width:2;"/>
   </g>
   <g id="line2d_21">
    <path clip-path="url(#pd701caac87)" d="M 73.832727 154.45628 
L 75.152461 153.325957 
L 76.472195 150.594961 
L 77.791929 156.350119 
L 79.111663 150.108931 
L 83.070865 152.66371 
L 84.390599 151.27725 
L 85.710333 150.999443 
L 87.030067 153.281924 
L 88.3498 152.948042 
L 93.628736 149.724072 
L 94.94847 154.077548 
L 96.268204 155.941119 
L 97.587938 163.191487 
L 101.54714 159.311732 
L 102.866874 166.972899 
L 104.186608 163.498012 
L 105.506341 166.083283 
L 106.826075 173.251242 
L 110.785277 183.721394 
L 112.105011 183.596416 
L 113.424745 182.233335 
L 114.744479 175.099194 
L 116.064213 171.233833 
L 120.023415 164.673999 
L 121.343149 176.532291 
L 122.662882 174.962665 
L 123.982616 181.291676 
L 125.30235 173.997249 
L 129.261552 182.004884 
L 130.581286 173.166409 
L 131.90102 172.215047 
L 133.220754 171.415209 
L 134.540488 169.144873 
L 138.49969 173.65553 
L 139.819424 178.179397 
L 141.139157 179.145812 
L 142.458891 165.417378 
L 143.778625 163.300743 
L 147.737827 161.893907 
L 149.057561 157.04743 
L 150.377295 154.332615 
L 151.697029 166.452983 
L 153.016763 169.691486 
L 156.975965 170.870165 
L 158.295698 176.813143 
L 159.615432 177.099263 
L 160.935166 169.337182 
L 162.2549 170.058989 
L 166.214102 167.343621 
L 167.533836 163.996097 
L 168.85357 159.174807 
L 170.173304 160.896186 
L 171.493038 161.828004 
L 175.452239 160.806121 
L 178.091707 167.420687 
L 179.411441 167.89252 
L 180.731175 166.068789 
L 184.690377 164.559145 
L 186.010111 165.750949 
L 187.329845 165.773078 
L 188.649579 168.768626 
L 189.969313 170.696176 
L 193.928514 171.656517 
L 195.248248 167.895793 
L 196.567982 167.715783 
L 199.20745 182.310216 
L 203.166652 180.264934 
L 204.486386 193.459195 
L 205.80612 198.851335 
L 207.125854 191.729711 
L 208.445588 197.953375 
L 212.404789 189.330344 
L 213.724523 180.501276 
L 215.044257 175.943761 
L 216.363991 176.012446 
L 217.683725 172.477125 
L 221.642927 177.120004 
L 222.962661 178.245676 
L 224.282395 173.59437 
L 225.602129 173.606139 
L 226.921863 183.743082 
L 230.881064 192.147368 
L 232.200798 180.014811 
L 233.520532 177.331959 
L 234.840266 170.91878 
L 240.119202 164.781831 
L 241.438936 164.93007 
L 242.75867 163.86882 
L 244.078404 164.377395 
L 245.398137 167.499694 
L 249.357339 167.715653 
L 250.677073 162.681719 
L 251.996807 177.592888 
L 253.316541 176.47873 
L 254.636275 173.664857 
L 258.595477 174.941209 
L 259.915211 172.829429 
L 261.234945 173.402384 
L 262.554678 178.612233 
L 263.874412 177.834447 
L 269.153348 190.316431 
L 270.473082 194.066158 
L 271.792816 199.950575 
L 273.11255 210.053144 
L 277.071752 210.474963 
L 278.391486 211.505831 
L 279.71122 210.252531 
L 281.030953 215.167009 
L 282.350687 202.056843 
L 286.309889 193.997325 
L 287.629623 188.252965 
L 288.949357 183.006509 
L 290.269091 205.802961 
L 291.588825 197.697099 
L 295.548027 205.646819 
L 296.867761 201.540715 
L 298.187494 193.558694 
L 299.507228 205.051989 
L 300.826962 218.459982 
L 304.786164 221.488593 
L 306.105898 215.910375 
L 307.425632 218.333796 
L 308.745366 229.416824 
L 310.0651 231.308465 
L 315.344035 235.967509 
L 316.663769 243.561136 
L 317.983503 239.881814 
L 319.303237 230.743262 
L 323.262439 234.408652 
L 324.582173 246.797318 
L 325.901907 233.011825 
L 327.221641 235.200566 
L 328.541375 241.730654 
L 332.500576 261.947318 
L 333.82031 265.797818 
L 335.140044 244.649045 
L 336.459778 249.753289 
L 337.779512 258.210692 
L 341.738714 263.079198 
L 343.058448 253.895694 
L 344.378182 238.45429 
L 345.697916 234.410717 
L 347.01765 229.247453 
L 350.976851 228.608806 
L 352.296585 218.847837 
L 353.616319 224.627673 
L 354.936053 216.705475 
L 356.255787 211.681449 
L 360.214989 209.992789 
L 361.534723 205.63907 
L 362.854457 207.608016 
L 364.174191 218.236355 
L 365.493925 214.74171 
L 369.453126 205.654612 
L 370.77286 211.611996 
L 372.092594 218.495559 
L 373.412328 216.944492 
L 374.732062 217.022616 
L 378.691264 226.253098 
L 380.010998 230.108156 
L 381.330732 229.883632 
L 382.650466 238.741214 
L 387.929401 233.985293 
L 389.249135 226.199924 
L 390.568869 225.211235 
L 391.888603 235.066589 
L 393.208337 251.18399 
L 397.167539 250.318418 
L 398.487273 256.629569 
L 398.487273 256.629569 
" style="fill:none;stroke:#0d0d0d;stroke-linecap:square;stroke-opacity:0.25;stroke-width:2;"/>
   </g>
   <g id="line2d_22">
    <path clip-path="url(#pd701caac87)" d="M 73.832727 153.230264 
L 75.152461 148.204113 
L 76.472195 144.462959 
L 77.791929 147.2487 
L 79.111663 139.318489 
L 83.070865 131.975512 
L 84.390599 131.235495 
L 85.710333 131.873564 
L 87.030067 129.937714 
L 88.3498 129.701113 
L 93.628736 129.127784 
L 94.94847 130.846023 
L 96.268204 130.053918 
L 97.587938 137.097564 
L 101.54714 133.695329 
L 102.866874 138.81061 
L 104.186608 135.163562 
L 105.506341 137.028226 
L 106.826075 144.754995 
L 110.785277 154.798104 
L 112.105011 155.247851 
L 114.744479 138.512248 
L 116.064213 133.777729 
L 120.023415 128.204197 
L 121.343149 140.235251 
L 122.662882 138.610985 
L 123.982616 141.853221 
L 125.30235 130.20313 
L 129.261552 135.437667 
L 130.581286 124.787773 
L 131.90102 123.425866 
L 133.220754 120.400116 
L 134.540488 118.213844 
L 138.49969 123.403689 
L 139.819424 127.5685 
L 141.139157 129.768854 
L 142.458891 113.072478 
L 143.778625 110.293236 
L 147.737827 106.001348 
L 149.057561 100.615657 
L 150.377295 95.915591 
L 151.697029 98.84046 
L 153.016763 109.081123 
L 156.975965 109.910476 
L 158.295698 112.090479 
L 159.615432 110.717423 
L 160.935166 102.941997 
L 162.2549 102.371363 
L 167.533836 95.709126 
L 168.85357 89.620122 
L 170.173304 91.866933 
L 171.493038 95.137249 
L 175.452239 95.020184 
L 176.771973 98.685143 
L 178.091707 104.738279 
L 179.411441 105.280865 
L 180.731175 101.189398 
L 184.690377 98.630535 
L 186.010111 101.470107 
L 187.329845 98.471617 
L 188.649579 101.596559 
L 189.969313 103.439991 
L 193.928514 99.240797 
L 195.248248 92.865504 
L 196.567982 92.940782 
L 199.20745 109.134375 
L 203.166652 100.574401 
L 204.486386 114.032048 
L 205.80612 120.960621 
L 207.125854 109.916751 
L 208.445588 115.733512 
L 212.404789 103.569375 
L 213.724523 90.81363 
L 215.044257 84.62336 
L 216.363991 86.726554 
L 217.683725 84.211525 
L 221.642927 89.04173 
L 222.962661 92.053581 
L 224.282395 89.326438 
L 225.602129 84.754398 
L 226.921863 86.697625 
L 230.881064 94.128845 
L 232.200798 80.186208 
L 233.520532 77.137979 
L 234.840266 72.509078 
L 240.119202 62.100412 
L 241.438936 62.065631 
L 242.75867 61.215401 
L 244.078404 61.925167 
L 245.398137 64.955006 
L 249.357339 59.54469 
L 250.677073 52.154182 
L 251.996807 65.190251 
L 253.316541 64.389942 
L 254.636275 58.025628 
L 258.595477 60.460195 
L 259.915211 57.073161 
L 261.234945 56.06384 
L 262.554678 61.572673 
L 263.874412 61.731988 
L 270.473082 77.484034 
L 271.792816 82.963846 
L 273.11255 102.640656 
L 277.071752 102.678958 
L 278.391486 98.95465 
L 279.71122 99.551492 
L 281.030953 105.848397 
L 282.350687 88.086901 
L 286.309889 76.214981 
L 287.629623 66.312679 
L 288.949357 55.313171 
L 290.269091 87.224516 
L 291.588825 81.345365 
L 295.548027 85.148928 
L 296.867761 80.538059 
L 298.187494 72.133373 
L 299.507228 84.169538 
L 300.826962 101.211149 
L 304.786164 108.605655 
L 306.105898 98.802963 
L 307.425632 102.384881 
L 308.745366 111.160849 
L 310.0651 113.983233 
L 315.344035 120.663568 
L 316.663769 131.131231 
L 317.983503 128.589054 
L 319.303237 113.011828 
L 323.262439 118.366948 
L 324.582173 130.751544 
L 325.901907 116.526481 
L 327.221641 117.167785 
L 328.541375 117.449211 
L 332.500576 142.418471 
L 333.82031 140.559866 
L 335.140044 115.829259 
L 336.459778 124.912841 
L 337.779512 136.51546 
L 341.738714 131.261162 
L 343.058448 118.962966 
L 344.378182 104.940102 
L 345.697916 97.784324 
L 347.01765 93.325676 
L 350.976851 93.380179 
L 352.296585 79.624891 
L 353.616319 85.131424 
L 354.936053 71.945953 
L 356.255787 62.361829 
L 360.214989 60.049217 
L 361.534723 54.964789 
L 362.854457 57.916558 
L 364.174191 69.596996 
L 365.493925 66.7165 
L 369.453126 57.753886 
L 370.77286 65.744317 
L 372.092594 75.337709 
L 373.412328 78.49787 
L 374.732062 80.23631 
L 378.691264 91.521693 
L 380.010998 96.059364 
L 381.330732 93.820977 
L 382.650466 104.608006 
L 387.929401 101.152525 
L 389.249135 90.725016 
L 390.568869 91.357285 
L 391.888603 104.385237 
L 393.208337 120.353493 
L 397.167539 117.527578 
L 398.487273 132.073656 
L 398.487273 132.073656 
" style="fill:none;stroke:#0d0d0d;stroke-linecap:square;stroke-opacity:0.25;stroke-width:2;"/>
   </g>
   <g id="patch_3">
    <path d="M 57.6 276.48 
L 57.6 41.472 
" style="fill:none;stroke:#000000;stroke-linecap:square;stroke-linejoin:miter;stroke-width:0.8;"/>
   </g>
   <g id="patch_4">
    <path d="M 414.72 276.48 
L 414.72 41.472 
" style="fill:none;stroke:#000000;stroke-linecap:square;stroke-linejoin:miter;stroke-width:0.8;"/>
   </g>
   <g id="patch_5">
    <path d="M 57.6 276.48 
L 414.72 276.48 
" style="fill:none;stroke:#000000;stroke-linecap:square;stroke-linejoin:miter;stroke-width:0.8;"/>
   </g>
   <g id="patch_6">
    <path d="M 57.6 41.472 
L 414.72 41.472 
" style="fill:none;stroke:#000000;stroke-linecap:square;stroke-linejoin:miter;stroke-width:0.8;"/>
   </g>
   <g id="text_19">
    <!-- TESTFUNDS1550 -->
    <g transform="translate(185.200312 22.034625)scale(0.12 -0.12)">
     <defs>
      <path d="M -19 4666 
L 3928 4666 
L 3928 4134 
L 2272 4134 
L 2272 0 
L 1638 0 
L 1638 4134 
L -19 4134 
L -19 4666 
z
" id="DejaVuSans-54" transform="scale(0.015625)"/>
      <path d="M 628 4666 
L 3578 4666 
L 3578 4134 
L 1259 4134 
L 1259 2753 
L 3481 2753 
L 3481 2222 
L 1259 2222 
L 1259 531 
L 3634 531 
L 3634 0 
L 628 0 
L 628 4666 
z
" id="DejaVuSans-45" transform="scale(0.015625)"/>
      <path d="M 3425 4513 
L 3425 3897 
Q 3066 4069 2747 4153 
Q 2428 4238 2131 4238 
Q 1616 4238 1336 4038 
Q 1056 3838 1056 3469 
Q 1056 3159 1242 3001 
Q 1428 2844 1947 2747 
L 2328 2669 
Q 3034 2534 3370 2195 
Q 3706 1856 3706 1288 
Q 3706 609 3251 259 
Q 2797 -91 1919 -91 
Q 1588 -91 1214 -16 
Q 841 59 441 206 
L 441 856 
Q 825 641 1194 531 
Q 1563 422 1919 422 
Q 2459 422 2753 634 
Q 3047 847 3047 1241 
Q 3047 1584 2836 1778 
Q 2625 1972 2144 2069 
L 1759 2144 
Q 1053 2284 737 2584 
Q 422 2884 422 3419 
Q 422 4038 858 4394 
Q 1294 4750 2059 4750 
Q 2388 4750 2728 4690 
Q 3069 4631 3425 4513 
z
" id="DejaVuSans-53" transform="scale(0.015625)"/>
      <path d="M 628 4666 
L 3309 4666 
L 3309 4134 
L 1259 4134 
L 1259 2759 
L 3109 2759 
L 3109 2228 
L 1259 2228 
L 1259 0 
L 628 0 
L 628 4666 
z
" id="DejaVuSans-46" transform="scale(0.015625)"/>
      <path d="M 556 4666 
L 1191 4666 
L 1191 1831 
Q 1191 1081 1462 751 
Q 1734 422 2344 422 
Q 2950 422 3222 751 
Q 3494 1081 3494 1831 
L 3494 4666 
L 4128 4666 
L 4128 1753 
Q 4128 841 3676 375 
Q 3225 -91 2344 -91 
Q 1459 -91 1007 375 
Q 556 841 556 1753 
L 556 4666 
z
" id="DejaVuSans-55" transform="scale(0.015625)"/>
      <path d="M 628 4666 
L 1478 4666 
L 3547 763 
L 3547 4666 
L 4159 4666 
L 4159 0 
L 3309 0 
L 1241 3903 
L 1241 0 
L 628 0 
L 628 4666 
z
" id="DejaVuSans-4e" transform="scale(0.015625)"/>
      <path d="M 1259 4147 
L 1259 519 
L 2022 519 
Q 2988 519 3436 956 
Q 3884 1394 3884 2338 
Q 3884 3275 3436 3711 
Q 2988 4147 2022 4147 
L 1259 4147 
z
M 628 4666 
L 1925 4666 
Q 3281 4666 3915 4102 
Q 4550 3538 4550 2338 
Q 4550 1131 3912 565 
Q 3275 0 1925 0 
L 628 0 
L 628 4666 
z
" id="DejaVuSans-44" transform="scale(0.015625)"/>
     </defs>
     <use xlink:href="#DejaVuSans-54"/>
     <use x="61.083984" xlink:href="#DejaVuSans-45"/>
     <use x="124.267578" xlink:href="#DejaVuSans-53"/>
     <use x="187.744141" xlink:href="#DejaVuSans-54"/>
     <use x="248.828125" xlink:href="#DejaVuSans-46"/>
     <use x="306.347656" xlink:href="#DejaVuSans-55"/>
     <use x="379.541016" xlink:href="#DejaVuSans-4e"/>
     <use x="454.345703" xlink:href="#DejaVuSans-44"/>
     <use x="531.347656" xlink:href="#DejaVuSans-53"/>
     <use x="594.824219" xlink:href="#DejaVuSans-31"/>
     <use x="658.447266" xlink:href="#DejaVuSans-35"/>
     <use x="722.070312" xlink:href="#DejaVuSans-35"/>
     <use x="785.693359" xlink:href="#DejaVuSans-30"/>
    </g>
    <!-- daily_report -->
    <g transform="translate(200.466563 35.472)scale(0.12 -0.12)">
     <defs>
      <path d="M 603 3500 
L 1178 3500 
L 1178 0 
L 603 0 
L 603 3500 
z
M 603 4863 
L 1178 4863 
L 1178 4134 
L 603 4134 
L 603 4863 
z
" id="DejaVuSans-69" transform="scale(0.015625)"/>
      <path d="M 603 4863 
L 1178 4863 
L 1178 0 
L 603 0 
L 603 4863 
z
" id="DejaVuSans-6c" transform="scale(0.015625)"/>
      <path d="M 2059 -325 
Q 1816 -950 1584 -1140 
Q 1353 -1331 966 -1331 
L 506 -1331 
L 506 -850 
L 844 -850 
Q 1081 -850 1212 -737 
Q 1344 -625 1503 -206 
L 1606 56 
L 191 3500 
L 800 3500 
L 1894 763 
L 2988 3500 
L 3597 3500 
L 2059 -325 
z
" id="DejaVuSans-79" transform="scale(0.015625)"/>
      <path d="M 3263 -1063 
L 3263 -1509 
L -63 -1509 
L -63 -1063 
L 3263 -1063 
z
" id="DejaVuSans-5f" transform="scale(0.015625)"/>
      <path d="M 2631 2963 
Q 2534 3019 2420 3045 
Q 2306 3072 2169 3072 
Q 1681 3072 1420 2755 
Q 1159 2438 1159 1844 
L 1159 0 
L 581 0 
L 581 3500 
L 1159 3500 
L 1159 2956 
Q 1341 3275 1631 3429 
Q 1922 3584 2338 3584 
Q 2397 3584 2469 3576 
Q 2541 3569 2628 3553 
L 2631 2963 
z
" id="DejaVuSans-72" transform="scale(0.015625)"/>
      <path d="M 1159 525 
L 1159 -1331 
L 581 -1331 
L 581 3500 
L 1159 3500 
L 1159 2969 
Q 1341 3281 1617 3432 
Q 1894 3584 2278 3584 
Q 2916 3584 3314 3078 
Q 3713 2572 3713 1747 
Q 3713 922 3314 415 
Q 2916 -91 2278 -91 
Q 1894 -91 1617 61 
Q 1341 213 1159 525 
z
M 3116 1747 
Q 3116 2381 2855 2742 
Q 2594 3103 2138 3103 
Q 1681 3103 1420 2742 
Q 1159 2381 1159 1747 
Q 1159 1113 1420 752 
Q 1681 391 2138 391 
Q 2594 391 2855 752 
Q 3116 1113 3116 1747 
z
" id="DejaVuSans-70" transform="scale(0.015625)"/>
      <path d="M 1959 3097 
Q 1497 3097 1228 2736 
Q 959 2375 959 1747 
Q 959 1119 1226 758 
Q 1494 397 1959 397 
Q 2419 397 2687 759 
Q 2956 1122 2956 1747 
Q 2956 2369 2687 2733 
Q 2419 3097 1959 3097 
z
M 1959 3584 
Q 2709 3584 3137 3096 
Q 3566 2609 3566 1747 
Q 3566 888 3137 398 
Q 2709 -91 1959 -91 
Q 1206 -91 779 398 
Q 353 888 353 1747 
Q 353 2609 779 3096 
Q 1206 3584 1959 3584 
z
" id="DejaVuSans-6f" transform="scale(0.015625)"/>
     </defs>
     <use xlink:href="#DejaVuSans-64"/>
     <use x="63.476562" xlink:href="#DejaVuSans-61"/>
     <use x="124.755859" xlink:href="#DejaVuSans-69"/>
     <use x="152.539062" xlink:href="#DejaVuSans-6c"/>
     <use x="180.322266" xlink:href="#DejaVuSans-79"/>
     <use x="239.501953" xlink:href="#DejaVuSans-5f"/>
     <use x="289.501953" xlink:href="#DejaVuSans-72"/>
     <use x="328.365234" xlink:href="#DejaVuSans-65"/>
     <use x="389.888672" xlink:href="#DejaVuSans-70"/>
     <use x="453.365234" xlink:href="#DejaVuSans-6f"/>
     <use x="514.546875" xlink:href="#DejaVuSans-72"/>
     <use x="555.660156" xlink:href="#DejaVuSans-74"/>
    </g>
   </g>
   <g id="legend_1">
    <g id="patch_7">
     <path d="M 64.6 271.48 
L 155.792188 271.48 
Q 157.792188 271.48 157.792188 269.48 
L 157.792188 197.089375 
Q 157.792188 195.089375 155.792188 195.089375 
L 64.6 195.089375 
Q 62.6 195.089375 62.6 197.089375 
L 62.6 269.48 
Q 62.6 271.48 64.6 271.48 
z
" style="fill:#ffffff;opacity:0.8;stroke:#cccccc;stroke-linejoin:miter;"/>
    </g>
    <g id="line2d_23">
     <path d="M 66.6 203.187812 
L 86.6 203.187812 
" style="fill:none;stroke:#0000ff;stroke-linecap:square;stroke-opacity:0.9;stroke-width:2;"/>
    </g>
    <g id="line2d_24"/>
    <g id="text_20">
     <!-- alpaca -->
     <g transform="translate(94.6 206.687812)scale(0.1 -0.1)">
      <defs>
       <path d="M 3122 3366 
L 3122 2828 
Q 2878 2963 2633 3030 
Q 2388 3097 2138 3097 
Q 1578 3097 1268 2742 
Q 959 2388 959 1747 
Q 959 1106 1268 751 
Q 1578 397 2138 397 
Q 2388 397 2633 464 
Q 2878 531 3122 666 
L 3122 134 
Q 2881 22 2623 -34 
Q 2366 -91 2075 -91 
Q 1284 -91 818 406 
Q 353 903 353 1747 
Q 353 2603 823 3093 
Q 1294 3584 2113 3584 
Q 2378 3584 2631 3529 
Q 2884 3475 3122 3366 
z
" id="DejaVuSans-63" transform="scale(0.015625)"/>
      </defs>
      <use xlink:href="#DejaVuSans-61"/>
      <use x="61.279297" xlink:href="#DejaVuSans-6c"/>
      <use x="89.0625" xlink:href="#DejaVuSans-70"/>
      <use x="152.539062" xlink:href="#DejaVuSans-61"/>
      <use x="213.818359" xlink:href="#DejaVuSans-63"/>
      <use x="268.798828" xlink:href="#DejaVuSans-61"/>
     </g>
    </g>
    <g id="line2d_25">
     <path d="M 66.6 217.865937 
L 86.6 217.865937 
" style="fill:none;stroke:#ff0000;stroke-linecap:square;stroke-opacity:0.9;stroke-width:2;"/>
    </g>
    <g id="line2d_26"/>
    <g id="text_21">
     <!-- mattress -->
     <g transform="translate(94.6 221.365937)scale(0.1 -0.1)">
      <defs>
       <path d="M 3328 2828 
Q 3544 3216 3844 3400 
Q 4144 3584 4550 3584 
Q 5097 3584 5394 3201 
Q 5691 2819 5691 2113 
L 5691 0 
L 5113 0 
L 5113 2094 
Q 5113 2597 4934 2840 
Q 4756 3084 4391 3084 
Q 3944 3084 3684 2787 
Q 3425 2491 3425 1978 
L 3425 0 
L 2847 0 
L 2847 2094 
Q 2847 2600 2669 2842 
Q 2491 3084 2119 3084 
Q 1678 3084 1418 2786 
Q 1159 2488 1159 1978 
L 1159 0 
L 581 0 
L 581 3500 
L 1159 3500 
L 1159 2956 
Q 1356 3278 1631 3431 
Q 1906 3584 2284 3584 
Q 2666 3584 2933 3390 
Q 3200 3197 3328 2828 
z
" id="DejaVuSans-6d" transform="scale(0.015625)"/>
       <path d="M 2834 3397 
L 2834 2853 
Q 2591 2978 2328 3040 
Q 2066 3103 1784 3103 
Q 1356 3103 1142 2972 
Q 928 2841 928 2578 
Q 928 2378 1081 2264 
Q 1234 2150 1697 2047 
L 1894 2003 
Q 2506 1872 2764 1633 
Q 3022 1394 3022 966 
Q 3022 478 2636 193 
Q 2250 -91 1575 -91 
Q 1294 -91 989 -36 
Q 684 19 347 128 
L 347 722 
Q 666 556 975 473 
Q 1284 391 1588 391 
Q 1994 391 2212 530 
Q 2431 669 2431 922 
Q 2431 1156 2273 1281 
Q 2116 1406 1581 1522 
L 1381 1569 
Q 847 1681 609 1914 
Q 372 2147 372 2553 
Q 372 3047 722 3315 
Q 1072 3584 1716 3584 
Q 2034 3584 2315 3537 
Q 2597 3491 2834 3397 
z
" id="DejaVuSans-73" transform="scale(0.015625)"/>
      </defs>
      <use xlink:href="#DejaVuSans-6d"/>
      <use x="97.412109" xlink:href="#DejaVuSans-61"/>
      <use x="158.691406" xlink:href="#DejaVuSans-74"/>
      <use x="197.900391" xlink:href="#DejaVuSans-74"/>
      <use x="237.109375" xlink:href="#DejaVuSans-72"/>
      <use x="275.972656" xlink:href="#DejaVuSans-65"/>
      <use x="337.496094" xlink:href="#DejaVuSans-73"/>
      <use x="389.595703" xlink:href="#DejaVuSans-73"/>
     </g>
    </g>
    <g id="line2d_27">
     <path d="M 66.6 232.544062 
L 86.6 232.544062 
" style="fill:none;stroke:#ff8040;stroke-linecap:square;stroke-opacity:0.9;stroke-width:2;"/>
    </g>
    <g id="line2d_28"/>
    <g id="text_22">
     <!-- trader-0850 -->
     <g transform="translate(94.6 236.044062)scale(0.1 -0.1)">
      <use xlink:href="#DejaVuSans-74"/>
      <use x="39.208984" xlink:href="#DejaVuSans-72"/>
      <use x="80.322266" xlink:href="#DejaVuSans-61"/>
      <use x="141.601562" xlink:href="#DejaVuSans-64"/>
      <use x="205.078125" xlink:href="#DejaVuSans-65"/>
      <use x="266.601562" xlink:href="#DejaVuSans-72"/>
      <use x="301.339844" xlink:href="#DejaVuSans-2d"/>
      <use x="337.423828" xlink:href="#DejaVuSans-30"/>
      <use x="401.046875" xlink:href="#DejaVuSans-38"/>
      <use x="464.669922" xlink:href="#DejaVuSans-35"/>
      <use x="528.292969" xlink:href="#DejaVuSans-30"/>
     </g>
    </g>
    <g id="line2d_29">
     <path d="M 66.6 247.222187 
L 86.6 247.222187 
" style="fill:none;stroke:#0d0d0d;stroke-linecap:square;stroke-opacity:0.25;stroke-width:2;"/>
    </g>
    <g id="line2d_30"/>
    <g id="text_23">
     <!-- rando-min -->
     <g transform="translate(94.6 250.722187)scale(0.1 -0.1)">
      <defs>
       <path d="M 3513 2113 
L 3513 0 
L 2938 0 
L 2938 2094 
Q 2938 2591 2744 2837 
Q 2550 3084 2163 3084 
Q 1697 3084 1428 2787 
Q 1159 2491 1159 1978 
L 1159 0 
L 581 0 
L 581 3500 
L 1159 3500 
L 1159 2956 
Q 1366 3272 1645 3428 
Q 1925 3584 2291 3584 
Q 2894 3584 3203 3211 
Q 3513 2838 3513 2113 
z
" id="DejaVuSans-6e" transform="scale(0.015625)"/>
      </defs>
      <use xlink:href="#DejaVuSans-72"/>
      <use x="41.113281" xlink:href="#DejaVuSans-61"/>
      <use x="102.392578" xlink:href="#DejaVuSans-6e"/>
      <use x="165.771484" xlink:href="#DejaVuSans-64"/>
      <use x="229.248047" xlink:href="#DejaVuSans-6f"/>
      <use x="292.304688" xlink:href="#DejaVuSans-2d"/>
      <use x="328.388672" xlink:href="#DejaVuSans-6d"/>
      <use x="425.800781" xlink:href="#DejaVuSans-69"/>
      <use x="453.583984" xlink:href="#DejaVuSans-6e"/>
     </g>
    </g>
    <g id="line2d_31">
     <path d="M 66.6 261.900312 
L 86.6 261.900312 
" style="fill:none;stroke:#0d0d0d;stroke-linecap:square;stroke-opacity:0.25;stroke-width:2;"/>
    </g>
    <g id="line2d_32"/>
    <g id="text_24">
     <!-- rando-max -->
     <g transform="translate(94.6 265.400312)scale(0.1 -0.1)">
      <defs>
       <path d="M 3513 3500 
L 2247 1797 
L 3578 0 
L 2900 0 
L 1881 1375 
L 863 0 
L 184 0 
L 1544 1831 
L 300 3500 
L 978 3500 
L 1906 2253 
L 2834 3500 
L 3513 3500 
z
" id="DejaVuSans-78" transform="scale(0.015625)"/>
      </defs>
      <use xlink:href="#DejaVuSans-72"/>
      <use x="41.113281" xlink:href="#DejaVuSans-61"/>
      <use x="102.392578" xlink:href="#DejaVuSans-6e"/>
      <use x="165.771484" xlink:href="#DejaVuSans-64"/>
      <use x="229.248047" xlink:href="#DejaVuSans-6f"/>
      <use x="292.304688" xlink:href="#DejaVuSans-2d"/>
      <use x="328.388672" xlink:href="#DejaVuSans-6d"/>
      <use x="425.800781" xlink:href="#DejaVuSans-61"/>
      <use x="487.080078" xlink:href="#DejaVuSans-78"/>
     </g>
    </g>
   </g>
  </g>
 </g>
 <defs>
  <clipPath id="pd701caac87">
   <rect height="235.008" width="357.12" x="57.6" y="41.472"/>
  </clipPath>
 </defs>
</svg>
