<?xml version="1.0" encoding="utf-8" standalone="no"?>
<!DOCTYPE svg PUBLIC "-//W3C//DTD SVG 1.1//EN"
  "http://www.w3.org/Graphics/SVG/1.1/DTD/svg11.dtd">
<svg height="345.6pt" version="1.1" viewBox="0 0 460.8 345.6" width="460.8pt" xmlns="http://www.w3.org/2000/svg" xmlns:xlink="http://www.w3.org/1999/xlink">
 <metadata>
  <rdf:RDF xmlns:cc="http://creativecommons.org/ns#" xmlns:dc="http://purl.org/dc/elements/1.1/" xmlns:rdf="http://www.w3.org/1999/02/22-rdf-syntax-ns#">
   <cc:Work>
    <dc:type rdf:resource="http://purl.org/dc/dcmitype/StillImage"/>
    <dc:date>2022-04-27T01:01:46.059900</dc:date>
    <dc:format>image/svg+xml</dc:format>
    <dc:creator>
     <cc:Agent>
      <dc:title>Matplotlib v3.4.3, https://matplotlib.org/</dc:title>
     </cc:Agent>
    </dc:creator>
   </cc:Work>
  </rdf:RDF>
 </metadata>
 <defs>
  <style type="text/css">*{stroke-linecap:butt;stroke-linejoin:round;}</style>
 </defs>
 <g id="figure_1">
  <g id="patch_1">
   <path d="M 0 345.6 
L 460.8 345.6 
L 460.8 0 
L 0 0 
z
" style="fill:#ffffff;"/>
  </g>
  <g id="axes_1">
   <g id="patch_2">
    <path d="M 57.6 276.48 
L 414.72 276.48 
L 414.72 41.472 
L 57.6 41.472 
z
" style="fill:#ffffff;"/>
   </g>
   <g id="matplotlib.axis_1">
    <g id="xtick_1">
     <g id="line2d_1">
      <defs>
       <path d="M 0 0 
L 0 3.5 
" id="m01974a593b" style="stroke:#000000;stroke-width:0.8;"/>
      </defs>
      <g>
       <use style="stroke:#000000;stroke-width:0.8;" x="85.710333" xlink:href="#m01974a593b" y="276.48"/>
      </g>
     </g>
     <g id="text_1">
      <!-- 2021-09 -->
      <g transform="translate(48.485512 310.951846)rotate(-30)scale(0.1 -0.1)">
       <defs>
        <path d="M 1228 531 
L 3431 531 
L 3431 0 
L 469 0 
L 469 531 
Q 828 903 1448 1529 
Q 2069 2156 2228 2338 
Q 2531 2678 2651 2914 
Q 2772 3150 2772 3378 
Q 2772 3750 2511 3984 
Q 2250 4219 1831 4219 
Q 1534 4219 1204 4116 
Q 875 4013 500 3803 
L 500 4441 
Q 881 4594 1212 4672 
Q 1544 4750 1819 4750 
Q 2544 4750 2975 4387 
Q 3406 4025 3406 3419 
Q 3406 3131 3298 2873 
Q 3191 2616 2906 2266 
Q 2828 2175 2409 1742 
Q 1991 1309 1228 531 
z
" id="DejaVuSans-32" transform="scale(0.015625)"/>
        <path d="M 2034 4250 
Q 1547 4250 1301 3770 
Q 1056 3291 1056 2328 
Q 1056 1369 1301 889 
Q 1547 409 2034 409 
Q 2525 409 2770 889 
Q 3016 1369 3016 2328 
Q 3016 3291 2770 3770 
Q 2525 4250 2034 4250 
z
M 2034 4750 
Q 2819 4750 3233 4129 
Q 3647 3509 3647 2328 
Q 3647 1150 3233 529 
Q 2819 -91 2034 -91 
Q 1250 -91 836 529 
Q 422 1150 422 2328 
Q 422 3509 836 4129 
Q 1250 4750 2034 4750 
z
" id="DejaVuSans-30" transform="scale(0.015625)"/>
        <path d="M 794 531 
L 1825 531 
L 1825 4091 
L 703 3866 
L 703 4441 
L 1819 4666 
L 2450 4666 
L 2450 531 
L 3481 531 
L 3481 0 
L 794 0 
L 794 531 
z
" id="DejaVuSans-31" transform="scale(0.015625)"/>
        <path d="M 313 2009 
L 1997 2009 
L 1997 1497 
L 313 1497 
L 313 2009 
z
" id="DejaVuSans-2d" transform="scale(0.015625)"/>
        <path d="M 703 97 
L 703 672 
Q 941 559 1184 500 
Q 1428 441 1663 441 
Q 2288 441 2617 861 
Q 2947 1281 2994 2138 
Q 2813 1869 2534 1725 
Q 2256 1581 1919 1581 
Q 1219 1581 811 2004 
Q 403 2428 403 3163 
Q 403 3881 828 4315 
Q 1253 4750 1959 4750 
Q 2769 4750 3195 4129 
Q 3622 3509 3622 2328 
Q 3622 1225 3098 567 
Q 2575 -91 1691 -91 
Q 1453 -91 1209 -44 
Q 966 3 703 97 
z
M 1959 2075 
Q 2384 2075 2632 2365 
Q 2881 2656 2881 3163 
Q 2881 3666 2632 3958 
Q 2384 4250 1959 4250 
Q 1534 4250 1286 3958 
Q 1038 3666 1038 3163 
Q 1038 2656 1286 2365 
Q 1534 2075 1959 2075 
z
" id="DejaVuSans-39" transform="scale(0.015625)"/>
       </defs>
       <use xlink:href="#DejaVuSans-32"/>
       <use x="63.623047" xlink:href="#DejaVuSans-30"/>
       <use x="127.246094" xlink:href="#DejaVuSans-32"/>
       <use x="190.869141" xlink:href="#DejaVuSans-31"/>
       <use x="254.492188" xlink:href="#DejaVuSans-2d"/>
       <use x="290.576172" xlink:href="#DejaVuSans-30"/>
       <use x="354.199219" xlink:href="#DejaVuSans-39"/>
      </g>
     </g>
    </g>
    <g id="xtick_2">
     <g id="line2d_2">
      <g>
       <use style="stroke:#000000;stroke-width:0.8;" x="125.30235" xlink:href="#m01974a593b" y="276.48"/>
      </g>
     </g>
     <g id="text_2">
      <!-- 2021-10 -->
      <g transform="translate(88.07753 310.951846)rotate(-30)scale(0.1 -0.1)">
       <use xlink:href="#DejaVuSans-32"/>
       <use x="63.623047" xlink:href="#DejaVuSans-30"/>
       <use x="127.246094" xlink:href="#DejaVuSans-32"/>
       <use x="190.869141" xlink:href="#DejaVuSans-31"/>
       <use x="254.492188" xlink:href="#DejaVuSans-2d"/>
       <use x="290.576172" xlink:href="#DejaVuSans-31"/>
       <use x="354.199219" xlink:href="#DejaVuSans-30"/>
      </g>
     </g>
    </g>
    <g id="xtick_3">
     <g id="line2d_3">
      <g>
       <use style="stroke:#000000;stroke-width:0.8;" x="166.214102" xlink:href="#m01974a593b" y="276.48"/>
      </g>
     </g>
     <g id="text_3">
      <!-- 2021-11 -->
      <g transform="translate(128.989281 310.951846)rotate(-30)scale(0.1 -0.1)">
       <use xlink:href="#DejaVuSans-32"/>
       <use x="63.623047" xlink:href="#DejaVuSans-30"/>
       <use x="127.246094" xlink:href="#DejaVuSans-32"/>
       <use x="190.869141" xlink:href="#DejaVuSans-31"/>
       <use x="254.492188" xlink:href="#DejaVuSans-2d"/>
       <use x="290.576172" xlink:href="#DejaVuSans-31"/>
       <use x="354.199219" xlink:href="#DejaVuSans-31"/>
      </g>
     </g>
    </g>
    <g id="xtick_4">
     <g id="line2d_4">
      <g>
       <use style="stroke:#000000;stroke-width:0.8;" x="205.80612" xlink:href="#m01974a593b" y="276.48"/>
      </g>
     </g>
     <g id="text_4">
      <!-- 2021-12 -->
      <g transform="translate(168.581299 310.951846)rotate(-30)scale(0.1 -0.1)">
       <use xlink:href="#DejaVuSans-32"/>
       <use x="63.623047" xlink:href="#DejaVuSans-30"/>
       <use x="127.246094" xlink:href="#DejaVuSans-32"/>
       <use x="190.869141" xlink:href="#DejaVuSans-31"/>
       <use x="254.492188" xlink:href="#DejaVuSans-2d"/>
       <use x="290.576172" xlink:href="#DejaVuSans-31"/>
       <use x="354.199219" xlink:href="#DejaVuSans-32"/>
      </g>
     </g>
    </g>
    <g id="xtick_5">
     <g id="line2d_5">
      <g>
       <use style="stroke:#000000;stroke-width:0.8;" x="246.717871" xlink:href="#m01974a593b" y="276.48"/>
      </g>
     </g>
     <g id="text_5">
      <!-- 2022-01 -->
      <g transform="translate(209.493051 310.951846)rotate(-30)scale(0.1 -0.1)">
       <use xlink:href="#DejaVuSans-32"/>
       <use x="63.623047" xlink:href="#DejaVuSans-30"/>
       <use x="127.246094" xlink:href="#DejaVuSans-32"/>
       <use x="190.869141" xlink:href="#DejaVuSans-32"/>
       <use x="254.492188" xlink:href="#DejaVuSans-2d"/>
       <use x="290.576172" xlink:href="#DejaVuSans-30"/>
       <use x="354.199219" xlink:href="#DejaVuSans-31"/>
      </g>
     </g>
    </g>
    <g id="xtick_6">
     <g id="line2d_6">
      <g>
       <use style="stroke:#000000;stroke-width:0.8;" x="287.629623" xlink:href="#m01974a593b" y="276.48"/>
      </g>
     </g>
     <g id="text_6">
      <!-- 2022-02 -->
      <g transform="translate(250.404802 310.951846)rotate(-30)scale(0.1 -0.1)">
       <use xlink:href="#DejaVuSans-32"/>
       <use x="63.623047" xlink:href="#DejaVuSans-30"/>
       <use x="127.246094" xlink:href="#DejaVuSans-32"/>
       <use x="190.869141" xlink:href="#DejaVuSans-32"/>
       <use x="254.492188" xlink:href="#DejaVuSans-2d"/>
       <use x="290.576172" xlink:href="#DejaVuSans-30"/>
       <use x="354.199219" xlink:href="#DejaVuSans-32"/>
      </g>
     </g>
    </g>
    <g id="xtick_7">
     <g id="line2d_7">
      <g>
       <use style="stroke:#000000;stroke-width:0.8;" x="324.582173" xlink:href="#m01974a593b" y="276.48"/>
      </g>
     </g>
     <g id="text_7">
      <!-- 2022-03 -->
      <g transform="translate(287.357352 310.951846)rotate(-30)scale(0.1 -0.1)">
       <defs>
        <path d="M 2597 2516 
Q 3050 2419 3304 2112 
Q 3559 1806 3559 1356 
Q 3559 666 3084 287 
Q 2609 -91 1734 -91 
Q 1441 -91 1130 -33 
Q 819 25 488 141 
L 488 750 
Q 750 597 1062 519 
Q 1375 441 1716 441 
Q 2309 441 2620 675 
Q 2931 909 2931 1356 
Q 2931 1769 2642 2001 
Q 2353 2234 1838 2234 
L 1294 2234 
L 1294 2753 
L 1863 2753 
Q 2328 2753 2575 2939 
Q 2822 3125 2822 3475 
Q 2822 3834 2567 4026 
Q 2313 4219 1838 4219 
Q 1578 4219 1281 4162 
Q 984 4106 628 3988 
L 628 4550 
Q 988 4650 1302 4700 
Q 1616 4750 1894 4750 
Q 2613 4750 3031 4423 
Q 3450 4097 3450 3541 
Q 3450 3153 3228 2886 
Q 3006 2619 2597 2516 
z
" id="DejaVuSans-33" transform="scale(0.015625)"/>
       </defs>
       <use xlink:href="#DejaVuSans-32"/>
       <use x="63.623047" xlink:href="#DejaVuSans-30"/>
       <use x="127.246094" xlink:href="#DejaVuSans-32"/>
       <use x="190.869141" xlink:href="#DejaVuSans-32"/>
       <use x="254.492188" xlink:href="#DejaVuSans-2d"/>
       <use x="290.576172" xlink:href="#DejaVuSans-30"/>
       <use x="354.199219" xlink:href="#DejaVuSans-33"/>
      </g>
     </g>
    </g>
    <g id="xtick_8">
     <g id="line2d_8">
      <g>
       <use style="stroke:#000000;stroke-width:0.8;" x="365.493925" xlink:href="#m01974a593b" y="276.48"/>
      </g>
     </g>
     <g id="text_8">
      <!-- 2022-04 -->
      <g transform="translate(328.269104 310.951846)rotate(-30)scale(0.1 -0.1)">
       <defs>
        <path d="M 2419 4116 
L 825 1625 
L 2419 1625 
L 2419 4116 
z
M 2253 4666 
L 3047 4666 
L 3047 1625 
L 3713 1625 
L 3713 1100 
L 3047 1100 
L 3047 0 
L 2419 0 
L 2419 1100 
L 313 1100 
L 313 1709 
L 2253 4666 
z
" id="DejaVuSans-34" transform="scale(0.015625)"/>
       </defs>
       <use xlink:href="#DejaVuSans-32"/>
       <use x="63.623047" xlink:href="#DejaVuSans-30"/>
       <use x="127.246094" xlink:href="#DejaVuSans-32"/>
       <use x="190.869141" xlink:href="#DejaVuSans-32"/>
       <use x="254.492188" xlink:href="#DejaVuSans-2d"/>
       <use x="290.576172" xlink:href="#DejaVuSans-30"/>
       <use x="354.199219" xlink:href="#DejaVuSans-34"/>
      </g>
     </g>
    </g>
    <g id="xtick_9">
     <g id="line2d_9">
      <g>
       <use style="stroke:#000000;stroke-width:0.8;" x="405.085942" xlink:href="#m01974a593b" y="276.48"/>
      </g>
     </g>
     <g id="text_9">
      <!-- 2022-05 -->
      <g transform="translate(367.861122 310.951846)rotate(-30)scale(0.1 -0.1)">
       <defs>
        <path d="M 691 4666 
L 3169 4666 
L 3169 4134 
L 1269 4134 
L 1269 2991 
Q 1406 3038 1543 3061 
Q 1681 3084 1819 3084 
Q 2600 3084 3056 2656 
Q 3513 2228 3513 1497 
Q 3513 744 3044 326 
Q 2575 -91 1722 -91 
Q 1428 -91 1123 -41 
Q 819 9 494 109 
L 494 744 
Q 775 591 1075 516 
Q 1375 441 1709 441 
Q 2250 441 2565 725 
Q 2881 1009 2881 1497 
Q 2881 1984 2565 2268 
Q 2250 2553 1709 2553 
Q 1456 2553 1204 2497 
Q 953 2441 691 2322 
L 691 4666 
z
" id="DejaVuSans-35" transform="scale(0.015625)"/>
       </defs>
       <use xlink:href="#DejaVuSans-32"/>
       <use x="63.623047" xlink:href="#DejaVuSans-30"/>
       <use x="127.246094" xlink:href="#DejaVuSans-32"/>
       <use x="190.869141" xlink:href="#DejaVuSans-32"/>
       <use x="254.492188" xlink:href="#DejaVuSans-2d"/>
       <use x="290.576172" xlink:href="#DejaVuSans-30"/>
       <use x="354.199219" xlink:href="#DejaVuSans-35"/>
      </g>
     </g>
    </g>
    <g id="text_10">
     <!-- date -->
     <g transform="translate(224.885 324.351346)scale(0.1 -0.1)">
      <defs>
       <path d="M 2906 2969 
L 2906 4863 
L 3481 4863 
L 3481 0 
L 2906 0 
L 2906 525 
Q 2725 213 2448 61 
Q 2172 -91 1784 -91 
Q 1150 -91 751 415 
Q 353 922 353 1747 
Q 353 2572 751 3078 
Q 1150 3584 1784 3584 
Q 2172 3584 2448 3432 
Q 2725 3281 2906 2969 
z
M 947 1747 
Q 947 1113 1208 752 
Q 1469 391 1925 391 
Q 2381 391 2643 752 
Q 2906 1113 2906 1747 
Q 2906 2381 2643 2742 
Q 2381 3103 1925 3103 
Q 1469 3103 1208 2742 
Q 947 2381 947 1747 
z
" id="DejaVuSans-64" transform="scale(0.015625)"/>
       <path d="M 2194 1759 
Q 1497 1759 1228 1600 
Q 959 1441 959 1056 
Q 959 750 1161 570 
Q 1363 391 1709 391 
Q 2188 391 2477 730 
Q 2766 1069 2766 1631 
L 2766 1759 
L 2194 1759 
z
M 3341 1997 
L 3341 0 
L 2766 0 
L 2766 531 
Q 2569 213 2275 61 
Q 1981 -91 1556 -91 
Q 1019 -91 701 211 
Q 384 513 384 1019 
Q 384 1609 779 1909 
Q 1175 2209 1959 2209 
L 2766 2209 
L 2766 2266 
Q 2766 2663 2505 2880 
Q 2244 3097 1772 3097 
Q 1472 3097 1187 3025 
Q 903 2953 641 2809 
L 641 3341 
Q 956 3463 1253 3523 
Q 1550 3584 1831 3584 
Q 2591 3584 2966 3190 
Q 3341 2797 3341 1997 
z
" id="DejaVuSans-61" transform="scale(0.015625)"/>
       <path d="M 1172 4494 
L 1172 3500 
L 2356 3500 
L 2356 3053 
L 1172 3053 
L 1172 1153 
Q 1172 725 1289 603 
Q 1406 481 1766 481 
L 2356 481 
L 2356 0 
L 1766 0 
Q 1100 0 847 248 
Q 594 497 594 1153 
L 594 3053 
L 172 3053 
L 172 3500 
L 594 3500 
L 594 4494 
L 1172 4494 
z
" id="DejaVuSans-74" transform="scale(0.015625)"/>
       <path d="M 3597 1894 
L 3597 1613 
L 953 1613 
Q 991 1019 1311 708 
Q 1631 397 2203 397 
Q 2534 397 2845 478 
Q 3156 559 3463 722 
L 3463 178 
Q 3153 47 2828 -22 
Q 2503 -91 2169 -91 
Q 1331 -91 842 396 
Q 353 884 353 1716 
Q 353 2575 817 3079 
Q 1281 3584 2069 3584 
Q 2775 3584 3186 3129 
Q 3597 2675 3597 1894 
z
M 3022 2063 
Q 3016 2534 2758 2815 
Q 2500 3097 2075 3097 
Q 1594 3097 1305 2825 
Q 1016 2553 972 2059 
L 3022 2063 
z
" id="DejaVuSans-65" transform="scale(0.015625)"/>
      </defs>
      <use xlink:href="#DejaVuSans-64"/>
      <use x="63.476562" xlink:href="#DejaVuSans-61"/>
      <use x="124.755859" xlink:href="#DejaVuSans-74"/>
      <use x="163.964844" xlink:href="#DejaVuSans-65"/>
     </g>
    </g>
   </g>
   <g id="matplotlib.axis_2">
    <g id="ytick_1">
     <g id="line2d_10">
      <defs>
       <path d="M 0 0 
L -3.5 0 
" id="mf17c220861" style="stroke:#000000;stroke-width:0.8;"/>
      </defs>
      <g>
       <use style="stroke:#000000;stroke-width:0.8;" x="57.6" xlink:href="#mf17c220861" y="263.451796"/>
      </g>
     </g>
     <g id="text_11">
      <!-- 80000 -->
      <g transform="translate(18.7875 267.251015)scale(0.1 -0.1)">
       <defs>
        <path d="M 2034 2216 
Q 1584 2216 1326 1975 
Q 1069 1734 1069 1313 
Q 1069 891 1326 650 
Q 1584 409 2034 409 
Q 2484 409 2743 651 
Q 3003 894 3003 1313 
Q 3003 1734 2745 1975 
Q 2488 2216 2034 2216 
z
M 1403 2484 
Q 997 2584 770 2862 
Q 544 3141 544 3541 
Q 544 4100 942 4425 
Q 1341 4750 2034 4750 
Q 2731 4750 3128 4425 
Q 3525 4100 3525 3541 
Q 3525 3141 3298 2862 
Q 3072 2584 2669 2484 
Q 3125 2378 3379 2068 
Q 3634 1759 3634 1313 
Q 3634 634 3220 271 
Q 2806 -91 2034 -91 
Q 1263 -91 848 271 
Q 434 634 434 1313 
Q 434 1759 690 2068 
Q 947 2378 1403 2484 
z
M 1172 3481 
Q 1172 3119 1398 2916 
Q 1625 2713 2034 2713 
Q 2441 2713 2670 2916 
Q 2900 3119 2900 3481 
Q 2900 3844 2670 4047 
Q 2441 4250 2034 4250 
Q 1625 4250 1398 4047 
Q 1172 3844 1172 3481 
z
" id="DejaVuSans-38" transform="scale(0.015625)"/>
       </defs>
       <use xlink:href="#DejaVuSans-38"/>
       <use x="63.623047" xlink:href="#DejaVuSans-30"/>
       <use x="127.246094" xlink:href="#DejaVuSans-30"/>
       <use x="190.869141" xlink:href="#DejaVuSans-30"/>
       <use x="254.492188" xlink:href="#DejaVuSans-30"/>
      </g>
     </g>
    </g>
    <g id="ytick_2">
     <g id="line2d_11">
      <g>
       <use style="stroke:#000000;stroke-width:0.8;" x="57.6" xlink:href="#mf17c220861" y="234.653"/>
      </g>
     </g>
     <g id="text_12">
      <!-- 85000 -->
      <g transform="translate(18.7875 238.452218)scale(0.1 -0.1)">
       <use xlink:href="#DejaVuSans-38"/>
       <use x="63.623047" xlink:href="#DejaVuSans-35"/>
       <use x="127.246094" xlink:href="#DejaVuSans-30"/>
       <use x="190.869141" xlink:href="#DejaVuSans-30"/>
       <use x="254.492188" xlink:href="#DejaVuSans-30"/>
      </g>
     </g>
    </g>
    <g id="ytick_3">
     <g id="line2d_12">
      <g>
       <use style="stroke:#000000;stroke-width:0.8;" x="57.6" xlink:href="#mf17c220861" y="205.854203"/>
      </g>
     </g>
     <g id="text_13">
      <!-- 90000 -->
      <g transform="translate(18.7875 209.653422)scale(0.1 -0.1)">
       <use xlink:href="#DejaVuSans-39"/>
       <use x="63.623047" xlink:href="#DejaVuSans-30"/>
       <use x="127.246094" xlink:href="#DejaVuSans-30"/>
       <use x="190.869141" xlink:href="#DejaVuSans-30"/>
       <use x="254.492188" xlink:href="#DejaVuSans-30"/>
      </g>
     </g>
    </g>
    <g id="ytick_4">
     <g id="line2d_13">
      <g>
       <use style="stroke:#000000;stroke-width:0.8;" x="57.6" xlink:href="#mf17c220861" y="177.055406"/>
      </g>
     </g>
     <g id="text_14">
      <!-- 95000 -->
      <g transform="translate(18.7875 180.854625)scale(0.1 -0.1)">
       <use xlink:href="#DejaVuSans-39"/>
       <use x="63.623047" xlink:href="#DejaVuSans-35"/>
       <use x="127.246094" xlink:href="#DejaVuSans-30"/>
       <use x="190.869141" xlink:href="#DejaVuSans-30"/>
       <use x="254.492188" xlink:href="#DejaVuSans-30"/>
      </g>
     </g>
    </g>
    <g id="ytick_5">
     <g id="line2d_14">
      <g>
       <use style="stroke:#000000;stroke-width:0.8;" x="57.6" xlink:href="#mf17c220861" y="148.25661"/>
      </g>
     </g>
     <g id="text_15">
      <!-- 100000 -->
      <g transform="translate(12.425 152.055828)scale(0.1 -0.1)">
       <use xlink:href="#DejaVuSans-31"/>
       <use x="63.623047" xlink:href="#DejaVuSans-30"/>
       <use x="127.246094" xlink:href="#DejaVuSans-30"/>
       <use x="190.869141" xlink:href="#DejaVuSans-30"/>
       <use x="254.492188" xlink:href="#DejaVuSans-30"/>
       <use x="318.115234" xlink:href="#DejaVuSans-30"/>
      </g>
     </g>
    </g>
    <g id="ytick_6">
     <g id="line2d_15">
      <g>
       <use style="stroke:#000000;stroke-width:0.8;" x="57.6" xlink:href="#mf17c220861" y="119.457813"/>
      </g>
     </g>
     <g id="text_16">
      <!-- 105000 -->
      <g transform="translate(12.425 123.257032)scale(0.1 -0.1)">
       <use xlink:href="#DejaVuSans-31"/>
       <use x="63.623047" xlink:href="#DejaVuSans-30"/>
       <use x="127.246094" xlink:href="#DejaVuSans-35"/>
       <use x="190.869141" xlink:href="#DejaVuSans-30"/>
       <use x="254.492188" xlink:href="#DejaVuSans-30"/>
       <use x="318.115234" xlink:href="#DejaVuSans-30"/>
      </g>
     </g>
    </g>
    <g id="ytick_7">
     <g id="line2d_16">
      <g>
       <use style="stroke:#000000;stroke-width:0.8;" x="57.6" xlink:href="#mf17c220861" y="90.659016"/>
      </g>
     </g>
     <g id="text_17">
      <!-- 110000 -->
      <g transform="translate(12.425 94.458235)scale(0.1 -0.1)">
       <use xlink:href="#DejaVuSans-31"/>
       <use x="63.623047" xlink:href="#DejaVuSans-31"/>
       <use x="127.246094" xlink:href="#DejaVuSans-30"/>
       <use x="190.869141" xlink:href="#DejaVuSans-30"/>
       <use x="254.492188" xlink:href="#DejaVuSans-30"/>
       <use x="318.115234" xlink:href="#DejaVuSans-30"/>
      </g>
     </g>
    </g>
    <g id="ytick_8">
     <g id="line2d_17">
      <g>
       <use style="stroke:#000000;stroke-width:0.8;" x="57.6" xlink:href="#mf17c220861" y="61.86022"/>
      </g>
     </g>
     <g id="text_18">
      <!-- 115000 -->
      <g transform="translate(12.425 65.659438)scale(0.1 -0.1)">
       <use xlink:href="#DejaVuSans-31"/>
       <use x="63.623047" xlink:href="#DejaVuSans-31"/>
       <use x="127.246094" xlink:href="#DejaVuSans-35"/>
       <use x="190.869141" xlink:href="#DejaVuSans-30"/>
       <use x="254.492188" xlink:href="#DejaVuSans-30"/>
       <use x="318.115234" xlink:href="#DejaVuSans-30"/>
      </g>
     </g>
    </g>
   </g>
   <g id="line2d_18">
    <path clip-path="url(#p5c32e5263d)" d="M 73.832727 148.25661 
L 75.152461 148.706881 
L 76.472195 146.640034 
L 77.791929 149.746369 
L 79.111663 144.220817 
L 83.070865 140.864956 
L 84.390599 139.373269 
L 85.710333 141.210067 
L 87.030067 140.533487 
L 88.3498 140.599675 
L 93.628736 140.523572 
L 94.94847 143.116819 
L 96.268204 144.898052 
L 97.587938 149.848004 
L 101.54714 144.914119 
L 102.866874 153.409179 
L 104.186608 149.24895 
L 105.506341 149.845966 
L 106.826075 155.767298 
L 110.785277 165.442717 
L 112.105011 167.199224 
L 113.424745 163.036541 
L 114.744479 153.932094 
L 116.064213 148.68946 
L 120.023415 144.663208 
L 121.343149 156.433795 
L 122.662882 154.886713 
L 123.982616 159.459066 
L 125.30235 150.984261 
L 129.261552 161.351446 
L 130.581286 152.826084 
L 131.90102 150.784935 
L 133.220754 150.381795 
L 134.540488 149.724131 
L 138.49969 148.86403 
L 139.819424 148.016232 
L 141.139157 155.860297 
L 142.458891 144.704081 
L 143.778625 143.407926 
L 147.737827 139.152582 
L 149.057561 133.05196 
L 150.377295 131.104868 
L 151.697029 140.958097 
L 153.016763 148.306015 
L 156.975965 147.738306 
L 158.295698 153.040459 
L 159.615432 154.201895 
L 160.935166 146.739577 
L 162.2549 154.356886 
L 166.214102 142.24071 
L 167.533836 142.544572 
L 168.85357 136.796351 
L 170.173304 144.24008 
L 171.493038 139.754535 
L 175.452239 139.593399 
L 176.771973 146.511705 
L 178.091707 146.376855 
L 179.411441 151.343014 
L 180.731175 147.024745 
L 184.690377 145.365989 
L 186.010111 145.118445 
L 187.329845 148.033346 
L 188.649579 149.918433 
L 189.969313 150.017361 
L 193.928514 146.524179 
L 195.248248 141.723872 
L 196.567982 141.995848 
L 199.20745 142.040839 
L 203.166652 147.381312 
L 204.486386 158.242229 
L 205.80612 166.440529 
L 207.125854 159.427743 
L 208.445588 162.605066 
L 212.404789 151.886705 
L 213.724523 142.216013 
L 215.044257 137.470883 
L 216.363991 137.247407 
L 217.683725 135.05068 
L 221.642927 140.736694 
L 222.962661 138.14748 
L 224.282395 134.30232 
L 225.602129 131.951611 
L 226.921863 138.963497 
L 230.881064 146.718663 
L 232.200798 133.396609 
L 233.520532 130.658078 
L 234.840266 125.562588 
L 240.119202 118.070066 
L 242.75867 117.898331 
L 244.078404 119.29441 
L 245.398137 121.738425 
L 249.357339 112.310197 
L 250.677073 105.130306 
L 251.996807 121.115466 
L 253.316541 116.371153 
L 254.636275 113.531253 
L 258.595477 113.860585 
L 259.915211 108.13672 
L 261.234945 107.020416 
L 262.554678 114.561456 
L 263.874412 112.985453 
L 270.473082 128.97883 
L 271.792816 135.69139 
L 273.11255 149.513534 
L 277.071752 148.29483 
L 278.391486 155.032002 
L 279.71122 155.009675 
L 281.030953 158.958948 
L 282.350687 144.282251 
L 286.309889 132.028244 
L 287.629623 126.085678 
L 288.949357 116.779588 
L 290.269091 155.333262 
L 291.588825 154.660035 
L 295.548027 164.180795 
L 296.867761 165.634939 
L 298.187494 152.92755 
L 299.507228 163.141352 
L 300.826962 175.718201 
L 304.786164 179.784661 
L 306.105898 173.22955 
L 307.425632 176.279027 
L 308.745366 186.131545 
L 310.0651 189.246999 
L 315.344035 195.524 
L 316.663769 202.783101 
L 317.983503 191.164422 
L 319.303237 181.245246 
L 323.262439 183.058509 
L 324.582173 191.838824 
L 325.901907 180.543941 
L 327.221641 182.727114 
L 328.541375 186.780039 
L 332.500576 209.089731 
L 333.82031 209.488156 
L 335.140044 187.778839 
L 336.459778 194.814452 
L 337.779512 203.82889 
L 341.738714 205.967494 
L 343.058448 195.554944 
L 344.378182 178.725196 
L 345.697916 172.27093 
L 347.01765 162.551498 
L 350.976851 165.01395 
L 352.296585 154.384238 
L 353.616319 159.996441 
L 354.936053 150.55473 
L 356.255787 144.728265 
L 360.214989 142.897227 
L 361.534723 137.452212 
L 362.854457 139.446839 
L 364.174191 152.636935 
L 365.493925 150.563416 
L 369.453126 143.407333 
L 370.77286 149.943424 
L 372.092594 158.790282 
L 373.412328 159.556621 
L 374.732062 160.724809 
L 380.010998 175.46109 
L 381.330732 172.451502 
L 382.650466 182.484795 
L 387.929401 178.661515 
L 389.249135 168.456682 
L 390.568869 175.857478 
L 391.888603 188.071181 
L 393.208337 205.711817 
L 397.167539 200.937168 
L 398.487273 223.08742 
L 398.487273 223.08742 
" style="fill:none;stroke:#0000ff;stroke-linecap:square;stroke-opacity:0.9;stroke-width:2;"/>
   </g>
   <g id="line2d_19">
    <path clip-path="url(#p5c32e5263d)" d="M 73.832727 148.25661 
L 76.472195 142.57266 
L 77.791929 145.841414 
L 79.111663 139.092914 
L 83.070865 137.396094 
L 84.390599 136.421972 
L 85.710333 136.248905 
L 87.030067 137.220476 
L 88.3498 136.897285 
L 93.628736 135.93949 
L 94.94847 138.551254 
L 96.268204 139.551586 
L 97.587938 145.75595 
L 101.54714 141.246113 
L 102.866874 146.873997 
L 104.186608 144.173486 
L 105.506341 146.025094 
L 106.826075 153.379342 
L 110.785277 162.753928 
L 112.105011 162.605135 
L 113.424745 159.397815 
L 114.744479 152.203076 
L 116.064213 147.61787 
L 120.023415 144.131528 
L 121.343149 155.333786 
L 122.662882 154.736045 
L 123.982616 160.108462 
L 125.30235 151.697859 
L 129.261552 158.261842 
L 130.581286 150.043549 
L 131.90102 148.496112 
L 133.220754 147.190097 
L 134.540488 144.334048 
L 138.49969 147.766361 
L 139.819424 152.219151 
L 141.139157 153.457647 
L 142.458891 139.97245 
L 143.778625 135.95327 
L 147.737827 134.135246 
L 149.057561 129.395035 
L 150.377295 125.888269 
L 151.697029 133.760243 
L 153.016763 136.614327 
L 156.975965 138.627066 
L 158.295698 141.416614 
L 159.615432 144.970503 
L 160.935166 136.643367 
L 162.2549 135.750515 
L 166.214102 135.422426 
L 167.533836 133.436648 
L 168.85357 128.522605 
L 170.173304 130.128806 
L 175.452239 129.089219 
L 176.771973 133.617113 
L 178.091707 136.62085 
L 179.411441 136.782663 
L 180.731175 132.710387 
L 184.690377 131.224972 
L 186.010111 132.528316 
L 187.329845 133.016222 
L 188.649579 133.26428 
L 189.969313 135.326404 
L 193.928514 133.190875 
L 195.248248 127.045893 
L 196.567982 126.701818 
L 199.20745 141.974108 
L 203.166652 135.976825 
L 204.486386 148.227191 
L 205.80612 154.961462 
L 207.125854 146.970875 
L 208.445588 151.545401 
L 212.404789 142.990312 
L 213.724523 132.792685 
L 215.044257 129.555695 
L 216.363991 130.057084 
L 217.683725 126.490793 
L 221.642927 132.27831 
L 222.962661 131.825976 
L 224.282395 127.211972 
L 225.602129 126.834749 
L 226.921863 134.773642 
L 230.881064 141.428174 
L 232.200798 130.19676 
L 233.520532 126.887719 
L 234.840266 122.128352 
L 240.119202 114.019341 
L 241.438936 114.428172 
L 242.75867 114.207631 
L 244.078404 115.225334 
L 245.398137 117.434109 
L 249.357339 110.563313 
L 250.677073 104.825355 
L 251.996807 118.244879 
L 253.316541 115.727096 
L 254.636275 112.830574 
L 258.595477 112.947544 
L 259.915211 109.511627 
L 261.234945 109.514155 
L 262.554678 114.156504 
L 263.874412 114.375035 
L 269.153348 127.885256 
L 271.792816 139.048679 
L 273.11255 151.190463 
L 277.071752 151.677448 
L 278.391486 150.763237 
L 279.71122 151.784302 
L 281.030953 156.603624 
L 282.350687 142.63702 
L 286.309889 133.720826 
L 287.629623 126.910956 
L 288.949357 117.197602 
L 290.269091 143.819545 
L 291.588825 139.284275 
L 295.548027 143.148099 
L 296.867761 139.536571 
L 298.187494 133.85625 
L 299.507228 143.780966 
L 300.826962 155.894879 
L 304.786164 160.927513 
L 306.105898 154.358642 
L 307.425632 155.885569 
L 308.745366 166.891806 
L 310.0651 169.408045 
L 315.344035 174.174146 
L 316.663769 181.861084 
L 317.983503 179.128994 
L 319.303237 165.839203 
L 323.262439 171.273217 
L 324.582173 182.433602 
L 325.901907 169.385005 
L 327.221641 170.736578 
L 328.541375 179.095378 
L 332.500576 197.899002 
L 333.82031 200.71566 
L 335.140044 181.567495 
L 336.459778 188.447432 
L 337.779512 194.320783 
L 341.738714 194.699533 
L 343.058448 185.649412 
L 344.378182 173.558058 
L 347.01765 162.643235 
L 350.976851 162.354176 
L 352.296585 153.153574 
L 353.616319 158.486294 
L 354.936053 149.948787 
L 356.255787 144.085082 
L 360.214989 143.162224 
L 361.534723 140.299251 
L 362.854457 140.940972 
L 364.174191 152.395478 
L 365.493925 149.618068 
L 369.453126 145.411527 
L 370.77286 151.133597 
L 372.092594 158.589506 
L 373.412328 158.513718 
L 374.732062 157.983508 
L 380.010998 169.520377 
L 381.330732 167.998835 
L 382.650466 175.726405 
L 387.929401 172.559522 
L 389.249135 164.545789 
L 390.568869 162.125505 
L 391.888603 169.608559 
L 393.208337 185.829948 
L 397.167539 184.404124 
L 398.487273 193.464615 
L 398.487273 193.464615 
" style="fill:none;stroke:#ff0000;stroke-linecap:square;stroke-opacity:0.9;stroke-width:2;"/>
   </g>
   <g id="line2d_20">
    <path clip-path="url(#p5c32e5263d)" d="M 73.832727 148.25661 
L 76.472195 142.662829 
L 77.791929 146.002102 
L 79.111663 140.409951 
L 83.070865 136.90777 
L 84.390599 135.573067 
L 85.710333 137.414742 
L 87.030067 136.459595 
L 88.3498 136.631444 
L 93.628736 136.791184 
L 94.94847 138.801264 
L 96.268204 140.567943 
L 97.587938 145.234594 
L 101.54714 140.497942 
L 102.866874 148.665964 
L 104.186608 144.714288 
L 105.506341 145.812179 
L 106.826075 151.201509 
L 110.785277 160.880718 
L 112.105011 162.192408 
L 113.424745 157.673918 
L 114.744479 148.614733 
L 116.064213 143.697934 
L 120.023415 139.152668 
L 121.343149 151.368206 
L 122.662882 149.266086 
L 123.982616 153.709105 
L 125.30235 144.978378 
L 129.261552 155.784796 
L 130.581286 147.087 
L 131.90102 144.741206 
L 134.540488 140.544508 
L 138.49969 143.87327 
L 139.819424 148.511134 
L 141.139157 149.328879 
L 142.458891 138.287448 
L 143.778625 137.418386 
L 147.737827 132.432149 
L 149.057561 126.763736 
L 150.377295 124.238929 
L 151.697029 133.638994 
L 153.016763 141.320596 
L 156.975965 140.812246 
L 158.295698 146.493197 
L 159.615432 147.38133 
L 160.935166 140.080948 
L 162.2549 139.269569 
L 166.214102 136.062 
L 167.533836 135.21401 
L 168.85357 130.662054 
L 170.173304 130.038075 
L 171.493038 125.851669 
L 175.452239 125.470047 
L 176.771973 132.7903 
L 178.091707 137.211735 
L 179.411441 137.310571 
L 180.731175 132.631211 
L 184.690377 131.127584 
L 186.010111 134.03584 
L 187.329845 134.302268 
L 188.649579 135.765076 
L 189.969313 135.870698 
L 193.928514 131.952947 
L 195.248248 127.353797 
L 196.567982 127.430185 
L 199.20745 141.216431 
L 203.166652 133.611159 
L 204.486386 145.109453 
L 205.80612 152.737219 
L 207.125854 146.145615 
L 208.445588 150.010573 
L 212.404789 138.993366 
L 213.724523 128.683882 
L 215.044257 123.652759 
L 216.363991 123.26897 
L 217.683725 121.202921 
L 221.642927 127.429638 
L 222.962661 124.366635 
L 224.282395 120.750085 
L 225.602129 118.863383 
L 226.921863 125.497118 
L 230.881064 133.557099 
L 232.200798 120.01274 
L 233.520532 117.236954 
L 234.840266 111.403579 
L 240.119202 104.028108 
L 241.438936 104.474694 
L 242.75867 104.098452 
L 244.078404 104.904234 
L 245.398137 108.065838 
L 249.357339 98.248719 
L 250.677073 90.510673 
L 251.996807 106.989874 
L 253.316541 100.828162 
L 254.636275 98.599718 
L 258.595477 97.144111 
L 259.915211 91.501255 
L 261.234945 90.285795 
L 262.554678 97.779962 
L 263.874412 95.721095 
L 270.473082 112.430815 
L 271.792816 119.336907 
L 273.11255 133.493319 
L 277.071752 132.480519 
L 278.391486 139.705211 
L 279.71122 139.101684 
L 281.030953 143.141751 
L 282.350687 128.180836 
L 286.309889 114.998875 
L 287.629623 109.594397 
L 288.949357 99.041088 
L 290.269091 140.762009 
L 291.588825 140.193824 
L 295.548027 150.431908 
L 296.867761 151.702539 
L 298.187494 138.657051 
L 299.507228 149.225301 
L 300.826962 162.001877 
L 304.786164 166.295871 
L 306.105898 158.946908 
L 307.425632 161.813356 
L 308.745366 172.282205 
L 310.0651 175.980942 
L 315.344035 181.523787 
L 316.663769 188.889703 
L 317.983503 176.47797 
L 319.303237 166.291255 
L 323.262439 168.105097 
L 324.582173 176.639806 
L 325.901907 165.171302 
L 327.221641 168.234634 
L 332.500576 199.782112 
L 333.82031 196.986004 
L 335.140044 173.789823 
L 337.779512 190.91394 
L 341.738714 191.247211 
L 343.058448 180.966484 
L 344.378182 162.70241 
L 345.697916 156.53758 
L 347.01765 147.822425 
L 350.976851 149.988046 
L 352.296585 137.639159 
L 353.616319 144.705367 
L 354.936053 135.719825 
L 356.255787 129.216647 
L 360.214989 128.568387 
L 361.534723 124.451245 
L 362.854457 126.955622 
L 364.174191 142.136738 
L 365.493925 140.8552 
L 369.453126 135.446965 
L 370.77286 143.021878 
L 372.092594 151.77831 
L 373.412328 153.681528 
L 374.732062 154.002766 
L 378.691264 163.062403 
L 380.010998 166.393646 
L 381.330732 164.044651 
L 382.650466 174.44855 
L 387.929401 168.584694 
L 389.249135 158.224736 
L 390.568869 161.969081 
L 391.888603 173.730552 
L 393.208337 192.447791 
L 397.167539 188.753607 
L 398.487273 202.518497 
L 398.487273 202.518497 
" style="fill:none;stroke:#ff8040;stroke-linecap:square;stroke-opacity:0.9;stroke-width:2;"/>
   </g>
   <g id="line2d_21">
    <path clip-path="url(#p5c32e5263d)" d="M 73.832727 148.832586 
L 76.472195 145.820736 
L 77.791929 151.501179 
L 79.111663 143.517582 
L 84.390599 145.074863 
L 87.030067 148.253286 
L 88.3498 147.53864 
L 93.628736 148.505092 
L 94.94847 151.452917 
L 96.268204 152.799207 
L 97.587938 157.876177 
L 101.54714 154.049286 
L 102.866874 160.376865 
L 104.186608 156.646057 
L 105.506341 159.614071 
L 106.826075 168.081633 
L 110.785277 177.976453 
L 112.105011 177.862165 
L 113.424745 173.492983 
L 114.744479 164.978061 
L 116.064213 160.642777 
L 120.023415 156.599224 
L 121.343149 168.109702 
L 122.662882 168.020949 
L 123.982616 173.77724 
L 125.30235 165.135711 
L 129.261552 174.774801 
L 130.581286 165.253413 
L 131.90102 163.414478 
L 134.540488 157.308584 
L 138.49969 161.212337 
L 139.819424 166.219453 
L 141.139157 169.449352 
L 142.458891 156.425133 
L 143.778625 153.061591 
L 147.737827 150.381663 
L 149.057561 145.700113 
L 150.377295 143.602172 
L 151.697029 155.92375 
L 153.016763 162.473125 
L 156.975965 162.012989 
L 158.295698 165.552496 
L 159.615432 170.093607 
L 160.935166 162.125977 
L 162.2549 162.391282 
L 166.214102 163.775912 
L 167.533836 162.764956 
L 168.85357 156.949173 
L 170.173304 157.730094 
L 171.493038 160.277185 
L 175.452239 159.98902 
L 176.771973 164.427787 
L 178.091707 166.015157 
L 179.411441 166.047077 
L 180.731175 164.499232 
L 186.010111 161.730726 
L 187.329845 159.719983 
L 188.649579 162.12678 
L 189.969313 166.290383 
L 193.928514 164.485032 
L 195.248248 161.979173 
L 196.567982 163.280581 
L 199.20745 177.677307 
L 203.166652 172.847475 
L 204.486386 178.369894 
L 205.80612 184.869165 
L 207.125854 178.938801 
L 208.445588 184.528398 
L 212.404789 177.74999 
L 213.724523 168.010596 
L 215.044257 166.584804 
L 217.683725 167.084452 
L 221.642927 172.798456 
L 222.962661 170.275383 
L 224.282395 167.04319 
L 225.602129 172.554287 
L 226.921863 181.185675 
L 230.881064 186.653743 
L 232.200798 177.019487 
L 233.520532 174.23632 
L 234.840266 169.497191 
L 240.119202 161.304185 
L 241.438936 161.372581 
L 242.75867 159.485318 
L 244.078404 160.016051 
L 245.398137 162.976082 
L 249.357339 159.86716 
L 250.677073 156.46718 
L 251.996807 165.086837 
L 253.316541 162.542652 
L 254.636275 160.426593 
L 258.595477 160.221895 
L 259.915211 157.243211 
L 261.234945 157.812064 
L 262.554678 162.09994 
L 263.874412 160.821909 
L 269.153348 171.259377 
L 271.792816 182.611291 
L 273.11255 194.594642 
L 277.071752 195.94126 
L 278.391486 191.207931 
L 279.71122 193.230736 
L 281.030953 197.816027 
L 282.350687 187.596464 
L 286.309889 181.089347 
L 287.629623 174.214779 
L 288.949357 160.926423 
L 290.269091 197.571852 
L 291.588825 195.576084 
L 295.548027 201.996379 
L 296.867761 197.625186 
L 298.187494 190.553806 
L 299.507228 201.511546 
L 300.826962 209.82079 
L 304.786164 211.961101 
L 306.105898 204.275547 
L 307.425632 207.812361 
L 308.745366 214.48354 
L 310.0651 218.295373 
L 315.344035 222.455012 
L 316.663769 229.489612 
L 317.983503 226.007565 
L 319.303237 214.284347 
L 323.262439 218.882729 
L 324.582173 232.832693 
L 325.901907 224.771431 
L 327.221641 226.895666 
L 328.541375 230.004 
L 332.500576 251.307901 
L 333.82031 252.279527 
L 335.140044 239.740039 
L 336.459778 246.382486 
L 337.779512 251.370976 
L 341.738714 255.097292 
L 343.058448 244.458477 
L 344.378182 232.43764 
L 345.697916 227.549353 
L 347.01765 223.73514 
L 350.976851 226.503448 
L 352.296585 218.284687 
L 353.616319 224.901819 
L 354.936053 216.693229 
L 356.255787 211.58238 
L 360.214989 210.88335 
L 361.534723 207.927224 
L 362.854457 207.14438 
L 364.174191 218.569391 
L 365.493925 214.926053 
L 369.453126 207.052793 
L 372.092594 219.974656 
L 374.732062 222.558775 
L 378.691264 230.941049 
L 380.010998 234.016384 
L 381.330732 233.187655 
L 382.650466 238.782736 
L 387.929401 237.349567 
L 389.249135 229.220943 
L 390.568869 234.191652 
L 391.888603 242.036659 
L 393.208337 256.222573 
L 397.167539 252.382832 
L 398.487273 265.797818 
L 398.487273 265.797818 
" style="fill:none;stroke:#0d0d0d;stroke-linecap:square;stroke-opacity:0.25;stroke-width:2;"/>
   </g>
   <g id="line2d_22">
    <path clip-path="url(#p5c32e5263d)" d="M 73.832727 147.680634 
L 76.472195 138.407097 
L 77.791929 140.883391 
L 79.111663 134.145331 
L 83.070865 130.32858 
L 84.390599 128.632116 
L 85.710333 128.961099 
L 87.030067 127.611844 
L 88.3498 126.895352 
L 93.628736 126.916957 
L 94.94847 127.586127 
L 96.268204 129.34498 
L 97.587938 135.858446 
L 101.54714 131.937798 
L 102.866874 135.287661 
L 104.186608 132.170581 
L 105.506341 134.293747 
L 106.826075 142.268541 
L 110.785277 151.437465 
L 112.105011 151.801031 
L 113.424745 148.465394 
L 114.744479 140.825562 
L 116.064213 136.698347 
L 120.023415 125.663637 
L 121.343149 138.771765 
L 122.662882 136.633686 
L 123.982616 143.831166 
L 125.30235 135.197949 
L 129.261552 141.944262 
L 130.581286 132.628086 
L 131.90102 130.738489 
L 133.220754 129.087821 
L 134.540488 126.359268 
L 138.49969 129.962124 
L 139.819424 132.503803 
L 141.139157 133.40902 
L 142.458891 119.733661 
L 143.778625 116.448667 
L 147.737827 111.110479 
L 149.057561 108.520984 
L 150.377295 105.417575 
L 151.697029 109.714208 
L 153.016763 115.055334 
L 156.975965 116.483098 
L 158.295698 117.091276 
L 159.615432 119.614438 
L 160.935166 110.097554 
L 162.2549 107.489854 
L 166.214102 105.133327 
L 167.533836 103.305733 
L 168.85357 98.902914 
L 170.173304 99.105451 
L 171.493038 97.655751 
L 175.452239 97.779597 
L 176.771973 101.672971 
L 178.091707 107.174755 
L 179.411441 106.551058 
L 180.731175 99.488577 
L 184.690377 99.101313 
L 186.010111 100.961161 
L 187.329845 99.637314 
L 188.649579 100.853228 
L 189.969313 102.575193 
L 193.928514 100.383051 
L 195.248248 91.769713 
L 196.567982 90.889118 
L 199.20745 108.633358 
L 203.166652 99.606652 
L 205.80612 111.586735 
L 207.125854 98.139493 
L 208.445588 103.79212 
L 212.404789 94.934169 
L 213.724523 84.951014 
L 215.044257 83.79702 
L 216.363991 84.030175 
L 217.683725 81.127287 
L 221.642927 87.238456 
L 222.962661 87.770124 
L 224.282395 83.831288 
L 225.602129 84.671452 
L 226.921863 89.682721 
L 230.881064 96.040267 
L 232.200798 83.642864 
L 234.840266 73.070932 
L 240.119202 65.292541 
L 241.438936 64.70687 
L 242.75867 64.623237 
L 244.078404 65.783817 
L 245.398137 70.105332 
L 249.357339 61.228536 
L 250.677073 52.154182 
L 251.996807 67.851456 
L 254.636275 59.09976 
L 258.595477 57.333447 
L 259.915211 54.664916 
L 261.234945 55.861408 
L 262.554678 60.438455 
L 263.874412 58.701255 
L 269.153348 73.775206 
L 271.792816 87.978099 
L 273.11255 102.40381 
L 277.071752 98.391063 
L 278.391486 90.1033 
L 279.71122 87.637558 
L 281.030953 95.025281 
L 282.350687 80.772254 
L 286.309889 72.662183 
L 287.629623 62.621573 
L 288.949357 57.360632 
L 290.269091 83.462858 
L 291.588825 75.489944 
L 295.548027 77.38152 
L 296.867761 76.241839 
L 298.187494 64.522745 
L 299.507228 78.9367 
L 300.826962 91.734931 
L 304.786164 98.483139 
L 306.105898 91.326933 
L 307.425632 93.513315 
L 308.745366 107.533993 
L 310.0651 110.573555 
L 315.344035 116.093149 
L 316.663769 124.919952 
L 317.983503 120.080999 
L 319.303237 106.73096 
L 323.262439 110.844927 
L 324.582173 128.407482 
L 325.901907 112.84566 
L 327.221641 117.920919 
L 328.541375 113.520228 
L 332.500576 132.720669 
L 333.82031 134.347709 
L 335.140044 112.199613 
L 336.459778 119.113172 
L 337.779512 127.893748 
L 341.738714 126.775741 
L 343.058448 115.847893 
L 344.378182 99.374594 
L 345.697916 93.368311 
L 347.01765 82.551656 
L 350.976851 82.00892 
L 352.296585 74.303455 
L 353.616319 78.694411 
L 354.936053 68.471204 
L 356.255787 60.132167 
L 360.214989 60.306811 
L 361.534723 57.79852 
L 362.854457 57.91455 
L 364.174191 71.128301 
L 365.493925 67.699199 
L 369.453126 61.57142 
L 370.77286 66.309446 
L 372.092594 75.848935 
L 373.412328 76.692237 
L 374.732062 75.265598 
L 378.691264 86.497386 
L 380.010998 89.463207 
L 381.330732 87.875317 
L 382.650466 100.047535 
L 387.929401 96.527882 
L 389.249135 87.119186 
L 390.568869 85.441741 
L 391.888603 97.195884 
L 393.208337 115.701291 
L 397.167539 112.478444 
L 398.487273 122.674464 
L 398.487273 122.674464 
" style="fill:none;stroke:#0d0d0d;stroke-linecap:square;stroke-opacity:0.25;stroke-width:2;"/>
   </g>
   <g id="patch_3">
    <path d="M 57.6 276.48 
L 57.6 41.472 
" style="fill:none;stroke:#000000;stroke-linecap:square;stroke-linejoin:miter;stroke-width:0.8;"/>
   </g>
   <g id="patch_4">
    <path d="M 414.72 276.48 
L 414.72 41.472 
" style="fill:none;stroke:#000000;stroke-linecap:square;stroke-linejoin:miter;stroke-width:0.8;"/>
   </g>
   <g id="patch_5">
    <path d="M 57.6 276.48 
L 414.72 276.48 
" style="fill:none;stroke:#000000;stroke-linecap:square;stroke-linejoin:miter;stroke-width:0.8;"/>
   </g>
   <g id="patch_6">
    <path d="M 57.6 41.472 
L 414.72 41.472 
" style="fill:none;stroke:#000000;stroke-linecap:square;stroke-linejoin:miter;stroke-width:0.8;"/>
   </g>
   <g id="text_19">
    <!-- TESTFUNDS1330 -->
    <g transform="translate(185.200312 22.034625)scale(0.12 -0.12)">
     <defs>
      <path d="M -19 4666 
L 3928 4666 
L 3928 4134 
L 2272 4134 
L 2272 0 
L 1638 0 
L 1638 4134 
L -19 4134 
L -19 4666 
z
" id="DejaVuSans-54" transform="scale(0.015625)"/>
      <path d="M 628 4666 
L 3578 4666 
L 3578 4134 
L 1259 4134 
L 1259 2753 
L 3481 2753 
L 3481 2222 
L 1259 2222 
L 1259 531 
L 3634 531 
L 3634 0 
L 628 0 
L 628 4666 
z
" id="DejaVuSans-45" transform="scale(0.015625)"/>
      <path d="M 3425 4513 
L 3425 3897 
Q 3066 4069 2747 4153 
Q 2428 4238 2131 4238 
Q 1616 4238 1336 4038 
Q 1056 3838 1056 3469 
Q 1056 3159 1242 3001 
Q 1428 2844 1947 2747 
L 2328 2669 
Q 3034 2534 3370 2195 
Q 3706 1856 3706 1288 
Q 3706 609 3251 259 
Q 2797 -91 1919 -91 
Q 1588 -91 1214 -16 
Q 841 59 441 206 
L 441 856 
Q 825 641 1194 531 
Q 1563 422 1919 422 
Q 2459 422 2753 634 
Q 3047 847 3047 1241 
Q 3047 1584 2836 1778 
Q 2625 1972 2144 2069 
L 1759 2144 
Q 1053 2284 737 2584 
Q 422 2884 422 3419 
Q 422 4038 858 4394 
Q 1294 4750 2059 4750 
Q 2388 4750 2728 4690 
Q 3069 4631 3425 4513 
z
" id="DejaVuSans-53" transform="scale(0.015625)"/>
      <path d="M 628 4666 
L 3309 4666 
L 3309 4134 
L 1259 4134 
L 1259 2759 
L 3109 2759 
L 3109 2228 
L 1259 2228 
L 1259 0 
L 628 0 
L 628 4666 
z
" id="DejaVuSans-46" transform="scale(0.015625)"/>
      <path d="M 556 4666 
L 1191 4666 
L 1191 1831 
Q 1191 1081 1462 751 
Q 1734 422 2344 422 
Q 2950 422 3222 751 
Q 3494 1081 3494 1831 
L 3494 4666 
L 4128 4666 
L 4128 1753 
Q 4128 841 3676 375 
Q 3225 -91 2344 -91 
Q 1459 -91 1007 375 
Q 556 841 556 1753 
L 556 4666 
z
" id="DejaVuSans-55" transform="scale(0.015625)"/>
      <path d="M 628 4666 
L 1478 4666 
L 3547 763 
L 3547 4666 
L 4159 4666 
L 4159 0 
L 3309 0 
L 1241 3903 
L 1241 0 
L 628 0 
L 628 4666 
z
" id="DejaVuSans-4e" transform="scale(0.015625)"/>
      <path d="M 1259 4147 
L 1259 519 
L 2022 519 
Q 2988 519 3436 956 
Q 3884 1394 3884 2338 
Q 3884 3275 3436 3711 
Q 2988 4147 2022 4147 
L 1259 4147 
z
M 628 4666 
L 1925 4666 
Q 3281 4666 3915 4102 
Q 4550 3538 4550 2338 
Q 4550 1131 3912 565 
Q 3275 0 1925 0 
L 628 0 
L 628 4666 
z
" id="DejaVuSans-44" transform="scale(0.015625)"/>
     </defs>
     <use xlink:href="#DejaVuSans-54"/>
     <use x="61.083984" xlink:href="#DejaVuSans-45"/>
     <use x="124.267578" xlink:href="#DejaVuSans-53"/>
     <use x="187.744141" xlink:href="#DejaVuSans-54"/>
     <use x="248.828125" xlink:href="#DejaVuSans-46"/>
     <use x="306.347656" xlink:href="#DejaVuSans-55"/>
     <use x="379.541016" xlink:href="#DejaVuSans-4e"/>
     <use x="454.345703" xlink:href="#DejaVuSans-44"/>
     <use x="531.347656" xlink:href="#DejaVuSans-53"/>
     <use x="594.824219" xlink:href="#DejaVuSans-31"/>
     <use x="658.447266" xlink:href="#DejaVuSans-33"/>
     <use x="722.070312" xlink:href="#DejaVuSans-33"/>
     <use x="785.693359" xlink:href="#DejaVuSans-30"/>
    </g>
    <!-- daily_report -->
    <g transform="translate(200.466563 35.472)scale(0.12 -0.12)">
     <defs>
      <path d="M 603 3500 
L 1178 3500 
L 1178 0 
L 603 0 
L 603 3500 
z
M 603 4863 
L 1178 4863 
L 1178 4134 
L 603 4134 
L 603 4863 
z
" id="DejaVuSans-69" transform="scale(0.015625)"/>
      <path d="M 603 4863 
L 1178 4863 
L 1178 0 
L 603 0 
L 603 4863 
z
" id="DejaVuSans-6c" transform="scale(0.015625)"/>
      <path d="M 2059 -325 
Q 1816 -950 1584 -1140 
Q 1353 -1331 966 -1331 
L 506 -1331 
L 506 -850 
L 844 -850 
Q 1081 -850 1212 -737 
Q 1344 -625 1503 -206 
L 1606 56 
L 191 3500 
L 800 3500 
L 1894 763 
L 2988 3500 
L 3597 3500 
L 2059 -325 
z
" id="DejaVuSans-79" transform="scale(0.015625)"/>
      <path d="M 3263 -1063 
L 3263 -1509 
L -63 -1509 
L -63 -1063 
L 3263 -1063 
z
" id="DejaVuSans-5f" transform="scale(0.015625)"/>
      <path d="M 2631 2963 
Q 2534 3019 2420 3045 
Q 2306 3072 2169 3072 
Q 1681 3072 1420 2755 
Q 1159 2438 1159 1844 
L 1159 0 
L 581 0 
L 581 3500 
L 1159 3500 
L 1159 2956 
Q 1341 3275 1631 3429 
Q 1922 3584 2338 3584 
Q 2397 3584 2469 3576 
Q 2541 3569 2628 3553 
L 2631 2963 
z
" id="DejaVuSans-72" transform="scale(0.015625)"/>
      <path d="M 1159 525 
L 1159 -1331 
L 581 -1331 
L 581 3500 
L 1159 3500 
L 1159 2969 
Q 1341 3281 1617 3432 
Q 1894 3584 2278 3584 
Q 2916 3584 3314 3078 
Q 3713 2572 3713 1747 
Q 3713 922 3314 415 
Q 2916 -91 2278 -91 
Q 1894 -91 1617 61 
Q 1341 213 1159 525 
z
M 3116 1747 
Q 3116 2381 2855 2742 
Q 2594 3103 2138 3103 
Q 1681 3103 1420 2742 
Q 1159 2381 1159 1747 
Q 1159 1113 1420 752 
Q 1681 391 2138 391 
Q 2594 391 2855 752 
Q 3116 1113 3116 1747 
z
" id="DejaVuSans-70" transform="scale(0.015625)"/>
      <path d="M 1959 3097 
Q 1497 3097 1228 2736 
Q 959 2375 959 1747 
Q 959 1119 1226 758 
Q 1494 397 1959 397 
Q 2419 397 2687 759 
Q 2956 1122 2956 1747 
Q 2956 2369 2687 2733 
Q 2419 3097 1959 3097 
z
M 1959 3584 
Q 2709 3584 3137 3096 
Q 3566 2609 3566 1747 
Q 3566 888 3137 398 
Q 2709 -91 1959 -91 
Q 1206 -91 779 398 
Q 353 888 353 1747 
Q 353 2609 779 3096 
Q 1206 3584 1959 3584 
z
" id="DejaVuSans-6f" transform="scale(0.015625)"/>
     </defs>
     <use xlink:href="#DejaVuSans-64"/>
     <use x="63.476562" xlink:href="#DejaVuSans-61"/>
     <use x="124.755859" xlink:href="#DejaVuSans-69"/>
     <use x="152.539062" xlink:href="#DejaVuSans-6c"/>
     <use x="180.322266" xlink:href="#DejaVuSans-79"/>
     <use x="239.501953" xlink:href="#DejaVuSans-5f"/>
     <use x="289.501953" xlink:href="#DejaVuSans-72"/>
     <use x="328.365234" xlink:href="#DejaVuSans-65"/>
     <use x="389.888672" xlink:href="#DejaVuSans-70"/>
     <use x="453.365234" xlink:href="#DejaVuSans-6f"/>
     <use x="514.546875" xlink:href="#DejaVuSans-72"/>
     <use x="555.660156" xlink:href="#DejaVuSans-74"/>
    </g>
   </g>
   <g id="legend_1">
    <g id="patch_7">
     <path d="M 64.6 271.48 
L 155.792188 271.48 
Q 157.792188 271.48 157.792188 269.48 
L 157.792188 197.089375 
Q 157.792188 195.089375 155.792188 195.089375 
L 64.6 195.089375 
Q 62.6 195.089375 62.6 197.089375 
L 62.6 269.48 
Q 62.6 271.48 64.6 271.48 
z
" style="fill:#ffffff;opacity:0.8;stroke:#cccccc;stroke-linejoin:miter;"/>
    </g>
    <g id="line2d_23">
     <path d="M 66.6 203.187812 
L 86.6 203.187812 
" style="fill:none;stroke:#0000ff;stroke-linecap:square;stroke-opacity:0.9;stroke-width:2;"/>
    </g>
    <g id="line2d_24"/>
    <g id="text_20">
     <!-- alpaca -->
     <g transform="translate(94.6 206.687812)scale(0.1 -0.1)">
      <defs>
       <path d="M 3122 3366 
L 3122 2828 
Q 2878 2963 2633 3030 
Q 2388 3097 2138 3097 
Q 1578 3097 1268 2742 
Q 959 2388 959 1747 
Q 959 1106 1268 751 
Q 1578 397 2138 397 
Q 2388 397 2633 464 
Q 2878 531 3122 666 
L 3122 134 
Q 2881 22 2623 -34 
Q 2366 -91 2075 -91 
Q 1284 -91 818 406 
Q 353 903 353 1747 
Q 353 2603 823 3093 
Q 1294 3584 2113 3584 
Q 2378 3584 2631 3529 
Q 2884 3475 3122 3366 
z
" id="DejaVuSans-63" transform="scale(0.015625)"/>
      </defs>
      <use xlink:href="#DejaVuSans-61"/>
      <use x="61.279297" xlink:href="#DejaVuSans-6c"/>
      <use x="89.0625" xlink:href="#DejaVuSans-70"/>
      <use x="152.539062" xlink:href="#DejaVuSans-61"/>
      <use x="213.818359" xlink:href="#DejaVuSans-63"/>
      <use x="268.798828" xlink:href="#DejaVuSans-61"/>
     </g>
    </g>
    <g id="line2d_25">
     <path d="M 66.6 217.865937 
L 86.6 217.865937 
" style="fill:none;stroke:#ff0000;stroke-linecap:square;stroke-opacity:0.9;stroke-width:2;"/>
    </g>
    <g id="line2d_26"/>
    <g id="text_21">
     <!-- mattress -->
     <g transform="translate(94.6 221.365937)scale(0.1 -0.1)">
      <defs>
       <path d="M 3328 2828 
Q 3544 3216 3844 3400 
Q 4144 3584 4550 3584 
Q 5097 3584 5394 3201 
Q 5691 2819 5691 2113 
L 5691 0 
L 5113 0 
L 5113 2094 
Q 5113 2597 4934 2840 
Q 4756 3084 4391 3084 
Q 3944 3084 3684 2787 
Q 3425 2491 3425 1978 
L 3425 0 
L 2847 0 
L 2847 2094 
Q 2847 2600 2669 2842 
Q 2491 3084 2119 3084 
Q 1678 3084 1418 2786 
Q 1159 2488 1159 1978 
L 1159 0 
L 581 0 
L 581 3500 
L 1159 3500 
L 1159 2956 
Q 1356 3278 1631 3431 
Q 1906 3584 2284 3584 
Q 2666 3584 2933 3390 
Q 3200 3197 3328 2828 
z
" id="DejaVuSans-6d" transform="scale(0.015625)"/>
       <path d="M 2834 3397 
L 2834 2853 
Q 2591 2978 2328 3040 
Q 2066 3103 1784 3103 
Q 1356 3103 1142 2972 
Q 928 2841 928 2578 
Q 928 2378 1081 2264 
Q 1234 2150 1697 2047 
L 1894 2003 
Q 2506 1872 2764 1633 
Q 3022 1394 3022 966 
Q 3022 478 2636 193 
Q 2250 -91 1575 -91 
Q 1294 -91 989 -36 
Q 684 19 347 128 
L 347 722 
Q 666 556 975 473 
Q 1284 391 1588 391 
Q 1994 391 2212 530 
Q 2431 669 2431 922 
Q 2431 1156 2273 1281 
Q 2116 1406 1581 1522 
L 1381 1569 
Q 847 1681 609 1914 
Q 372 2147 372 2553 
Q 372 3047 722 3315 
Q 1072 3584 1716 3584 
Q 2034 3584 2315 3537 
Q 2597 3491 2834 3397 
z
" id="DejaVuSans-73" transform="scale(0.015625)"/>
      </defs>
      <use xlink:href="#DejaVuSans-6d"/>
      <use x="97.412109" xlink:href="#DejaVuSans-61"/>
      <use x="158.691406" xlink:href="#DejaVuSans-74"/>
      <use x="197.900391" xlink:href="#DejaVuSans-74"/>
      <use x="237.109375" xlink:href="#DejaVuSans-72"/>
      <use x="275.972656" xlink:href="#DejaVuSans-65"/>
      <use x="337.496094" xlink:href="#DejaVuSans-73"/>
      <use x="389.595703" xlink:href="#DejaVuSans-73"/>
     </g>
    </g>
    <g id="line2d_27">
     <path d="M 66.6 232.544062 
L 86.6 232.544062 
" style="fill:none;stroke:#ff8040;stroke-linecap:square;stroke-opacity:0.9;stroke-width:2;"/>
    </g>
    <g id="line2d_28"/>
    <g id="text_22">
     <!-- trader-0850 -->
     <g transform="translate(94.6 236.044062)scale(0.1 -0.1)">
      <use xlink:href="#DejaVuSans-74"/>
      <use x="39.208984" xlink:href="#DejaVuSans-72"/>
      <use x="80.322266" xlink:href="#DejaVuSans-61"/>
      <use x="141.601562" xlink:href="#DejaVuSans-64"/>
      <use x="205.078125" xlink:href="#DejaVuSans-65"/>
      <use x="266.601562" xlink:href="#DejaVuSans-72"/>
      <use x="301.339844" xlink:href="#DejaVuSans-2d"/>
      <use x="337.423828" xlink:href="#DejaVuSans-30"/>
      <use x="401.046875" xlink:href="#DejaVuSans-38"/>
      <use x="464.669922" xlink:href="#DejaVuSans-35"/>
      <use x="528.292969" xlink:href="#DejaVuSans-30"/>
     </g>
    </g>
    <g id="line2d_29">
     <path d="M 66.6 247.222187 
L 86.6 247.222187 
" style="fill:none;stroke:#0d0d0d;stroke-linecap:square;stroke-opacity:0.25;stroke-width:2;"/>
    </g>
    <g id="line2d_30"/>
    <g id="text_23">
     <!-- rando-min -->
     <g transform="translate(94.6 250.722187)scale(0.1 -0.1)">
      <defs>
       <path d="M 3513 2113 
L 3513 0 
L 2938 0 
L 2938 2094 
Q 2938 2591 2744 2837 
Q 2550 3084 2163 3084 
Q 1697 3084 1428 2787 
Q 1159 2491 1159 1978 
L 1159 0 
L 581 0 
L 581 3500 
L 1159 3500 
L 1159 2956 
Q 1366 3272 1645 3428 
Q 1925 3584 2291 3584 
Q 2894 3584 3203 3211 
Q 3513 2838 3513 2113 
z
" id="DejaVuSans-6e" transform="scale(0.015625)"/>
      </defs>
      <use xlink:href="#DejaVuSans-72"/>
      <use x="41.113281" xlink:href="#DejaVuSans-61"/>
      <use x="102.392578" xlink:href="#DejaVuSans-6e"/>
      <use x="165.771484" xlink:href="#DejaVuSans-64"/>
      <use x="229.248047" xlink:href="#DejaVuSans-6f"/>
      <use x="292.304688" xlink:href="#DejaVuSans-2d"/>
      <use x="328.388672" xlink:href="#DejaVuSans-6d"/>
      <use x="425.800781" xlink:href="#DejaVuSans-69"/>
      <use x="453.583984" xlink:href="#DejaVuSans-6e"/>
     </g>
    </g>
    <g id="line2d_31">
     <path d="M 66.6 261.900312 
L 86.6 261.900312 
" style="fill:none;stroke:#0d0d0d;stroke-linecap:square;stroke-opacity:0.25;stroke-width:2;"/>
    </g>
    <g id="line2d_32"/>
    <g id="text_24">
     <!-- rando-max -->
     <g transform="translate(94.6 265.400312)scale(0.1 -0.1)">
      <defs>
       <path d="M 3513 3500 
L 2247 1797 
L 3578 0 
L 2900 0 
L 1881 1375 
L 863 0 
L 184 0 
L 1544 1831 
L 300 3500 
L 978 3500 
L 1906 2253 
L 2834 3500 
L 3513 3500 
z
" id="DejaVuSans-78" transform="scale(0.015625)"/>
      </defs>
      <use xlink:href="#DejaVuSans-72"/>
      <use x="41.113281" xlink:href="#DejaVuSans-61"/>
      <use x="102.392578" xlink:href="#DejaVuSans-6e"/>
      <use x="165.771484" xlink:href="#DejaVuSans-64"/>
      <use x="229.248047" xlink:href="#DejaVuSans-6f"/>
      <use x="292.304688" xlink:href="#DejaVuSans-2d"/>
      <use x="328.388672" xlink:href="#DejaVuSans-6d"/>
      <use x="425.800781" xlink:href="#DejaVuSans-61"/>
      <use x="487.080078" xlink:href="#DejaVuSans-78"/>
     </g>
    </g>
   </g>
  </g>
 </g>
 <defs>
  <clipPath id="p5c32e5263d">
   <rect height="235.008" width="357.12" x="57.6" y="41.472"/>
  </clipPath>
 </defs>
</svg>
