<?xml version="1.0" encoding="utf-8" standalone="no"?>
<!DOCTYPE svg PUBLIC "-//W3C//DTD SVG 1.1//EN"
  "http://www.w3.org/Graphics/SVG/1.1/DTD/svg11.dtd">
<svg height="345.6pt" version="1.1" viewBox="0 0 460.8 345.6" width="460.8pt" xmlns="http://www.w3.org/2000/svg" xmlns:xlink="http://www.w3.org/1999/xlink">
 <metadata>
  <rdf:RDF xmlns:cc="http://creativecommons.org/ns#" xmlns:dc="http://purl.org/dc/elements/1.1/" xmlns:rdf="http://www.w3.org/1999/02/22-rdf-syntax-ns#">
   <cc:Work>
    <dc:type rdf:resource="http://purl.org/dc/dcmitype/StillImage"/>
    <dc:date>2022-04-27T01:01:36.515284</dc:date>
    <dc:format>image/svg+xml</dc:format>
    <dc:creator>
     <cc:Agent>
      <dc:title>Matplotlib v3.4.3, https://matplotlib.org/</dc:title>
     </cc:Agent>
    </dc:creator>
   </cc:Work>
  </rdf:RDF>
 </metadata>
 <defs>
  <style type="text/css">*{stroke-linecap:butt;stroke-linejoin:round;}</style>
 </defs>
 <g id="figure_1">
  <g id="patch_1">
   <path d="M 0 345.6 
L 460.8 345.6 
L 460.8 0 
L 0 0 
z
" style="fill:#ffffff;"/>
  </g>
  <g id="axes_1">
   <g id="patch_2">
    <path d="M 57.6 276.48 
L 414.72 276.48 
L 414.72 41.472 
L 57.6 41.472 
z
" style="fill:#ffffff;"/>
   </g>
   <g id="matplotlib.axis_1">
    <g id="xtick_1">
     <g id="line2d_1">
      <defs>
       <path d="M 0 0 
L 0 3.5 
" id="ma12370d974" style="stroke:#000000;stroke-width:0.8;"/>
      </defs>
      <g>
       <use style="stroke:#000000;stroke-width:0.8;" x="85.710333" xlink:href="#ma12370d974" y="276.48"/>
      </g>
     </g>
     <g id="text_1">
      <!-- 2021-09 -->
      <g transform="translate(48.485512 310.951846)rotate(-30)scale(0.1 -0.1)">
       <defs>
        <path d="M 1228 531 
L 3431 531 
L 3431 0 
L 469 0 
L 469 531 
Q 828 903 1448 1529 
Q 2069 2156 2228 2338 
Q 2531 2678 2651 2914 
Q 2772 3150 2772 3378 
Q 2772 3750 2511 3984 
Q 2250 4219 1831 4219 
Q 1534 4219 1204 4116 
Q 875 4013 500 3803 
L 500 4441 
Q 881 4594 1212 4672 
Q 1544 4750 1819 4750 
Q 2544 4750 2975 4387 
Q 3406 4025 3406 3419 
Q 3406 3131 3298 2873 
Q 3191 2616 2906 2266 
Q 2828 2175 2409 1742 
Q 1991 1309 1228 531 
z
" id="DejaVuSans-32" transform="scale(0.015625)"/>
        <path d="M 2034 4250 
Q 1547 4250 1301 3770 
Q 1056 3291 1056 2328 
Q 1056 1369 1301 889 
Q 1547 409 2034 409 
Q 2525 409 2770 889 
Q 3016 1369 3016 2328 
Q 3016 3291 2770 3770 
Q 2525 4250 2034 4250 
z
M 2034 4750 
Q 2819 4750 3233 4129 
Q 3647 3509 3647 2328 
Q 3647 1150 3233 529 
Q 2819 -91 2034 -91 
Q 1250 -91 836 529 
Q 422 1150 422 2328 
Q 422 3509 836 4129 
Q 1250 4750 2034 4750 
z
" id="DejaVuSans-30" transform="scale(0.015625)"/>
        <path d="M 794 531 
L 1825 531 
L 1825 4091 
L 703 3866 
L 703 4441 
L 1819 4666 
L 2450 4666 
L 2450 531 
L 3481 531 
L 3481 0 
L 794 0 
L 794 531 
z
" id="DejaVuSans-31" transform="scale(0.015625)"/>
        <path d="M 313 2009 
L 1997 2009 
L 1997 1497 
L 313 1497 
L 313 2009 
z
" id="DejaVuSans-2d" transform="scale(0.015625)"/>
        <path d="M 703 97 
L 703 672 
Q 941 559 1184 500 
Q 1428 441 1663 441 
Q 2288 441 2617 861 
Q 2947 1281 2994 2138 
Q 2813 1869 2534 1725 
Q 2256 1581 1919 1581 
Q 1219 1581 811 2004 
Q 403 2428 403 3163 
Q 403 3881 828 4315 
Q 1253 4750 1959 4750 
Q 2769 4750 3195 4129 
Q 3622 3509 3622 2328 
Q 3622 1225 3098 567 
Q 2575 -91 1691 -91 
Q 1453 -91 1209 -44 
Q 966 3 703 97 
z
M 1959 2075 
Q 2384 2075 2632 2365 
Q 2881 2656 2881 3163 
Q 2881 3666 2632 3958 
Q 2384 4250 1959 4250 
Q 1534 4250 1286 3958 
Q 1038 3666 1038 3163 
Q 1038 2656 1286 2365 
Q 1534 2075 1959 2075 
z
" id="DejaVuSans-39" transform="scale(0.015625)"/>
       </defs>
       <use xlink:href="#DejaVuSans-32"/>
       <use x="63.623047" xlink:href="#DejaVuSans-30"/>
       <use x="127.246094" xlink:href="#DejaVuSans-32"/>
       <use x="190.869141" xlink:href="#DejaVuSans-31"/>
       <use x="254.492188" xlink:href="#DejaVuSans-2d"/>
       <use x="290.576172" xlink:href="#DejaVuSans-30"/>
       <use x="354.199219" xlink:href="#DejaVuSans-39"/>
      </g>
     </g>
    </g>
    <g id="xtick_2">
     <g id="line2d_2">
      <g>
       <use style="stroke:#000000;stroke-width:0.8;" x="125.30235" xlink:href="#ma12370d974" y="276.48"/>
      </g>
     </g>
     <g id="text_2">
      <!-- 2021-10 -->
      <g transform="translate(88.07753 310.951846)rotate(-30)scale(0.1 -0.1)">
       <use xlink:href="#DejaVuSans-32"/>
       <use x="63.623047" xlink:href="#DejaVuSans-30"/>
       <use x="127.246094" xlink:href="#DejaVuSans-32"/>
       <use x="190.869141" xlink:href="#DejaVuSans-31"/>
       <use x="254.492188" xlink:href="#DejaVuSans-2d"/>
       <use x="290.576172" xlink:href="#DejaVuSans-31"/>
       <use x="354.199219" xlink:href="#DejaVuSans-30"/>
      </g>
     </g>
    </g>
    <g id="xtick_3">
     <g id="line2d_3">
      <g>
       <use style="stroke:#000000;stroke-width:0.8;" x="166.214102" xlink:href="#ma12370d974" y="276.48"/>
      </g>
     </g>
     <g id="text_3">
      <!-- 2021-11 -->
      <g transform="translate(128.989281 310.951846)rotate(-30)scale(0.1 -0.1)">
       <use xlink:href="#DejaVuSans-32"/>
       <use x="63.623047" xlink:href="#DejaVuSans-30"/>
       <use x="127.246094" xlink:href="#DejaVuSans-32"/>
       <use x="190.869141" xlink:href="#DejaVuSans-31"/>
       <use x="254.492188" xlink:href="#DejaVuSans-2d"/>
       <use x="290.576172" xlink:href="#DejaVuSans-31"/>
       <use x="354.199219" xlink:href="#DejaVuSans-31"/>
      </g>
     </g>
    </g>
    <g id="xtick_4">
     <g id="line2d_4">
      <g>
       <use style="stroke:#000000;stroke-width:0.8;" x="205.80612" xlink:href="#ma12370d974" y="276.48"/>
      </g>
     </g>
     <g id="text_4">
      <!-- 2021-12 -->
      <g transform="translate(168.581299 310.951846)rotate(-30)scale(0.1 -0.1)">
       <use xlink:href="#DejaVuSans-32"/>
       <use x="63.623047" xlink:href="#DejaVuSans-30"/>
       <use x="127.246094" xlink:href="#DejaVuSans-32"/>
       <use x="190.869141" xlink:href="#DejaVuSans-31"/>
       <use x="254.492188" xlink:href="#DejaVuSans-2d"/>
       <use x="290.576172" xlink:href="#DejaVuSans-31"/>
       <use x="354.199219" xlink:href="#DejaVuSans-32"/>
      </g>
     </g>
    </g>
    <g id="xtick_5">
     <g id="line2d_5">
      <g>
       <use style="stroke:#000000;stroke-width:0.8;" x="246.717871" xlink:href="#ma12370d974" y="276.48"/>
      </g>
     </g>
     <g id="text_5">
      <!-- 2022-01 -->
      <g transform="translate(209.493051 310.951846)rotate(-30)scale(0.1 -0.1)">
       <use xlink:href="#DejaVuSans-32"/>
       <use x="63.623047" xlink:href="#DejaVuSans-30"/>
       <use x="127.246094" xlink:href="#DejaVuSans-32"/>
       <use x="190.869141" xlink:href="#DejaVuSans-32"/>
       <use x="254.492188" xlink:href="#DejaVuSans-2d"/>
       <use x="290.576172" xlink:href="#DejaVuSans-30"/>
       <use x="354.199219" xlink:href="#DejaVuSans-31"/>
      </g>
     </g>
    </g>
    <g id="xtick_6">
     <g id="line2d_6">
      <g>
       <use style="stroke:#000000;stroke-width:0.8;" x="287.629623" xlink:href="#ma12370d974" y="276.48"/>
      </g>
     </g>
     <g id="text_6">
      <!-- 2022-02 -->
      <g transform="translate(250.404802 310.951846)rotate(-30)scale(0.1 -0.1)">
       <use xlink:href="#DejaVuSans-32"/>
       <use x="63.623047" xlink:href="#DejaVuSans-30"/>
       <use x="127.246094" xlink:href="#DejaVuSans-32"/>
       <use x="190.869141" xlink:href="#DejaVuSans-32"/>
       <use x="254.492188" xlink:href="#DejaVuSans-2d"/>
       <use x="290.576172" xlink:href="#DejaVuSans-30"/>
       <use x="354.199219" xlink:href="#DejaVuSans-32"/>
      </g>
     </g>
    </g>
    <g id="xtick_7">
     <g id="line2d_7">
      <g>
       <use style="stroke:#000000;stroke-width:0.8;" x="324.582173" xlink:href="#ma12370d974" y="276.48"/>
      </g>
     </g>
     <g id="text_7">
      <!-- 2022-03 -->
      <g transform="translate(287.357352 310.951846)rotate(-30)scale(0.1 -0.1)">
       <defs>
        <path d="M 2597 2516 
Q 3050 2419 3304 2112 
Q 3559 1806 3559 1356 
Q 3559 666 3084 287 
Q 2609 -91 1734 -91 
Q 1441 -91 1130 -33 
Q 819 25 488 141 
L 488 750 
Q 750 597 1062 519 
Q 1375 441 1716 441 
Q 2309 441 2620 675 
Q 2931 909 2931 1356 
Q 2931 1769 2642 2001 
Q 2353 2234 1838 2234 
L 1294 2234 
L 1294 2753 
L 1863 2753 
Q 2328 2753 2575 2939 
Q 2822 3125 2822 3475 
Q 2822 3834 2567 4026 
Q 2313 4219 1838 4219 
Q 1578 4219 1281 4162 
Q 984 4106 628 3988 
L 628 4550 
Q 988 4650 1302 4700 
Q 1616 4750 1894 4750 
Q 2613 4750 3031 4423 
Q 3450 4097 3450 3541 
Q 3450 3153 3228 2886 
Q 3006 2619 2597 2516 
z
" id="DejaVuSans-33" transform="scale(0.015625)"/>
       </defs>
       <use xlink:href="#DejaVuSans-32"/>
       <use x="63.623047" xlink:href="#DejaVuSans-30"/>
       <use x="127.246094" xlink:href="#DejaVuSans-32"/>
       <use x="190.869141" xlink:href="#DejaVuSans-32"/>
       <use x="254.492188" xlink:href="#DejaVuSans-2d"/>
       <use x="290.576172" xlink:href="#DejaVuSans-30"/>
       <use x="354.199219" xlink:href="#DejaVuSans-33"/>
      </g>
     </g>
    </g>
    <g id="xtick_8">
     <g id="line2d_8">
      <g>
       <use style="stroke:#000000;stroke-width:0.8;" x="365.493925" xlink:href="#ma12370d974" y="276.48"/>
      </g>
     </g>
     <g id="text_8">
      <!-- 2022-04 -->
      <g transform="translate(328.269104 310.951846)rotate(-30)scale(0.1 -0.1)">
       <defs>
        <path d="M 2419 4116 
L 825 1625 
L 2419 1625 
L 2419 4116 
z
M 2253 4666 
L 3047 4666 
L 3047 1625 
L 3713 1625 
L 3713 1100 
L 3047 1100 
L 3047 0 
L 2419 0 
L 2419 1100 
L 313 1100 
L 313 1709 
L 2253 4666 
z
" id="DejaVuSans-34" transform="scale(0.015625)"/>
       </defs>
       <use xlink:href="#DejaVuSans-32"/>
       <use x="63.623047" xlink:href="#DejaVuSans-30"/>
       <use x="127.246094" xlink:href="#DejaVuSans-32"/>
       <use x="190.869141" xlink:href="#DejaVuSans-32"/>
       <use x="254.492188" xlink:href="#DejaVuSans-2d"/>
       <use x="290.576172" xlink:href="#DejaVuSans-30"/>
       <use x="354.199219" xlink:href="#DejaVuSans-34"/>
      </g>
     </g>
    </g>
    <g id="xtick_9">
     <g id="line2d_9">
      <g>
       <use style="stroke:#000000;stroke-width:0.8;" x="405.085942" xlink:href="#ma12370d974" y="276.48"/>
      </g>
     </g>
     <g id="text_9">
      <!-- 2022-05 -->
      <g transform="translate(367.861122 310.951846)rotate(-30)scale(0.1 -0.1)">
       <defs>
        <path d="M 691 4666 
L 3169 4666 
L 3169 4134 
L 1269 4134 
L 1269 2991 
Q 1406 3038 1543 3061 
Q 1681 3084 1819 3084 
Q 2600 3084 3056 2656 
Q 3513 2228 3513 1497 
Q 3513 744 3044 326 
Q 2575 -91 1722 -91 
Q 1428 -91 1123 -41 
Q 819 9 494 109 
L 494 744 
Q 775 591 1075 516 
Q 1375 441 1709 441 
Q 2250 441 2565 725 
Q 2881 1009 2881 1497 
Q 2881 1984 2565 2268 
Q 2250 2553 1709 2553 
Q 1456 2553 1204 2497 
Q 953 2441 691 2322 
L 691 4666 
z
" id="DejaVuSans-35" transform="scale(0.015625)"/>
       </defs>
       <use xlink:href="#DejaVuSans-32"/>
       <use x="63.623047" xlink:href="#DejaVuSans-30"/>
       <use x="127.246094" xlink:href="#DejaVuSans-32"/>
       <use x="190.869141" xlink:href="#DejaVuSans-32"/>
       <use x="254.492188" xlink:href="#DejaVuSans-2d"/>
       <use x="290.576172" xlink:href="#DejaVuSans-30"/>
       <use x="354.199219" xlink:href="#DejaVuSans-35"/>
      </g>
     </g>
    </g>
    <g id="text_10">
     <!-- date -->
     <g transform="translate(224.885 324.351346)scale(0.1 -0.1)">
      <defs>
       <path d="M 2906 2969 
L 2906 4863 
L 3481 4863 
L 3481 0 
L 2906 0 
L 2906 525 
Q 2725 213 2448 61 
Q 2172 -91 1784 -91 
Q 1150 -91 751 415 
Q 353 922 353 1747 
Q 353 2572 751 3078 
Q 1150 3584 1784 3584 
Q 2172 3584 2448 3432 
Q 2725 3281 2906 2969 
z
M 947 1747 
Q 947 1113 1208 752 
Q 1469 391 1925 391 
Q 2381 391 2643 752 
Q 2906 1113 2906 1747 
Q 2906 2381 2643 2742 
Q 2381 3103 1925 3103 
Q 1469 3103 1208 2742 
Q 947 2381 947 1747 
z
" id="DejaVuSans-64" transform="scale(0.015625)"/>
       <path d="M 2194 1759 
Q 1497 1759 1228 1600 
Q 959 1441 959 1056 
Q 959 750 1161 570 
Q 1363 391 1709 391 
Q 2188 391 2477 730 
Q 2766 1069 2766 1631 
L 2766 1759 
L 2194 1759 
z
M 3341 1997 
L 3341 0 
L 2766 0 
L 2766 531 
Q 2569 213 2275 61 
Q 1981 -91 1556 -91 
Q 1019 -91 701 211 
Q 384 513 384 1019 
Q 384 1609 779 1909 
Q 1175 2209 1959 2209 
L 2766 2209 
L 2766 2266 
Q 2766 2663 2505 2880 
Q 2244 3097 1772 3097 
Q 1472 3097 1187 3025 
Q 903 2953 641 2809 
L 641 3341 
Q 956 3463 1253 3523 
Q 1550 3584 1831 3584 
Q 2591 3584 2966 3190 
Q 3341 2797 3341 1997 
z
" id="DejaVuSans-61" transform="scale(0.015625)"/>
       <path d="M 1172 4494 
L 1172 3500 
L 2356 3500 
L 2356 3053 
L 1172 3053 
L 1172 1153 
Q 1172 725 1289 603 
Q 1406 481 1766 481 
L 2356 481 
L 2356 0 
L 1766 0 
Q 1100 0 847 248 
Q 594 497 594 1153 
L 594 3053 
L 172 3053 
L 172 3500 
L 594 3500 
L 594 4494 
L 1172 4494 
z
" id="DejaVuSans-74" transform="scale(0.015625)"/>
       <path d="M 3597 1894 
L 3597 1613 
L 953 1613 
Q 991 1019 1311 708 
Q 1631 397 2203 397 
Q 2534 397 2845 478 
Q 3156 559 3463 722 
L 3463 178 
Q 3153 47 2828 -22 
Q 2503 -91 2169 -91 
Q 1331 -91 842 396 
Q 353 884 353 1716 
Q 353 2575 817 3079 
Q 1281 3584 2069 3584 
Q 2775 3584 3186 3129 
Q 3597 2675 3597 1894 
z
M 3022 2063 
Q 3016 2534 2758 2815 
Q 2500 3097 2075 3097 
Q 1594 3097 1305 2825 
Q 1016 2553 972 2059 
L 3022 2063 
z
" id="DejaVuSans-65" transform="scale(0.015625)"/>
      </defs>
      <use xlink:href="#DejaVuSans-64"/>
      <use x="63.476562" xlink:href="#DejaVuSans-61"/>
      <use x="124.755859" xlink:href="#DejaVuSans-74"/>
      <use x="163.964844" xlink:href="#DejaVuSans-65"/>
     </g>
    </g>
   </g>
   <g id="matplotlib.axis_2">
    <g id="ytick_1">
     <g id="line2d_10">
      <defs>
       <path d="M 0 0 
L -3.5 0 
" id="m9f88c1445c" style="stroke:#000000;stroke-width:0.8;"/>
      </defs>
      <g>
       <use style="stroke:#000000;stroke-width:0.8;" x="57.6" xlink:href="#m9f88c1445c" y="258.926579"/>
      </g>
     </g>
     <g id="text_11">
      <!-- 80000 -->
      <g transform="translate(18.7875 262.725798)scale(0.1 -0.1)">
       <defs>
        <path d="M 2034 2216 
Q 1584 2216 1326 1975 
Q 1069 1734 1069 1313 
Q 1069 891 1326 650 
Q 1584 409 2034 409 
Q 2484 409 2743 651 
Q 3003 894 3003 1313 
Q 3003 1734 2745 1975 
Q 2488 2216 2034 2216 
z
M 1403 2484 
Q 997 2584 770 2862 
Q 544 3141 544 3541 
Q 544 4100 942 4425 
Q 1341 4750 2034 4750 
Q 2731 4750 3128 4425 
Q 3525 4100 3525 3541 
Q 3525 3141 3298 2862 
Q 3072 2584 2669 2484 
Q 3125 2378 3379 2068 
Q 3634 1759 3634 1313 
Q 3634 634 3220 271 
Q 2806 -91 2034 -91 
Q 1263 -91 848 271 
Q 434 634 434 1313 
Q 434 1759 690 2068 
Q 947 2378 1403 2484 
z
M 1172 3481 
Q 1172 3119 1398 2916 
Q 1625 2713 2034 2713 
Q 2441 2713 2670 2916 
Q 2900 3119 2900 3481 
Q 2900 3844 2670 4047 
Q 2441 4250 2034 4250 
Q 1625 4250 1398 4047 
Q 1172 3844 1172 3481 
z
" id="DejaVuSans-38" transform="scale(0.015625)"/>
       </defs>
       <use xlink:href="#DejaVuSans-38"/>
       <use x="63.623047" xlink:href="#DejaVuSans-30"/>
       <use x="127.246094" xlink:href="#DejaVuSans-30"/>
       <use x="190.869141" xlink:href="#DejaVuSans-30"/>
       <use x="254.492188" xlink:href="#DejaVuSans-30"/>
      </g>
     </g>
    </g>
    <g id="ytick_2">
     <g id="line2d_11">
      <g>
       <use style="stroke:#000000;stroke-width:0.8;" x="57.6" xlink:href="#m9f88c1445c" y="230.994535"/>
      </g>
     </g>
     <g id="text_12">
      <!-- 85000 -->
      <g transform="translate(18.7875 234.793753)scale(0.1 -0.1)">
       <use xlink:href="#DejaVuSans-38"/>
       <use x="63.623047" xlink:href="#DejaVuSans-35"/>
       <use x="127.246094" xlink:href="#DejaVuSans-30"/>
       <use x="190.869141" xlink:href="#DejaVuSans-30"/>
       <use x="254.492188" xlink:href="#DejaVuSans-30"/>
      </g>
     </g>
    </g>
    <g id="ytick_3">
     <g id="line2d_12">
      <g>
       <use style="stroke:#000000;stroke-width:0.8;" x="57.6" xlink:href="#m9f88c1445c" y="203.06249"/>
      </g>
     </g>
     <g id="text_13">
      <!-- 90000 -->
      <g transform="translate(18.7875 206.861709)scale(0.1 -0.1)">
       <use xlink:href="#DejaVuSans-39"/>
       <use x="63.623047" xlink:href="#DejaVuSans-30"/>
       <use x="127.246094" xlink:href="#DejaVuSans-30"/>
       <use x="190.869141" xlink:href="#DejaVuSans-30"/>
       <use x="254.492188" xlink:href="#DejaVuSans-30"/>
      </g>
     </g>
    </g>
    <g id="ytick_4">
     <g id="line2d_13">
      <g>
       <use style="stroke:#000000;stroke-width:0.8;" x="57.6" xlink:href="#m9f88c1445c" y="175.130445"/>
      </g>
     </g>
     <g id="text_14">
      <!-- 95000 -->
      <g transform="translate(18.7875 178.929664)scale(0.1 -0.1)">
       <use xlink:href="#DejaVuSans-39"/>
       <use x="63.623047" xlink:href="#DejaVuSans-35"/>
       <use x="127.246094" xlink:href="#DejaVuSans-30"/>
       <use x="190.869141" xlink:href="#DejaVuSans-30"/>
       <use x="254.492188" xlink:href="#DejaVuSans-30"/>
      </g>
     </g>
    </g>
    <g id="ytick_5">
     <g id="line2d_14">
      <g>
       <use style="stroke:#000000;stroke-width:0.8;" x="57.6" xlink:href="#m9f88c1445c" y="147.198401"/>
      </g>
     </g>
     <g id="text_15">
      <!-- 100000 -->
      <g transform="translate(12.425 150.99762)scale(0.1 -0.1)">
       <use xlink:href="#DejaVuSans-31"/>
       <use x="63.623047" xlink:href="#DejaVuSans-30"/>
       <use x="127.246094" xlink:href="#DejaVuSans-30"/>
       <use x="190.869141" xlink:href="#DejaVuSans-30"/>
       <use x="254.492188" xlink:href="#DejaVuSans-30"/>
       <use x="318.115234" xlink:href="#DejaVuSans-30"/>
      </g>
     </g>
    </g>
    <g id="ytick_6">
     <g id="line2d_15">
      <g>
       <use style="stroke:#000000;stroke-width:0.8;" x="57.6" xlink:href="#m9f88c1445c" y="119.266356"/>
      </g>
     </g>
     <g id="text_16">
      <!-- 105000 -->
      <g transform="translate(12.425 123.065575)scale(0.1 -0.1)">
       <use xlink:href="#DejaVuSans-31"/>
       <use x="63.623047" xlink:href="#DejaVuSans-30"/>
       <use x="127.246094" xlink:href="#DejaVuSans-35"/>
       <use x="190.869141" xlink:href="#DejaVuSans-30"/>
       <use x="254.492188" xlink:href="#DejaVuSans-30"/>
       <use x="318.115234" xlink:href="#DejaVuSans-30"/>
      </g>
     </g>
    </g>
    <g id="ytick_7">
     <g id="line2d_16">
      <g>
       <use style="stroke:#000000;stroke-width:0.8;" x="57.6" xlink:href="#m9f88c1445c" y="91.334312"/>
      </g>
     </g>
     <g id="text_17">
      <!-- 110000 -->
      <g transform="translate(12.425 95.133531)scale(0.1 -0.1)">
       <use xlink:href="#DejaVuSans-31"/>
       <use x="63.623047" xlink:href="#DejaVuSans-31"/>
       <use x="127.246094" xlink:href="#DejaVuSans-30"/>
       <use x="190.869141" xlink:href="#DejaVuSans-30"/>
       <use x="254.492188" xlink:href="#DejaVuSans-30"/>
       <use x="318.115234" xlink:href="#DejaVuSans-30"/>
      </g>
     </g>
    </g>
    <g id="ytick_8">
     <g id="line2d_17">
      <g>
       <use style="stroke:#000000;stroke-width:0.8;" x="57.6" xlink:href="#m9f88c1445c" y="63.402267"/>
      </g>
     </g>
     <g id="text_18">
      <!-- 115000 -->
      <g transform="translate(12.425 67.201486)scale(0.1 -0.1)">
       <use xlink:href="#DejaVuSans-31"/>
       <use x="63.623047" xlink:href="#DejaVuSans-31"/>
       <use x="127.246094" xlink:href="#DejaVuSans-35"/>
       <use x="190.869141" xlink:href="#DejaVuSans-30"/>
       <use x="254.492188" xlink:href="#DejaVuSans-30"/>
       <use x="318.115234" xlink:href="#DejaVuSans-30"/>
      </g>
     </g>
    </g>
   </g>
   <g id="line2d_18">
    <path clip-path="url(#pbd15d4a6ff)" d="M 73.832727 147.198401 
L 75.152461 145.446935 
L 76.472195 143.281272 
L 77.791929 146.26908 
L 79.111663 140.956981 
L 83.070865 137.639789 
L 84.390599 136.803432 
L 85.710333 138.383217 
L 87.030067 137.340794 
L 88.3498 137.646781 
L 93.628736 137.92447 
L 96.268204 140.538162 
L 97.587938 145.767325 
L 101.54714 141.312914 
L 102.866874 149.30427 
L 104.186608 145.265131 
L 105.506341 146.349168 
L 106.826075 151.886115 
L 110.785277 161.315947 
L 112.105011 162.658991 
L 113.424745 158.43255 
L 114.744479 149.841872 
L 116.064213 145.211532 
L 120.023415 141.512314 
L 121.343149 153.483922 
L 122.662882 152.309921 
L 123.982616 156.328158 
L 125.30235 148.290233 
L 129.261552 158.554678 
L 130.581286 149.867355 
L 131.90102 148.01383 
L 133.220754 148.155949 
L 134.540488 147.465296 
L 138.49969 146.734052 
L 139.819424 145.990773 
L 141.139157 153.231815 
L 142.458891 142.478328 
L 143.778625 141.379395 
L 147.737827 137.274177 
L 149.057561 131.410204 
L 150.377295 129.359736 
L 151.697029 139.221886 
L 153.016763 146.922626 
L 156.975965 146.573637 
L 158.295698 151.282168 
L 159.615432 153.288813 
L 160.935166 146.079055 
L 162.2549 153.157988 
L 166.214102 141.860548 
L 167.533836 142.052635 
L 168.85357 136.126172 
L 170.173304 142.594002 
L 171.493038 138.959786 
L 175.452239 138.30282 
L 176.771973 144.973467 
L 178.091707 145.451746 
L 179.411441 150.016114 
L 180.731175 145.293491 
L 184.690377 143.547356 
L 186.010111 143.770766 
L 187.329845 147.05916 
L 188.649579 148.113125 
L 189.969313 148.64096 
L 193.928514 145.010814 
L 195.248248 140.954294 
L 196.567982 141.190781 
L 199.20745 141.525398 
L 203.166652 146.299346 
L 204.486386 157.421367 
L 205.80612 164.854697 
L 207.125854 158.400006 
L 208.445588 161.963818 
L 212.404789 151.611021 
L 213.724523 142.082928 
L 215.044257 137.722386 
L 216.363991 136.965702 
L 217.683725 135.305053 
L 221.642927 140.790908 
L 222.962661 138.259924 
L 225.602129 132.217126 
L 226.921863 138.636826 
L 230.881064 146.149066 
L 232.200798 133.019463 
L 233.520532 130.988207 
L 234.840266 125.330684 
L 240.119202 118.432895 
L 241.438936 118.553823 
L 242.75867 118.550516 
L 244.078404 119.774314 
L 245.398137 122.405697 
L 249.357339 113.546631 
L 250.677073 106.400982 
L 251.996807 122.00817 
L 253.316541 116.675842 
L 254.636275 115.282061 
L 258.595477 115.000621 
L 259.915211 110.223758 
L 261.234945 108.845831 
L 262.554678 116.205075 
L 263.874412 114.285135 
L 269.153348 127.073872 
L 270.473082 130.800472 
L 271.792816 137.171252 
L 273.11255 150.702565 
L 277.071752 149.809543 
L 278.391486 156.506377 
L 279.71122 156.519589 
L 281.030953 160.18254 
L 282.350687 145.9838 
L 286.309889 133.941843 
L 287.629623 128.798619 
L 288.949357 118.777126 
L 290.269091 155.653097 
L 291.588825 154.802189 
L 295.548027 164.265962 
L 296.867761 165.092609 
L 298.187494 153.356636 
L 299.507228 163.563694 
L 300.826962 175.761182 
L 304.786164 179.507043 
L 306.105898 172.698079 
L 307.425632 175.451392 
L 308.745366 185.695991 
L 310.0651 188.688992 
L 315.344035 194.479301 
L 316.663769 202.120213 
L 317.983503 189.821617 
L 319.303237 179.989164 
L 323.262439 182.853044 
L 324.582173 191.658613 
L 325.901907 180.628544 
L 327.221641 183.286338 
L 328.541375 189.560612 
L 332.500576 211.125716 
L 333.82031 210.937085 
L 335.140044 189.687289 
L 336.459778 196.704658 
L 337.779512 204.928071 
L 341.738714 206.525008 
L 343.058448 196.311135 
L 344.378182 180.477666 
L 345.697916 174.157555 
L 347.01765 165.497163 
L 350.976851 168.164697 
L 352.296585 157.391832 
L 353.616319 163.62774 
L 354.936053 155.028378 
L 356.255787 149.399898 
L 360.214989 147.955367 
L 361.534723 143.302107 
L 362.854457 145.416396 
L 364.174191 158.526722 
L 365.493925 156.906983 
L 369.453126 150.561714 
L 370.77286 156.534631 
L 372.092594 164.939822 
L 373.412328 166.073503 
L 374.732062 166.780112 
L 378.691264 176.340227 
L 380.010998 179.839106 
L 381.330732 177.767346 
L 382.650466 187.205262 
L 387.929401 183.110039 
L 389.249135 173.238712 
L 390.568869 178.437493 
L 391.888603 193.112884 
L 393.208337 209.736311 
L 397.167539 206.173028 
L 398.487273 226.729474 
L 398.487273 226.729474 
" style="fill:none;stroke:#0000ff;stroke-linecap:square;stroke-opacity:0.9;stroke-width:2;"/>
   </g>
   <g id="line2d_19">
    <path clip-path="url(#pbd15d4a6ff)" d="M 73.832727 147.198401 
L 76.472195 141.49936 
L 77.791929 144.879715 
L 79.111663 138.460788 
L 84.390599 135.429196 
L 85.710333 135.748483 
L 87.030067 136.423684 
L 88.3498 136.517613 
L 93.628736 135.152924 
L 94.94847 137.720307 
L 96.268204 138.459827 
L 97.587938 144.555691 
L 101.54714 140.736327 
L 102.866874 145.827456 
L 104.186608 143.486575 
L 105.506341 145.076269 
L 106.826075 152.111468 
L 110.785277 161.210601 
L 112.105011 161.032925 
L 113.424745 158.072071 
L 114.744479 151.104675 
L 116.064213 146.40985 
L 120.023415 143.090062 
L 121.343149 154.174997 
L 122.662882 153.697385 
L 123.982616 158.60139 
L 125.30235 150.93387 
L 129.261552 157.149768 
L 130.581286 148.735464 
L 133.220754 146.233578 
L 134.540488 143.108464 
L 138.49969 146.370473 
L 139.819424 150.656665 
L 141.139157 152.688673 
L 142.458891 139.114651 
L 143.778625 135.117755 
L 147.737827 133.519601 
L 149.057561 128.914025 
L 150.377295 125.540235 
L 151.697029 132.984111 
L 153.016763 136.268303 
L 156.975965 137.656441 
L 158.295698 140.623405 
L 159.615432 144.008603 
L 160.935166 135.799673 
L 162.2549 135.246527 
L 166.214102 134.837886 
L 167.533836 132.666151 
L 168.85357 128.480845 
L 170.173304 129.298119 
L 171.493038 129.533798 
L 175.452239 128.915731 
L 176.771973 133.371963 
L 178.091707 136.386592 
L 179.411441 135.904409 
L 180.731175 132.082314 
L 184.690377 130.727629 
L 186.010111 132.108187 
L 187.329845 132.60662 
L 188.649579 132.644694 
L 189.969313 134.905016 
L 193.928514 132.52661 
L 195.248248 126.482545 
L 196.567982 126.589535 
L 199.20745 141.47228 
L 203.166652 135.150416 
L 204.486386 147.183233 
L 205.80612 153.463162 
L 207.125854 146.245607 
L 208.445588 150.720495 
L 212.404789 142.018247 
L 213.724523 132.377424 
L 215.044257 129.177677 
L 216.363991 129.314234 
L 217.683725 125.707543 
L 221.642927 131.492977 
L 222.962661 131.472418 
L 224.282395 126.806437 
L 225.602129 126.725987 
L 226.921863 134.190619 
L 230.881064 140.644704 
L 232.200798 129.992731 
L 233.520532 126.371205 
L 234.840266 121.558572 
L 240.119202 114.38411 
L 241.438936 114.60592 
L 242.75867 113.982492 
L 244.078404 115.04318 
L 245.398137 116.976049 
L 249.357339 111.045062 
L 250.677073 105.011532 
L 251.996807 118.095428 
L 253.316541 115.601363 
L 254.636275 112.600307 
L 258.595477 112.979682 
L 259.915211 109.439052 
L 261.234945 109.669304 
L 262.554678 114.224838 
L 263.874412 114.430828 
L 269.153348 127.392246 
L 271.792816 138.371938 
L 273.11255 150.251071 
L 277.071752 150.696272 
L 278.391486 149.729765 
L 279.71122 150.413436 
L 281.030953 155.038122 
L 282.350687 141.681648 
L 286.309889 132.841598 
L 287.629623 126.452212 
L 288.949357 117.416053 
L 290.269091 143.268772 
L 291.588825 138.740597 
L 295.548027 142.268302 
L 296.867761 138.821001 
L 298.187494 133.367803 
L 299.507228 142.863239 
L 300.826962 154.647603 
L 304.786164 159.579188 
L 306.105898 152.975023 
L 307.425632 154.680349 
L 308.745366 165.372052 
L 310.0651 167.717732 
L 315.344035 172.603785 
L 316.663769 179.843983 
L 317.983503 176.71566 
L 319.303237 164.398259 
L 323.262439 169.284305 
L 324.582173 180.407002 
L 325.901907 167.770197 
L 327.221641 169.324175 
L 328.541375 176.863149 
L 332.500576 195.549625 
L 333.82031 198.437319 
L 335.140044 179.385584 
L 336.459778 186.273005 
L 337.779512 192.120162 
L 341.738714 192.619421 
L 343.058448 183.929313 
L 344.378182 171.53917 
L 345.697916 166.520055 
L 347.01765 160.984785 
L 350.976851 160.963325 
L 352.296585 152.021426 
L 353.616319 157.071337 
L 354.936053 149.157103 
L 356.255787 142.77713 
L 360.214989 142.405341 
L 361.534723 139.597214 
L 362.854457 140.118012 
L 364.174191 151.212099 
L 365.493925 148.242796 
L 369.453126 144.862228 
L 370.77286 150.188914 
L 372.092594 157.137704 
L 373.412328 157.179748 
L 374.732062 156.641446 
L 378.691264 165.383963 
L 380.010998 167.985093 
L 381.330732 165.955392 
L 382.650466 174.248543 
L 387.929401 170.937358 
L 389.249135 163.313471 
L 390.568869 160.856199 
L 391.888603 168.028199 
L 393.208337 183.607314 
L 397.167539 182.450052 
L 398.487273 191.190341 
L 398.487273 191.190341 
" style="fill:none;stroke:#ff0000;stroke-linecap:square;stroke-opacity:0.9;stroke-width:2;"/>
   </g>
   <g id="line2d_20">
    <path clip-path="url(#pbd15d4a6ff)" d="M 73.832727 147.198401 
L 75.152461 144.570244 
L 76.472195 142.341184 
L 77.791929 145.224382 
L 79.111663 139.919529 
L 84.390599 135.18258 
L 85.710333 136.759079 
L 87.030067 136.018023 
L 88.3498 136.192843 
L 93.628736 135.986624 
L 94.94847 137.16068 
L 96.268204 139.13694 
L 97.587938 144.06758 
L 101.54714 138.98206 
L 102.866874 146.994068 
L 104.186608 143.118441 
L 105.506341 143.69471 
L 106.826075 149.126515 
L 110.785277 158.339995 
L 112.105011 159.22707 
L 113.424745 155.149363 
L 114.744479 146.939099 
L 116.064213 141.636547 
L 120.023415 137.568205 
L 121.343149 149.488384 
L 122.662882 148.23871 
L 123.982616 152.572165 
L 125.30235 144.665166 
L 129.261552 154.765321 
L 130.581286 146.288178 
L 131.90102 144.097028 
L 133.220754 142.801325 
L 134.540488 140.451536 
L 138.49969 143.881008 
L 139.819424 148.253088 
L 141.139157 148.991921 
L 142.458891 138.022487 
L 143.778625 137.244836 
L 147.737827 132.904898 
L 149.057561 127.265409 
L 150.377295 124.751048 
L 151.697029 134.911376 
L 153.016763 142.772319 
L 156.975965 142.112591 
L 158.295698 147.278812 
L 159.615432 148.958397 
L 160.935166 141.339119 
L 162.2549 140.062063 
L 166.214102 136.874332 
L 167.533836 136.264106 
L 168.85357 131.518059 
L 170.173304 131.048565 
L 171.493038 126.86262 
L 175.452239 125.771029 
L 176.771973 132.878924 
L 178.091707 137.592636 
L 179.411441 137.608433 
L 180.731175 133.356885 
L 184.690377 131.432033 
L 186.010111 134.240637 
L 187.329845 134.378328 
L 188.649579 135.63753 
L 189.969313 136.479493 
L 193.928514 132.616102 
L 195.248248 128.460569 
L 196.567982 128.564025 
L 199.20745 140.470937 
L 203.166652 133.38883 
L 204.486386 144.650135 
L 205.80612 152.873937 
L 207.125854 145.802926 
L 208.445588 149.597606 
L 212.404789 138.835011 
L 213.724523 128.642548 
L 215.044257 124.260655 
L 216.363991 123.921456 
L 217.683725 122.47439 
L 221.642927 127.661958 
L 222.962661 125.064665 
L 224.282395 121.734584 
L 225.602129 119.18879 
L 226.921863 125.001135 
L 230.881064 133.335334 
L 232.200798 119.902952 
L 233.520532 117.141076 
L 234.840266 112.00926 
L 240.119202 104.112307 
L 241.438936 104.448049 
L 242.75867 104.539005 
L 244.078404 105.342313 
L 245.398137 108.139895 
L 249.357339 99.010578 
L 250.677073 91.736402 
L 251.996807 107.737164 
L 253.316541 102.54292 
L 254.636275 100.828633 
L 258.595477 100.768095 
L 259.915211 95.558049 
L 261.234945 94.150448 
L 262.554678 101.587844 
L 263.874412 99.40892 
L 270.473082 116.324826 
L 271.792816 123.159886 
L 273.11255 136.35991 
L 277.071752 135.595599 
L 278.391486 142.558 
L 279.71122 142.678739 
L 281.030953 145.95401 
L 282.350687 131.972256 
L 286.309889 119.222933 
L 287.629623 114.131279 
L 288.949357 103.51681 
L 290.269091 140.845452 
L 291.588825 139.831082 
L 295.548027 149.712559 
L 296.867761 150.861872 
L 298.187494 138.728801 
L 299.507228 148.994881 
L 300.826962 161.626183 
L 304.786164 165.402474 
L 306.105898 158.448957 
L 307.425632 160.992339 
L 308.745366 171.099397 
L 310.0651 175.140952 
L 315.344035 180.39893 
L 316.663769 188.365173 
L 317.983503 175.931348 
L 319.303237 165.367634 
L 323.262439 168.191724 
L 324.582173 177.485795 
L 325.901907 166.189891 
L 327.221641 169.636402 
L 328.541375 179.290453 
L 332.500576 202.797416 
L 333.82031 199.976647 
L 335.140044 176.93625 
L 337.779512 193.80681 
L 341.738714 194.511249 
L 343.058448 183.757221 
L 344.378182 166.627899 
L 345.697916 160.771437 
L 347.01765 152.582638 
L 350.976851 154.719835 
L 352.296585 142.611463 
L 353.616319 149.709508 
L 354.936053 141.409413 
L 356.255787 134.982777 
L 360.214989 134.359584 
L 361.534723 129.837508 
L 362.854457 132.745275 
L 364.174191 147.611974 
L 365.493925 146.020145 
L 369.453126 140.777253 
L 370.77286 147.958341 
L 372.092594 155.915402 
L 373.412328 158.203508 
L 374.732062 158.430506 
L 380.010998 170.404798 
L 381.330732 167.878984 
L 382.650466 178.486499 
L 387.929401 172.396642 
L 389.249135 162.264696 
L 390.568869 165.868564 
L 391.888603 180.671504 
L 393.208337 197.946717 
L 397.167539 194.591884 
L 398.487273 207.327136 
L 398.487273 207.327136 
" style="fill:none;stroke:#ff8040;stroke-linecap:square;stroke-opacity:0.9;stroke-width:2;"/>
   </g>
   <g id="line2d_21">
    <path clip-path="url(#pbd15d4a6ff)" d="M 73.832727 147.757042 
L 76.472195 144.917496 
L 77.791929 148.573911 
L 79.111663 142.187647 
L 83.070865 143.430858 
L 84.390599 142.959856 
L 85.710333 142.642134 
L 87.030067 145.119919 
L 88.3498 144.672641 
L 93.628736 144.468228 
L 94.94847 147.775121 
L 96.268204 149.138199 
L 97.587938 156.488832 
L 101.54714 154.086026 
L 102.866874 157.840967 
L 104.186608 154.427725 
L 105.506341 155.968297 
L 106.826075 162.277564 
L 110.785277 171.627894 
L 112.105011 171.808107 
L 113.424745 170.40702 
L 114.744479 162.629729 
L 116.064213 159.166327 
L 120.023415 155.891252 
L 121.343149 169.350388 
L 122.662882 167.627504 
L 123.982616 172.880411 
L 125.30235 165.189017 
L 129.261552 172.727997 
L 130.581286 164.851828 
L 131.90102 163.844367 
L 133.220754 162.149585 
L 134.540488 159.183116 
L 138.49969 161.735916 
L 139.819424 166.479293 
L 141.139157 167.442375 
L 142.458891 154.552773 
L 143.778625 152.810505 
L 147.737827 150.936778 
L 149.057561 147.378889 
L 150.377295 146.01627 
L 151.697029 157.647223 
L 153.016763 165.872854 
L 156.975965 166.211847 
L 159.615432 168.446172 
L 160.935166 162.170162 
L 162.2549 162.787897 
L 166.214102 160.298221 
L 167.533836 159.220107 
L 168.85357 154.112316 
L 170.173304 156.036214 
L 171.493038 154.274488 
L 175.452239 153.723739 
L 176.771973 158.28963 
L 178.091707 162.436367 
L 179.411441 162.029484 
L 180.731175 159.626337 
L 184.690377 156.833615 
L 186.010111 157.402803 
L 187.329845 157.405506 
L 188.649579 160.63766 
L 189.969313 164.357698 
L 193.928514 160.966404 
L 195.248248 156.130008 
L 196.567982 155.308072 
L 199.20745 167.703541 
L 203.166652 165.106824 
L 204.486386 181.399244 
L 205.80612 189.880889 
L 207.125854 181.351771 
L 208.445588 187.068387 
L 212.404789 178.665508 
L 213.724523 169.885397 
L 215.044257 167.051349 
L 216.363991 166.613093 
L 217.683725 164.799157 
L 221.642927 170.900681 
L 222.962661 171.574491 
L 224.282395 167.330123 
L 225.602129 170.873516 
L 226.921863 178.428813 
L 230.881064 183.696816 
L 232.200798 174.055713 
L 233.520532 171.151934 
L 234.840266 167.614548 
L 240.119202 160.615516 
L 241.438936 162.004173 
L 244.078404 163.122162 
L 245.398137 165.487203 
L 249.357339 160.412513 
L 250.677073 156.66124 
L 251.996807 166.525042 
L 253.316541 164.599216 
L 254.636275 163.243251 
L 258.595477 161.981884 
L 259.915211 157.873864 
L 261.234945 157.855284 
L 262.554678 161.459684 
L 263.874412 160.38421 
L 269.153348 171.527329 
L 270.473082 175.679568 
L 271.792816 180.52877 
L 273.11255 192.347007 
L 277.071752 194.480643 
L 278.391486 195.64834 
L 279.71122 197.286086 
L 281.030953 202.716126 
L 282.350687 189.040242 
L 286.309889 183.765903 
L 287.629623 178.115393 
L 288.949357 173.079484 
L 290.269091 211.522027 
L 291.588825 205.418484 
L 295.548027 213.53803 
L 296.867761 212.931566 
L 298.187494 205.351786 
L 299.507228 213.579381 
L 300.826962 223.424013 
L 304.786164 228.291895 
L 306.105898 220.671509 
L 307.425632 224.355753 
L 308.745366 235.637141 
L 310.0651 237.991647 
L 315.344035 242.461201 
L 316.663769 248.619311 
L 317.983503 245.621918 
L 319.303237 234.33249 
L 323.262439 238.256911 
L 324.582173 248.732276 
L 325.901907 240.459466 
L 327.221641 240.423462 
L 328.541375 244.260079 
L 332.500576 265.667958 
L 333.82031 263.993427 
L 335.140044 246.485024 
L 336.459778 251.677133 
L 337.779512 258.616182 
L 341.738714 261.588777 
L 343.058448 254.797492 
L 344.378182 243.875732 
L 345.697916 239.470378 
L 347.01765 232.206458 
L 350.976851 233.333605 
L 352.296585 223.513923 
L 353.616319 229.090342 
L 354.936053 222.581597 
L 356.255787 218.713829 
L 360.214989 218.472005 
L 361.534723 217.321014 
L 362.854457 217.991412 
L 364.174191 225.087816 
L 365.493925 221.526726 
L 369.453126 215.470749 
L 370.77286 218.194306 
L 372.092594 223.442894 
L 373.412328 223.895169 
L 374.732062 222.458054 
L 378.691264 230.597137 
L 380.010998 231.721907 
L 381.330732 228.21514 
L 382.650466 236.681124 
L 387.929401 233.313341 
L 389.249135 227.029639 
L 390.568869 231.466286 
L 391.888603 241.757154 
L 393.208337 254.587286 
L 397.167539 253.928501 
L 398.487273 265.797818 
L 398.487273 265.797818 
" style="fill:none;stroke:#0d0d0d;stroke-linecap:square;stroke-opacity:0.25;stroke-width:2;"/>
   </g>
   <g id="line2d_22">
    <path clip-path="url(#pbd15d4a6ff)" d="M 73.832727 146.63976 
L 75.152461 141.43492 
L 76.472195 138.288381 
L 77.791929 139.820542 
L 79.111663 132.982802 
L 83.070865 127.761041 
L 84.390599 126.509167 
L 85.710333 126.6473 
L 87.030067 126.936202 
L 88.3498 127.004418 
L 93.628736 123.381891 
L 94.94847 125.764966 
L 96.268204 126.572292 
L 97.587938 131.73629 
L 101.54714 126.9518 
L 102.866874 130.744537 
L 104.186608 128.489507 
L 105.506341 129.692135 
L 106.826075 137.81083 
L 110.785277 146.018278 
L 112.105011 146.254251 
L 113.424745 143.047318 
L 114.744479 136.263591 
L 116.064213 131.402655 
L 120.023415 127.861675 
L 121.343149 138.086432 
L 122.662882 137.71073 
L 123.982616 143.630805 
L 125.30235 133.896343 
L 129.261552 139.245717 
L 130.581286 130.872532 
L 131.90102 129.52796 
L 133.220754 127.807582 
L 134.540488 124.813962 
L 138.49969 128.189423 
L 139.819424 132.756946 
L 141.139157 136.674168 
L 142.458891 122.864319 
L 143.778625 119.031399 
L 147.737827 117.396797 
L 149.057561 110.997934 
L 150.377295 107.460867 
L 153.016763 106.4833 
L 156.975965 108.001888 
L 158.295698 109.71628 
L 159.615432 116.150197 
L 160.935166 107.642618 
L 162.2549 107.746929 
L 166.214102 101.310278 
L 167.533836 101.032267 
L 170.173304 92.126623 
L 171.493038 92.703996 
L 175.452239 91.680363 
L 178.091707 105.189282 
L 179.411441 105.431854 
L 180.731175 101.610687 
L 184.690377 99.704119 
L 186.010111 101.36896 
L 187.329845 101.662434 
L 188.649579 101.404495 
L 189.969313 102.86647 
L 193.928514 102.76946 
L 195.248248 98.945179 
L 196.567982 98.411202 
L 199.20745 109.436348 
L 203.166652 103.339368 
L 204.486386 109.914398 
L 205.80612 114.632575 
L 207.125854 103.933956 
L 208.445588 107.705591 
L 212.404789 99.978081 
L 213.724523 88.329792 
L 215.044257 84.36773 
L 216.363991 85.545007 
L 217.683725 81.752608 
L 221.642927 85.310067 
L 222.962661 83.757586 
L 224.282395 78.864863 
L 225.602129 81.772277 
L 226.921863 87.084002 
L 230.881064 94.163596 
L 232.200798 82.683947 
L 233.520532 80.519943 
L 234.840266 74.440089 
L 240.119202 64.815297 
L 241.438936 64.203238 
L 242.75867 62.945389 
L 244.078404 63.864269 
L 245.398137 66.417137 
L 249.357339 61.327554 
L 250.677073 57.727989 
L 251.996807 66.942959 
L 253.316541 62.974328 
L 254.636275 57.332764 
L 258.595477 57.077333 
L 259.915211 52.154182 
L 261.234945 52.88291 
L 262.554678 60.072598 
L 263.874412 60.008953 
L 269.153348 74.765141 
L 270.473082 84.518598 
L 271.792816 91.70143 
L 273.11255 102.752413 
L 277.071752 104.302344 
L 278.391486 102.724877 
L 279.71122 103.902087 
L 281.030953 109.874764 
L 282.350687 100.06572 
L 286.309889 91.024561 
L 287.629623 84.463763 
L 288.949357 71.98147 
L 290.269091 89.730321 
L 291.588825 82.460551 
L 295.548027 82.884193 
L 296.867761 75.49284 
L 298.187494 71.938238 
L 299.507228 82.741955 
L 300.826962 97.026237 
L 304.786164 102.28393 
L 306.105898 95.200752 
L 307.425632 97.06991 
L 308.745366 107.480397 
L 310.0651 110.783373 
L 315.344035 116.500219 
L 316.663769 126.304032 
L 317.983503 118.865069 
L 319.303237 103.909632 
L 323.262439 109.543595 
L 324.582173 119.244286 
L 325.901907 105.381827 
L 327.221641 106.257846 
L 328.541375 110.035548 
L 332.500576 132.846122 
L 333.82031 134.017992 
L 335.140044 111.458337 
L 336.459778 120.311112 
L 337.779512 126.601204 
L 341.738714 130.387817 
L 343.058448 119.370166 
L 344.378182 102.101224 
L 345.697916 94.455415 
L 347.01765 88.84124 
L 350.976851 89.89587 
L 352.296585 78.812232 
L 353.616319 86.806274 
L 354.936053 75.946655 
L 356.255787 68.298471 
L 360.214989 67.024454 
L 361.534723 62.507458 
L 362.854457 63.190637 
L 364.174191 77.046093 
L 365.493925 74.038438 
L 369.453126 71.541051 
L 370.77286 76.826065 
L 372.092594 82.876837 
L 373.412328 83.147826 
L 374.732062 82.314218 
L 378.691264 94.9964 
L 380.010998 99.608847 
L 381.330732 97.5177 
L 382.650466 105.409314 
L 387.929401 100.702435 
L 389.249135 89.970845 
L 390.568869 87.930289 
L 391.888603 95.792133 
L 393.208337 115.315893 
L 397.167539 115.391091 
L 398.487273 123.371985 
L 398.487273 123.371985 
" style="fill:none;stroke:#0d0d0d;stroke-linecap:square;stroke-opacity:0.25;stroke-width:2;"/>
   </g>
   <g id="patch_3">
    <path d="M 57.6 276.48 
L 57.6 41.472 
" style="fill:none;stroke:#000000;stroke-linecap:square;stroke-linejoin:miter;stroke-width:0.8;"/>
   </g>
   <g id="patch_4">
    <path d="M 414.72 276.48 
L 414.72 41.472 
" style="fill:none;stroke:#000000;stroke-linecap:square;stroke-linejoin:miter;stroke-width:0.8;"/>
   </g>
   <g id="patch_5">
    <path d="M 57.6 276.48 
L 414.72 276.48 
" style="fill:none;stroke:#000000;stroke-linecap:square;stroke-linejoin:miter;stroke-width:0.8;"/>
   </g>
   <g id="patch_6">
    <path d="M 57.6 41.472 
L 414.72 41.472 
" style="fill:none;stroke:#000000;stroke-linecap:square;stroke-linejoin:miter;stroke-width:0.8;"/>
   </g>
   <g id="text_19">
    <!-- TESTFUNDS0830 -->
    <g transform="translate(185.200312 22.034625)scale(0.12 -0.12)">
     <defs>
      <path d="M -19 4666 
L 3928 4666 
L 3928 4134 
L 2272 4134 
L 2272 0 
L 1638 0 
L 1638 4134 
L -19 4134 
L -19 4666 
z
" id="DejaVuSans-54" transform="scale(0.015625)"/>
      <path d="M 628 4666 
L 3578 4666 
L 3578 4134 
L 1259 4134 
L 1259 2753 
L 3481 2753 
L 3481 2222 
L 1259 2222 
L 1259 531 
L 3634 531 
L 3634 0 
L 628 0 
L 628 4666 
z
" id="DejaVuSans-45" transform="scale(0.015625)"/>
      <path d="M 3425 4513 
L 3425 3897 
Q 3066 4069 2747 4153 
Q 2428 4238 2131 4238 
Q 1616 4238 1336 4038 
Q 1056 3838 1056 3469 
Q 1056 3159 1242 3001 
Q 1428 2844 1947 2747 
L 2328 2669 
Q 3034 2534 3370 2195 
Q 3706 1856 3706 1288 
Q 3706 609 3251 259 
Q 2797 -91 1919 -91 
Q 1588 -91 1214 -16 
Q 841 59 441 206 
L 441 856 
Q 825 641 1194 531 
Q 1563 422 1919 422 
Q 2459 422 2753 634 
Q 3047 847 3047 1241 
Q 3047 1584 2836 1778 
Q 2625 1972 2144 2069 
L 1759 2144 
Q 1053 2284 737 2584 
Q 422 2884 422 3419 
Q 422 4038 858 4394 
Q 1294 4750 2059 4750 
Q 2388 4750 2728 4690 
Q 3069 4631 3425 4513 
z
" id="DejaVuSans-53" transform="scale(0.015625)"/>
      <path d="M 628 4666 
L 3309 4666 
L 3309 4134 
L 1259 4134 
L 1259 2759 
L 3109 2759 
L 3109 2228 
L 1259 2228 
L 1259 0 
L 628 0 
L 628 4666 
z
" id="DejaVuSans-46" transform="scale(0.015625)"/>
      <path d="M 556 4666 
L 1191 4666 
L 1191 1831 
Q 1191 1081 1462 751 
Q 1734 422 2344 422 
Q 2950 422 3222 751 
Q 3494 1081 3494 1831 
L 3494 4666 
L 4128 4666 
L 4128 1753 
Q 4128 841 3676 375 
Q 3225 -91 2344 -91 
Q 1459 -91 1007 375 
Q 556 841 556 1753 
L 556 4666 
z
" id="DejaVuSans-55" transform="scale(0.015625)"/>
      <path d="M 628 4666 
L 1478 4666 
L 3547 763 
L 3547 4666 
L 4159 4666 
L 4159 0 
L 3309 0 
L 1241 3903 
L 1241 0 
L 628 0 
L 628 4666 
z
" id="DejaVuSans-4e" transform="scale(0.015625)"/>
      <path d="M 1259 4147 
L 1259 519 
L 2022 519 
Q 2988 519 3436 956 
Q 3884 1394 3884 2338 
Q 3884 3275 3436 3711 
Q 2988 4147 2022 4147 
L 1259 4147 
z
M 628 4666 
L 1925 4666 
Q 3281 4666 3915 4102 
Q 4550 3538 4550 2338 
Q 4550 1131 3912 565 
Q 3275 0 1925 0 
L 628 0 
L 628 4666 
z
" id="DejaVuSans-44" transform="scale(0.015625)"/>
     </defs>
     <use xlink:href="#DejaVuSans-54"/>
     <use x="61.083984" xlink:href="#DejaVuSans-45"/>
     <use x="124.267578" xlink:href="#DejaVuSans-53"/>
     <use x="187.744141" xlink:href="#DejaVuSans-54"/>
     <use x="248.828125" xlink:href="#DejaVuSans-46"/>
     <use x="306.347656" xlink:href="#DejaVuSans-55"/>
     <use x="379.541016" xlink:href="#DejaVuSans-4e"/>
     <use x="454.345703" xlink:href="#DejaVuSans-44"/>
     <use x="531.347656" xlink:href="#DejaVuSans-53"/>
     <use x="594.824219" xlink:href="#DejaVuSans-30"/>
     <use x="658.447266" xlink:href="#DejaVuSans-38"/>
     <use x="722.070312" xlink:href="#DejaVuSans-33"/>
     <use x="785.693359" xlink:href="#DejaVuSans-30"/>
    </g>
    <!-- daily_report -->
    <g transform="translate(200.466563 35.472)scale(0.12 -0.12)">
     <defs>
      <path d="M 603 3500 
L 1178 3500 
L 1178 0 
L 603 0 
L 603 3500 
z
M 603 4863 
L 1178 4863 
L 1178 4134 
L 603 4134 
L 603 4863 
z
" id="DejaVuSans-69" transform="scale(0.015625)"/>
      <path d="M 603 4863 
L 1178 4863 
L 1178 0 
L 603 0 
L 603 4863 
z
" id="DejaVuSans-6c" transform="scale(0.015625)"/>
      <path d="M 2059 -325 
Q 1816 -950 1584 -1140 
Q 1353 -1331 966 -1331 
L 506 -1331 
L 506 -850 
L 844 -850 
Q 1081 -850 1212 -737 
Q 1344 -625 1503 -206 
L 1606 56 
L 191 3500 
L 800 3500 
L 1894 763 
L 2988 3500 
L 3597 3500 
L 2059 -325 
z
" id="DejaVuSans-79" transform="scale(0.015625)"/>
      <path d="M 3263 -1063 
L 3263 -1509 
L -63 -1509 
L -63 -1063 
L 3263 -1063 
z
" id="DejaVuSans-5f" transform="scale(0.015625)"/>
      <path d="M 2631 2963 
Q 2534 3019 2420 3045 
Q 2306 3072 2169 3072 
Q 1681 3072 1420 2755 
Q 1159 2438 1159 1844 
L 1159 0 
L 581 0 
L 581 3500 
L 1159 3500 
L 1159 2956 
Q 1341 3275 1631 3429 
Q 1922 3584 2338 3584 
Q 2397 3584 2469 3576 
Q 2541 3569 2628 3553 
L 2631 2963 
z
" id="DejaVuSans-72" transform="scale(0.015625)"/>
      <path d="M 1159 525 
L 1159 -1331 
L 581 -1331 
L 581 3500 
L 1159 3500 
L 1159 2969 
Q 1341 3281 1617 3432 
Q 1894 3584 2278 3584 
Q 2916 3584 3314 3078 
Q 3713 2572 3713 1747 
Q 3713 922 3314 415 
Q 2916 -91 2278 -91 
Q 1894 -91 1617 61 
Q 1341 213 1159 525 
z
M 3116 1747 
Q 3116 2381 2855 2742 
Q 2594 3103 2138 3103 
Q 1681 3103 1420 2742 
Q 1159 2381 1159 1747 
Q 1159 1113 1420 752 
Q 1681 391 2138 391 
Q 2594 391 2855 752 
Q 3116 1113 3116 1747 
z
" id="DejaVuSans-70" transform="scale(0.015625)"/>
      <path d="M 1959 3097 
Q 1497 3097 1228 2736 
Q 959 2375 959 1747 
Q 959 1119 1226 758 
Q 1494 397 1959 397 
Q 2419 397 2687 759 
Q 2956 1122 2956 1747 
Q 2956 2369 2687 2733 
Q 2419 3097 1959 3097 
z
M 1959 3584 
Q 2709 3584 3137 3096 
Q 3566 2609 3566 1747 
Q 3566 888 3137 398 
Q 2709 -91 1959 -91 
Q 1206 -91 779 398 
Q 353 888 353 1747 
Q 353 2609 779 3096 
Q 1206 3584 1959 3584 
z
" id="DejaVuSans-6f" transform="scale(0.015625)"/>
     </defs>
     <use xlink:href="#DejaVuSans-64"/>
     <use x="63.476562" xlink:href="#DejaVuSans-61"/>
     <use x="124.755859" xlink:href="#DejaVuSans-69"/>
     <use x="152.539062" xlink:href="#DejaVuSans-6c"/>
     <use x="180.322266" xlink:href="#DejaVuSans-79"/>
     <use x="239.501953" xlink:href="#DejaVuSans-5f"/>
     <use x="289.501953" xlink:href="#DejaVuSans-72"/>
     <use x="328.365234" xlink:href="#DejaVuSans-65"/>
     <use x="389.888672" xlink:href="#DejaVuSans-70"/>
     <use x="453.365234" xlink:href="#DejaVuSans-6f"/>
     <use x="514.546875" xlink:href="#DejaVuSans-72"/>
     <use x="555.660156" xlink:href="#DejaVuSans-74"/>
    </g>
   </g>
   <g id="legend_1">
    <g id="patch_7">
     <path d="M 64.6 271.48 
L 155.792188 271.48 
Q 157.792188 271.48 157.792188 269.48 
L 157.792188 197.089375 
Q 157.792188 195.089375 155.792188 195.089375 
L 64.6 195.089375 
Q 62.6 195.089375 62.6 197.089375 
L 62.6 269.48 
Q 62.6 271.48 64.6 271.48 
z
" style="fill:#ffffff;opacity:0.8;stroke:#cccccc;stroke-linejoin:miter;"/>
    </g>
    <g id="line2d_23">
     <path d="M 66.6 203.187812 
L 86.6 203.187812 
" style="fill:none;stroke:#0000ff;stroke-linecap:square;stroke-opacity:0.9;stroke-width:2;"/>
    </g>
    <g id="line2d_24"/>
    <g id="text_20">
     <!-- alpaca -->
     <g transform="translate(94.6 206.687812)scale(0.1 -0.1)">
      <defs>
       <path d="M 3122 3366 
L 3122 2828 
Q 2878 2963 2633 3030 
Q 2388 3097 2138 3097 
Q 1578 3097 1268 2742 
Q 959 2388 959 1747 
Q 959 1106 1268 751 
Q 1578 397 2138 397 
Q 2388 397 2633 464 
Q 2878 531 3122 666 
L 3122 134 
Q 2881 22 2623 -34 
Q 2366 -91 2075 -91 
Q 1284 -91 818 406 
Q 353 903 353 1747 
Q 353 2603 823 3093 
Q 1294 3584 2113 3584 
Q 2378 3584 2631 3529 
Q 2884 3475 3122 3366 
z
" id="DejaVuSans-63" transform="scale(0.015625)"/>
      </defs>
      <use xlink:href="#DejaVuSans-61"/>
      <use x="61.279297" xlink:href="#DejaVuSans-6c"/>
      <use x="89.0625" xlink:href="#DejaVuSans-70"/>
      <use x="152.539062" xlink:href="#DejaVuSans-61"/>
      <use x="213.818359" xlink:href="#DejaVuSans-63"/>
      <use x="268.798828" xlink:href="#DejaVuSans-61"/>
     </g>
    </g>
    <g id="line2d_25">
     <path d="M 66.6 217.865937 
L 86.6 217.865937 
" style="fill:none;stroke:#ff0000;stroke-linecap:square;stroke-opacity:0.9;stroke-width:2;"/>
    </g>
    <g id="line2d_26"/>
    <g id="text_21">
     <!-- mattress -->
     <g transform="translate(94.6 221.365937)scale(0.1 -0.1)">
      <defs>
       <path d="M 3328 2828 
Q 3544 3216 3844 3400 
Q 4144 3584 4550 3584 
Q 5097 3584 5394 3201 
Q 5691 2819 5691 2113 
L 5691 0 
L 5113 0 
L 5113 2094 
Q 5113 2597 4934 2840 
Q 4756 3084 4391 3084 
Q 3944 3084 3684 2787 
Q 3425 2491 3425 1978 
L 3425 0 
L 2847 0 
L 2847 2094 
Q 2847 2600 2669 2842 
Q 2491 3084 2119 3084 
Q 1678 3084 1418 2786 
Q 1159 2488 1159 1978 
L 1159 0 
L 581 0 
L 581 3500 
L 1159 3500 
L 1159 2956 
Q 1356 3278 1631 3431 
Q 1906 3584 2284 3584 
Q 2666 3584 2933 3390 
Q 3200 3197 3328 2828 
z
" id="DejaVuSans-6d" transform="scale(0.015625)"/>
       <path d="M 2834 3397 
L 2834 2853 
Q 2591 2978 2328 3040 
Q 2066 3103 1784 3103 
Q 1356 3103 1142 2972 
Q 928 2841 928 2578 
Q 928 2378 1081 2264 
Q 1234 2150 1697 2047 
L 1894 2003 
Q 2506 1872 2764 1633 
Q 3022 1394 3022 966 
Q 3022 478 2636 193 
Q 2250 -91 1575 -91 
Q 1294 -91 989 -36 
Q 684 19 347 128 
L 347 722 
Q 666 556 975 473 
Q 1284 391 1588 391 
Q 1994 391 2212 530 
Q 2431 669 2431 922 
Q 2431 1156 2273 1281 
Q 2116 1406 1581 1522 
L 1381 1569 
Q 847 1681 609 1914 
Q 372 2147 372 2553 
Q 372 3047 722 3315 
Q 1072 3584 1716 3584 
Q 2034 3584 2315 3537 
Q 2597 3491 2834 3397 
z
" id="DejaVuSans-73" transform="scale(0.015625)"/>
      </defs>
      <use xlink:href="#DejaVuSans-6d"/>
      <use x="97.412109" xlink:href="#DejaVuSans-61"/>
      <use x="158.691406" xlink:href="#DejaVuSans-74"/>
      <use x="197.900391" xlink:href="#DejaVuSans-74"/>
      <use x="237.109375" xlink:href="#DejaVuSans-72"/>
      <use x="275.972656" xlink:href="#DejaVuSans-65"/>
      <use x="337.496094" xlink:href="#DejaVuSans-73"/>
      <use x="389.595703" xlink:href="#DejaVuSans-73"/>
     </g>
    </g>
    <g id="line2d_27">
     <path d="M 66.6 232.544062 
L 86.6 232.544062 
" style="fill:none;stroke:#ff8040;stroke-linecap:square;stroke-opacity:0.9;stroke-width:2;"/>
    </g>
    <g id="line2d_28"/>
    <g id="text_22">
     <!-- trader-0850 -->
     <g transform="translate(94.6 236.044062)scale(0.1 -0.1)">
      <use xlink:href="#DejaVuSans-74"/>
      <use x="39.208984" xlink:href="#DejaVuSans-72"/>
      <use x="80.322266" xlink:href="#DejaVuSans-61"/>
      <use x="141.601562" xlink:href="#DejaVuSans-64"/>
      <use x="205.078125" xlink:href="#DejaVuSans-65"/>
      <use x="266.601562" xlink:href="#DejaVuSans-72"/>
      <use x="301.339844" xlink:href="#DejaVuSans-2d"/>
      <use x="337.423828" xlink:href="#DejaVuSans-30"/>
      <use x="401.046875" xlink:href="#DejaVuSans-38"/>
      <use x="464.669922" xlink:href="#DejaVuSans-35"/>
      <use x="528.292969" xlink:href="#DejaVuSans-30"/>
     </g>
    </g>
    <g id="line2d_29">
     <path d="M 66.6 247.222187 
L 86.6 247.222187 
" style="fill:none;stroke:#0d0d0d;stroke-linecap:square;stroke-opacity:0.25;stroke-width:2;"/>
    </g>
    <g id="line2d_30"/>
    <g id="text_23">
     <!-- rando-min -->
     <g transform="translate(94.6 250.722187)scale(0.1 -0.1)">
      <defs>
       <path d="M 3513 2113 
L 3513 0 
L 2938 0 
L 2938 2094 
Q 2938 2591 2744 2837 
Q 2550 3084 2163 3084 
Q 1697 3084 1428 2787 
Q 1159 2491 1159 1978 
L 1159 0 
L 581 0 
L 581 3500 
L 1159 3500 
L 1159 2956 
Q 1366 3272 1645 3428 
Q 1925 3584 2291 3584 
Q 2894 3584 3203 3211 
Q 3513 2838 3513 2113 
z
" id="DejaVuSans-6e" transform="scale(0.015625)"/>
      </defs>
      <use xlink:href="#DejaVuSans-72"/>
      <use x="41.113281" xlink:href="#DejaVuSans-61"/>
      <use x="102.392578" xlink:href="#DejaVuSans-6e"/>
      <use x="165.771484" xlink:href="#DejaVuSans-64"/>
      <use x="229.248047" xlink:href="#DejaVuSans-6f"/>
      <use x="292.304688" xlink:href="#DejaVuSans-2d"/>
      <use x="328.388672" xlink:href="#DejaVuSans-6d"/>
      <use x="425.800781" xlink:href="#DejaVuSans-69"/>
      <use x="453.583984" xlink:href="#DejaVuSans-6e"/>
     </g>
    </g>
    <g id="line2d_31">
     <path d="M 66.6 261.900312 
L 86.6 261.900312 
" style="fill:none;stroke:#0d0d0d;stroke-linecap:square;stroke-opacity:0.25;stroke-width:2;"/>
    </g>
    <g id="line2d_32"/>
    <g id="text_24">
     <!-- rando-max -->
     <g transform="translate(94.6 265.400312)scale(0.1 -0.1)">
      <defs>
       <path d="M 3513 3500 
L 2247 1797 
L 3578 0 
L 2900 0 
L 1881 1375 
L 863 0 
L 184 0 
L 1544 1831 
L 300 3500 
L 978 3500 
L 1906 2253 
L 2834 3500 
L 3513 3500 
z
" id="DejaVuSans-78" transform="scale(0.015625)"/>
      </defs>
      <use xlink:href="#DejaVuSans-72"/>
      <use x="41.113281" xlink:href="#DejaVuSans-61"/>
      <use x="102.392578" xlink:href="#DejaVuSans-6e"/>
      <use x="165.771484" xlink:href="#DejaVuSans-64"/>
      <use x="229.248047" xlink:href="#DejaVuSans-6f"/>
      <use x="292.304688" xlink:href="#DejaVuSans-2d"/>
      <use x="328.388672" xlink:href="#DejaVuSans-6d"/>
      <use x="425.800781" xlink:href="#DejaVuSans-61"/>
      <use x="487.080078" xlink:href="#DejaVuSans-78"/>
     </g>
    </g>
   </g>
  </g>
 </g>
 <defs>
  <clipPath id="pbd15d4a6ff">
   <rect height="235.008" width="357.12" x="57.6" y="41.472"/>
  </clipPath>
 </defs>
</svg>
