<?xml version="1.0" encoding="utf-8" standalone="no"?>
<!DOCTYPE svg PUBLIC "-//W3C//DTD SVG 1.1//EN"
  "http://www.w3.org/Graphics/SVG/1.1/DTD/svg11.dtd">
<svg height="345.6pt" version="1.1" viewBox="0 0 460.8 345.6" width="460.8pt" xmlns="http://www.w3.org/2000/svg" xmlns:xlink="http://www.w3.org/1999/xlink">
 <metadata>
  <rdf:RDF xmlns:cc="http://creativecommons.org/ns#" xmlns:dc="http://purl.org/dc/elements/1.1/" xmlns:rdf="http://www.w3.org/1999/02/22-rdf-syntax-ns#">
   <cc:Work>
    <dc:type rdf:resource="http://purl.org/dc/dcmitype/StillImage"/>
    <dc:date>2022-04-13T01:01:55.393414</dc:date>
    <dc:format>image/svg+xml</dc:format>
    <dc:creator>
     <cc:Agent>
      <dc:title>Matplotlib v3.4.3, https://matplotlib.org/</dc:title>
     </cc:Agent>
    </dc:creator>
   </cc:Work>
  </rdf:RDF>
 </metadata>
 <defs>
  <style type="text/css">*{stroke-linecap:butt;stroke-linejoin:round;}</style>
 </defs>
 <g id="figure_1">
  <g id="patch_1">
   <path d="M 0 345.6 
L 460.8 345.6 
L 460.8 0 
L 0 0 
z
" style="fill:#ffffff;"/>
  </g>
  <g id="axes_1">
   <g id="patch_2">
    <path d="M 57.6 276.48 
L 414.72 276.48 
L 414.72 41.472 
L 57.6 41.472 
z
" style="fill:#ffffff;"/>
   </g>
   <g id="matplotlib.axis_1">
    <g id="xtick_1">
     <g id="line2d_1">
      <defs>
       <path d="M 0 0 
L 0 3.5 
" id="m6cde10e79c" style="stroke:#000000;stroke-width:0.8;"/>
      </defs>
      <g>
       <use style="stroke:#000000;stroke-width:0.8;" x="86.427085" xlink:href="#m6cde10e79c" y="276.48"/>
      </g>
     </g>
     <g id="text_1">
      <!-- 2021-09 -->
      <g transform="translate(49.202264 310.951846)rotate(-30)scale(0.1 -0.1)">
       <defs>
        <path d="M 1228 531 
L 3431 531 
L 3431 0 
L 469 0 
L 469 531 
Q 828 903 1448 1529 
Q 2069 2156 2228 2338 
Q 2531 2678 2651 2914 
Q 2772 3150 2772 3378 
Q 2772 3750 2511 3984 
Q 2250 4219 1831 4219 
Q 1534 4219 1204 4116 
Q 875 4013 500 3803 
L 500 4441 
Q 881 4594 1212 4672 
Q 1544 4750 1819 4750 
Q 2544 4750 2975 4387 
Q 3406 4025 3406 3419 
Q 3406 3131 3298 2873 
Q 3191 2616 2906 2266 
Q 2828 2175 2409 1742 
Q 1991 1309 1228 531 
z
" id="DejaVuSans-32" transform="scale(0.015625)"/>
        <path d="M 2034 4250 
Q 1547 4250 1301 3770 
Q 1056 3291 1056 2328 
Q 1056 1369 1301 889 
Q 1547 409 2034 409 
Q 2525 409 2770 889 
Q 3016 1369 3016 2328 
Q 3016 3291 2770 3770 
Q 2525 4250 2034 4250 
z
M 2034 4750 
Q 2819 4750 3233 4129 
Q 3647 3509 3647 2328 
Q 3647 1150 3233 529 
Q 2819 -91 2034 -91 
Q 1250 -91 836 529 
Q 422 1150 422 2328 
Q 422 3509 836 4129 
Q 1250 4750 2034 4750 
z
" id="DejaVuSans-30" transform="scale(0.015625)"/>
        <path d="M 794 531 
L 1825 531 
L 1825 4091 
L 703 3866 
L 703 4441 
L 1819 4666 
L 2450 4666 
L 2450 531 
L 3481 531 
L 3481 0 
L 794 0 
L 794 531 
z
" id="DejaVuSans-31" transform="scale(0.015625)"/>
        <path d="M 313 2009 
L 1997 2009 
L 1997 1497 
L 313 1497 
L 313 2009 
z
" id="DejaVuSans-2d" transform="scale(0.015625)"/>
        <path d="M 703 97 
L 703 672 
Q 941 559 1184 500 
Q 1428 441 1663 441 
Q 2288 441 2617 861 
Q 2947 1281 2994 2138 
Q 2813 1869 2534 1725 
Q 2256 1581 1919 1581 
Q 1219 1581 811 2004 
Q 403 2428 403 3163 
Q 403 3881 828 4315 
Q 1253 4750 1959 4750 
Q 2769 4750 3195 4129 
Q 3622 3509 3622 2328 
Q 3622 1225 3098 567 
Q 2575 -91 1691 -91 
Q 1453 -91 1209 -44 
Q 966 3 703 97 
z
M 1959 2075 
Q 2384 2075 2632 2365 
Q 2881 2656 2881 3163 
Q 2881 3666 2632 3958 
Q 2384 4250 1959 4250 
Q 1534 4250 1286 3958 
Q 1038 3666 1038 3163 
Q 1038 2656 1286 2365 
Q 1534 2075 1959 2075 
z
" id="DejaVuSans-39" transform="scale(0.015625)"/>
       </defs>
       <use xlink:href="#DejaVuSans-32"/>
       <use x="63.623047" xlink:href="#DejaVuSans-30"/>
       <use x="127.246094" xlink:href="#DejaVuSans-32"/>
       <use x="190.869141" xlink:href="#DejaVuSans-31"/>
       <use x="254.492188" xlink:href="#DejaVuSans-2d"/>
       <use x="290.576172" xlink:href="#DejaVuSans-30"/>
       <use x="354.199219" xlink:href="#DejaVuSans-39"/>
      </g>
     </g>
    </g>
    <g id="xtick_2">
     <g id="line2d_2">
      <g>
       <use style="stroke:#000000;stroke-width:0.8;" x="128.408276" xlink:href="#m6cde10e79c" y="276.48"/>
      </g>
     </g>
     <g id="text_2">
      <!-- 2021-10 -->
      <g transform="translate(91.183455 310.951846)rotate(-30)scale(0.1 -0.1)">
       <use xlink:href="#DejaVuSans-32"/>
       <use x="63.623047" xlink:href="#DejaVuSans-30"/>
       <use x="127.246094" xlink:href="#DejaVuSans-32"/>
       <use x="190.869141" xlink:href="#DejaVuSans-31"/>
       <use x="254.492188" xlink:href="#DejaVuSans-2d"/>
       <use x="290.576172" xlink:href="#DejaVuSans-31"/>
       <use x="354.199219" xlink:href="#DejaVuSans-30"/>
      </g>
     </g>
    </g>
    <g id="xtick_3">
     <g id="line2d_3">
      <g>
       <use style="stroke:#000000;stroke-width:0.8;" x="171.78884" xlink:href="#m6cde10e79c" y="276.48"/>
      </g>
     </g>
     <g id="text_3">
      <!-- 2021-11 -->
      <g transform="translate(134.564019 310.951846)rotate(-30)scale(0.1 -0.1)">
       <use xlink:href="#DejaVuSans-32"/>
       <use x="63.623047" xlink:href="#DejaVuSans-30"/>
       <use x="127.246094" xlink:href="#DejaVuSans-32"/>
       <use x="190.869141" xlink:href="#DejaVuSans-31"/>
       <use x="254.492188" xlink:href="#DejaVuSans-2d"/>
       <use x="290.576172" xlink:href="#DejaVuSans-31"/>
       <use x="354.199219" xlink:href="#DejaVuSans-31"/>
      </g>
     </g>
    </g>
    <g id="xtick_4">
     <g id="line2d_4">
      <g>
       <use style="stroke:#000000;stroke-width:0.8;" x="213.770031" xlink:href="#m6cde10e79c" y="276.48"/>
      </g>
     </g>
     <g id="text_4">
      <!-- 2021-12 -->
      <g transform="translate(176.545211 310.951846)rotate(-30)scale(0.1 -0.1)">
       <use xlink:href="#DejaVuSans-32"/>
       <use x="63.623047" xlink:href="#DejaVuSans-30"/>
       <use x="127.246094" xlink:href="#DejaVuSans-32"/>
       <use x="190.869141" xlink:href="#DejaVuSans-31"/>
       <use x="254.492188" xlink:href="#DejaVuSans-2d"/>
       <use x="290.576172" xlink:href="#DejaVuSans-31"/>
       <use x="354.199219" xlink:href="#DejaVuSans-32"/>
      </g>
     </g>
    </g>
    <g id="xtick_5">
     <g id="line2d_5">
      <g>
       <use style="stroke:#000000;stroke-width:0.8;" x="257.150596" xlink:href="#m6cde10e79c" y="276.48"/>
      </g>
     </g>
     <g id="text_5">
      <!-- 2022-01 -->
      <g transform="translate(219.925775 310.951846)rotate(-30)scale(0.1 -0.1)">
       <use xlink:href="#DejaVuSans-32"/>
       <use x="63.623047" xlink:href="#DejaVuSans-30"/>
       <use x="127.246094" xlink:href="#DejaVuSans-32"/>
       <use x="190.869141" xlink:href="#DejaVuSans-32"/>
       <use x="254.492188" xlink:href="#DejaVuSans-2d"/>
       <use x="290.576172" xlink:href="#DejaVuSans-30"/>
       <use x="354.199219" xlink:href="#DejaVuSans-31"/>
      </g>
     </g>
    </g>
    <g id="xtick_6">
     <g id="line2d_6">
      <g>
       <use style="stroke:#000000;stroke-width:0.8;" x="300.53116" xlink:href="#m6cde10e79c" y="276.48"/>
      </g>
     </g>
     <g id="text_6">
      <!-- 2022-02 -->
      <g transform="translate(263.306339 310.951846)rotate(-30)scale(0.1 -0.1)">
       <use xlink:href="#DejaVuSans-32"/>
       <use x="63.623047" xlink:href="#DejaVuSans-30"/>
       <use x="127.246094" xlink:href="#DejaVuSans-32"/>
       <use x="190.869141" xlink:href="#DejaVuSans-32"/>
       <use x="254.492188" xlink:href="#DejaVuSans-2d"/>
       <use x="290.576172" xlink:href="#DejaVuSans-30"/>
       <use x="354.199219" xlink:href="#DejaVuSans-32"/>
      </g>
     </g>
    </g>
    <g id="xtick_7">
     <g id="line2d_7">
      <g>
       <use style="stroke:#000000;stroke-width:0.8;" x="339.713605" xlink:href="#m6cde10e79c" y="276.48"/>
      </g>
     </g>
     <g id="text_7">
      <!-- 2022-03 -->
      <g transform="translate(302.488784 310.951846)rotate(-30)scale(0.1 -0.1)">
       <defs>
        <path d="M 2597 2516 
Q 3050 2419 3304 2112 
Q 3559 1806 3559 1356 
Q 3559 666 3084 287 
Q 2609 -91 1734 -91 
Q 1441 -91 1130 -33 
Q 819 25 488 141 
L 488 750 
Q 750 597 1062 519 
Q 1375 441 1716 441 
Q 2309 441 2620 675 
Q 2931 909 2931 1356 
Q 2931 1769 2642 2001 
Q 2353 2234 1838 2234 
L 1294 2234 
L 1294 2753 
L 1863 2753 
Q 2328 2753 2575 2939 
Q 2822 3125 2822 3475 
Q 2822 3834 2567 4026 
Q 2313 4219 1838 4219 
Q 1578 4219 1281 4162 
Q 984 4106 628 3988 
L 628 4550 
Q 988 4650 1302 4700 
Q 1616 4750 1894 4750 
Q 2613 4750 3031 4423 
Q 3450 4097 3450 3541 
Q 3450 3153 3228 2886 
Q 3006 2619 2597 2516 
z
" id="DejaVuSans-33" transform="scale(0.015625)"/>
       </defs>
       <use xlink:href="#DejaVuSans-32"/>
       <use x="63.623047" xlink:href="#DejaVuSans-30"/>
       <use x="127.246094" xlink:href="#DejaVuSans-32"/>
       <use x="190.869141" xlink:href="#DejaVuSans-32"/>
       <use x="254.492188" xlink:href="#DejaVuSans-2d"/>
       <use x="290.576172" xlink:href="#DejaVuSans-30"/>
       <use x="354.199219" xlink:href="#DejaVuSans-33"/>
      </g>
     </g>
    </g>
    <g id="xtick_8">
     <g id="line2d_8">
      <g>
       <use style="stroke:#000000;stroke-width:0.8;" x="383.094169" xlink:href="#m6cde10e79c" y="276.48"/>
      </g>
     </g>
     <g id="text_8">
      <!-- 2022-04 -->
      <g transform="translate(345.869348 310.951846)rotate(-30)scale(0.1 -0.1)">
       <defs>
        <path d="M 2419 4116 
L 825 1625 
L 2419 1625 
L 2419 4116 
z
M 2253 4666 
L 3047 4666 
L 3047 1625 
L 3713 1625 
L 3713 1100 
L 3047 1100 
L 3047 0 
L 2419 0 
L 2419 1100 
L 313 1100 
L 313 1709 
L 2253 4666 
z
" id="DejaVuSans-34" transform="scale(0.015625)"/>
       </defs>
       <use xlink:href="#DejaVuSans-32"/>
       <use x="63.623047" xlink:href="#DejaVuSans-30"/>
       <use x="127.246094" xlink:href="#DejaVuSans-32"/>
       <use x="190.869141" xlink:href="#DejaVuSans-32"/>
       <use x="254.492188" xlink:href="#DejaVuSans-2d"/>
       <use x="290.576172" xlink:href="#DejaVuSans-30"/>
       <use x="354.199219" xlink:href="#DejaVuSans-34"/>
      </g>
     </g>
    </g>
    <g id="text_9">
     <!-- date -->
     <g transform="translate(224.885 324.351346)scale(0.1 -0.1)">
      <defs>
       <path d="M 2906 2969 
L 2906 4863 
L 3481 4863 
L 3481 0 
L 2906 0 
L 2906 525 
Q 2725 213 2448 61 
Q 2172 -91 1784 -91 
Q 1150 -91 751 415 
Q 353 922 353 1747 
Q 353 2572 751 3078 
Q 1150 3584 1784 3584 
Q 2172 3584 2448 3432 
Q 2725 3281 2906 2969 
z
M 947 1747 
Q 947 1113 1208 752 
Q 1469 391 1925 391 
Q 2381 391 2643 752 
Q 2906 1113 2906 1747 
Q 2906 2381 2643 2742 
Q 2381 3103 1925 3103 
Q 1469 3103 1208 2742 
Q 947 2381 947 1747 
z
" id="DejaVuSans-64" transform="scale(0.015625)"/>
       <path d="M 2194 1759 
Q 1497 1759 1228 1600 
Q 959 1441 959 1056 
Q 959 750 1161 570 
Q 1363 391 1709 391 
Q 2188 391 2477 730 
Q 2766 1069 2766 1631 
L 2766 1759 
L 2194 1759 
z
M 3341 1997 
L 3341 0 
L 2766 0 
L 2766 531 
Q 2569 213 2275 61 
Q 1981 -91 1556 -91 
Q 1019 -91 701 211 
Q 384 513 384 1019 
Q 384 1609 779 1909 
Q 1175 2209 1959 2209 
L 2766 2209 
L 2766 2266 
Q 2766 2663 2505 2880 
Q 2244 3097 1772 3097 
Q 1472 3097 1187 3025 
Q 903 2953 641 2809 
L 641 3341 
Q 956 3463 1253 3523 
Q 1550 3584 1831 3584 
Q 2591 3584 2966 3190 
Q 3341 2797 3341 1997 
z
" id="DejaVuSans-61" transform="scale(0.015625)"/>
       <path d="M 1172 4494 
L 1172 3500 
L 2356 3500 
L 2356 3053 
L 1172 3053 
L 1172 1153 
Q 1172 725 1289 603 
Q 1406 481 1766 481 
L 2356 481 
L 2356 0 
L 1766 0 
Q 1100 0 847 248 
Q 594 497 594 1153 
L 594 3053 
L 172 3053 
L 172 3500 
L 594 3500 
L 594 4494 
L 1172 4494 
z
" id="DejaVuSans-74" transform="scale(0.015625)"/>
       <path d="M 3597 1894 
L 3597 1613 
L 953 1613 
Q 991 1019 1311 708 
Q 1631 397 2203 397 
Q 2534 397 2845 478 
Q 3156 559 3463 722 
L 3463 178 
Q 3153 47 2828 -22 
Q 2503 -91 2169 -91 
Q 1331 -91 842 396 
Q 353 884 353 1716 
Q 353 2575 817 3079 
Q 1281 3584 2069 3584 
Q 2775 3584 3186 3129 
Q 3597 2675 3597 1894 
z
M 3022 2063 
Q 3016 2534 2758 2815 
Q 2500 3097 2075 3097 
Q 1594 3097 1305 2825 
Q 1016 2553 972 2059 
L 3022 2063 
z
" id="DejaVuSans-65" transform="scale(0.015625)"/>
      </defs>
      <use xlink:href="#DejaVuSans-64"/>
      <use x="63.476562" xlink:href="#DejaVuSans-61"/>
      <use x="124.755859" xlink:href="#DejaVuSans-74"/>
      <use x="163.964844" xlink:href="#DejaVuSans-65"/>
     </g>
    </g>
   </g>
   <g id="matplotlib.axis_2">
    <g id="ytick_1">
     <g id="line2d_9">
      <defs>
       <path d="M 0 0 
L -3.5 0 
" id="m805fcda17a" style="stroke:#000000;stroke-width:0.8;"/>
      </defs>
      <g>
       <use style="stroke:#000000;stroke-width:0.8;" x="57.6" xlink:href="#m805fcda17a" y="273.477179"/>
      </g>
     </g>
     <g id="text_10">
      <!-- 75000 -->
      <g transform="translate(18.7875 277.276398)scale(0.1 -0.1)">
       <defs>
        <path d="M 525 4666 
L 3525 4666 
L 3525 4397 
L 1831 0 
L 1172 0 
L 2766 4134 
L 525 4134 
L 525 4666 
z
" id="DejaVuSans-37" transform="scale(0.015625)"/>
        <path d="M 691 4666 
L 3169 4666 
L 3169 4134 
L 1269 4134 
L 1269 2991 
Q 1406 3038 1543 3061 
Q 1681 3084 1819 3084 
Q 2600 3084 3056 2656 
Q 3513 2228 3513 1497 
Q 3513 744 3044 326 
Q 2575 -91 1722 -91 
Q 1428 -91 1123 -41 
Q 819 9 494 109 
L 494 744 
Q 775 591 1075 516 
Q 1375 441 1709 441 
Q 2250 441 2565 725 
Q 2881 1009 2881 1497 
Q 2881 1984 2565 2268 
Q 2250 2553 1709 2553 
Q 1456 2553 1204 2497 
Q 953 2441 691 2322 
L 691 4666 
z
" id="DejaVuSans-35" transform="scale(0.015625)"/>
       </defs>
       <use xlink:href="#DejaVuSans-37"/>
       <use x="63.623047" xlink:href="#DejaVuSans-35"/>
       <use x="127.246094" xlink:href="#DejaVuSans-30"/>
       <use x="190.869141" xlink:href="#DejaVuSans-30"/>
       <use x="254.492188" xlink:href="#DejaVuSans-30"/>
      </g>
     </g>
    </g>
    <g id="ytick_2">
     <g id="line2d_10">
      <g>
       <use style="stroke:#000000;stroke-width:0.8;" x="57.6" xlink:href="#m805fcda17a" y="247.22452"/>
      </g>
     </g>
     <g id="text_11">
      <!-- 80000 -->
      <g transform="translate(18.7875 251.023738)scale(0.1 -0.1)">
       <defs>
        <path d="M 2034 2216 
Q 1584 2216 1326 1975 
Q 1069 1734 1069 1313 
Q 1069 891 1326 650 
Q 1584 409 2034 409 
Q 2484 409 2743 651 
Q 3003 894 3003 1313 
Q 3003 1734 2745 1975 
Q 2488 2216 2034 2216 
z
M 1403 2484 
Q 997 2584 770 2862 
Q 544 3141 544 3541 
Q 544 4100 942 4425 
Q 1341 4750 2034 4750 
Q 2731 4750 3128 4425 
Q 3525 4100 3525 3541 
Q 3525 3141 3298 2862 
Q 3072 2584 2669 2484 
Q 3125 2378 3379 2068 
Q 3634 1759 3634 1313 
Q 3634 634 3220 271 
Q 2806 -91 2034 -91 
Q 1263 -91 848 271 
Q 434 634 434 1313 
Q 434 1759 690 2068 
Q 947 2378 1403 2484 
z
M 1172 3481 
Q 1172 3119 1398 2916 
Q 1625 2713 2034 2713 
Q 2441 2713 2670 2916 
Q 2900 3119 2900 3481 
Q 2900 3844 2670 4047 
Q 2441 4250 2034 4250 
Q 1625 4250 1398 4047 
Q 1172 3844 1172 3481 
z
" id="DejaVuSans-38" transform="scale(0.015625)"/>
       </defs>
       <use xlink:href="#DejaVuSans-38"/>
       <use x="63.623047" xlink:href="#DejaVuSans-30"/>
       <use x="127.246094" xlink:href="#DejaVuSans-30"/>
       <use x="190.869141" xlink:href="#DejaVuSans-30"/>
       <use x="254.492188" xlink:href="#DejaVuSans-30"/>
      </g>
     </g>
    </g>
    <g id="ytick_3">
     <g id="line2d_11">
      <g>
       <use style="stroke:#000000;stroke-width:0.8;" x="57.6" xlink:href="#m805fcda17a" y="220.97186"/>
      </g>
     </g>
     <g id="text_12">
      <!-- 85000 -->
      <g transform="translate(18.7875 224.771079)scale(0.1 -0.1)">
       <use xlink:href="#DejaVuSans-38"/>
       <use x="63.623047" xlink:href="#DejaVuSans-35"/>
       <use x="127.246094" xlink:href="#DejaVuSans-30"/>
       <use x="190.869141" xlink:href="#DejaVuSans-30"/>
       <use x="254.492188" xlink:href="#DejaVuSans-30"/>
      </g>
     </g>
    </g>
    <g id="ytick_4">
     <g id="line2d_12">
      <g>
       <use style="stroke:#000000;stroke-width:0.8;" x="57.6" xlink:href="#m805fcda17a" y="194.7192"/>
      </g>
     </g>
     <g id="text_13">
      <!-- 90000 -->
      <g transform="translate(18.7875 198.518419)scale(0.1 -0.1)">
       <use xlink:href="#DejaVuSans-39"/>
       <use x="63.623047" xlink:href="#DejaVuSans-30"/>
       <use x="127.246094" xlink:href="#DejaVuSans-30"/>
       <use x="190.869141" xlink:href="#DejaVuSans-30"/>
       <use x="254.492188" xlink:href="#DejaVuSans-30"/>
      </g>
     </g>
    </g>
    <g id="ytick_5">
     <g id="line2d_13">
      <g>
       <use style="stroke:#000000;stroke-width:0.8;" x="57.6" xlink:href="#m805fcda17a" y="168.466541"/>
      </g>
     </g>
     <g id="text_14">
      <!-- 95000 -->
      <g transform="translate(18.7875 172.26576)scale(0.1 -0.1)">
       <use xlink:href="#DejaVuSans-39"/>
       <use x="63.623047" xlink:href="#DejaVuSans-35"/>
       <use x="127.246094" xlink:href="#DejaVuSans-30"/>
       <use x="190.869141" xlink:href="#DejaVuSans-30"/>
       <use x="254.492188" xlink:href="#DejaVuSans-30"/>
      </g>
     </g>
    </g>
    <g id="ytick_6">
     <g id="line2d_14">
      <g>
       <use style="stroke:#000000;stroke-width:0.8;" x="57.6" xlink:href="#m805fcda17a" y="142.213881"/>
      </g>
     </g>
     <g id="text_15">
      <!-- 100000 -->
      <g transform="translate(12.425 146.0131)scale(0.1 -0.1)">
       <use xlink:href="#DejaVuSans-31"/>
       <use x="63.623047" xlink:href="#DejaVuSans-30"/>
       <use x="127.246094" xlink:href="#DejaVuSans-30"/>
       <use x="190.869141" xlink:href="#DejaVuSans-30"/>
       <use x="254.492188" xlink:href="#DejaVuSans-30"/>
       <use x="318.115234" xlink:href="#DejaVuSans-30"/>
      </g>
     </g>
    </g>
    <g id="ytick_7">
     <g id="line2d_15">
      <g>
       <use style="stroke:#000000;stroke-width:0.8;" x="57.6" xlink:href="#m805fcda17a" y="115.961222"/>
      </g>
     </g>
     <g id="text_16">
      <!-- 105000 -->
      <g transform="translate(12.425 119.760441)scale(0.1 -0.1)">
       <use xlink:href="#DejaVuSans-31"/>
       <use x="63.623047" xlink:href="#DejaVuSans-30"/>
       <use x="127.246094" xlink:href="#DejaVuSans-35"/>
       <use x="190.869141" xlink:href="#DejaVuSans-30"/>
       <use x="254.492188" xlink:href="#DejaVuSans-30"/>
       <use x="318.115234" xlink:href="#DejaVuSans-30"/>
      </g>
     </g>
    </g>
    <g id="ytick_8">
     <g id="line2d_16">
      <g>
       <use style="stroke:#000000;stroke-width:0.8;" x="57.6" xlink:href="#m805fcda17a" y="89.708562"/>
      </g>
     </g>
     <g id="text_17">
      <!-- 110000 -->
      <g transform="translate(12.425 93.507781)scale(0.1 -0.1)">
       <use xlink:href="#DejaVuSans-31"/>
       <use x="63.623047" xlink:href="#DejaVuSans-31"/>
       <use x="127.246094" xlink:href="#DejaVuSans-30"/>
       <use x="190.869141" xlink:href="#DejaVuSans-30"/>
       <use x="254.492188" xlink:href="#DejaVuSans-30"/>
       <use x="318.115234" xlink:href="#DejaVuSans-30"/>
      </g>
     </g>
    </g>
    <g id="ytick_9">
     <g id="line2d_17">
      <g>
       <use style="stroke:#000000;stroke-width:0.8;" x="57.6" xlink:href="#m805fcda17a" y="63.455903"/>
      </g>
     </g>
     <g id="text_18">
      <!-- 115000 -->
      <g transform="translate(12.425 67.255121)scale(0.1 -0.1)">
       <use xlink:href="#DejaVuSans-31"/>
       <use x="63.623047" xlink:href="#DejaVuSans-31"/>
       <use x="127.246094" xlink:href="#DejaVuSans-35"/>
       <use x="190.869141" xlink:href="#DejaVuSans-30"/>
       <use x="254.492188" xlink:href="#DejaVuSans-30"/>
       <use x="318.115234" xlink:href="#DejaVuSans-30"/>
      </g>
     </g>
    </g>
   </g>
   <g id="line2d_18">
    <path clip-path="url(#p4cebdc96b6)" d="M 73.832727 142.213881 
L 75.2321 142.547926 
L 76.631473 140.504069 
L 78.030846 143.26723 
L 79.430219 138.163567 
L 83.628339 134.959341 
L 85.027712 134.144099 
L 86.427085 135.238835 
L 87.826458 134.739767 
L 89.225831 134.933043 
L 94.823323 135.168374 
L 96.222696 136.99626 
L 97.622069 138.277893 
L 99.021442 143.284644 
L 103.219561 139.076918 
L 104.618934 146.280857 
L 106.018307 142.95675 
L 107.41768 143.963209 
L 108.817053 149.527812 
L 113.015172 158.439196 
L 114.414545 159.510492 
L 115.813918 155.933479 
L 117.213292 147.650646 
L 118.612665 143.025045 
L 122.810784 139.365878 
L 124.210157 150.342802 
L 125.60953 148.493749 
L 127.008903 152.52365 
L 128.408276 144.924602 
L 132.606395 154.410134 
L 134.005768 147.039347 
L 135.405141 144.638668 
L 136.804514 144.747802 
L 138.203887 143.788745 
L 142.402006 143.334498 
L 143.801379 142.717207 
L 145.200752 149.302656 
L 146.600125 139.441606 
L 147.999498 138.472723 
L 152.197618 134.358683 
L 153.596991 129.130533 
L 154.996364 126.807922 
L 156.395737 136.102045 
L 157.79511 142.834711 
L 161.993229 142.416209 
L 163.392602 146.903108 
L 164.791975 147.918228 
L 166.191348 141.583768 
L 167.590721 148.462014 
L 171.78884 137.787016 
L 173.188213 138.117779 
L 174.587586 132.683965 
L 175.986959 139.162286 
L 177.386332 135.349265 
L 181.584451 134.986382 
L 182.983824 141.430946 
L 184.383197 141.610375 
L 185.782571 145.946246 
L 187.181944 141.563691 
L 192.779436 139.75891 
L 194.178809 142.665965 
L 195.578182 144.431841 
L 196.977555 144.649448 
L 201.175674 141.347482 
L 202.575047 136.920116 
L 203.97442 137.285648 
L 206.773166 137.217772 
L 210.971285 141.91604 
L 212.370658 152.499197 
L 213.770031 159.127393 
L 215.169404 152.804763 
L 216.568777 156.334531 
L 220.766897 146.467344 
L 222.16627 137.239556 
L 223.565643 133.290758 
L 224.965016 132.931171 
L 226.364389 130.939556 
L 230.562508 136.042803 
L 231.961881 133.87665 
L 233.361254 130.40494 
L 234.760627 128.637032 
L 236.16 135.000104 
L 240.358119 141.996987 
L 241.757492 129.443003 
L 243.156865 127.13558 
L 244.556238 122.377136 
L 250.15373 115.844124 
L 251.553103 115.732738 
L 252.952476 116.074768 
L 254.35185 116.705196 
L 255.751223 118.984967 
L 259.949342 110.719665 
L 261.348715 103.552828 
L 262.748088 118.064254 
L 264.147461 113.757153 
L 265.546834 111.37141 
L 269.744953 111.28931 
L 271.144326 106.330891 
L 272.543699 105.166028 
L 273.943072 111.952554 
L 275.342445 110.389747 
L 280.939937 122.574893 
L 282.33931 125.288137 
L 283.738683 131.549629 
L 285.138056 143.644204 
L 289.336176 142.902511 
L 290.735549 149.011808 
L 292.134922 149.376098 
L 293.534295 152.614731 
L 294.933668 139.187356 
L 299.131787 128.026216 
L 300.53116 123.013085 
L 301.930533 114.402127 
L 303.329906 149.77164 
L 304.729279 149.538316 
L 308.927398 158.459285 
L 310.326771 159.915145 
L 311.726144 148.205548 
L 313.125517 157.356969 
L 314.52489 169.146758 
L 318.723009 172.698098 
L 320.122382 166.430113 
L 321.521755 168.885724 
L 322.921129 178.104876 
L 324.320502 181.413196 
L 329.917994 186.523158 
L 331.317367 193.45048 
L 332.71674 182.705764 
L 334.116113 173.611482 
L 338.314232 175.238222 
L 339.713605 183.089068 
L 341.112978 172.972657 
L 342.512351 174.931002 
L 343.911724 178.45963 
L 348.109843 198.775292 
L 349.509216 198.852304 
L 350.908589 179.12061 
L 352.307962 185.679728 
L 353.707335 194.117726 
L 357.905455 196.006954 
L 359.304828 186.092255 
L 360.704201 171.040226 
L 362.103574 165.465543 
L 363.502947 156.219547 
L 367.701066 158.399627 
L 369.100439 148.768156 
L 370.499812 154.221483 
L 371.899185 145.338572 
L 373.298558 140.439034 
L 377.496677 138.776927 
L 378.89605 134.110252 
L 380.295423 135.813495 
L 381.694796 147.440187 
L 383.094169 145.60717 
L 387.292288 138.887633 
L 388.691661 144.826557 
L 390.091034 152.911716 
L 391.490408 153.815604 
L 392.889781 154.957895 
L 397.0879 164.23336 
L 398.487273 174.039597 
L 398.487273 174.039597 
" style="fill:none;stroke:#0000ff;stroke-linecap:square;stroke-opacity:0.9;stroke-width:2;"/>
   </g>
   <g id="line2d_19">
    <path clip-path="url(#p4cebdc96b6)" d="M 73.832727 142.213881 
L 76.631473 136.756356 
L 78.030846 140.251101 
L 79.430219 133.841417 
L 83.628339 131.963536 
L 85.027712 131.627817 
L 86.427085 131.457967 
L 87.826458 132.440987 
L 89.225831 131.931198 
L 94.823323 131.356436 
L 96.222696 133.211441 
L 97.622069 134.338695 
L 99.021442 139.843995 
L 103.219561 136.262783 
L 104.618934 141.029884 
L 106.018307 138.734835 
L 107.41768 140.231996 
L 108.817053 146.75645 
L 113.015172 155.20507 
L 114.414545 155.615013 
L 115.813918 152.176762 
L 117.213292 145.541456 
L 118.612665 141.938068 
L 122.810784 138.42144 
L 124.210157 148.716729 
L 125.60953 148.225029 
L 127.008903 153.212206 
L 128.408276 145.673348 
L 132.606395 151.582611 
L 134.005768 143.680213 
L 135.405141 142.250541 
L 136.804514 141.313932 
L 138.203887 138.826826 
L 142.402006 141.798423 
L 143.801379 145.765244 
L 145.200752 147.257439 
L 146.600125 134.242922 
L 147.999498 130.533777 
L 152.197618 129.225012 
L 153.596991 124.745196 
L 154.996364 121.849183 
L 156.395737 128.999196 
L 157.79511 131.871726 
L 161.993229 133.052589 
L 163.392602 136.240212 
L 164.791975 139.11017 
L 166.191348 131.45717 
L 167.590721 130.625421 
L 171.78884 130.615899 
L 173.188213 128.391236 
L 174.587586 124.180573 
L 175.986959 125.751082 
L 181.584451 125.022103 
L 182.983824 129.033386 
L 184.383197 131.720807 
L 185.782571 131.457697 
L 187.181944 128.179915 
L 191.380063 126.61628 
L 192.779436 128.2825 
L 194.178809 128.317565 
L 195.578182 128.562344 
L 196.977555 130.76458 
L 201.175674 128.475099 
L 202.575047 122.815139 
L 203.97442 122.697673 
L 206.773166 136.736375 
L 210.971285 131.009382 
L 212.370658 142.097558 
L 213.770031 148.375346 
L 215.169404 141.082967 
L 216.568777 145.182787 
L 220.766897 137.291871 
L 222.16627 128.198349 
L 223.565643 125.270567 
L 224.965016 125.689085 
L 226.364389 122.076354 
L 230.562508 127.550589 
L 231.961881 127.568258 
L 233.361254 123.409841 
L 234.760627 122.936886 
L 236.16 130.021168 
L 240.358119 136.230124 
L 241.757492 125.925319 
L 243.156865 122.837471 
L 244.556238 118.360903 
L 250.15373 110.938714 
L 251.553103 111.671232 
L 252.952476 110.863507 
L 254.35185 111.702417 
L 255.751223 114.136526 
L 259.949342 108.185709 
L 261.348715 102.307456 
L 262.748088 114.755611 
L 264.147461 112.55 
L 265.546834 109.535192 
L 269.744953 110.154064 
L 271.144326 106.745035 
L 272.543699 106.981246 
L 273.943072 111.137398 
L 275.342445 111.356714 
L 280.939937 123.579675 
L 283.738683 133.724097 
L 285.138056 144.947912 
L 289.336176 145.72692 
L 290.735549 144.462823 
L 292.134922 144.948429 
L 293.534295 149.595698 
L 294.933668 137.28334 
L 299.131787 128.646271 
L 300.53116 122.354289 
L 301.930533 113.807661 
L 303.329906 138.190372 
L 304.729279 134.365272 
L 308.927398 137.74657 
L 310.326771 133.912523 
L 311.726144 129.385601 
L 313.125517 138.038564 
L 314.52489 149.00804 
L 318.723009 154.054901 
L 320.122382 147.95585 
L 321.521755 149.130168 
L 322.921129 159.084672 
L 324.320502 161.336439 
L 329.917994 165.957644 
L 331.317367 172.92332 
L 332.71674 170.130479 
L 334.116113 158.221933 
L 338.314232 162.978218 
L 339.713605 173.321202 
L 341.112978 161.76129 
L 342.512351 162.942093 
L 343.911724 170.346434 
L 348.109843 187.703388 
L 349.509216 190.330748 
L 350.908589 172.712315 
L 353.707335 184.018075 
L 357.905455 184.541663 
L 359.304828 176.542971 
L 360.704201 165.442671 
L 362.103574 159.991036 
L 363.502947 155.15852 
L 367.701066 155.146019 
L 369.100439 146.652145 
L 370.499812 151.596066 
L 371.899185 144.1275 
L 373.298558 137.997108 
L 377.496677 137.345147 
L 378.89605 135.035872 
L 380.295423 135.713884 
L 381.694796 145.912201 
L 383.094169 143.419785 
L 387.292288 139.93103 
L 388.691661 145.017815 
L 390.091034 151.468262 
L 391.490408 151.762826 
L 392.889781 151.187879 
L 398.487273 161.913168 
L 398.487273 161.913168 
" style="fill:none;stroke:#ff0000;stroke-linecap:square;stroke-opacity:0.9;stroke-width:2;"/>
   </g>
   <g id="line2d_20">
    <path clip-path="url(#p4cebdc96b6)" d="M 73.832727 142.213881 
L 76.631473 137.400069 
L 78.030846 140.447569 
L 79.430219 135.265714 
L 83.628339 131.655385 
L 85.027712 130.999814 
L 86.427085 131.972257 
L 87.826458 131.479823 
L 89.225831 131.757899 
L 94.823323 131.957916 
L 96.222696 133.370279 
L 97.622069 135.097616 
L 99.021442 139.896197 
L 103.219561 135.17833 
L 104.618934 142.723232 
L 106.018307 139.515866 
L 107.41768 140.889786 
L 108.817053 145.668755 
L 113.015172 154.594461 
L 114.414545 156.102985 
L 115.813918 152.182314 
L 117.213292 143.799489 
L 118.612665 139.045051 
L 122.810784 134.604705 
L 124.210157 146.198004 
L 125.60953 144.505643 
L 127.008903 148.39471 
L 128.408276 139.985137 
L 132.606395 149.892691 
L 134.005768 141.784349 
L 136.804514 138.435709 
L 138.203887 136.587707 
L 142.402006 139.441047 
L 143.801379 143.376213 
L 145.200752 144.418154 
L 146.600125 134.071624 
L 147.999498 133.265579 
L 152.197618 128.782755 
L 153.596991 123.520551 
L 154.996364 121.104212 
L 156.395737 129.963285 
L 157.79511 137.112352 
L 161.993229 136.405818 
L 163.392602 141.555304 
L 164.791975 142.718587 
L 166.191348 136.137803 
L 167.590721 135.16286 
L 171.78884 131.951505 
L 173.188213 131.150572 
L 174.587586 126.957775 
L 175.986959 126.704139 
L 177.386332 122.953255 
L 181.584451 122.262297 
L 182.983824 129.183968 
L 184.383197 132.927413 
L 185.782571 133.557573 
L 187.181944 129.458784 
L 191.380063 127.640565 
L 192.779436 130.208621 
L 194.178809 130.210881 
L 195.578182 131.532739 
L 196.977555 131.957224 
L 201.175674 128.433146 
L 202.575047 124.11696 
L 203.97442 124.605941 
L 206.773166 136.551069 
L 210.971285 129.899411 
L 212.370658 140.083585 
L 213.770031 147.658486 
L 215.169404 141.486923 
L 216.568777 144.949786 
L 220.766897 134.945076 
L 222.16627 125.313688 
L 223.565643 121.029327 
L 224.965016 120.775718 
L 226.364389 118.640007 
L 230.562508 123.964598 
L 231.961881 121.384016 
L 233.361254 118.235483 
L 234.760627 116.338629 
L 236.16 122.81959 
L 240.358119 130.1785 
L 241.757492 117.440987 
L 243.156865 114.877264 
L 244.556238 110.090711 
L 250.15373 103.199481 
L 251.553103 103.541913 
L 252.952476 103.398575 
L 254.35185 104.018209 
L 255.751223 106.317317 
L 259.949342 98.266966 
L 261.348715 90.951401 
L 262.748088 105.765174 
L 264.147461 100.02388 
L 265.546834 97.83703 
L 269.744953 96.488507 
L 271.144326 91.780455 
L 272.543699 90.631255 
L 273.943072 97.372139 
L 275.342445 95.577554 
L 282.33931 110.416569 
L 283.738683 117.101076 
L 285.138056 129.669611 
L 289.336176 128.923436 
L 290.735549 135.359758 
L 292.134922 135.338239 
L 293.534295 138.758877 
L 294.933668 124.767934 
L 299.131787 113.439104 
L 300.53116 108.069462 
L 301.930533 98.559036 
L 303.329906 136.677659 
L 304.729279 135.989036 
L 308.927398 145.035473 
L 310.326771 146.603604 
L 311.726144 134.583592 
L 313.125517 144.093151 
L 314.52489 155.620451 
L 318.723009 159.462462 
L 320.122382 153.289149 
L 321.521755 156.045288 
L 322.921129 165.356805 
L 324.320502 168.262826 
L 329.917994 173.378217 
L 331.317367 180.427941 
L 332.71674 168.902121 
L 334.116113 159.505626 
L 338.314232 161.165509 
L 339.713605 169.469661 
L 341.112978 158.859074 
L 342.512351 161.34218 
L 343.911724 168.733391 
L 348.109843 189.812245 
L 349.509216 187.833891 
L 350.908589 166.638127 
L 353.707335 182.181081 
L 357.905455 182.630893 
L 359.304828 172.712922 
L 360.704201 156.296934 
L 362.103574 150.707956 
L 363.502947 143.057413 
L 367.701066 144.739147 
L 369.100439 133.541262 
L 370.499812 140.320033 
L 371.899185 132.228231 
L 373.298558 125.940091 
L 377.496677 125.451198 
L 378.89605 121.6329 
L 380.295423 123.846598 
L 381.694796 137.831462 
L 383.094169 136.668903 
L 387.292288 131.554223 
L 388.691661 138.6036 
L 390.091034 146.277514 
L 391.490408 148.337002 
L 392.889781 148.822734 
L 398.487273 159.878416 
L 398.487273 159.878416 
" style="fill:none;stroke:#ff8040;stroke-linecap:square;stroke-opacity:0.9;stroke-width:2;"/>
   </g>
   <g id="line2d_21">
    <path clip-path="url(#p4cebdc96b6)" d="M 73.832727 142.738935 
L 76.631473 139.749563 
L 78.030846 143.938406 
L 79.430219 137.699347 
L 83.628339 138.712129 
L 85.027712 139.923746 
L 86.427085 139.997717 
L 87.826458 139.818956 
L 89.225831 139.991858 
L 94.823323 140.795492 
L 96.222696 143.666197 
L 97.622069 144.686142 
L 99.021442 149.05228 
L 103.219561 145.693413 
L 104.618934 151.629336 
L 106.018307 149.261956 
L 107.41768 149.982465 
L 108.817053 154.563235 
L 113.015172 163.45695 
L 114.414545 163.811516 
L 115.813918 161.041705 
L 117.213292 155.266212 
L 118.612665 152.097208 
L 122.810784 149.698647 
L 124.210157 163.251796 
L 125.60953 161.802455 
L 127.008903 166.207919 
L 128.408276 158.559589 
L 132.606395 164.927216 
L 134.005768 157.639966 
L 135.405141 157.327795 
L 138.203887 153.216991 
L 142.402006 155.67928 
L 143.801379 159.51698 
L 145.200752 161.073942 
L 146.600125 149.376007 
L 147.999498 146.70437 
L 152.197618 148.372216 
L 153.596991 143.791215 
L 154.996364 139.983647 
L 156.395737 149.427083 
L 157.79511 152.69848 
L 161.993229 154.413597 
L 163.392602 157.461468 
L 164.791975 159.60067 
L 166.191348 153.194607 
L 167.590721 153.621761 
L 171.78884 153.936166 
L 173.188213 152.790038 
L 174.587586 148.700892 
L 175.986959 150.028544 
L 177.386332 149.83119 
L 181.584451 148.136807 
L 182.983824 153.321355 
L 184.383197 158.047274 
L 185.782571 157.822703 
L 187.181944 153.878303 
L 192.779436 150.115517 
L 194.178809 151.024433 
L 195.578182 153.376845 
L 196.977555 156.278097 
L 201.175674 155.549853 
L 202.575047 150.287281 
L 203.97442 150.012698 
L 206.773166 164.012695 
L 210.971285 158.414578 
L 212.370658 168.280497 
L 213.770031 175.607459 
L 215.169404 170.604724 
L 216.568777 173.990912 
L 220.766897 169.026279 
L 222.16627 160.995398 
L 223.565643 155.251558 
L 224.965016 155.867435 
L 226.364389 152.805671 
L 230.562508 158.228897 
L 231.961881 156.246057 
L 233.361254 153.679368 
L 234.760627 154.299628 
L 236.16 159.356467 
L 240.358119 165.823269 
L 241.757492 157.169392 
L 243.156865 154.215569 
L 244.556238 149.107497 
L 250.15373 141.14118 
L 251.553103 140.739303 
L 254.35185 141.890381 
L 255.751223 143.953887 
L 259.949342 139.862501 
L 261.348715 136.085242 
L 262.748088 147.213435 
L 264.147461 147.825411 
L 265.546834 145.086254 
L 269.744953 145.944123 
L 271.144326 144.557984 
L 272.543699 143.554544 
L 273.943072 146.366019 
L 275.342445 147.387817 
L 280.939937 158.193519 
L 283.738683 169.187571 
L 285.138056 180.332023 
L 289.336176 179.841592 
L 290.735549 182.504504 
L 292.134922 183.582129 
L 293.534295 186.775352 
L 294.933668 175.753296 
L 299.131787 170.985586 
L 300.53116 167.285417 
L 301.930533 156.008759 
L 303.329906 204.906637 
L 304.729279 201.131243 
L 308.927398 208.305238 
L 310.326771 206.068385 
L 311.726144 201.538782 
L 313.125517 209.350543 
L 314.52489 219.797635 
L 318.723009 224.524667 
L 320.122382 220.105604 
L 321.521755 222.501935 
L 322.921129 230.096751 
L 324.320502 231.932482 
L 329.917994 236.482794 
L 331.317367 244.108165 
L 332.71674 241.160992 
L 334.116113 229.588912 
L 338.314232 232.329887 
L 339.713605 243.818149 
L 341.112978 233.595074 
L 342.512351 233.251186 
L 343.911724 243.985132 
L 348.109843 260.922476 
L 349.509216 265.797818 
L 350.908589 250.009965 
L 352.307962 255.87012 
L 353.707335 260.459877 
L 357.905455 261.600562 
L 359.304828 254.558424 
L 360.704201 244.450684 
L 362.103574 240.50296 
L 363.502947 234.595335 
L 367.701066 235.283147 
L 369.100439 229.466878 
L 370.499812 234.181959 
L 373.298558 223.430701 
L 377.496677 223.103296 
L 378.89605 220.190923 
L 380.295423 220.485906 
L 381.694796 227.910217 
L 383.094169 226.466656 
L 387.292288 222.783184 
L 388.691661 225.970807 
L 390.091034 231.018008 
L 391.490408 230.986128 
L 392.889781 229.90998 
L 397.0879 237.510007 
L 398.487273 238.387056 
L 398.487273 238.387056 
" style="fill:none;stroke:#0d0d0d;stroke-linecap:square;stroke-opacity:0.25;stroke-width:2;"/>
   </g>
   <g id="line2d_22">
    <path clip-path="url(#p4cebdc96b6)" d="M 73.832727 141.688828 
L 75.2321 137.564126 
L 76.631473 134.142078 
L 78.030846 135.969472 
L 79.430219 129.399862 
L 83.628339 126.889132 
L 85.027712 125.111935 
L 86.427085 125.066432 
L 87.826458 125.63306 
L 89.225831 125.234104 
L 94.823323 122.089131 
L 96.222696 123.821688 
L 97.622069 125.050411 
L 99.021442 129.783939 
L 103.219561 126.356273 
L 104.618934 130.748292 
L 106.018307 128.115678 
L 107.41768 128.830432 
L 108.817053 132.978227 
L 113.015172 140.054974 
L 114.414545 140.273784 
L 115.813918 137.637642 
L 117.213292 129.326804 
L 118.612665 126.117113 
L 122.810784 123.532864 
L 124.210157 134.353194 
L 125.60953 134.06287 
L 127.008903 139.460669 
L 128.408276 130.746336 
L 132.606395 135.93337 
L 134.005768 127.385019 
L 135.405141 125.543562 
L 136.804514 123.312598 
L 138.203887 120.710372 
L 142.402006 124.178548 
L 143.801379 127.848396 
L 145.200752 130.063312 
L 146.600125 117.213978 
L 147.999498 113.030057 
L 152.197618 109.952478 
L 153.596991 104.80298 
L 154.996364 102.022573 
L 156.395737 104.522262 
L 157.79511 107.472252 
L 161.993229 110.169794 
L 163.392602 112.105389 
L 164.791975 115.874044 
L 166.191348 106.993963 
L 167.590721 107.458158 
L 171.78884 106.35076 
L 173.188213 104.8655 
L 174.587586 101.610753 
L 175.986959 102.807431 
L 177.386332 102.397771 
L 181.584451 102.11455 
L 182.983824 108.042493 
L 184.383197 112.733482 
L 185.782571 112.39929 
L 187.181944 105.933296 
L 191.380063 103.983162 
L 192.779436 104.822104 
L 194.178809 103.307987 
L 195.578182 103.00753 
L 196.977555 107.419947 
L 201.175674 105.978807 
L 202.575047 101.087026 
L 203.97442 100.11276 
L 206.773166 111.678278 
L 210.971285 104.279946 
L 212.370658 114.471125 
L 213.770031 119.29192 
L 215.169404 110.012212 
L 216.568777 113.80312 
L 220.766897 102.417198 
L 222.16627 93.043566 
L 223.565643 90.863712 
L 224.965016 92.629717 
L 226.364389 88.263712 
L 230.562508 94.600199 
L 231.961881 93.400746 
L 233.361254 88.139522 
L 234.760627 86.1859 
L 236.16 93.813093 
L 240.358119 99.394662 
L 241.757492 88.684343 
L 243.156865 85.658069 
L 244.556238 81.126006 
L 250.15373 70.940198 
L 251.553103 71.280774 
L 252.952476 70.295393 
L 254.35185 71.093289 
L 255.751223 73.166211 
L 259.949342 61.048992 
L 261.348715 52.154182 
L 262.748088 65.17365 
L 264.147461 65.333365 
L 265.546834 60.762605 
L 269.744953 63.128287 
L 271.144326 59.957924 
L 272.543699 59.513908 
L 273.943072 65.387492 
L 275.342445 65.123221 
L 280.939937 78.578537 
L 282.33931 82.625479 
L 283.738683 88.809751 
L 285.138056 100.716389 
L 289.336176 99.596636 
L 290.735549 93.14858 
L 292.134922 95.714979 
L 293.534295 100.241844 
L 294.933668 89.4787 
L 299.131787 79.008891 
L 300.53116 72.524717 
L 301.930533 64.13828 
L 303.329906 77.04053 
L 304.729279 71.674467 
L 308.927398 79.271282 
L 310.326771 77.336565 
L 311.726144 70.515824 
L 314.52489 90.242829 
L 318.723009 96.745959 
L 320.122382 91.846091 
L 321.521755 92.738183 
L 322.921129 102.742636 
L 324.320502 105.979757 
L 329.917994 110.946122 
L 331.317367 118.525194 
L 332.71674 112.461458 
L 334.116113 95.764948 
L 338.314232 101.534693 
L 339.713605 109.641339 
L 341.112978 97.392656 
L 342.512351 100.970468 
L 343.911724 108.190437 
L 349.509216 132.591998 
L 350.908589 107.736575 
L 352.307962 114.889015 
L 353.707335 120.153223 
L 357.905455 119.862757 
L 359.304828 110.986452 
L 360.704201 97.73149 
L 362.103574 91.419844 
L 363.502947 80.123408 
L 367.701066 82.871166 
L 369.100439 71.824342 
L 370.499812 77.914996 
L 371.899185 68.669884 
L 373.298558 63.214206 
L 377.496677 60.359698 
L 378.89605 56.654937 
L 380.295423 58.434074 
L 381.694796 70.313638 
L 383.094169 67.324024 
L 387.292288 59.47994 
L 388.691661 64.191657 
L 390.091034 73.878632 
L 391.490408 74.780123 
L 392.889781 75.167033 
L 397.0879 85.803146 
L 398.487273 88.304408 
L 398.487273 88.304408 
" style="fill:none;stroke:#0d0d0d;stroke-linecap:square;stroke-opacity:0.25;stroke-width:2;"/>
   </g>
   <g id="patch_3">
    <path d="M 57.6 276.48 
L 57.6 41.472 
" style="fill:none;stroke:#000000;stroke-linecap:square;stroke-linejoin:miter;stroke-width:0.8;"/>
   </g>
   <g id="patch_4">
    <path d="M 414.72 276.48 
L 414.72 41.472 
" style="fill:none;stroke:#000000;stroke-linecap:square;stroke-linejoin:miter;stroke-width:0.8;"/>
   </g>
   <g id="patch_5">
    <path d="M 57.6 276.48 
L 414.72 276.48 
" style="fill:none;stroke:#000000;stroke-linecap:square;stroke-linejoin:miter;stroke-width:0.8;"/>
   </g>
   <g id="patch_6">
    <path d="M 57.6 41.472 
L 414.72 41.472 
" style="fill:none;stroke:#000000;stroke-linecap:square;stroke-linejoin:miter;stroke-width:0.8;"/>
   </g>
   <g id="text_19">
    <!-- TESTFUNDS1550 -->
    <g transform="translate(185.200312 22.034625)scale(0.12 -0.12)">
     <defs>
      <path d="M -19 4666 
L 3928 4666 
L 3928 4134 
L 2272 4134 
L 2272 0 
L 1638 0 
L 1638 4134 
L -19 4134 
L -19 4666 
z
" id="DejaVuSans-54" transform="scale(0.015625)"/>
      <path d="M 628 4666 
L 3578 4666 
L 3578 4134 
L 1259 4134 
L 1259 2753 
L 3481 2753 
L 3481 2222 
L 1259 2222 
L 1259 531 
L 3634 531 
L 3634 0 
L 628 0 
L 628 4666 
z
" id="DejaVuSans-45" transform="scale(0.015625)"/>
      <path d="M 3425 4513 
L 3425 3897 
Q 3066 4069 2747 4153 
Q 2428 4238 2131 4238 
Q 1616 4238 1336 4038 
Q 1056 3838 1056 3469 
Q 1056 3159 1242 3001 
Q 1428 2844 1947 2747 
L 2328 2669 
Q 3034 2534 3370 2195 
Q 3706 1856 3706 1288 
Q 3706 609 3251 259 
Q 2797 -91 1919 -91 
Q 1588 -91 1214 -16 
Q 841 59 441 206 
L 441 856 
Q 825 641 1194 531 
Q 1563 422 1919 422 
Q 2459 422 2753 634 
Q 3047 847 3047 1241 
Q 3047 1584 2836 1778 
Q 2625 1972 2144 2069 
L 1759 2144 
Q 1053 2284 737 2584 
Q 422 2884 422 3419 
Q 422 4038 858 4394 
Q 1294 4750 2059 4750 
Q 2388 4750 2728 4690 
Q 3069 4631 3425 4513 
z
" id="DejaVuSans-53" transform="scale(0.015625)"/>
      <path d="M 628 4666 
L 3309 4666 
L 3309 4134 
L 1259 4134 
L 1259 2759 
L 3109 2759 
L 3109 2228 
L 1259 2228 
L 1259 0 
L 628 0 
L 628 4666 
z
" id="DejaVuSans-46" transform="scale(0.015625)"/>
      <path d="M 556 4666 
L 1191 4666 
L 1191 1831 
Q 1191 1081 1462 751 
Q 1734 422 2344 422 
Q 2950 422 3222 751 
Q 3494 1081 3494 1831 
L 3494 4666 
L 4128 4666 
L 4128 1753 
Q 4128 841 3676 375 
Q 3225 -91 2344 -91 
Q 1459 -91 1007 375 
Q 556 841 556 1753 
L 556 4666 
z
" id="DejaVuSans-55" transform="scale(0.015625)"/>
      <path d="M 628 4666 
L 1478 4666 
L 3547 763 
L 3547 4666 
L 4159 4666 
L 4159 0 
L 3309 0 
L 1241 3903 
L 1241 0 
L 628 0 
L 628 4666 
z
" id="DejaVuSans-4e" transform="scale(0.015625)"/>
      <path d="M 1259 4147 
L 1259 519 
L 2022 519 
Q 2988 519 3436 956 
Q 3884 1394 3884 2338 
Q 3884 3275 3436 3711 
Q 2988 4147 2022 4147 
L 1259 4147 
z
M 628 4666 
L 1925 4666 
Q 3281 4666 3915 4102 
Q 4550 3538 4550 2338 
Q 4550 1131 3912 565 
Q 3275 0 1925 0 
L 628 0 
L 628 4666 
z
" id="DejaVuSans-44" transform="scale(0.015625)"/>
     </defs>
     <use xlink:href="#DejaVuSans-54"/>
     <use x="61.083984" xlink:href="#DejaVuSans-45"/>
     <use x="124.267578" xlink:href="#DejaVuSans-53"/>
     <use x="187.744141" xlink:href="#DejaVuSans-54"/>
     <use x="248.828125" xlink:href="#DejaVuSans-46"/>
     <use x="306.347656" xlink:href="#DejaVuSans-55"/>
     <use x="379.541016" xlink:href="#DejaVuSans-4e"/>
     <use x="454.345703" xlink:href="#DejaVuSans-44"/>
     <use x="531.347656" xlink:href="#DejaVuSans-53"/>
     <use x="594.824219" xlink:href="#DejaVuSans-31"/>
     <use x="658.447266" xlink:href="#DejaVuSans-35"/>
     <use x="722.070312" xlink:href="#DejaVuSans-35"/>
     <use x="785.693359" xlink:href="#DejaVuSans-30"/>
    </g>
    <!-- daily_report -->
    <g transform="translate(200.466563 35.472)scale(0.12 -0.12)">
     <defs>
      <path d="M 603 3500 
L 1178 3500 
L 1178 0 
L 603 0 
L 603 3500 
z
M 603 4863 
L 1178 4863 
L 1178 4134 
L 603 4134 
L 603 4863 
z
" id="DejaVuSans-69" transform="scale(0.015625)"/>
      <path d="M 603 4863 
L 1178 4863 
L 1178 0 
L 603 0 
L 603 4863 
z
" id="DejaVuSans-6c" transform="scale(0.015625)"/>
      <path d="M 2059 -325 
Q 1816 -950 1584 -1140 
Q 1353 -1331 966 -1331 
L 506 -1331 
L 506 -850 
L 844 -850 
Q 1081 -850 1212 -737 
Q 1344 -625 1503 -206 
L 1606 56 
L 191 3500 
L 800 3500 
L 1894 763 
L 2988 3500 
L 3597 3500 
L 2059 -325 
z
" id="DejaVuSans-79" transform="scale(0.015625)"/>
      <path d="M 3263 -1063 
L 3263 -1509 
L -63 -1509 
L -63 -1063 
L 3263 -1063 
z
" id="DejaVuSans-5f" transform="scale(0.015625)"/>
      <path d="M 2631 2963 
Q 2534 3019 2420 3045 
Q 2306 3072 2169 3072 
Q 1681 3072 1420 2755 
Q 1159 2438 1159 1844 
L 1159 0 
L 581 0 
L 581 3500 
L 1159 3500 
L 1159 2956 
Q 1341 3275 1631 3429 
Q 1922 3584 2338 3584 
Q 2397 3584 2469 3576 
Q 2541 3569 2628 3553 
L 2631 2963 
z
" id="DejaVuSans-72" transform="scale(0.015625)"/>
      <path d="M 1159 525 
L 1159 -1331 
L 581 -1331 
L 581 3500 
L 1159 3500 
L 1159 2969 
Q 1341 3281 1617 3432 
Q 1894 3584 2278 3584 
Q 2916 3584 3314 3078 
Q 3713 2572 3713 1747 
Q 3713 922 3314 415 
Q 2916 -91 2278 -91 
Q 1894 -91 1617 61 
Q 1341 213 1159 525 
z
M 3116 1747 
Q 3116 2381 2855 2742 
Q 2594 3103 2138 3103 
Q 1681 3103 1420 2742 
Q 1159 2381 1159 1747 
Q 1159 1113 1420 752 
Q 1681 391 2138 391 
Q 2594 391 2855 752 
Q 3116 1113 3116 1747 
z
" id="DejaVuSans-70" transform="scale(0.015625)"/>
      <path d="M 1959 3097 
Q 1497 3097 1228 2736 
Q 959 2375 959 1747 
Q 959 1119 1226 758 
Q 1494 397 1959 397 
Q 2419 397 2687 759 
Q 2956 1122 2956 1747 
Q 2956 2369 2687 2733 
Q 2419 3097 1959 3097 
z
M 1959 3584 
Q 2709 3584 3137 3096 
Q 3566 2609 3566 1747 
Q 3566 888 3137 398 
Q 2709 -91 1959 -91 
Q 1206 -91 779 398 
Q 353 888 353 1747 
Q 353 2609 779 3096 
Q 1206 3584 1959 3584 
z
" id="DejaVuSans-6f" transform="scale(0.015625)"/>
     </defs>
     <use xlink:href="#DejaVuSans-64"/>
     <use x="63.476562" xlink:href="#DejaVuSans-61"/>
     <use x="124.755859" xlink:href="#DejaVuSans-69"/>
     <use x="152.539062" xlink:href="#DejaVuSans-6c"/>
     <use x="180.322266" xlink:href="#DejaVuSans-79"/>
     <use x="239.501953" xlink:href="#DejaVuSans-5f"/>
     <use x="289.501953" xlink:href="#DejaVuSans-72"/>
     <use x="328.365234" xlink:href="#DejaVuSans-65"/>
     <use x="389.888672" xlink:href="#DejaVuSans-70"/>
     <use x="453.365234" xlink:href="#DejaVuSans-6f"/>
     <use x="514.546875" xlink:href="#DejaVuSans-72"/>
     <use x="555.660156" xlink:href="#DejaVuSans-74"/>
    </g>
   </g>
   <g id="legend_1">
    <g id="patch_7">
     <path d="M 64.6 271.48 
L 155.792188 271.48 
Q 157.792188 271.48 157.792188 269.48 
L 157.792188 197.089375 
Q 157.792188 195.089375 155.792188 195.089375 
L 64.6 195.089375 
Q 62.6 195.089375 62.6 197.089375 
L 62.6 269.48 
Q 62.6 271.48 64.6 271.48 
z
" style="fill:#ffffff;opacity:0.8;stroke:#cccccc;stroke-linejoin:miter;"/>
    </g>
    <g id="line2d_23">
     <path d="M 66.6 203.187812 
L 86.6 203.187812 
" style="fill:none;stroke:#0000ff;stroke-linecap:square;stroke-opacity:0.9;stroke-width:2;"/>
    </g>
    <g id="line2d_24"/>
    <g id="text_20">
     <!-- alpaca -->
     <g transform="translate(94.6 206.687812)scale(0.1 -0.1)">
      <defs>
       <path d="M 3122 3366 
L 3122 2828 
Q 2878 2963 2633 3030 
Q 2388 3097 2138 3097 
Q 1578 3097 1268 2742 
Q 959 2388 959 1747 
Q 959 1106 1268 751 
Q 1578 397 2138 397 
Q 2388 397 2633 464 
Q 2878 531 3122 666 
L 3122 134 
Q 2881 22 2623 -34 
Q 2366 -91 2075 -91 
Q 1284 -91 818 406 
Q 353 903 353 1747 
Q 353 2603 823 3093 
Q 1294 3584 2113 3584 
Q 2378 3584 2631 3529 
Q 2884 3475 3122 3366 
z
" id="DejaVuSans-63" transform="scale(0.015625)"/>
      </defs>
      <use xlink:href="#DejaVuSans-61"/>
      <use x="61.279297" xlink:href="#DejaVuSans-6c"/>
      <use x="89.0625" xlink:href="#DejaVuSans-70"/>
      <use x="152.539062" xlink:href="#DejaVuSans-61"/>
      <use x="213.818359" xlink:href="#DejaVuSans-63"/>
      <use x="268.798828" xlink:href="#DejaVuSans-61"/>
     </g>
    </g>
    <g id="line2d_25">
     <path d="M 66.6 217.865937 
L 86.6 217.865937 
" style="fill:none;stroke:#ff0000;stroke-linecap:square;stroke-opacity:0.9;stroke-width:2;"/>
    </g>
    <g id="line2d_26"/>
    <g id="text_21">
     <!-- mattress -->
     <g transform="translate(94.6 221.365937)scale(0.1 -0.1)">
      <defs>
       <path d="M 3328 2828 
Q 3544 3216 3844 3400 
Q 4144 3584 4550 3584 
Q 5097 3584 5394 3201 
Q 5691 2819 5691 2113 
L 5691 0 
L 5113 0 
L 5113 2094 
Q 5113 2597 4934 2840 
Q 4756 3084 4391 3084 
Q 3944 3084 3684 2787 
Q 3425 2491 3425 1978 
L 3425 0 
L 2847 0 
L 2847 2094 
Q 2847 2600 2669 2842 
Q 2491 3084 2119 3084 
Q 1678 3084 1418 2786 
Q 1159 2488 1159 1978 
L 1159 0 
L 581 0 
L 581 3500 
L 1159 3500 
L 1159 2956 
Q 1356 3278 1631 3431 
Q 1906 3584 2284 3584 
Q 2666 3584 2933 3390 
Q 3200 3197 3328 2828 
z
" id="DejaVuSans-6d" transform="scale(0.015625)"/>
       <path d="M 2834 3397 
L 2834 2853 
Q 2591 2978 2328 3040 
Q 2066 3103 1784 3103 
Q 1356 3103 1142 2972 
Q 928 2841 928 2578 
Q 928 2378 1081 2264 
Q 1234 2150 1697 2047 
L 1894 2003 
Q 2506 1872 2764 1633 
Q 3022 1394 3022 966 
Q 3022 478 2636 193 
Q 2250 -91 1575 -91 
Q 1294 -91 989 -36 
Q 684 19 347 128 
L 347 722 
Q 666 556 975 473 
Q 1284 391 1588 391 
Q 1994 391 2212 530 
Q 2431 669 2431 922 
Q 2431 1156 2273 1281 
Q 2116 1406 1581 1522 
L 1381 1569 
Q 847 1681 609 1914 
Q 372 2147 372 2553 
Q 372 3047 722 3315 
Q 1072 3584 1716 3584 
Q 2034 3584 2315 3537 
Q 2597 3491 2834 3397 
z
" id="DejaVuSans-73" transform="scale(0.015625)"/>
      </defs>
      <use xlink:href="#DejaVuSans-6d"/>
      <use x="97.412109" xlink:href="#DejaVuSans-61"/>
      <use x="158.691406" xlink:href="#DejaVuSans-74"/>
      <use x="197.900391" xlink:href="#DejaVuSans-74"/>
      <use x="237.109375" xlink:href="#DejaVuSans-72"/>
      <use x="275.972656" xlink:href="#DejaVuSans-65"/>
      <use x="337.496094" xlink:href="#DejaVuSans-73"/>
      <use x="389.595703" xlink:href="#DejaVuSans-73"/>
     </g>
    </g>
    <g id="line2d_27">
     <path d="M 66.6 232.544062 
L 86.6 232.544062 
" style="fill:none;stroke:#ff8040;stroke-linecap:square;stroke-opacity:0.9;stroke-width:2;"/>
    </g>
    <g id="line2d_28"/>
    <g id="text_22">
     <!-- trader-0850 -->
     <g transform="translate(94.6 236.044062)scale(0.1 -0.1)">
      <use xlink:href="#DejaVuSans-74"/>
      <use x="39.208984" xlink:href="#DejaVuSans-72"/>
      <use x="80.322266" xlink:href="#DejaVuSans-61"/>
      <use x="141.601562" xlink:href="#DejaVuSans-64"/>
      <use x="205.078125" xlink:href="#DejaVuSans-65"/>
      <use x="266.601562" xlink:href="#DejaVuSans-72"/>
      <use x="301.339844" xlink:href="#DejaVuSans-2d"/>
      <use x="337.423828" xlink:href="#DejaVuSans-30"/>
      <use x="401.046875" xlink:href="#DejaVuSans-38"/>
      <use x="464.669922" xlink:href="#DejaVuSans-35"/>
      <use x="528.292969" xlink:href="#DejaVuSans-30"/>
     </g>
    </g>
    <g id="line2d_29">
     <path d="M 66.6 247.222187 
L 86.6 247.222187 
" style="fill:none;stroke:#0d0d0d;stroke-linecap:square;stroke-opacity:0.25;stroke-width:2;"/>
    </g>
    <g id="line2d_30"/>
    <g id="text_23">
     <!-- rando-min -->
     <g transform="translate(94.6 250.722187)scale(0.1 -0.1)">
      <defs>
       <path d="M 3513 2113 
L 3513 0 
L 2938 0 
L 2938 2094 
Q 2938 2591 2744 2837 
Q 2550 3084 2163 3084 
Q 1697 3084 1428 2787 
Q 1159 2491 1159 1978 
L 1159 0 
L 581 0 
L 581 3500 
L 1159 3500 
L 1159 2956 
Q 1366 3272 1645 3428 
Q 1925 3584 2291 3584 
Q 2894 3584 3203 3211 
Q 3513 2838 3513 2113 
z
" id="DejaVuSans-6e" transform="scale(0.015625)"/>
      </defs>
      <use xlink:href="#DejaVuSans-72"/>
      <use x="41.113281" xlink:href="#DejaVuSans-61"/>
      <use x="102.392578" xlink:href="#DejaVuSans-6e"/>
      <use x="165.771484" xlink:href="#DejaVuSans-64"/>
      <use x="229.248047" xlink:href="#DejaVuSans-6f"/>
      <use x="292.304688" xlink:href="#DejaVuSans-2d"/>
      <use x="328.388672" xlink:href="#DejaVuSans-6d"/>
      <use x="425.800781" xlink:href="#DejaVuSans-69"/>
      <use x="453.583984" xlink:href="#DejaVuSans-6e"/>
     </g>
    </g>
    <g id="line2d_31">
     <path d="M 66.6 261.900312 
L 86.6 261.900312 
" style="fill:none;stroke:#0d0d0d;stroke-linecap:square;stroke-opacity:0.25;stroke-width:2;"/>
    </g>
    <g id="line2d_32"/>
    <g id="text_24">
     <!-- rando-max -->
     <g transform="translate(94.6 265.400312)scale(0.1 -0.1)">
      <defs>
       <path d="M 3513 3500 
L 2247 1797 
L 3578 0 
L 2900 0 
L 1881 1375 
L 863 0 
L 184 0 
L 1544 1831 
L 300 3500 
L 978 3500 
L 1906 2253 
L 2834 3500 
L 3513 3500 
z
" id="DejaVuSans-78" transform="scale(0.015625)"/>
      </defs>
      <use xlink:href="#DejaVuSans-72"/>
      <use x="41.113281" xlink:href="#DejaVuSans-61"/>
      <use x="102.392578" xlink:href="#DejaVuSans-6e"/>
      <use x="165.771484" xlink:href="#DejaVuSans-64"/>
      <use x="229.248047" xlink:href="#DejaVuSans-6f"/>
      <use x="292.304688" xlink:href="#DejaVuSans-2d"/>
      <use x="328.388672" xlink:href="#DejaVuSans-6d"/>
      <use x="425.800781" xlink:href="#DejaVuSans-61"/>
      <use x="487.080078" xlink:href="#DejaVuSans-78"/>
     </g>
    </g>
   </g>
  </g>
 </g>
 <defs>
  <clipPath id="p4cebdc96b6">
   <rect height="235.008" width="357.12" x="57.6" y="41.472"/>
  </clipPath>
 </defs>
</svg>
