<?xml version="1.0" encoding="utf-8" standalone="no"?>
<!DOCTYPE svg PUBLIC "-//W3C//DTD SVG 1.1//EN"
  "http://www.w3.org/Graphics/SVG/1.1/DTD/svg11.dtd">
<svg height="345.6pt" version="1.1" viewBox="0 0 460.8 345.6" width="460.8pt" xmlns="http://www.w3.org/2000/svg" xmlns:xlink="http://www.w3.org/1999/xlink">
 <metadata>
  <rdf:RDF xmlns:cc="http://creativecommons.org/ns#" xmlns:dc="http://purl.org/dc/elements/1.1/" xmlns:rdf="http://www.w3.org/1999/02/22-rdf-syntax-ns#">
   <cc:Work>
    <dc:type rdf:resource="http://purl.org/dc/dcmitype/StillImage"/>
    <dc:date>2022-02-19T01:01:30.748534</dc:date>
    <dc:format>image/svg+xml</dc:format>
    <dc:creator>
     <cc:Agent>
      <dc:title>Matplotlib v3.4.3, https://matplotlib.org/</dc:title>
     </cc:Agent>
    </dc:creator>
   </cc:Work>
  </rdf:RDF>
 </metadata>
 <defs>
  <style type="text/css">*{stroke-linecap:butt;stroke-linejoin:round;}</style>
 </defs>
 <g id="figure_1">
  <g id="patch_1">
   <path d="M 0 345.6 
L 460.8 345.6 
L 460.8 0 
L 0 0 
z
" style="fill:#ffffff;"/>
  </g>
  <g id="axes_1">
   <g id="patch_2">
    <path d="M 57.6 276.48 
L 414.72 276.48 
L 414.72 41.472 
L 57.6 41.472 
z
" style="fill:#ffffff;"/>
   </g>
   <g id="matplotlib.axis_1">
    <g id="xtick_1">
     <g id="line2d_1">
      <defs>
       <path d="M 0 0 
L 0 3.5 
" id="md513eeeb69" style="stroke:#000000;stroke-width:0.8;"/>
      </defs>
      <g>
       <use style="stroke:#000000;stroke-width:0.8;" x="90.15614" xlink:href="#md513eeeb69" y="276.48"/>
      </g>
     </g>
     <g id="text_1">
      <!-- 2021-09 -->
      <g transform="translate(52.931319 310.951846)rotate(-30)scale(0.1 -0.1)">
       <defs>
        <path d="M 1228 531 
L 3431 531 
L 3431 0 
L 469 0 
L 469 531 
Q 828 903 1448 1529 
Q 2069 2156 2228 2338 
Q 2531 2678 2651 2914 
Q 2772 3150 2772 3378 
Q 2772 3750 2511 3984 
Q 2250 4219 1831 4219 
Q 1534 4219 1204 4116 
Q 875 4013 500 3803 
L 500 4441 
Q 881 4594 1212 4672 
Q 1544 4750 1819 4750 
Q 2544 4750 2975 4387 
Q 3406 4025 3406 3419 
Q 3406 3131 3298 2873 
Q 3191 2616 2906 2266 
Q 2828 2175 2409 1742 
Q 1991 1309 1228 531 
z
" id="DejaVuSans-32" transform="scale(0.015625)"/>
        <path d="M 2034 4250 
Q 1547 4250 1301 3770 
Q 1056 3291 1056 2328 
Q 1056 1369 1301 889 
Q 1547 409 2034 409 
Q 2525 409 2770 889 
Q 3016 1369 3016 2328 
Q 3016 3291 2770 3770 
Q 2525 4250 2034 4250 
z
M 2034 4750 
Q 2819 4750 3233 4129 
Q 3647 3509 3647 2328 
Q 3647 1150 3233 529 
Q 2819 -91 2034 -91 
Q 1250 -91 836 529 
Q 422 1150 422 2328 
Q 422 3509 836 4129 
Q 1250 4750 2034 4750 
z
" id="DejaVuSans-30" transform="scale(0.015625)"/>
        <path d="M 794 531 
L 1825 531 
L 1825 4091 
L 703 3866 
L 703 4441 
L 1819 4666 
L 2450 4666 
L 2450 531 
L 3481 531 
L 3481 0 
L 794 0 
L 794 531 
z
" id="DejaVuSans-31" transform="scale(0.015625)"/>
        <path d="M 313 2009 
L 1997 2009 
L 1997 1497 
L 313 1497 
L 313 2009 
z
" id="DejaVuSans-2d" transform="scale(0.015625)"/>
        <path d="M 703 97 
L 703 672 
Q 941 559 1184 500 
Q 1428 441 1663 441 
Q 2288 441 2617 861 
Q 2947 1281 2994 2138 
Q 2813 1869 2534 1725 
Q 2256 1581 1919 1581 
Q 1219 1581 811 2004 
Q 403 2428 403 3163 
Q 403 3881 828 4315 
Q 1253 4750 1959 4750 
Q 2769 4750 3195 4129 
Q 3622 3509 3622 2328 
Q 3622 1225 3098 567 
Q 2575 -91 1691 -91 
Q 1453 -91 1209 -44 
Q 966 3 703 97 
z
M 1959 2075 
Q 2384 2075 2632 2365 
Q 2881 2656 2881 3163 
Q 2881 3666 2632 3958 
Q 2384 4250 1959 4250 
Q 1534 4250 1286 3958 
Q 1038 3666 1038 3163 
Q 1038 2656 1286 2365 
Q 1534 2075 1959 2075 
z
" id="DejaVuSans-39" transform="scale(0.015625)"/>
       </defs>
       <use xlink:href="#DejaVuSans-32"/>
       <use x="63.623047" xlink:href="#DejaVuSans-30"/>
       <use x="127.246094" xlink:href="#DejaVuSans-32"/>
       <use x="190.869141" xlink:href="#DejaVuSans-31"/>
       <use x="254.492188" xlink:href="#DejaVuSans-2d"/>
       <use x="290.576172" xlink:href="#DejaVuSans-30"/>
       <use x="354.199219" xlink:href="#DejaVuSans-39"/>
      </g>
     </g>
    </g>
    <g id="xtick_2">
     <g id="line2d_2">
      <g>
       <use style="stroke:#000000;stroke-width:0.8;" x="144.567517" xlink:href="#md513eeeb69" y="276.48"/>
      </g>
     </g>
     <g id="text_2">
      <!-- 2021-10 -->
      <g transform="translate(107.342696 310.951846)rotate(-30)scale(0.1 -0.1)">
       <use xlink:href="#DejaVuSans-32"/>
       <use x="63.623047" xlink:href="#DejaVuSans-30"/>
       <use x="127.246094" xlink:href="#DejaVuSans-32"/>
       <use x="190.869141" xlink:href="#DejaVuSans-31"/>
       <use x="254.492188" xlink:href="#DejaVuSans-2d"/>
       <use x="290.576172" xlink:href="#DejaVuSans-31"/>
       <use x="354.199219" xlink:href="#DejaVuSans-30"/>
      </g>
     </g>
    </g>
    <g id="xtick_3">
     <g id="line2d_3">
      <g>
       <use style="stroke:#000000;stroke-width:0.8;" x="200.792605" xlink:href="#md513eeeb69" y="276.48"/>
      </g>
     </g>
     <g id="text_3">
      <!-- 2021-11 -->
      <g transform="translate(163.567785 310.951846)rotate(-30)scale(0.1 -0.1)">
       <use xlink:href="#DejaVuSans-32"/>
       <use x="63.623047" xlink:href="#DejaVuSans-30"/>
       <use x="127.246094" xlink:href="#DejaVuSans-32"/>
       <use x="190.869141" xlink:href="#DejaVuSans-31"/>
       <use x="254.492188" xlink:href="#DejaVuSans-2d"/>
       <use x="290.576172" xlink:href="#DejaVuSans-31"/>
       <use x="354.199219" xlink:href="#DejaVuSans-31"/>
      </g>
     </g>
    </g>
    <g id="xtick_4">
     <g id="line2d_4">
      <g>
       <use style="stroke:#000000;stroke-width:0.8;" x="255.203982" xlink:href="#md513eeeb69" y="276.48"/>
      </g>
     </g>
     <g id="text_4">
      <!-- 2021-12 -->
      <g transform="translate(217.979161 310.951846)rotate(-30)scale(0.1 -0.1)">
       <use xlink:href="#DejaVuSans-32"/>
       <use x="63.623047" xlink:href="#DejaVuSans-30"/>
       <use x="127.246094" xlink:href="#DejaVuSans-32"/>
       <use x="190.869141" xlink:href="#DejaVuSans-31"/>
       <use x="254.492188" xlink:href="#DejaVuSans-2d"/>
       <use x="290.576172" xlink:href="#DejaVuSans-31"/>
       <use x="354.199219" xlink:href="#DejaVuSans-32"/>
      </g>
     </g>
    </g>
    <g id="xtick_5">
     <g id="line2d_5">
      <g>
       <use style="stroke:#000000;stroke-width:0.8;" x="311.429071" xlink:href="#md513eeeb69" y="276.48"/>
      </g>
     </g>
     <g id="text_5">
      <!-- 2022-01 -->
      <g transform="translate(274.20425 310.951846)rotate(-30)scale(0.1 -0.1)">
       <use xlink:href="#DejaVuSans-32"/>
       <use x="63.623047" xlink:href="#DejaVuSans-30"/>
       <use x="127.246094" xlink:href="#DejaVuSans-32"/>
       <use x="190.869141" xlink:href="#DejaVuSans-32"/>
       <use x="254.492188" xlink:href="#DejaVuSans-2d"/>
       <use x="290.576172" xlink:href="#DejaVuSans-30"/>
       <use x="354.199219" xlink:href="#DejaVuSans-31"/>
      </g>
     </g>
    </g>
    <g id="xtick_6">
     <g id="line2d_6">
      <g>
       <use style="stroke:#000000;stroke-width:0.8;" x="367.654159" xlink:href="#md513eeeb69" y="276.48"/>
      </g>
     </g>
     <g id="text_6">
      <!-- 2022-02 -->
      <g transform="translate(330.429339 310.951846)rotate(-30)scale(0.1 -0.1)">
       <use xlink:href="#DejaVuSans-32"/>
       <use x="63.623047" xlink:href="#DejaVuSans-30"/>
       <use x="127.246094" xlink:href="#DejaVuSans-32"/>
       <use x="190.869141" xlink:href="#DejaVuSans-32"/>
       <use x="254.492188" xlink:href="#DejaVuSans-2d"/>
       <use x="290.576172" xlink:href="#DejaVuSans-30"/>
       <use x="354.199219" xlink:href="#DejaVuSans-32"/>
      </g>
     </g>
    </g>
    <g id="text_7">
     <!-- date -->
     <g transform="translate(224.885 324.351346)scale(0.1 -0.1)">
      <defs>
       <path d="M 2906 2969 
L 2906 4863 
L 3481 4863 
L 3481 0 
L 2906 0 
L 2906 525 
Q 2725 213 2448 61 
Q 2172 -91 1784 -91 
Q 1150 -91 751 415 
Q 353 922 353 1747 
Q 353 2572 751 3078 
Q 1150 3584 1784 3584 
Q 2172 3584 2448 3432 
Q 2725 3281 2906 2969 
z
M 947 1747 
Q 947 1113 1208 752 
Q 1469 391 1925 391 
Q 2381 391 2643 752 
Q 2906 1113 2906 1747 
Q 2906 2381 2643 2742 
Q 2381 3103 1925 3103 
Q 1469 3103 1208 2742 
Q 947 2381 947 1747 
z
" id="DejaVuSans-64" transform="scale(0.015625)"/>
       <path d="M 2194 1759 
Q 1497 1759 1228 1600 
Q 959 1441 959 1056 
Q 959 750 1161 570 
Q 1363 391 1709 391 
Q 2188 391 2477 730 
Q 2766 1069 2766 1631 
L 2766 1759 
L 2194 1759 
z
M 3341 1997 
L 3341 0 
L 2766 0 
L 2766 531 
Q 2569 213 2275 61 
Q 1981 -91 1556 -91 
Q 1019 -91 701 211 
Q 384 513 384 1019 
Q 384 1609 779 1909 
Q 1175 2209 1959 2209 
L 2766 2209 
L 2766 2266 
Q 2766 2663 2505 2880 
Q 2244 3097 1772 3097 
Q 1472 3097 1187 3025 
Q 903 2953 641 2809 
L 641 3341 
Q 956 3463 1253 3523 
Q 1550 3584 1831 3584 
Q 2591 3584 2966 3190 
Q 3341 2797 3341 1997 
z
" id="DejaVuSans-61" transform="scale(0.015625)"/>
       <path d="M 1172 4494 
L 1172 3500 
L 2356 3500 
L 2356 3053 
L 1172 3053 
L 1172 1153 
Q 1172 725 1289 603 
Q 1406 481 1766 481 
L 2356 481 
L 2356 0 
L 1766 0 
Q 1100 0 847 248 
Q 594 497 594 1153 
L 594 3053 
L 172 3053 
L 172 3500 
L 594 3500 
L 594 4494 
L 1172 4494 
z
" id="DejaVuSans-74" transform="scale(0.015625)"/>
       <path d="M 3597 1894 
L 3597 1613 
L 953 1613 
Q 991 1019 1311 708 
Q 1631 397 2203 397 
Q 2534 397 2845 478 
Q 3156 559 3463 722 
L 3463 178 
Q 3153 47 2828 -22 
Q 2503 -91 2169 -91 
Q 1331 -91 842 396 
Q 353 884 353 1716 
Q 353 2575 817 3079 
Q 1281 3584 2069 3584 
Q 2775 3584 3186 3129 
Q 3597 2675 3597 1894 
z
M 3022 2063 
Q 3016 2534 2758 2815 
Q 2500 3097 2075 3097 
Q 1594 3097 1305 2825 
Q 1016 2553 972 2059 
L 3022 2063 
z
" id="DejaVuSans-65" transform="scale(0.015625)"/>
      </defs>
      <use xlink:href="#DejaVuSans-64"/>
      <use x="63.476562" xlink:href="#DejaVuSans-61"/>
      <use x="124.755859" xlink:href="#DejaVuSans-74"/>
      <use x="163.964844" xlink:href="#DejaVuSans-65"/>
     </g>
    </g>
   </g>
   <g id="matplotlib.axis_2">
    <g id="ytick_1">
     <g id="line2d_7">
      <defs>
       <path d="M 0 0 
L -3.5 0 
" id="me1888fcc6c" style="stroke:#000000;stroke-width:0.8;"/>
      </defs>
      <g>
       <use style="stroke:#000000;stroke-width:0.8;" x="57.6" xlink:href="#me1888fcc6c" y="273.432563"/>
      </g>
     </g>
     <g id="text_8">
      <!-- 85000 -->
      <g transform="translate(18.7875 277.231781)scale(0.1 -0.1)">
       <defs>
        <path d="M 2034 2216 
Q 1584 2216 1326 1975 
Q 1069 1734 1069 1313 
Q 1069 891 1326 650 
Q 1584 409 2034 409 
Q 2484 409 2743 651 
Q 3003 894 3003 1313 
Q 3003 1734 2745 1975 
Q 2488 2216 2034 2216 
z
M 1403 2484 
Q 997 2584 770 2862 
Q 544 3141 544 3541 
Q 544 4100 942 4425 
Q 1341 4750 2034 4750 
Q 2731 4750 3128 4425 
Q 3525 4100 3525 3541 
Q 3525 3141 3298 2862 
Q 3072 2584 2669 2484 
Q 3125 2378 3379 2068 
Q 3634 1759 3634 1313 
Q 3634 634 3220 271 
Q 2806 -91 2034 -91 
Q 1263 -91 848 271 
Q 434 634 434 1313 
Q 434 1759 690 2068 
Q 947 2378 1403 2484 
z
M 1172 3481 
Q 1172 3119 1398 2916 
Q 1625 2713 2034 2713 
Q 2441 2713 2670 2916 
Q 2900 3119 2900 3481 
Q 2900 3844 2670 4047 
Q 2441 4250 2034 4250 
Q 1625 4250 1398 4047 
Q 1172 3844 1172 3481 
z
" id="DejaVuSans-38" transform="scale(0.015625)"/>
        <path d="M 691 4666 
L 3169 4666 
L 3169 4134 
L 1269 4134 
L 1269 2991 
Q 1406 3038 1543 3061 
Q 1681 3084 1819 3084 
Q 2600 3084 3056 2656 
Q 3513 2228 3513 1497 
Q 3513 744 3044 326 
Q 2575 -91 1722 -91 
Q 1428 -91 1123 -41 
Q 819 9 494 109 
L 494 744 
Q 775 591 1075 516 
Q 1375 441 1709 441 
Q 2250 441 2565 725 
Q 2881 1009 2881 1497 
Q 2881 1984 2565 2268 
Q 2250 2553 1709 2553 
Q 1456 2553 1204 2497 
Q 953 2441 691 2322 
L 691 4666 
z
" id="DejaVuSans-35" transform="scale(0.015625)"/>
       </defs>
       <use xlink:href="#DejaVuSans-38"/>
       <use x="63.623047" xlink:href="#DejaVuSans-35"/>
       <use x="127.246094" xlink:href="#DejaVuSans-30"/>
       <use x="190.869141" xlink:href="#DejaVuSans-30"/>
       <use x="254.492188" xlink:href="#DejaVuSans-30"/>
      </g>
     </g>
    </g>
    <g id="ytick_2">
     <g id="line2d_8">
      <g>
       <use style="stroke:#000000;stroke-width:0.8;" x="57.6" xlink:href="#me1888fcc6c" y="239.681766"/>
      </g>
     </g>
     <g id="text_9">
      <!-- 90000 -->
      <g transform="translate(18.7875 243.480985)scale(0.1 -0.1)">
       <use xlink:href="#DejaVuSans-39"/>
       <use x="63.623047" xlink:href="#DejaVuSans-30"/>
       <use x="127.246094" xlink:href="#DejaVuSans-30"/>
       <use x="190.869141" xlink:href="#DejaVuSans-30"/>
       <use x="254.492188" xlink:href="#DejaVuSans-30"/>
      </g>
     </g>
    </g>
    <g id="ytick_3">
     <g id="line2d_9">
      <g>
       <use style="stroke:#000000;stroke-width:0.8;" x="57.6" xlink:href="#me1888fcc6c" y="205.93097"/>
      </g>
     </g>
     <g id="text_10">
      <!-- 95000 -->
      <g transform="translate(18.7875 209.730189)scale(0.1 -0.1)">
       <use xlink:href="#DejaVuSans-39"/>
       <use x="63.623047" xlink:href="#DejaVuSans-35"/>
       <use x="127.246094" xlink:href="#DejaVuSans-30"/>
       <use x="190.869141" xlink:href="#DejaVuSans-30"/>
       <use x="254.492188" xlink:href="#DejaVuSans-30"/>
      </g>
     </g>
    </g>
    <g id="ytick_4">
     <g id="line2d_10">
      <g>
       <use style="stroke:#000000;stroke-width:0.8;" x="57.6" xlink:href="#me1888fcc6c" y="172.180174"/>
      </g>
     </g>
     <g id="text_11">
      <!-- 100000 -->
      <g transform="translate(12.425 175.979393)scale(0.1 -0.1)">
       <use xlink:href="#DejaVuSans-31"/>
       <use x="63.623047" xlink:href="#DejaVuSans-30"/>
       <use x="127.246094" xlink:href="#DejaVuSans-30"/>
       <use x="190.869141" xlink:href="#DejaVuSans-30"/>
       <use x="254.492188" xlink:href="#DejaVuSans-30"/>
       <use x="318.115234" xlink:href="#DejaVuSans-30"/>
      </g>
     </g>
    </g>
    <g id="ytick_5">
     <g id="line2d_11">
      <g>
       <use style="stroke:#000000;stroke-width:0.8;" x="57.6" xlink:href="#me1888fcc6c" y="138.429378"/>
      </g>
     </g>
     <g id="text_12">
      <!-- 105000 -->
      <g transform="translate(12.425 142.228597)scale(0.1 -0.1)">
       <use xlink:href="#DejaVuSans-31"/>
       <use x="63.623047" xlink:href="#DejaVuSans-30"/>
       <use x="127.246094" xlink:href="#DejaVuSans-35"/>
       <use x="190.869141" xlink:href="#DejaVuSans-30"/>
       <use x="254.492188" xlink:href="#DejaVuSans-30"/>
       <use x="318.115234" xlink:href="#DejaVuSans-30"/>
      </g>
     </g>
    </g>
    <g id="ytick_6">
     <g id="line2d_12">
      <g>
       <use style="stroke:#000000;stroke-width:0.8;" x="57.6" xlink:href="#me1888fcc6c" y="104.678582"/>
      </g>
     </g>
     <g id="text_13">
      <!-- 110000 -->
      <g transform="translate(12.425 108.477801)scale(0.1 -0.1)">
       <use xlink:href="#DejaVuSans-31"/>
       <use x="63.623047" xlink:href="#DejaVuSans-31"/>
       <use x="127.246094" xlink:href="#DejaVuSans-30"/>
       <use x="190.869141" xlink:href="#DejaVuSans-30"/>
       <use x="254.492188" xlink:href="#DejaVuSans-30"/>
       <use x="318.115234" xlink:href="#DejaVuSans-30"/>
      </g>
     </g>
    </g>
    <g id="ytick_7">
     <g id="line2d_13">
      <g>
       <use style="stroke:#000000;stroke-width:0.8;" x="57.6" xlink:href="#me1888fcc6c" y="70.927786"/>
      </g>
     </g>
     <g id="text_14">
      <!-- 115000 -->
      <g transform="translate(12.425 74.727005)scale(0.1 -0.1)">
       <use xlink:href="#DejaVuSans-31"/>
       <use x="63.623047" xlink:href="#DejaVuSans-31"/>
       <use x="127.246094" xlink:href="#DejaVuSans-35"/>
       <use x="190.869141" xlink:href="#DejaVuSans-30"/>
       <use x="254.492188" xlink:href="#DejaVuSans-30"/>
       <use x="318.115234" xlink:href="#DejaVuSans-30"/>
      </g>
     </g>
    </g>
   </g>
   <g id="line2d_14">
    <path clip-path="url(#p13f901e24b)" d="M 73.832727 172.180174 
L 75.64644 173.075219 
L 77.460152 170.185532 
L 79.273865 173.710576 
L 81.087577 167.698047 
L 86.528715 163.324849 
L 88.342428 161.685265 
L 90.15614 163.711105 
L 91.969853 163.066608 
L 93.783565 163.434731 
L 101.038415 163.395866 
L 102.852128 166.109881 
L 104.665841 167.786972 
L 106.479553 174.194528 
L 111.920691 168.377515 
L 113.734403 177.765948 
L 115.548116 172.985538 
L 117.361828 174.562171 
L 119.175541 180.551048 
L 124.616679 192.868334 
L 126.430391 193.881385 
L 128.244104 189.135161 
L 130.057816 178.713402 
L 131.871529 172.959366 
L 137.312666 167.877532 
L 139.126379 181.88424 
L 140.940091 179.574101 
L 142.753804 185.226819 
L 144.567517 175.032894 
L 150.008654 187.75129 
L 151.822367 177.594522 
L 153.636079 174.859594 
L 155.449792 174.819393 
L 157.263504 174.068658 
L 162.704642 172.793689 
L 164.518354 172.004807 
L 166.332067 181.102597 
L 168.14578 167.553694 
L 169.959492 166.344757 
L 175.40063 161.320094 
L 177.214342 154.513445 
L 179.028055 152.092341 
L 180.841767 163.548978 
L 182.65548 171.885561 
L 188.096618 171.893451 
L 189.91033 177.763986 
L 191.724043 179.060406 
L 193.537755 170.701527 
L 195.351468 179.470492 
L 200.792605 165.202913 
L 202.606318 166.041984 
L 204.42003 158.511553 
L 206.233743 166.878649 
L 208.047456 162.582934 
L 213.488593 162.078763 
L 215.302306 170.128895 
L 217.116018 170.371041 
L 218.929731 175.614931 
L 220.743443 170.845855 
L 226.184581 168.401613 
L 227.998294 168.600244 
L 229.812006 171.939556 
L 231.625719 174.298931 
L 233.439431 174.675161 
L 238.880569 170.61714 
L 240.694281 164.460256 
L 242.507994 165.356953 
L 246.135419 165.250512 
L 251.576557 171.055063 
L 253.390269 184.368597 
L 255.203982 192.920908 
L 257.017694 184.662716 
L 258.831407 189.279357 
L 264.272544 176.78876 
L 266.086257 164.878748 
L 267.89997 159.405761 
L 269.713682 159.454979 
L 271.527395 156.57853 
L 276.968532 163.460488 
L 278.782245 159.91435 
L 280.595957 156.423384 
L 282.40967 153.317917 
L 284.223382 161.033365 
L 289.66452 170.673274 
L 291.478233 154.740023 
L 293.291945 151.509777 
L 295.105658 145.192215 
L 302.360508 136.628619 
L 304.17422 136.857618 
L 305.987933 136.59349 
L 307.801646 138.089296 
L 309.615358 141.122375 
L 315.056496 130.446826 
L 316.870208 121.682247 
L 318.683921 140.317772 
L 320.497633 134.486573 
L 322.311346 131.688731 
L 327.752483 131.391455 
L 329.566196 125.13215 
L 331.379909 124.244606 
L 333.193621 132.856098 
L 335.007334 130.781344 
L 342.262184 145.676812 
L 344.075896 149.882185 
L 345.889609 157.744608 
L 347.703321 173.386704 
L 353.144459 172.083754 
L 354.958172 179.939402 
L 356.771884 179.825377 
L 358.585597 184.410124 
L 360.399309 167.637282 
L 365.840447 153.078225 
L 367.654159 145.933924 
L 369.467872 135.243386 
L 371.281585 180.617051 
L 373.095297 179.492764 
L 378.536435 190.59013 
L 380.350147 192.524241 
L 382.16386 177.627164 
L 383.977572 189.554722 
L 385.791285 204.678134 
L 391.232423 209.385306 
L 393.046135 201.44833 
L 394.859848 204.517783 
L 396.67356 216.517355 
L 398.487273 222.87549 
" style="fill:none;stroke:#0000ff;stroke-linecap:square;stroke-opacity:0.9;stroke-width:2;"/>
   </g>
   <g id="line2d_15">
    <path clip-path="url(#p13f901e24b)" d="M 73.832727 172.180174 
L 75.64644 168.188078 
L 77.460152 165.433266 
L 79.273865 169.600174 
L 81.087577 161.41199 
L 86.528715 158.933271 
L 88.342428 158.472398 
L 90.15614 158.461826 
L 91.969853 159.189304 
L 93.783565 158.662421 
L 101.038415 157.750498 
L 102.852128 160.82272 
L 104.665841 161.815747 
L 106.479553 169.048665 
L 111.920691 164.404531 
L 113.734403 170.435197 
L 115.548116 167.480723 
L 117.361828 169.262517 
L 119.175541 177.701407 
L 124.616679 188.733261 
L 126.430391 188.814831 
L 128.244104 185.345892 
L 130.057816 176.739892 
L 131.871529 171.500936 
L 137.312666 167.110977 
L 139.126379 180.915644 
L 140.940091 179.947145 
L 142.753804 186.076971 
L 144.567517 176.45342 
L 150.008654 184.117389 
L 151.822367 174.249727 
L 153.636079 172.295248 
L 155.449792 170.529179 
L 157.263504 167.745264 
L 162.704642 171.447429 
L 164.518354 176.847545 
L 166.332067 178.603587 
L 168.14578 162.042937 
L 169.959492 157.546186 
L 175.40063 155.875444 
L 177.214342 149.568532 
L 179.028055 146.183446 
L 180.841767 155.336772 
L 182.65548 158.850762 
L 188.096618 160.514601 
L 189.91033 164.542444 
L 191.724043 168.121936 
L 193.537755 158.647505 
L 195.351468 157.711572 
L 200.792605 157.319073 
L 202.606318 154.597186 
L 204.42003 149.239907 
L 206.233743 150.400835 
L 208.047456 150.385905 
L 213.488593 149.543572 
L 215.302306 155.010763 
L 217.116018 158.712728 
L 218.929731 158.737487 
L 220.743443 154.086443 
L 226.184581 152.793683 
L 227.998294 153.883888 
L 229.812006 154.483666 
L 231.625719 154.633149 
L 233.439431 156.882132 
L 238.880569 154.272287 
L 240.694281 147.716459 
L 242.507994 147.270574 
L 246.135419 164.788939 
L 251.576557 157.628737 
L 253.390269 172.152704 
L 255.203982 180.130438 
L 257.017694 170.401838 
L 258.831407 176.311342 
L 264.272544 166.108554 
L 266.086257 153.943077 
L 267.89997 150.458232 
L 269.713682 150.557637 
L 271.527395 146.47866 
L 276.968532 153.182032 
L 278.782245 152.932379 
L 280.595957 147.634605 
L 282.40967 147.227547 
L 284.223382 156.753322 
L 289.66452 164.674252 
L 291.478233 151.328079 
L 293.291945 147.343088 
L 295.105658 141.186087 
L 302.360508 132.305014 
L 304.17422 132.569508 
L 305.987933 131.825979 
L 307.801646 133.219818 
L 309.615358 136.024295 
L 315.056496 128.214854 
L 316.870208 121.332072 
L 318.683921 136.704913 
L 320.497633 134.321797 
L 322.311346 130.060791 
L 327.752483 130.733335 
L 329.566196 127.022582 
L 331.379909 126.878561 
L 333.193621 131.796557 
L 335.007334 132.230835 
L 342.262184 147.831147 
L 344.075896 154.865802 
L 345.889609 161.441369 
L 347.703321 175.314916 
L 353.144459 176.78246 
L 354.958172 175.10953 
L 356.771884 175.873327 
L 358.585597 181.702749 
L 360.399309 165.458804 
L 365.840447 154.808933 
L 367.654159 147.188216 
L 369.467872 135.802211 
L 371.281585 167.111809 
L 373.095297 162.110484 
L 378.536435 166.016096 
L 380.350147 161.83983 
L 382.16386 155.126963 
L 383.977572 166.963422 
L 385.791285 180.876875 
L 391.232423 187.454969 
L 393.046135 179.349723 
L 394.859848 180.690332 
L 396.67356 193.746629 
L 398.487273 196.794373 
" style="fill:none;stroke:#ff0000;stroke-linecap:square;stroke-opacity:0.9;stroke-width:2;"/>
   </g>
   <g id="line2d_16">
    <path clip-path="url(#p13f901e24b)" d="M 73.832727 172.180174 
L 75.64644 168.302457 
L 77.460152 166.114781 
L 79.273865 169.636268 
L 81.087577 162.86561 
L 86.528715 159.046609 
L 88.342428 157.583112 
L 90.15614 159.198525 
L 91.969853 158.384193 
L 93.783565 158.808137 
L 101.038415 158.628726 
L 102.852128 161.225775 
L 104.665841 162.888659 
L 106.479553 168.563902 
L 111.920691 162.967121 
L 113.734403 173.066695 
L 115.548116 168.406758 
L 117.361828 169.18323 
L 119.175541 175.337573 
L 124.616679 186.949093 
L 126.430391 188.687914 
L 128.244104 183.196336 
L 130.057816 173.001269 
L 131.871529 167.015965 
L 137.312666 160.903121 
L 139.126379 175.877412 
L 140.940091 173.734234 
L 142.753804 178.280223 
L 144.567517 168.220834 
L 150.008654 180.982734 
L 151.822367 170.552546 
L 153.636079 167.901389 
L 155.449792 165.842004 
L 157.263504 163.56952 
L 162.704642 167.219414 
L 164.518354 172.420414 
L 166.332067 173.53653 
L 168.14578 160.322513 
L 169.959492 159.414858 
L 175.40063 153.937691 
L 177.214342 146.6978 
L 179.028055 143.787483 
L 180.841767 155.502414 
L 182.65548 164.376424 
L 188.096618 163.377296 
L 189.91033 170.045123 
L 191.724043 171.302067 
L 193.537755 162.799498 
L 195.351468 161.514085 
L 200.792605 157.963844 
L 202.606318 156.782788 
L 204.42003 151.533183 
L 206.233743 150.611197 
L 208.047456 145.682929 
L 213.488593 145.250043 
L 215.302306 153.928939 
L 217.116018 158.984183 
L 218.929731 159.809485 
L 220.743443 153.936446 
L 226.184581 151.865336 
L 227.998294 155.423564 
L 229.812006 155.88941 
L 231.625719 157.102737 
L 233.439431 157.385724 
L 238.880569 152.900111 
L 240.694281 147.771616 
L 242.507994 147.986812 
L 246.135419 163.879972 
L 251.576557 154.860902 
L 253.390269 168.215126 
L 255.203982 177.712212 
L 257.017694 169.401737 
L 258.831407 174.388619 
L 264.272544 161.136101 
L 266.086257 149.300961 
L 267.89997 143.525561 
L 269.713682 142.948468 
L 271.527395 140.75193 
L 276.968532 147.521698 
L 278.782245 144.355158 
L 280.595957 140.213945 
L 282.40967 137.435519 
L 284.223382 145.892781 
L 289.66452 155.174443 
L 291.478233 139.05077 
L 293.291945 136.119403 
L 295.105658 129.588076 
L 302.360508 120.093101 
L 304.17422 120.876802 
L 305.987933 120.791035 
L 307.801646 121.602077 
L 309.615358 124.750008 
L 315.056496 114.141944 
L 316.870208 104.369519 
L 318.683921 123.599825 
L 320.497633 116.506116 
L 322.311346 113.812104 
L 327.752483 112.524167 
L 329.566196 105.558716 
L 331.379909 103.918579 
L 333.193621 113.298092 
L 335.007334 110.995887 
L 342.262184 126.317254 
L 344.075896 130.383315 
L 345.889609 138.024437 
L 347.703321 154.703586 
L 353.144459 153.311794 
L 354.958172 161.733143 
L 356.771884 161.811419 
L 358.585597 166.102866 
L 360.399309 148.875824 
L 365.840447 133.358926 
L 367.654159 126.626878 
L 369.467872 114.665955 
L 371.281585 163.493408 
L 373.095297 163.161373 
L 378.536435 174.909068 
L 380.350147 176.277013 
L 382.16386 160.859763 
L 383.977572 173.161952 
L 385.791285 188.679742 
L 391.232423 193.008493 
L 393.046135 184.718264 
L 394.859848 188.630032 
L 396.67356 200.679526 
L 398.487273 204.615978 
" style="fill:none;stroke:#ff8040;stroke-linecap:square;stroke-opacity:0.9;stroke-width:2;"/>
   </g>
   <g id="line2d_17">
    <path clip-path="url(#p13f901e24b)" d="M 73.832727 172.85519 
L 75.64644 170.968342 
L 77.460152 170.398981 
L 79.273865 174.608706 
L 81.087577 167.775973 
L 86.528715 167.656711 
L 88.342428 168.026886 
L 90.15614 168.531667 
L 91.969853 170.012914 
L 93.783565 169.440258 
L 101.038415 169.301953 
L 102.852128 172.466346 
L 104.665841 173.578981 
L 106.479553 185.663889 
L 111.920691 181.33122 
L 113.734403 189.537285 
L 115.548116 187.713052 
L 117.361828 189.827946 
L 119.175541 198.412083 
L 124.616679 209.657816 
L 126.430391 209.751792 
L 128.244104 202.452471 
L 130.057816 194.404877 
L 131.871529 188.326437 
L 137.312666 184.866623 
L 139.126379 199.686909 
L 140.940091 197.977961 
L 142.753804 204.038162 
L 144.567517 194.315871 
L 150.008654 202.484431 
L 151.822367 193.407355 
L 153.636079 191.969771 
L 155.449792 191.577772 
L 157.263504 188.490536 
L 162.704642 193.049947 
L 164.518354 197.695359 
L 166.332067 199.376585 
L 168.14578 184.977639 
L 169.959492 180.110799 
L 175.40063 178.654314 
L 177.214342 171.616358 
L 179.028055 168.09485 
L 180.841767 184.146334 
L 182.65548 186.052627 
L 188.096618 187.596093 
L 189.91033 191.432671 
L 191.724043 191.339626 
L 193.537755 182.955374 
L 195.351468 185.662851 
L 200.792605 186.186101 
L 202.606318 181.541296 
L 204.42003 173.986914 
L 206.233743 176.178554 
L 208.047456 174.398613 
L 213.488593 173.135246 
L 215.302306 179.816321 
L 217.116018 186.529594 
L 218.929731 186.69322 
L 220.743443 183.703229 
L 226.184581 183.897559 
L 227.998294 185.071887 
L 229.812006 187.166086 
L 231.625719 187.401033 
L 233.439431 188.747509 
L 238.880569 187.107342 
L 240.694281 178.487833 
L 242.507994 177.686042 
L 246.135419 196.007545 
L 251.576557 188.105867 
L 253.390269 205.529058 
L 255.203982 211.778978 
L 257.017694 203.441278 
L 258.831407 204.378893 
L 264.272544 193.489672 
L 266.086257 182.945487 
L 267.89997 179.557141 
L 269.713682 179.651389 
L 271.527395 177.579807 
L 276.968532 182.606068 
L 278.782245 183.506778 
L 280.595957 180.008441 
L 282.40967 184.380622 
L 284.223382 194.954993 
L 289.66452 203.062025 
L 291.478233 188.533822 
L 293.291945 183.606787 
L 295.105658 179.479071 
L 302.360508 172.177715 
L 304.17422 173.197549 
L 305.987933 172.229373 
L 307.801646 172.67428 
L 309.615358 174.62491 
L 315.056496 169.509455 
L 316.870208 161.412659 
L 318.683921 173.394228 
L 320.497633 172.534517 
L 322.311346 171.248154 
L 327.752483 169.319003 
L 329.566196 161.565875 
L 331.379909 162.360603 
L 333.193621 167.548232 
L 335.007334 166.221736 
L 342.262184 181.414253 
L 344.075896 186.823206 
L 345.889609 193.696145 
L 347.703321 208.070236 
L 353.144459 208.404059 
L 354.958172 206.065417 
L 356.771884 206.707722 
L 358.585597 211.639016 
L 360.399309 197.835502 
L 365.840447 186.452268 
L 367.654159 179.247176 
L 369.467872 169.754851 
L 371.281585 221.88684 
L 373.095297 218.377827 
L 378.536435 230.243614 
L 380.350147 231.520141 
L 382.16386 225.495966 
L 383.977572 238.179466 
L 385.791285 252.34052 
L 391.232423 256.450718 
L 393.046135 250.902674 
L 394.859848 252.60844 
L 396.67356 261.699775 
L 398.487273 265.797818 
" style="fill:none;stroke:#0d0d0d;stroke-linecap:square;stroke-opacity:0.25;stroke-width:2;"/>
   </g>
   <g id="line2d_18">
    <path clip-path="url(#p13f901e24b)" d="M 73.832727 171.505158 
L 75.64644 165.159688 
L 77.460152 160.4245 
L 79.273865 165.349592 
L 81.087577 155.395211 
L 86.528715 147.796464 
L 88.342428 144.552458 
L 90.15614 143.189225 
L 91.969853 143.987262 
L 93.783565 143.705607 
L 101.038415 141.787359 
L 102.852128 145.301157 
L 104.665841 147.81246 
L 106.479553 152.519244 
L 111.920691 147.818235 
L 113.734403 154.104795 
L 115.548116 150.936542 
L 117.361828 153.902691 
L 119.175541 160.132237 
L 124.616679 172.769873 
L 126.430391 172.136573 
L 128.244104 167.142352 
L 130.057816 157.580077 
L 131.871529 154.664507 
L 137.312666 149.481668 
L 139.126379 156.865957 
L 140.940091 154.580895 
L 142.753804 162.107149 
L 144.567517 152.973135 
L 150.008654 158.824076 
L 151.822367 147.310357 
L 153.636079 144.932445 
L 155.449792 144.677145 
L 157.263504 142.107677 
L 162.704642 146.391437 
L 164.518354 151.805229 
L 166.332067 153.836316 
L 168.14578 137.097869 
L 169.959492 133.651056 
L 175.40063 130.735412 
L 177.214342 124.038881 
L 179.028055 121.876565 
L 180.841767 130.319701 
L 182.65548 127.912704 
L 188.096618 129.094284 
L 189.91033 128.440441 
L 191.724043 128.711217 
L 193.537755 118.466623 
L 195.351468 118.010473 
L 200.792605 119.111492 
L 202.606318 114.512681 
L 204.42003 107.693705 
L 206.233743 112.33921 
L 208.047456 114.231597 
L 213.488593 113.605666 
L 215.302306 120.819684 
L 217.116018 125.014206 
L 218.929731 125.089783 
L 220.743443 119.108958 
L 226.184581 116.528826 
L 227.998294 117.58845 
L 229.812006 119.754788 
L 231.625719 120.457718 
L 233.439431 122.053498 
L 238.880569 118.424253 
L 240.694281 110.288041 
L 242.507994 108.414807 
L 246.135419 125.840567 
L 251.576557 117.120899 
L 253.390269 129.337902 
L 255.203982 139.573748 
L 257.017694 124.06766 
L 258.831407 130.046289 
L 264.272544 119.376073 
L 266.086257 107.681022 
L 267.89997 101.664742 
L 269.713682 102.044605 
L 271.527395 97.03329 
L 276.968532 106.595066 
L 278.782245 104.244215 
L 280.595957 97.654944 
L 282.40967 94.607953 
L 284.223382 100.602725 
L 289.66452 109.183192 
L 291.478233 92.821106 
L 293.291945 89.215841 
L 295.105658 82.2401 
L 302.360508 72.287604 
L 304.17422 72.962034 
L 305.987933 71.109757 
L 307.801646 72.931431 
L 309.615358 75.181556 
L 315.056496 65.573468 
L 316.870208 52.154182 
L 318.683921 69.934043 
L 320.497633 64.08687 
L 322.311346 61.745094 
L 327.752483 62.662784 
L 329.566196 56.989198 
L 331.379909 54.879395 
L 333.193621 62.999195 
L 335.007334 63.89498 
L 342.262184 81.426911 
L 344.075896 86.071029 
L 345.889609 92.696347 
L 347.703321 109.518039 
L 353.144459 110.811198 
L 354.958172 107.349758 
L 356.771884 111.436989 
L 358.585597 117.724055 
L 360.399309 99.835238 
L 365.840447 91.368051 
L 367.654159 79.418841 
L 369.467872 65.837671 
L 371.281585 94.365018 
L 373.095297 88.307063 
L 378.536435 95.669091 
L 380.350147 91.309271 
L 382.16386 72.992384 
L 383.977572 90.459429 
L 385.791285 109.32494 
L 391.232423 115.410516 
L 393.046135 107.78176 
L 394.859848 110.254297 
L 396.67356 125.989789 
L 398.487273 128.542827 
" style="fill:none;stroke:#0d0d0d;stroke-linecap:square;stroke-opacity:0.25;stroke-width:2;"/>
   </g>
   <g id="patch_3">
    <path d="M 57.6 276.48 
L 57.6 41.472 
" style="fill:none;stroke:#000000;stroke-linecap:square;stroke-linejoin:miter;stroke-width:0.8;"/>
   </g>
   <g id="patch_4">
    <path d="M 414.72 276.48 
L 414.72 41.472 
" style="fill:none;stroke:#000000;stroke-linecap:square;stroke-linejoin:miter;stroke-width:0.8;"/>
   </g>
   <g id="patch_5">
    <path d="M 57.6 276.48 
L 414.72 276.48 
" style="fill:none;stroke:#000000;stroke-linecap:square;stroke-linejoin:miter;stroke-width:0.8;"/>
   </g>
   <g id="patch_6">
    <path d="M 57.6 41.472 
L 414.72 41.472 
" style="fill:none;stroke:#000000;stroke-linecap:square;stroke-linejoin:miter;stroke-width:0.8;"/>
   </g>
   <g id="text_15">
    <!-- TESTFUNDS1330 -->
    <g transform="translate(185.200312 22.034625)scale(0.12 -0.12)">
     <defs>
      <path d="M -19 4666 
L 3928 4666 
L 3928 4134 
L 2272 4134 
L 2272 0 
L 1638 0 
L 1638 4134 
L -19 4134 
L -19 4666 
z
" id="DejaVuSans-54" transform="scale(0.015625)"/>
      <path d="M 628 4666 
L 3578 4666 
L 3578 4134 
L 1259 4134 
L 1259 2753 
L 3481 2753 
L 3481 2222 
L 1259 2222 
L 1259 531 
L 3634 531 
L 3634 0 
L 628 0 
L 628 4666 
z
" id="DejaVuSans-45" transform="scale(0.015625)"/>
      <path d="M 3425 4513 
L 3425 3897 
Q 3066 4069 2747 4153 
Q 2428 4238 2131 4238 
Q 1616 4238 1336 4038 
Q 1056 3838 1056 3469 
Q 1056 3159 1242 3001 
Q 1428 2844 1947 2747 
L 2328 2669 
Q 3034 2534 3370 2195 
Q 3706 1856 3706 1288 
Q 3706 609 3251 259 
Q 2797 -91 1919 -91 
Q 1588 -91 1214 -16 
Q 841 59 441 206 
L 441 856 
Q 825 641 1194 531 
Q 1563 422 1919 422 
Q 2459 422 2753 634 
Q 3047 847 3047 1241 
Q 3047 1584 2836 1778 
Q 2625 1972 2144 2069 
L 1759 2144 
Q 1053 2284 737 2584 
Q 422 2884 422 3419 
Q 422 4038 858 4394 
Q 1294 4750 2059 4750 
Q 2388 4750 2728 4690 
Q 3069 4631 3425 4513 
z
" id="DejaVuSans-53" transform="scale(0.015625)"/>
      <path d="M 628 4666 
L 3309 4666 
L 3309 4134 
L 1259 4134 
L 1259 2759 
L 3109 2759 
L 3109 2228 
L 1259 2228 
L 1259 0 
L 628 0 
L 628 4666 
z
" id="DejaVuSans-46" transform="scale(0.015625)"/>
      <path d="M 556 4666 
L 1191 4666 
L 1191 1831 
Q 1191 1081 1462 751 
Q 1734 422 2344 422 
Q 2950 422 3222 751 
Q 3494 1081 3494 1831 
L 3494 4666 
L 4128 4666 
L 4128 1753 
Q 4128 841 3676 375 
Q 3225 -91 2344 -91 
Q 1459 -91 1007 375 
Q 556 841 556 1753 
L 556 4666 
z
" id="DejaVuSans-55" transform="scale(0.015625)"/>
      <path d="M 628 4666 
L 1478 4666 
L 3547 763 
L 3547 4666 
L 4159 4666 
L 4159 0 
L 3309 0 
L 1241 3903 
L 1241 0 
L 628 0 
L 628 4666 
z
" id="DejaVuSans-4e" transform="scale(0.015625)"/>
      <path d="M 1259 4147 
L 1259 519 
L 2022 519 
Q 2988 519 3436 956 
Q 3884 1394 3884 2338 
Q 3884 3275 3436 3711 
Q 2988 4147 2022 4147 
L 1259 4147 
z
M 628 4666 
L 1925 4666 
Q 3281 4666 3915 4102 
Q 4550 3538 4550 2338 
Q 4550 1131 3912 565 
Q 3275 0 1925 0 
L 628 0 
L 628 4666 
z
" id="DejaVuSans-44" transform="scale(0.015625)"/>
      <path d="M 2597 2516 
Q 3050 2419 3304 2112 
Q 3559 1806 3559 1356 
Q 3559 666 3084 287 
Q 2609 -91 1734 -91 
Q 1441 -91 1130 -33 
Q 819 25 488 141 
L 488 750 
Q 750 597 1062 519 
Q 1375 441 1716 441 
Q 2309 441 2620 675 
Q 2931 909 2931 1356 
Q 2931 1769 2642 2001 
Q 2353 2234 1838 2234 
L 1294 2234 
L 1294 2753 
L 1863 2753 
Q 2328 2753 2575 2939 
Q 2822 3125 2822 3475 
Q 2822 3834 2567 4026 
Q 2313 4219 1838 4219 
Q 1578 4219 1281 4162 
Q 984 4106 628 3988 
L 628 4550 
Q 988 4650 1302 4700 
Q 1616 4750 1894 4750 
Q 2613 4750 3031 4423 
Q 3450 4097 3450 3541 
Q 3450 3153 3228 2886 
Q 3006 2619 2597 2516 
z
" id="DejaVuSans-33" transform="scale(0.015625)"/>
     </defs>
     <use xlink:href="#DejaVuSans-54"/>
     <use x="61.083984" xlink:href="#DejaVuSans-45"/>
     <use x="124.267578" xlink:href="#DejaVuSans-53"/>
     <use x="187.744141" xlink:href="#DejaVuSans-54"/>
     <use x="248.828125" xlink:href="#DejaVuSans-46"/>
     <use x="306.347656" xlink:href="#DejaVuSans-55"/>
     <use x="379.541016" xlink:href="#DejaVuSans-4e"/>
     <use x="454.345703" xlink:href="#DejaVuSans-44"/>
     <use x="531.347656" xlink:href="#DejaVuSans-53"/>
     <use x="594.824219" xlink:href="#DejaVuSans-31"/>
     <use x="658.447266" xlink:href="#DejaVuSans-33"/>
     <use x="722.070312" xlink:href="#DejaVuSans-33"/>
     <use x="785.693359" xlink:href="#DejaVuSans-30"/>
    </g>
    <!-- daily_report -->
    <g transform="translate(200.466563 35.472)scale(0.12 -0.12)">
     <defs>
      <path d="M 603 3500 
L 1178 3500 
L 1178 0 
L 603 0 
L 603 3500 
z
M 603 4863 
L 1178 4863 
L 1178 4134 
L 603 4134 
L 603 4863 
z
" id="DejaVuSans-69" transform="scale(0.015625)"/>
      <path d="M 603 4863 
L 1178 4863 
L 1178 0 
L 603 0 
L 603 4863 
z
" id="DejaVuSans-6c" transform="scale(0.015625)"/>
      <path d="M 2059 -325 
Q 1816 -950 1584 -1140 
Q 1353 -1331 966 -1331 
L 506 -1331 
L 506 -850 
L 844 -850 
Q 1081 -850 1212 -737 
Q 1344 -625 1503 -206 
L 1606 56 
L 191 3500 
L 800 3500 
L 1894 763 
L 2988 3500 
L 3597 3500 
L 2059 -325 
z
" id="DejaVuSans-79" transform="scale(0.015625)"/>
      <path d="M 3263 -1063 
L 3263 -1509 
L -63 -1509 
L -63 -1063 
L 3263 -1063 
z
" id="DejaVuSans-5f" transform="scale(0.015625)"/>
      <path d="M 2631 2963 
Q 2534 3019 2420 3045 
Q 2306 3072 2169 3072 
Q 1681 3072 1420 2755 
Q 1159 2438 1159 1844 
L 1159 0 
L 581 0 
L 581 3500 
L 1159 3500 
L 1159 2956 
Q 1341 3275 1631 3429 
Q 1922 3584 2338 3584 
Q 2397 3584 2469 3576 
Q 2541 3569 2628 3553 
L 2631 2963 
z
" id="DejaVuSans-72" transform="scale(0.015625)"/>
      <path d="M 1159 525 
L 1159 -1331 
L 581 -1331 
L 581 3500 
L 1159 3500 
L 1159 2969 
Q 1341 3281 1617 3432 
Q 1894 3584 2278 3584 
Q 2916 3584 3314 3078 
Q 3713 2572 3713 1747 
Q 3713 922 3314 415 
Q 2916 -91 2278 -91 
Q 1894 -91 1617 61 
Q 1341 213 1159 525 
z
M 3116 1747 
Q 3116 2381 2855 2742 
Q 2594 3103 2138 3103 
Q 1681 3103 1420 2742 
Q 1159 2381 1159 1747 
Q 1159 1113 1420 752 
Q 1681 391 2138 391 
Q 2594 391 2855 752 
Q 3116 1113 3116 1747 
z
" id="DejaVuSans-70" transform="scale(0.015625)"/>
      <path d="M 1959 3097 
Q 1497 3097 1228 2736 
Q 959 2375 959 1747 
Q 959 1119 1226 758 
Q 1494 397 1959 397 
Q 2419 397 2687 759 
Q 2956 1122 2956 1747 
Q 2956 2369 2687 2733 
Q 2419 3097 1959 3097 
z
M 1959 3584 
Q 2709 3584 3137 3096 
Q 3566 2609 3566 1747 
Q 3566 888 3137 398 
Q 2709 -91 1959 -91 
Q 1206 -91 779 398 
Q 353 888 353 1747 
Q 353 2609 779 3096 
Q 1206 3584 1959 3584 
z
" id="DejaVuSans-6f" transform="scale(0.015625)"/>
     </defs>
     <use xlink:href="#DejaVuSans-64"/>
     <use x="63.476562" xlink:href="#DejaVuSans-61"/>
     <use x="124.755859" xlink:href="#DejaVuSans-69"/>
     <use x="152.539062" xlink:href="#DejaVuSans-6c"/>
     <use x="180.322266" xlink:href="#DejaVuSans-79"/>
     <use x="239.501953" xlink:href="#DejaVuSans-5f"/>
     <use x="289.501953" xlink:href="#DejaVuSans-72"/>
     <use x="328.365234" xlink:href="#DejaVuSans-65"/>
     <use x="389.888672" xlink:href="#DejaVuSans-70"/>
     <use x="453.365234" xlink:href="#DejaVuSans-6f"/>
     <use x="514.546875" xlink:href="#DejaVuSans-72"/>
     <use x="555.660156" xlink:href="#DejaVuSans-74"/>
    </g>
   </g>
   <g id="legend_1">
    <g id="patch_7">
     <path d="M 64.6 122.862625 
L 155.792188 122.862625 
Q 157.792188 122.862625 157.792188 120.862625 
L 157.792188 48.472 
Q 157.792188 46.472 155.792188 46.472 
L 64.6 46.472 
Q 62.6 46.472 62.6 48.472 
L 62.6 120.862625 
Q 62.6 122.862625 64.6 122.862625 
z
" style="fill:#ffffff;opacity:0.8;stroke:#cccccc;stroke-linejoin:miter;"/>
    </g>
    <g id="line2d_19">
     <path d="M 66.6 54.570437 
L 86.6 54.570437 
" style="fill:none;stroke:#0000ff;stroke-linecap:square;stroke-opacity:0.9;stroke-width:2;"/>
    </g>
    <g id="line2d_20"/>
    <g id="text_16">
     <!-- alpaca -->
     <g transform="translate(94.6 58.070437)scale(0.1 -0.1)">
      <defs>
       <path d="M 3122 3366 
L 3122 2828 
Q 2878 2963 2633 3030 
Q 2388 3097 2138 3097 
Q 1578 3097 1268 2742 
Q 959 2388 959 1747 
Q 959 1106 1268 751 
Q 1578 397 2138 397 
Q 2388 397 2633 464 
Q 2878 531 3122 666 
L 3122 134 
Q 2881 22 2623 -34 
Q 2366 -91 2075 -91 
Q 1284 -91 818 406 
Q 353 903 353 1747 
Q 353 2603 823 3093 
Q 1294 3584 2113 3584 
Q 2378 3584 2631 3529 
Q 2884 3475 3122 3366 
z
" id="DejaVuSans-63" transform="scale(0.015625)"/>
      </defs>
      <use xlink:href="#DejaVuSans-61"/>
      <use x="61.279297" xlink:href="#DejaVuSans-6c"/>
      <use x="89.0625" xlink:href="#DejaVuSans-70"/>
      <use x="152.539062" xlink:href="#DejaVuSans-61"/>
      <use x="213.818359" xlink:href="#DejaVuSans-63"/>
      <use x="268.798828" xlink:href="#DejaVuSans-61"/>
     </g>
    </g>
    <g id="line2d_21">
     <path d="M 66.6 69.248562 
L 86.6 69.248562 
" style="fill:none;stroke:#ff0000;stroke-linecap:square;stroke-opacity:0.9;stroke-width:2;"/>
    </g>
    <g id="line2d_22"/>
    <g id="text_17">
     <!-- mattress -->
     <g transform="translate(94.6 72.748562)scale(0.1 -0.1)">
      <defs>
       <path d="M 3328 2828 
Q 3544 3216 3844 3400 
Q 4144 3584 4550 3584 
Q 5097 3584 5394 3201 
Q 5691 2819 5691 2113 
L 5691 0 
L 5113 0 
L 5113 2094 
Q 5113 2597 4934 2840 
Q 4756 3084 4391 3084 
Q 3944 3084 3684 2787 
Q 3425 2491 3425 1978 
L 3425 0 
L 2847 0 
L 2847 2094 
Q 2847 2600 2669 2842 
Q 2491 3084 2119 3084 
Q 1678 3084 1418 2786 
Q 1159 2488 1159 1978 
L 1159 0 
L 581 0 
L 581 3500 
L 1159 3500 
L 1159 2956 
Q 1356 3278 1631 3431 
Q 1906 3584 2284 3584 
Q 2666 3584 2933 3390 
Q 3200 3197 3328 2828 
z
" id="DejaVuSans-6d" transform="scale(0.015625)"/>
       <path d="M 2834 3397 
L 2834 2853 
Q 2591 2978 2328 3040 
Q 2066 3103 1784 3103 
Q 1356 3103 1142 2972 
Q 928 2841 928 2578 
Q 928 2378 1081 2264 
Q 1234 2150 1697 2047 
L 1894 2003 
Q 2506 1872 2764 1633 
Q 3022 1394 3022 966 
Q 3022 478 2636 193 
Q 2250 -91 1575 -91 
Q 1294 -91 989 -36 
Q 684 19 347 128 
L 347 722 
Q 666 556 975 473 
Q 1284 391 1588 391 
Q 1994 391 2212 530 
Q 2431 669 2431 922 
Q 2431 1156 2273 1281 
Q 2116 1406 1581 1522 
L 1381 1569 
Q 847 1681 609 1914 
Q 372 2147 372 2553 
Q 372 3047 722 3315 
Q 1072 3584 1716 3584 
Q 2034 3584 2315 3537 
Q 2597 3491 2834 3397 
z
" id="DejaVuSans-73" transform="scale(0.015625)"/>
      </defs>
      <use xlink:href="#DejaVuSans-6d"/>
      <use x="97.412109" xlink:href="#DejaVuSans-61"/>
      <use x="158.691406" xlink:href="#DejaVuSans-74"/>
      <use x="197.900391" xlink:href="#DejaVuSans-74"/>
      <use x="237.109375" xlink:href="#DejaVuSans-72"/>
      <use x="275.972656" xlink:href="#DejaVuSans-65"/>
      <use x="337.496094" xlink:href="#DejaVuSans-73"/>
      <use x="389.595703" xlink:href="#DejaVuSans-73"/>
     </g>
    </g>
    <g id="line2d_23">
     <path d="M 66.6 83.926687 
L 86.6 83.926687 
" style="fill:none;stroke:#ff8040;stroke-linecap:square;stroke-opacity:0.9;stroke-width:2;"/>
    </g>
    <g id="line2d_24"/>
    <g id="text_18">
     <!-- trader-0850 -->
     <g transform="translate(94.6 87.426687)scale(0.1 -0.1)">
      <use xlink:href="#DejaVuSans-74"/>
      <use x="39.208984" xlink:href="#DejaVuSans-72"/>
      <use x="80.322266" xlink:href="#DejaVuSans-61"/>
      <use x="141.601562" xlink:href="#DejaVuSans-64"/>
      <use x="205.078125" xlink:href="#DejaVuSans-65"/>
      <use x="266.601562" xlink:href="#DejaVuSans-72"/>
      <use x="301.339844" xlink:href="#DejaVuSans-2d"/>
      <use x="337.423828" xlink:href="#DejaVuSans-30"/>
      <use x="401.046875" xlink:href="#DejaVuSans-38"/>
      <use x="464.669922" xlink:href="#DejaVuSans-35"/>
      <use x="528.292969" xlink:href="#DejaVuSans-30"/>
     </g>
    </g>
    <g id="line2d_25">
     <path d="M 66.6 98.604812 
L 86.6 98.604812 
" style="fill:none;stroke:#0d0d0d;stroke-linecap:square;stroke-opacity:0.25;stroke-width:2;"/>
    </g>
    <g id="line2d_26"/>
    <g id="text_19">
     <!-- rando-min -->
     <g transform="translate(94.6 102.104812)scale(0.1 -0.1)">
      <defs>
       <path d="M 3513 2113 
L 3513 0 
L 2938 0 
L 2938 2094 
Q 2938 2591 2744 2837 
Q 2550 3084 2163 3084 
Q 1697 3084 1428 2787 
Q 1159 2491 1159 1978 
L 1159 0 
L 581 0 
L 581 3500 
L 1159 3500 
L 1159 2956 
Q 1366 3272 1645 3428 
Q 1925 3584 2291 3584 
Q 2894 3584 3203 3211 
Q 3513 2838 3513 2113 
z
" id="DejaVuSans-6e" transform="scale(0.015625)"/>
      </defs>
      <use xlink:href="#DejaVuSans-72"/>
      <use x="41.113281" xlink:href="#DejaVuSans-61"/>
      <use x="102.392578" xlink:href="#DejaVuSans-6e"/>
      <use x="165.771484" xlink:href="#DejaVuSans-64"/>
      <use x="229.248047" xlink:href="#DejaVuSans-6f"/>
      <use x="292.304688" xlink:href="#DejaVuSans-2d"/>
      <use x="328.388672" xlink:href="#DejaVuSans-6d"/>
      <use x="425.800781" xlink:href="#DejaVuSans-69"/>
      <use x="453.583984" xlink:href="#DejaVuSans-6e"/>
     </g>
    </g>
    <g id="line2d_27">
     <path d="M 66.6 113.282937 
L 86.6 113.282937 
" style="fill:none;stroke:#0d0d0d;stroke-linecap:square;stroke-opacity:0.25;stroke-width:2;"/>
    </g>
    <g id="line2d_28"/>
    <g id="text_20">
     <!-- rando-max -->
     <g transform="translate(94.6 116.782937)scale(0.1 -0.1)">
      <defs>
       <path d="M 3513 3500 
L 2247 1797 
L 3578 0 
L 2900 0 
L 1881 1375 
L 863 0 
L 184 0 
L 1544 1831 
L 300 3500 
L 978 3500 
L 1906 2253 
L 2834 3500 
L 3513 3500 
z
" id="DejaVuSans-78" transform="scale(0.015625)"/>
      </defs>
      <use xlink:href="#DejaVuSans-72"/>
      <use x="41.113281" xlink:href="#DejaVuSans-61"/>
      <use x="102.392578" xlink:href="#DejaVuSans-6e"/>
      <use x="165.771484" xlink:href="#DejaVuSans-64"/>
      <use x="229.248047" xlink:href="#DejaVuSans-6f"/>
      <use x="292.304688" xlink:href="#DejaVuSans-2d"/>
      <use x="328.388672" xlink:href="#DejaVuSans-6d"/>
      <use x="425.800781" xlink:href="#DejaVuSans-61"/>
      <use x="487.080078" xlink:href="#DejaVuSans-78"/>
     </g>
    </g>
   </g>
  </g>
 </g>
 <defs>
  <clipPath id="p13f901e24b">
   <rect height="235.008" width="357.12" x="57.6" y="41.472"/>
  </clipPath>
 </defs>
</svg>
