<?xml version="1.0" encoding="utf-8" standalone="no"?>
<!DOCTYPE svg PUBLIC "-//W3C//DTD SVG 1.1//EN"
  "http://www.w3.org/Graphics/SVG/1.1/DTD/svg11.dtd">
<svg height="345.6pt" version="1.1" viewBox="0 0 460.8 345.6" width="460.8pt" xmlns="http://www.w3.org/2000/svg" xmlns:xlink="http://www.w3.org/1999/xlink">
 <metadata>
  <rdf:RDF xmlns:cc="http://creativecommons.org/ns#" xmlns:dc="http://purl.org/dc/elements/1.1/" xmlns:rdf="http://www.w3.org/1999/02/22-rdf-syntax-ns#">
   <cc:Work>
    <dc:type rdf:resource="http://purl.org/dc/dcmitype/StillImage"/>
    <dc:date>2022-05-04T01:01:46.337872</dc:date>
    <dc:format>image/svg+xml</dc:format>
    <dc:creator>
     <cc:Agent>
      <dc:title>Matplotlib v3.4.3, https://matplotlib.org/</dc:title>
     </cc:Agent>
    </dc:creator>
   </cc:Work>
  </rdf:RDF>
 </metadata>
 <defs>
  <style type="text/css">*{stroke-linecap:butt;stroke-linejoin:round;}</style>
 </defs>
 <g id="figure_1">
  <g id="patch_1">
   <path d="M 0 345.6 
L 460.8 345.6 
L 460.8 0 
L 0 0 
z
" style="fill:#ffffff;"/>
  </g>
  <g id="axes_1">
   <g id="patch_2">
    <path d="M 57.6 276.48 
L 414.72 276.48 
L 414.72 41.472 
L 57.6 41.472 
z
" style="fill:#ffffff;"/>
   </g>
   <g id="matplotlib.axis_1">
    <g id="xtick_1">
     <g id="line2d_1">
      <defs>
       <path d="M 0 0 
L 0 3.5 
" id="m7f83bfa5eb" style="stroke:#000000;stroke-width:0.8;"/>
      </defs>
      <g>
       <use style="stroke:#000000;stroke-width:0.8;" x="85.381703" xlink:href="#m7f83bfa5eb" y="276.48"/>
      </g>
     </g>
     <g id="text_1">
      <!-- 2021-09 -->
      <g transform="translate(48.156882 310.951846)rotate(-30)scale(0.1 -0.1)">
       <defs>
        <path d="M 1228 531 
L 3431 531 
L 3431 0 
L 469 0 
L 469 531 
Q 828 903 1448 1529 
Q 2069 2156 2228 2338 
Q 2531 2678 2651 2914 
Q 2772 3150 2772 3378 
Q 2772 3750 2511 3984 
Q 2250 4219 1831 4219 
Q 1534 4219 1204 4116 
Q 875 4013 500 3803 
L 500 4441 
Q 881 4594 1212 4672 
Q 1544 4750 1819 4750 
Q 2544 4750 2975 4387 
Q 3406 4025 3406 3419 
Q 3406 3131 3298 2873 
Q 3191 2616 2906 2266 
Q 2828 2175 2409 1742 
Q 1991 1309 1228 531 
z
" id="DejaVuSans-32" transform="scale(0.015625)"/>
        <path d="M 2034 4250 
Q 1547 4250 1301 3770 
Q 1056 3291 1056 2328 
Q 1056 1369 1301 889 
Q 1547 409 2034 409 
Q 2525 409 2770 889 
Q 3016 1369 3016 2328 
Q 3016 3291 2770 3770 
Q 2525 4250 2034 4250 
z
M 2034 4750 
Q 2819 4750 3233 4129 
Q 3647 3509 3647 2328 
Q 3647 1150 3233 529 
Q 2819 -91 2034 -91 
Q 1250 -91 836 529 
Q 422 1150 422 2328 
Q 422 3509 836 4129 
Q 1250 4750 2034 4750 
z
" id="DejaVuSans-30" transform="scale(0.015625)"/>
        <path d="M 794 531 
L 1825 531 
L 1825 4091 
L 703 3866 
L 703 4441 
L 1819 4666 
L 2450 4666 
L 2450 531 
L 3481 531 
L 3481 0 
L 794 0 
L 794 531 
z
" id="DejaVuSans-31" transform="scale(0.015625)"/>
        <path d="M 313 2009 
L 1997 2009 
L 1997 1497 
L 313 1497 
L 313 2009 
z
" id="DejaVuSans-2d" transform="scale(0.015625)"/>
        <path d="M 703 97 
L 703 672 
Q 941 559 1184 500 
Q 1428 441 1663 441 
Q 2288 441 2617 861 
Q 2947 1281 2994 2138 
Q 2813 1869 2534 1725 
Q 2256 1581 1919 1581 
Q 1219 1581 811 2004 
Q 403 2428 403 3163 
Q 403 3881 828 4315 
Q 1253 4750 1959 4750 
Q 2769 4750 3195 4129 
Q 3622 3509 3622 2328 
Q 3622 1225 3098 567 
Q 2575 -91 1691 -91 
Q 1453 -91 1209 -44 
Q 966 3 703 97 
z
M 1959 2075 
Q 2384 2075 2632 2365 
Q 2881 2656 2881 3163 
Q 2881 3666 2632 3958 
Q 2384 4250 1959 4250 
Q 1534 4250 1286 3958 
Q 1038 3666 1038 3163 
Q 1038 2656 1286 2365 
Q 1534 2075 1959 2075 
z
" id="DejaVuSans-39" transform="scale(0.015625)"/>
       </defs>
       <use xlink:href="#DejaVuSans-32"/>
       <use x="63.623047" xlink:href="#DejaVuSans-30"/>
       <use x="127.246094" xlink:href="#DejaVuSans-32"/>
       <use x="190.869141" xlink:href="#DejaVuSans-31"/>
       <use x="254.492188" xlink:href="#DejaVuSans-2d"/>
       <use x="290.576172" xlink:href="#DejaVuSans-30"/>
       <use x="354.199219" xlink:href="#DejaVuSans-39"/>
      </g>
     </g>
    </g>
    <g id="xtick_2">
     <g id="line2d_2">
      <g>
       <use style="stroke:#000000;stroke-width:0.8;" x="123.87829" xlink:href="#m7f83bfa5eb" y="276.48"/>
      </g>
     </g>
     <g id="text_2">
      <!-- 2021-10 -->
      <g transform="translate(86.653469 310.951846)rotate(-30)scale(0.1 -0.1)">
       <use xlink:href="#DejaVuSans-32"/>
       <use x="63.623047" xlink:href="#DejaVuSans-30"/>
       <use x="127.246094" xlink:href="#DejaVuSans-32"/>
       <use x="190.869141" xlink:href="#DejaVuSans-31"/>
       <use x="254.492188" xlink:href="#DejaVuSans-2d"/>
       <use x="290.576172" xlink:href="#DejaVuSans-31"/>
       <use x="354.199219" xlink:href="#DejaVuSans-30"/>
      </g>
     </g>
    </g>
    <g id="xtick_3">
     <g id="line2d_3">
      <g>
       <use style="stroke:#000000;stroke-width:0.8;" x="163.658096" xlink:href="#m7f83bfa5eb" y="276.48"/>
      </g>
     </g>
     <g id="text_3">
      <!-- 2021-11 -->
      <g transform="translate(126.433275 310.951846)rotate(-30)scale(0.1 -0.1)">
       <use xlink:href="#DejaVuSans-32"/>
       <use x="63.623047" xlink:href="#DejaVuSans-30"/>
       <use x="127.246094" xlink:href="#DejaVuSans-32"/>
       <use x="190.869141" xlink:href="#DejaVuSans-31"/>
       <use x="254.492188" xlink:href="#DejaVuSans-2d"/>
       <use x="290.576172" xlink:href="#DejaVuSans-31"/>
       <use x="354.199219" xlink:href="#DejaVuSans-31"/>
      </g>
     </g>
    </g>
    <g id="xtick_4">
     <g id="line2d_4">
      <g>
       <use style="stroke:#000000;stroke-width:0.8;" x="202.154682" xlink:href="#m7f83bfa5eb" y="276.48"/>
      </g>
     </g>
     <g id="text_4">
      <!-- 2021-12 -->
      <g transform="translate(164.929861 310.951846)rotate(-30)scale(0.1 -0.1)">
       <use xlink:href="#DejaVuSans-32"/>
       <use x="63.623047" xlink:href="#DejaVuSans-30"/>
       <use x="127.246094" xlink:href="#DejaVuSans-32"/>
       <use x="190.869141" xlink:href="#DejaVuSans-31"/>
       <use x="254.492188" xlink:href="#DejaVuSans-2d"/>
       <use x="290.576172" xlink:href="#DejaVuSans-31"/>
       <use x="354.199219" xlink:href="#DejaVuSans-32"/>
      </g>
     </g>
    </g>
    <g id="xtick_5">
     <g id="line2d_5">
      <g>
       <use style="stroke:#000000;stroke-width:0.8;" x="241.934488" xlink:href="#m7f83bfa5eb" y="276.48"/>
      </g>
     </g>
     <g id="text_5">
      <!-- 2022-01 -->
      <g transform="translate(204.709667 310.951846)rotate(-30)scale(0.1 -0.1)">
       <use xlink:href="#DejaVuSans-32"/>
       <use x="63.623047" xlink:href="#DejaVuSans-30"/>
       <use x="127.246094" xlink:href="#DejaVuSans-32"/>
       <use x="190.869141" xlink:href="#DejaVuSans-32"/>
       <use x="254.492188" xlink:href="#DejaVuSans-2d"/>
       <use x="290.576172" xlink:href="#DejaVuSans-30"/>
       <use x="354.199219" xlink:href="#DejaVuSans-31"/>
      </g>
     </g>
    </g>
    <g id="xtick_6">
     <g id="line2d_6">
      <g>
       <use style="stroke:#000000;stroke-width:0.8;" x="281.714294" xlink:href="#m7f83bfa5eb" y="276.48"/>
      </g>
     </g>
     <g id="text_6">
      <!-- 2022-02 -->
      <g transform="translate(244.489473 310.951846)rotate(-30)scale(0.1 -0.1)">
       <use xlink:href="#DejaVuSans-32"/>
       <use x="63.623047" xlink:href="#DejaVuSans-30"/>
       <use x="127.246094" xlink:href="#DejaVuSans-32"/>
       <use x="190.869141" xlink:href="#DejaVuSans-32"/>
       <use x="254.492188" xlink:href="#DejaVuSans-2d"/>
       <use x="290.576172" xlink:href="#DejaVuSans-30"/>
       <use x="354.199219" xlink:href="#DejaVuSans-32"/>
      </g>
     </g>
    </g>
    <g id="xtick_7">
     <g id="line2d_7">
      <g>
       <use style="stroke:#000000;stroke-width:0.8;" x="317.644441" xlink:href="#m7f83bfa5eb" y="276.48"/>
      </g>
     </g>
     <g id="text_7">
      <!-- 2022-03 -->
      <g transform="translate(280.41962 310.951846)rotate(-30)scale(0.1 -0.1)">
       <defs>
        <path d="M 2597 2516 
Q 3050 2419 3304 2112 
Q 3559 1806 3559 1356 
Q 3559 666 3084 287 
Q 2609 -91 1734 -91 
Q 1441 -91 1130 -33 
Q 819 25 488 141 
L 488 750 
Q 750 597 1062 519 
Q 1375 441 1716 441 
Q 2309 441 2620 675 
Q 2931 909 2931 1356 
Q 2931 1769 2642 2001 
Q 2353 2234 1838 2234 
L 1294 2234 
L 1294 2753 
L 1863 2753 
Q 2328 2753 2575 2939 
Q 2822 3125 2822 3475 
Q 2822 3834 2567 4026 
Q 2313 4219 1838 4219 
Q 1578 4219 1281 4162 
Q 984 4106 628 3988 
L 628 4550 
Q 988 4650 1302 4700 
Q 1616 4750 1894 4750 
Q 2613 4750 3031 4423 
Q 3450 4097 3450 3541 
Q 3450 3153 3228 2886 
Q 3006 2619 2597 2516 
z
" id="DejaVuSans-33" transform="scale(0.015625)"/>
       </defs>
       <use xlink:href="#DejaVuSans-32"/>
       <use x="63.623047" xlink:href="#DejaVuSans-30"/>
       <use x="127.246094" xlink:href="#DejaVuSans-32"/>
       <use x="190.869141" xlink:href="#DejaVuSans-32"/>
       <use x="254.492188" xlink:href="#DejaVuSans-2d"/>
       <use x="290.576172" xlink:href="#DejaVuSans-30"/>
       <use x="354.199219" xlink:href="#DejaVuSans-33"/>
      </g>
     </g>
    </g>
    <g id="xtick_8">
     <g id="line2d_8">
      <g>
       <use style="stroke:#000000;stroke-width:0.8;" x="357.424247" xlink:href="#m7f83bfa5eb" y="276.48"/>
      </g>
     </g>
     <g id="text_8">
      <!-- 2022-04 -->
      <g transform="translate(320.199426 310.951846)rotate(-30)scale(0.1 -0.1)">
       <defs>
        <path d="M 2419 4116 
L 825 1625 
L 2419 1625 
L 2419 4116 
z
M 2253 4666 
L 3047 4666 
L 3047 1625 
L 3713 1625 
L 3713 1100 
L 3047 1100 
L 3047 0 
L 2419 0 
L 2419 1100 
L 313 1100 
L 313 1709 
L 2253 4666 
z
" id="DejaVuSans-34" transform="scale(0.015625)"/>
       </defs>
       <use xlink:href="#DejaVuSans-32"/>
       <use x="63.623047" xlink:href="#DejaVuSans-30"/>
       <use x="127.246094" xlink:href="#DejaVuSans-32"/>
       <use x="190.869141" xlink:href="#DejaVuSans-32"/>
       <use x="254.492188" xlink:href="#DejaVuSans-2d"/>
       <use x="290.576172" xlink:href="#DejaVuSans-30"/>
       <use x="354.199219" xlink:href="#DejaVuSans-34"/>
      </g>
     </g>
    </g>
    <g id="xtick_9">
     <g id="line2d_9">
      <g>
       <use style="stroke:#000000;stroke-width:0.8;" x="395.920834" xlink:href="#m7f83bfa5eb" y="276.48"/>
      </g>
     </g>
     <g id="text_9">
      <!-- 2022-05 -->
      <g transform="translate(358.696013 310.951846)rotate(-30)scale(0.1 -0.1)">
       <defs>
        <path d="M 691 4666 
L 3169 4666 
L 3169 4134 
L 1269 4134 
L 1269 2991 
Q 1406 3038 1543 3061 
Q 1681 3084 1819 3084 
Q 2600 3084 3056 2656 
Q 3513 2228 3513 1497 
Q 3513 744 3044 326 
Q 2575 -91 1722 -91 
Q 1428 -91 1123 -41 
Q 819 9 494 109 
L 494 744 
Q 775 591 1075 516 
Q 1375 441 1709 441 
Q 2250 441 2565 725 
Q 2881 1009 2881 1497 
Q 2881 1984 2565 2268 
Q 2250 2553 1709 2553 
Q 1456 2553 1204 2497 
Q 953 2441 691 2322 
L 691 4666 
z
" id="DejaVuSans-35" transform="scale(0.015625)"/>
       </defs>
       <use xlink:href="#DejaVuSans-32"/>
       <use x="63.623047" xlink:href="#DejaVuSans-30"/>
       <use x="127.246094" xlink:href="#DejaVuSans-32"/>
       <use x="190.869141" xlink:href="#DejaVuSans-32"/>
       <use x="254.492188" xlink:href="#DejaVuSans-2d"/>
       <use x="290.576172" xlink:href="#DejaVuSans-30"/>
       <use x="354.199219" xlink:href="#DejaVuSans-35"/>
      </g>
     </g>
    </g>
    <g id="text_10">
     <!-- date -->
     <g transform="translate(224.885 324.351346)scale(0.1 -0.1)">
      <defs>
       <path d="M 2906 2969 
L 2906 4863 
L 3481 4863 
L 3481 0 
L 2906 0 
L 2906 525 
Q 2725 213 2448 61 
Q 2172 -91 1784 -91 
Q 1150 -91 751 415 
Q 353 922 353 1747 
Q 353 2572 751 3078 
Q 1150 3584 1784 3584 
Q 2172 3584 2448 3432 
Q 2725 3281 2906 2969 
z
M 947 1747 
Q 947 1113 1208 752 
Q 1469 391 1925 391 
Q 2381 391 2643 752 
Q 2906 1113 2906 1747 
Q 2906 2381 2643 2742 
Q 2381 3103 1925 3103 
Q 1469 3103 1208 2742 
Q 947 2381 947 1747 
z
" id="DejaVuSans-64" transform="scale(0.015625)"/>
       <path d="M 2194 1759 
Q 1497 1759 1228 1600 
Q 959 1441 959 1056 
Q 959 750 1161 570 
Q 1363 391 1709 391 
Q 2188 391 2477 730 
Q 2766 1069 2766 1631 
L 2766 1759 
L 2194 1759 
z
M 3341 1997 
L 3341 0 
L 2766 0 
L 2766 531 
Q 2569 213 2275 61 
Q 1981 -91 1556 -91 
Q 1019 -91 701 211 
Q 384 513 384 1019 
Q 384 1609 779 1909 
Q 1175 2209 1959 2209 
L 2766 2209 
L 2766 2266 
Q 2766 2663 2505 2880 
Q 2244 3097 1772 3097 
Q 1472 3097 1187 3025 
Q 903 2953 641 2809 
L 641 3341 
Q 956 3463 1253 3523 
Q 1550 3584 1831 3584 
Q 2591 3584 2966 3190 
Q 3341 2797 3341 1997 
z
" id="DejaVuSans-61" transform="scale(0.015625)"/>
       <path d="M 1172 4494 
L 1172 3500 
L 2356 3500 
L 2356 3053 
L 1172 3053 
L 1172 1153 
Q 1172 725 1289 603 
Q 1406 481 1766 481 
L 2356 481 
L 2356 0 
L 1766 0 
Q 1100 0 847 248 
Q 594 497 594 1153 
L 594 3053 
L 172 3053 
L 172 3500 
L 594 3500 
L 594 4494 
L 1172 4494 
z
" id="DejaVuSans-74" transform="scale(0.015625)"/>
       <path d="M 3597 1894 
L 3597 1613 
L 953 1613 
Q 991 1019 1311 708 
Q 1631 397 2203 397 
Q 2534 397 2845 478 
Q 3156 559 3463 722 
L 3463 178 
Q 3153 47 2828 -22 
Q 2503 -91 2169 -91 
Q 1331 -91 842 396 
Q 353 884 353 1716 
Q 353 2575 817 3079 
Q 1281 3584 2069 3584 
Q 2775 3584 3186 3129 
Q 3597 2675 3597 1894 
z
M 3022 2063 
Q 3016 2534 2758 2815 
Q 2500 3097 2075 3097 
Q 1594 3097 1305 2825 
Q 1016 2553 972 2059 
L 3022 2063 
z
" id="DejaVuSans-65" transform="scale(0.015625)"/>
      </defs>
      <use xlink:href="#DejaVuSans-64"/>
      <use x="63.476562" xlink:href="#DejaVuSans-61"/>
      <use x="124.755859" xlink:href="#DejaVuSans-74"/>
      <use x="163.964844" xlink:href="#DejaVuSans-65"/>
     </g>
    </g>
   </g>
   <g id="matplotlib.axis_2">
    <g id="ytick_1">
     <g id="line2d_10">
      <defs>
       <path d="M 0 0 
L -3.5 0 
" id="m929c449057" style="stroke:#000000;stroke-width:0.8;"/>
      </defs>
      <g>
       <use style="stroke:#000000;stroke-width:0.8;" x="57.6" xlink:href="#m929c449057" y="263.15818"/>
      </g>
     </g>
     <g id="text_11">
      <!-- 80000 -->
      <g transform="translate(18.7875 266.957398)scale(0.1 -0.1)">
       <defs>
        <path d="M 2034 2216 
Q 1584 2216 1326 1975 
Q 1069 1734 1069 1313 
Q 1069 891 1326 650 
Q 1584 409 2034 409 
Q 2484 409 2743 651 
Q 3003 894 3003 1313 
Q 3003 1734 2745 1975 
Q 2488 2216 2034 2216 
z
M 1403 2484 
Q 997 2584 770 2862 
Q 544 3141 544 3541 
Q 544 4100 942 4425 
Q 1341 4750 2034 4750 
Q 2731 4750 3128 4425 
Q 3525 4100 3525 3541 
Q 3525 3141 3298 2862 
Q 3072 2584 2669 2484 
Q 3125 2378 3379 2068 
Q 3634 1759 3634 1313 
Q 3634 634 3220 271 
Q 2806 -91 2034 -91 
Q 1263 -91 848 271 
Q 434 634 434 1313 
Q 434 1759 690 2068 
Q 947 2378 1403 2484 
z
M 1172 3481 
Q 1172 3119 1398 2916 
Q 1625 2713 2034 2713 
Q 2441 2713 2670 2916 
Q 2900 3119 2900 3481 
Q 2900 3844 2670 4047 
Q 2441 4250 2034 4250 
Q 1625 4250 1398 4047 
Q 1172 3844 1172 3481 
z
" id="DejaVuSans-38" transform="scale(0.015625)"/>
       </defs>
       <use xlink:href="#DejaVuSans-38"/>
       <use x="63.623047" xlink:href="#DejaVuSans-30"/>
       <use x="127.246094" xlink:href="#DejaVuSans-30"/>
       <use x="190.869141" xlink:href="#DejaVuSans-30"/>
       <use x="254.492188" xlink:href="#DejaVuSans-30"/>
      </g>
     </g>
    </g>
    <g id="ytick_2">
     <g id="line2d_11">
      <g>
       <use style="stroke:#000000;stroke-width:0.8;" x="57.6" xlink:href="#m929c449057" y="232.656261"/>
      </g>
     </g>
     <g id="text_12">
      <!-- 85000 -->
      <g transform="translate(18.7875 236.45548)scale(0.1 -0.1)">
       <use xlink:href="#DejaVuSans-38"/>
       <use x="63.623047" xlink:href="#DejaVuSans-35"/>
       <use x="127.246094" xlink:href="#DejaVuSans-30"/>
       <use x="190.869141" xlink:href="#DejaVuSans-30"/>
       <use x="254.492188" xlink:href="#DejaVuSans-30"/>
      </g>
     </g>
    </g>
    <g id="ytick_3">
     <g id="line2d_12">
      <g>
       <use style="stroke:#000000;stroke-width:0.8;" x="57.6" xlink:href="#m929c449057" y="202.154342"/>
      </g>
     </g>
     <g id="text_13">
      <!-- 90000 -->
      <g transform="translate(18.7875 205.953561)scale(0.1 -0.1)">
       <use xlink:href="#DejaVuSans-39"/>
       <use x="63.623047" xlink:href="#DejaVuSans-30"/>
       <use x="127.246094" xlink:href="#DejaVuSans-30"/>
       <use x="190.869141" xlink:href="#DejaVuSans-30"/>
       <use x="254.492188" xlink:href="#DejaVuSans-30"/>
      </g>
     </g>
    </g>
    <g id="ytick_4">
     <g id="line2d_13">
      <g>
       <use style="stroke:#000000;stroke-width:0.8;" x="57.6" xlink:href="#m929c449057" y="171.652423"/>
      </g>
     </g>
     <g id="text_14">
      <!-- 95000 -->
      <g transform="translate(18.7875 175.451642)scale(0.1 -0.1)">
       <use xlink:href="#DejaVuSans-39"/>
       <use x="63.623047" xlink:href="#DejaVuSans-35"/>
       <use x="127.246094" xlink:href="#DejaVuSans-30"/>
       <use x="190.869141" xlink:href="#DejaVuSans-30"/>
       <use x="254.492188" xlink:href="#DejaVuSans-30"/>
      </g>
     </g>
    </g>
    <g id="ytick_5">
     <g id="line2d_14">
      <g>
       <use style="stroke:#000000;stroke-width:0.8;" x="57.6" xlink:href="#m929c449057" y="141.150504"/>
      </g>
     </g>
     <g id="text_15">
      <!-- 100000 -->
      <g transform="translate(12.425 144.949723)scale(0.1 -0.1)">
       <use xlink:href="#DejaVuSans-31"/>
       <use x="63.623047" xlink:href="#DejaVuSans-30"/>
       <use x="127.246094" xlink:href="#DejaVuSans-30"/>
       <use x="190.869141" xlink:href="#DejaVuSans-30"/>
       <use x="254.492188" xlink:href="#DejaVuSans-30"/>
       <use x="318.115234" xlink:href="#DejaVuSans-30"/>
      </g>
     </g>
    </g>
    <g id="ytick_6">
     <g id="line2d_15">
      <g>
       <use style="stroke:#000000;stroke-width:0.8;" x="57.6" xlink:href="#m929c449057" y="110.648586"/>
      </g>
     </g>
     <g id="text_16">
      <!-- 105000 -->
      <g transform="translate(12.425 114.447804)scale(0.1 -0.1)">
       <use xlink:href="#DejaVuSans-31"/>
       <use x="63.623047" xlink:href="#DejaVuSans-30"/>
       <use x="127.246094" xlink:href="#DejaVuSans-35"/>
       <use x="190.869141" xlink:href="#DejaVuSans-30"/>
       <use x="254.492188" xlink:href="#DejaVuSans-30"/>
       <use x="318.115234" xlink:href="#DejaVuSans-30"/>
      </g>
     </g>
    </g>
    <g id="ytick_7">
     <g id="line2d_16">
      <g>
       <use style="stroke:#000000;stroke-width:0.8;" x="57.6" xlink:href="#m929c449057" y="80.146667"/>
      </g>
     </g>
     <g id="text_17">
      <!-- 110000 -->
      <g transform="translate(12.425 83.945886)scale(0.1 -0.1)">
       <use xlink:href="#DejaVuSans-31"/>
       <use x="63.623047" xlink:href="#DejaVuSans-31"/>
       <use x="127.246094" xlink:href="#DejaVuSans-30"/>
       <use x="190.869141" xlink:href="#DejaVuSans-30"/>
       <use x="254.492188" xlink:href="#DejaVuSans-30"/>
       <use x="318.115234" xlink:href="#DejaVuSans-30"/>
      </g>
     </g>
    </g>
    <g id="ytick_8">
     <g id="line2d_17">
      <g>
       <use style="stroke:#000000;stroke-width:0.8;" x="57.6" xlink:href="#m929c449057" y="49.644748"/>
      </g>
     </g>
     <g id="text_18">
      <!-- 115000 -->
      <g transform="translate(12.425 53.443967)scale(0.1 -0.1)">
       <use xlink:href="#DejaVuSans-31"/>
       <use x="63.623047" xlink:href="#DejaVuSans-31"/>
       <use x="127.246094" xlink:href="#DejaVuSans-35"/>
       <use x="190.869141" xlink:href="#DejaVuSans-30"/>
       <use x="254.492188" xlink:href="#DejaVuSans-30"/>
       <use x="318.115234" xlink:href="#DejaVuSans-30"/>
      </g>
     </g>
    </g>
   </g>
   <g id="line2d_18">
    <path clip-path="url(#p1eee1569ca)" d="M 73.832727 141.150504 
L 75.115947 141.386224 
L 76.399166 139.197864 
L 77.682386 142.492113 
L 78.965605 136.8396 
L 82.815264 133.148158 
L 84.098484 132.144949 
L 85.381703 133.76647 
L 86.664923 132.841609 
L 87.948142 133.141641 
L 93.08102 133.288247 
L 94.36424 135.591795 
L 95.64746 137.4988 
L 96.930679 142.60046 
L 100.780338 137.631086 
L 102.063557 146.55886 
L 103.346777 141.997071 
L 104.629996 142.990629 
L 105.913216 148.934083 
L 109.762875 159.725098 
L 111.046094 160.867972 
L 112.329314 156.254511 
L 113.612533 146.754246 
L 114.895753 141.600612 
L 118.745411 137.161578 
L 120.028631 150.265496 
L 121.311851 148.114205 
L 122.59507 152.851767 
L 123.87829 143.916369 
L 127.727948 154.880942 
L 129.011168 145.61438 
L 130.294387 143.361695 
L 131.577607 143.078064 
L 132.860826 142.492028 
L 136.710485 142.063931 
L 137.993705 140.881486 
L 139.276924 149.187079 
L 140.560144 137.238572 
L 141.843363 136.190894 
L 145.693022 131.453185 
L 146.976241 125.405645 
L 148.259461 122.889602 
L 149.542681 133.436313 
L 150.8259 140.940259 
L 154.675559 140.8545 
L 155.958778 145.958077 
L 157.241998 147.590455 
L 158.525217 139.380131 
L 159.808437 147.537184 
L 163.658096 135.16116 
L 164.941315 135.051136 
L 166.224535 129.039411 
L 167.507754 136.517957 
L 168.790974 132.27272 
L 172.640632 131.659026 
L 173.923852 139.577504 
L 175.207072 139.347517 
L 176.490291 144.428111 
L 177.773511 139.483314 
L 181.623169 137.678287 
L 182.906389 137.767526 
L 184.189608 141.018155 
L 185.472828 142.800482 
L 186.756047 143.199097 
L 190.605706 139.481644 
L 191.888926 134.644788 
L 193.172145 135.101778 
L 195.738584 134.965343 
L 199.588243 140.334714 
L 200.871462 152.180087 
L 202.154682 160.163365 
L 203.437902 152.801658 
L 204.721121 156.694841 
L 208.57078 145.581105 
L 209.853999 134.557384 
L 211.137219 129.836887 
L 212.420438 129.225686 
L 213.703658 127.314405 
L 217.553317 133.154218 
L 220.119756 126.936813 
L 221.402975 124.000671 
L 222.686195 131.409169 
L 226.535853 139.63801 
L 227.819073 125.76085 
L 229.102292 122.718757 
L 230.385512 117.03293 
L 235.51839 108.834966 
L 236.80161 109.17987 
L 238.084829 109.146562 
L 239.368049 110.439148 
L 240.651268 112.954375 
L 244.500927 103.110715 
L 245.784147 95.603112 
L 247.067366 112.758407 
L 248.350586 107.071787 
L 249.633805 104.906748 
L 253.483464 104.597137 
L 254.766683 99.068307 
L 256.049903 97.569725 
L 257.333123 105.68359 
L 258.616342 103.707121 
L 265.03244 121.005723 
L 266.315659 128.037085 
L 267.598879 142.508977 
L 271.448538 140.957563 
L 272.731757 148.392912 
L 274.014977 148.500788 
L 275.298196 152.597748 
L 276.581416 136.536542 
L 280.431074 123.847133 
L 281.714294 117.606499 
L 282.997513 108.313036 
L 284.280733 148.771725 
L 285.563953 147.819597 
L 289.413611 158.097409 
L 290.696831 159.436182 
L 291.98005 146.291774 
L 293.26327 156.817094 
L 294.546489 170.657083 
L 298.396148 174.848283 
L 299.679368 167.310036 
L 300.962587 170.830617 
L 302.245807 181.456343 
L 303.529026 184.541255 
L 308.661904 191.083365 
L 309.945124 198.764853 
L 311.228344 186.645091 
L 312.511563 176.308884 
L 316.361222 178.015488 
L 317.644441 187.265612 
L 318.927661 175.54029 
L 320.21088 177.443347 
L 321.4941 182.333403 
L 325.343759 205.692735 
L 326.626978 205.663607 
L 327.910198 182.935721 
L 329.193417 190.501939 
L 330.476637 199.796375 
L 334.326295 202.283421 
L 335.609515 191.095918 
L 336.892734 173.651621 
L 338.175954 166.764343 
L 339.459174 156.271214 
L 343.308832 158.733995 
L 344.592052 147.190126 
L 345.875271 153.5456 
L 347.158491 143.352991 
L 348.44171 137.363391 
L 352.291369 135.417922 
L 353.574589 130.109143 
L 354.857808 132.205537 
L 356.141028 145.925168 
L 361.273906 135.817083 
L 362.557125 142.924701 
L 363.840345 152.146113 
L 365.123564 153.490436 
L 366.406784 154.300303 
L 371.539662 169.460006 
L 372.822882 166.57687 
L 374.106101 177.393195 
L 379.23898 173.291652 
L 380.522199 162.807119 
L 381.805419 169.933726 
L 383.088638 183.128829 
L 384.371858 202.079711 
L 388.221516 197.108046 
L 389.504736 206.902143 
L 390.787955 213.955337 
L 392.071175 178.15289 
L 393.354395 195.26787 
L 397.204053 187.311741 
L 398.487273 187.935448 
L 398.487273 187.935448 
" style="fill:none;stroke:#0000ff;stroke-linecap:square;stroke-opacity:0.9;stroke-width:2;"/>
   </g>
   <g id="line2d_19">
    <path clip-path="url(#p1eee1569ca)" d="M 73.832727 141.150504 
L 75.115947 138.125602 
L 76.399166 134.656635 
L 77.682386 138.569545 
L 78.965605 131.475325 
L 82.815264 129.541895 
L 84.098484 128.694921 
L 85.381703 128.7818 
L 86.664923 129.622841 
L 87.948142 129.389458 
L 93.08102 128.041146 
L 94.36424 130.573922 
L 95.64746 131.556752 
L 96.930679 138.309398 
L 100.780338 134.015121 
L 102.063557 140.1186 
L 103.346777 137.079759 
L 104.629996 138.93402 
L 105.913216 146.155609 
L 109.762875 156.329388 
L 111.046094 156.310258 
L 112.329314 152.933496 
L 113.612533 144.849999 
L 114.895753 140.670761 
L 118.745411 136.922895 
L 120.028631 149.029931 
L 121.311851 148.095451 
L 122.59507 154.164868 
L 123.87829 144.881372 
L 127.727948 151.713311 
L 129.011168 143.338966 
L 130.294387 141.239981 
L 131.577607 139.632412 
L 132.860826 137.064849 
L 136.710485 140.597323 
L 137.993705 145.251125 
L 139.276924 146.765631 
L 140.560144 132.187163 
L 141.843363 127.960797 
L 145.693022 126.42958 
L 146.976241 121.178195 
L 148.259461 117.704867 
L 149.542681 125.791352 
L 150.8259 128.73926 
L 154.675559 130.879553 
L 157.241998 137.559346 
L 158.525217 128.885182 
L 159.808437 127.778746 
L 163.658096 127.676152 
L 164.941315 125.176888 
L 166.224535 120.682006 
L 167.507754 121.465612 
L 168.790974 121.438457 
L 172.640632 120.873734 
L 173.923852 126.038513 
L 175.207072 129.249279 
L 176.490291 128.974929 
L 177.773511 124.923526 
L 181.623169 123.151992 
L 182.906389 124.674653 
L 184.189608 125.298362 
L 185.472828 125.636852 
L 186.756047 127.382809 
L 190.605706 124.776464 
L 191.888926 118.648539 
L 193.172145 118.233129 
L 195.738584 134.393208 
L 199.588243 127.873369 
L 200.871462 140.769037 
L 202.154682 147.97725 
L 203.437902 139.612795 
L 204.721121 145.012496 
L 208.57078 135.582356 
L 209.853999 125.171952 
L 211.137219 121.21962 
L 212.420438 121.623009 
L 213.703658 117.655677 
L 217.553317 124.121704 
L 218.836536 124.156519 
L 220.119756 119.233748 
L 221.402975 118.923949 
L 222.686195 126.930323 
L 226.535853 134.14164 
L 227.819073 122.247539 
L 229.102292 118.665993 
L 230.385512 113.552938 
L 235.51839 104.960341 
L 236.80161 105.326727 
L 238.084829 105.126112 
L 239.368049 105.762224 
L 240.651268 108.412443 
L 244.500927 101.507903 
L 245.784147 94.95528 
L 247.067366 109.135572 
L 248.350586 106.766499 
L 249.633805 103.358781 
L 253.483464 103.830444 
L 254.766683 100.336643 
L 256.049903 100.276448 
L 257.333123 104.771659 
L 258.616342 105.109093 
L 263.74922 119.119843 
L 265.03244 125.668216 
L 266.315659 131.507549 
L 267.598879 144.5592 
L 271.448538 144.845134 
L 272.731757 143.54878 
L 274.014977 144.69841 
L 275.298196 149.686385 
L 276.581416 135.16728 
L 280.431074 125.859549 
L 281.714294 118.11031 
L 282.997513 108.508999 
L 284.280733 136.726737 
L 285.563953 131.737479 
L 289.413611 135.542699 
L 290.696831 131.691897 
L 291.98005 126.125974 
L 293.26327 136.513359 
L 294.546489 149.060587 
L 298.396148 154.697915 
L 299.679368 147.75174 
L 300.962587 148.798743 
L 302.245807 160.476027 
L 303.529026 163.658533 
L 308.661904 168.887663 
L 309.945124 176.48415 
L 311.228344 173.370493 
L 312.511563 159.88275 
L 316.361222 165.279824 
L 317.644441 177.509451 
L 318.927661 163.878089 
L 320.21088 165.039697 
L 321.4941 173.554315 
L 325.343759 193.665283 
L 326.626978 196.965077 
L 327.910198 176.004692 
L 329.193417 183.448695 
L 330.476637 190.216674 
L 334.326295 190.84555 
L 335.609515 180.830532 
L 336.892734 167.886973 
L 339.459174 156.041273 
L 343.308832 155.80998 
L 344.592052 146.062157 
L 345.875271 152.263841 
L 347.158491 142.928143 
L 348.44171 136.628707 
L 352.291369 135.838786 
L 353.574589 132.910013 
L 354.857808 133.450115 
L 356.141028 145.399913 
L 357.424247 142.393943 
L 361.273906 138.228586 
L 362.557125 143.929375 
L 363.840345 152.062828 
L 365.123564 152.133621 
L 366.406784 151.921722 
L 371.539662 163.559071 
L 372.822882 161.930842 
L 374.106101 170.395065 
L 379.23898 166.539849 
L 380.522199 158.411834 
L 381.805419 155.84019 
L 383.088638 163.930728 
L 384.371858 180.83767 
L 388.221516 179.414113 
L 389.504736 189.152904 
L 390.787955 190.155222 
L 392.071175 171.960195 
L 393.354395 189.424809 
L 397.204053 186.21938 
L 398.487273 181.606718 
L 398.487273 181.606718 
" style="fill:none;stroke:#ff0000;stroke-linecap:square;stroke-opacity:0.9;stroke-width:2;"/>
   </g>
   <g id="line2d_20">
    <path clip-path="url(#p1eee1569ca)" d="M 73.832727 141.150504 
L 75.115947 137.670006 
L 76.399166 135.761415 
L 77.682386 138.838781 
L 78.965605 132.846194 
L 82.815264 129.138137 
L 84.098484 128.16447 
L 85.381703 129.372217 
L 86.664923 128.482256 
L 87.948142 128.899816 
L 93.08102 129.072227 
L 95.64746 132.701169 
L 96.930679 138.001335 
L 100.780338 133.242475 
L 102.063557 141.377693 
L 103.346777 137.189172 
L 104.629996 138.668323 
L 105.913216 144.06193 
L 109.762875 154.494836 
L 111.046094 155.93507 
L 112.329314 151.535813 
L 113.612533 142.003068 
L 114.895753 136.448678 
L 118.745411 131.074526 
L 120.028631 144.155384 
L 121.311851 142.667958 
L 122.59507 146.766474 
L 123.87829 137.710881 
L 127.727948 149.127602 
L 129.011168 139.557186 
L 130.294387 137.06106 
L 131.577607 135.660635 
L 132.860826 133.031013 
L 136.710485 136.737032 
L 137.993705 141.503137 
L 139.276924 142.506773 
L 140.560144 130.517113 
L 141.843363 129.424325 
L 145.693022 124.458986 
L 146.976241 118.136051 
L 148.259461 115.746497 
L 149.542681 125.558741 
L 150.8259 133.783217 
L 154.675559 133.311194 
L 155.958778 139.144922 
L 157.241998 140.647629 
L 158.525217 132.892078 
L 159.808437 131.496359 
L 164.941315 127.405555 
L 166.224535 122.344758 
L 167.507754 121.968054 
L 168.790974 117.408327 
L 172.640632 116.997565 
L 173.923852 124.394 
L 175.207072 129.593738 
L 176.490291 129.851202 
L 177.773511 124.765216 
L 181.623169 122.78402 
L 182.906389 125.668446 
L 184.189608 125.927367 
L 185.472828 128.059641 
L 186.756047 128.127815 
L 190.605706 124.246237 
L 191.888926 119.042681 
L 193.172145 119.224779 
L 195.738584 133.348185 
L 199.588243 125.424224 
L 200.871462 137.437463 
L 202.154682 146.300759 
L 203.437902 139.011326 
L 204.721121 143.130635 
L 208.57078 131.11096 
L 209.853999 120.49853 
L 211.137219 115.173959 
L 212.420438 114.872859 
L 213.703658 112.756289 
L 217.553317 118.747709 
L 220.119756 112.167216 
L 221.402975 109.863472 
L 222.686195 117.252246 
L 226.535853 126.094052 
L 227.819073 110.88856 
L 229.102292 108.155554 
L 230.385512 102.30727 
L 235.51839 94.232464 
L 238.084829 94.422002 
L 239.368049 95.444763 
L 240.651268 98.364161 
L 244.500927 88.73406 
L 245.784147 80.071213 
L 247.067366 97.355523 
L 248.350586 90.969322 
L 249.633805 88.12046 
L 253.483464 86.902541 
L 254.766683 81.1979 
L 256.049903 79.454949 
L 257.333123 87.76817 
L 258.616342 85.474905 
L 265.03244 103.463006 
L 266.315659 110.381668 
L 267.598879 125.219255 
L 271.448538 124.214996 
L 272.731757 131.697132 
L 274.014977 131.784908 
L 275.298196 135.99838 
L 276.581416 119.811032 
L 280.431074 106.513618 
L 281.714294 99.777249 
L 282.997513 89.117689 
L 284.280733 133.0788 
L 285.563953 132.538409 
L 289.413611 143.152095 
L 290.696831 144.862596 
L 291.98005 131.28949 
L 293.26327 142.222326 
L 294.546489 156.017531 
L 298.396148 159.840567 
L 299.679368 152.706874 
L 300.962587 155.636755 
L 302.245807 166.915232 
L 303.529026 170.537525 
L 308.661904 176.295674 
L 309.945124 184.016747 
L 311.228344 171.076115 
L 312.511563 160.6241 
L 316.361222 162.188716 
L 317.644441 171.429452 
L 318.927661 159.115476 
L 320.21088 162.654675 
L 321.4941 170.72793 
L 325.343759 195.855776 
L 326.626978 193.297172 
L 327.910198 168.329169 
L 329.193417 177.020002 
L 330.476637 186.539453 
L 334.326295 186.904336 
L 335.609515 176.005798 
L 336.892734 156.678769 
L 338.175954 150.115136 
L 339.459174 140.860736 
L 343.308832 143.121376 
L 344.592052 130.105675 
L 345.875271 137.322935 
L 347.158491 128.333298 
L 348.44171 120.806503 
L 352.291369 120.372866 
L 353.574589 115.611994 
L 354.857808 118.875794 
L 356.141028 134.757287 
L 357.424247 133.494874 
L 361.273906 127.916718 
L 362.557125 135.814536 
L 363.840345 144.527001 
L 365.123564 147.409341 
L 366.406784 147.225447 
L 371.539662 160.499619 
L 372.822882 157.738485 
L 374.106101 169.082711 
L 379.23898 162.669487 
L 380.522199 151.849054 
L 381.805419 155.36933 
L 383.088638 168.137419 
L 384.371858 187.999115 
L 388.221516 184.499964 
L 389.504736 198.950312 
L 390.787955 205.211342 
L 392.071175 173.680527 
L 393.354395 191.591707 
L 397.204053 181.772043 
L 398.487273 175.347844 
L 398.487273 175.347844 
" style="fill:none;stroke:#ff8040;stroke-linecap:square;stroke-opacity:0.9;stroke-width:2;"/>
   </g>
   <g id="line2d_21">
    <path clip-path="url(#p1eee1569ca)" d="M 73.832727 141.760543 
L 75.115947 139.938873 
L 76.399166 138.756681 
L 77.682386 145.393622 
L 78.965605 138.330835 
L 82.815264 137.240532 
L 84.098484 136.181546 
L 85.381703 138.579955 
L 86.664923 140.057626 
L 87.948142 139.836973 
L 93.08102 139.894025 
L 94.36424 142.578627 
L 95.64746 144.19732 
L 96.930679 151.982635 
L 100.780338 147.048535 
L 102.063557 154.097888 
L 103.346777 152.298744 
L 104.629996 154.826518 
L 105.913216 163.212474 
L 109.762875 175.729941 
L 111.046094 176.248687 
L 112.329314 172.173586 
L 113.612533 163.320647 
L 114.895753 159.793344 
L 118.745411 156.537262 
L 120.028631 168.645315 
L 121.311851 167.692939 
L 122.59507 172.936043 
L 123.87829 165.125296 
L 127.727948 169.294448 
L 129.011168 162.696428 
L 130.294387 161.448717 
L 131.577607 159.985381 
L 132.860826 157.465452 
L 136.710485 162.259727 
L 137.993705 166.489033 
L 139.276924 168.500291 
L 140.560144 156.144097 
L 141.843363 153.500412 
L 145.693022 154.651395 
L 146.976241 149.228041 
L 148.259461 146.364879 
L 149.542681 162.674961 
L 150.8259 168.561899 
L 154.675559 171.145671 
L 155.958778 175.38043 
L 157.241998 183.54746 
L 158.525217 173.891079 
L 159.808437 169.666255 
L 163.658096 167.681487 
L 164.941315 165.041693 
L 166.224535 159.846058 
L 167.507754 161.919216 
L 168.790974 162.764238 
L 172.640632 162.21491 
L 173.923852 165.794871 
L 175.207072 167.445976 
L 176.490291 167.0252 
L 177.773511 162.84264 
L 181.623169 160.624364 
L 182.906389 160.744951 
L 184.189608 161.31698 
L 185.472828 161.32421 
L 186.756047 160.246768 
L 190.605706 159.614354 
L 191.888926 157.785171 
L 193.172145 157.960727 
L 195.738584 174.983014 
L 199.588243 170.413675 
L 200.871462 185.967476 
L 202.154682 193.505277 
L 203.437902 182.142529 
L 204.721121 186.500288 
L 208.57078 177.771725 
L 209.853999 167.513792 
L 211.137219 163.615661 
L 212.420438 163.793148 
L 213.703658 158.970836 
L 217.553317 163.524802 
L 218.836536 164.457481 
L 220.119756 159.365769 
L 221.402975 155.036581 
L 222.686195 161.643428 
L 226.535853 171.059122 
L 227.819073 158.323283 
L 229.102292 155.884718 
L 230.385512 152.590316 
L 235.51839 143.49678 
L 236.80161 144.056359 
L 238.084829 143.363503 
L 239.368049 144.579986 
L 240.651268 148.34151 
L 244.500927 139.750461 
L 245.784147 136.565327 
L 247.067366 146.146289 
L 248.350586 147.280727 
L 249.633805 144.586418 
L 253.483464 145.47188 
L 254.766683 142.505244 
L 256.049903 141.735294 
L 257.333123 146.345216 
L 258.616342 148.076654 
L 263.74922 160.97597 
L 265.03244 168.553875 
L 266.315659 173.646976 
L 267.598879 184.935348 
L 271.448538 184.831342 
L 272.731757 181.825436 
L 274.014977 185.00519 
L 275.298196 187.177558 
L 276.581416 172.874531 
L 280.431074 164.279026 
L 281.714294 157.225426 
L 282.997513 145.968596 
L 284.280733 186.533558 
L 285.563953 179.693622 
L 289.413611 187.238361 
L 290.696831 187.126101 
L 291.98005 180.884103 
L 293.26327 191.276561 
L 294.546489 206.845551 
L 298.396148 211.464219 
L 299.679368 202.966756 
L 300.962587 204.48345 
L 302.245807 211.515354 
L 303.529026 214.657279 
L 308.661904 218.402057 
L 309.945124 226.23186 
L 311.228344 223.379803 
L 312.511563 212.774566 
L 316.361222 218.556479 
L 317.644441 229.663095 
L 318.927661 218.829802 
L 320.21088 218.985617 
L 321.4941 228.478604 
L 325.343759 249.724264 
L 326.626978 253.523455 
L 327.910198 233.167638 
L 329.193417 239.062175 
L 330.476637 243.933886 
L 334.326295 242.459864 
L 335.609515 235.124793 
L 336.892734 224.281925 
L 338.175954 219.335046 
L 339.459174 211.665755 
L 343.308832 212.94503 
L 344.592052 201.950884 
L 345.875271 206.728807 
L 347.158491 199.732323 
L 348.44171 194.325845 
L 352.291369 191.896239 
L 353.574589 190.498321 
L 354.857808 190.986828 
L 356.141028 201.05091 
L 357.424247 197.352558 
L 361.273906 196.148178 
L 362.557125 200.807897 
L 363.840345 213.025197 
L 365.123564 213.703961 
L 366.406784 212.452432 
L 370.256443 221.876149 
L 371.539662 224.027309 
L 372.822882 220.536391 
L 374.106101 226.24558 
L 379.23898 222.080499 
L 380.522199 212.763142 
L 381.805419 228.103956 
L 383.088638 234.758431 
L 384.371858 250.359874 
L 388.221516 250.323609 
L 389.504736 257.380351 
L 390.787955 265.797818 
L 392.071175 247.169604 
L 393.354395 261.357096 
L 397.204053 254.233769 
L 398.487273 250.699161 
L 398.487273 250.699161 
" style="fill:none;stroke:#0d0d0d;stroke-linecap:square;stroke-opacity:0.25;stroke-width:2;"/>
   </g>
   <g id="line2d_22">
    <path clip-path="url(#p1eee1569ca)" d="M 73.832727 140.540466 
L 76.399166 129.865801 
L 77.682386 132.656653 
L 78.965605 125.149138 
L 82.815264 120.219729 
L 84.098484 120.830568 
L 85.381703 119.093269 
L 86.664923 119.065418 
L 87.948142 118.49417 
L 93.08102 115.021938 
L 94.36424 117.003416 
L 95.64746 118.673855 
L 96.930679 125.481592 
L 100.780338 121.136766 
L 102.063557 127.770695 
L 103.346777 124.525493 
L 104.629996 127.527927 
L 105.913216 134.8104 
L 109.762875 143.202469 
L 111.046094 142.723999 
L 112.329314 139.103158 
L 113.612533 130.502334 
L 114.895753 125.790725 
L 118.745411 121.148194 
L 120.028631 132.889591 
L 121.311851 131.59866 
L 122.59507 136.858129 
L 123.87829 126.559469 
L 127.727948 130.92417 
L 129.011168 121.673726 
L 130.294387 120.722788 
L 132.860826 113.140018 
L 136.710485 118.583666 
L 137.993705 123.117397 
L 139.276924 124.850463 
L 140.560144 108.68531 
L 141.843363 107.253631 
L 145.693022 100.197645 
L 146.976241 94.032955 
L 148.259461 92.557588 
L 149.542681 102.138262 
L 150.8259 103.951444 
L 154.675559 107.49904 
L 155.958778 110.990853 
L 157.241998 111.760092 
L 158.525217 100.324634 
L 159.808437 95.713477 
L 163.658096 96.258414 
L 164.941315 93.432265 
L 166.224535 88.926881 
L 167.507754 92.969777 
L 168.790974 90.388534 
L 172.640632 88.144614 
L 173.923852 94.434862 
L 175.207072 96.331293 
L 176.490291 96.332062 
L 177.773511 93.088398 
L 181.623169 91.24955 
L 182.906389 92.661523 
L 184.189608 90.288073 
L 185.472828 87.181504 
L 186.756047 84.372346 
L 190.605706 81.441017 
L 191.888926 75.463456 
L 193.172145 75.375562 
L 195.738584 94.742619 
L 199.588243 86.702884 
L 200.871462 103.761551 
L 202.154682 112.300789 
L 203.437902 101.193847 
L 204.721121 106.503301 
L 208.57078 95.419033 
L 209.853999 86.461189 
L 211.137219 83.334246 
L 212.420438 83.951757 
L 213.703658 81.706158 
L 217.553317 85.508486 
L 218.836536 87.38836 
L 220.119756 81.561493 
L 221.402975 77.229301 
L 222.686195 86.558353 
L 226.535853 95.882549 
L 227.819073 83.738036 
L 229.102292 80.139274 
L 230.385512 73.901903 
L 235.51839 64.726595 
L 236.80161 65.15588 
L 238.084829 64.001093 
L 239.368049 64.965968 
L 240.651268 68.43783 
L 244.500927 61.389014 
L 245.784147 52.154182 
L 247.067366 65.848868 
L 248.350586 62.524273 
L 249.633805 58.669574 
L 253.483464 56.945681 
L 254.766683 54.300913 
L 256.049903 55.346044 
L 257.333123 61.566536 
L 258.616342 58.246097 
L 263.74922 75.26588 
L 265.03244 78.034067 
L 266.315659 83.848866 
L 267.598879 98.599033 
L 271.448538 97.126949 
L 272.731757 100.406315 
L 274.014977 103.043597 
L 275.298196 108.245796 
L 276.581416 93.052927 
L 280.431074 80.037833 
L 281.714294 72.222013 
L 282.997513 59.466444 
L 284.280733 71.17454 
L 285.563953 67.374046 
L 289.413611 76.983395 
L 290.696831 73.852847 
L 291.98005 71.180699 
L 294.546489 96.204395 
L 298.396148 101.824997 
L 299.679368 92.45757 
L 300.962587 94.101608 
L 302.245807 107.189377 
L 303.529026 111.104537 
L 308.661904 116.232063 
L 309.945124 122.829725 
L 311.228344 116.614966 
L 312.511563 99.883046 
L 316.361222 107.72456 
L 317.644441 123.602287 
L 318.927661 110.113608 
L 320.21088 111.140396 
L 321.4941 121.146548 
L 325.343759 146.58327 
L 326.626978 150.662701 
L 327.910198 122.84588 
L 329.193417 129.981952 
L 330.476637 139.032781 
L 334.326295 139.953157 
L 335.609515 132.977614 
L 336.892734 113.864892 
L 338.175954 108.406831 
L 339.459174 100.992742 
L 343.308832 104.439908 
L 344.592052 92.740325 
L 345.875271 98.966815 
L 348.44171 80.407424 
L 352.291369 80.053928 
L 353.574589 76.129063 
L 354.857808 78.65229 
L 356.141028 89.460609 
L 357.424247 87.74294 
L 361.273906 82.315367 
L 363.840345 95.147086 
L 365.123564 96.492932 
L 366.406784 96.033681 
L 370.256443 106.169415 
L 371.539662 108.406285 
L 372.822882 105.666398 
L 374.106101 117.468321 
L 379.23898 112.780258 
L 380.522199 99.855504 
L 381.805419 95.728075 
L 383.088638 103.778054 
L 384.371858 120.17948 
L 388.221516 116.31591 
L 389.504736 132.074112 
L 390.787955 131.871096 
L 392.071175 115.722158 
L 393.354395 134.59728 
L 397.204053 127.567627 
L 398.487273 123.310206 
L 398.487273 123.310206 
" style="fill:none;stroke:#0d0d0d;stroke-linecap:square;stroke-opacity:0.25;stroke-width:2;"/>
   </g>
   <g id="patch_3">
    <path d="M 57.6 276.48 
L 57.6 41.472 
" style="fill:none;stroke:#000000;stroke-linecap:square;stroke-linejoin:miter;stroke-width:0.8;"/>
   </g>
   <g id="patch_4">
    <path d="M 414.72 276.48 
L 414.72 41.472 
" style="fill:none;stroke:#000000;stroke-linecap:square;stroke-linejoin:miter;stroke-width:0.8;"/>
   </g>
   <g id="patch_5">
    <path d="M 57.6 276.48 
L 414.72 276.48 
" style="fill:none;stroke:#000000;stroke-linecap:square;stroke-linejoin:miter;stroke-width:0.8;"/>
   </g>
   <g id="patch_6">
    <path d="M 57.6 41.472 
L 414.72 41.472 
" style="fill:none;stroke:#000000;stroke-linecap:square;stroke-linejoin:miter;stroke-width:0.8;"/>
   </g>
   <g id="text_19">
    <!-- TESTFUNDS1330 -->
    <g transform="translate(185.200312 22.034625)scale(0.12 -0.12)">
     <defs>
      <path d="M -19 4666 
L 3928 4666 
L 3928 4134 
L 2272 4134 
L 2272 0 
L 1638 0 
L 1638 4134 
L -19 4134 
L -19 4666 
z
" id="DejaVuSans-54" transform="scale(0.015625)"/>
      <path d="M 628 4666 
L 3578 4666 
L 3578 4134 
L 1259 4134 
L 1259 2753 
L 3481 2753 
L 3481 2222 
L 1259 2222 
L 1259 531 
L 3634 531 
L 3634 0 
L 628 0 
L 628 4666 
z
" id="DejaVuSans-45" transform="scale(0.015625)"/>
      <path d="M 3425 4513 
L 3425 3897 
Q 3066 4069 2747 4153 
Q 2428 4238 2131 4238 
Q 1616 4238 1336 4038 
Q 1056 3838 1056 3469 
Q 1056 3159 1242 3001 
Q 1428 2844 1947 2747 
L 2328 2669 
Q 3034 2534 3370 2195 
Q 3706 1856 3706 1288 
Q 3706 609 3251 259 
Q 2797 -91 1919 -91 
Q 1588 -91 1214 -16 
Q 841 59 441 206 
L 441 856 
Q 825 641 1194 531 
Q 1563 422 1919 422 
Q 2459 422 2753 634 
Q 3047 847 3047 1241 
Q 3047 1584 2836 1778 
Q 2625 1972 2144 2069 
L 1759 2144 
Q 1053 2284 737 2584 
Q 422 2884 422 3419 
Q 422 4038 858 4394 
Q 1294 4750 2059 4750 
Q 2388 4750 2728 4690 
Q 3069 4631 3425 4513 
z
" id="DejaVuSans-53" transform="scale(0.015625)"/>
      <path d="M 628 4666 
L 3309 4666 
L 3309 4134 
L 1259 4134 
L 1259 2759 
L 3109 2759 
L 3109 2228 
L 1259 2228 
L 1259 0 
L 628 0 
L 628 4666 
z
" id="DejaVuSans-46" transform="scale(0.015625)"/>
      <path d="M 556 4666 
L 1191 4666 
L 1191 1831 
Q 1191 1081 1462 751 
Q 1734 422 2344 422 
Q 2950 422 3222 751 
Q 3494 1081 3494 1831 
L 3494 4666 
L 4128 4666 
L 4128 1753 
Q 4128 841 3676 375 
Q 3225 -91 2344 -91 
Q 1459 -91 1007 375 
Q 556 841 556 1753 
L 556 4666 
z
" id="DejaVuSans-55" transform="scale(0.015625)"/>
      <path d="M 628 4666 
L 1478 4666 
L 3547 763 
L 3547 4666 
L 4159 4666 
L 4159 0 
L 3309 0 
L 1241 3903 
L 1241 0 
L 628 0 
L 628 4666 
z
" id="DejaVuSans-4e" transform="scale(0.015625)"/>
      <path d="M 1259 4147 
L 1259 519 
L 2022 519 
Q 2988 519 3436 956 
Q 3884 1394 3884 2338 
Q 3884 3275 3436 3711 
Q 2988 4147 2022 4147 
L 1259 4147 
z
M 628 4666 
L 1925 4666 
Q 3281 4666 3915 4102 
Q 4550 3538 4550 2338 
Q 4550 1131 3912 565 
Q 3275 0 1925 0 
L 628 0 
L 628 4666 
z
" id="DejaVuSans-44" transform="scale(0.015625)"/>
     </defs>
     <use xlink:href="#DejaVuSans-54"/>
     <use x="61.083984" xlink:href="#DejaVuSans-45"/>
     <use x="124.267578" xlink:href="#DejaVuSans-53"/>
     <use x="187.744141" xlink:href="#DejaVuSans-54"/>
     <use x="248.828125" xlink:href="#DejaVuSans-46"/>
     <use x="306.347656" xlink:href="#DejaVuSans-55"/>
     <use x="379.541016" xlink:href="#DejaVuSans-4e"/>
     <use x="454.345703" xlink:href="#DejaVuSans-44"/>
     <use x="531.347656" xlink:href="#DejaVuSans-53"/>
     <use x="594.824219" xlink:href="#DejaVuSans-31"/>
     <use x="658.447266" xlink:href="#DejaVuSans-33"/>
     <use x="722.070312" xlink:href="#DejaVuSans-33"/>
     <use x="785.693359" xlink:href="#DejaVuSans-30"/>
    </g>
    <!-- daily_report -->
    <g transform="translate(200.466563 35.472)scale(0.12 -0.12)">
     <defs>
      <path d="M 603 3500 
L 1178 3500 
L 1178 0 
L 603 0 
L 603 3500 
z
M 603 4863 
L 1178 4863 
L 1178 4134 
L 603 4134 
L 603 4863 
z
" id="DejaVuSans-69" transform="scale(0.015625)"/>
      <path d="M 603 4863 
L 1178 4863 
L 1178 0 
L 603 0 
L 603 4863 
z
" id="DejaVuSans-6c" transform="scale(0.015625)"/>
      <path d="M 2059 -325 
Q 1816 -950 1584 -1140 
Q 1353 -1331 966 -1331 
L 506 -1331 
L 506 -850 
L 844 -850 
Q 1081 -850 1212 -737 
Q 1344 -625 1503 -206 
L 1606 56 
L 191 3500 
L 800 3500 
L 1894 763 
L 2988 3500 
L 3597 3500 
L 2059 -325 
z
" id="DejaVuSans-79" transform="scale(0.015625)"/>
      <path d="M 3263 -1063 
L 3263 -1509 
L -63 -1509 
L -63 -1063 
L 3263 -1063 
z
" id="DejaVuSans-5f" transform="scale(0.015625)"/>
      <path d="M 2631 2963 
Q 2534 3019 2420 3045 
Q 2306 3072 2169 3072 
Q 1681 3072 1420 2755 
Q 1159 2438 1159 1844 
L 1159 0 
L 581 0 
L 581 3500 
L 1159 3500 
L 1159 2956 
Q 1341 3275 1631 3429 
Q 1922 3584 2338 3584 
Q 2397 3584 2469 3576 
Q 2541 3569 2628 3553 
L 2631 2963 
z
" id="DejaVuSans-72" transform="scale(0.015625)"/>
      <path d="M 1159 525 
L 1159 -1331 
L 581 -1331 
L 581 3500 
L 1159 3500 
L 1159 2969 
Q 1341 3281 1617 3432 
Q 1894 3584 2278 3584 
Q 2916 3584 3314 3078 
Q 3713 2572 3713 1747 
Q 3713 922 3314 415 
Q 2916 -91 2278 -91 
Q 1894 -91 1617 61 
Q 1341 213 1159 525 
z
M 3116 1747 
Q 3116 2381 2855 2742 
Q 2594 3103 2138 3103 
Q 1681 3103 1420 2742 
Q 1159 2381 1159 1747 
Q 1159 1113 1420 752 
Q 1681 391 2138 391 
Q 2594 391 2855 752 
Q 3116 1113 3116 1747 
z
" id="DejaVuSans-70" transform="scale(0.015625)"/>
      <path d="M 1959 3097 
Q 1497 3097 1228 2736 
Q 959 2375 959 1747 
Q 959 1119 1226 758 
Q 1494 397 1959 397 
Q 2419 397 2687 759 
Q 2956 1122 2956 1747 
Q 2956 2369 2687 2733 
Q 2419 3097 1959 3097 
z
M 1959 3584 
Q 2709 3584 3137 3096 
Q 3566 2609 3566 1747 
Q 3566 888 3137 398 
Q 2709 -91 1959 -91 
Q 1206 -91 779 398 
Q 353 888 353 1747 
Q 353 2609 779 3096 
Q 1206 3584 1959 3584 
z
" id="DejaVuSans-6f" transform="scale(0.015625)"/>
     </defs>
     <use xlink:href="#DejaVuSans-64"/>
     <use x="63.476562" xlink:href="#DejaVuSans-61"/>
     <use x="124.755859" xlink:href="#DejaVuSans-69"/>
     <use x="152.539062" xlink:href="#DejaVuSans-6c"/>
     <use x="180.322266" xlink:href="#DejaVuSans-79"/>
     <use x="239.501953" xlink:href="#DejaVuSans-5f"/>
     <use x="289.501953" xlink:href="#DejaVuSans-72"/>
     <use x="328.365234" xlink:href="#DejaVuSans-65"/>
     <use x="389.888672" xlink:href="#DejaVuSans-70"/>
     <use x="453.365234" xlink:href="#DejaVuSans-6f"/>
     <use x="514.546875" xlink:href="#DejaVuSans-72"/>
     <use x="555.660156" xlink:href="#DejaVuSans-74"/>
    </g>
   </g>
   <g id="legend_1">
    <g id="patch_7">
     <path d="M 64.6 271.48 
L 155.792188 271.48 
Q 157.792188 271.48 157.792188 269.48 
L 157.792188 197.089375 
Q 157.792188 195.089375 155.792188 195.089375 
L 64.6 195.089375 
Q 62.6 195.089375 62.6 197.089375 
L 62.6 269.48 
Q 62.6 271.48 64.6 271.48 
z
" style="fill:#ffffff;opacity:0.8;stroke:#cccccc;stroke-linejoin:miter;"/>
    </g>
    <g id="line2d_23">
     <path d="M 66.6 203.187812 
L 86.6 203.187812 
" style="fill:none;stroke:#0000ff;stroke-linecap:square;stroke-opacity:0.9;stroke-width:2;"/>
    </g>
    <g id="line2d_24"/>
    <g id="text_20">
     <!-- alpaca -->
     <g transform="translate(94.6 206.687812)scale(0.1 -0.1)">
      <defs>
       <path d="M 3122 3366 
L 3122 2828 
Q 2878 2963 2633 3030 
Q 2388 3097 2138 3097 
Q 1578 3097 1268 2742 
Q 959 2388 959 1747 
Q 959 1106 1268 751 
Q 1578 397 2138 397 
Q 2388 397 2633 464 
Q 2878 531 3122 666 
L 3122 134 
Q 2881 22 2623 -34 
Q 2366 -91 2075 -91 
Q 1284 -91 818 406 
Q 353 903 353 1747 
Q 353 2603 823 3093 
Q 1294 3584 2113 3584 
Q 2378 3584 2631 3529 
Q 2884 3475 3122 3366 
z
" id="DejaVuSans-63" transform="scale(0.015625)"/>
      </defs>
      <use xlink:href="#DejaVuSans-61"/>
      <use x="61.279297" xlink:href="#DejaVuSans-6c"/>
      <use x="89.0625" xlink:href="#DejaVuSans-70"/>
      <use x="152.539062" xlink:href="#DejaVuSans-61"/>
      <use x="213.818359" xlink:href="#DejaVuSans-63"/>
      <use x="268.798828" xlink:href="#DejaVuSans-61"/>
     </g>
    </g>
    <g id="line2d_25">
     <path d="M 66.6 217.865937 
L 86.6 217.865937 
" style="fill:none;stroke:#ff0000;stroke-linecap:square;stroke-opacity:0.9;stroke-width:2;"/>
    </g>
    <g id="line2d_26"/>
    <g id="text_21">
     <!-- mattress -->
     <g transform="translate(94.6 221.365937)scale(0.1 -0.1)">
      <defs>
       <path d="M 3328 2828 
Q 3544 3216 3844 3400 
Q 4144 3584 4550 3584 
Q 5097 3584 5394 3201 
Q 5691 2819 5691 2113 
L 5691 0 
L 5113 0 
L 5113 2094 
Q 5113 2597 4934 2840 
Q 4756 3084 4391 3084 
Q 3944 3084 3684 2787 
Q 3425 2491 3425 1978 
L 3425 0 
L 2847 0 
L 2847 2094 
Q 2847 2600 2669 2842 
Q 2491 3084 2119 3084 
Q 1678 3084 1418 2786 
Q 1159 2488 1159 1978 
L 1159 0 
L 581 0 
L 581 3500 
L 1159 3500 
L 1159 2956 
Q 1356 3278 1631 3431 
Q 1906 3584 2284 3584 
Q 2666 3584 2933 3390 
Q 3200 3197 3328 2828 
z
" id="DejaVuSans-6d" transform="scale(0.015625)"/>
       <path d="M 2834 3397 
L 2834 2853 
Q 2591 2978 2328 3040 
Q 2066 3103 1784 3103 
Q 1356 3103 1142 2972 
Q 928 2841 928 2578 
Q 928 2378 1081 2264 
Q 1234 2150 1697 2047 
L 1894 2003 
Q 2506 1872 2764 1633 
Q 3022 1394 3022 966 
Q 3022 478 2636 193 
Q 2250 -91 1575 -91 
Q 1294 -91 989 -36 
Q 684 19 347 128 
L 347 722 
Q 666 556 975 473 
Q 1284 391 1588 391 
Q 1994 391 2212 530 
Q 2431 669 2431 922 
Q 2431 1156 2273 1281 
Q 2116 1406 1581 1522 
L 1381 1569 
Q 847 1681 609 1914 
Q 372 2147 372 2553 
Q 372 3047 722 3315 
Q 1072 3584 1716 3584 
Q 2034 3584 2315 3537 
Q 2597 3491 2834 3397 
z
" id="DejaVuSans-73" transform="scale(0.015625)"/>
      </defs>
      <use xlink:href="#DejaVuSans-6d"/>
      <use x="97.412109" xlink:href="#DejaVuSans-61"/>
      <use x="158.691406" xlink:href="#DejaVuSans-74"/>
      <use x="197.900391" xlink:href="#DejaVuSans-74"/>
      <use x="237.109375" xlink:href="#DejaVuSans-72"/>
      <use x="275.972656" xlink:href="#DejaVuSans-65"/>
      <use x="337.496094" xlink:href="#DejaVuSans-73"/>
      <use x="389.595703" xlink:href="#DejaVuSans-73"/>
     </g>
    </g>
    <g id="line2d_27">
     <path d="M 66.6 232.544062 
L 86.6 232.544062 
" style="fill:none;stroke:#ff8040;stroke-linecap:square;stroke-opacity:0.9;stroke-width:2;"/>
    </g>
    <g id="line2d_28"/>
    <g id="text_22">
     <!-- trader-0850 -->
     <g transform="translate(94.6 236.044062)scale(0.1 -0.1)">
      <use xlink:href="#DejaVuSans-74"/>
      <use x="39.208984" xlink:href="#DejaVuSans-72"/>
      <use x="80.322266" xlink:href="#DejaVuSans-61"/>
      <use x="141.601562" xlink:href="#DejaVuSans-64"/>
      <use x="205.078125" xlink:href="#DejaVuSans-65"/>
      <use x="266.601562" xlink:href="#DejaVuSans-72"/>
      <use x="301.339844" xlink:href="#DejaVuSans-2d"/>
      <use x="337.423828" xlink:href="#DejaVuSans-30"/>
      <use x="401.046875" xlink:href="#DejaVuSans-38"/>
      <use x="464.669922" xlink:href="#DejaVuSans-35"/>
      <use x="528.292969" xlink:href="#DejaVuSans-30"/>
     </g>
    </g>
    <g id="line2d_29">
     <path d="M 66.6 247.222187 
L 86.6 247.222187 
" style="fill:none;stroke:#0d0d0d;stroke-linecap:square;stroke-opacity:0.25;stroke-width:2;"/>
    </g>
    <g id="line2d_30"/>
    <g id="text_23">
     <!-- rando-min -->
     <g transform="translate(94.6 250.722187)scale(0.1 -0.1)">
      <defs>
       <path d="M 3513 2113 
L 3513 0 
L 2938 0 
L 2938 2094 
Q 2938 2591 2744 2837 
Q 2550 3084 2163 3084 
Q 1697 3084 1428 2787 
Q 1159 2491 1159 1978 
L 1159 0 
L 581 0 
L 581 3500 
L 1159 3500 
L 1159 2956 
Q 1366 3272 1645 3428 
Q 1925 3584 2291 3584 
Q 2894 3584 3203 3211 
Q 3513 2838 3513 2113 
z
" id="DejaVuSans-6e" transform="scale(0.015625)"/>
      </defs>
      <use xlink:href="#DejaVuSans-72"/>
      <use x="41.113281" xlink:href="#DejaVuSans-61"/>
      <use x="102.392578" xlink:href="#DejaVuSans-6e"/>
      <use x="165.771484" xlink:href="#DejaVuSans-64"/>
      <use x="229.248047" xlink:href="#DejaVuSans-6f"/>
      <use x="292.304688" xlink:href="#DejaVuSans-2d"/>
      <use x="328.388672" xlink:href="#DejaVuSans-6d"/>
      <use x="425.800781" xlink:href="#DejaVuSans-69"/>
      <use x="453.583984" xlink:href="#DejaVuSans-6e"/>
     </g>
    </g>
    <g id="line2d_31">
     <path d="M 66.6 261.900312 
L 86.6 261.900312 
" style="fill:none;stroke:#0d0d0d;stroke-linecap:square;stroke-opacity:0.25;stroke-width:2;"/>
    </g>
    <g id="line2d_32"/>
    <g id="text_24">
     <!-- rando-max -->
     <g transform="translate(94.6 265.400312)scale(0.1 -0.1)">
      <defs>
       <path d="M 3513 3500 
L 2247 1797 
L 3578 0 
L 2900 0 
L 1881 1375 
L 863 0 
L 184 0 
L 1544 1831 
L 300 3500 
L 978 3500 
L 1906 2253 
L 2834 3500 
L 3513 3500 
z
" id="DejaVuSans-78" transform="scale(0.015625)"/>
      </defs>
      <use xlink:href="#DejaVuSans-72"/>
      <use x="41.113281" xlink:href="#DejaVuSans-61"/>
      <use x="102.392578" xlink:href="#DejaVuSans-6e"/>
      <use x="165.771484" xlink:href="#DejaVuSans-64"/>
      <use x="229.248047" xlink:href="#DejaVuSans-6f"/>
      <use x="292.304688" xlink:href="#DejaVuSans-2d"/>
      <use x="328.388672" xlink:href="#DejaVuSans-6d"/>
      <use x="425.800781" xlink:href="#DejaVuSans-61"/>
      <use x="487.080078" xlink:href="#DejaVuSans-78"/>
     </g>
    </g>
   </g>
  </g>
 </g>
 <defs>
  <clipPath id="p1eee1569ca">
   <rect height="235.008" width="357.12" x="57.6" y="41.472"/>
  </clipPath>
 </defs>
</svg>
