<?xml version="1.0" encoding="utf-8" standalone="no"?>
<!DOCTYPE svg PUBLIC "-//W3C//DTD SVG 1.1//EN"
  "http://www.w3.org/Graphics/SVG/1.1/DTD/svg11.dtd">
<svg height="345.6pt" version="1.1" viewBox="0 0 460.8 345.6" width="460.8pt" xmlns="http://www.w3.org/2000/svg" xmlns:xlink="http://www.w3.org/1999/xlink">
 <metadata>
  <rdf:RDF xmlns:cc="http://creativecommons.org/ns#" xmlns:dc="http://purl.org/dc/elements/1.1/" xmlns:rdf="http://www.w3.org/1999/02/22-rdf-syntax-ns#">
   <cc:Work>
    <dc:type rdf:resource="http://purl.org/dc/dcmitype/StillImage"/>
    <dc:date>2022-05-04T01:01:55.991442</dc:date>
    <dc:format>image/svg+xml</dc:format>
    <dc:creator>
     <cc:Agent>
      <dc:title>Matplotlib v3.4.3, https://matplotlib.org/</dc:title>
     </cc:Agent>
    </dc:creator>
   </cc:Work>
  </rdf:RDF>
 </metadata>
 <defs>
  <style type="text/css">*{stroke-linecap:butt;stroke-linejoin:round;}</style>
 </defs>
 <g id="figure_1">
  <g id="patch_1">
   <path d="M 0 345.6 
L 460.8 345.6 
L 460.8 0 
L 0 0 
z
" style="fill:#ffffff;"/>
  </g>
  <g id="axes_1">
   <g id="patch_2">
    <path d="M 57.6 276.48 
L 414.72 276.48 
L 414.72 41.472 
L 57.6 41.472 
z
" style="fill:#ffffff;"/>
   </g>
   <g id="matplotlib.axis_1">
    <g id="xtick_1">
     <g id="line2d_1">
      <defs>
       <path d="M 0 0 
L 0 3.5 
" id="m133e90d634" style="stroke:#000000;stroke-width:0.8;"/>
      </defs>
      <g>
       <use style="stroke:#000000;stroke-width:0.8;" x="85.381703" xlink:href="#m133e90d634" y="276.48"/>
      </g>
     </g>
     <g id="text_1">
      <!-- 2021-09 -->
      <g transform="translate(48.156882 310.951846)rotate(-30)scale(0.1 -0.1)">
       <defs>
        <path d="M 1228 531 
L 3431 531 
L 3431 0 
L 469 0 
L 469 531 
Q 828 903 1448 1529 
Q 2069 2156 2228 2338 
Q 2531 2678 2651 2914 
Q 2772 3150 2772 3378 
Q 2772 3750 2511 3984 
Q 2250 4219 1831 4219 
Q 1534 4219 1204 4116 
Q 875 4013 500 3803 
L 500 4441 
Q 881 4594 1212 4672 
Q 1544 4750 1819 4750 
Q 2544 4750 2975 4387 
Q 3406 4025 3406 3419 
Q 3406 3131 3298 2873 
Q 3191 2616 2906 2266 
Q 2828 2175 2409 1742 
Q 1991 1309 1228 531 
z
" id="DejaVuSans-32" transform="scale(0.015625)"/>
        <path d="M 2034 4250 
Q 1547 4250 1301 3770 
Q 1056 3291 1056 2328 
Q 1056 1369 1301 889 
Q 1547 409 2034 409 
Q 2525 409 2770 889 
Q 3016 1369 3016 2328 
Q 3016 3291 2770 3770 
Q 2525 4250 2034 4250 
z
M 2034 4750 
Q 2819 4750 3233 4129 
Q 3647 3509 3647 2328 
Q 3647 1150 3233 529 
Q 2819 -91 2034 -91 
Q 1250 -91 836 529 
Q 422 1150 422 2328 
Q 422 3509 836 4129 
Q 1250 4750 2034 4750 
z
" id="DejaVuSans-30" transform="scale(0.015625)"/>
        <path d="M 794 531 
L 1825 531 
L 1825 4091 
L 703 3866 
L 703 4441 
L 1819 4666 
L 2450 4666 
L 2450 531 
L 3481 531 
L 3481 0 
L 794 0 
L 794 531 
z
" id="DejaVuSans-31" transform="scale(0.015625)"/>
        <path d="M 313 2009 
L 1997 2009 
L 1997 1497 
L 313 1497 
L 313 2009 
z
" id="DejaVuSans-2d" transform="scale(0.015625)"/>
        <path d="M 703 97 
L 703 672 
Q 941 559 1184 500 
Q 1428 441 1663 441 
Q 2288 441 2617 861 
Q 2947 1281 2994 2138 
Q 2813 1869 2534 1725 
Q 2256 1581 1919 1581 
Q 1219 1581 811 2004 
Q 403 2428 403 3163 
Q 403 3881 828 4315 
Q 1253 4750 1959 4750 
Q 2769 4750 3195 4129 
Q 3622 3509 3622 2328 
Q 3622 1225 3098 567 
Q 2575 -91 1691 -91 
Q 1453 -91 1209 -44 
Q 966 3 703 97 
z
M 1959 2075 
Q 2384 2075 2632 2365 
Q 2881 2656 2881 3163 
Q 2881 3666 2632 3958 
Q 2384 4250 1959 4250 
Q 1534 4250 1286 3958 
Q 1038 3666 1038 3163 
Q 1038 2656 1286 2365 
Q 1534 2075 1959 2075 
z
" id="DejaVuSans-39" transform="scale(0.015625)"/>
       </defs>
       <use xlink:href="#DejaVuSans-32"/>
       <use x="63.623047" xlink:href="#DejaVuSans-30"/>
       <use x="127.246094" xlink:href="#DejaVuSans-32"/>
       <use x="190.869141" xlink:href="#DejaVuSans-31"/>
       <use x="254.492188" xlink:href="#DejaVuSans-2d"/>
       <use x="290.576172" xlink:href="#DejaVuSans-30"/>
       <use x="354.199219" xlink:href="#DejaVuSans-39"/>
      </g>
     </g>
    </g>
    <g id="xtick_2">
     <g id="line2d_2">
      <g>
       <use style="stroke:#000000;stroke-width:0.8;" x="123.87829" xlink:href="#m133e90d634" y="276.48"/>
      </g>
     </g>
     <g id="text_2">
      <!-- 2021-10 -->
      <g transform="translate(86.653469 310.951846)rotate(-30)scale(0.1 -0.1)">
       <use xlink:href="#DejaVuSans-32"/>
       <use x="63.623047" xlink:href="#DejaVuSans-30"/>
       <use x="127.246094" xlink:href="#DejaVuSans-32"/>
       <use x="190.869141" xlink:href="#DejaVuSans-31"/>
       <use x="254.492188" xlink:href="#DejaVuSans-2d"/>
       <use x="290.576172" xlink:href="#DejaVuSans-31"/>
       <use x="354.199219" xlink:href="#DejaVuSans-30"/>
      </g>
     </g>
    </g>
    <g id="xtick_3">
     <g id="line2d_3">
      <g>
       <use style="stroke:#000000;stroke-width:0.8;" x="163.658096" xlink:href="#m133e90d634" y="276.48"/>
      </g>
     </g>
     <g id="text_3">
      <!-- 2021-11 -->
      <g transform="translate(126.433275 310.951846)rotate(-30)scale(0.1 -0.1)">
       <use xlink:href="#DejaVuSans-32"/>
       <use x="63.623047" xlink:href="#DejaVuSans-30"/>
       <use x="127.246094" xlink:href="#DejaVuSans-32"/>
       <use x="190.869141" xlink:href="#DejaVuSans-31"/>
       <use x="254.492188" xlink:href="#DejaVuSans-2d"/>
       <use x="290.576172" xlink:href="#DejaVuSans-31"/>
       <use x="354.199219" xlink:href="#DejaVuSans-31"/>
      </g>
     </g>
    </g>
    <g id="xtick_4">
     <g id="line2d_4">
      <g>
       <use style="stroke:#000000;stroke-width:0.8;" x="202.154682" xlink:href="#m133e90d634" y="276.48"/>
      </g>
     </g>
     <g id="text_4">
      <!-- 2021-12 -->
      <g transform="translate(164.929861 310.951846)rotate(-30)scale(0.1 -0.1)">
       <use xlink:href="#DejaVuSans-32"/>
       <use x="63.623047" xlink:href="#DejaVuSans-30"/>
       <use x="127.246094" xlink:href="#DejaVuSans-32"/>
       <use x="190.869141" xlink:href="#DejaVuSans-31"/>
       <use x="254.492188" xlink:href="#DejaVuSans-2d"/>
       <use x="290.576172" xlink:href="#DejaVuSans-31"/>
       <use x="354.199219" xlink:href="#DejaVuSans-32"/>
      </g>
     </g>
    </g>
    <g id="xtick_5">
     <g id="line2d_5">
      <g>
       <use style="stroke:#000000;stroke-width:0.8;" x="241.934488" xlink:href="#m133e90d634" y="276.48"/>
      </g>
     </g>
     <g id="text_5">
      <!-- 2022-01 -->
      <g transform="translate(204.709667 310.951846)rotate(-30)scale(0.1 -0.1)">
       <use xlink:href="#DejaVuSans-32"/>
       <use x="63.623047" xlink:href="#DejaVuSans-30"/>
       <use x="127.246094" xlink:href="#DejaVuSans-32"/>
       <use x="190.869141" xlink:href="#DejaVuSans-32"/>
       <use x="254.492188" xlink:href="#DejaVuSans-2d"/>
       <use x="290.576172" xlink:href="#DejaVuSans-30"/>
       <use x="354.199219" xlink:href="#DejaVuSans-31"/>
      </g>
     </g>
    </g>
    <g id="xtick_6">
     <g id="line2d_6">
      <g>
       <use style="stroke:#000000;stroke-width:0.8;" x="281.714294" xlink:href="#m133e90d634" y="276.48"/>
      </g>
     </g>
     <g id="text_6">
      <!-- 2022-02 -->
      <g transform="translate(244.489473 310.951846)rotate(-30)scale(0.1 -0.1)">
       <use xlink:href="#DejaVuSans-32"/>
       <use x="63.623047" xlink:href="#DejaVuSans-30"/>
       <use x="127.246094" xlink:href="#DejaVuSans-32"/>
       <use x="190.869141" xlink:href="#DejaVuSans-32"/>
       <use x="254.492188" xlink:href="#DejaVuSans-2d"/>
       <use x="290.576172" xlink:href="#DejaVuSans-30"/>
       <use x="354.199219" xlink:href="#DejaVuSans-32"/>
      </g>
     </g>
    </g>
    <g id="xtick_7">
     <g id="line2d_7">
      <g>
       <use style="stroke:#000000;stroke-width:0.8;" x="317.644441" xlink:href="#m133e90d634" y="276.48"/>
      </g>
     </g>
     <g id="text_7">
      <!-- 2022-03 -->
      <g transform="translate(280.41962 310.951846)rotate(-30)scale(0.1 -0.1)">
       <defs>
        <path d="M 2597 2516 
Q 3050 2419 3304 2112 
Q 3559 1806 3559 1356 
Q 3559 666 3084 287 
Q 2609 -91 1734 -91 
Q 1441 -91 1130 -33 
Q 819 25 488 141 
L 488 750 
Q 750 597 1062 519 
Q 1375 441 1716 441 
Q 2309 441 2620 675 
Q 2931 909 2931 1356 
Q 2931 1769 2642 2001 
Q 2353 2234 1838 2234 
L 1294 2234 
L 1294 2753 
L 1863 2753 
Q 2328 2753 2575 2939 
Q 2822 3125 2822 3475 
Q 2822 3834 2567 4026 
Q 2313 4219 1838 4219 
Q 1578 4219 1281 4162 
Q 984 4106 628 3988 
L 628 4550 
Q 988 4650 1302 4700 
Q 1616 4750 1894 4750 
Q 2613 4750 3031 4423 
Q 3450 4097 3450 3541 
Q 3450 3153 3228 2886 
Q 3006 2619 2597 2516 
z
" id="DejaVuSans-33" transform="scale(0.015625)"/>
       </defs>
       <use xlink:href="#DejaVuSans-32"/>
       <use x="63.623047" xlink:href="#DejaVuSans-30"/>
       <use x="127.246094" xlink:href="#DejaVuSans-32"/>
       <use x="190.869141" xlink:href="#DejaVuSans-32"/>
       <use x="254.492188" xlink:href="#DejaVuSans-2d"/>
       <use x="290.576172" xlink:href="#DejaVuSans-30"/>
       <use x="354.199219" xlink:href="#DejaVuSans-33"/>
      </g>
     </g>
    </g>
    <g id="xtick_8">
     <g id="line2d_8">
      <g>
       <use style="stroke:#000000;stroke-width:0.8;" x="357.424247" xlink:href="#m133e90d634" y="276.48"/>
      </g>
     </g>
     <g id="text_8">
      <!-- 2022-04 -->
      <g transform="translate(320.199426 310.951846)rotate(-30)scale(0.1 -0.1)">
       <defs>
        <path d="M 2419 4116 
L 825 1625 
L 2419 1625 
L 2419 4116 
z
M 2253 4666 
L 3047 4666 
L 3047 1625 
L 3713 1625 
L 3713 1100 
L 3047 1100 
L 3047 0 
L 2419 0 
L 2419 1100 
L 313 1100 
L 313 1709 
L 2253 4666 
z
" id="DejaVuSans-34" transform="scale(0.015625)"/>
       </defs>
       <use xlink:href="#DejaVuSans-32"/>
       <use x="63.623047" xlink:href="#DejaVuSans-30"/>
       <use x="127.246094" xlink:href="#DejaVuSans-32"/>
       <use x="190.869141" xlink:href="#DejaVuSans-32"/>
       <use x="254.492188" xlink:href="#DejaVuSans-2d"/>
       <use x="290.576172" xlink:href="#DejaVuSans-30"/>
       <use x="354.199219" xlink:href="#DejaVuSans-34"/>
      </g>
     </g>
    </g>
    <g id="xtick_9">
     <g id="line2d_9">
      <g>
       <use style="stroke:#000000;stroke-width:0.8;" x="395.920834" xlink:href="#m133e90d634" y="276.48"/>
      </g>
     </g>
     <g id="text_9">
      <!-- 2022-05 -->
      <g transform="translate(358.696013 310.951846)rotate(-30)scale(0.1 -0.1)">
       <defs>
        <path d="M 691 4666 
L 3169 4666 
L 3169 4134 
L 1269 4134 
L 1269 2991 
Q 1406 3038 1543 3061 
Q 1681 3084 1819 3084 
Q 2600 3084 3056 2656 
Q 3513 2228 3513 1497 
Q 3513 744 3044 326 
Q 2575 -91 1722 -91 
Q 1428 -91 1123 -41 
Q 819 9 494 109 
L 494 744 
Q 775 591 1075 516 
Q 1375 441 1709 441 
Q 2250 441 2565 725 
Q 2881 1009 2881 1497 
Q 2881 1984 2565 2268 
Q 2250 2553 1709 2553 
Q 1456 2553 1204 2497 
Q 953 2441 691 2322 
L 691 4666 
z
" id="DejaVuSans-35" transform="scale(0.015625)"/>
       </defs>
       <use xlink:href="#DejaVuSans-32"/>
       <use x="63.623047" xlink:href="#DejaVuSans-30"/>
       <use x="127.246094" xlink:href="#DejaVuSans-32"/>
       <use x="190.869141" xlink:href="#DejaVuSans-32"/>
       <use x="254.492188" xlink:href="#DejaVuSans-2d"/>
       <use x="290.576172" xlink:href="#DejaVuSans-30"/>
       <use x="354.199219" xlink:href="#DejaVuSans-35"/>
      </g>
     </g>
    </g>
    <g id="text_10">
     <!-- date -->
     <g transform="translate(224.885 324.351346)scale(0.1 -0.1)">
      <defs>
       <path d="M 2906 2969 
L 2906 4863 
L 3481 4863 
L 3481 0 
L 2906 0 
L 2906 525 
Q 2725 213 2448 61 
Q 2172 -91 1784 -91 
Q 1150 -91 751 415 
Q 353 922 353 1747 
Q 353 2572 751 3078 
Q 1150 3584 1784 3584 
Q 2172 3584 2448 3432 
Q 2725 3281 2906 2969 
z
M 947 1747 
Q 947 1113 1208 752 
Q 1469 391 1925 391 
Q 2381 391 2643 752 
Q 2906 1113 2906 1747 
Q 2906 2381 2643 2742 
Q 2381 3103 1925 3103 
Q 1469 3103 1208 2742 
Q 947 2381 947 1747 
z
" id="DejaVuSans-64" transform="scale(0.015625)"/>
       <path d="M 2194 1759 
Q 1497 1759 1228 1600 
Q 959 1441 959 1056 
Q 959 750 1161 570 
Q 1363 391 1709 391 
Q 2188 391 2477 730 
Q 2766 1069 2766 1631 
L 2766 1759 
L 2194 1759 
z
M 3341 1997 
L 3341 0 
L 2766 0 
L 2766 531 
Q 2569 213 2275 61 
Q 1981 -91 1556 -91 
Q 1019 -91 701 211 
Q 384 513 384 1019 
Q 384 1609 779 1909 
Q 1175 2209 1959 2209 
L 2766 2209 
L 2766 2266 
Q 2766 2663 2505 2880 
Q 2244 3097 1772 3097 
Q 1472 3097 1187 3025 
Q 903 2953 641 2809 
L 641 3341 
Q 956 3463 1253 3523 
Q 1550 3584 1831 3584 
Q 2591 3584 2966 3190 
Q 3341 2797 3341 1997 
z
" id="DejaVuSans-61" transform="scale(0.015625)"/>
       <path d="M 1172 4494 
L 1172 3500 
L 2356 3500 
L 2356 3053 
L 1172 3053 
L 1172 1153 
Q 1172 725 1289 603 
Q 1406 481 1766 481 
L 2356 481 
L 2356 0 
L 1766 0 
Q 1100 0 847 248 
Q 594 497 594 1153 
L 594 3053 
L 172 3053 
L 172 3500 
L 594 3500 
L 594 4494 
L 1172 4494 
z
" id="DejaVuSans-74" transform="scale(0.015625)"/>
       <path d="M 3597 1894 
L 3597 1613 
L 953 1613 
Q 991 1019 1311 708 
Q 1631 397 2203 397 
Q 2534 397 2845 478 
Q 3156 559 3463 722 
L 3463 178 
Q 3153 47 2828 -22 
Q 2503 -91 2169 -91 
Q 1331 -91 842 396 
Q 353 884 353 1716 
Q 353 2575 817 3079 
Q 1281 3584 2069 3584 
Q 2775 3584 3186 3129 
Q 3597 2675 3597 1894 
z
M 3022 2063 
Q 3016 2534 2758 2815 
Q 2500 3097 2075 3097 
Q 1594 3097 1305 2825 
Q 1016 2553 972 2059 
L 3022 2063 
z
" id="DejaVuSans-65" transform="scale(0.015625)"/>
      </defs>
      <use xlink:href="#DejaVuSans-64"/>
      <use x="63.476562" xlink:href="#DejaVuSans-61"/>
      <use x="124.755859" xlink:href="#DejaVuSans-74"/>
      <use x="163.964844" xlink:href="#DejaVuSans-65"/>
     </g>
    </g>
   </g>
   <g id="matplotlib.axis_2">
    <g id="ytick_1">
     <g id="line2d_10">
      <defs>
       <path d="M 0 0 
L -3.5 0 
" id="m3307962f62" style="stroke:#000000;stroke-width:0.8;"/>
      </defs>
      <g>
       <use style="stroke:#000000;stroke-width:0.8;" x="57.6" xlink:href="#m3307962f62" y="249.394512"/>
      </g>
     </g>
     <g id="text_11">
      <!-- 80000 -->
      <g transform="translate(18.7875 253.19373)scale(0.1 -0.1)">
       <defs>
        <path d="M 2034 2216 
Q 1584 2216 1326 1975 
Q 1069 1734 1069 1313 
Q 1069 891 1326 650 
Q 1584 409 2034 409 
Q 2484 409 2743 651 
Q 3003 894 3003 1313 
Q 3003 1734 2745 1975 
Q 2488 2216 2034 2216 
z
M 1403 2484 
Q 997 2584 770 2862 
Q 544 3141 544 3541 
Q 544 4100 942 4425 
Q 1341 4750 2034 4750 
Q 2731 4750 3128 4425 
Q 3525 4100 3525 3541 
Q 3525 3141 3298 2862 
Q 3072 2584 2669 2484 
Q 3125 2378 3379 2068 
Q 3634 1759 3634 1313 
Q 3634 634 3220 271 
Q 2806 -91 2034 -91 
Q 1263 -91 848 271 
Q 434 634 434 1313 
Q 434 1759 690 2068 
Q 947 2378 1403 2484 
z
M 1172 3481 
Q 1172 3119 1398 2916 
Q 1625 2713 2034 2713 
Q 2441 2713 2670 2916 
Q 2900 3119 2900 3481 
Q 2900 3844 2670 4047 
Q 2441 4250 2034 4250 
Q 1625 4250 1398 4047 
Q 1172 3844 1172 3481 
z
" id="DejaVuSans-38" transform="scale(0.015625)"/>
       </defs>
       <use xlink:href="#DejaVuSans-38"/>
       <use x="63.623047" xlink:href="#DejaVuSans-30"/>
       <use x="127.246094" xlink:href="#DejaVuSans-30"/>
       <use x="190.869141" xlink:href="#DejaVuSans-30"/>
       <use x="254.492188" xlink:href="#DejaVuSans-30"/>
      </g>
     </g>
    </g>
    <g id="ytick_2">
     <g id="line2d_11">
      <g>
       <use style="stroke:#000000;stroke-width:0.8;" x="57.6" xlink:href="#m3307962f62" y="220.738279"/>
      </g>
     </g>
     <g id="text_12">
      <!-- 85000 -->
      <g transform="translate(18.7875 224.537498)scale(0.1 -0.1)">
       <use xlink:href="#DejaVuSans-38"/>
       <use x="63.623047" xlink:href="#DejaVuSans-35"/>
       <use x="127.246094" xlink:href="#DejaVuSans-30"/>
       <use x="190.869141" xlink:href="#DejaVuSans-30"/>
       <use x="254.492188" xlink:href="#DejaVuSans-30"/>
      </g>
     </g>
    </g>
    <g id="ytick_3">
     <g id="line2d_12">
      <g>
       <use style="stroke:#000000;stroke-width:0.8;" x="57.6" xlink:href="#m3307962f62" y="192.082047"/>
      </g>
     </g>
     <g id="text_13">
      <!-- 90000 -->
      <g transform="translate(18.7875 195.881266)scale(0.1 -0.1)">
       <use xlink:href="#DejaVuSans-39"/>
       <use x="63.623047" xlink:href="#DejaVuSans-30"/>
       <use x="127.246094" xlink:href="#DejaVuSans-30"/>
       <use x="190.869141" xlink:href="#DejaVuSans-30"/>
       <use x="254.492188" xlink:href="#DejaVuSans-30"/>
      </g>
     </g>
    </g>
    <g id="ytick_4">
     <g id="line2d_13">
      <g>
       <use style="stroke:#000000;stroke-width:0.8;" x="57.6" xlink:href="#m3307962f62" y="163.425815"/>
      </g>
     </g>
     <g id="text_14">
      <!-- 95000 -->
      <g transform="translate(18.7875 167.225034)scale(0.1 -0.1)">
       <use xlink:href="#DejaVuSans-39"/>
       <use x="63.623047" xlink:href="#DejaVuSans-35"/>
       <use x="127.246094" xlink:href="#DejaVuSans-30"/>
       <use x="190.869141" xlink:href="#DejaVuSans-30"/>
       <use x="254.492188" xlink:href="#DejaVuSans-30"/>
      </g>
     </g>
    </g>
    <g id="ytick_5">
     <g id="line2d_14">
      <g>
       <use style="stroke:#000000;stroke-width:0.8;" x="57.6" xlink:href="#m3307962f62" y="134.769583"/>
      </g>
     </g>
     <g id="text_15">
      <!-- 100000 -->
      <g transform="translate(12.425 138.568802)scale(0.1 -0.1)">
       <use xlink:href="#DejaVuSans-31"/>
       <use x="63.623047" xlink:href="#DejaVuSans-30"/>
       <use x="127.246094" xlink:href="#DejaVuSans-30"/>
       <use x="190.869141" xlink:href="#DejaVuSans-30"/>
       <use x="254.492188" xlink:href="#DejaVuSans-30"/>
       <use x="318.115234" xlink:href="#DejaVuSans-30"/>
      </g>
     </g>
    </g>
    <g id="ytick_6">
     <g id="line2d_15">
      <g>
       <use style="stroke:#000000;stroke-width:0.8;" x="57.6" xlink:href="#m3307962f62" y="106.113351"/>
      </g>
     </g>
     <g id="text_16">
      <!-- 105000 -->
      <g transform="translate(12.425 109.91257)scale(0.1 -0.1)">
       <use xlink:href="#DejaVuSans-31"/>
       <use x="63.623047" xlink:href="#DejaVuSans-30"/>
       <use x="127.246094" xlink:href="#DejaVuSans-35"/>
       <use x="190.869141" xlink:href="#DejaVuSans-30"/>
       <use x="254.492188" xlink:href="#DejaVuSans-30"/>
       <use x="318.115234" xlink:href="#DejaVuSans-30"/>
      </g>
     </g>
    </g>
    <g id="ytick_7">
     <g id="line2d_16">
      <g>
       <use style="stroke:#000000;stroke-width:0.8;" x="57.6" xlink:href="#m3307962f62" y="77.457119"/>
      </g>
     </g>
     <g id="text_17">
      <!-- 110000 -->
      <g transform="translate(12.425 81.256338)scale(0.1 -0.1)">
       <use xlink:href="#DejaVuSans-31"/>
       <use x="63.623047" xlink:href="#DejaVuSans-31"/>
       <use x="127.246094" xlink:href="#DejaVuSans-30"/>
       <use x="190.869141" xlink:href="#DejaVuSans-30"/>
       <use x="254.492188" xlink:href="#DejaVuSans-30"/>
       <use x="318.115234" xlink:href="#DejaVuSans-30"/>
      </g>
     </g>
    </g>
    <g id="ytick_8">
     <g id="line2d_17">
      <g>
       <use style="stroke:#000000;stroke-width:0.8;" x="57.6" xlink:href="#m3307962f62" y="48.800887"/>
      </g>
     </g>
     <g id="text_18">
      <!-- 115000 -->
      <g transform="translate(12.425 52.600105)scale(0.1 -0.1)">
       <use xlink:href="#DejaVuSans-31"/>
       <use x="63.623047" xlink:href="#DejaVuSans-31"/>
       <use x="127.246094" xlink:href="#DejaVuSans-35"/>
       <use x="190.869141" xlink:href="#DejaVuSans-30"/>
       <use x="254.492188" xlink:href="#DejaVuSans-30"/>
       <use x="318.115234" xlink:href="#DejaVuSans-30"/>
      </g>
     </g>
    </g>
   </g>
   <g id="line2d_18">
    <path clip-path="url(#p588a7e3ae4)" d="M 73.832727 134.769583 
L 75.115947 134.978373 
L 76.399166 132.674268 
L 77.682386 135.671934 
L 78.965605 130.377413 
L 82.815264 126.684034 
L 84.098484 125.653516 
L 85.381703 127.55808 
L 86.664923 126.396462 
L 87.948142 126.760875 
L 93.08102 126.795103 
L 94.36424 129.204237 
L 95.64746 130.892431 
L 96.930679 135.814946 
L 100.780338 130.938367 
L 102.063557 139.186361 
L 103.346777 135.397871 
L 104.629996 137.104001 
L 105.913216 142.538029 
L 109.762875 152.292181 
L 111.046094 153.831617 
L 112.329314 149.90046 
L 113.612533 140.562423 
L 114.895753 136.0085 
L 118.745411 131.806716 
L 120.028631 143.999222 
L 121.311851 141.853348 
L 122.59507 146.453729 
L 123.87829 137.868022 
L 127.727948 148.478306 
L 129.011168 139.797984 
L 130.294387 137.449617 
L 131.577607 137.360723 
L 132.860826 136.721218 
L 137.993705 135.303117 
L 139.276924 142.597093 
L 140.560144 131.617122 
L 141.843363 130.514618 
L 145.693022 125.790421 
L 146.976241 120.557462 
L 148.259461 118.168279 
L 149.542681 127.982445 
L 150.8259 135.605747 
L 154.675559 135.071858 
L 155.958778 140.217132 
L 157.241998 141.455855 
L 158.525217 133.851557 
L 159.808437 141.620388 
L 163.658096 129.580989 
L 164.941315 130.249217 
L 166.224535 124.026543 
L 167.507754 131.490829 
L 168.790974 127.481548 
L 172.640632 126.819381 
L 173.923852 133.939716 
L 175.207072 133.658906 
L 176.490291 138.514082 
L 177.773511 134.172323 
L 181.623169 132.19417 
L 182.906389 132.533492 
L 184.189608 135.504491 
L 185.472828 137.17214 
L 186.756047 137.159373 
L 190.605706 133.610167 
L 191.888926 129.021854 
L 193.172145 129.688988 
L 195.738584 129.728486 
L 199.588243 134.565606 
L 200.871462 146.083037 
L 202.154682 153.411346 
L 203.437902 146.194499 
L 204.721121 150.278447 
L 208.57078 139.460681 
L 209.853999 129.196252 
L 211.137219 124.715012 
L 212.420438 124.64887 
L 213.703658 122.899353 
L 217.553317 128.240013 
L 220.119756 122.355125 
L 221.402975 119.532025 
L 222.686195 126.581201 
L 226.535853 134.409932 
L 227.819073 121.214211 
L 229.102292 118.512445 
L 230.385512 113.238351 
L 235.51839 105.80228 
L 236.80161 105.903294 
L 238.084829 105.782204 
L 239.368049 106.839088 
L 240.651268 109.917568 
L 244.500927 100.471366 
L 245.784147 92.862947 
L 247.067366 108.357005 
L 248.350586 103.701426 
L 249.633805 101.126158 
L 253.483464 100.880956 
L 254.766683 95.509665 
L 256.049903 94.469832 
L 257.333123 102.028426 
L 258.616342 100.264324 
L 263.74922 113.472346 
L 265.03244 115.994331 
L 266.315659 123.213402 
L 267.598879 136.223169 
L 271.448538 135.41619 
L 272.731757 142.324817 
L 274.014977 142.625492 
L 275.298196 146.354836 
L 276.581416 131.689191 
L 280.431074 119.239519 
L 281.714294 113.609629 
L 282.997513 104.529979 
L 284.280733 143.435304 
L 285.563953 142.78922 
L 289.413611 152.683733 
L 290.696831 154.148536 
L 291.98005 141.578108 
L 293.26327 151.71394 
L 294.546489 164.308755 
L 298.396148 167.738289 
L 299.679368 160.906141 
L 300.962587 164.108756 
L 302.245807 174.269942 
L 303.529026 177.049607 
L 308.661904 183.06387 
L 309.945124 190.329989 
L 311.228344 178.985785 
L 312.511563 169.109651 
L 316.361222 171.005815 
L 317.644441 179.335997 
L 318.927661 168.097987 
L 320.21088 170.498138 
L 321.4941 174.235537 
L 325.343759 196.302909 
L 326.626978 196.558197 
L 327.910198 174.990759 
L 329.193417 181.902012 
L 330.476637 191.512388 
L 334.326295 193.236604 
L 335.609515 182.806684 
L 336.892734 166.151845 
L 338.175954 160.110117 
L 339.459174 150.103251 
L 343.308832 152.417245 
L 344.592052 141.970582 
L 345.875271 147.969752 
L 347.158491 138.307045 
L 348.44171 133.051187 
L 352.291369 130.614767 
L 353.574589 125.694093 
L 354.857808 127.932222 
L 356.141028 140.731192 
L 357.424247 138.016252 
L 361.273906 131.376651 
L 362.557125 137.743278 
L 363.840345 146.572175 
L 366.406784 148.340904 
L 371.539662 162.876827 
L 372.822882 160.022631 
L 374.106101 170.095171 
L 379.23898 166.056672 
L 380.522199 156.311339 
L 381.805419 162.945157 
L 383.088638 175.532809 
L 384.371858 192.591585 
L 388.221516 188.215726 
L 389.504736 197.474939 
L 390.787955 203.297848 
L 392.071175 170.402095 
L 393.354395 187.13966 
L 397.204053 179.77409 
L 398.487273 179.929372 
L 398.487273 179.929372 
" style="fill:none;stroke:#0000ff;stroke-linecap:square;stroke-opacity:0.9;stroke-width:2;"/>
   </g>
   <g id="line2d_19">
    <path clip-path="url(#p588a7e3ae4)" d="M 73.832727 134.769583 
L 75.115947 131.538604 
L 76.399166 128.932908 
L 77.682386 132.57221 
L 78.965605 125.727811 
L 82.815264 124.021705 
L 84.098484 122.998873 
L 85.381703 123.026576 
L 86.664923 123.64132 
L 87.948142 123.489697 
L 93.08102 122.547484 
L 94.36424 124.958112 
L 95.64746 125.852587 
L 96.930679 132.251741 
L 100.780338 127.91109 
L 102.063557 133.59517 
L 103.346777 130.59123 
L 104.629996 132.255282 
L 105.913216 139.644859 
L 109.762875 149.203131 
L 111.046094 149.150512 
L 112.329314 145.947531 
L 113.612533 138.773608 
L 114.895753 134.158725 
L 118.745411 130.267329 
L 120.028631 142.006439 
L 121.311851 141.432437 
L 122.59507 146.753852 
L 123.87829 138.298826 
L 127.727948 144.683221 
L 129.011168 136.506641 
L 131.577607 133.372344 
L 132.860826 131.022082 
L 136.710485 134.107573 
L 137.993705 138.732287 
L 139.276924 140.188222 
L 140.560144 126.566667 
L 141.843363 122.312942 
L 145.693022 121.101349 
L 146.976241 115.637136 
L 148.259461 112.440477 
L 149.542681 120.110387 
L 150.8259 123.222905 
L 154.675559 125.266553 
L 155.958778 127.795879 
L 157.241998 131.633041 
L 158.525217 123.159141 
L 159.808437 122.549914 
L 163.658096 121.848807 
L 164.941315 119.562822 
L 166.224535 115.174988 
L 167.507754 116.336902 
L 168.790974 116.530374 
L 172.640632 115.461464 
L 173.923852 120.642236 
L 175.207072 123.516348 
L 176.490291 123.497516 
L 177.773511 119.534868 
L 181.623169 117.971857 
L 182.906389 119.553283 
L 184.189608 120.104347 
L 185.472828 119.79247 
L 186.756047 121.877344 
L 190.605706 119.497937 
L 191.888926 114.015667 
L 193.172145 113.732093 
L 195.738584 128.425332 
L 199.588243 122.206877 
L 200.871462 134.821238 
L 202.154682 141.435045 
L 203.437902 133.322992 
L 204.721121 138.055406 
L 208.57078 129.427892 
L 209.853999 119.582069 
L 211.137219 116.347961 
L 212.420438 116.606219 
L 213.703658 112.682884 
L 217.553317 118.997071 
L 218.836536 118.792625 
L 220.119756 114.040444 
L 221.402975 113.714715 
L 222.686195 121.48253 
L 226.535853 128.440869 
L 227.819073 116.868878 
L 229.102292 113.792141 
L 230.385512 108.804706 
L 235.51839 100.920083 
L 236.80161 101.553258 
L 238.084829 100.537854 
L 239.368049 101.780194 
L 240.651268 103.946062 
L 244.500927 97.505364 
L 245.784147 91.464436 
L 247.067366 104.971336 
L 248.350586 102.56475 
L 249.633805 99.278757 
L 253.483464 99.865555 
L 254.766683 96.255097 
L 256.049903 95.847225 
L 257.333123 100.642957 
L 258.616342 101.172449 
L 263.74922 114.15195 
L 266.315659 125.941093 
L 267.598879 137.509894 
L 271.448538 138.57306 
L 272.731757 137.275549 
L 274.014977 137.907122 
L 275.298196 142.912229 
L 276.581416 129.210091 
L 280.431074 120.355437 
L 281.714294 113.557696 
L 282.997513 103.937226 
L 284.280733 130.421261 
L 285.563953 126.071605 
L 289.413611 129.875923 
L 290.696831 125.845415 
L 291.98005 120.764932 
L 293.26327 130.042292 
L 294.546489 142.297747 
L 298.396148 147.456383 
L 299.679368 140.618684 
L 300.962587 142.296771 
L 302.245807 153.342367 
L 303.529026 155.753765 
L 308.661904 160.559026 
L 309.945124 168.019814 
L 311.228344 165.255209 
L 312.511563 152.120682 
L 316.361222 157.716362 
L 317.644441 168.862383 
L 318.927661 156.342861 
L 320.21088 157.473049 
L 321.4941 165.435751 
L 325.343759 184.583349 
L 326.626978 186.880835 
L 327.910198 168.056297 
L 329.193417 174.989398 
L 330.476637 180.472527 
L 334.326295 181.382615 
L 335.609515 172.066473 
L 336.892734 159.679893 
L 339.459174 149.245777 
L 343.308832 148.781967 
L 344.592052 139.672556 
L 345.875271 144.892133 
L 347.158491 136.774419 
L 348.44171 130.442414 
L 352.291369 129.479679 
L 353.574589 126.808188 
L 354.857808 127.490748 
L 356.141028 138.471068 
L 357.424247 136.168479 
L 361.273906 132.146349 
L 362.557125 137.334947 
L 363.840345 144.99728 
L 365.123564 145.25663 
L 366.406784 144.969421 
L 371.539662 155.978347 
L 372.822882 154.326451 
L 374.106101 162.559292 
L 379.23898 158.918079 
L 380.522199 151.27431 
L 381.805419 148.726179 
L 383.088638 155.84164 
L 384.371858 171.972484 
L 388.221516 170.786699 
L 389.504736 179.887163 
L 390.787955 181.17989 
L 392.071175 163.341917 
L 393.354395 179.893122 
L 397.204053 177.094906 
L 398.487273 172.560137 
L 398.487273 172.560137 
" style="fill:none;stroke:#ff0000;stroke-linecap:square;stroke-opacity:0.9;stroke-width:2;"/>
   </g>
   <g id="line2d_20">
    <path clip-path="url(#p588a7e3ae4)" d="M 73.832727 134.769583 
L 75.115947 131.790869 
L 76.399166 129.584277 
L 77.682386 132.339104 
L 78.965605 127.015652 
L 82.815264 123.565524 
L 84.098484 122.595817 
L 85.381703 123.874892 
L 86.664923 123.192278 
L 87.948142 123.484833 
L 93.08102 123.202211 
L 94.36424 125.227335 
L 95.64746 127.00474 
L 96.930679 132.023896 
L 100.780338 127.480132 
L 102.063557 135.339685 
L 103.346777 131.65384 
L 104.629996 132.902319 
L 105.913216 138.742831 
L 109.762875 148.112493 
L 111.046094 149.659422 
L 112.329314 145.787501 
L 113.612533 136.287602 
L 114.895753 131.534072 
L 118.745411 126.873665 
L 120.028631 139.175528 
L 121.311851 137.051576 
L 122.59507 141.493023 
L 123.87829 132.390638 
L 127.727948 142.930589 
L 129.011168 134.329172 
L 130.294387 132.558656 
L 132.860826 128.4851 
L 136.710485 131.751371 
L 137.993705 135.955516 
L 139.276924 137.355176 
L 140.560144 125.854374 
L 141.843363 125.417195 
L 145.693022 120.507361 
L 146.976241 114.298124 
L 148.259461 111.656492 
L 149.542681 121.519134 
L 150.8259 129.155505 
L 154.675559 128.37878 
L 155.958778 134.015827 
L 157.241998 135.272783 
L 158.525217 127.896165 
L 159.808437 127.016833 
L 163.658096 123.543427 
L 164.941315 122.911555 
L 166.224535 118.116891 
L 167.507754 117.586714 
L 168.790974 113.925886 
L 172.640632 113.305312 
L 173.923852 120.490975 
L 175.207072 124.637519 
L 176.490291 125.04518 
L 177.773511 120.641753 
L 181.623169 118.730624 
L 182.906389 121.528108 
L 184.189608 122.103506 
L 185.472828 123.427846 
L 186.756047 123.537995 
L 190.605706 119.982721 
L 191.888926 115.035472 
L 193.172145 115.246914 
L 195.738584 128.834823 
L 199.588243 121.456514 
L 200.871462 132.913245 
L 202.154682 140.464791 
L 203.437902 133.870147 
L 204.721121 137.523736 
L 208.57078 126.913029 
L 209.853999 116.539899 
L 211.137219 111.824142 
L 212.420438 111.133233 
L 213.703658 109.431925 
L 217.553317 115.029631 
L 218.836536 112.073088 
L 220.119756 108.565261 
L 221.402975 106.303154 
L 222.686195 113.590507 
L 226.535853 121.732725 
L 227.819073 107.733403 
L 229.102292 105.159811 
L 230.385512 99.520302 
L 235.51839 92.169777 
L 238.084829 92.359988 
L 239.368049 93.347 
L 240.651268 95.714474 
L 244.500927 86.407687 
L 245.784147 78.584463 
L 247.067366 94.906801 
L 248.350586 88.411803 
L 249.633805 86.408081 
L 253.483464 85.102975 
L 254.766683 79.728184 
L 256.049903 78.322533 
L 257.333123 85.719845 
L 258.616342 83.696051 
L 265.03244 100.106759 
L 266.315659 107.1835 
L 267.598879 121.131289 
L 271.448538 119.940228 
L 272.731757 126.956022 
L 274.014977 127.260986 
L 275.298196 130.984534 
L 276.581416 116.227879 
L 280.431074 102.871561 
L 281.714294 97.18994 
L 282.997513 86.907953 
L 284.280733 128.524984 
L 285.563953 128.131634 
L 289.413611 138.245928 
L 290.696831 139.108412 
L 291.98005 126.283114 
L 293.26327 136.841754 
L 294.546489 149.510281 
L 298.396148 153.659395 
L 299.679368 146.613776 
L 300.962587 149.374285 
L 302.245807 160.005309 
L 303.529026 163.432764 
L 308.661904 168.960379 
L 309.945124 176.332014 
L 311.228344 163.778797 
L 312.511563 153.738224 
L 316.361222 155.940835 
L 317.644441 164.108483 
L 318.927661 153.007501 
L 320.21088 156.070834 
L 325.343759 186.773227 
L 326.626978 184.671478 
L 327.910198 161.399304 
L 330.476637 178.033143 
L 334.326295 178.61206 
L 335.609515 168.516512 
L 336.892734 150.214944 
L 338.175954 143.844592 
L 339.459174 135.547174 
L 343.308832 137.797696 
L 344.592052 125.527893 
L 345.875271 132.397874 
L 347.158491 123.42905 
L 348.44171 116.840255 
L 352.291369 116.465394 
L 353.574589 112.288464 
L 354.857808 114.690095 
L 356.141028 129.928752 
L 357.424247 128.578799 
L 361.273906 123.010675 
L 363.840345 138.992092 
L 365.123564 141.812576 
L 366.406784 141.800701 
L 371.539662 153.779385 
L 372.822882 151.190233 
L 374.106101 162.068469 
L 379.23898 155.810017 
L 380.522199 145.733034 
L 381.805419 149.003048 
L 383.088638 161.360496 
L 384.371858 179.694496 
L 388.221516 176.122109 
L 389.504736 189.708786 
L 390.787955 195.584706 
L 392.071175 166.356468 
L 393.354395 183.189817 
L 397.204053 173.952399 
L 398.487273 168.083472 
L 398.487273 168.083472 
" style="fill:none;stroke:#ff8040;stroke-linecap:square;stroke-opacity:0.9;stroke-width:2;"/>
   </g>
   <g id="line2d_21">
    <path clip-path="url(#p588a7e3ae4)" d="M 73.832727 135.342708 
L 76.399166 131.986293 
L 77.682386 136.205092 
L 78.965605 130.583818 
L 82.815264 132.723312 
L 84.098484 131.718745 
L 85.381703 130.186898 
L 86.664923 132.446253 
L 87.948142 132.027455 
L 93.08102 133.978885 
L 94.36424 136.350417 
L 95.64746 136.662326 
L 96.930679 144.21683 
L 100.780338 140.971283 
L 102.063557 145.042488 
L 103.346777 143.08314 
L 104.629996 144.567993 
L 105.913216 152.431758 
L 109.762875 162.253993 
L 111.046094 162.402746 
L 112.329314 160.911082 
L 113.612533 155.212382 
L 114.895753 151.00766 
L 118.745411 146.29238 
L 120.028631 158.984297 
L 121.311851 156.779774 
L 122.59507 162.904049 
L 123.87829 155.249586 
L 127.727948 163.868485 
L 129.011168 158.277961 
L 131.577607 157.208053 
L 132.860826 154.452198 
L 136.710485 157.791191 
L 137.993705 163.394505 
L 139.276924 164.412647 
L 140.560144 153.899625 
L 141.843363 149.535315 
L 145.693022 148.320301 
L 146.976241 143.545336 
L 148.259461 139.296878 
L 149.542681 147.381753 
L 150.8259 151.620636 
L 154.675559 154.951702 
L 155.958778 159.341629 
L 157.241998 163.083044 
L 158.525217 154.924732 
L 159.808437 156.146152 
L 164.941315 149.960621 
L 166.224535 144.849224 
L 167.507754 147.68782 
L 168.790974 146.835254 
L 172.640632 146.036682 
L 173.923852 148.895488 
L 175.207072 150.851861 
L 176.490291 151.063556 
L 177.773511 149.990781 
L 181.623169 149.575392 
L 182.906389 151.349531 
L 184.189608 152.518403 
L 186.756047 153.06029 
L 190.605706 154.239245 
L 191.888926 146.409119 
L 193.172145 145.056542 
L 195.738584 160.013394 
L 199.588243 153.304195 
L 200.871462 165.549186 
L 202.154682 172.026345 
L 203.437902 164.374828 
L 204.721121 167.047415 
L 208.57078 157.845032 
L 209.853999 151.375886 
L 211.137219 148.470094 
L 212.420438 148.848084 
L 213.703658 144.275524 
L 217.553317 149.180301 
L 218.836536 149.881264 
L 220.119756 145.657082 
L 221.402975 149.545082 
L 222.686195 154.641204 
L 226.535853 161.669039 
L 227.819073 148.427294 
L 229.102292 145.06771 
L 230.385512 141.320872 
L 235.51839 133.933492 
L 236.80161 132.81261 
L 238.084829 133.046409 
L 239.368049 133.471479 
L 240.651268 134.141668 
L 244.500927 130.267902 
L 245.784147 124.290807 
L 247.067366 137.558282 
L 248.350586 135.7923 
L 249.633805 135.758436 
L 253.483464 137.630496 
L 254.766683 133.516616 
L 256.049903 133.366896 
L 257.333123 137.799372 
L 258.616342 136.973237 
L 263.74922 147.346348 
L 265.03244 151.905476 
L 266.315659 157.856804 
L 267.598879 170.048138 
L 271.448538 169.92182 
L 272.731757 174.548307 
L 274.014977 176.172737 
L 275.298196 181.2557 
L 276.581416 168.273311 
L 280.431074 161.498115 
L 281.714294 155.563963 
L 282.997513 147.311406 
L 284.280733 195.716111 
L 285.563953 189.725627 
L 289.413611 196.77717 
L 290.696831 193.915097 
L 291.98005 188.537651 
L 293.26327 198.489416 
L 294.546489 210.257963 
L 298.396148 214.898649 
L 299.679368 208.889619 
L 300.962587 212.194869 
L 302.245807 221.324543 
L 303.529026 223.852691 
L 308.661904 227.006095 
L 309.945124 233.918306 
L 311.228344 225.434102 
L 312.511563 215.940839 
L 316.361222 219.249865 
L 317.644441 231.609029 
L 318.927661 220.595451 
L 320.21088 225.207484 
L 321.4941 230.975984 
L 325.343759 250.860255 
L 326.626978 253.204729 
L 327.910198 234.536544 
L 329.193417 243.127073 
L 330.476637 248.675983 
L 334.326295 249.188372 
L 335.609515 240.728062 
L 336.892734 228.73302 
L 338.175954 223.698392 
L 339.459174 214.299311 
L 343.308832 215.217727 
L 344.592052 207.20845 
L 345.875271 213.848396 
L 347.158491 204.896158 
L 348.44171 199.119434 
L 352.291369 198.850743 
L 353.574589 197.364344 
L 354.857808 197.887654 
L 356.141028 208.819656 
L 357.424247 206.865877 
L 361.273906 206.083895 
L 362.557125 211.446569 
L 363.840345 217.741994 
L 365.123564 217.936993 
L 366.406784 216.92752 
L 370.256443 225.644888 
L 371.539662 229.077707 
L 372.822882 226.57789 
L 374.106101 236.128347 
L 379.23898 231.442284 
L 380.522199 223.994023 
L 381.805419 232.08808 
L 384.371858 258.078576 
L 388.221516 256.524737 
L 389.504736 265.797818 
L 390.787955 265.462524 
L 392.071175 243.745138 
L 393.354395 258.507648 
L 397.204053 258.10936 
L 398.487273 255.884052 
L 398.487273 255.884052 
" style="fill:none;stroke:#0d0d0d;stroke-linecap:square;stroke-opacity:0.25;stroke-width:2;"/>
   </g>
   <g id="line2d_22">
    <path clip-path="url(#p588a7e3ae4)" d="M 73.832727 134.196458 
L 75.115947 129.688909 
L 76.399166 125.913935 
L 77.682386 128.538541 
L 78.965605 121.127225 
L 84.098484 112.945841 
L 85.381703 114.515989 
L 86.664923 115.889446 
L 87.948142 115.248285 
L 93.08102 113.007213 
L 94.36424 114.123239 
L 95.64746 114.200044 
L 96.930679 120.842318 
L 100.780338 116.978347 
L 102.063557 124.380459 
L 103.346777 121.564979 
L 104.629996 123.218954 
L 105.913216 129.504258 
L 109.762875 136.947092 
L 111.046094 137.57802 
L 112.329314 132.768938 
L 113.612533 121.294314 
L 114.895753 116.460627 
L 118.745411 109.011831 
L 120.028631 120.145216 
L 121.311851 118.836401 
L 122.59507 123.569542 
L 123.87829 115.414829 
L 127.727948 125.811865 
L 129.011168 116.406516 
L 130.294387 114.18061 
L 131.577607 114.795273 
L 132.860826 111.772892 
L 136.710485 116.824093 
L 137.993705 121.814203 
L 139.276924 123.171429 
L 140.560144 108.347426 
L 141.843363 102.955506 
L 145.693022 100.117355 
L 148.259461 90.605548 
L 149.542681 97.844828 
L 150.8259 97.410775 
L 154.675559 99.437001 
L 155.958778 105.113839 
L 157.241998 108.246915 
L 158.525217 99.071206 
L 159.808437 98.637855 
L 163.658096 93.581807 
L 164.941315 91.261601 
L 166.224535 86.96922 
L 167.507754 90.839757 
L 168.790974 89.413899 
L 172.640632 87.863457 
L 173.923852 92.129194 
L 175.207072 94.624308 
L 176.490291 94.465628 
L 177.773511 89.562497 
L 181.623169 88.814405 
L 182.906389 91.001138 
L 184.189608 91.436897 
L 185.472828 91.067828 
L 186.756047 91.549488 
L 190.605706 87.526285 
L 191.888926 81.377909 
L 193.172145 79.798466 
L 195.738584 97.017473 
L 199.588243 89.017335 
L 200.871462 103.0041 
L 202.154682 108.923508 
L 203.437902 98.944551 
L 204.721121 104.301944 
L 208.57078 94.498086 
L 209.853999 84.580946 
L 211.137219 79.541952 
L 212.420438 80.85073 
L 213.703658 77.925702 
L 217.553317 85.801023 
L 218.836536 83.604267 
L 220.119756 81.792232 
L 221.402975 76.397869 
L 222.686195 87.792953 
L 226.535853 94.328392 
L 227.819073 79.399131 
L 229.102292 76.966619 
L 230.385512 70.015371 
L 235.51839 65.000412 
L 236.80161 64.755686 
L 238.084829 64.393059 
L 239.368049 65.714332 
L 240.651268 67.474489 
L 244.500927 59.36769 
L 245.784147 52.154182 
L 247.067366 66.157388 
L 248.350586 65.921939 
L 249.633805 59.999881 
L 253.483464 59.974041 
L 254.766683 57.488639 
L 256.049903 57.708187 
L 257.333123 63.317235 
L 258.616342 62.568519 
L 263.74922 74.372976 
L 265.03244 78.871281 
L 266.315659 85.469081 
L 267.598879 96.801723 
L 271.448538 98.431643 
L 272.731757 96.955567 
L 274.014977 100.651132 
L 275.298196 105.855766 
L 276.581416 90.504791 
L 280.431074 83.219345 
L 281.714294 75.366952 
L 282.997513 65.316207 
L 284.280733 89.483251 
L 285.563953 87.316144 
L 289.413611 92.496807 
L 290.696831 89.431536 
L 291.98005 82.410722 
L 293.26327 93.35115 
L 294.546489 102.721792 
L 298.396148 111.41232 
L 299.679368 104.609795 
L 300.962587 107.353065 
L 302.245807 119.417103 
L 303.529026 122.91532 
L 308.661904 128.074528 
L 309.945124 136.797732 
L 311.228344 131.834121 
L 312.511563 118.275464 
L 316.361222 121.307356 
L 317.644441 134.856804 
L 318.927661 124.391806 
L 320.21088 125.784582 
L 321.4941 132.744431 
L 325.343759 154.955383 
L 326.626978 150.566145 
L 327.910198 125.885775 
L 330.476637 140.073074 
L 334.326295 142.156511 
L 335.609515 133.107529 
L 336.892734 114.410719 
L 338.175954 108.252638 
L 339.459174 97.316049 
L 343.308832 98.133407 
L 344.592052 87.787688 
L 345.875271 93.410392 
L 347.158491 85.302244 
L 348.44171 80.242268 
L 352.291369 80.380775 
L 353.574589 76.921281 
L 354.857808 76.593048 
L 356.141028 87.720719 
L 357.424247 84.509782 
L 361.273906 77.499856 
L 362.557125 82.997574 
L 363.840345 96.652699 
L 366.406784 96.086166 
L 370.256443 104.889068 
L 371.539662 106.421422 
L 372.822882 103.649324 
L 374.106101 113.370257 
L 379.23898 108.231638 
L 380.522199 100.273567 
L 381.805419 100.121405 
L 383.088638 104.200632 
L 384.371858 121.222214 
L 388.221516 119.472394 
L 389.504736 123.145721 
L 390.787955 131.894821 
L 392.071175 101.728857 
L 393.354395 118.828445 
L 397.204053 111.847949 
L 398.487273 108.781769 
L 398.487273 108.781769 
" style="fill:none;stroke:#0d0d0d;stroke-linecap:square;stroke-opacity:0.25;stroke-width:2;"/>
   </g>
   <g id="patch_3">
    <path d="M 57.6 276.48 
L 57.6 41.472 
" style="fill:none;stroke:#000000;stroke-linecap:square;stroke-linejoin:miter;stroke-width:0.8;"/>
   </g>
   <g id="patch_4">
    <path d="M 414.72 276.48 
L 414.72 41.472 
" style="fill:none;stroke:#000000;stroke-linecap:square;stroke-linejoin:miter;stroke-width:0.8;"/>
   </g>
   <g id="patch_5">
    <path d="M 57.6 276.48 
L 414.72 276.48 
" style="fill:none;stroke:#000000;stroke-linecap:square;stroke-linejoin:miter;stroke-width:0.8;"/>
   </g>
   <g id="patch_6">
    <path d="M 57.6 41.472 
L 414.72 41.472 
" style="fill:none;stroke:#000000;stroke-linecap:square;stroke-linejoin:miter;stroke-width:0.8;"/>
   </g>
   <g id="text_19">
    <!-- TESTFUNDS1550 -->
    <g transform="translate(185.200312 22.034625)scale(0.12 -0.12)">
     <defs>
      <path d="M -19 4666 
L 3928 4666 
L 3928 4134 
L 2272 4134 
L 2272 0 
L 1638 0 
L 1638 4134 
L -19 4134 
L -19 4666 
z
" id="DejaVuSans-54" transform="scale(0.015625)"/>
      <path d="M 628 4666 
L 3578 4666 
L 3578 4134 
L 1259 4134 
L 1259 2753 
L 3481 2753 
L 3481 2222 
L 1259 2222 
L 1259 531 
L 3634 531 
L 3634 0 
L 628 0 
L 628 4666 
z
" id="DejaVuSans-45" transform="scale(0.015625)"/>
      <path d="M 3425 4513 
L 3425 3897 
Q 3066 4069 2747 4153 
Q 2428 4238 2131 4238 
Q 1616 4238 1336 4038 
Q 1056 3838 1056 3469 
Q 1056 3159 1242 3001 
Q 1428 2844 1947 2747 
L 2328 2669 
Q 3034 2534 3370 2195 
Q 3706 1856 3706 1288 
Q 3706 609 3251 259 
Q 2797 -91 1919 -91 
Q 1588 -91 1214 -16 
Q 841 59 441 206 
L 441 856 
Q 825 641 1194 531 
Q 1563 422 1919 422 
Q 2459 422 2753 634 
Q 3047 847 3047 1241 
Q 3047 1584 2836 1778 
Q 2625 1972 2144 2069 
L 1759 2144 
Q 1053 2284 737 2584 
Q 422 2884 422 3419 
Q 422 4038 858 4394 
Q 1294 4750 2059 4750 
Q 2388 4750 2728 4690 
Q 3069 4631 3425 4513 
z
" id="DejaVuSans-53" transform="scale(0.015625)"/>
      <path d="M 628 4666 
L 3309 4666 
L 3309 4134 
L 1259 4134 
L 1259 2759 
L 3109 2759 
L 3109 2228 
L 1259 2228 
L 1259 0 
L 628 0 
L 628 4666 
z
" id="DejaVuSans-46" transform="scale(0.015625)"/>
      <path d="M 556 4666 
L 1191 4666 
L 1191 1831 
Q 1191 1081 1462 751 
Q 1734 422 2344 422 
Q 2950 422 3222 751 
Q 3494 1081 3494 1831 
L 3494 4666 
L 4128 4666 
L 4128 1753 
Q 4128 841 3676 375 
Q 3225 -91 2344 -91 
Q 1459 -91 1007 375 
Q 556 841 556 1753 
L 556 4666 
z
" id="DejaVuSans-55" transform="scale(0.015625)"/>
      <path d="M 628 4666 
L 1478 4666 
L 3547 763 
L 3547 4666 
L 4159 4666 
L 4159 0 
L 3309 0 
L 1241 3903 
L 1241 0 
L 628 0 
L 628 4666 
z
" id="DejaVuSans-4e" transform="scale(0.015625)"/>
      <path d="M 1259 4147 
L 1259 519 
L 2022 519 
Q 2988 519 3436 956 
Q 3884 1394 3884 2338 
Q 3884 3275 3436 3711 
Q 2988 4147 2022 4147 
L 1259 4147 
z
M 628 4666 
L 1925 4666 
Q 3281 4666 3915 4102 
Q 4550 3538 4550 2338 
Q 4550 1131 3912 565 
Q 3275 0 1925 0 
L 628 0 
L 628 4666 
z
" id="DejaVuSans-44" transform="scale(0.015625)"/>
     </defs>
     <use xlink:href="#DejaVuSans-54"/>
     <use x="61.083984" xlink:href="#DejaVuSans-45"/>
     <use x="124.267578" xlink:href="#DejaVuSans-53"/>
     <use x="187.744141" xlink:href="#DejaVuSans-54"/>
     <use x="248.828125" xlink:href="#DejaVuSans-46"/>
     <use x="306.347656" xlink:href="#DejaVuSans-55"/>
     <use x="379.541016" xlink:href="#DejaVuSans-4e"/>
     <use x="454.345703" xlink:href="#DejaVuSans-44"/>
     <use x="531.347656" xlink:href="#DejaVuSans-53"/>
     <use x="594.824219" xlink:href="#DejaVuSans-31"/>
     <use x="658.447266" xlink:href="#DejaVuSans-35"/>
     <use x="722.070312" xlink:href="#DejaVuSans-35"/>
     <use x="785.693359" xlink:href="#DejaVuSans-30"/>
    </g>
    <!-- daily_report -->
    <g transform="translate(200.466563 35.472)scale(0.12 -0.12)">
     <defs>
      <path d="M 603 3500 
L 1178 3500 
L 1178 0 
L 603 0 
L 603 3500 
z
M 603 4863 
L 1178 4863 
L 1178 4134 
L 603 4134 
L 603 4863 
z
" id="DejaVuSans-69" transform="scale(0.015625)"/>
      <path d="M 603 4863 
L 1178 4863 
L 1178 0 
L 603 0 
L 603 4863 
z
" id="DejaVuSans-6c" transform="scale(0.015625)"/>
      <path d="M 2059 -325 
Q 1816 -950 1584 -1140 
Q 1353 -1331 966 -1331 
L 506 -1331 
L 506 -850 
L 844 -850 
Q 1081 -850 1212 -737 
Q 1344 -625 1503 -206 
L 1606 56 
L 191 3500 
L 800 3500 
L 1894 763 
L 2988 3500 
L 3597 3500 
L 2059 -325 
z
" id="DejaVuSans-79" transform="scale(0.015625)"/>
      <path d="M 3263 -1063 
L 3263 -1509 
L -63 -1509 
L -63 -1063 
L 3263 -1063 
z
" id="DejaVuSans-5f" transform="scale(0.015625)"/>
      <path d="M 2631 2963 
Q 2534 3019 2420 3045 
Q 2306 3072 2169 3072 
Q 1681 3072 1420 2755 
Q 1159 2438 1159 1844 
L 1159 0 
L 581 0 
L 581 3500 
L 1159 3500 
L 1159 2956 
Q 1341 3275 1631 3429 
Q 1922 3584 2338 3584 
Q 2397 3584 2469 3576 
Q 2541 3569 2628 3553 
L 2631 2963 
z
" id="DejaVuSans-72" transform="scale(0.015625)"/>
      <path d="M 1159 525 
L 1159 -1331 
L 581 -1331 
L 581 3500 
L 1159 3500 
L 1159 2969 
Q 1341 3281 1617 3432 
Q 1894 3584 2278 3584 
Q 2916 3584 3314 3078 
Q 3713 2572 3713 1747 
Q 3713 922 3314 415 
Q 2916 -91 2278 -91 
Q 1894 -91 1617 61 
Q 1341 213 1159 525 
z
M 3116 1747 
Q 3116 2381 2855 2742 
Q 2594 3103 2138 3103 
Q 1681 3103 1420 2742 
Q 1159 2381 1159 1747 
Q 1159 1113 1420 752 
Q 1681 391 2138 391 
Q 2594 391 2855 752 
Q 3116 1113 3116 1747 
z
" id="DejaVuSans-70" transform="scale(0.015625)"/>
      <path d="M 1959 3097 
Q 1497 3097 1228 2736 
Q 959 2375 959 1747 
Q 959 1119 1226 758 
Q 1494 397 1959 397 
Q 2419 397 2687 759 
Q 2956 1122 2956 1747 
Q 2956 2369 2687 2733 
Q 2419 3097 1959 3097 
z
M 1959 3584 
Q 2709 3584 3137 3096 
Q 3566 2609 3566 1747 
Q 3566 888 3137 398 
Q 2709 -91 1959 -91 
Q 1206 -91 779 398 
Q 353 888 353 1747 
Q 353 2609 779 3096 
Q 1206 3584 1959 3584 
z
" id="DejaVuSans-6f" transform="scale(0.015625)"/>
     </defs>
     <use xlink:href="#DejaVuSans-64"/>
     <use x="63.476562" xlink:href="#DejaVuSans-61"/>
     <use x="124.755859" xlink:href="#DejaVuSans-69"/>
     <use x="152.539062" xlink:href="#DejaVuSans-6c"/>
     <use x="180.322266" xlink:href="#DejaVuSans-79"/>
     <use x="239.501953" xlink:href="#DejaVuSans-5f"/>
     <use x="289.501953" xlink:href="#DejaVuSans-72"/>
     <use x="328.365234" xlink:href="#DejaVuSans-65"/>
     <use x="389.888672" xlink:href="#DejaVuSans-70"/>
     <use x="453.365234" xlink:href="#DejaVuSans-6f"/>
     <use x="514.546875" xlink:href="#DejaVuSans-72"/>
     <use x="555.660156" xlink:href="#DejaVuSans-74"/>
    </g>
   </g>
   <g id="legend_1">
    <g id="patch_7">
     <path d="M 64.6 271.48 
L 155.792188 271.48 
Q 157.792188 271.48 157.792188 269.48 
L 157.792188 197.089375 
Q 157.792188 195.089375 155.792188 195.089375 
L 64.6 195.089375 
Q 62.6 195.089375 62.6 197.089375 
L 62.6 269.48 
Q 62.6 271.48 64.6 271.48 
z
" style="fill:#ffffff;opacity:0.8;stroke:#cccccc;stroke-linejoin:miter;"/>
    </g>
    <g id="line2d_23">
     <path d="M 66.6 203.187812 
L 86.6 203.187812 
" style="fill:none;stroke:#0000ff;stroke-linecap:square;stroke-opacity:0.9;stroke-width:2;"/>
    </g>
    <g id="line2d_24"/>
    <g id="text_20">
     <!-- alpaca -->
     <g transform="translate(94.6 206.687812)scale(0.1 -0.1)">
      <defs>
       <path d="M 3122 3366 
L 3122 2828 
Q 2878 2963 2633 3030 
Q 2388 3097 2138 3097 
Q 1578 3097 1268 2742 
Q 959 2388 959 1747 
Q 959 1106 1268 751 
Q 1578 397 2138 397 
Q 2388 397 2633 464 
Q 2878 531 3122 666 
L 3122 134 
Q 2881 22 2623 -34 
Q 2366 -91 2075 -91 
Q 1284 -91 818 406 
Q 353 903 353 1747 
Q 353 2603 823 3093 
Q 1294 3584 2113 3584 
Q 2378 3584 2631 3529 
Q 2884 3475 3122 3366 
z
" id="DejaVuSans-63" transform="scale(0.015625)"/>
      </defs>
      <use xlink:href="#DejaVuSans-61"/>
      <use x="61.279297" xlink:href="#DejaVuSans-6c"/>
      <use x="89.0625" xlink:href="#DejaVuSans-70"/>
      <use x="152.539062" xlink:href="#DejaVuSans-61"/>
      <use x="213.818359" xlink:href="#DejaVuSans-63"/>
      <use x="268.798828" xlink:href="#DejaVuSans-61"/>
     </g>
    </g>
    <g id="line2d_25">
     <path d="M 66.6 217.865937 
L 86.6 217.865937 
" style="fill:none;stroke:#ff0000;stroke-linecap:square;stroke-opacity:0.9;stroke-width:2;"/>
    </g>
    <g id="line2d_26"/>
    <g id="text_21">
     <!-- mattress -->
     <g transform="translate(94.6 221.365937)scale(0.1 -0.1)">
      <defs>
       <path d="M 3328 2828 
Q 3544 3216 3844 3400 
Q 4144 3584 4550 3584 
Q 5097 3584 5394 3201 
Q 5691 2819 5691 2113 
L 5691 0 
L 5113 0 
L 5113 2094 
Q 5113 2597 4934 2840 
Q 4756 3084 4391 3084 
Q 3944 3084 3684 2787 
Q 3425 2491 3425 1978 
L 3425 0 
L 2847 0 
L 2847 2094 
Q 2847 2600 2669 2842 
Q 2491 3084 2119 3084 
Q 1678 3084 1418 2786 
Q 1159 2488 1159 1978 
L 1159 0 
L 581 0 
L 581 3500 
L 1159 3500 
L 1159 2956 
Q 1356 3278 1631 3431 
Q 1906 3584 2284 3584 
Q 2666 3584 2933 3390 
Q 3200 3197 3328 2828 
z
" id="DejaVuSans-6d" transform="scale(0.015625)"/>
       <path d="M 2834 3397 
L 2834 2853 
Q 2591 2978 2328 3040 
Q 2066 3103 1784 3103 
Q 1356 3103 1142 2972 
Q 928 2841 928 2578 
Q 928 2378 1081 2264 
Q 1234 2150 1697 2047 
L 1894 2003 
Q 2506 1872 2764 1633 
Q 3022 1394 3022 966 
Q 3022 478 2636 193 
Q 2250 -91 1575 -91 
Q 1294 -91 989 -36 
Q 684 19 347 128 
L 347 722 
Q 666 556 975 473 
Q 1284 391 1588 391 
Q 1994 391 2212 530 
Q 2431 669 2431 922 
Q 2431 1156 2273 1281 
Q 2116 1406 1581 1522 
L 1381 1569 
Q 847 1681 609 1914 
Q 372 2147 372 2553 
Q 372 3047 722 3315 
Q 1072 3584 1716 3584 
Q 2034 3584 2315 3537 
Q 2597 3491 2834 3397 
z
" id="DejaVuSans-73" transform="scale(0.015625)"/>
      </defs>
      <use xlink:href="#DejaVuSans-6d"/>
      <use x="97.412109" xlink:href="#DejaVuSans-61"/>
      <use x="158.691406" xlink:href="#DejaVuSans-74"/>
      <use x="197.900391" xlink:href="#DejaVuSans-74"/>
      <use x="237.109375" xlink:href="#DejaVuSans-72"/>
      <use x="275.972656" xlink:href="#DejaVuSans-65"/>
      <use x="337.496094" xlink:href="#DejaVuSans-73"/>
      <use x="389.595703" xlink:href="#DejaVuSans-73"/>
     </g>
    </g>
    <g id="line2d_27">
     <path d="M 66.6 232.544062 
L 86.6 232.544062 
" style="fill:none;stroke:#ff8040;stroke-linecap:square;stroke-opacity:0.9;stroke-width:2;"/>
    </g>
    <g id="line2d_28"/>
    <g id="text_22">
     <!-- trader-0850 -->
     <g transform="translate(94.6 236.044062)scale(0.1 -0.1)">
      <use xlink:href="#DejaVuSans-74"/>
      <use x="39.208984" xlink:href="#DejaVuSans-72"/>
      <use x="80.322266" xlink:href="#DejaVuSans-61"/>
      <use x="141.601562" xlink:href="#DejaVuSans-64"/>
      <use x="205.078125" xlink:href="#DejaVuSans-65"/>
      <use x="266.601562" xlink:href="#DejaVuSans-72"/>
      <use x="301.339844" xlink:href="#DejaVuSans-2d"/>
      <use x="337.423828" xlink:href="#DejaVuSans-30"/>
      <use x="401.046875" xlink:href="#DejaVuSans-38"/>
      <use x="464.669922" xlink:href="#DejaVuSans-35"/>
      <use x="528.292969" xlink:href="#DejaVuSans-30"/>
     </g>
    </g>
    <g id="line2d_29">
     <path d="M 66.6 247.222187 
L 86.6 247.222187 
" style="fill:none;stroke:#0d0d0d;stroke-linecap:square;stroke-opacity:0.25;stroke-width:2;"/>
    </g>
    <g id="line2d_30"/>
    <g id="text_23">
     <!-- rando-min -->
     <g transform="translate(94.6 250.722187)scale(0.1 -0.1)">
      <defs>
       <path d="M 3513 2113 
L 3513 0 
L 2938 0 
L 2938 2094 
Q 2938 2591 2744 2837 
Q 2550 3084 2163 3084 
Q 1697 3084 1428 2787 
Q 1159 2491 1159 1978 
L 1159 0 
L 581 0 
L 581 3500 
L 1159 3500 
L 1159 2956 
Q 1366 3272 1645 3428 
Q 1925 3584 2291 3584 
Q 2894 3584 3203 3211 
Q 3513 2838 3513 2113 
z
" id="DejaVuSans-6e" transform="scale(0.015625)"/>
      </defs>
      <use xlink:href="#DejaVuSans-72"/>
      <use x="41.113281" xlink:href="#DejaVuSans-61"/>
      <use x="102.392578" xlink:href="#DejaVuSans-6e"/>
      <use x="165.771484" xlink:href="#DejaVuSans-64"/>
      <use x="229.248047" xlink:href="#DejaVuSans-6f"/>
      <use x="292.304688" xlink:href="#DejaVuSans-2d"/>
      <use x="328.388672" xlink:href="#DejaVuSans-6d"/>
      <use x="425.800781" xlink:href="#DejaVuSans-69"/>
      <use x="453.583984" xlink:href="#DejaVuSans-6e"/>
     </g>
    </g>
    <g id="line2d_31">
     <path d="M 66.6 261.900312 
L 86.6 261.900312 
" style="fill:none;stroke:#0d0d0d;stroke-linecap:square;stroke-opacity:0.25;stroke-width:2;"/>
    </g>
    <g id="line2d_32"/>
    <g id="text_24">
     <!-- rando-max -->
     <g transform="translate(94.6 265.400312)scale(0.1 -0.1)">
      <defs>
       <path d="M 3513 3500 
L 2247 1797 
L 3578 0 
L 2900 0 
L 1881 1375 
L 863 0 
L 184 0 
L 1544 1831 
L 300 3500 
L 978 3500 
L 1906 2253 
L 2834 3500 
L 3513 3500 
z
" id="DejaVuSans-78" transform="scale(0.015625)"/>
      </defs>
      <use xlink:href="#DejaVuSans-72"/>
      <use x="41.113281" xlink:href="#DejaVuSans-61"/>
      <use x="102.392578" xlink:href="#DejaVuSans-6e"/>
      <use x="165.771484" xlink:href="#DejaVuSans-64"/>
      <use x="229.248047" xlink:href="#DejaVuSans-6f"/>
      <use x="292.304688" xlink:href="#DejaVuSans-2d"/>
      <use x="328.388672" xlink:href="#DejaVuSans-6d"/>
      <use x="425.800781" xlink:href="#DejaVuSans-61"/>
      <use x="487.080078" xlink:href="#DejaVuSans-78"/>
     </g>
    </g>
   </g>
  </g>
 </g>
 <defs>
  <clipPath id="p588a7e3ae4">
   <rect height="235.008" width="357.12" x="57.6" y="41.472"/>
  </clipPath>
 </defs>
</svg>
