<?xml version="1.0" encoding="utf-8" standalone="no"?>
<!DOCTYPE svg PUBLIC "-//W3C//DTD SVG 1.1//EN"
  "http://www.w3.org/Graphics/SVG/1.1/DTD/svg11.dtd">
<svg xmlns:xlink="http://www.w3.org/1999/xlink" width="460.8pt" height="345.6pt" viewBox="0 0 460.8 345.6" xmlns="http://www.w3.org/2000/svg" version="1.1">
 <metadata>
  <rdf:RDF xmlns:dc="http://purl.org/dc/elements/1.1/" xmlns:cc="http://creativecommons.org/ns#" xmlns:rdf="http://www.w3.org/1999/02/22-rdf-syntax-ns#">
   <cc:Work>
    <dc:type rdf:resource="http://purl.org/dc/dcmitype/StillImage"/>
    <dc:date>2022-03-02T02:02:34.109231</dc:date>
    <dc:format>image/svg+xml</dc:format>
    <dc:creator>
     <cc:Agent>
      <dc:title>Matplotlib v3.5.0, https://matplotlib.org/</dc:title>
     </cc:Agent>
    </dc:creator>
   </cc:Work>
  </rdf:RDF>
 </metadata>
 <defs>
  <style type="text/css">*{stroke-linejoin: round; stroke-linecap: butt}</style>
 </defs>
 <g id="figure_1">
  <g id="patch_1">
   <path d="M 0 345.6 
L 460.8 345.6 
L 460.8 0 
L 0 0 
z
" style="fill: #ffffff"/>
  </g>
  <g id="axes_1">
   <g id="patch_2">
    <path d="M 57.6 276.48 
L 414.72 276.48 
L 414.72 41.472 
L 57.6 41.472 
z
" style="fill: #ffffff"/>
   </g>
   <g id="matplotlib.axis_1">
    <g id="xtick_1">
     <g id="line2d_1">
      <defs>
       <path id="m10d56fb109" d="M 0 0 
L 0 3.5 
" style="stroke: #000000; stroke-width: 0.8"/>
      </defs>
      <g>
       <use xlink:href="#m10d56fb109" x="73.832727" y="276.48" style="stroke: #000000; stroke-width: 0.8"/>
      </g>
     </g>
     <g id="text_1">
      <!-- 2021-12-01 -->
      <g transform="translate(22.463276 319.118252)rotate(-30)scale(0.1 -0.1)">
       <defs>
        <path id="DejaVuSans-32" d="M 1228 531 
L 3431 531 
L 3431 0 
L 469 0 
L 469 531 
Q 828 903 1448 1529 
Q 2069 2156 2228 2338 
Q 2531 2678 2651 2914 
Q 2772 3150 2772 3378 
Q 2772 3750 2511 3984 
Q 2250 4219 1831 4219 
Q 1534 4219 1204 4116 
Q 875 4013 500 3803 
L 500 4441 
Q 881 4594 1212 4672 
Q 1544 4750 1819 4750 
Q 2544 4750 2975 4387 
Q 3406 4025 3406 3419 
Q 3406 3131 3298 2873 
Q 3191 2616 2906 2266 
Q 2828 2175 2409 1742 
Q 1991 1309 1228 531 
z
" transform="scale(0.015625)"/>
        <path id="DejaVuSans-30" d="M 2034 4250 
Q 1547 4250 1301 3770 
Q 1056 3291 1056 2328 
Q 1056 1369 1301 889 
Q 1547 409 2034 409 
Q 2525 409 2770 889 
Q 3016 1369 3016 2328 
Q 3016 3291 2770 3770 
Q 2525 4250 2034 4250 
z
M 2034 4750 
Q 2819 4750 3233 4129 
Q 3647 3509 3647 2328 
Q 3647 1150 3233 529 
Q 2819 -91 2034 -91 
Q 1250 -91 836 529 
Q 422 1150 422 2328 
Q 422 3509 836 4129 
Q 1250 4750 2034 4750 
z
" transform="scale(0.015625)"/>
        <path id="DejaVuSans-31" d="M 794 531 
L 1825 531 
L 1825 4091 
L 703 3866 
L 703 4441 
L 1819 4666 
L 2450 4666 
L 2450 531 
L 3481 531 
L 3481 0 
L 794 0 
L 794 531 
z
" transform="scale(0.015625)"/>
        <path id="DejaVuSans-2d" d="M 313 2009 
L 1997 2009 
L 1997 1497 
L 313 1497 
L 313 2009 
z
" transform="scale(0.015625)"/>
       </defs>
       <use xlink:href="#DejaVuSans-32"/>
       <use xlink:href="#DejaVuSans-30" x="63.623047"/>
       <use xlink:href="#DejaVuSans-32" x="127.246094"/>
       <use xlink:href="#DejaVuSans-31" x="190.869141"/>
       <use xlink:href="#DejaVuSans-2d" x="254.492188"/>
       <use xlink:href="#DejaVuSans-31" x="290.576172"/>
       <use xlink:href="#DejaVuSans-32" x="354.199219"/>
       <use xlink:href="#DejaVuSans-2d" x="417.822266"/>
       <use xlink:href="#DejaVuSans-30" x="453.90625"/>
       <use xlink:href="#DejaVuSans-31" x="517.529297"/>
      </g>
     </g>
    </g>
    <g id="xtick_2">
     <g id="line2d_2">
      <g>
       <use xlink:href="#m10d56fb109" x="124.334545" y="276.48" style="stroke: #000000; stroke-width: 0.8"/>
      </g>
     </g>
     <g id="text_2">
      <!-- 2021-12-15 -->
      <g transform="translate(72.965094 319.118252)rotate(-30)scale(0.1 -0.1)">
       <defs>
        <path id="DejaVuSans-35" d="M 691 4666 
L 3169 4666 
L 3169 4134 
L 1269 4134 
L 1269 2991 
Q 1406 3038 1543 3061 
Q 1681 3084 1819 3084 
Q 2600 3084 3056 2656 
Q 3513 2228 3513 1497 
Q 3513 744 3044 326 
Q 2575 -91 1722 -91 
Q 1428 -91 1123 -41 
Q 819 9 494 109 
L 494 744 
Q 775 591 1075 516 
Q 1375 441 1709 441 
Q 2250 441 2565 725 
Q 2881 1009 2881 1497 
Q 2881 1984 2565 2268 
Q 2250 2553 1709 2553 
Q 1456 2553 1204 2497 
Q 953 2441 691 2322 
L 691 4666 
z
" transform="scale(0.015625)"/>
       </defs>
       <use xlink:href="#DejaVuSans-32"/>
       <use xlink:href="#DejaVuSans-30" x="63.623047"/>
       <use xlink:href="#DejaVuSans-32" x="127.246094"/>
       <use xlink:href="#DejaVuSans-31" x="190.869141"/>
       <use xlink:href="#DejaVuSans-2d" x="254.492188"/>
       <use xlink:href="#DejaVuSans-31" x="290.576172"/>
       <use xlink:href="#DejaVuSans-32" x="354.199219"/>
       <use xlink:href="#DejaVuSans-2d" x="417.822266"/>
       <use xlink:href="#DejaVuSans-31" x="453.90625"/>
       <use xlink:href="#DejaVuSans-35" x="517.529297"/>
      </g>
     </g>
    </g>
    <g id="xtick_3">
     <g id="line2d_3">
      <g>
       <use xlink:href="#m10d56fb109" x="185.658182" y="276.48" style="stroke: #000000; stroke-width: 0.8"/>
      </g>
     </g>
     <g id="text_3">
      <!-- 2022-01-01 -->
      <g transform="translate(134.28873 319.118252)rotate(-30)scale(0.1 -0.1)">
       <use xlink:href="#DejaVuSans-32"/>
       <use xlink:href="#DejaVuSans-30" x="63.623047"/>
       <use xlink:href="#DejaVuSans-32" x="127.246094"/>
       <use xlink:href="#DejaVuSans-32" x="190.869141"/>
       <use xlink:href="#DejaVuSans-2d" x="254.492188"/>
       <use xlink:href="#DejaVuSans-30" x="290.576172"/>
       <use xlink:href="#DejaVuSans-31" x="354.199219"/>
       <use xlink:href="#DejaVuSans-2d" x="417.822266"/>
       <use xlink:href="#DejaVuSans-30" x="453.90625"/>
       <use xlink:href="#DejaVuSans-31" x="517.529297"/>
      </g>
     </g>
    </g>
    <g id="xtick_4">
     <g id="line2d_4">
      <g>
       <use xlink:href="#m10d56fb109" x="236.16" y="276.48" style="stroke: #000000; stroke-width: 0.8"/>
      </g>
     </g>
     <g id="text_4">
      <!-- 2022-01-15 -->
      <g transform="translate(184.790549 319.118252)rotate(-30)scale(0.1 -0.1)">
       <use xlink:href="#DejaVuSans-32"/>
       <use xlink:href="#DejaVuSans-30" x="63.623047"/>
       <use xlink:href="#DejaVuSans-32" x="127.246094"/>
       <use xlink:href="#DejaVuSans-32" x="190.869141"/>
       <use xlink:href="#DejaVuSans-2d" x="254.492188"/>
       <use xlink:href="#DejaVuSans-30" x="290.576172"/>
       <use xlink:href="#DejaVuSans-31" x="354.199219"/>
       <use xlink:href="#DejaVuSans-2d" x="417.822266"/>
       <use xlink:href="#DejaVuSans-31" x="453.90625"/>
       <use xlink:href="#DejaVuSans-35" x="517.529297"/>
      </g>
     </g>
    </g>
    <g id="xtick_5">
     <g id="line2d_5">
      <g>
       <use xlink:href="#m10d56fb109" x="297.483636" y="276.48" style="stroke: #000000; stroke-width: 0.8"/>
      </g>
     </g>
     <g id="text_5">
      <!-- 2022-02-01 -->
      <g transform="translate(246.114185 319.118252)rotate(-30)scale(0.1 -0.1)">
       <use xlink:href="#DejaVuSans-32"/>
       <use xlink:href="#DejaVuSans-30" x="63.623047"/>
       <use xlink:href="#DejaVuSans-32" x="127.246094"/>
       <use xlink:href="#DejaVuSans-32" x="190.869141"/>
       <use xlink:href="#DejaVuSans-2d" x="254.492188"/>
       <use xlink:href="#DejaVuSans-30" x="290.576172"/>
       <use xlink:href="#DejaVuSans-32" x="354.199219"/>
       <use xlink:href="#DejaVuSans-2d" x="417.822266"/>
       <use xlink:href="#DejaVuSans-30" x="453.90625"/>
       <use xlink:href="#DejaVuSans-31" x="517.529297"/>
      </g>
     </g>
    </g>
    <g id="xtick_6">
     <g id="line2d_6">
      <g>
       <use xlink:href="#m10d56fb109" x="347.985455" y="276.48" style="stroke: #000000; stroke-width: 0.8"/>
      </g>
     </g>
     <g id="text_6">
      <!-- 2022-02-15 -->
      <g transform="translate(296.616003 319.118252)rotate(-30)scale(0.1 -0.1)">
       <use xlink:href="#DejaVuSans-32"/>
       <use xlink:href="#DejaVuSans-30" x="63.623047"/>
       <use xlink:href="#DejaVuSans-32" x="127.246094"/>
       <use xlink:href="#DejaVuSans-32" x="190.869141"/>
       <use xlink:href="#DejaVuSans-2d" x="254.492188"/>
       <use xlink:href="#DejaVuSans-30" x="290.576172"/>
       <use xlink:href="#DejaVuSans-32" x="354.199219"/>
       <use xlink:href="#DejaVuSans-2d" x="417.822266"/>
       <use xlink:href="#DejaVuSans-31" x="453.90625"/>
       <use xlink:href="#DejaVuSans-35" x="517.529297"/>
      </g>
     </g>
    </g>
    <g id="xtick_7">
     <g id="line2d_7">
      <g>
       <use xlink:href="#m10d56fb109" x="398.487273" y="276.48" style="stroke: #000000; stroke-width: 0.8"/>
      </g>
     </g>
     <g id="text_7">
      <!-- 2022-03-01 -->
      <g transform="translate(347.117821 319.118252)rotate(-30)scale(0.1 -0.1)">
       <defs>
        <path id="DejaVuSans-33" d="M 2597 2516 
Q 3050 2419 3304 2112 
Q 3559 1806 3559 1356 
Q 3559 666 3084 287 
Q 2609 -91 1734 -91 
Q 1441 -91 1130 -33 
Q 819 25 488 141 
L 488 750 
Q 750 597 1062 519 
Q 1375 441 1716 441 
Q 2309 441 2620 675 
Q 2931 909 2931 1356 
Q 2931 1769 2642 2001 
Q 2353 2234 1838 2234 
L 1294 2234 
L 1294 2753 
L 1863 2753 
Q 2328 2753 2575 2939 
Q 2822 3125 2822 3475 
Q 2822 3834 2567 4026 
Q 2313 4219 1838 4219 
Q 1578 4219 1281 4162 
Q 984 4106 628 3988 
L 628 4550 
Q 988 4650 1302 4700 
Q 1616 4750 1894 4750 
Q 2613 4750 3031 4423 
Q 3450 4097 3450 3541 
Q 3450 3153 3228 2886 
Q 3006 2619 2597 2516 
z
" transform="scale(0.015625)"/>
       </defs>
       <use xlink:href="#DejaVuSans-32"/>
       <use xlink:href="#DejaVuSans-30" x="63.623047"/>
       <use xlink:href="#DejaVuSans-32" x="127.246094"/>
       <use xlink:href="#DejaVuSans-32" x="190.869141"/>
       <use xlink:href="#DejaVuSans-2d" x="254.492188"/>
       <use xlink:href="#DejaVuSans-30" x="290.576172"/>
       <use xlink:href="#DejaVuSans-33" x="354.199219"/>
       <use xlink:href="#DejaVuSans-2d" x="417.822266"/>
       <use xlink:href="#DejaVuSans-30" x="453.90625"/>
       <use xlink:href="#DejaVuSans-31" x="517.529297"/>
      </g>
     </g>
    </g>
    <g id="text_8">
     <!-- date -->
     <g transform="translate(224.885 332.517752)scale(0.1 -0.1)">
      <defs>
       <path id="DejaVuSans-64" d="M 2906 2969 
L 2906 4863 
L 3481 4863 
L 3481 0 
L 2906 0 
L 2906 525 
Q 2725 213 2448 61 
Q 2172 -91 1784 -91 
Q 1150 -91 751 415 
Q 353 922 353 1747 
Q 353 2572 751 3078 
Q 1150 3584 1784 3584 
Q 2172 3584 2448 3432 
Q 2725 3281 2906 2969 
z
M 947 1747 
Q 947 1113 1208 752 
Q 1469 391 1925 391 
Q 2381 391 2643 752 
Q 2906 1113 2906 1747 
Q 2906 2381 2643 2742 
Q 2381 3103 1925 3103 
Q 1469 3103 1208 2742 
Q 947 2381 947 1747 
z
" transform="scale(0.015625)"/>
       <path id="DejaVuSans-61" d="M 2194 1759 
Q 1497 1759 1228 1600 
Q 959 1441 959 1056 
Q 959 750 1161 570 
Q 1363 391 1709 391 
Q 2188 391 2477 730 
Q 2766 1069 2766 1631 
L 2766 1759 
L 2194 1759 
z
M 3341 1997 
L 3341 0 
L 2766 0 
L 2766 531 
Q 2569 213 2275 61 
Q 1981 -91 1556 -91 
Q 1019 -91 701 211 
Q 384 513 384 1019 
Q 384 1609 779 1909 
Q 1175 2209 1959 2209 
L 2766 2209 
L 2766 2266 
Q 2766 2663 2505 2880 
Q 2244 3097 1772 3097 
Q 1472 3097 1187 3025 
Q 903 2953 641 2809 
L 641 3341 
Q 956 3463 1253 3523 
Q 1550 3584 1831 3584 
Q 2591 3584 2966 3190 
Q 3341 2797 3341 1997 
z
" transform="scale(0.015625)"/>
       <path id="DejaVuSans-74" d="M 1172 4494 
L 1172 3500 
L 2356 3500 
L 2356 3053 
L 1172 3053 
L 1172 1153 
Q 1172 725 1289 603 
Q 1406 481 1766 481 
L 2356 481 
L 2356 0 
L 1766 0 
Q 1100 0 847 248 
Q 594 497 594 1153 
L 594 3053 
L 172 3053 
L 172 3500 
L 594 3500 
L 594 4494 
L 1172 4494 
z
" transform="scale(0.015625)"/>
       <path id="DejaVuSans-65" d="M 3597 1894 
L 3597 1613 
L 953 1613 
Q 991 1019 1311 708 
Q 1631 397 2203 397 
Q 2534 397 2845 478 
Q 3156 559 3463 722 
L 3463 178 
Q 3153 47 2828 -22 
Q 2503 -91 2169 -91 
Q 1331 -91 842 396 
Q 353 884 353 1716 
Q 353 2575 817 3079 
Q 1281 3584 2069 3584 
Q 2775 3584 3186 3129 
Q 3597 2675 3597 1894 
z
M 3022 2063 
Q 3016 2534 2758 2815 
Q 2500 3097 2075 3097 
Q 1594 3097 1305 2825 
Q 1016 2553 972 2059 
L 3022 2063 
z
" transform="scale(0.015625)"/>
      </defs>
      <use xlink:href="#DejaVuSans-64"/>
      <use xlink:href="#DejaVuSans-61" x="63.476562"/>
      <use xlink:href="#DejaVuSans-74" x="124.755859"/>
      <use xlink:href="#DejaVuSans-65" x="163.964844"/>
     </g>
    </g>
   </g>
   <g id="matplotlib.axis_2">
    <g id="ytick_1">
     <g id="line2d_8">
      <defs>
       <path id="m2571f25c34" d="M 0 0 
L -3.5 0 
" style="stroke: #000000; stroke-width: 0.8"/>
      </defs>
      <g>
       <use xlink:href="#m2571f25c34" x="57.6" y="276.162879" style="stroke: #000000; stroke-width: 0.8"/>
      </g>
     </g>
     <g id="text_9">
      <!-- 95000 -->
      <g transform="translate(18.7875 279.962098)scale(0.1 -0.1)">
       <defs>
        <path id="DejaVuSans-39" d="M 703 97 
L 703 672 
Q 941 559 1184 500 
Q 1428 441 1663 441 
Q 2288 441 2617 861 
Q 2947 1281 2994 2138 
Q 2813 1869 2534 1725 
Q 2256 1581 1919 1581 
Q 1219 1581 811 2004 
Q 403 2428 403 3163 
Q 403 3881 828 4315 
Q 1253 4750 1959 4750 
Q 2769 4750 3195 4129 
Q 3622 3509 3622 2328 
Q 3622 1225 3098 567 
Q 2575 -91 1691 -91 
Q 1453 -91 1209 -44 
Q 966 3 703 97 
z
M 1959 2075 
Q 2384 2075 2632 2365 
Q 2881 2656 2881 3163 
Q 2881 3666 2632 3958 
Q 2384 4250 1959 4250 
Q 1534 4250 1286 3958 
Q 1038 3666 1038 3163 
Q 1038 2656 1286 2365 
Q 1534 2075 1959 2075 
z
" transform="scale(0.015625)"/>
       </defs>
       <use xlink:href="#DejaVuSans-39"/>
       <use xlink:href="#DejaVuSans-35" x="63.623047"/>
       <use xlink:href="#DejaVuSans-30" x="127.246094"/>
       <use xlink:href="#DejaVuSans-30" x="190.869141"/>
       <use xlink:href="#DejaVuSans-30" x="254.492188"/>
      </g>
     </g>
    </g>
    <g id="ytick_2">
     <g id="line2d_9">
      <g>
       <use xlink:href="#m2571f25c34" x="57.6" y="243.522005" style="stroke: #000000; stroke-width: 0.8"/>
      </g>
     </g>
     <g id="text_10">
      <!-- 100000 -->
      <g transform="translate(12.425 247.321224)scale(0.1 -0.1)">
       <use xlink:href="#DejaVuSans-31"/>
       <use xlink:href="#DejaVuSans-30" x="63.623047"/>
       <use xlink:href="#DejaVuSans-30" x="127.246094"/>
       <use xlink:href="#DejaVuSans-30" x="190.869141"/>
       <use xlink:href="#DejaVuSans-30" x="254.492188"/>
       <use xlink:href="#DejaVuSans-30" x="318.115234"/>
      </g>
     </g>
    </g>
    <g id="ytick_3">
     <g id="line2d_10">
      <g>
       <use xlink:href="#m2571f25c34" x="57.6" y="210.88113" style="stroke: #000000; stroke-width: 0.8"/>
      </g>
     </g>
     <g id="text_11">
      <!-- 105000 -->
      <g transform="translate(12.425 214.680349)scale(0.1 -0.1)">
       <use xlink:href="#DejaVuSans-31"/>
       <use xlink:href="#DejaVuSans-30" x="63.623047"/>
       <use xlink:href="#DejaVuSans-35" x="127.246094"/>
       <use xlink:href="#DejaVuSans-30" x="190.869141"/>
       <use xlink:href="#DejaVuSans-30" x="254.492188"/>
       <use xlink:href="#DejaVuSans-30" x="318.115234"/>
      </g>
     </g>
    </g>
    <g id="ytick_4">
     <g id="line2d_11">
      <g>
       <use xlink:href="#m2571f25c34" x="57.6" y="178.240256" style="stroke: #000000; stroke-width: 0.8"/>
      </g>
     </g>
     <g id="text_12">
      <!-- 110000 -->
      <g transform="translate(12.425 182.039475)scale(0.1 -0.1)">
       <use xlink:href="#DejaVuSans-31"/>
       <use xlink:href="#DejaVuSans-31" x="63.623047"/>
       <use xlink:href="#DejaVuSans-30" x="127.246094"/>
       <use xlink:href="#DejaVuSans-30" x="190.869141"/>
       <use xlink:href="#DejaVuSans-30" x="254.492188"/>
       <use xlink:href="#DejaVuSans-30" x="318.115234"/>
      </g>
     </g>
    </g>
    <g id="ytick_5">
     <g id="line2d_12">
      <g>
       <use xlink:href="#m2571f25c34" x="57.6" y="145.599381" style="stroke: #000000; stroke-width: 0.8"/>
      </g>
     </g>
     <g id="text_13">
      <!-- 115000 -->
      <g transform="translate(12.425 149.3986)scale(0.1 -0.1)">
       <use xlink:href="#DejaVuSans-31"/>
       <use xlink:href="#DejaVuSans-31" x="63.623047"/>
       <use xlink:href="#DejaVuSans-35" x="127.246094"/>
       <use xlink:href="#DejaVuSans-30" x="190.869141"/>
       <use xlink:href="#DejaVuSans-30" x="254.492188"/>
       <use xlink:href="#DejaVuSans-30" x="318.115234"/>
      </g>
     </g>
    </g>
    <g id="ytick_6">
     <g id="line2d_13">
      <g>
       <use xlink:href="#m2571f25c34" x="57.6" y="112.958507" style="stroke: #000000; stroke-width: 0.8"/>
      </g>
     </g>
     <g id="text_14">
      <!-- 120000 -->
      <g transform="translate(12.425 116.757726)scale(0.1 -0.1)">
       <use xlink:href="#DejaVuSans-31"/>
       <use xlink:href="#DejaVuSans-32" x="63.623047"/>
       <use xlink:href="#DejaVuSans-30" x="127.246094"/>
       <use xlink:href="#DejaVuSans-30" x="190.869141"/>
       <use xlink:href="#DejaVuSans-30" x="254.492188"/>
       <use xlink:href="#DejaVuSans-30" x="318.115234"/>
      </g>
     </g>
    </g>
    <g id="ytick_7">
     <g id="line2d_14">
      <g>
       <use xlink:href="#m2571f25c34" x="57.6" y="80.317632" style="stroke: #000000; stroke-width: 0.8"/>
      </g>
     </g>
     <g id="text_15">
      <!-- 125000 -->
      <g transform="translate(12.425 84.116851)scale(0.1 -0.1)">
       <use xlink:href="#DejaVuSans-31"/>
       <use xlink:href="#DejaVuSans-32" x="63.623047"/>
       <use xlink:href="#DejaVuSans-35" x="127.246094"/>
       <use xlink:href="#DejaVuSans-30" x="190.869141"/>
       <use xlink:href="#DejaVuSans-30" x="254.492188"/>
       <use xlink:href="#DejaVuSans-30" x="318.115234"/>
      </g>
     </g>
    </g>
    <g id="ytick_8">
     <g id="line2d_15">
      <g>
       <use xlink:href="#m2571f25c34" x="57.6" y="47.676758" style="stroke: #000000; stroke-width: 0.8"/>
      </g>
     </g>
     <g id="text_16">
      <!-- 130000 -->
      <g transform="translate(12.425 51.475977)scale(0.1 -0.1)">
       <use xlink:href="#DejaVuSans-31"/>
       <use xlink:href="#DejaVuSans-33" x="63.623047"/>
       <use xlink:href="#DejaVuSans-30" x="127.246094"/>
       <use xlink:href="#DejaVuSans-30" x="190.869141"/>
       <use xlink:href="#DejaVuSans-30" x="254.492188"/>
       <use xlink:href="#DejaVuSans-30" x="318.115234"/>
      </g>
     </g>
    </g>
   </g>
   <g id="line2d_16">
    <path d="M 73.832727 243.522005 
L 77.44 228.379027 
L 81.047273 234.228119 
L 91.869091 212.717382 
L 95.476364 206.185565 
L 99.083636 198.603575 
L 102.690909 201.08234 
L 106.298182 203.038073 
L 117.12 218.452019 
L 120.727273 219.185554 
L 124.334545 216.807303 
L 127.941818 224.392805 
L 131.549091 230.154736 
L 142.370909 244.183723 
L 145.978182 214.394262 
L 149.585455 208.204274 
L 153.192727 200.844652 
L 167.621818 192.949262 
L 171.229091 187.873281 
L 174.836364 187.537426 
L 178.443636 186.613362 
L 182.050909 183.700667 
L 192.872727 172.910731 
L 196.48 161.629696 
L 200.087273 172.35158 
L 203.694545 167.476602 
L 207.301818 158.780802 
L 218.123636 171.355171 
L 221.730909 158.414784 
L 225.338182 161.489901 
L 228.945455 167.129822 
L 232.552727 176.996204 
L 246.981818 179.513658 
L 250.589091 194.2385 
L 254.196364 205.308465 
L 257.803636 223.489411 
L 268.625455 216.318588 
L 272.232727 218.694576 
L 275.84 230.888794 
L 279.447273 234.211242 
L 283.054545 225.112613 
L 293.876364 204.813433 
L 297.483636 198.249945 
L 301.090909 202.82338 
L 304.698182 214.325878 
L 308.305455 208.714904 
L 319.127273 206.756137 
L 322.734545 192.726747 
L 326.341818 178.850788 
L 329.949091 181.21843 
L 333.556364 204.177606 
L 344.378182 207.551414 
L 347.985455 186.302174 
L 351.592727 174.446759 
L 355.2 186.133514 
L 358.807273 185.8275 
L 373.236364 216.666957 
L 376.843636 222.823555 
L 380.450909 218.02055 
L 384.058182 199.287011 
L 394.88 211.167663 
L 398.487273 229.394716 
" clip-path="url(#pb49cddfa70)" style="fill: none; stroke: #0000ff; stroke-opacity: 0.9; stroke-width: 2; stroke-linecap: square"/>
   </g>
   <g id="line2d_17">
    <path d="M 73.832727 243.522005 
L 77.44 219.85611 
L 81.047273 226.154171 
L 91.869091 208.261198 
L 95.476364 200.487646 
L 99.083636 194.610633 
L 102.690909 199.114608 
L 106.298182 196.191886 
L 117.12 209.53218 
L 120.727273 207.485733 
L 124.334545 202.904989 
L 127.941818 206.973108 
L 131.549091 211.882739 
L 142.370909 224.26505 
L 145.978182 190.698713 
L 149.585455 178.005447 
L 153.192727 171.098922 
L 167.621818 161.398675 
L 171.229091 156.527267 
L 174.836364 157.311045 
L 178.443636 160.823944 
L 182.050909 161.362137 
L 192.872727 152.317669 
L 196.48 141.164306 
L 200.087273 155.141226 
L 203.694545 148.262045 
L 207.301818 139.879855 
L 218.123636 152.5202 
L 221.730909 139.695969 
L 225.338182 142.10297 
L 228.945455 144.9363 
L 232.552727 150.207352 
L 246.981818 153.629229 
L 250.589091 171.285932 
L 254.196364 188.213086 
L 257.803636 206.043966 
L 268.625455 193.321649 
L 272.232727 190.648654 
L 275.84 202.210006 
L 279.447273 204.73182 
L 283.054545 190.624582 
L 293.876364 184.086807 
L 297.483636 166.497827 
L 301.090909 169.479737 
L 304.698182 178.085693 
L 308.305455 166.610053 
L 319.127273 169.087291 
L 322.734545 155.744148 
L 326.341818 148.306209 
L 329.949091 145.39543 
L 333.556364 152.420561 
L 344.378182 166.449221 
L 347.985455 147.655981 
L 351.592727 133.243497 
L 355.2 139.042221 
L 358.807273 148.038238 
L 373.236364 158.959267 
L 376.843636 164.249297 
L 380.450909 156.733324 
L 384.058182 138.644874 
L 394.88 143.088459 
L 398.487273 166.083027 
" clip-path="url(#pb49cddfa70)" style="fill: none; stroke: #ff0000; stroke-opacity: 0.9; stroke-width: 2; stroke-linecap: square"/>
   </g>
   <g id="line2d_18">
    <path d="M 73.832727 243.522005 
L 77.44 219.808298 
L 81.047273 225.761773 
L 91.869091 208.471551 
L 95.476364 200.049548 
L 99.083636 194.51143 
L 102.690909 199.237657 
L 106.298182 195.548642 
L 117.12 209.247533 
L 120.727273 207.063564 
L 124.334545 202.326764 
L 127.941818 206.756151 
L 131.549091 212.000753 
L 142.370909 224.297417 
L 145.978182 191.037122 
L 149.585455 179.318079 
L 153.192727 171.873964 
L 167.621818 162.064798 
L 171.229091 157.296049 
L 174.836364 158.181869 
L 178.443636 160.805457 
L 182.050909 160.616126 
L 192.872727 152.024796 
L 196.48 140.599645 
L 200.087273 153.603588 
L 203.694545 147.583473 
L 207.301818 138.859382 
L 218.123636 151.788661 
L 221.730909 138.724983 
L 225.338182 140.899517 
L 228.945455 144.502289 
L 232.552727 150.163581 
L 246.981818 153.561742 
L 250.589091 170.993221 
L 254.196364 187.031973 
L 257.803636 205.796218 
L 268.625455 193.687641 
L 272.232727 191.292623 
L 275.84 202.810831 
L 279.447273 205.03759 
L 283.054545 191.543011 
L 293.876364 183.094673 
L 297.483636 166.779596 
L 301.090909 169.93577 
L 304.698182 178.870268 
L 308.305455 168.809631 
L 319.127273 170.833397 
L 322.734545 157.079169 
L 326.341818 148.986572 
L 329.949091 146.528819 
L 333.556364 155.305224 
L 344.378182 167.574916 
L 347.985455 147.639824 
L 351.592727 133.84388 
L 355.2 140.897809 
L 358.807273 148.445961 
L 373.236364 161.322006 
L 376.843636 167.641789 
L 380.450909 159.797504 
L 384.058182 141.363519 
L 394.88 147.624325 
L 398.487273 170.416792 
" clip-path="url(#pb49cddfa70)" style="fill: none; stroke: #ec5283; stroke-width: 2; stroke-linecap: square"/>
   </g>
   <g id="line2d_19">
    <path d="M 73.832727 243.522005 
L 77.44 220.922643 
L 81.047273 226.678771 
L 91.869091 205.142311 
L 95.476364 198.128519 
L 99.083636 190.924665 
L 102.690909 192.813572 
L 106.298182 195.443906 
L 117.12 209.615349 
L 120.727273 210.590282 
L 124.334545 207.946683 
L 127.941818 215.209247 
L 131.549091 220.166941 
L 142.370909 233.541765 
L 145.978182 204.272305 
L 149.585455 197.696173 
L 153.192727 190.372018 
L 167.621818 182.676051 
L 171.229091 177.591644 
L 174.836364 177.448524 
L 178.443636 176.650541 
L 182.050909 173.568717 
L 192.872727 163.254922 
L 196.48 151.842224 
L 200.087273 162.091453 
L 203.694545 157.323584 
L 207.301818 148.734789 
L 218.123636 160.733902 
L 221.730909 148.031437 
L 225.338182 150.77571 
L 228.945455 156.532415 
L 232.552727 165.624619 
L 246.981818 168.686403 
L 250.589091 182.39568 
L 254.196364 193.346276 
L 257.803636 210.619426 
L 268.625455 203.870243 
L 272.232727 205.521114 
L 275.84 217.189834 
L 279.447273 220.406747 
L 283.054545 211.135188 
L 293.876364 191.79511 
L 297.483636 185.252879 
L 301.090909 189.309192 
L 304.698182 200.943974 
L 308.305455 195.236438 
L 319.127273 193.15764 
L 322.734545 179.104035 
L 326.341818 165.144477 
L 329.949091 167.589284 
L 333.556364 189.273363 
L 344.378182 192.286679 
L 347.985455 170.758891 
L 351.592727 158.771906 
L 355.2 169.406604 
L 358.807273 169.069052 
L 373.236364 198.478664 
L 376.843636 205.213452 
L 380.450909 199.782179 
L 384.058182 180.766887 
L 394.88 192.827838 
L 398.487273 214.345436 
" clip-path="url(#pb49cddfa70)" style="fill: none; stroke: #ff8040; stroke-opacity: 0.9; stroke-width: 2; stroke-linecap: square"/>
   </g>
   <g id="line2d_20">
    <path d="M 73.832727 243.522005 
L 77.44 219.680247 
L 81.047273 225.827919 
L 91.869091 203.696885 
L 95.476364 196.06523 
L 99.083636 188.838735 
L 102.690909 190.529244 
L 106.298182 191.533878 
L 117.12 206.702909 
L 120.727273 207.214018 
L 124.334545 204.704748 
L 127.941818 212.052615 
L 131.549091 217.452815 
L 142.370909 230.986798 
L 145.978182 200.497216 
L 149.585455 193.103538 
L 153.192727 185.388235 
L 167.621818 177.439713 
L 171.229091 172.429025 
L 174.836364 171.956084 
L 178.443636 171.042886 
L 182.050909 167.646082 
L 192.872727 156.846151 
L 196.48 145.105425 
L 200.087273 155.869839 
L 203.694545 150.233632 
L 207.301818 141.875405 
L 218.123636 154.721873 
L 221.730909 142.122762 
L 225.338182 144.724384 
L 228.945455 150.179195 
L 232.552727 160.317054 
L 246.981818 163.741763 
L 250.589091 178.546169 
L 254.196364 189.087418 
L 257.803636 208.202055 
L 268.625455 200.028647 
L 272.232727 200.195456 
L 275.84 212.88008 
L 279.447273 216.653033 
L 283.054545 207.249987 
L 293.876364 185.667818 
L 297.483636 178.816547 
L 301.090909 182.87258 
L 304.698182 195.226307 
L 308.305455 189.406551 
L 319.127273 187.153582 
L 322.734545 173.305362 
L 326.341818 158.839876 
L 329.949091 161.001083 
L 333.556364 183.708976 
L 344.378182 185.937953 
L 347.985455 163.897129 
L 351.592727 151.454999 
L 355.2 163.506762 
L 358.807273 163.201621 
L 373.236364 192.392745 
L 376.843636 198.805126 
L 380.450909 193.74502 
L 384.058182 174.045848 
L 394.88 185.89084 
L 398.487273 211.702046 
" clip-path="url(#pb49cddfa70)" style="fill: none; stroke: #a5b9cf; stroke-width: 2; stroke-linecap: square"/>
   </g>
   <g id="line2d_21">
    <path d="M 73.832727 244.174822 
L 77.44 222.180227 
L 81.047273 234.892185 
L 91.869091 222.546253 
L 95.476364 214.694016 
L 99.083636 208.837808 
L 102.690909 214.310567 
L 106.298182 213.742726 
L 117.12 227.487468 
L 120.727273 226.757808 
L 124.334545 222.557131 
L 127.941818 225.621518 
L 131.549091 234.054964 
L 142.370909 246.344658 
L 145.978182 222.010068 
L 149.585455 211.454785 
L 153.192727 204.186307 
L 167.621818 193.990772 
L 171.229091 190.815553 
L 174.836364 191.622611 
L 178.443636 193.495598 
L 182.050909 194.620058 
L 192.872727 186.326516 
L 196.48 175.74702 
L 200.087273 191.419071 
L 203.694545 188.72309 
L 207.301818 179.532555 
L 218.123636 191.418855 
L 221.730909 180.332672 
L 225.338182 182.685394 
L 228.945455 196.031079 
L 232.552727 198.78296 
L 246.981818 205.57708 
L 250.589091 223.073682 
L 254.196364 238.229745 
L 257.803636 265.797818 
L 268.625455 252.826093 
L 272.232727 252.366899 
L 275.84 258.866709 
L 279.447273 256.731276 
L 283.054545 243.655824 
L 293.876364 240.025897 
L 297.483636 227.645473 
L 301.090909 230.914148 
L 304.698182 238.92252 
L 308.305455 232.074899 
L 319.127273 238.748462 
L 322.734545 225.501903 
L 326.341818 212.281843 
L 329.949091 211.787079 
L 333.556364 218.547697 
L 344.378182 229.441106 
L 347.985455 212.85422 
L 351.592727 200.202284 
L 355.2 205.903212 
L 358.807273 210.588991 
L 373.236364 223.618349 
L 376.843636 231.14866 
L 380.450909 227.330382 
L 384.058182 205.928553 
L 394.88 209.501219 
L 398.487273 241.517925 
" clip-path="url(#pb49cddfa70)" style="fill: none; stroke: #0d0d0d; stroke-opacity: 0.25; stroke-width: 2; stroke-linecap: square"/>
   </g>
   <g id="line2d_22">
    <path d="M 73.832727 242.869187 
L 77.44 216.398471 
L 81.047273 218.803319 
L 91.869091 195.210987 
L 95.476364 187.197254 
L 99.083636 180.937829 
L 102.690909 184.676235 
L 106.298182 178.458647 
L 117.12 192.959126 
L 120.727273 188.674138 
L 124.334545 181.089172 
L 127.941818 179.78038 
L 131.549091 192.18353 
L 142.370909 201.325369 
L 145.978182 171.597974 
L 149.585455 155.255233 
L 153.192727 148.065245 
L 167.621818 134.434198 
L 171.229091 130.406784 
L 174.836364 130.786785 
L 178.443636 137.159444 
L 182.050909 138.648496 
L 192.872727 129.30494 
L 196.48 112.681683 
L 200.087273 125.98997 
L 203.694545 120.30355 
L 207.301818 105.741343 
L 218.123636 117.465463 
L 221.730909 103.304072 
L 225.338182 105.154151 
L 228.945455 104.746953 
L 232.552727 100.35168 
L 246.981818 105.535104 
L 250.589091 125.032658 
L 254.196364 143.933807 
L 257.803636 156.147987 
L 268.625455 137.723529 
L 272.232727 133.368945 
L 275.84 143.642854 
L 279.447273 147.609679 
L 283.054545 133.307676 
L 293.876364 126.112252 
L 297.483636 108.638647 
L 301.090909 109.832471 
L 304.698182 122.692475 
L 308.305455 112.763287 
L 319.127273 118.182205 
L 322.734545 102.587846 
L 326.341818 96.075955 
L 329.949091 90.543379 
L 333.556364 96.923424 
L 344.378182 108.624442 
L 347.985455 80.958679 
L 351.592727 63.525372 
L 355.2 66.150778 
L 358.807273 70.798784 
L 373.236364 84.269404 
L 376.843636 91.963926 
L 380.450909 78.662762 
L 384.058182 52.154182 
L 394.88 58.568796 
L 398.487273 85.415155 
" clip-path="url(#pb49cddfa70)" style="fill: none; stroke: #0d0d0d; stroke-opacity: 0.25; stroke-width: 2; stroke-linecap: square"/>
   </g>
   <g id="patch_3">
    <path d="M 57.6 276.48 
L 57.6 41.472 
" style="fill: none; stroke: #000000; stroke-width: 0.8; stroke-linejoin: miter; stroke-linecap: square"/>
   </g>
   <g id="patch_4">
    <path d="M 414.72 276.48 
L 414.72 41.472 
" style="fill: none; stroke: #000000; stroke-width: 0.8; stroke-linejoin: miter; stroke-linecap: square"/>
   </g>
   <g id="patch_5">
    <path d="M 57.6 276.48 
L 414.72 276.48 
" style="fill: none; stroke: #000000; stroke-width: 0.8; stroke-linejoin: miter; stroke-linecap: square"/>
   </g>
   <g id="patch_6">
    <path d="M 57.6 41.472 
L 414.72 41.472 
" style="fill: none; stroke: #000000; stroke-width: 0.8; stroke-linejoin: miter; stroke-linecap: square"/>
   </g>
   <g id="text_17">
    <!-- CHIEFMICKEY5 -->
    <g transform="translate(192.10125 22.034625)scale(0.12 -0.12)">
     <defs>
      <path id="DejaVuSans-43" d="M 4122 4306 
L 4122 3641 
Q 3803 3938 3442 4084 
Q 3081 4231 2675 4231 
Q 1875 4231 1450 3742 
Q 1025 3253 1025 2328 
Q 1025 1406 1450 917 
Q 1875 428 2675 428 
Q 3081 428 3442 575 
Q 3803 722 4122 1019 
L 4122 359 
Q 3791 134 3420 21 
Q 3050 -91 2638 -91 
Q 1578 -91 968 557 
Q 359 1206 359 2328 
Q 359 3453 968 4101 
Q 1578 4750 2638 4750 
Q 3056 4750 3426 4639 
Q 3797 4528 4122 4306 
z
" transform="scale(0.015625)"/>
      <path id="DejaVuSans-48" d="M 628 4666 
L 1259 4666 
L 1259 2753 
L 3553 2753 
L 3553 4666 
L 4184 4666 
L 4184 0 
L 3553 0 
L 3553 2222 
L 1259 2222 
L 1259 0 
L 628 0 
L 628 4666 
z
" transform="scale(0.015625)"/>
      <path id="DejaVuSans-49" d="M 628 4666 
L 1259 4666 
L 1259 0 
L 628 0 
L 628 4666 
z
" transform="scale(0.015625)"/>
      <path id="DejaVuSans-45" d="M 628 4666 
L 3578 4666 
L 3578 4134 
L 1259 4134 
L 1259 2753 
L 3481 2753 
L 3481 2222 
L 1259 2222 
L 1259 531 
L 3634 531 
L 3634 0 
L 628 0 
L 628 4666 
z
" transform="scale(0.015625)"/>
      <path id="DejaVuSans-46" d="M 628 4666 
L 3309 4666 
L 3309 4134 
L 1259 4134 
L 1259 2759 
L 3109 2759 
L 3109 2228 
L 1259 2228 
L 1259 0 
L 628 0 
L 628 4666 
z
" transform="scale(0.015625)"/>
      <path id="DejaVuSans-4d" d="M 628 4666 
L 1569 4666 
L 2759 1491 
L 3956 4666 
L 4897 4666 
L 4897 0 
L 4281 0 
L 4281 4097 
L 3078 897 
L 2444 897 
L 1241 4097 
L 1241 0 
L 628 0 
L 628 4666 
z
" transform="scale(0.015625)"/>
      <path id="DejaVuSans-4b" d="M 628 4666 
L 1259 4666 
L 1259 2694 
L 3353 4666 
L 4166 4666 
L 1850 2491 
L 4331 0 
L 3500 0 
L 1259 2247 
L 1259 0 
L 628 0 
L 628 4666 
z
" transform="scale(0.015625)"/>
      <path id="DejaVuSans-59" d="M -13 4666 
L 666 4666 
L 1959 2747 
L 3244 4666 
L 3922 4666 
L 2272 2222 
L 2272 0 
L 1638 0 
L 1638 2222 
L -13 4666 
z
" transform="scale(0.015625)"/>
     </defs>
     <use xlink:href="#DejaVuSans-43"/>
     <use xlink:href="#DejaVuSans-48" x="69.824219"/>
     <use xlink:href="#DejaVuSans-49" x="145.019531"/>
     <use xlink:href="#DejaVuSans-45" x="174.511719"/>
     <use xlink:href="#DejaVuSans-46" x="237.695312"/>
     <use xlink:href="#DejaVuSans-4d" x="295.214844"/>
     <use xlink:href="#DejaVuSans-49" x="381.494141"/>
     <use xlink:href="#DejaVuSans-43" x="410.986328"/>
     <use xlink:href="#DejaVuSans-4b" x="480.810547"/>
     <use xlink:href="#DejaVuSans-45" x="546.386719"/>
     <use xlink:href="#DejaVuSans-59" x="609.570312"/>
     <use xlink:href="#DejaVuSans-35" x="670.654297"/>
    </g>
    <!-- daily_report -->
    <g transform="translate(200.466563 35.472)scale(0.12 -0.12)">
     <defs>
      <path id="DejaVuSans-69" d="M 603 3500 
L 1178 3500 
L 1178 0 
L 603 0 
L 603 3500 
z
M 603 4863 
L 1178 4863 
L 1178 4134 
L 603 4134 
L 603 4863 
z
" transform="scale(0.015625)"/>
      <path id="DejaVuSans-6c" d="M 603 4863 
L 1178 4863 
L 1178 0 
L 603 0 
L 603 4863 
z
" transform="scale(0.015625)"/>
      <path id="DejaVuSans-79" d="M 2059 -325 
Q 1816 -950 1584 -1140 
Q 1353 -1331 966 -1331 
L 506 -1331 
L 506 -850 
L 844 -850 
Q 1081 -850 1212 -737 
Q 1344 -625 1503 -206 
L 1606 56 
L 191 3500 
L 800 3500 
L 1894 763 
L 2988 3500 
L 3597 3500 
L 2059 -325 
z
" transform="scale(0.015625)"/>
      <path id="DejaVuSans-5f" d="M 3263 -1063 
L 3263 -1509 
L -63 -1509 
L -63 -1063 
L 3263 -1063 
z
" transform="scale(0.015625)"/>
      <path id="DejaVuSans-72" d="M 2631 2963 
Q 2534 3019 2420 3045 
Q 2306 3072 2169 3072 
Q 1681 3072 1420 2755 
Q 1159 2438 1159 1844 
L 1159 0 
L 581 0 
L 581 3500 
L 1159 3500 
L 1159 2956 
Q 1341 3275 1631 3429 
Q 1922 3584 2338 3584 
Q 2397 3584 2469 3576 
Q 2541 3569 2628 3553 
L 2631 2963 
z
" transform="scale(0.015625)"/>
      <path id="DejaVuSans-70" d="M 1159 525 
L 1159 -1331 
L 581 -1331 
L 581 3500 
L 1159 3500 
L 1159 2969 
Q 1341 3281 1617 3432 
Q 1894 3584 2278 3584 
Q 2916 3584 3314 3078 
Q 3713 2572 3713 1747 
Q 3713 922 3314 415 
Q 2916 -91 2278 -91 
Q 1894 -91 1617 61 
Q 1341 213 1159 525 
z
M 3116 1747 
Q 3116 2381 2855 2742 
Q 2594 3103 2138 3103 
Q 1681 3103 1420 2742 
Q 1159 2381 1159 1747 
Q 1159 1113 1420 752 
Q 1681 391 2138 391 
Q 2594 391 2855 752 
Q 3116 1113 3116 1747 
z
" transform="scale(0.015625)"/>
      <path id="DejaVuSans-6f" d="M 1959 3097 
Q 1497 3097 1228 2736 
Q 959 2375 959 1747 
Q 959 1119 1226 758 
Q 1494 397 1959 397 
Q 2419 397 2687 759 
Q 2956 1122 2956 1747 
Q 2956 2369 2687 2733 
Q 2419 3097 1959 3097 
z
M 1959 3584 
Q 2709 3584 3137 3096 
Q 3566 2609 3566 1747 
Q 3566 888 3137 398 
Q 2709 -91 1959 -91 
Q 1206 -91 779 398 
Q 353 888 353 1747 
Q 353 2609 779 3096 
Q 1206 3584 1959 3584 
z
" transform="scale(0.015625)"/>
     </defs>
     <use xlink:href="#DejaVuSans-64"/>
     <use xlink:href="#DejaVuSans-61" x="63.476562"/>
     <use xlink:href="#DejaVuSans-69" x="124.755859"/>
     <use xlink:href="#DejaVuSans-6c" x="152.539062"/>
     <use xlink:href="#DejaVuSans-79" x="180.322266"/>
     <use xlink:href="#DejaVuSans-5f" x="239.501953"/>
     <use xlink:href="#DejaVuSans-72" x="289.501953"/>
     <use xlink:href="#DejaVuSans-65" x="328.365234"/>
     <use xlink:href="#DejaVuSans-70" x="389.888672"/>
     <use xlink:href="#DejaVuSans-6f" x="453.365234"/>
     <use xlink:href="#DejaVuSans-72" x="514.546875"/>
     <use xlink:href="#DejaVuSans-74" x="555.660156"/>
    </g>
   </g>
   <g id="legend_1">
    <g id="patch_7">
     <path d="M 64.6 152.218875 
L 178.64375 152.218875 
Q 180.64375 152.218875 180.64375 150.218875 
L 180.64375 48.472 
Q 180.64375 46.472 178.64375 46.472 
L 64.6 46.472 
Q 62.6 46.472 62.6 48.472 
L 62.6 150.218875 
Q 62.6 152.218875 64.6 152.218875 
z
" style="fill: #ffffff; opacity: 0.8; stroke: #cccccc; stroke-linejoin: miter"/>
    </g>
    <g id="line2d_23">
     <path d="M 66.6 54.570437 
L 76.6 54.570437 
L 86.6 54.570437 
" style="fill: none; stroke: #0000ff; stroke-opacity: 0.9; stroke-width: 2; stroke-linecap: square"/>
    </g>
    <g id="text_18">
     <!-- alpaca -->
     <g transform="translate(94.6 58.070437)scale(0.1 -0.1)">
      <defs>
       <path id="DejaVuSans-63" d="M 3122 3366 
L 3122 2828 
Q 2878 2963 2633 3030 
Q 2388 3097 2138 3097 
Q 1578 3097 1268 2742 
Q 959 2388 959 1747 
Q 959 1106 1268 751 
Q 1578 397 2138 397 
Q 2388 397 2633 464 
Q 2878 531 3122 666 
L 3122 134 
Q 2881 22 2623 -34 
Q 2366 -91 2075 -91 
Q 1284 -91 818 406 
Q 353 903 353 1747 
Q 353 2603 823 3093 
Q 1294 3584 2113 3584 
Q 2378 3584 2631 3529 
Q 2884 3475 3122 3366 
z
" transform="scale(0.015625)"/>
      </defs>
      <use xlink:href="#DejaVuSans-61"/>
      <use xlink:href="#DejaVuSans-6c" x="61.279297"/>
      <use xlink:href="#DejaVuSans-70" x="89.0625"/>
      <use xlink:href="#DejaVuSans-61" x="152.539062"/>
      <use xlink:href="#DejaVuSans-63" x="213.818359"/>
      <use xlink:href="#DejaVuSans-61" x="268.798828"/>
     </g>
    </g>
    <g id="line2d_24">
     <path d="M 66.6 69.248562 
L 76.6 69.248562 
L 86.6 69.248562 
" style="fill: none; stroke: #ff0000; stroke-opacity: 0.9; stroke-width: 2; stroke-linecap: square"/>
    </g>
    <g id="text_19">
     <!-- mattress -->
     <g transform="translate(94.6 72.748562)scale(0.1 -0.1)">
      <defs>
       <path id="DejaVuSans-6d" d="M 3328 2828 
Q 3544 3216 3844 3400 
Q 4144 3584 4550 3584 
Q 5097 3584 5394 3201 
Q 5691 2819 5691 2113 
L 5691 0 
L 5113 0 
L 5113 2094 
Q 5113 2597 4934 2840 
Q 4756 3084 4391 3084 
Q 3944 3084 3684 2787 
Q 3425 2491 3425 1978 
L 3425 0 
L 2847 0 
L 2847 2094 
Q 2847 2600 2669 2842 
Q 2491 3084 2119 3084 
Q 1678 3084 1418 2786 
Q 1159 2488 1159 1978 
L 1159 0 
L 581 0 
L 581 3500 
L 1159 3500 
L 1159 2956 
Q 1356 3278 1631 3431 
Q 1906 3584 2284 3584 
Q 2666 3584 2933 3390 
Q 3200 3197 3328 2828 
z
" transform="scale(0.015625)"/>
       <path id="DejaVuSans-73" d="M 2834 3397 
L 2834 2853 
Q 2591 2978 2328 3040 
Q 2066 3103 1784 3103 
Q 1356 3103 1142 2972 
Q 928 2841 928 2578 
Q 928 2378 1081 2264 
Q 1234 2150 1697 2047 
L 1894 2003 
Q 2506 1872 2764 1633 
Q 3022 1394 3022 966 
Q 3022 478 2636 193 
Q 2250 -91 1575 -91 
Q 1294 -91 989 -36 
Q 684 19 347 128 
L 347 722 
Q 666 556 975 473 
Q 1284 391 1588 391 
Q 1994 391 2212 530 
Q 2431 669 2431 922 
Q 2431 1156 2273 1281 
Q 2116 1406 1581 1522 
L 1381 1569 
Q 847 1681 609 1914 
Q 372 2147 372 2553 
Q 372 3047 722 3315 
Q 1072 3584 1716 3584 
Q 2034 3584 2315 3537 
Q 2597 3491 2834 3397 
z
" transform="scale(0.015625)"/>
      </defs>
      <use xlink:href="#DejaVuSans-6d"/>
      <use xlink:href="#DejaVuSans-61" x="97.412109"/>
      <use xlink:href="#DejaVuSans-74" x="158.691406"/>
      <use xlink:href="#DejaVuSans-74" x="197.900391"/>
      <use xlink:href="#DejaVuSans-72" x="237.109375"/>
      <use xlink:href="#DejaVuSans-65" x="275.972656"/>
      <use xlink:href="#DejaVuSans-73" x="337.496094"/>
      <use xlink:href="#DejaVuSans-73" x="389.595703"/>
     </g>
    </g>
    <g id="line2d_25">
     <path d="M 66.6 83.926687 
L 76.6 83.926687 
L 86.6 83.926687 
" style="fill: none; stroke: #ec5283; stroke-width: 2; stroke-linecap: square"/>
    </g>
    <g id="text_20">
     <!-- daily-close-rebal -->
     <g transform="translate(94.6 87.426687)scale(0.1 -0.1)">
      <defs>
       <path id="DejaVuSans-62" d="M 3116 1747 
Q 3116 2381 2855 2742 
Q 2594 3103 2138 3103 
Q 1681 3103 1420 2742 
Q 1159 2381 1159 1747 
Q 1159 1113 1420 752 
Q 1681 391 2138 391 
Q 2594 391 2855 752 
Q 3116 1113 3116 1747 
z
M 1159 2969 
Q 1341 3281 1617 3432 
Q 1894 3584 2278 3584 
Q 2916 3584 3314 3078 
Q 3713 2572 3713 1747 
Q 3713 922 3314 415 
Q 2916 -91 2278 -91 
Q 1894 -91 1617 61 
Q 1341 213 1159 525 
L 1159 0 
L 581 0 
L 581 4863 
L 1159 4863 
L 1159 2969 
z
" transform="scale(0.015625)"/>
      </defs>
      <use xlink:href="#DejaVuSans-64"/>
      <use xlink:href="#DejaVuSans-61" x="63.476562"/>
      <use xlink:href="#DejaVuSans-69" x="124.755859"/>
      <use xlink:href="#DejaVuSans-6c" x="152.539062"/>
      <use xlink:href="#DejaVuSans-79" x="180.322266"/>
      <use xlink:href="#DejaVuSans-2d" x="237.751953"/>
      <use xlink:href="#DejaVuSans-63" x="273.835938"/>
      <use xlink:href="#DejaVuSans-6c" x="328.816406"/>
      <use xlink:href="#DejaVuSans-6f" x="356.599609"/>
      <use xlink:href="#DejaVuSans-73" x="417.78125"/>
      <use xlink:href="#DejaVuSans-65" x="469.880859"/>
      <use xlink:href="#DejaVuSans-2d" x="531.404297"/>
      <use xlink:href="#DejaVuSans-72" x="567.488281"/>
      <use xlink:href="#DejaVuSans-65" x="606.351562"/>
      <use xlink:href="#DejaVuSans-62" x="667.875"/>
      <use xlink:href="#DejaVuSans-61" x="731.351562"/>
      <use xlink:href="#DejaVuSans-6c" x="792.630859"/>
     </g>
    </g>
    <g id="line2d_26">
     <path d="M 66.6 98.604812 
L 76.6 98.604812 
L 86.6 98.604812 
" style="fill: none; stroke: #ff8040; stroke-opacity: 0.9; stroke-width: 2; stroke-linecap: square"/>
    </g>
    <g id="text_21">
     <!-- trader-0850 -->
     <g transform="translate(94.6 102.104812)scale(0.1 -0.1)">
      <defs>
       <path id="DejaVuSans-38" d="M 2034 2216 
Q 1584 2216 1326 1975 
Q 1069 1734 1069 1313 
Q 1069 891 1326 650 
Q 1584 409 2034 409 
Q 2484 409 2743 651 
Q 3003 894 3003 1313 
Q 3003 1734 2745 1975 
Q 2488 2216 2034 2216 
z
M 1403 2484 
Q 997 2584 770 2862 
Q 544 3141 544 3541 
Q 544 4100 942 4425 
Q 1341 4750 2034 4750 
Q 2731 4750 3128 4425 
Q 3525 4100 3525 3541 
Q 3525 3141 3298 2862 
Q 3072 2584 2669 2484 
Q 3125 2378 3379 2068 
Q 3634 1759 3634 1313 
Q 3634 634 3220 271 
Q 2806 -91 2034 -91 
Q 1263 -91 848 271 
Q 434 634 434 1313 
Q 434 1759 690 2068 
Q 947 2378 1403 2484 
z
M 1172 3481 
Q 1172 3119 1398 2916 
Q 1625 2713 2034 2713 
Q 2441 2713 2670 2916 
Q 2900 3119 2900 3481 
Q 2900 3844 2670 4047 
Q 2441 4250 2034 4250 
Q 1625 4250 1398 4047 
Q 1172 3844 1172 3481 
z
" transform="scale(0.015625)"/>
      </defs>
      <use xlink:href="#DejaVuSans-74"/>
      <use xlink:href="#DejaVuSans-72" x="39.208984"/>
      <use xlink:href="#DejaVuSans-61" x="80.322266"/>
      <use xlink:href="#DejaVuSans-64" x="141.601562"/>
      <use xlink:href="#DejaVuSans-65" x="205.078125"/>
      <use xlink:href="#DejaVuSans-72" x="266.601562"/>
      <use xlink:href="#DejaVuSans-2d" x="301.339844"/>
      <use xlink:href="#DejaVuSans-30" x="337.423828"/>
      <use xlink:href="#DejaVuSans-38" x="401.046875"/>
      <use xlink:href="#DejaVuSans-35" x="464.669922"/>
      <use xlink:href="#DejaVuSans-30" x="528.292969"/>
     </g>
    </g>
    <g id="line2d_27">
     <path d="M 66.6 113.282937 
L 76.6 113.282937 
L 86.6 113.282937 
" style="fill: none; stroke: #a5b9cf; stroke-width: 2; stroke-linecap: square"/>
    </g>
    <g id="text_22">
     <!-- default-cfg -->
     <g transform="translate(94.6 116.782937)scale(0.1 -0.1)">
      <defs>
       <path id="DejaVuSans-66" d="M 2375 4863 
L 2375 4384 
L 1825 4384 
Q 1516 4384 1395 4259 
Q 1275 4134 1275 3809 
L 1275 3500 
L 2222 3500 
L 2222 3053 
L 1275 3053 
L 1275 0 
L 697 0 
L 697 3053 
L 147 3053 
L 147 3500 
L 697 3500 
L 697 3744 
Q 697 4328 969 4595 
Q 1241 4863 1831 4863 
L 2375 4863 
z
" transform="scale(0.015625)"/>
       <path id="DejaVuSans-75" d="M 544 1381 
L 544 3500 
L 1119 3500 
L 1119 1403 
Q 1119 906 1312 657 
Q 1506 409 1894 409 
Q 2359 409 2629 706 
Q 2900 1003 2900 1516 
L 2900 3500 
L 3475 3500 
L 3475 0 
L 2900 0 
L 2900 538 
Q 2691 219 2414 64 
Q 2138 -91 1772 -91 
Q 1169 -91 856 284 
Q 544 659 544 1381 
z
M 1991 3584 
L 1991 3584 
z
" transform="scale(0.015625)"/>
       <path id="DejaVuSans-67" d="M 2906 1791 
Q 2906 2416 2648 2759 
Q 2391 3103 1925 3103 
Q 1463 3103 1205 2759 
Q 947 2416 947 1791 
Q 947 1169 1205 825 
Q 1463 481 1925 481 
Q 2391 481 2648 825 
Q 2906 1169 2906 1791 
z
M 3481 434 
Q 3481 -459 3084 -895 
Q 2688 -1331 1869 -1331 
Q 1566 -1331 1297 -1286 
Q 1028 -1241 775 -1147 
L 775 -588 
Q 1028 -725 1275 -790 
Q 1522 -856 1778 -856 
Q 2344 -856 2625 -561 
Q 2906 -266 2906 331 
L 2906 616 
Q 2728 306 2450 153 
Q 2172 0 1784 0 
Q 1141 0 747 490 
Q 353 981 353 1791 
Q 353 2603 747 3093 
Q 1141 3584 1784 3584 
Q 2172 3584 2450 3431 
Q 2728 3278 2906 2969 
L 2906 3500 
L 3481 3500 
L 3481 434 
z
" transform="scale(0.015625)"/>
      </defs>
      <use xlink:href="#DejaVuSans-64"/>
      <use xlink:href="#DejaVuSans-65" x="63.476562"/>
      <use xlink:href="#DejaVuSans-66" x="125"/>
      <use xlink:href="#DejaVuSans-61" x="160.205078"/>
      <use xlink:href="#DejaVuSans-75" x="221.484375"/>
      <use xlink:href="#DejaVuSans-6c" x="284.863281"/>
      <use xlink:href="#DejaVuSans-74" x="312.646484"/>
      <use xlink:href="#DejaVuSans-2d" x="351.855469"/>
      <use xlink:href="#DejaVuSans-63" x="387.939453"/>
      <use xlink:href="#DejaVuSans-66" x="442.919922"/>
      <use xlink:href="#DejaVuSans-67" x="478.125"/>
     </g>
    </g>
    <g id="line2d_28">
     <path d="M 66.6 127.961062 
L 76.6 127.961062 
L 86.6 127.961062 
" style="fill: none; stroke: #0d0d0d; stroke-opacity: 0.25; stroke-width: 2; stroke-linecap: square"/>
    </g>
    <g id="text_23">
     <!-- rando-min -->
     <g transform="translate(94.6 131.461062)scale(0.1 -0.1)">
      <defs>
       <path id="DejaVuSans-6e" d="M 3513 2113 
L 3513 0 
L 2938 0 
L 2938 2094 
Q 2938 2591 2744 2837 
Q 2550 3084 2163 3084 
Q 1697 3084 1428 2787 
Q 1159 2491 1159 1978 
L 1159 0 
L 581 0 
L 581 3500 
L 1159 3500 
L 1159 2956 
Q 1366 3272 1645 3428 
Q 1925 3584 2291 3584 
Q 2894 3584 3203 3211 
Q 3513 2838 3513 2113 
z
" transform="scale(0.015625)"/>
      </defs>
      <use xlink:href="#DejaVuSans-72"/>
      <use xlink:href="#DejaVuSans-61" x="41.113281"/>
      <use xlink:href="#DejaVuSans-6e" x="102.392578"/>
      <use xlink:href="#DejaVuSans-64" x="165.771484"/>
      <use xlink:href="#DejaVuSans-6f" x="229.248047"/>
      <use xlink:href="#DejaVuSans-2d" x="292.304688"/>
      <use xlink:href="#DejaVuSans-6d" x="328.388672"/>
      <use xlink:href="#DejaVuSans-69" x="425.800781"/>
      <use xlink:href="#DejaVuSans-6e" x="453.583984"/>
     </g>
    </g>
    <g id="line2d_29">
     <path d="M 66.6 142.639187 
L 76.6 142.639187 
L 86.6 142.639187 
" style="fill: none; stroke: #0d0d0d; stroke-opacity: 0.25; stroke-width: 2; stroke-linecap: square"/>
    </g>
    <g id="text_24">
     <!-- rando-max -->
     <g transform="translate(94.6 146.139187)scale(0.1 -0.1)">
      <defs>
       <path id="DejaVuSans-78" d="M 3513 3500 
L 2247 1797 
L 3578 0 
L 2900 0 
L 1881 1375 
L 863 0 
L 184 0 
L 1544 1831 
L 300 3500 
L 978 3500 
L 1906 2253 
L 2834 3500 
L 3513 3500 
z
" transform="scale(0.015625)"/>
      </defs>
      <use xlink:href="#DejaVuSans-72"/>
      <use xlink:href="#DejaVuSans-61" x="41.113281"/>
      <use xlink:href="#DejaVuSans-6e" x="102.392578"/>
      <use xlink:href="#DejaVuSans-64" x="165.771484"/>
      <use xlink:href="#DejaVuSans-6f" x="229.248047"/>
      <use xlink:href="#DejaVuSans-2d" x="292.304688"/>
      <use xlink:href="#DejaVuSans-6d" x="328.388672"/>
      <use xlink:href="#DejaVuSans-61" x="425.800781"/>
      <use xlink:href="#DejaVuSans-78" x="487.080078"/>
     </g>
    </g>
   </g>
  </g>
 </g>
 <defs>
  <clipPath id="pb49cddfa70">
   <rect x="57.6" y="41.472" width="357.12" height="235.008"/>
  </clipPath>
 </defs>
</svg>
