<?xml version="1.0" encoding="utf-8" standalone="no"?>
<!DOCTYPE svg PUBLIC "-//W3C//DTD SVG 1.1//EN"
  "http://www.w3.org/Graphics/SVG/1.1/DTD/svg11.dtd">
<svg height="345.6pt" version="1.1" viewBox="0 0 460.8 345.6" width="460.8pt" xmlns="http://www.w3.org/2000/svg" xmlns:xlink="http://www.w3.org/1999/xlink">
 <metadata>
  <rdf:RDF xmlns:cc="http://creativecommons.org/ns#" xmlns:dc="http://purl.org/dc/elements/1.1/" xmlns:rdf="http://www.w3.org/1999/02/22-rdf-syntax-ns#">
   <cc:Work>
    <dc:type rdf:resource="http://purl.org/dc/dcmitype/StillImage"/>
    <dc:date>2022-05-20T10:01:35.559439</dc:date>
    <dc:format>image/svg+xml</dc:format>
    <dc:creator>
     <cc:Agent>
      <dc:title>Matplotlib v3.4.3, https://matplotlib.org/</dc:title>
     </cc:Agent>
    </dc:creator>
   </cc:Work>
  </rdf:RDF>
 </metadata>
 <defs>
  <style type="text/css">*{stroke-linecap:butt;stroke-linejoin:round;}</style>
 </defs>
 <g id="figure_1">
  <g id="patch_1">
   <path d="M 0 345.6 
L 460.8 345.6 
L 460.8 0 
L 0 0 
z
" style="fill:#ffffff;"/>
  </g>
  <g id="axes_1">
   <g id="patch_2">
    <path d="M 57.6 276.48 
L 414.72 276.48 
L 414.72 41.472 
L 57.6 41.472 
z
" style="fill:#ffffff;"/>
   </g>
   <g id="matplotlib.axis_1">
    <g id="xtick_1">
     <g id="line2d_1">
      <defs>
       <path d="M 0 0 
L 0 3.5 
" id="m276ef73a46" style="stroke:#000000;stroke-width:0.8;"/>
      </defs>
      <g>
       <use style="stroke:#000000;stroke-width:0.8;" x="97.022338" xlink:href="#m276ef73a46" y="276.48"/>
      </g>
     </g>
     <g id="text_1">
      <!-- 2021-12 -->
      <g transform="translate(59.797517 310.951846)rotate(-30)scale(0.1 -0.1)">
       <defs>
        <path d="M 1228 531 
L 3431 531 
L 3431 0 
L 469 0 
L 469 531 
Q 828 903 1448 1529 
Q 2069 2156 2228 2338 
Q 2531 2678 2651 2914 
Q 2772 3150 2772 3378 
Q 2772 3750 2511 3984 
Q 2250 4219 1831 4219 
Q 1534 4219 1204 4116 
Q 875 4013 500 3803 
L 500 4441 
Q 881 4594 1212 4672 
Q 1544 4750 1819 4750 
Q 2544 4750 2975 4387 
Q 3406 4025 3406 3419 
Q 3406 3131 3298 2873 
Q 3191 2616 2906 2266 
Q 2828 2175 2409 1742 
Q 1991 1309 1228 531 
z
" id="DejaVuSans-32" transform="scale(0.015625)"/>
        <path d="M 2034 4250 
Q 1547 4250 1301 3770 
Q 1056 3291 1056 2328 
Q 1056 1369 1301 889 
Q 1547 409 2034 409 
Q 2525 409 2770 889 
Q 3016 1369 3016 2328 
Q 3016 3291 2770 3770 
Q 2525 4250 2034 4250 
z
M 2034 4750 
Q 2819 4750 3233 4129 
Q 3647 3509 3647 2328 
Q 3647 1150 3233 529 
Q 2819 -91 2034 -91 
Q 1250 -91 836 529 
Q 422 1150 422 2328 
Q 422 3509 836 4129 
Q 1250 4750 2034 4750 
z
" id="DejaVuSans-30" transform="scale(0.015625)"/>
        <path d="M 794 531 
L 1825 531 
L 1825 4091 
L 703 3866 
L 703 4441 
L 1819 4666 
L 2450 4666 
L 2450 531 
L 3481 531 
L 3481 0 
L 794 0 
L 794 531 
z
" id="DejaVuSans-31" transform="scale(0.015625)"/>
        <path d="M 313 2009 
L 1997 2009 
L 1997 1497 
L 313 1497 
L 313 2009 
z
" id="DejaVuSans-2d" transform="scale(0.015625)"/>
       </defs>
       <use xlink:href="#DejaVuSans-32"/>
       <use x="63.623047" xlink:href="#DejaVuSans-30"/>
       <use x="127.246094" xlink:href="#DejaVuSans-32"/>
       <use x="190.869141" xlink:href="#DejaVuSans-31"/>
       <use x="254.492188" xlink:href="#DejaVuSans-2d"/>
       <use x="290.576172" xlink:href="#DejaVuSans-31"/>
       <use x="354.199219" xlink:href="#DejaVuSans-32"/>
      </g>
     </g>
    </g>
    <g id="xtick_2">
     <g id="line2d_2">
      <g>
       <use style="stroke:#000000;stroke-width:0.8;" x="152.320639" xlink:href="#m276ef73a46" y="276.48"/>
      </g>
     </g>
     <g id="text_2">
      <!-- 2022-01 -->
      <g transform="translate(115.095819 310.951846)rotate(-30)scale(0.1 -0.1)">
       <use xlink:href="#DejaVuSans-32"/>
       <use x="63.623047" xlink:href="#DejaVuSans-30"/>
       <use x="127.246094" xlink:href="#DejaVuSans-32"/>
       <use x="190.869141" xlink:href="#DejaVuSans-32"/>
       <use x="254.492188" xlink:href="#DejaVuSans-2d"/>
       <use x="290.576172" xlink:href="#DejaVuSans-30"/>
       <use x="354.199219" xlink:href="#DejaVuSans-31"/>
      </g>
     </g>
    </g>
    <g id="xtick_3">
     <g id="line2d_3">
      <g>
       <use style="stroke:#000000;stroke-width:0.8;" x="207.618941" xlink:href="#m276ef73a46" y="276.48"/>
      </g>
     </g>
     <g id="text_3">
      <!-- 2022-02 -->
      <g transform="translate(170.39412 310.951846)rotate(-30)scale(0.1 -0.1)">
       <use xlink:href="#DejaVuSans-32"/>
       <use x="63.623047" xlink:href="#DejaVuSans-30"/>
       <use x="127.246094" xlink:href="#DejaVuSans-32"/>
       <use x="190.869141" xlink:href="#DejaVuSans-32"/>
       <use x="254.492188" xlink:href="#DejaVuSans-2d"/>
       <use x="290.576172" xlink:href="#DejaVuSans-30"/>
       <use x="354.199219" xlink:href="#DejaVuSans-32"/>
      </g>
     </g>
    </g>
    <g id="xtick_4">
     <g id="line2d_4">
      <g>
       <use style="stroke:#000000;stroke-width:0.8;" x="257.565794" xlink:href="#m276ef73a46" y="276.48"/>
      </g>
     </g>
     <g id="text_4">
      <!-- 2022-03 -->
      <g transform="translate(220.340973 310.951846)rotate(-30)scale(0.1 -0.1)">
       <defs>
        <path d="M 2597 2516 
Q 3050 2419 3304 2112 
Q 3559 1806 3559 1356 
Q 3559 666 3084 287 
Q 2609 -91 1734 -91 
Q 1441 -91 1130 -33 
Q 819 25 488 141 
L 488 750 
Q 750 597 1062 519 
Q 1375 441 1716 441 
Q 2309 441 2620 675 
Q 2931 909 2931 1356 
Q 2931 1769 2642 2001 
Q 2353 2234 1838 2234 
L 1294 2234 
L 1294 2753 
L 1863 2753 
Q 2328 2753 2575 2939 
Q 2822 3125 2822 3475 
Q 2822 3834 2567 4026 
Q 2313 4219 1838 4219 
Q 1578 4219 1281 4162 
Q 984 4106 628 3988 
L 628 4550 
Q 988 4650 1302 4700 
Q 1616 4750 1894 4750 
Q 2613 4750 3031 4423 
Q 3450 4097 3450 3541 
Q 3450 3153 3228 2886 
Q 3006 2619 2597 2516 
z
" id="DejaVuSans-33" transform="scale(0.015625)"/>
       </defs>
       <use xlink:href="#DejaVuSans-32"/>
       <use x="63.623047" xlink:href="#DejaVuSans-30"/>
       <use x="127.246094" xlink:href="#DejaVuSans-32"/>
       <use x="190.869141" xlink:href="#DejaVuSans-32"/>
       <use x="254.492188" xlink:href="#DejaVuSans-2d"/>
       <use x="290.576172" xlink:href="#DejaVuSans-30"/>
       <use x="354.199219" xlink:href="#DejaVuSans-33"/>
      </g>
     </g>
    </g>
    <g id="xtick_5">
     <g id="line2d_5">
      <g>
       <use style="stroke:#000000;stroke-width:0.8;" x="312.864096" xlink:href="#m276ef73a46" y="276.48"/>
      </g>
     </g>
     <g id="text_5">
      <!-- 2022-04 -->
      <g transform="translate(275.639275 310.951846)rotate(-30)scale(0.1 -0.1)">
       <defs>
        <path d="M 2419 4116 
L 825 1625 
L 2419 1625 
L 2419 4116 
z
M 2253 4666 
L 3047 4666 
L 3047 1625 
L 3713 1625 
L 3713 1100 
L 3047 1100 
L 3047 0 
L 2419 0 
L 2419 1100 
L 313 1100 
L 313 1709 
L 2253 4666 
z
" id="DejaVuSans-34" transform="scale(0.015625)"/>
       </defs>
       <use xlink:href="#DejaVuSans-32"/>
       <use x="63.623047" xlink:href="#DejaVuSans-30"/>
       <use x="127.246094" xlink:href="#DejaVuSans-32"/>
       <use x="190.869141" xlink:href="#DejaVuSans-32"/>
       <use x="254.492188" xlink:href="#DejaVuSans-2d"/>
       <use x="290.576172" xlink:href="#DejaVuSans-30"/>
       <use x="354.199219" xlink:href="#DejaVuSans-34"/>
      </g>
     </g>
    </g>
    <g id="xtick_6">
     <g id="line2d_6">
      <g>
       <use style="stroke:#000000;stroke-width:0.8;" x="366.378581" xlink:href="#m276ef73a46" y="276.48"/>
      </g>
     </g>
     <g id="text_6">
      <!-- 2022-05 -->
      <g transform="translate(329.153761 310.951846)rotate(-30)scale(0.1 -0.1)">
       <defs>
        <path d="M 691 4666 
L 3169 4666 
L 3169 4134 
L 1269 4134 
L 1269 2991 
Q 1406 3038 1543 3061 
Q 1681 3084 1819 3084 
Q 2600 3084 3056 2656 
Q 3513 2228 3513 1497 
Q 3513 744 3044 326 
Q 2575 -91 1722 -91 
Q 1428 -91 1123 -41 
Q 819 9 494 109 
L 494 744 
Q 775 591 1075 516 
Q 1375 441 1709 441 
Q 2250 441 2565 725 
Q 2881 1009 2881 1497 
Q 2881 1984 2565 2268 
Q 2250 2553 1709 2553 
Q 1456 2553 1204 2497 
Q 953 2441 691 2322 
L 691 4666 
z
" id="DejaVuSans-35" transform="scale(0.015625)"/>
       </defs>
       <use xlink:href="#DejaVuSans-32"/>
       <use x="63.623047" xlink:href="#DejaVuSans-30"/>
       <use x="127.246094" xlink:href="#DejaVuSans-32"/>
       <use x="190.869141" xlink:href="#DejaVuSans-32"/>
       <use x="254.492188" xlink:href="#DejaVuSans-2d"/>
       <use x="290.576172" xlink:href="#DejaVuSans-30"/>
       <use x="354.199219" xlink:href="#DejaVuSans-35"/>
      </g>
     </g>
    </g>
    <g id="text_7">
     <!-- date -->
     <g transform="translate(224.885 324.351346)scale(0.1 -0.1)">
      <defs>
       <path d="M 2906 2969 
L 2906 4863 
L 3481 4863 
L 3481 0 
L 2906 0 
L 2906 525 
Q 2725 213 2448 61 
Q 2172 -91 1784 -91 
Q 1150 -91 751 415 
Q 353 922 353 1747 
Q 353 2572 751 3078 
Q 1150 3584 1784 3584 
Q 2172 3584 2448 3432 
Q 2725 3281 2906 2969 
z
M 947 1747 
Q 947 1113 1208 752 
Q 1469 391 1925 391 
Q 2381 391 2643 752 
Q 2906 1113 2906 1747 
Q 2906 2381 2643 2742 
Q 2381 3103 1925 3103 
Q 1469 3103 1208 2742 
Q 947 2381 947 1747 
z
" id="DejaVuSans-64" transform="scale(0.015625)"/>
       <path d="M 2194 1759 
Q 1497 1759 1228 1600 
Q 959 1441 959 1056 
Q 959 750 1161 570 
Q 1363 391 1709 391 
Q 2188 391 2477 730 
Q 2766 1069 2766 1631 
L 2766 1759 
L 2194 1759 
z
M 3341 1997 
L 3341 0 
L 2766 0 
L 2766 531 
Q 2569 213 2275 61 
Q 1981 -91 1556 -91 
Q 1019 -91 701 211 
Q 384 513 384 1019 
Q 384 1609 779 1909 
Q 1175 2209 1959 2209 
L 2766 2209 
L 2766 2266 
Q 2766 2663 2505 2880 
Q 2244 3097 1772 3097 
Q 1472 3097 1187 3025 
Q 903 2953 641 2809 
L 641 3341 
Q 956 3463 1253 3523 
Q 1550 3584 1831 3584 
Q 2591 3584 2966 3190 
Q 3341 2797 3341 1997 
z
" id="DejaVuSans-61" transform="scale(0.015625)"/>
       <path d="M 1172 4494 
L 1172 3500 
L 2356 3500 
L 2356 3053 
L 1172 3053 
L 1172 1153 
Q 1172 725 1289 603 
Q 1406 481 1766 481 
L 2356 481 
L 2356 0 
L 1766 0 
Q 1100 0 847 248 
Q 594 497 594 1153 
L 594 3053 
L 172 3053 
L 172 3500 
L 594 3500 
L 594 4494 
L 1172 4494 
z
" id="DejaVuSans-74" transform="scale(0.015625)"/>
       <path d="M 3597 1894 
L 3597 1613 
L 953 1613 
Q 991 1019 1311 708 
Q 1631 397 2203 397 
Q 2534 397 2845 478 
Q 3156 559 3463 722 
L 3463 178 
Q 3153 47 2828 -22 
Q 2503 -91 2169 -91 
Q 1331 -91 842 396 
Q 353 884 353 1716 
Q 353 2575 817 3079 
Q 1281 3584 2069 3584 
Q 2775 3584 3186 3129 
Q 3597 2675 3597 1894 
z
M 3022 2063 
Q 3016 2534 2758 2815 
Q 2500 3097 2075 3097 
Q 1594 3097 1305 2825 
Q 1016 2553 972 2059 
L 3022 2063 
z
" id="DejaVuSans-65" transform="scale(0.015625)"/>
      </defs>
      <use xlink:href="#DejaVuSans-64"/>
      <use x="63.476562" xlink:href="#DejaVuSans-61"/>
      <use x="124.755859" xlink:href="#DejaVuSans-74"/>
      <use x="163.964844" xlink:href="#DejaVuSans-65"/>
     </g>
    </g>
   </g>
   <g id="matplotlib.axis_2">
    <g id="ytick_1">
     <g id="line2d_7">
      <defs>
       <path d="M 0 0 
L -3.5 0 
" id="m522f0d14a4" style="stroke:#000000;stroke-width:0.8;"/>
      </defs>
      <g>
       <use style="stroke:#000000;stroke-width:0.8;" x="57.6" xlink:href="#m522f0d14a4" y="271.221354"/>
      </g>
     </g>
     <g id="text_8">
      <!-- 82500 -->
      <g transform="translate(18.7875 275.020573)scale(0.1 -0.1)">
       <defs>
        <path d="M 2034 2216 
Q 1584 2216 1326 1975 
Q 1069 1734 1069 1313 
Q 1069 891 1326 650 
Q 1584 409 2034 409 
Q 2484 409 2743 651 
Q 3003 894 3003 1313 
Q 3003 1734 2745 1975 
Q 2488 2216 2034 2216 
z
M 1403 2484 
Q 997 2584 770 2862 
Q 544 3141 544 3541 
Q 544 4100 942 4425 
Q 1341 4750 2034 4750 
Q 2731 4750 3128 4425 
Q 3525 4100 3525 3541 
Q 3525 3141 3298 2862 
Q 3072 2584 2669 2484 
Q 3125 2378 3379 2068 
Q 3634 1759 3634 1313 
Q 3634 634 3220 271 
Q 2806 -91 2034 -91 
Q 1263 -91 848 271 
Q 434 634 434 1313 
Q 434 1759 690 2068 
Q 947 2378 1403 2484 
z
M 1172 3481 
Q 1172 3119 1398 2916 
Q 1625 2713 2034 2713 
Q 2441 2713 2670 2916 
Q 2900 3119 2900 3481 
Q 2900 3844 2670 4047 
Q 2441 4250 2034 4250 
Q 1625 4250 1398 4047 
Q 1172 3844 1172 3481 
z
" id="DejaVuSans-38" transform="scale(0.015625)"/>
       </defs>
       <use xlink:href="#DejaVuSans-38"/>
       <use x="63.623047" xlink:href="#DejaVuSans-32"/>
       <use x="127.246094" xlink:href="#DejaVuSans-35"/>
       <use x="190.869141" xlink:href="#DejaVuSans-30"/>
       <use x="254.492188" xlink:href="#DejaVuSans-30"/>
      </g>
     </g>
    </g>
    <g id="ytick_2">
     <g id="line2d_8">
      <g>
       <use style="stroke:#000000;stroke-width:0.8;" x="57.6" xlink:href="#m522f0d14a4" y="243.446161"/>
      </g>
     </g>
     <g id="text_9">
      <!-- 85000 -->
      <g transform="translate(18.7875 247.24538)scale(0.1 -0.1)">
       <use xlink:href="#DejaVuSans-38"/>
       <use x="63.623047" xlink:href="#DejaVuSans-35"/>
       <use x="127.246094" xlink:href="#DejaVuSans-30"/>
       <use x="190.869141" xlink:href="#DejaVuSans-30"/>
       <use x="254.492188" xlink:href="#DejaVuSans-30"/>
      </g>
     </g>
    </g>
    <g id="ytick_3">
     <g id="line2d_9">
      <g>
       <use style="stroke:#000000;stroke-width:0.8;" x="57.6" xlink:href="#m522f0d14a4" y="215.670968"/>
      </g>
     </g>
     <g id="text_10">
      <!-- 87500 -->
      <g transform="translate(18.7875 219.470187)scale(0.1 -0.1)">
       <defs>
        <path d="M 525 4666 
L 3525 4666 
L 3525 4397 
L 1831 0 
L 1172 0 
L 2766 4134 
L 525 4134 
L 525 4666 
z
" id="DejaVuSans-37" transform="scale(0.015625)"/>
       </defs>
       <use xlink:href="#DejaVuSans-38"/>
       <use x="63.623047" xlink:href="#DejaVuSans-37"/>
       <use x="127.246094" xlink:href="#DejaVuSans-35"/>
       <use x="190.869141" xlink:href="#DejaVuSans-30"/>
       <use x="254.492188" xlink:href="#DejaVuSans-30"/>
      </g>
     </g>
    </g>
    <g id="ytick_4">
     <g id="line2d_10">
      <g>
       <use style="stroke:#000000;stroke-width:0.8;" x="57.6" xlink:href="#m522f0d14a4" y="187.895776"/>
      </g>
     </g>
     <g id="text_11">
      <!-- 90000 -->
      <g transform="translate(18.7875 191.694994)scale(0.1 -0.1)">
       <defs>
        <path d="M 703 97 
L 703 672 
Q 941 559 1184 500 
Q 1428 441 1663 441 
Q 2288 441 2617 861 
Q 2947 1281 2994 2138 
Q 2813 1869 2534 1725 
Q 2256 1581 1919 1581 
Q 1219 1581 811 2004 
Q 403 2428 403 3163 
Q 403 3881 828 4315 
Q 1253 4750 1959 4750 
Q 2769 4750 3195 4129 
Q 3622 3509 3622 2328 
Q 3622 1225 3098 567 
Q 2575 -91 1691 -91 
Q 1453 -91 1209 -44 
Q 966 3 703 97 
z
M 1959 2075 
Q 2384 2075 2632 2365 
Q 2881 2656 2881 3163 
Q 2881 3666 2632 3958 
Q 2384 4250 1959 4250 
Q 1534 4250 1286 3958 
Q 1038 3666 1038 3163 
Q 1038 2656 1286 2365 
Q 1534 2075 1959 2075 
z
" id="DejaVuSans-39" transform="scale(0.015625)"/>
       </defs>
       <use xlink:href="#DejaVuSans-39"/>
       <use x="63.623047" xlink:href="#DejaVuSans-30"/>
       <use x="127.246094" xlink:href="#DejaVuSans-30"/>
       <use x="190.869141" xlink:href="#DejaVuSans-30"/>
       <use x="254.492188" xlink:href="#DejaVuSans-30"/>
      </g>
     </g>
    </g>
    <g id="ytick_5">
     <g id="line2d_11">
      <g>
       <use style="stroke:#000000;stroke-width:0.8;" x="57.6" xlink:href="#m522f0d14a4" y="160.120583"/>
      </g>
     </g>
     <g id="text_12">
      <!-- 92500 -->
      <g transform="translate(18.7875 163.919802)scale(0.1 -0.1)">
       <use xlink:href="#DejaVuSans-39"/>
       <use x="63.623047" xlink:href="#DejaVuSans-32"/>
       <use x="127.246094" xlink:href="#DejaVuSans-35"/>
       <use x="190.869141" xlink:href="#DejaVuSans-30"/>
       <use x="254.492188" xlink:href="#DejaVuSans-30"/>
      </g>
     </g>
    </g>
    <g id="ytick_6">
     <g id="line2d_12">
      <g>
       <use style="stroke:#000000;stroke-width:0.8;" x="57.6" xlink:href="#m522f0d14a4" y="132.34539"/>
      </g>
     </g>
     <g id="text_13">
      <!-- 95000 -->
      <g transform="translate(18.7875 136.144609)scale(0.1 -0.1)">
       <use xlink:href="#DejaVuSans-39"/>
       <use x="63.623047" xlink:href="#DejaVuSans-35"/>
       <use x="127.246094" xlink:href="#DejaVuSans-30"/>
       <use x="190.869141" xlink:href="#DejaVuSans-30"/>
       <use x="254.492188" xlink:href="#DejaVuSans-30"/>
      </g>
     </g>
    </g>
    <g id="ytick_7">
     <g id="line2d_13">
      <g>
       <use style="stroke:#000000;stroke-width:0.8;" x="57.6" xlink:href="#m522f0d14a4" y="104.570198"/>
      </g>
     </g>
     <g id="text_14">
      <!-- 97500 -->
      <g transform="translate(18.7875 108.369416)scale(0.1 -0.1)">
       <use xlink:href="#DejaVuSans-39"/>
       <use x="63.623047" xlink:href="#DejaVuSans-37"/>
       <use x="127.246094" xlink:href="#DejaVuSans-35"/>
       <use x="190.869141" xlink:href="#DejaVuSans-30"/>
       <use x="254.492188" xlink:href="#DejaVuSans-30"/>
      </g>
     </g>
    </g>
    <g id="ytick_8">
     <g id="line2d_14">
      <g>
       <use style="stroke:#000000;stroke-width:0.8;" x="57.6" xlink:href="#m522f0d14a4" y="76.795005"/>
      </g>
     </g>
     <g id="text_15">
      <!-- 100000 -->
      <g transform="translate(12.425 80.594224)scale(0.1 -0.1)">
       <use xlink:href="#DejaVuSans-31"/>
       <use x="63.623047" xlink:href="#DejaVuSans-30"/>
       <use x="127.246094" xlink:href="#DejaVuSans-30"/>
       <use x="190.869141" xlink:href="#DejaVuSans-30"/>
       <use x="254.492188" xlink:href="#DejaVuSans-30"/>
       <use x="318.115234" xlink:href="#DejaVuSans-30"/>
      </g>
     </g>
    </g>
    <g id="ytick_9">
     <g id="line2d_15">
      <g>
       <use style="stroke:#000000;stroke-width:0.8;" x="57.6" xlink:href="#m522f0d14a4" y="49.019812"/>
      </g>
     </g>
     <g id="text_16">
      <!-- 102500 -->
      <g transform="translate(12.425 52.819031)scale(0.1 -0.1)">
       <use xlink:href="#DejaVuSans-31"/>
       <use x="63.623047" xlink:href="#DejaVuSans-30"/>
       <use x="127.246094" xlink:href="#DejaVuSans-32"/>
       <use x="190.869141" xlink:href="#DejaVuSans-35"/>
       <use x="254.492188" xlink:href="#DejaVuSans-30"/>
       <use x="318.115234" xlink:href="#DejaVuSans-30"/>
      </g>
     </g>
    </g>
   </g>
   <g id="line2d_16">
    <path clip-path="url(#pe1cf4dbcd1)" d="M 73.832727 75.647376 
L 75.616543 77.137366 
L 80.967992 81.183992 
L 82.751808 78.93968 
L 84.535624 75.891468 
L 88.103257 76.637213 
L 93.454705 87.846614 
L 95.238521 108.3638 
L 97.022338 121.292716 
L 98.806154 105.290868 
L 100.58997 114.46932 
L 105.941419 101.719818 
L 107.725235 79.195454 
L 109.509051 75.813027 
L 111.292867 83.919976 
L 113.076683 73.516721 
L 118.428132 83.812858 
L 120.211948 91.197338 
L 121.995764 74.714634 
L 123.77958 84.349792 
L 125.563397 96.965814 
L 130.914845 109.070846 
L 132.698661 91.137918 
L 134.482478 79.957539 
L 136.266294 73.657619 
L 143.401558 57.431606 
L 145.185375 58.73536 
L 146.969191 57.40109 
L 148.753007 60.074916 
L 150.536823 63.042273 
L 155.888272 56.763715 
L 157.672088 57.030713 
L 159.455904 78.668291 
L 161.23972 79.575249 
L 163.023536 84.277321 
L 168.374985 85.789991 
L 170.158801 76.105804 
L 171.942617 72.106912 
L 173.726434 87.713101 
L 175.51025 87.620235 
L 182.645514 106.436546 
L 184.429331 118.388415 
L 186.213147 129.488756 
L 187.996963 150.365255 
L 193.348412 146.398812 
L 195.132228 159.362505 
L 196.916044 161.124266 
L 198.69986 166.708969 
L 200.483676 141.833786 
L 205.835125 123.005711 
L 207.618941 115.220769 
L 209.402757 105.508637 
L 211.186573 130.241518 
L 212.97039 125.639464 
L 218.321838 128.902849 
L 220.105654 119.648959 
L 221.889471 104.691015 
L 223.673287 123.956689 
L 225.457103 144.419575 
L 230.808551 148.176657 
L 232.592368 131.545402 
L 234.376184 130.401636 
L 236.16 153.218897 
L 237.943816 160.009166 
L 245.079081 171.217326 
L 246.862897 189.45893 
L 248.646713 173.797674 
L 250.430529 151.375788 
L 255.781978 154.092354 
L 257.565794 169.726943 
L 259.34961 150.994591 
L 261.133427 155.767745 
L 262.917243 163.93963 
L 268.268691 195.027633 
L 270.052507 201.845135 
L 271.836324 176.320613 
L 273.62014 180.041349 
L 275.403956 192.897367 
L 280.755405 199.983363 
L 282.539221 178.890811 
L 284.323037 156.795097 
L 286.106853 143.511655 
L 287.890669 132.838647 
L 293.242118 133.604363 
L 295.025934 121.130312 
L 296.80975 134.920231 
L 298.593566 121.029327 
L 300.377383 115.896378 
L 305.728831 108.361805 
L 307.512647 95.264806 
L 309.296464 101.769335 
L 311.08028 118.631794 
L 312.864096 114.987117 
L 318.215544 105.904782 
L 319.999361 120.118427 
L 321.783177 129.981882 
L 323.566993 125.104463 
L 325.350809 127.599175 
L 330.702258 146.361487 
L 332.486074 150.330645 
L 334.26989 137.780638 
L 336.053706 151.16899 
L 343.188971 150.412418 
L 344.972787 134.374506 
L 346.756603 135.160519 
L 348.54042 150.407256 
L 350.324236 179.49556 
L 355.675684 173.47562 
L 357.4595 202.434309 
L 359.243317 199.423899 
L 361.027133 174.588063 
L 362.810949 211.707114 
L 368.162398 205.549707 
L 369.946214 201.305194 
L 371.73003 171.174635 
L 373.513846 207.448723 
L 375.297662 213.217333 
L 380.649111 243.721114 
L 382.432927 242.243251 
L 384.216743 257.477928 
L 386.000559 258.435682 
L 387.784376 236.483241 
L 393.135824 239.199049 
L 394.91964 220.414651 
L 396.703457 259.455159 
L 398.487273 256.26666 
" style="fill:none;stroke:#0000ff;stroke-linecap:square;stroke-opacity:0.9;stroke-width:2;"/>
   </g>
   <g id="line2d_17">
    <path clip-path="url(#pe1cf4dbcd1)" d="M 73.832727 75.647376 
L 75.616543 77.321185 
L 80.967992 81.233022 
L 82.751808 79.351235 
L 84.535624 76.343484 
L 88.103257 100.93876 
L 93.454705 87.593239 
L 95.238521 108.547677 
L 97.022338 121.152436 
L 98.806154 104.483777 
L 100.58997 113.857413 
L 105.941419 101.186818 
L 107.725235 79.485574 
L 109.509051 76.553674 
L 111.292867 83.875466 
L 113.076683 73.10974 
L 118.428132 83.542694 
L 120.211948 91.335661 
L 121.995764 74.372062 
L 123.77958 83.972708 
L 125.563397 96.432197 
L 130.914845 109.746613 
L 132.698661 91.668369 
L 134.482478 80.526079 
L 136.266294 73.803882 
L 143.401558 57.406069 
L 145.185375 59.174166 
L 146.969191 57.109741 
L 148.753007 60.056774 
L 150.536823 63.948229 
L 155.888272 57.039232 
L 157.672088 56.713237 
L 159.455904 79.102103 
L 161.23972 79.831693 
L 163.023536 83.849538 
L 168.374985 85.811935 
L 170.158801 75.07202 
L 171.942617 72.484983 
L 173.726434 88.31137 
L 175.51025 87.575393 
L 182.645514 106.860036 
L 184.429331 118.370049 
L 186.213147 129.884441 
L 187.996963 150.217403 
L 193.348412 146.382395 
L 195.132228 159.408193 
L 196.916044 161.231351 
L 198.69986 167.027314 
L 200.483676 141.585674 
L 205.835125 122.814841 
L 207.618941 114.81651 
L 209.402757 105.127632 
L 211.186573 130.467624 
L 212.97039 124.851499 
L 218.321838 129.384291 
L 220.105654 120.355338 
L 221.889471 104.887107 
L 223.673287 124.170436 
L 225.457103 144.344449 
L 230.808551 147.857086 
L 232.592368 132.103144 
L 234.376184 130.151196 
L 236.16 153.046792 
L 237.943816 160.202146 
L 245.079081 170.819086 
L 246.862897 189.110121 
L 248.646713 173.974124 
L 250.430529 151.191405 
L 255.781978 153.405129 
L 257.565794 169.293628 
L 259.34961 151.378353 
L 261.133427 156.329693 
L 262.917243 164.971117 
L 268.268691 194.62019 
L 270.052507 201.755199 
L 271.836324 176.070468 
L 273.62014 180.363818 
L 275.403956 193.488958 
L 280.755405 199.983381 
L 282.539221 178.385976 
L 284.323037 156.781341 
L 286.106853 143.263666 
L 287.890669 132.711687 
L 293.242118 134.462243 
L 295.025934 121.542172 
L 296.80975 135.216961 
L 298.593566 121.483927 
L 300.377383 115.71716 
L 305.728831 108.803431 
L 307.512647 94.756344 
L 309.296464 101.437749 
L 311.08028 118.036072 
L 312.864096 115.068094 
L 318.215544 106.597548 
L 319.999361 120.158021 
L 321.783177 130.506425 
L 323.566993 125.743591 
L 325.350809 128.272647 
L 330.702258 146.422112 
L 332.486074 149.709593 
L 334.26989 137.984072 
L 336.053706 150.958849 
L 343.188971 150.812007 
L 344.972787 133.999647 
L 346.756603 135.564356 
L 348.54042 150.708655 
L 350.324236 179.590607 
L 355.675684 172.939552 
L 357.4595 202.180403 
L 359.243317 199.915067 
L 361.027133 175.315001 
L 362.810949 212.174439 
L 368.162398 206.41021 
L 369.946214 201.756356 
L 371.73003 172.379936 
L 373.513846 207.639739 
L 375.297662 214.096722 
L 380.649111 245.459397 
L 382.432927 242.709504 
L 384.216743 258.234396 
L 386.000559 258.86048 
L 387.784376 237.141403 
L 393.135824 240.0536 
L 394.91964 221.723983 
L 396.703457 259.802099 
L 398.487273 265.369133 
" style="fill:none;stroke:#ff0000;stroke-linecap:square;stroke-opacity:0.9;stroke-width:2;"/>
   </g>
   <g id="line2d_18">
    <path clip-path="url(#pe1cf4dbcd1)" d="M 73.832727 75.647376 
L 75.616543 77.616601 
L 80.967992 80.258805 
L 82.751808 78.936949 
L 84.535624 75.990116 
L 88.103257 101.265091 
L 93.454705 87.626917 
L 95.238521 108.228986 
L 97.022338 120.745715 
L 98.806154 105.243691 
L 100.58997 113.78426 
L 105.941419 101.689941 
L 107.725235 78.995159 
L 109.509051 75.704188 
L 111.292867 83.876446 
L 113.076683 73.265284 
L 118.428132 83.955341 
L 120.211948 91.017441 
L 121.995764 74.706166 
L 123.77958 84.306894 
L 125.563397 96.127983 
L 130.914845 109.038466 
L 132.698661 91.616158 
L 134.482478 79.979948 
L 136.266294 73.545628 
L 143.401558 57.202021 
L 145.185375 58.925424 
L 146.969191 56.888258 
L 148.753007 59.970584 
L 150.536823 63.514651 
L 155.888272 56.776742 
L 157.672088 56.863054 
L 159.455904 78.93514 
L 161.23972 80.006683 
L 163.023536 84.006799 
L 168.374985 85.433937 
L 170.158801 75.552924 
L 171.942617 72.830444 
L 173.726434 87.446641 
L 175.51025 87.741627 
L 182.645514 107.352257 
L 184.429331 118.380808 
L 186.213147 129.54845 
L 187.996963 150.55801 
L 193.348412 146.472077 
L 195.132228 159.247815 
L 196.916044 161.168414 
L 198.69986 166.548739 
L 200.483676 141.048169 
L 205.835125 123.068975 
L 207.618941 114.99533 
L 209.402757 104.960515 
L 211.186573 130.262373 
L 212.97039 125.578871 
L 218.321838 128.4958 
L 220.105654 119.63501 
L 221.889471 104.72246 
L 223.673287 124.036781 
L 225.457103 144.324178 
L 230.808551 148.634459 
L 232.592368 131.758292 
L 234.376184 130.717194 
L 236.16 152.710621 
L 237.943816 159.86841 
L 245.079081 170.740107 
L 246.862897 189.451172 
L 248.646713 173.353161 
L 250.430529 151.903621 
L 255.781978 154.196269 
L 257.565794 170.20453 
L 259.34961 151.145949 
L 261.133427 156.025634 
L 262.917243 164.104664 
L 268.268691 194.440418 
L 270.052507 201.74546 
L 271.836324 175.923532 
L 273.62014 180.141028 
L 275.403956 193.029233 
L 280.755405 200.835893 
L 282.539221 178.739897 
L 284.323037 156.477469 
L 286.106853 143.774735 
L 287.890669 133.348033 
L 293.242118 133.528888 
L 295.025934 121.920833 
L 296.80975 135.440653 
L 298.593566 121.686928 
L 300.377383 115.94114 
L 305.728831 108.716992 
L 307.512647 94.713248 
L 309.296464 101.464024 
L 311.08028 117.839844 
L 312.864096 115.544647 
L 318.215544 105.681145 
L 319.999361 120.452822 
L 321.783177 130.395286 
L 323.566993 125.128623 
L 325.350809 127.449808 
L 330.702258 145.960201 
L 332.486074 150.401197 
L 334.26989 138.354361 
L 336.053706 151.338473 
L 343.188971 151.391239 
L 344.972787 133.945408 
L 346.756603 134.827635 
L 348.54042 150.029436 
L 350.324236 178.769962 
L 355.675684 173.728932 
L 357.4595 202.563141 
L 359.243317 200.269607 
L 361.027133 175.373547 
L 362.810949 212.852161 
L 368.162398 206.598498 
L 369.946214 202.295636 
L 371.73003 171.940623 
L 373.513846 208.44686 
L 375.297662 213.475809 
L 380.649111 244.509065 
L 382.432927 243.023478 
L 384.216743 257.808149 
L 386.000559 258.381374 
L 387.784376 236.907204 
L 393.135824 239.864151 
L 394.91964 220.955059 
L 396.703457 259.496679 
L 398.487273 265.282077 
" style="fill:none;stroke:#008000;stroke-linecap:square;stroke-opacity:0.9;stroke-width:2;"/>
   </g>
   <g id="line2d_19">
    <path clip-path="url(#pe1cf4dbcd1)" d="M 73.832727 75.647376 
L 75.616543 77.729609 
L 80.967992 80.557813 
L 82.751808 79.197871 
L 84.535624 75.945106 
L 88.103257 100.721154 
L 93.454705 87.866737 
L 95.238521 108.608807 
L 97.022338 120.76655 
L 98.806154 104.497024 
L 100.58997 113.746325 
L 105.941419 101.917059 
L 107.725235 79.227777 
L 109.509051 76.182963 
L 111.292867 84.05329 
L 113.076683 72.990088 
L 118.428132 83.996159 
L 120.211948 91.302154 
L 121.995764 74.378561 
L 123.77958 84.759864 
L 125.563397 96.61195 
L 130.914845 109.940331 
L 132.698661 91.872998 
L 134.482478 80.256913 
L 136.266294 73.858339 
L 143.401558 57.645609 
L 145.185375 58.498499 
L 146.969191 56.839911 
L 148.753007 59.831428 
L 150.536823 63.583979 
L 155.888272 56.868426 
L 157.672088 57.208737 
L 159.455904 78.834712 
L 161.23972 80.199595 
L 163.023536 83.699507 
L 168.374985 85.797041 
L 170.158801 75.374919 
L 171.942617 72.761834 
L 173.726434 87.905224 
L 175.51025 87.562694 
L 182.645514 107.255609 
L 184.429331 117.856602 
L 186.213147 130.125991 
L 187.996963 150.932727 
L 193.348412 146.265274 
L 195.132228 158.478512 
L 196.916044 161.241398 
L 198.69986 166.129121 
L 200.483676 141.122758 
L 205.835125 122.056859 
L 207.618941 115.583489 
L 209.402757 105.36634 
L 211.186573 130.273754 
L 212.97039 124.950594 
L 218.321838 128.357897 
L 220.105654 119.692026 
L 221.889471 104.347857 
L 223.673287 124.317624 
L 225.457103 145.191956 
L 230.808551 147.873038 
L 232.592368 131.689757 
L 234.376184 129.882941 
L 236.16 152.982135 
L 237.943816 159.723137 
L 245.079081 170.277456 
L 246.862897 188.601258 
L 248.646713 174.054292 
L 250.430529 151.11323 
L 255.781978 153.79664 
L 257.565794 169.44645 
L 259.34961 151.109241 
L 261.133427 156.300682 
L 262.917243 164.470547 
L 268.268691 194.117871 
L 270.052507 201.960311 
L 271.836324 175.654781 
L 273.62014 180.350088 
L 275.403956 193.387737 
L 280.755405 200.408218 
L 282.539221 178.810711 
L 284.323037 156.75824 
L 286.106853 142.955375 
L 287.890669 133.043319 
L 293.242118 134.08412 
L 295.025934 121.830363 
L 296.80975 134.621183 
L 298.593566 121.728299 
L 300.377383 115.948803 
L 305.728831 108.194081 
L 307.512647 94.964187 
L 309.296464 101.613745 
L 311.08028 118.008011 
L 312.864096 115.93942 
L 318.215544 105.949453 
L 319.999361 120.374826 
L 321.783177 130.420145 
L 323.566993 125.038357 
L 325.350809 128.186299 
L 330.702258 146.129398 
L 332.486074 150.012777 
L 334.26989 138.394109 
L 336.053706 151.057489 
L 343.188971 150.738989 
L 344.972787 134.548245 
L 346.756603 134.946386 
L 348.54042 150.270029 
L 350.324236 179.477454 
L 355.675684 173.132512 
L 357.4595 202.631661 
L 359.243317 200.00669 
L 361.027133 174.302705 
L 362.810949 212.062532 
L 368.162398 205.938337 
L 369.946214 201.928053 
L 371.73003 171.834377 
L 373.513846 208.38718 
L 375.297662 213.226812 
L 380.649111 245.081651 
L 382.432927 243.075098 
L 384.216743 258.172395 
L 386.000559 259.10258 
L 387.784376 237.065647 
L 393.135824 240.34676 
L 394.91964 221.068254 
L 396.703457 259.441464 
L 398.487273 265.296631 
" style="fill:none;stroke:#ec5283;stroke-linecap:square;stroke-width:2;"/>
   </g>
   <g id="line2d_20">
    <path clip-path="url(#pe1cf4dbcd1)" d="M 73.832727 75.647376 
L 75.616543 77.393532 
L 80.967992 80.268012 
L 82.751808 78.893115 
L 84.535624 75.94735 
L 88.103257 101.30446 
L 93.454705 87.641036 
L 95.238521 109.006863 
L 97.022338 120.646525 
L 98.806154 104.563574 
L 100.58997 114.47035 
L 105.941419 101.427374 
L 107.725235 78.986302 
L 109.509051 75.957598 
L 111.292867 83.499092 
L 113.076683 72.612205 
L 118.428132 83.446119 
L 120.211948 91.912439 
L 121.995764 74.598992 
L 123.77958 84.635483 
L 125.563397 96.874803 
L 130.914845 109.36789 
L 132.698661 91.123384 
L 134.482478 80.642646 
L 136.266294 73.66126 
L 143.401558 58.109063 
L 145.185375 58.765994 
L 146.969191 56.843176 
L 148.753007 60.277306 
L 150.536823 63.399642 
L 155.888272 56.038314 
L 157.672088 56.518693 
L 159.455904 79.201152 
L 161.23972 79.370375 
L 163.023536 83.629615 
L 168.374985 85.921993 
L 170.158801 75.467894 
L 171.942617 72.199304 
L 173.726434 87.818243 
L 175.51025 87.911863 
L 182.645514 107.208123 
L 184.429331 118.150727 
L 186.213147 130.418171 
L 187.996963 150.975186 
L 193.348412 146.849942 
L 195.132228 158.892229 
L 196.916044 161.981005 
L 198.69986 166.122859 
L 200.483676 141.288957 
L 205.835125 122.206447 
L 207.618941 114.72687 
L 209.402757 105.286939 
L 211.186573 129.821913 
L 212.97039 125.623876 
L 218.321838 129.400516 
L 220.105654 120.54675 
L 221.889471 104.693379 
L 223.673287 124.241143 
L 225.457103 144.591069 
L 230.808551 148.703563 
L 232.592368 131.714983 
L 234.376184 129.88752 
L 236.16 153.18036 
L 237.943816 159.523811 
L 245.079081 170.927949 
L 246.862897 189.118679 
L 248.646713 174.071815 
L 250.430529 151.468751 
L 255.781978 153.918605 
L 257.565794 169.318138 
L 259.34961 150.731464 
L 261.133427 156.472915 
L 262.917243 164.561264 
L 268.268691 195.065808 
L 270.052507 201.971361 
L 271.836324 176.387549 
L 273.62014 180.671934 
L 275.403956 193.216297 
L 280.755405 200.48703 
L 282.539221 178.203116 
L 284.323037 156.746787 
L 286.106853 143.601796 
L 287.890669 133.431447 
L 293.242118 134.200147 
L 295.025934 121.697652 
L 296.80975 135.322599 
L 298.593566 121.93975 
L 300.377383 116.160004 
L 305.728831 108.37945 
L 307.512647 95.288794 
L 309.296464 102.171365 
L 311.08028 118.469332 
L 312.864096 115.426272 
L 318.215544 106.174782 
L 319.999361 120.121573 
L 321.783177 130.499668 
L 323.566993 125.722516 
L 325.350809 127.809101 
L 330.702258 146.18402 
L 332.486074 149.840053 
L 334.26989 138.196691 
L 336.053706 150.945088 
L 343.188971 150.373155 
L 344.972787 134.133388 
L 346.756603 134.55939 
L 348.54042 150.67059 
L 350.324236 178.963434 
L 355.675684 173.106213 
L 357.4595 202.786062 
L 359.243317 199.914934 
L 361.027133 174.683371 
L 362.810949 212.888414 
L 368.162398 206.737724 
L 369.946214 202.406355 
L 371.73003 171.674117 
L 373.513846 207.791093 
L 375.297662 213.606083 
L 380.649111 245.392798 
L 382.432927 243.11625 
L 384.216743 257.807472 
L 386.000559 259.148705 
L 387.784376 237.114034 
L 393.135824 240.609794 
L 394.91964 221.112185 
L 396.703457 259.825414 
L 398.487273 265.797818 
" style="fill:none;stroke:#00ff00;stroke-linecap:square;stroke-opacity:0.9;stroke-width:2;"/>
   </g>
   <g id="line2d_21">
    <path clip-path="url(#pe1cf4dbcd1)" d="M 73.832727 75.647376 
L 75.616543 77.219767 
L 80.967992 80.883327 
L 82.751808 79.351694 
L 84.535624 76.501669 
L 88.103257 100.615678 
L 93.454705 87.042873 
L 95.238521 108.327352 
L 97.022338 120.546681 
L 98.806154 104.243939 
L 100.58997 113.940819 
L 105.941419 101.38277 
L 107.725235 78.813035 
L 109.509051 75.84687 
L 111.292867 82.788107 
L 113.076683 73.350537 
L 118.428132 82.398665 
L 120.211948 90.35214 
L 121.995764 73.369689 
L 123.77958 83.045655 
L 125.563397 94.851976 
L 130.914845 106.63415 
L 132.698661 86.79624 
L 134.482478 76.142995 
L 136.266294 69.060026 
L 143.401558 52.922845 
L 145.185375 54.721151 
L 146.969191 52.878093 
L 148.753007 55.684574 
L 150.536823 58.950512 
L 155.888272 52.154182 
L 157.672088 52.869542 
L 159.455904 74.909134 
L 161.23972 74.997019 
L 163.023536 79.629003 
L 168.374985 81.301732 
L 170.158801 70.954988 
L 171.942617 67.735261 
L 173.726434 83.196173 
L 175.51025 83.150624 
L 182.645514 102.100613 
L 184.429331 113.39499 
L 186.213147 125.007973 
L 187.996963 146.937094 
L 193.348412 141.975492 
L 195.132228 154.475677 
L 196.916044 157.642585 
L 198.69986 162.68526 
L 200.483676 137.273784 
L 205.835125 118.216346 
L 207.618941 111.147317 
L 209.402757 100.746509 
L 211.186573 126.04948 
L 212.97039 120.908672 
L 218.321838 123.698073 
L 220.105654 115.836079 
L 221.889471 99.585798 
L 223.673287 119.060473 
L 225.457103 140.574856 
L 230.808551 144.059612 
L 232.592368 126.736893 
L 234.376184 125.344889 
L 236.16 148.342151 
L 237.943816 155.041509 
L 245.079081 165.945525 
L 246.862897 184.695364 
L 248.646713 169.275459 
L 250.430529 146.606975 
L 255.781978 148.866227 
L 257.565794 164.779382 
L 259.34961 146.2146 
L 261.133427 151.530746 
L 262.917243 159.888121 
L 268.268691 190.103378 
L 270.052507 197.218837 
L 271.836324 171.351757 
L 273.62014 175.061367 
L 275.403956 188.298782 
L 280.755405 195.797615 
L 282.539221 173.970427 
L 284.323037 151.140362 
L 286.106853 138.170317 
L 287.890669 126.740481 
L 293.242118 127.371133 
L 295.025934 114.876971 
L 296.80975 127.726452 
L 298.593566 112.218207 
L 300.377383 106.924902 
L 305.728831 99.223073 
L 307.512647 85.635067 
L 309.296464 92.396873 
L 311.08028 109.189124 
L 312.864096 106.174641 
L 318.215544 97.405762 
L 319.999361 110.261858 
L 321.783177 121.268947 
L 323.566993 115.942946 
L 325.350809 118.635287 
L 330.702258 137.327681 
L 332.486074 141.496212 
L 334.26989 128.586561 
L 336.053706 142.299794 
L 343.188971 142.087887 
L 344.972787 124.470139 
L 346.756603 126.097546 
L 348.54042 141.521888 
L 350.324236 170.764691 
L 355.675684 164.203448 
L 357.4595 193.430202 
L 359.243317 190.774972 
L 361.027133 166.141637 
L 362.810949 203.380352 
L 368.162398 197.578007 
L 369.946214 193.133782 
L 371.73003 162.548858 
L 373.513846 199.642456 
L 375.297662 205.551924 
L 380.649111 236.948435 
L 382.432927 234.494259 
L 384.216743 249.752191 
L 386.000559 250.468536 
L 387.784376 228.39603 
L 393.135824 231.53892 
L 394.91964 212.317154 
L 396.703457 251.433884 
L 398.487273 256.989588 
" style="fill:none;stroke:#a5b9cf;stroke-linecap:square;stroke-width:2;"/>
   </g>
   <g id="patch_3">
    <path d="M 57.6 276.48 
L 57.6 41.472 
" style="fill:none;stroke:#000000;stroke-linecap:square;stroke-linejoin:miter;stroke-width:0.8;"/>
   </g>
   <g id="patch_4">
    <path d="M 414.72 276.48 
L 414.72 41.472 
" style="fill:none;stroke:#000000;stroke-linecap:square;stroke-linejoin:miter;stroke-width:0.8;"/>
   </g>
   <g id="patch_5">
    <path d="M 57.6 276.48 
L 414.72 276.48 
" style="fill:none;stroke:#000000;stroke-linecap:square;stroke-linejoin:miter;stroke-width:0.8;"/>
   </g>
   <g id="patch_6">
    <path d="M 57.6 41.472 
L 414.72 41.472 
" style="fill:none;stroke:#000000;stroke-linecap:square;stroke-linejoin:miter;stroke-width:0.8;"/>
   </g>
   <g id="text_17">
    <!-- SP500 -->
    <g transform="translate(217.280625 22.034625)scale(0.12 -0.12)">
     <defs>
      <path d="M 3425 4513 
L 3425 3897 
Q 3066 4069 2747 4153 
Q 2428 4238 2131 4238 
Q 1616 4238 1336 4038 
Q 1056 3838 1056 3469 
Q 1056 3159 1242 3001 
Q 1428 2844 1947 2747 
L 2328 2669 
Q 3034 2534 3370 2195 
Q 3706 1856 3706 1288 
Q 3706 609 3251 259 
Q 2797 -91 1919 -91 
Q 1588 -91 1214 -16 
Q 841 59 441 206 
L 441 856 
Q 825 641 1194 531 
Q 1563 422 1919 422 
Q 2459 422 2753 634 
Q 3047 847 3047 1241 
Q 3047 1584 2836 1778 
Q 2625 1972 2144 2069 
L 1759 2144 
Q 1053 2284 737 2584 
Q 422 2884 422 3419 
Q 422 4038 858 4394 
Q 1294 4750 2059 4750 
Q 2388 4750 2728 4690 
Q 3069 4631 3425 4513 
z
" id="DejaVuSans-53" transform="scale(0.015625)"/>
      <path d="M 1259 4147 
L 1259 2394 
L 2053 2394 
Q 2494 2394 2734 2622 
Q 2975 2850 2975 3272 
Q 2975 3691 2734 3919 
Q 2494 4147 2053 4147 
L 1259 4147 
z
M 628 4666 
L 2053 4666 
Q 2838 4666 3239 4311 
Q 3641 3956 3641 3272 
Q 3641 2581 3239 2228 
Q 2838 1875 2053 1875 
L 1259 1875 
L 1259 0 
L 628 0 
L 628 4666 
z
" id="DejaVuSans-50" transform="scale(0.015625)"/>
     </defs>
     <use xlink:href="#DejaVuSans-53"/>
     <use x="63.476562" xlink:href="#DejaVuSans-50"/>
     <use x="123.779297" xlink:href="#DejaVuSans-35"/>
     <use x="187.402344" xlink:href="#DejaVuSans-30"/>
     <use x="251.025391" xlink:href="#DejaVuSans-30"/>
    </g>
    <!-- daily_report -->
    <g transform="translate(200.466563 35.472)scale(0.12 -0.12)">
     <defs>
      <path d="M 603 3500 
L 1178 3500 
L 1178 0 
L 603 0 
L 603 3500 
z
M 603 4863 
L 1178 4863 
L 1178 4134 
L 603 4134 
L 603 4863 
z
" id="DejaVuSans-69" transform="scale(0.015625)"/>
      <path d="M 603 4863 
L 1178 4863 
L 1178 0 
L 603 0 
L 603 4863 
z
" id="DejaVuSans-6c" transform="scale(0.015625)"/>
      <path d="M 2059 -325 
Q 1816 -950 1584 -1140 
Q 1353 -1331 966 -1331 
L 506 -1331 
L 506 -850 
L 844 -850 
Q 1081 -850 1212 -737 
Q 1344 -625 1503 -206 
L 1606 56 
L 191 3500 
L 800 3500 
L 1894 763 
L 2988 3500 
L 3597 3500 
L 2059 -325 
z
" id="DejaVuSans-79" transform="scale(0.015625)"/>
      <path d="M 3263 -1063 
L 3263 -1509 
L -63 -1509 
L -63 -1063 
L 3263 -1063 
z
" id="DejaVuSans-5f" transform="scale(0.015625)"/>
      <path d="M 2631 2963 
Q 2534 3019 2420 3045 
Q 2306 3072 2169 3072 
Q 1681 3072 1420 2755 
Q 1159 2438 1159 1844 
L 1159 0 
L 581 0 
L 581 3500 
L 1159 3500 
L 1159 2956 
Q 1341 3275 1631 3429 
Q 1922 3584 2338 3584 
Q 2397 3584 2469 3576 
Q 2541 3569 2628 3553 
L 2631 2963 
z
" id="DejaVuSans-72" transform="scale(0.015625)"/>
      <path d="M 1159 525 
L 1159 -1331 
L 581 -1331 
L 581 3500 
L 1159 3500 
L 1159 2969 
Q 1341 3281 1617 3432 
Q 1894 3584 2278 3584 
Q 2916 3584 3314 3078 
Q 3713 2572 3713 1747 
Q 3713 922 3314 415 
Q 2916 -91 2278 -91 
Q 1894 -91 1617 61 
Q 1341 213 1159 525 
z
M 3116 1747 
Q 3116 2381 2855 2742 
Q 2594 3103 2138 3103 
Q 1681 3103 1420 2742 
Q 1159 2381 1159 1747 
Q 1159 1113 1420 752 
Q 1681 391 2138 391 
Q 2594 391 2855 752 
Q 3116 1113 3116 1747 
z
" id="DejaVuSans-70" transform="scale(0.015625)"/>
      <path d="M 1959 3097 
Q 1497 3097 1228 2736 
Q 959 2375 959 1747 
Q 959 1119 1226 758 
Q 1494 397 1959 397 
Q 2419 397 2687 759 
Q 2956 1122 2956 1747 
Q 2956 2369 2687 2733 
Q 2419 3097 1959 3097 
z
M 1959 3584 
Q 2709 3584 3137 3096 
Q 3566 2609 3566 1747 
Q 3566 888 3137 398 
Q 2709 -91 1959 -91 
Q 1206 -91 779 398 
Q 353 888 353 1747 
Q 353 2609 779 3096 
Q 1206 3584 1959 3584 
z
" id="DejaVuSans-6f" transform="scale(0.015625)"/>
     </defs>
     <use xlink:href="#DejaVuSans-64"/>
     <use x="63.476562" xlink:href="#DejaVuSans-61"/>
     <use x="124.755859" xlink:href="#DejaVuSans-69"/>
     <use x="152.539062" xlink:href="#DejaVuSans-6c"/>
     <use x="180.322266" xlink:href="#DejaVuSans-79"/>
     <use x="239.501953" xlink:href="#DejaVuSans-5f"/>
     <use x="289.501953" xlink:href="#DejaVuSans-72"/>
     <use x="328.365234" xlink:href="#DejaVuSans-65"/>
     <use x="389.888672" xlink:href="#DejaVuSans-70"/>
     <use x="453.365234" xlink:href="#DejaVuSans-6f"/>
     <use x="514.546875" xlink:href="#DejaVuSans-72"/>
     <use x="555.660156" xlink:href="#DejaVuSans-74"/>
    </g>
   </g>
   <g id="legend_1">
    <g id="patch_7">
     <path d="M 64.6 271.48 
L 178.64375 271.48 
Q 180.64375 271.48 180.64375 269.48 
L 180.64375 182.41125 
Q 180.64375 180.41125 178.64375 180.41125 
L 64.6 180.41125 
Q 62.6 180.41125 62.6 182.41125 
L 62.6 269.48 
Q 62.6 271.48 64.6 271.48 
z
" style="fill:#ffffff;opacity:0.8;stroke:#cccccc;stroke-linejoin:miter;"/>
    </g>
    <g id="line2d_22">
     <path d="M 66.6 188.509687 
L 86.6 188.509687 
" style="fill:none;stroke:#0000ff;stroke-linecap:square;stroke-opacity:0.9;stroke-width:2;"/>
    </g>
    <g id="line2d_23"/>
    <g id="text_18">
     <!-- alpaca -->
     <g transform="translate(94.6 192.009687)scale(0.1 -0.1)">
      <defs>
       <path d="M 3122 3366 
L 3122 2828 
Q 2878 2963 2633 3030 
Q 2388 3097 2138 3097 
Q 1578 3097 1268 2742 
Q 959 2388 959 1747 
Q 959 1106 1268 751 
Q 1578 397 2138 397 
Q 2388 397 2633 464 
Q 2878 531 3122 666 
L 3122 134 
Q 2881 22 2623 -34 
Q 2366 -91 2075 -91 
Q 1284 -91 818 406 
Q 353 903 353 1747 
Q 353 2603 823 3093 
Q 1294 3584 2113 3584 
Q 2378 3584 2631 3529 
Q 2884 3475 3122 3366 
z
" id="DejaVuSans-63" transform="scale(0.015625)"/>
      </defs>
      <use xlink:href="#DejaVuSans-61"/>
      <use x="61.279297" xlink:href="#DejaVuSans-6c"/>
      <use x="89.0625" xlink:href="#DejaVuSans-70"/>
      <use x="152.539062" xlink:href="#DejaVuSans-61"/>
      <use x="213.818359" xlink:href="#DejaVuSans-63"/>
      <use x="268.798828" xlink:href="#DejaVuSans-61"/>
     </g>
    </g>
    <g id="line2d_24">
     <path d="M 66.6 203.187812 
L 86.6 203.187812 
" style="fill:none;stroke:#ff0000;stroke-linecap:square;stroke-opacity:0.9;stroke-width:2;"/>
    </g>
    <g id="line2d_25"/>
    <g id="text_19">
     <!-- mattress -->
     <g transform="translate(94.6 206.687812)scale(0.1 -0.1)">
      <defs>
       <path d="M 3328 2828 
Q 3544 3216 3844 3400 
Q 4144 3584 4550 3584 
Q 5097 3584 5394 3201 
Q 5691 2819 5691 2113 
L 5691 0 
L 5113 0 
L 5113 2094 
Q 5113 2597 4934 2840 
Q 4756 3084 4391 3084 
Q 3944 3084 3684 2787 
Q 3425 2491 3425 1978 
L 3425 0 
L 2847 0 
L 2847 2094 
Q 2847 2600 2669 2842 
Q 2491 3084 2119 3084 
Q 1678 3084 1418 2786 
Q 1159 2488 1159 1978 
L 1159 0 
L 581 0 
L 581 3500 
L 1159 3500 
L 1159 2956 
Q 1356 3278 1631 3431 
Q 1906 3584 2284 3584 
Q 2666 3584 2933 3390 
Q 3200 3197 3328 2828 
z
" id="DejaVuSans-6d" transform="scale(0.015625)"/>
       <path d="M 2834 3397 
L 2834 2853 
Q 2591 2978 2328 3040 
Q 2066 3103 1784 3103 
Q 1356 3103 1142 2972 
Q 928 2841 928 2578 
Q 928 2378 1081 2264 
Q 1234 2150 1697 2047 
L 1894 2003 
Q 2506 1872 2764 1633 
Q 3022 1394 3022 966 
Q 3022 478 2636 193 
Q 2250 -91 1575 -91 
Q 1294 -91 989 -36 
Q 684 19 347 128 
L 347 722 
Q 666 556 975 473 
Q 1284 391 1588 391 
Q 1994 391 2212 530 
Q 2431 669 2431 922 
Q 2431 1156 2273 1281 
Q 2116 1406 1581 1522 
L 1381 1569 
Q 847 1681 609 1914 
Q 372 2147 372 2553 
Q 372 3047 722 3315 
Q 1072 3584 1716 3584 
Q 2034 3584 2315 3537 
Q 2597 3491 2834 3397 
z
" id="DejaVuSans-73" transform="scale(0.015625)"/>
      </defs>
      <use xlink:href="#DejaVuSans-6d"/>
      <use x="97.412109" xlink:href="#DejaVuSans-61"/>
      <use x="158.691406" xlink:href="#DejaVuSans-74"/>
      <use x="197.900391" xlink:href="#DejaVuSans-74"/>
      <use x="237.109375" xlink:href="#DejaVuSans-72"/>
      <use x="275.972656" xlink:href="#DejaVuSans-65"/>
      <use x="337.496094" xlink:href="#DejaVuSans-73"/>
      <use x="389.595703" xlink:href="#DejaVuSans-73"/>
     </g>
    </g>
    <g id="line2d_26">
     <path d="M 66.6 217.865937 
L 86.6 217.865937 
" style="fill:none;stroke:#008000;stroke-linecap:square;stroke-opacity:0.9;stroke-width:2;"/>
    </g>
    <g id="line2d_27"/>
    <g id="text_20">
     <!-- daily-open-rebal -->
     <g transform="translate(94.6 221.365937)scale(0.1 -0.1)">
      <defs>
       <path d="M 3513 2113 
L 3513 0 
L 2938 0 
L 2938 2094 
Q 2938 2591 2744 2837 
Q 2550 3084 2163 3084 
Q 1697 3084 1428 2787 
Q 1159 2491 1159 1978 
L 1159 0 
L 581 0 
L 581 3500 
L 1159 3500 
L 1159 2956 
Q 1366 3272 1645 3428 
Q 1925 3584 2291 3584 
Q 2894 3584 3203 3211 
Q 3513 2838 3513 2113 
z
" id="DejaVuSans-6e" transform="scale(0.015625)"/>
       <path d="M 3116 1747 
Q 3116 2381 2855 2742 
Q 2594 3103 2138 3103 
Q 1681 3103 1420 2742 
Q 1159 2381 1159 1747 
Q 1159 1113 1420 752 
Q 1681 391 2138 391 
Q 2594 391 2855 752 
Q 3116 1113 3116 1747 
z
M 1159 2969 
Q 1341 3281 1617 3432 
Q 1894 3584 2278 3584 
Q 2916 3584 3314 3078 
Q 3713 2572 3713 1747 
Q 3713 922 3314 415 
Q 2916 -91 2278 -91 
Q 1894 -91 1617 61 
Q 1341 213 1159 525 
L 1159 0 
L 581 0 
L 581 4863 
L 1159 4863 
L 1159 2969 
z
" id="DejaVuSans-62" transform="scale(0.015625)"/>
      </defs>
      <use xlink:href="#DejaVuSans-64"/>
      <use x="63.476562" xlink:href="#DejaVuSans-61"/>
      <use x="124.755859" xlink:href="#DejaVuSans-69"/>
      <use x="152.539062" xlink:href="#DejaVuSans-6c"/>
      <use x="180.322266" xlink:href="#DejaVuSans-79"/>
      <use x="237.751953" xlink:href="#DejaVuSans-2d"/>
      <use x="275.710938" xlink:href="#DejaVuSans-6f"/>
      <use x="336.892578" xlink:href="#DejaVuSans-70"/>
      <use x="400.369141" xlink:href="#DejaVuSans-65"/>
      <use x="461.892578" xlink:href="#DejaVuSans-6e"/>
      <use x="525.271484" xlink:href="#DejaVuSans-2d"/>
      <use x="561.355469" xlink:href="#DejaVuSans-72"/>
      <use x="600.21875" xlink:href="#DejaVuSans-65"/>
      <use x="661.742188" xlink:href="#DejaVuSans-62"/>
      <use x="725.21875" xlink:href="#DejaVuSans-61"/>
      <use x="786.498047" xlink:href="#DejaVuSans-6c"/>
     </g>
    </g>
    <g id="line2d_28">
     <path d="M 66.6 232.544062 
L 86.6 232.544062 
" style="fill:none;stroke:#ec5283;stroke-linecap:square;stroke-width:2;"/>
    </g>
    <g id="line2d_29"/>
    <g id="text_21">
     <!-- daily-close-rebal -->
     <g transform="translate(94.6 236.044062)scale(0.1 -0.1)">
      <use xlink:href="#DejaVuSans-64"/>
      <use x="63.476562" xlink:href="#DejaVuSans-61"/>
      <use x="124.755859" xlink:href="#DejaVuSans-69"/>
      <use x="152.539062" xlink:href="#DejaVuSans-6c"/>
      <use x="180.322266" xlink:href="#DejaVuSans-79"/>
      <use x="237.751953" xlink:href="#DejaVuSans-2d"/>
      <use x="273.835938" xlink:href="#DejaVuSans-63"/>
      <use x="328.816406" xlink:href="#DejaVuSans-6c"/>
      <use x="356.599609" xlink:href="#DejaVuSans-6f"/>
      <use x="417.78125" xlink:href="#DejaVuSans-73"/>
      <use x="469.880859" xlink:href="#DejaVuSans-65"/>
      <use x="531.404297" xlink:href="#DejaVuSans-2d"/>
      <use x="567.488281" xlink:href="#DejaVuSans-72"/>
      <use x="606.351562" xlink:href="#DejaVuSans-65"/>
      <use x="667.875" xlink:href="#DejaVuSans-62"/>
      <use x="731.351562" xlink:href="#DejaVuSans-61"/>
      <use x="792.630859" xlink:href="#DejaVuSans-6c"/>
     </g>
    </g>
    <g id="line2d_30">
     <path d="M 66.6 247.222187 
L 86.6 247.222187 
" style="fill:none;stroke:#00ff00;stroke-linecap:square;stroke-opacity:0.9;stroke-width:2;"/>
    </g>
    <g id="line2d_31"/>
    <g id="text_22">
     <!-- trader-baseline -->
     <g transform="translate(94.6 250.722187)scale(0.1 -0.1)">
      <use xlink:href="#DejaVuSans-74"/>
      <use x="39.208984" xlink:href="#DejaVuSans-72"/>
      <use x="80.322266" xlink:href="#DejaVuSans-61"/>
      <use x="141.601562" xlink:href="#DejaVuSans-64"/>
      <use x="205.078125" xlink:href="#DejaVuSans-65"/>
      <use x="266.601562" xlink:href="#DejaVuSans-72"/>
      <use x="301.339844" xlink:href="#DejaVuSans-2d"/>
      <use x="337.423828" xlink:href="#DejaVuSans-62"/>
      <use x="400.900391" xlink:href="#DejaVuSans-61"/>
      <use x="462.179688" xlink:href="#DejaVuSans-73"/>
      <use x="514.279297" xlink:href="#DejaVuSans-65"/>
      <use x="575.802734" xlink:href="#DejaVuSans-6c"/>
      <use x="603.585938" xlink:href="#DejaVuSans-69"/>
      <use x="631.369141" xlink:href="#DejaVuSans-6e"/>
      <use x="694.748047" xlink:href="#DejaVuSans-65"/>
     </g>
    </g>
    <g id="line2d_32">
     <path d="M 66.6 261.900312 
L 86.6 261.900312 
" style="fill:none;stroke:#a5b9cf;stroke-linecap:square;stroke-width:2;"/>
    </g>
    <g id="line2d_33"/>
    <g id="text_23">
     <!-- default-cfg -->
     <g transform="translate(94.6 265.400312)scale(0.1 -0.1)">
      <defs>
       <path d="M 2375 4863 
L 2375 4384 
L 1825 4384 
Q 1516 4384 1395 4259 
Q 1275 4134 1275 3809 
L 1275 3500 
L 2222 3500 
L 2222 3053 
L 1275 3053 
L 1275 0 
L 697 0 
L 697 3053 
L 147 3053 
L 147 3500 
L 697 3500 
L 697 3744 
Q 697 4328 969 4595 
Q 1241 4863 1831 4863 
L 2375 4863 
z
" id="DejaVuSans-66" transform="scale(0.015625)"/>
       <path d="M 544 1381 
L 544 3500 
L 1119 3500 
L 1119 1403 
Q 1119 906 1312 657 
Q 1506 409 1894 409 
Q 2359 409 2629 706 
Q 2900 1003 2900 1516 
L 2900 3500 
L 3475 3500 
L 3475 0 
L 2900 0 
L 2900 538 
Q 2691 219 2414 64 
Q 2138 -91 1772 -91 
Q 1169 -91 856 284 
Q 544 659 544 1381 
z
M 1991 3584 
L 1991 3584 
z
" id="DejaVuSans-75" transform="scale(0.015625)"/>
       <path d="M 2906 1791 
Q 2906 2416 2648 2759 
Q 2391 3103 1925 3103 
Q 1463 3103 1205 2759 
Q 947 2416 947 1791 
Q 947 1169 1205 825 
Q 1463 481 1925 481 
Q 2391 481 2648 825 
Q 2906 1169 2906 1791 
z
M 3481 434 
Q 3481 -459 3084 -895 
Q 2688 -1331 1869 -1331 
Q 1566 -1331 1297 -1286 
Q 1028 -1241 775 -1147 
L 775 -588 
Q 1028 -725 1275 -790 
Q 1522 -856 1778 -856 
Q 2344 -856 2625 -561 
Q 2906 -266 2906 331 
L 2906 616 
Q 2728 306 2450 153 
Q 2172 0 1784 0 
Q 1141 0 747 490 
Q 353 981 353 1791 
Q 353 2603 747 3093 
Q 1141 3584 1784 3584 
Q 2172 3584 2450 3431 
Q 2728 3278 2906 2969 
L 2906 3500 
L 3481 3500 
L 3481 434 
z
" id="DejaVuSans-67" transform="scale(0.015625)"/>
      </defs>
      <use xlink:href="#DejaVuSans-64"/>
      <use x="63.476562" xlink:href="#DejaVuSans-65"/>
      <use x="125" xlink:href="#DejaVuSans-66"/>
      <use x="160.205078" xlink:href="#DejaVuSans-61"/>
      <use x="221.484375" xlink:href="#DejaVuSans-75"/>
      <use x="284.863281" xlink:href="#DejaVuSans-6c"/>
      <use x="312.646484" xlink:href="#DejaVuSans-74"/>
      <use x="351.855469" xlink:href="#DejaVuSans-2d"/>
      <use x="387.939453" xlink:href="#DejaVuSans-63"/>
      <use x="442.919922" xlink:href="#DejaVuSans-66"/>
      <use x="478.125" xlink:href="#DejaVuSans-67"/>
     </g>
    </g>
   </g>
  </g>
 </g>
 <defs>
  <clipPath id="pe1cf4dbcd1">
   <rect height="235.008" width="357.12" x="57.6" y="41.472"/>
  </clipPath>
 </defs>
</svg>
