<?xml version="1.0" encoding="utf-8" standalone="no"?>
<!DOCTYPE svg PUBLIC "-//W3C//DTD SVG 1.1//EN"
  "http://www.w3.org/Graphics/SVG/1.1/DTD/svg11.dtd">
<svg height="345.6pt" version="1.1" viewBox="0 0 460.8 345.6" width="460.8pt" xmlns="http://www.w3.org/2000/svg" xmlns:xlink="http://www.w3.org/1999/xlink">
 <metadata>
  <rdf:RDF xmlns:cc="http://creativecommons.org/ns#" xmlns:dc="http://purl.org/dc/elements/1.1/" xmlns:rdf="http://www.w3.org/1999/02/22-rdf-syntax-ns#">
   <cc:Work>
    <dc:type rdf:resource="http://purl.org/dc/dcmitype/StillImage"/>
    <dc:date>2022-05-09T01:01:44.173499</dc:date>
    <dc:format>image/svg+xml</dc:format>
    <dc:creator>
     <cc:Agent>
      <dc:title>Matplotlib v3.4.3, https://matplotlib.org/</dc:title>
     </cc:Agent>
    </dc:creator>
   </cc:Work>
  </rdf:RDF>
 </metadata>
 <defs>
  <style type="text/css">*{stroke-linecap:butt;stroke-linejoin:round;}</style>
 </defs>
 <g id="figure_1">
  <g id="patch_1">
   <path d="M 0 345.6 
L 460.8 345.6 
L 460.8 0 
L 0 0 
z
" style="fill:#ffffff;"/>
  </g>
  <g id="axes_1">
   <g id="patch_2">
    <path d="M 57.6 276.48 
L 414.72 276.48 
L 414.72 41.472 
L 57.6 41.472 
z
" style="fill:#ffffff;"/>
   </g>
   <g id="matplotlib.axis_1">
    <g id="xtick_1">
     <g id="line2d_1">
      <defs>
       <path d="M 0 0 
L 0 3.5 
" id="m49f5a207b7" style="stroke:#000000;stroke-width:0.8;"/>
      </defs>
      <g>
       <use style="stroke:#000000;stroke-width:0.8;" x="85.246364" xlink:href="#m49f5a207b7" y="276.48"/>
      </g>
     </g>
     <g id="text_1">
      <!-- 2021-09 -->
      <g transform="translate(48.021543 310.951846)rotate(-30)scale(0.1 -0.1)">
       <defs>
        <path d="M 1228 531 
L 3431 531 
L 3431 0 
L 469 0 
L 469 531 
Q 828 903 1448 1529 
Q 2069 2156 2228 2338 
Q 2531 2678 2651 2914 
Q 2772 3150 2772 3378 
Q 2772 3750 2511 3984 
Q 2250 4219 1831 4219 
Q 1534 4219 1204 4116 
Q 875 4013 500 3803 
L 500 4441 
Q 881 4594 1212 4672 
Q 1544 4750 1819 4750 
Q 2544 4750 2975 4387 
Q 3406 4025 3406 3419 
Q 3406 3131 3298 2873 
Q 3191 2616 2906 2266 
Q 2828 2175 2409 1742 
Q 1991 1309 1228 531 
z
" id="DejaVuSans-32" transform="scale(0.015625)"/>
        <path d="M 2034 4250 
Q 1547 4250 1301 3770 
Q 1056 3291 1056 2328 
Q 1056 1369 1301 889 
Q 1547 409 2034 409 
Q 2525 409 2770 889 
Q 3016 1369 3016 2328 
Q 3016 3291 2770 3770 
Q 2525 4250 2034 4250 
z
M 2034 4750 
Q 2819 4750 3233 4129 
Q 3647 3509 3647 2328 
Q 3647 1150 3233 529 
Q 2819 -91 2034 -91 
Q 1250 -91 836 529 
Q 422 1150 422 2328 
Q 422 3509 836 4129 
Q 1250 4750 2034 4750 
z
" id="DejaVuSans-30" transform="scale(0.015625)"/>
        <path d="M 794 531 
L 1825 531 
L 1825 4091 
L 703 3866 
L 703 4441 
L 1819 4666 
L 2450 4666 
L 2450 531 
L 3481 531 
L 3481 0 
L 794 0 
L 794 531 
z
" id="DejaVuSans-31" transform="scale(0.015625)"/>
        <path d="M 313 2009 
L 1997 2009 
L 1997 1497 
L 313 1497 
L 313 2009 
z
" id="DejaVuSans-2d" transform="scale(0.015625)"/>
        <path d="M 703 97 
L 703 672 
Q 941 559 1184 500 
Q 1428 441 1663 441 
Q 2288 441 2617 861 
Q 2947 1281 2994 2138 
Q 2813 1869 2534 1725 
Q 2256 1581 1919 1581 
Q 1219 1581 811 2004 
Q 403 2428 403 3163 
Q 403 3881 828 4315 
Q 1253 4750 1959 4750 
Q 2769 4750 3195 4129 
Q 3622 3509 3622 2328 
Q 3622 1225 3098 567 
Q 2575 -91 1691 -91 
Q 1453 -91 1209 -44 
Q 966 3 703 97 
z
M 1959 2075 
Q 2384 2075 2632 2365 
Q 2881 2656 2881 3163 
Q 2881 3666 2632 3958 
Q 2384 4250 1959 4250 
Q 1534 4250 1286 3958 
Q 1038 3666 1038 3163 
Q 1038 2656 1286 2365 
Q 1534 2075 1959 2075 
z
" id="DejaVuSans-39" transform="scale(0.015625)"/>
       </defs>
       <use xlink:href="#DejaVuSans-32"/>
       <use x="63.623047" xlink:href="#DejaVuSans-30"/>
       <use x="127.246094" xlink:href="#DejaVuSans-32"/>
       <use x="190.869141" xlink:href="#DejaVuSans-31"/>
       <use x="254.492188" xlink:href="#DejaVuSans-2d"/>
       <use x="290.576172" xlink:href="#DejaVuSans-30"/>
       <use x="354.199219" xlink:href="#DejaVuSans-39"/>
      </g>
     </g>
    </g>
    <g id="xtick_2">
     <g id="line2d_2">
      <g>
       <use style="stroke:#000000;stroke-width:0.8;" x="123.291818" xlink:href="#m49f5a207b7" y="276.48"/>
      </g>
     </g>
     <g id="text_2">
      <!-- 2021-10 -->
      <g transform="translate(86.066997 310.951846)rotate(-30)scale(0.1 -0.1)">
       <use xlink:href="#DejaVuSans-32"/>
       <use x="63.623047" xlink:href="#DejaVuSans-30"/>
       <use x="127.246094" xlink:href="#DejaVuSans-32"/>
       <use x="190.869141" xlink:href="#DejaVuSans-31"/>
       <use x="254.492188" xlink:href="#DejaVuSans-2d"/>
       <use x="290.576172" xlink:href="#DejaVuSans-31"/>
       <use x="354.199219" xlink:href="#DejaVuSans-30"/>
      </g>
     </g>
    </g>
    <g id="xtick_3">
     <g id="line2d_3">
      <g>
       <use style="stroke:#000000;stroke-width:0.8;" x="162.605455" xlink:href="#m49f5a207b7" y="276.48"/>
      </g>
     </g>
     <g id="text_3">
      <!-- 2021-11 -->
      <g transform="translate(125.380634 310.951846)rotate(-30)scale(0.1 -0.1)">
       <use xlink:href="#DejaVuSans-32"/>
       <use x="63.623047" xlink:href="#DejaVuSans-30"/>
       <use x="127.246094" xlink:href="#DejaVuSans-32"/>
       <use x="190.869141" xlink:href="#DejaVuSans-31"/>
       <use x="254.492188" xlink:href="#DejaVuSans-2d"/>
       <use x="290.576172" xlink:href="#DejaVuSans-31"/>
       <use x="354.199219" xlink:href="#DejaVuSans-31"/>
      </g>
     </g>
    </g>
    <g id="xtick_4">
     <g id="line2d_4">
      <g>
       <use style="stroke:#000000;stroke-width:0.8;" x="200.650909" xlink:href="#m49f5a207b7" y="276.48"/>
      </g>
     </g>
     <g id="text_4">
      <!-- 2021-12 -->
      <g transform="translate(163.426088 310.951846)rotate(-30)scale(0.1 -0.1)">
       <use xlink:href="#DejaVuSans-32"/>
       <use x="63.623047" xlink:href="#DejaVuSans-30"/>
       <use x="127.246094" xlink:href="#DejaVuSans-32"/>
       <use x="190.869141" xlink:href="#DejaVuSans-31"/>
       <use x="254.492188" xlink:href="#DejaVuSans-2d"/>
       <use x="290.576172" xlink:href="#DejaVuSans-31"/>
       <use x="354.199219" xlink:href="#DejaVuSans-32"/>
      </g>
     </g>
    </g>
    <g id="xtick_5">
     <g id="line2d_5">
      <g>
       <use style="stroke:#000000;stroke-width:0.8;" x="239.964545" xlink:href="#m49f5a207b7" y="276.48"/>
      </g>
     </g>
     <g id="text_5">
      <!-- 2022-01 -->
      <g transform="translate(202.739725 310.951846)rotate(-30)scale(0.1 -0.1)">
       <use xlink:href="#DejaVuSans-32"/>
       <use x="63.623047" xlink:href="#DejaVuSans-30"/>
       <use x="127.246094" xlink:href="#DejaVuSans-32"/>
       <use x="190.869141" xlink:href="#DejaVuSans-32"/>
       <use x="254.492188" xlink:href="#DejaVuSans-2d"/>
       <use x="290.576172" xlink:href="#DejaVuSans-30"/>
       <use x="354.199219" xlink:href="#DejaVuSans-31"/>
      </g>
     </g>
    </g>
    <g id="xtick_6">
     <g id="line2d_6">
      <g>
       <use style="stroke:#000000;stroke-width:0.8;" x="279.278182" xlink:href="#m49f5a207b7" y="276.48"/>
      </g>
     </g>
     <g id="text_6">
      <!-- 2022-02 -->
      <g transform="translate(242.053361 310.951846)rotate(-30)scale(0.1 -0.1)">
       <use xlink:href="#DejaVuSans-32"/>
       <use x="63.623047" xlink:href="#DejaVuSans-30"/>
       <use x="127.246094" xlink:href="#DejaVuSans-32"/>
       <use x="190.869141" xlink:href="#DejaVuSans-32"/>
       <use x="254.492188" xlink:href="#DejaVuSans-2d"/>
       <use x="290.576172" xlink:href="#DejaVuSans-30"/>
       <use x="354.199219" xlink:href="#DejaVuSans-32"/>
      </g>
     </g>
    </g>
    <g id="xtick_7">
     <g id="line2d_7">
      <g>
       <use style="stroke:#000000;stroke-width:0.8;" x="314.787273" xlink:href="#m49f5a207b7" y="276.48"/>
      </g>
     </g>
     <g id="text_7">
      <!-- 2022-03 -->
      <g transform="translate(277.562452 310.951846)rotate(-30)scale(0.1 -0.1)">
       <defs>
        <path d="M 2597 2516 
Q 3050 2419 3304 2112 
Q 3559 1806 3559 1356 
Q 3559 666 3084 287 
Q 2609 -91 1734 -91 
Q 1441 -91 1130 -33 
Q 819 25 488 141 
L 488 750 
Q 750 597 1062 519 
Q 1375 441 1716 441 
Q 2309 441 2620 675 
Q 2931 909 2931 1356 
Q 2931 1769 2642 2001 
Q 2353 2234 1838 2234 
L 1294 2234 
L 1294 2753 
L 1863 2753 
Q 2328 2753 2575 2939 
Q 2822 3125 2822 3475 
Q 2822 3834 2567 4026 
Q 2313 4219 1838 4219 
Q 1578 4219 1281 4162 
Q 984 4106 628 3988 
L 628 4550 
Q 988 4650 1302 4700 
Q 1616 4750 1894 4750 
Q 2613 4750 3031 4423 
Q 3450 4097 3450 3541 
Q 3450 3153 3228 2886 
Q 3006 2619 2597 2516 
z
" id="DejaVuSans-33" transform="scale(0.015625)"/>
       </defs>
       <use xlink:href="#DejaVuSans-32"/>
       <use x="63.623047" xlink:href="#DejaVuSans-30"/>
       <use x="127.246094" xlink:href="#DejaVuSans-32"/>
       <use x="190.869141" xlink:href="#DejaVuSans-32"/>
       <use x="254.492188" xlink:href="#DejaVuSans-2d"/>
       <use x="290.576172" xlink:href="#DejaVuSans-30"/>
       <use x="354.199219" xlink:href="#DejaVuSans-33"/>
      </g>
     </g>
    </g>
    <g id="xtick_8">
     <g id="line2d_8">
      <g>
       <use style="stroke:#000000;stroke-width:0.8;" x="354.100909" xlink:href="#m49f5a207b7" y="276.48"/>
      </g>
     </g>
     <g id="text_8">
      <!-- 2022-04 -->
      <g transform="translate(316.876088 310.951846)rotate(-30)scale(0.1 -0.1)">
       <defs>
        <path d="M 2419 4116 
L 825 1625 
L 2419 1625 
L 2419 4116 
z
M 2253 4666 
L 3047 4666 
L 3047 1625 
L 3713 1625 
L 3713 1100 
L 3047 1100 
L 3047 0 
L 2419 0 
L 2419 1100 
L 313 1100 
L 313 1709 
L 2253 4666 
z
" id="DejaVuSans-34" transform="scale(0.015625)"/>
       </defs>
       <use xlink:href="#DejaVuSans-32"/>
       <use x="63.623047" xlink:href="#DejaVuSans-30"/>
       <use x="127.246094" xlink:href="#DejaVuSans-32"/>
       <use x="190.869141" xlink:href="#DejaVuSans-32"/>
       <use x="254.492188" xlink:href="#DejaVuSans-2d"/>
       <use x="290.576172" xlink:href="#DejaVuSans-30"/>
       <use x="354.199219" xlink:href="#DejaVuSans-34"/>
      </g>
     </g>
    </g>
    <g id="xtick_9">
     <g id="line2d_9">
      <g>
       <use style="stroke:#000000;stroke-width:0.8;" x="392.146364" xlink:href="#m49f5a207b7" y="276.48"/>
      </g>
     </g>
     <g id="text_9">
      <!-- 2022-05 -->
      <g transform="translate(354.921543 310.951846)rotate(-30)scale(0.1 -0.1)">
       <defs>
        <path d="M 691 4666 
L 3169 4666 
L 3169 4134 
L 1269 4134 
L 1269 2991 
Q 1406 3038 1543 3061 
Q 1681 3084 1819 3084 
Q 2600 3084 3056 2656 
Q 3513 2228 3513 1497 
Q 3513 744 3044 326 
Q 2575 -91 1722 -91 
Q 1428 -91 1123 -41 
Q 819 9 494 109 
L 494 744 
Q 775 591 1075 516 
Q 1375 441 1709 441 
Q 2250 441 2565 725 
Q 2881 1009 2881 1497 
Q 2881 1984 2565 2268 
Q 2250 2553 1709 2553 
Q 1456 2553 1204 2497 
Q 953 2441 691 2322 
L 691 4666 
z
" id="DejaVuSans-35" transform="scale(0.015625)"/>
       </defs>
       <use xlink:href="#DejaVuSans-32"/>
       <use x="63.623047" xlink:href="#DejaVuSans-30"/>
       <use x="127.246094" xlink:href="#DejaVuSans-32"/>
       <use x="190.869141" xlink:href="#DejaVuSans-32"/>
       <use x="254.492188" xlink:href="#DejaVuSans-2d"/>
       <use x="290.576172" xlink:href="#DejaVuSans-30"/>
       <use x="354.199219" xlink:href="#DejaVuSans-35"/>
      </g>
     </g>
    </g>
    <g id="text_10">
     <!-- date -->
     <g transform="translate(224.885 324.351346)scale(0.1 -0.1)">
      <defs>
       <path d="M 2906 2969 
L 2906 4863 
L 3481 4863 
L 3481 0 
L 2906 0 
L 2906 525 
Q 2725 213 2448 61 
Q 2172 -91 1784 -91 
Q 1150 -91 751 415 
Q 353 922 353 1747 
Q 353 2572 751 3078 
Q 1150 3584 1784 3584 
Q 2172 3584 2448 3432 
Q 2725 3281 2906 2969 
z
M 947 1747 
Q 947 1113 1208 752 
Q 1469 391 1925 391 
Q 2381 391 2643 752 
Q 2906 1113 2906 1747 
Q 2906 2381 2643 2742 
Q 2381 3103 1925 3103 
Q 1469 3103 1208 2742 
Q 947 2381 947 1747 
z
" id="DejaVuSans-64" transform="scale(0.015625)"/>
       <path d="M 2194 1759 
Q 1497 1759 1228 1600 
Q 959 1441 959 1056 
Q 959 750 1161 570 
Q 1363 391 1709 391 
Q 2188 391 2477 730 
Q 2766 1069 2766 1631 
L 2766 1759 
L 2194 1759 
z
M 3341 1997 
L 3341 0 
L 2766 0 
L 2766 531 
Q 2569 213 2275 61 
Q 1981 -91 1556 -91 
Q 1019 -91 701 211 
Q 384 513 384 1019 
Q 384 1609 779 1909 
Q 1175 2209 1959 2209 
L 2766 2209 
L 2766 2266 
Q 2766 2663 2505 2880 
Q 2244 3097 1772 3097 
Q 1472 3097 1187 3025 
Q 903 2953 641 2809 
L 641 3341 
Q 956 3463 1253 3523 
Q 1550 3584 1831 3584 
Q 2591 3584 2966 3190 
Q 3341 2797 3341 1997 
z
" id="DejaVuSans-61" transform="scale(0.015625)"/>
       <path d="M 1172 4494 
L 1172 3500 
L 2356 3500 
L 2356 3053 
L 1172 3053 
L 1172 1153 
Q 1172 725 1289 603 
Q 1406 481 1766 481 
L 2356 481 
L 2356 0 
L 1766 0 
Q 1100 0 847 248 
Q 594 497 594 1153 
L 594 3053 
L 172 3053 
L 172 3500 
L 594 3500 
L 594 4494 
L 1172 4494 
z
" id="DejaVuSans-74" transform="scale(0.015625)"/>
       <path d="M 3597 1894 
L 3597 1613 
L 953 1613 
Q 991 1019 1311 708 
Q 1631 397 2203 397 
Q 2534 397 2845 478 
Q 3156 559 3463 722 
L 3463 178 
Q 3153 47 2828 -22 
Q 2503 -91 2169 -91 
Q 1331 -91 842 396 
Q 353 884 353 1716 
Q 353 2575 817 3079 
Q 1281 3584 2069 3584 
Q 2775 3584 3186 3129 
Q 3597 2675 3597 1894 
z
M 3022 2063 
Q 3016 2534 2758 2815 
Q 2500 3097 2075 3097 
Q 1594 3097 1305 2825 
Q 1016 2553 972 2059 
L 3022 2063 
z
" id="DejaVuSans-65" transform="scale(0.015625)"/>
      </defs>
      <use xlink:href="#DejaVuSans-64"/>
      <use x="63.476562" xlink:href="#DejaVuSans-61"/>
      <use x="124.755859" xlink:href="#DejaVuSans-74"/>
      <use x="163.964844" xlink:href="#DejaVuSans-65"/>
     </g>
    </g>
   </g>
   <g id="matplotlib.axis_2">
    <g id="ytick_1">
     <g id="line2d_10">
      <defs>
       <path d="M 0 0 
L -3.5 0 
" id="md62c6ff6f0" style="stroke:#000000;stroke-width:0.8;"/>
      </defs>
      <g>
       <use style="stroke:#000000;stroke-width:0.8;" x="57.6" xlink:href="#md62c6ff6f0" y="264.690677"/>
      </g>
     </g>
     <g id="text_11">
      <!-- 80000 -->
      <g transform="translate(18.7875 268.489895)scale(0.1 -0.1)">
       <defs>
        <path d="M 2034 2216 
Q 1584 2216 1326 1975 
Q 1069 1734 1069 1313 
Q 1069 891 1326 650 
Q 1584 409 2034 409 
Q 2484 409 2743 651 
Q 3003 894 3003 1313 
Q 3003 1734 2745 1975 
Q 2488 2216 2034 2216 
z
M 1403 2484 
Q 997 2584 770 2862 
Q 544 3141 544 3541 
Q 544 4100 942 4425 
Q 1341 4750 2034 4750 
Q 2731 4750 3128 4425 
Q 3525 4100 3525 3541 
Q 3525 3141 3298 2862 
Q 3072 2584 2669 2484 
Q 3125 2378 3379 2068 
Q 3634 1759 3634 1313 
Q 3634 634 3220 271 
Q 2806 -91 2034 -91 
Q 1263 -91 848 271 
Q 434 634 434 1313 
Q 434 1759 690 2068 
Q 947 2378 1403 2484 
z
M 1172 3481 
Q 1172 3119 1398 2916 
Q 1625 2713 2034 2713 
Q 2441 2713 2670 2916 
Q 2900 3119 2900 3481 
Q 2900 3844 2670 4047 
Q 2441 4250 2034 4250 
Q 1625 4250 1398 4047 
Q 1172 3844 1172 3481 
z
" id="DejaVuSans-38" transform="scale(0.015625)"/>
       </defs>
       <use xlink:href="#DejaVuSans-38"/>
       <use x="63.623047" xlink:href="#DejaVuSans-30"/>
       <use x="127.246094" xlink:href="#DejaVuSans-30"/>
       <use x="190.869141" xlink:href="#DejaVuSans-30"/>
       <use x="254.492188" xlink:href="#DejaVuSans-30"/>
      </g>
     </g>
    </g>
    <g id="ytick_2">
     <g id="line2d_11">
      <g>
       <use style="stroke:#000000;stroke-width:0.8;" x="57.6" xlink:href="#md62c6ff6f0" y="233.62622"/>
      </g>
     </g>
     <g id="text_12">
      <!-- 85000 -->
      <g transform="translate(18.7875 237.425439)scale(0.1 -0.1)">
       <use xlink:href="#DejaVuSans-38"/>
       <use x="63.623047" xlink:href="#DejaVuSans-35"/>
       <use x="127.246094" xlink:href="#DejaVuSans-30"/>
       <use x="190.869141" xlink:href="#DejaVuSans-30"/>
       <use x="254.492188" xlink:href="#DejaVuSans-30"/>
      </g>
     </g>
    </g>
    <g id="ytick_3">
     <g id="line2d_12">
      <g>
       <use style="stroke:#000000;stroke-width:0.8;" x="57.6" xlink:href="#md62c6ff6f0" y="202.561763"/>
      </g>
     </g>
     <g id="text_13">
      <!-- 90000 -->
      <g transform="translate(18.7875 206.360982)scale(0.1 -0.1)">
       <use xlink:href="#DejaVuSans-39"/>
       <use x="63.623047" xlink:href="#DejaVuSans-30"/>
       <use x="127.246094" xlink:href="#DejaVuSans-30"/>
       <use x="190.869141" xlink:href="#DejaVuSans-30"/>
       <use x="254.492188" xlink:href="#DejaVuSans-30"/>
      </g>
     </g>
    </g>
    <g id="ytick_4">
     <g id="line2d_13">
      <g>
       <use style="stroke:#000000;stroke-width:0.8;" x="57.6" xlink:href="#md62c6ff6f0" y="171.497306"/>
      </g>
     </g>
     <g id="text_14">
      <!-- 95000 -->
      <g transform="translate(18.7875 175.296525)scale(0.1 -0.1)">
       <use xlink:href="#DejaVuSans-39"/>
       <use x="63.623047" xlink:href="#DejaVuSans-35"/>
       <use x="127.246094" xlink:href="#DejaVuSans-30"/>
       <use x="190.869141" xlink:href="#DejaVuSans-30"/>
       <use x="254.492188" xlink:href="#DejaVuSans-30"/>
      </g>
     </g>
    </g>
    <g id="ytick_5">
     <g id="line2d_14">
      <g>
       <use style="stroke:#000000;stroke-width:0.8;" x="57.6" xlink:href="#md62c6ff6f0" y="140.43285"/>
      </g>
     </g>
     <g id="text_15">
      <!-- 100000 -->
      <g transform="translate(12.425 144.232068)scale(0.1 -0.1)">
       <use xlink:href="#DejaVuSans-31"/>
       <use x="63.623047" xlink:href="#DejaVuSans-30"/>
       <use x="127.246094" xlink:href="#DejaVuSans-30"/>
       <use x="190.869141" xlink:href="#DejaVuSans-30"/>
       <use x="254.492188" xlink:href="#DejaVuSans-30"/>
       <use x="318.115234" xlink:href="#DejaVuSans-30"/>
      </g>
     </g>
    </g>
    <g id="ytick_6">
     <g id="line2d_15">
      <g>
       <use style="stroke:#000000;stroke-width:0.8;" x="57.6" xlink:href="#md62c6ff6f0" y="109.368393"/>
      </g>
     </g>
     <g id="text_16">
      <!-- 105000 -->
      <g transform="translate(12.425 113.167612)scale(0.1 -0.1)">
       <use xlink:href="#DejaVuSans-31"/>
       <use x="63.623047" xlink:href="#DejaVuSans-30"/>
       <use x="127.246094" xlink:href="#DejaVuSans-35"/>
       <use x="190.869141" xlink:href="#DejaVuSans-30"/>
       <use x="254.492188" xlink:href="#DejaVuSans-30"/>
       <use x="318.115234" xlink:href="#DejaVuSans-30"/>
      </g>
     </g>
    </g>
    <g id="ytick_7">
     <g id="line2d_16">
      <g>
       <use style="stroke:#000000;stroke-width:0.8;" x="57.6" xlink:href="#md62c6ff6f0" y="78.303936"/>
      </g>
     </g>
     <g id="text_17">
      <!-- 110000 -->
      <g transform="translate(12.425 82.103155)scale(0.1 -0.1)">
       <use xlink:href="#DejaVuSans-31"/>
       <use x="63.623047" xlink:href="#DejaVuSans-31"/>
       <use x="127.246094" xlink:href="#DejaVuSans-30"/>
       <use x="190.869141" xlink:href="#DejaVuSans-30"/>
       <use x="254.492188" xlink:href="#DejaVuSans-30"/>
       <use x="318.115234" xlink:href="#DejaVuSans-30"/>
      </g>
     </g>
    </g>
    <g id="ytick_8">
     <g id="line2d_17">
      <g>
       <use style="stroke:#000000;stroke-width:0.8;" x="57.6" xlink:href="#md62c6ff6f0" y="47.239479"/>
      </g>
     </g>
     <g id="text_18">
      <!-- 115000 -->
      <g transform="translate(12.425 51.038698)scale(0.1 -0.1)">
       <use xlink:href="#DejaVuSans-31"/>
       <use x="63.623047" xlink:href="#DejaVuSans-31"/>
       <use x="127.246094" xlink:href="#DejaVuSans-35"/>
       <use x="190.869141" xlink:href="#DejaVuSans-30"/>
       <use x="254.492188" xlink:href="#DejaVuSans-30"/>
       <use x="318.115234" xlink:href="#DejaVuSans-30"/>
      </g>
     </g>
    </g>
   </g>
   <g id="line2d_18">
    <path clip-path="url(#p68a0833874)" d="M 73.832727 140.43285 
L 75.100909 141.116699 
L 76.369091 138.218273 
L 77.637273 141.997115 
L 78.905455 136.108806 
L 83.978182 130.927845 
L 85.246364 132.613034 
L 86.514545 132.168464 
L 87.782727 132.364195 
L 92.855455 132.456433 
L 94.123636 134.44507 
L 95.391818 136.83869 
L 96.66 142.119858 
L 100.464545 137.013041 
L 101.732727 145.706281 
L 103.000909 141.44531 
L 104.269091 142.130247 
L 105.537273 148.169587 
L 109.341818 159.38253 
L 110.61 160.39087 
L 111.878182 155.973061 
L 113.146364 146.339337 
L 114.414545 141.316072 
L 118.219091 136.283441 
L 119.487273 149.38857 
L 120.755455 147.540702 
L 122.023636 152.714804 
L 123.291818 143.189476 
L 127.096364 154.875216 
L 128.364545 144.99891 
L 129.632727 142.886427 
L 130.900909 142.951298 
L 132.169091 142.247856 
L 135.973636 141.057707 
L 137.241818 140.496737 
L 138.51 148.458468 
L 139.778182 136.100271 
L 141.046364 135.130415 
L 144.850909 130.559988 
L 146.119091 123.963629 
L 147.387273 121.53655 
L 148.655455 132.571988 
L 149.923636 140.233804 
L 153.728182 140.109099 
L 154.996364 145.63781 
L 156.264545 146.668042 
L 157.532727 139.010632 
L 158.800909 147.187779 
L 162.605455 134.316916 
L 163.873636 134.319183 
L 165.141818 128.057421 
L 166.41 135.877002 
L 167.678182 131.731068 
L 171.482727 130.845842 
L 172.750909 138.467933 
L 174.019091 138.818177 
L 175.287273 143.919843 
L 176.555455 139.030213 
L 180.36 136.993241 
L 181.628182 137.109653 
L 182.896364 140.450946 
L 184.164545 142.252367 
L 185.432727 142.620067 
L 189.237273 139.027911 
L 190.505455 133.546312 
L 191.773636 134.056969 
L 194.31 134.145657 
L 198.114545 139.084681 
L 199.382727 151.354385 
L 200.650909 159.779811 
L 201.919091 151.904612 
L 203.187273 156.160923 
L 206.991818 144.539559 
L 208.26 133.744615 
L 209.528182 128.685104 
L 210.796364 128.643715 
L 212.064545 126.555911 
L 215.869091 132.599183 
L 217.137273 129.323925 
L 218.405455 125.433758 
L 219.673636 123.044185 
L 220.941818 130.203128 
L 224.746364 138.8272 
L 226.014545 124.746635 
L 227.282727 121.795513 
L 228.550909 115.768403 
L 233.623636 107.697939 
L 234.891818 108.151891 
L 236.16 107.981145 
L 237.428182 108.866342 
L 238.696364 111.8008 
L 242.500909 101.87571 
L 243.769091 94.011899 
L 245.037273 110.958994 
L 246.305455 105.6519 
L 247.573636 103.201513 
L 251.378182 103.360519 
L 252.646364 97.408869 
L 253.914545 96.188753 
L 255.182727 104.117101 
L 256.450909 101.964455 
L 261.523636 116.534479 
L 262.791818 119.534221 
L 264.06 126.762899 
L 265.328182 141.436324 
L 269.132727 140.595461 
L 270.400909 147.648969 
L 271.669091 147.728836 
L 272.937273 151.769931 
L 274.205455 135.773614 
L 278.01 122.525765 
L 279.278182 116.649352 
L 280.546364 106.746349 
L 281.814545 147.787752 
L 283.082727 146.917132 
L 286.887273 157.898815 
L 288.155455 159.142628 
L 289.423636 145.73074 
L 290.691818 156.460826 
L 291.96 170.174229 
L 295.764545 174.772596 
L 297.032727 166.954202 
L 298.300909 170.114965 
L 299.569091 181.26698 
L 300.837273 185.216902 
L 305.91 190.941851 
L 307.178182 199.44096 
L 308.446364 186.302227 
L 309.714545 176.298426 
L 313.519091 178.203791 
L 314.787273 187.471206 
L 316.055455 175.437339 
L 317.323636 177.150311 
L 318.591818 181.959352 
L 322.396364 205.855706 
L 323.664545 206.353048 
L 324.932727 183.09922 
L 326.200909 190.164824 
L 327.469091 200.463932 
L 331.273636 202.794663 
L 332.541818 191.60727 
L 333.81 173.493348 
L 335.078182 166.094173 
L 336.346364 155.472455 
L 340.150909 158.583464 
L 341.419091 146.740327 
L 342.687273 153.057088 
L 343.955455 142.971114 
L 345.223636 136.959931 
L 349.028182 134.607951 
L 350.296364 129.129621 
L 351.564545 131.068877 
L 352.832727 145.184883 
L 354.100909 142.520159 
L 357.905455 135.131928 
L 359.173636 142.069723 
L 360.441818 152.119736 
L 361.71 152.774394 
L 362.978182 154.082632 
L 366.782727 165.257518 
L 368.050909 169.554387 
L 369.319091 166.661142 
L 370.587273 177.173402 
L 375.66 172.880928 
L 376.928182 162.49105 
L 378.196364 170.082342 
L 379.464545 183.718629 
L 380.732727 202.193348 
L 384.537273 197.591872 
L 385.805455 207.979325 
L 387.073636 214.353867 
L 388.341818 177.674983 
L 389.61 195.576143 
L 393.414545 187.34689 
L 394.682727 181.990701 
L 395.950909 157.194033 
L 397.219091 183.946 
L 398.487273 191.500096 
L 398.487273 191.500096 
" style="fill:none;stroke:#0000ff;stroke-linecap:square;stroke-opacity:0.9;stroke-width:2;"/>
   </g>
   <g id="line2d_19">
    <path clip-path="url(#p68a0833874)" d="M 73.832727 140.43285 
L 76.369091 134.192165 
L 77.637273 138.011243 
L 78.905455 130.822253 
L 83.978182 127.738812 
L 85.246364 127.479269 
L 86.514545 128.874416 
L 87.782727 128.596248 
L 92.855455 127.295628 
L 94.123636 129.707333 
L 95.391818 131.232023 
L 96.66 137.523065 
L 100.464545 133.137403 
L 101.732727 139.18544 
L 103.000909 135.991303 
L 104.269091 137.812724 
L 105.537273 145.818143 
L 109.341818 156.153839 
L 110.61 155.820954 
L 111.878182 152.129175 
L 113.146364 144.215116 
L 114.414545 139.846015 
L 118.219091 135.62933 
L 119.487273 148.492306 
L 120.755455 147.555855 
L 122.023636 153.14309 
L 123.291818 144.217693 
L 127.096364 151.215016 
L 128.364545 142.37947 
L 129.632727 140.972048 
L 130.900909 139.263643 
L 132.169091 135.879491 
L 135.973636 139.642201 
L 137.241818 144.710224 
L 138.51 146.120508 
L 139.778182 131.285515 
L 141.046364 126.941297 
L 144.850909 125.077084 
L 146.119091 119.757183 
L 147.387273 116.335423 
L 148.655455 124.891233 
L 149.923636 128.071099 
L 153.728182 129.793418 
L 156.264545 137.054236 
L 157.532727 127.702083 
L 158.800909 127.133691 
L 162.605455 126.496533 
L 163.873636 124.088894 
L 165.141818 119.300986 
L 166.41 120.949607 
L 167.678182 120.323652 
L 171.482727 120.112532 
L 172.750909 124.944179 
L 174.019091 128.030086 
L 175.287273 128.03316 
L 176.555455 123.530038 
L 180.36 122.371851 
L 181.628182 123.872385 
L 182.896364 124.093248 
L 184.164545 124.435128 
L 185.432727 126.522791 
L 189.237273 123.91718 
L 190.505455 117.820836 
L 191.773636 117.453688 
L 194.31 133.623867 
L 198.114545 127.04867 
L 199.382727 140.107946 
L 200.650909 147.775936 
L 201.919091 139.319658 
L 203.187273 144.019543 
L 206.991818 134.690413 
L 208.26 123.641427 
L 209.528182 120.15497 
L 210.796364 120.685853 
L 212.064545 116.58163 
L 215.869091 123.45801 
L 217.137273 122.820435 
L 218.405455 118.242063 
L 219.673636 117.773272 
L 220.941818 125.968443 
L 224.746364 133.493155 
L 226.014545 121.048625 
L 227.282727 117.439597 
L 228.550909 112.422315 
L 233.623636 103.622958 
L 234.891818 104.184425 
L 236.16 103.618672 
L 237.428182 104.527199 
L 238.696364 107.06837 
L 242.500909 100.257557 
L 243.769091 93.448855 
L 245.037273 107.676789 
L 246.305455 105.591463 
L 247.573636 102.106784 
L 251.378182 102.683228 
L 252.646364 98.662595 
L 253.914545 98.479786 
L 255.182727 103.399208 
L 256.450909 103.90986 
L 261.523636 118.440831 
L 264.06 130.610118 
L 265.328182 143.818353 
L 269.132727 144.607307 
L 270.400909 142.752715 
L 271.669091 143.861432 
L 272.937273 149.616002 
L 274.205455 134.663852 
L 278.01 124.724083 
L 279.278182 117.031508 
L 280.546364 106.867598 
L 281.814545 135.942864 
L 283.082727 131.150795 
L 286.887273 135.276531 
L 288.155455 130.686383 
L 289.423636 124.791722 
L 290.691818 135.702606 
L 291.96 148.298718 
L 295.764545 154.580533 
L 297.032727 147.306328 
L 298.300909 148.374713 
L 299.569091 160.160648 
L 300.837273 163.226669 
L 305.91 168.642351 
L 307.178182 176.492549 
L 308.446364 173.540305 
L 309.714545 159.512997 
L 313.519091 165.133957 
L 314.787273 177.201205 
L 316.055455 163.773435 
L 317.323636 164.654388 
L 318.591818 173.287756 
L 322.396364 194.240373 
L 323.664545 196.975829 
L 324.932727 176.477588 
L 326.200909 183.838142 
L 327.469091 190.327314 
L 331.273636 190.498477 
L 332.541818 180.817143 
L 333.81 167.489574 
L 336.346364 155.796359 
L 340.150909 155.430481 
L 341.419091 145.244366 
L 342.687273 151.391173 
L 343.955455 142.434398 
L 345.223636 135.409552 
L 349.028182 134.834834 
L 350.296364 131.981069 
L 351.564545 132.618145 
L 352.832727 144.436091 
L 354.100909 141.570425 
L 357.905455 137.461828 
L 359.173636 143.492362 
L 360.441818 151.601021 
L 361.71 151.837315 
L 362.978182 151.423067 
L 366.782727 160.27191 
L 368.050909 163.67543 
L 369.319091 161.446799 
L 370.587273 170.237719 
L 375.66 166.729279 
L 376.928182 158.17142 
L 378.196364 155.227103 
L 379.464545 163.122024 
L 380.732727 181.170528 
L 384.537273 179.421384 
L 385.805455 189.024867 
L 387.073636 190.467077 
L 388.341818 171.71472 
L 389.61 189.610025 
L 393.414545 185.93949 
L 394.682727 181.390515 
L 395.950909 157.058608 
L 397.219091 178.313394 
L 398.487273 176.471576 
L 398.487273 176.471576 
" style="fill:none;stroke:#ff0000;stroke-linecap:square;stroke-opacity:0.9;stroke-width:2;"/>
   </g>
   <g id="line2d_20">
    <path clip-path="url(#p68a0833874)" d="M 73.832727 140.43285 
L 75.100909 137.184447 
L 76.369091 134.365783 
L 77.637273 138.007597 
L 78.905455 132.408721 
L 82.71 128.11352 
L 83.978182 126.965783 
L 85.246364 128.201131 
L 86.514545 127.893056 
L 87.782727 127.917257 
L 92.855455 128.171205 
L 94.123636 129.827189 
L 95.391818 132.083372 
L 96.66 137.519544 
L 100.464545 131.82847 
L 101.732727 140.960863 
L 103.000909 136.968238 
L 104.269091 137.756108 
L 105.537273 143.634646 
L 109.341818 153.828568 
L 110.61 155.757661 
L 111.878182 150.792998 
L 113.146364 140.948023 
L 114.414545 135.565074 
L 118.219091 130.518817 
L 119.487273 143.755874 
L 120.755455 141.943146 
L 122.023636 146.058292 
L 123.291818 136.462076 
L 127.096364 148.511515 
L 128.364545 139.041981 
L 129.632727 136.398104 
L 130.900909 134.793428 
L 132.169091 132.338154 
L 135.973636 136.002006 
L 137.241818 140.689042 
L 138.51 141.949309 
L 139.778182 129.647632 
L 141.046364 128.888628 
L 144.850909 123.311739 
L 146.119091 117.388473 
L 147.387273 114.540571 
L 148.655455 124.633885 
L 149.923636 133.013861 
L 153.728182 132.450808 
L 154.996364 138.346731 
L 156.264545 139.877691 
L 157.532727 131.831201 
L 158.800909 130.73004 
L 162.605455 127.26328 
L 163.873636 126.279148 
L 165.141818 121.360678 
L 166.41 120.783358 
L 167.678182 116.025775 
L 171.482727 115.875916 
L 172.750909 123.649969 
L 174.019091 128.542985 
L 175.287273 128.691266 
L 176.555455 123.95327 
L 180.36 121.847935 
L 181.628182 124.840737 
L 182.896364 125.041472 
L 184.164545 126.6129 
L 185.432727 127.233875 
L 189.237273 123.132137 
L 190.505455 117.765473 
L 191.773636 118.469728 
L 194.31 132.279426 
L 198.114545 124.213555 
L 199.382727 136.951683 
L 200.650909 145.394198 
L 201.919091 138.397859 
L 203.187273 142.015635 
L 206.991818 130.539376 
L 208.26 119.270423 
L 209.528182 114.125155 
L 210.796364 113.547157 
L 212.064545 111.802976 
L 215.869091 117.420364 
L 217.137273 114.78447 
L 218.405455 111.091725 
L 219.673636 108.278817 
L 220.941818 116.380234 
L 224.746364 124.730822 
L 226.014545 110.058018 
L 227.282727 107.150364 
L 228.550909 100.906355 
L 233.623636 92.597328 
L 237.428182 93.655976 
L 238.696364 96.754867 
L 242.500909 86.562195 
L 243.769091 78.061962 
L 245.037273 95.699838 
L 246.305455 89.195191 
L 247.573636 86.507245 
L 251.378182 85.020648 
L 252.646364 78.935672 
L 253.914545 78.096605 
L 255.182727 85.743805 
L 256.450909 83.781108 
L 262.791818 101.954506 
L 264.06 109.35505 
L 265.328182 124.345567 
L 269.132727 123.321602 
L 270.400909 131.044928 
L 271.669091 130.832303 
L 272.937273 134.910639 
L 274.205455 118.964857 
L 278.01 104.596493 
L 279.278182 98.713711 
L 280.546364 87.526455 
L 281.814545 132.386432 
L 283.082727 131.99806 
L 286.887273 142.567454 
L 288.155455 144.379728 
L 289.423636 130.100578 
L 290.691818 141.48345 
L 291.96 155.263915 
L 295.764545 159.448755 
L 297.032727 152.234452 
L 298.300909 155.183551 
L 299.569091 166.516145 
L 300.837273 170.008653 
L 305.91 175.908571 
L 307.178182 184.0763 
L 308.446364 171.141071 
L 309.714545 159.6756 
L 313.519091 162.08923 
L 314.787273 171.24446 
L 316.055455 158.928373 
L 317.323636 162.039004 
L 322.396364 195.990086 
L 323.664545 193.224522 
L 324.932727 168.373349 
L 327.469091 186.448972 
L 331.273636 186.800331 
L 332.541818 175.429006 
L 333.81 155.890455 
L 335.078182 149.539397 
L 336.346364 140.040348 
L 340.150909 142.183763 
L 341.419091 129.252955 
L 342.687273 136.525712 
L 343.955455 127.328351 
L 345.223636 119.999924 
L 349.028182 119.487682 
L 350.296364 114.531867 
L 351.564545 117.691947 
L 352.832727 134.090132 
L 354.100909 132.681107 
L 357.905455 126.426566 
L 359.173636 134.935082 
L 360.441818 144.368189 
L 361.71 146.486791 
L 362.978182 146.970517 
L 368.050909 160.316077 
L 369.319091 157.02104 
L 370.587273 168.734758 
L 375.66 162.287636 
L 376.928182 151.470435 
L 378.196364 155.081565 
L 379.464545 168.196853 
L 380.732727 187.900275 
L 384.537273 184.19118 
L 385.805455 199.414042 
L 387.073636 205.745494 
L 388.341818 173.503844 
L 389.61 191.958159 
L 393.414545 181.438637 
L 394.682727 175.370325 
L 395.950909 148.643294 
L 397.219091 173.903468 
L 398.487273 176.769734 
L 398.487273 176.769734 
" style="fill:none;stroke:#ff8040;stroke-linecap:square;stroke-opacity:0.9;stroke-width:2;"/>
   </g>
   <g id="line2d_21">
    <path clip-path="url(#p68a0833874)" d="M 73.832727 141.054139 
L 75.100909 139.677736 
L 76.369091 137.452051 
L 77.637273 143.067237 
L 78.905455 136.977658 
L 82.71 139.724008 
L 83.978182 138.476643 
L 85.246364 139.797706 
L 86.514545 140.008411 
L 87.782727 139.606057 
L 92.855455 140.671502 
L 94.123636 144.922797 
L 95.391818 145.532464 
L 96.66 152.737764 
L 100.464545 148.167023 
L 101.732727 155.251463 
L 103.000909 152.336868 
L 104.269091 153.981538 
L 105.537273 160.747791 
L 109.341818 170.576673 
L 111.878182 170.605961 
L 113.146364 162.510955 
L 114.414545 158.572689 
L 118.219091 157.650338 
L 119.487273 167.810422 
L 120.755455 166.780321 
L 122.023636 172.580456 
L 123.291818 162.90657 
L 127.096364 173.90779 
L 128.364545 166.227975 
L 129.632727 164.996741 
L 130.900909 160.883768 
L 132.169091 158.101666 
L 135.973636 159.690283 
L 137.241818 165.291818 
L 138.51 163.759625 
L 139.778182 150.045778 
L 141.046364 148.398953 
L 144.850909 144.487649 
L 147.387273 136.599034 
L 148.655455 148.660468 
L 149.923636 156.255489 
L 153.728182 158.209679 
L 154.996364 162.390798 
L 156.264545 170.061451 
L 157.532727 162.175484 
L 158.800909 162.913941 
L 162.605455 164.332822 
L 163.873636 161.266956 
L 165.141818 155.131152 
L 166.41 154.861699 
L 167.678182 152.810836 
L 171.482727 152.086687 
L 174.019091 164.444495 
L 175.287273 163.184667 
L 176.555455 161.417945 
L 180.36 158.116417 
L 181.628182 159.58505 
L 182.896364 161.50764 
L 184.164545 159.900612 
L 185.432727 157.350479 
L 189.237273 153.498413 
L 190.505455 148.135097 
L 191.773636 147.454132 
L 194.31 163.128362 
L 198.114545 156.242972 
L 199.382727 172.990529 
L 200.650909 180.877575 
L 201.919091 173.590735 
L 203.187273 180.302579 
L 206.991818 172.170783 
L 208.26 163.809877 
L 209.528182 163.304566 
L 210.796364 164.609193 
L 212.064545 160.601536 
L 215.869091 163.776219 
L 217.137273 163.448029 
L 218.405455 156.09544 
L 219.673636 153.279052 
L 220.941818 162.412668 
L 224.746364 169.839127 
L 226.014545 155.535462 
L 227.282727 152.505599 
L 228.550909 147.784928 
L 233.623636 142.643857 
L 234.891818 142.967227 
L 236.16 143.622497 
L 237.428182 143.847695 
L 238.696364 146.19423 
L 242.500909 141.56768 
L 243.769091 136.142673 
L 245.037273 151.486922 
L 246.305455 150.426965 
L 247.573636 146.015863 
L 251.378182 147.724237 
L 252.646364 140.470928 
L 253.914545 140.276466 
L 255.182727 146.78398 
L 256.450909 147.698483 
L 261.523636 161.900971 
L 262.791818 165.840229 
L 264.06 170.804258 
L 265.328182 183.076536 
L 269.132727 184.246221 
L 270.400909 183.261724 
L 271.669091 184.957211 
L 272.937273 189.049215 
L 274.205455 173.433464 
L 278.01 165.097795 
L 280.546364 152.485895 
L 281.814545 197.801644 
L 283.082727 193.186909 
L 286.887273 198.835006 
L 288.155455 198.005743 
L 289.423636 191.595584 
L 290.691818 201.023531 
L 291.96 212.46091 
L 295.764545 217.849423 
L 297.032727 211.013977 
L 298.300909 212.889703 
L 299.569091 226.987847 
L 300.837273 230.711406 
L 305.91 236.662807 
L 307.178182 242.430666 
L 308.446364 236.404025 
L 309.714545 223.540374 
L 313.519091 227.590965 
L 314.787273 239.569907 
L 316.055455 226.77725 
L 317.323636 228.043453 
L 318.591818 236.489424 
L 322.396364 256.065047 
L 323.664545 257.255632 
L 324.932727 239.290309 
L 326.200909 247.274356 
L 327.469091 254.164181 
L 331.273636 256.498645 
L 332.541818 247.619612 
L 333.81 236.716393 
L 335.078182 231.408054 
L 336.346364 226.634199 
L 340.150909 225.948406 
L 341.419091 213.727186 
L 342.687273 219.171898 
L 343.955455 208.753285 
L 345.223636 201.74859 
L 349.028182 201.308921 
L 350.296364 197.275865 
L 351.564545 199.49015 
L 352.832727 208.924341 
L 354.100909 206.606389 
L 357.905455 203.109125 
L 359.173636 209.486581 
L 360.441818 216.952044 
L 361.71 218.510317 
L 362.978182 219.337692 
L 366.782727 226.767091 
L 368.050909 229.705418 
L 369.319091 228.606609 
L 370.587273 235.735417 
L 375.66 233.302262 
L 376.928182 226.676798 
L 378.196364 231.187862 
L 379.464545 243.351979 
L 380.732727 259.202069 
L 384.537273 256.219429 
L 385.805455 265.797818 
L 387.073636 261.692236 
L 388.341818 240.874432 
L 389.61 256.319256 
L 393.414545 251.374779 
L 394.682727 246.842879 
L 395.950909 228.311697 
L 397.219091 244.524105 
L 398.487273 243.288005 
L 398.487273 243.288005 
" style="fill:none;stroke:#0d0d0d;stroke-linecap:square;stroke-opacity:0.25;stroke-width:2;"/>
   </g>
   <g id="line2d_22">
    <path clip-path="url(#p68a0833874)" d="M 73.832727 139.811561 
L 76.369091 129.992332 
L 77.637273 134.523955 
L 78.905455 126.121291 
L 82.71 118.569714 
L 83.978182 117.404635 
L 85.246364 118.341087 
L 86.514545 119.505827 
L 87.782727 119.458736 
L 92.855455 117.973655 
L 94.123636 119.685695 
L 95.391818 121.02998 
L 96.66 128.737255 
L 100.464545 122.666162 
L 101.732727 129.13685 
L 103.000909 125.925837 
L 104.269091 126.92885 
L 105.537273 135.416571 
L 109.341818 144.040294 
L 111.878182 141.649879 
L 113.146364 131.71155 
L 114.414545 127.42576 
L 118.219091 120.796869 
L 119.487273 132.783387 
L 120.755455 132.986492 
L 122.023636 138.932765 
L 123.291818 128.188358 
L 127.096364 133.106238 
L 128.364545 120.831777 
L 129.632727 119.459311 
L 130.900909 118.861 
L 132.169091 114.901856 
L 135.973636 117.994595 
L 137.241818 124.362756 
L 138.51 126.4158 
L 139.778182 110.471621 
L 141.046364 104.195952 
L 144.850909 102.336497 
L 146.119091 96.432115 
L 147.387273 92.742142 
L 148.655455 101.580418 
L 149.923636 103.100334 
L 153.728182 104.287808 
L 154.996364 104.939665 
L 156.264545 103.605772 
L 157.532727 94.0029 
L 158.800909 91.840577 
L 162.605455 89.341468 
L 163.873636 88.720769 
L 165.141818 82.887925 
L 166.41 82.255098 
L 167.678182 85.408516 
L 171.482727 84.971072 
L 174.019091 93.664765 
L 175.287273 93.339238 
L 176.555455 86.459286 
L 180.36 83.129806 
L 181.628182 85.271998 
L 182.896364 85.767873 
L 184.164545 88.138835 
L 185.432727 91.700965 
L 189.237273 87.869995 
L 190.505455 79.292971 
L 191.773636 76.401861 
L 194.31 94.538214 
L 198.114545 83.526664 
L 199.382727 101.760036 
L 200.650909 109.635292 
L 201.919091 101.573833 
L 203.187273 107.034269 
L 206.991818 96.942902 
L 208.26 85.979182 
L 209.528182 81.451351 
L 210.796364 82.428093 
L 212.064545 80.848622 
L 215.869091 86.953506 
L 217.137273 86.474753 
L 218.405455 83.895049 
L 219.673636 79.604285 
L 220.941818 85.911383 
L 224.746364 94.474752 
L 226.014545 80.353192 
L 227.282727 76.853104 
L 228.550909 69.002475 
L 233.623636 57.311744 
L 234.891818 58.355768 
L 237.428182 62.079372 
L 238.696364 64.732232 
L 242.500909 56.300388 
L 243.769091 52.154182 
L 245.037273 68.100272 
L 246.305455 64.710424 
L 247.573636 60.360784 
L 251.378182 60.881397 
L 252.646364 55.820848 
L 253.914545 56.699904 
L 255.182727 61.223663 
L 256.450909 60.870271 
L 261.523636 77.172927 
L 262.791818 78.899263 
L 264.06 85.565709 
L 265.328182 99.453245 
L 269.132727 99.079138 
L 271.669091 104.462088 
L 272.937273 109.454223 
L 274.205455 92.986452 
L 278.01 82.116208 
L 279.278182 74.345824 
L 280.546364 60.229076 
L 281.814545 92.524782 
L 283.082727 85.204553 
L 286.887273 90.434062 
L 288.155455 86.3741 
L 289.423636 79.265348 
L 290.691818 90.735017 
L 291.96 105.418495 
L 295.764545 113.021015 
L 297.032727 105.966443 
L 298.300909 109.274548 
L 299.569091 122.860181 
L 300.837273 126.901136 
L 305.91 133.21919 
L 307.178182 142.290356 
L 308.446364 130.708377 
L 309.714545 116.28234 
L 313.519091 121.78089 
L 314.787273 132.541593 
L 316.055455 118.687095 
L 317.323636 120.646587 
L 318.591818 125.849663 
L 322.396364 148.184496 
L 323.664545 154.842358 
L 324.932727 130.813703 
L 327.469091 142.743934 
L 331.273636 140.990113 
L 332.541818 129.96551 
L 333.81 112.794412 
L 335.078182 107.625024 
L 336.346364 101.17942 
L 340.150909 98.284596 
L 341.419091 90.520257 
L 342.687273 97.394311 
L 343.955455 88.609931 
L 345.223636 81.275154 
L 349.028182 77.768369 
L 350.296364 75.987499 
L 351.564545 77.792027 
L 352.832727 92.903729 
L 354.100909 87.967709 
L 357.905455 83.79022 
L 359.173636 90.849885 
L 360.441818 100.245037 
L 361.71 100.871867 
L 362.978182 101.050257 
L 366.782727 114.693535 
L 368.050909 117.830272 
L 369.319091 116.548207 
L 370.587273 126.046729 
L 375.66 121.895254 
L 376.928182 110.452145 
L 378.196364 107.032224 
L 379.464545 117.154353 
L 380.732727 135.601194 
L 384.537273 131.956055 
L 385.805455 146.736058 
L 387.073636 148.473434 
L 388.341818 113.411941 
L 389.61 134.040848 
L 393.414545 128.238913 
L 394.682727 124.047357 
L 395.950909 97.40564 
L 397.219091 119.838084 
L 398.487273 119.688838 
L 398.487273 119.688838 
" style="fill:none;stroke:#0d0d0d;stroke-linecap:square;stroke-opacity:0.25;stroke-width:2;"/>
   </g>
   <g id="patch_3">
    <path d="M 57.6 276.48 
L 57.6 41.472 
" style="fill:none;stroke:#000000;stroke-linecap:square;stroke-linejoin:miter;stroke-width:0.8;"/>
   </g>
   <g id="patch_4">
    <path d="M 414.72 276.48 
L 414.72 41.472 
" style="fill:none;stroke:#000000;stroke-linecap:square;stroke-linejoin:miter;stroke-width:0.8;"/>
   </g>
   <g id="patch_5">
    <path d="M 57.6 276.48 
L 414.72 276.48 
" style="fill:none;stroke:#000000;stroke-linecap:square;stroke-linejoin:miter;stroke-width:0.8;"/>
   </g>
   <g id="patch_6">
    <path d="M 57.6 41.472 
L 414.72 41.472 
" style="fill:none;stroke:#000000;stroke-linecap:square;stroke-linejoin:miter;stroke-width:0.8;"/>
   </g>
   <g id="text_19">
    <!-- TESTFUNDS1330 -->
    <g transform="translate(185.200312 22.034625)scale(0.12 -0.12)">
     <defs>
      <path d="M -19 4666 
L 3928 4666 
L 3928 4134 
L 2272 4134 
L 2272 0 
L 1638 0 
L 1638 4134 
L -19 4134 
L -19 4666 
z
" id="DejaVuSans-54" transform="scale(0.015625)"/>
      <path d="M 628 4666 
L 3578 4666 
L 3578 4134 
L 1259 4134 
L 1259 2753 
L 3481 2753 
L 3481 2222 
L 1259 2222 
L 1259 531 
L 3634 531 
L 3634 0 
L 628 0 
L 628 4666 
z
" id="DejaVuSans-45" transform="scale(0.015625)"/>
      <path d="M 3425 4513 
L 3425 3897 
Q 3066 4069 2747 4153 
Q 2428 4238 2131 4238 
Q 1616 4238 1336 4038 
Q 1056 3838 1056 3469 
Q 1056 3159 1242 3001 
Q 1428 2844 1947 2747 
L 2328 2669 
Q 3034 2534 3370 2195 
Q 3706 1856 3706 1288 
Q 3706 609 3251 259 
Q 2797 -91 1919 -91 
Q 1588 -91 1214 -16 
Q 841 59 441 206 
L 441 856 
Q 825 641 1194 531 
Q 1563 422 1919 422 
Q 2459 422 2753 634 
Q 3047 847 3047 1241 
Q 3047 1584 2836 1778 
Q 2625 1972 2144 2069 
L 1759 2144 
Q 1053 2284 737 2584 
Q 422 2884 422 3419 
Q 422 4038 858 4394 
Q 1294 4750 2059 4750 
Q 2388 4750 2728 4690 
Q 3069 4631 3425 4513 
z
" id="DejaVuSans-53" transform="scale(0.015625)"/>
      <path d="M 628 4666 
L 3309 4666 
L 3309 4134 
L 1259 4134 
L 1259 2759 
L 3109 2759 
L 3109 2228 
L 1259 2228 
L 1259 0 
L 628 0 
L 628 4666 
z
" id="DejaVuSans-46" transform="scale(0.015625)"/>
      <path d="M 556 4666 
L 1191 4666 
L 1191 1831 
Q 1191 1081 1462 751 
Q 1734 422 2344 422 
Q 2950 422 3222 751 
Q 3494 1081 3494 1831 
L 3494 4666 
L 4128 4666 
L 4128 1753 
Q 4128 841 3676 375 
Q 3225 -91 2344 -91 
Q 1459 -91 1007 375 
Q 556 841 556 1753 
L 556 4666 
z
" id="DejaVuSans-55" transform="scale(0.015625)"/>
      <path d="M 628 4666 
L 1478 4666 
L 3547 763 
L 3547 4666 
L 4159 4666 
L 4159 0 
L 3309 0 
L 1241 3903 
L 1241 0 
L 628 0 
L 628 4666 
z
" id="DejaVuSans-4e" transform="scale(0.015625)"/>
      <path d="M 1259 4147 
L 1259 519 
L 2022 519 
Q 2988 519 3436 956 
Q 3884 1394 3884 2338 
Q 3884 3275 3436 3711 
Q 2988 4147 2022 4147 
L 1259 4147 
z
M 628 4666 
L 1925 4666 
Q 3281 4666 3915 4102 
Q 4550 3538 4550 2338 
Q 4550 1131 3912 565 
Q 3275 0 1925 0 
L 628 0 
L 628 4666 
z
" id="DejaVuSans-44" transform="scale(0.015625)"/>
     </defs>
     <use xlink:href="#DejaVuSans-54"/>
     <use x="61.083984" xlink:href="#DejaVuSans-45"/>
     <use x="124.267578" xlink:href="#DejaVuSans-53"/>
     <use x="187.744141" xlink:href="#DejaVuSans-54"/>
     <use x="248.828125" xlink:href="#DejaVuSans-46"/>
     <use x="306.347656" xlink:href="#DejaVuSans-55"/>
     <use x="379.541016" xlink:href="#DejaVuSans-4e"/>
     <use x="454.345703" xlink:href="#DejaVuSans-44"/>
     <use x="531.347656" xlink:href="#DejaVuSans-53"/>
     <use x="594.824219" xlink:href="#DejaVuSans-31"/>
     <use x="658.447266" xlink:href="#DejaVuSans-33"/>
     <use x="722.070312" xlink:href="#DejaVuSans-33"/>
     <use x="785.693359" xlink:href="#DejaVuSans-30"/>
    </g>
    <!-- daily_report -->
    <g transform="translate(200.466563 35.472)scale(0.12 -0.12)">
     <defs>
      <path d="M 603 3500 
L 1178 3500 
L 1178 0 
L 603 0 
L 603 3500 
z
M 603 4863 
L 1178 4863 
L 1178 4134 
L 603 4134 
L 603 4863 
z
" id="DejaVuSans-69" transform="scale(0.015625)"/>
      <path d="M 603 4863 
L 1178 4863 
L 1178 0 
L 603 0 
L 603 4863 
z
" id="DejaVuSans-6c" transform="scale(0.015625)"/>
      <path d="M 2059 -325 
Q 1816 -950 1584 -1140 
Q 1353 -1331 966 -1331 
L 506 -1331 
L 506 -850 
L 844 -850 
Q 1081 -850 1212 -737 
Q 1344 -625 1503 -206 
L 1606 56 
L 191 3500 
L 800 3500 
L 1894 763 
L 2988 3500 
L 3597 3500 
L 2059 -325 
z
" id="DejaVuSans-79" transform="scale(0.015625)"/>
      <path d="M 3263 -1063 
L 3263 -1509 
L -63 -1509 
L -63 -1063 
L 3263 -1063 
z
" id="DejaVuSans-5f" transform="scale(0.015625)"/>
      <path d="M 2631 2963 
Q 2534 3019 2420 3045 
Q 2306 3072 2169 3072 
Q 1681 3072 1420 2755 
Q 1159 2438 1159 1844 
L 1159 0 
L 581 0 
L 581 3500 
L 1159 3500 
L 1159 2956 
Q 1341 3275 1631 3429 
Q 1922 3584 2338 3584 
Q 2397 3584 2469 3576 
Q 2541 3569 2628 3553 
L 2631 2963 
z
" id="DejaVuSans-72" transform="scale(0.015625)"/>
      <path d="M 1159 525 
L 1159 -1331 
L 581 -1331 
L 581 3500 
L 1159 3500 
L 1159 2969 
Q 1341 3281 1617 3432 
Q 1894 3584 2278 3584 
Q 2916 3584 3314 3078 
Q 3713 2572 3713 1747 
Q 3713 922 3314 415 
Q 2916 -91 2278 -91 
Q 1894 -91 1617 61 
Q 1341 213 1159 525 
z
M 3116 1747 
Q 3116 2381 2855 2742 
Q 2594 3103 2138 3103 
Q 1681 3103 1420 2742 
Q 1159 2381 1159 1747 
Q 1159 1113 1420 752 
Q 1681 391 2138 391 
Q 2594 391 2855 752 
Q 3116 1113 3116 1747 
z
" id="DejaVuSans-70" transform="scale(0.015625)"/>
      <path d="M 1959 3097 
Q 1497 3097 1228 2736 
Q 959 2375 959 1747 
Q 959 1119 1226 758 
Q 1494 397 1959 397 
Q 2419 397 2687 759 
Q 2956 1122 2956 1747 
Q 2956 2369 2687 2733 
Q 2419 3097 1959 3097 
z
M 1959 3584 
Q 2709 3584 3137 3096 
Q 3566 2609 3566 1747 
Q 3566 888 3137 398 
Q 2709 -91 1959 -91 
Q 1206 -91 779 398 
Q 353 888 353 1747 
Q 353 2609 779 3096 
Q 1206 3584 1959 3584 
z
" id="DejaVuSans-6f" transform="scale(0.015625)"/>
     </defs>
     <use xlink:href="#DejaVuSans-64"/>
     <use x="63.476562" xlink:href="#DejaVuSans-61"/>
     <use x="124.755859" xlink:href="#DejaVuSans-69"/>
     <use x="152.539062" xlink:href="#DejaVuSans-6c"/>
     <use x="180.322266" xlink:href="#DejaVuSans-79"/>
     <use x="239.501953" xlink:href="#DejaVuSans-5f"/>
     <use x="289.501953" xlink:href="#DejaVuSans-72"/>
     <use x="328.365234" xlink:href="#DejaVuSans-65"/>
     <use x="389.888672" xlink:href="#DejaVuSans-70"/>
     <use x="453.365234" xlink:href="#DejaVuSans-6f"/>
     <use x="514.546875" xlink:href="#DejaVuSans-72"/>
     <use x="555.660156" xlink:href="#DejaVuSans-74"/>
    </g>
   </g>
   <g id="legend_1">
    <g id="patch_7">
     <path d="M 64.6 271.48 
L 155.792188 271.48 
Q 157.792188 271.48 157.792188 269.48 
L 157.792188 197.089375 
Q 157.792188 195.089375 155.792188 195.089375 
L 64.6 195.089375 
Q 62.6 195.089375 62.6 197.089375 
L 62.6 269.48 
Q 62.6 271.48 64.6 271.48 
z
" style="fill:#ffffff;opacity:0.8;stroke:#cccccc;stroke-linejoin:miter;"/>
    </g>
    <g id="line2d_23">
     <path d="M 66.6 203.187812 
L 86.6 203.187812 
" style="fill:none;stroke:#0000ff;stroke-linecap:square;stroke-opacity:0.9;stroke-width:2;"/>
    </g>
    <g id="line2d_24"/>
    <g id="text_20">
     <!-- alpaca -->
     <g transform="translate(94.6 206.687812)scale(0.1 -0.1)">
      <defs>
       <path d="M 3122 3366 
L 3122 2828 
Q 2878 2963 2633 3030 
Q 2388 3097 2138 3097 
Q 1578 3097 1268 2742 
Q 959 2388 959 1747 
Q 959 1106 1268 751 
Q 1578 397 2138 397 
Q 2388 397 2633 464 
Q 2878 531 3122 666 
L 3122 134 
Q 2881 22 2623 -34 
Q 2366 -91 2075 -91 
Q 1284 -91 818 406 
Q 353 903 353 1747 
Q 353 2603 823 3093 
Q 1294 3584 2113 3584 
Q 2378 3584 2631 3529 
Q 2884 3475 3122 3366 
z
" id="DejaVuSans-63" transform="scale(0.015625)"/>
      </defs>
      <use xlink:href="#DejaVuSans-61"/>
      <use x="61.279297" xlink:href="#DejaVuSans-6c"/>
      <use x="89.0625" xlink:href="#DejaVuSans-70"/>
      <use x="152.539062" xlink:href="#DejaVuSans-61"/>
      <use x="213.818359" xlink:href="#DejaVuSans-63"/>
      <use x="268.798828" xlink:href="#DejaVuSans-61"/>
     </g>
    </g>
    <g id="line2d_25">
     <path d="M 66.6 217.865937 
L 86.6 217.865937 
" style="fill:none;stroke:#ff0000;stroke-linecap:square;stroke-opacity:0.9;stroke-width:2;"/>
    </g>
    <g id="line2d_26"/>
    <g id="text_21">
     <!-- mattress -->
     <g transform="translate(94.6 221.365937)scale(0.1 -0.1)">
      <defs>
       <path d="M 3328 2828 
Q 3544 3216 3844 3400 
Q 4144 3584 4550 3584 
Q 5097 3584 5394 3201 
Q 5691 2819 5691 2113 
L 5691 0 
L 5113 0 
L 5113 2094 
Q 5113 2597 4934 2840 
Q 4756 3084 4391 3084 
Q 3944 3084 3684 2787 
Q 3425 2491 3425 1978 
L 3425 0 
L 2847 0 
L 2847 2094 
Q 2847 2600 2669 2842 
Q 2491 3084 2119 3084 
Q 1678 3084 1418 2786 
Q 1159 2488 1159 1978 
L 1159 0 
L 581 0 
L 581 3500 
L 1159 3500 
L 1159 2956 
Q 1356 3278 1631 3431 
Q 1906 3584 2284 3584 
Q 2666 3584 2933 3390 
Q 3200 3197 3328 2828 
z
" id="DejaVuSans-6d" transform="scale(0.015625)"/>
       <path d="M 2834 3397 
L 2834 2853 
Q 2591 2978 2328 3040 
Q 2066 3103 1784 3103 
Q 1356 3103 1142 2972 
Q 928 2841 928 2578 
Q 928 2378 1081 2264 
Q 1234 2150 1697 2047 
L 1894 2003 
Q 2506 1872 2764 1633 
Q 3022 1394 3022 966 
Q 3022 478 2636 193 
Q 2250 -91 1575 -91 
Q 1294 -91 989 -36 
Q 684 19 347 128 
L 347 722 
Q 666 556 975 473 
Q 1284 391 1588 391 
Q 1994 391 2212 530 
Q 2431 669 2431 922 
Q 2431 1156 2273 1281 
Q 2116 1406 1581 1522 
L 1381 1569 
Q 847 1681 609 1914 
Q 372 2147 372 2553 
Q 372 3047 722 3315 
Q 1072 3584 1716 3584 
Q 2034 3584 2315 3537 
Q 2597 3491 2834 3397 
z
" id="DejaVuSans-73" transform="scale(0.015625)"/>
      </defs>
      <use xlink:href="#DejaVuSans-6d"/>
      <use x="97.412109" xlink:href="#DejaVuSans-61"/>
      <use x="158.691406" xlink:href="#DejaVuSans-74"/>
      <use x="197.900391" xlink:href="#DejaVuSans-74"/>
      <use x="237.109375" xlink:href="#DejaVuSans-72"/>
      <use x="275.972656" xlink:href="#DejaVuSans-65"/>
      <use x="337.496094" xlink:href="#DejaVuSans-73"/>
      <use x="389.595703" xlink:href="#DejaVuSans-73"/>
     </g>
    </g>
    <g id="line2d_27">
     <path d="M 66.6 232.544062 
L 86.6 232.544062 
" style="fill:none;stroke:#ff8040;stroke-linecap:square;stroke-opacity:0.9;stroke-width:2;"/>
    </g>
    <g id="line2d_28"/>
    <g id="text_22">
     <!-- trader-0850 -->
     <g transform="translate(94.6 236.044062)scale(0.1 -0.1)">
      <use xlink:href="#DejaVuSans-74"/>
      <use x="39.208984" xlink:href="#DejaVuSans-72"/>
      <use x="80.322266" xlink:href="#DejaVuSans-61"/>
      <use x="141.601562" xlink:href="#DejaVuSans-64"/>
      <use x="205.078125" xlink:href="#DejaVuSans-65"/>
      <use x="266.601562" xlink:href="#DejaVuSans-72"/>
      <use x="301.339844" xlink:href="#DejaVuSans-2d"/>
      <use x="337.423828" xlink:href="#DejaVuSans-30"/>
      <use x="401.046875" xlink:href="#DejaVuSans-38"/>
      <use x="464.669922" xlink:href="#DejaVuSans-35"/>
      <use x="528.292969" xlink:href="#DejaVuSans-30"/>
     </g>
    </g>
    <g id="line2d_29">
     <path d="M 66.6 247.222187 
L 86.6 247.222187 
" style="fill:none;stroke:#0d0d0d;stroke-linecap:square;stroke-opacity:0.25;stroke-width:2;"/>
    </g>
    <g id="line2d_30"/>
    <g id="text_23">
     <!-- rando-min -->
     <g transform="translate(94.6 250.722187)scale(0.1 -0.1)">
      <defs>
       <path d="M 3513 2113 
L 3513 0 
L 2938 0 
L 2938 2094 
Q 2938 2591 2744 2837 
Q 2550 3084 2163 3084 
Q 1697 3084 1428 2787 
Q 1159 2491 1159 1978 
L 1159 0 
L 581 0 
L 581 3500 
L 1159 3500 
L 1159 2956 
Q 1366 3272 1645 3428 
Q 1925 3584 2291 3584 
Q 2894 3584 3203 3211 
Q 3513 2838 3513 2113 
z
" id="DejaVuSans-6e" transform="scale(0.015625)"/>
      </defs>
      <use xlink:href="#DejaVuSans-72"/>
      <use x="41.113281" xlink:href="#DejaVuSans-61"/>
      <use x="102.392578" xlink:href="#DejaVuSans-6e"/>
      <use x="165.771484" xlink:href="#DejaVuSans-64"/>
      <use x="229.248047" xlink:href="#DejaVuSans-6f"/>
      <use x="292.304688" xlink:href="#DejaVuSans-2d"/>
      <use x="328.388672" xlink:href="#DejaVuSans-6d"/>
      <use x="425.800781" xlink:href="#DejaVuSans-69"/>
      <use x="453.583984" xlink:href="#DejaVuSans-6e"/>
     </g>
    </g>
    <g id="line2d_31">
     <path d="M 66.6 261.900312 
L 86.6 261.900312 
" style="fill:none;stroke:#0d0d0d;stroke-linecap:square;stroke-opacity:0.25;stroke-width:2;"/>
    </g>
    <g id="line2d_32"/>
    <g id="text_24">
     <!-- rando-max -->
     <g transform="translate(94.6 265.400312)scale(0.1 -0.1)">
      <defs>
       <path d="M 3513 3500 
L 2247 1797 
L 3578 0 
L 2900 0 
L 1881 1375 
L 863 0 
L 184 0 
L 1544 1831 
L 300 3500 
L 978 3500 
L 1906 2253 
L 2834 3500 
L 3513 3500 
z
" id="DejaVuSans-78" transform="scale(0.015625)"/>
      </defs>
      <use xlink:href="#DejaVuSans-72"/>
      <use x="41.113281" xlink:href="#DejaVuSans-61"/>
      <use x="102.392578" xlink:href="#DejaVuSans-6e"/>
      <use x="165.771484" xlink:href="#DejaVuSans-64"/>
      <use x="229.248047" xlink:href="#DejaVuSans-6f"/>
      <use x="292.304688" xlink:href="#DejaVuSans-2d"/>
      <use x="328.388672" xlink:href="#DejaVuSans-6d"/>
      <use x="425.800781" xlink:href="#DejaVuSans-61"/>
      <use x="487.080078" xlink:href="#DejaVuSans-78"/>
     </g>
    </g>
   </g>
  </g>
 </g>
 <defs>
  <clipPath id="p68a0833874">
   <rect height="235.008" width="357.12" x="57.6" y="41.472"/>
  </clipPath>
 </defs>
</svg>
