<?xml version="1.0" encoding="utf-8" standalone="no"?>
<!DOCTYPE svg PUBLIC "-//W3C//DTD SVG 1.1//EN"
  "http://www.w3.org/Graphics/SVG/1.1/DTD/svg11.dtd">
<svg height="345.6pt" version="1.1" viewBox="0 0 460.8 345.6" width="460.8pt" xmlns="http://www.w3.org/2000/svg" xmlns:xlink="http://www.w3.org/1999/xlink">
 <metadata>
  <rdf:RDF xmlns:cc="http://creativecommons.org/ns#" xmlns:dc="http://purl.org/dc/elements/1.1/" xmlns:rdf="http://www.w3.org/1999/02/22-rdf-syntax-ns#">
   <cc:Work>
    <dc:type rdf:resource="http://purl.org/dc/dcmitype/StillImage"/>
    <dc:date>2022-01-11T01:01:54.147270</dc:date>
    <dc:format>image/svg+xml</dc:format>
    <dc:creator>
     <cc:Agent>
      <dc:title>Matplotlib v3.4.3, https://matplotlib.org/</dc:title>
     </cc:Agent>
    </dc:creator>
   </cc:Work>
  </rdf:RDF>
 </metadata>
 <defs>
  <style type="text/css">*{stroke-linecap:butt;stroke-linejoin:round;}</style>
 </defs>
 <g id="figure_1">
  <g id="patch_1">
   <path d="M 0 345.6 
L 460.8 345.6 
L 460.8 0 
L 0 0 
z
" style="fill:#ffffff;"/>
  </g>
  <g id="axes_1">
   <g id="patch_2">
    <path d="M 57.6 276.48 
L 414.72 276.48 
L 414.72 41.472 
L 57.6 41.472 
z
" style="fill:#ffffff;"/>
   </g>
   <g id="matplotlib.axis_1">
    <g id="xtick_1">
     <g id="line2d_1">
      <defs>
       <path d="M 0 0 
L 0 3.5 
" id="mc5f9025e76" style="stroke:#000000;stroke-width:0.8;"/>
      </defs>
      <g>
       <use style="stroke:#000000;stroke-width:0.8;" x="94.703377" xlink:href="#mc5f9025e76" y="276.48"/>
      </g>
     </g>
     <g id="text_1">
      <!-- 2021-09 -->
      <g transform="translate(57.478556 310.951846)rotate(-30)scale(0.1 -0.1)">
       <defs>
        <path d="M 1228 531 
L 3431 531 
L 3431 0 
L 469 0 
L 469 531 
Q 828 903 1448 1529 
Q 2069 2156 2228 2338 
Q 2531 2678 2651 2914 
Q 2772 3150 2772 3378 
Q 2772 3750 2511 3984 
Q 2250 4219 1831 4219 
Q 1534 4219 1204 4116 
Q 875 4013 500 3803 
L 500 4441 
Q 881 4594 1212 4672 
Q 1544 4750 1819 4750 
Q 2544 4750 2975 4387 
Q 3406 4025 3406 3419 
Q 3406 3131 3298 2873 
Q 3191 2616 2906 2266 
Q 2828 2175 2409 1742 
Q 1991 1309 1228 531 
z
" id="DejaVuSans-32" transform="scale(0.015625)"/>
        <path d="M 2034 4250 
Q 1547 4250 1301 3770 
Q 1056 3291 1056 2328 
Q 1056 1369 1301 889 
Q 1547 409 2034 409 
Q 2525 409 2770 889 
Q 3016 1369 3016 2328 
Q 3016 3291 2770 3770 
Q 2525 4250 2034 4250 
z
M 2034 4750 
Q 2819 4750 3233 4129 
Q 3647 3509 3647 2328 
Q 3647 1150 3233 529 
Q 2819 -91 2034 -91 
Q 1250 -91 836 529 
Q 422 1150 422 2328 
Q 422 3509 836 4129 
Q 1250 4750 2034 4750 
z
" id="DejaVuSans-30" transform="scale(0.015625)"/>
        <path d="M 794 531 
L 1825 531 
L 1825 4091 
L 703 3866 
L 703 4441 
L 1819 4666 
L 2450 4666 
L 2450 531 
L 3481 531 
L 3481 0 
L 794 0 
L 794 531 
z
" id="DejaVuSans-31" transform="scale(0.015625)"/>
        <path d="M 313 2009 
L 1997 2009 
L 1997 1497 
L 313 1497 
L 313 2009 
z
" id="DejaVuSans-2d" transform="scale(0.015625)"/>
        <path d="M 703 97 
L 703 672 
Q 941 559 1184 500 
Q 1428 441 1663 441 
Q 2288 441 2617 861 
Q 2947 1281 2994 2138 
Q 2813 1869 2534 1725 
Q 2256 1581 1919 1581 
Q 1219 1581 811 2004 
Q 403 2428 403 3163 
Q 403 3881 828 4315 
Q 1253 4750 1959 4750 
Q 2769 4750 3195 4129 
Q 3622 3509 3622 2328 
Q 3622 1225 3098 567 
Q 2575 -91 1691 -91 
Q 1453 -91 1209 -44 
Q 966 3 703 97 
z
M 1959 2075 
Q 2384 2075 2632 2365 
Q 2881 2656 2881 3163 
Q 2881 3666 2632 3958 
Q 2384 4250 1959 4250 
Q 1534 4250 1286 3958 
Q 1038 3666 1038 3163 
Q 1038 2656 1286 2365 
Q 1534 2075 1959 2075 
z
" id="DejaVuSans-39" transform="scale(0.015625)"/>
       </defs>
       <use xlink:href="#DejaVuSans-32"/>
       <use x="63.623047" xlink:href="#DejaVuSans-30"/>
       <use x="127.246094" xlink:href="#DejaVuSans-32"/>
       <use x="190.869141" xlink:href="#DejaVuSans-31"/>
       <use x="254.492188" xlink:href="#DejaVuSans-2d"/>
       <use x="290.576172" xlink:href="#DejaVuSans-30"/>
       <use x="354.199219" xlink:href="#DejaVuSans-39"/>
      </g>
     </g>
    </g>
    <g id="xtick_2">
     <g id="line2d_2">
      <g>
       <use style="stroke:#000000;stroke-width:0.8;" x="164.272208" xlink:href="#mc5f9025e76" y="276.48"/>
      </g>
     </g>
     <g id="text_2">
      <!-- 2021-10 -->
      <g transform="translate(127.047387 310.951846)rotate(-30)scale(0.1 -0.1)">
       <use xlink:href="#DejaVuSans-32"/>
       <use x="63.623047" xlink:href="#DejaVuSans-30"/>
       <use x="127.246094" xlink:href="#DejaVuSans-32"/>
       <use x="190.869141" xlink:href="#DejaVuSans-31"/>
       <use x="254.492188" xlink:href="#DejaVuSans-2d"/>
       <use x="290.576172" xlink:href="#DejaVuSans-31"/>
       <use x="354.199219" xlink:href="#DejaVuSans-30"/>
      </g>
     </g>
    </g>
    <g id="xtick_3">
     <g id="line2d_3">
      <g>
       <use style="stroke:#000000;stroke-width:0.8;" x="236.16" xlink:href="#mc5f9025e76" y="276.48"/>
      </g>
     </g>
     <g id="text_3">
      <!-- 2021-11 -->
      <g transform="translate(198.935179 310.951846)rotate(-30)scale(0.1 -0.1)">
       <use xlink:href="#DejaVuSans-32"/>
       <use x="63.623047" xlink:href="#DejaVuSans-30"/>
       <use x="127.246094" xlink:href="#DejaVuSans-32"/>
       <use x="190.869141" xlink:href="#DejaVuSans-31"/>
       <use x="254.492188" xlink:href="#DejaVuSans-2d"/>
       <use x="290.576172" xlink:href="#DejaVuSans-31"/>
       <use x="354.199219" xlink:href="#DejaVuSans-31"/>
      </g>
     </g>
    </g>
    <g id="xtick_4">
     <g id="line2d_4">
      <g>
       <use style="stroke:#000000;stroke-width:0.8;" x="305.728831" xlink:href="#mc5f9025e76" y="276.48"/>
      </g>
     </g>
     <g id="text_4">
      <!-- 2021-12 -->
      <g transform="translate(268.50401 310.951846)rotate(-30)scale(0.1 -0.1)">
       <use xlink:href="#DejaVuSans-32"/>
       <use x="63.623047" xlink:href="#DejaVuSans-30"/>
       <use x="127.246094" xlink:href="#DejaVuSans-32"/>
       <use x="190.869141" xlink:href="#DejaVuSans-31"/>
       <use x="254.492188" xlink:href="#DejaVuSans-2d"/>
       <use x="290.576172" xlink:href="#DejaVuSans-31"/>
       <use x="354.199219" xlink:href="#DejaVuSans-32"/>
      </g>
     </g>
    </g>
    <g id="xtick_5">
     <g id="line2d_5">
      <g>
       <use style="stroke:#000000;stroke-width:0.8;" x="377.616623" xlink:href="#mc5f9025e76" y="276.48"/>
      </g>
     </g>
     <g id="text_5">
      <!-- 2022-01 -->
      <g transform="translate(340.391803 310.951846)rotate(-30)scale(0.1 -0.1)">
       <use xlink:href="#DejaVuSans-32"/>
       <use x="63.623047" xlink:href="#DejaVuSans-30"/>
       <use x="127.246094" xlink:href="#DejaVuSans-32"/>
       <use x="190.869141" xlink:href="#DejaVuSans-32"/>
       <use x="254.492188" xlink:href="#DejaVuSans-2d"/>
       <use x="290.576172" xlink:href="#DejaVuSans-30"/>
       <use x="354.199219" xlink:href="#DejaVuSans-31"/>
      </g>
     </g>
    </g>
    <g id="text_6">
     <!-- date -->
     <g transform="translate(224.885 324.351346)scale(0.1 -0.1)">
      <defs>
       <path d="M 2906 2969 
L 2906 4863 
L 3481 4863 
L 3481 0 
L 2906 0 
L 2906 525 
Q 2725 213 2448 61 
Q 2172 -91 1784 -91 
Q 1150 -91 751 415 
Q 353 922 353 1747 
Q 353 2572 751 3078 
Q 1150 3584 1784 3584 
Q 2172 3584 2448 3432 
Q 2725 3281 2906 2969 
z
M 947 1747 
Q 947 1113 1208 752 
Q 1469 391 1925 391 
Q 2381 391 2643 752 
Q 2906 1113 2906 1747 
Q 2906 2381 2643 2742 
Q 2381 3103 1925 3103 
Q 1469 3103 1208 2742 
Q 947 2381 947 1747 
z
" id="DejaVuSans-64" transform="scale(0.015625)"/>
       <path d="M 2194 1759 
Q 1497 1759 1228 1600 
Q 959 1441 959 1056 
Q 959 750 1161 570 
Q 1363 391 1709 391 
Q 2188 391 2477 730 
Q 2766 1069 2766 1631 
L 2766 1759 
L 2194 1759 
z
M 3341 1997 
L 3341 0 
L 2766 0 
L 2766 531 
Q 2569 213 2275 61 
Q 1981 -91 1556 -91 
Q 1019 -91 701 211 
Q 384 513 384 1019 
Q 384 1609 779 1909 
Q 1175 2209 1959 2209 
L 2766 2209 
L 2766 2266 
Q 2766 2663 2505 2880 
Q 2244 3097 1772 3097 
Q 1472 3097 1187 3025 
Q 903 2953 641 2809 
L 641 3341 
Q 956 3463 1253 3523 
Q 1550 3584 1831 3584 
Q 2591 3584 2966 3190 
Q 3341 2797 3341 1997 
z
" id="DejaVuSans-61" transform="scale(0.015625)"/>
       <path d="M 1172 4494 
L 1172 3500 
L 2356 3500 
L 2356 3053 
L 1172 3053 
L 1172 1153 
Q 1172 725 1289 603 
Q 1406 481 1766 481 
L 2356 481 
L 2356 0 
L 1766 0 
Q 1100 0 847 248 
Q 594 497 594 1153 
L 594 3053 
L 172 3053 
L 172 3500 
L 594 3500 
L 594 4494 
L 1172 4494 
z
" id="DejaVuSans-74" transform="scale(0.015625)"/>
       <path d="M 3597 1894 
L 3597 1613 
L 953 1613 
Q 991 1019 1311 708 
Q 1631 397 2203 397 
Q 2534 397 2845 478 
Q 3156 559 3463 722 
L 3463 178 
Q 3153 47 2828 -22 
Q 2503 -91 2169 -91 
Q 1331 -91 842 396 
Q 353 884 353 1716 
Q 353 2575 817 3079 
Q 1281 3584 2069 3584 
Q 2775 3584 3186 3129 
Q 3597 2675 3597 1894 
z
M 3022 2063 
Q 3016 2534 2758 2815 
Q 2500 3097 2075 3097 
Q 1594 3097 1305 2825 
Q 1016 2553 972 2059 
L 3022 2063 
z
" id="DejaVuSans-65" transform="scale(0.015625)"/>
      </defs>
      <use xlink:href="#DejaVuSans-64"/>
      <use x="63.476562" xlink:href="#DejaVuSans-61"/>
      <use x="124.755859" xlink:href="#DejaVuSans-74"/>
      <use x="163.964844" xlink:href="#DejaVuSans-65"/>
     </g>
    </g>
   </g>
   <g id="matplotlib.axis_2">
    <g id="ytick_1">
     <g id="line2d_6">
      <defs>
       <path d="M 0 0 
L -3.5 0 
" id="m50059a5afa" style="stroke:#000000;stroke-width:0.8;"/>
      </defs>
      <g>
       <use style="stroke:#000000;stroke-width:0.8;" x="57.6" xlink:href="#m50059a5afa" y="255.309006"/>
      </g>
     </g>
     <g id="text_7">
      <!-- 95000 -->
      <g transform="translate(18.7875 259.108225)scale(0.1 -0.1)">
       <defs>
        <path d="M 691 4666 
L 3169 4666 
L 3169 4134 
L 1269 4134 
L 1269 2991 
Q 1406 3038 1543 3061 
Q 1681 3084 1819 3084 
Q 2600 3084 3056 2656 
Q 3513 2228 3513 1497 
Q 3513 744 3044 326 
Q 2575 -91 1722 -91 
Q 1428 -91 1123 -41 
Q 819 9 494 109 
L 494 744 
Q 775 591 1075 516 
Q 1375 441 1709 441 
Q 2250 441 2565 725 
Q 2881 1009 2881 1497 
Q 2881 1984 2565 2268 
Q 2250 2553 1709 2553 
Q 1456 2553 1204 2497 
Q 953 2441 691 2322 
L 691 4666 
z
" id="DejaVuSans-35" transform="scale(0.015625)"/>
       </defs>
       <use xlink:href="#DejaVuSans-39"/>
       <use x="63.623047" xlink:href="#DejaVuSans-35"/>
       <use x="127.246094" xlink:href="#DejaVuSans-30"/>
       <use x="190.869141" xlink:href="#DejaVuSans-30"/>
       <use x="254.492188" xlink:href="#DejaVuSans-30"/>
      </g>
     </g>
    </g>
    <g id="ytick_2">
     <g id="line2d_7">
      <g>
       <use style="stroke:#000000;stroke-width:0.8;" x="57.6" xlink:href="#m50059a5afa" y="204.757226"/>
      </g>
     </g>
     <g id="text_8">
      <!-- 100000 -->
      <g transform="translate(12.425 208.556445)scale(0.1 -0.1)">
       <use xlink:href="#DejaVuSans-31"/>
       <use x="63.623047" xlink:href="#DejaVuSans-30"/>
       <use x="127.246094" xlink:href="#DejaVuSans-30"/>
       <use x="190.869141" xlink:href="#DejaVuSans-30"/>
       <use x="254.492188" xlink:href="#DejaVuSans-30"/>
       <use x="318.115234" xlink:href="#DejaVuSans-30"/>
      </g>
     </g>
    </g>
    <g id="ytick_3">
     <g id="line2d_8">
      <g>
       <use style="stroke:#000000;stroke-width:0.8;" x="57.6" xlink:href="#m50059a5afa" y="154.205446"/>
      </g>
     </g>
     <g id="text_9">
      <!-- 105000 -->
      <g transform="translate(12.425 158.004665)scale(0.1 -0.1)">
       <use xlink:href="#DejaVuSans-31"/>
       <use x="63.623047" xlink:href="#DejaVuSans-30"/>
       <use x="127.246094" xlink:href="#DejaVuSans-35"/>
       <use x="190.869141" xlink:href="#DejaVuSans-30"/>
       <use x="254.492188" xlink:href="#DejaVuSans-30"/>
       <use x="318.115234" xlink:href="#DejaVuSans-30"/>
      </g>
     </g>
    </g>
    <g id="ytick_4">
     <g id="line2d_9">
      <g>
       <use style="stroke:#000000;stroke-width:0.8;" x="57.6" xlink:href="#m50059a5afa" y="103.653666"/>
      </g>
     </g>
     <g id="text_10">
      <!-- 110000 -->
      <g transform="translate(12.425 107.452884)scale(0.1 -0.1)">
       <use xlink:href="#DejaVuSans-31"/>
       <use x="63.623047" xlink:href="#DejaVuSans-31"/>
       <use x="127.246094" xlink:href="#DejaVuSans-30"/>
       <use x="190.869141" xlink:href="#DejaVuSans-30"/>
       <use x="254.492188" xlink:href="#DejaVuSans-30"/>
       <use x="318.115234" xlink:href="#DejaVuSans-30"/>
      </g>
     </g>
    </g>
    <g id="ytick_5">
     <g id="line2d_10">
      <g>
       <use style="stroke:#000000;stroke-width:0.8;" x="57.6" xlink:href="#m50059a5afa" y="53.101886"/>
      </g>
     </g>
     <g id="text_11">
      <!-- 115000 -->
      <g transform="translate(12.425 56.901104)scale(0.1 -0.1)">
       <use xlink:href="#DejaVuSans-31"/>
       <use x="63.623047" xlink:href="#DejaVuSans-31"/>
       <use x="127.246094" xlink:href="#DejaVuSans-35"/>
       <use x="190.869141" xlink:href="#DejaVuSans-30"/>
       <use x="254.492188" xlink:href="#DejaVuSans-30"/>
       <use x="318.115234" xlink:href="#DejaVuSans-30"/>
      </g>
     </g>
    </g>
   </g>
   <g id="line2d_11">
    <path clip-path="url(#pc54cb89996)" d="M 73.832727 204.757226 
L 76.151688 204.610536 
L 78.470649 201.243094 
L 80.78961 206.694732 
L 83.108571 196.980212 
L 90.065455 190.663614 
L 92.384416 189.225371 
L 94.703377 191.662215 
L 97.022338 190.600663 
L 99.341299 190.780258 
L 108.617143 190.460496 
L 110.936104 194.823913 
L 113.255065 197.392973 
L 115.574026 206.758533 
L 122.530909 197.986452 
L 124.84987 212.354952 
L 127.168831 206.277985 
L 129.487792 208.30269 
L 131.806753 218.412577 
L 138.763636 236.551666 
L 141.082597 238.354435 
L 143.401558 230.750235 
L 145.720519 214.795757 
L 148.039481 206.951722 
L 154.996364 199.281912 
L 157.315325 220.261865 
L 159.634286 217.192605 
L 161.953247 224.65628 
L 164.272208 209.796223 
L 171.229091 228.877515 
L 173.548052 213.246921 
L 175.867013 209.598776 
L 178.185974 209.086244 
L 180.504935 208.291006 
L 187.461818 207.034192 
L 189.780779 206.317908 
L 192.09974 219.234242 
L 194.418701 199.203326 
L 196.737662 197.198903 
L 203.694545 189.060788 
L 206.013506 179.524158 
L 208.332468 174.804873 
L 210.651429 192.543368 
L 212.97039 205.741443 
L 219.927273 204.80253 
L 222.246234 213.996696 
L 224.565195 216.033836 
L 226.884156 203.430726 
L 229.203117 216.981453 
L 236.16 196.047382 
L 238.478961 196.934968 
L 240.797922 186.117688 
L 243.116883 198.982837 
L 245.435844 191.569692 
L 252.392727 191.077018 
L 254.711688 203.130447 
L 257.030649 203.685401 
L 259.34961 211.360533 
L 261.668571 203.836208 
L 268.625455 200.608867 
L 270.944416 200.656256 
L 273.263377 205.602783 
L 275.582338 208.349562 
L 277.901299 208.776268 
L 284.858182 202.669365 
L 287.177143 194.029742 
L 289.496104 195.418002 
L 294.134026 195.581939 
L 301.090909 204.003481 
L 303.40987 224.555361 
L 305.728831 237.671215 
L 308.047792 225.595404 
L 310.366753 231.395322 
L 317.323636 213.055899 
L 319.642597 195.3416 
L 321.961558 186.884647 
L 324.280519 187.122383 
L 326.599481 183.505358 
L 333.556364 193.405194 
L 335.875325 188.26352 
L 338.194286 182.655225 
L 340.513247 178.19945 
L 342.832208 190.93285 
L 349.789091 204.256164 
L 352.108052 180.46776 
L 354.427013 176.251403 
L 356.745974 166.404163 
L 366.021818 153.825138 
L 368.340779 153.705858 
L 370.65974 154.436356 
L 372.978701 155.572323 
L 375.297662 160.093851 
L 382.254545 144.651974 
L 384.573506 130.71346 
L 386.892468 158.921248 
L 389.211429 149.941676 
L 391.53039 146.209715 
L 398.487273 142.743942 
" style="fill:none;stroke:#0000ff;stroke-linecap:square;stroke-opacity:0.9;stroke-width:2;"/>
   </g>
   <g id="line2d_12">
    <path clip-path="url(#pc54cb89996)" d="M 73.832727 204.757226 
L 76.151688 199.160533 
L 78.470649 194.93606 
L 80.78961 201.120507 
L 83.108571 189.110069 
L 90.065455 185.04741 
L 92.384416 184.106122 
L 94.703377 184.173436 
L 97.022338 185.469315 
L 99.341299 184.921468 
L 108.617143 183.627648 
L 110.936104 187.753184 
L 113.255065 188.907328 
L 115.574026 199.972038 
L 122.530909 192.630729 
L 124.84987 202.514978 
L 127.168831 198.014474 
L 129.487792 201.019456 
L 131.806753 213.332106 
L 138.763636 230.101006 
L 141.082597 229.640068 
L 143.401558 224.07836 
L 145.720519 211.415543 
L 148.039481 204.238054 
L 154.996364 197.392813 
L 157.315325 217.359638 
L 159.634286 215.973383 
L 161.953247 225.468038 
L 164.272208 210.785271 
L 171.229091 221.859963 
L 173.548052 208.307343 
L 175.867013 205.468959 
L 178.185974 202.478495 
L 180.504935 198.157776 
L 187.461818 203.636459 
L 189.780779 211.295504 
L 192.09974 214.069338 
L 194.418701 189.556718 
L 196.737662 182.238995 
L 203.694545 180.574257 
L 206.013506 171.163642 
L 208.332468 165.385184 
L 210.651429 179.601752 
L 212.97039 184.775127 
L 219.927273 187.045173 
L 222.246234 192.671515 
L 224.565195 198.971352 
L 226.884156 184.550851 
L 229.203117 183.040242 
L 236.16 181.996728 
L 238.478961 178.648191 
L 240.797922 170.267394 
L 243.116883 172.688326 
L 245.435844 172.226251 
L 252.392727 171.58214 
L 254.711688 179.116954 
L 257.030649 184.947082 
L 259.34961 184.516008 
L 261.668571 177.957127 
L 268.625455 174.74641 
L 270.944416 177.360329 
L 273.263377 178.192384 
L 275.582338 178.554563 
L 277.901299 182.569086 
L 284.858182 177.451664 
L 287.177143 167.661529 
L 289.496104 167.268343 
L 294.134026 193.888039 
L 301.090909 182.788579 
L 303.40987 204.302292 
L 305.728831 215.965365 
L 308.047792 202.690781 
L 310.366753 210.738245 
L 317.323636 195.07904 
L 319.642597 177.860529 
L 321.961558 172.189386 
L 324.280519 172.463557 
L 326.599481 165.76283 
L 333.556364 176.564707 
L 335.875325 176.573898 
L 338.194286 167.87557 
L 340.513247 167.86879 
L 342.832208 181.525089 
L 349.789091 192.993774 
L 352.108052 173.277189 
L 354.427013 167.878027 
L 356.745974 158.771536 
L 366.021818 144.86793 
L 368.340779 145.431767 
L 370.65974 144.400946 
L 372.978701 146.298056 
L 375.297662 150.173063 
L 382.254545 139.25877 
L 384.573506 128.691313 
L 386.892468 151.61593 
L 389.211429 148.047329 
L 391.53039 141.833114 
L 398.487273 143.201587 
" style="fill:none;stroke:#ff0000;stroke-linecap:square;stroke-opacity:0.9;stroke-width:2;"/>
   </g>
   <g id="line2d_13">
    <path clip-path="url(#pc54cb89996)" d="M 73.832727 204.757226 
L 76.151688 199.510162 
L 78.470649 194.890129 
L 80.78961 200.780058 
L 83.108571 190.91403 
L 90.065455 184.6148 
L 92.384416 182.901317 
L 94.703377 185.616091 
L 97.022338 183.582971 
L 99.341299 184.275929 
L 108.617143 184.329239 
L 110.936104 187.98789 
L 113.255065 190.801446 
L 115.574026 200.001138 
L 122.530909 191.588957 
L 124.84987 205.857133 
L 127.168831 199.902645 
L 129.487792 201.298192 
L 131.806753 211.740791 
L 138.763636 228.332905 
L 141.082597 231.278075 
L 143.401558 223.776115 
L 145.720519 207.942309 
L 148.039481 199.490282 
L 154.996364 189.897191 
L 157.315325 211.979702 
L 159.634286 209.251684 
L 161.953247 216.401271 
L 164.272208 201.077812 
L 171.229091 219.629017 
L 173.548052 204.573911 
L 175.867013 200.506336 
L 178.185974 197.839253 
L 180.504935 193.082391 
L 187.461818 199.369327 
L 189.780779 207.126538 
L 192.09974 209.06804 
L 194.418701 189.452673 
L 196.737662 188.028182 
L 203.694545 179.268727 
L 206.013506 168.780516 
L 208.332468 164.545441 
L 210.651429 181.239455 
L 212.97039 194.468066 
L 219.927273 193.436206 
L 222.246234 202.885469 
L 224.565195 205.122646 
L 226.884156 192.408174 
L 229.203117 190.709442 
L 236.16 184.993122 
L 238.478961 183.199911 
L 240.797922 175.502213 
L 243.116883 174.567813 
L 245.435844 167.777128 
L 252.392727 166.761715 
L 254.711688 179.918789 
L 257.030649 187.195479 
L 259.34961 187.501027 
L 261.668571 179.593327 
L 268.625455 176.496957 
L 270.944416 181.980422 
L 273.263377 181.973155 
L 275.582338 184.614057 
L 277.901299 184.780365 
L 284.858182 178.483867 
L 287.177143 169.493067 
L 289.496104 170.933011 
L 294.134026 193.657183 
L 301.090909 180.456594 
L 303.40987 201.111931 
L 305.728831 215.309122 
L 308.047792 203.263746 
L 310.366753 209.490314 
L 317.323636 190.614209 
L 319.642597 172.152206 
L 321.961558 163.809433 
L 324.280519 163.37876 
L 326.599481 159.902801 
L 333.556364 170.095517 
L 335.875325 164.778788 
L 338.194286 159.034277 
L 340.513247 155.225767 
L 342.832208 167.592385 
L 349.789091 181.856983 
L 352.108052 156.749241 
L 354.427013 152.661823 
L 356.745974 142.38376 
L 366.021818 129.636807 
L 368.340779 129.542342 
L 370.65974 129.159556 
L 372.978701 130.78171 
L 375.297662 135.979101 
L 382.254545 119.66265 
L 384.573506 106.037246 
L 386.892468 133.916918 
L 389.211429 123.295332 
L 391.53039 119.540894 
L 398.487273 116.717996 
" style="fill:none;stroke:#ff8040;stroke-linecap:square;stroke-opacity:0.9;stroke-width:2;"/>
   </g>
   <g id="line2d_14">
    <path clip-path="url(#pc54cb89996)" d="M 73.832727 205.768261 
L 76.151688 203.004826 
L 78.470649 202.234771 
L 80.78961 209.801515 
L 83.108571 198.012849 
L 90.065455 195.259732 
L 92.384416 195.059211 
L 94.703377 194.947547 
L 97.022338 200.101678 
L 99.341299 200.097996 
L 108.617143 195.412932 
L 110.936104 200.386667 
L 113.255065 203.884429 
L 115.574026 213.904857 
L 122.530909 207.212477 
L 124.84987 219.287403 
L 127.168831 213.548491 
L 129.487792 217.69972 
L 131.806753 232.997035 
L 138.763636 250.96557 
L 141.082597 248.285322 
L 143.401558 247.339127 
L 145.720519 233.150815 
L 148.039481 226.503243 
L 154.996364 226.375874 
L 157.315325 248.944941 
L 159.634286 249.727493 
L 161.953247 259.595961 
L 164.272208 249.56628 
L 171.229091 261.594537 
L 173.548052 247.482985 
L 175.867013 244.564143 
L 178.185974 240.014607 
L 180.504935 235.440273 
L 187.461818 238.22123 
L 189.780779 247.98849 
L 192.09974 246.544588 
L 194.418701 222.245826 
L 196.737662 213.466365 
L 203.694545 214.533056 
L 206.013506 205.945944 
L 208.332468 201.378227 
L 210.651429 217.266558 
L 212.97039 221.807659 
L 219.927273 225.050371 
L 222.246234 229.396209 
L 224.565195 237.512851 
L 226.884156 222.836581 
L 229.203117 222.999728 
L 236.16 224.287747 
L 238.478961 221.906387 
L 240.797922 212.807605 
L 243.116883 216.168403 
L 245.435844 210.229818 
L 252.392727 209.985967 
L 254.711688 217.982227 
L 257.030649 224.337246 
L 259.34961 225.380472 
L 261.668571 227.115536 
L 268.625455 226.058338 
L 270.944416 230.217168 
L 273.263377 229.075608 
L 275.582338 224.684548 
L 277.901299 230.977928 
L 284.858182 221.144029 
L 287.177143 207.141545 
L 289.496104 207.553117 
L 294.134026 236.449091 
L 301.090909 230.389521 
L 303.40987 255.318337 
L 305.728831 265.797818 
L 308.047792 254.073089 
L 310.366753 261.242839 
L 317.323636 248.313672 
L 319.642597 233.608708 
L 321.961558 227.214859 
L 324.280519 228.172033 
L 326.599481 227.011224 
L 333.556364 233.561024 
L 335.875325 231.190288 
L 338.194286 224.836453 
L 340.513247 228.141695 
L 342.832208 243.129234 
L 349.789091 258.263954 
L 352.108052 241.077364 
L 354.427013 236.474753 
L 356.745974 230.031025 
L 366.021818 214.164121 
L 368.340779 214.303816 
L 370.65974 214.027644 
L 372.978701 215.853989 
L 375.297662 220.285011 
L 382.254545 209.175773 
L 384.573506 206.431151 
L 386.892468 226.487508 
L 389.211429 227.779143 
L 391.53039 219.957419 
L 398.487273 221.371255 
" style="fill:none;stroke:#0d0d0d;stroke-linecap:square;stroke-opacity:0.25;stroke-width:2;"/>
   </g>
   <g id="line2d_15">
    <path clip-path="url(#pc54cb89996)" d="M 73.832727 203.74619 
L 76.151688 195.281063 
L 78.470649 187.216286 
L 80.78961 192.072446 
L 83.108571 177.493519 
L 90.065455 169.538706 
L 92.384416 169.090518 
L 94.703377 168.944799 
L 97.022338 169.611333 
L 99.341299 168.734479 
L 108.617143 166.070888 
L 110.936104 168.528821 
L 113.255065 170.791623 
L 115.574026 180.57288 
L 122.530909 171.395608 
L 124.84987 181.253819 
L 127.168831 179.62374 
L 129.487792 181.924795 
L 131.806753 193.069732 
L 138.763636 209.431506 
L 141.082597 210.008062 
L 143.401558 201.793491 
L 145.720519 188.694408 
L 148.039481 180.589365 
L 154.996364 172.140576 
L 157.315325 193.492547 
L 159.634286 192.247303 
L 161.953247 202.364428 
L 164.272208 187.827695 
L 171.229091 197.349702 
L 173.548052 178.606653 
L 175.867013 176.727486 
L 178.185974 172.38712 
L 180.504935 167.589349 
L 187.461818 173.518341 
L 189.780779 179.911688 
L 192.09974 177.884662 
L 194.418701 153.606618 
L 196.737662 143.900438 
L 203.694545 143.810925 
L 206.013506 134.440423 
L 208.332468 125.665361 
L 210.651429 135.291005 
L 212.97039 141.573273 
L 219.927273 139.903153 
L 222.246234 146.927189 
L 224.565195 147.939714 
L 226.884156 135.24609 
L 229.203117 131.004923 
L 236.16 126.634354 
L 238.478961 125.570304 
L 240.797922 115.91648 
L 243.116883 120.430239 
L 245.435844 117.474014 
L 252.392727 116.166264 
L 254.711688 123.940853 
L 257.030649 132.878127 
L 259.34961 130.360315 
L 261.668571 122.410647 
L 268.625455 118.870513 
L 270.944416 122.774672 
L 273.263377 121.675128 
L 275.582338 117.681695 
L 277.901299 112.575254 
L 284.858182 113.085629 
L 287.177143 104.122862 
L 289.496104 103.616366 
L 294.134026 133.793451 
L 301.090909 120.294067 
L 303.40987 140.329908 
L 305.728831 153.28191 
L 308.047792 133.625101 
L 310.366753 139.218374 
L 317.323636 122.077315 
L 319.642597 105.919769 
L 321.961558 106.217926 
L 324.280519 105.824892 
L 326.599481 99.471453 
L 333.556364 106.566345 
L 335.875325 105.427227 
L 338.194286 97.264489 
L 340.513247 97.006161 
L 342.832208 110.06649 
L 349.789091 123.461293 
L 352.108052 105.79555 
L 354.427013 95.886773 
L 356.745974 84.685028 
L 366.021818 68.184866 
L 368.340779 70.648788 
L 370.65974 68.607156 
L 372.978701 68.731208 
L 375.297662 74.595011 
L 382.254545 60.078031 
L 384.573506 52.154182 
L 386.892468 73.413422 
L 389.211429 69.639024 
L 391.53039 63.941209 
L 398.487273 65.103047 
" style="fill:none;stroke:#0d0d0d;stroke-linecap:square;stroke-opacity:0.25;stroke-width:2;"/>
   </g>
   <g id="patch_3">
    <path d="M 57.6 276.48 
L 57.6 41.472 
" style="fill:none;stroke:#000000;stroke-linecap:square;stroke-linejoin:miter;stroke-width:0.8;"/>
   </g>
   <g id="patch_4">
    <path d="M 414.72 276.48 
L 414.72 41.472 
" style="fill:none;stroke:#000000;stroke-linecap:square;stroke-linejoin:miter;stroke-width:0.8;"/>
   </g>
   <g id="patch_5">
    <path d="M 57.6 276.48 
L 414.72 276.48 
" style="fill:none;stroke:#000000;stroke-linecap:square;stroke-linejoin:miter;stroke-width:0.8;"/>
   </g>
   <g id="patch_6">
    <path d="M 57.6 41.472 
L 414.72 41.472 
" style="fill:none;stroke:#000000;stroke-linecap:square;stroke-linejoin:miter;stroke-width:0.8;"/>
   </g>
   <g id="text_12">
    <!-- TESTFUNDS1550 -->
    <g transform="translate(185.200312 22.034625)scale(0.12 -0.12)">
     <defs>
      <path d="M -19 4666 
L 3928 4666 
L 3928 4134 
L 2272 4134 
L 2272 0 
L 1638 0 
L 1638 4134 
L -19 4134 
L -19 4666 
z
" id="DejaVuSans-54" transform="scale(0.015625)"/>
      <path d="M 628 4666 
L 3578 4666 
L 3578 4134 
L 1259 4134 
L 1259 2753 
L 3481 2753 
L 3481 2222 
L 1259 2222 
L 1259 531 
L 3634 531 
L 3634 0 
L 628 0 
L 628 4666 
z
" id="DejaVuSans-45" transform="scale(0.015625)"/>
      <path d="M 3425 4513 
L 3425 3897 
Q 3066 4069 2747 4153 
Q 2428 4238 2131 4238 
Q 1616 4238 1336 4038 
Q 1056 3838 1056 3469 
Q 1056 3159 1242 3001 
Q 1428 2844 1947 2747 
L 2328 2669 
Q 3034 2534 3370 2195 
Q 3706 1856 3706 1288 
Q 3706 609 3251 259 
Q 2797 -91 1919 -91 
Q 1588 -91 1214 -16 
Q 841 59 441 206 
L 441 856 
Q 825 641 1194 531 
Q 1563 422 1919 422 
Q 2459 422 2753 634 
Q 3047 847 3047 1241 
Q 3047 1584 2836 1778 
Q 2625 1972 2144 2069 
L 1759 2144 
Q 1053 2284 737 2584 
Q 422 2884 422 3419 
Q 422 4038 858 4394 
Q 1294 4750 2059 4750 
Q 2388 4750 2728 4690 
Q 3069 4631 3425 4513 
z
" id="DejaVuSans-53" transform="scale(0.015625)"/>
      <path d="M 628 4666 
L 3309 4666 
L 3309 4134 
L 1259 4134 
L 1259 2759 
L 3109 2759 
L 3109 2228 
L 1259 2228 
L 1259 0 
L 628 0 
L 628 4666 
z
" id="DejaVuSans-46" transform="scale(0.015625)"/>
      <path d="M 556 4666 
L 1191 4666 
L 1191 1831 
Q 1191 1081 1462 751 
Q 1734 422 2344 422 
Q 2950 422 3222 751 
Q 3494 1081 3494 1831 
L 3494 4666 
L 4128 4666 
L 4128 1753 
Q 4128 841 3676 375 
Q 3225 -91 2344 -91 
Q 1459 -91 1007 375 
Q 556 841 556 1753 
L 556 4666 
z
" id="DejaVuSans-55" transform="scale(0.015625)"/>
      <path d="M 628 4666 
L 1478 4666 
L 3547 763 
L 3547 4666 
L 4159 4666 
L 4159 0 
L 3309 0 
L 1241 3903 
L 1241 0 
L 628 0 
L 628 4666 
z
" id="DejaVuSans-4e" transform="scale(0.015625)"/>
      <path d="M 1259 4147 
L 1259 519 
L 2022 519 
Q 2988 519 3436 956 
Q 3884 1394 3884 2338 
Q 3884 3275 3436 3711 
Q 2988 4147 2022 4147 
L 1259 4147 
z
M 628 4666 
L 1925 4666 
Q 3281 4666 3915 4102 
Q 4550 3538 4550 2338 
Q 4550 1131 3912 565 
Q 3275 0 1925 0 
L 628 0 
L 628 4666 
z
" id="DejaVuSans-44" transform="scale(0.015625)"/>
     </defs>
     <use xlink:href="#DejaVuSans-54"/>
     <use x="61.083984" xlink:href="#DejaVuSans-45"/>
     <use x="124.267578" xlink:href="#DejaVuSans-53"/>
     <use x="187.744141" xlink:href="#DejaVuSans-54"/>
     <use x="248.828125" xlink:href="#DejaVuSans-46"/>
     <use x="306.347656" xlink:href="#DejaVuSans-55"/>
     <use x="379.541016" xlink:href="#DejaVuSans-4e"/>
     <use x="454.345703" xlink:href="#DejaVuSans-44"/>
     <use x="531.347656" xlink:href="#DejaVuSans-53"/>
     <use x="594.824219" xlink:href="#DejaVuSans-31"/>
     <use x="658.447266" xlink:href="#DejaVuSans-35"/>
     <use x="722.070312" xlink:href="#DejaVuSans-35"/>
     <use x="785.693359" xlink:href="#DejaVuSans-30"/>
    </g>
    <!-- daily_report -->
    <g transform="translate(200.466563 35.472)scale(0.12 -0.12)">
     <defs>
      <path d="M 603 3500 
L 1178 3500 
L 1178 0 
L 603 0 
L 603 3500 
z
M 603 4863 
L 1178 4863 
L 1178 4134 
L 603 4134 
L 603 4863 
z
" id="DejaVuSans-69" transform="scale(0.015625)"/>
      <path d="M 603 4863 
L 1178 4863 
L 1178 0 
L 603 0 
L 603 4863 
z
" id="DejaVuSans-6c" transform="scale(0.015625)"/>
      <path d="M 2059 -325 
Q 1816 -950 1584 -1140 
Q 1353 -1331 966 -1331 
L 506 -1331 
L 506 -850 
L 844 -850 
Q 1081 -850 1212 -737 
Q 1344 -625 1503 -206 
L 1606 56 
L 191 3500 
L 800 3500 
L 1894 763 
L 2988 3500 
L 3597 3500 
L 2059 -325 
z
" id="DejaVuSans-79" transform="scale(0.015625)"/>
      <path d="M 3263 -1063 
L 3263 -1509 
L -63 -1509 
L -63 -1063 
L 3263 -1063 
z
" id="DejaVuSans-5f" transform="scale(0.015625)"/>
      <path d="M 2631 2963 
Q 2534 3019 2420 3045 
Q 2306 3072 2169 3072 
Q 1681 3072 1420 2755 
Q 1159 2438 1159 1844 
L 1159 0 
L 581 0 
L 581 3500 
L 1159 3500 
L 1159 2956 
Q 1341 3275 1631 3429 
Q 1922 3584 2338 3584 
Q 2397 3584 2469 3576 
Q 2541 3569 2628 3553 
L 2631 2963 
z
" id="DejaVuSans-72" transform="scale(0.015625)"/>
      <path d="M 1159 525 
L 1159 -1331 
L 581 -1331 
L 581 3500 
L 1159 3500 
L 1159 2969 
Q 1341 3281 1617 3432 
Q 1894 3584 2278 3584 
Q 2916 3584 3314 3078 
Q 3713 2572 3713 1747 
Q 3713 922 3314 415 
Q 2916 -91 2278 -91 
Q 1894 -91 1617 61 
Q 1341 213 1159 525 
z
M 3116 1747 
Q 3116 2381 2855 2742 
Q 2594 3103 2138 3103 
Q 1681 3103 1420 2742 
Q 1159 2381 1159 1747 
Q 1159 1113 1420 752 
Q 1681 391 2138 391 
Q 2594 391 2855 752 
Q 3116 1113 3116 1747 
z
" id="DejaVuSans-70" transform="scale(0.015625)"/>
      <path d="M 1959 3097 
Q 1497 3097 1228 2736 
Q 959 2375 959 1747 
Q 959 1119 1226 758 
Q 1494 397 1959 397 
Q 2419 397 2687 759 
Q 2956 1122 2956 1747 
Q 2956 2369 2687 2733 
Q 2419 3097 1959 3097 
z
M 1959 3584 
Q 2709 3584 3137 3096 
Q 3566 2609 3566 1747 
Q 3566 888 3137 398 
Q 2709 -91 1959 -91 
Q 1206 -91 779 398 
Q 353 888 353 1747 
Q 353 2609 779 3096 
Q 1206 3584 1959 3584 
z
" id="DejaVuSans-6f" transform="scale(0.015625)"/>
     </defs>
     <use xlink:href="#DejaVuSans-64"/>
     <use x="63.476562" xlink:href="#DejaVuSans-61"/>
     <use x="124.755859" xlink:href="#DejaVuSans-69"/>
     <use x="152.539062" xlink:href="#DejaVuSans-6c"/>
     <use x="180.322266" xlink:href="#DejaVuSans-79"/>
     <use x="239.501953" xlink:href="#DejaVuSans-5f"/>
     <use x="289.501953" xlink:href="#DejaVuSans-72"/>
     <use x="328.365234" xlink:href="#DejaVuSans-65"/>
     <use x="389.888672" xlink:href="#DejaVuSans-70"/>
     <use x="453.365234" xlink:href="#DejaVuSans-6f"/>
     <use x="514.546875" xlink:href="#DejaVuSans-72"/>
     <use x="555.660156" xlink:href="#DejaVuSans-74"/>
    </g>
   </g>
   <g id="legend_1">
    <g id="patch_7">
     <path d="M 64.6 122.862625 
L 155.792188 122.862625 
Q 157.792188 122.862625 157.792188 120.862625 
L 157.792188 48.472 
Q 157.792188 46.472 155.792188 46.472 
L 64.6 46.472 
Q 62.6 46.472 62.6 48.472 
L 62.6 120.862625 
Q 62.6 122.862625 64.6 122.862625 
z
" style="fill:#ffffff;opacity:0.8;stroke:#cccccc;stroke-linejoin:miter;"/>
    </g>
    <g id="line2d_16">
     <path d="M 66.6 54.570437 
L 86.6 54.570437 
" style="fill:none;stroke:#0000ff;stroke-linecap:square;stroke-opacity:0.9;stroke-width:2;"/>
    </g>
    <g id="line2d_17"/>
    <g id="text_13">
     <!-- alpaca -->
     <g transform="translate(94.6 58.070437)scale(0.1 -0.1)">
      <defs>
       <path d="M 3122 3366 
L 3122 2828 
Q 2878 2963 2633 3030 
Q 2388 3097 2138 3097 
Q 1578 3097 1268 2742 
Q 959 2388 959 1747 
Q 959 1106 1268 751 
Q 1578 397 2138 397 
Q 2388 397 2633 464 
Q 2878 531 3122 666 
L 3122 134 
Q 2881 22 2623 -34 
Q 2366 -91 2075 -91 
Q 1284 -91 818 406 
Q 353 903 353 1747 
Q 353 2603 823 3093 
Q 1294 3584 2113 3584 
Q 2378 3584 2631 3529 
Q 2884 3475 3122 3366 
z
" id="DejaVuSans-63" transform="scale(0.015625)"/>
      </defs>
      <use xlink:href="#DejaVuSans-61"/>
      <use x="61.279297" xlink:href="#DejaVuSans-6c"/>
      <use x="89.0625" xlink:href="#DejaVuSans-70"/>
      <use x="152.539062" xlink:href="#DejaVuSans-61"/>
      <use x="213.818359" xlink:href="#DejaVuSans-63"/>
      <use x="268.798828" xlink:href="#DejaVuSans-61"/>
     </g>
    </g>
    <g id="line2d_18">
     <path d="M 66.6 69.248562 
L 86.6 69.248562 
" style="fill:none;stroke:#ff0000;stroke-linecap:square;stroke-opacity:0.9;stroke-width:2;"/>
    </g>
    <g id="line2d_19"/>
    <g id="text_14">
     <!-- mattress -->
     <g transform="translate(94.6 72.748562)scale(0.1 -0.1)">
      <defs>
       <path d="M 3328 2828 
Q 3544 3216 3844 3400 
Q 4144 3584 4550 3584 
Q 5097 3584 5394 3201 
Q 5691 2819 5691 2113 
L 5691 0 
L 5113 0 
L 5113 2094 
Q 5113 2597 4934 2840 
Q 4756 3084 4391 3084 
Q 3944 3084 3684 2787 
Q 3425 2491 3425 1978 
L 3425 0 
L 2847 0 
L 2847 2094 
Q 2847 2600 2669 2842 
Q 2491 3084 2119 3084 
Q 1678 3084 1418 2786 
Q 1159 2488 1159 1978 
L 1159 0 
L 581 0 
L 581 3500 
L 1159 3500 
L 1159 2956 
Q 1356 3278 1631 3431 
Q 1906 3584 2284 3584 
Q 2666 3584 2933 3390 
Q 3200 3197 3328 2828 
z
" id="DejaVuSans-6d" transform="scale(0.015625)"/>
       <path d="M 2834 3397 
L 2834 2853 
Q 2591 2978 2328 3040 
Q 2066 3103 1784 3103 
Q 1356 3103 1142 2972 
Q 928 2841 928 2578 
Q 928 2378 1081 2264 
Q 1234 2150 1697 2047 
L 1894 2003 
Q 2506 1872 2764 1633 
Q 3022 1394 3022 966 
Q 3022 478 2636 193 
Q 2250 -91 1575 -91 
Q 1294 -91 989 -36 
Q 684 19 347 128 
L 347 722 
Q 666 556 975 473 
Q 1284 391 1588 391 
Q 1994 391 2212 530 
Q 2431 669 2431 922 
Q 2431 1156 2273 1281 
Q 2116 1406 1581 1522 
L 1381 1569 
Q 847 1681 609 1914 
Q 372 2147 372 2553 
Q 372 3047 722 3315 
Q 1072 3584 1716 3584 
Q 2034 3584 2315 3537 
Q 2597 3491 2834 3397 
z
" id="DejaVuSans-73" transform="scale(0.015625)"/>
      </defs>
      <use xlink:href="#DejaVuSans-6d"/>
      <use x="97.412109" xlink:href="#DejaVuSans-61"/>
      <use x="158.691406" xlink:href="#DejaVuSans-74"/>
      <use x="197.900391" xlink:href="#DejaVuSans-74"/>
      <use x="237.109375" xlink:href="#DejaVuSans-72"/>
      <use x="275.972656" xlink:href="#DejaVuSans-65"/>
      <use x="337.496094" xlink:href="#DejaVuSans-73"/>
      <use x="389.595703" xlink:href="#DejaVuSans-73"/>
     </g>
    </g>
    <g id="line2d_20">
     <path d="M 66.6 83.926687 
L 86.6 83.926687 
" style="fill:none;stroke:#ff8040;stroke-linecap:square;stroke-opacity:0.9;stroke-width:2;"/>
    </g>
    <g id="line2d_21"/>
    <g id="text_15">
     <!-- trader-0850 -->
     <g transform="translate(94.6 87.426687)scale(0.1 -0.1)">
      <defs>
       <path d="M 2034 2216 
Q 1584 2216 1326 1975 
Q 1069 1734 1069 1313 
Q 1069 891 1326 650 
Q 1584 409 2034 409 
Q 2484 409 2743 651 
Q 3003 894 3003 1313 
Q 3003 1734 2745 1975 
Q 2488 2216 2034 2216 
z
M 1403 2484 
Q 997 2584 770 2862 
Q 544 3141 544 3541 
Q 544 4100 942 4425 
Q 1341 4750 2034 4750 
Q 2731 4750 3128 4425 
Q 3525 4100 3525 3541 
Q 3525 3141 3298 2862 
Q 3072 2584 2669 2484 
Q 3125 2378 3379 2068 
Q 3634 1759 3634 1313 
Q 3634 634 3220 271 
Q 2806 -91 2034 -91 
Q 1263 -91 848 271 
Q 434 634 434 1313 
Q 434 1759 690 2068 
Q 947 2378 1403 2484 
z
M 1172 3481 
Q 1172 3119 1398 2916 
Q 1625 2713 2034 2713 
Q 2441 2713 2670 2916 
Q 2900 3119 2900 3481 
Q 2900 3844 2670 4047 
Q 2441 4250 2034 4250 
Q 1625 4250 1398 4047 
Q 1172 3844 1172 3481 
z
" id="DejaVuSans-38" transform="scale(0.015625)"/>
      </defs>
      <use xlink:href="#DejaVuSans-74"/>
      <use x="39.208984" xlink:href="#DejaVuSans-72"/>
      <use x="80.322266" xlink:href="#DejaVuSans-61"/>
      <use x="141.601562" xlink:href="#DejaVuSans-64"/>
      <use x="205.078125" xlink:href="#DejaVuSans-65"/>
      <use x="266.601562" xlink:href="#DejaVuSans-72"/>
      <use x="301.339844" xlink:href="#DejaVuSans-2d"/>
      <use x="337.423828" xlink:href="#DejaVuSans-30"/>
      <use x="401.046875" xlink:href="#DejaVuSans-38"/>
      <use x="464.669922" xlink:href="#DejaVuSans-35"/>
      <use x="528.292969" xlink:href="#DejaVuSans-30"/>
     </g>
    </g>
    <g id="line2d_22">
     <path d="M 66.6 98.604812 
L 86.6 98.604812 
" style="fill:none;stroke:#0d0d0d;stroke-linecap:square;stroke-opacity:0.25;stroke-width:2;"/>
    </g>
    <g id="line2d_23"/>
    <g id="text_16">
     <!-- rando-min -->
     <g transform="translate(94.6 102.104812)scale(0.1 -0.1)">
      <defs>
       <path d="M 3513 2113 
L 3513 0 
L 2938 0 
L 2938 2094 
Q 2938 2591 2744 2837 
Q 2550 3084 2163 3084 
Q 1697 3084 1428 2787 
Q 1159 2491 1159 1978 
L 1159 0 
L 581 0 
L 581 3500 
L 1159 3500 
L 1159 2956 
Q 1366 3272 1645 3428 
Q 1925 3584 2291 3584 
Q 2894 3584 3203 3211 
Q 3513 2838 3513 2113 
z
" id="DejaVuSans-6e" transform="scale(0.015625)"/>
      </defs>
      <use xlink:href="#DejaVuSans-72"/>
      <use x="41.113281" xlink:href="#DejaVuSans-61"/>
      <use x="102.392578" xlink:href="#DejaVuSans-6e"/>
      <use x="165.771484" xlink:href="#DejaVuSans-64"/>
      <use x="229.248047" xlink:href="#DejaVuSans-6f"/>
      <use x="292.304688" xlink:href="#DejaVuSans-2d"/>
      <use x="328.388672" xlink:href="#DejaVuSans-6d"/>
      <use x="425.800781" xlink:href="#DejaVuSans-69"/>
      <use x="453.583984" xlink:href="#DejaVuSans-6e"/>
     </g>
    </g>
    <g id="line2d_24">
     <path d="M 66.6 113.282937 
L 86.6 113.282937 
" style="fill:none;stroke:#0d0d0d;stroke-linecap:square;stroke-opacity:0.25;stroke-width:2;"/>
    </g>
    <g id="line2d_25"/>
    <g id="text_17">
     <!-- rando-max -->
     <g transform="translate(94.6 116.782937)scale(0.1 -0.1)">
      <defs>
       <path d="M 3513 3500 
L 2247 1797 
L 3578 0 
L 2900 0 
L 1881 1375 
L 863 0 
L 184 0 
L 1544 1831 
L 300 3500 
L 978 3500 
L 1906 2253 
L 2834 3500 
L 3513 3500 
z
" id="DejaVuSans-78" transform="scale(0.015625)"/>
      </defs>
      <use xlink:href="#DejaVuSans-72"/>
      <use x="41.113281" xlink:href="#DejaVuSans-61"/>
      <use x="102.392578" xlink:href="#DejaVuSans-6e"/>
      <use x="165.771484" xlink:href="#DejaVuSans-64"/>
      <use x="229.248047" xlink:href="#DejaVuSans-6f"/>
      <use x="292.304688" xlink:href="#DejaVuSans-2d"/>
      <use x="328.388672" xlink:href="#DejaVuSans-6d"/>
      <use x="425.800781" xlink:href="#DejaVuSans-61"/>
      <use x="487.080078" xlink:href="#DejaVuSans-78"/>
     </g>
    </g>
   </g>
  </g>
 </g>
 <defs>
  <clipPath id="pc54cb89996">
   <rect height="235.008" width="357.12" x="57.6" y="41.472"/>
  </clipPath>
 </defs>
</svg>
