<?xml version="1.0" encoding="utf-8" standalone="no"?>
<!DOCTYPE svg PUBLIC "-//W3C//DTD SVG 1.1//EN"
  "http://www.w3.org/Graphics/SVG/1.1/DTD/svg11.dtd">
<svg height="345.6pt" version="1.1" viewBox="0 0 460.8 345.6" width="460.8pt" xmlns="http://www.w3.org/2000/svg" xmlns:xlink="http://www.w3.org/1999/xlink">
 <metadata>
  <rdf:RDF xmlns:cc="http://creativecommons.org/ns#" xmlns:dc="http://purl.org/dc/elements/1.1/" xmlns:rdf="http://www.w3.org/1999/02/22-rdf-syntax-ns#">
   <cc:Work>
    <dc:type rdf:resource="http://purl.org/dc/dcmitype/StillImage"/>
    <dc:date>2022-05-30T10:02:16.675347</dc:date>
    <dc:format>image/svg+xml</dc:format>
    <dc:creator>
     <cc:Agent>
      <dc:title>Matplotlib v3.4.3, https://matplotlib.org/</dc:title>
     </cc:Agent>
    </dc:creator>
   </cc:Work>
  </rdf:RDF>
 </metadata>
 <defs>
  <style type="text/css">*{stroke-linecap:butt;stroke-linejoin:round;}</style>
 </defs>
 <g id="figure_1">
  <g id="patch_1">
   <path d="M 0 345.6 
L 460.8 345.6 
L 460.8 0 
L 0 0 
z
" style="fill:#ffffff;"/>
  </g>
  <g id="axes_1">
   <g id="patch_2">
    <path d="M 57.6 276.48 
L 414.72 276.48 
L 414.72 41.472 
L 57.6 41.472 
z
" style="fill:#ffffff;"/>
   </g>
   <g id="matplotlib.axis_1">
    <g id="xtick_1">
     <g id="line2d_1">
      <defs>
       <path d="M 0 0 
L 0 3.5 
" id="m79d071c841" style="stroke:#000000;stroke-width:0.8;"/>
      </defs>
      <g>
       <use style="stroke:#000000;stroke-width:0.8;" x="96.045933" xlink:href="#m79d071c841" y="276.48"/>
      </g>
     </g>
     <g id="text_1">
      <!-- 2021-12 -->
      <g transform="translate(58.821112 310.951846)rotate(-30)scale(0.1 -0.1)">
       <defs>
        <path d="M 1228 531 
L 3431 531 
L 3431 0 
L 469 0 
L 469 531 
Q 828 903 1448 1529 
Q 2069 2156 2228 2338 
Q 2531 2678 2651 2914 
Q 2772 3150 2772 3378 
Q 2772 3750 2511 3984 
Q 2250 4219 1831 4219 
Q 1534 4219 1204 4116 
Q 875 4013 500 3803 
L 500 4441 
Q 881 4594 1212 4672 
Q 1544 4750 1819 4750 
Q 2544 4750 2975 4387 
Q 3406 4025 3406 3419 
Q 3406 3131 3298 2873 
Q 3191 2616 2906 2266 
Q 2828 2175 2409 1742 
Q 1991 1309 1228 531 
z
" id="DejaVuSans-32" transform="scale(0.015625)"/>
        <path d="M 2034 4250 
Q 1547 4250 1301 3770 
Q 1056 3291 1056 2328 
Q 1056 1369 1301 889 
Q 1547 409 2034 409 
Q 2525 409 2770 889 
Q 3016 1369 3016 2328 
Q 3016 3291 2770 3770 
Q 2525 4250 2034 4250 
z
M 2034 4750 
Q 2819 4750 3233 4129 
Q 3647 3509 3647 2328 
Q 3647 1150 3233 529 
Q 2819 -91 2034 -91 
Q 1250 -91 836 529 
Q 422 1150 422 2328 
Q 422 3509 836 4129 
Q 1250 4750 2034 4750 
z
" id="DejaVuSans-30" transform="scale(0.015625)"/>
        <path d="M 794 531 
L 1825 531 
L 1825 4091 
L 703 3866 
L 703 4441 
L 1819 4666 
L 2450 4666 
L 2450 531 
L 3481 531 
L 3481 0 
L 794 0 
L 794 531 
z
" id="DejaVuSans-31" transform="scale(0.015625)"/>
        <path d="M 313 2009 
L 1997 2009 
L 1997 1497 
L 313 1497 
L 313 2009 
z
" id="DejaVuSans-2d" transform="scale(0.015625)"/>
       </defs>
       <use xlink:href="#DejaVuSans-32"/>
       <use x="63.623047" xlink:href="#DejaVuSans-30"/>
       <use x="127.246094" xlink:href="#DejaVuSans-32"/>
       <use x="190.869141" xlink:href="#DejaVuSans-31"/>
       <use x="254.492188" xlink:href="#DejaVuSans-2d"/>
       <use x="290.576172" xlink:href="#DejaVuSans-31"/>
       <use x="354.199219" xlink:href="#DejaVuSans-32"/>
      </g>
     </g>
    </g>
    <g id="xtick_2">
     <g id="line2d_2">
      <g>
       <use style="stroke:#000000;stroke-width:0.8;" x="149.015885" xlink:href="#m79d071c841" y="276.48"/>
      </g>
     </g>
     <g id="text_2">
      <!-- 2022-01 -->
      <g transform="translate(111.791064 310.951846)rotate(-30)scale(0.1 -0.1)">
       <use xlink:href="#DejaVuSans-32"/>
       <use x="63.623047" xlink:href="#DejaVuSans-30"/>
       <use x="127.246094" xlink:href="#DejaVuSans-32"/>
       <use x="190.869141" xlink:href="#DejaVuSans-32"/>
       <use x="254.492188" xlink:href="#DejaVuSans-2d"/>
       <use x="290.576172" xlink:href="#DejaVuSans-30"/>
       <use x="354.199219" xlink:href="#DejaVuSans-31"/>
      </g>
     </g>
    </g>
    <g id="xtick_3">
     <g id="line2d_3">
      <g>
       <use style="stroke:#000000;stroke-width:0.8;" x="201.985837" xlink:href="#m79d071c841" y="276.48"/>
      </g>
     </g>
     <g id="text_3">
      <!-- 2022-02 -->
      <g transform="translate(164.761017 310.951846)rotate(-30)scale(0.1 -0.1)">
       <use xlink:href="#DejaVuSans-32"/>
       <use x="63.623047" xlink:href="#DejaVuSans-30"/>
       <use x="127.246094" xlink:href="#DejaVuSans-32"/>
       <use x="190.869141" xlink:href="#DejaVuSans-32"/>
       <use x="254.492188" xlink:href="#DejaVuSans-2d"/>
       <use x="290.576172" xlink:href="#DejaVuSans-30"/>
       <use x="354.199219" xlink:href="#DejaVuSans-32"/>
      </g>
     </g>
    </g>
    <g id="xtick_4">
     <g id="line2d_4">
      <g>
       <use style="stroke:#000000;stroke-width:0.8;" x="249.829665" xlink:href="#m79d071c841" y="276.48"/>
      </g>
     </g>
     <g id="text_4">
      <!-- 2022-03 -->
      <g transform="translate(212.604844 310.951846)rotate(-30)scale(0.1 -0.1)">
       <defs>
        <path d="M 2597 2516 
Q 3050 2419 3304 2112 
Q 3559 1806 3559 1356 
Q 3559 666 3084 287 
Q 2609 -91 1734 -91 
Q 1441 -91 1130 -33 
Q 819 25 488 141 
L 488 750 
Q 750 597 1062 519 
Q 1375 441 1716 441 
Q 2309 441 2620 675 
Q 2931 909 2931 1356 
Q 2931 1769 2642 2001 
Q 2353 2234 1838 2234 
L 1294 2234 
L 1294 2753 
L 1863 2753 
Q 2328 2753 2575 2939 
Q 2822 3125 2822 3475 
Q 2822 3834 2567 4026 
Q 2313 4219 1838 4219 
Q 1578 4219 1281 4162 
Q 984 4106 628 3988 
L 628 4550 
Q 988 4650 1302 4700 
Q 1616 4750 1894 4750 
Q 2613 4750 3031 4423 
Q 3450 4097 3450 3541 
Q 3450 3153 3228 2886 
Q 3006 2619 2597 2516 
z
" id="DejaVuSans-33" transform="scale(0.015625)"/>
       </defs>
       <use xlink:href="#DejaVuSans-32"/>
       <use x="63.623047" xlink:href="#DejaVuSans-30"/>
       <use x="127.246094" xlink:href="#DejaVuSans-32"/>
       <use x="190.869141" xlink:href="#DejaVuSans-32"/>
       <use x="254.492188" xlink:href="#DejaVuSans-2d"/>
       <use x="290.576172" xlink:href="#DejaVuSans-30"/>
       <use x="354.199219" xlink:href="#DejaVuSans-33"/>
      </g>
     </g>
    </g>
    <g id="xtick_5">
     <g id="line2d_5">
      <g>
       <use style="stroke:#000000;stroke-width:0.8;" x="302.799617" xlink:href="#m79d071c841" y="276.48"/>
      </g>
     </g>
     <g id="text_5">
      <!-- 2022-04 -->
      <g transform="translate(265.574796 310.951846)rotate(-30)scale(0.1 -0.1)">
       <defs>
        <path d="M 2419 4116 
L 825 1625 
L 2419 1625 
L 2419 4116 
z
M 2253 4666 
L 3047 4666 
L 3047 1625 
L 3713 1625 
L 3713 1100 
L 3047 1100 
L 3047 0 
L 2419 0 
L 2419 1100 
L 313 1100 
L 313 1709 
L 2253 4666 
z
" id="DejaVuSans-34" transform="scale(0.015625)"/>
       </defs>
       <use xlink:href="#DejaVuSans-32"/>
       <use x="63.623047" xlink:href="#DejaVuSans-30"/>
       <use x="127.246094" xlink:href="#DejaVuSans-32"/>
       <use x="190.869141" xlink:href="#DejaVuSans-32"/>
       <use x="254.492188" xlink:href="#DejaVuSans-2d"/>
       <use x="290.576172" xlink:href="#DejaVuSans-30"/>
       <use x="354.199219" xlink:href="#DejaVuSans-34"/>
      </g>
     </g>
    </g>
    <g id="xtick_6">
     <g id="line2d_6">
      <g>
       <use style="stroke:#000000;stroke-width:0.8;" x="354.060861" xlink:href="#m79d071c841" y="276.48"/>
      </g>
     </g>
     <g id="text_6">
      <!-- 2022-05 -->
      <g transform="translate(316.83604 310.951846)rotate(-30)scale(0.1 -0.1)">
       <defs>
        <path d="M 691 4666 
L 3169 4666 
L 3169 4134 
L 1269 4134 
L 1269 2991 
Q 1406 3038 1543 3061 
Q 1681 3084 1819 3084 
Q 2600 3084 3056 2656 
Q 3513 2228 3513 1497 
Q 3513 744 3044 326 
Q 2575 -91 1722 -91 
Q 1428 -91 1123 -41 
Q 819 9 494 109 
L 494 744 
Q 775 591 1075 516 
Q 1375 441 1709 441 
Q 2250 441 2565 725 
Q 2881 1009 2881 1497 
Q 2881 1984 2565 2268 
Q 2250 2553 1709 2553 
Q 1456 2553 1204 2497 
Q 953 2441 691 2322 
L 691 4666 
z
" id="DejaVuSans-35" transform="scale(0.015625)"/>
       </defs>
       <use xlink:href="#DejaVuSans-32"/>
       <use x="63.623047" xlink:href="#DejaVuSans-30"/>
       <use x="127.246094" xlink:href="#DejaVuSans-32"/>
       <use x="190.869141" xlink:href="#DejaVuSans-32"/>
       <use x="254.492188" xlink:href="#DejaVuSans-2d"/>
       <use x="290.576172" xlink:href="#DejaVuSans-30"/>
       <use x="354.199219" xlink:href="#DejaVuSans-35"/>
      </g>
     </g>
    </g>
    <g id="xtick_7">
     <g id="line2d_7">
      <g>
       <use style="stroke:#000000;stroke-width:0.8;" x="407.030813" xlink:href="#m79d071c841" y="276.48"/>
      </g>
     </g>
     <g id="text_7">
      <!-- 2022-06 -->
      <g transform="translate(369.805993 310.951846)rotate(-30)scale(0.1 -0.1)">
       <defs>
        <path d="M 2113 2584 
Q 1688 2584 1439 2293 
Q 1191 2003 1191 1497 
Q 1191 994 1439 701 
Q 1688 409 2113 409 
Q 2538 409 2786 701 
Q 3034 994 3034 1497 
Q 3034 2003 2786 2293 
Q 2538 2584 2113 2584 
z
M 3366 4563 
L 3366 3988 
Q 3128 4100 2886 4159 
Q 2644 4219 2406 4219 
Q 1781 4219 1451 3797 
Q 1122 3375 1075 2522 
Q 1259 2794 1537 2939 
Q 1816 3084 2150 3084 
Q 2853 3084 3261 2657 
Q 3669 2231 3669 1497 
Q 3669 778 3244 343 
Q 2819 -91 2113 -91 
Q 1303 -91 875 529 
Q 447 1150 447 2328 
Q 447 3434 972 4092 
Q 1497 4750 2381 4750 
Q 2619 4750 2861 4703 
Q 3103 4656 3366 4563 
z
" id="DejaVuSans-36" transform="scale(0.015625)"/>
       </defs>
       <use xlink:href="#DejaVuSans-32"/>
       <use x="63.623047" xlink:href="#DejaVuSans-30"/>
       <use x="127.246094" xlink:href="#DejaVuSans-32"/>
       <use x="190.869141" xlink:href="#DejaVuSans-32"/>
       <use x="254.492188" xlink:href="#DejaVuSans-2d"/>
       <use x="290.576172" xlink:href="#DejaVuSans-30"/>
       <use x="354.199219" xlink:href="#DejaVuSans-36"/>
      </g>
     </g>
    </g>
    <g id="text_8">
     <!-- date -->
     <g transform="translate(224.885 324.351346)scale(0.1 -0.1)">
      <defs>
       <path d="M 2906 2969 
L 2906 4863 
L 3481 4863 
L 3481 0 
L 2906 0 
L 2906 525 
Q 2725 213 2448 61 
Q 2172 -91 1784 -91 
Q 1150 -91 751 415 
Q 353 922 353 1747 
Q 353 2572 751 3078 
Q 1150 3584 1784 3584 
Q 2172 3584 2448 3432 
Q 2725 3281 2906 2969 
z
M 947 1747 
Q 947 1113 1208 752 
Q 1469 391 1925 391 
Q 2381 391 2643 752 
Q 2906 1113 2906 1747 
Q 2906 2381 2643 2742 
Q 2381 3103 1925 3103 
Q 1469 3103 1208 2742 
Q 947 2381 947 1747 
z
" id="DejaVuSans-64" transform="scale(0.015625)"/>
       <path d="M 2194 1759 
Q 1497 1759 1228 1600 
Q 959 1441 959 1056 
Q 959 750 1161 570 
Q 1363 391 1709 391 
Q 2188 391 2477 730 
Q 2766 1069 2766 1631 
L 2766 1759 
L 2194 1759 
z
M 3341 1997 
L 3341 0 
L 2766 0 
L 2766 531 
Q 2569 213 2275 61 
Q 1981 -91 1556 -91 
Q 1019 -91 701 211 
Q 384 513 384 1019 
Q 384 1609 779 1909 
Q 1175 2209 1959 2209 
L 2766 2209 
L 2766 2266 
Q 2766 2663 2505 2880 
Q 2244 3097 1772 3097 
Q 1472 3097 1187 3025 
Q 903 2953 641 2809 
L 641 3341 
Q 956 3463 1253 3523 
Q 1550 3584 1831 3584 
Q 2591 3584 2966 3190 
Q 3341 2797 3341 1997 
z
" id="DejaVuSans-61" transform="scale(0.015625)"/>
       <path d="M 1172 4494 
L 1172 3500 
L 2356 3500 
L 2356 3053 
L 1172 3053 
L 1172 1153 
Q 1172 725 1289 603 
Q 1406 481 1766 481 
L 2356 481 
L 2356 0 
L 1766 0 
Q 1100 0 847 248 
Q 594 497 594 1153 
L 594 3053 
L 172 3053 
L 172 3500 
L 594 3500 
L 594 4494 
L 1172 4494 
z
" id="DejaVuSans-74" transform="scale(0.015625)"/>
       <path d="M 3597 1894 
L 3597 1613 
L 953 1613 
Q 991 1019 1311 708 
Q 1631 397 2203 397 
Q 2534 397 2845 478 
Q 3156 559 3463 722 
L 3463 178 
Q 3153 47 2828 -22 
Q 2503 -91 2169 -91 
Q 1331 -91 842 396 
Q 353 884 353 1716 
Q 353 2575 817 3079 
Q 1281 3584 2069 3584 
Q 2775 3584 3186 3129 
Q 3597 2675 3597 1894 
z
M 3022 2063 
Q 3016 2534 2758 2815 
Q 2500 3097 2075 3097 
Q 1594 3097 1305 2825 
Q 1016 2553 972 2059 
L 3022 2063 
z
" id="DejaVuSans-65" transform="scale(0.015625)"/>
      </defs>
      <use xlink:href="#DejaVuSans-64"/>
      <use x="63.476562" xlink:href="#DejaVuSans-61"/>
      <use x="124.755859" xlink:href="#DejaVuSans-74"/>
      <use x="163.964844" xlink:href="#DejaVuSans-65"/>
     </g>
    </g>
   </g>
   <g id="matplotlib.axis_2">
    <g id="ytick_1">
     <g id="line2d_8">
      <defs>
       <path d="M 0 0 
L -3.5 0 
" id="m6f11cbe2c0" style="stroke:#000000;stroke-width:0.8;"/>
      </defs>
      <g>
       <use style="stroke:#000000;stroke-width:0.8;" x="57.6" xlink:href="#m6f11cbe2c0" y="268.951881"/>
      </g>
     </g>
     <g id="text_9">
      <!-- 108000 -->
      <g transform="translate(12.425 272.7511)scale(0.1 -0.1)">
       <defs>
        <path d="M 2034 2216 
Q 1584 2216 1326 1975 
Q 1069 1734 1069 1313 
Q 1069 891 1326 650 
Q 1584 409 2034 409 
Q 2484 409 2743 651 
Q 3003 894 3003 1313 
Q 3003 1734 2745 1975 
Q 2488 2216 2034 2216 
z
M 1403 2484 
Q 997 2584 770 2862 
Q 544 3141 544 3541 
Q 544 4100 942 4425 
Q 1341 4750 2034 4750 
Q 2731 4750 3128 4425 
Q 3525 4100 3525 3541 
Q 3525 3141 3298 2862 
Q 3072 2584 2669 2484 
Q 3125 2378 3379 2068 
Q 3634 1759 3634 1313 
Q 3634 634 3220 271 
Q 2806 -91 2034 -91 
Q 1263 -91 848 271 
Q 434 634 434 1313 
Q 434 1759 690 2068 
Q 947 2378 1403 2484 
z
M 1172 3481 
Q 1172 3119 1398 2916 
Q 1625 2713 2034 2713 
Q 2441 2713 2670 2916 
Q 2900 3119 2900 3481 
Q 2900 3844 2670 4047 
Q 2441 4250 2034 4250 
Q 1625 4250 1398 4047 
Q 1172 3844 1172 3481 
z
" id="DejaVuSans-38" transform="scale(0.015625)"/>
       </defs>
       <use xlink:href="#DejaVuSans-31"/>
       <use x="63.623047" xlink:href="#DejaVuSans-30"/>
       <use x="127.246094" xlink:href="#DejaVuSans-38"/>
       <use x="190.869141" xlink:href="#DejaVuSans-30"/>
       <use x="254.492188" xlink:href="#DejaVuSans-30"/>
       <use x="318.115234" xlink:href="#DejaVuSans-30"/>
      </g>
     </g>
    </g>
    <g id="ytick_2">
     <g id="line2d_9">
      <g>
       <use style="stroke:#000000;stroke-width:0.8;" x="57.6" xlink:href="#m6f11cbe2c0" y="242.736425"/>
      </g>
     </g>
     <g id="text_10">
      <!-- 110000 -->
      <g transform="translate(12.425 246.535643)scale(0.1 -0.1)">
       <use xlink:href="#DejaVuSans-31"/>
       <use x="63.623047" xlink:href="#DejaVuSans-31"/>
       <use x="127.246094" xlink:href="#DejaVuSans-30"/>
       <use x="190.869141" xlink:href="#DejaVuSans-30"/>
       <use x="254.492188" xlink:href="#DejaVuSans-30"/>
       <use x="318.115234" xlink:href="#DejaVuSans-30"/>
      </g>
     </g>
    </g>
    <g id="ytick_3">
     <g id="line2d_10">
      <g>
       <use style="stroke:#000000;stroke-width:0.8;" x="57.6" xlink:href="#m6f11cbe2c0" y="216.520968"/>
      </g>
     </g>
     <g id="text_11">
      <!-- 112000 -->
      <g transform="translate(12.425 220.320187)scale(0.1 -0.1)">
       <use xlink:href="#DejaVuSans-31"/>
       <use x="63.623047" xlink:href="#DejaVuSans-31"/>
       <use x="127.246094" xlink:href="#DejaVuSans-32"/>
       <use x="190.869141" xlink:href="#DejaVuSans-30"/>
       <use x="254.492188" xlink:href="#DejaVuSans-30"/>
       <use x="318.115234" xlink:href="#DejaVuSans-30"/>
      </g>
     </g>
    </g>
    <g id="ytick_4">
     <g id="line2d_11">
      <g>
       <use style="stroke:#000000;stroke-width:0.8;" x="57.6" xlink:href="#m6f11cbe2c0" y="190.305511"/>
      </g>
     </g>
     <g id="text_12">
      <!-- 114000 -->
      <g transform="translate(12.425 194.10473)scale(0.1 -0.1)">
       <use xlink:href="#DejaVuSans-31"/>
       <use x="63.623047" xlink:href="#DejaVuSans-31"/>
       <use x="127.246094" xlink:href="#DejaVuSans-34"/>
       <use x="190.869141" xlink:href="#DejaVuSans-30"/>
       <use x="254.492188" xlink:href="#DejaVuSans-30"/>
       <use x="318.115234" xlink:href="#DejaVuSans-30"/>
      </g>
     </g>
    </g>
    <g id="ytick_5">
     <g id="line2d_12">
      <g>
       <use style="stroke:#000000;stroke-width:0.8;" x="57.6" xlink:href="#m6f11cbe2c0" y="164.090055"/>
      </g>
     </g>
     <g id="text_13">
      <!-- 116000 -->
      <g transform="translate(12.425 167.889273)scale(0.1 -0.1)">
       <use xlink:href="#DejaVuSans-31"/>
       <use x="63.623047" xlink:href="#DejaVuSans-31"/>
       <use x="127.246094" xlink:href="#DejaVuSans-36"/>
       <use x="190.869141" xlink:href="#DejaVuSans-30"/>
       <use x="254.492188" xlink:href="#DejaVuSans-30"/>
       <use x="318.115234" xlink:href="#DejaVuSans-30"/>
      </g>
     </g>
    </g>
    <g id="ytick_6">
     <g id="line2d_13">
      <g>
       <use style="stroke:#000000;stroke-width:0.8;" x="57.6" xlink:href="#m6f11cbe2c0" y="137.874598"/>
      </g>
     </g>
     <g id="text_14">
      <!-- 118000 -->
      <g transform="translate(12.425 141.673817)scale(0.1 -0.1)">
       <use xlink:href="#DejaVuSans-31"/>
       <use x="63.623047" xlink:href="#DejaVuSans-31"/>
       <use x="127.246094" xlink:href="#DejaVuSans-38"/>
       <use x="190.869141" xlink:href="#DejaVuSans-30"/>
       <use x="254.492188" xlink:href="#DejaVuSans-30"/>
       <use x="318.115234" xlink:href="#DejaVuSans-30"/>
      </g>
     </g>
    </g>
    <g id="ytick_7">
     <g id="line2d_14">
      <g>
       <use style="stroke:#000000;stroke-width:0.8;" x="57.6" xlink:href="#m6f11cbe2c0" y="111.659141"/>
      </g>
     </g>
     <g id="text_15">
      <!-- 120000 -->
      <g transform="translate(12.425 115.45836)scale(0.1 -0.1)">
       <use xlink:href="#DejaVuSans-31"/>
       <use x="63.623047" xlink:href="#DejaVuSans-32"/>
       <use x="127.246094" xlink:href="#DejaVuSans-30"/>
       <use x="190.869141" xlink:href="#DejaVuSans-30"/>
       <use x="254.492188" xlink:href="#DejaVuSans-30"/>
       <use x="318.115234" xlink:href="#DejaVuSans-30"/>
      </g>
     </g>
    </g>
    <g id="ytick_8">
     <g id="line2d_15">
      <g>
       <use style="stroke:#000000;stroke-width:0.8;" x="57.6" xlink:href="#m6f11cbe2c0" y="85.443685"/>
      </g>
     </g>
     <g id="text_16">
      <!-- 122000 -->
      <g transform="translate(12.425 89.242903)scale(0.1 -0.1)">
       <use xlink:href="#DejaVuSans-31"/>
       <use x="63.623047" xlink:href="#DejaVuSans-32"/>
       <use x="127.246094" xlink:href="#DejaVuSans-32"/>
       <use x="190.869141" xlink:href="#DejaVuSans-30"/>
       <use x="254.492188" xlink:href="#DejaVuSans-30"/>
       <use x="318.115234" xlink:href="#DejaVuSans-30"/>
      </g>
     </g>
    </g>
    <g id="ytick_9">
     <g id="line2d_16">
      <g>
       <use style="stroke:#000000;stroke-width:0.8;" x="57.6" xlink:href="#m6f11cbe2c0" y="59.228228"/>
      </g>
     </g>
     <g id="text_17">
      <!-- 124000 -->
      <g transform="translate(12.425 63.027447)scale(0.1 -0.1)">
       <use xlink:href="#DejaVuSans-31"/>
       <use x="63.623047" xlink:href="#DejaVuSans-32"/>
       <use x="127.246094" xlink:href="#DejaVuSans-34"/>
       <use x="190.869141" xlink:href="#DejaVuSans-30"/>
       <use x="254.492188" xlink:href="#DejaVuSans-30"/>
       <use x="318.115234" xlink:href="#DejaVuSans-30"/>
      </g>
     </g>
    </g>
   </g>
   <g id="line2d_17">
    <path clip-path="url(#p1ae5cca55f)" d="M 73.832727 160.805976 
L 75.541435 168.600161 
L 80.66756 163.852242 
L 82.376268 155.882664 
L 84.084976 155.379016 
L 87.502392 155.257915 
L 92.628517 176.514193 
L 94.337225 209.196796 
L 96.045933 223.103808 
L 97.754641 196.027892 
L 99.463349 202.710513 
L 104.589474 182.695996 
L 106.298182 159.140299 
L 108.00689 156.948828 
L 109.715598 164.57922 
L 111.424306 152.531288 
L 116.550431 162.657242 
L 118.259139 169.189568 
L 119.967847 152.696672 
L 121.676555 153.721415 
L 123.385263 174.502152 
L 128.511388 198.043099 
L 130.220096 176.860451 
L 131.928804 164.011564 
L 133.637512 155.675588 
L 140.472344 135.990684 
L 142.181053 132.740774 
L 143.889761 130.039417 
L 145.598469 134.319458 
L 147.307177 132.698769 
L 152.433301 125.357061 
L 154.14201 114.194998 
L 155.850718 129.864792 
L 157.559426 130.583832 
L 159.268134 129.817244 
L 164.394258 136.80266 
L 166.102967 122.562501 
L 167.811675 117.59465 
L 169.520383 129.999411 
L 171.229091 130.838194 
L 178.063923 153.007132 
L 179.772632 162.889484 
L 181.48134 177.615641 
L 183.190048 200.623447 
L 188.316172 197.877154 
L 190.02488 205.17178 
L 191.733589 211.370938 
L 193.442297 215.092989 
L 195.151005 193.23786 
L 200.277129 171.345253 
L 201.985837 159.26639 
L 203.694545 148.58832 
L 205.403254 168.484757 
L 207.111962 166.655285 
L 212.238086 166.384408 
L 213.946794 156.286186 
L 215.655502 140.739443 
L 217.364211 163.289021 
L 219.072919 178.909349 
L 224.199043 189.324308 
L 225.907751 173.195995 
L 227.616459 169.259383 
L 229.325167 190.230148 
L 231.033876 197.180511 
L 237.868708 212.473681 
L 239.577416 232.48383 
L 241.286124 227.006496 
L 242.994833 187.075919 
L 248.120957 187.589186 
L 249.829665 207.895398 
L 251.538373 178.784817 
L 253.247081 178.715625 
L 254.955789 179.956843 
L 261.790622 221.682249 
L 263.49933 199.364353 
L 265.208038 197.21009 
L 266.916746 211.602177 
L 272.042871 218.170797 
L 275.460287 177.390963 
L 277.168995 155.182255 
L 278.877703 145.920886 
L 284.003828 144.736802 
L 285.712536 132.832602 
L 287.421244 144.883412 
L 289.129952 126.988363 
L 290.83866 113.457023 
L 295.964785 109.120663 
L 297.673493 95.652471 
L 299.382201 99.042931 
L 301.090909 118.057349 
L 302.799617 111.25216 
L 307.925742 108.449405 
L 309.63445 122.404028 
L 311.343158 126.201013 
L 313.051866 116.167661 
L 314.760574 111.679197 
L 319.886699 132.32466 
L 321.595407 132.908034 
L 323.304115 117.889863 
L 325.012823 127.25947 
L 331.847656 127.044369 
L 333.556364 108.671501 
L 335.265072 100.387979 
L 336.97378 123.767481 
L 338.682488 164.178527 
L 343.808612 165.57957 
L 345.517321 197.35355 
L 347.226029 190.649469 
L 348.934737 161.710904 
L 350.643445 209.908632 
L 355.769569 207.269897 
L 357.478278 196.306003 
L 359.186986 153.026425 
L 360.895694 196.626232 
L 362.604402 197.672733 
L 367.730526 244.816565 
L 369.439234 247.486743 
L 371.147943 258.760193 
L 372.856651 259.597443 
L 374.565359 229.817652 
L 379.691483 229.788946 
L 381.400191 203.727496 
L 383.1089 258.35729 
L 384.817608 264.673983 
L 386.526316 265.797818 
L 391.65244 239.717075 
L 393.361148 241.773213 
L 395.069856 228.406794 
L 396.778565 202.571503 
L 398.487273 172.643491 
L 398.487273 172.643491 
" style="fill:none;stroke:#0000ff;stroke-linecap:square;stroke-opacity:0.9;stroke-width:2;"/>
   </g>
   <g id="line2d_18">
    <path clip-path="url(#p1ae5cca55f)" d="M 73.832727 160.805976 
L 75.541435 169.426849 
L 80.66756 163.753414 
L 82.376268 156.075772 
L 84.084976 154.25765 
L 87.502392 189.713103 
L 92.628517 176.730414 
L 94.337225 209.263809 
L 96.045933 222.261374 
L 97.754641 196.867979 
L 99.463349 203.012298 
L 104.589474 183.338418 
L 106.298182 158.909334 
L 108.00689 156.629959 
L 109.715598 163.813738 
L 111.424306 151.201902 
L 116.550431 161.515972 
L 118.259139 169.01402 
L 119.967847 152.34335 
L 121.676555 152.342091 
L 123.385263 174.427533 
L 128.511388 198.574573 
L 130.220096 177.293994 
L 131.928804 163.788149 
L 133.637512 155.112076 
L 140.472344 136.664977 
L 142.181053 132.553356 
L 143.889761 130.11655 
L 145.598469 133.154748 
L 147.307177 131.850362 
L 152.433301 126.319111 
L 154.14201 114.851964 
L 155.850718 130.059059 
L 157.559426 129.87621 
L 159.268134 130.082817 
L 164.394258 135.827602 
L 166.102967 122.220486 
L 167.811675 117.789077 
L 169.520383 129.964645 
L 171.229091 130.668541 
L 178.063923 151.666848 
L 179.772632 162.124157 
L 181.48134 175.833136 
L 183.190048 197.881552 
L 188.316172 195.298135 
L 190.02488 201.841608 
L 191.733589 209.44798 
L 193.442297 210.466048 
L 195.151005 190.393662 
L 200.277129 169.007615 
L 201.985837 156.824622 
L 203.694545 145.875823 
L 205.403254 165.336125 
L 207.111962 162.706345 
L 212.238086 162.004803 
L 213.946794 154.617775 
L 215.655502 137.870375 
L 217.364211 160.215512 
L 219.072919 173.256413 
L 224.199043 185.742326 
L 225.907751 171.4817 
L 227.616459 166.612444 
L 229.325167 186.034524 
L 231.033876 193.434225 
L 237.868708 208.93981 
L 239.577416 227.428281 
L 241.286124 222.694912 
L 242.994833 182.750316 
L 248.120957 182.337766 
L 249.829665 201.502183 
L 251.538373 172.50855 
L 253.247081 172.743846 
L 254.955789 170.747696 
L 260.081914 198.059243 
L 261.790622 209.45335 
L 263.49933 190.321004 
L 265.208038 186.069844 
L 266.916746 201.202698 
L 272.042871 208.742363 
L 273.751579 191.01101 
L 275.460287 171.669561 
L 277.168995 149.626933 
L 278.877703 141.253739 
L 284.003828 138.718751 
L 285.712536 128.335077 
L 287.421244 138.597073 
L 289.129952 121.841243 
L 290.83866 107.133455 
L 295.964785 105.654847 
L 297.673493 91.874317 
L 299.382201 93.43836 
L 301.090909 113.805655 
L 302.799617 105.830333 
L 307.925742 103.189188 
L 309.63445 117.608423 
L 311.343158 119.379247 
L 313.051866 107.91757 
L 314.760574 101.103619 
L 319.886699 124.266565 
L 321.595407 123.545768 
L 323.304115 108.598234 
L 325.012823 116.718945 
L 331.847656 116.130755 
L 333.556364 98.651949 
L 335.265072 89.9266 
L 336.97378 114.217086 
L 338.682488 155.070826 
L 343.808612 159.725374 
L 345.517321 188.484883 
L 347.226029 181.021819 
L 348.934737 153.130521 
L 350.643445 200.008253 
L 355.769569 197.783013 
L 357.478278 186.156189 
L 359.186986 140.847707 
L 360.895694 181.496496 
L 362.604402 181.401126 
L 367.730526 230.205272 
L 369.439234 232.306334 
L 371.147943 241.620114 
L 372.856651 241.837064 
L 374.565359 213.163269 
L 379.691483 209.184475 
L 381.400191 185.36933 
L 383.1089 238.489123 
L 384.817608 243.857755 
L 386.526316 244.698982 
L 391.65244 217.860778 
L 393.361148 215.869519 
L 395.069856 203.438324 
L 396.778565 179.032626 
L 398.487273 148.865761 
L 398.487273 148.865761 
" style="fill:none;stroke:#ff0000;stroke-linecap:square;stroke-opacity:0.9;stroke-width:2;"/>
   </g>
   <g id="line2d_19">
    <path clip-path="url(#p1ae5cca55f)" d="M 73.832727 160.805976 
L 75.541435 168.911554 
L 80.66756 163.637178 
L 82.376268 155.269337 
L 84.084976 154.948301 
L 87.502392 188.423022 
L 92.628517 176.604676 
L 94.337225 209.148827 
L 96.045933 222.390748 
L 97.754641 195.911343 
L 99.463349 202.433047 
L 104.589474 183.050836 
L 106.298182 157.929908 
L 108.00689 156.423464 
L 109.715598 163.341082 
L 111.424306 151.013655 
L 116.550431 160.788286 
L 118.259139 167.955949 
L 119.967847 152.085295 
L 121.676555 153.100169 
L 123.385263 173.949545 
L 128.511388 197.830143 
L 130.220096 175.605919 
L 131.928804 163.056917 
L 133.637512 153.92689 
L 140.472344 134.24885 
L 142.181053 132.088348 
L 143.889761 128.964517 
L 145.598469 132.320166 
L 147.307177 131.795156 
L 152.433301 124.068235 
L 154.14201 112.952062 
L 155.850718 128.450036 
L 157.559426 128.953508 
L 159.268134 127.8301 
L 164.394258 135.418728 
L 166.102967 121.326769 
L 167.811675 115.964383 
L 169.520383 128.850383 
L 171.229091 128.695921 
L 178.063923 150.650576 
L 179.772632 161.560398 
L 181.48134 176.277855 
L 183.190048 198.204374 
L 188.316172 195.347517 
L 190.02488 203.848195 
L 191.733589 210.003766 
L 193.442297 212.662668 
L 195.151005 191.961586 
L 200.277129 169.974895 
L 203.694545 145.773178 
L 205.403254 167.657669 
L 207.111962 164.470712 
L 212.238086 165.253971 
L 213.946794 154.509113 
L 215.655502 138.286349 
L 217.364211 161.164975 
L 219.072919 176.335858 
L 224.199043 187.448089 
L 225.907751 171.040871 
L 227.616459 167.22744 
L 229.325167 187.71715 
L 231.033876 194.491915 
L 237.868708 209.668677 
L 239.577416 230.47227 
L 241.286124 222.86946 
L 242.994833 182.816261 
L 248.120957 183.352477 
L 249.829665 203.285571 
L 251.538373 175.834959 
L 253.247081 175.867555 
L 254.955789 176.70413 
L 261.790622 219.382233 
L 263.49933 194.829745 
L 265.208038 194.240638 
L 266.916746 208.004919 
L 272.042871 215.607459 
L 277.168995 150.94604 
L 278.877703 141.845786 
L 284.003828 140.664393 
L 285.712536 128.965195 
L 287.421244 141.578584 
L 289.129952 124.22117 
L 290.83866 110.404339 
L 295.964785 105.52788 
L 297.673493 91.972699 
L 299.382201 95.26562 
L 301.090909 115.223965 
L 302.799617 107.884285 
L 307.925742 104.461092 
L 309.63445 118.655118 
L 311.343158 122.489341 
L 313.051866 113.123395 
L 314.760574 107.223705 
L 319.886699 129.725576 
L 321.595407 129.591397 
L 323.304115 115.299035 
L 325.012823 124.27133 
L 331.847656 123.756416 
L 333.556364 104.552522 
L 335.265072 97.05822 
L 336.97378 119.564022 
L 338.682488 161.255925 
L 343.808612 162.51402 
L 345.517321 195.212422 
L 347.226029 187.674146 
L 348.934737 159.063124 
L 350.643445 206.732516 
L 355.769569 203.613961 
L 357.478278 194.544474 
L 359.186986 149.367897 
L 360.895694 192.834568 
L 362.604402 195.833466 
L 367.730526 241.444158 
L 369.439234 243.651256 
L 371.147943 256.864713 
L 372.856651 257.274169 
L 374.565359 227.243502 
L 379.691483 228.381034 
L 381.400191 201.879767 
L 383.1089 256.619311 
L 384.817608 263.022147 
L 386.526316 263.99238 
L 391.65244 238.465422 
L 393.361148 239.14486 
L 395.069856 226.207139 
L 396.778565 200.657807 
L 398.487273 168.051296 
L 398.487273 168.051296 
" style="fill:none;stroke:#008000;stroke-linecap:square;stroke-opacity:0.9;stroke-width:2;"/>
   </g>
   <g id="line2d_20">
    <path clip-path="url(#p1ae5cca55f)" d="M 73.832727 160.805976 
L 75.541435 169.763473 
L 80.66756 163.858587 
L 82.376268 155.861422 
L 84.084976 154.622488 
L 87.502392 189.102931 
L 92.628517 176.810315 
L 94.337225 209.372984 
L 96.045933 222.88178 
L 97.754641 195.996796 
L 99.463349 202.208254 
L 104.589474 182.148693 
L 106.298182 158.023509 
L 108.00689 156.384902 
L 109.715598 163.448577 
L 111.424306 151.708083 
L 116.550431 162.166835 
L 118.259139 168.064168 
L 119.967847 152.900695 
L 121.676555 152.554603 
L 123.385263 173.844631 
L 128.511388 198.428569 
L 130.220096 176.421231 
L 131.928804 164.445751 
L 133.637512 154.753619 
L 140.472344 135.167261 
L 142.181053 131.684418 
L 143.889761 128.716563 
L 145.598469 133.878599 
L 147.307177 132.29937 
L 152.433301 124.738536 
L 154.14201 113.513917 
L 155.850718 129.029857 
L 157.559426 129.73662 
L 159.268134 129.397376 
L 164.394258 136.093072 
L 166.102967 121.500255 
L 167.811675 117.153578 
L 169.520383 128.420655 
L 171.229091 130.057017 
L 178.063923 151.163664 
L 179.772632 162.542207 
L 181.48134 176.40483 
L 183.190048 199.665042 
L 188.316172 196.569048 
L 190.02488 204.495586 
L 191.733589 210.362729 
L 193.442297 213.126093 
L 195.151005 192.882351 
L 200.277129 171.080031 
L 201.985837 157.308523 
L 203.694545 146.681993 
L 205.403254 168.680386 
L 207.111962 165.268719 
L 212.238086 165.845923 
L 213.946794 156.332705 
L 215.655502 139.743695 
L 217.364211 162.478337 
L 219.072919 176.914876 
L 224.199043 188.031165 
L 225.907751 172.551529 
L 227.616459 167.383384 
L 229.325167 189.358288 
L 231.033876 195.570526 
L 237.868708 210.726783 
L 239.577416 232.507611 
L 241.286124 224.844838 
L 242.994833 184.992109 
L 248.120957 185.651671 
L 249.829665 205.774475 
L 251.538373 177.068069 
L 253.247081 177.896603 
L 254.955789 177.719889 
L 260.081914 210.655088 
L 261.790622 220.66907 
L 263.49933 197.166968 
L 265.208038 196.270075 
L 266.916746 211.084409 
L 272.042871 216.640393 
L 273.751579 197.161885 
L 277.168995 152.895369 
L 278.877703 143.945598 
L 284.003828 142.22483 
L 285.712536 131.225469 
L 287.421244 142.422829 
L 289.129952 125.866582 
L 290.83866 112.201436 
L 295.964785 107.868638 
L 297.673493 94.096852 
L 299.382201 97.265653 
L 301.090909 116.503293 
L 302.799617 109.989164 
L 307.925742 106.504774 
L 309.63445 121.07282 
L 311.343158 125.070646 
L 313.051866 114.327926 
L 314.760574 109.237982 
L 319.886699 130.835149 
L 321.595407 131.856373 
L 323.304115 116.007367 
L 325.012823 126.004324 
L 331.847656 126.807753 
L 333.556364 106.762605 
L 335.265072 98.825834 
L 336.97378 121.891611 
L 338.682488 163.406544 
L 343.808612 164.44628 
L 345.517321 196.827271 
L 347.226029 189.509245 
L 348.934737 161.177556 
L 350.643445 208.086654 
L 355.769569 206.021362 
L 357.478278 196.009109 
L 359.186986 152.172431 
L 360.895694 195.336891 
L 362.604402 197.641232 
L 367.730526 242.719167 
L 369.439234 245.611534 
L 371.147943 257.320468 
L 372.856651 259.269441 
L 374.565359 230.025673 
L 379.691483 229.959778 
L 381.400191 203.449367 
L 383.1089 258.092834 
L 384.817608 264.12239 
L 386.526316 265.514379 
L 391.65244 240.576047 
L 393.361148 241.271692 
L 395.069856 228.218516 
L 396.778565 201.651986 
L 398.487273 170.035822 
L 398.487273 170.035822 
" style="fill:none;stroke:#ec5283;stroke-linecap:square;stroke-width:2;"/>
   </g>
   <g id="line2d_21">
    <path clip-path="url(#p1ae5cca55f)" d="M 73.832727 160.805976 
L 75.541435 168.545317 
L 80.66756 163.981945 
L 82.376268 155.314808 
L 84.084976 154.08127 
L 87.502392 188.380047 
L 92.628517 176.684248 
L 94.337225 208.514576 
L 96.045933 221.604413 
L 97.754641 195.870006 
L 99.463349 202.327585 
L 104.589474 182.365608 
L 106.298182 157.503919 
L 108.00689 155.944808 
L 109.715598 163.490976 
L 111.424306 150.516979 
L 116.550431 161.60076 
L 118.259139 168.548006 
L 119.967847 152.379167 
L 121.676555 152.218364 
L 123.385263 173.394521 
L 128.511388 198.085339 
L 130.220096 175.461706 
L 131.928804 163.09865 
L 133.637512 154.509955 
L 140.472344 135.445359 
L 142.181053 132.191166 
L 143.889761 128.376566 
L 145.598469 132.842004 
L 147.307177 131.850544 
L 152.433301 124.951658 
L 154.14201 113.046842 
L 155.850718 128.716528 
L 157.559426 128.442881 
L 159.268134 128.977825 
L 164.394258 134.456629 
L 166.102967 120.812151 
L 167.811675 115.915506 
L 169.520383 129.101764 
L 171.229091 129.727687 
L 178.063923 150.599222 
L 179.772632 162.180008 
L 181.48134 176.718583 
L 183.190048 198.675348 
L 188.316172 195.76943 
L 190.02488 203.686496 
L 191.733589 209.830336 
L 193.442297 212.351774 
L 195.151005 191.981424 
L 200.277129 170.04012 
L 201.985837 157.092602 
L 203.694545 146.614051 
L 205.403254 166.872832 
L 207.111962 164.775984 
L 212.238086 164.88581 
L 213.946794 155.388391 
L 215.655502 138.641039 
L 217.364211 161.12801 
L 219.072919 176.557578 
L 224.199043 187.730373 
L 225.907751 170.971106 
L 227.616459 166.635243 
L 229.325167 187.585262 
L 231.033876 194.240086 
L 237.868708 209.629724 
L 239.577416 230.742201 
L 241.286124 223.319283 
L 242.994833 183.558583 
L 248.120957 183.227112 
L 249.829665 203.478422 
L 251.538373 175.737802 
L 253.247081 175.286205 
L 254.955789 175.506892 
L 261.790622 219.312495 
L 263.49933 194.995147 
L 265.208038 193.474282 
L 266.916746 208.795776 
L 272.042871 214.766357 
L 275.460287 172.953576 
L 277.168995 150.886467 
L 278.877703 142.699141 
L 284.003828 140.759526 
L 285.712536 128.819063 
L 287.421244 140.447796 
L 289.129952 123.618496 
L 290.83866 110.665534 
L 295.964785 106.270903 
L 297.673493 91.804385 
L 299.382201 95.557147 
L 301.090909 115.395339 
L 302.799617 108.274189 
L 307.925742 105.202706 
L 309.63445 118.780125 
L 311.343158 122.481321 
L 313.051866 112.735916 
L 314.760574 107.331195 
L 319.886699 130.031371 
L 321.595407 129.478308 
L 323.304115 114.823666 
L 325.012823 124.380398 
L 331.847656 123.8001 
L 333.556364 104.489995 
L 335.265072 96.462611 
L 336.97378 120.143153 
L 338.682488 160.942154 
L 343.808612 162.343366 
L 345.517321 195.123726 
L 347.226029 186.80735 
L 348.934737 159.108585 
L 350.643445 206.988614 
L 355.769569 203.637864 
L 357.478278 193.517485 
L 359.186986 149.616394 
L 360.895694 192.684857 
L 362.604402 195.778041 
L 367.730526 240.894344 
L 369.439234 244.433686 
L 371.147943 256.545522 
L 372.856651 256.662345 
L 374.565359 228.131765 
L 379.691483 227.940228 
L 381.400191 201.686898 
L 383.1089 256.512278 
L 384.817608 262.815853 
L 386.526316 264.596433 
L 391.65244 238.639715 
L 393.361148 238.865425 
L 395.069856 227.213873 
L 396.778565 200.73698 
L 398.487273 168.192997 
L 398.487273 168.192997 
" style="fill:none;stroke:#00ff00;stroke-linecap:square;stroke-opacity:0.9;stroke-width:2;"/>
   </g>
   <g id="line2d_22">
    <path clip-path="url(#p1ae5cca55f)" d="M 73.832727 160.805976 
L 75.541435 171.380776 
L 80.66756 163.158775 
L 82.376268 153.328163 
L 84.084976 153.533253 
L 87.502392 184.040526 
L 92.628517 175.972475 
L 94.337225 211.507191 
L 96.045933 224.556505 
L 97.754641 194.507231 
L 99.463349 194.811037 
L 104.589474 172.917349 
L 106.298182 152.271038 
L 108.00689 150.290904 
L 109.715598 154.285406 
L 111.424306 144.157816 
L 116.550431 154.887629 
L 118.259139 161.144559 
L 119.967847 148.484898 
L 121.676555 148.052592 
L 123.385263 169.674069 
L 128.511388 191.889033 
L 130.220096 162.110811 
L 131.928804 151.263631 
L 133.637512 136.654145 
L 140.472344 117.955418 
L 142.181053 112.022573 
L 143.889761 111.098136 
L 145.598469 115.317786 
L 147.307177 112.949667 
L 152.433301 105.106809 
L 154.14201 84.409721 
L 155.850718 101.380318 
L 157.559426 100.719997 
L 159.268134 101.066727 
L 164.394258 107.566365 
L 166.102967 93.352225 
L 167.811675 86.72771 
L 169.520383 100.576929 
L 171.229091 103.838339 
L 178.063923 128.107979 
L 179.772632 142.025365 
L 181.48134 157.954474 
L 183.190048 183.765742 
L 188.316172 179.057593 
L 190.02488 189.45342 
L 191.733589 195.313728 
L 193.442297 201.585027 
L 195.151005 178.182829 
L 200.277129 150.473304 
L 201.985837 137.143511 
L 203.694545 127.789533 
L 205.403254 154.023577 
L 207.111962 148.779689 
L 212.238086 150.643384 
L 213.946794 136.472977 
L 215.655502 115.885741 
L 217.364211 139.678919 
L 219.072919 161.635007 
L 224.199043 170.046582 
L 225.907751 150.2297 
L 227.616459 144.751608 
L 229.325167 170.254757 
L 231.033876 178.055349 
L 237.868708 195.178062 
L 239.577416 218.814349 
L 241.286124 205.139705 
L 242.994833 167.109164 
L 248.120957 164.541986 
L 249.829665 188.254972 
L 251.538373 157.672887 
L 254.955789 170.891031 
L 260.081914 216.559128 
L 261.790622 222.546551 
L 263.49933 183.652793 
L 265.208038 184.366145 
L 266.916746 203.234471 
L 272.042871 212.702849 
L 275.460287 146.489919 
L 277.168995 126.1307 
L 278.877703 110.542967 
L 284.003828 107.396301 
L 285.712536 90.109058 
L 287.421244 104.310348 
L 289.129952 86.919524 
L 290.83866 75.547882 
L 295.964785 67.176041 
L 297.673493 52.154182 
L 299.382201 55.693261 
L 301.090909 74.811703 
L 302.799617 71.987019 
L 307.925742 68.053701 
L 309.63445 83.031289 
L 311.343158 89.933357 
L 313.051866 81.073437 
L 314.760574 83.318238 
L 319.886699 101.996664 
L 321.595407 103.939172 
L 323.304115 85.382773 
L 325.012823 97.651627 
L 331.847656 96.452419 
L 333.556364 74.414921 
L 335.265072 67.598973 
L 336.97378 91.836217 
L 338.682488 134.969226 
L 343.808612 135.125554 
L 345.517321 170.50483 
L 347.226029 163.087625 
L 348.934737 131.469655 
L 350.643445 183.788661 
L 355.769569 175.57633 
L 357.478278 165.142127 
L 359.186986 120.641404 
L 360.895694 168.926376 
L 362.604402 173.185667 
L 367.730526 223.729215 
L 369.439234 224.950366 
L 371.147943 244.16742 
L 372.856651 245.050738 
L 374.565359 210.103268 
L 379.691483 215.645745 
L 381.400191 182.761554 
L 383.1089 243.074046 
L 386.526316 255.814182 
L 391.65244 231.427756 
L 393.361148 240.012252 
L 395.069856 219.662542 
L 398.487273 143.426394 
L 398.487273 143.426394 
" style="fill:none;stroke:#a5b9cf;stroke-linecap:square;stroke-width:2;"/>
   </g>
   <g id="patch_3">
    <path d="M 57.6 276.48 
L 57.6 41.472 
" style="fill:none;stroke:#000000;stroke-linecap:square;stroke-linejoin:miter;stroke-width:0.8;"/>
   </g>
   <g id="patch_4">
    <path d="M 414.72 276.48 
L 414.72 41.472 
" style="fill:none;stroke:#000000;stroke-linecap:square;stroke-linejoin:miter;stroke-width:0.8;"/>
   </g>
   <g id="patch_5">
    <path d="M 57.6 276.48 
L 414.72 276.48 
" style="fill:none;stroke:#000000;stroke-linecap:square;stroke-linejoin:miter;stroke-width:0.8;"/>
   </g>
   <g id="patch_6">
    <path d="M 57.6 41.472 
L 414.72 41.472 
" style="fill:none;stroke:#000000;stroke-linecap:square;stroke-linejoin:miter;stroke-width:0.8;"/>
   </g>
   <g id="text_18">
    <!-- UNCORRELATED -->
    <g transform="translate(187.044375 22.034625)scale(0.12 -0.12)">
     <defs>
      <path d="M 556 4666 
L 1191 4666 
L 1191 1831 
Q 1191 1081 1462 751 
Q 1734 422 2344 422 
Q 2950 422 3222 751 
Q 3494 1081 3494 1831 
L 3494 4666 
L 4128 4666 
L 4128 1753 
Q 4128 841 3676 375 
Q 3225 -91 2344 -91 
Q 1459 -91 1007 375 
Q 556 841 556 1753 
L 556 4666 
z
" id="DejaVuSans-55" transform="scale(0.015625)"/>
      <path d="M 628 4666 
L 1478 4666 
L 3547 763 
L 3547 4666 
L 4159 4666 
L 4159 0 
L 3309 0 
L 1241 3903 
L 1241 0 
L 628 0 
L 628 4666 
z
" id="DejaVuSans-4e" transform="scale(0.015625)"/>
      <path d="M 4122 4306 
L 4122 3641 
Q 3803 3938 3442 4084 
Q 3081 4231 2675 4231 
Q 1875 4231 1450 3742 
Q 1025 3253 1025 2328 
Q 1025 1406 1450 917 
Q 1875 428 2675 428 
Q 3081 428 3442 575 
Q 3803 722 4122 1019 
L 4122 359 
Q 3791 134 3420 21 
Q 3050 -91 2638 -91 
Q 1578 -91 968 557 
Q 359 1206 359 2328 
Q 359 3453 968 4101 
Q 1578 4750 2638 4750 
Q 3056 4750 3426 4639 
Q 3797 4528 4122 4306 
z
" id="DejaVuSans-43" transform="scale(0.015625)"/>
      <path d="M 2522 4238 
Q 1834 4238 1429 3725 
Q 1025 3213 1025 2328 
Q 1025 1447 1429 934 
Q 1834 422 2522 422 
Q 3209 422 3611 934 
Q 4013 1447 4013 2328 
Q 4013 3213 3611 3725 
Q 3209 4238 2522 4238 
z
M 2522 4750 
Q 3503 4750 4090 4092 
Q 4678 3434 4678 2328 
Q 4678 1225 4090 567 
Q 3503 -91 2522 -91 
Q 1538 -91 948 565 
Q 359 1222 359 2328 
Q 359 3434 948 4092 
Q 1538 4750 2522 4750 
z
" id="DejaVuSans-4f" transform="scale(0.015625)"/>
      <path d="M 2841 2188 
Q 3044 2119 3236 1894 
Q 3428 1669 3622 1275 
L 4263 0 
L 3584 0 
L 2988 1197 
Q 2756 1666 2539 1819 
Q 2322 1972 1947 1972 
L 1259 1972 
L 1259 0 
L 628 0 
L 628 4666 
L 2053 4666 
Q 2853 4666 3247 4331 
Q 3641 3997 3641 3322 
Q 3641 2881 3436 2590 
Q 3231 2300 2841 2188 
z
M 1259 4147 
L 1259 2491 
L 2053 2491 
Q 2509 2491 2742 2702 
Q 2975 2913 2975 3322 
Q 2975 3731 2742 3939 
Q 2509 4147 2053 4147 
L 1259 4147 
z
" id="DejaVuSans-52" transform="scale(0.015625)"/>
      <path d="M 628 4666 
L 3578 4666 
L 3578 4134 
L 1259 4134 
L 1259 2753 
L 3481 2753 
L 3481 2222 
L 1259 2222 
L 1259 531 
L 3634 531 
L 3634 0 
L 628 0 
L 628 4666 
z
" id="DejaVuSans-45" transform="scale(0.015625)"/>
      <path d="M 628 4666 
L 1259 4666 
L 1259 531 
L 3531 531 
L 3531 0 
L 628 0 
L 628 4666 
z
" id="DejaVuSans-4c" transform="scale(0.015625)"/>
      <path d="M 2188 4044 
L 1331 1722 
L 3047 1722 
L 2188 4044 
z
M 1831 4666 
L 2547 4666 
L 4325 0 
L 3669 0 
L 3244 1197 
L 1141 1197 
L 716 0 
L 50 0 
L 1831 4666 
z
" id="DejaVuSans-41" transform="scale(0.015625)"/>
      <path d="M -19 4666 
L 3928 4666 
L 3928 4134 
L 2272 4134 
L 2272 0 
L 1638 0 
L 1638 4134 
L -19 4134 
L -19 4666 
z
" id="DejaVuSans-54" transform="scale(0.015625)"/>
      <path d="M 1259 4147 
L 1259 519 
L 2022 519 
Q 2988 519 3436 956 
Q 3884 1394 3884 2338 
Q 3884 3275 3436 3711 
Q 2988 4147 2022 4147 
L 1259 4147 
z
M 628 4666 
L 1925 4666 
Q 3281 4666 3915 4102 
Q 4550 3538 4550 2338 
Q 4550 1131 3912 565 
Q 3275 0 1925 0 
L 628 0 
L 628 4666 
z
" id="DejaVuSans-44" transform="scale(0.015625)"/>
     </defs>
     <use xlink:href="#DejaVuSans-55"/>
     <use x="73.193359" xlink:href="#DejaVuSans-4e"/>
     <use x="147.998047" xlink:href="#DejaVuSans-43"/>
     <use x="217.822266" xlink:href="#DejaVuSans-4f"/>
     <use x="296.533203" xlink:href="#DejaVuSans-52"/>
     <use x="366.015625" xlink:href="#DejaVuSans-52"/>
     <use x="435.498047" xlink:href="#DejaVuSans-45"/>
     <use x="498.681641" xlink:href="#DejaVuSans-4c"/>
     <use x="556.644531" xlink:href="#DejaVuSans-41"/>
     <use x="617.302734" xlink:href="#DejaVuSans-54"/>
     <use x="678.386719" xlink:href="#DejaVuSans-45"/>
     <use x="741.570312" xlink:href="#DejaVuSans-44"/>
    </g>
    <!-- daily_report -->
    <g transform="translate(200.466563 35.472)scale(0.12 -0.12)">
     <defs>
      <path d="M 603 3500 
L 1178 3500 
L 1178 0 
L 603 0 
L 603 3500 
z
M 603 4863 
L 1178 4863 
L 1178 4134 
L 603 4134 
L 603 4863 
z
" id="DejaVuSans-69" transform="scale(0.015625)"/>
      <path d="M 603 4863 
L 1178 4863 
L 1178 0 
L 603 0 
L 603 4863 
z
" id="DejaVuSans-6c" transform="scale(0.015625)"/>
      <path d="M 2059 -325 
Q 1816 -950 1584 -1140 
Q 1353 -1331 966 -1331 
L 506 -1331 
L 506 -850 
L 844 -850 
Q 1081 -850 1212 -737 
Q 1344 -625 1503 -206 
L 1606 56 
L 191 3500 
L 800 3500 
L 1894 763 
L 2988 3500 
L 3597 3500 
L 2059 -325 
z
" id="DejaVuSans-79" transform="scale(0.015625)"/>
      <path d="M 3263 -1063 
L 3263 -1509 
L -63 -1509 
L -63 -1063 
L 3263 -1063 
z
" id="DejaVuSans-5f" transform="scale(0.015625)"/>
      <path d="M 2631 2963 
Q 2534 3019 2420 3045 
Q 2306 3072 2169 3072 
Q 1681 3072 1420 2755 
Q 1159 2438 1159 1844 
L 1159 0 
L 581 0 
L 581 3500 
L 1159 3500 
L 1159 2956 
Q 1341 3275 1631 3429 
Q 1922 3584 2338 3584 
Q 2397 3584 2469 3576 
Q 2541 3569 2628 3553 
L 2631 2963 
z
" id="DejaVuSans-72" transform="scale(0.015625)"/>
      <path d="M 1159 525 
L 1159 -1331 
L 581 -1331 
L 581 3500 
L 1159 3500 
L 1159 2969 
Q 1341 3281 1617 3432 
Q 1894 3584 2278 3584 
Q 2916 3584 3314 3078 
Q 3713 2572 3713 1747 
Q 3713 922 3314 415 
Q 2916 -91 2278 -91 
Q 1894 -91 1617 61 
Q 1341 213 1159 525 
z
M 3116 1747 
Q 3116 2381 2855 2742 
Q 2594 3103 2138 3103 
Q 1681 3103 1420 2742 
Q 1159 2381 1159 1747 
Q 1159 1113 1420 752 
Q 1681 391 2138 391 
Q 2594 391 2855 752 
Q 3116 1113 3116 1747 
z
" id="DejaVuSans-70" transform="scale(0.015625)"/>
      <path d="M 1959 3097 
Q 1497 3097 1228 2736 
Q 959 2375 959 1747 
Q 959 1119 1226 758 
Q 1494 397 1959 397 
Q 2419 397 2687 759 
Q 2956 1122 2956 1747 
Q 2956 2369 2687 2733 
Q 2419 3097 1959 3097 
z
M 1959 3584 
Q 2709 3584 3137 3096 
Q 3566 2609 3566 1747 
Q 3566 888 3137 398 
Q 2709 -91 1959 -91 
Q 1206 -91 779 398 
Q 353 888 353 1747 
Q 353 2609 779 3096 
Q 1206 3584 1959 3584 
z
" id="DejaVuSans-6f" transform="scale(0.015625)"/>
     </defs>
     <use xlink:href="#DejaVuSans-64"/>
     <use x="63.476562" xlink:href="#DejaVuSans-61"/>
     <use x="124.755859" xlink:href="#DejaVuSans-69"/>
     <use x="152.539062" xlink:href="#DejaVuSans-6c"/>
     <use x="180.322266" xlink:href="#DejaVuSans-79"/>
     <use x="239.501953" xlink:href="#DejaVuSans-5f"/>
     <use x="289.501953" xlink:href="#DejaVuSans-72"/>
     <use x="328.365234" xlink:href="#DejaVuSans-65"/>
     <use x="389.888672" xlink:href="#DejaVuSans-70"/>
     <use x="453.365234" xlink:href="#DejaVuSans-6f"/>
     <use x="514.546875" xlink:href="#DejaVuSans-72"/>
     <use x="555.660156" xlink:href="#DejaVuSans-74"/>
    </g>
   </g>
   <g id="legend_1">
    <g id="patch_7">
     <path d="M 179.138125 137.54075 
L 293.181875 137.54075 
Q 295.181875 137.54075 295.181875 135.54075 
L 295.181875 48.472 
Q 295.181875 46.472 293.181875 46.472 
L 179.138125 46.472 
Q 177.138125 46.472 177.138125 48.472 
L 177.138125 135.54075 
Q 177.138125 137.54075 179.138125 137.54075 
z
" style="fill:#ffffff;opacity:0.8;stroke:#cccccc;stroke-linejoin:miter;"/>
    </g>
    <g id="line2d_23">
     <path d="M 181.138125 54.570437 
L 201.138125 54.570437 
" style="fill:none;stroke:#0000ff;stroke-linecap:square;stroke-opacity:0.9;stroke-width:2;"/>
    </g>
    <g id="line2d_24"/>
    <g id="text_19">
     <!-- alpaca -->
     <g transform="translate(209.138125 58.070437)scale(0.1 -0.1)">
      <defs>
       <path d="M 3122 3366 
L 3122 2828 
Q 2878 2963 2633 3030 
Q 2388 3097 2138 3097 
Q 1578 3097 1268 2742 
Q 959 2388 959 1747 
Q 959 1106 1268 751 
Q 1578 397 2138 397 
Q 2388 397 2633 464 
Q 2878 531 3122 666 
L 3122 134 
Q 2881 22 2623 -34 
Q 2366 -91 2075 -91 
Q 1284 -91 818 406 
Q 353 903 353 1747 
Q 353 2603 823 3093 
Q 1294 3584 2113 3584 
Q 2378 3584 2631 3529 
Q 2884 3475 3122 3366 
z
" id="DejaVuSans-63" transform="scale(0.015625)"/>
      </defs>
      <use xlink:href="#DejaVuSans-61"/>
      <use x="61.279297" xlink:href="#DejaVuSans-6c"/>
      <use x="89.0625" xlink:href="#DejaVuSans-70"/>
      <use x="152.539062" xlink:href="#DejaVuSans-61"/>
      <use x="213.818359" xlink:href="#DejaVuSans-63"/>
      <use x="268.798828" xlink:href="#DejaVuSans-61"/>
     </g>
    </g>
    <g id="line2d_25">
     <path d="M 181.138125 69.248562 
L 201.138125 69.248562 
" style="fill:none;stroke:#ff0000;stroke-linecap:square;stroke-opacity:0.9;stroke-width:2;"/>
    </g>
    <g id="line2d_26"/>
    <g id="text_20">
     <!-- mattress -->
     <g transform="translate(209.138125 72.748562)scale(0.1 -0.1)">
      <defs>
       <path d="M 3328 2828 
Q 3544 3216 3844 3400 
Q 4144 3584 4550 3584 
Q 5097 3584 5394 3201 
Q 5691 2819 5691 2113 
L 5691 0 
L 5113 0 
L 5113 2094 
Q 5113 2597 4934 2840 
Q 4756 3084 4391 3084 
Q 3944 3084 3684 2787 
Q 3425 2491 3425 1978 
L 3425 0 
L 2847 0 
L 2847 2094 
Q 2847 2600 2669 2842 
Q 2491 3084 2119 3084 
Q 1678 3084 1418 2786 
Q 1159 2488 1159 1978 
L 1159 0 
L 581 0 
L 581 3500 
L 1159 3500 
L 1159 2956 
Q 1356 3278 1631 3431 
Q 1906 3584 2284 3584 
Q 2666 3584 2933 3390 
Q 3200 3197 3328 2828 
z
" id="DejaVuSans-6d" transform="scale(0.015625)"/>
       <path d="M 2834 3397 
L 2834 2853 
Q 2591 2978 2328 3040 
Q 2066 3103 1784 3103 
Q 1356 3103 1142 2972 
Q 928 2841 928 2578 
Q 928 2378 1081 2264 
Q 1234 2150 1697 2047 
L 1894 2003 
Q 2506 1872 2764 1633 
Q 3022 1394 3022 966 
Q 3022 478 2636 193 
Q 2250 -91 1575 -91 
Q 1294 -91 989 -36 
Q 684 19 347 128 
L 347 722 
Q 666 556 975 473 
Q 1284 391 1588 391 
Q 1994 391 2212 530 
Q 2431 669 2431 922 
Q 2431 1156 2273 1281 
Q 2116 1406 1581 1522 
L 1381 1569 
Q 847 1681 609 1914 
Q 372 2147 372 2553 
Q 372 3047 722 3315 
Q 1072 3584 1716 3584 
Q 2034 3584 2315 3537 
Q 2597 3491 2834 3397 
z
" id="DejaVuSans-73" transform="scale(0.015625)"/>
      </defs>
      <use xlink:href="#DejaVuSans-6d"/>
      <use x="97.412109" xlink:href="#DejaVuSans-61"/>
      <use x="158.691406" xlink:href="#DejaVuSans-74"/>
      <use x="197.900391" xlink:href="#DejaVuSans-74"/>
      <use x="237.109375" xlink:href="#DejaVuSans-72"/>
      <use x="275.972656" xlink:href="#DejaVuSans-65"/>
      <use x="337.496094" xlink:href="#DejaVuSans-73"/>
      <use x="389.595703" xlink:href="#DejaVuSans-73"/>
     </g>
    </g>
    <g id="line2d_27">
     <path d="M 181.138125 83.926687 
L 201.138125 83.926687 
" style="fill:none;stroke:#008000;stroke-linecap:square;stroke-opacity:0.9;stroke-width:2;"/>
    </g>
    <g id="line2d_28"/>
    <g id="text_21">
     <!-- daily-open-rebal -->
     <g transform="translate(209.138125 87.426687)scale(0.1 -0.1)">
      <defs>
       <path d="M 3513 2113 
L 3513 0 
L 2938 0 
L 2938 2094 
Q 2938 2591 2744 2837 
Q 2550 3084 2163 3084 
Q 1697 3084 1428 2787 
Q 1159 2491 1159 1978 
L 1159 0 
L 581 0 
L 581 3500 
L 1159 3500 
L 1159 2956 
Q 1366 3272 1645 3428 
Q 1925 3584 2291 3584 
Q 2894 3584 3203 3211 
Q 3513 2838 3513 2113 
z
" id="DejaVuSans-6e" transform="scale(0.015625)"/>
       <path d="M 3116 1747 
Q 3116 2381 2855 2742 
Q 2594 3103 2138 3103 
Q 1681 3103 1420 2742 
Q 1159 2381 1159 1747 
Q 1159 1113 1420 752 
Q 1681 391 2138 391 
Q 2594 391 2855 752 
Q 3116 1113 3116 1747 
z
M 1159 2969 
Q 1341 3281 1617 3432 
Q 1894 3584 2278 3584 
Q 2916 3584 3314 3078 
Q 3713 2572 3713 1747 
Q 3713 922 3314 415 
Q 2916 -91 2278 -91 
Q 1894 -91 1617 61 
Q 1341 213 1159 525 
L 1159 0 
L 581 0 
L 581 4863 
L 1159 4863 
L 1159 2969 
z
" id="DejaVuSans-62" transform="scale(0.015625)"/>
      </defs>
      <use xlink:href="#DejaVuSans-64"/>
      <use x="63.476562" xlink:href="#DejaVuSans-61"/>
      <use x="124.755859" xlink:href="#DejaVuSans-69"/>
      <use x="152.539062" xlink:href="#DejaVuSans-6c"/>
      <use x="180.322266" xlink:href="#DejaVuSans-79"/>
      <use x="237.751953" xlink:href="#DejaVuSans-2d"/>
      <use x="275.710938" xlink:href="#DejaVuSans-6f"/>
      <use x="336.892578" xlink:href="#DejaVuSans-70"/>
      <use x="400.369141" xlink:href="#DejaVuSans-65"/>
      <use x="461.892578" xlink:href="#DejaVuSans-6e"/>
      <use x="525.271484" xlink:href="#DejaVuSans-2d"/>
      <use x="561.355469" xlink:href="#DejaVuSans-72"/>
      <use x="600.21875" xlink:href="#DejaVuSans-65"/>
      <use x="661.742188" xlink:href="#DejaVuSans-62"/>
      <use x="725.21875" xlink:href="#DejaVuSans-61"/>
      <use x="786.498047" xlink:href="#DejaVuSans-6c"/>
     </g>
    </g>
    <g id="line2d_29">
     <path d="M 181.138125 98.604812 
L 201.138125 98.604812 
" style="fill:none;stroke:#ec5283;stroke-linecap:square;stroke-width:2;"/>
    </g>
    <g id="line2d_30"/>
    <g id="text_22">
     <!-- daily-close-rebal -->
     <g transform="translate(209.138125 102.104812)scale(0.1 -0.1)">
      <use xlink:href="#DejaVuSans-64"/>
      <use x="63.476562" xlink:href="#DejaVuSans-61"/>
      <use x="124.755859" xlink:href="#DejaVuSans-69"/>
      <use x="152.539062" xlink:href="#DejaVuSans-6c"/>
      <use x="180.322266" xlink:href="#DejaVuSans-79"/>
      <use x="237.751953" xlink:href="#DejaVuSans-2d"/>
      <use x="273.835938" xlink:href="#DejaVuSans-63"/>
      <use x="328.816406" xlink:href="#DejaVuSans-6c"/>
      <use x="356.599609" xlink:href="#DejaVuSans-6f"/>
      <use x="417.78125" xlink:href="#DejaVuSans-73"/>
      <use x="469.880859" xlink:href="#DejaVuSans-65"/>
      <use x="531.404297" xlink:href="#DejaVuSans-2d"/>
      <use x="567.488281" xlink:href="#DejaVuSans-72"/>
      <use x="606.351562" xlink:href="#DejaVuSans-65"/>
      <use x="667.875" xlink:href="#DejaVuSans-62"/>
      <use x="731.351562" xlink:href="#DejaVuSans-61"/>
      <use x="792.630859" xlink:href="#DejaVuSans-6c"/>
     </g>
    </g>
    <g id="line2d_31">
     <path d="M 181.138125 113.282937 
L 201.138125 113.282937 
" style="fill:none;stroke:#00ff00;stroke-linecap:square;stroke-opacity:0.9;stroke-width:2;"/>
    </g>
    <g id="line2d_32"/>
    <g id="text_23">
     <!-- trader-baseline -->
     <g transform="translate(209.138125 116.782937)scale(0.1 -0.1)">
      <use xlink:href="#DejaVuSans-74"/>
      <use x="39.208984" xlink:href="#DejaVuSans-72"/>
      <use x="80.322266" xlink:href="#DejaVuSans-61"/>
      <use x="141.601562" xlink:href="#DejaVuSans-64"/>
      <use x="205.078125" xlink:href="#DejaVuSans-65"/>
      <use x="266.601562" xlink:href="#DejaVuSans-72"/>
      <use x="301.339844" xlink:href="#DejaVuSans-2d"/>
      <use x="337.423828" xlink:href="#DejaVuSans-62"/>
      <use x="400.900391" xlink:href="#DejaVuSans-61"/>
      <use x="462.179688" xlink:href="#DejaVuSans-73"/>
      <use x="514.279297" xlink:href="#DejaVuSans-65"/>
      <use x="575.802734" xlink:href="#DejaVuSans-6c"/>
      <use x="603.585938" xlink:href="#DejaVuSans-69"/>
      <use x="631.369141" xlink:href="#DejaVuSans-6e"/>
      <use x="694.748047" xlink:href="#DejaVuSans-65"/>
     </g>
    </g>
    <g id="line2d_33">
     <path d="M 181.138125 127.961062 
L 201.138125 127.961062 
" style="fill:none;stroke:#a5b9cf;stroke-linecap:square;stroke-width:2;"/>
    </g>
    <g id="line2d_34"/>
    <g id="text_24">
     <!-- default-cfg -->
     <g transform="translate(209.138125 131.461062)scale(0.1 -0.1)">
      <defs>
       <path d="M 2375 4863 
L 2375 4384 
L 1825 4384 
Q 1516 4384 1395 4259 
Q 1275 4134 1275 3809 
L 1275 3500 
L 2222 3500 
L 2222 3053 
L 1275 3053 
L 1275 0 
L 697 0 
L 697 3053 
L 147 3053 
L 147 3500 
L 697 3500 
L 697 3744 
Q 697 4328 969 4595 
Q 1241 4863 1831 4863 
L 2375 4863 
z
" id="DejaVuSans-66" transform="scale(0.015625)"/>
       <path d="M 544 1381 
L 544 3500 
L 1119 3500 
L 1119 1403 
Q 1119 906 1312 657 
Q 1506 409 1894 409 
Q 2359 409 2629 706 
Q 2900 1003 2900 1516 
L 2900 3500 
L 3475 3500 
L 3475 0 
L 2900 0 
L 2900 538 
Q 2691 219 2414 64 
Q 2138 -91 1772 -91 
Q 1169 -91 856 284 
Q 544 659 544 1381 
z
M 1991 3584 
L 1991 3584 
z
" id="DejaVuSans-75" transform="scale(0.015625)"/>
       <path d="M 2906 1791 
Q 2906 2416 2648 2759 
Q 2391 3103 1925 3103 
Q 1463 3103 1205 2759 
Q 947 2416 947 1791 
Q 947 1169 1205 825 
Q 1463 481 1925 481 
Q 2391 481 2648 825 
Q 2906 1169 2906 1791 
z
M 3481 434 
Q 3481 -459 3084 -895 
Q 2688 -1331 1869 -1331 
Q 1566 -1331 1297 -1286 
Q 1028 -1241 775 -1147 
L 775 -588 
Q 1028 -725 1275 -790 
Q 1522 -856 1778 -856 
Q 2344 -856 2625 -561 
Q 2906 -266 2906 331 
L 2906 616 
Q 2728 306 2450 153 
Q 2172 0 1784 0 
Q 1141 0 747 490 
Q 353 981 353 1791 
Q 353 2603 747 3093 
Q 1141 3584 1784 3584 
Q 2172 3584 2450 3431 
Q 2728 3278 2906 2969 
L 2906 3500 
L 3481 3500 
L 3481 434 
z
" id="DejaVuSans-67" transform="scale(0.015625)"/>
      </defs>
      <use xlink:href="#DejaVuSans-64"/>
      <use x="63.476562" xlink:href="#DejaVuSans-65"/>
      <use x="125" xlink:href="#DejaVuSans-66"/>
      <use x="160.205078" xlink:href="#DejaVuSans-61"/>
      <use x="221.484375" xlink:href="#DejaVuSans-75"/>
      <use x="284.863281" xlink:href="#DejaVuSans-6c"/>
      <use x="312.646484" xlink:href="#DejaVuSans-74"/>
      <use x="351.855469" xlink:href="#DejaVuSans-2d"/>
      <use x="387.939453" xlink:href="#DejaVuSans-63"/>
      <use x="442.919922" xlink:href="#DejaVuSans-66"/>
      <use x="478.125" xlink:href="#DejaVuSans-67"/>
     </g>
    </g>
   </g>
  </g>
 </g>
 <defs>
  <clipPath id="p1ae5cca55f">
   <rect height="235.008" width="357.12" x="57.6" y="41.472"/>
  </clipPath>
 </defs>
</svg>
