<?xml version="1.0" encoding="utf-8" standalone="no"?>
<!DOCTYPE svg PUBLIC "-//W3C//DTD SVG 1.1//EN"
  "http://www.w3.org/Graphics/SVG/1.1/DTD/svg11.dtd">
<svg height="345.6pt" version="1.1" viewBox="0 0 460.8 345.6" width="460.8pt" xmlns="http://www.w3.org/2000/svg" xmlns:xlink="http://www.w3.org/1999/xlink">
 <metadata>
  <rdf:RDF xmlns:cc="http://creativecommons.org/ns#" xmlns:dc="http://purl.org/dc/elements/1.1/" xmlns:rdf="http://www.w3.org/1999/02/22-rdf-syntax-ns#">
   <cc:Work>
    <dc:type rdf:resource="http://purl.org/dc/dcmitype/StillImage"/>
    <dc:date>2022-06-01T01:01:45.805101</dc:date>
    <dc:format>image/svg+xml</dc:format>
    <dc:creator>
     <cc:Agent>
      <dc:title>Matplotlib v3.4.3, https://matplotlib.org/</dc:title>
     </cc:Agent>
    </dc:creator>
   </cc:Work>
  </rdf:RDF>
 </metadata>
 <defs>
  <style type="text/css">*{stroke-linecap:butt;stroke-linejoin:round;}</style>
 </defs>
 <g id="figure_1">
  <g id="patch_1">
   <path d="M 0 345.6 
L 460.8 345.6 
L 460.8 0 
L 0 0 
z
" style="fill:#ffffff;"/>
  </g>
  <g id="axes_1">
   <g id="patch_2">
    <path d="M 57.6 276.48 
L 414.72 276.48 
L 414.72 41.472 
L 57.6 41.472 
z
" style="fill:#ffffff;"/>
   </g>
   <g id="matplotlib.axis_1">
    <g id="xtick_1">
     <g id="line2d_1">
      <defs>
       <path d="M 0 0 
L 0 3.5 
" id="m2922429cc9" style="stroke:#000000;stroke-width:0.8;"/>
      </defs>
      <g>
       <use style="stroke:#000000;stroke-width:0.8;" x="84.230916" xlink:href="#m2922429cc9" y="276.48"/>
      </g>
     </g>
     <g id="text_1">
      <!-- 2021-09 -->
      <g transform="translate(47.006095 310.951846)rotate(-30)scale(0.1 -0.1)">
       <defs>
        <path d="M 1228 531 
L 3431 531 
L 3431 0 
L 469 0 
L 469 531 
Q 828 903 1448 1529 
Q 2069 2156 2228 2338 
Q 2531 2678 2651 2914 
Q 2772 3150 2772 3378 
Q 2772 3750 2511 3984 
Q 2250 4219 1831 4219 
Q 1534 4219 1204 4116 
Q 875 4013 500 3803 
L 500 4441 
Q 881 4594 1212 4672 
Q 1544 4750 1819 4750 
Q 2544 4750 2975 4387 
Q 3406 4025 3406 3419 
Q 3406 3131 3298 2873 
Q 3191 2616 2906 2266 
Q 2828 2175 2409 1742 
Q 1991 1309 1228 531 
z
" id="DejaVuSans-32" transform="scale(0.015625)"/>
        <path d="M 2034 4250 
Q 1547 4250 1301 3770 
Q 1056 3291 1056 2328 
Q 1056 1369 1301 889 
Q 1547 409 2034 409 
Q 2525 409 2770 889 
Q 3016 1369 3016 2328 
Q 3016 3291 2770 3770 
Q 2525 4250 2034 4250 
z
M 2034 4750 
Q 2819 4750 3233 4129 
Q 3647 3509 3647 2328 
Q 3647 1150 3233 529 
Q 2819 -91 2034 -91 
Q 1250 -91 836 529 
Q 422 1150 422 2328 
Q 422 3509 836 4129 
Q 1250 4750 2034 4750 
z
" id="DejaVuSans-30" transform="scale(0.015625)"/>
        <path d="M 794 531 
L 1825 531 
L 1825 4091 
L 703 3866 
L 703 4441 
L 1819 4666 
L 2450 4666 
L 2450 531 
L 3481 531 
L 3481 0 
L 794 0 
L 794 531 
z
" id="DejaVuSans-31" transform="scale(0.015625)"/>
        <path d="M 313 2009 
L 1997 2009 
L 1997 1497 
L 313 1497 
L 313 2009 
z
" id="DejaVuSans-2d" transform="scale(0.015625)"/>
        <path d="M 703 97 
L 703 672 
Q 941 559 1184 500 
Q 1428 441 1663 441 
Q 2288 441 2617 861 
Q 2947 1281 2994 2138 
Q 2813 1869 2534 1725 
Q 2256 1581 1919 1581 
Q 1219 1581 811 2004 
Q 403 2428 403 3163 
Q 403 3881 828 4315 
Q 1253 4750 1959 4750 
Q 2769 4750 3195 4129 
Q 3622 3509 3622 2328 
Q 3622 1225 3098 567 
Q 2575 -91 1691 -91 
Q 1453 -91 1209 -44 
Q 966 3 703 97 
z
M 1959 2075 
Q 2384 2075 2632 2365 
Q 2881 2656 2881 3163 
Q 2881 3666 2632 3958 
Q 2384 4250 1959 4250 
Q 1534 4250 1286 3958 
Q 1038 3666 1038 3163 
Q 1038 2656 1286 2365 
Q 1534 2075 1959 2075 
z
" id="DejaVuSans-39" transform="scale(0.015625)"/>
       </defs>
       <use xlink:href="#DejaVuSans-32"/>
       <use x="63.623047" xlink:href="#DejaVuSans-30"/>
       <use x="127.246094" xlink:href="#DejaVuSans-32"/>
       <use x="190.869141" xlink:href="#DejaVuSans-31"/>
       <use x="254.492188" xlink:href="#DejaVuSans-2d"/>
       <use x="290.576172" xlink:href="#DejaVuSans-30"/>
       <use x="354.199219" xlink:href="#DejaVuSans-39"/>
      </g>
     </g>
    </g>
    <g id="xtick_2">
     <g id="line2d_2">
      <g>
       <use style="stroke:#000000;stroke-width:0.8;" x="118.891543" xlink:href="#m2922429cc9" y="276.48"/>
      </g>
     </g>
     <g id="text_2">
      <!-- 2021-10 -->
      <g transform="translate(81.666722 310.951846)rotate(-30)scale(0.1 -0.1)">
       <use xlink:href="#DejaVuSans-32"/>
       <use x="63.623047" xlink:href="#DejaVuSans-30"/>
       <use x="127.246094" xlink:href="#DejaVuSans-32"/>
       <use x="190.869141" xlink:href="#DejaVuSans-31"/>
       <use x="254.492188" xlink:href="#DejaVuSans-2d"/>
       <use x="290.576172" xlink:href="#DejaVuSans-31"/>
       <use x="354.199219" xlink:href="#DejaVuSans-30"/>
      </g>
     </g>
    </g>
    <g id="xtick_3">
     <g id="line2d_3">
      <g>
       <use style="stroke:#000000;stroke-width:0.8;" x="154.707525" xlink:href="#m2922429cc9" y="276.48"/>
      </g>
     </g>
     <g id="text_3">
      <!-- 2021-11 -->
      <g transform="translate(117.482704 310.951846)rotate(-30)scale(0.1 -0.1)">
       <use xlink:href="#DejaVuSans-32"/>
       <use x="63.623047" xlink:href="#DejaVuSans-30"/>
       <use x="127.246094" xlink:href="#DejaVuSans-32"/>
       <use x="190.869141" xlink:href="#DejaVuSans-31"/>
       <use x="254.492188" xlink:href="#DejaVuSans-2d"/>
       <use x="290.576172" xlink:href="#DejaVuSans-31"/>
       <use x="354.199219" xlink:href="#DejaVuSans-31"/>
      </g>
     </g>
    </g>
    <g id="xtick_4">
     <g id="line2d_4">
      <g>
       <use style="stroke:#000000;stroke-width:0.8;" x="189.368153" xlink:href="#m2922429cc9" y="276.48"/>
      </g>
     </g>
     <g id="text_4">
      <!-- 2021-12 -->
      <g transform="translate(152.143332 310.951846)rotate(-30)scale(0.1 -0.1)">
       <use xlink:href="#DejaVuSans-32"/>
       <use x="63.623047" xlink:href="#DejaVuSans-30"/>
       <use x="127.246094" xlink:href="#DejaVuSans-32"/>
       <use x="190.869141" xlink:href="#DejaVuSans-31"/>
       <use x="254.492188" xlink:href="#DejaVuSans-2d"/>
       <use x="290.576172" xlink:href="#DejaVuSans-31"/>
       <use x="354.199219" xlink:href="#DejaVuSans-32"/>
      </g>
     </g>
    </g>
    <g id="xtick_5">
     <g id="line2d_5">
      <g>
       <use style="stroke:#000000;stroke-width:0.8;" x="225.184135" xlink:href="#m2922429cc9" y="276.48"/>
      </g>
     </g>
     <g id="text_5">
      <!-- 2022-01 -->
      <g transform="translate(187.959314 310.951846)rotate(-30)scale(0.1 -0.1)">
       <use xlink:href="#DejaVuSans-32"/>
       <use x="63.623047" xlink:href="#DejaVuSans-30"/>
       <use x="127.246094" xlink:href="#DejaVuSans-32"/>
       <use x="190.869141" xlink:href="#DejaVuSans-32"/>
       <use x="254.492188" xlink:href="#DejaVuSans-2d"/>
       <use x="290.576172" xlink:href="#DejaVuSans-30"/>
       <use x="354.199219" xlink:href="#DejaVuSans-31"/>
      </g>
     </g>
    </g>
    <g id="xtick_6">
     <g id="line2d_6">
      <g>
       <use style="stroke:#000000;stroke-width:0.8;" x="261.000116" xlink:href="#m2922429cc9" y="276.48"/>
      </g>
     </g>
     <g id="text_6">
      <!-- 2022-02 -->
      <g transform="translate(223.775296 310.951846)rotate(-30)scale(0.1 -0.1)">
       <use xlink:href="#DejaVuSans-32"/>
       <use x="63.623047" xlink:href="#DejaVuSans-30"/>
       <use x="127.246094" xlink:href="#DejaVuSans-32"/>
       <use x="190.869141" xlink:href="#DejaVuSans-32"/>
       <use x="254.492188" xlink:href="#DejaVuSans-2d"/>
       <use x="290.576172" xlink:href="#DejaVuSans-30"/>
       <use x="354.199219" xlink:href="#DejaVuSans-32"/>
      </g>
     </g>
    </g>
    <g id="xtick_7">
     <g id="line2d_7">
      <g>
       <use style="stroke:#000000;stroke-width:0.8;" x="293.350036" xlink:href="#m2922429cc9" y="276.48"/>
      </g>
     </g>
     <g id="text_7">
      <!-- 2022-03 -->
      <g transform="translate(256.125215 310.951846)rotate(-30)scale(0.1 -0.1)">
       <defs>
        <path d="M 2597 2516 
Q 3050 2419 3304 2112 
Q 3559 1806 3559 1356 
Q 3559 666 3084 287 
Q 2609 -91 1734 -91 
Q 1441 -91 1130 -33 
Q 819 25 488 141 
L 488 750 
Q 750 597 1062 519 
Q 1375 441 1716 441 
Q 2309 441 2620 675 
Q 2931 909 2931 1356 
Q 2931 1769 2642 2001 
Q 2353 2234 1838 2234 
L 1294 2234 
L 1294 2753 
L 1863 2753 
Q 2328 2753 2575 2939 
Q 2822 3125 2822 3475 
Q 2822 3834 2567 4026 
Q 2313 4219 1838 4219 
Q 1578 4219 1281 4162 
Q 984 4106 628 3988 
L 628 4550 
Q 988 4650 1302 4700 
Q 1616 4750 1894 4750 
Q 2613 4750 3031 4423 
Q 3450 4097 3450 3541 
Q 3450 3153 3228 2886 
Q 3006 2619 2597 2516 
z
" id="DejaVuSans-33" transform="scale(0.015625)"/>
       </defs>
       <use xlink:href="#DejaVuSans-32"/>
       <use x="63.623047" xlink:href="#DejaVuSans-30"/>
       <use x="127.246094" xlink:href="#DejaVuSans-32"/>
       <use x="190.869141" xlink:href="#DejaVuSans-32"/>
       <use x="254.492188" xlink:href="#DejaVuSans-2d"/>
       <use x="290.576172" xlink:href="#DejaVuSans-30"/>
       <use x="354.199219" xlink:href="#DejaVuSans-33"/>
      </g>
     </g>
    </g>
    <g id="xtick_8">
     <g id="line2d_8">
      <g>
       <use style="stroke:#000000;stroke-width:0.8;" x="329.166017" xlink:href="#m2922429cc9" y="276.48"/>
      </g>
     </g>
     <g id="text_8">
      <!-- 2022-04 -->
      <g transform="translate(291.941197 310.951846)rotate(-30)scale(0.1 -0.1)">
       <defs>
        <path d="M 2419 4116 
L 825 1625 
L 2419 1625 
L 2419 4116 
z
M 2253 4666 
L 3047 4666 
L 3047 1625 
L 3713 1625 
L 3713 1100 
L 3047 1100 
L 3047 0 
L 2419 0 
L 2419 1100 
L 313 1100 
L 313 1709 
L 2253 4666 
z
" id="DejaVuSans-34" transform="scale(0.015625)"/>
       </defs>
       <use xlink:href="#DejaVuSans-32"/>
       <use x="63.623047" xlink:href="#DejaVuSans-30"/>
       <use x="127.246094" xlink:href="#DejaVuSans-32"/>
       <use x="190.869141" xlink:href="#DejaVuSans-32"/>
       <use x="254.492188" xlink:href="#DejaVuSans-2d"/>
       <use x="290.576172" xlink:href="#DejaVuSans-30"/>
       <use x="354.199219" xlink:href="#DejaVuSans-34"/>
      </g>
     </g>
    </g>
    <g id="xtick_9">
     <g id="line2d_9">
      <g>
       <use style="stroke:#000000;stroke-width:0.8;" x="363.826645" xlink:href="#m2922429cc9" y="276.48"/>
      </g>
     </g>
     <g id="text_9">
      <!-- 2022-05 -->
      <g transform="translate(326.601824 310.951846)rotate(-30)scale(0.1 -0.1)">
       <defs>
        <path d="M 691 4666 
L 3169 4666 
L 3169 4134 
L 1269 4134 
L 1269 2991 
Q 1406 3038 1543 3061 
Q 1681 3084 1819 3084 
Q 2600 3084 3056 2656 
Q 3513 2228 3513 1497 
Q 3513 744 3044 326 
Q 2575 -91 1722 -91 
Q 1428 -91 1123 -41 
Q 819 9 494 109 
L 494 744 
Q 775 591 1075 516 
Q 1375 441 1709 441 
Q 2250 441 2565 725 
Q 2881 1009 2881 1497 
Q 2881 1984 2565 2268 
Q 2250 2553 1709 2553 
Q 1456 2553 1204 2497 
Q 953 2441 691 2322 
L 691 4666 
z
" id="DejaVuSans-35" transform="scale(0.015625)"/>
       </defs>
       <use xlink:href="#DejaVuSans-32"/>
       <use x="63.623047" xlink:href="#DejaVuSans-30"/>
       <use x="127.246094" xlink:href="#DejaVuSans-32"/>
       <use x="190.869141" xlink:href="#DejaVuSans-32"/>
       <use x="254.492188" xlink:href="#DejaVuSans-2d"/>
       <use x="290.576172" xlink:href="#DejaVuSans-30"/>
       <use x="354.199219" xlink:href="#DejaVuSans-35"/>
      </g>
     </g>
    </g>
    <g id="xtick_10">
     <g id="line2d_10">
      <g>
       <use style="stroke:#000000;stroke-width:0.8;" x="399.642627" xlink:href="#m2922429cc9" y="276.48"/>
      </g>
     </g>
     <g id="text_10">
      <!-- 2022-06 -->
      <g transform="translate(362.417806 310.951846)rotate(-30)scale(0.1 -0.1)">
       <defs>
        <path d="M 2113 2584 
Q 1688 2584 1439 2293 
Q 1191 2003 1191 1497 
Q 1191 994 1439 701 
Q 1688 409 2113 409 
Q 2538 409 2786 701 
Q 3034 994 3034 1497 
Q 3034 2003 2786 2293 
Q 2538 2584 2113 2584 
z
M 3366 4563 
L 3366 3988 
Q 3128 4100 2886 4159 
Q 2644 4219 2406 4219 
Q 1781 4219 1451 3797 
Q 1122 3375 1075 2522 
Q 1259 2794 1537 2939 
Q 1816 3084 2150 3084 
Q 2853 3084 3261 2657 
Q 3669 2231 3669 1497 
Q 3669 778 3244 343 
Q 2819 -91 2113 -91 
Q 1303 -91 875 529 
Q 447 1150 447 2328 
Q 447 3434 972 4092 
Q 1497 4750 2381 4750 
Q 2619 4750 2861 4703 
Q 3103 4656 3366 4563 
z
" id="DejaVuSans-36" transform="scale(0.015625)"/>
       </defs>
       <use xlink:href="#DejaVuSans-32"/>
       <use x="63.623047" xlink:href="#DejaVuSans-30"/>
       <use x="127.246094" xlink:href="#DejaVuSans-32"/>
       <use x="190.869141" xlink:href="#DejaVuSans-32"/>
       <use x="254.492188" xlink:href="#DejaVuSans-2d"/>
       <use x="290.576172" xlink:href="#DejaVuSans-30"/>
       <use x="354.199219" xlink:href="#DejaVuSans-36"/>
      </g>
     </g>
    </g>
    <g id="text_11">
     <!-- date -->
     <g transform="translate(224.885 324.351346)scale(0.1 -0.1)">
      <defs>
       <path d="M 2906 2969 
L 2906 4863 
L 3481 4863 
L 3481 0 
L 2906 0 
L 2906 525 
Q 2725 213 2448 61 
Q 2172 -91 1784 -91 
Q 1150 -91 751 415 
Q 353 922 353 1747 
Q 353 2572 751 3078 
Q 1150 3584 1784 3584 
Q 2172 3584 2448 3432 
Q 2725 3281 2906 2969 
z
M 947 1747 
Q 947 1113 1208 752 
Q 1469 391 1925 391 
Q 2381 391 2643 752 
Q 2906 1113 2906 1747 
Q 2906 2381 2643 2742 
Q 2381 3103 1925 3103 
Q 1469 3103 1208 2742 
Q 947 2381 947 1747 
z
" id="DejaVuSans-64" transform="scale(0.015625)"/>
       <path d="M 2194 1759 
Q 1497 1759 1228 1600 
Q 959 1441 959 1056 
Q 959 750 1161 570 
Q 1363 391 1709 391 
Q 2188 391 2477 730 
Q 2766 1069 2766 1631 
L 2766 1759 
L 2194 1759 
z
M 3341 1997 
L 3341 0 
L 2766 0 
L 2766 531 
Q 2569 213 2275 61 
Q 1981 -91 1556 -91 
Q 1019 -91 701 211 
Q 384 513 384 1019 
Q 384 1609 779 1909 
Q 1175 2209 1959 2209 
L 2766 2209 
L 2766 2266 
Q 2766 2663 2505 2880 
Q 2244 3097 1772 3097 
Q 1472 3097 1187 3025 
Q 903 2953 641 2809 
L 641 3341 
Q 956 3463 1253 3523 
Q 1550 3584 1831 3584 
Q 2591 3584 2966 3190 
Q 3341 2797 3341 1997 
z
" id="DejaVuSans-61" transform="scale(0.015625)"/>
       <path d="M 1172 4494 
L 1172 3500 
L 2356 3500 
L 2356 3053 
L 1172 3053 
L 1172 1153 
Q 1172 725 1289 603 
Q 1406 481 1766 481 
L 2356 481 
L 2356 0 
L 1766 0 
Q 1100 0 847 248 
Q 594 497 594 1153 
L 594 3053 
L 172 3053 
L 172 3500 
L 594 3500 
L 594 4494 
L 1172 4494 
z
" id="DejaVuSans-74" transform="scale(0.015625)"/>
       <path d="M 3597 1894 
L 3597 1613 
L 953 1613 
Q 991 1019 1311 708 
Q 1631 397 2203 397 
Q 2534 397 2845 478 
Q 3156 559 3463 722 
L 3463 178 
Q 3153 47 2828 -22 
Q 2503 -91 2169 -91 
Q 1331 -91 842 396 
Q 353 884 353 1716 
Q 353 2575 817 3079 
Q 1281 3584 2069 3584 
Q 2775 3584 3186 3129 
Q 3597 2675 3597 1894 
z
M 3022 2063 
Q 3016 2534 2758 2815 
Q 2500 3097 2075 3097 
Q 1594 3097 1305 2825 
Q 1016 2553 972 2059 
L 3022 2063 
z
" id="DejaVuSans-65" transform="scale(0.015625)"/>
      </defs>
      <use xlink:href="#DejaVuSans-64"/>
      <use x="63.476562" xlink:href="#DejaVuSans-61"/>
      <use x="124.755859" xlink:href="#DejaVuSans-74"/>
      <use x="163.964844" xlink:href="#DejaVuSans-65"/>
     </g>
    </g>
   </g>
   <g id="matplotlib.axis_2">
    <g id="ytick_1">
     <g id="line2d_11">
      <defs>
       <path d="M 0 0 
L -3.5 0 
" id="mebd9c061f3" style="stroke:#000000;stroke-width:0.8;"/>
      </defs>
      <g>
       <use style="stroke:#000000;stroke-width:0.8;" x="57.6" xlink:href="#mebd9c061f3" y="247.719592"/>
      </g>
     </g>
     <g id="text_12">
      <!-- 80000 -->
      <g transform="translate(18.7875 251.518811)scale(0.1 -0.1)">
       <defs>
        <path d="M 2034 2216 
Q 1584 2216 1326 1975 
Q 1069 1734 1069 1313 
Q 1069 891 1326 650 
Q 1584 409 2034 409 
Q 2484 409 2743 651 
Q 3003 894 3003 1313 
Q 3003 1734 2745 1975 
Q 2488 2216 2034 2216 
z
M 1403 2484 
Q 997 2584 770 2862 
Q 544 3141 544 3541 
Q 544 4100 942 4425 
Q 1341 4750 2034 4750 
Q 2731 4750 3128 4425 
Q 3525 4100 3525 3541 
Q 3525 3141 3298 2862 
Q 3072 2584 2669 2484 
Q 3125 2378 3379 2068 
Q 3634 1759 3634 1313 
Q 3634 634 3220 271 
Q 2806 -91 2034 -91 
Q 1263 -91 848 271 
Q 434 634 434 1313 
Q 434 1759 690 2068 
Q 947 2378 1403 2484 
z
M 1172 3481 
Q 1172 3119 1398 2916 
Q 1625 2713 2034 2713 
Q 2441 2713 2670 2916 
Q 2900 3119 2900 3481 
Q 2900 3844 2670 4047 
Q 2441 4250 2034 4250 
Q 1625 4250 1398 4047 
Q 1172 3844 1172 3481 
z
" id="DejaVuSans-38" transform="scale(0.015625)"/>
       </defs>
       <use xlink:href="#DejaVuSans-38"/>
       <use x="63.623047" xlink:href="#DejaVuSans-30"/>
       <use x="127.246094" xlink:href="#DejaVuSans-30"/>
       <use x="190.869141" xlink:href="#DejaVuSans-30"/>
       <use x="254.492188" xlink:href="#DejaVuSans-30"/>
      </g>
     </g>
    </g>
    <g id="ytick_2">
     <g id="line2d_12">
      <g>
       <use style="stroke:#000000;stroke-width:0.8;" x="57.6" xlink:href="#mebd9c061f3" y="198.937035"/>
      </g>
     </g>
     <g id="text_13">
      <!-- 90000 -->
      <g transform="translate(18.7875 202.736254)scale(0.1 -0.1)">
       <use xlink:href="#DejaVuSans-39"/>
       <use x="63.623047" xlink:href="#DejaVuSans-30"/>
       <use x="127.246094" xlink:href="#DejaVuSans-30"/>
       <use x="190.869141" xlink:href="#DejaVuSans-30"/>
       <use x="254.492188" xlink:href="#DejaVuSans-30"/>
      </g>
     </g>
    </g>
    <g id="ytick_3">
     <g id="line2d_13">
      <g>
       <use style="stroke:#000000;stroke-width:0.8;" x="57.6" xlink:href="#mebd9c061f3" y="150.154478"/>
      </g>
     </g>
     <g id="text_14">
      <!-- 100000 -->
      <g transform="translate(12.425 153.953697)scale(0.1 -0.1)">
       <use xlink:href="#DejaVuSans-31"/>
       <use x="63.623047" xlink:href="#DejaVuSans-30"/>
       <use x="127.246094" xlink:href="#DejaVuSans-30"/>
       <use x="190.869141" xlink:href="#DejaVuSans-30"/>
       <use x="254.492188" xlink:href="#DejaVuSans-30"/>
       <use x="318.115234" xlink:href="#DejaVuSans-30"/>
      </g>
     </g>
    </g>
    <g id="ytick_4">
     <g id="line2d_14">
      <g>
       <use style="stroke:#000000;stroke-width:0.8;" x="57.6" xlink:href="#mebd9c061f3" y="101.371921"/>
      </g>
     </g>
     <g id="text_15">
      <!-- 110000 -->
      <g transform="translate(12.425 105.17114)scale(0.1 -0.1)">
       <use xlink:href="#DejaVuSans-31"/>
       <use x="63.623047" xlink:href="#DejaVuSans-31"/>
       <use x="127.246094" xlink:href="#DejaVuSans-30"/>
       <use x="190.869141" xlink:href="#DejaVuSans-30"/>
       <use x="254.492188" xlink:href="#DejaVuSans-30"/>
       <use x="318.115234" xlink:href="#DejaVuSans-30"/>
      </g>
     </g>
    </g>
    <g id="ytick_5">
     <g id="line2d_15">
      <g>
       <use style="stroke:#000000;stroke-width:0.8;" x="57.6" xlink:href="#mebd9c061f3" y="52.589364"/>
      </g>
     </g>
     <g id="text_16">
      <!-- 120000 -->
      <g transform="translate(12.425 56.388583)scale(0.1 -0.1)">
       <use xlink:href="#DejaVuSans-31"/>
       <use x="63.623047" xlink:href="#DejaVuSans-32"/>
       <use x="127.246094" xlink:href="#DejaVuSans-30"/>
       <use x="190.869141" xlink:href="#DejaVuSans-30"/>
       <use x="254.492188" xlink:href="#DejaVuSans-30"/>
       <use x="318.115234" xlink:href="#DejaVuSans-30"/>
      </g>
     </g>
    </g>
   </g>
   <g id="line2d_16">
    <path clip-path="url(#p8f1e0c5a26)" d="M 73.832727 150.154478 
L 74.988082 150.359242 
L 76.143436 148.44946 
L 77.29879 151.243772 
L 78.454144 146.618856 
L 83.075561 142.918664 
L 84.230916 143.830156 
L 85.38627 143.577842 
L 86.541624 143.504045 
L 91.163041 144.02781 
L 93.47375 147.322876 
L 94.629104 151.344664 
L 98.095167 147.478716 
L 99.250521 154.368593 
L 100.405875 151.114689 
L 101.561229 151.947748 
L 102.716584 156.187277 
L 106.182646 165.038664 
L 107.338001 166.135295 
L 108.493355 162.54648 
L 109.648709 154.820131 
L 110.804063 150.776694 
L 114.270126 147.13847 
L 115.42548 157.227141 
L 116.580835 155.566826 
L 117.736189 159.501913 
L 118.891543 152.458172 
L 122.357606 161.335905 
L 123.51296 153.954408 
L 124.668314 152.148586 
L 125.823669 152.014147 
L 126.979023 151.359894 
L 130.445086 150.801452 
L 131.60044 150.207648 
L 132.755794 156.566374 
L 133.911148 147.115183 
L 135.066503 146.243849 
L 138.532566 142.271703 
L 139.68792 137.497931 
L 140.843274 135.490117 
L 141.998628 143.777385 
L 143.153983 149.97835 
L 146.620045 149.910079 
L 147.7754 153.98583 
L 148.930754 154.926277 
L 150.086108 148.895279 
L 151.241462 155.420037 
L 154.707525 145.096961 
L 155.862879 145.271194 
L 157.018234 140.435842 
L 158.173588 146.325597 
L 159.328942 143.369957 
L 162.795005 142.674153 
L 163.950359 149.050797 
L 165.105713 148.795166 
L 166.261068 153.033362 
L 167.416422 149.137187 
L 170.882485 147.535909 
L 172.037839 147.683784 
L 173.193193 150.010789 
L 174.348547 151.410132 
L 175.503902 152.116134 
L 178.969964 148.700012 
L 180.125319 144.700977 
L 181.280673 145.197283 
L 183.591381 145.202629 
L 187.057444 149.084742 
L 188.212798 158.668662 
L 189.368153 165.515926 
L 190.523507 159.420561 
L 191.678861 162.177585 
L 195.144924 153.291504 
L 196.300278 144.954195 
L 197.455632 140.767038 
L 198.610987 140.908914 
L 199.766341 139.340347 
L 203.232404 143.784017 
L 204.387758 141.266855 
L 205.543112 138.325235 
L 206.698467 136.619469 
L 207.853821 142.351386 
L 211.319884 148.84161 
L 212.475238 137.471425 
L 213.630592 135.499292 
L 214.785946 130.899735 
L 219.407363 124.239705 
L 220.562718 124.658334 
L 221.718072 124.721093 
L 222.873426 125.263753 
L 224.02878 127.549941 
L 227.494843 119.875652 
L 228.650197 113.510002 
L 229.805552 127.224122 
L 230.960906 123.050779 
L 232.11626 120.787 
L 235.582323 121.06179 
L 236.737677 116.300814 
L 237.893031 115.520203 
L 239.048386 121.387753 
L 240.20374 120.330689 
L 245.980511 133.958453 
L 247.135865 139.706763 
L 248.29122 151.148356 
L 251.757282 150.357562 
L 252.912637 155.998833 
L 254.067991 156.10926 
L 255.223345 159.242329 
L 256.378699 146.510889 
L 259.844762 135.990838 
L 261.000116 131.190782 
L 262.155471 123.501895 
L 263.310825 155.908816 
L 264.466179 155.364157 
L 267.932242 163.448307 
L 269.087596 164.817728 
L 270.242951 154.25734 
L 271.398305 162.707928 
L 272.553659 173.5241 
L 276.019722 176.726686 
L 277.175076 171.104065 
L 278.33043 173.443142 
L 279.485785 182.06527 
L 280.641139 185.198425 
L 285.262556 189.877107 
L 286.41791 196.596514 
L 287.573264 186.610046 
L 288.728619 178.189649 
L 292.194681 179.404726 
L 293.350036 186.747786 
L 294.50539 177.215632 
L 295.660744 179.322494 
L 296.816098 182.954459 
L 300.282161 201.817518 
L 301.437515 201.746054 
L 302.59287 183.379435 
L 303.748224 189.17604 
L 304.903578 197.138625 
L 308.369641 199.166686 
L 309.524995 190.151667 
L 310.680349 176.130407 
L 311.835704 170.559666 
L 312.991058 162.250425 
L 316.457121 164.108432 
L 317.612475 155.280533 
L 318.767829 160.175952 
L 319.923183 151.992543 
L 321.078538 147.464969 
L 324.5446 145.528551 
L 325.699955 141.374779 
L 326.855309 142.723402 
L 328.010663 154.185987 
L 332.63208 146.063947 
L 333.787434 151.289265 
L 334.942789 159.289823 
L 337.253497 161.064257 
L 341.874914 173.123819 
L 343.030269 170.782765 
L 344.185623 178.983536 
L 348.80704 175.685367 
L 349.962394 167.58598 
L 351.117748 173.490653 
L 352.273103 183.727975 
L 353.428457 198.898654 
L 356.89452 194.829089 
L 358.049874 202.857134 
L 359.205228 208.071919 
L 360.360582 179.39592 
L 361.515937 193.387286 
L 364.981999 187.121685 
L 366.137354 182.674413 
L 367.292708 163.479725 
L 368.448062 184.509157 
L 369.603416 186.649826 
L 373.069479 199.221478 
L 374.224833 197.148209 
L 375.380188 205.73516 
L 376.535542 209.229821 
L 377.690896 198.789236 
L 381.156959 201.782812 
L 382.312313 193.498296 
L 383.467667 211.335433 
L 384.623022 215.660035 
L 385.778376 217.292321 
L 389.244439 206.376546 
L 390.399793 220.361686 
L 391.555147 219.498779 
L 392.710501 208.650376 
L 393.865856 195.704611 
L 398.487273 195.824741 
L 398.487273 195.824741 
" style="fill:none;stroke:#0000ff;stroke-linecap:square;stroke-opacity:0.9;stroke-width:2;"/>
   </g>
   <g id="line2d_17">
    <path clip-path="url(#p8f1e0c5a26)" d="M 73.832727 150.154478 
L 74.988082 147.688011 
L 76.143436 144.955208 
L 77.29879 148.098177 
L 78.454144 142.311167 
L 81.920207 140.852619 
L 83.075561 140.059856 
L 84.230916 140.097237 
L 85.38627 140.843074 
L 86.541624 140.70362 
L 91.163041 139.9817 
L 92.318395 141.881998 
L 93.47375 142.783953 
L 94.629104 147.994061 
L 98.095167 144.599226 
L 99.250521 149.278484 
L 100.405875 146.750236 
L 101.561229 148.055679 
L 102.716584 154.55231 
L 106.182646 162.11906 
L 107.338001 162.379526 
L 108.493355 159.500376 
L 109.648709 153.324654 
L 110.804063 149.673363 
L 114.270126 146.435498 
L 115.42548 156.442826 
L 116.580835 155.556961 
L 117.736189 160.51215 
L 118.891543 153.490237 
L 122.357606 158.488824 
L 123.51296 151.577495 
L 124.668314 150.381074 
L 125.823669 148.986891 
L 126.979023 146.61843 
L 130.445086 149.479739 
L 131.60044 153.532838 
L 132.755794 154.896529 
L 133.911148 142.994127 
L 135.066503 139.375014 
L 138.532566 138.421077 
L 139.68792 134.264495 
L 140.843274 131.475491 
L 141.998628 137.66157 
L 143.153983 140.287817 
L 146.620045 141.922968 
L 147.7754 144.328877 
L 148.930754 147.209567 
L 150.086108 140.253291 
L 151.241462 139.741716 
L 154.707525 139.418708 
L 155.862879 137.446261 
L 157.018234 133.692921 
L 158.173588 134.532675 
L 159.328942 134.467253 
L 162.795005 133.753045 
L 163.950359 137.695091 
L 165.105713 140.3559 
L 166.261068 140.282964 
L 167.416422 137.295705 
L 170.882485 135.888054 
L 172.037839 137.029798 
L 174.348547 137.704169 
L 175.503902 139.399825 
L 178.969964 137.005277 
L 180.125319 132.096592 
L 181.280673 132.033281 
L 183.591381 144.884343 
L 187.057444 139.660666 
L 188.212798 149.968882 
L 189.368153 155.778278 
L 190.523507 149.302532 
L 191.678861 152.861844 
L 195.144924 145.510147 
L 196.300278 136.948563 
L 197.455632 134.226412 
L 198.610987 134.910589 
L 199.766341 131.596068 
L 203.232404 136.47525 
L 204.387758 136.317958 
L 205.543112 132.27379 
L 206.698467 132.359384 
L 207.853821 139.005003 
L 211.319884 144.686623 
L 212.475238 135.061069 
L 213.630592 132.392585 
L 214.785946 127.775519 
L 219.407363 121.506748 
L 220.562718 121.490837 
L 221.718072 121.305524 
L 222.873426 122.081086 
L 224.02878 123.831446 
L 227.494843 118.443971 
L 228.650197 113.059223 
L 229.805552 124.609462 
L 230.960906 122.636031 
L 232.11626 120.109378 
L 235.582323 120.200726 
L 236.737677 117.291192 
L 237.893031 117.213402 
L 239.048386 120.916125 
L 240.20374 121.310842 
L 244.825157 132.909474 
L 247.135865 142.433127 
L 248.29122 152.626653 
L 251.757282 153.206859 
L 252.912637 151.996052 
L 254.067991 152.872147 
L 255.223345 157.171276 
L 256.378699 145.354717 
L 259.844762 137.99619 
L 261.000116 132.010312 
L 262.155471 123.947259 
L 263.310825 146.389447 
L 264.466179 142.82048 
L 267.932242 145.704389 
L 269.087596 142.578639 
L 270.242951 137.836472 
L 271.398305 146.401069 
L 272.553659 156.747319 
L 276.019722 161.073179 
L 277.175076 155.25598 
L 278.33043 156.548991 
L 279.485785 165.653769 
L 280.641139 168.113319 
L 285.262556 172.158229 
L 286.41791 178.759748 
L 287.573264 175.907928 
L 288.728619 164.978741 
L 292.194681 169.456708 
L 293.350036 179.400791 
L 294.50539 168.491352 
L 295.660744 169.457012 
L 296.816098 176.2175 
L 300.282161 192.181835 
L 301.437515 194.658734 
L 302.59287 178.053983 
L 303.748224 184.030727 
L 304.903578 189.14357 
L 308.369641 189.822689 
L 309.524995 181.872772 
L 310.680349 171.704748 
L 311.835704 166.644303 
L 312.991058 162.457389 
L 316.457121 161.937399 
L 317.612475 154.326475 
L 318.767829 159.024867 
L 319.923183 151.80274 
L 321.078538 146.385381 
L 324.5446 145.671472 
L 325.699955 143.321982 
L 326.855309 143.861443 
L 328.010663 153.400594 
L 329.166017 151.246355 
L 332.63208 147.72266 
L 333.787434 152.465358 
L 334.942789 158.69451 
L 336.098143 158.716366 
L 337.253497 158.501018 
L 341.874914 168.186594 
L 343.030269 166.74056 
L 344.185623 173.627299 
L 348.80704 170.451434 
L 349.962394 164.265588 
L 351.117748 161.741748 
L 352.273103 168.309732 
L 353.428457 182.112233 
L 356.89452 180.898628 
L 358.049874 188.453577 
L 359.205228 189.693038 
L 360.360582 174.536389 
L 361.515937 188.852325 
L 364.981999 185.907321 
L 366.137354 182.764429 
L 367.292708 162.837078 
L 368.448062 179.623539 
L 369.603416 178.63256 
L 373.069479 191.829668 
L 374.224833 195.436984 
L 375.380188 200.343235 
L 376.535542 203.193769 
L 377.690896 196.352297 
L 381.156959 197.420021 
L 382.312313 188.853677 
L 383.467667 205.90757 
L 384.623022 211.631188 
L 385.778376 215.478856 
L 389.244439 204.186385 
L 390.399793 209.737965 
L 391.555147 209.392059 
L 392.710501 200.19889 
L 393.865856 189.468926 
L 398.487273 191.121864 
L 398.487273 191.121864 
" style="fill:none;stroke:#ff0000;stroke-linecap:square;stroke-opacity:0.9;stroke-width:2;"/>
   </g>
   <g id="line2d_18">
    <path clip-path="url(#p8f1e0c5a26)" d="M 73.832727 150.154478 
L 74.988082 147.482253 
L 76.143436 145.712096 
L 77.29879 148.36259 
L 78.454144 143.595789 
L 81.920207 140.550124 
L 83.075561 139.730927 
L 84.230916 140.910979 
L 85.38627 140.135186 
L 86.541624 140.0621 
L 91.163041 140.567462 
L 93.47375 143.254266 
L 94.629104 147.963011 
L 98.095167 143.397486 
L 99.250521 150.433317 
L 100.405875 146.998065 
L 101.561229 148.069171 
L 102.716584 152.300013 
L 106.182646 160.743467 
L 107.338001 161.897129 
L 108.493355 158.295616 
L 109.648709 150.644294 
L 110.804063 146.183311 
L 114.270126 142.155756 
L 115.42548 152.730635 
L 116.580835 151.079806 
L 117.736189 154.953789 
L 118.891543 147.177685 
L 122.357606 156.564302 
L 123.51296 148.830108 
L 124.668314 146.826491 
L 125.823669 145.827541 
L 126.979023 143.640213 
L 130.445086 146.286134 
L 131.60044 150.345634 
L 132.755794 151.127691 
L 133.911148 141.812169 
L 135.066503 140.819305 
L 138.532566 136.830747 
L 139.68792 131.747599 
L 140.843274 129.909206 
L 141.998628 137.933781 
L 143.153983 144.386477 
L 146.620045 144.095381 
L 147.7754 148.401588 
L 148.930754 149.287545 
L 150.086108 143.417526 
L 151.241462 142.589145 
L 154.707525 139.747295 
L 155.862879 139.186648 
L 157.018234 135.08888 
L 158.173588 134.753172 
L 159.328942 131.17269 
L 162.795005 130.584811 
L 163.950359 136.701992 
L 165.105713 140.666987 
L 166.261068 140.819557 
L 167.416422 136.908801 
L 170.882485 135.656862 
L 172.037839 137.771658 
L 173.193193 138.00781 
L 174.348547 139.429196 
L 175.503902 139.431691 
L 178.969964 136.663357 
L 180.125319 132.413113 
L 181.280673 132.697493 
L 183.591381 143.98942 
L 187.057444 137.794942 
L 188.212798 147.308941 
L 189.368153 154.300286 
L 190.523507 148.191562 
L 191.678861 151.419669 
L 195.144924 142.189287 
L 196.300278 133.53047 
L 197.455632 129.561633 
L 198.610987 129.239063 
L 199.766341 127.360779 
L 203.232404 132.407646 
L 204.387758 129.867893 
L 205.543112 126.959482 
L 206.698467 125.292314 
L 207.853821 131.269672 
L 211.319884 137.9947 
L 212.475238 126.411597 
L 213.630592 124.084969 
L 214.785946 119.215393 
L 219.407363 112.487049 
L 220.562718 113.045829 
L 221.718072 112.701165 
L 222.873426 113.714604 
L 224.02878 115.926844 
L 227.494843 108.05443 
L 228.650197 101.346991 
L 229.805552 115.184699 
L 230.960906 109.906639 
L 232.11626 108.114182 
L 235.582323 106.748172 
L 236.737677 102.110317 
L 237.893031 100.898096 
L 239.048386 107.680347 
L 240.20374 105.680466 
L 244.825157 117.283747 
L 245.980511 119.700662 
L 247.135865 125.437368 
L 248.29122 137.545943 
L 251.757282 136.880269 
L 252.912637 142.750203 
L 254.067991 142.625367 
L 255.223345 145.759019 
L 256.378699 133.078857 
L 259.844762 122.219437 
L 261.000116 117.117524 
L 262.155471 108.69078 
L 263.310825 143.981279 
L 264.466179 143.254436 
L 267.932242 151.882503 
L 269.087596 153.071885 
L 270.242951 142.062555 
L 271.398305 151.159867 
L 272.553659 161.840713 
L 276.019722 165.050944 
L 277.175076 159.418709 
L 278.33043 161.657919 
L 279.485785 170.527413 
L 280.641139 173.699622 
L 285.262556 177.891229 
L 286.41791 184.633912 
L 287.573264 174.300053 
L 288.728619 165.337505 
L 292.194681 167.245499 
L 293.350036 174.422333 
L 294.50539 164.611772 
L 295.660744 167.243098 
L 300.282161 193.68174 
L 301.437515 191.575334 
L 302.59287 171.891719 
L 304.903578 186.29794 
L 308.369641 186.477402 
L 309.524995 177.730915 
L 310.680349 162.537895 
L 311.835704 157.282327 
L 312.991058 149.866926 
L 316.457121 151.637053 
L 317.612475 141.022496 
L 318.767829 147.322106 
L 319.923183 139.621933 
L 321.078538 133.723667 
L 324.5446 133.551902 
L 325.699955 129.611634 
L 326.855309 132.237352 
L 328.010663 145.06449 
L 329.166017 144.187344 
L 332.63208 139.595555 
L 333.787434 145.921491 
L 334.942789 153.246826 
L 336.098143 154.780168 
L 337.253497 155.099541 
L 340.71956 163.001226 
L 341.874914 165.331107 
L 343.030269 163.617186 
L 344.185623 172.548183 
L 348.80704 167.10963 
L 349.962394 158.832025 
L 351.117748 161.717749 
L 352.273103 171.583833 
L 353.428457 187.228967 
L 356.89452 184.688683 
L 358.049874 195.998164 
L 359.205228 201.345378 
L 360.360582 176.487487 
L 361.515937 190.420285 
L 364.981999 182.741603 
L 366.137354 177.630442 
L 367.292708 156.559558 
L 368.448062 176.509286 
L 369.603416 178.517928 
L 373.069479 191.99143 
L 374.224833 191.968034 
L 375.380188 200.264899 
L 376.535542 203.324099 
L 377.690896 194.579123 
L 381.156959 197.553236 
L 382.312313 186.90116 
L 383.467667 204.777746 
L 384.623022 210.317651 
L 385.778376 214.440931 
L 389.244439 200.577891 
L 390.399793 212.556109 
L 391.555147 211.240817 
L 393.865856 187.536044 
L 398.487273 187.569474 
L 398.487273 187.569474 
" style="fill:none;stroke:#ff8040;stroke-linecap:square;stroke-opacity:0.9;stroke-width:2;"/>
   </g>
   <g id="line2d_19">
    <path clip-path="url(#p8f1e0c5a26)" d="M 73.832727 150.642304 
L 74.988082 149.464204 
L 76.143436 147.785488 
L 77.29879 151.26528 
L 78.454144 145.418237 
L 81.920207 147.389102 
L 83.075561 145.709078 
L 84.230916 145.947263 
L 85.38627 149.018451 
L 86.541624 148.824225 
L 91.163041 147.128414 
L 92.318395 148.973862 
L 93.47375 149.942153 
L 94.629104 156.037106 
L 98.095167 153.135504 
L 99.250521 156.808497 
L 100.405875 154.824167 
L 101.561229 156.727257 
L 102.716584 163.367075 
L 106.182646 171.591157 
L 107.338001 171.647085 
L 108.493355 169.961997 
L 109.648709 164.091765 
L 110.804063 161.491435 
L 114.270126 161.440157 
L 115.42548 168.723998 
L 116.580835 168.352389 
L 117.736189 173.202127 
L 118.891543 167.406471 
L 122.357606 177.731371 
L 123.51296 169.290721 
L 124.668314 167.857139 
L 125.823669 165.373484 
L 126.979023 163.589515 
L 130.445086 166.329166 
L 131.60044 170.481245 
L 132.755794 172.06286 
L 133.911148 161.043741 
L 135.066503 156.939173 
L 138.532566 158.802922 
L 139.68792 155.531907 
L 140.843274 153.70958 
L 141.998628 166.928935 
L 143.153983 170.570791 
L 146.620045 171.226967 
L 147.7754 174.335372 
L 148.930754 174.61622 
L 150.086108 168.060107 
L 151.241462 167.613682 
L 154.707525 167.20168 
L 155.862879 165.166893 
L 157.018234 162.542297 
L 158.173588 163.674435 
L 159.328942 163.863378 
L 162.795005 163.614974 
L 165.105713 172.620594 
L 166.261068 171.972323 
L 167.416422 172.856308 
L 170.882485 172.367351 
L 174.348547 174.376842 
L 175.503902 177.505547 
L 178.969964 174.78006 
L 180.125319 171.134995 
L 181.280673 170.24239 
L 183.591381 182.808126 
L 187.057444 177.386654 
L 188.212798 187.477125 
L 189.368153 191.171474 
L 190.523507 187.043 
L 191.678861 189.278711 
L 195.144924 182.610952 
L 196.300278 175.433126 
L 197.455632 174.680183 
L 198.610987 175.556725 
L 199.766341 172.849263 
L 203.232404 177.131628 
L 204.387758 175.588527 
L 205.543112 173.364595 
L 206.698467 169.699587 
L 207.853821 175.092068 
L 211.319884 179.780703 
L 212.475238 171.122398 
L 213.630592 168.625055 
L 214.785946 165.218594 
L 219.407363 160.109481 
L 220.562718 160.38639 
L 222.873426 161.73156 
L 224.02878 165.485172 
L 227.494843 162.493161 
L 228.650197 158.954106 
L 229.805552 170.688709 
L 230.960906 166.465739 
L 232.11626 164.418991 
L 235.582323 165.023509 
L 236.737677 161.875598 
L 237.893031 161.236705 
L 239.048386 168.317668 
L 240.20374 168.144174 
L 244.825157 178.92299 
L 247.135865 189.392889 
L 248.29122 199.258157 
L 251.757282 200.407306 
L 252.912637 201.284078 
L 254.067991 200.778096 
L 255.223345 204.693411 
L 256.378699 193.200019 
L 259.844762 183.638992 
L 262.155471 172.62202 
L 263.310825 197.963036 
L 264.466179 195.927469 
L 267.932242 201.709261 
L 269.087596 199.884404 
L 270.242951 195.794878 
L 271.398305 202.606487 
L 272.553659 212.353031 
L 276.019722 215.704874 
L 277.175076 211.754835 
L 278.33043 213.151581 
L 279.485785 224.0106 
L 280.641139 225.823831 
L 285.262556 229.880243 
L 286.41791 234.227943 
L 287.573264 232.486979 
L 288.728619 225.089548 
L 292.194681 229.276503 
L 293.350036 240.18352 
L 294.50539 228.328825 
L 295.660744 229.515117 
L 296.816098 238.454595 
L 300.282161 259.35453 
L 301.437515 257.753561 
L 302.59287 243.991461 
L 303.748224 248.618583 
L 304.903578 252.181501 
L 308.369641 249.520956 
L 309.524995 242.950082 
L 310.680349 234.135436 
L 311.835704 229.11166 
L 312.991058 221.925844 
L 316.457121 222.585798 
L 317.612475 215.773779 
L 318.767829 220.090368 
L 319.923183 213.421676 
L 321.078538 208.653355 
L 324.5446 209.413886 
L 325.699955 204.835675 
L 326.855309 204.719685 
L 328.010663 213.651026 
L 329.166017 210.554951 
L 332.63208 206.324748 
L 333.787434 210.105254 
L 334.942789 215.323721 
L 336.098143 214.810961 
L 337.253497 216.011486 
L 340.71956 221.697462 
L 341.874914 224.523609 
L 343.030269 224.86878 
L 344.185623 230.029732 
L 348.80704 227.310039 
L 349.962394 219.880632 
L 351.117748 228.443345 
L 352.273103 235.208133 
L 353.428457 245.867001 
L 356.89452 244.525628 
L 358.049874 248.621375 
L 359.205228 247.912405 
L 360.360582 236.453408 
L 361.515937 248.701201 
L 364.981999 244.969733 
L 366.137354 241.978395 
L 367.292708 224.395616 
L 368.448062 240.509868 
L 369.603416 242.557544 
L 373.069479 253.715538 
L 374.224833 254.888284 
L 375.380188 258.283192 
L 376.535542 258.515615 
L 377.690896 250.111278 
L 381.156959 250.540768 
L 382.312313 242.496945 
L 383.467667 258.023716 
L 384.623022 262.49663 
L 385.778376 265.797818 
L 389.244439 254.683745 
L 390.399793 264.800137 
L 391.555147 262.920672 
L 392.710501 256.048228 
L 393.865856 248.159618 
L 398.487273 248.764396 
L 398.487273 248.764396 
" style="fill:none;stroke:#0d0d0d;stroke-linecap:square;stroke-opacity:0.25;stroke-width:2;"/>
   </g>
   <g id="line2d_20">
    <path clip-path="url(#p8f1e0c5a26)" d="M 73.832727 149.666652 
L 74.988082 145.253057 
L 76.143436 142.463539 
L 77.29879 144.495761 
L 78.454144 136.481004 
L 81.920207 131.965959 
L 83.075561 129.936983 
L 84.230916 129.567047 
L 85.38627 129.988952 
L 86.541624 129.266953 
L 91.163041 128.271601 
L 92.318395 129.533321 
L 93.47375 130.204094 
L 94.629104 135.676114 
L 98.095167 132.03791 
L 99.250521 135.626248 
L 100.405875 133.252278 
L 101.561229 134.710213 
L 102.716584 140.315516 
L 106.182646 151.318212 
L 107.338001 151.474984 
L 108.493355 148.441899 
L 109.648709 137.957125 
L 110.804063 133.494329 
L 114.270126 130.846839 
L 115.42548 141.342534 
L 116.580835 140.417082 
L 117.736189 146.085555 
L 118.891543 138.033608 
L 122.357606 141.559172 
L 123.51296 135.153866 
L 124.668314 134.381473 
L 125.823669 131.831141 
L 126.979023 130.12407 
L 130.445086 132.020576 
L 131.60044 135.191491 
L 132.755794 135.19026 
L 133.911148 124.686672 
L 135.066503 120.325806 
L 138.532566 120.61981 
L 139.68792 116.350612 
L 140.843274 113.013105 
L 141.998628 115.074043 
L 143.153983 114.781488 
L 146.620045 116.365796 
L 147.7754 120.308171 
L 148.930754 119.057573 
L 150.086108 111.945625 
L 151.241462 111.088134 
L 154.707525 110.537059 
L 155.862879 107.935339 
L 157.018234 104.588589 
L 158.173588 106.959785 
L 159.328942 104.736407 
L 162.795005 104.519298 
L 163.950359 107.63518 
L 165.105713 105.882756 
L 166.261068 105.820974 
L 167.416422 96.919987 
L 170.882485 96.781868 
L 172.037839 99.733967 
L 173.193193 101.501033 
L 174.348547 99.716107 
L 175.503902 101.572762 
L 178.969964 96.952399 
L 180.125319 89.254621 
L 181.280673 88.513081 
L 183.591381 101.164524 
L 187.057444 95.873857 
L 188.212798 99.850471 
L 189.368153 107.058626 
L 190.523507 98.933074 
L 191.678861 102.759037 
L 195.144924 88.735326 
L 196.300278 77.504084 
L 197.455632 75.487296 
L 198.610987 76.701098 
L 199.766341 71.910861 
L 203.232404 79.669092 
L 204.387758 78.274321 
L 205.543112 76.611104 
L 206.698467 76.435236 
L 207.853821 80.597441 
L 211.319884 87.417298 
L 212.475238 74.05483 
L 213.630592 72.355989 
L 214.785946 67.769227 
L 220.562718 58.743332 
L 222.873426 59.379084 
L 224.02878 62.564628 
L 227.494843 56.459741 
L 228.650197 53.049271 
L 229.805552 63.648461 
L 230.960906 61.765546 
L 232.11626 57.828167 
L 235.582323 56.872803 
L 236.737677 53.144833 
L 237.893031 53.38315 
L 239.048386 55.088943 
L 240.20374 52.940027 
L 244.825157 68.039204 
L 245.980511 70.644975 
L 247.135865 76.642192 
L 248.29122 88.976914 
L 251.757282 89.543574 
L 252.912637 85.459806 
L 254.067991 87.904629 
L 255.223345 91.088901 
L 256.378699 75.563168 
L 259.844762 65.619443 
L 261.000116 59.357774 
L 262.155471 52.154182 
L 263.310825 66.688766 
L 264.466179 62.140662 
L 267.932242 71.621799 
L 269.087596 70.765499 
L 270.242951 66.728025 
L 271.398305 74.103298 
L 272.553659 88.146284 
L 276.019722 93.453297 
L 277.175076 87.062052 
L 278.33043 87.832594 
L 279.485785 101.1542 
L 280.641139 103.330664 
L 285.262556 108.879601 
L 286.41791 116.676469 
L 287.573264 108.89333 
L 288.728619 97.37527 
L 292.194681 100.815511 
L 293.350036 110.426119 
L 294.50539 96.125418 
L 295.660744 99.260327 
L 296.816098 113.934815 
L 300.282161 131.670261 
L 301.437515 132.343489 
L 302.59287 113.49627 
L 303.748224 121.520599 
L 304.903578 130.832369 
L 308.369641 129.797674 
L 309.524995 120.75262 
L 310.680349 109.137458 
L 311.835704 103.286173 
L 312.991058 93.886029 
L 316.457121 95.667283 
L 317.612475 87.571172 
L 318.767829 89.911191 
L 319.923183 79.083555 
L 321.078538 71.971088 
L 324.5446 71.501628 
L 325.699955 68.111048 
L 326.855309 70.159117 
L 328.010663 81.770533 
L 329.166017 77.941256 
L 332.63208 74.750602 
L 333.787434 83.211946 
L 334.942789 90.492105 
L 336.098143 91.996205 
L 337.253497 92.153538 
L 341.874914 104.101429 
L 343.030269 101.914313 
L 344.185623 109.950612 
L 348.80704 107.454205 
L 349.962394 98.565279 
L 351.117748 96.783722 
L 352.273103 108.390796 
L 353.428457 124.455946 
L 356.89452 120.653309 
L 358.049874 127.717674 
L 359.205228 129.042781 
L 360.360582 108.718521 
L 361.515937 124.489361 
L 364.981999 118.788992 
L 366.137354 114.230114 
L 367.292708 94.218012 
L 368.448062 113.360107 
L 369.603416 110.620421 
L 373.069479 126.540219 
L 374.224833 130.835569 
L 375.380188 136.390303 
L 376.535542 140.610152 
L 377.690896 131.969247 
L 381.156959 133.278834 
L 382.312313 120.672242 
L 383.467667 143.168797 
L 384.623022 148.441381 
L 385.778376 153.156881 
L 389.244439 138.287547 
L 390.399793 147.337772 
L 391.555147 146.649609 
L 393.865856 125.420994 
L 398.487273 126.36083 
L 398.487273 126.36083 
" style="fill:none;stroke:#0d0d0d;stroke-linecap:square;stroke-opacity:0.25;stroke-width:2;"/>
   </g>
   <g id="patch_3">
    <path d="M 57.6 276.48 
L 57.6 41.472 
" style="fill:none;stroke:#000000;stroke-linecap:square;stroke-linejoin:miter;stroke-width:0.8;"/>
   </g>
   <g id="patch_4">
    <path d="M 414.72 276.48 
L 414.72 41.472 
" style="fill:none;stroke:#000000;stroke-linecap:square;stroke-linejoin:miter;stroke-width:0.8;"/>
   </g>
   <g id="patch_5">
    <path d="M 57.6 276.48 
L 414.72 276.48 
" style="fill:none;stroke:#000000;stroke-linecap:square;stroke-linejoin:miter;stroke-width:0.8;"/>
   </g>
   <g id="patch_6">
    <path d="M 57.6 41.472 
L 414.72 41.472 
" style="fill:none;stroke:#000000;stroke-linecap:square;stroke-linejoin:miter;stroke-width:0.8;"/>
   </g>
   <g id="text_17">
    <!-- TESTFUNDS1330 -->
    <g transform="translate(185.200312 22.034625)scale(0.12 -0.12)">
     <defs>
      <path d="M -19 4666 
L 3928 4666 
L 3928 4134 
L 2272 4134 
L 2272 0 
L 1638 0 
L 1638 4134 
L -19 4134 
L -19 4666 
z
" id="DejaVuSans-54" transform="scale(0.015625)"/>
      <path d="M 628 4666 
L 3578 4666 
L 3578 4134 
L 1259 4134 
L 1259 2753 
L 3481 2753 
L 3481 2222 
L 1259 2222 
L 1259 531 
L 3634 531 
L 3634 0 
L 628 0 
L 628 4666 
z
" id="DejaVuSans-45" transform="scale(0.015625)"/>
      <path d="M 3425 4513 
L 3425 3897 
Q 3066 4069 2747 4153 
Q 2428 4238 2131 4238 
Q 1616 4238 1336 4038 
Q 1056 3838 1056 3469 
Q 1056 3159 1242 3001 
Q 1428 2844 1947 2747 
L 2328 2669 
Q 3034 2534 3370 2195 
Q 3706 1856 3706 1288 
Q 3706 609 3251 259 
Q 2797 -91 1919 -91 
Q 1588 -91 1214 -16 
Q 841 59 441 206 
L 441 856 
Q 825 641 1194 531 
Q 1563 422 1919 422 
Q 2459 422 2753 634 
Q 3047 847 3047 1241 
Q 3047 1584 2836 1778 
Q 2625 1972 2144 2069 
L 1759 2144 
Q 1053 2284 737 2584 
Q 422 2884 422 3419 
Q 422 4038 858 4394 
Q 1294 4750 2059 4750 
Q 2388 4750 2728 4690 
Q 3069 4631 3425 4513 
z
" id="DejaVuSans-53" transform="scale(0.015625)"/>
      <path d="M 628 4666 
L 3309 4666 
L 3309 4134 
L 1259 4134 
L 1259 2759 
L 3109 2759 
L 3109 2228 
L 1259 2228 
L 1259 0 
L 628 0 
L 628 4666 
z
" id="DejaVuSans-46" transform="scale(0.015625)"/>
      <path d="M 556 4666 
L 1191 4666 
L 1191 1831 
Q 1191 1081 1462 751 
Q 1734 422 2344 422 
Q 2950 422 3222 751 
Q 3494 1081 3494 1831 
L 3494 4666 
L 4128 4666 
L 4128 1753 
Q 4128 841 3676 375 
Q 3225 -91 2344 -91 
Q 1459 -91 1007 375 
Q 556 841 556 1753 
L 556 4666 
z
" id="DejaVuSans-55" transform="scale(0.015625)"/>
      <path d="M 628 4666 
L 1478 4666 
L 3547 763 
L 3547 4666 
L 4159 4666 
L 4159 0 
L 3309 0 
L 1241 3903 
L 1241 0 
L 628 0 
L 628 4666 
z
" id="DejaVuSans-4e" transform="scale(0.015625)"/>
      <path d="M 1259 4147 
L 1259 519 
L 2022 519 
Q 2988 519 3436 956 
Q 3884 1394 3884 2338 
Q 3884 3275 3436 3711 
Q 2988 4147 2022 4147 
L 1259 4147 
z
M 628 4666 
L 1925 4666 
Q 3281 4666 3915 4102 
Q 4550 3538 4550 2338 
Q 4550 1131 3912 565 
Q 3275 0 1925 0 
L 628 0 
L 628 4666 
z
" id="DejaVuSans-44" transform="scale(0.015625)"/>
     </defs>
     <use xlink:href="#DejaVuSans-54"/>
     <use x="61.083984" xlink:href="#DejaVuSans-45"/>
     <use x="124.267578" xlink:href="#DejaVuSans-53"/>
     <use x="187.744141" xlink:href="#DejaVuSans-54"/>
     <use x="248.828125" xlink:href="#DejaVuSans-46"/>
     <use x="306.347656" xlink:href="#DejaVuSans-55"/>
     <use x="379.541016" xlink:href="#DejaVuSans-4e"/>
     <use x="454.345703" xlink:href="#DejaVuSans-44"/>
     <use x="531.347656" xlink:href="#DejaVuSans-53"/>
     <use x="594.824219" xlink:href="#DejaVuSans-31"/>
     <use x="658.447266" xlink:href="#DejaVuSans-33"/>
     <use x="722.070312" xlink:href="#DejaVuSans-33"/>
     <use x="785.693359" xlink:href="#DejaVuSans-30"/>
    </g>
    <!-- daily_report -->
    <g transform="translate(200.466563 35.472)scale(0.12 -0.12)">
     <defs>
      <path d="M 603 3500 
L 1178 3500 
L 1178 0 
L 603 0 
L 603 3500 
z
M 603 4863 
L 1178 4863 
L 1178 4134 
L 603 4134 
L 603 4863 
z
" id="DejaVuSans-69" transform="scale(0.015625)"/>
      <path d="M 603 4863 
L 1178 4863 
L 1178 0 
L 603 0 
L 603 4863 
z
" id="DejaVuSans-6c" transform="scale(0.015625)"/>
      <path d="M 2059 -325 
Q 1816 -950 1584 -1140 
Q 1353 -1331 966 -1331 
L 506 -1331 
L 506 -850 
L 844 -850 
Q 1081 -850 1212 -737 
Q 1344 -625 1503 -206 
L 1606 56 
L 191 3500 
L 800 3500 
L 1894 763 
L 2988 3500 
L 3597 3500 
L 2059 -325 
z
" id="DejaVuSans-79" transform="scale(0.015625)"/>
      <path d="M 3263 -1063 
L 3263 -1509 
L -63 -1509 
L -63 -1063 
L 3263 -1063 
z
" id="DejaVuSans-5f" transform="scale(0.015625)"/>
      <path d="M 2631 2963 
Q 2534 3019 2420 3045 
Q 2306 3072 2169 3072 
Q 1681 3072 1420 2755 
Q 1159 2438 1159 1844 
L 1159 0 
L 581 0 
L 581 3500 
L 1159 3500 
L 1159 2956 
Q 1341 3275 1631 3429 
Q 1922 3584 2338 3584 
Q 2397 3584 2469 3576 
Q 2541 3569 2628 3553 
L 2631 2963 
z
" id="DejaVuSans-72" transform="scale(0.015625)"/>
      <path d="M 1159 525 
L 1159 -1331 
L 581 -1331 
L 581 3500 
L 1159 3500 
L 1159 2969 
Q 1341 3281 1617 3432 
Q 1894 3584 2278 3584 
Q 2916 3584 3314 3078 
Q 3713 2572 3713 1747 
Q 3713 922 3314 415 
Q 2916 -91 2278 -91 
Q 1894 -91 1617 61 
Q 1341 213 1159 525 
z
M 3116 1747 
Q 3116 2381 2855 2742 
Q 2594 3103 2138 3103 
Q 1681 3103 1420 2742 
Q 1159 2381 1159 1747 
Q 1159 1113 1420 752 
Q 1681 391 2138 391 
Q 2594 391 2855 752 
Q 3116 1113 3116 1747 
z
" id="DejaVuSans-70" transform="scale(0.015625)"/>
      <path d="M 1959 3097 
Q 1497 3097 1228 2736 
Q 959 2375 959 1747 
Q 959 1119 1226 758 
Q 1494 397 1959 397 
Q 2419 397 2687 759 
Q 2956 1122 2956 1747 
Q 2956 2369 2687 2733 
Q 2419 3097 1959 3097 
z
M 1959 3584 
Q 2709 3584 3137 3096 
Q 3566 2609 3566 1747 
Q 3566 888 3137 398 
Q 2709 -91 1959 -91 
Q 1206 -91 779 398 
Q 353 888 353 1747 
Q 353 2609 779 3096 
Q 1206 3584 1959 3584 
z
" id="DejaVuSans-6f" transform="scale(0.015625)"/>
     </defs>
     <use xlink:href="#DejaVuSans-64"/>
     <use x="63.476562" xlink:href="#DejaVuSans-61"/>
     <use x="124.755859" xlink:href="#DejaVuSans-69"/>
     <use x="152.539062" xlink:href="#DejaVuSans-6c"/>
     <use x="180.322266" xlink:href="#DejaVuSans-79"/>
     <use x="239.501953" xlink:href="#DejaVuSans-5f"/>
     <use x="289.501953" xlink:href="#DejaVuSans-72"/>
     <use x="328.365234" xlink:href="#DejaVuSans-65"/>
     <use x="389.888672" xlink:href="#DejaVuSans-70"/>
     <use x="453.365234" xlink:href="#DejaVuSans-6f"/>
     <use x="514.546875" xlink:href="#DejaVuSans-72"/>
     <use x="555.660156" xlink:href="#DejaVuSans-74"/>
    </g>
   </g>
   <g id="legend_1">
    <g id="patch_7">
     <path d="M 64.6 271.48 
L 155.792188 271.48 
Q 157.792188 271.48 157.792188 269.48 
L 157.792188 197.089375 
Q 157.792188 195.089375 155.792188 195.089375 
L 64.6 195.089375 
Q 62.6 195.089375 62.6 197.089375 
L 62.6 269.48 
Q 62.6 271.48 64.6 271.48 
z
" style="fill:#ffffff;opacity:0.8;stroke:#cccccc;stroke-linejoin:miter;"/>
    </g>
    <g id="line2d_21">
     <path d="M 66.6 203.187812 
L 86.6 203.187812 
" style="fill:none;stroke:#0000ff;stroke-linecap:square;stroke-opacity:0.9;stroke-width:2;"/>
    </g>
    <g id="line2d_22"/>
    <g id="text_18">
     <!-- alpaca -->
     <g transform="translate(94.6 206.687812)scale(0.1 -0.1)">
      <defs>
       <path d="M 3122 3366 
L 3122 2828 
Q 2878 2963 2633 3030 
Q 2388 3097 2138 3097 
Q 1578 3097 1268 2742 
Q 959 2388 959 1747 
Q 959 1106 1268 751 
Q 1578 397 2138 397 
Q 2388 397 2633 464 
Q 2878 531 3122 666 
L 3122 134 
Q 2881 22 2623 -34 
Q 2366 -91 2075 -91 
Q 1284 -91 818 406 
Q 353 903 353 1747 
Q 353 2603 823 3093 
Q 1294 3584 2113 3584 
Q 2378 3584 2631 3529 
Q 2884 3475 3122 3366 
z
" id="DejaVuSans-63" transform="scale(0.015625)"/>
      </defs>
      <use xlink:href="#DejaVuSans-61"/>
      <use x="61.279297" xlink:href="#DejaVuSans-6c"/>
      <use x="89.0625" xlink:href="#DejaVuSans-70"/>
      <use x="152.539062" xlink:href="#DejaVuSans-61"/>
      <use x="213.818359" xlink:href="#DejaVuSans-63"/>
      <use x="268.798828" xlink:href="#DejaVuSans-61"/>
     </g>
    </g>
    <g id="line2d_23">
     <path d="M 66.6 217.865937 
L 86.6 217.865937 
" style="fill:none;stroke:#ff0000;stroke-linecap:square;stroke-opacity:0.9;stroke-width:2;"/>
    </g>
    <g id="line2d_24"/>
    <g id="text_19">
     <!-- mattress -->
     <g transform="translate(94.6 221.365937)scale(0.1 -0.1)">
      <defs>
       <path d="M 3328 2828 
Q 3544 3216 3844 3400 
Q 4144 3584 4550 3584 
Q 5097 3584 5394 3201 
Q 5691 2819 5691 2113 
L 5691 0 
L 5113 0 
L 5113 2094 
Q 5113 2597 4934 2840 
Q 4756 3084 4391 3084 
Q 3944 3084 3684 2787 
Q 3425 2491 3425 1978 
L 3425 0 
L 2847 0 
L 2847 2094 
Q 2847 2600 2669 2842 
Q 2491 3084 2119 3084 
Q 1678 3084 1418 2786 
Q 1159 2488 1159 1978 
L 1159 0 
L 581 0 
L 581 3500 
L 1159 3500 
L 1159 2956 
Q 1356 3278 1631 3431 
Q 1906 3584 2284 3584 
Q 2666 3584 2933 3390 
Q 3200 3197 3328 2828 
z
" id="DejaVuSans-6d" transform="scale(0.015625)"/>
       <path d="M 2834 3397 
L 2834 2853 
Q 2591 2978 2328 3040 
Q 2066 3103 1784 3103 
Q 1356 3103 1142 2972 
Q 928 2841 928 2578 
Q 928 2378 1081 2264 
Q 1234 2150 1697 2047 
L 1894 2003 
Q 2506 1872 2764 1633 
Q 3022 1394 3022 966 
Q 3022 478 2636 193 
Q 2250 -91 1575 -91 
Q 1294 -91 989 -36 
Q 684 19 347 128 
L 347 722 
Q 666 556 975 473 
Q 1284 391 1588 391 
Q 1994 391 2212 530 
Q 2431 669 2431 922 
Q 2431 1156 2273 1281 
Q 2116 1406 1581 1522 
L 1381 1569 
Q 847 1681 609 1914 
Q 372 2147 372 2553 
Q 372 3047 722 3315 
Q 1072 3584 1716 3584 
Q 2034 3584 2315 3537 
Q 2597 3491 2834 3397 
z
" id="DejaVuSans-73" transform="scale(0.015625)"/>
      </defs>
      <use xlink:href="#DejaVuSans-6d"/>
      <use x="97.412109" xlink:href="#DejaVuSans-61"/>
      <use x="158.691406" xlink:href="#DejaVuSans-74"/>
      <use x="197.900391" xlink:href="#DejaVuSans-74"/>
      <use x="237.109375" xlink:href="#DejaVuSans-72"/>
      <use x="275.972656" xlink:href="#DejaVuSans-65"/>
      <use x="337.496094" xlink:href="#DejaVuSans-73"/>
      <use x="389.595703" xlink:href="#DejaVuSans-73"/>
     </g>
    </g>
    <g id="line2d_25">
     <path d="M 66.6 232.544062 
L 86.6 232.544062 
" style="fill:none;stroke:#ff8040;stroke-linecap:square;stroke-opacity:0.9;stroke-width:2;"/>
    </g>
    <g id="line2d_26"/>
    <g id="text_20">
     <!-- trader-0850 -->
     <g transform="translate(94.6 236.044062)scale(0.1 -0.1)">
      <use xlink:href="#DejaVuSans-74"/>
      <use x="39.208984" xlink:href="#DejaVuSans-72"/>
      <use x="80.322266" xlink:href="#DejaVuSans-61"/>
      <use x="141.601562" xlink:href="#DejaVuSans-64"/>
      <use x="205.078125" xlink:href="#DejaVuSans-65"/>
      <use x="266.601562" xlink:href="#DejaVuSans-72"/>
      <use x="301.339844" xlink:href="#DejaVuSans-2d"/>
      <use x="337.423828" xlink:href="#DejaVuSans-30"/>
      <use x="401.046875" xlink:href="#DejaVuSans-38"/>
      <use x="464.669922" xlink:href="#DejaVuSans-35"/>
      <use x="528.292969" xlink:href="#DejaVuSans-30"/>
     </g>
    </g>
    <g id="line2d_27">
     <path d="M 66.6 247.222187 
L 86.6 247.222187 
" style="fill:none;stroke:#0d0d0d;stroke-linecap:square;stroke-opacity:0.25;stroke-width:2;"/>
    </g>
    <g id="line2d_28"/>
    <g id="text_21">
     <!-- rando-min -->
     <g transform="translate(94.6 250.722187)scale(0.1 -0.1)">
      <defs>
       <path d="M 3513 2113 
L 3513 0 
L 2938 0 
L 2938 2094 
Q 2938 2591 2744 2837 
Q 2550 3084 2163 3084 
Q 1697 3084 1428 2787 
Q 1159 2491 1159 1978 
L 1159 0 
L 581 0 
L 581 3500 
L 1159 3500 
L 1159 2956 
Q 1366 3272 1645 3428 
Q 1925 3584 2291 3584 
Q 2894 3584 3203 3211 
Q 3513 2838 3513 2113 
z
" id="DejaVuSans-6e" transform="scale(0.015625)"/>
      </defs>
      <use xlink:href="#DejaVuSans-72"/>
      <use x="41.113281" xlink:href="#DejaVuSans-61"/>
      <use x="102.392578" xlink:href="#DejaVuSans-6e"/>
      <use x="165.771484" xlink:href="#DejaVuSans-64"/>
      <use x="229.248047" xlink:href="#DejaVuSans-6f"/>
      <use x="292.304688" xlink:href="#DejaVuSans-2d"/>
      <use x="328.388672" xlink:href="#DejaVuSans-6d"/>
      <use x="425.800781" xlink:href="#DejaVuSans-69"/>
      <use x="453.583984" xlink:href="#DejaVuSans-6e"/>
     </g>
    </g>
    <g id="line2d_29">
     <path d="M 66.6 261.900312 
L 86.6 261.900312 
" style="fill:none;stroke:#0d0d0d;stroke-linecap:square;stroke-opacity:0.25;stroke-width:2;"/>
    </g>
    <g id="line2d_30"/>
    <g id="text_22">
     <!-- rando-max -->
     <g transform="translate(94.6 265.400312)scale(0.1 -0.1)">
      <defs>
       <path d="M 3513 3500 
L 2247 1797 
L 3578 0 
L 2900 0 
L 1881 1375 
L 863 0 
L 184 0 
L 1544 1831 
L 300 3500 
L 978 3500 
L 1906 2253 
L 2834 3500 
L 3513 3500 
z
" id="DejaVuSans-78" transform="scale(0.015625)"/>
      </defs>
      <use xlink:href="#DejaVuSans-72"/>
      <use x="41.113281" xlink:href="#DejaVuSans-61"/>
      <use x="102.392578" xlink:href="#DejaVuSans-6e"/>
      <use x="165.771484" xlink:href="#DejaVuSans-64"/>
      <use x="229.248047" xlink:href="#DejaVuSans-6f"/>
      <use x="292.304688" xlink:href="#DejaVuSans-2d"/>
      <use x="328.388672" xlink:href="#DejaVuSans-6d"/>
      <use x="425.800781" xlink:href="#DejaVuSans-61"/>
      <use x="487.080078" xlink:href="#DejaVuSans-78"/>
     </g>
    </g>
   </g>
  </g>
 </g>
 <defs>
  <clipPath id="p8f1e0c5a26">
   <rect height="235.008" width="357.12" x="57.6" y="41.472"/>
  </clipPath>
 </defs>
</svg>
