<?xml version="1.0" encoding="utf-8" standalone="no"?>
<!DOCTYPE svg PUBLIC "-//W3C//DTD SVG 1.1//EN"
  "http://www.w3.org/Graphics/SVG/1.1/DTD/svg11.dtd">
<svg height="345.6pt" version="1.1" viewBox="0 0 460.8 345.6" width="460.8pt" xmlns="http://www.w3.org/2000/svg" xmlns:xlink="http://www.w3.org/1999/xlink">
 <metadata>
  <rdf:RDF xmlns:cc="http://creativecommons.org/ns#" xmlns:dc="http://purl.org/dc/elements/1.1/" xmlns:rdf="http://www.w3.org/1999/02/22-rdf-syntax-ns#">
   <cc:Work>
    <dc:type rdf:resource="http://purl.org/dc/dcmitype/StillImage"/>
    <dc:date>2022-06-01T01:01:55.684301</dc:date>
    <dc:format>image/svg+xml</dc:format>
    <dc:creator>
     <cc:Agent>
      <dc:title>Matplotlib v3.4.3, https://matplotlib.org/</dc:title>
     </cc:Agent>
    </dc:creator>
   </cc:Work>
  </rdf:RDF>
 </metadata>
 <defs>
  <style type="text/css">*{stroke-linecap:butt;stroke-linejoin:round;}</style>
 </defs>
 <g id="figure_1">
  <g id="patch_1">
   <path d="M 0 345.6 
L 460.8 345.6 
L 460.8 0 
L 0 0 
z
" style="fill:#ffffff;"/>
  </g>
  <g id="axes_1">
   <g id="patch_2">
    <path d="M 57.6 276.48 
L 414.72 276.48 
L 414.72 41.472 
L 57.6 41.472 
z
" style="fill:#ffffff;"/>
   </g>
   <g id="matplotlib.axis_1">
    <g id="xtick_1">
     <g id="line2d_1">
      <defs>
       <path d="M 0 0 
L 0 3.5 
" id="m78e06b48ee" style="stroke:#000000;stroke-width:0.8;"/>
      </defs>
      <g>
       <use style="stroke:#000000;stroke-width:0.8;" x="84.230916" xlink:href="#m78e06b48ee" y="276.48"/>
      </g>
     </g>
     <g id="text_1">
      <!-- 2021-09 -->
      <g transform="translate(47.006095 310.951846)rotate(-30)scale(0.1 -0.1)">
       <defs>
        <path d="M 1228 531 
L 3431 531 
L 3431 0 
L 469 0 
L 469 531 
Q 828 903 1448 1529 
Q 2069 2156 2228 2338 
Q 2531 2678 2651 2914 
Q 2772 3150 2772 3378 
Q 2772 3750 2511 3984 
Q 2250 4219 1831 4219 
Q 1534 4219 1204 4116 
Q 875 4013 500 3803 
L 500 4441 
Q 881 4594 1212 4672 
Q 1544 4750 1819 4750 
Q 2544 4750 2975 4387 
Q 3406 4025 3406 3419 
Q 3406 3131 3298 2873 
Q 3191 2616 2906 2266 
Q 2828 2175 2409 1742 
Q 1991 1309 1228 531 
z
" id="DejaVuSans-32" transform="scale(0.015625)"/>
        <path d="M 2034 4250 
Q 1547 4250 1301 3770 
Q 1056 3291 1056 2328 
Q 1056 1369 1301 889 
Q 1547 409 2034 409 
Q 2525 409 2770 889 
Q 3016 1369 3016 2328 
Q 3016 3291 2770 3770 
Q 2525 4250 2034 4250 
z
M 2034 4750 
Q 2819 4750 3233 4129 
Q 3647 3509 3647 2328 
Q 3647 1150 3233 529 
Q 2819 -91 2034 -91 
Q 1250 -91 836 529 
Q 422 1150 422 2328 
Q 422 3509 836 4129 
Q 1250 4750 2034 4750 
z
" id="DejaVuSans-30" transform="scale(0.015625)"/>
        <path d="M 794 531 
L 1825 531 
L 1825 4091 
L 703 3866 
L 703 4441 
L 1819 4666 
L 2450 4666 
L 2450 531 
L 3481 531 
L 3481 0 
L 794 0 
L 794 531 
z
" id="DejaVuSans-31" transform="scale(0.015625)"/>
        <path d="M 313 2009 
L 1997 2009 
L 1997 1497 
L 313 1497 
L 313 2009 
z
" id="DejaVuSans-2d" transform="scale(0.015625)"/>
        <path d="M 703 97 
L 703 672 
Q 941 559 1184 500 
Q 1428 441 1663 441 
Q 2288 441 2617 861 
Q 2947 1281 2994 2138 
Q 2813 1869 2534 1725 
Q 2256 1581 1919 1581 
Q 1219 1581 811 2004 
Q 403 2428 403 3163 
Q 403 3881 828 4315 
Q 1253 4750 1959 4750 
Q 2769 4750 3195 4129 
Q 3622 3509 3622 2328 
Q 3622 1225 3098 567 
Q 2575 -91 1691 -91 
Q 1453 -91 1209 -44 
Q 966 3 703 97 
z
M 1959 2075 
Q 2384 2075 2632 2365 
Q 2881 2656 2881 3163 
Q 2881 3666 2632 3958 
Q 2384 4250 1959 4250 
Q 1534 4250 1286 3958 
Q 1038 3666 1038 3163 
Q 1038 2656 1286 2365 
Q 1534 2075 1959 2075 
z
" id="DejaVuSans-39" transform="scale(0.015625)"/>
       </defs>
       <use xlink:href="#DejaVuSans-32"/>
       <use x="63.623047" xlink:href="#DejaVuSans-30"/>
       <use x="127.246094" xlink:href="#DejaVuSans-32"/>
       <use x="190.869141" xlink:href="#DejaVuSans-31"/>
       <use x="254.492188" xlink:href="#DejaVuSans-2d"/>
       <use x="290.576172" xlink:href="#DejaVuSans-30"/>
       <use x="354.199219" xlink:href="#DejaVuSans-39"/>
      </g>
     </g>
    </g>
    <g id="xtick_2">
     <g id="line2d_2">
      <g>
       <use style="stroke:#000000;stroke-width:0.8;" x="118.891543" xlink:href="#m78e06b48ee" y="276.48"/>
      </g>
     </g>
     <g id="text_2">
      <!-- 2021-10 -->
      <g transform="translate(81.666722 310.951846)rotate(-30)scale(0.1 -0.1)">
       <use xlink:href="#DejaVuSans-32"/>
       <use x="63.623047" xlink:href="#DejaVuSans-30"/>
       <use x="127.246094" xlink:href="#DejaVuSans-32"/>
       <use x="190.869141" xlink:href="#DejaVuSans-31"/>
       <use x="254.492188" xlink:href="#DejaVuSans-2d"/>
       <use x="290.576172" xlink:href="#DejaVuSans-31"/>
       <use x="354.199219" xlink:href="#DejaVuSans-30"/>
      </g>
     </g>
    </g>
    <g id="xtick_3">
     <g id="line2d_3">
      <g>
       <use style="stroke:#000000;stroke-width:0.8;" x="154.707525" xlink:href="#m78e06b48ee" y="276.48"/>
      </g>
     </g>
     <g id="text_3">
      <!-- 2021-11 -->
      <g transform="translate(117.482704 310.951846)rotate(-30)scale(0.1 -0.1)">
       <use xlink:href="#DejaVuSans-32"/>
       <use x="63.623047" xlink:href="#DejaVuSans-30"/>
       <use x="127.246094" xlink:href="#DejaVuSans-32"/>
       <use x="190.869141" xlink:href="#DejaVuSans-31"/>
       <use x="254.492188" xlink:href="#DejaVuSans-2d"/>
       <use x="290.576172" xlink:href="#DejaVuSans-31"/>
       <use x="354.199219" xlink:href="#DejaVuSans-31"/>
      </g>
     </g>
    </g>
    <g id="xtick_4">
     <g id="line2d_4">
      <g>
       <use style="stroke:#000000;stroke-width:0.8;" x="189.368153" xlink:href="#m78e06b48ee" y="276.48"/>
      </g>
     </g>
     <g id="text_4">
      <!-- 2021-12 -->
      <g transform="translate(152.143332 310.951846)rotate(-30)scale(0.1 -0.1)">
       <use xlink:href="#DejaVuSans-32"/>
       <use x="63.623047" xlink:href="#DejaVuSans-30"/>
       <use x="127.246094" xlink:href="#DejaVuSans-32"/>
       <use x="190.869141" xlink:href="#DejaVuSans-31"/>
       <use x="254.492188" xlink:href="#DejaVuSans-2d"/>
       <use x="290.576172" xlink:href="#DejaVuSans-31"/>
       <use x="354.199219" xlink:href="#DejaVuSans-32"/>
      </g>
     </g>
    </g>
    <g id="xtick_5">
     <g id="line2d_5">
      <g>
       <use style="stroke:#000000;stroke-width:0.8;" x="225.184135" xlink:href="#m78e06b48ee" y="276.48"/>
      </g>
     </g>
     <g id="text_5">
      <!-- 2022-01 -->
      <g transform="translate(187.959314 310.951846)rotate(-30)scale(0.1 -0.1)">
       <use xlink:href="#DejaVuSans-32"/>
       <use x="63.623047" xlink:href="#DejaVuSans-30"/>
       <use x="127.246094" xlink:href="#DejaVuSans-32"/>
       <use x="190.869141" xlink:href="#DejaVuSans-32"/>
       <use x="254.492188" xlink:href="#DejaVuSans-2d"/>
       <use x="290.576172" xlink:href="#DejaVuSans-30"/>
       <use x="354.199219" xlink:href="#DejaVuSans-31"/>
      </g>
     </g>
    </g>
    <g id="xtick_6">
     <g id="line2d_6">
      <g>
       <use style="stroke:#000000;stroke-width:0.8;" x="261.000116" xlink:href="#m78e06b48ee" y="276.48"/>
      </g>
     </g>
     <g id="text_6">
      <!-- 2022-02 -->
      <g transform="translate(223.775296 310.951846)rotate(-30)scale(0.1 -0.1)">
       <use xlink:href="#DejaVuSans-32"/>
       <use x="63.623047" xlink:href="#DejaVuSans-30"/>
       <use x="127.246094" xlink:href="#DejaVuSans-32"/>
       <use x="190.869141" xlink:href="#DejaVuSans-32"/>
       <use x="254.492188" xlink:href="#DejaVuSans-2d"/>
       <use x="290.576172" xlink:href="#DejaVuSans-30"/>
       <use x="354.199219" xlink:href="#DejaVuSans-32"/>
      </g>
     </g>
    </g>
    <g id="xtick_7">
     <g id="line2d_7">
      <g>
       <use style="stroke:#000000;stroke-width:0.8;" x="293.350036" xlink:href="#m78e06b48ee" y="276.48"/>
      </g>
     </g>
     <g id="text_7">
      <!-- 2022-03 -->
      <g transform="translate(256.125215 310.951846)rotate(-30)scale(0.1 -0.1)">
       <defs>
        <path d="M 2597 2516 
Q 3050 2419 3304 2112 
Q 3559 1806 3559 1356 
Q 3559 666 3084 287 
Q 2609 -91 1734 -91 
Q 1441 -91 1130 -33 
Q 819 25 488 141 
L 488 750 
Q 750 597 1062 519 
Q 1375 441 1716 441 
Q 2309 441 2620 675 
Q 2931 909 2931 1356 
Q 2931 1769 2642 2001 
Q 2353 2234 1838 2234 
L 1294 2234 
L 1294 2753 
L 1863 2753 
Q 2328 2753 2575 2939 
Q 2822 3125 2822 3475 
Q 2822 3834 2567 4026 
Q 2313 4219 1838 4219 
Q 1578 4219 1281 4162 
Q 984 4106 628 3988 
L 628 4550 
Q 988 4650 1302 4700 
Q 1616 4750 1894 4750 
Q 2613 4750 3031 4423 
Q 3450 4097 3450 3541 
Q 3450 3153 3228 2886 
Q 3006 2619 2597 2516 
z
" id="DejaVuSans-33" transform="scale(0.015625)"/>
       </defs>
       <use xlink:href="#DejaVuSans-32"/>
       <use x="63.623047" xlink:href="#DejaVuSans-30"/>
       <use x="127.246094" xlink:href="#DejaVuSans-32"/>
       <use x="190.869141" xlink:href="#DejaVuSans-32"/>
       <use x="254.492188" xlink:href="#DejaVuSans-2d"/>
       <use x="290.576172" xlink:href="#DejaVuSans-30"/>
       <use x="354.199219" xlink:href="#DejaVuSans-33"/>
      </g>
     </g>
    </g>
    <g id="xtick_8">
     <g id="line2d_8">
      <g>
       <use style="stroke:#000000;stroke-width:0.8;" x="329.166017" xlink:href="#m78e06b48ee" y="276.48"/>
      </g>
     </g>
     <g id="text_8">
      <!-- 2022-04 -->
      <g transform="translate(291.941197 310.951846)rotate(-30)scale(0.1 -0.1)">
       <defs>
        <path d="M 2419 4116 
L 825 1625 
L 2419 1625 
L 2419 4116 
z
M 2253 4666 
L 3047 4666 
L 3047 1625 
L 3713 1625 
L 3713 1100 
L 3047 1100 
L 3047 0 
L 2419 0 
L 2419 1100 
L 313 1100 
L 313 1709 
L 2253 4666 
z
" id="DejaVuSans-34" transform="scale(0.015625)"/>
       </defs>
       <use xlink:href="#DejaVuSans-32"/>
       <use x="63.623047" xlink:href="#DejaVuSans-30"/>
       <use x="127.246094" xlink:href="#DejaVuSans-32"/>
       <use x="190.869141" xlink:href="#DejaVuSans-32"/>
       <use x="254.492188" xlink:href="#DejaVuSans-2d"/>
       <use x="290.576172" xlink:href="#DejaVuSans-30"/>
       <use x="354.199219" xlink:href="#DejaVuSans-34"/>
      </g>
     </g>
    </g>
    <g id="xtick_9">
     <g id="line2d_9">
      <g>
       <use style="stroke:#000000;stroke-width:0.8;" x="363.826645" xlink:href="#m78e06b48ee" y="276.48"/>
      </g>
     </g>
     <g id="text_9">
      <!-- 2022-05 -->
      <g transform="translate(326.601824 310.951846)rotate(-30)scale(0.1 -0.1)">
       <defs>
        <path d="M 691 4666 
L 3169 4666 
L 3169 4134 
L 1269 4134 
L 1269 2991 
Q 1406 3038 1543 3061 
Q 1681 3084 1819 3084 
Q 2600 3084 3056 2656 
Q 3513 2228 3513 1497 
Q 3513 744 3044 326 
Q 2575 -91 1722 -91 
Q 1428 -91 1123 -41 
Q 819 9 494 109 
L 494 744 
Q 775 591 1075 516 
Q 1375 441 1709 441 
Q 2250 441 2565 725 
Q 2881 1009 2881 1497 
Q 2881 1984 2565 2268 
Q 2250 2553 1709 2553 
Q 1456 2553 1204 2497 
Q 953 2441 691 2322 
L 691 4666 
z
" id="DejaVuSans-35" transform="scale(0.015625)"/>
       </defs>
       <use xlink:href="#DejaVuSans-32"/>
       <use x="63.623047" xlink:href="#DejaVuSans-30"/>
       <use x="127.246094" xlink:href="#DejaVuSans-32"/>
       <use x="190.869141" xlink:href="#DejaVuSans-32"/>
       <use x="254.492188" xlink:href="#DejaVuSans-2d"/>
       <use x="290.576172" xlink:href="#DejaVuSans-30"/>
       <use x="354.199219" xlink:href="#DejaVuSans-35"/>
      </g>
     </g>
    </g>
    <g id="xtick_10">
     <g id="line2d_10">
      <g>
       <use style="stroke:#000000;stroke-width:0.8;" x="399.642627" xlink:href="#m78e06b48ee" y="276.48"/>
      </g>
     </g>
     <g id="text_10">
      <!-- 2022-06 -->
      <g transform="translate(362.417806 310.951846)rotate(-30)scale(0.1 -0.1)">
       <defs>
        <path d="M 2113 2584 
Q 1688 2584 1439 2293 
Q 1191 2003 1191 1497 
Q 1191 994 1439 701 
Q 1688 409 2113 409 
Q 2538 409 2786 701 
Q 3034 994 3034 1497 
Q 3034 2003 2786 2293 
Q 2538 2584 2113 2584 
z
M 3366 4563 
L 3366 3988 
Q 3128 4100 2886 4159 
Q 2644 4219 2406 4219 
Q 1781 4219 1451 3797 
Q 1122 3375 1075 2522 
Q 1259 2794 1537 2939 
Q 1816 3084 2150 3084 
Q 2853 3084 3261 2657 
Q 3669 2231 3669 1497 
Q 3669 778 3244 343 
Q 2819 -91 2113 -91 
Q 1303 -91 875 529 
Q 447 1150 447 2328 
Q 447 3434 972 4092 
Q 1497 4750 2381 4750 
Q 2619 4750 2861 4703 
Q 3103 4656 3366 4563 
z
" id="DejaVuSans-36" transform="scale(0.015625)"/>
       </defs>
       <use xlink:href="#DejaVuSans-32"/>
       <use x="63.623047" xlink:href="#DejaVuSans-30"/>
       <use x="127.246094" xlink:href="#DejaVuSans-32"/>
       <use x="190.869141" xlink:href="#DejaVuSans-32"/>
       <use x="254.492188" xlink:href="#DejaVuSans-2d"/>
       <use x="290.576172" xlink:href="#DejaVuSans-30"/>
       <use x="354.199219" xlink:href="#DejaVuSans-36"/>
      </g>
     </g>
    </g>
    <g id="text_11">
     <!-- date -->
     <g transform="translate(224.885 324.351346)scale(0.1 -0.1)">
      <defs>
       <path d="M 2906 2969 
L 2906 4863 
L 3481 4863 
L 3481 0 
L 2906 0 
L 2906 525 
Q 2725 213 2448 61 
Q 2172 -91 1784 -91 
Q 1150 -91 751 415 
Q 353 922 353 1747 
Q 353 2572 751 3078 
Q 1150 3584 1784 3584 
Q 2172 3584 2448 3432 
Q 2725 3281 2906 2969 
z
M 947 1747 
Q 947 1113 1208 752 
Q 1469 391 1925 391 
Q 2381 391 2643 752 
Q 2906 1113 2906 1747 
Q 2906 2381 2643 2742 
Q 2381 3103 1925 3103 
Q 1469 3103 1208 2742 
Q 947 2381 947 1747 
z
" id="DejaVuSans-64" transform="scale(0.015625)"/>
       <path d="M 2194 1759 
Q 1497 1759 1228 1600 
Q 959 1441 959 1056 
Q 959 750 1161 570 
Q 1363 391 1709 391 
Q 2188 391 2477 730 
Q 2766 1069 2766 1631 
L 2766 1759 
L 2194 1759 
z
M 3341 1997 
L 3341 0 
L 2766 0 
L 2766 531 
Q 2569 213 2275 61 
Q 1981 -91 1556 -91 
Q 1019 -91 701 211 
Q 384 513 384 1019 
Q 384 1609 779 1909 
Q 1175 2209 1959 2209 
L 2766 2209 
L 2766 2266 
Q 2766 2663 2505 2880 
Q 2244 3097 1772 3097 
Q 1472 3097 1187 3025 
Q 903 2953 641 2809 
L 641 3341 
Q 956 3463 1253 3523 
Q 1550 3584 1831 3584 
Q 2591 3584 2966 3190 
Q 3341 2797 3341 1997 
z
" id="DejaVuSans-61" transform="scale(0.015625)"/>
       <path d="M 1172 4494 
L 1172 3500 
L 2356 3500 
L 2356 3053 
L 1172 3053 
L 1172 1153 
Q 1172 725 1289 603 
Q 1406 481 1766 481 
L 2356 481 
L 2356 0 
L 1766 0 
Q 1100 0 847 248 
Q 594 497 594 1153 
L 594 3053 
L 172 3053 
L 172 3500 
L 594 3500 
L 594 4494 
L 1172 4494 
z
" id="DejaVuSans-74" transform="scale(0.015625)"/>
       <path d="M 3597 1894 
L 3597 1613 
L 953 1613 
Q 991 1019 1311 708 
Q 1631 397 2203 397 
Q 2534 397 2845 478 
Q 3156 559 3463 722 
L 3463 178 
Q 3153 47 2828 -22 
Q 2503 -91 2169 -91 
Q 1331 -91 842 396 
Q 353 884 353 1716 
Q 353 2575 817 3079 
Q 1281 3584 2069 3584 
Q 2775 3584 3186 3129 
Q 3597 2675 3597 1894 
z
M 3022 2063 
Q 3016 2534 2758 2815 
Q 2500 3097 2075 3097 
Q 1594 3097 1305 2825 
Q 1016 2553 972 2059 
L 3022 2063 
z
" id="DejaVuSans-65" transform="scale(0.015625)"/>
      </defs>
      <use xlink:href="#DejaVuSans-64"/>
      <use x="63.476562" xlink:href="#DejaVuSans-61"/>
      <use x="124.755859" xlink:href="#DejaVuSans-74"/>
      <use x="163.964844" xlink:href="#DejaVuSans-65"/>
     </g>
    </g>
   </g>
   <g id="matplotlib.axis_2">
    <g id="ytick_1">
     <g id="line2d_11">
      <defs>
       <path d="M 0 0 
L -3.5 0 
" id="md1055a08e1" style="stroke:#000000;stroke-width:0.8;"/>
      </defs>
      <g>
       <use style="stroke:#000000;stroke-width:0.8;" x="57.6" xlink:href="#md1055a08e1" y="255.8024"/>
      </g>
     </g>
     <g id="text_12">
      <!-- 80000 -->
      <g transform="translate(18.7875 259.601618)scale(0.1 -0.1)">
       <defs>
        <path d="M 2034 2216 
Q 1584 2216 1326 1975 
Q 1069 1734 1069 1313 
Q 1069 891 1326 650 
Q 1584 409 2034 409 
Q 2484 409 2743 651 
Q 3003 894 3003 1313 
Q 3003 1734 2745 1975 
Q 2488 2216 2034 2216 
z
M 1403 2484 
Q 997 2584 770 2862 
Q 544 3141 544 3541 
Q 544 4100 942 4425 
Q 1341 4750 2034 4750 
Q 2731 4750 3128 4425 
Q 3525 4100 3525 3541 
Q 3525 3141 3298 2862 
Q 3072 2584 2669 2484 
Q 3125 2378 3379 2068 
Q 3634 1759 3634 1313 
Q 3634 634 3220 271 
Q 2806 -91 2034 -91 
Q 1263 -91 848 271 
Q 434 634 434 1313 
Q 434 1759 690 2068 
Q 947 2378 1403 2484 
z
M 1172 3481 
Q 1172 3119 1398 2916 
Q 1625 2713 2034 2713 
Q 2441 2713 2670 2916 
Q 2900 3119 2900 3481 
Q 2900 3844 2670 4047 
Q 2441 4250 2034 4250 
Q 1625 4250 1398 4047 
Q 1172 3844 1172 3481 
z
" id="DejaVuSans-38" transform="scale(0.015625)"/>
       </defs>
       <use xlink:href="#DejaVuSans-38"/>
       <use x="63.623047" xlink:href="#DejaVuSans-30"/>
       <use x="127.246094" xlink:href="#DejaVuSans-30"/>
       <use x="190.869141" xlink:href="#DejaVuSans-30"/>
       <use x="254.492188" xlink:href="#DejaVuSans-30"/>
      </g>
     </g>
    </g>
    <g id="ytick_2">
     <g id="line2d_12">
      <g>
       <use style="stroke:#000000;stroke-width:0.8;" x="57.6" xlink:href="#md1055a08e1" y="228.807445"/>
      </g>
     </g>
     <g id="text_13">
      <!-- 85000 -->
      <g transform="translate(18.7875 232.606664)scale(0.1 -0.1)">
       <use xlink:href="#DejaVuSans-38"/>
       <use x="63.623047" xlink:href="#DejaVuSans-35"/>
       <use x="127.246094" xlink:href="#DejaVuSans-30"/>
       <use x="190.869141" xlink:href="#DejaVuSans-30"/>
       <use x="254.492188" xlink:href="#DejaVuSans-30"/>
      </g>
     </g>
    </g>
    <g id="ytick_3">
     <g id="line2d_13">
      <g>
       <use style="stroke:#000000;stroke-width:0.8;" x="57.6" xlink:href="#md1055a08e1" y="201.81249"/>
      </g>
     </g>
     <g id="text_14">
      <!-- 90000 -->
      <g transform="translate(18.7875 205.611709)scale(0.1 -0.1)">
       <use xlink:href="#DejaVuSans-39"/>
       <use x="63.623047" xlink:href="#DejaVuSans-30"/>
       <use x="127.246094" xlink:href="#DejaVuSans-30"/>
       <use x="190.869141" xlink:href="#DejaVuSans-30"/>
       <use x="254.492188" xlink:href="#DejaVuSans-30"/>
      </g>
     </g>
    </g>
    <g id="ytick_4">
     <g id="line2d_14">
      <g>
       <use style="stroke:#000000;stroke-width:0.8;" x="57.6" xlink:href="#md1055a08e1" y="174.817536"/>
      </g>
     </g>
     <g id="text_15">
      <!-- 95000 -->
      <g transform="translate(18.7875 178.616755)scale(0.1 -0.1)">
       <use xlink:href="#DejaVuSans-39"/>
       <use x="63.623047" xlink:href="#DejaVuSans-35"/>
       <use x="127.246094" xlink:href="#DejaVuSans-30"/>
       <use x="190.869141" xlink:href="#DejaVuSans-30"/>
       <use x="254.492188" xlink:href="#DejaVuSans-30"/>
      </g>
     </g>
    </g>
    <g id="ytick_5">
     <g id="line2d_15">
      <g>
       <use style="stroke:#000000;stroke-width:0.8;" x="57.6" xlink:href="#md1055a08e1" y="147.822581"/>
      </g>
     </g>
     <g id="text_16">
      <!-- 100000 -->
      <g transform="translate(12.425 151.6218)scale(0.1 -0.1)">
       <use xlink:href="#DejaVuSans-31"/>
       <use x="63.623047" xlink:href="#DejaVuSans-30"/>
       <use x="127.246094" xlink:href="#DejaVuSans-30"/>
       <use x="190.869141" xlink:href="#DejaVuSans-30"/>
       <use x="254.492188" xlink:href="#DejaVuSans-30"/>
       <use x="318.115234" xlink:href="#DejaVuSans-30"/>
      </g>
     </g>
    </g>
    <g id="ytick_6">
     <g id="line2d_16">
      <g>
       <use style="stroke:#000000;stroke-width:0.8;" x="57.6" xlink:href="#md1055a08e1" y="120.827627"/>
      </g>
     </g>
     <g id="text_17">
      <!-- 105000 -->
      <g transform="translate(12.425 124.626846)scale(0.1 -0.1)">
       <use xlink:href="#DejaVuSans-31"/>
       <use x="63.623047" xlink:href="#DejaVuSans-30"/>
       <use x="127.246094" xlink:href="#DejaVuSans-35"/>
       <use x="190.869141" xlink:href="#DejaVuSans-30"/>
       <use x="254.492188" xlink:href="#DejaVuSans-30"/>
       <use x="318.115234" xlink:href="#DejaVuSans-30"/>
      </g>
     </g>
    </g>
    <g id="ytick_7">
     <g id="line2d_17">
      <g>
       <use style="stroke:#000000;stroke-width:0.8;" x="57.6" xlink:href="#md1055a08e1" y="93.832672"/>
      </g>
     </g>
     <g id="text_18">
      <!-- 110000 -->
      <g transform="translate(12.425 97.631891)scale(0.1 -0.1)">
       <use xlink:href="#DejaVuSans-31"/>
       <use x="63.623047" xlink:href="#DejaVuSans-31"/>
       <use x="127.246094" xlink:href="#DejaVuSans-30"/>
       <use x="190.869141" xlink:href="#DejaVuSans-30"/>
       <use x="254.492188" xlink:href="#DejaVuSans-30"/>
       <use x="318.115234" xlink:href="#DejaVuSans-30"/>
      </g>
     </g>
    </g>
    <g id="ytick_8">
     <g id="line2d_18">
      <g>
       <use style="stroke:#000000;stroke-width:0.8;" x="57.6" xlink:href="#md1055a08e1" y="66.837718"/>
      </g>
     </g>
     <g id="text_19">
      <!-- 115000 -->
      <g transform="translate(12.425 70.636936)scale(0.1 -0.1)">
       <use xlink:href="#DejaVuSans-31"/>
       <use x="63.623047" xlink:href="#DejaVuSans-31"/>
       <use x="127.246094" xlink:href="#DejaVuSans-35"/>
       <use x="190.869141" xlink:href="#DejaVuSans-30"/>
       <use x="254.492188" xlink:href="#DejaVuSans-30"/>
       <use x="318.115234" xlink:href="#DejaVuSans-30"/>
      </g>
     </g>
    </g>
   </g>
   <g id="line2d_19">
    <path clip-path="url(#paced276764)" d="M 73.832727 147.822581 
L 74.988082 147.918576 
L 76.143436 146.086847 
L 77.29879 148.863736 
L 78.454144 143.547933 
L 83.075561 139.329453 
L 84.230916 140.715265 
L 85.38627 140.030096 
L 86.541624 140.245271 
L 91.163041 140.6845 
L 92.318395 142.054459 
L 93.47375 143.73976 
L 94.629104 148.714706 
L 98.095167 144.575847 
L 99.250521 151.93915 
L 100.405875 148.80342 
L 101.561229 149.741995 
L 102.716584 155.346445 
L 106.182646 164.587139 
L 107.338001 165.680669 
L 108.493355 161.689263 
L 109.648709 153.308013 
L 110.804063 149.003045 
L 114.270126 145.023511 
L 115.42548 156.464455 
L 116.580835 154.25426 
L 117.736189 158.485057 
L 118.891543 150.425679 
L 122.357606 160.471375 
L 123.51296 152.831404 
L 124.668314 150.734974 
L 125.823669 150.268606 
L 126.979023 149.56258 
L 130.445086 149.165281 
L 131.60044 148.682758 
L 132.755794 155.513397 
L 133.911148 144.752517 
L 135.066503 143.753206 
L 138.532566 139.336983 
L 139.68792 134.121437 
L 140.843274 131.954149 
L 141.998628 141.206186 
L 143.153983 148.335843 
L 146.620045 147.701593 
L 147.7754 152.681778 
L 148.930754 153.960933 
L 150.086108 147.007464 
L 151.241462 154.228699 
L 154.707525 142.895156 
L 155.862879 143.577866 
L 157.018234 137.862733 
L 158.173588 144.517434 
L 159.328942 140.7621 
L 162.795005 140.299115 
L 163.950359 147.016983 
L 165.105713 146.825784 
L 166.261068 151.451792 
L 167.416422 147.134747 
L 170.882485 145.386088 
L 172.037839 145.743371 
L 173.193193 148.435977 
L 174.348547 149.801252 
L 175.503902 149.967837 
L 178.969964 146.918441 
L 180.125319 142.565513 
L 181.280673 142.698035 
L 183.591381 142.696926 
L 187.057444 147.894182 
L 188.212798 158.035584 
L 189.368153 165.447064 
L 190.523507 158.9056 
L 191.678861 161.989193 
L 195.144924 152.119731 
L 196.300278 143.044951 
L 197.455632 138.669993 
L 198.610987 138.524024 
L 199.766341 136.401974 
L 203.232404 141.556152 
L 204.387758 139.110188 
L 205.543112 135.861829 
L 206.698467 133.88777 
L 207.853821 139.935332 
L 211.319884 147.765383 
L 212.475238 134.893389 
L 213.630592 132.739068 
L 214.785946 127.402966 
L 219.407363 120.697596 
L 220.562718 120.613902 
L 221.718072 120.930347 
L 222.873426 121.454413 
L 224.02878 123.934885 
L 227.494843 115.731278 
L 228.650197 108.225556 
L 229.805552 123.348813 
L 230.960906 118.469455 
L 232.11626 116.126324 
L 235.582323 116.028848 
L 236.737677 110.916899 
L 237.893031 109.733645 
L 239.048386 116.853066 
L 240.20374 115.330409 
L 245.980511 130.334067 
L 247.135865 136.817404 
L 248.29122 149.434083 
L 251.757282 148.593693 
L 252.912637 155.030373 
L 254.067991 155.134162 
L 255.223345 158.678789 
L 256.378699 144.855066 
L 259.844762 133.353448 
L 261.000116 127.960675 
L 262.155471 119.171316 
L 263.310825 155.805126 
L 264.466179 155.25309 
L 267.932242 164.496841 
L 269.087596 165.703353 
L 270.242951 153.941977 
L 271.398305 163.768812 
L 272.553659 175.320166 
L 276.019722 179.400654 
L 277.175076 172.930898 
L 278.33043 175.514319 
L 279.485785 185.164851 
L 280.641139 187.686685 
L 285.262556 193.587273 
L 286.41791 200.293381 
L 287.573264 189.627839 
L 288.728619 180.24811 
L 292.194681 182.132815 
L 293.350036 189.886291 
L 294.50539 179.568264 
L 295.660744 181.397806 
L 296.816098 185.22759 
L 300.282161 205.800649 
L 301.437515 205.835126 
L 302.59287 186.102802 
L 303.748224 192.457344 
L 304.903578 200.94157 
L 308.369641 203.327357 
L 309.524995 193.27895 
L 310.680349 177.3528 
L 311.835704 171.627537 
L 312.991058 162.397009 
L 316.457121 164.921372 
L 317.612475 154.525271 
L 318.767829 160.599326 
L 319.923183 151.222495 
L 321.078538 146.20594 
L 324.5446 144.318943 
L 325.699955 139.455374 
L 326.855309 141.061701 
L 328.010663 153.468089 
L 332.63208 144.630188 
L 333.787434 150.661728 
L 334.942789 158.852903 
L 336.098143 160.100825 
L 337.253497 161.084362 
L 341.874914 173.935882 
L 343.030269 171.51736 
L 344.185623 180.851511 
L 348.80704 177.211101 
L 349.962394 168.257524 
L 351.117748 174.532592 
L 352.273103 185.989041 
L 353.428457 202.59362 
L 356.89452 198.24844 
L 358.049874 206.879117 
L 359.205228 212.761176 
L 360.360582 181.557715 
L 361.515937 197.560182 
L 364.981999 190.307266 
L 366.137354 185.895622 
L 367.292708 164.500627 
L 368.448062 187.219534 
L 369.603416 189.26152 
L 373.069479 203.400925 
L 374.224833 201.517253 
L 375.380188 210.658031 
L 376.535542 214.511773 
L 377.690896 202.819695 
L 381.156959 206.219119 
L 382.312313 197.253551 
L 383.467667 216.467631 
L 384.623022 221.974029 
L 385.778376 223.606765 
L 389.244439 211.48752 
L 390.399793 226.523544 
L 391.555147 225.612186 
L 392.710501 213.539857 
L 393.865856 199.707782 
L 398.487273 199.968622 
L 398.487273 199.968622 
" style="fill:none;stroke:#0000ff;stroke-linecap:square;stroke-opacity:0.9;stroke-width:2;"/>
   </g>
   <g id="line2d_20">
    <path clip-path="url(#paced276764)" d="M 73.832727 147.822581 
L 76.143436 142.337895 
L 77.29879 145.556757 
L 78.454144 139.090825 
L 81.920207 137.342335 
L 83.075561 136.436261 
L 85.38627 137.397579 
L 86.541624 137.38342 
L 91.163041 136.254662 
L 92.318395 138.641451 
L 93.47375 139.387615 
L 94.629104 145.319822 
L 98.095167 141.514764 
L 99.250521 146.835353 
L 100.405875 144.282334 
L 101.561229 145.784698 
L 102.716584 152.301619 
L 106.182646 160.991046 
L 107.338001 161.07846 
L 108.493355 158.179477 
L 109.648709 151.35314 
L 110.804063 147.386288 
L 114.270126 143.708788 
L 115.42548 154.437036 
L 116.580835 153.644463 
L 117.736189 159.126038 
L 118.891543 151.390116 
L 122.357606 157.240447 
L 123.51296 149.484208 
L 124.668314 148.326919 
L 125.823669 146.768661 
L 126.979023 143.897603 
L 130.445086 147.04344 
L 131.60044 151.43348 
L 132.755794 153.18557 
L 133.911148 139.67353 
L 135.066503 135.996153 
L 138.532566 134.594069 
L 139.68792 130.106744 
L 140.843274 126.752182 
L 141.998628 134.153339 
L 143.153983 137.302707 
L 146.620045 138.449887 
L 147.7754 141.329055 
L 148.930754 144.666272 
L 150.086108 136.950845 
L 151.241462 135.927991 
L 154.707525 135.704547 
L 155.862879 133.743128 
L 157.018234 129.460384 
L 158.173588 130.57633 
L 159.328942 130.663646 
L 162.795005 129.859088 
L 163.950359 134.319425 
L 165.105713 137.104948 
L 166.261068 137.201608 
L 167.416422 133.33857 
L 170.882485 132.007598 
L 172.037839 133.39445 
L 173.193193 133.979646 
L 174.348547 133.790133 
L 175.503902 135.644952 
L 178.969964 133.723297 
L 180.125319 127.820563 
L 181.280673 127.571909 
L 183.591381 142.238498 
L 187.057444 136.288231 
L 188.212798 147.97549 
L 189.368153 154.118914 
L 190.523507 146.419963 
L 191.678861 150.803437 
L 195.144924 142.760215 
L 196.300278 133.370493 
L 197.455632 130.160928 
L 198.610987 130.565457 
L 199.766341 127.35335 
L 203.232404 133.00456 
L 204.387758 132.450912 
L 205.543112 128.162255 
L 206.698467 127.754291 
L 207.853821 135.127634 
L 211.319884 141.84563 
L 212.475238 130.983224 
L 213.630592 127.718253 
L 214.785946 123.269487 
L 219.407363 116.156821 
L 220.562718 116.483689 
L 221.718072 115.769237 
L 222.873426 116.825756 
L 224.02878 119.006632 
L 227.494843 112.604961 
L 228.650197 106.854609 
L 229.805552 119.407013 
L 230.960906 117.456027 
L 232.11626 114.565978 
L 235.582323 114.871072 
L 236.737677 111.335552 
L 237.893031 111.626933 
L 239.048386 115.535101 
L 240.20374 115.947303 
L 244.825157 128.229638 
L 245.980511 134.159912 
L 247.135865 139.221169 
L 248.29122 150.622318 
L 251.757282 151.013942 
L 252.912637 150.044926 
L 254.067991 150.666266 
L 255.223345 155.543206 
L 256.378699 142.74198 
L 259.844762 134.305653 
L 261.000116 127.447851 
L 262.155471 118.631259 
L 263.310825 143.977304 
L 264.466179 139.800016 
L 267.932242 143.163571 
L 269.087596 139.515981 
L 270.242951 134.367264 
L 271.398305 143.651754 
L 272.553659 155.097912 
L 276.019722 159.915928 
L 277.175076 153.609088 
L 278.33043 154.516273 
L 279.485785 165.233636 
L 280.641139 167.512475 
L 285.262556 172.272765 
L 286.41791 179.568373 
L 287.573264 176.517114 
L 288.728619 164.235412 
L 292.194681 169.323025 
L 293.350036 180.063129 
L 294.50539 167.942836 
L 295.660744 169.229447 
L 296.816098 176.49152 
L 300.282161 194.54069 
L 301.437515 196.836005 
L 302.59287 179.168457 
L 304.903578 190.958551 
L 308.369641 191.325119 
L 309.524995 182.894077 
L 310.680349 171.30966 
L 312.991058 161.458306 
L 316.457121 161.22953 
L 317.612475 152.047335 
L 318.767829 157.436896 
L 319.923183 149.824188 
L 321.078538 143.831197 
L 324.5446 142.922474 
L 325.699955 140.476239 
L 326.855309 140.875531 
L 328.010663 151.62894 
L 329.166017 148.998717 
L 332.63208 145.555011 
L 333.787434 150.477164 
L 334.942789 157.167451 
L 336.098143 157.333436 
L 337.253497 157.195148 
L 341.874914 168.114929 
L 343.030269 165.91476 
L 344.185623 173.514427 
L 348.80704 170.292911 
L 349.962394 163.146739 
L 351.117748 160.903855 
L 352.273103 167.772777 
L 353.428457 182.880464 
L 356.89452 181.575828 
L 358.049874 190.087774 
L 359.205228 191.452971 
L 360.360582 175.080969 
L 361.515937 190.675956 
L 364.981999 187.30853 
L 366.137354 183.712275 
L 367.292708 162.023737 
L 368.448062 180.735541 
L 369.603416 179.415144 
L 374.224833 198.158456 
L 375.380188 203.889688 
L 376.535542 206.504939 
L 377.690896 198.832123 
L 381.156959 200.24174 
L 382.312313 190.6813 
L 383.467667 209.758148 
L 384.623022 216.040813 
L 385.778376 220.121505 
L 389.244439 207.370552 
L 390.399793 213.859783 
L 391.555147 213.308457 
L 392.710501 202.978434 
L 393.865856 191.432878 
L 398.487273 192.930229 
L 398.487273 192.930229 
" style="fill:none;stroke:#ff0000;stroke-linecap:square;stroke-opacity:0.9;stroke-width:2;"/>
   </g>
   <g id="line2d_21">
    <path clip-path="url(#paced276764)" d="M 73.832727 147.822581 
L 74.988082 145.192965 
L 76.143436 143.025688 
L 77.29879 145.515434 
L 78.454144 140.410389 
L 83.075561 136.148648 
L 84.230916 137.697711 
L 85.38627 136.704225 
L 86.541624 137.079027 
L 91.163041 137.24122 
L 93.47375 140.574843 
L 94.629104 145.347894 
L 98.095167 140.456476 
L 99.250521 148.577098 
L 100.405875 144.992382 
L 101.561229 146.058327 
L 102.716584 151.357951 
L 106.182646 160.368292 
L 107.338001 161.629454 
L 108.493355 157.694203 
L 109.648709 149.591492 
L 110.804063 144.959897 
L 114.270126 140.36703 
L 115.42548 151.684572 
L 116.580835 149.813673 
L 117.736189 153.877462 
L 118.891543 145.545847 
L 122.357606 155.847546 
L 123.51296 147.536417 
L 125.823669 144.048781 
L 126.979023 141.754285 
L 130.445086 144.827648 
L 131.60044 149.013579 
L 132.755794 150.007813 
L 133.911148 139.84067 
L 135.066503 138.590698 
L 138.532566 133.944193 
L 139.68792 128.785795 
L 140.843274 126.538022 
L 141.998628 135.501246 
L 143.153983 142.743307 
L 146.620045 141.97702 
L 147.7754 147.146123 
L 148.930754 148.134591 
L 150.086108 141.440366 
L 151.241462 140.69073 
L 154.707525 137.335856 
L 155.862879 136.453924 
L 157.018234 132.135775 
L 158.173588 131.946829 
L 159.328942 127.758749 
L 162.795005 127.594984 
L 163.950359 134.04348 
L 165.105713 138.478733 
L 166.261068 138.603972 
L 167.416422 134.689317 
L 170.882485 132.866182 
L 172.037839 135.333087 
L 173.193193 135.597365 
L 174.348547 137.0091 
L 175.503902 137.180679 
L 178.969964 133.668204 
L 180.125319 128.980575 
L 181.280673 129.879322 
L 183.591381 142.298131 
L 187.057444 135.099882 
L 188.212798 145.720651 
L 189.368153 153.33647 
L 190.523507 147.148955 
L 191.678861 150.585188 
L 195.144924 140.095855 
L 196.300278 130.64503 
L 197.455632 125.873003 
L 198.610987 125.62468 
L 199.766341 124.068524 
L 203.232404 129.393206 
L 204.387758 126.617761 
L 205.543112 123.20758 
L 206.698467 121.040036 
L 207.853821 127.83329 
L 211.319884 135.495591 
L 212.475238 122.329685 
L 213.630592 119.800476 
L 214.785946 114.646374 
L 219.407363 107.27347 
L 220.562718 107.908537 
L 221.718072 107.80188 
L 222.873426 108.746457 
L 224.02878 111.049488 
L 227.494843 102.527171 
L 228.650197 95.116629 
L 229.805552 110.399021 
L 230.960906 104.643792 
L 232.11626 102.513819 
L 235.582323 100.802226 
L 236.737677 95.937086 
L 237.893031 94.567714 
L 239.048386 101.621006 
L 240.20374 100.204707 
L 245.980511 115.13341 
L 247.135865 121.746548 
L 248.29122 134.874793 
L 251.757282 134.108594 
L 252.912637 140.853024 
L 254.067991 140.421939 
L 255.223345 144.351514 
L 256.378699 129.878778 
L 259.844762 118.172582 
L 261.000116 112.658227 
L 262.155471 102.961622 
L 263.310825 142.088976 
L 264.466179 141.375778 
L 267.932242 150.638113 
L 269.087596 151.913248 
L 270.242951 139.923743 
L 271.398305 149.521024 
L 272.553659 161.684972 
L 276.019722 165.53883 
L 277.175076 159.044097 
L 278.33043 161.960673 
L 279.485785 171.570053 
L 280.641139 174.691187 
L 285.262556 179.719108 
L 286.41791 187.088102 
L 287.573264 175.160323 
L 288.728619 165.781844 
L 292.194681 167.377103 
L 293.350036 175.487576 
L 294.50539 164.708546 
L 295.660744 167.748406 
L 300.282161 196.878873 
L 301.437515 194.534213 
L 302.59287 172.727003 
L 304.903578 188.749885 
L 308.369641 189.428134 
L 309.524995 179.234712 
L 310.680349 162.538831 
L 311.835704 156.466103 
L 312.991058 148.665483 
L 316.457121 150.522863 
L 317.612475 139.241902 
L 318.767829 145.63041 
L 319.923183 137.281181 
L 321.078538 130.969754 
L 324.5446 130.837018 
L 325.699955 126.446285 
L 326.855309 129.177559 
L 328.010663 143.112116 
L 329.166017 142.134062 
L 332.63208 136.935105 
L 334.942789 151.944149 
L 336.098143 154.16906 
L 337.253497 154.34577 
L 341.874914 165.827936 
L 343.030269 163.251396 
L 344.185623 173.656675 
L 348.80704 167.623604 
L 349.962394 158.279162 
L 351.117748 161.664794 
L 352.273103 173.031129 
L 353.428457 190.125793 
L 356.89452 187.245653 
L 358.049874 199.589545 
L 359.205228 205.266459 
L 360.360582 177.811598 
L 361.515937 193.142629 
L 364.981999 184.478142 
L 366.137354 178.826874 
L 367.292708 156.18516 
L 368.448062 177.863446 
L 369.603416 180.266052 
L 373.069479 195.336257 
L 374.224833 194.963155 
L 375.380188 204.091647 
L 376.535542 207.676259 
L 377.690896 197.928732 
L 381.156959 200.929384 
L 382.312313 189.926568 
L 383.467667 209.251714 
L 384.623022 215.274471 
L 385.778376 219.623667 
L 389.244439 204.709539 
L 390.399793 218.213224 
L 391.555147 215.905536 
L 393.865856 190.250369 
L 398.487273 190.426419 
L 398.487273 190.426419 
" style="fill:none;stroke:#ff8040;stroke-linecap:square;stroke-opacity:0.9;stroke-width:2;"/>
   </g>
   <g id="line2d_22">
    <path clip-path="url(#paced276764)" d="M 73.832727 148.36248 
L 74.988082 146.895413 
L 76.143436 145.923727 
L 77.29879 149.252135 
L 78.454144 143.914615 
L 81.920207 145.13307 
L 83.075561 143.969722 
L 84.230916 143.38739 
L 85.38627 143.633423 
L 86.541624 143.432805 
L 91.163041 143.360365 
L 92.318395 146.293384 
L 93.47375 146.458878 
L 94.629104 154.125461 
L 98.095167 149.159668 
L 99.250521 155.6406 
L 100.405875 153.030341 
L 101.561229 154.419729 
L 102.716584 161.420445 
L 106.182646 171.194462 
L 107.338001 171.079071 
L 108.493355 169.517663 
L 109.648709 164.290004 
L 110.804063 159.874747 
L 114.270126 157.789284 
L 115.42548 168.41197 
L 116.580835 167.265933 
L 117.736189 172.496843 
L 118.891543 166.005399 
L 122.357606 171.686371 
L 123.51296 162.398847 
L 124.668314 160.548981 
L 125.823669 159.086908 
L 126.979023 156.784554 
L 130.445086 159.774207 
L 131.60044 164.064832 
L 132.755794 167.217013 
L 133.911148 155.444611 
L 135.066503 154.634022 
L 138.532566 152.880604 
L 139.68792 148.92821 
L 140.843274 146.03116 
L 141.998628 153.55616 
L 143.153983 158.4868 
L 146.620045 159.735259 
L 147.7754 164.581517 
L 148.930754 165.959441 
L 150.086108 159.537076 
L 151.241462 159.181089 
L 154.707525 157.913798 
L 155.862879 156.072629 
L 157.018234 151.640331 
L 158.173588 154.097363 
L 159.328942 155.382978 
L 162.795005 154.534465 
L 163.950359 158.624372 
L 165.105713 164.875782 
L 166.261068 165.540213 
L 167.416422 157.088656 
L 170.882485 155.544883 
L 173.193193 159.609236 
L 174.348547 163.680683 
L 175.503902 167.265297 
L 178.969964 164.643639 
L 180.125319 158.70554 
L 181.280673 157.387087 
L 183.591381 171.904317 
L 187.057444 167.07331 
L 188.212798 177.612147 
L 189.368153 183.598159 
L 190.523507 180.601002 
L 191.678861 181.364226 
L 195.144924 173.21492 
L 196.300278 167.749995 
L 197.455632 163.348106 
L 198.610987 164.026582 
L 199.766341 159.290988 
L 203.232404 164.719726 
L 204.387758 164.725666 
L 205.543112 162.383211 
L 206.698467 161.271356 
L 207.853821 166.494242 
L 211.319884 173.402536 
L 212.475238 162.74184 
L 213.630592 161.018092 
L 214.785946 156.17482 
L 219.407363 150.296088 
L 220.562718 151.183595 
L 221.718072 150.136495 
L 222.873426 152.100573 
L 224.02878 153.022534 
L 227.494843 148.636883 
L 228.650197 145.298347 
L 229.805552 157.170256 
L 230.960906 158.330209 
L 232.11626 156.183672 
L 235.582323 157.577228 
L 236.737677 154.847183 
L 237.893031 157.21143 
L 239.048386 158.999924 
L 240.20374 159.16743 
L 244.825157 172.035042 
L 245.980511 176.226513 
L 247.135865 180.940613 
L 248.29122 192.04592 
L 251.757282 191.137914 
L 252.912637 193.815933 
L 254.067991 194.320623 
L 255.223345 197.869052 
L 256.378699 187.883383 
L 259.844762 179.318973 
L 261.000116 175.252783 
L 262.155471 168.382646 
L 263.310825 193.854388 
L 264.466179 191.428387 
L 267.932242 193.60428 
L 269.087596 193.065267 
L 270.242951 186.616283 
L 271.398305 193.06024 
L 272.553659 203.635881 
L 276.019722 208.178422 
L 277.175076 204.298787 
L 278.33043 205.850868 
L 279.485785 215.655321 
L 280.641139 218.018276 
L 285.262556 222.195506 
L 286.41791 227.502032 
L 287.573264 225.596746 
L 288.728619 216.27008 
L 292.194681 221.504623 
L 293.350036 232.438262 
L 294.50539 220.190409 
L 295.660744 221.806143 
L 296.816098 226.39878 
L 300.282161 241.429624 
L 301.437515 243.612478 
L 302.59287 226.145607 
L 303.748224 232.521186 
L 304.903578 237.434579 
L 308.369641 240.240161 
L 309.524995 230.554691 
L 310.680349 219.094539 
L 311.835704 214.128464 
L 312.991058 210.226745 
L 316.457121 211.925518 
L 317.612475 204.813716 
L 318.767829 210.316015 
L 319.923183 202.614497 
L 321.078538 198.336345 
L 324.5446 197.302687 
L 325.699955 194.097386 
L 326.855309 195.465668 
L 328.010663 204.986492 
L 329.166017 201.580579 
L 332.63208 199.202281 
L 333.787434 203.293818 
L 334.942789 210.446892 
L 336.098143 212.078787 
L 337.253497 215.372468 
L 340.71956 223.66454 
L 341.874914 226.087674 
L 343.030269 222.171066 
L 344.185623 228.813592 
L 348.80704 223.355008 
L 349.962394 216.23588 
L 351.117748 222.422519 
L 352.273103 230.208931 
L 353.428457 244.719907 
L 356.89452 240.376187 
L 358.049874 252.554366 
L 359.205228 250.403201 
L 360.360582 225.88471 
L 361.515937 240.159275 
L 364.981999 233.98124 
L 366.137354 231.437486 
L 367.292708 212.35396 
L 368.448062 232.675823 
L 369.603416 235.099459 
L 373.069479 248.26392 
L 375.380188 256.276804 
L 376.535542 257.716296 
L 377.690896 247.993106 
L 381.156959 248.290753 
L 382.312313 238.235684 
L 383.467667 254.088838 
L 384.623022 259.50784 
L 385.778376 265.797818 
L 389.244439 253.962944 
L 390.399793 265.654138 
L 391.555147 263.692946 
L 393.865856 242.266862 
L 398.487273 242.895081 
L 398.487273 242.895081 
" style="fill:none;stroke:#0d0d0d;stroke-linecap:square;stroke-opacity:0.25;stroke-width:2;"/>
   </g>
   <g id="line2d_23">
    <path clip-path="url(#paced276764)" d="M 73.832727 147.282682 
L 76.143436 138.120535 
L 77.29879 141.737325 
L 78.454144 134.744279 
L 81.920207 128.54526 
L 83.075561 127.838627 
L 84.230916 128.34621 
L 85.38627 129.627934 
L 86.541624 129.227312 
L 91.163041 128.204233 
L 92.318395 130.525089 
L 93.47375 132.242953 
L 94.629104 136.688764 
L 98.095167 132.12732 
L 99.250521 137.146693 
L 100.405875 134.462581 
L 101.561229 136.156549 
L 102.716584 140.57743 
L 106.182646 146.835441 
L 107.338001 147.258611 
L 108.493355 141.026638 
L 109.648709 135.682546 
L 110.804063 132.52628 
L 114.270126 127.631181 
L 115.42548 135.463932 
L 116.580835 137.587653 
L 117.736189 141.558582 
L 118.891543 133.555641 
L 122.357606 140.108604 
L 123.51296 132.723579 
L 124.668314 131.048178 
L 125.823669 129.996278 
L 126.979023 127.19725 
L 130.445086 129.815968 
L 131.60044 133.339789 
L 132.755794 135.824623 
L 133.911148 122.997221 
L 135.066503 118.781439 
L 138.532566 114.877028 
L 139.68792 110.671091 
L 140.843274 107.848214 
L 141.998628 111.977329 
L 143.153983 113.507047 
L 146.620045 114.190676 
L 147.7754 116.202763 
L 148.930754 117.803525 
L 150.086108 110.626577 
L 151.241462 108.473095 
L 154.707525 109.850346 
L 157.018234 104.42859 
L 158.173588 102.402267 
L 159.328942 102.55952 
L 162.795005 101.39057 
L 163.950359 105.713268 
L 165.105713 107.900909 
L 166.261068 107.510074 
L 167.416422 103.344214 
L 170.882485 100.939046 
L 172.037839 104.269225 
L 173.193193 103.459238 
L 174.348547 103.501561 
L 175.503902 101.26664 
L 178.969964 97.573196 
L 180.125319 91.346969 
L 181.280673 89.786382 
L 183.591381 103.78956 
L 187.057444 94.18477 
L 188.212798 104.537887 
L 189.368153 111.732059 
L 190.523507 103.910258 
L 191.678861 108.722417 
L 195.144924 97.726768 
L 196.300278 87.044528 
L 197.455632 85.090711 
L 198.610987 85.208904 
L 199.766341 80.164955 
L 203.232404 84.387442 
L 204.387758 83.834705 
L 205.543112 81.426696 
L 206.698467 77.365772 
L 207.853821 83.914432 
L 211.319884 90.14517 
L 212.475238 79.247469 
L 214.785946 71.761467 
L 219.407363 64.022536 
L 220.562718 65.339658 
L 221.718072 65.792631 
L 222.873426 66.747352 
L 224.02878 67.219198 
L 227.494843 61.043448 
L 228.650197 52.154182 
L 229.805552 73.063322 
L 230.960906 67.908148 
L 232.11626 68.314215 
L 235.582323 68.081022 
L 236.737677 61.217031 
L 237.893031 62.214834 
L 239.048386 70.207128 
L 240.20374 68.858904 
L 245.980511 88.078638 
L 247.135865 94.251755 
L 248.29122 106.836642 
L 251.757282 108.639791 
L 252.912637 110.261576 
L 254.067991 109.434227 
L 255.223345 115.001522 
L 256.378699 103.076335 
L 259.844762 91.004934 
L 261.000116 83.10121 
L 262.155471 70.925433 
L 263.310825 90.320534 
L 264.466179 85.340797 
L 267.932242 86.350569 
L 269.087596 85.233699 
L 270.242951 74.268564 
L 271.398305 84.021501 
L 272.553659 100.789139 
L 276.019722 105.685482 
L 277.175076 99.075445 
L 278.33043 100.545104 
L 279.485785 113.342354 
L 280.641139 115.58373 
L 285.262556 121.465587 
L 286.41791 129.445073 
L 287.573264 126.465035 
L 288.728619 113.393014 
L 292.194681 116.464339 
L 293.350036 127.696901 
L 294.50539 113.401861 
L 295.660744 109.820396 
L 296.816098 123.326753 
L 300.282161 142.191444 
L 301.437515 146.838978 
L 302.59287 130.773832 
L 303.748224 136.982955 
L 304.903578 146.282364 
L 308.369641 142.618996 
L 310.680349 124.538123 
L 311.835704 119.094323 
L 312.991058 112.067226 
L 316.457121 112.095187 
L 317.612475 104.197103 
L 318.767829 110.086482 
L 319.923183 99.761817 
L 321.078538 94.188964 
L 324.5446 92.071789 
L 325.699955 88.550474 
L 326.855309 91.566381 
L 328.010663 103.68598 
L 329.166017 99.968106 
L 332.63208 92.510187 
L 333.787434 99.460604 
L 334.942789 108.048818 
L 336.098143 109.763523 
L 337.253497 109.4093 
L 340.71956 117.318607 
L 341.874914 120.672575 
L 343.030269 117.315462 
L 344.185623 122.899087 
L 348.80704 121.984788 
L 349.962394 113.56216 
L 351.117748 111.265609 
L 352.273103 117.32913 
L 353.428457 132.975258 
L 356.89452 128.368636 
L 358.049874 138.766243 
L 359.205228 140.023363 
L 360.360582 118.415564 
L 361.515937 137.11619 
L 364.981999 129.516436 
L 366.137354 125.116105 
L 367.292708 97.647693 
L 368.448062 120.031052 
L 369.603416 121.637781 
L 373.069479 138.776363 
L 374.224833 141.267459 
L 375.380188 151.625506 
L 376.535542 154.210313 
L 377.690896 145.870491 
L 381.156959 147.368092 
L 382.312313 136.75673 
L 383.467667 158.012315 
L 384.623022 164.62109 
L 385.778376 165.754501 
L 389.244439 151.174563 
L 390.399793 162.098661 
L 391.555147 161.123572 
L 393.865856 136.763047 
L 398.487273 137.663292 
L 398.487273 137.663292 
" style="fill:none;stroke:#0d0d0d;stroke-linecap:square;stroke-opacity:0.25;stroke-width:2;"/>
   </g>
   <g id="patch_3">
    <path d="M 57.6 276.48 
L 57.6 41.472 
" style="fill:none;stroke:#000000;stroke-linecap:square;stroke-linejoin:miter;stroke-width:0.8;"/>
   </g>
   <g id="patch_4">
    <path d="M 414.72 276.48 
L 414.72 41.472 
" style="fill:none;stroke:#000000;stroke-linecap:square;stroke-linejoin:miter;stroke-width:0.8;"/>
   </g>
   <g id="patch_5">
    <path d="M 57.6 276.48 
L 414.72 276.48 
" style="fill:none;stroke:#000000;stroke-linecap:square;stroke-linejoin:miter;stroke-width:0.8;"/>
   </g>
   <g id="patch_6">
    <path d="M 57.6 41.472 
L 414.72 41.472 
" style="fill:none;stroke:#000000;stroke-linecap:square;stroke-linejoin:miter;stroke-width:0.8;"/>
   </g>
   <g id="text_20">
    <!-- TESTFUNDS1550 -->
    <g transform="translate(185.200312 22.034625)scale(0.12 -0.12)">
     <defs>
      <path d="M -19 4666 
L 3928 4666 
L 3928 4134 
L 2272 4134 
L 2272 0 
L 1638 0 
L 1638 4134 
L -19 4134 
L -19 4666 
z
" id="DejaVuSans-54" transform="scale(0.015625)"/>
      <path d="M 628 4666 
L 3578 4666 
L 3578 4134 
L 1259 4134 
L 1259 2753 
L 3481 2753 
L 3481 2222 
L 1259 2222 
L 1259 531 
L 3634 531 
L 3634 0 
L 628 0 
L 628 4666 
z
" id="DejaVuSans-45" transform="scale(0.015625)"/>
      <path d="M 3425 4513 
L 3425 3897 
Q 3066 4069 2747 4153 
Q 2428 4238 2131 4238 
Q 1616 4238 1336 4038 
Q 1056 3838 1056 3469 
Q 1056 3159 1242 3001 
Q 1428 2844 1947 2747 
L 2328 2669 
Q 3034 2534 3370 2195 
Q 3706 1856 3706 1288 
Q 3706 609 3251 259 
Q 2797 -91 1919 -91 
Q 1588 -91 1214 -16 
Q 841 59 441 206 
L 441 856 
Q 825 641 1194 531 
Q 1563 422 1919 422 
Q 2459 422 2753 634 
Q 3047 847 3047 1241 
Q 3047 1584 2836 1778 
Q 2625 1972 2144 2069 
L 1759 2144 
Q 1053 2284 737 2584 
Q 422 2884 422 3419 
Q 422 4038 858 4394 
Q 1294 4750 2059 4750 
Q 2388 4750 2728 4690 
Q 3069 4631 3425 4513 
z
" id="DejaVuSans-53" transform="scale(0.015625)"/>
      <path d="M 628 4666 
L 3309 4666 
L 3309 4134 
L 1259 4134 
L 1259 2759 
L 3109 2759 
L 3109 2228 
L 1259 2228 
L 1259 0 
L 628 0 
L 628 4666 
z
" id="DejaVuSans-46" transform="scale(0.015625)"/>
      <path d="M 556 4666 
L 1191 4666 
L 1191 1831 
Q 1191 1081 1462 751 
Q 1734 422 2344 422 
Q 2950 422 3222 751 
Q 3494 1081 3494 1831 
L 3494 4666 
L 4128 4666 
L 4128 1753 
Q 4128 841 3676 375 
Q 3225 -91 2344 -91 
Q 1459 -91 1007 375 
Q 556 841 556 1753 
L 556 4666 
z
" id="DejaVuSans-55" transform="scale(0.015625)"/>
      <path d="M 628 4666 
L 1478 4666 
L 3547 763 
L 3547 4666 
L 4159 4666 
L 4159 0 
L 3309 0 
L 1241 3903 
L 1241 0 
L 628 0 
L 628 4666 
z
" id="DejaVuSans-4e" transform="scale(0.015625)"/>
      <path d="M 1259 4147 
L 1259 519 
L 2022 519 
Q 2988 519 3436 956 
Q 3884 1394 3884 2338 
Q 3884 3275 3436 3711 
Q 2988 4147 2022 4147 
L 1259 4147 
z
M 628 4666 
L 1925 4666 
Q 3281 4666 3915 4102 
Q 4550 3538 4550 2338 
Q 4550 1131 3912 565 
Q 3275 0 1925 0 
L 628 0 
L 628 4666 
z
" id="DejaVuSans-44" transform="scale(0.015625)"/>
     </defs>
     <use xlink:href="#DejaVuSans-54"/>
     <use x="61.083984" xlink:href="#DejaVuSans-45"/>
     <use x="124.267578" xlink:href="#DejaVuSans-53"/>
     <use x="187.744141" xlink:href="#DejaVuSans-54"/>
     <use x="248.828125" xlink:href="#DejaVuSans-46"/>
     <use x="306.347656" xlink:href="#DejaVuSans-55"/>
     <use x="379.541016" xlink:href="#DejaVuSans-4e"/>
     <use x="454.345703" xlink:href="#DejaVuSans-44"/>
     <use x="531.347656" xlink:href="#DejaVuSans-53"/>
     <use x="594.824219" xlink:href="#DejaVuSans-31"/>
     <use x="658.447266" xlink:href="#DejaVuSans-35"/>
     <use x="722.070312" xlink:href="#DejaVuSans-35"/>
     <use x="785.693359" xlink:href="#DejaVuSans-30"/>
    </g>
    <!-- daily_report -->
    <g transform="translate(200.466563 35.472)scale(0.12 -0.12)">
     <defs>
      <path d="M 603 3500 
L 1178 3500 
L 1178 0 
L 603 0 
L 603 3500 
z
M 603 4863 
L 1178 4863 
L 1178 4134 
L 603 4134 
L 603 4863 
z
" id="DejaVuSans-69" transform="scale(0.015625)"/>
      <path d="M 603 4863 
L 1178 4863 
L 1178 0 
L 603 0 
L 603 4863 
z
" id="DejaVuSans-6c" transform="scale(0.015625)"/>
      <path d="M 2059 -325 
Q 1816 -950 1584 -1140 
Q 1353 -1331 966 -1331 
L 506 -1331 
L 506 -850 
L 844 -850 
Q 1081 -850 1212 -737 
Q 1344 -625 1503 -206 
L 1606 56 
L 191 3500 
L 800 3500 
L 1894 763 
L 2988 3500 
L 3597 3500 
L 2059 -325 
z
" id="DejaVuSans-79" transform="scale(0.015625)"/>
      <path d="M 3263 -1063 
L 3263 -1509 
L -63 -1509 
L -63 -1063 
L 3263 -1063 
z
" id="DejaVuSans-5f" transform="scale(0.015625)"/>
      <path d="M 2631 2963 
Q 2534 3019 2420 3045 
Q 2306 3072 2169 3072 
Q 1681 3072 1420 2755 
Q 1159 2438 1159 1844 
L 1159 0 
L 581 0 
L 581 3500 
L 1159 3500 
L 1159 2956 
Q 1341 3275 1631 3429 
Q 1922 3584 2338 3584 
Q 2397 3584 2469 3576 
Q 2541 3569 2628 3553 
L 2631 2963 
z
" id="DejaVuSans-72" transform="scale(0.015625)"/>
      <path d="M 1159 525 
L 1159 -1331 
L 581 -1331 
L 581 3500 
L 1159 3500 
L 1159 2969 
Q 1341 3281 1617 3432 
Q 1894 3584 2278 3584 
Q 2916 3584 3314 3078 
Q 3713 2572 3713 1747 
Q 3713 922 3314 415 
Q 2916 -91 2278 -91 
Q 1894 -91 1617 61 
Q 1341 213 1159 525 
z
M 3116 1747 
Q 3116 2381 2855 2742 
Q 2594 3103 2138 3103 
Q 1681 3103 1420 2742 
Q 1159 2381 1159 1747 
Q 1159 1113 1420 752 
Q 1681 391 2138 391 
Q 2594 391 2855 752 
Q 3116 1113 3116 1747 
z
" id="DejaVuSans-70" transform="scale(0.015625)"/>
      <path d="M 1959 3097 
Q 1497 3097 1228 2736 
Q 959 2375 959 1747 
Q 959 1119 1226 758 
Q 1494 397 1959 397 
Q 2419 397 2687 759 
Q 2956 1122 2956 1747 
Q 2956 2369 2687 2733 
Q 2419 3097 1959 3097 
z
M 1959 3584 
Q 2709 3584 3137 3096 
Q 3566 2609 3566 1747 
Q 3566 888 3137 398 
Q 2709 -91 1959 -91 
Q 1206 -91 779 398 
Q 353 888 353 1747 
Q 353 2609 779 3096 
Q 1206 3584 1959 3584 
z
" id="DejaVuSans-6f" transform="scale(0.015625)"/>
     </defs>
     <use xlink:href="#DejaVuSans-64"/>
     <use x="63.476562" xlink:href="#DejaVuSans-61"/>
     <use x="124.755859" xlink:href="#DejaVuSans-69"/>
     <use x="152.539062" xlink:href="#DejaVuSans-6c"/>
     <use x="180.322266" xlink:href="#DejaVuSans-79"/>
     <use x="239.501953" xlink:href="#DejaVuSans-5f"/>
     <use x="289.501953" xlink:href="#DejaVuSans-72"/>
     <use x="328.365234" xlink:href="#DejaVuSans-65"/>
     <use x="389.888672" xlink:href="#DejaVuSans-70"/>
     <use x="453.365234" xlink:href="#DejaVuSans-6f"/>
     <use x="514.546875" xlink:href="#DejaVuSans-72"/>
     <use x="555.660156" xlink:href="#DejaVuSans-74"/>
    </g>
   </g>
   <g id="legend_1">
    <g id="patch_7">
     <path d="M 64.6 271.48 
L 155.792188 271.48 
Q 157.792188 271.48 157.792188 269.48 
L 157.792188 197.089375 
Q 157.792188 195.089375 155.792188 195.089375 
L 64.6 195.089375 
Q 62.6 195.089375 62.6 197.089375 
L 62.6 269.48 
Q 62.6 271.48 64.6 271.48 
z
" style="fill:#ffffff;opacity:0.8;stroke:#cccccc;stroke-linejoin:miter;"/>
    </g>
    <g id="line2d_24">
     <path d="M 66.6 203.187812 
L 86.6 203.187812 
" style="fill:none;stroke:#0000ff;stroke-linecap:square;stroke-opacity:0.9;stroke-width:2;"/>
    </g>
    <g id="line2d_25"/>
    <g id="text_21">
     <!-- alpaca -->
     <g transform="translate(94.6 206.687812)scale(0.1 -0.1)">
      <defs>
       <path d="M 3122 3366 
L 3122 2828 
Q 2878 2963 2633 3030 
Q 2388 3097 2138 3097 
Q 1578 3097 1268 2742 
Q 959 2388 959 1747 
Q 959 1106 1268 751 
Q 1578 397 2138 397 
Q 2388 397 2633 464 
Q 2878 531 3122 666 
L 3122 134 
Q 2881 22 2623 -34 
Q 2366 -91 2075 -91 
Q 1284 -91 818 406 
Q 353 903 353 1747 
Q 353 2603 823 3093 
Q 1294 3584 2113 3584 
Q 2378 3584 2631 3529 
Q 2884 3475 3122 3366 
z
" id="DejaVuSans-63" transform="scale(0.015625)"/>
      </defs>
      <use xlink:href="#DejaVuSans-61"/>
      <use x="61.279297" xlink:href="#DejaVuSans-6c"/>
      <use x="89.0625" xlink:href="#DejaVuSans-70"/>
      <use x="152.539062" xlink:href="#DejaVuSans-61"/>
      <use x="213.818359" xlink:href="#DejaVuSans-63"/>
      <use x="268.798828" xlink:href="#DejaVuSans-61"/>
     </g>
    </g>
    <g id="line2d_26">
     <path d="M 66.6 217.865937 
L 86.6 217.865937 
" style="fill:none;stroke:#ff0000;stroke-linecap:square;stroke-opacity:0.9;stroke-width:2;"/>
    </g>
    <g id="line2d_27"/>
    <g id="text_22">
     <!-- mattress -->
     <g transform="translate(94.6 221.365937)scale(0.1 -0.1)">
      <defs>
       <path d="M 3328 2828 
Q 3544 3216 3844 3400 
Q 4144 3584 4550 3584 
Q 5097 3584 5394 3201 
Q 5691 2819 5691 2113 
L 5691 0 
L 5113 0 
L 5113 2094 
Q 5113 2597 4934 2840 
Q 4756 3084 4391 3084 
Q 3944 3084 3684 2787 
Q 3425 2491 3425 1978 
L 3425 0 
L 2847 0 
L 2847 2094 
Q 2847 2600 2669 2842 
Q 2491 3084 2119 3084 
Q 1678 3084 1418 2786 
Q 1159 2488 1159 1978 
L 1159 0 
L 581 0 
L 581 3500 
L 1159 3500 
L 1159 2956 
Q 1356 3278 1631 3431 
Q 1906 3584 2284 3584 
Q 2666 3584 2933 3390 
Q 3200 3197 3328 2828 
z
" id="DejaVuSans-6d" transform="scale(0.015625)"/>
       <path d="M 2834 3397 
L 2834 2853 
Q 2591 2978 2328 3040 
Q 2066 3103 1784 3103 
Q 1356 3103 1142 2972 
Q 928 2841 928 2578 
Q 928 2378 1081 2264 
Q 1234 2150 1697 2047 
L 1894 2003 
Q 2506 1872 2764 1633 
Q 3022 1394 3022 966 
Q 3022 478 2636 193 
Q 2250 -91 1575 -91 
Q 1294 -91 989 -36 
Q 684 19 347 128 
L 347 722 
Q 666 556 975 473 
Q 1284 391 1588 391 
Q 1994 391 2212 530 
Q 2431 669 2431 922 
Q 2431 1156 2273 1281 
Q 2116 1406 1581 1522 
L 1381 1569 
Q 847 1681 609 1914 
Q 372 2147 372 2553 
Q 372 3047 722 3315 
Q 1072 3584 1716 3584 
Q 2034 3584 2315 3537 
Q 2597 3491 2834 3397 
z
" id="DejaVuSans-73" transform="scale(0.015625)"/>
      </defs>
      <use xlink:href="#DejaVuSans-6d"/>
      <use x="97.412109" xlink:href="#DejaVuSans-61"/>
      <use x="158.691406" xlink:href="#DejaVuSans-74"/>
      <use x="197.900391" xlink:href="#DejaVuSans-74"/>
      <use x="237.109375" xlink:href="#DejaVuSans-72"/>
      <use x="275.972656" xlink:href="#DejaVuSans-65"/>
      <use x="337.496094" xlink:href="#DejaVuSans-73"/>
      <use x="389.595703" xlink:href="#DejaVuSans-73"/>
     </g>
    </g>
    <g id="line2d_28">
     <path d="M 66.6 232.544062 
L 86.6 232.544062 
" style="fill:none;stroke:#ff8040;stroke-linecap:square;stroke-opacity:0.9;stroke-width:2;"/>
    </g>
    <g id="line2d_29"/>
    <g id="text_23">
     <!-- trader-0850 -->
     <g transform="translate(94.6 236.044062)scale(0.1 -0.1)">
      <use xlink:href="#DejaVuSans-74"/>
      <use x="39.208984" xlink:href="#DejaVuSans-72"/>
      <use x="80.322266" xlink:href="#DejaVuSans-61"/>
      <use x="141.601562" xlink:href="#DejaVuSans-64"/>
      <use x="205.078125" xlink:href="#DejaVuSans-65"/>
      <use x="266.601562" xlink:href="#DejaVuSans-72"/>
      <use x="301.339844" xlink:href="#DejaVuSans-2d"/>
      <use x="337.423828" xlink:href="#DejaVuSans-30"/>
      <use x="401.046875" xlink:href="#DejaVuSans-38"/>
      <use x="464.669922" xlink:href="#DejaVuSans-35"/>
      <use x="528.292969" xlink:href="#DejaVuSans-30"/>
     </g>
    </g>
    <g id="line2d_30">
     <path d="M 66.6 247.222187 
L 86.6 247.222187 
" style="fill:none;stroke:#0d0d0d;stroke-linecap:square;stroke-opacity:0.25;stroke-width:2;"/>
    </g>
    <g id="line2d_31"/>
    <g id="text_24">
     <!-- rando-min -->
     <g transform="translate(94.6 250.722187)scale(0.1 -0.1)">
      <defs>
       <path d="M 3513 2113 
L 3513 0 
L 2938 0 
L 2938 2094 
Q 2938 2591 2744 2837 
Q 2550 3084 2163 3084 
Q 1697 3084 1428 2787 
Q 1159 2491 1159 1978 
L 1159 0 
L 581 0 
L 581 3500 
L 1159 3500 
L 1159 2956 
Q 1366 3272 1645 3428 
Q 1925 3584 2291 3584 
Q 2894 3584 3203 3211 
Q 3513 2838 3513 2113 
z
" id="DejaVuSans-6e" transform="scale(0.015625)"/>
      </defs>
      <use xlink:href="#DejaVuSans-72"/>
      <use x="41.113281" xlink:href="#DejaVuSans-61"/>
      <use x="102.392578" xlink:href="#DejaVuSans-6e"/>
      <use x="165.771484" xlink:href="#DejaVuSans-64"/>
      <use x="229.248047" xlink:href="#DejaVuSans-6f"/>
      <use x="292.304688" xlink:href="#DejaVuSans-2d"/>
      <use x="328.388672" xlink:href="#DejaVuSans-6d"/>
      <use x="425.800781" xlink:href="#DejaVuSans-69"/>
      <use x="453.583984" xlink:href="#DejaVuSans-6e"/>
     </g>
    </g>
    <g id="line2d_32">
     <path d="M 66.6 261.900312 
L 86.6 261.900312 
" style="fill:none;stroke:#0d0d0d;stroke-linecap:square;stroke-opacity:0.25;stroke-width:2;"/>
    </g>
    <g id="line2d_33"/>
    <g id="text_25">
     <!-- rando-max -->
     <g transform="translate(94.6 265.400312)scale(0.1 -0.1)">
      <defs>
       <path d="M 3513 3500 
L 2247 1797 
L 3578 0 
L 2900 0 
L 1881 1375 
L 863 0 
L 184 0 
L 1544 1831 
L 300 3500 
L 978 3500 
L 1906 2253 
L 2834 3500 
L 3513 3500 
z
" id="DejaVuSans-78" transform="scale(0.015625)"/>
      </defs>
      <use xlink:href="#DejaVuSans-72"/>
      <use x="41.113281" xlink:href="#DejaVuSans-61"/>
      <use x="102.392578" xlink:href="#DejaVuSans-6e"/>
      <use x="165.771484" xlink:href="#DejaVuSans-64"/>
      <use x="229.248047" xlink:href="#DejaVuSans-6f"/>
      <use x="292.304688" xlink:href="#DejaVuSans-2d"/>
      <use x="328.388672" xlink:href="#DejaVuSans-6d"/>
      <use x="425.800781" xlink:href="#DejaVuSans-61"/>
      <use x="487.080078" xlink:href="#DejaVuSans-78"/>
     </g>
    </g>
   </g>
  </g>
 </g>
 <defs>
  <clipPath id="paced276764">
   <rect height="235.008" width="357.12" x="57.6" y="41.472"/>
  </clipPath>
 </defs>
</svg>
