<?xml version="1.0" encoding="utf-8" standalone="no"?>
<!DOCTYPE svg PUBLIC "-//W3C//DTD SVG 1.1//EN"
  "http://www.w3.org/Graphics/SVG/1.1/DTD/svg11.dtd">
<svg height="345.6pt" version="1.1" viewBox="0 0 460.8 345.6" width="460.8pt" xmlns="http://www.w3.org/2000/svg" xmlns:xlink="http://www.w3.org/1999/xlink">
 <metadata>
  <rdf:RDF xmlns:cc="http://creativecommons.org/ns#" xmlns:dc="http://purl.org/dc/elements/1.1/" xmlns:rdf="http://www.w3.org/1999/02/22-rdf-syntax-ns#">
   <cc:Work>
    <dc:type rdf:resource="http://purl.org/dc/dcmitype/StillImage"/>
    <dc:date>2022-02-25T01:01:30.799299</dc:date>
    <dc:format>image/svg+xml</dc:format>
    <dc:creator>
     <cc:Agent>
      <dc:title>Matplotlib v3.4.3, https://matplotlib.org/</dc:title>
     </cc:Agent>
    </dc:creator>
   </cc:Work>
  </rdf:RDF>
 </metadata>
 <defs>
  <style type="text/css">*{stroke-linecap:butt;stroke-linejoin:round;}</style>
 </defs>
 <g id="figure_1">
  <g id="patch_1">
   <path d="M 0 345.6 
L 460.8 345.6 
L 460.8 0 
L 0 0 
z
" style="fill:#ffffff;"/>
  </g>
  <g id="axes_1">
   <g id="patch_2">
    <path d="M 57.6 276.48 
L 414.72 276.48 
L 414.72 41.472 
L 57.6 41.472 
z
" style="fill:#ffffff;"/>
   </g>
   <g id="matplotlib.axis_1">
    <g id="xtick_1">
     <g id="line2d_1">
      <defs>
       <path d="M 0 0 
L 0 3.5 
" id="m230195c3bd" style="stroke:#000000;stroke-width:0.8;"/>
      </defs>
      <g>
       <use style="stroke:#000000;stroke-width:0.8;" x="89.626732" xlink:href="#m230195c3bd" y="276.48"/>
      </g>
     </g>
     <g id="text_1">
      <!-- 2021-09 -->
      <g transform="translate(52.401911 310.951846)rotate(-30)scale(0.1 -0.1)">
       <defs>
        <path d="M 1228 531 
L 3431 531 
L 3431 0 
L 469 0 
L 469 531 
Q 828 903 1448 1529 
Q 2069 2156 2228 2338 
Q 2531 2678 2651 2914 
Q 2772 3150 2772 3378 
Q 2772 3750 2511 3984 
Q 2250 4219 1831 4219 
Q 1534 4219 1204 4116 
Q 875 4013 500 3803 
L 500 4441 
Q 881 4594 1212 4672 
Q 1544 4750 1819 4750 
Q 2544 4750 2975 4387 
Q 3406 4025 3406 3419 
Q 3406 3131 3298 2873 
Q 3191 2616 2906 2266 
Q 2828 2175 2409 1742 
Q 1991 1309 1228 531 
z
" id="DejaVuSans-32" transform="scale(0.015625)"/>
        <path d="M 2034 4250 
Q 1547 4250 1301 3770 
Q 1056 3291 1056 2328 
Q 1056 1369 1301 889 
Q 1547 409 2034 409 
Q 2525 409 2770 889 
Q 3016 1369 3016 2328 
Q 3016 3291 2770 3770 
Q 2525 4250 2034 4250 
z
M 2034 4750 
Q 2819 4750 3233 4129 
Q 3647 3509 3647 2328 
Q 3647 1150 3233 529 
Q 2819 -91 2034 -91 
Q 1250 -91 836 529 
Q 422 1150 422 2328 
Q 422 3509 836 4129 
Q 1250 4750 2034 4750 
z
" id="DejaVuSans-30" transform="scale(0.015625)"/>
        <path d="M 794 531 
L 1825 531 
L 1825 4091 
L 703 3866 
L 703 4441 
L 1819 4666 
L 2450 4666 
L 2450 531 
L 3481 531 
L 3481 0 
L 794 0 
L 794 531 
z
" id="DejaVuSans-31" transform="scale(0.015625)"/>
        <path d="M 313 2009 
L 1997 2009 
L 1997 1497 
L 313 1497 
L 313 2009 
z
" id="DejaVuSans-2d" transform="scale(0.015625)"/>
        <path d="M 703 97 
L 703 672 
Q 941 559 1184 500 
Q 1428 441 1663 441 
Q 2288 441 2617 861 
Q 2947 1281 2994 2138 
Q 2813 1869 2534 1725 
Q 2256 1581 1919 1581 
Q 1219 1581 811 2004 
Q 403 2428 403 3163 
Q 403 3881 828 4315 
Q 1253 4750 1959 4750 
Q 2769 4750 3195 4129 
Q 3622 3509 3622 2328 
Q 3622 1225 3098 567 
Q 2575 -91 1691 -91 
Q 1453 -91 1209 -44 
Q 966 3 703 97 
z
M 1959 2075 
Q 2384 2075 2632 2365 
Q 2881 2656 2881 3163 
Q 2881 3666 2632 3958 
Q 2384 4250 1959 4250 
Q 1534 4250 1286 3958 
Q 1038 3666 1038 3163 
Q 1038 2656 1286 2365 
Q 1534 2075 1959 2075 
z
" id="DejaVuSans-39" transform="scale(0.015625)"/>
       </defs>
       <use xlink:href="#DejaVuSans-32"/>
       <use x="63.623047" xlink:href="#DejaVuSans-30"/>
       <use x="127.246094" xlink:href="#DejaVuSans-32"/>
       <use x="190.869141" xlink:href="#DejaVuSans-31"/>
       <use x="254.492188" xlink:href="#DejaVuSans-2d"/>
       <use x="290.576172" xlink:href="#DejaVuSans-30"/>
       <use x="354.199219" xlink:href="#DejaVuSans-39"/>
      </g>
     </g>
    </g>
    <g id="xtick_2">
     <g id="line2d_2">
      <g>
       <use style="stroke:#000000;stroke-width:0.8;" x="142.273415" xlink:href="#m230195c3bd" y="276.48"/>
      </g>
     </g>
     <g id="text_2">
      <!-- 2021-10 -->
      <g transform="translate(105.048594 310.951846)rotate(-30)scale(0.1 -0.1)">
       <use xlink:href="#DejaVuSans-32"/>
       <use x="63.623047" xlink:href="#DejaVuSans-30"/>
       <use x="127.246094" xlink:href="#DejaVuSans-32"/>
       <use x="190.869141" xlink:href="#DejaVuSans-31"/>
       <use x="254.492188" xlink:href="#DejaVuSans-2d"/>
       <use x="290.576172" xlink:href="#DejaVuSans-31"/>
       <use x="354.199219" xlink:href="#DejaVuSans-30"/>
      </g>
     </g>
    </g>
    <g id="xtick_3">
     <g id="line2d_3">
      <g>
       <use style="stroke:#000000;stroke-width:0.8;" x="196.674988" xlink:href="#m230195c3bd" y="276.48"/>
      </g>
     </g>
     <g id="text_3">
      <!-- 2021-11 -->
      <g transform="translate(159.450167 310.951846)rotate(-30)scale(0.1 -0.1)">
       <use xlink:href="#DejaVuSans-32"/>
       <use x="63.623047" xlink:href="#DejaVuSans-30"/>
       <use x="127.246094" xlink:href="#DejaVuSans-32"/>
       <use x="190.869141" xlink:href="#DejaVuSans-31"/>
       <use x="254.492188" xlink:href="#DejaVuSans-2d"/>
       <use x="290.576172" xlink:href="#DejaVuSans-31"/>
       <use x="354.199219" xlink:href="#DejaVuSans-31"/>
      </g>
     </g>
    </g>
    <g id="xtick_4">
     <g id="line2d_4">
      <g>
       <use style="stroke:#000000;stroke-width:0.8;" x="249.321671" xlink:href="#m230195c3bd" y="276.48"/>
      </g>
     </g>
     <g id="text_4">
      <!-- 2021-12 -->
      <g transform="translate(212.09685 310.951846)rotate(-30)scale(0.1 -0.1)">
       <use xlink:href="#DejaVuSans-32"/>
       <use x="63.623047" xlink:href="#DejaVuSans-30"/>
       <use x="127.246094" xlink:href="#DejaVuSans-32"/>
       <use x="190.869141" xlink:href="#DejaVuSans-31"/>
       <use x="254.492188" xlink:href="#DejaVuSans-2d"/>
       <use x="290.576172" xlink:href="#DejaVuSans-31"/>
       <use x="354.199219" xlink:href="#DejaVuSans-32"/>
      </g>
     </g>
    </g>
    <g id="xtick_5">
     <g id="line2d_5">
      <g>
       <use style="stroke:#000000;stroke-width:0.8;" x="303.723243" xlink:href="#m230195c3bd" y="276.48"/>
      </g>
     </g>
     <g id="text_5">
      <!-- 2022-01 -->
      <g transform="translate(266.498422 310.951846)rotate(-30)scale(0.1 -0.1)">
       <use xlink:href="#DejaVuSans-32"/>
       <use x="63.623047" xlink:href="#DejaVuSans-30"/>
       <use x="127.246094" xlink:href="#DejaVuSans-32"/>
       <use x="190.869141" xlink:href="#DejaVuSans-32"/>
       <use x="254.492188" xlink:href="#DejaVuSans-2d"/>
       <use x="290.576172" xlink:href="#DejaVuSans-30"/>
       <use x="354.199219" xlink:href="#DejaVuSans-31"/>
      </g>
     </g>
    </g>
    <g id="xtick_6">
     <g id="line2d_6">
      <g>
       <use style="stroke:#000000;stroke-width:0.8;" x="358.124816" xlink:href="#m230195c3bd" y="276.48"/>
      </g>
     </g>
     <g id="text_6">
      <!-- 2022-02 -->
      <g transform="translate(320.899995 310.951846)rotate(-30)scale(0.1 -0.1)">
       <use xlink:href="#DejaVuSans-32"/>
       <use x="63.623047" xlink:href="#DejaVuSans-30"/>
       <use x="127.246094" xlink:href="#DejaVuSans-32"/>
       <use x="190.869141" xlink:href="#DejaVuSans-32"/>
       <use x="254.492188" xlink:href="#DejaVuSans-2d"/>
       <use x="290.576172" xlink:href="#DejaVuSans-30"/>
       <use x="354.199219" xlink:href="#DejaVuSans-32"/>
      </g>
     </g>
    </g>
    <g id="xtick_7">
     <g id="line2d_7">
      <g>
       <use style="stroke:#000000;stroke-width:0.8;" x="407.26172" xlink:href="#m230195c3bd" y="276.48"/>
      </g>
     </g>
     <g id="text_7">
      <!-- 2022-03 -->
      <g transform="translate(370.036899 310.951846)rotate(-30)scale(0.1 -0.1)">
       <defs>
        <path d="M 2597 2516 
Q 3050 2419 3304 2112 
Q 3559 1806 3559 1356 
Q 3559 666 3084 287 
Q 2609 -91 1734 -91 
Q 1441 -91 1130 -33 
Q 819 25 488 141 
L 488 750 
Q 750 597 1062 519 
Q 1375 441 1716 441 
Q 2309 441 2620 675 
Q 2931 909 2931 1356 
Q 2931 1769 2642 2001 
Q 2353 2234 1838 2234 
L 1294 2234 
L 1294 2753 
L 1863 2753 
Q 2328 2753 2575 2939 
Q 2822 3125 2822 3475 
Q 2822 3834 2567 4026 
Q 2313 4219 1838 4219 
Q 1578 4219 1281 4162 
Q 984 4106 628 3988 
L 628 4550 
Q 988 4650 1302 4700 
Q 1616 4750 1894 4750 
Q 2613 4750 3031 4423 
Q 3450 4097 3450 3541 
Q 3450 3153 3228 2886 
Q 3006 2619 2597 2516 
z
" id="DejaVuSans-33" transform="scale(0.015625)"/>
       </defs>
       <use xlink:href="#DejaVuSans-32"/>
       <use x="63.623047" xlink:href="#DejaVuSans-30"/>
       <use x="127.246094" xlink:href="#DejaVuSans-32"/>
       <use x="190.869141" xlink:href="#DejaVuSans-32"/>
       <use x="254.492188" xlink:href="#DejaVuSans-2d"/>
       <use x="290.576172" xlink:href="#DejaVuSans-30"/>
       <use x="354.199219" xlink:href="#DejaVuSans-33"/>
      </g>
     </g>
    </g>
    <g id="text_8">
     <!-- date -->
     <g transform="translate(224.885 324.351346)scale(0.1 -0.1)">
      <defs>
       <path d="M 2906 2969 
L 2906 4863 
L 3481 4863 
L 3481 0 
L 2906 0 
L 2906 525 
Q 2725 213 2448 61 
Q 2172 -91 1784 -91 
Q 1150 -91 751 415 
Q 353 922 353 1747 
Q 353 2572 751 3078 
Q 1150 3584 1784 3584 
Q 2172 3584 2448 3432 
Q 2725 3281 2906 2969 
z
M 947 1747 
Q 947 1113 1208 752 
Q 1469 391 1925 391 
Q 2381 391 2643 752 
Q 2906 1113 2906 1747 
Q 2906 2381 2643 2742 
Q 2381 3103 1925 3103 
Q 1469 3103 1208 2742 
Q 947 2381 947 1747 
z
" id="DejaVuSans-64" transform="scale(0.015625)"/>
       <path d="M 2194 1759 
Q 1497 1759 1228 1600 
Q 959 1441 959 1056 
Q 959 750 1161 570 
Q 1363 391 1709 391 
Q 2188 391 2477 730 
Q 2766 1069 2766 1631 
L 2766 1759 
L 2194 1759 
z
M 3341 1997 
L 3341 0 
L 2766 0 
L 2766 531 
Q 2569 213 2275 61 
Q 1981 -91 1556 -91 
Q 1019 -91 701 211 
Q 384 513 384 1019 
Q 384 1609 779 1909 
Q 1175 2209 1959 2209 
L 2766 2209 
L 2766 2266 
Q 2766 2663 2505 2880 
Q 2244 3097 1772 3097 
Q 1472 3097 1187 3025 
Q 903 2953 641 2809 
L 641 3341 
Q 956 3463 1253 3523 
Q 1550 3584 1831 3584 
Q 2591 3584 2966 3190 
Q 3341 2797 3341 1997 
z
" id="DejaVuSans-61" transform="scale(0.015625)"/>
       <path d="M 1172 4494 
L 1172 3500 
L 2356 3500 
L 2356 3053 
L 1172 3053 
L 1172 1153 
Q 1172 725 1289 603 
Q 1406 481 1766 481 
L 2356 481 
L 2356 0 
L 1766 0 
Q 1100 0 847 248 
Q 594 497 594 1153 
L 594 3053 
L 172 3053 
L 172 3500 
L 594 3500 
L 594 4494 
L 1172 4494 
z
" id="DejaVuSans-74" transform="scale(0.015625)"/>
       <path d="M 3597 1894 
L 3597 1613 
L 953 1613 
Q 991 1019 1311 708 
Q 1631 397 2203 397 
Q 2534 397 2845 478 
Q 3156 559 3463 722 
L 3463 178 
Q 3153 47 2828 -22 
Q 2503 -91 2169 -91 
Q 1331 -91 842 396 
Q 353 884 353 1716 
Q 353 2575 817 3079 
Q 1281 3584 2069 3584 
Q 2775 3584 3186 3129 
Q 3597 2675 3597 1894 
z
M 3022 2063 
Q 3016 2534 2758 2815 
Q 2500 3097 2075 3097 
Q 1594 3097 1305 2825 
Q 1016 2553 972 2059 
L 3022 2063 
z
" id="DejaVuSans-65" transform="scale(0.015625)"/>
      </defs>
      <use xlink:href="#DejaVuSans-64"/>
      <use x="63.476562" xlink:href="#DejaVuSans-61"/>
      <use x="124.755859" xlink:href="#DejaVuSans-74"/>
      <use x="163.964844" xlink:href="#DejaVuSans-65"/>
     </g>
    </g>
   </g>
   <g id="matplotlib.axis_2">
    <g id="ytick_1">
     <g id="line2d_8">
      <defs>
       <path d="M 0 0 
L -3.5 0 
" id="mc265570538" style="stroke:#000000;stroke-width:0.8;"/>
      </defs>
      <g>
       <use style="stroke:#000000;stroke-width:0.8;" x="57.6" xlink:href="#mc265570538" y="253.230415"/>
      </g>
     </g>
     <g id="text_9">
      <!-- 85000 -->
      <g transform="translate(18.7875 257.029634)scale(0.1 -0.1)">
       <defs>
        <path d="M 2034 2216 
Q 1584 2216 1326 1975 
Q 1069 1734 1069 1313 
Q 1069 891 1326 650 
Q 1584 409 2034 409 
Q 2484 409 2743 651 
Q 3003 894 3003 1313 
Q 3003 1734 2745 1975 
Q 2488 2216 2034 2216 
z
M 1403 2484 
Q 997 2584 770 2862 
Q 544 3141 544 3541 
Q 544 4100 942 4425 
Q 1341 4750 2034 4750 
Q 2731 4750 3128 4425 
Q 3525 4100 3525 3541 
Q 3525 3141 3298 2862 
Q 3072 2584 2669 2484 
Q 3125 2378 3379 2068 
Q 3634 1759 3634 1313 
Q 3634 634 3220 271 
Q 2806 -91 2034 -91 
Q 1263 -91 848 271 
Q 434 634 434 1313 
Q 434 1759 690 2068 
Q 947 2378 1403 2484 
z
M 1172 3481 
Q 1172 3119 1398 2916 
Q 1625 2713 2034 2713 
Q 2441 2713 2670 2916 
Q 2900 3119 2900 3481 
Q 2900 3844 2670 4047 
Q 2441 4250 2034 4250 
Q 1625 4250 1398 4047 
Q 1172 3844 1172 3481 
z
" id="DejaVuSans-38" transform="scale(0.015625)"/>
        <path d="M 691 4666 
L 3169 4666 
L 3169 4134 
L 1269 4134 
L 1269 2991 
Q 1406 3038 1543 3061 
Q 1681 3084 1819 3084 
Q 2600 3084 3056 2656 
Q 3513 2228 3513 1497 
Q 3513 744 3044 326 
Q 2575 -91 1722 -91 
Q 1428 -91 1123 -41 
Q 819 9 494 109 
L 494 744 
Q 775 591 1075 516 
Q 1375 441 1709 441 
Q 2250 441 2565 725 
Q 2881 1009 2881 1497 
Q 2881 1984 2565 2268 
Q 2250 2553 1709 2553 
Q 1456 2553 1204 2497 
Q 953 2441 691 2322 
L 691 4666 
z
" id="DejaVuSans-35" transform="scale(0.015625)"/>
       </defs>
       <use xlink:href="#DejaVuSans-38"/>
       <use x="63.623047" xlink:href="#DejaVuSans-35"/>
       <use x="127.246094" xlink:href="#DejaVuSans-30"/>
       <use x="190.869141" xlink:href="#DejaVuSans-30"/>
       <use x="254.492188" xlink:href="#DejaVuSans-30"/>
      </g>
     </g>
    </g>
    <g id="ytick_2">
     <g id="line2d_9">
      <g>
       <use style="stroke:#000000;stroke-width:0.8;" x="57.6" xlink:href="#mc265570538" y="219.534902"/>
      </g>
     </g>
     <g id="text_10">
      <!-- 90000 -->
      <g transform="translate(18.7875 223.334121)scale(0.1 -0.1)">
       <use xlink:href="#DejaVuSans-39"/>
       <use x="63.623047" xlink:href="#DejaVuSans-30"/>
       <use x="127.246094" xlink:href="#DejaVuSans-30"/>
       <use x="190.869141" xlink:href="#DejaVuSans-30"/>
       <use x="254.492188" xlink:href="#DejaVuSans-30"/>
      </g>
     </g>
    </g>
    <g id="ytick_3">
     <g id="line2d_10">
      <g>
       <use style="stroke:#000000;stroke-width:0.8;" x="57.6" xlink:href="#mc265570538" y="185.839389"/>
      </g>
     </g>
     <g id="text_11">
      <!-- 95000 -->
      <g transform="translate(18.7875 189.638608)scale(0.1 -0.1)">
       <use xlink:href="#DejaVuSans-39"/>
       <use x="63.623047" xlink:href="#DejaVuSans-35"/>
       <use x="127.246094" xlink:href="#DejaVuSans-30"/>
       <use x="190.869141" xlink:href="#DejaVuSans-30"/>
       <use x="254.492188" xlink:href="#DejaVuSans-30"/>
      </g>
     </g>
    </g>
    <g id="ytick_4">
     <g id="line2d_11">
      <g>
       <use style="stroke:#000000;stroke-width:0.8;" x="57.6" xlink:href="#mc265570538" y="152.143877"/>
      </g>
     </g>
     <g id="text_12">
      <!-- 100000 -->
      <g transform="translate(12.425 155.943095)scale(0.1 -0.1)">
       <use xlink:href="#DejaVuSans-31"/>
       <use x="63.623047" xlink:href="#DejaVuSans-30"/>
       <use x="127.246094" xlink:href="#DejaVuSans-30"/>
       <use x="190.869141" xlink:href="#DejaVuSans-30"/>
       <use x="254.492188" xlink:href="#DejaVuSans-30"/>
       <use x="318.115234" xlink:href="#DejaVuSans-30"/>
      </g>
     </g>
    </g>
    <g id="ytick_5">
     <g id="line2d_12">
      <g>
       <use style="stroke:#000000;stroke-width:0.8;" x="57.6" xlink:href="#mc265570538" y="118.448364"/>
      </g>
     </g>
     <g id="text_13">
      <!-- 105000 -->
      <g transform="translate(12.425 122.247583)scale(0.1 -0.1)">
       <use xlink:href="#DejaVuSans-31"/>
       <use x="63.623047" xlink:href="#DejaVuSans-30"/>
       <use x="127.246094" xlink:href="#DejaVuSans-35"/>
       <use x="190.869141" xlink:href="#DejaVuSans-30"/>
       <use x="254.492188" xlink:href="#DejaVuSans-30"/>
       <use x="318.115234" xlink:href="#DejaVuSans-30"/>
      </g>
     </g>
    </g>
    <g id="ytick_6">
     <g id="line2d_13">
      <g>
       <use style="stroke:#000000;stroke-width:0.8;" x="57.6" xlink:href="#mc265570538" y="84.752851"/>
      </g>
     </g>
     <g id="text_14">
      <!-- 110000 -->
      <g transform="translate(12.425 88.55207)scale(0.1 -0.1)">
       <use xlink:href="#DejaVuSans-31"/>
       <use x="63.623047" xlink:href="#DejaVuSans-31"/>
       <use x="127.246094" xlink:href="#DejaVuSans-30"/>
       <use x="190.869141" xlink:href="#DejaVuSans-30"/>
       <use x="254.492188" xlink:href="#DejaVuSans-30"/>
       <use x="318.115234" xlink:href="#DejaVuSans-30"/>
      </g>
     </g>
    </g>
    <g id="ytick_7">
     <g id="line2d_14">
      <g>
       <use style="stroke:#000000;stroke-width:0.8;" x="57.6" xlink:href="#mc265570538" y="51.057338"/>
      </g>
     </g>
     <g id="text_15">
      <!-- 115000 -->
      <g transform="translate(12.425 54.856557)scale(0.1 -0.1)">
       <use xlink:href="#DejaVuSans-31"/>
       <use x="63.623047" xlink:href="#DejaVuSans-31"/>
       <use x="127.246094" xlink:href="#DejaVuSans-35"/>
       <use x="190.869141" xlink:href="#DejaVuSans-30"/>
       <use x="254.492188" xlink:href="#DejaVuSans-30"/>
       <use x="318.115234" xlink:href="#DejaVuSans-30"/>
      </g>
     </g>
    </g>
   </g>
   <g id="line2d_15">
    <path clip-path="url(#p5eea9bafa0)" d="M 73.832727 152.143877 
L 75.587617 150.332494 
L 77.342506 147.839283 
L 79.097396 151.391829 
L 80.852285 144.795398 
L 86.116953 141.057936 
L 87.871843 139.560866 
L 89.626732 140.974739 
L 91.381622 140.414091 
L 100.156069 140.565692 
L 101.910958 142.549084 
L 103.665848 143.972308 
L 105.420737 150.620424 
L 110.685405 145.165812 
L 112.440295 154.638404 
L 114.195184 150.325566 
L 115.950074 150.883434 
L 117.704963 157.62549 
L 122.969631 169.494649 
L 124.724521 170.567361 
L 126.47941 165.77456 
L 128.2343 155.708676 
L 129.989189 149.656132 
L 135.253857 144.992151 
L 137.008747 159.499469 
L 138.763636 158.153146 
L 140.518526 163.486303 
L 142.273415 153.164069 
L 147.538084 165.896335 
L 149.292973 155.662493 
L 151.047862 153.109952 
L 152.802752 153.25573 
L 154.557641 152.205058 
L 159.82231 151.883221 
L 161.577199 151.20914 
L 163.332088 159.92858 
L 165.086978 146.407614 
L 166.841867 145.296125 
L 172.106536 139.898682 
L 173.861425 132.911972 
L 175.616314 130.887412 
L 177.371204 142.94815 
L 179.126093 152.288839 
L 184.390762 151.665723 
L 186.145651 157.102541 
L 187.900541 159.494579 
L 189.65543 150.800797 
L 191.410319 159.645353 
L 196.674988 145.26492 
L 198.429877 145.398762 
L 200.184767 138.876945 
L 201.939656 146.890706 
L 203.694545 142.087706 
L 208.959214 141.552425 
L 210.714103 149.670631 
L 212.468993 149.824977 
L 214.223882 155.121002 
L 215.978771 149.977445 
L 221.24344 147.570778 
L 222.998329 147.951264 
L 224.753219 151.812671 
L 226.508108 153.343215 
L 228.262998 154.113354 
L 233.527666 149.729019 
L 235.282555 144.924775 
L 237.037445 145.07891 
L 240.547224 145.146447 
L 245.811892 151.254732 
L 247.566781 164.344712 
L 249.321671 173.708278 
L 251.07656 165.19595 
L 252.83145 169.699352 
L 258.096118 157.733737 
L 259.851007 145.821181 
L 261.605897 140.66869 
L 263.360786 139.870006 
L 265.115676 137.828957 
L 270.380344 144.769059 
L 272.135233 141.798435 
L 275.645012 134.201887 
L 277.399902 141.580594 
L 282.66457 150.943891 
L 284.419459 135.004514 
L 286.174349 132.48679 
L 287.929238 126.251536 
L 294.948796 117.384038 
L 296.703686 117.91211 
L 298.458575 117.903957 
L 300.213464 118.932024 
L 301.968354 121.914 
L 307.233022 111.585649 
L 308.987912 103.111227 
L 310.742801 122.073648 
L 312.49769 115.591103 
L 314.25258 114.119452 
L 319.517248 113.16468 
L 321.272138 107.653793 
L 323.027027 106.413841 
L 324.781916 114.801665 
L 326.536806 112.788338 
L 333.556364 127.652909 
L 335.311253 132.917083 
L 337.066143 140.24953 
L 338.821032 156.476325 
L 344.0857 154.949143 
L 345.84059 163.143501 
L 347.595479 163.145565 
L 349.350369 167.391798 
L 351.105258 150.620669 
L 356.369926 136.357621 
L 358.124816 130.007289 
L 359.879705 117.858835 
L 361.634595 162.500781 
L 363.389484 161.286315 
L 368.654152 172.276995 
L 370.409042 174.184931 
L 372.163931 159.661937 
L 373.918821 172.095187 
L 375.67371 186.595182 
L 380.938378 190.843411 
L 382.693268 182.629955 
L 384.448157 186.102039 
L 386.203047 198.540604 
L 387.957936 202.540479 
L 394.977494 209.084201 
L 396.732383 218.214512 
L 398.487273 208.074806 
L 398.487273 208.074806 
" style="fill:none;stroke:#0000ff;stroke-linecap:square;stroke-opacity:0.9;stroke-width:2;"/>
   </g>
   <g id="line2d_16">
    <path clip-path="url(#p5eea9bafa0)" d="M 73.832727 152.143877 
L 75.587617 148.65833 
L 77.342506 145.467913 
L 79.097396 149.557382 
L 80.852285 141.757275 
L 86.116953 139.338501 
L 87.871843 138.080906 
L 89.626732 138.635731 
L 91.381622 139.402486 
L 93.136511 138.746455 
L 100.156069 137.642186 
L 101.910958 140.242945 
L 103.665848 141.569452 
L 105.420737 149.312803 
L 110.685405 144.449279 
L 112.440295 150.782686 
L 114.195184 147.745327 
L 115.950074 149.649554 
L 117.704963 157.573211 
L 122.969631 169.198233 
L 124.724521 168.929006 
L 126.47941 164.876116 
L 128.2343 156.197453 
L 129.989189 151.299408 
L 135.253857 146.943105 
L 137.008747 160.886847 
L 138.763636 159.34944 
L 140.518526 166.526325 
L 142.273415 156.277985 
L 147.538084 163.806691 
L 149.292973 154.270133 
L 151.047862 152.41679 
L 152.802752 150.918521 
L 154.557641 147.675052 
L 159.82231 151.649397 
L 161.577199 156.870172 
L 163.332088 158.392518 
L 165.086978 142.02941 
L 166.841867 137.144079 
L 172.106536 135.61429 
L 173.861425 130.157361 
L 175.616314 126.008698 
L 177.371204 135.25687 
L 179.126093 138.740023 
L 184.390762 140.359551 
L 186.145651 144.497129 
L 187.900541 147.950312 
L 189.65543 138.793126 
L 191.410319 137.68778 
L 196.674988 136.916603 
L 198.429877 134.625313 
L 200.184767 129.561016 
L 201.939656 130.63794 
L 203.694545 130.588914 
L 208.959214 129.743248 
L 210.714103 135.218728 
L 212.468993 138.578313 
L 214.223882 138.569222 
L 215.978771 133.806281 
L 221.24344 132.163057 
L 222.998329 134.247272 
L 224.753219 134.428062 
L 226.508108 134.975085 
L 228.262998 137.238555 
L 233.527666 134.118818 
L 235.282555 127.736334 
L 237.037445 126.878199 
L 240.547224 145.100058 
L 245.811892 137.543855 
L 247.566781 152.008175 
L 249.321671 159.656688 
L 251.07656 150.651586 
L 252.83145 156.226075 
L 258.096118 145.859023 
L 259.851007 133.970751 
L 261.605897 130.585368 
L 263.360786 131.103466 
L 265.115676 126.106394 
L 270.380344 133.515452 
L 272.135233 133.217258 
L 273.890123 127.88617 
L 275.645012 127.65258 
L 277.399902 136.601458 
L 282.66457 144.034078 
L 284.419459 131.379664 
L 286.174349 127.546102 
L 287.929238 121.405658 
L 294.948796 112.152108 
L 296.703686 112.441871 
L 298.458575 112.339328 
L 300.213464 113.16994 
L 301.968354 116.214048 
L 307.233022 108.075834 
L 308.987912 101.260949 
L 310.742801 117.13338 
L 312.49769 114.355533 
L 314.25258 110.072206 
L 319.517248 111.084542 
L 321.272138 106.452052 
L 323.027027 106.451713 
L 324.781916 111.930985 
L 326.536806 112.623459 
L 333.556364 127.805046 
L 335.311253 134.43989 
L 337.066143 141.65646 
L 338.821032 155.762092 
L 344.0857 156.363567 
L 345.84059 154.889432 
L 347.595479 155.772358 
L 349.350369 161.739875 
L 351.105258 145.557999 
L 356.369926 135.008191 
L 358.124816 126.882358 
L 359.879705 116.089403 
L 361.634595 147.475948 
L 363.389484 141.992069 
L 368.654152 146.29271 
L 370.409042 141.609963 
L 372.163931 135.685432 
L 373.918821 146.501383 
L 375.67371 161.30907 
L 380.938378 167.511204 
L 382.693268 159.357805 
L 384.448157 161.111521 
L 386.203047 174.045774 
L 387.957936 177.153624 
L 394.977494 182.857706 
L 396.732383 191.288011 
L 398.487273 188.023675 
L 398.487273 188.023675 
" style="fill:none;stroke:#ff0000;stroke-linecap:square;stroke-opacity:0.9;stroke-width:2;"/>
   </g>
   <g id="line2d_17">
    <path clip-path="url(#p5eea9bafa0)" d="M 73.832727 152.143877 
L 75.587617 148.562859 
L 77.342506 146.303417 
L 79.097396 150.152539 
L 80.852285 143.497351 
L 86.116953 139.478432 
L 87.871843 137.794292 
L 89.626732 139.624025 
L 91.381622 138.398866 
L 93.136511 138.574414 
L 100.156069 139.01609 
L 101.910958 140.126843 
L 103.665848 142.012541 
L 105.420737 148.372245 
L 110.685405 142.7292 
L 112.440295 151.820251 
L 114.195184 146.92842 
L 115.950074 148.124175 
L 117.704963 154.3709 
L 122.969631 165.850214 
L 124.724521 167.148943 
L 126.47941 162.151745 
L 128.2343 151.79146 
L 129.989189 145.914528 
L 135.253857 140.895078 
L 137.008747 154.830094 
L 138.763636 153.335239 
L 140.518526 158.976367 
L 142.273415 149.061994 
L 147.538084 161.44393 
L 149.292973 151.120802 
L 151.047862 148.358837 
L 152.802752 146.842648 
L 154.557641 144.335604 
L 159.82231 148.238419 
L 161.577199 153.112005 
L 163.332088 154.713863 
L 165.086978 141.340395 
L 166.841867 140.177269 
L 172.106536 135.110203 
L 173.861425 127.782077 
L 175.616314 125.038448 
L 177.371204 137.181252 
L 179.126093 146.993876 
L 184.390762 145.758891 
L 186.145651 151.812791 
L 187.900541 153.972234 
L 189.65543 145.372041 
L 191.410319 143.530455 
L 198.429877 138.624379 
L 200.184767 132.95108 
L 201.939656 132.630809 
L 203.694545 127.617184 
L 208.959214 126.356524 
L 210.714103 134.875523 
L 212.468993 140.603756 
L 214.223882 140.839104 
L 215.978771 135.181949 
L 221.24344 133.251954 
L 222.998329 136.7224 
L 224.753219 136.870881 
L 226.508108 138.651336 
L 228.262998 138.870493 
L 233.527666 134.520344 
L 235.282555 129.103771 
L 237.037445 129.270145 
L 240.547224 144.239384 
L 245.811892 135.722788 
L 247.566781 149.313232 
L 249.321671 158.554884 
L 251.07656 150.076855 
L 252.83145 155.003635 
L 258.096118 142.072271 
L 259.851007 129.738045 
L 261.605897 124.827196 
L 263.360786 124.034936 
L 265.115676 122.090511 
L 270.380344 128.527385 
L 272.135233 125.557011 
L 275.645012 118.004862 
L 277.399902 125.413957 
L 282.66457 135.395936 
L 284.419459 119.215881 
L 286.174349 115.568598 
L 287.929238 109.71789 
L 294.948796 100.372861 
L 296.703686 100.603857 
L 298.458575 100.489974 
L 300.213464 101.804587 
L 301.968354 105.475879 
L 307.233022 94.216336 
L 308.987912 84.882062 
L 310.742801 104.322577 
L 312.49769 98.358731 
L 314.25258 96.475883 
L 319.517248 95.516911 
L 321.272138 89.383703 
L 323.027027 88.165174 
L 324.781916 97.0714 
L 326.536806 94.969499 
L 333.556364 110.547217 
L 335.311253 115.217249 
L 337.066143 123.295814 
L 338.821032 139.330978 
L 344.0857 137.891455 
L 345.84059 146.716618 
L 347.595479 146.541724 
L 349.350369 151.117118 
L 351.105258 133.332829 
L 356.369926 118.722092 
L 358.124816 111.866966 
L 359.879705 99.292502 
L 361.634595 144.826841 
L 363.389484 143.460715 
L 368.654152 154.809315 
L 370.409042 156.768631 
L 372.163931 142.005933 
L 373.918821 154.508436 
L 375.67371 169.53425 
L 380.938378 173.653087 
L 382.693268 165.819789 
L 384.448157 169.106513 
L 386.203047 181.64357 
L 387.957936 185.952418 
L 394.977494 192.239735 
L 396.732383 201.823391 
L 398.487273 186.330586 
L 398.487273 186.330586 
" style="fill:none;stroke:#ff8040;stroke-linecap:square;stroke-opacity:0.9;stroke-width:2;"/>
   </g>
   <g id="line2d_18">
    <path clip-path="url(#p5eea9bafa0)" d="M 73.832727 152.817787 
L 75.587617 151.404175 
L 77.342506 149.129956 
L 79.097396 153.974172 
L 80.852285 145.696819 
L 86.116953 147.720421 
L 87.871843 145.912649 
L 89.626732 146.028788 
L 91.381622 147.658057 
L 93.136511 146.836917 
L 100.156069 147.788391 
L 101.910958 152.321072 
L 103.665848 153.87254 
L 105.420737 162.838146 
L 110.685405 157.724411 
L 112.440295 164.361418 
L 114.195184 161.818877 
L 115.950074 163.698164 
L 117.704963 173.866308 
L 122.969631 185.323314 
L 124.724521 187.135325 
L 126.47941 181.160393 
L 128.2343 172.509062 
L 129.989189 168.057302 
L 135.253857 161.799419 
L 137.008747 177.617869 
L 138.763636 177.699456 
L 140.518526 184.250252 
L 142.273415 175.695367 
L 147.538084 186.539338 
L 149.292973 177.649559 
L 151.047862 176.764762 
L 152.802752 176.750786 
L 154.557641 174.564946 
L 159.82231 176.62637 
L 161.577199 181.95847 
L 163.332088 181.993545 
L 165.086978 165.245854 
L 166.841867 162.694284 
L 172.106536 162.246038 
L 173.861425 155.934743 
L 175.616314 154.484804 
L 177.371204 166.569986 
L 179.126093 171.346457 
L 184.390762 172.594907 
L 186.145651 174.040873 
L 187.900541 176.601376 
L 189.65543 169.101676 
L 191.410319 168.391966 
L 196.674988 169.291728 
L 198.429877 166.823617 
L 200.184767 161.507238 
L 201.939656 162.379926 
L 203.694545 160.138364 
L 208.959214 160.235973 
L 210.714103 163.30205 
L 212.468993 165.822569 
L 214.223882 166.161007 
L 215.978771 161.604829 
L 221.24344 160.977617 
L 222.998329 162.849008 
L 224.753219 164.943637 
L 226.508108 164.849124 
L 228.262998 164.906496 
L 233.527666 162.850579 
L 235.282555 158.572033 
L 237.037445 156.561286 
L 240.547224 174.262654 
L 245.811892 166.207422 
L 247.566781 183.166139 
L 249.321671 190.673332 
L 251.07656 180.027549 
L 252.83145 186.312895 
L 258.096118 177.08882 
L 259.851007 169.724425 
L 261.605897 165.71165 
L 263.360786 165.425639 
L 265.115676 161.740692 
L 270.380344 167.24411 
L 272.135233 167.096768 
L 273.890123 160.953649 
L 275.645012 165.146623 
L 277.399902 172.010947 
L 282.66457 180.474458 
L 284.419459 165.373988 
L 286.174349 160.965566 
L 287.929238 157.807279 
L 294.948796 148.742755 
L 296.703686 150.16342 
L 298.458575 150.377786 
L 300.213464 151.098569 
L 301.968354 154.316416 
L 307.233022 147.986309 
L 308.987912 143.445029 
L 310.742801 156.832573 
L 312.49769 152.546997 
L 314.25258 151.148182 
L 319.517248 151.102952 
L 321.272138 148.411902 
L 323.027027 149.600135 
L 324.781916 154.621638 
L 326.536806 155.236849 
L 333.556364 169.192127 
L 337.066143 181.430438 
L 338.821032 195.033108 
L 344.0857 196.784556 
L 345.84059 201.870942 
L 347.595479 203.339179 
L 349.350369 208.098012 
L 351.105258 192.788504 
L 356.369926 181.625812 
L 358.124816 172.24634 
L 359.879705 158.402351 
L 361.634595 219.923733 
L 363.389484 218.931894 
L 368.654152 226.297497 
L 370.409042 222.128286 
L 372.163931 216.625555 
L 373.918821 228.128558 
L 375.67371 241.566154 
L 380.938378 245.984 
L 382.693268 239.955357 
L 384.448157 243.255889 
L 386.203047 249.876214 
L 387.957936 253.391384 
L 394.977494 258.53324 
L 396.732383 265.797818 
L 398.487273 263.65193 
L 398.487273 263.65193 
" style="fill:none;stroke:#0d0d0d;stroke-linecap:square;stroke-opacity:0.25;stroke-width:2;"/>
   </g>
   <g id="line2d_19">
    <path clip-path="url(#p5eea9bafa0)" d="M 73.832727 151.469966 
L 77.342506 140.64629 
L 79.097396 144.987846 
L 80.852285 135.777826 
L 86.116953 131.702758 
L 87.871843 128.908486 
L 89.626732 128.416972 
L 91.381622 129.758047 
L 93.136511 129.760145 
L 100.156069 128.137829 
L 101.910958 129.549498 
L 103.665848 131.238471 
L 105.420737 135.157115 
L 110.685405 129.699853 
L 112.440295 137.559041 
L 114.195184 133.473072 
L 115.950074 134.627749 
L 117.704963 144.852192 
L 122.969631 155.205202 
L 124.724521 155.684477 
L 126.47941 148.221105 
L 128.2343 137.29532 
L 129.989189 132.48703 
L 135.253857 124.704298 
L 137.008747 139.474554 
L 138.763636 138.159435 
L 140.518526 145.736902 
L 142.273415 135.587665 
L 147.538084 146.196173 
L 149.292973 135.576788 
L 151.047862 131.781078 
L 152.802752 128.996232 
L 154.557641 126.739704 
L 159.82231 132.569465 
L 161.577199 138.014053 
L 163.332088 140.784689 
L 165.086978 123.33775 
L 166.841867 118.93538 
L 172.106536 115.877978 
L 173.861425 108.792437 
L 175.616314 103.983637 
L 177.371204 111.269369 
L 179.126093 113.492451 
L 184.390762 114.701904 
L 186.145651 119.165895 
L 187.900541 119.997865 
L 189.65543 109.54844 
L 191.410319 107.946512 
L 196.674988 106.172553 
L 198.429877 102.122232 
L 200.184767 95.994486 
L 201.939656 95.807567 
L 203.694545 94.78099 
L 208.959214 95.571668 
L 210.714103 100.73 
L 212.468993 101.586263 
L 214.223882 101.75837 
L 215.978771 97.73349 
L 221.24344 96.076888 
L 222.998329 98.807203 
L 224.753219 97.534481 
L 226.508108 101.792268 
L 228.262998 101.196377 
L 233.527666 100.721072 
L 235.282555 93.352123 
L 237.037445 92.828725 
L 240.547224 110.121883 
L 245.811892 102.16926 
L 247.566781 110.097981 
L 249.321671 120.008657 
L 251.07656 111.064953 
L 252.83145 115.796724 
L 258.096118 105.065447 
L 259.851007 95.743305 
L 261.605897 92.115701 
L 263.360786 91.065336 
L 265.115676 88.760918 
L 270.380344 96.190727 
L 272.135233 91.291257 
L 273.890123 83.470962 
L 275.645012 80.155798 
L 277.399902 89.414837 
L 282.66457 96.901367 
L 284.419459 82.738275 
L 286.174349 80.757432 
L 287.929238 72.395792 
L 294.948796 63.064334 
L 296.703686 63.057073 
L 298.458575 62.155032 
L 301.968354 65.220606 
L 307.233022 57.957601 
L 308.987912 52.154182 
L 310.742801 70.266735 
L 312.49769 64.293134 
L 314.25258 61.469263 
L 319.517248 63.288702 
L 321.272138 56.582049 
L 323.027027 56.966217 
L 324.781916 62.518772 
L 326.536806 60.653216 
L 333.556364 78.910317 
L 335.311253 85.642176 
L 337.066143 91.662948 
L 338.821032 109.325328 
L 344.0857 107.021682 
L 345.84059 98.227616 
L 347.595479 99.1689 
L 349.350369 108.636371 
L 351.105258 93.248672 
L 356.369926 82.950068 
L 358.124816 70.944304 
L 359.879705 57.958948 
L 361.634595 70.838531 
L 363.389484 68.553136 
L 368.654152 76.348064 
L 370.409042 73.979917 
L 372.163931 64.635269 
L 373.918821 76.56228 
L 375.67371 93.900592 
L 380.938378 99.453969 
L 382.693268 90.408681 
L 384.448157 92.161134 
L 386.203047 106.995198 
L 387.957936 109.909813 
L 394.977494 116.108661 
L 396.732383 126.362257 
L 398.487273 111.281947 
L 398.487273 111.281947 
" style="fill:none;stroke:#0d0d0d;stroke-linecap:square;stroke-opacity:0.25;stroke-width:2;"/>
   </g>
   <g id="patch_3">
    <path d="M 57.6 276.48 
L 57.6 41.472 
" style="fill:none;stroke:#000000;stroke-linecap:square;stroke-linejoin:miter;stroke-width:0.8;"/>
   </g>
   <g id="patch_4">
    <path d="M 414.72 276.48 
L 414.72 41.472 
" style="fill:none;stroke:#000000;stroke-linecap:square;stroke-linejoin:miter;stroke-width:0.8;"/>
   </g>
   <g id="patch_5">
    <path d="M 57.6 276.48 
L 414.72 276.48 
" style="fill:none;stroke:#000000;stroke-linecap:square;stroke-linejoin:miter;stroke-width:0.8;"/>
   </g>
   <g id="patch_6">
    <path d="M 57.6 41.472 
L 414.72 41.472 
" style="fill:none;stroke:#000000;stroke-linecap:square;stroke-linejoin:miter;stroke-width:0.8;"/>
   </g>
   <g id="text_16">
    <!-- TESTFUNDS0830 -->
    <g transform="translate(185.200312 22.034625)scale(0.12 -0.12)">
     <defs>
      <path d="M -19 4666 
L 3928 4666 
L 3928 4134 
L 2272 4134 
L 2272 0 
L 1638 0 
L 1638 4134 
L -19 4134 
L -19 4666 
z
" id="DejaVuSans-54" transform="scale(0.015625)"/>
      <path d="M 628 4666 
L 3578 4666 
L 3578 4134 
L 1259 4134 
L 1259 2753 
L 3481 2753 
L 3481 2222 
L 1259 2222 
L 1259 531 
L 3634 531 
L 3634 0 
L 628 0 
L 628 4666 
z
" id="DejaVuSans-45" transform="scale(0.015625)"/>
      <path d="M 3425 4513 
L 3425 3897 
Q 3066 4069 2747 4153 
Q 2428 4238 2131 4238 
Q 1616 4238 1336 4038 
Q 1056 3838 1056 3469 
Q 1056 3159 1242 3001 
Q 1428 2844 1947 2747 
L 2328 2669 
Q 3034 2534 3370 2195 
Q 3706 1856 3706 1288 
Q 3706 609 3251 259 
Q 2797 -91 1919 -91 
Q 1588 -91 1214 -16 
Q 841 59 441 206 
L 441 856 
Q 825 641 1194 531 
Q 1563 422 1919 422 
Q 2459 422 2753 634 
Q 3047 847 3047 1241 
Q 3047 1584 2836 1778 
Q 2625 1972 2144 2069 
L 1759 2144 
Q 1053 2284 737 2584 
Q 422 2884 422 3419 
Q 422 4038 858 4394 
Q 1294 4750 2059 4750 
Q 2388 4750 2728 4690 
Q 3069 4631 3425 4513 
z
" id="DejaVuSans-53" transform="scale(0.015625)"/>
      <path d="M 628 4666 
L 3309 4666 
L 3309 4134 
L 1259 4134 
L 1259 2759 
L 3109 2759 
L 3109 2228 
L 1259 2228 
L 1259 0 
L 628 0 
L 628 4666 
z
" id="DejaVuSans-46" transform="scale(0.015625)"/>
      <path d="M 556 4666 
L 1191 4666 
L 1191 1831 
Q 1191 1081 1462 751 
Q 1734 422 2344 422 
Q 2950 422 3222 751 
Q 3494 1081 3494 1831 
L 3494 4666 
L 4128 4666 
L 4128 1753 
Q 4128 841 3676 375 
Q 3225 -91 2344 -91 
Q 1459 -91 1007 375 
Q 556 841 556 1753 
L 556 4666 
z
" id="DejaVuSans-55" transform="scale(0.015625)"/>
      <path d="M 628 4666 
L 1478 4666 
L 3547 763 
L 3547 4666 
L 4159 4666 
L 4159 0 
L 3309 0 
L 1241 3903 
L 1241 0 
L 628 0 
L 628 4666 
z
" id="DejaVuSans-4e" transform="scale(0.015625)"/>
      <path d="M 1259 4147 
L 1259 519 
L 2022 519 
Q 2988 519 3436 956 
Q 3884 1394 3884 2338 
Q 3884 3275 3436 3711 
Q 2988 4147 2022 4147 
L 1259 4147 
z
M 628 4666 
L 1925 4666 
Q 3281 4666 3915 4102 
Q 4550 3538 4550 2338 
Q 4550 1131 3912 565 
Q 3275 0 1925 0 
L 628 0 
L 628 4666 
z
" id="DejaVuSans-44" transform="scale(0.015625)"/>
     </defs>
     <use xlink:href="#DejaVuSans-54"/>
     <use x="61.083984" xlink:href="#DejaVuSans-45"/>
     <use x="124.267578" xlink:href="#DejaVuSans-53"/>
     <use x="187.744141" xlink:href="#DejaVuSans-54"/>
     <use x="248.828125" xlink:href="#DejaVuSans-46"/>
     <use x="306.347656" xlink:href="#DejaVuSans-55"/>
     <use x="379.541016" xlink:href="#DejaVuSans-4e"/>
     <use x="454.345703" xlink:href="#DejaVuSans-44"/>
     <use x="531.347656" xlink:href="#DejaVuSans-53"/>
     <use x="594.824219" xlink:href="#DejaVuSans-30"/>
     <use x="658.447266" xlink:href="#DejaVuSans-38"/>
     <use x="722.070312" xlink:href="#DejaVuSans-33"/>
     <use x="785.693359" xlink:href="#DejaVuSans-30"/>
    </g>
    <!-- daily_report -->
    <g transform="translate(200.466563 35.472)scale(0.12 -0.12)">
     <defs>
      <path d="M 603 3500 
L 1178 3500 
L 1178 0 
L 603 0 
L 603 3500 
z
M 603 4863 
L 1178 4863 
L 1178 4134 
L 603 4134 
L 603 4863 
z
" id="DejaVuSans-69" transform="scale(0.015625)"/>
      <path d="M 603 4863 
L 1178 4863 
L 1178 0 
L 603 0 
L 603 4863 
z
" id="DejaVuSans-6c" transform="scale(0.015625)"/>
      <path d="M 2059 -325 
Q 1816 -950 1584 -1140 
Q 1353 -1331 966 -1331 
L 506 -1331 
L 506 -850 
L 844 -850 
Q 1081 -850 1212 -737 
Q 1344 -625 1503 -206 
L 1606 56 
L 191 3500 
L 800 3500 
L 1894 763 
L 2988 3500 
L 3597 3500 
L 2059 -325 
z
" id="DejaVuSans-79" transform="scale(0.015625)"/>
      <path d="M 3263 -1063 
L 3263 -1509 
L -63 -1509 
L -63 -1063 
L 3263 -1063 
z
" id="DejaVuSans-5f" transform="scale(0.015625)"/>
      <path d="M 2631 2963 
Q 2534 3019 2420 3045 
Q 2306 3072 2169 3072 
Q 1681 3072 1420 2755 
Q 1159 2438 1159 1844 
L 1159 0 
L 581 0 
L 581 3500 
L 1159 3500 
L 1159 2956 
Q 1341 3275 1631 3429 
Q 1922 3584 2338 3584 
Q 2397 3584 2469 3576 
Q 2541 3569 2628 3553 
L 2631 2963 
z
" id="DejaVuSans-72" transform="scale(0.015625)"/>
      <path d="M 1159 525 
L 1159 -1331 
L 581 -1331 
L 581 3500 
L 1159 3500 
L 1159 2969 
Q 1341 3281 1617 3432 
Q 1894 3584 2278 3584 
Q 2916 3584 3314 3078 
Q 3713 2572 3713 1747 
Q 3713 922 3314 415 
Q 2916 -91 2278 -91 
Q 1894 -91 1617 61 
Q 1341 213 1159 525 
z
M 3116 1747 
Q 3116 2381 2855 2742 
Q 2594 3103 2138 3103 
Q 1681 3103 1420 2742 
Q 1159 2381 1159 1747 
Q 1159 1113 1420 752 
Q 1681 391 2138 391 
Q 2594 391 2855 752 
Q 3116 1113 3116 1747 
z
" id="DejaVuSans-70" transform="scale(0.015625)"/>
      <path d="M 1959 3097 
Q 1497 3097 1228 2736 
Q 959 2375 959 1747 
Q 959 1119 1226 758 
Q 1494 397 1959 397 
Q 2419 397 2687 759 
Q 2956 1122 2956 1747 
Q 2956 2369 2687 2733 
Q 2419 3097 1959 3097 
z
M 1959 3584 
Q 2709 3584 3137 3096 
Q 3566 2609 3566 1747 
Q 3566 888 3137 398 
Q 2709 -91 1959 -91 
Q 1206 -91 779 398 
Q 353 888 353 1747 
Q 353 2609 779 3096 
Q 1206 3584 1959 3584 
z
" id="DejaVuSans-6f" transform="scale(0.015625)"/>
     </defs>
     <use xlink:href="#DejaVuSans-64"/>
     <use x="63.476562" xlink:href="#DejaVuSans-61"/>
     <use x="124.755859" xlink:href="#DejaVuSans-69"/>
     <use x="152.539062" xlink:href="#DejaVuSans-6c"/>
     <use x="180.322266" xlink:href="#DejaVuSans-79"/>
     <use x="239.501953" xlink:href="#DejaVuSans-5f"/>
     <use x="289.501953" xlink:href="#DejaVuSans-72"/>
     <use x="328.365234" xlink:href="#DejaVuSans-65"/>
     <use x="389.888672" xlink:href="#DejaVuSans-70"/>
     <use x="453.365234" xlink:href="#DejaVuSans-6f"/>
     <use x="514.546875" xlink:href="#DejaVuSans-72"/>
     <use x="555.660156" xlink:href="#DejaVuSans-74"/>
    </g>
   </g>
   <g id="legend_1">
    <g id="patch_7">
     <path d="M 64.6 122.862625 
L 155.792188 122.862625 
Q 157.792188 122.862625 157.792188 120.862625 
L 157.792188 48.472 
Q 157.792188 46.472 155.792188 46.472 
L 64.6 46.472 
Q 62.6 46.472 62.6 48.472 
L 62.6 120.862625 
Q 62.6 122.862625 64.6 122.862625 
z
" style="fill:#ffffff;opacity:0.8;stroke:#cccccc;stroke-linejoin:miter;"/>
    </g>
    <g id="line2d_20">
     <path d="M 66.6 54.570437 
L 86.6 54.570437 
" style="fill:none;stroke:#0000ff;stroke-linecap:square;stroke-opacity:0.9;stroke-width:2;"/>
    </g>
    <g id="line2d_21"/>
    <g id="text_17">
     <!-- alpaca -->
     <g transform="translate(94.6 58.070437)scale(0.1 -0.1)">
      <defs>
       <path d="M 3122 3366 
L 3122 2828 
Q 2878 2963 2633 3030 
Q 2388 3097 2138 3097 
Q 1578 3097 1268 2742 
Q 959 2388 959 1747 
Q 959 1106 1268 751 
Q 1578 397 2138 397 
Q 2388 397 2633 464 
Q 2878 531 3122 666 
L 3122 134 
Q 2881 22 2623 -34 
Q 2366 -91 2075 -91 
Q 1284 -91 818 406 
Q 353 903 353 1747 
Q 353 2603 823 3093 
Q 1294 3584 2113 3584 
Q 2378 3584 2631 3529 
Q 2884 3475 3122 3366 
z
" id="DejaVuSans-63" transform="scale(0.015625)"/>
      </defs>
      <use xlink:href="#DejaVuSans-61"/>
      <use x="61.279297" xlink:href="#DejaVuSans-6c"/>
      <use x="89.0625" xlink:href="#DejaVuSans-70"/>
      <use x="152.539062" xlink:href="#DejaVuSans-61"/>
      <use x="213.818359" xlink:href="#DejaVuSans-63"/>
      <use x="268.798828" xlink:href="#DejaVuSans-61"/>
     </g>
    </g>
    <g id="line2d_22">
     <path d="M 66.6 69.248562 
L 86.6 69.248562 
" style="fill:none;stroke:#ff0000;stroke-linecap:square;stroke-opacity:0.9;stroke-width:2;"/>
    </g>
    <g id="line2d_23"/>
    <g id="text_18">
     <!-- mattress -->
     <g transform="translate(94.6 72.748562)scale(0.1 -0.1)">
      <defs>
       <path d="M 3328 2828 
Q 3544 3216 3844 3400 
Q 4144 3584 4550 3584 
Q 5097 3584 5394 3201 
Q 5691 2819 5691 2113 
L 5691 0 
L 5113 0 
L 5113 2094 
Q 5113 2597 4934 2840 
Q 4756 3084 4391 3084 
Q 3944 3084 3684 2787 
Q 3425 2491 3425 1978 
L 3425 0 
L 2847 0 
L 2847 2094 
Q 2847 2600 2669 2842 
Q 2491 3084 2119 3084 
Q 1678 3084 1418 2786 
Q 1159 2488 1159 1978 
L 1159 0 
L 581 0 
L 581 3500 
L 1159 3500 
L 1159 2956 
Q 1356 3278 1631 3431 
Q 1906 3584 2284 3584 
Q 2666 3584 2933 3390 
Q 3200 3197 3328 2828 
z
" id="DejaVuSans-6d" transform="scale(0.015625)"/>
       <path d="M 2834 3397 
L 2834 2853 
Q 2591 2978 2328 3040 
Q 2066 3103 1784 3103 
Q 1356 3103 1142 2972 
Q 928 2841 928 2578 
Q 928 2378 1081 2264 
Q 1234 2150 1697 2047 
L 1894 2003 
Q 2506 1872 2764 1633 
Q 3022 1394 3022 966 
Q 3022 478 2636 193 
Q 2250 -91 1575 -91 
Q 1294 -91 989 -36 
Q 684 19 347 128 
L 347 722 
Q 666 556 975 473 
Q 1284 391 1588 391 
Q 1994 391 2212 530 
Q 2431 669 2431 922 
Q 2431 1156 2273 1281 
Q 2116 1406 1581 1522 
L 1381 1569 
Q 847 1681 609 1914 
Q 372 2147 372 2553 
Q 372 3047 722 3315 
Q 1072 3584 1716 3584 
Q 2034 3584 2315 3537 
Q 2597 3491 2834 3397 
z
" id="DejaVuSans-73" transform="scale(0.015625)"/>
      </defs>
      <use xlink:href="#DejaVuSans-6d"/>
      <use x="97.412109" xlink:href="#DejaVuSans-61"/>
      <use x="158.691406" xlink:href="#DejaVuSans-74"/>
      <use x="197.900391" xlink:href="#DejaVuSans-74"/>
      <use x="237.109375" xlink:href="#DejaVuSans-72"/>
      <use x="275.972656" xlink:href="#DejaVuSans-65"/>
      <use x="337.496094" xlink:href="#DejaVuSans-73"/>
      <use x="389.595703" xlink:href="#DejaVuSans-73"/>
     </g>
    </g>
    <g id="line2d_24">
     <path d="M 66.6 83.926687 
L 86.6 83.926687 
" style="fill:none;stroke:#ff8040;stroke-linecap:square;stroke-opacity:0.9;stroke-width:2;"/>
    </g>
    <g id="line2d_25"/>
    <g id="text_19">
     <!-- trader-0850 -->
     <g transform="translate(94.6 87.426687)scale(0.1 -0.1)">
      <use xlink:href="#DejaVuSans-74"/>
      <use x="39.208984" xlink:href="#DejaVuSans-72"/>
      <use x="80.322266" xlink:href="#DejaVuSans-61"/>
      <use x="141.601562" xlink:href="#DejaVuSans-64"/>
      <use x="205.078125" xlink:href="#DejaVuSans-65"/>
      <use x="266.601562" xlink:href="#DejaVuSans-72"/>
      <use x="301.339844" xlink:href="#DejaVuSans-2d"/>
      <use x="337.423828" xlink:href="#DejaVuSans-30"/>
      <use x="401.046875" xlink:href="#DejaVuSans-38"/>
      <use x="464.669922" xlink:href="#DejaVuSans-35"/>
      <use x="528.292969" xlink:href="#DejaVuSans-30"/>
     </g>
    </g>
    <g id="line2d_26">
     <path d="M 66.6 98.604812 
L 86.6 98.604812 
" style="fill:none;stroke:#0d0d0d;stroke-linecap:square;stroke-opacity:0.25;stroke-width:2;"/>
    </g>
    <g id="line2d_27"/>
    <g id="text_20">
     <!-- rando-min -->
     <g transform="translate(94.6 102.104812)scale(0.1 -0.1)">
      <defs>
       <path d="M 3513 2113 
L 3513 0 
L 2938 0 
L 2938 2094 
Q 2938 2591 2744 2837 
Q 2550 3084 2163 3084 
Q 1697 3084 1428 2787 
Q 1159 2491 1159 1978 
L 1159 0 
L 581 0 
L 581 3500 
L 1159 3500 
L 1159 2956 
Q 1366 3272 1645 3428 
Q 1925 3584 2291 3584 
Q 2894 3584 3203 3211 
Q 3513 2838 3513 2113 
z
" id="DejaVuSans-6e" transform="scale(0.015625)"/>
      </defs>
      <use xlink:href="#DejaVuSans-72"/>
      <use x="41.113281" xlink:href="#DejaVuSans-61"/>
      <use x="102.392578" xlink:href="#DejaVuSans-6e"/>
      <use x="165.771484" xlink:href="#DejaVuSans-64"/>
      <use x="229.248047" xlink:href="#DejaVuSans-6f"/>
      <use x="292.304688" xlink:href="#DejaVuSans-2d"/>
      <use x="328.388672" xlink:href="#DejaVuSans-6d"/>
      <use x="425.800781" xlink:href="#DejaVuSans-69"/>
      <use x="453.583984" xlink:href="#DejaVuSans-6e"/>
     </g>
    </g>
    <g id="line2d_28">
     <path d="M 66.6 113.282937 
L 86.6 113.282937 
" style="fill:none;stroke:#0d0d0d;stroke-linecap:square;stroke-opacity:0.25;stroke-width:2;"/>
    </g>
    <g id="line2d_29"/>
    <g id="text_21">
     <!-- rando-max -->
     <g transform="translate(94.6 116.782937)scale(0.1 -0.1)">
      <defs>
       <path d="M 3513 3500 
L 2247 1797 
L 3578 0 
L 2900 0 
L 1881 1375 
L 863 0 
L 184 0 
L 1544 1831 
L 300 3500 
L 978 3500 
L 1906 2253 
L 2834 3500 
L 3513 3500 
z
" id="DejaVuSans-78" transform="scale(0.015625)"/>
      </defs>
      <use xlink:href="#DejaVuSans-72"/>
      <use x="41.113281" xlink:href="#DejaVuSans-61"/>
      <use x="102.392578" xlink:href="#DejaVuSans-6e"/>
      <use x="165.771484" xlink:href="#DejaVuSans-64"/>
      <use x="229.248047" xlink:href="#DejaVuSans-6f"/>
      <use x="292.304688" xlink:href="#DejaVuSans-2d"/>
      <use x="328.388672" xlink:href="#DejaVuSans-6d"/>
      <use x="425.800781" xlink:href="#DejaVuSans-61"/>
      <use x="487.080078" xlink:href="#DejaVuSans-78"/>
     </g>
    </g>
   </g>
  </g>
 </g>
 <defs>
  <clipPath id="p5eea9bafa0">
   <rect height="235.008" width="357.12" x="57.6" y="41.472"/>
  </clipPath>
 </defs>
</svg>
