<?xml version="1.0" encoding="utf-8" standalone="no"?>
<!DOCTYPE svg PUBLIC "-//W3C//DTD SVG 1.1//EN"
  "http://www.w3.org/Graphics/SVG/1.1/DTD/svg11.dtd">
<svg height="345.6pt" version="1.1" viewBox="0 0 460.8 345.6" width="460.8pt" xmlns="http://www.w3.org/2000/svg" xmlns:xlink="http://www.w3.org/1999/xlink">
 <metadata>
  <rdf:RDF xmlns:cc="http://creativecommons.org/ns#" xmlns:dc="http://purl.org/dc/elements/1.1/" xmlns:rdf="http://www.w3.org/1999/02/22-rdf-syntax-ns#">
   <cc:Work>
    <dc:type rdf:resource="http://purl.org/dc/dcmitype/StillImage"/>
    <dc:date>2022-02-25T01:01:40.755686</dc:date>
    <dc:format>image/svg+xml</dc:format>
    <dc:creator>
     <cc:Agent>
      <dc:title>Matplotlib v3.4.3, https://matplotlib.org/</dc:title>
     </cc:Agent>
    </dc:creator>
   </cc:Work>
  </rdf:RDF>
 </metadata>
 <defs>
  <style type="text/css">*{stroke-linecap:butt;stroke-linejoin:round;}</style>
 </defs>
 <g id="figure_1">
  <g id="patch_1">
   <path d="M 0 345.6 
L 460.8 345.6 
L 460.8 0 
L 0 0 
z
" style="fill:#ffffff;"/>
  </g>
  <g id="axes_1">
   <g id="patch_2">
    <path d="M 57.6 276.48 
L 414.72 276.48 
L 414.72 41.472 
L 57.6 41.472 
z
" style="fill:#ffffff;"/>
   </g>
   <g id="matplotlib.axis_1">
    <g id="xtick_1">
     <g id="line2d_1">
      <defs>
       <path d="M 0 0 
L 0 3.5 
" id="md114462817" style="stroke:#000000;stroke-width:0.8;"/>
      </defs>
      <g>
       <use style="stroke:#000000;stroke-width:0.8;" x="89.626732" xlink:href="#md114462817" y="276.48"/>
      </g>
     </g>
     <g id="text_1">
      <!-- 2021-09 -->
      <g transform="translate(52.401911 310.951846)rotate(-30)scale(0.1 -0.1)">
       <defs>
        <path d="M 1228 531 
L 3431 531 
L 3431 0 
L 469 0 
L 469 531 
Q 828 903 1448 1529 
Q 2069 2156 2228 2338 
Q 2531 2678 2651 2914 
Q 2772 3150 2772 3378 
Q 2772 3750 2511 3984 
Q 2250 4219 1831 4219 
Q 1534 4219 1204 4116 
Q 875 4013 500 3803 
L 500 4441 
Q 881 4594 1212 4672 
Q 1544 4750 1819 4750 
Q 2544 4750 2975 4387 
Q 3406 4025 3406 3419 
Q 3406 3131 3298 2873 
Q 3191 2616 2906 2266 
Q 2828 2175 2409 1742 
Q 1991 1309 1228 531 
z
" id="DejaVuSans-32" transform="scale(0.015625)"/>
        <path d="M 2034 4250 
Q 1547 4250 1301 3770 
Q 1056 3291 1056 2328 
Q 1056 1369 1301 889 
Q 1547 409 2034 409 
Q 2525 409 2770 889 
Q 3016 1369 3016 2328 
Q 3016 3291 2770 3770 
Q 2525 4250 2034 4250 
z
M 2034 4750 
Q 2819 4750 3233 4129 
Q 3647 3509 3647 2328 
Q 3647 1150 3233 529 
Q 2819 -91 2034 -91 
Q 1250 -91 836 529 
Q 422 1150 422 2328 
Q 422 3509 836 4129 
Q 1250 4750 2034 4750 
z
" id="DejaVuSans-30" transform="scale(0.015625)"/>
        <path d="M 794 531 
L 1825 531 
L 1825 4091 
L 703 3866 
L 703 4441 
L 1819 4666 
L 2450 4666 
L 2450 531 
L 3481 531 
L 3481 0 
L 794 0 
L 794 531 
z
" id="DejaVuSans-31" transform="scale(0.015625)"/>
        <path d="M 313 2009 
L 1997 2009 
L 1997 1497 
L 313 1497 
L 313 2009 
z
" id="DejaVuSans-2d" transform="scale(0.015625)"/>
        <path d="M 703 97 
L 703 672 
Q 941 559 1184 500 
Q 1428 441 1663 441 
Q 2288 441 2617 861 
Q 2947 1281 2994 2138 
Q 2813 1869 2534 1725 
Q 2256 1581 1919 1581 
Q 1219 1581 811 2004 
Q 403 2428 403 3163 
Q 403 3881 828 4315 
Q 1253 4750 1959 4750 
Q 2769 4750 3195 4129 
Q 3622 3509 3622 2328 
Q 3622 1225 3098 567 
Q 2575 -91 1691 -91 
Q 1453 -91 1209 -44 
Q 966 3 703 97 
z
M 1959 2075 
Q 2384 2075 2632 2365 
Q 2881 2656 2881 3163 
Q 2881 3666 2632 3958 
Q 2384 4250 1959 4250 
Q 1534 4250 1286 3958 
Q 1038 3666 1038 3163 
Q 1038 2656 1286 2365 
Q 1534 2075 1959 2075 
z
" id="DejaVuSans-39" transform="scale(0.015625)"/>
       </defs>
       <use xlink:href="#DejaVuSans-32"/>
       <use x="63.623047" xlink:href="#DejaVuSans-30"/>
       <use x="127.246094" xlink:href="#DejaVuSans-32"/>
       <use x="190.869141" xlink:href="#DejaVuSans-31"/>
       <use x="254.492188" xlink:href="#DejaVuSans-2d"/>
       <use x="290.576172" xlink:href="#DejaVuSans-30"/>
       <use x="354.199219" xlink:href="#DejaVuSans-39"/>
      </g>
     </g>
    </g>
    <g id="xtick_2">
     <g id="line2d_2">
      <g>
       <use style="stroke:#000000;stroke-width:0.8;" x="142.273415" xlink:href="#md114462817" y="276.48"/>
      </g>
     </g>
     <g id="text_2">
      <!-- 2021-10 -->
      <g transform="translate(105.048594 310.951846)rotate(-30)scale(0.1 -0.1)">
       <use xlink:href="#DejaVuSans-32"/>
       <use x="63.623047" xlink:href="#DejaVuSans-30"/>
       <use x="127.246094" xlink:href="#DejaVuSans-32"/>
       <use x="190.869141" xlink:href="#DejaVuSans-31"/>
       <use x="254.492188" xlink:href="#DejaVuSans-2d"/>
       <use x="290.576172" xlink:href="#DejaVuSans-31"/>
       <use x="354.199219" xlink:href="#DejaVuSans-30"/>
      </g>
     </g>
    </g>
    <g id="xtick_3">
     <g id="line2d_3">
      <g>
       <use style="stroke:#000000;stroke-width:0.8;" x="196.674988" xlink:href="#md114462817" y="276.48"/>
      </g>
     </g>
     <g id="text_3">
      <!-- 2021-11 -->
      <g transform="translate(159.450167 310.951846)rotate(-30)scale(0.1 -0.1)">
       <use xlink:href="#DejaVuSans-32"/>
       <use x="63.623047" xlink:href="#DejaVuSans-30"/>
       <use x="127.246094" xlink:href="#DejaVuSans-32"/>
       <use x="190.869141" xlink:href="#DejaVuSans-31"/>
       <use x="254.492188" xlink:href="#DejaVuSans-2d"/>
       <use x="290.576172" xlink:href="#DejaVuSans-31"/>
       <use x="354.199219" xlink:href="#DejaVuSans-31"/>
      </g>
     </g>
    </g>
    <g id="xtick_4">
     <g id="line2d_4">
      <g>
       <use style="stroke:#000000;stroke-width:0.8;" x="249.321671" xlink:href="#md114462817" y="276.48"/>
      </g>
     </g>
     <g id="text_4">
      <!-- 2021-12 -->
      <g transform="translate(212.09685 310.951846)rotate(-30)scale(0.1 -0.1)">
       <use xlink:href="#DejaVuSans-32"/>
       <use x="63.623047" xlink:href="#DejaVuSans-30"/>
       <use x="127.246094" xlink:href="#DejaVuSans-32"/>
       <use x="190.869141" xlink:href="#DejaVuSans-31"/>
       <use x="254.492188" xlink:href="#DejaVuSans-2d"/>
       <use x="290.576172" xlink:href="#DejaVuSans-31"/>
       <use x="354.199219" xlink:href="#DejaVuSans-32"/>
      </g>
     </g>
    </g>
    <g id="xtick_5">
     <g id="line2d_5">
      <g>
       <use style="stroke:#000000;stroke-width:0.8;" x="303.723243" xlink:href="#md114462817" y="276.48"/>
      </g>
     </g>
     <g id="text_5">
      <!-- 2022-01 -->
      <g transform="translate(266.498422 310.951846)rotate(-30)scale(0.1 -0.1)">
       <use xlink:href="#DejaVuSans-32"/>
       <use x="63.623047" xlink:href="#DejaVuSans-30"/>
       <use x="127.246094" xlink:href="#DejaVuSans-32"/>
       <use x="190.869141" xlink:href="#DejaVuSans-32"/>
       <use x="254.492188" xlink:href="#DejaVuSans-2d"/>
       <use x="290.576172" xlink:href="#DejaVuSans-30"/>
       <use x="354.199219" xlink:href="#DejaVuSans-31"/>
      </g>
     </g>
    </g>
    <g id="xtick_6">
     <g id="line2d_6">
      <g>
       <use style="stroke:#000000;stroke-width:0.8;" x="358.124816" xlink:href="#md114462817" y="276.48"/>
      </g>
     </g>
     <g id="text_6">
      <!-- 2022-02 -->
      <g transform="translate(320.899995 310.951846)rotate(-30)scale(0.1 -0.1)">
       <use xlink:href="#DejaVuSans-32"/>
       <use x="63.623047" xlink:href="#DejaVuSans-30"/>
       <use x="127.246094" xlink:href="#DejaVuSans-32"/>
       <use x="190.869141" xlink:href="#DejaVuSans-32"/>
       <use x="254.492188" xlink:href="#DejaVuSans-2d"/>
       <use x="290.576172" xlink:href="#DejaVuSans-30"/>
       <use x="354.199219" xlink:href="#DejaVuSans-32"/>
      </g>
     </g>
    </g>
    <g id="xtick_7">
     <g id="line2d_7">
      <g>
       <use style="stroke:#000000;stroke-width:0.8;" x="407.26172" xlink:href="#md114462817" y="276.48"/>
      </g>
     </g>
     <g id="text_7">
      <!-- 2022-03 -->
      <g transform="translate(370.036899 310.951846)rotate(-30)scale(0.1 -0.1)">
       <defs>
        <path d="M 2597 2516 
Q 3050 2419 3304 2112 
Q 3559 1806 3559 1356 
Q 3559 666 3084 287 
Q 2609 -91 1734 -91 
Q 1441 -91 1130 -33 
Q 819 25 488 141 
L 488 750 
Q 750 597 1062 519 
Q 1375 441 1716 441 
Q 2309 441 2620 675 
Q 2931 909 2931 1356 
Q 2931 1769 2642 2001 
Q 2353 2234 1838 2234 
L 1294 2234 
L 1294 2753 
L 1863 2753 
Q 2328 2753 2575 2939 
Q 2822 3125 2822 3475 
Q 2822 3834 2567 4026 
Q 2313 4219 1838 4219 
Q 1578 4219 1281 4162 
Q 984 4106 628 3988 
L 628 4550 
Q 988 4650 1302 4700 
Q 1616 4750 1894 4750 
Q 2613 4750 3031 4423 
Q 3450 4097 3450 3541 
Q 3450 3153 3228 2886 
Q 3006 2619 2597 2516 
z
" id="DejaVuSans-33" transform="scale(0.015625)"/>
       </defs>
       <use xlink:href="#DejaVuSans-32"/>
       <use x="63.623047" xlink:href="#DejaVuSans-30"/>
       <use x="127.246094" xlink:href="#DejaVuSans-32"/>
       <use x="190.869141" xlink:href="#DejaVuSans-32"/>
       <use x="254.492188" xlink:href="#DejaVuSans-2d"/>
       <use x="290.576172" xlink:href="#DejaVuSans-30"/>
       <use x="354.199219" xlink:href="#DejaVuSans-33"/>
      </g>
     </g>
    </g>
    <g id="text_8">
     <!-- date -->
     <g transform="translate(224.885 324.351346)scale(0.1 -0.1)">
      <defs>
       <path d="M 2906 2969 
L 2906 4863 
L 3481 4863 
L 3481 0 
L 2906 0 
L 2906 525 
Q 2725 213 2448 61 
Q 2172 -91 1784 -91 
Q 1150 -91 751 415 
Q 353 922 353 1747 
Q 353 2572 751 3078 
Q 1150 3584 1784 3584 
Q 2172 3584 2448 3432 
Q 2725 3281 2906 2969 
z
M 947 1747 
Q 947 1113 1208 752 
Q 1469 391 1925 391 
Q 2381 391 2643 752 
Q 2906 1113 2906 1747 
Q 2906 2381 2643 2742 
Q 2381 3103 1925 3103 
Q 1469 3103 1208 2742 
Q 947 2381 947 1747 
z
" id="DejaVuSans-64" transform="scale(0.015625)"/>
       <path d="M 2194 1759 
Q 1497 1759 1228 1600 
Q 959 1441 959 1056 
Q 959 750 1161 570 
Q 1363 391 1709 391 
Q 2188 391 2477 730 
Q 2766 1069 2766 1631 
L 2766 1759 
L 2194 1759 
z
M 3341 1997 
L 3341 0 
L 2766 0 
L 2766 531 
Q 2569 213 2275 61 
Q 1981 -91 1556 -91 
Q 1019 -91 701 211 
Q 384 513 384 1019 
Q 384 1609 779 1909 
Q 1175 2209 1959 2209 
L 2766 2209 
L 2766 2266 
Q 2766 2663 2505 2880 
Q 2244 3097 1772 3097 
Q 1472 3097 1187 3025 
Q 903 2953 641 2809 
L 641 3341 
Q 956 3463 1253 3523 
Q 1550 3584 1831 3584 
Q 2591 3584 2966 3190 
Q 3341 2797 3341 1997 
z
" id="DejaVuSans-61" transform="scale(0.015625)"/>
       <path d="M 1172 4494 
L 1172 3500 
L 2356 3500 
L 2356 3053 
L 1172 3053 
L 1172 1153 
Q 1172 725 1289 603 
Q 1406 481 1766 481 
L 2356 481 
L 2356 0 
L 1766 0 
Q 1100 0 847 248 
Q 594 497 594 1153 
L 594 3053 
L 172 3053 
L 172 3500 
L 594 3500 
L 594 4494 
L 1172 4494 
z
" id="DejaVuSans-74" transform="scale(0.015625)"/>
       <path d="M 3597 1894 
L 3597 1613 
L 953 1613 
Q 991 1019 1311 708 
Q 1631 397 2203 397 
Q 2534 397 2845 478 
Q 3156 559 3463 722 
L 3463 178 
Q 3153 47 2828 -22 
Q 2503 -91 2169 -91 
Q 1331 -91 842 396 
Q 353 884 353 1716 
Q 353 2575 817 3079 
Q 1281 3584 2069 3584 
Q 2775 3584 3186 3129 
Q 3597 2675 3597 1894 
z
M 3022 2063 
Q 3016 2534 2758 2815 
Q 2500 3097 2075 3097 
Q 1594 3097 1305 2825 
Q 1016 2553 972 2059 
L 3022 2063 
z
" id="DejaVuSans-65" transform="scale(0.015625)"/>
      </defs>
      <use xlink:href="#DejaVuSans-64"/>
      <use x="63.476562" xlink:href="#DejaVuSans-61"/>
      <use x="124.755859" xlink:href="#DejaVuSans-74"/>
      <use x="163.964844" xlink:href="#DejaVuSans-65"/>
     </g>
    </g>
   </g>
   <g id="matplotlib.axis_2">
    <g id="ytick_1">
     <g id="line2d_8">
      <defs>
       <path d="M 0 0 
L -3.5 0 
" id="m769959c16d" style="stroke:#000000;stroke-width:0.8;"/>
      </defs>
      <g>
       <use style="stroke:#000000;stroke-width:0.8;" x="57.6" xlink:href="#m769959c16d" y="267.79153"/>
      </g>
     </g>
     <g id="text_9">
      <!-- 85000 -->
      <g transform="translate(18.7875 271.590749)scale(0.1 -0.1)">
       <defs>
        <path d="M 2034 2216 
Q 1584 2216 1326 1975 
Q 1069 1734 1069 1313 
Q 1069 891 1326 650 
Q 1584 409 2034 409 
Q 2484 409 2743 651 
Q 3003 894 3003 1313 
Q 3003 1734 2745 1975 
Q 2488 2216 2034 2216 
z
M 1403 2484 
Q 997 2584 770 2862 
Q 544 3141 544 3541 
Q 544 4100 942 4425 
Q 1341 4750 2034 4750 
Q 2731 4750 3128 4425 
Q 3525 4100 3525 3541 
Q 3525 3141 3298 2862 
Q 3072 2584 2669 2484 
Q 3125 2378 3379 2068 
Q 3634 1759 3634 1313 
Q 3634 634 3220 271 
Q 2806 -91 2034 -91 
Q 1263 -91 848 271 
Q 434 634 434 1313 
Q 434 1759 690 2068 
Q 947 2378 1403 2484 
z
M 1172 3481 
Q 1172 3119 1398 2916 
Q 1625 2713 2034 2713 
Q 2441 2713 2670 2916 
Q 2900 3119 2900 3481 
Q 2900 3844 2670 4047 
Q 2441 4250 2034 4250 
Q 1625 4250 1398 4047 
Q 1172 3844 1172 3481 
z
" id="DejaVuSans-38" transform="scale(0.015625)"/>
        <path d="M 691 4666 
L 3169 4666 
L 3169 4134 
L 1269 4134 
L 1269 2991 
Q 1406 3038 1543 3061 
Q 1681 3084 1819 3084 
Q 2600 3084 3056 2656 
Q 3513 2228 3513 1497 
Q 3513 744 3044 326 
Q 2575 -91 1722 -91 
Q 1428 -91 1123 -41 
Q 819 9 494 109 
L 494 744 
Q 775 591 1075 516 
Q 1375 441 1709 441 
Q 2250 441 2565 725 
Q 2881 1009 2881 1497 
Q 2881 1984 2565 2268 
Q 2250 2553 1709 2553 
Q 1456 2553 1204 2497 
Q 953 2441 691 2322 
L 691 4666 
z
" id="DejaVuSans-35" transform="scale(0.015625)"/>
       </defs>
       <use xlink:href="#DejaVuSans-38"/>
       <use x="63.623047" xlink:href="#DejaVuSans-35"/>
       <use x="127.246094" xlink:href="#DejaVuSans-30"/>
       <use x="190.869141" xlink:href="#DejaVuSans-30"/>
       <use x="254.492188" xlink:href="#DejaVuSans-30"/>
      </g>
     </g>
    </g>
    <g id="ytick_2">
     <g id="line2d_9">
      <g>
       <use style="stroke:#000000;stroke-width:0.8;" x="57.6" xlink:href="#m769959c16d" y="231.594514"/>
      </g>
     </g>
     <g id="text_10">
      <!-- 90000 -->
      <g transform="translate(18.7875 235.393733)scale(0.1 -0.1)">
       <use xlink:href="#DejaVuSans-39"/>
       <use x="63.623047" xlink:href="#DejaVuSans-30"/>
       <use x="127.246094" xlink:href="#DejaVuSans-30"/>
       <use x="190.869141" xlink:href="#DejaVuSans-30"/>
       <use x="254.492188" xlink:href="#DejaVuSans-30"/>
      </g>
     </g>
    </g>
    <g id="ytick_3">
     <g id="line2d_10">
      <g>
       <use style="stroke:#000000;stroke-width:0.8;" x="57.6" xlink:href="#m769959c16d" y="195.397498"/>
      </g>
     </g>
     <g id="text_11">
      <!-- 95000 -->
      <g transform="translate(18.7875 199.196717)scale(0.1 -0.1)">
       <use xlink:href="#DejaVuSans-39"/>
       <use x="63.623047" xlink:href="#DejaVuSans-35"/>
       <use x="127.246094" xlink:href="#DejaVuSans-30"/>
       <use x="190.869141" xlink:href="#DejaVuSans-30"/>
       <use x="254.492188" xlink:href="#DejaVuSans-30"/>
      </g>
     </g>
    </g>
    <g id="ytick_4">
     <g id="line2d_11">
      <g>
       <use style="stroke:#000000;stroke-width:0.8;" x="57.6" xlink:href="#m769959c16d" y="159.200482"/>
      </g>
     </g>
     <g id="text_12">
      <!-- 100000 -->
      <g transform="translate(12.425 162.999701)scale(0.1 -0.1)">
       <use xlink:href="#DejaVuSans-31"/>
       <use x="63.623047" xlink:href="#DejaVuSans-30"/>
       <use x="127.246094" xlink:href="#DejaVuSans-30"/>
       <use x="190.869141" xlink:href="#DejaVuSans-30"/>
       <use x="254.492188" xlink:href="#DejaVuSans-30"/>
       <use x="318.115234" xlink:href="#DejaVuSans-30"/>
      </g>
     </g>
    </g>
    <g id="ytick_5">
     <g id="line2d_12">
      <g>
       <use style="stroke:#000000;stroke-width:0.8;" x="57.6" xlink:href="#m769959c16d" y="123.003466"/>
      </g>
     </g>
     <g id="text_13">
      <!-- 105000 -->
      <g transform="translate(12.425 126.802685)scale(0.1 -0.1)">
       <use xlink:href="#DejaVuSans-31"/>
       <use x="63.623047" xlink:href="#DejaVuSans-30"/>
       <use x="127.246094" xlink:href="#DejaVuSans-35"/>
       <use x="190.869141" xlink:href="#DejaVuSans-30"/>
       <use x="254.492188" xlink:href="#DejaVuSans-30"/>
       <use x="318.115234" xlink:href="#DejaVuSans-30"/>
      </g>
     </g>
    </g>
    <g id="ytick_6">
     <g id="line2d_13">
      <g>
       <use style="stroke:#000000;stroke-width:0.8;" x="57.6" xlink:href="#m769959c16d" y="86.80645"/>
      </g>
     </g>
     <g id="text_14">
      <!-- 110000 -->
      <g transform="translate(12.425 90.605669)scale(0.1 -0.1)">
       <use xlink:href="#DejaVuSans-31"/>
       <use x="63.623047" xlink:href="#DejaVuSans-31"/>
       <use x="127.246094" xlink:href="#DejaVuSans-30"/>
       <use x="190.869141" xlink:href="#DejaVuSans-30"/>
       <use x="254.492188" xlink:href="#DejaVuSans-30"/>
       <use x="318.115234" xlink:href="#DejaVuSans-30"/>
      </g>
     </g>
    </g>
    <g id="ytick_7">
     <g id="line2d_14">
      <g>
       <use style="stroke:#000000;stroke-width:0.8;" x="57.6" xlink:href="#m769959c16d" y="50.609434"/>
      </g>
     </g>
     <g id="text_15">
      <!-- 115000 -->
      <g transform="translate(12.425 54.408652)scale(0.1 -0.1)">
       <use xlink:href="#DejaVuSans-31"/>
       <use x="63.623047" xlink:href="#DejaVuSans-31"/>
       <use x="127.246094" xlink:href="#DejaVuSans-35"/>
       <use x="190.869141" xlink:href="#DejaVuSans-30"/>
       <use x="254.492188" xlink:href="#DejaVuSans-30"/>
       <use x="318.115234" xlink:href="#DejaVuSans-30"/>
      </g>
     </g>
    </g>
   </g>
   <g id="line2d_15">
    <path clip-path="url(#p51b78e6c20)" d="M 73.832727 159.200482 
L 75.587617 159.694514 
L 77.342506 157.138358 
L 79.097396 160.886876 
L 80.852285 154.01029 
L 86.116953 149.336426 
L 87.871843 148.275275 
L 89.626732 149.960364 
L 91.381622 149.434359 
L 93.136511 149.520833 
L 100.156069 149.68997 
L 103.665848 154.745675 
L 105.420737 160.882465 
L 110.685405 155.407451 
L 112.440295 165.568989 
L 114.195184 160.246609 
L 115.950074 161.533467 
L 117.704963 168.7432 
L 122.969631 181.387566 
L 124.724521 182.802618 
L 126.47941 177.46007 
L 128.2343 165.842875 
L 129.989189 159.705792 
L 135.253857 154.631794 
L 137.008747 169.579142 
L 138.763636 167.347106 
L 140.518526 173.038188 
L 142.273415 162.336271 
L 147.538084 175.721819 
L 149.292973 165.083541 
L 151.047862 162.465804 
L 152.802752 162.009678 
L 154.557641 160.999152 
L 159.82231 160.193791 
L 161.577199 159.08475 
L 163.332088 168.853443 
L 165.086978 154.675414 
L 166.841867 153.183707 
L 172.106536 147.682568 
L 173.861425 140.254285 
L 175.616314 137.030892 
L 177.371204 149.911201 
L 179.126093 158.935983 
L 184.390762 158.252179 
L 186.145651 164.753054 
L 187.900541 166.8978 
L 189.65543 157.692187 
L 191.410319 166.446452 
L 196.674988 151.658597 
L 198.429877 151.918462 
L 200.184767 144.963811 
L 201.939656 154.192154 
L 203.694545 148.754241 
L 208.959214 148.52686 
L 210.714103 157.387949 
L 212.468993 157.373756 
L 214.223882 163.391419 
L 215.978771 157.682054 
L 221.24344 155.017392 
L 222.998329 155.329786 
L 224.753219 159.264122 
L 226.508108 161.036288 
L 228.262998 161.587367 
L 233.527666 157.279434 
L 235.282555 151.093419 
L 237.037445 151.868448 
L 240.547224 151.814394 
L 245.811892 157.692932 
L 247.566781 172.102885 
L 249.321671 181.483226 
L 251.07656 172.560691 
L 252.83145 177.298057 
L 258.096118 164.240915 
L 259.851007 151.474596 
L 261.605897 145.480735 
L 263.360786 144.979058 
L 265.115676 142.719422 
L 270.380344 149.599006 
L 272.135233 146.290121 
L 273.890123 141.735701 
L 275.645012 139.192059 
L 277.399902 147.951824 
L 282.66457 157.329005 
L 284.419459 140.876342 
L 286.174349 137.19444 
L 287.929238 130.43886 
L 294.948796 121.297499 
L 298.458575 121.241637 
L 300.213464 122.486349 
L 301.968354 126.127379 
L 307.233022 113.932807 
L 308.987912 105.051091 
L 310.742801 124.917691 
L 312.49769 118.691327 
L 314.25258 116.038328 
L 319.517248 115.517513 
L 321.272138 108.76942 
L 323.027027 107.641614 
L 324.781916 116.769536 
L 326.536806 114.523348 
L 333.556364 131.418216 
L 335.311253 135.033982 
L 337.066143 143.871775 
L 338.821032 160.774584 
L 344.0857 158.939942 
L 345.84059 167.362207 
L 347.595479 168.012895 
L 349.350369 172.295236 
L 351.105258 153.9799 
L 356.369926 138.660669 
L 358.124816 131.661643 
L 359.879705 120.083747 
L 361.634595 168.182423 
L 363.389484 167.174436 
L 368.654152 179.073176 
L 370.409042 181.03409 
L 372.163931 165.428172 
L 373.918821 177.828136 
L 375.67371 194.022848 
L 380.938378 198.676486 
L 382.693268 190.634775 
L 384.448157 194.419366 
L 386.203047 207.094886 
L 387.957936 210.833363 
L 394.977494 218.543691 
L 396.732383 227.453967 
L 398.487273 217.830398 
L 398.487273 217.830398 
" style="fill:none;stroke:#0000ff;stroke-linecap:square;stroke-opacity:0.9;stroke-width:2;"/>
   </g>
   <g id="line2d_16">
    <path clip-path="url(#p51b78e6c20)" d="M 73.832727 159.200482 
L 75.587617 154.949914 
L 77.342506 151.888803 
L 79.097396 156.482178 
L 80.852285 147.699523 
L 87.871843 144.348885 
L 89.626732 144.459138 
L 91.381622 145.183699 
L 93.136511 145.187291 
L 100.156069 144.077755 
L 101.910958 146.630052 
L 103.665848 148.115515 
L 105.420737 156.080009 
L 110.685405 151.038038 
L 112.440295 157.421111 
L 114.195184 154.11526 
L 115.950074 156.568079 
L 117.704963 165.24864 
L 122.969631 177.196656 
L 124.724521 177.094186 
L 126.47941 172.947843 
L 128.2343 163.590626 
L 129.989189 158.185371 
L 135.253857 153.558477 
L 137.008747 168.370433 
L 138.763636 166.99253 
L 140.518526 174.651818 
L 142.273415 163.762854 
L 147.538084 171.550454 
L 149.292973 161.71637 
L 151.047862 159.273135 
L 152.802752 157.936514 
L 154.557641 154.448271 
L 159.82231 158.253512 
L 161.577199 164.296991 
L 163.332088 166.233523 
L 165.086978 148.630004 
L 166.841867 143.183205 
L 172.106536 141.427472 
L 173.861425 135.238997 
L 175.616314 131.568248 
L 177.371204 140.963889 
L 179.126093 144.825287 
L 184.390762 146.884906 
L 186.145651 150.548501 
L 187.900541 154.74335 
L 189.65543 144.459277 
L 191.410319 143.548831 
L 196.674988 143.114428 
L 198.429877 140.421097 
L 200.184767 134.418534 
L 201.939656 135.998337 
L 203.694545 135.789631 
L 208.959214 135.423543 
L 210.714103 140.796842 
L 212.468993 144.513966 
L 214.223882 144.305481 
L 215.978771 139.740174 
L 221.24344 138.275196 
L 222.998329 139.473914 
L 224.753219 140.353404 
L 226.508108 140.481272 
L 228.262998 142.830708 
L 233.527666 139.800225 
L 235.282555 132.902367 
L 237.037445 132.588422 
L 240.547224 151.825912 
L 245.811892 143.43472 
L 247.566781 159.100266 
L 249.321671 167.571539 
L 251.07656 157.518072 
L 252.83145 163.571964 
L 258.096118 152.703005 
L 259.851007 139.907161 
L 261.605897 135.554559 
L 263.360786 136.467502 
L 265.115676 131.357984 
L 270.380344 138.853138 
L 272.135233 138.828391 
L 273.890123 133.099224 
L 275.645012 132.733183 
L 277.399902 142.446947 
L 282.66457 150.636208 
L 284.419459 137.112626 
L 286.174349 132.751784 
L 287.929238 126.449065 
L 294.948796 116.542576 
L 296.703686 116.93867 
L 298.458575 116.095483 
L 300.213464 117.65744 
L 301.968354 120.025641 
L 307.233022 111.94219 
L 308.987912 104.168651 
L 310.742801 121.2249 
L 312.49769 118.227179 
L 314.25258 114.184637 
L 319.517248 115.096696 
L 321.272138 110.601138 
L 323.027027 110.133852 
L 324.781916 116.396625 
L 326.536806 116.507859 
L 333.556364 133.277117 
L 335.311253 140.780802 
L 337.066143 147.736891 
L 338.821032 162.560448 
L 344.0857 164.055856 
L 345.84059 162.083725 
L 347.595479 163.043079 
L 349.350369 169.866635 
L 351.105258 152.124575 
L 356.369926 141.072866 
L 358.124816 132.028546 
L 359.879705 120.45107 
L 361.634595 153.923459 
L 363.389484 148.2502 
L 368.654152 152.759763 
L 370.409042 147.737422 
L 372.163931 141.489956 
L 373.918821 153.128408 
L 375.67371 168.690689 
L 380.938378 175.344511 
L 382.693268 166.618511 
L 384.448157 168.674374 
L 386.203047 182.582787 
L 387.957936 185.784504 
L 394.977494 191.63834 
L 396.732383 201.152547 
L 398.487273 197.996061 
L 398.487273 197.996061 
" style="fill:none;stroke:#ff0000;stroke-linecap:square;stroke-opacity:0.9;stroke-width:2;"/>
   </g>
   <g id="line2d_17">
    <path clip-path="url(#p51b78e6c20)" d="M 73.832727 159.200482 
L 77.342506 152.168395 
L 79.097396 156.351186 
L 80.852285 149.42694 
L 87.871843 143.53669 
L 89.626732 145.591709 
L 91.381622 144.052067 
L 93.136511 144.463806 
L 100.156069 144.782495 
L 101.910958 146.8306 
L 103.665848 149.4888 
L 105.420737 155.372927 
L 110.685405 149.318715 
L 112.440295 160.169327 
L 114.195184 154.891511 
L 115.950074 156.158372 
L 117.704963 162.964853 
L 122.969631 174.683321 
L 124.724521 176.858319 
L 126.47941 171.604017 
L 128.2343 159.9446 
L 129.989189 153.501662 
L 135.253857 147.410296 
L 137.008747 163.111349 
L 138.763636 160.583365 
L 140.518526 165.731049 
L 142.273415 155.077321 
L 147.538084 168.060145 
L 149.292973 157.379781 
L 151.047862 154.409247 
L 152.802752 152.411143 
L 154.557641 149.88517 
L 159.82231 153.491297 
L 161.577199 159.8319 
L 163.332088 160.55026 
L 165.086978 146.989822 
L 166.841867 145.901246 
L 172.106536 139.773615 
L 173.861425 131.984111 
L 175.616314 128.670832 
L 177.371204 140.826417 
L 179.126093 150.895524 
L 184.390762 150.132561 
L 186.145651 156.769762 
L 187.900541 158.198688 
L 189.65543 148.794285 
L 191.410319 147.613263 
L 196.674988 143.573324 
L 198.429877 142.709316 
L 200.184767 136.405337 
L 201.939656 136.264581 
L 203.694545 131.396761 
L 208.959214 129.93037 
L 210.714103 139.525812 
L 212.468993 145.281459 
L 214.223882 145.77472 
L 215.978771 139.969199 
L 221.24344 137.497948 
L 222.998329 141.134376 
L 224.753219 141.701804 
L 226.508108 143.233552 
L 228.262998 143.150605 
L 233.527666 139.059829 
L 235.282555 132.619964 
L 237.037445 133.072645 
L 240.547224 149.991913 
L 245.811892 140.446127 
L 247.566781 155.307411 
L 249.321671 165.362535 
L 251.07656 156.51131 
L 252.83145 161.498716 
L 258.096118 147.745042 
L 259.851007 134.482974 
L 261.605897 128.095676 
L 263.360786 128.332772 
L 265.115676 125.531339 
L 270.380344 132.75952 
L 272.135233 129.378178 
L 273.890123 124.979488 
L 275.645012 122.01292 
L 277.399902 130.679619 
L 282.66457 141.11119 
L 284.419459 123.88835 
L 286.174349 120.367743 
L 287.929238 113.11154 
L 294.948796 103.582326 
L 296.703686 104.082737 
L 298.458575 104.035377 
L 300.213464 104.870455 
L 301.968354 108.352445 
L 307.233022 96.644363 
L 308.987912 86.802175 
L 310.742801 107.23559 
L 312.49769 99.394811 
L 314.25258 96.334485 
L 319.517248 94.590301 
L 321.272138 88.068997 
L 323.027027 86.599911 
L 324.781916 96.145913 
L 326.536806 93.355541 
L 333.556364 110.409311 
L 335.311253 114.24253 
L 337.066143 122.774714 
L 338.821032 140.472931 
L 344.0857 138.956433 
L 345.84059 148.14479 
L 347.595479 148.052255 
L 349.350369 153.131628 
L 351.105258 133.690609 
L 356.369926 117.899703 
L 358.124816 110.263556 
L 359.879705 97.382306 
L 361.634595 149.858554 
L 363.389484 149.122525 
L 368.654152 161.474661 
L 370.409042 163.637514 
L 372.163931 147.237193 
L 373.918821 160.630812 
L 375.67371 176.351605 
L 380.938378 181.484404 
L 382.693268 172.921207 
L 384.448157 176.626259 
L 386.203047 189.620117 
L 387.957936 193.688413 
L 394.977494 200.788438 
L 396.732383 210.474954 
L 398.487273 194.632801 
L 398.487273 194.632801 
" style="fill:none;stroke:#ff8040;stroke-linecap:square;stroke-opacity:0.9;stroke-width:2;"/>
   </g>
   <g id="line2d_18">
    <path clip-path="url(#p51b78e6c20)" d="M 73.832727 159.924422 
L 77.342506 156.102656 
L 79.097396 162.493032 
L 80.852285 154.677284 
L 86.116953 155.200573 
L 87.871843 154.389169 
L 89.626732 153.767502 
L 91.381622 156.529744 
L 93.136511 155.524159 
L 100.156069 154.342506 
L 101.910958 156.742799 
L 103.665848 158.352237 
L 105.420737 167.863385 
L 110.685405 163.290128 
L 112.440295 170.357002 
L 114.195184 167.343131 
L 115.950074 169.862294 
L 117.704963 178.709786 
L 122.969631 191.124939 
L 124.724521 191.007645 
L 126.47941 188.918339 
L 128.2343 180.902814 
L 129.989189 174.671602 
L 135.253857 172.171261 
L 137.008747 189.832119 
L 138.763636 192.276988 
L 140.518526 198.427699 
L 142.273415 187.892983 
L 147.538084 197.515725 
L 149.292973 187.425367 
L 151.047862 186.033871 
L 152.802752 187.52095 
L 154.557641 184.86112 
L 159.82231 187.413876 
L 161.577199 192.685801 
L 163.332088 194.050339 
L 165.086978 175.743397 
L 166.841867 169.616334 
L 172.106536 166.13087 
L 173.861425 159.3422 
L 175.616314 155.434609 
L 177.371204 168.381069 
L 179.126093 176.277444 
L 184.390762 176.749489 
L 186.145651 180.683406 
L 187.900541 188.506035 
L 189.65543 178.628584 
L 191.410319 181.720042 
L 196.674988 179.494128 
L 198.429877 178.560784 
L 201.939656 169.872507 
L 203.694545 173.281097 
L 208.959214 171.586929 
L 210.714103 173.334955 
L 212.468993 178.756936 
L 214.223882 178.749581 
L 215.978771 176.128527 
L 221.24344 175.806221 
L 222.998329 177.730764 
L 224.753219 178.58754 
L 226.508108 182.652284 
L 228.262998 184.309994 
L 233.527666 181.650612 
L 235.282555 175.393898 
L 237.037445 175.528738 
L 240.547224 194.268401 
L 245.811892 184.577462 
L 247.566781 199.602799 
L 249.321671 208.612298 
L 251.07656 199.607063 
L 252.83145 205.135403 
L 258.096118 194.40054 
L 259.851007 184.261407 
L 261.605897 178.673177 
L 263.360786 179.270977 
L 265.115676 171.564116 
L 270.380344 177.627776 
L 272.135233 174.964301 
L 273.890123 171.768973 
L 275.645012 167.753793 
L 277.399902 177.12581 
L 282.66457 185.453301 
L 284.419459 173.929802 
L 286.174349 169.830256 
L 287.929238 163.949201 
L 294.948796 154.231399 
L 296.703686 154.523283 
L 298.458575 153.74706 
L 300.213464 153.841625 
L 301.968354 156.026783 
L 307.233022 148.132126 
L 308.987912 143.035453 
L 310.742801 163.546126 
L 312.49769 161.860277 
L 314.25258 157.88548 
L 319.517248 158.735049 
L 321.272138 156.192002 
L 323.027027 154.854279 
L 324.781916 161.344689 
L 326.536806 160.253776 
L 333.556364 172.806282 
L 335.311253 185.471071 
L 337.066143 192.452978 
L 338.821032 206.775669 
L 344.0857 204.83026 
L 345.84059 214.019747 
L 347.595479 213.388226 
L 349.350369 219.032951 
L 351.105258 199.725292 
L 356.369926 191.86126 
L 358.124816 184.884363 
L 359.879705 170.593788 
L 361.634595 215.618176 
L 363.389484 208.685824 
L 368.654152 215.046054 
L 370.409042 212.360856 
L 372.163931 205.16587 
L 373.918821 216.217126 
L 375.67371 232.036936 
L 380.938378 234.92978 
L 382.693268 226.941251 
L 384.448157 229.583348 
L 386.203047 248.16288 
L 387.957936 250.750353 
L 394.977494 257.918648 
L 396.732383 265.797818 
L 398.487273 257.988667 
L 398.487273 257.988667 
" style="fill:none;stroke:#0d0d0d;stroke-linecap:square;stroke-opacity:0.25;stroke-width:2;"/>
   </g>
   <g id="line2d_19">
    <path clip-path="url(#p51b78e6c20)" d="M 73.832727 158.476542 
L 77.342506 146.703614 
L 79.097396 149.662013 
L 80.852285 139.868483 
L 86.116953 136.371252 
L 87.871843 135.977104 
L 89.626732 135.014788 
L 91.381622 132.481041 
L 93.136511 131.571555 
L 100.156069 128.139599 
L 101.910958 129.079697 
L 103.665848 130.584739 
L 105.420737 138.905342 
L 110.685405 131.728883 
L 112.440295 137.825504 
L 114.195184 132.503329 
L 115.950074 134.874587 
L 117.704963 144.255015 
L 122.969631 155.332799 
L 124.724521 154.56869 
L 126.47941 148.378428 
L 128.2343 140.84275 
L 129.989189 136.295256 
L 135.253857 128.890834 
L 137.008747 142.480845 
L 138.763636 140.037694 
L 140.518526 148.480947 
L 142.273415 137.36661 
L 147.538084 151.950749 
L 149.292973 141.342055 
L 151.047862 138.149979 
L 152.802752 139.388176 
L 154.557641 136.452247 
L 159.82231 140.450918 
L 161.577199 145.60586 
L 163.332088 146.692172 
L 165.086978 127.937051 
L 166.841867 123.075583 
L 172.106536 118.927977 
L 175.616314 105.644405 
L 177.371204 114.091399 
L 179.126093 118.271095 
L 184.390762 121.93959 
L 186.145651 125.480011 
L 187.900541 127.159672 
L 189.65543 117.310141 
L 191.410319 114.228693 
L 196.674988 116.104381 
L 198.429877 112.884834 
L 200.184767 104.092175 
L 201.939656 105.426719 
L 203.694545 106.385994 
L 208.959214 105.218786 
L 210.714103 110.107828 
L 212.468993 117.7762 
L 214.223882 116.789165 
L 215.978771 111.434884 
L 222.998329 109.156677 
L 224.753219 110.746673 
L 226.508108 106.250182 
L 228.262998 108.941191 
L 233.527666 100.510777 
L 235.282555 89.30604 
L 237.037445 91.429027 
L 240.547224 113.019347 
L 245.811892 105.125586 
L 247.566781 124.424891 
L 249.321671 133.456956 
L 251.07656 122.926305 
L 252.83145 130.476635 
L 258.096118 118.001052 
L 259.851007 105.73772 
L 261.605897 103.446174 
L 263.360786 103.88621 
L 265.115676 101.739146 
L 270.380344 107.197141 
L 272.135233 107.501757 
L 273.890123 99.751218 
L 275.645012 96.99322 
L 277.399902 105.415346 
L 282.66457 113.190445 
L 284.419459 98.303099 
L 286.174349 96.644587 
L 287.929238 87.659509 
L 294.948796 78.110054 
L 298.458575 78.313998 
L 300.213464 79.006632 
L 301.968354 81.449164 
L 307.233022 73.262893 
L 308.987912 61.003101 
L 310.742801 75.678986 
L 312.49769 66.098672 
L 314.25258 59.510483 
L 319.517248 61.415195 
L 321.272138 53.532802 
L 323.027027 52.154182 
L 324.781916 58.560011 
L 326.536806 58.030605 
L 333.556364 77.382726 
L 335.311253 86.6285 
L 337.066143 94.88206 
L 338.821032 111.509584 
L 344.0857 112.125359 
L 345.84059 112.624854 
L 347.595479 109.744871 
L 349.350369 117.070636 
L 351.105258 97.185313 
L 356.369926 84.73749 
L 358.124816 74.288042 
L 359.879705 63.063169 
L 361.634595 83.347099 
L 363.389484 81.537098 
L 368.654152 83.477281 
L 370.409042 77.752195 
L 372.163931 71.098874 
L 373.918821 83.586685 
L 375.67371 99.312052 
L 380.938378 103.384752 
L 382.693268 96.252773 
L 384.448157 100.309375 
L 386.203047 111.130557 
L 387.957936 115.830045 
L 394.977494 123.837614 
L 396.732383 133.823877 
L 398.487273 126.810438 
L 398.487273 126.810438 
" style="fill:none;stroke:#0d0d0d;stroke-linecap:square;stroke-opacity:0.25;stroke-width:2;"/>
   </g>
   <g id="patch_3">
    <path d="M 57.6 276.48 
L 57.6 41.472 
" style="fill:none;stroke:#000000;stroke-linecap:square;stroke-linejoin:miter;stroke-width:0.8;"/>
   </g>
   <g id="patch_4">
    <path d="M 414.72 276.48 
L 414.72 41.472 
" style="fill:none;stroke:#000000;stroke-linecap:square;stroke-linejoin:miter;stroke-width:0.8;"/>
   </g>
   <g id="patch_5">
    <path d="M 57.6 276.48 
L 414.72 276.48 
" style="fill:none;stroke:#000000;stroke-linecap:square;stroke-linejoin:miter;stroke-width:0.8;"/>
   </g>
   <g id="patch_6">
    <path d="M 57.6 41.472 
L 414.72 41.472 
" style="fill:none;stroke:#000000;stroke-linecap:square;stroke-linejoin:miter;stroke-width:0.8;"/>
   </g>
   <g id="text_16">
    <!-- TESTFUNDS1330 -->
    <g transform="translate(185.200312 22.034625)scale(0.12 -0.12)">
     <defs>
      <path d="M -19 4666 
L 3928 4666 
L 3928 4134 
L 2272 4134 
L 2272 0 
L 1638 0 
L 1638 4134 
L -19 4134 
L -19 4666 
z
" id="DejaVuSans-54" transform="scale(0.015625)"/>
      <path d="M 628 4666 
L 3578 4666 
L 3578 4134 
L 1259 4134 
L 1259 2753 
L 3481 2753 
L 3481 2222 
L 1259 2222 
L 1259 531 
L 3634 531 
L 3634 0 
L 628 0 
L 628 4666 
z
" id="DejaVuSans-45" transform="scale(0.015625)"/>
      <path d="M 3425 4513 
L 3425 3897 
Q 3066 4069 2747 4153 
Q 2428 4238 2131 4238 
Q 1616 4238 1336 4038 
Q 1056 3838 1056 3469 
Q 1056 3159 1242 3001 
Q 1428 2844 1947 2747 
L 2328 2669 
Q 3034 2534 3370 2195 
Q 3706 1856 3706 1288 
Q 3706 609 3251 259 
Q 2797 -91 1919 -91 
Q 1588 -91 1214 -16 
Q 841 59 441 206 
L 441 856 
Q 825 641 1194 531 
Q 1563 422 1919 422 
Q 2459 422 2753 634 
Q 3047 847 3047 1241 
Q 3047 1584 2836 1778 
Q 2625 1972 2144 2069 
L 1759 2144 
Q 1053 2284 737 2584 
Q 422 2884 422 3419 
Q 422 4038 858 4394 
Q 1294 4750 2059 4750 
Q 2388 4750 2728 4690 
Q 3069 4631 3425 4513 
z
" id="DejaVuSans-53" transform="scale(0.015625)"/>
      <path d="M 628 4666 
L 3309 4666 
L 3309 4134 
L 1259 4134 
L 1259 2759 
L 3109 2759 
L 3109 2228 
L 1259 2228 
L 1259 0 
L 628 0 
L 628 4666 
z
" id="DejaVuSans-46" transform="scale(0.015625)"/>
      <path d="M 556 4666 
L 1191 4666 
L 1191 1831 
Q 1191 1081 1462 751 
Q 1734 422 2344 422 
Q 2950 422 3222 751 
Q 3494 1081 3494 1831 
L 3494 4666 
L 4128 4666 
L 4128 1753 
Q 4128 841 3676 375 
Q 3225 -91 2344 -91 
Q 1459 -91 1007 375 
Q 556 841 556 1753 
L 556 4666 
z
" id="DejaVuSans-55" transform="scale(0.015625)"/>
      <path d="M 628 4666 
L 1478 4666 
L 3547 763 
L 3547 4666 
L 4159 4666 
L 4159 0 
L 3309 0 
L 1241 3903 
L 1241 0 
L 628 0 
L 628 4666 
z
" id="DejaVuSans-4e" transform="scale(0.015625)"/>
      <path d="M 1259 4147 
L 1259 519 
L 2022 519 
Q 2988 519 3436 956 
Q 3884 1394 3884 2338 
Q 3884 3275 3436 3711 
Q 2988 4147 2022 4147 
L 1259 4147 
z
M 628 4666 
L 1925 4666 
Q 3281 4666 3915 4102 
Q 4550 3538 4550 2338 
Q 4550 1131 3912 565 
Q 3275 0 1925 0 
L 628 0 
L 628 4666 
z
" id="DejaVuSans-44" transform="scale(0.015625)"/>
     </defs>
     <use xlink:href="#DejaVuSans-54"/>
     <use x="61.083984" xlink:href="#DejaVuSans-45"/>
     <use x="124.267578" xlink:href="#DejaVuSans-53"/>
     <use x="187.744141" xlink:href="#DejaVuSans-54"/>
     <use x="248.828125" xlink:href="#DejaVuSans-46"/>
     <use x="306.347656" xlink:href="#DejaVuSans-55"/>
     <use x="379.541016" xlink:href="#DejaVuSans-4e"/>
     <use x="454.345703" xlink:href="#DejaVuSans-44"/>
     <use x="531.347656" xlink:href="#DejaVuSans-53"/>
     <use x="594.824219" xlink:href="#DejaVuSans-31"/>
     <use x="658.447266" xlink:href="#DejaVuSans-33"/>
     <use x="722.070312" xlink:href="#DejaVuSans-33"/>
     <use x="785.693359" xlink:href="#DejaVuSans-30"/>
    </g>
    <!-- daily_report -->
    <g transform="translate(200.466563 35.472)scale(0.12 -0.12)">
     <defs>
      <path d="M 603 3500 
L 1178 3500 
L 1178 0 
L 603 0 
L 603 3500 
z
M 603 4863 
L 1178 4863 
L 1178 4134 
L 603 4134 
L 603 4863 
z
" id="DejaVuSans-69" transform="scale(0.015625)"/>
      <path d="M 603 4863 
L 1178 4863 
L 1178 0 
L 603 0 
L 603 4863 
z
" id="DejaVuSans-6c" transform="scale(0.015625)"/>
      <path d="M 2059 -325 
Q 1816 -950 1584 -1140 
Q 1353 -1331 966 -1331 
L 506 -1331 
L 506 -850 
L 844 -850 
Q 1081 -850 1212 -737 
Q 1344 -625 1503 -206 
L 1606 56 
L 191 3500 
L 800 3500 
L 1894 763 
L 2988 3500 
L 3597 3500 
L 2059 -325 
z
" id="DejaVuSans-79" transform="scale(0.015625)"/>
      <path d="M 3263 -1063 
L 3263 -1509 
L -63 -1509 
L -63 -1063 
L 3263 -1063 
z
" id="DejaVuSans-5f" transform="scale(0.015625)"/>
      <path d="M 2631 2963 
Q 2534 3019 2420 3045 
Q 2306 3072 2169 3072 
Q 1681 3072 1420 2755 
Q 1159 2438 1159 1844 
L 1159 0 
L 581 0 
L 581 3500 
L 1159 3500 
L 1159 2956 
Q 1341 3275 1631 3429 
Q 1922 3584 2338 3584 
Q 2397 3584 2469 3576 
Q 2541 3569 2628 3553 
L 2631 2963 
z
" id="DejaVuSans-72" transform="scale(0.015625)"/>
      <path d="M 1159 525 
L 1159 -1331 
L 581 -1331 
L 581 3500 
L 1159 3500 
L 1159 2969 
Q 1341 3281 1617 3432 
Q 1894 3584 2278 3584 
Q 2916 3584 3314 3078 
Q 3713 2572 3713 1747 
Q 3713 922 3314 415 
Q 2916 -91 2278 -91 
Q 1894 -91 1617 61 
Q 1341 213 1159 525 
z
M 3116 1747 
Q 3116 2381 2855 2742 
Q 2594 3103 2138 3103 
Q 1681 3103 1420 2742 
Q 1159 2381 1159 1747 
Q 1159 1113 1420 752 
Q 1681 391 2138 391 
Q 2594 391 2855 752 
Q 3116 1113 3116 1747 
z
" id="DejaVuSans-70" transform="scale(0.015625)"/>
      <path d="M 1959 3097 
Q 1497 3097 1228 2736 
Q 959 2375 959 1747 
Q 959 1119 1226 758 
Q 1494 397 1959 397 
Q 2419 397 2687 759 
Q 2956 1122 2956 1747 
Q 2956 2369 2687 2733 
Q 2419 3097 1959 3097 
z
M 1959 3584 
Q 2709 3584 3137 3096 
Q 3566 2609 3566 1747 
Q 3566 888 3137 398 
Q 2709 -91 1959 -91 
Q 1206 -91 779 398 
Q 353 888 353 1747 
Q 353 2609 779 3096 
Q 1206 3584 1959 3584 
z
" id="DejaVuSans-6f" transform="scale(0.015625)"/>
     </defs>
     <use xlink:href="#DejaVuSans-64"/>
     <use x="63.476562" xlink:href="#DejaVuSans-61"/>
     <use x="124.755859" xlink:href="#DejaVuSans-69"/>
     <use x="152.539062" xlink:href="#DejaVuSans-6c"/>
     <use x="180.322266" xlink:href="#DejaVuSans-79"/>
     <use x="239.501953" xlink:href="#DejaVuSans-5f"/>
     <use x="289.501953" xlink:href="#DejaVuSans-72"/>
     <use x="328.365234" xlink:href="#DejaVuSans-65"/>
     <use x="389.888672" xlink:href="#DejaVuSans-70"/>
     <use x="453.365234" xlink:href="#DejaVuSans-6f"/>
     <use x="514.546875" xlink:href="#DejaVuSans-72"/>
     <use x="555.660156" xlink:href="#DejaVuSans-74"/>
    </g>
   </g>
   <g id="legend_1">
    <g id="patch_7">
     <path d="M 64.6 122.862625 
L 155.792188 122.862625 
Q 157.792188 122.862625 157.792188 120.862625 
L 157.792188 48.472 
Q 157.792188 46.472 155.792188 46.472 
L 64.6 46.472 
Q 62.6 46.472 62.6 48.472 
L 62.6 120.862625 
Q 62.6 122.862625 64.6 122.862625 
z
" style="fill:#ffffff;opacity:0.8;stroke:#cccccc;stroke-linejoin:miter;"/>
    </g>
    <g id="line2d_20">
     <path d="M 66.6 54.570437 
L 86.6 54.570437 
" style="fill:none;stroke:#0000ff;stroke-linecap:square;stroke-opacity:0.9;stroke-width:2;"/>
    </g>
    <g id="line2d_21"/>
    <g id="text_17">
     <!-- alpaca -->
     <g transform="translate(94.6 58.070437)scale(0.1 -0.1)">
      <defs>
       <path d="M 3122 3366 
L 3122 2828 
Q 2878 2963 2633 3030 
Q 2388 3097 2138 3097 
Q 1578 3097 1268 2742 
Q 959 2388 959 1747 
Q 959 1106 1268 751 
Q 1578 397 2138 397 
Q 2388 397 2633 464 
Q 2878 531 3122 666 
L 3122 134 
Q 2881 22 2623 -34 
Q 2366 -91 2075 -91 
Q 1284 -91 818 406 
Q 353 903 353 1747 
Q 353 2603 823 3093 
Q 1294 3584 2113 3584 
Q 2378 3584 2631 3529 
Q 2884 3475 3122 3366 
z
" id="DejaVuSans-63" transform="scale(0.015625)"/>
      </defs>
      <use xlink:href="#DejaVuSans-61"/>
      <use x="61.279297" xlink:href="#DejaVuSans-6c"/>
      <use x="89.0625" xlink:href="#DejaVuSans-70"/>
      <use x="152.539062" xlink:href="#DejaVuSans-61"/>
      <use x="213.818359" xlink:href="#DejaVuSans-63"/>
      <use x="268.798828" xlink:href="#DejaVuSans-61"/>
     </g>
    </g>
    <g id="line2d_22">
     <path d="M 66.6 69.248562 
L 86.6 69.248562 
" style="fill:none;stroke:#ff0000;stroke-linecap:square;stroke-opacity:0.9;stroke-width:2;"/>
    </g>
    <g id="line2d_23"/>
    <g id="text_18">
     <!-- mattress -->
     <g transform="translate(94.6 72.748562)scale(0.1 -0.1)">
      <defs>
       <path d="M 3328 2828 
Q 3544 3216 3844 3400 
Q 4144 3584 4550 3584 
Q 5097 3584 5394 3201 
Q 5691 2819 5691 2113 
L 5691 0 
L 5113 0 
L 5113 2094 
Q 5113 2597 4934 2840 
Q 4756 3084 4391 3084 
Q 3944 3084 3684 2787 
Q 3425 2491 3425 1978 
L 3425 0 
L 2847 0 
L 2847 2094 
Q 2847 2600 2669 2842 
Q 2491 3084 2119 3084 
Q 1678 3084 1418 2786 
Q 1159 2488 1159 1978 
L 1159 0 
L 581 0 
L 581 3500 
L 1159 3500 
L 1159 2956 
Q 1356 3278 1631 3431 
Q 1906 3584 2284 3584 
Q 2666 3584 2933 3390 
Q 3200 3197 3328 2828 
z
" id="DejaVuSans-6d" transform="scale(0.015625)"/>
       <path d="M 2834 3397 
L 2834 2853 
Q 2591 2978 2328 3040 
Q 2066 3103 1784 3103 
Q 1356 3103 1142 2972 
Q 928 2841 928 2578 
Q 928 2378 1081 2264 
Q 1234 2150 1697 2047 
L 1894 2003 
Q 2506 1872 2764 1633 
Q 3022 1394 3022 966 
Q 3022 478 2636 193 
Q 2250 -91 1575 -91 
Q 1294 -91 989 -36 
Q 684 19 347 128 
L 347 722 
Q 666 556 975 473 
Q 1284 391 1588 391 
Q 1994 391 2212 530 
Q 2431 669 2431 922 
Q 2431 1156 2273 1281 
Q 2116 1406 1581 1522 
L 1381 1569 
Q 847 1681 609 1914 
Q 372 2147 372 2553 
Q 372 3047 722 3315 
Q 1072 3584 1716 3584 
Q 2034 3584 2315 3537 
Q 2597 3491 2834 3397 
z
" id="DejaVuSans-73" transform="scale(0.015625)"/>
      </defs>
      <use xlink:href="#DejaVuSans-6d"/>
      <use x="97.412109" xlink:href="#DejaVuSans-61"/>
      <use x="158.691406" xlink:href="#DejaVuSans-74"/>
      <use x="197.900391" xlink:href="#DejaVuSans-74"/>
      <use x="237.109375" xlink:href="#DejaVuSans-72"/>
      <use x="275.972656" xlink:href="#DejaVuSans-65"/>
      <use x="337.496094" xlink:href="#DejaVuSans-73"/>
      <use x="389.595703" xlink:href="#DejaVuSans-73"/>
     </g>
    </g>
    <g id="line2d_24">
     <path d="M 66.6 83.926687 
L 86.6 83.926687 
" style="fill:none;stroke:#ff8040;stroke-linecap:square;stroke-opacity:0.9;stroke-width:2;"/>
    </g>
    <g id="line2d_25"/>
    <g id="text_19">
     <!-- trader-0850 -->
     <g transform="translate(94.6 87.426687)scale(0.1 -0.1)">
      <use xlink:href="#DejaVuSans-74"/>
      <use x="39.208984" xlink:href="#DejaVuSans-72"/>
      <use x="80.322266" xlink:href="#DejaVuSans-61"/>
      <use x="141.601562" xlink:href="#DejaVuSans-64"/>
      <use x="205.078125" xlink:href="#DejaVuSans-65"/>
      <use x="266.601562" xlink:href="#DejaVuSans-72"/>
      <use x="301.339844" xlink:href="#DejaVuSans-2d"/>
      <use x="337.423828" xlink:href="#DejaVuSans-30"/>
      <use x="401.046875" xlink:href="#DejaVuSans-38"/>
      <use x="464.669922" xlink:href="#DejaVuSans-35"/>
      <use x="528.292969" xlink:href="#DejaVuSans-30"/>
     </g>
    </g>
    <g id="line2d_26">
     <path d="M 66.6 98.604812 
L 86.6 98.604812 
" style="fill:none;stroke:#0d0d0d;stroke-linecap:square;stroke-opacity:0.25;stroke-width:2;"/>
    </g>
    <g id="line2d_27"/>
    <g id="text_20">
     <!-- rando-min -->
     <g transform="translate(94.6 102.104812)scale(0.1 -0.1)">
      <defs>
       <path d="M 3513 2113 
L 3513 0 
L 2938 0 
L 2938 2094 
Q 2938 2591 2744 2837 
Q 2550 3084 2163 3084 
Q 1697 3084 1428 2787 
Q 1159 2491 1159 1978 
L 1159 0 
L 581 0 
L 581 3500 
L 1159 3500 
L 1159 2956 
Q 1366 3272 1645 3428 
Q 1925 3584 2291 3584 
Q 2894 3584 3203 3211 
Q 3513 2838 3513 2113 
z
" id="DejaVuSans-6e" transform="scale(0.015625)"/>
      </defs>
      <use xlink:href="#DejaVuSans-72"/>
      <use x="41.113281" xlink:href="#DejaVuSans-61"/>
      <use x="102.392578" xlink:href="#DejaVuSans-6e"/>
      <use x="165.771484" xlink:href="#DejaVuSans-64"/>
      <use x="229.248047" xlink:href="#DejaVuSans-6f"/>
      <use x="292.304688" xlink:href="#DejaVuSans-2d"/>
      <use x="328.388672" xlink:href="#DejaVuSans-6d"/>
      <use x="425.800781" xlink:href="#DejaVuSans-69"/>
      <use x="453.583984" xlink:href="#DejaVuSans-6e"/>
     </g>
    </g>
    <g id="line2d_28">
     <path d="M 66.6 113.282937 
L 86.6 113.282937 
" style="fill:none;stroke:#0d0d0d;stroke-linecap:square;stroke-opacity:0.25;stroke-width:2;"/>
    </g>
    <g id="line2d_29"/>
    <g id="text_21">
     <!-- rando-max -->
     <g transform="translate(94.6 116.782937)scale(0.1 -0.1)">
      <defs>
       <path d="M 3513 3500 
L 2247 1797 
L 3578 0 
L 2900 0 
L 1881 1375 
L 863 0 
L 184 0 
L 1544 1831 
L 300 3500 
L 978 3500 
L 1906 2253 
L 2834 3500 
L 3513 3500 
z
" id="DejaVuSans-78" transform="scale(0.015625)"/>
      </defs>
      <use xlink:href="#DejaVuSans-72"/>
      <use x="41.113281" xlink:href="#DejaVuSans-61"/>
      <use x="102.392578" xlink:href="#DejaVuSans-6e"/>
      <use x="165.771484" xlink:href="#DejaVuSans-64"/>
      <use x="229.248047" xlink:href="#DejaVuSans-6f"/>
      <use x="292.304688" xlink:href="#DejaVuSans-2d"/>
      <use x="328.388672" xlink:href="#DejaVuSans-6d"/>
      <use x="425.800781" xlink:href="#DejaVuSans-61"/>
      <use x="487.080078" xlink:href="#DejaVuSans-78"/>
     </g>
    </g>
   </g>
  </g>
 </g>
 <defs>
  <clipPath id="p51b78e6c20">
   <rect height="235.008" width="357.12" x="57.6" y="41.472"/>
  </clipPath>
 </defs>
</svg>
