<?xml version="1.0" encoding="utf-8" standalone="no"?>
<!DOCTYPE svg PUBLIC "-//W3C//DTD SVG 1.1//EN"
  "http://www.w3.org/Graphics/SVG/1.1/DTD/svg11.dtd">
<svg height="345.6pt" version="1.1" viewBox="0 0 460.8 345.6" width="460.8pt" xmlns="http://www.w3.org/2000/svg" xmlns:xlink="http://www.w3.org/1999/xlink">
 <metadata>
  <rdf:RDF xmlns:cc="http://creativecommons.org/ns#" xmlns:dc="http://purl.org/dc/elements/1.1/" xmlns:rdf="http://www.w3.org/1999/02/22-rdf-syntax-ns#">
   <cc:Work>
    <dc:type rdf:resource="http://purl.org/dc/dcmitype/StillImage"/>
    <dc:date>2022-06-09T01:01:37.002085</dc:date>
    <dc:format>image/svg+xml</dc:format>
    <dc:creator>
     <cc:Agent>
      <dc:title>Matplotlib v3.4.3, https://matplotlib.org/</dc:title>
     </cc:Agent>
    </dc:creator>
   </cc:Work>
  </rdf:RDF>
 </metadata>
 <defs>
  <style type="text/css">*{stroke-linecap:butt;stroke-linejoin:round;}</style>
 </defs>
 <g id="figure_1">
  <g id="patch_1">
   <path d="M 0 345.6 
L 460.8 345.6 
L 460.8 0 
L 0 0 
z
" style="fill:#ffffff;"/>
  </g>
  <g id="axes_1">
   <g id="patch_2">
    <path d="M 57.6 276.48 
L 414.72 276.48 
L 414.72 41.472 
L 57.6 41.472 
z
" style="fill:#ffffff;"/>
   </g>
   <g id="matplotlib.axis_1">
    <g id="xtick_1">
     <g id="line2d_1">
      <defs>
       <path d="M 0 0 
L 0 3.5 
" id="m3f2d8f5ec3" style="stroke:#000000;stroke-width:0.8;"/>
      </defs>
      <g>
       <use style="stroke:#000000;stroke-width:0.8;" x="83.943076" xlink:href="#m3f2d8f5ec3" y="276.48"/>
      </g>
     </g>
     <g id="text_1">
      <!-- 2021-09 -->
      <g transform="translate(46.718256 310.951846)rotate(-30)scale(0.1 -0.1)">
       <defs>
        <path d="M 1228 531 
L 3431 531 
L 3431 0 
L 469 0 
L 469 531 
Q 828 903 1448 1529 
Q 2069 2156 2228 2338 
Q 2531 2678 2651 2914 
Q 2772 3150 2772 3378 
Q 2772 3750 2511 3984 
Q 2250 4219 1831 4219 
Q 1534 4219 1204 4116 
Q 875 4013 500 3803 
L 500 4441 
Q 881 4594 1212 4672 
Q 1544 4750 1819 4750 
Q 2544 4750 2975 4387 
Q 3406 4025 3406 3419 
Q 3406 3131 3298 2873 
Q 3191 2616 2906 2266 
Q 2828 2175 2409 1742 
Q 1991 1309 1228 531 
z
" id="DejaVuSans-32" transform="scale(0.015625)"/>
        <path d="M 2034 4250 
Q 1547 4250 1301 3770 
Q 1056 3291 1056 2328 
Q 1056 1369 1301 889 
Q 1547 409 2034 409 
Q 2525 409 2770 889 
Q 3016 1369 3016 2328 
Q 3016 3291 2770 3770 
Q 2525 4250 2034 4250 
z
M 2034 4750 
Q 2819 4750 3233 4129 
Q 3647 3509 3647 2328 
Q 3647 1150 3233 529 
Q 2819 -91 2034 -91 
Q 1250 -91 836 529 
Q 422 1150 422 2328 
Q 422 3509 836 4129 
Q 1250 4750 2034 4750 
z
" id="DejaVuSans-30" transform="scale(0.015625)"/>
        <path d="M 794 531 
L 1825 531 
L 1825 4091 
L 703 3866 
L 703 4441 
L 1819 4666 
L 2450 4666 
L 2450 531 
L 3481 531 
L 3481 0 
L 794 0 
L 794 531 
z
" id="DejaVuSans-31" transform="scale(0.015625)"/>
        <path d="M 313 2009 
L 1997 2009 
L 1997 1497 
L 313 1497 
L 313 2009 
z
" id="DejaVuSans-2d" transform="scale(0.015625)"/>
        <path d="M 703 97 
L 703 672 
Q 941 559 1184 500 
Q 1428 441 1663 441 
Q 2288 441 2617 861 
Q 2947 1281 2994 2138 
Q 2813 1869 2534 1725 
Q 2256 1581 1919 1581 
Q 1219 1581 811 2004 
Q 403 2428 403 3163 
Q 403 3881 828 4315 
Q 1253 4750 1959 4750 
Q 2769 4750 3195 4129 
Q 3622 3509 3622 2328 
Q 3622 1225 3098 567 
Q 2575 -91 1691 -91 
Q 1453 -91 1209 -44 
Q 966 3 703 97 
z
M 1959 2075 
Q 2384 2075 2632 2365 
Q 2881 2656 2881 3163 
Q 2881 3666 2632 3958 
Q 2384 4250 1959 4250 
Q 1534 4250 1286 3958 
Q 1038 3666 1038 3163 
Q 1038 2656 1286 2365 
Q 1534 2075 1959 2075 
z
" id="DejaVuSans-39" transform="scale(0.015625)"/>
       </defs>
       <use xlink:href="#DejaVuSans-32"/>
       <use x="63.623047" xlink:href="#DejaVuSans-30"/>
       <use x="127.246094" xlink:href="#DejaVuSans-32"/>
       <use x="190.869141" xlink:href="#DejaVuSans-31"/>
       <use x="254.492188" xlink:href="#DejaVuSans-2d"/>
       <use x="290.576172" xlink:href="#DejaVuSans-30"/>
       <use x="354.199219" xlink:href="#DejaVuSans-39"/>
      </g>
     </g>
    </g>
    <g id="xtick_2">
     <g id="line2d_2">
      <g>
       <use style="stroke:#000000;stroke-width:0.8;" x="117.64424" xlink:href="#m3f2d8f5ec3" y="276.48"/>
      </g>
     </g>
     <g id="text_2">
      <!-- 2021-10 -->
      <g transform="translate(80.41942 310.951846)rotate(-30)scale(0.1 -0.1)">
       <use xlink:href="#DejaVuSans-32"/>
       <use x="63.623047" xlink:href="#DejaVuSans-30"/>
       <use x="127.246094" xlink:href="#DejaVuSans-32"/>
       <use x="190.869141" xlink:href="#DejaVuSans-31"/>
       <use x="254.492188" xlink:href="#DejaVuSans-2d"/>
       <use x="290.576172" xlink:href="#DejaVuSans-31"/>
       <use x="354.199219" xlink:href="#DejaVuSans-30"/>
      </g>
     </g>
    </g>
    <g id="xtick_3">
     <g id="line2d_3">
      <g>
       <use style="stroke:#000000;stroke-width:0.8;" x="152.468776" xlink:href="#m3f2d8f5ec3" y="276.48"/>
      </g>
     </g>
     <g id="text_3">
      <!-- 2021-11 -->
      <g transform="translate(115.243956 310.951846)rotate(-30)scale(0.1 -0.1)">
       <use xlink:href="#DejaVuSans-32"/>
       <use x="63.623047" xlink:href="#DejaVuSans-30"/>
       <use x="127.246094" xlink:href="#DejaVuSans-32"/>
       <use x="190.869141" xlink:href="#DejaVuSans-31"/>
       <use x="254.492188" xlink:href="#DejaVuSans-2d"/>
       <use x="290.576172" xlink:href="#DejaVuSans-31"/>
       <use x="354.199219" xlink:href="#DejaVuSans-31"/>
      </g>
     </g>
    </g>
    <g id="xtick_4">
     <g id="line2d_4">
      <g>
       <use style="stroke:#000000;stroke-width:0.8;" x="186.16994" xlink:href="#m3f2d8f5ec3" y="276.48"/>
      </g>
     </g>
     <g id="text_4">
      <!-- 2021-12 -->
      <g transform="translate(148.945119 310.951846)rotate(-30)scale(0.1 -0.1)">
       <use xlink:href="#DejaVuSans-32"/>
       <use x="63.623047" xlink:href="#DejaVuSans-30"/>
       <use x="127.246094" xlink:href="#DejaVuSans-32"/>
       <use x="190.869141" xlink:href="#DejaVuSans-31"/>
       <use x="254.492188" xlink:href="#DejaVuSans-2d"/>
       <use x="290.576172" xlink:href="#DejaVuSans-31"/>
       <use x="354.199219" xlink:href="#DejaVuSans-32"/>
      </g>
     </g>
    </g>
    <g id="xtick_5">
     <g id="line2d_5">
      <g>
       <use style="stroke:#000000;stroke-width:0.8;" x="220.994476" xlink:href="#m3f2d8f5ec3" y="276.48"/>
      </g>
     </g>
     <g id="text_5">
      <!-- 2022-01 -->
      <g transform="translate(183.769655 310.951846)rotate(-30)scale(0.1 -0.1)">
       <use xlink:href="#DejaVuSans-32"/>
       <use x="63.623047" xlink:href="#DejaVuSans-30"/>
       <use x="127.246094" xlink:href="#DejaVuSans-32"/>
       <use x="190.869141" xlink:href="#DejaVuSans-32"/>
       <use x="254.492188" xlink:href="#DejaVuSans-2d"/>
       <use x="290.576172" xlink:href="#DejaVuSans-30"/>
       <use x="354.199219" xlink:href="#DejaVuSans-31"/>
      </g>
     </g>
    </g>
    <g id="xtick_6">
     <g id="line2d_6">
      <g>
       <use style="stroke:#000000;stroke-width:0.8;" x="255.819012" xlink:href="#m3f2d8f5ec3" y="276.48"/>
      </g>
     </g>
     <g id="text_6">
      <!-- 2022-02 -->
      <g transform="translate(218.594191 310.951846)rotate(-30)scale(0.1 -0.1)">
       <use xlink:href="#DejaVuSans-32"/>
       <use x="63.623047" xlink:href="#DejaVuSans-30"/>
       <use x="127.246094" xlink:href="#DejaVuSans-32"/>
       <use x="190.869141" xlink:href="#DejaVuSans-32"/>
       <use x="254.492188" xlink:href="#DejaVuSans-2d"/>
       <use x="290.576172" xlink:href="#DejaVuSans-30"/>
       <use x="354.199219" xlink:href="#DejaVuSans-32"/>
      </g>
     </g>
    </g>
    <g id="xtick_7">
     <g id="line2d_7">
      <g>
       <use style="stroke:#000000;stroke-width:0.8;" x="287.273432" xlink:href="#m3f2d8f5ec3" y="276.48"/>
      </g>
     </g>
     <g id="text_7">
      <!-- 2022-03 -->
      <g transform="translate(250.048611 310.951846)rotate(-30)scale(0.1 -0.1)">
       <defs>
        <path d="M 2597 2516 
Q 3050 2419 3304 2112 
Q 3559 1806 3559 1356 
Q 3559 666 3084 287 
Q 2609 -91 1734 -91 
Q 1441 -91 1130 -33 
Q 819 25 488 141 
L 488 750 
Q 750 597 1062 519 
Q 1375 441 1716 441 
Q 2309 441 2620 675 
Q 2931 909 2931 1356 
Q 2931 1769 2642 2001 
Q 2353 2234 1838 2234 
L 1294 2234 
L 1294 2753 
L 1863 2753 
Q 2328 2753 2575 2939 
Q 2822 3125 2822 3475 
Q 2822 3834 2567 4026 
Q 2313 4219 1838 4219 
Q 1578 4219 1281 4162 
Q 984 4106 628 3988 
L 628 4550 
Q 988 4650 1302 4700 
Q 1616 4750 1894 4750 
Q 2613 4750 3031 4423 
Q 3450 4097 3450 3541 
Q 3450 3153 3228 2886 
Q 3006 2619 2597 2516 
z
" id="DejaVuSans-33" transform="scale(0.015625)"/>
       </defs>
       <use xlink:href="#DejaVuSans-32"/>
       <use x="63.623047" xlink:href="#DejaVuSans-30"/>
       <use x="127.246094" xlink:href="#DejaVuSans-32"/>
       <use x="190.869141" xlink:href="#DejaVuSans-32"/>
       <use x="254.492188" xlink:href="#DejaVuSans-2d"/>
       <use x="290.576172" xlink:href="#DejaVuSans-30"/>
       <use x="354.199219" xlink:href="#DejaVuSans-33"/>
      </g>
     </g>
    </g>
    <g id="xtick_8">
     <g id="line2d_8">
      <g>
       <use style="stroke:#000000;stroke-width:0.8;" x="322.097968" xlink:href="#m3f2d8f5ec3" y="276.48"/>
      </g>
     </g>
     <g id="text_8">
      <!-- 2022-04 -->
      <g transform="translate(284.873147 310.951846)rotate(-30)scale(0.1 -0.1)">
       <defs>
        <path d="M 2419 4116 
L 825 1625 
L 2419 1625 
L 2419 4116 
z
M 2253 4666 
L 3047 4666 
L 3047 1625 
L 3713 1625 
L 3713 1100 
L 3047 1100 
L 3047 0 
L 2419 0 
L 2419 1100 
L 313 1100 
L 313 1709 
L 2253 4666 
z
" id="DejaVuSans-34" transform="scale(0.015625)"/>
       </defs>
       <use xlink:href="#DejaVuSans-32"/>
       <use x="63.623047" xlink:href="#DejaVuSans-30"/>
       <use x="127.246094" xlink:href="#DejaVuSans-32"/>
       <use x="190.869141" xlink:href="#DejaVuSans-32"/>
       <use x="254.492188" xlink:href="#DejaVuSans-2d"/>
       <use x="290.576172" xlink:href="#DejaVuSans-30"/>
       <use x="354.199219" xlink:href="#DejaVuSans-34"/>
      </g>
     </g>
    </g>
    <g id="xtick_9">
     <g id="line2d_9">
      <g>
       <use style="stroke:#000000;stroke-width:0.8;" x="355.799132" xlink:href="#m3f2d8f5ec3" y="276.48"/>
      </g>
     </g>
     <g id="text_9">
      <!-- 2022-05 -->
      <g transform="translate(318.574311 310.951846)rotate(-30)scale(0.1 -0.1)">
       <defs>
        <path d="M 691 4666 
L 3169 4666 
L 3169 4134 
L 1269 4134 
L 1269 2991 
Q 1406 3038 1543 3061 
Q 1681 3084 1819 3084 
Q 2600 3084 3056 2656 
Q 3513 2228 3513 1497 
Q 3513 744 3044 326 
Q 2575 -91 1722 -91 
Q 1428 -91 1123 -41 
Q 819 9 494 109 
L 494 744 
Q 775 591 1075 516 
Q 1375 441 1709 441 
Q 2250 441 2565 725 
Q 2881 1009 2881 1497 
Q 2881 1984 2565 2268 
Q 2250 2553 1709 2553 
Q 1456 2553 1204 2497 
Q 953 2441 691 2322 
L 691 4666 
z
" id="DejaVuSans-35" transform="scale(0.015625)"/>
       </defs>
       <use xlink:href="#DejaVuSans-32"/>
       <use x="63.623047" xlink:href="#DejaVuSans-30"/>
       <use x="127.246094" xlink:href="#DejaVuSans-32"/>
       <use x="190.869141" xlink:href="#DejaVuSans-32"/>
       <use x="254.492188" xlink:href="#DejaVuSans-2d"/>
       <use x="290.576172" xlink:href="#DejaVuSans-30"/>
       <use x="354.199219" xlink:href="#DejaVuSans-35"/>
      </g>
     </g>
    </g>
    <g id="xtick_10">
     <g id="line2d_10">
      <g>
       <use style="stroke:#000000;stroke-width:0.8;" x="390.623668" xlink:href="#m3f2d8f5ec3" y="276.48"/>
      </g>
     </g>
     <g id="text_10">
      <!-- 2022-06 -->
      <g transform="translate(353.398847 310.951846)rotate(-30)scale(0.1 -0.1)">
       <defs>
        <path d="M 2113 2584 
Q 1688 2584 1439 2293 
Q 1191 2003 1191 1497 
Q 1191 994 1439 701 
Q 1688 409 2113 409 
Q 2538 409 2786 701 
Q 3034 994 3034 1497 
Q 3034 2003 2786 2293 
Q 2538 2584 2113 2584 
z
M 3366 4563 
L 3366 3988 
Q 3128 4100 2886 4159 
Q 2644 4219 2406 4219 
Q 1781 4219 1451 3797 
Q 1122 3375 1075 2522 
Q 1259 2794 1537 2939 
Q 1816 3084 2150 3084 
Q 2853 3084 3261 2657 
Q 3669 2231 3669 1497 
Q 3669 778 3244 343 
Q 2819 -91 2113 -91 
Q 1303 -91 875 529 
Q 447 1150 447 2328 
Q 447 3434 972 4092 
Q 1497 4750 2381 4750 
Q 2619 4750 2861 4703 
Q 3103 4656 3366 4563 
z
" id="DejaVuSans-36" transform="scale(0.015625)"/>
       </defs>
       <use xlink:href="#DejaVuSans-32"/>
       <use x="63.623047" xlink:href="#DejaVuSans-30"/>
       <use x="127.246094" xlink:href="#DejaVuSans-32"/>
       <use x="190.869141" xlink:href="#DejaVuSans-32"/>
       <use x="254.492188" xlink:href="#DejaVuSans-2d"/>
       <use x="290.576172" xlink:href="#DejaVuSans-30"/>
       <use x="354.199219" xlink:href="#DejaVuSans-36"/>
      </g>
     </g>
    </g>
    <g id="text_11">
     <!-- date -->
     <g transform="translate(224.885 324.351346)scale(0.1 -0.1)">
      <defs>
       <path d="M 2906 2969 
L 2906 4863 
L 3481 4863 
L 3481 0 
L 2906 0 
L 2906 525 
Q 2725 213 2448 61 
Q 2172 -91 1784 -91 
Q 1150 -91 751 415 
Q 353 922 353 1747 
Q 353 2572 751 3078 
Q 1150 3584 1784 3584 
Q 2172 3584 2448 3432 
Q 2725 3281 2906 2969 
z
M 947 1747 
Q 947 1113 1208 752 
Q 1469 391 1925 391 
Q 2381 391 2643 752 
Q 2906 1113 2906 1747 
Q 2906 2381 2643 2742 
Q 2381 3103 1925 3103 
Q 1469 3103 1208 2742 
Q 947 2381 947 1747 
z
" id="DejaVuSans-64" transform="scale(0.015625)"/>
       <path d="M 2194 1759 
Q 1497 1759 1228 1600 
Q 959 1441 959 1056 
Q 959 750 1161 570 
Q 1363 391 1709 391 
Q 2188 391 2477 730 
Q 2766 1069 2766 1631 
L 2766 1759 
L 2194 1759 
z
M 3341 1997 
L 3341 0 
L 2766 0 
L 2766 531 
Q 2569 213 2275 61 
Q 1981 -91 1556 -91 
Q 1019 -91 701 211 
Q 384 513 384 1019 
Q 384 1609 779 1909 
Q 1175 2209 1959 2209 
L 2766 2209 
L 2766 2266 
Q 2766 2663 2505 2880 
Q 2244 3097 1772 3097 
Q 1472 3097 1187 3025 
Q 903 2953 641 2809 
L 641 3341 
Q 956 3463 1253 3523 
Q 1550 3584 1831 3584 
Q 2591 3584 2966 3190 
Q 3341 2797 3341 1997 
z
" id="DejaVuSans-61" transform="scale(0.015625)"/>
       <path d="M 1172 4494 
L 1172 3500 
L 2356 3500 
L 2356 3053 
L 1172 3053 
L 1172 1153 
Q 1172 725 1289 603 
Q 1406 481 1766 481 
L 2356 481 
L 2356 0 
L 1766 0 
Q 1100 0 847 248 
Q 594 497 594 1153 
L 594 3053 
L 172 3053 
L 172 3500 
L 594 3500 
L 594 4494 
L 1172 4494 
z
" id="DejaVuSans-74" transform="scale(0.015625)"/>
       <path d="M 3597 1894 
L 3597 1613 
L 953 1613 
Q 991 1019 1311 708 
Q 1631 397 2203 397 
Q 2534 397 2845 478 
Q 3156 559 3463 722 
L 3463 178 
Q 3153 47 2828 -22 
Q 2503 -91 2169 -91 
Q 1331 -91 842 396 
Q 353 884 353 1716 
Q 353 2575 817 3079 
Q 1281 3584 2069 3584 
Q 2775 3584 3186 3129 
Q 3597 2675 3597 1894 
z
M 3022 2063 
Q 3016 2534 2758 2815 
Q 2500 3097 2075 3097 
Q 1594 3097 1305 2825 
Q 1016 2553 972 2059 
L 3022 2063 
z
" id="DejaVuSans-65" transform="scale(0.015625)"/>
      </defs>
      <use xlink:href="#DejaVuSans-64"/>
      <use x="63.476562" xlink:href="#DejaVuSans-61"/>
      <use x="124.755859" xlink:href="#DejaVuSans-74"/>
      <use x="163.964844" xlink:href="#DejaVuSans-65"/>
     </g>
    </g>
   </g>
   <g id="matplotlib.axis_2">
    <g id="ytick_1">
     <g id="line2d_11">
      <defs>
       <path d="M 0 0 
L -3.5 0 
" id="m54c3643b09" style="stroke:#000000;stroke-width:0.8;"/>
      </defs>
      <g>
       <use style="stroke:#000000;stroke-width:0.8;" x="57.6" xlink:href="#m54c3643b09" y="237.789224"/>
      </g>
     </g>
     <g id="text_12">
      <!-- 80000 -->
      <g transform="translate(18.7875 241.588442)scale(0.1 -0.1)">
       <defs>
        <path d="M 2034 2216 
Q 1584 2216 1326 1975 
Q 1069 1734 1069 1313 
Q 1069 891 1326 650 
Q 1584 409 2034 409 
Q 2484 409 2743 651 
Q 3003 894 3003 1313 
Q 3003 1734 2745 1975 
Q 2488 2216 2034 2216 
z
M 1403 2484 
Q 997 2584 770 2862 
Q 544 3141 544 3541 
Q 544 4100 942 4425 
Q 1341 4750 2034 4750 
Q 2731 4750 3128 4425 
Q 3525 4100 3525 3541 
Q 3525 3141 3298 2862 
Q 3072 2584 2669 2484 
Q 3125 2378 3379 2068 
Q 3634 1759 3634 1313 
Q 3634 634 3220 271 
Q 2806 -91 2034 -91 
Q 1263 -91 848 271 
Q 434 634 434 1313 
Q 434 1759 690 2068 
Q 947 2378 1403 2484 
z
M 1172 3481 
Q 1172 3119 1398 2916 
Q 1625 2713 2034 2713 
Q 2441 2713 2670 2916 
Q 2900 3119 2900 3481 
Q 2900 3844 2670 4047 
Q 2441 4250 2034 4250 
Q 1625 4250 1398 4047 
Q 1172 3844 1172 3481 
z
" id="DejaVuSans-38" transform="scale(0.015625)"/>
       </defs>
       <use xlink:href="#DejaVuSans-38"/>
       <use x="63.623047" xlink:href="#DejaVuSans-30"/>
       <use x="127.246094" xlink:href="#DejaVuSans-30"/>
       <use x="190.869141" xlink:href="#DejaVuSans-30"/>
       <use x="254.492188" xlink:href="#DejaVuSans-30"/>
      </g>
     </g>
    </g>
    <g id="ytick_2">
     <g id="line2d_12">
      <g>
       <use style="stroke:#000000;stroke-width:0.8;" x="57.6" xlink:href="#m54c3643b09" y="185.590041"/>
      </g>
     </g>
     <g id="text_13">
      <!-- 90000 -->
      <g transform="translate(18.7875 189.38926)scale(0.1 -0.1)">
       <use xlink:href="#DejaVuSans-39"/>
       <use x="63.623047" xlink:href="#DejaVuSans-30"/>
       <use x="127.246094" xlink:href="#DejaVuSans-30"/>
       <use x="190.869141" xlink:href="#DejaVuSans-30"/>
       <use x="254.492188" xlink:href="#DejaVuSans-30"/>
      </g>
     </g>
    </g>
    <g id="ytick_3">
     <g id="line2d_13">
      <g>
       <use style="stroke:#000000;stroke-width:0.8;" x="57.6" xlink:href="#m54c3643b09" y="133.390858"/>
      </g>
     </g>
     <g id="text_14">
      <!-- 100000 -->
      <g transform="translate(12.425 137.190077)scale(0.1 -0.1)">
       <use xlink:href="#DejaVuSans-31"/>
       <use x="63.623047" xlink:href="#DejaVuSans-30"/>
       <use x="127.246094" xlink:href="#DejaVuSans-30"/>
       <use x="190.869141" xlink:href="#DejaVuSans-30"/>
       <use x="254.492188" xlink:href="#DejaVuSans-30"/>
       <use x="318.115234" xlink:href="#DejaVuSans-30"/>
      </g>
     </g>
    </g>
    <g id="ytick_4">
     <g id="line2d_14">
      <g>
       <use style="stroke:#000000;stroke-width:0.8;" x="57.6" xlink:href="#m54c3643b09" y="81.191675"/>
      </g>
     </g>
     <g id="text_15">
      <!-- 110000 -->
      <g transform="translate(12.425 84.990894)scale(0.1 -0.1)">
       <use xlink:href="#DejaVuSans-31"/>
       <use x="63.623047" xlink:href="#DejaVuSans-31"/>
       <use x="127.246094" xlink:href="#DejaVuSans-30"/>
       <use x="190.869141" xlink:href="#DejaVuSans-30"/>
       <use x="254.492188" xlink:href="#DejaVuSans-30"/>
       <use x="318.115234" xlink:href="#DejaVuSans-30"/>
      </g>
     </g>
    </g>
   </g>
   <g id="line2d_15">
    <path clip-path="url(#p07e6ce2f84)" d="M 73.832727 133.390858 
L 74.956099 131.895177 
L 76.079472 129.649536 
L 77.202844 132.591835 
L 78.326216 127.721366 
L 81.696332 124.415008 
L 82.819704 123.519555 
L 83.943076 125.069884 
L 85.066449 124.276276 
L 86.189821 124.640418 
L 90.683309 124.444146 
L 91.806681 125.604723 
L 92.930053 127.411368 
L 94.053426 132.350701 
L 97.423542 128.196763 
L 98.546914 135.121839 
L 99.670286 131.904176 
L 100.793658 132.838377 
L 101.917031 137.9767 
L 105.287147 146.576297 
L 106.410519 147.569932 
L 107.533891 143.848662 
L 108.657263 135.972641 
L 109.780635 131.590257 
L 113.150752 127.992367 
L 114.274124 139.337468 
L 115.397496 137.813554 
L 116.520868 142.284696 
L 117.64424 134.389255 
L 121.014357 143.960369 
L 122.137729 136.156222 
L 123.261101 134.352613 
L 125.507845 133.820041 
L 128.877962 133.045697 
L 130.001334 132.389222 
L 131.124706 138.993907 
L 132.248078 129.020934 
L 133.37145 128.304108 
L 136.741567 124.228379 
L 137.864939 118.755682 
L 138.988311 116.729648 
L 140.111683 126.190021 
L 141.235055 133.593098 
L 144.605171 132.893368 
L 145.728544 136.885176 
L 146.851916 138.75896 
L 147.975288 132.360924 
L 149.09866 138.742479 
L 152.468776 128.436905 
L 153.592148 128.28352 
L 154.715521 123.051145 
L 155.838893 129.349942 
L 156.962265 125.686172 
L 160.332381 125.149241 
L 161.455753 131.653185 
L 162.579126 131.369658 
L 163.702498 135.941729 
L 164.82587 131.717279 
L 169.319358 130.00728 
L 170.44273 133.212121 
L 171.566103 134.238377 
L 172.689475 134.654675 
L 176.059591 131.352414 
L 177.182963 127.657308 
L 178.306335 127.880924 
L 180.55308 127.718087 
L 183.923196 132.723312 
L 185.046568 142.544729 
L 186.16994 150.266234 
L 187.293312 143.495344 
L 188.416684 147.056177 
L 191.786801 137.788115 
L 192.910173 128.457125 
L 194.033545 124.716993 
L 195.156917 124.152454 
L 196.280289 122.571321 
L 199.650406 127.422881 
L 200.773778 125.11255 
L 203.020522 119.620279 
L 204.143894 125.252225 
L 207.514011 132.639557 
L 208.637383 119.979131 
L 209.760755 117.792708 
L 210.884127 113.175594 
L 215.377616 106.381777 
L 216.500988 106.421741 
L 217.62436 106.8429 
L 218.747732 107.735518 
L 219.871104 110.292301 
L 223.241221 101.924846 
L 224.364593 95.28144 
L 225.487965 109.778581 
L 226.611337 104.924717 
L 227.734709 103.884816 
L 231.104825 103.53558 
L 232.228198 98.94181 
L 233.35157 97.950231 
L 234.474942 104.197038 
L 235.598314 102.884689 
L 240.091802 114.480283 
L 241.215175 118.398615 
L 242.338547 124.174644 
L 243.461919 136.750832 
L 246.832035 135.635406 
L 247.955407 142.204806 
L 249.078779 141.752277 
L 250.202152 145.334756 
L 251.325524 132.037171 
L 254.69564 120.829113 
L 255.819012 116.221491 
L 256.942384 106.72141 
L 258.065757 141.280257 
L 259.189129 140.511607 
L 262.559245 149.152751 
L 263.682617 150.088016 
L 264.805989 139.071836 
L 265.929361 148.510001 
L 267.052734 159.950332 
L 270.42285 163.560107 
L 271.546222 157.119461 
L 272.669594 159.766216 
L 273.792966 169.040143 
L 274.916338 172.16946 
L 279.409827 177.533273 
L 280.533199 184.629347 
L 281.656571 173.178771 
L 282.779943 164.059723 
L 286.15006 166.39631 
L 287.273432 174.997233 
L 288.396804 164.474511 
L 289.520176 167.293691 
L 290.643548 173.251173 
L 294.013665 193.224164 
L 295.137037 193.20682 
L 296.260409 173.070469 
L 297.383781 179.591267 
L 298.507153 187.473357 
L 301.87727 188.695803 
L 303.000642 179.141949 
L 304.124014 164.269579 
L 305.247386 158.926629 
L 306.370758 150.645262 
L 309.740874 152.567503 
L 310.864247 142.829552 
L 311.987619 148.805303 
L 313.110991 140.576446 
L 314.234363 135.376026 
L 317.604479 133.913843 
L 318.727852 129.635906 
L 319.851224 132.040076 
L 320.974596 143.957893 
L 325.468084 136.77147 
L 326.591456 142.512631 
L 327.714829 149.833859 
L 328.838201 151.071625 
L 329.961573 151.764665 
L 333.331689 160.214327 
L 334.455061 163.786454 
L 335.578433 161.805275 
L 336.701806 170.750952 
L 341.195294 166.952684 
L 342.318666 157.659776 
L 343.442038 162.53303 
L 344.565411 176.428698 
L 345.688783 191.992683 
L 349.058899 188.527479 
L 350.182271 197.014758 
L 351.305643 202.147952 
L 352.429015 173.626518 
L 353.552388 188.945281 
L 356.922504 182.242246 
L 358.045876 177.207681 
L 359.169248 156.794918 
L 360.29262 178.093193 
L 361.415992 180.456209 
L 364.786109 193.797802 
L 365.909481 192.680815 
L 367.032853 201.242529 
L 368.156225 204.313866 
L 369.279597 194.111662 
L 372.649714 197.334881 
L 373.773086 188.666519 
L 374.896458 206.711817 
L 376.01983 211.631654 
L 377.143202 214.447909 
L 380.513319 202.124966 
L 381.636691 215.252614 
L 382.760063 214.671591 
L 383.883435 203.040603 
L 385.006807 190.196598 
L 389.500296 190.872308 
L 390.623668 194.79925 
L 391.74704 183.367803 
L 392.870412 195.491531 
L 396.240528 189.792559 
L 397.363901 186.145897 
L 398.487273 193.817497 
L 398.487273 193.817497 
" style="fill:none;stroke:#0000ff;stroke-linecap:square;stroke-opacity:0.9;stroke-width:2;"/>
   </g>
   <g id="line2d_16">
    <path clip-path="url(#p07e6ce2f84)" d="M 73.832727 133.390858 
L 76.079472 128.014095 
L 77.202844 131.218959 
L 78.326216 124.912384 
L 82.819704 122.570714 
L 83.943076 122.759511 
L 85.066449 123.413014 
L 86.189821 122.957278 
L 90.683309 122.146847 
L 91.806681 124.220628 
L 92.930053 125.69242 
L 94.053426 130.782963 
L 97.423542 127.196051 
L 98.546914 132.492593 
L 99.670286 129.690526 
L 100.793658 131.447556 
L 101.917031 137.657556 
L 105.287147 146.520722 
L 106.410519 146.511632 
L 107.533891 143.177546 
L 108.657263 136.5901 
L 109.780635 132.95071 
L 113.150752 129.511955 
L 114.274124 140.114225 
L 115.397496 139.421719 
L 116.520868 144.057766 
L 117.64424 136.599662 
L 121.014357 142.46608 
L 122.137729 135.078567 
L 123.261101 133.547769 
L 124.384473 132.403878 
L 125.507845 129.630903 
L 128.877962 132.570887 
L 130.001334 136.819288 
L 131.124706 138.222528 
L 132.248078 125.481968 
L 133.37145 121.738509 
L 136.741567 120.6148 
L 137.864939 116.367572 
L 138.988311 113.38857 
L 140.111683 120.292317 
L 141.235055 123.078518 
L 144.605171 124.504601 
L 145.728544 127.011065 
L 146.851916 130.118636 
L 147.975288 123.190954 
L 149.09866 121.975881 
L 152.468776 121.786977 
L 153.592148 119.979896 
L 154.715521 115.612214 
L 155.838893 116.584264 
L 156.962265 116.767479 
L 160.332381 116.226384 
L 161.455753 120.321568 
L 162.579126 122.855613 
L 163.702498 122.973724 
L 164.82587 119.532896 
L 168.195986 118.338723 
L 169.319358 119.511888 
L 170.44273 120.00644 
L 171.566103 119.767391 
L 172.689475 121.50729 
L 176.059591 119.69158 
L 177.182963 114.229402 
L 178.306335 114.123711 
L 180.55308 128.084552 
L 183.923196 121.843079 
L 185.046568 133.449428 
L 186.16994 139.608114 
L 187.293312 132.1698 
L 188.416684 136.305847 
L 191.786801 128.757493 
L 192.910173 119.342405 
L 194.033545 116.26078 
L 195.156917 116.79973 
L 196.280289 113.245632 
L 199.650406 118.668521 
L 200.773778 118.717985 
L 201.89715 114.457771 
L 203.020522 114.158173 
L 204.143894 121.492659 
L 207.514011 127.3342 
L 208.637383 117.396632 
L 209.760755 114.411345 
L 210.884127 109.850441 
L 215.377616 102.42971 
L 216.500988 102.90655 
L 217.62436 102.393772 
L 218.747732 103.321607 
L 219.871104 105.482868 
L 223.241221 99.420727 
L 224.364593 94.12272 
L 225.487965 106.354173 
L 226.611337 103.768329 
L 227.734709 100.83736 
L 231.104825 101.505496 
L 232.228198 98.187825 
L 233.35157 98.266703 
L 234.474942 102.576314 
L 235.598314 102.57675 
L 240.091802 114.906082 
L 242.338547 124.989262 
L 243.461919 136.02984 
L 246.832035 136.51593 
L 247.955407 135.328803 
L 249.078779 136.25839 
L 250.202152 140.909415 
L 251.325524 128.510196 
L 254.69564 120.405388 
L 255.819012 113.860041 
L 256.942384 105.423373 
L 258.065757 129.478287 
L 259.189129 125.266603 
L 262.559245 128.910727 
L 263.682617 125.502165 
L 264.805989 120.302617 
L 265.929361 129.482751 
L 267.052734 140.38319 
L 270.42285 145.281655 
L 271.546222 138.959659 
L 272.669594 140.260081 
L 273.792966 150.085163 
L 274.916338 152.788774 
L 279.409827 156.836989 
L 280.533199 163.9428 
L 281.656571 161.323097 
L 282.779943 149.501922 
L 286.15006 154.292651 
L 287.273432 164.562498 
L 288.396804 152.8278 
L 289.520176 154.023204 
L 290.643548 160.898338 
L 294.013665 178.411693 
L 295.137037 181.005063 
L 296.260409 163.318036 
L 297.383781 169.654214 
L 298.507153 175.171366 
L 301.87727 175.79305 
L 303.000642 167.547852 
L 304.124014 156.438369 
L 306.370758 146.157424 
L 309.740874 146.095433 
L 310.864247 137.565563 
L 311.987619 142.738986 
L 313.110991 135.217268 
L 314.234363 129.400976 
L 317.604479 128.573632 
L 318.727852 126.379187 
L 319.851224 126.684298 
L 320.974596 136.970841 
L 322.097968 134.52955 
L 325.468084 131.21523 
L 326.591456 136.094742 
L 327.714829 142.484199 
L 328.838201 142.697795 
L 329.961573 142.717473 
L 333.331689 150.213808 
L 334.455061 153.011369 
L 335.578433 151.083799 
L 336.701806 158.698959 
L 341.195294 155.311198 
L 342.318666 148.555614 
L 343.442038 145.889915 
L 344.565411 152.90313 
L 345.688783 167.610117 
L 349.058899 166.239882 
L 350.182271 174.205037 
L 351.305643 175.723892 
L 352.429015 159.452943 
L 353.552388 174.777346 
L 356.922504 171.866423 
L 358.045876 167.842529 
L 359.169248 147.060124 
L 360.29262 165.259311 
L 361.415992 163.694433 
L 364.786109 178.06596 
L 365.909481 181.841609 
L 367.032853 187.276395 
L 368.156225 190.318143 
L 369.279597 182.588946 
L 372.649714 184.317801 
L 373.773086 174.865475 
L 374.896458 193.037484 
L 376.01983 199.232716 
L 377.143202 203.315532 
L 380.513319 190.888426 
L 381.636691 197.380464 
L 382.760063 196.871616 
L 383.883435 186.782131 
L 385.006807 175.376739 
L 389.500296 177.123541 
L 390.623668 179.754883 
L 391.74704 173.208062 
L 392.870412 181.310391 
L 396.240528 176.500216 
L 397.363901 173.107321 
L 398.487273 178.458505 
L 398.487273 178.458505 
" style="fill:none;stroke:#ff0000;stroke-linecap:square;stroke-opacity:0.9;stroke-width:2;"/>
   </g>
   <g id="line2d_17">
    <path clip-path="url(#p07e6ce2f84)" d="M 73.832727 133.390858 
L 74.956099 130.737995 
L 76.079472 128.920521 
L 77.202844 131.863553 
L 78.326216 126.459878 
L 82.819704 122.17655 
L 83.943076 123.345743 
L 86.189821 122.739467 
L 90.683309 123.316123 
L 91.806681 123.83421 
L 92.930053 125.831003 
L 94.053426 130.615121 
L 97.423542 125.955687 
L 98.546914 133.111668 
L 99.670286 129.500022 
L 100.793658 130.269907 
L 101.917031 135.333685 
L 105.287147 144.111403 
L 106.410519 144.653664 
L 107.533891 141.171813 
L 108.657263 133.096954 
L 109.780635 128.332095 
L 113.150752 124.418177 
L 114.274124 135.501544 
L 115.397496 134.809996 
L 116.520868 138.473225 
L 117.64424 131.022148 
L 121.014357 140.670372 
L 122.137729 132.248816 
L 123.261101 130.74035 
L 124.384473 129.600951 
L 125.507845 127.225517 
L 128.877962 130.513117 
L 130.001334 134.434134 
L 131.124706 135.458802 
L 132.248078 125.09903 
L 133.37145 124.329571 
L 136.741567 119.936499 
L 137.864939 114.810536 
L 138.988311 112.455032 
L 140.111683 121.901127 
L 141.235055 129.121252 
L 144.605171 128.795427 
L 145.728544 133.116572 
L 146.851916 135.255519 
L 147.975288 128.103808 
L 149.09866 126.786532 
L 153.592148 122.877454 
L 154.715521 118.456834 
L 155.838893 117.844252 
L 156.962265 113.983852 
L 160.332381 113.607788 
L 161.455753 120.365673 
L 162.579126 124.587202 
L 163.702498 124.515109 
L 164.82587 120.218499 
L 168.195986 118.617295 
L 169.319358 121.112752 
L 170.44273 121.689468 
L 171.566103 122.848703 
L 172.689475 123.120917 
L 176.059591 119.884041 
L 177.182963 115.825942 
L 178.306335 115.846905 
L 180.55308 127.539608 
L 183.923196 120.732711 
L 185.046568 131.318661 
L 186.16994 138.74622 
L 187.293312 132.106972 
L 188.416684 135.574757 
L 191.786801 125.919786 
L 192.910173 116.422806 
L 194.033545 112.011036 
L 195.156917 111.861688 
L 196.280289 110.173442 
L 199.650406 115.300895 
L 200.773778 112.763241 
L 201.89715 109.706146 
L 203.020522 107.174838 
L 204.143894 112.911267 
L 207.514011 120.318389 
L 208.637383 107.516418 
L 209.760755 105.304908 
L 210.884127 100.140251 
L 215.377616 93.165674 
L 216.500988 93.740157 
L 217.62436 93.735432 
L 218.747732 94.234688 
L 219.871104 96.882888 
L 223.241221 88.144513 
L 224.364593 81.710153 
L 225.487965 96.562311 
L 226.611337 91.484809 
L 227.734709 90.05 
L 231.104825 90.021293 
L 232.228198 85.176932 
L 233.35157 83.842372 
L 234.474942 90.855485 
L 235.598314 89.086318 
L 241.215175 104.507288 
L 242.338547 110.804428 
L 243.461919 123.682827 
L 246.832035 122.40086 
L 247.955407 128.959136 
L 249.078779 128.867357 
L 250.202152 132.278805 
L 251.325524 118.802274 
L 254.69564 107.56727 
L 255.819012 102.060828 
L 256.942384 92.151668 
L 258.065757 127.504503 
L 259.189129 126.271407 
L 262.559245 135.631913 
L 263.682617 136.978435 
L 264.805989 125.423899 
L 265.929361 134.993853 
L 267.052734 146.430834 
L 270.42285 149.959735 
L 271.546222 143.579014 
L 272.669594 146.663626 
L 273.792966 156.137105 
L 274.916338 159.217007 
L 279.409827 164.841808 
L 280.533199 171.595195 
L 281.656571 159.889398 
L 282.779943 150.574701 
L 286.15006 153.019201 
L 287.273432 161.846726 
L 288.396804 150.96873 
L 289.520176 154.494483 
L 290.643548 163.603002 
L 294.013665 185.281267 
L 295.137037 182.685298 
L 296.260409 161.213736 
L 298.507153 176.818614 
L 301.87727 177.174326 
L 303.000642 167.860138 
L 304.124014 151.431563 
L 305.247386 146.182667 
L 306.370758 138.276202 
L 309.740874 140.483482 
L 310.864247 129.073756 
L 311.987619 135.671236 
L 313.110991 128.071225 
L 314.234363 121.982554 
L 317.604479 121.094849 
L 318.727852 117.275932 
L 319.851224 119.9282 
L 320.974596 133.470779 
L 322.097968 132.636232 
L 325.468084 127.643351 
L 326.591456 134.159302 
L 327.714829 141.580005 
L 328.838201 143.843929 
L 329.961573 144.206368 
L 333.331689 152.180056 
L 334.455061 155.380801 
L 335.578433 152.952475 
L 336.701806 162.665523 
L 341.195294 157.153371 
L 342.318666 147.547091 
L 343.442038 150.991616 
L 344.565411 164.644154 
L 345.688783 180.715618 
L 349.058899 177.942756 
L 350.182271 189.775294 
L 351.305643 194.517942 
L 352.429015 167.471778 
L 353.552388 182.396971 
L 356.922504 173.928522 
L 358.045876 168.16372 
L 359.169248 146.153671 
L 360.29262 167.33171 
L 361.415992 169.699474 
L 364.786109 184.032007 
L 365.909481 184.111049 
L 367.032853 192.670188 
L 368.156225 195.656634 
L 369.279597 186.493795 
L 372.649714 189.686662 
L 373.773086 178.767924 
L 374.896458 197.680739 
L 376.01983 203.356395 
L 377.143202 207.37042 
L 380.513319 192.689484 
L 381.636691 206.1268 
L 382.760063 204.206119 
L 385.006807 179.22866 
L 389.500296 179.458913 
L 390.623668 184.038012 
L 391.74704 173.431915 
L 392.870412 185.687112 
L 396.240528 179.674409 
L 397.363901 175.741638 
L 398.487273 179.88074 
L 398.487273 179.88074 
" style="fill:none;stroke:#ff8040;stroke-linecap:square;stroke-opacity:0.9;stroke-width:2;"/>
   </g>
   <g id="line2d_18">
    <path clip-path="url(#p07e6ce2f84)" d="M 73.832727 133.91285 
L 76.079472 130.95412 
L 77.202844 134.379478 
L 78.326216 128.422602 
L 81.696332 129.919779 
L 82.819704 129.302731 
L 83.943076 130.948955 
L 85.066449 132.003818 
L 90.683309 131.329042 
L 92.930053 135.34155 
L 94.053426 141.376887 
L 97.423542 138.990404 
L 98.546914 145.684937 
L 99.670286 142.801477 
L 100.793658 144.853954 
L 101.917031 151.58081 
L 105.287147 162.133983 
L 106.410519 161.894283 
L 107.533891 160.050169 
L 108.657263 154.695627 
L 109.780635 151.610903 
L 113.150752 144.008115 
L 114.274124 155.275741 
L 115.397496 154.462812 
L 116.520868 158.895354 
L 117.64424 151.420916 
L 121.014357 163.829621 
L 122.137729 155.616455 
L 123.261101 154.247304 
L 124.384473 152.198956 
L 125.507845 150.402022 
L 128.877962 153.04826 
L 130.001334 156.621588 
L 131.124706 157.435897 
L 132.248078 144.45795 
L 133.37145 141.082836 
L 136.741567 141.531319 
L 137.864939 137.51316 
L 138.988311 134.982746 
L 140.111683 142.728802 
L 141.235055 148.131316 
L 144.605171 147.426831 
L 145.728544 148.089347 
L 146.851916 154.327573 
L 147.975288 146.644303 
L 152.468776 145.859913 
L 153.592148 143.533457 
L 154.715521 138.435587 
L 156.962265 140.72976 
L 160.332381 138.788712 
L 162.579126 144.718254 
L 163.702498 144.565048 
L 164.82587 141.769599 
L 168.195986 140.294033 
L 169.319358 141.434926 
L 170.44273 143.152113 
L 171.566103 142.944825 
L 172.689475 147.110336 
L 176.059591 144.977688 
L 177.182963 139.684599 
L 178.306335 140.001752 
L 180.55308 152.880004 
L 183.923196 147.357864 
L 185.046568 162.624082 
L 186.16994 168.883307 
L 187.293312 161.313129 
L 188.416684 164.747593 
L 191.786801 156.839107 
L 192.910173 148.770752 
L 194.033545 147.301643 
L 195.156917 148.092437 
L 196.280289 146.974972 
L 199.650406 150.882818 
L 200.773778 150.425852 
L 203.020522 141.5008 
L 204.143894 150.305272 
L 207.514011 155.536673 
L 208.637383 145.303372 
L 209.760755 142.418916 
L 210.884127 138.865248 
L 215.377616 128.454679 
L 216.500988 129.627816 
L 217.62436 128.73677 
L 218.747732 129.850782 
L 219.871104 134.00355 
L 223.241221 128.969228 
L 224.364593 123.711526 
L 225.487965 136.308412 
L 226.611337 132.819729 
L 227.734709 130.710525 
L 231.104825 133.569233 
L 232.228198 132.866369 
L 233.35157 131.023285 
L 234.474942 136.999874 
L 235.598314 135.234352 
L 240.091802 146.777874 
L 241.215175 150.391041 
L 242.338547 155.682942 
L 243.461919 164.287728 
L 246.832035 163.873033 
L 247.955407 168.437924 
L 249.078779 169.542966 
L 250.202152 174.054842 
L 251.325524 165.582621 
L 254.69564 157.622199 
L 255.819012 153.03143 
L 256.942384 143.335595 
L 258.065757 176.54122 
L 259.189129 174.764687 
L 262.559245 182.468305 
L 263.682617 180.639474 
L 264.805989 175.490226 
L 267.052734 196.323976 
L 270.42285 200.238405 
L 271.546222 194.590322 
L 272.669594 197.801114 
L 273.792966 209.803054 
L 274.916338 211.468121 
L 279.409827 216.238426 
L 280.533199 222.557112 
L 281.656571 219.889517 
L 282.779943 209.152461 
L 286.15006 212.96433 
L 287.273432 225.997477 
L 288.396804 214.494589 
L 289.520176 215.848537 
L 290.643548 223.791672 
L 294.013665 241.821865 
L 295.137037 244.39526 
L 296.260409 229.530387 
L 297.383781 236.032319 
L 298.507153 241.202383 
L 301.87727 242.214747 
L 303.000642 234.248017 
L 304.124014 222.319822 
L 306.370758 213.160584 
L 309.740874 212.293131 
L 310.864247 205.241455 
L 311.987619 208.624673 
L 313.110991 203.507522 
L 314.234363 199.602864 
L 317.604479 198.971079 
L 318.727852 196.756463 
L 319.851224 197.318508 
L 320.974596 205.078722 
L 322.097968 203.837668 
L 325.468084 197.881266 
L 326.591456 202.282027 
L 327.714829 208.61841 
L 328.838201 207.941138 
L 329.961573 206.963269 
L 333.331689 214.55145 
L 334.455061 217.720795 
L 335.578433 215.152837 
L 336.701806 222.479335 
L 341.195294 219.589443 
L 342.318666 212.07091 
L 343.442038 212.363191 
L 344.565411 221.866176 
L 345.688783 233.865844 
L 349.058899 232.068817 
L 350.182271 245.018238 
L 351.305643 245.907776 
L 352.429015 228.811043 
L 353.552388 241.903555 
L 356.922504 235.227783 
L 358.045876 232.62167 
L 359.169248 214.671457 
L 360.29262 230.38797 
L 361.415992 230.004178 
L 365.909481 246.447589 
L 367.032853 254.381149 
L 368.156225 254.510983 
L 369.279597 248.001523 
L 372.649714 248.88624 
L 373.773086 239.272396 
L 374.896458 255.51665 
L 376.01983 261.607019 
L 377.143202 265.797818 
L 380.513319 253.998546 
L 381.636691 257.400971 
L 382.760063 256.228691 
L 383.883435 247.443469 
L 385.006807 237.225323 
L 389.500296 238.357766 
L 390.623668 241.637036 
L 391.74704 233.860792 
L 392.870412 241.658551 
L 396.240528 237.206526 
L 397.363901 234.408432 
L 398.487273 238.790255 
L 398.487273 238.790255 
" style="fill:none;stroke:#0d0d0d;stroke-linecap:square;stroke-opacity:0.25;stroke-width:2;"/>
   </g>
   <g id="line2d_19">
    <path clip-path="url(#p07e6ce2f84)" d="M 73.832727 132.868866 
L 74.956099 128.79727 
L 76.079472 125.239505 
L 77.202844 128.401331 
L 78.326216 121.256564 
L 81.696332 114.971016 
L 82.819704 114.249166 
L 83.943076 113.26889 
L 85.066449 112.023716 
L 86.189821 112.35617 
L 90.683309 111.279287 
L 92.930053 114.478668 
L 94.053426 118.602578 
L 97.423542 115.588663 
L 98.546914 121.577496 
L 99.670286 118.826907 
L 100.793658 119.825591 
L 101.917031 125.638499 
L 105.287147 135.181625 
L 106.410519 135.697129 
L 107.533891 131.508242 
L 108.657263 122.877118 
L 109.780635 118.51556 
L 113.150752 115.634925 
L 114.274124 126.37866 
L 115.397496 126.583475 
L 116.520868 131.683942 
L 117.64424 123.09136 
L 121.014357 130.62609 
L 122.137729 123.098774 
L 123.261101 121.228255 
L 124.384473 120.265417 
L 125.507845 118.011615 
L 128.877962 118.918774 
L 130.001334 123.520384 
L 131.124706 124.114442 
L 132.248078 111.576518 
L 133.37145 106.696485 
L 136.741567 105.401531 
L 137.864939 100.424648 
L 138.988311 97.160935 
L 140.111683 102.49992 
L 141.235055 102.144988 
L 144.605171 102.394927 
L 145.728544 107.56569 
L 146.851916 105.476693 
L 147.975288 98.224951 
L 149.09866 98.744796 
L 152.468776 97.083494 
L 153.592148 95.242052 
L 154.715521 91.346557 
L 155.838893 89.522193 
L 156.962265 90.165666 
L 160.332381 89.139083 
L 161.455753 92.153275 
L 162.579126 94.697392 
L 163.702498 93.970673 
L 164.82587 89.113784 
L 168.195986 88.460363 
L 169.319358 89.487607 
L 170.44273 88.816086 
L 171.566103 87.33755 
L 172.689475 88.176672 
L 176.059591 83.100734 
L 177.182963 79.010793 
L 178.306335 78.456424 
L 180.55308 92.150857 
L 183.923196 84.312523 
L 185.046568 94.204959 
L 186.16994 100.575371 
L 187.293312 93.571279 
L 188.416684 99.082468 
L 191.786801 91.913035 
L 192.910173 81.622485 
L 194.033545 78.620027 
L 195.156917 78.380518 
L 196.280289 74.868056 
L 199.650406 79.812201 
L 200.773778 79.638012 
L 201.89715 75.507943 
L 203.020522 77.375373 
L 204.143894 82.736143 
L 207.514011 90.279187 
L 208.637383 79.630391 
L 209.760755 77.118933 
L 210.884127 71.973767 
L 215.377616 63.094208 
L 216.500988 62.698027 
L 217.62436 62.779678 
L 218.747732 64.019895 
L 219.871104 66.125622 
L 223.241221 56.968682 
L 224.364593 52.20303 
L 225.487965 67.530369 
L 226.611337 64.527484 
L 227.734709 61.054102 
L 231.104825 58.66601 
L 232.228198 53.018254 
L 233.35157 52.154182 
L 234.474942 56.410422 
L 235.598314 57.003546 
L 240.091802 69.566917 
L 241.215175 73.750914 
L 242.338547 78.814502 
L 243.461919 90.154916 
L 246.832035 91.57873 
L 247.955407 95.644504 
L 249.078779 96.292097 
L 250.202152 99.972426 
L 251.325524 86.288229 
L 254.69564 78.522438 
L 255.819012 72.810994 
L 256.942384 57.028405 
L 258.065757 81.381594 
L 259.189129 72.459705 
L 262.559245 76.171929 
L 263.682617 73.770859 
L 264.805989 64.151379 
L 265.929361 74.269465 
L 267.052734 88.093374 
L 270.42285 95.043525 
L 271.546222 88.273182 
L 272.669594 90.826712 
L 273.792966 105.242224 
L 274.916338 109.440611 
L 279.409827 114.050035 
L 280.533199 121.901547 
L 281.656571 118.736065 
L 282.779943 105.342883 
L 286.15006 111.047455 
L 287.273432 119.548085 
L 288.396804 106.451995 
L 289.520176 112.052726 
L 290.643548 116.75349 
L 294.013665 138.628041 
L 295.137037 138.241663 
L 296.260409 117.464822 
L 297.383781 125.949829 
L 298.507153 132.865129 
L 301.87727 133.872652 
L 303.000642 123.984005 
L 304.124014 107.126422 
L 305.247386 102.107234 
L 306.370758 94.932004 
L 309.740874 97.090051 
L 310.864247 89.326282 
L 311.987619 94.999925 
L 313.110991 87.077908 
L 314.234363 80.190937 
L 317.604479 80.337001 
L 318.727852 75.603938 
L 319.851224 76.662108 
L 320.974596 90.908438 
L 322.097968 87.797882 
L 325.468084 81.454096 
L 326.591456 86.424346 
L 327.714829 93.235375 
L 329.961573 90.838996 
L 334.455061 102.196606 
L 335.578433 100.587609 
L 336.701806 109.968424 
L 341.195294 106.366082 
L 342.318666 97.970098 
L 343.442038 90.58127 
L 344.565411 99.045912 
L 345.688783 114.380379 
L 349.058899 111.999455 
L 350.182271 120.013509 
L 351.305643 123.759191 
L 352.429015 110.814201 
L 353.552388 127.235839 
L 356.922504 122.796556 
L 358.045876 118.528603 
L 359.169248 94.622201 
L 360.29262 115.567288 
L 361.415992 116.478473 
L 364.786109 131.950772 
L 365.909481 135.958545 
L 367.032853 142.040822 
L 368.156225 143.473731 
L 369.279597 133.431319 
L 372.649714 133.815568 
L 373.773086 124.468864 
L 374.896458 145.492665 
L 376.01983 151.567145 
L 377.143202 154.633116 
L 380.513319 142.367532 
L 381.636691 149.504335 
L 382.760063 148.779589 
L 385.006807 124.882354 
L 389.500296 125.565705 
L 390.623668 129.795521 
L 391.74704 123.677267 
L 392.870412 132.817867 
L 396.240528 127.034028 
L 397.363901 123.243074 
L 398.487273 125.809416 
L 398.487273 125.809416 
" style="fill:none;stroke:#0d0d0d;stroke-linecap:square;stroke-opacity:0.25;stroke-width:2;"/>
   </g>
   <g id="patch_3">
    <path d="M 57.6 276.48 
L 57.6 41.472 
" style="fill:none;stroke:#000000;stroke-linecap:square;stroke-linejoin:miter;stroke-width:0.8;"/>
   </g>
   <g id="patch_4">
    <path d="M 414.72 276.48 
L 414.72 41.472 
" style="fill:none;stroke:#000000;stroke-linecap:square;stroke-linejoin:miter;stroke-width:0.8;"/>
   </g>
   <g id="patch_5">
    <path d="M 57.6 276.48 
L 414.72 276.48 
" style="fill:none;stroke:#000000;stroke-linecap:square;stroke-linejoin:miter;stroke-width:0.8;"/>
   </g>
   <g id="patch_6">
    <path d="M 57.6 41.472 
L 414.72 41.472 
" style="fill:none;stroke:#000000;stroke-linecap:square;stroke-linejoin:miter;stroke-width:0.8;"/>
   </g>
   <g id="text_16">
    <!-- TESTFUNDS0830 -->
    <g transform="translate(185.200312 22.034625)scale(0.12 -0.12)">
     <defs>
      <path d="M -19 4666 
L 3928 4666 
L 3928 4134 
L 2272 4134 
L 2272 0 
L 1638 0 
L 1638 4134 
L -19 4134 
L -19 4666 
z
" id="DejaVuSans-54" transform="scale(0.015625)"/>
      <path d="M 628 4666 
L 3578 4666 
L 3578 4134 
L 1259 4134 
L 1259 2753 
L 3481 2753 
L 3481 2222 
L 1259 2222 
L 1259 531 
L 3634 531 
L 3634 0 
L 628 0 
L 628 4666 
z
" id="DejaVuSans-45" transform="scale(0.015625)"/>
      <path d="M 3425 4513 
L 3425 3897 
Q 3066 4069 2747 4153 
Q 2428 4238 2131 4238 
Q 1616 4238 1336 4038 
Q 1056 3838 1056 3469 
Q 1056 3159 1242 3001 
Q 1428 2844 1947 2747 
L 2328 2669 
Q 3034 2534 3370 2195 
Q 3706 1856 3706 1288 
Q 3706 609 3251 259 
Q 2797 -91 1919 -91 
Q 1588 -91 1214 -16 
Q 841 59 441 206 
L 441 856 
Q 825 641 1194 531 
Q 1563 422 1919 422 
Q 2459 422 2753 634 
Q 3047 847 3047 1241 
Q 3047 1584 2836 1778 
Q 2625 1972 2144 2069 
L 1759 2144 
Q 1053 2284 737 2584 
Q 422 2884 422 3419 
Q 422 4038 858 4394 
Q 1294 4750 2059 4750 
Q 2388 4750 2728 4690 
Q 3069 4631 3425 4513 
z
" id="DejaVuSans-53" transform="scale(0.015625)"/>
      <path d="M 628 4666 
L 3309 4666 
L 3309 4134 
L 1259 4134 
L 1259 2759 
L 3109 2759 
L 3109 2228 
L 1259 2228 
L 1259 0 
L 628 0 
L 628 4666 
z
" id="DejaVuSans-46" transform="scale(0.015625)"/>
      <path d="M 556 4666 
L 1191 4666 
L 1191 1831 
Q 1191 1081 1462 751 
Q 1734 422 2344 422 
Q 2950 422 3222 751 
Q 3494 1081 3494 1831 
L 3494 4666 
L 4128 4666 
L 4128 1753 
Q 4128 841 3676 375 
Q 3225 -91 2344 -91 
Q 1459 -91 1007 375 
Q 556 841 556 1753 
L 556 4666 
z
" id="DejaVuSans-55" transform="scale(0.015625)"/>
      <path d="M 628 4666 
L 1478 4666 
L 3547 763 
L 3547 4666 
L 4159 4666 
L 4159 0 
L 3309 0 
L 1241 3903 
L 1241 0 
L 628 0 
L 628 4666 
z
" id="DejaVuSans-4e" transform="scale(0.015625)"/>
      <path d="M 1259 4147 
L 1259 519 
L 2022 519 
Q 2988 519 3436 956 
Q 3884 1394 3884 2338 
Q 3884 3275 3436 3711 
Q 2988 4147 2022 4147 
L 1259 4147 
z
M 628 4666 
L 1925 4666 
Q 3281 4666 3915 4102 
Q 4550 3538 4550 2338 
Q 4550 1131 3912 565 
Q 3275 0 1925 0 
L 628 0 
L 628 4666 
z
" id="DejaVuSans-44" transform="scale(0.015625)"/>
     </defs>
     <use xlink:href="#DejaVuSans-54"/>
     <use x="61.083984" xlink:href="#DejaVuSans-45"/>
     <use x="124.267578" xlink:href="#DejaVuSans-53"/>
     <use x="187.744141" xlink:href="#DejaVuSans-54"/>
     <use x="248.828125" xlink:href="#DejaVuSans-46"/>
     <use x="306.347656" xlink:href="#DejaVuSans-55"/>
     <use x="379.541016" xlink:href="#DejaVuSans-4e"/>
     <use x="454.345703" xlink:href="#DejaVuSans-44"/>
     <use x="531.347656" xlink:href="#DejaVuSans-53"/>
     <use x="594.824219" xlink:href="#DejaVuSans-30"/>
     <use x="658.447266" xlink:href="#DejaVuSans-38"/>
     <use x="722.070312" xlink:href="#DejaVuSans-33"/>
     <use x="785.693359" xlink:href="#DejaVuSans-30"/>
    </g>
    <!-- daily_report -->
    <g transform="translate(200.466563 35.472)scale(0.12 -0.12)">
     <defs>
      <path d="M 603 3500 
L 1178 3500 
L 1178 0 
L 603 0 
L 603 3500 
z
M 603 4863 
L 1178 4863 
L 1178 4134 
L 603 4134 
L 603 4863 
z
" id="DejaVuSans-69" transform="scale(0.015625)"/>
      <path d="M 603 4863 
L 1178 4863 
L 1178 0 
L 603 0 
L 603 4863 
z
" id="DejaVuSans-6c" transform="scale(0.015625)"/>
      <path d="M 2059 -325 
Q 1816 -950 1584 -1140 
Q 1353 -1331 966 -1331 
L 506 -1331 
L 506 -850 
L 844 -850 
Q 1081 -850 1212 -737 
Q 1344 -625 1503 -206 
L 1606 56 
L 191 3500 
L 800 3500 
L 1894 763 
L 2988 3500 
L 3597 3500 
L 2059 -325 
z
" id="DejaVuSans-79" transform="scale(0.015625)"/>
      <path d="M 3263 -1063 
L 3263 -1509 
L -63 -1509 
L -63 -1063 
L 3263 -1063 
z
" id="DejaVuSans-5f" transform="scale(0.015625)"/>
      <path d="M 2631 2963 
Q 2534 3019 2420 3045 
Q 2306 3072 2169 3072 
Q 1681 3072 1420 2755 
Q 1159 2438 1159 1844 
L 1159 0 
L 581 0 
L 581 3500 
L 1159 3500 
L 1159 2956 
Q 1341 3275 1631 3429 
Q 1922 3584 2338 3584 
Q 2397 3584 2469 3576 
Q 2541 3569 2628 3553 
L 2631 2963 
z
" id="DejaVuSans-72" transform="scale(0.015625)"/>
      <path d="M 1159 525 
L 1159 -1331 
L 581 -1331 
L 581 3500 
L 1159 3500 
L 1159 2969 
Q 1341 3281 1617 3432 
Q 1894 3584 2278 3584 
Q 2916 3584 3314 3078 
Q 3713 2572 3713 1747 
Q 3713 922 3314 415 
Q 2916 -91 2278 -91 
Q 1894 -91 1617 61 
Q 1341 213 1159 525 
z
M 3116 1747 
Q 3116 2381 2855 2742 
Q 2594 3103 2138 3103 
Q 1681 3103 1420 2742 
Q 1159 2381 1159 1747 
Q 1159 1113 1420 752 
Q 1681 391 2138 391 
Q 2594 391 2855 752 
Q 3116 1113 3116 1747 
z
" id="DejaVuSans-70" transform="scale(0.015625)"/>
      <path d="M 1959 3097 
Q 1497 3097 1228 2736 
Q 959 2375 959 1747 
Q 959 1119 1226 758 
Q 1494 397 1959 397 
Q 2419 397 2687 759 
Q 2956 1122 2956 1747 
Q 2956 2369 2687 2733 
Q 2419 3097 1959 3097 
z
M 1959 3584 
Q 2709 3584 3137 3096 
Q 3566 2609 3566 1747 
Q 3566 888 3137 398 
Q 2709 -91 1959 -91 
Q 1206 -91 779 398 
Q 353 888 353 1747 
Q 353 2609 779 3096 
Q 1206 3584 1959 3584 
z
" id="DejaVuSans-6f" transform="scale(0.015625)"/>
     </defs>
     <use xlink:href="#DejaVuSans-64"/>
     <use x="63.476562" xlink:href="#DejaVuSans-61"/>
     <use x="124.755859" xlink:href="#DejaVuSans-69"/>
     <use x="152.539062" xlink:href="#DejaVuSans-6c"/>
     <use x="180.322266" xlink:href="#DejaVuSans-79"/>
     <use x="239.501953" xlink:href="#DejaVuSans-5f"/>
     <use x="289.501953" xlink:href="#DejaVuSans-72"/>
     <use x="328.365234" xlink:href="#DejaVuSans-65"/>
     <use x="389.888672" xlink:href="#DejaVuSans-70"/>
     <use x="453.365234" xlink:href="#DejaVuSans-6f"/>
     <use x="514.546875" xlink:href="#DejaVuSans-72"/>
     <use x="555.660156" xlink:href="#DejaVuSans-74"/>
    </g>
   </g>
   <g id="legend_1">
    <g id="patch_7">
     <path d="M 64.6 271.48 
L 155.792188 271.48 
Q 157.792188 271.48 157.792188 269.48 
L 157.792188 197.089375 
Q 157.792188 195.089375 155.792188 195.089375 
L 64.6 195.089375 
Q 62.6 195.089375 62.6 197.089375 
L 62.6 269.48 
Q 62.6 271.48 64.6 271.48 
z
" style="fill:#ffffff;opacity:0.8;stroke:#cccccc;stroke-linejoin:miter;"/>
    </g>
    <g id="line2d_20">
     <path d="M 66.6 203.187812 
L 86.6 203.187812 
" style="fill:none;stroke:#0000ff;stroke-linecap:square;stroke-opacity:0.9;stroke-width:2;"/>
    </g>
    <g id="line2d_21"/>
    <g id="text_17">
     <!-- alpaca -->
     <g transform="translate(94.6 206.687812)scale(0.1 -0.1)">
      <defs>
       <path d="M 3122 3366 
L 3122 2828 
Q 2878 2963 2633 3030 
Q 2388 3097 2138 3097 
Q 1578 3097 1268 2742 
Q 959 2388 959 1747 
Q 959 1106 1268 751 
Q 1578 397 2138 397 
Q 2388 397 2633 464 
Q 2878 531 3122 666 
L 3122 134 
Q 2881 22 2623 -34 
Q 2366 -91 2075 -91 
Q 1284 -91 818 406 
Q 353 903 353 1747 
Q 353 2603 823 3093 
Q 1294 3584 2113 3584 
Q 2378 3584 2631 3529 
Q 2884 3475 3122 3366 
z
" id="DejaVuSans-63" transform="scale(0.015625)"/>
      </defs>
      <use xlink:href="#DejaVuSans-61"/>
      <use x="61.279297" xlink:href="#DejaVuSans-6c"/>
      <use x="89.0625" xlink:href="#DejaVuSans-70"/>
      <use x="152.539062" xlink:href="#DejaVuSans-61"/>
      <use x="213.818359" xlink:href="#DejaVuSans-63"/>
      <use x="268.798828" xlink:href="#DejaVuSans-61"/>
     </g>
    </g>
    <g id="line2d_22">
     <path d="M 66.6 217.865937 
L 86.6 217.865937 
" style="fill:none;stroke:#ff0000;stroke-linecap:square;stroke-opacity:0.9;stroke-width:2;"/>
    </g>
    <g id="line2d_23"/>
    <g id="text_18">
     <!-- mattress -->
     <g transform="translate(94.6 221.365937)scale(0.1 -0.1)">
      <defs>
       <path d="M 3328 2828 
Q 3544 3216 3844 3400 
Q 4144 3584 4550 3584 
Q 5097 3584 5394 3201 
Q 5691 2819 5691 2113 
L 5691 0 
L 5113 0 
L 5113 2094 
Q 5113 2597 4934 2840 
Q 4756 3084 4391 3084 
Q 3944 3084 3684 2787 
Q 3425 2491 3425 1978 
L 3425 0 
L 2847 0 
L 2847 2094 
Q 2847 2600 2669 2842 
Q 2491 3084 2119 3084 
Q 1678 3084 1418 2786 
Q 1159 2488 1159 1978 
L 1159 0 
L 581 0 
L 581 3500 
L 1159 3500 
L 1159 2956 
Q 1356 3278 1631 3431 
Q 1906 3584 2284 3584 
Q 2666 3584 2933 3390 
Q 3200 3197 3328 2828 
z
" id="DejaVuSans-6d" transform="scale(0.015625)"/>
       <path d="M 2834 3397 
L 2834 2853 
Q 2591 2978 2328 3040 
Q 2066 3103 1784 3103 
Q 1356 3103 1142 2972 
Q 928 2841 928 2578 
Q 928 2378 1081 2264 
Q 1234 2150 1697 2047 
L 1894 2003 
Q 2506 1872 2764 1633 
Q 3022 1394 3022 966 
Q 3022 478 2636 193 
Q 2250 -91 1575 -91 
Q 1294 -91 989 -36 
Q 684 19 347 128 
L 347 722 
Q 666 556 975 473 
Q 1284 391 1588 391 
Q 1994 391 2212 530 
Q 2431 669 2431 922 
Q 2431 1156 2273 1281 
Q 2116 1406 1581 1522 
L 1381 1569 
Q 847 1681 609 1914 
Q 372 2147 372 2553 
Q 372 3047 722 3315 
Q 1072 3584 1716 3584 
Q 2034 3584 2315 3537 
Q 2597 3491 2834 3397 
z
" id="DejaVuSans-73" transform="scale(0.015625)"/>
      </defs>
      <use xlink:href="#DejaVuSans-6d"/>
      <use x="97.412109" xlink:href="#DejaVuSans-61"/>
      <use x="158.691406" xlink:href="#DejaVuSans-74"/>
      <use x="197.900391" xlink:href="#DejaVuSans-74"/>
      <use x="237.109375" xlink:href="#DejaVuSans-72"/>
      <use x="275.972656" xlink:href="#DejaVuSans-65"/>
      <use x="337.496094" xlink:href="#DejaVuSans-73"/>
      <use x="389.595703" xlink:href="#DejaVuSans-73"/>
     </g>
    </g>
    <g id="line2d_24">
     <path d="M 66.6 232.544062 
L 86.6 232.544062 
" style="fill:none;stroke:#ff8040;stroke-linecap:square;stroke-opacity:0.9;stroke-width:2;"/>
    </g>
    <g id="line2d_25"/>
    <g id="text_19">
     <!-- trader-0850 -->
     <g transform="translate(94.6 236.044062)scale(0.1 -0.1)">
      <use xlink:href="#DejaVuSans-74"/>
      <use x="39.208984" xlink:href="#DejaVuSans-72"/>
      <use x="80.322266" xlink:href="#DejaVuSans-61"/>
      <use x="141.601562" xlink:href="#DejaVuSans-64"/>
      <use x="205.078125" xlink:href="#DejaVuSans-65"/>
      <use x="266.601562" xlink:href="#DejaVuSans-72"/>
      <use x="301.339844" xlink:href="#DejaVuSans-2d"/>
      <use x="337.423828" xlink:href="#DejaVuSans-30"/>
      <use x="401.046875" xlink:href="#DejaVuSans-38"/>
      <use x="464.669922" xlink:href="#DejaVuSans-35"/>
      <use x="528.292969" xlink:href="#DejaVuSans-30"/>
     </g>
    </g>
    <g id="line2d_26">
     <path d="M 66.6 247.222187 
L 86.6 247.222187 
" style="fill:none;stroke:#0d0d0d;stroke-linecap:square;stroke-opacity:0.25;stroke-width:2;"/>
    </g>
    <g id="line2d_27"/>
    <g id="text_20">
     <!-- rando-min -->
     <g transform="translate(94.6 250.722187)scale(0.1 -0.1)">
      <defs>
       <path d="M 3513 2113 
L 3513 0 
L 2938 0 
L 2938 2094 
Q 2938 2591 2744 2837 
Q 2550 3084 2163 3084 
Q 1697 3084 1428 2787 
Q 1159 2491 1159 1978 
L 1159 0 
L 581 0 
L 581 3500 
L 1159 3500 
L 1159 2956 
Q 1366 3272 1645 3428 
Q 1925 3584 2291 3584 
Q 2894 3584 3203 3211 
Q 3513 2838 3513 2113 
z
" id="DejaVuSans-6e" transform="scale(0.015625)"/>
      </defs>
      <use xlink:href="#DejaVuSans-72"/>
      <use x="41.113281" xlink:href="#DejaVuSans-61"/>
      <use x="102.392578" xlink:href="#DejaVuSans-6e"/>
      <use x="165.771484" xlink:href="#DejaVuSans-64"/>
      <use x="229.248047" xlink:href="#DejaVuSans-6f"/>
      <use x="292.304688" xlink:href="#DejaVuSans-2d"/>
      <use x="328.388672" xlink:href="#DejaVuSans-6d"/>
      <use x="425.800781" xlink:href="#DejaVuSans-69"/>
      <use x="453.583984" xlink:href="#DejaVuSans-6e"/>
     </g>
    </g>
    <g id="line2d_28">
     <path d="M 66.6 261.900312 
L 86.6 261.900312 
" style="fill:none;stroke:#0d0d0d;stroke-linecap:square;stroke-opacity:0.25;stroke-width:2;"/>
    </g>
    <g id="line2d_29"/>
    <g id="text_21">
     <!-- rando-max -->
     <g transform="translate(94.6 265.400312)scale(0.1 -0.1)">
      <defs>
       <path d="M 3513 3500 
L 2247 1797 
L 3578 0 
L 2900 0 
L 1881 1375 
L 863 0 
L 184 0 
L 1544 1831 
L 300 3500 
L 978 3500 
L 1906 2253 
L 2834 3500 
L 3513 3500 
z
" id="DejaVuSans-78" transform="scale(0.015625)"/>
      </defs>
      <use xlink:href="#DejaVuSans-72"/>
      <use x="41.113281" xlink:href="#DejaVuSans-61"/>
      <use x="102.392578" xlink:href="#DejaVuSans-6e"/>
      <use x="165.771484" xlink:href="#DejaVuSans-64"/>
      <use x="229.248047" xlink:href="#DejaVuSans-6f"/>
      <use x="292.304688" xlink:href="#DejaVuSans-2d"/>
      <use x="328.388672" xlink:href="#DejaVuSans-6d"/>
      <use x="425.800781" xlink:href="#DejaVuSans-61"/>
      <use x="487.080078" xlink:href="#DejaVuSans-78"/>
     </g>
    </g>
   </g>
  </g>
 </g>
 <defs>
  <clipPath id="p07e6ce2f84">
   <rect height="235.008" width="357.12" x="57.6" y="41.472"/>
  </clipPath>
 </defs>
</svg>
