<?xml version="1.0" encoding="utf-8" standalone="no"?>
<!DOCTYPE svg PUBLIC "-//W3C//DTD SVG 1.1//EN"
  "http://www.w3.org/Graphics/SVG/1.1/DTD/svg11.dtd">
<svg height="345.6pt" version="1.1" viewBox="0 0 460.8 345.6" width="460.8pt" xmlns="http://www.w3.org/2000/svg" xmlns:xlink="http://www.w3.org/1999/xlink">
 <metadata>
  <rdf:RDF xmlns:cc="http://creativecommons.org/ns#" xmlns:dc="http://purl.org/dc/elements/1.1/" xmlns:rdf="http://www.w3.org/1999/02/22-rdf-syntax-ns#">
   <cc:Work>
    <dc:type rdf:resource="http://purl.org/dc/dcmitype/StillImage"/>
    <dc:date>2022-04-13T10:02:05.614987</dc:date>
    <dc:format>image/svg+xml</dc:format>
    <dc:creator>
     <cc:Agent>
      <dc:title>Matplotlib v3.4.3, https://matplotlib.org/</dc:title>
     </cc:Agent>
    </dc:creator>
   </cc:Work>
  </rdf:RDF>
 </metadata>
 <defs>
  <style type="text/css">*{stroke-linecap:butt;stroke-linejoin:round;}</style>
 </defs>
 <g id="figure_1">
  <g id="patch_1">
   <path d="M 0 345.6 
L 460.8 345.6 
L 460.8 0 
L 0 0 
z
" style="fill:#ffffff;"/>
  </g>
  <g id="axes_1">
   <g id="patch_2">
    <path d="M 57.6 276.48 
L 414.72 276.48 
L 414.72 41.472 
L 57.6 41.472 
z
" style="fill:#ffffff;"/>
   </g>
   <g id="matplotlib.axis_1">
    <g id="xtick_1">
     <g id="line2d_1">
      <defs>
       <path d="M 0 0 
L 0 3.5 
" id="ma5dc0f0018" style="stroke:#000000;stroke-width:0.8;"/>
      </defs>
      <g>
       <use style="stroke:#000000;stroke-width:0.8;" x="102.939687" xlink:href="#ma5dc0f0018" y="276.48"/>
      </g>
     </g>
     <g id="text_1">
      <!-- 2021-12 -->
      <g transform="translate(65.714866 310.951846)rotate(-30)scale(0.1 -0.1)">
       <defs>
        <path d="M 1228 531 
L 3431 531 
L 3431 0 
L 469 0 
L 469 531 
Q 828 903 1448 1529 
Q 2069 2156 2228 2338 
Q 2531 2678 2651 2914 
Q 2772 3150 2772 3378 
Q 2772 3750 2511 3984 
Q 2250 4219 1831 4219 
Q 1534 4219 1204 4116 
Q 875 4013 500 3803 
L 500 4441 
Q 881 4594 1212 4672 
Q 1544 4750 1819 4750 
Q 2544 4750 2975 4387 
Q 3406 4025 3406 3419 
Q 3406 3131 3298 2873 
Q 3191 2616 2906 2266 
Q 2828 2175 2409 1742 
Q 1991 1309 1228 531 
z
" id="DejaVuSans-32" transform="scale(0.015625)"/>
        <path d="M 2034 4250 
Q 1547 4250 1301 3770 
Q 1056 3291 1056 2328 
Q 1056 1369 1301 889 
Q 1547 409 2034 409 
Q 2525 409 2770 889 
Q 3016 1369 3016 2328 
Q 3016 3291 2770 3770 
Q 2525 4250 2034 4250 
z
M 2034 4750 
Q 2819 4750 3233 4129 
Q 3647 3509 3647 2328 
Q 3647 1150 3233 529 
Q 2819 -91 2034 -91 
Q 1250 -91 836 529 
Q 422 1150 422 2328 
Q 422 3509 836 4129 
Q 1250 4750 2034 4750 
z
" id="DejaVuSans-30" transform="scale(0.015625)"/>
        <path d="M 794 531 
L 1825 531 
L 1825 4091 
L 703 3866 
L 703 4441 
L 1819 4666 
L 2450 4666 
L 2450 531 
L 3481 531 
L 3481 0 
L 794 0 
L 794 531 
z
" id="DejaVuSans-31" transform="scale(0.015625)"/>
        <path d="M 313 2009 
L 1997 2009 
L 1997 1497 
L 313 1497 
L 313 2009 
z
" id="DejaVuSans-2d" transform="scale(0.015625)"/>
       </defs>
       <use xlink:href="#DejaVuSans-32"/>
       <use x="63.623047" xlink:href="#DejaVuSans-30"/>
       <use x="127.246094" xlink:href="#DejaVuSans-32"/>
       <use x="190.869141" xlink:href="#DejaVuSans-31"/>
       <use x="254.492188" xlink:href="#DejaVuSans-2d"/>
       <use x="290.576172" xlink:href="#DejaVuSans-31"/>
       <use x="354.199219" xlink:href="#DejaVuSans-32"/>
      </g>
     </g>
    </g>
    <g id="xtick_2">
     <g id="line2d_2">
      <g>
       <use style="stroke:#000000;stroke-width:0.8;" x="172.348589" xlink:href="#ma5dc0f0018" y="276.48"/>
      </g>
     </g>
     <g id="text_2">
      <!-- 2022-01 -->
      <g transform="translate(135.123769 310.951846)rotate(-30)scale(0.1 -0.1)">
       <use xlink:href="#DejaVuSans-32"/>
       <use x="63.623047" xlink:href="#DejaVuSans-30"/>
       <use x="127.246094" xlink:href="#DejaVuSans-32"/>
       <use x="190.869141" xlink:href="#DejaVuSans-32"/>
       <use x="254.492188" xlink:href="#DejaVuSans-2d"/>
       <use x="290.576172" xlink:href="#DejaVuSans-30"/>
       <use x="354.199219" xlink:href="#DejaVuSans-31"/>
      </g>
     </g>
    </g>
    <g id="xtick_3">
     <g id="line2d_3">
      <g>
       <use style="stroke:#000000;stroke-width:0.8;" x="241.757492" xlink:href="#ma5dc0f0018" y="276.48"/>
      </g>
     </g>
     <g id="text_3">
      <!-- 2022-02 -->
      <g transform="translate(204.532671 310.951846)rotate(-30)scale(0.1 -0.1)">
       <use xlink:href="#DejaVuSans-32"/>
       <use x="63.623047" xlink:href="#DejaVuSans-30"/>
       <use x="127.246094" xlink:href="#DejaVuSans-32"/>
       <use x="190.869141" xlink:href="#DejaVuSans-32"/>
       <use x="254.492188" xlink:href="#DejaVuSans-2d"/>
       <use x="290.576172" xlink:href="#DejaVuSans-30"/>
       <use x="354.199219" xlink:href="#DejaVuSans-32"/>
      </g>
     </g>
    </g>
    <g id="xtick_4">
     <g id="line2d_4">
      <g>
       <use style="stroke:#000000;stroke-width:0.8;" x="304.449404" xlink:href="#ma5dc0f0018" y="276.48"/>
      </g>
     </g>
     <g id="text_4">
      <!-- 2022-03 -->
      <g transform="translate(267.224584 310.951846)rotate(-30)scale(0.1 -0.1)">
       <defs>
        <path d="M 2597 2516 
Q 3050 2419 3304 2112 
Q 3559 1806 3559 1356 
Q 3559 666 3084 287 
Q 2609 -91 1734 -91 
Q 1441 -91 1130 -33 
Q 819 25 488 141 
L 488 750 
Q 750 597 1062 519 
Q 1375 441 1716 441 
Q 2309 441 2620 675 
Q 2931 909 2931 1356 
Q 2931 1769 2642 2001 
Q 2353 2234 1838 2234 
L 1294 2234 
L 1294 2753 
L 1863 2753 
Q 2328 2753 2575 2939 
Q 2822 3125 2822 3475 
Q 2822 3834 2567 4026 
Q 2313 4219 1838 4219 
Q 1578 4219 1281 4162 
Q 984 4106 628 3988 
L 628 4550 
Q 988 4650 1302 4700 
Q 1616 4750 1894 4750 
Q 2613 4750 3031 4423 
Q 3450 4097 3450 3541 
Q 3450 3153 3228 2886 
Q 3006 2619 2597 2516 
z
" id="DejaVuSans-33" transform="scale(0.015625)"/>
       </defs>
       <use xlink:href="#DejaVuSans-32"/>
       <use x="63.623047" xlink:href="#DejaVuSans-30"/>
       <use x="127.246094" xlink:href="#DejaVuSans-32"/>
       <use x="190.869141" xlink:href="#DejaVuSans-32"/>
       <use x="254.492188" xlink:href="#DejaVuSans-2d"/>
       <use x="290.576172" xlink:href="#DejaVuSans-30"/>
       <use x="354.199219" xlink:href="#DejaVuSans-33"/>
      </g>
     </g>
    </g>
    <g id="xtick_5">
     <g id="line2d_5">
      <g>
       <use style="stroke:#000000;stroke-width:0.8;" x="373.858307" xlink:href="#ma5dc0f0018" y="276.48"/>
      </g>
     </g>
     <g id="text_5">
      <!-- 2022-04 -->
      <g transform="translate(336.633486 310.951846)rotate(-30)scale(0.1 -0.1)">
       <defs>
        <path d="M 2419 4116 
L 825 1625 
L 2419 1625 
L 2419 4116 
z
M 2253 4666 
L 3047 4666 
L 3047 1625 
L 3713 1625 
L 3713 1100 
L 3047 1100 
L 3047 0 
L 2419 0 
L 2419 1100 
L 313 1100 
L 313 1709 
L 2253 4666 
z
" id="DejaVuSans-34" transform="scale(0.015625)"/>
       </defs>
       <use xlink:href="#DejaVuSans-32"/>
       <use x="63.623047" xlink:href="#DejaVuSans-30"/>
       <use x="127.246094" xlink:href="#DejaVuSans-32"/>
       <use x="190.869141" xlink:href="#DejaVuSans-32"/>
       <use x="254.492188" xlink:href="#DejaVuSans-2d"/>
       <use x="290.576172" xlink:href="#DejaVuSans-30"/>
       <use x="354.199219" xlink:href="#DejaVuSans-34"/>
      </g>
     </g>
    </g>
    <g id="text_6">
     <!-- date -->
     <g transform="translate(224.885 324.351346)scale(0.1 -0.1)">
      <defs>
       <path d="M 2906 2969 
L 2906 4863 
L 3481 4863 
L 3481 0 
L 2906 0 
L 2906 525 
Q 2725 213 2448 61 
Q 2172 -91 1784 -91 
Q 1150 -91 751 415 
Q 353 922 353 1747 
Q 353 2572 751 3078 
Q 1150 3584 1784 3584 
Q 2172 3584 2448 3432 
Q 2725 3281 2906 2969 
z
M 947 1747 
Q 947 1113 1208 752 
Q 1469 391 1925 391 
Q 2381 391 2643 752 
Q 2906 1113 2906 1747 
Q 2906 2381 2643 2742 
Q 2381 3103 1925 3103 
Q 1469 3103 1208 2742 
Q 947 2381 947 1747 
z
" id="DejaVuSans-64" transform="scale(0.015625)"/>
       <path d="M 2194 1759 
Q 1497 1759 1228 1600 
Q 959 1441 959 1056 
Q 959 750 1161 570 
Q 1363 391 1709 391 
Q 2188 391 2477 730 
Q 2766 1069 2766 1631 
L 2766 1759 
L 2194 1759 
z
M 3341 1997 
L 3341 0 
L 2766 0 
L 2766 531 
Q 2569 213 2275 61 
Q 1981 -91 1556 -91 
Q 1019 -91 701 211 
Q 384 513 384 1019 
Q 384 1609 779 1909 
Q 1175 2209 1959 2209 
L 2766 2209 
L 2766 2266 
Q 2766 2663 2505 2880 
Q 2244 3097 1772 3097 
Q 1472 3097 1187 3025 
Q 903 2953 641 2809 
L 641 3341 
Q 956 3463 1253 3523 
Q 1550 3584 1831 3584 
Q 2591 3584 2966 3190 
Q 3341 2797 3341 1997 
z
" id="DejaVuSans-61" transform="scale(0.015625)"/>
       <path d="M 1172 4494 
L 1172 3500 
L 2356 3500 
L 2356 3053 
L 1172 3053 
L 1172 1153 
Q 1172 725 1289 603 
Q 1406 481 1766 481 
L 2356 481 
L 2356 0 
L 1766 0 
Q 1100 0 847 248 
Q 594 497 594 1153 
L 594 3053 
L 172 3053 
L 172 3500 
L 594 3500 
L 594 4494 
L 1172 4494 
z
" id="DejaVuSans-74" transform="scale(0.015625)"/>
       <path d="M 3597 1894 
L 3597 1613 
L 953 1613 
Q 991 1019 1311 708 
Q 1631 397 2203 397 
Q 2534 397 2845 478 
Q 3156 559 3463 722 
L 3463 178 
Q 3153 47 2828 -22 
Q 2503 -91 2169 -91 
Q 1331 -91 842 396 
Q 353 884 353 1716 
Q 353 2575 817 3079 
Q 1281 3584 2069 3584 
Q 2775 3584 3186 3129 
Q 3597 2675 3597 1894 
z
M 3022 2063 
Q 3016 2534 2758 2815 
Q 2500 3097 2075 3097 
Q 1594 3097 1305 2825 
Q 1016 2553 972 2059 
L 3022 2063 
z
" id="DejaVuSans-65" transform="scale(0.015625)"/>
      </defs>
      <use xlink:href="#DejaVuSans-64"/>
      <use x="63.476562" xlink:href="#DejaVuSans-61"/>
      <use x="124.755859" xlink:href="#DejaVuSans-74"/>
      <use x="163.964844" xlink:href="#DejaVuSans-65"/>
     </g>
    </g>
   </g>
   <g id="matplotlib.axis_2">
    <g id="ytick_1">
     <g id="line2d_6">
      <defs>
       <path d="M 0 0 
L -3.5 0 
" id="m2048a4937b" style="stroke:#000000;stroke-width:0.8;"/>
      </defs>
      <g>
       <use style="stroke:#000000;stroke-width:0.8;" x="57.6" xlink:href="#m2048a4937b" y="257.390637"/>
      </g>
     </g>
     <g id="text_7">
      <!-- 92500 -->
      <g transform="translate(18.7875 261.189855)scale(0.1 -0.1)">
       <defs>
        <path d="M 703 97 
L 703 672 
Q 941 559 1184 500 
Q 1428 441 1663 441 
Q 2288 441 2617 861 
Q 2947 1281 2994 2138 
Q 2813 1869 2534 1725 
Q 2256 1581 1919 1581 
Q 1219 1581 811 2004 
Q 403 2428 403 3163 
Q 403 3881 828 4315 
Q 1253 4750 1959 4750 
Q 2769 4750 3195 4129 
Q 3622 3509 3622 2328 
Q 3622 1225 3098 567 
Q 2575 -91 1691 -91 
Q 1453 -91 1209 -44 
Q 966 3 703 97 
z
M 1959 2075 
Q 2384 2075 2632 2365 
Q 2881 2656 2881 3163 
Q 2881 3666 2632 3958 
Q 2384 4250 1959 4250 
Q 1534 4250 1286 3958 
Q 1038 3666 1038 3163 
Q 1038 2656 1286 2365 
Q 1534 2075 1959 2075 
z
" id="DejaVuSans-39" transform="scale(0.015625)"/>
        <path d="M 691 4666 
L 3169 4666 
L 3169 4134 
L 1269 4134 
L 1269 2991 
Q 1406 3038 1543 3061 
Q 1681 3084 1819 3084 
Q 2600 3084 3056 2656 
Q 3513 2228 3513 1497 
Q 3513 744 3044 326 
Q 2575 -91 1722 -91 
Q 1428 -91 1123 -41 
Q 819 9 494 109 
L 494 744 
Q 775 591 1075 516 
Q 1375 441 1709 441 
Q 2250 441 2565 725 
Q 2881 1009 2881 1497 
Q 2881 1984 2565 2268 
Q 2250 2553 1709 2553 
Q 1456 2553 1204 2497 
Q 953 2441 691 2322 
L 691 4666 
z
" id="DejaVuSans-35" transform="scale(0.015625)"/>
       </defs>
       <use xlink:href="#DejaVuSans-39"/>
       <use x="63.623047" xlink:href="#DejaVuSans-32"/>
       <use x="127.246094" xlink:href="#DejaVuSans-35"/>
       <use x="190.869141" xlink:href="#DejaVuSans-30"/>
       <use x="254.492188" xlink:href="#DejaVuSans-30"/>
      </g>
     </g>
    </g>
    <g id="ytick_2">
     <g id="line2d_7">
      <g>
       <use style="stroke:#000000;stroke-width:0.8;" x="57.6" xlink:href="#m2048a4937b" y="227.563008"/>
      </g>
     </g>
     <g id="text_8">
      <!-- 95000 -->
      <g transform="translate(18.7875 231.362226)scale(0.1 -0.1)">
       <use xlink:href="#DejaVuSans-39"/>
       <use x="63.623047" xlink:href="#DejaVuSans-35"/>
       <use x="127.246094" xlink:href="#DejaVuSans-30"/>
       <use x="190.869141" xlink:href="#DejaVuSans-30"/>
       <use x="254.492188" xlink:href="#DejaVuSans-30"/>
      </g>
     </g>
    </g>
    <g id="ytick_3">
     <g id="line2d_8">
      <g>
       <use style="stroke:#000000;stroke-width:0.8;" x="57.6" xlink:href="#m2048a4937b" y="197.735379"/>
      </g>
     </g>
     <g id="text_9">
      <!-- 97500 -->
      <g transform="translate(18.7875 201.534597)scale(0.1 -0.1)">
       <defs>
        <path d="M 525 4666 
L 3525 4666 
L 3525 4397 
L 1831 0 
L 1172 0 
L 2766 4134 
L 525 4134 
L 525 4666 
z
" id="DejaVuSans-37" transform="scale(0.015625)"/>
       </defs>
       <use xlink:href="#DejaVuSans-39"/>
       <use x="63.623047" xlink:href="#DejaVuSans-37"/>
       <use x="127.246094" xlink:href="#DejaVuSans-35"/>
       <use x="190.869141" xlink:href="#DejaVuSans-30"/>
       <use x="254.492188" xlink:href="#DejaVuSans-30"/>
      </g>
     </g>
    </g>
    <g id="ytick_4">
     <g id="line2d_9">
      <g>
       <use style="stroke:#000000;stroke-width:0.8;" x="57.6" xlink:href="#m2048a4937b" y="167.90775"/>
      </g>
     </g>
     <g id="text_10">
      <!-- 100000 -->
      <g transform="translate(12.425 171.706968)scale(0.1 -0.1)">
       <use xlink:href="#DejaVuSans-31"/>
       <use x="63.623047" xlink:href="#DejaVuSans-30"/>
       <use x="127.246094" xlink:href="#DejaVuSans-30"/>
       <use x="190.869141" xlink:href="#DejaVuSans-30"/>
       <use x="254.492188" xlink:href="#DejaVuSans-30"/>
       <use x="318.115234" xlink:href="#DejaVuSans-30"/>
      </g>
     </g>
    </g>
    <g id="ytick_5">
     <g id="line2d_10">
      <g>
       <use style="stroke:#000000;stroke-width:0.8;" x="57.6" xlink:href="#m2048a4937b" y="138.080121"/>
      </g>
     </g>
     <g id="text_11">
      <!-- 102500 -->
      <g transform="translate(12.425 141.879339)scale(0.1 -0.1)">
       <use xlink:href="#DejaVuSans-31"/>
       <use x="63.623047" xlink:href="#DejaVuSans-30"/>
       <use x="127.246094" xlink:href="#DejaVuSans-32"/>
       <use x="190.869141" xlink:href="#DejaVuSans-35"/>
       <use x="254.492188" xlink:href="#DejaVuSans-30"/>
       <use x="318.115234" xlink:href="#DejaVuSans-30"/>
      </g>
     </g>
    </g>
    <g id="ytick_6">
     <g id="line2d_11">
      <g>
       <use style="stroke:#000000;stroke-width:0.8;" x="57.6" xlink:href="#m2048a4937b" y="108.252492"/>
      </g>
     </g>
     <g id="text_12">
      <!-- 105000 -->
      <g transform="translate(12.425 112.05171)scale(0.1 -0.1)">
       <use xlink:href="#DejaVuSans-31"/>
       <use x="63.623047" xlink:href="#DejaVuSans-30"/>
       <use x="127.246094" xlink:href="#DejaVuSans-35"/>
       <use x="190.869141" xlink:href="#DejaVuSans-30"/>
       <use x="254.492188" xlink:href="#DejaVuSans-30"/>
       <use x="318.115234" xlink:href="#DejaVuSans-30"/>
      </g>
     </g>
    </g>
    <g id="ytick_7">
     <g id="line2d_12">
      <g>
       <use style="stroke:#000000;stroke-width:0.8;" x="57.6" xlink:href="#m2048a4937b" y="78.424863"/>
      </g>
     </g>
     <g id="text_13">
      <!-- 107500 -->
      <g transform="translate(12.425 82.224081)scale(0.1 -0.1)">
       <use xlink:href="#DejaVuSans-31"/>
       <use x="63.623047" xlink:href="#DejaVuSans-30"/>
       <use x="127.246094" xlink:href="#DejaVuSans-37"/>
       <use x="190.869141" xlink:href="#DejaVuSans-35"/>
       <use x="254.492188" xlink:href="#DejaVuSans-30"/>
       <use x="318.115234" xlink:href="#DejaVuSans-30"/>
      </g>
     </g>
    </g>
    <g id="ytick_8">
     <g id="line2d_13">
      <g>
       <use style="stroke:#000000;stroke-width:0.8;" x="57.6" xlink:href="#m2048a4937b" y="48.597234"/>
      </g>
     </g>
     <g id="text_14">
      <!-- 110000 -->
      <g transform="translate(12.425 52.396452)scale(0.1 -0.1)">
       <use xlink:href="#DejaVuSans-31"/>
       <use x="63.623047" xlink:href="#DejaVuSans-31"/>
       <use x="127.246094" xlink:href="#DejaVuSans-30"/>
       <use x="190.869141" xlink:href="#DejaVuSans-30"/>
       <use x="254.492188" xlink:href="#DejaVuSans-30"/>
       <use x="318.115234" xlink:href="#DejaVuSans-30"/>
      </g>
     </g>
    </g>
   </g>
   <g id="line2d_14">
    <path clip-path="url(#pf3f71a455f)" d="M 73.832727 52.154182 
L 76.071724 59.607314 
L 82.788715 65.092164 
L 85.027712 65.914795 
L 87.266708 60.74203 
L 91.744702 60.537463 
L 98.461693 84.210442 
L 100.70069 113.379828 
L 102.939687 135.862719 
L 105.178683 110.270397 
L 107.41768 124.904574 
L 114.134671 108.85692 
L 116.373668 81.140712 
L 118.612665 73.824072 
L 120.851661 91.389399 
L 123.090658 87.541345 
L 129.807649 99.021389 
L 132.046646 108.385015 
L 134.285643 90.998641 
L 136.524639 104.408985 
L 138.763636 108.581347 
L 145.480627 124.735012 
L 147.719624 96.377413 
L 149.958621 86.63344 
L 152.197618 76.873792 
L 161.153605 67.926068 
L 163.392602 70.108975 
L 165.631599 67.227391 
L 167.870596 68.238777 
L 170.109592 69.762063 
L 176.826583 67.767247 
L 179.06558 67.273363 
L 181.304577 100.500353 
L 183.543574 97.871314 
L 185.782571 105.453628 
L 192.499561 108.844526 
L 194.738558 94.678396 
L 196.977555 96.109137 
L 199.216552 111.24906 
L 201.455549 113.283187 
L 210.411536 141.760698 
L 212.650533 154.311628 
L 214.88953 170.049922 
L 217.128527 192.104031 
L 223.845517 179.338611 
L 226.084514 197.673059 
L 228.323511 206.240402 
L 230.562508 219.539444 
L 232.801505 193.446516 
L 239.518495 164.682975 
L 241.757492 152.651011 
L 243.996489 149.395788 
L 246.235486 174.578078 
L 248.474483 168.28672 
L 255.191473 167.365454 
L 257.43047 153.810164 
L 259.669467 131.031222 
L 261.908464 150.62235 
L 264.147461 170.445491 
L 270.864451 177.847131 
L 273.103448 153.353897 
L 275.342445 152.643351 
L 277.581442 181.420102 
L 279.820439 190.760891 
L 288.776426 204.822952 
L 291.015423 227.364197 
L 293.25442 203.528249 
L 295.493417 176.581986 
L 302.210408 176.189429 
L 304.449404 196.324928 
L 306.688401 172.495542 
L 308.927398 183.495689 
L 311.166395 197.271127 
L 317.883386 233.785092 
L 320.122382 237.182289 
L 322.361379 206.148547 
L 324.600376 209.548871 
L 326.839373 227.661322 
L 333.556364 240.823814 
L 335.795361 219.877371 
L 338.034357 189.022637 
L 340.273354 170.765888 
L 342.512351 155.703905 
L 349.229342 159.963656 
L 351.468339 147.596475 
L 353.707335 167.654985 
L 355.946332 151.770214 
L 358.185329 147.51778 
L 364.90232 142.629921 
L 367.141317 119.330821 
L 369.380313 132.876063 
L 371.61931 148.819526 
L 373.858307 142.197812 
L 380.575298 135.463309 
L 382.814295 155.319169 
L 385.053292 168.200446 
L 387.292288 166.163371 
L 389.531285 169.116865 
L 396.248276 182.359397 
L 398.487273 180.08645 
" style="fill:none;stroke:#0000ff;stroke-linecap:square;stroke-opacity:0.9;stroke-width:2;"/>
   </g>
   <g id="line2d_15">
    <path clip-path="url(#pf3f71a455f)" d="M 73.832727 52.154182 
L 76.071724 59.056668 
L 82.788715 65.628509 
L 85.027712 65.911937 
L 87.266708 60.285051 
L 91.744702 93.057341 
L 98.461693 83.882066 
L 100.70069 113.080524 
L 102.939687 136.837053 
L 105.178683 110.166555 
L 107.41768 124.964224 
L 114.134671 108.332561 
L 116.373668 80.639233 
L 118.612665 73.096287 
L 120.851661 91.145879 
L 123.090658 87.480614 
L 129.807649 98.085555 
L 132.046646 108.718064 
L 134.285643 91.666542 
L 136.524639 104.408543 
L 138.763636 108.499556 
L 145.480627 125.11717 
L 147.719624 96.198225 
L 149.958621 86.898045 
L 152.197618 77.222808 
L 161.153605 67.448419 
L 163.392602 70.404951 
L 165.631599 67.319092 
L 167.870596 68.037947 
L 170.109592 70.239709 
L 176.826583 67.731476 
L 179.06558 67.634845 
L 181.304577 99.477906 
L 183.543574 96.357772 
L 185.782571 103.698961 
L 192.499561 107.22057 
L 194.738558 94.414748 
L 196.977555 94.455407 
L 199.216552 109.272645 
L 201.455549 111.395787 
L 210.411536 139.036803 
L 212.650533 152.361369 
L 214.88953 168.122512 
L 217.128527 189.042273 
L 223.845517 176.817631 
L 226.084514 194.509822 
L 228.323511 203.751688 
L 230.562508 215.247332 
L 232.801505 189.987623 
L 239.518495 161.76784 
L 241.757492 150.589945 
L 243.996489 147.821726 
L 246.235486 171.718581 
L 248.474483 165.417861 
L 255.191473 164.897664 
L 257.43047 151.730556 
L 259.669467 129.481521 
L 261.908464 148.279086 
L 264.147461 168.742881 
L 270.864451 175.637892 
L 273.103448 151.894952 
L 275.342445 149.901349 
L 277.581442 177.95599 
L 279.820439 187.613652 
L 288.776426 201.908175 
L 291.015423 222.711831 
L 293.25442 201.657264 
L 295.493417 173.872343 
L 302.210408 173.925781 
L 304.449404 194.173005 
L 306.688401 170.598571 
L 308.927398 180.369021 
L 311.166395 192.634631 
L 317.883386 229.71516 
L 320.122382 233.798227 
L 322.361379 203.053162 
L 324.600376 206.158603 
L 326.839373 222.724132 
L 333.556364 235.464603 
L 335.795361 215.508158 
L 338.034357 184.843574 
L 340.273354 167.203872 
L 342.512351 153.703487 
L 349.229342 157.734653 
L 351.468339 145.571922 
L 353.707335 165.136356 
L 355.946332 149.879677 
L 358.185329 144.481373 
L 364.90232 140.736866 
L 367.141317 117.641653 
L 369.380313 130.87066 
L 371.61931 147.594428 
L 373.858307 139.805568 
L 380.575298 134.00298 
L 382.814295 153.74992 
L 385.053292 165.05186 
L 387.292288 163.850201 
L 389.531285 166.124081 
L 396.248276 179.049451 
L 398.487273 180.79181 
" style="fill:none;stroke:#ff0000;stroke-linecap:square;stroke-opacity:0.9;stroke-width:2;"/>
   </g>
   <g id="line2d_16">
    <path clip-path="url(#pf3f71a455f)" d="M 73.832727 52.154182 
L 76.071724 58.863848 
L 82.788715 64.812473 
L 85.027712 65.460259 
L 87.266708 60.42878 
L 91.744702 93.346452 
L 98.461693 83.609243 
L 100.70069 113.536608 
L 102.939687 136.859992 
L 105.178683 109.90416 
L 107.41768 124.237339 
L 114.134671 108.413 
L 116.373668 80.974489 
L 118.612665 73.842524 
L 120.851661 90.681432 
L 123.090658 86.932236 
L 129.807649 98.02972 
L 132.046646 108.790743 
L 134.285643 91.609662 
L 136.524639 104.984002 
L 138.763636 107.484499 
L 145.480627 125.414291 
L 147.719624 96.392994 
L 149.958621 86.05009 
L 152.197618 76.526947 
L 161.153605 67.064317 
L 163.392602 69.587702 
L 165.631599 66.8699 
L 167.870596 68.228358 
L 170.109592 69.949586 
L 176.826583 67.613058 
L 179.06558 67.509575 
L 181.304577 99.668884 
L 183.543574 96.844423 
L 185.782571 104.505403 
L 192.499561 108.595408 
L 194.738558 94.809026 
L 196.977555 95.040493 
L 199.216552 111.058671 
L 201.455549 113.02705 
L 210.411536 141.047498 
L 212.650533 153.446912 
L 214.88953 169.461863 
L 217.128527 191.999155 
L 223.845517 178.389526 
L 226.084514 196.572821 
L 228.323511 205.692569 
L 230.562508 218.849266 
L 232.801505 192.980895 
L 239.518495 163.678723 
L 241.757492 152.455804 
L 243.996489 149.885216 
L 246.235486 174.008561 
L 248.474483 167.23067 
L 255.191473 167.235579 
L 257.43047 152.959161 
L 259.669467 130.767172 
L 261.908464 150.122938 
L 264.147461 170.103049 
L 270.864451 177.385363 
L 273.103448 153.485221 
L 275.342445 151.039765 
L 277.581442 179.809031 
L 279.820439 190.107622 
L 288.776426 203.572272 
L 291.015423 225.632722 
L 293.25442 202.812016 
L 295.493417 174.540188 
L 302.210408 175.918085 
L 304.449404 194.867074 
L 306.688401 171.984335 
L 308.927398 182.471201 
L 311.166395 195.613934 
L 317.883386 233.127787 
L 320.122382 236.5379 
L 322.361379 205.426466 
L 324.600376 208.573711 
L 326.839373 226.488877 
L 333.556364 239.010304 
L 335.795361 219.054964 
L 338.034357 187.752397 
L 340.273354 169.191217 
L 342.512351 155.489592 
L 349.229342 158.633832 
L 351.468339 145.45721 
L 353.707335 166.08165 
L 355.946332 151.124539 
L 358.185329 146.832826 
L 364.90232 142.207309 
L 367.141317 117.502599 
L 369.380313 131.338393 
L 371.61931 147.804587 
L 373.858307 140.794905 
L 380.575298 134.285293 
L 382.814295 153.429878 
L 385.053292 166.336134 
L 387.292288 165.035262 
L 389.531285 168.342838 
L 396.248276 180.430723 
L 398.487273 183.316937 
" style="fill:none;stroke:#008000;stroke-linecap:square;stroke-opacity:0.9;stroke-width:2;"/>
   </g>
   <g id="line2d_17">
    <path clip-path="url(#pf3f71a455f)" d="M 73.832727 52.154182 
L 76.071724 59.222074 
L 82.788715 64.428137 
L 85.027712 65.972705 
L 87.266708 60.898747 
L 91.744702 92.453747 
L 98.461693 84.276974 
L 100.70069 113.085406 
L 102.939687 136.051056 
L 105.178683 109.536831 
L 107.41768 125.181817 
L 114.134671 108.181433 
L 116.373668 80.417184 
L 118.612665 73.509108 
L 120.851661 91.320209 
L 123.090658 87.252305 
L 129.807649 99.043685 
L 132.046646 109.310164 
L 134.285643 91.19098 
L 136.524639 104.93544 
L 138.763636 108.562419 
L 145.480627 124.874775 
L 147.719624 96.377644 
L 149.958621 86.579358 
L 152.197618 76.937178 
L 161.153605 66.411278 
L 163.392602 69.800193 
L 165.631599 67.537275 
L 167.870596 68.72641 
L 170.109592 69.441183 
L 176.826583 67.799161 
L 179.06558 67.846938 
L 181.304577 99.999529 
L 183.543574 96.754477 
L 185.782571 105.493816 
L 192.499561 108.235898 
L 194.738558 95.19771 
L 196.977555 95.866345 
L 199.216552 111.483877 
L 201.455549 112.835012 
L 210.411536 141.441335 
L 212.650533 153.603976 
L 214.88953 169.728511 
L 217.128527 192.65529 
L 223.845517 178.901733 
L 226.084514 197.020893 
L 228.323511 206.02728 
L 230.562508 218.60633 
L 232.801505 192.403995 
L 239.518495 163.967763 
L 241.757492 152.316342 
L 243.996489 149.748953 
L 246.235486 174.978505 
L 248.474483 167.529921 
L 255.191473 167.103486 
L 257.43047 153.888392 
L 259.669467 130.130229 
L 261.908464 150.291822 
L 264.147461 170.407671 
L 270.864451 177.7791 
L 273.103448 152.901862 
L 275.342445 151.397617 
L 277.581442 180.711835 
L 279.820439 189.498197 
L 288.776426 203.847234 
L 291.015423 225.962967 
L 293.25442 203.168069 
L 295.493417 175.031535 
L 302.210408 175.947683 
L 304.449404 195.698539 
L 306.688401 172.313037 
L 308.927398 182.610673 
L 311.166395 196.002401 
L 317.883386 233.938714 
L 320.122382 236.352601 
L 322.361379 206.138024 
L 324.600376 209.576677 
L 326.839373 226.889776 
L 333.556364 239.367272 
L 335.795361 218.520027 
L 338.034357 187.342392 
L 340.273354 169.923791 
L 342.512351 155.336938 
L 349.229342 158.803184 
L 351.468339 147.056534 
L 353.707335 166.561945 
L 355.946332 150.624583 
L 358.185329 147.263776 
L 364.90232 141.941359 
L 367.141317 117.900435 
L 369.380313 131.527057 
L 371.61931 148.284664 
L 373.858307 141.026804 
L 380.575298 134.316218 
L 382.814295 154.402405 
L 385.053292 167.046801 
L 387.292288 164.910016 
L 389.531285 168.470441 
L 396.248276 181.858105 
L 398.487273 183.879527 
" style="fill:none;stroke:#ec5283;stroke-linecap:square;stroke-width:2;"/>
   </g>
   <g id="line2d_18">
    <path clip-path="url(#pf3f71a455f)" d="M 73.832727 52.154182 
L 76.071724 59.02577 
L 82.788715 64.353316 
L 85.027712 65.302916 
L 87.266708 60.690037 
L 91.744702 92.622432 
L 98.461693 84.284219 
L 100.70069 112.722319 
L 102.939687 135.912554 
L 105.178683 108.711168 
L 107.41768 124.646049 
L 114.134671 108.596401 
L 116.373668 80.704119 
L 118.612665 72.639264 
L 120.851661 91.059745 
L 123.090658 87.195658 
L 129.807649 98.256279 
L 132.046646 108.890966 
L 134.285643 91.038242 
L 136.524639 104.994889 
L 138.763636 107.8631 
L 145.480627 124.098436 
L 147.719624 96.011772 
L 149.958621 86.162566 
L 152.197618 76.347389 
L 161.153605 66.445596 
L 163.392602 70.59532 
L 165.631599 67.054804 
L 167.870596 68.621989 
L 170.109592 69.311762 
L 176.826583 67.776841 
L 179.06558 66.662085 
L 181.304577 100.361725 
L 183.543574 97.08773 
L 185.782571 104.488421 
L 192.499561 108.145365 
L 194.738558 94.407934 
L 196.977555 95.47202 
L 199.216552 110.533687 
L 201.455549 113.335038 
L 210.411536 139.969663 
L 212.650533 153.849825 
L 214.88953 168.67136 
L 217.128527 191.592908 
L 223.845517 178.229081 
L 226.084514 195.59976 
L 228.323511 205.248034 
L 230.562508 218.343072 
L 232.801505 191.989357 
L 239.518495 163.262807 
L 241.757492 151.602823 
L 243.996489 148.851072 
L 246.235486 173.742102 
L 248.474483 166.840459 
L 255.191473 166.777303 
L 257.43047 153.464297 
L 259.669467 129.290929 
L 261.908464 148.620208 
L 264.147461 169.130513 
L 270.864451 176.368 
L 273.103448 152.844138 
L 275.342445 150.690278 
L 277.581442 179.158753 
L 279.820439 189.365252 
L 288.776426 203.314441 
L 291.015423 225.637286 
L 293.25442 202.844192 
L 295.493417 174.88133 
L 302.210408 175.095052 
L 304.449404 194.879666 
L 306.688401 170.342502 
L 308.927398 181.665942 
L 311.166395 195.496866 
L 317.883386 231.99893 
L 320.122382 235.705467 
L 322.361379 204.336399 
L 324.600376 208.573786 
L 326.839373 225.869732 
L 333.556364 238.316255 
L 335.795361 217.9063 
L 338.034357 186.285337 
L 340.273354 168.342054 
L 342.512351 154.957504 
L 349.229342 157.983974 
L 351.468339 145.367439 
L 353.707335 165.520201 
L 355.946332 150.69993 
L 358.185329 145.823366 
L 364.90232 141.320709 
L 367.141317 117.976291 
L 369.380313 130.88742 
L 371.61931 147.076059 
L 373.858307 140.736566 
L 380.575298 134.464446 
L 382.814295 153.122063 
L 385.053292 165.668699 
L 387.292288 164.611533 
L 389.531285 167.355506 
L 396.248276 180.745465 
L 398.487273 183.608977 
" style="fill:none;stroke:#00ff00;stroke-linecap:square;stroke-opacity:0.9;stroke-width:2;"/>
   </g>
   <g id="line2d_19">
    <path clip-path="url(#pf3f71a455f)" d="M 73.832727 52.154182 
L 76.071724 60.512461 
L 82.788715 66.863347 
L 85.027712 68.487872 
L 87.266708 62.19463 
L 91.744702 93.824688 
L 98.461693 87.864288 
L 100.70069 118.103084 
L 102.939687 142.169512 
L 105.178683 112.284939 
L 107.41768 128.528934 
L 114.134671 111.087608 
L 116.373668 81.820291 
L 118.612665 72.728189 
L 120.851661 94.70585 
L 123.090658 93.510454 
L 129.807649 104.065015 
L 132.046646 113.884609 
L 134.285643 97.195463 
L 136.524639 112.105826 
L 138.763636 110.232677 
L 145.480627 127.697535 
L 147.719624 96.3809 
L 149.958621 86.363522 
L 152.197618 77.480331 
L 161.153605 63.827633 
L 163.392602 67.266379 
L 165.631599 64.224744 
L 167.870596 63.096327 
L 170.109592 64.720622 
L 176.826583 62.709723 
L 179.06558 65.209937 
L 181.304577 104.610981 
L 183.543574 104.029642 
L 185.782571 116.730067 
L 192.499561 118.97377 
L 194.738558 104.223524 
L 196.977555 105.027856 
L 199.216552 128.487609 
L 201.455549 132.206771 
L 210.411536 163.665552 
L 212.650533 174.989064 
L 214.88953 189.914564 
L 217.128527 212.98038 
L 223.845517 195.92108 
L 226.084514 220.569955 
L 228.323511 230.264181 
L 230.562508 244.743625 
L 232.801505 215.004223 
L 239.518495 179.56923 
L 241.757492 166.981046 
L 243.996489 166.839856 
L 246.235486 193.41678 
L 248.474483 184.262262 
L 255.191473 183.916746 
L 257.43047 170.391661 
L 259.669467 145.801552 
L 261.908464 165.723272 
L 264.147461 187.042601 
L 270.864451 192.651727 
L 273.103448 167.440943 
L 275.342445 167.911533 
L 277.581442 199.364819 
L 279.820439 211.160279 
L 288.776426 225.011584 
L 291.015423 248.518903 
L 293.25442 219.68852 
L 295.493417 195.140631 
L 302.210408 193.787804 
L 304.449404 212.141515 
L 306.688401 190.525924 
L 308.927398 203.726002 
L 311.166395 218.090423 
L 317.883386 255.717422 
L 320.122382 259.769587 
L 322.361379 225.915573 
L 324.600376 232.285172 
L 326.839373 251.608832 
L 333.556364 265.797818 
L 335.795361 243.066768 
L 338.034357 208.647091 
L 340.273354 189.070601 
L 342.512351 172.797149 
L 349.229342 177.081476 
L 351.468339 163.046541 
L 353.707335 180.026818 
L 355.946332 163.173684 
L 358.185329 161.342095 
L 364.90232 155.438768 
L 367.141317 127.312925 
L 369.380313 142.567622 
L 371.61931 158.399117 
L 373.858307 150.321997 
L 380.575298 143.864885 
L 382.814295 164.131149 
L 385.053292 176.36092 
L 387.292288 175.652745 
L 389.531285 179.888558 
L 396.248276 191.839792 
L 398.487273 193.750679 
" style="fill:none;stroke:#a5b9cf;stroke-linecap:square;stroke-width:2;"/>
   </g>
   <g id="patch_3">
    <path d="M 57.6 276.48 
L 57.6 41.472 
" style="fill:none;stroke:#000000;stroke-linecap:square;stroke-linejoin:miter;stroke-width:0.8;"/>
   </g>
   <g id="patch_4">
    <path d="M 414.72 276.48 
L 414.72 41.472 
" style="fill:none;stroke:#000000;stroke-linecap:square;stroke-linejoin:miter;stroke-width:0.8;"/>
   </g>
   <g id="patch_5">
    <path d="M 57.6 276.48 
L 414.72 276.48 
" style="fill:none;stroke:#000000;stroke-linecap:square;stroke-linejoin:miter;stroke-width:0.8;"/>
   </g>
   <g id="patch_6">
    <path d="M 57.6 41.472 
L 414.72 41.472 
" style="fill:none;stroke:#000000;stroke-linecap:square;stroke-linejoin:miter;stroke-width:0.8;"/>
   </g>
   <g id="text_15">
    <!-- SCHMOO -->
    <g transform="translate(209.025937 22.034625)scale(0.12 -0.12)">
     <defs>
      <path d="M 3425 4513 
L 3425 3897 
Q 3066 4069 2747 4153 
Q 2428 4238 2131 4238 
Q 1616 4238 1336 4038 
Q 1056 3838 1056 3469 
Q 1056 3159 1242 3001 
Q 1428 2844 1947 2747 
L 2328 2669 
Q 3034 2534 3370 2195 
Q 3706 1856 3706 1288 
Q 3706 609 3251 259 
Q 2797 -91 1919 -91 
Q 1588 -91 1214 -16 
Q 841 59 441 206 
L 441 856 
Q 825 641 1194 531 
Q 1563 422 1919 422 
Q 2459 422 2753 634 
Q 3047 847 3047 1241 
Q 3047 1584 2836 1778 
Q 2625 1972 2144 2069 
L 1759 2144 
Q 1053 2284 737 2584 
Q 422 2884 422 3419 
Q 422 4038 858 4394 
Q 1294 4750 2059 4750 
Q 2388 4750 2728 4690 
Q 3069 4631 3425 4513 
z
" id="DejaVuSans-53" transform="scale(0.015625)"/>
      <path d="M 4122 4306 
L 4122 3641 
Q 3803 3938 3442 4084 
Q 3081 4231 2675 4231 
Q 1875 4231 1450 3742 
Q 1025 3253 1025 2328 
Q 1025 1406 1450 917 
Q 1875 428 2675 428 
Q 3081 428 3442 575 
Q 3803 722 4122 1019 
L 4122 359 
Q 3791 134 3420 21 
Q 3050 -91 2638 -91 
Q 1578 -91 968 557 
Q 359 1206 359 2328 
Q 359 3453 968 4101 
Q 1578 4750 2638 4750 
Q 3056 4750 3426 4639 
Q 3797 4528 4122 4306 
z
" id="DejaVuSans-43" transform="scale(0.015625)"/>
      <path d="M 628 4666 
L 1259 4666 
L 1259 2753 
L 3553 2753 
L 3553 4666 
L 4184 4666 
L 4184 0 
L 3553 0 
L 3553 2222 
L 1259 2222 
L 1259 0 
L 628 0 
L 628 4666 
z
" id="DejaVuSans-48" transform="scale(0.015625)"/>
      <path d="M 628 4666 
L 1569 4666 
L 2759 1491 
L 3956 4666 
L 4897 4666 
L 4897 0 
L 4281 0 
L 4281 4097 
L 3078 897 
L 2444 897 
L 1241 4097 
L 1241 0 
L 628 0 
L 628 4666 
z
" id="DejaVuSans-4d" transform="scale(0.015625)"/>
      <path d="M 2522 4238 
Q 1834 4238 1429 3725 
Q 1025 3213 1025 2328 
Q 1025 1447 1429 934 
Q 1834 422 2522 422 
Q 3209 422 3611 934 
Q 4013 1447 4013 2328 
Q 4013 3213 3611 3725 
Q 3209 4238 2522 4238 
z
M 2522 4750 
Q 3503 4750 4090 4092 
Q 4678 3434 4678 2328 
Q 4678 1225 4090 567 
Q 3503 -91 2522 -91 
Q 1538 -91 948 565 
Q 359 1222 359 2328 
Q 359 3434 948 4092 
Q 1538 4750 2522 4750 
z
" id="DejaVuSans-4f" transform="scale(0.015625)"/>
     </defs>
     <use xlink:href="#DejaVuSans-53"/>
     <use x="63.476562" xlink:href="#DejaVuSans-43"/>
     <use x="133.300781" xlink:href="#DejaVuSans-48"/>
     <use x="208.496094" xlink:href="#DejaVuSans-4d"/>
     <use x="294.775391" xlink:href="#DejaVuSans-4f"/>
     <use x="373.486328" xlink:href="#DejaVuSans-4f"/>
    </g>
    <!-- daily_report -->
    <g transform="translate(200.466563 35.472)scale(0.12 -0.12)">
     <defs>
      <path d="M 603 3500 
L 1178 3500 
L 1178 0 
L 603 0 
L 603 3500 
z
M 603 4863 
L 1178 4863 
L 1178 4134 
L 603 4134 
L 603 4863 
z
" id="DejaVuSans-69" transform="scale(0.015625)"/>
      <path d="M 603 4863 
L 1178 4863 
L 1178 0 
L 603 0 
L 603 4863 
z
" id="DejaVuSans-6c" transform="scale(0.015625)"/>
      <path d="M 2059 -325 
Q 1816 -950 1584 -1140 
Q 1353 -1331 966 -1331 
L 506 -1331 
L 506 -850 
L 844 -850 
Q 1081 -850 1212 -737 
Q 1344 -625 1503 -206 
L 1606 56 
L 191 3500 
L 800 3500 
L 1894 763 
L 2988 3500 
L 3597 3500 
L 2059 -325 
z
" id="DejaVuSans-79" transform="scale(0.015625)"/>
      <path d="M 3263 -1063 
L 3263 -1509 
L -63 -1509 
L -63 -1063 
L 3263 -1063 
z
" id="DejaVuSans-5f" transform="scale(0.015625)"/>
      <path d="M 2631 2963 
Q 2534 3019 2420 3045 
Q 2306 3072 2169 3072 
Q 1681 3072 1420 2755 
Q 1159 2438 1159 1844 
L 1159 0 
L 581 0 
L 581 3500 
L 1159 3500 
L 1159 2956 
Q 1341 3275 1631 3429 
Q 1922 3584 2338 3584 
Q 2397 3584 2469 3576 
Q 2541 3569 2628 3553 
L 2631 2963 
z
" id="DejaVuSans-72" transform="scale(0.015625)"/>
      <path d="M 1159 525 
L 1159 -1331 
L 581 -1331 
L 581 3500 
L 1159 3500 
L 1159 2969 
Q 1341 3281 1617 3432 
Q 1894 3584 2278 3584 
Q 2916 3584 3314 3078 
Q 3713 2572 3713 1747 
Q 3713 922 3314 415 
Q 2916 -91 2278 -91 
Q 1894 -91 1617 61 
Q 1341 213 1159 525 
z
M 3116 1747 
Q 3116 2381 2855 2742 
Q 2594 3103 2138 3103 
Q 1681 3103 1420 2742 
Q 1159 2381 1159 1747 
Q 1159 1113 1420 752 
Q 1681 391 2138 391 
Q 2594 391 2855 752 
Q 3116 1113 3116 1747 
z
" id="DejaVuSans-70" transform="scale(0.015625)"/>
      <path d="M 1959 3097 
Q 1497 3097 1228 2736 
Q 959 2375 959 1747 
Q 959 1119 1226 758 
Q 1494 397 1959 397 
Q 2419 397 2687 759 
Q 2956 1122 2956 1747 
Q 2956 2369 2687 2733 
Q 2419 3097 1959 3097 
z
M 1959 3584 
Q 2709 3584 3137 3096 
Q 3566 2609 3566 1747 
Q 3566 888 3137 398 
Q 2709 -91 1959 -91 
Q 1206 -91 779 398 
Q 353 888 353 1747 
Q 353 2609 779 3096 
Q 1206 3584 1959 3584 
z
" id="DejaVuSans-6f" transform="scale(0.015625)"/>
     </defs>
     <use xlink:href="#DejaVuSans-64"/>
     <use x="63.476562" xlink:href="#DejaVuSans-61"/>
     <use x="124.755859" xlink:href="#DejaVuSans-69"/>
     <use x="152.539062" xlink:href="#DejaVuSans-6c"/>
     <use x="180.322266" xlink:href="#DejaVuSans-79"/>
     <use x="239.501953" xlink:href="#DejaVuSans-5f"/>
     <use x="289.501953" xlink:href="#DejaVuSans-72"/>
     <use x="328.365234" xlink:href="#DejaVuSans-65"/>
     <use x="389.888672" xlink:href="#DejaVuSans-70"/>
     <use x="453.365234" xlink:href="#DejaVuSans-6f"/>
     <use x="514.546875" xlink:href="#DejaVuSans-72"/>
     <use x="555.660156" xlink:href="#DejaVuSans-74"/>
    </g>
   </g>
   <g id="legend_1">
    <g id="patch_7">
     <path d="M 64.6 271.48 
L 178.64375 271.48 
Q 180.64375 271.48 180.64375 269.48 
L 180.64375 182.41125 
Q 180.64375 180.41125 178.64375 180.41125 
L 64.6 180.41125 
Q 62.6 180.41125 62.6 182.41125 
L 62.6 269.48 
Q 62.6 271.48 64.6 271.48 
z
" style="fill:#ffffff;opacity:0.8;stroke:#cccccc;stroke-linejoin:miter;"/>
    </g>
    <g id="line2d_20">
     <path d="M 66.6 188.509687 
L 86.6 188.509687 
" style="fill:none;stroke:#0000ff;stroke-linecap:square;stroke-opacity:0.9;stroke-width:2;"/>
    </g>
    <g id="line2d_21"/>
    <g id="text_16">
     <!-- alpaca -->
     <g transform="translate(94.6 192.009687)scale(0.1 -0.1)">
      <defs>
       <path d="M 3122 3366 
L 3122 2828 
Q 2878 2963 2633 3030 
Q 2388 3097 2138 3097 
Q 1578 3097 1268 2742 
Q 959 2388 959 1747 
Q 959 1106 1268 751 
Q 1578 397 2138 397 
Q 2388 397 2633 464 
Q 2878 531 3122 666 
L 3122 134 
Q 2881 22 2623 -34 
Q 2366 -91 2075 -91 
Q 1284 -91 818 406 
Q 353 903 353 1747 
Q 353 2603 823 3093 
Q 1294 3584 2113 3584 
Q 2378 3584 2631 3529 
Q 2884 3475 3122 3366 
z
" id="DejaVuSans-63" transform="scale(0.015625)"/>
      </defs>
      <use xlink:href="#DejaVuSans-61"/>
      <use x="61.279297" xlink:href="#DejaVuSans-6c"/>
      <use x="89.0625" xlink:href="#DejaVuSans-70"/>
      <use x="152.539062" xlink:href="#DejaVuSans-61"/>
      <use x="213.818359" xlink:href="#DejaVuSans-63"/>
      <use x="268.798828" xlink:href="#DejaVuSans-61"/>
     </g>
    </g>
    <g id="line2d_22">
     <path d="M 66.6 203.187812 
L 86.6 203.187812 
" style="fill:none;stroke:#ff0000;stroke-linecap:square;stroke-opacity:0.9;stroke-width:2;"/>
    </g>
    <g id="line2d_23"/>
    <g id="text_17">
     <!-- mattress -->
     <g transform="translate(94.6 206.687812)scale(0.1 -0.1)">
      <defs>
       <path d="M 3328 2828 
Q 3544 3216 3844 3400 
Q 4144 3584 4550 3584 
Q 5097 3584 5394 3201 
Q 5691 2819 5691 2113 
L 5691 0 
L 5113 0 
L 5113 2094 
Q 5113 2597 4934 2840 
Q 4756 3084 4391 3084 
Q 3944 3084 3684 2787 
Q 3425 2491 3425 1978 
L 3425 0 
L 2847 0 
L 2847 2094 
Q 2847 2600 2669 2842 
Q 2491 3084 2119 3084 
Q 1678 3084 1418 2786 
Q 1159 2488 1159 1978 
L 1159 0 
L 581 0 
L 581 3500 
L 1159 3500 
L 1159 2956 
Q 1356 3278 1631 3431 
Q 1906 3584 2284 3584 
Q 2666 3584 2933 3390 
Q 3200 3197 3328 2828 
z
" id="DejaVuSans-6d" transform="scale(0.015625)"/>
       <path d="M 2834 3397 
L 2834 2853 
Q 2591 2978 2328 3040 
Q 2066 3103 1784 3103 
Q 1356 3103 1142 2972 
Q 928 2841 928 2578 
Q 928 2378 1081 2264 
Q 1234 2150 1697 2047 
L 1894 2003 
Q 2506 1872 2764 1633 
Q 3022 1394 3022 966 
Q 3022 478 2636 193 
Q 2250 -91 1575 -91 
Q 1294 -91 989 -36 
Q 684 19 347 128 
L 347 722 
Q 666 556 975 473 
Q 1284 391 1588 391 
Q 1994 391 2212 530 
Q 2431 669 2431 922 
Q 2431 1156 2273 1281 
Q 2116 1406 1581 1522 
L 1381 1569 
Q 847 1681 609 1914 
Q 372 2147 372 2553 
Q 372 3047 722 3315 
Q 1072 3584 1716 3584 
Q 2034 3584 2315 3537 
Q 2597 3491 2834 3397 
z
" id="DejaVuSans-73" transform="scale(0.015625)"/>
      </defs>
      <use xlink:href="#DejaVuSans-6d"/>
      <use x="97.412109" xlink:href="#DejaVuSans-61"/>
      <use x="158.691406" xlink:href="#DejaVuSans-74"/>
      <use x="197.900391" xlink:href="#DejaVuSans-74"/>
      <use x="237.109375" xlink:href="#DejaVuSans-72"/>
      <use x="275.972656" xlink:href="#DejaVuSans-65"/>
      <use x="337.496094" xlink:href="#DejaVuSans-73"/>
      <use x="389.595703" xlink:href="#DejaVuSans-73"/>
     </g>
    </g>
    <g id="line2d_24">
     <path d="M 66.6 217.865937 
L 86.6 217.865937 
" style="fill:none;stroke:#008000;stroke-linecap:square;stroke-opacity:0.9;stroke-width:2;"/>
    </g>
    <g id="line2d_25"/>
    <g id="text_18">
     <!-- daily-open-rebal -->
     <g transform="translate(94.6 221.365937)scale(0.1 -0.1)">
      <defs>
       <path d="M 3513 2113 
L 3513 0 
L 2938 0 
L 2938 2094 
Q 2938 2591 2744 2837 
Q 2550 3084 2163 3084 
Q 1697 3084 1428 2787 
Q 1159 2491 1159 1978 
L 1159 0 
L 581 0 
L 581 3500 
L 1159 3500 
L 1159 2956 
Q 1366 3272 1645 3428 
Q 1925 3584 2291 3584 
Q 2894 3584 3203 3211 
Q 3513 2838 3513 2113 
z
" id="DejaVuSans-6e" transform="scale(0.015625)"/>
       <path d="M 3116 1747 
Q 3116 2381 2855 2742 
Q 2594 3103 2138 3103 
Q 1681 3103 1420 2742 
Q 1159 2381 1159 1747 
Q 1159 1113 1420 752 
Q 1681 391 2138 391 
Q 2594 391 2855 752 
Q 3116 1113 3116 1747 
z
M 1159 2969 
Q 1341 3281 1617 3432 
Q 1894 3584 2278 3584 
Q 2916 3584 3314 3078 
Q 3713 2572 3713 1747 
Q 3713 922 3314 415 
Q 2916 -91 2278 -91 
Q 1894 -91 1617 61 
Q 1341 213 1159 525 
L 1159 0 
L 581 0 
L 581 4863 
L 1159 4863 
L 1159 2969 
z
" id="DejaVuSans-62" transform="scale(0.015625)"/>
      </defs>
      <use xlink:href="#DejaVuSans-64"/>
      <use x="63.476562" xlink:href="#DejaVuSans-61"/>
      <use x="124.755859" xlink:href="#DejaVuSans-69"/>
      <use x="152.539062" xlink:href="#DejaVuSans-6c"/>
      <use x="180.322266" xlink:href="#DejaVuSans-79"/>
      <use x="237.751953" xlink:href="#DejaVuSans-2d"/>
      <use x="275.710938" xlink:href="#DejaVuSans-6f"/>
      <use x="336.892578" xlink:href="#DejaVuSans-70"/>
      <use x="400.369141" xlink:href="#DejaVuSans-65"/>
      <use x="461.892578" xlink:href="#DejaVuSans-6e"/>
      <use x="525.271484" xlink:href="#DejaVuSans-2d"/>
      <use x="561.355469" xlink:href="#DejaVuSans-72"/>
      <use x="600.21875" xlink:href="#DejaVuSans-65"/>
      <use x="661.742188" xlink:href="#DejaVuSans-62"/>
      <use x="725.21875" xlink:href="#DejaVuSans-61"/>
      <use x="786.498047" xlink:href="#DejaVuSans-6c"/>
     </g>
    </g>
    <g id="line2d_26">
     <path d="M 66.6 232.544062 
L 86.6 232.544062 
" style="fill:none;stroke:#ec5283;stroke-linecap:square;stroke-width:2;"/>
    </g>
    <g id="line2d_27"/>
    <g id="text_19">
     <!-- daily-close-rebal -->
     <g transform="translate(94.6 236.044062)scale(0.1 -0.1)">
      <use xlink:href="#DejaVuSans-64"/>
      <use x="63.476562" xlink:href="#DejaVuSans-61"/>
      <use x="124.755859" xlink:href="#DejaVuSans-69"/>
      <use x="152.539062" xlink:href="#DejaVuSans-6c"/>
      <use x="180.322266" xlink:href="#DejaVuSans-79"/>
      <use x="237.751953" xlink:href="#DejaVuSans-2d"/>
      <use x="273.835938" xlink:href="#DejaVuSans-63"/>
      <use x="328.816406" xlink:href="#DejaVuSans-6c"/>
      <use x="356.599609" xlink:href="#DejaVuSans-6f"/>
      <use x="417.78125" xlink:href="#DejaVuSans-73"/>
      <use x="469.880859" xlink:href="#DejaVuSans-65"/>
      <use x="531.404297" xlink:href="#DejaVuSans-2d"/>
      <use x="567.488281" xlink:href="#DejaVuSans-72"/>
      <use x="606.351562" xlink:href="#DejaVuSans-65"/>
      <use x="667.875" xlink:href="#DejaVuSans-62"/>
      <use x="731.351562" xlink:href="#DejaVuSans-61"/>
      <use x="792.630859" xlink:href="#DejaVuSans-6c"/>
     </g>
    </g>
    <g id="line2d_28">
     <path d="M 66.6 247.222187 
L 86.6 247.222187 
" style="fill:none;stroke:#00ff00;stroke-linecap:square;stroke-opacity:0.9;stroke-width:2;"/>
    </g>
    <g id="line2d_29"/>
    <g id="text_20">
     <!-- trader-baseline -->
     <g transform="translate(94.6 250.722187)scale(0.1 -0.1)">
      <use xlink:href="#DejaVuSans-74"/>
      <use x="39.208984" xlink:href="#DejaVuSans-72"/>
      <use x="80.322266" xlink:href="#DejaVuSans-61"/>
      <use x="141.601562" xlink:href="#DejaVuSans-64"/>
      <use x="205.078125" xlink:href="#DejaVuSans-65"/>
      <use x="266.601562" xlink:href="#DejaVuSans-72"/>
      <use x="301.339844" xlink:href="#DejaVuSans-2d"/>
      <use x="337.423828" xlink:href="#DejaVuSans-62"/>
      <use x="400.900391" xlink:href="#DejaVuSans-61"/>
      <use x="462.179688" xlink:href="#DejaVuSans-73"/>
      <use x="514.279297" xlink:href="#DejaVuSans-65"/>
      <use x="575.802734" xlink:href="#DejaVuSans-6c"/>
      <use x="603.585938" xlink:href="#DejaVuSans-69"/>
      <use x="631.369141" xlink:href="#DejaVuSans-6e"/>
      <use x="694.748047" xlink:href="#DejaVuSans-65"/>
     </g>
    </g>
    <g id="line2d_30">
     <path d="M 66.6 261.900312 
L 86.6 261.900312 
" style="fill:none;stroke:#a5b9cf;stroke-linecap:square;stroke-width:2;"/>
    </g>
    <g id="line2d_31"/>
    <g id="text_21">
     <!-- default-cfg -->
     <g transform="translate(94.6 265.400312)scale(0.1 -0.1)">
      <defs>
       <path d="M 2375 4863 
L 2375 4384 
L 1825 4384 
Q 1516 4384 1395 4259 
Q 1275 4134 1275 3809 
L 1275 3500 
L 2222 3500 
L 2222 3053 
L 1275 3053 
L 1275 0 
L 697 0 
L 697 3053 
L 147 3053 
L 147 3500 
L 697 3500 
L 697 3744 
Q 697 4328 969 4595 
Q 1241 4863 1831 4863 
L 2375 4863 
z
" id="DejaVuSans-66" transform="scale(0.015625)"/>
       <path d="M 544 1381 
L 544 3500 
L 1119 3500 
L 1119 1403 
Q 1119 906 1312 657 
Q 1506 409 1894 409 
Q 2359 409 2629 706 
Q 2900 1003 2900 1516 
L 2900 3500 
L 3475 3500 
L 3475 0 
L 2900 0 
L 2900 538 
Q 2691 219 2414 64 
Q 2138 -91 1772 -91 
Q 1169 -91 856 284 
Q 544 659 544 1381 
z
M 1991 3584 
L 1991 3584 
z
" id="DejaVuSans-75" transform="scale(0.015625)"/>
       <path d="M 2906 1791 
Q 2906 2416 2648 2759 
Q 2391 3103 1925 3103 
Q 1463 3103 1205 2759 
Q 947 2416 947 1791 
Q 947 1169 1205 825 
Q 1463 481 1925 481 
Q 2391 481 2648 825 
Q 2906 1169 2906 1791 
z
M 3481 434 
Q 3481 -459 3084 -895 
Q 2688 -1331 1869 -1331 
Q 1566 -1331 1297 -1286 
Q 1028 -1241 775 -1147 
L 775 -588 
Q 1028 -725 1275 -790 
Q 1522 -856 1778 -856 
Q 2344 -856 2625 -561 
Q 2906 -266 2906 331 
L 2906 616 
Q 2728 306 2450 153 
Q 2172 0 1784 0 
Q 1141 0 747 490 
Q 353 981 353 1791 
Q 353 2603 747 3093 
Q 1141 3584 1784 3584 
Q 2172 3584 2450 3431 
Q 2728 3278 2906 2969 
L 2906 3500 
L 3481 3500 
L 3481 434 
z
" id="DejaVuSans-67" transform="scale(0.015625)"/>
      </defs>
      <use xlink:href="#DejaVuSans-64"/>
      <use x="63.476562" xlink:href="#DejaVuSans-65"/>
      <use x="125" xlink:href="#DejaVuSans-66"/>
      <use x="160.205078" xlink:href="#DejaVuSans-61"/>
      <use x="221.484375" xlink:href="#DejaVuSans-75"/>
      <use x="284.863281" xlink:href="#DejaVuSans-6c"/>
      <use x="312.646484" xlink:href="#DejaVuSans-74"/>
      <use x="351.855469" xlink:href="#DejaVuSans-2d"/>
      <use x="387.939453" xlink:href="#DejaVuSans-63"/>
      <use x="442.919922" xlink:href="#DejaVuSans-66"/>
      <use x="478.125" xlink:href="#DejaVuSans-67"/>
     </g>
    </g>
   </g>
  </g>
 </g>
 <defs>
  <clipPath id="pf3f71a455f">
   <rect height="235.008" width="357.12" x="57.6" y="41.472"/>
  </clipPath>
 </defs>
</svg>
