<?xml version="1.0" encoding="utf-8" standalone="no"?>
<!DOCTYPE svg PUBLIC "-//W3C//DTD SVG 1.1//EN"
  "http://www.w3.org/Graphics/SVG/1.1/DTD/svg11.dtd">
<svg height="345.6pt" version="1.1" viewBox="0 0 460.8 345.6" width="460.8pt" xmlns="http://www.w3.org/2000/svg" xmlns:xlink="http://www.w3.org/1999/xlink">
 <metadata>
  <rdf:RDF xmlns:cc="http://creativecommons.org/ns#" xmlns:dc="http://purl.org/dc/elements/1.1/" xmlns:rdf="http://www.w3.org/1999/02/22-rdf-syntax-ns#">
   <cc:Work>
    <dc:type rdf:resource="http://purl.org/dc/dcmitype/StillImage"/>
    <dc:date>2022-01-23T01:01:42.973199</dc:date>
    <dc:format>image/svg+xml</dc:format>
    <dc:creator>
     <cc:Agent>
      <dc:title>Matplotlib v3.4.3, https://matplotlib.org/</dc:title>
     </cc:Agent>
    </dc:creator>
   </cc:Work>
  </rdf:RDF>
 </metadata>
 <defs>
  <style type="text/css">*{stroke-linecap:butt;stroke-linejoin:round;}</style>
 </defs>
 <g id="figure_1">
  <g id="patch_1">
   <path d="M 0 345.6 
L 460.8 345.6 
L 460.8 0 
L 0 0 
z
" style="fill:#ffffff;"/>
  </g>
  <g id="axes_1">
   <g id="patch_2">
    <path d="M 57.6 276.48 
L 414.72 276.48 
L 414.72 41.472 
L 57.6 41.472 
z
" style="fill:#ffffff;"/>
   </g>
   <g id="matplotlib.axis_1">
    <g id="xtick_1">
     <g id="line2d_1">
      <defs>
       <path d="M 0 0 
L 0 3.5 
" id="mbb76899cce" style="stroke:#000000;stroke-width:0.8;"/>
      </defs>
      <g>
       <use style="stroke:#000000;stroke-width:0.8;" x="93.182998" xlink:href="#mbb76899cce" y="276.48"/>
      </g>
     </g>
     <g id="text_1">
      <!-- 2021-09 -->
      <g transform="translate(55.958177 310.951846)rotate(-30)scale(0.1 -0.1)">
       <defs>
        <path d="M 1228 531 
L 3431 531 
L 3431 0 
L 469 0 
L 469 531 
Q 828 903 1448 1529 
Q 2069 2156 2228 2338 
Q 2531 2678 2651 2914 
Q 2772 3150 2772 3378 
Q 2772 3750 2511 3984 
Q 2250 4219 1831 4219 
Q 1534 4219 1204 4116 
Q 875 4013 500 3803 
L 500 4441 
Q 881 4594 1212 4672 
Q 1544 4750 1819 4750 
Q 2544 4750 2975 4387 
Q 3406 4025 3406 3419 
Q 3406 3131 3298 2873 
Q 3191 2616 2906 2266 
Q 2828 2175 2409 1742 
Q 1991 1309 1228 531 
z
" id="DejaVuSans-32" transform="scale(0.015625)"/>
        <path d="M 2034 4250 
Q 1547 4250 1301 3770 
Q 1056 3291 1056 2328 
Q 1056 1369 1301 889 
Q 1547 409 2034 409 
Q 2525 409 2770 889 
Q 3016 1369 3016 2328 
Q 3016 3291 2770 3770 
Q 2525 4250 2034 4250 
z
M 2034 4750 
Q 2819 4750 3233 4129 
Q 3647 3509 3647 2328 
Q 3647 1150 3233 529 
Q 2819 -91 2034 -91 
Q 1250 -91 836 529 
Q 422 1150 422 2328 
Q 422 3509 836 4129 
Q 1250 4750 2034 4750 
z
" id="DejaVuSans-30" transform="scale(0.015625)"/>
        <path d="M 794 531 
L 1825 531 
L 1825 4091 
L 703 3866 
L 703 4441 
L 1819 4666 
L 2450 4666 
L 2450 531 
L 3481 531 
L 3481 0 
L 794 0 
L 794 531 
z
" id="DejaVuSans-31" transform="scale(0.015625)"/>
        <path d="M 313 2009 
L 1997 2009 
L 1997 1497 
L 313 1497 
L 313 2009 
z
" id="DejaVuSans-2d" transform="scale(0.015625)"/>
        <path d="M 703 97 
L 703 672 
Q 941 559 1184 500 
Q 1428 441 1663 441 
Q 2288 441 2617 861 
Q 2947 1281 2994 2138 
Q 2813 1869 2534 1725 
Q 2256 1581 1919 1581 
Q 1219 1581 811 2004 
Q 403 2428 403 3163 
Q 403 3881 828 4315 
Q 1253 4750 1959 4750 
Q 2769 4750 3195 4129 
Q 3622 3509 3622 2328 
Q 3622 1225 3098 567 
Q 2575 -91 1691 -91 
Q 1453 -91 1209 -44 
Q 966 3 703 97 
z
M 1959 2075 
Q 2384 2075 2632 2365 
Q 2881 2656 2881 3163 
Q 2881 3666 2632 3958 
Q 2384 4250 1959 4250 
Q 1534 4250 1286 3958 
Q 1038 3666 1038 3163 
Q 1038 2656 1286 2365 
Q 1534 2075 1959 2075 
z
" id="DejaVuSans-39" transform="scale(0.015625)"/>
       </defs>
       <use xlink:href="#DejaVuSans-32"/>
       <use x="63.623047" xlink:href="#DejaVuSans-30"/>
       <use x="127.246094" xlink:href="#DejaVuSans-32"/>
       <use x="190.869141" xlink:href="#DejaVuSans-31"/>
       <use x="254.492188" xlink:href="#DejaVuSans-2d"/>
       <use x="290.576172" xlink:href="#DejaVuSans-30"/>
       <use x="354.199219" xlink:href="#DejaVuSans-39"/>
      </g>
     </g>
    </g>
    <g id="xtick_2">
     <g id="line2d_2">
      <g>
       <use style="stroke:#000000;stroke-width:0.8;" x="157.683901" xlink:href="#mbb76899cce" y="276.48"/>
      </g>
     </g>
     <g id="text_2">
      <!-- 2021-10 -->
      <g transform="translate(120.45908 310.951846)rotate(-30)scale(0.1 -0.1)">
       <use xlink:href="#DejaVuSans-32"/>
       <use x="63.623047" xlink:href="#DejaVuSans-30"/>
       <use x="127.246094" xlink:href="#DejaVuSans-32"/>
       <use x="190.869141" xlink:href="#DejaVuSans-31"/>
       <use x="254.492188" xlink:href="#DejaVuSans-2d"/>
       <use x="290.576172" xlink:href="#DejaVuSans-31"/>
       <use x="354.199219" xlink:href="#DejaVuSans-30"/>
      </g>
     </g>
    </g>
    <g id="xtick_3">
     <g id="line2d_3">
      <g>
       <use style="stroke:#000000;stroke-width:0.8;" x="224.334834" xlink:href="#mbb76899cce" y="276.48"/>
      </g>
     </g>
     <g id="text_3">
      <!-- 2021-11 -->
      <g transform="translate(187.110014 310.951846)rotate(-30)scale(0.1 -0.1)">
       <use xlink:href="#DejaVuSans-32"/>
       <use x="63.623047" xlink:href="#DejaVuSans-30"/>
       <use x="127.246094" xlink:href="#DejaVuSans-32"/>
       <use x="190.869141" xlink:href="#DejaVuSans-31"/>
       <use x="254.492188" xlink:href="#DejaVuSans-2d"/>
       <use x="290.576172" xlink:href="#DejaVuSans-31"/>
       <use x="354.199219" xlink:href="#DejaVuSans-31"/>
      </g>
     </g>
    </g>
    <g id="xtick_4">
     <g id="line2d_4">
      <g>
       <use style="stroke:#000000;stroke-width:0.8;" x="288.835738" xlink:href="#mbb76899cce" y="276.48"/>
      </g>
     </g>
     <g id="text_4">
      <!-- 2021-12 -->
      <g transform="translate(251.610917 310.951846)rotate(-30)scale(0.1 -0.1)">
       <use xlink:href="#DejaVuSans-32"/>
       <use x="63.623047" xlink:href="#DejaVuSans-30"/>
       <use x="127.246094" xlink:href="#DejaVuSans-32"/>
       <use x="190.869141" xlink:href="#DejaVuSans-31"/>
       <use x="254.492188" xlink:href="#DejaVuSans-2d"/>
       <use x="290.576172" xlink:href="#DejaVuSans-31"/>
       <use x="354.199219" xlink:href="#DejaVuSans-32"/>
      </g>
     </g>
    </g>
    <g id="xtick_5">
     <g id="line2d_5">
      <g>
       <use style="stroke:#000000;stroke-width:0.8;" x="355.486671" xlink:href="#mbb76899cce" y="276.48"/>
      </g>
     </g>
     <g id="text_5">
      <!-- 2022-01 -->
      <g transform="translate(318.26185 310.951846)rotate(-30)scale(0.1 -0.1)">
       <use xlink:href="#DejaVuSans-32"/>
       <use x="63.623047" xlink:href="#DejaVuSans-30"/>
       <use x="127.246094" xlink:href="#DejaVuSans-32"/>
       <use x="190.869141" xlink:href="#DejaVuSans-32"/>
       <use x="254.492188" xlink:href="#DejaVuSans-2d"/>
       <use x="290.576172" xlink:href="#DejaVuSans-30"/>
       <use x="354.199219" xlink:href="#DejaVuSans-31"/>
      </g>
     </g>
    </g>
    <g id="text_6">
     <!-- date -->
     <g transform="translate(224.885 324.351346)scale(0.1 -0.1)">
      <defs>
       <path d="M 2906 2969 
L 2906 4863 
L 3481 4863 
L 3481 0 
L 2906 0 
L 2906 525 
Q 2725 213 2448 61 
Q 2172 -91 1784 -91 
Q 1150 -91 751 415 
Q 353 922 353 1747 
Q 353 2572 751 3078 
Q 1150 3584 1784 3584 
Q 2172 3584 2448 3432 
Q 2725 3281 2906 2969 
z
M 947 1747 
Q 947 1113 1208 752 
Q 1469 391 1925 391 
Q 2381 391 2643 752 
Q 2906 1113 2906 1747 
Q 2906 2381 2643 2742 
Q 2381 3103 1925 3103 
Q 1469 3103 1208 2742 
Q 947 2381 947 1747 
z
" id="DejaVuSans-64" transform="scale(0.015625)"/>
       <path d="M 2194 1759 
Q 1497 1759 1228 1600 
Q 959 1441 959 1056 
Q 959 750 1161 570 
Q 1363 391 1709 391 
Q 2188 391 2477 730 
Q 2766 1069 2766 1631 
L 2766 1759 
L 2194 1759 
z
M 3341 1997 
L 3341 0 
L 2766 0 
L 2766 531 
Q 2569 213 2275 61 
Q 1981 -91 1556 -91 
Q 1019 -91 701 211 
Q 384 513 384 1019 
Q 384 1609 779 1909 
Q 1175 2209 1959 2209 
L 2766 2209 
L 2766 2266 
Q 2766 2663 2505 2880 
Q 2244 3097 1772 3097 
Q 1472 3097 1187 3025 
Q 903 2953 641 2809 
L 641 3341 
Q 956 3463 1253 3523 
Q 1550 3584 1831 3584 
Q 2591 3584 2966 3190 
Q 3341 2797 3341 1997 
z
" id="DejaVuSans-61" transform="scale(0.015625)"/>
       <path d="M 1172 4494 
L 1172 3500 
L 2356 3500 
L 2356 3053 
L 1172 3053 
L 1172 1153 
Q 1172 725 1289 603 
Q 1406 481 1766 481 
L 2356 481 
L 2356 0 
L 1766 0 
Q 1100 0 847 248 
Q 594 497 594 1153 
L 594 3053 
L 172 3053 
L 172 3500 
L 594 3500 
L 594 4494 
L 1172 4494 
z
" id="DejaVuSans-74" transform="scale(0.015625)"/>
       <path d="M 3597 1894 
L 3597 1613 
L 953 1613 
Q 991 1019 1311 708 
Q 1631 397 2203 397 
Q 2534 397 2845 478 
Q 3156 559 3463 722 
L 3463 178 
Q 3153 47 2828 -22 
Q 2503 -91 2169 -91 
Q 1331 -91 842 396 
Q 353 884 353 1716 
Q 353 2575 817 3079 
Q 1281 3584 2069 3584 
Q 2775 3584 3186 3129 
Q 3597 2675 3597 1894 
z
M 3022 2063 
Q 3016 2534 2758 2815 
Q 2500 3097 2075 3097 
Q 1594 3097 1305 2825 
Q 1016 2553 972 2059 
L 3022 2063 
z
" id="DejaVuSans-65" transform="scale(0.015625)"/>
      </defs>
      <use xlink:href="#DejaVuSans-64"/>
      <use x="63.476562" xlink:href="#DejaVuSans-61"/>
      <use x="124.755859" xlink:href="#DejaVuSans-74"/>
      <use x="163.964844" xlink:href="#DejaVuSans-65"/>
     </g>
    </g>
   </g>
   <g id="matplotlib.axis_2">
    <g id="ytick_1">
     <g id="line2d_6">
      <defs>
       <path d="M 0 0 
L -3.5 0 
" id="m36b9a76894" style="stroke:#000000;stroke-width:0.8;"/>
      </defs>
      <g>
       <use style="stroke:#000000;stroke-width:0.8;" x="57.6" xlink:href="#m36b9a76894" y="238.668006"/>
      </g>
     </g>
     <g id="text_7">
      <!-- 95000 -->
      <g transform="translate(18.7875 242.467225)scale(0.1 -0.1)">
       <defs>
        <path d="M 691 4666 
L 3169 4666 
L 3169 4134 
L 1269 4134 
L 1269 2991 
Q 1406 3038 1543 3061 
Q 1681 3084 1819 3084 
Q 2600 3084 3056 2656 
Q 3513 2228 3513 1497 
Q 3513 744 3044 326 
Q 2575 -91 1722 -91 
Q 1428 -91 1123 -41 
Q 819 9 494 109 
L 494 744 
Q 775 591 1075 516 
Q 1375 441 1709 441 
Q 2250 441 2565 725 
Q 2881 1009 2881 1497 
Q 2881 1984 2565 2268 
Q 2250 2553 1709 2553 
Q 1456 2553 1204 2497 
Q 953 2441 691 2322 
L 691 4666 
z
" id="DejaVuSans-35" transform="scale(0.015625)"/>
       </defs>
       <use xlink:href="#DejaVuSans-39"/>
       <use x="63.623047" xlink:href="#DejaVuSans-35"/>
       <use x="127.246094" xlink:href="#DejaVuSans-30"/>
       <use x="190.869141" xlink:href="#DejaVuSans-30"/>
       <use x="254.492188" xlink:href="#DejaVuSans-30"/>
      </g>
     </g>
    </g>
    <g id="ytick_2">
     <g id="line2d_7">
      <g>
       <use style="stroke:#000000;stroke-width:0.8;" x="57.6" xlink:href="#m36b9a76894" y="194.786786"/>
      </g>
     </g>
     <g id="text_8">
      <!-- 100000 -->
      <g transform="translate(12.425 198.586005)scale(0.1 -0.1)">
       <use xlink:href="#DejaVuSans-31"/>
       <use x="63.623047" xlink:href="#DejaVuSans-30"/>
       <use x="127.246094" xlink:href="#DejaVuSans-30"/>
       <use x="190.869141" xlink:href="#DejaVuSans-30"/>
       <use x="254.492188" xlink:href="#DejaVuSans-30"/>
       <use x="318.115234" xlink:href="#DejaVuSans-30"/>
      </g>
     </g>
    </g>
    <g id="ytick_3">
     <g id="line2d_8">
      <g>
       <use style="stroke:#000000;stroke-width:0.8;" x="57.6" xlink:href="#m36b9a76894" y="150.905567"/>
      </g>
     </g>
     <g id="text_9">
      <!-- 105000 -->
      <g transform="translate(12.425 154.704786)scale(0.1 -0.1)">
       <use xlink:href="#DejaVuSans-31"/>
       <use x="63.623047" xlink:href="#DejaVuSans-30"/>
       <use x="127.246094" xlink:href="#DejaVuSans-35"/>
       <use x="190.869141" xlink:href="#DejaVuSans-30"/>
       <use x="254.492188" xlink:href="#DejaVuSans-30"/>
       <use x="318.115234" xlink:href="#DejaVuSans-30"/>
      </g>
     </g>
    </g>
    <g id="ytick_4">
     <g id="line2d_9">
      <g>
       <use style="stroke:#000000;stroke-width:0.8;" x="57.6" xlink:href="#m36b9a76894" y="107.024348"/>
      </g>
     </g>
     <g id="text_10">
      <!-- 110000 -->
      <g transform="translate(12.425 110.823567)scale(0.1 -0.1)">
       <use xlink:href="#DejaVuSans-31"/>
       <use x="63.623047" xlink:href="#DejaVuSans-31"/>
       <use x="127.246094" xlink:href="#DejaVuSans-30"/>
       <use x="190.869141" xlink:href="#DejaVuSans-30"/>
       <use x="254.492188" xlink:href="#DejaVuSans-30"/>
       <use x="318.115234" xlink:href="#DejaVuSans-30"/>
      </g>
     </g>
    </g>
    <g id="ytick_5">
     <g id="line2d_10">
      <g>
       <use style="stroke:#000000;stroke-width:0.8;" x="57.6" xlink:href="#m36b9a76894" y="63.143128"/>
      </g>
     </g>
     <g id="text_11">
      <!-- 115000 -->
      <g transform="translate(12.425 66.942347)scale(0.1 -0.1)">
       <use xlink:href="#DejaVuSans-31"/>
       <use x="63.623047" xlink:href="#DejaVuSans-31"/>
       <use x="127.246094" xlink:href="#DejaVuSans-35"/>
       <use x="190.869141" xlink:href="#DejaVuSans-30"/>
       <use x="254.492188" xlink:href="#DejaVuSans-30"/>
       <use x="318.115234" xlink:href="#DejaVuSans-30"/>
      </g>
     </g>
    </g>
   </g>
   <g id="line2d_11">
    <path clip-path="url(#p03c0749be0)" d="M 73.832727 194.786786 
L 75.982757 194.843674 
L 78.132787 191.74558 
L 80.282818 196.825998 
L 82.432848 188.093567 
L 88.882938 182.357305 
L 91.032968 180.886334 
L 93.182998 183.131246 
L 95.333028 182.247203 
L 97.483058 182.806914 
L 106.083179 182.932939 
L 108.233209 186.207845 
L 110.383239 188.775878 
L 112.533269 195.961325 
L 118.983359 189.052396 
L 121.13339 201.299819 
L 123.28342 195.777301 
L 125.43345 198.016355 
L 127.58348 207.166654 
L 134.03357 221.646073 
L 136.1836 223.699451 
L 138.33363 217.990589 
L 140.48366 203.882415 
L 142.633691 196.68846 
L 149.083781 189.669238 
L 151.233811 208.9027 
L 153.383841 205.620123 
L 155.533871 212.255662 
L 157.683901 199.652653 
L 164.133992 215.300491 
L 166.284022 202.699909 
L 168.434052 198.871536 
L 170.584082 198.543383 
L 172.734112 197.778728 
L 179.184202 196.747413 
L 181.334232 196.241127 
L 183.484262 207.281151 
L 185.634293 190.236468 
L 187.784323 188.171318 
L 194.234413 181.371437 
L 196.384443 172.493615 
L 198.534473 169.331949 
L 200.684503 184.807666 
L 202.834533 195.922281 
L 209.284624 194.68411 
L 211.434654 202.736191 
L 213.584684 204.793293 
L 215.734714 193.887487 
L 217.884744 204.756516 
L 224.334834 186.772013 
L 226.484865 187.65007 
L 228.634895 178.580064 
L 230.784925 189.167204 
L 232.934955 183.983432 
L 239.385045 182.664894 
L 241.535075 193.608574 
L 243.685105 193.376696 
L 245.835135 200.926956 
L 247.985166 194.138133 
L 254.435256 190.660412 
L 256.585286 191.141608 
L 258.735316 195.502476 
L 260.885346 198.337583 
L 263.035376 198.407057 
L 269.485467 193.13777 
L 271.635497 186.27197 
L 273.785527 186.241354 
L 278.085587 186.785538 
L 284.535677 194.852176 
L 286.685707 211.515546 
L 288.835738 222.844094 
L 290.985768 212.718629 
L 293.135798 217.746338 
L 299.585888 202.447509 
L 301.735918 186.43915 
L 303.885948 179.608408 
L 306.035978 179.241525 
L 308.186008 176.010509 
L 314.636099 184.472481 
L 316.786129 180.224218 
L 318.936159 175.147793 
L 321.086189 171.380908 
L 323.236219 182.244317 
L 329.686309 194.286018 
L 331.83634 173.831464 
L 333.98637 169.636355 
L 336.1364 161.662688 
L 344.73652 150.552452 
L 346.88655 151.063797 
L 349.03658 150.794758 
L 351.18661 152.538223 
L 353.336641 156.585682 
L 359.786731 142.517054 
L 361.936761 130.416234 
L 364.086791 154.688587 
L 366.236821 146.957675 
L 368.386851 143.148018 
L 374.836942 142.78651 
L 376.986972 134.902716 
L 379.137002 133.155078 
L 381.287032 144.168718 
L 383.437062 141.495211 
L 392.037182 162.112455 
L 394.187213 166.762897 
L 396.337243 177.09594 
L 398.487273 198.791242 
" style="fill:none;stroke:#0000ff;stroke-linecap:square;stroke-opacity:0.9;stroke-width:2;"/>
   </g>
   <g id="line2d_12">
    <path clip-path="url(#p03c0749be0)" d="M 73.832727 194.786786 
L 75.982757 190.316733 
L 78.132787 185.496993 
L 80.282818 191.611857 
L 82.432848 181.01404 
L 88.882938 177.629 
L 91.032968 176.711144 
L 93.182998 176.632911 
L 95.333028 177.68491 
L 97.483058 177.620039 
L 106.083179 176.130787 
L 108.233209 179.878887 
L 110.383239 181.811193 
L 112.533269 191.067404 
L 118.983359 184.099704 
L 121.13339 192.603409 
L 123.28342 188.875308 
L 125.43345 191.373581 
L 127.58348 202.68217 
L 134.03357 216.980273 
L 136.1836 216.599313 
L 138.33363 211.354213 
L 140.48366 200.164256 
L 142.633691 194.137703 
L 149.083781 188.567342 
L 151.233811 206.077315 
L 153.383841 204.917077 
L 155.533871 213.312595 
L 157.683901 200.114764 
L 164.133992 210.469725 
L 166.284022 197.206348 
L 168.434052 195.329278 
L 170.584082 192.841556 
L 172.734112 188.843311 
L 179.184202 194.185358 
L 181.334232 200.784008 
L 183.484262 203.236015 
L 185.634293 182.137296 
L 187.784323 175.606749 
L 194.234413 173.256407 
L 196.384443 166.02974 
L 198.534473 160.94767 
L 200.684503 173.158315 
L 202.834533 177.399864 
L 209.284624 179.85335 
L 211.434654 184.749802 
L 213.584684 189.487906 
L 215.734714 177.249566 
L 217.884744 176.002746 
L 224.334834 174.960596 
L 226.484865 171.624113 
L 228.634895 164.592566 
L 230.784925 166.72314 
L 232.934955 166.467869 
L 239.385045 165.355742 
L 241.535075 172.923184 
L 243.685105 177.23538 
L 245.835135 176.830603 
L 247.985166 171.073691 
L 254.435256 169.097622 
L 256.585286 171.157217 
L 258.735316 172.136357 
L 260.885346 172.258289 
L 263.035376 175.075286 
L 269.485467 171.801478 
L 271.635497 162.282284 
L 273.785527 161.811028 
L 278.085587 185.490549 
L 284.535677 175.426114 
L 286.685707 195.002173 
L 288.835738 204.671582 
L 290.985768 192.632357 
L 293.135798 199.714789 
L 299.585888 186.920878 
L 301.735918 171.21658 
L 303.885948 166.066774 
L 306.035978 166.771712 
L 308.186008 161.673826 
L 314.636099 170.488547 
L 316.786129 169.883835 
L 318.936159 163.394733 
L 321.086189 162.937032 
L 323.236219 174.243434 
L 329.686309 184.240743 
L 331.83634 168.06252 
L 333.98637 162.816836 
L 336.1364 154.877985 
L 344.73652 142.640351 
L 346.88655 143.10046 
L 349.03658 142.606222 
L 351.18661 144.278228 
L 353.336641 147.932747 
L 359.786731 137.996791 
L 361.936761 128.638576 
L 364.086791 149.004035 
L 366.236821 145.55988 
L 368.386851 140.439044 
L 374.836942 140.960539 
L 376.986972 135.735055 
L 379.137002 135.76895 
L 381.287032 142.910348 
L 383.437062 143.186062 
L 392.037182 163.589087 
L 394.187213 172.466143 
L 396.337243 180.876516 
L 398.487273 199.389058 
" style="fill:none;stroke:#ff0000;stroke-linecap:square;stroke-opacity:0.9;stroke-width:2;"/>
   </g>
   <g id="line2d_13">
    <path clip-path="url(#p03c0749be0)" d="M 73.832727 194.786786 
L 75.982757 190.096407 
L 78.132787 186.470843 
L 80.282818 191.749505 
L 82.432848 182.741023 
L 88.882938 177.190556 
L 91.032968 176.013574 
L 93.182998 177.851681 
L 95.333028 176.91237 
L 97.483058 177.412807 
L 106.083179 177.563136 
L 108.233209 180.439117 
L 110.383239 183.103112 
L 112.533269 190.705788 
L 118.983359 182.96388 
L 121.13339 195.8931 
L 123.28342 190.313703 
L 125.43345 192.553364 
L 127.58348 200.259521 
L 134.03357 215.415424 
L 136.1836 217.633485 
L 138.33363 211.195808 
L 140.48366 197.022567 
L 142.633691 189.915987 
L 149.083781 182.264232 
L 151.233811 201.267022 
L 153.383841 198.612956 
L 155.533871 204.982127 
L 157.683901 190.983479 
L 164.133992 207.605151 
L 166.284022 194.509089 
L 168.434052 190.770953 
L 170.584082 188.806444 
L 172.734112 185.163191 
L 179.184202 189.773994 
L 181.334232 196.781465 
L 183.484262 198.330332 
L 185.634293 181.273955 
L 187.784323 179.776213 
L 194.234413 172.998443 
L 196.384443 163.522741 
L 198.534473 159.456483 
L 200.684503 174.435921 
L 202.834533 185.916753 
L 209.284624 185.118845 
L 211.434654 193.212757 
L 213.584684 195.058362 
L 215.734714 184.615975 
L 217.884744 182.465403 
L 224.334834 178.282089 
L 226.484865 176.894756 
L 228.634895 169.74247 
L 230.784925 169.280953 
L 232.934955 162.704276 
L 239.385045 161.375986 
L 241.535075 172.762282 
L 243.685105 179.942308 
L 245.835135 179.84666 
L 247.985166 173.444619 
L 254.435256 170.550976 
L 256.585286 174.22423 
L 258.735316 174.630996 
L 260.885346 177.463916 
L 263.035376 177.873442 
L 269.485467 171.786848 
L 271.635497 164.558972 
L 273.785527 165.287031 
L 278.085587 185.384014 
L 284.535677 174.268197 
L 286.685707 191.820226 
L 288.835738 204.047745 
L 290.985768 193.436995 
L 293.135798 199.174108 
L 299.585888 182.126155 
L 301.735918 166.297104 
L 303.885948 159.327443 
L 306.035978 158.516188 
L 308.186008 155.365913 
L 314.636099 164.172132 
L 316.786129 160.384544 
L 318.936159 154.733758 
L 321.086189 151.487199 
L 323.236219 162.147106 
L 329.686309 174.231971 
L 331.83634 153.193027 
L 333.98637 149.542438 
L 336.1364 141.206153 
L 344.73652 129.487879 
L 346.88655 130.120243 
L 349.03658 129.185872 
L 351.18661 130.712698 
L 353.336641 135.050359 
L 359.786731 121.230299 
L 361.936761 108.605134 
L 364.086791 133.945972 
L 366.236821 123.803729 
L 368.386851 121.172737 
L 374.836942 118.802986 
L 376.986972 110.007537 
L 379.137002 108.460279 
L 381.287032 119.531183 
L 383.437062 117.098547 
L 392.037182 136.958381 
L 394.187213 141.891616 
L 396.337243 152.860637 
L 398.487273 174.192953 
" style="fill:none;stroke:#ff8040;stroke-linecap:square;stroke-opacity:0.9;stroke-width:2;"/>
   </g>
   <g id="line2d_14">
    <path clip-path="url(#p03c0749be0)" d="M 73.832727 195.664411 
L 75.982757 193.43262 
L 78.132787 190.527269 
L 80.282818 197.473032 
L 82.432848 188.196993 
L 88.882938 191.211994 
L 91.032968 190.597215 
L 93.182998 190.876755 
L 95.333028 191.601831 
L 97.483058 191.740445 
L 106.083179 193.28377 
L 108.233209 196.643209 
L 110.383239 198.566235 
L 112.533269 208.638873 
L 118.983359 201.662283 
L 121.13339 212.246783 
L 123.28342 212.086692 
L 125.43345 215.136962 
L 127.58348 224.041766 
L 134.03357 235.928301 
L 136.1836 236.558593 
L 138.33363 234.442921 
L 140.48366 222.32974 
L 142.633691 216.632148 
L 149.083781 212.709596 
L 151.233811 229.74051 
L 153.383841 228.498305 
L 155.533871 234.519747 
L 157.683901 226.404431 
L 164.133992 240.378993 
L 166.284022 225.763717 
L 168.434052 225.217406 
L 170.584082 220.633349 
L 172.734112 216.576983 
L 179.184202 222.386893 
L 181.334232 228.247699 
L 183.484262 230.508102 
L 185.634293 211.284584 
L 187.784323 208.366487 
L 194.234413 206.229809 
L 196.384443 199.422315 
L 198.534473 193.444324 
L 200.684503 212.714873 
L 202.834533 225.409625 
L 209.284624 225.859078 
L 211.434654 231.945013 
L 213.584684 240.283743 
L 215.734714 229.692736 
L 217.884744 228.544781 
L 224.334834 225.68104 
L 226.484865 225.29544 
L 228.634895 222.667888 
L 230.784925 224.571095 
L 232.934955 224.563472 
L 239.385045 222.798217 
L 241.535075 229.729344 
L 243.685105 234.03067 
L 245.835135 234.529538 
L 247.985166 223.640284 
L 254.435256 220.371854 
L 256.585286 223.515865 
L 258.735316 224.701554 
L 260.885346 223.938775 
L 263.035376 232.567324 
L 269.485467 226.060321 
L 271.635497 225.69674 
L 273.785527 223.951301 
L 278.085587 245.302725 
L 284.535677 236.235613 
L 286.685707 253.675242 
L 288.835738 265.797818 
L 290.985768 249.387877 
L 293.135798 254.464072 
L 299.585888 244.310015 
L 301.735918 228.908479 
L 303.885948 223.186101 
L 306.035978 223.056287 
L 308.186008 216.148339 
L 314.636099 227.634508 
L 316.786129 226.459458 
L 318.936159 220.445105 
L 321.086189 214.461274 
L 323.236219 229.847115 
L 329.686309 241.169277 
L 331.83634 227.894704 
L 333.98637 224.01452 
L 336.1364 216.329183 
L 344.73652 206.012091 
L 346.88655 203.659127 
L 349.03658 202.754584 
L 351.18661 203.910842 
L 353.336641 208.029601 
L 359.786731 197.350436 
L 361.936761 182.530157 
L 364.086791 199.974878 
L 366.236821 197.396648 
L 368.386851 195.880946 
L 374.836942 196.060658 
L 376.986972 192.646433 
L 379.137002 192.103203 
L 381.287032 201.804497 
L 383.437062 198.905385 
L 392.037182 215.633777 
L 394.187213 224.480238 
L 396.337243 232.764204 
L 398.487273 250.420462 
" style="fill:none;stroke:#0d0d0d;stroke-linecap:square;stroke-opacity:0.25;stroke-width:2;"/>
   </g>
   <g id="line2d_15">
    <path clip-path="url(#p03c0749be0)" d="M 73.832727 193.909162 
L 75.982757 186.706019 
L 78.132787 180.579667 
L 80.282818 185.791223 
L 82.432848 174.64496 
L 88.882938 163.526902 
L 91.032968 162.280886 
L 93.182998 163.97436 
L 95.333028 164.09953 
L 97.483058 163.298686 
L 106.083179 164.293567 
L 108.233209 165.436485 
L 110.383239 167.815292 
L 112.533269 173.720472 
L 118.983359 166.950832 
L 121.13339 173.810847 
L 123.28342 168.292166 
L 125.43345 171.147026 
L 127.58348 181.815494 
L 134.03357 198.787009 
L 136.1836 200.088755 
L 138.33363 192.519829 
L 140.48366 182.199685 
L 142.633691 175.121991 
L 149.083781 162.067775 
L 151.233811 179.881008 
L 153.383841 175.099422 
L 155.533871 183.378964 
L 157.683901 171.372426 
L 164.133992 175.650948 
L 166.284022 163.575007 
L 168.434052 159.953422 
L 170.584082 157.519685 
L 172.734112 153.403005 
L 179.184202 158.842403 
L 181.334232 167.564127 
L 183.484262 166.728894 
L 185.634293 144.203059 
L 187.784323 138.631045 
L 194.234413 133.307752 
L 196.384443 126.273247 
L 198.534473 122.085442 
L 200.684503 131.825794 
L 202.834533 136.05244 
L 209.284624 135.902698 
L 211.434654 133.542429 
L 213.584684 135.358078 
L 215.734714 123.816137 
L 217.884744 125.960174 
L 224.334834 120.982439 
L 226.484865 118.269174 
L 228.634895 113.954141 
L 230.784925 116.994001 
L 232.934955 114.464862 
L 239.385045 113.674302 
L 241.535075 118.502491 
L 243.685105 125.13813 
L 245.835135 124.699184 
L 247.985166 118.689223 
L 254.435256 117.093396 
L 256.585286 121.810017 
L 258.735316 122.550034 
L 260.885346 118.928184 
L 263.035376 121.790974 
L 269.485467 121.948845 
L 271.635497 115.529065 
L 273.785527 112.498842 
L 278.085587 136.192594 
L 284.535677 118.757864 
L 286.685707 133.6132 
L 288.835738 138.157745 
L 290.985768 122.713178 
L 293.135798 127.958667 
L 299.585888 113.087455 
L 301.735918 96.762122 
L 303.885948 89.597533 
L 306.035978 90.889428 
L 308.186008 89.875723 
L 314.636099 101.126146 
L 316.786129 95.952177 
L 318.936159 93.968662 
L 321.086189 91.311889 
L 323.236219 101.069179 
L 329.686309 112.92202 
L 331.83634 96.995018 
L 333.98637 90.449658 
L 336.1364 82.937285 
L 344.73652 69.833879 
L 346.88655 70.379401 
L 349.03658 70.098936 
L 351.18661 72.616743 
L 353.336641 78.700994 
L 359.786731 61.223022 
L 361.936761 52.154182 
L 364.086791 75.783634 
L 366.236821 71.592825 
L 368.386851 66.21457 
L 374.836942 67.951852 
L 376.986972 64.147284 
L 379.137002 61.782869 
L 381.287032 73.974949 
L 383.437062 77.010861 
L 392.037182 96.489406 
L 394.187213 107.410408 
L 396.337243 115.846026 
L 398.487273 133.977838 
" style="fill:none;stroke:#0d0d0d;stroke-linecap:square;stroke-opacity:0.25;stroke-width:2;"/>
   </g>
   <g id="patch_3">
    <path d="M 57.6 276.48 
L 57.6 41.472 
" style="fill:none;stroke:#000000;stroke-linecap:square;stroke-linejoin:miter;stroke-width:0.8;"/>
   </g>
   <g id="patch_4">
    <path d="M 414.72 276.48 
L 414.72 41.472 
" style="fill:none;stroke:#000000;stroke-linecap:square;stroke-linejoin:miter;stroke-width:0.8;"/>
   </g>
   <g id="patch_5">
    <path d="M 57.6 276.48 
L 414.72 276.48 
" style="fill:none;stroke:#000000;stroke-linecap:square;stroke-linejoin:miter;stroke-width:0.8;"/>
   </g>
   <g id="patch_6">
    <path d="M 57.6 41.472 
L 414.72 41.472 
" style="fill:none;stroke:#000000;stroke-linecap:square;stroke-linejoin:miter;stroke-width:0.8;"/>
   </g>
   <g id="text_12">
    <!-- TESTFUNDS1550 -->
    <g transform="translate(185.200312 22.034625)scale(0.12 -0.12)">
     <defs>
      <path d="M -19 4666 
L 3928 4666 
L 3928 4134 
L 2272 4134 
L 2272 0 
L 1638 0 
L 1638 4134 
L -19 4134 
L -19 4666 
z
" id="DejaVuSans-54" transform="scale(0.015625)"/>
      <path d="M 628 4666 
L 3578 4666 
L 3578 4134 
L 1259 4134 
L 1259 2753 
L 3481 2753 
L 3481 2222 
L 1259 2222 
L 1259 531 
L 3634 531 
L 3634 0 
L 628 0 
L 628 4666 
z
" id="DejaVuSans-45" transform="scale(0.015625)"/>
      <path d="M 3425 4513 
L 3425 3897 
Q 3066 4069 2747 4153 
Q 2428 4238 2131 4238 
Q 1616 4238 1336 4038 
Q 1056 3838 1056 3469 
Q 1056 3159 1242 3001 
Q 1428 2844 1947 2747 
L 2328 2669 
Q 3034 2534 3370 2195 
Q 3706 1856 3706 1288 
Q 3706 609 3251 259 
Q 2797 -91 1919 -91 
Q 1588 -91 1214 -16 
Q 841 59 441 206 
L 441 856 
Q 825 641 1194 531 
Q 1563 422 1919 422 
Q 2459 422 2753 634 
Q 3047 847 3047 1241 
Q 3047 1584 2836 1778 
Q 2625 1972 2144 2069 
L 1759 2144 
Q 1053 2284 737 2584 
Q 422 2884 422 3419 
Q 422 4038 858 4394 
Q 1294 4750 2059 4750 
Q 2388 4750 2728 4690 
Q 3069 4631 3425 4513 
z
" id="DejaVuSans-53" transform="scale(0.015625)"/>
      <path d="M 628 4666 
L 3309 4666 
L 3309 4134 
L 1259 4134 
L 1259 2759 
L 3109 2759 
L 3109 2228 
L 1259 2228 
L 1259 0 
L 628 0 
L 628 4666 
z
" id="DejaVuSans-46" transform="scale(0.015625)"/>
      <path d="M 556 4666 
L 1191 4666 
L 1191 1831 
Q 1191 1081 1462 751 
Q 1734 422 2344 422 
Q 2950 422 3222 751 
Q 3494 1081 3494 1831 
L 3494 4666 
L 4128 4666 
L 4128 1753 
Q 4128 841 3676 375 
Q 3225 -91 2344 -91 
Q 1459 -91 1007 375 
Q 556 841 556 1753 
L 556 4666 
z
" id="DejaVuSans-55" transform="scale(0.015625)"/>
      <path d="M 628 4666 
L 1478 4666 
L 3547 763 
L 3547 4666 
L 4159 4666 
L 4159 0 
L 3309 0 
L 1241 3903 
L 1241 0 
L 628 0 
L 628 4666 
z
" id="DejaVuSans-4e" transform="scale(0.015625)"/>
      <path d="M 1259 4147 
L 1259 519 
L 2022 519 
Q 2988 519 3436 956 
Q 3884 1394 3884 2338 
Q 3884 3275 3436 3711 
Q 2988 4147 2022 4147 
L 1259 4147 
z
M 628 4666 
L 1925 4666 
Q 3281 4666 3915 4102 
Q 4550 3538 4550 2338 
Q 4550 1131 3912 565 
Q 3275 0 1925 0 
L 628 0 
L 628 4666 
z
" id="DejaVuSans-44" transform="scale(0.015625)"/>
     </defs>
     <use xlink:href="#DejaVuSans-54"/>
     <use x="61.083984" xlink:href="#DejaVuSans-45"/>
     <use x="124.267578" xlink:href="#DejaVuSans-53"/>
     <use x="187.744141" xlink:href="#DejaVuSans-54"/>
     <use x="248.828125" xlink:href="#DejaVuSans-46"/>
     <use x="306.347656" xlink:href="#DejaVuSans-55"/>
     <use x="379.541016" xlink:href="#DejaVuSans-4e"/>
     <use x="454.345703" xlink:href="#DejaVuSans-44"/>
     <use x="531.347656" xlink:href="#DejaVuSans-53"/>
     <use x="594.824219" xlink:href="#DejaVuSans-31"/>
     <use x="658.447266" xlink:href="#DejaVuSans-35"/>
     <use x="722.070312" xlink:href="#DejaVuSans-35"/>
     <use x="785.693359" xlink:href="#DejaVuSans-30"/>
    </g>
    <!-- daily_report -->
    <g transform="translate(200.466563 35.472)scale(0.12 -0.12)">
     <defs>
      <path d="M 603 3500 
L 1178 3500 
L 1178 0 
L 603 0 
L 603 3500 
z
M 603 4863 
L 1178 4863 
L 1178 4134 
L 603 4134 
L 603 4863 
z
" id="DejaVuSans-69" transform="scale(0.015625)"/>
      <path d="M 603 4863 
L 1178 4863 
L 1178 0 
L 603 0 
L 603 4863 
z
" id="DejaVuSans-6c" transform="scale(0.015625)"/>
      <path d="M 2059 -325 
Q 1816 -950 1584 -1140 
Q 1353 -1331 966 -1331 
L 506 -1331 
L 506 -850 
L 844 -850 
Q 1081 -850 1212 -737 
Q 1344 -625 1503 -206 
L 1606 56 
L 191 3500 
L 800 3500 
L 1894 763 
L 2988 3500 
L 3597 3500 
L 2059 -325 
z
" id="DejaVuSans-79" transform="scale(0.015625)"/>
      <path d="M 3263 -1063 
L 3263 -1509 
L -63 -1509 
L -63 -1063 
L 3263 -1063 
z
" id="DejaVuSans-5f" transform="scale(0.015625)"/>
      <path d="M 2631 2963 
Q 2534 3019 2420 3045 
Q 2306 3072 2169 3072 
Q 1681 3072 1420 2755 
Q 1159 2438 1159 1844 
L 1159 0 
L 581 0 
L 581 3500 
L 1159 3500 
L 1159 2956 
Q 1341 3275 1631 3429 
Q 1922 3584 2338 3584 
Q 2397 3584 2469 3576 
Q 2541 3569 2628 3553 
L 2631 2963 
z
" id="DejaVuSans-72" transform="scale(0.015625)"/>
      <path d="M 1159 525 
L 1159 -1331 
L 581 -1331 
L 581 3500 
L 1159 3500 
L 1159 2969 
Q 1341 3281 1617 3432 
Q 1894 3584 2278 3584 
Q 2916 3584 3314 3078 
Q 3713 2572 3713 1747 
Q 3713 922 3314 415 
Q 2916 -91 2278 -91 
Q 1894 -91 1617 61 
Q 1341 213 1159 525 
z
M 3116 1747 
Q 3116 2381 2855 2742 
Q 2594 3103 2138 3103 
Q 1681 3103 1420 2742 
Q 1159 2381 1159 1747 
Q 1159 1113 1420 752 
Q 1681 391 2138 391 
Q 2594 391 2855 752 
Q 3116 1113 3116 1747 
z
" id="DejaVuSans-70" transform="scale(0.015625)"/>
      <path d="M 1959 3097 
Q 1497 3097 1228 2736 
Q 959 2375 959 1747 
Q 959 1119 1226 758 
Q 1494 397 1959 397 
Q 2419 397 2687 759 
Q 2956 1122 2956 1747 
Q 2956 2369 2687 2733 
Q 2419 3097 1959 3097 
z
M 1959 3584 
Q 2709 3584 3137 3096 
Q 3566 2609 3566 1747 
Q 3566 888 3137 398 
Q 2709 -91 1959 -91 
Q 1206 -91 779 398 
Q 353 888 353 1747 
Q 353 2609 779 3096 
Q 1206 3584 1959 3584 
z
" id="DejaVuSans-6f" transform="scale(0.015625)"/>
     </defs>
     <use xlink:href="#DejaVuSans-64"/>
     <use x="63.476562" xlink:href="#DejaVuSans-61"/>
     <use x="124.755859" xlink:href="#DejaVuSans-69"/>
     <use x="152.539062" xlink:href="#DejaVuSans-6c"/>
     <use x="180.322266" xlink:href="#DejaVuSans-79"/>
     <use x="239.501953" xlink:href="#DejaVuSans-5f"/>
     <use x="289.501953" xlink:href="#DejaVuSans-72"/>
     <use x="328.365234" xlink:href="#DejaVuSans-65"/>
     <use x="389.888672" xlink:href="#DejaVuSans-70"/>
     <use x="453.365234" xlink:href="#DejaVuSans-6f"/>
     <use x="514.546875" xlink:href="#DejaVuSans-72"/>
     <use x="555.660156" xlink:href="#DejaVuSans-74"/>
    </g>
   </g>
   <g id="legend_1">
    <g id="patch_7">
     <path d="M 64.6 122.862625 
L 155.792188 122.862625 
Q 157.792188 122.862625 157.792188 120.862625 
L 157.792188 48.472 
Q 157.792188 46.472 155.792188 46.472 
L 64.6 46.472 
Q 62.6 46.472 62.6 48.472 
L 62.6 120.862625 
Q 62.6 122.862625 64.6 122.862625 
z
" style="fill:#ffffff;opacity:0.8;stroke:#cccccc;stroke-linejoin:miter;"/>
    </g>
    <g id="line2d_16">
     <path d="M 66.6 54.570437 
L 86.6 54.570437 
" style="fill:none;stroke:#0000ff;stroke-linecap:square;stroke-opacity:0.9;stroke-width:2;"/>
    </g>
    <g id="line2d_17"/>
    <g id="text_13">
     <!-- alpaca -->
     <g transform="translate(94.6 58.070437)scale(0.1 -0.1)">
      <defs>
       <path d="M 3122 3366 
L 3122 2828 
Q 2878 2963 2633 3030 
Q 2388 3097 2138 3097 
Q 1578 3097 1268 2742 
Q 959 2388 959 1747 
Q 959 1106 1268 751 
Q 1578 397 2138 397 
Q 2388 397 2633 464 
Q 2878 531 3122 666 
L 3122 134 
Q 2881 22 2623 -34 
Q 2366 -91 2075 -91 
Q 1284 -91 818 406 
Q 353 903 353 1747 
Q 353 2603 823 3093 
Q 1294 3584 2113 3584 
Q 2378 3584 2631 3529 
Q 2884 3475 3122 3366 
z
" id="DejaVuSans-63" transform="scale(0.015625)"/>
      </defs>
      <use xlink:href="#DejaVuSans-61"/>
      <use x="61.279297" xlink:href="#DejaVuSans-6c"/>
      <use x="89.0625" xlink:href="#DejaVuSans-70"/>
      <use x="152.539062" xlink:href="#DejaVuSans-61"/>
      <use x="213.818359" xlink:href="#DejaVuSans-63"/>
      <use x="268.798828" xlink:href="#DejaVuSans-61"/>
     </g>
    </g>
    <g id="line2d_18">
     <path d="M 66.6 69.248562 
L 86.6 69.248562 
" style="fill:none;stroke:#ff0000;stroke-linecap:square;stroke-opacity:0.9;stroke-width:2;"/>
    </g>
    <g id="line2d_19"/>
    <g id="text_14">
     <!-- mattress -->
     <g transform="translate(94.6 72.748562)scale(0.1 -0.1)">
      <defs>
       <path d="M 3328 2828 
Q 3544 3216 3844 3400 
Q 4144 3584 4550 3584 
Q 5097 3584 5394 3201 
Q 5691 2819 5691 2113 
L 5691 0 
L 5113 0 
L 5113 2094 
Q 5113 2597 4934 2840 
Q 4756 3084 4391 3084 
Q 3944 3084 3684 2787 
Q 3425 2491 3425 1978 
L 3425 0 
L 2847 0 
L 2847 2094 
Q 2847 2600 2669 2842 
Q 2491 3084 2119 3084 
Q 1678 3084 1418 2786 
Q 1159 2488 1159 1978 
L 1159 0 
L 581 0 
L 581 3500 
L 1159 3500 
L 1159 2956 
Q 1356 3278 1631 3431 
Q 1906 3584 2284 3584 
Q 2666 3584 2933 3390 
Q 3200 3197 3328 2828 
z
" id="DejaVuSans-6d" transform="scale(0.015625)"/>
       <path d="M 2834 3397 
L 2834 2853 
Q 2591 2978 2328 3040 
Q 2066 3103 1784 3103 
Q 1356 3103 1142 2972 
Q 928 2841 928 2578 
Q 928 2378 1081 2264 
Q 1234 2150 1697 2047 
L 1894 2003 
Q 2506 1872 2764 1633 
Q 3022 1394 3022 966 
Q 3022 478 2636 193 
Q 2250 -91 1575 -91 
Q 1294 -91 989 -36 
Q 684 19 347 128 
L 347 722 
Q 666 556 975 473 
Q 1284 391 1588 391 
Q 1994 391 2212 530 
Q 2431 669 2431 922 
Q 2431 1156 2273 1281 
Q 2116 1406 1581 1522 
L 1381 1569 
Q 847 1681 609 1914 
Q 372 2147 372 2553 
Q 372 3047 722 3315 
Q 1072 3584 1716 3584 
Q 2034 3584 2315 3537 
Q 2597 3491 2834 3397 
z
" id="DejaVuSans-73" transform="scale(0.015625)"/>
      </defs>
      <use xlink:href="#DejaVuSans-6d"/>
      <use x="97.412109" xlink:href="#DejaVuSans-61"/>
      <use x="158.691406" xlink:href="#DejaVuSans-74"/>
      <use x="197.900391" xlink:href="#DejaVuSans-74"/>
      <use x="237.109375" xlink:href="#DejaVuSans-72"/>
      <use x="275.972656" xlink:href="#DejaVuSans-65"/>
      <use x="337.496094" xlink:href="#DejaVuSans-73"/>
      <use x="389.595703" xlink:href="#DejaVuSans-73"/>
     </g>
    </g>
    <g id="line2d_20">
     <path d="M 66.6 83.926687 
L 86.6 83.926687 
" style="fill:none;stroke:#ff8040;stroke-linecap:square;stroke-opacity:0.9;stroke-width:2;"/>
    </g>
    <g id="line2d_21"/>
    <g id="text_15">
     <!-- trader-0850 -->
     <g transform="translate(94.6 87.426687)scale(0.1 -0.1)">
      <defs>
       <path d="M 2034 2216 
Q 1584 2216 1326 1975 
Q 1069 1734 1069 1313 
Q 1069 891 1326 650 
Q 1584 409 2034 409 
Q 2484 409 2743 651 
Q 3003 894 3003 1313 
Q 3003 1734 2745 1975 
Q 2488 2216 2034 2216 
z
M 1403 2484 
Q 997 2584 770 2862 
Q 544 3141 544 3541 
Q 544 4100 942 4425 
Q 1341 4750 2034 4750 
Q 2731 4750 3128 4425 
Q 3525 4100 3525 3541 
Q 3525 3141 3298 2862 
Q 3072 2584 2669 2484 
Q 3125 2378 3379 2068 
Q 3634 1759 3634 1313 
Q 3634 634 3220 271 
Q 2806 -91 2034 -91 
Q 1263 -91 848 271 
Q 434 634 434 1313 
Q 434 1759 690 2068 
Q 947 2378 1403 2484 
z
M 1172 3481 
Q 1172 3119 1398 2916 
Q 1625 2713 2034 2713 
Q 2441 2713 2670 2916 
Q 2900 3119 2900 3481 
Q 2900 3844 2670 4047 
Q 2441 4250 2034 4250 
Q 1625 4250 1398 4047 
Q 1172 3844 1172 3481 
z
" id="DejaVuSans-38" transform="scale(0.015625)"/>
      </defs>
      <use xlink:href="#DejaVuSans-74"/>
      <use x="39.208984" xlink:href="#DejaVuSans-72"/>
      <use x="80.322266" xlink:href="#DejaVuSans-61"/>
      <use x="141.601562" xlink:href="#DejaVuSans-64"/>
      <use x="205.078125" xlink:href="#DejaVuSans-65"/>
      <use x="266.601562" xlink:href="#DejaVuSans-72"/>
      <use x="301.339844" xlink:href="#DejaVuSans-2d"/>
      <use x="337.423828" xlink:href="#DejaVuSans-30"/>
      <use x="401.046875" xlink:href="#DejaVuSans-38"/>
      <use x="464.669922" xlink:href="#DejaVuSans-35"/>
      <use x="528.292969" xlink:href="#DejaVuSans-30"/>
     </g>
    </g>
    <g id="line2d_22">
     <path d="M 66.6 98.604812 
L 86.6 98.604812 
" style="fill:none;stroke:#0d0d0d;stroke-linecap:square;stroke-opacity:0.25;stroke-width:2;"/>
    </g>
    <g id="line2d_23"/>
    <g id="text_16">
     <!-- rando-min -->
     <g transform="translate(94.6 102.104812)scale(0.1 -0.1)">
      <defs>
       <path d="M 3513 2113 
L 3513 0 
L 2938 0 
L 2938 2094 
Q 2938 2591 2744 2837 
Q 2550 3084 2163 3084 
Q 1697 3084 1428 2787 
Q 1159 2491 1159 1978 
L 1159 0 
L 581 0 
L 581 3500 
L 1159 3500 
L 1159 2956 
Q 1366 3272 1645 3428 
Q 1925 3584 2291 3584 
Q 2894 3584 3203 3211 
Q 3513 2838 3513 2113 
z
" id="DejaVuSans-6e" transform="scale(0.015625)"/>
      </defs>
      <use xlink:href="#DejaVuSans-72"/>
      <use x="41.113281" xlink:href="#DejaVuSans-61"/>
      <use x="102.392578" xlink:href="#DejaVuSans-6e"/>
      <use x="165.771484" xlink:href="#DejaVuSans-64"/>
      <use x="229.248047" xlink:href="#DejaVuSans-6f"/>
      <use x="292.304688" xlink:href="#DejaVuSans-2d"/>
      <use x="328.388672" xlink:href="#DejaVuSans-6d"/>
      <use x="425.800781" xlink:href="#DejaVuSans-69"/>
      <use x="453.583984" xlink:href="#DejaVuSans-6e"/>
     </g>
    </g>
    <g id="line2d_24">
     <path d="M 66.6 113.282937 
L 86.6 113.282937 
" style="fill:none;stroke:#0d0d0d;stroke-linecap:square;stroke-opacity:0.25;stroke-width:2;"/>
    </g>
    <g id="line2d_25"/>
    <g id="text_17">
     <!-- rando-max -->
     <g transform="translate(94.6 116.782937)scale(0.1 -0.1)">
      <defs>
       <path d="M 3513 3500 
L 2247 1797 
L 3578 0 
L 2900 0 
L 1881 1375 
L 863 0 
L 184 0 
L 1544 1831 
L 300 3500 
L 978 3500 
L 1906 2253 
L 2834 3500 
L 3513 3500 
z
" id="DejaVuSans-78" transform="scale(0.015625)"/>
      </defs>
      <use xlink:href="#DejaVuSans-72"/>
      <use x="41.113281" xlink:href="#DejaVuSans-61"/>
      <use x="102.392578" xlink:href="#DejaVuSans-6e"/>
      <use x="165.771484" xlink:href="#DejaVuSans-64"/>
      <use x="229.248047" xlink:href="#DejaVuSans-6f"/>
      <use x="292.304688" xlink:href="#DejaVuSans-2d"/>
      <use x="328.388672" xlink:href="#DejaVuSans-6d"/>
      <use x="425.800781" xlink:href="#DejaVuSans-61"/>
      <use x="487.080078" xlink:href="#DejaVuSans-78"/>
     </g>
    </g>
   </g>
  </g>
 </g>
 <defs>
  <clipPath id="p03c0749be0">
   <rect height="235.008" width="357.12" x="57.6" y="41.472"/>
  </clipPath>
 </defs>
</svg>
