<?xml version="1.0" encoding="utf-8" standalone="no"?>
<!DOCTYPE svg PUBLIC "-//W3C//DTD SVG 1.1//EN"
  "http://www.w3.org/Graphics/SVG/1.1/DTD/svg11.dtd">
<svg height="345.6pt" version="1.1" viewBox="0 0 460.8 345.6" width="460.8pt" xmlns="http://www.w3.org/2000/svg" xmlns:xlink="http://www.w3.org/1999/xlink">
 <metadata>
  <rdf:RDF xmlns:cc="http://creativecommons.org/ns#" xmlns:dc="http://purl.org/dc/elements/1.1/" xmlns:rdf="http://www.w3.org/1999/02/22-rdf-syntax-ns#">
   <cc:Work>
    <dc:type rdf:resource="http://purl.org/dc/dcmitype/StillImage"/>
    <dc:date>2022-05-28T10:02:36.798952</dc:date>
    <dc:format>image/svg+xml</dc:format>
    <dc:creator>
     <cc:Agent>
      <dc:title>Matplotlib v3.4.3, https://matplotlib.org/</dc:title>
     </cc:Agent>
    </dc:creator>
   </cc:Work>
  </rdf:RDF>
 </metadata>
 <defs>
  <style type="text/css">*{stroke-linecap:butt;stroke-linejoin:round;}</style>
 </defs>
 <g id="figure_1">
  <g id="patch_1">
   <path d="M 0 345.6 
L 460.8 345.6 
L 460.8 0 
L 0 0 
z
" style="fill:#ffffff;"/>
  </g>
  <g id="axes_1">
   <g id="patch_2">
    <path d="M 57.6 276.48 
L 414.72 276.48 
L 414.72 41.472 
L 57.6 41.472 
z
" style="fill:#ffffff;"/>
   </g>
   <g id="matplotlib.axis_1">
    <g id="xtick_1">
     <g id="line2d_1">
      <defs>
       <path d="M 0 0 
L 0 3.5 
" id="m148286b1b3" style="stroke:#000000;stroke-width:0.8;"/>
      </defs>
      <g>
       <use style="stroke:#000000;stroke-width:0.8;" x="96.045933" xlink:href="#m148286b1b3" y="276.48"/>
      </g>
     </g>
     <g id="text_1">
      <!-- 2021-12 -->
      <g transform="translate(58.821112 310.951846)rotate(-30)scale(0.1 -0.1)">
       <defs>
        <path d="M 1228 531 
L 3431 531 
L 3431 0 
L 469 0 
L 469 531 
Q 828 903 1448 1529 
Q 2069 2156 2228 2338 
Q 2531 2678 2651 2914 
Q 2772 3150 2772 3378 
Q 2772 3750 2511 3984 
Q 2250 4219 1831 4219 
Q 1534 4219 1204 4116 
Q 875 4013 500 3803 
L 500 4441 
Q 881 4594 1212 4672 
Q 1544 4750 1819 4750 
Q 2544 4750 2975 4387 
Q 3406 4025 3406 3419 
Q 3406 3131 3298 2873 
Q 3191 2616 2906 2266 
Q 2828 2175 2409 1742 
Q 1991 1309 1228 531 
z
" id="DejaVuSans-32" transform="scale(0.015625)"/>
        <path d="M 2034 4250 
Q 1547 4250 1301 3770 
Q 1056 3291 1056 2328 
Q 1056 1369 1301 889 
Q 1547 409 2034 409 
Q 2525 409 2770 889 
Q 3016 1369 3016 2328 
Q 3016 3291 2770 3770 
Q 2525 4250 2034 4250 
z
M 2034 4750 
Q 2819 4750 3233 4129 
Q 3647 3509 3647 2328 
Q 3647 1150 3233 529 
Q 2819 -91 2034 -91 
Q 1250 -91 836 529 
Q 422 1150 422 2328 
Q 422 3509 836 4129 
Q 1250 4750 2034 4750 
z
" id="DejaVuSans-30" transform="scale(0.015625)"/>
        <path d="M 794 531 
L 1825 531 
L 1825 4091 
L 703 3866 
L 703 4441 
L 1819 4666 
L 2450 4666 
L 2450 531 
L 3481 531 
L 3481 0 
L 794 0 
L 794 531 
z
" id="DejaVuSans-31" transform="scale(0.015625)"/>
        <path d="M 313 2009 
L 1997 2009 
L 1997 1497 
L 313 1497 
L 313 2009 
z
" id="DejaVuSans-2d" transform="scale(0.015625)"/>
       </defs>
       <use xlink:href="#DejaVuSans-32"/>
       <use x="63.623047" xlink:href="#DejaVuSans-30"/>
       <use x="127.246094" xlink:href="#DejaVuSans-32"/>
       <use x="190.869141" xlink:href="#DejaVuSans-31"/>
       <use x="254.492188" xlink:href="#DejaVuSans-2d"/>
       <use x="290.576172" xlink:href="#DejaVuSans-31"/>
       <use x="354.199219" xlink:href="#DejaVuSans-32"/>
      </g>
     </g>
    </g>
    <g id="xtick_2">
     <g id="line2d_2">
      <g>
       <use style="stroke:#000000;stroke-width:0.8;" x="149.015885" xlink:href="#m148286b1b3" y="276.48"/>
      </g>
     </g>
     <g id="text_2">
      <!-- 2022-01 -->
      <g transform="translate(111.791064 310.951846)rotate(-30)scale(0.1 -0.1)">
       <use xlink:href="#DejaVuSans-32"/>
       <use x="63.623047" xlink:href="#DejaVuSans-30"/>
       <use x="127.246094" xlink:href="#DejaVuSans-32"/>
       <use x="190.869141" xlink:href="#DejaVuSans-32"/>
       <use x="254.492188" xlink:href="#DejaVuSans-2d"/>
       <use x="290.576172" xlink:href="#DejaVuSans-30"/>
       <use x="354.199219" xlink:href="#DejaVuSans-31"/>
      </g>
     </g>
    </g>
    <g id="xtick_3">
     <g id="line2d_3">
      <g>
       <use style="stroke:#000000;stroke-width:0.8;" x="201.985837" xlink:href="#m148286b1b3" y="276.48"/>
      </g>
     </g>
     <g id="text_3">
      <!-- 2022-02 -->
      <g transform="translate(164.761017 310.951846)rotate(-30)scale(0.1 -0.1)">
       <use xlink:href="#DejaVuSans-32"/>
       <use x="63.623047" xlink:href="#DejaVuSans-30"/>
       <use x="127.246094" xlink:href="#DejaVuSans-32"/>
       <use x="190.869141" xlink:href="#DejaVuSans-32"/>
       <use x="254.492188" xlink:href="#DejaVuSans-2d"/>
       <use x="290.576172" xlink:href="#DejaVuSans-30"/>
       <use x="354.199219" xlink:href="#DejaVuSans-32"/>
      </g>
     </g>
    </g>
    <g id="xtick_4">
     <g id="line2d_4">
      <g>
       <use style="stroke:#000000;stroke-width:0.8;" x="249.829665" xlink:href="#m148286b1b3" y="276.48"/>
      </g>
     </g>
     <g id="text_4">
      <!-- 2022-03 -->
      <g transform="translate(212.604844 310.951846)rotate(-30)scale(0.1 -0.1)">
       <defs>
        <path d="M 2597 2516 
Q 3050 2419 3304 2112 
Q 3559 1806 3559 1356 
Q 3559 666 3084 287 
Q 2609 -91 1734 -91 
Q 1441 -91 1130 -33 
Q 819 25 488 141 
L 488 750 
Q 750 597 1062 519 
Q 1375 441 1716 441 
Q 2309 441 2620 675 
Q 2931 909 2931 1356 
Q 2931 1769 2642 2001 
Q 2353 2234 1838 2234 
L 1294 2234 
L 1294 2753 
L 1863 2753 
Q 2328 2753 2575 2939 
Q 2822 3125 2822 3475 
Q 2822 3834 2567 4026 
Q 2313 4219 1838 4219 
Q 1578 4219 1281 4162 
Q 984 4106 628 3988 
L 628 4550 
Q 988 4650 1302 4700 
Q 1616 4750 1894 4750 
Q 2613 4750 3031 4423 
Q 3450 4097 3450 3541 
Q 3450 3153 3228 2886 
Q 3006 2619 2597 2516 
z
" id="DejaVuSans-33" transform="scale(0.015625)"/>
       </defs>
       <use xlink:href="#DejaVuSans-32"/>
       <use x="63.623047" xlink:href="#DejaVuSans-30"/>
       <use x="127.246094" xlink:href="#DejaVuSans-32"/>
       <use x="190.869141" xlink:href="#DejaVuSans-32"/>
       <use x="254.492188" xlink:href="#DejaVuSans-2d"/>
       <use x="290.576172" xlink:href="#DejaVuSans-30"/>
       <use x="354.199219" xlink:href="#DejaVuSans-33"/>
      </g>
     </g>
    </g>
    <g id="xtick_5">
     <g id="line2d_5">
      <g>
       <use style="stroke:#000000;stroke-width:0.8;" x="302.799617" xlink:href="#m148286b1b3" y="276.48"/>
      </g>
     </g>
     <g id="text_5">
      <!-- 2022-04 -->
      <g transform="translate(265.574796 310.951846)rotate(-30)scale(0.1 -0.1)">
       <defs>
        <path d="M 2419 4116 
L 825 1625 
L 2419 1625 
L 2419 4116 
z
M 2253 4666 
L 3047 4666 
L 3047 1625 
L 3713 1625 
L 3713 1100 
L 3047 1100 
L 3047 0 
L 2419 0 
L 2419 1100 
L 313 1100 
L 313 1709 
L 2253 4666 
z
" id="DejaVuSans-34" transform="scale(0.015625)"/>
       </defs>
       <use xlink:href="#DejaVuSans-32"/>
       <use x="63.623047" xlink:href="#DejaVuSans-30"/>
       <use x="127.246094" xlink:href="#DejaVuSans-32"/>
       <use x="190.869141" xlink:href="#DejaVuSans-32"/>
       <use x="254.492188" xlink:href="#DejaVuSans-2d"/>
       <use x="290.576172" xlink:href="#DejaVuSans-30"/>
       <use x="354.199219" xlink:href="#DejaVuSans-34"/>
      </g>
     </g>
    </g>
    <g id="xtick_6">
     <g id="line2d_6">
      <g>
       <use style="stroke:#000000;stroke-width:0.8;" x="354.060861" xlink:href="#m148286b1b3" y="276.48"/>
      </g>
     </g>
     <g id="text_6">
      <!-- 2022-05 -->
      <g transform="translate(316.83604 310.951846)rotate(-30)scale(0.1 -0.1)">
       <defs>
        <path d="M 691 4666 
L 3169 4666 
L 3169 4134 
L 1269 4134 
L 1269 2991 
Q 1406 3038 1543 3061 
Q 1681 3084 1819 3084 
Q 2600 3084 3056 2656 
Q 3513 2228 3513 1497 
Q 3513 744 3044 326 
Q 2575 -91 1722 -91 
Q 1428 -91 1123 -41 
Q 819 9 494 109 
L 494 744 
Q 775 591 1075 516 
Q 1375 441 1709 441 
Q 2250 441 2565 725 
Q 2881 1009 2881 1497 
Q 2881 1984 2565 2268 
Q 2250 2553 1709 2553 
Q 1456 2553 1204 2497 
Q 953 2441 691 2322 
L 691 4666 
z
" id="DejaVuSans-35" transform="scale(0.015625)"/>
       </defs>
       <use xlink:href="#DejaVuSans-32"/>
       <use x="63.623047" xlink:href="#DejaVuSans-30"/>
       <use x="127.246094" xlink:href="#DejaVuSans-32"/>
       <use x="190.869141" xlink:href="#DejaVuSans-32"/>
       <use x="254.492188" xlink:href="#DejaVuSans-2d"/>
       <use x="290.576172" xlink:href="#DejaVuSans-30"/>
       <use x="354.199219" xlink:href="#DejaVuSans-35"/>
      </g>
     </g>
    </g>
    <g id="xtick_7">
     <g id="line2d_7">
      <g>
       <use style="stroke:#000000;stroke-width:0.8;" x="407.030813" xlink:href="#m148286b1b3" y="276.48"/>
      </g>
     </g>
     <g id="text_7">
      <!-- 2022-06 -->
      <g transform="translate(369.805993 310.951846)rotate(-30)scale(0.1 -0.1)">
       <defs>
        <path d="M 2113 2584 
Q 1688 2584 1439 2293 
Q 1191 2003 1191 1497 
Q 1191 994 1439 701 
Q 1688 409 2113 409 
Q 2538 409 2786 701 
Q 3034 994 3034 1497 
Q 3034 2003 2786 2293 
Q 2538 2584 2113 2584 
z
M 3366 4563 
L 3366 3988 
Q 3128 4100 2886 4159 
Q 2644 4219 2406 4219 
Q 1781 4219 1451 3797 
Q 1122 3375 1075 2522 
Q 1259 2794 1537 2939 
Q 1816 3084 2150 3084 
Q 2853 3084 3261 2657 
Q 3669 2231 3669 1497 
Q 3669 778 3244 343 
Q 2819 -91 2113 -91 
Q 1303 -91 875 529 
Q 447 1150 447 2328 
Q 447 3434 972 4092 
Q 1497 4750 2381 4750 
Q 2619 4750 2861 4703 
Q 3103 4656 3366 4563 
z
" id="DejaVuSans-36" transform="scale(0.015625)"/>
       </defs>
       <use xlink:href="#DejaVuSans-32"/>
       <use x="63.623047" xlink:href="#DejaVuSans-30"/>
       <use x="127.246094" xlink:href="#DejaVuSans-32"/>
       <use x="190.869141" xlink:href="#DejaVuSans-32"/>
       <use x="254.492188" xlink:href="#DejaVuSans-2d"/>
       <use x="290.576172" xlink:href="#DejaVuSans-30"/>
       <use x="354.199219" xlink:href="#DejaVuSans-36"/>
      </g>
     </g>
    </g>
    <g id="text_8">
     <!-- date -->
     <g transform="translate(224.885 324.351346)scale(0.1 -0.1)">
      <defs>
       <path d="M 2906 2969 
L 2906 4863 
L 3481 4863 
L 3481 0 
L 2906 0 
L 2906 525 
Q 2725 213 2448 61 
Q 2172 -91 1784 -91 
Q 1150 -91 751 415 
Q 353 922 353 1747 
Q 353 2572 751 3078 
Q 1150 3584 1784 3584 
Q 2172 3584 2448 3432 
Q 2725 3281 2906 2969 
z
M 947 1747 
Q 947 1113 1208 752 
Q 1469 391 1925 391 
Q 2381 391 2643 752 
Q 2906 1113 2906 1747 
Q 2906 2381 2643 2742 
Q 2381 3103 1925 3103 
Q 1469 3103 1208 2742 
Q 947 2381 947 1747 
z
" id="DejaVuSans-64" transform="scale(0.015625)"/>
       <path d="M 2194 1759 
Q 1497 1759 1228 1600 
Q 959 1441 959 1056 
Q 959 750 1161 570 
Q 1363 391 1709 391 
Q 2188 391 2477 730 
Q 2766 1069 2766 1631 
L 2766 1759 
L 2194 1759 
z
M 3341 1997 
L 3341 0 
L 2766 0 
L 2766 531 
Q 2569 213 2275 61 
Q 1981 -91 1556 -91 
Q 1019 -91 701 211 
Q 384 513 384 1019 
Q 384 1609 779 1909 
Q 1175 2209 1959 2209 
L 2766 2209 
L 2766 2266 
Q 2766 2663 2505 2880 
Q 2244 3097 1772 3097 
Q 1472 3097 1187 3025 
Q 903 2953 641 2809 
L 641 3341 
Q 956 3463 1253 3523 
Q 1550 3584 1831 3584 
Q 2591 3584 2966 3190 
Q 3341 2797 3341 1997 
z
" id="DejaVuSans-61" transform="scale(0.015625)"/>
       <path d="M 1172 4494 
L 1172 3500 
L 2356 3500 
L 2356 3053 
L 1172 3053 
L 1172 1153 
Q 1172 725 1289 603 
Q 1406 481 1766 481 
L 2356 481 
L 2356 0 
L 1766 0 
Q 1100 0 847 248 
Q 594 497 594 1153 
L 594 3053 
L 172 3053 
L 172 3500 
L 594 3500 
L 594 4494 
L 1172 4494 
z
" id="DejaVuSans-74" transform="scale(0.015625)"/>
       <path d="M 3597 1894 
L 3597 1613 
L 953 1613 
Q 991 1019 1311 708 
Q 1631 397 2203 397 
Q 2534 397 2845 478 
Q 3156 559 3463 722 
L 3463 178 
Q 3153 47 2828 -22 
Q 2503 -91 2169 -91 
Q 1331 -91 842 396 
Q 353 884 353 1716 
Q 353 2575 817 3079 
Q 1281 3584 2069 3584 
Q 2775 3584 3186 3129 
Q 3597 2675 3597 1894 
z
M 3022 2063 
Q 3016 2534 2758 2815 
Q 2500 3097 2075 3097 
Q 1594 3097 1305 2825 
Q 1016 2553 972 2059 
L 3022 2063 
z
" id="DejaVuSans-65" transform="scale(0.015625)"/>
      </defs>
      <use xlink:href="#DejaVuSans-64"/>
      <use x="63.476562" xlink:href="#DejaVuSans-61"/>
      <use x="124.755859" xlink:href="#DejaVuSans-74"/>
      <use x="163.964844" xlink:href="#DejaVuSans-65"/>
     </g>
    </g>
   </g>
   <g id="matplotlib.axis_2">
    <g id="ytick_1">
     <g id="line2d_8">
      <defs>
       <path d="M 0 0 
L -3.5 0 
" id="mc475b24684" style="stroke:#000000;stroke-width:0.8;"/>
      </defs>
      <g>
       <use style="stroke:#000000;stroke-width:0.8;" x="57.6" xlink:href="#mc475b24684" y="268.82617"/>
      </g>
     </g>
     <g id="text_9">
      <!-- 108000 -->
      <g transform="translate(12.425 272.625389)scale(0.1 -0.1)">
       <defs>
        <path d="M 2034 2216 
Q 1584 2216 1326 1975 
Q 1069 1734 1069 1313 
Q 1069 891 1326 650 
Q 1584 409 2034 409 
Q 2484 409 2743 651 
Q 3003 894 3003 1313 
Q 3003 1734 2745 1975 
Q 2488 2216 2034 2216 
z
M 1403 2484 
Q 997 2584 770 2862 
Q 544 3141 544 3541 
Q 544 4100 942 4425 
Q 1341 4750 2034 4750 
Q 2731 4750 3128 4425 
Q 3525 4100 3525 3541 
Q 3525 3141 3298 2862 
Q 3072 2584 2669 2484 
Q 3125 2378 3379 2068 
Q 3634 1759 3634 1313 
Q 3634 634 3220 271 
Q 2806 -91 2034 -91 
Q 1263 -91 848 271 
Q 434 634 434 1313 
Q 434 1759 690 2068 
Q 947 2378 1403 2484 
z
M 1172 3481 
Q 1172 3119 1398 2916 
Q 1625 2713 2034 2713 
Q 2441 2713 2670 2916 
Q 2900 3119 2900 3481 
Q 2900 3844 2670 4047 
Q 2441 4250 2034 4250 
Q 1625 4250 1398 4047 
Q 1172 3844 1172 3481 
z
" id="DejaVuSans-38" transform="scale(0.015625)"/>
       </defs>
       <use xlink:href="#DejaVuSans-31"/>
       <use x="63.623047" xlink:href="#DejaVuSans-30"/>
       <use x="127.246094" xlink:href="#DejaVuSans-38"/>
       <use x="190.869141" xlink:href="#DejaVuSans-30"/>
       <use x="254.492188" xlink:href="#DejaVuSans-30"/>
       <use x="318.115234" xlink:href="#DejaVuSans-30"/>
      </g>
     </g>
    </g>
    <g id="ytick_2">
     <g id="line2d_9">
      <g>
       <use style="stroke:#000000;stroke-width:0.8;" x="57.6" xlink:href="#mc475b24684" y="242.529228"/>
      </g>
     </g>
     <g id="text_10">
      <!-- 110000 -->
      <g transform="translate(12.425 246.328447)scale(0.1 -0.1)">
       <use xlink:href="#DejaVuSans-31"/>
       <use x="63.623047" xlink:href="#DejaVuSans-31"/>
       <use x="127.246094" xlink:href="#DejaVuSans-30"/>
       <use x="190.869141" xlink:href="#DejaVuSans-30"/>
       <use x="254.492188" xlink:href="#DejaVuSans-30"/>
       <use x="318.115234" xlink:href="#DejaVuSans-30"/>
      </g>
     </g>
    </g>
    <g id="ytick_3">
     <g id="line2d_10">
      <g>
       <use style="stroke:#000000;stroke-width:0.8;" x="57.6" xlink:href="#mc475b24684" y="216.232287"/>
      </g>
     </g>
     <g id="text_11">
      <!-- 112000 -->
      <g transform="translate(12.425 220.031506)scale(0.1 -0.1)">
       <use xlink:href="#DejaVuSans-31"/>
       <use x="63.623047" xlink:href="#DejaVuSans-31"/>
       <use x="127.246094" xlink:href="#DejaVuSans-32"/>
       <use x="190.869141" xlink:href="#DejaVuSans-30"/>
       <use x="254.492188" xlink:href="#DejaVuSans-30"/>
       <use x="318.115234" xlink:href="#DejaVuSans-30"/>
      </g>
     </g>
    </g>
    <g id="ytick_4">
     <g id="line2d_11">
      <g>
       <use style="stroke:#000000;stroke-width:0.8;" x="57.6" xlink:href="#mc475b24684" y="189.935345"/>
      </g>
     </g>
     <g id="text_12">
      <!-- 114000 -->
      <g transform="translate(12.425 193.734564)scale(0.1 -0.1)">
       <use xlink:href="#DejaVuSans-31"/>
       <use x="63.623047" xlink:href="#DejaVuSans-31"/>
       <use x="127.246094" xlink:href="#DejaVuSans-34"/>
       <use x="190.869141" xlink:href="#DejaVuSans-30"/>
       <use x="254.492188" xlink:href="#DejaVuSans-30"/>
       <use x="318.115234" xlink:href="#DejaVuSans-30"/>
      </g>
     </g>
    </g>
    <g id="ytick_5">
     <g id="line2d_12">
      <g>
       <use style="stroke:#000000;stroke-width:0.8;" x="57.6" xlink:href="#mc475b24684" y="163.638404"/>
      </g>
     </g>
     <g id="text_13">
      <!-- 116000 -->
      <g transform="translate(12.425 167.437622)scale(0.1 -0.1)">
       <use xlink:href="#DejaVuSans-31"/>
       <use x="63.623047" xlink:href="#DejaVuSans-31"/>
       <use x="127.246094" xlink:href="#DejaVuSans-36"/>
       <use x="190.869141" xlink:href="#DejaVuSans-30"/>
       <use x="254.492188" xlink:href="#DejaVuSans-30"/>
       <use x="318.115234" xlink:href="#DejaVuSans-30"/>
      </g>
     </g>
    </g>
    <g id="ytick_6">
     <g id="line2d_13">
      <g>
       <use style="stroke:#000000;stroke-width:0.8;" x="57.6" xlink:href="#mc475b24684" y="137.341462"/>
      </g>
     </g>
     <g id="text_14">
      <!-- 118000 -->
      <g transform="translate(12.425 141.140681)scale(0.1 -0.1)">
       <use xlink:href="#DejaVuSans-31"/>
       <use x="63.623047" xlink:href="#DejaVuSans-31"/>
       <use x="127.246094" xlink:href="#DejaVuSans-38"/>
       <use x="190.869141" xlink:href="#DejaVuSans-30"/>
       <use x="254.492188" xlink:href="#DejaVuSans-30"/>
       <use x="318.115234" xlink:href="#DejaVuSans-30"/>
      </g>
     </g>
    </g>
    <g id="ytick_7">
     <g id="line2d_14">
      <g>
       <use style="stroke:#000000;stroke-width:0.8;" x="57.6" xlink:href="#mc475b24684" y="111.04452"/>
      </g>
     </g>
     <g id="text_15">
      <!-- 120000 -->
      <g transform="translate(12.425 114.843739)scale(0.1 -0.1)">
       <use xlink:href="#DejaVuSans-31"/>
       <use x="63.623047" xlink:href="#DejaVuSans-32"/>
       <use x="127.246094" xlink:href="#DejaVuSans-30"/>
       <use x="190.869141" xlink:href="#DejaVuSans-30"/>
       <use x="254.492188" xlink:href="#DejaVuSans-30"/>
       <use x="318.115234" xlink:href="#DejaVuSans-30"/>
      </g>
     </g>
    </g>
    <g id="ytick_8">
     <g id="line2d_15">
      <g>
       <use style="stroke:#000000;stroke-width:0.8;" x="57.6" xlink:href="#mc475b24684" y="84.747579"/>
      </g>
     </g>
     <g id="text_16">
      <!-- 122000 -->
      <g transform="translate(12.425 88.546798)scale(0.1 -0.1)">
       <use xlink:href="#DejaVuSans-31"/>
       <use x="63.623047" xlink:href="#DejaVuSans-32"/>
       <use x="127.246094" xlink:href="#DejaVuSans-32"/>
       <use x="190.869141" xlink:href="#DejaVuSans-30"/>
       <use x="254.492188" xlink:href="#DejaVuSans-30"/>
       <use x="318.115234" xlink:href="#DejaVuSans-30"/>
      </g>
     </g>
    </g>
    <g id="ytick_9">
     <g id="line2d_16">
      <g>
       <use style="stroke:#000000;stroke-width:0.8;" x="57.6" xlink:href="#mc475b24684" y="58.450637"/>
      </g>
     </g>
     <g id="text_17">
      <!-- 124000 -->
      <g transform="translate(12.425 62.249856)scale(0.1 -0.1)">
       <use xlink:href="#DejaVuSans-31"/>
       <use x="63.623047" xlink:href="#DejaVuSans-32"/>
       <use x="127.246094" xlink:href="#DejaVuSans-34"/>
       <use x="190.869141" xlink:href="#DejaVuSans-30"/>
       <use x="254.492188" xlink:href="#DejaVuSans-30"/>
       <use x="318.115234" xlink:href="#DejaVuSans-30"/>
      </g>
     </g>
    </g>
   </g>
   <g id="line2d_17">
    <path clip-path="url(#pcaa7c13d8b)" d="M 73.832727 160.344117 
L 75.541435 167.991021 
L 80.66756 163.83287 
L 82.376268 155.259666 
L 84.084976 154.072956 
L 87.502392 154.786842 
L 92.628517 176.35946 
L 94.337225 209.187134 
L 96.045933 222.083444 
L 97.754641 196.608488 
L 99.463349 202.3373 
L 104.589474 182.264271 
L 106.298182 158.062944 
L 108.00689 156.485538 
L 109.715598 163.828663 
L 111.424306 150.851108 
L 116.550431 161.563512 
L 118.259139 168.122997 
L 119.967847 152.37076 
L 121.676555 152.152434 
L 123.385263 173.522536 
L 128.511388 198.319662 
L 130.220096 176.562882 
L 131.928804 163.874527 
L 133.637512 155.670714 
L 140.472344 135.001557 
L 142.181053 132.418796 
L 143.889761 130.122335 
L 145.598469 133.86118 
L 147.307177 132.016759 
L 152.433301 125.563856 
L 154.14201 114.182102 
L 155.850718 129.330615 
L 157.559426 128.959698 
L 159.268134 129.696927 
L 164.394258 136.211616 
L 166.102967 121.660569 
L 167.811675 117.136104 
L 169.520383 129.725878 
L 171.229091 130.752647 
L 178.063923 151.513297 
L 179.772632 163.014216 
L 181.48134 177.423888 
L 183.190048 200.129371 
L 188.316172 197.421157 
L 190.02488 205.64403 
L 191.733589 211.172222 
L 193.442297 213.999316 
L 195.151005 192.848976 
L 200.277129 171.640908 
L 201.985837 157.683702 
L 203.694545 147.710937 
L 205.403254 168.682979 
L 207.111962 166.756993 
L 212.238086 165.375722 
L 213.946794 155.744881 
L 215.655502 139.727424 
L 217.364211 162.433342 
L 219.072919 178.25252 
L 224.199043 189.158305 
L 225.907751 173.066888 
L 227.616459 168.228926 
L 229.325167 190.069818 
L 231.033876 196.553418 
L 237.868708 211.417163 
L 239.577416 233.183412 
L 241.286124 226.19428 
L 242.994833 186.720843 
L 248.120957 187.518482 
L 249.829665 206.467761 
L 251.538373 178.742888 
L 254.955789 179.265311 
L 261.790622 221.933853 
L 263.49933 198.330902 
L 265.208038 196.159574 
L 266.916746 211.238481 
L 272.042871 218.024269 
L 277.168995 154.929067 
L 278.877703 145.726927 
L 284.003828 143.525119 
L 285.712536 132.372387 
L 287.421244 144.532883 
L 289.129952 126.022413 
L 290.83866 112.938648 
L 295.964785 108.569623 
L 297.673493 95.203351 
L 299.382201 97.621061 
L 301.090909 118.34151 
L 302.799617 111.681486 
L 307.925742 107.867334 
L 309.63445 121.397438 
L 311.343158 126.336706 
L 313.051866 114.981826 
L 314.760574 110.822808 
L 319.886699 132.952443 
L 321.595407 132.180032 
L 323.304115 116.820433 
L 325.012823 126.993162 
L 331.847656 126.879527 
L 333.556364 107.978593 
L 335.265072 99.898082 
L 336.97378 123.019637 
L 338.682488 164.068091 
L 343.808612 165.58005 
L 345.517321 197.169151 
L 347.226029 189.768169 
L 348.934737 161.142134 
L 350.643445 208.983574 
L 355.769569 206.236341 
L 357.478278 196.352167 
L 359.186986 152.856127 
L 360.895694 195.894157 
L 362.604402 198.11165 
L 367.730526 243.938499 
L 369.439234 246.964862 
L 371.147943 258.487244 
L 372.856651 259.794108 
L 374.565359 229.287385 
L 379.691483 229.139975 
L 381.400191 204.421204 
L 383.1089 258.998608 
L 384.817608 264.336646 
L 386.526316 265.797818 
L 391.65244 240.381834 
L 393.361148 240.771717 
L 395.069856 227.773451 
L 396.778565 201.598434 
L 398.487273 172.320642 
L 398.487273 172.320642 
" style="fill:none;stroke:#0000ff;stroke-linecap:square;stroke-opacity:0.9;stroke-width:2;"/>
   </g>
   <g id="line2d_18">
    <path clip-path="url(#pcaa7c13d8b)" d="M 73.832727 160.344117 
L 75.541435 168.357476 
L 80.66756 163.084511 
L 82.376268 155.156495 
L 84.084976 154.20708 
L 87.502392 188.31818 
L 92.628517 176.629573 
L 94.337225 208.710931 
L 96.045933 222.764449 
L 97.754641 196.778478 
L 99.463349 202.51647 
L 104.589474 183.004555 
L 106.298182 158.032977 
L 108.00689 155.611139 
L 109.715598 162.956749 
L 111.424306 150.807061 
L 116.550431 161.266573 
L 118.259139 168.695225 
L 119.967847 151.728388 
L 121.676555 152.484317 
L 123.385263 174.06059 
L 128.511388 197.664828 
L 130.220096 177.020551 
L 131.928804 164.474565 
L 133.637512 154.779811 
L 140.472344 135.919109 
L 142.181053 132.70271 
L 143.889761 129.155498 
L 145.598469 133.532308 
L 147.307177 131.277824 
L 152.433301 125.394941 
L 154.14201 113.799185 
L 155.850718 129.494798 
L 157.559426 129.582503 
L 159.268134 128.628052 
L 164.394258 135.305009 
L 166.102967 122.187522 
L 167.811675 117.318341 
L 169.520383 128.778368 
L 171.229091 129.846768 
L 178.063923 150.509265 
L 179.772632 161.063363 
L 181.48134 175.56714 
L 183.190048 197.932739 
L 188.316172 195.245792 
L 190.02488 202.403684 
L 191.733589 208.490701 
L 193.442297 209.711758 
L 195.151005 189.456969 
L 200.277129 169.075275 
L 201.985837 156.340358 
L 203.694545 145.062913 
L 205.403254 164.402985 
L 207.111962 162.974226 
L 212.238086 161.729799 
L 213.946794 153.120019 
L 215.655502 137.486033 
L 217.364211 159.559054 
L 219.072919 172.916247 
L 224.199043 184.876483 
L 225.907751 170.291571 
L 227.616459 165.361902 
L 229.325167 185.894656 
L 231.033876 192.723377 
L 237.868708 208.820235 
L 239.577416 227.307656 
L 241.286124 222.108653 
L 242.994833 182.352196 
L 248.120957 181.874883 
L 249.829665 201.529502 
L 251.538373 173.003979 
L 253.247081 171.828743 
L 254.955789 169.579853 
L 260.081914 197.930222 
L 261.790622 209.214011 
L 263.49933 190.075571 
L 265.208038 186.666575 
L 266.916746 200.215059 
L 272.042871 208.107863 
L 273.751579 190.656004 
L 275.460287 172.016025 
L 277.168995 149.757777 
L 278.877703 140.806863 
L 284.003828 138.624693 
L 285.712536 127.381333 
L 287.421244 138.275574 
L 289.129952 121.720147 
L 290.83866 106.355695 
L 295.964785 103.98051 
L 297.673493 91.952785 
L 299.382201 93.015531 
L 301.090909 112.182749 
L 302.799617 105.662393 
L 307.925742 102.727052 
L 309.63445 116.684172 
L 311.343158 117.854071 
L 313.051866 107.727533 
L 314.760574 100.142411 
L 319.886699 123.949669 
L 321.595407 122.446815 
L 323.304115 108.559101 
L 325.012823 116.384177 
L 331.847656 116.226025 
L 333.556364 98.558533 
L 335.265072 89.402235 
L 336.97378 113.613891 
L 338.682488 155.338011 
L 343.808612 158.856334 
L 345.517321 188.327159 
L 347.226029 181.447441 
L 348.934737 152.011606 
L 350.643445 198.881912 
L 355.769569 197.330386 
L 357.478278 185.616725 
L 359.186986 141.032856 
L 360.895694 182.058079 
L 362.604402 180.55404 
L 367.730526 229.837049 
L 369.439234 232.052328 
L 371.147943 241.674666 
L 372.856651 242.496279 
L 374.565359 212.168062 
L 379.691483 209.445903 
L 381.400191 185.007705 
L 383.1089 238.479498 
L 384.817608 243.894226 
L 386.526316 244.047296 
L 391.65244 217.359939 
L 393.361148 215.597671 
L 395.069856 203.005973 
L 396.778565 179.182917 
L 398.487273 147.928509 
L 398.487273 147.928509 
" style="fill:none;stroke:#ff0000;stroke-linecap:square;stroke-opacity:0.9;stroke-width:2;"/>
   </g>
   <g id="line2d_19">
    <path clip-path="url(#pcaa7c13d8b)" d="M 73.832727 160.344117 
L 75.541435 169.362022 
L 80.66756 163.193923 
L 82.376268 155.42386 
L 84.084976 153.479481 
L 87.502392 188.830175 
L 92.628517 175.572879 
L 94.337225 208.451218 
L 96.045933 222.001312 
L 97.754641 195.339688 
L 99.463349 202.632113 
L 104.589474 182.081086 
L 106.298182 156.895713 
L 108.00689 155.153528 
L 109.715598 162.046178 
L 111.424306 149.891702 
L 116.550431 161.454011 
L 118.259139 168.059878 
L 119.967847 151.041844 
L 121.676555 152.315535 
L 123.385263 173.912435 
L 128.511388 197.578301 
L 130.220096 175.602641 
L 131.928804 162.994955 
L 133.637512 154.510679 
L 140.472344 134.005694 
L 142.181053 131.521331 
L 143.889761 128.162739 
L 145.598469 131.623012 
L 147.307177 131.050806 
L 152.433301 124.370099 
L 154.14201 111.958524 
L 155.850718 128.030351 
L 157.559426 128.54526 
L 159.268134 128.055683 
L 164.394258 134.713824 
L 166.102967 120.020665 
L 167.811675 116.182608 
L 169.520383 128.042696 
L 171.229091 128.052891 
L 178.063923 150.825971 
L 179.772632 161.392701 
L 181.48134 175.677784 
L 183.190048 198.401992 
L 188.316172 195.488704 
L 190.02488 204.076657 
L 191.733589 209.817495 
L 193.442297 212.830756 
L 195.151005 190.628664 
L 200.277129 168.870842 
L 201.985837 156.140068 
L 203.694545 145.457866 
L 205.403254 166.714853 
L 207.111962 164.335267 
L 212.238086 163.76556 
L 213.946794 154.802125 
L 215.655502 138.142534 
L 217.364211 160.993348 
L 219.072919 175.961005 
L 224.199043 186.854502 
L 225.907751 171.196397 
L 227.616459 165.825426 
L 229.325167 187.272618 
L 231.033876 194.574601 
L 237.868708 210.221462 
L 239.577416 230.432284 
L 241.286124 223.311719 
L 242.994833 182.660857 
L 248.120957 183.792855 
L 249.829665 203.021429 
L 251.538373 174.978772 
L 253.247081 175.738188 
L 254.955789 175.842566 
L 261.790622 219.400525 
L 263.49933 195.148039 
L 265.208038 193.693045 
L 266.916746 207.94777 
L 272.042871 215.175965 
L 277.168995 150.759285 
L 278.877703 141.467858 
L 284.003828 139.606581 
L 285.712536 128.798827 
L 287.421244 140.856734 
L 289.129952 123.038745 
L 290.83866 110.104912 
L 295.964785 104.89463 
L 297.673493 90.945546 
L 299.382201 93.95804 
L 301.090909 114.135714 
L 302.799617 107.293279 
L 307.925742 103.966139 
L 309.63445 118.16317 
L 311.343158 121.870236 
L 313.051866 111.660277 
L 314.760574 106.863311 
L 319.886699 128.819205 
L 321.595407 129.832379 
L 323.304115 114.020687 
L 325.012823 124.332808 
L 331.847656 124.014502 
L 333.556364 104.473674 
L 335.265072 95.617936 
L 336.97378 119.304685 
L 338.682488 160.788244 
L 343.808612 161.92465 
L 345.517321 193.782744 
L 347.226029 186.992258 
L 348.934737 158.550192 
L 350.643445 205.882143 
L 355.769569 203.800412 
L 357.478278 193.00743 
L 359.186986 149.500416 
L 360.895694 192.701762 
L 362.604402 194.679063 
L 367.730526 240.791531 
L 369.439234 244.431673 
L 371.147943 256.536057 
L 372.856651 256.794762 
L 374.565359 227.768592 
L 379.691483 228.155462 
L 381.400191 202.153545 
L 383.1089 256.096599 
L 384.817608 263.154997 
L 386.526316 264.831808 
L 391.65244 238.753312 
L 393.361148 238.835449 
L 395.069856 226.938176 
L 396.778565 199.872867 
L 398.487273 168.336469 
L 398.487273 168.336469 
" style="fill:none;stroke:#008000;stroke-linecap:square;stroke-opacity:0.9;stroke-width:2;"/>
   </g>
   <g id="line2d_20">
    <path clip-path="url(#pcaa7c13d8b)" d="M 73.832727 160.344117 
L 75.541435 168.884909 
L 80.66756 163.538042 
L 82.376268 154.996465 
L 84.084976 154.070987 
L 87.502392 188.147276 
L 92.628517 175.71337 
L 94.337225 208.170905 
L 96.045933 222.578157 
L 97.754641 195.491879 
L 99.463349 202.355757 
L 104.589474 181.819561 
L 106.298182 158.247137 
L 108.00689 155.383477 
L 109.715598 163.269023 
L 111.424306 151.279119 
L 116.550431 161.354135 
L 118.259139 168.105588 
L 119.967847 152.29079 
L 121.676555 152.121442 
L 123.385263 173.520102 
L 128.511388 198.873531 
L 130.220096 176.527477 
L 131.928804 163.237056 
L 133.637512 154.517194 
L 140.472344 134.798978 
L 142.181053 132.088745 
L 143.889761 128.416997 
L 145.598469 132.676266 
L 147.307177 130.864015 
L 152.433301 124.877516 
L 154.14201 113.101434 
L 155.850718 127.631944 
L 157.559426 128.797868 
L 159.268134 128.231883 
L 164.394258 134.980797 
L 166.102967 120.878975 
L 167.811675 117.022002 
L 169.520383 128.727003 
L 171.229091 129.037641 
L 178.063923 151.62721 
L 179.772632 162.219025 
L 181.48134 176.2495 
L 183.190048 198.584565 
L 188.316172 196.076505 
L 190.02488 203.851698 
L 191.733589 210.290199 
L 193.442297 213.134685 
L 195.151005 191.412713 
L 200.277129 170.762225 
L 201.985837 157.470997 
L 203.694545 146.312378 
L 205.403254 167.685592 
L 207.111962 164.933324 
L 212.238086 165.39035 
L 213.946794 155.06972 
L 215.655502 138.114496 
L 217.364211 161.078594 
L 219.072919 177.164678 
L 224.199043 188.100569 
L 225.907751 172.338071 
L 227.616459 167.075948 
L 229.325167 187.939658 
L 231.033876 194.996787 
L 237.868708 210.53293 
L 239.577416 232.262308 
L 241.286124 224.650104 
L 242.994833 185.330721 
L 248.120957 185.519004 
L 249.829665 205.870168 
L 251.538373 177.650947 
L 253.247081 177.211314 
L 254.955789 178.1567 
L 261.790622 221.364125 
L 263.49933 196.644554 
L 265.208038 194.984837 
L 266.916746 210.721949 
L 272.042871 217.282282 
L 275.460287 174.788924 
L 277.168995 152.163191 
L 278.877703 144.261381 
L 284.003828 142.760819 
L 285.712536 130.607416 
L 287.421244 143.012726 
L 289.129952 124.714824 
L 290.83866 110.947906 
L 295.964785 106.962982 
L 297.673493 93.747876 
L 299.382201 96.450546 
L 301.090909 116.303889 
L 302.799617 110.012465 
L 307.925742 105.834 
L 309.63445 120.599974 
L 311.343158 124.395827 
L 313.051866 114.10166 
L 314.760574 109.217964 
L 319.886699 130.643411 
L 321.595407 131.195753 
L 323.304115 116.218307 
L 325.012823 125.404379 
L 331.847656 125.487156 
L 333.556364 105.865995 
L 335.265072 98.074457 
L 336.97378 120.536577 
L 338.682488 162.4886 
L 343.808612 163.894877 
L 345.517321 195.585445 
L 347.226029 189.160482 
L 348.934737 160.232854 
L 350.643445 208.542025 
L 355.769569 206.192705 
L 357.478278 196.093655 
L 359.186986 151.457577 
L 360.895694 194.628344 
L 362.604402 197.149149 
L 367.730526 243.539846 
L 369.439234 245.333762 
L 371.147943 258.164206 
L 372.856651 259.555987 
L 374.565359 229.295014 
L 379.691483 229.992626 
L 381.400191 203.009391 
L 383.1089 258.420684 
L 384.817608 265.200836 
L 386.526316 265.791319 
L 391.65244 240.21915 
L 393.361148 240.404197 
L 395.069856 228.796032 
L 396.778565 202.056583 
L 398.487273 169.474896 
L 398.487273 169.474896 
" style="fill:none;stroke:#ec5283;stroke-linecap:square;stroke-width:2;"/>
   </g>
   <g id="line2d_21">
    <path clip-path="url(#pcaa7c13d8b)" d="M 73.832727 160.344117 
L 75.541435 168.400493 
L 80.66756 162.83514 
L 82.376268 154.612477 
L 84.084976 154.110697 
L 87.502392 187.786155 
L 92.628517 176.081656 
L 94.337225 208.46066 
L 96.045933 221.411909 
L 97.754641 195.973951 
L 99.463349 201.39108 
L 104.589474 182.062233 
L 106.298182 157.887727 
L 108.00689 155.716884 
L 109.715598 162.192986 
L 111.424306 151.072555 
L 116.550431 161.420425 
L 118.259139 167.579694 
L 119.967847 151.717458 
L 121.676555 151.67231 
L 123.385263 172.776461 
L 128.511388 197.649214 
L 130.220096 175.997237 
L 131.928804 162.456244 
L 133.637512 154.161434 
L 140.472344 134.245476 
L 142.181053 130.809341 
L 143.889761 127.964339 
L 145.598469 132.625627 
L 152.433301 123.963087 
L 154.14201 112.817347 
L 155.850718 128.271358 
L 157.559426 128.228859 
L 159.268134 127.800292 
L 164.394258 134.509685 
L 166.102967 120.235144 
L 167.811675 115.269034 
L 169.520383 128.088391 
L 171.229091 128.187951 
L 178.063923 150.181765 
L 179.772632 161.709538 
L 181.48134 175.270132 
L 183.190048 197.617998 
L 188.316172 194.643264 
L 190.02488 203.706305 
L 191.733589 209.548528 
L 193.442297 212.509821 
L 195.151005 190.61086 
L 200.277129 169.918522 
L 201.985837 156.356802 
L 203.694545 146.201216 
L 205.403254 166.109831 
L 207.111962 165.078658 
L 212.238086 163.886258 
L 213.946794 154.343747 
L 215.655502 138.269063 
L 217.364211 160.448914 
L 219.072919 175.764979 
L 224.199043 187.233896 
L 225.907751 170.592208 
L 227.616459 166.15523 
L 229.325167 188.126061 
L 231.033876 193.965987 
L 237.868708 209.384974 
L 239.577416 229.895669 
L 241.286124 222.300115 
L 242.994833 182.446683 
L 248.120957 182.961307 
L 249.829665 203.623435 
L 251.538373 174.831784 
L 253.247081 174.698986 
L 254.955789 174.97911 
L 261.790622 218.467463 
L 263.49933 195.48913 
L 265.208038 193.131509 
L 266.916746 208.036121 
L 272.042871 215.008905 
L 277.168995 150.900022 
L 278.877703 141.522061 
L 284.003828 140.208065 
L 285.712536 128.185569 
L 287.421244 140.457547 
L 289.129952 122.755019 
L 290.83866 109.61875 
L 295.964785 105.147992 
L 297.673493 91.008749 
L 299.382201 94.820021 
L 301.090909 114.086116 
L 302.799617 107.476134 
L 307.925742 103.84029 
L 309.63445 118.361705 
L 311.343158 122.66579 
L 313.051866 111.388668 
L 314.760574 107.621919 
L 319.886699 129.110132 
L 321.595407 129.646917 
L 323.304115 113.786474 
L 325.012823 124.061311 
L 331.847656 123.580025 
L 333.556364 104.818705 
L 335.265072 96.713561 
L 336.97378 118.515792 
L 338.682488 160.043022 
L 343.808612 162.163218 
L 345.517321 194.198925 
L 347.226029 187.030925 
L 348.934737 157.964659 
L 350.643445 206.140483 
L 355.769569 204.321145 
L 357.478278 193.916293 
L 359.186986 150.104784 
L 360.895694 192.911387 
L 362.604402 195.101666 
L 367.730526 241.117271 
L 369.439234 243.728082 
L 371.147943 255.659956 
L 372.856651 256.441677 
L 374.565359 227.263111 
L 379.691483 226.949871 
L 381.400191 201.545138 
L 383.1089 256.89414 
L 384.817608 262.770793 
L 386.526316 263.585843 
L 391.65244 238.406096 
L 393.361148 239.131366 
L 395.069856 225.835126 
L 396.778565 199.670007 
L 398.487273 168.142872 
L 398.487273 168.142872 
" style="fill:none;stroke:#00ff00;stroke-linecap:square;stroke-opacity:0.9;stroke-width:2;"/>
   </g>
   <g id="line2d_22">
    <path clip-path="url(#pcaa7c13d8b)" d="M 73.832727 160.344117 
L 75.541435 170.460308 
L 80.66756 162.980986 
L 82.376268 152.199731 
L 84.084976 152.704601 
L 87.502392 183.980984 
L 92.628517 175.067183 
L 94.337225 211.625723 
L 96.045933 223.958018 
L 97.754641 193.994813 
L 99.463349 193.93591 
L 104.589474 172.833797 
L 106.298182 152.050214 
L 108.00689 149.998995 
L 109.715598 154.026432 
L 111.424306 144.429994 
L 116.550431 154.035835 
L 118.259139 161.35157 
L 119.967847 147.663876 
L 121.676555 147.045411 
L 123.385263 169.569345 
L 128.511388 190.994804 
L 130.220096 162.046256 
L 131.928804 150.171338 
L 133.637512 136.032981 
L 140.472344 117.526747 
L 142.181053 112.47589 
L 143.889761 109.945543 
L 145.598469 114.712176 
L 147.307177 112.23921 
L 152.433301 104.12972 
L 154.14201 84.922975 
L 155.850718 99.888867 
L 157.559426 99.340443 
L 159.268134 101.319641 
L 164.394258 105.954953 
L 166.102967 92.333213 
L 167.811675 85.720846 
L 169.520383 100.579161 
L 171.229091 103.680378 
L 178.063923 126.485999 
L 179.772632 140.525247 
L 181.48134 157.077018 
L 183.190048 183.803554 
L 188.316172 178.874151 
L 190.02488 189.506578 
L 191.733589 195.216428 
L 193.442297 201.434816 
L 195.151005 177.778466 
L 200.277129 150.263809 
L 201.985837 136.521762 
L 203.694545 127.522364 
L 205.403254 153.266291 
L 207.111962 148.837307 
L 212.238086 150.377229 
L 213.946794 136.068757 
L 215.655502 114.390405 
L 217.364211 138.560205 
L 219.072919 160.901956 
L 224.199043 169.477306 
L 225.907751 149.517652 
L 227.616459 143.651944 
L 229.325167 170.477931 
L 231.033876 178.19195 
L 237.868708 193.784835 
L 239.577416 218.44629 
L 241.286124 204.925409 
L 242.994833 166.458507 
L 248.120957 164.732865 
L 249.829665 188.63656 
L 251.538373 156.92203 
L 253.247081 163.052699 
L 254.955789 169.958362 
L 260.081914 215.079571 
L 261.790622 221.240389 
L 263.49933 182.800985 
L 265.208038 184.141429 
L 266.916746 201.891697 
L 272.042871 211.568587 
L 275.460287 146.474575 
L 277.168995 125.546229 
L 278.877703 109.640977 
L 284.003828 106.773639 
L 285.712536 89.696618 
L 287.421244 104.275549 
L 289.129952 87.127683 
L 290.83866 75.052532 
L 295.964785 67.683018 
L 297.673493 52.154182 
L 299.382201 54.156299 
L 301.090909 74.017445 
L 302.799617 70.88107 
L 307.925742 67.707702 
L 309.63445 82.386112 
L 311.343158 88.871406 
L 313.051866 80.896587 
L 314.760574 81.798832 
L 319.886699 102.02589 
L 321.595407 103.080381 
L 323.304115 84.404479 
L 325.012823 97.668246 
L 331.847656 96.61829 
L 333.556364 73.463234 
L 335.265072 66.953535 
L 336.97378 91.436532 
L 338.682488 133.852206 
L 343.808612 134.263108 
L 345.517321 170.66773 
L 347.226029 162.411711 
L 348.934737 131.105177 
L 350.643445 182.982535 
L 355.769569 175.182098 
L 357.478278 164.617952 
L 359.186986 119.357631 
L 360.895694 168.394443 
L 362.604402 171.707157 
L 367.730526 223.446975 
L 369.439234 224.452887 
L 371.147943 244.764883 
L 372.856651 244.737511 
L 374.565359 209.100229 
L 379.691483 214.197875 
L 381.400191 182.900965 
L 383.1089 242.6586 
L 384.817608 249.023478 
L 386.526316 254.895189 
L 391.65244 230.65968 
L 393.361148 240.179504 
L 395.069856 219.087366 
L 398.487273 142.464045 
L 398.487273 142.464045 
" style="fill:none;stroke:#a5b9cf;stroke-linecap:square;stroke-width:2;"/>
   </g>
   <g id="patch_3">
    <path d="M 57.6 276.48 
L 57.6 41.472 
" style="fill:none;stroke:#000000;stroke-linecap:square;stroke-linejoin:miter;stroke-width:0.8;"/>
   </g>
   <g id="patch_4">
    <path d="M 414.72 276.48 
L 414.72 41.472 
" style="fill:none;stroke:#000000;stroke-linecap:square;stroke-linejoin:miter;stroke-width:0.8;"/>
   </g>
   <g id="patch_5">
    <path d="M 57.6 276.48 
L 414.72 276.48 
" style="fill:none;stroke:#000000;stroke-linecap:square;stroke-linejoin:miter;stroke-width:0.8;"/>
   </g>
   <g id="patch_6">
    <path d="M 57.6 41.472 
L 414.72 41.472 
" style="fill:none;stroke:#000000;stroke-linecap:square;stroke-linejoin:miter;stroke-width:0.8;"/>
   </g>
   <g id="text_18">
    <!-- UNCORRELATED -->
    <g transform="translate(187.044375 22.034625)scale(0.12 -0.12)">
     <defs>
      <path d="M 556 4666 
L 1191 4666 
L 1191 1831 
Q 1191 1081 1462 751 
Q 1734 422 2344 422 
Q 2950 422 3222 751 
Q 3494 1081 3494 1831 
L 3494 4666 
L 4128 4666 
L 4128 1753 
Q 4128 841 3676 375 
Q 3225 -91 2344 -91 
Q 1459 -91 1007 375 
Q 556 841 556 1753 
L 556 4666 
z
" id="DejaVuSans-55" transform="scale(0.015625)"/>
      <path d="M 628 4666 
L 1478 4666 
L 3547 763 
L 3547 4666 
L 4159 4666 
L 4159 0 
L 3309 0 
L 1241 3903 
L 1241 0 
L 628 0 
L 628 4666 
z
" id="DejaVuSans-4e" transform="scale(0.015625)"/>
      <path d="M 4122 4306 
L 4122 3641 
Q 3803 3938 3442 4084 
Q 3081 4231 2675 4231 
Q 1875 4231 1450 3742 
Q 1025 3253 1025 2328 
Q 1025 1406 1450 917 
Q 1875 428 2675 428 
Q 3081 428 3442 575 
Q 3803 722 4122 1019 
L 4122 359 
Q 3791 134 3420 21 
Q 3050 -91 2638 -91 
Q 1578 -91 968 557 
Q 359 1206 359 2328 
Q 359 3453 968 4101 
Q 1578 4750 2638 4750 
Q 3056 4750 3426 4639 
Q 3797 4528 4122 4306 
z
" id="DejaVuSans-43" transform="scale(0.015625)"/>
      <path d="M 2522 4238 
Q 1834 4238 1429 3725 
Q 1025 3213 1025 2328 
Q 1025 1447 1429 934 
Q 1834 422 2522 422 
Q 3209 422 3611 934 
Q 4013 1447 4013 2328 
Q 4013 3213 3611 3725 
Q 3209 4238 2522 4238 
z
M 2522 4750 
Q 3503 4750 4090 4092 
Q 4678 3434 4678 2328 
Q 4678 1225 4090 567 
Q 3503 -91 2522 -91 
Q 1538 -91 948 565 
Q 359 1222 359 2328 
Q 359 3434 948 4092 
Q 1538 4750 2522 4750 
z
" id="DejaVuSans-4f" transform="scale(0.015625)"/>
      <path d="M 2841 2188 
Q 3044 2119 3236 1894 
Q 3428 1669 3622 1275 
L 4263 0 
L 3584 0 
L 2988 1197 
Q 2756 1666 2539 1819 
Q 2322 1972 1947 1972 
L 1259 1972 
L 1259 0 
L 628 0 
L 628 4666 
L 2053 4666 
Q 2853 4666 3247 4331 
Q 3641 3997 3641 3322 
Q 3641 2881 3436 2590 
Q 3231 2300 2841 2188 
z
M 1259 4147 
L 1259 2491 
L 2053 2491 
Q 2509 2491 2742 2702 
Q 2975 2913 2975 3322 
Q 2975 3731 2742 3939 
Q 2509 4147 2053 4147 
L 1259 4147 
z
" id="DejaVuSans-52" transform="scale(0.015625)"/>
      <path d="M 628 4666 
L 3578 4666 
L 3578 4134 
L 1259 4134 
L 1259 2753 
L 3481 2753 
L 3481 2222 
L 1259 2222 
L 1259 531 
L 3634 531 
L 3634 0 
L 628 0 
L 628 4666 
z
" id="DejaVuSans-45" transform="scale(0.015625)"/>
      <path d="M 628 4666 
L 1259 4666 
L 1259 531 
L 3531 531 
L 3531 0 
L 628 0 
L 628 4666 
z
" id="DejaVuSans-4c" transform="scale(0.015625)"/>
      <path d="M 2188 4044 
L 1331 1722 
L 3047 1722 
L 2188 4044 
z
M 1831 4666 
L 2547 4666 
L 4325 0 
L 3669 0 
L 3244 1197 
L 1141 1197 
L 716 0 
L 50 0 
L 1831 4666 
z
" id="DejaVuSans-41" transform="scale(0.015625)"/>
      <path d="M -19 4666 
L 3928 4666 
L 3928 4134 
L 2272 4134 
L 2272 0 
L 1638 0 
L 1638 4134 
L -19 4134 
L -19 4666 
z
" id="DejaVuSans-54" transform="scale(0.015625)"/>
      <path d="M 1259 4147 
L 1259 519 
L 2022 519 
Q 2988 519 3436 956 
Q 3884 1394 3884 2338 
Q 3884 3275 3436 3711 
Q 2988 4147 2022 4147 
L 1259 4147 
z
M 628 4666 
L 1925 4666 
Q 3281 4666 3915 4102 
Q 4550 3538 4550 2338 
Q 4550 1131 3912 565 
Q 3275 0 1925 0 
L 628 0 
L 628 4666 
z
" id="DejaVuSans-44" transform="scale(0.015625)"/>
     </defs>
     <use xlink:href="#DejaVuSans-55"/>
     <use x="73.193359" xlink:href="#DejaVuSans-4e"/>
     <use x="147.998047" xlink:href="#DejaVuSans-43"/>
     <use x="217.822266" xlink:href="#DejaVuSans-4f"/>
     <use x="296.533203" xlink:href="#DejaVuSans-52"/>
     <use x="366.015625" xlink:href="#DejaVuSans-52"/>
     <use x="435.498047" xlink:href="#DejaVuSans-45"/>
     <use x="498.681641" xlink:href="#DejaVuSans-4c"/>
     <use x="556.644531" xlink:href="#DejaVuSans-41"/>
     <use x="617.302734" xlink:href="#DejaVuSans-54"/>
     <use x="678.386719" xlink:href="#DejaVuSans-45"/>
     <use x="741.570312" xlink:href="#DejaVuSans-44"/>
    </g>
    <!-- daily_report -->
    <g transform="translate(200.466563 35.472)scale(0.12 -0.12)">
     <defs>
      <path d="M 603 3500 
L 1178 3500 
L 1178 0 
L 603 0 
L 603 3500 
z
M 603 4863 
L 1178 4863 
L 1178 4134 
L 603 4134 
L 603 4863 
z
" id="DejaVuSans-69" transform="scale(0.015625)"/>
      <path d="M 603 4863 
L 1178 4863 
L 1178 0 
L 603 0 
L 603 4863 
z
" id="DejaVuSans-6c" transform="scale(0.015625)"/>
      <path d="M 2059 -325 
Q 1816 -950 1584 -1140 
Q 1353 -1331 966 -1331 
L 506 -1331 
L 506 -850 
L 844 -850 
Q 1081 -850 1212 -737 
Q 1344 -625 1503 -206 
L 1606 56 
L 191 3500 
L 800 3500 
L 1894 763 
L 2988 3500 
L 3597 3500 
L 2059 -325 
z
" id="DejaVuSans-79" transform="scale(0.015625)"/>
      <path d="M 3263 -1063 
L 3263 -1509 
L -63 -1509 
L -63 -1063 
L 3263 -1063 
z
" id="DejaVuSans-5f" transform="scale(0.015625)"/>
      <path d="M 2631 2963 
Q 2534 3019 2420 3045 
Q 2306 3072 2169 3072 
Q 1681 3072 1420 2755 
Q 1159 2438 1159 1844 
L 1159 0 
L 581 0 
L 581 3500 
L 1159 3500 
L 1159 2956 
Q 1341 3275 1631 3429 
Q 1922 3584 2338 3584 
Q 2397 3584 2469 3576 
Q 2541 3569 2628 3553 
L 2631 2963 
z
" id="DejaVuSans-72" transform="scale(0.015625)"/>
      <path d="M 1159 525 
L 1159 -1331 
L 581 -1331 
L 581 3500 
L 1159 3500 
L 1159 2969 
Q 1341 3281 1617 3432 
Q 1894 3584 2278 3584 
Q 2916 3584 3314 3078 
Q 3713 2572 3713 1747 
Q 3713 922 3314 415 
Q 2916 -91 2278 -91 
Q 1894 -91 1617 61 
Q 1341 213 1159 525 
z
M 3116 1747 
Q 3116 2381 2855 2742 
Q 2594 3103 2138 3103 
Q 1681 3103 1420 2742 
Q 1159 2381 1159 1747 
Q 1159 1113 1420 752 
Q 1681 391 2138 391 
Q 2594 391 2855 752 
Q 3116 1113 3116 1747 
z
" id="DejaVuSans-70" transform="scale(0.015625)"/>
      <path d="M 1959 3097 
Q 1497 3097 1228 2736 
Q 959 2375 959 1747 
Q 959 1119 1226 758 
Q 1494 397 1959 397 
Q 2419 397 2687 759 
Q 2956 1122 2956 1747 
Q 2956 2369 2687 2733 
Q 2419 3097 1959 3097 
z
M 1959 3584 
Q 2709 3584 3137 3096 
Q 3566 2609 3566 1747 
Q 3566 888 3137 398 
Q 2709 -91 1959 -91 
Q 1206 -91 779 398 
Q 353 888 353 1747 
Q 353 2609 779 3096 
Q 1206 3584 1959 3584 
z
" id="DejaVuSans-6f" transform="scale(0.015625)"/>
     </defs>
     <use xlink:href="#DejaVuSans-64"/>
     <use x="63.476562" xlink:href="#DejaVuSans-61"/>
     <use x="124.755859" xlink:href="#DejaVuSans-69"/>
     <use x="152.539062" xlink:href="#DejaVuSans-6c"/>
     <use x="180.322266" xlink:href="#DejaVuSans-79"/>
     <use x="239.501953" xlink:href="#DejaVuSans-5f"/>
     <use x="289.501953" xlink:href="#DejaVuSans-72"/>
     <use x="328.365234" xlink:href="#DejaVuSans-65"/>
     <use x="389.888672" xlink:href="#DejaVuSans-70"/>
     <use x="453.365234" xlink:href="#DejaVuSans-6f"/>
     <use x="514.546875" xlink:href="#DejaVuSans-72"/>
     <use x="555.660156" xlink:href="#DejaVuSans-74"/>
    </g>
   </g>
   <g id="legend_1">
    <g id="patch_7">
     <path d="M 179.138125 137.54075 
L 293.181875 137.54075 
Q 295.181875 137.54075 295.181875 135.54075 
L 295.181875 48.472 
Q 295.181875 46.472 293.181875 46.472 
L 179.138125 46.472 
Q 177.138125 46.472 177.138125 48.472 
L 177.138125 135.54075 
Q 177.138125 137.54075 179.138125 137.54075 
z
" style="fill:#ffffff;opacity:0.8;stroke:#cccccc;stroke-linejoin:miter;"/>
    </g>
    <g id="line2d_23">
     <path d="M 181.138125 54.570437 
L 201.138125 54.570437 
" style="fill:none;stroke:#0000ff;stroke-linecap:square;stroke-opacity:0.9;stroke-width:2;"/>
    </g>
    <g id="line2d_24"/>
    <g id="text_19">
     <!-- alpaca -->
     <g transform="translate(209.138125 58.070437)scale(0.1 -0.1)">
      <defs>
       <path d="M 3122 3366 
L 3122 2828 
Q 2878 2963 2633 3030 
Q 2388 3097 2138 3097 
Q 1578 3097 1268 2742 
Q 959 2388 959 1747 
Q 959 1106 1268 751 
Q 1578 397 2138 397 
Q 2388 397 2633 464 
Q 2878 531 3122 666 
L 3122 134 
Q 2881 22 2623 -34 
Q 2366 -91 2075 -91 
Q 1284 -91 818 406 
Q 353 903 353 1747 
Q 353 2603 823 3093 
Q 1294 3584 2113 3584 
Q 2378 3584 2631 3529 
Q 2884 3475 3122 3366 
z
" id="DejaVuSans-63" transform="scale(0.015625)"/>
      </defs>
      <use xlink:href="#DejaVuSans-61"/>
      <use x="61.279297" xlink:href="#DejaVuSans-6c"/>
      <use x="89.0625" xlink:href="#DejaVuSans-70"/>
      <use x="152.539062" xlink:href="#DejaVuSans-61"/>
      <use x="213.818359" xlink:href="#DejaVuSans-63"/>
      <use x="268.798828" xlink:href="#DejaVuSans-61"/>
     </g>
    </g>
    <g id="line2d_25">
     <path d="M 181.138125 69.248562 
L 201.138125 69.248562 
" style="fill:none;stroke:#ff0000;stroke-linecap:square;stroke-opacity:0.9;stroke-width:2;"/>
    </g>
    <g id="line2d_26"/>
    <g id="text_20">
     <!-- mattress -->
     <g transform="translate(209.138125 72.748562)scale(0.1 -0.1)">
      <defs>
       <path d="M 3328 2828 
Q 3544 3216 3844 3400 
Q 4144 3584 4550 3584 
Q 5097 3584 5394 3201 
Q 5691 2819 5691 2113 
L 5691 0 
L 5113 0 
L 5113 2094 
Q 5113 2597 4934 2840 
Q 4756 3084 4391 3084 
Q 3944 3084 3684 2787 
Q 3425 2491 3425 1978 
L 3425 0 
L 2847 0 
L 2847 2094 
Q 2847 2600 2669 2842 
Q 2491 3084 2119 3084 
Q 1678 3084 1418 2786 
Q 1159 2488 1159 1978 
L 1159 0 
L 581 0 
L 581 3500 
L 1159 3500 
L 1159 2956 
Q 1356 3278 1631 3431 
Q 1906 3584 2284 3584 
Q 2666 3584 2933 3390 
Q 3200 3197 3328 2828 
z
" id="DejaVuSans-6d" transform="scale(0.015625)"/>
       <path d="M 2834 3397 
L 2834 2853 
Q 2591 2978 2328 3040 
Q 2066 3103 1784 3103 
Q 1356 3103 1142 2972 
Q 928 2841 928 2578 
Q 928 2378 1081 2264 
Q 1234 2150 1697 2047 
L 1894 2003 
Q 2506 1872 2764 1633 
Q 3022 1394 3022 966 
Q 3022 478 2636 193 
Q 2250 -91 1575 -91 
Q 1294 -91 989 -36 
Q 684 19 347 128 
L 347 722 
Q 666 556 975 473 
Q 1284 391 1588 391 
Q 1994 391 2212 530 
Q 2431 669 2431 922 
Q 2431 1156 2273 1281 
Q 2116 1406 1581 1522 
L 1381 1569 
Q 847 1681 609 1914 
Q 372 2147 372 2553 
Q 372 3047 722 3315 
Q 1072 3584 1716 3584 
Q 2034 3584 2315 3537 
Q 2597 3491 2834 3397 
z
" id="DejaVuSans-73" transform="scale(0.015625)"/>
      </defs>
      <use xlink:href="#DejaVuSans-6d"/>
      <use x="97.412109" xlink:href="#DejaVuSans-61"/>
      <use x="158.691406" xlink:href="#DejaVuSans-74"/>
      <use x="197.900391" xlink:href="#DejaVuSans-74"/>
      <use x="237.109375" xlink:href="#DejaVuSans-72"/>
      <use x="275.972656" xlink:href="#DejaVuSans-65"/>
      <use x="337.496094" xlink:href="#DejaVuSans-73"/>
      <use x="389.595703" xlink:href="#DejaVuSans-73"/>
     </g>
    </g>
    <g id="line2d_27">
     <path d="M 181.138125 83.926687 
L 201.138125 83.926687 
" style="fill:none;stroke:#008000;stroke-linecap:square;stroke-opacity:0.9;stroke-width:2;"/>
    </g>
    <g id="line2d_28"/>
    <g id="text_21">
     <!-- daily-open-rebal -->
     <g transform="translate(209.138125 87.426687)scale(0.1 -0.1)">
      <defs>
       <path d="M 3513 2113 
L 3513 0 
L 2938 0 
L 2938 2094 
Q 2938 2591 2744 2837 
Q 2550 3084 2163 3084 
Q 1697 3084 1428 2787 
Q 1159 2491 1159 1978 
L 1159 0 
L 581 0 
L 581 3500 
L 1159 3500 
L 1159 2956 
Q 1366 3272 1645 3428 
Q 1925 3584 2291 3584 
Q 2894 3584 3203 3211 
Q 3513 2838 3513 2113 
z
" id="DejaVuSans-6e" transform="scale(0.015625)"/>
       <path d="M 3116 1747 
Q 3116 2381 2855 2742 
Q 2594 3103 2138 3103 
Q 1681 3103 1420 2742 
Q 1159 2381 1159 1747 
Q 1159 1113 1420 752 
Q 1681 391 2138 391 
Q 2594 391 2855 752 
Q 3116 1113 3116 1747 
z
M 1159 2969 
Q 1341 3281 1617 3432 
Q 1894 3584 2278 3584 
Q 2916 3584 3314 3078 
Q 3713 2572 3713 1747 
Q 3713 922 3314 415 
Q 2916 -91 2278 -91 
Q 1894 -91 1617 61 
Q 1341 213 1159 525 
L 1159 0 
L 581 0 
L 581 4863 
L 1159 4863 
L 1159 2969 
z
" id="DejaVuSans-62" transform="scale(0.015625)"/>
      </defs>
      <use xlink:href="#DejaVuSans-64"/>
      <use x="63.476562" xlink:href="#DejaVuSans-61"/>
      <use x="124.755859" xlink:href="#DejaVuSans-69"/>
      <use x="152.539062" xlink:href="#DejaVuSans-6c"/>
      <use x="180.322266" xlink:href="#DejaVuSans-79"/>
      <use x="237.751953" xlink:href="#DejaVuSans-2d"/>
      <use x="275.710938" xlink:href="#DejaVuSans-6f"/>
      <use x="336.892578" xlink:href="#DejaVuSans-70"/>
      <use x="400.369141" xlink:href="#DejaVuSans-65"/>
      <use x="461.892578" xlink:href="#DejaVuSans-6e"/>
      <use x="525.271484" xlink:href="#DejaVuSans-2d"/>
      <use x="561.355469" xlink:href="#DejaVuSans-72"/>
      <use x="600.21875" xlink:href="#DejaVuSans-65"/>
      <use x="661.742188" xlink:href="#DejaVuSans-62"/>
      <use x="725.21875" xlink:href="#DejaVuSans-61"/>
      <use x="786.498047" xlink:href="#DejaVuSans-6c"/>
     </g>
    </g>
    <g id="line2d_29">
     <path d="M 181.138125 98.604812 
L 201.138125 98.604812 
" style="fill:none;stroke:#ec5283;stroke-linecap:square;stroke-width:2;"/>
    </g>
    <g id="line2d_30"/>
    <g id="text_22">
     <!-- daily-close-rebal -->
     <g transform="translate(209.138125 102.104812)scale(0.1 -0.1)">
      <use xlink:href="#DejaVuSans-64"/>
      <use x="63.476562" xlink:href="#DejaVuSans-61"/>
      <use x="124.755859" xlink:href="#DejaVuSans-69"/>
      <use x="152.539062" xlink:href="#DejaVuSans-6c"/>
      <use x="180.322266" xlink:href="#DejaVuSans-79"/>
      <use x="237.751953" xlink:href="#DejaVuSans-2d"/>
      <use x="273.835938" xlink:href="#DejaVuSans-63"/>
      <use x="328.816406" xlink:href="#DejaVuSans-6c"/>
      <use x="356.599609" xlink:href="#DejaVuSans-6f"/>
      <use x="417.78125" xlink:href="#DejaVuSans-73"/>
      <use x="469.880859" xlink:href="#DejaVuSans-65"/>
      <use x="531.404297" xlink:href="#DejaVuSans-2d"/>
      <use x="567.488281" xlink:href="#DejaVuSans-72"/>
      <use x="606.351562" xlink:href="#DejaVuSans-65"/>
      <use x="667.875" xlink:href="#DejaVuSans-62"/>
      <use x="731.351562" xlink:href="#DejaVuSans-61"/>
      <use x="792.630859" xlink:href="#DejaVuSans-6c"/>
     </g>
    </g>
    <g id="line2d_31">
     <path d="M 181.138125 113.282937 
L 201.138125 113.282937 
" style="fill:none;stroke:#00ff00;stroke-linecap:square;stroke-opacity:0.9;stroke-width:2;"/>
    </g>
    <g id="line2d_32"/>
    <g id="text_23">
     <!-- trader-baseline -->
     <g transform="translate(209.138125 116.782937)scale(0.1 -0.1)">
      <use xlink:href="#DejaVuSans-74"/>
      <use x="39.208984" xlink:href="#DejaVuSans-72"/>
      <use x="80.322266" xlink:href="#DejaVuSans-61"/>
      <use x="141.601562" xlink:href="#DejaVuSans-64"/>
      <use x="205.078125" xlink:href="#DejaVuSans-65"/>
      <use x="266.601562" xlink:href="#DejaVuSans-72"/>
      <use x="301.339844" xlink:href="#DejaVuSans-2d"/>
      <use x="337.423828" xlink:href="#DejaVuSans-62"/>
      <use x="400.900391" xlink:href="#DejaVuSans-61"/>
      <use x="462.179688" xlink:href="#DejaVuSans-73"/>
      <use x="514.279297" xlink:href="#DejaVuSans-65"/>
      <use x="575.802734" xlink:href="#DejaVuSans-6c"/>
      <use x="603.585938" xlink:href="#DejaVuSans-69"/>
      <use x="631.369141" xlink:href="#DejaVuSans-6e"/>
      <use x="694.748047" xlink:href="#DejaVuSans-65"/>
     </g>
    </g>
    <g id="line2d_33">
     <path d="M 181.138125 127.961062 
L 201.138125 127.961062 
" style="fill:none;stroke:#a5b9cf;stroke-linecap:square;stroke-width:2;"/>
    </g>
    <g id="line2d_34"/>
    <g id="text_24">
     <!-- default-cfg -->
     <g transform="translate(209.138125 131.461062)scale(0.1 -0.1)">
      <defs>
       <path d="M 2375 4863 
L 2375 4384 
L 1825 4384 
Q 1516 4384 1395 4259 
Q 1275 4134 1275 3809 
L 1275 3500 
L 2222 3500 
L 2222 3053 
L 1275 3053 
L 1275 0 
L 697 0 
L 697 3053 
L 147 3053 
L 147 3500 
L 697 3500 
L 697 3744 
Q 697 4328 969 4595 
Q 1241 4863 1831 4863 
L 2375 4863 
z
" id="DejaVuSans-66" transform="scale(0.015625)"/>
       <path d="M 544 1381 
L 544 3500 
L 1119 3500 
L 1119 1403 
Q 1119 906 1312 657 
Q 1506 409 1894 409 
Q 2359 409 2629 706 
Q 2900 1003 2900 1516 
L 2900 3500 
L 3475 3500 
L 3475 0 
L 2900 0 
L 2900 538 
Q 2691 219 2414 64 
Q 2138 -91 1772 -91 
Q 1169 -91 856 284 
Q 544 659 544 1381 
z
M 1991 3584 
L 1991 3584 
z
" id="DejaVuSans-75" transform="scale(0.015625)"/>
       <path d="M 2906 1791 
Q 2906 2416 2648 2759 
Q 2391 3103 1925 3103 
Q 1463 3103 1205 2759 
Q 947 2416 947 1791 
Q 947 1169 1205 825 
Q 1463 481 1925 481 
Q 2391 481 2648 825 
Q 2906 1169 2906 1791 
z
M 3481 434 
Q 3481 -459 3084 -895 
Q 2688 -1331 1869 -1331 
Q 1566 -1331 1297 -1286 
Q 1028 -1241 775 -1147 
L 775 -588 
Q 1028 -725 1275 -790 
Q 1522 -856 1778 -856 
Q 2344 -856 2625 -561 
Q 2906 -266 2906 331 
L 2906 616 
Q 2728 306 2450 153 
Q 2172 0 1784 0 
Q 1141 0 747 490 
Q 353 981 353 1791 
Q 353 2603 747 3093 
Q 1141 3584 1784 3584 
Q 2172 3584 2450 3431 
Q 2728 3278 2906 2969 
L 2906 3500 
L 3481 3500 
L 3481 434 
z
" id="DejaVuSans-67" transform="scale(0.015625)"/>
      </defs>
      <use xlink:href="#DejaVuSans-64"/>
      <use x="63.476562" xlink:href="#DejaVuSans-65"/>
      <use x="125" xlink:href="#DejaVuSans-66"/>
      <use x="160.205078" xlink:href="#DejaVuSans-61"/>
      <use x="221.484375" xlink:href="#DejaVuSans-75"/>
      <use x="284.863281" xlink:href="#DejaVuSans-6c"/>
      <use x="312.646484" xlink:href="#DejaVuSans-74"/>
      <use x="351.855469" xlink:href="#DejaVuSans-2d"/>
      <use x="387.939453" xlink:href="#DejaVuSans-63"/>
      <use x="442.919922" xlink:href="#DejaVuSans-66"/>
      <use x="478.125" xlink:href="#DejaVuSans-67"/>
     </g>
    </g>
   </g>
  </g>
 </g>
 <defs>
  <clipPath id="pcaa7c13d8b">
   <rect height="235.008" width="357.12" x="57.6" y="41.472"/>
  </clipPath>
 </defs>
</svg>
