<?xml version="1.0" encoding="utf-8" standalone="no"?>
<!DOCTYPE svg PUBLIC "-//W3C//DTD SVG 1.1//EN"
  "http://www.w3.org/Graphics/SVG/1.1/DTD/svg11.dtd">
<svg height="345.6pt" version="1.1" viewBox="0 0 460.8 345.6" width="460.8pt" xmlns="http://www.w3.org/2000/svg" xmlns:xlink="http://www.w3.org/1999/xlink">
 <metadata>
  <rdf:RDF xmlns:cc="http://creativecommons.org/ns#" xmlns:dc="http://purl.org/dc/elements/1.1/" xmlns:rdf="http://www.w3.org/1999/02/22-rdf-syntax-ns#">
   <cc:Work>
    <dc:type rdf:resource="http://purl.org/dc/dcmitype/StillImage"/>
    <dc:date>2022-02-06T01:02:00.028679</dc:date>
    <dc:format>image/svg+xml</dc:format>
    <dc:creator>
     <cc:Agent>
      <dc:title>Matplotlib v3.4.3, https://matplotlib.org/</dc:title>
     </cc:Agent>
    </dc:creator>
   </cc:Work>
  </rdf:RDF>
 </metadata>
 <defs>
  <style type="text/css">*{stroke-linecap:butt;stroke-linejoin:round;}</style>
 </defs>
 <g id="figure_1">
  <g id="patch_1">
   <path d="M 0 345.6 
L 460.8 345.6 
L 460.8 0 
L 0 0 
z
" style="fill:#ffffff;"/>
  </g>
  <g id="axes_1">
   <g id="patch_2">
    <path d="M 57.6 276.48 
L 414.72 276.48 
L 414.72 41.472 
L 57.6 41.472 
z
" style="fill:#ffffff;"/>
   </g>
   <g id="matplotlib.axis_1">
    <g id="xtick_1">
     <g id="line2d_1">
      <defs>
       <path d="M 0 0 
L 0 3.5 
" id="m2aa83eb621" style="stroke:#000000;stroke-width:0.8;"/>
      </defs>
      <g>
       <use style="stroke:#000000;stroke-width:0.8;" x="91.541157" xlink:href="#m2aa83eb621" y="276.48"/>
      </g>
     </g>
     <g id="text_1">
      <!-- 2021-09 -->
      <g transform="translate(54.316336 310.951846)rotate(-30)scale(0.1 -0.1)">
       <defs>
        <path d="M 1228 531 
L 3431 531 
L 3431 0 
L 469 0 
L 469 531 
Q 828 903 1448 1529 
Q 2069 2156 2228 2338 
Q 2531 2678 2651 2914 
Q 2772 3150 2772 3378 
Q 2772 3750 2511 3984 
Q 2250 4219 1831 4219 
Q 1534 4219 1204 4116 
Q 875 4013 500 3803 
L 500 4441 
Q 881 4594 1212 4672 
Q 1544 4750 1819 4750 
Q 2544 4750 2975 4387 
Q 3406 4025 3406 3419 
Q 3406 3131 3298 2873 
Q 3191 2616 2906 2266 
Q 2828 2175 2409 1742 
Q 1991 1309 1228 531 
z
" id="DejaVuSans-32" transform="scale(0.015625)"/>
        <path d="M 2034 4250 
Q 1547 4250 1301 3770 
Q 1056 3291 1056 2328 
Q 1056 1369 1301 889 
Q 1547 409 2034 409 
Q 2525 409 2770 889 
Q 3016 1369 3016 2328 
Q 3016 3291 2770 3770 
Q 2525 4250 2034 4250 
z
M 2034 4750 
Q 2819 4750 3233 4129 
Q 3647 3509 3647 2328 
Q 3647 1150 3233 529 
Q 2819 -91 2034 -91 
Q 1250 -91 836 529 
Q 422 1150 422 2328 
Q 422 3509 836 4129 
Q 1250 4750 2034 4750 
z
" id="DejaVuSans-30" transform="scale(0.015625)"/>
        <path d="M 794 531 
L 1825 531 
L 1825 4091 
L 703 3866 
L 703 4441 
L 1819 4666 
L 2450 4666 
L 2450 531 
L 3481 531 
L 3481 0 
L 794 0 
L 794 531 
z
" id="DejaVuSans-31" transform="scale(0.015625)"/>
        <path d="M 313 2009 
L 1997 2009 
L 1997 1497 
L 313 1497 
L 313 2009 
z
" id="DejaVuSans-2d" transform="scale(0.015625)"/>
        <path d="M 703 97 
L 703 672 
Q 941 559 1184 500 
Q 1428 441 1663 441 
Q 2288 441 2617 861 
Q 2947 1281 2994 2138 
Q 2813 1869 2534 1725 
Q 2256 1581 1919 1581 
Q 1219 1581 811 2004 
Q 403 2428 403 3163 
Q 403 3881 828 4315 
Q 1253 4750 1959 4750 
Q 2769 4750 3195 4129 
Q 3622 3509 3622 2328 
Q 3622 1225 3098 567 
Q 2575 -91 1691 -91 
Q 1453 -91 1209 -44 
Q 966 3 703 97 
z
M 1959 2075 
Q 2384 2075 2632 2365 
Q 2881 2656 2881 3163 
Q 2881 3666 2632 3958 
Q 2384 4250 1959 4250 
Q 1534 4250 1286 3958 
Q 1038 3666 1038 3163 
Q 1038 2656 1286 2365 
Q 1534 2075 1959 2075 
z
" id="DejaVuSans-39" transform="scale(0.015625)"/>
       </defs>
       <use xlink:href="#DejaVuSans-32"/>
       <use x="63.623047" xlink:href="#DejaVuSans-30"/>
       <use x="127.246094" xlink:href="#DejaVuSans-32"/>
       <use x="190.869141" xlink:href="#DejaVuSans-31"/>
       <use x="254.492188" xlink:href="#DejaVuSans-2d"/>
       <use x="290.576172" xlink:href="#DejaVuSans-30"/>
       <use x="354.199219" xlink:href="#DejaVuSans-39"/>
      </g>
     </g>
    </g>
    <g id="xtick_2">
     <g id="line2d_2">
      <g>
       <use style="stroke:#000000;stroke-width:0.8;" x="150.569256" xlink:href="#m2aa83eb621" y="276.48"/>
      </g>
     </g>
     <g id="text_2">
      <!-- 2021-10 -->
      <g transform="translate(113.344435 310.951846)rotate(-30)scale(0.1 -0.1)">
       <use xlink:href="#DejaVuSans-32"/>
       <use x="63.623047" xlink:href="#DejaVuSans-30"/>
       <use x="127.246094" xlink:href="#DejaVuSans-32"/>
       <use x="190.869141" xlink:href="#DejaVuSans-31"/>
       <use x="254.492188" xlink:href="#DejaVuSans-2d"/>
       <use x="290.576172" xlink:href="#DejaVuSans-31"/>
       <use x="354.199219" xlink:href="#DejaVuSans-30"/>
      </g>
     </g>
    </g>
    <g id="xtick_3">
     <g id="line2d_3">
      <g>
       <use style="stroke:#000000;stroke-width:0.8;" x="211.564959" xlink:href="#m2aa83eb621" y="276.48"/>
      </g>
     </g>
     <g id="text_3">
      <!-- 2021-11 -->
      <g transform="translate(174.340138 310.951846)rotate(-30)scale(0.1 -0.1)">
       <use xlink:href="#DejaVuSans-32"/>
       <use x="63.623047" xlink:href="#DejaVuSans-30"/>
       <use x="127.246094" xlink:href="#DejaVuSans-32"/>
       <use x="190.869141" xlink:href="#DejaVuSans-31"/>
       <use x="254.492188" xlink:href="#DejaVuSans-2d"/>
       <use x="290.576172" xlink:href="#DejaVuSans-31"/>
       <use x="354.199219" xlink:href="#DejaVuSans-31"/>
      </g>
     </g>
    </g>
    <g id="xtick_4">
     <g id="line2d_4">
      <g>
       <use style="stroke:#000000;stroke-width:0.8;" x="270.593058" xlink:href="#m2aa83eb621" y="276.48"/>
      </g>
     </g>
     <g id="text_4">
      <!-- 2021-12 -->
      <g transform="translate(233.368237 310.951846)rotate(-30)scale(0.1 -0.1)">
       <use xlink:href="#DejaVuSans-32"/>
       <use x="63.623047" xlink:href="#DejaVuSans-30"/>
       <use x="127.246094" xlink:href="#DejaVuSans-32"/>
       <use x="190.869141" xlink:href="#DejaVuSans-31"/>
       <use x="254.492188" xlink:href="#DejaVuSans-2d"/>
       <use x="290.576172" xlink:href="#DejaVuSans-31"/>
       <use x="354.199219" xlink:href="#DejaVuSans-32"/>
      </g>
     </g>
    </g>
    <g id="xtick_5">
     <g id="line2d_5">
      <g>
       <use style="stroke:#000000;stroke-width:0.8;" x="331.58876" xlink:href="#m2aa83eb621" y="276.48"/>
      </g>
     </g>
     <g id="text_5">
      <!-- 2022-01 -->
      <g transform="translate(294.36394 310.951846)rotate(-30)scale(0.1 -0.1)">
       <use xlink:href="#DejaVuSans-32"/>
       <use x="63.623047" xlink:href="#DejaVuSans-30"/>
       <use x="127.246094" xlink:href="#DejaVuSans-32"/>
       <use x="190.869141" xlink:href="#DejaVuSans-32"/>
       <use x="254.492188" xlink:href="#DejaVuSans-2d"/>
       <use x="290.576172" xlink:href="#DejaVuSans-30"/>
       <use x="354.199219" xlink:href="#DejaVuSans-31"/>
      </g>
     </g>
    </g>
    <g id="xtick_6">
     <g id="line2d_6">
      <g>
       <use style="stroke:#000000;stroke-width:0.8;" x="392.584463" xlink:href="#m2aa83eb621" y="276.48"/>
      </g>
     </g>
     <g id="text_6">
      <!-- 2022-02 -->
      <g transform="translate(355.359642 310.951846)rotate(-30)scale(0.1 -0.1)">
       <use xlink:href="#DejaVuSans-32"/>
       <use x="63.623047" xlink:href="#DejaVuSans-30"/>
       <use x="127.246094" xlink:href="#DejaVuSans-32"/>
       <use x="190.869141" xlink:href="#DejaVuSans-32"/>
       <use x="254.492188" xlink:href="#DejaVuSans-2d"/>
       <use x="290.576172" xlink:href="#DejaVuSans-30"/>
       <use x="354.199219" xlink:href="#DejaVuSans-32"/>
      </g>
     </g>
    </g>
    <g id="text_7">
     <!-- date -->
     <g transform="translate(224.885 324.351346)scale(0.1 -0.1)">
      <defs>
       <path d="M 2906 2969 
L 2906 4863 
L 3481 4863 
L 3481 0 
L 2906 0 
L 2906 525 
Q 2725 213 2448 61 
Q 2172 -91 1784 -91 
Q 1150 -91 751 415 
Q 353 922 353 1747 
Q 353 2572 751 3078 
Q 1150 3584 1784 3584 
Q 2172 3584 2448 3432 
Q 2725 3281 2906 2969 
z
M 947 1747 
Q 947 1113 1208 752 
Q 1469 391 1925 391 
Q 2381 391 2643 752 
Q 2906 1113 2906 1747 
Q 2906 2381 2643 2742 
Q 2381 3103 1925 3103 
Q 1469 3103 1208 2742 
Q 947 2381 947 1747 
z
" id="DejaVuSans-64" transform="scale(0.015625)"/>
       <path d="M 2194 1759 
Q 1497 1759 1228 1600 
Q 959 1441 959 1056 
Q 959 750 1161 570 
Q 1363 391 1709 391 
Q 2188 391 2477 730 
Q 2766 1069 2766 1631 
L 2766 1759 
L 2194 1759 
z
M 3341 1997 
L 3341 0 
L 2766 0 
L 2766 531 
Q 2569 213 2275 61 
Q 1981 -91 1556 -91 
Q 1019 -91 701 211 
Q 384 513 384 1019 
Q 384 1609 779 1909 
Q 1175 2209 1959 2209 
L 2766 2209 
L 2766 2266 
Q 2766 2663 2505 2880 
Q 2244 3097 1772 3097 
Q 1472 3097 1187 3025 
Q 903 2953 641 2809 
L 641 3341 
Q 956 3463 1253 3523 
Q 1550 3584 1831 3584 
Q 2591 3584 2966 3190 
Q 3341 2797 3341 1997 
z
" id="DejaVuSans-61" transform="scale(0.015625)"/>
       <path d="M 1172 4494 
L 1172 3500 
L 2356 3500 
L 2356 3053 
L 1172 3053 
L 1172 1153 
Q 1172 725 1289 603 
Q 1406 481 1766 481 
L 2356 481 
L 2356 0 
L 1766 0 
Q 1100 0 847 248 
Q 594 497 594 1153 
L 594 3053 
L 172 3053 
L 172 3500 
L 594 3500 
L 594 4494 
L 1172 4494 
z
" id="DejaVuSans-74" transform="scale(0.015625)"/>
       <path d="M 3597 1894 
L 3597 1613 
L 953 1613 
Q 991 1019 1311 708 
Q 1631 397 2203 397 
Q 2534 397 2845 478 
Q 3156 559 3463 722 
L 3463 178 
Q 3153 47 2828 -22 
Q 2503 -91 2169 -91 
Q 1331 -91 842 396 
Q 353 884 353 1716 
Q 353 2575 817 3079 
Q 1281 3584 2069 3584 
Q 2775 3584 3186 3129 
Q 3597 2675 3597 1894 
z
M 3022 2063 
Q 3016 2534 2758 2815 
Q 2500 3097 2075 3097 
Q 1594 3097 1305 2825 
Q 1016 2553 972 2059 
L 3022 2063 
z
" id="DejaVuSans-65" transform="scale(0.015625)"/>
      </defs>
      <use xlink:href="#DejaVuSans-64"/>
      <use x="63.476562" xlink:href="#DejaVuSans-61"/>
      <use x="124.755859" xlink:href="#DejaVuSans-74"/>
      <use x="163.964844" xlink:href="#DejaVuSans-65"/>
     </g>
    </g>
   </g>
   <g id="matplotlib.axis_2">
    <g id="ytick_1">
     <g id="line2d_7">
      <defs>
       <path d="M 0 0 
L -3.5 0 
" id="ma4d1a211ae" style="stroke:#000000;stroke-width:0.8;"/>
      </defs>
      <g>
       <use style="stroke:#000000;stroke-width:0.8;" x="57.6" xlink:href="#ma4d1a211ae" y="246.946363"/>
      </g>
     </g>
     <g id="text_8">
      <!-- 95000 -->
      <g transform="translate(18.7875 250.745582)scale(0.1 -0.1)">
       <defs>
        <path d="M 691 4666 
L 3169 4666 
L 3169 4134 
L 1269 4134 
L 1269 2991 
Q 1406 3038 1543 3061 
Q 1681 3084 1819 3084 
Q 2600 3084 3056 2656 
Q 3513 2228 3513 1497 
Q 3513 744 3044 326 
Q 2575 -91 1722 -91 
Q 1428 -91 1123 -41 
Q 819 9 494 109 
L 494 744 
Q 775 591 1075 516 
Q 1375 441 1709 441 
Q 2250 441 2565 725 
Q 2881 1009 2881 1497 
Q 2881 1984 2565 2268 
Q 2250 2553 1709 2553 
Q 1456 2553 1204 2497 
Q 953 2441 691 2322 
L 691 4666 
z
" id="DejaVuSans-35" transform="scale(0.015625)"/>
       </defs>
       <use xlink:href="#DejaVuSans-39"/>
       <use x="63.623047" xlink:href="#DejaVuSans-35"/>
       <use x="127.246094" xlink:href="#DejaVuSans-30"/>
       <use x="190.869141" xlink:href="#DejaVuSans-30"/>
       <use x="254.492188" xlink:href="#DejaVuSans-30"/>
      </g>
     </g>
    </g>
    <g id="ytick_2">
     <g id="line2d_8">
      <g>
       <use style="stroke:#000000;stroke-width:0.8;" x="57.6" xlink:href="#ma4d1a211ae" y="197.975017"/>
      </g>
     </g>
     <g id="text_9">
      <!-- 100000 -->
      <g transform="translate(12.425 201.774236)scale(0.1 -0.1)">
       <use xlink:href="#DejaVuSans-31"/>
       <use x="63.623047" xlink:href="#DejaVuSans-30"/>
       <use x="127.246094" xlink:href="#DejaVuSans-30"/>
       <use x="190.869141" xlink:href="#DejaVuSans-30"/>
       <use x="254.492188" xlink:href="#DejaVuSans-30"/>
       <use x="318.115234" xlink:href="#DejaVuSans-30"/>
      </g>
     </g>
    </g>
    <g id="ytick_3">
     <g id="line2d_9">
      <g>
       <use style="stroke:#000000;stroke-width:0.8;" x="57.6" xlink:href="#ma4d1a211ae" y="149.003671"/>
      </g>
     </g>
     <g id="text_10">
      <!-- 105000 -->
      <g transform="translate(12.425 152.802889)scale(0.1 -0.1)">
       <use xlink:href="#DejaVuSans-31"/>
       <use x="63.623047" xlink:href="#DejaVuSans-30"/>
       <use x="127.246094" xlink:href="#DejaVuSans-35"/>
       <use x="190.869141" xlink:href="#DejaVuSans-30"/>
       <use x="254.492188" xlink:href="#DejaVuSans-30"/>
       <use x="318.115234" xlink:href="#DejaVuSans-30"/>
      </g>
     </g>
    </g>
    <g id="ytick_4">
     <g id="line2d_10">
      <g>
       <use style="stroke:#000000;stroke-width:0.8;" x="57.6" xlink:href="#ma4d1a211ae" y="100.032324"/>
      </g>
     </g>
     <g id="text_11">
      <!-- 110000 -->
      <g transform="translate(12.425 103.831543)scale(0.1 -0.1)">
       <use xlink:href="#DejaVuSans-31"/>
       <use x="63.623047" xlink:href="#DejaVuSans-31"/>
       <use x="127.246094" xlink:href="#DejaVuSans-30"/>
       <use x="190.869141" xlink:href="#DejaVuSans-30"/>
       <use x="254.492188" xlink:href="#DejaVuSans-30"/>
       <use x="318.115234" xlink:href="#DejaVuSans-30"/>
      </g>
     </g>
    </g>
    <g id="ytick_5">
     <g id="line2d_11">
      <g>
       <use style="stroke:#000000;stroke-width:0.8;" x="57.6" xlink:href="#ma4d1a211ae" y="51.060978"/>
      </g>
     </g>
     <g id="text_12">
      <!-- 115000 -->
      <g transform="translate(12.425 54.860197)scale(0.1 -0.1)">
       <use xlink:href="#DejaVuSans-31"/>
       <use x="63.623047" xlink:href="#DejaVuSans-31"/>
       <use x="127.246094" xlink:href="#DejaVuSans-35"/>
       <use x="190.869141" xlink:href="#DejaVuSans-30"/>
       <use x="254.492188" xlink:href="#DejaVuSans-30"/>
       <use x="318.115234" xlink:href="#DejaVuSans-30"/>
      </g>
     </g>
    </g>
   </g>
   <g id="line2d_12">
    <path clip-path="url(#pdb9cf5f60e)" d="M 73.832727 197.975017 
L 75.800331 197.93632 
L 77.767934 194.370982 
L 79.735537 200.087046 
L 81.70314 190.351479 
L 87.60595 184.102903 
L 89.573554 182.979033 
L 91.541157 185.519311 
L 93.50876 184.306356 
L 95.476364 184.275289 
L 103.346777 184.314412 
L 105.31438 188.02983 
L 107.281983 190.749371 
L 109.249587 199.528116 
L 115.152397 191.503982 
L 117.12 205.955283 
L 119.087603 199.590142 
L 121.055207 201.136868 
L 123.02281 211.726789 
L 128.92562 228.763417 
L 130.893223 231.084723 
L 132.860826 223.043029 
L 134.82843 208.131075 
L 136.796033 199.473076 
L 142.698843 192.354765 
L 144.666446 213.571463 
L 146.63405 209.901324 
L 148.601653 217.301216 
L 150.569256 202.991205 
L 156.472066 220.853718 
L 158.439669 206.861204 
L 160.407273 202.510622 
L 162.374876 202.338409 
L 164.342479 201.348611 
L 170.245289 200.444895 
L 172.212893 199.109021 
L 174.180496 211.969734 
L 176.148099 192.017457 
L 178.115702 190.690463 
L 184.018512 183.302958 
L 185.986116 173.672201 
L 187.953719 169.720745 
L 189.921322 186.616866 
L 191.888926 198.97967 
L 197.791736 197.93547 
L 199.759339 207.071428 
L 201.726942 208.725807 
L 203.694545 196.831296 
L 205.662149 209.559155 
L 211.564959 189.536216 
L 213.532562 190.411887 
L 215.500165 180.037097 
L 217.467769 191.700352 
L 219.435372 185.354742 
L 225.338182 184.459825 
L 227.305785 196.588694 
L 229.273388 196.297936 
L 231.240992 204.937125 
L 233.208595 196.893703 
L 239.111405 193.499878 
L 241.079008 193.470819 
L 243.046612 198.905164 
L 245.014215 201.345658 
L 246.981818 202.689264 
L 252.884628 196.008051 
L 254.852231 187.870422 
L 256.819835 188.448784 
L 260.755041 188.692092 
L 266.657851 197.986033 
L 268.625455 216.672107 
L 270.593058 229.909123 
L 272.560661 217.5335 
L 274.528264 224.492391 
L 280.431074 205.724591 
L 282.398678 188.6721 
L 284.366281 180.724456 
L 286.333884 180.876246 
L 288.301488 177.179676 
L 294.204298 187.381067 
L 296.171901 181.846002 
L 298.139504 176.505366 
L 300.107107 172.159249 
L 302.074711 183.745349 
L 307.977521 197.454406 
L 309.945124 174.673191 
L 311.912727 170.43817 
L 313.880331 161.562909 
L 321.750744 148.71486 
L 323.718347 149.463023 
L 325.68595 149.071995 
L 327.653554 150.721171 
L 329.621157 155.191228 
L 335.523967 139.362258 
L 337.49157 126.396882 
L 339.459174 153.052153 
L 341.426777 144.368417 
L 343.39438 140.473973 
L 349.29719 140.693267 
L 351.264793 130.836508 
L 353.232397 129.348028 
L 355.2 142.107233 
L 357.167603 139.038584 
L 365.038017 161.582048 
L 367.00562 166.433369 
L 368.973223 177.934327 
L 370.940826 201.090025 
L 376.843636 199.720799 
L 378.81124 211.290591 
L 380.778843 211.150267 
L 382.746446 217.596273 
L 384.71405 192.631192 
L 390.61686 171.734795 
L 392.584463 161.969255 
L 394.552066 146.55614 
L 396.519669 212.405939 
L 398.487273 211.085249 
" style="fill:none;stroke:#0000ff;stroke-linecap:square;stroke-opacity:0.9;stroke-width:2;"/>
   </g>
   <g id="line2d_13">
    <path clip-path="url(#pdb9cf5f60e)" d="M 73.832727 197.975017 
L 75.800331 192.609474 
L 77.767934 188.069153 
L 79.735537 194.588902 
L 81.70314 182.323595 
L 87.60595 178.910343 
L 89.573554 178.016385 
L 91.541157 178.410119 
L 93.50876 179.689345 
L 95.476364 178.554514 
L 103.346777 176.935015 
L 105.31438 181.015357 
L 107.281983 183.449071 
L 109.249587 193.774642 
L 115.152397 186.154787 
L 117.12 195.711636 
L 119.087603 190.991874 
L 121.055207 193.886254 
L 123.02281 205.961015 
L 128.92562 222.206189 
L 130.893223 222.920344 
L 132.860826 217.074015 
L 134.82843 203.890052 
L 136.796033 197.207673 
L 142.698843 190.42651 
L 144.666446 210.042218 
L 146.63405 208.621151 
L 148.601653 218.62713 
L 150.569256 204.533661 
L 156.472066 215.104135 
L 158.439669 201.094715 
L 160.407273 198.822676 
L 162.374876 195.503498 
L 164.342479 191.456298 
L 170.245289 197.163007 
L 172.212893 204.171154 
L 174.180496 207.517187 
L 176.148099 183.895193 
L 178.115702 176.298726 
L 184.018512 173.782165 
L 185.986116 165.415229 
L 187.953719 160.1761 
L 189.921322 173.788455 
L 191.888926 178.763875 
L 197.791736 181.521562 
L 199.759339 186.596077 
L 201.726942 192.056013 
L 203.694545 178.246117 
L 205.662149 176.541986 
L 211.564959 176.471971 
L 213.532562 172.231094 
L 215.500165 164.585157 
L 217.467769 166.672348 
L 219.435372 166.286395 
L 225.338182 165.389345 
L 227.305785 172.974329 
L 229.273388 178.787109 
L 231.240992 178.319215 
L 233.208595 171.907328 
L 239.111405 169.120324 
L 241.079008 171.893659 
L 243.046612 172.494442 
L 245.014215 172.421996 
L 246.981818 175.73823 
L 252.884628 172.221796 
L 254.852231 161.838965 
L 256.819835 161.20116 
L 260.755041 187.810027 
L 266.657851 176.921053 
L 268.625455 198.271568 
L 270.593058 209.380426 
L 272.560661 195.427153 
L 274.528264 204.012961 
L 280.431074 189.048839 
L 282.398678 172.06335 
L 284.366281 165.966614 
L 286.333884 166.888226 
L 288.301488 160.154734 
L 294.204298 170.791551 
L 296.171901 170.756204 
L 298.139504 162.132864 
L 300.107107 162.254047 
L 302.074711 174.706622 
L 307.977521 187.12671 
L 309.945124 167.797758 
L 311.912727 162.400675 
L 313.880331 153.796103 
L 321.750744 140.096223 
L 323.718347 140.369028 
L 325.68595 140.015817 
L 327.653554 141.456261 
L 329.621157 145.598274 
L 335.523967 134.32566 
L 337.49157 123.964641 
L 339.459174 146.691125 
L 341.426777 142.615115 
L 343.39438 137.298888 
L 349.29719 138.342688 
L 351.264793 132.057177 
L 353.232397 131.553085 
L 355.2 139.484397 
L 357.167603 140.476154 
L 365.038017 163.346389 
L 367.00562 173.003536 
L 368.973223 182.821035 
L 370.940826 202.709045 
L 376.843636 203.968658 
L 378.81124 202.155705 
L 380.778843 203.606917 
L 382.746446 211.704558 
L 384.71405 188.932313 
L 390.61686 173.343777 
L 392.584463 161.2233 
L 394.552066 145.517672 
L 396.519669 190.436018 
L 398.487273 182.677721 
" style="fill:none;stroke:#ff0000;stroke-linecap:square;stroke-opacity:0.9;stroke-width:2;"/>
   </g>
   <g id="line2d_14">
    <path clip-path="url(#pdb9cf5f60e)" d="M 73.832727 197.975017 
L 75.800331 193.236339 
L 77.767934 189.122448 
L 79.735537 194.063904 
L 81.70314 184.543521 
L 87.60595 178.296405 
L 89.573554 176.51477 
L 91.541157 179.064131 
L 93.50876 177.83402 
L 95.476364 177.826638 
L 103.346777 178.074421 
L 105.31438 181.347557 
L 107.281983 184.780744 
L 109.249587 193.677999 
L 115.152397 184.735745 
L 117.12 198.873326 
L 119.087603 193.376717 
L 121.055207 194.835424 
L 123.02281 204.306917 
L 128.92562 221.400476 
L 130.893223 223.218498 
L 132.860826 215.907473 
L 134.82843 200.467259 
L 136.796033 192.670322 
L 142.698843 184.443277 
L 144.666446 205.063896 
L 146.63405 201.572931 
L 148.601653 208.636576 
L 150.569256 194.132085 
L 156.472066 212.290492 
L 158.439669 197.200586 
L 160.407273 193.669099 
L 162.374876 191.18195 
L 164.342479 187.396626 
L 170.245289 192.489789 
L 172.212893 200.247434 
L 174.180496 201.782849 
L 176.148099 183.399862 
L 178.115702 181.358353 
L 184.018512 173.463919 
L 185.986116 162.917839 
L 187.953719 159.244818 
L 189.921322 175.058342 
L 191.888926 188.455697 
L 197.791736 187.048274 
L 199.759339 196.912939 
L 201.726942 199.092158 
L 203.694545 186.622935 
L 205.662149 184.91143 
L 211.564959 179.372533 
L 213.532562 177.469451 
L 215.500165 169.265113 
L 217.467769 168.589452 
L 219.435372 161.681968 
L 225.338182 160.917758 
L 227.305785 173.924076 
L 229.273388 180.745725 
L 231.240992 181.93855 
L 233.208595 173.854809 
L 239.111405 170.600405 
L 241.079008 175.830005 
L 243.046612 175.39687 
L 245.014215 178.540726 
L 246.981818 179.135211 
L 252.884628 172.873389 
L 254.852231 164.056062 
L 256.819835 164.804726 
L 260.755041 187.634426 
L 266.657851 174.839643 
L 268.625455 194.439791 
L 270.593058 207.835749 
L 272.560661 196.573187 
L 274.528264 203.156685 
L 280.431074 183.868285 
L 282.398678 166.519427 
L 284.366281 158.331673 
L 286.333884 157.60326 
L 288.301488 154.101368 
L 294.204298 164.067135 
L 296.171901 159.15469 
L 298.139504 153.014963 
L 300.107107 149.602633 
L 302.074711 162.24536 
L 307.977521 175.132172 
L 309.945124 151.54226 
L 311.912727 147.669356 
L 313.880331 137.365375 
L 321.750744 124.854602 
L 323.718347 125.475356 
L 325.68595 125.055025 
L 327.653554 126.522141 
L 329.621157 131.48215 
L 335.523967 115.804264 
L 337.49157 101.723481 
L 339.459174 130.000702 
L 341.426777 119.559266 
L 343.39438 115.468372 
L 349.29719 112.665881 
L 351.264793 103.172086 
L 353.232397 101.169461 
L 355.2 114.171871 
L 357.167603 111.05552 
L 365.038017 133.410274 
L 367.00562 139.354417 
L 368.973223 151.170755 
L 370.940826 174.804361 
L 376.843636 172.579336 
L 378.81124 184.87482 
L 380.778843 185.128796 
L 382.746446 190.983275 
L 384.71405 165.918656 
L 390.61686 143.449424 
L 392.584463 134.510059 
L 394.552066 116.568469 
L 396.519669 187.235182 
L 398.487273 186.554726 
" style="fill:none;stroke:#ff8040;stroke-linecap:square;stroke-opacity:0.9;stroke-width:2;"/>
   </g>
   <g id="line2d_15">
    <path clip-path="url(#pdb9cf5f60e)" d="M 73.832727 198.954444 
L 75.800331 196.013172 
L 77.767934 194.627661 
L 79.735537 199.717882 
L 81.70314 188.950401 
L 87.60595 191.198344 
L 89.573554 188.886705 
L 91.541157 190.817581 
L 93.50876 193.10526 
L 95.476364 193.012867 
L 103.346777 191.582997 
L 105.31438 194.834834 
L 107.281983 197.969201 
L 109.249587 209.683461 
L 115.152397 205.425815 
L 117.12 214.968091 
L 119.087603 211.695548 
L 121.055207 213.425336 
L 123.02281 224.099792 
L 128.92562 240.991113 
L 130.893223 241.029069 
L 132.860826 236.305111 
L 134.82843 228.177824 
L 136.796033 221.262517 
L 142.698843 219.515353 
L 144.666446 237.867449 
L 146.63405 236.598459 
L 148.601653 245.312021 
L 150.569256 231.545724 
L 156.472066 246.07071 
L 158.439669 235.582254 
L 160.407273 232.769956 
L 162.374876 227.939768 
L 164.342479 223.176097 
L 170.245289 228.916498 
L 172.212893 236.979812 
L 174.180496 238.907303 
L 176.148099 216.770259 
L 178.115702 212.138155 
L 184.018512 208.549985 
L 185.986116 201.157096 
L 187.953719 196.91396 
L 189.921322 214.174433 
L 191.888926 219.622675 
L 197.791736 221.982181 
L 199.759339 230.123548 
L 201.726942 234.21272 
L 203.694545 221.597953 
L 205.662149 222.527833 
L 211.564959 218.795525 
L 213.532562 213.937736 
L 215.500165 204.945982 
L 217.467769 206.470414 
L 219.435372 205.901556 
L 225.338182 206.384487 
L 227.305785 212.876751 
L 229.273388 219.039326 
L 231.240992 218.046303 
L 233.208595 211.236333 
L 239.111405 210.14331 
L 241.079008 212.637674 
L 243.046612 212.966879 
L 245.014215 209.671838 
L 246.981818 216.913807 
L 252.884628 214.51359 
L 254.852231 208.323955 
L 256.819835 208.457094 
L 260.755041 234.882959 
L 266.657851 222.642153 
L 268.625455 243.792436 
L 270.593058 254.696119 
L 272.560661 242.439344 
L 274.528264 250.493353 
L 280.431074 236.670042 
L 282.398678 220.185996 
L 284.366281 213.583273 
L 286.333884 214.891626 
L 288.301488 210.566949 
L 294.204298 221.251309 
L 296.171901 221.540919 
L 298.139504 212.591738 
L 300.107107 210.567219 
L 302.074711 222.733094 
L 307.977521 236.417011 
L 309.945124 215.437037 
L 311.912727 210.526948 
L 313.880331 200.758467 
L 321.750744 186.782808 
L 323.718347 187.569843 
L 325.68595 185.466235 
L 327.653554 188.068726 
L 329.621157 193.263219 
L 335.523967 181.607705 
L 337.49157 172.589198 
L 339.459174 198.913702 
L 341.426777 189.203979 
L 343.39438 183.943119 
L 349.29719 185.426183 
L 351.264793 181.310394 
L 353.232397 180.479568 
L 355.2 193.214649 
L 357.167603 195.184404 
L 365.038017 218.884482 
L 367.00562 230.482138 
L 368.973223 239.971495 
L 370.940826 260.368077 
L 376.843636 260.621106 
L 378.81124 256.408693 
L 380.778843 259.787458 
L 382.746446 264.640254 
L 384.71405 239.318124 
L 390.61686 226.557624 
L 392.584463 211.55712 
L 394.552066 206.205469 
L 396.519669 265.797818 
L 398.487273 265.622241 
" style="fill:none;stroke:#0d0d0d;stroke-linecap:square;stroke-opacity:0.25;stroke-width:2;"/>
   </g>
   <g id="line2d_16">
    <path clip-path="url(#pdb9cf5f60e)" d="M 73.832727 196.99559 
L 75.800331 189.420971 
L 77.767934 181.835783 
L 79.735537 186.499568 
L 81.70314 173.712278 
L 87.60595 165.332827 
L 89.573554 164.73507 
L 91.541157 165.752016 
L 93.50876 165.293327 
L 95.476364 165.329291 
L 103.346777 160.678926 
L 105.31438 165.83244 
L 107.281983 167.162254 
L 109.249587 172.341372 
L 115.152397 165.909758 
L 117.12 177.316011 
L 119.087603 168.606732 
L 121.055207 170.726086 
L 123.02281 185.205311 
L 128.92562 200.550643 
L 130.893223 200.848807 
L 132.860826 191.715092 
L 134.82843 177.02456 
L 136.796033 168.860129 
L 142.698843 163.714084 
L 144.666446 180.914046 
L 146.63405 180.847721 
L 148.601653 190.127917 
L 150.569256 174.16989 
L 156.472066 186.134422 
L 158.439669 170.804563 
L 160.407273 165.160377 
L 162.374876 162.601049 
L 164.342479 158.519339 
L 170.245289 166.122633 
L 172.212893 172.484385 
L 174.180496 177.624602 
L 176.148099 152.701701 
L 178.115702 145.502404 
L 184.018512 142.95103 
L 185.986116 133.183859 
L 187.953719 127.573108 
L 189.921322 135.47773 
L 191.888926 136.676126 
L 197.791736 141.723811 
L 199.759339 141.936686 
L 201.726942 141.290126 
L 203.694545 128.328771 
L 205.662149 122.003962 
L 211.564959 123.930517 
L 213.532562 120.136033 
L 215.500165 112.614225 
L 217.467769 114.612422 
L 219.435372 116.379675 
L 225.338182 116.13158 
L 227.305785 128.364599 
L 229.273388 132.729267 
L 231.240992 132.734193 
L 233.208595 122.602033 
L 239.111405 120.323483 
L 241.079008 120.211165 
L 243.046612 122.402708 
L 245.014215 123.763417 
L 246.981818 128.47251 
L 252.884628 121.50536 
L 254.852231 111.373958 
L 256.819835 112.864495 
L 260.755041 136.638116 
L 266.657851 123.982686 
L 268.625455 143.372659 
L 270.593058 158.847176 
L 272.560661 140.276081 
L 274.528264 146.862947 
L 280.431074 130.742969 
L 282.398678 110.28135 
L 284.366281 101.576374 
L 286.333884 102.766822 
L 288.301488 96.178386 
L 294.204298 105.906172 
L 296.171901 101.783309 
L 298.139504 89.288354 
L 300.107107 90.701224 
L 302.074711 104.850735 
L 307.977521 118.851046 
L 309.945124 95.33039 
L 311.912727 87.293342 
L 313.880331 79.047591 
L 321.750744 61.292547 
L 323.718347 60.351902 
L 325.68595 60.40852 
L 327.653554 60.843285 
L 329.621157 67.363971 
L 335.523967 60.707673 
L 337.49157 52.154182 
L 339.459174 74.014666 
L 341.426777 69.822351 
L 343.39438 64.287345 
L 349.29719 64.991595 
L 351.264793 57.06265 
L 353.232397 57.60177 
L 355.2 65.741843 
L 357.167603 62.778989 
L 365.038017 87.979213 
L 367.00562 94.097069 
L 368.973223 105.13414 
L 370.940826 124.222427 
L 376.843636 128.078487 
L 378.81124 122.474968 
L 380.778843 120.342397 
L 382.746446 130.884405 
L 384.71405 102.389264 
L 390.61686 84.903107 
L 392.584463 74.070281 
L 394.552066 57.219836 
L 396.519669 79.111619 
L 398.487273 70.420629 
" style="fill:none;stroke:#0d0d0d;stroke-linecap:square;stroke-opacity:0.25;stroke-width:2;"/>
   </g>
   <g id="patch_3">
    <path d="M 57.6 276.48 
L 57.6 41.472 
" style="fill:none;stroke:#000000;stroke-linecap:square;stroke-linejoin:miter;stroke-width:0.8;"/>
   </g>
   <g id="patch_4">
    <path d="M 414.72 276.48 
L 414.72 41.472 
" style="fill:none;stroke:#000000;stroke-linecap:square;stroke-linejoin:miter;stroke-width:0.8;"/>
   </g>
   <g id="patch_5">
    <path d="M 57.6 276.48 
L 414.72 276.48 
" style="fill:none;stroke:#000000;stroke-linecap:square;stroke-linejoin:miter;stroke-width:0.8;"/>
   </g>
   <g id="patch_6">
    <path d="M 57.6 41.472 
L 414.72 41.472 
" style="fill:none;stroke:#000000;stroke-linecap:square;stroke-linejoin:miter;stroke-width:0.8;"/>
   </g>
   <g id="text_13">
    <!-- TESTFUNDS1550 -->
    <g transform="translate(185.200312 22.034625)scale(0.12 -0.12)">
     <defs>
      <path d="M -19 4666 
L 3928 4666 
L 3928 4134 
L 2272 4134 
L 2272 0 
L 1638 0 
L 1638 4134 
L -19 4134 
L -19 4666 
z
" id="DejaVuSans-54" transform="scale(0.015625)"/>
      <path d="M 628 4666 
L 3578 4666 
L 3578 4134 
L 1259 4134 
L 1259 2753 
L 3481 2753 
L 3481 2222 
L 1259 2222 
L 1259 531 
L 3634 531 
L 3634 0 
L 628 0 
L 628 4666 
z
" id="DejaVuSans-45" transform="scale(0.015625)"/>
      <path d="M 3425 4513 
L 3425 3897 
Q 3066 4069 2747 4153 
Q 2428 4238 2131 4238 
Q 1616 4238 1336 4038 
Q 1056 3838 1056 3469 
Q 1056 3159 1242 3001 
Q 1428 2844 1947 2747 
L 2328 2669 
Q 3034 2534 3370 2195 
Q 3706 1856 3706 1288 
Q 3706 609 3251 259 
Q 2797 -91 1919 -91 
Q 1588 -91 1214 -16 
Q 841 59 441 206 
L 441 856 
Q 825 641 1194 531 
Q 1563 422 1919 422 
Q 2459 422 2753 634 
Q 3047 847 3047 1241 
Q 3047 1584 2836 1778 
Q 2625 1972 2144 2069 
L 1759 2144 
Q 1053 2284 737 2584 
Q 422 2884 422 3419 
Q 422 4038 858 4394 
Q 1294 4750 2059 4750 
Q 2388 4750 2728 4690 
Q 3069 4631 3425 4513 
z
" id="DejaVuSans-53" transform="scale(0.015625)"/>
      <path d="M 628 4666 
L 3309 4666 
L 3309 4134 
L 1259 4134 
L 1259 2759 
L 3109 2759 
L 3109 2228 
L 1259 2228 
L 1259 0 
L 628 0 
L 628 4666 
z
" id="DejaVuSans-46" transform="scale(0.015625)"/>
      <path d="M 556 4666 
L 1191 4666 
L 1191 1831 
Q 1191 1081 1462 751 
Q 1734 422 2344 422 
Q 2950 422 3222 751 
Q 3494 1081 3494 1831 
L 3494 4666 
L 4128 4666 
L 4128 1753 
Q 4128 841 3676 375 
Q 3225 -91 2344 -91 
Q 1459 -91 1007 375 
Q 556 841 556 1753 
L 556 4666 
z
" id="DejaVuSans-55" transform="scale(0.015625)"/>
      <path d="M 628 4666 
L 1478 4666 
L 3547 763 
L 3547 4666 
L 4159 4666 
L 4159 0 
L 3309 0 
L 1241 3903 
L 1241 0 
L 628 0 
L 628 4666 
z
" id="DejaVuSans-4e" transform="scale(0.015625)"/>
      <path d="M 1259 4147 
L 1259 519 
L 2022 519 
Q 2988 519 3436 956 
Q 3884 1394 3884 2338 
Q 3884 3275 3436 3711 
Q 2988 4147 2022 4147 
L 1259 4147 
z
M 628 4666 
L 1925 4666 
Q 3281 4666 3915 4102 
Q 4550 3538 4550 2338 
Q 4550 1131 3912 565 
Q 3275 0 1925 0 
L 628 0 
L 628 4666 
z
" id="DejaVuSans-44" transform="scale(0.015625)"/>
     </defs>
     <use xlink:href="#DejaVuSans-54"/>
     <use x="61.083984" xlink:href="#DejaVuSans-45"/>
     <use x="124.267578" xlink:href="#DejaVuSans-53"/>
     <use x="187.744141" xlink:href="#DejaVuSans-54"/>
     <use x="248.828125" xlink:href="#DejaVuSans-46"/>
     <use x="306.347656" xlink:href="#DejaVuSans-55"/>
     <use x="379.541016" xlink:href="#DejaVuSans-4e"/>
     <use x="454.345703" xlink:href="#DejaVuSans-44"/>
     <use x="531.347656" xlink:href="#DejaVuSans-53"/>
     <use x="594.824219" xlink:href="#DejaVuSans-31"/>
     <use x="658.447266" xlink:href="#DejaVuSans-35"/>
     <use x="722.070312" xlink:href="#DejaVuSans-35"/>
     <use x="785.693359" xlink:href="#DejaVuSans-30"/>
    </g>
    <!-- daily_report -->
    <g transform="translate(200.466563 35.472)scale(0.12 -0.12)">
     <defs>
      <path d="M 603 3500 
L 1178 3500 
L 1178 0 
L 603 0 
L 603 3500 
z
M 603 4863 
L 1178 4863 
L 1178 4134 
L 603 4134 
L 603 4863 
z
" id="DejaVuSans-69" transform="scale(0.015625)"/>
      <path d="M 603 4863 
L 1178 4863 
L 1178 0 
L 603 0 
L 603 4863 
z
" id="DejaVuSans-6c" transform="scale(0.015625)"/>
      <path d="M 2059 -325 
Q 1816 -950 1584 -1140 
Q 1353 -1331 966 -1331 
L 506 -1331 
L 506 -850 
L 844 -850 
Q 1081 -850 1212 -737 
Q 1344 -625 1503 -206 
L 1606 56 
L 191 3500 
L 800 3500 
L 1894 763 
L 2988 3500 
L 3597 3500 
L 2059 -325 
z
" id="DejaVuSans-79" transform="scale(0.015625)"/>
      <path d="M 3263 -1063 
L 3263 -1509 
L -63 -1509 
L -63 -1063 
L 3263 -1063 
z
" id="DejaVuSans-5f" transform="scale(0.015625)"/>
      <path d="M 2631 2963 
Q 2534 3019 2420 3045 
Q 2306 3072 2169 3072 
Q 1681 3072 1420 2755 
Q 1159 2438 1159 1844 
L 1159 0 
L 581 0 
L 581 3500 
L 1159 3500 
L 1159 2956 
Q 1341 3275 1631 3429 
Q 1922 3584 2338 3584 
Q 2397 3584 2469 3576 
Q 2541 3569 2628 3553 
L 2631 2963 
z
" id="DejaVuSans-72" transform="scale(0.015625)"/>
      <path d="M 1159 525 
L 1159 -1331 
L 581 -1331 
L 581 3500 
L 1159 3500 
L 1159 2969 
Q 1341 3281 1617 3432 
Q 1894 3584 2278 3584 
Q 2916 3584 3314 3078 
Q 3713 2572 3713 1747 
Q 3713 922 3314 415 
Q 2916 -91 2278 -91 
Q 1894 -91 1617 61 
Q 1341 213 1159 525 
z
M 3116 1747 
Q 3116 2381 2855 2742 
Q 2594 3103 2138 3103 
Q 1681 3103 1420 2742 
Q 1159 2381 1159 1747 
Q 1159 1113 1420 752 
Q 1681 391 2138 391 
Q 2594 391 2855 752 
Q 3116 1113 3116 1747 
z
" id="DejaVuSans-70" transform="scale(0.015625)"/>
      <path d="M 1959 3097 
Q 1497 3097 1228 2736 
Q 959 2375 959 1747 
Q 959 1119 1226 758 
Q 1494 397 1959 397 
Q 2419 397 2687 759 
Q 2956 1122 2956 1747 
Q 2956 2369 2687 2733 
Q 2419 3097 1959 3097 
z
M 1959 3584 
Q 2709 3584 3137 3096 
Q 3566 2609 3566 1747 
Q 3566 888 3137 398 
Q 2709 -91 1959 -91 
Q 1206 -91 779 398 
Q 353 888 353 1747 
Q 353 2609 779 3096 
Q 1206 3584 1959 3584 
z
" id="DejaVuSans-6f" transform="scale(0.015625)"/>
     </defs>
     <use xlink:href="#DejaVuSans-64"/>
     <use x="63.476562" xlink:href="#DejaVuSans-61"/>
     <use x="124.755859" xlink:href="#DejaVuSans-69"/>
     <use x="152.539062" xlink:href="#DejaVuSans-6c"/>
     <use x="180.322266" xlink:href="#DejaVuSans-79"/>
     <use x="239.501953" xlink:href="#DejaVuSans-5f"/>
     <use x="289.501953" xlink:href="#DejaVuSans-72"/>
     <use x="328.365234" xlink:href="#DejaVuSans-65"/>
     <use x="389.888672" xlink:href="#DejaVuSans-70"/>
     <use x="453.365234" xlink:href="#DejaVuSans-6f"/>
     <use x="514.546875" xlink:href="#DejaVuSans-72"/>
     <use x="555.660156" xlink:href="#DejaVuSans-74"/>
    </g>
   </g>
   <g id="legend_1">
    <g id="patch_7">
     <path d="M 64.6 122.862625 
L 155.792188 122.862625 
Q 157.792188 122.862625 157.792188 120.862625 
L 157.792188 48.472 
Q 157.792188 46.472 155.792188 46.472 
L 64.6 46.472 
Q 62.6 46.472 62.6 48.472 
L 62.6 120.862625 
Q 62.6 122.862625 64.6 122.862625 
z
" style="fill:#ffffff;opacity:0.8;stroke:#cccccc;stroke-linejoin:miter;"/>
    </g>
    <g id="line2d_17">
     <path d="M 66.6 54.570437 
L 86.6 54.570437 
" style="fill:none;stroke:#0000ff;stroke-linecap:square;stroke-opacity:0.9;stroke-width:2;"/>
    </g>
    <g id="line2d_18"/>
    <g id="text_14">
     <!-- alpaca -->
     <g transform="translate(94.6 58.070437)scale(0.1 -0.1)">
      <defs>
       <path d="M 3122 3366 
L 3122 2828 
Q 2878 2963 2633 3030 
Q 2388 3097 2138 3097 
Q 1578 3097 1268 2742 
Q 959 2388 959 1747 
Q 959 1106 1268 751 
Q 1578 397 2138 397 
Q 2388 397 2633 464 
Q 2878 531 3122 666 
L 3122 134 
Q 2881 22 2623 -34 
Q 2366 -91 2075 -91 
Q 1284 -91 818 406 
Q 353 903 353 1747 
Q 353 2603 823 3093 
Q 1294 3584 2113 3584 
Q 2378 3584 2631 3529 
Q 2884 3475 3122 3366 
z
" id="DejaVuSans-63" transform="scale(0.015625)"/>
      </defs>
      <use xlink:href="#DejaVuSans-61"/>
      <use x="61.279297" xlink:href="#DejaVuSans-6c"/>
      <use x="89.0625" xlink:href="#DejaVuSans-70"/>
      <use x="152.539062" xlink:href="#DejaVuSans-61"/>
      <use x="213.818359" xlink:href="#DejaVuSans-63"/>
      <use x="268.798828" xlink:href="#DejaVuSans-61"/>
     </g>
    </g>
    <g id="line2d_19">
     <path d="M 66.6 69.248562 
L 86.6 69.248562 
" style="fill:none;stroke:#ff0000;stroke-linecap:square;stroke-opacity:0.9;stroke-width:2;"/>
    </g>
    <g id="line2d_20"/>
    <g id="text_15">
     <!-- mattress -->
     <g transform="translate(94.6 72.748562)scale(0.1 -0.1)">
      <defs>
       <path d="M 3328 2828 
Q 3544 3216 3844 3400 
Q 4144 3584 4550 3584 
Q 5097 3584 5394 3201 
Q 5691 2819 5691 2113 
L 5691 0 
L 5113 0 
L 5113 2094 
Q 5113 2597 4934 2840 
Q 4756 3084 4391 3084 
Q 3944 3084 3684 2787 
Q 3425 2491 3425 1978 
L 3425 0 
L 2847 0 
L 2847 2094 
Q 2847 2600 2669 2842 
Q 2491 3084 2119 3084 
Q 1678 3084 1418 2786 
Q 1159 2488 1159 1978 
L 1159 0 
L 581 0 
L 581 3500 
L 1159 3500 
L 1159 2956 
Q 1356 3278 1631 3431 
Q 1906 3584 2284 3584 
Q 2666 3584 2933 3390 
Q 3200 3197 3328 2828 
z
" id="DejaVuSans-6d" transform="scale(0.015625)"/>
       <path d="M 2834 3397 
L 2834 2853 
Q 2591 2978 2328 3040 
Q 2066 3103 1784 3103 
Q 1356 3103 1142 2972 
Q 928 2841 928 2578 
Q 928 2378 1081 2264 
Q 1234 2150 1697 2047 
L 1894 2003 
Q 2506 1872 2764 1633 
Q 3022 1394 3022 966 
Q 3022 478 2636 193 
Q 2250 -91 1575 -91 
Q 1294 -91 989 -36 
Q 684 19 347 128 
L 347 722 
Q 666 556 975 473 
Q 1284 391 1588 391 
Q 1994 391 2212 530 
Q 2431 669 2431 922 
Q 2431 1156 2273 1281 
Q 2116 1406 1581 1522 
L 1381 1569 
Q 847 1681 609 1914 
Q 372 2147 372 2553 
Q 372 3047 722 3315 
Q 1072 3584 1716 3584 
Q 2034 3584 2315 3537 
Q 2597 3491 2834 3397 
z
" id="DejaVuSans-73" transform="scale(0.015625)"/>
      </defs>
      <use xlink:href="#DejaVuSans-6d"/>
      <use x="97.412109" xlink:href="#DejaVuSans-61"/>
      <use x="158.691406" xlink:href="#DejaVuSans-74"/>
      <use x="197.900391" xlink:href="#DejaVuSans-74"/>
      <use x="237.109375" xlink:href="#DejaVuSans-72"/>
      <use x="275.972656" xlink:href="#DejaVuSans-65"/>
      <use x="337.496094" xlink:href="#DejaVuSans-73"/>
      <use x="389.595703" xlink:href="#DejaVuSans-73"/>
     </g>
    </g>
    <g id="line2d_21">
     <path d="M 66.6 83.926687 
L 86.6 83.926687 
" style="fill:none;stroke:#ff8040;stroke-linecap:square;stroke-opacity:0.9;stroke-width:2;"/>
    </g>
    <g id="line2d_22"/>
    <g id="text_16">
     <!-- trader-0850 -->
     <g transform="translate(94.6 87.426687)scale(0.1 -0.1)">
      <defs>
       <path d="M 2034 2216 
Q 1584 2216 1326 1975 
Q 1069 1734 1069 1313 
Q 1069 891 1326 650 
Q 1584 409 2034 409 
Q 2484 409 2743 651 
Q 3003 894 3003 1313 
Q 3003 1734 2745 1975 
Q 2488 2216 2034 2216 
z
M 1403 2484 
Q 997 2584 770 2862 
Q 544 3141 544 3541 
Q 544 4100 942 4425 
Q 1341 4750 2034 4750 
Q 2731 4750 3128 4425 
Q 3525 4100 3525 3541 
Q 3525 3141 3298 2862 
Q 3072 2584 2669 2484 
Q 3125 2378 3379 2068 
Q 3634 1759 3634 1313 
Q 3634 634 3220 271 
Q 2806 -91 2034 -91 
Q 1263 -91 848 271 
Q 434 634 434 1313 
Q 434 1759 690 2068 
Q 947 2378 1403 2484 
z
M 1172 3481 
Q 1172 3119 1398 2916 
Q 1625 2713 2034 2713 
Q 2441 2713 2670 2916 
Q 2900 3119 2900 3481 
Q 2900 3844 2670 4047 
Q 2441 4250 2034 4250 
Q 1625 4250 1398 4047 
Q 1172 3844 1172 3481 
z
" id="DejaVuSans-38" transform="scale(0.015625)"/>
      </defs>
      <use xlink:href="#DejaVuSans-74"/>
      <use x="39.208984" xlink:href="#DejaVuSans-72"/>
      <use x="80.322266" xlink:href="#DejaVuSans-61"/>
      <use x="141.601562" xlink:href="#DejaVuSans-64"/>
      <use x="205.078125" xlink:href="#DejaVuSans-65"/>
      <use x="266.601562" xlink:href="#DejaVuSans-72"/>
      <use x="301.339844" xlink:href="#DejaVuSans-2d"/>
      <use x="337.423828" xlink:href="#DejaVuSans-30"/>
      <use x="401.046875" xlink:href="#DejaVuSans-38"/>
      <use x="464.669922" xlink:href="#DejaVuSans-35"/>
      <use x="528.292969" xlink:href="#DejaVuSans-30"/>
     </g>
    </g>
    <g id="line2d_23">
     <path d="M 66.6 98.604812 
L 86.6 98.604812 
" style="fill:none;stroke:#0d0d0d;stroke-linecap:square;stroke-opacity:0.25;stroke-width:2;"/>
    </g>
    <g id="line2d_24"/>
    <g id="text_17">
     <!-- rando-min -->
     <g transform="translate(94.6 102.104812)scale(0.1 -0.1)">
      <defs>
       <path d="M 3513 2113 
L 3513 0 
L 2938 0 
L 2938 2094 
Q 2938 2591 2744 2837 
Q 2550 3084 2163 3084 
Q 1697 3084 1428 2787 
Q 1159 2491 1159 1978 
L 1159 0 
L 581 0 
L 581 3500 
L 1159 3500 
L 1159 2956 
Q 1366 3272 1645 3428 
Q 1925 3584 2291 3584 
Q 2894 3584 3203 3211 
Q 3513 2838 3513 2113 
z
" id="DejaVuSans-6e" transform="scale(0.015625)"/>
      </defs>
      <use xlink:href="#DejaVuSans-72"/>
      <use x="41.113281" xlink:href="#DejaVuSans-61"/>
      <use x="102.392578" xlink:href="#DejaVuSans-6e"/>
      <use x="165.771484" xlink:href="#DejaVuSans-64"/>
      <use x="229.248047" xlink:href="#DejaVuSans-6f"/>
      <use x="292.304688" xlink:href="#DejaVuSans-2d"/>
      <use x="328.388672" xlink:href="#DejaVuSans-6d"/>
      <use x="425.800781" xlink:href="#DejaVuSans-69"/>
      <use x="453.583984" xlink:href="#DejaVuSans-6e"/>
     </g>
    </g>
    <g id="line2d_25">
     <path d="M 66.6 113.282937 
L 86.6 113.282937 
" style="fill:none;stroke:#0d0d0d;stroke-linecap:square;stroke-opacity:0.25;stroke-width:2;"/>
    </g>
    <g id="line2d_26"/>
    <g id="text_18">
     <!-- rando-max -->
     <g transform="translate(94.6 116.782937)scale(0.1 -0.1)">
      <defs>
       <path d="M 3513 3500 
L 2247 1797 
L 3578 0 
L 2900 0 
L 1881 1375 
L 863 0 
L 184 0 
L 1544 1831 
L 300 3500 
L 978 3500 
L 1906 2253 
L 2834 3500 
L 3513 3500 
z
" id="DejaVuSans-78" transform="scale(0.015625)"/>
      </defs>
      <use xlink:href="#DejaVuSans-72"/>
      <use x="41.113281" xlink:href="#DejaVuSans-61"/>
      <use x="102.392578" xlink:href="#DejaVuSans-6e"/>
      <use x="165.771484" xlink:href="#DejaVuSans-64"/>
      <use x="229.248047" xlink:href="#DejaVuSans-6f"/>
      <use x="292.304688" xlink:href="#DejaVuSans-2d"/>
      <use x="328.388672" xlink:href="#DejaVuSans-6d"/>
      <use x="425.800781" xlink:href="#DejaVuSans-61"/>
      <use x="487.080078" xlink:href="#DejaVuSans-78"/>
     </g>
    </g>
   </g>
  </g>
 </g>
 <defs>
  <clipPath id="pdb9cf5f60e">
   <rect height="235.008" width="357.12" x="57.6" y="41.472"/>
  </clipPath>
 </defs>
</svg>
