<?xml version="1.0" encoding="utf-8" standalone="no"?>
<!DOCTYPE svg PUBLIC "-//W3C//DTD SVG 1.1//EN"
  "http://www.w3.org/Graphics/SVG/1.1/DTD/svg11.dtd">
<svg height="345.6pt" version="1.1" viewBox="0 0 460.8 345.6" width="460.8pt" xmlns="http://www.w3.org/2000/svg" xmlns:xlink="http://www.w3.org/1999/xlink">
 <metadata>
  <rdf:RDF xmlns:cc="http://creativecommons.org/ns#" xmlns:dc="http://purl.org/dc/elements/1.1/" xmlns:rdf="http://www.w3.org/1999/02/22-rdf-syntax-ns#">
   <cc:Work>
    <dc:type rdf:resource="http://purl.org/dc/dcmitype/StillImage"/>
    <dc:date>2022-03-02T01:02:23.642512</dc:date>
    <dc:format>image/svg+xml</dc:format>
    <dc:creator>
     <cc:Agent>
      <dc:title>Matplotlib v3.4.3, https://matplotlib.org/</dc:title>
     </cc:Agent>
    </dc:creator>
   </cc:Work>
  </rdf:RDF>
 </metadata>
 <defs>
  <style type="text/css">*{stroke-linecap:butt;stroke-linejoin:round;}</style>
 </defs>
 <g id="figure_1">
  <g id="patch_1">
   <path d="M 0 345.6 
L 460.8 345.6 
L 460.8 0 
L 0 0 
z
" style="fill:#ffffff;"/>
  </g>
  <g id="axes_1">
   <g id="patch_2">
    <path d="M 57.6 276.48 
L 414.72 276.48 
L 414.72 41.472 
L 57.6 41.472 
z
" style="fill:#ffffff;"/>
   </g>
   <g id="matplotlib.axis_1">
    <g id="xtick_1">
     <g id="line2d_1">
      <defs>
       <path d="M 0 0 
L 0 3.5 
" id="m41ab665475" style="stroke:#000000;stroke-width:0.8;"/>
      </defs>
      <g>
       <use style="stroke:#000000;stroke-width:0.8;" x="89.2111" xlink:href="#m41ab665475" y="276.48"/>
      </g>
     </g>
     <g id="text_1">
      <!-- 2021-09 -->
      <g transform="translate(51.98628 310.951846)rotate(-30)scale(0.1 -0.1)">
       <defs>
        <path d="M 1228 531 
L 3431 531 
L 3431 0 
L 469 0 
L 469 531 
Q 828 903 1448 1529 
Q 2069 2156 2228 2338 
Q 2531 2678 2651 2914 
Q 2772 3150 2772 3378 
Q 2772 3750 2511 3984 
Q 2250 4219 1831 4219 
Q 1534 4219 1204 4116 
Q 875 4013 500 3803 
L 500 4441 
Q 881 4594 1212 4672 
Q 1544 4750 1819 4750 
Q 2544 4750 2975 4387 
Q 3406 4025 3406 3419 
Q 3406 3131 3298 2873 
Q 3191 2616 2906 2266 
Q 2828 2175 2409 1742 
Q 1991 1309 1228 531 
z
" id="DejaVuSans-32" transform="scale(0.015625)"/>
        <path d="M 2034 4250 
Q 1547 4250 1301 3770 
Q 1056 3291 1056 2328 
Q 1056 1369 1301 889 
Q 1547 409 2034 409 
Q 2525 409 2770 889 
Q 3016 1369 3016 2328 
Q 3016 3291 2770 3770 
Q 2525 4250 2034 4250 
z
M 2034 4750 
Q 2819 4750 3233 4129 
Q 3647 3509 3647 2328 
Q 3647 1150 3233 529 
Q 2819 -91 2034 -91 
Q 1250 -91 836 529 
Q 422 1150 422 2328 
Q 422 3509 836 4129 
Q 1250 4750 2034 4750 
z
" id="DejaVuSans-30" transform="scale(0.015625)"/>
        <path d="M 794 531 
L 1825 531 
L 1825 4091 
L 703 3866 
L 703 4441 
L 1819 4666 
L 2450 4666 
L 2450 531 
L 3481 531 
L 3481 0 
L 794 0 
L 794 531 
z
" id="DejaVuSans-31" transform="scale(0.015625)"/>
        <path d="M 313 2009 
L 1997 2009 
L 1997 1497 
L 313 1497 
L 313 2009 
z
" id="DejaVuSans-2d" transform="scale(0.015625)"/>
        <path d="M 703 97 
L 703 672 
Q 941 559 1184 500 
Q 1428 441 1663 441 
Q 2288 441 2617 861 
Q 2947 1281 2994 2138 
Q 2813 1869 2534 1725 
Q 2256 1581 1919 1581 
Q 1219 1581 811 2004 
Q 403 2428 403 3163 
Q 403 3881 828 4315 
Q 1253 4750 1959 4750 
Q 2769 4750 3195 4129 
Q 3622 3509 3622 2328 
Q 3622 1225 3098 567 
Q 2575 -91 1691 -91 
Q 1453 -91 1209 -44 
Q 966 3 703 97 
z
M 1959 2075 
Q 2384 2075 2632 2365 
Q 2881 2656 2881 3163 
Q 2881 3666 2632 3958 
Q 2384 4250 1959 4250 
Q 1534 4250 1286 3958 
Q 1038 3666 1038 3163 
Q 1038 2656 1286 2365 
Q 1534 2075 1959 2075 
z
" id="DejaVuSans-39" transform="scale(0.015625)"/>
       </defs>
       <use xlink:href="#DejaVuSans-32"/>
       <use x="63.623047" xlink:href="#DejaVuSans-30"/>
       <use x="127.246094" xlink:href="#DejaVuSans-32"/>
       <use x="190.869141" xlink:href="#DejaVuSans-31"/>
       <use x="254.492188" xlink:href="#DejaVuSans-2d"/>
       <use x="290.576172" xlink:href="#DejaVuSans-30"/>
       <use x="354.199219" xlink:href="#DejaVuSans-39"/>
      </g>
     </g>
    </g>
    <g id="xtick_2">
     <g id="line2d_2">
      <g>
       <use style="stroke:#000000;stroke-width:0.8;" x="140.472344" xlink:href="#m41ab665475" y="276.48"/>
      </g>
     </g>
     <g id="text_2">
      <!-- 2021-10 -->
      <g transform="translate(103.247524 310.951846)rotate(-30)scale(0.1 -0.1)">
       <use xlink:href="#DejaVuSans-32"/>
       <use x="63.623047" xlink:href="#DejaVuSans-30"/>
       <use x="127.246094" xlink:href="#DejaVuSans-32"/>
       <use x="190.869141" xlink:href="#DejaVuSans-31"/>
       <use x="254.492188" xlink:href="#DejaVuSans-2d"/>
       <use x="290.576172" xlink:href="#DejaVuSans-31"/>
       <use x="354.199219" xlink:href="#DejaVuSans-30"/>
      </g>
     </g>
    </g>
    <g id="xtick_3">
     <g id="line2d_3">
      <g>
       <use style="stroke:#000000;stroke-width:0.8;" x="193.442297" xlink:href="#m41ab665475" y="276.48"/>
      </g>
     </g>
     <g id="text_3">
      <!-- 2021-11 -->
      <g transform="translate(156.217476 310.951846)rotate(-30)scale(0.1 -0.1)">
       <use xlink:href="#DejaVuSans-32"/>
       <use x="63.623047" xlink:href="#DejaVuSans-30"/>
       <use x="127.246094" xlink:href="#DejaVuSans-32"/>
       <use x="190.869141" xlink:href="#DejaVuSans-31"/>
       <use x="254.492188" xlink:href="#DejaVuSans-2d"/>
       <use x="290.576172" xlink:href="#DejaVuSans-31"/>
       <use x="354.199219" xlink:href="#DejaVuSans-31"/>
      </g>
     </g>
    </g>
    <g id="xtick_4">
     <g id="line2d_4">
      <g>
       <use style="stroke:#000000;stroke-width:0.8;" x="244.703541" xlink:href="#m41ab665475" y="276.48"/>
      </g>
     </g>
     <g id="text_4">
      <!-- 2021-12 -->
      <g transform="translate(207.47872 310.951846)rotate(-30)scale(0.1 -0.1)">
       <use xlink:href="#DejaVuSans-32"/>
       <use x="63.623047" xlink:href="#DejaVuSans-30"/>
       <use x="127.246094" xlink:href="#DejaVuSans-32"/>
       <use x="190.869141" xlink:href="#DejaVuSans-31"/>
       <use x="254.492188" xlink:href="#DejaVuSans-2d"/>
       <use x="290.576172" xlink:href="#DejaVuSans-31"/>
       <use x="354.199219" xlink:href="#DejaVuSans-32"/>
      </g>
     </g>
    </g>
    <g id="xtick_5">
     <g id="line2d_5">
      <g>
       <use style="stroke:#000000;stroke-width:0.8;" x="297.673493" xlink:href="#m41ab665475" y="276.48"/>
      </g>
     </g>
     <g id="text_5">
      <!-- 2022-01 -->
      <g transform="translate(260.448672 310.951846)rotate(-30)scale(0.1 -0.1)">
       <use xlink:href="#DejaVuSans-32"/>
       <use x="63.623047" xlink:href="#DejaVuSans-30"/>
       <use x="127.246094" xlink:href="#DejaVuSans-32"/>
       <use x="190.869141" xlink:href="#DejaVuSans-32"/>
       <use x="254.492188" xlink:href="#DejaVuSans-2d"/>
       <use x="290.576172" xlink:href="#DejaVuSans-30"/>
       <use x="354.199219" xlink:href="#DejaVuSans-31"/>
      </g>
     </g>
    </g>
    <g id="xtick_6">
     <g id="line2d_6">
      <g>
       <use style="stroke:#000000;stroke-width:0.8;" x="350.643445" xlink:href="#m41ab665475" y="276.48"/>
      </g>
     </g>
     <g id="text_6">
      <!-- 2022-02 -->
      <g transform="translate(313.418624 310.951846)rotate(-30)scale(0.1 -0.1)">
       <use xlink:href="#DejaVuSans-32"/>
       <use x="63.623047" xlink:href="#DejaVuSans-30"/>
       <use x="127.246094" xlink:href="#DejaVuSans-32"/>
       <use x="190.869141" xlink:href="#DejaVuSans-32"/>
       <use x="254.492188" xlink:href="#DejaVuSans-2d"/>
       <use x="290.576172" xlink:href="#DejaVuSans-30"/>
       <use x="354.199219" xlink:href="#DejaVuSans-32"/>
      </g>
     </g>
    </g>
    <g id="xtick_7">
     <g id="line2d_7">
      <g>
       <use style="stroke:#000000;stroke-width:0.8;" x="398.487273" xlink:href="#m41ab665475" y="276.48"/>
      </g>
     </g>
     <g id="text_7">
      <!-- 2022-03 -->
      <g transform="translate(361.262452 310.951846)rotate(-30)scale(0.1 -0.1)">
       <defs>
        <path d="M 2597 2516 
Q 3050 2419 3304 2112 
Q 3559 1806 3559 1356 
Q 3559 666 3084 287 
Q 2609 -91 1734 -91 
Q 1441 -91 1130 -33 
Q 819 25 488 141 
L 488 750 
Q 750 597 1062 519 
Q 1375 441 1716 441 
Q 2309 441 2620 675 
Q 2931 909 2931 1356 
Q 2931 1769 2642 2001 
Q 2353 2234 1838 2234 
L 1294 2234 
L 1294 2753 
L 1863 2753 
Q 2328 2753 2575 2939 
Q 2822 3125 2822 3475 
Q 2822 3834 2567 4026 
Q 2313 4219 1838 4219 
Q 1578 4219 1281 4162 
Q 984 4106 628 3988 
L 628 4550 
Q 988 4650 1302 4700 
Q 1616 4750 1894 4750 
Q 2613 4750 3031 4423 
Q 3450 4097 3450 3541 
Q 3450 3153 3228 2886 
Q 3006 2619 2597 2516 
z
" id="DejaVuSans-33" transform="scale(0.015625)"/>
       </defs>
       <use xlink:href="#DejaVuSans-32"/>
       <use x="63.623047" xlink:href="#DejaVuSans-30"/>
       <use x="127.246094" xlink:href="#DejaVuSans-32"/>
       <use x="190.869141" xlink:href="#DejaVuSans-32"/>
       <use x="254.492188" xlink:href="#DejaVuSans-2d"/>
       <use x="290.576172" xlink:href="#DejaVuSans-30"/>
       <use x="354.199219" xlink:href="#DejaVuSans-33"/>
      </g>
     </g>
    </g>
    <g id="text_8">
     <!-- date -->
     <g transform="translate(224.885 324.351346)scale(0.1 -0.1)">
      <defs>
       <path d="M 2906 2969 
L 2906 4863 
L 3481 4863 
L 3481 0 
L 2906 0 
L 2906 525 
Q 2725 213 2448 61 
Q 2172 -91 1784 -91 
Q 1150 -91 751 415 
Q 353 922 353 1747 
Q 353 2572 751 3078 
Q 1150 3584 1784 3584 
Q 2172 3584 2448 3432 
Q 2725 3281 2906 2969 
z
M 947 1747 
Q 947 1113 1208 752 
Q 1469 391 1925 391 
Q 2381 391 2643 752 
Q 2906 1113 2906 1747 
Q 2906 2381 2643 2742 
Q 2381 3103 1925 3103 
Q 1469 3103 1208 2742 
Q 947 2381 947 1747 
z
" id="DejaVuSans-64" transform="scale(0.015625)"/>
       <path d="M 2194 1759 
Q 1497 1759 1228 1600 
Q 959 1441 959 1056 
Q 959 750 1161 570 
Q 1363 391 1709 391 
Q 2188 391 2477 730 
Q 2766 1069 2766 1631 
L 2766 1759 
L 2194 1759 
z
M 3341 1997 
L 3341 0 
L 2766 0 
L 2766 531 
Q 2569 213 2275 61 
Q 1981 -91 1556 -91 
Q 1019 -91 701 211 
Q 384 513 384 1019 
Q 384 1609 779 1909 
Q 1175 2209 1959 2209 
L 2766 2209 
L 2766 2266 
Q 2766 2663 2505 2880 
Q 2244 3097 1772 3097 
Q 1472 3097 1187 3025 
Q 903 2953 641 2809 
L 641 3341 
Q 956 3463 1253 3523 
Q 1550 3584 1831 3584 
Q 2591 3584 2966 3190 
Q 3341 2797 3341 1997 
z
" id="DejaVuSans-61" transform="scale(0.015625)"/>
       <path d="M 1172 4494 
L 1172 3500 
L 2356 3500 
L 2356 3053 
L 1172 3053 
L 1172 1153 
Q 1172 725 1289 603 
Q 1406 481 1766 481 
L 2356 481 
L 2356 0 
L 1766 0 
Q 1100 0 847 248 
Q 594 497 594 1153 
L 594 3053 
L 172 3053 
L 172 3500 
L 594 3500 
L 594 4494 
L 1172 4494 
z
" id="DejaVuSans-74" transform="scale(0.015625)"/>
       <path d="M 3597 1894 
L 3597 1613 
L 953 1613 
Q 991 1019 1311 708 
Q 1631 397 2203 397 
Q 2534 397 2845 478 
Q 3156 559 3463 722 
L 3463 178 
Q 3153 47 2828 -22 
Q 2503 -91 2169 -91 
Q 1331 -91 842 396 
Q 353 884 353 1716 
Q 353 2575 817 3079 
Q 1281 3584 2069 3584 
Q 2775 3584 3186 3129 
Q 3597 2675 3597 1894 
z
M 3022 2063 
Q 3016 2534 2758 2815 
Q 2500 3097 2075 3097 
Q 1594 3097 1305 2825 
Q 1016 2553 972 2059 
L 3022 2063 
z
" id="DejaVuSans-65" transform="scale(0.015625)"/>
      </defs>
      <use xlink:href="#DejaVuSans-64"/>
      <use x="63.476562" xlink:href="#DejaVuSans-61"/>
      <use x="124.755859" xlink:href="#DejaVuSans-74"/>
      <use x="163.964844" xlink:href="#DejaVuSans-65"/>
     </g>
    </g>
   </g>
   <g id="matplotlib.axis_2">
    <g id="ytick_1">
     <g id="line2d_8">
      <defs>
       <path d="M 0 0 
L -3.5 0 
" id="mce8793247b" style="stroke:#000000;stroke-width:0.8;"/>
      </defs>
      <g>
       <use style="stroke:#000000;stroke-width:0.8;" x="57.6" xlink:href="#mce8793247b" y="265.692125"/>
      </g>
     </g>
     <g id="text_9">
      <!-- 85000 -->
      <g transform="translate(18.7875 269.491344)scale(0.1 -0.1)">
       <defs>
        <path d="M 2034 2216 
Q 1584 2216 1326 1975 
Q 1069 1734 1069 1313 
Q 1069 891 1326 650 
Q 1584 409 2034 409 
Q 2484 409 2743 651 
Q 3003 894 3003 1313 
Q 3003 1734 2745 1975 
Q 2488 2216 2034 2216 
z
M 1403 2484 
Q 997 2584 770 2862 
Q 544 3141 544 3541 
Q 544 4100 942 4425 
Q 1341 4750 2034 4750 
Q 2731 4750 3128 4425 
Q 3525 4100 3525 3541 
Q 3525 3141 3298 2862 
Q 3072 2584 2669 2484 
Q 3125 2378 3379 2068 
Q 3634 1759 3634 1313 
Q 3634 634 3220 271 
Q 2806 -91 2034 -91 
Q 1263 -91 848 271 
Q 434 634 434 1313 
Q 434 1759 690 2068 
Q 947 2378 1403 2484 
z
M 1172 3481 
Q 1172 3119 1398 2916 
Q 1625 2713 2034 2713 
Q 2441 2713 2670 2916 
Q 2900 3119 2900 3481 
Q 2900 3844 2670 4047 
Q 2441 4250 2034 4250 
Q 1625 4250 1398 4047 
Q 1172 3844 1172 3481 
z
" id="DejaVuSans-38" transform="scale(0.015625)"/>
        <path d="M 691 4666 
L 3169 4666 
L 3169 4134 
L 1269 4134 
L 1269 2991 
Q 1406 3038 1543 3061 
Q 1681 3084 1819 3084 
Q 2600 3084 3056 2656 
Q 3513 2228 3513 1497 
Q 3513 744 3044 326 
Q 2575 -91 1722 -91 
Q 1428 -91 1123 -41 
Q 819 9 494 109 
L 494 744 
Q 775 591 1075 516 
Q 1375 441 1709 441 
Q 2250 441 2565 725 
Q 2881 1009 2881 1497 
Q 2881 1984 2565 2268 
Q 2250 2553 1709 2553 
Q 1456 2553 1204 2497 
Q 953 2441 691 2322 
L 691 4666 
z
" id="DejaVuSans-35" transform="scale(0.015625)"/>
       </defs>
       <use xlink:href="#DejaVuSans-38"/>
       <use x="63.623047" xlink:href="#DejaVuSans-35"/>
       <use x="127.246094" xlink:href="#DejaVuSans-30"/>
       <use x="190.869141" xlink:href="#DejaVuSans-30"/>
       <use x="254.492188" xlink:href="#DejaVuSans-30"/>
      </g>
     </g>
    </g>
    <g id="ytick_2">
     <g id="line2d_9">
      <g>
       <use style="stroke:#000000;stroke-width:0.8;" x="57.6" xlink:href="#mce8793247b" y="228.5208"/>
      </g>
     </g>
     <g id="text_10">
      <!-- 90000 -->
      <g transform="translate(18.7875 232.320019)scale(0.1 -0.1)">
       <use xlink:href="#DejaVuSans-39"/>
       <use x="63.623047" xlink:href="#DejaVuSans-30"/>
       <use x="127.246094" xlink:href="#DejaVuSans-30"/>
       <use x="190.869141" xlink:href="#DejaVuSans-30"/>
       <use x="254.492188" xlink:href="#DejaVuSans-30"/>
      </g>
     </g>
    </g>
    <g id="ytick_3">
     <g id="line2d_10">
      <g>
       <use style="stroke:#000000;stroke-width:0.8;" x="57.6" xlink:href="#mce8793247b" y="191.349474"/>
      </g>
     </g>
     <g id="text_11">
      <!-- 95000 -->
      <g transform="translate(18.7875 195.148693)scale(0.1 -0.1)">
       <use xlink:href="#DejaVuSans-39"/>
       <use x="63.623047" xlink:href="#DejaVuSans-35"/>
       <use x="127.246094" xlink:href="#DejaVuSans-30"/>
       <use x="190.869141" xlink:href="#DejaVuSans-30"/>
       <use x="254.492188" xlink:href="#DejaVuSans-30"/>
      </g>
     </g>
    </g>
    <g id="ytick_4">
     <g id="line2d_11">
      <g>
       <use style="stroke:#000000;stroke-width:0.8;" x="57.6" xlink:href="#mce8793247b" y="154.178149"/>
      </g>
     </g>
     <g id="text_12">
      <!-- 100000 -->
      <g transform="translate(12.425 157.977368)scale(0.1 -0.1)">
       <use xlink:href="#DejaVuSans-31"/>
       <use x="63.623047" xlink:href="#DejaVuSans-30"/>
       <use x="127.246094" xlink:href="#DejaVuSans-30"/>
       <use x="190.869141" xlink:href="#DejaVuSans-30"/>
       <use x="254.492188" xlink:href="#DejaVuSans-30"/>
       <use x="318.115234" xlink:href="#DejaVuSans-30"/>
      </g>
     </g>
    </g>
    <g id="ytick_5">
     <g id="line2d_12">
      <g>
       <use style="stroke:#000000;stroke-width:0.8;" x="57.6" xlink:href="#mce8793247b" y="117.006823"/>
      </g>
     </g>
     <g id="text_13">
      <!-- 105000 -->
      <g transform="translate(12.425 120.806042)scale(0.1 -0.1)">
       <use xlink:href="#DejaVuSans-31"/>
       <use x="63.623047" xlink:href="#DejaVuSans-30"/>
       <use x="127.246094" xlink:href="#DejaVuSans-35"/>
       <use x="190.869141" xlink:href="#DejaVuSans-30"/>
       <use x="254.492188" xlink:href="#DejaVuSans-30"/>
       <use x="318.115234" xlink:href="#DejaVuSans-30"/>
      </g>
     </g>
    </g>
    <g id="ytick_6">
     <g id="line2d_13">
      <g>
       <use style="stroke:#000000;stroke-width:0.8;" x="57.6" xlink:href="#mce8793247b" y="79.835498"/>
      </g>
     </g>
     <g id="text_14">
      <!-- 110000 -->
      <g transform="translate(12.425 83.634717)scale(0.1 -0.1)">
       <use xlink:href="#DejaVuSans-31"/>
       <use x="63.623047" xlink:href="#DejaVuSans-31"/>
       <use x="127.246094" xlink:href="#DejaVuSans-30"/>
       <use x="190.869141" xlink:href="#DejaVuSans-30"/>
       <use x="254.492188" xlink:href="#DejaVuSans-30"/>
       <use x="318.115234" xlink:href="#DejaVuSans-30"/>
      </g>
     </g>
    </g>
    <g id="ytick_7">
     <g id="line2d_14">
      <g>
       <use style="stroke:#000000;stroke-width:0.8;" x="57.6" xlink:href="#mce8793247b" y="42.664173"/>
      </g>
     </g>
     <g id="text_15">
      <!-- 115000 -->
      <g transform="translate(12.425 46.463391)scale(0.1 -0.1)">
       <use xlink:href="#DejaVuSans-31"/>
       <use x="63.623047" xlink:href="#DejaVuSans-31"/>
       <use x="127.246094" xlink:href="#DejaVuSans-35"/>
       <use x="190.869141" xlink:href="#DejaVuSans-30"/>
       <use x="254.492188" xlink:href="#DejaVuSans-30"/>
       <use x="318.115234" xlink:href="#DejaVuSans-30"/>
      </g>
     </g>
    </g>
   </g>
   <g id="line2d_15">
    <path clip-path="url(#p4ff91d358d)" d="M 73.832727 154.178149 
L 75.541435 154.504552 
L 77.250144 151.498703 
L 78.958852 155.804879 
L 80.66756 148.260761 
L 85.793684 143.916761 
L 87.502392 142.251353 
L 89.2111 144.242574 
L 90.919809 143.933154 
L 92.628517 144.16079 
L 99.463349 143.918607 
L 101.172057 146.569223 
L 102.880766 148.510053 
L 104.589474 155.665003 
L 109.715598 149.597836 
L 111.424306 159.923419 
L 113.133014 155.046816 
L 114.841722 156.686767 
L 116.550431 164.48448 
L 121.676555 177.266854 
L 123.385263 179.064566 
L 125.093971 173.207759 
L 126.802679 161.516313 
L 128.511388 156.005552 
L 133.637512 150.285584 
L 135.34622 166.059065 
L 137.054928 163.399351 
L 138.763636 169.337962 
L 140.472344 157.880651 
L 145.598469 171.725557 
L 147.307177 160.385146 
L 149.015885 157.832157 
L 150.724593 157.429827 
L 152.433301 156.902727 
L 159.268134 155.058884 
L 160.976842 164.157414 
L 162.68555 150.110339 
L 164.394258 149.001133 
L 169.520383 142.515698 
L 171.229091 135.014255 
L 172.937799 132.246182 
L 174.646507 145.602022 
L 176.355215 155.135121 
L 181.48134 154.470841 
L 183.190048 160.605112 
L 184.898756 162.857428 
L 186.607464 153.424322 
L 188.316172 163.086685 
L 193.442297 148.05028 
L 195.151005 148.392476 
L 196.859713 140.638507 
L 198.568421 149.55702 
L 200.277129 144.724107 
L 205.403254 144.257133 
L 207.111962 153.223492 
L 208.82067 153.129639 
L 210.529378 159.308072 
L 212.238086 153.251014 
L 217.364211 150.770736 
L 219.072919 151.343259 
L 220.781627 155.294027 
L 222.490335 157.213859 
L 224.199043 157.262418 
L 229.325167 152.63678 
L 231.033876 146.359657 
L 232.742584 147.333183 
L 236.16 147.290306 
L 241.286124 153.848125 
L 242.994833 168.120671 
L 244.703541 177.937661 
L 246.412249 169.570315 
L 248.120957 173.819083 
L 253.247081 160.376077 
L 254.955789 147.053925 
L 256.664498 140.944214 
L 258.373206 141.109893 
L 260.081914 138.725978 
L 265.208038 145.993702 
L 266.916746 141.864698 
L 270.334163 134.395657 
L 272.042871 143.688864 
L 277.168995 153.663578 
L 278.877703 136.041954 
L 280.586411 133.362251 
L 282.29512 126.322118 
L 289.129952 116.387254 
L 290.83866 116.946106 
L 292.547368 117.031685 
L 294.256077 118.443798 
L 295.964785 121.546014 
L 301.090909 109.676108 
L 302.799617 99.464044 
L 304.508325 120.437719 
L 306.217033 113.536833 
L 307.925742 110.681469 
L 313.051866 110.472056 
L 314.760574 103.860919 
L 316.469282 102.408678 
L 318.17799 111.804455 
L 319.886699 109.316892 
L 328.430239 130.309225 
L 330.138947 138.906752 
L 331.847656 156.102285 
L 336.97378 155.191504 
L 338.682488 163.768845 
L 340.391196 163.883076 
L 342.099904 168.934039 
L 343.808612 149.995213 
L 348.934737 134.068263 
L 350.643445 126.909911 
L 352.352153 115.157025 
L 354.060861 165.481705 
L 355.769569 165.026104 
L 360.895694 177.573357 
L 362.604402 178.757071 
L 364.31311 163.165002 
L 366.021818 175.612617 
L 367.730526 192.463332 
L 372.856651 197.678694 
L 374.565359 188.113479 
L 376.274067 191.916472 
L 377.982775 204.855217 
L 379.691483 209.253046 
L 386.526316 216.499039 
L 388.235024 226.116189 
L 389.943732 211.370651 
L 391.65244 198.590845 
L 396.778565 201.253721 
L 398.487273 211.230085 
L 398.487273 211.230085 
" style="fill:none;stroke:#0000ff;stroke-linecap:square;stroke-opacity:0.9;stroke-width:2;"/>
   </g>
   <g id="line2d_16">
    <path clip-path="url(#p4ff91d358d)" d="M 73.832727 154.178149 
L 77.250144 146.929592 
L 78.958852 151.2556 
L 80.66756 142.042032 
L 85.793684 139.944428 
L 87.502392 139.028332 
L 89.2111 139.285111 
L 90.919809 140.035796 
L 92.628517 139.396558 
L 99.463349 138.637569 
L 101.172057 141.681481 
L 102.880766 142.60709 
L 104.589474 150.480167 
L 109.715598 145.522759 
L 111.424306 152.27766 
L 113.133014 148.919106 
L 114.841722 151.541512 
L 116.550431 160.461541 
L 121.676555 172.63656 
L 123.385263 172.880065 
L 125.093971 168.408623 
L 126.802679 159.184691 
L 128.511388 153.770267 
L 133.637512 148.457483 
L 135.34622 163.301732 
L 137.054928 162.639688 
L 138.763636 169.71845 
L 140.472344 158.766161 
L 145.598469 167.05466 
L 147.307177 156.564971 
L 149.015885 154.836401 
L 150.724593 152.675359 
L 152.433301 149.059934 
L 157.559426 153.289835 
L 159.268134 158.876308 
L 160.976842 160.945041 
L 162.68555 143.398152 
L 164.394258 138.285845 
L 169.520383 136.379788 
L 171.229091 129.672529 
L 172.937799 125.832743 
L 174.646507 135.2653 
L 176.355215 139.659617 
L 181.48134 141.354557 
L 183.190048 145.202482 
L 184.898756 150.06876 
L 186.607464 139.619256 
L 188.316172 137.692521 
L 193.442297 137.710056 
L 195.151005 134.767749 
L 196.859713 129.201971 
L 198.568421 130.158108 
L 200.277129 130.492095 
L 205.403254 129.311598 
L 207.111962 135.227722 
L 208.82067 139.24906 
L 210.529378 139.1875 
L 212.238086 134.045574 
L 217.364211 132.480149 
L 219.072919 134.105244 
L 220.781627 135.079571 
L 222.490335 134.765514 
L 224.199043 137.58041 
L 229.325167 134.280768 
L 231.033876 126.840465 
L 232.742584 126.588676 
L 236.16 146.158459 
L 241.286124 137.869213 
L 242.994833 154.212292 
L 244.703541 162.814654 
L 246.412249 152.437173 
L 248.120957 158.907646 
L 253.247081 147.427294 
L 254.955789 134.287726 
L 256.664498 129.724528 
L 258.373206 130.671605 
L 260.081914 125.487105 
L 265.208038 133.749968 
L 266.916746 132.947053 
L 268.625455 126.980873 
L 270.334163 127.032557 
L 272.042871 136.510955 
L 277.168995 145.766221 
L 278.877703 131.096317 
L 280.586411 126.62364 
L 282.29512 120.254999 
L 289.129952 110.180973 
L 290.83866 110.437115 
L 292.547368 110.026368 
L 294.256077 111.227114 
L 295.964785 114.387238 
L 301.090909 105.641941 
L 302.799617 97.71114 
L 304.508325 115.384549 
L 306.217033 111.949508 
L 307.925742 107.905407 
L 313.051866 108.694913 
L 314.760574 104.157905 
L 316.469282 104.173527 
L 318.17799 109.672775 
L 319.886699 110.350945 
L 326.721531 127.860478 
L 328.430239 134.721035 
L 330.138947 142.401538 
L 331.847656 157.830265 
L 336.97378 158.804966 
L 338.682488 157.310168 
L 340.391196 158.138669 
L 342.099904 164.676329 
L 343.808612 146.91231 
L 348.934737 135.481407 
L 350.643445 126.629596 
L 352.352153 114.190603 
L 354.060861 148.808784 
L 355.769569 142.752759 
L 360.895694 147.834978 
L 362.604402 143.03525 
L 364.31311 135.494316 
L 366.021818 148.447324 
L 367.730526 164.144174 
L 372.856651 170.503219 
L 374.565359 162.111754 
L 376.274067 163.798915 
L 377.982775 178.18709 
L 379.691483 181.735311 
L 386.526316 187.543432 
L 388.235024 197.617477 
L 389.943732 193.630485 
L 391.65244 176.717632 
L 396.778565 183.913467 
L 398.487273 198.499008 
L 398.487273 198.499008 
" style="fill:none;stroke:#ff0000;stroke-linecap:square;stroke-opacity:0.9;stroke-width:2;"/>
   </g>
   <g id="line2d_17">
    <path clip-path="url(#p4ff91d358d)" d="M 73.832727 154.178149 
L 75.541435 150.148673 
L 77.250144 147.220559 
L 78.958852 151.049749 
L 80.66756 144.589021 
L 85.793684 139.467926 
L 87.502392 138.439255 
L 89.2111 139.646919 
L 90.919809 139.162645 
L 92.628517 139.267329 
L 99.463349 139.32842 
L 101.172057 142.08303 
L 102.880766 144.187037 
L 104.589474 150.845496 
L 109.715598 144.315209 
L 111.424306 154.506341 
L 113.133014 150.494838 
L 114.841722 152.248747 
L 116.550431 158.884863 
L 121.676555 171.414388 
L 123.385263 173.698331 
L 125.093971 168.004042 
L 126.802679 156.131623 
L 128.511388 149.745126 
L 133.637512 143.933848 
L 135.34622 159.775932 
L 137.054928 157.412728 
L 138.763636 162.822304 
L 140.472344 151.297043 
L 145.598469 165.428355 
L 147.307177 153.747864 
L 149.015885 151.057009 
L 152.433301 146.117921 
L 157.559426 150.232726 
L 159.268134 155.875986 
L 160.976842 157.414844 
L 162.68555 142.497689 
L 164.394258 142.038851 
L 169.520383 135.512819 
L 171.229091 127.542852 
L 172.937799 124.87184 
L 174.646507 137.167515 
L 176.355215 146.74114 
L 181.48134 146.020879 
L 183.190048 152.884702 
L 184.898756 154.530282 
L 186.607464 145.500368 
L 188.316172 144.373348 
L 193.442297 140.061114 
L 195.151005 138.939402 
L 196.859713 132.57518 
L 198.568421 131.857946 
L 200.277129 126.767226 
L 205.403254 126.024119 
L 207.111962 135.607691 
L 208.82067 141.747251 
L 210.529378 141.751968 
L 212.238086 135.467929 
L 217.364211 133.440211 
L 219.072919 137.129286 
L 220.781627 137.036023 
L 222.490335 139.097876 
L 224.199043 139.489065 
L 229.325167 134.447096 
L 231.033876 128.482422 
L 232.742584 129.19455 
L 236.16 145.938671 
L 241.286124 136.451331 
L 242.994833 151.61769 
L 244.703541 161.382174 
L 246.412249 152.544132 
L 248.120957 157.438608 
L 253.247081 143.825653 
L 254.955789 130.110912 
L 256.664498 124.093706 
L 258.373206 123.76752 
L 260.081914 120.867713 
L 265.208038 128.275217 
L 266.916746 124.594675 
L 268.625455 120.54074 
L 270.334163 117.816454 
L 272.042871 126.839668 
L 277.168995 137.303427 
L 278.877703 118.897051 
L 280.586411 115.997194 
L 282.29512 108.707416 
L 289.129952 98.314164 
L 290.83866 98.992863 
L 292.547368 98.702785 
L 294.256077 100.198674 
L 295.964785 103.722031 
L 301.090909 91.598587 
L 302.799617 81.339711 
L 304.508325 102.473796 
L 306.217033 94.254442 
L 307.925742 91.703531 
L 313.051866 90.036312 
L 314.760574 82.38498 
L 316.469282 81.134516 
L 318.17799 90.986215 
L 319.886699 88.446585 
L 328.430239 109.763182 
L 330.138947 118.663919 
L 331.847656 136.335842 
L 336.97378 135.305647 
L 338.682488 144.010473 
L 340.391196 143.959237 
L 342.099904 149.353095 
L 343.808612 130.123624 
L 348.934737 112.968102 
L 350.643445 105.876124 
L 352.352153 92.183086 
L 354.060861 146.07081 
L 355.769569 145.172233 
L 360.895694 158.012469 
L 362.604402 160.152613 
L 364.31311 143.415076 
L 366.021818 156.59359 
L 367.730526 173.505409 
L 372.856651 178.699617 
L 374.565359 169.563819 
L 376.274067 173.429458 
L 377.982775 187.175051 
L 379.691483 191.122476 
L 386.526316 198.04834 
L 388.235024 208.006765 
L 389.943732 192.132224 
L 391.65244 178.713765 
L 396.778565 181.454642 
L 398.487273 192.18236 
L 398.487273 192.18236 
" style="fill:none;stroke:#ff8040;stroke-linecap:square;stroke-opacity:0.9;stroke-width:2;"/>
   </g>
   <g id="line2d_18">
    <path clip-path="url(#p4ff91d358d)" d="M 73.832727 154.921575 
L 75.541435 153.21317 
L 77.250144 152.4787 
L 78.958852 157.987256 
L 80.66756 150.446023 
L 85.793684 148.6189 
L 87.502392 147.685344 
L 89.2111 151.065995 
L 90.919809 150.709022 
L 92.628517 149.736713 
L 99.463349 153.21103 
L 101.172057 155.286204 
L 102.880766 156.763872 
L 104.589474 163.561013 
L 109.715598 159.549891 
L 111.424306 165.880415 
L 113.133014 163.006824 
L 114.841722 165.742469 
L 116.550431 175.736707 
L 121.676555 186.863176 
L 123.385263 186.681523 
L 125.093971 185.833489 
L 126.802679 176.036789 
L 128.511388 170.894172 
L 133.637512 166.641695 
L 135.34622 183.230634 
L 137.054928 181.268822 
L 138.763636 187.480167 
L 140.472344 178.925671 
L 145.598469 189.421012 
L 147.307177 178.616407 
L 149.015885 176.488195 
L 150.724593 176.847714 
L 152.433301 173.553949 
L 157.559426 179.922486 
L 159.268134 185.720075 
L 160.976842 188.939529 
L 162.68555 171.260362 
L 164.394258 165.932525 
L 169.520383 165.213675 
L 171.229091 156.433858 
L 172.937799 154.336562 
L 174.646507 165.30651 
L 176.355215 172.249768 
L 181.48134 176.005391 
L 183.190048 185.4094 
L 184.898756 187.406401 
L 186.607464 178.162362 
L 188.316172 176.779037 
L 193.442297 178.30152 
L 195.151005 176.091165 
L 196.859713 169.69086 
L 198.568421 169.11944 
L 200.277129 174.129566 
L 205.403254 174.054646 
L 207.111962 179.369753 
L 208.82067 181.354395 
L 210.529378 181.17707 
L 212.238086 171.480896 
L 217.364211 170.618269 
L 220.781627 173.583848 
L 222.490335 175.49472 
L 224.199043 173.882954 
L 229.325167 173.348096 
L 231.033876 167.979878 
L 232.742584 166.516258 
L 236.16 183.161465 
L 241.286124 177.559521 
L 242.994833 197.475546 
L 244.703541 207.355792 
L 246.412249 200.594935 
L 248.120957 208.309622 
L 253.247081 196.830892 
L 254.955789 182.103669 
L 256.664498 178.680493 
L 258.373206 180.136235 
L 260.081914 172.662759 
L 265.208038 179.22172 
L 266.916746 179.249641 
L 268.625455 177.588528 
L 270.334163 178.673148 
L 272.042871 188.486769 
L 277.168995 196.898847 
L 278.877703 180.402532 
L 280.586411 177.390487 
L 282.29512 172.355867 
L 289.129952 162.185059 
L 290.83866 161.507209 
L 292.547368 162.11493 
L 294.256077 162.357526 
L 295.964785 169.632716 
L 301.090909 155.422222 
L 302.799617 149.24102 
L 304.508325 165.152637 
L 306.217033 158.289477 
L 307.925742 153.271703 
L 313.051866 154.222538 
L 314.760574 151.689409 
L 316.469282 151.142694 
L 318.17799 158.825783 
L 319.886699 158.057279 
L 326.721531 176.392014 
L 330.138947 189.47312 
L 331.847656 203.395791 
L 336.97378 201.836274 
L 338.682488 201.135676 
L 340.391196 205.123213 
L 342.099904 210.334544 
L 343.808612 200.196544 
L 348.934737 187.086211 
L 350.643445 176.427881 
L 352.352153 164.114338 
L 354.060861 214.333718 
L 355.769569 203.844032 
L 360.895694 208.04044 
L 362.604402 207.935889 
L 364.31311 196.839973 
L 366.021818 209.175728 
L 367.730526 223.730764 
L 372.856651 233.061927 
L 374.565359 228.037467 
L 376.274067 231.076319 
L 377.982775 245.128882 
L 379.691483 247.971365 
L 386.526316 255.180291 
L 388.235024 264.026493 
L 389.943732 258.778969 
L 391.65244 243.953021 
L 396.778565 251.485045 
L 398.487273 265.797818 
L 398.487273 265.797818 
" style="fill:none;stroke:#0d0d0d;stroke-linecap:square;stroke-opacity:0.25;stroke-width:2;"/>
   </g>
   <g id="line2d_19">
    <path clip-path="url(#p4ff91d358d)" d="M 73.832727 153.434722 
L 75.541435 146.849828 
L 77.250144 142.10515 
L 78.958852 145.512371 
L 80.66756 133.450692 
L 85.793684 123.66551 
L 87.502392 121.755562 
L 89.2111 121.922075 
L 90.919809 120.070243 
L 92.628517 119.679011 
L 99.463349 115.024974 
L 101.172057 118.319653 
L 102.880766 118.89709 
L 104.589474 128.530702 
L 109.715598 123.828326 
L 111.424306 131.806056 
L 113.133014 128.68555 
L 114.841722 131.73611 
L 116.550431 141.265435 
L 121.676555 156.213012 
L 123.385263 156.330107 
L 125.093971 150.297848 
L 126.802679 137.924969 
L 128.511388 132.342915 
L 133.637512 124.629913 
L 135.34622 142.859044 
L 137.054928 139.153911 
L 138.763636 145.450011 
L 140.472344 128.128815 
L 145.598469 141.53942 
L 147.307177 126.879676 
L 149.015885 126.015251 
L 150.724593 124.991657 
L 152.433301 121.166531 
L 157.559426 124.406857 
L 159.268134 131.300817 
L 160.976842 132.138836 
L 162.68555 114.044942 
L 164.394258 108.08454 
L 169.520383 104.762481 
L 171.229091 97.016677 
L 172.937799 90.676352 
L 174.646507 93.191901 
L 176.355215 96.685443 
L 181.48134 98.340931 
L 183.190048 103.476176 
L 184.898756 110.45334 
L 186.607464 96.960881 
L 188.316172 96.614249 
L 193.442297 93.853001 
L 195.151005 93.8696 
L 196.859713 85.898633 
L 198.568421 87.138724 
L 200.277129 87.280002 
L 205.403254 86.307553 
L 207.111962 93.438489 
L 208.82067 98.675985 
L 210.529378 98.367076 
L 212.238086 94.703052 
L 217.364211 92.339965 
L 219.072919 92.778239 
L 220.781627 91.272977 
L 222.490335 91.402842 
L 224.199043 94.27588 
L 229.325167 92.64592 
L 231.033876 82.307443 
L 232.742584 80.688949 
L 236.16 100.403541 
L 241.286124 89.185057 
L 242.994833 115.286244 
L 244.703541 126.043993 
L 246.412249 113.770624 
L 248.120957 118.862007 
L 253.247081 108.167638 
L 254.955789 94.450891 
L 256.664498 87.058999 
L 258.373206 86.036132 
L 260.081914 79.557829 
L 265.208038 88.586549 
L 266.916746 88.93704 
L 268.625455 82.597378 
L 270.334163 81.4826 
L 272.042871 90.66147 
L 277.168995 99.486939 
L 278.877703 87.355518 
L 280.586411 80.870591 
L 282.29512 75.028889 
L 289.129952 64.774394 
L 290.83866 65.334917 
L 292.547368 63.990006 
L 294.256077 64.893133 
L 295.964785 66.448945 
L 301.090909 57.920497 
L 302.799617 53.164394 
L 304.508325 63.809318 
L 306.217033 62.049425 
L 307.925742 57.185776 
L 313.051866 59.695263 
L 314.760574 53.115269 
L 316.469282 52.154182 
L 318.17799 58.818436 
L 319.886699 55.679564 
L 326.721531 73.84795 
L 328.430239 77.547377 
L 330.138947 85.390122 
L 331.847656 102.978827 
L 336.97378 104.779036 
L 338.682488 105.144615 
L 340.391196 109.954149 
L 342.099904 115.487776 
L 343.808612 95.648108 
L 348.934737 84.761801 
L 350.643445 77.970752 
L 352.352153 66.08833 
L 354.060861 87.019759 
L 355.769569 81.617084 
L 360.895694 91.525937 
L 362.604402 87.511947 
L 364.31311 74.502697 
L 367.730526 104.653848 
L 372.856651 111.039403 
L 374.565359 103.009673 
L 376.274067 106.253799 
L 377.982775 128.572738 
L 379.691483 132.062785 
L 386.526316 137.562184 
L 388.235024 147.170217 
L 389.943732 139.293512 
L 391.65244 121.210657 
L 396.778565 129.887591 
L 398.487273 137.467959 
L 398.487273 137.467959 
" style="fill:none;stroke:#0d0d0d;stroke-linecap:square;stroke-opacity:0.25;stroke-width:2;"/>
   </g>
   <g id="patch_3">
    <path d="M 57.6 276.48 
L 57.6 41.472 
" style="fill:none;stroke:#000000;stroke-linecap:square;stroke-linejoin:miter;stroke-width:0.8;"/>
   </g>
   <g id="patch_4">
    <path d="M 414.72 276.48 
L 414.72 41.472 
" style="fill:none;stroke:#000000;stroke-linecap:square;stroke-linejoin:miter;stroke-width:0.8;"/>
   </g>
   <g id="patch_5">
    <path d="M 57.6 276.48 
L 414.72 276.48 
" style="fill:none;stroke:#000000;stroke-linecap:square;stroke-linejoin:miter;stroke-width:0.8;"/>
   </g>
   <g id="patch_6">
    <path d="M 57.6 41.472 
L 414.72 41.472 
" style="fill:none;stroke:#000000;stroke-linecap:square;stroke-linejoin:miter;stroke-width:0.8;"/>
   </g>
   <g id="text_16">
    <!-- TESTFUNDS1550 -->
    <g transform="translate(185.200312 22.034625)scale(0.12 -0.12)">
     <defs>
      <path d="M -19 4666 
L 3928 4666 
L 3928 4134 
L 2272 4134 
L 2272 0 
L 1638 0 
L 1638 4134 
L -19 4134 
L -19 4666 
z
" id="DejaVuSans-54" transform="scale(0.015625)"/>
      <path d="M 628 4666 
L 3578 4666 
L 3578 4134 
L 1259 4134 
L 1259 2753 
L 3481 2753 
L 3481 2222 
L 1259 2222 
L 1259 531 
L 3634 531 
L 3634 0 
L 628 0 
L 628 4666 
z
" id="DejaVuSans-45" transform="scale(0.015625)"/>
      <path d="M 3425 4513 
L 3425 3897 
Q 3066 4069 2747 4153 
Q 2428 4238 2131 4238 
Q 1616 4238 1336 4038 
Q 1056 3838 1056 3469 
Q 1056 3159 1242 3001 
Q 1428 2844 1947 2747 
L 2328 2669 
Q 3034 2534 3370 2195 
Q 3706 1856 3706 1288 
Q 3706 609 3251 259 
Q 2797 -91 1919 -91 
Q 1588 -91 1214 -16 
Q 841 59 441 206 
L 441 856 
Q 825 641 1194 531 
Q 1563 422 1919 422 
Q 2459 422 2753 634 
Q 3047 847 3047 1241 
Q 3047 1584 2836 1778 
Q 2625 1972 2144 2069 
L 1759 2144 
Q 1053 2284 737 2584 
Q 422 2884 422 3419 
Q 422 4038 858 4394 
Q 1294 4750 2059 4750 
Q 2388 4750 2728 4690 
Q 3069 4631 3425 4513 
z
" id="DejaVuSans-53" transform="scale(0.015625)"/>
      <path d="M 628 4666 
L 3309 4666 
L 3309 4134 
L 1259 4134 
L 1259 2759 
L 3109 2759 
L 3109 2228 
L 1259 2228 
L 1259 0 
L 628 0 
L 628 4666 
z
" id="DejaVuSans-46" transform="scale(0.015625)"/>
      <path d="M 556 4666 
L 1191 4666 
L 1191 1831 
Q 1191 1081 1462 751 
Q 1734 422 2344 422 
Q 2950 422 3222 751 
Q 3494 1081 3494 1831 
L 3494 4666 
L 4128 4666 
L 4128 1753 
Q 4128 841 3676 375 
Q 3225 -91 2344 -91 
Q 1459 -91 1007 375 
Q 556 841 556 1753 
L 556 4666 
z
" id="DejaVuSans-55" transform="scale(0.015625)"/>
      <path d="M 628 4666 
L 1478 4666 
L 3547 763 
L 3547 4666 
L 4159 4666 
L 4159 0 
L 3309 0 
L 1241 3903 
L 1241 0 
L 628 0 
L 628 4666 
z
" id="DejaVuSans-4e" transform="scale(0.015625)"/>
      <path d="M 1259 4147 
L 1259 519 
L 2022 519 
Q 2988 519 3436 956 
Q 3884 1394 3884 2338 
Q 3884 3275 3436 3711 
Q 2988 4147 2022 4147 
L 1259 4147 
z
M 628 4666 
L 1925 4666 
Q 3281 4666 3915 4102 
Q 4550 3538 4550 2338 
Q 4550 1131 3912 565 
Q 3275 0 1925 0 
L 628 0 
L 628 4666 
z
" id="DejaVuSans-44" transform="scale(0.015625)"/>
     </defs>
     <use xlink:href="#DejaVuSans-54"/>
     <use x="61.083984" xlink:href="#DejaVuSans-45"/>
     <use x="124.267578" xlink:href="#DejaVuSans-53"/>
     <use x="187.744141" xlink:href="#DejaVuSans-54"/>
     <use x="248.828125" xlink:href="#DejaVuSans-46"/>
     <use x="306.347656" xlink:href="#DejaVuSans-55"/>
     <use x="379.541016" xlink:href="#DejaVuSans-4e"/>
     <use x="454.345703" xlink:href="#DejaVuSans-44"/>
     <use x="531.347656" xlink:href="#DejaVuSans-53"/>
     <use x="594.824219" xlink:href="#DejaVuSans-31"/>
     <use x="658.447266" xlink:href="#DejaVuSans-35"/>
     <use x="722.070312" xlink:href="#DejaVuSans-35"/>
     <use x="785.693359" xlink:href="#DejaVuSans-30"/>
    </g>
    <!-- daily_report -->
    <g transform="translate(200.466563 35.472)scale(0.12 -0.12)">
     <defs>
      <path d="M 603 3500 
L 1178 3500 
L 1178 0 
L 603 0 
L 603 3500 
z
M 603 4863 
L 1178 4863 
L 1178 4134 
L 603 4134 
L 603 4863 
z
" id="DejaVuSans-69" transform="scale(0.015625)"/>
      <path d="M 603 4863 
L 1178 4863 
L 1178 0 
L 603 0 
L 603 4863 
z
" id="DejaVuSans-6c" transform="scale(0.015625)"/>
      <path d="M 2059 -325 
Q 1816 -950 1584 -1140 
Q 1353 -1331 966 -1331 
L 506 -1331 
L 506 -850 
L 844 -850 
Q 1081 -850 1212 -737 
Q 1344 -625 1503 -206 
L 1606 56 
L 191 3500 
L 800 3500 
L 1894 763 
L 2988 3500 
L 3597 3500 
L 2059 -325 
z
" id="DejaVuSans-79" transform="scale(0.015625)"/>
      <path d="M 3263 -1063 
L 3263 -1509 
L -63 -1509 
L -63 -1063 
L 3263 -1063 
z
" id="DejaVuSans-5f" transform="scale(0.015625)"/>
      <path d="M 2631 2963 
Q 2534 3019 2420 3045 
Q 2306 3072 2169 3072 
Q 1681 3072 1420 2755 
Q 1159 2438 1159 1844 
L 1159 0 
L 581 0 
L 581 3500 
L 1159 3500 
L 1159 2956 
Q 1341 3275 1631 3429 
Q 1922 3584 2338 3584 
Q 2397 3584 2469 3576 
Q 2541 3569 2628 3553 
L 2631 2963 
z
" id="DejaVuSans-72" transform="scale(0.015625)"/>
      <path d="M 1159 525 
L 1159 -1331 
L 581 -1331 
L 581 3500 
L 1159 3500 
L 1159 2969 
Q 1341 3281 1617 3432 
Q 1894 3584 2278 3584 
Q 2916 3584 3314 3078 
Q 3713 2572 3713 1747 
Q 3713 922 3314 415 
Q 2916 -91 2278 -91 
Q 1894 -91 1617 61 
Q 1341 213 1159 525 
z
M 3116 1747 
Q 3116 2381 2855 2742 
Q 2594 3103 2138 3103 
Q 1681 3103 1420 2742 
Q 1159 2381 1159 1747 
Q 1159 1113 1420 752 
Q 1681 391 2138 391 
Q 2594 391 2855 752 
Q 3116 1113 3116 1747 
z
" id="DejaVuSans-70" transform="scale(0.015625)"/>
      <path d="M 1959 3097 
Q 1497 3097 1228 2736 
Q 959 2375 959 1747 
Q 959 1119 1226 758 
Q 1494 397 1959 397 
Q 2419 397 2687 759 
Q 2956 1122 2956 1747 
Q 2956 2369 2687 2733 
Q 2419 3097 1959 3097 
z
M 1959 3584 
Q 2709 3584 3137 3096 
Q 3566 2609 3566 1747 
Q 3566 888 3137 398 
Q 2709 -91 1959 -91 
Q 1206 -91 779 398 
Q 353 888 353 1747 
Q 353 2609 779 3096 
Q 1206 3584 1959 3584 
z
" id="DejaVuSans-6f" transform="scale(0.015625)"/>
     </defs>
     <use xlink:href="#DejaVuSans-64"/>
     <use x="63.476562" xlink:href="#DejaVuSans-61"/>
     <use x="124.755859" xlink:href="#DejaVuSans-69"/>
     <use x="152.539062" xlink:href="#DejaVuSans-6c"/>
     <use x="180.322266" xlink:href="#DejaVuSans-79"/>
     <use x="239.501953" xlink:href="#DejaVuSans-5f"/>
     <use x="289.501953" xlink:href="#DejaVuSans-72"/>
     <use x="328.365234" xlink:href="#DejaVuSans-65"/>
     <use x="389.888672" xlink:href="#DejaVuSans-70"/>
     <use x="453.365234" xlink:href="#DejaVuSans-6f"/>
     <use x="514.546875" xlink:href="#DejaVuSans-72"/>
     <use x="555.660156" xlink:href="#DejaVuSans-74"/>
    </g>
   </g>
   <g id="legend_1">
    <g id="patch_7">
     <path d="M 64.6 271.48 
L 155.792188 271.48 
Q 157.792188 271.48 157.792188 269.48 
L 157.792188 197.089375 
Q 157.792188 195.089375 155.792188 195.089375 
L 64.6 195.089375 
Q 62.6 195.089375 62.6 197.089375 
L 62.6 269.48 
Q 62.6 271.48 64.6 271.48 
z
" style="fill:#ffffff;opacity:0.8;stroke:#cccccc;stroke-linejoin:miter;"/>
    </g>
    <g id="line2d_20">
     <path d="M 66.6 203.187812 
L 86.6 203.187812 
" style="fill:none;stroke:#0000ff;stroke-linecap:square;stroke-opacity:0.9;stroke-width:2;"/>
    </g>
    <g id="line2d_21"/>
    <g id="text_17">
     <!-- alpaca -->
     <g transform="translate(94.6 206.687812)scale(0.1 -0.1)">
      <defs>
       <path d="M 3122 3366 
L 3122 2828 
Q 2878 2963 2633 3030 
Q 2388 3097 2138 3097 
Q 1578 3097 1268 2742 
Q 959 2388 959 1747 
Q 959 1106 1268 751 
Q 1578 397 2138 397 
Q 2388 397 2633 464 
Q 2878 531 3122 666 
L 3122 134 
Q 2881 22 2623 -34 
Q 2366 -91 2075 -91 
Q 1284 -91 818 406 
Q 353 903 353 1747 
Q 353 2603 823 3093 
Q 1294 3584 2113 3584 
Q 2378 3584 2631 3529 
Q 2884 3475 3122 3366 
z
" id="DejaVuSans-63" transform="scale(0.015625)"/>
      </defs>
      <use xlink:href="#DejaVuSans-61"/>
      <use x="61.279297" xlink:href="#DejaVuSans-6c"/>
      <use x="89.0625" xlink:href="#DejaVuSans-70"/>
      <use x="152.539062" xlink:href="#DejaVuSans-61"/>
      <use x="213.818359" xlink:href="#DejaVuSans-63"/>
      <use x="268.798828" xlink:href="#DejaVuSans-61"/>
     </g>
    </g>
    <g id="line2d_22">
     <path d="M 66.6 217.865937 
L 86.6 217.865937 
" style="fill:none;stroke:#ff0000;stroke-linecap:square;stroke-opacity:0.9;stroke-width:2;"/>
    </g>
    <g id="line2d_23"/>
    <g id="text_18">
     <!-- mattress -->
     <g transform="translate(94.6 221.365937)scale(0.1 -0.1)">
      <defs>
       <path d="M 3328 2828 
Q 3544 3216 3844 3400 
Q 4144 3584 4550 3584 
Q 5097 3584 5394 3201 
Q 5691 2819 5691 2113 
L 5691 0 
L 5113 0 
L 5113 2094 
Q 5113 2597 4934 2840 
Q 4756 3084 4391 3084 
Q 3944 3084 3684 2787 
Q 3425 2491 3425 1978 
L 3425 0 
L 2847 0 
L 2847 2094 
Q 2847 2600 2669 2842 
Q 2491 3084 2119 3084 
Q 1678 3084 1418 2786 
Q 1159 2488 1159 1978 
L 1159 0 
L 581 0 
L 581 3500 
L 1159 3500 
L 1159 2956 
Q 1356 3278 1631 3431 
Q 1906 3584 2284 3584 
Q 2666 3584 2933 3390 
Q 3200 3197 3328 2828 
z
" id="DejaVuSans-6d" transform="scale(0.015625)"/>
       <path d="M 2834 3397 
L 2834 2853 
Q 2591 2978 2328 3040 
Q 2066 3103 1784 3103 
Q 1356 3103 1142 2972 
Q 928 2841 928 2578 
Q 928 2378 1081 2264 
Q 1234 2150 1697 2047 
L 1894 2003 
Q 2506 1872 2764 1633 
Q 3022 1394 3022 966 
Q 3022 478 2636 193 
Q 2250 -91 1575 -91 
Q 1294 -91 989 -36 
Q 684 19 347 128 
L 347 722 
Q 666 556 975 473 
Q 1284 391 1588 391 
Q 1994 391 2212 530 
Q 2431 669 2431 922 
Q 2431 1156 2273 1281 
Q 2116 1406 1581 1522 
L 1381 1569 
Q 847 1681 609 1914 
Q 372 2147 372 2553 
Q 372 3047 722 3315 
Q 1072 3584 1716 3584 
Q 2034 3584 2315 3537 
Q 2597 3491 2834 3397 
z
" id="DejaVuSans-73" transform="scale(0.015625)"/>
      </defs>
      <use xlink:href="#DejaVuSans-6d"/>
      <use x="97.412109" xlink:href="#DejaVuSans-61"/>
      <use x="158.691406" xlink:href="#DejaVuSans-74"/>
      <use x="197.900391" xlink:href="#DejaVuSans-74"/>
      <use x="237.109375" xlink:href="#DejaVuSans-72"/>
      <use x="275.972656" xlink:href="#DejaVuSans-65"/>
      <use x="337.496094" xlink:href="#DejaVuSans-73"/>
      <use x="389.595703" xlink:href="#DejaVuSans-73"/>
     </g>
    </g>
    <g id="line2d_24">
     <path d="M 66.6 232.544062 
L 86.6 232.544062 
" style="fill:none;stroke:#ff8040;stroke-linecap:square;stroke-opacity:0.9;stroke-width:2;"/>
    </g>
    <g id="line2d_25"/>
    <g id="text_19">
     <!-- trader-0850 -->
     <g transform="translate(94.6 236.044062)scale(0.1 -0.1)">
      <use xlink:href="#DejaVuSans-74"/>
      <use x="39.208984" xlink:href="#DejaVuSans-72"/>
      <use x="80.322266" xlink:href="#DejaVuSans-61"/>
      <use x="141.601562" xlink:href="#DejaVuSans-64"/>
      <use x="205.078125" xlink:href="#DejaVuSans-65"/>
      <use x="266.601562" xlink:href="#DejaVuSans-72"/>
      <use x="301.339844" xlink:href="#DejaVuSans-2d"/>
      <use x="337.423828" xlink:href="#DejaVuSans-30"/>
      <use x="401.046875" xlink:href="#DejaVuSans-38"/>
      <use x="464.669922" xlink:href="#DejaVuSans-35"/>
      <use x="528.292969" xlink:href="#DejaVuSans-30"/>
     </g>
    </g>
    <g id="line2d_26">
     <path d="M 66.6 247.222187 
L 86.6 247.222187 
" style="fill:none;stroke:#0d0d0d;stroke-linecap:square;stroke-opacity:0.25;stroke-width:2;"/>
    </g>
    <g id="line2d_27"/>
    <g id="text_20">
     <!-- rando-min -->
     <g transform="translate(94.6 250.722187)scale(0.1 -0.1)">
      <defs>
       <path d="M 3513 2113 
L 3513 0 
L 2938 0 
L 2938 2094 
Q 2938 2591 2744 2837 
Q 2550 3084 2163 3084 
Q 1697 3084 1428 2787 
Q 1159 2491 1159 1978 
L 1159 0 
L 581 0 
L 581 3500 
L 1159 3500 
L 1159 2956 
Q 1366 3272 1645 3428 
Q 1925 3584 2291 3584 
Q 2894 3584 3203 3211 
Q 3513 2838 3513 2113 
z
" id="DejaVuSans-6e" transform="scale(0.015625)"/>
      </defs>
      <use xlink:href="#DejaVuSans-72"/>
      <use x="41.113281" xlink:href="#DejaVuSans-61"/>
      <use x="102.392578" xlink:href="#DejaVuSans-6e"/>
      <use x="165.771484" xlink:href="#DejaVuSans-64"/>
      <use x="229.248047" xlink:href="#DejaVuSans-6f"/>
      <use x="292.304688" xlink:href="#DejaVuSans-2d"/>
      <use x="328.388672" xlink:href="#DejaVuSans-6d"/>
      <use x="425.800781" xlink:href="#DejaVuSans-69"/>
      <use x="453.583984" xlink:href="#DejaVuSans-6e"/>
     </g>
    </g>
    <g id="line2d_28">
     <path d="M 66.6 261.900312 
L 86.6 261.900312 
" style="fill:none;stroke:#0d0d0d;stroke-linecap:square;stroke-opacity:0.25;stroke-width:2;"/>
    </g>
    <g id="line2d_29"/>
    <g id="text_21">
     <!-- rando-max -->
     <g transform="translate(94.6 265.400312)scale(0.1 -0.1)">
      <defs>
       <path d="M 3513 3500 
L 2247 1797 
L 3578 0 
L 2900 0 
L 1881 1375 
L 863 0 
L 184 0 
L 1544 1831 
L 300 3500 
L 978 3500 
L 1906 2253 
L 2834 3500 
L 3513 3500 
z
" id="DejaVuSans-78" transform="scale(0.015625)"/>
      </defs>
      <use xlink:href="#DejaVuSans-72"/>
      <use x="41.113281" xlink:href="#DejaVuSans-61"/>
      <use x="102.392578" xlink:href="#DejaVuSans-6e"/>
      <use x="165.771484" xlink:href="#DejaVuSans-64"/>
      <use x="229.248047" xlink:href="#DejaVuSans-6f"/>
      <use x="292.304688" xlink:href="#DejaVuSans-2d"/>
      <use x="328.388672" xlink:href="#DejaVuSans-6d"/>
      <use x="425.800781" xlink:href="#DejaVuSans-61"/>
      <use x="487.080078" xlink:href="#DejaVuSans-78"/>
     </g>
    </g>
   </g>
  </g>
 </g>
 <defs>
  <clipPath id="p4ff91d358d">
   <rect height="235.008" width="357.12" x="57.6" y="41.472"/>
  </clipPath>
 </defs>
</svg>
