<?xml version="1.0" encoding="utf-8" standalone="no"?>
<!DOCTYPE svg PUBLIC "-//W3C//DTD SVG 1.1//EN"
  "http://www.w3.org/Graphics/SVG/1.1/DTD/svg11.dtd">
<svg height="345.6pt" version="1.1" viewBox="0 0 460.8 345.6" width="460.8pt" xmlns="http://www.w3.org/2000/svg" xmlns:xlink="http://www.w3.org/1999/xlink">
 <metadata>
  <rdf:RDF xmlns:cc="http://creativecommons.org/ns#" xmlns:dc="http://purl.org/dc/elements/1.1/" xmlns:rdf="http://www.w3.org/1999/02/22-rdf-syntax-ns#">
   <cc:Work>
    <dc:type rdf:resource="http://purl.org/dc/dcmitype/StillImage"/>
    <dc:date>2022-05-07T01:01:46.943456</dc:date>
    <dc:format>image/svg+xml</dc:format>
    <dc:creator>
     <cc:Agent>
      <dc:title>Matplotlib v3.4.3, https://matplotlib.org/</dc:title>
     </cc:Agent>
    </dc:creator>
   </cc:Work>
  </rdf:RDF>
 </metadata>
 <defs>
  <style type="text/css">*{stroke-linecap:butt;stroke-linejoin:round;}</style>
 </defs>
 <g id="figure_1">
  <g id="patch_1">
   <path d="M 0 345.6 
L 460.8 345.6 
L 460.8 0 
L 0 0 
z
" style="fill:#ffffff;"/>
  </g>
  <g id="axes_1">
   <g id="patch_2">
    <path d="M 57.6 276.48 
L 414.72 276.48 
L 414.72 41.472 
L 57.6 41.472 
z
" style="fill:#ffffff;"/>
   </g>
   <g id="matplotlib.axis_1">
    <g id="xtick_1">
     <g id="line2d_1">
      <defs>
       <path d="M 0 0 
L 0 3.5 
" id="mf92786886b" style="stroke:#000000;stroke-width:0.8;"/>
      </defs>
      <g>
       <use style="stroke:#000000;stroke-width:0.8;" x="85.246364" xlink:href="#mf92786886b" y="276.48"/>
      </g>
     </g>
     <g id="text_1">
      <!-- 2021-09 -->
      <g transform="translate(48.021543 310.951846)rotate(-30)scale(0.1 -0.1)">
       <defs>
        <path d="M 1228 531 
L 3431 531 
L 3431 0 
L 469 0 
L 469 531 
Q 828 903 1448 1529 
Q 2069 2156 2228 2338 
Q 2531 2678 2651 2914 
Q 2772 3150 2772 3378 
Q 2772 3750 2511 3984 
Q 2250 4219 1831 4219 
Q 1534 4219 1204 4116 
Q 875 4013 500 3803 
L 500 4441 
Q 881 4594 1212 4672 
Q 1544 4750 1819 4750 
Q 2544 4750 2975 4387 
Q 3406 4025 3406 3419 
Q 3406 3131 3298 2873 
Q 3191 2616 2906 2266 
Q 2828 2175 2409 1742 
Q 1991 1309 1228 531 
z
" id="DejaVuSans-32" transform="scale(0.015625)"/>
        <path d="M 2034 4250 
Q 1547 4250 1301 3770 
Q 1056 3291 1056 2328 
Q 1056 1369 1301 889 
Q 1547 409 2034 409 
Q 2525 409 2770 889 
Q 3016 1369 3016 2328 
Q 3016 3291 2770 3770 
Q 2525 4250 2034 4250 
z
M 2034 4750 
Q 2819 4750 3233 4129 
Q 3647 3509 3647 2328 
Q 3647 1150 3233 529 
Q 2819 -91 2034 -91 
Q 1250 -91 836 529 
Q 422 1150 422 2328 
Q 422 3509 836 4129 
Q 1250 4750 2034 4750 
z
" id="DejaVuSans-30" transform="scale(0.015625)"/>
        <path d="M 794 531 
L 1825 531 
L 1825 4091 
L 703 3866 
L 703 4441 
L 1819 4666 
L 2450 4666 
L 2450 531 
L 3481 531 
L 3481 0 
L 794 0 
L 794 531 
z
" id="DejaVuSans-31" transform="scale(0.015625)"/>
        <path d="M 313 2009 
L 1997 2009 
L 1997 1497 
L 313 1497 
L 313 2009 
z
" id="DejaVuSans-2d" transform="scale(0.015625)"/>
        <path d="M 703 97 
L 703 672 
Q 941 559 1184 500 
Q 1428 441 1663 441 
Q 2288 441 2617 861 
Q 2947 1281 2994 2138 
Q 2813 1869 2534 1725 
Q 2256 1581 1919 1581 
Q 1219 1581 811 2004 
Q 403 2428 403 3163 
Q 403 3881 828 4315 
Q 1253 4750 1959 4750 
Q 2769 4750 3195 4129 
Q 3622 3509 3622 2328 
Q 3622 1225 3098 567 
Q 2575 -91 1691 -91 
Q 1453 -91 1209 -44 
Q 966 3 703 97 
z
M 1959 2075 
Q 2384 2075 2632 2365 
Q 2881 2656 2881 3163 
Q 2881 3666 2632 3958 
Q 2384 4250 1959 4250 
Q 1534 4250 1286 3958 
Q 1038 3666 1038 3163 
Q 1038 2656 1286 2365 
Q 1534 2075 1959 2075 
z
" id="DejaVuSans-39" transform="scale(0.015625)"/>
       </defs>
       <use xlink:href="#DejaVuSans-32"/>
       <use x="63.623047" xlink:href="#DejaVuSans-30"/>
       <use x="127.246094" xlink:href="#DejaVuSans-32"/>
       <use x="190.869141" xlink:href="#DejaVuSans-31"/>
       <use x="254.492188" xlink:href="#DejaVuSans-2d"/>
       <use x="290.576172" xlink:href="#DejaVuSans-30"/>
       <use x="354.199219" xlink:href="#DejaVuSans-39"/>
      </g>
     </g>
    </g>
    <g id="xtick_2">
     <g id="line2d_2">
      <g>
       <use style="stroke:#000000;stroke-width:0.8;" x="123.291818" xlink:href="#mf92786886b" y="276.48"/>
      </g>
     </g>
     <g id="text_2">
      <!-- 2021-10 -->
      <g transform="translate(86.066997 310.951846)rotate(-30)scale(0.1 -0.1)">
       <use xlink:href="#DejaVuSans-32"/>
       <use x="63.623047" xlink:href="#DejaVuSans-30"/>
       <use x="127.246094" xlink:href="#DejaVuSans-32"/>
       <use x="190.869141" xlink:href="#DejaVuSans-31"/>
       <use x="254.492188" xlink:href="#DejaVuSans-2d"/>
       <use x="290.576172" xlink:href="#DejaVuSans-31"/>
       <use x="354.199219" xlink:href="#DejaVuSans-30"/>
      </g>
     </g>
    </g>
    <g id="xtick_3">
     <g id="line2d_3">
      <g>
       <use style="stroke:#000000;stroke-width:0.8;" x="162.605455" xlink:href="#mf92786886b" y="276.48"/>
      </g>
     </g>
     <g id="text_3">
      <!-- 2021-11 -->
      <g transform="translate(125.380634 310.951846)rotate(-30)scale(0.1 -0.1)">
       <use xlink:href="#DejaVuSans-32"/>
       <use x="63.623047" xlink:href="#DejaVuSans-30"/>
       <use x="127.246094" xlink:href="#DejaVuSans-32"/>
       <use x="190.869141" xlink:href="#DejaVuSans-31"/>
       <use x="254.492188" xlink:href="#DejaVuSans-2d"/>
       <use x="290.576172" xlink:href="#DejaVuSans-31"/>
       <use x="354.199219" xlink:href="#DejaVuSans-31"/>
      </g>
     </g>
    </g>
    <g id="xtick_4">
     <g id="line2d_4">
      <g>
       <use style="stroke:#000000;stroke-width:0.8;" x="200.650909" xlink:href="#mf92786886b" y="276.48"/>
      </g>
     </g>
     <g id="text_4">
      <!-- 2021-12 -->
      <g transform="translate(163.426088 310.951846)rotate(-30)scale(0.1 -0.1)">
       <use xlink:href="#DejaVuSans-32"/>
       <use x="63.623047" xlink:href="#DejaVuSans-30"/>
       <use x="127.246094" xlink:href="#DejaVuSans-32"/>
       <use x="190.869141" xlink:href="#DejaVuSans-31"/>
       <use x="254.492188" xlink:href="#DejaVuSans-2d"/>
       <use x="290.576172" xlink:href="#DejaVuSans-31"/>
       <use x="354.199219" xlink:href="#DejaVuSans-32"/>
      </g>
     </g>
    </g>
    <g id="xtick_5">
     <g id="line2d_5">
      <g>
       <use style="stroke:#000000;stroke-width:0.8;" x="239.964545" xlink:href="#mf92786886b" y="276.48"/>
      </g>
     </g>
     <g id="text_5">
      <!-- 2022-01 -->
      <g transform="translate(202.739725 310.951846)rotate(-30)scale(0.1 -0.1)">
       <use xlink:href="#DejaVuSans-32"/>
       <use x="63.623047" xlink:href="#DejaVuSans-30"/>
       <use x="127.246094" xlink:href="#DejaVuSans-32"/>
       <use x="190.869141" xlink:href="#DejaVuSans-32"/>
       <use x="254.492188" xlink:href="#DejaVuSans-2d"/>
       <use x="290.576172" xlink:href="#DejaVuSans-30"/>
       <use x="354.199219" xlink:href="#DejaVuSans-31"/>
      </g>
     </g>
    </g>
    <g id="xtick_6">
     <g id="line2d_6">
      <g>
       <use style="stroke:#000000;stroke-width:0.8;" x="279.278182" xlink:href="#mf92786886b" y="276.48"/>
      </g>
     </g>
     <g id="text_6">
      <!-- 2022-02 -->
      <g transform="translate(242.053361 310.951846)rotate(-30)scale(0.1 -0.1)">
       <use xlink:href="#DejaVuSans-32"/>
       <use x="63.623047" xlink:href="#DejaVuSans-30"/>
       <use x="127.246094" xlink:href="#DejaVuSans-32"/>
       <use x="190.869141" xlink:href="#DejaVuSans-32"/>
       <use x="254.492188" xlink:href="#DejaVuSans-2d"/>
       <use x="290.576172" xlink:href="#DejaVuSans-30"/>
       <use x="354.199219" xlink:href="#DejaVuSans-32"/>
      </g>
     </g>
    </g>
    <g id="xtick_7">
     <g id="line2d_7">
      <g>
       <use style="stroke:#000000;stroke-width:0.8;" x="314.787273" xlink:href="#mf92786886b" y="276.48"/>
      </g>
     </g>
     <g id="text_7">
      <!-- 2022-03 -->
      <g transform="translate(277.562452 310.951846)rotate(-30)scale(0.1 -0.1)">
       <defs>
        <path d="M 2597 2516 
Q 3050 2419 3304 2112 
Q 3559 1806 3559 1356 
Q 3559 666 3084 287 
Q 2609 -91 1734 -91 
Q 1441 -91 1130 -33 
Q 819 25 488 141 
L 488 750 
Q 750 597 1062 519 
Q 1375 441 1716 441 
Q 2309 441 2620 675 
Q 2931 909 2931 1356 
Q 2931 1769 2642 2001 
Q 2353 2234 1838 2234 
L 1294 2234 
L 1294 2753 
L 1863 2753 
Q 2328 2753 2575 2939 
Q 2822 3125 2822 3475 
Q 2822 3834 2567 4026 
Q 2313 4219 1838 4219 
Q 1578 4219 1281 4162 
Q 984 4106 628 3988 
L 628 4550 
Q 988 4650 1302 4700 
Q 1616 4750 1894 4750 
Q 2613 4750 3031 4423 
Q 3450 4097 3450 3541 
Q 3450 3153 3228 2886 
Q 3006 2619 2597 2516 
z
" id="DejaVuSans-33" transform="scale(0.015625)"/>
       </defs>
       <use xlink:href="#DejaVuSans-32"/>
       <use x="63.623047" xlink:href="#DejaVuSans-30"/>
       <use x="127.246094" xlink:href="#DejaVuSans-32"/>
       <use x="190.869141" xlink:href="#DejaVuSans-32"/>
       <use x="254.492188" xlink:href="#DejaVuSans-2d"/>
       <use x="290.576172" xlink:href="#DejaVuSans-30"/>
       <use x="354.199219" xlink:href="#DejaVuSans-33"/>
      </g>
     </g>
    </g>
    <g id="xtick_8">
     <g id="line2d_8">
      <g>
       <use style="stroke:#000000;stroke-width:0.8;" x="354.100909" xlink:href="#mf92786886b" y="276.48"/>
      </g>
     </g>
     <g id="text_8">
      <!-- 2022-04 -->
      <g transform="translate(316.876088 310.951846)rotate(-30)scale(0.1 -0.1)">
       <defs>
        <path d="M 2419 4116 
L 825 1625 
L 2419 1625 
L 2419 4116 
z
M 2253 4666 
L 3047 4666 
L 3047 1625 
L 3713 1625 
L 3713 1100 
L 3047 1100 
L 3047 0 
L 2419 0 
L 2419 1100 
L 313 1100 
L 313 1709 
L 2253 4666 
z
" id="DejaVuSans-34" transform="scale(0.015625)"/>
       </defs>
       <use xlink:href="#DejaVuSans-32"/>
       <use x="63.623047" xlink:href="#DejaVuSans-30"/>
       <use x="127.246094" xlink:href="#DejaVuSans-32"/>
       <use x="190.869141" xlink:href="#DejaVuSans-32"/>
       <use x="254.492188" xlink:href="#DejaVuSans-2d"/>
       <use x="290.576172" xlink:href="#DejaVuSans-30"/>
       <use x="354.199219" xlink:href="#DejaVuSans-34"/>
      </g>
     </g>
    </g>
    <g id="xtick_9">
     <g id="line2d_9">
      <g>
       <use style="stroke:#000000;stroke-width:0.8;" x="392.146364" xlink:href="#mf92786886b" y="276.48"/>
      </g>
     </g>
     <g id="text_9">
      <!-- 2022-05 -->
      <g transform="translate(354.921543 310.951846)rotate(-30)scale(0.1 -0.1)">
       <defs>
        <path d="M 691 4666 
L 3169 4666 
L 3169 4134 
L 1269 4134 
L 1269 2991 
Q 1406 3038 1543 3061 
Q 1681 3084 1819 3084 
Q 2600 3084 3056 2656 
Q 3513 2228 3513 1497 
Q 3513 744 3044 326 
Q 2575 -91 1722 -91 
Q 1428 -91 1123 -41 
Q 819 9 494 109 
L 494 744 
Q 775 591 1075 516 
Q 1375 441 1709 441 
Q 2250 441 2565 725 
Q 2881 1009 2881 1497 
Q 2881 1984 2565 2268 
Q 2250 2553 1709 2553 
Q 1456 2553 1204 2497 
Q 953 2441 691 2322 
L 691 4666 
z
" id="DejaVuSans-35" transform="scale(0.015625)"/>
       </defs>
       <use xlink:href="#DejaVuSans-32"/>
       <use x="63.623047" xlink:href="#DejaVuSans-30"/>
       <use x="127.246094" xlink:href="#DejaVuSans-32"/>
       <use x="190.869141" xlink:href="#DejaVuSans-32"/>
       <use x="254.492188" xlink:href="#DejaVuSans-2d"/>
       <use x="290.576172" xlink:href="#DejaVuSans-30"/>
       <use x="354.199219" xlink:href="#DejaVuSans-35"/>
      </g>
     </g>
    </g>
    <g id="text_10">
     <!-- date -->
     <g transform="translate(224.885 324.351346)scale(0.1 -0.1)">
      <defs>
       <path d="M 2906 2969 
L 2906 4863 
L 3481 4863 
L 3481 0 
L 2906 0 
L 2906 525 
Q 2725 213 2448 61 
Q 2172 -91 1784 -91 
Q 1150 -91 751 415 
Q 353 922 353 1747 
Q 353 2572 751 3078 
Q 1150 3584 1784 3584 
Q 2172 3584 2448 3432 
Q 2725 3281 2906 2969 
z
M 947 1747 
Q 947 1113 1208 752 
Q 1469 391 1925 391 
Q 2381 391 2643 752 
Q 2906 1113 2906 1747 
Q 2906 2381 2643 2742 
Q 2381 3103 1925 3103 
Q 1469 3103 1208 2742 
Q 947 2381 947 1747 
z
" id="DejaVuSans-64" transform="scale(0.015625)"/>
       <path d="M 2194 1759 
Q 1497 1759 1228 1600 
Q 959 1441 959 1056 
Q 959 750 1161 570 
Q 1363 391 1709 391 
Q 2188 391 2477 730 
Q 2766 1069 2766 1631 
L 2766 1759 
L 2194 1759 
z
M 3341 1997 
L 3341 0 
L 2766 0 
L 2766 531 
Q 2569 213 2275 61 
Q 1981 -91 1556 -91 
Q 1019 -91 701 211 
Q 384 513 384 1019 
Q 384 1609 779 1909 
Q 1175 2209 1959 2209 
L 2766 2209 
L 2766 2266 
Q 2766 2663 2505 2880 
Q 2244 3097 1772 3097 
Q 1472 3097 1187 3025 
Q 903 2953 641 2809 
L 641 3341 
Q 956 3463 1253 3523 
Q 1550 3584 1831 3584 
Q 2591 3584 2966 3190 
Q 3341 2797 3341 1997 
z
" id="DejaVuSans-61" transform="scale(0.015625)"/>
       <path d="M 1172 4494 
L 1172 3500 
L 2356 3500 
L 2356 3053 
L 1172 3053 
L 1172 1153 
Q 1172 725 1289 603 
Q 1406 481 1766 481 
L 2356 481 
L 2356 0 
L 1766 0 
Q 1100 0 847 248 
Q 594 497 594 1153 
L 594 3053 
L 172 3053 
L 172 3500 
L 594 3500 
L 594 4494 
L 1172 4494 
z
" id="DejaVuSans-74" transform="scale(0.015625)"/>
       <path d="M 3597 1894 
L 3597 1613 
L 953 1613 
Q 991 1019 1311 708 
Q 1631 397 2203 397 
Q 2534 397 2845 478 
Q 3156 559 3463 722 
L 3463 178 
Q 3153 47 2828 -22 
Q 2503 -91 2169 -91 
Q 1331 -91 842 396 
Q 353 884 353 1716 
Q 353 2575 817 3079 
Q 1281 3584 2069 3584 
Q 2775 3584 3186 3129 
Q 3597 2675 3597 1894 
z
M 3022 2063 
Q 3016 2534 2758 2815 
Q 2500 3097 2075 3097 
Q 1594 3097 1305 2825 
Q 1016 2553 972 2059 
L 3022 2063 
z
" id="DejaVuSans-65" transform="scale(0.015625)"/>
      </defs>
      <use xlink:href="#DejaVuSans-64"/>
      <use x="63.476562" xlink:href="#DejaVuSans-61"/>
      <use x="124.755859" xlink:href="#DejaVuSans-74"/>
      <use x="163.964844" xlink:href="#DejaVuSans-65"/>
     </g>
    </g>
   </g>
   <g id="matplotlib.axis_2">
    <g id="ytick_1">
     <g id="line2d_10">
      <defs>
       <path d="M 0 0 
L -3.5 0 
" id="m77a97ae1b5" style="stroke:#000000;stroke-width:0.8;"/>
      </defs>
      <g>
       <use style="stroke:#000000;stroke-width:0.8;" x="57.6" xlink:href="#m77a97ae1b5" y="267.359989"/>
      </g>
     </g>
     <g id="text_11">
      <!-- 80000 -->
      <g transform="translate(18.7875 271.159207)scale(0.1 -0.1)">
       <defs>
        <path d="M 2034 2216 
Q 1584 2216 1326 1975 
Q 1069 1734 1069 1313 
Q 1069 891 1326 650 
Q 1584 409 2034 409 
Q 2484 409 2743 651 
Q 3003 894 3003 1313 
Q 3003 1734 2745 1975 
Q 2488 2216 2034 2216 
z
M 1403 2484 
Q 997 2584 770 2862 
Q 544 3141 544 3541 
Q 544 4100 942 4425 
Q 1341 4750 2034 4750 
Q 2731 4750 3128 4425 
Q 3525 4100 3525 3541 
Q 3525 3141 3298 2862 
Q 3072 2584 2669 2484 
Q 3125 2378 3379 2068 
Q 3634 1759 3634 1313 
Q 3634 634 3220 271 
Q 2806 -91 2034 -91 
Q 1263 -91 848 271 
Q 434 634 434 1313 
Q 434 1759 690 2068 
Q 947 2378 1403 2484 
z
M 1172 3481 
Q 1172 3119 1398 2916 
Q 1625 2713 2034 2713 
Q 2441 2713 2670 2916 
Q 2900 3119 2900 3481 
Q 2900 3844 2670 4047 
Q 2441 4250 2034 4250 
Q 1625 4250 1398 4047 
Q 1172 3844 1172 3481 
z
" id="DejaVuSans-38" transform="scale(0.015625)"/>
       </defs>
       <use xlink:href="#DejaVuSans-38"/>
       <use x="63.623047" xlink:href="#DejaVuSans-30"/>
       <use x="127.246094" xlink:href="#DejaVuSans-30"/>
       <use x="190.869141" xlink:href="#DejaVuSans-30"/>
       <use x="254.492188" xlink:href="#DejaVuSans-30"/>
      </g>
     </g>
    </g>
    <g id="ytick_2">
     <g id="line2d_11">
      <g>
       <use style="stroke:#000000;stroke-width:0.8;" x="57.6" xlink:href="#m77a97ae1b5" y="239.219965"/>
      </g>
     </g>
     <g id="text_12">
      <!-- 85000 -->
      <g transform="translate(18.7875 243.019183)scale(0.1 -0.1)">
       <use xlink:href="#DejaVuSans-38"/>
       <use x="63.623047" xlink:href="#DejaVuSans-35"/>
       <use x="127.246094" xlink:href="#DejaVuSans-30"/>
       <use x="190.869141" xlink:href="#DejaVuSans-30"/>
       <use x="254.492188" xlink:href="#DejaVuSans-30"/>
      </g>
     </g>
    </g>
    <g id="ytick_3">
     <g id="line2d_12">
      <g>
       <use style="stroke:#000000;stroke-width:0.8;" x="57.6" xlink:href="#m77a97ae1b5" y="211.07994"/>
      </g>
     </g>
     <g id="text_13">
      <!-- 90000 -->
      <g transform="translate(18.7875 214.879159)scale(0.1 -0.1)">
       <use xlink:href="#DejaVuSans-39"/>
       <use x="63.623047" xlink:href="#DejaVuSans-30"/>
       <use x="127.246094" xlink:href="#DejaVuSans-30"/>
       <use x="190.869141" xlink:href="#DejaVuSans-30"/>
       <use x="254.492188" xlink:href="#DejaVuSans-30"/>
      </g>
     </g>
    </g>
    <g id="ytick_4">
     <g id="line2d_13">
      <g>
       <use style="stroke:#000000;stroke-width:0.8;" x="57.6" xlink:href="#m77a97ae1b5" y="182.939916"/>
      </g>
     </g>
     <g id="text_14">
      <!-- 95000 -->
      <g transform="translate(18.7875 186.739135)scale(0.1 -0.1)">
       <use xlink:href="#DejaVuSans-39"/>
       <use x="63.623047" xlink:href="#DejaVuSans-35"/>
       <use x="127.246094" xlink:href="#DejaVuSans-30"/>
       <use x="190.869141" xlink:href="#DejaVuSans-30"/>
       <use x="254.492188" xlink:href="#DejaVuSans-30"/>
      </g>
     </g>
    </g>
    <g id="ytick_5">
     <g id="line2d_14">
      <g>
       <use style="stroke:#000000;stroke-width:0.8;" x="57.6" xlink:href="#m77a97ae1b5" y="154.799892"/>
      </g>
     </g>
     <g id="text_15">
      <!-- 100000 -->
      <g transform="translate(12.425 158.599111)scale(0.1 -0.1)">
       <use xlink:href="#DejaVuSans-31"/>
       <use x="63.623047" xlink:href="#DejaVuSans-30"/>
       <use x="127.246094" xlink:href="#DejaVuSans-30"/>
       <use x="190.869141" xlink:href="#DejaVuSans-30"/>
       <use x="254.492188" xlink:href="#DejaVuSans-30"/>
       <use x="318.115234" xlink:href="#DejaVuSans-30"/>
      </g>
     </g>
    </g>
    <g id="ytick_6">
     <g id="line2d_15">
      <g>
       <use style="stroke:#000000;stroke-width:0.8;" x="57.6" xlink:href="#m77a97ae1b5" y="126.659868"/>
      </g>
     </g>
     <g id="text_16">
      <!-- 105000 -->
      <g transform="translate(12.425 130.459087)scale(0.1 -0.1)">
       <use xlink:href="#DejaVuSans-31"/>
       <use x="63.623047" xlink:href="#DejaVuSans-30"/>
       <use x="127.246094" xlink:href="#DejaVuSans-35"/>
       <use x="190.869141" xlink:href="#DejaVuSans-30"/>
       <use x="254.492188" xlink:href="#DejaVuSans-30"/>
       <use x="318.115234" xlink:href="#DejaVuSans-30"/>
      </g>
     </g>
    </g>
    <g id="ytick_7">
     <g id="line2d_16">
      <g>
       <use style="stroke:#000000;stroke-width:0.8;" x="57.6" xlink:href="#m77a97ae1b5" y="98.519844"/>
      </g>
     </g>
     <g id="text_17">
      <!-- 110000 -->
      <g transform="translate(12.425 102.319063)scale(0.1 -0.1)">
       <use xlink:href="#DejaVuSans-31"/>
       <use x="63.623047" xlink:href="#DejaVuSans-31"/>
       <use x="127.246094" xlink:href="#DejaVuSans-30"/>
       <use x="190.869141" xlink:href="#DejaVuSans-30"/>
       <use x="254.492188" xlink:href="#DejaVuSans-30"/>
       <use x="318.115234" xlink:href="#DejaVuSans-30"/>
      </g>
     </g>
    </g>
    <g id="ytick_8">
     <g id="line2d_17">
      <g>
       <use style="stroke:#000000;stroke-width:0.8;" x="57.6" xlink:href="#m77a97ae1b5" y="70.37982"/>
      </g>
     </g>
     <g id="text_18">
      <!-- 115000 -->
      <g transform="translate(12.425 74.179038)scale(0.1 -0.1)">
       <use xlink:href="#DejaVuSans-31"/>
       <use x="63.623047" xlink:href="#DejaVuSans-31"/>
       <use x="127.246094" xlink:href="#DejaVuSans-35"/>
       <use x="190.869141" xlink:href="#DejaVuSans-30"/>
       <use x="254.492188" xlink:href="#DejaVuSans-30"/>
       <use x="318.115234" xlink:href="#DejaVuSans-30"/>
      </g>
     </g>
    </g>
    <g id="ytick_9">
     <g id="line2d_18">
      <g>
       <use style="stroke:#000000;stroke-width:0.8;" x="57.6" xlink:href="#m77a97ae1b5" y="42.239795"/>
      </g>
     </g>
     <g id="text_19">
      <!-- 120000 -->
      <g transform="translate(12.425 46.039014)scale(0.1 -0.1)">
       <use xlink:href="#DejaVuSans-31"/>
       <use x="63.623047" xlink:href="#DejaVuSans-32"/>
       <use x="127.246094" xlink:href="#DejaVuSans-30"/>
       <use x="190.869141" xlink:href="#DejaVuSans-30"/>
       <use x="254.492188" xlink:href="#DejaVuSans-30"/>
       <use x="318.115234" xlink:href="#DejaVuSans-30"/>
      </g>
     </g>
    </g>
   </g>
   <g id="line2d_19">
    <path clip-path="url(#p259e3f746c)" d="M 73.832727 154.799892 
L 75.100909 155.056043 
L 76.369091 152.615057 
L 77.637273 155.668896 
L 78.905455 150.71323 
L 82.71 147.043116 
L 83.978182 146.260431 
L 85.246364 147.716714 
L 86.514545 146.55047 
L 87.782727 147.036028 
L 92.855455 146.865414 
L 95.391818 150.935003 
L 96.66 155.567865 
L 100.464545 151.160123 
L 101.732727 159.281652 
L 103.000909 155.767098 
L 104.269091 156.621721 
L 105.537273 162.700183 
L 109.341818 172.236456 
L 110.61 173.675048 
L 111.878182 169.342589 
L 113.146364 160.462302 
L 114.414545 155.849797 
L 118.219091 151.383583 
L 119.487273 163.762591 
L 120.755455 161.847244 
L 122.023636 166.351618 
L 123.291818 157.96651 
L 127.096364 168.161366 
L 128.364545 159.508838 
L 129.632727 157.697274 
L 130.900909 157.497464 
L 132.169091 156.827308 
L 135.973636 156.240726 
L 137.241818 155.39252 
L 138.51 162.700033 
L 139.778182 151.651771 
L 141.046364 150.763748 
L 144.850909 146.385644 
L 146.119091 140.689306 
L 147.387273 138.310025 
L 148.655455 148.323374 
L 149.923636 155.545502 
L 153.728182 155.035554 
L 154.996364 159.955278 
L 156.264545 161.17758 
L 157.532727 153.95113 
L 158.800909 161.459764 
L 162.605455 150.198331 
L 163.873636 150.307906 
L 165.141818 144.183941 
L 166.41 151.4027 
L 167.678182 147.468761 
L 171.482727 147.345457 
L 172.750909 154.362329 
L 174.019091 153.883329 
L 175.287273 158.599386 
L 176.555455 154.089977 
L 180.36 152.428844 
L 181.628182 152.24206 
L 182.896364 155.345439 
L 184.164545 156.847761 
L 185.432727 157.17787 
L 189.237273 153.587009 
L 190.505455 148.909065 
L 191.773636 149.536651 
L 194.31 149.778779 
L 198.114545 154.725718 
L 199.382727 165.368342 
L 200.650909 173.018615 
L 201.919091 166.192906 
L 203.187273 169.696198 
L 206.991818 159.648009 
L 208.26 149.745712 
L 209.528182 144.864188 
L 210.796364 144.874744 
L 212.064545 142.933243 
L 215.869091 148.583259 
L 217.137273 145.752695 
L 218.405455 142.183323 
L 219.673636 139.865505 
L 220.941818 147.044308 
L 224.746364 154.662046 
L 226.014545 141.239238 
L 227.282727 138.940307 
L 228.550909 133.507211 
L 233.623636 126.454163 
L 234.891818 126.765925 
L 236.16 126.378489 
L 237.428182 127.393337 
L 238.696364 130.15213 
L 242.500909 121.177059 
L 243.769091 113.675132 
L 245.037273 128.971494 
L 246.305455 123.915737 
L 247.573636 121.677513 
L 251.378182 121.412487 
L 252.646364 116.374798 
L 253.914545 115.385586 
L 255.182727 122.370706 
L 256.450909 120.919455 
L 261.523636 133.865707 
L 262.791818 136.59886 
L 264.06 143.214371 
L 265.328182 156.317384 
L 269.132727 155.68026 
L 270.400909 162.482965 
L 271.669091 162.474363 
L 272.937273 165.768381 
L 274.205455 151.763321 
L 278.01 139.624217 
L 279.278182 133.791547 
L 280.546364 125.229389 
L 281.814545 163.008004 
L 283.082727 162.664214 
L 286.887273 172.572024 
L 288.155455 173.950083 
L 289.423636 161.240703 
L 290.691818 171.5096 
L 291.96 183.590474 
L 295.764545 187.537384 
L 297.032727 180.623001 
L 298.300909 183.288736 
L 299.569091 193.222955 
L 300.837273 196.682452 
L 305.91 202.449357 
L 307.178182 209.66853 
L 308.446364 198.029144 
L 309.714545 188.533625 
L 313.519091 190.490694 
L 314.787273 198.475238 
L 316.055455 187.930541 
L 317.323636 190.09103 
L 318.591818 193.633033 
L 322.396364 215.358354 
L 323.664545 215.490028 
L 324.932727 194.343312 
L 326.200909 201.464001 
L 327.469091 210.077977 
L 331.273636 212.234071 
L 332.541818 202.016403 
L 333.81 185.842308 
L 335.078182 179.786203 
L 336.346364 170.046426 
L 340.150909 172.087924 
L 341.419091 162.144114 
L 342.687273 167.863579 
L 343.955455 158.441573 
L 345.223636 153.102979 
L 349.028182 150.902798 
L 350.296364 145.692096 
L 351.564545 147.925336 
L 352.832727 160.500451 
L 357.905455 151.49059 
L 359.173636 157.529414 
L 360.441818 166.473449 
L 361.71 167.535806 
L 362.978182 168.311964 
L 366.782727 178.594218 
L 368.050909 182.370767 
L 369.319091 179.412032 
L 370.587273 189.380264 
L 375.66 185.442378 
L 376.928182 176.18377 
L 378.196364 182.935281 
L 379.464545 194.540555 
L 380.732727 211.717079 
L 384.537273 207.242546 
L 385.805455 216.33094 
L 387.073636 222.21147 
L 388.341818 189.815331 
L 389.61 206.550593 
L 393.414545 199.083219 
L 394.682727 194.197346 
L 395.950909 172.034047 
L 397.219091 196.267593 
L 398.487273 202.781488 
L 398.487273 202.781488 
" style="fill:none;stroke:#0000ff;stroke-linecap:square;stroke-opacity:0.9;stroke-width:2;"/>
   </g>
   <g id="line2d_20">
    <path clip-path="url(#p259e3f746c)" d="M 73.832727 154.799892 
L 76.369091 149.130036 
L 77.637273 152.638487 
L 78.905455 145.750426 
L 83.978182 143.01654 
L 85.246364 143.053466 
L 86.514545 144.017334 
L 87.782727 143.677598 
L 92.855455 142.898761 
L 94.123636 144.995248 
L 95.391818 146.455467 
L 96.66 152.310834 
L 100.464545 148.122582 
L 101.732727 153.790305 
L 103.000909 150.805971 
L 104.269091 152.823325 
L 105.537273 159.804066 
L 109.341818 168.831727 
L 110.61 169.099731 
L 111.878182 165.721541 
L 113.146364 158.591037 
L 114.414545 154.04584 
L 118.219091 150.444227 
L 119.487273 161.832445 
L 120.755455 160.969508 
L 122.023636 166.726194 
L 123.291818 158.364788 
L 127.096364 164.550961 
L 128.364545 156.376747 
L 129.632727 155.086745 
L 130.900909 153.573725 
L 132.169091 150.715107 
L 135.973636 154.174809 
L 137.241818 158.834603 
L 138.51 160.354494 
L 139.778182 146.574997 
L 141.046364 142.51176 
L 144.850909 141.181285 
L 146.119091 136.180119 
L 147.387273 132.924212 
L 148.655455 140.506959 
L 149.923636 143.384959 
L 153.728182 145.008209 
L 156.264545 151.510349 
L 157.532727 143.749378 
L 158.800909 142.583413 
L 162.605455 141.980655 
L 163.873636 140.125067 
L 165.141818 135.826496 
L 166.41 136.868899 
L 167.678182 136.600456 
L 171.482727 136.06499 
L 172.750909 140.597893 
L 174.019091 143.762572 
L 175.287273 143.199737 
L 176.555455 139.998425 
L 180.36 138.312529 
L 181.628182 139.892584 
L 182.896364 140.016664 
L 184.164545 139.999393 
L 185.432727 142.180679 
L 189.237273 139.594302 
L 190.505455 133.974675 
L 191.773636 133.805087 
L 194.31 148.913827 
L 198.114545 142.626374 
L 199.382727 154.833928 
L 200.650909 161.111132 
L 201.919091 153.577385 
L 203.187273 158.090716 
L 206.991818 149.356561 
L 208.26 140.111825 
L 209.528182 136.653823 
L 210.796364 137.16494 
L 212.064545 133.520549 
L 215.869091 139.053424 
L 217.137273 138.960624 
L 218.405455 134.573012 
L 219.673636 134.152068 
L 220.941818 141.422614 
L 224.746364 148.277052 
L 226.014545 137.589808 
L 227.282727 133.953043 
L 228.550909 128.895632 
L 233.623636 121.584999 
L 234.891818 121.782038 
L 236.16 121.238344 
L 237.428182 122.057884 
L 238.696364 124.460877 
L 242.500909 118.190094 
L 243.769091 112.474276 
L 245.037273 125.395646 
L 246.305455 123.298708 
L 247.573636 119.924158 
L 251.378182 120.432061 
L 252.646364 116.957417 
L 253.914545 116.762119 
L 255.182727 121.200268 
L 256.450909 121.511373 
L 261.523636 134.385592 
L 264.06 146.014166 
L 265.328182 157.856649 
L 269.132727 158.273025 
L 270.400909 156.931748 
L 271.669091 158.112314 
L 272.937273 163.180092 
L 274.205455 149.579994 
L 278.01 140.81256 
L 279.278182 133.865513 
L 280.546364 124.737859 
L 281.814545 150.772516 
L 283.082727 146.050818 
L 286.887273 149.922025 
L 288.155455 146.236138 
L 289.423636 141.038359 
L 290.691818 150.163742 
L 291.96 162.047893 
L 295.764545 167.591679 
L 297.032727 160.685609 
L 298.300909 161.871111 
L 299.569091 172.760879 
L 300.837273 175.303625 
L 305.91 180.548872 
L 307.178182 187.801304 
L 308.446364 184.947316 
L 309.714545 171.929825 
L 313.519091 177.368216 
L 314.787273 188.438781 
L 316.055455 175.998346 
L 317.323636 176.70169 
L 318.591818 184.847964 
L 322.396364 203.6672 
L 323.664545 206.30173 
L 324.932727 187.488274 
L 326.200909 194.114865 
L 327.469091 199.623897 
L 331.273636 200.107647 
L 332.541818 191.7185 
L 333.81 179.614067 
L 335.078182 173.977561 
L 336.346364 168.8678 
L 340.150909 168.613189 
L 341.419091 159.461473 
L 342.687273 164.897085 
L 343.955455 156.475183 
L 345.223636 150.717289 
L 349.028182 149.956964 
L 350.296364 146.923033 
L 351.564545 147.431773 
L 352.832727 158.534674 
L 354.100909 155.871911 
L 357.905455 152.300124 
L 359.173636 157.688221 
L 360.441818 164.713332 
L 361.71 165.171231 
L 362.978182 164.535555 
L 368.050909 175.899522 
L 369.319091 173.625104 
L 370.587273 181.971321 
L 375.66 178.355149 
L 376.928182 170.873376 
L 378.196364 168.514137 
L 379.464545 175.599772 
L 380.732727 191.763981 
L 384.537273 190.300681 
L 385.805455 198.931904 
L 387.073636 199.941734 
L 388.341818 183.235024 
L 389.61 199.244343 
L 393.414545 196.305188 
L 394.682727 192.240851 
L 395.950909 169.359703 
L 397.219091 188.747616 
L 398.487273 187.642495 
L 398.487273 187.642495 
" style="fill:none;stroke:#ff0000;stroke-linecap:square;stroke-opacity:0.9;stroke-width:2;"/>
   </g>
   <g id="line2d_21">
    <path clip-path="url(#p259e3f746c)" d="M 73.832727 154.799892 
L 75.100909 151.948771 
L 76.369091 149.710452 
L 77.637273 152.769493 
L 78.905455 147.292658 
L 82.71 143.715857 
L 83.978182 142.747981 
L 85.246364 144.236013 
L 86.514545 143.379866 
L 87.782727 143.404048 
L 92.855455 143.330093 
L 94.123636 145.385477 
L 95.391818 147.191769 
L 96.66 151.863005 
L 100.464545 147.433633 
L 101.732727 155.130742 
L 103.000909 152.070521 
L 104.269091 153.093987 
L 105.537273 158.578328 
L 109.341818 168.24325 
L 110.61 169.601441 
L 111.878182 165.594409 
L 113.146364 156.552436 
L 114.414545 151.425141 
L 118.219091 146.958859 
L 119.487273 159.041807 
L 120.755455 156.805593 
L 122.023636 161.159231 
L 123.291818 152.466617 
L 127.096364 162.95576 
L 128.364545 154.405202 
L 129.632727 152.368099 
L 130.900909 151.002436 
L 132.169091 148.647388 
L 135.973636 151.616786 
L 137.241818 156.436781 
L 138.51 157.18369 
L 139.778182 146.030298 
L 141.046364 145.498554 
L 144.850909 140.337969 
L 146.119091 134.637771 
L 147.387273 132.308526 
L 148.655455 141.662715 
L 149.923636 149.196672 
L 153.728182 148.587134 
L 154.996364 153.725499 
L 156.264545 154.965819 
L 157.532727 147.969911 
L 158.800909 147.224626 
L 162.605455 143.903711 
L 163.873636 143.142319 
L 165.141818 138.746799 
L 166.41 138.29532 
L 167.678182 133.952776 
L 171.482727 133.398174 
L 172.750909 140.839485 
L 174.019091 145.189347 
L 175.287273 145.104799 
L 176.555455 140.574888 
L 180.36 138.771335 
L 181.628182 141.906452 
L 182.896364 141.857783 
L 184.164545 143.486637 
L 185.432727 143.894762 
L 189.237273 139.82521 
L 190.505455 135.483769 
L 191.773636 135.610309 
L 194.31 148.62764 
L 198.114545 141.382413 
L 199.382727 152.827171 
L 200.650909 160.694708 
L 201.919091 153.69521 
L 203.187273 157.435137 
L 206.991818 146.686972 
L 208.26 136.739409 
L 209.528182 131.973219 
L 210.796364 132.042951 
L 212.064545 129.998521 
L 215.869091 135.188221 
L 219.673636 126.776774 
L 220.941818 134.067517 
L 224.746364 141.829027 
L 226.014545 128.074253 
L 227.282727 125.525045 
L 228.550909 120.37039 
L 233.623636 113.040094 
L 234.891818 112.895489 
L 236.16 113.214461 
L 237.428182 113.94588 
L 238.696364 116.541404 
L 242.500909 107.580612 
L 243.769091 99.884055 
L 245.037273 115.44656 
L 246.305455 109.370581 
L 247.573636 107.473192 
L 251.378182 106.137117 
L 252.646364 100.42166 
L 253.914545 99.51356 
L 255.182727 106.983678 
L 256.450909 104.692444 
L 262.791818 120.996322 
L 264.06 127.665302 
L 265.328182 141.209506 
L 269.132727 140.434117 
L 270.400909 147.455627 
L 271.669091 147.177731 
L 272.937273 150.823416 
L 274.205455 136.205941 
L 278.01 123.806146 
L 279.278182 118.364586 
L 280.546364 107.806056 
L 281.814545 148.588975 
L 283.082727 148.154601 
L 286.887273 157.670523 
L 288.155455 159.233002 
L 289.423636 146.902565 
L 290.691818 156.961442 
L 291.96 169.65729 
L 295.764545 173.099371 
L 297.032727 166.522049 
L 298.300909 169.611984 
L 299.569091 179.784714 
L 300.837273 182.717336 
L 305.91 187.992928 
L 307.178182 195.651357 
L 308.446364 183.258095 
L 309.714545 173.827704 
L 313.519091 175.343533 
L 314.787273 183.963582 
L 316.055455 172.359079 
L 317.323636 175.647267 
L 318.591818 182.908865 
L 322.396364 205.891117 
L 323.664545 203.703273 
L 324.932727 180.754983 
L 327.469091 197.403663 
L 331.273636 197.788622 
L 332.541818 187.965749 
L 333.81 170.035051 
L 335.078182 164.136138 
L 336.346364 155.348025 
L 340.150909 157.697931 
L 341.419091 145.635689 
L 342.687273 152.74028 
L 343.955455 144.092182 
L 345.223636 137.088882 
L 349.028182 136.958953 
L 350.296364 132.535274 
L 351.564545 135.362743 
L 352.832727 150.258255 
L 354.100909 148.807818 
L 357.905455 143.728177 
L 359.173636 150.941507 
L 360.441818 159.370414 
L 361.71 161.354144 
L 362.978182 161.886526 
L 368.050909 173.812233 
L 369.319091 171.025924 
L 370.587273 181.442129 
L 375.66 175.508528 
L 376.928182 165.63593 
L 378.196364 169.133076 
L 379.464545 180.802215 
L 380.732727 198.734473 
L 384.537273 195.775059 
L 385.805455 208.996088 
L 387.073636 214.928764 
L 388.341818 185.855069 
L 389.61 202.221868 
L 393.414545 193.139544 
L 394.682727 187.387679 
L 395.950909 163.150049 
L 397.219091 186.188447 
L 398.487273 188.751916 
L 398.487273 188.751916 
" style="fill:none;stroke:#ff8040;stroke-linecap:square;stroke-opacity:0.9;stroke-width:2;"/>
   </g>
   <g id="line2d_22">
    <path clip-path="url(#p259e3f746c)" d="M 73.832727 155.362693 
L 76.369091 151.970306 
L 77.637273 157.645145 
L 78.905455 150.492048 
L 82.71 152.425498 
L 85.246364 151.70739 
L 86.514545 154.895828 
L 87.782727 155.315728 
L 92.855455 154.865389 
L 94.123636 156.731984 
L 95.391818 157.987978 
L 96.66 165.237919 
L 100.464545 161.772767 
L 101.732727 166.251596 
L 103.000909 163.968639 
L 104.269091 165.61926 
L 105.537273 173.198664 
L 109.341818 182.081361 
L 110.61 182.517739 
L 111.878182 181.703661 
L 113.146364 172.905059 
L 114.414545 169.681268 
L 118.219091 164.417222 
L 119.487273 179.261636 
L 120.755455 178.809446 
L 122.023636 184.149585 
L 123.291818 175.284582 
L 127.096364 182.815052 
L 128.364545 174.092458 
L 129.632727 172.266918 
L 130.900909 169.269461 
L 132.169091 166.703935 
L 135.973636 170.108541 
L 137.241818 174.557355 
L 138.51 177.463636 
L 139.778182 165.619544 
L 141.046364 162.288096 
L 144.850909 161.13163 
L 146.119091 155.503203 
L 147.387273 154.424446 
L 148.655455 158.60896 
L 149.923636 165.503393 
L 153.728182 168.452704 
L 154.996364 170.507768 
L 156.264545 171.712064 
L 157.532727 164.506532 
L 158.800909 166.186247 
L 162.605455 162.724596 
L 163.873636 161.825906 
L 165.141818 157.735798 
L 166.41 157.935174 
L 167.678182 159.674137 
L 171.482727 158.78163 
L 172.750909 164.718243 
L 174.019091 163.959189 
L 175.287273 163.654052 
L 176.555455 160.235096 
L 180.36 159.401063 
L 181.628182 160.966575 
L 182.896364 160.603295 
L 184.164545 161.155616 
L 185.432727 164.638672 
L 189.237273 162.192248 
L 190.505455 156.568902 
L 191.773636 156.901191 
L 194.31 172.089506 
L 198.114545 166.747166 
L 199.382727 182.06285 
L 200.650909 189.889037 
L 201.919091 181.253873 
L 203.187273 187.034246 
L 206.991818 178.758021 
L 208.26 170.310104 
L 209.528182 166.860711 
L 210.796364 167.774295 
L 212.064545 164.161437 
L 215.869091 170.727634 
L 217.137273 170.037139 
L 218.405455 168.423157 
L 219.673636 165.107561 
L 220.941818 173.785447 
L 224.746364 181.21027 
L 226.014545 170.959907 
L 227.282727 167.212859 
L 228.550909 162.717439 
L 233.623636 153.204503 
L 234.891818 153.998619 
L 236.16 152.993275 
L 237.428182 153.741487 
L 238.696364 157.293773 
L 242.500909 149.42808 
L 243.769091 145.977392 
L 245.037273 159.437492 
L 246.305455 156.266633 
L 247.573636 153.404064 
L 251.378182 152.151372 
L 252.646364 150.034122 
L 253.914545 149.454152 
L 255.182727 153.860528 
L 256.450909 152.942617 
L 261.523636 163.299281 
L 264.06 173.762487 
L 265.328182 185.306153 
L 269.132727 184.381407 
L 270.400909 187.811617 
L 272.937273 197.267684 
L 274.205455 185.379108 
L 278.01 174.601913 
L 279.278182 165.894234 
L 280.546364 153.56431 
L 281.814545 197.541116 
L 283.082727 193.344155 
L 286.887273 202.022261 
L 288.155455 198.049849 
L 289.423636 193.66038 
L 291.96 213.762893 
L 295.764545 218.675519 
L 297.032727 212.714826 
L 298.300909 214.713618 
L 299.569091 230.319424 
L 300.837273 232.590113 
L 305.91 237.650752 
L 307.178182 244.858117 
L 308.446364 244.622602 
L 309.714545 232.943079 
L 313.519091 235.811653 
L 314.787273 244.191524 
L 316.055455 231.466088 
L 317.323636 232.459364 
L 318.591818 240.370184 
L 322.396364 262.128469 
L 323.664545 264.504309 
L 324.932727 246.230227 
L 326.200909 253.363868 
L 327.469091 258.511605 
L 331.273636 257.051442 
L 332.541818 248.041998 
L 333.81 237.200623 
L 336.346364 225.870113 
L 340.150909 225.79689 
L 341.419091 216.370747 
L 342.687273 223.232541 
L 343.955455 215.113415 
L 345.223636 211.207285 
L 349.028182 210.605533 
L 350.296364 207.284074 
L 351.564545 207.400774 
L 352.832727 215.686741 
L 354.100909 213.471597 
L 357.905455 210.309213 
L 359.173636 214.904544 
L 360.441818 221.372173 
L 361.71 221.167368 
L 362.978182 221.629973 
L 366.782727 229.095742 
L 368.050909 232.054619 
L 369.319091 230.587611 
L 370.587273 242.081383 
L 375.66 237.786761 
L 376.928182 232.114783 
L 378.196364 225.599974 
L 379.464545 231.894577 
L 380.732727 246.594227 
L 384.537273 247.402378 
L 385.805455 257.725722 
L 387.073636 258.125019 
L 388.341818 251.694683 
L 389.61 265.797818 
L 393.414545 262.587978 
L 394.682727 258.938395 
L 395.950909 237.420091 
L 397.219091 255.900095 
L 398.487273 254.787536 
L 398.487273 254.787536 
" style="fill:none;stroke:#0d0d0d;stroke-linecap:square;stroke-opacity:0.25;stroke-width:2;"/>
   </g>
   <g id="line2d_23">
    <path clip-path="url(#p259e3f746c)" d="M 73.832727 154.237092 
L 76.369091 145.637856 
L 77.637273 148.774904 
L 78.905455 141.936881 
L 82.71 135.176738 
L 83.978182 134.249741 
L 85.246364 135.144182 
L 86.514545 135.900646 
L 87.782727 135.615556 
L 92.855455 132.925208 
L 94.123636 134.775373 
L 95.391818 135.738914 
L 96.66 141.41864 
L 100.464545 136.287105 
L 101.732727 143.13365 
L 103.000909 140.690557 
L 104.269091 141.806168 
L 105.537273 149.643414 
L 109.341818 159.012842 
L 110.61 159.149923 
L 111.878182 152.1355 
L 113.146364 142.798357 
L 114.414545 139.083847 
L 118.219091 136.871344 
L 119.487273 147.864433 
L 120.755455 147.793881 
L 122.023636 152.933997 
L 123.291818 145.649344 
L 127.096364 151.328863 
L 128.364545 140.88339 
L 129.632727 139.517664 
L 130.900909 140.606372 
L 132.169091 137.707474 
L 135.973636 141.231157 
L 137.241818 145.809985 
L 138.51 146.52327 
L 139.778182 132.045927 
L 141.046364 127.355294 
L 144.850909 120.275642 
L 146.119091 115.17831 
L 147.387273 113.907328 
L 148.655455 121.160477 
L 149.923636 122.403974 
L 153.728182 122.543366 
L 154.996364 124.354199 
L 156.264545 127.662921 
L 157.532727 118.695252 
L 158.800909 117.591499 
L 162.605455 114.588676 
L 163.873636 112.330432 
L 165.141818 107.664674 
L 166.41 106.316775 
L 167.678182 105.470373 
L 171.482727 105.135486 
L 172.750909 111.36539 
L 174.019091 116.257777 
L 175.287273 116.424862 
L 176.555455 106.810901 
L 180.36 106.309027 
L 181.628182 108.980557 
L 182.896364 105.483675 
L 184.164545 104.799094 
L 185.432727 103.876729 
L 189.237273 98.315912 
L 190.505455 92.011282 
L 191.773636 90.395042 
L 194.31 103.531774 
L 198.114545 93.893427 
L 199.382727 105.455523 
L 200.650909 112.576851 
L 201.919091 103.619673 
L 203.187273 106.371868 
L 206.991818 94.217665 
L 208.26 83.264694 
L 209.528182 81.496028 
L 210.796364 82.186796 
L 212.064545 79.313139 
L 215.869091 85.859313 
L 217.137273 84.66785 
L 218.405455 78.181696 
L 219.673636 78.836933 
L 220.941818 87.533007 
L 224.746364 94.515694 
L 226.014545 80.531695 
L 227.282727 75.718203 
L 228.550909 69.360732 
L 233.623636 63.965305 
L 234.891818 61.922616 
L 236.16 63.674311 
L 237.428182 64.105043 
L 238.696364 65.396524 
L 242.500909 58.574458 
L 243.769091 52.154182 
L 245.037273 66.044824 
L 246.305455 62.762105 
L 247.573636 63.916374 
L 251.378182 62.470679 
L 252.646364 57.995546 
L 253.914545 57.778739 
L 255.182727 64.128744 
L 256.450909 65.680304 
L 262.791818 89.506283 
L 264.06 94.491509 
L 265.328182 107.844995 
L 269.132727 107.478881 
L 270.400909 103.749504 
L 271.669091 105.481137 
L 272.937273 110.545095 
L 274.205455 94.361564 
L 278.01 82.785812 
L 279.278182 73.393399 
L 280.546364 65.670838 
L 281.814545 73.409902 
L 283.082727 73.843418 
L 286.887273 83.797723 
L 288.155455 80.360929 
L 289.423636 71.146815 
L 290.691818 82.287294 
L 291.96 96.475405 
L 295.764545 103.552816 
L 297.032727 97.552057 
L 298.300909 99.597336 
L 299.569091 114.294617 
L 300.837273 117.158185 
L 305.91 121.161539 
L 307.178182 127.50415 
L 308.446364 120.650916 
L 309.714545 107.168946 
L 313.519091 114.562012 
L 314.787273 129.536881 
L 316.055455 116.379415 
L 317.323636 117.162098 
L 318.591818 124.324386 
L 322.396364 141.636549 
L 323.664545 144.225665 
L 324.932727 122.388935 
L 326.200909 129.105854 
L 327.469091 140.109905 
L 331.273636 140.60847 
L 332.541818 130.728017 
L 333.81 115.07338 
L 335.078182 110.903916 
L 336.346364 102.858391 
L 340.150909 101.807781 
L 341.419091 88.898318 
L 342.687273 94.888605 
L 343.955455 83.681746 
L 345.223636 78.379874 
L 349.028182 74.758365 
L 350.296364 69.633025 
L 351.564545 68.959358 
L 352.832727 82.140495 
L 354.100909 79.657865 
L 357.905455 74.974596 
L 359.173636 83.101052 
L 360.441818 93.999605 
L 361.71 94.26016 
L 362.978182 97.205324 
L 366.782727 111.671963 
L 368.050909 114.590059 
L 369.319091 114.057402 
L 370.587273 121.816477 
L 375.66 118.870309 
L 376.928182 109.457618 
L 378.196364 106.041548 
L 379.464545 114.9038 
L 380.732727 131.921677 
L 384.537273 130.253181 
L 385.805455 139.248261 
L 387.073636 140.437792 
L 388.341818 104.479381 
L 389.61 123.222117 
L 393.414545 120.902171 
L 394.682727 117.087502 
L 395.950909 92.27726 
L 397.219091 111.676022 
L 398.487273 108.917749 
L 398.487273 108.917749 
" style="fill:none;stroke:#0d0d0d;stroke-linecap:square;stroke-opacity:0.25;stroke-width:2;"/>
   </g>
   <g id="patch_3">
    <path d="M 57.6 276.48 
L 57.6 41.472 
" style="fill:none;stroke:#000000;stroke-linecap:square;stroke-linejoin:miter;stroke-width:0.8;"/>
   </g>
   <g id="patch_4">
    <path d="M 414.72 276.48 
L 414.72 41.472 
" style="fill:none;stroke:#000000;stroke-linecap:square;stroke-linejoin:miter;stroke-width:0.8;"/>
   </g>
   <g id="patch_5">
    <path d="M 57.6 276.48 
L 414.72 276.48 
" style="fill:none;stroke:#000000;stroke-linecap:square;stroke-linejoin:miter;stroke-width:0.8;"/>
   </g>
   <g id="patch_6">
    <path d="M 57.6 41.472 
L 414.72 41.472 
" style="fill:none;stroke:#000000;stroke-linecap:square;stroke-linejoin:miter;stroke-width:0.8;"/>
   </g>
   <g id="text_20">
    <!-- TESTFUNDS1550 -->
    <g transform="translate(185.200312 22.034625)scale(0.12 -0.12)">
     <defs>
      <path d="M -19 4666 
L 3928 4666 
L 3928 4134 
L 2272 4134 
L 2272 0 
L 1638 0 
L 1638 4134 
L -19 4134 
L -19 4666 
z
" id="DejaVuSans-54" transform="scale(0.015625)"/>
      <path d="M 628 4666 
L 3578 4666 
L 3578 4134 
L 1259 4134 
L 1259 2753 
L 3481 2753 
L 3481 2222 
L 1259 2222 
L 1259 531 
L 3634 531 
L 3634 0 
L 628 0 
L 628 4666 
z
" id="DejaVuSans-45" transform="scale(0.015625)"/>
      <path d="M 3425 4513 
L 3425 3897 
Q 3066 4069 2747 4153 
Q 2428 4238 2131 4238 
Q 1616 4238 1336 4038 
Q 1056 3838 1056 3469 
Q 1056 3159 1242 3001 
Q 1428 2844 1947 2747 
L 2328 2669 
Q 3034 2534 3370 2195 
Q 3706 1856 3706 1288 
Q 3706 609 3251 259 
Q 2797 -91 1919 -91 
Q 1588 -91 1214 -16 
Q 841 59 441 206 
L 441 856 
Q 825 641 1194 531 
Q 1563 422 1919 422 
Q 2459 422 2753 634 
Q 3047 847 3047 1241 
Q 3047 1584 2836 1778 
Q 2625 1972 2144 2069 
L 1759 2144 
Q 1053 2284 737 2584 
Q 422 2884 422 3419 
Q 422 4038 858 4394 
Q 1294 4750 2059 4750 
Q 2388 4750 2728 4690 
Q 3069 4631 3425 4513 
z
" id="DejaVuSans-53" transform="scale(0.015625)"/>
      <path d="M 628 4666 
L 3309 4666 
L 3309 4134 
L 1259 4134 
L 1259 2759 
L 3109 2759 
L 3109 2228 
L 1259 2228 
L 1259 0 
L 628 0 
L 628 4666 
z
" id="DejaVuSans-46" transform="scale(0.015625)"/>
      <path d="M 556 4666 
L 1191 4666 
L 1191 1831 
Q 1191 1081 1462 751 
Q 1734 422 2344 422 
Q 2950 422 3222 751 
Q 3494 1081 3494 1831 
L 3494 4666 
L 4128 4666 
L 4128 1753 
Q 4128 841 3676 375 
Q 3225 -91 2344 -91 
Q 1459 -91 1007 375 
Q 556 841 556 1753 
L 556 4666 
z
" id="DejaVuSans-55" transform="scale(0.015625)"/>
      <path d="M 628 4666 
L 1478 4666 
L 3547 763 
L 3547 4666 
L 4159 4666 
L 4159 0 
L 3309 0 
L 1241 3903 
L 1241 0 
L 628 0 
L 628 4666 
z
" id="DejaVuSans-4e" transform="scale(0.015625)"/>
      <path d="M 1259 4147 
L 1259 519 
L 2022 519 
Q 2988 519 3436 956 
Q 3884 1394 3884 2338 
Q 3884 3275 3436 3711 
Q 2988 4147 2022 4147 
L 1259 4147 
z
M 628 4666 
L 1925 4666 
Q 3281 4666 3915 4102 
Q 4550 3538 4550 2338 
Q 4550 1131 3912 565 
Q 3275 0 1925 0 
L 628 0 
L 628 4666 
z
" id="DejaVuSans-44" transform="scale(0.015625)"/>
     </defs>
     <use xlink:href="#DejaVuSans-54"/>
     <use x="61.083984" xlink:href="#DejaVuSans-45"/>
     <use x="124.267578" xlink:href="#DejaVuSans-53"/>
     <use x="187.744141" xlink:href="#DejaVuSans-54"/>
     <use x="248.828125" xlink:href="#DejaVuSans-46"/>
     <use x="306.347656" xlink:href="#DejaVuSans-55"/>
     <use x="379.541016" xlink:href="#DejaVuSans-4e"/>
     <use x="454.345703" xlink:href="#DejaVuSans-44"/>
     <use x="531.347656" xlink:href="#DejaVuSans-53"/>
     <use x="594.824219" xlink:href="#DejaVuSans-31"/>
     <use x="658.447266" xlink:href="#DejaVuSans-35"/>
     <use x="722.070312" xlink:href="#DejaVuSans-35"/>
     <use x="785.693359" xlink:href="#DejaVuSans-30"/>
    </g>
    <!-- daily_report -->
    <g transform="translate(200.466563 35.472)scale(0.12 -0.12)">
     <defs>
      <path d="M 603 3500 
L 1178 3500 
L 1178 0 
L 603 0 
L 603 3500 
z
M 603 4863 
L 1178 4863 
L 1178 4134 
L 603 4134 
L 603 4863 
z
" id="DejaVuSans-69" transform="scale(0.015625)"/>
      <path d="M 603 4863 
L 1178 4863 
L 1178 0 
L 603 0 
L 603 4863 
z
" id="DejaVuSans-6c" transform="scale(0.015625)"/>
      <path d="M 2059 -325 
Q 1816 -950 1584 -1140 
Q 1353 -1331 966 -1331 
L 506 -1331 
L 506 -850 
L 844 -850 
Q 1081 -850 1212 -737 
Q 1344 -625 1503 -206 
L 1606 56 
L 191 3500 
L 800 3500 
L 1894 763 
L 2988 3500 
L 3597 3500 
L 2059 -325 
z
" id="DejaVuSans-79" transform="scale(0.015625)"/>
      <path d="M 3263 -1063 
L 3263 -1509 
L -63 -1509 
L -63 -1063 
L 3263 -1063 
z
" id="DejaVuSans-5f" transform="scale(0.015625)"/>
      <path d="M 2631 2963 
Q 2534 3019 2420 3045 
Q 2306 3072 2169 3072 
Q 1681 3072 1420 2755 
Q 1159 2438 1159 1844 
L 1159 0 
L 581 0 
L 581 3500 
L 1159 3500 
L 1159 2956 
Q 1341 3275 1631 3429 
Q 1922 3584 2338 3584 
Q 2397 3584 2469 3576 
Q 2541 3569 2628 3553 
L 2631 2963 
z
" id="DejaVuSans-72" transform="scale(0.015625)"/>
      <path d="M 1159 525 
L 1159 -1331 
L 581 -1331 
L 581 3500 
L 1159 3500 
L 1159 2969 
Q 1341 3281 1617 3432 
Q 1894 3584 2278 3584 
Q 2916 3584 3314 3078 
Q 3713 2572 3713 1747 
Q 3713 922 3314 415 
Q 2916 -91 2278 -91 
Q 1894 -91 1617 61 
Q 1341 213 1159 525 
z
M 3116 1747 
Q 3116 2381 2855 2742 
Q 2594 3103 2138 3103 
Q 1681 3103 1420 2742 
Q 1159 2381 1159 1747 
Q 1159 1113 1420 752 
Q 1681 391 2138 391 
Q 2594 391 2855 752 
Q 3116 1113 3116 1747 
z
" id="DejaVuSans-70" transform="scale(0.015625)"/>
      <path d="M 1959 3097 
Q 1497 3097 1228 2736 
Q 959 2375 959 1747 
Q 959 1119 1226 758 
Q 1494 397 1959 397 
Q 2419 397 2687 759 
Q 2956 1122 2956 1747 
Q 2956 2369 2687 2733 
Q 2419 3097 1959 3097 
z
M 1959 3584 
Q 2709 3584 3137 3096 
Q 3566 2609 3566 1747 
Q 3566 888 3137 398 
Q 2709 -91 1959 -91 
Q 1206 -91 779 398 
Q 353 888 353 1747 
Q 353 2609 779 3096 
Q 1206 3584 1959 3584 
z
" id="DejaVuSans-6f" transform="scale(0.015625)"/>
     </defs>
     <use xlink:href="#DejaVuSans-64"/>
     <use x="63.476562" xlink:href="#DejaVuSans-61"/>
     <use x="124.755859" xlink:href="#DejaVuSans-69"/>
     <use x="152.539062" xlink:href="#DejaVuSans-6c"/>
     <use x="180.322266" xlink:href="#DejaVuSans-79"/>
     <use x="239.501953" xlink:href="#DejaVuSans-5f"/>
     <use x="289.501953" xlink:href="#DejaVuSans-72"/>
     <use x="328.365234" xlink:href="#DejaVuSans-65"/>
     <use x="389.888672" xlink:href="#DejaVuSans-70"/>
     <use x="453.365234" xlink:href="#DejaVuSans-6f"/>
     <use x="514.546875" xlink:href="#DejaVuSans-72"/>
     <use x="555.660156" xlink:href="#DejaVuSans-74"/>
    </g>
   </g>
   <g id="legend_1">
    <g id="patch_7">
     <path d="M 64.6 271.48 
L 155.792188 271.48 
Q 157.792188 271.48 157.792188 269.48 
L 157.792188 197.089375 
Q 157.792188 195.089375 155.792188 195.089375 
L 64.6 195.089375 
Q 62.6 195.089375 62.6 197.089375 
L 62.6 269.48 
Q 62.6 271.48 64.6 271.48 
z
" style="fill:#ffffff;opacity:0.8;stroke:#cccccc;stroke-linejoin:miter;"/>
    </g>
    <g id="line2d_24">
     <path d="M 66.6 203.187812 
L 86.6 203.187812 
" style="fill:none;stroke:#0000ff;stroke-linecap:square;stroke-opacity:0.9;stroke-width:2;"/>
    </g>
    <g id="line2d_25"/>
    <g id="text_21">
     <!-- alpaca -->
     <g transform="translate(94.6 206.687812)scale(0.1 -0.1)">
      <defs>
       <path d="M 3122 3366 
L 3122 2828 
Q 2878 2963 2633 3030 
Q 2388 3097 2138 3097 
Q 1578 3097 1268 2742 
Q 959 2388 959 1747 
Q 959 1106 1268 751 
Q 1578 397 2138 397 
Q 2388 397 2633 464 
Q 2878 531 3122 666 
L 3122 134 
Q 2881 22 2623 -34 
Q 2366 -91 2075 -91 
Q 1284 -91 818 406 
Q 353 903 353 1747 
Q 353 2603 823 3093 
Q 1294 3584 2113 3584 
Q 2378 3584 2631 3529 
Q 2884 3475 3122 3366 
z
" id="DejaVuSans-63" transform="scale(0.015625)"/>
      </defs>
      <use xlink:href="#DejaVuSans-61"/>
      <use x="61.279297" xlink:href="#DejaVuSans-6c"/>
      <use x="89.0625" xlink:href="#DejaVuSans-70"/>
      <use x="152.539062" xlink:href="#DejaVuSans-61"/>
      <use x="213.818359" xlink:href="#DejaVuSans-63"/>
      <use x="268.798828" xlink:href="#DejaVuSans-61"/>
     </g>
    </g>
    <g id="line2d_26">
     <path d="M 66.6 217.865937 
L 86.6 217.865937 
" style="fill:none;stroke:#ff0000;stroke-linecap:square;stroke-opacity:0.9;stroke-width:2;"/>
    </g>
    <g id="line2d_27"/>
    <g id="text_22">
     <!-- mattress -->
     <g transform="translate(94.6 221.365937)scale(0.1 -0.1)">
      <defs>
       <path d="M 3328 2828 
Q 3544 3216 3844 3400 
Q 4144 3584 4550 3584 
Q 5097 3584 5394 3201 
Q 5691 2819 5691 2113 
L 5691 0 
L 5113 0 
L 5113 2094 
Q 5113 2597 4934 2840 
Q 4756 3084 4391 3084 
Q 3944 3084 3684 2787 
Q 3425 2491 3425 1978 
L 3425 0 
L 2847 0 
L 2847 2094 
Q 2847 2600 2669 2842 
Q 2491 3084 2119 3084 
Q 1678 3084 1418 2786 
Q 1159 2488 1159 1978 
L 1159 0 
L 581 0 
L 581 3500 
L 1159 3500 
L 1159 2956 
Q 1356 3278 1631 3431 
Q 1906 3584 2284 3584 
Q 2666 3584 2933 3390 
Q 3200 3197 3328 2828 
z
" id="DejaVuSans-6d" transform="scale(0.015625)"/>
       <path d="M 2834 3397 
L 2834 2853 
Q 2591 2978 2328 3040 
Q 2066 3103 1784 3103 
Q 1356 3103 1142 2972 
Q 928 2841 928 2578 
Q 928 2378 1081 2264 
Q 1234 2150 1697 2047 
L 1894 2003 
Q 2506 1872 2764 1633 
Q 3022 1394 3022 966 
Q 3022 478 2636 193 
Q 2250 -91 1575 -91 
Q 1294 -91 989 -36 
Q 684 19 347 128 
L 347 722 
Q 666 556 975 473 
Q 1284 391 1588 391 
Q 1994 391 2212 530 
Q 2431 669 2431 922 
Q 2431 1156 2273 1281 
Q 2116 1406 1581 1522 
L 1381 1569 
Q 847 1681 609 1914 
Q 372 2147 372 2553 
Q 372 3047 722 3315 
Q 1072 3584 1716 3584 
Q 2034 3584 2315 3537 
Q 2597 3491 2834 3397 
z
" id="DejaVuSans-73" transform="scale(0.015625)"/>
      </defs>
      <use xlink:href="#DejaVuSans-6d"/>
      <use x="97.412109" xlink:href="#DejaVuSans-61"/>
      <use x="158.691406" xlink:href="#DejaVuSans-74"/>
      <use x="197.900391" xlink:href="#DejaVuSans-74"/>
      <use x="237.109375" xlink:href="#DejaVuSans-72"/>
      <use x="275.972656" xlink:href="#DejaVuSans-65"/>
      <use x="337.496094" xlink:href="#DejaVuSans-73"/>
      <use x="389.595703" xlink:href="#DejaVuSans-73"/>
     </g>
    </g>
    <g id="line2d_28">
     <path d="M 66.6 232.544062 
L 86.6 232.544062 
" style="fill:none;stroke:#ff8040;stroke-linecap:square;stroke-opacity:0.9;stroke-width:2;"/>
    </g>
    <g id="line2d_29"/>
    <g id="text_23">
     <!-- trader-0850 -->
     <g transform="translate(94.6 236.044062)scale(0.1 -0.1)">
      <use xlink:href="#DejaVuSans-74"/>
      <use x="39.208984" xlink:href="#DejaVuSans-72"/>
      <use x="80.322266" xlink:href="#DejaVuSans-61"/>
      <use x="141.601562" xlink:href="#DejaVuSans-64"/>
      <use x="205.078125" xlink:href="#DejaVuSans-65"/>
      <use x="266.601562" xlink:href="#DejaVuSans-72"/>
      <use x="301.339844" xlink:href="#DejaVuSans-2d"/>
      <use x="337.423828" xlink:href="#DejaVuSans-30"/>
      <use x="401.046875" xlink:href="#DejaVuSans-38"/>
      <use x="464.669922" xlink:href="#DejaVuSans-35"/>
      <use x="528.292969" xlink:href="#DejaVuSans-30"/>
     </g>
    </g>
    <g id="line2d_30">
     <path d="M 66.6 247.222187 
L 86.6 247.222187 
" style="fill:none;stroke:#0d0d0d;stroke-linecap:square;stroke-opacity:0.25;stroke-width:2;"/>
    </g>
    <g id="line2d_31"/>
    <g id="text_24">
     <!-- rando-min -->
     <g transform="translate(94.6 250.722187)scale(0.1 -0.1)">
      <defs>
       <path d="M 3513 2113 
L 3513 0 
L 2938 0 
L 2938 2094 
Q 2938 2591 2744 2837 
Q 2550 3084 2163 3084 
Q 1697 3084 1428 2787 
Q 1159 2491 1159 1978 
L 1159 0 
L 581 0 
L 581 3500 
L 1159 3500 
L 1159 2956 
Q 1366 3272 1645 3428 
Q 1925 3584 2291 3584 
Q 2894 3584 3203 3211 
Q 3513 2838 3513 2113 
z
" id="DejaVuSans-6e" transform="scale(0.015625)"/>
      </defs>
      <use xlink:href="#DejaVuSans-72"/>
      <use x="41.113281" xlink:href="#DejaVuSans-61"/>
      <use x="102.392578" xlink:href="#DejaVuSans-6e"/>
      <use x="165.771484" xlink:href="#DejaVuSans-64"/>
      <use x="229.248047" xlink:href="#DejaVuSans-6f"/>
      <use x="292.304688" xlink:href="#DejaVuSans-2d"/>
      <use x="328.388672" xlink:href="#DejaVuSans-6d"/>
      <use x="425.800781" xlink:href="#DejaVuSans-69"/>
      <use x="453.583984" xlink:href="#DejaVuSans-6e"/>
     </g>
    </g>
    <g id="line2d_32">
     <path d="M 66.6 261.900312 
L 86.6 261.900312 
" style="fill:none;stroke:#0d0d0d;stroke-linecap:square;stroke-opacity:0.25;stroke-width:2;"/>
    </g>
    <g id="line2d_33"/>
    <g id="text_25">
     <!-- rando-max -->
     <g transform="translate(94.6 265.400312)scale(0.1 -0.1)">
      <defs>
       <path d="M 3513 3500 
L 2247 1797 
L 3578 0 
L 2900 0 
L 1881 1375 
L 863 0 
L 184 0 
L 1544 1831 
L 300 3500 
L 978 3500 
L 1906 2253 
L 2834 3500 
L 3513 3500 
z
" id="DejaVuSans-78" transform="scale(0.015625)"/>
      </defs>
      <use xlink:href="#DejaVuSans-72"/>
      <use x="41.113281" xlink:href="#DejaVuSans-61"/>
      <use x="102.392578" xlink:href="#DejaVuSans-6e"/>
      <use x="165.771484" xlink:href="#DejaVuSans-64"/>
      <use x="229.248047" xlink:href="#DejaVuSans-6f"/>
      <use x="292.304688" xlink:href="#DejaVuSans-2d"/>
      <use x="328.388672" xlink:href="#DejaVuSans-6d"/>
      <use x="425.800781" xlink:href="#DejaVuSans-61"/>
      <use x="487.080078" xlink:href="#DejaVuSans-78"/>
     </g>
    </g>
   </g>
  </g>
 </g>
 <defs>
  <clipPath id="p259e3f746c">
   <rect height="235.008" width="357.12" x="57.6" y="41.472"/>
  </clipPath>
 </defs>
</svg>
