<?xml version="1.0" encoding="utf-8" standalone="no"?>
<!DOCTYPE svg PUBLIC "-//W3C//DTD SVG 1.1//EN"
  "http://www.w3.org/Graphics/SVG/1.1/DTD/svg11.dtd">
<svg height="345.6pt" version="1.1" viewBox="0 0 460.8 345.6" width="460.8pt" xmlns="http://www.w3.org/2000/svg" xmlns:xlink="http://www.w3.org/1999/xlink">
 <metadata>
  <rdf:RDF xmlns:cc="http://creativecommons.org/ns#" xmlns:dc="http://purl.org/dc/elements/1.1/" xmlns:rdf="http://www.w3.org/1999/02/22-rdf-syntax-ns#">
   <cc:Work>
    <dc:type rdf:resource="http://purl.org/dc/dcmitype/StillImage"/>
    <dc:date>2022-06-01T10:01:49.556650</dc:date>
    <dc:format>image/svg+xml</dc:format>
    <dc:creator>
     <cc:Agent>
      <dc:title>Matplotlib v3.4.3, https://matplotlib.org/</dc:title>
     </cc:Agent>
    </dc:creator>
   </cc:Work>
  </rdf:RDF>
 </metadata>
 <defs>
  <style type="text/css">*{stroke-linecap:butt;stroke-linejoin:round;}</style>
 </defs>
 <g id="figure_1">
  <g id="patch_1">
   <path d="M 0 345.6 
L 460.8 345.6 
L 460.8 0 
L 0 0 
z
" style="fill:#ffffff;"/>
  </g>
  <g id="axes_1">
   <g id="patch_2">
    <path d="M 57.6 276.48 
L 414.72 276.48 
L 414.72 41.472 
L 57.6 41.472 
z
" style="fill:#ffffff;"/>
   </g>
   <g id="matplotlib.axis_1">
    <g id="xtick_1">
     <g id="line2d_1">
      <defs>
       <path d="M 0 0 
L 0 3.5 
" id="m25ba004766" style="stroke:#000000;stroke-width:0.8;"/>
      </defs>
      <g>
       <use style="stroke:#000000;stroke-width:0.8;" x="95.587929" xlink:href="#m25ba004766" y="276.48"/>
      </g>
     </g>
     <g id="text_1">
      <!-- 2021-12 -->
      <g transform="translate(58.363108 310.951846)rotate(-30)scale(0.1 -0.1)">
       <defs>
        <path d="M 1228 531 
L 3431 531 
L 3431 0 
L 469 0 
L 469 531 
Q 828 903 1448 1529 
Q 2069 2156 2228 2338 
Q 2531 2678 2651 2914 
Q 2772 3150 2772 3378 
Q 2772 3750 2511 3984 
Q 2250 4219 1831 4219 
Q 1534 4219 1204 4116 
Q 875 4013 500 3803 
L 500 4441 
Q 881 4594 1212 4672 
Q 1544 4750 1819 4750 
Q 2544 4750 2975 4387 
Q 3406 4025 3406 3419 
Q 3406 3131 3298 2873 
Q 3191 2616 2906 2266 
Q 2828 2175 2409 1742 
Q 1991 1309 1228 531 
z
" id="DejaVuSans-32" transform="scale(0.015625)"/>
        <path d="M 2034 4250 
Q 1547 4250 1301 3770 
Q 1056 3291 1056 2328 
Q 1056 1369 1301 889 
Q 1547 409 2034 409 
Q 2525 409 2770 889 
Q 3016 1369 3016 2328 
Q 3016 3291 2770 3770 
Q 2525 4250 2034 4250 
z
M 2034 4750 
Q 2819 4750 3233 4129 
Q 3647 3509 3647 2328 
Q 3647 1150 3233 529 
Q 2819 -91 2034 -91 
Q 1250 -91 836 529 
Q 422 1150 422 2328 
Q 422 3509 836 4129 
Q 1250 4750 2034 4750 
z
" id="DejaVuSans-30" transform="scale(0.015625)"/>
        <path d="M 794 531 
L 1825 531 
L 1825 4091 
L 703 3866 
L 703 4441 
L 1819 4666 
L 2450 4666 
L 2450 531 
L 3481 531 
L 3481 0 
L 794 0 
L 794 531 
z
" id="DejaVuSans-31" transform="scale(0.015625)"/>
        <path d="M 313 2009 
L 1997 2009 
L 1997 1497 
L 313 1497 
L 313 2009 
z
" id="DejaVuSans-2d" transform="scale(0.015625)"/>
       </defs>
       <use xlink:href="#DejaVuSans-32"/>
       <use x="63.623047" xlink:href="#DejaVuSans-30"/>
       <use x="127.246094" xlink:href="#DejaVuSans-32"/>
       <use x="190.869141" xlink:href="#DejaVuSans-31"/>
       <use x="254.492188" xlink:href="#DejaVuSans-2d"/>
       <use x="290.576172" xlink:href="#DejaVuSans-31"/>
       <use x="354.199219" xlink:href="#DejaVuSans-32"/>
      </g>
     </g>
    </g>
    <g id="xtick_2">
     <g id="line2d_2">
      <g>
       <use style="stroke:#000000;stroke-width:0.8;" x="147.465717" xlink:href="#m25ba004766" y="276.48"/>
      </g>
     </g>
     <g id="text_2">
      <!-- 2022-01 -->
      <g transform="translate(110.240896 310.951846)rotate(-30)scale(0.1 -0.1)">
       <use xlink:href="#DejaVuSans-32"/>
       <use x="63.623047" xlink:href="#DejaVuSans-30"/>
       <use x="127.246094" xlink:href="#DejaVuSans-32"/>
       <use x="190.869141" xlink:href="#DejaVuSans-32"/>
       <use x="254.492188" xlink:href="#DejaVuSans-2d"/>
       <use x="290.576172" xlink:href="#DejaVuSans-30"/>
       <use x="354.199219" xlink:href="#DejaVuSans-31"/>
      </g>
     </g>
    </g>
    <g id="xtick_3">
     <g id="line2d_3">
      <g>
       <use style="stroke:#000000;stroke-width:0.8;" x="199.343505" xlink:href="#m25ba004766" y="276.48"/>
      </g>
     </g>
     <g id="text_3">
      <!-- 2022-02 -->
      <g transform="translate(162.118684 310.951846)rotate(-30)scale(0.1 -0.1)">
       <use xlink:href="#DejaVuSans-32"/>
       <use x="63.623047" xlink:href="#DejaVuSans-30"/>
       <use x="127.246094" xlink:href="#DejaVuSans-32"/>
       <use x="190.869141" xlink:href="#DejaVuSans-32"/>
       <use x="254.492188" xlink:href="#DejaVuSans-2d"/>
       <use x="290.576172" xlink:href="#DejaVuSans-30"/>
       <use x="354.199219" xlink:href="#DejaVuSans-32"/>
      </g>
     </g>
    </g>
    <g id="xtick_4">
     <g id="line2d_4">
      <g>
       <use style="stroke:#000000;stroke-width:0.8;" x="246.200862" xlink:href="#m25ba004766" y="276.48"/>
      </g>
     </g>
     <g id="text_4">
      <!-- 2022-03 -->
      <g transform="translate(208.976041 310.951846)rotate(-30)scale(0.1 -0.1)">
       <defs>
        <path d="M 2597 2516 
Q 3050 2419 3304 2112 
Q 3559 1806 3559 1356 
Q 3559 666 3084 287 
Q 2609 -91 1734 -91 
Q 1441 -91 1130 -33 
Q 819 25 488 141 
L 488 750 
Q 750 597 1062 519 
Q 1375 441 1716 441 
Q 2309 441 2620 675 
Q 2931 909 2931 1356 
Q 2931 1769 2642 2001 
Q 2353 2234 1838 2234 
L 1294 2234 
L 1294 2753 
L 1863 2753 
Q 2328 2753 2575 2939 
Q 2822 3125 2822 3475 
Q 2822 3834 2567 4026 
Q 2313 4219 1838 4219 
Q 1578 4219 1281 4162 
Q 984 4106 628 3988 
L 628 4550 
Q 988 4650 1302 4700 
Q 1616 4750 1894 4750 
Q 2613 4750 3031 4423 
Q 3450 4097 3450 3541 
Q 3450 3153 3228 2886 
Q 3006 2619 2597 2516 
z
" id="DejaVuSans-33" transform="scale(0.015625)"/>
       </defs>
       <use xlink:href="#DejaVuSans-32"/>
       <use x="63.623047" xlink:href="#DejaVuSans-30"/>
       <use x="127.246094" xlink:href="#DejaVuSans-32"/>
       <use x="190.869141" xlink:href="#DejaVuSans-32"/>
       <use x="254.492188" xlink:href="#DejaVuSans-2d"/>
       <use x="290.576172" xlink:href="#DejaVuSans-30"/>
       <use x="354.199219" xlink:href="#DejaVuSans-33"/>
      </g>
     </g>
    </g>
    <g id="xtick_5">
     <g id="line2d_5">
      <g>
       <use style="stroke:#000000;stroke-width:0.8;" x="298.07865" xlink:href="#m25ba004766" y="276.48"/>
      </g>
     </g>
     <g id="text_5">
      <!-- 2022-04 -->
      <g transform="translate(260.85383 310.951846)rotate(-30)scale(0.1 -0.1)">
       <defs>
        <path d="M 2419 4116 
L 825 1625 
L 2419 1625 
L 2419 4116 
z
M 2253 4666 
L 3047 4666 
L 3047 1625 
L 3713 1625 
L 3713 1100 
L 3047 1100 
L 3047 0 
L 2419 0 
L 2419 1100 
L 313 1100 
L 313 1709 
L 2253 4666 
z
" id="DejaVuSans-34" transform="scale(0.015625)"/>
       </defs>
       <use xlink:href="#DejaVuSans-32"/>
       <use x="63.623047" xlink:href="#DejaVuSans-30"/>
       <use x="127.246094" xlink:href="#DejaVuSans-32"/>
       <use x="190.869141" xlink:href="#DejaVuSans-32"/>
       <use x="254.492188" xlink:href="#DejaVuSans-2d"/>
       <use x="290.576172" xlink:href="#DejaVuSans-30"/>
       <use x="354.199219" xlink:href="#DejaVuSans-34"/>
      </g>
     </g>
    </g>
    <g id="xtick_6">
     <g id="line2d_6">
      <g>
       <use style="stroke:#000000;stroke-width:0.8;" x="348.282962" xlink:href="#m25ba004766" y="276.48"/>
      </g>
     </g>
     <g id="text_6">
      <!-- 2022-05 -->
      <g transform="translate(311.058141 310.951846)rotate(-30)scale(0.1 -0.1)">
       <defs>
        <path d="M 691 4666 
L 3169 4666 
L 3169 4134 
L 1269 4134 
L 1269 2991 
Q 1406 3038 1543 3061 
Q 1681 3084 1819 3084 
Q 2600 3084 3056 2656 
Q 3513 2228 3513 1497 
Q 3513 744 3044 326 
Q 2575 -91 1722 -91 
Q 1428 -91 1123 -41 
Q 819 9 494 109 
L 494 744 
Q 775 591 1075 516 
Q 1375 441 1709 441 
Q 2250 441 2565 725 
Q 2881 1009 2881 1497 
Q 2881 1984 2565 2268 
Q 2250 2553 1709 2553 
Q 1456 2553 1204 2497 
Q 953 2441 691 2322 
L 691 4666 
z
" id="DejaVuSans-35" transform="scale(0.015625)"/>
       </defs>
       <use xlink:href="#DejaVuSans-32"/>
       <use x="63.623047" xlink:href="#DejaVuSans-30"/>
       <use x="127.246094" xlink:href="#DejaVuSans-32"/>
       <use x="190.869141" xlink:href="#DejaVuSans-32"/>
       <use x="254.492188" xlink:href="#DejaVuSans-2d"/>
       <use x="290.576172" xlink:href="#DejaVuSans-30"/>
       <use x="354.199219" xlink:href="#DejaVuSans-35"/>
      </g>
     </g>
    </g>
    <g id="xtick_7">
     <g id="line2d_7">
      <g>
       <use style="stroke:#000000;stroke-width:0.8;" x="400.16075" xlink:href="#m25ba004766" y="276.48"/>
      </g>
     </g>
     <g id="text_7">
      <!-- 2022-06 -->
      <g transform="translate(362.935929 310.951846)rotate(-30)scale(0.1 -0.1)">
       <defs>
        <path d="M 2113 2584 
Q 1688 2584 1439 2293 
Q 1191 2003 1191 1497 
Q 1191 994 1439 701 
Q 1688 409 2113 409 
Q 2538 409 2786 701 
Q 3034 994 3034 1497 
Q 3034 2003 2786 2293 
Q 2538 2584 2113 2584 
z
M 3366 4563 
L 3366 3988 
Q 3128 4100 2886 4159 
Q 2644 4219 2406 4219 
Q 1781 4219 1451 3797 
Q 1122 3375 1075 2522 
Q 1259 2794 1537 2939 
Q 1816 3084 2150 3084 
Q 2853 3084 3261 2657 
Q 3669 2231 3669 1497 
Q 3669 778 3244 343 
Q 2819 -91 2113 -91 
Q 1303 -91 875 529 
Q 447 1150 447 2328 
Q 447 3434 972 4092 
Q 1497 4750 2381 4750 
Q 2619 4750 2861 4703 
Q 3103 4656 3366 4563 
z
" id="DejaVuSans-36" transform="scale(0.015625)"/>
       </defs>
       <use xlink:href="#DejaVuSans-32"/>
       <use x="63.623047" xlink:href="#DejaVuSans-30"/>
       <use x="127.246094" xlink:href="#DejaVuSans-32"/>
       <use x="190.869141" xlink:href="#DejaVuSans-32"/>
       <use x="254.492188" xlink:href="#DejaVuSans-2d"/>
       <use x="290.576172" xlink:href="#DejaVuSans-30"/>
       <use x="354.199219" xlink:href="#DejaVuSans-36"/>
      </g>
     </g>
    </g>
    <g id="text_8">
     <!-- date -->
     <g transform="translate(224.885 324.351346)scale(0.1 -0.1)">
      <defs>
       <path d="M 2906 2969 
L 2906 4863 
L 3481 4863 
L 3481 0 
L 2906 0 
L 2906 525 
Q 2725 213 2448 61 
Q 2172 -91 1784 -91 
Q 1150 -91 751 415 
Q 353 922 353 1747 
Q 353 2572 751 3078 
Q 1150 3584 1784 3584 
Q 2172 3584 2448 3432 
Q 2725 3281 2906 2969 
z
M 947 1747 
Q 947 1113 1208 752 
Q 1469 391 1925 391 
Q 2381 391 2643 752 
Q 2906 1113 2906 1747 
Q 2906 2381 2643 2742 
Q 2381 3103 1925 3103 
Q 1469 3103 1208 2742 
Q 947 2381 947 1747 
z
" id="DejaVuSans-64" transform="scale(0.015625)"/>
       <path d="M 2194 1759 
Q 1497 1759 1228 1600 
Q 959 1441 959 1056 
Q 959 750 1161 570 
Q 1363 391 1709 391 
Q 2188 391 2477 730 
Q 2766 1069 2766 1631 
L 2766 1759 
L 2194 1759 
z
M 3341 1997 
L 3341 0 
L 2766 0 
L 2766 531 
Q 2569 213 2275 61 
Q 1981 -91 1556 -91 
Q 1019 -91 701 211 
Q 384 513 384 1019 
Q 384 1609 779 1909 
Q 1175 2209 1959 2209 
L 2766 2209 
L 2766 2266 
Q 2766 2663 2505 2880 
Q 2244 3097 1772 3097 
Q 1472 3097 1187 3025 
Q 903 2953 641 2809 
L 641 3341 
Q 956 3463 1253 3523 
Q 1550 3584 1831 3584 
Q 2591 3584 2966 3190 
Q 3341 2797 3341 1997 
z
" id="DejaVuSans-61" transform="scale(0.015625)"/>
       <path d="M 1172 4494 
L 1172 3500 
L 2356 3500 
L 2356 3053 
L 1172 3053 
L 1172 1153 
Q 1172 725 1289 603 
Q 1406 481 1766 481 
L 2356 481 
L 2356 0 
L 1766 0 
Q 1100 0 847 248 
Q 594 497 594 1153 
L 594 3053 
L 172 3053 
L 172 3500 
L 594 3500 
L 594 4494 
L 1172 4494 
z
" id="DejaVuSans-74" transform="scale(0.015625)"/>
       <path d="M 3597 1894 
L 3597 1613 
L 953 1613 
Q 991 1019 1311 708 
Q 1631 397 2203 397 
Q 2534 397 2845 478 
Q 3156 559 3463 722 
L 3463 178 
Q 3153 47 2828 -22 
Q 2503 -91 2169 -91 
Q 1331 -91 842 396 
Q 353 884 353 1716 
Q 353 2575 817 3079 
Q 1281 3584 2069 3584 
Q 2775 3584 3186 3129 
Q 3597 2675 3597 1894 
z
M 3022 2063 
Q 3016 2534 2758 2815 
Q 2500 3097 2075 3097 
Q 1594 3097 1305 2825 
Q 1016 2553 972 2059 
L 3022 2063 
z
" id="DejaVuSans-65" transform="scale(0.015625)"/>
      </defs>
      <use xlink:href="#DejaVuSans-64"/>
      <use x="63.476562" xlink:href="#DejaVuSans-61"/>
      <use x="124.755859" xlink:href="#DejaVuSans-74"/>
      <use x="163.964844" xlink:href="#DejaVuSans-65"/>
     </g>
    </g>
   </g>
   <g id="matplotlib.axis_2">
    <g id="ytick_1">
     <g id="line2d_8">
      <defs>
       <path d="M 0 0 
L -3.5 0 
" id="m13e5416c30" style="stroke:#000000;stroke-width:0.8;"/>
      </defs>
      <g>
       <use style="stroke:#000000;stroke-width:0.8;" x="57.6" xlink:href="#m13e5416c30" y="258.845292"/>
      </g>
     </g>
     <g id="text_9">
      <!-- 85000 -->
      <g transform="translate(18.7875 262.64451)scale(0.1 -0.1)">
       <defs>
        <path d="M 2034 2216 
Q 1584 2216 1326 1975 
Q 1069 1734 1069 1313 
Q 1069 891 1326 650 
Q 1584 409 2034 409 
Q 2484 409 2743 651 
Q 3003 894 3003 1313 
Q 3003 1734 2745 1975 
Q 2488 2216 2034 2216 
z
M 1403 2484 
Q 997 2584 770 2862 
Q 544 3141 544 3541 
Q 544 4100 942 4425 
Q 1341 4750 2034 4750 
Q 2731 4750 3128 4425 
Q 3525 4100 3525 3541 
Q 3525 3141 3298 2862 
Q 3072 2584 2669 2484 
Q 3125 2378 3379 2068 
Q 3634 1759 3634 1313 
Q 3634 634 3220 271 
Q 2806 -91 2034 -91 
Q 1263 -91 848 271 
Q 434 634 434 1313 
Q 434 1759 690 2068 
Q 947 2378 1403 2484 
z
M 1172 3481 
Q 1172 3119 1398 2916 
Q 1625 2713 2034 2713 
Q 2441 2713 2670 2916 
Q 2900 3119 2900 3481 
Q 2900 3844 2670 4047 
Q 2441 4250 2034 4250 
Q 1625 4250 1398 4047 
Q 1172 3844 1172 3481 
z
" id="DejaVuSans-38" transform="scale(0.015625)"/>
       </defs>
       <use xlink:href="#DejaVuSans-38"/>
       <use x="63.623047" xlink:href="#DejaVuSans-35"/>
       <use x="127.246094" xlink:href="#DejaVuSans-30"/>
       <use x="190.869141" xlink:href="#DejaVuSans-30"/>
       <use x="254.492188" xlink:href="#DejaVuSans-30"/>
      </g>
     </g>
    </g>
    <g id="ytick_2">
     <g id="line2d_9">
      <g>
       <use style="stroke:#000000;stroke-width:0.8;" x="57.6" xlink:href="#m13e5416c30" y="212.809034"/>
      </g>
     </g>
     <g id="text_10">
      <!-- 90000 -->
      <g transform="translate(18.7875 216.608252)scale(0.1 -0.1)">
       <defs>
        <path d="M 703 97 
L 703 672 
Q 941 559 1184 500 
Q 1428 441 1663 441 
Q 2288 441 2617 861 
Q 2947 1281 2994 2138 
Q 2813 1869 2534 1725 
Q 2256 1581 1919 1581 
Q 1219 1581 811 2004 
Q 403 2428 403 3163 
Q 403 3881 828 4315 
Q 1253 4750 1959 4750 
Q 2769 4750 3195 4129 
Q 3622 3509 3622 2328 
Q 3622 1225 3098 567 
Q 2575 -91 1691 -91 
Q 1453 -91 1209 -44 
Q 966 3 703 97 
z
M 1959 2075 
Q 2384 2075 2632 2365 
Q 2881 2656 2881 3163 
Q 2881 3666 2632 3958 
Q 2384 4250 1959 4250 
Q 1534 4250 1286 3958 
Q 1038 3666 1038 3163 
Q 1038 2656 1286 2365 
Q 1534 2075 1959 2075 
z
" id="DejaVuSans-39" transform="scale(0.015625)"/>
       </defs>
       <use xlink:href="#DejaVuSans-39"/>
       <use x="63.623047" xlink:href="#DejaVuSans-30"/>
       <use x="127.246094" xlink:href="#DejaVuSans-30"/>
       <use x="190.869141" xlink:href="#DejaVuSans-30"/>
       <use x="254.492188" xlink:href="#DejaVuSans-30"/>
      </g>
     </g>
    </g>
    <g id="ytick_3">
     <g id="line2d_10">
      <g>
       <use style="stroke:#000000;stroke-width:0.8;" x="57.6" xlink:href="#m13e5416c30" y="166.772775"/>
      </g>
     </g>
     <g id="text_11">
      <!-- 95000 -->
      <g transform="translate(18.7875 170.571994)scale(0.1 -0.1)">
       <use xlink:href="#DejaVuSans-39"/>
       <use x="63.623047" xlink:href="#DejaVuSans-35"/>
       <use x="127.246094" xlink:href="#DejaVuSans-30"/>
       <use x="190.869141" xlink:href="#DejaVuSans-30"/>
       <use x="254.492188" xlink:href="#DejaVuSans-30"/>
      </g>
     </g>
    </g>
    <g id="ytick_4">
     <g id="line2d_11">
      <g>
       <use style="stroke:#000000;stroke-width:0.8;" x="57.6" xlink:href="#m13e5416c30" y="120.736517"/>
      </g>
     </g>
     <g id="text_12">
      <!-- 100000 -->
      <g transform="translate(12.425 124.535736)scale(0.1 -0.1)">
       <use xlink:href="#DejaVuSans-31"/>
       <use x="63.623047" xlink:href="#DejaVuSans-30"/>
       <use x="127.246094" xlink:href="#DejaVuSans-30"/>
       <use x="190.869141" xlink:href="#DejaVuSans-30"/>
       <use x="254.492188" xlink:href="#DejaVuSans-30"/>
       <use x="318.115234" xlink:href="#DejaVuSans-30"/>
      </g>
     </g>
    </g>
    <g id="ytick_5">
     <g id="line2d_12">
      <g>
       <use style="stroke:#000000;stroke-width:0.8;" x="57.6" xlink:href="#m13e5416c30" y="74.700259"/>
      </g>
     </g>
     <g id="text_13">
      <!-- 105000 -->
      <g transform="translate(12.425 78.499478)scale(0.1 -0.1)">
       <use xlink:href="#DejaVuSans-31"/>
       <use x="63.623047" xlink:href="#DejaVuSans-30"/>
       <use x="127.246094" xlink:href="#DejaVuSans-35"/>
       <use x="190.869141" xlink:href="#DejaVuSans-30"/>
       <use x="254.492188" xlink:href="#DejaVuSans-30"/>
       <use x="318.115234" xlink:href="#DejaVuSans-30"/>
      </g>
     </g>
    </g>
   </g>
   <g id="line2d_13">
    <path clip-path="url(#pdd1f69cd27)" d="M 73.832727 123.42153 
L 75.506204 125.686292 
L 80.526635 122.855268 
L 82.200112 114.515193 
L 83.87359 113.99915 
L 87.220544 113.867983 
L 92.240975 126.828977 
L 93.914452 146.087439 
L 95.587929 156.531059 
L 97.261406 144.661976 
L 98.934883 151.694191 
L 103.955314 137.564377 
L 105.628791 121.639935 
L 107.302268 116.022955 
L 108.975745 116.937301 
L 110.649222 111.12457 
L 115.669653 120.188316 
L 117.34313 119.839238 
L 119.016607 112.39101 
L 120.690084 111.451974 
L 122.363561 122.959 
L 127.383993 133.780803 
L 129.05747 115.669006 
L 130.730947 110.432573 
L 132.404424 103.231218 
L 139.098332 90.687853 
L 140.771809 90.763779 
L 142.445286 89.765303 
L 144.118763 91.753563 
L 145.79224 95.013366 
L 150.812671 85.695167 
L 152.486148 75.689658 
L 154.159625 96.963343 
L 157.506579 88.968293 
L 162.52701 89.927943 
L 164.200487 83.820636 
L 165.873964 83.504172 
L 167.547441 91.037314 
L 169.220918 90.620793 
L 175.914827 111.946374 
L 177.588304 119.843397 
L 179.261781 129.019163 
L 180.935258 148.360254 
L 185.955689 148.881646 
L 187.629166 147.382615 
L 189.302643 149.33901 
L 190.97612 157.24049 
L 192.649597 135.521892 
L 197.670028 121.117435 
L 199.343505 109.590715 
L 201.016982 94.762837 
L 202.690459 141.130369 
L 204.363936 135.629092 
L 209.384367 143.556988 
L 211.057844 139.806038 
L 212.731321 128.304615 
L 214.404799 144.251155 
L 216.078276 163.004423 
L 221.098707 171.219405 
L 222.772184 160.581595 
L 224.445661 164.082862 
L 226.119138 182.070173 
L 227.792615 186.603639 
L 234.486523 194.527681 
L 236.16 206.980685 
L 237.833477 198.722013 
L 239.506954 179.415602 
L 244.527385 186.596571 
L 246.200862 203.842809 
L 247.874339 184.489 
L 249.547816 187.258232 
L 251.221293 199.273 
L 256.241724 230.328108 
L 257.915201 232.985458 
L 259.588679 202.36098 
L 262.935633 223.574598 
L 267.956064 224.972024 
L 269.629541 210.317393 
L 271.303018 189.675654 
L 272.976495 180.723432 
L 274.649972 170.091542 
L 279.670403 171.234827 
L 281.34388 156.914335 
L 283.017357 165.486395 
L 284.690834 151.65323 
L 286.364311 142.467764 
L 291.384742 140.351357 
L 293.058219 134.280479 
L 294.731696 136.125377 
L 296.405173 153.523929 
L 298.07865 148.964844 
L 303.099082 140.85932 
L 304.772559 150.248367 
L 306.446036 162.163184 
L 308.119513 163.031871 
L 309.79299 162.655905 
L 316.486898 181.305393 
L 318.160375 178.92461 
L 319.833852 192.328414 
L 326.52776 186.296296 
L 328.201237 173.111007 
L 329.874714 173.306805 
L 331.548191 187.742883 
L 333.221668 212.294137 
L 338.242099 208.97357 
L 339.915576 223.48279 
L 341.589053 227.991772 
L 343.26253 192.443659 
L 344.936007 217.796608 
L 349.956439 210.565367 
L 351.629916 203.837791 
L 353.303393 167.402966 
L 354.97687 200.214307 
L 356.650347 199.908916 
L 361.670778 223.864091 
L 363.344255 230.063198 
L 365.017732 240.725106 
L 366.691209 244.455747 
L 368.364686 230.05015 
L 373.385117 231.780247 
L 375.058594 215.639664 
L 376.732071 248.637454 
L 378.405548 258.527105 
L 380.079025 264.386818 
L 385.099456 243.093253 
L 386.772933 258.154483 
L 388.44641 256.765479 
L 391.793365 218.389356 
L 398.487273 214.53876 
L 398.487273 214.53876 
" style="fill:none;stroke:#0000ff;stroke-linecap:square;stroke-opacity:0.9;stroke-width:2;"/>
   </g>
   <g id="line2d_14">
    <path clip-path="url(#pdd1f69cd27)" d="M 73.832727 123.42153 
L 75.506204 126.033 
L 80.526635 122.81298 
L 82.200112 114.511471 
L 83.87359 113.441705 
L 87.220544 136.521569 
L 92.240975 126.891643 
L 93.914452 146.14684 
L 95.587929 156.432704 
L 97.261406 144.975587 
L 98.934883 151.37688 
L 103.955314 138.136318 
L 105.628791 122.516198 
L 107.302268 116.280757 
L 108.975745 117.074378 
L 110.649222 111.257307 
L 115.669653 120.744616 
L 117.34313 119.437628 
L 119.016607 112.2369 
L 120.690084 111.991741 
L 122.363561 123.490511 
L 127.383993 133.813901 
L 129.05747 116.475129 
L 130.730947 111.558931 
L 132.404424 103.078673 
L 139.098332 91.115652 
L 140.771809 91.334112 
L 142.445286 90.11107 
L 144.118763 91.627266 
L 145.79224 95.397315 
L 150.812671 85.465852 
L 152.486148 76.571594 
L 154.159625 97.057219 
L 155.833102 93.361881 
L 157.506579 88.775055 
L 162.52701 89.876325 
L 164.200487 84.620504 
L 165.873964 84.696848 
L 167.547441 90.98113 
L 169.220918 91.13661 
L 175.914827 112.07272 
L 177.588304 121.445853 
L 179.261781 129.776137 
L 180.935258 148.776832 
L 185.955689 149.682536 
L 187.629166 146.179819 
L 189.302643 149.16121 
L 190.97612 156.681552 
L 192.649597 135.115545 
L 197.670028 120.814485 
L 199.343505 110.065335 
L 201.016982 95.144098 
L 202.690459 139.65115 
L 204.363936 132.877832 
L 209.384367 138.836967 
L 211.057844 133.440497 
L 212.731321 125.03934 
L 214.404799 140.760699 
L 216.078276 158.782512 
L 221.098707 167.468017 
L 222.772184 157.268342 
L 224.445661 159.401502 
L 226.119138 177.514057 
L 227.792615 181.842451 
L 234.486523 189.368673 
L 236.16 200.29422 
L 237.833477 195.626796 
L 239.506954 175.951629 
L 244.527385 184.174544 
L 246.200862 201.447682 
L 247.874339 181.06941 
L 249.547816 183.343557 
L 251.221293 194.685527 
L 256.241724 224.383147 
L 257.915201 227.751329 
L 259.588679 198.805965 
L 261.262156 209.97829 
L 262.935633 219.654805 
L 267.956064 220.645497 
L 269.629541 206.265078 
L 271.303018 186.734644 
L 272.976495 178.541626 
L 274.649972 169.333578 
L 279.670403 169.296703 
L 281.34388 154.781204 
L 283.017357 163.900769 
L 284.690834 150.400646 
L 286.364311 140.096077 
L 291.384742 139.102254 
L 293.058219 134.869448 
L 294.731696 135.492521 
L 296.405173 153.297342 
L 298.07865 148.550078 
L 303.099082 141.953013 
L 304.772559 151.159951 
L 306.446036 162.434283 
L 308.119513 162.963095 
L 309.79299 161.996718 
L 316.486898 180.454423 
L 318.160375 176.949399 
L 319.833852 189.195066 
L 326.52776 184.092747 
L 328.201237 172.378795 
L 329.874714 167.392376 
L 331.548191 178.228034 
L 333.221668 203.02676 
L 338.242099 200.447223 
L 339.915576 215.601551 
L 341.589053 217.337706 
L 343.26253 189.658293 
L 344.936007 215.674059 
L 349.956439 209.870224 
L 351.629916 204.077109 
L 353.303393 167.974657 
L 354.97687 198.041473 
L 356.650347 195.788398 
L 365.017732 236.954456 
L 366.691209 240.997375 
L 368.364686 228.609702 
L 373.385117 230.732208 
L 375.058594 213.998191 
L 376.732071 246.119297 
L 378.405548 256.29827 
L 380.079025 263.220171 
L 385.099456 242.488682 
L 386.772933 253.601847 
L 388.44641 252.491849 
L 390.119888 234.95953 
L 391.793365 215.463693 
L 398.487273 218.683839 
L 398.487273 218.683839 
" style="fill:none;stroke:#ff0000;stroke-linecap:square;stroke-opacity:0.9;stroke-width:2;"/>
   </g>
   <g id="line2d_15">
    <path clip-path="url(#pdd1f69cd27)" d="M 73.832727 123.42153 
L 75.506204 126.220609 
L 80.526635 122.206137 
L 82.200112 114.350866 
L 83.87359 113.829694 
L 87.220544 136.590839 
L 92.240975 126.408385 
L 93.914452 145.848243 
L 95.587929 156.483565 
L 97.261406 144.274087 
L 98.934883 151.399635 
L 103.955314 136.96417 
L 105.628791 121.317092 
L 107.302268 116.549227 
L 108.975745 116.686336 
L 110.649222 111.283972 
L 115.669653 120.198455 
L 117.34313 119.759593 
L 119.016607 112.002703 
L 120.690084 111.330738 
L 122.363561 122.675377 
L 127.383993 133.03485 
L 129.05747 115.469208 
L 130.730947 111.069128 
L 132.404424 102.29939 
L 139.098332 90.081483 
L 140.771809 90.618067 
L 142.445286 90.138623 
L 144.118763 91.121726 
L 145.79224 94.924951 
L 150.812671 85.44325 
L 152.486148 75.761871 
L 154.159625 97.048324 
L 155.833102 93.450109 
L 157.506579 88.417743 
L 162.52701 89.814622 
L 164.200487 84.015775 
L 165.873964 82.857154 
L 167.547441 90.849472 
L 169.220918 90.606197 
L 175.914827 111.253435 
L 179.261781 128.461213 
L 180.935258 148.480447 
L 185.955689 148.525187 
L 187.629166 147.442311 
L 189.302643 149.296544 
L 190.97612 156.841542 
L 192.649597 135.147852 
L 197.670028 120.864464 
L 199.343505 109.552798 
L 201.016982 93.721243 
L 202.690459 140.472272 
L 204.363936 134.339292 
L 209.384367 143.341152 
L 211.057844 139.237671 
L 212.731321 127.441771 
L 214.404799 142.624078 
L 216.078276 162.572891 
L 221.098707 170.478991 
L 222.772184 159.940143 
L 224.445661 162.876141 
L 226.119138 180.948884 
L 227.792615 185.780608 
L 234.486523 193.617923 
L 236.16 205.866687 
L 237.833477 197.479946 
L 239.506954 178.257044 
L 244.527385 185.800364 
L 246.200862 203.44599 
L 247.874339 183.715047 
L 249.547816 186.273615 
L 251.221293 197.770338 
L 256.241724 228.95583 
L 257.915201 232.063604 
L 259.588679 201.70035 
L 262.935633 222.918587 
L 267.956064 223.999083 
L 269.629541 209.747966 
L 271.303018 188.34053 
L 272.976495 179.311739 
L 274.649972 168.464594 
L 279.670403 169.7494 
L 281.34388 155.555638 
L 283.017357 164.111271 
L 284.690834 150.526102 
L 286.364311 140.98078 
L 291.384742 139.348836 
L 293.058219 133.327355 
L 294.731696 134.79271 
L 296.405173 152.815718 
L 298.07865 148.277106 
L 303.099082 140.301165 
L 304.772559 149.157948 
L 306.446036 161.399212 
L 308.119513 161.967653 
L 309.79299 162.017216 
L 316.486898 181.14297 
L 318.160375 177.680035 
L 319.833852 191.017529 
L 326.52776 185.997858 
L 328.201237 172.207372 
L 329.874714 172.398634 
L 331.548191 187.722709 
L 333.221668 211.886407 
L 338.242099 208.514809 
L 339.915576 223.459896 
L 341.589053 228.635771 
L 343.26253 192.491974 
L 344.936007 218.628986 
L 349.956439 210.410416 
L 351.629916 203.35877 
L 353.303393 167.685256 
L 354.97687 199.854473 
L 356.650347 199.932466 
L 361.670778 224.160023 
L 363.344255 230.123759 
L 365.017732 240.330212 
L 366.691209 244.324356 
L 368.364686 230.198085 
L 373.385117 232.118218 
L 375.058594 216.558028 
L 376.732071 248.665433 
L 378.405548 258.474456 
L 380.079025 265.174067 
L 385.099456 244.147323 
L 386.772933 259.085897 
L 388.44641 256.363043 
L 391.793365 219.358302 
L 398.487273 221.611176 
L 398.487273 221.611176 
" style="fill:none;stroke:#008000;stroke-linecap:square;stroke-opacity:0.9;stroke-width:2;"/>
   </g>
   <g id="line2d_16">
    <path clip-path="url(#pdd1f69cd27)" d="M 73.832727 123.42153 
L 75.506204 126.023631 
L 80.526635 122.335938 
L 82.200112 114.185718 
L 83.87359 113.302724 
L 87.220544 136.290377 
L 92.240975 126.045186 
L 93.914452 145.808829 
L 95.587929 157.120343 
L 97.261406 144.149109 
L 98.934883 151.58851 
L 103.955314 137.770763 
L 105.628791 121.605846 
L 107.302268 116.092704 
L 108.975745 117.135812 
L 110.649222 111.214287 
L 115.669653 120.136618 
L 117.34313 119.70033 
L 119.016607 112.571636 
L 120.690084 111.157927 
L 122.363561 122.977806 
L 127.383993 133.146203 
L 129.05747 115.977629 
L 130.730947 110.832259 
L 132.404424 102.501833 
L 139.098332 90.983595 
L 140.771809 90.715644 
L 142.445286 90.788285 
L 144.118763 91.469126 
L 145.79224 95.764578 
L 150.812671 85.361192 
L 152.486148 75.881487 
L 154.159625 97.004193 
L 157.506579 89.052673 
L 162.52701 89.54592 
L 164.200487 83.626133 
L 165.873964 83.92781 
L 167.547441 90.943843 
L 169.220918 91.006547 
L 175.914827 111.964268 
L 179.261781 128.995344 
L 180.935258 148.977794 
L 185.955689 149.173652 
L 187.629166 147.944508 
L 189.302643 149.681157 
L 190.97612 157.082893 
L 192.649597 135.188188 
L 197.670028 120.435588 
L 199.343505 109.999833 
L 201.016982 94.948268 
L 202.690459 141.537275 
L 204.363936 135.842321 
L 209.384367 143.878513 
L 211.057844 139.599872 
L 212.731321 129.146946 
L 214.404799 143.959945 
L 216.078276 163.660352 
L 221.098707 171.645076 
L 222.772184 161.095886 
L 224.445661 164.139524 
L 226.119138 182.11032 
L 227.792615 186.780892 
L 234.486523 194.48359 
L 236.16 207.135569 
L 237.833477 198.997312 
L 239.506954 179.469092 
L 244.527385 187.390282 
L 246.200862 204.146088 
L 247.874339 184.728226 
L 249.547816 187.30306 
L 251.221293 198.471052 
L 256.241724 229.901579 
L 257.915201 233.094613 
L 259.588679 202.769001 
L 262.935633 224.057379 
L 267.956064 225.195622 
L 269.629541 210.542428 
L 271.303018 188.814199 
L 272.976495 180.051339 
L 274.649972 169.996806 
L 279.670403 171.421744 
L 281.34388 155.778525 
L 283.017357 165.44996 
L 284.690834 151.87112 
L 286.364311 141.444217 
L 291.384742 140.180313 
L 293.058219 134.429869 
L 294.731696 135.717567 
L 296.405173 153.718568 
L 298.07865 149.09251 
L 303.099082 140.93173 
L 304.772559 150.38399 
L 306.446036 162.605405 
L 309.79299 163.302921 
L 314.813421 176.463092 
L 316.486898 181.356354 
L 318.160375 178.459098 
L 319.833852 192.529885 
L 326.52776 186.602874 
L 328.201237 173.664283 
L 329.874714 173.771606 
L 331.548191 188.135491 
L 333.221668 212.9719 
L 338.242099 208.930886 
L 339.915576 223.596073 
L 341.589053 228.84973 
L 343.26253 192.584792 
L 344.936007 218.537723 
L 349.956439 210.793953 
L 351.629916 203.741939 
L 353.303393 167.585369 
L 354.97687 199.793295 
L 356.650347 199.411307 
L 361.670778 224.198925 
L 363.344255 229.995342 
L 365.017732 240.792058 
L 366.691209 244.90967 
L 368.364686 230.218452 
L 373.385117 232.756083 
L 375.058594 216.49541 
L 376.732071 248.923285 
L 378.405548 258.561233 
L 380.079025 265.173063 
L 385.099456 243.849282 
L 386.772933 258.527022 
L 388.44641 256.985675 
L 390.119888 238.896938 
L 391.793365 219.320774 
L 398.487273 222.094564 
L 398.487273 222.094564 
" style="fill:none;stroke:#ec5283;stroke-linecap:square;stroke-width:2;"/>
   </g>
   <g id="line2d_17">
    <path clip-path="url(#pdd1f69cd27)" d="M 73.832727 123.42153 
L 75.506204 125.732452 
L 80.526635 122.094786 
L 82.200112 113.941701 
L 83.87359 113.163369 
L 87.220544 136.683087 
L 92.240975 125.613627 
L 93.914452 145.763136 
L 95.587929 155.938296 
L 97.261406 144.622323 
L 98.934883 151.11621 
L 103.955314 136.616762 
L 105.628791 121.481618 
L 107.302268 116.209169 
L 108.975745 116.254804 
L 110.649222 111.634737 
L 115.669653 120.347006 
L 117.34313 119.225568 
L 119.016607 112.475768 
L 120.690084 110.978729 
L 122.363561 123.027829 
L 127.383993 133.564176 
L 129.05747 115.5852 
L 130.730947 110.351387 
L 132.404424 102.791086 
L 139.098332 90.358183 
L 140.771809 91.066161 
L 142.445286 90.038812 
L 144.118763 91.718786 
L 145.79224 94.911765 
L 150.812671 85.1634 
L 152.486148 76.249787 
L 154.159625 97.748886 
L 155.833102 93.305856 
L 157.506579 88.279653 
L 162.52701 89.750606 
L 164.200487 83.565469 
L 165.873964 83.578908 
L 167.547441 90.720345 
L 169.220918 90.423429 
L 175.914827 111.588988 
L 177.588304 119.603273 
L 179.261781 129.242101 
L 180.935258 147.860776 
L 185.955689 148.339546 
L 187.629166 147.310763 
L 189.302643 148.802443 
L 190.97612 156.523354 
L 192.649597 134.967167 
L 197.670028 120.462222 
L 199.343505 109.352871 
L 201.016982 93.88585 
L 202.690459 140.453173 
L 204.363936 134.846954 
L 209.384367 142.606039 
L 211.057844 138.315733 
L 212.731321 127.509734 
L 214.404799 143.220875 
L 216.078276 162.636776 
L 221.098707 170.364133 
L 222.772184 159.578559 
L 224.445661 162.341121 
L 226.119138 181.4641 
L 227.792615 185.854812 
L 234.486523 193.600902 
L 236.16 205.45118 
L 237.833477 197.39361 
L 239.506954 178.076949 
L 244.527385 185.925094 
L 246.200862 202.651354 
L 247.874339 183.046649 
L 249.547816 186.44426 
L 251.221293 197.618905 
L 256.241724 229.297755 
L 257.915201 232.064972 
L 259.588679 200.859509 
L 262.935633 222.82642 
L 267.956064 224.194055 
L 269.629541 208.836719 
L 271.303018 187.865732 
L 272.976495 179.327586 
L 274.649972 168.649223 
L 279.670403 170.116139 
L 281.34388 154.705333 
L 283.017357 164.602925 
L 284.690834 150.669499 
L 286.364311 140.88145 
L 291.384742 139.409878 
L 293.058219 133.817638 
L 294.731696 135.076657 
L 296.405173 152.951514 
L 298.07865 147.85189 
L 303.099082 140.566381 
L 304.772559 148.923729 
L 306.446036 161.301558 
L 308.119513 162.423104 
L 309.79299 161.999967 
L 316.486898 180.420761 
L 318.160375 177.859016 
L 319.833852 191.020557 
L 326.52776 186.011691 
L 328.201237 172.310884 
L 329.874714 172.302215 
L 331.548191 187.246277 
L 333.221668 212.328881 
L 338.242099 208.399552 
L 339.915576 223.44444 
L 341.589053 227.950421 
L 343.26253 192.756639 
L 344.936007 218.153804 
L 349.956439 209.658617 
L 351.629916 203.738773 
L 353.303393 166.958004 
L 354.97687 199.946967 
L 356.650347 199.320192 
L 361.670778 223.459284 
L 363.344255 229.709147 
L 365.017732 240.597558 
L 366.691209 244.642131 
L 368.364686 229.940763 
L 373.385117 232.696135 
L 375.058594 216.282003 
L 376.732071 248.490261 
L 378.405548 258.159366 
L 380.079025 264.869467 
L 385.099456 243.620208 
L 386.772933 258.590218 
L 388.44641 256.940897 
L 391.793365 219.321211 
L 398.487273 221.021687 
L 398.487273 221.021687 
" style="fill:none;stroke:#00ff00;stroke-linecap:square;stroke-opacity:0.9;stroke-width:2;"/>
   </g>
   <g id="line2d_18">
    <path clip-path="url(#pdd1f69cd27)" d="M 73.832727 123.42153 
L 75.506204 125.327493 
L 80.526635 119.547346 
L 82.200112 113.038416 
L 83.87359 113.01411 
L 87.220544 132.411863 
L 92.240975 121.544322 
L 93.914452 139.092785 
L 95.587929 151.937856 
L 97.261406 140.211973 
L 98.934883 145.779522 
L 103.955314 128.552529 
L 105.628791 112.797765 
L 107.302268 106.101722 
L 108.975745 105.24786 
L 110.649222 102.507961 
L 115.669653 111.455659 
L 117.34313 107.12178 
L 119.016607 100.741103 
L 120.690084 94.86653 
L 122.363561 105.405086 
L 127.383993 118.572853 
L 129.05747 96.653573 
L 130.730947 92.104142 
L 132.404424 84.066301 
L 139.098332 71.522457 
L 142.445286 71.888894 
L 144.118763 73.566416 
L 145.79224 77.72807 
L 150.812671 63.732289 
L 152.486148 52.154182 
L 154.159625 78.910703 
L 155.833102 71.010055 
L 157.506579 68.076334 
L 162.52701 69.146389 
L 164.200487 59.94292 
L 165.873964 57.737717 
L 167.547441 69.704916 
L 169.220918 66.806974 
L 177.588304 92.745631 
L 179.261781 103.156383 
L 180.935258 125.360392 
L 185.955689 124.710085 
L 187.629166 135.132766 
L 189.302643 135.262816 
L 190.97612 140.948645 
L 192.649597 117.521472 
L 197.670028 98.000374 
L 199.343505 88.987431 
L 201.016982 75.712388 
L 202.690459 132.24461 
L 204.363936 130.874431 
L 209.384367 146.046296 
L 211.057844 147.852212 
L 212.731321 128.398478 
L 214.404799 143.804577 
L 216.078276 164.197202 
L 221.098707 170.081583 
L 222.772184 159.489253 
L 224.445661 164.089358 
L 226.119138 180.772067 
L 227.792615 185.805708 
L 234.486523 194.828465 
L 236.16 206.962866 
L 237.833477 187.459392 
L 239.506954 171.473865 
L 244.527385 175.774764 
L 246.200862 191.567098 
L 247.874339 171.942198 
L 249.547816 177.153813 
L 251.221293 193.765538 
L 256.241724 231.969925 
L 257.915201 227.812087 
L 259.588679 190.920529 
L 262.935633 217.138526 
L 267.956064 218.416185 
L 269.629541 202.040175 
L 271.303018 173.576033 
L 272.976495 163.26344 
L 274.649972 150.187231 
L 279.670403 153.230489 
L 281.34388 134.031465 
L 283.017357 144.709971 
L 284.690834 131.836308 
L 286.364311 121.212521 
L 291.384742 119.561448 
L 293.058219 113.147403 
L 294.731696 117.585581 
L 296.405173 140.929416 
L 298.07865 138.840181 
L 303.099082 130.405552 
L 304.772559 141.802064 
L 306.446036 155.062477 
L 308.119513 158.922774 
L 309.79299 159.19989 
L 316.486898 178.140369 
L 318.160375 173.45149 
L 319.833852 190.230697 
L 326.52776 181.151649 
L 328.201237 164.680351 
L 329.874714 170.181373 
L 331.548191 193.182998 
L 333.221668 221.109734 
L 338.242099 215.119979 
L 339.915576 235.263042 
L 341.589053 245.279111 
L 343.26253 197.626486 
L 344.936007 224.06648 
L 349.956439 209.306133 
L 351.629916 199.439329 
L 353.303393 161.492944 
L 354.97687 198.694574 
L 356.650347 202.15181 
L 361.670778 226.575213 
L 363.344255 226.154728 
L 365.017732 241.051487 
L 366.691209 247.099541 
L 368.364686 230.574323 
L 373.385117 235.138783 
L 375.058594 216.996906 
L 376.732071 248.99212 
L 378.405548 259.300756 
L 380.079025 265.797818 
L 385.099456 240.117721 
L 386.772933 263.700124 
L 388.44641 260.811248 
L 390.119888 240.795747 
L 391.793365 219.03907 
L 398.487273 218.781972 
L 398.487273 218.781972 
" style="fill:none;stroke:#a5b9cf;stroke-linecap:square;stroke-width:2;"/>
   </g>
   <g id="patch_3">
    <path d="M 57.6 276.48 
L 57.6 41.472 
" style="fill:none;stroke:#000000;stroke-linecap:square;stroke-linejoin:miter;stroke-width:0.8;"/>
   </g>
   <g id="patch_4">
    <path d="M 414.72 276.48 
L 414.72 41.472 
" style="fill:none;stroke:#000000;stroke-linecap:square;stroke-linejoin:miter;stroke-width:0.8;"/>
   </g>
   <g id="patch_5">
    <path d="M 57.6 276.48 
L 414.72 276.48 
" style="fill:none;stroke:#000000;stroke-linecap:square;stroke-linejoin:miter;stroke-width:0.8;"/>
   </g>
   <g id="patch_6">
    <path d="M 57.6 41.472 
L 414.72 41.472 
" style="fill:none;stroke:#000000;stroke-linecap:square;stroke-linejoin:miter;stroke-width:0.8;"/>
   </g>
   <g id="text_14">
    <!-- TESTFUNDS -->
    <g transform="translate(200.470313 22.034625)scale(0.12 -0.12)">
     <defs>
      <path d="M -19 4666 
L 3928 4666 
L 3928 4134 
L 2272 4134 
L 2272 0 
L 1638 0 
L 1638 4134 
L -19 4134 
L -19 4666 
z
" id="DejaVuSans-54" transform="scale(0.015625)"/>
      <path d="M 628 4666 
L 3578 4666 
L 3578 4134 
L 1259 4134 
L 1259 2753 
L 3481 2753 
L 3481 2222 
L 1259 2222 
L 1259 531 
L 3634 531 
L 3634 0 
L 628 0 
L 628 4666 
z
" id="DejaVuSans-45" transform="scale(0.015625)"/>
      <path d="M 3425 4513 
L 3425 3897 
Q 3066 4069 2747 4153 
Q 2428 4238 2131 4238 
Q 1616 4238 1336 4038 
Q 1056 3838 1056 3469 
Q 1056 3159 1242 3001 
Q 1428 2844 1947 2747 
L 2328 2669 
Q 3034 2534 3370 2195 
Q 3706 1856 3706 1288 
Q 3706 609 3251 259 
Q 2797 -91 1919 -91 
Q 1588 -91 1214 -16 
Q 841 59 441 206 
L 441 856 
Q 825 641 1194 531 
Q 1563 422 1919 422 
Q 2459 422 2753 634 
Q 3047 847 3047 1241 
Q 3047 1584 2836 1778 
Q 2625 1972 2144 2069 
L 1759 2144 
Q 1053 2284 737 2584 
Q 422 2884 422 3419 
Q 422 4038 858 4394 
Q 1294 4750 2059 4750 
Q 2388 4750 2728 4690 
Q 3069 4631 3425 4513 
z
" id="DejaVuSans-53" transform="scale(0.015625)"/>
      <path d="M 628 4666 
L 3309 4666 
L 3309 4134 
L 1259 4134 
L 1259 2759 
L 3109 2759 
L 3109 2228 
L 1259 2228 
L 1259 0 
L 628 0 
L 628 4666 
z
" id="DejaVuSans-46" transform="scale(0.015625)"/>
      <path d="M 556 4666 
L 1191 4666 
L 1191 1831 
Q 1191 1081 1462 751 
Q 1734 422 2344 422 
Q 2950 422 3222 751 
Q 3494 1081 3494 1831 
L 3494 4666 
L 4128 4666 
L 4128 1753 
Q 4128 841 3676 375 
Q 3225 -91 2344 -91 
Q 1459 -91 1007 375 
Q 556 841 556 1753 
L 556 4666 
z
" id="DejaVuSans-55" transform="scale(0.015625)"/>
      <path d="M 628 4666 
L 1478 4666 
L 3547 763 
L 3547 4666 
L 4159 4666 
L 4159 0 
L 3309 0 
L 1241 3903 
L 1241 0 
L 628 0 
L 628 4666 
z
" id="DejaVuSans-4e" transform="scale(0.015625)"/>
      <path d="M 1259 4147 
L 1259 519 
L 2022 519 
Q 2988 519 3436 956 
Q 3884 1394 3884 2338 
Q 3884 3275 3436 3711 
Q 2988 4147 2022 4147 
L 1259 4147 
z
M 628 4666 
L 1925 4666 
Q 3281 4666 3915 4102 
Q 4550 3538 4550 2338 
Q 4550 1131 3912 565 
Q 3275 0 1925 0 
L 628 0 
L 628 4666 
z
" id="DejaVuSans-44" transform="scale(0.015625)"/>
     </defs>
     <use xlink:href="#DejaVuSans-54"/>
     <use x="61.083984" xlink:href="#DejaVuSans-45"/>
     <use x="124.267578" xlink:href="#DejaVuSans-53"/>
     <use x="187.744141" xlink:href="#DejaVuSans-54"/>
     <use x="248.828125" xlink:href="#DejaVuSans-46"/>
     <use x="306.347656" xlink:href="#DejaVuSans-55"/>
     <use x="379.541016" xlink:href="#DejaVuSans-4e"/>
     <use x="454.345703" xlink:href="#DejaVuSans-44"/>
     <use x="531.347656" xlink:href="#DejaVuSans-53"/>
    </g>
    <!-- daily_report -->
    <g transform="translate(200.466563 35.472)scale(0.12 -0.12)">
     <defs>
      <path d="M 603 3500 
L 1178 3500 
L 1178 0 
L 603 0 
L 603 3500 
z
M 603 4863 
L 1178 4863 
L 1178 4134 
L 603 4134 
L 603 4863 
z
" id="DejaVuSans-69" transform="scale(0.015625)"/>
      <path d="M 603 4863 
L 1178 4863 
L 1178 0 
L 603 0 
L 603 4863 
z
" id="DejaVuSans-6c" transform="scale(0.015625)"/>
      <path d="M 2059 -325 
Q 1816 -950 1584 -1140 
Q 1353 -1331 966 -1331 
L 506 -1331 
L 506 -850 
L 844 -850 
Q 1081 -850 1212 -737 
Q 1344 -625 1503 -206 
L 1606 56 
L 191 3500 
L 800 3500 
L 1894 763 
L 2988 3500 
L 3597 3500 
L 2059 -325 
z
" id="DejaVuSans-79" transform="scale(0.015625)"/>
      <path d="M 3263 -1063 
L 3263 -1509 
L -63 -1509 
L -63 -1063 
L 3263 -1063 
z
" id="DejaVuSans-5f" transform="scale(0.015625)"/>
      <path d="M 2631 2963 
Q 2534 3019 2420 3045 
Q 2306 3072 2169 3072 
Q 1681 3072 1420 2755 
Q 1159 2438 1159 1844 
L 1159 0 
L 581 0 
L 581 3500 
L 1159 3500 
L 1159 2956 
Q 1341 3275 1631 3429 
Q 1922 3584 2338 3584 
Q 2397 3584 2469 3576 
Q 2541 3569 2628 3553 
L 2631 2963 
z
" id="DejaVuSans-72" transform="scale(0.015625)"/>
      <path d="M 1159 525 
L 1159 -1331 
L 581 -1331 
L 581 3500 
L 1159 3500 
L 1159 2969 
Q 1341 3281 1617 3432 
Q 1894 3584 2278 3584 
Q 2916 3584 3314 3078 
Q 3713 2572 3713 1747 
Q 3713 922 3314 415 
Q 2916 -91 2278 -91 
Q 1894 -91 1617 61 
Q 1341 213 1159 525 
z
M 3116 1747 
Q 3116 2381 2855 2742 
Q 2594 3103 2138 3103 
Q 1681 3103 1420 2742 
Q 1159 2381 1159 1747 
Q 1159 1113 1420 752 
Q 1681 391 2138 391 
Q 2594 391 2855 752 
Q 3116 1113 3116 1747 
z
" id="DejaVuSans-70" transform="scale(0.015625)"/>
      <path d="M 1959 3097 
Q 1497 3097 1228 2736 
Q 959 2375 959 1747 
Q 959 1119 1226 758 
Q 1494 397 1959 397 
Q 2419 397 2687 759 
Q 2956 1122 2956 1747 
Q 2956 2369 2687 2733 
Q 2419 3097 1959 3097 
z
M 1959 3584 
Q 2709 3584 3137 3096 
Q 3566 2609 3566 1747 
Q 3566 888 3137 398 
Q 2709 -91 1959 -91 
Q 1206 -91 779 398 
Q 353 888 353 1747 
Q 353 2609 779 3096 
Q 1206 3584 1959 3584 
z
" id="DejaVuSans-6f" transform="scale(0.015625)"/>
     </defs>
     <use xlink:href="#DejaVuSans-64"/>
     <use x="63.476562" xlink:href="#DejaVuSans-61"/>
     <use x="124.755859" xlink:href="#DejaVuSans-69"/>
     <use x="152.539062" xlink:href="#DejaVuSans-6c"/>
     <use x="180.322266" xlink:href="#DejaVuSans-79"/>
     <use x="239.501953" xlink:href="#DejaVuSans-5f"/>
     <use x="289.501953" xlink:href="#DejaVuSans-72"/>
     <use x="328.365234" xlink:href="#DejaVuSans-65"/>
     <use x="389.888672" xlink:href="#DejaVuSans-70"/>
     <use x="453.365234" xlink:href="#DejaVuSans-6f"/>
     <use x="514.546875" xlink:href="#DejaVuSans-72"/>
     <use x="555.660156" xlink:href="#DejaVuSans-74"/>
    </g>
   </g>
   <g id="legend_1">
    <g id="patch_7">
     <path d="M 64.6 271.48 
L 178.64375 271.48 
Q 180.64375 271.48 180.64375 269.48 
L 180.64375 182.41125 
Q 180.64375 180.41125 178.64375 180.41125 
L 64.6 180.41125 
Q 62.6 180.41125 62.6 182.41125 
L 62.6 269.48 
Q 62.6 271.48 64.6 271.48 
z
" style="fill:#ffffff;opacity:0.8;stroke:#cccccc;stroke-linejoin:miter;"/>
    </g>
    <g id="line2d_19">
     <path d="M 66.6 188.509687 
L 86.6 188.509687 
" style="fill:none;stroke:#0000ff;stroke-linecap:square;stroke-opacity:0.9;stroke-width:2;"/>
    </g>
    <g id="line2d_20"/>
    <g id="text_15">
     <!-- alpaca -->
     <g transform="translate(94.6 192.009687)scale(0.1 -0.1)">
      <defs>
       <path d="M 3122 3366 
L 3122 2828 
Q 2878 2963 2633 3030 
Q 2388 3097 2138 3097 
Q 1578 3097 1268 2742 
Q 959 2388 959 1747 
Q 959 1106 1268 751 
Q 1578 397 2138 397 
Q 2388 397 2633 464 
Q 2878 531 3122 666 
L 3122 134 
Q 2881 22 2623 -34 
Q 2366 -91 2075 -91 
Q 1284 -91 818 406 
Q 353 903 353 1747 
Q 353 2603 823 3093 
Q 1294 3584 2113 3584 
Q 2378 3584 2631 3529 
Q 2884 3475 3122 3366 
z
" id="DejaVuSans-63" transform="scale(0.015625)"/>
      </defs>
      <use xlink:href="#DejaVuSans-61"/>
      <use x="61.279297" xlink:href="#DejaVuSans-6c"/>
      <use x="89.0625" xlink:href="#DejaVuSans-70"/>
      <use x="152.539062" xlink:href="#DejaVuSans-61"/>
      <use x="213.818359" xlink:href="#DejaVuSans-63"/>
      <use x="268.798828" xlink:href="#DejaVuSans-61"/>
     </g>
    </g>
    <g id="line2d_21">
     <path d="M 66.6 203.187812 
L 86.6 203.187812 
" style="fill:none;stroke:#ff0000;stroke-linecap:square;stroke-opacity:0.9;stroke-width:2;"/>
    </g>
    <g id="line2d_22"/>
    <g id="text_16">
     <!-- mattress -->
     <g transform="translate(94.6 206.687812)scale(0.1 -0.1)">
      <defs>
       <path d="M 3328 2828 
Q 3544 3216 3844 3400 
Q 4144 3584 4550 3584 
Q 5097 3584 5394 3201 
Q 5691 2819 5691 2113 
L 5691 0 
L 5113 0 
L 5113 2094 
Q 5113 2597 4934 2840 
Q 4756 3084 4391 3084 
Q 3944 3084 3684 2787 
Q 3425 2491 3425 1978 
L 3425 0 
L 2847 0 
L 2847 2094 
Q 2847 2600 2669 2842 
Q 2491 3084 2119 3084 
Q 1678 3084 1418 2786 
Q 1159 2488 1159 1978 
L 1159 0 
L 581 0 
L 581 3500 
L 1159 3500 
L 1159 2956 
Q 1356 3278 1631 3431 
Q 1906 3584 2284 3584 
Q 2666 3584 2933 3390 
Q 3200 3197 3328 2828 
z
" id="DejaVuSans-6d" transform="scale(0.015625)"/>
       <path d="M 2834 3397 
L 2834 2853 
Q 2591 2978 2328 3040 
Q 2066 3103 1784 3103 
Q 1356 3103 1142 2972 
Q 928 2841 928 2578 
Q 928 2378 1081 2264 
Q 1234 2150 1697 2047 
L 1894 2003 
Q 2506 1872 2764 1633 
Q 3022 1394 3022 966 
Q 3022 478 2636 193 
Q 2250 -91 1575 -91 
Q 1294 -91 989 -36 
Q 684 19 347 128 
L 347 722 
Q 666 556 975 473 
Q 1284 391 1588 391 
Q 1994 391 2212 530 
Q 2431 669 2431 922 
Q 2431 1156 2273 1281 
Q 2116 1406 1581 1522 
L 1381 1569 
Q 847 1681 609 1914 
Q 372 2147 372 2553 
Q 372 3047 722 3315 
Q 1072 3584 1716 3584 
Q 2034 3584 2315 3537 
Q 2597 3491 2834 3397 
z
" id="DejaVuSans-73" transform="scale(0.015625)"/>
      </defs>
      <use xlink:href="#DejaVuSans-6d"/>
      <use x="97.412109" xlink:href="#DejaVuSans-61"/>
      <use x="158.691406" xlink:href="#DejaVuSans-74"/>
      <use x="197.900391" xlink:href="#DejaVuSans-74"/>
      <use x="237.109375" xlink:href="#DejaVuSans-72"/>
      <use x="275.972656" xlink:href="#DejaVuSans-65"/>
      <use x="337.496094" xlink:href="#DejaVuSans-73"/>
      <use x="389.595703" xlink:href="#DejaVuSans-73"/>
     </g>
    </g>
    <g id="line2d_23">
     <path d="M 66.6 217.865937 
L 86.6 217.865937 
" style="fill:none;stroke:#008000;stroke-linecap:square;stroke-opacity:0.9;stroke-width:2;"/>
    </g>
    <g id="line2d_24"/>
    <g id="text_17">
     <!-- daily-open-rebal -->
     <g transform="translate(94.6 221.365937)scale(0.1 -0.1)">
      <defs>
       <path d="M 3513 2113 
L 3513 0 
L 2938 0 
L 2938 2094 
Q 2938 2591 2744 2837 
Q 2550 3084 2163 3084 
Q 1697 3084 1428 2787 
Q 1159 2491 1159 1978 
L 1159 0 
L 581 0 
L 581 3500 
L 1159 3500 
L 1159 2956 
Q 1366 3272 1645 3428 
Q 1925 3584 2291 3584 
Q 2894 3584 3203 3211 
Q 3513 2838 3513 2113 
z
" id="DejaVuSans-6e" transform="scale(0.015625)"/>
       <path d="M 3116 1747 
Q 3116 2381 2855 2742 
Q 2594 3103 2138 3103 
Q 1681 3103 1420 2742 
Q 1159 2381 1159 1747 
Q 1159 1113 1420 752 
Q 1681 391 2138 391 
Q 2594 391 2855 752 
Q 3116 1113 3116 1747 
z
M 1159 2969 
Q 1341 3281 1617 3432 
Q 1894 3584 2278 3584 
Q 2916 3584 3314 3078 
Q 3713 2572 3713 1747 
Q 3713 922 3314 415 
Q 2916 -91 2278 -91 
Q 1894 -91 1617 61 
Q 1341 213 1159 525 
L 1159 0 
L 581 0 
L 581 4863 
L 1159 4863 
L 1159 2969 
z
" id="DejaVuSans-62" transform="scale(0.015625)"/>
      </defs>
      <use xlink:href="#DejaVuSans-64"/>
      <use x="63.476562" xlink:href="#DejaVuSans-61"/>
      <use x="124.755859" xlink:href="#DejaVuSans-69"/>
      <use x="152.539062" xlink:href="#DejaVuSans-6c"/>
      <use x="180.322266" xlink:href="#DejaVuSans-79"/>
      <use x="237.751953" xlink:href="#DejaVuSans-2d"/>
      <use x="275.710938" xlink:href="#DejaVuSans-6f"/>
      <use x="336.892578" xlink:href="#DejaVuSans-70"/>
      <use x="400.369141" xlink:href="#DejaVuSans-65"/>
      <use x="461.892578" xlink:href="#DejaVuSans-6e"/>
      <use x="525.271484" xlink:href="#DejaVuSans-2d"/>
      <use x="561.355469" xlink:href="#DejaVuSans-72"/>
      <use x="600.21875" xlink:href="#DejaVuSans-65"/>
      <use x="661.742188" xlink:href="#DejaVuSans-62"/>
      <use x="725.21875" xlink:href="#DejaVuSans-61"/>
      <use x="786.498047" xlink:href="#DejaVuSans-6c"/>
     </g>
    </g>
    <g id="line2d_25">
     <path d="M 66.6 232.544062 
L 86.6 232.544062 
" style="fill:none;stroke:#ec5283;stroke-linecap:square;stroke-width:2;"/>
    </g>
    <g id="line2d_26"/>
    <g id="text_18">
     <!-- daily-close-rebal -->
     <g transform="translate(94.6 236.044062)scale(0.1 -0.1)">
      <use xlink:href="#DejaVuSans-64"/>
      <use x="63.476562" xlink:href="#DejaVuSans-61"/>
      <use x="124.755859" xlink:href="#DejaVuSans-69"/>
      <use x="152.539062" xlink:href="#DejaVuSans-6c"/>
      <use x="180.322266" xlink:href="#DejaVuSans-79"/>
      <use x="237.751953" xlink:href="#DejaVuSans-2d"/>
      <use x="273.835938" xlink:href="#DejaVuSans-63"/>
      <use x="328.816406" xlink:href="#DejaVuSans-6c"/>
      <use x="356.599609" xlink:href="#DejaVuSans-6f"/>
      <use x="417.78125" xlink:href="#DejaVuSans-73"/>
      <use x="469.880859" xlink:href="#DejaVuSans-65"/>
      <use x="531.404297" xlink:href="#DejaVuSans-2d"/>
      <use x="567.488281" xlink:href="#DejaVuSans-72"/>
      <use x="606.351562" xlink:href="#DejaVuSans-65"/>
      <use x="667.875" xlink:href="#DejaVuSans-62"/>
      <use x="731.351562" xlink:href="#DejaVuSans-61"/>
      <use x="792.630859" xlink:href="#DejaVuSans-6c"/>
     </g>
    </g>
    <g id="line2d_27">
     <path d="M 66.6 247.222187 
L 86.6 247.222187 
" style="fill:none;stroke:#00ff00;stroke-linecap:square;stroke-opacity:0.9;stroke-width:2;"/>
    </g>
    <g id="line2d_28"/>
    <g id="text_19">
     <!-- trader-baseline -->
     <g transform="translate(94.6 250.722187)scale(0.1 -0.1)">
      <use xlink:href="#DejaVuSans-74"/>
      <use x="39.208984" xlink:href="#DejaVuSans-72"/>
      <use x="80.322266" xlink:href="#DejaVuSans-61"/>
      <use x="141.601562" xlink:href="#DejaVuSans-64"/>
      <use x="205.078125" xlink:href="#DejaVuSans-65"/>
      <use x="266.601562" xlink:href="#DejaVuSans-72"/>
      <use x="301.339844" xlink:href="#DejaVuSans-2d"/>
      <use x="337.423828" xlink:href="#DejaVuSans-62"/>
      <use x="400.900391" xlink:href="#DejaVuSans-61"/>
      <use x="462.179688" xlink:href="#DejaVuSans-73"/>
      <use x="514.279297" xlink:href="#DejaVuSans-65"/>
      <use x="575.802734" xlink:href="#DejaVuSans-6c"/>
      <use x="603.585938" xlink:href="#DejaVuSans-69"/>
      <use x="631.369141" xlink:href="#DejaVuSans-6e"/>
      <use x="694.748047" xlink:href="#DejaVuSans-65"/>
     </g>
    </g>
    <g id="line2d_29">
     <path d="M 66.6 261.900312 
L 86.6 261.900312 
" style="fill:none;stroke:#a5b9cf;stroke-linecap:square;stroke-width:2;"/>
    </g>
    <g id="line2d_30"/>
    <g id="text_20">
     <!-- default-cfg -->
     <g transform="translate(94.6 265.400312)scale(0.1 -0.1)">
      <defs>
       <path d="M 2375 4863 
L 2375 4384 
L 1825 4384 
Q 1516 4384 1395 4259 
Q 1275 4134 1275 3809 
L 1275 3500 
L 2222 3500 
L 2222 3053 
L 1275 3053 
L 1275 0 
L 697 0 
L 697 3053 
L 147 3053 
L 147 3500 
L 697 3500 
L 697 3744 
Q 697 4328 969 4595 
Q 1241 4863 1831 4863 
L 2375 4863 
z
" id="DejaVuSans-66" transform="scale(0.015625)"/>
       <path d="M 544 1381 
L 544 3500 
L 1119 3500 
L 1119 1403 
Q 1119 906 1312 657 
Q 1506 409 1894 409 
Q 2359 409 2629 706 
Q 2900 1003 2900 1516 
L 2900 3500 
L 3475 3500 
L 3475 0 
L 2900 0 
L 2900 538 
Q 2691 219 2414 64 
Q 2138 -91 1772 -91 
Q 1169 -91 856 284 
Q 544 659 544 1381 
z
M 1991 3584 
L 1991 3584 
z
" id="DejaVuSans-75" transform="scale(0.015625)"/>
       <path d="M 2906 1791 
Q 2906 2416 2648 2759 
Q 2391 3103 1925 3103 
Q 1463 3103 1205 2759 
Q 947 2416 947 1791 
Q 947 1169 1205 825 
Q 1463 481 1925 481 
Q 2391 481 2648 825 
Q 2906 1169 2906 1791 
z
M 3481 434 
Q 3481 -459 3084 -895 
Q 2688 -1331 1869 -1331 
Q 1566 -1331 1297 -1286 
Q 1028 -1241 775 -1147 
L 775 -588 
Q 1028 -725 1275 -790 
Q 1522 -856 1778 -856 
Q 2344 -856 2625 -561 
Q 2906 -266 2906 331 
L 2906 616 
Q 2728 306 2450 153 
Q 2172 0 1784 0 
Q 1141 0 747 490 
Q 353 981 353 1791 
Q 353 2603 747 3093 
Q 1141 3584 1784 3584 
Q 2172 3584 2450 3431 
Q 2728 3278 2906 2969 
L 2906 3500 
L 3481 3500 
L 3481 434 
z
" id="DejaVuSans-67" transform="scale(0.015625)"/>
      </defs>
      <use xlink:href="#DejaVuSans-64"/>
      <use x="63.476562" xlink:href="#DejaVuSans-65"/>
      <use x="125" xlink:href="#DejaVuSans-66"/>
      <use x="160.205078" xlink:href="#DejaVuSans-61"/>
      <use x="221.484375" xlink:href="#DejaVuSans-75"/>
      <use x="284.863281" xlink:href="#DejaVuSans-6c"/>
      <use x="312.646484" xlink:href="#DejaVuSans-74"/>
      <use x="351.855469" xlink:href="#DejaVuSans-2d"/>
      <use x="387.939453" xlink:href="#DejaVuSans-63"/>
      <use x="442.919922" xlink:href="#DejaVuSans-66"/>
      <use x="478.125" xlink:href="#DejaVuSans-67"/>
     </g>
    </g>
   </g>
  </g>
 </g>
 <defs>
  <clipPath id="pdd1f69cd27">
   <rect height="235.008" width="357.12" x="57.6" y="41.472"/>
  </clipPath>
 </defs>
</svg>
