<?xml version="1.0" encoding="utf-8" standalone="no"?>
<!DOCTYPE svg PUBLIC "-//W3C//DTD SVG 1.1//EN"
  "http://www.w3.org/Graphics/SVG/1.1/DTD/svg11.dtd">
<svg height="345.6pt" version="1.1" viewBox="0 0 460.8 345.6" width="460.8pt" xmlns="http://www.w3.org/2000/svg" xmlns:xlink="http://www.w3.org/1999/xlink">
 <metadata>
  <rdf:RDF xmlns:cc="http://creativecommons.org/ns#" xmlns:dc="http://purl.org/dc/elements/1.1/" xmlns:rdf="http://www.w3.org/1999/02/22-rdf-syntax-ns#">
   <cc:Work>
    <dc:type rdf:resource="http://purl.org/dc/dcmitype/StillImage"/>
    <dc:date>2022-05-09T10:01:36.468529</dc:date>
    <dc:format>image/svg+xml</dc:format>
    <dc:creator>
     <cc:Agent>
      <dc:title>Matplotlib v3.4.3, https://matplotlib.org/</dc:title>
     </cc:Agent>
    </dc:creator>
   </cc:Work>
  </rdf:RDF>
 </metadata>
 <defs>
  <style type="text/css">*{stroke-linecap:butt;stroke-linejoin:round;}</style>
 </defs>
 <g id="figure_1">
  <g id="patch_1">
   <path d="M 0 345.6 
L 460.8 345.6 
L 460.8 0 
L 0 0 
z
" style="fill:#ffffff;"/>
  </g>
  <g id="axes_1">
   <g id="patch_2">
    <path d="M 57.6 276.48 
L 414.72 276.48 
L 414.72 41.472 
L 57.6 41.472 
z
" style="fill:#ffffff;"/>
   </g>
   <g id="matplotlib.axis_1">
    <g id="xtick_1">
     <g id="line2d_1">
      <defs>
       <path d="M 0 0 
L 0 3.5 
" id="mded2e8dde5" style="stroke:#000000;stroke-width:0.8;"/>
      </defs>
      <g>
       <use style="stroke:#000000;stroke-width:0.8;" x="98.806154" xlink:href="#mded2e8dde5" y="276.48"/>
      </g>
     </g>
     <g id="text_1">
      <!-- 2021-12 -->
      <g transform="translate(61.581333 310.951846)rotate(-30)scale(0.1 -0.1)">
       <defs>
        <path d="M 1228 531 
L 3431 531 
L 3431 0 
L 469 0 
L 469 531 
Q 828 903 1448 1529 
Q 2069 2156 2228 2338 
Q 2531 2678 2651 2914 
Q 2772 3150 2772 3378 
Q 2772 3750 2511 3984 
Q 2250 4219 1831 4219 
Q 1534 4219 1204 4116 
Q 875 4013 500 3803 
L 500 4441 
Q 881 4594 1212 4672 
Q 1544 4750 1819 4750 
Q 2544 4750 2975 4387 
Q 3406 4025 3406 3419 
Q 3406 3131 3298 2873 
Q 3191 2616 2906 2266 
Q 2828 2175 2409 1742 
Q 1991 1309 1228 531 
z
" id="DejaVuSans-32" transform="scale(0.015625)"/>
        <path d="M 2034 4250 
Q 1547 4250 1301 3770 
Q 1056 3291 1056 2328 
Q 1056 1369 1301 889 
Q 1547 409 2034 409 
Q 2525 409 2770 889 
Q 3016 1369 3016 2328 
Q 3016 3291 2770 3770 
Q 2525 4250 2034 4250 
z
M 2034 4750 
Q 2819 4750 3233 4129 
Q 3647 3509 3647 2328 
Q 3647 1150 3233 529 
Q 2819 -91 2034 -91 
Q 1250 -91 836 529 
Q 422 1150 422 2328 
Q 422 3509 836 4129 
Q 1250 4750 2034 4750 
z
" id="DejaVuSans-30" transform="scale(0.015625)"/>
        <path d="M 794 531 
L 1825 531 
L 1825 4091 
L 703 3866 
L 703 4441 
L 1819 4666 
L 2450 4666 
L 2450 531 
L 3481 531 
L 3481 0 
L 794 0 
L 794 531 
z
" id="DejaVuSans-31" transform="scale(0.015625)"/>
        <path d="M 313 2009 
L 1997 2009 
L 1997 1497 
L 313 1497 
L 313 2009 
z
" id="DejaVuSans-2d" transform="scale(0.015625)"/>
       </defs>
       <use xlink:href="#DejaVuSans-32"/>
       <use x="63.623047" xlink:href="#DejaVuSans-30"/>
       <use x="127.246094" xlink:href="#DejaVuSans-32"/>
       <use x="190.869141" xlink:href="#DejaVuSans-31"/>
       <use x="254.492188" xlink:href="#DejaVuSans-2d"/>
       <use x="290.576172" xlink:href="#DejaVuSans-31"/>
       <use x="354.199219" xlink:href="#DejaVuSans-32"/>
      </g>
     </g>
    </g>
    <g id="xtick_2">
     <g id="line2d_2">
      <g>
       <use style="stroke:#000000;stroke-width:0.8;" x="158.358171" xlink:href="#mded2e8dde5" y="276.48"/>
      </g>
     </g>
     <g id="text_2">
      <!-- 2022-01 -->
      <g transform="translate(121.13335 310.951846)rotate(-30)scale(0.1 -0.1)">
       <use xlink:href="#DejaVuSans-32"/>
       <use x="63.623047" xlink:href="#DejaVuSans-30"/>
       <use x="127.246094" xlink:href="#DejaVuSans-32"/>
       <use x="190.869141" xlink:href="#DejaVuSans-32"/>
       <use x="254.492188" xlink:href="#DejaVuSans-2d"/>
       <use x="290.576172" xlink:href="#DejaVuSans-30"/>
       <use x="354.199219" xlink:href="#DejaVuSans-31"/>
      </g>
     </g>
    </g>
    <g id="xtick_3">
     <g id="line2d_3">
      <g>
       <use style="stroke:#000000;stroke-width:0.8;" x="217.910188" xlink:href="#mded2e8dde5" y="276.48"/>
      </g>
     </g>
     <g id="text_3">
      <!-- 2022-02 -->
      <g transform="translate(180.685367 310.951846)rotate(-30)scale(0.1 -0.1)">
       <use xlink:href="#DejaVuSans-32"/>
       <use x="63.623047" xlink:href="#DejaVuSans-30"/>
       <use x="127.246094" xlink:href="#DejaVuSans-32"/>
       <use x="190.869141" xlink:href="#DejaVuSans-32"/>
       <use x="254.492188" xlink:href="#DejaVuSans-2d"/>
       <use x="290.576172" xlink:href="#DejaVuSans-30"/>
       <use x="354.199219" xlink:href="#DejaVuSans-32"/>
      </g>
     </g>
    </g>
    <g id="xtick_4">
     <g id="line2d_4">
      <g>
       <use style="stroke:#000000;stroke-width:0.8;" x="271.699107" xlink:href="#mded2e8dde5" y="276.48"/>
      </g>
     </g>
     <g id="text_4">
      <!-- 2022-03 -->
      <g transform="translate(234.474286 310.951846)rotate(-30)scale(0.1 -0.1)">
       <defs>
        <path d="M 2597 2516 
Q 3050 2419 3304 2112 
Q 3559 1806 3559 1356 
Q 3559 666 3084 287 
Q 2609 -91 1734 -91 
Q 1441 -91 1130 -33 
Q 819 25 488 141 
L 488 750 
Q 750 597 1062 519 
Q 1375 441 1716 441 
Q 2309 441 2620 675 
Q 2931 909 2931 1356 
Q 2931 1769 2642 2001 
Q 2353 2234 1838 2234 
L 1294 2234 
L 1294 2753 
L 1863 2753 
Q 2328 2753 2575 2939 
Q 2822 3125 2822 3475 
Q 2822 3834 2567 4026 
Q 2313 4219 1838 4219 
Q 1578 4219 1281 4162 
Q 984 4106 628 3988 
L 628 4550 
Q 988 4650 1302 4700 
Q 1616 4750 1894 4750 
Q 2613 4750 3031 4423 
Q 3450 4097 3450 3541 
Q 3450 3153 3228 2886 
Q 3006 2619 2597 2516 
z
" id="DejaVuSans-33" transform="scale(0.015625)"/>
       </defs>
       <use xlink:href="#DejaVuSans-32"/>
       <use x="63.623047" xlink:href="#DejaVuSans-30"/>
       <use x="127.246094" xlink:href="#DejaVuSans-32"/>
       <use x="190.869141" xlink:href="#DejaVuSans-32"/>
       <use x="254.492188" xlink:href="#DejaVuSans-2d"/>
       <use x="290.576172" xlink:href="#DejaVuSans-30"/>
       <use x="354.199219" xlink:href="#DejaVuSans-33"/>
      </g>
     </g>
    </g>
    <g id="xtick_5">
     <g id="line2d_5">
      <g>
       <use style="stroke:#000000;stroke-width:0.8;" x="331.251124" xlink:href="#mded2e8dde5" y="276.48"/>
      </g>
     </g>
     <g id="text_5">
      <!-- 2022-04 -->
      <g transform="translate(294.026303 310.951846)rotate(-30)scale(0.1 -0.1)">
       <defs>
        <path d="M 2419 4116 
L 825 1625 
L 2419 1625 
L 2419 4116 
z
M 2253 4666 
L 3047 4666 
L 3047 1625 
L 3713 1625 
L 3713 1100 
L 3047 1100 
L 3047 0 
L 2419 0 
L 2419 1100 
L 313 1100 
L 313 1709 
L 2253 4666 
z
" id="DejaVuSans-34" transform="scale(0.015625)"/>
       </defs>
       <use xlink:href="#DejaVuSans-32"/>
       <use x="63.623047" xlink:href="#DejaVuSans-30"/>
       <use x="127.246094" xlink:href="#DejaVuSans-32"/>
       <use x="190.869141" xlink:href="#DejaVuSans-32"/>
       <use x="254.492188" xlink:href="#DejaVuSans-2d"/>
       <use x="290.576172" xlink:href="#DejaVuSans-30"/>
       <use x="354.199219" xlink:href="#DejaVuSans-34"/>
      </g>
     </g>
    </g>
    <g id="xtick_6">
     <g id="line2d_6">
      <g>
       <use style="stroke:#000000;stroke-width:0.8;" x="388.882109" xlink:href="#mded2e8dde5" y="276.48"/>
      </g>
     </g>
     <g id="text_6">
      <!-- 2022-05 -->
      <g transform="translate(351.657288 310.951846)rotate(-30)scale(0.1 -0.1)">
       <defs>
        <path d="M 691 4666 
L 3169 4666 
L 3169 4134 
L 1269 4134 
L 1269 2991 
Q 1406 3038 1543 3061 
Q 1681 3084 1819 3084 
Q 2600 3084 3056 2656 
Q 3513 2228 3513 1497 
Q 3513 744 3044 326 
Q 2575 -91 1722 -91 
Q 1428 -91 1123 -41 
Q 819 9 494 109 
L 494 744 
Q 775 591 1075 516 
Q 1375 441 1709 441 
Q 2250 441 2565 725 
Q 2881 1009 2881 1497 
Q 2881 1984 2565 2268 
Q 2250 2553 1709 2553 
Q 1456 2553 1204 2497 
Q 953 2441 691 2322 
L 691 4666 
z
" id="DejaVuSans-35" transform="scale(0.015625)"/>
       </defs>
       <use xlink:href="#DejaVuSans-32"/>
       <use x="63.623047" xlink:href="#DejaVuSans-30"/>
       <use x="127.246094" xlink:href="#DejaVuSans-32"/>
       <use x="190.869141" xlink:href="#DejaVuSans-32"/>
       <use x="254.492188" xlink:href="#DejaVuSans-2d"/>
       <use x="290.576172" xlink:href="#DejaVuSans-30"/>
       <use x="354.199219" xlink:href="#DejaVuSans-35"/>
      </g>
     </g>
    </g>
    <g id="text_7">
     <!-- date -->
     <g transform="translate(224.885 324.351346)scale(0.1 -0.1)">
      <defs>
       <path d="M 2906 2969 
L 2906 4863 
L 3481 4863 
L 3481 0 
L 2906 0 
L 2906 525 
Q 2725 213 2448 61 
Q 2172 -91 1784 -91 
Q 1150 -91 751 415 
Q 353 922 353 1747 
Q 353 2572 751 3078 
Q 1150 3584 1784 3584 
Q 2172 3584 2448 3432 
Q 2725 3281 2906 2969 
z
M 947 1747 
Q 947 1113 1208 752 
Q 1469 391 1925 391 
Q 2381 391 2643 752 
Q 2906 1113 2906 1747 
Q 2906 2381 2643 2742 
Q 2381 3103 1925 3103 
Q 1469 3103 1208 2742 
Q 947 2381 947 1747 
z
" id="DejaVuSans-64" transform="scale(0.015625)"/>
       <path d="M 2194 1759 
Q 1497 1759 1228 1600 
Q 959 1441 959 1056 
Q 959 750 1161 570 
Q 1363 391 1709 391 
Q 2188 391 2477 730 
Q 2766 1069 2766 1631 
L 2766 1759 
L 2194 1759 
z
M 3341 1997 
L 3341 0 
L 2766 0 
L 2766 531 
Q 2569 213 2275 61 
Q 1981 -91 1556 -91 
Q 1019 -91 701 211 
Q 384 513 384 1019 
Q 384 1609 779 1909 
Q 1175 2209 1959 2209 
L 2766 2209 
L 2766 2266 
Q 2766 2663 2505 2880 
Q 2244 3097 1772 3097 
Q 1472 3097 1187 3025 
Q 903 2953 641 2809 
L 641 3341 
Q 956 3463 1253 3523 
Q 1550 3584 1831 3584 
Q 2591 3584 2966 3190 
Q 3341 2797 3341 1997 
z
" id="DejaVuSans-61" transform="scale(0.015625)"/>
       <path d="M 1172 4494 
L 1172 3500 
L 2356 3500 
L 2356 3053 
L 1172 3053 
L 1172 1153 
Q 1172 725 1289 603 
Q 1406 481 1766 481 
L 2356 481 
L 2356 0 
L 1766 0 
Q 1100 0 847 248 
Q 594 497 594 1153 
L 594 3053 
L 172 3053 
L 172 3500 
L 594 3500 
L 594 4494 
L 1172 4494 
z
" id="DejaVuSans-74" transform="scale(0.015625)"/>
       <path d="M 3597 1894 
L 3597 1613 
L 953 1613 
Q 991 1019 1311 708 
Q 1631 397 2203 397 
Q 2534 397 2845 478 
Q 3156 559 3463 722 
L 3463 178 
Q 3153 47 2828 -22 
Q 2503 -91 2169 -91 
Q 1331 -91 842 396 
Q 353 884 353 1716 
Q 353 2575 817 3079 
Q 1281 3584 2069 3584 
Q 2775 3584 3186 3129 
Q 3597 2675 3597 1894 
z
M 3022 2063 
Q 3016 2534 2758 2815 
Q 2500 3097 2075 3097 
Q 1594 3097 1305 2825 
Q 1016 2553 972 2059 
L 3022 2063 
z
" id="DejaVuSans-65" transform="scale(0.015625)"/>
      </defs>
      <use xlink:href="#DejaVuSans-64"/>
      <use x="63.476562" xlink:href="#DejaVuSans-61"/>
      <use x="124.755859" xlink:href="#DejaVuSans-74"/>
      <use x="163.964844" xlink:href="#DejaVuSans-65"/>
     </g>
    </g>
   </g>
   <g id="matplotlib.axis_2">
    <g id="ytick_1">
     <g id="line2d_7">
      <defs>
       <path d="M 0 0 
L -3.5 0 
" id="m821c4c7c86" style="stroke:#000000;stroke-width:0.8;"/>
      </defs>
      <g>
       <use style="stroke:#000000;stroke-width:0.8;" x="57.6" xlink:href="#m821c4c7c86" y="229.839726"/>
      </g>
     </g>
     <g id="text_8">
      <!-- 90000 -->
      <g transform="translate(18.7875 233.638945)scale(0.1 -0.1)">
       <defs>
        <path d="M 703 97 
L 703 672 
Q 941 559 1184 500 
Q 1428 441 1663 441 
Q 2288 441 2617 861 
Q 2947 1281 2994 2138 
Q 2813 1869 2534 1725 
Q 2256 1581 1919 1581 
Q 1219 1581 811 2004 
Q 403 2428 403 3163 
Q 403 3881 828 4315 
Q 1253 4750 1959 4750 
Q 2769 4750 3195 4129 
Q 3622 3509 3622 2328 
Q 3622 1225 3098 567 
Q 2575 -91 1691 -91 
Q 1453 -91 1209 -44 
Q 966 3 703 97 
z
M 1959 2075 
Q 2384 2075 2632 2365 
Q 2881 2656 2881 3163 
Q 2881 3666 2632 3958 
Q 2384 4250 1959 4250 
Q 1534 4250 1286 3958 
Q 1038 3666 1038 3163 
Q 1038 2656 1286 2365 
Q 1534 2075 1959 2075 
z
" id="DejaVuSans-39" transform="scale(0.015625)"/>
       </defs>
       <use xlink:href="#DejaVuSans-39"/>
       <use x="63.623047" xlink:href="#DejaVuSans-30"/>
       <use x="127.246094" xlink:href="#DejaVuSans-30"/>
       <use x="190.869141" xlink:href="#DejaVuSans-30"/>
       <use x="254.492188" xlink:href="#DejaVuSans-30"/>
      </g>
     </g>
    </g>
    <g id="ytick_2">
     <g id="line2d_8">
      <g>
       <use style="stroke:#000000;stroke-width:0.8;" x="57.6" xlink:href="#m821c4c7c86" y="178.986807"/>
      </g>
     </g>
     <g id="text_9">
      <!-- 95000 -->
      <g transform="translate(18.7875 182.786025)scale(0.1 -0.1)">
       <use xlink:href="#DejaVuSans-39"/>
       <use x="63.623047" xlink:href="#DejaVuSans-35"/>
       <use x="127.246094" xlink:href="#DejaVuSans-30"/>
       <use x="190.869141" xlink:href="#DejaVuSans-30"/>
       <use x="254.492188" xlink:href="#DejaVuSans-30"/>
      </g>
     </g>
    </g>
    <g id="ytick_3">
     <g id="line2d_9">
      <g>
       <use style="stroke:#000000;stroke-width:0.8;" x="57.6" xlink:href="#m821c4c7c86" y="128.133887"/>
      </g>
     </g>
     <g id="text_10">
      <!-- 100000 -->
      <g transform="translate(12.425 131.933105)scale(0.1 -0.1)">
       <use xlink:href="#DejaVuSans-31"/>
       <use x="63.623047" xlink:href="#DejaVuSans-30"/>
       <use x="127.246094" xlink:href="#DejaVuSans-30"/>
       <use x="190.869141" xlink:href="#DejaVuSans-30"/>
       <use x="254.492188" xlink:href="#DejaVuSans-30"/>
       <use x="318.115234" xlink:href="#DejaVuSans-30"/>
      </g>
     </g>
    </g>
    <g id="ytick_4">
     <g id="line2d_10">
      <g>
       <use style="stroke:#000000;stroke-width:0.8;" x="57.6" xlink:href="#m821c4c7c86" y="77.280967"/>
      </g>
     </g>
     <g id="text_11">
      <!-- 105000 -->
      <g transform="translate(12.425 81.080186)scale(0.1 -0.1)">
       <use xlink:href="#DejaVuSans-31"/>
       <use x="63.623047" xlink:href="#DejaVuSans-30"/>
       <use x="127.246094" xlink:href="#DejaVuSans-35"/>
       <use x="190.869141" xlink:href="#DejaVuSans-30"/>
       <use x="254.492188" xlink:href="#DejaVuSans-30"/>
       <use x="318.115234" xlink:href="#DejaVuSans-30"/>
      </g>
     </g>
    </g>
   </g>
   <g id="line2d_11">
    <path clip-path="url(#p24113b466e)" d="M 73.832727 131.099825 
L 75.75376 133.913774 
L 81.516859 130.073514 
L 83.437891 120.882109 
L 85.358924 120.504808 
L 89.20099 120.099682 
L 94.964088 134.118451 
L 96.885121 155.654349 
L 98.806154 167.058926 
L 100.727187 154.389029 
L 102.648219 162.615944 
L 108.411318 147.034002 
L 110.332351 129.492482 
L 112.253384 123.365168 
L 114.174416 124.024588 
L 116.095449 116.880766 
L 121.858548 127.572546 
L 123.77958 126.459912 
L 125.700613 118.367707 
L 127.621646 117.837245 
L 129.542679 130.676673 
L 135.305777 142.710864 
L 137.22681 123.014661 
L 139.147843 116.750812 
L 141.068876 108.019453 
L 148.753007 95.141017 
L 150.67404 95.265286 
L 152.595073 94.060055 
L 154.516105 96.201328 
L 156.437138 99.982676 
L 162.200237 88.600012 
L 164.121269 78.615958 
L 166.042302 102.755162 
L 167.963335 97.397548 
L 169.884368 92.284648 
L 175.647466 93.628971 
L 177.568499 86.831089 
L 179.489532 87.116671 
L 181.410565 94.823677 
L 183.331598 95.068129 
L 191.015729 118.345623 
L 192.936762 127.762364 
L 194.857795 137.852343 
L 196.778827 158.258656 
L 202.541926 159.660252 
L 204.462959 157.484756 
L 206.383991 159.644153 
L 208.305024 168.109316 
L 210.226057 144.666028 
L 215.989155 127.802833 
L 217.910188 116.096794 
L 219.831221 98.875759 
L 221.752254 151.155748 
L 223.673287 143.911618 
L 229.436385 153.570523 
L 231.357418 149.533232 
L 233.278451 136.794693 
L 235.199484 154.24671 
L 237.120516 175.36231 
L 242.883615 183.653302 
L 244.804648 172.410894 
L 246.72568 176.00837 
L 248.646713 195.923306 
L 250.567746 201.356433 
L 258.251877 209.427302 
L 260.17291 222.950555 
L 262.093943 214.770996 
L 264.014976 192.610278 
L 269.778074 201.062928 
L 271.699107 220.828256 
L 273.62014 198.574415 
L 275.541173 201.412079 
L 277.462205 214.120571 
L 283.225304 248.702097 
L 285.146337 252.260188 
L 287.06737 218.893123 
L 288.988402 229.820515 
L 290.909435 242.289244 
L 296.672534 243.478805 
L 298.593566 227.301617 
L 300.514599 203.50631 
L 302.435632 194.241317 
L 304.356665 182.981951 
L 310.119763 183.561267 
L 312.040796 168.039433 
L 313.961829 177.90679 
L 315.882862 162.640978 
L 317.803895 151.318409 
L 323.566993 149.460148 
L 325.488026 143.983533 
L 327.409059 145.457563 
L 329.330091 164.531528 
L 331.251124 159.058936 
L 337.014223 151.039974 
L 338.935256 160.357637 
L 340.856288 174.310489 
L 342.777321 174.061551 
L 344.698354 174.328113 
L 350.461452 189.48281 
L 352.382485 195.364486 
L 354.303518 192.321333 
L 356.224551 206.642341 
L 363.908682 201.230697 
L 365.829715 186.56732 
L 367.750748 186.110839 
L 369.671781 202.447236 
L 371.592813 228.990793 
L 377.355912 225.551935 
L 379.276945 241.149798 
L 381.197977 246.663628 
L 383.11901 207.477688 
L 385.040043 235.353206 
L 390.803141 226.967597 
L 392.724174 219.367984 
L 394.645207 180.058745 
L 396.56624 215.792944 
L 398.487273 231.41686 
" style="fill:none;stroke:#0000ff;stroke-linecap:square;stroke-opacity:0.9;stroke-width:2;"/>
   </g>
   <g id="line2d_12">
    <path clip-path="url(#p24113b466e)" d="M 73.832727 131.099825 
L 75.75376 133.962632 
L 81.516859 130.318807 
L 83.437891 120.566229 
L 85.358924 120.24123 
L 89.20099 145.814754 
L 94.964088 134.24901 
L 96.885121 156.134869 
L 98.806154 167.469469 
L 100.727187 154.383744 
L 102.648219 162.006206 
L 108.411318 147.312478 
L 110.332351 129.787029 
L 112.253384 123.585451 
L 114.174416 124.48461 
L 116.095449 117.269317 
L 121.858548 127.430737 
L 123.77958 126.917072 
L 125.700613 119.311057 
L 127.621646 118.94988 
L 129.542679 130.818435 
L 135.305777 142.442088 
L 137.22681 122.786862 
L 139.147843 117.51767 
L 141.068876 108.396022 
L 148.753007 95.1038 
L 150.67404 95.403487 
L 152.595073 95.112511 
L 154.516105 96.324416 
L 156.437138 100.049378 
L 162.200237 88.650322 
L 164.121269 79.150879 
L 166.042302 102.033197 
L 167.963335 97.834192 
L 169.884368 93.512713 
L 175.647466 93.819482 
L 177.568499 88.474404 
L 179.489532 87.558408 
L 181.410565 95.315659 
L 183.331598 95.869716 
L 191.015729 118.698614 
L 192.936762 128.800042 
L 194.857795 137.937787 
L 196.778827 159.01563 
L 202.541926 159.561124 
L 204.462959 156.360522 
L 206.383991 159.45979 
L 208.305024 167.806148 
L 210.226057 144.238842 
L 215.989155 128.114945 
L 217.910188 116.701163 
L 219.831221 99.883207 
L 221.752254 149.266913 
L 223.673287 141.8553 
L 229.436385 148.731842 
L 231.357418 142.549041 
L 233.278451 132.240226 
L 235.199484 149.50466 
L 237.120516 170.965966 
L 242.883615 179.633477 
L 244.804648 168.927921 
L 246.72568 171.029763 
L 248.646713 190.588782 
L 250.567746 194.812022 
L 258.251877 203.752038 
L 260.17291 216.813661 
L 262.093943 210.969166 
L 264.014976 189.159264 
L 269.778074 198.441621 
L 271.699107 217.61092 
L 273.62014 194.709774 
L 275.541173 197.143374 
L 277.462205 209.809839 
L 283.225304 242.147476 
L 285.146337 246.58327 
L 287.06737 214.249796 
L 288.988402 226.414096 
L 290.909435 237.207431 
L 296.672534 238.515455 
L 298.593566 222.111881 
L 300.514599 200.680634 
L 302.435632 191.252227 
L 304.356665 181.431982 
L 310.119763 182.311582 
L 312.040796 166.062691 
L 313.961829 175.302352 
L 315.882862 161.017215 
L 317.803895 150.342524 
L 323.566993 148.818098 
L 325.488026 143.25115 
L 327.409059 144.816532 
L 329.330091 163.528303 
L 331.251124 158.580722 
L 337.014223 152.116341 
L 338.935256 161.840107 
L 340.856288 174.228141 
L 342.777321 174.193181 
L 344.698354 174.53834 
L 350.461452 188.836066 
L 352.382485 193.851894 
L 354.303518 190.208254 
L 356.224551 203.799052 
L 363.908682 198.442851 
L 365.829715 184.538848 
L 367.750748 179.262083 
L 369.671781 191.292551 
L 371.592813 219.212486 
L 377.355912 215.982744 
L 379.276945 232.679756 
L 381.197977 235.177737 
L 383.11901 203.885724 
L 385.040043 232.243899 
L 390.803141 226.482233 
L 392.724174 220.408612 
L 394.645207 180.464107 
L 396.56624 213.864455 
L 398.487273 211.449253 
" style="fill:none;stroke:#ff0000;stroke-linecap:square;stroke-opacity:0.9;stroke-width:2;"/>
   </g>
   <g id="line2d_13">
    <path clip-path="url(#p24113b466e)" d="M 73.832727 131.099825 
L 75.75376 134.499844 
L 81.516859 129.623918 
L 83.437891 120.646986 
L 85.358924 120.544284 
L 89.20099 145.81143 
L 94.964088 134.404311 
L 96.885121 155.68595 
L 98.806154 167.970773 
L 100.727187 154.494797 
L 102.648219 161.850816 
L 108.411318 146.471221 
L 110.332351 128.989912 
L 112.253384 123.339285 
L 114.174416 124.128347 
L 116.095449 117.87192 
L 121.858548 127.236726 
L 123.77958 126.928031 
L 125.700613 118.64664 
L 127.621646 117.151539 
L 129.542679 130.483701 
L 135.305777 141.695096 
L 137.22681 122.637054 
L 139.147843 117.513021 
L 141.068876 107.728337 
L 148.753007 94.941698 
L 150.67404 94.678445 
L 152.595073 94.184149 
L 154.516105 95.215048 
L 156.437138 99.901241 
L 162.200237 88.556686 
L 164.121269 79.048884 
L 166.042302 101.968646 
L 167.963335 98.021236 
L 169.884368 92.91764 
L 175.647466 93.487875 
L 177.568499 86.808366 
L 179.489532 86.900785 
L 181.410565 94.588808 
L 183.331598 94.501607 
L 191.015729 117.739285 
L 192.936762 127.23034 
L 194.857795 137.018871 
L 196.778827 158.839989 
L 202.541926 159.135876 
L 204.462959 158.073227 
L 206.383991 159.604407 
L 208.305024 167.449249 
L 210.226057 144.420576 
L 215.989155 127.910119 
L 217.910188 115.233508 
L 219.831221 98.004117 
L 221.752254 150.449391 
L 223.673287 142.873401 
L 229.436385 153.09029 
L 231.357418 148.220768 
L 233.278451 136.015786 
L 235.199484 152.342667 
L 237.120516 174.050408 
L 242.883615 183.309322 
L 244.804648 171.579983 
L 246.72568 174.542358 
L 248.646713 195.148405 
L 250.567746 200.312076 
L 258.251877 208.433282 
L 260.17291 221.802611 
L 262.093943 213.349662 
L 264.014976 191.452958 
L 269.778074 199.614649 
L 271.699107 219.4571 
L 273.62014 197.194219 
L 275.541173 200.719 
L 277.462205 213.532612 
L 283.225304 248.136106 
L 285.146337 250.435233 
L 287.06737 217.519609 
L 288.988402 229.236036 
L 290.909435 240.659371 
L 296.672534 242.030797 
L 298.593566 225.946802 
L 300.514599 202.650858 
L 302.435632 192.284797 
L 304.356665 181.554112 
L 310.119763 182.880196 
L 312.040796 166.116044 
L 313.961829 176.003239 
L 315.882862 160.645603 
L 317.803895 150.72586 
L 323.566993 149.031968 
L 325.488026 142.486637 
L 327.409059 143.44847 
L 329.330091 163.823639 
L 331.251124 158.436959 
L 337.014223 149.555507 
L 338.935256 159.648107 
L 340.856288 172.915373 
L 342.777321 174.064232 
L 344.698354 173.724239 
L 350.461452 188.626423 
L 352.382485 194.376833 
L 354.303518 191.634318 
L 356.224551 206.132778 
L 363.908682 200.303221 
L 365.829715 184.882595 
L 367.750748 185.799223 
L 369.671781 202.06517 
L 371.592813 229.067125 
L 377.355912 225.594971 
L 379.276945 241.944136 
L 381.197977 247.518835 
L 383.11901 207.712451 
L 385.040043 235.577379 
L 390.803141 226.636522 
L 392.724174 219.887393 
L 394.645207 179.347885 
L 396.56624 215.853807 
L 398.487273 215.512816 
" style="fill:none;stroke:#008000;stroke-linecap:square;stroke-opacity:0.9;stroke-width:2;"/>
   </g>
   <g id="line2d_14">
    <path clip-path="url(#p24113b466e)" d="M 73.832727 131.099825 
L 75.75376 134.30139 
L 81.516859 130.176293 
L 83.437891 120.913981 
L 85.358924 120.578936 
L 89.20099 145.682926 
L 94.964088 134.607068 
L 96.885121 155.703061 
L 98.806154 167.754738 
L 100.727187 154.015713 
L 102.648219 161.961649 
L 108.411318 146.054252 
L 110.332351 129.105982 
L 112.253384 123.312622 
L 114.174416 124.415166 
L 116.095449 118.00401 
L 121.858548 127.566508 
L 123.77958 127.07047 
L 125.700613 118.763873 
L 127.621646 117.307656 
L 129.542679 130.370457 
L 135.305777 141.848252 
L 137.22681 122.284962 
L 139.147843 117.39917 
L 141.068876 108.744299 
L 148.753007 94.325474 
L 150.67404 95.694879 
L 152.595073 94.820525 
L 154.516105 95.569221 
L 156.437138 100.395061 
L 162.200237 88.919878 
L 164.121269 78.843589 
L 166.042302 102.447082 
L 167.963335 97.766657 
L 169.884368 92.461556 
L 175.647466 93.735823 
L 177.568499 87.950844 
L 179.489532 87.246901 
L 181.410565 95.471608 
L 183.331598 95.653417 
L 191.015729 118.297033 
L 192.936762 127.811172 
L 194.857795 137.950961 
L 196.778827 159.037442 
L 202.541926 159.455372 
L 204.462959 158.249041 
L 206.383991 159.821249 
L 208.305024 167.72068 
L 210.226057 144.084669 
L 215.989155 128.135948 
L 217.910188 116.492522 
L 219.831221 99.142376 
L 221.752254 151.273479 
L 223.673287 144.300031 
L 229.436385 153.647292 
L 231.357418 149.587695 
L 233.278451 137.392763 
L 235.199484 153.856351 
L 237.120516 175.091437 
L 242.883615 184.30888 
L 244.804648 172.337741 
L 246.72568 175.661414 
L 248.646713 195.91188 
L 250.567746 201.084057 
L 258.251877 210.458293 
L 260.17291 223.124169 
L 262.093943 214.382238 
L 264.014976 193.015211 
L 269.778074 201.105324 
L 271.699107 220.566016 
L 273.62014 198.576344 
L 275.541173 202.072297 
L 277.462205 214.797779 
L 283.225304 248.638203 
L 285.146337 252.011806 
L 287.06737 218.789723 
L 288.988402 230.370827 
L 290.909435 242.232927 
L 296.672534 243.740664 
L 298.593566 227.492437 
L 300.514599 203.391451 
L 302.435632 193.82056 
L 304.356665 182.604286 
L 310.119763 183.18685 
L 312.040796 166.856277 
L 313.961829 177.509387 
L 315.882862 161.715638 
L 317.803895 151.397023 
L 323.566993 149.701806 
L 325.488026 142.928727 
L 327.409059 144.594217 
L 329.330091 164.076658 
L 331.251124 160.006626 
L 337.014223 150.765464 
L 338.935256 160.792936 
L 340.856288 174.198211 
L 342.777321 175.14074 
L 344.698354 175.12804 
L 350.461452 190.087743 
L 352.382485 195.573743 
L 354.303518 192.669539 
L 356.224551 207.392458 
L 363.908682 201.509194 
L 365.829715 185.782154 
L 367.750748 186.534551 
L 369.671781 201.925398 
L 371.592813 229.983008 
L 377.355912 225.358192 
L 379.276945 242.433449 
L 381.197977 247.35299 
L 383.11901 207.688958 
L 385.040043 236.190201 
L 390.803141 227.282511 
L 392.724174 219.776074 
L 394.645207 180.481715 
L 396.56624 216.089059 
L 398.487273 215.569735 
" style="fill:none;stroke:#ec5283;stroke-linecap:square;stroke-width:2;"/>
   </g>
   <g id="line2d_15">
    <path clip-path="url(#p24113b466e)" d="M 73.832727 131.099825 
L 75.75376 133.696785 
L 81.516859 129.926679 
L 83.437891 120.27939 
L 85.358924 120.271316 
L 89.20099 144.982986 
L 94.964088 133.622059 
L 96.885121 155.868177 
L 98.806154 166.995008 
L 100.727187 153.735726 
L 102.648219 161.539324 
L 108.411318 145.86752 
L 110.332351 128.739914 
L 112.253384 123.272143 
L 114.174416 124.092179 
L 116.095449 117.273875 
L 121.858548 127.246476 
L 123.77958 126.147248 
L 125.700613 118.441133 
L 127.621646 118.014827 
L 129.542679 130.180099 
L 135.305777 141.879831 
L 137.22681 122.970926 
L 139.147843 116.767445 
L 141.068876 108.315481 
L 148.753007 94.967068 
L 150.67404 94.896907 
L 152.595073 94.478344 
L 154.516105 95.951294 
L 156.437138 99.638959 
L 162.200237 88.763056 
L 164.121269 78.887722 
L 166.042302 101.873312 
L 167.963335 98.030796 
L 169.884368 92.677653 
L 175.647466 93.951721 
L 177.568499 86.809661 
L 179.489532 86.788153 
L 181.410565 94.981322 
L 183.331598 94.633189 
L 191.015729 117.998789 
L 192.936762 127.431506 
L 194.857795 137.055829 
L 196.778827 157.849761 
L 202.541926 158.886364 
L 204.462959 157.161472 
L 206.383991 159.490965 
L 208.305024 167.273054 
L 210.226057 143.871692 
L 215.989155 128.036111 
L 217.910188 115.271568 
L 219.831221 98.573038 
L 221.752254 149.552275 
L 223.673287 143.194689 
L 229.436385 152.994038 
L 231.357418 148.161977 
L 233.278451 135.500263 
L 235.199484 153.151074 
L 237.120516 173.707953 
L 242.883615 183.085937 
L 244.804648 171.700486 
L 246.72568 174.791596 
L 248.646713 194.813226 
L 250.567746 200.314391 
L 258.251877 209.035439 
L 260.17291 221.626549 
L 262.093943 212.968372 
L 264.014976 191.926067 
L 269.778074 199.466565 
L 271.699107 219.202692 
L 273.62014 197.345368 
L 275.541173 200.246445 
L 277.462205 213.586693 
L 283.225304 247.894223 
L 285.146337 250.128594 
L 287.06737 217.558343 
L 288.988402 228.857699 
L 290.909435 240.965926 
L 296.672534 242.298093 
L 298.593566 226.355599 
L 300.514599 202.202017 
L 302.435632 192.752124 
L 304.356665 180.655921 
L 310.119763 182.158133 
L 312.040796 166.271451 
L 313.961829 175.953914 
L 315.882862 160.762207 
L 317.803895 150.188563 
L 323.566993 148.042005 
L 325.488026 142.633456 
L 327.409059 143.331441 
L 329.330091 163.034839 
L 331.251124 158.841864 
L 337.014223 150.088919 
L 338.935256 159.674326 
L 340.856288 172.728429 
L 342.777321 173.280732 
L 344.698354 173.702375 
L 350.461452 189.208685 
L 352.382485 194.501124 
L 354.303518 191.045953 
L 356.224551 205.81443 
L 363.908682 200.287633 
L 365.829715 185.291964 
L 367.750748 185.866846 
L 369.671781 201.781723 
L 371.592813 229.243162 
L 377.355912 224.785878 
L 379.276945 241.840677 
L 381.197977 246.48144 
L 383.11901 207.733245 
L 385.040043 236.308161 
L 390.803141 226.377471 
L 392.724174 219.151441 
L 394.645207 179.977516 
L 396.56624 215.783418 
L 398.487273 215.156206 
" style="fill:none;stroke:#00ff00;stroke-linecap:square;stroke-opacity:0.9;stroke-width:2;"/>
   </g>
   <g id="line2d_16">
    <path clip-path="url(#p24113b466e)" d="M 73.832727 131.099825 
L 75.75376 133.510827 
L 81.516859 127.043552 
L 83.437891 119.438225 
L 85.358924 119.999744 
L 89.20099 141.419369 
L 94.964088 128.748399 
L 96.885121 148.411069 
L 98.806154 162.863347 
L 100.727187 149.8711 
L 102.648219 156.446279 
L 108.411318 137.552317 
L 110.332351 119.385394 
L 112.253384 111.671527 
L 114.174416 111.238366 
L 116.095449 107.865252 
L 121.858548 117.695251 
L 123.77958 112.800808 
L 125.700613 105.63366 
L 127.621646 99.79073 
L 129.542679 111.355611 
L 135.305777 125.986833 
L 137.22681 101.170955 
L 139.147843 96.41535 
L 141.068876 87.292518 
L 148.753007 74.041794 
L 150.67404 74.71534 
L 152.595073 73.973304 
L 154.516105 76.465128 
L 156.437138 81.225272 
L 162.200237 65.199431 
L 164.121269 52.154182 
L 166.042302 80.922249 
L 167.963335 73.264511 
L 169.884368 69.919658 
L 175.647466 71.111425 
L 177.568499 60.584876 
L 179.489532 58.699904 
L 181.410565 72.091551 
L 183.331598 68.636052 
L 191.015729 91.397759 
L 192.936762 97.702262 
L 194.857795 108.945557 
L 196.778827 132.953337 
L 202.541926 132.350634 
L 204.462959 143.529248 
L 206.383991 143.461981 
L 208.305024 150.688306 
L 210.226057 124.890618 
L 215.989155 102.689857 
L 217.910188 93.086222 
L 219.831221 78.351707 
L 221.752254 141.076828 
L 223.673287 138.948547 
L 229.436385 156.063138 
L 231.357418 157.831501 
L 233.278451 136.986851 
L 235.199484 154.219825 
L 237.120516 175.580553 
L 242.883615 182.946243 
L 244.804648 171.41961 
L 246.72568 176.303611 
L 248.646713 194.301323 
L 250.567746 199.949103 
L 258.251877 210.441967 
L 260.17291 223.949065 
L 262.093943 202.759915 
L 264.014976 183.448011 
L 269.778074 188.569767 
L 271.699107 206.542218 
L 273.62014 185.018205 
L 275.541173 191.256141 
L 277.462205 209.046718 
L 283.225304 251.500612 
L 285.146337 247.120178 
L 287.06737 205.790741 
L 288.988402 219.796253 
L 290.909435 235.246479 
L 296.672534 236.5127 
L 298.593566 217.392627 
L 300.514599 186.316957 
L 302.435632 175.209916 
L 304.356665 160.808876 
L 310.119763 163.995606 
L 312.040796 142.837555 
L 313.961829 155.297263 
L 315.882862 140.296651 
L 317.803895 128.578054 
L 323.566993 127.008079 
L 325.488026 120.097132 
L 327.409059 124.80884 
L 329.330091 149.818823 
L 331.251124 148.140272 
L 337.014223 138.860172 
L 338.935256 151.997736 
L 340.856288 166.18766 
L 342.777321 170.318351 
L 344.698354 170.80572 
L 350.461452 186.34682 
L 352.382485 191.533585 
L 354.303518 187.290207 
L 356.224551 205.025889 
L 363.908682 195.132519 
L 365.829715 177.521695 
L 367.750748 182.609521 
L 369.671781 208.633503 
L 371.592813 238.541712 
L 377.355912 232.719617 
L 379.276945 254.588902 
L 381.197977 265.797818 
L 383.11901 213.585156 
L 385.040043 241.849428 
L 390.803141 226.060065 
L 392.724174 215.127297 
L 394.645207 172.874931 
L 396.56624 213.883358 
L 398.487273 217.754227 
" style="fill:none;stroke:#a5b9cf;stroke-linecap:square;stroke-width:2;"/>
   </g>
   <g id="patch_3">
    <path d="M 57.6 276.48 
L 57.6 41.472 
" style="fill:none;stroke:#000000;stroke-linecap:square;stroke-linejoin:miter;stroke-width:0.8;"/>
   </g>
   <g id="patch_4">
    <path d="M 414.72 276.48 
L 414.72 41.472 
" style="fill:none;stroke:#000000;stroke-linecap:square;stroke-linejoin:miter;stroke-width:0.8;"/>
   </g>
   <g id="patch_5">
    <path d="M 57.6 276.48 
L 414.72 276.48 
" style="fill:none;stroke:#000000;stroke-linecap:square;stroke-linejoin:miter;stroke-width:0.8;"/>
   </g>
   <g id="patch_6">
    <path d="M 57.6 41.472 
L 414.72 41.472 
" style="fill:none;stroke:#000000;stroke-linecap:square;stroke-linejoin:miter;stroke-width:0.8;"/>
   </g>
   <g id="text_12">
    <!-- TESTFUNDS -->
    <g transform="translate(200.470313 22.034625)scale(0.12 -0.12)">
     <defs>
      <path d="M -19 4666 
L 3928 4666 
L 3928 4134 
L 2272 4134 
L 2272 0 
L 1638 0 
L 1638 4134 
L -19 4134 
L -19 4666 
z
" id="DejaVuSans-54" transform="scale(0.015625)"/>
      <path d="M 628 4666 
L 3578 4666 
L 3578 4134 
L 1259 4134 
L 1259 2753 
L 3481 2753 
L 3481 2222 
L 1259 2222 
L 1259 531 
L 3634 531 
L 3634 0 
L 628 0 
L 628 4666 
z
" id="DejaVuSans-45" transform="scale(0.015625)"/>
      <path d="M 3425 4513 
L 3425 3897 
Q 3066 4069 2747 4153 
Q 2428 4238 2131 4238 
Q 1616 4238 1336 4038 
Q 1056 3838 1056 3469 
Q 1056 3159 1242 3001 
Q 1428 2844 1947 2747 
L 2328 2669 
Q 3034 2534 3370 2195 
Q 3706 1856 3706 1288 
Q 3706 609 3251 259 
Q 2797 -91 1919 -91 
Q 1588 -91 1214 -16 
Q 841 59 441 206 
L 441 856 
Q 825 641 1194 531 
Q 1563 422 1919 422 
Q 2459 422 2753 634 
Q 3047 847 3047 1241 
Q 3047 1584 2836 1778 
Q 2625 1972 2144 2069 
L 1759 2144 
Q 1053 2284 737 2584 
Q 422 2884 422 3419 
Q 422 4038 858 4394 
Q 1294 4750 2059 4750 
Q 2388 4750 2728 4690 
Q 3069 4631 3425 4513 
z
" id="DejaVuSans-53" transform="scale(0.015625)"/>
      <path d="M 628 4666 
L 3309 4666 
L 3309 4134 
L 1259 4134 
L 1259 2759 
L 3109 2759 
L 3109 2228 
L 1259 2228 
L 1259 0 
L 628 0 
L 628 4666 
z
" id="DejaVuSans-46" transform="scale(0.015625)"/>
      <path d="M 556 4666 
L 1191 4666 
L 1191 1831 
Q 1191 1081 1462 751 
Q 1734 422 2344 422 
Q 2950 422 3222 751 
Q 3494 1081 3494 1831 
L 3494 4666 
L 4128 4666 
L 4128 1753 
Q 4128 841 3676 375 
Q 3225 -91 2344 -91 
Q 1459 -91 1007 375 
Q 556 841 556 1753 
L 556 4666 
z
" id="DejaVuSans-55" transform="scale(0.015625)"/>
      <path d="M 628 4666 
L 1478 4666 
L 3547 763 
L 3547 4666 
L 4159 4666 
L 4159 0 
L 3309 0 
L 1241 3903 
L 1241 0 
L 628 0 
L 628 4666 
z
" id="DejaVuSans-4e" transform="scale(0.015625)"/>
      <path d="M 1259 4147 
L 1259 519 
L 2022 519 
Q 2988 519 3436 956 
Q 3884 1394 3884 2338 
Q 3884 3275 3436 3711 
Q 2988 4147 2022 4147 
L 1259 4147 
z
M 628 4666 
L 1925 4666 
Q 3281 4666 3915 4102 
Q 4550 3538 4550 2338 
Q 4550 1131 3912 565 
Q 3275 0 1925 0 
L 628 0 
L 628 4666 
z
" id="DejaVuSans-44" transform="scale(0.015625)"/>
     </defs>
     <use xlink:href="#DejaVuSans-54"/>
     <use x="61.083984" xlink:href="#DejaVuSans-45"/>
     <use x="124.267578" xlink:href="#DejaVuSans-53"/>
     <use x="187.744141" xlink:href="#DejaVuSans-54"/>
     <use x="248.828125" xlink:href="#DejaVuSans-46"/>
     <use x="306.347656" xlink:href="#DejaVuSans-55"/>
     <use x="379.541016" xlink:href="#DejaVuSans-4e"/>
     <use x="454.345703" xlink:href="#DejaVuSans-44"/>
     <use x="531.347656" xlink:href="#DejaVuSans-53"/>
    </g>
    <!-- daily_report -->
    <g transform="translate(200.466563 35.472)scale(0.12 -0.12)">
     <defs>
      <path d="M 603 3500 
L 1178 3500 
L 1178 0 
L 603 0 
L 603 3500 
z
M 603 4863 
L 1178 4863 
L 1178 4134 
L 603 4134 
L 603 4863 
z
" id="DejaVuSans-69" transform="scale(0.015625)"/>
      <path d="M 603 4863 
L 1178 4863 
L 1178 0 
L 603 0 
L 603 4863 
z
" id="DejaVuSans-6c" transform="scale(0.015625)"/>
      <path d="M 2059 -325 
Q 1816 -950 1584 -1140 
Q 1353 -1331 966 -1331 
L 506 -1331 
L 506 -850 
L 844 -850 
Q 1081 -850 1212 -737 
Q 1344 -625 1503 -206 
L 1606 56 
L 191 3500 
L 800 3500 
L 1894 763 
L 2988 3500 
L 3597 3500 
L 2059 -325 
z
" id="DejaVuSans-79" transform="scale(0.015625)"/>
      <path d="M 3263 -1063 
L 3263 -1509 
L -63 -1509 
L -63 -1063 
L 3263 -1063 
z
" id="DejaVuSans-5f" transform="scale(0.015625)"/>
      <path d="M 2631 2963 
Q 2534 3019 2420 3045 
Q 2306 3072 2169 3072 
Q 1681 3072 1420 2755 
Q 1159 2438 1159 1844 
L 1159 0 
L 581 0 
L 581 3500 
L 1159 3500 
L 1159 2956 
Q 1341 3275 1631 3429 
Q 1922 3584 2338 3584 
Q 2397 3584 2469 3576 
Q 2541 3569 2628 3553 
L 2631 2963 
z
" id="DejaVuSans-72" transform="scale(0.015625)"/>
      <path d="M 1159 525 
L 1159 -1331 
L 581 -1331 
L 581 3500 
L 1159 3500 
L 1159 2969 
Q 1341 3281 1617 3432 
Q 1894 3584 2278 3584 
Q 2916 3584 3314 3078 
Q 3713 2572 3713 1747 
Q 3713 922 3314 415 
Q 2916 -91 2278 -91 
Q 1894 -91 1617 61 
Q 1341 213 1159 525 
z
M 3116 1747 
Q 3116 2381 2855 2742 
Q 2594 3103 2138 3103 
Q 1681 3103 1420 2742 
Q 1159 2381 1159 1747 
Q 1159 1113 1420 752 
Q 1681 391 2138 391 
Q 2594 391 2855 752 
Q 3116 1113 3116 1747 
z
" id="DejaVuSans-70" transform="scale(0.015625)"/>
      <path d="M 1959 3097 
Q 1497 3097 1228 2736 
Q 959 2375 959 1747 
Q 959 1119 1226 758 
Q 1494 397 1959 397 
Q 2419 397 2687 759 
Q 2956 1122 2956 1747 
Q 2956 2369 2687 2733 
Q 2419 3097 1959 3097 
z
M 1959 3584 
Q 2709 3584 3137 3096 
Q 3566 2609 3566 1747 
Q 3566 888 3137 398 
Q 2709 -91 1959 -91 
Q 1206 -91 779 398 
Q 353 888 353 1747 
Q 353 2609 779 3096 
Q 1206 3584 1959 3584 
z
" id="DejaVuSans-6f" transform="scale(0.015625)"/>
     </defs>
     <use xlink:href="#DejaVuSans-64"/>
     <use x="63.476562" xlink:href="#DejaVuSans-61"/>
     <use x="124.755859" xlink:href="#DejaVuSans-69"/>
     <use x="152.539062" xlink:href="#DejaVuSans-6c"/>
     <use x="180.322266" xlink:href="#DejaVuSans-79"/>
     <use x="239.501953" xlink:href="#DejaVuSans-5f"/>
     <use x="289.501953" xlink:href="#DejaVuSans-72"/>
     <use x="328.365234" xlink:href="#DejaVuSans-65"/>
     <use x="389.888672" xlink:href="#DejaVuSans-70"/>
     <use x="453.365234" xlink:href="#DejaVuSans-6f"/>
     <use x="514.546875" xlink:href="#DejaVuSans-72"/>
     <use x="555.660156" xlink:href="#DejaVuSans-74"/>
    </g>
   </g>
   <g id="legend_1">
    <g id="patch_7">
     <path d="M 64.6 271.48 
L 178.64375 271.48 
Q 180.64375 271.48 180.64375 269.48 
L 180.64375 182.41125 
Q 180.64375 180.41125 178.64375 180.41125 
L 64.6 180.41125 
Q 62.6 180.41125 62.6 182.41125 
L 62.6 269.48 
Q 62.6 271.48 64.6 271.48 
z
" style="fill:#ffffff;opacity:0.8;stroke:#cccccc;stroke-linejoin:miter;"/>
    </g>
    <g id="line2d_17">
     <path d="M 66.6 188.509687 
L 86.6 188.509687 
" style="fill:none;stroke:#0000ff;stroke-linecap:square;stroke-opacity:0.9;stroke-width:2;"/>
    </g>
    <g id="line2d_18"/>
    <g id="text_13">
     <!-- alpaca -->
     <g transform="translate(94.6 192.009687)scale(0.1 -0.1)">
      <defs>
       <path d="M 3122 3366 
L 3122 2828 
Q 2878 2963 2633 3030 
Q 2388 3097 2138 3097 
Q 1578 3097 1268 2742 
Q 959 2388 959 1747 
Q 959 1106 1268 751 
Q 1578 397 2138 397 
Q 2388 397 2633 464 
Q 2878 531 3122 666 
L 3122 134 
Q 2881 22 2623 -34 
Q 2366 -91 2075 -91 
Q 1284 -91 818 406 
Q 353 903 353 1747 
Q 353 2603 823 3093 
Q 1294 3584 2113 3584 
Q 2378 3584 2631 3529 
Q 2884 3475 3122 3366 
z
" id="DejaVuSans-63" transform="scale(0.015625)"/>
      </defs>
      <use xlink:href="#DejaVuSans-61"/>
      <use x="61.279297" xlink:href="#DejaVuSans-6c"/>
      <use x="89.0625" xlink:href="#DejaVuSans-70"/>
      <use x="152.539062" xlink:href="#DejaVuSans-61"/>
      <use x="213.818359" xlink:href="#DejaVuSans-63"/>
      <use x="268.798828" xlink:href="#DejaVuSans-61"/>
     </g>
    </g>
    <g id="line2d_19">
     <path d="M 66.6 203.187812 
L 86.6 203.187812 
" style="fill:none;stroke:#ff0000;stroke-linecap:square;stroke-opacity:0.9;stroke-width:2;"/>
    </g>
    <g id="line2d_20"/>
    <g id="text_14">
     <!-- mattress -->
     <g transform="translate(94.6 206.687812)scale(0.1 -0.1)">
      <defs>
       <path d="M 3328 2828 
Q 3544 3216 3844 3400 
Q 4144 3584 4550 3584 
Q 5097 3584 5394 3201 
Q 5691 2819 5691 2113 
L 5691 0 
L 5113 0 
L 5113 2094 
Q 5113 2597 4934 2840 
Q 4756 3084 4391 3084 
Q 3944 3084 3684 2787 
Q 3425 2491 3425 1978 
L 3425 0 
L 2847 0 
L 2847 2094 
Q 2847 2600 2669 2842 
Q 2491 3084 2119 3084 
Q 1678 3084 1418 2786 
Q 1159 2488 1159 1978 
L 1159 0 
L 581 0 
L 581 3500 
L 1159 3500 
L 1159 2956 
Q 1356 3278 1631 3431 
Q 1906 3584 2284 3584 
Q 2666 3584 2933 3390 
Q 3200 3197 3328 2828 
z
" id="DejaVuSans-6d" transform="scale(0.015625)"/>
       <path d="M 2834 3397 
L 2834 2853 
Q 2591 2978 2328 3040 
Q 2066 3103 1784 3103 
Q 1356 3103 1142 2972 
Q 928 2841 928 2578 
Q 928 2378 1081 2264 
Q 1234 2150 1697 2047 
L 1894 2003 
Q 2506 1872 2764 1633 
Q 3022 1394 3022 966 
Q 3022 478 2636 193 
Q 2250 -91 1575 -91 
Q 1294 -91 989 -36 
Q 684 19 347 128 
L 347 722 
Q 666 556 975 473 
Q 1284 391 1588 391 
Q 1994 391 2212 530 
Q 2431 669 2431 922 
Q 2431 1156 2273 1281 
Q 2116 1406 1581 1522 
L 1381 1569 
Q 847 1681 609 1914 
Q 372 2147 372 2553 
Q 372 3047 722 3315 
Q 1072 3584 1716 3584 
Q 2034 3584 2315 3537 
Q 2597 3491 2834 3397 
z
" id="DejaVuSans-73" transform="scale(0.015625)"/>
      </defs>
      <use xlink:href="#DejaVuSans-6d"/>
      <use x="97.412109" xlink:href="#DejaVuSans-61"/>
      <use x="158.691406" xlink:href="#DejaVuSans-74"/>
      <use x="197.900391" xlink:href="#DejaVuSans-74"/>
      <use x="237.109375" xlink:href="#DejaVuSans-72"/>
      <use x="275.972656" xlink:href="#DejaVuSans-65"/>
      <use x="337.496094" xlink:href="#DejaVuSans-73"/>
      <use x="389.595703" xlink:href="#DejaVuSans-73"/>
     </g>
    </g>
    <g id="line2d_21">
     <path d="M 66.6 217.865937 
L 86.6 217.865937 
" style="fill:none;stroke:#008000;stroke-linecap:square;stroke-opacity:0.9;stroke-width:2;"/>
    </g>
    <g id="line2d_22"/>
    <g id="text_15">
     <!-- daily-open-rebal -->
     <g transform="translate(94.6 221.365937)scale(0.1 -0.1)">
      <defs>
       <path d="M 3513 2113 
L 3513 0 
L 2938 0 
L 2938 2094 
Q 2938 2591 2744 2837 
Q 2550 3084 2163 3084 
Q 1697 3084 1428 2787 
Q 1159 2491 1159 1978 
L 1159 0 
L 581 0 
L 581 3500 
L 1159 3500 
L 1159 2956 
Q 1366 3272 1645 3428 
Q 1925 3584 2291 3584 
Q 2894 3584 3203 3211 
Q 3513 2838 3513 2113 
z
" id="DejaVuSans-6e" transform="scale(0.015625)"/>
       <path d="M 3116 1747 
Q 3116 2381 2855 2742 
Q 2594 3103 2138 3103 
Q 1681 3103 1420 2742 
Q 1159 2381 1159 1747 
Q 1159 1113 1420 752 
Q 1681 391 2138 391 
Q 2594 391 2855 752 
Q 3116 1113 3116 1747 
z
M 1159 2969 
Q 1341 3281 1617 3432 
Q 1894 3584 2278 3584 
Q 2916 3584 3314 3078 
Q 3713 2572 3713 1747 
Q 3713 922 3314 415 
Q 2916 -91 2278 -91 
Q 1894 -91 1617 61 
Q 1341 213 1159 525 
L 1159 0 
L 581 0 
L 581 4863 
L 1159 4863 
L 1159 2969 
z
" id="DejaVuSans-62" transform="scale(0.015625)"/>
      </defs>
      <use xlink:href="#DejaVuSans-64"/>
      <use x="63.476562" xlink:href="#DejaVuSans-61"/>
      <use x="124.755859" xlink:href="#DejaVuSans-69"/>
      <use x="152.539062" xlink:href="#DejaVuSans-6c"/>
      <use x="180.322266" xlink:href="#DejaVuSans-79"/>
      <use x="237.751953" xlink:href="#DejaVuSans-2d"/>
      <use x="275.710938" xlink:href="#DejaVuSans-6f"/>
      <use x="336.892578" xlink:href="#DejaVuSans-70"/>
      <use x="400.369141" xlink:href="#DejaVuSans-65"/>
      <use x="461.892578" xlink:href="#DejaVuSans-6e"/>
      <use x="525.271484" xlink:href="#DejaVuSans-2d"/>
      <use x="561.355469" xlink:href="#DejaVuSans-72"/>
      <use x="600.21875" xlink:href="#DejaVuSans-65"/>
      <use x="661.742188" xlink:href="#DejaVuSans-62"/>
      <use x="725.21875" xlink:href="#DejaVuSans-61"/>
      <use x="786.498047" xlink:href="#DejaVuSans-6c"/>
     </g>
    </g>
    <g id="line2d_23">
     <path d="M 66.6 232.544062 
L 86.6 232.544062 
" style="fill:none;stroke:#ec5283;stroke-linecap:square;stroke-width:2;"/>
    </g>
    <g id="line2d_24"/>
    <g id="text_16">
     <!-- daily-close-rebal -->
     <g transform="translate(94.6 236.044062)scale(0.1 -0.1)">
      <use xlink:href="#DejaVuSans-64"/>
      <use x="63.476562" xlink:href="#DejaVuSans-61"/>
      <use x="124.755859" xlink:href="#DejaVuSans-69"/>
      <use x="152.539062" xlink:href="#DejaVuSans-6c"/>
      <use x="180.322266" xlink:href="#DejaVuSans-79"/>
      <use x="237.751953" xlink:href="#DejaVuSans-2d"/>
      <use x="273.835938" xlink:href="#DejaVuSans-63"/>
      <use x="328.816406" xlink:href="#DejaVuSans-6c"/>
      <use x="356.599609" xlink:href="#DejaVuSans-6f"/>
      <use x="417.78125" xlink:href="#DejaVuSans-73"/>
      <use x="469.880859" xlink:href="#DejaVuSans-65"/>
      <use x="531.404297" xlink:href="#DejaVuSans-2d"/>
      <use x="567.488281" xlink:href="#DejaVuSans-72"/>
      <use x="606.351562" xlink:href="#DejaVuSans-65"/>
      <use x="667.875" xlink:href="#DejaVuSans-62"/>
      <use x="731.351562" xlink:href="#DejaVuSans-61"/>
      <use x="792.630859" xlink:href="#DejaVuSans-6c"/>
     </g>
    </g>
    <g id="line2d_25">
     <path d="M 66.6 247.222187 
L 86.6 247.222187 
" style="fill:none;stroke:#00ff00;stroke-linecap:square;stroke-opacity:0.9;stroke-width:2;"/>
    </g>
    <g id="line2d_26"/>
    <g id="text_17">
     <!-- trader-baseline -->
     <g transform="translate(94.6 250.722187)scale(0.1 -0.1)">
      <use xlink:href="#DejaVuSans-74"/>
      <use x="39.208984" xlink:href="#DejaVuSans-72"/>
      <use x="80.322266" xlink:href="#DejaVuSans-61"/>
      <use x="141.601562" xlink:href="#DejaVuSans-64"/>
      <use x="205.078125" xlink:href="#DejaVuSans-65"/>
      <use x="266.601562" xlink:href="#DejaVuSans-72"/>
      <use x="301.339844" xlink:href="#DejaVuSans-2d"/>
      <use x="337.423828" xlink:href="#DejaVuSans-62"/>
      <use x="400.900391" xlink:href="#DejaVuSans-61"/>
      <use x="462.179688" xlink:href="#DejaVuSans-73"/>
      <use x="514.279297" xlink:href="#DejaVuSans-65"/>
      <use x="575.802734" xlink:href="#DejaVuSans-6c"/>
      <use x="603.585938" xlink:href="#DejaVuSans-69"/>
      <use x="631.369141" xlink:href="#DejaVuSans-6e"/>
      <use x="694.748047" xlink:href="#DejaVuSans-65"/>
     </g>
    </g>
    <g id="line2d_27">
     <path d="M 66.6 261.900312 
L 86.6 261.900312 
" style="fill:none;stroke:#a5b9cf;stroke-linecap:square;stroke-width:2;"/>
    </g>
    <g id="line2d_28"/>
    <g id="text_18">
     <!-- default-cfg -->
     <g transform="translate(94.6 265.400312)scale(0.1 -0.1)">
      <defs>
       <path d="M 2375 4863 
L 2375 4384 
L 1825 4384 
Q 1516 4384 1395 4259 
Q 1275 4134 1275 3809 
L 1275 3500 
L 2222 3500 
L 2222 3053 
L 1275 3053 
L 1275 0 
L 697 0 
L 697 3053 
L 147 3053 
L 147 3500 
L 697 3500 
L 697 3744 
Q 697 4328 969 4595 
Q 1241 4863 1831 4863 
L 2375 4863 
z
" id="DejaVuSans-66" transform="scale(0.015625)"/>
       <path d="M 544 1381 
L 544 3500 
L 1119 3500 
L 1119 1403 
Q 1119 906 1312 657 
Q 1506 409 1894 409 
Q 2359 409 2629 706 
Q 2900 1003 2900 1516 
L 2900 3500 
L 3475 3500 
L 3475 0 
L 2900 0 
L 2900 538 
Q 2691 219 2414 64 
Q 2138 -91 1772 -91 
Q 1169 -91 856 284 
Q 544 659 544 1381 
z
M 1991 3584 
L 1991 3584 
z
" id="DejaVuSans-75" transform="scale(0.015625)"/>
       <path d="M 2906 1791 
Q 2906 2416 2648 2759 
Q 2391 3103 1925 3103 
Q 1463 3103 1205 2759 
Q 947 2416 947 1791 
Q 947 1169 1205 825 
Q 1463 481 1925 481 
Q 2391 481 2648 825 
Q 2906 1169 2906 1791 
z
M 3481 434 
Q 3481 -459 3084 -895 
Q 2688 -1331 1869 -1331 
Q 1566 -1331 1297 -1286 
Q 1028 -1241 775 -1147 
L 775 -588 
Q 1028 -725 1275 -790 
Q 1522 -856 1778 -856 
Q 2344 -856 2625 -561 
Q 2906 -266 2906 331 
L 2906 616 
Q 2728 306 2450 153 
Q 2172 0 1784 0 
Q 1141 0 747 490 
Q 353 981 353 1791 
Q 353 2603 747 3093 
Q 1141 3584 1784 3584 
Q 2172 3584 2450 3431 
Q 2728 3278 2906 2969 
L 2906 3500 
L 3481 3500 
L 3481 434 
z
" id="DejaVuSans-67" transform="scale(0.015625)"/>
      </defs>
      <use xlink:href="#DejaVuSans-64"/>
      <use x="63.476562" xlink:href="#DejaVuSans-65"/>
      <use x="125" xlink:href="#DejaVuSans-66"/>
      <use x="160.205078" xlink:href="#DejaVuSans-61"/>
      <use x="221.484375" xlink:href="#DejaVuSans-75"/>
      <use x="284.863281" xlink:href="#DejaVuSans-6c"/>
      <use x="312.646484" xlink:href="#DejaVuSans-74"/>
      <use x="351.855469" xlink:href="#DejaVuSans-2d"/>
      <use x="387.939453" xlink:href="#DejaVuSans-63"/>
      <use x="442.919922" xlink:href="#DejaVuSans-66"/>
      <use x="478.125" xlink:href="#DejaVuSans-67"/>
     </g>
    </g>
   </g>
  </g>
 </g>
 <defs>
  <clipPath id="p24113b466e">
   <rect height="235.008" width="357.12" x="57.6" y="41.472"/>
  </clipPath>
 </defs>
</svg>
