<?xml version="1.0" encoding="utf-8" standalone="no"?>
<!DOCTYPE svg PUBLIC "-//W3C//DTD SVG 1.1//EN"
  "http://www.w3.org/Graphics/SVG/1.1/DTD/svg11.dtd">
<svg height="345.6pt" version="1.1" viewBox="0 0 460.8 345.6" width="460.8pt" xmlns="http://www.w3.org/2000/svg" xmlns:xlink="http://www.w3.org/1999/xlink">
 <metadata>
  <rdf:RDF xmlns:cc="http://creativecommons.org/ns#" xmlns:dc="http://purl.org/dc/elements/1.1/" xmlns:rdf="http://www.w3.org/1999/02/22-rdf-syntax-ns#">
   <cc:Work>
    <dc:type rdf:resource="http://purl.org/dc/dcmitype/StillImage"/>
    <dc:date>2022-05-09T10:01:16.200874</dc:date>
    <dc:format>image/svg+xml</dc:format>
    <dc:creator>
     <cc:Agent>
      <dc:title>Matplotlib v3.4.3, https://matplotlib.org/</dc:title>
     </cc:Agent>
    </dc:creator>
   </cc:Work>
  </rdf:RDF>
 </metadata>
 <defs>
  <style type="text/css">*{stroke-linecap:butt;stroke-linejoin:round;}</style>
 </defs>
 <g id="figure_1">
  <g id="patch_1">
   <path d="M 0 345.6 
L 460.8 345.6 
L 460.8 0 
L 0 0 
z
" style="fill:#ffffff;"/>
  </g>
  <g id="axes_1">
   <g id="patch_2">
    <path d="M 57.6 276.48 
L 414.72 276.48 
L 414.72 41.472 
L 57.6 41.472 
z
" style="fill:#ffffff;"/>
   </g>
   <g id="matplotlib.axis_1">
    <g id="xtick_1">
     <g id="line2d_1">
      <defs>
       <path d="M 0 0 
L 0 3.5 
" id="m9f02ab924d" style="stroke:#000000;stroke-width:0.8;"/>
      </defs>
      <g>
       <use style="stroke:#000000;stroke-width:0.8;" x="98.806154" xlink:href="#m9f02ab924d" y="276.48"/>
      </g>
     </g>
     <g id="text_1">
      <!-- 2021-12 -->
      <g transform="translate(61.581333 310.951846)rotate(-30)scale(0.1 -0.1)">
       <defs>
        <path d="M 1228 531 
L 3431 531 
L 3431 0 
L 469 0 
L 469 531 
Q 828 903 1448 1529 
Q 2069 2156 2228 2338 
Q 2531 2678 2651 2914 
Q 2772 3150 2772 3378 
Q 2772 3750 2511 3984 
Q 2250 4219 1831 4219 
Q 1534 4219 1204 4116 
Q 875 4013 500 3803 
L 500 4441 
Q 881 4594 1212 4672 
Q 1544 4750 1819 4750 
Q 2544 4750 2975 4387 
Q 3406 4025 3406 3419 
Q 3406 3131 3298 2873 
Q 3191 2616 2906 2266 
Q 2828 2175 2409 1742 
Q 1991 1309 1228 531 
z
" id="DejaVuSans-32" transform="scale(0.015625)"/>
        <path d="M 2034 4250 
Q 1547 4250 1301 3770 
Q 1056 3291 1056 2328 
Q 1056 1369 1301 889 
Q 1547 409 2034 409 
Q 2525 409 2770 889 
Q 3016 1369 3016 2328 
Q 3016 3291 2770 3770 
Q 2525 4250 2034 4250 
z
M 2034 4750 
Q 2819 4750 3233 4129 
Q 3647 3509 3647 2328 
Q 3647 1150 3233 529 
Q 2819 -91 2034 -91 
Q 1250 -91 836 529 
Q 422 1150 422 2328 
Q 422 3509 836 4129 
Q 1250 4750 2034 4750 
z
" id="DejaVuSans-30" transform="scale(0.015625)"/>
        <path d="M 794 531 
L 1825 531 
L 1825 4091 
L 703 3866 
L 703 4441 
L 1819 4666 
L 2450 4666 
L 2450 531 
L 3481 531 
L 3481 0 
L 794 0 
L 794 531 
z
" id="DejaVuSans-31" transform="scale(0.015625)"/>
        <path d="M 313 2009 
L 1997 2009 
L 1997 1497 
L 313 1497 
L 313 2009 
z
" id="DejaVuSans-2d" transform="scale(0.015625)"/>
       </defs>
       <use xlink:href="#DejaVuSans-32"/>
       <use x="63.623047" xlink:href="#DejaVuSans-30"/>
       <use x="127.246094" xlink:href="#DejaVuSans-32"/>
       <use x="190.869141" xlink:href="#DejaVuSans-31"/>
       <use x="254.492188" xlink:href="#DejaVuSans-2d"/>
       <use x="290.576172" xlink:href="#DejaVuSans-31"/>
       <use x="354.199219" xlink:href="#DejaVuSans-32"/>
      </g>
     </g>
    </g>
    <g id="xtick_2">
     <g id="line2d_2">
      <g>
       <use style="stroke:#000000;stroke-width:0.8;" x="158.358171" xlink:href="#m9f02ab924d" y="276.48"/>
      </g>
     </g>
     <g id="text_2">
      <!-- 2022-01 -->
      <g transform="translate(121.13335 310.951846)rotate(-30)scale(0.1 -0.1)">
       <use xlink:href="#DejaVuSans-32"/>
       <use x="63.623047" xlink:href="#DejaVuSans-30"/>
       <use x="127.246094" xlink:href="#DejaVuSans-32"/>
       <use x="190.869141" xlink:href="#DejaVuSans-32"/>
       <use x="254.492188" xlink:href="#DejaVuSans-2d"/>
       <use x="290.576172" xlink:href="#DejaVuSans-30"/>
       <use x="354.199219" xlink:href="#DejaVuSans-31"/>
      </g>
     </g>
    </g>
    <g id="xtick_3">
     <g id="line2d_3">
      <g>
       <use style="stroke:#000000;stroke-width:0.8;" x="217.910188" xlink:href="#m9f02ab924d" y="276.48"/>
      </g>
     </g>
     <g id="text_3">
      <!-- 2022-02 -->
      <g transform="translate(180.685367 310.951846)rotate(-30)scale(0.1 -0.1)">
       <use xlink:href="#DejaVuSans-32"/>
       <use x="63.623047" xlink:href="#DejaVuSans-30"/>
       <use x="127.246094" xlink:href="#DejaVuSans-32"/>
       <use x="190.869141" xlink:href="#DejaVuSans-32"/>
       <use x="254.492188" xlink:href="#DejaVuSans-2d"/>
       <use x="290.576172" xlink:href="#DejaVuSans-30"/>
       <use x="354.199219" xlink:href="#DejaVuSans-32"/>
      </g>
     </g>
    </g>
    <g id="xtick_4">
     <g id="line2d_4">
      <g>
       <use style="stroke:#000000;stroke-width:0.8;" x="271.699107" xlink:href="#m9f02ab924d" y="276.48"/>
      </g>
     </g>
     <g id="text_4">
      <!-- 2022-03 -->
      <g transform="translate(234.474286 310.951846)rotate(-30)scale(0.1 -0.1)">
       <defs>
        <path d="M 2597 2516 
Q 3050 2419 3304 2112 
Q 3559 1806 3559 1356 
Q 3559 666 3084 287 
Q 2609 -91 1734 -91 
Q 1441 -91 1130 -33 
Q 819 25 488 141 
L 488 750 
Q 750 597 1062 519 
Q 1375 441 1716 441 
Q 2309 441 2620 675 
Q 2931 909 2931 1356 
Q 2931 1769 2642 2001 
Q 2353 2234 1838 2234 
L 1294 2234 
L 1294 2753 
L 1863 2753 
Q 2328 2753 2575 2939 
Q 2822 3125 2822 3475 
Q 2822 3834 2567 4026 
Q 2313 4219 1838 4219 
Q 1578 4219 1281 4162 
Q 984 4106 628 3988 
L 628 4550 
Q 988 4650 1302 4700 
Q 1616 4750 1894 4750 
Q 2613 4750 3031 4423 
Q 3450 4097 3450 3541 
Q 3450 3153 3228 2886 
Q 3006 2619 2597 2516 
z
" id="DejaVuSans-33" transform="scale(0.015625)"/>
       </defs>
       <use xlink:href="#DejaVuSans-32"/>
       <use x="63.623047" xlink:href="#DejaVuSans-30"/>
       <use x="127.246094" xlink:href="#DejaVuSans-32"/>
       <use x="190.869141" xlink:href="#DejaVuSans-32"/>
       <use x="254.492188" xlink:href="#DejaVuSans-2d"/>
       <use x="290.576172" xlink:href="#DejaVuSans-30"/>
       <use x="354.199219" xlink:href="#DejaVuSans-33"/>
      </g>
     </g>
    </g>
    <g id="xtick_5">
     <g id="line2d_5">
      <g>
       <use style="stroke:#000000;stroke-width:0.8;" x="331.251124" xlink:href="#m9f02ab924d" y="276.48"/>
      </g>
     </g>
     <g id="text_5">
      <!-- 2022-04 -->
      <g transform="translate(294.026303 310.951846)rotate(-30)scale(0.1 -0.1)">
       <defs>
        <path d="M 2419 4116 
L 825 1625 
L 2419 1625 
L 2419 4116 
z
M 2253 4666 
L 3047 4666 
L 3047 1625 
L 3713 1625 
L 3713 1100 
L 3047 1100 
L 3047 0 
L 2419 0 
L 2419 1100 
L 313 1100 
L 313 1709 
L 2253 4666 
z
" id="DejaVuSans-34" transform="scale(0.015625)"/>
       </defs>
       <use xlink:href="#DejaVuSans-32"/>
       <use x="63.623047" xlink:href="#DejaVuSans-30"/>
       <use x="127.246094" xlink:href="#DejaVuSans-32"/>
       <use x="190.869141" xlink:href="#DejaVuSans-32"/>
       <use x="254.492188" xlink:href="#DejaVuSans-2d"/>
       <use x="290.576172" xlink:href="#DejaVuSans-30"/>
       <use x="354.199219" xlink:href="#DejaVuSans-34"/>
      </g>
     </g>
    </g>
    <g id="xtick_6">
     <g id="line2d_6">
      <g>
       <use style="stroke:#000000;stroke-width:0.8;" x="388.882109" xlink:href="#m9f02ab924d" y="276.48"/>
      </g>
     </g>
     <g id="text_6">
      <!-- 2022-05 -->
      <g transform="translate(351.657288 310.951846)rotate(-30)scale(0.1 -0.1)">
       <defs>
        <path d="M 691 4666 
L 3169 4666 
L 3169 4134 
L 1269 4134 
L 1269 2991 
Q 1406 3038 1543 3061 
Q 1681 3084 1819 3084 
Q 2600 3084 3056 2656 
Q 3513 2228 3513 1497 
Q 3513 744 3044 326 
Q 2575 -91 1722 -91 
Q 1428 -91 1123 -41 
Q 819 9 494 109 
L 494 744 
Q 775 591 1075 516 
Q 1375 441 1709 441 
Q 2250 441 2565 725 
Q 2881 1009 2881 1497 
Q 2881 1984 2565 2268 
Q 2250 2553 1709 2553 
Q 1456 2553 1204 2497 
Q 953 2441 691 2322 
L 691 4666 
z
" id="DejaVuSans-35" transform="scale(0.015625)"/>
       </defs>
       <use xlink:href="#DejaVuSans-32"/>
       <use x="63.623047" xlink:href="#DejaVuSans-30"/>
       <use x="127.246094" xlink:href="#DejaVuSans-32"/>
       <use x="190.869141" xlink:href="#DejaVuSans-32"/>
       <use x="254.492188" xlink:href="#DejaVuSans-2d"/>
       <use x="290.576172" xlink:href="#DejaVuSans-30"/>
       <use x="354.199219" xlink:href="#DejaVuSans-35"/>
      </g>
     </g>
    </g>
    <g id="text_7">
     <!-- date -->
     <g transform="translate(224.885 324.351346)scale(0.1 -0.1)">
      <defs>
       <path d="M 2906 2969 
L 2906 4863 
L 3481 4863 
L 3481 0 
L 2906 0 
L 2906 525 
Q 2725 213 2448 61 
Q 2172 -91 1784 -91 
Q 1150 -91 751 415 
Q 353 922 353 1747 
Q 353 2572 751 3078 
Q 1150 3584 1784 3584 
Q 2172 3584 2448 3432 
Q 2725 3281 2906 2969 
z
M 947 1747 
Q 947 1113 1208 752 
Q 1469 391 1925 391 
Q 2381 391 2643 752 
Q 2906 1113 2906 1747 
Q 2906 2381 2643 2742 
Q 2381 3103 1925 3103 
Q 1469 3103 1208 2742 
Q 947 2381 947 1747 
z
" id="DejaVuSans-64" transform="scale(0.015625)"/>
       <path d="M 2194 1759 
Q 1497 1759 1228 1600 
Q 959 1441 959 1056 
Q 959 750 1161 570 
Q 1363 391 1709 391 
Q 2188 391 2477 730 
Q 2766 1069 2766 1631 
L 2766 1759 
L 2194 1759 
z
M 3341 1997 
L 3341 0 
L 2766 0 
L 2766 531 
Q 2569 213 2275 61 
Q 1981 -91 1556 -91 
Q 1019 -91 701 211 
Q 384 513 384 1019 
Q 384 1609 779 1909 
Q 1175 2209 1959 2209 
L 2766 2209 
L 2766 2266 
Q 2766 2663 2505 2880 
Q 2244 3097 1772 3097 
Q 1472 3097 1187 3025 
Q 903 2953 641 2809 
L 641 3341 
Q 956 3463 1253 3523 
Q 1550 3584 1831 3584 
Q 2591 3584 2966 3190 
Q 3341 2797 3341 1997 
z
" id="DejaVuSans-61" transform="scale(0.015625)"/>
       <path d="M 1172 4494 
L 1172 3500 
L 2356 3500 
L 2356 3053 
L 1172 3053 
L 1172 1153 
Q 1172 725 1289 603 
Q 1406 481 1766 481 
L 2356 481 
L 2356 0 
L 1766 0 
Q 1100 0 847 248 
Q 594 497 594 1153 
L 594 3053 
L 172 3053 
L 172 3500 
L 594 3500 
L 594 4494 
L 1172 4494 
z
" id="DejaVuSans-74" transform="scale(0.015625)"/>
       <path d="M 3597 1894 
L 3597 1613 
L 953 1613 
Q 991 1019 1311 708 
Q 1631 397 2203 397 
Q 2534 397 2845 478 
Q 3156 559 3463 722 
L 3463 178 
Q 3153 47 2828 -22 
Q 2503 -91 2169 -91 
Q 1331 -91 842 396 
Q 353 884 353 1716 
Q 353 2575 817 3079 
Q 1281 3584 2069 3584 
Q 2775 3584 3186 3129 
Q 3597 2675 3597 1894 
z
M 3022 2063 
Q 3016 2534 2758 2815 
Q 2500 3097 2075 3097 
Q 1594 3097 1305 2825 
Q 1016 2553 972 2059 
L 3022 2063 
z
" id="DejaVuSans-65" transform="scale(0.015625)"/>
      </defs>
      <use xlink:href="#DejaVuSans-64"/>
      <use x="63.476562" xlink:href="#DejaVuSans-61"/>
      <use x="124.755859" xlink:href="#DejaVuSans-74"/>
      <use x="163.964844" xlink:href="#DejaVuSans-65"/>
     </g>
    </g>
   </g>
   <g id="matplotlib.axis_2">
    <g id="ytick_1">
     <g id="line2d_7">
      <defs>
       <path d="M 0 0 
L -3.5 0 
" id="m51ae06bebf" style="stroke:#000000;stroke-width:0.8;"/>
      </defs>
      <g>
       <use style="stroke:#000000;stroke-width:0.8;" x="57.6" xlink:href="#m51ae06bebf" y="269.693476"/>
      </g>
     </g>
     <g id="text_8">
      <!-- 86000 -->
      <g transform="translate(18.7875 273.492695)scale(0.1 -0.1)">
       <defs>
        <path d="M 2034 2216 
Q 1584 2216 1326 1975 
Q 1069 1734 1069 1313 
Q 1069 891 1326 650 
Q 1584 409 2034 409 
Q 2484 409 2743 651 
Q 3003 894 3003 1313 
Q 3003 1734 2745 1975 
Q 2488 2216 2034 2216 
z
M 1403 2484 
Q 997 2584 770 2862 
Q 544 3141 544 3541 
Q 544 4100 942 4425 
Q 1341 4750 2034 4750 
Q 2731 4750 3128 4425 
Q 3525 4100 3525 3541 
Q 3525 3141 3298 2862 
Q 3072 2584 2669 2484 
Q 3125 2378 3379 2068 
Q 3634 1759 3634 1313 
Q 3634 634 3220 271 
Q 2806 -91 2034 -91 
Q 1263 -91 848 271 
Q 434 634 434 1313 
Q 434 1759 690 2068 
Q 947 2378 1403 2484 
z
M 1172 3481 
Q 1172 3119 1398 2916 
Q 1625 2713 2034 2713 
Q 2441 2713 2670 2916 
Q 2900 3119 2900 3481 
Q 2900 3844 2670 4047 
Q 2441 4250 2034 4250 
Q 1625 4250 1398 4047 
Q 1172 3844 1172 3481 
z
" id="DejaVuSans-38" transform="scale(0.015625)"/>
        <path d="M 2113 2584 
Q 1688 2584 1439 2293 
Q 1191 2003 1191 1497 
Q 1191 994 1439 701 
Q 1688 409 2113 409 
Q 2538 409 2786 701 
Q 3034 994 3034 1497 
Q 3034 2003 2786 2293 
Q 2538 2584 2113 2584 
z
M 3366 4563 
L 3366 3988 
Q 3128 4100 2886 4159 
Q 2644 4219 2406 4219 
Q 1781 4219 1451 3797 
Q 1122 3375 1075 2522 
Q 1259 2794 1537 2939 
Q 1816 3084 2150 3084 
Q 2853 3084 3261 2657 
Q 3669 2231 3669 1497 
Q 3669 778 3244 343 
Q 2819 -91 2113 -91 
Q 1303 -91 875 529 
Q 447 1150 447 2328 
Q 447 3434 972 4092 
Q 1497 4750 2381 4750 
Q 2619 4750 2861 4703 
Q 3103 4656 3366 4563 
z
" id="DejaVuSans-36" transform="scale(0.015625)"/>
       </defs>
       <use xlink:href="#DejaVuSans-38"/>
       <use x="63.623047" xlink:href="#DejaVuSans-36"/>
       <use x="127.246094" xlink:href="#DejaVuSans-30"/>
       <use x="190.869141" xlink:href="#DejaVuSans-30"/>
       <use x="254.492188" xlink:href="#DejaVuSans-30"/>
      </g>
     </g>
    </g>
    <g id="ytick_2">
     <g id="line2d_8">
      <g>
       <use style="stroke:#000000;stroke-width:0.8;" x="57.6" xlink:href="#m51ae06bebf" y="242.890317"/>
      </g>
     </g>
     <g id="text_9">
      <!-- 88000 -->
      <g transform="translate(18.7875 246.689536)scale(0.1 -0.1)">
       <use xlink:href="#DejaVuSans-38"/>
       <use x="63.623047" xlink:href="#DejaVuSans-38"/>
       <use x="127.246094" xlink:href="#DejaVuSans-30"/>
       <use x="190.869141" xlink:href="#DejaVuSans-30"/>
       <use x="254.492188" xlink:href="#DejaVuSans-30"/>
      </g>
     </g>
    </g>
    <g id="ytick_3">
     <g id="line2d_9">
      <g>
       <use style="stroke:#000000;stroke-width:0.8;" x="57.6" xlink:href="#m51ae06bebf" y="216.087158"/>
      </g>
     </g>
     <g id="text_10">
      <!-- 90000 -->
      <g transform="translate(18.7875 219.886377)scale(0.1 -0.1)">
       <defs>
        <path d="M 703 97 
L 703 672 
Q 941 559 1184 500 
Q 1428 441 1663 441 
Q 2288 441 2617 861 
Q 2947 1281 2994 2138 
Q 2813 1869 2534 1725 
Q 2256 1581 1919 1581 
Q 1219 1581 811 2004 
Q 403 2428 403 3163 
Q 403 3881 828 4315 
Q 1253 4750 1959 4750 
Q 2769 4750 3195 4129 
Q 3622 3509 3622 2328 
Q 3622 1225 3098 567 
Q 2575 -91 1691 -91 
Q 1453 -91 1209 -44 
Q 966 3 703 97 
z
M 1959 2075 
Q 2384 2075 2632 2365 
Q 2881 2656 2881 3163 
Q 2881 3666 2632 3958 
Q 2384 4250 1959 4250 
Q 1534 4250 1286 3958 
Q 1038 3666 1038 3163 
Q 1038 2656 1286 2365 
Q 1534 2075 1959 2075 
z
" id="DejaVuSans-39" transform="scale(0.015625)"/>
       </defs>
       <use xlink:href="#DejaVuSans-39"/>
       <use x="63.623047" xlink:href="#DejaVuSans-30"/>
       <use x="127.246094" xlink:href="#DejaVuSans-30"/>
       <use x="190.869141" xlink:href="#DejaVuSans-30"/>
       <use x="254.492188" xlink:href="#DejaVuSans-30"/>
      </g>
     </g>
    </g>
    <g id="ytick_4">
     <g id="line2d_10">
      <g>
       <use style="stroke:#000000;stroke-width:0.8;" x="57.6" xlink:href="#m51ae06bebf" y="189.283999"/>
      </g>
     </g>
     <g id="text_11">
      <!-- 92000 -->
      <g transform="translate(18.7875 193.083218)scale(0.1 -0.1)">
       <use xlink:href="#DejaVuSans-39"/>
       <use x="63.623047" xlink:href="#DejaVuSans-32"/>
       <use x="127.246094" xlink:href="#DejaVuSans-30"/>
       <use x="190.869141" xlink:href="#DejaVuSans-30"/>
       <use x="254.492188" xlink:href="#DejaVuSans-30"/>
      </g>
     </g>
    </g>
    <g id="ytick_5">
     <g id="line2d_11">
      <g>
       <use style="stroke:#000000;stroke-width:0.8;" x="57.6" xlink:href="#m51ae06bebf" y="162.48084"/>
      </g>
     </g>
     <g id="text_12">
      <!-- 94000 -->
      <g transform="translate(18.7875 166.280058)scale(0.1 -0.1)">
       <use xlink:href="#DejaVuSans-39"/>
       <use x="63.623047" xlink:href="#DejaVuSans-34"/>
       <use x="127.246094" xlink:href="#DejaVuSans-30"/>
       <use x="190.869141" xlink:href="#DejaVuSans-30"/>
       <use x="254.492188" xlink:href="#DejaVuSans-30"/>
      </g>
     </g>
    </g>
    <g id="ytick_6">
     <g id="line2d_12">
      <g>
       <use style="stroke:#000000;stroke-width:0.8;" x="57.6" xlink:href="#m51ae06bebf" y="135.67768"/>
      </g>
     </g>
     <g id="text_13">
      <!-- 96000 -->
      <g transform="translate(18.7875 139.476899)scale(0.1 -0.1)">
       <use xlink:href="#DejaVuSans-39"/>
       <use x="63.623047" xlink:href="#DejaVuSans-36"/>
       <use x="127.246094" xlink:href="#DejaVuSans-30"/>
       <use x="190.869141" xlink:href="#DejaVuSans-30"/>
       <use x="254.492188" xlink:href="#DejaVuSans-30"/>
      </g>
     </g>
    </g>
    <g id="ytick_7">
     <g id="line2d_13">
      <g>
       <use style="stroke:#000000;stroke-width:0.8;" x="57.6" xlink:href="#m51ae06bebf" y="108.874521"/>
      </g>
     </g>
     <g id="text_14">
      <!-- 98000 -->
      <g transform="translate(18.7875 112.67374)scale(0.1 -0.1)">
       <use xlink:href="#DejaVuSans-39"/>
       <use x="63.623047" xlink:href="#DejaVuSans-38"/>
       <use x="127.246094" xlink:href="#DejaVuSans-30"/>
       <use x="190.869141" xlink:href="#DejaVuSans-30"/>
       <use x="254.492188" xlink:href="#DejaVuSans-30"/>
      </g>
     </g>
    </g>
    <g id="ytick_8">
     <g id="line2d_14">
      <g>
       <use style="stroke:#000000;stroke-width:0.8;" x="57.6" xlink:href="#m51ae06bebf" y="82.071362"/>
      </g>
     </g>
     <g id="text_15">
      <!-- 100000 -->
      <g transform="translate(12.425 85.870581)scale(0.1 -0.1)">
       <use xlink:href="#DejaVuSans-31"/>
       <use x="63.623047" xlink:href="#DejaVuSans-30"/>
       <use x="127.246094" xlink:href="#DejaVuSans-30"/>
       <use x="190.869141" xlink:href="#DejaVuSans-30"/>
       <use x="254.492188" xlink:href="#DejaVuSans-30"/>
       <use x="318.115234" xlink:href="#DejaVuSans-30"/>
      </g>
     </g>
    </g>
    <g id="ytick_9">
     <g id="line2d_15">
      <g>
       <use style="stroke:#000000;stroke-width:0.8;" x="57.6" xlink:href="#m51ae06bebf" y="55.268203"/>
      </g>
     </g>
     <g id="text_16">
      <!-- 102000 -->
      <g transform="translate(12.425 59.067422)scale(0.1 -0.1)">
       <use xlink:href="#DejaVuSans-31"/>
       <use x="63.623047" xlink:href="#DejaVuSans-30"/>
       <use x="127.246094" xlink:href="#DejaVuSans-32"/>
       <use x="190.869141" xlink:href="#DejaVuSans-30"/>
       <use x="254.492188" xlink:href="#DejaVuSans-30"/>
       <use x="318.115234" xlink:href="#DejaVuSans-30"/>
      </g>
     </g>
    </g>
   </g>
   <g id="line2d_16">
    <path clip-path="url(#pb4a2a7407c)" d="M 73.832727 80.687029 
L 75.75376 83.109469 
L 81.516859 86.817896 
L 83.437891 85.45155 
L 85.358924 81.960623 
L 89.20099 81.253657 
L 94.964088 95.481061 
L 96.885121 120.75989 
L 98.806154 136.275809 
L 100.727187 115.675167 
L 102.648219 127.192471 
L 108.411318 112.546155 
L 110.332351 84.993639 
L 112.253384 81.725855 
L 114.174416 90.18361 
L 116.095449 76.929799 
L 121.858548 90.554254 
L 123.77958 99.761701 
L 125.700613 78.638333 
L 127.621646 91.765908 
L 129.542679 106.379879 
L 135.305777 121.99633 
L 137.22681 99.634146 
L 139.147843 86.659232 
L 141.068876 78.140388 
L 148.753007 59.020487 
L 150.67404 59.739933 
L 152.595073 57.922382 
L 154.516105 61.841356 
L 156.437138 66.3988 
L 162.200237 57.522944 
L 164.121269 57.702112 
L 166.042302 84.928423 
L 167.963335 86.000246 
L 169.884368 90.28264 
L 175.647466 93.306309 
L 177.568499 80.750304 
L 179.489532 77.071695 
L 181.410565 94.959612 
L 183.331598 95.144765 
L 191.015729 118.266911 
L 192.936762 132.441681 
L 194.857795 145.893678 
L 196.778827 171.42121 
L 202.541926 166.787106 
L 204.462959 181.282607 
L 206.383991 184.182826 
L 208.305024 190.251601 
L 210.226057 159.856937 
L 215.989155 136.693928 
L 217.910188 128.790472 
L 219.831221 115.547841 
L 221.752254 145.869166 
L 223.673287 140.953279 
L 229.436385 144.555197 
L 231.357418 134.071558 
L 233.278451 115.617334 
L 235.199484 138.552128 
L 237.120516 164.457983 
L 242.883615 167.949274 
L 244.804648 147.634554 
L 246.72568 146.622648 
L 248.646713 173.559192 
L 250.567746 181.471314 
L 258.251877 195.929056 
L 260.17291 217.657388 
L 262.093943 198.692235 
L 264.014976 172.265048 
L 269.778074 174.463526 
L 271.699107 193.704807 
L 273.62014 170.859244 
L 275.541173 177.613121 
L 277.462205 188.073708 
L 283.225304 223.813892 
L 285.146337 233.27378 
L 287.06737 201.279437 
L 288.988402 206.595008 
L 290.909435 222.203063 
L 296.672534 230.946953 
L 298.593566 205.376394 
L 300.514599 178.219789 
L 302.435632 162.945857 
L 304.356665 149.900093 
L 310.119763 150.934458 
L 312.040796 136.133245 
L 313.961829 152.661006 
L 315.882862 136.356595 
L 317.803895 129.486982 
L 323.566993 120.122362 
L 325.488026 103.564247 
L 327.409059 112.288657 
L 329.330091 132.157456 
L 331.251124 128.122013 
L 337.014223 117.776244 
L 338.935256 134.637801 
L 340.856288 147.09598 
L 342.777321 140.791333 
L 344.698354 144.19685 
L 350.461452 166.216383 
L 352.382485 170.693469 
L 354.303518 155.602635 
L 356.224551 171.656787 
L 363.908682 171.575228 
L 365.829715 151.876774 
L 367.750748 151.659974 
L 369.671781 170.278568 
L 371.592813 205.088333 
L 377.355912 197.915236 
L 379.276945 234.024761 
L 381.197977 230.462461 
L 383.11901 200.939511 
L 385.040043 244.373545 
L 390.803141 237.789594 
L 392.724174 232.064061 
L 394.645207 196.494475 
L 396.56624 239.239824 
L 398.487273 265.797818 
" style="fill:none;stroke:#0000ff;stroke-linecap:square;stroke-opacity:0.9;stroke-width:2;"/>
   </g>
   <g id="line2d_17">
    <path clip-path="url(#pb4a2a7407c)" d="M 73.832727 80.687029 
L 75.75376 82.450994 
L 81.516859 86.296841 
L 83.437891 85.17259 
L 85.358924 81.970487 
L 89.20099 111.334948 
L 94.964088 95.027484 
L 96.885121 120.173229 
L 98.806154 135.474309 
L 100.727187 115.879669 
L 102.648219 127.935891 
L 108.411318 111.940334 
L 110.332351 85.248567 
L 112.253384 81.336964 
L 114.174416 90.508565 
L 116.095449 77.984614 
L 121.858548 90.730716 
L 123.77958 99.779844 
L 125.700613 78.549271 
L 127.621646 90.769277 
L 129.542679 106.14733 
L 135.305777 121.104285 
L 137.22681 100.341663 
L 139.147843 86.427914 
L 141.068876 77.564824 
L 148.753007 59.397746 
L 150.67404 60.776753 
L 152.595073 58.353723 
L 154.516105 62.806602 
L 156.437138 66.240891 
L 162.200237 57.351783 
L 164.121269 58.479162 
L 166.042302 84.219881 
L 167.963335 86.30612 
L 169.884368 90.960022 
L 175.647466 93.459132 
L 177.568499 80.951642 
L 179.489532 76.4596 
L 181.410565 94.889383 
L 183.331598 95.151336 
L 191.015729 118.760959 
L 192.936762 131.537495 
L 194.857795 145.814827 
L 196.778827 171.440874 
L 202.541926 166.657348 
L 204.462959 181.394259 
L 206.383991 183.669334 
L 208.305024 191.032245 
L 210.226057 159.562087 
L 215.989155 136.76004 
L 217.910188 128.160538 
L 219.831221 115.763939 
L 221.752254 146.089218 
L 223.673287 140.173729 
L 229.436385 145.137865 
L 231.357418 134.185964 
L 233.278451 115.202988 
L 235.199484 138.782527 
L 237.120516 164.553181 
L 242.883615 168.032972 
L 244.804648 147.817723 
L 246.72568 147.028287 
L 248.646713 173.411854 
L 250.567746 182.513597 
L 258.251877 195.765646 
L 260.17291 217.337574 
L 262.093943 199.539928 
L 264.014976 172.144504 
L 269.778074 174.492534 
L 271.699107 194.395673 
L 273.62014 171.612354 
L 275.541173 177.213614 
L 277.462205 188.277132 
L 283.225304 223.775296 
L 285.146337 233.799676 
L 287.06737 202.178839 
L 288.988402 206.73423 
L 290.909435 221.640936 
L 296.672534 230.858993 
L 298.593566 204.641329 
L 300.514599 178.6059 
L 302.435632 163.000851 
L 304.356665 150.386525 
L 310.119763 151.216074 
L 312.040796 136.063993 
L 313.961829 153.009112 
L 315.882862 136.387298 
L 317.803895 129.145011 
L 323.566993 119.834083 
L 325.488026 104.117665 
L 327.409059 111.98819 
L 329.330091 131.805883 
L 331.251124 128.920762 
L 337.014223 116.937644 
L 338.935256 133.81876 
L 340.856288 147.111103 
L 342.777321 140.496583 
L 344.698354 143.977796 
L 350.461452 165.589017 
L 352.382485 170.118878 
L 354.303518 156.442821 
L 356.224551 171.155445 
L 363.908682 171.236452 
L 365.829715 150.666043 
L 367.750748 151.82393 
L 369.671781 170.400103 
L 371.592813 206.184312 
L 377.355912 198.281662 
L 379.276945 234.306597 
L 381.197977 229.95804 
L 383.11901 200.480643 
L 385.040043 246.397027 
L 390.803141 237.729819 
L 392.724174 233.08524 
L 394.645207 196.512515 
L 396.56624 240.511643 
L 398.487273 246.675487 
" style="fill:none;stroke:#ff0000;stroke-linecap:square;stroke-opacity:0.9;stroke-width:2;"/>
   </g>
   <g id="line2d_18">
    <path clip-path="url(#pb4a2a7407c)" d="M 73.832727 80.687029 
L 75.75376 82.690347 
L 81.516859 87.3631 
L 83.437891 84.884583 
L 85.358924 82.182648 
L 89.20099 110.916675 
L 94.964088 95.734018 
L 96.885121 120.446474 
L 98.806154 136.047485 
L 100.727187 115.277329 
L 102.648219 127.650025 
L 108.411318 111.762927 
L 110.332351 85.287874 
L 112.253384 80.515955 
L 114.174416 90.10792 
L 116.095449 77.469219 
L 121.858548 91.015499 
L 123.77958 99.44448 
L 125.700613 78.616794 
L 127.621646 91.401137 
L 129.542679 106.044326 
L 135.305777 121.319265 
L 137.22681 99.7733 
L 139.147843 85.88087 
L 141.068876 78.069659 
L 148.753007 59.652471 
L 150.67404 59.932767 
L 152.595073 59.034143 
L 154.516105 61.670993 
L 156.437138 65.330005 
L 162.200237 57.527529 
L 164.121269 57.728866 
L 166.042302 84.209528 
L 167.963335 85.281988 
L 169.884368 91.492944 
L 175.647466 92.319286 
L 177.568499 80.498678 
L 179.489532 76.93075 
L 181.410565 94.762178 
L 183.331598 94.756868 
L 191.015729 117.991469 
L 192.936762 132.139367 
L 194.857795 146.547115 
L 196.778827 171.015155 
L 202.541926 166.690995 
L 204.462959 181.585249 
L 206.383991 184.55387 
L 208.305024 191.089843 
L 210.226057 159.969229 
L 215.989155 136.787256 
L 217.910188 128.597564 
L 219.831221 115.932867 
L 221.752254 146.241337 
L 223.673287 139.831399 
L 229.436385 145.469103 
L 231.357418 134.167399 
L 233.278451 115.497373 
L 235.199484 138.945773 
L 237.120516 164.007463 
L 242.883615 168.238755 
L 244.804648 148.836006 
L 246.72568 146.879707 
L 248.646713 174.205333 
L 250.567746 182.231447 
L 258.251877 194.889442 
L 260.17291 217.029713 
L 262.093943 199.310482 
L 264.014976 171.594659 
L 269.778074 175.591534 
L 271.699107 194.300102 
L 273.62014 170.999744 
L 275.541173 178.136797 
L 277.462205 187.153359 
L 283.225304 224.572945 
L 285.146337 233.192274 
L 287.06737 202.084074 
L 288.988402 206.514578 
L 290.909435 221.875497 
L 296.672534 230.758109 
L 298.593566 205.00126 
L 300.514599 177.582838 
L 302.435632 161.992097 
L 304.356665 149.347082 
L 310.119763 150.646846 
L 312.040796 136.58239 
L 313.961829 152.941244 
L 315.882862 135.849151 
L 317.803895 129.295773 
L 323.566993 120.928343 
L 325.488026 104.168966 
L 327.409059 112.768354 
L 329.330091 132.156466 
L 331.251124 128.03842 
L 337.014223 116.952125 
L 338.935256 134.312015 
L 340.856288 146.400529 
L 342.777321 140.309021 
L 344.698354 144.391255 
L 350.461452 165.534317 
L 352.382485 170.043235 
L 354.303518 156.361831 
L 356.224551 171.33284 
L 363.908682 170.868592 
L 365.829715 150.878102 
L 367.750748 151.977469 
L 369.671781 170.312591 
L 371.592813 205.554605 
L 377.355912 198.04964 
L 379.276945 233.366536 
L 381.197977 229.96206 
L 383.11901 200.11086 
L 385.040043 245.373882 
L 390.803141 238.658987 
L 392.724174 232.726371 
L 394.645207 197.387674 
L 396.56624 240.820286 
L 398.487273 246.60642 
" style="fill:none;stroke:#008000;stroke-linecap:square;stroke-opacity:0.9;stroke-width:2;"/>
   </g>
   <g id="line2d_19">
    <path clip-path="url(#pb4a2a7407c)" d="M 73.832727 80.687029 
L 75.75376 82.435292 
L 81.516859 86.796133 
L 83.437891 84.971387 
L 85.358924 82.213622 
L 89.20099 110.884627 
L 94.964088 94.703206 
L 96.885121 120.601413 
L 98.806154 135.05382 
L 100.727187 116.114895 
L 102.648219 126.786409 
L 108.411318 111.406876 
L 110.332351 84.769412 
L 112.253384 81.485975 
L 114.174416 89.95094 
L 116.095449 77.216348 
L 121.858548 90.809032 
L 123.77958 100.44992 
L 125.700613 79.721954 
L 127.621646 90.871468 
L 129.542679 106.120455 
L 135.305777 121.636305 
L 137.22681 99.541064 
L 139.147843 86.124638 
L 141.068876 77.650903 
L 148.753007 58.425838 
L 150.67404 59.833656 
L 152.595073 58.420904 
L 154.516105 62.648973 
L 156.437138 66.185402 
L 162.200237 57.999074 
L 164.121269 58.135972 
L 166.042302 84.70806 
L 167.963335 85.459746 
L 169.884368 91.484757 
L 175.647466 92.782436 
L 177.568499 80.932397 
L 179.489532 76.203688 
L 181.410565 95.030501 
L 183.331598 94.827786 
L 191.015729 118.473615 
L 192.936762 132.110332 
L 194.857795 145.857887 
L 196.778827 171.427857 
L 202.541926 166.507167 
L 204.462959 181.432697 
L 206.383991 183.758592 
L 208.305024 190.248527 
L 210.226057 159.662864 
L 215.989155 137.315806 
L 217.910188 128.471489 
L 219.831221 116.131082 
L 221.752254 146.292289 
L 223.673287 140.253762 
L 229.436385 144.718271 
L 231.357418 134.814067 
L 233.278451 114.889371 
L 235.199484 138.981264 
L 237.120516 164.707884 
L 242.883615 168.167016 
L 244.804648 148.571927 
L 246.72568 146.474783 
L 248.646713 173.894659 
L 250.567746 182.160676 
L 258.251877 195.859669 
L 260.17291 217.270241 
L 262.093943 199.349635 
L 264.014976 172.071119 
L 269.778074 174.477184 
L 271.699107 194.177145 
L 273.62014 170.958734 
L 275.541173 177.362841 
L 277.462205 187.299989 
L 283.225304 223.715831 
L 285.146337 233.000297 
L 287.06737 202.281357 
L 288.988402 207.367096 
L 290.909435 222.480014 
L 296.672534 230.937921 
L 298.593566 204.510312 
L 300.514599 178.508368 
L 302.435632 162.026221 
L 304.356665 150.478046 
L 310.119763 151.155776 
L 312.040796 136.117131 
L 313.961829 152.003959 
L 315.882862 135.310366 
L 317.803895 129.694294 
L 323.566993 120.616245 
L 325.488026 103.625364 
L 327.409059 112.661372 
L 329.330091 132.80544 
L 331.251124 128.044655 
L 337.014223 117.706861 
L 338.935256 134.208192 
L 340.856288 146.640001 
L 342.777321 140.658325 
L 344.698354 143.483145 
L 350.461452 165.76174 
L 352.382485 171.023869 
L 354.303518 155.871219 
L 356.224551 171.511209 
L 363.908682 171.370555 
L 365.829715 150.844528 
L 367.750748 152.176339 
L 369.671781 171.510466 
L 371.592813 205.897318 
L 377.355912 198.856547 
L 379.276945 233.364989 
L 381.197977 230.666468 
L 383.11901 200.672844 
L 385.040043 245.40299 
L 390.803141 237.777119 
L 392.724174 232.744914 
L 394.645207 197.085645 
L 396.56624 240.316294 
L 398.487273 247.473118 
" style="fill:none;stroke:#ec5283;stroke-linecap:square;stroke-width:2;"/>
   </g>
   <g id="line2d_20">
    <path clip-path="url(#pb4a2a7407c)" d="M 73.832727 80.687029 
L 75.75376 83.166146 
L 81.516859 87.477642 
L 83.437891 85.459805 
L 85.358924 81.2921 
L 89.20099 111.014983 
L 94.964088 95.016301 
L 96.885121 120.900915 
L 98.806154 135.905741 
L 100.727187 115.979624 
L 102.648219 127.796116 
L 108.411318 112.112871 
L 110.332351 84.383076 
L 112.253384 81.491028 
L 114.174416 89.974665 
L 116.095449 78.241243 
L 121.858548 91.081192 
L 123.77958 99.311766 
L 125.700613 79.256744 
L 127.621646 90.948728 
L 129.542679 105.914349 
L 135.305777 121.449673 
L 137.22681 99.872128 
L 139.147843 86.16528 
L 141.068876 78.574783 
L 148.753007 58.427463 
L 150.67404 59.926028 
L 152.595073 57.867805 
L 154.516105 62.599658 
L 156.437138 66.551383 
L 162.200237 57.893711 
L 164.121269 58.234343 
L 166.042302 84.248034 
L 167.963335 86.22366 
L 169.884368 91.118982 
L 175.647466 93.294671 
L 177.568499 80.317218 
L 179.489532 77.392396 
L 181.410565 95.334031 
L 183.331598 95.17127 
L 191.015729 118.226568 
L 192.936762 131.676903 
L 194.857795 145.751263 
L 196.778827 171.614842 
L 202.541926 166.526487 
L 204.462959 181.367087 
L 206.383991 184.401474 
L 208.305024 190.363543 
L 210.226057 160.529008 
L 215.989155 137.66246 
L 217.910188 128.492099 
L 219.831221 115.574606 
L 221.752254 146.756376 
L 223.673287 139.838835 
L 229.436385 145.049676 
L 231.357418 134.358136 
L 233.278451 115.733471 
L 235.199484 139.236478 
L 237.120516 163.897394 
L 242.883615 168.808842 
L 244.804648 147.942032 
L 246.72568 146.542991 
L 248.646713 173.295429 
L 250.567746 182.185303 
L 258.251877 194.849226 
L 260.17291 218.067795 
L 262.093943 198.504781 
L 264.014976 172.667007 
L 269.778074 175.792631 
L 271.699107 194.348375 
L 273.62014 171.943741 
L 275.541173 177.891402 
L 277.462205 188.043115 
L 283.225304 224.599526 
L 285.146337 232.794821 
L 287.06737 201.278638 
L 288.988402 206.674011 
L 290.909435 222.332676 
L 296.672534 230.666022 
L 298.593566 204.630345 
L 300.514599 177.936619 
L 302.435632 162.434163 
L 304.356665 149.732792 
L 310.119763 150.739737 
L 312.040796 136.760486 
L 313.961829 152.794501 
L 315.882862 136.406056 
L 317.803895 129.612488 
L 323.566993 120.475382 
L 325.488026 103.688634 
L 327.409059 112.853401 
L 329.330091 131.834707 
L 331.251124 128.46462 
L 337.014223 117.583504 
L 338.935256 134.078304 
L 340.856288 146.412441 
L 342.777321 140.759366 
L 344.698354 144.139746 
L 350.461452 165.380468 
L 352.382485 170.991887 
L 354.303518 155.687514 
L 356.224551 172.328485 
L 363.908682 170.921589 
L 365.829715 150.687097 
L 367.750748 152.276063 
L 369.671781 171.15464 
L 371.592813 205.24774 
L 377.355912 198.422012 
L 379.276945 233.810782 
L 381.197977 230.424209 
L 383.11901 200.555148 
L 385.040043 245.600614 
L 390.803141 238.293841 
L 392.724174 232.473142 
L 394.645207 197.048213 
L 396.56624 239.883609 
L 398.487273 246.954244 
" style="fill:none;stroke:#00ff00;stroke-linecap:square;stroke-opacity:0.9;stroke-width:2;"/>
   </g>
   <g id="line2d_21">
    <path clip-path="url(#pb4a2a7407c)" d="M 73.832727 80.687029 
L 75.75376 83.418662 
L 81.516859 87.438681 
L 83.437891 84.709176 
L 85.358924 81.719697 
L 89.20099 111.050367 
L 94.964088 94.45177 
L 96.885121 119.82838 
L 98.806154 135.845252 
L 100.727187 115.041283 
L 102.648219 127.024022 
L 108.411318 112.366155 
L 110.332351 84.597119 
L 112.253384 80.926744 
L 114.174416 90.216138 
L 116.095449 77.865804 
L 121.858548 89.39086 
L 123.77958 98.96762 
L 125.700613 77.583022 
L 127.621646 89.378423 
L 129.542679 103.500698 
L 135.305777 117.239614 
L 137.22681 94.948738 
L 139.147843 81.260128 
L 141.068876 72.570221 
L 148.753007 53.42307 
L 150.67404 54.762763 
L 152.595073 52.62091 
L 154.516105 57.088347 
L 156.437138 60.888158 
L 162.200237 52.517921 
L 164.121269 52.154182 
L 166.042302 79.01281 
L 167.963335 79.933683 
L 169.884368 85.380018 
L 175.647466 87.733544 
L 177.568499 74.696972 
L 179.489532 71.820835 
L 181.410565 89.363175 
L 183.331598 89.574122 
L 191.015729 112.918021 
L 192.936762 126.705111 
L 194.857795 141.411643 
L 196.778827 166.441767 
L 202.541926 160.617808 
L 204.462959 175.989406 
L 206.383991 178.774688 
L 208.305024 184.90579 
L 210.226057 154.211898 
L 215.989155 132.34932 
L 217.910188 122.705792 
L 219.831221 110.073333 
L 221.752254 141.579282 
L 223.673287 134.23847 
L 229.436385 138.564822 
L 231.357418 129.350177 
L 233.278451 109.172381 
L 235.199484 133.21461 
L 237.120516 158.955833 
L 242.883615 162.274008 
L 244.804648 142.387627 
L 246.72568 141.308226 
L 248.646713 167.710981 
L 250.567746 175.927466 
L 258.251877 189.336339 
L 260.17291 211.916581 
L 262.093943 192.897413 
L 264.014976 165.861057 
L 269.778074 168.712189 
L 271.699107 188.239221 
L 273.62014 165.775499 
L 275.541173 171.620407 
L 277.462205 181.764927 
L 283.225304 218.163762 
L 285.146337 227.154912 
L 287.06737 195.000843 
L 288.988402 200.674429 
L 290.909435 216.475183 
L 296.672534 225.074498 
L 298.593566 199.498347 
L 300.514599 171.484976 
L 302.435632 156.107496 
L 304.356665 142.521706 
L 310.119763 142.038234 
L 312.040796 127.570062 
L 313.961829 143.42948 
L 315.882862 124.978927 
L 317.803895 118.23242 
L 323.566993 108.759631 
L 325.488026 92.92718 
L 327.409059 101.116123 
L 329.330091 120.76554 
L 331.251124 117.732989 
L 337.014223 105.885911 
L 338.935256 122.886402 
L 340.856288 135.935981 
L 342.777321 129.152029 
L 344.698354 132.909394 
L 350.461452 154.492303 
L 352.382485 160.106914 
L 354.303518 145.602234 
L 356.224551 161.238245 
L 363.908682 161.185994 
L 365.829715 140.642915 
L 367.750748 141.848081 
L 369.671781 159.728061 
L 371.592813 194.467488 
L 377.355912 188.182293 
L 379.276945 223.317301 
L 381.197977 219.699983 
L 383.11901 189.922358 
L 385.040043 234.784142 
L 390.803141 227.208607 
L 392.724174 222.616068 
L 394.645207 185.504608 
L 396.56624 230.430644 
L 398.487273 236.36809 
" style="fill:none;stroke:#a5b9cf;stroke-linecap:square;stroke-width:2;"/>
   </g>
   <g id="patch_3">
    <path d="M 57.6 276.48 
L 57.6 41.472 
" style="fill:none;stroke:#000000;stroke-linecap:square;stroke-linejoin:miter;stroke-width:0.8;"/>
   </g>
   <g id="patch_4">
    <path d="M 414.72 276.48 
L 414.72 41.472 
" style="fill:none;stroke:#000000;stroke-linecap:square;stroke-linejoin:miter;stroke-width:0.8;"/>
   </g>
   <g id="patch_5">
    <path d="M 57.6 276.48 
L 414.72 276.48 
" style="fill:none;stroke:#000000;stroke-linecap:square;stroke-linejoin:miter;stroke-width:0.8;"/>
   </g>
   <g id="patch_6">
    <path d="M 57.6 41.472 
L 414.72 41.472 
" style="fill:none;stroke:#000000;stroke-linecap:square;stroke-linejoin:miter;stroke-width:0.8;"/>
   </g>
   <g id="text_17">
    <!-- SP500 -->
    <g transform="translate(217.280625 22.034625)scale(0.12 -0.12)">
     <defs>
      <path d="M 3425 4513 
L 3425 3897 
Q 3066 4069 2747 4153 
Q 2428 4238 2131 4238 
Q 1616 4238 1336 4038 
Q 1056 3838 1056 3469 
Q 1056 3159 1242 3001 
Q 1428 2844 1947 2747 
L 2328 2669 
Q 3034 2534 3370 2195 
Q 3706 1856 3706 1288 
Q 3706 609 3251 259 
Q 2797 -91 1919 -91 
Q 1588 -91 1214 -16 
Q 841 59 441 206 
L 441 856 
Q 825 641 1194 531 
Q 1563 422 1919 422 
Q 2459 422 2753 634 
Q 3047 847 3047 1241 
Q 3047 1584 2836 1778 
Q 2625 1972 2144 2069 
L 1759 2144 
Q 1053 2284 737 2584 
Q 422 2884 422 3419 
Q 422 4038 858 4394 
Q 1294 4750 2059 4750 
Q 2388 4750 2728 4690 
Q 3069 4631 3425 4513 
z
" id="DejaVuSans-53" transform="scale(0.015625)"/>
      <path d="M 1259 4147 
L 1259 2394 
L 2053 2394 
Q 2494 2394 2734 2622 
Q 2975 2850 2975 3272 
Q 2975 3691 2734 3919 
Q 2494 4147 2053 4147 
L 1259 4147 
z
M 628 4666 
L 2053 4666 
Q 2838 4666 3239 4311 
Q 3641 3956 3641 3272 
Q 3641 2581 3239 2228 
Q 2838 1875 2053 1875 
L 1259 1875 
L 1259 0 
L 628 0 
L 628 4666 
z
" id="DejaVuSans-50" transform="scale(0.015625)"/>
     </defs>
     <use xlink:href="#DejaVuSans-53"/>
     <use x="63.476562" xlink:href="#DejaVuSans-50"/>
     <use x="123.779297" xlink:href="#DejaVuSans-35"/>
     <use x="187.402344" xlink:href="#DejaVuSans-30"/>
     <use x="251.025391" xlink:href="#DejaVuSans-30"/>
    </g>
    <!-- daily_report -->
    <g transform="translate(200.466563 35.472)scale(0.12 -0.12)">
     <defs>
      <path d="M 603 3500 
L 1178 3500 
L 1178 0 
L 603 0 
L 603 3500 
z
M 603 4863 
L 1178 4863 
L 1178 4134 
L 603 4134 
L 603 4863 
z
" id="DejaVuSans-69" transform="scale(0.015625)"/>
      <path d="M 603 4863 
L 1178 4863 
L 1178 0 
L 603 0 
L 603 4863 
z
" id="DejaVuSans-6c" transform="scale(0.015625)"/>
      <path d="M 2059 -325 
Q 1816 -950 1584 -1140 
Q 1353 -1331 966 -1331 
L 506 -1331 
L 506 -850 
L 844 -850 
Q 1081 -850 1212 -737 
Q 1344 -625 1503 -206 
L 1606 56 
L 191 3500 
L 800 3500 
L 1894 763 
L 2988 3500 
L 3597 3500 
L 2059 -325 
z
" id="DejaVuSans-79" transform="scale(0.015625)"/>
      <path d="M 3263 -1063 
L 3263 -1509 
L -63 -1509 
L -63 -1063 
L 3263 -1063 
z
" id="DejaVuSans-5f" transform="scale(0.015625)"/>
      <path d="M 2631 2963 
Q 2534 3019 2420 3045 
Q 2306 3072 2169 3072 
Q 1681 3072 1420 2755 
Q 1159 2438 1159 1844 
L 1159 0 
L 581 0 
L 581 3500 
L 1159 3500 
L 1159 2956 
Q 1341 3275 1631 3429 
Q 1922 3584 2338 3584 
Q 2397 3584 2469 3576 
Q 2541 3569 2628 3553 
L 2631 2963 
z
" id="DejaVuSans-72" transform="scale(0.015625)"/>
      <path d="M 1159 525 
L 1159 -1331 
L 581 -1331 
L 581 3500 
L 1159 3500 
L 1159 2969 
Q 1341 3281 1617 3432 
Q 1894 3584 2278 3584 
Q 2916 3584 3314 3078 
Q 3713 2572 3713 1747 
Q 3713 922 3314 415 
Q 2916 -91 2278 -91 
Q 1894 -91 1617 61 
Q 1341 213 1159 525 
z
M 3116 1747 
Q 3116 2381 2855 2742 
Q 2594 3103 2138 3103 
Q 1681 3103 1420 2742 
Q 1159 2381 1159 1747 
Q 1159 1113 1420 752 
Q 1681 391 2138 391 
Q 2594 391 2855 752 
Q 3116 1113 3116 1747 
z
" id="DejaVuSans-70" transform="scale(0.015625)"/>
      <path d="M 1959 3097 
Q 1497 3097 1228 2736 
Q 959 2375 959 1747 
Q 959 1119 1226 758 
Q 1494 397 1959 397 
Q 2419 397 2687 759 
Q 2956 1122 2956 1747 
Q 2956 2369 2687 2733 
Q 2419 3097 1959 3097 
z
M 1959 3584 
Q 2709 3584 3137 3096 
Q 3566 2609 3566 1747 
Q 3566 888 3137 398 
Q 2709 -91 1959 -91 
Q 1206 -91 779 398 
Q 353 888 353 1747 
Q 353 2609 779 3096 
Q 1206 3584 1959 3584 
z
" id="DejaVuSans-6f" transform="scale(0.015625)"/>
     </defs>
     <use xlink:href="#DejaVuSans-64"/>
     <use x="63.476562" xlink:href="#DejaVuSans-61"/>
     <use x="124.755859" xlink:href="#DejaVuSans-69"/>
     <use x="152.539062" xlink:href="#DejaVuSans-6c"/>
     <use x="180.322266" xlink:href="#DejaVuSans-79"/>
     <use x="239.501953" xlink:href="#DejaVuSans-5f"/>
     <use x="289.501953" xlink:href="#DejaVuSans-72"/>
     <use x="328.365234" xlink:href="#DejaVuSans-65"/>
     <use x="389.888672" xlink:href="#DejaVuSans-70"/>
     <use x="453.365234" xlink:href="#DejaVuSans-6f"/>
     <use x="514.546875" xlink:href="#DejaVuSans-72"/>
     <use x="555.660156" xlink:href="#DejaVuSans-74"/>
    </g>
   </g>
   <g id="legend_1">
    <g id="patch_7">
     <path d="M 64.6 271.48 
L 178.64375 271.48 
Q 180.64375 271.48 180.64375 269.48 
L 180.64375 182.41125 
Q 180.64375 180.41125 178.64375 180.41125 
L 64.6 180.41125 
Q 62.6 180.41125 62.6 182.41125 
L 62.6 269.48 
Q 62.6 271.48 64.6 271.48 
z
" style="fill:#ffffff;opacity:0.8;stroke:#cccccc;stroke-linejoin:miter;"/>
    </g>
    <g id="line2d_22">
     <path d="M 66.6 188.509687 
L 86.6 188.509687 
" style="fill:none;stroke:#0000ff;stroke-linecap:square;stroke-opacity:0.9;stroke-width:2;"/>
    </g>
    <g id="line2d_23"/>
    <g id="text_18">
     <!-- alpaca -->
     <g transform="translate(94.6 192.009687)scale(0.1 -0.1)">
      <defs>
       <path d="M 3122 3366 
L 3122 2828 
Q 2878 2963 2633 3030 
Q 2388 3097 2138 3097 
Q 1578 3097 1268 2742 
Q 959 2388 959 1747 
Q 959 1106 1268 751 
Q 1578 397 2138 397 
Q 2388 397 2633 464 
Q 2878 531 3122 666 
L 3122 134 
Q 2881 22 2623 -34 
Q 2366 -91 2075 -91 
Q 1284 -91 818 406 
Q 353 903 353 1747 
Q 353 2603 823 3093 
Q 1294 3584 2113 3584 
Q 2378 3584 2631 3529 
Q 2884 3475 3122 3366 
z
" id="DejaVuSans-63" transform="scale(0.015625)"/>
      </defs>
      <use xlink:href="#DejaVuSans-61"/>
      <use x="61.279297" xlink:href="#DejaVuSans-6c"/>
      <use x="89.0625" xlink:href="#DejaVuSans-70"/>
      <use x="152.539062" xlink:href="#DejaVuSans-61"/>
      <use x="213.818359" xlink:href="#DejaVuSans-63"/>
      <use x="268.798828" xlink:href="#DejaVuSans-61"/>
     </g>
    </g>
    <g id="line2d_24">
     <path d="M 66.6 203.187812 
L 86.6 203.187812 
" style="fill:none;stroke:#ff0000;stroke-linecap:square;stroke-opacity:0.9;stroke-width:2;"/>
    </g>
    <g id="line2d_25"/>
    <g id="text_19">
     <!-- mattress -->
     <g transform="translate(94.6 206.687812)scale(0.1 -0.1)">
      <defs>
       <path d="M 3328 2828 
Q 3544 3216 3844 3400 
Q 4144 3584 4550 3584 
Q 5097 3584 5394 3201 
Q 5691 2819 5691 2113 
L 5691 0 
L 5113 0 
L 5113 2094 
Q 5113 2597 4934 2840 
Q 4756 3084 4391 3084 
Q 3944 3084 3684 2787 
Q 3425 2491 3425 1978 
L 3425 0 
L 2847 0 
L 2847 2094 
Q 2847 2600 2669 2842 
Q 2491 3084 2119 3084 
Q 1678 3084 1418 2786 
Q 1159 2488 1159 1978 
L 1159 0 
L 581 0 
L 581 3500 
L 1159 3500 
L 1159 2956 
Q 1356 3278 1631 3431 
Q 1906 3584 2284 3584 
Q 2666 3584 2933 3390 
Q 3200 3197 3328 2828 
z
" id="DejaVuSans-6d" transform="scale(0.015625)"/>
       <path d="M 2834 3397 
L 2834 2853 
Q 2591 2978 2328 3040 
Q 2066 3103 1784 3103 
Q 1356 3103 1142 2972 
Q 928 2841 928 2578 
Q 928 2378 1081 2264 
Q 1234 2150 1697 2047 
L 1894 2003 
Q 2506 1872 2764 1633 
Q 3022 1394 3022 966 
Q 3022 478 2636 193 
Q 2250 -91 1575 -91 
Q 1294 -91 989 -36 
Q 684 19 347 128 
L 347 722 
Q 666 556 975 473 
Q 1284 391 1588 391 
Q 1994 391 2212 530 
Q 2431 669 2431 922 
Q 2431 1156 2273 1281 
Q 2116 1406 1581 1522 
L 1381 1569 
Q 847 1681 609 1914 
Q 372 2147 372 2553 
Q 372 3047 722 3315 
Q 1072 3584 1716 3584 
Q 2034 3584 2315 3537 
Q 2597 3491 2834 3397 
z
" id="DejaVuSans-73" transform="scale(0.015625)"/>
      </defs>
      <use xlink:href="#DejaVuSans-6d"/>
      <use x="97.412109" xlink:href="#DejaVuSans-61"/>
      <use x="158.691406" xlink:href="#DejaVuSans-74"/>
      <use x="197.900391" xlink:href="#DejaVuSans-74"/>
      <use x="237.109375" xlink:href="#DejaVuSans-72"/>
      <use x="275.972656" xlink:href="#DejaVuSans-65"/>
      <use x="337.496094" xlink:href="#DejaVuSans-73"/>
      <use x="389.595703" xlink:href="#DejaVuSans-73"/>
     </g>
    </g>
    <g id="line2d_26">
     <path d="M 66.6 217.865937 
L 86.6 217.865937 
" style="fill:none;stroke:#008000;stroke-linecap:square;stroke-opacity:0.9;stroke-width:2;"/>
    </g>
    <g id="line2d_27"/>
    <g id="text_20">
     <!-- daily-open-rebal -->
     <g transform="translate(94.6 221.365937)scale(0.1 -0.1)">
      <defs>
       <path d="M 3513 2113 
L 3513 0 
L 2938 0 
L 2938 2094 
Q 2938 2591 2744 2837 
Q 2550 3084 2163 3084 
Q 1697 3084 1428 2787 
Q 1159 2491 1159 1978 
L 1159 0 
L 581 0 
L 581 3500 
L 1159 3500 
L 1159 2956 
Q 1366 3272 1645 3428 
Q 1925 3584 2291 3584 
Q 2894 3584 3203 3211 
Q 3513 2838 3513 2113 
z
" id="DejaVuSans-6e" transform="scale(0.015625)"/>
       <path d="M 3116 1747 
Q 3116 2381 2855 2742 
Q 2594 3103 2138 3103 
Q 1681 3103 1420 2742 
Q 1159 2381 1159 1747 
Q 1159 1113 1420 752 
Q 1681 391 2138 391 
Q 2594 391 2855 752 
Q 3116 1113 3116 1747 
z
M 1159 2969 
Q 1341 3281 1617 3432 
Q 1894 3584 2278 3584 
Q 2916 3584 3314 3078 
Q 3713 2572 3713 1747 
Q 3713 922 3314 415 
Q 2916 -91 2278 -91 
Q 1894 -91 1617 61 
Q 1341 213 1159 525 
L 1159 0 
L 581 0 
L 581 4863 
L 1159 4863 
L 1159 2969 
z
" id="DejaVuSans-62" transform="scale(0.015625)"/>
      </defs>
      <use xlink:href="#DejaVuSans-64"/>
      <use x="63.476562" xlink:href="#DejaVuSans-61"/>
      <use x="124.755859" xlink:href="#DejaVuSans-69"/>
      <use x="152.539062" xlink:href="#DejaVuSans-6c"/>
      <use x="180.322266" xlink:href="#DejaVuSans-79"/>
      <use x="237.751953" xlink:href="#DejaVuSans-2d"/>
      <use x="275.710938" xlink:href="#DejaVuSans-6f"/>
      <use x="336.892578" xlink:href="#DejaVuSans-70"/>
      <use x="400.369141" xlink:href="#DejaVuSans-65"/>
      <use x="461.892578" xlink:href="#DejaVuSans-6e"/>
      <use x="525.271484" xlink:href="#DejaVuSans-2d"/>
      <use x="561.355469" xlink:href="#DejaVuSans-72"/>
      <use x="600.21875" xlink:href="#DejaVuSans-65"/>
      <use x="661.742188" xlink:href="#DejaVuSans-62"/>
      <use x="725.21875" xlink:href="#DejaVuSans-61"/>
      <use x="786.498047" xlink:href="#DejaVuSans-6c"/>
     </g>
    </g>
    <g id="line2d_28">
     <path d="M 66.6 232.544062 
L 86.6 232.544062 
" style="fill:none;stroke:#ec5283;stroke-linecap:square;stroke-width:2;"/>
    </g>
    <g id="line2d_29"/>
    <g id="text_21">
     <!-- daily-close-rebal -->
     <g transform="translate(94.6 236.044062)scale(0.1 -0.1)">
      <use xlink:href="#DejaVuSans-64"/>
      <use x="63.476562" xlink:href="#DejaVuSans-61"/>
      <use x="124.755859" xlink:href="#DejaVuSans-69"/>
      <use x="152.539062" xlink:href="#DejaVuSans-6c"/>
      <use x="180.322266" xlink:href="#DejaVuSans-79"/>
      <use x="237.751953" xlink:href="#DejaVuSans-2d"/>
      <use x="273.835938" xlink:href="#DejaVuSans-63"/>
      <use x="328.816406" xlink:href="#DejaVuSans-6c"/>
      <use x="356.599609" xlink:href="#DejaVuSans-6f"/>
      <use x="417.78125" xlink:href="#DejaVuSans-73"/>
      <use x="469.880859" xlink:href="#DejaVuSans-65"/>
      <use x="531.404297" xlink:href="#DejaVuSans-2d"/>
      <use x="567.488281" xlink:href="#DejaVuSans-72"/>
      <use x="606.351562" xlink:href="#DejaVuSans-65"/>
      <use x="667.875" xlink:href="#DejaVuSans-62"/>
      <use x="731.351562" xlink:href="#DejaVuSans-61"/>
      <use x="792.630859" xlink:href="#DejaVuSans-6c"/>
     </g>
    </g>
    <g id="line2d_30">
     <path d="M 66.6 247.222187 
L 86.6 247.222187 
" style="fill:none;stroke:#00ff00;stroke-linecap:square;stroke-opacity:0.9;stroke-width:2;"/>
    </g>
    <g id="line2d_31"/>
    <g id="text_22">
     <!-- trader-baseline -->
     <g transform="translate(94.6 250.722187)scale(0.1 -0.1)">
      <use xlink:href="#DejaVuSans-74"/>
      <use x="39.208984" xlink:href="#DejaVuSans-72"/>
      <use x="80.322266" xlink:href="#DejaVuSans-61"/>
      <use x="141.601562" xlink:href="#DejaVuSans-64"/>
      <use x="205.078125" xlink:href="#DejaVuSans-65"/>
      <use x="266.601562" xlink:href="#DejaVuSans-72"/>
      <use x="301.339844" xlink:href="#DejaVuSans-2d"/>
      <use x="337.423828" xlink:href="#DejaVuSans-62"/>
      <use x="400.900391" xlink:href="#DejaVuSans-61"/>
      <use x="462.179688" xlink:href="#DejaVuSans-73"/>
      <use x="514.279297" xlink:href="#DejaVuSans-65"/>
      <use x="575.802734" xlink:href="#DejaVuSans-6c"/>
      <use x="603.585938" xlink:href="#DejaVuSans-69"/>
      <use x="631.369141" xlink:href="#DejaVuSans-6e"/>
      <use x="694.748047" xlink:href="#DejaVuSans-65"/>
     </g>
    </g>
    <g id="line2d_32">
     <path d="M 66.6 261.900312 
L 86.6 261.900312 
" style="fill:none;stroke:#a5b9cf;stroke-linecap:square;stroke-width:2;"/>
    </g>
    <g id="line2d_33"/>
    <g id="text_23">
     <!-- default-cfg -->
     <g transform="translate(94.6 265.400312)scale(0.1 -0.1)">
      <defs>
       <path d="M 2375 4863 
L 2375 4384 
L 1825 4384 
Q 1516 4384 1395 4259 
Q 1275 4134 1275 3809 
L 1275 3500 
L 2222 3500 
L 2222 3053 
L 1275 3053 
L 1275 0 
L 697 0 
L 697 3053 
L 147 3053 
L 147 3500 
L 697 3500 
L 697 3744 
Q 697 4328 969 4595 
Q 1241 4863 1831 4863 
L 2375 4863 
z
" id="DejaVuSans-66" transform="scale(0.015625)"/>
       <path d="M 544 1381 
L 544 3500 
L 1119 3500 
L 1119 1403 
Q 1119 906 1312 657 
Q 1506 409 1894 409 
Q 2359 409 2629 706 
Q 2900 1003 2900 1516 
L 2900 3500 
L 3475 3500 
L 3475 0 
L 2900 0 
L 2900 538 
Q 2691 219 2414 64 
Q 2138 -91 1772 -91 
Q 1169 -91 856 284 
Q 544 659 544 1381 
z
M 1991 3584 
L 1991 3584 
z
" id="DejaVuSans-75" transform="scale(0.015625)"/>
       <path d="M 2906 1791 
Q 2906 2416 2648 2759 
Q 2391 3103 1925 3103 
Q 1463 3103 1205 2759 
Q 947 2416 947 1791 
Q 947 1169 1205 825 
Q 1463 481 1925 481 
Q 2391 481 2648 825 
Q 2906 1169 2906 1791 
z
M 3481 434 
Q 3481 -459 3084 -895 
Q 2688 -1331 1869 -1331 
Q 1566 -1331 1297 -1286 
Q 1028 -1241 775 -1147 
L 775 -588 
Q 1028 -725 1275 -790 
Q 1522 -856 1778 -856 
Q 2344 -856 2625 -561 
Q 2906 -266 2906 331 
L 2906 616 
Q 2728 306 2450 153 
Q 2172 0 1784 0 
Q 1141 0 747 490 
Q 353 981 353 1791 
Q 353 2603 747 3093 
Q 1141 3584 1784 3584 
Q 2172 3584 2450 3431 
Q 2728 3278 2906 2969 
L 2906 3500 
L 3481 3500 
L 3481 434 
z
" id="DejaVuSans-67" transform="scale(0.015625)"/>
      </defs>
      <use xlink:href="#DejaVuSans-64"/>
      <use x="63.476562" xlink:href="#DejaVuSans-65"/>
      <use x="125" xlink:href="#DejaVuSans-66"/>
      <use x="160.205078" xlink:href="#DejaVuSans-61"/>
      <use x="221.484375" xlink:href="#DejaVuSans-75"/>
      <use x="284.863281" xlink:href="#DejaVuSans-6c"/>
      <use x="312.646484" xlink:href="#DejaVuSans-74"/>
      <use x="351.855469" xlink:href="#DejaVuSans-2d"/>
      <use x="387.939453" xlink:href="#DejaVuSans-63"/>
      <use x="442.919922" xlink:href="#DejaVuSans-66"/>
      <use x="478.125" xlink:href="#DejaVuSans-67"/>
     </g>
    </g>
   </g>
  </g>
 </g>
 <defs>
  <clipPath id="pb4a2a7407c">
   <rect height="235.008" width="357.12" x="57.6" y="41.472"/>
  </clipPath>
 </defs>
</svg>
