<?xml version="1.0" encoding="utf-8" standalone="no"?>
<!DOCTYPE svg PUBLIC "-//W3C//DTD SVG 1.1//EN"
  "http://www.w3.org/Graphics/SVG/1.1/DTD/svg11.dtd">
<svg height="345.6pt" version="1.1" viewBox="0 0 460.8 345.6" width="460.8pt" xmlns="http://www.w3.org/2000/svg" xmlns:xlink="http://www.w3.org/1999/xlink">
 <metadata>
  <rdf:RDF xmlns:cc="http://creativecommons.org/ns#" xmlns:dc="http://purl.org/dc/elements/1.1/" xmlns:rdf="http://www.w3.org/1999/02/22-rdf-syntax-ns#">
   <cc:Work>
    <dc:type rdf:resource="http://purl.org/dc/dcmitype/StillImage"/>
    <dc:date>2022-04-27T10:01:27.697919</dc:date>
    <dc:format>image/svg+xml</dc:format>
    <dc:creator>
     <cc:Agent>
      <dc:title>Matplotlib v3.4.3, https://matplotlib.org/</dc:title>
     </cc:Agent>
    </dc:creator>
   </cc:Work>
  </rdf:RDF>
 </metadata>
 <defs>
  <style type="text/css">*{stroke-linecap:butt;stroke-linejoin:round;}</style>
 </defs>
 <g id="figure_1">
  <g id="patch_1">
   <path d="M 0 345.6 
L 460.8 345.6 
L 460.8 0 
L 0 0 
z
" style="fill:#ffffff;"/>
  </g>
  <g id="axes_1">
   <g id="patch_2">
    <path d="M 57.6 276.48 
L 414.72 276.48 
L 414.72 41.472 
L 57.6 41.472 
z
" style="fill:#ffffff;"/>
   </g>
   <g id="matplotlib.axis_1">
    <g id="xtick_1">
     <g id="line2d_1">
      <defs>
       <path d="M 0 0 
L 0 3.5 
" id="mca7c5bc1d7" style="stroke:#000000;stroke-width:0.8;"/>
      </defs>
      <g>
       <use style="stroke:#000000;stroke-width:0.8;" x="100.37681" xlink:href="#mca7c5bc1d7" y="276.48"/>
      </g>
     </g>
     <g id="text_1">
      <!-- 2021-12 -->
      <g transform="translate(63.151989 310.951846)rotate(-30)scale(0.1 -0.1)">
       <defs>
        <path d="M 1228 531 
L 3431 531 
L 3431 0 
L 469 0 
L 469 531 
Q 828 903 1448 1529 
Q 2069 2156 2228 2338 
Q 2531 2678 2651 2914 
Q 2772 3150 2772 3378 
Q 2772 3750 2511 3984 
Q 2250 4219 1831 4219 
Q 1534 4219 1204 4116 
Q 875 4013 500 3803 
L 500 4441 
Q 881 4594 1212 4672 
Q 1544 4750 1819 4750 
Q 2544 4750 2975 4387 
Q 3406 4025 3406 3419 
Q 3406 3131 3298 2873 
Q 3191 2616 2906 2266 
Q 2828 2175 2409 1742 
Q 1991 1309 1228 531 
z
" id="DejaVuSans-32" transform="scale(0.015625)"/>
        <path d="M 2034 4250 
Q 1547 4250 1301 3770 
Q 1056 3291 1056 2328 
Q 1056 1369 1301 889 
Q 1547 409 2034 409 
Q 2525 409 2770 889 
Q 3016 1369 3016 2328 
Q 3016 3291 2770 3770 
Q 2525 4250 2034 4250 
z
M 2034 4750 
Q 2819 4750 3233 4129 
Q 3647 3509 3647 2328 
Q 3647 1150 3233 529 
Q 2819 -91 2034 -91 
Q 1250 -91 836 529 
Q 422 1150 422 2328 
Q 422 3509 836 4129 
Q 1250 4750 2034 4750 
z
" id="DejaVuSans-30" transform="scale(0.015625)"/>
        <path d="M 794 531 
L 1825 531 
L 1825 4091 
L 703 3866 
L 703 4441 
L 1819 4666 
L 2450 4666 
L 2450 531 
L 3481 531 
L 3481 0 
L 794 0 
L 794 531 
z
" id="DejaVuSans-31" transform="scale(0.015625)"/>
        <path d="M 313 2009 
L 1997 2009 
L 1997 1497 
L 313 1497 
L 313 2009 
z
" id="DejaVuSans-2d" transform="scale(0.015625)"/>
       </defs>
       <use xlink:href="#DejaVuSans-32"/>
       <use x="63.623047" xlink:href="#DejaVuSans-30"/>
       <use x="127.246094" xlink:href="#DejaVuSans-32"/>
       <use x="190.869141" xlink:href="#DejaVuSans-31"/>
       <use x="254.492188" xlink:href="#DejaVuSans-2d"/>
       <use x="290.576172" xlink:href="#DejaVuSans-31"/>
       <use x="354.199219" xlink:href="#DejaVuSans-32"/>
      </g>
     </g>
    </g>
    <g id="xtick_2">
     <g id="line2d_2">
      <g>
       <use style="stroke:#000000;stroke-width:0.8;" x="163.674237" xlink:href="#mca7c5bc1d7" y="276.48"/>
      </g>
     </g>
     <g id="text_2">
      <!-- 2022-01 -->
      <g transform="translate(126.449416 310.951846)rotate(-30)scale(0.1 -0.1)">
       <use xlink:href="#DejaVuSans-32"/>
       <use x="63.623047" xlink:href="#DejaVuSans-30"/>
       <use x="127.246094" xlink:href="#DejaVuSans-32"/>
       <use x="190.869141" xlink:href="#DejaVuSans-32"/>
       <use x="254.492188" xlink:href="#DejaVuSans-2d"/>
       <use x="290.576172" xlink:href="#DejaVuSans-30"/>
       <use x="354.199219" xlink:href="#DejaVuSans-31"/>
      </g>
     </g>
    </g>
    <g id="xtick_3">
     <g id="line2d_3">
      <g>
       <use style="stroke:#000000;stroke-width:0.8;" x="226.971664" xlink:href="#mca7c5bc1d7" y="276.48"/>
      </g>
     </g>
     <g id="text_3">
      <!-- 2022-02 -->
      <g transform="translate(189.746843 310.951846)rotate(-30)scale(0.1 -0.1)">
       <use xlink:href="#DejaVuSans-32"/>
       <use x="63.623047" xlink:href="#DejaVuSans-30"/>
       <use x="127.246094" xlink:href="#DejaVuSans-32"/>
       <use x="190.869141" xlink:href="#DejaVuSans-32"/>
       <use x="254.492188" xlink:href="#DejaVuSans-2d"/>
       <use x="290.576172" xlink:href="#DejaVuSans-30"/>
       <use x="354.199219" xlink:href="#DejaVuSans-32"/>
      </g>
     </g>
    </g>
    <g id="xtick_4">
     <g id="line2d_4">
      <g>
       <use style="stroke:#000000;stroke-width:0.8;" x="284.143533" xlink:href="#mca7c5bc1d7" y="276.48"/>
      </g>
     </g>
     <g id="text_4">
      <!-- 2022-03 -->
      <g transform="translate(246.918713 310.951846)rotate(-30)scale(0.1 -0.1)">
       <defs>
        <path d="M 2597 2516 
Q 3050 2419 3304 2112 
Q 3559 1806 3559 1356 
Q 3559 666 3084 287 
Q 2609 -91 1734 -91 
Q 1441 -91 1130 -33 
Q 819 25 488 141 
L 488 750 
Q 750 597 1062 519 
Q 1375 441 1716 441 
Q 2309 441 2620 675 
Q 2931 909 2931 1356 
Q 2931 1769 2642 2001 
Q 2353 2234 1838 2234 
L 1294 2234 
L 1294 2753 
L 1863 2753 
Q 2328 2753 2575 2939 
Q 2822 3125 2822 3475 
Q 2822 3834 2567 4026 
Q 2313 4219 1838 4219 
Q 1578 4219 1281 4162 
Q 984 4106 628 3988 
L 628 4550 
Q 988 4650 1302 4700 
Q 1616 4750 1894 4750 
Q 2613 4750 3031 4423 
Q 3450 4097 3450 3541 
Q 3450 3153 3228 2886 
Q 3006 2619 2597 2516 
z
" id="DejaVuSans-33" transform="scale(0.015625)"/>
       </defs>
       <use xlink:href="#DejaVuSans-32"/>
       <use x="63.623047" xlink:href="#DejaVuSans-30"/>
       <use x="127.246094" xlink:href="#DejaVuSans-32"/>
       <use x="190.869141" xlink:href="#DejaVuSans-32"/>
       <use x="254.492188" xlink:href="#DejaVuSans-2d"/>
       <use x="290.576172" xlink:href="#DejaVuSans-30"/>
       <use x="354.199219" xlink:href="#DejaVuSans-33"/>
      </g>
     </g>
    </g>
    <g id="xtick_5">
     <g id="line2d_5">
      <g>
       <use style="stroke:#000000;stroke-width:0.8;" x="347.440961" xlink:href="#mca7c5bc1d7" y="276.48"/>
      </g>
     </g>
     <g id="text_5">
      <!-- 2022-04 -->
      <g transform="translate(310.21614 310.951846)rotate(-30)scale(0.1 -0.1)">
       <defs>
        <path d="M 2419 4116 
L 825 1625 
L 2419 1625 
L 2419 4116 
z
M 2253 4666 
L 3047 4666 
L 3047 1625 
L 3713 1625 
L 3713 1100 
L 3047 1100 
L 3047 0 
L 2419 0 
L 2419 1100 
L 313 1100 
L 313 1709 
L 2253 4666 
z
" id="DejaVuSans-34" transform="scale(0.015625)"/>
       </defs>
       <use xlink:href="#DejaVuSans-32"/>
       <use x="63.623047" xlink:href="#DejaVuSans-30"/>
       <use x="127.246094" xlink:href="#DejaVuSans-32"/>
       <use x="190.869141" xlink:href="#DejaVuSans-32"/>
       <use x="254.492188" xlink:href="#DejaVuSans-2d"/>
       <use x="290.576172" xlink:href="#DejaVuSans-30"/>
       <use x="354.199219" xlink:href="#DejaVuSans-34"/>
      </g>
     </g>
    </g>
    <g id="xtick_6">
     <g id="line2d_6">
      <g>
       <use style="stroke:#000000;stroke-width:0.8;" x="408.696535" xlink:href="#mca7c5bc1d7" y="276.48"/>
      </g>
     </g>
     <g id="text_6">
      <!-- 2022-05 -->
      <g transform="translate(371.471714 310.951846)rotate(-30)scale(0.1 -0.1)">
       <defs>
        <path d="M 691 4666 
L 3169 4666 
L 3169 4134 
L 1269 4134 
L 1269 2991 
Q 1406 3038 1543 3061 
Q 1681 3084 1819 3084 
Q 2600 3084 3056 2656 
Q 3513 2228 3513 1497 
Q 3513 744 3044 326 
Q 2575 -91 1722 -91 
Q 1428 -91 1123 -41 
Q 819 9 494 109 
L 494 744 
Q 775 591 1075 516 
Q 1375 441 1709 441 
Q 2250 441 2565 725 
Q 2881 1009 2881 1497 
Q 2881 1984 2565 2268 
Q 2250 2553 1709 2553 
Q 1456 2553 1204 2497 
Q 953 2441 691 2322 
L 691 4666 
z
" id="DejaVuSans-35" transform="scale(0.015625)"/>
       </defs>
       <use xlink:href="#DejaVuSans-32"/>
       <use x="63.623047" xlink:href="#DejaVuSans-30"/>
       <use x="127.246094" xlink:href="#DejaVuSans-32"/>
       <use x="190.869141" xlink:href="#DejaVuSans-32"/>
       <use x="254.492188" xlink:href="#DejaVuSans-2d"/>
       <use x="290.576172" xlink:href="#DejaVuSans-30"/>
       <use x="354.199219" xlink:href="#DejaVuSans-35"/>
      </g>
     </g>
    </g>
    <g id="text_7">
     <!-- date -->
     <g transform="translate(224.885 324.351346)scale(0.1 -0.1)">
      <defs>
       <path d="M 2906 2969 
L 2906 4863 
L 3481 4863 
L 3481 0 
L 2906 0 
L 2906 525 
Q 2725 213 2448 61 
Q 2172 -91 1784 -91 
Q 1150 -91 751 415 
Q 353 922 353 1747 
Q 353 2572 751 3078 
Q 1150 3584 1784 3584 
Q 2172 3584 2448 3432 
Q 2725 3281 2906 2969 
z
M 947 1747 
Q 947 1113 1208 752 
Q 1469 391 1925 391 
Q 2381 391 2643 752 
Q 2906 1113 2906 1747 
Q 2906 2381 2643 2742 
Q 2381 3103 1925 3103 
Q 1469 3103 1208 2742 
Q 947 2381 947 1747 
z
" id="DejaVuSans-64" transform="scale(0.015625)"/>
       <path d="M 2194 1759 
Q 1497 1759 1228 1600 
Q 959 1441 959 1056 
Q 959 750 1161 570 
Q 1363 391 1709 391 
Q 2188 391 2477 730 
Q 2766 1069 2766 1631 
L 2766 1759 
L 2194 1759 
z
M 3341 1997 
L 3341 0 
L 2766 0 
L 2766 531 
Q 2569 213 2275 61 
Q 1981 -91 1556 -91 
Q 1019 -91 701 211 
Q 384 513 384 1019 
Q 384 1609 779 1909 
Q 1175 2209 1959 2209 
L 2766 2209 
L 2766 2266 
Q 2766 2663 2505 2880 
Q 2244 3097 1772 3097 
Q 1472 3097 1187 3025 
Q 903 2953 641 2809 
L 641 3341 
Q 956 3463 1253 3523 
Q 1550 3584 1831 3584 
Q 2591 3584 2966 3190 
Q 3341 2797 3341 1997 
z
" id="DejaVuSans-61" transform="scale(0.015625)"/>
       <path d="M 1172 4494 
L 1172 3500 
L 2356 3500 
L 2356 3053 
L 1172 3053 
L 1172 1153 
Q 1172 725 1289 603 
Q 1406 481 1766 481 
L 2356 481 
L 2356 0 
L 1766 0 
Q 1100 0 847 248 
Q 594 497 594 1153 
L 594 3053 
L 172 3053 
L 172 3500 
L 594 3500 
L 594 4494 
L 1172 4494 
z
" id="DejaVuSans-74" transform="scale(0.015625)"/>
       <path d="M 3597 1894 
L 3597 1613 
L 953 1613 
Q 991 1019 1311 708 
Q 1631 397 2203 397 
Q 2534 397 2845 478 
Q 3156 559 3463 722 
L 3463 178 
Q 3153 47 2828 -22 
Q 2503 -91 2169 -91 
Q 1331 -91 842 396 
Q 353 884 353 1716 
Q 353 2575 817 3079 
Q 1281 3584 2069 3584 
Q 2775 3584 3186 3129 
Q 3597 2675 3597 1894 
z
M 3022 2063 
Q 3016 2534 2758 2815 
Q 2500 3097 2075 3097 
Q 1594 3097 1305 2825 
Q 1016 2553 972 2059 
L 3022 2063 
z
" id="DejaVuSans-65" transform="scale(0.015625)"/>
      </defs>
      <use xlink:href="#DejaVuSans-64"/>
      <use x="63.476562" xlink:href="#DejaVuSans-61"/>
      <use x="124.755859" xlink:href="#DejaVuSans-74"/>
      <use x="163.964844" xlink:href="#DejaVuSans-65"/>
     </g>
    </g>
   </g>
   <g id="matplotlib.axis_2">
    <g id="ytick_1">
     <g id="line2d_7">
      <defs>
       <path d="M 0 0 
L -3.5 0 
" id="m75f05db3c1" style="stroke:#000000;stroke-width:0.8;"/>
      </defs>
      <g>
       <use style="stroke:#000000;stroke-width:0.8;" x="57.6" xlink:href="#m75f05db3c1" y="276.105969"/>
      </g>
     </g>
     <g id="text_8">
      <!-- 88000 -->
      <g transform="translate(18.7875 279.905188)scale(0.1 -0.1)">
       <defs>
        <path d="M 2034 2216 
Q 1584 2216 1326 1975 
Q 1069 1734 1069 1313 
Q 1069 891 1326 650 
Q 1584 409 2034 409 
Q 2484 409 2743 651 
Q 3003 894 3003 1313 
Q 3003 1734 2745 1975 
Q 2488 2216 2034 2216 
z
M 1403 2484 
Q 997 2584 770 2862 
Q 544 3141 544 3541 
Q 544 4100 942 4425 
Q 1341 4750 2034 4750 
Q 2731 4750 3128 4425 
Q 3525 4100 3525 3541 
Q 3525 3141 3298 2862 
Q 3072 2584 2669 2484 
Q 3125 2378 3379 2068 
Q 3634 1759 3634 1313 
Q 3634 634 3220 271 
Q 2806 -91 2034 -91 
Q 1263 -91 848 271 
Q 434 634 434 1313 
Q 434 1759 690 2068 
Q 947 2378 1403 2484 
z
M 1172 3481 
Q 1172 3119 1398 2916 
Q 1625 2713 2034 2713 
Q 2441 2713 2670 2916 
Q 2900 3119 2900 3481 
Q 2900 3844 2670 4047 
Q 2441 4250 2034 4250 
Q 1625 4250 1398 4047 
Q 1172 3844 1172 3481 
z
" id="DejaVuSans-38" transform="scale(0.015625)"/>
       </defs>
       <use xlink:href="#DejaVuSans-38"/>
       <use x="63.623047" xlink:href="#DejaVuSans-38"/>
       <use x="127.246094" xlink:href="#DejaVuSans-30"/>
       <use x="190.869141" xlink:href="#DejaVuSans-30"/>
       <use x="254.492188" xlink:href="#DejaVuSans-30"/>
      </g>
     </g>
    </g>
    <g id="ytick_2">
     <g id="line2d_8">
      <g>
       <use style="stroke:#000000;stroke-width:0.8;" x="57.6" xlink:href="#m75f05db3c1" y="244.587019"/>
      </g>
     </g>
     <g id="text_9">
      <!-- 90000 -->
      <g transform="translate(18.7875 248.386238)scale(0.1 -0.1)">
       <defs>
        <path d="M 703 97 
L 703 672 
Q 941 559 1184 500 
Q 1428 441 1663 441 
Q 2288 441 2617 861 
Q 2947 1281 2994 2138 
Q 2813 1869 2534 1725 
Q 2256 1581 1919 1581 
Q 1219 1581 811 2004 
Q 403 2428 403 3163 
Q 403 3881 828 4315 
Q 1253 4750 1959 4750 
Q 2769 4750 3195 4129 
Q 3622 3509 3622 2328 
Q 3622 1225 3098 567 
Q 2575 -91 1691 -91 
Q 1453 -91 1209 -44 
Q 966 3 703 97 
z
M 1959 2075 
Q 2384 2075 2632 2365 
Q 2881 2656 2881 3163 
Q 2881 3666 2632 3958 
Q 2384 4250 1959 4250 
Q 1534 4250 1286 3958 
Q 1038 3666 1038 3163 
Q 1038 2656 1286 2365 
Q 1534 2075 1959 2075 
z
" id="DejaVuSans-39" transform="scale(0.015625)"/>
       </defs>
       <use xlink:href="#DejaVuSans-39"/>
       <use x="63.623047" xlink:href="#DejaVuSans-30"/>
       <use x="127.246094" xlink:href="#DejaVuSans-30"/>
       <use x="190.869141" xlink:href="#DejaVuSans-30"/>
       <use x="254.492188" xlink:href="#DejaVuSans-30"/>
      </g>
     </g>
    </g>
    <g id="ytick_3">
     <g id="line2d_9">
      <g>
       <use style="stroke:#000000;stroke-width:0.8;" x="57.6" xlink:href="#m75f05db3c1" y="213.068068"/>
      </g>
     </g>
     <g id="text_10">
      <!-- 92000 -->
      <g transform="translate(18.7875 216.867287)scale(0.1 -0.1)">
       <use xlink:href="#DejaVuSans-39"/>
       <use x="63.623047" xlink:href="#DejaVuSans-32"/>
       <use x="127.246094" xlink:href="#DejaVuSans-30"/>
       <use x="190.869141" xlink:href="#DejaVuSans-30"/>
       <use x="254.492188" xlink:href="#DejaVuSans-30"/>
      </g>
     </g>
    </g>
    <g id="ytick_4">
     <g id="line2d_10">
      <g>
       <use style="stroke:#000000;stroke-width:0.8;" x="57.6" xlink:href="#m75f05db3c1" y="181.549118"/>
      </g>
     </g>
     <g id="text_11">
      <!-- 94000 -->
      <g transform="translate(18.7875 185.348337)scale(0.1 -0.1)">
       <use xlink:href="#DejaVuSans-39"/>
       <use x="63.623047" xlink:href="#DejaVuSans-34"/>
       <use x="127.246094" xlink:href="#DejaVuSans-30"/>
       <use x="190.869141" xlink:href="#DejaVuSans-30"/>
       <use x="254.492188" xlink:href="#DejaVuSans-30"/>
      </g>
     </g>
    </g>
    <g id="ytick_5">
     <g id="line2d_11">
      <g>
       <use style="stroke:#000000;stroke-width:0.8;" x="57.6" xlink:href="#m75f05db3c1" y="150.030167"/>
      </g>
     </g>
     <g id="text_12">
      <!-- 96000 -->
      <g transform="translate(18.7875 153.829386)scale(0.1 -0.1)">
       <defs>
        <path d="M 2113 2584 
Q 1688 2584 1439 2293 
Q 1191 2003 1191 1497 
Q 1191 994 1439 701 
Q 1688 409 2113 409 
Q 2538 409 2786 701 
Q 3034 994 3034 1497 
Q 3034 2003 2786 2293 
Q 2538 2584 2113 2584 
z
M 3366 4563 
L 3366 3988 
Q 3128 4100 2886 4159 
Q 2644 4219 2406 4219 
Q 1781 4219 1451 3797 
Q 1122 3375 1075 2522 
Q 1259 2794 1537 2939 
Q 1816 3084 2150 3084 
Q 2853 3084 3261 2657 
Q 3669 2231 3669 1497 
Q 3669 778 3244 343 
Q 2819 -91 2113 -91 
Q 1303 -91 875 529 
Q 447 1150 447 2328 
Q 447 3434 972 4092 
Q 1497 4750 2381 4750 
Q 2619 4750 2861 4703 
Q 3103 4656 3366 4563 
z
" id="DejaVuSans-36" transform="scale(0.015625)"/>
       </defs>
       <use xlink:href="#DejaVuSans-39"/>
       <use x="63.623047" xlink:href="#DejaVuSans-36"/>
       <use x="127.246094" xlink:href="#DejaVuSans-30"/>
       <use x="190.869141" xlink:href="#DejaVuSans-30"/>
       <use x="254.492188" xlink:href="#DejaVuSans-30"/>
      </g>
     </g>
    </g>
    <g id="ytick_6">
     <g id="line2d_12">
      <g>
       <use style="stroke:#000000;stroke-width:0.8;" x="57.6" xlink:href="#m75f05db3c1" y="118.511217"/>
      </g>
     </g>
     <g id="text_13">
      <!-- 98000 -->
      <g transform="translate(18.7875 122.310436)scale(0.1 -0.1)">
       <use xlink:href="#DejaVuSans-39"/>
       <use x="63.623047" xlink:href="#DejaVuSans-38"/>
       <use x="127.246094" xlink:href="#DejaVuSans-30"/>
       <use x="190.869141" xlink:href="#DejaVuSans-30"/>
       <use x="254.492188" xlink:href="#DejaVuSans-30"/>
      </g>
     </g>
    </g>
    <g id="ytick_7">
     <g id="line2d_13">
      <g>
       <use style="stroke:#000000;stroke-width:0.8;" x="57.6" xlink:href="#m75f05db3c1" y="86.992266"/>
      </g>
     </g>
     <g id="text_14">
      <!-- 100000 -->
      <g transform="translate(12.425 90.791485)scale(0.1 -0.1)">
       <use xlink:href="#DejaVuSans-31"/>
       <use x="63.623047" xlink:href="#DejaVuSans-30"/>
       <use x="127.246094" xlink:href="#DejaVuSans-30"/>
       <use x="190.869141" xlink:href="#DejaVuSans-30"/>
       <use x="254.492188" xlink:href="#DejaVuSans-30"/>
       <use x="318.115234" xlink:href="#DejaVuSans-30"/>
      </g>
     </g>
    </g>
    <g id="ytick_8">
     <g id="line2d_14">
      <g>
       <use style="stroke:#000000;stroke-width:0.8;" x="57.6" xlink:href="#m75f05db3c1" y="55.473316"/>
      </g>
     </g>
     <g id="text_15">
      <!-- 102000 -->
      <g transform="translate(12.425 59.272535)scale(0.1 -0.1)">
       <use xlink:href="#DejaVuSans-31"/>
       <use x="63.623047" xlink:href="#DejaVuSans-30"/>
       <use x="127.246094" xlink:href="#DejaVuSans-32"/>
       <use x="190.869141" xlink:href="#DejaVuSans-30"/>
       <use x="254.492188" xlink:href="#DejaVuSans-30"/>
       <use x="318.115234" xlink:href="#DejaVuSans-30"/>
      </g>
     </g>
    </g>
   </g>
   <g id="line2d_15">
    <path clip-path="url(#p43c8784773)" d="M 73.832727 85.364372 
L 75.87458 87.995426 
L 82.000137 93.07694 
L 84.04199 90.678189 
L 86.083842 85.913074 
L 90.167547 85.887077 
L 96.293105 101.953895 
L 98.334957 132.196547 
L 100.37681 150.285587 
L 102.418662 126.192151 
L 104.460515 140.131905 
L 110.586072 122.135952 
L 112.627925 91.029638 
L 114.669777 85.805314 
L 116.71163 96.504566 
L 118.753482 81.333537 
L 124.879039 97.716142 
L 126.920892 108.210342 
L 128.962744 83.556576 
L 131.004597 97.853946 
L 133.046449 114.98463 
L 139.172007 133.775988 
L 141.213859 107.340278 
L 143.255712 92.132464 
L 145.297564 82.385708 
L 153.464974 60.535512 
L 155.506827 61.931613 
L 157.548679 59.782743 
L 159.590532 63.641491 
L 161.632384 68.584518 
L 167.757942 58.54664 
L 169.799794 58.454998 
L 171.841647 89.201468 
L 173.883499 91.831451 
L 175.925352 96.617263 
L 182.050909 99.288351 
L 184.092762 84.706441 
L 186.134614 80.460671 
L 188.176467 103.002321 
L 190.218319 102.77558 
L 198.385729 129.938544 
L 200.427581 145.47237 
L 202.469434 162.662963 
L 204.511286 192.44401 
L 210.636844 185.963503 
L 212.678696 203.786858 
L 214.720549 206.908013 
L 216.762401 214.068484 
L 218.804254 179.15828 
L 224.929811 151.408343 
L 226.971664 140.698564 
L 229.013516 126.640336 
L 231.055369 162.022286 
L 233.097221 156.032741 
L 239.222779 160.382318 
L 241.264631 148.776147 
L 243.306484 125.700927 
L 245.348336 153.972457 
L 247.390189 183.723883 
L 253.515746 189.068995 
L 255.557599 164.970934 
L 257.599451 163.549971 
L 259.641304 194.801756 
L 261.683156 203.903277 
L 269.850566 220.112768 
L 271.892419 245.290817 
L 273.934271 224.431582 
L 275.976123 193.550326 
L 282.101681 196.544158 
L 284.143533 217.96772 
L 286.185386 192.919011 
L 288.227238 198.715816 
L 290.269091 210.53972 
L 296.394648 254.64175 
L 298.436501 265.053844 
L 300.478353 227.855931 
L 302.520206 233.96749 
L 304.562058 251.543429 
L 310.687616 262.855175 
L 312.729468 231.521782 
L 314.771321 199.563482 
L 316.813173 181.606136 
L 318.855026 167.100537 
L 324.980583 167.793362 
L 327.022436 150.298467 
L 329.064288 169.153017 
L 331.106141 150.028716 
L 333.147993 142.080033 
L 339.273551 132.349828 
L 341.315403 112.837184 
L 343.357256 122.455869 
L 345.399108 145.190591 
L 347.440961 141.552972 
L 353.566518 128.095049 
L 355.60837 147.548579 
L 357.650223 163.554863 
L 359.692075 155.466095 
L 361.733928 159.175088 
L 367.859485 185.780107 
L 369.901338 190.755885 
L 371.94319 174.523385 
L 373.985043 192.589111 
L 382.152453 191.850571 
L 384.194305 168.352615 
L 386.236158 170.231277 
L 388.27801 192.181576 
L 390.319863 231.504092 
L 396.44542 223.936721 
L 398.487273 247.801554 
" style="fill:none;stroke:#0000ff;stroke-linecap:square;stroke-opacity:0.9;stroke-width:2;"/>
   </g>
   <g id="line2d_16">
    <path clip-path="url(#p43c8784773)" d="M 73.832727 85.364372 
L 75.87458 88.291271 
L 82.000137 92.77986 
L 84.04199 91.087371 
L 86.083842 86.080273 
L 90.167547 121.294748 
L 96.293105 103.042888 
L 98.334957 132.712441 
L 100.37681 150.016261 
L 102.418662 126.213698 
L 104.460515 139.737537 
L 110.586072 122.445516 
L 112.627925 90.417226 
L 114.669777 85.145291 
L 116.71163 96.977322 
L 118.753482 81.52658 
L 124.879039 97.679724 
L 126.920892 107.688284 
L 128.962744 83.956143 
L 131.004597 97.011776 
L 133.046449 114.470031 
L 139.172007 132.605876 
L 141.213859 107.858221 
L 143.255712 91.328718 
L 145.297564 83.044333 
L 153.464974 60.503707 
L 155.506827 60.766025 
L 157.548679 59.828114 
L 159.590532 64.211164 
L 161.632384 67.527876 
L 167.757942 58.906026 
L 169.799794 59.262497 
L 171.841647 90.504501 
L 173.883499 91.638809 
L 175.925352 97.578431 
L 182.050909 99.519981 
L 184.092762 85.860848 
L 186.134614 81.15075 
L 188.176467 103.295911 
L 190.218319 102.293192 
L 198.385729 129.502032 
L 200.427581 146.031296 
L 202.469434 162.000568 
L 204.511286 191.03629 
L 210.636844 186.026306 
L 212.678696 203.445432 
L 214.720549 206.391653 
L 216.762401 214.146104 
L 218.804254 179.360447 
L 224.929811 151.360679 
L 226.971664 141.759629 
L 229.013516 127.460876 
L 231.055369 163.059739 
L 233.097221 155.47108 
L 239.222779 161.441473 
L 241.264631 148.224011 
L 243.306484 125.90446 
L 245.348336 153.258656 
L 247.390189 182.809279 
L 253.515746 188.761141 
L 255.557599 165.646946 
L 257.599451 162.315345 
L 259.641304 194.121022 
L 261.683156 204.935384 
L 269.850566 220.914373 
L 271.892419 245.610942 
L 273.934271 224.451277 
L 275.976123 193.472021 
L 282.101681 196.333963 
L 284.143533 219.485085 
L 286.185386 191.934252 
L 288.227238 200.066491 
L 290.269091 211.715652 
L 296.394648 253.451419 
L 298.436501 264.185964 
L 300.478353 227.650531 
L 302.520206 233.261406 
L 304.562058 251.419329 
L 310.687616 262.789823 
L 312.729468 230.88603 
L 314.771321 199.338597 
L 316.813173 182.015987 
L 318.855026 166.747839 
L 324.980583 168.261973 
L 327.022436 150.826114 
L 329.064288 170.073014 
L 331.106141 150.002446 
L 333.147993 142.846126 
L 339.273551 131.184238 
L 341.315403 111.947607 
L 343.357256 123.137339 
L 345.399108 145.380503 
L 347.440961 141.046808 
L 353.566518 128.084981 
L 355.60837 148.660043 
L 357.650223 162.611986 
L 359.692075 155.142905 
L 361.733928 159.905407 
L 367.859485 184.977618 
L 369.901338 190.92389 
L 371.94319 174.361157 
L 373.985043 193.119148 
L 382.152453 191.990283 
L 384.194305 167.720973 
L 386.236158 169.568496 
L 388.27801 191.821015 
L 390.319863 231.519167 
L 396.44542 223.491558 
L 398.487273 265.310496 
" style="fill:none;stroke:#ff0000;stroke-linecap:square;stroke-opacity:0.9;stroke-width:2;"/>
   </g>
   <g id="line2d_17">
    <path clip-path="url(#p43c8784773)" d="M 73.832727 85.364372 
L 75.87458 88.538182 
L 82.000137 92.485128 
L 84.04199 91.100075 
L 86.083842 85.72672 
L 90.167547 121.992138 
L 96.293105 103.063739 
L 98.334957 131.615524 
L 100.37681 149.485392 
L 102.418662 125.944148 
L 104.460515 139.815748 
L 110.586072 122.693093 
L 112.627925 90.098628 
L 114.669777 86.280523 
L 116.71163 96.909816 
L 118.753482 81.476873 
L 124.879039 96.213324 
L 126.920892 107.605578 
L 128.962744 83.76664 
L 131.004597 98.121289 
L 133.046449 115.505953 
L 139.172007 133.949714 
L 141.213859 108.291929 
L 143.255712 92.439422 
L 145.297564 82.930302 
L 153.464974 59.140595 
L 155.506827 60.783116 
L 157.548679 59.028451 
L 159.590532 63.735196 
L 161.632384 67.234467 
L 167.757942 57.822954 
L 169.799794 58.241114 
L 171.841647 89.144518 
L 173.883499 91.700251 
L 175.925352 97.12823 
L 182.050909 99.486063 
L 184.092762 86.02736 
L 186.134614 81.482997 
L 188.176467 101.902303 
L 190.218319 102.066834 
L 198.385729 129.338219 
L 200.427581 145.556017 
L 202.469434 162.658538 
L 204.511286 191.661747 
L 210.636844 186.308567 
L 212.678696 203.523156 
L 214.720549 206.866517 
L 216.762401 215.161308 
L 218.804254 178.618633 
L 224.929811 151.663917 
L 226.971664 141.523792 
L 229.013516 127.670907 
L 231.055369 162.106112 
L 233.097221 155.590293 
L 239.222779 160.415462 
L 241.264631 149.143433 
L 243.306484 127.080845 
L 245.348336 153.319499 
L 247.390189 184.272539 
L 253.515746 189.061013 
L 255.557599 164.976081 
L 257.599451 163.147299 
L 259.641304 194.187088 
L 261.683156 205.176608 
L 269.850566 219.512022 
L 271.892419 246.58923 
L 273.934271 224.316847 
L 275.976123 192.999118 
L 282.101681 196.903855 
L 284.143533 218.674001 
L 286.185386 191.902598 
L 288.227238 198.827742 
L 290.269091 211.940693 
L 296.394648 254.57096 
L 298.436501 264.545392 
L 300.478353 228.117178 
L 302.520206 234.132901 
L 304.562058 251.099372 
L 310.687616 262.359586 
L 312.729468 231.354686 
L 314.771321 199.383054 
L 316.813173 181.109395 
L 318.855026 166.999101 
L 324.980583 168.223926 
L 327.022436 151.104307 
L 329.064288 169.283184 
L 331.106141 150.712349 
L 333.147993 142.625552 
L 339.273551 131.43973 
L 341.315403 112.971238 
L 343.357256 122.731431 
L 345.399108 145.496218 
L 347.440961 141.759654 
L 353.566518 128.743637 
L 355.60837 148.766013 
L 357.650223 162.413748 
L 359.692075 155.748011 
L 361.733928 159.11128 
L 367.859485 186.061577 
L 369.901338 190.559608 
L 371.94319 174.415675 
L 373.985043 192.639698 
L 382.152453 192.074106 
L 384.194305 168.130774 
L 386.236158 169.170945 
L 388.27801 192.250264 
L 390.319863 231.933057 
L 396.44542 223.014887 
L 398.487273 264.955558 
" style="fill:none;stroke:#008000;stroke-linecap:square;stroke-opacity:0.9;stroke-width:2;"/>
   </g>
   <g id="line2d_18">
    <path clip-path="url(#p43c8784773)" d="M 73.832727 85.364372 
L 75.87458 88.592049 
L 82.000137 92.690259 
L 84.04199 90.262524 
L 86.083842 86.863324 
L 90.167547 121.240146 
L 96.293105 102.857633 
L 98.334957 131.501748 
L 100.37681 149.778849 
L 102.418662 126.987281 
L 104.460515 140.670764 
L 110.586072 121.512615 
L 112.627925 90.812488 
L 114.669777 86.285111 
L 116.71163 96.961887 
L 118.753482 81.077707 
L 124.879039 97.439335 
L 126.920892 107.824599 
L 128.962744 83.096171 
L 131.004597 98.180052 
L 133.046449 115.388759 
L 139.172007 133.265542 
L 141.213859 106.936824 
L 143.255712 91.766799 
L 145.297564 82.606679 
L 153.464974 59.208184 
L 155.506827 60.898535 
L 157.548679 58.93703 
L 159.590532 63.224084 
L 161.632384 68.541425 
L 167.757942 57.555405 
L 169.799794 59.290626 
L 171.841647 90.385533 
L 173.883499 90.854551 
L 175.925352 97.654482 
L 182.050909 99.61666 
L 184.092762 84.837586 
L 186.134614 80.57648 
L 188.176467 101.944541 
L 190.218319 102.193121 
L 198.385729 130.29207 
L 200.427581 145.473043 
L 202.469434 162.236379 
L 204.511286 191.321761 
L 210.636844 185.663137 
L 212.678696 203.715894 
L 214.720549 206.868196 
L 216.762401 213.926213 
L 218.804254 178.190569 
L 224.929811 151.631991 
L 226.971664 141.160958 
L 229.013516 126.522337 
L 231.055369 162.095705 
L 233.097221 154.819882 
L 239.222779 161.627179 
L 241.264631 149.188481 
L 243.306484 126.309151 
L 245.348336 154.0776 
L 247.390189 183.857221 
L 253.515746 187.85751 
L 255.557599 164.739577 
L 257.599451 162.485281 
L 259.641304 195.134578 
L 261.683156 205.153155 
L 269.850566 220.579651 
L 271.892419 245.65531 
L 273.934271 224.571717 
L 275.976123 193.05579 
L 282.101681 196.831297 
L 284.143533 219.270534 
L 286.185386 191.594676 
L 288.227238 199.471119 
L 290.269091 211.673705 
L 296.394648 253.976816 
L 298.436501 264.190821 
L 300.478353 227.641043 
L 302.520206 233.867134 
L 304.562058 252.60583 
L 310.687616 262.165052 
L 312.729468 232.09451 
L 314.771321 199.916507 
L 316.813173 180.905937 
L 318.855026 166.844876 
L 324.980583 167.767341 
L 327.022436 150.550754 
L 329.064288 168.983712 
L 331.106141 150.025446 
L 333.147993 141.811273 
L 339.273551 132.419865 
L 341.315403 112.607618 
L 343.357256 122.101165 
L 345.399108 145.674517 
L 347.440961 142.539573 
L 353.566518 128.304518 
L 355.60837 148.611314 
L 357.650223 163.012264 
L 359.692075 156.171691 
L 361.733928 159.538461 
L 367.859485 185.003248 
L 369.901338 190.440024 
L 371.94319 173.850786 
L 373.985043 191.946798 
L 382.152453 191.497491 
L 384.194305 168.501395 
L 386.236158 170.396381 
L 388.27801 192.009685 
L 390.319863 232.902792 
L 396.44542 224.517616 
L 398.487273 265.797818 
" style="fill:none;stroke:#ec5283;stroke-linecap:square;stroke-width:2;"/>
   </g>
   <g id="line2d_19">
    <path clip-path="url(#p43c8784773)" d="M 73.832727 85.364372 
L 75.87458 88.099074 
L 82.000137 92.449947 
L 84.04199 89.990832 
L 86.083842 86.829685 
L 90.167547 121.691735 
L 96.293105 102.689231 
L 98.334957 132.378419 
L 100.37681 149.652087 
L 102.418662 126.247056 
L 104.460515 139.6237 
L 110.586072 122.256075 
L 112.627925 90.607852 
L 114.669777 85.602602 
L 116.71163 96.213271 
L 118.753482 81.739358 
L 124.879039 96.613299 
L 126.920892 108.267364 
L 128.962744 83.479201 
L 131.004597 98.235766 
L 133.046449 114.41206 
L 139.172007 132.886218 
L 141.213859 107.477636 
L 143.255712 91.41373 
L 145.297564 82.272705 
L 153.464974 60.416337 
L 155.506827 60.821732 
L 157.548679 59.160675 
L 159.590532 63.572009 
L 161.632384 68.340473 
L 167.757942 58.282244 
L 169.799794 59.613775 
L 171.841647 89.36702 
L 173.883499 91.496508 
L 175.925352 97.257086 
L 182.050909 99.756924 
L 184.092762 85.058165 
L 186.134614 81.027178 
L 188.176467 102.734211 
L 190.218319 103.029147 
L 198.385729 129.847784 
L 200.427581 146.019143 
L 202.469434 162.99217 
L 204.511286 191.369869 
L 210.636844 185.606256 
L 212.678696 202.802557 
L 214.720549 206.930101 
L 216.762401 215.190119 
L 218.804254 179.04375 
L 224.929811 151.858642 
L 226.971664 141.448851 
L 229.013516 126.461505 
L 231.055369 163.509548 
L 233.097221 155.965726 
L 239.222779 161.498773 
L 241.264631 147.863683 
L 243.306484 126.559158 
L 245.348336 153.834503 
L 247.390189 184.24058 
L 253.515746 188.797401 
L 255.557599 164.615309 
L 257.599451 163.471609 
L 259.641304 195.096937 
L 261.683156 205.295885 
L 269.850566 219.695653 
L 271.892419 245.538145 
L 273.934271 225.256334 
L 275.976123 192.854707 
L 282.101681 196.63582 
L 284.143533 218.805809 
L 286.185386 191.649995 
L 288.227238 199.112107 
L 290.269091 210.977366 
L 296.394648 253.338307 
L 298.436501 264.539351 
L 300.478353 226.859092 
L 302.520206 233.289395 
L 304.562058 252.447358 
L 310.687616 261.74112 
L 312.729468 230.858712 
L 314.771321 200.631834 
L 316.813173 181.939921 
L 318.855026 166.780945 
L 324.980583 168.589958 
L 327.022436 150.075088 
L 329.064288 170.370115 
L 331.106141 150.662466 
L 333.147993 142.762598 
L 339.273551 132.126032 
L 341.315403 112.611305 
L 343.357256 122.837443 
L 345.399108 146.121961 
L 347.440961 142.28383 
L 353.566518 128.753085 
L 355.60837 148.012388 
L 357.650223 163.772245 
L 359.692075 155.205667 
L 361.733928 159.986701 
L 367.859485 185.051879 
L 369.901338 190.63174 
L 371.94319 173.394685 
L 373.985043 191.944913 
L 382.152453 191.547434 
L 384.194305 169.004023 
L 386.236158 169.72811 
L 388.27801 191.374763 
L 390.319863 231.558078 
L 396.44542 224.468763 
L 398.487273 264.768696 
" style="fill:none;stroke:#00ff00;stroke-linecap:square;stroke-opacity:0.9;stroke-width:2;"/>
   </g>
   <g id="line2d_20">
    <path clip-path="url(#p43c8784773)" d="M 73.832727 85.364372 
L 75.87458 87.815231 
L 82.000137 92.046687 
L 84.04199 90.01089 
L 86.083842 86.684344 
L 90.167547 122.101435 
L 96.293105 102.133942 
L 98.334957 132.71191 
L 100.37681 148.827459 
L 102.418662 126.239823 
L 104.460515 139.679832 
L 110.586072 121.134668 
L 112.627925 89.776537 
L 114.669777 85.462787 
L 116.71163 96.47616 
L 118.753482 80.795448 
L 124.879039 96.108117 
L 126.920892 106.716913 
L 128.962744 81.621292 
L 131.004597 96.57491 
L 133.046449 112.653211 
L 139.172007 129.253651 
L 141.213859 101.205451 
L 143.255712 85.426106 
L 145.297564 76.29651 
L 153.464974 53.4375 
L 155.506827 55.72372 
L 157.548679 52.797308 
L 159.590532 57.093693 
L 161.632384 61.966734 
L 167.757942 52.154182 
L 169.799794 52.328171 
L 171.841647 83.15554 
L 173.883499 85.255303 
L 175.925352 91.133624 
L 182.050909 93.863805 
L 184.092762 79.408327 
L 186.134614 74.116385 
L 188.176467 96.485748 
L 190.218319 95.37375 
L 198.385729 123.962516 
L 200.427581 138.615425 
L 202.469434 156.436206 
L 204.511286 185.233754 
L 210.636844 180.072458 
L 212.678696 197.69527 
L 214.720549 200.497655 
L 216.762401 207.818067 
L 218.804254 172.977124 
L 224.929811 145.31169 
L 226.971664 134.292321 
L 229.013516 120.797707 
L 231.055369 156.247118 
L 233.097221 148.566987 
L 239.222779 153.38223 
L 241.264631 142.259142 
L 243.306484 120.066286 
L 245.348336 146.615336 
L 247.390189 177.665372 
L 253.515746 181.27042 
L 255.557599 158.012282 
L 257.599451 155.471625 
L 259.641304 188.369794 
L 261.683156 198.17845 
L 269.850566 213.673145 
L 271.892419 240.178279 
L 273.934271 218.456501 
L 275.976123 185.961004 
L 282.101681 189.481322 
L 284.143533 211.515712 
L 286.185386 185.62148 
L 288.227238 192.64084 
L 290.269091 204.355568 
L 296.394648 248.107147 
L 298.436501 257.318567 
L 300.478353 220.305752 
L 302.520206 226.517263 
L 304.562058 244.396911 
L 310.687616 255.311447 
L 312.729468 225.006353 
L 314.771321 192.923145 
L 316.813173 173.542663 
L 318.855026 157.548994 
L 324.980583 158.047976 
L 327.022436 140.532697 
L 329.064288 159.978582 
L 331.106141 137.134161 
L 333.147993 129.680163 
L 339.273551 118.392714 
L 341.315403 99.742723 
L 343.357256 109.134892 
L 345.399108 132.23238 
L 347.440961 129.376213 
L 353.566518 115.779438 
L 355.60837 134.651093 
L 357.650223 150.373564 
L 359.692075 142.303199 
L 361.733928 146.520732 
L 367.859485 172.974253 
L 369.901338 177.787129 
L 371.94319 161.854645 
L 373.985043 179.806452 
L 382.152453 178.600184 
L 384.194305 155.498206 
L 386.236158 155.870101 
L 388.27801 178.109126 
L 390.319863 219.34968 
L 396.44542 210.530285 
L 398.487273 253.609464 
" style="fill:none;stroke:#a5b9cf;stroke-linecap:square;stroke-width:2;"/>
   </g>
   <g id="patch_3">
    <path d="M 57.6 276.48 
L 57.6 41.472 
" style="fill:none;stroke:#000000;stroke-linecap:square;stroke-linejoin:miter;stroke-width:0.8;"/>
   </g>
   <g id="patch_4">
    <path d="M 414.72 276.48 
L 414.72 41.472 
" style="fill:none;stroke:#000000;stroke-linecap:square;stroke-linejoin:miter;stroke-width:0.8;"/>
   </g>
   <g id="patch_5">
    <path d="M 57.6 276.48 
L 414.72 276.48 
" style="fill:none;stroke:#000000;stroke-linecap:square;stroke-linejoin:miter;stroke-width:0.8;"/>
   </g>
   <g id="patch_6">
    <path d="M 57.6 41.472 
L 414.72 41.472 
" style="fill:none;stroke:#000000;stroke-linecap:square;stroke-linejoin:miter;stroke-width:0.8;"/>
   </g>
   <g id="text_16">
    <!-- SP500 -->
    <g transform="translate(217.280625 22.034625)scale(0.12 -0.12)">
     <defs>
      <path d="M 3425 4513 
L 3425 3897 
Q 3066 4069 2747 4153 
Q 2428 4238 2131 4238 
Q 1616 4238 1336 4038 
Q 1056 3838 1056 3469 
Q 1056 3159 1242 3001 
Q 1428 2844 1947 2747 
L 2328 2669 
Q 3034 2534 3370 2195 
Q 3706 1856 3706 1288 
Q 3706 609 3251 259 
Q 2797 -91 1919 -91 
Q 1588 -91 1214 -16 
Q 841 59 441 206 
L 441 856 
Q 825 641 1194 531 
Q 1563 422 1919 422 
Q 2459 422 2753 634 
Q 3047 847 3047 1241 
Q 3047 1584 2836 1778 
Q 2625 1972 2144 2069 
L 1759 2144 
Q 1053 2284 737 2584 
Q 422 2884 422 3419 
Q 422 4038 858 4394 
Q 1294 4750 2059 4750 
Q 2388 4750 2728 4690 
Q 3069 4631 3425 4513 
z
" id="DejaVuSans-53" transform="scale(0.015625)"/>
      <path d="M 1259 4147 
L 1259 2394 
L 2053 2394 
Q 2494 2394 2734 2622 
Q 2975 2850 2975 3272 
Q 2975 3691 2734 3919 
Q 2494 4147 2053 4147 
L 1259 4147 
z
M 628 4666 
L 2053 4666 
Q 2838 4666 3239 4311 
Q 3641 3956 3641 3272 
Q 3641 2581 3239 2228 
Q 2838 1875 2053 1875 
L 1259 1875 
L 1259 0 
L 628 0 
L 628 4666 
z
" id="DejaVuSans-50" transform="scale(0.015625)"/>
     </defs>
     <use xlink:href="#DejaVuSans-53"/>
     <use x="63.476562" xlink:href="#DejaVuSans-50"/>
     <use x="123.779297" xlink:href="#DejaVuSans-35"/>
     <use x="187.402344" xlink:href="#DejaVuSans-30"/>
     <use x="251.025391" xlink:href="#DejaVuSans-30"/>
    </g>
    <!-- daily_report -->
    <g transform="translate(200.466563 35.472)scale(0.12 -0.12)">
     <defs>
      <path d="M 603 3500 
L 1178 3500 
L 1178 0 
L 603 0 
L 603 3500 
z
M 603 4863 
L 1178 4863 
L 1178 4134 
L 603 4134 
L 603 4863 
z
" id="DejaVuSans-69" transform="scale(0.015625)"/>
      <path d="M 603 4863 
L 1178 4863 
L 1178 0 
L 603 0 
L 603 4863 
z
" id="DejaVuSans-6c" transform="scale(0.015625)"/>
      <path d="M 2059 -325 
Q 1816 -950 1584 -1140 
Q 1353 -1331 966 -1331 
L 506 -1331 
L 506 -850 
L 844 -850 
Q 1081 -850 1212 -737 
Q 1344 -625 1503 -206 
L 1606 56 
L 191 3500 
L 800 3500 
L 1894 763 
L 2988 3500 
L 3597 3500 
L 2059 -325 
z
" id="DejaVuSans-79" transform="scale(0.015625)"/>
      <path d="M 3263 -1063 
L 3263 -1509 
L -63 -1509 
L -63 -1063 
L 3263 -1063 
z
" id="DejaVuSans-5f" transform="scale(0.015625)"/>
      <path d="M 2631 2963 
Q 2534 3019 2420 3045 
Q 2306 3072 2169 3072 
Q 1681 3072 1420 2755 
Q 1159 2438 1159 1844 
L 1159 0 
L 581 0 
L 581 3500 
L 1159 3500 
L 1159 2956 
Q 1341 3275 1631 3429 
Q 1922 3584 2338 3584 
Q 2397 3584 2469 3576 
Q 2541 3569 2628 3553 
L 2631 2963 
z
" id="DejaVuSans-72" transform="scale(0.015625)"/>
      <path d="M 1159 525 
L 1159 -1331 
L 581 -1331 
L 581 3500 
L 1159 3500 
L 1159 2969 
Q 1341 3281 1617 3432 
Q 1894 3584 2278 3584 
Q 2916 3584 3314 3078 
Q 3713 2572 3713 1747 
Q 3713 922 3314 415 
Q 2916 -91 2278 -91 
Q 1894 -91 1617 61 
Q 1341 213 1159 525 
z
M 3116 1747 
Q 3116 2381 2855 2742 
Q 2594 3103 2138 3103 
Q 1681 3103 1420 2742 
Q 1159 2381 1159 1747 
Q 1159 1113 1420 752 
Q 1681 391 2138 391 
Q 2594 391 2855 752 
Q 3116 1113 3116 1747 
z
" id="DejaVuSans-70" transform="scale(0.015625)"/>
      <path d="M 1959 3097 
Q 1497 3097 1228 2736 
Q 959 2375 959 1747 
Q 959 1119 1226 758 
Q 1494 397 1959 397 
Q 2419 397 2687 759 
Q 2956 1122 2956 1747 
Q 2956 2369 2687 2733 
Q 2419 3097 1959 3097 
z
M 1959 3584 
Q 2709 3584 3137 3096 
Q 3566 2609 3566 1747 
Q 3566 888 3137 398 
Q 2709 -91 1959 -91 
Q 1206 -91 779 398 
Q 353 888 353 1747 
Q 353 2609 779 3096 
Q 1206 3584 1959 3584 
z
" id="DejaVuSans-6f" transform="scale(0.015625)"/>
     </defs>
     <use xlink:href="#DejaVuSans-64"/>
     <use x="63.476562" xlink:href="#DejaVuSans-61"/>
     <use x="124.755859" xlink:href="#DejaVuSans-69"/>
     <use x="152.539062" xlink:href="#DejaVuSans-6c"/>
     <use x="180.322266" xlink:href="#DejaVuSans-79"/>
     <use x="239.501953" xlink:href="#DejaVuSans-5f"/>
     <use x="289.501953" xlink:href="#DejaVuSans-72"/>
     <use x="328.365234" xlink:href="#DejaVuSans-65"/>
     <use x="389.888672" xlink:href="#DejaVuSans-70"/>
     <use x="453.365234" xlink:href="#DejaVuSans-6f"/>
     <use x="514.546875" xlink:href="#DejaVuSans-72"/>
     <use x="555.660156" xlink:href="#DejaVuSans-74"/>
    </g>
   </g>
   <g id="legend_1">
    <g id="patch_7">
     <path d="M 64.6 271.48 
L 178.64375 271.48 
Q 180.64375 271.48 180.64375 269.48 
L 180.64375 182.41125 
Q 180.64375 180.41125 178.64375 180.41125 
L 64.6 180.41125 
Q 62.6 180.41125 62.6 182.41125 
L 62.6 269.48 
Q 62.6 271.48 64.6 271.48 
z
" style="fill:#ffffff;opacity:0.8;stroke:#cccccc;stroke-linejoin:miter;"/>
    </g>
    <g id="line2d_21">
     <path d="M 66.6 188.509687 
L 86.6 188.509687 
" style="fill:none;stroke:#0000ff;stroke-linecap:square;stroke-opacity:0.9;stroke-width:2;"/>
    </g>
    <g id="line2d_22"/>
    <g id="text_17">
     <!-- alpaca -->
     <g transform="translate(94.6 192.009687)scale(0.1 -0.1)">
      <defs>
       <path d="M 3122 3366 
L 3122 2828 
Q 2878 2963 2633 3030 
Q 2388 3097 2138 3097 
Q 1578 3097 1268 2742 
Q 959 2388 959 1747 
Q 959 1106 1268 751 
Q 1578 397 2138 397 
Q 2388 397 2633 464 
Q 2878 531 3122 666 
L 3122 134 
Q 2881 22 2623 -34 
Q 2366 -91 2075 -91 
Q 1284 -91 818 406 
Q 353 903 353 1747 
Q 353 2603 823 3093 
Q 1294 3584 2113 3584 
Q 2378 3584 2631 3529 
Q 2884 3475 3122 3366 
z
" id="DejaVuSans-63" transform="scale(0.015625)"/>
      </defs>
      <use xlink:href="#DejaVuSans-61"/>
      <use x="61.279297" xlink:href="#DejaVuSans-6c"/>
      <use x="89.0625" xlink:href="#DejaVuSans-70"/>
      <use x="152.539062" xlink:href="#DejaVuSans-61"/>
      <use x="213.818359" xlink:href="#DejaVuSans-63"/>
      <use x="268.798828" xlink:href="#DejaVuSans-61"/>
     </g>
    </g>
    <g id="line2d_23">
     <path d="M 66.6 203.187812 
L 86.6 203.187812 
" style="fill:none;stroke:#ff0000;stroke-linecap:square;stroke-opacity:0.9;stroke-width:2;"/>
    </g>
    <g id="line2d_24"/>
    <g id="text_18">
     <!-- mattress -->
     <g transform="translate(94.6 206.687812)scale(0.1 -0.1)">
      <defs>
       <path d="M 3328 2828 
Q 3544 3216 3844 3400 
Q 4144 3584 4550 3584 
Q 5097 3584 5394 3201 
Q 5691 2819 5691 2113 
L 5691 0 
L 5113 0 
L 5113 2094 
Q 5113 2597 4934 2840 
Q 4756 3084 4391 3084 
Q 3944 3084 3684 2787 
Q 3425 2491 3425 1978 
L 3425 0 
L 2847 0 
L 2847 2094 
Q 2847 2600 2669 2842 
Q 2491 3084 2119 3084 
Q 1678 3084 1418 2786 
Q 1159 2488 1159 1978 
L 1159 0 
L 581 0 
L 581 3500 
L 1159 3500 
L 1159 2956 
Q 1356 3278 1631 3431 
Q 1906 3584 2284 3584 
Q 2666 3584 2933 3390 
Q 3200 3197 3328 2828 
z
" id="DejaVuSans-6d" transform="scale(0.015625)"/>
       <path d="M 2834 3397 
L 2834 2853 
Q 2591 2978 2328 3040 
Q 2066 3103 1784 3103 
Q 1356 3103 1142 2972 
Q 928 2841 928 2578 
Q 928 2378 1081 2264 
Q 1234 2150 1697 2047 
L 1894 2003 
Q 2506 1872 2764 1633 
Q 3022 1394 3022 966 
Q 3022 478 2636 193 
Q 2250 -91 1575 -91 
Q 1294 -91 989 -36 
Q 684 19 347 128 
L 347 722 
Q 666 556 975 473 
Q 1284 391 1588 391 
Q 1994 391 2212 530 
Q 2431 669 2431 922 
Q 2431 1156 2273 1281 
Q 2116 1406 1581 1522 
L 1381 1569 
Q 847 1681 609 1914 
Q 372 2147 372 2553 
Q 372 3047 722 3315 
Q 1072 3584 1716 3584 
Q 2034 3584 2315 3537 
Q 2597 3491 2834 3397 
z
" id="DejaVuSans-73" transform="scale(0.015625)"/>
      </defs>
      <use xlink:href="#DejaVuSans-6d"/>
      <use x="97.412109" xlink:href="#DejaVuSans-61"/>
      <use x="158.691406" xlink:href="#DejaVuSans-74"/>
      <use x="197.900391" xlink:href="#DejaVuSans-74"/>
      <use x="237.109375" xlink:href="#DejaVuSans-72"/>
      <use x="275.972656" xlink:href="#DejaVuSans-65"/>
      <use x="337.496094" xlink:href="#DejaVuSans-73"/>
      <use x="389.595703" xlink:href="#DejaVuSans-73"/>
     </g>
    </g>
    <g id="line2d_25">
     <path d="M 66.6 217.865937 
L 86.6 217.865937 
" style="fill:none;stroke:#008000;stroke-linecap:square;stroke-opacity:0.9;stroke-width:2;"/>
    </g>
    <g id="line2d_26"/>
    <g id="text_19">
     <!-- daily-open-rebal -->
     <g transform="translate(94.6 221.365937)scale(0.1 -0.1)">
      <defs>
       <path d="M 3513 2113 
L 3513 0 
L 2938 0 
L 2938 2094 
Q 2938 2591 2744 2837 
Q 2550 3084 2163 3084 
Q 1697 3084 1428 2787 
Q 1159 2491 1159 1978 
L 1159 0 
L 581 0 
L 581 3500 
L 1159 3500 
L 1159 2956 
Q 1366 3272 1645 3428 
Q 1925 3584 2291 3584 
Q 2894 3584 3203 3211 
Q 3513 2838 3513 2113 
z
" id="DejaVuSans-6e" transform="scale(0.015625)"/>
       <path d="M 3116 1747 
Q 3116 2381 2855 2742 
Q 2594 3103 2138 3103 
Q 1681 3103 1420 2742 
Q 1159 2381 1159 1747 
Q 1159 1113 1420 752 
Q 1681 391 2138 391 
Q 2594 391 2855 752 
Q 3116 1113 3116 1747 
z
M 1159 2969 
Q 1341 3281 1617 3432 
Q 1894 3584 2278 3584 
Q 2916 3584 3314 3078 
Q 3713 2572 3713 1747 
Q 3713 922 3314 415 
Q 2916 -91 2278 -91 
Q 1894 -91 1617 61 
Q 1341 213 1159 525 
L 1159 0 
L 581 0 
L 581 4863 
L 1159 4863 
L 1159 2969 
z
" id="DejaVuSans-62" transform="scale(0.015625)"/>
      </defs>
      <use xlink:href="#DejaVuSans-64"/>
      <use x="63.476562" xlink:href="#DejaVuSans-61"/>
      <use x="124.755859" xlink:href="#DejaVuSans-69"/>
      <use x="152.539062" xlink:href="#DejaVuSans-6c"/>
      <use x="180.322266" xlink:href="#DejaVuSans-79"/>
      <use x="237.751953" xlink:href="#DejaVuSans-2d"/>
      <use x="275.710938" xlink:href="#DejaVuSans-6f"/>
      <use x="336.892578" xlink:href="#DejaVuSans-70"/>
      <use x="400.369141" xlink:href="#DejaVuSans-65"/>
      <use x="461.892578" xlink:href="#DejaVuSans-6e"/>
      <use x="525.271484" xlink:href="#DejaVuSans-2d"/>
      <use x="561.355469" xlink:href="#DejaVuSans-72"/>
      <use x="600.21875" xlink:href="#DejaVuSans-65"/>
      <use x="661.742188" xlink:href="#DejaVuSans-62"/>
      <use x="725.21875" xlink:href="#DejaVuSans-61"/>
      <use x="786.498047" xlink:href="#DejaVuSans-6c"/>
     </g>
    </g>
    <g id="line2d_27">
     <path d="M 66.6 232.544062 
L 86.6 232.544062 
" style="fill:none;stroke:#ec5283;stroke-linecap:square;stroke-width:2;"/>
    </g>
    <g id="line2d_28"/>
    <g id="text_20">
     <!-- daily-close-rebal -->
     <g transform="translate(94.6 236.044062)scale(0.1 -0.1)">
      <use xlink:href="#DejaVuSans-64"/>
      <use x="63.476562" xlink:href="#DejaVuSans-61"/>
      <use x="124.755859" xlink:href="#DejaVuSans-69"/>
      <use x="152.539062" xlink:href="#DejaVuSans-6c"/>
      <use x="180.322266" xlink:href="#DejaVuSans-79"/>
      <use x="237.751953" xlink:href="#DejaVuSans-2d"/>
      <use x="273.835938" xlink:href="#DejaVuSans-63"/>
      <use x="328.816406" xlink:href="#DejaVuSans-6c"/>
      <use x="356.599609" xlink:href="#DejaVuSans-6f"/>
      <use x="417.78125" xlink:href="#DejaVuSans-73"/>
      <use x="469.880859" xlink:href="#DejaVuSans-65"/>
      <use x="531.404297" xlink:href="#DejaVuSans-2d"/>
      <use x="567.488281" xlink:href="#DejaVuSans-72"/>
      <use x="606.351562" xlink:href="#DejaVuSans-65"/>
      <use x="667.875" xlink:href="#DejaVuSans-62"/>
      <use x="731.351562" xlink:href="#DejaVuSans-61"/>
      <use x="792.630859" xlink:href="#DejaVuSans-6c"/>
     </g>
    </g>
    <g id="line2d_29">
     <path d="M 66.6 247.222187 
L 86.6 247.222187 
" style="fill:none;stroke:#00ff00;stroke-linecap:square;stroke-opacity:0.9;stroke-width:2;"/>
    </g>
    <g id="line2d_30"/>
    <g id="text_21">
     <!-- trader-baseline -->
     <g transform="translate(94.6 250.722187)scale(0.1 -0.1)">
      <use xlink:href="#DejaVuSans-74"/>
      <use x="39.208984" xlink:href="#DejaVuSans-72"/>
      <use x="80.322266" xlink:href="#DejaVuSans-61"/>
      <use x="141.601562" xlink:href="#DejaVuSans-64"/>
      <use x="205.078125" xlink:href="#DejaVuSans-65"/>
      <use x="266.601562" xlink:href="#DejaVuSans-72"/>
      <use x="301.339844" xlink:href="#DejaVuSans-2d"/>
      <use x="337.423828" xlink:href="#DejaVuSans-62"/>
      <use x="400.900391" xlink:href="#DejaVuSans-61"/>
      <use x="462.179688" xlink:href="#DejaVuSans-73"/>
      <use x="514.279297" xlink:href="#DejaVuSans-65"/>
      <use x="575.802734" xlink:href="#DejaVuSans-6c"/>
      <use x="603.585938" xlink:href="#DejaVuSans-69"/>
      <use x="631.369141" xlink:href="#DejaVuSans-6e"/>
      <use x="694.748047" xlink:href="#DejaVuSans-65"/>
     </g>
    </g>
    <g id="line2d_31">
     <path d="M 66.6 261.900312 
L 86.6 261.900312 
" style="fill:none;stroke:#a5b9cf;stroke-linecap:square;stroke-width:2;"/>
    </g>
    <g id="line2d_32"/>
    <g id="text_22">
     <!-- default-cfg -->
     <g transform="translate(94.6 265.400312)scale(0.1 -0.1)">
      <defs>
       <path d="M 2375 4863 
L 2375 4384 
L 1825 4384 
Q 1516 4384 1395 4259 
Q 1275 4134 1275 3809 
L 1275 3500 
L 2222 3500 
L 2222 3053 
L 1275 3053 
L 1275 0 
L 697 0 
L 697 3053 
L 147 3053 
L 147 3500 
L 697 3500 
L 697 3744 
Q 697 4328 969 4595 
Q 1241 4863 1831 4863 
L 2375 4863 
z
" id="DejaVuSans-66" transform="scale(0.015625)"/>
       <path d="M 544 1381 
L 544 3500 
L 1119 3500 
L 1119 1403 
Q 1119 906 1312 657 
Q 1506 409 1894 409 
Q 2359 409 2629 706 
Q 2900 1003 2900 1516 
L 2900 3500 
L 3475 3500 
L 3475 0 
L 2900 0 
L 2900 538 
Q 2691 219 2414 64 
Q 2138 -91 1772 -91 
Q 1169 -91 856 284 
Q 544 659 544 1381 
z
M 1991 3584 
L 1991 3584 
z
" id="DejaVuSans-75" transform="scale(0.015625)"/>
       <path d="M 2906 1791 
Q 2906 2416 2648 2759 
Q 2391 3103 1925 3103 
Q 1463 3103 1205 2759 
Q 947 2416 947 1791 
Q 947 1169 1205 825 
Q 1463 481 1925 481 
Q 2391 481 2648 825 
Q 2906 1169 2906 1791 
z
M 3481 434 
Q 3481 -459 3084 -895 
Q 2688 -1331 1869 -1331 
Q 1566 -1331 1297 -1286 
Q 1028 -1241 775 -1147 
L 775 -588 
Q 1028 -725 1275 -790 
Q 1522 -856 1778 -856 
Q 2344 -856 2625 -561 
Q 2906 -266 2906 331 
L 2906 616 
Q 2728 306 2450 153 
Q 2172 0 1784 0 
Q 1141 0 747 490 
Q 353 981 353 1791 
Q 353 2603 747 3093 
Q 1141 3584 1784 3584 
Q 2172 3584 2450 3431 
Q 2728 3278 2906 2969 
L 2906 3500 
L 3481 3500 
L 3481 434 
z
" id="DejaVuSans-67" transform="scale(0.015625)"/>
      </defs>
      <use xlink:href="#DejaVuSans-64"/>
      <use x="63.476562" xlink:href="#DejaVuSans-65"/>
      <use x="125" xlink:href="#DejaVuSans-66"/>
      <use x="160.205078" xlink:href="#DejaVuSans-61"/>
      <use x="221.484375" xlink:href="#DejaVuSans-75"/>
      <use x="284.863281" xlink:href="#DejaVuSans-6c"/>
      <use x="312.646484" xlink:href="#DejaVuSans-74"/>
      <use x="351.855469" xlink:href="#DejaVuSans-2d"/>
      <use x="387.939453" xlink:href="#DejaVuSans-63"/>
      <use x="442.919922" xlink:href="#DejaVuSans-66"/>
      <use x="478.125" xlink:href="#DejaVuSans-67"/>
     </g>
    </g>
   </g>
  </g>
 </g>
 <defs>
  <clipPath id="p43c8784773">
   <rect height="235.008" width="357.12" x="57.6" y="41.472"/>
  </clipPath>
 </defs>
</svg>
