<?xml version="1.0" encoding="utf-8" standalone="no"?>
<!DOCTYPE svg PUBLIC "-//W3C//DTD SVG 1.1//EN"
  "http://www.w3.org/Graphics/SVG/1.1/DTD/svg11.dtd">
<svg height="345.6pt" version="1.1" viewBox="0 0 460.8 345.6" width="460.8pt" xmlns="http://www.w3.org/2000/svg" xmlns:xlink="http://www.w3.org/1999/xlink">
 <metadata>
  <rdf:RDF xmlns:cc="http://creativecommons.org/ns#" xmlns:dc="http://purl.org/dc/elements/1.1/" xmlns:rdf="http://www.w3.org/1999/02/22-rdf-syntax-ns#">
   <cc:Work>
    <dc:type rdf:resource="http://purl.org/dc/dcmitype/StillImage"/>
    <dc:date>2022-04-27T10:02:15.487336</dc:date>
    <dc:format>image/svg+xml</dc:format>
    <dc:creator>
     <cc:Agent>
      <dc:title>Matplotlib v3.4.3, https://matplotlib.org/</dc:title>
     </cc:Agent>
    </dc:creator>
   </cc:Work>
  </rdf:RDF>
 </metadata>
 <defs>
  <style type="text/css">*{stroke-linecap:butt;stroke-linejoin:round;}</style>
 </defs>
 <g id="figure_1">
  <g id="patch_1">
   <path d="M 0 345.6 
L 460.8 345.6 
L 460.8 0 
L 0 0 
z
" style="fill:#ffffff;"/>
  </g>
  <g id="axes_1">
   <g id="patch_2">
    <path d="M 57.6 276.48 
L 414.72 276.48 
L 414.72 41.472 
L 57.6 41.472 
z
" style="fill:#ffffff;"/>
   </g>
   <g id="matplotlib.axis_1">
    <g id="xtick_1">
     <g id="line2d_1">
      <defs>
       <path d="M 0 0 
L 0 3.5 
" id="m182f423669" style="stroke:#000000;stroke-width:0.8;"/>
      </defs>
      <g>
       <use style="stroke:#000000;stroke-width:0.8;" x="100.37681" xlink:href="#m182f423669" y="276.48"/>
      </g>
     </g>
     <g id="text_1">
      <!-- 2021-12 -->
      <g transform="translate(63.151989 310.951846)rotate(-30)scale(0.1 -0.1)">
       <defs>
        <path d="M 1228 531 
L 3431 531 
L 3431 0 
L 469 0 
L 469 531 
Q 828 903 1448 1529 
Q 2069 2156 2228 2338 
Q 2531 2678 2651 2914 
Q 2772 3150 2772 3378 
Q 2772 3750 2511 3984 
Q 2250 4219 1831 4219 
Q 1534 4219 1204 4116 
Q 875 4013 500 3803 
L 500 4441 
Q 881 4594 1212 4672 
Q 1544 4750 1819 4750 
Q 2544 4750 2975 4387 
Q 3406 4025 3406 3419 
Q 3406 3131 3298 2873 
Q 3191 2616 2906 2266 
Q 2828 2175 2409 1742 
Q 1991 1309 1228 531 
z
" id="DejaVuSans-32" transform="scale(0.015625)"/>
        <path d="M 2034 4250 
Q 1547 4250 1301 3770 
Q 1056 3291 1056 2328 
Q 1056 1369 1301 889 
Q 1547 409 2034 409 
Q 2525 409 2770 889 
Q 3016 1369 3016 2328 
Q 3016 3291 2770 3770 
Q 2525 4250 2034 4250 
z
M 2034 4750 
Q 2819 4750 3233 4129 
Q 3647 3509 3647 2328 
Q 3647 1150 3233 529 
Q 2819 -91 2034 -91 
Q 1250 -91 836 529 
Q 422 1150 422 2328 
Q 422 3509 836 4129 
Q 1250 4750 2034 4750 
z
" id="DejaVuSans-30" transform="scale(0.015625)"/>
        <path d="M 794 531 
L 1825 531 
L 1825 4091 
L 703 3866 
L 703 4441 
L 1819 4666 
L 2450 4666 
L 2450 531 
L 3481 531 
L 3481 0 
L 794 0 
L 794 531 
z
" id="DejaVuSans-31" transform="scale(0.015625)"/>
        <path d="M 313 2009 
L 1997 2009 
L 1997 1497 
L 313 1497 
L 313 2009 
z
" id="DejaVuSans-2d" transform="scale(0.015625)"/>
       </defs>
       <use xlink:href="#DejaVuSans-32"/>
       <use x="63.623047" xlink:href="#DejaVuSans-30"/>
       <use x="127.246094" xlink:href="#DejaVuSans-32"/>
       <use x="190.869141" xlink:href="#DejaVuSans-31"/>
       <use x="254.492188" xlink:href="#DejaVuSans-2d"/>
       <use x="290.576172" xlink:href="#DejaVuSans-31"/>
       <use x="354.199219" xlink:href="#DejaVuSans-32"/>
      </g>
     </g>
    </g>
    <g id="xtick_2">
     <g id="line2d_2">
      <g>
       <use style="stroke:#000000;stroke-width:0.8;" x="163.674237" xlink:href="#m182f423669" y="276.48"/>
      </g>
     </g>
     <g id="text_2">
      <!-- 2022-01 -->
      <g transform="translate(126.449416 310.951846)rotate(-30)scale(0.1 -0.1)">
       <use xlink:href="#DejaVuSans-32"/>
       <use x="63.623047" xlink:href="#DejaVuSans-30"/>
       <use x="127.246094" xlink:href="#DejaVuSans-32"/>
       <use x="190.869141" xlink:href="#DejaVuSans-32"/>
       <use x="254.492188" xlink:href="#DejaVuSans-2d"/>
       <use x="290.576172" xlink:href="#DejaVuSans-30"/>
       <use x="354.199219" xlink:href="#DejaVuSans-31"/>
      </g>
     </g>
    </g>
    <g id="xtick_3">
     <g id="line2d_3">
      <g>
       <use style="stroke:#000000;stroke-width:0.8;" x="226.971664" xlink:href="#m182f423669" y="276.48"/>
      </g>
     </g>
     <g id="text_3">
      <!-- 2022-02 -->
      <g transform="translate(189.746843 310.951846)rotate(-30)scale(0.1 -0.1)">
       <use xlink:href="#DejaVuSans-32"/>
       <use x="63.623047" xlink:href="#DejaVuSans-30"/>
       <use x="127.246094" xlink:href="#DejaVuSans-32"/>
       <use x="190.869141" xlink:href="#DejaVuSans-32"/>
       <use x="254.492188" xlink:href="#DejaVuSans-2d"/>
       <use x="290.576172" xlink:href="#DejaVuSans-30"/>
       <use x="354.199219" xlink:href="#DejaVuSans-32"/>
      </g>
     </g>
    </g>
    <g id="xtick_4">
     <g id="line2d_4">
      <g>
       <use style="stroke:#000000;stroke-width:0.8;" x="284.143533" xlink:href="#m182f423669" y="276.48"/>
      </g>
     </g>
     <g id="text_4">
      <!-- 2022-03 -->
      <g transform="translate(246.918713 310.951846)rotate(-30)scale(0.1 -0.1)">
       <defs>
        <path d="M 2597 2516 
Q 3050 2419 3304 2112 
Q 3559 1806 3559 1356 
Q 3559 666 3084 287 
Q 2609 -91 1734 -91 
Q 1441 -91 1130 -33 
Q 819 25 488 141 
L 488 750 
Q 750 597 1062 519 
Q 1375 441 1716 441 
Q 2309 441 2620 675 
Q 2931 909 2931 1356 
Q 2931 1769 2642 2001 
Q 2353 2234 1838 2234 
L 1294 2234 
L 1294 2753 
L 1863 2753 
Q 2328 2753 2575 2939 
Q 2822 3125 2822 3475 
Q 2822 3834 2567 4026 
Q 2313 4219 1838 4219 
Q 1578 4219 1281 4162 
Q 984 4106 628 3988 
L 628 4550 
Q 988 4650 1302 4700 
Q 1616 4750 1894 4750 
Q 2613 4750 3031 4423 
Q 3450 4097 3450 3541 
Q 3450 3153 3228 2886 
Q 3006 2619 2597 2516 
z
" id="DejaVuSans-33" transform="scale(0.015625)"/>
       </defs>
       <use xlink:href="#DejaVuSans-32"/>
       <use x="63.623047" xlink:href="#DejaVuSans-30"/>
       <use x="127.246094" xlink:href="#DejaVuSans-32"/>
       <use x="190.869141" xlink:href="#DejaVuSans-32"/>
       <use x="254.492188" xlink:href="#DejaVuSans-2d"/>
       <use x="290.576172" xlink:href="#DejaVuSans-30"/>
       <use x="354.199219" xlink:href="#DejaVuSans-33"/>
      </g>
     </g>
    </g>
    <g id="xtick_5">
     <g id="line2d_5">
      <g>
       <use style="stroke:#000000;stroke-width:0.8;" x="347.440961" xlink:href="#m182f423669" y="276.48"/>
      </g>
     </g>
     <g id="text_5">
      <!-- 2022-04 -->
      <g transform="translate(310.21614 310.951846)rotate(-30)scale(0.1 -0.1)">
       <defs>
        <path d="M 2419 4116 
L 825 1625 
L 2419 1625 
L 2419 4116 
z
M 2253 4666 
L 3047 4666 
L 3047 1625 
L 3713 1625 
L 3713 1100 
L 3047 1100 
L 3047 0 
L 2419 0 
L 2419 1100 
L 313 1100 
L 313 1709 
L 2253 4666 
z
" id="DejaVuSans-34" transform="scale(0.015625)"/>
       </defs>
       <use xlink:href="#DejaVuSans-32"/>
       <use x="63.623047" xlink:href="#DejaVuSans-30"/>
       <use x="127.246094" xlink:href="#DejaVuSans-32"/>
       <use x="190.869141" xlink:href="#DejaVuSans-32"/>
       <use x="254.492188" xlink:href="#DejaVuSans-2d"/>
       <use x="290.576172" xlink:href="#DejaVuSans-30"/>
       <use x="354.199219" xlink:href="#DejaVuSans-34"/>
      </g>
     </g>
    </g>
    <g id="xtick_6">
     <g id="line2d_6">
      <g>
       <use style="stroke:#000000;stroke-width:0.8;" x="408.696535" xlink:href="#m182f423669" y="276.48"/>
      </g>
     </g>
     <g id="text_6">
      <!-- 2022-05 -->
      <g transform="translate(371.471714 310.951846)rotate(-30)scale(0.1 -0.1)">
       <defs>
        <path d="M 691 4666 
L 3169 4666 
L 3169 4134 
L 1269 4134 
L 1269 2991 
Q 1406 3038 1543 3061 
Q 1681 3084 1819 3084 
Q 2600 3084 3056 2656 
Q 3513 2228 3513 1497 
Q 3513 744 3044 326 
Q 2575 -91 1722 -91 
Q 1428 -91 1123 -41 
Q 819 9 494 109 
L 494 744 
Q 775 591 1075 516 
Q 1375 441 1709 441 
Q 2250 441 2565 725 
Q 2881 1009 2881 1497 
Q 2881 1984 2565 2268 
Q 2250 2553 1709 2553 
Q 1456 2553 1204 2497 
Q 953 2441 691 2322 
L 691 4666 
z
" id="DejaVuSans-35" transform="scale(0.015625)"/>
       </defs>
       <use xlink:href="#DejaVuSans-32"/>
       <use x="63.623047" xlink:href="#DejaVuSans-30"/>
       <use x="127.246094" xlink:href="#DejaVuSans-32"/>
       <use x="190.869141" xlink:href="#DejaVuSans-32"/>
       <use x="254.492188" xlink:href="#DejaVuSans-2d"/>
       <use x="290.576172" xlink:href="#DejaVuSans-30"/>
       <use x="354.199219" xlink:href="#DejaVuSans-35"/>
      </g>
     </g>
    </g>
    <g id="text_7">
     <!-- date -->
     <g transform="translate(224.885 324.351346)scale(0.1 -0.1)">
      <defs>
       <path d="M 2906 2969 
L 2906 4863 
L 3481 4863 
L 3481 0 
L 2906 0 
L 2906 525 
Q 2725 213 2448 61 
Q 2172 -91 1784 -91 
Q 1150 -91 751 415 
Q 353 922 353 1747 
Q 353 2572 751 3078 
Q 1150 3584 1784 3584 
Q 2172 3584 2448 3432 
Q 2725 3281 2906 2969 
z
M 947 1747 
Q 947 1113 1208 752 
Q 1469 391 1925 391 
Q 2381 391 2643 752 
Q 2906 1113 2906 1747 
Q 2906 2381 2643 2742 
Q 2381 3103 1925 3103 
Q 1469 3103 1208 2742 
Q 947 2381 947 1747 
z
" id="DejaVuSans-64" transform="scale(0.015625)"/>
       <path d="M 2194 1759 
Q 1497 1759 1228 1600 
Q 959 1441 959 1056 
Q 959 750 1161 570 
Q 1363 391 1709 391 
Q 2188 391 2477 730 
Q 2766 1069 2766 1631 
L 2766 1759 
L 2194 1759 
z
M 3341 1997 
L 3341 0 
L 2766 0 
L 2766 531 
Q 2569 213 2275 61 
Q 1981 -91 1556 -91 
Q 1019 -91 701 211 
Q 384 513 384 1019 
Q 384 1609 779 1909 
Q 1175 2209 1959 2209 
L 2766 2209 
L 2766 2266 
Q 2766 2663 2505 2880 
Q 2244 3097 1772 3097 
Q 1472 3097 1187 3025 
Q 903 2953 641 2809 
L 641 3341 
Q 956 3463 1253 3523 
Q 1550 3584 1831 3584 
Q 2591 3584 2966 3190 
Q 3341 2797 3341 1997 
z
" id="DejaVuSans-61" transform="scale(0.015625)"/>
       <path d="M 1172 4494 
L 1172 3500 
L 2356 3500 
L 2356 3053 
L 1172 3053 
L 1172 1153 
Q 1172 725 1289 603 
Q 1406 481 1766 481 
L 2356 481 
L 2356 0 
L 1766 0 
Q 1100 0 847 248 
Q 594 497 594 1153 
L 594 3053 
L 172 3053 
L 172 3500 
L 594 3500 
L 594 4494 
L 1172 4494 
z
" id="DejaVuSans-74" transform="scale(0.015625)"/>
       <path d="M 3597 1894 
L 3597 1613 
L 953 1613 
Q 991 1019 1311 708 
Q 1631 397 2203 397 
Q 2534 397 2845 478 
Q 3156 559 3463 722 
L 3463 178 
Q 3153 47 2828 -22 
Q 2503 -91 2169 -91 
Q 1331 -91 842 396 
Q 353 884 353 1716 
Q 353 2575 817 3079 
Q 1281 3584 2069 3584 
Q 2775 3584 3186 3129 
Q 3597 2675 3597 1894 
z
M 3022 2063 
Q 3016 2534 2758 2815 
Q 2500 3097 2075 3097 
Q 1594 3097 1305 2825 
Q 1016 2553 972 2059 
L 3022 2063 
z
" id="DejaVuSans-65" transform="scale(0.015625)"/>
      </defs>
      <use xlink:href="#DejaVuSans-64"/>
      <use x="63.476562" xlink:href="#DejaVuSans-61"/>
      <use x="124.755859" xlink:href="#DejaVuSans-74"/>
      <use x="163.964844" xlink:href="#DejaVuSans-65"/>
     </g>
    </g>
   </g>
   <g id="matplotlib.axis_2">
    <g id="ytick_1">
     <g id="line2d_7">
      <defs>
       <path d="M 0 0 
L -3.5 0 
" id="md4e740b7d0" style="stroke:#000000;stroke-width:0.8;"/>
      </defs>
      <g>
       <use style="stroke:#000000;stroke-width:0.8;" x="57.6" xlink:href="#md4e740b7d0" y="256.529429"/>
      </g>
     </g>
     <g id="text_8">
      <!-- 92500 -->
      <g transform="translate(18.7875 260.328648)scale(0.1 -0.1)">
       <defs>
        <path d="M 703 97 
L 703 672 
Q 941 559 1184 500 
Q 1428 441 1663 441 
Q 2288 441 2617 861 
Q 2947 1281 2994 2138 
Q 2813 1869 2534 1725 
Q 2256 1581 1919 1581 
Q 1219 1581 811 2004 
Q 403 2428 403 3163 
Q 403 3881 828 4315 
Q 1253 4750 1959 4750 
Q 2769 4750 3195 4129 
Q 3622 3509 3622 2328 
Q 3622 1225 3098 567 
Q 2575 -91 1691 -91 
Q 1453 -91 1209 -44 
Q 966 3 703 97 
z
M 1959 2075 
Q 2384 2075 2632 2365 
Q 2881 2656 2881 3163 
Q 2881 3666 2632 3958 
Q 2384 4250 1959 4250 
Q 1534 4250 1286 3958 
Q 1038 3666 1038 3163 
Q 1038 2656 1286 2365 
Q 1534 2075 1959 2075 
z
" id="DejaVuSans-39" transform="scale(0.015625)"/>
       </defs>
       <use xlink:href="#DejaVuSans-39"/>
       <use x="63.623047" xlink:href="#DejaVuSans-32"/>
       <use x="127.246094" xlink:href="#DejaVuSans-35"/>
       <use x="190.869141" xlink:href="#DejaVuSans-30"/>
       <use x="254.492188" xlink:href="#DejaVuSans-30"/>
      </g>
     </g>
    </g>
    <g id="ytick_2">
     <g id="line2d_8">
      <g>
       <use style="stroke:#000000;stroke-width:0.8;" x="57.6" xlink:href="#md4e740b7d0" y="226.826962"/>
      </g>
     </g>
     <g id="text_9">
      <!-- 95000 -->
      <g transform="translate(18.7875 230.626181)scale(0.1 -0.1)">
       <use xlink:href="#DejaVuSans-39"/>
       <use x="63.623047" xlink:href="#DejaVuSans-35"/>
       <use x="127.246094" xlink:href="#DejaVuSans-30"/>
       <use x="190.869141" xlink:href="#DejaVuSans-30"/>
       <use x="254.492188" xlink:href="#DejaVuSans-30"/>
      </g>
     </g>
    </g>
    <g id="ytick_3">
     <g id="line2d_9">
      <g>
       <use style="stroke:#000000;stroke-width:0.8;" x="57.6" xlink:href="#md4e740b7d0" y="197.124495"/>
      </g>
     </g>
     <g id="text_10">
      <!-- 97500 -->
      <g transform="translate(18.7875 200.923714)scale(0.1 -0.1)">
       <defs>
        <path d="M 525 4666 
L 3525 4666 
L 3525 4397 
L 1831 0 
L 1172 0 
L 2766 4134 
L 525 4134 
L 525 4666 
z
" id="DejaVuSans-37" transform="scale(0.015625)"/>
       </defs>
       <use xlink:href="#DejaVuSans-39"/>
       <use x="63.623047" xlink:href="#DejaVuSans-37"/>
       <use x="127.246094" xlink:href="#DejaVuSans-35"/>
       <use x="190.869141" xlink:href="#DejaVuSans-30"/>
       <use x="254.492188" xlink:href="#DejaVuSans-30"/>
      </g>
     </g>
    </g>
    <g id="ytick_4">
     <g id="line2d_10">
      <g>
       <use style="stroke:#000000;stroke-width:0.8;" x="57.6" xlink:href="#md4e740b7d0" y="167.422028"/>
      </g>
     </g>
     <g id="text_11">
      <!-- 100000 -->
      <g transform="translate(12.425 171.221247)scale(0.1 -0.1)">
       <use xlink:href="#DejaVuSans-31"/>
       <use x="63.623047" xlink:href="#DejaVuSans-30"/>
       <use x="127.246094" xlink:href="#DejaVuSans-30"/>
       <use x="190.869141" xlink:href="#DejaVuSans-30"/>
       <use x="254.492188" xlink:href="#DejaVuSans-30"/>
       <use x="318.115234" xlink:href="#DejaVuSans-30"/>
      </g>
     </g>
    </g>
    <g id="ytick_5">
     <g id="line2d_11">
      <g>
       <use style="stroke:#000000;stroke-width:0.8;" x="57.6" xlink:href="#md4e740b7d0" y="137.719561"/>
      </g>
     </g>
     <g id="text_12">
      <!-- 102500 -->
      <g transform="translate(12.425 141.518779)scale(0.1 -0.1)">
       <use xlink:href="#DejaVuSans-31"/>
       <use x="63.623047" xlink:href="#DejaVuSans-30"/>
       <use x="127.246094" xlink:href="#DejaVuSans-32"/>
       <use x="190.869141" xlink:href="#DejaVuSans-35"/>
       <use x="254.492188" xlink:href="#DejaVuSans-30"/>
       <use x="318.115234" xlink:href="#DejaVuSans-30"/>
      </g>
     </g>
    </g>
    <g id="ytick_6">
     <g id="line2d_12">
      <g>
       <use style="stroke:#000000;stroke-width:0.8;" x="57.6" xlink:href="#md4e740b7d0" y="108.017093"/>
      </g>
     </g>
     <g id="text_13">
      <!-- 105000 -->
      <g transform="translate(12.425 111.816312)scale(0.1 -0.1)">
       <use xlink:href="#DejaVuSans-31"/>
       <use x="63.623047" xlink:href="#DejaVuSans-30"/>
       <use x="127.246094" xlink:href="#DejaVuSans-35"/>
       <use x="190.869141" xlink:href="#DejaVuSans-30"/>
       <use x="254.492188" xlink:href="#DejaVuSans-30"/>
       <use x="318.115234" xlink:href="#DejaVuSans-30"/>
      </g>
     </g>
    </g>
    <g id="ytick_7">
     <g id="line2d_13">
      <g>
       <use style="stroke:#000000;stroke-width:0.8;" x="57.6" xlink:href="#md4e740b7d0" y="78.314626"/>
      </g>
     </g>
     <g id="text_14">
      <!-- 107500 -->
      <g transform="translate(12.425 82.113845)scale(0.1 -0.1)">
       <use xlink:href="#DejaVuSans-31"/>
       <use x="63.623047" xlink:href="#DejaVuSans-30"/>
       <use x="127.246094" xlink:href="#DejaVuSans-37"/>
       <use x="190.869141" xlink:href="#DejaVuSans-35"/>
       <use x="254.492188" xlink:href="#DejaVuSans-30"/>
       <use x="318.115234" xlink:href="#DejaVuSans-30"/>
      </g>
     </g>
    </g>
    <g id="ytick_8">
     <g id="line2d_14">
      <g>
       <use style="stroke:#000000;stroke-width:0.8;" x="57.6" xlink:href="#md4e740b7d0" y="48.612159"/>
      </g>
     </g>
     <g id="text_15">
      <!-- 110000 -->
      <g transform="translate(12.425 52.411378)scale(0.1 -0.1)">
       <use xlink:href="#DejaVuSans-31"/>
       <use x="63.623047" xlink:href="#DejaVuSans-31"/>
       <use x="127.246094" xlink:href="#DejaVuSans-30"/>
       <use x="190.869141" xlink:href="#DejaVuSans-30"/>
       <use x="254.492188" xlink:href="#DejaVuSans-30"/>
       <use x="318.115234" xlink:href="#DejaVuSans-30"/>
      </g>
     </g>
    </g>
   </g>
   <g id="line2d_15">
    <path clip-path="url(#p6b81da0e37)" d="M 73.832727 52.154182 
L 75.87458 58.787794 
L 82.000137 65.32672 
L 84.04199 65.249714 
L 86.083842 60.716258 
L 90.167547 60.168152 
L 96.293105 84.226151 
L 98.334957 113.022753 
L 100.37681 136.409923 
L 102.418662 110.011498 
L 104.460515 124.477009 
L 110.586072 107.766231 
L 112.627925 80.949171 
L 114.669777 73.063072 
L 116.71163 90.916882 
L 118.753482 86.731042 
L 124.879039 98.290033 
L 126.920892 108.708371 
L 128.962744 91.410743 
L 131.004597 104.541249 
L 133.046449 107.704454 
L 139.172007 125.314802 
L 141.213859 96.260073 
L 143.255712 86.113677 
L 145.297564 76.928231 
L 153.464974 67.447955 
L 155.506827 69.873962 
L 157.548679 67.520443 
L 159.590532 68.15856 
L 161.632384 69.750436 
L 167.757942 67.727404 
L 169.799794 67.823879 
L 171.841647 100.789721 
L 173.883499 97.828114 
L 175.925352 105.291324 
L 182.050909 109.314892 
L 184.092762 94.560893 
L 186.134614 95.04371 
L 188.176467 111.198 
L 190.218319 113.907082 
L 198.385729 141.055402 
L 200.427581 154.338442 
L 202.469434 169.638677 
L 204.511286 192.073999 
L 210.636844 177.852556 
L 212.678696 196.672835 
L 214.720549 206.526072 
L 216.762401 218.520953 
L 218.804254 192.538226 
L 224.929811 163.274793 
L 226.971664 151.926477 
L 229.013516 149.380124 
L 231.055369 174.769743 
L 233.097221 167.399708 
L 239.222779 167.629836 
L 241.264631 153.926692 
L 243.306484 130.257457 
L 245.348336 149.770748 
L 247.390189 170.509012 
L 253.515746 177.131686 
L 255.557599 152.688976 
L 257.599451 152.314784 
L 259.641304 180.451489 
L 261.683156 189.545669 
L 269.850566 203.687653 
L 271.892419 225.596407 
L 273.934271 203.465661 
L 275.976123 175.777505 
L 282.101681 175.753296 
L 284.143533 195.031763 
L 286.185386 172.171478 
L 288.227238 183.35967 
L 290.269091 196.349307 
L 296.394648 234.126283 
L 298.436501 236.840399 
L 300.478353 206.207996 
L 302.520206 208.973531 
L 304.562058 226.414754 
L 310.687616 240.323505 
L 312.729468 219.09723 
L 314.771321 187.891671 
L 316.813173 169.759019 
L 318.855026 156.153982 
L 324.980583 160.133498 
L 327.022436 147.115822 
L 329.064288 167.158702 
L 331.106141 151.498079 
L 333.147993 147.130756 
L 339.273551 142.361286 
L 341.315403 118.51507 
L 343.357256 131.85983 
L 345.399108 148.99598 
L 347.440961 141.614249 
L 353.566518 135.694408 
L 355.60837 155.020851 
L 357.650223 167.525924 
L 359.692075 165.780819 
L 361.733928 168.828843 
L 367.859485 181.705974 
L 369.901338 184.443701 
L 371.94319 166.442613 
L 373.985043 178.916582 
L 382.152453 184.233716 
L 384.194305 160.9882 
L 386.236158 158.138072 
L 388.27801 181.7006 
L 390.319863 212.479471 
L 396.44542 206.225981 
L 398.487273 226.435673 
" style="fill:none;stroke:#0000ff;stroke-linecap:square;stroke-opacity:0.9;stroke-width:2;"/>
   </g>
   <g id="line2d_16">
    <path clip-path="url(#p6b81da0e37)" d="M 73.832727 52.154182 
L 75.87458 59.297411 
L 82.000137 64.824596 
L 84.04199 65.442911 
L 86.083842 60.443345 
L 90.167547 92.66666 
L 96.293105 83.514311 
L 98.334957 112.996378 
L 100.37681 136.460966 
L 102.418662 110.103801 
L 104.460515 124.809902 
L 110.586072 108.564259 
L 112.627925 80.553555 
L 114.669777 73.006211 
L 116.71163 91.201158 
L 118.753482 87.503531 
L 124.879039 98.267363 
L 126.920892 108.725684 
L 128.962744 91.780204 
L 131.004597 105.031302 
L 133.046449 107.997708 
L 139.172007 125.44399 
L 141.213859 96.098373 
L 143.255712 86.66508 
L 145.297564 77.869245 
L 153.464974 67.55122 
L 155.506827 70.135204 
L 157.548679 67.048155 
L 159.590532 67.967994 
L 161.632384 69.68405 
L 167.757942 67.974154 
L 169.799794 67.361085 
L 171.841647 99.876608 
L 173.883499 96.394989 
L 175.925352 103.716786 
L 182.050909 106.933157 
L 184.092762 93.553022 
L 186.134614 93.845313 
L 188.176467 108.625513 
L 190.218319 111.291038 
L 198.385729 138.754809 
L 200.427581 151.167814 
L 202.469434 167.086035 
L 204.511286 188.588236 
L 210.636844 175.978025 
L 212.678696 193.633743 
L 214.720549 202.622303 
L 216.762401 215.001131 
L 218.804254 189.047766 
L 224.929811 161.471214 
L 226.971664 149.670515 
L 229.013516 146.673147 
L 231.055369 171.372652 
L 233.097221 165.210268 
L 239.222779 165.378611 
L 241.264631 151.867722 
L 243.306484 128.642731 
L 245.348336 147.601311 
L 247.390189 167.551669 
L 253.515746 175.579612 
L 255.557599 151.920378 
L 257.599451 149.689931 
L 259.641304 177.643557 
L 261.683156 186.520468 
L 269.850566 201.104944 
L 271.892419 221.988238 
L 273.934271 202.03848 
L 275.976123 173.37564 
L 282.101681 174.109957 
L 284.143533 193.157619 
L 286.185386 169.915273 
L 288.227238 179.736624 
L 290.269091 193.149794 
L 296.394648 229.756126 
L 298.436501 232.760728 
L 300.478353 203.215904 
L 302.520206 205.849022 
L 304.562058 222.544302 
L 310.687616 234.441161 
L 312.729468 214.893549 
L 314.771321 185.211225 
L 316.813173 166.792925 
L 318.855026 153.887892 
L 324.980583 156.68921 
L 327.022436 144.358655 
L 329.064288 164.430955 
L 331.106141 149.988648 
L 333.147993 144.469843 
L 339.273551 140.802174 
L 341.315403 117.532646 
L 343.357256 129.815192 
L 345.399108 146.400741 
L 347.440961 140.135503 
L 353.566518 134.492588 
L 355.60837 152.482226 
L 357.650223 164.49742 
L 359.692075 163.613867 
L 361.733928 166.012865 
L 367.859485 178.439121 
L 369.901338 180.844387 
L 371.94319 163.705018 
L 373.985043 175.412467 
L 382.152453 180.024702 
L 384.194305 157.456341 
L 386.236158 154.355043 
L 388.27801 177.051158 
L 390.319863 207.514156 
L 396.44542 202.01061 
L 398.487273 233.069653 
" style="fill:none;stroke:#ff0000;stroke-linecap:square;stroke-opacity:0.9;stroke-width:2;"/>
   </g>
   <g id="line2d_17">
    <path clip-path="url(#p6b81da0e37)" d="M 73.832727 52.154182 
L 75.87458 58.871212 
L 82.000137 65.535585 
L 84.04199 65.83013 
L 86.083842 61.035464 
L 90.167547 92.338221 
L 96.293105 83.777804 
L 98.334957 112.657863 
L 100.37681 136.286155 
L 102.418662 108.752072 
L 104.460515 124.006808 
L 110.586072 107.809152 
L 112.627925 81.10704 
L 114.669777 73.247559 
L 116.71163 90.619519 
L 118.753482 87.101245 
L 124.879039 98.331404 
L 126.920892 107.976014 
L 128.962744 91.791457 
L 131.004597 104.21283 
L 133.046449 107.373162 
L 139.172007 124.712724 
L 141.213859 96.686892 
L 143.255712 86.461993 
L 145.297564 77.155281 
L 153.464974 66.604375 
L 155.506827 70.344818 
L 157.548679 67.316939 
L 159.590532 67.674373 
L 161.632384 69.165062 
L 167.757942 67.41482 
L 169.799794 67.103814 
L 171.841647 100.181333 
L 173.883499 96.366802 
L 175.925352 104.874594 
L 182.050909 107.896816 
L 184.092762 94.66525 
L 186.134614 94.990698 
L 188.176467 110.180392 
L 190.218319 112.950656 
L 198.385729 139.996835 
L 200.427581 153.264084 
L 202.469434 169.44175 
L 204.511286 191.13314 
L 210.636844 178.320596 
L 212.678696 196.46739 
L 214.720549 205.704935 
L 216.762401 217.975612 
L 218.804254 191.896975 
L 224.929811 163.47068 
L 226.971664 152.102583 
L 229.013516 148.494107 
L 231.055369 174.072865 
L 233.097221 166.846317 
L 239.222779 166.905973 
L 241.264631 153.48835 
L 243.306484 130.32191 
L 245.348336 149.266719 
L 247.390189 169.675365 
L 253.515746 177.02356 
L 255.557599 152.114199 
L 257.599451 151.476857 
L 259.641304 179.905883 
L 261.683156 189.450226 
L 269.850566 202.976762 
L 271.892419 225.43536 
L 273.934271 202.538096 
L 275.976123 174.647178 
L 282.101681 174.70447 
L 284.143533 194.812623 
L 286.185386 170.500865 
L 288.227238 182.035904 
L 290.269091 194.603936 
L 296.394648 232.761249 
L 298.436501 234.944033 
L 300.478353 204.226379 
L 302.520206 207.854576 
L 304.562058 226.109596 
L 310.687616 238.94322 
L 312.729468 218.131683 
L 314.771321 186.981389 
L 316.813173 168.665988 
L 318.855026 154.487387 
L 324.980583 158.079082 
L 327.022436 145.103827 
L 329.064288 164.941615 
L 331.106141 150.505454 
L 333.147993 145.553756 
L 339.273551 141.293784 
L 341.315403 117.196532 
L 343.357256 131.298394 
L 345.399108 148.051338 
L 347.440961 140.514684 
L 353.566518 134.008624 
L 355.60837 153.221112 
L 357.650223 166.101883 
L 359.692075 164.063196 
L 361.733928 168.009668 
L 367.859485 179.816191 
L 369.901338 182.78461 
L 371.94319 165.973612 
L 373.985043 178.732212 
L 382.152453 183.189861 
L 384.194305 159.360318 
L 386.236158 157.833877 
L 388.27801 180.924523 
L 390.319863 212.140095 
L 396.44542 204.903993 
L 398.487273 237.999229 
" style="fill:none;stroke:#008000;stroke-linecap:square;stroke-opacity:0.9;stroke-width:2;"/>
   </g>
   <g id="line2d_18">
    <path clip-path="url(#p6b81da0e37)" d="M 73.832727 52.154182 
L 75.87458 58.847262 
L 82.000137 64.465922 
L 84.04199 65.731519 
L 86.083842 61.211739 
L 90.167547 92.617066 
L 96.293105 83.99042 
L 98.334957 113.426477 
L 100.37681 136.268431 
L 102.418662 109.031723 
L 104.460515 124.860172 
L 110.586072 108.785128 
L 112.627925 80.391157 
L 114.669777 73.47851 
L 116.71163 90.726202 
L 118.753482 86.794749 
L 124.879039 98.245079 
L 126.920892 108.176982 
L 128.962744 90.96531 
L 131.004597 105.115516 
L 133.046449 108.32124 
L 139.172007 124.208878 
L 141.213859 95.805586 
L 143.255712 86.509157 
L 145.297564 77.312852 
L 153.464974 67.087681 
L 155.506827 69.558613 
L 157.548679 66.765057 
L 159.590532 68.498017 
L 161.632384 69.28987 
L 167.757942 67.700985 
L 169.799794 67.697862 
L 171.841647 100.369028 
L 173.883499 96.515034 
L 175.925352 104.643716 
L 182.050909 108.115736 
L 184.092762 94.960343 
L 186.134614 95.682813 
L 188.176467 111.302326 
L 190.218319 113.148027 
L 198.385729 140.169611 
L 200.427581 153.74181 
L 202.469434 169.44587 
L 204.511286 192.137294 
L 210.636844 178.300391 
L 212.678696 196.536582 
L 214.720549 206.011942 
L 216.762401 217.978579 
L 218.804254 192.281129 
L 224.929811 163.926813 
L 226.971664 151.927786 
L 229.013516 149.651836 
L 231.055369 173.770072 
L 233.097221 167.480019 
L 239.222779 167.037037 
L 241.264631 153.834084 
L 243.306484 130.08094 
L 245.348336 149.495085 
L 247.390189 170.345 
L 253.515746 177.180695 
L 255.557599 153.135224 
L 257.599451 150.902267 
L 259.641304 180.228681 
L 261.683156 189.229371 
L 269.850566 203.396884 
L 271.892419 226.241755 
L 273.934271 203.351034 
L 275.976123 175.412015 
L 282.101681 175.418758 
L 284.143533 195.357796 
L 286.185386 171.114049 
L 288.227238 182.601538 
L 290.269091 195.920008 
L 296.394648 232.954269 
L 298.436501 235.911973 
L 300.478353 204.699382 
L 302.520206 208.58924 
L 304.562058 226.1134 
L 310.687616 238.832779 
L 312.729468 218.873133 
L 314.771321 187.232084 
L 316.813173 169.247393 
L 318.855026 154.642878 
L 324.980583 158.42477 
L 327.022436 146.371948 
L 329.064288 166.535506 
L 331.106141 150.699568 
L 333.147993 146.521652 
L 339.273551 141.505042 
L 341.315403 117.881141 
L 343.357256 131.138264 
L 345.399108 147.86897 
L 347.440961 140.407188 
L 353.566518 134.438602 
L 355.60837 153.438884 
L 357.650223 167.18576 
L 359.692075 164.721508 
L 361.733928 168.684906 
L 367.859485 180.664916 
L 369.901338 183.71626 
L 371.94319 166.228022 
L 373.985043 178.821251 
L 382.152453 184.083664 
L 384.194305 159.600686 
L 386.236158 158.086822 
L 388.27801 181.201233 
L 390.319863 212.065447 
L 396.44542 205.021506 
L 398.487273 237.511154 
" style="fill:none;stroke:#ec5283;stroke-linecap:square;stroke-width:2;"/>
   </g>
   <g id="line2d_19">
    <path clip-path="url(#p6b81da0e37)" d="M 73.832727 52.154182 
L 75.87458 59.232169 
L 82.000137 65.033958 
L 84.04199 65.544311 
L 86.083842 60.821777 
L 90.167547 92.317966 
L 96.293105 83.050408 
L 98.334957 113.142786 
L 100.37681 135.477078 
L 102.418662 109.516261 
L 104.460515 124.091429 
L 110.586072 108.01688 
L 112.627925 80.552938 
L 114.669777 72.776811 
L 116.71163 90.969964 
L 118.753482 86.342314 
L 124.879039 98.210326 
L 126.920892 108.291382 
L 128.962744 90.765525 
L 131.004597 104.111301 
L 133.046449 107.773852 
L 139.172007 124.056151 
L 141.213859 95.552565 
L 143.255712 86.249041 
L 145.297564 76.852774 
L 153.464974 66.442651 
L 155.506827 70.312764 
L 157.548679 66.659718 
L 159.590532 67.842738 
L 161.632384 69.751845 
L 167.757942 67.577246 
L 169.799794 67.401297 
L 171.841647 99.777483 
L 173.883499 96.387496 
L 175.925352 104.526251 
L 182.050909 107.795209 
L 184.092762 94.707103 
L 186.134614 95.249021 
L 188.176467 110.189033 
L 190.218319 113.031627 
L 198.385729 140.34296 
L 200.427581 152.982835 
L 202.469434 168.539747 
L 204.511286 191.06287 
L 210.636844 177.026407 
L 212.678696 194.936744 
L 214.720549 204.856501 
L 216.762401 216.564202 
L 218.804254 190.825154 
L 224.929811 162.687391 
L 226.971664 151.219211 
L 229.013516 148.983813 
L 231.055369 172.794641 
L 233.097221 166.226505 
L 239.222779 166.246366 
L 241.264631 152.466379 
L 243.306484 128.943751 
L 245.348336 149.271163 
L 247.390189 168.577371 
L 253.515746 176.574714 
L 255.557599 151.947196 
L 257.599451 150.534722 
L 259.641304 179.567107 
L 261.683156 187.940628 
L 269.850566 202.796574 
L 271.892419 224.44901 
L 273.934271 201.332052 
L 275.976123 174.123044 
L 282.101681 174.083781 
L 284.143533 193.379267 
L 286.185386 170.883898 
L 288.227238 180.862942 
L 290.269091 194.281146 
L 296.394648 232.043611 
L 298.436501 234.236816 
L 300.478353 204.319833 
L 302.520206 207.619432 
L 304.562058 224.90897 
L 310.687616 238.140342 
L 312.729468 217.331258 
L 314.771321 186.520851 
L 316.813173 168.584634 
L 318.855026 153.918527 
L 324.980583 157.634004 
L 327.022436 145.178681 
L 329.064288 165.251655 
L 331.106141 149.714393 
L 333.147993 145.467903 
L 339.273551 140.838101 
L 341.315403 117.238755 
L 343.357256 130.774026 
L 345.399108 146.751021 
L 347.440961 140.26071 
L 353.566518 133.913748 
L 355.60837 152.990416 
L 357.650223 165.487404 
L 359.692075 163.83444 
L 361.733928 167.630668 
L 367.859485 179.614963 
L 369.901338 182.025099 
L 371.94319 164.880616 
L 373.985043 177.145953 
L 382.152453 182.227239 
L 384.194305 158.512189 
L 386.236158 156.700541 
L 388.27801 180.304811 
L 390.319863 210.624748 
L 396.44542 203.946789 
L 398.487273 237.197674 
" style="fill:none;stroke:#00ff00;stroke-linecap:square;stroke-opacity:0.9;stroke-width:2;"/>
   </g>
   <g id="line2d_20">
    <path clip-path="url(#p6b81da0e37)" d="M 73.832727 52.154182 
L 75.87458 60.15444 
L 82.000137 66.119178 
L 84.04199 69.391555 
L 86.083842 62.58129 
L 90.167547 94.52669 
L 96.293105 88.410916 
L 98.334957 117.639922 
L 100.37681 141.068808 
L 102.418662 112.651301 
L 104.460515 128.157133 
L 110.586072 110.16106 
L 112.627925 82.089787 
L 114.669777 73.202945 
L 116.71163 94.257655 
L 118.753482 93.876593 
L 124.879039 103.951835 
L 126.920892 113.138485 
L 128.962744 96.52934 
L 131.004597 112.094462 
L 133.046449 110.240834 
L 139.172007 127.801605 
L 141.213859 96.690478 
L 143.255712 86.63434 
L 145.297564 76.886244 
L 153.464974 63.652322 
L 155.506827 67.186417 
L 157.548679 63.466364 
L 159.590532 63.446318 
L 161.632384 64.356144 
L 167.757942 62.287895 
L 169.799794 64.866906 
L 171.841647 105.089275 
L 173.883499 103.91919 
L 175.925352 116.262287 
L 182.050909 119.6016 
L 184.092762 103.413657 
L 186.134614 105.009318 
L 188.176467 128.362533 
L 190.218319 132.011744 
L 198.385729 162.288127 
L 200.427581 174.586858 
L 202.469434 189.180448 
L 204.511286 212.700351 
L 210.636844 195.146036 
L 212.678696 220.018976 
L 214.720549 230.154553 
L 216.762401 244.845418 
L 218.804254 213.941948 
L 224.929811 179.577839 
L 226.971664 166.502659 
L 229.013516 167.164666 
L 231.055369 193.24494 
L 233.097221 184.78283 
L 239.222779 184.008522 
L 241.264631 169.990042 
L 243.306484 144.985926 
L 245.348336 165.248338 
L 247.390189 186.693377 
L 253.515746 192.143603 
L 255.557599 167.325043 
L 257.599451 167.09049 
L 259.641304 198.926942 
L 261.683156 209.615036 
L 269.850566 224.592293 
L 271.892419 248.248513 
L 273.934271 219.107207 
L 275.976123 194.686803 
L 282.101681 194.071595 
L 284.143533 211.665046 
L 286.185386 190.56779 
L 288.227238 203.609617 
L 290.269091 216.756068 
L 296.394648 254.423273 
L 298.436501 258.719942 
L 300.478353 225.331768 
L 302.520206 230.699321 
L 304.562058 250.342807 
L 310.687616 265.797818 
L 312.729468 241.6422 
L 314.771321 207.578273 
L 316.813173 188.191649 
L 318.855026 171.435197 
L 324.980583 176.281863 
L 327.022436 162.223374 
L 329.064288 179.100737 
L 331.106141 162.534438 
L 333.147993 161.099195 
L 339.273551 154.316004 
L 341.315403 127.621014 
L 343.357256 142.626431 
L 345.399108 158.433733 
L 347.440961 150.482413 
L 353.566518 143.188673 
L 355.60837 163.451708 
L 357.650223 175.685178 
L 359.692075 174.437047 
L 361.733928 178.49814 
L 367.859485 190.420699 
L 369.901338 193.125828 
L 371.94319 173.920171 
L 373.985043 188.710292 
L 382.152453 195.532572 
L 384.194305 169.782508 
L 386.236158 172.586529 
L 388.27801 198.907666 
L 390.319863 230.106407 
L 396.44542 217.863691 
L 398.487273 255.772369 
" style="fill:none;stroke:#a5b9cf;stroke-linecap:square;stroke-width:2;"/>
   </g>
   <g id="patch_3">
    <path d="M 57.6 276.48 
L 57.6 41.472 
" style="fill:none;stroke:#000000;stroke-linecap:square;stroke-linejoin:miter;stroke-width:0.8;"/>
   </g>
   <g id="patch_4">
    <path d="M 414.72 276.48 
L 414.72 41.472 
" style="fill:none;stroke:#000000;stroke-linecap:square;stroke-linejoin:miter;stroke-width:0.8;"/>
   </g>
   <g id="patch_5">
    <path d="M 57.6 276.48 
L 414.72 276.48 
" style="fill:none;stroke:#000000;stroke-linecap:square;stroke-linejoin:miter;stroke-width:0.8;"/>
   </g>
   <g id="patch_6">
    <path d="M 57.6 41.472 
L 414.72 41.472 
" style="fill:none;stroke:#000000;stroke-linecap:square;stroke-linejoin:miter;stroke-width:0.8;"/>
   </g>
   <g id="text_16">
    <!-- SCHMOO -->
    <g transform="translate(209.025937 22.034625)scale(0.12 -0.12)">
     <defs>
      <path d="M 3425 4513 
L 3425 3897 
Q 3066 4069 2747 4153 
Q 2428 4238 2131 4238 
Q 1616 4238 1336 4038 
Q 1056 3838 1056 3469 
Q 1056 3159 1242 3001 
Q 1428 2844 1947 2747 
L 2328 2669 
Q 3034 2534 3370 2195 
Q 3706 1856 3706 1288 
Q 3706 609 3251 259 
Q 2797 -91 1919 -91 
Q 1588 -91 1214 -16 
Q 841 59 441 206 
L 441 856 
Q 825 641 1194 531 
Q 1563 422 1919 422 
Q 2459 422 2753 634 
Q 3047 847 3047 1241 
Q 3047 1584 2836 1778 
Q 2625 1972 2144 2069 
L 1759 2144 
Q 1053 2284 737 2584 
Q 422 2884 422 3419 
Q 422 4038 858 4394 
Q 1294 4750 2059 4750 
Q 2388 4750 2728 4690 
Q 3069 4631 3425 4513 
z
" id="DejaVuSans-53" transform="scale(0.015625)"/>
      <path d="M 4122 4306 
L 4122 3641 
Q 3803 3938 3442 4084 
Q 3081 4231 2675 4231 
Q 1875 4231 1450 3742 
Q 1025 3253 1025 2328 
Q 1025 1406 1450 917 
Q 1875 428 2675 428 
Q 3081 428 3442 575 
Q 3803 722 4122 1019 
L 4122 359 
Q 3791 134 3420 21 
Q 3050 -91 2638 -91 
Q 1578 -91 968 557 
Q 359 1206 359 2328 
Q 359 3453 968 4101 
Q 1578 4750 2638 4750 
Q 3056 4750 3426 4639 
Q 3797 4528 4122 4306 
z
" id="DejaVuSans-43" transform="scale(0.015625)"/>
      <path d="M 628 4666 
L 1259 4666 
L 1259 2753 
L 3553 2753 
L 3553 4666 
L 4184 4666 
L 4184 0 
L 3553 0 
L 3553 2222 
L 1259 2222 
L 1259 0 
L 628 0 
L 628 4666 
z
" id="DejaVuSans-48" transform="scale(0.015625)"/>
      <path d="M 628 4666 
L 1569 4666 
L 2759 1491 
L 3956 4666 
L 4897 4666 
L 4897 0 
L 4281 0 
L 4281 4097 
L 3078 897 
L 2444 897 
L 1241 4097 
L 1241 0 
L 628 0 
L 628 4666 
z
" id="DejaVuSans-4d" transform="scale(0.015625)"/>
      <path d="M 2522 4238 
Q 1834 4238 1429 3725 
Q 1025 3213 1025 2328 
Q 1025 1447 1429 934 
Q 1834 422 2522 422 
Q 3209 422 3611 934 
Q 4013 1447 4013 2328 
Q 4013 3213 3611 3725 
Q 3209 4238 2522 4238 
z
M 2522 4750 
Q 3503 4750 4090 4092 
Q 4678 3434 4678 2328 
Q 4678 1225 4090 567 
Q 3503 -91 2522 -91 
Q 1538 -91 948 565 
Q 359 1222 359 2328 
Q 359 3434 948 4092 
Q 1538 4750 2522 4750 
z
" id="DejaVuSans-4f" transform="scale(0.015625)"/>
     </defs>
     <use xlink:href="#DejaVuSans-53"/>
     <use x="63.476562" xlink:href="#DejaVuSans-43"/>
     <use x="133.300781" xlink:href="#DejaVuSans-48"/>
     <use x="208.496094" xlink:href="#DejaVuSans-4d"/>
     <use x="294.775391" xlink:href="#DejaVuSans-4f"/>
     <use x="373.486328" xlink:href="#DejaVuSans-4f"/>
    </g>
    <!-- daily_report -->
    <g transform="translate(200.466563 35.472)scale(0.12 -0.12)">
     <defs>
      <path d="M 603 3500 
L 1178 3500 
L 1178 0 
L 603 0 
L 603 3500 
z
M 603 4863 
L 1178 4863 
L 1178 4134 
L 603 4134 
L 603 4863 
z
" id="DejaVuSans-69" transform="scale(0.015625)"/>
      <path d="M 603 4863 
L 1178 4863 
L 1178 0 
L 603 0 
L 603 4863 
z
" id="DejaVuSans-6c" transform="scale(0.015625)"/>
      <path d="M 2059 -325 
Q 1816 -950 1584 -1140 
Q 1353 -1331 966 -1331 
L 506 -1331 
L 506 -850 
L 844 -850 
Q 1081 -850 1212 -737 
Q 1344 -625 1503 -206 
L 1606 56 
L 191 3500 
L 800 3500 
L 1894 763 
L 2988 3500 
L 3597 3500 
L 2059 -325 
z
" id="DejaVuSans-79" transform="scale(0.015625)"/>
      <path d="M 3263 -1063 
L 3263 -1509 
L -63 -1509 
L -63 -1063 
L 3263 -1063 
z
" id="DejaVuSans-5f" transform="scale(0.015625)"/>
      <path d="M 2631 2963 
Q 2534 3019 2420 3045 
Q 2306 3072 2169 3072 
Q 1681 3072 1420 2755 
Q 1159 2438 1159 1844 
L 1159 0 
L 581 0 
L 581 3500 
L 1159 3500 
L 1159 2956 
Q 1341 3275 1631 3429 
Q 1922 3584 2338 3584 
Q 2397 3584 2469 3576 
Q 2541 3569 2628 3553 
L 2631 2963 
z
" id="DejaVuSans-72" transform="scale(0.015625)"/>
      <path d="M 1159 525 
L 1159 -1331 
L 581 -1331 
L 581 3500 
L 1159 3500 
L 1159 2969 
Q 1341 3281 1617 3432 
Q 1894 3584 2278 3584 
Q 2916 3584 3314 3078 
Q 3713 2572 3713 1747 
Q 3713 922 3314 415 
Q 2916 -91 2278 -91 
Q 1894 -91 1617 61 
Q 1341 213 1159 525 
z
M 3116 1747 
Q 3116 2381 2855 2742 
Q 2594 3103 2138 3103 
Q 1681 3103 1420 2742 
Q 1159 2381 1159 1747 
Q 1159 1113 1420 752 
Q 1681 391 2138 391 
Q 2594 391 2855 752 
Q 3116 1113 3116 1747 
z
" id="DejaVuSans-70" transform="scale(0.015625)"/>
      <path d="M 1959 3097 
Q 1497 3097 1228 2736 
Q 959 2375 959 1747 
Q 959 1119 1226 758 
Q 1494 397 1959 397 
Q 2419 397 2687 759 
Q 2956 1122 2956 1747 
Q 2956 2369 2687 2733 
Q 2419 3097 1959 3097 
z
M 1959 3584 
Q 2709 3584 3137 3096 
Q 3566 2609 3566 1747 
Q 3566 888 3137 398 
Q 2709 -91 1959 -91 
Q 1206 -91 779 398 
Q 353 888 353 1747 
Q 353 2609 779 3096 
Q 1206 3584 1959 3584 
z
" id="DejaVuSans-6f" transform="scale(0.015625)"/>
     </defs>
     <use xlink:href="#DejaVuSans-64"/>
     <use x="63.476562" xlink:href="#DejaVuSans-61"/>
     <use x="124.755859" xlink:href="#DejaVuSans-69"/>
     <use x="152.539062" xlink:href="#DejaVuSans-6c"/>
     <use x="180.322266" xlink:href="#DejaVuSans-79"/>
     <use x="239.501953" xlink:href="#DejaVuSans-5f"/>
     <use x="289.501953" xlink:href="#DejaVuSans-72"/>
     <use x="328.365234" xlink:href="#DejaVuSans-65"/>
     <use x="389.888672" xlink:href="#DejaVuSans-70"/>
     <use x="453.365234" xlink:href="#DejaVuSans-6f"/>
     <use x="514.546875" xlink:href="#DejaVuSans-72"/>
     <use x="555.660156" xlink:href="#DejaVuSans-74"/>
    </g>
   </g>
   <g id="legend_1">
    <g id="patch_7">
     <path d="M 64.6 271.48 
L 178.64375 271.48 
Q 180.64375 271.48 180.64375 269.48 
L 180.64375 182.41125 
Q 180.64375 180.41125 178.64375 180.41125 
L 64.6 180.41125 
Q 62.6 180.41125 62.6 182.41125 
L 62.6 269.48 
Q 62.6 271.48 64.6 271.48 
z
" style="fill:#ffffff;opacity:0.8;stroke:#cccccc;stroke-linejoin:miter;"/>
    </g>
    <g id="line2d_21">
     <path d="M 66.6 188.509687 
L 86.6 188.509687 
" style="fill:none;stroke:#0000ff;stroke-linecap:square;stroke-opacity:0.9;stroke-width:2;"/>
    </g>
    <g id="line2d_22"/>
    <g id="text_17">
     <!-- alpaca -->
     <g transform="translate(94.6 192.009687)scale(0.1 -0.1)">
      <defs>
       <path d="M 3122 3366 
L 3122 2828 
Q 2878 2963 2633 3030 
Q 2388 3097 2138 3097 
Q 1578 3097 1268 2742 
Q 959 2388 959 1747 
Q 959 1106 1268 751 
Q 1578 397 2138 397 
Q 2388 397 2633 464 
Q 2878 531 3122 666 
L 3122 134 
Q 2881 22 2623 -34 
Q 2366 -91 2075 -91 
Q 1284 -91 818 406 
Q 353 903 353 1747 
Q 353 2603 823 3093 
Q 1294 3584 2113 3584 
Q 2378 3584 2631 3529 
Q 2884 3475 3122 3366 
z
" id="DejaVuSans-63" transform="scale(0.015625)"/>
      </defs>
      <use xlink:href="#DejaVuSans-61"/>
      <use x="61.279297" xlink:href="#DejaVuSans-6c"/>
      <use x="89.0625" xlink:href="#DejaVuSans-70"/>
      <use x="152.539062" xlink:href="#DejaVuSans-61"/>
      <use x="213.818359" xlink:href="#DejaVuSans-63"/>
      <use x="268.798828" xlink:href="#DejaVuSans-61"/>
     </g>
    </g>
    <g id="line2d_23">
     <path d="M 66.6 203.187812 
L 86.6 203.187812 
" style="fill:none;stroke:#ff0000;stroke-linecap:square;stroke-opacity:0.9;stroke-width:2;"/>
    </g>
    <g id="line2d_24"/>
    <g id="text_18">
     <!-- mattress -->
     <g transform="translate(94.6 206.687812)scale(0.1 -0.1)">
      <defs>
       <path d="M 3328 2828 
Q 3544 3216 3844 3400 
Q 4144 3584 4550 3584 
Q 5097 3584 5394 3201 
Q 5691 2819 5691 2113 
L 5691 0 
L 5113 0 
L 5113 2094 
Q 5113 2597 4934 2840 
Q 4756 3084 4391 3084 
Q 3944 3084 3684 2787 
Q 3425 2491 3425 1978 
L 3425 0 
L 2847 0 
L 2847 2094 
Q 2847 2600 2669 2842 
Q 2491 3084 2119 3084 
Q 1678 3084 1418 2786 
Q 1159 2488 1159 1978 
L 1159 0 
L 581 0 
L 581 3500 
L 1159 3500 
L 1159 2956 
Q 1356 3278 1631 3431 
Q 1906 3584 2284 3584 
Q 2666 3584 2933 3390 
Q 3200 3197 3328 2828 
z
" id="DejaVuSans-6d" transform="scale(0.015625)"/>
       <path d="M 2834 3397 
L 2834 2853 
Q 2591 2978 2328 3040 
Q 2066 3103 1784 3103 
Q 1356 3103 1142 2972 
Q 928 2841 928 2578 
Q 928 2378 1081 2264 
Q 1234 2150 1697 2047 
L 1894 2003 
Q 2506 1872 2764 1633 
Q 3022 1394 3022 966 
Q 3022 478 2636 193 
Q 2250 -91 1575 -91 
Q 1294 -91 989 -36 
Q 684 19 347 128 
L 347 722 
Q 666 556 975 473 
Q 1284 391 1588 391 
Q 1994 391 2212 530 
Q 2431 669 2431 922 
Q 2431 1156 2273 1281 
Q 2116 1406 1581 1522 
L 1381 1569 
Q 847 1681 609 1914 
Q 372 2147 372 2553 
Q 372 3047 722 3315 
Q 1072 3584 1716 3584 
Q 2034 3584 2315 3537 
Q 2597 3491 2834 3397 
z
" id="DejaVuSans-73" transform="scale(0.015625)"/>
      </defs>
      <use xlink:href="#DejaVuSans-6d"/>
      <use x="97.412109" xlink:href="#DejaVuSans-61"/>
      <use x="158.691406" xlink:href="#DejaVuSans-74"/>
      <use x="197.900391" xlink:href="#DejaVuSans-74"/>
      <use x="237.109375" xlink:href="#DejaVuSans-72"/>
      <use x="275.972656" xlink:href="#DejaVuSans-65"/>
      <use x="337.496094" xlink:href="#DejaVuSans-73"/>
      <use x="389.595703" xlink:href="#DejaVuSans-73"/>
     </g>
    </g>
    <g id="line2d_25">
     <path d="M 66.6 217.865937 
L 86.6 217.865937 
" style="fill:none;stroke:#008000;stroke-linecap:square;stroke-opacity:0.9;stroke-width:2;"/>
    </g>
    <g id="line2d_26"/>
    <g id="text_19">
     <!-- daily-open-rebal -->
     <g transform="translate(94.6 221.365937)scale(0.1 -0.1)">
      <defs>
       <path d="M 3513 2113 
L 3513 0 
L 2938 0 
L 2938 2094 
Q 2938 2591 2744 2837 
Q 2550 3084 2163 3084 
Q 1697 3084 1428 2787 
Q 1159 2491 1159 1978 
L 1159 0 
L 581 0 
L 581 3500 
L 1159 3500 
L 1159 2956 
Q 1366 3272 1645 3428 
Q 1925 3584 2291 3584 
Q 2894 3584 3203 3211 
Q 3513 2838 3513 2113 
z
" id="DejaVuSans-6e" transform="scale(0.015625)"/>
       <path d="M 3116 1747 
Q 3116 2381 2855 2742 
Q 2594 3103 2138 3103 
Q 1681 3103 1420 2742 
Q 1159 2381 1159 1747 
Q 1159 1113 1420 752 
Q 1681 391 2138 391 
Q 2594 391 2855 752 
Q 3116 1113 3116 1747 
z
M 1159 2969 
Q 1341 3281 1617 3432 
Q 1894 3584 2278 3584 
Q 2916 3584 3314 3078 
Q 3713 2572 3713 1747 
Q 3713 922 3314 415 
Q 2916 -91 2278 -91 
Q 1894 -91 1617 61 
Q 1341 213 1159 525 
L 1159 0 
L 581 0 
L 581 4863 
L 1159 4863 
L 1159 2969 
z
" id="DejaVuSans-62" transform="scale(0.015625)"/>
      </defs>
      <use xlink:href="#DejaVuSans-64"/>
      <use x="63.476562" xlink:href="#DejaVuSans-61"/>
      <use x="124.755859" xlink:href="#DejaVuSans-69"/>
      <use x="152.539062" xlink:href="#DejaVuSans-6c"/>
      <use x="180.322266" xlink:href="#DejaVuSans-79"/>
      <use x="237.751953" xlink:href="#DejaVuSans-2d"/>
      <use x="275.710938" xlink:href="#DejaVuSans-6f"/>
      <use x="336.892578" xlink:href="#DejaVuSans-70"/>
      <use x="400.369141" xlink:href="#DejaVuSans-65"/>
      <use x="461.892578" xlink:href="#DejaVuSans-6e"/>
      <use x="525.271484" xlink:href="#DejaVuSans-2d"/>
      <use x="561.355469" xlink:href="#DejaVuSans-72"/>
      <use x="600.21875" xlink:href="#DejaVuSans-65"/>
      <use x="661.742188" xlink:href="#DejaVuSans-62"/>
      <use x="725.21875" xlink:href="#DejaVuSans-61"/>
      <use x="786.498047" xlink:href="#DejaVuSans-6c"/>
     </g>
    </g>
    <g id="line2d_27">
     <path d="M 66.6 232.544062 
L 86.6 232.544062 
" style="fill:none;stroke:#ec5283;stroke-linecap:square;stroke-width:2;"/>
    </g>
    <g id="line2d_28"/>
    <g id="text_20">
     <!-- daily-close-rebal -->
     <g transform="translate(94.6 236.044062)scale(0.1 -0.1)">
      <use xlink:href="#DejaVuSans-64"/>
      <use x="63.476562" xlink:href="#DejaVuSans-61"/>
      <use x="124.755859" xlink:href="#DejaVuSans-69"/>
      <use x="152.539062" xlink:href="#DejaVuSans-6c"/>
      <use x="180.322266" xlink:href="#DejaVuSans-79"/>
      <use x="237.751953" xlink:href="#DejaVuSans-2d"/>
      <use x="273.835938" xlink:href="#DejaVuSans-63"/>
      <use x="328.816406" xlink:href="#DejaVuSans-6c"/>
      <use x="356.599609" xlink:href="#DejaVuSans-6f"/>
      <use x="417.78125" xlink:href="#DejaVuSans-73"/>
      <use x="469.880859" xlink:href="#DejaVuSans-65"/>
      <use x="531.404297" xlink:href="#DejaVuSans-2d"/>
      <use x="567.488281" xlink:href="#DejaVuSans-72"/>
      <use x="606.351562" xlink:href="#DejaVuSans-65"/>
      <use x="667.875" xlink:href="#DejaVuSans-62"/>
      <use x="731.351562" xlink:href="#DejaVuSans-61"/>
      <use x="792.630859" xlink:href="#DejaVuSans-6c"/>
     </g>
    </g>
    <g id="line2d_29">
     <path d="M 66.6 247.222187 
L 86.6 247.222187 
" style="fill:none;stroke:#00ff00;stroke-linecap:square;stroke-opacity:0.9;stroke-width:2;"/>
    </g>
    <g id="line2d_30"/>
    <g id="text_21">
     <!-- trader-baseline -->
     <g transform="translate(94.6 250.722187)scale(0.1 -0.1)">
      <use xlink:href="#DejaVuSans-74"/>
      <use x="39.208984" xlink:href="#DejaVuSans-72"/>
      <use x="80.322266" xlink:href="#DejaVuSans-61"/>
      <use x="141.601562" xlink:href="#DejaVuSans-64"/>
      <use x="205.078125" xlink:href="#DejaVuSans-65"/>
      <use x="266.601562" xlink:href="#DejaVuSans-72"/>
      <use x="301.339844" xlink:href="#DejaVuSans-2d"/>
      <use x="337.423828" xlink:href="#DejaVuSans-62"/>
      <use x="400.900391" xlink:href="#DejaVuSans-61"/>
      <use x="462.179688" xlink:href="#DejaVuSans-73"/>
      <use x="514.279297" xlink:href="#DejaVuSans-65"/>
      <use x="575.802734" xlink:href="#DejaVuSans-6c"/>
      <use x="603.585938" xlink:href="#DejaVuSans-69"/>
      <use x="631.369141" xlink:href="#DejaVuSans-6e"/>
      <use x="694.748047" xlink:href="#DejaVuSans-65"/>
     </g>
    </g>
    <g id="line2d_31">
     <path d="M 66.6 261.900312 
L 86.6 261.900312 
" style="fill:none;stroke:#a5b9cf;stroke-linecap:square;stroke-width:2;"/>
    </g>
    <g id="line2d_32"/>
    <g id="text_22">
     <!-- default-cfg -->
     <g transform="translate(94.6 265.400312)scale(0.1 -0.1)">
      <defs>
       <path d="M 2375 4863 
L 2375 4384 
L 1825 4384 
Q 1516 4384 1395 4259 
Q 1275 4134 1275 3809 
L 1275 3500 
L 2222 3500 
L 2222 3053 
L 1275 3053 
L 1275 0 
L 697 0 
L 697 3053 
L 147 3053 
L 147 3500 
L 697 3500 
L 697 3744 
Q 697 4328 969 4595 
Q 1241 4863 1831 4863 
L 2375 4863 
z
" id="DejaVuSans-66" transform="scale(0.015625)"/>
       <path d="M 544 1381 
L 544 3500 
L 1119 3500 
L 1119 1403 
Q 1119 906 1312 657 
Q 1506 409 1894 409 
Q 2359 409 2629 706 
Q 2900 1003 2900 1516 
L 2900 3500 
L 3475 3500 
L 3475 0 
L 2900 0 
L 2900 538 
Q 2691 219 2414 64 
Q 2138 -91 1772 -91 
Q 1169 -91 856 284 
Q 544 659 544 1381 
z
M 1991 3584 
L 1991 3584 
z
" id="DejaVuSans-75" transform="scale(0.015625)"/>
       <path d="M 2906 1791 
Q 2906 2416 2648 2759 
Q 2391 3103 1925 3103 
Q 1463 3103 1205 2759 
Q 947 2416 947 1791 
Q 947 1169 1205 825 
Q 1463 481 1925 481 
Q 2391 481 2648 825 
Q 2906 1169 2906 1791 
z
M 3481 434 
Q 3481 -459 3084 -895 
Q 2688 -1331 1869 -1331 
Q 1566 -1331 1297 -1286 
Q 1028 -1241 775 -1147 
L 775 -588 
Q 1028 -725 1275 -790 
Q 1522 -856 1778 -856 
Q 2344 -856 2625 -561 
Q 2906 -266 2906 331 
L 2906 616 
Q 2728 306 2450 153 
Q 2172 0 1784 0 
Q 1141 0 747 490 
Q 353 981 353 1791 
Q 353 2603 747 3093 
Q 1141 3584 1784 3584 
Q 2172 3584 2450 3431 
Q 2728 3278 2906 2969 
L 2906 3500 
L 3481 3500 
L 3481 434 
z
" id="DejaVuSans-67" transform="scale(0.015625)"/>
      </defs>
      <use xlink:href="#DejaVuSans-64"/>
      <use x="63.476562" xlink:href="#DejaVuSans-65"/>
      <use x="125" xlink:href="#DejaVuSans-66"/>
      <use x="160.205078" xlink:href="#DejaVuSans-61"/>
      <use x="221.484375" xlink:href="#DejaVuSans-75"/>
      <use x="284.863281" xlink:href="#DejaVuSans-6c"/>
      <use x="312.646484" xlink:href="#DejaVuSans-74"/>
      <use x="351.855469" xlink:href="#DejaVuSans-2d"/>
      <use x="387.939453" xlink:href="#DejaVuSans-63"/>
      <use x="442.919922" xlink:href="#DejaVuSans-66"/>
      <use x="478.125" xlink:href="#DejaVuSans-67"/>
     </g>
    </g>
   </g>
  </g>
 </g>
 <defs>
  <clipPath id="p6b81da0e37">
   <rect height="235.008" width="357.12" x="57.6" y="41.472"/>
  </clipPath>
 </defs>
</svg>
