<?xml version="1.0" encoding="utf-8" standalone="no"?>
<!DOCTYPE svg PUBLIC "-//W3C//DTD SVG 1.1//EN"
  "http://www.w3.org/Graphics/SVG/1.1/DTD/svg11.dtd">
<svg height="345.6pt" version="1.1" viewBox="0 0 460.8 345.6" width="460.8pt" xmlns="http://www.w3.org/2000/svg" xmlns:xlink="http://www.w3.org/1999/xlink">
 <metadata>
  <rdf:RDF xmlns:cc="http://creativecommons.org/ns#" xmlns:dc="http://purl.org/dc/elements/1.1/" xmlns:rdf="http://www.w3.org/1999/02/22-rdf-syntax-ns#">
   <cc:Work>
    <dc:type rdf:resource="http://purl.org/dc/dcmitype/StillImage"/>
    <dc:date>2022-04-27T10:01:38.305195</dc:date>
    <dc:format>image/svg+xml</dc:format>
    <dc:creator>
     <cc:Agent>
      <dc:title>Matplotlib v3.4.3, https://matplotlib.org/</dc:title>
     </cc:Agent>
    </dc:creator>
   </cc:Work>
  </rdf:RDF>
 </metadata>
 <defs>
  <style type="text/css">*{stroke-linecap:butt;stroke-linejoin:round;}</style>
 </defs>
 <g id="figure_1">
  <g id="patch_1">
   <path d="M 0 345.6 
L 460.8 345.6 
L 460.8 0 
L 0 0 
z
" style="fill:#ffffff;"/>
  </g>
  <g id="axes_1">
   <g id="patch_2">
    <path d="M 57.6 276.48 
L 414.72 276.48 
L 414.72 41.472 
L 57.6 41.472 
z
" style="fill:#ffffff;"/>
   </g>
   <g id="matplotlib.axis_1">
    <g id="xtick_1">
     <g id="line2d_1">
      <defs>
       <path d="M 0 0 
L 0 3.5 
" id="mc38b628ce2" style="stroke:#000000;stroke-width:0.8;"/>
      </defs>
      <g>
       <use style="stroke:#000000;stroke-width:0.8;" x="100.37681" xlink:href="#mc38b628ce2" y="276.48"/>
      </g>
     </g>
     <g id="text_1">
      <!-- 2021-12 -->
      <g transform="translate(63.151989 310.951846)rotate(-30)scale(0.1 -0.1)">
       <defs>
        <path d="M 1228 531 
L 3431 531 
L 3431 0 
L 469 0 
L 469 531 
Q 828 903 1448 1529 
Q 2069 2156 2228 2338 
Q 2531 2678 2651 2914 
Q 2772 3150 2772 3378 
Q 2772 3750 2511 3984 
Q 2250 4219 1831 4219 
Q 1534 4219 1204 4116 
Q 875 4013 500 3803 
L 500 4441 
Q 881 4594 1212 4672 
Q 1544 4750 1819 4750 
Q 2544 4750 2975 4387 
Q 3406 4025 3406 3419 
Q 3406 3131 3298 2873 
Q 3191 2616 2906 2266 
Q 2828 2175 2409 1742 
Q 1991 1309 1228 531 
z
" id="DejaVuSans-32" transform="scale(0.015625)"/>
        <path d="M 2034 4250 
Q 1547 4250 1301 3770 
Q 1056 3291 1056 2328 
Q 1056 1369 1301 889 
Q 1547 409 2034 409 
Q 2525 409 2770 889 
Q 3016 1369 3016 2328 
Q 3016 3291 2770 3770 
Q 2525 4250 2034 4250 
z
M 2034 4750 
Q 2819 4750 3233 4129 
Q 3647 3509 3647 2328 
Q 3647 1150 3233 529 
Q 2819 -91 2034 -91 
Q 1250 -91 836 529 
Q 422 1150 422 2328 
Q 422 3509 836 4129 
Q 1250 4750 2034 4750 
z
" id="DejaVuSans-30" transform="scale(0.015625)"/>
        <path d="M 794 531 
L 1825 531 
L 1825 4091 
L 703 3866 
L 703 4441 
L 1819 4666 
L 2450 4666 
L 2450 531 
L 3481 531 
L 3481 0 
L 794 0 
L 794 531 
z
" id="DejaVuSans-31" transform="scale(0.015625)"/>
        <path d="M 313 2009 
L 1997 2009 
L 1997 1497 
L 313 1497 
L 313 2009 
z
" id="DejaVuSans-2d" transform="scale(0.015625)"/>
       </defs>
       <use xlink:href="#DejaVuSans-32"/>
       <use x="63.623047" xlink:href="#DejaVuSans-30"/>
       <use x="127.246094" xlink:href="#DejaVuSans-32"/>
       <use x="190.869141" xlink:href="#DejaVuSans-31"/>
       <use x="254.492188" xlink:href="#DejaVuSans-2d"/>
       <use x="290.576172" xlink:href="#DejaVuSans-31"/>
       <use x="354.199219" xlink:href="#DejaVuSans-32"/>
      </g>
     </g>
    </g>
    <g id="xtick_2">
     <g id="line2d_2">
      <g>
       <use style="stroke:#000000;stroke-width:0.8;" x="163.674237" xlink:href="#mc38b628ce2" y="276.48"/>
      </g>
     </g>
     <g id="text_2">
      <!-- 2022-01 -->
      <g transform="translate(126.449416 310.951846)rotate(-30)scale(0.1 -0.1)">
       <use xlink:href="#DejaVuSans-32"/>
       <use x="63.623047" xlink:href="#DejaVuSans-30"/>
       <use x="127.246094" xlink:href="#DejaVuSans-32"/>
       <use x="190.869141" xlink:href="#DejaVuSans-32"/>
       <use x="254.492188" xlink:href="#DejaVuSans-2d"/>
       <use x="290.576172" xlink:href="#DejaVuSans-30"/>
       <use x="354.199219" xlink:href="#DejaVuSans-31"/>
      </g>
     </g>
    </g>
    <g id="xtick_3">
     <g id="line2d_3">
      <g>
       <use style="stroke:#000000;stroke-width:0.8;" x="226.971664" xlink:href="#mc38b628ce2" y="276.48"/>
      </g>
     </g>
     <g id="text_3">
      <!-- 2022-02 -->
      <g transform="translate(189.746843 310.951846)rotate(-30)scale(0.1 -0.1)">
       <use xlink:href="#DejaVuSans-32"/>
       <use x="63.623047" xlink:href="#DejaVuSans-30"/>
       <use x="127.246094" xlink:href="#DejaVuSans-32"/>
       <use x="190.869141" xlink:href="#DejaVuSans-32"/>
       <use x="254.492188" xlink:href="#DejaVuSans-2d"/>
       <use x="290.576172" xlink:href="#DejaVuSans-30"/>
       <use x="354.199219" xlink:href="#DejaVuSans-32"/>
      </g>
     </g>
    </g>
    <g id="xtick_4">
     <g id="line2d_4">
      <g>
       <use style="stroke:#000000;stroke-width:0.8;" x="284.143533" xlink:href="#mc38b628ce2" y="276.48"/>
      </g>
     </g>
     <g id="text_4">
      <!-- 2022-03 -->
      <g transform="translate(246.918713 310.951846)rotate(-30)scale(0.1 -0.1)">
       <defs>
        <path d="M 2597 2516 
Q 3050 2419 3304 2112 
Q 3559 1806 3559 1356 
Q 3559 666 3084 287 
Q 2609 -91 1734 -91 
Q 1441 -91 1130 -33 
Q 819 25 488 141 
L 488 750 
Q 750 597 1062 519 
Q 1375 441 1716 441 
Q 2309 441 2620 675 
Q 2931 909 2931 1356 
Q 2931 1769 2642 2001 
Q 2353 2234 1838 2234 
L 1294 2234 
L 1294 2753 
L 1863 2753 
Q 2328 2753 2575 2939 
Q 2822 3125 2822 3475 
Q 2822 3834 2567 4026 
Q 2313 4219 1838 4219 
Q 1578 4219 1281 4162 
Q 984 4106 628 3988 
L 628 4550 
Q 988 4650 1302 4700 
Q 1616 4750 1894 4750 
Q 2613 4750 3031 4423 
Q 3450 4097 3450 3541 
Q 3450 3153 3228 2886 
Q 3006 2619 2597 2516 
z
" id="DejaVuSans-33" transform="scale(0.015625)"/>
       </defs>
       <use xlink:href="#DejaVuSans-32"/>
       <use x="63.623047" xlink:href="#DejaVuSans-30"/>
       <use x="127.246094" xlink:href="#DejaVuSans-32"/>
       <use x="190.869141" xlink:href="#DejaVuSans-32"/>
       <use x="254.492188" xlink:href="#DejaVuSans-2d"/>
       <use x="290.576172" xlink:href="#DejaVuSans-30"/>
       <use x="354.199219" xlink:href="#DejaVuSans-33"/>
      </g>
     </g>
    </g>
    <g id="xtick_5">
     <g id="line2d_5">
      <g>
       <use style="stroke:#000000;stroke-width:0.8;" x="347.440961" xlink:href="#mc38b628ce2" y="276.48"/>
      </g>
     </g>
     <g id="text_5">
      <!-- 2022-04 -->
      <g transform="translate(310.21614 310.951846)rotate(-30)scale(0.1 -0.1)">
       <defs>
        <path d="M 2419 4116 
L 825 1625 
L 2419 1625 
L 2419 4116 
z
M 2253 4666 
L 3047 4666 
L 3047 1625 
L 3713 1625 
L 3713 1100 
L 3047 1100 
L 3047 0 
L 2419 0 
L 2419 1100 
L 313 1100 
L 313 1709 
L 2253 4666 
z
" id="DejaVuSans-34" transform="scale(0.015625)"/>
       </defs>
       <use xlink:href="#DejaVuSans-32"/>
       <use x="63.623047" xlink:href="#DejaVuSans-30"/>
       <use x="127.246094" xlink:href="#DejaVuSans-32"/>
       <use x="190.869141" xlink:href="#DejaVuSans-32"/>
       <use x="254.492188" xlink:href="#DejaVuSans-2d"/>
       <use x="290.576172" xlink:href="#DejaVuSans-30"/>
       <use x="354.199219" xlink:href="#DejaVuSans-34"/>
      </g>
     </g>
    </g>
    <g id="xtick_6">
     <g id="line2d_6">
      <g>
       <use style="stroke:#000000;stroke-width:0.8;" x="408.696535" xlink:href="#mc38b628ce2" y="276.48"/>
      </g>
     </g>
     <g id="text_6">
      <!-- 2022-05 -->
      <g transform="translate(371.471714 310.951846)rotate(-30)scale(0.1 -0.1)">
       <defs>
        <path d="M 691 4666 
L 3169 4666 
L 3169 4134 
L 1269 4134 
L 1269 2991 
Q 1406 3038 1543 3061 
Q 1681 3084 1819 3084 
Q 2600 3084 3056 2656 
Q 3513 2228 3513 1497 
Q 3513 744 3044 326 
Q 2575 -91 1722 -91 
Q 1428 -91 1123 -41 
Q 819 9 494 109 
L 494 744 
Q 775 591 1075 516 
Q 1375 441 1709 441 
Q 2250 441 2565 725 
Q 2881 1009 2881 1497 
Q 2881 1984 2565 2268 
Q 2250 2553 1709 2553 
Q 1456 2553 1204 2497 
Q 953 2441 691 2322 
L 691 4666 
z
" id="DejaVuSans-35" transform="scale(0.015625)"/>
       </defs>
       <use xlink:href="#DejaVuSans-32"/>
       <use x="63.623047" xlink:href="#DejaVuSans-30"/>
       <use x="127.246094" xlink:href="#DejaVuSans-32"/>
       <use x="190.869141" xlink:href="#DejaVuSans-32"/>
       <use x="254.492188" xlink:href="#DejaVuSans-2d"/>
       <use x="290.576172" xlink:href="#DejaVuSans-30"/>
       <use x="354.199219" xlink:href="#DejaVuSans-35"/>
      </g>
     </g>
    </g>
    <g id="text_7">
     <!-- date -->
     <g transform="translate(224.885 324.351346)scale(0.1 -0.1)">
      <defs>
       <path d="M 2906 2969 
L 2906 4863 
L 3481 4863 
L 3481 0 
L 2906 0 
L 2906 525 
Q 2725 213 2448 61 
Q 2172 -91 1784 -91 
Q 1150 -91 751 415 
Q 353 922 353 1747 
Q 353 2572 751 3078 
Q 1150 3584 1784 3584 
Q 2172 3584 2448 3432 
Q 2725 3281 2906 2969 
z
M 947 1747 
Q 947 1113 1208 752 
Q 1469 391 1925 391 
Q 2381 391 2643 752 
Q 2906 1113 2906 1747 
Q 2906 2381 2643 2742 
Q 2381 3103 1925 3103 
Q 1469 3103 1208 2742 
Q 947 2381 947 1747 
z
" id="DejaVuSans-64" transform="scale(0.015625)"/>
       <path d="M 2194 1759 
Q 1497 1759 1228 1600 
Q 959 1441 959 1056 
Q 959 750 1161 570 
Q 1363 391 1709 391 
Q 2188 391 2477 730 
Q 2766 1069 2766 1631 
L 2766 1759 
L 2194 1759 
z
M 3341 1997 
L 3341 0 
L 2766 0 
L 2766 531 
Q 2569 213 2275 61 
Q 1981 -91 1556 -91 
Q 1019 -91 701 211 
Q 384 513 384 1019 
Q 384 1609 779 1909 
Q 1175 2209 1959 2209 
L 2766 2209 
L 2766 2266 
Q 2766 2663 2505 2880 
Q 2244 3097 1772 3097 
Q 1472 3097 1187 3025 
Q 903 2953 641 2809 
L 641 3341 
Q 956 3463 1253 3523 
Q 1550 3584 1831 3584 
Q 2591 3584 2966 3190 
Q 3341 2797 3341 1997 
z
" id="DejaVuSans-61" transform="scale(0.015625)"/>
       <path d="M 1172 4494 
L 1172 3500 
L 2356 3500 
L 2356 3053 
L 1172 3053 
L 1172 1153 
Q 1172 725 1289 603 
Q 1406 481 1766 481 
L 2356 481 
L 2356 0 
L 1766 0 
Q 1100 0 847 248 
Q 594 497 594 1153 
L 594 3053 
L 172 3053 
L 172 3500 
L 594 3500 
L 594 4494 
L 1172 4494 
z
" id="DejaVuSans-74" transform="scale(0.015625)"/>
       <path d="M 3597 1894 
L 3597 1613 
L 953 1613 
Q 991 1019 1311 708 
Q 1631 397 2203 397 
Q 2534 397 2845 478 
Q 3156 559 3463 722 
L 3463 178 
Q 3153 47 2828 -22 
Q 2503 -91 2169 -91 
Q 1331 -91 842 396 
Q 353 884 353 1716 
Q 353 2575 817 3079 
Q 1281 3584 2069 3584 
Q 2775 3584 3186 3129 
Q 3597 2675 3597 1894 
z
M 3022 2063 
Q 3016 2534 2758 2815 
Q 2500 3097 2075 3097 
Q 1594 3097 1305 2825 
Q 1016 2553 972 2059 
L 3022 2063 
z
" id="DejaVuSans-65" transform="scale(0.015625)"/>
      </defs>
      <use xlink:href="#DejaVuSans-64"/>
      <use x="63.476562" xlink:href="#DejaVuSans-61"/>
      <use x="124.755859" xlink:href="#DejaVuSans-74"/>
      <use x="163.964844" xlink:href="#DejaVuSans-65"/>
     </g>
    </g>
   </g>
   <g id="matplotlib.axis_2">
    <g id="ytick_1">
     <g id="line2d_7">
      <defs>
       <path d="M 0 0 
L -3.5 0 
" id="m7a4b48f83e" style="stroke:#000000;stroke-width:0.8;"/>
      </defs>
      <g>
       <use style="stroke:#000000;stroke-width:0.8;" x="57.6" xlink:href="#m7a4b48f83e" y="261.950666"/>
      </g>
     </g>
     <g id="text_8">
      <!-- 84000 -->
      <g transform="translate(18.7875 265.749885)scale(0.1 -0.1)">
       <defs>
        <path d="M 2034 2216 
Q 1584 2216 1326 1975 
Q 1069 1734 1069 1313 
Q 1069 891 1326 650 
Q 1584 409 2034 409 
Q 2484 409 2743 651 
Q 3003 894 3003 1313 
Q 3003 1734 2745 1975 
Q 2488 2216 2034 2216 
z
M 1403 2484 
Q 997 2584 770 2862 
Q 544 3141 544 3541 
Q 544 4100 942 4425 
Q 1341 4750 2034 4750 
Q 2731 4750 3128 4425 
Q 3525 4100 3525 3541 
Q 3525 3141 3298 2862 
Q 3072 2584 2669 2484 
Q 3125 2378 3379 2068 
Q 3634 1759 3634 1313 
Q 3634 634 3220 271 
Q 2806 -91 2034 -91 
Q 1263 -91 848 271 
Q 434 634 434 1313 
Q 434 1759 690 2068 
Q 947 2378 1403 2484 
z
M 1172 3481 
Q 1172 3119 1398 2916 
Q 1625 2713 2034 2713 
Q 2441 2713 2670 2916 
Q 2900 3119 2900 3481 
Q 2900 3844 2670 4047 
Q 2441 4250 2034 4250 
Q 1625 4250 1398 4047 
Q 1172 3844 1172 3481 
z
" id="DejaVuSans-38" transform="scale(0.015625)"/>
       </defs>
       <use xlink:href="#DejaVuSans-38"/>
       <use x="63.623047" xlink:href="#DejaVuSans-34"/>
       <use x="127.246094" xlink:href="#DejaVuSans-30"/>
       <use x="190.869141" xlink:href="#DejaVuSans-30"/>
       <use x="254.492188" xlink:href="#DejaVuSans-30"/>
      </g>
     </g>
    </g>
    <g id="ytick_2">
     <g id="line2d_8">
      <g>
       <use style="stroke:#000000;stroke-width:0.8;" x="57.6" xlink:href="#m7a4b48f83e" y="235.350302"/>
      </g>
     </g>
     <g id="text_9">
      <!-- 86000 -->
      <g transform="translate(18.7875 239.149521)scale(0.1 -0.1)">
       <defs>
        <path d="M 2113 2584 
Q 1688 2584 1439 2293 
Q 1191 2003 1191 1497 
Q 1191 994 1439 701 
Q 1688 409 2113 409 
Q 2538 409 2786 701 
Q 3034 994 3034 1497 
Q 3034 2003 2786 2293 
Q 2538 2584 2113 2584 
z
M 3366 4563 
L 3366 3988 
Q 3128 4100 2886 4159 
Q 2644 4219 2406 4219 
Q 1781 4219 1451 3797 
Q 1122 3375 1075 2522 
Q 1259 2794 1537 2939 
Q 1816 3084 2150 3084 
Q 2853 3084 3261 2657 
Q 3669 2231 3669 1497 
Q 3669 778 3244 343 
Q 2819 -91 2113 -91 
Q 1303 -91 875 529 
Q 447 1150 447 2328 
Q 447 3434 972 4092 
Q 1497 4750 2381 4750 
Q 2619 4750 2861 4703 
Q 3103 4656 3366 4563 
z
" id="DejaVuSans-36" transform="scale(0.015625)"/>
       </defs>
       <use xlink:href="#DejaVuSans-38"/>
       <use x="63.623047" xlink:href="#DejaVuSans-36"/>
       <use x="127.246094" xlink:href="#DejaVuSans-30"/>
       <use x="190.869141" xlink:href="#DejaVuSans-30"/>
       <use x="254.492188" xlink:href="#DejaVuSans-30"/>
      </g>
     </g>
    </g>
    <g id="ytick_3">
     <g id="line2d_9">
      <g>
       <use style="stroke:#000000;stroke-width:0.8;" x="57.6" xlink:href="#m7a4b48f83e" y="208.749938"/>
      </g>
     </g>
     <g id="text_10">
      <!-- 88000 -->
      <g transform="translate(18.7875 212.549157)scale(0.1 -0.1)">
       <use xlink:href="#DejaVuSans-38"/>
       <use x="63.623047" xlink:href="#DejaVuSans-38"/>
       <use x="127.246094" xlink:href="#DejaVuSans-30"/>
       <use x="190.869141" xlink:href="#DejaVuSans-30"/>
       <use x="254.492188" xlink:href="#DejaVuSans-30"/>
      </g>
     </g>
    </g>
    <g id="ytick_4">
     <g id="line2d_10">
      <g>
       <use style="stroke:#000000;stroke-width:0.8;" x="57.6" xlink:href="#m7a4b48f83e" y="182.149575"/>
      </g>
     </g>
     <g id="text_11">
      <!-- 90000 -->
      <g transform="translate(18.7875 185.948793)scale(0.1 -0.1)">
       <defs>
        <path d="M 703 97 
L 703 672 
Q 941 559 1184 500 
Q 1428 441 1663 441 
Q 2288 441 2617 861 
Q 2947 1281 2994 2138 
Q 2813 1869 2534 1725 
Q 2256 1581 1919 1581 
Q 1219 1581 811 2004 
Q 403 2428 403 3163 
Q 403 3881 828 4315 
Q 1253 4750 1959 4750 
Q 2769 4750 3195 4129 
Q 3622 3509 3622 2328 
Q 3622 1225 3098 567 
Q 2575 -91 1691 -91 
Q 1453 -91 1209 -44 
Q 966 3 703 97 
z
M 1959 2075 
Q 2384 2075 2632 2365 
Q 2881 2656 2881 3163 
Q 2881 3666 2632 3958 
Q 2384 4250 1959 4250 
Q 1534 4250 1286 3958 
Q 1038 3666 1038 3163 
Q 1038 2656 1286 2365 
Q 1534 2075 1959 2075 
z
" id="DejaVuSans-39" transform="scale(0.015625)"/>
       </defs>
       <use xlink:href="#DejaVuSans-39"/>
       <use x="63.623047" xlink:href="#DejaVuSans-30"/>
       <use x="127.246094" xlink:href="#DejaVuSans-30"/>
       <use x="190.869141" xlink:href="#DejaVuSans-30"/>
       <use x="254.492188" xlink:href="#DejaVuSans-30"/>
      </g>
     </g>
    </g>
    <g id="ytick_5">
     <g id="line2d_11">
      <g>
       <use style="stroke:#000000;stroke-width:0.8;" x="57.6" xlink:href="#m7a4b48f83e" y="155.549211"/>
      </g>
     </g>
     <g id="text_12">
      <!-- 92000 -->
      <g transform="translate(18.7875 159.34843)scale(0.1 -0.1)">
       <use xlink:href="#DejaVuSans-39"/>
       <use x="63.623047" xlink:href="#DejaVuSans-32"/>
       <use x="127.246094" xlink:href="#DejaVuSans-30"/>
       <use x="190.869141" xlink:href="#DejaVuSans-30"/>
       <use x="254.492188" xlink:href="#DejaVuSans-30"/>
      </g>
     </g>
    </g>
    <g id="ytick_6">
     <g id="line2d_12">
      <g>
       <use style="stroke:#000000;stroke-width:0.8;" x="57.6" xlink:href="#m7a4b48f83e" y="128.948847"/>
      </g>
     </g>
     <g id="text_13">
      <!-- 94000 -->
      <g transform="translate(18.7875 132.748066)scale(0.1 -0.1)">
       <use xlink:href="#DejaVuSans-39"/>
       <use x="63.623047" xlink:href="#DejaVuSans-34"/>
       <use x="127.246094" xlink:href="#DejaVuSans-30"/>
       <use x="190.869141" xlink:href="#DejaVuSans-30"/>
       <use x="254.492188" xlink:href="#DejaVuSans-30"/>
      </g>
     </g>
    </g>
    <g id="ytick_7">
     <g id="line2d_13">
      <g>
       <use style="stroke:#000000;stroke-width:0.8;" x="57.6" xlink:href="#m7a4b48f83e" y="102.348483"/>
      </g>
     </g>
     <g id="text_14">
      <!-- 96000 -->
      <g transform="translate(18.7875 106.147702)scale(0.1 -0.1)">
       <use xlink:href="#DejaVuSans-39"/>
       <use x="63.623047" xlink:href="#DejaVuSans-36"/>
       <use x="127.246094" xlink:href="#DejaVuSans-30"/>
       <use x="190.869141" xlink:href="#DejaVuSans-30"/>
       <use x="254.492188" xlink:href="#DejaVuSans-30"/>
      </g>
     </g>
    </g>
    <g id="ytick_8">
     <g id="line2d_14">
      <g>
       <use style="stroke:#000000;stroke-width:0.8;" x="57.6" xlink:href="#m7a4b48f83e" y="75.74812"/>
      </g>
     </g>
     <g id="text_15">
      <!-- 98000 -->
      <g transform="translate(18.7875 79.547338)scale(0.1 -0.1)">
       <use xlink:href="#DejaVuSans-39"/>
       <use x="63.623047" xlink:href="#DejaVuSans-38"/>
       <use x="127.246094" xlink:href="#DejaVuSans-30"/>
       <use x="190.869141" xlink:href="#DejaVuSans-30"/>
       <use x="254.492188" xlink:href="#DejaVuSans-30"/>
      </g>
     </g>
    </g>
    <g id="ytick_9">
     <g id="line2d_15">
      <g>
       <use style="stroke:#000000;stroke-width:0.8;" x="57.6" xlink:href="#m7a4b48f83e" y="49.147756"/>
      </g>
     </g>
     <g id="text_16">
      <!-- 100000 -->
      <g transform="translate(12.425 52.946975)scale(0.1 -0.1)">
       <use xlink:href="#DejaVuSans-31"/>
       <use x="63.623047" xlink:href="#DejaVuSans-30"/>
       <use x="127.246094" xlink:href="#DejaVuSans-30"/>
       <use x="190.869141" xlink:href="#DejaVuSans-30"/>
       <use x="254.492188" xlink:href="#DejaVuSans-30"/>
       <use x="318.115234" xlink:href="#DejaVuSans-30"/>
      </g>
     </g>
    </g>
   </g>
   <g id="line2d_16">
    <path clip-path="url(#p2fd4040ce4)" d="M 73.832727 52.154182 
L 75.87458 57.90792 
L 82.000137 67.31073 
L 84.04199 69.171742 
L 86.083842 68.97146 
L 90.167547 68.124759 
L 96.293105 95.391134 
L 98.334957 111.189103 
L 100.37681 124.964906 
L 102.418662 104.859047 
L 104.460515 120.199261 
L 110.586072 106.851753 
L 112.627925 80.545422 
L 114.669777 74.512457 
L 116.71163 87.378968 
L 118.753482 83.95081 
L 124.879039 98.316634 
L 126.920892 106.480525 
L 128.962744 92.900772 
L 131.004597 101.042387 
L 133.046449 108.613756 
L 139.172007 129.939606 
L 141.213859 108.274525 
L 143.255712 97.190004 
L 145.297564 88.889774 
L 153.464974 79.040452 
L 155.506827 82.670568 
L 157.548679 82.639625 
L 159.590532 81.609155 
L 161.632384 83.386566 
L 167.757942 76.3476 
L 169.799794 77.5309 
L 171.841647 101.034089 
L 173.883499 102.06462 
L 175.925352 102.040733 
L 182.050909 106.990831 
L 184.092762 89.854001 
L 186.134614 82.222045 
L 188.176467 98.300569 
L 190.218319 98.844223 
L 198.385729 121.326315 
L 200.427581 127.803395 
L 202.469434 136.594334 
L 204.511286 158.01538 
L 210.636844 160.093631 
L 212.678696 171.423785 
L 214.720549 178.817353 
L 216.762401 189.567501 
L 218.804254 173.271267 
L 224.929811 144.862515 
L 226.971664 133.772586 
L 229.013516 129.097507 
L 231.055369 152.469458 
L 233.097221 146.130201 
L 239.222779 147.069347 
L 241.264631 135.896157 
L 243.306484 114.778834 
L 245.348336 130.695671 
L 247.390189 152.493723 
L 253.515746 158.74145 
L 255.557599 134.596004 
L 257.599451 130.933364 
L 259.641304 154.329285 
L 261.683156 164.430069 
L 269.850566 179.244121 
L 271.892419 196.133948 
L 273.934271 193.670341 
L 275.976123 166.899085 
L 282.101681 174.319768 
L 284.143533 193.541844 
L 286.185386 177.794509 
L 288.227238 193.107156 
L 290.269091 213.629335 
L 296.394648 251.833479 
L 298.436501 250.283953 
L 300.478353 215.826972 
L 302.520206 224.576964 
L 304.562058 241.588855 
L 310.687616 253.656041 
L 312.729468 238.255986 
L 314.771321 193.481031 
L 316.813173 183.814708 
L 318.855026 168.250394 
L 324.980583 176.8592 
L 327.022436 161.308207 
L 329.064288 177.234648 
L 331.106141 164.723621 
L 333.147993 164.795497 
L 339.273551 161.946043 
L 341.315403 139.160732 
L 343.357256 147.448315 
L 345.399108 165.583826 
L 347.440961 155.442132 
L 353.566518 143.592396 
L 355.60837 164.028989 
L 357.650223 179.49721 
L 359.692075 179.407169 
L 361.733928 181.926297 
L 367.859485 195.871756 
L 369.901338 201.134954 
L 371.94319 185.485553 
L 373.985043 196.772856 
L 382.152453 200.968689 
L 384.194305 188.979042 
L 386.236158 189.314332 
L 388.27801 209.384081 
L 390.319863 233.876324 
L 396.44542 233.956121 
L 398.487273 250.875108 
" style="fill:none;stroke:#0000ff;stroke-linecap:square;stroke-opacity:0.9;stroke-width:2;"/>
   </g>
   <g id="line2d_17">
    <path clip-path="url(#p2fd4040ce4)" d="M 73.832727 52.154182 
L 75.87458 58.562916 
L 82.000137 68.627455 
L 84.04199 68.796247 
L 86.083842 68.834799 
L 90.167547 102.687546 
L 96.293105 94.891175 
L 98.334957 111.990599 
L 100.37681 125.116591 
L 102.418662 105.078411 
L 104.460515 119.608027 
L 110.586072 106.490672 
L 112.627925 80.063677 
L 114.669777 74.381615 
L 116.71163 87.166477 
L 118.753482 84.316445 
L 124.879039 98.905466 
L 126.920892 105.4824 
L 128.962744 93.009347 
L 131.004597 100.124927 
L 133.046449 107.715435 
L 139.172007 130.256374 
L 141.213859 108.415779 
L 143.255712 97.578171 
L 145.297564 89.500819 
L 153.464974 78.465735 
L 155.506827 81.715382 
L 157.548679 83.535168 
L 159.590532 81.344742 
L 161.632384 83.360861 
L 167.757942 75.873007 
L 169.799794 78.585481 
L 171.841647 101.265892 
L 173.883499 101.389935 
L 175.925352 101.972719 
L 182.050909 106.068187 
L 184.092762 89.917358 
L 186.134614 81.551547 
L 188.176467 96.986252 
L 190.218319 97.430245 
L 198.385729 120.710785 
L 200.427581 126.519447 
L 202.469434 135.236418 
L 204.511286 156.840286 
L 210.636844 159.061679 
L 212.678696 170.654803 
L 214.720549 178.423219 
L 216.762401 188.113603 
L 218.804254 172.294946 
L 224.929811 144.053465 
L 226.971664 132.906178 
L 229.013516 128.936927 
L 231.055369 152.605609 
L 233.097221 146.519322 
L 239.222779 146.101852 
L 241.264631 135.247069 
L 243.306484 114.836791 
L 245.348336 130.865363 
L 247.390189 151.031704 
L 253.515746 157.609234 
L 255.557599 133.546318 
L 257.599451 129.738238 
L 259.641304 153.467153 
L 261.683156 163.329698 
L 269.850566 178.266016 
L 271.892419 196.057424 
L 273.934271 193.846583 
L 275.976123 166.659609 
L 282.101681 174.626805 
L 284.143533 193.967232 
L 286.185386 178.440005 
L 288.227238 193.834517 
L 290.269091 213.864929 
L 296.394648 251.29692 
L 298.436501 250.965916 
L 300.478353 216.440782 
L 302.520206 225.157729 
L 304.562058 242.921454 
L 310.687616 253.195668 
L 312.729468 239.314348 
L 314.771321 194.272484 
L 316.813173 183.562395 
L 318.855026 169.126115 
L 324.980583 177.152809 
L 327.022436 162.495054 
L 329.064288 177.182522 
L 331.106141 165.577619 
L 333.147993 165.248224 
L 339.273551 161.896632 
L 341.315403 140.012971 
L 343.357256 148.95489 
L 345.399108 167.424993 
L 347.440961 156.730036 
L 353.566518 144.62833 
L 355.60837 163.996708 
L 357.650223 179.511768 
L 359.692075 179.421529 
L 361.733928 182.004651 
L 367.859485 197.482736 
L 369.901338 201.984425 
L 371.94319 186.360224 
L 373.985043 196.965605 
L 382.152453 202.659232 
L 384.194305 190.2253 
L 386.236158 190.983884 
L 388.27801 209.694493 
L 390.319863 234.223099 
L 396.44542 234.451984 
L 398.487273 265.797818 
" style="fill:none;stroke:#ff0000;stroke-linecap:square;stroke-opacity:0.9;stroke-width:2;"/>
   </g>
   <g id="line2d_18">
    <path clip-path="url(#p2fd4040ce4)" d="M 73.832727 52.154182 
L 75.87458 58.376479 
L 82.000137 68.267121 
L 84.04199 69.412428 
L 86.083842 69.069959 
L 90.167547 102.404963 
L 96.293105 94.458969 
L 98.334957 112.206006 
L 100.37681 124.988288 
L 102.418662 105.297567 
L 104.460515 120.148435 
L 110.586072 105.892341 
L 112.627925 79.92871 
L 114.669777 74.646369 
L 116.71163 86.895246 
L 118.753482 83.586612 
L 124.879039 98.039484 
L 126.920892 106.717168 
L 128.962744 93.302014 
L 131.004597 100.843762 
L 133.046449 108.167607 
L 139.172007 131.133204 
L 141.213859 108.157742 
L 143.255712 96.45887 
L 145.297564 88.837286 
L 153.464974 79.132246 
L 155.506827 81.770276 
L 157.548679 82.330616 
L 159.590532 81.388887 
L 161.632384 83.997752 
L 167.757942 76.393528 
L 169.799794 78.295045 
L 171.841647 101.105174 
L 173.883499 101.51716 
L 175.925352 102.583341 
L 182.050909 106.020116 
L 184.092762 90.276052 
L 186.134614 82.389223 
L 188.176467 97.557075 
L 190.218319 98.442254 
L 198.385729 121.492054 
L 200.427581 127.110705 
L 202.469434 136.202611 
L 204.511286 158.698924 
L 210.636844 159.433509 
L 212.678696 170.922467 
L 214.720549 179.1257 
L 216.762401 189.701487 
L 218.804254 173.212891 
L 224.929811 144.749137 
L 226.971664 134.076809 
L 229.013516 129.465331 
L 231.055369 153.314114 
L 233.097221 146.409701 
L 239.222779 146.500388 
L 241.264631 135.564447 
L 243.306484 114.726162 
L 245.348336 130.926674 
L 247.390189 151.711681 
L 253.515746 158.271142 
L 255.557599 134.115848 
L 257.599451 130.265094 
L 259.641304 154.372908 
L 261.683156 163.739146 
L 269.850566 178.869064 
L 271.892419 196.468965 
L 273.934271 193.309176 
L 275.976123 166.489229 
L 282.101681 174.633902 
L 284.143533 194.18068 
L 286.185386 177.678855 
L 288.227238 193.265516 
L 290.269091 213.91099 
L 296.394648 252.460226 
L 298.436501 250.893575 
L 300.478353 215.021783 
L 302.520206 225.123433 
L 304.562058 241.994978 
L 310.687616 253.373306 
L 312.729468 239.635466 
L 314.771321 193.821698 
L 316.813173 183.067659 
L 318.855026 168.916212 
L 324.980583 177.220999 
L 327.022436 162.018613 
L 329.064288 177.220607 
L 331.106141 165.621831 
L 333.147993 165.620385 
L 339.273551 161.930867 
L 341.315403 139.871427 
L 343.357256 147.926955 
L 345.399108 166.697537 
L 347.440961 155.986056 
L 353.566518 144.430736 
L 355.60837 163.463614 
L 357.650223 178.837216 
L 359.692075 179.31614 
L 361.733928 182.038895 
L 367.859485 196.519817 
L 369.901338 200.771223 
L 371.94319 185.287712 
L 373.985043 197.404959 
L 382.152453 201.534473 
L 384.194305 189.850788 
L 386.236158 189.357736 
L 388.27801 210.197846 
L 390.319863 232.808362 
L 396.44542 233.81244 
L 398.487273 264.803087 
" style="fill:none;stroke:#008000;stroke-linecap:square;stroke-opacity:0.9;stroke-width:2;"/>
   </g>
   <g id="line2d_19">
    <path clip-path="url(#p2fd4040ce4)" d="M 73.832727 52.154182 
L 75.87458 58.83624 
L 82.000137 68.447715 
L 84.04199 69.029462 
L 86.083842 68.072251 
L 90.167547 101.737209 
L 96.293105 95.107934 
L 98.334957 111.556504 
L 100.37681 124.770365 
L 102.418662 105.658469 
L 104.460515 120.338523 
L 110.586072 106.324606 
L 112.627925 80.712433 
L 114.669777 74.590423 
L 116.71163 87.874555 
L 118.753482 83.417533 
L 124.879039 99.001437 
L 126.920892 105.817051 
L 128.962744 93.241599 
L 131.004597 100.896392 
L 133.046449 108.822532 
L 139.172007 130.717518 
L 141.213859 107.793637 
L 143.255712 97.428268 
L 145.297564 89.537712 
L 153.464974 79.322184 
L 155.506827 82.322775 
L 157.548679 82.555435 
L 159.590532 81.660351 
L 161.632384 83.593491 
L 167.757942 75.653744 
L 169.799794 78.140009 
L 171.841647 102.085401 
L 173.883499 101.582973 
L 175.925352 102.434861 
L 182.050909 106.429074 
L 184.092762 90.144208 
L 186.134614 81.759028 
L 188.176467 97.666003 
L 190.218319 98.663627 
L 198.385729 121.341305 
L 200.427581 128.08359 
L 202.469434 136.194828 
L 204.511286 158.046316 
L 210.636844 160.055603 
L 212.678696 171.279512 
L 214.720549 179.718895 
L 216.762401 190.022246 
L 218.804254 172.612321 
L 224.929811 143.538793 
L 226.971664 133.311529 
L 229.013516 129.607629 
L 231.055369 152.424441 
L 233.097221 147.063378 
L 239.222779 145.824879 
L 241.264631 136.060185 
L 243.306484 114.595811 
L 245.348336 131.325154 
L 247.390189 151.242014 
L 253.515746 158.736795 
L 255.557599 133.343067 
L 257.599451 130.353164 
L 259.641304 153.701857 
L 261.683156 163.815693 
L 269.850566 179.241113 
L 271.892419 196.391154 
L 273.934271 193.217014 
L 275.976123 166.479323 
L 282.101681 173.648948 
L 284.143533 193.315132 
L 286.185386 177.190827 
L 288.227238 193.15837 
L 290.269091 214.466933 
L 296.394648 251.367879 
L 298.436501 250.090844 
L 300.478353 215.147036 
L 302.520206 225.228295 
L 304.562058 242.15413 
L 310.687616 253.372633 
L 312.729468 238.50448 
L 314.771321 193.774405 
L 316.813173 183.548342 
L 318.855026 167.734701 
L 324.980583 175.833351 
L 327.022436 161.965213 
L 329.064288 176.829942 
L 331.106141 165.095183 
L 333.147993 165.078172 
L 339.273551 161.564503 
L 341.315403 139.146137 
L 343.357256 147.396866 
L 345.399108 166.838798 
L 347.440961 155.259109 
L 353.566518 144.043364 
L 355.60837 164.367852 
L 357.650223 178.510731 
L 359.692075 179.065053 
L 361.733928 181.198675 
L 367.859485 196.349511 
L 369.901338 201.109526 
L 371.94319 185.506405 
L 373.985043 196.447211 
L 382.152453 201.275833 
L 384.194305 189.475282 
L 386.236158 189.866735 
L 388.27801 210.08802 
L 390.319863 233.589701 
L 396.44542 233.463065 
L 398.487273 265.527464 
" style="fill:none;stroke:#ec5283;stroke-linecap:square;stroke-width:2;"/>
   </g>
   <g id="line2d_20">
    <path clip-path="url(#p2fd4040ce4)" d="M 73.832727 52.154182 
L 75.87458 58.865366 
L 82.000137 67.821848 
L 84.04199 68.44488 
L 86.083842 68.140273 
L 90.167547 101.432955 
L 96.293105 94.595889 
L 98.334957 111.993269 
L 100.37681 125.376729 
L 102.418662 105.678177 
L 104.460515 119.537752 
L 110.586072 106.011634 
L 112.627925 80.067368 
L 114.669777 74.888141 
L 116.71163 87.015538 
L 118.753482 83.315133 
L 124.879039 98.787807 
L 126.920892 106.355753 
L 128.962744 92.170982 
L 131.004597 100.816579 
L 133.046449 107.878459 
L 139.172007 129.93549 
L 141.213859 107.7601 
L 143.255712 96.330852 
L 145.297564 88.897898 
L 153.464974 79.023382 
L 155.506827 82.4971 
L 157.548679 83.438266 
L 159.590532 81.069382 
L 161.632384 84.148363 
L 167.757942 75.38622 
L 169.799794 78.34854 
L 171.841647 101.734252 
L 173.883499 101.168049 
L 175.925352 102.565691 
L 182.050909 106.83351 
L 184.092762 90.250605 
L 186.134614 81.680526 
L 188.176467 97.444314 
L 190.218319 98.280791 
L 198.385729 121.307444 
L 200.427581 127.877427 
L 202.469434 135.788369 
L 204.511286 157.925529 
L 210.636844 159.863561 
L 212.678696 170.869625 
L 214.720549 178.968076 
L 216.762401 189.005691 
L 218.804254 172.543955 
L 224.929811 144.130196 
L 226.971664 132.894796 
L 229.013516 129.774571 
L 231.055369 152.603975 
L 233.097221 145.941966 
L 239.222779 146.660183 
L 241.264631 135.155097 
L 243.306484 114.527125 
L 245.348336 130.485232 
L 247.390189 151.624145 
L 253.515746 157.409967 
L 255.557599 134.047534 
L 257.599451 129.896666 
L 259.641304 153.953908 
L 261.683156 164.137262 
L 269.850566 178.555057 
L 271.892419 195.653692 
L 273.934271 192.60858 
L 275.976123 166.620321 
L 282.101681 174.353534 
L 284.143533 193.718904 
L 286.185386 177.208151 
L 288.227238 193.368199 
L 290.269091 214.597968 
L 296.394648 250.880999 
L 298.436501 250.557392 
L 300.478353 215.008004 
L 302.520206 224.738204 
L 304.562058 242.298481 
L 310.687616 253.453782 
L 312.729468 238.770576 
L 314.771321 194.048271 
L 316.813173 183.240407 
L 318.855026 167.915487 
L 324.980583 176.937138 
L 327.022436 161.962117 
L 329.064288 177.201563 
L 331.106141 165.584444 
L 333.147993 165.700162 
L 339.273551 162.041583 
L 341.315403 139.135979 
L 343.357256 148.099639 
L 345.399108 166.240092 
L 347.440961 155.197485 
L 353.566518 144.372713 
L 355.60837 163.534084 
L 357.650223 178.484483 
L 359.692075 179.259818 
L 361.733928 181.921653 
L 367.859485 196.490464 
L 369.901338 201.302716 
L 371.94319 185.406922 
L 373.985043 196.590357 
L 382.152453 200.99376 
L 384.194305 188.960556 
L 386.236158 189.098363 
L 388.27801 209.399396 
L 390.319863 233.179456 
L 396.44542 233.336129 
L 398.487273 264.185848 
" style="fill:none;stroke:#00ff00;stroke-linecap:square;stroke-opacity:0.9;stroke-width:2;"/>
   </g>
   <g id="line2d_21">
    <path clip-path="url(#p2fd4040ce4)" d="M 73.832727 52.154182 
L 75.87458 59.783797 
L 82.000137 70.191983 
L 84.04199 72.425744 
L 86.083842 73.604078 
L 90.167547 108.83917 
L 96.293105 104.262176 
L 98.334957 117.130725 
L 100.37681 128.801017 
L 102.418662 108.369733 
L 104.460515 124.54886 
L 110.586072 111.025164 
L 112.627925 85.411849 
L 114.669777 78.632002 
L 116.71163 92.507813 
L 118.753482 90.958995 
L 124.879039 107.240827 
L 126.920892 113.384883 
L 128.962744 102.998508 
L 131.004597 109.497724 
L 133.046449 115.541941 
L 139.172007 128.400416 
L 141.213859 104.694693 
L 143.255712 94.649244 
L 145.297564 87.34622 
L 153.464974 77.396451 
L 155.506827 82.266533 
L 157.548679 84.053826 
L 159.590532 79.315741 
L 161.632384 81.390349 
L 167.757942 73.496079 
L 169.799794 75.258167 
L 171.841647 99.182788 
L 173.883499 97.61321 
L 175.925352 97.841812 
L 182.050909 101.266519 
L 184.092762 83.061617 
L 186.134614 76.674812 
L 188.176467 94.224435 
L 190.218319 93.611895 
L 198.385729 120.315572 
L 200.427581 131.852336 
L 202.469434 145.222102 
L 204.511286 170.168232 
L 210.636844 162.252964 
L 212.678696 178.523415 
L 214.720549 186.643156 
L 216.762401 196.872247 
L 218.804254 171.522211 
L 224.929811 141.800514 
L 226.971664 130.39825 
L 229.013516 126.921986 
L 231.055369 154.023689 
L 233.097221 145.881516 
L 239.222779 146.234132 
L 241.264631 134.284643 
L 243.306484 111.557914 
L 245.348336 131.02432 
L 247.390189 153.626541 
L 253.515746 157.947885 
L 255.557599 134.229786 
L 257.599451 133.355392 
L 259.641304 159.217119 
L 261.683156 169.400029 
L 269.850566 184.61036 
L 271.892419 204.261012 
L 273.934271 188.288526 
L 275.976123 161.969433 
L 282.101681 165.425652 
L 284.143533 184.789465 
L 286.185386 167.410771 
L 288.227238 183.784433 
L 290.269091 205.762167 
L 296.394648 244.954034 
L 298.436501 239.484243 
L 300.478353 202.503007 
L 302.520206 213.833258 
L 304.562058 231.639015 
L 310.687616 243.168559 
L 312.729468 234.085663 
L 314.771321 177.343266 
L 316.813173 169.920291 
L 318.855026 154.107449 
L 324.980583 164.647285 
L 327.022436 148.405035 
L 329.064288 162.595283 
L 331.106141 152.696558 
L 333.147993 155.250991 
L 339.273551 153.724595 
L 341.315403 128.596268 
L 343.357256 137.074942 
L 345.399108 155.580142 
L 347.440961 141.126044 
L 353.566518 128.570767 
L 355.60837 149.608866 
L 357.650223 165.326185 
L 359.692075 168.757628 
L 361.733928 169.892879 
L 367.859485 182.881767 
L 369.901338 187.615875 
L 371.94319 170.59685 
L 373.985043 181.545057 
L 382.152453 188.273041 
L 384.194305 179.618426 
L 386.236158 179.25069 
L 388.27801 199.592637 
L 390.319863 219.707483 
L 396.44542 223.133873 
L 398.487273 253.23591 
" style="fill:none;stroke:#a5b9cf;stroke-linecap:square;stroke-width:2;"/>
   </g>
   <g id="patch_3">
    <path d="M 57.6 276.48 
L 57.6 41.472 
" style="fill:none;stroke:#000000;stroke-linecap:square;stroke-linejoin:miter;stroke-width:0.8;"/>
   </g>
   <g id="patch_4">
    <path d="M 414.72 276.48 
L 414.72 41.472 
" style="fill:none;stroke:#000000;stroke-linecap:square;stroke-linejoin:miter;stroke-width:0.8;"/>
   </g>
   <g id="patch_5">
    <path d="M 57.6 276.48 
L 414.72 276.48 
" style="fill:none;stroke:#000000;stroke-linecap:square;stroke-linejoin:miter;stroke-width:0.8;"/>
   </g>
   <g id="patch_6">
    <path d="M 57.6 41.472 
L 414.72 41.472 
" style="fill:none;stroke:#000000;stroke-linecap:square;stroke-linejoin:miter;stroke-width:0.8;"/>
   </g>
   <g id="text_17">
    <!-- VFUNDS -->
    <g transform="translate(211.295625 22.034625)scale(0.12 -0.12)">
     <defs>
      <path d="M 1831 0 
L 50 4666 
L 709 4666 
L 2188 738 
L 3669 4666 
L 4325 4666 
L 2547 0 
L 1831 0 
z
" id="DejaVuSans-56" transform="scale(0.015625)"/>
      <path d="M 628 4666 
L 3309 4666 
L 3309 4134 
L 1259 4134 
L 1259 2759 
L 3109 2759 
L 3109 2228 
L 1259 2228 
L 1259 0 
L 628 0 
L 628 4666 
z
" id="DejaVuSans-46" transform="scale(0.015625)"/>
      <path d="M 556 4666 
L 1191 4666 
L 1191 1831 
Q 1191 1081 1462 751 
Q 1734 422 2344 422 
Q 2950 422 3222 751 
Q 3494 1081 3494 1831 
L 3494 4666 
L 4128 4666 
L 4128 1753 
Q 4128 841 3676 375 
Q 3225 -91 2344 -91 
Q 1459 -91 1007 375 
Q 556 841 556 1753 
L 556 4666 
z
" id="DejaVuSans-55" transform="scale(0.015625)"/>
      <path d="M 628 4666 
L 1478 4666 
L 3547 763 
L 3547 4666 
L 4159 4666 
L 4159 0 
L 3309 0 
L 1241 3903 
L 1241 0 
L 628 0 
L 628 4666 
z
" id="DejaVuSans-4e" transform="scale(0.015625)"/>
      <path d="M 1259 4147 
L 1259 519 
L 2022 519 
Q 2988 519 3436 956 
Q 3884 1394 3884 2338 
Q 3884 3275 3436 3711 
Q 2988 4147 2022 4147 
L 1259 4147 
z
M 628 4666 
L 1925 4666 
Q 3281 4666 3915 4102 
Q 4550 3538 4550 2338 
Q 4550 1131 3912 565 
Q 3275 0 1925 0 
L 628 0 
L 628 4666 
z
" id="DejaVuSans-44" transform="scale(0.015625)"/>
      <path d="M 3425 4513 
L 3425 3897 
Q 3066 4069 2747 4153 
Q 2428 4238 2131 4238 
Q 1616 4238 1336 4038 
Q 1056 3838 1056 3469 
Q 1056 3159 1242 3001 
Q 1428 2844 1947 2747 
L 2328 2669 
Q 3034 2534 3370 2195 
Q 3706 1856 3706 1288 
Q 3706 609 3251 259 
Q 2797 -91 1919 -91 
Q 1588 -91 1214 -16 
Q 841 59 441 206 
L 441 856 
Q 825 641 1194 531 
Q 1563 422 1919 422 
Q 2459 422 2753 634 
Q 3047 847 3047 1241 
Q 3047 1584 2836 1778 
Q 2625 1972 2144 2069 
L 1759 2144 
Q 1053 2284 737 2584 
Q 422 2884 422 3419 
Q 422 4038 858 4394 
Q 1294 4750 2059 4750 
Q 2388 4750 2728 4690 
Q 3069 4631 3425 4513 
z
" id="DejaVuSans-53" transform="scale(0.015625)"/>
     </defs>
     <use xlink:href="#DejaVuSans-56"/>
     <use x="68.408203" xlink:href="#DejaVuSans-46"/>
     <use x="125.927734" xlink:href="#DejaVuSans-55"/>
     <use x="199.121094" xlink:href="#DejaVuSans-4e"/>
     <use x="273.925781" xlink:href="#DejaVuSans-44"/>
     <use x="350.927734" xlink:href="#DejaVuSans-53"/>
    </g>
    <!-- daily_report -->
    <g transform="translate(200.466563 35.472)scale(0.12 -0.12)">
     <defs>
      <path d="M 603 3500 
L 1178 3500 
L 1178 0 
L 603 0 
L 603 3500 
z
M 603 4863 
L 1178 4863 
L 1178 4134 
L 603 4134 
L 603 4863 
z
" id="DejaVuSans-69" transform="scale(0.015625)"/>
      <path d="M 603 4863 
L 1178 4863 
L 1178 0 
L 603 0 
L 603 4863 
z
" id="DejaVuSans-6c" transform="scale(0.015625)"/>
      <path d="M 2059 -325 
Q 1816 -950 1584 -1140 
Q 1353 -1331 966 -1331 
L 506 -1331 
L 506 -850 
L 844 -850 
Q 1081 -850 1212 -737 
Q 1344 -625 1503 -206 
L 1606 56 
L 191 3500 
L 800 3500 
L 1894 763 
L 2988 3500 
L 3597 3500 
L 2059 -325 
z
" id="DejaVuSans-79" transform="scale(0.015625)"/>
      <path d="M 3263 -1063 
L 3263 -1509 
L -63 -1509 
L -63 -1063 
L 3263 -1063 
z
" id="DejaVuSans-5f" transform="scale(0.015625)"/>
      <path d="M 2631 2963 
Q 2534 3019 2420 3045 
Q 2306 3072 2169 3072 
Q 1681 3072 1420 2755 
Q 1159 2438 1159 1844 
L 1159 0 
L 581 0 
L 581 3500 
L 1159 3500 
L 1159 2956 
Q 1341 3275 1631 3429 
Q 1922 3584 2338 3584 
Q 2397 3584 2469 3576 
Q 2541 3569 2628 3553 
L 2631 2963 
z
" id="DejaVuSans-72" transform="scale(0.015625)"/>
      <path d="M 1159 525 
L 1159 -1331 
L 581 -1331 
L 581 3500 
L 1159 3500 
L 1159 2969 
Q 1341 3281 1617 3432 
Q 1894 3584 2278 3584 
Q 2916 3584 3314 3078 
Q 3713 2572 3713 1747 
Q 3713 922 3314 415 
Q 2916 -91 2278 -91 
Q 1894 -91 1617 61 
Q 1341 213 1159 525 
z
M 3116 1747 
Q 3116 2381 2855 2742 
Q 2594 3103 2138 3103 
Q 1681 3103 1420 2742 
Q 1159 2381 1159 1747 
Q 1159 1113 1420 752 
Q 1681 391 2138 391 
Q 2594 391 2855 752 
Q 3116 1113 3116 1747 
z
" id="DejaVuSans-70" transform="scale(0.015625)"/>
      <path d="M 1959 3097 
Q 1497 3097 1228 2736 
Q 959 2375 959 1747 
Q 959 1119 1226 758 
Q 1494 397 1959 397 
Q 2419 397 2687 759 
Q 2956 1122 2956 1747 
Q 2956 2369 2687 2733 
Q 2419 3097 1959 3097 
z
M 1959 3584 
Q 2709 3584 3137 3096 
Q 3566 2609 3566 1747 
Q 3566 888 3137 398 
Q 2709 -91 1959 -91 
Q 1206 -91 779 398 
Q 353 888 353 1747 
Q 353 2609 779 3096 
Q 1206 3584 1959 3584 
z
" id="DejaVuSans-6f" transform="scale(0.015625)"/>
     </defs>
     <use xlink:href="#DejaVuSans-64"/>
     <use x="63.476562" xlink:href="#DejaVuSans-61"/>
     <use x="124.755859" xlink:href="#DejaVuSans-69"/>
     <use x="152.539062" xlink:href="#DejaVuSans-6c"/>
     <use x="180.322266" xlink:href="#DejaVuSans-79"/>
     <use x="239.501953" xlink:href="#DejaVuSans-5f"/>
     <use x="289.501953" xlink:href="#DejaVuSans-72"/>
     <use x="328.365234" xlink:href="#DejaVuSans-65"/>
     <use x="389.888672" xlink:href="#DejaVuSans-70"/>
     <use x="453.365234" xlink:href="#DejaVuSans-6f"/>
     <use x="514.546875" xlink:href="#DejaVuSans-72"/>
     <use x="555.660156" xlink:href="#DejaVuSans-74"/>
    </g>
   </g>
   <g id="legend_1">
    <g id="patch_7">
     <path d="M 64.6 271.48 
L 178.64375 271.48 
Q 180.64375 271.48 180.64375 269.48 
L 180.64375 182.41125 
Q 180.64375 180.41125 178.64375 180.41125 
L 64.6 180.41125 
Q 62.6 180.41125 62.6 182.41125 
L 62.6 269.48 
Q 62.6 271.48 64.6 271.48 
z
" style="fill:#ffffff;opacity:0.8;stroke:#cccccc;stroke-linejoin:miter;"/>
    </g>
    <g id="line2d_22">
     <path d="M 66.6 188.509687 
L 86.6 188.509687 
" style="fill:none;stroke:#0000ff;stroke-linecap:square;stroke-opacity:0.9;stroke-width:2;"/>
    </g>
    <g id="line2d_23"/>
    <g id="text_18">
     <!-- alpaca -->
     <g transform="translate(94.6 192.009687)scale(0.1 -0.1)">
      <defs>
       <path d="M 3122 3366 
L 3122 2828 
Q 2878 2963 2633 3030 
Q 2388 3097 2138 3097 
Q 1578 3097 1268 2742 
Q 959 2388 959 1747 
Q 959 1106 1268 751 
Q 1578 397 2138 397 
Q 2388 397 2633 464 
Q 2878 531 3122 666 
L 3122 134 
Q 2881 22 2623 -34 
Q 2366 -91 2075 -91 
Q 1284 -91 818 406 
Q 353 903 353 1747 
Q 353 2603 823 3093 
Q 1294 3584 2113 3584 
Q 2378 3584 2631 3529 
Q 2884 3475 3122 3366 
z
" id="DejaVuSans-63" transform="scale(0.015625)"/>
      </defs>
      <use xlink:href="#DejaVuSans-61"/>
      <use x="61.279297" xlink:href="#DejaVuSans-6c"/>
      <use x="89.0625" xlink:href="#DejaVuSans-70"/>
      <use x="152.539062" xlink:href="#DejaVuSans-61"/>
      <use x="213.818359" xlink:href="#DejaVuSans-63"/>
      <use x="268.798828" xlink:href="#DejaVuSans-61"/>
     </g>
    </g>
    <g id="line2d_24">
     <path d="M 66.6 203.187812 
L 86.6 203.187812 
" style="fill:none;stroke:#ff0000;stroke-linecap:square;stroke-opacity:0.9;stroke-width:2;"/>
    </g>
    <g id="line2d_25"/>
    <g id="text_19">
     <!-- mattress -->
     <g transform="translate(94.6 206.687812)scale(0.1 -0.1)">
      <defs>
       <path d="M 3328 2828 
Q 3544 3216 3844 3400 
Q 4144 3584 4550 3584 
Q 5097 3584 5394 3201 
Q 5691 2819 5691 2113 
L 5691 0 
L 5113 0 
L 5113 2094 
Q 5113 2597 4934 2840 
Q 4756 3084 4391 3084 
Q 3944 3084 3684 2787 
Q 3425 2491 3425 1978 
L 3425 0 
L 2847 0 
L 2847 2094 
Q 2847 2600 2669 2842 
Q 2491 3084 2119 3084 
Q 1678 3084 1418 2786 
Q 1159 2488 1159 1978 
L 1159 0 
L 581 0 
L 581 3500 
L 1159 3500 
L 1159 2956 
Q 1356 3278 1631 3431 
Q 1906 3584 2284 3584 
Q 2666 3584 2933 3390 
Q 3200 3197 3328 2828 
z
" id="DejaVuSans-6d" transform="scale(0.015625)"/>
       <path d="M 2834 3397 
L 2834 2853 
Q 2591 2978 2328 3040 
Q 2066 3103 1784 3103 
Q 1356 3103 1142 2972 
Q 928 2841 928 2578 
Q 928 2378 1081 2264 
Q 1234 2150 1697 2047 
L 1894 2003 
Q 2506 1872 2764 1633 
Q 3022 1394 3022 966 
Q 3022 478 2636 193 
Q 2250 -91 1575 -91 
Q 1294 -91 989 -36 
Q 684 19 347 128 
L 347 722 
Q 666 556 975 473 
Q 1284 391 1588 391 
Q 1994 391 2212 530 
Q 2431 669 2431 922 
Q 2431 1156 2273 1281 
Q 2116 1406 1581 1522 
L 1381 1569 
Q 847 1681 609 1914 
Q 372 2147 372 2553 
Q 372 3047 722 3315 
Q 1072 3584 1716 3584 
Q 2034 3584 2315 3537 
Q 2597 3491 2834 3397 
z
" id="DejaVuSans-73" transform="scale(0.015625)"/>
      </defs>
      <use xlink:href="#DejaVuSans-6d"/>
      <use x="97.412109" xlink:href="#DejaVuSans-61"/>
      <use x="158.691406" xlink:href="#DejaVuSans-74"/>
      <use x="197.900391" xlink:href="#DejaVuSans-74"/>
      <use x="237.109375" xlink:href="#DejaVuSans-72"/>
      <use x="275.972656" xlink:href="#DejaVuSans-65"/>
      <use x="337.496094" xlink:href="#DejaVuSans-73"/>
      <use x="389.595703" xlink:href="#DejaVuSans-73"/>
     </g>
    </g>
    <g id="line2d_26">
     <path d="M 66.6 217.865937 
L 86.6 217.865937 
" style="fill:none;stroke:#008000;stroke-linecap:square;stroke-opacity:0.9;stroke-width:2;"/>
    </g>
    <g id="line2d_27"/>
    <g id="text_20">
     <!-- daily-open-rebal -->
     <g transform="translate(94.6 221.365937)scale(0.1 -0.1)">
      <defs>
       <path d="M 3513 2113 
L 3513 0 
L 2938 0 
L 2938 2094 
Q 2938 2591 2744 2837 
Q 2550 3084 2163 3084 
Q 1697 3084 1428 2787 
Q 1159 2491 1159 1978 
L 1159 0 
L 581 0 
L 581 3500 
L 1159 3500 
L 1159 2956 
Q 1366 3272 1645 3428 
Q 1925 3584 2291 3584 
Q 2894 3584 3203 3211 
Q 3513 2838 3513 2113 
z
" id="DejaVuSans-6e" transform="scale(0.015625)"/>
       <path d="M 3116 1747 
Q 3116 2381 2855 2742 
Q 2594 3103 2138 3103 
Q 1681 3103 1420 2742 
Q 1159 2381 1159 1747 
Q 1159 1113 1420 752 
Q 1681 391 2138 391 
Q 2594 391 2855 752 
Q 3116 1113 3116 1747 
z
M 1159 2969 
Q 1341 3281 1617 3432 
Q 1894 3584 2278 3584 
Q 2916 3584 3314 3078 
Q 3713 2572 3713 1747 
Q 3713 922 3314 415 
Q 2916 -91 2278 -91 
Q 1894 -91 1617 61 
Q 1341 213 1159 525 
L 1159 0 
L 581 0 
L 581 4863 
L 1159 4863 
L 1159 2969 
z
" id="DejaVuSans-62" transform="scale(0.015625)"/>
      </defs>
      <use xlink:href="#DejaVuSans-64"/>
      <use x="63.476562" xlink:href="#DejaVuSans-61"/>
      <use x="124.755859" xlink:href="#DejaVuSans-69"/>
      <use x="152.539062" xlink:href="#DejaVuSans-6c"/>
      <use x="180.322266" xlink:href="#DejaVuSans-79"/>
      <use x="237.751953" xlink:href="#DejaVuSans-2d"/>
      <use x="275.710938" xlink:href="#DejaVuSans-6f"/>
      <use x="336.892578" xlink:href="#DejaVuSans-70"/>
      <use x="400.369141" xlink:href="#DejaVuSans-65"/>
      <use x="461.892578" xlink:href="#DejaVuSans-6e"/>
      <use x="525.271484" xlink:href="#DejaVuSans-2d"/>
      <use x="561.355469" xlink:href="#DejaVuSans-72"/>
      <use x="600.21875" xlink:href="#DejaVuSans-65"/>
      <use x="661.742188" xlink:href="#DejaVuSans-62"/>
      <use x="725.21875" xlink:href="#DejaVuSans-61"/>
      <use x="786.498047" xlink:href="#DejaVuSans-6c"/>
     </g>
    </g>
    <g id="line2d_28">
     <path d="M 66.6 232.544062 
L 86.6 232.544062 
" style="fill:none;stroke:#ec5283;stroke-linecap:square;stroke-width:2;"/>
    </g>
    <g id="line2d_29"/>
    <g id="text_21">
     <!-- daily-close-rebal -->
     <g transform="translate(94.6 236.044062)scale(0.1 -0.1)">
      <use xlink:href="#DejaVuSans-64"/>
      <use x="63.476562" xlink:href="#DejaVuSans-61"/>
      <use x="124.755859" xlink:href="#DejaVuSans-69"/>
      <use x="152.539062" xlink:href="#DejaVuSans-6c"/>
      <use x="180.322266" xlink:href="#DejaVuSans-79"/>
      <use x="237.751953" xlink:href="#DejaVuSans-2d"/>
      <use x="273.835938" xlink:href="#DejaVuSans-63"/>
      <use x="328.816406" xlink:href="#DejaVuSans-6c"/>
      <use x="356.599609" xlink:href="#DejaVuSans-6f"/>
      <use x="417.78125" xlink:href="#DejaVuSans-73"/>
      <use x="469.880859" xlink:href="#DejaVuSans-65"/>
      <use x="531.404297" xlink:href="#DejaVuSans-2d"/>
      <use x="567.488281" xlink:href="#DejaVuSans-72"/>
      <use x="606.351562" xlink:href="#DejaVuSans-65"/>
      <use x="667.875" xlink:href="#DejaVuSans-62"/>
      <use x="731.351562" xlink:href="#DejaVuSans-61"/>
      <use x="792.630859" xlink:href="#DejaVuSans-6c"/>
     </g>
    </g>
    <g id="line2d_30">
     <path d="M 66.6 247.222187 
L 86.6 247.222187 
" style="fill:none;stroke:#00ff00;stroke-linecap:square;stroke-opacity:0.9;stroke-width:2;"/>
    </g>
    <g id="line2d_31"/>
    <g id="text_22">
     <!-- trader-baseline -->
     <g transform="translate(94.6 250.722187)scale(0.1 -0.1)">
      <use xlink:href="#DejaVuSans-74"/>
      <use x="39.208984" xlink:href="#DejaVuSans-72"/>
      <use x="80.322266" xlink:href="#DejaVuSans-61"/>
      <use x="141.601562" xlink:href="#DejaVuSans-64"/>
      <use x="205.078125" xlink:href="#DejaVuSans-65"/>
      <use x="266.601562" xlink:href="#DejaVuSans-72"/>
      <use x="301.339844" xlink:href="#DejaVuSans-2d"/>
      <use x="337.423828" xlink:href="#DejaVuSans-62"/>
      <use x="400.900391" xlink:href="#DejaVuSans-61"/>
      <use x="462.179688" xlink:href="#DejaVuSans-73"/>
      <use x="514.279297" xlink:href="#DejaVuSans-65"/>
      <use x="575.802734" xlink:href="#DejaVuSans-6c"/>
      <use x="603.585938" xlink:href="#DejaVuSans-69"/>
      <use x="631.369141" xlink:href="#DejaVuSans-6e"/>
      <use x="694.748047" xlink:href="#DejaVuSans-65"/>
     </g>
    </g>
    <g id="line2d_32">
     <path d="M 66.6 261.900312 
L 86.6 261.900312 
" style="fill:none;stroke:#a5b9cf;stroke-linecap:square;stroke-width:2;"/>
    </g>
    <g id="line2d_33"/>
    <g id="text_23">
     <!-- default-cfg -->
     <g transform="translate(94.6 265.400312)scale(0.1 -0.1)">
      <defs>
       <path d="M 2375 4863 
L 2375 4384 
L 1825 4384 
Q 1516 4384 1395 4259 
Q 1275 4134 1275 3809 
L 1275 3500 
L 2222 3500 
L 2222 3053 
L 1275 3053 
L 1275 0 
L 697 0 
L 697 3053 
L 147 3053 
L 147 3500 
L 697 3500 
L 697 3744 
Q 697 4328 969 4595 
Q 1241 4863 1831 4863 
L 2375 4863 
z
" id="DejaVuSans-66" transform="scale(0.015625)"/>
       <path d="M 544 1381 
L 544 3500 
L 1119 3500 
L 1119 1403 
Q 1119 906 1312 657 
Q 1506 409 1894 409 
Q 2359 409 2629 706 
Q 2900 1003 2900 1516 
L 2900 3500 
L 3475 3500 
L 3475 0 
L 2900 0 
L 2900 538 
Q 2691 219 2414 64 
Q 2138 -91 1772 -91 
Q 1169 -91 856 284 
Q 544 659 544 1381 
z
M 1991 3584 
L 1991 3584 
z
" id="DejaVuSans-75" transform="scale(0.015625)"/>
       <path d="M 2906 1791 
Q 2906 2416 2648 2759 
Q 2391 3103 1925 3103 
Q 1463 3103 1205 2759 
Q 947 2416 947 1791 
Q 947 1169 1205 825 
Q 1463 481 1925 481 
Q 2391 481 2648 825 
Q 2906 1169 2906 1791 
z
M 3481 434 
Q 3481 -459 3084 -895 
Q 2688 -1331 1869 -1331 
Q 1566 -1331 1297 -1286 
Q 1028 -1241 775 -1147 
L 775 -588 
Q 1028 -725 1275 -790 
Q 1522 -856 1778 -856 
Q 2344 -856 2625 -561 
Q 2906 -266 2906 331 
L 2906 616 
Q 2728 306 2450 153 
Q 2172 0 1784 0 
Q 1141 0 747 490 
Q 353 981 353 1791 
Q 353 2603 747 3093 
Q 1141 3584 1784 3584 
Q 2172 3584 2450 3431 
Q 2728 3278 2906 2969 
L 2906 3500 
L 3481 3500 
L 3481 434 
z
" id="DejaVuSans-67" transform="scale(0.015625)"/>
      </defs>
      <use xlink:href="#DejaVuSans-64"/>
      <use x="63.476562" xlink:href="#DejaVuSans-65"/>
      <use x="125" xlink:href="#DejaVuSans-66"/>
      <use x="160.205078" xlink:href="#DejaVuSans-61"/>
      <use x="221.484375" xlink:href="#DejaVuSans-75"/>
      <use x="284.863281" xlink:href="#DejaVuSans-6c"/>
      <use x="312.646484" xlink:href="#DejaVuSans-74"/>
      <use x="351.855469" xlink:href="#DejaVuSans-2d"/>
      <use x="387.939453" xlink:href="#DejaVuSans-63"/>
      <use x="442.919922" xlink:href="#DejaVuSans-66"/>
      <use x="478.125" xlink:href="#DejaVuSans-67"/>
     </g>
    </g>
   </g>
  </g>
 </g>
 <defs>
  <clipPath id="p2fd4040ce4">
   <rect height="235.008" width="357.12" x="57.6" y="41.472"/>
  </clipPath>
 </defs>
</svg>
