<?xml version="1.0" encoding="utf-8" standalone="no"?>
<!DOCTYPE svg PUBLIC "-//W3C//DTD SVG 1.1//EN"
  "http://www.w3.org/Graphics/SVG/1.1/DTD/svg11.dtd">
<svg height="345.6pt" version="1.1" viewBox="0 0 460.8 345.6" width="460.8pt" xmlns="http://www.w3.org/2000/svg" xmlns:xlink="http://www.w3.org/1999/xlink">
 <metadata>
  <rdf:RDF xmlns:cc="http://creativecommons.org/ns#" xmlns:dc="http://purl.org/dc/elements/1.1/" xmlns:rdf="http://www.w3.org/1999/02/22-rdf-syntax-ns#">
   <cc:Work>
    <dc:type rdf:resource="http://purl.org/dc/dcmitype/StillImage"/>
    <dc:date>2022-02-11T01:01:25.304987</dc:date>
    <dc:format>image/svg+xml</dc:format>
    <dc:creator>
     <cc:Agent>
      <dc:title>Matplotlib v3.4.3, https://matplotlib.org/</dc:title>
     </cc:Agent>
    </dc:creator>
   </cc:Work>
  </rdf:RDF>
 </metadata>
 <defs>
  <style type="text/css">*{stroke-linecap:butt;stroke-linejoin:round;}</style>
 </defs>
 <g id="figure_1">
  <g id="patch_1">
   <path d="M 0 345.6 
L 460.8 345.6 
L 460.8 0 
L 0 0 
z
" style="fill:#ffffff;"/>
  </g>
  <g id="axes_1">
   <g id="patch_2">
    <path d="M 57.6 276.48 
L 414.72 276.48 
L 414.72 41.472 
L 57.6 41.472 
z
" style="fill:#ffffff;"/>
   </g>
   <g id="matplotlib.axis_1">
    <g id="xtick_1">
     <g id="line2d_1">
      <defs>
       <path d="M 0 0 
L 0 3.5 
" id="m4aa5de78cc" style="stroke:#000000;stroke-width:0.8;"/>
      </defs>
      <g>
       <use style="stroke:#000000;stroke-width:0.8;" x="90.919809" xlink:href="#m4aa5de78cc" y="276.48"/>
      </g>
     </g>
     <g id="text_1">
      <!-- 2021-09 -->
      <g transform="translate(53.694988 310.951846)rotate(-30)scale(0.1 -0.1)">
       <defs>
        <path d="M 1228 531 
L 3431 531 
L 3431 0 
L 469 0 
L 469 531 
Q 828 903 1448 1529 
Q 2069 2156 2228 2338 
Q 2531 2678 2651 2914 
Q 2772 3150 2772 3378 
Q 2772 3750 2511 3984 
Q 2250 4219 1831 4219 
Q 1534 4219 1204 4116 
Q 875 4013 500 3803 
L 500 4441 
Q 881 4594 1212 4672 
Q 1544 4750 1819 4750 
Q 2544 4750 2975 4387 
Q 3406 4025 3406 3419 
Q 3406 3131 3298 2873 
Q 3191 2616 2906 2266 
Q 2828 2175 2409 1742 
Q 1991 1309 1228 531 
z
" id="DejaVuSans-32" transform="scale(0.015625)"/>
        <path d="M 2034 4250 
Q 1547 4250 1301 3770 
Q 1056 3291 1056 2328 
Q 1056 1369 1301 889 
Q 1547 409 2034 409 
Q 2525 409 2770 889 
Q 3016 1369 3016 2328 
Q 3016 3291 2770 3770 
Q 2525 4250 2034 4250 
z
M 2034 4750 
Q 2819 4750 3233 4129 
Q 3647 3509 3647 2328 
Q 3647 1150 3233 529 
Q 2819 -91 2034 -91 
Q 1250 -91 836 529 
Q 422 1150 422 2328 
Q 422 3509 836 4129 
Q 1250 4750 2034 4750 
z
" id="DejaVuSans-30" transform="scale(0.015625)"/>
        <path d="M 794 531 
L 1825 531 
L 1825 4091 
L 703 3866 
L 703 4441 
L 1819 4666 
L 2450 4666 
L 2450 531 
L 3481 531 
L 3481 0 
L 794 0 
L 794 531 
z
" id="DejaVuSans-31" transform="scale(0.015625)"/>
        <path d="M 313 2009 
L 1997 2009 
L 1997 1497 
L 313 1497 
L 313 2009 
z
" id="DejaVuSans-2d" transform="scale(0.015625)"/>
        <path d="M 703 97 
L 703 672 
Q 941 559 1184 500 
Q 1428 441 1663 441 
Q 2288 441 2617 861 
Q 2947 1281 2994 2138 
Q 2813 1869 2534 1725 
Q 2256 1581 1919 1581 
Q 1219 1581 811 2004 
Q 403 2428 403 3163 
Q 403 3881 828 4315 
Q 1253 4750 1959 4750 
Q 2769 4750 3195 4129 
Q 3622 3509 3622 2328 
Q 3622 1225 3098 567 
Q 2575 -91 1691 -91 
Q 1453 -91 1209 -44 
Q 966 3 703 97 
z
M 1959 2075 
Q 2384 2075 2632 2365 
Q 2881 2656 2881 3163 
Q 2881 3666 2632 3958 
Q 2384 4250 1959 4250 
Q 1534 4250 1286 3958 
Q 1038 3666 1038 3163 
Q 1038 2656 1286 2365 
Q 1534 2075 1959 2075 
z
" id="DejaVuSans-39" transform="scale(0.015625)"/>
       </defs>
       <use xlink:href="#DejaVuSans-32"/>
       <use x="63.623047" xlink:href="#DejaVuSans-30"/>
       <use x="127.246094" xlink:href="#DejaVuSans-32"/>
       <use x="190.869141" xlink:href="#DejaVuSans-31"/>
       <use x="254.492188" xlink:href="#DejaVuSans-2d"/>
       <use x="290.576172" xlink:href="#DejaVuSans-30"/>
       <use x="354.199219" xlink:href="#DejaVuSans-39"/>
      </g>
     </g>
    </g>
    <g id="xtick_2">
     <g id="line2d_2">
      <g>
       <use style="stroke:#000000;stroke-width:0.8;" x="147.876746" xlink:href="#m4aa5de78cc" y="276.48"/>
      </g>
     </g>
     <g id="text_2">
      <!-- 2021-10 -->
      <g transform="translate(110.651926 310.951846)rotate(-30)scale(0.1 -0.1)">
       <use xlink:href="#DejaVuSans-32"/>
       <use x="63.623047" xlink:href="#DejaVuSans-30"/>
       <use x="127.246094" xlink:href="#DejaVuSans-32"/>
       <use x="190.869141" xlink:href="#DejaVuSans-31"/>
       <use x="254.492188" xlink:href="#DejaVuSans-2d"/>
       <use x="290.576172" xlink:href="#DejaVuSans-31"/>
       <use x="354.199219" xlink:href="#DejaVuSans-30"/>
      </g>
     </g>
    </g>
    <g id="xtick_3">
     <g id="line2d_3">
      <g>
       <use style="stroke:#000000;stroke-width:0.8;" x="206.732249" xlink:href="#m4aa5de78cc" y="276.48"/>
      </g>
     </g>
     <g id="text_3">
      <!-- 2021-11 -->
      <g transform="translate(169.507428 310.951846)rotate(-30)scale(0.1 -0.1)">
       <use xlink:href="#DejaVuSans-32"/>
       <use x="63.623047" xlink:href="#DejaVuSans-30"/>
       <use x="127.246094" xlink:href="#DejaVuSans-32"/>
       <use x="190.869141" xlink:href="#DejaVuSans-31"/>
       <use x="254.492188" xlink:href="#DejaVuSans-2d"/>
       <use x="290.576172" xlink:href="#DejaVuSans-31"/>
       <use x="354.199219" xlink:href="#DejaVuSans-31"/>
      </g>
     </g>
    </g>
    <g id="xtick_4">
     <g id="line2d_4">
      <g>
       <use style="stroke:#000000;stroke-width:0.8;" x="263.689187" xlink:href="#m4aa5de78cc" y="276.48"/>
      </g>
     </g>
     <g id="text_4">
      <!-- 2021-12 -->
      <g transform="translate(226.464366 310.951846)rotate(-30)scale(0.1 -0.1)">
       <use xlink:href="#DejaVuSans-32"/>
       <use x="63.623047" xlink:href="#DejaVuSans-30"/>
       <use x="127.246094" xlink:href="#DejaVuSans-32"/>
       <use x="190.869141" xlink:href="#DejaVuSans-31"/>
       <use x="254.492188" xlink:href="#DejaVuSans-2d"/>
       <use x="290.576172" xlink:href="#DejaVuSans-31"/>
       <use x="354.199219" xlink:href="#DejaVuSans-32"/>
      </g>
     </g>
    </g>
    <g id="xtick_5">
     <g id="line2d_5">
      <g>
       <use style="stroke:#000000;stroke-width:0.8;" x="322.544689" xlink:href="#m4aa5de78cc" y="276.48"/>
      </g>
     </g>
     <g id="text_5">
      <!-- 2022-01 -->
      <g transform="translate(285.319868 310.951846)rotate(-30)scale(0.1 -0.1)">
       <use xlink:href="#DejaVuSans-32"/>
       <use x="63.623047" xlink:href="#DejaVuSans-30"/>
       <use x="127.246094" xlink:href="#DejaVuSans-32"/>
       <use x="190.869141" xlink:href="#DejaVuSans-32"/>
       <use x="254.492188" xlink:href="#DejaVuSans-2d"/>
       <use x="290.576172" xlink:href="#DejaVuSans-30"/>
       <use x="354.199219" xlink:href="#DejaVuSans-31"/>
      </g>
     </g>
    </g>
    <g id="xtick_6">
     <g id="line2d_6">
      <g>
       <use style="stroke:#000000;stroke-width:0.8;" x="381.400191" xlink:href="#m4aa5de78cc" y="276.48"/>
      </g>
     </g>
     <g id="text_6">
      <!-- 2022-02 -->
      <g transform="translate(344.175371 310.951846)rotate(-30)scale(0.1 -0.1)">
       <use xlink:href="#DejaVuSans-32"/>
       <use x="63.623047" xlink:href="#DejaVuSans-30"/>
       <use x="127.246094" xlink:href="#DejaVuSans-32"/>
       <use x="190.869141" xlink:href="#DejaVuSans-32"/>
       <use x="254.492188" xlink:href="#DejaVuSans-2d"/>
       <use x="290.576172" xlink:href="#DejaVuSans-30"/>
       <use x="354.199219" xlink:href="#DejaVuSans-32"/>
      </g>
     </g>
    </g>
    <g id="text_7">
     <!-- date -->
     <g transform="translate(224.885 324.351346)scale(0.1 -0.1)">
      <defs>
       <path d="M 2906 2969 
L 2906 4863 
L 3481 4863 
L 3481 0 
L 2906 0 
L 2906 525 
Q 2725 213 2448 61 
Q 2172 -91 1784 -91 
Q 1150 -91 751 415 
Q 353 922 353 1747 
Q 353 2572 751 3078 
Q 1150 3584 1784 3584 
Q 2172 3584 2448 3432 
Q 2725 3281 2906 2969 
z
M 947 1747 
Q 947 1113 1208 752 
Q 1469 391 1925 391 
Q 2381 391 2643 752 
Q 2906 1113 2906 1747 
Q 2906 2381 2643 2742 
Q 2381 3103 1925 3103 
Q 1469 3103 1208 2742 
Q 947 2381 947 1747 
z
" id="DejaVuSans-64" transform="scale(0.015625)"/>
       <path d="M 2194 1759 
Q 1497 1759 1228 1600 
Q 959 1441 959 1056 
Q 959 750 1161 570 
Q 1363 391 1709 391 
Q 2188 391 2477 730 
Q 2766 1069 2766 1631 
L 2766 1759 
L 2194 1759 
z
M 3341 1997 
L 3341 0 
L 2766 0 
L 2766 531 
Q 2569 213 2275 61 
Q 1981 -91 1556 -91 
Q 1019 -91 701 211 
Q 384 513 384 1019 
Q 384 1609 779 1909 
Q 1175 2209 1959 2209 
L 2766 2209 
L 2766 2266 
Q 2766 2663 2505 2880 
Q 2244 3097 1772 3097 
Q 1472 3097 1187 3025 
Q 903 2953 641 2809 
L 641 3341 
Q 956 3463 1253 3523 
Q 1550 3584 1831 3584 
Q 2591 3584 2966 3190 
Q 3341 2797 3341 1997 
z
" id="DejaVuSans-61" transform="scale(0.015625)"/>
       <path d="M 1172 4494 
L 1172 3500 
L 2356 3500 
L 2356 3053 
L 1172 3053 
L 1172 1153 
Q 1172 725 1289 603 
Q 1406 481 1766 481 
L 2356 481 
L 2356 0 
L 1766 0 
Q 1100 0 847 248 
Q 594 497 594 1153 
L 594 3053 
L 172 3053 
L 172 3500 
L 594 3500 
L 594 4494 
L 1172 4494 
z
" id="DejaVuSans-74" transform="scale(0.015625)"/>
       <path d="M 3597 1894 
L 3597 1613 
L 953 1613 
Q 991 1019 1311 708 
Q 1631 397 2203 397 
Q 2534 397 2845 478 
Q 3156 559 3463 722 
L 3463 178 
Q 3153 47 2828 -22 
Q 2503 -91 2169 -91 
Q 1331 -91 842 396 
Q 353 884 353 1716 
Q 353 2575 817 3079 
Q 1281 3584 2069 3584 
Q 2775 3584 3186 3129 
Q 3597 2675 3597 1894 
z
M 3022 2063 
Q 3016 2534 2758 2815 
Q 2500 3097 2075 3097 
Q 1594 3097 1305 2825 
Q 1016 2553 972 2059 
L 3022 2063 
z
" id="DejaVuSans-65" transform="scale(0.015625)"/>
      </defs>
      <use xlink:href="#DejaVuSans-64"/>
      <use x="63.476562" xlink:href="#DejaVuSans-61"/>
      <use x="124.755859" xlink:href="#DejaVuSans-74"/>
      <use x="163.964844" xlink:href="#DejaVuSans-65"/>
     </g>
    </g>
   </g>
   <g id="matplotlib.axis_2">
    <g id="ytick_1">
     <g id="line2d_7">
      <defs>
       <path d="M 0 0 
L -3.5 0 
" id="mfaf9e5637b" style="stroke:#000000;stroke-width:0.8;"/>
      </defs>
      <g>
       <use style="stroke:#000000;stroke-width:0.8;" x="57.6" xlink:href="#mfaf9e5637b" y="239.823266"/>
      </g>
     </g>
     <g id="text_8">
      <!-- 95000 -->
      <g transform="translate(18.7875 243.622485)scale(0.1 -0.1)">
       <defs>
        <path d="M 691 4666 
L 3169 4666 
L 3169 4134 
L 1269 4134 
L 1269 2991 
Q 1406 3038 1543 3061 
Q 1681 3084 1819 3084 
Q 2600 3084 3056 2656 
Q 3513 2228 3513 1497 
Q 3513 744 3044 326 
Q 2575 -91 1722 -91 
Q 1428 -91 1123 -41 
Q 819 9 494 109 
L 494 744 
Q 775 591 1075 516 
Q 1375 441 1709 441 
Q 2250 441 2565 725 
Q 2881 1009 2881 1497 
Q 2881 1984 2565 2268 
Q 2250 2553 1709 2553 
Q 1456 2553 1204 2497 
Q 953 2441 691 2322 
L 691 4666 
z
" id="DejaVuSans-35" transform="scale(0.015625)"/>
       </defs>
       <use xlink:href="#DejaVuSans-39"/>
       <use x="63.623047" xlink:href="#DejaVuSans-35"/>
       <use x="127.246094" xlink:href="#DejaVuSans-30"/>
       <use x="190.869141" xlink:href="#DejaVuSans-30"/>
       <use x="254.492188" xlink:href="#DejaVuSans-30"/>
      </g>
     </g>
    </g>
    <g id="ytick_2">
     <g id="line2d_8">
      <g>
       <use style="stroke:#000000;stroke-width:0.8;" x="57.6" xlink:href="#mfaf9e5637b" y="199.153559"/>
      </g>
     </g>
     <g id="text_9">
      <!-- 100000 -->
      <g transform="translate(12.425 202.952778)scale(0.1 -0.1)">
       <use xlink:href="#DejaVuSans-31"/>
       <use x="63.623047" xlink:href="#DejaVuSans-30"/>
       <use x="127.246094" xlink:href="#DejaVuSans-30"/>
       <use x="190.869141" xlink:href="#DejaVuSans-30"/>
       <use x="254.492188" xlink:href="#DejaVuSans-30"/>
       <use x="318.115234" xlink:href="#DejaVuSans-30"/>
      </g>
     </g>
    </g>
    <g id="ytick_3">
     <g id="line2d_9">
      <g>
       <use style="stroke:#000000;stroke-width:0.8;" x="57.6" xlink:href="#mfaf9e5637b" y="158.483853"/>
      </g>
     </g>
     <g id="text_10">
      <!-- 105000 -->
      <g transform="translate(12.425 162.283072)scale(0.1 -0.1)">
       <use xlink:href="#DejaVuSans-31"/>
       <use x="63.623047" xlink:href="#DejaVuSans-30"/>
       <use x="127.246094" xlink:href="#DejaVuSans-35"/>
       <use x="190.869141" xlink:href="#DejaVuSans-30"/>
       <use x="254.492188" xlink:href="#DejaVuSans-30"/>
       <use x="318.115234" xlink:href="#DejaVuSans-30"/>
      </g>
     </g>
    </g>
    <g id="ytick_4">
     <g id="line2d_10">
      <g>
       <use style="stroke:#000000;stroke-width:0.8;" x="57.6" xlink:href="#mfaf9e5637b" y="117.814146"/>
      </g>
     </g>
     <g id="text_11">
      <!-- 110000 -->
      <g transform="translate(12.425 121.613365)scale(0.1 -0.1)">
       <use xlink:href="#DejaVuSans-31"/>
       <use x="63.623047" xlink:href="#DejaVuSans-31"/>
       <use x="127.246094" xlink:href="#DejaVuSans-30"/>
       <use x="190.869141" xlink:href="#DejaVuSans-30"/>
       <use x="254.492188" xlink:href="#DejaVuSans-30"/>
       <use x="318.115234" xlink:href="#DejaVuSans-30"/>
      </g>
     </g>
    </g>
    <g id="ytick_5">
     <g id="line2d_11">
      <g>
       <use style="stroke:#000000;stroke-width:0.8;" x="57.6" xlink:href="#mfaf9e5637b" y="77.14444"/>
      </g>
     </g>
     <g id="text_12">
      <!-- 115000 -->
      <g transform="translate(12.425 80.943658)scale(0.1 -0.1)">
       <use xlink:href="#DejaVuSans-31"/>
       <use x="63.623047" xlink:href="#DejaVuSans-31"/>
       <use x="127.246094" xlink:href="#DejaVuSans-35"/>
       <use x="190.869141" xlink:href="#DejaVuSans-30"/>
       <use x="254.492188" xlink:href="#DejaVuSans-30"/>
       <use x="318.115234" xlink:href="#DejaVuSans-30"/>
      </g>
     </g>
    </g>
   </g>
   <g id="line2d_12">
    <path clip-path="url(#p113a1c28fa)" d="M 73.832727 199.153559 
L 75.731292 196.750366 
L 77.629856 193.358562 
L 79.528421 197.922419 
L 81.426986 190.194597 
L 87.122679 185.772256 
L 89.021244 183.818243 
L 90.919809 185.776935 
L 92.818373 185.271057 
L 94.716938 185.468302 
L 102.311196 185.61641 
L 104.209761 186.959662 
L 106.108325 189.435571 
L 108.00689 197.1394 
L 113.702584 190.867137 
L 115.601148 202.14228 
L 117.499713 196.577878 
L 119.398278 198.320134 
L 121.296842 206.086033 
L 126.992536 220.210228 
L 128.8911 221.260481 
L 130.789665 215.460693 
L 132.68823 203.104289 
L 134.586794 195.94205 
L 140.282488 190.141029 
L 142.181053 208.429341 
L 144.079617 206.096583 
L 145.978182 212.439057 
L 147.876746 200.729577 
L 153.57244 215.840422 
L 155.471005 203.337359 
L 157.369569 200.927775 
L 159.268134 200.785446 
L 161.166699 199.243215 
L 166.862392 199.004292 
L 168.760957 197.596458 
L 170.659522 208.363551 
L 172.558086 192.177335 
L 174.456651 191.259568 
L 180.152344 184.297028 
L 182.050909 175.94553 
L 183.949474 173.388801 
L 185.848038 188.124416 
L 187.746603 199.040716 
L 193.442297 198.274094 
L 195.340861 204.689913 
L 197.239426 208.186956 
L 199.13799 197.135886 
L 201.036555 208.238244 
L 206.732249 191.49515 
L 208.630813 191.093287 
L 210.529378 183.122279 
L 212.427943 192.812294 
L 214.326507 186.550359 
L 220.022201 186.440864 
L 221.920766 196.156903 
L 223.81933 196.612149 
L 225.717895 202.61622 
L 227.616459 196.402095 
L 233.312153 194.105239 
L 235.210718 194.05055 
L 237.109282 198.669839 
L 239.007847 200.75498 
L 240.906411 201.54252 
L 246.602105 196.411671 
L 248.50067 190.194891 
L 250.399234 190.683611 
L 254.196364 190.904864 
L 259.892057 198.266876 
L 261.790622 213.886911 
L 263.689187 225.108747 
L 265.587751 215.351562 
L 267.486316 220.280476 
L 273.18201 205.701494 
L 275.080574 191.814038 
L 276.979139 184.989387 
L 278.877703 184.816657 
L 280.776268 181.690844 
L 286.471962 190.055987 
L 288.370526 186.088085 
L 290.269091 181.923798 
L 292.167656 177.414152 
L 294.06622 186.460421 
L 299.761914 198.352442 
L 301.660478 178.874566 
L 303.559043 175.258791 
L 305.457608 167.472223 
L 313.051866 157.068033 
L 314.950431 157.538196 
L 316.848995 157.569722 
L 318.74756 158.987902 
L 320.646124 162.967783 
L 326.341818 149.649059 
L 328.240383 140.061813 
L 330.138947 162.21492 
L 332.037512 155.195959 
L 333.936077 152.751615 
L 339.63177 152.831185 
L 341.530335 145.501459 
L 343.4289 143.697822 
L 345.327464 154.232167 
L 347.226029 151.414678 
L 354.820287 169.606239 
L 356.718852 175.371849 
L 358.617416 185.165211 
L 360.515981 204.163946 
L 366.211675 202.949283 
L 368.110239 212.52884 
L 370.008804 212.911197 
L 371.907368 218.132066 
L 373.805933 197.384594 
L 379.501627 179.370939 
L 381.400191 172.351502 
L 383.298756 157.646654 
L 385.197321 211.589092 
L 387.095885 210.140848 
L 392.791579 223.457579 
L 394.690144 225.667631 
L 396.588708 208.201695 
L 398.487273 225.302867 
" style="fill:none;stroke:#0000ff;stroke-linecap:square;stroke-opacity:0.9;stroke-width:2;"/>
   </g>
   <g id="line2d_13">
    <path clip-path="url(#p113a1c28fa)" d="M 73.832727 199.153559 
L 75.731292 194.601119 
L 77.629856 190.754548 
L 79.528421 196.333165 
L 81.426986 186.008966 
L 87.122679 183.903962 
L 89.021244 182.241441 
L 90.919809 182.791248 
L 92.818373 183.885915 
L 94.716938 183.253802 
L 102.311196 182.151359 
L 104.209761 185.563676 
L 106.108325 186.477458 
L 108.00689 195.371305 
L 113.702584 189.411099 
L 115.601148 197.189715 
L 117.499713 193.32298 
L 119.398278 196.366232 
L 121.296842 205.972287 
L 126.992536 218.97878 
L 128.8911 219.320778 
L 130.789665 214.953001 
L 132.68823 204.316828 
L 134.586794 198.2528 
L 140.282488 193.057839 
L 142.181053 208.997786 
L 144.079617 208.500277 
L 145.978182 215.7609 
L 147.876746 204.214687 
L 153.57244 213.13439 
L 155.471005 201.843046 
L 157.369569 199.652033 
L 159.268134 197.24451 
L 161.166699 193.78178 
L 166.862392 198.539159 
L 168.760957 204.512761 
L 170.659522 206.868843 
L 172.558086 187.48056 
L 174.456651 181.658688 
L 180.152344 179.499111 
L 182.050909 172.291891 
L 183.949474 167.427812 
L 185.848038 178.815965 
L 187.746603 183.150245 
L 193.442297 185.285363 
L 195.340861 189.358313 
L 197.239426 194.274963 
L 199.13799 183.124947 
L 201.036555 181.146388 
L 206.732249 181.036131 
L 208.630813 177.786065 
L 210.529378 171.577236 
L 212.427943 172.878413 
L 214.326507 173.346918 
L 220.022201 172.550307 
L 221.920766 178.447557 
L 223.81933 183.276484 
L 225.717895 183.094935 
L 227.616459 177.054691 
L 233.312153 175.369131 
L 235.210718 177.68895 
L 237.109282 178.309782 
L 239.007847 177.98125 
L 240.906411 180.893392 
L 246.602105 177.643658 
L 248.50067 169.448364 
L 250.399234 169.258101 
L 254.196364 190.822911 
L 259.892057 181.336881 
L 261.790622 199.415897 
L 263.689187 208.733517 
L 265.587751 197.445507 
L 267.486316 204.135256 
L 273.18201 191.985478 
L 275.080574 177.760771 
L 276.979139 172.814459 
L 278.877703 173.717398 
L 280.776268 167.934451 
L 286.471962 176.50887 
L 288.370526 175.930883 
L 290.269091 170.056779 
L 292.167656 169.292527 
L 294.06622 180.301859 
L 299.761914 190.095154 
L 301.660478 173.967491 
L 303.559043 169.278634 
L 305.457608 162.233984 
L 313.051866 151.436839 
L 314.950431 151.467387 
L 316.848995 150.733151 
L 318.74756 152.200868 
L 320.646124 155.714056 
L 326.341818 146.475452 
L 328.240383 137.458805 
L 330.138947 156.717461 
L 332.037512 153.648121 
L 333.936077 148.865117 
L 339.63177 149.228506 
L 341.530335 144.164508 
L 343.4289 144.5743 
L 345.327464 150.585387 
L 347.226029 151.083855 
L 354.820287 169.997894 
L 356.718852 177.867831 
L 358.617416 186.5042 
L 360.515981 203.030607 
L 366.211675 204.2606 
L 368.110239 202.095878 
L 370.008804 204.044774 
L 371.907368 211.068746 
L 373.805933 191.106939 
L 379.501627 178.142076 
L 381.400191 168.653417 
L 383.298756 155.642259 
L 385.197321 193.642364 
L 387.095885 186.381837 
L 392.791579 191.741704 
L 394.690144 186.835347 
L 396.588708 179.344542 
L 398.487273 193.102368 
" style="fill:none;stroke:#ff0000;stroke-linecap:square;stroke-opacity:0.9;stroke-width:2;"/>
   </g>
   <g id="line2d_14">
    <path clip-path="url(#p113a1c28fa)" d="M 73.832727 199.153559 
L 75.731292 194.865995 
L 77.629856 191.987372 
L 79.528421 196.391676 
L 81.426986 188.544456 
L 87.122679 183.559772 
L 89.021244 181.402066 
L 90.919809 183.629985 
L 92.818373 182.727837 
L 94.716938 182.643163 
L 102.311196 183.459213 
L 104.209761 184.559838 
L 106.108325 187.061511 
L 108.00689 194.123498 
L 113.702584 187.368429 
L 115.601148 198.647519 
L 117.499713 193.124425 
L 119.398278 194.38811 
L 121.296842 201.765544 
L 126.992536 215.853358 
L 128.8911 217.06543 
L 130.789665 210.707184 
L 132.68823 198.912492 
L 134.586794 191.299252 
L 140.282488 185.473902 
L 142.181053 202.708113 
L 144.079617 200.850546 
L 145.978182 207.23956 
L 147.876746 194.718418 
L 153.57244 210.406278 
L 155.471005 197.969088 
L 157.369569 194.523024 
L 159.268134 193.058034 
L 161.166699 189.452807 
L 166.862392 194.099606 
L 168.760957 200.334414 
L 170.659522 202.031774 
L 172.558086 185.777541 
L 174.456651 185.116923 
L 180.152344 178.024412 
L 182.050909 169.776487 
L 183.949474 166.286427 
L 185.848038 181.676759 
L 187.746603 192.902068 
L 193.442297 191.586378 
L 195.340861 198.75312 
L 197.239426 201.564077 
L 199.13799 190.761843 
L 201.036555 188.823916 
L 206.732249 184.573671 
L 208.630813 182.962261 
L 210.529378 175.832626 
L 212.427943 175.377404 
L 214.326507 169.248005 
L 220.022201 168.428611 
L 221.920766 178.492638 
L 223.81933 184.820994 
L 225.717895 185.637888 
L 227.616459 178.54876 
L 233.312153 175.70385 
L 235.210718 180.233826 
L 237.109282 180.575385 
L 239.007847 183.117659 
L 240.906411 183.295755 
L 246.602105 177.853237 
L 248.50067 171.433443 
L 250.399234 172.302375 
L 254.196364 189.648676 
L 259.892057 179.410812 
L 261.790622 195.340535 
L 263.689187 207.345917 
L 265.587751 196.993907 
L 267.486316 202.255469 
L 273.18201 187.102959 
L 275.080574 172.416173 
L 276.979139 166.15316 
L 278.877703 165.706292 
L 280.776268 163.104655 
L 286.471962 171.234016 
L 288.370526 167.141996 
L 290.269091 162.146389 
L 292.167656 157.860598 
L 294.06622 167.642329 
L 299.761914 178.797095 
L 301.660478 159.17578 
L 303.559043 154.932391 
L 305.457608 147.491514 
L 313.051866 137.003125 
L 314.950431 136.719364 
L 316.848995 137.275932 
L 318.74756 138.070109 
L 320.646124 142.613747 
L 326.341818 128.768852 
L 328.240383 118.332761 
L 330.138947 141.848433 
L 332.037512 134.050271 
L 333.936077 131.712565 
L 339.63177 131.300889 
L 341.530335 123.880234 
L 343.4289 121.915055 
L 345.327464 132.738612 
L 347.226029 129.675304 
L 354.820287 148.595271 
L 356.718852 154.343011 
L 358.617416 163.652223 
L 360.515981 183.60323 
L 366.211675 182.066704 
L 368.110239 192.702022 
L 370.008804 191.798708 
L 371.907368 197.383381 
L 373.805933 176.547109 
L 379.501627 158.869032 
L 381.400191 150.391877 
L 383.298756 134.993548 
L 385.197321 190.229912 
L 387.095885 188.41444 
L 392.791579 202.504 
L 394.690144 204.509279 
L 396.588708 186.615864 
L 398.487273 201.871902 
" style="fill:none;stroke:#ff8040;stroke-linecap:square;stroke-opacity:0.9;stroke-width:2;"/>
   </g>
   <g id="line2d_15">
    <path clip-path="url(#p113a1c28fa)" d="M 73.832727 199.966954 
L 75.731292 198.518195 
L 77.629856 195.850924 
L 79.528421 202.227308 
L 81.426986 191.93518 
L 87.122679 193.611437 
L 89.021244 190.745639 
L 90.919809 194.515796 
L 92.818373 196.172342 
L 94.716938 196.307741 
L 102.311196 197.009859 
L 104.209761 199.529488 
L 106.108325 201.522146 
L 108.00689 210.754638 
L 113.702584 205.275236 
L 115.601148 213.058532 
L 117.499713 207.775224 
L 119.398278 210.228214 
L 121.296842 220.918862 
L 126.992536 234.450021 
L 128.8911 235.596313 
L 130.789665 230.06658 
L 132.68823 222.649705 
L 134.586794 215.488769 
L 140.282488 210.702289 
L 142.181053 228.025956 
L 144.079617 228.450509 
L 145.978182 236.114173 
L 147.876746 227.222377 
L 153.57244 241.772871 
L 155.471005 228.134867 
L 157.369569 226.267488 
L 159.268134 222.798302 
L 161.166699 219.209605 
L 166.862392 222.928615 
L 168.760957 230.188488 
L 170.659522 231.971725 
L 172.558086 211.521669 
L 174.456651 206.170756 
L 180.152344 209.145936 
L 182.050909 203.419638 
L 183.949474 198.23501 
L 185.848038 213.875388 
L 187.746603 217.496921 
L 193.442297 219.7705 
L 195.340861 226.869295 
L 197.239426 229.844943 
L 199.13799 220.458193 
L 201.036555 217.7185 
L 206.732249 219.529747 
L 208.630813 219.264239 
L 210.529378 211.935381 
L 212.427943 213.938096 
L 214.326507 209.342952 
L 220.022201 209.33078 
L 221.920766 215.744778 
L 223.81933 221.466563 
L 225.717895 220.653919 
L 227.616459 214.426176 
L 233.312153 211.265509 
L 235.210718 211.872476 
L 237.109282 215.485516 
L 239.007847 215.989379 
L 240.906411 221.541126 
L 246.602105 217.975499 
L 248.50067 208.724967 
L 250.399234 211.182347 
L 254.196364 232.032279 
L 259.892057 224.705719 
L 261.790622 246.589641 
L 263.689187 256.746289 
L 265.587751 249.254288 
L 267.486316 255.526869 
L 273.18201 239.055675 
L 275.080574 224.845871 
L 276.979139 219.219601 
L 278.877703 220.851986 
L 280.776268 213.247209 
L 286.471962 223.406891 
L 288.370526 224.30212 
L 290.269091 217.420593 
L 292.167656 218.777044 
L 294.06622 225.615797 
L 299.761914 233.312346 
L 301.660478 216.51548 
L 303.559043 213.051544 
L 305.457608 207.175248 
L 313.051866 197.348329 
L 314.950431 196.660652 
L 316.848995 196.918092 
L 318.74756 198.172897 
L 320.646124 201.367342 
L 326.341818 196.455416 
L 328.240383 190.143864 
L 330.138947 214.542682 
L 332.037512 206.826976 
L 333.936077 204.841633 
L 339.63177 205.792192 
L 341.530335 199.663188 
L 343.4289 201.70456 
L 345.327464 204.55601 
L 347.226029 204.052281 
L 354.820287 220.945299 
L 356.718852 226.223997 
L 358.617416 234.962753 
L 360.515981 248.934975 
L 366.211675 248.504047 
L 368.110239 250.388059 
L 370.008804 252.860772 
L 371.907368 260.587732 
L 373.805933 248.667239 
L 379.501627 232.075317 
L 381.400191 220.15723 
L 383.298756 202.668213 
L 385.197321 261.954644 
L 387.095885 257.091959 
L 392.791579 263.592881 
L 394.690144 262.699725 
L 396.588708 254.093807 
L 398.487273 265.797818 
" style="fill:none;stroke:#0d0d0d;stroke-linecap:square;stroke-opacity:0.25;stroke-width:2;"/>
   </g>
   <g id="line2d_16">
    <path clip-path="url(#p113a1c28fa)" d="M 73.832727 198.340165 
L 75.731292 191.86044 
L 77.629856 186.522253 
L 79.528421 189.025349 
L 81.426986 178.353149 
L 87.122679 174.974045 
L 89.021244 173.384646 
L 90.919809 172.311618 
L 92.818373 173.505323 
L 94.716938 172.130658 
L 102.311196 166.993186 
L 104.209761 169.83814 
L 106.108325 172.628526 
L 108.00689 177.916428 
L 113.702584 172.521791 
L 115.601148 181.666027 
L 117.499713 176.398268 
L 119.398278 178.820455 
L 121.296842 188.0143 
L 126.992536 199.205229 
L 128.8911 199.607064 
L 130.789665 194.109895 
L 132.68823 182.10893 
L 134.586794 176.006901 
L 140.282488 169.28234 
L 142.181053 184.172407 
L 144.079617 185.635533 
L 145.978182 192.705152 
L 147.876746 180.94541 
L 153.57244 190.446621 
L 155.471005 181.514063 
L 157.369569 177.490185 
L 159.268134 170.353791 
L 161.166699 165.721511 
L 166.862392 172.012847 
L 168.760957 176.262478 
L 170.659522 178.776595 
L 172.558086 160.123556 
L 174.456651 154.571713 
L 180.152344 154.319225 
L 182.050909 146.365178 
L 183.949474 141.631705 
L 185.848038 145.561735 
L 187.746603 149.647956 
L 193.442297 152.630611 
L 195.340861 158.21361 
L 197.239426 153.948987 
L 199.13799 142.530673 
L 201.036555 140.203798 
L 206.732249 139.187186 
L 208.630813 135.965428 
L 210.529378 132.889007 
L 212.427943 129.488993 
L 214.326507 124.255178 
L 220.022201 123.324122 
L 221.920766 131.538523 
L 223.81933 138.279109 
L 225.717895 138.038939 
L 227.616459 135.080129 
L 233.312153 133.798984 
L 235.210718 132.613306 
L 237.109282 132.7694 
L 239.007847 130.042451 
L 240.906411 134.349901 
L 246.602105 128.71804 
L 248.50067 120.744673 
L 250.399234 121.566198 
L 254.196364 142.201059 
L 259.892057 133.21541 
L 261.790622 147.271161 
L 263.689187 160.602208 
L 265.587751 145.094885 
L 267.486316 154.743389 
L 273.18201 140.908325 
L 275.080574 123.322196 
L 276.979139 121.223037 
L 278.877703 121.160322 
L 280.776268 114.457744 
L 286.471962 120.375198 
L 288.370526 121.959019 
L 290.269091 115.569091 
L 292.167656 102.030953 
L 294.06622 113.080242 
L 299.761914 117.851964 
L 301.660478 96.540773 
L 303.559043 91.220875 
L 305.457608 85.241194 
L 313.051866 72.577772 
L 314.950431 72.975587 
L 316.848995 71.381474 
L 318.74756 72.245304 
L 320.646124 74.761431 
L 326.341818 67.093756 
L 328.240383 56.692648 
L 330.138947 73.979492 
L 332.037512 65.861316 
L 333.936077 60.585113 
L 339.63177 62.680473 
L 341.530335 56.653901 
L 343.4289 55.314969 
L 345.327464 59.87512 
L 347.226029 56.166699 
L 354.820287 76.945084 
L 356.718852 87.616047 
L 358.617416 97.019025 
L 360.515981 116.584446 
L 366.211675 116.428367 
L 368.110239 118.012829 
L 370.008804 120.534251 
L 371.907368 129.435613 
L 373.805933 103.274386 
L 379.501627 92.249009 
L 381.400191 79.820352 
L 383.298756 65.843122 
L 385.197321 83.141091 
L 387.095885 78.920726 
L 392.791579 79.149791 
L 394.690144 74.85113 
L 396.588708 52.154182 
L 398.487273 68.107521 
" style="fill:none;stroke:#0d0d0d;stroke-linecap:square;stroke-opacity:0.25;stroke-width:2;"/>
   </g>
   <g id="patch_3">
    <path d="M 57.6 276.48 
L 57.6 41.472 
" style="fill:none;stroke:#000000;stroke-linecap:square;stroke-linejoin:miter;stroke-width:0.8;"/>
   </g>
   <g id="patch_4">
    <path d="M 414.72 276.48 
L 414.72 41.472 
" style="fill:none;stroke:#000000;stroke-linecap:square;stroke-linejoin:miter;stroke-width:0.8;"/>
   </g>
   <g id="patch_5">
    <path d="M 57.6 276.48 
L 414.72 276.48 
" style="fill:none;stroke:#000000;stroke-linecap:square;stroke-linejoin:miter;stroke-width:0.8;"/>
   </g>
   <g id="patch_6">
    <path d="M 57.6 41.472 
L 414.72 41.472 
" style="fill:none;stroke:#000000;stroke-linecap:square;stroke-linejoin:miter;stroke-width:0.8;"/>
   </g>
   <g id="text_13">
    <!-- TESTFUNDS0830 -->
    <g transform="translate(185.200312 22.034625)scale(0.12 -0.12)">
     <defs>
      <path d="M -19 4666 
L 3928 4666 
L 3928 4134 
L 2272 4134 
L 2272 0 
L 1638 0 
L 1638 4134 
L -19 4134 
L -19 4666 
z
" id="DejaVuSans-54" transform="scale(0.015625)"/>
      <path d="M 628 4666 
L 3578 4666 
L 3578 4134 
L 1259 4134 
L 1259 2753 
L 3481 2753 
L 3481 2222 
L 1259 2222 
L 1259 531 
L 3634 531 
L 3634 0 
L 628 0 
L 628 4666 
z
" id="DejaVuSans-45" transform="scale(0.015625)"/>
      <path d="M 3425 4513 
L 3425 3897 
Q 3066 4069 2747 4153 
Q 2428 4238 2131 4238 
Q 1616 4238 1336 4038 
Q 1056 3838 1056 3469 
Q 1056 3159 1242 3001 
Q 1428 2844 1947 2747 
L 2328 2669 
Q 3034 2534 3370 2195 
Q 3706 1856 3706 1288 
Q 3706 609 3251 259 
Q 2797 -91 1919 -91 
Q 1588 -91 1214 -16 
Q 841 59 441 206 
L 441 856 
Q 825 641 1194 531 
Q 1563 422 1919 422 
Q 2459 422 2753 634 
Q 3047 847 3047 1241 
Q 3047 1584 2836 1778 
Q 2625 1972 2144 2069 
L 1759 2144 
Q 1053 2284 737 2584 
Q 422 2884 422 3419 
Q 422 4038 858 4394 
Q 1294 4750 2059 4750 
Q 2388 4750 2728 4690 
Q 3069 4631 3425 4513 
z
" id="DejaVuSans-53" transform="scale(0.015625)"/>
      <path d="M 628 4666 
L 3309 4666 
L 3309 4134 
L 1259 4134 
L 1259 2759 
L 3109 2759 
L 3109 2228 
L 1259 2228 
L 1259 0 
L 628 0 
L 628 4666 
z
" id="DejaVuSans-46" transform="scale(0.015625)"/>
      <path d="M 556 4666 
L 1191 4666 
L 1191 1831 
Q 1191 1081 1462 751 
Q 1734 422 2344 422 
Q 2950 422 3222 751 
Q 3494 1081 3494 1831 
L 3494 4666 
L 4128 4666 
L 4128 1753 
Q 4128 841 3676 375 
Q 3225 -91 2344 -91 
Q 1459 -91 1007 375 
Q 556 841 556 1753 
L 556 4666 
z
" id="DejaVuSans-55" transform="scale(0.015625)"/>
      <path d="M 628 4666 
L 1478 4666 
L 3547 763 
L 3547 4666 
L 4159 4666 
L 4159 0 
L 3309 0 
L 1241 3903 
L 1241 0 
L 628 0 
L 628 4666 
z
" id="DejaVuSans-4e" transform="scale(0.015625)"/>
      <path d="M 1259 4147 
L 1259 519 
L 2022 519 
Q 2988 519 3436 956 
Q 3884 1394 3884 2338 
Q 3884 3275 3436 3711 
Q 2988 4147 2022 4147 
L 1259 4147 
z
M 628 4666 
L 1925 4666 
Q 3281 4666 3915 4102 
Q 4550 3538 4550 2338 
Q 4550 1131 3912 565 
Q 3275 0 1925 0 
L 628 0 
L 628 4666 
z
" id="DejaVuSans-44" transform="scale(0.015625)"/>
      <path d="M 2034 2216 
Q 1584 2216 1326 1975 
Q 1069 1734 1069 1313 
Q 1069 891 1326 650 
Q 1584 409 2034 409 
Q 2484 409 2743 651 
Q 3003 894 3003 1313 
Q 3003 1734 2745 1975 
Q 2488 2216 2034 2216 
z
M 1403 2484 
Q 997 2584 770 2862 
Q 544 3141 544 3541 
Q 544 4100 942 4425 
Q 1341 4750 2034 4750 
Q 2731 4750 3128 4425 
Q 3525 4100 3525 3541 
Q 3525 3141 3298 2862 
Q 3072 2584 2669 2484 
Q 3125 2378 3379 2068 
Q 3634 1759 3634 1313 
Q 3634 634 3220 271 
Q 2806 -91 2034 -91 
Q 1263 -91 848 271 
Q 434 634 434 1313 
Q 434 1759 690 2068 
Q 947 2378 1403 2484 
z
M 1172 3481 
Q 1172 3119 1398 2916 
Q 1625 2713 2034 2713 
Q 2441 2713 2670 2916 
Q 2900 3119 2900 3481 
Q 2900 3844 2670 4047 
Q 2441 4250 2034 4250 
Q 1625 4250 1398 4047 
Q 1172 3844 1172 3481 
z
" id="DejaVuSans-38" transform="scale(0.015625)"/>
      <path d="M 2597 2516 
Q 3050 2419 3304 2112 
Q 3559 1806 3559 1356 
Q 3559 666 3084 287 
Q 2609 -91 1734 -91 
Q 1441 -91 1130 -33 
Q 819 25 488 141 
L 488 750 
Q 750 597 1062 519 
Q 1375 441 1716 441 
Q 2309 441 2620 675 
Q 2931 909 2931 1356 
Q 2931 1769 2642 2001 
Q 2353 2234 1838 2234 
L 1294 2234 
L 1294 2753 
L 1863 2753 
Q 2328 2753 2575 2939 
Q 2822 3125 2822 3475 
Q 2822 3834 2567 4026 
Q 2313 4219 1838 4219 
Q 1578 4219 1281 4162 
Q 984 4106 628 3988 
L 628 4550 
Q 988 4650 1302 4700 
Q 1616 4750 1894 4750 
Q 2613 4750 3031 4423 
Q 3450 4097 3450 3541 
Q 3450 3153 3228 2886 
Q 3006 2619 2597 2516 
z
" id="DejaVuSans-33" transform="scale(0.015625)"/>
     </defs>
     <use xlink:href="#DejaVuSans-54"/>
     <use x="61.083984" xlink:href="#DejaVuSans-45"/>
     <use x="124.267578" xlink:href="#DejaVuSans-53"/>
     <use x="187.744141" xlink:href="#DejaVuSans-54"/>
     <use x="248.828125" xlink:href="#DejaVuSans-46"/>
     <use x="306.347656" xlink:href="#DejaVuSans-55"/>
     <use x="379.541016" xlink:href="#DejaVuSans-4e"/>
     <use x="454.345703" xlink:href="#DejaVuSans-44"/>
     <use x="531.347656" xlink:href="#DejaVuSans-53"/>
     <use x="594.824219" xlink:href="#DejaVuSans-30"/>
     <use x="658.447266" xlink:href="#DejaVuSans-38"/>
     <use x="722.070312" xlink:href="#DejaVuSans-33"/>
     <use x="785.693359" xlink:href="#DejaVuSans-30"/>
    </g>
    <!-- daily_report -->
    <g transform="translate(200.466563 35.472)scale(0.12 -0.12)">
     <defs>
      <path d="M 603 3500 
L 1178 3500 
L 1178 0 
L 603 0 
L 603 3500 
z
M 603 4863 
L 1178 4863 
L 1178 4134 
L 603 4134 
L 603 4863 
z
" id="DejaVuSans-69" transform="scale(0.015625)"/>
      <path d="M 603 4863 
L 1178 4863 
L 1178 0 
L 603 0 
L 603 4863 
z
" id="DejaVuSans-6c" transform="scale(0.015625)"/>
      <path d="M 2059 -325 
Q 1816 -950 1584 -1140 
Q 1353 -1331 966 -1331 
L 506 -1331 
L 506 -850 
L 844 -850 
Q 1081 -850 1212 -737 
Q 1344 -625 1503 -206 
L 1606 56 
L 191 3500 
L 800 3500 
L 1894 763 
L 2988 3500 
L 3597 3500 
L 2059 -325 
z
" id="DejaVuSans-79" transform="scale(0.015625)"/>
      <path d="M 3263 -1063 
L 3263 -1509 
L -63 -1509 
L -63 -1063 
L 3263 -1063 
z
" id="DejaVuSans-5f" transform="scale(0.015625)"/>
      <path d="M 2631 2963 
Q 2534 3019 2420 3045 
Q 2306 3072 2169 3072 
Q 1681 3072 1420 2755 
Q 1159 2438 1159 1844 
L 1159 0 
L 581 0 
L 581 3500 
L 1159 3500 
L 1159 2956 
Q 1341 3275 1631 3429 
Q 1922 3584 2338 3584 
Q 2397 3584 2469 3576 
Q 2541 3569 2628 3553 
L 2631 2963 
z
" id="DejaVuSans-72" transform="scale(0.015625)"/>
      <path d="M 1159 525 
L 1159 -1331 
L 581 -1331 
L 581 3500 
L 1159 3500 
L 1159 2969 
Q 1341 3281 1617 3432 
Q 1894 3584 2278 3584 
Q 2916 3584 3314 3078 
Q 3713 2572 3713 1747 
Q 3713 922 3314 415 
Q 2916 -91 2278 -91 
Q 1894 -91 1617 61 
Q 1341 213 1159 525 
z
M 3116 1747 
Q 3116 2381 2855 2742 
Q 2594 3103 2138 3103 
Q 1681 3103 1420 2742 
Q 1159 2381 1159 1747 
Q 1159 1113 1420 752 
Q 1681 391 2138 391 
Q 2594 391 2855 752 
Q 3116 1113 3116 1747 
z
" id="DejaVuSans-70" transform="scale(0.015625)"/>
      <path d="M 1959 3097 
Q 1497 3097 1228 2736 
Q 959 2375 959 1747 
Q 959 1119 1226 758 
Q 1494 397 1959 397 
Q 2419 397 2687 759 
Q 2956 1122 2956 1747 
Q 2956 2369 2687 2733 
Q 2419 3097 1959 3097 
z
M 1959 3584 
Q 2709 3584 3137 3096 
Q 3566 2609 3566 1747 
Q 3566 888 3137 398 
Q 2709 -91 1959 -91 
Q 1206 -91 779 398 
Q 353 888 353 1747 
Q 353 2609 779 3096 
Q 1206 3584 1959 3584 
z
" id="DejaVuSans-6f" transform="scale(0.015625)"/>
     </defs>
     <use xlink:href="#DejaVuSans-64"/>
     <use x="63.476562" xlink:href="#DejaVuSans-61"/>
     <use x="124.755859" xlink:href="#DejaVuSans-69"/>
     <use x="152.539062" xlink:href="#DejaVuSans-6c"/>
     <use x="180.322266" xlink:href="#DejaVuSans-79"/>
     <use x="239.501953" xlink:href="#DejaVuSans-5f"/>
     <use x="289.501953" xlink:href="#DejaVuSans-72"/>
     <use x="328.365234" xlink:href="#DejaVuSans-65"/>
     <use x="389.888672" xlink:href="#DejaVuSans-70"/>
     <use x="453.365234" xlink:href="#DejaVuSans-6f"/>
     <use x="514.546875" xlink:href="#DejaVuSans-72"/>
     <use x="555.660156" xlink:href="#DejaVuSans-74"/>
    </g>
   </g>
   <g id="legend_1">
    <g id="patch_7">
     <path d="M 64.6 122.862625 
L 155.792188 122.862625 
Q 157.792188 122.862625 157.792188 120.862625 
L 157.792188 48.472 
Q 157.792188 46.472 155.792188 46.472 
L 64.6 46.472 
Q 62.6 46.472 62.6 48.472 
L 62.6 120.862625 
Q 62.6 122.862625 64.6 122.862625 
z
" style="fill:#ffffff;opacity:0.8;stroke:#cccccc;stroke-linejoin:miter;"/>
    </g>
    <g id="line2d_17">
     <path d="M 66.6 54.570437 
L 86.6 54.570437 
" style="fill:none;stroke:#0000ff;stroke-linecap:square;stroke-opacity:0.9;stroke-width:2;"/>
    </g>
    <g id="line2d_18"/>
    <g id="text_14">
     <!-- alpaca -->
     <g transform="translate(94.6 58.070437)scale(0.1 -0.1)">
      <defs>
       <path d="M 3122 3366 
L 3122 2828 
Q 2878 2963 2633 3030 
Q 2388 3097 2138 3097 
Q 1578 3097 1268 2742 
Q 959 2388 959 1747 
Q 959 1106 1268 751 
Q 1578 397 2138 397 
Q 2388 397 2633 464 
Q 2878 531 3122 666 
L 3122 134 
Q 2881 22 2623 -34 
Q 2366 -91 2075 -91 
Q 1284 -91 818 406 
Q 353 903 353 1747 
Q 353 2603 823 3093 
Q 1294 3584 2113 3584 
Q 2378 3584 2631 3529 
Q 2884 3475 3122 3366 
z
" id="DejaVuSans-63" transform="scale(0.015625)"/>
      </defs>
      <use xlink:href="#DejaVuSans-61"/>
      <use x="61.279297" xlink:href="#DejaVuSans-6c"/>
      <use x="89.0625" xlink:href="#DejaVuSans-70"/>
      <use x="152.539062" xlink:href="#DejaVuSans-61"/>
      <use x="213.818359" xlink:href="#DejaVuSans-63"/>
      <use x="268.798828" xlink:href="#DejaVuSans-61"/>
     </g>
    </g>
    <g id="line2d_19">
     <path d="M 66.6 69.248562 
L 86.6 69.248562 
" style="fill:none;stroke:#ff0000;stroke-linecap:square;stroke-opacity:0.9;stroke-width:2;"/>
    </g>
    <g id="line2d_20"/>
    <g id="text_15">
     <!-- mattress -->
     <g transform="translate(94.6 72.748562)scale(0.1 -0.1)">
      <defs>
       <path d="M 3328 2828 
Q 3544 3216 3844 3400 
Q 4144 3584 4550 3584 
Q 5097 3584 5394 3201 
Q 5691 2819 5691 2113 
L 5691 0 
L 5113 0 
L 5113 2094 
Q 5113 2597 4934 2840 
Q 4756 3084 4391 3084 
Q 3944 3084 3684 2787 
Q 3425 2491 3425 1978 
L 3425 0 
L 2847 0 
L 2847 2094 
Q 2847 2600 2669 2842 
Q 2491 3084 2119 3084 
Q 1678 3084 1418 2786 
Q 1159 2488 1159 1978 
L 1159 0 
L 581 0 
L 581 3500 
L 1159 3500 
L 1159 2956 
Q 1356 3278 1631 3431 
Q 1906 3584 2284 3584 
Q 2666 3584 2933 3390 
Q 3200 3197 3328 2828 
z
" id="DejaVuSans-6d" transform="scale(0.015625)"/>
       <path d="M 2834 3397 
L 2834 2853 
Q 2591 2978 2328 3040 
Q 2066 3103 1784 3103 
Q 1356 3103 1142 2972 
Q 928 2841 928 2578 
Q 928 2378 1081 2264 
Q 1234 2150 1697 2047 
L 1894 2003 
Q 2506 1872 2764 1633 
Q 3022 1394 3022 966 
Q 3022 478 2636 193 
Q 2250 -91 1575 -91 
Q 1294 -91 989 -36 
Q 684 19 347 128 
L 347 722 
Q 666 556 975 473 
Q 1284 391 1588 391 
Q 1994 391 2212 530 
Q 2431 669 2431 922 
Q 2431 1156 2273 1281 
Q 2116 1406 1581 1522 
L 1381 1569 
Q 847 1681 609 1914 
Q 372 2147 372 2553 
Q 372 3047 722 3315 
Q 1072 3584 1716 3584 
Q 2034 3584 2315 3537 
Q 2597 3491 2834 3397 
z
" id="DejaVuSans-73" transform="scale(0.015625)"/>
      </defs>
      <use xlink:href="#DejaVuSans-6d"/>
      <use x="97.412109" xlink:href="#DejaVuSans-61"/>
      <use x="158.691406" xlink:href="#DejaVuSans-74"/>
      <use x="197.900391" xlink:href="#DejaVuSans-74"/>
      <use x="237.109375" xlink:href="#DejaVuSans-72"/>
      <use x="275.972656" xlink:href="#DejaVuSans-65"/>
      <use x="337.496094" xlink:href="#DejaVuSans-73"/>
      <use x="389.595703" xlink:href="#DejaVuSans-73"/>
     </g>
    </g>
    <g id="line2d_21">
     <path d="M 66.6 83.926687 
L 86.6 83.926687 
" style="fill:none;stroke:#ff8040;stroke-linecap:square;stroke-opacity:0.9;stroke-width:2;"/>
    </g>
    <g id="line2d_22"/>
    <g id="text_16">
     <!-- trader-0850 -->
     <g transform="translate(94.6 87.426687)scale(0.1 -0.1)">
      <use xlink:href="#DejaVuSans-74"/>
      <use x="39.208984" xlink:href="#DejaVuSans-72"/>
      <use x="80.322266" xlink:href="#DejaVuSans-61"/>
      <use x="141.601562" xlink:href="#DejaVuSans-64"/>
      <use x="205.078125" xlink:href="#DejaVuSans-65"/>
      <use x="266.601562" xlink:href="#DejaVuSans-72"/>
      <use x="301.339844" xlink:href="#DejaVuSans-2d"/>
      <use x="337.423828" xlink:href="#DejaVuSans-30"/>
      <use x="401.046875" xlink:href="#DejaVuSans-38"/>
      <use x="464.669922" xlink:href="#DejaVuSans-35"/>
      <use x="528.292969" xlink:href="#DejaVuSans-30"/>
     </g>
    </g>
    <g id="line2d_23">
     <path d="M 66.6 98.604812 
L 86.6 98.604812 
" style="fill:none;stroke:#0d0d0d;stroke-linecap:square;stroke-opacity:0.25;stroke-width:2;"/>
    </g>
    <g id="line2d_24"/>
    <g id="text_17">
     <!-- rando-min -->
     <g transform="translate(94.6 102.104812)scale(0.1 -0.1)">
      <defs>
       <path d="M 3513 2113 
L 3513 0 
L 2938 0 
L 2938 2094 
Q 2938 2591 2744 2837 
Q 2550 3084 2163 3084 
Q 1697 3084 1428 2787 
Q 1159 2491 1159 1978 
L 1159 0 
L 581 0 
L 581 3500 
L 1159 3500 
L 1159 2956 
Q 1366 3272 1645 3428 
Q 1925 3584 2291 3584 
Q 2894 3584 3203 3211 
Q 3513 2838 3513 2113 
z
" id="DejaVuSans-6e" transform="scale(0.015625)"/>
      </defs>
      <use xlink:href="#DejaVuSans-72"/>
      <use x="41.113281" xlink:href="#DejaVuSans-61"/>
      <use x="102.392578" xlink:href="#DejaVuSans-6e"/>
      <use x="165.771484" xlink:href="#DejaVuSans-64"/>
      <use x="229.248047" xlink:href="#DejaVuSans-6f"/>
      <use x="292.304688" xlink:href="#DejaVuSans-2d"/>
      <use x="328.388672" xlink:href="#DejaVuSans-6d"/>
      <use x="425.800781" xlink:href="#DejaVuSans-69"/>
      <use x="453.583984" xlink:href="#DejaVuSans-6e"/>
     </g>
    </g>
    <g id="line2d_25">
     <path d="M 66.6 113.282937 
L 86.6 113.282937 
" style="fill:none;stroke:#0d0d0d;stroke-linecap:square;stroke-opacity:0.25;stroke-width:2;"/>
    </g>
    <g id="line2d_26"/>
    <g id="text_18">
     <!-- rando-max -->
     <g transform="translate(94.6 116.782937)scale(0.1 -0.1)">
      <defs>
       <path d="M 3513 3500 
L 2247 1797 
L 3578 0 
L 2900 0 
L 1881 1375 
L 863 0 
L 184 0 
L 1544 1831 
L 300 3500 
L 978 3500 
L 1906 2253 
L 2834 3500 
L 3513 3500 
z
" id="DejaVuSans-78" transform="scale(0.015625)"/>
      </defs>
      <use xlink:href="#DejaVuSans-72"/>
      <use x="41.113281" xlink:href="#DejaVuSans-61"/>
      <use x="102.392578" xlink:href="#DejaVuSans-6e"/>
      <use x="165.771484" xlink:href="#DejaVuSans-64"/>
      <use x="229.248047" xlink:href="#DejaVuSans-6f"/>
      <use x="292.304688" xlink:href="#DejaVuSans-2d"/>
      <use x="328.388672" xlink:href="#DejaVuSans-6d"/>
      <use x="425.800781" xlink:href="#DejaVuSans-61"/>
      <use x="487.080078" xlink:href="#DejaVuSans-78"/>
     </g>
    </g>
   </g>
  </g>
 </g>
 <defs>
  <clipPath id="p113a1c28fa">
   <rect height="235.008" width="357.12" x="57.6" y="41.472"/>
  </clipPath>
 </defs>
</svg>
