<?xml version="1.0" encoding="utf-8" standalone="no"?>
<!DOCTYPE svg PUBLIC "-//W3C//DTD SVG 1.1//EN"
  "http://www.w3.org/Graphics/SVG/1.1/DTD/svg11.dtd">
<svg height="345.6pt" version="1.1" viewBox="0 0 460.8 345.6" width="460.8pt" xmlns="http://www.w3.org/2000/svg" xmlns:xlink="http://www.w3.org/1999/xlink">
 <metadata>
  <rdf:RDF xmlns:cc="http://creativecommons.org/ns#" xmlns:dc="http://purl.org/dc/elements/1.1/" xmlns:rdf="http://www.w3.org/1999/02/22-rdf-syntax-ns#">
   <cc:Work>
    <dc:type rdf:resource="http://purl.org/dc/dcmitype/StillImage"/>
    <dc:date>2022-02-11T01:01:47.855029</dc:date>
    <dc:format>image/svg+xml</dc:format>
    <dc:creator>
     <cc:Agent>
      <dc:title>Matplotlib v3.4.3, https://matplotlib.org/</dc:title>
     </cc:Agent>
    </dc:creator>
   </cc:Work>
  </rdf:RDF>
 </metadata>
 <defs>
  <style type="text/css">*{stroke-linecap:butt;stroke-linejoin:round;}</style>
 </defs>
 <g id="figure_1">
  <g id="patch_1">
   <path d="M 0 345.6 
L 460.8 345.6 
L 460.8 0 
L 0 0 
z
" style="fill:#ffffff;"/>
  </g>
  <g id="axes_1">
   <g id="patch_2">
    <path d="M 57.6 276.48 
L 414.72 276.48 
L 414.72 41.472 
L 57.6 41.472 
z
" style="fill:#ffffff;"/>
   </g>
   <g id="matplotlib.axis_1">
    <g id="xtick_1">
     <g id="line2d_1">
      <defs>
       <path d="M 0 0 
L 0 3.5 
" id="mbef126f38e" style="stroke:#000000;stroke-width:0.8;"/>
      </defs>
      <g>
       <use style="stroke:#000000;stroke-width:0.8;" x="90.919809" xlink:href="#mbef126f38e" y="276.48"/>
      </g>
     </g>
     <g id="text_1">
      <!-- 2021-09 -->
      <g transform="translate(53.694988 310.951846)rotate(-30)scale(0.1 -0.1)">
       <defs>
        <path d="M 1228 531 
L 3431 531 
L 3431 0 
L 469 0 
L 469 531 
Q 828 903 1448 1529 
Q 2069 2156 2228 2338 
Q 2531 2678 2651 2914 
Q 2772 3150 2772 3378 
Q 2772 3750 2511 3984 
Q 2250 4219 1831 4219 
Q 1534 4219 1204 4116 
Q 875 4013 500 3803 
L 500 4441 
Q 881 4594 1212 4672 
Q 1544 4750 1819 4750 
Q 2544 4750 2975 4387 
Q 3406 4025 3406 3419 
Q 3406 3131 3298 2873 
Q 3191 2616 2906 2266 
Q 2828 2175 2409 1742 
Q 1991 1309 1228 531 
z
" id="DejaVuSans-32" transform="scale(0.015625)"/>
        <path d="M 2034 4250 
Q 1547 4250 1301 3770 
Q 1056 3291 1056 2328 
Q 1056 1369 1301 889 
Q 1547 409 2034 409 
Q 2525 409 2770 889 
Q 3016 1369 3016 2328 
Q 3016 3291 2770 3770 
Q 2525 4250 2034 4250 
z
M 2034 4750 
Q 2819 4750 3233 4129 
Q 3647 3509 3647 2328 
Q 3647 1150 3233 529 
Q 2819 -91 2034 -91 
Q 1250 -91 836 529 
Q 422 1150 422 2328 
Q 422 3509 836 4129 
Q 1250 4750 2034 4750 
z
" id="DejaVuSans-30" transform="scale(0.015625)"/>
        <path d="M 794 531 
L 1825 531 
L 1825 4091 
L 703 3866 
L 703 4441 
L 1819 4666 
L 2450 4666 
L 2450 531 
L 3481 531 
L 3481 0 
L 794 0 
L 794 531 
z
" id="DejaVuSans-31" transform="scale(0.015625)"/>
        <path d="M 313 2009 
L 1997 2009 
L 1997 1497 
L 313 1497 
L 313 2009 
z
" id="DejaVuSans-2d" transform="scale(0.015625)"/>
        <path d="M 703 97 
L 703 672 
Q 941 559 1184 500 
Q 1428 441 1663 441 
Q 2288 441 2617 861 
Q 2947 1281 2994 2138 
Q 2813 1869 2534 1725 
Q 2256 1581 1919 1581 
Q 1219 1581 811 2004 
Q 403 2428 403 3163 
Q 403 3881 828 4315 
Q 1253 4750 1959 4750 
Q 2769 4750 3195 4129 
Q 3622 3509 3622 2328 
Q 3622 1225 3098 567 
Q 2575 -91 1691 -91 
Q 1453 -91 1209 -44 
Q 966 3 703 97 
z
M 1959 2075 
Q 2384 2075 2632 2365 
Q 2881 2656 2881 3163 
Q 2881 3666 2632 3958 
Q 2384 4250 1959 4250 
Q 1534 4250 1286 3958 
Q 1038 3666 1038 3163 
Q 1038 2656 1286 2365 
Q 1534 2075 1959 2075 
z
" id="DejaVuSans-39" transform="scale(0.015625)"/>
       </defs>
       <use xlink:href="#DejaVuSans-32"/>
       <use x="63.623047" xlink:href="#DejaVuSans-30"/>
       <use x="127.246094" xlink:href="#DejaVuSans-32"/>
       <use x="190.869141" xlink:href="#DejaVuSans-31"/>
       <use x="254.492188" xlink:href="#DejaVuSans-2d"/>
       <use x="290.576172" xlink:href="#DejaVuSans-30"/>
       <use x="354.199219" xlink:href="#DejaVuSans-39"/>
      </g>
     </g>
    </g>
    <g id="xtick_2">
     <g id="line2d_2">
      <g>
       <use style="stroke:#000000;stroke-width:0.8;" x="147.876746" xlink:href="#mbef126f38e" y="276.48"/>
      </g>
     </g>
     <g id="text_2">
      <!-- 2021-10 -->
      <g transform="translate(110.651926 310.951846)rotate(-30)scale(0.1 -0.1)">
       <use xlink:href="#DejaVuSans-32"/>
       <use x="63.623047" xlink:href="#DejaVuSans-30"/>
       <use x="127.246094" xlink:href="#DejaVuSans-32"/>
       <use x="190.869141" xlink:href="#DejaVuSans-31"/>
       <use x="254.492188" xlink:href="#DejaVuSans-2d"/>
       <use x="290.576172" xlink:href="#DejaVuSans-31"/>
       <use x="354.199219" xlink:href="#DejaVuSans-30"/>
      </g>
     </g>
    </g>
    <g id="xtick_3">
     <g id="line2d_3">
      <g>
       <use style="stroke:#000000;stroke-width:0.8;" x="206.732249" xlink:href="#mbef126f38e" y="276.48"/>
      </g>
     </g>
     <g id="text_3">
      <!-- 2021-11 -->
      <g transform="translate(169.507428 310.951846)rotate(-30)scale(0.1 -0.1)">
       <use xlink:href="#DejaVuSans-32"/>
       <use x="63.623047" xlink:href="#DejaVuSans-30"/>
       <use x="127.246094" xlink:href="#DejaVuSans-32"/>
       <use x="190.869141" xlink:href="#DejaVuSans-31"/>
       <use x="254.492188" xlink:href="#DejaVuSans-2d"/>
       <use x="290.576172" xlink:href="#DejaVuSans-31"/>
       <use x="354.199219" xlink:href="#DejaVuSans-31"/>
      </g>
     </g>
    </g>
    <g id="xtick_4">
     <g id="line2d_4">
      <g>
       <use style="stroke:#000000;stroke-width:0.8;" x="263.689187" xlink:href="#mbef126f38e" y="276.48"/>
      </g>
     </g>
     <g id="text_4">
      <!-- 2021-12 -->
      <g transform="translate(226.464366 310.951846)rotate(-30)scale(0.1 -0.1)">
       <use xlink:href="#DejaVuSans-32"/>
       <use x="63.623047" xlink:href="#DejaVuSans-30"/>
       <use x="127.246094" xlink:href="#DejaVuSans-32"/>
       <use x="190.869141" xlink:href="#DejaVuSans-31"/>
       <use x="254.492188" xlink:href="#DejaVuSans-2d"/>
       <use x="290.576172" xlink:href="#DejaVuSans-31"/>
       <use x="354.199219" xlink:href="#DejaVuSans-32"/>
      </g>
     </g>
    </g>
    <g id="xtick_5">
     <g id="line2d_5">
      <g>
       <use style="stroke:#000000;stroke-width:0.8;" x="322.544689" xlink:href="#mbef126f38e" y="276.48"/>
      </g>
     </g>
     <g id="text_5">
      <!-- 2022-01 -->
      <g transform="translate(285.319868 310.951846)rotate(-30)scale(0.1 -0.1)">
       <use xlink:href="#DejaVuSans-32"/>
       <use x="63.623047" xlink:href="#DejaVuSans-30"/>
       <use x="127.246094" xlink:href="#DejaVuSans-32"/>
       <use x="190.869141" xlink:href="#DejaVuSans-32"/>
       <use x="254.492188" xlink:href="#DejaVuSans-2d"/>
       <use x="290.576172" xlink:href="#DejaVuSans-30"/>
       <use x="354.199219" xlink:href="#DejaVuSans-31"/>
      </g>
     </g>
    </g>
    <g id="xtick_6">
     <g id="line2d_6">
      <g>
       <use style="stroke:#000000;stroke-width:0.8;" x="381.400191" xlink:href="#mbef126f38e" y="276.48"/>
      </g>
     </g>
     <g id="text_6">
      <!-- 2022-02 -->
      <g transform="translate(344.175371 310.951846)rotate(-30)scale(0.1 -0.1)">
       <use xlink:href="#DejaVuSans-32"/>
       <use x="63.623047" xlink:href="#DejaVuSans-30"/>
       <use x="127.246094" xlink:href="#DejaVuSans-32"/>
       <use x="190.869141" xlink:href="#DejaVuSans-32"/>
       <use x="254.492188" xlink:href="#DejaVuSans-2d"/>
       <use x="290.576172" xlink:href="#DejaVuSans-30"/>
       <use x="354.199219" xlink:href="#DejaVuSans-32"/>
      </g>
     </g>
    </g>
    <g id="text_7">
     <!-- date -->
     <g transform="translate(224.885 324.351346)scale(0.1 -0.1)">
      <defs>
       <path d="M 2906 2969 
L 2906 4863 
L 3481 4863 
L 3481 0 
L 2906 0 
L 2906 525 
Q 2725 213 2448 61 
Q 2172 -91 1784 -91 
Q 1150 -91 751 415 
Q 353 922 353 1747 
Q 353 2572 751 3078 
Q 1150 3584 1784 3584 
Q 2172 3584 2448 3432 
Q 2725 3281 2906 2969 
z
M 947 1747 
Q 947 1113 1208 752 
Q 1469 391 1925 391 
Q 2381 391 2643 752 
Q 2906 1113 2906 1747 
Q 2906 2381 2643 2742 
Q 2381 3103 1925 3103 
Q 1469 3103 1208 2742 
Q 947 2381 947 1747 
z
" id="DejaVuSans-64" transform="scale(0.015625)"/>
       <path d="M 2194 1759 
Q 1497 1759 1228 1600 
Q 959 1441 959 1056 
Q 959 750 1161 570 
Q 1363 391 1709 391 
Q 2188 391 2477 730 
Q 2766 1069 2766 1631 
L 2766 1759 
L 2194 1759 
z
M 3341 1997 
L 3341 0 
L 2766 0 
L 2766 531 
Q 2569 213 2275 61 
Q 1981 -91 1556 -91 
Q 1019 -91 701 211 
Q 384 513 384 1019 
Q 384 1609 779 1909 
Q 1175 2209 1959 2209 
L 2766 2209 
L 2766 2266 
Q 2766 2663 2505 2880 
Q 2244 3097 1772 3097 
Q 1472 3097 1187 3025 
Q 903 2953 641 2809 
L 641 3341 
Q 956 3463 1253 3523 
Q 1550 3584 1831 3584 
Q 2591 3584 2966 3190 
Q 3341 2797 3341 1997 
z
" id="DejaVuSans-61" transform="scale(0.015625)"/>
       <path d="M 1172 4494 
L 1172 3500 
L 2356 3500 
L 2356 3053 
L 1172 3053 
L 1172 1153 
Q 1172 725 1289 603 
Q 1406 481 1766 481 
L 2356 481 
L 2356 0 
L 1766 0 
Q 1100 0 847 248 
Q 594 497 594 1153 
L 594 3053 
L 172 3053 
L 172 3500 
L 594 3500 
L 594 4494 
L 1172 4494 
z
" id="DejaVuSans-74" transform="scale(0.015625)"/>
       <path d="M 3597 1894 
L 3597 1613 
L 953 1613 
Q 991 1019 1311 708 
Q 1631 397 2203 397 
Q 2534 397 2845 478 
Q 3156 559 3463 722 
L 3463 178 
Q 3153 47 2828 -22 
Q 2503 -91 2169 -91 
Q 1331 -91 842 396 
Q 353 884 353 1716 
Q 353 2575 817 3079 
Q 1281 3584 2069 3584 
Q 2775 3584 3186 3129 
Q 3597 2675 3597 1894 
z
M 3022 2063 
Q 3016 2534 2758 2815 
Q 2500 3097 2075 3097 
Q 1594 3097 1305 2825 
Q 1016 2553 972 2059 
L 3022 2063 
z
" id="DejaVuSans-65" transform="scale(0.015625)"/>
      </defs>
      <use xlink:href="#DejaVuSans-64"/>
      <use x="63.476562" xlink:href="#DejaVuSans-61"/>
      <use x="124.755859" xlink:href="#DejaVuSans-74"/>
      <use x="163.964844" xlink:href="#DejaVuSans-65"/>
     </g>
    </g>
   </g>
   <g id="matplotlib.axis_2">
    <g id="ytick_1">
     <g id="line2d_7">
      <defs>
       <path d="M 0 0 
L -3.5 0 
" id="mc94594d3f5" style="stroke:#000000;stroke-width:0.8;"/>
      </defs>
      <g>
       <use style="stroke:#000000;stroke-width:0.8;" x="57.6" xlink:href="#mc94594d3f5" y="262.125872"/>
      </g>
     </g>
     <g id="text_8">
      <!-- 90000 -->
      <g transform="translate(18.7875 265.925091)scale(0.1 -0.1)">
       <use xlink:href="#DejaVuSans-39"/>
       <use x="63.623047" xlink:href="#DejaVuSans-30"/>
       <use x="127.246094" xlink:href="#DejaVuSans-30"/>
       <use x="190.869141" xlink:href="#DejaVuSans-30"/>
       <use x="254.492188" xlink:href="#DejaVuSans-30"/>
      </g>
     </g>
    </g>
    <g id="ytick_2">
     <g id="line2d_8">
      <g>
       <use style="stroke:#000000;stroke-width:0.8;" x="57.6" xlink:href="#mc94594d3f5" y="224.26397"/>
      </g>
     </g>
     <g id="text_9">
      <!-- 95000 -->
      <g transform="translate(18.7875 228.063188)scale(0.1 -0.1)">
       <defs>
        <path d="M 691 4666 
L 3169 4666 
L 3169 4134 
L 1269 4134 
L 1269 2991 
Q 1406 3038 1543 3061 
Q 1681 3084 1819 3084 
Q 2600 3084 3056 2656 
Q 3513 2228 3513 1497 
Q 3513 744 3044 326 
Q 2575 -91 1722 -91 
Q 1428 -91 1123 -41 
Q 819 9 494 109 
L 494 744 
Q 775 591 1075 516 
Q 1375 441 1709 441 
Q 2250 441 2565 725 
Q 2881 1009 2881 1497 
Q 2881 1984 2565 2268 
Q 2250 2553 1709 2553 
Q 1456 2553 1204 2497 
Q 953 2441 691 2322 
L 691 4666 
z
" id="DejaVuSans-35" transform="scale(0.015625)"/>
       </defs>
       <use xlink:href="#DejaVuSans-39"/>
       <use x="63.623047" xlink:href="#DejaVuSans-35"/>
       <use x="127.246094" xlink:href="#DejaVuSans-30"/>
       <use x="190.869141" xlink:href="#DejaVuSans-30"/>
       <use x="254.492188" xlink:href="#DejaVuSans-30"/>
      </g>
     </g>
    </g>
    <g id="ytick_3">
     <g id="line2d_9">
      <g>
       <use style="stroke:#000000;stroke-width:0.8;" x="57.6" xlink:href="#mc94594d3f5" y="186.402067"/>
      </g>
     </g>
     <g id="text_10">
      <!-- 100000 -->
      <g transform="translate(12.425 190.201286)scale(0.1 -0.1)">
       <use xlink:href="#DejaVuSans-31"/>
       <use x="63.623047" xlink:href="#DejaVuSans-30"/>
       <use x="127.246094" xlink:href="#DejaVuSans-30"/>
       <use x="190.869141" xlink:href="#DejaVuSans-30"/>
       <use x="254.492188" xlink:href="#DejaVuSans-30"/>
       <use x="318.115234" xlink:href="#DejaVuSans-30"/>
      </g>
     </g>
    </g>
    <g id="ytick_4">
     <g id="line2d_10">
      <g>
       <use style="stroke:#000000;stroke-width:0.8;" x="57.6" xlink:href="#mc94594d3f5" y="148.540164"/>
      </g>
     </g>
     <g id="text_11">
      <!-- 105000 -->
      <g transform="translate(12.425 152.339383)scale(0.1 -0.1)">
       <use xlink:href="#DejaVuSans-31"/>
       <use x="63.623047" xlink:href="#DejaVuSans-30"/>
       <use x="127.246094" xlink:href="#DejaVuSans-35"/>
       <use x="190.869141" xlink:href="#DejaVuSans-30"/>
       <use x="254.492188" xlink:href="#DejaVuSans-30"/>
       <use x="318.115234" xlink:href="#DejaVuSans-30"/>
      </g>
     </g>
    </g>
    <g id="ytick_5">
     <g id="line2d_11">
      <g>
       <use style="stroke:#000000;stroke-width:0.8;" x="57.6" xlink:href="#mc94594d3f5" y="110.678262"/>
      </g>
     </g>
     <g id="text_12">
      <!-- 110000 -->
      <g transform="translate(12.425 114.47748)scale(0.1 -0.1)">
       <use xlink:href="#DejaVuSans-31"/>
       <use x="63.623047" xlink:href="#DejaVuSans-31"/>
       <use x="127.246094" xlink:href="#DejaVuSans-30"/>
       <use x="190.869141" xlink:href="#DejaVuSans-30"/>
       <use x="254.492188" xlink:href="#DejaVuSans-30"/>
       <use x="318.115234" xlink:href="#DejaVuSans-30"/>
      </g>
     </g>
    </g>
    <g id="ytick_6">
     <g id="line2d_12">
      <g>
       <use style="stroke:#000000;stroke-width:0.8;" x="57.6" xlink:href="#mc94594d3f5" y="72.816359"/>
      </g>
     </g>
     <g id="text_13">
      <!-- 115000 -->
      <g transform="translate(12.425 76.615578)scale(0.1 -0.1)">
       <use xlink:href="#DejaVuSans-31"/>
       <use x="63.623047" xlink:href="#DejaVuSans-31"/>
       <use x="127.246094" xlink:href="#DejaVuSans-35"/>
       <use x="190.869141" xlink:href="#DejaVuSans-30"/>
       <use x="254.492188" xlink:href="#DejaVuSans-30"/>
       <use x="318.115234" xlink:href="#DejaVuSans-30"/>
      </g>
     </g>
    </g>
   </g>
   <g id="line2d_13">
    <path clip-path="url(#paee37a8f47)" d="M 73.832727 186.402067 
L 75.731292 186.556524 
L 77.629856 183.370379 
L 79.528421 187.760282 
L 81.426986 180.709177 
L 87.122679 175.769601 
L 89.021244 174.267796 
L 90.919809 176.363846 
L 92.818373 175.939234 
L 94.716938 175.75877 
L 102.311196 175.798692 
L 104.209761 178.516047 
L 106.108325 180.775685 
L 108.00689 187.801233 
L 113.702584 181.778286 
L 115.601148 192.583863 
L 117.499713 187.783492 
L 119.398278 189.407015 
L 121.296842 196.858519 
L 126.992536 209.867239 
L 128.8911 211.98958 
L 130.789665 205.952995 
L 132.68823 194.290723 
L 134.586794 187.737334 
L 140.282488 182.205491 
L 142.181053 198.541823 
L 144.079617 196.057235 
L 145.978182 201.589449 
L 147.876746 190.43941 
L 153.57244 204.28847 
L 155.471005 192.910955 
L 157.369569 190.495371 
L 159.268134 189.605636 
L 161.166699 189.043022 
L 166.862392 187.924871 
L 168.760957 187.37246 
L 170.659522 197.097814 
L 172.558086 181.845123 
L 174.456651 181.11724 
L 180.152344 174.491711 
L 182.050909 167.375705 
L 183.949474 163.900961 
L 185.848038 177.555519 
L 187.746603 186.964226 
L 193.442297 186.503075 
L 195.340861 193.301821 
L 197.239426 194.596641 
L 199.13799 185.528133 
L 201.036555 195.109354 
L 206.732249 180.133566 
L 208.630813 180.023816 
L 210.529378 172.222697 
L 212.427943 182.032717 
L 214.326507 176.446904 
L 220.022201 175.803493 
L 221.920766 185.643062 
L 223.81933 185.38566 
L 225.717895 191.107717 
L 227.616459 185.416312 
L 233.312153 183.281151 
L 235.210718 183.278103 
L 237.109282 187.016014 
L 239.007847 189.239661 
L 240.906411 189.475333 
L 246.602105 184.828663 
L 248.50067 178.900909 
L 250.399234 179.117886 
L 254.196364 179.060231 
L 259.892057 185.973962 
L 261.790622 201.004508 
L 263.689187 210.94861 
L 265.587751 201.524305 
L 267.486316 206.686413 
L 273.18201 192.50801 
L 275.080574 179.301599 
L 276.979139 173.343418 
L 278.877703 173.065096 
L 280.776268 170.290627 
L 286.471962 177.682328 
L 288.370526 173.966458 
L 290.269091 169.408255 
L 292.167656 166.834381 
L 294.06622 175.929066 
L 299.761914 186.09951 
L 301.660478 168.393153 
L 303.559043 164.685456 
L 305.457608 157.726559 
L 313.051866 148.398963 
L 314.950431 148.719814 
L 316.848995 148.406275 
L 318.74756 149.911387 
L 320.646124 152.933135 
L 326.341818 140.982043 
L 328.240383 130.711113 
L 330.138947 152.059909 
L 332.037512 145.312526 
L 333.936077 141.836814 
L 339.63177 141.854709 
L 341.530335 135.034933 
L 343.4289 133.212676 
L 345.327464 143.071504 
L 347.226029 140.843805 
L 354.820287 158.141602 
L 356.718852 161.587708 
L 358.617416 170.991111 
L 360.515981 188.599673 
L 366.211675 187.514468 
L 368.110239 196.116463 
L 370.008804 196.140508 
L 371.907368 201.526772 
L 373.805933 181.773022 
L 379.501627 165.781206 
L 381.400191 158.104116 
L 383.298756 146.444342 
L 385.197321 197.861629 
L 387.095885 197.090023 
L 392.791579 210.224905 
L 394.690144 211.658596 
L 396.588708 195.000626 
L 398.487273 210.537814 
" style="fill:none;stroke:#0000ff;stroke-linecap:square;stroke-opacity:0.9;stroke-width:2;"/>
   </g>
   <g id="line2d_14">
    <path clip-path="url(#paee37a8f47)" d="M 73.832727 186.402067 
L 75.731292 182.359177 
L 77.629856 178.53878 
L 79.528421 183.329751 
L 81.426986 174.675956 
L 87.122679 171.809475 
L 89.021244 170.923834 
L 90.919809 171.16865 
L 92.818373 172.115431 
L 94.716938 171.54683 
L 102.311196 170.661351 
L 104.209761 173.496848 
L 106.108325 174.622961 
L 108.00689 182.859916 
L 113.702584 177.280998 
L 115.601148 184.562459 
L 117.499713 181.268726 
L 119.398278 183.726579 
L 121.296842 193.129599 
L 126.992536 205.397643 
L 128.8911 205.020795 
L 130.789665 200.886256 
L 132.68823 190.964863 
L 134.586794 185.377793 
L 140.282488 181.087742 
L 142.181053 195.611527 
L 144.079617 195.018939 
L 145.978182 202.019387 
L 147.876746 190.881939 
L 153.57244 199.797205 
L 155.471005 188.457707 
L 157.369569 186.514648 
L 159.268134 185.140633 
L 161.166699 181.217882 
L 166.862392 185.841212 
L 168.760957 191.454194 
L 170.659522 193.897612 
L 172.558086 175.488089 
L 174.456651 169.842942 
L 180.152344 167.953188 
L 182.050909 161.696555 
L 183.949474 157.33389 
L 185.848038 167.228113 
L 187.746603 171.25682 
L 193.442297 173.502565 
L 195.340861 177.727357 
L 197.239426 181.794856 
L 199.13799 171.250265 
L 201.036555 169.847468 
L 206.732249 169.202905 
L 208.630813 166.856378 
L 210.529378 161.012019 
L 212.427943 162.565192 
L 214.326507 162.495735 
L 220.022201 160.904394 
L 221.920766 167.710427 
L 223.81933 171.67791 
L 225.717895 171.36968 
L 227.616459 165.967469 
L 233.312153 164.21315 
L 235.210718 165.726613 
L 237.109282 166.972745 
L 239.007847 166.790043 
L 240.906411 169.299981 
L 246.602105 166.040725 
L 248.50067 158.523984 
L 250.399234 158.042909 
L 254.196364 178.087436 
L 259.892057 170.232557 
L 261.790622 185.994561 
L 263.689187 195.040129 
L 265.587751 184.422416 
L 267.486316 190.559214 
L 273.18201 179.311938 
L 275.080574 166.253117 
L 276.979139 161.596241 
L 278.877703 162.682073 
L 280.776268 157.413011 
L 286.471962 165.534633 
L 288.370526 165.188651 
L 290.269091 159.179699 
L 292.167656 158.292967 
L 294.06622 168.651169 
L 299.761914 177.655059 
L 301.660478 163.346078 
L 303.559043 158.783852 
L 305.457608 151.92724 
L 313.051866 141.824039 
L 314.950431 141.959499 
L 316.848995 141.631928 
L 318.74756 142.997933 
L 320.646124 145.584179 
L 326.341818 137.080671 
L 328.240383 129.065425 
L 330.138947 146.70372 
L 332.037512 143.743403 
L 333.936077 139.589192 
L 339.63177 139.888918 
L 341.530335 135.407358 
L 343.4289 135.440627 
L 345.327464 141.101961 
L 347.226029 141.697207 
L 354.820287 158.994696 
L 356.718852 166.663649 
L 358.617416 174.542669 
L 360.515981 190.404976 
L 366.211675 191.151862 
L 368.110239 189.096728 
L 370.008804 190.883433 
L 371.907368 197.303277 
L 373.805933 179.149428 
L 379.501627 167.426837 
L 381.400191 157.709701 
L 383.298756 145.402563 
L 385.197321 180.903357 
L 387.095885 174.850952 
L 392.791579 179.971217 
L 394.690144 174.35816 
L 396.588708 167.232562 
L 398.487273 180.413736 
" style="fill:none;stroke:#ff0000;stroke-linecap:square;stroke-opacity:0.9;stroke-width:2;"/>
   </g>
   <g id="line2d_15">
    <path clip-path="url(#paee37a8f47)" d="M 73.832727 186.402067 
L 75.731292 182.317408 
L 77.629856 179.045566 
L 79.528421 183.160185 
L 81.426986 176.207268 
L 87.122679 171.278188 
L 89.021244 169.987469 
L 90.919809 172.198603 
L 92.818373 170.694539 
L 94.716938 171.116962 
L 102.311196 171.53681 
L 104.209761 174.010179 
L 106.108325 175.942582 
L 108.00689 183.119236 
L 113.702584 176.449004 
L 115.601148 187.010257 
L 117.499713 182.653791 
L 119.398278 184.500019 
L 121.296842 191.05519 
L 126.992536 204.63411 
L 128.8911 206.508849 
L 130.789665 200.382901 
L 132.68823 188.848805 
L 134.586794 181.903051 
L 140.282488 175.636858 
L 142.181053 191.749172 
L 144.079617 189.702285 
L 145.978182 195.205289 
L 147.876746 183.664702 
L 153.57244 197.77124 
L 155.471005 186.385499 
L 157.369569 183.396871 
L 159.268134 180.961227 
L 161.166699 178.144604 
L 166.862392 182.343725 
L 168.760957 187.888168 
L 170.659522 189.437026 
L 172.558086 174.597816 
L 174.456651 174.029401 
L 180.152344 167.160302 
L 182.050909 159.608168 
L 183.949474 156.405234 
L 185.848038 168.995087 
L 187.746603 179.147651 
L 193.442297 178.401765 
L 195.340861 185.266267 
L 197.239426 187.047989 
L 199.13799 177.158217 
L 201.036555 176.270745 
L 206.732249 172.030487 
L 208.630813 170.529332 
L 210.529378 164.585218 
L 212.427943 164.087408 
L 214.326507 158.297439 
L 220.022201 157.421927 
L 221.920766 167.550944 
L 223.81933 173.433216 
L 225.717895 173.334613 
L 227.616459 167.79807 
L 233.312153 164.946771 
L 235.210718 168.734216 
L 237.109282 169.669624 
L 239.007847 171.399171 
L 240.906411 171.483092 
L 246.602105 166.379047 
L 248.50067 160.232905 
L 250.399234 160.896098 
L 254.196364 178.243323 
L 259.892057 168.755556 
L 261.790622 183.496154 
L 263.689187 193.90141 
L 265.587751 185.300122 
L 267.486316 189.94428 
L 273.18201 175.624041 
L 275.080574 162.118996 
L 276.979139 155.74842 
L 278.877703 155.148891 
L 280.776268 152.463928 
L 286.471962 160.265188 
L 288.370526 156.713109 
L 290.269091 151.993926 
L 292.167656 149.274416 
L 294.06622 158.323769 
L 299.761914 169.141352 
L 301.660478 151.122975 
L 303.559043 147.501389 
L 305.457608 139.54265 
L 313.051866 130.197185 
L 314.950431 130.162712 
L 316.848995 130.203201 
L 318.74756 131.62767 
L 320.646124 135.239024 
L 326.341818 122.363321 
L 328.240383 112.438116 
L 330.138947 134.091984 
L 332.037512 125.815966 
L 333.936077 122.757807 
L 339.63177 120.692056 
L 341.530335 113.609717 
L 343.4289 111.980852 
L 345.327464 122.070896 
L 347.226029 119.216821 
L 354.820287 136.504546 
L 356.718852 141.051272 
L 358.617416 150.149088 
L 360.515981 168.73138 
L 366.211675 166.78132 
L 368.110239 176.298909 
L 370.008804 176.484249 
L 371.907368 181.014661 
L 373.805933 161.311198 
L 379.501627 144.841494 
L 381.400191 137.251793 
L 383.298756 123.646495 
L 385.197321 177.951968 
L 387.095885 177.606743 
L 392.791579 190.921377 
L 394.690144 192.42861 
L 396.588708 175.493349 
L 398.487273 188.88926 
" style="fill:none;stroke:#ff8040;stroke-linecap:square;stroke-opacity:0.9;stroke-width:2;"/>
   </g>
   <g id="line2d_16">
    <path clip-path="url(#paee37a8f47)" d="M 73.832727 187.159305 
L 75.731292 185.166625 
L 77.629856 184.642655 
L 79.528421 189.3559 
L 81.426986 181.270986 
L 87.122679 184.912847 
L 89.021244 184.185958 
L 90.919809 184.514326 
L 92.818373 186.504914 
L 94.716938 186.993358 
L 102.311196 187.728888 
L 104.209761 190.061112 
L 106.108325 191.669842 
L 108.00689 199.900668 
L 113.702584 195.945207 
L 115.601148 202.130684 
L 117.499713 197.574116 
L 119.398278 198.070491 
L 121.296842 207.562857 
L 126.992536 221.782895 
L 128.8911 221.126134 
L 130.789665 219.193501 
L 132.68823 209.264608 
L 134.586794 205.076287 
L 140.282488 200.77346 
L 142.181053 218.737124 
L 144.079617 216.474875 
L 145.978182 222.41436 
L 147.876746 211.611012 
L 153.57244 222.678757 
L 155.471005 213.623655 
L 157.369569 212.045216 
L 159.268134 212.381759 
L 161.166699 208.679008 
L 166.862392 213.460369 
L 168.760957 219.567404 
L 170.659522 221.998235 
L 172.558086 205.278318 
L 174.456651 201.733141 
L 180.152344 202.714092 
L 182.050909 196.056325 
L 183.949474 192.24592 
L 185.848038 201.674621 
L 187.746603 206.519712 
L 193.442297 206.947101 
L 195.340861 211.435571 
L 197.239426 213.395107 
L 199.13799 204.173208 
L 201.036555 205.69875 
L 206.732249 205.151026 
L 208.630813 201.424509 
L 210.529378 195.945221 
L 212.427943 195.736738 
L 214.326507 197.660204 
L 220.022201 198.45088 
L 221.920766 205.061832 
L 223.81933 208.808104 
L 225.717895 208.116354 
L 227.616459 207.655169 
L 233.312153 206.605924 
L 235.210718 207.539498 
L 237.109282 208.06694 
L 239.007847 205.753393 
L 240.906411 209.258753 
L 246.602105 211.037247 
L 248.50067 200.014848 
L 250.399234 200.253658 
L 254.196364 218.520497 
L 259.892057 209.756704 
L 261.790622 225.668654 
L 263.689187 239.04859 
L 265.587751 229.35027 
L 267.486316 233.134654 
L 273.18201 223.28135 
L 275.080574 209.314312 
L 276.979139 207.812117 
L 278.877703 207.645631 
L 280.776268 205.772323 
L 286.471962 209.854595 
L 288.370526 208.202225 
L 290.269091 204.544692 
L 292.167656 205.647323 
L 294.06622 215.224243 
L 299.761914 226.61415 
L 301.660478 211.544961 
L 303.559043 207.222069 
L 305.457608 199.606357 
L 313.051866 189.140336 
L 314.950431 189.52233 
L 316.848995 189.309802 
L 318.74756 190.80903 
L 320.646124 193.085768 
L 326.341818 189.241093 
L 328.240383 185.568785 
L 330.138947 204.548922 
L 332.037512 205.758913 
L 333.936077 204.127044 
L 339.63177 204.005544 
L 341.530335 200.337761 
L 343.4289 199.160682 
L 345.327464 203.861473 
L 347.226029 204.313938 
L 354.820287 226.044177 
L 356.718852 234.593188 
L 358.617416 241.072711 
L 360.515981 257.330706 
L 366.211675 258.252995 
L 368.110239 255.997448 
L 370.008804 257.36916 
L 371.907368 261.136473 
L 373.805933 241.387507 
L 379.501627 231.026867 
L 381.400191 222.063462 
L 383.298756 214.549896 
L 385.197321 265.559283 
L 387.095885 260.621113 
L 392.791579 262.649143 
L 394.690144 262.2876 
L 396.588708 253.006545 
L 398.487273 265.797818 
" style="fill:none;stroke:#0d0d0d;stroke-linecap:square;stroke-opacity:0.25;stroke-width:2;"/>
   </g>
   <g id="line2d_17">
    <path clip-path="url(#paee37a8f47)" d="M 73.832727 185.644829 
L 75.731292 179.525844 
L 77.629856 174.575057 
L 79.528421 178.47929 
L 81.426986 167.611543 
L 87.122679 157.217993 
L 89.021244 155.623249 
L 90.919809 155.395778 
L 92.818373 157.33289 
L 94.716938 157.494792 
L 102.311196 157.073463 
L 104.209761 160.357095 
L 106.108325 162.291989 
L 108.00689 168.628994 
L 113.702584 163.087874 
L 115.601148 172.050578 
L 117.499713 167.922276 
L 119.398278 169.666141 
L 121.296842 178.064169 
L 126.992536 190.724735 
L 128.8911 190.692942 
L 130.789665 186.860152 
L 132.68823 175.402145 
L 134.586794 168.388546 
L 140.282488 155.002626 
L 142.181053 172.752619 
L 144.079617 171.724893 
L 145.978182 177.70724 
L 147.876746 164.859311 
L 153.57244 170.28761 
L 155.471005 159.486037 
L 157.369569 156.967934 
L 159.268134 154.546946 
L 161.166699 150.65701 
L 166.862392 154.268204 
L 168.760957 159.720664 
L 170.659522 160.54013 
L 172.558086 142.416916 
L 174.456651 137.440123 
L 180.152344 134.299981 
L 182.050909 125.661978 
L 183.949474 119.39105 
L 185.848038 121.539131 
L 187.746603 119.843985 
L 193.442297 122.918647 
L 195.340861 123.920732 
L 197.239426 130.739994 
L 199.13799 117.094217 
L 201.036555 117.665701 
L 206.732249 113.705641 
L 208.630813 111.099162 
L 210.529378 103.860977 
L 212.427943 105.901107 
L 214.326507 101.335571 
L 220.022201 103.31455 
L 221.920766 108.543978 
L 223.81933 110.898351 
L 225.717895 110.30355 
L 227.616459 105.482161 
L 233.312153 102.913739 
L 235.210718 106.815611 
L 237.109282 107.331338 
L 239.007847 107.307844 
L 240.906411 107.589935 
L 246.602105 104.417986 
L 248.50067 97.596268 
L 250.399234 97.431465 
L 254.196364 118.489427 
L 259.892057 109.853975 
L 261.790622 124.107883 
L 263.689187 129.458699 
L 265.587751 117.724221 
L 267.486316 123.620064 
L 273.18201 113.488799 
L 275.080574 101.430932 
L 276.979139 94.003903 
L 278.877703 92.113864 
L 280.776268 87.147093 
L 286.471962 94.410051 
L 288.370526 91.776466 
L 290.269091 83.98012 
L 292.167656 90.687228 
L 294.06622 102.452043 
L 299.761914 113.029495 
L 301.660478 93.176377 
L 303.559043 85.949028 
L 305.457608 78.285096 
L 313.051866 63.719004 
L 314.950431 65.834966 
L 316.848995 65.465002 
L 318.74756 66.729059 
L 320.646124 67.934999 
L 326.341818 56.717178 
L 328.240383 52.154182 
L 330.138947 69.735666 
L 332.037512 64.63656 
L 333.936077 62.372928 
L 339.63177 65.308137 
L 341.530335 60.488182 
L 343.4289 60.92124 
L 345.327464 67.240451 
L 347.226029 67.712494 
L 354.820287 83.605992 
L 356.718852 91.974793 
L 358.617416 100.741045 
L 360.515981 116.964911 
L 366.211675 118.872052 
L 368.110239 115.833985 
L 370.008804 122.617395 
L 371.907368 130.137026 
L 373.805933 112.297984 
L 379.501627 98.138046 
L 381.400191 88.210204 
L 383.298756 70.546841 
L 385.197321 103.35208 
L 387.095885 95.113133 
L 392.791579 102.06262 
L 394.690144 100.39973 
L 396.588708 92.321992 
L 398.487273 107.230566 
" style="fill:none;stroke:#0d0d0d;stroke-linecap:square;stroke-opacity:0.25;stroke-width:2;"/>
   </g>
   <g id="patch_3">
    <path d="M 57.6 276.48 
L 57.6 41.472 
" style="fill:none;stroke:#000000;stroke-linecap:square;stroke-linejoin:miter;stroke-width:0.8;"/>
   </g>
   <g id="patch_4">
    <path d="M 414.72 276.48 
L 414.72 41.472 
" style="fill:none;stroke:#000000;stroke-linecap:square;stroke-linejoin:miter;stroke-width:0.8;"/>
   </g>
   <g id="patch_5">
    <path d="M 57.6 276.48 
L 414.72 276.48 
" style="fill:none;stroke:#000000;stroke-linecap:square;stroke-linejoin:miter;stroke-width:0.8;"/>
   </g>
   <g id="patch_6">
    <path d="M 57.6 41.472 
L 414.72 41.472 
" style="fill:none;stroke:#000000;stroke-linecap:square;stroke-linejoin:miter;stroke-width:0.8;"/>
   </g>
   <g id="text_14">
    <!-- TESTFUNDS1550 -->
    <g transform="translate(185.200312 22.034625)scale(0.12 -0.12)">
     <defs>
      <path d="M -19 4666 
L 3928 4666 
L 3928 4134 
L 2272 4134 
L 2272 0 
L 1638 0 
L 1638 4134 
L -19 4134 
L -19 4666 
z
" id="DejaVuSans-54" transform="scale(0.015625)"/>
      <path d="M 628 4666 
L 3578 4666 
L 3578 4134 
L 1259 4134 
L 1259 2753 
L 3481 2753 
L 3481 2222 
L 1259 2222 
L 1259 531 
L 3634 531 
L 3634 0 
L 628 0 
L 628 4666 
z
" id="DejaVuSans-45" transform="scale(0.015625)"/>
      <path d="M 3425 4513 
L 3425 3897 
Q 3066 4069 2747 4153 
Q 2428 4238 2131 4238 
Q 1616 4238 1336 4038 
Q 1056 3838 1056 3469 
Q 1056 3159 1242 3001 
Q 1428 2844 1947 2747 
L 2328 2669 
Q 3034 2534 3370 2195 
Q 3706 1856 3706 1288 
Q 3706 609 3251 259 
Q 2797 -91 1919 -91 
Q 1588 -91 1214 -16 
Q 841 59 441 206 
L 441 856 
Q 825 641 1194 531 
Q 1563 422 1919 422 
Q 2459 422 2753 634 
Q 3047 847 3047 1241 
Q 3047 1584 2836 1778 
Q 2625 1972 2144 2069 
L 1759 2144 
Q 1053 2284 737 2584 
Q 422 2884 422 3419 
Q 422 4038 858 4394 
Q 1294 4750 2059 4750 
Q 2388 4750 2728 4690 
Q 3069 4631 3425 4513 
z
" id="DejaVuSans-53" transform="scale(0.015625)"/>
      <path d="M 628 4666 
L 3309 4666 
L 3309 4134 
L 1259 4134 
L 1259 2759 
L 3109 2759 
L 3109 2228 
L 1259 2228 
L 1259 0 
L 628 0 
L 628 4666 
z
" id="DejaVuSans-46" transform="scale(0.015625)"/>
      <path d="M 556 4666 
L 1191 4666 
L 1191 1831 
Q 1191 1081 1462 751 
Q 1734 422 2344 422 
Q 2950 422 3222 751 
Q 3494 1081 3494 1831 
L 3494 4666 
L 4128 4666 
L 4128 1753 
Q 4128 841 3676 375 
Q 3225 -91 2344 -91 
Q 1459 -91 1007 375 
Q 556 841 556 1753 
L 556 4666 
z
" id="DejaVuSans-55" transform="scale(0.015625)"/>
      <path d="M 628 4666 
L 1478 4666 
L 3547 763 
L 3547 4666 
L 4159 4666 
L 4159 0 
L 3309 0 
L 1241 3903 
L 1241 0 
L 628 0 
L 628 4666 
z
" id="DejaVuSans-4e" transform="scale(0.015625)"/>
      <path d="M 1259 4147 
L 1259 519 
L 2022 519 
Q 2988 519 3436 956 
Q 3884 1394 3884 2338 
Q 3884 3275 3436 3711 
Q 2988 4147 2022 4147 
L 1259 4147 
z
M 628 4666 
L 1925 4666 
Q 3281 4666 3915 4102 
Q 4550 3538 4550 2338 
Q 4550 1131 3912 565 
Q 3275 0 1925 0 
L 628 0 
L 628 4666 
z
" id="DejaVuSans-44" transform="scale(0.015625)"/>
     </defs>
     <use xlink:href="#DejaVuSans-54"/>
     <use x="61.083984" xlink:href="#DejaVuSans-45"/>
     <use x="124.267578" xlink:href="#DejaVuSans-53"/>
     <use x="187.744141" xlink:href="#DejaVuSans-54"/>
     <use x="248.828125" xlink:href="#DejaVuSans-46"/>
     <use x="306.347656" xlink:href="#DejaVuSans-55"/>
     <use x="379.541016" xlink:href="#DejaVuSans-4e"/>
     <use x="454.345703" xlink:href="#DejaVuSans-44"/>
     <use x="531.347656" xlink:href="#DejaVuSans-53"/>
     <use x="594.824219" xlink:href="#DejaVuSans-31"/>
     <use x="658.447266" xlink:href="#DejaVuSans-35"/>
     <use x="722.070312" xlink:href="#DejaVuSans-35"/>
     <use x="785.693359" xlink:href="#DejaVuSans-30"/>
    </g>
    <!-- daily_report -->
    <g transform="translate(200.466563 35.472)scale(0.12 -0.12)">
     <defs>
      <path d="M 603 3500 
L 1178 3500 
L 1178 0 
L 603 0 
L 603 3500 
z
M 603 4863 
L 1178 4863 
L 1178 4134 
L 603 4134 
L 603 4863 
z
" id="DejaVuSans-69" transform="scale(0.015625)"/>
      <path d="M 603 4863 
L 1178 4863 
L 1178 0 
L 603 0 
L 603 4863 
z
" id="DejaVuSans-6c" transform="scale(0.015625)"/>
      <path d="M 2059 -325 
Q 1816 -950 1584 -1140 
Q 1353 -1331 966 -1331 
L 506 -1331 
L 506 -850 
L 844 -850 
Q 1081 -850 1212 -737 
Q 1344 -625 1503 -206 
L 1606 56 
L 191 3500 
L 800 3500 
L 1894 763 
L 2988 3500 
L 3597 3500 
L 2059 -325 
z
" id="DejaVuSans-79" transform="scale(0.015625)"/>
      <path d="M 3263 -1063 
L 3263 -1509 
L -63 -1509 
L -63 -1063 
L 3263 -1063 
z
" id="DejaVuSans-5f" transform="scale(0.015625)"/>
      <path d="M 2631 2963 
Q 2534 3019 2420 3045 
Q 2306 3072 2169 3072 
Q 1681 3072 1420 2755 
Q 1159 2438 1159 1844 
L 1159 0 
L 581 0 
L 581 3500 
L 1159 3500 
L 1159 2956 
Q 1341 3275 1631 3429 
Q 1922 3584 2338 3584 
Q 2397 3584 2469 3576 
Q 2541 3569 2628 3553 
L 2631 2963 
z
" id="DejaVuSans-72" transform="scale(0.015625)"/>
      <path d="M 1159 525 
L 1159 -1331 
L 581 -1331 
L 581 3500 
L 1159 3500 
L 1159 2969 
Q 1341 3281 1617 3432 
Q 1894 3584 2278 3584 
Q 2916 3584 3314 3078 
Q 3713 2572 3713 1747 
Q 3713 922 3314 415 
Q 2916 -91 2278 -91 
Q 1894 -91 1617 61 
Q 1341 213 1159 525 
z
M 3116 1747 
Q 3116 2381 2855 2742 
Q 2594 3103 2138 3103 
Q 1681 3103 1420 2742 
Q 1159 2381 1159 1747 
Q 1159 1113 1420 752 
Q 1681 391 2138 391 
Q 2594 391 2855 752 
Q 3116 1113 3116 1747 
z
" id="DejaVuSans-70" transform="scale(0.015625)"/>
      <path d="M 1959 3097 
Q 1497 3097 1228 2736 
Q 959 2375 959 1747 
Q 959 1119 1226 758 
Q 1494 397 1959 397 
Q 2419 397 2687 759 
Q 2956 1122 2956 1747 
Q 2956 2369 2687 2733 
Q 2419 3097 1959 3097 
z
M 1959 3584 
Q 2709 3584 3137 3096 
Q 3566 2609 3566 1747 
Q 3566 888 3137 398 
Q 2709 -91 1959 -91 
Q 1206 -91 779 398 
Q 353 888 353 1747 
Q 353 2609 779 3096 
Q 1206 3584 1959 3584 
z
" id="DejaVuSans-6f" transform="scale(0.015625)"/>
     </defs>
     <use xlink:href="#DejaVuSans-64"/>
     <use x="63.476562" xlink:href="#DejaVuSans-61"/>
     <use x="124.755859" xlink:href="#DejaVuSans-69"/>
     <use x="152.539062" xlink:href="#DejaVuSans-6c"/>
     <use x="180.322266" xlink:href="#DejaVuSans-79"/>
     <use x="239.501953" xlink:href="#DejaVuSans-5f"/>
     <use x="289.501953" xlink:href="#DejaVuSans-72"/>
     <use x="328.365234" xlink:href="#DejaVuSans-65"/>
     <use x="389.888672" xlink:href="#DejaVuSans-70"/>
     <use x="453.365234" xlink:href="#DejaVuSans-6f"/>
     <use x="514.546875" xlink:href="#DejaVuSans-72"/>
     <use x="555.660156" xlink:href="#DejaVuSans-74"/>
    </g>
   </g>
   <g id="legend_1">
    <g id="patch_7">
     <path d="M 64.6 122.862625 
L 155.792188 122.862625 
Q 157.792188 122.862625 157.792188 120.862625 
L 157.792188 48.472 
Q 157.792188 46.472 155.792188 46.472 
L 64.6 46.472 
Q 62.6 46.472 62.6 48.472 
L 62.6 120.862625 
Q 62.6 122.862625 64.6 122.862625 
z
" style="fill:#ffffff;opacity:0.8;stroke:#cccccc;stroke-linejoin:miter;"/>
    </g>
    <g id="line2d_18">
     <path d="M 66.6 54.570437 
L 86.6 54.570437 
" style="fill:none;stroke:#0000ff;stroke-linecap:square;stroke-opacity:0.9;stroke-width:2;"/>
    </g>
    <g id="line2d_19"/>
    <g id="text_15">
     <!-- alpaca -->
     <g transform="translate(94.6 58.070437)scale(0.1 -0.1)">
      <defs>
       <path d="M 3122 3366 
L 3122 2828 
Q 2878 2963 2633 3030 
Q 2388 3097 2138 3097 
Q 1578 3097 1268 2742 
Q 959 2388 959 1747 
Q 959 1106 1268 751 
Q 1578 397 2138 397 
Q 2388 397 2633 464 
Q 2878 531 3122 666 
L 3122 134 
Q 2881 22 2623 -34 
Q 2366 -91 2075 -91 
Q 1284 -91 818 406 
Q 353 903 353 1747 
Q 353 2603 823 3093 
Q 1294 3584 2113 3584 
Q 2378 3584 2631 3529 
Q 2884 3475 3122 3366 
z
" id="DejaVuSans-63" transform="scale(0.015625)"/>
      </defs>
      <use xlink:href="#DejaVuSans-61"/>
      <use x="61.279297" xlink:href="#DejaVuSans-6c"/>
      <use x="89.0625" xlink:href="#DejaVuSans-70"/>
      <use x="152.539062" xlink:href="#DejaVuSans-61"/>
      <use x="213.818359" xlink:href="#DejaVuSans-63"/>
      <use x="268.798828" xlink:href="#DejaVuSans-61"/>
     </g>
    </g>
    <g id="line2d_20">
     <path d="M 66.6 69.248562 
L 86.6 69.248562 
" style="fill:none;stroke:#ff0000;stroke-linecap:square;stroke-opacity:0.9;stroke-width:2;"/>
    </g>
    <g id="line2d_21"/>
    <g id="text_16">
     <!-- mattress -->
     <g transform="translate(94.6 72.748562)scale(0.1 -0.1)">
      <defs>
       <path d="M 3328 2828 
Q 3544 3216 3844 3400 
Q 4144 3584 4550 3584 
Q 5097 3584 5394 3201 
Q 5691 2819 5691 2113 
L 5691 0 
L 5113 0 
L 5113 2094 
Q 5113 2597 4934 2840 
Q 4756 3084 4391 3084 
Q 3944 3084 3684 2787 
Q 3425 2491 3425 1978 
L 3425 0 
L 2847 0 
L 2847 2094 
Q 2847 2600 2669 2842 
Q 2491 3084 2119 3084 
Q 1678 3084 1418 2786 
Q 1159 2488 1159 1978 
L 1159 0 
L 581 0 
L 581 3500 
L 1159 3500 
L 1159 2956 
Q 1356 3278 1631 3431 
Q 1906 3584 2284 3584 
Q 2666 3584 2933 3390 
Q 3200 3197 3328 2828 
z
" id="DejaVuSans-6d" transform="scale(0.015625)"/>
       <path d="M 2834 3397 
L 2834 2853 
Q 2591 2978 2328 3040 
Q 2066 3103 1784 3103 
Q 1356 3103 1142 2972 
Q 928 2841 928 2578 
Q 928 2378 1081 2264 
Q 1234 2150 1697 2047 
L 1894 2003 
Q 2506 1872 2764 1633 
Q 3022 1394 3022 966 
Q 3022 478 2636 193 
Q 2250 -91 1575 -91 
Q 1294 -91 989 -36 
Q 684 19 347 128 
L 347 722 
Q 666 556 975 473 
Q 1284 391 1588 391 
Q 1994 391 2212 530 
Q 2431 669 2431 922 
Q 2431 1156 2273 1281 
Q 2116 1406 1581 1522 
L 1381 1569 
Q 847 1681 609 1914 
Q 372 2147 372 2553 
Q 372 3047 722 3315 
Q 1072 3584 1716 3584 
Q 2034 3584 2315 3537 
Q 2597 3491 2834 3397 
z
" id="DejaVuSans-73" transform="scale(0.015625)"/>
      </defs>
      <use xlink:href="#DejaVuSans-6d"/>
      <use x="97.412109" xlink:href="#DejaVuSans-61"/>
      <use x="158.691406" xlink:href="#DejaVuSans-74"/>
      <use x="197.900391" xlink:href="#DejaVuSans-74"/>
      <use x="237.109375" xlink:href="#DejaVuSans-72"/>
      <use x="275.972656" xlink:href="#DejaVuSans-65"/>
      <use x="337.496094" xlink:href="#DejaVuSans-73"/>
      <use x="389.595703" xlink:href="#DejaVuSans-73"/>
     </g>
    </g>
    <g id="line2d_22">
     <path d="M 66.6 83.926687 
L 86.6 83.926687 
" style="fill:none;stroke:#ff8040;stroke-linecap:square;stroke-opacity:0.9;stroke-width:2;"/>
    </g>
    <g id="line2d_23"/>
    <g id="text_17">
     <!-- trader-0850 -->
     <g transform="translate(94.6 87.426687)scale(0.1 -0.1)">
      <defs>
       <path d="M 2034 2216 
Q 1584 2216 1326 1975 
Q 1069 1734 1069 1313 
Q 1069 891 1326 650 
Q 1584 409 2034 409 
Q 2484 409 2743 651 
Q 3003 894 3003 1313 
Q 3003 1734 2745 1975 
Q 2488 2216 2034 2216 
z
M 1403 2484 
Q 997 2584 770 2862 
Q 544 3141 544 3541 
Q 544 4100 942 4425 
Q 1341 4750 2034 4750 
Q 2731 4750 3128 4425 
Q 3525 4100 3525 3541 
Q 3525 3141 3298 2862 
Q 3072 2584 2669 2484 
Q 3125 2378 3379 2068 
Q 3634 1759 3634 1313 
Q 3634 634 3220 271 
Q 2806 -91 2034 -91 
Q 1263 -91 848 271 
Q 434 634 434 1313 
Q 434 1759 690 2068 
Q 947 2378 1403 2484 
z
M 1172 3481 
Q 1172 3119 1398 2916 
Q 1625 2713 2034 2713 
Q 2441 2713 2670 2916 
Q 2900 3119 2900 3481 
Q 2900 3844 2670 4047 
Q 2441 4250 2034 4250 
Q 1625 4250 1398 4047 
Q 1172 3844 1172 3481 
z
" id="DejaVuSans-38" transform="scale(0.015625)"/>
      </defs>
      <use xlink:href="#DejaVuSans-74"/>
      <use x="39.208984" xlink:href="#DejaVuSans-72"/>
      <use x="80.322266" xlink:href="#DejaVuSans-61"/>
      <use x="141.601562" xlink:href="#DejaVuSans-64"/>
      <use x="205.078125" xlink:href="#DejaVuSans-65"/>
      <use x="266.601562" xlink:href="#DejaVuSans-72"/>
      <use x="301.339844" xlink:href="#DejaVuSans-2d"/>
      <use x="337.423828" xlink:href="#DejaVuSans-30"/>
      <use x="401.046875" xlink:href="#DejaVuSans-38"/>
      <use x="464.669922" xlink:href="#DejaVuSans-35"/>
      <use x="528.292969" xlink:href="#DejaVuSans-30"/>
     </g>
    </g>
    <g id="line2d_24">
     <path d="M 66.6 98.604812 
L 86.6 98.604812 
" style="fill:none;stroke:#0d0d0d;stroke-linecap:square;stroke-opacity:0.25;stroke-width:2;"/>
    </g>
    <g id="line2d_25"/>
    <g id="text_18">
     <!-- rando-min -->
     <g transform="translate(94.6 102.104812)scale(0.1 -0.1)">
      <defs>
       <path d="M 3513 2113 
L 3513 0 
L 2938 0 
L 2938 2094 
Q 2938 2591 2744 2837 
Q 2550 3084 2163 3084 
Q 1697 3084 1428 2787 
Q 1159 2491 1159 1978 
L 1159 0 
L 581 0 
L 581 3500 
L 1159 3500 
L 1159 2956 
Q 1366 3272 1645 3428 
Q 1925 3584 2291 3584 
Q 2894 3584 3203 3211 
Q 3513 2838 3513 2113 
z
" id="DejaVuSans-6e" transform="scale(0.015625)"/>
      </defs>
      <use xlink:href="#DejaVuSans-72"/>
      <use x="41.113281" xlink:href="#DejaVuSans-61"/>
      <use x="102.392578" xlink:href="#DejaVuSans-6e"/>
      <use x="165.771484" xlink:href="#DejaVuSans-64"/>
      <use x="229.248047" xlink:href="#DejaVuSans-6f"/>
      <use x="292.304688" xlink:href="#DejaVuSans-2d"/>
      <use x="328.388672" xlink:href="#DejaVuSans-6d"/>
      <use x="425.800781" xlink:href="#DejaVuSans-69"/>
      <use x="453.583984" xlink:href="#DejaVuSans-6e"/>
     </g>
    </g>
    <g id="line2d_26">
     <path d="M 66.6 113.282937 
L 86.6 113.282937 
" style="fill:none;stroke:#0d0d0d;stroke-linecap:square;stroke-opacity:0.25;stroke-width:2;"/>
    </g>
    <g id="line2d_27"/>
    <g id="text_19">
     <!-- rando-max -->
     <g transform="translate(94.6 116.782937)scale(0.1 -0.1)">
      <defs>
       <path d="M 3513 3500 
L 2247 1797 
L 3578 0 
L 2900 0 
L 1881 1375 
L 863 0 
L 184 0 
L 1544 1831 
L 300 3500 
L 978 3500 
L 1906 2253 
L 2834 3500 
L 3513 3500 
z
" id="DejaVuSans-78" transform="scale(0.015625)"/>
      </defs>
      <use xlink:href="#DejaVuSans-72"/>
      <use x="41.113281" xlink:href="#DejaVuSans-61"/>
      <use x="102.392578" xlink:href="#DejaVuSans-6e"/>
      <use x="165.771484" xlink:href="#DejaVuSans-64"/>
      <use x="229.248047" xlink:href="#DejaVuSans-6f"/>
      <use x="292.304688" xlink:href="#DejaVuSans-2d"/>
      <use x="328.388672" xlink:href="#DejaVuSans-6d"/>
      <use x="425.800781" xlink:href="#DejaVuSans-61"/>
      <use x="487.080078" xlink:href="#DejaVuSans-78"/>
     </g>
    </g>
   </g>
  </g>
 </g>
 <defs>
  <clipPath id="paee37a8f47">
   <rect height="235.008" width="357.12" x="57.6" y="41.472"/>
  </clipPath>
 </defs>
</svg>
