<?xml version="1.0" encoding="utf-8" standalone="no"?>
<!DOCTYPE svg PUBLIC "-//W3C//DTD SVG 1.1//EN"
  "http://www.w3.org/Graphics/SVG/1.1/DTD/svg11.dtd">
<svg height="345.6pt" version="1.1" viewBox="0 0 460.8 345.6" width="460.8pt" xmlns="http://www.w3.org/2000/svg" xmlns:xlink="http://www.w3.org/1999/xlink">
 <metadata>
  <rdf:RDF xmlns:cc="http://creativecommons.org/ns#" xmlns:dc="http://purl.org/dc/elements/1.1/" xmlns:rdf="http://www.w3.org/1999/02/22-rdf-syntax-ns#">
   <cc:Work>
    <dc:type rdf:resource="http://purl.org/dc/dcmitype/StillImage"/>
    <dc:date>2022-04-14T10:01:46.590682</dc:date>
    <dc:format>image/svg+xml</dc:format>
    <dc:creator>
     <cc:Agent>
      <dc:title>Matplotlib v3.4.3, https://matplotlib.org/</dc:title>
     </cc:Agent>
    </dc:creator>
   </cc:Work>
  </rdf:RDF>
 </metadata>
 <defs>
  <style type="text/css">*{stroke-linecap:butt;stroke-linejoin:round;}</style>
 </defs>
 <g id="figure_1">
  <g id="patch_1">
   <path d="M 0 345.6 
L 460.8 345.6 
L 460.8 0 
L 0 0 
z
" style="fill:#ffffff;"/>
  </g>
  <g id="axes_1">
   <g id="patch_2">
    <path d="M 57.6 276.48 
L 414.72 276.48 
L 414.72 41.472 
L 57.6 41.472 
z
" style="fill:#ffffff;"/>
   </g>
   <g id="matplotlib.axis_1">
    <g id="xtick_1">
     <g id="line2d_1">
      <defs>
       <path d="M 0 0 
L 0 3.5 
" id="m3fead42ad4" style="stroke:#000000;stroke-width:0.8;"/>
      </defs>
      <g>
       <use style="stroke:#000000;stroke-width:0.8;" x="102.740324" xlink:href="#m3fead42ad4" y="276.48"/>
      </g>
     </g>
     <g id="text_1">
      <!-- 2021-12 -->
      <g transform="translate(65.515503 310.951846)rotate(-30)scale(0.1 -0.1)">
       <defs>
        <path d="M 1228 531 
L 3431 531 
L 3431 0 
L 469 0 
L 469 531 
Q 828 903 1448 1529 
Q 2069 2156 2228 2338 
Q 2531 2678 2651 2914 
Q 2772 3150 2772 3378 
Q 2772 3750 2511 3984 
Q 2250 4219 1831 4219 
Q 1534 4219 1204 4116 
Q 875 4013 500 3803 
L 500 4441 
Q 881 4594 1212 4672 
Q 1544 4750 1819 4750 
Q 2544 4750 2975 4387 
Q 3406 4025 3406 3419 
Q 3406 3131 3298 2873 
Q 3191 2616 2906 2266 
Q 2828 2175 2409 1742 
Q 1991 1309 1228 531 
z
" id="DejaVuSans-32" transform="scale(0.015625)"/>
        <path d="M 2034 4250 
Q 1547 4250 1301 3770 
Q 1056 3291 1056 2328 
Q 1056 1369 1301 889 
Q 1547 409 2034 409 
Q 2525 409 2770 889 
Q 3016 1369 3016 2328 
Q 3016 3291 2770 3770 
Q 2525 4250 2034 4250 
z
M 2034 4750 
Q 2819 4750 3233 4129 
Q 3647 3509 3647 2328 
Q 3647 1150 3233 529 
Q 2819 -91 2034 -91 
Q 1250 -91 836 529 
Q 422 1150 422 2328 
Q 422 3509 836 4129 
Q 1250 4750 2034 4750 
z
" id="DejaVuSans-30" transform="scale(0.015625)"/>
        <path d="M 794 531 
L 1825 531 
L 1825 4091 
L 703 3866 
L 703 4441 
L 1819 4666 
L 2450 4666 
L 2450 531 
L 3481 531 
L 3481 0 
L 794 0 
L 794 531 
z
" id="DejaVuSans-31" transform="scale(0.015625)"/>
        <path d="M 313 2009 
L 1997 2009 
L 1997 1497 
L 313 1497 
L 313 2009 
z
" id="DejaVuSans-2d" transform="scale(0.015625)"/>
       </defs>
       <use xlink:href="#DejaVuSans-32"/>
       <use x="63.623047" xlink:href="#DejaVuSans-30"/>
       <use x="127.246094" xlink:href="#DejaVuSans-32"/>
       <use x="190.869141" xlink:href="#DejaVuSans-31"/>
       <use x="254.492188" xlink:href="#DejaVuSans-2d"/>
       <use x="290.576172" xlink:href="#DejaVuSans-31"/>
       <use x="354.199219" xlink:href="#DejaVuSans-32"/>
      </g>
     </g>
    </g>
    <g id="xtick_2">
     <g id="line2d_2">
      <g>
       <use style="stroke:#000000;stroke-width:0.8;" x="171.673823" xlink:href="#m3fead42ad4" y="276.48"/>
      </g>
     </g>
     <g id="text_2">
      <!-- 2022-01 -->
      <g transform="translate(134.449002 310.951846)rotate(-30)scale(0.1 -0.1)">
       <use xlink:href="#DejaVuSans-32"/>
       <use x="63.623047" xlink:href="#DejaVuSans-30"/>
       <use x="127.246094" xlink:href="#DejaVuSans-32"/>
       <use x="190.869141" xlink:href="#DejaVuSans-32"/>
       <use x="254.492188" xlink:href="#DejaVuSans-2d"/>
       <use x="290.576172" xlink:href="#DejaVuSans-30"/>
       <use x="354.199219" xlink:href="#DejaVuSans-31"/>
      </g>
     </g>
    </g>
    <g id="xtick_3">
     <g id="line2d_3">
      <g>
       <use style="stroke:#000000;stroke-width:0.8;" x="240.607323" xlink:href="#m3fead42ad4" y="276.48"/>
      </g>
     </g>
     <g id="text_3">
      <!-- 2022-02 -->
      <g transform="translate(203.382502 310.951846)rotate(-30)scale(0.1 -0.1)">
       <use xlink:href="#DejaVuSans-32"/>
       <use x="63.623047" xlink:href="#DejaVuSans-30"/>
       <use x="127.246094" xlink:href="#DejaVuSans-32"/>
       <use x="190.869141" xlink:href="#DejaVuSans-32"/>
       <use x="254.492188" xlink:href="#DejaVuSans-2d"/>
       <use x="290.576172" xlink:href="#DejaVuSans-30"/>
       <use x="354.199219" xlink:href="#DejaVuSans-32"/>
      </g>
     </g>
    </g>
    <g id="xtick_4">
     <g id="line2d_4">
      <g>
       <use style="stroke:#000000;stroke-width:0.8;" x="302.869838" xlink:href="#m3fead42ad4" y="276.48"/>
      </g>
     </g>
     <g id="text_4">
      <!-- 2022-03 -->
      <g transform="translate(265.645017 310.951846)rotate(-30)scale(0.1 -0.1)">
       <defs>
        <path d="M 2597 2516 
Q 3050 2419 3304 2112 
Q 3559 1806 3559 1356 
Q 3559 666 3084 287 
Q 2609 -91 1734 -91 
Q 1441 -91 1130 -33 
Q 819 25 488 141 
L 488 750 
Q 750 597 1062 519 
Q 1375 441 1716 441 
Q 2309 441 2620 675 
Q 2931 909 2931 1356 
Q 2931 1769 2642 2001 
Q 2353 2234 1838 2234 
L 1294 2234 
L 1294 2753 
L 1863 2753 
Q 2328 2753 2575 2939 
Q 2822 3125 2822 3475 
Q 2822 3834 2567 4026 
Q 2313 4219 1838 4219 
Q 1578 4219 1281 4162 
Q 984 4106 628 3988 
L 628 4550 
Q 988 4650 1302 4700 
Q 1616 4750 1894 4750 
Q 2613 4750 3031 4423 
Q 3450 4097 3450 3541 
Q 3450 3153 3228 2886 
Q 3006 2619 2597 2516 
z
" id="DejaVuSans-33" transform="scale(0.015625)"/>
       </defs>
       <use xlink:href="#DejaVuSans-32"/>
       <use x="63.623047" xlink:href="#DejaVuSans-30"/>
       <use x="127.246094" xlink:href="#DejaVuSans-32"/>
       <use x="190.869141" xlink:href="#DejaVuSans-32"/>
       <use x="254.492188" xlink:href="#DejaVuSans-2d"/>
       <use x="290.576172" xlink:href="#DejaVuSans-30"/>
       <use x="354.199219" xlink:href="#DejaVuSans-33"/>
      </g>
     </g>
    </g>
    <g id="xtick_5">
     <g id="line2d_5">
      <g>
       <use style="stroke:#000000;stroke-width:0.8;" x="371.803337" xlink:href="#m3fead42ad4" y="276.48"/>
      </g>
     </g>
     <g id="text_5">
      <!-- 2022-04 -->
      <g transform="translate(334.578517 310.951846)rotate(-30)scale(0.1 -0.1)">
       <defs>
        <path d="M 2419 4116 
L 825 1625 
L 2419 1625 
L 2419 4116 
z
M 2253 4666 
L 3047 4666 
L 3047 1625 
L 3713 1625 
L 3713 1100 
L 3047 1100 
L 3047 0 
L 2419 0 
L 2419 1100 
L 313 1100 
L 313 1709 
L 2253 4666 
z
" id="DejaVuSans-34" transform="scale(0.015625)"/>
       </defs>
       <use xlink:href="#DejaVuSans-32"/>
       <use x="63.623047" xlink:href="#DejaVuSans-30"/>
       <use x="127.246094" xlink:href="#DejaVuSans-32"/>
       <use x="190.869141" xlink:href="#DejaVuSans-32"/>
       <use x="254.492188" xlink:href="#DejaVuSans-2d"/>
       <use x="290.576172" xlink:href="#DejaVuSans-30"/>
       <use x="354.199219" xlink:href="#DejaVuSans-34"/>
      </g>
     </g>
    </g>
    <g id="text_6">
     <!-- date -->
     <g transform="translate(224.885 324.351346)scale(0.1 -0.1)">
      <defs>
       <path d="M 2906 2969 
L 2906 4863 
L 3481 4863 
L 3481 0 
L 2906 0 
L 2906 525 
Q 2725 213 2448 61 
Q 2172 -91 1784 -91 
Q 1150 -91 751 415 
Q 353 922 353 1747 
Q 353 2572 751 3078 
Q 1150 3584 1784 3584 
Q 2172 3584 2448 3432 
Q 2725 3281 2906 2969 
z
M 947 1747 
Q 947 1113 1208 752 
Q 1469 391 1925 391 
Q 2381 391 2643 752 
Q 2906 1113 2906 1747 
Q 2906 2381 2643 2742 
Q 2381 3103 1925 3103 
Q 1469 3103 1208 2742 
Q 947 2381 947 1747 
z
" id="DejaVuSans-64" transform="scale(0.015625)"/>
       <path d="M 2194 1759 
Q 1497 1759 1228 1600 
Q 959 1441 959 1056 
Q 959 750 1161 570 
Q 1363 391 1709 391 
Q 2188 391 2477 730 
Q 2766 1069 2766 1631 
L 2766 1759 
L 2194 1759 
z
M 3341 1997 
L 3341 0 
L 2766 0 
L 2766 531 
Q 2569 213 2275 61 
Q 1981 -91 1556 -91 
Q 1019 -91 701 211 
Q 384 513 384 1019 
Q 384 1609 779 1909 
Q 1175 2209 1959 2209 
L 2766 2209 
L 2766 2266 
Q 2766 2663 2505 2880 
Q 2244 3097 1772 3097 
Q 1472 3097 1187 3025 
Q 903 2953 641 2809 
L 641 3341 
Q 956 3463 1253 3523 
Q 1550 3584 1831 3584 
Q 2591 3584 2966 3190 
Q 3341 2797 3341 1997 
z
" id="DejaVuSans-61" transform="scale(0.015625)"/>
       <path d="M 1172 4494 
L 1172 3500 
L 2356 3500 
L 2356 3053 
L 1172 3053 
L 1172 1153 
Q 1172 725 1289 603 
Q 1406 481 1766 481 
L 2356 481 
L 2356 0 
L 1766 0 
Q 1100 0 847 248 
Q 594 497 594 1153 
L 594 3053 
L 172 3053 
L 172 3500 
L 594 3500 
L 594 4494 
L 1172 4494 
z
" id="DejaVuSans-74" transform="scale(0.015625)"/>
       <path d="M 3597 1894 
L 3597 1613 
L 953 1613 
Q 991 1019 1311 708 
Q 1631 397 2203 397 
Q 2534 397 2845 478 
Q 3156 559 3463 722 
L 3463 178 
Q 3153 47 2828 -22 
Q 2503 -91 2169 -91 
Q 1331 -91 842 396 
Q 353 884 353 1716 
Q 353 2575 817 3079 
Q 1281 3584 2069 3584 
Q 2775 3584 3186 3129 
Q 3597 2675 3597 1894 
z
M 3022 2063 
Q 3016 2534 2758 2815 
Q 2500 3097 2075 3097 
Q 1594 3097 1305 2825 
Q 1016 2553 972 2059 
L 3022 2063 
z
" id="DejaVuSans-65" transform="scale(0.015625)"/>
      </defs>
      <use xlink:href="#DejaVuSans-64"/>
      <use x="63.476562" xlink:href="#DejaVuSans-61"/>
      <use x="124.755859" xlink:href="#DejaVuSans-74"/>
      <use x="163.964844" xlink:href="#DejaVuSans-65"/>
     </g>
    </g>
   </g>
   <g id="matplotlib.axis_2">
    <g id="ytick_1">
     <g id="line2d_6">
      <defs>
       <path d="M 0 0 
L -3.5 0 
" id="mc0be729bfe" style="stroke:#000000;stroke-width:0.8;"/>
      </defs>
      <g>
       <use style="stroke:#000000;stroke-width:0.8;" x="57.6" xlink:href="#mc0be729bfe" y="274.643054"/>
      </g>
     </g>
     <g id="text_7">
      <!-- 84000 -->
      <g transform="translate(18.7875 278.442272)scale(0.1 -0.1)">
       <defs>
        <path d="M 2034 2216 
Q 1584 2216 1326 1975 
Q 1069 1734 1069 1313 
Q 1069 891 1326 650 
Q 1584 409 2034 409 
Q 2484 409 2743 651 
Q 3003 894 3003 1313 
Q 3003 1734 2745 1975 
Q 2488 2216 2034 2216 
z
M 1403 2484 
Q 997 2584 770 2862 
Q 544 3141 544 3541 
Q 544 4100 942 4425 
Q 1341 4750 2034 4750 
Q 2731 4750 3128 4425 
Q 3525 4100 3525 3541 
Q 3525 3141 3298 2862 
Q 3072 2584 2669 2484 
Q 3125 2378 3379 2068 
Q 3634 1759 3634 1313 
Q 3634 634 3220 271 
Q 2806 -91 2034 -91 
Q 1263 -91 848 271 
Q 434 634 434 1313 
Q 434 1759 690 2068 
Q 947 2378 1403 2484 
z
M 1172 3481 
Q 1172 3119 1398 2916 
Q 1625 2713 2034 2713 
Q 2441 2713 2670 2916 
Q 2900 3119 2900 3481 
Q 2900 3844 2670 4047 
Q 2441 4250 2034 4250 
Q 1625 4250 1398 4047 
Q 1172 3844 1172 3481 
z
" id="DejaVuSans-38" transform="scale(0.015625)"/>
       </defs>
       <use xlink:href="#DejaVuSans-38"/>
       <use x="63.623047" xlink:href="#DejaVuSans-34"/>
       <use x="127.246094" xlink:href="#DejaVuSans-30"/>
       <use x="190.869141" xlink:href="#DejaVuSans-30"/>
       <use x="254.492188" xlink:href="#DejaVuSans-30"/>
      </g>
     </g>
    </g>
    <g id="ytick_2">
     <g id="line2d_7">
      <g>
       <use style="stroke:#000000;stroke-width:0.8;" x="57.6" xlink:href="#mc0be729bfe" y="246.433406"/>
      </g>
     </g>
     <g id="text_8">
      <!-- 86000 -->
      <g transform="translate(18.7875 250.232625)scale(0.1 -0.1)">
       <defs>
        <path d="M 2113 2584 
Q 1688 2584 1439 2293 
Q 1191 2003 1191 1497 
Q 1191 994 1439 701 
Q 1688 409 2113 409 
Q 2538 409 2786 701 
Q 3034 994 3034 1497 
Q 3034 2003 2786 2293 
Q 2538 2584 2113 2584 
z
M 3366 4563 
L 3366 3988 
Q 3128 4100 2886 4159 
Q 2644 4219 2406 4219 
Q 1781 4219 1451 3797 
Q 1122 3375 1075 2522 
Q 1259 2794 1537 2939 
Q 1816 3084 2150 3084 
Q 2853 3084 3261 2657 
Q 3669 2231 3669 1497 
Q 3669 778 3244 343 
Q 2819 -91 2113 -91 
Q 1303 -91 875 529 
Q 447 1150 447 2328 
Q 447 3434 972 4092 
Q 1497 4750 2381 4750 
Q 2619 4750 2861 4703 
Q 3103 4656 3366 4563 
z
" id="DejaVuSans-36" transform="scale(0.015625)"/>
       </defs>
       <use xlink:href="#DejaVuSans-38"/>
       <use x="63.623047" xlink:href="#DejaVuSans-36"/>
       <use x="127.246094" xlink:href="#DejaVuSans-30"/>
       <use x="190.869141" xlink:href="#DejaVuSans-30"/>
       <use x="254.492188" xlink:href="#DejaVuSans-30"/>
      </g>
     </g>
    </g>
    <g id="ytick_3">
     <g id="line2d_8">
      <g>
       <use style="stroke:#000000;stroke-width:0.8;" x="57.6" xlink:href="#mc0be729bfe" y="218.223758"/>
      </g>
     </g>
     <g id="text_9">
      <!-- 88000 -->
      <g transform="translate(18.7875 222.022977)scale(0.1 -0.1)">
       <use xlink:href="#DejaVuSans-38"/>
       <use x="63.623047" xlink:href="#DejaVuSans-38"/>
       <use x="127.246094" xlink:href="#DejaVuSans-30"/>
       <use x="190.869141" xlink:href="#DejaVuSans-30"/>
       <use x="254.492188" xlink:href="#DejaVuSans-30"/>
      </g>
     </g>
    </g>
    <g id="ytick_4">
     <g id="line2d_9">
      <g>
       <use style="stroke:#000000;stroke-width:0.8;" x="57.6" xlink:href="#mc0be729bfe" y="190.01411"/>
      </g>
     </g>
     <g id="text_10">
      <!-- 90000 -->
      <g transform="translate(18.7875 193.813329)scale(0.1 -0.1)">
       <defs>
        <path d="M 703 97 
L 703 672 
Q 941 559 1184 500 
Q 1428 441 1663 441 
Q 2288 441 2617 861 
Q 2947 1281 2994 2138 
Q 2813 1869 2534 1725 
Q 2256 1581 1919 1581 
Q 1219 1581 811 2004 
Q 403 2428 403 3163 
Q 403 3881 828 4315 
Q 1253 4750 1959 4750 
Q 2769 4750 3195 4129 
Q 3622 3509 3622 2328 
Q 3622 1225 3098 567 
Q 2575 -91 1691 -91 
Q 1453 -91 1209 -44 
Q 966 3 703 97 
z
M 1959 2075 
Q 2384 2075 2632 2365 
Q 2881 2656 2881 3163 
Q 2881 3666 2632 3958 
Q 2384 4250 1959 4250 
Q 1534 4250 1286 3958 
Q 1038 3666 1038 3163 
Q 1038 2656 1286 2365 
Q 1534 2075 1959 2075 
z
" id="DejaVuSans-39" transform="scale(0.015625)"/>
       </defs>
       <use xlink:href="#DejaVuSans-39"/>
       <use x="63.623047" xlink:href="#DejaVuSans-30"/>
       <use x="127.246094" xlink:href="#DejaVuSans-30"/>
       <use x="190.869141" xlink:href="#DejaVuSans-30"/>
       <use x="254.492188" xlink:href="#DejaVuSans-30"/>
      </g>
     </g>
    </g>
    <g id="ytick_5">
     <g id="line2d_10">
      <g>
       <use style="stroke:#000000;stroke-width:0.8;" x="57.6" xlink:href="#mc0be729bfe" y="161.804463"/>
      </g>
     </g>
     <g id="text_11">
      <!-- 92000 -->
      <g transform="translate(18.7875 165.603681)scale(0.1 -0.1)">
       <use xlink:href="#DejaVuSans-39"/>
       <use x="63.623047" xlink:href="#DejaVuSans-32"/>
       <use x="127.246094" xlink:href="#DejaVuSans-30"/>
       <use x="190.869141" xlink:href="#DejaVuSans-30"/>
       <use x="254.492188" xlink:href="#DejaVuSans-30"/>
      </g>
     </g>
    </g>
    <g id="ytick_6">
     <g id="line2d_11">
      <g>
       <use style="stroke:#000000;stroke-width:0.8;" x="57.6" xlink:href="#mc0be729bfe" y="133.594815"/>
      </g>
     </g>
     <g id="text_12">
      <!-- 94000 -->
      <g transform="translate(18.7875 137.394034)scale(0.1 -0.1)">
       <use xlink:href="#DejaVuSans-39"/>
       <use x="63.623047" xlink:href="#DejaVuSans-34"/>
       <use x="127.246094" xlink:href="#DejaVuSans-30"/>
       <use x="190.869141" xlink:href="#DejaVuSans-30"/>
       <use x="254.492188" xlink:href="#DejaVuSans-30"/>
      </g>
     </g>
    </g>
    <g id="ytick_7">
     <g id="line2d_12">
      <g>
       <use style="stroke:#000000;stroke-width:0.8;" x="57.6" xlink:href="#mc0be729bfe" y="105.385167"/>
      </g>
     </g>
     <g id="text_13">
      <!-- 96000 -->
      <g transform="translate(18.7875 109.184386)scale(0.1 -0.1)">
       <use xlink:href="#DejaVuSans-39"/>
       <use x="63.623047" xlink:href="#DejaVuSans-36"/>
       <use x="127.246094" xlink:href="#DejaVuSans-30"/>
       <use x="190.869141" xlink:href="#DejaVuSans-30"/>
       <use x="254.492188" xlink:href="#DejaVuSans-30"/>
      </g>
     </g>
    </g>
    <g id="ytick_8">
     <g id="line2d_13">
      <g>
       <use style="stroke:#000000;stroke-width:0.8;" x="57.6" xlink:href="#mc0be729bfe" y="77.175519"/>
      </g>
     </g>
     <g id="text_14">
      <!-- 98000 -->
      <g transform="translate(18.7875 80.974738)scale(0.1 -0.1)">
       <use xlink:href="#DejaVuSans-39"/>
       <use x="63.623047" xlink:href="#DejaVuSans-38"/>
       <use x="127.246094" xlink:href="#DejaVuSans-30"/>
       <use x="190.869141" xlink:href="#DejaVuSans-30"/>
       <use x="254.492188" xlink:href="#DejaVuSans-30"/>
      </g>
     </g>
    </g>
    <g id="ytick_9">
     <g id="line2d_14">
      <g>
       <use style="stroke:#000000;stroke-width:0.8;" x="57.6" xlink:href="#mc0be729bfe" y="48.965871"/>
      </g>
     </g>
     <g id="text_15">
      <!-- 100000 -->
      <g transform="translate(12.425 52.76509)scale(0.1 -0.1)">
       <use xlink:href="#DejaVuSans-31"/>
       <use x="63.623047" xlink:href="#DejaVuSans-30"/>
       <use x="127.246094" xlink:href="#DejaVuSans-30"/>
       <use x="190.869141" xlink:href="#DejaVuSans-30"/>
       <use x="254.492188" xlink:href="#DejaVuSans-30"/>
       <use x="318.115234" xlink:href="#DejaVuSans-30"/>
      </g>
     </g>
    </g>
   </g>
   <g id="line2d_15">
    <path clip-path="url(#p01ffd9174c)" d="M 73.832727 52.154182 
L 76.056389 58.43956 
L 82.727372 68.385802 
L 84.951034 69.997901 
L 87.174695 70.181813 
L 91.622017 70.231457 
L 98.293001 97.204182 
L 100.516663 114.96456 
L 102.740324 130.113468 
L 104.963985 109.266211 
L 107.187646 124.24252 
L 113.85863 109.398781 
L 116.082291 81.564052 
L 118.305953 75.63111 
L 120.529614 89.501883 
L 122.753275 85.12184 
L 129.424259 100.932038 
L 131.64792 109.135965 
L 133.871582 95.678273 
L 136.095243 103.714415 
L 138.318904 111.454176 
L 144.989888 134.561298 
L 147.213549 112.021333 
L 149.43721 99.366954 
L 151.660872 90.718028 
L 160.555517 81.087271 
L 162.779178 83.569498 
L 165.002839 84.165335 
L 167.226501 83.439467 
L 169.450162 85.756 
L 176.121146 76.771819 
L 178.344807 79.254282 
L 180.568468 104.520571 
L 182.79213 104.589067 
L 185.015791 105.391641 
L 191.686775 109.851758 
L 193.910436 91.479442 
L 196.134097 83.150883 
L 198.357758 100.016951 
L 200.58142 101.642181 
L 209.476065 125.857151 
L 211.699726 132.910067 
L 213.923387 140.717164 
L 216.147049 164.992233 
L 222.818032 165.749475 
L 225.041694 178.100991 
L 227.265355 186.835623 
L 229.489016 198.59394 
L 231.712677 180.233988 
L 238.383661 149.091003 
L 240.607323 138.150704 
L 242.830984 134.366973 
L 245.054645 158.350246 
L 247.278306 152.21459 
L 253.94929 152.379905 
L 256.172951 140.923629 
L 258.396613 118.123158 
L 260.620274 135.441873 
L 262.843935 157.401808 
L 269.514919 164.40183 
L 271.73858 138.869558 
L 273.962242 134.578445 
L 276.185903 160.969132 
L 278.409564 170.139746 
L 287.304209 186.885712 
L 289.52787 205.86484 
L 291.751532 202.586249 
L 293.975193 173.23496 
L 300.646177 182.184366 
L 302.869838 202.084444 
L 305.093499 185.501135 
L 307.317161 202.244933 
L 309.540822 224.304744 
L 316.211806 264.061773 
L 318.435467 262.252753 
L 320.659128 224.872394 
L 322.88279 236.141777 
L 325.106451 253.261606 
L 331.777435 265.456727 
L 334.001096 249.727265 
L 336.224757 201.999654 
L 338.448418 191.648631 
L 340.67208 176.036095 
L 347.343064 183.11337 
L 349.566725 167.598847 
L 351.790386 184.914665 
L 354.014047 172.113861 
L 356.237709 172.454408 
L 362.908692 168.094863 
L 365.132354 144.838702 
L 367.356015 153.512014 
L 369.579676 172.904428 
L 371.803337 162.065493 
L 378.474321 150.28286 
L 380.697983 170.973212 
L 382.921644 186.568362 
L 385.145305 186.771271 
L 387.368966 189.394284 
L 394.03995 204.715995 
L 396.263611 209.462908 
L 398.487273 196.295299 
" style="fill:none;stroke:#0000ff;stroke-linecap:square;stroke-opacity:0.9;stroke-width:2;"/>
   </g>
   <g id="line2d_16">
    <path clip-path="url(#p01ffd9174c)" d="M 73.832727 52.154182 
L 76.056389 58.663159 
L 82.727372 69.335591 
L 84.951034 70.157333 
L 87.174695 69.754474 
L 91.622017 105.78412 
L 98.293001 97.623803 
L 100.516663 114.855782 
L 102.740324 129.040052 
L 104.963985 108.383681 
L 107.187646 123.491757 
L 113.85863 109.541104 
L 116.082291 81.991104 
L 118.305953 75.430433 
L 120.529614 89.77624 
L 122.753275 86.028752 
L 129.424259 101.919865 
L 131.64792 109.642784 
L 133.871582 95.002463 
L 136.095243 103.760748 
L 138.318904 112.296019 
L 144.989888 135.469814 
L 147.213549 111.194273 
L 149.43721 100.415267 
L 151.660872 90.710514 
L 160.555517 80.282652 
L 162.779178 83.63017 
L 165.002839 84.879323 
L 167.226501 83.023821 
L 169.450162 86.178234 
L 176.121146 77.574956 
L 178.344807 79.389051 
L 180.568468 104.862575 
L 182.79213 105.037529 
L 185.015791 105.919406 
L 191.686775 109.289173 
L 193.910436 91.53083 
L 196.134097 83.195926 
L 198.357758 100.726397 
L 200.58142 100.26799 
L 209.476065 125.990194 
L 211.699726 130.709229 
L 213.923387 140.729464 
L 216.147049 163.850228 
L 222.818032 166.063683 
L 225.041694 177.088701 
L 227.265355 186.507224 
L 229.489016 196.85343 
L 231.712677 179.468354 
L 238.383661 149.026586 
L 240.607323 137.615699 
L 242.830984 133.800167 
L 245.054645 158.211495 
L 247.278306 151.577409 
L 253.94929 151.881984 
L 256.172951 140.238436 
L 258.396613 118.621631 
L 260.620274 135.266539 
L 262.843935 156.919757 
L 269.514919 164.364684 
L 271.73858 138.778601 
L 273.962242 134.883126 
L 276.185903 159.992701 
L 278.409564 170.628803 
L 287.304209 185.973446 
L 289.52787 204.017805 
L 291.751532 201.946004 
L 293.975193 174.336924 
L 300.646177 182.0234 
L 302.869838 202.647282 
L 305.093499 185.710836 
L 307.317161 202.887769 
L 309.540822 224.882635 
L 316.211806 263.383667 
L 318.435467 263.063534 
L 320.659128 225.078214 
L 322.88279 236.208455 
L 325.106451 254.330391 
L 331.777435 265.66648 
L 334.001096 249.755937 
L 336.224757 203.00844 
L 338.448418 191.710581 
L 340.67208 175.643947 
L 347.343064 185.148018 
L 349.566725 168.609813 
L 351.790386 185.656121 
L 354.014047 172.907794 
L 356.237709 173.186712 
L 362.908692 168.420037 
L 365.132354 145.918424 
L 367.356015 154.831622 
L 369.579676 174.738158 
L 371.803337 162.816441 
L 378.474321 151.299378 
L 380.697983 171.869687 
L 382.921644 186.868562 
L 385.145305 187.453533 
L 387.368966 189.982754 
L 394.03995 205.794077 
L 396.263611 210.591929 
L 398.487273 194.404227 
" style="fill:none;stroke:#ff0000;stroke-linecap:square;stroke-opacity:0.9;stroke-width:2;"/>
   </g>
   <g id="line2d_17">
    <path clip-path="url(#p01ffd9174c)" d="M 73.832727 52.154182 
L 76.056389 58.364954 
L 82.727372 68.660517 
L 84.951034 69.907182 
L 87.174695 69.274616 
L 91.622017 105.444902 
L 98.293001 96.900854 
L 100.516663 115.613303 
L 102.740324 129.368369 
L 104.963985 108.777076 
L 107.187646 123.569483 
L 113.85863 110.167286 
L 116.082291 82.416534 
L 118.305953 75.310233 
L 120.529614 89.559858 
L 122.753275 85.916618 
L 129.424259 101.393826 
L 131.64792 109.67778 
L 133.871582 95.905191 
L 136.095243 104.132661 
L 138.318904 111.088991 
L 144.989888 135.37965 
L 147.213549 111.682906 
L 149.43721 99.848505 
L 151.660872 91.328529 
L 160.555517 81.049026 
L 162.779178 83.587683 
L 165.002839 84.689278 
L 167.226501 83.423163 
L 169.450162 86.307469 
L 176.121146 76.642501 
L 178.344807 79.388362 
L 180.568468 104.088585 
L 182.79213 104.254575 
L 185.015791 104.740042 
L 191.686775 109.402248 
L 193.910436 91.604706 
L 196.134097 83.000786 
L 198.357758 100.597725 
L 200.58142 100.794063 
L 209.476065 126.314175 
L 211.699726 132.512996 
L 213.923387 141.205009 
L 216.147049 164.492097 
L 222.818032 166.081554 
L 225.041694 177.788907 
L 227.265355 187.363132 
L 229.489016 198.57281 
L 231.712677 180.580817 
L 238.383661 149.695497 
L 240.607323 137.94805 
L 242.830984 134.493846 
L 245.054645 159.167805 
L 247.278306 152.324412 
L 253.94929 152.321634 
L 256.172951 141.607964 
L 258.396613 118.046365 
L 260.620274 135.864964 
L 262.843935 158.555267 
L 269.514919 164.587243 
L 271.73858 138.511049 
L 273.962242 134.540234 
L 276.185903 160.859521 
L 278.409564 170.109269 
L 287.304209 186.861601 
L 289.52787 204.74864 
L 291.751532 202.509863 
L 293.975193 174.494427 
L 300.646177 181.36052 
L 302.869838 202.948622 
L 305.093499 186.002689 
L 307.317161 201.328331 
L 309.540822 223.49086 
L 316.211806 263.94945 
L 318.435467 262.608094 
L 320.659128 225.926871 
L 322.88279 235.380266 
L 325.106451 254.114569 
L 331.777435 265.793872 
L 334.001096 249.987713 
L 336.224757 201.879431 
L 338.448418 190.928328 
L 340.67208 175.145195 
L 347.343064 183.656074 
L 349.566725 168.33642 
L 351.790386 185.359055 
L 354.014047 172.343572 
L 356.237709 172.077176 
L 362.908692 168.610078 
L 365.132354 145.255795 
L 367.356015 154.081054 
L 369.579676 173.255558 
L 371.803337 161.969845 
L 378.474321 149.824669 
L 380.697983 170.640348 
L 382.921644 187.466699 
L 385.145305 186.863558 
L 387.368966 189.255627 
L 394.03995 204.832849 
L 396.263611 210.646714 
L 398.487273 192.778869 
" style="fill:none;stroke:#008000;stroke-linecap:square;stroke-opacity:0.9;stroke-width:2;"/>
   </g>
   <g id="line2d_18">
    <path clip-path="url(#p01ffd9174c)" d="M 73.832727 52.154182 
L 76.056389 58.206793 
L 82.727372 69.18177 
L 84.951034 70.506324 
L 87.174695 69.904468 
L 91.622017 105.391583 
L 98.293001 97.339819 
L 100.516663 115.356626 
L 102.740324 129.50354 
L 104.963985 108.8697 
L 107.187646 124.022168 
L 113.85863 109.367703 
L 116.082291 81.648869 
L 118.305953 75.864917 
L 120.529614 89.183367 
L 122.753275 85.366882 
L 129.424259 100.896944 
L 131.64792 109.937852 
L 133.871582 95.209392 
L 136.095243 103.575985 
L 138.318904 112.063109 
L 144.989888 135.154261 
L 147.213549 111.534484 
L 149.43721 100.157062 
L 151.660872 90.410675 
L 160.555517 80.42711 
L 162.779178 84.36188 
L 165.002839 84.443437 
L 167.226501 83.071714 
L 169.450162 85.940383 
L 176.121146 77.359513 
L 178.344807 79.575064 
L 180.568468 104.953874 
L 182.79213 104.613085 
L 185.015791 105.515155 
L 191.686775 109.15889 
L 193.910436 91.806887 
L 196.134097 83.390693 
L 198.357758 101.11615 
L 200.58142 100.99549 
L 209.476065 126.667535 
L 211.699726 131.654033 
L 213.923387 141.583382 
L 216.147049 164.8382 
L 222.818032 166.670822 
L 225.041694 178.485718 
L 227.265355 186.871477 
L 229.489016 198.693487 
L 231.712677 179.88727 
L 238.383661 150.177032 
L 240.607323 137.814787 
L 242.830984 135.078128 
L 245.054645 158.547447 
L 247.278306 152.091464 
L 253.94929 151.998613 
L 256.172951 140.312867 
L 258.396613 118.796171 
L 260.620274 135.732781 
L 262.843935 157.863927 
L 269.514919 165.250147 
L 271.73858 138.231674 
L 273.962242 134.598605 
L 276.185903 161.034707 
L 278.409564 170.563189 
L 287.304209 187.341023 
L 289.52787 204.558469 
L 291.751532 201.327819 
L 293.975193 174.335999 
L 300.646177 181.165895 
L 302.869838 202.553054 
L 305.093499 184.992305 
L 307.317161 201.329836 
L 309.540822 224.520251 
L 316.211806 263.924588 
L 318.435467 262.793575 
L 320.659128 225.664219 
L 322.88279 235.107382 
L 325.106451 254.37501 
L 331.777435 265.797818 
L 334.001096 249.628881 
L 336.224757 201.911594 
L 338.448418 190.601963 
L 340.67208 175.827951 
L 347.343064 183.759867 
L 349.566725 167.560699 
L 351.790386 184.775771 
L 354.014047 171.240555 
L 356.237709 171.934773 
L 362.908692 167.850879 
L 365.132354 144.883931 
L 367.356015 153.226031 
L 369.579676 173.38394 
L 371.803337 161.004166 
L 378.474321 149.140756 
L 380.697983 170.680695 
L 382.921644 187.270533 
L 385.145305 186.716054 
L 387.368966 188.558327 
L 394.03995 204.792538 
L 396.263611 209.739655 
L 398.487273 193.409622 
" style="fill:none;stroke:#ec5283;stroke-linecap:square;stroke-width:2;"/>
   </g>
   <g id="line2d_19">
    <path clip-path="url(#p01ffd9174c)" d="M 73.832727 52.154182 
L 76.056389 58.238187 
L 82.727372 69.601589 
L 84.951034 69.435676 
L 87.174695 69.301649 
L 91.622017 105.057675 
L 98.293001 97.32309 
L 100.516663 114.464249 
L 102.740324 129.723298 
L 104.963985 108.71866 
L 107.187646 123.807007 
L 113.85863 110.028094 
L 116.082291 82.407185 
L 118.305953 75.696462 
L 120.529614 89.293366 
L 122.753275 85.76673 
L 129.424259 100.825028 
L 131.64792 109.46658 
L 133.871582 95.256406 
L 136.095243 103.05415 
L 138.318904 110.994977 
L 144.989888 134.709406 
L 147.213549 112.007983 
L 149.43721 100.336973 
L 151.660872 90.371786 
L 160.555517 80.125566 
L 162.779178 84.329187 
L 165.002839 84.0984 
L 167.226501 83.258081 
L 169.450162 86.418127 
L 176.121146 77.932155 
L 178.344807 79.1441 
L 180.568468 104.636077 
L 182.79213 104.631145 
L 185.015791 105.106505 
L 191.686775 109.846715 
L 193.910436 92.165883 
L 196.134097 84.10411 
L 198.357758 100.36623 
L 200.58142 101.651802 
L 209.476065 125.978581 
L 211.699726 132.026943 
L 213.923387 140.444375 
L 216.147049 163.887264 
L 222.818032 165.261993 
L 225.041694 177.831105 
L 227.265355 187.123987 
L 229.489016 197.335705 
L 231.712677 179.77121 
L 238.383661 149.703147 
L 240.607323 138.799667 
L 242.830984 134.26843 
L 245.054645 158.985227 
L 247.278306 152.205462 
L 253.94929 151.444453 
L 256.172951 140.131878 
L 258.396613 118.61673 
L 260.620274 135.599381 
L 262.843935 158.391961 
L 269.514919 164.59099 
L 271.73858 138.910312 
L 273.962242 134.37626 
L 276.185903 160.62795 
L 278.409564 171.231198 
L 287.304209 186.096 
L 289.52787 204.570231 
L 291.751532 201.618028 
L 293.975193 174.168705 
L 300.646177 181.964311 
L 302.869838 201.976279 
L 305.093499 184.781021 
L 307.317161 201.956938 
L 309.540822 223.220294 
L 316.211806 264.223289 
L 318.435467 261.928312 
L 320.659128 225.035477 
L 322.88279 236.245011 
L 325.106451 253.705254 
L 331.777435 264.588461 
L 334.001096 250.300784 
L 336.224757 202.70596 
L 338.448418 191.730859 
L 340.67208 175.71869 
L 347.343064 183.632795 
L 349.566725 167.593752 
L 351.790386 185.082677 
L 354.014047 171.483554 
L 356.237709 172.553305 
L 362.908692 168.00037 
L 365.132354 144.373398 
L 367.356015 153.926503 
L 369.579676 173.024403 
L 371.803337 162.195305 
L 378.474321 149.862064 
L 380.697983 170.506762 
L 382.921644 186.655 
L 385.145305 186.531903 
L 387.368966 188.635025 
L 394.03995 204.910044 
L 396.263611 209.349895 
L 398.487273 193.364971 
" style="fill:none;stroke:#00ff00;stroke-linecap:square;stroke-opacity:0.9;stroke-width:2;"/>
   </g>
   <g id="line2d_20">
    <path clip-path="url(#p01ffd9174c)" d="M 73.832727 52.154182 
L 76.056389 59.454687 
L 82.727372 71.241378 
L 84.951034 72.993079 
L 87.174695 74.844363 
L 91.622017 112.858812 
L 98.293001 108.114664 
L 100.516663 120.119805 
L 102.740324 133.83522 
L 104.963985 112.497155 
L 107.187646 128.942796 
L 113.85863 114.63309 
L 116.082291 87.101811 
L 118.305953 79.626618 
L 120.529614 95.336911 
L 122.753275 93.216711 
L 129.424259 110.981802 
L 131.64792 118.253599 
L 133.871582 106.055903 
L 136.095243 112.93355 
L 138.318904 118.489032 
L 144.989888 134.011689 
L 147.213549 108.285565 
L 149.43721 97.142765 
L 151.660872 88.925918 
L 160.555517 79.597973 
L 162.779178 83.490955 
L 165.002839 85.27557 
L 167.226501 80.799165 
L 169.450162 82.803189 
L 176.121146 75.068136 
L 178.344807 76.898386 
L 180.568468 102.190132 
L 182.79213 100.832143 
L 185.015791 100.501587 
L 191.686775 103.823281 
L 193.910436 85.087274 
L 196.134097 77.871621 
L 198.357758 96.49942 
L 200.58142 97.058308 
L 209.476065 124.20584 
L 211.699726 135.776141 
L 213.923387 150.944728 
L 216.147049 177.441537 
L 222.818032 168.606396 
L 225.041694 187.137435 
L 227.265355 194.409484 
L 229.489016 205.661176 
L 231.712677 177.899244 
L 238.383661 147.154487 
L 240.607323 135.2653 
L 242.830984 131.279208 
L 245.054645 159.770017 
L 247.278306 151.265388 
L 253.94929 151.628525 
L 256.172951 138.724574 
L 258.396613 115.555012 
L 260.620274 134.841831 
L 262.843935 159.412212 
L 269.514919 164.257043 
L 271.73858 139.311489 
L 273.962242 137.086169 
L 276.185903 166.120842 
L 278.409564 177.049941 
L 287.304209 192.900687 
L 289.52787 213.575174 
L 291.751532 197.246254 
L 293.975193 168.554719 
L 300.646177 172.946147 
L 302.869838 192.974999 
L 305.093499 174.949555 
L 307.317161 190.961688 
L 309.540822 215.280705 
L 316.211806 256.80698 
L 318.435467 250.361024 
L 320.659128 211.874838 
L 322.88279 224.137907 
L 325.106451 243.477419 
L 331.777435 254.59379 
L 334.001096 244.52562 
L 336.224757 184.497845 
L 338.448418 177.810612 
L 340.67208 160.582468 
L 347.343064 171.460342 
L 349.566725 154.478629 
L 351.790386 169.37264 
L 354.014047 158.750699 
L 356.237709 161.549081 
L 362.908692 159.61498 
L 365.132354 133.200237 
L 367.356015 141.743071 
L 369.579676 161.143043 
L 371.803337 147.003899 
L 378.474321 134.01554 
L 380.697983 155.060427 
L 382.921644 172.641188 
L 385.145305 175.731258 
L 387.368966 176.356522 
L 394.03995 190.062771 
L 396.263611 195.664598 
L 398.487273 178.172007 
" style="fill:none;stroke:#a5b9cf;stroke-linecap:square;stroke-width:2;"/>
   </g>
   <g id="patch_3">
    <path d="M 57.6 276.48 
L 57.6 41.472 
" style="fill:none;stroke:#000000;stroke-linecap:square;stroke-linejoin:miter;stroke-width:0.8;"/>
   </g>
   <g id="patch_4">
    <path d="M 414.72 276.48 
L 414.72 41.472 
" style="fill:none;stroke:#000000;stroke-linecap:square;stroke-linejoin:miter;stroke-width:0.8;"/>
   </g>
   <g id="patch_5">
    <path d="M 57.6 276.48 
L 414.72 276.48 
" style="fill:none;stroke:#000000;stroke-linecap:square;stroke-linejoin:miter;stroke-width:0.8;"/>
   </g>
   <g id="patch_6">
    <path d="M 57.6 41.472 
L 414.72 41.472 
" style="fill:none;stroke:#000000;stroke-linecap:square;stroke-linejoin:miter;stroke-width:0.8;"/>
   </g>
   <g id="text_16">
    <!-- VFUNDS -->
    <g transform="translate(211.295625 22.034625)scale(0.12 -0.12)">
     <defs>
      <path d="M 1831 0 
L 50 4666 
L 709 4666 
L 2188 738 
L 3669 4666 
L 4325 4666 
L 2547 0 
L 1831 0 
z
" id="DejaVuSans-56" transform="scale(0.015625)"/>
      <path d="M 628 4666 
L 3309 4666 
L 3309 4134 
L 1259 4134 
L 1259 2759 
L 3109 2759 
L 3109 2228 
L 1259 2228 
L 1259 0 
L 628 0 
L 628 4666 
z
" id="DejaVuSans-46" transform="scale(0.015625)"/>
      <path d="M 556 4666 
L 1191 4666 
L 1191 1831 
Q 1191 1081 1462 751 
Q 1734 422 2344 422 
Q 2950 422 3222 751 
Q 3494 1081 3494 1831 
L 3494 4666 
L 4128 4666 
L 4128 1753 
Q 4128 841 3676 375 
Q 3225 -91 2344 -91 
Q 1459 -91 1007 375 
Q 556 841 556 1753 
L 556 4666 
z
" id="DejaVuSans-55" transform="scale(0.015625)"/>
      <path d="M 628 4666 
L 1478 4666 
L 3547 763 
L 3547 4666 
L 4159 4666 
L 4159 0 
L 3309 0 
L 1241 3903 
L 1241 0 
L 628 0 
L 628 4666 
z
" id="DejaVuSans-4e" transform="scale(0.015625)"/>
      <path d="M 1259 4147 
L 1259 519 
L 2022 519 
Q 2988 519 3436 956 
Q 3884 1394 3884 2338 
Q 3884 3275 3436 3711 
Q 2988 4147 2022 4147 
L 1259 4147 
z
M 628 4666 
L 1925 4666 
Q 3281 4666 3915 4102 
Q 4550 3538 4550 2338 
Q 4550 1131 3912 565 
Q 3275 0 1925 0 
L 628 0 
L 628 4666 
z
" id="DejaVuSans-44" transform="scale(0.015625)"/>
      <path d="M 3425 4513 
L 3425 3897 
Q 3066 4069 2747 4153 
Q 2428 4238 2131 4238 
Q 1616 4238 1336 4038 
Q 1056 3838 1056 3469 
Q 1056 3159 1242 3001 
Q 1428 2844 1947 2747 
L 2328 2669 
Q 3034 2534 3370 2195 
Q 3706 1856 3706 1288 
Q 3706 609 3251 259 
Q 2797 -91 1919 -91 
Q 1588 -91 1214 -16 
Q 841 59 441 206 
L 441 856 
Q 825 641 1194 531 
Q 1563 422 1919 422 
Q 2459 422 2753 634 
Q 3047 847 3047 1241 
Q 3047 1584 2836 1778 
Q 2625 1972 2144 2069 
L 1759 2144 
Q 1053 2284 737 2584 
Q 422 2884 422 3419 
Q 422 4038 858 4394 
Q 1294 4750 2059 4750 
Q 2388 4750 2728 4690 
Q 3069 4631 3425 4513 
z
" id="DejaVuSans-53" transform="scale(0.015625)"/>
     </defs>
     <use xlink:href="#DejaVuSans-56"/>
     <use x="68.408203" xlink:href="#DejaVuSans-46"/>
     <use x="125.927734" xlink:href="#DejaVuSans-55"/>
     <use x="199.121094" xlink:href="#DejaVuSans-4e"/>
     <use x="273.925781" xlink:href="#DejaVuSans-44"/>
     <use x="350.927734" xlink:href="#DejaVuSans-53"/>
    </g>
    <!-- daily_report -->
    <g transform="translate(200.466563 35.472)scale(0.12 -0.12)">
     <defs>
      <path d="M 603 3500 
L 1178 3500 
L 1178 0 
L 603 0 
L 603 3500 
z
M 603 4863 
L 1178 4863 
L 1178 4134 
L 603 4134 
L 603 4863 
z
" id="DejaVuSans-69" transform="scale(0.015625)"/>
      <path d="M 603 4863 
L 1178 4863 
L 1178 0 
L 603 0 
L 603 4863 
z
" id="DejaVuSans-6c" transform="scale(0.015625)"/>
      <path d="M 2059 -325 
Q 1816 -950 1584 -1140 
Q 1353 -1331 966 -1331 
L 506 -1331 
L 506 -850 
L 844 -850 
Q 1081 -850 1212 -737 
Q 1344 -625 1503 -206 
L 1606 56 
L 191 3500 
L 800 3500 
L 1894 763 
L 2988 3500 
L 3597 3500 
L 2059 -325 
z
" id="DejaVuSans-79" transform="scale(0.015625)"/>
      <path d="M 3263 -1063 
L 3263 -1509 
L -63 -1509 
L -63 -1063 
L 3263 -1063 
z
" id="DejaVuSans-5f" transform="scale(0.015625)"/>
      <path d="M 2631 2963 
Q 2534 3019 2420 3045 
Q 2306 3072 2169 3072 
Q 1681 3072 1420 2755 
Q 1159 2438 1159 1844 
L 1159 0 
L 581 0 
L 581 3500 
L 1159 3500 
L 1159 2956 
Q 1341 3275 1631 3429 
Q 1922 3584 2338 3584 
Q 2397 3584 2469 3576 
Q 2541 3569 2628 3553 
L 2631 2963 
z
" id="DejaVuSans-72" transform="scale(0.015625)"/>
      <path d="M 1159 525 
L 1159 -1331 
L 581 -1331 
L 581 3500 
L 1159 3500 
L 1159 2969 
Q 1341 3281 1617 3432 
Q 1894 3584 2278 3584 
Q 2916 3584 3314 3078 
Q 3713 2572 3713 1747 
Q 3713 922 3314 415 
Q 2916 -91 2278 -91 
Q 1894 -91 1617 61 
Q 1341 213 1159 525 
z
M 3116 1747 
Q 3116 2381 2855 2742 
Q 2594 3103 2138 3103 
Q 1681 3103 1420 2742 
Q 1159 2381 1159 1747 
Q 1159 1113 1420 752 
Q 1681 391 2138 391 
Q 2594 391 2855 752 
Q 3116 1113 3116 1747 
z
" id="DejaVuSans-70" transform="scale(0.015625)"/>
      <path d="M 1959 3097 
Q 1497 3097 1228 2736 
Q 959 2375 959 1747 
Q 959 1119 1226 758 
Q 1494 397 1959 397 
Q 2419 397 2687 759 
Q 2956 1122 2956 1747 
Q 2956 2369 2687 2733 
Q 2419 3097 1959 3097 
z
M 1959 3584 
Q 2709 3584 3137 3096 
Q 3566 2609 3566 1747 
Q 3566 888 3137 398 
Q 2709 -91 1959 -91 
Q 1206 -91 779 398 
Q 353 888 353 1747 
Q 353 2609 779 3096 
Q 1206 3584 1959 3584 
z
" id="DejaVuSans-6f" transform="scale(0.015625)"/>
     </defs>
     <use xlink:href="#DejaVuSans-64"/>
     <use x="63.476562" xlink:href="#DejaVuSans-61"/>
     <use x="124.755859" xlink:href="#DejaVuSans-69"/>
     <use x="152.539062" xlink:href="#DejaVuSans-6c"/>
     <use x="180.322266" xlink:href="#DejaVuSans-79"/>
     <use x="239.501953" xlink:href="#DejaVuSans-5f"/>
     <use x="289.501953" xlink:href="#DejaVuSans-72"/>
     <use x="328.365234" xlink:href="#DejaVuSans-65"/>
     <use x="389.888672" xlink:href="#DejaVuSans-70"/>
     <use x="453.365234" xlink:href="#DejaVuSans-6f"/>
     <use x="514.546875" xlink:href="#DejaVuSans-72"/>
     <use x="555.660156" xlink:href="#DejaVuSans-74"/>
    </g>
   </g>
   <g id="legend_1">
    <g id="patch_7">
     <path d="M 64.6 271.48 
L 178.64375 271.48 
Q 180.64375 271.48 180.64375 269.48 
L 180.64375 182.41125 
Q 180.64375 180.41125 178.64375 180.41125 
L 64.6 180.41125 
Q 62.6 180.41125 62.6 182.41125 
L 62.6 269.48 
Q 62.6 271.48 64.6 271.48 
z
" style="fill:#ffffff;opacity:0.8;stroke:#cccccc;stroke-linejoin:miter;"/>
    </g>
    <g id="line2d_21">
     <path d="M 66.6 188.509687 
L 86.6 188.509687 
" style="fill:none;stroke:#0000ff;stroke-linecap:square;stroke-opacity:0.9;stroke-width:2;"/>
    </g>
    <g id="line2d_22"/>
    <g id="text_17">
     <!-- alpaca -->
     <g transform="translate(94.6 192.009687)scale(0.1 -0.1)">
      <defs>
       <path d="M 3122 3366 
L 3122 2828 
Q 2878 2963 2633 3030 
Q 2388 3097 2138 3097 
Q 1578 3097 1268 2742 
Q 959 2388 959 1747 
Q 959 1106 1268 751 
Q 1578 397 2138 397 
Q 2388 397 2633 464 
Q 2878 531 3122 666 
L 3122 134 
Q 2881 22 2623 -34 
Q 2366 -91 2075 -91 
Q 1284 -91 818 406 
Q 353 903 353 1747 
Q 353 2603 823 3093 
Q 1294 3584 2113 3584 
Q 2378 3584 2631 3529 
Q 2884 3475 3122 3366 
z
" id="DejaVuSans-63" transform="scale(0.015625)"/>
      </defs>
      <use xlink:href="#DejaVuSans-61"/>
      <use x="61.279297" xlink:href="#DejaVuSans-6c"/>
      <use x="89.0625" xlink:href="#DejaVuSans-70"/>
      <use x="152.539062" xlink:href="#DejaVuSans-61"/>
      <use x="213.818359" xlink:href="#DejaVuSans-63"/>
      <use x="268.798828" xlink:href="#DejaVuSans-61"/>
     </g>
    </g>
    <g id="line2d_23">
     <path d="M 66.6 203.187812 
L 86.6 203.187812 
" style="fill:none;stroke:#ff0000;stroke-linecap:square;stroke-opacity:0.9;stroke-width:2;"/>
    </g>
    <g id="line2d_24"/>
    <g id="text_18">
     <!-- mattress -->
     <g transform="translate(94.6 206.687812)scale(0.1 -0.1)">
      <defs>
       <path d="M 3328 2828 
Q 3544 3216 3844 3400 
Q 4144 3584 4550 3584 
Q 5097 3584 5394 3201 
Q 5691 2819 5691 2113 
L 5691 0 
L 5113 0 
L 5113 2094 
Q 5113 2597 4934 2840 
Q 4756 3084 4391 3084 
Q 3944 3084 3684 2787 
Q 3425 2491 3425 1978 
L 3425 0 
L 2847 0 
L 2847 2094 
Q 2847 2600 2669 2842 
Q 2491 3084 2119 3084 
Q 1678 3084 1418 2786 
Q 1159 2488 1159 1978 
L 1159 0 
L 581 0 
L 581 3500 
L 1159 3500 
L 1159 2956 
Q 1356 3278 1631 3431 
Q 1906 3584 2284 3584 
Q 2666 3584 2933 3390 
Q 3200 3197 3328 2828 
z
" id="DejaVuSans-6d" transform="scale(0.015625)"/>
       <path d="M 2834 3397 
L 2834 2853 
Q 2591 2978 2328 3040 
Q 2066 3103 1784 3103 
Q 1356 3103 1142 2972 
Q 928 2841 928 2578 
Q 928 2378 1081 2264 
Q 1234 2150 1697 2047 
L 1894 2003 
Q 2506 1872 2764 1633 
Q 3022 1394 3022 966 
Q 3022 478 2636 193 
Q 2250 -91 1575 -91 
Q 1294 -91 989 -36 
Q 684 19 347 128 
L 347 722 
Q 666 556 975 473 
Q 1284 391 1588 391 
Q 1994 391 2212 530 
Q 2431 669 2431 922 
Q 2431 1156 2273 1281 
Q 2116 1406 1581 1522 
L 1381 1569 
Q 847 1681 609 1914 
Q 372 2147 372 2553 
Q 372 3047 722 3315 
Q 1072 3584 1716 3584 
Q 2034 3584 2315 3537 
Q 2597 3491 2834 3397 
z
" id="DejaVuSans-73" transform="scale(0.015625)"/>
      </defs>
      <use xlink:href="#DejaVuSans-6d"/>
      <use x="97.412109" xlink:href="#DejaVuSans-61"/>
      <use x="158.691406" xlink:href="#DejaVuSans-74"/>
      <use x="197.900391" xlink:href="#DejaVuSans-74"/>
      <use x="237.109375" xlink:href="#DejaVuSans-72"/>
      <use x="275.972656" xlink:href="#DejaVuSans-65"/>
      <use x="337.496094" xlink:href="#DejaVuSans-73"/>
      <use x="389.595703" xlink:href="#DejaVuSans-73"/>
     </g>
    </g>
    <g id="line2d_25">
     <path d="M 66.6 217.865937 
L 86.6 217.865937 
" style="fill:none;stroke:#008000;stroke-linecap:square;stroke-opacity:0.9;stroke-width:2;"/>
    </g>
    <g id="line2d_26"/>
    <g id="text_19">
     <!-- daily-open-rebal -->
     <g transform="translate(94.6 221.365937)scale(0.1 -0.1)">
      <defs>
       <path d="M 3513 2113 
L 3513 0 
L 2938 0 
L 2938 2094 
Q 2938 2591 2744 2837 
Q 2550 3084 2163 3084 
Q 1697 3084 1428 2787 
Q 1159 2491 1159 1978 
L 1159 0 
L 581 0 
L 581 3500 
L 1159 3500 
L 1159 2956 
Q 1366 3272 1645 3428 
Q 1925 3584 2291 3584 
Q 2894 3584 3203 3211 
Q 3513 2838 3513 2113 
z
" id="DejaVuSans-6e" transform="scale(0.015625)"/>
       <path d="M 3116 1747 
Q 3116 2381 2855 2742 
Q 2594 3103 2138 3103 
Q 1681 3103 1420 2742 
Q 1159 2381 1159 1747 
Q 1159 1113 1420 752 
Q 1681 391 2138 391 
Q 2594 391 2855 752 
Q 3116 1113 3116 1747 
z
M 1159 2969 
Q 1341 3281 1617 3432 
Q 1894 3584 2278 3584 
Q 2916 3584 3314 3078 
Q 3713 2572 3713 1747 
Q 3713 922 3314 415 
Q 2916 -91 2278 -91 
Q 1894 -91 1617 61 
Q 1341 213 1159 525 
L 1159 0 
L 581 0 
L 581 4863 
L 1159 4863 
L 1159 2969 
z
" id="DejaVuSans-62" transform="scale(0.015625)"/>
      </defs>
      <use xlink:href="#DejaVuSans-64"/>
      <use x="63.476562" xlink:href="#DejaVuSans-61"/>
      <use x="124.755859" xlink:href="#DejaVuSans-69"/>
      <use x="152.539062" xlink:href="#DejaVuSans-6c"/>
      <use x="180.322266" xlink:href="#DejaVuSans-79"/>
      <use x="237.751953" xlink:href="#DejaVuSans-2d"/>
      <use x="275.710938" xlink:href="#DejaVuSans-6f"/>
      <use x="336.892578" xlink:href="#DejaVuSans-70"/>
      <use x="400.369141" xlink:href="#DejaVuSans-65"/>
      <use x="461.892578" xlink:href="#DejaVuSans-6e"/>
      <use x="525.271484" xlink:href="#DejaVuSans-2d"/>
      <use x="561.355469" xlink:href="#DejaVuSans-72"/>
      <use x="600.21875" xlink:href="#DejaVuSans-65"/>
      <use x="661.742188" xlink:href="#DejaVuSans-62"/>
      <use x="725.21875" xlink:href="#DejaVuSans-61"/>
      <use x="786.498047" xlink:href="#DejaVuSans-6c"/>
     </g>
    </g>
    <g id="line2d_27">
     <path d="M 66.6 232.544062 
L 86.6 232.544062 
" style="fill:none;stroke:#ec5283;stroke-linecap:square;stroke-width:2;"/>
    </g>
    <g id="line2d_28"/>
    <g id="text_20">
     <!-- daily-close-rebal -->
     <g transform="translate(94.6 236.044062)scale(0.1 -0.1)">
      <use xlink:href="#DejaVuSans-64"/>
      <use x="63.476562" xlink:href="#DejaVuSans-61"/>
      <use x="124.755859" xlink:href="#DejaVuSans-69"/>
      <use x="152.539062" xlink:href="#DejaVuSans-6c"/>
      <use x="180.322266" xlink:href="#DejaVuSans-79"/>
      <use x="237.751953" xlink:href="#DejaVuSans-2d"/>
      <use x="273.835938" xlink:href="#DejaVuSans-63"/>
      <use x="328.816406" xlink:href="#DejaVuSans-6c"/>
      <use x="356.599609" xlink:href="#DejaVuSans-6f"/>
      <use x="417.78125" xlink:href="#DejaVuSans-73"/>
      <use x="469.880859" xlink:href="#DejaVuSans-65"/>
      <use x="531.404297" xlink:href="#DejaVuSans-2d"/>
      <use x="567.488281" xlink:href="#DejaVuSans-72"/>
      <use x="606.351562" xlink:href="#DejaVuSans-65"/>
      <use x="667.875" xlink:href="#DejaVuSans-62"/>
      <use x="731.351562" xlink:href="#DejaVuSans-61"/>
      <use x="792.630859" xlink:href="#DejaVuSans-6c"/>
     </g>
    </g>
    <g id="line2d_29">
     <path d="M 66.6 247.222187 
L 86.6 247.222187 
" style="fill:none;stroke:#00ff00;stroke-linecap:square;stroke-opacity:0.9;stroke-width:2;"/>
    </g>
    <g id="line2d_30"/>
    <g id="text_21">
     <!-- trader-baseline -->
     <g transform="translate(94.6 250.722187)scale(0.1 -0.1)">
      <use xlink:href="#DejaVuSans-74"/>
      <use x="39.208984" xlink:href="#DejaVuSans-72"/>
      <use x="80.322266" xlink:href="#DejaVuSans-61"/>
      <use x="141.601562" xlink:href="#DejaVuSans-64"/>
      <use x="205.078125" xlink:href="#DejaVuSans-65"/>
      <use x="266.601562" xlink:href="#DejaVuSans-72"/>
      <use x="301.339844" xlink:href="#DejaVuSans-2d"/>
      <use x="337.423828" xlink:href="#DejaVuSans-62"/>
      <use x="400.900391" xlink:href="#DejaVuSans-61"/>
      <use x="462.179688" xlink:href="#DejaVuSans-73"/>
      <use x="514.279297" xlink:href="#DejaVuSans-65"/>
      <use x="575.802734" xlink:href="#DejaVuSans-6c"/>
      <use x="603.585938" xlink:href="#DejaVuSans-69"/>
      <use x="631.369141" xlink:href="#DejaVuSans-6e"/>
      <use x="694.748047" xlink:href="#DejaVuSans-65"/>
     </g>
    </g>
    <g id="line2d_31">
     <path d="M 66.6 261.900312 
L 86.6 261.900312 
" style="fill:none;stroke:#a5b9cf;stroke-linecap:square;stroke-width:2;"/>
    </g>
    <g id="line2d_32"/>
    <g id="text_22">
     <!-- default-cfg -->
     <g transform="translate(94.6 265.400312)scale(0.1 -0.1)">
      <defs>
       <path d="M 2375 4863 
L 2375 4384 
L 1825 4384 
Q 1516 4384 1395 4259 
Q 1275 4134 1275 3809 
L 1275 3500 
L 2222 3500 
L 2222 3053 
L 1275 3053 
L 1275 0 
L 697 0 
L 697 3053 
L 147 3053 
L 147 3500 
L 697 3500 
L 697 3744 
Q 697 4328 969 4595 
Q 1241 4863 1831 4863 
L 2375 4863 
z
" id="DejaVuSans-66" transform="scale(0.015625)"/>
       <path d="M 544 1381 
L 544 3500 
L 1119 3500 
L 1119 1403 
Q 1119 906 1312 657 
Q 1506 409 1894 409 
Q 2359 409 2629 706 
Q 2900 1003 2900 1516 
L 2900 3500 
L 3475 3500 
L 3475 0 
L 2900 0 
L 2900 538 
Q 2691 219 2414 64 
Q 2138 -91 1772 -91 
Q 1169 -91 856 284 
Q 544 659 544 1381 
z
M 1991 3584 
L 1991 3584 
z
" id="DejaVuSans-75" transform="scale(0.015625)"/>
       <path d="M 2906 1791 
Q 2906 2416 2648 2759 
Q 2391 3103 1925 3103 
Q 1463 3103 1205 2759 
Q 947 2416 947 1791 
Q 947 1169 1205 825 
Q 1463 481 1925 481 
Q 2391 481 2648 825 
Q 2906 1169 2906 1791 
z
M 3481 434 
Q 3481 -459 3084 -895 
Q 2688 -1331 1869 -1331 
Q 1566 -1331 1297 -1286 
Q 1028 -1241 775 -1147 
L 775 -588 
Q 1028 -725 1275 -790 
Q 1522 -856 1778 -856 
Q 2344 -856 2625 -561 
Q 2906 -266 2906 331 
L 2906 616 
Q 2728 306 2450 153 
Q 2172 0 1784 0 
Q 1141 0 747 490 
Q 353 981 353 1791 
Q 353 2603 747 3093 
Q 1141 3584 1784 3584 
Q 2172 3584 2450 3431 
Q 2728 3278 2906 2969 
L 2906 3500 
L 3481 3500 
L 3481 434 
z
" id="DejaVuSans-67" transform="scale(0.015625)"/>
      </defs>
      <use xlink:href="#DejaVuSans-64"/>
      <use x="63.476562" xlink:href="#DejaVuSans-65"/>
      <use x="125" xlink:href="#DejaVuSans-66"/>
      <use x="160.205078" xlink:href="#DejaVuSans-61"/>
      <use x="221.484375" xlink:href="#DejaVuSans-75"/>
      <use x="284.863281" xlink:href="#DejaVuSans-6c"/>
      <use x="312.646484" xlink:href="#DejaVuSans-74"/>
      <use x="351.855469" xlink:href="#DejaVuSans-2d"/>
      <use x="387.939453" xlink:href="#DejaVuSans-63"/>
      <use x="442.919922" xlink:href="#DejaVuSans-66"/>
      <use x="478.125" xlink:href="#DejaVuSans-67"/>
     </g>
    </g>
   </g>
  </g>
 </g>
 <defs>
  <clipPath id="p01ffd9174c">
   <rect height="235.008" width="357.12" x="57.6" y="41.472"/>
  </clipPath>
 </defs>
</svg>
