<?xml version="1.0" encoding="utf-8" standalone="no"?>
<!DOCTYPE svg PUBLIC "-//W3C//DTD SVG 1.1//EN"
  "http://www.w3.org/Graphics/SVG/1.1/DTD/svg11.dtd">
<svg height="345.6pt" version="1.1" viewBox="0 0 460.8 345.6" width="460.8pt" xmlns="http://www.w3.org/2000/svg" xmlns:xlink="http://www.w3.org/1999/xlink">
 <metadata>
  <rdf:RDF xmlns:cc="http://creativecommons.org/ns#" xmlns:dc="http://purl.org/dc/elements/1.1/" xmlns:rdf="http://www.w3.org/1999/02/22-rdf-syntax-ns#">
   <cc:Work>
    <dc:type rdf:resource="http://purl.org/dc/dcmitype/StillImage"/>
    <dc:date>2022-04-25T10:01:53.971400</dc:date>
    <dc:format>image/svg+xml</dc:format>
    <dc:creator>
     <cc:Agent>
      <dc:title>Matplotlib v3.4.3, https://matplotlib.org/</dc:title>
     </cc:Agent>
    </dc:creator>
   </cc:Work>
  </rdf:RDF>
 </metadata>
 <defs>
  <style type="text/css">*{stroke-linecap:butt;stroke-linejoin:round;}</style>
 </defs>
 <g id="figure_1">
  <g id="patch_1">
   <path d="M 0 345.6 
L 460.8 345.6 
L 460.8 0 
L 0 0 
z
" style="fill:#ffffff;"/>
  </g>
  <g id="axes_1">
   <g id="patch_2">
    <path d="M 57.6 276.48 
L 414.72 276.48 
L 414.72 41.472 
L 57.6 41.472 
z
" style="fill:#ffffff;"/>
   </g>
   <g id="matplotlib.axis_1">
    <g id="xtick_1">
     <g id="line2d_1">
      <defs>
       <path d="M 0 0 
L 0 3.5 
" id="m51cc535e08" style="stroke:#000000;stroke-width:0.8;"/>
      </defs>
      <g>
       <use style="stroke:#000000;stroke-width:0.8;" x="101.061818" xlink:href="#m51cc535e08" y="276.48"/>
      </g>
     </g>
     <g id="text_1">
      <!-- 2021-12 -->
      <g transform="translate(63.836997 310.951846)rotate(-30)scale(0.1 -0.1)">
       <defs>
        <path d="M 1228 531 
L 3431 531 
L 3431 0 
L 469 0 
L 469 531 
Q 828 903 1448 1529 
Q 2069 2156 2228 2338 
Q 2531 2678 2651 2914 
Q 2772 3150 2772 3378 
Q 2772 3750 2511 3984 
Q 2250 4219 1831 4219 
Q 1534 4219 1204 4116 
Q 875 4013 500 3803 
L 500 4441 
Q 881 4594 1212 4672 
Q 1544 4750 1819 4750 
Q 2544 4750 2975 4387 
Q 3406 4025 3406 3419 
Q 3406 3131 3298 2873 
Q 3191 2616 2906 2266 
Q 2828 2175 2409 1742 
Q 1991 1309 1228 531 
z
" id="DejaVuSans-32" transform="scale(0.015625)"/>
        <path d="M 2034 4250 
Q 1547 4250 1301 3770 
Q 1056 3291 1056 2328 
Q 1056 1369 1301 889 
Q 1547 409 2034 409 
Q 2525 409 2770 889 
Q 3016 1369 3016 2328 
Q 3016 3291 2770 3770 
Q 2525 4250 2034 4250 
z
M 2034 4750 
Q 2819 4750 3233 4129 
Q 3647 3509 3647 2328 
Q 3647 1150 3233 529 
Q 2819 -91 2034 -91 
Q 1250 -91 836 529 
Q 422 1150 422 2328 
Q 422 3509 836 4129 
Q 1250 4750 2034 4750 
z
" id="DejaVuSans-30" transform="scale(0.015625)"/>
        <path d="M 794 531 
L 1825 531 
L 1825 4091 
L 703 3866 
L 703 4441 
L 1819 4666 
L 2450 4666 
L 2450 531 
L 3481 531 
L 3481 0 
L 794 0 
L 794 531 
z
" id="DejaVuSans-31" transform="scale(0.015625)"/>
        <path d="M 313 2009 
L 1997 2009 
L 1997 1497 
L 313 1497 
L 313 2009 
z
" id="DejaVuSans-2d" transform="scale(0.015625)"/>
       </defs>
       <use xlink:href="#DejaVuSans-32"/>
       <use x="63.623047" xlink:href="#DejaVuSans-30"/>
       <use x="127.246094" xlink:href="#DejaVuSans-32"/>
       <use x="190.869141" xlink:href="#DejaVuSans-31"/>
       <use x="254.492188" xlink:href="#DejaVuSans-2d"/>
       <use x="290.576172" xlink:href="#DejaVuSans-31"/>
       <use x="354.199219" xlink:href="#DejaVuSans-32"/>
      </g>
     </g>
    </g>
    <g id="xtick_2">
     <g id="line2d_2">
      <g>
       <use style="stroke:#000000;stroke-width:0.8;" x="165.992727" xlink:href="#m51cc535e08" y="276.48"/>
      </g>
     </g>
     <g id="text_2">
      <!-- 2022-01 -->
      <g transform="translate(128.767906 310.951846)rotate(-30)scale(0.1 -0.1)">
       <use xlink:href="#DejaVuSans-32"/>
       <use x="63.623047" xlink:href="#DejaVuSans-30"/>
       <use x="127.246094" xlink:href="#DejaVuSans-32"/>
       <use x="190.869141" xlink:href="#DejaVuSans-32"/>
       <use x="254.492188" xlink:href="#DejaVuSans-2d"/>
       <use x="290.576172" xlink:href="#DejaVuSans-30"/>
       <use x="354.199219" xlink:href="#DejaVuSans-31"/>
      </g>
     </g>
    </g>
    <g id="xtick_3">
     <g id="line2d_3">
      <g>
       <use style="stroke:#000000;stroke-width:0.8;" x="230.923636" xlink:href="#m51cc535e08" y="276.48"/>
      </g>
     </g>
     <g id="text_3">
      <!-- 2022-02 -->
      <g transform="translate(193.698816 310.951846)rotate(-30)scale(0.1 -0.1)">
       <use xlink:href="#DejaVuSans-32"/>
       <use x="63.623047" xlink:href="#DejaVuSans-30"/>
       <use x="127.246094" xlink:href="#DejaVuSans-32"/>
       <use x="190.869141" xlink:href="#DejaVuSans-32"/>
       <use x="254.492188" xlink:href="#DejaVuSans-2d"/>
       <use x="290.576172" xlink:href="#DejaVuSans-30"/>
       <use x="354.199219" xlink:href="#DejaVuSans-32"/>
      </g>
     </g>
    </g>
    <g id="xtick_4">
     <g id="line2d_4">
      <g>
       <use style="stroke:#000000;stroke-width:0.8;" x="289.570909" xlink:href="#m51cc535e08" y="276.48"/>
      </g>
     </g>
     <g id="text_4">
      <!-- 2022-03 -->
      <g transform="translate(252.346088 310.951846)rotate(-30)scale(0.1 -0.1)">
       <defs>
        <path d="M 2597 2516 
Q 3050 2419 3304 2112 
Q 3559 1806 3559 1356 
Q 3559 666 3084 287 
Q 2609 -91 1734 -91 
Q 1441 -91 1130 -33 
Q 819 25 488 141 
L 488 750 
Q 750 597 1062 519 
Q 1375 441 1716 441 
Q 2309 441 2620 675 
Q 2931 909 2931 1356 
Q 2931 1769 2642 2001 
Q 2353 2234 1838 2234 
L 1294 2234 
L 1294 2753 
L 1863 2753 
Q 2328 2753 2575 2939 
Q 2822 3125 2822 3475 
Q 2822 3834 2567 4026 
Q 2313 4219 1838 4219 
Q 1578 4219 1281 4162 
Q 984 4106 628 3988 
L 628 4550 
Q 988 4650 1302 4700 
Q 1616 4750 1894 4750 
Q 2613 4750 3031 4423 
Q 3450 4097 3450 3541 
Q 3450 3153 3228 2886 
Q 3006 2619 2597 2516 
z
" id="DejaVuSans-33" transform="scale(0.015625)"/>
       </defs>
       <use xlink:href="#DejaVuSans-32"/>
       <use x="63.623047" xlink:href="#DejaVuSans-30"/>
       <use x="127.246094" xlink:href="#DejaVuSans-32"/>
       <use x="190.869141" xlink:href="#DejaVuSans-32"/>
       <use x="254.492188" xlink:href="#DejaVuSans-2d"/>
       <use x="290.576172" xlink:href="#DejaVuSans-30"/>
       <use x="354.199219" xlink:href="#DejaVuSans-33"/>
      </g>
     </g>
    </g>
    <g id="xtick_5">
     <g id="line2d_5">
      <g>
       <use style="stroke:#000000;stroke-width:0.8;" x="354.501818" xlink:href="#m51cc535e08" y="276.48"/>
      </g>
     </g>
     <g id="text_5">
      <!-- 2022-04 -->
      <g transform="translate(317.276997 310.951846)rotate(-30)scale(0.1 -0.1)">
       <defs>
        <path d="M 2419 4116 
L 825 1625 
L 2419 1625 
L 2419 4116 
z
M 2253 4666 
L 3047 4666 
L 3047 1625 
L 3713 1625 
L 3713 1100 
L 3047 1100 
L 3047 0 
L 2419 0 
L 2419 1100 
L 313 1100 
L 313 1709 
L 2253 4666 
z
" id="DejaVuSans-34" transform="scale(0.015625)"/>
       </defs>
       <use xlink:href="#DejaVuSans-32"/>
       <use x="63.623047" xlink:href="#DejaVuSans-30"/>
       <use x="127.246094" xlink:href="#DejaVuSans-32"/>
       <use x="190.869141" xlink:href="#DejaVuSans-32"/>
       <use x="254.492188" xlink:href="#DejaVuSans-2d"/>
       <use x="290.576172" xlink:href="#DejaVuSans-30"/>
       <use x="354.199219" xlink:href="#DejaVuSans-34"/>
      </g>
     </g>
    </g>
    <g id="text_6">
     <!-- date -->
     <g transform="translate(224.885 324.351346)scale(0.1 -0.1)">
      <defs>
       <path d="M 2906 2969 
L 2906 4863 
L 3481 4863 
L 3481 0 
L 2906 0 
L 2906 525 
Q 2725 213 2448 61 
Q 2172 -91 1784 -91 
Q 1150 -91 751 415 
Q 353 922 353 1747 
Q 353 2572 751 3078 
Q 1150 3584 1784 3584 
Q 2172 3584 2448 3432 
Q 2725 3281 2906 2969 
z
M 947 1747 
Q 947 1113 1208 752 
Q 1469 391 1925 391 
Q 2381 391 2643 752 
Q 2906 1113 2906 1747 
Q 2906 2381 2643 2742 
Q 2381 3103 1925 3103 
Q 1469 3103 1208 2742 
Q 947 2381 947 1747 
z
" id="DejaVuSans-64" transform="scale(0.015625)"/>
       <path d="M 2194 1759 
Q 1497 1759 1228 1600 
Q 959 1441 959 1056 
Q 959 750 1161 570 
Q 1363 391 1709 391 
Q 2188 391 2477 730 
Q 2766 1069 2766 1631 
L 2766 1759 
L 2194 1759 
z
M 3341 1997 
L 3341 0 
L 2766 0 
L 2766 531 
Q 2569 213 2275 61 
Q 1981 -91 1556 -91 
Q 1019 -91 701 211 
Q 384 513 384 1019 
Q 384 1609 779 1909 
Q 1175 2209 1959 2209 
L 2766 2209 
L 2766 2266 
Q 2766 2663 2505 2880 
Q 2244 3097 1772 3097 
Q 1472 3097 1187 3025 
Q 903 2953 641 2809 
L 641 3341 
Q 956 3463 1253 3523 
Q 1550 3584 1831 3584 
Q 2591 3584 2966 3190 
Q 3341 2797 3341 1997 
z
" id="DejaVuSans-61" transform="scale(0.015625)"/>
       <path d="M 1172 4494 
L 1172 3500 
L 2356 3500 
L 2356 3053 
L 1172 3053 
L 1172 1153 
Q 1172 725 1289 603 
Q 1406 481 1766 481 
L 2356 481 
L 2356 0 
L 1766 0 
Q 1100 0 847 248 
Q 594 497 594 1153 
L 594 3053 
L 172 3053 
L 172 3500 
L 594 3500 
L 594 4494 
L 1172 4494 
z
" id="DejaVuSans-74" transform="scale(0.015625)"/>
       <path d="M 3597 1894 
L 3597 1613 
L 953 1613 
Q 991 1019 1311 708 
Q 1631 397 2203 397 
Q 2534 397 2845 478 
Q 3156 559 3463 722 
L 3463 178 
Q 3153 47 2828 -22 
Q 2503 -91 2169 -91 
Q 1331 -91 842 396 
Q 353 884 353 1716 
Q 353 2575 817 3079 
Q 1281 3584 2069 3584 
Q 2775 3584 3186 3129 
Q 3597 2675 3597 1894 
z
M 3022 2063 
Q 3016 2534 2758 2815 
Q 2500 3097 2075 3097 
Q 1594 3097 1305 2825 
Q 1016 2553 972 2059 
L 3022 2063 
z
" id="DejaVuSans-65" transform="scale(0.015625)"/>
      </defs>
      <use xlink:href="#DejaVuSans-64"/>
      <use x="63.476562" xlink:href="#DejaVuSans-61"/>
      <use x="124.755859" xlink:href="#DejaVuSans-74"/>
      <use x="163.964844" xlink:href="#DejaVuSans-65"/>
     </g>
    </g>
   </g>
   <g id="matplotlib.axis_2">
    <g id="ytick_1">
     <g id="line2d_6">
      <defs>
       <path d="M 0 0 
L -3.5 0 
" id="mf6f12f6399" style="stroke:#000000;stroke-width:0.8;"/>
      </defs>
      <g>
       <use style="stroke:#000000;stroke-width:0.8;" x="57.6" xlink:href="#mf6f12f6399" y="266.503346"/>
      </g>
     </g>
     <g id="text_7">
      <!-- 50000 -->
      <g transform="translate(18.7875 270.302564)scale(0.1 -0.1)">
       <defs>
        <path d="M 691 4666 
L 3169 4666 
L 3169 4134 
L 1269 4134 
L 1269 2991 
Q 1406 3038 1543 3061 
Q 1681 3084 1819 3084 
Q 2600 3084 3056 2656 
Q 3513 2228 3513 1497 
Q 3513 744 3044 326 
Q 2575 -91 1722 -91 
Q 1428 -91 1123 -41 
Q 819 9 494 109 
L 494 744 
Q 775 591 1075 516 
Q 1375 441 1709 441 
Q 2250 441 2565 725 
Q 2881 1009 2881 1497 
Q 2881 1984 2565 2268 
Q 2250 2553 1709 2553 
Q 1456 2553 1204 2497 
Q 953 2441 691 2322 
L 691 4666 
z
" id="DejaVuSans-35" transform="scale(0.015625)"/>
       </defs>
       <use xlink:href="#DejaVuSans-35"/>
       <use x="63.623047" xlink:href="#DejaVuSans-30"/>
       <use x="127.246094" xlink:href="#DejaVuSans-30"/>
       <use x="190.869141" xlink:href="#DejaVuSans-30"/>
       <use x="254.492188" xlink:href="#DejaVuSans-30"/>
      </g>
     </g>
    </g>
    <g id="ytick_2">
     <g id="line2d_7">
      <g>
       <use style="stroke:#000000;stroke-width:0.8;" x="57.6" xlink:href="#mf6f12f6399" y="223.202649"/>
      </g>
     </g>
     <g id="text_8">
      <!-- 60000 -->
      <g transform="translate(18.7875 227.001868)scale(0.1 -0.1)">
       <defs>
        <path d="M 2113 2584 
Q 1688 2584 1439 2293 
Q 1191 2003 1191 1497 
Q 1191 994 1439 701 
Q 1688 409 2113 409 
Q 2538 409 2786 701 
Q 3034 994 3034 1497 
Q 3034 2003 2786 2293 
Q 2538 2584 2113 2584 
z
M 3366 4563 
L 3366 3988 
Q 3128 4100 2886 4159 
Q 2644 4219 2406 4219 
Q 1781 4219 1451 3797 
Q 1122 3375 1075 2522 
Q 1259 2794 1537 2939 
Q 1816 3084 2150 3084 
Q 2853 3084 3261 2657 
Q 3669 2231 3669 1497 
Q 3669 778 3244 343 
Q 2819 -91 2113 -91 
Q 1303 -91 875 529 
Q 447 1150 447 2328 
Q 447 3434 972 4092 
Q 1497 4750 2381 4750 
Q 2619 4750 2861 4703 
Q 3103 4656 3366 4563 
z
" id="DejaVuSans-36" transform="scale(0.015625)"/>
       </defs>
       <use xlink:href="#DejaVuSans-36"/>
       <use x="63.623047" xlink:href="#DejaVuSans-30"/>
       <use x="127.246094" xlink:href="#DejaVuSans-30"/>
       <use x="190.869141" xlink:href="#DejaVuSans-30"/>
       <use x="254.492188" xlink:href="#DejaVuSans-30"/>
      </g>
     </g>
    </g>
    <g id="ytick_3">
     <g id="line2d_8">
      <g>
       <use style="stroke:#000000;stroke-width:0.8;" x="57.6" xlink:href="#mf6f12f6399" y="179.901952"/>
      </g>
     </g>
     <g id="text_9">
      <!-- 70000 -->
      <g transform="translate(18.7875 183.701171)scale(0.1 -0.1)">
       <defs>
        <path d="M 525 4666 
L 3525 4666 
L 3525 4397 
L 1831 0 
L 1172 0 
L 2766 4134 
L 525 4134 
L 525 4666 
z
" id="DejaVuSans-37" transform="scale(0.015625)"/>
       </defs>
       <use xlink:href="#DejaVuSans-37"/>
       <use x="63.623047" xlink:href="#DejaVuSans-30"/>
       <use x="127.246094" xlink:href="#DejaVuSans-30"/>
       <use x="190.869141" xlink:href="#DejaVuSans-30"/>
       <use x="254.492188" xlink:href="#DejaVuSans-30"/>
      </g>
     </g>
    </g>
    <g id="ytick_4">
     <g id="line2d_9">
      <g>
       <use style="stroke:#000000;stroke-width:0.8;" x="57.6" xlink:href="#mf6f12f6399" y="136.601255"/>
      </g>
     </g>
     <g id="text_10">
      <!-- 80000 -->
      <g transform="translate(18.7875 140.400474)scale(0.1 -0.1)">
       <defs>
        <path d="M 2034 2216 
Q 1584 2216 1326 1975 
Q 1069 1734 1069 1313 
Q 1069 891 1326 650 
Q 1584 409 2034 409 
Q 2484 409 2743 651 
Q 3003 894 3003 1313 
Q 3003 1734 2745 1975 
Q 2488 2216 2034 2216 
z
M 1403 2484 
Q 997 2584 770 2862 
Q 544 3141 544 3541 
Q 544 4100 942 4425 
Q 1341 4750 2034 4750 
Q 2731 4750 3128 4425 
Q 3525 4100 3525 3541 
Q 3525 3141 3298 2862 
Q 3072 2584 2669 2484 
Q 3125 2378 3379 2068 
Q 3634 1759 3634 1313 
Q 3634 634 3220 271 
Q 2806 -91 2034 -91 
Q 1263 -91 848 271 
Q 434 634 434 1313 
Q 434 1759 690 2068 
Q 947 2378 1403 2484 
z
M 1172 3481 
Q 1172 3119 1398 2916 
Q 1625 2713 2034 2713 
Q 2441 2713 2670 2916 
Q 2900 3119 2900 3481 
Q 2900 3844 2670 4047 
Q 2441 4250 2034 4250 
Q 1625 4250 1398 4047 
Q 1172 3844 1172 3481 
z
" id="DejaVuSans-38" transform="scale(0.015625)"/>
       </defs>
       <use xlink:href="#DejaVuSans-38"/>
       <use x="63.623047" xlink:href="#DejaVuSans-30"/>
       <use x="127.246094" xlink:href="#DejaVuSans-30"/>
       <use x="190.869141" xlink:href="#DejaVuSans-30"/>
       <use x="254.492188" xlink:href="#DejaVuSans-30"/>
      </g>
     </g>
    </g>
    <g id="ytick_5">
     <g id="line2d_10">
      <g>
       <use style="stroke:#000000;stroke-width:0.8;" x="57.6" xlink:href="#mf6f12f6399" y="93.300558"/>
      </g>
     </g>
     <g id="text_11">
      <!-- 90000 -->
      <g transform="translate(18.7875 97.099777)scale(0.1 -0.1)">
       <defs>
        <path d="M 703 97 
L 703 672 
Q 941 559 1184 500 
Q 1428 441 1663 441 
Q 2288 441 2617 861 
Q 2947 1281 2994 2138 
Q 2813 1869 2534 1725 
Q 2256 1581 1919 1581 
Q 1219 1581 811 2004 
Q 403 2428 403 3163 
Q 403 3881 828 4315 
Q 1253 4750 1959 4750 
Q 2769 4750 3195 4129 
Q 3622 3509 3622 2328 
Q 3622 1225 3098 567 
Q 2575 -91 1691 -91 
Q 1453 -91 1209 -44 
Q 966 3 703 97 
z
M 1959 2075 
Q 2384 2075 2632 2365 
Q 2881 2656 2881 3163 
Q 2881 3666 2632 3958 
Q 2384 4250 1959 4250 
Q 1534 4250 1286 3958 
Q 1038 3666 1038 3163 
Q 1038 2656 1286 2365 
Q 1534 2075 1959 2075 
z
" id="DejaVuSans-39" transform="scale(0.015625)"/>
       </defs>
       <use xlink:href="#DejaVuSans-39"/>
       <use x="63.623047" xlink:href="#DejaVuSans-30"/>
       <use x="127.246094" xlink:href="#DejaVuSans-30"/>
       <use x="190.869141" xlink:href="#DejaVuSans-30"/>
       <use x="254.492188" xlink:href="#DejaVuSans-30"/>
      </g>
     </g>
    </g>
    <g id="ytick_6">
     <g id="line2d_11">
      <g>
       <use style="stroke:#000000;stroke-width:0.8;" x="57.6" xlink:href="#mf6f12f6399" y="49.999861"/>
      </g>
     </g>
     <g id="text_12">
      <!-- 100000 -->
      <g transform="translate(12.425 53.79908)scale(0.1 -0.1)">
       <use xlink:href="#DejaVuSans-31"/>
       <use x="63.623047" xlink:href="#DejaVuSans-30"/>
       <use x="127.246094" xlink:href="#DejaVuSans-30"/>
       <use x="190.869141" xlink:href="#DejaVuSans-30"/>
       <use x="254.492188" xlink:href="#DejaVuSans-30"/>
       <use x="318.115234" xlink:href="#DejaVuSans-30"/>
      </g>
     </g>
    </g>
   </g>
   <g id="line2d_12">
    <path clip-path="url(#p7a87306719)" d="M 73.832727 61.93523 
L 75.927273 57.052169 
L 82.210909 52.154182 
L 84.305455 66.513863 
L 86.4 66.174092 
L 90.589091 66.134266 
L 96.872727 75.386965 
L 98.967273 85.117046 
L 101.061818 110.802018 
L 103.156364 108.672567 
L 105.250909 129.101302 
L 111.534545 129.013581 
L 113.629091 110.747627 
L 115.723636 102.733682 
L 117.818182 123.918078 
L 119.912727 127.263811 
L 126.196364 142.946354 
L 128.290909 138.593614 
L 130.385455 133.806936 
L 132.48 142.735976 
L 134.574545 130.12066 
L 140.858182 139.97606 
L 142.952727 126.561846 
L 145.047273 125.327055 
L 147.141818 122.409355 
L 155.52 123.00649 
L 157.614545 128.039752 
L 159.709091 135.036195 
L 161.803636 126.706888 
L 163.898182 135.445903 
L 170.181818 122.679097 
L 172.276364 132.502984 
L 174.370909 157.994708 
L 176.465455 159.63848 
L 178.56 155.961567 
L 184.843636 160.84597 
L 186.938182 154.125135 
L 189.032727 151.09532 
L 191.127273 170.807399 
L 193.221818 170.188965 
L 201.6 186.60683 
L 203.694545 193.808231 
L 205.789091 199.444979 
L 207.883636 211.292804 
L 214.167273 218.116649 
L 216.261818 225.193159 
L 218.356364 224.857491 
L 220.450909 244.242111 
L 222.545455 238.780396 
L 228.829091 213.010284 
L 230.923636 204.137367 
L 233.018182 216.176782 
L 235.112727 225.661713 
L 237.207273 216.282514 
L 243.490909 218.24685 
L 245.585455 206.090882 
L 247.68 190.21868 
L 249.774545 199.176652 
L 251.869091 210.579965 
L 258.152727 216.135344 
L 260.247273 190.349749 
L 262.341818 192.498163 
L 264.436364 207.832742 
L 266.530909 217.093508 
L 274.909091 227.000012 
L 277.003636 236.722322 
L 279.098182 221.393185 
L 281.192727 216.541009 
L 287.476364 205.217755 
L 289.570909 206.657169 
L 291.665455 202.059366 
L 293.76 216.174545 
L 295.854545 229.205539 
L 302.138182 241.811357 
L 304.232727 236.793991 
L 306.327273 226.061511 
L 308.421818 234.137533 
L 310.516364 249.365416 
L 316.8 265.035406 
L 318.894545 253.425609 
L 320.989091 231.504802 
L 323.083636 221.769239 
L 325.178182 211.101099 
L 331.461818 210.038437 
L 333.556364 189.245892 
L 335.650909 181.752382 
L 337.745455 177.538853 
L 339.84 181.272871 
L 346.123636 153.017648 
L 348.218182 140.470697 
L 350.312727 151.478293 
L 352.407273 163.331326 
L 354.501818 164.511564 
L 360.785455 149.3264 
L 362.88 171.327765 
L 364.974545 184.200604 
L 367.069091 189.96816 
L 369.163636 200.479473 
L 375.447273 203.097725 
L 377.541818 207.356893 
L 379.636364 196.854105 
L 381.730909 205.271514 
L 390.109091 211.450512 
L 392.203636 200.913967 
L 394.298182 215.711399 
L 396.392727 223.084675 
L 398.487273 226.84004 
" style="fill:none;stroke:#0000ff;stroke-linecap:square;stroke-opacity:0.9;stroke-width:2;"/>
   </g>
   <g id="line2d_13">
    <path clip-path="url(#p7a87306719)" d="M 73.832727 61.93523 
L 75.927273 57.37288 
L 82.210909 52.706781 
L 84.305455 66.586874 
L 86.4 65.938647 
L 90.589091 79.3035 
L 96.872727 75.786758 
L 98.967273 85.207967 
L 101.061818 110.980941 
L 103.156364 108.701383 
L 105.250909 128.893576 
L 111.534545 128.65852 
L 113.629091 110.728003 
L 115.723636 102.799672 
L 117.818182 123.85169 
L 119.912727 126.868179 
L 126.196364 142.676179 
L 128.290909 138.305917 
L 130.385455 133.557724 
L 132.48 142.557343 
L 134.574545 130.128595 
L 140.858182 139.641989 
L 142.952727 126.561897 
L 145.047273 125.251108 
L 147.141818 122.302758 
L 155.52 123.223246 
L 157.614545 128.328242 
L 159.709091 135.36091 
L 161.803636 127.136718 
L 163.898182 135.661036 
L 170.181818 122.264733 
L 172.276364 132.203775 
L 174.370909 155.666553 
L 176.465455 157.364946 
L 178.56 154.167371 
L 184.843636 158.2797 
L 186.938182 151.418361 
L 189.032727 146.462684 
L 191.127273 164.954472 
L 193.221818 163.731516 
L 201.6 179.468535 
L 203.694545 186.210327 
L 205.789091 191.975793 
L 207.883636 205.295538 
L 214.167273 212.791279 
L 216.261818 219.268203 
L 218.356364 219.917119 
L 220.450909 239.440776 
L 222.545455 234.406876 
L 228.829091 209.921688 
L 230.923636 201.617559 
L 233.018182 210.976088 
L 235.112727 219.886105 
L 237.207273 210.840819 
L 243.490909 212.160912 
L 245.585455 201.345526 
L 247.68 187.564288 
L 249.774545 196.895645 
L 251.869091 210.575581 
L 258.152727 215.431251 
L 260.247273 192.503456 
L 262.341818 194.232683 
L 264.436364 208.939028 
L 266.530909 217.221475 
L 274.909091 225.759911 
L 277.003636 235.523357 
L 279.098182 222.818071 
L 281.192727 216.223336 
L 287.476364 206.276947 
L 289.570909 208.629263 
L 291.665455 203.470423 
L 293.76 216.956964 
L 295.854545 229.840985 
L 302.138182 242.851727 
L 304.232727 237.337532 
L 306.327273 226.307742 
L 308.421818 234.334153 
L 310.516364 247.538704 
L 316.8 261.050151 
L 318.894545 250.52218 
L 320.989091 230.304078 
L 323.083636 222.383421 
L 325.178182 213.011664 
L 331.461818 210.766691 
L 333.556364 193.590118 
L 335.650909 187.725498 
L 337.745455 182.833458 
L 339.84 185.73839 
L 346.123636 160.277953 
L 348.218182 151.696067 
L 350.312727 162.18388 
L 352.407273 173.264398 
L 354.501818 173.718214 
L 360.785455 160.046816 
L 362.88 181.361941 
L 364.974545 192.503979 
L 367.069091 197.297058 
L 369.163636 206.799122 
L 375.447273 209.506501 
L 377.541818 212.372156 
L 379.636364 202.13502 
L 381.730909 209.242958 
L 390.109091 214.064474 
L 392.203636 204.767255 
L 394.298182 218.094285 
L 396.392727 224.148944 
L 398.487273 228.065866 
" style="fill:none;stroke:#ff0000;stroke-linecap:square;stroke-opacity:0.9;stroke-width:2;"/>
   </g>
   <g id="line2d_14">
    <path clip-path="url(#p7a87306719)" d="M 73.832727 61.93523 
L 75.927273 57.2172 
L 82.210909 53.16952 
L 84.305455 65.870791 
L 86.4 65.474294 
L 90.589091 78.35727 
L 96.872727 74.946869 
L 98.967273 85.108723 
L 101.061818 111.211634 
L 103.156364 108.09613 
L 105.250909 128.150866 
L 111.534545 127.488288 
L 113.629091 109.642359 
L 115.723636 101.328131 
L 117.818182 122.659248 
L 119.912727 126.475421 
L 126.196364 143.510238 
L 128.290909 137.271173 
L 130.385455 132.816386 
L 132.48 141.697961 
L 134.574545 126.915844 
L 140.858182 136.413876 
L 142.952727 122.981551 
L 145.047273 122.724619 
L 147.141818 119.683368 
L 155.52 121.608716 
L 157.614545 127.202005 
L 159.709091 133.846278 
L 161.803636 123.976216 
L 163.898182 133.405032 
L 170.181818 121.263011 
L 172.276364 130.99109 
L 174.370909 156.102455 
L 176.465455 158.227296 
L 178.56 153.452948 
L 184.843636 158.456324 
L 186.938182 151.808212 
L 189.032727 148.295544 
L 191.127273 168.442806 
L 193.221818 167.747542 
L 201.6 184.516561 
L 203.694545 191.635651 
L 205.789091 197.378174 
L 207.883636 209.334276 
L 214.167273 216.383967 
L 216.261818 223.064555 
L 218.356364 223.248728 
L 220.450909 242.730251 
L 222.545455 237.153995 
L 228.829091 211.405313 
L 230.923636 202.634827 
L 233.018182 214.732012 
L 235.112727 224.140543 
L 237.207273 214.799422 
L 243.490909 216.920894 
L 245.585455 204.522851 
L 247.68 188.372802 
L 249.774545 197.347118 
L 251.869091 209.080629 
L 258.152727 214.829528 
L 260.247273 189.169902 
L 262.341818 191.772578 
L 264.436364 206.783076 
L 266.530909 216.351988 
L 274.909091 226.013115 
L 277.003636 235.977083 
L 279.098182 220.004244 
L 281.192727 215.556901 
L 287.476364 204.276821 
L 289.570909 205.444691 
L 291.665455 200.938511 
L 293.76 215.473968 
L 295.854545 228.812221 
L 302.138182 241.7264 
L 304.232727 236.893752 
L 306.327273 225.572579 
L 308.421818 234.67938 
L 310.516364 249.556373 
L 316.8 265.461167 
L 318.894545 253.632289 
L 320.989091 231.573715 
L 323.083636 222.495112 
L 325.178182 211.595968 
L 331.461818 210.560467 
L 333.556364 188.636769 
L 335.650909 179.857875 
L 337.745455 175.787857 
L 339.84 179.8092 
L 346.123636 148.844818 
L 348.218182 136.762455 
L 350.312727 148.41791 
L 352.407273 160.713236 
L 354.501818 160.654551 
L 360.785455 145.532037 
L 362.88 167.788762 
L 364.974545 180.222613 
L 367.069091 185.899715 
L 369.163636 196.583001 
L 375.447273 198.792611 
L 377.541818 202.830989 
L 379.636364 192.081361 
L 381.730909 200.653977 
L 390.109091 206.66121 
L 392.203636 195.897846 
L 394.298182 210.998662 
L 396.392727 218.789925 
L 398.487273 222.285048 
" style="fill:none;stroke:#008000;stroke-linecap:square;stroke-opacity:0.9;stroke-width:2;"/>
   </g>
   <g id="line2d_15">
    <path clip-path="url(#p7a87306719)" d="M 73.832727 61.93523 
L 75.927273 57.161443 
L 82.210909 52.761281 
L 84.305455 65.712428 
L 86.4 65.274002 
L 90.589091 78.440289 
L 96.872727 75.273613 
L 98.967273 84.826137 
L 101.061818 111.222075 
L 103.156364 108.205362 
L 105.250909 128.070382 
L 111.534545 127.504742 
L 113.629091 109.83289 
L 115.723636 101.357481 
L 117.818182 123.091858 
L 119.912727 126.588884 
L 126.196364 143.502891 
L 128.290909 138.659561 
L 130.385455 133.847028 
L 132.48 142.717464 
L 134.574545 127.809974 
L 140.858182 137.58883 
L 142.952727 123.811445 
L 145.047273 123.410989 
L 147.141818 120.456729 
L 155.52 122.251445 
L 157.614545 127.930432 
L 159.709091 134.463861 
L 161.803636 124.684204 
L 163.898182 133.96269 
L 170.181818 121.870673 
L 172.276364 131.463261 
L 174.370909 156.966657 
L 176.465455 159.018457 
L 178.56 154.703232 
L 184.843636 159.686969 
L 186.938182 153.379059 
L 189.032727 149.691098 
L 191.127273 169.756199 
L 193.221818 169.30227 
L 201.6 185.73114 
L 203.694545 193.041244 
L 205.789091 198.572647 
L 207.883636 210.22771 
L 214.167273 217.292867 
L 216.261818 224.362154 
L 218.356364 224.306598 
L 220.450909 243.882535 
L 222.545455 238.321678 
L 228.829091 212.507788 
L 230.923636 203.661377 
L 233.018182 215.773111 
L 235.112727 225.283621 
L 237.207273 215.590698 
L 243.490909 218.099869 
L 245.585455 205.71671 
L 247.68 189.822835 
L 249.774545 198.674683 
L 251.869091 210.22006 
L 258.152727 215.909839 
L 260.247273 190.136488 
L 262.341818 192.056784 
L 264.436364 207.277994 
L 266.530909 216.732243 
L 274.909091 226.682905 
L 277.003636 236.380278 
L 279.098182 220.625946 
L 281.192727 215.797231 
L 287.476364 204.163642 
L 289.570909 205.445473 
L 291.665455 201.404419 
L 293.76 215.567966 
L 295.854545 228.634599 
L 302.138182 242.070167 
L 304.232727 236.757433 
L 306.327273 225.926342 
L 308.421818 234.725217 
L 310.516364 249.340742 
L 316.8 265.531657 
L 318.894545 253.794803 
L 320.989091 231.73445 
L 323.083636 222.608829 
L 325.178182 211.762729 
L 331.461818 210.820069 
L 333.556364 189.047597 
L 335.650909 180.8295 
L 337.745455 176.461105 
L 339.84 180.63003 
L 346.123636 149.400134 
L 348.218182 137.505624 
L 350.312727 148.804511 
L 352.407273 161.422795 
L 354.501818 161.920531 
L 360.785455 147.059682 
L 362.88 169.145043 
L 364.974545 181.302501 
L 367.069091 187.183206 
L 369.163636 197.732196 
L 375.447273 200.397357 
L 377.541818 204.345022 
L 379.636364 193.692207 
L 381.730909 201.982309 
L 390.109091 207.979695 
L 392.203636 196.978879 
L 394.298182 212.591657 
L 396.392727 220.070679 
L 398.487273 223.764322 
" style="fill:none;stroke:#ec5283;stroke-linecap:square;stroke-width:2;"/>
   </g>
   <g id="line2d_16">
    <path clip-path="url(#p7a87306719)" d="M 73.832727 61.93523 
L 75.927273 57.379374 
L 82.210909 53.033213 
L 84.305455 65.782936 
L 86.4 65.337748 
L 90.589091 77.789885 
L 96.872727 74.928473 
L 98.967273 84.548818 
L 101.061818 110.076404 
L 103.156364 106.952548 
L 105.250909 126.519376 
L 111.534545 126.207606 
L 113.629091 108.164436 
L 115.723636 100.434406 
L 117.818182 121.318138 
L 119.912727 124.787024 
L 126.196364 141.280011 
L 128.290909 135.751926 
L 130.385455 130.95506 
L 132.48 139.669506 
L 134.574545 125.061755 
L 140.858182 134.710246 
L 142.952727 121.493732 
L 145.047273 121.197215 
L 147.141818 118.059512 
L 155.52 120.059685 
L 157.614545 125.522437 
L 159.709091 132.240911 
L 161.803636 122.346139 
L 163.898182 131.61786 
L 170.181818 119.678607 
L 172.276364 129.292668 
L 174.370909 153.8227 
L 176.465455 155.964531 
L 178.56 151.259473 
L 184.843636 155.73608 
L 186.938182 149.594863 
L 189.032727 146.355062 
L 191.127273 165.98672 
L 193.221818 165.084472 
L 201.6 181.479502 
L 203.694545 188.489857 
L 205.789091 193.851377 
L 207.883636 205.715058 
L 214.167273 212.589841 
L 216.261818 219.251724 
L 218.356364 219.444748 
L 220.450909 238.598825 
L 222.545455 233.218058 
L 228.829091 207.760539 
L 230.923636 199.050457 
L 233.018182 210.760774 
L 235.112727 220.198322 
L 237.207273 210.841165 
L 243.490909 212.889749 
L 245.585455 201.100679 
L 247.68 185.288633 
L 249.774545 194.221877 
L 251.869091 205.444641 
L 258.152727 211.232628 
L 260.247273 186.219258 
L 262.341818 188.365392 
L 264.436364 203.321638 
L 266.530909 212.702118 
L 274.909091 222.197472 
L 277.003636 231.392001 
L 279.098182 216.458102 
L 281.192727 211.693872 
L 287.476364 200.653201 
L 289.570909 201.88307 
L 291.665455 197.551573 
L 293.76 211.960912 
L 295.854545 224.410583 
L 302.138182 237.43415 
L 304.232727 232.398451 
L 306.327273 221.730843 
L 308.421818 230.532241 
L 310.516364 244.652651 
L 316.8 260.5495 
L 318.894545 248.954704 
L 320.989091 227.191738 
L 323.083636 218.520425 
L 325.178182 207.839371 
L 331.461818 206.859097 
L 333.556364 185.466519 
L 335.650909 176.891503 
L 337.745455 173.144559 
L 339.84 176.928973 
L 346.123636 146.811214 
L 348.218182 135.029507 
L 350.312727 146.39364 
L 352.407273 157.935753 
L 354.501818 158.281028 
L 360.785455 143.647618 
L 362.88 165.496255 
L 364.974545 177.027676 
L 367.069091 183.111769 
L 369.163636 193.377551 
L 375.447273 195.47558 
L 377.541818 199.422163 
L 379.636364 188.881586 
L 381.730909 197.052935 
L 390.109091 203.100436 
L 392.203636 192.553165 
L 394.298182 207.622244 
L 396.392727 215.025653 
L 398.487273 218.189498 
" style="fill:none;stroke:#00ff00;stroke-linecap:square;stroke-opacity:0.9;stroke-width:2;"/>
   </g>
   <g id="line2d_17">
    <path clip-path="url(#p7a87306719)" d="M 73.832727 61.93523 
L 75.927273 59.771452 
L 82.210909 58.872775 
L 84.305455 64.851277 
L 86.4 64.943912 
L 90.589091 76.696388 
L 96.872727 76.821606 
L 98.967273 85.697483 
L 101.061818 110.270282 
L 103.156364 105.852868 
L 105.250909 125.256486 
L 111.534545 121.633213 
L 113.629091 103.273412 
L 115.723636 92.108719 
L 117.818182 114.684712 
L 119.912727 120.716916 
L 126.196364 134.308676 
L 128.290909 131.000323 
L 130.385455 126.29175 
L 132.48 136.446133 
L 134.574545 118.177327 
L 140.858182 130.116902 
L 142.952727 114.736309 
L 145.047273 115.310761 
L 147.141818 111.305575 
L 155.52 117.073207 
L 157.614545 123.972968 
L 159.709091 134.322587 
L 161.803636 118.598891 
L 163.898182 130.39466 
L 170.181818 119.855792 
L 172.276364 128.743703 
L 174.370909 158.255449 
L 176.465455 160.093851 
L 178.56 155.962999 
L 184.843636 162.025167 
L 186.938182 155.67694 
L 189.032727 155.368486 
L 191.127273 176.348616 
L 193.221818 176.548666 
L 201.6 194.15894 
L 203.694545 201.772834 
L 205.789091 207.467189 
L 207.883636 219.017431 
L 214.167273 223.058147 
L 216.261818 229.677065 
L 218.356364 228.560048 
L 220.450909 247.971094 
L 222.545455 242.858791 
L 228.829091 213.414541 
L 230.923636 204.312046 
L 233.018182 219.109647 
L 235.112727 229.979653 
L 237.207273 218.837874 
L 243.490909 222.466467 
L 245.585455 209.799854 
L 247.68 192.458936 
L 249.774545 201.289024 
L 251.869091 211.764165 
L 258.152727 217.117213 
L 260.247273 183.253578 
L 262.341818 187.369946 
L 264.436364 204.296495 
L 266.530909 216.59057 
L 274.909091 227.303217 
L 277.003636 236.526205 
L 279.098182 218.249029 
L 281.192727 215.33831 
L 287.476364 201.512859 
L 289.570909 196.088681 
L 291.665455 193.184378 
L 293.76 211.51001 
L 295.854545 225.283817 
L 302.138182 238.858109 
L 304.232727 235.30038 
L 306.327273 221.78373 
L 308.421818 233.224566 
L 310.516364 247.878305 
L 316.8 265.797818 
L 318.894545 252.437082 
L 320.989091 226.710701 
L 323.083636 219.400911 
L 325.178182 206.975371 
L 331.461818 205.213887 
L 333.556364 178.803498 
L 335.650909 170.212521 
L 337.745455 165.922203 
L 339.84 173.221078 
L 346.123636 147.70562 
L 348.218182 130.718093 
L 350.312727 138.560411 
L 352.407273 153.383241 
L 354.501818 149.664183 
L 360.785455 135.475528 
L 362.88 157.869566 
L 364.974545 168.741586 
L 367.069091 174.042847 
L 369.163636 183.370748 
L 375.447273 185.465896 
L 377.541818 188.42356 
L 379.636364 177.296928 
L 381.730909 188.394581 
L 390.109091 195.889442 
L 392.203636 183.81859 
L 394.298182 202.743416 
L 396.392727 212.830449 
L 398.487273 215.448008 
" style="fill:none;stroke:#a5b9cf;stroke-linecap:square;stroke-width:2;"/>
   </g>
   <g id="patch_3">
    <path d="M 57.6 276.48 
L 57.6 41.472 
" style="fill:none;stroke:#000000;stroke-linecap:square;stroke-linejoin:miter;stroke-width:0.8;"/>
   </g>
   <g id="patch_4">
    <path d="M 414.72 276.48 
L 414.72 41.472 
" style="fill:none;stroke:#000000;stroke-linecap:square;stroke-linejoin:miter;stroke-width:0.8;"/>
   </g>
   <g id="patch_5">
    <path d="M 57.6 276.48 
L 414.72 276.48 
" style="fill:none;stroke:#000000;stroke-linecap:square;stroke-linejoin:miter;stroke-width:0.8;"/>
   </g>
   <g id="patch_6">
    <path d="M 57.6 41.472 
L 414.72 41.472 
" style="fill:none;stroke:#000000;stroke-linecap:square;stroke-linejoin:miter;stroke-width:0.8;"/>
   </g>
   <g id="text_13">
    <!-- STONKS -->
    <g transform="translate(211.730625 22.034625)scale(0.12 -0.12)">
     <defs>
      <path d="M 3425 4513 
L 3425 3897 
Q 3066 4069 2747 4153 
Q 2428 4238 2131 4238 
Q 1616 4238 1336 4038 
Q 1056 3838 1056 3469 
Q 1056 3159 1242 3001 
Q 1428 2844 1947 2747 
L 2328 2669 
Q 3034 2534 3370 2195 
Q 3706 1856 3706 1288 
Q 3706 609 3251 259 
Q 2797 -91 1919 -91 
Q 1588 -91 1214 -16 
Q 841 59 441 206 
L 441 856 
Q 825 641 1194 531 
Q 1563 422 1919 422 
Q 2459 422 2753 634 
Q 3047 847 3047 1241 
Q 3047 1584 2836 1778 
Q 2625 1972 2144 2069 
L 1759 2144 
Q 1053 2284 737 2584 
Q 422 2884 422 3419 
Q 422 4038 858 4394 
Q 1294 4750 2059 4750 
Q 2388 4750 2728 4690 
Q 3069 4631 3425 4513 
z
" id="DejaVuSans-53" transform="scale(0.015625)"/>
      <path d="M -19 4666 
L 3928 4666 
L 3928 4134 
L 2272 4134 
L 2272 0 
L 1638 0 
L 1638 4134 
L -19 4134 
L -19 4666 
z
" id="DejaVuSans-54" transform="scale(0.015625)"/>
      <path d="M 2522 4238 
Q 1834 4238 1429 3725 
Q 1025 3213 1025 2328 
Q 1025 1447 1429 934 
Q 1834 422 2522 422 
Q 3209 422 3611 934 
Q 4013 1447 4013 2328 
Q 4013 3213 3611 3725 
Q 3209 4238 2522 4238 
z
M 2522 4750 
Q 3503 4750 4090 4092 
Q 4678 3434 4678 2328 
Q 4678 1225 4090 567 
Q 3503 -91 2522 -91 
Q 1538 -91 948 565 
Q 359 1222 359 2328 
Q 359 3434 948 4092 
Q 1538 4750 2522 4750 
z
" id="DejaVuSans-4f" transform="scale(0.015625)"/>
      <path d="M 628 4666 
L 1478 4666 
L 3547 763 
L 3547 4666 
L 4159 4666 
L 4159 0 
L 3309 0 
L 1241 3903 
L 1241 0 
L 628 0 
L 628 4666 
z
" id="DejaVuSans-4e" transform="scale(0.015625)"/>
      <path d="M 628 4666 
L 1259 4666 
L 1259 2694 
L 3353 4666 
L 4166 4666 
L 1850 2491 
L 4331 0 
L 3500 0 
L 1259 2247 
L 1259 0 
L 628 0 
L 628 4666 
z
" id="DejaVuSans-4b" transform="scale(0.015625)"/>
     </defs>
     <use xlink:href="#DejaVuSans-53"/>
     <use x="63.476562" xlink:href="#DejaVuSans-54"/>
     <use x="124.560547" xlink:href="#DejaVuSans-4f"/>
     <use x="203.271484" xlink:href="#DejaVuSans-4e"/>
     <use x="278.076172" xlink:href="#DejaVuSans-4b"/>
     <use x="343.652344" xlink:href="#DejaVuSans-53"/>
    </g>
    <!-- daily_report -->
    <g transform="translate(200.466563 35.472)scale(0.12 -0.12)">
     <defs>
      <path d="M 603 3500 
L 1178 3500 
L 1178 0 
L 603 0 
L 603 3500 
z
M 603 4863 
L 1178 4863 
L 1178 4134 
L 603 4134 
L 603 4863 
z
" id="DejaVuSans-69" transform="scale(0.015625)"/>
      <path d="M 603 4863 
L 1178 4863 
L 1178 0 
L 603 0 
L 603 4863 
z
" id="DejaVuSans-6c" transform="scale(0.015625)"/>
      <path d="M 2059 -325 
Q 1816 -950 1584 -1140 
Q 1353 -1331 966 -1331 
L 506 -1331 
L 506 -850 
L 844 -850 
Q 1081 -850 1212 -737 
Q 1344 -625 1503 -206 
L 1606 56 
L 191 3500 
L 800 3500 
L 1894 763 
L 2988 3500 
L 3597 3500 
L 2059 -325 
z
" id="DejaVuSans-79" transform="scale(0.015625)"/>
      <path d="M 3263 -1063 
L 3263 -1509 
L -63 -1509 
L -63 -1063 
L 3263 -1063 
z
" id="DejaVuSans-5f" transform="scale(0.015625)"/>
      <path d="M 2631 2963 
Q 2534 3019 2420 3045 
Q 2306 3072 2169 3072 
Q 1681 3072 1420 2755 
Q 1159 2438 1159 1844 
L 1159 0 
L 581 0 
L 581 3500 
L 1159 3500 
L 1159 2956 
Q 1341 3275 1631 3429 
Q 1922 3584 2338 3584 
Q 2397 3584 2469 3576 
Q 2541 3569 2628 3553 
L 2631 2963 
z
" id="DejaVuSans-72" transform="scale(0.015625)"/>
      <path d="M 1159 525 
L 1159 -1331 
L 581 -1331 
L 581 3500 
L 1159 3500 
L 1159 2969 
Q 1341 3281 1617 3432 
Q 1894 3584 2278 3584 
Q 2916 3584 3314 3078 
Q 3713 2572 3713 1747 
Q 3713 922 3314 415 
Q 2916 -91 2278 -91 
Q 1894 -91 1617 61 
Q 1341 213 1159 525 
z
M 3116 1747 
Q 3116 2381 2855 2742 
Q 2594 3103 2138 3103 
Q 1681 3103 1420 2742 
Q 1159 2381 1159 1747 
Q 1159 1113 1420 752 
Q 1681 391 2138 391 
Q 2594 391 2855 752 
Q 3116 1113 3116 1747 
z
" id="DejaVuSans-70" transform="scale(0.015625)"/>
      <path d="M 1959 3097 
Q 1497 3097 1228 2736 
Q 959 2375 959 1747 
Q 959 1119 1226 758 
Q 1494 397 1959 397 
Q 2419 397 2687 759 
Q 2956 1122 2956 1747 
Q 2956 2369 2687 2733 
Q 2419 3097 1959 3097 
z
M 1959 3584 
Q 2709 3584 3137 3096 
Q 3566 2609 3566 1747 
Q 3566 888 3137 398 
Q 2709 -91 1959 -91 
Q 1206 -91 779 398 
Q 353 888 353 1747 
Q 353 2609 779 3096 
Q 1206 3584 1959 3584 
z
" id="DejaVuSans-6f" transform="scale(0.015625)"/>
     </defs>
     <use xlink:href="#DejaVuSans-64"/>
     <use x="63.476562" xlink:href="#DejaVuSans-61"/>
     <use x="124.755859" xlink:href="#DejaVuSans-69"/>
     <use x="152.539062" xlink:href="#DejaVuSans-6c"/>
     <use x="180.322266" xlink:href="#DejaVuSans-79"/>
     <use x="239.501953" xlink:href="#DejaVuSans-5f"/>
     <use x="289.501953" xlink:href="#DejaVuSans-72"/>
     <use x="328.365234" xlink:href="#DejaVuSans-65"/>
     <use x="389.888672" xlink:href="#DejaVuSans-70"/>
     <use x="453.365234" xlink:href="#DejaVuSans-6f"/>
     <use x="514.546875" xlink:href="#DejaVuSans-72"/>
     <use x="555.660156" xlink:href="#DejaVuSans-74"/>
    </g>
   </g>
   <g id="legend_1">
    <g id="patch_7">
     <path d="M 64.6 271.48 
L 178.64375 271.48 
Q 180.64375 271.48 180.64375 269.48 
L 180.64375 182.41125 
Q 180.64375 180.41125 178.64375 180.41125 
L 64.6 180.41125 
Q 62.6 180.41125 62.6 182.41125 
L 62.6 269.48 
Q 62.6 271.48 64.6 271.48 
z
" style="fill:#ffffff;opacity:0.8;stroke:#cccccc;stroke-linejoin:miter;"/>
    </g>
    <g id="line2d_18">
     <path d="M 66.6 188.509687 
L 86.6 188.509687 
" style="fill:none;stroke:#0000ff;stroke-linecap:square;stroke-opacity:0.9;stroke-width:2;"/>
    </g>
    <g id="line2d_19"/>
    <g id="text_14">
     <!-- alpaca -->
     <g transform="translate(94.6 192.009687)scale(0.1 -0.1)">
      <defs>
       <path d="M 3122 3366 
L 3122 2828 
Q 2878 2963 2633 3030 
Q 2388 3097 2138 3097 
Q 1578 3097 1268 2742 
Q 959 2388 959 1747 
Q 959 1106 1268 751 
Q 1578 397 2138 397 
Q 2388 397 2633 464 
Q 2878 531 3122 666 
L 3122 134 
Q 2881 22 2623 -34 
Q 2366 -91 2075 -91 
Q 1284 -91 818 406 
Q 353 903 353 1747 
Q 353 2603 823 3093 
Q 1294 3584 2113 3584 
Q 2378 3584 2631 3529 
Q 2884 3475 3122 3366 
z
" id="DejaVuSans-63" transform="scale(0.015625)"/>
      </defs>
      <use xlink:href="#DejaVuSans-61"/>
      <use x="61.279297" xlink:href="#DejaVuSans-6c"/>
      <use x="89.0625" xlink:href="#DejaVuSans-70"/>
      <use x="152.539062" xlink:href="#DejaVuSans-61"/>
      <use x="213.818359" xlink:href="#DejaVuSans-63"/>
      <use x="268.798828" xlink:href="#DejaVuSans-61"/>
     </g>
    </g>
    <g id="line2d_20">
     <path d="M 66.6 203.187812 
L 86.6 203.187812 
" style="fill:none;stroke:#ff0000;stroke-linecap:square;stroke-opacity:0.9;stroke-width:2;"/>
    </g>
    <g id="line2d_21"/>
    <g id="text_15">
     <!-- mattress -->
     <g transform="translate(94.6 206.687812)scale(0.1 -0.1)">
      <defs>
       <path d="M 3328 2828 
Q 3544 3216 3844 3400 
Q 4144 3584 4550 3584 
Q 5097 3584 5394 3201 
Q 5691 2819 5691 2113 
L 5691 0 
L 5113 0 
L 5113 2094 
Q 5113 2597 4934 2840 
Q 4756 3084 4391 3084 
Q 3944 3084 3684 2787 
Q 3425 2491 3425 1978 
L 3425 0 
L 2847 0 
L 2847 2094 
Q 2847 2600 2669 2842 
Q 2491 3084 2119 3084 
Q 1678 3084 1418 2786 
Q 1159 2488 1159 1978 
L 1159 0 
L 581 0 
L 581 3500 
L 1159 3500 
L 1159 2956 
Q 1356 3278 1631 3431 
Q 1906 3584 2284 3584 
Q 2666 3584 2933 3390 
Q 3200 3197 3328 2828 
z
" id="DejaVuSans-6d" transform="scale(0.015625)"/>
       <path d="M 2834 3397 
L 2834 2853 
Q 2591 2978 2328 3040 
Q 2066 3103 1784 3103 
Q 1356 3103 1142 2972 
Q 928 2841 928 2578 
Q 928 2378 1081 2264 
Q 1234 2150 1697 2047 
L 1894 2003 
Q 2506 1872 2764 1633 
Q 3022 1394 3022 966 
Q 3022 478 2636 193 
Q 2250 -91 1575 -91 
Q 1294 -91 989 -36 
Q 684 19 347 128 
L 347 722 
Q 666 556 975 473 
Q 1284 391 1588 391 
Q 1994 391 2212 530 
Q 2431 669 2431 922 
Q 2431 1156 2273 1281 
Q 2116 1406 1581 1522 
L 1381 1569 
Q 847 1681 609 1914 
Q 372 2147 372 2553 
Q 372 3047 722 3315 
Q 1072 3584 1716 3584 
Q 2034 3584 2315 3537 
Q 2597 3491 2834 3397 
z
" id="DejaVuSans-73" transform="scale(0.015625)"/>
      </defs>
      <use xlink:href="#DejaVuSans-6d"/>
      <use x="97.412109" xlink:href="#DejaVuSans-61"/>
      <use x="158.691406" xlink:href="#DejaVuSans-74"/>
      <use x="197.900391" xlink:href="#DejaVuSans-74"/>
      <use x="237.109375" xlink:href="#DejaVuSans-72"/>
      <use x="275.972656" xlink:href="#DejaVuSans-65"/>
      <use x="337.496094" xlink:href="#DejaVuSans-73"/>
      <use x="389.595703" xlink:href="#DejaVuSans-73"/>
     </g>
    </g>
    <g id="line2d_22">
     <path d="M 66.6 217.865937 
L 86.6 217.865937 
" style="fill:none;stroke:#008000;stroke-linecap:square;stroke-opacity:0.9;stroke-width:2;"/>
    </g>
    <g id="line2d_23"/>
    <g id="text_16">
     <!-- daily-open-rebal -->
     <g transform="translate(94.6 221.365937)scale(0.1 -0.1)">
      <defs>
       <path d="M 3513 2113 
L 3513 0 
L 2938 0 
L 2938 2094 
Q 2938 2591 2744 2837 
Q 2550 3084 2163 3084 
Q 1697 3084 1428 2787 
Q 1159 2491 1159 1978 
L 1159 0 
L 581 0 
L 581 3500 
L 1159 3500 
L 1159 2956 
Q 1366 3272 1645 3428 
Q 1925 3584 2291 3584 
Q 2894 3584 3203 3211 
Q 3513 2838 3513 2113 
z
" id="DejaVuSans-6e" transform="scale(0.015625)"/>
       <path d="M 3116 1747 
Q 3116 2381 2855 2742 
Q 2594 3103 2138 3103 
Q 1681 3103 1420 2742 
Q 1159 2381 1159 1747 
Q 1159 1113 1420 752 
Q 1681 391 2138 391 
Q 2594 391 2855 752 
Q 3116 1113 3116 1747 
z
M 1159 2969 
Q 1341 3281 1617 3432 
Q 1894 3584 2278 3584 
Q 2916 3584 3314 3078 
Q 3713 2572 3713 1747 
Q 3713 922 3314 415 
Q 2916 -91 2278 -91 
Q 1894 -91 1617 61 
Q 1341 213 1159 525 
L 1159 0 
L 581 0 
L 581 4863 
L 1159 4863 
L 1159 2969 
z
" id="DejaVuSans-62" transform="scale(0.015625)"/>
      </defs>
      <use xlink:href="#DejaVuSans-64"/>
      <use x="63.476562" xlink:href="#DejaVuSans-61"/>
      <use x="124.755859" xlink:href="#DejaVuSans-69"/>
      <use x="152.539062" xlink:href="#DejaVuSans-6c"/>
      <use x="180.322266" xlink:href="#DejaVuSans-79"/>
      <use x="237.751953" xlink:href="#DejaVuSans-2d"/>
      <use x="275.710938" xlink:href="#DejaVuSans-6f"/>
      <use x="336.892578" xlink:href="#DejaVuSans-70"/>
      <use x="400.369141" xlink:href="#DejaVuSans-65"/>
      <use x="461.892578" xlink:href="#DejaVuSans-6e"/>
      <use x="525.271484" xlink:href="#DejaVuSans-2d"/>
      <use x="561.355469" xlink:href="#DejaVuSans-72"/>
      <use x="600.21875" xlink:href="#DejaVuSans-65"/>
      <use x="661.742188" xlink:href="#DejaVuSans-62"/>
      <use x="725.21875" xlink:href="#DejaVuSans-61"/>
      <use x="786.498047" xlink:href="#DejaVuSans-6c"/>
     </g>
    </g>
    <g id="line2d_24">
     <path d="M 66.6 232.544062 
L 86.6 232.544062 
" style="fill:none;stroke:#ec5283;stroke-linecap:square;stroke-width:2;"/>
    </g>
    <g id="line2d_25"/>
    <g id="text_17">
     <!-- daily-close-rebal -->
     <g transform="translate(94.6 236.044062)scale(0.1 -0.1)">
      <use xlink:href="#DejaVuSans-64"/>
      <use x="63.476562" xlink:href="#DejaVuSans-61"/>
      <use x="124.755859" xlink:href="#DejaVuSans-69"/>
      <use x="152.539062" xlink:href="#DejaVuSans-6c"/>
      <use x="180.322266" xlink:href="#DejaVuSans-79"/>
      <use x="237.751953" xlink:href="#DejaVuSans-2d"/>
      <use x="273.835938" xlink:href="#DejaVuSans-63"/>
      <use x="328.816406" xlink:href="#DejaVuSans-6c"/>
      <use x="356.599609" xlink:href="#DejaVuSans-6f"/>
      <use x="417.78125" xlink:href="#DejaVuSans-73"/>
      <use x="469.880859" xlink:href="#DejaVuSans-65"/>
      <use x="531.404297" xlink:href="#DejaVuSans-2d"/>
      <use x="567.488281" xlink:href="#DejaVuSans-72"/>
      <use x="606.351562" xlink:href="#DejaVuSans-65"/>
      <use x="667.875" xlink:href="#DejaVuSans-62"/>
      <use x="731.351562" xlink:href="#DejaVuSans-61"/>
      <use x="792.630859" xlink:href="#DejaVuSans-6c"/>
     </g>
    </g>
    <g id="line2d_26">
     <path d="M 66.6 247.222187 
L 86.6 247.222187 
" style="fill:none;stroke:#00ff00;stroke-linecap:square;stroke-opacity:0.9;stroke-width:2;"/>
    </g>
    <g id="line2d_27"/>
    <g id="text_18">
     <!-- trader-baseline -->
     <g transform="translate(94.6 250.722187)scale(0.1 -0.1)">
      <use xlink:href="#DejaVuSans-74"/>
      <use x="39.208984" xlink:href="#DejaVuSans-72"/>
      <use x="80.322266" xlink:href="#DejaVuSans-61"/>
      <use x="141.601562" xlink:href="#DejaVuSans-64"/>
      <use x="205.078125" xlink:href="#DejaVuSans-65"/>
      <use x="266.601562" xlink:href="#DejaVuSans-72"/>
      <use x="301.339844" xlink:href="#DejaVuSans-2d"/>
      <use x="337.423828" xlink:href="#DejaVuSans-62"/>
      <use x="400.900391" xlink:href="#DejaVuSans-61"/>
      <use x="462.179688" xlink:href="#DejaVuSans-73"/>
      <use x="514.279297" xlink:href="#DejaVuSans-65"/>
      <use x="575.802734" xlink:href="#DejaVuSans-6c"/>
      <use x="603.585938" xlink:href="#DejaVuSans-69"/>
      <use x="631.369141" xlink:href="#DejaVuSans-6e"/>
      <use x="694.748047" xlink:href="#DejaVuSans-65"/>
     </g>
    </g>
    <g id="line2d_28">
     <path d="M 66.6 261.900312 
L 86.6 261.900312 
" style="fill:none;stroke:#a5b9cf;stroke-linecap:square;stroke-width:2;"/>
    </g>
    <g id="line2d_29"/>
    <g id="text_19">
     <!-- default-cfg -->
     <g transform="translate(94.6 265.400312)scale(0.1 -0.1)">
      <defs>
       <path d="M 2375 4863 
L 2375 4384 
L 1825 4384 
Q 1516 4384 1395 4259 
Q 1275 4134 1275 3809 
L 1275 3500 
L 2222 3500 
L 2222 3053 
L 1275 3053 
L 1275 0 
L 697 0 
L 697 3053 
L 147 3053 
L 147 3500 
L 697 3500 
L 697 3744 
Q 697 4328 969 4595 
Q 1241 4863 1831 4863 
L 2375 4863 
z
" id="DejaVuSans-66" transform="scale(0.015625)"/>
       <path d="M 544 1381 
L 544 3500 
L 1119 3500 
L 1119 1403 
Q 1119 906 1312 657 
Q 1506 409 1894 409 
Q 2359 409 2629 706 
Q 2900 1003 2900 1516 
L 2900 3500 
L 3475 3500 
L 3475 0 
L 2900 0 
L 2900 538 
Q 2691 219 2414 64 
Q 2138 -91 1772 -91 
Q 1169 -91 856 284 
Q 544 659 544 1381 
z
M 1991 3584 
L 1991 3584 
z
" id="DejaVuSans-75" transform="scale(0.015625)"/>
       <path d="M 2906 1791 
Q 2906 2416 2648 2759 
Q 2391 3103 1925 3103 
Q 1463 3103 1205 2759 
Q 947 2416 947 1791 
Q 947 1169 1205 825 
Q 1463 481 1925 481 
Q 2391 481 2648 825 
Q 2906 1169 2906 1791 
z
M 3481 434 
Q 3481 -459 3084 -895 
Q 2688 -1331 1869 -1331 
Q 1566 -1331 1297 -1286 
Q 1028 -1241 775 -1147 
L 775 -588 
Q 1028 -725 1275 -790 
Q 1522 -856 1778 -856 
Q 2344 -856 2625 -561 
Q 2906 -266 2906 331 
L 2906 616 
Q 2728 306 2450 153 
Q 2172 0 1784 0 
Q 1141 0 747 490 
Q 353 981 353 1791 
Q 353 2603 747 3093 
Q 1141 3584 1784 3584 
Q 2172 3584 2450 3431 
Q 2728 3278 2906 2969 
L 2906 3500 
L 3481 3500 
L 3481 434 
z
" id="DejaVuSans-67" transform="scale(0.015625)"/>
      </defs>
      <use xlink:href="#DejaVuSans-64"/>
      <use x="63.476562" xlink:href="#DejaVuSans-65"/>
      <use x="125" xlink:href="#DejaVuSans-66"/>
      <use x="160.205078" xlink:href="#DejaVuSans-61"/>
      <use x="221.484375" xlink:href="#DejaVuSans-75"/>
      <use x="284.863281" xlink:href="#DejaVuSans-6c"/>
      <use x="312.646484" xlink:href="#DejaVuSans-74"/>
      <use x="351.855469" xlink:href="#DejaVuSans-2d"/>
      <use x="387.939453" xlink:href="#DejaVuSans-63"/>
      <use x="442.919922" xlink:href="#DejaVuSans-66"/>
      <use x="478.125" xlink:href="#DejaVuSans-67"/>
     </g>
    </g>
   </g>
  </g>
 </g>
 <defs>
  <clipPath id="p7a87306719">
   <rect height="235.008" width="357.12" x="57.6" y="41.472"/>
  </clipPath>
 </defs>
</svg>
