<?xml version="1.0" encoding="utf-8" standalone="no"?>
<!DOCTYPE svg PUBLIC "-//W3C//DTD SVG 1.1//EN"
  "http://www.w3.org/Graphics/SVG/1.1/DTD/svg11.dtd">
<svg height="345.6pt" version="1.1" viewBox="0 0 460.8 345.6" width="460.8pt" xmlns="http://www.w3.org/2000/svg" xmlns:xlink="http://www.w3.org/1999/xlink">
 <metadata>
  <rdf:RDF xmlns:cc="http://creativecommons.org/ns#" xmlns:dc="http://purl.org/dc/elements/1.1/" xmlns:rdf="http://www.w3.org/1999/02/22-rdf-syntax-ns#">
   <cc:Work>
    <dc:type rdf:resource="http://purl.org/dc/dcmitype/StillImage"/>
    <dc:date>2022-04-25T10:01:17.887880</dc:date>
    <dc:format>image/svg+xml</dc:format>
    <dc:creator>
     <cc:Agent>
      <dc:title>Matplotlib v3.4.3, https://matplotlib.org/</dc:title>
     </cc:Agent>
    </dc:creator>
   </cc:Work>
  </rdf:RDF>
 </metadata>
 <defs>
  <style type="text/css">*{stroke-linecap:butt;stroke-linejoin:round;}</style>
 </defs>
 <g id="figure_1">
  <g id="patch_1">
   <path d="M 0 345.6 
L 460.8 345.6 
L 460.8 0 
L 0 0 
z
" style="fill:#ffffff;"/>
  </g>
  <g id="axes_1">
   <g id="patch_2">
    <path d="M 57.6 276.48 
L 414.72 276.48 
L 414.72 41.472 
L 57.6 41.472 
z
" style="fill:#ffffff;"/>
   </g>
   <g id="matplotlib.axis_1">
    <g id="xtick_1">
     <g id="line2d_1">
      <defs>
       <path d="M 0 0 
L 0 3.5 
" id="mdda39fe9e6" style="stroke:#000000;stroke-width:0.8;"/>
      </defs>
      <g>
       <use style="stroke:#000000;stroke-width:0.8;" x="101.061818" xlink:href="#mdda39fe9e6" y="276.48"/>
      </g>
     </g>
     <g id="text_1">
      <!-- 2021-12 -->
      <g transform="translate(63.836997 310.951846)rotate(-30)scale(0.1 -0.1)">
       <defs>
        <path d="M 1228 531 
L 3431 531 
L 3431 0 
L 469 0 
L 469 531 
Q 828 903 1448 1529 
Q 2069 2156 2228 2338 
Q 2531 2678 2651 2914 
Q 2772 3150 2772 3378 
Q 2772 3750 2511 3984 
Q 2250 4219 1831 4219 
Q 1534 4219 1204 4116 
Q 875 4013 500 3803 
L 500 4441 
Q 881 4594 1212 4672 
Q 1544 4750 1819 4750 
Q 2544 4750 2975 4387 
Q 3406 4025 3406 3419 
Q 3406 3131 3298 2873 
Q 3191 2616 2906 2266 
Q 2828 2175 2409 1742 
Q 1991 1309 1228 531 
z
" id="DejaVuSans-32" transform="scale(0.015625)"/>
        <path d="M 2034 4250 
Q 1547 4250 1301 3770 
Q 1056 3291 1056 2328 
Q 1056 1369 1301 889 
Q 1547 409 2034 409 
Q 2525 409 2770 889 
Q 3016 1369 3016 2328 
Q 3016 3291 2770 3770 
Q 2525 4250 2034 4250 
z
M 2034 4750 
Q 2819 4750 3233 4129 
Q 3647 3509 3647 2328 
Q 3647 1150 3233 529 
Q 2819 -91 2034 -91 
Q 1250 -91 836 529 
Q 422 1150 422 2328 
Q 422 3509 836 4129 
Q 1250 4750 2034 4750 
z
" id="DejaVuSans-30" transform="scale(0.015625)"/>
        <path d="M 794 531 
L 1825 531 
L 1825 4091 
L 703 3866 
L 703 4441 
L 1819 4666 
L 2450 4666 
L 2450 531 
L 3481 531 
L 3481 0 
L 794 0 
L 794 531 
z
" id="DejaVuSans-31" transform="scale(0.015625)"/>
        <path d="M 313 2009 
L 1997 2009 
L 1997 1497 
L 313 1497 
L 313 2009 
z
" id="DejaVuSans-2d" transform="scale(0.015625)"/>
       </defs>
       <use xlink:href="#DejaVuSans-32"/>
       <use x="63.623047" xlink:href="#DejaVuSans-30"/>
       <use x="127.246094" xlink:href="#DejaVuSans-32"/>
       <use x="190.869141" xlink:href="#DejaVuSans-31"/>
       <use x="254.492188" xlink:href="#DejaVuSans-2d"/>
       <use x="290.576172" xlink:href="#DejaVuSans-31"/>
       <use x="354.199219" xlink:href="#DejaVuSans-32"/>
      </g>
     </g>
    </g>
    <g id="xtick_2">
     <g id="line2d_2">
      <g>
       <use style="stroke:#000000;stroke-width:0.8;" x="165.992727" xlink:href="#mdda39fe9e6" y="276.48"/>
      </g>
     </g>
     <g id="text_2">
      <!-- 2022-01 -->
      <g transform="translate(128.767906 310.951846)rotate(-30)scale(0.1 -0.1)">
       <use xlink:href="#DejaVuSans-32"/>
       <use x="63.623047" xlink:href="#DejaVuSans-30"/>
       <use x="127.246094" xlink:href="#DejaVuSans-32"/>
       <use x="190.869141" xlink:href="#DejaVuSans-32"/>
       <use x="254.492188" xlink:href="#DejaVuSans-2d"/>
       <use x="290.576172" xlink:href="#DejaVuSans-30"/>
       <use x="354.199219" xlink:href="#DejaVuSans-31"/>
      </g>
     </g>
    </g>
    <g id="xtick_3">
     <g id="line2d_3">
      <g>
       <use style="stroke:#000000;stroke-width:0.8;" x="230.923636" xlink:href="#mdda39fe9e6" y="276.48"/>
      </g>
     </g>
     <g id="text_3">
      <!-- 2022-02 -->
      <g transform="translate(193.698816 310.951846)rotate(-30)scale(0.1 -0.1)">
       <use xlink:href="#DejaVuSans-32"/>
       <use x="63.623047" xlink:href="#DejaVuSans-30"/>
       <use x="127.246094" xlink:href="#DejaVuSans-32"/>
       <use x="190.869141" xlink:href="#DejaVuSans-32"/>
       <use x="254.492188" xlink:href="#DejaVuSans-2d"/>
       <use x="290.576172" xlink:href="#DejaVuSans-30"/>
       <use x="354.199219" xlink:href="#DejaVuSans-32"/>
      </g>
     </g>
    </g>
    <g id="xtick_4">
     <g id="line2d_4">
      <g>
       <use style="stroke:#000000;stroke-width:0.8;" x="289.570909" xlink:href="#mdda39fe9e6" y="276.48"/>
      </g>
     </g>
     <g id="text_4">
      <!-- 2022-03 -->
      <g transform="translate(252.346088 310.951846)rotate(-30)scale(0.1 -0.1)">
       <defs>
        <path d="M 2597 2516 
Q 3050 2419 3304 2112 
Q 3559 1806 3559 1356 
Q 3559 666 3084 287 
Q 2609 -91 1734 -91 
Q 1441 -91 1130 -33 
Q 819 25 488 141 
L 488 750 
Q 750 597 1062 519 
Q 1375 441 1716 441 
Q 2309 441 2620 675 
Q 2931 909 2931 1356 
Q 2931 1769 2642 2001 
Q 2353 2234 1838 2234 
L 1294 2234 
L 1294 2753 
L 1863 2753 
Q 2328 2753 2575 2939 
Q 2822 3125 2822 3475 
Q 2822 3834 2567 4026 
Q 2313 4219 1838 4219 
Q 1578 4219 1281 4162 
Q 984 4106 628 3988 
L 628 4550 
Q 988 4650 1302 4700 
Q 1616 4750 1894 4750 
Q 2613 4750 3031 4423 
Q 3450 4097 3450 3541 
Q 3450 3153 3228 2886 
Q 3006 2619 2597 2516 
z
" id="DejaVuSans-33" transform="scale(0.015625)"/>
       </defs>
       <use xlink:href="#DejaVuSans-32"/>
       <use x="63.623047" xlink:href="#DejaVuSans-30"/>
       <use x="127.246094" xlink:href="#DejaVuSans-32"/>
       <use x="190.869141" xlink:href="#DejaVuSans-32"/>
       <use x="254.492188" xlink:href="#DejaVuSans-2d"/>
       <use x="290.576172" xlink:href="#DejaVuSans-30"/>
       <use x="354.199219" xlink:href="#DejaVuSans-33"/>
      </g>
     </g>
    </g>
    <g id="xtick_5">
     <g id="line2d_5">
      <g>
       <use style="stroke:#000000;stroke-width:0.8;" x="354.501818" xlink:href="#mdda39fe9e6" y="276.48"/>
      </g>
     </g>
     <g id="text_5">
      <!-- 2022-04 -->
      <g transform="translate(317.276997 310.951846)rotate(-30)scale(0.1 -0.1)">
       <defs>
        <path d="M 2419 4116 
L 825 1625 
L 2419 1625 
L 2419 4116 
z
M 2253 4666 
L 3047 4666 
L 3047 1625 
L 3713 1625 
L 3713 1100 
L 3047 1100 
L 3047 0 
L 2419 0 
L 2419 1100 
L 313 1100 
L 313 1709 
L 2253 4666 
z
" id="DejaVuSans-34" transform="scale(0.015625)"/>
       </defs>
       <use xlink:href="#DejaVuSans-32"/>
       <use x="63.623047" xlink:href="#DejaVuSans-30"/>
       <use x="127.246094" xlink:href="#DejaVuSans-32"/>
       <use x="190.869141" xlink:href="#DejaVuSans-32"/>
       <use x="254.492188" xlink:href="#DejaVuSans-2d"/>
       <use x="290.576172" xlink:href="#DejaVuSans-30"/>
       <use x="354.199219" xlink:href="#DejaVuSans-34"/>
      </g>
     </g>
    </g>
    <g id="text_6">
     <!-- date -->
     <g transform="translate(224.885 324.351346)scale(0.1 -0.1)">
      <defs>
       <path d="M 2906 2969 
L 2906 4863 
L 3481 4863 
L 3481 0 
L 2906 0 
L 2906 525 
Q 2725 213 2448 61 
Q 2172 -91 1784 -91 
Q 1150 -91 751 415 
Q 353 922 353 1747 
Q 353 2572 751 3078 
Q 1150 3584 1784 3584 
Q 2172 3584 2448 3432 
Q 2725 3281 2906 2969 
z
M 947 1747 
Q 947 1113 1208 752 
Q 1469 391 1925 391 
Q 2381 391 2643 752 
Q 2906 1113 2906 1747 
Q 2906 2381 2643 2742 
Q 2381 3103 1925 3103 
Q 1469 3103 1208 2742 
Q 947 2381 947 1747 
z
" id="DejaVuSans-64" transform="scale(0.015625)"/>
       <path d="M 2194 1759 
Q 1497 1759 1228 1600 
Q 959 1441 959 1056 
Q 959 750 1161 570 
Q 1363 391 1709 391 
Q 2188 391 2477 730 
Q 2766 1069 2766 1631 
L 2766 1759 
L 2194 1759 
z
M 3341 1997 
L 3341 0 
L 2766 0 
L 2766 531 
Q 2569 213 2275 61 
Q 1981 -91 1556 -91 
Q 1019 -91 701 211 
Q 384 513 384 1019 
Q 384 1609 779 1909 
Q 1175 2209 1959 2209 
L 2766 2209 
L 2766 2266 
Q 2766 2663 2505 2880 
Q 2244 3097 1772 3097 
Q 1472 3097 1187 3025 
Q 903 2953 641 2809 
L 641 3341 
Q 956 3463 1253 3523 
Q 1550 3584 1831 3584 
Q 2591 3584 2966 3190 
Q 3341 2797 3341 1997 
z
" id="DejaVuSans-61" transform="scale(0.015625)"/>
       <path d="M 1172 4494 
L 1172 3500 
L 2356 3500 
L 2356 3053 
L 1172 3053 
L 1172 1153 
Q 1172 725 1289 603 
Q 1406 481 1766 481 
L 2356 481 
L 2356 0 
L 1766 0 
Q 1100 0 847 248 
Q 594 497 594 1153 
L 594 3053 
L 172 3053 
L 172 3500 
L 594 3500 
L 594 4494 
L 1172 4494 
z
" id="DejaVuSans-74" transform="scale(0.015625)"/>
       <path d="M 3597 1894 
L 3597 1613 
L 953 1613 
Q 991 1019 1311 708 
Q 1631 397 2203 397 
Q 2534 397 2845 478 
Q 3156 559 3463 722 
L 3463 178 
Q 3153 47 2828 -22 
Q 2503 -91 2169 -91 
Q 1331 -91 842 396 
Q 353 884 353 1716 
Q 353 2575 817 3079 
Q 1281 3584 2069 3584 
Q 2775 3584 3186 3129 
Q 3597 2675 3597 1894 
z
M 3022 2063 
Q 3016 2534 2758 2815 
Q 2500 3097 2075 3097 
Q 1594 3097 1305 2825 
Q 1016 2553 972 2059 
L 3022 2063 
z
" id="DejaVuSans-65" transform="scale(0.015625)"/>
      </defs>
      <use xlink:href="#DejaVuSans-64"/>
      <use x="63.476562" xlink:href="#DejaVuSans-61"/>
      <use x="124.755859" xlink:href="#DejaVuSans-74"/>
      <use x="163.964844" xlink:href="#DejaVuSans-65"/>
     </g>
    </g>
   </g>
   <g id="matplotlib.axis_2">
    <g id="ytick_1">
     <g id="line2d_6">
      <defs>
       <path d="M 0 0 
L -3.5 0 
" id="m05df089923" style="stroke:#000000;stroke-width:0.8;"/>
      </defs>
      <g>
       <use style="stroke:#000000;stroke-width:0.8;" x="57.6" xlink:href="#m05df089923" y="245.006744"/>
      </g>
     </g>
     <g id="text_7">
      <!-- 90000 -->
      <g transform="translate(18.7875 248.805963)scale(0.1 -0.1)">
       <defs>
        <path d="M 703 97 
L 703 672 
Q 941 559 1184 500 
Q 1428 441 1663 441 
Q 2288 441 2617 861 
Q 2947 1281 2994 2138 
Q 2813 1869 2534 1725 
Q 2256 1581 1919 1581 
Q 1219 1581 811 2004 
Q 403 2428 403 3163 
Q 403 3881 828 4315 
Q 1253 4750 1959 4750 
Q 2769 4750 3195 4129 
Q 3622 3509 3622 2328 
Q 3622 1225 3098 567 
Q 2575 -91 1691 -91 
Q 1453 -91 1209 -44 
Q 966 3 703 97 
z
M 1959 2075 
Q 2384 2075 2632 2365 
Q 2881 2656 2881 3163 
Q 2881 3666 2632 3958 
Q 2384 4250 1959 4250 
Q 1534 4250 1286 3958 
Q 1038 3666 1038 3163 
Q 1038 2656 1286 2365 
Q 1534 2075 1959 2075 
z
" id="DejaVuSans-39" transform="scale(0.015625)"/>
       </defs>
       <use xlink:href="#DejaVuSans-39"/>
       <use x="63.623047" xlink:href="#DejaVuSans-30"/>
       <use x="127.246094" xlink:href="#DejaVuSans-30"/>
       <use x="190.869141" xlink:href="#DejaVuSans-30"/>
       <use x="254.492188" xlink:href="#DejaVuSans-30"/>
      </g>
     </g>
    </g>
    <g id="ytick_2">
     <g id="line2d_7">
      <g>
       <use style="stroke:#000000;stroke-width:0.8;" x="57.6" xlink:href="#m05df089923" y="213.487411"/>
      </g>
     </g>
     <g id="text_8">
      <!-- 92000 -->
      <g transform="translate(18.7875 217.28663)scale(0.1 -0.1)">
       <use xlink:href="#DejaVuSans-39"/>
       <use x="63.623047" xlink:href="#DejaVuSans-32"/>
       <use x="127.246094" xlink:href="#DejaVuSans-30"/>
       <use x="190.869141" xlink:href="#DejaVuSans-30"/>
       <use x="254.492188" xlink:href="#DejaVuSans-30"/>
      </g>
     </g>
    </g>
    <g id="ytick_3">
     <g id="line2d_8">
      <g>
       <use style="stroke:#000000;stroke-width:0.8;" x="57.6" xlink:href="#m05df089923" y="181.968078"/>
      </g>
     </g>
     <g id="text_9">
      <!-- 94000 -->
      <g transform="translate(18.7875 185.767297)scale(0.1 -0.1)">
       <use xlink:href="#DejaVuSans-39"/>
       <use x="63.623047" xlink:href="#DejaVuSans-34"/>
       <use x="127.246094" xlink:href="#DejaVuSans-30"/>
       <use x="190.869141" xlink:href="#DejaVuSans-30"/>
       <use x="254.492188" xlink:href="#DejaVuSans-30"/>
      </g>
     </g>
    </g>
    <g id="ytick_4">
     <g id="line2d_9">
      <g>
       <use style="stroke:#000000;stroke-width:0.8;" x="57.6" xlink:href="#m05df089923" y="150.448745"/>
      </g>
     </g>
     <g id="text_10">
      <!-- 96000 -->
      <g transform="translate(18.7875 154.247963)scale(0.1 -0.1)">
       <defs>
        <path d="M 2113 2584 
Q 1688 2584 1439 2293 
Q 1191 2003 1191 1497 
Q 1191 994 1439 701 
Q 1688 409 2113 409 
Q 2538 409 2786 701 
Q 3034 994 3034 1497 
Q 3034 2003 2786 2293 
Q 2538 2584 2113 2584 
z
M 3366 4563 
L 3366 3988 
Q 3128 4100 2886 4159 
Q 2644 4219 2406 4219 
Q 1781 4219 1451 3797 
Q 1122 3375 1075 2522 
Q 1259 2794 1537 2939 
Q 1816 3084 2150 3084 
Q 2853 3084 3261 2657 
Q 3669 2231 3669 1497 
Q 3669 778 3244 343 
Q 2819 -91 2113 -91 
Q 1303 -91 875 529 
Q 447 1150 447 2328 
Q 447 3434 972 4092 
Q 1497 4750 2381 4750 
Q 2619 4750 2861 4703 
Q 3103 4656 3366 4563 
z
" id="DejaVuSans-36" transform="scale(0.015625)"/>
       </defs>
       <use xlink:href="#DejaVuSans-39"/>
       <use x="63.623047" xlink:href="#DejaVuSans-36"/>
       <use x="127.246094" xlink:href="#DejaVuSans-30"/>
       <use x="190.869141" xlink:href="#DejaVuSans-30"/>
       <use x="254.492188" xlink:href="#DejaVuSans-30"/>
      </g>
     </g>
    </g>
    <g id="ytick_5">
     <g id="line2d_10">
      <g>
       <use style="stroke:#000000;stroke-width:0.8;" x="57.6" xlink:href="#m05df089923" y="118.929411"/>
      </g>
     </g>
     <g id="text_11">
      <!-- 98000 -->
      <g transform="translate(18.7875 122.72863)scale(0.1 -0.1)">
       <defs>
        <path d="M 2034 2216 
Q 1584 2216 1326 1975 
Q 1069 1734 1069 1313 
Q 1069 891 1326 650 
Q 1584 409 2034 409 
Q 2484 409 2743 651 
Q 3003 894 3003 1313 
Q 3003 1734 2745 1975 
Q 2488 2216 2034 2216 
z
M 1403 2484 
Q 997 2584 770 2862 
Q 544 3141 544 3541 
Q 544 4100 942 4425 
Q 1341 4750 2034 4750 
Q 2731 4750 3128 4425 
Q 3525 4100 3525 3541 
Q 3525 3141 3298 2862 
Q 3072 2584 2669 2484 
Q 3125 2378 3379 2068 
Q 3634 1759 3634 1313 
Q 3634 634 3220 271 
Q 2806 -91 2034 -91 
Q 1263 -91 848 271 
Q 434 634 434 1313 
Q 434 1759 690 2068 
Q 947 2378 1403 2484 
z
M 1172 3481 
Q 1172 3119 1398 2916 
Q 1625 2713 2034 2713 
Q 2441 2713 2670 2916 
Q 2900 3119 2900 3481 
Q 2900 3844 2670 4047 
Q 2441 4250 2034 4250 
Q 1625 4250 1398 4047 
Q 1172 3844 1172 3481 
z
" id="DejaVuSans-38" transform="scale(0.015625)"/>
       </defs>
       <use xlink:href="#DejaVuSans-39"/>
       <use x="63.623047" xlink:href="#DejaVuSans-38"/>
       <use x="127.246094" xlink:href="#DejaVuSans-30"/>
       <use x="190.869141" xlink:href="#DejaVuSans-30"/>
       <use x="254.492188" xlink:href="#DejaVuSans-30"/>
      </g>
     </g>
    </g>
    <g id="ytick_6">
     <g id="line2d_11">
      <g>
       <use style="stroke:#000000;stroke-width:0.8;" x="57.6" xlink:href="#m05df089923" y="87.410078"/>
      </g>
     </g>
     <g id="text_12">
      <!-- 100000 -->
      <g transform="translate(12.425 91.209297)scale(0.1 -0.1)">
       <use xlink:href="#DejaVuSans-31"/>
       <use x="63.623047" xlink:href="#DejaVuSans-30"/>
       <use x="127.246094" xlink:href="#DejaVuSans-30"/>
       <use x="190.869141" xlink:href="#DejaVuSans-30"/>
       <use x="254.492188" xlink:href="#DejaVuSans-30"/>
       <use x="318.115234" xlink:href="#DejaVuSans-30"/>
      </g>
     </g>
    </g>
    <g id="ytick_7">
     <g id="line2d_12">
      <g>
       <use style="stroke:#000000;stroke-width:0.8;" x="57.6" xlink:href="#m05df089923" y="55.890745"/>
      </g>
     </g>
     <g id="text_13">
      <!-- 102000 -->
      <g transform="translate(12.425 59.689964)scale(0.1 -0.1)">
       <use xlink:href="#DejaVuSans-31"/>
       <use x="63.623047" xlink:href="#DejaVuSans-30"/>
       <use x="127.246094" xlink:href="#DejaVuSans-32"/>
       <use x="190.869141" xlink:href="#DejaVuSans-30"/>
       <use x="254.492188" xlink:href="#DejaVuSans-30"/>
       <use x="318.115234" xlink:href="#DejaVuSans-30"/>
      </g>
     </g>
    </g>
   </g>
   <g id="line2d_13">
    <path clip-path="url(#p715425ea40)" d="M 73.832727 85.782164 
L 75.927273 88.259524 
L 82.210909 92.926745 
L 84.305455 90.871098 
L 86.4 86.275257 
L 90.589091 86.366946 
L 96.872727 102.338165 
L 98.967273 133.253616 
L 101.061818 150.080945 
L 103.156364 127.837836 
L 105.250909 141.398462 
L 111.534545 122.990962 
L 113.629091 90.224664 
L 115.723636 85.794715 
L 117.818182 96.937177 
L 119.912727 82.292483 
L 126.196364 98.101034 
L 128.290909 108.663915 
L 130.385455 83.199579 
L 132.48 97.759455 
L 134.574545 115.650222 
L 140.858182 134.53822 
L 142.952727 108.926461 
L 145.047273 92.679032 
L 147.141818 82.64659 
L 155.52 60.276837 
L 157.614545 61.00044 
L 159.709091 59.472486 
L 161.803636 64.132761 
L 163.898182 67.91524 
L 170.181818 59.254707 
L 172.276364 59.931647 
L 174.370909 90.813673 
L 176.465455 92.252841 
L 178.56 98.383033 
L 184.843636 100.084931 
L 186.938182 85.303188 
L 189.032727 81.374932 
L 191.127273 103.213826 
L 193.221818 103.2147 
L 201.6 129.732616 
L 203.694545 146.066002 
L 205.789091 163.316369 
L 207.883636 192.489785 
L 214.167273 185.807397 
L 216.261818 204.044412 
L 218.356364 207.580751 
L 220.450909 214.08257 
L 222.545455 179.003595 
L 228.829091 151.659882 
L 230.923636 141.361716 
L 233.018182 126.778904 
L 235.112727 162.854863 
L 237.207273 155.74199 
L 243.490909 161.343644 
L 245.585455 149.52346 
L 247.68 126.856495 
L 249.774545 154.695353 
L 251.869091 184.546198 
L 258.152727 188.986709 
L 260.247273 165.623576 
L 262.341818 163.47735 
L 264.436364 195.031898 
L 266.530909 205.646376 
L 274.909091 220.949255 
L 277.003636 246.806751 
L 279.098182 225.192345 
L 281.192727 193.874597 
L 287.476364 196.717736 
L 289.570909 219.232485 
L 291.665455 192.801063 
L 293.76 199.647929 
L 295.854545 211.56296 
L 302.138182 254.864203 
L 304.232727 264.635384 
L 306.327273 227.850923 
L 308.421818 234.717812 
L 310.516364 252.952723 
L 316.8 263.247472 
L 318.894545 231.409673 
L 320.989091 199.937334 
L 323.083636 181.695488 
L 325.178182 167.922649 
L 331.461818 167.974831 
L 333.556364 150.444403 
L 335.650909 170.320976 
L 337.745455 150.23351 
L 339.84 142.970008 
L 346.123636 132.932497 
L 348.218182 112.815837 
L 350.312727 122.594375 
L 352.407273 146.892139 
L 354.501818 142.169016 
L 360.785455 129.475845 
L 362.88 148.644351 
L 364.974545 163.323166 
L 367.069091 155.657749 
L 369.163636 159.342031 
L 375.447273 185.256893 
L 377.541818 190.561784 
L 379.636364 174.587337 
L 381.730909 192.985304 
L 390.109091 192.341149 
L 392.203636 168.880091 
L 394.298182 169.382132 
L 396.392727 191.243379 
L 398.487273 249.819276 
" style="fill:none;stroke:#0000ff;stroke-linecap:square;stroke-opacity:0.9;stroke-width:2;"/>
   </g>
   <g id="line2d_14">
    <path clip-path="url(#p715425ea40)" d="M 73.832727 85.782164 
L 75.927273 88.315454 
L 82.210909 92.712592 
L 84.305455 90.417699 
L 86.4 87.502382 
L 90.589091 121.344887 
L 96.872727 102.847487 
L 98.967273 132.940688 
L 101.061818 149.646454 
L 103.156364 126.831732 
L 105.250909 139.97041 
L 111.534545 122.353609 
L 113.629091 90.084236 
L 115.723636 86.811678 
L 117.818182 97.653063 
L 119.912727 81.690966 
L 126.196364 98.098474 
L 128.290909 108.436647 
L 130.385455 83.748528 
L 132.48 98.299838 
L 134.574545 116.275446 
L 140.858182 133.897482 
L 142.952727 107.977786 
L 145.047273 92.673259 
L 147.141818 82.905045 
L 155.52 60.292346 
L 157.614545 61.887652 
L 159.709091 59.100083 
L 161.803636 63.917862 
L 163.898182 68.194714 
L 170.181818 58.303958 
L 172.276364 59.549472 
L 174.370909 90.544665 
L 176.465455 91.698213 
L 178.56 97.836599 
L 184.843636 100.7261 
L 186.938182 85.130254 
L 189.032727 81.004699 
L 191.127273 103.207385 
L 193.221818 103.175292 
L 201.6 130.205118 
L 203.694545 146.440243 
L 205.789091 162.419552 
L 207.883636 191.667684 
L 214.167273 187.05057 
L 216.261818 203.39425 
L 218.356364 207.903631 
L 220.450909 214.619595 
L 222.545455 178.608318 
L 228.829091 151.58489 
L 230.923636 142.391684 
L 233.018182 126.726842 
L 235.112727 162.737451 
L 237.207273 156.051543 
L 243.490909 160.608075 
L 245.585455 149.19966 
L 247.68 126.784032 
L 249.774545 154.763139 
L 251.869091 184.000603 
L 258.152727 188.702351 
L 260.247273 165.357576 
L 262.341818 163.378746 
L 264.436364 194.370033 
L 266.530909 204.905442 
L 274.909091 220.119326 
L 277.003636 246.544846 
L 279.098182 224.575663 
L 281.192727 193.744311 
L 287.476364 197.241002 
L 289.570909 218.556134 
L 291.665455 193.319539 
L 293.76 200.45325 
L 295.854545 211.032226 
L 302.138182 254.286295 
L 304.232727 265.797818 
L 306.327273 227.70432 
L 308.421818 234.490449 
L 310.516364 253.043443 
L 316.8 262.621573 
L 318.894545 232.277502 
L 320.989091 200.600683 
L 323.083636 182.280953 
L 325.178182 166.961194 
L 331.461818 169.326429 
L 333.556364 151.080485 
L 335.650909 170.37994 
L 337.745455 150.340133 
L 339.84 142.574228 
L 346.123636 132.721218 
L 348.218182 113.121243 
L 350.312727 123.554019 
L 352.407273 145.908867 
L 354.501818 142.769763 
L 360.785455 129.116134 
L 362.88 148.311293 
L 364.974545 163.306599 
L 367.069091 156.733181 
L 369.163636 160.806458 
L 375.447273 185.516961 
L 377.541818 191.859595 
L 379.636364 174.387869 
L 381.730909 192.577469 
L 390.109091 193.120961 
L 392.203636 168.178969 
L 394.298182 170.245469 
L 396.392727 191.469877 
L 398.487273 231.970658 
" style="fill:none;stroke:#ff0000;stroke-linecap:square;stroke-opacity:0.9;stroke-width:2;"/>
   </g>
   <g id="line2d_15">
    <path clip-path="url(#p715425ea40)" d="M 73.832727 85.782164 
L 75.927273 88.708013 
L 82.210909 92.416205 
L 84.305455 90.897737 
L 86.4 86.319289 
L 90.589091 121.134754 
L 96.872727 102.519429 
L 98.967273 133.158766 
L 101.061818 149.551885 
L 103.156364 127.411264 
L 105.250909 140.82691 
L 111.534545 122.195004 
L 113.629091 91.41385 
L 115.723636 86.269541 
L 117.818182 97.351659 
L 119.912727 82.818177 
L 126.196364 97.035683 
L 128.290909 107.720128 
L 130.385455 83.308755 
L 132.48 98.590487 
L 134.574545 115.870207 
L 140.858182 133.210285 
L 142.952727 108.831246 
L 145.047273 92.273149 
L 147.141818 82.078379 
L 155.52 61.051515 
L 157.614545 61.020855 
L 159.709091 60.077141 
L 161.803636 64.760279 
L 163.898182 68.778869 
L 170.181818 58.04395 
L 172.276364 59.520594 
L 174.370909 90.091246 
L 176.465455 92.586833 
L 178.56 97.079955 
L 184.843636 100.776339 
L 186.938182 85.718911 
L 189.032727 81.022284 
L 191.127273 103.207212 
L 193.221818 103.108175 
L 201.6 130.715491 
L 203.694545 145.503198 
L 205.789091 161.989787 
L 207.883636 191.777706 
L 214.167273 187.060771 
L 216.261818 204.664213 
L 218.356364 208.021906 
L 220.450909 214.953265 
L 222.545455 178.430387 
L 228.829091 152.769358 
L 230.923636 141.869375 
L 233.018182 127.502587 
L 235.112727 163.56721 
L 237.207273 156.302201 
L 243.490909 161.74487 
L 245.585455 148.878291 
L 247.68 126.933115 
L 249.774545 153.897204 
L 251.869091 184.407982 
L 258.152727 188.846125 
L 260.247273 165.625125 
L 262.341818 162.870117 
L 264.436364 195.315413 
L 266.530909 205.29486 
L 274.909091 220.172133 
L 277.003636 246.538801 
L 279.098182 225.75102 
L 281.192727 193.292109 
L 287.476364 197.456578 
L 289.570909 219.740977 
L 291.665455 192.962039 
L 293.76 199.720222 
L 295.854545 211.868073 
L 302.138182 254.82977 
L 304.232727 265.040764 
L 306.327273 228.170235 
L 308.421818 234.431601 
L 310.516364 252.743585 
L 316.8 262.969382 
L 318.894545 232.429711 
L 320.989091 199.668961 
L 323.083636 181.668341 
L 325.178182 167.016445 
L 331.461818 168.050935 
L 333.556364 151.064878 
L 335.650909 170.655283 
L 337.745455 151.04612 
L 339.84 142.337727 
L 346.123636 132.484559 
L 348.218182 112.982 
L 350.312727 122.367165 
L 352.407273 146.905192 
L 354.501818 142.761466 
L 360.785455 129.41858 
L 362.88 148.278201 
L 364.974545 163.642002 
L 367.069091 155.507463 
L 369.163636 160.75953 
L 375.447273 185.599184 
L 377.541818 192.041106 
L 379.636364 173.704175 
L 381.730909 193.296388 
L 390.109091 191.877054 
L 392.203636 168.396895 
L 394.298182 170.715231 
L 396.392727 192.148205 
L 398.487273 233.062069 
" style="fill:none;stroke:#008000;stroke-linecap:square;stroke-opacity:0.9;stroke-width:2;"/>
   </g>
   <g id="line2d_16">
    <path clip-path="url(#p715425ea40)" d="M 73.832727 85.782164 
L 75.927273 88.729733 
L 82.210909 92.764644 
L 84.305455 90.877692 
L 86.4 87.629772 
L 90.589091 121.071816 
L 96.872727 103.104105 
L 98.967273 132.894176 
L 101.061818 149.468099 
L 103.156364 127.89231 
L 105.250909 140.975454 
L 111.534545 122.680635 
L 113.629091 90.999566 
L 115.723636 86.428847 
L 117.818182 96.472838 
L 119.912727 82.595182 
L 126.196364 97.030511 
L 128.290909 108.55875 
L 130.385455 84.485249 
L 132.48 97.857578 
L 134.574545 115.705648 
L 140.858182 133.467023 
L 142.952727 108.013962 
L 145.047273 93.23253 
L 147.141818 83.438334 
L 155.52 60.876112 
L 157.614545 61.175601 
L 159.709091 60.004239 
L 161.803636 63.77493 
L 163.898182 67.791375 
L 170.181818 58.309085 
L 172.276364 58.62777 
L 174.370909 90.77755 
L 176.465455 91.81095 
L 178.56 98.269466 
L 184.843636 100.278906 
L 186.938182 85.545581 
L 189.032727 81.956782 
L 191.127273 102.392255 
L 193.221818 103.180187 
L 201.6 130.479914 
L 203.694545 145.641465 
L 205.789091 163.076578 
L 207.883636 192.545913 
L 214.167273 187.078322 
L 216.261818 203.667999 
L 218.356364 208.050135 
L 220.450909 215.197743 
L 222.545455 179.317557 
L 228.829091 152.998697 
L 230.923636 141.254791 
L 233.018182 127.565089 
L 235.112727 162.496994 
L 237.207273 156.598112 
L 243.490909 160.574127 
L 245.585455 149.324372 
L 247.68 127.506924 
L 249.774545 153.343244 
L 251.869091 183.73557 
L 258.152727 188.769168 
L 260.247273 165.71816 
L 262.341818 162.638568 
L 264.436364 195.810388 
L 266.530909 204.492242 
L 274.909091 221.328618 
L 277.003636 246.88911 
L 279.098182 225.144989 
L 281.192727 193.887153 
L 287.476364 196.929201 
L 289.570909 219.819581 
L 291.665455 192.660595 
L 293.76 200.425008 
L 295.854545 211.504248 
L 302.138182 254.514602 
L 304.232727 264.533451 
L 306.327273 227.6479 
L 308.421818 233.581132 
L 310.516364 253.03009 
L 316.8 263.082532 
L 318.894545 231.442999 
L 320.989091 199.834211 
L 323.083636 182.335704 
L 325.178182 167.869485 
L 331.461818 168.359599 
L 333.556364 150.561489 
L 335.650909 169.934011 
L 337.745455 150.251448 
L 339.84 142.480318 
L 346.123636 132.186762 
L 348.218182 113.319624 
L 350.312727 122.535288 
L 352.407273 146.278308 
L 354.501818 142.638286 
L 360.785455 129.79666 
L 362.88 147.873903 
L 364.974545 163.606292 
L 367.069091 155.469266 
L 369.163636 159.41431 
L 375.447273 185.24198 
L 377.541818 191.656464 
L 379.636364 173.842128 
L 381.730909 193.201054 
L 390.109091 193.029186 
L 392.203636 169.134825 
L 394.298182 169.41138 
L 396.392727 192.654262 
L 398.487273 231.992613 
" style="fill:none;stroke:#ec5283;stroke-linecap:square;stroke-width:2;"/>
   </g>
   <g id="line2d_17">
    <path clip-path="url(#p715425ea40)" d="M 73.832727 85.782164 
L 75.927273 89.048897 
L 82.210909 93.729653 
L 84.305455 90.82636 
L 86.4 87.658178 
L 90.589091 121.852071 
L 96.872727 103.126695 
L 98.967273 132.451977 
L 101.061818 150.955152 
L 103.156364 126.830109 
L 105.250909 139.834585 
L 111.534545 123.032135 
L 113.629091 91.010293 
L 115.723636 86.56514 
L 117.818182 96.739913 
L 119.912727 82.082223 
L 126.196364 97.997871 
L 128.290909 109.137873 
L 130.385455 84.09627 
L 132.48 98.232013 
L 134.574545 116.229722 
L 140.858182 134.120089 
L 142.952727 108.268536 
L 145.047273 92.138801 
L 147.141818 82.988256 
L 155.52 59.82768 
L 157.614545 62.357858 
L 159.709091 59.567605 
L 161.803636 63.957384 
L 163.898182 68.487246 
L 170.181818 58.332781 
L 172.276364 59.247921 
L 174.370909 89.519128 
L 176.465455 92.321474 
L 178.56 98.419793 
L 184.843636 100.809345 
L 186.938182 85.363057 
L 189.032727 81.067918 
L 191.127273 103.388397 
L 193.221818 102.194604 
L 201.6 129.45033 
L 203.694545 146.738202 
L 205.789091 163.389251 
L 207.883636 191.550401 
L 214.167273 185.97852 
L 216.261818 203.232667 
L 218.356364 207.77679 
L 220.450909 215.135826 
L 222.545455 179.183931 
L 228.829091 152.85656 
L 230.923636 141.655224 
L 233.018182 128.059226 
L 235.112727 162.611711 
L 237.207273 155.248622 
L 243.490909 161.533877 
L 245.585455 148.968431 
L 247.68 127.115545 
L 249.774545 153.35555 
L 251.869091 184.322361 
L 258.152727 188.628291 
L 260.247273 165.049762 
L 262.341818 163.183225 
L 264.436364 194.767996 
L 266.530909 205.666549 
L 274.909091 220.247422 
L 277.003636 246.713393 
L 279.098182 224.847146 
L 281.192727 193.571465 
L 287.476364 196.322346 
L 289.570909 219.653716 
L 291.665455 192.566269 
L 293.76 199.318882 
L 295.854545 211.62946 
L 302.138182 254.012605 
L 304.232727 265.255624 
L 306.327273 228.238041 
L 308.421818 234.70652 
L 310.516364 252.238587 
L 316.8 263.049917 
L 318.894545 232.420155 
L 320.989091 201.082707 
L 323.083636 182.49224 
L 325.178182 167.453716 
L 331.461818 168.379136 
L 333.556364 151.452658 
L 335.650909 169.654093 
L 337.745455 150.080348 
L 339.84 142.890396 
L 346.123636 132.502799 
L 348.218182 113.308511 
L 350.312727 122.791865 
L 352.407273 146.111794 
L 354.501818 141.664367 
L 360.785455 128.390792 
L 362.88 148.649818 
L 364.974545 163.428874 
L 367.069091 155.53193 
L 369.163636 160.07943 
L 375.447273 185.976783 
L 377.541818 192.098254 
L 379.636364 174.537594 
L 381.730909 192.873908 
L 390.109091 192.889198 
L 392.203636 168.717398 
L 394.298182 170.304107 
L 396.392727 192.134348 
L 398.487273 232.903803 
" style="fill:none;stroke:#00ff00;stroke-linecap:square;stroke-opacity:0.9;stroke-width:2;"/>
   </g>
   <g id="line2d_18">
    <path clip-path="url(#p715425ea40)" d="M 73.832727 85.782164 
L 75.927273 88.182434 
L 82.210909 92.375024 
L 84.305455 91.187945 
L 86.4 87.588809 
L 90.589091 122.516393 
L 96.872727 102.566868 
L 98.967273 132.545779 
L 101.061818 149.981022 
L 103.156364 126.346008 
L 105.250909 139.912715 
L 111.534545 121.537112 
L 113.629091 90.785803 
L 115.723636 85.611223 
L 117.818182 97.264393 
L 119.912727 81.978387 
L 126.196364 95.121364 
L 128.290909 107.507553 
L 130.385455 83.018503 
L 132.48 95.621153 
L 134.574545 111.830124 
L 140.858182 129.197679 
L 142.952727 102.348075 
L 145.047273 86.212441 
L 147.141818 76.913841 
L 155.52 54.205043 
L 157.614545 54.802788 
L 159.709091 53.385895 
L 161.803636 58.594302 
L 163.898182 62.533733 
L 170.181818 52.154182 
L 172.276364 53.214592 
L 174.370909 83.378485 
L 176.465455 86.175568 
L 178.56 90.914805 
L 184.843636 93.218989 
L 186.938182 79.94351 
L 189.032727 74.373914 
L 191.127273 96.104162 
L 193.221818 96.394566 
L 201.6 124.451118 
L 203.694545 139.044637 
L 205.789091 157.11514 
L 207.883636 186.782731 
L 214.167273 180.86172 
L 216.261818 197.372239 
L 218.356364 201.482999 
L 220.450909 208.334201 
L 222.545455 172.181094 
L 228.829091 145.897899 
L 230.923636 136.183648 
L 233.018182 120.12372 
L 235.112727 156.721726 
L 237.207273 148.771834 
L 243.490909 153.809657 
L 245.585455 142.667588 
L 247.68 119.832252 
L 249.774545 146.677483 
L 251.869091 177.431648 
L 258.152727 182.208149 
L 260.247273 158.136908 
L 262.341818 155.815817 
L 264.436364 188.280177 
L 266.530909 198.959913 
L 274.909091 214.681702 
L 277.003636 240.367769 
L 279.098182 218.360973 
L 281.192727 187.182011 
L 287.476364 190.780036 
L 289.570909 212.877147 
L 291.665455 185.915112 
L 293.76 192.742736 
L 295.854545 205.025792 
L 302.138182 247.78176 
L 304.232727 257.787757 
L 306.327273 221.434044 
L 308.421818 227.412525 
L 310.516364 245.433023 
L 316.8 255.315666 
L 318.894545 224.590851 
L 320.989091 193.102389 
L 323.083636 174.501242 
L 325.178182 157.998829 
L 331.461818 158.74502 
L 333.556364 141.414883 
L 335.650909 160.325616 
L 337.745455 138.280775 
L 339.84 130.032026 
L 346.123636 119.362453 
L 348.218182 99.196558 
L 350.312727 109.152507 
L 352.407273 133.10797 
L 354.501818 129.808184 
L 360.785455 115.692277 
L 362.88 135.287285 
L 364.974545 150.756642 
L 367.069091 143.475006 
L 369.163636 146.934897 
L 375.447273 173.934409 
L 377.541818 178.682548 
L 379.636364 161.315429 
L 381.730909 179.613795 
L 390.109091 179.423218 
L 392.203636 156.240494 
L 394.298182 156.680468 
L 396.392727 179.564665 
L 398.487273 219.730814 
" style="fill:none;stroke:#a5b9cf;stroke-linecap:square;stroke-width:2;"/>
   </g>
   <g id="patch_3">
    <path d="M 57.6 276.48 
L 57.6 41.472 
" style="fill:none;stroke:#000000;stroke-linecap:square;stroke-linejoin:miter;stroke-width:0.8;"/>
   </g>
   <g id="patch_4">
    <path d="M 414.72 276.48 
L 414.72 41.472 
" style="fill:none;stroke:#000000;stroke-linecap:square;stroke-linejoin:miter;stroke-width:0.8;"/>
   </g>
   <g id="patch_5">
    <path d="M 57.6 276.48 
L 414.72 276.48 
" style="fill:none;stroke:#000000;stroke-linecap:square;stroke-linejoin:miter;stroke-width:0.8;"/>
   </g>
   <g id="patch_6">
    <path d="M 57.6 41.472 
L 414.72 41.472 
" style="fill:none;stroke:#000000;stroke-linecap:square;stroke-linejoin:miter;stroke-width:0.8;"/>
   </g>
   <g id="text_14">
    <!-- SP500 -->
    <g transform="translate(217.280625 22.034625)scale(0.12 -0.12)">
     <defs>
      <path d="M 3425 4513 
L 3425 3897 
Q 3066 4069 2747 4153 
Q 2428 4238 2131 4238 
Q 1616 4238 1336 4038 
Q 1056 3838 1056 3469 
Q 1056 3159 1242 3001 
Q 1428 2844 1947 2747 
L 2328 2669 
Q 3034 2534 3370 2195 
Q 3706 1856 3706 1288 
Q 3706 609 3251 259 
Q 2797 -91 1919 -91 
Q 1588 -91 1214 -16 
Q 841 59 441 206 
L 441 856 
Q 825 641 1194 531 
Q 1563 422 1919 422 
Q 2459 422 2753 634 
Q 3047 847 3047 1241 
Q 3047 1584 2836 1778 
Q 2625 1972 2144 2069 
L 1759 2144 
Q 1053 2284 737 2584 
Q 422 2884 422 3419 
Q 422 4038 858 4394 
Q 1294 4750 2059 4750 
Q 2388 4750 2728 4690 
Q 3069 4631 3425 4513 
z
" id="DejaVuSans-53" transform="scale(0.015625)"/>
      <path d="M 1259 4147 
L 1259 2394 
L 2053 2394 
Q 2494 2394 2734 2622 
Q 2975 2850 2975 3272 
Q 2975 3691 2734 3919 
Q 2494 4147 2053 4147 
L 1259 4147 
z
M 628 4666 
L 2053 4666 
Q 2838 4666 3239 4311 
Q 3641 3956 3641 3272 
Q 3641 2581 3239 2228 
Q 2838 1875 2053 1875 
L 1259 1875 
L 1259 0 
L 628 0 
L 628 4666 
z
" id="DejaVuSans-50" transform="scale(0.015625)"/>
      <path d="M 691 4666 
L 3169 4666 
L 3169 4134 
L 1269 4134 
L 1269 2991 
Q 1406 3038 1543 3061 
Q 1681 3084 1819 3084 
Q 2600 3084 3056 2656 
Q 3513 2228 3513 1497 
Q 3513 744 3044 326 
Q 2575 -91 1722 -91 
Q 1428 -91 1123 -41 
Q 819 9 494 109 
L 494 744 
Q 775 591 1075 516 
Q 1375 441 1709 441 
Q 2250 441 2565 725 
Q 2881 1009 2881 1497 
Q 2881 1984 2565 2268 
Q 2250 2553 1709 2553 
Q 1456 2553 1204 2497 
Q 953 2441 691 2322 
L 691 4666 
z
" id="DejaVuSans-35" transform="scale(0.015625)"/>
     </defs>
     <use xlink:href="#DejaVuSans-53"/>
     <use x="63.476562" xlink:href="#DejaVuSans-50"/>
     <use x="123.779297" xlink:href="#DejaVuSans-35"/>
     <use x="187.402344" xlink:href="#DejaVuSans-30"/>
     <use x="251.025391" xlink:href="#DejaVuSans-30"/>
    </g>
    <!-- daily_report -->
    <g transform="translate(200.466563 35.472)scale(0.12 -0.12)">
     <defs>
      <path d="M 603 3500 
L 1178 3500 
L 1178 0 
L 603 0 
L 603 3500 
z
M 603 4863 
L 1178 4863 
L 1178 4134 
L 603 4134 
L 603 4863 
z
" id="DejaVuSans-69" transform="scale(0.015625)"/>
      <path d="M 603 4863 
L 1178 4863 
L 1178 0 
L 603 0 
L 603 4863 
z
" id="DejaVuSans-6c" transform="scale(0.015625)"/>
      <path d="M 2059 -325 
Q 1816 -950 1584 -1140 
Q 1353 -1331 966 -1331 
L 506 -1331 
L 506 -850 
L 844 -850 
Q 1081 -850 1212 -737 
Q 1344 -625 1503 -206 
L 1606 56 
L 191 3500 
L 800 3500 
L 1894 763 
L 2988 3500 
L 3597 3500 
L 2059 -325 
z
" id="DejaVuSans-79" transform="scale(0.015625)"/>
      <path d="M 3263 -1063 
L 3263 -1509 
L -63 -1509 
L -63 -1063 
L 3263 -1063 
z
" id="DejaVuSans-5f" transform="scale(0.015625)"/>
      <path d="M 2631 2963 
Q 2534 3019 2420 3045 
Q 2306 3072 2169 3072 
Q 1681 3072 1420 2755 
Q 1159 2438 1159 1844 
L 1159 0 
L 581 0 
L 581 3500 
L 1159 3500 
L 1159 2956 
Q 1341 3275 1631 3429 
Q 1922 3584 2338 3584 
Q 2397 3584 2469 3576 
Q 2541 3569 2628 3553 
L 2631 2963 
z
" id="DejaVuSans-72" transform="scale(0.015625)"/>
      <path d="M 1159 525 
L 1159 -1331 
L 581 -1331 
L 581 3500 
L 1159 3500 
L 1159 2969 
Q 1341 3281 1617 3432 
Q 1894 3584 2278 3584 
Q 2916 3584 3314 3078 
Q 3713 2572 3713 1747 
Q 3713 922 3314 415 
Q 2916 -91 2278 -91 
Q 1894 -91 1617 61 
Q 1341 213 1159 525 
z
M 3116 1747 
Q 3116 2381 2855 2742 
Q 2594 3103 2138 3103 
Q 1681 3103 1420 2742 
Q 1159 2381 1159 1747 
Q 1159 1113 1420 752 
Q 1681 391 2138 391 
Q 2594 391 2855 752 
Q 3116 1113 3116 1747 
z
" id="DejaVuSans-70" transform="scale(0.015625)"/>
      <path d="M 1959 3097 
Q 1497 3097 1228 2736 
Q 959 2375 959 1747 
Q 959 1119 1226 758 
Q 1494 397 1959 397 
Q 2419 397 2687 759 
Q 2956 1122 2956 1747 
Q 2956 2369 2687 2733 
Q 2419 3097 1959 3097 
z
M 1959 3584 
Q 2709 3584 3137 3096 
Q 3566 2609 3566 1747 
Q 3566 888 3137 398 
Q 2709 -91 1959 -91 
Q 1206 -91 779 398 
Q 353 888 353 1747 
Q 353 2609 779 3096 
Q 1206 3584 1959 3584 
z
" id="DejaVuSans-6f" transform="scale(0.015625)"/>
     </defs>
     <use xlink:href="#DejaVuSans-64"/>
     <use x="63.476562" xlink:href="#DejaVuSans-61"/>
     <use x="124.755859" xlink:href="#DejaVuSans-69"/>
     <use x="152.539062" xlink:href="#DejaVuSans-6c"/>
     <use x="180.322266" xlink:href="#DejaVuSans-79"/>
     <use x="239.501953" xlink:href="#DejaVuSans-5f"/>
     <use x="289.501953" xlink:href="#DejaVuSans-72"/>
     <use x="328.365234" xlink:href="#DejaVuSans-65"/>
     <use x="389.888672" xlink:href="#DejaVuSans-70"/>
     <use x="453.365234" xlink:href="#DejaVuSans-6f"/>
     <use x="514.546875" xlink:href="#DejaVuSans-72"/>
     <use x="555.660156" xlink:href="#DejaVuSans-74"/>
    </g>
   </g>
   <g id="legend_1">
    <g id="patch_7">
     <path d="M 64.6 271.48 
L 178.64375 271.48 
Q 180.64375 271.48 180.64375 269.48 
L 180.64375 182.41125 
Q 180.64375 180.41125 178.64375 180.41125 
L 64.6 180.41125 
Q 62.6 180.41125 62.6 182.41125 
L 62.6 269.48 
Q 62.6 271.48 64.6 271.48 
z
" style="fill:#ffffff;opacity:0.8;stroke:#cccccc;stroke-linejoin:miter;"/>
    </g>
    <g id="line2d_19">
     <path d="M 66.6 188.509687 
L 86.6 188.509687 
" style="fill:none;stroke:#0000ff;stroke-linecap:square;stroke-opacity:0.9;stroke-width:2;"/>
    </g>
    <g id="line2d_20"/>
    <g id="text_15">
     <!-- alpaca -->
     <g transform="translate(94.6 192.009687)scale(0.1 -0.1)">
      <defs>
       <path d="M 3122 3366 
L 3122 2828 
Q 2878 2963 2633 3030 
Q 2388 3097 2138 3097 
Q 1578 3097 1268 2742 
Q 959 2388 959 1747 
Q 959 1106 1268 751 
Q 1578 397 2138 397 
Q 2388 397 2633 464 
Q 2878 531 3122 666 
L 3122 134 
Q 2881 22 2623 -34 
Q 2366 -91 2075 -91 
Q 1284 -91 818 406 
Q 353 903 353 1747 
Q 353 2603 823 3093 
Q 1294 3584 2113 3584 
Q 2378 3584 2631 3529 
Q 2884 3475 3122 3366 
z
" id="DejaVuSans-63" transform="scale(0.015625)"/>
      </defs>
      <use xlink:href="#DejaVuSans-61"/>
      <use x="61.279297" xlink:href="#DejaVuSans-6c"/>
      <use x="89.0625" xlink:href="#DejaVuSans-70"/>
      <use x="152.539062" xlink:href="#DejaVuSans-61"/>
      <use x="213.818359" xlink:href="#DejaVuSans-63"/>
      <use x="268.798828" xlink:href="#DejaVuSans-61"/>
     </g>
    </g>
    <g id="line2d_21">
     <path d="M 66.6 203.187812 
L 86.6 203.187812 
" style="fill:none;stroke:#ff0000;stroke-linecap:square;stroke-opacity:0.9;stroke-width:2;"/>
    </g>
    <g id="line2d_22"/>
    <g id="text_16">
     <!-- mattress -->
     <g transform="translate(94.6 206.687812)scale(0.1 -0.1)">
      <defs>
       <path d="M 3328 2828 
Q 3544 3216 3844 3400 
Q 4144 3584 4550 3584 
Q 5097 3584 5394 3201 
Q 5691 2819 5691 2113 
L 5691 0 
L 5113 0 
L 5113 2094 
Q 5113 2597 4934 2840 
Q 4756 3084 4391 3084 
Q 3944 3084 3684 2787 
Q 3425 2491 3425 1978 
L 3425 0 
L 2847 0 
L 2847 2094 
Q 2847 2600 2669 2842 
Q 2491 3084 2119 3084 
Q 1678 3084 1418 2786 
Q 1159 2488 1159 1978 
L 1159 0 
L 581 0 
L 581 3500 
L 1159 3500 
L 1159 2956 
Q 1356 3278 1631 3431 
Q 1906 3584 2284 3584 
Q 2666 3584 2933 3390 
Q 3200 3197 3328 2828 
z
" id="DejaVuSans-6d" transform="scale(0.015625)"/>
       <path d="M 2834 3397 
L 2834 2853 
Q 2591 2978 2328 3040 
Q 2066 3103 1784 3103 
Q 1356 3103 1142 2972 
Q 928 2841 928 2578 
Q 928 2378 1081 2264 
Q 1234 2150 1697 2047 
L 1894 2003 
Q 2506 1872 2764 1633 
Q 3022 1394 3022 966 
Q 3022 478 2636 193 
Q 2250 -91 1575 -91 
Q 1294 -91 989 -36 
Q 684 19 347 128 
L 347 722 
Q 666 556 975 473 
Q 1284 391 1588 391 
Q 1994 391 2212 530 
Q 2431 669 2431 922 
Q 2431 1156 2273 1281 
Q 2116 1406 1581 1522 
L 1381 1569 
Q 847 1681 609 1914 
Q 372 2147 372 2553 
Q 372 3047 722 3315 
Q 1072 3584 1716 3584 
Q 2034 3584 2315 3537 
Q 2597 3491 2834 3397 
z
" id="DejaVuSans-73" transform="scale(0.015625)"/>
      </defs>
      <use xlink:href="#DejaVuSans-6d"/>
      <use x="97.412109" xlink:href="#DejaVuSans-61"/>
      <use x="158.691406" xlink:href="#DejaVuSans-74"/>
      <use x="197.900391" xlink:href="#DejaVuSans-74"/>
      <use x="237.109375" xlink:href="#DejaVuSans-72"/>
      <use x="275.972656" xlink:href="#DejaVuSans-65"/>
      <use x="337.496094" xlink:href="#DejaVuSans-73"/>
      <use x="389.595703" xlink:href="#DejaVuSans-73"/>
     </g>
    </g>
    <g id="line2d_23">
     <path d="M 66.6 217.865937 
L 86.6 217.865937 
" style="fill:none;stroke:#008000;stroke-linecap:square;stroke-opacity:0.9;stroke-width:2;"/>
    </g>
    <g id="line2d_24"/>
    <g id="text_17">
     <!-- daily-open-rebal -->
     <g transform="translate(94.6 221.365937)scale(0.1 -0.1)">
      <defs>
       <path d="M 3513 2113 
L 3513 0 
L 2938 0 
L 2938 2094 
Q 2938 2591 2744 2837 
Q 2550 3084 2163 3084 
Q 1697 3084 1428 2787 
Q 1159 2491 1159 1978 
L 1159 0 
L 581 0 
L 581 3500 
L 1159 3500 
L 1159 2956 
Q 1366 3272 1645 3428 
Q 1925 3584 2291 3584 
Q 2894 3584 3203 3211 
Q 3513 2838 3513 2113 
z
" id="DejaVuSans-6e" transform="scale(0.015625)"/>
       <path d="M 3116 1747 
Q 3116 2381 2855 2742 
Q 2594 3103 2138 3103 
Q 1681 3103 1420 2742 
Q 1159 2381 1159 1747 
Q 1159 1113 1420 752 
Q 1681 391 2138 391 
Q 2594 391 2855 752 
Q 3116 1113 3116 1747 
z
M 1159 2969 
Q 1341 3281 1617 3432 
Q 1894 3584 2278 3584 
Q 2916 3584 3314 3078 
Q 3713 2572 3713 1747 
Q 3713 922 3314 415 
Q 2916 -91 2278 -91 
Q 1894 -91 1617 61 
Q 1341 213 1159 525 
L 1159 0 
L 581 0 
L 581 4863 
L 1159 4863 
L 1159 2969 
z
" id="DejaVuSans-62" transform="scale(0.015625)"/>
      </defs>
      <use xlink:href="#DejaVuSans-64"/>
      <use x="63.476562" xlink:href="#DejaVuSans-61"/>
      <use x="124.755859" xlink:href="#DejaVuSans-69"/>
      <use x="152.539062" xlink:href="#DejaVuSans-6c"/>
      <use x="180.322266" xlink:href="#DejaVuSans-79"/>
      <use x="237.751953" xlink:href="#DejaVuSans-2d"/>
      <use x="275.710938" xlink:href="#DejaVuSans-6f"/>
      <use x="336.892578" xlink:href="#DejaVuSans-70"/>
      <use x="400.369141" xlink:href="#DejaVuSans-65"/>
      <use x="461.892578" xlink:href="#DejaVuSans-6e"/>
      <use x="525.271484" xlink:href="#DejaVuSans-2d"/>
      <use x="561.355469" xlink:href="#DejaVuSans-72"/>
      <use x="600.21875" xlink:href="#DejaVuSans-65"/>
      <use x="661.742188" xlink:href="#DejaVuSans-62"/>
      <use x="725.21875" xlink:href="#DejaVuSans-61"/>
      <use x="786.498047" xlink:href="#DejaVuSans-6c"/>
     </g>
    </g>
    <g id="line2d_25">
     <path d="M 66.6 232.544062 
L 86.6 232.544062 
" style="fill:none;stroke:#ec5283;stroke-linecap:square;stroke-width:2;"/>
    </g>
    <g id="line2d_26"/>
    <g id="text_18">
     <!-- daily-close-rebal -->
     <g transform="translate(94.6 236.044062)scale(0.1 -0.1)">
      <use xlink:href="#DejaVuSans-64"/>
      <use x="63.476562" xlink:href="#DejaVuSans-61"/>
      <use x="124.755859" xlink:href="#DejaVuSans-69"/>
      <use x="152.539062" xlink:href="#DejaVuSans-6c"/>
      <use x="180.322266" xlink:href="#DejaVuSans-79"/>
      <use x="237.751953" xlink:href="#DejaVuSans-2d"/>
      <use x="273.835938" xlink:href="#DejaVuSans-63"/>
      <use x="328.816406" xlink:href="#DejaVuSans-6c"/>
      <use x="356.599609" xlink:href="#DejaVuSans-6f"/>
      <use x="417.78125" xlink:href="#DejaVuSans-73"/>
      <use x="469.880859" xlink:href="#DejaVuSans-65"/>
      <use x="531.404297" xlink:href="#DejaVuSans-2d"/>
      <use x="567.488281" xlink:href="#DejaVuSans-72"/>
      <use x="606.351562" xlink:href="#DejaVuSans-65"/>
      <use x="667.875" xlink:href="#DejaVuSans-62"/>
      <use x="731.351562" xlink:href="#DejaVuSans-61"/>
      <use x="792.630859" xlink:href="#DejaVuSans-6c"/>
     </g>
    </g>
    <g id="line2d_27">
     <path d="M 66.6 247.222187 
L 86.6 247.222187 
" style="fill:none;stroke:#00ff00;stroke-linecap:square;stroke-opacity:0.9;stroke-width:2;"/>
    </g>
    <g id="line2d_28"/>
    <g id="text_19">
     <!-- trader-baseline -->
     <g transform="translate(94.6 250.722187)scale(0.1 -0.1)">
      <use xlink:href="#DejaVuSans-74"/>
      <use x="39.208984" xlink:href="#DejaVuSans-72"/>
      <use x="80.322266" xlink:href="#DejaVuSans-61"/>
      <use x="141.601562" xlink:href="#DejaVuSans-64"/>
      <use x="205.078125" xlink:href="#DejaVuSans-65"/>
      <use x="266.601562" xlink:href="#DejaVuSans-72"/>
      <use x="301.339844" xlink:href="#DejaVuSans-2d"/>
      <use x="337.423828" xlink:href="#DejaVuSans-62"/>
      <use x="400.900391" xlink:href="#DejaVuSans-61"/>
      <use x="462.179688" xlink:href="#DejaVuSans-73"/>
      <use x="514.279297" xlink:href="#DejaVuSans-65"/>
      <use x="575.802734" xlink:href="#DejaVuSans-6c"/>
      <use x="603.585938" xlink:href="#DejaVuSans-69"/>
      <use x="631.369141" xlink:href="#DejaVuSans-6e"/>
      <use x="694.748047" xlink:href="#DejaVuSans-65"/>
     </g>
    </g>
    <g id="line2d_29">
     <path d="M 66.6 261.900312 
L 86.6 261.900312 
" style="fill:none;stroke:#a5b9cf;stroke-linecap:square;stroke-width:2;"/>
    </g>
    <g id="line2d_30"/>
    <g id="text_20">
     <!-- default-cfg -->
     <g transform="translate(94.6 265.400312)scale(0.1 -0.1)">
      <defs>
       <path d="M 2375 4863 
L 2375 4384 
L 1825 4384 
Q 1516 4384 1395 4259 
Q 1275 4134 1275 3809 
L 1275 3500 
L 2222 3500 
L 2222 3053 
L 1275 3053 
L 1275 0 
L 697 0 
L 697 3053 
L 147 3053 
L 147 3500 
L 697 3500 
L 697 3744 
Q 697 4328 969 4595 
Q 1241 4863 1831 4863 
L 2375 4863 
z
" id="DejaVuSans-66" transform="scale(0.015625)"/>
       <path d="M 544 1381 
L 544 3500 
L 1119 3500 
L 1119 1403 
Q 1119 906 1312 657 
Q 1506 409 1894 409 
Q 2359 409 2629 706 
Q 2900 1003 2900 1516 
L 2900 3500 
L 3475 3500 
L 3475 0 
L 2900 0 
L 2900 538 
Q 2691 219 2414 64 
Q 2138 -91 1772 -91 
Q 1169 -91 856 284 
Q 544 659 544 1381 
z
M 1991 3584 
L 1991 3584 
z
" id="DejaVuSans-75" transform="scale(0.015625)"/>
       <path d="M 2906 1791 
Q 2906 2416 2648 2759 
Q 2391 3103 1925 3103 
Q 1463 3103 1205 2759 
Q 947 2416 947 1791 
Q 947 1169 1205 825 
Q 1463 481 1925 481 
Q 2391 481 2648 825 
Q 2906 1169 2906 1791 
z
M 3481 434 
Q 3481 -459 3084 -895 
Q 2688 -1331 1869 -1331 
Q 1566 -1331 1297 -1286 
Q 1028 -1241 775 -1147 
L 775 -588 
Q 1028 -725 1275 -790 
Q 1522 -856 1778 -856 
Q 2344 -856 2625 -561 
Q 2906 -266 2906 331 
L 2906 616 
Q 2728 306 2450 153 
Q 2172 0 1784 0 
Q 1141 0 747 490 
Q 353 981 353 1791 
Q 353 2603 747 3093 
Q 1141 3584 1784 3584 
Q 2172 3584 2450 3431 
Q 2728 3278 2906 2969 
L 2906 3500 
L 3481 3500 
L 3481 434 
z
" id="DejaVuSans-67" transform="scale(0.015625)"/>
      </defs>
      <use xlink:href="#DejaVuSans-64"/>
      <use x="63.476562" xlink:href="#DejaVuSans-65"/>
      <use x="125" xlink:href="#DejaVuSans-66"/>
      <use x="160.205078" xlink:href="#DejaVuSans-61"/>
      <use x="221.484375" xlink:href="#DejaVuSans-75"/>
      <use x="284.863281" xlink:href="#DejaVuSans-6c"/>
      <use x="312.646484" xlink:href="#DejaVuSans-74"/>
      <use x="351.855469" xlink:href="#DejaVuSans-2d"/>
      <use x="387.939453" xlink:href="#DejaVuSans-63"/>
      <use x="442.919922" xlink:href="#DejaVuSans-66"/>
      <use x="478.125" xlink:href="#DejaVuSans-67"/>
     </g>
    </g>
   </g>
  </g>
 </g>
 <defs>
  <clipPath id="p715425ea40">
   <rect height="235.008" width="357.12" x="57.6" y="41.472"/>
  </clipPath>
 </defs>
</svg>
