<?xml version="1.0" encoding="utf-8" standalone="no"?>
<!DOCTYPE svg PUBLIC "-//W3C//DTD SVG 1.1//EN"
  "http://www.w3.org/Graphics/SVG/1.1/DTD/svg11.dtd">
<svg height="345.6pt" version="1.1" viewBox="0 0 460.8 345.6" width="460.8pt" xmlns="http://www.w3.org/2000/svg" xmlns:xlink="http://www.w3.org/1999/xlink">
 <metadata>
  <rdf:RDF xmlns:cc="http://creativecommons.org/ns#" xmlns:dc="http://purl.org/dc/elements/1.1/" xmlns:rdf="http://www.w3.org/1999/02/22-rdf-syntax-ns#">
   <cc:Work>
    <dc:type rdf:resource="http://purl.org/dc/dcmitype/StillImage"/>
    <dc:date>2022-06-07T01:02:23.200600</dc:date>
    <dc:format>image/svg+xml</dc:format>
    <dc:creator>
     <cc:Agent>
      <dc:title>Matplotlib v3.4.3, https://matplotlib.org/</dc:title>
     </cc:Agent>
    </dc:creator>
   </cc:Work>
  </rdf:RDF>
 </metadata>
 <defs>
  <style type="text/css">*{stroke-linecap:butt;stroke-linejoin:round;}</style>
 </defs>
 <g id="figure_1">
  <g id="patch_1">
   <path d="M 0 345.6 
L 460.8 345.6 
L 460.8 0 
L 0 0 
z
" style="fill:#ffffff;"/>
  </g>
  <g id="axes_1">
   <g id="patch_2">
    <path d="M 57.6 276.48 
L 414.72 276.48 
L 414.72 41.472 
L 57.6 41.472 
z
" style="fill:#ffffff;"/>
   </g>
   <g id="matplotlib.axis_1">
    <g id="xtick_1">
     <g id="line2d_1">
      <defs>
       <path d="M 0 0 
L 0 3.5 
" id="m917a5dbf7d" style="stroke:#000000;stroke-width:0.8;"/>
      </defs>
      <g>
       <use style="stroke:#000000;stroke-width:0.8;" x="84.013532" xlink:href="#m917a5dbf7d" y="276.48"/>
      </g>
     </g>
     <g id="text_1">
      <!-- 2021-09 -->
      <g transform="translate(46.788711 310.951846)rotate(-30)scale(0.1 -0.1)">
       <defs>
        <path d="M 1228 531 
L 3431 531 
L 3431 0 
L 469 0 
L 469 531 
Q 828 903 1448 1529 
Q 2069 2156 2228 2338 
Q 2531 2678 2651 2914 
Q 2772 3150 2772 3378 
Q 2772 3750 2511 3984 
Q 2250 4219 1831 4219 
Q 1534 4219 1204 4116 
Q 875 4013 500 3803 
L 500 4441 
Q 881 4594 1212 4672 
Q 1544 4750 1819 4750 
Q 2544 4750 2975 4387 
Q 3406 4025 3406 3419 
Q 3406 3131 3298 2873 
Q 3191 2616 2906 2266 
Q 2828 2175 2409 1742 
Q 1991 1309 1228 531 
z
" id="DejaVuSans-32" transform="scale(0.015625)"/>
        <path d="M 2034 4250 
Q 1547 4250 1301 3770 
Q 1056 3291 1056 2328 
Q 1056 1369 1301 889 
Q 1547 409 2034 409 
Q 2525 409 2770 889 
Q 3016 1369 3016 2328 
Q 3016 3291 2770 3770 
Q 2525 4250 2034 4250 
z
M 2034 4750 
Q 2819 4750 3233 4129 
Q 3647 3509 3647 2328 
Q 3647 1150 3233 529 
Q 2819 -91 2034 -91 
Q 1250 -91 836 529 
Q 422 1150 422 2328 
Q 422 3509 836 4129 
Q 1250 4750 2034 4750 
z
" id="DejaVuSans-30" transform="scale(0.015625)"/>
        <path d="M 794 531 
L 1825 531 
L 1825 4091 
L 703 3866 
L 703 4441 
L 1819 4666 
L 2450 4666 
L 2450 531 
L 3481 531 
L 3481 0 
L 794 0 
L 794 531 
z
" id="DejaVuSans-31" transform="scale(0.015625)"/>
        <path d="M 313 2009 
L 1997 2009 
L 1997 1497 
L 313 1497 
L 313 2009 
z
" id="DejaVuSans-2d" transform="scale(0.015625)"/>
        <path d="M 703 97 
L 703 672 
Q 941 559 1184 500 
Q 1428 441 1663 441 
Q 2288 441 2617 861 
Q 2947 1281 2994 2138 
Q 2813 1869 2534 1725 
Q 2256 1581 1919 1581 
Q 1219 1581 811 2004 
Q 403 2428 403 3163 
Q 403 3881 828 4315 
Q 1253 4750 1959 4750 
Q 2769 4750 3195 4129 
Q 3622 3509 3622 2328 
Q 3622 1225 3098 567 
Q 2575 -91 1691 -91 
Q 1453 -91 1209 -44 
Q 966 3 703 97 
z
M 1959 2075 
Q 2384 2075 2632 2365 
Q 2881 2656 2881 3163 
Q 2881 3666 2632 3958 
Q 2384 4250 1959 4250 
Q 1534 4250 1286 3958 
Q 1038 3666 1038 3163 
Q 1038 2656 1286 2365 
Q 1534 2075 1959 2075 
z
" id="DejaVuSans-39" transform="scale(0.015625)"/>
       </defs>
       <use xlink:href="#DejaVuSans-32"/>
       <use x="63.623047" xlink:href="#DejaVuSans-30"/>
       <use x="127.246094" xlink:href="#DejaVuSans-32"/>
       <use x="190.869141" xlink:href="#DejaVuSans-31"/>
       <use x="254.492188" xlink:href="#DejaVuSans-2d"/>
       <use x="290.576172" xlink:href="#DejaVuSans-30"/>
       <use x="354.199219" xlink:href="#DejaVuSans-39"/>
      </g>
     </g>
    </g>
    <g id="xtick_2">
     <g id="line2d_2">
      <g>
       <use style="stroke:#000000;stroke-width:0.8;" x="117.949547" xlink:href="#m917a5dbf7d" y="276.48"/>
      </g>
     </g>
     <g id="text_2">
      <!-- 2021-10 -->
      <g transform="translate(80.724726 310.951846)rotate(-30)scale(0.1 -0.1)">
       <use xlink:href="#DejaVuSans-32"/>
       <use x="63.623047" xlink:href="#DejaVuSans-30"/>
       <use x="127.246094" xlink:href="#DejaVuSans-32"/>
       <use x="190.869141" xlink:href="#DejaVuSans-31"/>
       <use x="254.492188" xlink:href="#DejaVuSans-2d"/>
       <use x="290.576172" xlink:href="#DejaVuSans-31"/>
       <use x="354.199219" xlink:href="#DejaVuSans-30"/>
      </g>
     </g>
    </g>
    <g id="xtick_3">
     <g id="line2d_3">
      <g>
       <use style="stroke:#000000;stroke-width:0.8;" x="153.016763" xlink:href="#m917a5dbf7d" y="276.48"/>
      </g>
     </g>
     <g id="text_3">
      <!-- 2021-11 -->
      <g transform="translate(115.791942 310.951846)rotate(-30)scale(0.1 -0.1)">
       <use xlink:href="#DejaVuSans-32"/>
       <use x="63.623047" xlink:href="#DejaVuSans-30"/>
       <use x="127.246094" xlink:href="#DejaVuSans-32"/>
       <use x="190.869141" xlink:href="#DejaVuSans-31"/>
       <use x="254.492188" xlink:href="#DejaVuSans-2d"/>
       <use x="290.576172" xlink:href="#DejaVuSans-31"/>
       <use x="354.199219" xlink:href="#DejaVuSans-31"/>
      </g>
     </g>
    </g>
    <g id="xtick_4">
     <g id="line2d_4">
      <g>
       <use style="stroke:#000000;stroke-width:0.8;" x="186.952778" xlink:href="#m917a5dbf7d" y="276.48"/>
      </g>
     </g>
     <g id="text_4">
      <!-- 2021-12 -->
      <g transform="translate(149.727957 310.951846)rotate(-30)scale(0.1 -0.1)">
       <use xlink:href="#DejaVuSans-32"/>
       <use x="63.623047" xlink:href="#DejaVuSans-30"/>
       <use x="127.246094" xlink:href="#DejaVuSans-32"/>
       <use x="190.869141" xlink:href="#DejaVuSans-31"/>
       <use x="254.492188" xlink:href="#DejaVuSans-2d"/>
       <use x="290.576172" xlink:href="#DejaVuSans-31"/>
       <use x="354.199219" xlink:href="#DejaVuSans-32"/>
      </g>
     </g>
    </g>
    <g id="xtick_5">
     <g id="line2d_5">
      <g>
       <use style="stroke:#000000;stroke-width:0.8;" x="222.019994" xlink:href="#m917a5dbf7d" y="276.48"/>
      </g>
     </g>
     <g id="text_5">
      <!-- 2022-01 -->
      <g transform="translate(184.795173 310.951846)rotate(-30)scale(0.1 -0.1)">
       <use xlink:href="#DejaVuSans-32"/>
       <use x="63.623047" xlink:href="#DejaVuSans-30"/>
       <use x="127.246094" xlink:href="#DejaVuSans-32"/>
       <use x="190.869141" xlink:href="#DejaVuSans-32"/>
       <use x="254.492188" xlink:href="#DejaVuSans-2d"/>
       <use x="290.576172" xlink:href="#DejaVuSans-30"/>
       <use x="354.199219" xlink:href="#DejaVuSans-31"/>
      </g>
     </g>
    </g>
    <g id="xtick_6">
     <g id="line2d_6">
      <g>
       <use style="stroke:#000000;stroke-width:0.8;" x="257.087209" xlink:href="#m917a5dbf7d" y="276.48"/>
      </g>
     </g>
     <g id="text_6">
      <!-- 2022-02 -->
      <g transform="translate(219.862389 310.951846)rotate(-30)scale(0.1 -0.1)">
       <use xlink:href="#DejaVuSans-32"/>
       <use x="63.623047" xlink:href="#DejaVuSans-30"/>
       <use x="127.246094" xlink:href="#DejaVuSans-32"/>
       <use x="190.869141" xlink:href="#DejaVuSans-32"/>
       <use x="254.492188" xlink:href="#DejaVuSans-2d"/>
       <use x="290.576172" xlink:href="#DejaVuSans-30"/>
       <use x="354.199219" xlink:href="#DejaVuSans-32"/>
      </g>
     </g>
    </g>
    <g id="xtick_7">
     <g id="line2d_7">
      <g>
       <use style="stroke:#000000;stroke-width:0.8;" x="288.760824" xlink:href="#m917a5dbf7d" y="276.48"/>
      </g>
     </g>
     <g id="text_7">
      <!-- 2022-03 -->
      <g transform="translate(251.536003 310.951846)rotate(-30)scale(0.1 -0.1)">
       <defs>
        <path d="M 2597 2516 
Q 3050 2419 3304 2112 
Q 3559 1806 3559 1356 
Q 3559 666 3084 287 
Q 2609 -91 1734 -91 
Q 1441 -91 1130 -33 
Q 819 25 488 141 
L 488 750 
Q 750 597 1062 519 
Q 1375 441 1716 441 
Q 2309 441 2620 675 
Q 2931 909 2931 1356 
Q 2931 1769 2642 2001 
Q 2353 2234 1838 2234 
L 1294 2234 
L 1294 2753 
L 1863 2753 
Q 2328 2753 2575 2939 
Q 2822 3125 2822 3475 
Q 2822 3834 2567 4026 
Q 2313 4219 1838 4219 
Q 1578 4219 1281 4162 
Q 984 4106 628 3988 
L 628 4550 
Q 988 4650 1302 4700 
Q 1616 4750 1894 4750 
Q 2613 4750 3031 4423 
Q 3450 4097 3450 3541 
Q 3450 3153 3228 2886 
Q 3006 2619 2597 2516 
z
" id="DejaVuSans-33" transform="scale(0.015625)"/>
       </defs>
       <use xlink:href="#DejaVuSans-32"/>
       <use x="63.623047" xlink:href="#DejaVuSans-30"/>
       <use x="127.246094" xlink:href="#DejaVuSans-32"/>
       <use x="190.869141" xlink:href="#DejaVuSans-32"/>
       <use x="254.492188" xlink:href="#DejaVuSans-2d"/>
       <use x="290.576172" xlink:href="#DejaVuSans-30"/>
       <use x="354.199219" xlink:href="#DejaVuSans-33"/>
      </g>
     </g>
    </g>
    <g id="xtick_8">
     <g id="line2d_8">
      <g>
       <use style="stroke:#000000;stroke-width:0.8;" x="323.828039" xlink:href="#m917a5dbf7d" y="276.48"/>
      </g>
     </g>
     <g id="text_8">
      <!-- 2022-04 -->
      <g transform="translate(286.603218 310.951846)rotate(-30)scale(0.1 -0.1)">
       <defs>
        <path d="M 2419 4116 
L 825 1625 
L 2419 1625 
L 2419 4116 
z
M 2253 4666 
L 3047 4666 
L 3047 1625 
L 3713 1625 
L 3713 1100 
L 3047 1100 
L 3047 0 
L 2419 0 
L 2419 1100 
L 313 1100 
L 313 1709 
L 2253 4666 
z
" id="DejaVuSans-34" transform="scale(0.015625)"/>
       </defs>
       <use xlink:href="#DejaVuSans-32"/>
       <use x="63.623047" xlink:href="#DejaVuSans-30"/>
       <use x="127.246094" xlink:href="#DejaVuSans-32"/>
       <use x="190.869141" xlink:href="#DejaVuSans-32"/>
       <use x="254.492188" xlink:href="#DejaVuSans-2d"/>
       <use x="290.576172" xlink:href="#DejaVuSans-30"/>
       <use x="354.199219" xlink:href="#DejaVuSans-34"/>
      </g>
     </g>
    </g>
    <g id="xtick_9">
     <g id="line2d_9">
      <g>
       <use style="stroke:#000000;stroke-width:0.8;" x="357.764054" xlink:href="#m917a5dbf7d" y="276.48"/>
      </g>
     </g>
     <g id="text_9">
      <!-- 2022-05 -->
      <g transform="translate(320.539234 310.951846)rotate(-30)scale(0.1 -0.1)">
       <defs>
        <path d="M 691 4666 
L 3169 4666 
L 3169 4134 
L 1269 4134 
L 1269 2991 
Q 1406 3038 1543 3061 
Q 1681 3084 1819 3084 
Q 2600 3084 3056 2656 
Q 3513 2228 3513 1497 
Q 3513 744 3044 326 
Q 2575 -91 1722 -91 
Q 1428 -91 1123 -41 
Q 819 9 494 109 
L 494 744 
Q 775 591 1075 516 
Q 1375 441 1709 441 
Q 2250 441 2565 725 
Q 2881 1009 2881 1497 
Q 2881 1984 2565 2268 
Q 2250 2553 1709 2553 
Q 1456 2553 1204 2497 
Q 953 2441 691 2322 
L 691 4666 
z
" id="DejaVuSans-35" transform="scale(0.015625)"/>
       </defs>
       <use xlink:href="#DejaVuSans-32"/>
       <use x="63.623047" xlink:href="#DejaVuSans-30"/>
       <use x="127.246094" xlink:href="#DejaVuSans-32"/>
       <use x="190.869141" xlink:href="#DejaVuSans-32"/>
       <use x="254.492188" xlink:href="#DejaVuSans-2d"/>
       <use x="290.576172" xlink:href="#DejaVuSans-30"/>
       <use x="354.199219" xlink:href="#DejaVuSans-35"/>
      </g>
     </g>
    </g>
    <g id="xtick_10">
     <g id="line2d_10">
      <g>
       <use style="stroke:#000000;stroke-width:0.8;" x="392.83127" xlink:href="#m917a5dbf7d" y="276.48"/>
      </g>
     </g>
     <g id="text_10">
      <!-- 2022-06 -->
      <g transform="translate(355.606449 310.951846)rotate(-30)scale(0.1 -0.1)">
       <defs>
        <path d="M 2113 2584 
Q 1688 2584 1439 2293 
Q 1191 2003 1191 1497 
Q 1191 994 1439 701 
Q 1688 409 2113 409 
Q 2538 409 2786 701 
Q 3034 994 3034 1497 
Q 3034 2003 2786 2293 
Q 2538 2584 2113 2584 
z
M 3366 4563 
L 3366 3988 
Q 3128 4100 2886 4159 
Q 2644 4219 2406 4219 
Q 1781 4219 1451 3797 
Q 1122 3375 1075 2522 
Q 1259 2794 1537 2939 
Q 1816 3084 2150 3084 
Q 2853 3084 3261 2657 
Q 3669 2231 3669 1497 
Q 3669 778 3244 343 
Q 2819 -91 2113 -91 
Q 1303 -91 875 529 
Q 447 1150 447 2328 
Q 447 3434 972 4092 
Q 1497 4750 2381 4750 
Q 2619 4750 2861 4703 
Q 3103 4656 3366 4563 
z
" id="DejaVuSans-36" transform="scale(0.015625)"/>
       </defs>
       <use xlink:href="#DejaVuSans-32"/>
       <use x="63.623047" xlink:href="#DejaVuSans-30"/>
       <use x="127.246094" xlink:href="#DejaVuSans-32"/>
       <use x="190.869141" xlink:href="#DejaVuSans-32"/>
       <use x="254.492188" xlink:href="#DejaVuSans-2d"/>
       <use x="290.576172" xlink:href="#DejaVuSans-30"/>
       <use x="354.199219" xlink:href="#DejaVuSans-36"/>
      </g>
     </g>
    </g>
    <g id="text_11">
     <!-- date -->
     <g transform="translate(224.885 324.351346)scale(0.1 -0.1)">
      <defs>
       <path d="M 2906 2969 
L 2906 4863 
L 3481 4863 
L 3481 0 
L 2906 0 
L 2906 525 
Q 2725 213 2448 61 
Q 2172 -91 1784 -91 
Q 1150 -91 751 415 
Q 353 922 353 1747 
Q 353 2572 751 3078 
Q 1150 3584 1784 3584 
Q 2172 3584 2448 3432 
Q 2725 3281 2906 2969 
z
M 947 1747 
Q 947 1113 1208 752 
Q 1469 391 1925 391 
Q 2381 391 2643 752 
Q 2906 1113 2906 1747 
Q 2906 2381 2643 2742 
Q 2381 3103 1925 3103 
Q 1469 3103 1208 2742 
Q 947 2381 947 1747 
z
" id="DejaVuSans-64" transform="scale(0.015625)"/>
       <path d="M 2194 1759 
Q 1497 1759 1228 1600 
Q 959 1441 959 1056 
Q 959 750 1161 570 
Q 1363 391 1709 391 
Q 2188 391 2477 730 
Q 2766 1069 2766 1631 
L 2766 1759 
L 2194 1759 
z
M 3341 1997 
L 3341 0 
L 2766 0 
L 2766 531 
Q 2569 213 2275 61 
Q 1981 -91 1556 -91 
Q 1019 -91 701 211 
Q 384 513 384 1019 
Q 384 1609 779 1909 
Q 1175 2209 1959 2209 
L 2766 2209 
L 2766 2266 
Q 2766 2663 2505 2880 
Q 2244 3097 1772 3097 
Q 1472 3097 1187 3025 
Q 903 2953 641 2809 
L 641 3341 
Q 956 3463 1253 3523 
Q 1550 3584 1831 3584 
Q 2591 3584 2966 3190 
Q 3341 2797 3341 1997 
z
" id="DejaVuSans-61" transform="scale(0.015625)"/>
       <path d="M 1172 4494 
L 1172 3500 
L 2356 3500 
L 2356 3053 
L 1172 3053 
L 1172 1153 
Q 1172 725 1289 603 
Q 1406 481 1766 481 
L 2356 481 
L 2356 0 
L 1766 0 
Q 1100 0 847 248 
Q 594 497 594 1153 
L 594 3053 
L 172 3053 
L 172 3500 
L 594 3500 
L 594 4494 
L 1172 4494 
z
" id="DejaVuSans-74" transform="scale(0.015625)"/>
       <path d="M 3597 1894 
L 3597 1613 
L 953 1613 
Q 991 1019 1311 708 
Q 1631 397 2203 397 
Q 2534 397 2845 478 
Q 3156 559 3463 722 
L 3463 178 
Q 3153 47 2828 -22 
Q 2503 -91 2169 -91 
Q 1331 -91 842 396 
Q 353 884 353 1716 
Q 353 2575 817 3079 
Q 1281 3584 2069 3584 
Q 2775 3584 3186 3129 
Q 3597 2675 3597 1894 
z
M 3022 2063 
Q 3016 2534 2758 2815 
Q 2500 3097 2075 3097 
Q 1594 3097 1305 2825 
Q 1016 2553 972 2059 
L 3022 2063 
z
" id="DejaVuSans-65" transform="scale(0.015625)"/>
      </defs>
      <use xlink:href="#DejaVuSans-64"/>
      <use x="63.476562" xlink:href="#DejaVuSans-61"/>
      <use x="124.755859" xlink:href="#DejaVuSans-74"/>
      <use x="163.964844" xlink:href="#DejaVuSans-65"/>
     </g>
    </g>
   </g>
   <g id="matplotlib.axis_2">
    <g id="ytick_1">
     <g id="line2d_11">
      <defs>
       <path d="M 0 0 
L -3.5 0 
" id="madd9c26d6b" style="stroke:#000000;stroke-width:0.8;"/>
      </defs>
      <g>
       <use style="stroke:#000000;stroke-width:0.8;" x="57.6" xlink:href="#madd9c26d6b" y="271.117944"/>
      </g>
     </g>
     <g id="text_12">
      <!-- 75000 -->
      <g transform="translate(18.7875 274.917163)scale(0.1 -0.1)">
       <defs>
        <path d="M 525 4666 
L 3525 4666 
L 3525 4397 
L 1831 0 
L 1172 0 
L 2766 4134 
L 525 4134 
L 525 4666 
z
" id="DejaVuSans-37" transform="scale(0.015625)"/>
       </defs>
       <use xlink:href="#DejaVuSans-37"/>
       <use x="63.623047" xlink:href="#DejaVuSans-35"/>
       <use x="127.246094" xlink:href="#DejaVuSans-30"/>
       <use x="190.869141" xlink:href="#DejaVuSans-30"/>
       <use x="254.492188" xlink:href="#DejaVuSans-30"/>
      </g>
     </g>
    </g>
    <g id="ytick_2">
     <g id="line2d_12">
      <g>
       <use style="stroke:#000000;stroke-width:0.8;" x="57.6" xlink:href="#madd9c26d6b" y="243.762539"/>
      </g>
     </g>
     <g id="text_13">
      <!-- 80000 -->
      <g transform="translate(18.7875 247.561758)scale(0.1 -0.1)">
       <defs>
        <path d="M 2034 2216 
Q 1584 2216 1326 1975 
Q 1069 1734 1069 1313 
Q 1069 891 1326 650 
Q 1584 409 2034 409 
Q 2484 409 2743 651 
Q 3003 894 3003 1313 
Q 3003 1734 2745 1975 
Q 2488 2216 2034 2216 
z
M 1403 2484 
Q 997 2584 770 2862 
Q 544 3141 544 3541 
Q 544 4100 942 4425 
Q 1341 4750 2034 4750 
Q 2731 4750 3128 4425 
Q 3525 4100 3525 3541 
Q 3525 3141 3298 2862 
Q 3072 2584 2669 2484 
Q 3125 2378 3379 2068 
Q 3634 1759 3634 1313 
Q 3634 634 3220 271 
Q 2806 -91 2034 -91 
Q 1263 -91 848 271 
Q 434 634 434 1313 
Q 434 1759 690 2068 
Q 947 2378 1403 2484 
z
M 1172 3481 
Q 1172 3119 1398 2916 
Q 1625 2713 2034 2713 
Q 2441 2713 2670 2916 
Q 2900 3119 2900 3481 
Q 2900 3844 2670 4047 
Q 2441 4250 2034 4250 
Q 1625 4250 1398 4047 
Q 1172 3844 1172 3481 
z
" id="DejaVuSans-38" transform="scale(0.015625)"/>
       </defs>
       <use xlink:href="#DejaVuSans-38"/>
       <use x="63.623047" xlink:href="#DejaVuSans-30"/>
       <use x="127.246094" xlink:href="#DejaVuSans-30"/>
       <use x="190.869141" xlink:href="#DejaVuSans-30"/>
       <use x="254.492188" xlink:href="#DejaVuSans-30"/>
      </g>
     </g>
    </g>
    <g id="ytick_3">
     <g id="line2d_13">
      <g>
       <use style="stroke:#000000;stroke-width:0.8;" x="57.6" xlink:href="#madd9c26d6b" y="216.407135"/>
      </g>
     </g>
     <g id="text_14">
      <!-- 85000 -->
      <g transform="translate(18.7875 220.206353)scale(0.1 -0.1)">
       <use xlink:href="#DejaVuSans-38"/>
       <use x="63.623047" xlink:href="#DejaVuSans-35"/>
       <use x="127.246094" xlink:href="#DejaVuSans-30"/>
       <use x="190.869141" xlink:href="#DejaVuSans-30"/>
       <use x="254.492188" xlink:href="#DejaVuSans-30"/>
      </g>
     </g>
    </g>
    <g id="ytick_4">
     <g id="line2d_14">
      <g>
       <use style="stroke:#000000;stroke-width:0.8;" x="57.6" xlink:href="#madd9c26d6b" y="189.05173"/>
      </g>
     </g>
     <g id="text_15">
      <!-- 90000 -->
      <g transform="translate(18.7875 192.850949)scale(0.1 -0.1)">
       <use xlink:href="#DejaVuSans-39"/>
       <use x="63.623047" xlink:href="#DejaVuSans-30"/>
       <use x="127.246094" xlink:href="#DejaVuSans-30"/>
       <use x="190.869141" xlink:href="#DejaVuSans-30"/>
       <use x="254.492188" xlink:href="#DejaVuSans-30"/>
      </g>
     </g>
    </g>
    <g id="ytick_5">
     <g id="line2d_15">
      <g>
       <use style="stroke:#000000;stroke-width:0.8;" x="57.6" xlink:href="#madd9c26d6b" y="161.696325"/>
      </g>
     </g>
     <g id="text_16">
      <!-- 95000 -->
      <g transform="translate(18.7875 165.495544)scale(0.1 -0.1)">
       <use xlink:href="#DejaVuSans-39"/>
       <use x="63.623047" xlink:href="#DejaVuSans-35"/>
       <use x="127.246094" xlink:href="#DejaVuSans-30"/>
       <use x="190.869141" xlink:href="#DejaVuSans-30"/>
       <use x="254.492188" xlink:href="#DejaVuSans-30"/>
      </g>
     </g>
    </g>
    <g id="ytick_6">
     <g id="line2d_16">
      <g>
       <use style="stroke:#000000;stroke-width:0.8;" x="57.6" xlink:href="#madd9c26d6b" y="134.34092"/>
      </g>
     </g>
     <g id="text_17">
      <!-- 100000 -->
      <g transform="translate(12.425 138.140139)scale(0.1 -0.1)">
       <use xlink:href="#DejaVuSans-31"/>
       <use x="63.623047" xlink:href="#DejaVuSans-30"/>
       <use x="127.246094" xlink:href="#DejaVuSans-30"/>
       <use x="190.869141" xlink:href="#DejaVuSans-30"/>
       <use x="254.492188" xlink:href="#DejaVuSans-30"/>
       <use x="318.115234" xlink:href="#DejaVuSans-30"/>
      </g>
     </g>
    </g>
    <g id="ytick_7">
     <g id="line2d_17">
      <g>
       <use style="stroke:#000000;stroke-width:0.8;" x="57.6" xlink:href="#madd9c26d6b" y="106.985516"/>
      </g>
     </g>
     <g id="text_18">
      <!-- 105000 -->
      <g transform="translate(12.425 110.784735)scale(0.1 -0.1)">
       <use xlink:href="#DejaVuSans-31"/>
       <use x="63.623047" xlink:href="#DejaVuSans-30"/>
       <use x="127.246094" xlink:href="#DejaVuSans-35"/>
       <use x="190.869141" xlink:href="#DejaVuSans-30"/>
       <use x="254.492188" xlink:href="#DejaVuSans-30"/>
       <use x="318.115234" xlink:href="#DejaVuSans-30"/>
      </g>
     </g>
    </g>
    <g id="ytick_8">
     <g id="line2d_18">
      <g>
       <use style="stroke:#000000;stroke-width:0.8;" x="57.6" xlink:href="#madd9c26d6b" y="79.630111"/>
      </g>
     </g>
     <g id="text_19">
      <!-- 110000 -->
      <g transform="translate(12.425 83.42933)scale(0.1 -0.1)">
       <use xlink:href="#DejaVuSans-31"/>
       <use x="63.623047" xlink:href="#DejaVuSans-31"/>
       <use x="127.246094" xlink:href="#DejaVuSans-30"/>
       <use x="190.869141" xlink:href="#DejaVuSans-30"/>
       <use x="254.492188" xlink:href="#DejaVuSans-30"/>
       <use x="318.115234" xlink:href="#DejaVuSans-30"/>
      </g>
     </g>
    </g>
    <g id="ytick_9">
     <g id="line2d_19">
      <g>
       <use style="stroke:#000000;stroke-width:0.8;" x="57.6" xlink:href="#madd9c26d6b" y="52.274706"/>
      </g>
     </g>
     <g id="text_20">
      <!-- 115000 -->
      <g transform="translate(12.425 56.073925)scale(0.1 -0.1)">
       <use xlink:href="#DejaVuSans-31"/>
       <use x="63.623047" xlink:href="#DejaVuSans-31"/>
       <use x="127.246094" xlink:href="#DejaVuSans-35"/>
       <use x="190.869141" xlink:href="#DejaVuSans-30"/>
       <use x="254.492188" xlink:href="#DejaVuSans-30"/>
       <use x="318.115234" xlink:href="#DejaVuSans-30"/>
      </g>
     </g>
    </g>
   </g>
   <g id="line2d_20">
    <path clip-path="url(#pd45184c102)" d="M 73.832727 134.34092 
L 74.963928 134.809485 
L 76.095128 132.573311 
L 77.226329 135.472007 
L 78.357529 130.698267 
L 82.882331 125.979007 
L 84.013532 127.740348 
L 85.144732 126.780079 
L 90.800735 127.222589 
L 93.063136 131.128807 
L 94.194336 135.811145 
L 97.587938 131.310791 
L 98.719138 139.06981 
L 99.850339 135.463765 
L 100.981539 135.911342 
L 102.11274 141.565036 
L 105.506341 151.006727 
L 106.637542 152.17839 
L 107.768742 148.385339 
L 108.899943 139.664333 
L 110.031143 135.010458 
L 113.424745 130.53259 
L 114.555946 142.496536 
L 115.687146 140.549313 
L 116.818347 144.975312 
L 117.949547 136.515381 
L 121.343149 146.766327 
L 122.474349 138.510023 
L 123.60555 136.57472 
L 125.867951 135.950511 
L 129.261552 135.052284 
L 130.392753 134.176831 
L 131.523953 141.458058 
L 132.655154 130.937509 
L 133.786354 129.71602 
L 137.179956 125.598618 
L 138.311156 119.95426 
L 139.442357 117.863622 
L 140.573557 127.378755 
L 141.704758 134.226756 
L 145.098359 134.034776 
L 146.22956 138.912064 
L 147.36076 139.961053 
L 148.491961 132.981395 
L 149.623161 139.963456 
L 153.016763 129.112298 
L 154.147963 128.973408 
L 155.279164 123.414807 
L 156.410364 130.458083 
L 157.541565 126.525659 
L 160.935166 126.172691 
L 162.066367 132.864425 
L 163.197567 133.078524 
L 164.328768 137.454204 
L 165.459968 133.233144 
L 168.85357 131.232655 
L 169.98477 131.322105 
L 171.115971 134.277319 
L 172.247171 135.778795 
L 173.378372 136.265046 
L 176.771973 133.159175 
L 177.903174 128.000367 
L 179.034374 128.625119 
L 181.296775 128.923773 
L 184.690377 133.415595 
L 185.821577 144.132273 
L 186.952778 151.247426 
L 188.083978 144.772349 
L 189.215179 148.076689 
L 192.60878 138.008434 
L 193.739981 128.369987 
L 194.871182 123.990857 
L 196.002382 123.870642 
L 197.133583 121.876841 
L 200.527184 127.185914 
L 201.658385 124.444074 
L 202.789585 121.205871 
L 203.920786 119.110474 
L 205.051986 125.514883 
L 208.445588 133.226126 
L 209.576788 120.09702 
L 210.707989 117.527875 
L 211.839189 112.780167 
L 216.363991 105.506922 
L 217.495192 105.711092 
L 218.626392 105.496048 
L 219.757593 106.612726 
L 220.888793 109.332029 
L 224.282395 100.263602 
L 225.413595 93.026619 
L 226.544796 108.682399 
L 227.675996 103.538205 
L 228.807197 101.849377 
L 232.200798 101.544689 
L 233.331999 96.55123 
L 234.463199 95.567457 
L 235.5944 102.397133 
L 236.7256 100.905187 
L 242.381603 116.012722 
L 243.512803 122.398522 
L 244.644004 135.238008 
L 248.037605 134.38832 
L 249.168806 140.878563 
L 250.300006 140.540178 
L 251.431207 144.256748 
L 252.562407 130.672814 
L 255.956009 118.798623 
L 257.087209 113.10687 
L 258.21841 104.677967 
L 259.34961 141.145174 
L 260.480811 140.344162 
L 263.874412 149.276054 
L 265.005613 150.624266 
L 266.136813 138.905366 
L 267.268014 148.288049 
L 268.399214 160.676411 
L 271.792816 164.125262 
L 272.924016 157.77493 
L 274.055217 160.959061 
L 275.186417 170.359046 
L 276.317618 173.747202 
L 280.84242 178.97845 
L 281.973621 186.42124 
L 283.104821 174.751291 
L 284.236022 165.800567 
L 287.629623 167.508918 
L 288.760824 175.311365 
L 289.892024 165.04051 
L 291.023225 166.951412 
L 292.154425 171.014043 
L 295.548027 191.965726 
L 296.679227 192.60863 
L 297.810428 171.71053 
L 298.941628 178.082995 
L 300.072829 187.323047 
L 303.46643 189.045731 
L 304.597631 179.014226 
L 305.728831 163.456149 
L 306.860032 156.94709 
L 307.991232 147.909826 
L 311.384834 150.318664 
L 312.516034 139.76523 
L 313.647235 145.769649 
L 314.778435 136.517733 
L 315.909636 131.140217 
L 319.303237 129.289218 
L 320.434438 124.386783 
L 321.565638 125.932406 
L 322.696839 138.625287 
L 323.828039 136.117712 
L 327.221641 129.697727 
L 328.352841 135.846682 
L 329.484042 144.201273 
L 331.746443 146.344113 
L 336.271245 159.728493 
L 337.402445 157.152 
L 338.533646 166.485719 
L 343.058448 162.839627 
L 344.189648 153.455682 
L 345.320849 160.096625 
L 346.452049 172.178347 
L 347.58325 188.703623 
L 350.976851 184.549259 
L 352.108052 193.544297 
L 353.239252 199.537549 
L 354.370453 167.447197 
L 355.501653 183.175794 
L 358.895255 175.59108 
L 360.026455 170.845282 
L 361.157656 149.204021 
L 362.288857 172.669815 
L 363.420057 175.242491 
L 366.813659 189.537334 
L 367.944859 187.106797 
L 369.07606 196.711637 
L 370.20726 200.477331 
L 371.338461 188.876487 
L 374.732062 191.912682 
L 375.863263 182.791904 
L 376.994463 202.461606 
L 378.125664 207.921698 
L 379.256864 210.15872 
L 382.650466 197.359105 
L 383.781666 212.82452 
L 384.912867 211.776625 
L 386.044067 199.651296 
L 387.175268 185.449719 
L 391.70007 186.28311 
L 392.83127 190.289439 
L 393.962471 177.536839 
L 395.093671 191.074883 
L 398.487273 189.166066 
L 398.487273 189.166066 
" style="fill:none;stroke:#0000ff;stroke-linecap:square;stroke-opacity:0.9;stroke-width:2;"/>
   </g>
   <g id="line2d_21">
    <path clip-path="url(#pd45184c102)" d="M 73.832727 134.34092 
L 74.963928 131.259652 
L 76.095128 128.546373 
L 77.226329 132.481361 
L 78.357529 125.399947 
L 82.882331 123.282672 
L 84.013532 123.408008 
L 85.144732 123.697227 
L 86.275933 123.839514 
L 90.800735 123.004522 
L 91.931935 125.007155 
L 93.063136 126.178447 
L 94.194336 131.920422 
L 97.587938 127.892248 
L 98.719138 133.432783 
L 99.850339 130.657469 
L 100.981539 132.224239 
L 102.11274 139.214546 
L 105.506341 148.034063 
L 106.637542 147.879804 
L 107.768742 144.92735 
L 108.899943 138.162476 
L 110.031143 133.963025 
L 113.424745 130.468636 
L 114.555946 141.466024 
L 115.687146 140.295373 
L 116.818347 145.613226 
L 117.949547 137.663329 
L 121.343149 143.920709 
L 122.474349 135.923099 
L 124.73675 133.181573 
L 125.867951 130.678811 
L 129.261552 133.950781 
L 130.392753 137.770366 
L 131.523953 139.496104 
L 132.655154 126.286514 
L 133.786354 122.276257 
L 137.179956 121.06587 
L 138.311156 116.066838 
L 139.442357 113.311567 
L 140.573557 120.477884 
L 141.704758 123.378022 
L 145.098359 125.232055 
L 146.22956 128.016247 
L 147.36076 131.138015 
L 148.491961 123.208046 
L 149.623161 122.36534 
L 153.016763 122.321399 
L 154.147963 119.835157 
L 155.279164 115.940742 
L 156.410364 116.966933 
L 157.541565 116.981172 
L 160.935166 116.33724 
L 162.066367 120.483392 
L 163.197567 123.658597 
L 164.328768 123.284763 
L 165.459968 119.805403 
L 168.85357 118.472842 
L 169.98477 119.758269 
L 171.115971 120.200762 
L 172.247171 119.949399 
L 173.378372 122.405247 
L 176.771973 120.009785 
L 177.903174 114.266854 
L 179.034374 114.081262 
L 181.296775 128.718226 
L 184.690377 122.29784 
L 185.821577 134.290129 
L 186.952778 140.613601 
L 188.083978 132.88605 
L 189.215179 137.791174 
L 192.60878 129.319725 
L 193.739981 119.805295 
L 194.871182 116.798282 
L 196.002382 117.30372 
L 197.133583 113.511866 
L 200.527184 119.034229 
L 201.658385 119.138269 
L 202.789585 114.793789 
L 203.920786 114.209146 
L 205.051986 121.366683 
L 208.445588 127.89505 
L 209.576788 117.430831 
L 210.707989 114.30115 
L 211.839189 109.565643 
L 216.363991 101.855523 
L 217.495192 102.163843 
L 218.626392 102.098418 
L 219.757593 102.741675 
L 220.888793 104.847851 
L 224.282395 98.903519 
L 225.413595 93.16482 
L 226.544796 105.715278 
L 227.675996 103.636934 
L 228.807197 100.208137 
L 232.200798 100.763113 
L 233.331999 97.437373 
L 234.463199 97.30333 
L 235.5944 101.671382 
L 236.7256 102.282913 
L 241.250402 114.992698 
L 243.512803 125.425231 
L 244.644004 137.111204 
L 248.037605 137.667509 
L 249.168806 136.309878 
L 250.300006 137.370938 
L 251.431207 142.335585 
L 252.562407 128.967645 
L 255.956009 120.437877 
L 257.087209 113.800211 
L 258.21841 105.093366 
L 259.34961 130.337719 
L 260.480811 125.771318 
L 263.874412 129.668201 
L 265.005613 125.935732 
L 266.136813 120.985251 
L 267.268014 130.229003 
L 268.399214 141.549255 
L 271.792816 146.691937 
L 272.924016 140.361823 
L 274.055217 141.293318 
L 275.186417 151.981813 
L 276.317618 154.396959 
L 280.84242 159.152007 
L 281.973621 166.155789 
L 283.104821 163.406069 
L 284.236022 150.740855 
L 287.629623 156.418976 
L 288.760824 166.934439 
L 289.892024 154.867822 
L 291.023225 155.984049 
L 292.154425 163.176537 
L 295.548027 181.523133 
L 296.679227 184.444859 
L 297.810428 165.803247 
L 298.941628 172.438486 
L 300.072829 178.368159 
L 303.46643 178.396141 
L 304.597631 170.258037 
L 305.728831 158.175182 
L 307.991232 147.834271 
L 311.384834 147.935444 
L 312.516034 138.945276 
L 313.647235 144.286307 
L 314.778435 136.36771 
L 315.909636 129.992707 
L 319.303237 129.612732 
L 320.434438 126.501647 
L 321.565638 127.568502 
L 322.696839 137.73913 
L 323.828039 135.309775 
L 327.221641 131.580547 
L 328.352841 137.315942 
L 329.484042 144.0469 
L 330.615242 144.148838 
L 331.746443 144.027986 
L 336.271245 154.750121 
L 337.402445 153.148264 
L 338.533646 160.449439 
L 343.058448 157.32687 
L 344.189648 149.877008 
L 345.320849 147.606544 
L 346.452049 154.813394 
L 347.58325 169.980029 
L 350.976851 168.871754 
L 352.108052 177.195531 
L 353.239252 178.490458 
L 354.370453 161.646843 
L 355.501653 177.461725 
L 358.895255 174.337325 
L 360.026455 170.566381 
L 361.157656 148.507281 
L 362.288857 167.261733 
L 363.420057 166.142777 
L 369.07606 190.918823 
L 370.20726 193.783809 
L 371.338461 186.36413 
L 374.732062 187.733783 
L 375.863263 177.42221 
L 376.994463 196.728138 
L 378.125664 203.266908 
L 379.256864 207.753729 
L 382.650466 194.616931 
L 383.781666 201.075652 
L 384.912867 200.680741 
L 386.044067 190.327055 
L 387.175268 178.49155 
L 391.70007 180.111033 
L 392.83127 183.388139 
L 393.962471 176.095501 
L 395.093671 184.882714 
L 398.487273 179.227859 
L 398.487273 179.227859 
" style="fill:none;stroke:#ff0000;stroke-linecap:square;stroke-opacity:0.9;stroke-width:2;"/>
   </g>
   <g id="line2d_22">
    <path clip-path="url(#pd45184c102)" d="M 73.832727 134.34092 
L 76.095128 129.208259 
L 77.226329 132.129623 
L 78.357529 126.785417 
L 81.751131 123.218692 
L 82.882331 122.538218 
L 84.013532 123.848513 
L 85.144732 122.950247 
L 90.800735 123.421287 
L 91.931935 125.478563 
L 93.063136 127.02973 
L 94.194336 131.654996 
L 97.587938 127.045818 
L 98.719138 134.531169 
L 99.850339 131.060402 
L 100.981539 132.050636 
L 102.11274 136.804949 
L 105.506341 146.470453 
L 106.637542 147.315269 
L 107.768742 143.344167 
L 108.899943 134.999726 
L 110.031143 130.285406 
L 113.424745 125.661795 
L 114.555946 137.392728 
L 115.687146 135.444124 
L 116.818347 139.40922 
L 117.949547 130.896753 
L 121.343149 141.443661 
L 122.474349 132.783542 
L 124.73675 129.300151 
L 125.867951 127.323222 
L 129.261552 130.044453 
L 130.392753 134.481446 
L 131.523953 135.789449 
L 132.655154 125.006114 
L 133.786354 123.844538 
L 137.179956 119.316952 
L 138.311156 113.763219 
L 139.442357 111.611699 
L 140.573557 120.828883 
L 141.704758 128.017578 
L 145.098359 127.372894 
L 146.22956 132.352631 
L 147.36076 133.396113 
L 148.491961 126.892501 
L 149.623161 125.963683 
L 154.147963 121.605766 
L 155.279164 117.585968 
L 156.410364 117.261224 
L 157.541565 113.074043 
L 160.935166 112.283588 
L 162.066367 119.49251 
L 163.197567 123.628008 
L 164.328768 124.279027 
L 165.459968 119.891361 
L 168.85357 118.057221 
L 169.98477 120.590896 
L 171.115971 120.831016 
L 172.247171 122.128046 
L 173.378372 122.454339 
L 176.771973 118.951016 
L 177.903174 114.110659 
L 179.034374 114.934948 
L 181.296775 127.568878 
L 184.690377 120.576763 
L 185.821577 131.017834 
L 186.952778 138.843602 
L 188.083978 132.202136 
L 189.215179 135.783979 
L 192.60878 125.46515 
L 193.739981 115.736575 
L 194.871182 111.303251 
L 196.002382 110.880754 
L 197.133583 109.071578 
L 200.527184 114.178647 
L 201.658385 111.601947 
L 202.789585 108.453957 
L 203.920786 106.393413 
L 205.051986 112.928352 
L 208.445588 120.399606 
L 209.576788 107.553832 
L 210.707989 104.722347 
L 211.839189 99.341211 
L 216.363991 92.181752 
L 217.495192 92.547235 
L 218.626392 92.393263 
L 219.757593 93.12285 
L 220.888793 95.817566 
L 224.282395 86.832529 
L 225.413595 79.660083 
L 226.544796 94.972524 
L 227.675996 88.953389 
L 228.807197 86.941811 
L 232.200798 85.522368 
L 233.331999 80.228323 
L 234.463199 79.091806 
L 235.5944 86.57589 
L 236.7256 84.89274 
L 242.381603 100.37758 
L 243.512803 106.829317 
L 244.644004 120.362803 
L 248.037605 118.924141 
L 249.168806 125.73497 
L 250.300006 125.814809 
L 251.431207 129.601774 
L 252.562407 115.264419 
L 255.956009 103.126303 
L 257.087209 97.311962 
L 258.21841 87.6944 
L 259.34961 127.499385 
L 260.480811 126.989116 
L 263.874412 136.322428 
L 265.005613 137.370702 
L 266.136813 125.569823 
L 267.268014 135.210838 
L 268.399214 147.488702 
L 271.792816 151.030761 
L 272.924016 144.341186 
L 274.055217 147.598044 
L 275.186417 157.625061 
L 276.317618 160.315685 
L 280.84242 165.64629 
L 281.973621 173.129991 
L 283.104821 161.291335 
L 284.236022 151.420724 
L 287.629623 153.327572 
L 288.760824 161.395899 
L 289.892024 150.501807 
L 291.023225 153.307358 
L 292.154425 160.589025 
L 295.548027 183.19562 
L 296.679227 180.630455 
L 297.810428 158.557509 
L 300.072829 175.008136 
L 303.46643 175.259287 
L 304.597631 165.402814 
L 305.728831 147.946079 
L 306.860032 141.919697 
L 307.991232 133.949958 
L 311.384834 136.272755 
L 312.516034 124.100072 
L 313.647235 131.12791 
L 314.778435 122.568902 
L 315.909636 115.88994 
L 319.303237 115.553809 
L 320.434438 111.662342 
L 321.565638 114.236764 
L 322.696839 128.58434 
L 323.828039 127.191797 
L 327.221641 122.237247 
L 328.352841 129.418771 
L 329.484042 137.448501 
L 330.615242 139.908924 
L 331.746443 139.778955 
L 335.140044 148.4464 
L 336.271245 151.66187 
L 337.402445 149.437267 
L 338.533646 159.040299 
L 343.058448 153.651616 
L 344.189648 143.754923 
L 345.320849 147.283688 
L 346.452049 158.806507 
L 347.58325 175.91928 
L 350.976851 173.068093 
L 352.108052 185.810373 
L 353.239252 191.574269 
L 354.370453 163.796094 
L 355.501653 179.730253 
L 358.895255 170.924296 
L 360.026455 165.141753 
L 361.157656 141.758573 
L 362.288857 163.838663 
L 363.420057 166.058201 
L 366.813659 181.417394 
L 367.944859 181.488435 
L 369.07606 190.793937 
L 370.20726 194.241071 
L 371.338461 184.040223 
L 374.732062 187.300469 
L 375.863263 175.918856 
L 376.994463 195.872519 
L 378.125664 201.969677 
L 379.256864 206.401608 
L 382.650466 190.55077 
L 383.781666 204.204635 
L 384.912867 202.354321 
L 387.175268 175.983637 
L 391.70007 176.317637 
L 392.83127 181.058857 
L 393.962471 169.948947 
L 395.093671 183.176341 
L 398.487273 176.730672 
L 398.487273 176.730672 
" style="fill:none;stroke:#ff8040;stroke-linecap:square;stroke-opacity:0.9;stroke-width:2;"/>
   </g>
   <g id="line2d_23">
    <path clip-path="url(#pd45184c102)" d="M 73.832727 134.888029 
L 74.963928 132.896908 
L 76.095128 132.534565 
L 77.226329 136.795839 
L 78.357529 130.042453 
L 81.751131 132.828298 
L 82.882331 133.055739 
L 84.013532 132.708826 
L 85.144732 134.463265 
L 86.275933 133.737112 
L 90.800735 133.551428 
L 93.063136 135.913687 
L 94.194336 140.797463 
L 97.587938 137.572894 
L 98.719138 142.908546 
L 99.850339 139.746315 
L 100.981539 141.064252 
L 102.11274 147.308981 
L 105.506341 157.798018 
L 106.637542 156.88227 
L 107.768742 156.28294 
L 108.899943 150.801466 
L 110.031143 146.426846 
L 113.424745 142.282753 
L 114.555946 155.505136 
L 115.687146 156.073314 
L 116.818347 161.284553 
L 117.949547 154.435515 
L 121.343149 160.643706 
L 122.474349 153.227483 
L 123.60555 151.515895 
L 124.73675 150.485584 
L 125.867951 148.328222 
L 129.261552 151.268983 
L 130.392753 154.396918 
L 131.523953 154.792573 
L 132.655154 142.876688 
L 133.786354 138.592819 
L 137.179956 137.891773 
L 138.311156 131.676573 
L 139.442357 129.826563 
L 140.573557 139.938842 
L 141.704758 146.011386 
L 145.098359 148.087309 
L 146.22956 149.394304 
L 147.36076 153.463766 
L 148.491961 146.523892 
L 149.623161 142.084574 
L 153.016763 142.849935 
L 154.147963 142.391608 
L 155.279164 140.293362 
L 156.410364 139.728735 
L 157.541565 141.595266 
L 160.935166 140.397588 
L 162.066367 144.374962 
L 163.197567 146.020265 
L 164.328768 145.863726 
L 165.459968 141.125174 
L 168.85357 141.101605 
L 169.98477 144.047967 
L 171.115971 144.739079 
L 172.247171 143.526743 
L 173.378372 144.623627 
L 176.771973 143.326594 
L 177.903174 140.427985 
L 179.034374 140.472157 
L 181.296775 155.288066 
L 184.690377 148.385413 
L 185.821577 159.217231 
L 186.952778 168.112354 
L 188.083978 161.067623 
L 189.215179 163.239122 
L 192.60878 156.563673 
L 193.739981 146.845328 
L 194.871182 144.614028 
L 196.002382 144.951495 
L 197.133583 141.112029 
L 200.527184 144.623163 
L 201.658385 145.198775 
L 202.789585 141.506585 
L 203.920786 143.898121 
L 205.051986 151.147324 
L 208.445588 155.379917 
L 209.576788 146.393414 
L 210.707989 144.184079 
L 211.839189 141.144894 
L 216.363991 131.690461 
L 217.495192 132.503886 
L 218.626392 131.459105 
L 220.888793 133.989481 
L 224.282395 131.281104 
L 225.413595 123.752287 
L 226.544796 137.288111 
L 227.675996 137.105203 
L 228.807197 134.748065 
L 232.200798 134.339135 
L 233.331999 130.190554 
L 234.463199 131.081188 
L 235.5944 136.286456 
L 236.7256 137.258074 
L 241.250402 149.288166 
L 243.512803 159.185894 
L 244.644004 171.081671 
L 248.037605 172.382573 
L 249.168806 170.942666 
L 250.300006 173.481906 
L 251.431207 177.716514 
L 252.562407 166.331112 
L 255.956009 160.772844 
L 257.087209 151.617902 
L 258.21841 145.670263 
L 259.34961 182.535002 
L 260.480811 182.723981 
L 263.874412 182.000065 
L 265.005613 178.228667 
L 266.136813 170.887462 
L 267.268014 181.642857 
L 268.399214 190.71698 
L 271.792816 194.544803 
L 272.924016 188.117259 
L 274.055217 189.870893 
L 275.186417 200.350419 
L 276.317618 203.228741 
L 280.84242 206.624586 
L 281.973621 214.124915 
L 283.104821 211.63088 
L 284.236022 201.804607 
L 287.629623 209.420132 
L 288.760824 218.138256 
L 289.892024 208.246954 
L 291.023225 204.567047 
L 295.548027 226.429728 
L 296.679227 229.672436 
L 297.810428 212.226525 
L 298.941628 216.804711 
L 300.072829 223.482713 
L 303.46643 223.122848 
L 304.597631 214.771602 
L 305.728831 203.698023 
L 306.860032 198.557924 
L 307.991232 191.751396 
L 311.384834 193.74966 
L 312.516034 186.145813 
L 313.647235 192.113697 
L 314.778435 184.665555 
L 315.909636 179.760402 
L 319.303237 180.256802 
L 320.434438 175.008346 
L 321.565638 175.141539 
L 322.696839 184.912335 
L 323.828039 182.418465 
L 327.221641 178.494768 
L 328.352841 183.615386 
L 329.484042 191.666475 
L 330.615242 191.611255 
L 331.746443 191.735478 
L 335.140044 200.293572 
L 336.271245 204.47126 
L 337.402445 202.08894 
L 338.533646 209.775048 
L 343.058448 206.394875 
L 344.189648 199.462174 
L 345.320849 203.329962 
L 346.452049 213.231528 
L 347.58325 227.596286 
L 350.976851 223.994699 
L 352.108052 237.138345 
L 353.239252 238.447193 
L 354.370453 220.117541 
L 355.501653 234.966582 
L 358.895255 231.390818 
L 360.026455 227.559679 
L 361.157656 208.837788 
L 362.288857 224.984995 
L 363.420057 222.858371 
L 366.813659 236.187417 
L 367.944859 239.394608 
L 369.07606 245.542319 
L 370.20726 249.521545 
L 371.338461 242.19873 
L 374.732062 244.289378 
L 375.863263 233.703907 
L 376.994463 249.960664 
L 378.125664 256.533209 
L 379.256864 261.49446 
L 382.650466 251.569322 
L 383.781666 265.797818 
L 384.912867 264.713698 
L 386.044067 255.416719 
L 387.175268 247.370819 
L 391.70007 248.579001 
L 392.83127 253.375917 
L 393.962471 249.685655 
L 395.093671 257.094464 
L 398.487273 253.467138 
L 398.487273 253.467138 
" style="fill:none;stroke:#0d0d0d;stroke-linecap:square;stroke-opacity:0.25;stroke-width:2;"/>
   </g>
   <g id="line2d_24">
    <path clip-path="url(#pd45184c102)" d="M 73.832727 133.793812 
L 74.963928 129.439212 
L 76.095128 125.880678 
L 77.226329 128.422835 
L 78.357529 120.652345 
L 81.751131 116.778801 
L 82.882331 114.916655 
L 84.013532 115.13557 
L 85.144732 112.790414 
L 86.275933 112.104307 
L 90.800735 111.504488 
L 91.931935 112.470103 
L 93.063136 113.733651 
L 94.194336 121.545462 
L 97.587938 116.767079 
L 98.719138 121.529203 
L 99.850339 119.767625 
L 100.981539 121.122668 
L 102.11274 127.451068 
L 105.506341 136.695386 
L 106.637542 136.708573 
L 107.768742 130.040372 
L 108.899943 124.328107 
L 110.031143 119.34518 
L 113.424745 116.203355 
L 114.555946 127.939027 
L 115.687146 127.592931 
L 116.818347 133.101573 
L 117.949547 125.088217 
L 121.343149 128.141363 
L 122.474349 120.101449 
L 123.60555 118.012878 
L 124.73675 117.703028 
L 125.867951 114.075664 
L 129.261552 117.108525 
L 130.392753 121.539249 
L 131.523953 121.543255 
L 132.655154 109.032284 
L 133.786354 104.312517 
L 137.179956 100.83171 
L 138.311156 95.34162 
L 139.442357 91.37965 
L 140.573557 93.827927 
L 141.704758 98.730548 
L 145.098359 101.474743 
L 146.22956 106.350938 
L 147.36076 109.853341 
L 148.491961 101.587694 
L 149.623161 100.120122 
L 154.147963 96.608685 
L 155.279164 90.883946 
L 156.410364 93.845571 
L 157.541565 93.153575 
L 160.935166 92.26047 
L 163.197567 100.987893 
L 164.328768 101.227628 
L 165.459968 97.350479 
L 168.85357 94.039353 
L 169.98477 95.438292 
L 171.115971 94.012396 
L 172.247171 93.805235 
L 173.378372 94.275776 
L 176.771973 90.113648 
L 177.903174 84.941953 
L 179.034374 84.282559 
L 181.296775 98.214388 
L 184.690377 88.357457 
L 185.821577 100.329131 
L 186.952778 106.274252 
L 188.083978 102.049301 
L 189.215179 105.063182 
L 192.60878 94.083436 
L 193.739981 83.42367 
L 194.871182 79.694713 
L 196.002382 80.185181 
L 197.133583 76.877534 
L 200.527184 84.869569 
L 201.658385 85.01142 
L 202.789585 79.362702 
L 203.920786 76.363894 
L 205.051986 83.49496 
L 208.445588 91.815292 
L 209.576788 80.127581 
L 210.707989 74.102609 
L 211.839189 67.082394 
L 216.363991 59.96404 
L 217.495192 59.507538 
L 218.626392 60.341175 
L 219.757593 62.038468 
L 220.888793 63.124915 
L 224.282395 56.321332 
L 225.413595 52.154182 
L 226.544796 63.933353 
L 227.675996 59.636781 
L 228.807197 58.202137 
L 232.200798 58.789686 
L 233.331999 54.358122 
L 234.463199 56.399415 
L 235.5944 62.540425 
L 236.7256 60.700782 
L 241.250402 76.133291 
L 242.381603 81.296944 
L 243.512803 87.422041 
L 244.644004 99.043235 
L 248.037605 99.411549 
L 249.168806 103.829668 
L 250.300006 104.143797 
L 251.431207 109.154337 
L 252.562407 94.794187 
L 255.956009 81.667567 
L 257.087209 76.847706 
L 258.21841 66.052287 
L 259.34961 72.335103 
L 260.480811 69.304674 
L 263.874412 78.827873 
L 265.005613 73.49335 
L 266.136813 64.803502 
L 267.268014 75.405914 
L 268.399214 88.177083 
L 271.792816 90.976209 
L 272.924016 81.878029 
L 274.055217 83.626959 
L 275.186417 98.047865 
L 276.317618 102.773764 
L 280.84242 107.630213 
L 281.973621 116.91199 
L 283.104821 110.789025 
L 284.236022 96.826589 
L 287.629623 102.457153 
L 288.760824 112.132207 
L 289.892024 99.945134 
L 291.023225 104.206944 
L 292.154425 110.546686 
L 295.548027 133.825958 
L 296.679227 131.080141 
L 297.810428 105.319152 
L 298.941628 111.720145 
L 300.072829 119.211272 
L 303.46643 118.857347 
L 304.597631 109.800812 
L 305.728831 94.637716 
L 306.860032 89.243258 
L 307.991232 79.561791 
L 311.384834 79.228366 
L 312.516034 68.969591 
L 313.647235 75.534685 
L 314.778435 66.385406 
L 315.909636 59.083047 
L 319.303237 57.952318 
L 320.434438 56.005929 
L 321.565638 56.660663 
L 322.696839 65.194553 
L 323.828039 61.71335 
L 327.221641 58.875624 
L 328.352841 66.110631 
L 329.484042 75.655034 
L 330.615242 75.624635 
L 331.746443 76.34704 
L 335.140044 83.586083 
L 336.271245 87.794797 
L 337.402445 87.128251 
L 338.533646 96.319133 
L 343.058448 94.30108 
L 344.189648 83.866878 
L 345.320849 94.294883 
L 346.452049 102.417517 
L 347.58325 117.57558 
L 350.976851 117.503364 
L 352.108052 124.734257 
L 353.239252 125.228015 
L 354.370453 95.213213 
L 355.501653 113.281032 
L 358.895255 107.142737 
L 360.026455 102.815734 
L 361.157656 71.557057 
L 362.288857 95.004009 
L 363.420057 94.0821 
L 366.813659 111.148995 
L 367.944859 114.999295 
L 370.20726 125.857801 
L 371.338461 115.315397 
L 374.732062 117.833514 
L 375.863263 104.303778 
L 376.994463 128.181453 
L 378.125664 134.292341 
L 379.256864 138.659601 
L 382.650466 123.332487 
L 383.781666 132.307822 
L 384.912867 130.469625 
L 386.044067 119.556233 
L 387.175268 106.800955 
L 391.70007 108.402624 
L 392.83127 113.67035 
L 393.962471 107.037678 
L 395.093671 118.145728 
L 398.487273 110.116032 
L 398.487273 110.116032 
" style="fill:none;stroke:#0d0d0d;stroke-linecap:square;stroke-opacity:0.25;stroke-width:2;"/>
   </g>
   <g id="patch_3">
    <path d="M 57.6 276.48 
L 57.6 41.472 
" style="fill:none;stroke:#000000;stroke-linecap:square;stroke-linejoin:miter;stroke-width:0.8;"/>
   </g>
   <g id="patch_4">
    <path d="M 414.72 276.48 
L 414.72 41.472 
" style="fill:none;stroke:#000000;stroke-linecap:square;stroke-linejoin:miter;stroke-width:0.8;"/>
   </g>
   <g id="patch_5">
    <path d="M 57.6 276.48 
L 414.72 276.48 
" style="fill:none;stroke:#000000;stroke-linecap:square;stroke-linejoin:miter;stroke-width:0.8;"/>
   </g>
   <g id="patch_6">
    <path d="M 57.6 41.472 
L 414.72 41.472 
" style="fill:none;stroke:#000000;stroke-linecap:square;stroke-linejoin:miter;stroke-width:0.8;"/>
   </g>
   <g id="text_21">
    <!-- TESTFUNDS1330 -->
    <g transform="translate(185.200312 22.034625)scale(0.12 -0.12)">
     <defs>
      <path d="M -19 4666 
L 3928 4666 
L 3928 4134 
L 2272 4134 
L 2272 0 
L 1638 0 
L 1638 4134 
L -19 4134 
L -19 4666 
z
" id="DejaVuSans-54" transform="scale(0.015625)"/>
      <path d="M 628 4666 
L 3578 4666 
L 3578 4134 
L 1259 4134 
L 1259 2753 
L 3481 2753 
L 3481 2222 
L 1259 2222 
L 1259 531 
L 3634 531 
L 3634 0 
L 628 0 
L 628 4666 
z
" id="DejaVuSans-45" transform="scale(0.015625)"/>
      <path d="M 3425 4513 
L 3425 3897 
Q 3066 4069 2747 4153 
Q 2428 4238 2131 4238 
Q 1616 4238 1336 4038 
Q 1056 3838 1056 3469 
Q 1056 3159 1242 3001 
Q 1428 2844 1947 2747 
L 2328 2669 
Q 3034 2534 3370 2195 
Q 3706 1856 3706 1288 
Q 3706 609 3251 259 
Q 2797 -91 1919 -91 
Q 1588 -91 1214 -16 
Q 841 59 441 206 
L 441 856 
Q 825 641 1194 531 
Q 1563 422 1919 422 
Q 2459 422 2753 634 
Q 3047 847 3047 1241 
Q 3047 1584 2836 1778 
Q 2625 1972 2144 2069 
L 1759 2144 
Q 1053 2284 737 2584 
Q 422 2884 422 3419 
Q 422 4038 858 4394 
Q 1294 4750 2059 4750 
Q 2388 4750 2728 4690 
Q 3069 4631 3425 4513 
z
" id="DejaVuSans-53" transform="scale(0.015625)"/>
      <path d="M 628 4666 
L 3309 4666 
L 3309 4134 
L 1259 4134 
L 1259 2759 
L 3109 2759 
L 3109 2228 
L 1259 2228 
L 1259 0 
L 628 0 
L 628 4666 
z
" id="DejaVuSans-46" transform="scale(0.015625)"/>
      <path d="M 556 4666 
L 1191 4666 
L 1191 1831 
Q 1191 1081 1462 751 
Q 1734 422 2344 422 
Q 2950 422 3222 751 
Q 3494 1081 3494 1831 
L 3494 4666 
L 4128 4666 
L 4128 1753 
Q 4128 841 3676 375 
Q 3225 -91 2344 -91 
Q 1459 -91 1007 375 
Q 556 841 556 1753 
L 556 4666 
z
" id="DejaVuSans-55" transform="scale(0.015625)"/>
      <path d="M 628 4666 
L 1478 4666 
L 3547 763 
L 3547 4666 
L 4159 4666 
L 4159 0 
L 3309 0 
L 1241 3903 
L 1241 0 
L 628 0 
L 628 4666 
z
" id="DejaVuSans-4e" transform="scale(0.015625)"/>
      <path d="M 1259 4147 
L 1259 519 
L 2022 519 
Q 2988 519 3436 956 
Q 3884 1394 3884 2338 
Q 3884 3275 3436 3711 
Q 2988 4147 2022 4147 
L 1259 4147 
z
M 628 4666 
L 1925 4666 
Q 3281 4666 3915 4102 
Q 4550 3538 4550 2338 
Q 4550 1131 3912 565 
Q 3275 0 1925 0 
L 628 0 
L 628 4666 
z
" id="DejaVuSans-44" transform="scale(0.015625)"/>
     </defs>
     <use xlink:href="#DejaVuSans-54"/>
     <use x="61.083984" xlink:href="#DejaVuSans-45"/>
     <use x="124.267578" xlink:href="#DejaVuSans-53"/>
     <use x="187.744141" xlink:href="#DejaVuSans-54"/>
     <use x="248.828125" xlink:href="#DejaVuSans-46"/>
     <use x="306.347656" xlink:href="#DejaVuSans-55"/>
     <use x="379.541016" xlink:href="#DejaVuSans-4e"/>
     <use x="454.345703" xlink:href="#DejaVuSans-44"/>
     <use x="531.347656" xlink:href="#DejaVuSans-53"/>
     <use x="594.824219" xlink:href="#DejaVuSans-31"/>
     <use x="658.447266" xlink:href="#DejaVuSans-33"/>
     <use x="722.070312" xlink:href="#DejaVuSans-33"/>
     <use x="785.693359" xlink:href="#DejaVuSans-30"/>
    </g>
    <!-- daily_report -->
    <g transform="translate(200.466563 35.472)scale(0.12 -0.12)">
     <defs>
      <path d="M 603 3500 
L 1178 3500 
L 1178 0 
L 603 0 
L 603 3500 
z
M 603 4863 
L 1178 4863 
L 1178 4134 
L 603 4134 
L 603 4863 
z
" id="DejaVuSans-69" transform="scale(0.015625)"/>
      <path d="M 603 4863 
L 1178 4863 
L 1178 0 
L 603 0 
L 603 4863 
z
" id="DejaVuSans-6c" transform="scale(0.015625)"/>
      <path d="M 2059 -325 
Q 1816 -950 1584 -1140 
Q 1353 -1331 966 -1331 
L 506 -1331 
L 506 -850 
L 844 -850 
Q 1081 -850 1212 -737 
Q 1344 -625 1503 -206 
L 1606 56 
L 191 3500 
L 800 3500 
L 1894 763 
L 2988 3500 
L 3597 3500 
L 2059 -325 
z
" id="DejaVuSans-79" transform="scale(0.015625)"/>
      <path d="M 3263 -1063 
L 3263 -1509 
L -63 -1509 
L -63 -1063 
L 3263 -1063 
z
" id="DejaVuSans-5f" transform="scale(0.015625)"/>
      <path d="M 2631 2963 
Q 2534 3019 2420 3045 
Q 2306 3072 2169 3072 
Q 1681 3072 1420 2755 
Q 1159 2438 1159 1844 
L 1159 0 
L 581 0 
L 581 3500 
L 1159 3500 
L 1159 2956 
Q 1341 3275 1631 3429 
Q 1922 3584 2338 3584 
Q 2397 3584 2469 3576 
Q 2541 3569 2628 3553 
L 2631 2963 
z
" id="DejaVuSans-72" transform="scale(0.015625)"/>
      <path d="M 1159 525 
L 1159 -1331 
L 581 -1331 
L 581 3500 
L 1159 3500 
L 1159 2969 
Q 1341 3281 1617 3432 
Q 1894 3584 2278 3584 
Q 2916 3584 3314 3078 
Q 3713 2572 3713 1747 
Q 3713 922 3314 415 
Q 2916 -91 2278 -91 
Q 1894 -91 1617 61 
Q 1341 213 1159 525 
z
M 3116 1747 
Q 3116 2381 2855 2742 
Q 2594 3103 2138 3103 
Q 1681 3103 1420 2742 
Q 1159 2381 1159 1747 
Q 1159 1113 1420 752 
Q 1681 391 2138 391 
Q 2594 391 2855 752 
Q 3116 1113 3116 1747 
z
" id="DejaVuSans-70" transform="scale(0.015625)"/>
      <path d="M 1959 3097 
Q 1497 3097 1228 2736 
Q 959 2375 959 1747 
Q 959 1119 1226 758 
Q 1494 397 1959 397 
Q 2419 397 2687 759 
Q 2956 1122 2956 1747 
Q 2956 2369 2687 2733 
Q 2419 3097 1959 3097 
z
M 1959 3584 
Q 2709 3584 3137 3096 
Q 3566 2609 3566 1747 
Q 3566 888 3137 398 
Q 2709 -91 1959 -91 
Q 1206 -91 779 398 
Q 353 888 353 1747 
Q 353 2609 779 3096 
Q 1206 3584 1959 3584 
z
" id="DejaVuSans-6f" transform="scale(0.015625)"/>
     </defs>
     <use xlink:href="#DejaVuSans-64"/>
     <use x="63.476562" xlink:href="#DejaVuSans-61"/>
     <use x="124.755859" xlink:href="#DejaVuSans-69"/>
     <use x="152.539062" xlink:href="#DejaVuSans-6c"/>
     <use x="180.322266" xlink:href="#DejaVuSans-79"/>
     <use x="239.501953" xlink:href="#DejaVuSans-5f"/>
     <use x="289.501953" xlink:href="#DejaVuSans-72"/>
     <use x="328.365234" xlink:href="#DejaVuSans-65"/>
     <use x="389.888672" xlink:href="#DejaVuSans-70"/>
     <use x="453.365234" xlink:href="#DejaVuSans-6f"/>
     <use x="514.546875" xlink:href="#DejaVuSans-72"/>
     <use x="555.660156" xlink:href="#DejaVuSans-74"/>
    </g>
   </g>
   <g id="legend_1">
    <g id="patch_7">
     <path d="M 64.6 271.48 
L 155.792188 271.48 
Q 157.792188 271.48 157.792188 269.48 
L 157.792188 197.089375 
Q 157.792188 195.089375 155.792188 195.089375 
L 64.6 195.089375 
Q 62.6 195.089375 62.6 197.089375 
L 62.6 269.48 
Q 62.6 271.48 64.6 271.48 
z
" style="fill:#ffffff;opacity:0.8;stroke:#cccccc;stroke-linejoin:miter;"/>
    </g>
    <g id="line2d_25">
     <path d="M 66.6 203.187812 
L 86.6 203.187812 
" style="fill:none;stroke:#0000ff;stroke-linecap:square;stroke-opacity:0.9;stroke-width:2;"/>
    </g>
    <g id="line2d_26"/>
    <g id="text_22">
     <!-- alpaca -->
     <g transform="translate(94.6 206.687812)scale(0.1 -0.1)">
      <defs>
       <path d="M 3122 3366 
L 3122 2828 
Q 2878 2963 2633 3030 
Q 2388 3097 2138 3097 
Q 1578 3097 1268 2742 
Q 959 2388 959 1747 
Q 959 1106 1268 751 
Q 1578 397 2138 397 
Q 2388 397 2633 464 
Q 2878 531 3122 666 
L 3122 134 
Q 2881 22 2623 -34 
Q 2366 -91 2075 -91 
Q 1284 -91 818 406 
Q 353 903 353 1747 
Q 353 2603 823 3093 
Q 1294 3584 2113 3584 
Q 2378 3584 2631 3529 
Q 2884 3475 3122 3366 
z
" id="DejaVuSans-63" transform="scale(0.015625)"/>
      </defs>
      <use xlink:href="#DejaVuSans-61"/>
      <use x="61.279297" xlink:href="#DejaVuSans-6c"/>
      <use x="89.0625" xlink:href="#DejaVuSans-70"/>
      <use x="152.539062" xlink:href="#DejaVuSans-61"/>
      <use x="213.818359" xlink:href="#DejaVuSans-63"/>
      <use x="268.798828" xlink:href="#DejaVuSans-61"/>
     </g>
    </g>
    <g id="line2d_27">
     <path d="M 66.6 217.865937 
L 86.6 217.865937 
" style="fill:none;stroke:#ff0000;stroke-linecap:square;stroke-opacity:0.9;stroke-width:2;"/>
    </g>
    <g id="line2d_28"/>
    <g id="text_23">
     <!-- mattress -->
     <g transform="translate(94.6 221.365937)scale(0.1 -0.1)">
      <defs>
       <path d="M 3328 2828 
Q 3544 3216 3844 3400 
Q 4144 3584 4550 3584 
Q 5097 3584 5394 3201 
Q 5691 2819 5691 2113 
L 5691 0 
L 5113 0 
L 5113 2094 
Q 5113 2597 4934 2840 
Q 4756 3084 4391 3084 
Q 3944 3084 3684 2787 
Q 3425 2491 3425 1978 
L 3425 0 
L 2847 0 
L 2847 2094 
Q 2847 2600 2669 2842 
Q 2491 3084 2119 3084 
Q 1678 3084 1418 2786 
Q 1159 2488 1159 1978 
L 1159 0 
L 581 0 
L 581 3500 
L 1159 3500 
L 1159 2956 
Q 1356 3278 1631 3431 
Q 1906 3584 2284 3584 
Q 2666 3584 2933 3390 
Q 3200 3197 3328 2828 
z
" id="DejaVuSans-6d" transform="scale(0.015625)"/>
       <path d="M 2834 3397 
L 2834 2853 
Q 2591 2978 2328 3040 
Q 2066 3103 1784 3103 
Q 1356 3103 1142 2972 
Q 928 2841 928 2578 
Q 928 2378 1081 2264 
Q 1234 2150 1697 2047 
L 1894 2003 
Q 2506 1872 2764 1633 
Q 3022 1394 3022 966 
Q 3022 478 2636 193 
Q 2250 -91 1575 -91 
Q 1294 -91 989 -36 
Q 684 19 347 128 
L 347 722 
Q 666 556 975 473 
Q 1284 391 1588 391 
Q 1994 391 2212 530 
Q 2431 669 2431 922 
Q 2431 1156 2273 1281 
Q 2116 1406 1581 1522 
L 1381 1569 
Q 847 1681 609 1914 
Q 372 2147 372 2553 
Q 372 3047 722 3315 
Q 1072 3584 1716 3584 
Q 2034 3584 2315 3537 
Q 2597 3491 2834 3397 
z
" id="DejaVuSans-73" transform="scale(0.015625)"/>
      </defs>
      <use xlink:href="#DejaVuSans-6d"/>
      <use x="97.412109" xlink:href="#DejaVuSans-61"/>
      <use x="158.691406" xlink:href="#DejaVuSans-74"/>
      <use x="197.900391" xlink:href="#DejaVuSans-74"/>
      <use x="237.109375" xlink:href="#DejaVuSans-72"/>
      <use x="275.972656" xlink:href="#DejaVuSans-65"/>
      <use x="337.496094" xlink:href="#DejaVuSans-73"/>
      <use x="389.595703" xlink:href="#DejaVuSans-73"/>
     </g>
    </g>
    <g id="line2d_29">
     <path d="M 66.6 232.544062 
L 86.6 232.544062 
" style="fill:none;stroke:#ff8040;stroke-linecap:square;stroke-opacity:0.9;stroke-width:2;"/>
    </g>
    <g id="line2d_30"/>
    <g id="text_24">
     <!-- trader-0850 -->
     <g transform="translate(94.6 236.044062)scale(0.1 -0.1)">
      <use xlink:href="#DejaVuSans-74"/>
      <use x="39.208984" xlink:href="#DejaVuSans-72"/>
      <use x="80.322266" xlink:href="#DejaVuSans-61"/>
      <use x="141.601562" xlink:href="#DejaVuSans-64"/>
      <use x="205.078125" xlink:href="#DejaVuSans-65"/>
      <use x="266.601562" xlink:href="#DejaVuSans-72"/>
      <use x="301.339844" xlink:href="#DejaVuSans-2d"/>
      <use x="337.423828" xlink:href="#DejaVuSans-30"/>
      <use x="401.046875" xlink:href="#DejaVuSans-38"/>
      <use x="464.669922" xlink:href="#DejaVuSans-35"/>
      <use x="528.292969" xlink:href="#DejaVuSans-30"/>
     </g>
    </g>
    <g id="line2d_31">
     <path d="M 66.6 247.222187 
L 86.6 247.222187 
" style="fill:none;stroke:#0d0d0d;stroke-linecap:square;stroke-opacity:0.25;stroke-width:2;"/>
    </g>
    <g id="line2d_32"/>
    <g id="text_25">
     <!-- rando-min -->
     <g transform="translate(94.6 250.722187)scale(0.1 -0.1)">
      <defs>
       <path d="M 3513 2113 
L 3513 0 
L 2938 0 
L 2938 2094 
Q 2938 2591 2744 2837 
Q 2550 3084 2163 3084 
Q 1697 3084 1428 2787 
Q 1159 2491 1159 1978 
L 1159 0 
L 581 0 
L 581 3500 
L 1159 3500 
L 1159 2956 
Q 1366 3272 1645 3428 
Q 1925 3584 2291 3584 
Q 2894 3584 3203 3211 
Q 3513 2838 3513 2113 
z
" id="DejaVuSans-6e" transform="scale(0.015625)"/>
      </defs>
      <use xlink:href="#DejaVuSans-72"/>
      <use x="41.113281" xlink:href="#DejaVuSans-61"/>
      <use x="102.392578" xlink:href="#DejaVuSans-6e"/>
      <use x="165.771484" xlink:href="#DejaVuSans-64"/>
      <use x="229.248047" xlink:href="#DejaVuSans-6f"/>
      <use x="292.304688" xlink:href="#DejaVuSans-2d"/>
      <use x="328.388672" xlink:href="#DejaVuSans-6d"/>
      <use x="425.800781" xlink:href="#DejaVuSans-69"/>
      <use x="453.583984" xlink:href="#DejaVuSans-6e"/>
     </g>
    </g>
    <g id="line2d_33">
     <path d="M 66.6 261.900312 
L 86.6 261.900312 
" style="fill:none;stroke:#0d0d0d;stroke-linecap:square;stroke-opacity:0.25;stroke-width:2;"/>
    </g>
    <g id="line2d_34"/>
    <g id="text_26">
     <!-- rando-max -->
     <g transform="translate(94.6 265.400312)scale(0.1 -0.1)">
      <defs>
       <path d="M 3513 3500 
L 2247 1797 
L 3578 0 
L 2900 0 
L 1881 1375 
L 863 0 
L 184 0 
L 1544 1831 
L 300 3500 
L 978 3500 
L 1906 2253 
L 2834 3500 
L 3513 3500 
z
" id="DejaVuSans-78" transform="scale(0.015625)"/>
      </defs>
      <use xlink:href="#DejaVuSans-72"/>
      <use x="41.113281" xlink:href="#DejaVuSans-61"/>
      <use x="102.392578" xlink:href="#DejaVuSans-6e"/>
      <use x="165.771484" xlink:href="#DejaVuSans-64"/>
      <use x="229.248047" xlink:href="#DejaVuSans-6f"/>
      <use x="292.304688" xlink:href="#DejaVuSans-2d"/>
      <use x="328.388672" xlink:href="#DejaVuSans-6d"/>
      <use x="425.800781" xlink:href="#DejaVuSans-61"/>
      <use x="487.080078" xlink:href="#DejaVuSans-78"/>
     </g>
    </g>
   </g>
  </g>
 </g>
 <defs>
  <clipPath id="pd45184c102">
   <rect height="235.008" width="357.12" x="57.6" y="41.472"/>
  </clipPath>
 </defs>
</svg>
