<?xml version="1.0" encoding="utf-8" standalone="no"?>
<!DOCTYPE svg PUBLIC "-//W3C//DTD SVG 1.1//EN"
  "http://www.w3.org/Graphics/SVG/1.1/DTD/svg11.dtd">
<svg height="345.6pt" version="1.1" viewBox="0 0 460.8 345.6" width="460.8pt" xmlns="http://www.w3.org/2000/svg" xmlns:xlink="http://www.w3.org/1999/xlink">
 <metadata>
  <rdf:RDF xmlns:cc="http://creativecommons.org/ns#" xmlns:dc="http://purl.org/dc/elements/1.1/" xmlns:rdf="http://www.w3.org/1999/02/22-rdf-syntax-ns#">
   <cc:Work>
    <dc:type rdf:resource="http://purl.org/dc/dcmitype/StillImage"/>
    <dc:date>2022-04-07T01:01:28.635787</dc:date>
    <dc:format>image/svg+xml</dc:format>
    <dc:creator>
     <cc:Agent>
      <dc:title>Matplotlib v3.4.3, https://matplotlib.org/</dc:title>
     </cc:Agent>
    </dc:creator>
   </cc:Work>
  </rdf:RDF>
 </metadata>
 <defs>
  <style type="text/css">*{stroke-linecap:butt;stroke-linejoin:round;}</style>
 </defs>
 <g id="figure_1">
  <g id="patch_1">
   <path d="M 0 345.6 
L 460.8 345.6 
L 460.8 0 
L 0 0 
z
" style="fill:#ffffff;"/>
  </g>
  <g id="axes_1">
   <g id="patch_2">
    <path d="M 57.6 276.48 
L 414.72 276.48 
L 414.72 41.472 
L 57.6 41.472 
z
" style="fill:#ffffff;"/>
   </g>
   <g id="matplotlib.axis_1">
    <g id="xtick_1">
     <g id="line2d_1">
      <defs>
       <path d="M 0 0 
L 0 3.5 
" id="m1efcb4517a" style="stroke:#000000;stroke-width:0.8;"/>
      </defs>
      <g>
       <use style="stroke:#000000;stroke-width:0.8;" x="86.761448" xlink:href="#m1efcb4517a" y="276.48"/>
      </g>
     </g>
     <g id="text_1">
      <!-- 2021-09 -->
      <g transform="translate(49.536627 310.951846)rotate(-30)scale(0.1 -0.1)">
       <defs>
        <path d="M 1228 531 
L 3431 531 
L 3431 0 
L 469 0 
L 469 531 
Q 828 903 1448 1529 
Q 2069 2156 2228 2338 
Q 2531 2678 2651 2914 
Q 2772 3150 2772 3378 
Q 2772 3750 2511 3984 
Q 2250 4219 1831 4219 
Q 1534 4219 1204 4116 
Q 875 4013 500 3803 
L 500 4441 
Q 881 4594 1212 4672 
Q 1544 4750 1819 4750 
Q 2544 4750 2975 4387 
Q 3406 4025 3406 3419 
Q 3406 3131 3298 2873 
Q 3191 2616 2906 2266 
Q 2828 2175 2409 1742 
Q 1991 1309 1228 531 
z
" id="DejaVuSans-32" transform="scale(0.015625)"/>
        <path d="M 2034 4250 
Q 1547 4250 1301 3770 
Q 1056 3291 1056 2328 
Q 1056 1369 1301 889 
Q 1547 409 2034 409 
Q 2525 409 2770 889 
Q 3016 1369 3016 2328 
Q 3016 3291 2770 3770 
Q 2525 4250 2034 4250 
z
M 2034 4750 
Q 2819 4750 3233 4129 
Q 3647 3509 3647 2328 
Q 3647 1150 3233 529 
Q 2819 -91 2034 -91 
Q 1250 -91 836 529 
Q 422 1150 422 2328 
Q 422 3509 836 4129 
Q 1250 4750 2034 4750 
z
" id="DejaVuSans-30" transform="scale(0.015625)"/>
        <path d="M 794 531 
L 1825 531 
L 1825 4091 
L 703 3866 
L 703 4441 
L 1819 4666 
L 2450 4666 
L 2450 531 
L 3481 531 
L 3481 0 
L 794 0 
L 794 531 
z
" id="DejaVuSans-31" transform="scale(0.015625)"/>
        <path d="M 313 2009 
L 1997 2009 
L 1997 1497 
L 313 1497 
L 313 2009 
z
" id="DejaVuSans-2d" transform="scale(0.015625)"/>
        <path d="M 703 97 
L 703 672 
Q 941 559 1184 500 
Q 1428 441 1663 441 
Q 2288 441 2617 861 
Q 2947 1281 2994 2138 
Q 2813 1869 2534 1725 
Q 2256 1581 1919 1581 
Q 1219 1581 811 2004 
Q 403 2428 403 3163 
Q 403 3881 828 4315 
Q 1253 4750 1959 4750 
Q 2769 4750 3195 4129 
Q 3622 3509 3622 2328 
Q 3622 1225 3098 567 
Q 2575 -91 1691 -91 
Q 1453 -91 1209 -44 
Q 966 3 703 97 
z
M 1959 2075 
Q 2384 2075 2632 2365 
Q 2881 2656 2881 3163 
Q 2881 3666 2632 3958 
Q 2384 4250 1959 4250 
Q 1534 4250 1286 3958 
Q 1038 3666 1038 3163 
Q 1038 2656 1286 2365 
Q 1534 2075 1959 2075 
z
" id="DejaVuSans-39" transform="scale(0.015625)"/>
       </defs>
       <use xlink:href="#DejaVuSans-32"/>
       <use x="63.623047" xlink:href="#DejaVuSans-30"/>
       <use x="127.246094" xlink:href="#DejaVuSans-32"/>
       <use x="190.869141" xlink:href="#DejaVuSans-31"/>
       <use x="254.492188" xlink:href="#DejaVuSans-2d"/>
       <use x="290.576172" xlink:href="#DejaVuSans-30"/>
       <use x="354.199219" xlink:href="#DejaVuSans-39"/>
      </g>
     </g>
    </g>
    <g id="xtick_2">
     <g id="line2d_2">
      <g>
       <use style="stroke:#000000;stroke-width:0.8;" x="129.857184" xlink:href="#m1efcb4517a" y="276.48"/>
      </g>
     </g>
     <g id="text_2">
      <!-- 2021-10 -->
      <g transform="translate(92.632363 310.951846)rotate(-30)scale(0.1 -0.1)">
       <use xlink:href="#DejaVuSans-32"/>
       <use x="63.623047" xlink:href="#DejaVuSans-30"/>
       <use x="127.246094" xlink:href="#DejaVuSans-32"/>
       <use x="190.869141" xlink:href="#DejaVuSans-31"/>
       <use x="254.492188" xlink:href="#DejaVuSans-2d"/>
       <use x="290.576172" xlink:href="#DejaVuSans-31"/>
       <use x="354.199219" xlink:href="#DejaVuSans-30"/>
      </g>
     </g>
    </g>
    <g id="xtick_3">
     <g id="line2d_3">
      <g>
       <use style="stroke:#000000;stroke-width:0.8;" x="174.389445" xlink:href="#m1efcb4517a" y="276.48"/>
      </g>
     </g>
     <g id="text_3">
      <!-- 2021-11 -->
      <g transform="translate(137.164624 310.951846)rotate(-30)scale(0.1 -0.1)">
       <use xlink:href="#DejaVuSans-32"/>
       <use x="63.623047" xlink:href="#DejaVuSans-30"/>
       <use x="127.246094" xlink:href="#DejaVuSans-32"/>
       <use x="190.869141" xlink:href="#DejaVuSans-31"/>
       <use x="254.492188" xlink:href="#DejaVuSans-2d"/>
       <use x="290.576172" xlink:href="#DejaVuSans-31"/>
       <use x="354.199219" xlink:href="#DejaVuSans-31"/>
      </g>
     </g>
    </g>
    <g id="xtick_4">
     <g id="line2d_4">
      <g>
       <use style="stroke:#000000;stroke-width:0.8;" x="217.485181" xlink:href="#m1efcb4517a" y="276.48"/>
      </g>
     </g>
     <g id="text_4">
      <!-- 2021-12 -->
      <g transform="translate(180.26036 310.951846)rotate(-30)scale(0.1 -0.1)">
       <use xlink:href="#DejaVuSans-32"/>
       <use x="63.623047" xlink:href="#DejaVuSans-30"/>
       <use x="127.246094" xlink:href="#DejaVuSans-32"/>
       <use x="190.869141" xlink:href="#DejaVuSans-31"/>
       <use x="254.492188" xlink:href="#DejaVuSans-2d"/>
       <use x="290.576172" xlink:href="#DejaVuSans-31"/>
       <use x="354.199219" xlink:href="#DejaVuSans-32"/>
      </g>
     </g>
    </g>
    <g id="xtick_5">
     <g id="line2d_5">
      <g>
       <use style="stroke:#000000;stroke-width:0.8;" x="262.017442" xlink:href="#m1efcb4517a" y="276.48"/>
      </g>
     </g>
     <g id="text_5">
      <!-- 2022-01 -->
      <g transform="translate(224.792621 310.951846)rotate(-30)scale(0.1 -0.1)">
       <use xlink:href="#DejaVuSans-32"/>
       <use x="63.623047" xlink:href="#DejaVuSans-30"/>
       <use x="127.246094" xlink:href="#DejaVuSans-32"/>
       <use x="190.869141" xlink:href="#DejaVuSans-32"/>
       <use x="254.492188" xlink:href="#DejaVuSans-2d"/>
       <use x="290.576172" xlink:href="#DejaVuSans-30"/>
       <use x="354.199219" xlink:href="#DejaVuSans-31"/>
      </g>
     </g>
    </g>
    <g id="xtick_6">
     <g id="line2d_6">
      <g>
       <use style="stroke:#000000;stroke-width:0.8;" x="306.549702" xlink:href="#m1efcb4517a" y="276.48"/>
      </g>
     </g>
     <g id="text_6">
      <!-- 2022-02 -->
      <g transform="translate(269.324882 310.951846)rotate(-30)scale(0.1 -0.1)">
       <use xlink:href="#DejaVuSans-32"/>
       <use x="63.623047" xlink:href="#DejaVuSans-30"/>
       <use x="127.246094" xlink:href="#DejaVuSans-32"/>
       <use x="190.869141" xlink:href="#DejaVuSans-32"/>
       <use x="254.492188" xlink:href="#DejaVuSans-2d"/>
       <use x="290.576172" xlink:href="#DejaVuSans-30"/>
       <use x="354.199219" xlink:href="#DejaVuSans-32"/>
      </g>
     </g>
    </g>
    <g id="xtick_7">
     <g id="line2d_7">
      <g>
       <use style="stroke:#000000;stroke-width:0.8;" x="346.772389" xlink:href="#m1efcb4517a" y="276.48"/>
      </g>
     </g>
     <g id="text_7">
      <!-- 2022-03 -->
      <g transform="translate(309.547569 310.951846)rotate(-30)scale(0.1 -0.1)">
       <defs>
        <path d="M 2597 2516 
Q 3050 2419 3304 2112 
Q 3559 1806 3559 1356 
Q 3559 666 3084 287 
Q 2609 -91 1734 -91 
Q 1441 -91 1130 -33 
Q 819 25 488 141 
L 488 750 
Q 750 597 1062 519 
Q 1375 441 1716 441 
Q 2309 441 2620 675 
Q 2931 909 2931 1356 
Q 2931 1769 2642 2001 
Q 2353 2234 1838 2234 
L 1294 2234 
L 1294 2753 
L 1863 2753 
Q 2328 2753 2575 2939 
Q 2822 3125 2822 3475 
Q 2822 3834 2567 4026 
Q 2313 4219 1838 4219 
Q 1578 4219 1281 4162 
Q 984 4106 628 3988 
L 628 4550 
Q 988 4650 1302 4700 
Q 1616 4750 1894 4750 
Q 2613 4750 3031 4423 
Q 3450 4097 3450 3541 
Q 3450 3153 3228 2886 
Q 3006 2619 2597 2516 
z
" id="DejaVuSans-33" transform="scale(0.015625)"/>
       </defs>
       <use xlink:href="#DejaVuSans-32"/>
       <use x="63.623047" xlink:href="#DejaVuSans-30"/>
       <use x="127.246094" xlink:href="#DejaVuSans-32"/>
       <use x="190.869141" xlink:href="#DejaVuSans-32"/>
       <use x="254.492188" xlink:href="#DejaVuSans-2d"/>
       <use x="290.576172" xlink:href="#DejaVuSans-30"/>
       <use x="354.199219" xlink:href="#DejaVuSans-33"/>
      </g>
     </g>
    </g>
    <g id="xtick_8">
     <g id="line2d_8">
      <g>
       <use style="stroke:#000000;stroke-width:0.8;" x="391.30465" xlink:href="#m1efcb4517a" y="276.48"/>
      </g>
     </g>
     <g id="text_8">
      <!-- 2022-04 -->
      <g transform="translate(354.079829 310.951846)rotate(-30)scale(0.1 -0.1)">
       <defs>
        <path d="M 2419 4116 
L 825 1625 
L 2419 1625 
L 2419 4116 
z
M 2253 4666 
L 3047 4666 
L 3047 1625 
L 3713 1625 
L 3713 1100 
L 3047 1100 
L 3047 0 
L 2419 0 
L 2419 1100 
L 313 1100 
L 313 1709 
L 2253 4666 
z
" id="DejaVuSans-34" transform="scale(0.015625)"/>
       </defs>
       <use xlink:href="#DejaVuSans-32"/>
       <use x="63.623047" xlink:href="#DejaVuSans-30"/>
       <use x="127.246094" xlink:href="#DejaVuSans-32"/>
       <use x="190.869141" xlink:href="#DejaVuSans-32"/>
       <use x="254.492188" xlink:href="#DejaVuSans-2d"/>
       <use x="290.576172" xlink:href="#DejaVuSans-30"/>
       <use x="354.199219" xlink:href="#DejaVuSans-34"/>
      </g>
     </g>
    </g>
    <g id="text_9">
     <!-- date -->
     <g transform="translate(224.885 324.351346)scale(0.1 -0.1)">
      <defs>
       <path d="M 2906 2969 
L 2906 4863 
L 3481 4863 
L 3481 0 
L 2906 0 
L 2906 525 
Q 2725 213 2448 61 
Q 2172 -91 1784 -91 
Q 1150 -91 751 415 
Q 353 922 353 1747 
Q 353 2572 751 3078 
Q 1150 3584 1784 3584 
Q 2172 3584 2448 3432 
Q 2725 3281 2906 2969 
z
M 947 1747 
Q 947 1113 1208 752 
Q 1469 391 1925 391 
Q 2381 391 2643 752 
Q 2906 1113 2906 1747 
Q 2906 2381 2643 2742 
Q 2381 3103 1925 3103 
Q 1469 3103 1208 2742 
Q 947 2381 947 1747 
z
" id="DejaVuSans-64" transform="scale(0.015625)"/>
       <path d="M 2194 1759 
Q 1497 1759 1228 1600 
Q 959 1441 959 1056 
Q 959 750 1161 570 
Q 1363 391 1709 391 
Q 2188 391 2477 730 
Q 2766 1069 2766 1631 
L 2766 1759 
L 2194 1759 
z
M 3341 1997 
L 3341 0 
L 2766 0 
L 2766 531 
Q 2569 213 2275 61 
Q 1981 -91 1556 -91 
Q 1019 -91 701 211 
Q 384 513 384 1019 
Q 384 1609 779 1909 
Q 1175 2209 1959 2209 
L 2766 2209 
L 2766 2266 
Q 2766 2663 2505 2880 
Q 2244 3097 1772 3097 
Q 1472 3097 1187 3025 
Q 903 2953 641 2809 
L 641 3341 
Q 956 3463 1253 3523 
Q 1550 3584 1831 3584 
Q 2591 3584 2966 3190 
Q 3341 2797 3341 1997 
z
" id="DejaVuSans-61" transform="scale(0.015625)"/>
       <path d="M 1172 4494 
L 1172 3500 
L 2356 3500 
L 2356 3053 
L 1172 3053 
L 1172 1153 
Q 1172 725 1289 603 
Q 1406 481 1766 481 
L 2356 481 
L 2356 0 
L 1766 0 
Q 1100 0 847 248 
Q 594 497 594 1153 
L 594 3053 
L 172 3053 
L 172 3500 
L 594 3500 
L 594 4494 
L 1172 4494 
z
" id="DejaVuSans-74" transform="scale(0.015625)"/>
       <path d="M 3597 1894 
L 3597 1613 
L 953 1613 
Q 991 1019 1311 708 
Q 1631 397 2203 397 
Q 2534 397 2845 478 
Q 3156 559 3463 722 
L 3463 178 
Q 3153 47 2828 -22 
Q 2503 -91 2169 -91 
Q 1331 -91 842 396 
Q 353 884 353 1716 
Q 353 2575 817 3079 
Q 1281 3584 2069 3584 
Q 2775 3584 3186 3129 
Q 3597 2675 3597 1894 
z
M 3022 2063 
Q 3016 2534 2758 2815 
Q 2500 3097 2075 3097 
Q 1594 3097 1305 2825 
Q 1016 2553 972 2059 
L 3022 2063 
z
" id="DejaVuSans-65" transform="scale(0.015625)"/>
      </defs>
      <use xlink:href="#DejaVuSans-64"/>
      <use x="63.476562" xlink:href="#DejaVuSans-61"/>
      <use x="124.755859" xlink:href="#DejaVuSans-74"/>
      <use x="163.964844" xlink:href="#DejaVuSans-65"/>
     </g>
    </g>
   </g>
   <g id="matplotlib.axis_2">
    <g id="ytick_1">
     <g id="line2d_9">
      <defs>
       <path d="M 0 0 
L -3.5 0 
" id="m8980819c7a" style="stroke:#000000;stroke-width:0.8;"/>
      </defs>
      <g>
       <use style="stroke:#000000;stroke-width:0.8;" x="57.6" xlink:href="#m8980819c7a" y="260.364019"/>
      </g>
     </g>
     <g id="text_10">
      <!-- 80000 -->
      <g transform="translate(18.7875 264.163238)scale(0.1 -0.1)">
       <defs>
        <path d="M 2034 2216 
Q 1584 2216 1326 1975 
Q 1069 1734 1069 1313 
Q 1069 891 1326 650 
Q 1584 409 2034 409 
Q 2484 409 2743 651 
Q 3003 894 3003 1313 
Q 3003 1734 2745 1975 
Q 2488 2216 2034 2216 
z
M 1403 2484 
Q 997 2584 770 2862 
Q 544 3141 544 3541 
Q 544 4100 942 4425 
Q 1341 4750 2034 4750 
Q 2731 4750 3128 4425 
Q 3525 4100 3525 3541 
Q 3525 3141 3298 2862 
Q 3072 2584 2669 2484 
Q 3125 2378 3379 2068 
Q 3634 1759 3634 1313 
Q 3634 634 3220 271 
Q 2806 -91 2034 -91 
Q 1263 -91 848 271 
Q 434 634 434 1313 
Q 434 1759 690 2068 
Q 947 2378 1403 2484 
z
M 1172 3481 
Q 1172 3119 1398 2916 
Q 1625 2713 2034 2713 
Q 2441 2713 2670 2916 
Q 2900 3119 2900 3481 
Q 2900 3844 2670 4047 
Q 2441 4250 2034 4250 
Q 1625 4250 1398 4047 
Q 1172 3844 1172 3481 
z
" id="DejaVuSans-38" transform="scale(0.015625)"/>
       </defs>
       <use xlink:href="#DejaVuSans-38"/>
       <use x="63.623047" xlink:href="#DejaVuSans-30"/>
       <use x="127.246094" xlink:href="#DejaVuSans-30"/>
       <use x="190.869141" xlink:href="#DejaVuSans-30"/>
       <use x="254.492188" xlink:href="#DejaVuSans-30"/>
      </g>
     </g>
    </g>
    <g id="ytick_2">
     <g id="line2d_10">
      <g>
       <use style="stroke:#000000;stroke-width:0.8;" x="57.6" xlink:href="#m8980819c7a" y="230.594701"/>
      </g>
     </g>
     <g id="text_11">
      <!-- 85000 -->
      <g transform="translate(18.7875 234.39392)scale(0.1 -0.1)">
       <defs>
        <path d="M 691 4666 
L 3169 4666 
L 3169 4134 
L 1269 4134 
L 1269 2991 
Q 1406 3038 1543 3061 
Q 1681 3084 1819 3084 
Q 2600 3084 3056 2656 
Q 3513 2228 3513 1497 
Q 3513 744 3044 326 
Q 2575 -91 1722 -91 
Q 1428 -91 1123 -41 
Q 819 9 494 109 
L 494 744 
Q 775 591 1075 516 
Q 1375 441 1709 441 
Q 2250 441 2565 725 
Q 2881 1009 2881 1497 
Q 2881 1984 2565 2268 
Q 2250 2553 1709 2553 
Q 1456 2553 1204 2497 
Q 953 2441 691 2322 
L 691 4666 
z
" id="DejaVuSans-35" transform="scale(0.015625)"/>
       </defs>
       <use xlink:href="#DejaVuSans-38"/>
       <use x="63.623047" xlink:href="#DejaVuSans-35"/>
       <use x="127.246094" xlink:href="#DejaVuSans-30"/>
       <use x="190.869141" xlink:href="#DejaVuSans-30"/>
       <use x="254.492188" xlink:href="#DejaVuSans-30"/>
      </g>
     </g>
    </g>
    <g id="ytick_3">
     <g id="line2d_11">
      <g>
       <use style="stroke:#000000;stroke-width:0.8;" x="57.6" xlink:href="#m8980819c7a" y="200.825382"/>
      </g>
     </g>
     <g id="text_12">
      <!-- 90000 -->
      <g transform="translate(18.7875 204.624601)scale(0.1 -0.1)">
       <use xlink:href="#DejaVuSans-39"/>
       <use x="63.623047" xlink:href="#DejaVuSans-30"/>
       <use x="127.246094" xlink:href="#DejaVuSans-30"/>
       <use x="190.869141" xlink:href="#DejaVuSans-30"/>
       <use x="254.492188" xlink:href="#DejaVuSans-30"/>
      </g>
     </g>
    </g>
    <g id="ytick_4">
     <g id="line2d_12">
      <g>
       <use style="stroke:#000000;stroke-width:0.8;" x="57.6" xlink:href="#m8980819c7a" y="171.056064"/>
      </g>
     </g>
     <g id="text_13">
      <!-- 95000 -->
      <g transform="translate(18.7875 174.855283)scale(0.1 -0.1)">
       <use xlink:href="#DejaVuSans-39"/>
       <use x="63.623047" xlink:href="#DejaVuSans-35"/>
       <use x="127.246094" xlink:href="#DejaVuSans-30"/>
       <use x="190.869141" xlink:href="#DejaVuSans-30"/>
       <use x="254.492188" xlink:href="#DejaVuSans-30"/>
      </g>
     </g>
    </g>
    <g id="ytick_5">
     <g id="line2d_13">
      <g>
       <use style="stroke:#000000;stroke-width:0.8;" x="57.6" xlink:href="#m8980819c7a" y="141.286745"/>
      </g>
     </g>
     <g id="text_14">
      <!-- 100000 -->
      <g transform="translate(12.425 145.085964)scale(0.1 -0.1)">
       <use xlink:href="#DejaVuSans-31"/>
       <use x="63.623047" xlink:href="#DejaVuSans-30"/>
       <use x="127.246094" xlink:href="#DejaVuSans-30"/>
       <use x="190.869141" xlink:href="#DejaVuSans-30"/>
       <use x="254.492188" xlink:href="#DejaVuSans-30"/>
       <use x="318.115234" xlink:href="#DejaVuSans-30"/>
      </g>
     </g>
    </g>
    <g id="ytick_6">
     <g id="line2d_14">
      <g>
       <use style="stroke:#000000;stroke-width:0.8;" x="57.6" xlink:href="#m8980819c7a" y="111.517427"/>
      </g>
     </g>
     <g id="text_15">
      <!-- 105000 -->
      <g transform="translate(12.425 115.316645)scale(0.1 -0.1)">
       <use xlink:href="#DejaVuSans-31"/>
       <use x="63.623047" xlink:href="#DejaVuSans-30"/>
       <use x="127.246094" xlink:href="#DejaVuSans-35"/>
       <use x="190.869141" xlink:href="#DejaVuSans-30"/>
       <use x="254.492188" xlink:href="#DejaVuSans-30"/>
       <use x="318.115234" xlink:href="#DejaVuSans-30"/>
      </g>
     </g>
    </g>
    <g id="ytick_7">
     <g id="line2d_15">
      <g>
       <use style="stroke:#000000;stroke-width:0.8;" x="57.6" xlink:href="#m8980819c7a" y="81.748108"/>
      </g>
     </g>
     <g id="text_16">
      <!-- 110000 -->
      <g transform="translate(12.425 85.547327)scale(0.1 -0.1)">
       <use xlink:href="#DejaVuSans-31"/>
       <use x="63.623047" xlink:href="#DejaVuSans-31"/>
       <use x="127.246094" xlink:href="#DejaVuSans-30"/>
       <use x="190.869141" xlink:href="#DejaVuSans-30"/>
       <use x="254.492188" xlink:href="#DejaVuSans-30"/>
       <use x="318.115234" xlink:href="#DejaVuSans-30"/>
      </g>
     </g>
    </g>
    <g id="ytick_8">
     <g id="line2d_16">
      <g>
       <use style="stroke:#000000;stroke-width:0.8;" x="57.6" xlink:href="#m8980819c7a" y="51.97879"/>
      </g>
     </g>
     <g id="text_17">
      <!-- 115000 -->
      <g transform="translate(12.425 55.778008)scale(0.1 -0.1)">
       <use xlink:href="#DejaVuSans-31"/>
       <use x="63.623047" xlink:href="#DejaVuSans-31"/>
       <use x="127.246094" xlink:href="#DejaVuSans-35"/>
       <use x="190.869141" xlink:href="#DejaVuSans-30"/>
       <use x="254.492188" xlink:href="#DejaVuSans-30"/>
       <use x="318.115234" xlink:href="#DejaVuSans-30"/>
      </g>
     </g>
    </g>
   </g>
   <g id="line2d_17">
    <path clip-path="url(#p4fd1a1960c)" d="M 73.832727 141.286745 
L 75.269252 142.038775 
L 76.705776 139.712167 
L 78.142301 142.443875 
L 79.578825 137.356486 
L 85.324924 132.275608 
L 86.761448 133.635829 
L 88.197973 133.333989 
L 89.634497 133.497566 
L 95.380595 133.505395 
L 96.81712 135.727224 
L 98.253644 137.333601 
L 99.690169 142.89849 
L 103.999743 138.256445 
L 105.436267 146.58232 
L 106.872792 142.3975 
L 108.309316 143.028605 
L 109.745841 148.921378 
L 114.055414 159.085839 
L 115.491939 160.89667 
L 116.928463 156.47193 
L 118.364988 146.77898 
L 119.801512 141.881477 
L 124.111086 137.171565 
L 125.547611 150.139193 
L 126.984135 147.930081 
L 128.42066 152.695078 
L 129.857184 143.695763 
L 134.166758 155.008016 
L 135.603282 146.105185 
L 137.039807 143.401392 
L 138.476331 143.184271 
L 139.912856 142.50359 
L 144.22243 142.213537 
L 145.658954 141.404789 
L 147.095479 149.155952 
L 148.532003 137.57798 
L 149.968528 136.540805 
L 154.278101 131.592617 
L 155.714626 125.570429 
L 157.15115 123.423982 
L 158.587675 133.997112 
L 160.0242 141.420576 
L 164.333773 140.60278 
L 165.770298 145.954762 
L 167.206822 147.330671 
L 168.643347 139.494938 
L 170.079871 147.692926 
L 174.389445 135.281499 
L 175.825969 135.843206 
L 177.262494 129.754288 
L 178.699019 136.829503 
L 180.135543 132.516992 
L 184.445117 132.546332 
L 185.881641 139.863685 
L 187.318166 139.669069 
L 188.75469 144.556033 
L 190.191215 139.760593 
L 194.500788 137.974045 
L 195.937313 138.071238 
L 197.373837 141.295333 
L 198.810362 143.114469 
L 200.246887 143.19507 
L 204.55646 139.970895 
L 205.992985 134.917638 
L 207.429509 134.801865 
L 210.302558 135.143971 
L 214.612132 140.011337 
L 216.048656 152.053762 
L 217.485181 159.84423 
L 218.921706 152.505483 
L 220.35823 156.361703 
L 224.667804 145.49089 
L 226.104328 134.583636 
L 227.540853 129.987682 
L 228.977377 129.748043 
L 230.413902 127.566756 
L 234.723475 133.75247 
L 236.16 130.606906 
L 237.596525 126.859202 
L 239.033049 124.448491 
L 240.469574 132.013908 
L 244.779147 139.930691 
L 246.215672 125.891459 
L 247.652196 123.414118 
L 249.088721 117.65869 
L 254.834819 109.805569 
L 256.271344 110.448294 
L 257.707868 110.18541 
L 259.144393 111.127256 
L 260.580917 113.760507 
L 264.890491 104.589512 
L 266.327015 96.728224 
L 267.76354 113.019175 
L 269.200064 108.04819 
L 270.636589 105.609219 
L 274.946163 105.386638 
L 276.382687 99.979386 
L 277.819212 98.743032 
L 279.255736 106.260525 
L 280.692261 104.898516 
L 286.438359 117.93451 
L 287.874883 121.504288 
L 289.311408 128.249954 
L 290.747932 142.443947 
L 295.057506 141.294606 
L 296.494031 148.123573 
L 297.930555 148.423517 
L 299.36708 152.094887 
L 300.803604 137.004849 
L 305.113178 124.188891 
L 306.549702 118.210679 
L 307.986227 109.088826 
L 309.422751 148.787693 
L 310.859276 147.440953 
L 315.16885 157.865493 
L 316.605374 159.369817 
L 318.041899 146.223509 
L 319.478423 156.79935 
L 320.914948 169.527116 
L 325.224521 174.189675 
L 326.661046 166.909907 
L 328.09757 169.849805 
L 329.534095 180.405107 
L 330.970619 183.623604 
L 336.716718 189.70779 
L 338.153242 197.938931 
L 339.589767 185.292456 
L 341.026291 175.216205 
L 345.335865 177.045485 
L 346.772389 186.094513 
L 348.208914 174.297461 
L 349.645438 176.972726 
L 351.081963 181.432123 
L 355.391537 204.114274 
L 356.828061 204.397018 
L 358.264586 181.894573 
L 359.70111 188.991768 
L 361.137635 198.826926 
L 365.447208 201.17557 
L 366.883733 190.028987 
L 368.320257 172.807652 
L 369.756782 166.040234 
L 371.193307 155.864319 
L 375.50288 158.729021 
L 376.939405 147.474066 
L 378.375929 153.514699 
L 379.812454 143.28316 
L 381.248978 137.756872 
L 385.558552 135.905354 
L 386.995076 130.235703 
L 388.431601 132.610699 
L 389.868126 145.930763 
L 391.30465 143.659078 
L 395.614224 136.083717 
L 397.050748 142.915175 
L 398.487273 162.910948 
L 398.487273 162.910948 
" style="fill:none;stroke:#0000ff;stroke-linecap:square;stroke-opacity:0.9;stroke-width:2;"/>
   </g>
   <g id="line2d_18">
    <path clip-path="url(#p4fd1a1960c)" d="M 73.832727 141.286745 
L 75.269252 137.934944 
L 76.705776 135.33766 
L 78.142301 139.181423 
L 79.578825 131.582644 
L 83.888399 130.005349 
L 85.324924 129.041544 
L 86.761448 128.982797 
L 88.197973 129.983882 
L 89.634497 129.541289 
L 95.380595 128.697438 
L 96.81712 131.184372 
L 98.253644 132.418114 
L 99.690169 138.320318 
L 103.999743 134.070666 
L 105.436267 139.724723 
L 106.872792 137.282055 
L 108.309316 138.964357 
L 109.745841 146.314 
L 114.055414 156.281489 
L 115.491939 156.397912 
L 116.928463 152.888391 
L 118.364988 145.427118 
L 119.801512 141.008952 
L 124.111086 137.165305 
L 125.547611 148.814967 
L 126.984135 147.797627 
L 128.42066 153.486931 
L 129.857184 145.334102 
L 134.166758 151.830983 
L 135.603282 143.111678 
L 137.039807 141.381911 
L 138.476331 139.870144 
L 139.912856 136.885712 
L 144.22243 140.531976 
L 145.658954 145.056424 
L 147.095479 147.17917 
L 148.532003 132.405587 
L 149.968528 128.454821 
L 154.278101 126.786161 
L 155.714626 121.711378 
L 157.15115 118.291214 
L 158.587675 126.215368 
L 160.0242 129.198808 
L 164.333773 130.8427 
L 165.770298 134.544053 
L 167.206822 137.542249 
L 168.643347 129.566398 
L 170.079871 128.092711 
L 174.389445 127.842256 
L 175.825969 125.666796 
L 177.262494 121.21015 
L 178.699019 122.58201 
L 180.135543 122.417405 
L 184.445117 121.76855 
L 185.881641 126.188067 
L 187.318166 129.24261 
L 188.75469 129.584396 
L 190.191215 125.47515 
L 194.500788 123.708663 
L 195.937313 125.403885 
L 197.373837 125.637205 
L 198.810362 125.71538 
L 200.246887 127.854135 
L 204.55646 125.661414 
L 205.992985 119.637871 
L 207.429509 119.266881 
L 210.302558 134.797568 
L 214.612132 128.283938 
L 216.048656 141.247781 
L 217.485181 148.237911 
L 218.921706 139.725116 
L 220.35823 144.550774 
L 224.667804 135.782261 
L 226.104328 125.289677 
L 227.540853 121.793458 
L 228.977377 122.568077 
L 230.413902 118.656017 
L 234.723475 124.823541 
L 236.16 124.434245 
L 237.596525 119.537556 
L 239.033049 119.283841 
L 240.469574 127.307997 
L 244.779147 134.421852 
L 246.215672 122.590429 
L 247.652196 119.422015 
L 249.088721 114.204949 
L 254.834819 106.242805 
L 256.271344 106.612959 
L 257.707868 106.178144 
L 259.144393 106.701122 
L 260.580917 109.077647 
L 264.890491 102.302992 
L 266.327015 96.344057 
L 267.76354 110.339669 
L 269.200064 107.710458 
L 270.636589 104.396857 
L 274.946163 104.852905 
L 276.382687 101.416594 
L 277.819212 101.341651 
L 279.255736 105.698007 
L 280.692261 106.424766 
L 286.438359 119.825808 
L 287.874883 126.1819 
L 289.311408 131.685758 
L 290.747932 144.47154 
L 295.057506 144.954975 
L 296.494031 143.648737 
L 297.930555 144.933314 
L 299.36708 149.928562 
L 300.803604 135.480344 
L 305.113178 125.964983 
L 306.549702 118.719061 
L 307.986227 109.129397 
L 309.422751 137.241794 
L 310.859276 132.402049 
L 315.16885 136.268114 
L 316.605374 131.850687 
L 318.041899 126.231854 
L 319.478423 136.424262 
L 320.914948 149.223872 
L 325.224521 154.319753 
L 326.661046 147.519087 
L 328.09757 148.717818 
L 329.534095 160.29821 
L 330.970619 163.12341 
L 336.716718 168.23286 
L 338.153242 175.921902 
L 339.589767 173.105853 
L 341.026291 159.644565 
L 345.335865 165.110116 
L 346.772389 177.037955 
L 348.208914 163.636673 
L 349.645438 164.834916 
L 351.081963 172.895769 
L 355.391537 192.522268 
L 356.828061 195.392834 
L 358.264586 175.391998 
L 361.137635 189.152084 
L 365.447208 189.21744 
L 366.883733 179.942474 
L 368.320257 167.428888 
L 371.193307 156.326532 
L 375.50288 155.984844 
L 376.939405 145.910633 
L 378.375929 151.942072 
L 379.812454 143.08748 
L 381.248978 136.604572 
L 385.558552 135.94829 
L 386.995076 133.193664 
L 388.431601 133.733117 
L 389.868126 145.400381 
L 391.30465 142.254378 
L 395.614224 138.666331 
L 397.050748 144.439507 
L 398.487273 151.586914 
L 398.487273 151.586914 
" style="fill:none;stroke:#ff0000;stroke-linecap:square;stroke-opacity:0.9;stroke-width:2;"/>
   </g>
   <g id="line2d_19">
    <path clip-path="url(#p4fd1a1960c)" d="M 73.832727 141.286745 
L 75.269252 137.935246 
L 76.705776 135.750189 
L 78.142301 138.826099 
L 79.578825 133.615191 
L 85.324924 128.200624 
L 86.761448 130.014093 
L 88.197973 128.771138 
L 89.634497 129.162218 
L 95.380595 129.488942 
L 98.253644 133.192151 
L 99.690169 138.254631 
L 103.999743 133.555775 
L 105.436267 142.039489 
L 106.872792 137.626003 
L 108.309316 138.650333 
L 109.745841 144.299692 
L 114.055414 154.073675 
L 115.491939 155.91215 
L 116.928463 151.336218 
L 118.364988 141.683461 
L 119.801512 137.00289 
L 124.111086 131.603951 
L 125.547611 144.220958 
L 126.984135 142.464095 
L 128.42066 146.943942 
L 129.857184 137.600868 
L 134.166758 149.095165 
L 135.603282 139.711373 
L 137.039807 137.657848 
L 138.476331 135.938377 
L 139.912856 133.657429 
L 144.22243 136.605774 
L 145.658954 141.265735 
L 147.095479 142.575846 
L 148.532003 131.079628 
L 149.968528 129.853664 
L 154.278101 124.982229 
L 155.714626 119.13785 
L 157.15115 116.436448 
L 158.587675 126.205121 
L 160.0242 134.049012 
L 164.333773 133.667464 
L 165.770298 138.935098 
L 167.206822 140.71717 
L 168.643347 132.785623 
L 170.079871 132.205662 
L 175.825969 127.403572 
L 177.262494 122.833154 
L 178.699019 122.475962 
L 180.135543 118.20847 
L 184.445117 117.26129 
L 185.881641 125.443014 
L 187.318166 130.035102 
L 188.75469 130.183516 
L 190.191215 125.316687 
L 194.500788 123.48106 
L 195.937313 126.664041 
L 197.373837 126.496313 
L 198.810362 128.508124 
L 200.246887 128.493985 
L 204.55646 124.418958 
L 205.992985 119.452791 
L 207.429509 119.950321 
L 210.302558 133.97464 
L 214.612132 125.97803 
L 216.048656 138.185168 
L 217.485181 145.818877 
L 218.921706 139.365034 
L 220.35823 143.137328 
L 224.667804 131.457358 
L 226.104328 121.141205 
L 227.540853 115.703006 
L 228.977377 115.789215 
L 230.413902 113.55469 
L 234.723475 119.413928 
L 237.596525 112.919629 
L 239.033049 110.815761 
L 240.469574 117.828068 
L 244.779147 126.50784 
L 246.215672 112.050174 
L 247.652196 109.331896 
L 249.088721 103.237444 
L 254.834819 95.721381 
L 256.271344 95.688497 
L 257.707868 95.878809 
L 259.144393 96.516387 
L 260.580917 99.681365 
L 264.890491 90.02798 
L 266.327015 81.76902 
L 267.76354 98.557022 
L 269.200064 92.371441 
L 270.636589 89.588797 
L 274.946163 88.226846 
L 276.382687 82.475583 
L 277.819212 81.299841 
L 279.255736 89.273718 
L 280.692261 86.980047 
L 287.874883 104.469755 
L 289.311408 111.662872 
L 290.747932 126.046342 
L 295.057506 124.691513 
L 296.494031 132.203534 
L 297.930555 132.035028 
L 299.36708 135.868401 
L 300.803604 120.329564 
L 305.113178 107.149772 
L 306.549702 101.130221 
L 307.986227 90.274351 
L 309.422751 133.711409 
L 310.859276 132.808813 
L 315.16885 143.616313 
L 316.605374 144.813095 
L 318.041899 131.557006 
L 319.478423 142.359929 
L 320.914948 155.421217 
L 325.224521 159.486084 
L 326.661046 152.684202 
L 328.09757 155.788209 
L 329.534095 166.190345 
L 330.970619 169.920701 
L 336.716718 175.487305 
L 338.153242 183.555841 
L 339.589767 170.547318 
L 341.026291 160.153309 
L 345.335865 161.982888 
L 346.772389 171.092792 
L 348.208914 158.948151 
L 349.645438 162.224512 
L 355.391537 194.24353 
L 356.828061 191.881032 
L 358.264586 167.888693 
L 361.137635 185.233237 
L 365.447208 185.985416 
L 366.883733 174.867367 
L 368.320257 156.351515 
L 369.756782 149.567633 
L 371.193307 140.747976 
L 375.50288 142.975825 
L 376.939405 130.388862 
L 378.375929 137.888518 
L 379.812454 128.812295 
L 381.248978 121.6031 
L 385.558552 121.005882 
L 386.995076 116.145822 
L 388.431601 119.525407 
L 389.868126 135.300891 
L 391.30465 133.516072 
L 395.614224 128.348555 
L 397.050748 136.10365 
L 398.487273 144.858846 
L 398.487273 144.858846 
" style="fill:none;stroke:#ff8040;stroke-linecap:square;stroke-opacity:0.9;stroke-width:2;"/>
   </g>
   <g id="line2d_20">
    <path clip-path="url(#p4fd1a1960c)" d="M 73.832727 141.882132 
L 76.705776 138.795602 
L 78.142301 143.481754 
L 79.578825 137.315307 
L 83.888399 138.80403 
L 85.324924 139.126613 
L 86.761448 140.948313 
L 88.197973 142.96004 
L 89.634497 143.041114 
L 95.380595 142.715514 
L 96.81712 145.249994 
L 98.253644 146.60964 
L 99.690169 151.317618 
L 103.999743 146.901387 
L 105.436267 152.822272 
L 106.872792 149.613027 
L 108.309316 151.565194 
L 109.745841 158.415524 
L 114.055414 168.184447 
L 115.491939 168.527295 
L 118.364988 157.524244 
L 119.801512 153.042755 
L 124.111086 149.223422 
L 125.547611 163.528754 
L 126.984135 161.021858 
L 128.42066 166.108804 
L 129.857184 158.00472 
L 134.166758 165.689241 
L 135.603282 157.904258 
L 137.039807 157.787416 
L 138.476331 157.017811 
L 139.912856 154.552404 
L 144.22243 156.675651 
L 145.658954 160.696062 
L 147.095479 160.569459 
L 148.532003 146.775931 
L 149.968528 142.480366 
L 154.278101 139.939765 
L 157.15115 132.765184 
L 158.587675 142.64359 
L 160.0242 149.016418 
L 165.770298 152.763079 
L 167.206822 156.785157 
L 168.643347 149.029 
L 170.079871 147.418734 
L 174.389445 150.001584 
L 175.825969 148.554002 
L 177.262494 142.389489 
L 178.699019 144.616238 
L 180.135543 145.4116 
L 184.445117 144.57529 
L 185.881641 148.805035 
L 187.318166 155.83492 
L 188.75469 155.496866 
L 190.191215 149.475847 
L 194.500788 147.671396 
L 197.373837 150.957765 
L 200.246887 151.992037 
L 204.55646 150.079038 
L 205.992985 143.314916 
L 207.429509 143.187595 
L 210.302558 158.425551 
L 214.612132 153.71182 
L 216.048656 164.567192 
L 217.485181 171.396604 
L 218.921706 164.838616 
L 220.35823 166.696473 
L 224.667804 159.817374 
L 226.104328 151.901601 
L 227.540853 148.360888 
L 228.977377 148.870851 
L 230.413902 146.884327 
L 234.723475 152.890421 
L 236.16 152.450804 
L 237.596525 150.283884 
L 239.033049 149.780431 
L 240.469574 158.77527 
L 244.779147 167.773179 
L 246.215672 156.489599 
L 247.652196 152.400841 
L 249.088721 149.656894 
L 254.834819 142.660344 
L 256.271344 142.26432 
L 257.707868 142.15008 
L 259.144393 141.866314 
L 260.580917 145.156364 
L 264.890491 137.67492 
L 266.327015 133.456558 
L 267.76354 148.69459 
L 269.200064 144.930024 
L 270.636589 143.037305 
L 274.946163 143.518174 
L 276.382687 140.178206 
L 277.819212 139.994311 
L 279.255736 145.445958 
L 280.692261 144.885836 
L 286.438359 157.115392 
L 289.311408 168.507803 
L 290.747932 182.604619 
L 295.057506 182.54802 
L 296.494031 187.698065 
L 297.930555 188.768325 
L 299.36708 193.950565 
L 300.803604 179.486493 
L 305.113178 172.375982 
L 306.549702 165.845384 
L 307.986227 157.101229 
L 309.422751 204.7257 
L 310.859276 200.711039 
L 315.16885 212.493914 
L 316.605374 209.367796 
L 318.041899 202.719858 
L 319.478423 211.879111 
L 320.914948 221.801476 
L 325.224521 226.538061 
L 326.661046 221.198374 
L 328.09757 224.354265 
L 329.534095 228.91008 
L 330.970619 232.526766 
L 336.716718 237.815966 
L 338.153242 245.781795 
L 339.589767 242.015362 
L 341.026291 230.055621 
L 345.335865 234.603803 
L 346.772389 244.742372 
L 348.208914 236.291057 
L 349.645438 237.910281 
L 351.081963 247.559813 
L 355.391537 265.797818 
L 356.828061 264.850101 
L 358.264586 245.168774 
L 359.70111 254.090196 
L 361.137635 259.108714 
L 365.447208 261.090006 
L 366.883733 253.710336 
L 368.320257 243.667765 
L 369.756782 239.862393 
L 371.193307 234.255487 
L 375.50288 233.966174 
L 376.939405 223.62649 
L 378.375929 230.059864 
L 379.812454 222.216602 
L 381.248978 217.048594 
L 385.558552 217.691964 
L 386.995076 211.991066 
L 388.431601 211.390849 
L 389.868126 221.732473 
L 391.30465 219.283139 
L 395.614224 214.365788 
L 397.050748 218.27674 
L 398.487273 225.410651 
L 398.487273 225.410651 
" style="fill:none;stroke:#0d0d0d;stroke-linecap:square;stroke-opacity:0.25;stroke-width:2;"/>
   </g>
   <g id="line2d_21">
    <path clip-path="url(#p4fd1a1960c)" d="M 73.832727 140.691359 
L 75.269252 135.999086 
L 76.705776 132.111951 
L 78.142301 135.078698 
L 79.578825 126.565027 
L 83.888399 120.234977 
L 85.324924 117.366373 
L 86.761448 118.924176 
L 88.197973 119.492141 
L 89.634497 118.915668 
L 95.380595 118.189439 
L 96.81712 120.237033 
L 98.253644 120.202805 
L 99.690169 124.601426 
L 103.999743 119.810653 
L 105.436267 124.465441 
L 106.872792 121.130733 
L 108.309316 123.198981 
L 109.745841 129.814252 
L 114.055414 139.00344 
L 115.491939 141.429053 
L 116.928463 135.679745 
L 118.364988 129.158705 
L 119.801512 123.66571 
L 124.111086 118.183894 
L 125.547611 129.176932 
L 126.984135 127.369449 
L 128.42066 134.493642 
L 129.857184 125.801488 
L 134.166758 134.023393 
L 135.603282 125.471069 
L 137.039807 123.532818 
L 138.476331 122.863787 
L 139.912856 120.519128 
L 144.22243 124.545844 
L 145.658954 129.087018 
L 147.095479 130.556793 
L 148.532003 114.257181 
L 149.968528 107.756869 
L 154.278101 105.086589 
L 155.714626 99.983216 
L 157.15115 97.144379 
L 158.587675 102.926004 
L 160.0242 104.548986 
L 164.333773 105.729126 
L 165.770298 105.676984 
L 167.206822 104.310586 
L 168.643347 93.767675 
L 170.079871 93.022023 
L 174.389445 94.997434 
L 175.825969 92.531271 
L 177.262494 87.801444 
L 178.699019 86.381499 
L 180.135543 80.264431 
L 184.445117 80.912267 
L 185.881641 83.485484 
L 187.318166 87.892659 
L 188.75469 88.361391 
L 190.191215 78.560976 
L 194.500788 76.196219 
L 195.937313 78.561097 
L 197.373837 80.393031 
L 198.810362 80.681632 
L 200.246887 81.831953 
L 204.55646 81.890426 
L 205.992985 70.677517 
L 207.429509 70.143877 
L 210.302558 86.039347 
L 214.612132 76.747838 
L 216.048656 90.197962 
L 217.485181 99.152384 
L 218.921706 92.74884 
L 220.35823 97.630531 
L 224.667804 86.099104 
L 226.104328 76.944856 
L 227.540853 71.06327 
L 228.977377 70.743144 
L 230.413902 68.788889 
L 234.723475 78.214615 
L 236.16 77.360591 
L 237.596525 69.045949 
L 239.033049 71.601177 
L 240.469574 81.241538 
L 244.779147 88.738724 
L 246.215672 77.101985 
L 247.652196 73.271358 
L 249.088721 68.384852 
L 254.834819 60.327063 
L 256.271344 60.410332 
L 257.707868 58.967484 
L 259.144393 59.846569 
L 260.580917 64.290435 
L 264.890491 54.091562 
L 266.327015 52.154182 
L 267.76354 70.881994 
L 269.200064 67.419896 
L 270.636589 62.870519 
L 274.946163 63.244796 
L 276.382687 61.916994 
L 277.819212 60.355041 
L 279.255736 66.079398 
L 280.692261 65.933077 
L 286.438359 80.621972 
L 287.874883 85.461564 
L 289.311408 92.644559 
L 290.747932 105.917769 
L 295.057506 106.366211 
L 296.494031 102.412759 
L 297.930555 101.208152 
L 299.36708 104.984988 
L 300.803604 91.878457 
L 305.113178 82.986081 
L 306.549702 75.727198 
L 307.986227 62.892981 
L 309.422751 92.125331 
L 310.859276 88.521666 
L 315.16885 95.044287 
L 316.605374 92.994801 
L 318.041899 81.546529 
L 320.914948 106.531528 
L 325.224521 112.007796 
L 326.661046 103.951033 
L 328.09757 105.161223 
L 329.534095 115.607581 
L 330.970619 119.059099 
L 336.716718 123.933961 
L 338.153242 132.02916 
L 339.589767 125.204678 
L 341.026291 112.824549 
L 345.335865 116.274639 
L 346.772389 129.663624 
L 348.208914 114.604783 
L 349.645438 117.828869 
L 351.081963 123.94354 
L 355.391537 146.417546 
L 356.828061 143.794872 
L 358.264586 121.483976 
L 359.70111 130.193206 
L 361.137635 137.437755 
L 365.447208 141.739682 
L 366.883733 130.083072 
L 368.320257 114.849186 
L 369.756782 108.470353 
L 371.193307 100.739908 
L 375.50288 100.94185 
L 376.939405 88.778014 
L 378.375929 96.744309 
L 379.812454 82.320612 
L 381.248978 76.059542 
L 385.558552 73.280135 
L 386.995076 70.169689 
L 388.431601 73.152136 
L 389.868126 83.05 
L 391.30465 81.197724 
L 395.614224 79.05949 
L 397.050748 84.956441 
L 398.487273 92.24529 
L 398.487273 92.24529 
" style="fill:none;stroke:#0d0d0d;stroke-linecap:square;stroke-opacity:0.25;stroke-width:2;"/>
   </g>
   <g id="patch_3">
    <path d="M 57.6 276.48 
L 57.6 41.472 
" style="fill:none;stroke:#000000;stroke-linecap:square;stroke-linejoin:miter;stroke-width:0.8;"/>
   </g>
   <g id="patch_4">
    <path d="M 414.72 276.48 
L 414.72 41.472 
" style="fill:none;stroke:#000000;stroke-linecap:square;stroke-linejoin:miter;stroke-width:0.8;"/>
   </g>
   <g id="patch_5">
    <path d="M 57.6 276.48 
L 414.72 276.48 
" style="fill:none;stroke:#000000;stroke-linecap:square;stroke-linejoin:miter;stroke-width:0.8;"/>
   </g>
   <g id="patch_6">
    <path d="M 57.6 41.472 
L 414.72 41.472 
" style="fill:none;stroke:#000000;stroke-linecap:square;stroke-linejoin:miter;stroke-width:0.8;"/>
   </g>
   <g id="text_18">
    <!-- TESTFUNDS1330 -->
    <g transform="translate(185.200312 22.034625)scale(0.12 -0.12)">
     <defs>
      <path d="M -19 4666 
L 3928 4666 
L 3928 4134 
L 2272 4134 
L 2272 0 
L 1638 0 
L 1638 4134 
L -19 4134 
L -19 4666 
z
" id="DejaVuSans-54" transform="scale(0.015625)"/>
      <path d="M 628 4666 
L 3578 4666 
L 3578 4134 
L 1259 4134 
L 1259 2753 
L 3481 2753 
L 3481 2222 
L 1259 2222 
L 1259 531 
L 3634 531 
L 3634 0 
L 628 0 
L 628 4666 
z
" id="DejaVuSans-45" transform="scale(0.015625)"/>
      <path d="M 3425 4513 
L 3425 3897 
Q 3066 4069 2747 4153 
Q 2428 4238 2131 4238 
Q 1616 4238 1336 4038 
Q 1056 3838 1056 3469 
Q 1056 3159 1242 3001 
Q 1428 2844 1947 2747 
L 2328 2669 
Q 3034 2534 3370 2195 
Q 3706 1856 3706 1288 
Q 3706 609 3251 259 
Q 2797 -91 1919 -91 
Q 1588 -91 1214 -16 
Q 841 59 441 206 
L 441 856 
Q 825 641 1194 531 
Q 1563 422 1919 422 
Q 2459 422 2753 634 
Q 3047 847 3047 1241 
Q 3047 1584 2836 1778 
Q 2625 1972 2144 2069 
L 1759 2144 
Q 1053 2284 737 2584 
Q 422 2884 422 3419 
Q 422 4038 858 4394 
Q 1294 4750 2059 4750 
Q 2388 4750 2728 4690 
Q 3069 4631 3425 4513 
z
" id="DejaVuSans-53" transform="scale(0.015625)"/>
      <path d="M 628 4666 
L 3309 4666 
L 3309 4134 
L 1259 4134 
L 1259 2759 
L 3109 2759 
L 3109 2228 
L 1259 2228 
L 1259 0 
L 628 0 
L 628 4666 
z
" id="DejaVuSans-46" transform="scale(0.015625)"/>
      <path d="M 556 4666 
L 1191 4666 
L 1191 1831 
Q 1191 1081 1462 751 
Q 1734 422 2344 422 
Q 2950 422 3222 751 
Q 3494 1081 3494 1831 
L 3494 4666 
L 4128 4666 
L 4128 1753 
Q 4128 841 3676 375 
Q 3225 -91 2344 -91 
Q 1459 -91 1007 375 
Q 556 841 556 1753 
L 556 4666 
z
" id="DejaVuSans-55" transform="scale(0.015625)"/>
      <path d="M 628 4666 
L 1478 4666 
L 3547 763 
L 3547 4666 
L 4159 4666 
L 4159 0 
L 3309 0 
L 1241 3903 
L 1241 0 
L 628 0 
L 628 4666 
z
" id="DejaVuSans-4e" transform="scale(0.015625)"/>
      <path d="M 1259 4147 
L 1259 519 
L 2022 519 
Q 2988 519 3436 956 
Q 3884 1394 3884 2338 
Q 3884 3275 3436 3711 
Q 2988 4147 2022 4147 
L 1259 4147 
z
M 628 4666 
L 1925 4666 
Q 3281 4666 3915 4102 
Q 4550 3538 4550 2338 
Q 4550 1131 3912 565 
Q 3275 0 1925 0 
L 628 0 
L 628 4666 
z
" id="DejaVuSans-44" transform="scale(0.015625)"/>
     </defs>
     <use xlink:href="#DejaVuSans-54"/>
     <use x="61.083984" xlink:href="#DejaVuSans-45"/>
     <use x="124.267578" xlink:href="#DejaVuSans-53"/>
     <use x="187.744141" xlink:href="#DejaVuSans-54"/>
     <use x="248.828125" xlink:href="#DejaVuSans-46"/>
     <use x="306.347656" xlink:href="#DejaVuSans-55"/>
     <use x="379.541016" xlink:href="#DejaVuSans-4e"/>
     <use x="454.345703" xlink:href="#DejaVuSans-44"/>
     <use x="531.347656" xlink:href="#DejaVuSans-53"/>
     <use x="594.824219" xlink:href="#DejaVuSans-31"/>
     <use x="658.447266" xlink:href="#DejaVuSans-33"/>
     <use x="722.070312" xlink:href="#DejaVuSans-33"/>
     <use x="785.693359" xlink:href="#DejaVuSans-30"/>
    </g>
    <!-- daily_report -->
    <g transform="translate(200.466563 35.472)scale(0.12 -0.12)">
     <defs>
      <path d="M 603 3500 
L 1178 3500 
L 1178 0 
L 603 0 
L 603 3500 
z
M 603 4863 
L 1178 4863 
L 1178 4134 
L 603 4134 
L 603 4863 
z
" id="DejaVuSans-69" transform="scale(0.015625)"/>
      <path d="M 603 4863 
L 1178 4863 
L 1178 0 
L 603 0 
L 603 4863 
z
" id="DejaVuSans-6c" transform="scale(0.015625)"/>
      <path d="M 2059 -325 
Q 1816 -950 1584 -1140 
Q 1353 -1331 966 -1331 
L 506 -1331 
L 506 -850 
L 844 -850 
Q 1081 -850 1212 -737 
Q 1344 -625 1503 -206 
L 1606 56 
L 191 3500 
L 800 3500 
L 1894 763 
L 2988 3500 
L 3597 3500 
L 2059 -325 
z
" id="DejaVuSans-79" transform="scale(0.015625)"/>
      <path d="M 3263 -1063 
L 3263 -1509 
L -63 -1509 
L -63 -1063 
L 3263 -1063 
z
" id="DejaVuSans-5f" transform="scale(0.015625)"/>
      <path d="M 2631 2963 
Q 2534 3019 2420 3045 
Q 2306 3072 2169 3072 
Q 1681 3072 1420 2755 
Q 1159 2438 1159 1844 
L 1159 0 
L 581 0 
L 581 3500 
L 1159 3500 
L 1159 2956 
Q 1341 3275 1631 3429 
Q 1922 3584 2338 3584 
Q 2397 3584 2469 3576 
Q 2541 3569 2628 3553 
L 2631 2963 
z
" id="DejaVuSans-72" transform="scale(0.015625)"/>
      <path d="M 1159 525 
L 1159 -1331 
L 581 -1331 
L 581 3500 
L 1159 3500 
L 1159 2969 
Q 1341 3281 1617 3432 
Q 1894 3584 2278 3584 
Q 2916 3584 3314 3078 
Q 3713 2572 3713 1747 
Q 3713 922 3314 415 
Q 2916 -91 2278 -91 
Q 1894 -91 1617 61 
Q 1341 213 1159 525 
z
M 3116 1747 
Q 3116 2381 2855 2742 
Q 2594 3103 2138 3103 
Q 1681 3103 1420 2742 
Q 1159 2381 1159 1747 
Q 1159 1113 1420 752 
Q 1681 391 2138 391 
Q 2594 391 2855 752 
Q 3116 1113 3116 1747 
z
" id="DejaVuSans-70" transform="scale(0.015625)"/>
      <path d="M 1959 3097 
Q 1497 3097 1228 2736 
Q 959 2375 959 1747 
Q 959 1119 1226 758 
Q 1494 397 1959 397 
Q 2419 397 2687 759 
Q 2956 1122 2956 1747 
Q 2956 2369 2687 2733 
Q 2419 3097 1959 3097 
z
M 1959 3584 
Q 2709 3584 3137 3096 
Q 3566 2609 3566 1747 
Q 3566 888 3137 398 
Q 2709 -91 1959 -91 
Q 1206 -91 779 398 
Q 353 888 353 1747 
Q 353 2609 779 3096 
Q 1206 3584 1959 3584 
z
" id="DejaVuSans-6f" transform="scale(0.015625)"/>
     </defs>
     <use xlink:href="#DejaVuSans-64"/>
     <use x="63.476562" xlink:href="#DejaVuSans-61"/>
     <use x="124.755859" xlink:href="#DejaVuSans-69"/>
     <use x="152.539062" xlink:href="#DejaVuSans-6c"/>
     <use x="180.322266" xlink:href="#DejaVuSans-79"/>
     <use x="239.501953" xlink:href="#DejaVuSans-5f"/>
     <use x="289.501953" xlink:href="#DejaVuSans-72"/>
     <use x="328.365234" xlink:href="#DejaVuSans-65"/>
     <use x="389.888672" xlink:href="#DejaVuSans-70"/>
     <use x="453.365234" xlink:href="#DejaVuSans-6f"/>
     <use x="514.546875" xlink:href="#DejaVuSans-72"/>
     <use x="555.660156" xlink:href="#DejaVuSans-74"/>
    </g>
   </g>
   <g id="legend_1">
    <g id="patch_7">
     <path d="M 64.6 271.48 
L 155.792188 271.48 
Q 157.792188 271.48 157.792188 269.48 
L 157.792188 197.089375 
Q 157.792188 195.089375 155.792188 195.089375 
L 64.6 195.089375 
Q 62.6 195.089375 62.6 197.089375 
L 62.6 269.48 
Q 62.6 271.48 64.6 271.48 
z
" style="fill:#ffffff;opacity:0.8;stroke:#cccccc;stroke-linejoin:miter;"/>
    </g>
    <g id="line2d_22">
     <path d="M 66.6 203.187812 
L 86.6 203.187812 
" style="fill:none;stroke:#0000ff;stroke-linecap:square;stroke-opacity:0.9;stroke-width:2;"/>
    </g>
    <g id="line2d_23"/>
    <g id="text_19">
     <!-- alpaca -->
     <g transform="translate(94.6 206.687812)scale(0.1 -0.1)">
      <defs>
       <path d="M 3122 3366 
L 3122 2828 
Q 2878 2963 2633 3030 
Q 2388 3097 2138 3097 
Q 1578 3097 1268 2742 
Q 959 2388 959 1747 
Q 959 1106 1268 751 
Q 1578 397 2138 397 
Q 2388 397 2633 464 
Q 2878 531 3122 666 
L 3122 134 
Q 2881 22 2623 -34 
Q 2366 -91 2075 -91 
Q 1284 -91 818 406 
Q 353 903 353 1747 
Q 353 2603 823 3093 
Q 1294 3584 2113 3584 
Q 2378 3584 2631 3529 
Q 2884 3475 3122 3366 
z
" id="DejaVuSans-63" transform="scale(0.015625)"/>
      </defs>
      <use xlink:href="#DejaVuSans-61"/>
      <use x="61.279297" xlink:href="#DejaVuSans-6c"/>
      <use x="89.0625" xlink:href="#DejaVuSans-70"/>
      <use x="152.539062" xlink:href="#DejaVuSans-61"/>
      <use x="213.818359" xlink:href="#DejaVuSans-63"/>
      <use x="268.798828" xlink:href="#DejaVuSans-61"/>
     </g>
    </g>
    <g id="line2d_24">
     <path d="M 66.6 217.865937 
L 86.6 217.865937 
" style="fill:none;stroke:#ff0000;stroke-linecap:square;stroke-opacity:0.9;stroke-width:2;"/>
    </g>
    <g id="line2d_25"/>
    <g id="text_20">
     <!-- mattress -->
     <g transform="translate(94.6 221.365937)scale(0.1 -0.1)">
      <defs>
       <path d="M 3328 2828 
Q 3544 3216 3844 3400 
Q 4144 3584 4550 3584 
Q 5097 3584 5394 3201 
Q 5691 2819 5691 2113 
L 5691 0 
L 5113 0 
L 5113 2094 
Q 5113 2597 4934 2840 
Q 4756 3084 4391 3084 
Q 3944 3084 3684 2787 
Q 3425 2491 3425 1978 
L 3425 0 
L 2847 0 
L 2847 2094 
Q 2847 2600 2669 2842 
Q 2491 3084 2119 3084 
Q 1678 3084 1418 2786 
Q 1159 2488 1159 1978 
L 1159 0 
L 581 0 
L 581 3500 
L 1159 3500 
L 1159 2956 
Q 1356 3278 1631 3431 
Q 1906 3584 2284 3584 
Q 2666 3584 2933 3390 
Q 3200 3197 3328 2828 
z
" id="DejaVuSans-6d" transform="scale(0.015625)"/>
       <path d="M 2834 3397 
L 2834 2853 
Q 2591 2978 2328 3040 
Q 2066 3103 1784 3103 
Q 1356 3103 1142 2972 
Q 928 2841 928 2578 
Q 928 2378 1081 2264 
Q 1234 2150 1697 2047 
L 1894 2003 
Q 2506 1872 2764 1633 
Q 3022 1394 3022 966 
Q 3022 478 2636 193 
Q 2250 -91 1575 -91 
Q 1294 -91 989 -36 
Q 684 19 347 128 
L 347 722 
Q 666 556 975 473 
Q 1284 391 1588 391 
Q 1994 391 2212 530 
Q 2431 669 2431 922 
Q 2431 1156 2273 1281 
Q 2116 1406 1581 1522 
L 1381 1569 
Q 847 1681 609 1914 
Q 372 2147 372 2553 
Q 372 3047 722 3315 
Q 1072 3584 1716 3584 
Q 2034 3584 2315 3537 
Q 2597 3491 2834 3397 
z
" id="DejaVuSans-73" transform="scale(0.015625)"/>
      </defs>
      <use xlink:href="#DejaVuSans-6d"/>
      <use x="97.412109" xlink:href="#DejaVuSans-61"/>
      <use x="158.691406" xlink:href="#DejaVuSans-74"/>
      <use x="197.900391" xlink:href="#DejaVuSans-74"/>
      <use x="237.109375" xlink:href="#DejaVuSans-72"/>
      <use x="275.972656" xlink:href="#DejaVuSans-65"/>
      <use x="337.496094" xlink:href="#DejaVuSans-73"/>
      <use x="389.595703" xlink:href="#DejaVuSans-73"/>
     </g>
    </g>
    <g id="line2d_26">
     <path d="M 66.6 232.544062 
L 86.6 232.544062 
" style="fill:none;stroke:#ff8040;stroke-linecap:square;stroke-opacity:0.9;stroke-width:2;"/>
    </g>
    <g id="line2d_27"/>
    <g id="text_21">
     <!-- trader-0850 -->
     <g transform="translate(94.6 236.044062)scale(0.1 -0.1)">
      <use xlink:href="#DejaVuSans-74"/>
      <use x="39.208984" xlink:href="#DejaVuSans-72"/>
      <use x="80.322266" xlink:href="#DejaVuSans-61"/>
      <use x="141.601562" xlink:href="#DejaVuSans-64"/>
      <use x="205.078125" xlink:href="#DejaVuSans-65"/>
      <use x="266.601562" xlink:href="#DejaVuSans-72"/>
      <use x="301.339844" xlink:href="#DejaVuSans-2d"/>
      <use x="337.423828" xlink:href="#DejaVuSans-30"/>
      <use x="401.046875" xlink:href="#DejaVuSans-38"/>
      <use x="464.669922" xlink:href="#DejaVuSans-35"/>
      <use x="528.292969" xlink:href="#DejaVuSans-30"/>
     </g>
    </g>
    <g id="line2d_28">
     <path d="M 66.6 247.222187 
L 86.6 247.222187 
" style="fill:none;stroke:#0d0d0d;stroke-linecap:square;stroke-opacity:0.25;stroke-width:2;"/>
    </g>
    <g id="line2d_29"/>
    <g id="text_22">
     <!-- rando-min -->
     <g transform="translate(94.6 250.722187)scale(0.1 -0.1)">
      <defs>
       <path d="M 3513 2113 
L 3513 0 
L 2938 0 
L 2938 2094 
Q 2938 2591 2744 2837 
Q 2550 3084 2163 3084 
Q 1697 3084 1428 2787 
Q 1159 2491 1159 1978 
L 1159 0 
L 581 0 
L 581 3500 
L 1159 3500 
L 1159 2956 
Q 1366 3272 1645 3428 
Q 1925 3584 2291 3584 
Q 2894 3584 3203 3211 
Q 3513 2838 3513 2113 
z
" id="DejaVuSans-6e" transform="scale(0.015625)"/>
      </defs>
      <use xlink:href="#DejaVuSans-72"/>
      <use x="41.113281" xlink:href="#DejaVuSans-61"/>
      <use x="102.392578" xlink:href="#DejaVuSans-6e"/>
      <use x="165.771484" xlink:href="#DejaVuSans-64"/>
      <use x="229.248047" xlink:href="#DejaVuSans-6f"/>
      <use x="292.304688" xlink:href="#DejaVuSans-2d"/>
      <use x="328.388672" xlink:href="#DejaVuSans-6d"/>
      <use x="425.800781" xlink:href="#DejaVuSans-69"/>
      <use x="453.583984" xlink:href="#DejaVuSans-6e"/>
     </g>
    </g>
    <g id="line2d_30">
     <path d="M 66.6 261.900312 
L 86.6 261.900312 
" style="fill:none;stroke:#0d0d0d;stroke-linecap:square;stroke-opacity:0.25;stroke-width:2;"/>
    </g>
    <g id="line2d_31"/>
    <g id="text_23">
     <!-- rando-max -->
     <g transform="translate(94.6 265.400312)scale(0.1 -0.1)">
      <defs>
       <path d="M 3513 3500 
L 2247 1797 
L 3578 0 
L 2900 0 
L 1881 1375 
L 863 0 
L 184 0 
L 1544 1831 
L 300 3500 
L 978 3500 
L 1906 2253 
L 2834 3500 
L 3513 3500 
z
" id="DejaVuSans-78" transform="scale(0.015625)"/>
      </defs>
      <use xlink:href="#DejaVuSans-72"/>
      <use x="41.113281" xlink:href="#DejaVuSans-61"/>
      <use x="102.392578" xlink:href="#DejaVuSans-6e"/>
      <use x="165.771484" xlink:href="#DejaVuSans-64"/>
      <use x="229.248047" xlink:href="#DejaVuSans-6f"/>
      <use x="292.304688" xlink:href="#DejaVuSans-2d"/>
      <use x="328.388672" xlink:href="#DejaVuSans-6d"/>
      <use x="425.800781" xlink:href="#DejaVuSans-61"/>
      <use x="487.080078" xlink:href="#DejaVuSans-78"/>
     </g>
    </g>
   </g>
  </g>
 </g>
 <defs>
  <clipPath id="p4fd1a1960c">
   <rect height="235.008" width="357.12" x="57.6" y="41.472"/>
  </clipPath>
 </defs>
</svg>
