<?xml version="1.0" encoding="utf-8" standalone="no"?>
<!DOCTYPE svg PUBLIC "-//W3C//DTD SVG 1.1//EN"
  "http://www.w3.org/Graphics/SVG/1.1/DTD/svg11.dtd">
<svg height="345.6pt" version="1.1" viewBox="0 0 460.8 345.6" width="460.8pt" xmlns="http://www.w3.org/2000/svg" xmlns:xlink="http://www.w3.org/1999/xlink">
 <metadata>
  <rdf:RDF xmlns:cc="http://creativecommons.org/ns#" xmlns:dc="http://purl.org/dc/elements/1.1/" xmlns:rdf="http://www.w3.org/1999/02/22-rdf-syntax-ns#">
   <cc:Work>
    <dc:type rdf:resource="http://purl.org/dc/dcmitype/StillImage"/>
    <dc:date>2022-04-18T01:01:55.140341</dc:date>
    <dc:format>image/svg+xml</dc:format>
    <dc:creator>
     <cc:Agent>
      <dc:title>Matplotlib v3.4.3, https://matplotlib.org/</dc:title>
     </cc:Agent>
    </dc:creator>
   </cc:Work>
  </rdf:RDF>
 </metadata>
 <defs>
  <style type="text/css">*{stroke-linecap:butt;stroke-linejoin:round;}</style>
 </defs>
 <g id="figure_1">
  <g id="patch_1">
   <path d="M 0 345.6 
L 460.8 345.6 
L 460.8 0 
L 0 0 
z
" style="fill:#ffffff;"/>
  </g>
  <g id="axes_1">
   <g id="patch_2">
    <path d="M 57.6 276.48 
L 414.72 276.48 
L 414.72 41.472 
L 57.6 41.472 
z
" style="fill:#ffffff;"/>
   </g>
   <g id="matplotlib.axis_1">
    <g id="xtick_1">
     <g id="line2d_1">
      <defs>
       <path d="M 0 0 
L 0 3.5 
" id="m111a920294" style="stroke:#000000;stroke-width:0.8;"/>
      </defs>
      <g>
       <use style="stroke:#000000;stroke-width:0.8;" x="86.319441" xlink:href="#m111a920294" y="276.48"/>
      </g>
     </g>
     <g id="text_1">
      <!-- 2021-09 -->
      <g transform="translate(49.09462 310.951846)rotate(-30)scale(0.1 -0.1)">
       <defs>
        <path d="M 1228 531 
L 3431 531 
L 3431 0 
L 469 0 
L 469 531 
Q 828 903 1448 1529 
Q 2069 2156 2228 2338 
Q 2531 2678 2651 2914 
Q 2772 3150 2772 3378 
Q 2772 3750 2511 3984 
Q 2250 4219 1831 4219 
Q 1534 4219 1204 4116 
Q 875 4013 500 3803 
L 500 4441 
Q 881 4594 1212 4672 
Q 1544 4750 1819 4750 
Q 2544 4750 2975 4387 
Q 3406 4025 3406 3419 
Q 3406 3131 3298 2873 
Q 3191 2616 2906 2266 
Q 2828 2175 2409 1742 
Q 1991 1309 1228 531 
z
" id="DejaVuSans-32" transform="scale(0.015625)"/>
        <path d="M 2034 4250 
Q 1547 4250 1301 3770 
Q 1056 3291 1056 2328 
Q 1056 1369 1301 889 
Q 1547 409 2034 409 
Q 2525 409 2770 889 
Q 3016 1369 3016 2328 
Q 3016 3291 2770 3770 
Q 2525 4250 2034 4250 
z
M 2034 4750 
Q 2819 4750 3233 4129 
Q 3647 3509 3647 2328 
Q 3647 1150 3233 529 
Q 2819 -91 2034 -91 
Q 1250 -91 836 529 
Q 422 1150 422 2328 
Q 422 3509 836 4129 
Q 1250 4750 2034 4750 
z
" id="DejaVuSans-30" transform="scale(0.015625)"/>
        <path d="M 794 531 
L 1825 531 
L 1825 4091 
L 703 3866 
L 703 4441 
L 1819 4666 
L 2450 4666 
L 2450 531 
L 3481 531 
L 3481 0 
L 794 0 
L 794 531 
z
" id="DejaVuSans-31" transform="scale(0.015625)"/>
        <path d="M 313 2009 
L 1997 2009 
L 1997 1497 
L 313 1497 
L 313 2009 
z
" id="DejaVuSans-2d" transform="scale(0.015625)"/>
        <path d="M 703 97 
L 703 672 
Q 941 559 1184 500 
Q 1428 441 1663 441 
Q 2288 441 2617 861 
Q 2947 1281 2994 2138 
Q 2813 1869 2534 1725 
Q 2256 1581 1919 1581 
Q 1219 1581 811 2004 
Q 403 2428 403 3163 
Q 403 3881 828 4315 
Q 1253 4750 1959 4750 
Q 2769 4750 3195 4129 
Q 3622 3509 3622 2328 
Q 3622 1225 3098 567 
Q 2575 -91 1691 -91 
Q 1453 -91 1209 -44 
Q 966 3 703 97 
z
M 1959 2075 
Q 2384 2075 2632 2365 
Q 2881 2656 2881 3163 
Q 2881 3666 2632 3958 
Q 2384 4250 1959 4250 
Q 1534 4250 1286 3958 
Q 1038 3666 1038 3163 
Q 1038 2656 1286 2365 
Q 1534 2075 1959 2075 
z
" id="DejaVuSans-39" transform="scale(0.015625)"/>
       </defs>
       <use xlink:href="#DejaVuSans-32"/>
       <use x="63.623047" xlink:href="#DejaVuSans-30"/>
       <use x="127.246094" xlink:href="#DejaVuSans-32"/>
       <use x="190.869141" xlink:href="#DejaVuSans-31"/>
       <use x="254.492188" xlink:href="#DejaVuSans-2d"/>
       <use x="290.576172" xlink:href="#DejaVuSans-30"/>
       <use x="354.199219" xlink:href="#DejaVuSans-39"/>
      </g>
     </g>
    </g>
    <g id="xtick_2">
     <g id="line2d_2">
      <g>
       <use style="stroke:#000000;stroke-width:0.8;" x="127.941818" xlink:href="#m111a920294" y="276.48"/>
      </g>
     </g>
     <g id="text_2">
      <!-- 2021-10 -->
      <g transform="translate(90.716997 310.951846)rotate(-30)scale(0.1 -0.1)">
       <use xlink:href="#DejaVuSans-32"/>
       <use x="63.623047" xlink:href="#DejaVuSans-30"/>
       <use x="127.246094" xlink:href="#DejaVuSans-32"/>
       <use x="190.869141" xlink:href="#DejaVuSans-31"/>
       <use x="254.492188" xlink:href="#DejaVuSans-2d"/>
       <use x="290.576172" xlink:href="#DejaVuSans-31"/>
       <use x="354.199219" xlink:href="#DejaVuSans-30"/>
      </g>
     </g>
    </g>
    <g id="xtick_3">
     <g id="line2d_3">
      <g>
       <use style="stroke:#000000;stroke-width:0.8;" x="170.951608" xlink:href="#m111a920294" y="276.48"/>
      </g>
     </g>
     <g id="text_3">
      <!-- 2021-11 -->
      <g transform="translate(133.726788 310.951846)rotate(-30)scale(0.1 -0.1)">
       <use xlink:href="#DejaVuSans-32"/>
       <use x="63.623047" xlink:href="#DejaVuSans-30"/>
       <use x="127.246094" xlink:href="#DejaVuSans-32"/>
       <use x="190.869141" xlink:href="#DejaVuSans-31"/>
       <use x="254.492188" xlink:href="#DejaVuSans-2d"/>
       <use x="290.576172" xlink:href="#DejaVuSans-31"/>
       <use x="354.199219" xlink:href="#DejaVuSans-31"/>
      </g>
     </g>
    </g>
    <g id="xtick_4">
     <g id="line2d_4">
      <g>
       <use style="stroke:#000000;stroke-width:0.8;" x="212.573986" xlink:href="#m111a920294" y="276.48"/>
      </g>
     </g>
     <g id="text_4">
      <!-- 2021-12 -->
      <g transform="translate(175.349165 310.951846)rotate(-30)scale(0.1 -0.1)">
       <use xlink:href="#DejaVuSans-32"/>
       <use x="63.623047" xlink:href="#DejaVuSans-30"/>
       <use x="127.246094" xlink:href="#DejaVuSans-32"/>
       <use x="190.869141" xlink:href="#DejaVuSans-31"/>
       <use x="254.492188" xlink:href="#DejaVuSans-2d"/>
       <use x="290.576172" xlink:href="#DejaVuSans-31"/>
       <use x="354.199219" xlink:href="#DejaVuSans-32"/>
      </g>
     </g>
    </g>
    <g id="xtick_5">
     <g id="line2d_5">
      <g>
       <use style="stroke:#000000;stroke-width:0.8;" x="255.583776" xlink:href="#m111a920294" y="276.48"/>
      </g>
     </g>
     <g id="text_5">
      <!-- 2022-01 -->
      <g transform="translate(218.358955 310.951846)rotate(-30)scale(0.1 -0.1)">
       <use xlink:href="#DejaVuSans-32"/>
       <use x="63.623047" xlink:href="#DejaVuSans-30"/>
       <use x="127.246094" xlink:href="#DejaVuSans-32"/>
       <use x="190.869141" xlink:href="#DejaVuSans-32"/>
       <use x="254.492188" xlink:href="#DejaVuSans-2d"/>
       <use x="290.576172" xlink:href="#DejaVuSans-30"/>
       <use x="354.199219" xlink:href="#DejaVuSans-31"/>
      </g>
     </g>
    </g>
    <g id="xtick_6">
     <g id="line2d_6">
      <g>
       <use style="stroke:#000000;stroke-width:0.8;" x="298.593566" xlink:href="#m111a920294" y="276.48"/>
      </g>
     </g>
     <g id="text_6">
      <!-- 2022-02 -->
      <g transform="translate(261.368746 310.951846)rotate(-30)scale(0.1 -0.1)">
       <use xlink:href="#DejaVuSans-32"/>
       <use x="63.623047" xlink:href="#DejaVuSans-30"/>
       <use x="127.246094" xlink:href="#DejaVuSans-32"/>
       <use x="190.869141" xlink:href="#DejaVuSans-32"/>
       <use x="254.492188" xlink:href="#DejaVuSans-2d"/>
       <use x="290.576172" xlink:href="#DejaVuSans-30"/>
       <use x="354.199219" xlink:href="#DejaVuSans-32"/>
      </g>
     </g>
    </g>
    <g id="xtick_7">
     <g id="line2d_7">
      <g>
       <use style="stroke:#000000;stroke-width:0.8;" x="337.441119" xlink:href="#m111a920294" y="276.48"/>
      </g>
     </g>
     <g id="text_7">
      <!-- 2022-03 -->
      <g transform="translate(300.216298 310.951846)rotate(-30)scale(0.1 -0.1)">
       <defs>
        <path d="M 2597 2516 
Q 3050 2419 3304 2112 
Q 3559 1806 3559 1356 
Q 3559 666 3084 287 
Q 2609 -91 1734 -91 
Q 1441 -91 1130 -33 
Q 819 25 488 141 
L 488 750 
Q 750 597 1062 519 
Q 1375 441 1716 441 
Q 2309 441 2620 675 
Q 2931 909 2931 1356 
Q 2931 1769 2642 2001 
Q 2353 2234 1838 2234 
L 1294 2234 
L 1294 2753 
L 1863 2753 
Q 2328 2753 2575 2939 
Q 2822 3125 2822 3475 
Q 2822 3834 2567 4026 
Q 2313 4219 1838 4219 
Q 1578 4219 1281 4162 
Q 984 4106 628 3988 
L 628 4550 
Q 988 4650 1302 4700 
Q 1616 4750 1894 4750 
Q 2613 4750 3031 4423 
Q 3450 4097 3450 3541 
Q 3450 3153 3228 2886 
Q 3006 2619 2597 2516 
z
" id="DejaVuSans-33" transform="scale(0.015625)"/>
       </defs>
       <use xlink:href="#DejaVuSans-32"/>
       <use x="63.623047" xlink:href="#DejaVuSans-30"/>
       <use x="127.246094" xlink:href="#DejaVuSans-32"/>
       <use x="190.869141" xlink:href="#DejaVuSans-32"/>
       <use x="254.492188" xlink:href="#DejaVuSans-2d"/>
       <use x="290.576172" xlink:href="#DejaVuSans-30"/>
       <use x="354.199219" xlink:href="#DejaVuSans-33"/>
      </g>
     </g>
    </g>
    <g id="xtick_8">
     <g id="line2d_8">
      <g>
       <use style="stroke:#000000;stroke-width:0.8;" x="380.450909" xlink:href="#m111a920294" y="276.48"/>
      </g>
     </g>
     <g id="text_8">
      <!-- 2022-04 -->
      <g transform="translate(343.226088 310.951846)rotate(-30)scale(0.1 -0.1)">
       <defs>
        <path d="M 2419 4116 
L 825 1625 
L 2419 1625 
L 2419 4116 
z
M 2253 4666 
L 3047 4666 
L 3047 1625 
L 3713 1625 
L 3713 1100 
L 3047 1100 
L 3047 0 
L 2419 0 
L 2419 1100 
L 313 1100 
L 313 1709 
L 2253 4666 
z
" id="DejaVuSans-34" transform="scale(0.015625)"/>
       </defs>
       <use xlink:href="#DejaVuSans-32"/>
       <use x="63.623047" xlink:href="#DejaVuSans-30"/>
       <use x="127.246094" xlink:href="#DejaVuSans-32"/>
       <use x="190.869141" xlink:href="#DejaVuSans-32"/>
       <use x="254.492188" xlink:href="#DejaVuSans-2d"/>
       <use x="290.576172" xlink:href="#DejaVuSans-30"/>
       <use x="354.199219" xlink:href="#DejaVuSans-34"/>
      </g>
     </g>
    </g>
    <g id="text_9">
     <!-- date -->
     <g transform="translate(224.885 324.351346)scale(0.1 -0.1)">
      <defs>
       <path d="M 2906 2969 
L 2906 4863 
L 3481 4863 
L 3481 0 
L 2906 0 
L 2906 525 
Q 2725 213 2448 61 
Q 2172 -91 1784 -91 
Q 1150 -91 751 415 
Q 353 922 353 1747 
Q 353 2572 751 3078 
Q 1150 3584 1784 3584 
Q 2172 3584 2448 3432 
Q 2725 3281 2906 2969 
z
M 947 1747 
Q 947 1113 1208 752 
Q 1469 391 1925 391 
Q 2381 391 2643 752 
Q 2906 1113 2906 1747 
Q 2906 2381 2643 2742 
Q 2381 3103 1925 3103 
Q 1469 3103 1208 2742 
Q 947 2381 947 1747 
z
" id="DejaVuSans-64" transform="scale(0.015625)"/>
       <path d="M 2194 1759 
Q 1497 1759 1228 1600 
Q 959 1441 959 1056 
Q 959 750 1161 570 
Q 1363 391 1709 391 
Q 2188 391 2477 730 
Q 2766 1069 2766 1631 
L 2766 1759 
L 2194 1759 
z
M 3341 1997 
L 3341 0 
L 2766 0 
L 2766 531 
Q 2569 213 2275 61 
Q 1981 -91 1556 -91 
Q 1019 -91 701 211 
Q 384 513 384 1019 
Q 384 1609 779 1909 
Q 1175 2209 1959 2209 
L 2766 2209 
L 2766 2266 
Q 2766 2663 2505 2880 
Q 2244 3097 1772 3097 
Q 1472 3097 1187 3025 
Q 903 2953 641 2809 
L 641 3341 
Q 956 3463 1253 3523 
Q 1550 3584 1831 3584 
Q 2591 3584 2966 3190 
Q 3341 2797 3341 1997 
z
" id="DejaVuSans-61" transform="scale(0.015625)"/>
       <path d="M 1172 4494 
L 1172 3500 
L 2356 3500 
L 2356 3053 
L 1172 3053 
L 1172 1153 
Q 1172 725 1289 603 
Q 1406 481 1766 481 
L 2356 481 
L 2356 0 
L 1766 0 
Q 1100 0 847 248 
Q 594 497 594 1153 
L 594 3053 
L 172 3053 
L 172 3500 
L 594 3500 
L 594 4494 
L 1172 4494 
z
" id="DejaVuSans-74" transform="scale(0.015625)"/>
       <path d="M 3597 1894 
L 3597 1613 
L 953 1613 
Q 991 1019 1311 708 
Q 1631 397 2203 397 
Q 2534 397 2845 478 
Q 3156 559 3463 722 
L 3463 178 
Q 3153 47 2828 -22 
Q 2503 -91 2169 -91 
Q 1331 -91 842 396 
Q 353 884 353 1716 
Q 353 2575 817 3079 
Q 1281 3584 2069 3584 
Q 2775 3584 3186 3129 
Q 3597 2675 3597 1894 
z
M 3022 2063 
Q 3016 2534 2758 2815 
Q 2500 3097 2075 3097 
Q 1594 3097 1305 2825 
Q 1016 2553 972 2059 
L 3022 2063 
z
" id="DejaVuSans-65" transform="scale(0.015625)"/>
      </defs>
      <use xlink:href="#DejaVuSans-64"/>
      <use x="63.476562" xlink:href="#DejaVuSans-61"/>
      <use x="124.755859" xlink:href="#DejaVuSans-74"/>
      <use x="163.964844" xlink:href="#DejaVuSans-65"/>
     </g>
    </g>
   </g>
   <g id="matplotlib.axis_2">
    <g id="ytick_1">
     <g id="line2d_9">
      <defs>
       <path d="M 0 0 
L -3.5 0 
" id="m6abe613f5a" style="stroke:#000000;stroke-width:0.8;"/>
      </defs>
      <g>
       <use style="stroke:#000000;stroke-width:0.8;" x="57.6" xlink:href="#m6abe613f5a" y="275.62927"/>
      </g>
     </g>
     <g id="text_10">
      <!-- 80000 -->
      <g transform="translate(18.7875 279.428489)scale(0.1 -0.1)">
       <defs>
        <path d="M 2034 2216 
Q 1584 2216 1326 1975 
Q 1069 1734 1069 1313 
Q 1069 891 1326 650 
Q 1584 409 2034 409 
Q 2484 409 2743 651 
Q 3003 894 3003 1313 
Q 3003 1734 2745 1975 
Q 2488 2216 2034 2216 
z
M 1403 2484 
Q 997 2584 770 2862 
Q 544 3141 544 3541 
Q 544 4100 942 4425 
Q 1341 4750 2034 4750 
Q 2731 4750 3128 4425 
Q 3525 4100 3525 3541 
Q 3525 3141 3298 2862 
Q 3072 2584 2669 2484 
Q 3125 2378 3379 2068 
Q 3634 1759 3634 1313 
Q 3634 634 3220 271 
Q 2806 -91 2034 -91 
Q 1263 -91 848 271 
Q 434 634 434 1313 
Q 434 1759 690 2068 
Q 947 2378 1403 2484 
z
M 1172 3481 
Q 1172 3119 1398 2916 
Q 1625 2713 2034 2713 
Q 2441 2713 2670 2916 
Q 2900 3119 2900 3481 
Q 2900 3844 2670 4047 
Q 2441 4250 2034 4250 
Q 1625 4250 1398 4047 
Q 1172 3844 1172 3481 
z
" id="DejaVuSans-38" transform="scale(0.015625)"/>
       </defs>
       <use xlink:href="#DejaVuSans-38"/>
       <use x="63.623047" xlink:href="#DejaVuSans-30"/>
       <use x="127.246094" xlink:href="#DejaVuSans-30"/>
       <use x="190.869141" xlink:href="#DejaVuSans-30"/>
       <use x="254.492188" xlink:href="#DejaVuSans-30"/>
      </g>
     </g>
    </g>
    <g id="ytick_2">
     <g id="line2d_10">
      <g>
       <use style="stroke:#000000;stroke-width:0.8;" x="57.6" xlink:href="#m6abe613f5a" y="244.065495"/>
      </g>
     </g>
     <g id="text_11">
      <!-- 85000 -->
      <g transform="translate(18.7875 247.864714)scale(0.1 -0.1)">
       <defs>
        <path d="M 691 4666 
L 3169 4666 
L 3169 4134 
L 1269 4134 
L 1269 2991 
Q 1406 3038 1543 3061 
Q 1681 3084 1819 3084 
Q 2600 3084 3056 2656 
Q 3513 2228 3513 1497 
Q 3513 744 3044 326 
Q 2575 -91 1722 -91 
Q 1428 -91 1123 -41 
Q 819 9 494 109 
L 494 744 
Q 775 591 1075 516 
Q 1375 441 1709 441 
Q 2250 441 2565 725 
Q 2881 1009 2881 1497 
Q 2881 1984 2565 2268 
Q 2250 2553 1709 2553 
Q 1456 2553 1204 2497 
Q 953 2441 691 2322 
L 691 4666 
z
" id="DejaVuSans-35" transform="scale(0.015625)"/>
       </defs>
       <use xlink:href="#DejaVuSans-38"/>
       <use x="63.623047" xlink:href="#DejaVuSans-35"/>
       <use x="127.246094" xlink:href="#DejaVuSans-30"/>
       <use x="190.869141" xlink:href="#DejaVuSans-30"/>
       <use x="254.492188" xlink:href="#DejaVuSans-30"/>
      </g>
     </g>
    </g>
    <g id="ytick_3">
     <g id="line2d_11">
      <g>
       <use style="stroke:#000000;stroke-width:0.8;" x="57.6" xlink:href="#m6abe613f5a" y="212.501719"/>
      </g>
     </g>
     <g id="text_12">
      <!-- 90000 -->
      <g transform="translate(18.7875 216.300938)scale(0.1 -0.1)">
       <use xlink:href="#DejaVuSans-39"/>
       <use x="63.623047" xlink:href="#DejaVuSans-30"/>
       <use x="127.246094" xlink:href="#DejaVuSans-30"/>
       <use x="190.869141" xlink:href="#DejaVuSans-30"/>
       <use x="254.492188" xlink:href="#DejaVuSans-30"/>
      </g>
     </g>
    </g>
    <g id="ytick_4">
     <g id="line2d_12">
      <g>
       <use style="stroke:#000000;stroke-width:0.8;" x="57.6" xlink:href="#m6abe613f5a" y="180.937944"/>
      </g>
     </g>
     <g id="text_13">
      <!-- 95000 -->
      <g transform="translate(18.7875 184.737163)scale(0.1 -0.1)">
       <use xlink:href="#DejaVuSans-39"/>
       <use x="63.623047" xlink:href="#DejaVuSans-35"/>
       <use x="127.246094" xlink:href="#DejaVuSans-30"/>
       <use x="190.869141" xlink:href="#DejaVuSans-30"/>
       <use x="254.492188" xlink:href="#DejaVuSans-30"/>
      </g>
     </g>
    </g>
    <g id="ytick_5">
     <g id="line2d_13">
      <g>
       <use style="stroke:#000000;stroke-width:0.8;" x="57.6" xlink:href="#m6abe613f5a" y="149.374168"/>
      </g>
     </g>
     <g id="text_14">
      <!-- 100000 -->
      <g transform="translate(12.425 153.173387)scale(0.1 -0.1)">
       <use xlink:href="#DejaVuSans-31"/>
       <use x="63.623047" xlink:href="#DejaVuSans-30"/>
       <use x="127.246094" xlink:href="#DejaVuSans-30"/>
       <use x="190.869141" xlink:href="#DejaVuSans-30"/>
       <use x="254.492188" xlink:href="#DejaVuSans-30"/>
       <use x="318.115234" xlink:href="#DejaVuSans-30"/>
      </g>
     </g>
    </g>
    <g id="ytick_6">
     <g id="line2d_14">
      <g>
       <use style="stroke:#000000;stroke-width:0.8;" x="57.6" xlink:href="#m6abe613f5a" y="117.810393"/>
      </g>
     </g>
     <g id="text_15">
      <!-- 105000 -->
      <g transform="translate(12.425 121.609612)scale(0.1 -0.1)">
       <use xlink:href="#DejaVuSans-31"/>
       <use x="63.623047" xlink:href="#DejaVuSans-30"/>
       <use x="127.246094" xlink:href="#DejaVuSans-35"/>
       <use x="190.869141" xlink:href="#DejaVuSans-30"/>
       <use x="254.492188" xlink:href="#DejaVuSans-30"/>
       <use x="318.115234" xlink:href="#DejaVuSans-30"/>
      </g>
     </g>
    </g>
    <g id="ytick_7">
     <g id="line2d_15">
      <g>
       <use style="stroke:#000000;stroke-width:0.8;" x="57.6" xlink:href="#m6abe613f5a" y="86.246617"/>
      </g>
     </g>
     <g id="text_16">
      <!-- 110000 -->
      <g transform="translate(12.425 90.045836)scale(0.1 -0.1)">
       <use xlink:href="#DejaVuSans-31"/>
       <use x="63.623047" xlink:href="#DejaVuSans-31"/>
       <use x="127.246094" xlink:href="#DejaVuSans-30"/>
       <use x="190.869141" xlink:href="#DejaVuSans-30"/>
       <use x="254.492188" xlink:href="#DejaVuSans-30"/>
       <use x="318.115234" xlink:href="#DejaVuSans-30"/>
      </g>
     </g>
    </g>
    <g id="ytick_8">
     <g id="line2d_16">
      <g>
       <use style="stroke:#000000;stroke-width:0.8;" x="57.6" xlink:href="#m6abe613f5a" y="54.682842"/>
      </g>
     </g>
     <g id="text_17">
      <!-- 115000 -->
      <g transform="translate(12.425 58.482061)scale(0.1 -0.1)">
       <use xlink:href="#DejaVuSans-31"/>
       <use x="63.623047" xlink:href="#DejaVuSans-31"/>
       <use x="127.246094" xlink:href="#DejaVuSans-35"/>
       <use x="190.869141" xlink:href="#DejaVuSans-30"/>
       <use x="254.492188" xlink:href="#DejaVuSans-30"/>
       <use x="318.115234" xlink:href="#DejaVuSans-30"/>
      </g>
     </g>
    </g>
   </g>
   <g id="line2d_17">
    <path clip-path="url(#p415d6572fd)" d="M 73.832727 149.374168 
L 75.22014 149.544886 
L 76.607552 146.874123 
L 77.994965 150.513779 
L 79.382378 144.782095 
L 83.544615 140.38773 
L 84.932028 139.547103 
L 86.319441 141.24887 
L 87.706853 140.243927 
L 89.094266 140.908216 
L 94.643916 140.918229 
L 96.031329 142.823093 
L 97.418741 145.017128 
L 98.806154 150.586664 
L 102.968392 145.286398 
L 104.355804 154.488451 
L 105.743217 150.360512 
L 107.130629 151.411027 
L 108.518042 157.893765 
L 112.68028 168.957464 
L 114.067692 170.735761 
L 115.455105 165.546071 
L 116.842517 155.690793 
L 118.22993 150.660977 
L 122.392168 145.725004 
L 123.77958 159.45375 
L 125.166993 157.257433 
L 126.554406 162.034263 
L 127.941818 152.630337 
L 132.104056 164.64106 
L 133.491469 154.823316 
L 134.878881 152.541779 
L 136.266294 152.207722 
L 137.653706 151.603566 
L 141.815944 150.514186 
L 143.203357 149.980328 
L 144.590769 158.095782 
L 145.978182 145.741082 
L 147.365594 144.740657 
L 151.527832 139.749303 
L 152.915245 133.306299 
L 154.302657 130.861291 
L 155.69007 142.136933 
L 157.077483 150.104641 
L 161.23972 149.478876 
L 162.627133 155.254205 
L 164.014545 156.416238 
L 165.401958 148.448379 
L 166.789371 156.66672 
L 170.951608 144.163931 
L 172.339021 143.891835 
L 173.726434 138.036367 
L 175.113846 145.801003 
L 176.501259 141.426154 
L 180.663497 140.865912 
L 182.050909 148.646728 
L 183.438322 148.696817 
L 184.825734 153.419683 
L 186.213147 148.318266 
L 190.375385 146.497084 
L 191.762797 146.504542 
L 193.15021 150.026725 
L 194.537622 151.540555 
L 195.925035 152.269189 
L 200.087273 148.355883 
L 201.474685 142.690286 
L 202.862098 143.758797 
L 205.636923 143.680712 
L 209.799161 149.067361 
L 211.186573 161.300961 
L 212.573986 169.732653 
L 213.961399 162.05372 
L 215.348811 166.040911 
L 219.511049 154.846793 
L 220.898462 143.484055 
L 222.285874 138.57243 
L 223.673287 138.433641 
L 225.060699 136.029153 
L 229.222937 142.372559 
L 230.61035 139.051069 
L 231.997762 135.304853 
L 233.385175 133.134837 
L 234.772587 140.254603 
L 238.934825 149.208403 
L 240.322238 134.186942 
L 241.70965 131.523082 
L 243.097063 125.654219 
L 248.646713 117.310501 
L 251.421538 117.88066 
L 252.808951 118.560583 
L 254.196364 121.610022 
L 258.358601 111.918936 
L 259.746014 103.269274 
L 261.133427 120.883406 
L 262.520839 114.71097 
L 263.908252 112.592611 
L 268.07049 112.036833 
L 269.457902 106.122609 
L 270.845315 105.00047 
L 272.232727 113.42283 
L 273.62014 111.27031 
L 280.557203 128.675367 
L 281.944615 136.230233 
L 283.332028 151.250112 
L 287.494266 150.266977 
L 288.881678 157.930978 
L 290.269091 158.06487 
L 291.656503 161.572987 
L 293.043916 146.022268 
L 297.206154 132.061962 
L 298.593566 126.008886 
L 299.980979 116.024684 
L 301.368392 158.395545 
L 302.755804 158.618491 
L 306.918042 169.00957 
L 308.305455 170.41129 
L 309.692867 156.536241 
L 311.08028 168.027607 
L 312.467692 181.859312 
L 316.62993 186.010101 
L 318.017343 178.167535 
L 319.404755 181.687902 
L 320.792168 192.797206 
L 322.17958 195.999265 
L 327.729231 202.354277 
L 329.116643 210.840388 
L 330.504056 198.200821 
L 331.891469 187.143589 
L 336.053706 189.250447 
L 337.441119 198.803673 
L 338.828531 186.126662 
L 340.215944 188.602466 
L 341.603357 193.072455 
L 345.765594 217.061688 
L 347.153007 217.187223 
L 348.54042 193.779151 
L 349.927832 201.350391 
L 351.315245 211.829157 
L 355.477483 214.190613 
L 356.864895 202.579754 
L 358.252308 184.441799 
L 359.63972 177.326844 
L 361.027133 166.638729 
L 365.189371 168.847377 
L 366.576783 157.337925 
L 367.964196 164.182677 
L 369.351608 153.628288 
L 370.739021 147.120645 
L 374.901259 144.901774 
L 376.288671 139.212675 
L 377.676084 141.687588 
L 379.063497 155.759501 
L 380.450909 153.297946 
L 384.613147 145.53975 
L 386.000559 152.596131 
L 387.387972 162.295974 
L 388.775385 163.614429 
L 390.162797 164.733087 
L 395.712448 179.962864 
L 397.09986 176.938237 
L 398.487273 197.398394 
L 398.487273 197.398394 
" style="fill:none;stroke:#0000ff;stroke-linecap:square;stroke-opacity:0.9;stroke-width:2;"/>
   </g>
   <g id="line2d_18">
    <path clip-path="url(#p415d6572fd)" d="M 73.832727 149.374168 
L 75.22014 146.050011 
L 76.607552 143.24066 
L 77.994965 146.903322 
L 79.382378 139.476605 
L 83.544615 137.130645 
L 84.932028 136.509096 
L 86.319441 136.290103 
L 87.706853 137.535165 
L 89.094266 137.157081 
L 94.643916 136.116631 
L 96.031329 138.674044 
L 97.418741 139.594118 
L 98.806154 146.78781 
L 102.968392 142.132227 
L 104.355804 147.745539 
L 105.743217 144.85198 
L 107.130629 146.921962 
L 108.518042 154.887729 
L 112.68028 165.031105 
L 114.067692 165.279161 
L 115.455105 161.499672 
L 116.842517 153.304966 
L 118.22993 148.536666 
L 122.392168 144.713138 
L 123.77958 157.490995 
L 125.166993 156.569137 
L 126.554406 162.392884 
L 127.941818 153.46462 
L 132.104056 160.074673 
L 133.491469 151.36433 
L 136.266294 148.23641 
L 137.653706 144.919822 
L 141.815944 148.856584 
L 143.203357 153.338586 
L 144.590769 155.596941 
L 145.978182 139.987677 
L 147.365594 135.549395 
L 151.527832 133.767776 
L 152.915245 128.696664 
L 154.302657 124.960008 
L 155.69007 133.718786 
L 157.077483 136.573153 
L 161.23972 138.696119 
L 162.627133 141.779432 
L 164.014545 145.392048 
L 165.401958 136.825544 
L 166.789371 135.400016 
L 170.951608 135.021742 
L 172.339021 133.085777 
L 173.726434 128.120446 
L 175.113846 129.300881 
L 176.501259 129.502808 
L 180.663497 128.194294 
L 182.050909 133.454268 
L 183.438322 136.761179 
L 184.825734 136.923024 
L 186.213147 132.346059 
L 190.375385 131.033109 
L 191.762797 132.233067 
L 193.15021 133.171022 
L 194.537622 132.757124 
L 195.925035 135.57376 
L 200.087273 132.329384 
L 201.474685 126.280297 
L 202.862098 126.075599 
L 205.636923 142.7619 
L 209.799161 135.77586 
L 211.186573 149.44564 
L 212.573986 156.464538 
L 213.961399 147.748773 
L 215.348811 153.0539 
L 219.511049 143.827557 
L 220.898462 132.54277 
L 222.285874 129.19253 
L 223.673287 129.402521 
L 225.060699 125.015604 
L 229.222937 131.878044 
L 230.61035 131.593872 
L 231.997762 126.480217 
L 233.385175 126.241447 
L 234.772587 134.7287 
L 238.934825 142.40409 
L 240.322238 129.937039 
L 241.70965 125.836745 
L 243.097063 120.438523 
L 248.646713 112.026231 
L 250.034126 112.519484 
L 251.421538 112.070331 
L 252.808951 112.924541 
L 254.196364 115.651719 
L 258.358601 108.384303 
L 259.746014 101.798555 
L 261.133427 116.314721 
L 262.520839 113.567467 
L 263.908252 110.512126 
L 268.07049 110.860076 
L 269.457902 107.093399 
L 270.845315 106.953194 
L 272.232727 111.976364 
L 273.62014 112.320815 
L 279.16979 126.625267 
L 281.944615 139.318458 
L 283.332028 152.319891 
L 287.494266 153.510913 
L 288.881678 152.230083 
L 290.269091 153.073316 
L 291.656503 158.270749 
L 293.043916 143.541846 
L 297.206154 133.155171 
L 298.593566 125.496327 
L 299.980979 115.705823 
L 301.368392 144.62673 
L 302.755804 139.511205 
L 306.918042 144.026771 
L 308.305455 139.572256 
L 309.692867 133.809193 
L 311.08028 144.260221 
L 312.467692 157.407751 
L 316.62993 163.394736 
L 318.017343 156.184047 
L 319.404755 157.773571 
L 320.792168 169.318492 
L 322.17958 172.775776 
L 327.729231 177.840941 
L 329.116643 186.352925 
L 330.504056 182.819016 
L 331.891469 168.586194 
L 336.053706 174.553702 
L 337.441119 187.232998 
L 338.828531 172.67782 
L 340.215944 174.391742 
L 341.603357 183.058303 
L 345.765594 204.181571 
L 347.153007 206.740132 
L 348.54042 185.92845 
L 349.927832 193.470502 
L 351.315245 199.999399 
L 355.477483 200.245328 
L 356.864895 190.404767 
L 358.252308 176.951651 
L 359.63972 171.239806 
L 361.027133 164.918986 
L 365.189371 164.886034 
L 366.576783 154.549843 
L 367.964196 160.915536 
L 369.351608 151.69692 
L 370.739021 144.288887 
L 374.901259 144.010701 
L 376.288671 140.500276 
L 377.676084 141.53528 
L 379.063497 153.502994 
L 380.450909 150.608298 
L 384.613147 146.388733 
L 386.000559 152.48322 
L 387.387972 160.611873 
L 388.775385 160.855796 
L 390.162797 160.44065 
L 395.712448 172.947111 
L 397.09986 170.841487 
L 398.487273 179.482357 
L 398.487273 179.482357 
" style="fill:none;stroke:#ff0000;stroke-linecap:square;stroke-opacity:0.9;stroke-width:2;"/>
   </g>
   <g id="line2d_19">
    <path clip-path="url(#p415d6572fd)" d="M 73.832727 149.374168 
L 75.22014 146.220685 
L 76.607552 143.406076 
L 77.994965 146.987598 
L 79.382378 140.945564 
L 83.544615 136.642984 
L 84.932028 135.925293 
L 86.319441 137.226131 
L 87.706853 136.504121 
L 89.094266 136.986586 
L 94.643916 137.050003 
L 96.031329 138.992178 
L 97.418741 140.578393 
L 98.806154 146.519776 
L 102.968392 140.869272 
L 104.355804 149.833429 
L 105.743217 146.105693 
L 107.130629 147.289568 
L 108.518042 153.249744 
L 112.68028 164.2279 
L 114.067692 166.077858 
L 115.455105 161.331869 
L 116.842517 151.160656 
L 118.22993 145.754569 
L 122.392168 140.364879 
L 123.77958 153.756438 
L 125.166993 151.974948 
L 126.554406 156.565178 
L 127.941818 146.609255 
L 132.104056 158.714967 
L 133.491469 149.339754 
L 134.878881 146.914936 
L 136.266294 144.918434 
L 137.653706 142.202512 
L 141.815944 145.714175 
L 143.203357 151.149326 
L 144.590769 152.266936 
L 145.978182 139.850918 
L 147.365594 138.630107 
L 151.527832 133.516858 
L 152.915245 126.832042 
L 154.302657 123.941543 
L 155.69007 134.654771 
L 157.077483 143.114055 
L 161.23972 142.767618 
L 162.627133 148.717957 
L 164.014545 149.921786 
L 165.401958 142.048549 
L 166.789371 140.56088 
L 170.951608 137.048993 
L 172.339021 136.308937 
L 173.726434 131.295879 
L 175.113846 130.681505 
L 176.501259 125.954677 
L 180.663497 125.739332 
L 182.050909 133.869385 
L 183.438322 138.565457 
L 184.825734 139.01906 
L 186.213147 133.62913 
L 190.375385 131.94154 
L 191.762797 134.589953 
L 193.15021 135.144655 
L 194.537622 136.648132 
L 195.925035 136.867072 
L 200.087273 132.925453 
L 201.474685 127.346644 
L 202.862098 128.186116 
L 205.636923 142.743438 
L 209.799161 134.781418 
L 211.186573 147.065181 
L 212.573986 155.786376 
L 213.961399 148.137724 
L 215.348811 152.581292 
L 219.511049 140.168412 
L 220.898462 129.141736 
L 222.285874 123.975361 
L 223.673287 123.704982 
L 225.060699 121.189146 
L 229.222937 127.429996 
L 230.61035 124.657832 
L 231.997762 120.740628 
L 233.385175 118.411974 
L 234.772587 125.900032 
L 238.934825 134.598515 
L 240.322238 119.621804 
L 241.70965 116.518329 
L 243.097063 110.624475 
L 248.646713 102.389987 
L 250.034126 102.815223 
L 251.421538 102.262367 
L 252.808951 103.709219 
L 254.196364 106.670063 
L 258.358601 96.326075 
L 259.746014 87.827428 
L 261.133427 105.495527 
L 262.520839 98.518472 
L 263.908252 96.065926 
L 268.07049 94.729763 
L 269.457902 88.298989 
L 270.845315 87.025199 
L 272.232727 95.181469 
L 273.62014 93.24584 
L 279.16979 108.08066 
L 280.557203 111.101229 
L 281.944615 118.686937 
L 283.332028 134.413425 
L 287.494266 133.243592 
L 288.881678 140.979308 
L 290.269091 140.896382 
L 291.656503 144.823391 
L 293.043916 128.354821 
L 297.206154 114.664433 
L 298.593566 108.183046 
L 299.980979 96.891801 
L 301.368392 142.773106 
L 302.755804 141.793899 
L 306.918042 152.896126 
L 308.305455 154.231454 
L 309.692867 140.503294 
L 311.08028 151.928764 
L 312.467692 165.679122 
L 316.62993 170.358207 
L 318.017343 162.207168 
L 319.404755 165.5985 
L 320.792168 177.31895 
L 322.17958 180.775133 
L 327.729231 186.730147 
L 329.116643 195.026983 
L 330.504056 181.546923 
L 331.891469 170.577413 
L 336.053706 172.394968 
L 337.441119 181.79702 
L 338.828531 169.224621 
L 340.215944 172.690713 
L 345.765594 206.694117 
L 347.153007 204.087994 
L 348.54042 178.564765 
L 351.315245 197.079069 
L 355.477483 197.972625 
L 356.864895 186.446647 
L 358.252308 166.370051 
L 359.63972 159.416755 
L 361.027133 149.895618 
L 365.189371 152.801557 
L 366.576783 139.335056 
L 367.964196 146.783079 
L 369.351608 137.387372 
L 370.739021 129.758162 
L 374.901259 129.127582 
L 376.288671 124.159745 
L 377.676084 127.344167 
L 379.063497 143.821053 
L 380.450909 142.837924 
L 384.613147 136.850165 
L 386.000559 144.761326 
L 387.387972 154.317959 
L 388.775385 156.899111 
L 390.162797 156.911999 
L 395.712448 170.670995 
L 397.09986 167.726858 
L 398.487273 179.649275 
L 398.487273 179.649275 
" style="fill:none;stroke:#ff8040;stroke-linecap:square;stroke-opacity:0.9;stroke-width:2;"/>
   </g>
   <g id="line2d_20">
    <path clip-path="url(#p415d6572fd)" d="M 73.832727 150.005444 
L 75.22014 148.549744 
L 76.607552 146.698206 
L 77.994965 150.789194 
L 79.382378 144.942199 
L 83.544615 145.179288 
L 84.932028 145.470133 
L 86.319441 144.889983 
L 87.706853 147.586308 
L 89.094266 147.59451 
L 94.643916 149.187426 
L 96.031329 149.311408 
L 97.418741 150.996109 
L 98.806154 159.000727 
L 102.968392 154.420748 
L 104.355804 160.635079 
L 105.743217 157.540405 
L 107.130629 158.844103 
L 108.518042 165.743536 
L 112.68028 178.777991 
L 114.067692 178.467803 
L 115.455105 179.933251 
L 116.842517 171.170268 
L 118.22993 166.460106 
L 122.392168 161.75137 
L 123.77958 175.841828 
L 125.166993 174.06343 
L 126.554406 180.623487 
L 127.941818 172.656934 
L 132.104056 184.308647 
L 133.491469 174.77296 
L 134.878881 173.809997 
L 136.266294 172.662922 
L 137.653706 169.048101 
L 141.815944 173.668579 
L 143.203357 178.711221 
L 144.590769 180.655252 
L 145.978182 165.399792 
L 147.365594 159.314416 
L 151.527832 157.968969 
L 152.915245 153.352931 
L 154.302657 150.127205 
L 155.69007 158.479691 
L 157.077483 164.712649 
L 161.23972 167.315869 
L 162.627133 173.740163 
L 164.014545 178.093364 
L 165.401958 170.791247 
L 166.789371 168.977525 
L 170.951608 167.171575 
L 172.339021 163.559104 
L 173.726434 156.828301 
L 175.113846 156.998164 
L 176.501259 157.568089 
L 180.663497 156.731197 
L 182.050909 160.899336 
L 183.438322 164.705638 
L 184.825734 164.590387 
L 186.213147 160.675775 
L 190.375385 160.51855 
L 191.762797 166.02343 
L 193.15021 166.331368 
L 194.537622 165.461204 
L 195.925035 169.350033 
L 200.087273 164.037101 
L 201.474685 156.358114 
L 202.862098 156.114025 
L 205.636923 171.062862 
L 209.799161 162.125923 
L 211.186573 178.846462 
L 212.573986 186.707306 
L 213.961399 177.446233 
L 215.348811 182.724481 
L 219.511049 174.64239 
L 220.898462 167.006463 
L 222.285874 162.002862 
L 223.673287 163.44275 
L 225.060699 160.258952 
L 229.222937 164.756113 
L 230.61035 164.337539 
L 231.997762 162.353666 
L 233.385175 162.615798 
L 234.772587 172.563834 
L 238.934825 181.103901 
L 240.322238 170.872509 
L 241.70965 167.461759 
L 243.097063 164.622777 
L 248.646713 158.816069 
L 250.034126 160.262906 
L 251.421538 160.566806 
L 252.808951 161.396185 
L 254.196364 162.379367 
L 258.358601 155.067684 
L 259.746014 148.196323 
L 261.133427 162.878282 
L 262.520839 158.96531 
L 263.908252 158.750421 
L 268.07049 158.380188 
L 269.457902 152.687231 
L 270.845315 151.021432 
L 272.232727 155.071092 
L 273.62014 154.843929 
L 279.16979 168.222374 
L 280.557203 174.33731 
L 281.944615 179.467724 
L 283.332028 193.219672 
L 287.494266 194.591505 
L 288.881678 189.210491 
L 290.269091 191.927323 
L 291.656503 197.880649 
L 293.043916 184.293333 
L 297.206154 176.351078 
L 298.593566 169.938106 
L 299.980979 159.901548 
L 301.368392 211.169118 
L 302.755804 207.632162 
L 306.918042 214.698568 
L 308.305455 212.601358 
L 309.692867 208.307782 
L 311.08028 217.793079 
L 312.467692 228.435521 
L 316.62993 233.026858 
L 318.017343 224.3545 
L 319.404755 226.632736 
L 320.792168 238.461438 
L 322.17958 240.468069 
L 327.729231 245.647582 
L 329.116643 252.369346 
L 330.504056 244.806053 
L 331.891469 231.291324 
L 336.053706 235.750446 
L 337.441119 245.323108 
L 338.828531 232.24347 
L 340.215944 236.23185 
L 341.603357 241.618735 
L 345.765594 263.318763 
L 347.153007 265.797818 
L 348.54042 246.398244 
L 349.927832 253.641188 
L 351.315245 262.012968 
L 355.477483 263.163953 
L 356.864895 256.116522 
L 358.252308 243.666186 
L 359.63972 237.25814 
L 361.027133 231.460975 
L 365.189371 233.569588 
L 366.576783 224.723426 
L 367.964196 233.604793 
L 369.351608 226.804628 
L 370.739021 219.214138 
L 374.901259 217.598116 
L 376.288671 213.033115 
L 377.676084 215.233288 
L 379.063497 224.972618 
L 380.450909 221.271404 
L 384.613147 218.384755 
L 386.000559 223.321062 
L 387.387972 232.665838 
L 388.775385 234.298336 
L 390.162797 235.268527 
L 394.325035 245.250698 
L 395.712448 249.622589 
L 397.09986 246.844824 
L 398.487273 254.58427 
L 398.487273 254.58427 
" style="fill:none;stroke:#0d0d0d;stroke-linecap:square;stroke-opacity:0.25;stroke-width:2;"/>
   </g>
   <g id="line2d_21">
    <path clip-path="url(#p415d6572fd)" d="M 73.832727 148.742893 
L 75.22014 143.357906 
L 76.607552 139.127593 
L 77.994965 142.605279 
L 79.382378 134.581516 
L 84.932028 126.697642 
L 86.319441 125.41716 
L 87.706853 126.184747 
L 89.094266 125.157902 
L 94.643916 122.4068 
L 96.031329 122.394269 
L 97.418741 123.594498 
L 98.806154 133.399576 
L 102.968392 129.111504 
L 104.355804 133.979291 
L 105.743217 131.360886 
L 107.130629 133.136873 
L 108.518042 140.423523 
L 112.68028 149.603622 
L 114.067692 148.43631 
L 115.455105 145.74096 
L 116.842517 136.901383 
L 118.22993 131.020361 
L 122.392168 125.895252 
L 123.77958 138.194713 
L 125.166993 137.158669 
L 126.554406 143.364669 
L 127.941818 130.591795 
L 132.104056 139.370897 
L 133.491469 129.952756 
L 134.878881 126.864562 
L 137.653706 121.859244 
L 141.815944 125.037448 
L 143.203357 129.274514 
L 144.590769 128.764192 
L 145.978182 114.612605 
L 147.365594 109.745734 
L 151.527832 110.891895 
L 154.302657 99.428389 
L 155.69007 107.971478 
L 157.077483 109.319675 
L 161.23972 110.040436 
L 162.627133 114.870382 
L 164.014545 111.902465 
L 165.401958 102.690182 
L 166.789371 101.369837 
L 170.951608 97.608118 
L 172.339021 95.739747 
L 173.726434 91.233909 
L 175.113846 92.149925 
L 176.501259 87.939195 
L 180.663497 87.794068 
L 182.050909 92.893785 
L 183.438322 100.500937 
L 184.825734 99.55591 
L 186.213147 95.261352 
L 190.375385 93.413971 
L 191.762797 94.973575 
L 193.15021 96.9018 
L 194.537622 96.483457 
L 195.925035 98.468248 
L 200.087273 97.909786 
L 201.474685 88.149731 
L 202.862098 87.396301 
L 205.636923 103.832741 
L 209.799161 95.779281 
L 211.186573 114.295177 
L 212.573986 122.526798 
L 213.961399 106.845669 
L 215.348811 109.783706 
L 219.511049 100.127642 
L 220.898462 90.17389 
L 222.285874 83.989146 
L 223.673287 83.499676 
L 225.060699 77.831716 
L 229.222937 85.177395 
L 230.61035 83.214348 
L 231.997762 81.871976 
L 233.385175 78.96917 
L 234.772587 90.330822 
L 238.934825 98.163945 
L 240.322238 84.558604 
L 241.70965 80.845901 
L 243.097063 74.470896 
L 248.646713 68.477571 
L 250.034126 69.740855 
L 251.421538 68.912249 
L 252.808951 68.914173 
L 254.196364 72.985044 
L 258.358601 63.734219 
L 259.746014 55.026089 
L 261.133427 71.150722 
L 262.520839 62.089706 
L 263.908252 56.643359 
L 268.07049 58.989022 
L 269.457902 52.154182 
L 270.845315 54.001834 
L 272.232727 58.582632 
L 273.62014 58.817115 
L 279.16979 72.420007 
L 280.557203 82.418439 
L 281.944615 89.789038 
L 283.332028 103.673373 
L 287.494266 105.345209 
L 288.881678 102.590115 
L 290.269091 104.707248 
L 291.656503 109.487879 
L 293.043916 97.168217 
L 297.206154 83.297249 
L 298.593566 74.274004 
L 299.980979 60.136582 
L 301.368392 84.123716 
L 302.755804 77.64963 
L 306.918042 82.103652 
L 308.305455 79.443658 
L 309.692867 72.69833 
L 311.08028 82.621123 
L 312.467692 97.927073 
L 316.62993 102.317191 
L 318.017343 94.082501 
L 319.404755 96.81539 
L 320.792168 109.07644 
L 322.17958 112.848546 
L 327.729231 116.538894 
L 329.116643 126.884928 
L 330.504056 124.933167 
L 331.891469 111.500292 
L 336.053706 116.524795 
L 337.441119 125.528772 
L 338.828531 107.754825 
L 340.215944 105.885675 
L 341.603357 119.736407 
L 345.765594 142.328744 
L 347.153007 141.559706 
L 348.54042 115.672722 
L 349.927832 123.814085 
L 351.315245 132.812552 
L 355.477483 129.285868 
L 356.864895 119.031743 
L 358.252308 98.048288 
L 361.027133 81.863058 
L 365.189371 83.098594 
L 366.576783 71.370988 
L 367.964196 82.599934 
L 369.351608 70.341192 
L 370.739021 63.029498 
L 374.901259 59.785314 
L 376.288671 54.078563 
L 377.676084 55.775644 
L 379.063497 72.169608 
L 384.613147 59.235504 
L 386.000559 67.656605 
L 387.387972 79.388814 
L 388.775385 78.652042 
L 390.162797 75.577612 
L 394.325035 87.614843 
L 395.712448 93.674237 
L 397.09986 89.984048 
L 398.487273 102.066634 
L 398.487273 102.066634 
" style="fill:none;stroke:#0d0d0d;stroke-linecap:square;stroke-opacity:0.25;stroke-width:2;"/>
   </g>
   <g id="patch_3">
    <path d="M 57.6 276.48 
L 57.6 41.472 
" style="fill:none;stroke:#000000;stroke-linecap:square;stroke-linejoin:miter;stroke-width:0.8;"/>
   </g>
   <g id="patch_4">
    <path d="M 414.72 276.48 
L 414.72 41.472 
" style="fill:none;stroke:#000000;stroke-linecap:square;stroke-linejoin:miter;stroke-width:0.8;"/>
   </g>
   <g id="patch_5">
    <path d="M 57.6 276.48 
L 414.72 276.48 
" style="fill:none;stroke:#000000;stroke-linecap:square;stroke-linejoin:miter;stroke-width:0.8;"/>
   </g>
   <g id="patch_6">
    <path d="M 57.6 41.472 
L 414.72 41.472 
" style="fill:none;stroke:#000000;stroke-linecap:square;stroke-linejoin:miter;stroke-width:0.8;"/>
   </g>
   <g id="text_18">
    <!-- TESTFUNDS1550 -->
    <g transform="translate(185.200312 22.034625)scale(0.12 -0.12)">
     <defs>
      <path d="M -19 4666 
L 3928 4666 
L 3928 4134 
L 2272 4134 
L 2272 0 
L 1638 0 
L 1638 4134 
L -19 4134 
L -19 4666 
z
" id="DejaVuSans-54" transform="scale(0.015625)"/>
      <path d="M 628 4666 
L 3578 4666 
L 3578 4134 
L 1259 4134 
L 1259 2753 
L 3481 2753 
L 3481 2222 
L 1259 2222 
L 1259 531 
L 3634 531 
L 3634 0 
L 628 0 
L 628 4666 
z
" id="DejaVuSans-45" transform="scale(0.015625)"/>
      <path d="M 3425 4513 
L 3425 3897 
Q 3066 4069 2747 4153 
Q 2428 4238 2131 4238 
Q 1616 4238 1336 4038 
Q 1056 3838 1056 3469 
Q 1056 3159 1242 3001 
Q 1428 2844 1947 2747 
L 2328 2669 
Q 3034 2534 3370 2195 
Q 3706 1856 3706 1288 
Q 3706 609 3251 259 
Q 2797 -91 1919 -91 
Q 1588 -91 1214 -16 
Q 841 59 441 206 
L 441 856 
Q 825 641 1194 531 
Q 1563 422 1919 422 
Q 2459 422 2753 634 
Q 3047 847 3047 1241 
Q 3047 1584 2836 1778 
Q 2625 1972 2144 2069 
L 1759 2144 
Q 1053 2284 737 2584 
Q 422 2884 422 3419 
Q 422 4038 858 4394 
Q 1294 4750 2059 4750 
Q 2388 4750 2728 4690 
Q 3069 4631 3425 4513 
z
" id="DejaVuSans-53" transform="scale(0.015625)"/>
      <path d="M 628 4666 
L 3309 4666 
L 3309 4134 
L 1259 4134 
L 1259 2759 
L 3109 2759 
L 3109 2228 
L 1259 2228 
L 1259 0 
L 628 0 
L 628 4666 
z
" id="DejaVuSans-46" transform="scale(0.015625)"/>
      <path d="M 556 4666 
L 1191 4666 
L 1191 1831 
Q 1191 1081 1462 751 
Q 1734 422 2344 422 
Q 2950 422 3222 751 
Q 3494 1081 3494 1831 
L 3494 4666 
L 4128 4666 
L 4128 1753 
Q 4128 841 3676 375 
Q 3225 -91 2344 -91 
Q 1459 -91 1007 375 
Q 556 841 556 1753 
L 556 4666 
z
" id="DejaVuSans-55" transform="scale(0.015625)"/>
      <path d="M 628 4666 
L 1478 4666 
L 3547 763 
L 3547 4666 
L 4159 4666 
L 4159 0 
L 3309 0 
L 1241 3903 
L 1241 0 
L 628 0 
L 628 4666 
z
" id="DejaVuSans-4e" transform="scale(0.015625)"/>
      <path d="M 1259 4147 
L 1259 519 
L 2022 519 
Q 2988 519 3436 956 
Q 3884 1394 3884 2338 
Q 3884 3275 3436 3711 
Q 2988 4147 2022 4147 
L 1259 4147 
z
M 628 4666 
L 1925 4666 
Q 3281 4666 3915 4102 
Q 4550 3538 4550 2338 
Q 4550 1131 3912 565 
Q 3275 0 1925 0 
L 628 0 
L 628 4666 
z
" id="DejaVuSans-44" transform="scale(0.015625)"/>
     </defs>
     <use xlink:href="#DejaVuSans-54"/>
     <use x="61.083984" xlink:href="#DejaVuSans-45"/>
     <use x="124.267578" xlink:href="#DejaVuSans-53"/>
     <use x="187.744141" xlink:href="#DejaVuSans-54"/>
     <use x="248.828125" xlink:href="#DejaVuSans-46"/>
     <use x="306.347656" xlink:href="#DejaVuSans-55"/>
     <use x="379.541016" xlink:href="#DejaVuSans-4e"/>
     <use x="454.345703" xlink:href="#DejaVuSans-44"/>
     <use x="531.347656" xlink:href="#DejaVuSans-53"/>
     <use x="594.824219" xlink:href="#DejaVuSans-31"/>
     <use x="658.447266" xlink:href="#DejaVuSans-35"/>
     <use x="722.070312" xlink:href="#DejaVuSans-35"/>
     <use x="785.693359" xlink:href="#DejaVuSans-30"/>
    </g>
    <!-- daily_report -->
    <g transform="translate(200.466563 35.472)scale(0.12 -0.12)">
     <defs>
      <path d="M 603 3500 
L 1178 3500 
L 1178 0 
L 603 0 
L 603 3500 
z
M 603 4863 
L 1178 4863 
L 1178 4134 
L 603 4134 
L 603 4863 
z
" id="DejaVuSans-69" transform="scale(0.015625)"/>
      <path d="M 603 4863 
L 1178 4863 
L 1178 0 
L 603 0 
L 603 4863 
z
" id="DejaVuSans-6c" transform="scale(0.015625)"/>
      <path d="M 2059 -325 
Q 1816 -950 1584 -1140 
Q 1353 -1331 966 -1331 
L 506 -1331 
L 506 -850 
L 844 -850 
Q 1081 -850 1212 -737 
Q 1344 -625 1503 -206 
L 1606 56 
L 191 3500 
L 800 3500 
L 1894 763 
L 2988 3500 
L 3597 3500 
L 2059 -325 
z
" id="DejaVuSans-79" transform="scale(0.015625)"/>
      <path d="M 3263 -1063 
L 3263 -1509 
L -63 -1509 
L -63 -1063 
L 3263 -1063 
z
" id="DejaVuSans-5f" transform="scale(0.015625)"/>
      <path d="M 2631 2963 
Q 2534 3019 2420 3045 
Q 2306 3072 2169 3072 
Q 1681 3072 1420 2755 
Q 1159 2438 1159 1844 
L 1159 0 
L 581 0 
L 581 3500 
L 1159 3500 
L 1159 2956 
Q 1341 3275 1631 3429 
Q 1922 3584 2338 3584 
Q 2397 3584 2469 3576 
Q 2541 3569 2628 3553 
L 2631 2963 
z
" id="DejaVuSans-72" transform="scale(0.015625)"/>
      <path d="M 1159 525 
L 1159 -1331 
L 581 -1331 
L 581 3500 
L 1159 3500 
L 1159 2969 
Q 1341 3281 1617 3432 
Q 1894 3584 2278 3584 
Q 2916 3584 3314 3078 
Q 3713 2572 3713 1747 
Q 3713 922 3314 415 
Q 2916 -91 2278 -91 
Q 1894 -91 1617 61 
Q 1341 213 1159 525 
z
M 3116 1747 
Q 3116 2381 2855 2742 
Q 2594 3103 2138 3103 
Q 1681 3103 1420 2742 
Q 1159 2381 1159 1747 
Q 1159 1113 1420 752 
Q 1681 391 2138 391 
Q 2594 391 2855 752 
Q 3116 1113 3116 1747 
z
" id="DejaVuSans-70" transform="scale(0.015625)"/>
      <path d="M 1959 3097 
Q 1497 3097 1228 2736 
Q 959 2375 959 1747 
Q 959 1119 1226 758 
Q 1494 397 1959 397 
Q 2419 397 2687 759 
Q 2956 1122 2956 1747 
Q 2956 2369 2687 2733 
Q 2419 3097 1959 3097 
z
M 1959 3584 
Q 2709 3584 3137 3096 
Q 3566 2609 3566 1747 
Q 3566 888 3137 398 
Q 2709 -91 1959 -91 
Q 1206 -91 779 398 
Q 353 888 353 1747 
Q 353 2609 779 3096 
Q 1206 3584 1959 3584 
z
" id="DejaVuSans-6f" transform="scale(0.015625)"/>
     </defs>
     <use xlink:href="#DejaVuSans-64"/>
     <use x="63.476562" xlink:href="#DejaVuSans-61"/>
     <use x="124.755859" xlink:href="#DejaVuSans-69"/>
     <use x="152.539062" xlink:href="#DejaVuSans-6c"/>
     <use x="180.322266" xlink:href="#DejaVuSans-79"/>
     <use x="239.501953" xlink:href="#DejaVuSans-5f"/>
     <use x="289.501953" xlink:href="#DejaVuSans-72"/>
     <use x="328.365234" xlink:href="#DejaVuSans-65"/>
     <use x="389.888672" xlink:href="#DejaVuSans-70"/>
     <use x="453.365234" xlink:href="#DejaVuSans-6f"/>
     <use x="514.546875" xlink:href="#DejaVuSans-72"/>
     <use x="555.660156" xlink:href="#DejaVuSans-74"/>
    </g>
   </g>
   <g id="legend_1">
    <g id="patch_7">
     <path d="M 64.6 271.48 
L 155.792188 271.48 
Q 157.792188 271.48 157.792188 269.48 
L 157.792188 197.089375 
Q 157.792188 195.089375 155.792188 195.089375 
L 64.6 195.089375 
Q 62.6 195.089375 62.6 197.089375 
L 62.6 269.48 
Q 62.6 271.48 64.6 271.48 
z
" style="fill:#ffffff;opacity:0.8;stroke:#cccccc;stroke-linejoin:miter;"/>
    </g>
    <g id="line2d_22">
     <path d="M 66.6 203.187812 
L 86.6 203.187812 
" style="fill:none;stroke:#0000ff;stroke-linecap:square;stroke-opacity:0.9;stroke-width:2;"/>
    </g>
    <g id="line2d_23"/>
    <g id="text_19">
     <!-- alpaca -->
     <g transform="translate(94.6 206.687812)scale(0.1 -0.1)">
      <defs>
       <path d="M 3122 3366 
L 3122 2828 
Q 2878 2963 2633 3030 
Q 2388 3097 2138 3097 
Q 1578 3097 1268 2742 
Q 959 2388 959 1747 
Q 959 1106 1268 751 
Q 1578 397 2138 397 
Q 2388 397 2633 464 
Q 2878 531 3122 666 
L 3122 134 
Q 2881 22 2623 -34 
Q 2366 -91 2075 -91 
Q 1284 -91 818 406 
Q 353 903 353 1747 
Q 353 2603 823 3093 
Q 1294 3584 2113 3584 
Q 2378 3584 2631 3529 
Q 2884 3475 3122 3366 
z
" id="DejaVuSans-63" transform="scale(0.015625)"/>
      </defs>
      <use xlink:href="#DejaVuSans-61"/>
      <use x="61.279297" xlink:href="#DejaVuSans-6c"/>
      <use x="89.0625" xlink:href="#DejaVuSans-70"/>
      <use x="152.539062" xlink:href="#DejaVuSans-61"/>
      <use x="213.818359" xlink:href="#DejaVuSans-63"/>
      <use x="268.798828" xlink:href="#DejaVuSans-61"/>
     </g>
    </g>
    <g id="line2d_24">
     <path d="M 66.6 217.865937 
L 86.6 217.865937 
" style="fill:none;stroke:#ff0000;stroke-linecap:square;stroke-opacity:0.9;stroke-width:2;"/>
    </g>
    <g id="line2d_25"/>
    <g id="text_20">
     <!-- mattress -->
     <g transform="translate(94.6 221.365937)scale(0.1 -0.1)">
      <defs>
       <path d="M 3328 2828 
Q 3544 3216 3844 3400 
Q 4144 3584 4550 3584 
Q 5097 3584 5394 3201 
Q 5691 2819 5691 2113 
L 5691 0 
L 5113 0 
L 5113 2094 
Q 5113 2597 4934 2840 
Q 4756 3084 4391 3084 
Q 3944 3084 3684 2787 
Q 3425 2491 3425 1978 
L 3425 0 
L 2847 0 
L 2847 2094 
Q 2847 2600 2669 2842 
Q 2491 3084 2119 3084 
Q 1678 3084 1418 2786 
Q 1159 2488 1159 1978 
L 1159 0 
L 581 0 
L 581 3500 
L 1159 3500 
L 1159 2956 
Q 1356 3278 1631 3431 
Q 1906 3584 2284 3584 
Q 2666 3584 2933 3390 
Q 3200 3197 3328 2828 
z
" id="DejaVuSans-6d" transform="scale(0.015625)"/>
       <path d="M 2834 3397 
L 2834 2853 
Q 2591 2978 2328 3040 
Q 2066 3103 1784 3103 
Q 1356 3103 1142 2972 
Q 928 2841 928 2578 
Q 928 2378 1081 2264 
Q 1234 2150 1697 2047 
L 1894 2003 
Q 2506 1872 2764 1633 
Q 3022 1394 3022 966 
Q 3022 478 2636 193 
Q 2250 -91 1575 -91 
Q 1294 -91 989 -36 
Q 684 19 347 128 
L 347 722 
Q 666 556 975 473 
Q 1284 391 1588 391 
Q 1994 391 2212 530 
Q 2431 669 2431 922 
Q 2431 1156 2273 1281 
Q 2116 1406 1581 1522 
L 1381 1569 
Q 847 1681 609 1914 
Q 372 2147 372 2553 
Q 372 3047 722 3315 
Q 1072 3584 1716 3584 
Q 2034 3584 2315 3537 
Q 2597 3491 2834 3397 
z
" id="DejaVuSans-73" transform="scale(0.015625)"/>
      </defs>
      <use xlink:href="#DejaVuSans-6d"/>
      <use x="97.412109" xlink:href="#DejaVuSans-61"/>
      <use x="158.691406" xlink:href="#DejaVuSans-74"/>
      <use x="197.900391" xlink:href="#DejaVuSans-74"/>
      <use x="237.109375" xlink:href="#DejaVuSans-72"/>
      <use x="275.972656" xlink:href="#DejaVuSans-65"/>
      <use x="337.496094" xlink:href="#DejaVuSans-73"/>
      <use x="389.595703" xlink:href="#DejaVuSans-73"/>
     </g>
    </g>
    <g id="line2d_26">
     <path d="M 66.6 232.544062 
L 86.6 232.544062 
" style="fill:none;stroke:#ff8040;stroke-linecap:square;stroke-opacity:0.9;stroke-width:2;"/>
    </g>
    <g id="line2d_27"/>
    <g id="text_21">
     <!-- trader-0850 -->
     <g transform="translate(94.6 236.044062)scale(0.1 -0.1)">
      <use xlink:href="#DejaVuSans-74"/>
      <use x="39.208984" xlink:href="#DejaVuSans-72"/>
      <use x="80.322266" xlink:href="#DejaVuSans-61"/>
      <use x="141.601562" xlink:href="#DejaVuSans-64"/>
      <use x="205.078125" xlink:href="#DejaVuSans-65"/>
      <use x="266.601562" xlink:href="#DejaVuSans-72"/>
      <use x="301.339844" xlink:href="#DejaVuSans-2d"/>
      <use x="337.423828" xlink:href="#DejaVuSans-30"/>
      <use x="401.046875" xlink:href="#DejaVuSans-38"/>
      <use x="464.669922" xlink:href="#DejaVuSans-35"/>
      <use x="528.292969" xlink:href="#DejaVuSans-30"/>
     </g>
    </g>
    <g id="line2d_28">
     <path d="M 66.6 247.222187 
L 86.6 247.222187 
" style="fill:none;stroke:#0d0d0d;stroke-linecap:square;stroke-opacity:0.25;stroke-width:2;"/>
    </g>
    <g id="line2d_29"/>
    <g id="text_22">
     <!-- rando-min -->
     <g transform="translate(94.6 250.722187)scale(0.1 -0.1)">
      <defs>
       <path d="M 3513 2113 
L 3513 0 
L 2938 0 
L 2938 2094 
Q 2938 2591 2744 2837 
Q 2550 3084 2163 3084 
Q 1697 3084 1428 2787 
Q 1159 2491 1159 1978 
L 1159 0 
L 581 0 
L 581 3500 
L 1159 3500 
L 1159 2956 
Q 1366 3272 1645 3428 
Q 1925 3584 2291 3584 
Q 2894 3584 3203 3211 
Q 3513 2838 3513 2113 
z
" id="DejaVuSans-6e" transform="scale(0.015625)"/>
      </defs>
      <use xlink:href="#DejaVuSans-72"/>
      <use x="41.113281" xlink:href="#DejaVuSans-61"/>
      <use x="102.392578" xlink:href="#DejaVuSans-6e"/>
      <use x="165.771484" xlink:href="#DejaVuSans-64"/>
      <use x="229.248047" xlink:href="#DejaVuSans-6f"/>
      <use x="292.304688" xlink:href="#DejaVuSans-2d"/>
      <use x="328.388672" xlink:href="#DejaVuSans-6d"/>
      <use x="425.800781" xlink:href="#DejaVuSans-69"/>
      <use x="453.583984" xlink:href="#DejaVuSans-6e"/>
     </g>
    </g>
    <g id="line2d_30">
     <path d="M 66.6 261.900312 
L 86.6 261.900312 
" style="fill:none;stroke:#0d0d0d;stroke-linecap:square;stroke-opacity:0.25;stroke-width:2;"/>
    </g>
    <g id="line2d_31"/>
    <g id="text_23">
     <!-- rando-max -->
     <g transform="translate(94.6 265.400312)scale(0.1 -0.1)">
      <defs>
       <path d="M 3513 3500 
L 2247 1797 
L 3578 0 
L 2900 0 
L 1881 1375 
L 863 0 
L 184 0 
L 1544 1831 
L 300 3500 
L 978 3500 
L 1906 2253 
L 2834 3500 
L 3513 3500 
z
" id="DejaVuSans-78" transform="scale(0.015625)"/>
      </defs>
      <use xlink:href="#DejaVuSans-72"/>
      <use x="41.113281" xlink:href="#DejaVuSans-61"/>
      <use x="102.392578" xlink:href="#DejaVuSans-6e"/>
      <use x="165.771484" xlink:href="#DejaVuSans-64"/>
      <use x="229.248047" xlink:href="#DejaVuSans-6f"/>
      <use x="292.304688" xlink:href="#DejaVuSans-2d"/>
      <use x="328.388672" xlink:href="#DejaVuSans-6d"/>
      <use x="425.800781" xlink:href="#DejaVuSans-61"/>
      <use x="487.080078" xlink:href="#DejaVuSans-78"/>
     </g>
    </g>
   </g>
  </g>
 </g>
 <defs>
  <clipPath id="p415d6572fd">
   <rect height="235.008" width="357.12" x="57.6" y="41.472"/>
  </clipPath>
 </defs>
</svg>
