<?xml version="1.0" encoding="utf-8" standalone="no"?>
<!DOCTYPE svg PUBLIC "-//W3C//DTD SVG 1.1//EN"
  "http://www.w3.org/Graphics/SVG/1.1/DTD/svg11.dtd">
<svg height="345.6pt" version="1.1" viewBox="0 0 460.8 345.6" width="460.8pt" xmlns="http://www.w3.org/2000/svg" xmlns:xlink="http://www.w3.org/1999/xlink">
 <metadata>
  <rdf:RDF xmlns:cc="http://creativecommons.org/ns#" xmlns:dc="http://purl.org/dc/elements/1.1/" xmlns:rdf="http://www.w3.org/1999/02/22-rdf-syntax-ns#">
   <cc:Work>
    <dc:type rdf:resource="http://purl.org/dc/dcmitype/StillImage"/>
    <dc:date>2022-05-20T01:01:57.365799</dc:date>
    <dc:format>image/svg+xml</dc:format>
    <dc:creator>
     <cc:Agent>
      <dc:title>Matplotlib v3.4.3, https://matplotlib.org/</dc:title>
     </cc:Agent>
    </dc:creator>
   </cc:Work>
  </rdf:RDF>
 </metadata>
 <defs>
  <style type="text/css">*{stroke-linecap:butt;stroke-linejoin:round;}</style>
 </defs>
 <g id="figure_1">
  <g id="patch_1">
   <path d="M 0 345.6 
L 460.8 345.6 
L 460.8 0 
L 0 0 
z
" style="fill:#ffffff;"/>
  </g>
  <g id="axes_1">
   <g id="patch_2">
    <path d="M 57.6 276.48 
L 414.72 276.48 
L 414.72 41.472 
L 57.6 41.472 
z
" style="fill:#ffffff;"/>
   </g>
   <g id="matplotlib.axis_1">
    <g id="xtick_1">
     <g id="line2d_1">
      <defs>
       <path d="M 0 0 
L 0 3.5 
" id="m0c053de5af" style="stroke:#000000;stroke-width:0.8;"/>
      </defs>
      <g>
       <use style="stroke:#000000;stroke-width:0.8;" x="84.694775" xlink:href="#m0c053de5af" y="276.48"/>
      </g>
     </g>
     <g id="text_1">
      <!-- 2021-09 -->
      <g transform="translate(47.469954 310.951846)rotate(-30)scale(0.1 -0.1)">
       <defs>
        <path d="M 1228 531 
L 3431 531 
L 3431 0 
L 469 0 
L 469 531 
Q 828 903 1448 1529 
Q 2069 2156 2228 2338 
Q 2531 2678 2651 2914 
Q 2772 3150 2772 3378 
Q 2772 3750 2511 3984 
Q 2250 4219 1831 4219 
Q 1534 4219 1204 4116 
Q 875 4013 500 3803 
L 500 4441 
Q 881 4594 1212 4672 
Q 1544 4750 1819 4750 
Q 2544 4750 2975 4387 
Q 3406 4025 3406 3419 
Q 3406 3131 3298 2873 
Q 3191 2616 2906 2266 
Q 2828 2175 2409 1742 
Q 1991 1309 1228 531 
z
" id="DejaVuSans-32" transform="scale(0.015625)"/>
        <path d="M 2034 4250 
Q 1547 4250 1301 3770 
Q 1056 3291 1056 2328 
Q 1056 1369 1301 889 
Q 1547 409 2034 409 
Q 2525 409 2770 889 
Q 3016 1369 3016 2328 
Q 3016 3291 2770 3770 
Q 2525 4250 2034 4250 
z
M 2034 4750 
Q 2819 4750 3233 4129 
Q 3647 3509 3647 2328 
Q 3647 1150 3233 529 
Q 2819 -91 2034 -91 
Q 1250 -91 836 529 
Q 422 1150 422 2328 
Q 422 3509 836 4129 
Q 1250 4750 2034 4750 
z
" id="DejaVuSans-30" transform="scale(0.015625)"/>
        <path d="M 794 531 
L 1825 531 
L 1825 4091 
L 703 3866 
L 703 4441 
L 1819 4666 
L 2450 4666 
L 2450 531 
L 3481 531 
L 3481 0 
L 794 0 
L 794 531 
z
" id="DejaVuSans-31" transform="scale(0.015625)"/>
        <path d="M 313 2009 
L 1997 2009 
L 1997 1497 
L 313 1497 
L 313 2009 
z
" id="DejaVuSans-2d" transform="scale(0.015625)"/>
        <path d="M 703 97 
L 703 672 
Q 941 559 1184 500 
Q 1428 441 1663 441 
Q 2288 441 2617 861 
Q 2947 1281 2994 2138 
Q 2813 1869 2534 1725 
Q 2256 1581 1919 1581 
Q 1219 1581 811 2004 
Q 403 2428 403 3163 
Q 403 3881 828 4315 
Q 1253 4750 1959 4750 
Q 2769 4750 3195 4129 
Q 3622 3509 3622 2328 
Q 3622 1225 3098 567 
Q 2575 -91 1691 -91 
Q 1453 -91 1209 -44 
Q 966 3 703 97 
z
M 1959 2075 
Q 2384 2075 2632 2365 
Q 2881 2656 2881 3163 
Q 2881 3666 2632 3958 
Q 2384 4250 1959 4250 
Q 1534 4250 1286 3958 
Q 1038 3666 1038 3163 
Q 1038 2656 1286 2365 
Q 1534 2075 1959 2075 
z
" id="DejaVuSans-39" transform="scale(0.015625)"/>
       </defs>
       <use xlink:href="#DejaVuSans-32"/>
       <use x="63.623047" xlink:href="#DejaVuSans-30"/>
       <use x="127.246094" xlink:href="#DejaVuSans-32"/>
       <use x="190.869141" xlink:href="#DejaVuSans-31"/>
       <use x="254.492188" xlink:href="#DejaVuSans-2d"/>
       <use x="290.576172" xlink:href="#DejaVuSans-30"/>
       <use x="354.199219" xlink:href="#DejaVuSans-39"/>
      </g>
     </g>
    </g>
    <g id="xtick_2">
     <g id="line2d_2">
      <g>
       <use style="stroke:#000000;stroke-width:0.8;" x="120.901602" xlink:href="#m0c053de5af" y="276.48"/>
      </g>
     </g>
     <g id="text_2">
      <!-- 2021-10 -->
      <g transform="translate(83.676781 310.951846)rotate(-30)scale(0.1 -0.1)">
       <use xlink:href="#DejaVuSans-32"/>
       <use x="63.623047" xlink:href="#DejaVuSans-30"/>
       <use x="127.246094" xlink:href="#DejaVuSans-32"/>
       <use x="190.869141" xlink:href="#DejaVuSans-31"/>
       <use x="254.492188" xlink:href="#DejaVuSans-2d"/>
       <use x="290.576172" xlink:href="#DejaVuSans-31"/>
       <use x="354.199219" xlink:href="#DejaVuSans-30"/>
      </g>
     </g>
    </g>
    <g id="xtick_3">
     <g id="line2d_3">
      <g>
       <use style="stroke:#000000;stroke-width:0.8;" x="158.315323" xlink:href="#m0c053de5af" y="276.48"/>
      </g>
     </g>
     <g id="text_3">
      <!-- 2021-11 -->
      <g transform="translate(121.090502 310.951846)rotate(-30)scale(0.1 -0.1)">
       <use xlink:href="#DejaVuSans-32"/>
       <use x="63.623047" xlink:href="#DejaVuSans-30"/>
       <use x="127.246094" xlink:href="#DejaVuSans-32"/>
       <use x="190.869141" xlink:href="#DejaVuSans-31"/>
       <use x="254.492188" xlink:href="#DejaVuSans-2d"/>
       <use x="290.576172" xlink:href="#DejaVuSans-31"/>
       <use x="354.199219" xlink:href="#DejaVuSans-31"/>
      </g>
     </g>
    </g>
    <g id="xtick_4">
     <g id="line2d_4">
      <g>
       <use style="stroke:#000000;stroke-width:0.8;" x="194.522149" xlink:href="#m0c053de5af" y="276.48"/>
      </g>
     </g>
     <g id="text_4">
      <!-- 2021-12 -->
      <g transform="translate(157.297329 310.951846)rotate(-30)scale(0.1 -0.1)">
       <use xlink:href="#DejaVuSans-32"/>
       <use x="63.623047" xlink:href="#DejaVuSans-30"/>
       <use x="127.246094" xlink:href="#DejaVuSans-32"/>
       <use x="190.869141" xlink:href="#DejaVuSans-31"/>
       <use x="254.492188" xlink:href="#DejaVuSans-2d"/>
       <use x="290.576172" xlink:href="#DejaVuSans-31"/>
       <use x="354.199219" xlink:href="#DejaVuSans-32"/>
      </g>
     </g>
    </g>
    <g id="xtick_5">
     <g id="line2d_5">
      <g>
       <use style="stroke:#000000;stroke-width:0.8;" x="231.93587" xlink:href="#m0c053de5af" y="276.48"/>
      </g>
     </g>
     <g id="text_5">
      <!-- 2022-01 -->
      <g transform="translate(194.711049 310.951846)rotate(-30)scale(0.1 -0.1)">
       <use xlink:href="#DejaVuSans-32"/>
       <use x="63.623047" xlink:href="#DejaVuSans-30"/>
       <use x="127.246094" xlink:href="#DejaVuSans-32"/>
       <use x="190.869141" xlink:href="#DejaVuSans-32"/>
       <use x="254.492188" xlink:href="#DejaVuSans-2d"/>
       <use x="290.576172" xlink:href="#DejaVuSans-30"/>
       <use x="354.199219" xlink:href="#DejaVuSans-31"/>
      </g>
     </g>
    </g>
    <g id="xtick_6">
     <g id="line2d_6">
      <g>
       <use style="stroke:#000000;stroke-width:0.8;" x="269.349591" xlink:href="#m0c053de5af" y="276.48"/>
      </g>
     </g>
     <g id="text_6">
      <!-- 2022-02 -->
      <g transform="translate(232.12477 310.951846)rotate(-30)scale(0.1 -0.1)">
       <use xlink:href="#DejaVuSans-32"/>
       <use x="63.623047" xlink:href="#DejaVuSans-30"/>
       <use x="127.246094" xlink:href="#DejaVuSans-32"/>
       <use x="190.869141" xlink:href="#DejaVuSans-32"/>
       <use x="254.492188" xlink:href="#DejaVuSans-2d"/>
       <use x="290.576172" xlink:href="#DejaVuSans-30"/>
       <use x="354.199219" xlink:href="#DejaVuSans-32"/>
      </g>
     </g>
    </g>
    <g id="xtick_7">
     <g id="line2d_7">
      <g>
       <use style="stroke:#000000;stroke-width:0.8;" x="303.142629" xlink:href="#m0c053de5af" y="276.48"/>
      </g>
     </g>
     <g id="text_7">
      <!-- 2022-03 -->
      <g transform="translate(265.917808 310.951846)rotate(-30)scale(0.1 -0.1)">
       <defs>
        <path d="M 2597 2516 
Q 3050 2419 3304 2112 
Q 3559 1806 3559 1356 
Q 3559 666 3084 287 
Q 2609 -91 1734 -91 
Q 1441 -91 1130 -33 
Q 819 25 488 141 
L 488 750 
Q 750 597 1062 519 
Q 1375 441 1716 441 
Q 2309 441 2620 675 
Q 2931 909 2931 1356 
Q 2931 1769 2642 2001 
Q 2353 2234 1838 2234 
L 1294 2234 
L 1294 2753 
L 1863 2753 
Q 2328 2753 2575 2939 
Q 2822 3125 2822 3475 
Q 2822 3834 2567 4026 
Q 2313 4219 1838 4219 
Q 1578 4219 1281 4162 
Q 984 4106 628 3988 
L 628 4550 
Q 988 4650 1302 4700 
Q 1616 4750 1894 4750 
Q 2613 4750 3031 4423 
Q 3450 4097 3450 3541 
Q 3450 3153 3228 2886 
Q 3006 2619 2597 2516 
z
" id="DejaVuSans-33" transform="scale(0.015625)"/>
       </defs>
       <use xlink:href="#DejaVuSans-32"/>
       <use x="63.623047" xlink:href="#DejaVuSans-30"/>
       <use x="127.246094" xlink:href="#DejaVuSans-32"/>
       <use x="190.869141" xlink:href="#DejaVuSans-32"/>
       <use x="254.492188" xlink:href="#DejaVuSans-2d"/>
       <use x="290.576172" xlink:href="#DejaVuSans-30"/>
       <use x="354.199219" xlink:href="#DejaVuSans-33"/>
      </g>
     </g>
    </g>
    <g id="xtick_8">
     <g id="line2d_8">
      <g>
       <use style="stroke:#000000;stroke-width:0.8;" x="340.55635" xlink:href="#m0c053de5af" y="276.48"/>
      </g>
     </g>
     <g id="text_8">
      <!-- 2022-04 -->
      <g transform="translate(303.331529 310.951846)rotate(-30)scale(0.1 -0.1)">
       <defs>
        <path d="M 2419 4116 
L 825 1625 
L 2419 1625 
L 2419 4116 
z
M 2253 4666 
L 3047 4666 
L 3047 1625 
L 3713 1625 
L 3713 1100 
L 3047 1100 
L 3047 0 
L 2419 0 
L 2419 1100 
L 313 1100 
L 313 1709 
L 2253 4666 
z
" id="DejaVuSans-34" transform="scale(0.015625)"/>
       </defs>
       <use xlink:href="#DejaVuSans-32"/>
       <use x="63.623047" xlink:href="#DejaVuSans-30"/>
       <use x="127.246094" xlink:href="#DejaVuSans-32"/>
       <use x="190.869141" xlink:href="#DejaVuSans-32"/>
       <use x="254.492188" xlink:href="#DejaVuSans-2d"/>
       <use x="290.576172" xlink:href="#DejaVuSans-30"/>
       <use x="354.199219" xlink:href="#DejaVuSans-34"/>
      </g>
     </g>
    </g>
    <g id="xtick_9">
     <g id="line2d_9">
      <g>
       <use style="stroke:#000000;stroke-width:0.8;" x="376.763177" xlink:href="#m0c053de5af" y="276.48"/>
      </g>
     </g>
     <g id="text_9">
      <!-- 2022-05 -->
      <g transform="translate(339.538356 310.951846)rotate(-30)scale(0.1 -0.1)">
       <defs>
        <path d="M 691 4666 
L 3169 4666 
L 3169 4134 
L 1269 4134 
L 1269 2991 
Q 1406 3038 1543 3061 
Q 1681 3084 1819 3084 
Q 2600 3084 3056 2656 
Q 3513 2228 3513 1497 
Q 3513 744 3044 326 
Q 2575 -91 1722 -91 
Q 1428 -91 1123 -41 
Q 819 9 494 109 
L 494 744 
Q 775 591 1075 516 
Q 1375 441 1709 441 
Q 2250 441 2565 725 
Q 2881 1009 2881 1497 
Q 2881 1984 2565 2268 
Q 2250 2553 1709 2553 
Q 1456 2553 1204 2497 
Q 953 2441 691 2322 
L 691 4666 
z
" id="DejaVuSans-35" transform="scale(0.015625)"/>
       </defs>
       <use xlink:href="#DejaVuSans-32"/>
       <use x="63.623047" xlink:href="#DejaVuSans-30"/>
       <use x="127.246094" xlink:href="#DejaVuSans-32"/>
       <use x="190.869141" xlink:href="#DejaVuSans-32"/>
       <use x="254.492188" xlink:href="#DejaVuSans-2d"/>
       <use x="290.576172" xlink:href="#DejaVuSans-30"/>
       <use x="354.199219" xlink:href="#DejaVuSans-35"/>
      </g>
     </g>
    </g>
    <g id="xtick_10">
     <g id="line2d_10">
      <g>
       <use style="stroke:#000000;stroke-width:0.8;" x="414.176898" xlink:href="#m0c053de5af" y="276.48"/>
      </g>
     </g>
     <g id="text_10">
      <!-- 2022-06 -->
      <g transform="translate(376.952077 310.951846)rotate(-30)scale(0.1 -0.1)">
       <defs>
        <path d="M 2113 2584 
Q 1688 2584 1439 2293 
Q 1191 2003 1191 1497 
Q 1191 994 1439 701 
Q 1688 409 2113 409 
Q 2538 409 2786 701 
Q 3034 994 3034 1497 
Q 3034 2003 2786 2293 
Q 2538 2584 2113 2584 
z
M 3366 4563 
L 3366 3988 
Q 3128 4100 2886 4159 
Q 2644 4219 2406 4219 
Q 1781 4219 1451 3797 
Q 1122 3375 1075 2522 
Q 1259 2794 1537 2939 
Q 1816 3084 2150 3084 
Q 2853 3084 3261 2657 
Q 3669 2231 3669 1497 
Q 3669 778 3244 343 
Q 2819 -91 2113 -91 
Q 1303 -91 875 529 
Q 447 1150 447 2328 
Q 447 3434 972 4092 
Q 1497 4750 2381 4750 
Q 2619 4750 2861 4703 
Q 3103 4656 3366 4563 
z
" id="DejaVuSans-36" transform="scale(0.015625)"/>
       </defs>
       <use xlink:href="#DejaVuSans-32"/>
       <use x="63.623047" xlink:href="#DejaVuSans-30"/>
       <use x="127.246094" xlink:href="#DejaVuSans-32"/>
       <use x="190.869141" xlink:href="#DejaVuSans-32"/>
       <use x="254.492188" xlink:href="#DejaVuSans-2d"/>
       <use x="290.576172" xlink:href="#DejaVuSans-30"/>
       <use x="354.199219" xlink:href="#DejaVuSans-36"/>
      </g>
     </g>
    </g>
    <g id="text_11">
     <!-- date -->
     <g transform="translate(224.885 324.351346)scale(0.1 -0.1)">
      <defs>
       <path d="M 2906 2969 
L 2906 4863 
L 3481 4863 
L 3481 0 
L 2906 0 
L 2906 525 
Q 2725 213 2448 61 
Q 2172 -91 1784 -91 
Q 1150 -91 751 415 
Q 353 922 353 1747 
Q 353 2572 751 3078 
Q 1150 3584 1784 3584 
Q 2172 3584 2448 3432 
Q 2725 3281 2906 2969 
z
M 947 1747 
Q 947 1113 1208 752 
Q 1469 391 1925 391 
Q 2381 391 2643 752 
Q 2906 1113 2906 1747 
Q 2906 2381 2643 2742 
Q 2381 3103 1925 3103 
Q 1469 3103 1208 2742 
Q 947 2381 947 1747 
z
" id="DejaVuSans-64" transform="scale(0.015625)"/>
       <path d="M 2194 1759 
Q 1497 1759 1228 1600 
Q 959 1441 959 1056 
Q 959 750 1161 570 
Q 1363 391 1709 391 
Q 2188 391 2477 730 
Q 2766 1069 2766 1631 
L 2766 1759 
L 2194 1759 
z
M 3341 1997 
L 3341 0 
L 2766 0 
L 2766 531 
Q 2569 213 2275 61 
Q 1981 -91 1556 -91 
Q 1019 -91 701 211 
Q 384 513 384 1019 
Q 384 1609 779 1909 
Q 1175 2209 1959 2209 
L 2766 2209 
L 2766 2266 
Q 2766 2663 2505 2880 
Q 2244 3097 1772 3097 
Q 1472 3097 1187 3025 
Q 903 2953 641 2809 
L 641 3341 
Q 956 3463 1253 3523 
Q 1550 3584 1831 3584 
Q 2591 3584 2966 3190 
Q 3341 2797 3341 1997 
z
" id="DejaVuSans-61" transform="scale(0.015625)"/>
       <path d="M 1172 4494 
L 1172 3500 
L 2356 3500 
L 2356 3053 
L 1172 3053 
L 1172 1153 
Q 1172 725 1289 603 
Q 1406 481 1766 481 
L 2356 481 
L 2356 0 
L 1766 0 
Q 1100 0 847 248 
Q 594 497 594 1153 
L 594 3053 
L 172 3053 
L 172 3500 
L 594 3500 
L 594 4494 
L 1172 4494 
z
" id="DejaVuSans-74" transform="scale(0.015625)"/>
       <path d="M 3597 1894 
L 3597 1613 
L 953 1613 
Q 991 1019 1311 708 
Q 1631 397 2203 397 
Q 2534 397 2845 478 
Q 3156 559 3463 722 
L 3463 178 
Q 3153 47 2828 -22 
Q 2503 -91 2169 -91 
Q 1331 -91 842 396 
Q 353 884 353 1716 
Q 353 2575 817 3079 
Q 1281 3584 2069 3584 
Q 2775 3584 3186 3129 
Q 3597 2675 3597 1894 
z
M 3022 2063 
Q 3016 2534 2758 2815 
Q 2500 3097 2075 3097 
Q 1594 3097 1305 2825 
Q 1016 2553 972 2059 
L 3022 2063 
z
" id="DejaVuSans-65" transform="scale(0.015625)"/>
      </defs>
      <use xlink:href="#DejaVuSans-64"/>
      <use x="63.476562" xlink:href="#DejaVuSans-61"/>
      <use x="124.755859" xlink:href="#DejaVuSans-74"/>
      <use x="163.964844" xlink:href="#DejaVuSans-65"/>
     </g>
    </g>
   </g>
   <g id="matplotlib.axis_2">
    <g id="ytick_1">
     <g id="line2d_11">
      <defs>
       <path d="M 0 0 
L -3.5 0 
" id="m50aa6ed159" style="stroke:#000000;stroke-width:0.8;"/>
      </defs>
      <g>
       <use style="stroke:#000000;stroke-width:0.8;" x="57.6" xlink:href="#m50aa6ed159" y="250.975366"/>
      </g>
     </g>
     <g id="text_12">
      <!-- 80000 -->
      <g transform="translate(18.7875 254.774585)scale(0.1 -0.1)">
       <defs>
        <path d="M 2034 2216 
Q 1584 2216 1326 1975 
Q 1069 1734 1069 1313 
Q 1069 891 1326 650 
Q 1584 409 2034 409 
Q 2484 409 2743 651 
Q 3003 894 3003 1313 
Q 3003 1734 2745 1975 
Q 2488 2216 2034 2216 
z
M 1403 2484 
Q 997 2584 770 2862 
Q 544 3141 544 3541 
Q 544 4100 942 4425 
Q 1341 4750 2034 4750 
Q 2731 4750 3128 4425 
Q 3525 4100 3525 3541 
Q 3525 3141 3298 2862 
Q 3072 2584 2669 2484 
Q 3125 2378 3379 2068 
Q 3634 1759 3634 1313 
Q 3634 634 3220 271 
Q 2806 -91 2034 -91 
Q 1263 -91 848 271 
Q 434 634 434 1313 
Q 434 1759 690 2068 
Q 947 2378 1403 2484 
z
M 1172 3481 
Q 1172 3119 1398 2916 
Q 1625 2713 2034 2713 
Q 2441 2713 2670 2916 
Q 2900 3119 2900 3481 
Q 2900 3844 2670 4047 
Q 2441 4250 2034 4250 
Q 1625 4250 1398 4047 
Q 1172 3844 1172 3481 
z
" id="DejaVuSans-38" transform="scale(0.015625)"/>
       </defs>
       <use xlink:href="#DejaVuSans-38"/>
       <use x="63.623047" xlink:href="#DejaVuSans-30"/>
       <use x="127.246094" xlink:href="#DejaVuSans-30"/>
       <use x="190.869141" xlink:href="#DejaVuSans-30"/>
       <use x="254.492188" xlink:href="#DejaVuSans-30"/>
      </g>
     </g>
    </g>
    <g id="ytick_2">
     <g id="line2d_12">
      <g>
       <use style="stroke:#000000;stroke-width:0.8;" x="57.6" xlink:href="#m50aa6ed159" y="222.289268"/>
      </g>
     </g>
     <g id="text_13">
      <!-- 85000 -->
      <g transform="translate(18.7875 226.088487)scale(0.1 -0.1)">
       <use xlink:href="#DejaVuSans-38"/>
       <use x="63.623047" xlink:href="#DejaVuSans-35"/>
       <use x="127.246094" xlink:href="#DejaVuSans-30"/>
       <use x="190.869141" xlink:href="#DejaVuSans-30"/>
       <use x="254.492188" xlink:href="#DejaVuSans-30"/>
      </g>
     </g>
    </g>
    <g id="ytick_3">
     <g id="line2d_13">
      <g>
       <use style="stroke:#000000;stroke-width:0.8;" x="57.6" xlink:href="#m50aa6ed159" y="193.60317"/>
      </g>
     </g>
     <g id="text_14">
      <!-- 90000 -->
      <g transform="translate(18.7875 197.402389)scale(0.1 -0.1)">
       <use xlink:href="#DejaVuSans-39"/>
       <use x="63.623047" xlink:href="#DejaVuSans-30"/>
       <use x="127.246094" xlink:href="#DejaVuSans-30"/>
       <use x="190.869141" xlink:href="#DejaVuSans-30"/>
       <use x="254.492188" xlink:href="#DejaVuSans-30"/>
      </g>
     </g>
    </g>
    <g id="ytick_4">
     <g id="line2d_14">
      <g>
       <use style="stroke:#000000;stroke-width:0.8;" x="57.6" xlink:href="#m50aa6ed159" y="164.917072"/>
      </g>
     </g>
     <g id="text_15">
      <!-- 95000 -->
      <g transform="translate(18.7875 168.71629)scale(0.1 -0.1)">
       <use xlink:href="#DejaVuSans-39"/>
       <use x="63.623047" xlink:href="#DejaVuSans-35"/>
       <use x="127.246094" xlink:href="#DejaVuSans-30"/>
       <use x="190.869141" xlink:href="#DejaVuSans-30"/>
       <use x="254.492188" xlink:href="#DejaVuSans-30"/>
      </g>
     </g>
    </g>
    <g id="ytick_5">
     <g id="line2d_15">
      <g>
       <use style="stroke:#000000;stroke-width:0.8;" x="57.6" xlink:href="#m50aa6ed159" y="136.230974"/>
      </g>
     </g>
     <g id="text_16">
      <!-- 100000 -->
      <g transform="translate(12.425 140.030192)scale(0.1 -0.1)">
       <use xlink:href="#DejaVuSans-31"/>
       <use x="63.623047" xlink:href="#DejaVuSans-30"/>
       <use x="127.246094" xlink:href="#DejaVuSans-30"/>
       <use x="190.869141" xlink:href="#DejaVuSans-30"/>
       <use x="254.492188" xlink:href="#DejaVuSans-30"/>
       <use x="318.115234" xlink:href="#DejaVuSans-30"/>
      </g>
     </g>
    </g>
    <g id="ytick_6">
     <g id="line2d_16">
      <g>
       <use style="stroke:#000000;stroke-width:0.8;" x="57.6" xlink:href="#m50aa6ed159" y="107.544875"/>
      </g>
     </g>
     <g id="text_17">
      <!-- 105000 -->
      <g transform="translate(12.425 111.344094)scale(0.1 -0.1)">
       <use xlink:href="#DejaVuSans-31"/>
       <use x="63.623047" xlink:href="#DejaVuSans-30"/>
       <use x="127.246094" xlink:href="#DejaVuSans-35"/>
       <use x="190.869141" xlink:href="#DejaVuSans-30"/>
       <use x="254.492188" xlink:href="#DejaVuSans-30"/>
       <use x="318.115234" xlink:href="#DejaVuSans-30"/>
      </g>
     </g>
    </g>
    <g id="ytick_7">
     <g id="line2d_17">
      <g>
       <use style="stroke:#000000;stroke-width:0.8;" x="57.6" xlink:href="#m50aa6ed159" y="78.858777"/>
      </g>
     </g>
     <g id="text_18">
      <!-- 110000 -->
      <g transform="translate(12.425 82.657996)scale(0.1 -0.1)">
       <use xlink:href="#DejaVuSans-31"/>
       <use x="63.623047" xlink:href="#DejaVuSans-31"/>
       <use x="127.246094" xlink:href="#DejaVuSans-30"/>
       <use x="190.869141" xlink:href="#DejaVuSans-30"/>
       <use x="254.492188" xlink:href="#DejaVuSans-30"/>
       <use x="318.115234" xlink:href="#DejaVuSans-30"/>
      </g>
     </g>
    </g>
    <g id="ytick_8">
     <g id="line2d_18">
      <g>
       <use style="stroke:#000000;stroke-width:0.8;" x="57.6" xlink:href="#m50aa6ed159" y="50.172679"/>
      </g>
     </g>
     <g id="text_19">
      <!-- 115000 -->
      <g transform="translate(12.425 53.971898)scale(0.1 -0.1)">
       <use xlink:href="#DejaVuSans-31"/>
       <use x="63.623047" xlink:href="#DejaVuSans-31"/>
       <use x="127.246094" xlink:href="#DejaVuSans-35"/>
       <use x="190.869141" xlink:href="#DejaVuSans-30"/>
       <use x="254.492188" xlink:href="#DejaVuSans-30"/>
       <use x="318.115234" xlink:href="#DejaVuSans-30"/>
      </g>
     </g>
    </g>
   </g>
   <g id="line2d_19">
    <path clip-path="url(#p8ed7cf03b9)" d="M 73.832727 136.230974 
L 75.039621 136.587909 
L 76.246516 134.009647 
L 77.45341 137.039436 
L 78.660304 131.829481 
L 82.280987 128.444953 
L 83.487881 127.024139 
L 84.694775 128.853449 
L 85.901669 128.177258 
L 87.108564 128.082254 
L 91.936141 128.635272 
L 94.349929 132.010577 
L 95.556823 137.304196 
L 99.177506 132.65104 
L 100.3844 140.935544 
L 101.591294 137.119658 
L 102.798189 138.350665 
L 104.005083 144.402386 
L 107.625765 153.958138 
L 108.83266 155.655511 
L 110.039554 151.236001 
L 111.246448 142.049439 
L 112.453342 137.152532 
L 116.074025 132.718318 
L 117.280919 145.284245 
L 118.487813 143.558635 
L 119.694708 147.987676 
L 120.901602 139.232698 
L 124.522285 150.009962 
L 125.729179 141.191709 
L 126.936073 139.055545 
L 128.142967 138.592093 
L 129.349861 138.30102 
L 134.177438 136.83613 
L 135.384333 144.327958 
L 136.591227 132.821057 
L 137.798121 132.29169 
L 141.418804 127.735447 
L 142.625698 121.995704 
L 143.832592 119.514414 
L 145.039486 129.19135 
L 146.246381 136.690118 
L 149.867063 136.333403 
L 151.073957 141.393712 
L 152.280852 142.767481 
L 153.487746 135.704142 
L 154.69464 143.18102 
L 158.315323 131.013975 
L 159.522217 131.755906 
L 160.729111 125.800024 
L 161.936005 132.67372 
L 163.1429 128.870654 
L 166.763582 128.63047 
L 167.970477 135.397472 
L 169.177371 135.582834 
L 170.384265 139.88616 
L 171.591159 135.41484 
L 175.211842 134.010166 
L 176.418736 133.809104 
L 177.62563 136.700724 
L 178.832525 138.136619 
L 180.039419 138.993111 
L 183.660101 135.033438 
L 184.866996 130.197423 
L 186.07389 130.680427 
L 188.487678 130.790171 
L 192.108361 136.276411 
L 193.315255 147.384255 
L 194.522149 154.685259 
L 195.729044 147.880135 
L 196.935938 151.610603 
L 200.55662 141.066199 
L 201.763515 131.000646 
L 202.970409 126.312224 
L 204.177303 126.016815 
L 205.384197 124.217052 
L 209.00488 129.918384 
L 211.418668 123.814851 
L 212.625563 121.387568 
L 213.832457 127.963798 
L 217.45314 135.846826 
L 218.660034 122.338947 
L 219.866928 119.868734 
L 221.073822 114.89493 
L 225.901399 107.495466 
L 228.315188 107.188561 
L 229.522082 108.61524 
L 230.728976 111.353165 
L 234.349659 101.862652 
L 235.556553 94.363423 
L 236.763447 110.19319 
L 237.970341 105.146391 
L 239.177236 102.837125 
L 242.797918 102.522701 
L 244.004812 97.177684 
L 245.211707 96.220097 
L 246.418601 103.351059 
L 247.625495 101.43907 
L 253.659966 117.793064 
L 254.86686 124.505366 
L 256.073755 137.732065 
L 259.694437 137.076125 
L 260.901332 143.887667 
L 262.108226 144.137279 
L 263.31512 147.406992 
L 264.522014 133.197657 
L 268.142697 120.610461 
L 269.349591 114.78555 
L 270.556485 105.836089 
L 271.76338 144.552564 
L 272.970274 144.551264 
L 276.590956 153.92089 
L 277.797851 155.421415 
L 279.004745 142.89981 
L 280.211639 152.834195 
L 281.418533 165.859056 
L 285.039216 169.674445 
L 286.24611 162.442671 
L 287.453004 165.296154 
L 288.659899 175.354781 
L 289.866793 178.703678 
L 294.69437 184.761675 
L 295.901264 192.240253 
L 297.108158 180.271283 
L 298.315052 171.031873 
L 301.935735 172.626586 
L 303.142629 180.890677 
L 304.349523 169.652898 
L 305.556418 171.737346 
L 306.763312 175.679568 
L 310.383995 198.00961 
L 311.590889 198.382943 
L 312.797783 176.840871 
L 314.004677 183.863256 
L 315.211571 192.909639 
L 318.832254 194.713128 
L 320.039148 184.203258 
L 321.246043 167.833439 
L 322.452937 161.529216 
L 323.659831 151.752016 
L 327.280514 153.857799 
L 328.487408 143.606251 
L 329.694302 149.66264 
L 330.901196 140.025796 
L 332.108091 133.948907 
L 335.728773 132.22535 
L 336.935667 127.408102 
L 338.142562 129.190314 
L 339.349456 142.151379 
L 340.55635 139.74215 
L 344.177033 132.93197 
L 345.383927 138.919726 
L 346.590821 148.289022 
L 347.797715 148.827422 
L 349.00461 150.052048 
L 353.832187 163.935704 
L 355.039081 161.321313 
L 356.245975 171.556547 
L 361.073552 167.393466 
L 362.280446 157.966124 
L 363.48734 164.481848 
L 364.694235 176.730718 
L 365.901129 194.615085 
L 369.521811 189.916351 
L 370.728706 199.136963 
L 371.9356 205.137458 
L 373.142494 171.666452 
L 374.349388 188.889787 
L 377.970071 181.110602 
L 379.176965 176.662114 
L 380.383859 153.402164 
L 381.590754 178.410084 
L 382.797648 180.678735 
L 386.418331 195.639452 
L 387.625225 193.529044 
L 388.832119 203.084818 
L 390.039013 207.10729 
L 391.245907 194.884704 
L 394.86659 198.178245 
L 396.073484 188.489212 
L 397.280379 209.462402 
L 398.487273 219.092702 
L 398.487273 219.092702 
" style="fill:none;stroke:#0000ff;stroke-linecap:square;stroke-opacity:0.9;stroke-width:2;"/>
   </g>
   <g id="line2d_20">
    <path clip-path="url(#p8ed7cf03b9)" d="M 73.832727 136.230974 
L 76.246516 130.180497 
L 77.45341 133.873854 
L 78.660304 127.360462 
L 82.280987 125.212319 
L 83.487881 124.179916 
L 84.694775 124.312139 
L 85.901669 125.579846 
L 87.108564 124.996773 
L 91.936141 124.183896 
L 93.143035 126.265585 
L 94.349929 127.740067 
L 95.556823 133.655067 
L 99.177506 129.342213 
L 100.3844 134.746962 
L 101.591294 132.200882 
L 102.798189 133.844515 
L 104.005083 141.177064 
L 107.625765 150.529541 
L 108.83266 150.681056 
L 110.039554 147.484521 
L 111.246448 139.933503 
L 112.453342 135.68849 
L 116.074025 132.171343 
L 117.280919 143.170674 
L 118.487813 142.892204 
L 119.694708 148.390604 
L 120.901602 140.06678 
L 124.522285 146.092228 
L 125.729179 138.031323 
L 126.936073 136.450525 
L 128.142967 135.281723 
L 129.349861 132.534848 
L 132.970544 135.755173 
L 134.177438 140.311529 
L 135.384333 141.72621 
L 136.591227 128.018621 
L 137.798121 123.734849 
L 141.418804 122.040393 
L 142.625698 117.359736 
L 143.832592 114.076915 
L 145.039486 121.606641 
L 146.246381 124.98515 
L 149.867063 126.54151 
L 152.280852 133.065369 
L 153.487746 124.555992 
L 154.69464 123.989034 
L 158.315323 123.627862 
L 159.522217 121.391175 
L 160.729111 116.616504 
L 161.936005 118.14218 
L 163.1429 117.834748 
L 166.763582 117.034503 
L 167.970477 122.087095 
L 169.177371 124.712257 
L 170.384265 124.647892 
L 171.591159 121.058657 
L 175.211842 119.750371 
L 176.418736 120.706798 
L 177.62563 121.277394 
L 178.832525 121.314277 
L 180.039419 123.223891 
L 183.660101 121.281438 
L 184.866996 115.000469 
L 186.07389 114.888114 
L 188.487678 130.402618 
L 192.108361 123.741391 
L 193.315255 135.916847 
L 194.522149 142.98178 
L 195.729044 134.718996 
L 196.935938 139.56591 
L 200.55662 130.985866 
L 201.763515 120.979982 
L 202.970409 117.513883 
L 204.177303 118.051772 
L 205.384197 114.335376 
L 209.00488 120.424945 
L 210.211774 120.228828 
L 211.418668 115.577866 
L 212.625563 115.041144 
L 213.832457 123.077765 
L 217.45314 129.565683 
L 218.660034 118.337062 
L 219.866928 115.002203 
L 221.073822 110.289651 
L 225.901399 102.074432 
L 227.108293 102.438349 
L 228.315188 102.033762 
L 229.522082 103.239679 
L 230.728976 105.729164 
L 234.349659 99.080332 
L 235.556553 92.740543 
L 236.763447 106.343172 
L 237.970341 103.690452 
L 239.177236 100.720917 
L 242.797918 101.498695 
L 244.004812 97.584664 
L 245.211707 97.608218 
L 246.418601 102.23765 
L 247.625495 102.1832 
L 252.453072 115.684705 
L 254.86686 126.986961 
L 256.073755 139.348127 
L 259.694437 139.760519 
L 260.901332 138.52934 
L 262.108226 139.420588 
L 263.31512 144.329586 
L 264.522014 130.869144 
L 268.142697 121.525117 
L 269.349591 114.916022 
L 270.556485 105.6282 
L 271.76338 132.025378 
L 272.970274 127.620716 
L 276.590956 131.291015 
L 277.797851 127.585233 
L 279.004745 121.848604 
L 280.211639 131.444255 
L 281.418533 143.651874 
L 285.039216 149.0256 
L 286.24611 142.153394 
L 287.453004 143.594887 
L 288.659899 154.509706 
L 289.866793 157.432972 
L 294.69437 162.415411 
L 295.901264 169.932994 
L 297.108158 166.84384 
L 298.315052 153.601544 
L 301.935735 158.963099 
L 303.142629 170.291783 
L 304.349523 157.465701 
L 305.556418 158.975974 
L 306.763312 166.52721 
L 310.383995 185.95528 
L 311.590889 188.359286 
L 312.797783 169.49579 
L 315.211571 182.13554 
L 318.832254 182.923889 
L 320.039148 174.007603 
L 321.246043 161.373882 
L 323.659831 150.441941 
L 327.280514 150.113141 
L 328.487408 141.016146 
L 329.694302 146.74889 
L 330.901196 137.987308 
L 332.108091 132.001397 
L 335.728773 131.282459 
L 336.935667 128.130897 
L 338.142562 128.921206 
L 339.349456 140.288967 
L 340.55635 137.137856 
L 344.177033 133.336426 
L 345.383927 138.853973 
L 346.590821 146.34848 
L 347.797715 146.442266 
L 349.00461 145.994018 
L 352.625292 154.522586 
L 353.832187 157.777432 
L 355.039081 155.57676 
L 356.245975 163.956441 
L 361.073552 160.289595 
L 362.280446 152.762352 
L 363.48734 150.234933 
L 364.694235 157.685129 
L 365.901129 173.603733 
L 369.521811 172.460159 
L 370.728706 181.301212 
L 371.9356 182.71563 
L 373.142494 165.306993 
L 374.349388 181.778317 
L 377.970071 178.433792 
L 379.176965 174.573906 
L 380.383859 151.380978 
L 381.590754 170.827792 
L 382.797648 169.795837 
L 386.418331 185.387697 
L 387.625225 189.582826 
L 388.832119 195.361079 
L 390.039013 198.851591 
L 391.245907 190.30204 
L 394.86659 191.893827 
L 396.073484 181.295616 
L 397.280379 202.046844 
L 398.487273 208.680007 
L 398.487273 208.680007 
" style="fill:none;stroke:#ff0000;stroke-linecap:square;stroke-opacity:0.9;stroke-width:2;"/>
   </g>
   <g id="line2d_21">
    <path clip-path="url(#p8ed7cf03b9)" d="M 73.832727 136.230974 
L 75.039621 133.1954 
L 76.246516 131.117022 
L 77.45341 133.987388 
L 78.660304 128.319893 
L 82.280987 125.023001 
L 83.487881 123.638899 
L 84.694775 125.162555 
L 85.901669 124.584268 
L 87.108564 124.777779 
L 91.936141 124.582392 
L 93.143035 126.847319 
L 94.349929 128.35727 
L 95.556823 133.547228 
L 99.177506 128.640792 
L 100.3844 136.738668 
L 101.591294 133.23202 
L 102.798189 134.526528 
L 104.005083 139.762312 
L 107.625765 149.863396 
L 108.83266 151.452725 
L 110.039554 146.936299 
L 111.246448 138.050416 
L 112.453342 133.100879 
L 116.074025 128.077957 
L 117.280919 140.451312 
L 118.487813 138.637177 
L 119.694708 142.587092 
L 120.901602 133.66026 
L 124.522285 144.660191 
L 125.729179 136.082495 
L 126.936073 133.492064 
L 128.142967 131.945985 
L 129.349861 129.58421 
L 132.970544 132.912415 
L 134.177438 137.428219 
L 135.384333 138.63003 
L 136.591227 127.55832 
L 137.798121 126.482965 
L 141.418804 121.649357 
L 142.625698 116.122586 
L 143.832592 113.593525 
L 145.039486 123.115827 
L 146.246381 130.605491 
L 149.867063 129.799983 
L 151.073957 135.594726 
L 152.280852 136.670825 
L 153.487746 129.280488 
L 159.522217 124.271219 
L 160.729111 119.720565 
L 161.936005 119.112072 
L 163.1429 115.255331 
L 166.763582 114.547214 
L 167.970477 121.970682 
L 169.177371 126.454676 
L 170.384265 126.784623 
L 171.591159 121.764035 
L 175.211842 119.859218 
L 176.418736 122.774308 
L 177.62563 123.306909 
L 178.832525 124.641584 
L 180.039419 125.010612 
L 183.660101 121.411134 
L 184.866996 116.474441 
L 186.07389 116.940374 
L 188.487678 130.009488 
L 192.108361 122.764243 
L 193.315255 134.296321 
L 194.522149 142.190038 
L 195.729044 135.50655 
L 196.935938 138.730017 
L 200.55662 128.230959 
L 201.763515 117.627232 
L 202.970409 112.740848 
L 204.177303 112.528466 
L 205.384197 110.786973 
L 209.00488 116.634173 
L 210.211774 113.545494 
L 211.418668 109.966345 
L 212.625563 107.684932 
L 213.832457 115.240455 
L 217.45314 123.107756 
L 218.660034 109.017486 
L 219.866928 106.647179 
L 221.073822 101.15595 
L 225.901399 93.553458 
L 227.108293 93.852738 
L 228.315188 93.541011 
L 229.522082 94.236352 
L 230.728976 97.476489 
L 234.349659 88.107698 
L 235.556553 80.00736 
L 236.763447 96.58135 
L 237.970341 90.248349 
L 239.177236 87.906812 
L 242.797918 86.816818 
L 244.004812 80.647882 
L 245.211707 79.813515 
L 246.418601 87.354264 
L 247.625495 85.162277 
L 252.453072 98.55527 
L 253.659966 101.443177 
L 254.86686 108.70341 
L 256.073755 122.859133 
L 259.694437 121.568435 
L 260.901332 128.413035 
L 262.108226 128.560984 
L 263.31512 132.158593 
L 264.522014 117.502492 
L 268.142697 104.744299 
L 269.349591 98.715436 
L 270.556485 88.612053 
L 271.76338 129.853228 
L 272.970274 129.466997 
L 276.590956 139.592138 
L 277.797851 140.970998 
L 279.004745 127.734794 
L 280.211639 138.443987 
L 281.418533 151.378737 
L 285.039216 155.0496 
L 286.24611 148.068719 
L 287.453004 151.177486 
L 288.659899 161.543726 
L 289.866793 164.453777 
L 294.69437 170.214311 
L 295.901264 177.799706 
L 297.108158 165.693886 
L 298.315052 155.140146 
L 301.935735 157.085967 
L 303.142629 165.577329 
L 304.349523 154.312396 
L 305.556418 157.446733 
L 310.383995 188.333045 
L 311.590889 185.835899 
L 312.797783 162.802344 
L 315.211571 179.911583 
L 318.832254 180.237253 
L 320.039148 170.030904 
L 321.246043 152.108801 
L 322.452937 145.648956 
L 323.659831 136.730386 
L 327.280514 139.074258 
L 328.487408 126.855186 
L 329.694302 133.660216 
L 330.901196 124.981518 
L 332.108091 118.525469 
L 335.728773 117.975231 
L 336.935667 113.420327 
L 338.142562 116.578581 
L 339.349456 131.172825 
L 340.55635 130.101899 
L 344.177033 124.494668 
L 346.590821 140.633926 
L 347.797715 142.735281 
L 349.00461 143.134263 
L 353.832187 155.316134 
L 355.039081 152.942753 
L 356.245975 163.417004 
L 361.073552 157.237895 
L 362.280446 147.096388 
L 363.48734 150.493605 
L 364.694235 162.559518 
L 365.901129 181.164173 
L 369.521811 178.131853 
L 370.728706 191.455399 
L 371.9356 197.163163 
L 373.142494 168.082642 
L 374.349388 184.710175 
L 377.970071 175.122273 
L 379.176965 169.357949 
L 380.383859 144.579489 
L 381.590754 168.30648 
L 382.797648 170.436018 
L 386.418331 186.802577 
L 387.625225 186.368543 
L 388.832119 196.267962 
L 390.039013 200.255964 
L 391.245907 189.222195 
L 394.86659 192.565461 
L 396.073484 180.422938 
L 397.280379 201.78286 
L 398.487273 208.316878 
L 398.487273 208.316878 
" style="fill:none;stroke:#ff8040;stroke-linecap:square;stroke-opacity:0.9;stroke-width:2;"/>
   </g>
   <g id="line2d_22">
    <path clip-path="url(#p8ed7cf03b9)" d="M 73.832727 136.804696 
L 75.039621 134.98954 
L 76.246516 133.770714 
L 77.45341 138.214596 
L 78.660304 132.556279 
L 82.280987 132.659439 
L 83.487881 132.172811 
L 84.694775 133.242691 
L 85.901669 134.00436 
L 87.108564 134.053141 
L 91.936141 135.81012 
L 93.143035 138.214772 
L 94.349929 139.287198 
L 95.556823 143.346208 
L 99.177506 139.71177 
L 100.3844 145.071372 
L 101.591294 143.047025 
L 102.798189 144.611332 
L 104.005083 151.749138 
L 107.625765 163.489924 
L 108.83266 164.409019 
L 110.039554 163.794691 
L 111.246448 158.717409 
L 112.453342 155.496862 
L 116.074025 152.354951 
L 117.280919 163.576577 
L 118.487813 161.717124 
L 119.694708 167.355631 
L 120.901602 158.365653 
L 124.522285 165.022352 
L 125.729179 157.981449 
L 126.936073 156.991498 
L 129.349861 154.109683 
L 132.970544 156.683757 
L 134.177438 161.133881 
L 135.384333 162.071621 
L 136.591227 150.3526 
L 137.798121 146.560557 
L 141.418804 144.038498 
L 142.625698 140.712765 
L 143.832592 138.071513 
L 145.039486 152.855577 
L 146.246381 152.527271 
L 149.867063 152.64158 
L 151.073957 153.820805 
L 152.280852 157.316951 
L 153.487746 148.226132 
L 154.69464 148.564325 
L 158.315323 147.768505 
L 159.522217 146.003207 
L 160.729111 142.46158 
L 161.936005 143.881612 
L 163.1429 141.872939 
L 166.763582 141.682094 
L 167.970477 146.074987 
L 169.177371 152.853175 
L 170.384265 153.109056 
L 171.591159 145.17558 
L 175.211842 143.59154 
L 176.418736 144.641981 
L 177.62563 145.998578 
L 178.832525 147.017537 
L 180.039419 151.117164 
L 183.660101 152.095489 
L 184.866996 149.030781 
L 186.07389 153.951105 
L 188.487678 167.625 
L 192.108361 162.34189 
L 194.522149 182.916948 
L 195.729044 175.761216 
L 196.935938 179.694299 
L 200.55662 171.732209 
L 201.763515 160.600933 
L 202.970409 157.02098 
L 204.177303 157.942697 
L 205.384197 156.301661 
L 209.00488 161.452565 
L 210.211774 159.349647 
L 211.418668 155.666898 
L 212.625563 159.22612 
L 213.832457 167.42825 
L 217.45314 174.993647 
L 218.660034 162.263853 
L 219.866928 157.972863 
L 221.073822 154.459208 
L 225.901399 150.867088 
L 227.108293 150.132288 
L 228.315188 149.551006 
L 229.522082 149.852002 
L 230.728976 152.079969 
L 234.349659 145.077206 
L 235.556553 138.163419 
L 236.763447 148.839457 
L 237.970341 144.236232 
L 239.177236 141.787777 
L 242.797918 141.928753 
L 244.004812 140.225139 
L 245.211707 139.363909 
L 246.418601 142.772074 
L 247.625495 141.108608 
L 252.453072 153.84978 
L 254.86686 165.928416 
L 256.073755 177.808326 
L 259.694437 177.646483 
L 260.901332 178.989695 
L 262.108226 179.549254 
L 263.31512 184.522486 
L 264.522014 170.851757 
L 268.142697 162.385007 
L 269.349591 156.526028 
L 270.556485 149.885025 
L 271.76338 205.042508 
L 272.970274 198.366371 
L 276.590956 201.57188 
L 277.797851 199.850308 
L 279.004745 193.454783 
L 280.211639 202.021624 
L 281.418533 214.509086 
L 285.039216 220.280549 
L 286.24611 215.113588 
L 287.453004 217.745974 
L 288.659899 229.364758 
L 289.866793 231.522987 
L 294.69437 235.227938 
L 295.901264 240.910108 
L 297.108158 233.435671 
L 298.315052 224.250572 
L 301.935735 229.368774 
L 303.142629 237.580114 
L 304.349523 226.50555 
L 305.556418 227.173228 
L 306.763312 233.160654 
L 310.383995 248.839789 
L 311.590889 249.995012 
L 312.797783 233.733686 
L 314.004677 238.517737 
L 315.211571 242.259726 
L 318.832254 244.641772 
L 320.039148 238.159028 
L 321.246043 226.296584 
L 322.452937 221.747269 
L 323.659831 218.053988 
L 327.280514 217.79735 
L 328.487408 207.964157 
L 329.694302 213.024263 
L 330.901196 204.600456 
L 332.108091 198.779379 
L 335.728773 198.51654 
L 336.935667 195.546754 
L 338.142562 196.842928 
L 339.349456 206.762318 
L 340.55635 204.271832 
L 344.177033 199.111069 
L 345.383927 205.492634 
L 346.590821 212.766162 
L 347.797715 211.709052 
L 349.00461 211.423173 
L 352.625292 218.956879 
L 353.832187 220.872296 
L 355.039081 219.580632 
L 356.245975 225.633337 
L 361.073552 224.681727 
L 362.280446 216.689857 
L 363.48734 217.404655 
L 364.694235 228.114662 
L 365.901129 243.05891 
L 369.521811 240.527261 
L 370.728706 250.900477 
L 371.9356 252.426774 
L 373.142494 232.37424 
L 374.349388 247.986718 
L 377.970071 241.331221 
L 379.176965 236.69399 
L 380.383859 216.923533 
L 381.590754 234.869166 
L 382.797648 235.019322 
L 386.418331 248.270132 
L 387.625225 250.780556 
L 388.832119 254.530668 
L 390.039013 256.206257 
L 391.245907 247.396587 
L 394.86659 248.050626 
L 396.073484 240.387516 
L 397.280379 258.586466 
L 398.487273 265.797818 
L 398.487273 265.797818 
" style="fill:none;stroke:#0d0d0d;stroke-linecap:square;stroke-opacity:0.25;stroke-width:2;"/>
   </g>
   <g id="line2d_23">
    <path clip-path="url(#p8ed7cf03b9)" d="M 73.832727 135.657252 
L 76.246516 126.319397 
L 77.45341 130.419493 
L 78.660304 122.934566 
L 82.280987 117.625772 
L 83.487881 117.382827 
L 84.694775 116.117444 
L 85.901669 115.76242 
L 87.108564 114.789003 
L 91.936141 114.989176 
L 93.143035 117.310277 
L 94.349929 119.216397 
L 95.556823 123.661988 
L 99.177506 118.952293 
L 100.3844 123.070357 
L 101.591294 121.166234 
L 102.798189 121.363684 
L 104.005083 128.37813 
L 107.625765 136.232062 
L 108.83266 137.291691 
L 110.039554 132.773703 
L 111.246448 124.675467 
L 112.453342 121.116056 
L 116.074025 118.18609 
L 117.280919 127.793954 
L 118.487813 125.567913 
L 119.694708 131.226409 
L 120.901602 120.548974 
L 124.522285 124.247699 
L 125.729179 115.695321 
L 128.142967 114.008124 
L 129.349861 110.945922 
L 132.970544 113.616788 
L 134.177438 118.68526 
L 135.384333 120.397423 
L 136.591227 107.505565 
L 137.798121 104.086033 
L 141.418804 99.849497 
L 142.625698 95.263551 
L 143.832592 91.893045 
L 146.246381 97.19467 
L 149.867063 99.553238 
L 151.073957 102.913413 
L 152.280852 104.628522 
L 153.487746 96.555365 
L 158.315323 92.373871 
L 159.522217 90.473904 
L 160.729111 84.420758 
L 161.936005 87.673705 
L 163.1429 86.918789 
L 166.763582 86.864803 
L 167.970477 89.738325 
L 169.177371 93.666077 
L 170.384265 92.950571 
L 171.591159 90.58161 
L 175.211842 87.83457 
L 176.418736 88.360086 
L 177.62563 88.442855 
L 178.832525 85.723744 
L 180.039419 86.649966 
L 183.660101 89.10169 
L 184.866996 81.516614 
L 186.07389 82.476912 
L 188.487678 97.420242 
L 192.108361 88.458148 
L 193.315255 94.87234 
L 194.522149 103.526224 
L 195.729044 95.708236 
L 196.935938 98.152586 
L 200.55662 88.754999 
L 201.763515 78.939679 
L 202.970409 74.592138 
L 204.177303 74.759799 
L 205.384197 70.249422 
L 209.00488 72.899211 
L 210.211774 72.005051 
L 211.418668 66.099555 
L 212.625563 69.011691 
L 213.832457 76.255052 
L 217.45314 84.419056 
L 218.660034 76.232181 
L 219.866928 73.985635 
L 221.073822 67.456378 
L 225.901399 58.874317 
L 227.108293 58.54369 
L 228.315188 57.861314 
L 229.522082 58.481085 
L 230.728976 61.494584 
L 234.349659 56.514211 
L 235.556553 52.154182 
L 236.763447 68.067277 
L 239.177236 61.916062 
L 242.797918 61.42252 
L 244.004812 57.606239 
L 245.211707 56.887467 
L 246.418601 60.783531 
L 247.625495 59.99928 
L 252.453072 75.367951 
L 254.86686 88.148508 
L 256.073755 101.825128 
L 259.694437 102.250648 
L 260.901332 92.706727 
L 262.108226 94.678162 
L 263.31512 100.544774 
L 264.522014 85.462078 
L 268.142697 75.443488 
L 269.349591 67.200338 
L 270.556485 52.324886 
L 271.76338 82.359453 
L 272.970274 72.709858 
L 276.590956 72.123183 
L 277.797851 68.368076 
L 279.004745 56.84173 
L 280.211639 67.673218 
L 281.418533 82.780294 
L 285.039216 90.107614 
L 286.24611 83.325263 
L 287.453004 85.588716 
L 288.659899 96.83973 
L 289.866793 99.913006 
L 294.69437 104.610694 
L 295.901264 112.498278 
L 297.108158 106.192342 
L 298.315052 91.380662 
L 301.935735 95.516027 
L 303.142629 110.347516 
L 304.349523 92.897601 
L 305.556418 97.322594 
L 306.763312 106.56726 
L 310.383995 127.617809 
L 311.590889 127.550056 
L 312.797783 104.396596 
L 314.004677 115.090172 
L 315.211571 124.122453 
L 318.832254 125.476709 
L 320.039148 114.239369 
L 321.246043 99.797556 
L 322.452937 94.323457 
L 323.659831 84.985998 
L 327.280514 84.999234 
L 328.487408 74.421726 
L 329.694302 80.949276 
L 330.901196 70.472693 
L 332.108091 63.056079 
L 335.728773 61.409922 
L 336.935667 55.978111 
L 338.142562 57.209218 
L 339.349456 69.189273 
L 340.55635 66.205794 
L 344.177033 64.157103 
L 345.383927 70.283885 
L 346.590821 81.762071 
L 347.797715 81.404902 
L 349.00461 77.682019 
L 352.625292 85.782969 
L 353.832187 88.803401 
L 355.039081 85.675544 
L 356.245975 93.202825 
L 361.073552 92.58574 
L 362.280446 82.231264 
L 363.48734 79.555272 
L 365.901129 111.35392 
L 369.521811 110.025909 
L 370.728706 118.76877 
L 371.9356 126.115942 
L 373.142494 97.268735 
L 374.349388 115.954314 
L 377.970071 108.613571 
L 379.176965 105.106562 
L 380.383859 80.369781 
L 381.590754 104.400291 
L 382.797648 105.011286 
L 387.625225 129.85552 
L 388.832119 138.311753 
L 390.039013 139.545134 
L 391.245907 127.424953 
L 394.86659 129.800945 
L 396.073484 117.369873 
L 397.280379 141.476502 
L 398.487273 148.865417 
L 398.487273 148.865417 
" style="fill:none;stroke:#0d0d0d;stroke-linecap:square;stroke-opacity:0.25;stroke-width:2;"/>
   </g>
   <g id="patch_3">
    <path d="M 57.6 276.48 
L 57.6 41.472 
" style="fill:none;stroke:#000000;stroke-linecap:square;stroke-linejoin:miter;stroke-width:0.8;"/>
   </g>
   <g id="patch_4">
    <path d="M 414.72 276.48 
L 414.72 41.472 
" style="fill:none;stroke:#000000;stroke-linecap:square;stroke-linejoin:miter;stroke-width:0.8;"/>
   </g>
   <g id="patch_5">
    <path d="M 57.6 276.48 
L 414.72 276.48 
" style="fill:none;stroke:#000000;stroke-linecap:square;stroke-linejoin:miter;stroke-width:0.8;"/>
   </g>
   <g id="patch_6">
    <path d="M 57.6 41.472 
L 414.72 41.472 
" style="fill:none;stroke:#000000;stroke-linecap:square;stroke-linejoin:miter;stroke-width:0.8;"/>
   </g>
   <g id="text_20">
    <!-- TESTFUNDS1550 -->
    <g transform="translate(185.200312 22.034625)scale(0.12 -0.12)">
     <defs>
      <path d="M -19 4666 
L 3928 4666 
L 3928 4134 
L 2272 4134 
L 2272 0 
L 1638 0 
L 1638 4134 
L -19 4134 
L -19 4666 
z
" id="DejaVuSans-54" transform="scale(0.015625)"/>
      <path d="M 628 4666 
L 3578 4666 
L 3578 4134 
L 1259 4134 
L 1259 2753 
L 3481 2753 
L 3481 2222 
L 1259 2222 
L 1259 531 
L 3634 531 
L 3634 0 
L 628 0 
L 628 4666 
z
" id="DejaVuSans-45" transform="scale(0.015625)"/>
      <path d="M 3425 4513 
L 3425 3897 
Q 3066 4069 2747 4153 
Q 2428 4238 2131 4238 
Q 1616 4238 1336 4038 
Q 1056 3838 1056 3469 
Q 1056 3159 1242 3001 
Q 1428 2844 1947 2747 
L 2328 2669 
Q 3034 2534 3370 2195 
Q 3706 1856 3706 1288 
Q 3706 609 3251 259 
Q 2797 -91 1919 -91 
Q 1588 -91 1214 -16 
Q 841 59 441 206 
L 441 856 
Q 825 641 1194 531 
Q 1563 422 1919 422 
Q 2459 422 2753 634 
Q 3047 847 3047 1241 
Q 3047 1584 2836 1778 
Q 2625 1972 2144 2069 
L 1759 2144 
Q 1053 2284 737 2584 
Q 422 2884 422 3419 
Q 422 4038 858 4394 
Q 1294 4750 2059 4750 
Q 2388 4750 2728 4690 
Q 3069 4631 3425 4513 
z
" id="DejaVuSans-53" transform="scale(0.015625)"/>
      <path d="M 628 4666 
L 3309 4666 
L 3309 4134 
L 1259 4134 
L 1259 2759 
L 3109 2759 
L 3109 2228 
L 1259 2228 
L 1259 0 
L 628 0 
L 628 4666 
z
" id="DejaVuSans-46" transform="scale(0.015625)"/>
      <path d="M 556 4666 
L 1191 4666 
L 1191 1831 
Q 1191 1081 1462 751 
Q 1734 422 2344 422 
Q 2950 422 3222 751 
Q 3494 1081 3494 1831 
L 3494 4666 
L 4128 4666 
L 4128 1753 
Q 4128 841 3676 375 
Q 3225 -91 2344 -91 
Q 1459 -91 1007 375 
Q 556 841 556 1753 
L 556 4666 
z
" id="DejaVuSans-55" transform="scale(0.015625)"/>
      <path d="M 628 4666 
L 1478 4666 
L 3547 763 
L 3547 4666 
L 4159 4666 
L 4159 0 
L 3309 0 
L 1241 3903 
L 1241 0 
L 628 0 
L 628 4666 
z
" id="DejaVuSans-4e" transform="scale(0.015625)"/>
      <path d="M 1259 4147 
L 1259 519 
L 2022 519 
Q 2988 519 3436 956 
Q 3884 1394 3884 2338 
Q 3884 3275 3436 3711 
Q 2988 4147 2022 4147 
L 1259 4147 
z
M 628 4666 
L 1925 4666 
Q 3281 4666 3915 4102 
Q 4550 3538 4550 2338 
Q 4550 1131 3912 565 
Q 3275 0 1925 0 
L 628 0 
L 628 4666 
z
" id="DejaVuSans-44" transform="scale(0.015625)"/>
     </defs>
     <use xlink:href="#DejaVuSans-54"/>
     <use x="61.083984" xlink:href="#DejaVuSans-45"/>
     <use x="124.267578" xlink:href="#DejaVuSans-53"/>
     <use x="187.744141" xlink:href="#DejaVuSans-54"/>
     <use x="248.828125" xlink:href="#DejaVuSans-46"/>
     <use x="306.347656" xlink:href="#DejaVuSans-55"/>
     <use x="379.541016" xlink:href="#DejaVuSans-4e"/>
     <use x="454.345703" xlink:href="#DejaVuSans-44"/>
     <use x="531.347656" xlink:href="#DejaVuSans-53"/>
     <use x="594.824219" xlink:href="#DejaVuSans-31"/>
     <use x="658.447266" xlink:href="#DejaVuSans-35"/>
     <use x="722.070312" xlink:href="#DejaVuSans-35"/>
     <use x="785.693359" xlink:href="#DejaVuSans-30"/>
    </g>
    <!-- daily_report -->
    <g transform="translate(200.466563 35.472)scale(0.12 -0.12)">
     <defs>
      <path d="M 603 3500 
L 1178 3500 
L 1178 0 
L 603 0 
L 603 3500 
z
M 603 4863 
L 1178 4863 
L 1178 4134 
L 603 4134 
L 603 4863 
z
" id="DejaVuSans-69" transform="scale(0.015625)"/>
      <path d="M 603 4863 
L 1178 4863 
L 1178 0 
L 603 0 
L 603 4863 
z
" id="DejaVuSans-6c" transform="scale(0.015625)"/>
      <path d="M 2059 -325 
Q 1816 -950 1584 -1140 
Q 1353 -1331 966 -1331 
L 506 -1331 
L 506 -850 
L 844 -850 
Q 1081 -850 1212 -737 
Q 1344 -625 1503 -206 
L 1606 56 
L 191 3500 
L 800 3500 
L 1894 763 
L 2988 3500 
L 3597 3500 
L 2059 -325 
z
" id="DejaVuSans-79" transform="scale(0.015625)"/>
      <path d="M 3263 -1063 
L 3263 -1509 
L -63 -1509 
L -63 -1063 
L 3263 -1063 
z
" id="DejaVuSans-5f" transform="scale(0.015625)"/>
      <path d="M 2631 2963 
Q 2534 3019 2420 3045 
Q 2306 3072 2169 3072 
Q 1681 3072 1420 2755 
Q 1159 2438 1159 1844 
L 1159 0 
L 581 0 
L 581 3500 
L 1159 3500 
L 1159 2956 
Q 1341 3275 1631 3429 
Q 1922 3584 2338 3584 
Q 2397 3584 2469 3576 
Q 2541 3569 2628 3553 
L 2631 2963 
z
" id="DejaVuSans-72" transform="scale(0.015625)"/>
      <path d="M 1159 525 
L 1159 -1331 
L 581 -1331 
L 581 3500 
L 1159 3500 
L 1159 2969 
Q 1341 3281 1617 3432 
Q 1894 3584 2278 3584 
Q 2916 3584 3314 3078 
Q 3713 2572 3713 1747 
Q 3713 922 3314 415 
Q 2916 -91 2278 -91 
Q 1894 -91 1617 61 
Q 1341 213 1159 525 
z
M 3116 1747 
Q 3116 2381 2855 2742 
Q 2594 3103 2138 3103 
Q 1681 3103 1420 2742 
Q 1159 2381 1159 1747 
Q 1159 1113 1420 752 
Q 1681 391 2138 391 
Q 2594 391 2855 752 
Q 3116 1113 3116 1747 
z
" id="DejaVuSans-70" transform="scale(0.015625)"/>
      <path d="M 1959 3097 
Q 1497 3097 1228 2736 
Q 959 2375 959 1747 
Q 959 1119 1226 758 
Q 1494 397 1959 397 
Q 2419 397 2687 759 
Q 2956 1122 2956 1747 
Q 2956 2369 2687 2733 
Q 2419 3097 1959 3097 
z
M 1959 3584 
Q 2709 3584 3137 3096 
Q 3566 2609 3566 1747 
Q 3566 888 3137 398 
Q 2709 -91 1959 -91 
Q 1206 -91 779 398 
Q 353 888 353 1747 
Q 353 2609 779 3096 
Q 1206 3584 1959 3584 
z
" id="DejaVuSans-6f" transform="scale(0.015625)"/>
     </defs>
     <use xlink:href="#DejaVuSans-64"/>
     <use x="63.476562" xlink:href="#DejaVuSans-61"/>
     <use x="124.755859" xlink:href="#DejaVuSans-69"/>
     <use x="152.539062" xlink:href="#DejaVuSans-6c"/>
     <use x="180.322266" xlink:href="#DejaVuSans-79"/>
     <use x="239.501953" xlink:href="#DejaVuSans-5f"/>
     <use x="289.501953" xlink:href="#DejaVuSans-72"/>
     <use x="328.365234" xlink:href="#DejaVuSans-65"/>
     <use x="389.888672" xlink:href="#DejaVuSans-70"/>
     <use x="453.365234" xlink:href="#DejaVuSans-6f"/>
     <use x="514.546875" xlink:href="#DejaVuSans-72"/>
     <use x="555.660156" xlink:href="#DejaVuSans-74"/>
    </g>
   </g>
   <g id="legend_1">
    <g id="patch_7">
     <path d="M 64.6 271.48 
L 155.792188 271.48 
Q 157.792188 271.48 157.792188 269.48 
L 157.792188 197.089375 
Q 157.792188 195.089375 155.792188 195.089375 
L 64.6 195.089375 
Q 62.6 195.089375 62.6 197.089375 
L 62.6 269.48 
Q 62.6 271.48 64.6 271.48 
z
" style="fill:#ffffff;opacity:0.8;stroke:#cccccc;stroke-linejoin:miter;"/>
    </g>
    <g id="line2d_24">
     <path d="M 66.6 203.187812 
L 86.6 203.187812 
" style="fill:none;stroke:#0000ff;stroke-linecap:square;stroke-opacity:0.9;stroke-width:2;"/>
    </g>
    <g id="line2d_25"/>
    <g id="text_21">
     <!-- alpaca -->
     <g transform="translate(94.6 206.687812)scale(0.1 -0.1)">
      <defs>
       <path d="M 3122 3366 
L 3122 2828 
Q 2878 2963 2633 3030 
Q 2388 3097 2138 3097 
Q 1578 3097 1268 2742 
Q 959 2388 959 1747 
Q 959 1106 1268 751 
Q 1578 397 2138 397 
Q 2388 397 2633 464 
Q 2878 531 3122 666 
L 3122 134 
Q 2881 22 2623 -34 
Q 2366 -91 2075 -91 
Q 1284 -91 818 406 
Q 353 903 353 1747 
Q 353 2603 823 3093 
Q 1294 3584 2113 3584 
Q 2378 3584 2631 3529 
Q 2884 3475 3122 3366 
z
" id="DejaVuSans-63" transform="scale(0.015625)"/>
      </defs>
      <use xlink:href="#DejaVuSans-61"/>
      <use x="61.279297" xlink:href="#DejaVuSans-6c"/>
      <use x="89.0625" xlink:href="#DejaVuSans-70"/>
      <use x="152.539062" xlink:href="#DejaVuSans-61"/>
      <use x="213.818359" xlink:href="#DejaVuSans-63"/>
      <use x="268.798828" xlink:href="#DejaVuSans-61"/>
     </g>
    </g>
    <g id="line2d_26">
     <path d="M 66.6 217.865937 
L 86.6 217.865937 
" style="fill:none;stroke:#ff0000;stroke-linecap:square;stroke-opacity:0.9;stroke-width:2;"/>
    </g>
    <g id="line2d_27"/>
    <g id="text_22">
     <!-- mattress -->
     <g transform="translate(94.6 221.365937)scale(0.1 -0.1)">
      <defs>
       <path d="M 3328 2828 
Q 3544 3216 3844 3400 
Q 4144 3584 4550 3584 
Q 5097 3584 5394 3201 
Q 5691 2819 5691 2113 
L 5691 0 
L 5113 0 
L 5113 2094 
Q 5113 2597 4934 2840 
Q 4756 3084 4391 3084 
Q 3944 3084 3684 2787 
Q 3425 2491 3425 1978 
L 3425 0 
L 2847 0 
L 2847 2094 
Q 2847 2600 2669 2842 
Q 2491 3084 2119 3084 
Q 1678 3084 1418 2786 
Q 1159 2488 1159 1978 
L 1159 0 
L 581 0 
L 581 3500 
L 1159 3500 
L 1159 2956 
Q 1356 3278 1631 3431 
Q 1906 3584 2284 3584 
Q 2666 3584 2933 3390 
Q 3200 3197 3328 2828 
z
" id="DejaVuSans-6d" transform="scale(0.015625)"/>
       <path d="M 2834 3397 
L 2834 2853 
Q 2591 2978 2328 3040 
Q 2066 3103 1784 3103 
Q 1356 3103 1142 2972 
Q 928 2841 928 2578 
Q 928 2378 1081 2264 
Q 1234 2150 1697 2047 
L 1894 2003 
Q 2506 1872 2764 1633 
Q 3022 1394 3022 966 
Q 3022 478 2636 193 
Q 2250 -91 1575 -91 
Q 1294 -91 989 -36 
Q 684 19 347 128 
L 347 722 
Q 666 556 975 473 
Q 1284 391 1588 391 
Q 1994 391 2212 530 
Q 2431 669 2431 922 
Q 2431 1156 2273 1281 
Q 2116 1406 1581 1522 
L 1381 1569 
Q 847 1681 609 1914 
Q 372 2147 372 2553 
Q 372 3047 722 3315 
Q 1072 3584 1716 3584 
Q 2034 3584 2315 3537 
Q 2597 3491 2834 3397 
z
" id="DejaVuSans-73" transform="scale(0.015625)"/>
      </defs>
      <use xlink:href="#DejaVuSans-6d"/>
      <use x="97.412109" xlink:href="#DejaVuSans-61"/>
      <use x="158.691406" xlink:href="#DejaVuSans-74"/>
      <use x="197.900391" xlink:href="#DejaVuSans-74"/>
      <use x="237.109375" xlink:href="#DejaVuSans-72"/>
      <use x="275.972656" xlink:href="#DejaVuSans-65"/>
      <use x="337.496094" xlink:href="#DejaVuSans-73"/>
      <use x="389.595703" xlink:href="#DejaVuSans-73"/>
     </g>
    </g>
    <g id="line2d_28">
     <path d="M 66.6 232.544062 
L 86.6 232.544062 
" style="fill:none;stroke:#ff8040;stroke-linecap:square;stroke-opacity:0.9;stroke-width:2;"/>
    </g>
    <g id="line2d_29"/>
    <g id="text_23">
     <!-- trader-0850 -->
     <g transform="translate(94.6 236.044062)scale(0.1 -0.1)">
      <use xlink:href="#DejaVuSans-74"/>
      <use x="39.208984" xlink:href="#DejaVuSans-72"/>
      <use x="80.322266" xlink:href="#DejaVuSans-61"/>
      <use x="141.601562" xlink:href="#DejaVuSans-64"/>
      <use x="205.078125" xlink:href="#DejaVuSans-65"/>
      <use x="266.601562" xlink:href="#DejaVuSans-72"/>
      <use x="301.339844" xlink:href="#DejaVuSans-2d"/>
      <use x="337.423828" xlink:href="#DejaVuSans-30"/>
      <use x="401.046875" xlink:href="#DejaVuSans-38"/>
      <use x="464.669922" xlink:href="#DejaVuSans-35"/>
      <use x="528.292969" xlink:href="#DejaVuSans-30"/>
     </g>
    </g>
    <g id="line2d_30">
     <path d="M 66.6 247.222187 
L 86.6 247.222187 
" style="fill:none;stroke:#0d0d0d;stroke-linecap:square;stroke-opacity:0.25;stroke-width:2;"/>
    </g>
    <g id="line2d_31"/>
    <g id="text_24">
     <!-- rando-min -->
     <g transform="translate(94.6 250.722187)scale(0.1 -0.1)">
      <defs>
       <path d="M 3513 2113 
L 3513 0 
L 2938 0 
L 2938 2094 
Q 2938 2591 2744 2837 
Q 2550 3084 2163 3084 
Q 1697 3084 1428 2787 
Q 1159 2491 1159 1978 
L 1159 0 
L 581 0 
L 581 3500 
L 1159 3500 
L 1159 2956 
Q 1366 3272 1645 3428 
Q 1925 3584 2291 3584 
Q 2894 3584 3203 3211 
Q 3513 2838 3513 2113 
z
" id="DejaVuSans-6e" transform="scale(0.015625)"/>
      </defs>
      <use xlink:href="#DejaVuSans-72"/>
      <use x="41.113281" xlink:href="#DejaVuSans-61"/>
      <use x="102.392578" xlink:href="#DejaVuSans-6e"/>
      <use x="165.771484" xlink:href="#DejaVuSans-64"/>
      <use x="229.248047" xlink:href="#DejaVuSans-6f"/>
      <use x="292.304688" xlink:href="#DejaVuSans-2d"/>
      <use x="328.388672" xlink:href="#DejaVuSans-6d"/>
      <use x="425.800781" xlink:href="#DejaVuSans-69"/>
      <use x="453.583984" xlink:href="#DejaVuSans-6e"/>
     </g>
    </g>
    <g id="line2d_32">
     <path d="M 66.6 261.900312 
L 86.6 261.900312 
" style="fill:none;stroke:#0d0d0d;stroke-linecap:square;stroke-opacity:0.25;stroke-width:2;"/>
    </g>
    <g id="line2d_33"/>
    <g id="text_25">
     <!-- rando-max -->
     <g transform="translate(94.6 265.400312)scale(0.1 -0.1)">
      <defs>
       <path d="M 3513 3500 
L 2247 1797 
L 3578 0 
L 2900 0 
L 1881 1375 
L 863 0 
L 184 0 
L 1544 1831 
L 300 3500 
L 978 3500 
L 1906 2253 
L 2834 3500 
L 3513 3500 
z
" id="DejaVuSans-78" transform="scale(0.015625)"/>
      </defs>
      <use xlink:href="#DejaVuSans-72"/>
      <use x="41.113281" xlink:href="#DejaVuSans-61"/>
      <use x="102.392578" xlink:href="#DejaVuSans-6e"/>
      <use x="165.771484" xlink:href="#DejaVuSans-64"/>
      <use x="229.248047" xlink:href="#DejaVuSans-6f"/>
      <use x="292.304688" xlink:href="#DejaVuSans-2d"/>
      <use x="328.388672" xlink:href="#DejaVuSans-6d"/>
      <use x="425.800781" xlink:href="#DejaVuSans-61"/>
      <use x="487.080078" xlink:href="#DejaVuSans-78"/>
     </g>
    </g>
   </g>
  </g>
 </g>
 <defs>
  <clipPath id="p8ed7cf03b9">
   <rect height="235.008" width="357.12" x="57.6" y="41.472"/>
  </clipPath>
 </defs>
</svg>
