<?xml version="1.0" encoding="utf-8" standalone="no"?>
<!DOCTYPE svg PUBLIC "-//W3C//DTD SVG 1.1//EN"
  "http://www.w3.org/Graphics/SVG/1.1/DTD/svg11.dtd">
<svg height="345.6pt" version="1.1" viewBox="0 0 460.8 345.6" width="460.8pt" xmlns="http://www.w3.org/2000/svg" xmlns:xlink="http://www.w3.org/1999/xlink">
 <metadata>
  <rdf:RDF xmlns:cc="http://creativecommons.org/ns#" xmlns:dc="http://purl.org/dc/elements/1.1/" xmlns:rdf="http://www.w3.org/1999/02/22-rdf-syntax-ns#">
   <cc:Work>
    <dc:type rdf:resource="http://purl.org/dc/dcmitype/StillImage"/>
    <dc:date>2022-04-10T01:01:40.106694</dc:date>
    <dc:format>image/svg+xml</dc:format>
    <dc:creator>
     <cc:Agent>
      <dc:title>Matplotlib v3.4.3, https://matplotlib.org/</dc:title>
     </cc:Agent>
    </dc:creator>
   </cc:Work>
  </rdf:RDF>
 </metadata>
 <defs>
  <style type="text/css">*{stroke-linecap:butt;stroke-linejoin:round;}</style>
 </defs>
 <g id="figure_1">
  <g id="patch_1">
   <path d="M 0 345.6 
L 460.8 345.6 
L 460.8 0 
L 0 0 
z
" style="fill:#ffffff;"/>
  </g>
  <g id="axes_1">
   <g id="patch_2">
    <path d="M 57.6 276.48 
L 414.72 276.48 
L 414.72 41.472 
L 57.6 41.472 
z
" style="fill:#ffffff;"/>
   </g>
   <g id="matplotlib.axis_1">
    <g id="xtick_1">
     <g id="line2d_1">
      <defs>
       <path d="M 0 0 
L 0 3.5 
" id="mf0deb951ad" style="stroke:#000000;stroke-width:0.8;"/>
      </defs>
      <g>
       <use style="stroke:#000000;stroke-width:0.8;" x="86.648038" xlink:href="#mf0deb951ad" y="276.48"/>
      </g>
     </g>
     <g id="text_1">
      <!-- 2021-09 -->
      <g transform="translate(49.423217 310.951846)rotate(-30)scale(0.1 -0.1)">
       <defs>
        <path d="M 1228 531 
L 3431 531 
L 3431 0 
L 469 0 
L 469 531 
Q 828 903 1448 1529 
Q 2069 2156 2228 2338 
Q 2531 2678 2651 2914 
Q 2772 3150 2772 3378 
Q 2772 3750 2511 3984 
Q 2250 4219 1831 4219 
Q 1534 4219 1204 4116 
Q 875 4013 500 3803 
L 500 4441 
Q 881 4594 1212 4672 
Q 1544 4750 1819 4750 
Q 2544 4750 2975 4387 
Q 3406 4025 3406 3419 
Q 3406 3131 3298 2873 
Q 3191 2616 2906 2266 
Q 2828 2175 2409 1742 
Q 1991 1309 1228 531 
z
" id="DejaVuSans-32" transform="scale(0.015625)"/>
        <path d="M 2034 4250 
Q 1547 4250 1301 3770 
Q 1056 3291 1056 2328 
Q 1056 1369 1301 889 
Q 1547 409 2034 409 
Q 2525 409 2770 889 
Q 3016 1369 3016 2328 
Q 3016 3291 2770 3770 
Q 2525 4250 2034 4250 
z
M 2034 4750 
Q 2819 4750 3233 4129 
Q 3647 3509 3647 2328 
Q 3647 1150 3233 529 
Q 2819 -91 2034 -91 
Q 1250 -91 836 529 
Q 422 1150 422 2328 
Q 422 3509 836 4129 
Q 1250 4750 2034 4750 
z
" id="DejaVuSans-30" transform="scale(0.015625)"/>
        <path d="M 794 531 
L 1825 531 
L 1825 4091 
L 703 3866 
L 703 4441 
L 1819 4666 
L 2450 4666 
L 2450 531 
L 3481 531 
L 3481 0 
L 794 0 
L 794 531 
z
" id="DejaVuSans-31" transform="scale(0.015625)"/>
        <path d="M 313 2009 
L 1997 2009 
L 1997 1497 
L 313 1497 
L 313 2009 
z
" id="DejaVuSans-2d" transform="scale(0.015625)"/>
        <path d="M 703 97 
L 703 672 
Q 941 559 1184 500 
Q 1428 441 1663 441 
Q 2288 441 2617 861 
Q 2947 1281 2994 2138 
Q 2813 1869 2534 1725 
Q 2256 1581 1919 1581 
Q 1219 1581 811 2004 
Q 403 2428 403 3163 
Q 403 3881 828 4315 
Q 1253 4750 1959 4750 
Q 2769 4750 3195 4129 
Q 3622 3509 3622 2328 
Q 3622 1225 3098 567 
Q 2575 -91 1691 -91 
Q 1453 -91 1209 -44 
Q 966 3 703 97 
z
M 1959 2075 
Q 2384 2075 2632 2365 
Q 2881 2656 2881 3163 
Q 2881 3666 2632 3958 
Q 2384 4250 1959 4250 
Q 1534 4250 1286 3958 
Q 1038 3666 1038 3163 
Q 1038 2656 1286 2365 
Q 1534 2075 1959 2075 
z
" id="DejaVuSans-39" transform="scale(0.015625)"/>
       </defs>
       <use xlink:href="#DejaVuSans-32"/>
       <use x="63.623047" xlink:href="#DejaVuSans-30"/>
       <use x="127.246094" xlink:href="#DejaVuSans-32"/>
       <use x="190.869141" xlink:href="#DejaVuSans-31"/>
       <use x="254.492188" xlink:href="#DejaVuSans-2d"/>
       <use x="290.576172" xlink:href="#DejaVuSans-30"/>
       <use x="354.199219" xlink:href="#DejaVuSans-39"/>
      </g>
     </g>
    </g>
    <g id="xtick_2">
     <g id="line2d_2">
      <g>
       <use style="stroke:#000000;stroke-width:0.8;" x="129.365742" xlink:href="#mf0deb951ad" y="276.48"/>
      </g>
     </g>
     <g id="text_2">
      <!-- 2021-10 -->
      <g transform="translate(92.140921 310.951846)rotate(-30)scale(0.1 -0.1)">
       <use xlink:href="#DejaVuSans-32"/>
       <use x="63.623047" xlink:href="#DejaVuSans-30"/>
       <use x="127.246094" xlink:href="#DejaVuSans-32"/>
       <use x="190.869141" xlink:href="#DejaVuSans-31"/>
       <use x="254.492188" xlink:href="#DejaVuSans-2d"/>
       <use x="290.576172" xlink:href="#DejaVuSans-31"/>
       <use x="354.199219" xlink:href="#DejaVuSans-30"/>
      </g>
     </g>
    </g>
    <g id="xtick_3">
     <g id="line2d_3">
      <g>
       <use style="stroke:#000000;stroke-width:0.8;" x="173.507368" xlink:href="#mf0deb951ad" y="276.48"/>
      </g>
     </g>
     <g id="text_3">
      <!-- 2021-11 -->
      <g transform="translate(136.282548 310.951846)rotate(-30)scale(0.1 -0.1)">
       <use xlink:href="#DejaVuSans-32"/>
       <use x="63.623047" xlink:href="#DejaVuSans-30"/>
       <use x="127.246094" xlink:href="#DejaVuSans-32"/>
       <use x="190.869141" xlink:href="#DejaVuSans-31"/>
       <use x="254.492188" xlink:href="#DejaVuSans-2d"/>
       <use x="290.576172" xlink:href="#DejaVuSans-31"/>
       <use x="354.199219" xlink:href="#DejaVuSans-31"/>
      </g>
     </g>
    </g>
    <g id="xtick_4">
     <g id="line2d_4">
      <g>
       <use style="stroke:#000000;stroke-width:0.8;" x="216.225072" xlink:href="#mf0deb951ad" y="276.48"/>
      </g>
     </g>
     <g id="text_4">
      <!-- 2021-12 -->
      <g transform="translate(179.000251 310.951846)rotate(-30)scale(0.1 -0.1)">
       <use xlink:href="#DejaVuSans-32"/>
       <use x="63.623047" xlink:href="#DejaVuSans-30"/>
       <use x="127.246094" xlink:href="#DejaVuSans-32"/>
       <use x="190.869141" xlink:href="#DejaVuSans-31"/>
       <use x="254.492188" xlink:href="#DejaVuSans-2d"/>
       <use x="290.576172" xlink:href="#DejaVuSans-31"/>
       <use x="354.199219" xlink:href="#DejaVuSans-32"/>
      </g>
     </g>
    </g>
    <g id="xtick_5">
     <g id="line2d_5">
      <g>
       <use style="stroke:#000000;stroke-width:0.8;" x="260.366699" xlink:href="#mf0deb951ad" y="276.48"/>
      </g>
     </g>
     <g id="text_5">
      <!-- 2022-01 -->
      <g transform="translate(223.141878 310.951846)rotate(-30)scale(0.1 -0.1)">
       <use xlink:href="#DejaVuSans-32"/>
       <use x="63.623047" xlink:href="#DejaVuSans-30"/>
       <use x="127.246094" xlink:href="#DejaVuSans-32"/>
       <use x="190.869141" xlink:href="#DejaVuSans-32"/>
       <use x="254.492188" xlink:href="#DejaVuSans-2d"/>
       <use x="290.576172" xlink:href="#DejaVuSans-30"/>
       <use x="354.199219" xlink:href="#DejaVuSans-31"/>
      </g>
     </g>
    </g>
    <g id="xtick_6">
     <g id="line2d_6">
      <g>
       <use style="stroke:#000000;stroke-width:0.8;" x="304.508325" xlink:href="#mf0deb951ad" y="276.48"/>
      </g>
     </g>
     <g id="text_6">
      <!-- 2022-02 -->
      <g transform="translate(267.283505 310.951846)rotate(-30)scale(0.1 -0.1)">
       <use xlink:href="#DejaVuSans-32"/>
       <use x="63.623047" xlink:href="#DejaVuSans-30"/>
       <use x="127.246094" xlink:href="#DejaVuSans-32"/>
       <use x="190.869141" xlink:href="#DejaVuSans-32"/>
       <use x="254.492188" xlink:href="#DejaVuSans-2d"/>
       <use x="290.576172" xlink:href="#DejaVuSans-30"/>
       <use x="354.199219" xlink:href="#DejaVuSans-32"/>
      </g>
     </g>
    </g>
    <g id="xtick_7">
     <g id="line2d_7">
      <g>
       <use style="stroke:#000000;stroke-width:0.8;" x="344.378182" xlink:href="#mf0deb951ad" y="276.48"/>
      </g>
     </g>
     <g id="text_7">
      <!-- 2022-03 -->
      <g transform="translate(307.153361 310.951846)rotate(-30)scale(0.1 -0.1)">
       <defs>
        <path d="M 2597 2516 
Q 3050 2419 3304 2112 
Q 3559 1806 3559 1356 
Q 3559 666 3084 287 
Q 2609 -91 1734 -91 
Q 1441 -91 1130 -33 
Q 819 25 488 141 
L 488 750 
Q 750 597 1062 519 
Q 1375 441 1716 441 
Q 2309 441 2620 675 
Q 2931 909 2931 1356 
Q 2931 1769 2642 2001 
Q 2353 2234 1838 2234 
L 1294 2234 
L 1294 2753 
L 1863 2753 
Q 2328 2753 2575 2939 
Q 2822 3125 2822 3475 
Q 2822 3834 2567 4026 
Q 2313 4219 1838 4219 
Q 1578 4219 1281 4162 
Q 984 4106 628 3988 
L 628 4550 
Q 988 4650 1302 4700 
Q 1616 4750 1894 4750 
Q 2613 4750 3031 4423 
Q 3450 4097 3450 3541 
Q 3450 3153 3228 2886 
Q 3006 2619 2597 2516 
z
" id="DejaVuSans-33" transform="scale(0.015625)"/>
       </defs>
       <use xlink:href="#DejaVuSans-32"/>
       <use x="63.623047" xlink:href="#DejaVuSans-30"/>
       <use x="127.246094" xlink:href="#DejaVuSans-32"/>
       <use x="190.869141" xlink:href="#DejaVuSans-32"/>
       <use x="254.492188" xlink:href="#DejaVuSans-2d"/>
       <use x="290.576172" xlink:href="#DejaVuSans-30"/>
       <use x="354.199219" xlink:href="#DejaVuSans-33"/>
      </g>
     </g>
    </g>
    <g id="xtick_8">
     <g id="line2d_8">
      <g>
       <use style="stroke:#000000;stroke-width:0.8;" x="388.519809" xlink:href="#mf0deb951ad" y="276.48"/>
      </g>
     </g>
     <g id="text_8">
      <!-- 2022-04 -->
      <g transform="translate(351.294988 310.951846)rotate(-30)scale(0.1 -0.1)">
       <defs>
        <path d="M 2419 4116 
L 825 1625 
L 2419 1625 
L 2419 4116 
z
M 2253 4666 
L 3047 4666 
L 3047 1625 
L 3713 1625 
L 3713 1100 
L 3047 1100 
L 3047 0 
L 2419 0 
L 2419 1100 
L 313 1100 
L 313 1709 
L 2253 4666 
z
" id="DejaVuSans-34" transform="scale(0.015625)"/>
       </defs>
       <use xlink:href="#DejaVuSans-32"/>
       <use x="63.623047" xlink:href="#DejaVuSans-30"/>
       <use x="127.246094" xlink:href="#DejaVuSans-32"/>
       <use x="190.869141" xlink:href="#DejaVuSans-32"/>
       <use x="254.492188" xlink:href="#DejaVuSans-2d"/>
       <use x="290.576172" xlink:href="#DejaVuSans-30"/>
       <use x="354.199219" xlink:href="#DejaVuSans-34"/>
      </g>
     </g>
    </g>
    <g id="text_9">
     <!-- date -->
     <g transform="translate(224.885 324.351346)scale(0.1 -0.1)">
      <defs>
       <path d="M 2906 2969 
L 2906 4863 
L 3481 4863 
L 3481 0 
L 2906 0 
L 2906 525 
Q 2725 213 2448 61 
Q 2172 -91 1784 -91 
Q 1150 -91 751 415 
Q 353 922 353 1747 
Q 353 2572 751 3078 
Q 1150 3584 1784 3584 
Q 2172 3584 2448 3432 
Q 2725 3281 2906 2969 
z
M 947 1747 
Q 947 1113 1208 752 
Q 1469 391 1925 391 
Q 2381 391 2643 752 
Q 2906 1113 2906 1747 
Q 2906 2381 2643 2742 
Q 2381 3103 1925 3103 
Q 1469 3103 1208 2742 
Q 947 2381 947 1747 
z
" id="DejaVuSans-64" transform="scale(0.015625)"/>
       <path d="M 2194 1759 
Q 1497 1759 1228 1600 
Q 959 1441 959 1056 
Q 959 750 1161 570 
Q 1363 391 1709 391 
Q 2188 391 2477 730 
Q 2766 1069 2766 1631 
L 2766 1759 
L 2194 1759 
z
M 3341 1997 
L 3341 0 
L 2766 0 
L 2766 531 
Q 2569 213 2275 61 
Q 1981 -91 1556 -91 
Q 1019 -91 701 211 
Q 384 513 384 1019 
Q 384 1609 779 1909 
Q 1175 2209 1959 2209 
L 2766 2209 
L 2766 2266 
Q 2766 2663 2505 2880 
Q 2244 3097 1772 3097 
Q 1472 3097 1187 3025 
Q 903 2953 641 2809 
L 641 3341 
Q 956 3463 1253 3523 
Q 1550 3584 1831 3584 
Q 2591 3584 2966 3190 
Q 3341 2797 3341 1997 
z
" id="DejaVuSans-61" transform="scale(0.015625)"/>
       <path d="M 1172 4494 
L 1172 3500 
L 2356 3500 
L 2356 3053 
L 1172 3053 
L 1172 1153 
Q 1172 725 1289 603 
Q 1406 481 1766 481 
L 2356 481 
L 2356 0 
L 1766 0 
Q 1100 0 847 248 
Q 594 497 594 1153 
L 594 3053 
L 172 3053 
L 172 3500 
L 594 3500 
L 594 4494 
L 1172 4494 
z
" id="DejaVuSans-74" transform="scale(0.015625)"/>
       <path d="M 3597 1894 
L 3597 1613 
L 953 1613 
Q 991 1019 1311 708 
Q 1631 397 2203 397 
Q 2534 397 2845 478 
Q 3156 559 3463 722 
L 3463 178 
Q 3153 47 2828 -22 
Q 2503 -91 2169 -91 
Q 1331 -91 842 396 
Q 353 884 353 1716 
Q 353 2575 817 3079 
Q 1281 3584 2069 3584 
Q 2775 3584 3186 3129 
Q 3597 2675 3597 1894 
z
M 3022 2063 
Q 3016 2534 2758 2815 
Q 2500 3097 2075 3097 
Q 1594 3097 1305 2825 
Q 1016 2553 972 2059 
L 3022 2063 
z
" id="DejaVuSans-65" transform="scale(0.015625)"/>
      </defs>
      <use xlink:href="#DejaVuSans-64"/>
      <use x="63.476562" xlink:href="#DejaVuSans-61"/>
      <use x="124.755859" xlink:href="#DejaVuSans-74"/>
      <use x="163.964844" xlink:href="#DejaVuSans-65"/>
     </g>
    </g>
   </g>
   <g id="matplotlib.axis_2">
    <g id="ytick_1">
     <g id="line2d_9">
      <defs>
       <path d="M 0 0 
L -3.5 0 
" id="m3aa00e4cee" style="stroke:#000000;stroke-width:0.8;"/>
      </defs>
      <g>
       <use style="stroke:#000000;stroke-width:0.8;" x="57.6" xlink:href="#m3aa00e4cee" y="265.691292"/>
      </g>
     </g>
     <g id="text_10">
      <!-- 80000 -->
      <g transform="translate(18.7875 269.490511)scale(0.1 -0.1)">
       <defs>
        <path d="M 2034 2216 
Q 1584 2216 1326 1975 
Q 1069 1734 1069 1313 
Q 1069 891 1326 650 
Q 1584 409 2034 409 
Q 2484 409 2743 651 
Q 3003 894 3003 1313 
Q 3003 1734 2745 1975 
Q 2488 2216 2034 2216 
z
M 1403 2484 
Q 997 2584 770 2862 
Q 544 3141 544 3541 
Q 544 4100 942 4425 
Q 1341 4750 2034 4750 
Q 2731 4750 3128 4425 
Q 3525 4100 3525 3541 
Q 3525 3141 3298 2862 
Q 3072 2584 2669 2484 
Q 3125 2378 3379 2068 
Q 3634 1759 3634 1313 
Q 3634 634 3220 271 
Q 2806 -91 2034 -91 
Q 1263 -91 848 271 
Q 434 634 434 1313 
Q 434 1759 690 2068 
Q 947 2378 1403 2484 
z
M 1172 3481 
Q 1172 3119 1398 2916 
Q 1625 2713 2034 2713 
Q 2441 2713 2670 2916 
Q 2900 3119 2900 3481 
Q 2900 3844 2670 4047 
Q 2441 4250 2034 4250 
Q 1625 4250 1398 4047 
Q 1172 3844 1172 3481 
z
" id="DejaVuSans-38" transform="scale(0.015625)"/>
       </defs>
       <use xlink:href="#DejaVuSans-38"/>
       <use x="63.623047" xlink:href="#DejaVuSans-30"/>
       <use x="127.246094" xlink:href="#DejaVuSans-30"/>
       <use x="190.869141" xlink:href="#DejaVuSans-30"/>
       <use x="254.492188" xlink:href="#DejaVuSans-30"/>
      </g>
     </g>
    </g>
    <g id="ytick_2">
     <g id="line2d_10">
      <g>
       <use style="stroke:#000000;stroke-width:0.8;" x="57.6" xlink:href="#m3aa00e4cee" y="236.661085"/>
      </g>
     </g>
     <g id="text_11">
      <!-- 85000 -->
      <g transform="translate(18.7875 240.460304)scale(0.1 -0.1)">
       <defs>
        <path d="M 691 4666 
L 3169 4666 
L 3169 4134 
L 1269 4134 
L 1269 2991 
Q 1406 3038 1543 3061 
Q 1681 3084 1819 3084 
Q 2600 3084 3056 2656 
Q 3513 2228 3513 1497 
Q 3513 744 3044 326 
Q 2575 -91 1722 -91 
Q 1428 -91 1123 -41 
Q 819 9 494 109 
L 494 744 
Q 775 591 1075 516 
Q 1375 441 1709 441 
Q 2250 441 2565 725 
Q 2881 1009 2881 1497 
Q 2881 1984 2565 2268 
Q 2250 2553 1709 2553 
Q 1456 2553 1204 2497 
Q 953 2441 691 2322 
L 691 4666 
z
" id="DejaVuSans-35" transform="scale(0.015625)"/>
       </defs>
       <use xlink:href="#DejaVuSans-38"/>
       <use x="63.623047" xlink:href="#DejaVuSans-35"/>
       <use x="127.246094" xlink:href="#DejaVuSans-30"/>
       <use x="190.869141" xlink:href="#DejaVuSans-30"/>
       <use x="254.492188" xlink:href="#DejaVuSans-30"/>
      </g>
     </g>
    </g>
    <g id="ytick_3">
     <g id="line2d_11">
      <g>
       <use style="stroke:#000000;stroke-width:0.8;" x="57.6" xlink:href="#m3aa00e4cee" y="207.630878"/>
      </g>
     </g>
     <g id="text_12">
      <!-- 90000 -->
      <g transform="translate(18.7875 211.430097)scale(0.1 -0.1)">
       <use xlink:href="#DejaVuSans-39"/>
       <use x="63.623047" xlink:href="#DejaVuSans-30"/>
       <use x="127.246094" xlink:href="#DejaVuSans-30"/>
       <use x="190.869141" xlink:href="#DejaVuSans-30"/>
       <use x="254.492188" xlink:href="#DejaVuSans-30"/>
      </g>
     </g>
    </g>
    <g id="ytick_4">
     <g id="line2d_12">
      <g>
       <use style="stroke:#000000;stroke-width:0.8;" x="57.6" xlink:href="#m3aa00e4cee" y="178.600672"/>
      </g>
     </g>
     <g id="text_13">
      <!-- 95000 -->
      <g transform="translate(18.7875 182.39989)scale(0.1 -0.1)">
       <use xlink:href="#DejaVuSans-39"/>
       <use x="63.623047" xlink:href="#DejaVuSans-35"/>
       <use x="127.246094" xlink:href="#DejaVuSans-30"/>
       <use x="190.869141" xlink:href="#DejaVuSans-30"/>
       <use x="254.492188" xlink:href="#DejaVuSans-30"/>
      </g>
     </g>
    </g>
    <g id="ytick_5">
     <g id="line2d_13">
      <g>
       <use style="stroke:#000000;stroke-width:0.8;" x="57.6" xlink:href="#m3aa00e4cee" y="149.570465"/>
      </g>
     </g>
     <g id="text_14">
      <!-- 100000 -->
      <g transform="translate(12.425 153.369683)scale(0.1 -0.1)">
       <use xlink:href="#DejaVuSans-31"/>
       <use x="63.623047" xlink:href="#DejaVuSans-30"/>
       <use x="127.246094" xlink:href="#DejaVuSans-30"/>
       <use x="190.869141" xlink:href="#DejaVuSans-30"/>
       <use x="254.492188" xlink:href="#DejaVuSans-30"/>
       <use x="318.115234" xlink:href="#DejaVuSans-30"/>
      </g>
     </g>
    </g>
    <g id="ytick_6">
     <g id="line2d_14">
      <g>
       <use style="stroke:#000000;stroke-width:0.8;" x="57.6" xlink:href="#m3aa00e4cee" y="120.540258"/>
      </g>
     </g>
     <g id="text_15">
      <!-- 105000 -->
      <g transform="translate(12.425 124.339476)scale(0.1 -0.1)">
       <use xlink:href="#DejaVuSans-31"/>
       <use x="63.623047" xlink:href="#DejaVuSans-30"/>
       <use x="127.246094" xlink:href="#DejaVuSans-35"/>
       <use x="190.869141" xlink:href="#DejaVuSans-30"/>
       <use x="254.492188" xlink:href="#DejaVuSans-30"/>
       <use x="318.115234" xlink:href="#DejaVuSans-30"/>
      </g>
     </g>
    </g>
    <g id="ytick_7">
     <g id="line2d_15">
      <g>
       <use style="stroke:#000000;stroke-width:0.8;" x="57.6" xlink:href="#m3aa00e4cee" y="91.510051"/>
      </g>
     </g>
     <g id="text_16">
      <!-- 110000 -->
      <g transform="translate(12.425 95.309269)scale(0.1 -0.1)">
       <use xlink:href="#DejaVuSans-31"/>
       <use x="63.623047" xlink:href="#DejaVuSans-31"/>
       <use x="127.246094" xlink:href="#DejaVuSans-30"/>
       <use x="190.869141" xlink:href="#DejaVuSans-30"/>
       <use x="254.492188" xlink:href="#DejaVuSans-30"/>
       <use x="318.115234" xlink:href="#DejaVuSans-30"/>
      </g>
     </g>
    </g>
    <g id="ytick_8">
     <g id="line2d_16">
      <g>
       <use style="stroke:#000000;stroke-width:0.8;" x="57.6" xlink:href="#m3aa00e4cee" y="62.479844"/>
      </g>
     </g>
     <g id="text_17">
      <!-- 115000 -->
      <g transform="translate(12.425 66.279063)scale(0.1 -0.1)">
       <use xlink:href="#DejaVuSans-31"/>
       <use x="63.623047" xlink:href="#DejaVuSans-31"/>
       <use x="127.246094" xlink:href="#DejaVuSans-35"/>
       <use x="190.869141" xlink:href="#DejaVuSans-30"/>
       <use x="254.492188" xlink:href="#DejaVuSans-30"/>
       <use x="318.115234" xlink:href="#DejaVuSans-30"/>
      </g>
     </g>
    </g>
   </g>
   <g id="line2d_17">
    <path clip-path="url(#p6f8bc21d3f)" d="M 73.832727 149.570465 
L 75.256651 148.048574 
L 76.680574 145.735924 
L 78.104498 148.847444 
L 79.528421 143.434031 
L 83.800191 140.073875 
L 85.224115 138.618451 
L 86.648038 140.126028 
L 88.071962 139.585203 
L 89.495885 139.489734 
L 95.191579 139.73667 
L 96.615502 141.01353 
L 98.039426 143.097263 
L 99.463349 148.203513 
L 103.73512 143.788311 
L 105.159043 151.326395 
L 106.582967 148.027728 
L 108.00689 148.650862 
L 109.430813 154.241133 
L 113.702584 164.506765 
L 115.126507 165.521065 
L 116.550431 161.169945 
L 117.974354 152.524322 
L 119.398278 147.342664 
L 123.670048 143.339082 
L 125.093971 156.171358 
L 126.517895 154.878747 
L 127.941818 159.078796 
L 129.365742 150.822164 
L 133.637512 161.331643 
L 135.061435 152.44967 
L 136.485359 150.830362 
L 137.909282 150.64569 
L 139.333206 149.806053 
L 143.604976 149.148488 
L 145.0289 148.357784 
L 146.452823 156.074964 
L 147.876746 144.812393 
L 149.30067 143.672991 
L 153.57244 139.38817 
L 154.996364 133.472645 
L 156.420287 131.127336 
L 157.844211 141.672414 
L 159.268134 149.645081 
L 163.539904 149.119176 
L 164.963828 153.437053 
L 166.387751 155.535057 
L 167.811675 148.165235 
L 169.235598 155.951531 
L 173.507368 144.073993 
L 174.931292 143.959655 
L 176.355215 137.71038 
L 177.779139 144.796329 
L 179.203062 140.937004 
L 183.474833 140.350136 
L 184.898756 147.332286 
L 186.322679 147.535689 
L 187.746603 152.182996 
L 189.170526 147.457049 
L 193.442297 145.83488 
L 194.86622 145.975504 
L 196.290144 149.423485 
L 197.714067 150.591332 
L 199.13799 151.456157 
L 203.409761 147.637719 
L 204.833684 142.972213 
L 206.257608 143.649936 
L 209.105455 143.176214 
L 213.377225 148.517829 
L 214.801148 159.885419 
L 216.225072 168.151845 
L 217.648995 160.758696 
L 219.072919 164.804372 
L 223.344689 154.408894 
L 224.768612 143.98481 
L 226.192536 139.878699 
L 227.616459 138.921003 
L 229.040383 137.169304 
L 233.312153 143.329329 
L 236.16 137.167929 
L 237.583923 134.339333 
L 239.007847 140.808242 
L 243.279617 148.598652 
L 244.703541 134.929092 
L 246.127464 132.424787 
L 247.551388 127.154369 
L 253.247081 119.648324 
L 254.671005 119.741301 
L 256.094928 119.655365 
L 257.518852 120.98984 
L 258.942775 123.440151 
L 263.214545 114.409729 
L 264.638469 107.344834 
L 266.062392 123.627568 
L 267.486316 118.211253 
L 268.910239 116.737669 
L 273.18201 116.38139 
L 274.605933 111.030146 
L 276.029856 109.873999 
L 277.45378 117.383411 
L 278.877703 115.793675 
L 284.573397 128.848838 
L 285.997321 132.908904 
L 287.421244 139.194385 
L 288.845167 152.823498 
L 293.116938 152.380001 
L 294.540861 158.987929 
L 295.964785 159.169052 
L 297.388708 163.078508 
L 298.812632 148.079661 
L 303.084402 135.57146 
L 304.508325 130.61579 
L 305.932249 120.02966 
L 307.356172 158.328482 
L 308.780096 156.999539 
L 313.051866 167.332841 
L 314.475789 168.17138 
L 315.899713 155.925988 
L 317.323636 166.739591 
L 318.74756 178.844585 
L 323.01933 182.967323 
L 324.443254 176.06108 
L 325.867177 179.088852 
L 327.2911 189.356851 
L 328.715024 193.121419 
L 334.410718 198.706885 
L 335.834641 206.494341 
L 337.258565 193.761188 
L 338.682488 183.789972 
L 342.954258 186.39626 
L 344.378182 196.096634 
L 345.802105 184.463959 
L 347.226029 186.927081 
L 348.649952 193.96885 
L 352.921722 215.658788 
L 354.345646 216.268605 
L 355.769569 193.665416 
L 357.193493 201.090183 
L 358.617416 210.126658 
L 362.889187 211.203236 
L 364.31311 200.33663 
L 365.737033 183.860714 
L 367.160957 177.62138 
L 368.58488 168.341093 
L 372.856651 171.341791 
L 374.280574 159.971302 
L 375.704498 166.569146 
L 377.128421 157.608137 
L 378.552344 152.034122 
L 382.824115 149.913308 
L 384.248038 145.380942 
L 385.671962 147.862258 
L 387.095885 161.422111 
L 388.519809 159.585393 
L 392.791579 152.829824 
L 394.215502 159.277271 
L 395.639426 168.084418 
L 397.063349 169.271774 
L 398.487273 177.662078 
L 398.487273 177.662078 
" style="fill:none;stroke:#0000ff;stroke-linecap:square;stroke-opacity:0.9;stroke-width:2;"/>
   </g>
   <g id="line2d_18">
    <path clip-path="url(#p6f8bc21d3f)" d="M 73.832727 149.570465 
L 75.256651 146.496008 
L 76.680574 143.915856 
L 78.104498 147.267375 
L 79.528421 140.292648 
L 83.800191 138.652759 
L 85.224115 137.68285 
L 86.648038 137.60269 
L 88.071962 138.770955 
L 89.495885 138.418277 
L 95.191579 137.164047 
L 96.615502 139.668226 
L 98.039426 140.971502 
L 99.463349 146.866066 
L 103.73512 142.893234 
L 105.159043 148.609853 
L 106.582967 145.530729 
L 108.00689 147.187631 
L 109.430813 154.532579 
L 113.702584 163.951517 
L 115.126507 164.088272 
L 116.550431 160.841036 
L 117.974354 153.110062 
L 119.398278 149.30994 
L 123.670048 145.370381 
L 125.093971 157.002444 
L 126.517895 155.997682 
L 127.941818 161.911661 
L 129.365742 153.017423 
L 133.637512 159.518139 
L 135.061435 151.46464 
L 137.909282 148.215313 
L 139.333206 145.682941 
L 143.604976 148.976252 
L 145.0289 153.619547 
L 146.452823 154.880185 
L 147.876746 141.26618 
L 149.30067 137.049103 
L 153.57244 135.194843 
L 154.996364 130.271849 
L 156.420287 127.303638 
L 157.844211 134.860791 
L 159.268134 138.250746 
L 163.539904 139.830491 
L 166.387751 145.98901 
L 167.811675 137.722337 
L 169.235598 137.106062 
L 173.507368 136.637255 
L 174.931292 134.212022 
L 176.355215 129.79479 
L 177.779139 130.935427 
L 179.203062 131.278323 
L 183.474833 130.240387 
L 184.898756 134.839802 
L 186.322679 137.787555 
L 187.746603 137.741202 
L 189.170526 134.041273 
L 193.442297 132.849831 
L 194.86622 133.771966 
L 196.290144 134.169071 
L 197.714067 134.78266 
L 199.13799 136.627713 
L 203.409761 134.177281 
L 204.833684 128.539372 
L 206.257608 128.020725 
L 209.105455 143.219716 
L 213.377225 136.708149 
L 214.801148 149.474638 
L 216.225072 156.21475 
L 217.648995 148.171824 
L 219.072919 152.764516 
L 223.344689 144.050279 
L 224.768612 133.929073 
L 226.192536 130.609518 
L 227.616459 131.204871 
L 229.040383 127.396285 
L 233.312153 133.557376 
L 234.736077 133.060394 
L 236.16 128.516516 
L 237.583923 128.347029 
L 239.007847 135.932402 
L 243.279617 143.043215 
L 244.703541 131.725445 
L 246.127464 128.179635 
L 247.551388 123.072912 
L 253.247081 115.249237 
L 254.671005 115.800145 
L 256.094928 115.031544 
L 257.518852 116.279334 
L 258.942775 118.294487 
L 263.214545 111.974688 
L 264.638469 105.960953 
L 266.062392 119.299753 
L 268.910239 113.820749 
L 273.18201 113.898748 
L 274.605933 110.489531 
L 276.029856 110.564115 
L 277.45378 115.309888 
L 278.877703 115.105003 
L 284.573397 128.889493 
L 287.421244 140.632559 
L 288.845167 152.572819 
L 293.116938 153.574699 
L 294.540861 151.776149 
L 295.964785 152.900563 
L 297.388708 157.737136 
L 298.812632 144.147567 
L 303.084402 135.11518 
L 304.508325 127.530441 
L 305.932249 118.340369 
L 307.356172 145.238945 
L 308.780096 140.67757 
L 313.051866 144.497794 
L 314.475789 140.440138 
L 315.899713 135.174161 
L 317.323636 145.072895 
L 318.74756 157.372743 
L 323.01933 162.26745 
L 324.443254 155.835835 
L 325.867177 157.336611 
L 327.2911 167.963247 
L 328.715024 171.175232 
L 334.410718 175.684784 
L 335.834641 183.521671 
L 337.258565 180.552507 
L 338.682488 167.325244 
L 342.954258 172.919264 
L 344.378182 184.131713 
L 345.802105 171.36297 
L 347.226029 172.282096 
L 348.649952 180.599694 
L 352.921722 199.641744 
L 354.345646 202.546235 
L 355.769569 182.909723 
L 357.193493 190.138493 
L 358.617416 196.172896 
L 362.889187 196.440576 
L 364.31311 187.503744 
L 365.737033 174.906253 
L 368.58488 163.665509 
L 372.856651 163.908378 
L 374.280574 154.061242 
L 375.704498 159.76912 
L 377.128421 151.463394 
L 378.552344 145.339106 
L 382.824115 144.192825 
L 384.248038 141.439825 
L 385.671962 142.040365 
L 387.095885 153.656194 
L 388.519809 150.770426 
L 392.791579 147.111776 
L 394.215502 152.636527 
L 395.639426 159.73809 
L 397.063349 160.268465 
L 398.487273 159.66077 
L 398.487273 159.66077 
" style="fill:none;stroke:#ff0000;stroke-linecap:square;stroke-opacity:0.9;stroke-width:2;"/>
   </g>
   <g id="line2d_19">
    <path clip-path="url(#p6f8bc21d3f)" d="M 73.832727 149.570465 
L 75.256651 146.586142 
L 76.680574 144.344545 
L 78.104498 147.750913 
L 79.528421 141.87522 
L 83.800191 138.347413 
L 85.224115 136.900476 
L 86.648038 138.649468 
L 88.071962 137.635827 
L 89.495885 138.042095 
L 95.191579 137.922239 
L 96.615502 139.085 
L 98.039426 140.857832 
L 99.463349 146.004316 
L 103.73512 141.303084 
L 105.159043 149.096224 
L 106.582967 145.130813 
L 108.00689 146.416165 
L 109.430813 151.648627 
L 113.702584 161.454708 
L 115.126507 162.030756 
L 116.550431 157.889319 
L 117.974354 149.34752 
L 119.398278 143.951807 
L 123.670048 139.463743 
L 125.093971 152.269551 
L 126.517895 150.682974 
L 127.941818 155.362177 
L 129.365742 146.60673 
L 133.637512 157.32433 
L 135.061435 148.284232 
L 136.485359 146.224562 
L 137.909282 144.944947 
L 139.333206 142.863618 
L 143.604976 146.300625 
L 145.0289 150.871674 
L 146.452823 151.736142 
L 147.876746 140.393368 
L 149.30067 139.363549 
L 153.57244 134.700114 
L 154.996364 128.554714 
L 156.420287 126.26427 
L 157.844211 137.05974 
L 159.268134 144.758663 
L 163.539904 144.309011 
L 164.963828 149.666052 
L 166.387751 151.627044 
L 167.811675 143.414736 
L 169.235598 142.275302 
L 174.931292 138.048645 
L 176.355215 132.912232 
L 177.779139 132.758302 
L 179.203062 128.420658 
L 183.474833 127.796811 
L 184.898756 134.93182 
L 186.322679 139.402261 
L 187.746603 139.835501 
L 189.170526 135.236314 
L 193.442297 133.255498 
L 194.86622 135.798867 
L 196.290144 136.332963 
L 197.714067 137.979892 
L 199.13799 138.256373 
L 203.409761 134.362248 
L 204.833684 129.809555 
L 206.257608 129.932766 
L 209.105455 142.723781 
L 213.377225 135.188783 
L 214.801148 147.281744 
L 216.225072 155.39102 
L 217.648995 147.716412 
L 219.072919 151.83444 
L 223.344689 140.946822 
L 224.768612 130.497984 
L 226.192536 125.849838 
L 227.616459 125.368358 
L 229.040383 123.875302 
L 233.312153 129.2819 
L 234.736077 127.007483 
L 236.16 122.973707 
L 237.583923 120.094445 
L 239.007847 126.70483 
L 243.279617 134.867309 
L 244.703541 120.815277 
L 246.127464 118.258529 
L 247.551388 112.565496 
L 253.247081 105.07482 
L 254.671005 105.501788 
L 256.094928 105.28248 
L 257.518852 106.401464 
L 258.942775 109.010904 
L 263.214545 99.647706 
L 264.638469 91.819829 
L 266.062392 108.566975 
L 267.486316 102.873027 
L 268.910239 101.13997 
L 273.18201 100.947931 
L 274.605933 95.493918 
L 276.029856 94.725606 
L 277.45378 102.276565 
L 278.877703 100.188641 
L 284.573397 113.422511 
L 285.997321 117.725534 
L 287.421244 124.192425 
L 288.845167 138.505607 
L 293.116938 137.641828 
L 294.540861 144.417957 
L 295.964785 144.557669 
L 297.388708 148.452747 
L 298.812632 133.505465 
L 303.084402 120.666197 
L 304.508325 114.8994 
L 305.932249 103.888814 
L 307.356172 142.937719 
L 308.780096 141.963319 
L 313.051866 152.239407 
L 314.475789 153.218081 
L 315.899713 141.051684 
L 317.323636 151.539875 
L 318.74756 164.10884 
L 323.01933 168.041454 
L 324.443254 161.194934 
L 325.867177 164.455622 
L 327.2911 174.606969 
L 328.715024 178.601043 
L 334.410718 184.569581 
L 335.834641 192.29071 
L 337.258565 179.418935 
L 338.682488 168.842732 
L 342.954258 171.432566 
L 344.378182 181.050676 
L 345.802105 168.888359 
L 347.226029 172.67759 
L 348.649952 182.979997 
L 352.921722 207.297223 
L 354.345646 204.429077 
L 355.769569 180.503545 
L 358.617416 198.042177 
L 362.889187 198.759286 
L 364.31311 187.752741 
L 365.737033 170.202662 
L 367.160957 163.536169 
L 368.58488 155.037948 
L 372.856651 157.37768 
L 374.280574 144.700765 
L 375.704498 151.891954 
L 377.128421 143.62692 
L 378.552344 136.828439 
L 382.824115 136.007188 
L 384.248038 131.732298 
L 385.671962 134.727407 
L 387.095885 149.60137 
L 388.519809 148.60203 
L 392.791579 142.848568 
L 394.215502 150.299241 
L 395.639426 158.980099 
L 397.063349 161.344366 
L 398.487273 161.56621 
L 398.487273 161.56621 
" style="fill:none;stroke:#ff8040;stroke-linecap:square;stroke-opacity:0.9;stroke-width:2;"/>
   </g>
   <g id="line2d_20">
    <path clip-path="url(#p6f8bc21d3f)" d="M 73.832727 150.151069 
L 75.256651 148.486625 
L 76.680574 147.484245 
L 78.104498 151.765949 
L 79.528421 144.981575 
L 83.800191 148.043923 
L 85.224115 147.528957 
L 86.648038 148.30643 
L 88.071962 147.606238 
L 89.495885 147.926304 
L 95.191579 148.686316 
L 96.615502 150.935465 
L 98.039426 151.701547 
L 99.463349 161.0152 
L 103.73512 156.605436 
L 105.159043 165.214412 
L 106.582967 163.783788 
L 108.00689 165.271548 
L 109.430813 171.426936 
L 113.702584 180.602933 
L 115.126507 180.605134 
L 116.550431 176.637282 
L 117.974354 170.894653 
L 119.398278 166.733193 
L 123.670048 164.356848 
L 125.093971 173.815009 
L 126.517895 173.375072 
L 127.941818 178.935677 
L 129.365742 171.514218 
L 133.637512 176.624619 
L 135.061435 168.661874 
L 136.485359 168.72749 
L 139.333206 163.424006 
L 143.604976 167.461898 
L 145.0289 171.25278 
L 146.452823 174.325147 
L 147.876746 160.708623 
L 149.30067 158.066399 
L 153.57244 156.930262 
L 156.420287 148.683751 
L 157.844211 165.294363 
L 159.268134 169.540473 
L 163.539904 171.404195 
L 164.963828 175.885324 
L 166.387751 183.965616 
L 167.811675 176.41865 
L 169.235598 176.891674 
L 173.507368 174.328557 
L 174.931292 171.9383 
L 176.355215 167.045639 
L 177.779139 166.247588 
L 179.203062 162.583177 
L 183.474833 162.748664 
L 184.898756 166.729512 
L 186.322679 168.7653 
L 187.746603 168.009071 
L 189.170526 162.544245 
L 194.86622 162.125452 
L 196.290144 163.817692 
L 197.714067 165.729847 
L 199.13799 168.898672 
L 203.409761 166.549752 
L 204.833684 161.831176 
L 206.257608 160.389984 
L 209.105455 175.195206 
L 213.377225 170.997477 
L 214.801148 179.171395 
L 216.225072 192.056697 
L 217.648995 183.724463 
L 219.072919 187.874302 
L 223.344689 177.599077 
L 224.768612 166.84555 
L 226.192536 163.445841 
L 227.616459 164.524231 
L 229.040383 159.170003 
L 233.312153 165.332547 
L 234.736077 164.510008 
L 236.16 159.044711 
L 237.583923 160.103748 
L 239.007847 164.389979 
L 243.279617 169.205208 
L 244.703541 158.72508 
L 246.127464 157.659786 
L 247.551388 154.103378 
L 253.247081 147.129193 
L 254.671005 147.885487 
L 256.094928 147.103755 
L 257.518852 148.312248 
L 258.942775 151.781185 
L 263.214545 146.460307 
L 264.638469 139.687762 
L 266.062392 153.151589 
L 267.486316 146.78744 
L 268.910239 144.694548 
L 273.18201 146.020806 
L 274.605933 141.94335 
L 276.029856 141.404712 
L 277.45378 145.866612 
L 278.877703 145.928587 
L 284.573397 159.849316 
L 285.997321 168.005744 
L 287.421244 173.58012 
L 288.845167 187.10018 
L 293.116938 186.835463 
L 294.540861 186.949963 
L 295.964785 188.181041 
L 297.388708 193.181472 
L 298.812632 179.528339 
L 303.084402 170.785889 
L 304.508325 164.523234 
L 305.932249 160.358319 
L 307.356172 198.529282 
L 308.780096 194.604225 
L 313.051866 203.705627 
L 314.475789 201.629864 
L 315.899713 195.842196 
L 317.323636 204.527551 
L 318.74756 215.644371 
L 323.01933 220.539082 
L 324.443254 214.084566 
L 325.867177 215.461837 
L 327.2911 227.559488 
L 328.715024 230.431023 
L 334.410718 234.811755 
L 335.834641 241.836889 
L 337.258565 237.763173 
L 338.682488 226.728864 
L 342.954258 232.190955 
L 344.378182 244.313008 
L 345.802105 234.680339 
L 347.226029 235.953502 
L 348.649952 240.838612 
L 352.921722 263.481318 
L 354.345646 265.797818 
L 355.769569 249.137942 
L 357.193493 254.987782 
L 358.617416 260.100642 
L 362.889187 260.358957 
L 365.737033 246.772306 
L 367.160957 242.21209 
L 368.58488 238.7992 
L 372.856651 238.617935 
L 374.280574 230.484252 
L 375.704498 235.436311 
L 377.128421 228.156221 
L 378.552344 223.385507 
L 382.824115 222.036713 
L 384.248038 222.360905 
L 385.671962 224.289005 
L 387.095885 234.198266 
L 388.519809 232.374069 
L 392.791579 223.751887 
L 394.215502 226.951382 
L 395.639426 233.580922 
L 397.063349 234.55309 
L 398.487273 232.036407 
L 398.487273 232.036407 
" style="fill:none;stroke:#0d0d0d;stroke-linecap:square;stroke-opacity:0.25;stroke-width:2;"/>
   </g>
   <g id="line2d_21">
    <path clip-path="url(#p6f8bc21d3f)" d="M 73.832727 148.98986 
L 75.256651 144.20141 
L 76.680574 140.55929 
L 78.104498 143.819348 
L 79.528421 135.899769 
L 83.800191 130.884839 
L 85.224115 128.28336 
L 86.648038 127.052247 
L 88.071962 127.90404 
L 89.495885 127.417923 
L 95.191579 124.954191 
L 96.615502 127.762824 
L 98.039426 129.065289 
L 99.463349 133.234183 
L 103.73512 129.357238 
L 105.159043 134.389831 
L 106.582967 132.147653 
L 108.00689 134.165116 
L 109.430813 142.272113 
L 113.702584 150.862141 
L 115.126507 151.381008 
L 116.550431 145.550672 
L 117.974354 138.364298 
L 119.398278 132.955752 
L 123.670048 124.079947 
L 125.093971 138.573748 
L 126.517895 138.681331 
L 127.941818 145.62237 
L 129.365742 136.396479 
L 133.637512 144.73049 
L 135.061435 135.221104 
L 136.485359 133.944935 
L 137.909282 129.160652 
L 139.333206 125.361682 
L 143.604976 129.144483 
L 145.0289 134.246358 
L 146.452823 135.804596 
L 147.876746 121.419371 
L 149.30067 117.867234 
L 153.57244 114.776288 
L 154.996364 109.479828 
L 156.420287 106.076177 
L 157.844211 106.959665 
L 159.268134 110.223613 
L 163.539904 112.413614 
L 164.963828 112.74477 
L 166.387751 118.690583 
L 167.811675 110.566734 
L 169.235598 107.067723 
L 173.507368 106.448495 
L 174.931292 102.853277 
L 176.355215 97.993286 
L 177.779139 98.942339 
L 179.203062 97.540783 
L 183.474833 95.822059 
L 184.898756 99.729827 
L 186.322679 104.802084 
L 187.746603 104.295609 
L 189.170526 101.114367 
L 193.442297 99.523279 
L 194.86622 101.352752 
L 196.290144 100.815297 
L 197.714067 100.944688 
L 199.13799 99.950051 
L 203.409761 94.243716 
L 204.833684 90.42461 
L 206.257608 90.51095 
L 209.105455 104.818114 
L 213.377225 96.714664 
L 214.801148 107.795695 
L 216.225072 115.125453 
L 217.648995 107.021961 
L 219.072919 110.82799 
L 223.344689 103.12815 
L 224.768612 92.690338 
L 226.192536 88.017669 
L 227.616459 89.318007 
L 229.040383 87.11941 
L 233.312153 93.273493 
L 234.736077 91.566139 
L 236.16 85.738983 
L 237.583923 81.138154 
L 239.007847 89.840749 
L 243.279617 96.153098 
L 244.703541 84.633625 
L 246.127464 82.144044 
L 247.551388 73.861783 
L 253.247081 65.639874 
L 254.671005 67.45224 
L 256.094928 68.161539 
L 257.518852 68.471143 
L 258.942775 72.295319 
L 263.214545 65.05553 
L 264.638469 62.05678 
L 266.062392 74.525039 
L 267.486316 66.975948 
L 268.910239 62.71177 
L 273.18201 64.981863 
L 274.605933 62.84779 
L 276.029856 62.289348 
L 277.45378 66.75956 
L 278.877703 67.816304 
L 284.573397 80.34026 
L 285.997321 84.339089 
L 287.421244 89.964127 
L 288.845167 100.299207 
L 293.116938 101.345447 
L 294.540861 99.025896 
L 295.964785 99.023924 
L 297.388708 101.794502 
L 298.812632 86.877731 
L 303.084402 75.681993 
L 304.508325 69.775703 
L 305.932249 52.154182 
L 307.356172 85.608032 
L 308.780096 80.574484 
L 313.051866 81.014346 
L 314.475789 79.162919 
L 315.899713 70.583053 
L 317.323636 83.906084 
L 318.74756 100.745714 
L 323.01933 107.443181 
L 324.443254 98.577748 
L 325.867177 100.473356 
L 327.2911 113.40785 
L 328.715024 116.588264 
L 334.410718 121.298866 
L 335.834641 131.572773 
L 337.258565 127.760806 
L 338.682488 111.964821 
L 342.954258 116.543057 
L 344.378182 124.404195 
L 345.802105 105.236393 
L 347.226029 107.198765 
L 348.649952 114.765664 
L 352.921722 135.81986 
L 354.345646 139.253422 
L 355.769569 115.840772 
L 357.193493 122.507668 
L 358.617416 133.938581 
L 362.889187 134.388834 
L 364.31311 122.454288 
L 365.737033 105.305609 
L 368.58488 92.774129 
L 372.856651 91.095699 
L 374.280574 79.154302 
L 375.704498 87.30557 
L 377.128421 77.719669 
L 378.552344 71.669151 
L 382.824115 71.453084 
L 384.248038 64.619649 
L 385.671962 65.725756 
L 387.095885 77.399 
L 388.519809 75.929192 
L 392.791579 70.49174 
L 394.215502 76.927557 
L 395.639426 85.908464 
L 397.063349 85.325373 
L 398.487273 85.090032 
L 398.487273 85.090032 
" style="fill:none;stroke:#0d0d0d;stroke-linecap:square;stroke-opacity:0.25;stroke-width:2;"/>
   </g>
   <g id="patch_3">
    <path d="M 57.6 276.48 
L 57.6 41.472 
" style="fill:none;stroke:#000000;stroke-linecap:square;stroke-linejoin:miter;stroke-width:0.8;"/>
   </g>
   <g id="patch_4">
    <path d="M 414.72 276.48 
L 414.72 41.472 
" style="fill:none;stroke:#000000;stroke-linecap:square;stroke-linejoin:miter;stroke-width:0.8;"/>
   </g>
   <g id="patch_5">
    <path d="M 57.6 276.48 
L 414.72 276.48 
" style="fill:none;stroke:#000000;stroke-linecap:square;stroke-linejoin:miter;stroke-width:0.8;"/>
   </g>
   <g id="patch_6">
    <path d="M 57.6 41.472 
L 414.72 41.472 
" style="fill:none;stroke:#000000;stroke-linecap:square;stroke-linejoin:miter;stroke-width:0.8;"/>
   </g>
   <g id="text_18">
    <!-- TESTFUNDS0830 -->
    <g transform="translate(185.200312 22.034625)scale(0.12 -0.12)">
     <defs>
      <path d="M -19 4666 
L 3928 4666 
L 3928 4134 
L 2272 4134 
L 2272 0 
L 1638 0 
L 1638 4134 
L -19 4134 
L -19 4666 
z
" id="DejaVuSans-54" transform="scale(0.015625)"/>
      <path d="M 628 4666 
L 3578 4666 
L 3578 4134 
L 1259 4134 
L 1259 2753 
L 3481 2753 
L 3481 2222 
L 1259 2222 
L 1259 531 
L 3634 531 
L 3634 0 
L 628 0 
L 628 4666 
z
" id="DejaVuSans-45" transform="scale(0.015625)"/>
      <path d="M 3425 4513 
L 3425 3897 
Q 3066 4069 2747 4153 
Q 2428 4238 2131 4238 
Q 1616 4238 1336 4038 
Q 1056 3838 1056 3469 
Q 1056 3159 1242 3001 
Q 1428 2844 1947 2747 
L 2328 2669 
Q 3034 2534 3370 2195 
Q 3706 1856 3706 1288 
Q 3706 609 3251 259 
Q 2797 -91 1919 -91 
Q 1588 -91 1214 -16 
Q 841 59 441 206 
L 441 856 
Q 825 641 1194 531 
Q 1563 422 1919 422 
Q 2459 422 2753 634 
Q 3047 847 3047 1241 
Q 3047 1584 2836 1778 
Q 2625 1972 2144 2069 
L 1759 2144 
Q 1053 2284 737 2584 
Q 422 2884 422 3419 
Q 422 4038 858 4394 
Q 1294 4750 2059 4750 
Q 2388 4750 2728 4690 
Q 3069 4631 3425 4513 
z
" id="DejaVuSans-53" transform="scale(0.015625)"/>
      <path d="M 628 4666 
L 3309 4666 
L 3309 4134 
L 1259 4134 
L 1259 2759 
L 3109 2759 
L 3109 2228 
L 1259 2228 
L 1259 0 
L 628 0 
L 628 4666 
z
" id="DejaVuSans-46" transform="scale(0.015625)"/>
      <path d="M 556 4666 
L 1191 4666 
L 1191 1831 
Q 1191 1081 1462 751 
Q 1734 422 2344 422 
Q 2950 422 3222 751 
Q 3494 1081 3494 1831 
L 3494 4666 
L 4128 4666 
L 4128 1753 
Q 4128 841 3676 375 
Q 3225 -91 2344 -91 
Q 1459 -91 1007 375 
Q 556 841 556 1753 
L 556 4666 
z
" id="DejaVuSans-55" transform="scale(0.015625)"/>
      <path d="M 628 4666 
L 1478 4666 
L 3547 763 
L 3547 4666 
L 4159 4666 
L 4159 0 
L 3309 0 
L 1241 3903 
L 1241 0 
L 628 0 
L 628 4666 
z
" id="DejaVuSans-4e" transform="scale(0.015625)"/>
      <path d="M 1259 4147 
L 1259 519 
L 2022 519 
Q 2988 519 3436 956 
Q 3884 1394 3884 2338 
Q 3884 3275 3436 3711 
Q 2988 4147 2022 4147 
L 1259 4147 
z
M 628 4666 
L 1925 4666 
Q 3281 4666 3915 4102 
Q 4550 3538 4550 2338 
Q 4550 1131 3912 565 
Q 3275 0 1925 0 
L 628 0 
L 628 4666 
z
" id="DejaVuSans-44" transform="scale(0.015625)"/>
     </defs>
     <use xlink:href="#DejaVuSans-54"/>
     <use x="61.083984" xlink:href="#DejaVuSans-45"/>
     <use x="124.267578" xlink:href="#DejaVuSans-53"/>
     <use x="187.744141" xlink:href="#DejaVuSans-54"/>
     <use x="248.828125" xlink:href="#DejaVuSans-46"/>
     <use x="306.347656" xlink:href="#DejaVuSans-55"/>
     <use x="379.541016" xlink:href="#DejaVuSans-4e"/>
     <use x="454.345703" xlink:href="#DejaVuSans-44"/>
     <use x="531.347656" xlink:href="#DejaVuSans-53"/>
     <use x="594.824219" xlink:href="#DejaVuSans-30"/>
     <use x="658.447266" xlink:href="#DejaVuSans-38"/>
     <use x="722.070312" xlink:href="#DejaVuSans-33"/>
     <use x="785.693359" xlink:href="#DejaVuSans-30"/>
    </g>
    <!-- daily_report -->
    <g transform="translate(200.466563 35.472)scale(0.12 -0.12)">
     <defs>
      <path d="M 603 3500 
L 1178 3500 
L 1178 0 
L 603 0 
L 603 3500 
z
M 603 4863 
L 1178 4863 
L 1178 4134 
L 603 4134 
L 603 4863 
z
" id="DejaVuSans-69" transform="scale(0.015625)"/>
      <path d="M 603 4863 
L 1178 4863 
L 1178 0 
L 603 0 
L 603 4863 
z
" id="DejaVuSans-6c" transform="scale(0.015625)"/>
      <path d="M 2059 -325 
Q 1816 -950 1584 -1140 
Q 1353 -1331 966 -1331 
L 506 -1331 
L 506 -850 
L 844 -850 
Q 1081 -850 1212 -737 
Q 1344 -625 1503 -206 
L 1606 56 
L 191 3500 
L 800 3500 
L 1894 763 
L 2988 3500 
L 3597 3500 
L 2059 -325 
z
" id="DejaVuSans-79" transform="scale(0.015625)"/>
      <path d="M 3263 -1063 
L 3263 -1509 
L -63 -1509 
L -63 -1063 
L 3263 -1063 
z
" id="DejaVuSans-5f" transform="scale(0.015625)"/>
      <path d="M 2631 2963 
Q 2534 3019 2420 3045 
Q 2306 3072 2169 3072 
Q 1681 3072 1420 2755 
Q 1159 2438 1159 1844 
L 1159 0 
L 581 0 
L 581 3500 
L 1159 3500 
L 1159 2956 
Q 1341 3275 1631 3429 
Q 1922 3584 2338 3584 
Q 2397 3584 2469 3576 
Q 2541 3569 2628 3553 
L 2631 2963 
z
" id="DejaVuSans-72" transform="scale(0.015625)"/>
      <path d="M 1159 525 
L 1159 -1331 
L 581 -1331 
L 581 3500 
L 1159 3500 
L 1159 2969 
Q 1341 3281 1617 3432 
Q 1894 3584 2278 3584 
Q 2916 3584 3314 3078 
Q 3713 2572 3713 1747 
Q 3713 922 3314 415 
Q 2916 -91 2278 -91 
Q 1894 -91 1617 61 
Q 1341 213 1159 525 
z
M 3116 1747 
Q 3116 2381 2855 2742 
Q 2594 3103 2138 3103 
Q 1681 3103 1420 2742 
Q 1159 2381 1159 1747 
Q 1159 1113 1420 752 
Q 1681 391 2138 391 
Q 2594 391 2855 752 
Q 3116 1113 3116 1747 
z
" id="DejaVuSans-70" transform="scale(0.015625)"/>
      <path d="M 1959 3097 
Q 1497 3097 1228 2736 
Q 959 2375 959 1747 
Q 959 1119 1226 758 
Q 1494 397 1959 397 
Q 2419 397 2687 759 
Q 2956 1122 2956 1747 
Q 2956 2369 2687 2733 
Q 2419 3097 1959 3097 
z
M 1959 3584 
Q 2709 3584 3137 3096 
Q 3566 2609 3566 1747 
Q 3566 888 3137 398 
Q 2709 -91 1959 -91 
Q 1206 -91 779 398 
Q 353 888 353 1747 
Q 353 2609 779 3096 
Q 1206 3584 1959 3584 
z
" id="DejaVuSans-6f" transform="scale(0.015625)"/>
     </defs>
     <use xlink:href="#DejaVuSans-64"/>
     <use x="63.476562" xlink:href="#DejaVuSans-61"/>
     <use x="124.755859" xlink:href="#DejaVuSans-69"/>
     <use x="152.539062" xlink:href="#DejaVuSans-6c"/>
     <use x="180.322266" xlink:href="#DejaVuSans-79"/>
     <use x="239.501953" xlink:href="#DejaVuSans-5f"/>
     <use x="289.501953" xlink:href="#DejaVuSans-72"/>
     <use x="328.365234" xlink:href="#DejaVuSans-65"/>
     <use x="389.888672" xlink:href="#DejaVuSans-70"/>
     <use x="453.365234" xlink:href="#DejaVuSans-6f"/>
     <use x="514.546875" xlink:href="#DejaVuSans-72"/>
     <use x="555.660156" xlink:href="#DejaVuSans-74"/>
    </g>
   </g>
   <g id="legend_1">
    <g id="patch_7">
     <path d="M 64.6 271.48 
L 155.792188 271.48 
Q 157.792188 271.48 157.792188 269.48 
L 157.792188 197.089375 
Q 157.792188 195.089375 155.792188 195.089375 
L 64.6 195.089375 
Q 62.6 195.089375 62.6 197.089375 
L 62.6 269.48 
Q 62.6 271.48 64.6 271.48 
z
" style="fill:#ffffff;opacity:0.8;stroke:#cccccc;stroke-linejoin:miter;"/>
    </g>
    <g id="line2d_22">
     <path d="M 66.6 203.187812 
L 86.6 203.187812 
" style="fill:none;stroke:#0000ff;stroke-linecap:square;stroke-opacity:0.9;stroke-width:2;"/>
    </g>
    <g id="line2d_23"/>
    <g id="text_19">
     <!-- alpaca -->
     <g transform="translate(94.6 206.687812)scale(0.1 -0.1)">
      <defs>
       <path d="M 3122 3366 
L 3122 2828 
Q 2878 2963 2633 3030 
Q 2388 3097 2138 3097 
Q 1578 3097 1268 2742 
Q 959 2388 959 1747 
Q 959 1106 1268 751 
Q 1578 397 2138 397 
Q 2388 397 2633 464 
Q 2878 531 3122 666 
L 3122 134 
Q 2881 22 2623 -34 
Q 2366 -91 2075 -91 
Q 1284 -91 818 406 
Q 353 903 353 1747 
Q 353 2603 823 3093 
Q 1294 3584 2113 3584 
Q 2378 3584 2631 3529 
Q 2884 3475 3122 3366 
z
" id="DejaVuSans-63" transform="scale(0.015625)"/>
      </defs>
      <use xlink:href="#DejaVuSans-61"/>
      <use x="61.279297" xlink:href="#DejaVuSans-6c"/>
      <use x="89.0625" xlink:href="#DejaVuSans-70"/>
      <use x="152.539062" xlink:href="#DejaVuSans-61"/>
      <use x="213.818359" xlink:href="#DejaVuSans-63"/>
      <use x="268.798828" xlink:href="#DejaVuSans-61"/>
     </g>
    </g>
    <g id="line2d_24">
     <path d="M 66.6 217.865937 
L 86.6 217.865937 
" style="fill:none;stroke:#ff0000;stroke-linecap:square;stroke-opacity:0.9;stroke-width:2;"/>
    </g>
    <g id="line2d_25"/>
    <g id="text_20">
     <!-- mattress -->
     <g transform="translate(94.6 221.365937)scale(0.1 -0.1)">
      <defs>
       <path d="M 3328 2828 
Q 3544 3216 3844 3400 
Q 4144 3584 4550 3584 
Q 5097 3584 5394 3201 
Q 5691 2819 5691 2113 
L 5691 0 
L 5113 0 
L 5113 2094 
Q 5113 2597 4934 2840 
Q 4756 3084 4391 3084 
Q 3944 3084 3684 2787 
Q 3425 2491 3425 1978 
L 3425 0 
L 2847 0 
L 2847 2094 
Q 2847 2600 2669 2842 
Q 2491 3084 2119 3084 
Q 1678 3084 1418 2786 
Q 1159 2488 1159 1978 
L 1159 0 
L 581 0 
L 581 3500 
L 1159 3500 
L 1159 2956 
Q 1356 3278 1631 3431 
Q 1906 3584 2284 3584 
Q 2666 3584 2933 3390 
Q 3200 3197 3328 2828 
z
" id="DejaVuSans-6d" transform="scale(0.015625)"/>
       <path d="M 2834 3397 
L 2834 2853 
Q 2591 2978 2328 3040 
Q 2066 3103 1784 3103 
Q 1356 3103 1142 2972 
Q 928 2841 928 2578 
Q 928 2378 1081 2264 
Q 1234 2150 1697 2047 
L 1894 2003 
Q 2506 1872 2764 1633 
Q 3022 1394 3022 966 
Q 3022 478 2636 193 
Q 2250 -91 1575 -91 
Q 1294 -91 989 -36 
Q 684 19 347 128 
L 347 722 
Q 666 556 975 473 
Q 1284 391 1588 391 
Q 1994 391 2212 530 
Q 2431 669 2431 922 
Q 2431 1156 2273 1281 
Q 2116 1406 1581 1522 
L 1381 1569 
Q 847 1681 609 1914 
Q 372 2147 372 2553 
Q 372 3047 722 3315 
Q 1072 3584 1716 3584 
Q 2034 3584 2315 3537 
Q 2597 3491 2834 3397 
z
" id="DejaVuSans-73" transform="scale(0.015625)"/>
      </defs>
      <use xlink:href="#DejaVuSans-6d"/>
      <use x="97.412109" xlink:href="#DejaVuSans-61"/>
      <use x="158.691406" xlink:href="#DejaVuSans-74"/>
      <use x="197.900391" xlink:href="#DejaVuSans-74"/>
      <use x="237.109375" xlink:href="#DejaVuSans-72"/>
      <use x="275.972656" xlink:href="#DejaVuSans-65"/>
      <use x="337.496094" xlink:href="#DejaVuSans-73"/>
      <use x="389.595703" xlink:href="#DejaVuSans-73"/>
     </g>
    </g>
    <g id="line2d_26">
     <path d="M 66.6 232.544062 
L 86.6 232.544062 
" style="fill:none;stroke:#ff8040;stroke-linecap:square;stroke-opacity:0.9;stroke-width:2;"/>
    </g>
    <g id="line2d_27"/>
    <g id="text_21">
     <!-- trader-0850 -->
     <g transform="translate(94.6 236.044062)scale(0.1 -0.1)">
      <use xlink:href="#DejaVuSans-74"/>
      <use x="39.208984" xlink:href="#DejaVuSans-72"/>
      <use x="80.322266" xlink:href="#DejaVuSans-61"/>
      <use x="141.601562" xlink:href="#DejaVuSans-64"/>
      <use x="205.078125" xlink:href="#DejaVuSans-65"/>
      <use x="266.601562" xlink:href="#DejaVuSans-72"/>
      <use x="301.339844" xlink:href="#DejaVuSans-2d"/>
      <use x="337.423828" xlink:href="#DejaVuSans-30"/>
      <use x="401.046875" xlink:href="#DejaVuSans-38"/>
      <use x="464.669922" xlink:href="#DejaVuSans-35"/>
      <use x="528.292969" xlink:href="#DejaVuSans-30"/>
     </g>
    </g>
    <g id="line2d_28">
     <path d="M 66.6 247.222187 
L 86.6 247.222187 
" style="fill:none;stroke:#0d0d0d;stroke-linecap:square;stroke-opacity:0.25;stroke-width:2;"/>
    </g>
    <g id="line2d_29"/>
    <g id="text_22">
     <!-- rando-min -->
     <g transform="translate(94.6 250.722187)scale(0.1 -0.1)">
      <defs>
       <path d="M 3513 2113 
L 3513 0 
L 2938 0 
L 2938 2094 
Q 2938 2591 2744 2837 
Q 2550 3084 2163 3084 
Q 1697 3084 1428 2787 
Q 1159 2491 1159 1978 
L 1159 0 
L 581 0 
L 581 3500 
L 1159 3500 
L 1159 2956 
Q 1366 3272 1645 3428 
Q 1925 3584 2291 3584 
Q 2894 3584 3203 3211 
Q 3513 2838 3513 2113 
z
" id="DejaVuSans-6e" transform="scale(0.015625)"/>
      </defs>
      <use xlink:href="#DejaVuSans-72"/>
      <use x="41.113281" xlink:href="#DejaVuSans-61"/>
      <use x="102.392578" xlink:href="#DejaVuSans-6e"/>
      <use x="165.771484" xlink:href="#DejaVuSans-64"/>
      <use x="229.248047" xlink:href="#DejaVuSans-6f"/>
      <use x="292.304688" xlink:href="#DejaVuSans-2d"/>
      <use x="328.388672" xlink:href="#DejaVuSans-6d"/>
      <use x="425.800781" xlink:href="#DejaVuSans-69"/>
      <use x="453.583984" xlink:href="#DejaVuSans-6e"/>
     </g>
    </g>
    <g id="line2d_30">
     <path d="M 66.6 261.900312 
L 86.6 261.900312 
" style="fill:none;stroke:#0d0d0d;stroke-linecap:square;stroke-opacity:0.25;stroke-width:2;"/>
    </g>
    <g id="line2d_31"/>
    <g id="text_23">
     <!-- rando-max -->
     <g transform="translate(94.6 265.400312)scale(0.1 -0.1)">
      <defs>
       <path d="M 3513 3500 
L 2247 1797 
L 3578 0 
L 2900 0 
L 1881 1375 
L 863 0 
L 184 0 
L 1544 1831 
L 300 3500 
L 978 3500 
L 1906 2253 
L 2834 3500 
L 3513 3500 
z
" id="DejaVuSans-78" transform="scale(0.015625)"/>
      </defs>
      <use xlink:href="#DejaVuSans-72"/>
      <use x="41.113281" xlink:href="#DejaVuSans-61"/>
      <use x="102.392578" xlink:href="#DejaVuSans-6e"/>
      <use x="165.771484" xlink:href="#DejaVuSans-64"/>
      <use x="229.248047" xlink:href="#DejaVuSans-6f"/>
      <use x="292.304688" xlink:href="#DejaVuSans-2d"/>
      <use x="328.388672" xlink:href="#DejaVuSans-6d"/>
      <use x="425.800781" xlink:href="#DejaVuSans-61"/>
      <use x="487.080078" xlink:href="#DejaVuSans-78"/>
     </g>
    </g>
   </g>
  </g>
 </g>
 <defs>
  <clipPath id="p6f8bc21d3f">
   <rect height="235.008" width="357.12" x="57.6" y="41.472"/>
  </clipPath>
 </defs>
</svg>
