<?xml version="1.0" encoding="utf-8" standalone="no"?>
<!DOCTYPE svg PUBLIC "-//W3C//DTD SVG 1.1//EN"
  "http://www.w3.org/Graphics/SVG/1.1/DTD/svg11.dtd">
<svg height="345.6pt" version="1.1" viewBox="0 0 460.8 345.6" width="460.8pt" xmlns="http://www.w3.org/2000/svg" xmlns:xlink="http://www.w3.org/1999/xlink">
 <metadata>
  <rdf:RDF xmlns:cc="http://creativecommons.org/ns#" xmlns:dc="http://purl.org/dc/elements/1.1/" xmlns:rdf="http://www.w3.org/1999/02/22-rdf-syntax-ns#">
   <cc:Work>
    <dc:type rdf:resource="http://purl.org/dc/dcmitype/StillImage"/>
    <dc:date>2022-05-08T01:01:35.018826</dc:date>
    <dc:format>image/svg+xml</dc:format>
    <dc:creator>
     <cc:Agent>
      <dc:title>Matplotlib v3.4.3, https://matplotlib.org/</dc:title>
     </cc:Agent>
    </dc:creator>
   </cc:Work>
  </rdf:RDF>
 </metadata>
 <defs>
  <style type="text/css">*{stroke-linecap:butt;stroke-linejoin:round;}</style>
 </defs>
 <g id="figure_1">
  <g id="patch_1">
   <path d="M 0 345.6 
L 460.8 345.6 
L 460.8 0 
L 0 0 
z
" style="fill:#ffffff;"/>
  </g>
  <g id="axes_1">
   <g id="patch_2">
    <path d="M 57.6 276.48 
L 414.72 276.48 
L 414.72 41.472 
L 57.6 41.472 
z
" style="fill:#ffffff;"/>
   </g>
   <g id="matplotlib.axis_1">
    <g id="xtick_1">
     <g id="line2d_1">
      <defs>
       <path d="M 0 0 
L 0 3.5 
" id="m02a24557eb" style="stroke:#000000;stroke-width:0.8;"/>
      </defs>
      <g>
       <use style="stroke:#000000;stroke-width:0.8;" x="85.246364" xlink:href="#m02a24557eb" y="276.48"/>
      </g>
     </g>
     <g id="text_1">
      <!-- 2021-09 -->
      <g transform="translate(48.021543 310.951846)rotate(-30)scale(0.1 -0.1)">
       <defs>
        <path d="M 1228 531 
L 3431 531 
L 3431 0 
L 469 0 
L 469 531 
Q 828 903 1448 1529 
Q 2069 2156 2228 2338 
Q 2531 2678 2651 2914 
Q 2772 3150 2772 3378 
Q 2772 3750 2511 3984 
Q 2250 4219 1831 4219 
Q 1534 4219 1204 4116 
Q 875 4013 500 3803 
L 500 4441 
Q 881 4594 1212 4672 
Q 1544 4750 1819 4750 
Q 2544 4750 2975 4387 
Q 3406 4025 3406 3419 
Q 3406 3131 3298 2873 
Q 3191 2616 2906 2266 
Q 2828 2175 2409 1742 
Q 1991 1309 1228 531 
z
" id="DejaVuSans-32" transform="scale(0.015625)"/>
        <path d="M 2034 4250 
Q 1547 4250 1301 3770 
Q 1056 3291 1056 2328 
Q 1056 1369 1301 889 
Q 1547 409 2034 409 
Q 2525 409 2770 889 
Q 3016 1369 3016 2328 
Q 3016 3291 2770 3770 
Q 2525 4250 2034 4250 
z
M 2034 4750 
Q 2819 4750 3233 4129 
Q 3647 3509 3647 2328 
Q 3647 1150 3233 529 
Q 2819 -91 2034 -91 
Q 1250 -91 836 529 
Q 422 1150 422 2328 
Q 422 3509 836 4129 
Q 1250 4750 2034 4750 
z
" id="DejaVuSans-30" transform="scale(0.015625)"/>
        <path d="M 794 531 
L 1825 531 
L 1825 4091 
L 703 3866 
L 703 4441 
L 1819 4666 
L 2450 4666 
L 2450 531 
L 3481 531 
L 3481 0 
L 794 0 
L 794 531 
z
" id="DejaVuSans-31" transform="scale(0.015625)"/>
        <path d="M 313 2009 
L 1997 2009 
L 1997 1497 
L 313 1497 
L 313 2009 
z
" id="DejaVuSans-2d" transform="scale(0.015625)"/>
        <path d="M 703 97 
L 703 672 
Q 941 559 1184 500 
Q 1428 441 1663 441 
Q 2288 441 2617 861 
Q 2947 1281 2994 2138 
Q 2813 1869 2534 1725 
Q 2256 1581 1919 1581 
Q 1219 1581 811 2004 
Q 403 2428 403 3163 
Q 403 3881 828 4315 
Q 1253 4750 1959 4750 
Q 2769 4750 3195 4129 
Q 3622 3509 3622 2328 
Q 3622 1225 3098 567 
Q 2575 -91 1691 -91 
Q 1453 -91 1209 -44 
Q 966 3 703 97 
z
M 1959 2075 
Q 2384 2075 2632 2365 
Q 2881 2656 2881 3163 
Q 2881 3666 2632 3958 
Q 2384 4250 1959 4250 
Q 1534 4250 1286 3958 
Q 1038 3666 1038 3163 
Q 1038 2656 1286 2365 
Q 1534 2075 1959 2075 
z
" id="DejaVuSans-39" transform="scale(0.015625)"/>
       </defs>
       <use xlink:href="#DejaVuSans-32"/>
       <use x="63.623047" xlink:href="#DejaVuSans-30"/>
       <use x="127.246094" xlink:href="#DejaVuSans-32"/>
       <use x="190.869141" xlink:href="#DejaVuSans-31"/>
       <use x="254.492188" xlink:href="#DejaVuSans-2d"/>
       <use x="290.576172" xlink:href="#DejaVuSans-30"/>
       <use x="354.199219" xlink:href="#DejaVuSans-39"/>
      </g>
     </g>
    </g>
    <g id="xtick_2">
     <g id="line2d_2">
      <g>
       <use style="stroke:#000000;stroke-width:0.8;" x="123.291818" xlink:href="#m02a24557eb" y="276.48"/>
      </g>
     </g>
     <g id="text_2">
      <!-- 2021-10 -->
      <g transform="translate(86.066997 310.951846)rotate(-30)scale(0.1 -0.1)">
       <use xlink:href="#DejaVuSans-32"/>
       <use x="63.623047" xlink:href="#DejaVuSans-30"/>
       <use x="127.246094" xlink:href="#DejaVuSans-32"/>
       <use x="190.869141" xlink:href="#DejaVuSans-31"/>
       <use x="254.492188" xlink:href="#DejaVuSans-2d"/>
       <use x="290.576172" xlink:href="#DejaVuSans-31"/>
       <use x="354.199219" xlink:href="#DejaVuSans-30"/>
      </g>
     </g>
    </g>
    <g id="xtick_3">
     <g id="line2d_3">
      <g>
       <use style="stroke:#000000;stroke-width:0.8;" x="162.605455" xlink:href="#m02a24557eb" y="276.48"/>
      </g>
     </g>
     <g id="text_3">
      <!-- 2021-11 -->
      <g transform="translate(125.380634 310.951846)rotate(-30)scale(0.1 -0.1)">
       <use xlink:href="#DejaVuSans-32"/>
       <use x="63.623047" xlink:href="#DejaVuSans-30"/>
       <use x="127.246094" xlink:href="#DejaVuSans-32"/>
       <use x="190.869141" xlink:href="#DejaVuSans-31"/>
       <use x="254.492188" xlink:href="#DejaVuSans-2d"/>
       <use x="290.576172" xlink:href="#DejaVuSans-31"/>
       <use x="354.199219" xlink:href="#DejaVuSans-31"/>
      </g>
     </g>
    </g>
    <g id="xtick_4">
     <g id="line2d_4">
      <g>
       <use style="stroke:#000000;stroke-width:0.8;" x="200.650909" xlink:href="#m02a24557eb" y="276.48"/>
      </g>
     </g>
     <g id="text_4">
      <!-- 2021-12 -->
      <g transform="translate(163.426088 310.951846)rotate(-30)scale(0.1 -0.1)">
       <use xlink:href="#DejaVuSans-32"/>
       <use x="63.623047" xlink:href="#DejaVuSans-30"/>
       <use x="127.246094" xlink:href="#DejaVuSans-32"/>
       <use x="190.869141" xlink:href="#DejaVuSans-31"/>
       <use x="254.492188" xlink:href="#DejaVuSans-2d"/>
       <use x="290.576172" xlink:href="#DejaVuSans-31"/>
       <use x="354.199219" xlink:href="#DejaVuSans-32"/>
      </g>
     </g>
    </g>
    <g id="xtick_5">
     <g id="line2d_5">
      <g>
       <use style="stroke:#000000;stroke-width:0.8;" x="239.964545" xlink:href="#m02a24557eb" y="276.48"/>
      </g>
     </g>
     <g id="text_5">
      <!-- 2022-01 -->
      <g transform="translate(202.739725 310.951846)rotate(-30)scale(0.1 -0.1)">
       <use xlink:href="#DejaVuSans-32"/>
       <use x="63.623047" xlink:href="#DejaVuSans-30"/>
       <use x="127.246094" xlink:href="#DejaVuSans-32"/>
       <use x="190.869141" xlink:href="#DejaVuSans-32"/>
       <use x="254.492188" xlink:href="#DejaVuSans-2d"/>
       <use x="290.576172" xlink:href="#DejaVuSans-30"/>
       <use x="354.199219" xlink:href="#DejaVuSans-31"/>
      </g>
     </g>
    </g>
    <g id="xtick_6">
     <g id="line2d_6">
      <g>
       <use style="stroke:#000000;stroke-width:0.8;" x="279.278182" xlink:href="#m02a24557eb" y="276.48"/>
      </g>
     </g>
     <g id="text_6">
      <!-- 2022-02 -->
      <g transform="translate(242.053361 310.951846)rotate(-30)scale(0.1 -0.1)">
       <use xlink:href="#DejaVuSans-32"/>
       <use x="63.623047" xlink:href="#DejaVuSans-30"/>
       <use x="127.246094" xlink:href="#DejaVuSans-32"/>
       <use x="190.869141" xlink:href="#DejaVuSans-32"/>
       <use x="254.492188" xlink:href="#DejaVuSans-2d"/>
       <use x="290.576172" xlink:href="#DejaVuSans-30"/>
       <use x="354.199219" xlink:href="#DejaVuSans-32"/>
      </g>
     </g>
    </g>
    <g id="xtick_7">
     <g id="line2d_7">
      <g>
       <use style="stroke:#000000;stroke-width:0.8;" x="314.787273" xlink:href="#m02a24557eb" y="276.48"/>
      </g>
     </g>
     <g id="text_7">
      <!-- 2022-03 -->
      <g transform="translate(277.562452 310.951846)rotate(-30)scale(0.1 -0.1)">
       <defs>
        <path d="M 2597 2516 
Q 3050 2419 3304 2112 
Q 3559 1806 3559 1356 
Q 3559 666 3084 287 
Q 2609 -91 1734 -91 
Q 1441 -91 1130 -33 
Q 819 25 488 141 
L 488 750 
Q 750 597 1062 519 
Q 1375 441 1716 441 
Q 2309 441 2620 675 
Q 2931 909 2931 1356 
Q 2931 1769 2642 2001 
Q 2353 2234 1838 2234 
L 1294 2234 
L 1294 2753 
L 1863 2753 
Q 2328 2753 2575 2939 
Q 2822 3125 2822 3475 
Q 2822 3834 2567 4026 
Q 2313 4219 1838 4219 
Q 1578 4219 1281 4162 
Q 984 4106 628 3988 
L 628 4550 
Q 988 4650 1302 4700 
Q 1616 4750 1894 4750 
Q 2613 4750 3031 4423 
Q 3450 4097 3450 3541 
Q 3450 3153 3228 2886 
Q 3006 2619 2597 2516 
z
" id="DejaVuSans-33" transform="scale(0.015625)"/>
       </defs>
       <use xlink:href="#DejaVuSans-32"/>
       <use x="63.623047" xlink:href="#DejaVuSans-30"/>
       <use x="127.246094" xlink:href="#DejaVuSans-32"/>
       <use x="190.869141" xlink:href="#DejaVuSans-32"/>
       <use x="254.492188" xlink:href="#DejaVuSans-2d"/>
       <use x="290.576172" xlink:href="#DejaVuSans-30"/>
       <use x="354.199219" xlink:href="#DejaVuSans-33"/>
      </g>
     </g>
    </g>
    <g id="xtick_8">
     <g id="line2d_8">
      <g>
       <use style="stroke:#000000;stroke-width:0.8;" x="354.100909" xlink:href="#m02a24557eb" y="276.48"/>
      </g>
     </g>
     <g id="text_8">
      <!-- 2022-04 -->
      <g transform="translate(316.876088 310.951846)rotate(-30)scale(0.1 -0.1)">
       <defs>
        <path d="M 2419 4116 
L 825 1625 
L 2419 1625 
L 2419 4116 
z
M 2253 4666 
L 3047 4666 
L 3047 1625 
L 3713 1625 
L 3713 1100 
L 3047 1100 
L 3047 0 
L 2419 0 
L 2419 1100 
L 313 1100 
L 313 1709 
L 2253 4666 
z
" id="DejaVuSans-34" transform="scale(0.015625)"/>
       </defs>
       <use xlink:href="#DejaVuSans-32"/>
       <use x="63.623047" xlink:href="#DejaVuSans-30"/>
       <use x="127.246094" xlink:href="#DejaVuSans-32"/>
       <use x="190.869141" xlink:href="#DejaVuSans-32"/>
       <use x="254.492188" xlink:href="#DejaVuSans-2d"/>
       <use x="290.576172" xlink:href="#DejaVuSans-30"/>
       <use x="354.199219" xlink:href="#DejaVuSans-34"/>
      </g>
     </g>
    </g>
    <g id="xtick_9">
     <g id="line2d_9">
      <g>
       <use style="stroke:#000000;stroke-width:0.8;" x="392.146364" xlink:href="#m02a24557eb" y="276.48"/>
      </g>
     </g>
     <g id="text_9">
      <!-- 2022-05 -->
      <g transform="translate(354.921543 310.951846)rotate(-30)scale(0.1 -0.1)">
       <defs>
        <path d="M 691 4666 
L 3169 4666 
L 3169 4134 
L 1269 4134 
L 1269 2991 
Q 1406 3038 1543 3061 
Q 1681 3084 1819 3084 
Q 2600 3084 3056 2656 
Q 3513 2228 3513 1497 
Q 3513 744 3044 326 
Q 2575 -91 1722 -91 
Q 1428 -91 1123 -41 
Q 819 9 494 109 
L 494 744 
Q 775 591 1075 516 
Q 1375 441 1709 441 
Q 2250 441 2565 725 
Q 2881 1009 2881 1497 
Q 2881 1984 2565 2268 
Q 2250 2553 1709 2553 
Q 1456 2553 1204 2497 
Q 953 2441 691 2322 
L 691 4666 
z
" id="DejaVuSans-35" transform="scale(0.015625)"/>
       </defs>
       <use xlink:href="#DejaVuSans-32"/>
       <use x="63.623047" xlink:href="#DejaVuSans-30"/>
       <use x="127.246094" xlink:href="#DejaVuSans-32"/>
       <use x="190.869141" xlink:href="#DejaVuSans-32"/>
       <use x="254.492188" xlink:href="#DejaVuSans-2d"/>
       <use x="290.576172" xlink:href="#DejaVuSans-30"/>
       <use x="354.199219" xlink:href="#DejaVuSans-35"/>
      </g>
     </g>
    </g>
    <g id="text_10">
     <!-- date -->
     <g transform="translate(224.885 324.351346)scale(0.1 -0.1)">
      <defs>
       <path d="M 2906 2969 
L 2906 4863 
L 3481 4863 
L 3481 0 
L 2906 0 
L 2906 525 
Q 2725 213 2448 61 
Q 2172 -91 1784 -91 
Q 1150 -91 751 415 
Q 353 922 353 1747 
Q 353 2572 751 3078 
Q 1150 3584 1784 3584 
Q 2172 3584 2448 3432 
Q 2725 3281 2906 2969 
z
M 947 1747 
Q 947 1113 1208 752 
Q 1469 391 1925 391 
Q 2381 391 2643 752 
Q 2906 1113 2906 1747 
Q 2906 2381 2643 2742 
Q 2381 3103 1925 3103 
Q 1469 3103 1208 2742 
Q 947 2381 947 1747 
z
" id="DejaVuSans-64" transform="scale(0.015625)"/>
       <path d="M 2194 1759 
Q 1497 1759 1228 1600 
Q 959 1441 959 1056 
Q 959 750 1161 570 
Q 1363 391 1709 391 
Q 2188 391 2477 730 
Q 2766 1069 2766 1631 
L 2766 1759 
L 2194 1759 
z
M 3341 1997 
L 3341 0 
L 2766 0 
L 2766 531 
Q 2569 213 2275 61 
Q 1981 -91 1556 -91 
Q 1019 -91 701 211 
Q 384 513 384 1019 
Q 384 1609 779 1909 
Q 1175 2209 1959 2209 
L 2766 2209 
L 2766 2266 
Q 2766 2663 2505 2880 
Q 2244 3097 1772 3097 
Q 1472 3097 1187 3025 
Q 903 2953 641 2809 
L 641 3341 
Q 956 3463 1253 3523 
Q 1550 3584 1831 3584 
Q 2591 3584 2966 3190 
Q 3341 2797 3341 1997 
z
" id="DejaVuSans-61" transform="scale(0.015625)"/>
       <path d="M 1172 4494 
L 1172 3500 
L 2356 3500 
L 2356 3053 
L 1172 3053 
L 1172 1153 
Q 1172 725 1289 603 
Q 1406 481 1766 481 
L 2356 481 
L 2356 0 
L 1766 0 
Q 1100 0 847 248 
Q 594 497 594 1153 
L 594 3053 
L 172 3053 
L 172 3500 
L 594 3500 
L 594 4494 
L 1172 4494 
z
" id="DejaVuSans-74" transform="scale(0.015625)"/>
       <path d="M 3597 1894 
L 3597 1613 
L 953 1613 
Q 991 1019 1311 708 
Q 1631 397 2203 397 
Q 2534 397 2845 478 
Q 3156 559 3463 722 
L 3463 178 
Q 3153 47 2828 -22 
Q 2503 -91 2169 -91 
Q 1331 -91 842 396 
Q 353 884 353 1716 
Q 353 2575 817 3079 
Q 1281 3584 2069 3584 
Q 2775 3584 3186 3129 
Q 3597 2675 3597 1894 
z
M 3022 2063 
Q 3016 2534 2758 2815 
Q 2500 3097 2075 3097 
Q 1594 3097 1305 2825 
Q 1016 2553 972 2059 
L 3022 2063 
z
" id="DejaVuSans-65" transform="scale(0.015625)"/>
      </defs>
      <use xlink:href="#DejaVuSans-64"/>
      <use x="63.476562" xlink:href="#DejaVuSans-61"/>
      <use x="124.755859" xlink:href="#DejaVuSans-74"/>
      <use x="163.964844" xlink:href="#DejaVuSans-65"/>
     </g>
    </g>
   </g>
   <g id="matplotlib.axis_2">
    <g id="ytick_1">
     <g id="line2d_10">
      <defs>
       <path d="M 0 0 
L -3.5 0 
" id="ma8fbf0db49" style="stroke:#000000;stroke-width:0.8;"/>
      </defs>
      <g>
       <use style="stroke:#000000;stroke-width:0.8;" x="57.6" xlink:href="#ma8fbf0db49" y="275.081298"/>
      </g>
     </g>
     <g id="text_11">
      <!-- 80000 -->
      <g transform="translate(18.7875 278.880516)scale(0.1 -0.1)">
       <defs>
        <path d="M 2034 2216 
Q 1584 2216 1326 1975 
Q 1069 1734 1069 1313 
Q 1069 891 1326 650 
Q 1584 409 2034 409 
Q 2484 409 2743 651 
Q 3003 894 3003 1313 
Q 3003 1734 2745 1975 
Q 2488 2216 2034 2216 
z
M 1403 2484 
Q 997 2584 770 2862 
Q 544 3141 544 3541 
Q 544 4100 942 4425 
Q 1341 4750 2034 4750 
Q 2731 4750 3128 4425 
Q 3525 4100 3525 3541 
Q 3525 3141 3298 2862 
Q 3072 2584 2669 2484 
Q 3125 2378 3379 2068 
Q 3634 1759 3634 1313 
Q 3634 634 3220 271 
Q 2806 -91 2034 -91 
Q 1263 -91 848 271 
Q 434 634 434 1313 
Q 434 1759 690 2068 
Q 947 2378 1403 2484 
z
M 1172 3481 
Q 1172 3119 1398 2916 
Q 1625 2713 2034 2713 
Q 2441 2713 2670 2916 
Q 2900 3119 2900 3481 
Q 2900 3844 2670 4047 
Q 2441 4250 2034 4250 
Q 1625 4250 1398 4047 
Q 1172 3844 1172 3481 
z
" id="DejaVuSans-38" transform="scale(0.015625)"/>
       </defs>
       <use xlink:href="#DejaVuSans-38"/>
       <use x="63.623047" xlink:href="#DejaVuSans-30"/>
       <use x="127.246094" xlink:href="#DejaVuSans-30"/>
       <use x="190.869141" xlink:href="#DejaVuSans-30"/>
       <use x="254.492188" xlink:href="#DejaVuSans-30"/>
      </g>
     </g>
    </g>
    <g id="ytick_2">
     <g id="line2d_11">
      <g>
       <use style="stroke:#000000;stroke-width:0.8;" x="57.6" xlink:href="#ma8fbf0db49" y="243.208517"/>
      </g>
     </g>
     <g id="text_12">
      <!-- 85000 -->
      <g transform="translate(18.7875 247.007736)scale(0.1 -0.1)">
       <use xlink:href="#DejaVuSans-38"/>
       <use x="63.623047" xlink:href="#DejaVuSans-35"/>
       <use x="127.246094" xlink:href="#DejaVuSans-30"/>
       <use x="190.869141" xlink:href="#DejaVuSans-30"/>
       <use x="254.492188" xlink:href="#DejaVuSans-30"/>
      </g>
     </g>
    </g>
    <g id="ytick_3">
     <g id="line2d_12">
      <g>
       <use style="stroke:#000000;stroke-width:0.8;" x="57.6" xlink:href="#ma8fbf0db49" y="211.335737"/>
      </g>
     </g>
     <g id="text_13">
      <!-- 90000 -->
      <g transform="translate(18.7875 215.134956)scale(0.1 -0.1)">
       <use xlink:href="#DejaVuSans-39"/>
       <use x="63.623047" xlink:href="#DejaVuSans-30"/>
       <use x="127.246094" xlink:href="#DejaVuSans-30"/>
       <use x="190.869141" xlink:href="#DejaVuSans-30"/>
       <use x="254.492188" xlink:href="#DejaVuSans-30"/>
      </g>
     </g>
    </g>
    <g id="ytick_4">
     <g id="line2d_13">
      <g>
       <use style="stroke:#000000;stroke-width:0.8;" x="57.6" xlink:href="#ma8fbf0db49" y="179.462957"/>
      </g>
     </g>
     <g id="text_14">
      <!-- 95000 -->
      <g transform="translate(18.7875 183.262176)scale(0.1 -0.1)">
       <use xlink:href="#DejaVuSans-39"/>
       <use x="63.623047" xlink:href="#DejaVuSans-35"/>
       <use x="127.246094" xlink:href="#DejaVuSans-30"/>
       <use x="190.869141" xlink:href="#DejaVuSans-30"/>
       <use x="254.492188" xlink:href="#DejaVuSans-30"/>
      </g>
     </g>
    </g>
    <g id="ytick_5">
     <g id="line2d_14">
      <g>
       <use style="stroke:#000000;stroke-width:0.8;" x="57.6" xlink:href="#ma8fbf0db49" y="147.590176"/>
      </g>
     </g>
     <g id="text_15">
      <!-- 100000 -->
      <g transform="translate(12.425 151.389395)scale(0.1 -0.1)">
       <use xlink:href="#DejaVuSans-31"/>
       <use x="63.623047" xlink:href="#DejaVuSans-30"/>
       <use x="127.246094" xlink:href="#DejaVuSans-30"/>
       <use x="190.869141" xlink:href="#DejaVuSans-30"/>
       <use x="254.492188" xlink:href="#DejaVuSans-30"/>
       <use x="318.115234" xlink:href="#DejaVuSans-30"/>
      </g>
     </g>
    </g>
    <g id="ytick_6">
     <g id="line2d_15">
      <g>
       <use style="stroke:#000000;stroke-width:0.8;" x="57.6" xlink:href="#ma8fbf0db49" y="115.717396"/>
      </g>
     </g>
     <g id="text_16">
      <!-- 105000 -->
      <g transform="translate(12.425 119.516615)scale(0.1 -0.1)">
       <use xlink:href="#DejaVuSans-31"/>
       <use x="63.623047" xlink:href="#DejaVuSans-30"/>
       <use x="127.246094" xlink:href="#DejaVuSans-35"/>
       <use x="190.869141" xlink:href="#DejaVuSans-30"/>
       <use x="254.492188" xlink:href="#DejaVuSans-30"/>
       <use x="318.115234" xlink:href="#DejaVuSans-30"/>
      </g>
     </g>
    </g>
    <g id="ytick_7">
     <g id="line2d_16">
      <g>
       <use style="stroke:#000000;stroke-width:0.8;" x="57.6" xlink:href="#ma8fbf0db49" y="83.844616"/>
      </g>
     </g>
     <g id="text_17">
      <!-- 110000 -->
      <g transform="translate(12.425 87.643835)scale(0.1 -0.1)">
       <use xlink:href="#DejaVuSans-31"/>
       <use x="63.623047" xlink:href="#DejaVuSans-31"/>
       <use x="127.246094" xlink:href="#DejaVuSans-30"/>
       <use x="190.869141" xlink:href="#DejaVuSans-30"/>
       <use x="254.492188" xlink:href="#DejaVuSans-30"/>
       <use x="318.115234" xlink:href="#DejaVuSans-30"/>
      </g>
     </g>
    </g>
    <g id="ytick_8">
     <g id="line2d_17">
      <g>
       <use style="stroke:#000000;stroke-width:0.8;" x="57.6" xlink:href="#ma8fbf0db49" y="51.971835"/>
      </g>
     </g>
     <g id="text_18">
      <!-- 115000 -->
      <g transform="translate(12.425 55.771054)scale(0.1 -0.1)">
       <use xlink:href="#DejaVuSans-31"/>
       <use x="63.623047" xlink:href="#DejaVuSans-31"/>
       <use x="127.246094" xlink:href="#DejaVuSans-35"/>
       <use x="190.869141" xlink:href="#DejaVuSans-30"/>
       <use x="254.492188" xlink:href="#DejaVuSans-30"/>
       <use x="318.115234" xlink:href="#DejaVuSans-30"/>
      </g>
     </g>
    </g>
   </g>
   <g id="line2d_18">
    <path clip-path="url(#p574e229b5c)" d="M 73.832727 147.590176 
L 76.369091 143.487283 
L 77.637273 146.653326 
L 78.905455 140.661048 
L 82.71 136.79515 
L 83.978182 135.692675 
L 85.246364 137.13492 
L 86.514545 136.647946 
L 87.782727 136.883882 
L 92.855455 136.931154 
L 95.391818 140.275435 
L 96.66 146.019905 
L 100.464545 141.18633 
L 101.732727 149.771844 
L 103.000909 145.437152 
L 104.269091 146.989059 
L 105.537273 152.939431 
L 109.341818 163.707182 
L 110.61 165.090526 
L 111.878182 160.344999 
L 113.146364 150.512183 
L 114.414545 144.887022 
L 118.219091 141.005149 
L 119.487273 154.746329 
L 120.755455 153.195522 
L 122.023636 158.022161 
L 123.291818 148.726027 
L 127.096364 160.793563 
L 128.364545 150.846135 
L 129.632727 148.942076 
L 130.900909 148.881446 
L 132.169091 148.000735 
L 135.973636 147.225516 
L 137.241818 146.388323 
L 138.51 154.825515 
L 139.778182 142.310378 
L 141.046364 141.1143 
L 144.850909 136.266114 
L 146.119091 129.551125 
L 147.387273 127.170298 
L 148.655455 138.662932 
L 149.923636 147.234996 
L 153.728182 146.687434 
L 154.996364 151.999571 
L 156.264545 154.250044 
L 157.532727 145.835842 
L 158.800909 154.505076 
L 162.605455 141.372199 
L 163.873636 141.299161 
L 165.141818 134.542246 
L 166.41 142.678779 
L 167.678182 137.770521 
L 171.482727 137.038118 
L 172.750909 145.607948 
L 174.019091 145.352578 
L 175.287273 150.488624 
L 176.555455 145.472174 
L 180.36 143.458911 
L 181.628182 143.915519 
L 182.896364 147.437874 
L 184.164545 148.450349 
L 185.432727 149.168793 
L 189.237273 145.435239 
L 190.505455 140.798659 
L 191.773636 140.736982 
L 194.31 140.869681 
L 198.114545 146.782438 
L 199.382727 159.046715 
L 200.650909 167.684918 
L 201.919091 160.181582 
L 203.187273 164.461451 
L 206.991818 152.641076 
L 208.26 141.258145 
L 209.528182 136.734734 
L 210.796364 136.37602 
L 212.064545 133.933789 
L 215.869091 140.198967 
L 217.137273 137.871412 
L 218.405455 133.685273 
L 219.673636 130.418279 
L 220.941818 137.693532 
L 224.746364 146.764536 
L 226.014545 131.355866 
L 227.282727 128.831515 
L 228.550909 123.084786 
L 233.623636 114.522653 
L 234.891818 114.72279 
L 236.16 114.733214 
L 237.428182 116.277541 
L 238.696364 119.178703 
L 242.500909 109.171977 
L 243.769091 101.253478 
L 245.037273 119.097978 
L 246.305455 113.068501 
L 247.573636 111.281969 
L 251.378182 111.051283 
L 252.646364 105.159296 
L 253.914545 104.177315 
L 255.182727 112.197315 
L 256.450909 110.010311 
L 261.523636 124.371309 
L 262.791818 128.888161 
L 264.06 136.359488 
L 265.328182 151.690906 
L 269.132727 150.540804 
L 270.400909 157.77682 
L 271.669091 158.233911 
L 272.937273 162.318852 
L 274.205455 146.037576 
L 278.01 132.614654 
L 279.278182 126.501361 
L 280.546364 114.887069 
L 281.814545 156.906579 
L 283.082727 155.877686 
L 286.887273 166.86723 
L 288.155455 168.460634 
L 289.423636 155.149353 
L 290.691818 165.942518 
L 291.96 179.817193 
L 295.764545 184.224086 
L 297.032727 176.540229 
L 298.300909 180.167563 
L 299.569091 190.989188 
L 300.837273 194.912049 
L 305.91 201.518103 
L 307.178182 210.011265 
L 308.446364 196.318479 
L 309.714545 185.362757 
L 313.519091 188.284516 
L 314.787273 198.218317 
L 316.055455 185.872211 
L 317.323636 188.508176 
L 318.591818 195.919336 
L 322.396364 220.587022 
L 323.664545 220.391949 
L 324.932727 196.09316 
L 326.200909 204.048305 
L 327.469091 213.617806 
L 331.273636 215.154591 
L 332.541818 203.729738 
L 333.81 185.623036 
L 335.078182 178.834878 
L 336.346364 168.280825 
L 340.150909 171.196556 
L 341.419091 159.079939 
L 342.687273 166.108631 
L 343.955455 156.586078 
L 345.223636 149.762262 
L 349.028182 147.97312 
L 350.296364 142.982004 
L 351.564545 145.316937 
L 352.832727 160.6474 
L 357.905455 151.649258 
L 359.173636 158.232287 
L 360.441818 167.982109 
L 361.71 169.21613 
L 362.978182 169.573076 
L 366.782727 180.421472 
L 368.050909 185.022757 
L 369.319091 182.405614 
L 370.587273 193.191654 
L 375.66 188.180569 
L 376.928182 177.365506 
L 378.196364 183.785817 
L 379.464545 200.224668 
L 380.732727 218.668787 
L 384.537273 214.400021 
L 385.805455 225.066135 
L 387.073636 231.065828 
L 388.341818 196.939837 
L 389.61 215.594446 
L 393.414545 207.455977 
L 394.682727 201.039579 
L 395.950909 175.98408 
L 397.219091 202.222152 
L 398.487273 209.613885 
L 398.487273 209.613885 
" style="fill:none;stroke:#0000ff;stroke-linecap:square;stroke-opacity:0.9;stroke-width:2;"/>
   </g>
   <g id="line2d_19">
    <path clip-path="url(#p574e229b5c)" d="M 73.832727 147.590176 
L 76.369091 141.201245 
L 77.637273 145.196304 
L 78.905455 137.749296 
L 82.71 135.40472 
L 83.978182 134.189226 
L 85.246364 134.283516 
L 86.514545 135.753686 
L 87.782727 134.85754 
L 92.855455 134.054164 
L 94.123636 136.869918 
L 95.391818 137.695055 
L 96.66 144.935946 
L 100.464545 140.299122 
L 101.732727 145.983541 
L 103.000909 143.400335 
L 104.269091 145.251219 
L 105.537273 153.055864 
L 109.341818 163.332182 
L 110.61 163.75913 
L 111.878182 160.075368 
L 113.146364 151.618941 
L 114.414545 147.310485 
L 118.219091 142.847852 
L 119.487273 155.754872 
L 120.755455 154.518977 
L 122.023636 161.010272 
L 123.291818 151.470668 
L 127.096364 158.644185 
L 128.364545 149.728644 
L 129.632727 147.786952 
L 130.900909 146.061399 
L 132.169091 143.078231 
L 135.973636 146.922867 
L 137.241818 152.124375 
L 138.51 153.582435 
L 139.778182 137.955448 
L 141.046364 133.800113 
L 144.850909 131.933563 
L 146.119091 126.634651 
L 147.387273 123.070096 
L 148.655455 131.662507 
L 149.923636 135.115616 
L 153.728182 136.568576 
L 156.264545 144.043148 
L 157.532727 135.028462 
L 158.800909 133.807869 
L 162.605455 133.206312 
L 163.873636 130.67279 
L 165.141818 125.732193 
L 166.41 127.362654 
L 167.678182 127.195389 
L 171.482727 126.272566 
L 172.750909 131.260175 
L 174.019091 134.737372 
L 175.287273 134.861847 
L 176.555455 130.265371 
L 180.36 128.752531 
L 181.628182 130.745559 
L 182.896364 130.690559 
L 184.164545 131.370974 
L 185.432727 133.228864 
L 189.237273 130.500359 
L 190.505455 124.351978 
L 191.773636 123.731379 
L 194.31 141.053322 
L 198.114545 133.551542 
L 199.382727 147.319946 
L 200.650909 154.876902 
L 201.919091 146.139929 
L 203.187273 151.682841 
L 206.991818 141.778445 
L 208.26 130.862405 
L 209.528182 126.816363 
L 210.796364 127.530641 
L 212.064545 123.285475 
L 215.869091 129.633813 
L 217.137273 129.662728 
L 218.405455 124.639994 
L 219.673636 124.44605 
L 220.941818 132.770015 
L 224.746364 139.934403 
L 226.014545 127.904804 
L 227.282727 124.003856 
L 228.550909 118.711068 
L 233.623636 109.893811 
L 234.891818 110.084636 
L 236.16 109.794079 
L 237.428182 111.035047 
L 238.696364 113.56701 
L 242.500909 106.357866 
L 243.769091 99.487305 
L 245.037273 114.496315 
L 247.573636 108.284513 
L 251.378182 108.674513 
L 252.646364 104.817878 
L 253.914545 104.55718 
L 255.182727 110.014049 
L 256.450909 110.311362 
L 261.523636 124.796145 
L 264.06 137.201012 
L 265.328182 150.75191 
L 269.132727 151.982018 
L 270.400909 149.939612 
L 271.669091 150.931762 
L 272.937273 156.926768 
L 274.205455 141.183474 
L 278.01 131.1591 
L 279.278182 123.936632 
L 280.546364 113.131993 
L 281.814545 143.286918 
L 283.082727 137.56604 
L 286.887273 141.951917 
L 288.155455 137.786741 
L 289.423636 132.012173 
L 290.691818 142.542989 
L 291.96 156.248296 
L 295.764545 161.840916 
L 297.032727 154.154144 
L 298.300909 155.974498 
L 299.569091 168.044729 
L 300.837273 171.179031 
L 305.91 176.348636 
L 307.178182 184.558434 
L 308.446364 181.407943 
L 309.714545 166.673117 
L 313.519091 173.156676 
L 314.787273 185.382134 
L 316.055455 171.266551 
L 317.323636 172.559765 
L 318.591818 181.714551 
L 322.396364 202.804961 
L 323.664545 205.572493 
L 324.932727 184.564014 
L 326.200909 191.996422 
L 327.469091 198.492044 
L 331.273636 199.156103 
L 332.541818 189.181602 
L 333.81 175.762523 
L 335.078182 169.188884 
L 336.346364 163.533018 
L 340.150909 163.327232 
L 341.419091 152.844979 
L 342.687273 158.762067 
L 343.955455 149.499251 
L 345.223636 142.448232 
L 349.028182 142.004346 
L 350.296364 139.010945 
L 351.564545 139.284883 
L 352.832727 152.082457 
L 354.100909 148.831077 
L 357.905455 144.924939 
L 359.173636 150.557763 
L 360.441818 158.619179 
L 361.71 159.017472 
L 362.978182 158.790287 
L 368.050909 171.182557 
L 369.319091 169.076401 
L 370.587273 178.248872 
L 375.66 174.297165 
L 376.928182 165.828758 
L 378.196364 163.264484 
L 379.464545 171.221129 
L 380.732727 189.247374 
L 384.537273 187.55733 
L 385.805455 197.763923 
L 387.073636 198.878171 
L 388.341818 179.562941 
L 389.61 198.310808 
L 393.414545 194.590821 
L 394.682727 189.687677 
L 395.950909 164.260844 
L 397.219091 186.084211 
L 398.487273 184.42046 
L 398.487273 184.42046 
" style="fill:none;stroke:#ff0000;stroke-linecap:square;stroke-opacity:0.9;stroke-width:2;"/>
   </g>
   <g id="line2d_20">
    <path clip-path="url(#p574e229b5c)" d="M 73.832727 147.590176 
L 75.100909 144.038145 
L 76.369091 142.138128 
L 77.637273 145.267791 
L 78.905455 139.431586 
L 83.978182 133.944253 
L 85.246364 135.597304 
L 86.514545 134.536708 
L 87.782727 134.840385 
L 92.855455 134.711116 
L 95.391818 137.805993 
L 96.66 144.081934 
L 100.464545 138.500707 
L 101.732727 147.060076 
L 103.000909 143.11944 
L 104.269091 143.825244 
L 105.537273 149.943459 
L 109.341818 160.54112 
L 110.61 161.280256 
L 111.878182 156.836839 
L 113.146364 147.269717 
L 114.414545 141.491477 
L 118.219091 136.881385 
L 119.487273 150.710597 
L 120.755455 149.317341 
L 122.023636 153.938312 
L 123.291818 144.443461 
L 127.096364 156.138833 
L 128.364545 146.176723 
L 129.632727 144.176448 
L 130.900909 142.551789 
L 132.169091 139.840375 
L 135.973636 143.551564 
L 137.241818 149.074497 
L 138.51 149.980415 
L 139.778182 137.251808 
L 141.046364 136.542069 
L 144.850909 131.309181 
L 146.119091 124.909758 
L 147.387273 122.015999 
L 148.655455 133.783811 
L 149.923636 142.296742 
L 153.728182 141.590841 
L 154.996364 147.593877 
L 156.264545 149.37586 
L 157.532727 141.028602 
L 158.800909 139.530481 
L 162.605455 135.807307 
L 163.873636 134.976167 
L 165.141818 129.583341 
L 166.41 128.611484 
L 167.678182 123.887316 
L 171.482727 123.426254 
L 172.750909 131.633707 
L 174.019091 136.53111 
L 175.287273 136.746798 
L 176.555455 131.463196 
L 180.36 129.421956 
L 181.628182 132.610719 
L 182.896364 133.186237 
L 184.164545 134.501187 
L 185.432727 135.427287 
L 189.237273 131.192046 
L 190.505455 126.145446 
L 191.773636 126.164337 
L 194.31 140.117846 
L 198.114545 132.358605 
L 199.382727 145.10355 
L 200.650909 153.902054 
L 201.919091 145.813273 
L 203.187273 150.317843 
L 206.991818 138.014555 
L 208.26 126.935397 
L 209.528182 121.997685 
L 210.796364 121.302403 
L 212.064545 119.01951 
L 215.869091 125.607996 
L 217.137273 122.307038 
L 218.405455 118.409342 
L 219.673636 115.460589 
L 220.941818 122.496381 
L 224.746364 131.533451 
L 226.014545 116.165354 
L 227.282727 113.273123 
L 228.550909 106.871807 
L 233.623636 98.929243 
L 234.891818 99.276066 
L 236.16 98.975525 
L 237.428182 99.784131 
L 238.696364 103.034864 
L 242.500909 92.620311 
L 243.769091 84.555242 
L 245.037273 102.39263 
L 246.305455 96.75983 
L 247.573636 94.865524 
L 251.378182 94.470319 
L 252.646364 88.410589 
L 253.914545 87.14968 
L 255.182727 95.217472 
L 256.450909 93.513335 
L 261.523636 108.260479 
L 262.791818 112.364969 
L 264.06 120.318473 
L 265.328182 135.222742 
L 269.132727 134.109388 
L 270.400909 141.965316 
L 271.669091 142.221476 
L 272.937273 146.346303 
L 274.205455 129.953985 
L 278.01 115.894751 
L 279.278182 109.491887 
L 280.546364 97.619882 
L 281.814545 140.539766 
L 283.082727 138.907676 
L 286.887273 150.605417 
L 288.155455 151.9728 
L 289.423636 138.265066 
L 290.691818 149.353784 
L 291.96 163.771247 
L 295.764545 168.379483 
L 297.032727 159.945174 
L 298.300909 163.726184 
L 299.569091 175.366873 
L 300.837273 179.636124 
L 305.91 185.617566 
L 307.178182 194.413309 
L 308.446364 180.012979 
L 309.714545 168.476889 
L 313.519091 171.314551 
L 314.787273 181.82286 
L 316.055455 169.062005 
L 317.323636 173.377631 
L 318.591818 184.531271 
L 322.396364 210.604446 
L 323.664545 207.757183 
L 324.932727 182.02044 
L 327.469091 200.897328 
L 331.273636 201.580336 
L 332.541818 189.335059 
L 333.81 169.879438 
L 335.078182 162.734067 
L 336.346364 153.811553 
L 340.150909 155.875924 
L 341.419091 142.487592 
L 342.687273 150.331285 
L 343.955455 140.826697 
L 345.223636 133.605208 
L 349.028182 132.585569 
L 350.296364 128.308082 
L 351.564545 131.387133 
L 352.832727 147.832421 
L 354.100909 146.508017 
L 357.905455 140.509026 
L 359.173636 148.504184 
L 360.441818 158.048914 
L 361.71 160.308439 
L 362.978182 160.802692 
L 368.050909 174.038703 
L 369.319091 171.662782 
L 370.587273 183.550158 
L 375.66 176.546099 
L 376.928182 164.969327 
L 378.196364 168.89911 
L 379.464545 186.075584 
L 380.732727 205.491153 
L 384.537273 201.564578 
L 385.805455 216.251612 
L 387.073636 222.255781 
L 388.341818 188.758015 
L 389.61 207.693929 
L 393.414545 197.386881 
L 394.682727 190.006597 
L 395.950909 163.307803 
L 397.219091 189.207668 
L 398.487273 192.0214 
L 398.487273 192.0214 
" style="fill:none;stroke:#ff8040;stroke-linecap:square;stroke-opacity:0.9;stroke-width:2;"/>
   </g>
   <g id="line2d_21">
    <path clip-path="url(#p574e229b5c)" d="M 73.832727 148.227632 
L 75.100909 146.449682 
L 76.369091 144.975296 
L 77.637273 150.281872 
L 78.905455 143.250504 
L 82.71 147.717033 
L 83.978182 146.648141 
L 85.246364 147.100103 
L 86.514545 149.154765 
L 87.782727 149.096008 
L 92.855455 151.331298 
L 94.123636 152.580606 
L 95.391818 153.499424 
L 96.66 160.4362 
L 100.464545 155.395307 
L 101.732727 162.274191 
L 103.000909 158.90291 
L 104.269091 159.732913 
L 105.537273 166.878932 
L 109.341818 178.161095 
L 110.61 179.276846 
L 111.878182 179.252185 
L 113.146364 170.293045 
L 114.414545 167.95095 
L 118.219091 161.490549 
L 119.487273 174.295549 
L 120.755455 173.714629 
L 122.023636 180.761886 
L 123.291818 171.079514 
L 127.096364 181.981296 
L 128.364545 172.248242 
L 129.632727 171.19385 
L 130.900909 167.204282 
L 132.169091 164.629909 
L 135.973636 168.195066 
L 137.241818 173.815746 
L 138.51 175.524364 
L 139.778182 161.143455 
L 141.046364 157.555234 
L 144.850909 159.697688 
L 146.119091 154.743728 
L 147.387273 151.32236 
L 148.655455 166.164048 
L 149.923636 174.557903 
L 153.728182 178.830136 
L 154.996364 178.258652 
L 156.264545 187.649281 
L 157.532727 181.758618 
L 158.800909 182.898311 
L 162.605455 181.255004 
L 163.873636 178.562153 
L 165.141818 174.727907 
L 166.41 175.530723 
L 167.678182 173.105546 
L 171.482727 171.975651 
L 172.750909 174.938337 
L 174.019091 178.768882 
L 175.287273 179.115302 
L 176.555455 175.676804 
L 180.36 174.737536 
L 181.628182 177.850563 
L 184.164545 180.5659 
L 185.432727 183.165536 
L 189.237273 176.622102 
L 190.505455 168.908187 
L 191.773636 168.759675 
L 194.31 186.569443 
L 198.114545 180.819618 
L 199.382727 195.700852 
L 200.650909 203.684824 
L 201.919091 192.403586 
L 203.187273 194.860814 
L 206.991818 187.37509 
L 208.26 174.615393 
L 209.528182 168.514077 
L 210.796364 169.36082 
L 212.064545 164.734606 
L 215.869091 171.891844 
L 217.137273 170.593017 
L 219.673636 160.837186 
L 220.941818 171.448574 
L 224.746364 178.891722 
L 226.014545 166.855554 
L 227.282727 162.736715 
L 228.550909 154.525871 
L 233.623636 144.969849 
L 234.891818 143.412339 
L 236.16 142.97862 
L 237.428182 143.659774 
L 238.696364 146.582924 
L 242.500909 139.294878 
L 243.769091 135.882341 
L 245.037273 151.514421 
L 246.305455 151.001963 
L 247.573636 152.540435 
L 251.378182 154.892045 
L 252.646364 148.609069 
L 253.914545 148.099534 
L 255.182727 155.391703 
L 256.450909 153.363939 
L 261.523636 165.677802 
L 262.791818 172.465052 
L 264.06 178.542109 
L 265.328182 193.123821 
L 269.132727 194.688109 
L 270.400909 198.991619 
L 271.669091 199.080847 
L 272.937273 203.071811 
L 274.205455 186.668194 
L 278.01 176.379789 
L 279.278182 169.223284 
L 280.546364 157.671985 
L 281.814545 207.994088 
L 283.082727 201.318503 
L 286.887273 207.014408 
L 288.155455 204.044464 
L 289.423636 190.731422 
L 290.691818 200.384154 
L 291.96 213.427382 
L 295.764545 220.792022 
L 297.032727 212.698353 
L 298.300909 215.531034 
L 299.569091 233.844834 
L 300.837273 237.412611 
L 305.91 241.452792 
L 307.178182 250.168292 
L 308.446364 242.013772 
L 309.714545 231.369909 
L 313.519091 235.113462 
L 314.787273 240.185093 
L 316.055455 227.807442 
L 317.323636 230.991337 
L 318.591818 236.300422 
L 322.396364 254.424852 
L 323.664545 257.485851 
L 324.932727 234.849839 
L 326.200909 243.517364 
L 327.469091 250.252681 
L 331.273636 249.372636 
L 332.541818 239.073981 
L 333.81 231.390549 
L 335.078182 225.340598 
L 336.346364 220.74866 
L 340.150909 221.347762 
L 341.419091 212.070746 
L 342.687273 217.613147 
L 343.955455 207.425476 
L 345.223636 200.651433 
L 349.028182 201.895085 
L 350.296364 198.854925 
L 351.564545 199.810566 
L 352.832727 210.571966 
L 354.100909 205.393428 
L 357.905455 203.364828 
L 359.173636 207.962438 
L 360.441818 214.672848 
L 361.71 214.661533 
L 362.978182 214.980281 
L 366.782727 226.099664 
L 368.050909 230.167701 
L 369.319091 227.522136 
L 370.587273 238.773227 
L 375.66 236.657076 
L 376.928182 228.120948 
L 378.196364 226.950825 
L 379.464545 237.820817 
L 380.732727 255.447018 
L 384.537273 253.624845 
L 385.805455 264.258638 
L 387.073636 265.797818 
L 388.341818 238.200121 
L 389.61 254.515058 
L 393.414545 251.076534 
L 394.682727 248.168982 
L 395.950909 224.715753 
L 397.219091 243.09402 
L 398.487273 242.127777 
L 398.487273 242.127777 
" style="fill:none;stroke:#0d0d0d;stroke-linecap:square;stroke-opacity:0.25;stroke-width:2;"/>
   </g>
   <g id="line2d_22">
    <path clip-path="url(#p574e229b5c)" d="M 73.832727 146.952721 
L 75.100909 141.591648 
L 76.369091 137.227203 
L 77.637273 140.736897 
L 78.905455 131.258384 
L 82.71 127.505107 
L 83.978182 127.086864 
L 85.246364 126.250002 
L 86.514545 125.083983 
L 87.782727 125.318669 
L 92.855455 123.854658 
L 94.123636 124.57422 
L 95.391818 125.592229 
L 96.66 132.067642 
L 100.464545 127.899093 
L 101.732727 133.286288 
L 103.000909 129.435909 
L 104.269091 130.722483 
L 105.537273 139.173931 
L 109.341818 149.644717 
L 110.61 150.347584 
L 111.878182 144.00904 
L 113.146364 136.432022 
L 114.414545 130.397221 
L 118.219091 122.713948 
L 119.487273 138.846174 
L 120.755455 136.612862 
L 122.023636 142.251643 
L 123.291818 132.76 
L 127.096364 136.75206 
L 128.364545 127.118568 
L 129.632727 126.105045 
L 130.900909 123.826634 
L 132.169091 120.997801 
L 135.973636 123.054972 
L 137.241818 127.956792 
L 138.51 129.900961 
L 139.778182 113.012225 
L 141.046364 107.774736 
L 144.850909 104.722592 
L 146.119091 98.353054 
L 147.387273 93.405345 
L 149.923636 107.823301 
L 153.728182 110.376733 
L 154.996364 113.680731 
L 156.264545 113.736569 
L 157.532727 105.751271 
L 158.800909 103.469455 
L 162.605455 103.313582 
L 163.873636 101.153274 
L 165.141818 94.892685 
L 166.41 94.424972 
L 167.678182 91.16249 
L 171.482727 91.82279 
L 172.750909 97.438547 
L 174.019091 96.324865 
L 175.287273 97.075373 
L 176.555455 94.860819 
L 180.36 92.927456 
L 181.628182 94.064228 
L 182.896364 92.69496 
L 184.164545 92.901707 
L 185.432727 97.084537 
L 189.237273 91.427867 
L 190.505455 82.103596 
L 191.773636 80.925851 
L 194.31 97.601197 
L 198.114545 87.811769 
L 199.382727 104.590125 
L 200.650909 112.540457 
L 201.919091 107.958199 
L 203.187273 110.63056 
L 206.991818 100.234191 
L 208.26 87.253956 
L 209.528182 81.09401 
L 210.796364 80.012238 
L 212.064545 78.029273 
L 215.869091 85.570968 
L 217.137273 84.087181 
L 218.405455 75.256983 
L 219.673636 72.01976 
L 220.941818 80.224839 
L 224.746364 88.709745 
L 226.014545 76.885798 
L 227.282727 73.545362 
L 228.550909 68.835334 
L 233.623636 59.998561 
L 234.891818 60.873391 
L 236.16 59.482053 
L 237.428182 60.268081 
L 238.696364 63.285155 
L 242.500909 59.692516 
L 243.769091 52.154182 
L 245.037273 67.377036 
L 247.573636 56.051108 
L 251.378182 61.949798 
L 252.646364 59.92394 
L 253.914545 59.51873 
L 255.182727 64.820993 
L 256.450909 63.977132 
L 261.523636 78.592349 
L 262.791818 83.208655 
L 264.06 90.543219 
L 265.328182 100.61899 
L 269.132727 98.674172 
L 270.400909 95.715421 
L 271.669091 98.021002 
L 272.937273 104.590885 
L 274.205455 91.577441 
L 278.01 77.944644 
L 279.278182 71.91705 
L 280.546364 60.731092 
L 281.814545 77.976447 
L 283.082727 75.471236 
L 286.887273 82.530345 
L 288.155455 82.154714 
L 289.423636 71.607888 
L 291.96 98.179156 
L 295.764545 103.457046 
L 297.032727 95.740357 
L 298.300909 98.98976 
L 299.569091 112.223943 
L 300.837273 115.901593 
L 305.91 121.615093 
L 307.178182 131.463117 
L 308.446364 119.354511 
L 309.714545 102.540279 
L 313.519091 106.551756 
L 314.787273 122.878709 
L 316.055455 112.194906 
L 317.323636 114.756108 
L 318.591818 117.596398 
L 322.396364 144.442629 
L 323.664545 144.502882 
L 324.932727 121.97904 
L 326.200909 131.585528 
L 327.469091 139.995674 
L 331.273636 140.333197 
L 332.541818 129.661515 
L 333.81 112.178658 
L 335.078182 104.928383 
L 336.346364 95.11696 
L 340.150909 93.359724 
L 341.419091 81.252971 
L 342.687273 88.089388 
L 343.955455 80.30317 
L 345.223636 70.697845 
L 349.028182 71.10347 
L 350.296364 65.379037 
L 351.564545 65.898476 
L 352.832727 80.425125 
L 354.100909 73.242059 
L 357.905455 64.574512 
L 359.173636 71.552426 
L 360.441818 83.892786 
L 361.71 84.16652 
L 362.978182 83.970593 
L 366.782727 93.137957 
L 368.050909 95.799263 
L 369.319091 91.129514 
L 370.587273 102.666737 
L 375.66 100.952505 
L 376.928182 88.472191 
L 378.196364 83.581865 
L 379.464545 92.415584 
L 380.732727 110.511011 
L 384.537273 108.376133 
L 385.805455 127.37001 
L 387.073636 131.545773 
L 388.341818 102.2933 
L 389.61 123.390142 
L 393.414545 111.432347 
L 394.682727 105.084014 
L 395.950909 75.23741 
L 397.219091 100.127755 
L 398.487273 98.864252 
L 398.487273 98.864252 
" style="fill:none;stroke:#0d0d0d;stroke-linecap:square;stroke-opacity:0.25;stroke-width:2;"/>
   </g>
   <g id="patch_3">
    <path d="M 57.6 276.48 
L 57.6 41.472 
" style="fill:none;stroke:#000000;stroke-linecap:square;stroke-linejoin:miter;stroke-width:0.8;"/>
   </g>
   <g id="patch_4">
    <path d="M 414.72 276.48 
L 414.72 41.472 
" style="fill:none;stroke:#000000;stroke-linecap:square;stroke-linejoin:miter;stroke-width:0.8;"/>
   </g>
   <g id="patch_5">
    <path d="M 57.6 276.48 
L 414.72 276.48 
" style="fill:none;stroke:#000000;stroke-linecap:square;stroke-linejoin:miter;stroke-width:0.8;"/>
   </g>
   <g id="patch_6">
    <path d="M 57.6 41.472 
L 414.72 41.472 
" style="fill:none;stroke:#000000;stroke-linecap:square;stroke-linejoin:miter;stroke-width:0.8;"/>
   </g>
   <g id="text_19">
    <!-- TESTFUNDS0830 -->
    <g transform="translate(185.200312 22.034625)scale(0.12 -0.12)">
     <defs>
      <path d="M -19 4666 
L 3928 4666 
L 3928 4134 
L 2272 4134 
L 2272 0 
L 1638 0 
L 1638 4134 
L -19 4134 
L -19 4666 
z
" id="DejaVuSans-54" transform="scale(0.015625)"/>
      <path d="M 628 4666 
L 3578 4666 
L 3578 4134 
L 1259 4134 
L 1259 2753 
L 3481 2753 
L 3481 2222 
L 1259 2222 
L 1259 531 
L 3634 531 
L 3634 0 
L 628 0 
L 628 4666 
z
" id="DejaVuSans-45" transform="scale(0.015625)"/>
      <path d="M 3425 4513 
L 3425 3897 
Q 3066 4069 2747 4153 
Q 2428 4238 2131 4238 
Q 1616 4238 1336 4038 
Q 1056 3838 1056 3469 
Q 1056 3159 1242 3001 
Q 1428 2844 1947 2747 
L 2328 2669 
Q 3034 2534 3370 2195 
Q 3706 1856 3706 1288 
Q 3706 609 3251 259 
Q 2797 -91 1919 -91 
Q 1588 -91 1214 -16 
Q 841 59 441 206 
L 441 856 
Q 825 641 1194 531 
Q 1563 422 1919 422 
Q 2459 422 2753 634 
Q 3047 847 3047 1241 
Q 3047 1584 2836 1778 
Q 2625 1972 2144 2069 
L 1759 2144 
Q 1053 2284 737 2584 
Q 422 2884 422 3419 
Q 422 4038 858 4394 
Q 1294 4750 2059 4750 
Q 2388 4750 2728 4690 
Q 3069 4631 3425 4513 
z
" id="DejaVuSans-53" transform="scale(0.015625)"/>
      <path d="M 628 4666 
L 3309 4666 
L 3309 4134 
L 1259 4134 
L 1259 2759 
L 3109 2759 
L 3109 2228 
L 1259 2228 
L 1259 0 
L 628 0 
L 628 4666 
z
" id="DejaVuSans-46" transform="scale(0.015625)"/>
      <path d="M 556 4666 
L 1191 4666 
L 1191 1831 
Q 1191 1081 1462 751 
Q 1734 422 2344 422 
Q 2950 422 3222 751 
Q 3494 1081 3494 1831 
L 3494 4666 
L 4128 4666 
L 4128 1753 
Q 4128 841 3676 375 
Q 3225 -91 2344 -91 
Q 1459 -91 1007 375 
Q 556 841 556 1753 
L 556 4666 
z
" id="DejaVuSans-55" transform="scale(0.015625)"/>
      <path d="M 628 4666 
L 1478 4666 
L 3547 763 
L 3547 4666 
L 4159 4666 
L 4159 0 
L 3309 0 
L 1241 3903 
L 1241 0 
L 628 0 
L 628 4666 
z
" id="DejaVuSans-4e" transform="scale(0.015625)"/>
      <path d="M 1259 4147 
L 1259 519 
L 2022 519 
Q 2988 519 3436 956 
Q 3884 1394 3884 2338 
Q 3884 3275 3436 3711 
Q 2988 4147 2022 4147 
L 1259 4147 
z
M 628 4666 
L 1925 4666 
Q 3281 4666 3915 4102 
Q 4550 3538 4550 2338 
Q 4550 1131 3912 565 
Q 3275 0 1925 0 
L 628 0 
L 628 4666 
z
" id="DejaVuSans-44" transform="scale(0.015625)"/>
     </defs>
     <use xlink:href="#DejaVuSans-54"/>
     <use x="61.083984" xlink:href="#DejaVuSans-45"/>
     <use x="124.267578" xlink:href="#DejaVuSans-53"/>
     <use x="187.744141" xlink:href="#DejaVuSans-54"/>
     <use x="248.828125" xlink:href="#DejaVuSans-46"/>
     <use x="306.347656" xlink:href="#DejaVuSans-55"/>
     <use x="379.541016" xlink:href="#DejaVuSans-4e"/>
     <use x="454.345703" xlink:href="#DejaVuSans-44"/>
     <use x="531.347656" xlink:href="#DejaVuSans-53"/>
     <use x="594.824219" xlink:href="#DejaVuSans-30"/>
     <use x="658.447266" xlink:href="#DejaVuSans-38"/>
     <use x="722.070312" xlink:href="#DejaVuSans-33"/>
     <use x="785.693359" xlink:href="#DejaVuSans-30"/>
    </g>
    <!-- daily_report -->
    <g transform="translate(200.466563 35.472)scale(0.12 -0.12)">
     <defs>
      <path d="M 603 3500 
L 1178 3500 
L 1178 0 
L 603 0 
L 603 3500 
z
M 603 4863 
L 1178 4863 
L 1178 4134 
L 603 4134 
L 603 4863 
z
" id="DejaVuSans-69" transform="scale(0.015625)"/>
      <path d="M 603 4863 
L 1178 4863 
L 1178 0 
L 603 0 
L 603 4863 
z
" id="DejaVuSans-6c" transform="scale(0.015625)"/>
      <path d="M 2059 -325 
Q 1816 -950 1584 -1140 
Q 1353 -1331 966 -1331 
L 506 -1331 
L 506 -850 
L 844 -850 
Q 1081 -850 1212 -737 
Q 1344 -625 1503 -206 
L 1606 56 
L 191 3500 
L 800 3500 
L 1894 763 
L 2988 3500 
L 3597 3500 
L 2059 -325 
z
" id="DejaVuSans-79" transform="scale(0.015625)"/>
      <path d="M 3263 -1063 
L 3263 -1509 
L -63 -1509 
L -63 -1063 
L 3263 -1063 
z
" id="DejaVuSans-5f" transform="scale(0.015625)"/>
      <path d="M 2631 2963 
Q 2534 3019 2420 3045 
Q 2306 3072 2169 3072 
Q 1681 3072 1420 2755 
Q 1159 2438 1159 1844 
L 1159 0 
L 581 0 
L 581 3500 
L 1159 3500 
L 1159 2956 
Q 1341 3275 1631 3429 
Q 1922 3584 2338 3584 
Q 2397 3584 2469 3576 
Q 2541 3569 2628 3553 
L 2631 2963 
z
" id="DejaVuSans-72" transform="scale(0.015625)"/>
      <path d="M 1159 525 
L 1159 -1331 
L 581 -1331 
L 581 3500 
L 1159 3500 
L 1159 2969 
Q 1341 3281 1617 3432 
Q 1894 3584 2278 3584 
Q 2916 3584 3314 3078 
Q 3713 2572 3713 1747 
Q 3713 922 3314 415 
Q 2916 -91 2278 -91 
Q 1894 -91 1617 61 
Q 1341 213 1159 525 
z
M 3116 1747 
Q 3116 2381 2855 2742 
Q 2594 3103 2138 3103 
Q 1681 3103 1420 2742 
Q 1159 2381 1159 1747 
Q 1159 1113 1420 752 
Q 1681 391 2138 391 
Q 2594 391 2855 752 
Q 3116 1113 3116 1747 
z
" id="DejaVuSans-70" transform="scale(0.015625)"/>
      <path d="M 1959 3097 
Q 1497 3097 1228 2736 
Q 959 2375 959 1747 
Q 959 1119 1226 758 
Q 1494 397 1959 397 
Q 2419 397 2687 759 
Q 2956 1122 2956 1747 
Q 2956 2369 2687 2733 
Q 2419 3097 1959 3097 
z
M 1959 3584 
Q 2709 3584 3137 3096 
Q 3566 2609 3566 1747 
Q 3566 888 3137 398 
Q 2709 -91 1959 -91 
Q 1206 -91 779 398 
Q 353 888 353 1747 
Q 353 2609 779 3096 
Q 1206 3584 1959 3584 
z
" id="DejaVuSans-6f" transform="scale(0.015625)"/>
     </defs>
     <use xlink:href="#DejaVuSans-64"/>
     <use x="63.476562" xlink:href="#DejaVuSans-61"/>
     <use x="124.755859" xlink:href="#DejaVuSans-69"/>
     <use x="152.539062" xlink:href="#DejaVuSans-6c"/>
     <use x="180.322266" xlink:href="#DejaVuSans-79"/>
     <use x="239.501953" xlink:href="#DejaVuSans-5f"/>
     <use x="289.501953" xlink:href="#DejaVuSans-72"/>
     <use x="328.365234" xlink:href="#DejaVuSans-65"/>
     <use x="389.888672" xlink:href="#DejaVuSans-70"/>
     <use x="453.365234" xlink:href="#DejaVuSans-6f"/>
     <use x="514.546875" xlink:href="#DejaVuSans-72"/>
     <use x="555.660156" xlink:href="#DejaVuSans-74"/>
    </g>
   </g>
   <g id="legend_1">
    <g id="patch_7">
     <path d="M 64.6 271.48 
L 155.792188 271.48 
Q 157.792188 271.48 157.792188 269.48 
L 157.792188 197.089375 
Q 157.792188 195.089375 155.792188 195.089375 
L 64.6 195.089375 
Q 62.6 195.089375 62.6 197.089375 
L 62.6 269.48 
Q 62.6 271.48 64.6 271.48 
z
" style="fill:#ffffff;opacity:0.8;stroke:#cccccc;stroke-linejoin:miter;"/>
    </g>
    <g id="line2d_23">
     <path d="M 66.6 203.187812 
L 86.6 203.187812 
" style="fill:none;stroke:#0000ff;stroke-linecap:square;stroke-opacity:0.9;stroke-width:2;"/>
    </g>
    <g id="line2d_24"/>
    <g id="text_20">
     <!-- alpaca -->
     <g transform="translate(94.6 206.687812)scale(0.1 -0.1)">
      <defs>
       <path d="M 3122 3366 
L 3122 2828 
Q 2878 2963 2633 3030 
Q 2388 3097 2138 3097 
Q 1578 3097 1268 2742 
Q 959 2388 959 1747 
Q 959 1106 1268 751 
Q 1578 397 2138 397 
Q 2388 397 2633 464 
Q 2878 531 3122 666 
L 3122 134 
Q 2881 22 2623 -34 
Q 2366 -91 2075 -91 
Q 1284 -91 818 406 
Q 353 903 353 1747 
Q 353 2603 823 3093 
Q 1294 3584 2113 3584 
Q 2378 3584 2631 3529 
Q 2884 3475 3122 3366 
z
" id="DejaVuSans-63" transform="scale(0.015625)"/>
      </defs>
      <use xlink:href="#DejaVuSans-61"/>
      <use x="61.279297" xlink:href="#DejaVuSans-6c"/>
      <use x="89.0625" xlink:href="#DejaVuSans-70"/>
      <use x="152.539062" xlink:href="#DejaVuSans-61"/>
      <use x="213.818359" xlink:href="#DejaVuSans-63"/>
      <use x="268.798828" xlink:href="#DejaVuSans-61"/>
     </g>
    </g>
    <g id="line2d_25">
     <path d="M 66.6 217.865937 
L 86.6 217.865937 
" style="fill:none;stroke:#ff0000;stroke-linecap:square;stroke-opacity:0.9;stroke-width:2;"/>
    </g>
    <g id="line2d_26"/>
    <g id="text_21">
     <!-- mattress -->
     <g transform="translate(94.6 221.365937)scale(0.1 -0.1)">
      <defs>
       <path d="M 3328 2828 
Q 3544 3216 3844 3400 
Q 4144 3584 4550 3584 
Q 5097 3584 5394 3201 
Q 5691 2819 5691 2113 
L 5691 0 
L 5113 0 
L 5113 2094 
Q 5113 2597 4934 2840 
Q 4756 3084 4391 3084 
Q 3944 3084 3684 2787 
Q 3425 2491 3425 1978 
L 3425 0 
L 2847 0 
L 2847 2094 
Q 2847 2600 2669 2842 
Q 2491 3084 2119 3084 
Q 1678 3084 1418 2786 
Q 1159 2488 1159 1978 
L 1159 0 
L 581 0 
L 581 3500 
L 1159 3500 
L 1159 2956 
Q 1356 3278 1631 3431 
Q 1906 3584 2284 3584 
Q 2666 3584 2933 3390 
Q 3200 3197 3328 2828 
z
" id="DejaVuSans-6d" transform="scale(0.015625)"/>
       <path d="M 2834 3397 
L 2834 2853 
Q 2591 2978 2328 3040 
Q 2066 3103 1784 3103 
Q 1356 3103 1142 2972 
Q 928 2841 928 2578 
Q 928 2378 1081 2264 
Q 1234 2150 1697 2047 
L 1894 2003 
Q 2506 1872 2764 1633 
Q 3022 1394 3022 966 
Q 3022 478 2636 193 
Q 2250 -91 1575 -91 
Q 1294 -91 989 -36 
Q 684 19 347 128 
L 347 722 
Q 666 556 975 473 
Q 1284 391 1588 391 
Q 1994 391 2212 530 
Q 2431 669 2431 922 
Q 2431 1156 2273 1281 
Q 2116 1406 1581 1522 
L 1381 1569 
Q 847 1681 609 1914 
Q 372 2147 372 2553 
Q 372 3047 722 3315 
Q 1072 3584 1716 3584 
Q 2034 3584 2315 3537 
Q 2597 3491 2834 3397 
z
" id="DejaVuSans-73" transform="scale(0.015625)"/>
      </defs>
      <use xlink:href="#DejaVuSans-6d"/>
      <use x="97.412109" xlink:href="#DejaVuSans-61"/>
      <use x="158.691406" xlink:href="#DejaVuSans-74"/>
      <use x="197.900391" xlink:href="#DejaVuSans-74"/>
      <use x="237.109375" xlink:href="#DejaVuSans-72"/>
      <use x="275.972656" xlink:href="#DejaVuSans-65"/>
      <use x="337.496094" xlink:href="#DejaVuSans-73"/>
      <use x="389.595703" xlink:href="#DejaVuSans-73"/>
     </g>
    </g>
    <g id="line2d_27">
     <path d="M 66.6 232.544062 
L 86.6 232.544062 
" style="fill:none;stroke:#ff8040;stroke-linecap:square;stroke-opacity:0.9;stroke-width:2;"/>
    </g>
    <g id="line2d_28"/>
    <g id="text_22">
     <!-- trader-0850 -->
     <g transform="translate(94.6 236.044062)scale(0.1 -0.1)">
      <use xlink:href="#DejaVuSans-74"/>
      <use x="39.208984" xlink:href="#DejaVuSans-72"/>
      <use x="80.322266" xlink:href="#DejaVuSans-61"/>
      <use x="141.601562" xlink:href="#DejaVuSans-64"/>
      <use x="205.078125" xlink:href="#DejaVuSans-65"/>
      <use x="266.601562" xlink:href="#DejaVuSans-72"/>
      <use x="301.339844" xlink:href="#DejaVuSans-2d"/>
      <use x="337.423828" xlink:href="#DejaVuSans-30"/>
      <use x="401.046875" xlink:href="#DejaVuSans-38"/>
      <use x="464.669922" xlink:href="#DejaVuSans-35"/>
      <use x="528.292969" xlink:href="#DejaVuSans-30"/>
     </g>
    </g>
    <g id="line2d_29">
     <path d="M 66.6 247.222187 
L 86.6 247.222187 
" style="fill:none;stroke:#0d0d0d;stroke-linecap:square;stroke-opacity:0.25;stroke-width:2;"/>
    </g>
    <g id="line2d_30"/>
    <g id="text_23">
     <!-- rando-min -->
     <g transform="translate(94.6 250.722187)scale(0.1 -0.1)">
      <defs>
       <path d="M 3513 2113 
L 3513 0 
L 2938 0 
L 2938 2094 
Q 2938 2591 2744 2837 
Q 2550 3084 2163 3084 
Q 1697 3084 1428 2787 
Q 1159 2491 1159 1978 
L 1159 0 
L 581 0 
L 581 3500 
L 1159 3500 
L 1159 2956 
Q 1366 3272 1645 3428 
Q 1925 3584 2291 3584 
Q 2894 3584 3203 3211 
Q 3513 2838 3513 2113 
z
" id="DejaVuSans-6e" transform="scale(0.015625)"/>
      </defs>
      <use xlink:href="#DejaVuSans-72"/>
      <use x="41.113281" xlink:href="#DejaVuSans-61"/>
      <use x="102.392578" xlink:href="#DejaVuSans-6e"/>
      <use x="165.771484" xlink:href="#DejaVuSans-64"/>
      <use x="229.248047" xlink:href="#DejaVuSans-6f"/>
      <use x="292.304688" xlink:href="#DejaVuSans-2d"/>
      <use x="328.388672" xlink:href="#DejaVuSans-6d"/>
      <use x="425.800781" xlink:href="#DejaVuSans-69"/>
      <use x="453.583984" xlink:href="#DejaVuSans-6e"/>
     </g>
    </g>
    <g id="line2d_31">
     <path d="M 66.6 261.900312 
L 86.6 261.900312 
" style="fill:none;stroke:#0d0d0d;stroke-linecap:square;stroke-opacity:0.25;stroke-width:2;"/>
    </g>
    <g id="line2d_32"/>
    <g id="text_24">
     <!-- rando-max -->
     <g transform="translate(94.6 265.400312)scale(0.1 -0.1)">
      <defs>
       <path d="M 3513 3500 
L 2247 1797 
L 3578 0 
L 2900 0 
L 1881 1375 
L 863 0 
L 184 0 
L 1544 1831 
L 300 3500 
L 978 3500 
L 1906 2253 
L 2834 3500 
L 3513 3500 
z
" id="DejaVuSans-78" transform="scale(0.015625)"/>
      </defs>
      <use xlink:href="#DejaVuSans-72"/>
      <use x="41.113281" xlink:href="#DejaVuSans-61"/>
      <use x="102.392578" xlink:href="#DejaVuSans-6e"/>
      <use x="165.771484" xlink:href="#DejaVuSans-64"/>
      <use x="229.248047" xlink:href="#DejaVuSans-6f"/>
      <use x="292.304688" xlink:href="#DejaVuSans-2d"/>
      <use x="328.388672" xlink:href="#DejaVuSans-6d"/>
      <use x="425.800781" xlink:href="#DejaVuSans-61"/>
      <use x="487.080078" xlink:href="#DejaVuSans-78"/>
     </g>
    </g>
   </g>
  </g>
 </g>
 <defs>
  <clipPath id="p574e229b5c">
   <rect height="235.008" width="357.12" x="57.6" y="41.472"/>
  </clipPath>
 </defs>
</svg>
