<?xml version="1.0" encoding="utf-8" standalone="no"?>
<!DOCTYPE svg PUBLIC "-//W3C//DTD SVG 1.1//EN"
  "http://www.w3.org/Graphics/SVG/1.1/DTD/svg11.dtd">
<svg height="345.6pt" version="1.1" viewBox="0 0 460.8 345.6" width="460.8pt" xmlns="http://www.w3.org/2000/svg" xmlns:xlink="http://www.w3.org/1999/xlink">
 <metadata>
  <rdf:RDF xmlns:cc="http://creativecommons.org/ns#" xmlns:dc="http://purl.org/dc/elements/1.1/" xmlns:rdf="http://www.w3.org/1999/02/22-rdf-syntax-ns#">
   <cc:Work>
    <dc:type rdf:resource="http://purl.org/dc/dcmitype/StillImage"/>
    <dc:date>2022-05-24T10:01:34.799074</dc:date>
    <dc:format>image/svg+xml</dc:format>
    <dc:creator>
     <cc:Agent>
      <dc:title>Matplotlib v3.4.3, https://matplotlib.org/</dc:title>
     </cc:Agent>
    </dc:creator>
   </cc:Work>
  </rdf:RDF>
 </metadata>
 <defs>
  <style type="text/css">*{stroke-linecap:butt;stroke-linejoin:round;}</style>
 </defs>
 <g id="figure_1">
  <g id="patch_1">
   <path d="M 0 345.6 
L 460.8 345.6 
L 460.8 0 
L 0 0 
z
" style="fill:#ffffff;"/>
  </g>
  <g id="axes_1">
   <g id="patch_2">
    <path d="M 57.6 276.48 
L 414.72 276.48 
L 414.72 41.472 
L 57.6 41.472 
z
" style="fill:#ffffff;"/>
   </g>
   <g id="matplotlib.axis_1">
    <g id="xtick_1">
     <g id="line2d_1">
      <defs>
       <path d="M 0 0 
L 0 3.5 
" id="m61bbc437ca" style="stroke:#000000;stroke-width:0.8;"/>
      </defs>
      <g>
       <use style="stroke:#000000;stroke-width:0.8;" x="96.523636" xlink:href="#m61bbc437ca" y="276.48"/>
      </g>
     </g>
     <g id="text_1">
      <!-- 2021-12 -->
      <g transform="translate(59.298816 310.951846)rotate(-30)scale(0.1 -0.1)">
       <defs>
        <path d="M 1228 531 
L 3431 531 
L 3431 0 
L 469 0 
L 469 531 
Q 828 903 1448 1529 
Q 2069 2156 2228 2338 
Q 2531 2678 2651 2914 
Q 2772 3150 2772 3378 
Q 2772 3750 2511 3984 
Q 2250 4219 1831 4219 
Q 1534 4219 1204 4116 
Q 875 4013 500 3803 
L 500 4441 
Q 881 4594 1212 4672 
Q 1544 4750 1819 4750 
Q 2544 4750 2975 4387 
Q 3406 4025 3406 3419 
Q 3406 3131 3298 2873 
Q 3191 2616 2906 2266 
Q 2828 2175 2409 1742 
Q 1991 1309 1228 531 
z
" id="DejaVuSans-32" transform="scale(0.015625)"/>
        <path d="M 2034 4250 
Q 1547 4250 1301 3770 
Q 1056 3291 1056 2328 
Q 1056 1369 1301 889 
Q 1547 409 2034 409 
Q 2525 409 2770 889 
Q 3016 1369 3016 2328 
Q 3016 3291 2770 3770 
Q 2525 4250 2034 4250 
z
M 2034 4750 
Q 2819 4750 3233 4129 
Q 3647 3509 3647 2328 
Q 3647 1150 3233 529 
Q 2819 -91 2034 -91 
Q 1250 -91 836 529 
Q 422 1150 422 2328 
Q 422 3509 836 4129 
Q 1250 4750 2034 4750 
z
" id="DejaVuSans-30" transform="scale(0.015625)"/>
        <path d="M 794 531 
L 1825 531 
L 1825 4091 
L 703 3866 
L 703 4441 
L 1819 4666 
L 2450 4666 
L 2450 531 
L 3481 531 
L 3481 0 
L 794 0 
L 794 531 
z
" id="DejaVuSans-31" transform="scale(0.015625)"/>
        <path d="M 313 2009 
L 1997 2009 
L 1997 1497 
L 313 1497 
L 313 2009 
z
" id="DejaVuSans-2d" transform="scale(0.015625)"/>
       </defs>
       <use xlink:href="#DejaVuSans-32"/>
       <use x="63.623047" xlink:href="#DejaVuSans-30"/>
       <use x="127.246094" xlink:href="#DejaVuSans-32"/>
       <use x="190.869141" xlink:href="#DejaVuSans-31"/>
       <use x="254.492188" xlink:href="#DejaVuSans-2d"/>
       <use x="290.576172" xlink:href="#DejaVuSans-31"/>
       <use x="354.199219" xlink:href="#DejaVuSans-32"/>
      </g>
     </g>
    </g>
    <g id="xtick_2">
     <g id="line2d_2">
      <g>
       <use style="stroke:#000000;stroke-width:0.8;" x="150.632727" xlink:href="#m61bbc437ca" y="276.48"/>
      </g>
     </g>
     <g id="text_2">
      <!-- 2022-01 -->
      <g transform="translate(113.407906 310.951846)rotate(-30)scale(0.1 -0.1)">
       <use xlink:href="#DejaVuSans-32"/>
       <use x="63.623047" xlink:href="#DejaVuSans-30"/>
       <use x="127.246094" xlink:href="#DejaVuSans-32"/>
       <use x="190.869141" xlink:href="#DejaVuSans-32"/>
       <use x="254.492188" xlink:href="#DejaVuSans-2d"/>
       <use x="290.576172" xlink:href="#DejaVuSans-30"/>
       <use x="354.199219" xlink:href="#DejaVuSans-31"/>
      </g>
     </g>
    </g>
    <g id="xtick_3">
     <g id="line2d_3">
      <g>
       <use style="stroke:#000000;stroke-width:0.8;" x="204.741818" xlink:href="#m61bbc437ca" y="276.48"/>
      </g>
     </g>
     <g id="text_3">
      <!-- 2022-02 -->
      <g transform="translate(167.516997 310.951846)rotate(-30)scale(0.1 -0.1)">
       <use xlink:href="#DejaVuSans-32"/>
       <use x="63.623047" xlink:href="#DejaVuSans-30"/>
       <use x="127.246094" xlink:href="#DejaVuSans-32"/>
       <use x="190.869141" xlink:href="#DejaVuSans-32"/>
       <use x="254.492188" xlink:href="#DejaVuSans-2d"/>
       <use x="290.576172" xlink:href="#DejaVuSans-30"/>
       <use x="354.199219" xlink:href="#DejaVuSans-32"/>
      </g>
     </g>
    </g>
    <g id="xtick_4">
     <g id="line2d_4">
      <g>
       <use style="stroke:#000000;stroke-width:0.8;" x="253.614545" xlink:href="#m61bbc437ca" y="276.48"/>
      </g>
     </g>
     <g id="text_4">
      <!-- 2022-03 -->
      <g transform="translate(216.389725 310.951846)rotate(-30)scale(0.1 -0.1)">
       <defs>
        <path d="M 2597 2516 
Q 3050 2419 3304 2112 
Q 3559 1806 3559 1356 
Q 3559 666 3084 287 
Q 2609 -91 1734 -91 
Q 1441 -91 1130 -33 
Q 819 25 488 141 
L 488 750 
Q 750 597 1062 519 
Q 1375 441 1716 441 
Q 2309 441 2620 675 
Q 2931 909 2931 1356 
Q 2931 1769 2642 2001 
Q 2353 2234 1838 2234 
L 1294 2234 
L 1294 2753 
L 1863 2753 
Q 2328 2753 2575 2939 
Q 2822 3125 2822 3475 
Q 2822 3834 2567 4026 
Q 2313 4219 1838 4219 
Q 1578 4219 1281 4162 
Q 984 4106 628 3988 
L 628 4550 
Q 988 4650 1302 4700 
Q 1616 4750 1894 4750 
Q 2613 4750 3031 4423 
Q 3450 4097 3450 3541 
Q 3450 3153 3228 2886 
Q 3006 2619 2597 2516 
z
" id="DejaVuSans-33" transform="scale(0.015625)"/>
       </defs>
       <use xlink:href="#DejaVuSans-32"/>
       <use x="63.623047" xlink:href="#DejaVuSans-30"/>
       <use x="127.246094" xlink:href="#DejaVuSans-32"/>
       <use x="190.869141" xlink:href="#DejaVuSans-32"/>
       <use x="254.492188" xlink:href="#DejaVuSans-2d"/>
       <use x="290.576172" xlink:href="#DejaVuSans-30"/>
       <use x="354.199219" xlink:href="#DejaVuSans-33"/>
      </g>
     </g>
    </g>
    <g id="xtick_5">
     <g id="line2d_5">
      <g>
       <use style="stroke:#000000;stroke-width:0.8;" x="307.723636" xlink:href="#m61bbc437ca" y="276.48"/>
      </g>
     </g>
     <g id="text_5">
      <!-- 2022-04 -->
      <g transform="translate(270.498816 310.951846)rotate(-30)scale(0.1 -0.1)">
       <defs>
        <path d="M 2419 4116 
L 825 1625 
L 2419 1625 
L 2419 4116 
z
M 2253 4666 
L 3047 4666 
L 3047 1625 
L 3713 1625 
L 3713 1100 
L 3047 1100 
L 3047 0 
L 2419 0 
L 2419 1100 
L 313 1100 
L 313 1709 
L 2253 4666 
z
" id="DejaVuSans-34" transform="scale(0.015625)"/>
       </defs>
       <use xlink:href="#DejaVuSans-32"/>
       <use x="63.623047" xlink:href="#DejaVuSans-30"/>
       <use x="127.246094" xlink:href="#DejaVuSans-32"/>
       <use x="190.869141" xlink:href="#DejaVuSans-32"/>
       <use x="254.492188" xlink:href="#DejaVuSans-2d"/>
       <use x="290.576172" xlink:href="#DejaVuSans-30"/>
       <use x="354.199219" xlink:href="#DejaVuSans-34"/>
      </g>
     </g>
    </g>
    <g id="xtick_6">
     <g id="line2d_6">
      <g>
       <use style="stroke:#000000;stroke-width:0.8;" x="360.087273" xlink:href="#m61bbc437ca" y="276.48"/>
      </g>
     </g>
     <g id="text_6">
      <!-- 2022-05 -->
      <g transform="translate(322.862452 310.951846)rotate(-30)scale(0.1 -0.1)">
       <defs>
        <path d="M 691 4666 
L 3169 4666 
L 3169 4134 
L 1269 4134 
L 1269 2991 
Q 1406 3038 1543 3061 
Q 1681 3084 1819 3084 
Q 2600 3084 3056 2656 
Q 3513 2228 3513 1497 
Q 3513 744 3044 326 
Q 2575 -91 1722 -91 
Q 1428 -91 1123 -41 
Q 819 9 494 109 
L 494 744 
Q 775 591 1075 516 
Q 1375 441 1709 441 
Q 2250 441 2565 725 
Q 2881 1009 2881 1497 
Q 2881 1984 2565 2268 
Q 2250 2553 1709 2553 
Q 1456 2553 1204 2497 
Q 953 2441 691 2322 
L 691 4666 
z
" id="DejaVuSans-35" transform="scale(0.015625)"/>
       </defs>
       <use xlink:href="#DejaVuSans-32"/>
       <use x="63.623047" xlink:href="#DejaVuSans-30"/>
       <use x="127.246094" xlink:href="#DejaVuSans-32"/>
       <use x="190.869141" xlink:href="#DejaVuSans-32"/>
       <use x="254.492188" xlink:href="#DejaVuSans-2d"/>
       <use x="290.576172" xlink:href="#DejaVuSans-30"/>
       <use x="354.199219" xlink:href="#DejaVuSans-35"/>
      </g>
     </g>
    </g>
    <g id="xtick_7">
     <g id="line2d_7">
      <g>
       <use style="stroke:#000000;stroke-width:0.8;" x="414.196364" xlink:href="#m61bbc437ca" y="276.48"/>
      </g>
     </g>
     <g id="text_7">
      <!-- 2022-06 -->
      <g transform="translate(376.971543 310.951846)rotate(-30)scale(0.1 -0.1)">
       <defs>
        <path d="M 2113 2584 
Q 1688 2584 1439 2293 
Q 1191 2003 1191 1497 
Q 1191 994 1439 701 
Q 1688 409 2113 409 
Q 2538 409 2786 701 
Q 3034 994 3034 1497 
Q 3034 2003 2786 2293 
Q 2538 2584 2113 2584 
z
M 3366 4563 
L 3366 3988 
Q 3128 4100 2886 4159 
Q 2644 4219 2406 4219 
Q 1781 4219 1451 3797 
Q 1122 3375 1075 2522 
Q 1259 2794 1537 2939 
Q 1816 3084 2150 3084 
Q 2853 3084 3261 2657 
Q 3669 2231 3669 1497 
Q 3669 778 3244 343 
Q 2819 -91 2113 -91 
Q 1303 -91 875 529 
Q 447 1150 447 2328 
Q 447 3434 972 4092 
Q 1497 4750 2381 4750 
Q 2619 4750 2861 4703 
Q 3103 4656 3366 4563 
z
" id="DejaVuSans-36" transform="scale(0.015625)"/>
       </defs>
       <use xlink:href="#DejaVuSans-32"/>
       <use x="63.623047" xlink:href="#DejaVuSans-30"/>
       <use x="127.246094" xlink:href="#DejaVuSans-32"/>
       <use x="190.869141" xlink:href="#DejaVuSans-32"/>
       <use x="254.492188" xlink:href="#DejaVuSans-2d"/>
       <use x="290.576172" xlink:href="#DejaVuSans-30"/>
       <use x="354.199219" xlink:href="#DejaVuSans-36"/>
      </g>
     </g>
    </g>
    <g id="text_8">
     <!-- date -->
     <g transform="translate(224.885 324.351346)scale(0.1 -0.1)">
      <defs>
       <path d="M 2906 2969 
L 2906 4863 
L 3481 4863 
L 3481 0 
L 2906 0 
L 2906 525 
Q 2725 213 2448 61 
Q 2172 -91 1784 -91 
Q 1150 -91 751 415 
Q 353 922 353 1747 
Q 353 2572 751 3078 
Q 1150 3584 1784 3584 
Q 2172 3584 2448 3432 
Q 2725 3281 2906 2969 
z
M 947 1747 
Q 947 1113 1208 752 
Q 1469 391 1925 391 
Q 2381 391 2643 752 
Q 2906 1113 2906 1747 
Q 2906 2381 2643 2742 
Q 2381 3103 1925 3103 
Q 1469 3103 1208 2742 
Q 947 2381 947 1747 
z
" id="DejaVuSans-64" transform="scale(0.015625)"/>
       <path d="M 2194 1759 
Q 1497 1759 1228 1600 
Q 959 1441 959 1056 
Q 959 750 1161 570 
Q 1363 391 1709 391 
Q 2188 391 2477 730 
Q 2766 1069 2766 1631 
L 2766 1759 
L 2194 1759 
z
M 3341 1997 
L 3341 0 
L 2766 0 
L 2766 531 
Q 2569 213 2275 61 
Q 1981 -91 1556 -91 
Q 1019 -91 701 211 
Q 384 513 384 1019 
Q 384 1609 779 1909 
Q 1175 2209 1959 2209 
L 2766 2209 
L 2766 2266 
Q 2766 2663 2505 2880 
Q 2244 3097 1772 3097 
Q 1472 3097 1187 3025 
Q 903 2953 641 2809 
L 641 3341 
Q 956 3463 1253 3523 
Q 1550 3584 1831 3584 
Q 2591 3584 2966 3190 
Q 3341 2797 3341 1997 
z
" id="DejaVuSans-61" transform="scale(0.015625)"/>
       <path d="M 1172 4494 
L 1172 3500 
L 2356 3500 
L 2356 3053 
L 1172 3053 
L 1172 1153 
Q 1172 725 1289 603 
Q 1406 481 1766 481 
L 2356 481 
L 2356 0 
L 1766 0 
Q 1100 0 847 248 
Q 594 497 594 1153 
L 594 3053 
L 172 3053 
L 172 3500 
L 594 3500 
L 594 4494 
L 1172 4494 
z
" id="DejaVuSans-74" transform="scale(0.015625)"/>
       <path d="M 3597 1894 
L 3597 1613 
L 953 1613 
Q 991 1019 1311 708 
Q 1631 397 2203 397 
Q 2534 397 2845 478 
Q 3156 559 3463 722 
L 3463 178 
Q 3153 47 2828 -22 
Q 2503 -91 2169 -91 
Q 1331 -91 842 396 
Q 353 884 353 1716 
Q 353 2575 817 3079 
Q 1281 3584 2069 3584 
Q 2775 3584 3186 3129 
Q 3597 2675 3597 1894 
z
M 3022 2063 
Q 3016 2534 2758 2815 
Q 2500 3097 2075 3097 
Q 1594 3097 1305 2825 
Q 1016 2553 972 2059 
L 3022 2063 
z
" id="DejaVuSans-65" transform="scale(0.015625)"/>
      </defs>
      <use xlink:href="#DejaVuSans-64"/>
      <use x="63.476562" xlink:href="#DejaVuSans-61"/>
      <use x="124.755859" xlink:href="#DejaVuSans-74"/>
      <use x="163.964844" xlink:href="#DejaVuSans-65"/>
     </g>
    </g>
   </g>
   <g id="matplotlib.axis_2">
    <g id="ytick_1">
     <g id="line2d_8">
      <defs>
       <path d="M 0 0 
L -3.5 0 
" id="m265498c590" style="stroke:#000000;stroke-width:0.8;"/>
      </defs>
      <g>
       <use style="stroke:#000000;stroke-width:0.8;" x="57.6" xlink:href="#m265498c590" y="270.902301"/>
      </g>
     </g>
     <g id="text_9">
      <!-- 82500 -->
      <g transform="translate(18.7875 274.70152)scale(0.1 -0.1)">
       <defs>
        <path d="M 2034 2216 
Q 1584 2216 1326 1975 
Q 1069 1734 1069 1313 
Q 1069 891 1326 650 
Q 1584 409 2034 409 
Q 2484 409 2743 651 
Q 3003 894 3003 1313 
Q 3003 1734 2745 1975 
Q 2488 2216 2034 2216 
z
M 1403 2484 
Q 997 2584 770 2862 
Q 544 3141 544 3541 
Q 544 4100 942 4425 
Q 1341 4750 2034 4750 
Q 2731 4750 3128 4425 
Q 3525 4100 3525 3541 
Q 3525 3141 3298 2862 
Q 3072 2584 2669 2484 
Q 3125 2378 3379 2068 
Q 3634 1759 3634 1313 
Q 3634 634 3220 271 
Q 2806 -91 2034 -91 
Q 1263 -91 848 271 
Q 434 634 434 1313 
Q 434 1759 690 2068 
Q 947 2378 1403 2484 
z
M 1172 3481 
Q 1172 3119 1398 2916 
Q 1625 2713 2034 2713 
Q 2441 2713 2670 2916 
Q 2900 3119 2900 3481 
Q 2900 3844 2670 4047 
Q 2441 4250 2034 4250 
Q 1625 4250 1398 4047 
Q 1172 3844 1172 3481 
z
" id="DejaVuSans-38" transform="scale(0.015625)"/>
       </defs>
       <use xlink:href="#DejaVuSans-38"/>
       <use x="63.623047" xlink:href="#DejaVuSans-32"/>
       <use x="127.246094" xlink:href="#DejaVuSans-35"/>
       <use x="190.869141" xlink:href="#DejaVuSans-30"/>
       <use x="254.492188" xlink:href="#DejaVuSans-30"/>
      </g>
     </g>
    </g>
    <g id="ytick_2">
     <g id="line2d_9">
      <g>
       <use style="stroke:#000000;stroke-width:0.8;" x="57.6" xlink:href="#m265498c590" y="243.159046"/>
      </g>
     </g>
     <g id="text_10">
      <!-- 85000 -->
      <g transform="translate(18.7875 246.958265)scale(0.1 -0.1)">
       <use xlink:href="#DejaVuSans-38"/>
       <use x="63.623047" xlink:href="#DejaVuSans-35"/>
       <use x="127.246094" xlink:href="#DejaVuSans-30"/>
       <use x="190.869141" xlink:href="#DejaVuSans-30"/>
       <use x="254.492188" xlink:href="#DejaVuSans-30"/>
      </g>
     </g>
    </g>
    <g id="ytick_3">
     <g id="line2d_10">
      <g>
       <use style="stroke:#000000;stroke-width:0.8;" x="57.6" xlink:href="#m265498c590" y="215.415791"/>
      </g>
     </g>
     <g id="text_11">
      <!-- 87500 -->
      <g transform="translate(18.7875 219.215009)scale(0.1 -0.1)">
       <defs>
        <path d="M 525 4666 
L 3525 4666 
L 3525 4397 
L 1831 0 
L 1172 0 
L 2766 4134 
L 525 4134 
L 525 4666 
z
" id="DejaVuSans-37" transform="scale(0.015625)"/>
       </defs>
       <use xlink:href="#DejaVuSans-38"/>
       <use x="63.623047" xlink:href="#DejaVuSans-37"/>
       <use x="127.246094" xlink:href="#DejaVuSans-35"/>
       <use x="190.869141" xlink:href="#DejaVuSans-30"/>
       <use x="254.492188" xlink:href="#DejaVuSans-30"/>
      </g>
     </g>
    </g>
    <g id="ytick_4">
     <g id="line2d_11">
      <g>
       <use style="stroke:#000000;stroke-width:0.8;" x="57.6" xlink:href="#m265498c590" y="187.672535"/>
      </g>
     </g>
     <g id="text_12">
      <!-- 90000 -->
      <g transform="translate(18.7875 191.471754)scale(0.1 -0.1)">
       <defs>
        <path d="M 703 97 
L 703 672 
Q 941 559 1184 500 
Q 1428 441 1663 441 
Q 2288 441 2617 861 
Q 2947 1281 2994 2138 
Q 2813 1869 2534 1725 
Q 2256 1581 1919 1581 
Q 1219 1581 811 2004 
Q 403 2428 403 3163 
Q 403 3881 828 4315 
Q 1253 4750 1959 4750 
Q 2769 4750 3195 4129 
Q 3622 3509 3622 2328 
Q 3622 1225 3098 567 
Q 2575 -91 1691 -91 
Q 1453 -91 1209 -44 
Q 966 3 703 97 
z
M 1959 2075 
Q 2384 2075 2632 2365 
Q 2881 2656 2881 3163 
Q 2881 3666 2632 3958 
Q 2384 4250 1959 4250 
Q 1534 4250 1286 3958 
Q 1038 3666 1038 3163 
Q 1038 2656 1286 2365 
Q 1534 2075 1959 2075 
z
" id="DejaVuSans-39" transform="scale(0.015625)"/>
       </defs>
       <use xlink:href="#DejaVuSans-39"/>
       <use x="63.623047" xlink:href="#DejaVuSans-30"/>
       <use x="127.246094" xlink:href="#DejaVuSans-30"/>
       <use x="190.869141" xlink:href="#DejaVuSans-30"/>
       <use x="254.492188" xlink:href="#DejaVuSans-30"/>
      </g>
     </g>
    </g>
    <g id="ytick_5">
     <g id="line2d_12">
      <g>
       <use style="stroke:#000000;stroke-width:0.8;" x="57.6" xlink:href="#m265498c590" y="159.92928"/>
      </g>
     </g>
     <g id="text_13">
      <!-- 92500 -->
      <g transform="translate(18.7875 163.728499)scale(0.1 -0.1)">
       <use xlink:href="#DejaVuSans-39"/>
       <use x="63.623047" xlink:href="#DejaVuSans-32"/>
       <use x="127.246094" xlink:href="#DejaVuSans-35"/>
       <use x="190.869141" xlink:href="#DejaVuSans-30"/>
       <use x="254.492188" xlink:href="#DejaVuSans-30"/>
      </g>
     </g>
    </g>
    <g id="ytick_6">
     <g id="line2d_13">
      <g>
       <use style="stroke:#000000;stroke-width:0.8;" x="57.6" xlink:href="#m265498c590" y="132.186024"/>
      </g>
     </g>
     <g id="text_14">
      <!-- 95000 -->
      <g transform="translate(18.7875 135.985243)scale(0.1 -0.1)">
       <use xlink:href="#DejaVuSans-39"/>
       <use x="63.623047" xlink:href="#DejaVuSans-35"/>
       <use x="127.246094" xlink:href="#DejaVuSans-30"/>
       <use x="190.869141" xlink:href="#DejaVuSans-30"/>
       <use x="254.492188" xlink:href="#DejaVuSans-30"/>
      </g>
     </g>
    </g>
    <g id="ytick_7">
     <g id="line2d_14">
      <g>
       <use style="stroke:#000000;stroke-width:0.8;" x="57.6" xlink:href="#m265498c590" y="104.442769"/>
      </g>
     </g>
     <g id="text_15">
      <!-- 97500 -->
      <g transform="translate(18.7875 108.241988)scale(0.1 -0.1)">
       <use xlink:href="#DejaVuSans-39"/>
       <use x="63.623047" xlink:href="#DejaVuSans-37"/>
       <use x="127.246094" xlink:href="#DejaVuSans-35"/>
       <use x="190.869141" xlink:href="#DejaVuSans-30"/>
       <use x="254.492188" xlink:href="#DejaVuSans-30"/>
      </g>
     </g>
    </g>
    <g id="ytick_8">
     <g id="line2d_15">
      <g>
       <use style="stroke:#000000;stroke-width:0.8;" x="57.6" xlink:href="#m265498c590" y="76.699514"/>
      </g>
     </g>
     <g id="text_16">
      <!-- 100000 -->
      <g transform="translate(12.425 80.498732)scale(0.1 -0.1)">
       <use xlink:href="#DejaVuSans-31"/>
       <use x="63.623047" xlink:href="#DejaVuSans-30"/>
       <use x="127.246094" xlink:href="#DejaVuSans-30"/>
       <use x="190.869141" xlink:href="#DejaVuSans-30"/>
       <use x="254.492188" xlink:href="#DejaVuSans-30"/>
       <use x="318.115234" xlink:href="#DejaVuSans-30"/>
      </g>
     </g>
    </g>
    <g id="ytick_9">
     <g id="line2d_16">
      <g>
       <use style="stroke:#000000;stroke-width:0.8;" x="57.6" xlink:href="#m265498c590" y="48.956258"/>
      </g>
     </g>
     <g id="text_17">
      <!-- 102500 -->
      <g transform="translate(12.425 52.755477)scale(0.1 -0.1)">
       <use xlink:href="#DejaVuSans-31"/>
       <use x="63.623047" xlink:href="#DejaVuSans-30"/>
       <use x="127.246094" xlink:href="#DejaVuSans-32"/>
       <use x="190.869141" xlink:href="#DejaVuSans-35"/>
       <use x="254.492188" xlink:href="#DejaVuSans-30"/>
       <use x="318.115234" xlink:href="#DejaVuSans-30"/>
      </g>
     </g>
    </g>
   </g>
   <g id="line2d_17">
    <path clip-path="url(#p8f0022e500)" d="M 73.832727 75.553204 
L 75.578182 77.011999 
L 80.814545 80.814262 
L 82.56 79.239743 
L 84.305455 76.82113 
L 87.796364 76.659932 
L 93.032727 87.559318 
L 94.778182 108.705551 
L 96.523636 120.881441 
L 98.269091 104.720195 
L 100.014545 113.992834 
L 105.250909 101.470557 
L 106.996364 79.606427 
L 108.741818 76.02843 
L 110.487273 83.048645 
L 112.232727 72.877285 
L 117.469091 83.489631 
L 119.214545 91.58494 
L 120.96 74.38453 
L 122.705455 84.011826 
L 124.450909 96.611929 
L 129.687273 109.793469 
L 131.432727 90.994871 
L 133.178182 79.714586 
L 134.923636 73.030855 
L 141.905455 57.395147 
L 143.650909 58.898388 
L 145.396364 57.357607 
L 147.141818 60.622899 
L 148.887273 63.275366 
L 154.123636 56.790996 
L 155.869091 56.524563 
L 157.614545 78.90868 
L 159.36 79.509401 
L 161.105455 84.435773 
L 166.341818 85.971342 
L 168.087273 75.418331 
L 169.832727 71.826804 
L 171.578182 87.767788 
L 173.323636 87.831838 
L 180.305455 107.14334 
L 182.050909 117.839856 
L 183.796364 129.372306 
L 185.541818 150.227601 
L 190.778182 146.869147 
L 192.523636 158.9084 
L 194.269091 160.670905 
L 196.014545 166.643703 
L 197.76 140.726201 
L 202.996364 122.177244 
L 204.741818 114.632339 
L 206.487273 104.444194 
L 208.232727 129.430766 
L 209.978182 124.645462 
L 215.214545 128.95157 
L 216.96 120.32257 
L 218.705455 103.92356 
L 222.196364 144.35025 
L 227.432727 148.285205 
L 229.178182 131.340467 
L 230.923636 130.151334 
L 232.669091 152.01383 
L 234.414545 159.511376 
L 241.396364 170.707749 
L 243.141818 189.085562 
L 244.887273 173.730926 
L 246.632727 151.018663 
L 251.869091 153.850391 
L 253.614545 169.48532 
L 255.36 151.250738 
L 257.105455 156.280053 
L 258.850909 164.569608 
L 264.087273 194.699815 
L 265.832727 201.354802 
L 267.578182 175.142273 
L 269.323636 180.016568 
L 271.069091 192.904529 
L 276.305455 200.152547 
L 278.050909 178.987017 
L 279.796364 156.453003 
L 281.541818 142.666222 
L 283.287273 133.045076 
L 288.523636 133.869514 
L 290.269091 121.033887 
L 292.014545 135.005323 
L 293.76 121.297622 
L 295.505455 115.56167 
L 300.741818 108.437119 
L 302.487273 94.990252 
L 304.232727 101.189456 
L 305.978182 118.483673 
L 307.723636 115.322375 
L 312.96 106.457217 
L 314.705455 120.071994 
L 316.450909 130.353377 
L 318.196364 125.411556 
L 319.941818 127.363208 
L 325.178182 146.021625 
L 326.923636 150.276371 
L 328.669091 138.326684 
L 330.414545 151.032385 
L 337.396364 150.866215 
L 339.141818 133.475169 
L 340.887273 135.251948 
L 342.632727 150.801452 
L 344.378182 178.664826 
L 349.614545 173.208569 
L 351.36 201.721999 
L 353.105455 199.018762 
L 354.850909 175.127464 
L 356.596364 210.937567 
L 361.832727 205.255751 
L 363.578182 200.324483 
L 365.323636 171.33672 
L 367.069091 206.487798 
L 368.814545 212.763361 
L 374.050909 243.483759 
L 375.796364 242.107631 
L 377.541818 256.488188 
L 379.287273 257.535209 
L 381.032727 236.051277 
L 386.269091 239.138239 
L 388.014545 220.239493 
L 389.76 258.533381 
L 391.505455 264.87579 
L 398.487273 262.050062 
L 398.487273 262.050062 
" style="fill:none;stroke:#0000ff;stroke-linecap:square;stroke-opacity:0.9;stroke-width:2;"/>
   </g>
   <g id="line2d_18">
    <path clip-path="url(#p8f0022e500)" d="M 73.832727 75.553204 
L 75.578182 77.780452 
L 80.814545 81.036371 
L 82.56 79.592141 
L 84.305455 76.665439 
L 87.796364 101.065864 
L 93.032727 88.069466 
L 94.778182 108.96983 
L 96.523636 120.465269 
L 98.269091 104.217992 
L 100.014545 113.70155 
L 105.250909 101.736649 
L 106.996364 79.376942 
L 108.741818 75.814498 
L 110.487273 83.452822 
L 112.232727 73.237722 
L 117.469091 83.684618 
L 119.214545 91.257887 
L 120.96 73.738121 
L 122.705455 83.662399 
L 124.450909 96.014045 
L 129.687273 109.641778 
L 131.432727 91.48188 
L 133.178182 80.106993 
L 134.923636 73.7279 
L 141.905455 57.773238 
L 143.650909 58.233737 
L 145.396364 56.637469 
L 147.141818 60.611297 
L 148.887273 63.694052 
L 154.123636 56.902065 
L 155.869091 57.042454 
L 157.614545 78.482681 
L 159.36 80.250638 
L 161.105455 83.662533 
L 166.341818 85.442669 
L 168.087273 75.663826 
L 169.832727 71.810853 
L 171.578182 87.857073 
L 173.323636 88.006212 
L 180.305455 107.194084 
L 183.796364 129.842053 
L 185.541818 150.847179 
L 190.778182 145.904 
L 192.523636 158.440812 
L 194.269091 161.412274 
L 196.014545 166.243439 
L 197.76 141.128855 
L 202.996364 122.041718 
L 204.741818 114.742656 
L 206.487273 105.406137 
L 208.232727 129.834654 
L 209.978182 125.440743 
L 215.214545 129.276144 
L 216.96 120.367886 
L 218.705455 104.487779 
L 220.450909 123.334618 
L 222.196364 144.204528 
L 227.432727 148.525542 
L 229.178182 131.709716 
L 230.923636 129.830109 
L 232.669091 153.058354 
L 234.414545 159.393775 
L 241.396364 170.99638 
L 243.141818 188.671008 
L 244.887273 173.376408 
L 246.632727 151.360191 
L 251.869091 154.275995 
L 253.614545 169.80431 
L 255.36 150.610684 
L 257.105455 156.140405 
L 258.850909 164.65117 
L 264.087273 194.3794 
L 265.832727 201.814758 
L 267.578182 175.166403 
L 269.323636 180.120974 
L 271.069091 192.728965 
L 276.305455 200.276302 
L 279.796364 156.255751 
L 281.541818 143.687827 
L 283.287273 132.515622 
L 288.523636 133.624081 
L 290.269091 120.952726 
L 292.014545 134.67071 
L 293.76 121.42027 
L 295.505455 115.306945 
L 300.741818 108.212604 
L 302.487273 94.424999 
L 304.232727 101.981969 
L 305.978182 117.707545 
L 312.96 106.403959 
L 314.705455 119.476196 
L 316.450909 130.792151 
L 318.196364 125.123115 
L 319.941818 127.509756 
L 325.178182 146.033393 
L 326.923636 149.458756 
L 328.669091 138.077129 
L 330.414545 151.004917 
L 337.396364 151.060261 
L 339.141818 133.978375 
L 340.887273 135.167198 
L 342.632727 150.816173 
L 344.378182 179.302827 
L 349.614545 173.30054 
L 351.36 202.7361 
L 353.105455 199.631581 
L 354.850909 174.369302 
L 356.596364 211.737907 
L 361.832727 205.591274 
L 363.578182 201.382136 
L 365.323636 171.570012 
L 367.069091 208.316062 
L 368.814545 213.131964 
L 374.050909 244.212884 
L 375.796364 242.162272 
L 377.541818 258.199999 
L 379.287273 258.99905 
L 381.032727 236.153928 
L 386.269091 239.840209 
L 388.014545 221.48062 
L 389.76 259.637046 
L 391.505455 265.104744 
L 393.250909 265.36423 
L 398.487273 247.837352 
L 398.487273 247.837352 
" style="fill:none;stroke:#ff0000;stroke-linecap:square;stroke-opacity:0.9;stroke-width:2;"/>
   </g>
   <g id="line2d_19">
    <path clip-path="url(#p8f0022e500)" d="M 73.832727 75.553204 
L 75.578182 77.184166 
L 80.814545 81.025874 
L 82.56 78.570026 
L 84.305455 75.804777 
L 87.796364 100.629516 
L 93.032727 87.89172 
L 94.778182 108.141752 
L 96.523636 120.708689 
L 98.269091 104.79072 
L 100.014545 113.645608 
L 105.250909 101.390647 
L 106.996364 78.945604 
L 108.741818 75.961371 
L 110.487273 83.119312 
L 112.232727 73.268183 
L 117.469091 83.926381 
L 119.214545 91.297935 
L 120.96 73.97725 
L 122.705455 84.6319 
L 124.450909 96.914116 
L 129.687273 108.977575 
L 131.432727 90.984039 
L 133.178182 79.814407 
L 134.923636 73.925655 
L 141.905455 58.082188 
L 143.650909 59.022182 
L 145.396364 57.350256 
L 148.887273 62.837764 
L 154.123636 56.233682 
L 155.869091 56.655693 
L 157.614545 78.579963 
L 159.36 79.861104 
L 161.105455 84.381737 
L 166.341818 85.489109 
L 168.087273 75.486399 
L 169.832727 72.497004 
L 171.578182 87.576233 
L 173.323636 87.919326 
L 180.305455 106.389798 
L 182.050909 117.491896 
L 183.796364 129.479505 
L 185.541818 150.530449 
L 190.778182 146.711609 
L 192.523636 158.835099 
L 194.269091 161.625281 
L 196.014545 166.780961 
L 197.76 140.730095 
L 202.996364 122.888685 
L 204.741818 115.05573 
L 206.487273 104.936425 
L 208.232727 129.481375 
L 209.978182 124.827264 
L 215.214545 129.165832 
L 216.96 119.606765 
L 218.705455 104.521289 
L 220.450909 123.909033 
L 222.196364 144.6421 
L 227.432727 147.940763 
L 229.178182 131.678266 
L 230.923636 130.419238 
L 232.669091 152.402687 
L 234.414545 159.476884 
L 241.396364 170.759591 
L 243.141818 189.257391 
L 244.887273 173.412131 
L 246.632727 151.514936 
L 251.869091 153.549335 
L 253.614545 168.960894 
L 255.36 150.517084 
L 257.105455 155.734538 
L 258.850909 163.998128 
L 264.087273 194.76047 
L 265.832727 202.14033 
L 267.578182 175.443852 
L 269.323636 180.339566 
L 271.069091 192.553268 
L 276.305455 199.981782 
L 279.796364 156.766347 
L 281.541818 143.006523 
L 283.287273 133.26384 
L 288.523636 134.10442 
L 290.269091 121.597115 
L 292.014545 134.579907 
L 293.76 121.644002 
L 295.505455 116.018426 
L 300.741818 107.804426 
L 302.487273 94.158225 
L 304.232727 101.436783 
L 305.978182 118.703307 
L 307.723636 115.726885 
L 312.96 106.065303 
L 314.705455 119.854595 
L 316.450909 130.025035 
L 318.196364 125.495213 
L 319.941818 127.642986 
L 325.178182 146.484856 
L 326.923636 149.995053 
L 328.669091 138.370674 
L 330.414545 150.895744 
L 337.396364 150.437441 
L 339.141818 134.034245 
L 340.887273 134.399649 
L 342.632727 150.67931 
L 344.378182 178.836185 
L 349.614545 173.119118 
L 351.36 202.131133 
L 353.105455 199.287212 
L 354.850909 174.596298 
L 356.596364 212.0653 
L 361.832727 205.841734 
L 363.578182 201.956253 
L 365.323636 171.332598 
L 367.069091 207.301423 
L 368.814545 213.673176 
L 374.050909 244.151922 
L 375.796364 242.366801 
L 377.541818 257.538423 
L 379.287273 258.781843 
L 381.032727 237.066102 
L 386.269091 239.921585 
L 388.014545 221.079528 
L 389.76 259.927074 
L 391.505455 265.068484 
L 393.250909 264.68365 
L 398.487273 247.241519 
L 398.487273 247.241519 
" style="fill:none;stroke:#008000;stroke-linecap:square;stroke-opacity:0.9;stroke-width:2;"/>
   </g>
   <g id="line2d_20">
    <path clip-path="url(#p8f0022e500)" d="M 73.832727 75.553204 
L 75.578182 77.414052 
L 80.814545 80.35569 
L 82.56 79.150937 
L 84.305455 76.23084 
L 87.796364 100.382657 
L 93.032727 88.109951 
L 94.778182 108.500861 
L 96.523636 120.44775 
L 98.269091 104.92693 
L 100.014545 114.499263 
L 105.250909 101.080929 
L 106.996364 79.228849 
L 108.741818 76.053398 
L 110.487273 83.824768 
L 112.232727 73.247519 
L 117.469091 83.836375 
L 119.214545 91.777554 
L 120.96 73.993475 
L 122.705455 84.395183 
L 124.450909 97.012631 
L 129.687273 109.07256 
L 131.432727 91.454309 
L 133.178182 80.444386 
L 134.923636 73.107303 
L 141.905455 57.096564 
L 143.650909 58.435806 
L 145.396364 57.320178 
L 147.141818 60.083706 
L 148.887273 63.330585 
L 154.123636 56.711069 
L 155.869091 57.159141 
L 157.614545 78.336664 
L 159.36 79.938237 
L 161.105455 83.655946 
L 166.341818 85.260848 
L 168.087273 75.887519 
L 169.832727 72.296509 
L 171.578182 87.43376 
L 173.323636 87.391879 
L 180.305455 106.638556 
L 183.796364 129.393717 
L 185.541818 150.946206 
L 190.778182 146.363152 
L 192.523636 158.909155 
L 194.269091 160.98184 
L 196.014545 166.407953 
L 197.76 141.603892 
L 202.996364 122.475755 
L 204.741818 114.770157 
L 206.487273 105.301076 
L 208.232727 130.150358 
L 209.978182 124.609701 
L 215.214545 129.090989 
L 216.96 119.991942 
L 218.705455 104.357701 
L 222.196364 144.353864 
L 227.432727 147.814614 
L 229.178182 131.984061 
L 230.923636 130.164698 
L 232.669091 152.412919 
L 234.414545 159.432884 
L 241.396364 170.439041 
L 243.141818 188.490239 
L 244.887273 173.742592 
L 246.632727 151.573237 
L 251.869091 153.869347 
L 253.614545 169.915191 
L 255.36 150.829812 
L 257.105455 156.255234 
L 258.850909 164.037619 
L 264.087273 194.233929 
L 265.832727 201.606415 
L 267.578182 175.815798 
L 269.323636 180.455532 
L 271.069091 193.335764 
L 276.305455 200.208011 
L 279.796364 155.815447 
L 281.541818 143.787654 
L 283.287273 132.788594 
L 288.523636 134.095243 
L 290.269091 121.518451 
L 292.014545 134.367414 
L 293.76 120.770053 
L 295.505455 115.652977 
L 300.741818 108.134221 
L 302.487273 95.010092 
L 304.232727 101.808066 
L 305.978182 118.326186 
L 312.96 106.118504 
L 314.705455 120.282755 
L 316.450909 129.876862 
L 318.196364 124.854811 
L 319.941818 127.909137 
L 325.178182 145.859854 
L 326.923636 149.428117 
L 328.669091 137.489175 
L 330.414545 150.655069 
L 337.396364 151.272987 
L 339.141818 134.026971 
L 340.887273 134.419143 
L 342.632727 150.396477 
L 344.378182 179.301195 
L 349.614545 173.249616 
L 351.36 202.159504 
L 353.105455 199.005848 
L 354.850909 174.655097 
L 356.596364 212.674162 
L 361.832727 206.484655 
L 363.578182 201.351799 
L 365.323636 171.837471 
L 367.069091 207.349134 
L 368.814545 213.867927 
L 374.050909 244.805886 
L 375.796364 242.942535 
L 377.541818 258.14512 
L 379.287273 258.294695 
L 381.032727 236.474535 
L 386.269091 240.608251 
L 388.014545 220.729673 
L 389.76 258.996112 
L 391.505455 265.797818 
L 393.250909 265.098775 
L 398.487273 247.294006 
L 398.487273 247.294006 
" style="fill:none;stroke:#ec5283;stroke-linecap:square;stroke-width:2;"/>
   </g>
   <g id="line2d_21">
    <path clip-path="url(#p8f0022e500)" d="M 73.832727 75.553204 
L 75.578182 78.00257 
L 80.814545 80.940438 
L 82.56 78.914285 
L 84.305455 75.865147 
L 87.796364 100.78792 
L 93.032727 87.453515 
L 94.778182 108.347198 
L 96.523636 120.408723 
L 98.269091 104.699892 
L 100.014545 113.853703 
L 105.250909 100.954641 
L 106.996364 79.42819 
L 108.741818 75.68722 
L 110.487273 83.907483 
L 112.232727 72.643715 
L 117.469091 84.023615 
L 119.214545 91.140978 
L 120.96 74.306584 
L 122.705455 84.054475 
L 124.450909 97.109416 
L 129.687273 108.873883 
L 131.432727 91.47442 
L 133.178182 80.547046 
L 134.923636 73.382771 
L 141.905455 57.95356 
L 143.650909 58.43257 
L 145.396364 56.938851 
L 148.887273 62.848118 
L 154.123636 56.40583 
L 155.869091 56.861593 
L 157.614545 78.349821 
L 159.36 80.138899 
L 161.105455 84.215443 
L 166.341818 85.282919 
L 168.087273 75.787425 
L 169.832727 72.737973 
L 171.578182 87.306778 
L 173.323636 87.776077 
L 180.305455 106.767395 
L 182.050909 117.824255 
L 183.796364 130.157136 
L 185.541818 151.032587 
L 190.778182 146.902512 
L 192.523636 158.903305 
L 194.269091 161.222568 
L 196.014545 166.295103 
L 197.76 141.677903 
L 204.741818 115.497853 
L 206.487273 104.489394 
L 208.232727 130.443032 
L 209.978182 125.284056 
L 215.214545 128.831114 
L 216.96 119.93457 
L 218.705455 104.910089 
L 220.450909 123.681049 
L 222.196364 144.457094 
L 227.432727 147.89939 
L 229.178182 131.776833 
L 230.923636 130.560386 
L 232.669091 152.013736 
L 234.414545 159.396125 
L 241.396364 170.96703 
L 243.141818 189.040568 
L 244.887273 173.804444 
L 246.632727 150.902664 
L 251.869091 154.189263 
L 253.614545 169.748642 
L 255.36 150.304375 
L 257.105455 156.326094 
L 258.850909 164.313176 
L 264.087273 194.860804 
L 265.832727 201.666436 
L 267.578182 176.100837 
L 269.323636 180.432875 
L 271.069091 192.476322 
L 276.305455 200.342003 
L 279.796364 156.602836 
L 281.541818 143.379532 
L 283.287273 133.124684 
L 288.523636 133.617395 
L 290.269091 121.899413 
L 292.014545 134.561122 
L 293.76 120.926733 
L 295.505455 116.055353 
L 300.741818 108.461978 
L 302.487273 95.107325 
L 304.232727 101.694536 
L 305.978182 118.051421 
L 307.723636 115.550098 
L 312.96 105.579627 
L 314.705455 119.368365 
L 316.450909 130.801352 
L 318.196364 124.820481 
L 319.941818 127.654622 
L 325.178182 145.845263 
L 326.923636 150.259486 
L 328.669091 137.67487 
L 330.414545 150.913103 
L 337.396364 151.12072 
L 339.141818 133.631226 
L 340.887273 134.956965 
L 342.632727 150.700304 
L 344.378182 178.471809 
L 349.614545 173.200033 
L 351.36 202.630041 
L 353.105455 199.904275 
L 354.850909 174.818118 
L 356.596364 211.90737 
L 361.832727 205.835967 
L 363.578182 201.811357 
L 365.323636 171.766722 
L 367.069091 207.605346 
L 368.814545 213.749524 
L 374.050909 244.940946 
L 375.796364 242.05087 
L 377.541818 257.273178 
L 379.287273 258.555205 
L 381.032727 236.944062 
L 386.269091 240.477295 
L 388.014545 221.213304 
L 389.76 259.581567 
L 391.505455 265.789058 
L 393.250909 265.084028 
L 398.487273 248.150088 
L 398.487273 248.150088 
" style="fill:none;stroke:#00ff00;stroke-linecap:square;stroke-opacity:0.9;stroke-width:2;"/>
   </g>
   <g id="line2d_22">
    <path clip-path="url(#p8f0022e500)" d="M 73.832727 75.553204 
L 75.578182 77.718182 
L 80.814545 80.874836 
L 82.56 79.097527 
L 84.305455 76.211119 
L 87.796364 100.632198 
L 93.032727 87.057268 
L 94.778182 108.251741 
L 96.523636 120.744975 
L 98.269091 104.91737 
L 100.014545 114.06814 
L 105.250909 100.951986 
L 106.996364 78.60707 
L 108.741818 75.358986 
L 110.487273 83.30579 
L 112.232727 73.060853 
L 117.469091 82.769828 
L 119.214545 90.772621 
L 120.96 73.528084 
L 122.705455 82.606015 
L 124.450909 94.541639 
L 129.687273 106.190479 
L 131.432727 87.256669 
L 133.178182 75.872358 
L 134.923636 68.772271 
L 141.905455 53.300576 
L 143.650909 54.004471 
L 145.396364 53.241196 
L 148.887273 58.925249 
L 154.123636 52.405751 
L 155.869091 52.154182 
L 157.614545 74.548999 
L 159.36 75.006979 
L 161.105455 79.425438 
L 166.341818 81.677163 
L 168.087273 71.424542 
L 169.832727 68.312258 
L 171.578182 83.163384 
L 173.323636 82.850525 
L 180.305455 102.280731 
L 183.796364 125.129805 
L 185.541818 145.85237 
L 190.778182 142.44669 
L 192.523636 154.94746 
L 194.269091 156.462865 
L 196.014545 162.070893 
L 197.76 137.098024 
L 202.996364 117.855262 
L 204.741818 110.25434 
L 206.487273 99.710624 
L 208.232727 125.508142 
L 209.978182 120.967934 
L 215.214545 124.317207 
L 216.96 115.608949 
L 218.705455 99.846584 
L 222.196364 139.838408 
L 227.432727 142.993897 
L 229.178182 127.227867 
L 230.923636 125.483553 
L 232.669091 148.301955 
L 234.414545 154.35831 
L 241.396364 165.857594 
L 243.141818 183.888465 
L 244.887273 169.056914 
L 246.632727 146.898227 
L 251.869091 148.701742 
L 253.614545 164.340513 
L 255.36 145.716154 
L 257.105455 150.946734 
L 258.850909 159.853488 
L 264.087273 189.627644 
L 265.832727 197.636641 
L 267.578182 170.747155 
L 269.323636 175.417403 
L 271.069091 188.033885 
L 276.305455 195.402348 
L 279.796364 151.476673 
L 281.541818 137.898016 
L 283.287273 126.511956 
L 288.523636 127.044108 
L 290.269091 113.714042 
L 292.014545 127.782515 
L 293.76 112.111556 
L 295.505455 106.409376 
L 300.741818 99.075013 
L 302.487273 86.003478 
L 304.232727 92.537465 
L 305.978182 109.616288 
L 307.723636 106.231664 
L 312.96 97.09741 
L 314.705455 110.883137 
L 316.450909 121.237555 
L 318.196364 116.092436 
L 319.941818 118.784122 
L 325.178182 137.079607 
L 326.923636 141.27652 
L 328.669091 128.553088 
L 330.414545 141.759036 
L 337.396364 141.966965 
L 339.141818 125.051459 
L 340.887273 125.425323 
L 342.632727 141.19007 
L 344.378182 170.03677 
L 349.614545 164.249496 
L 351.36 193.181681 
L 353.105455 190.645227 
L 354.850909 165.272441 
L 356.596364 204.083078 
L 361.832727 197.465535 
L 363.578182 193.455398 
L 365.323636 163.024609 
L 367.069091 198.710817 
L 368.814545 204.891352 
L 374.050909 236.169565 
L 375.796364 234.143157 
L 377.541818 249.614876 
L 379.287273 249.878766 
L 381.032727 227.718208 
L 386.269091 231.374748 
L 388.014545 212.151381 
L 389.76 251.181023 
L 391.505455 256.626486 
L 393.250909 256.742359 
L 398.487273 238.645925 
L 398.487273 238.645925 
" style="fill:none;stroke:#a5b9cf;stroke-linecap:square;stroke-width:2;"/>
   </g>
   <g id="patch_3">
    <path d="M 57.6 276.48 
L 57.6 41.472 
" style="fill:none;stroke:#000000;stroke-linecap:square;stroke-linejoin:miter;stroke-width:0.8;"/>
   </g>
   <g id="patch_4">
    <path d="M 414.72 276.48 
L 414.72 41.472 
" style="fill:none;stroke:#000000;stroke-linecap:square;stroke-linejoin:miter;stroke-width:0.8;"/>
   </g>
   <g id="patch_5">
    <path d="M 57.6 276.48 
L 414.72 276.48 
" style="fill:none;stroke:#000000;stroke-linecap:square;stroke-linejoin:miter;stroke-width:0.8;"/>
   </g>
   <g id="patch_6">
    <path d="M 57.6 41.472 
L 414.72 41.472 
" style="fill:none;stroke:#000000;stroke-linecap:square;stroke-linejoin:miter;stroke-width:0.8;"/>
   </g>
   <g id="text_18">
    <!-- SP500 -->
    <g transform="translate(217.280625 22.034625)scale(0.12 -0.12)">
     <defs>
      <path d="M 3425 4513 
L 3425 3897 
Q 3066 4069 2747 4153 
Q 2428 4238 2131 4238 
Q 1616 4238 1336 4038 
Q 1056 3838 1056 3469 
Q 1056 3159 1242 3001 
Q 1428 2844 1947 2747 
L 2328 2669 
Q 3034 2534 3370 2195 
Q 3706 1856 3706 1288 
Q 3706 609 3251 259 
Q 2797 -91 1919 -91 
Q 1588 -91 1214 -16 
Q 841 59 441 206 
L 441 856 
Q 825 641 1194 531 
Q 1563 422 1919 422 
Q 2459 422 2753 634 
Q 3047 847 3047 1241 
Q 3047 1584 2836 1778 
Q 2625 1972 2144 2069 
L 1759 2144 
Q 1053 2284 737 2584 
Q 422 2884 422 3419 
Q 422 4038 858 4394 
Q 1294 4750 2059 4750 
Q 2388 4750 2728 4690 
Q 3069 4631 3425 4513 
z
" id="DejaVuSans-53" transform="scale(0.015625)"/>
      <path d="M 1259 4147 
L 1259 2394 
L 2053 2394 
Q 2494 2394 2734 2622 
Q 2975 2850 2975 3272 
Q 2975 3691 2734 3919 
Q 2494 4147 2053 4147 
L 1259 4147 
z
M 628 4666 
L 2053 4666 
Q 2838 4666 3239 4311 
Q 3641 3956 3641 3272 
Q 3641 2581 3239 2228 
Q 2838 1875 2053 1875 
L 1259 1875 
L 1259 0 
L 628 0 
L 628 4666 
z
" id="DejaVuSans-50" transform="scale(0.015625)"/>
     </defs>
     <use xlink:href="#DejaVuSans-53"/>
     <use x="63.476562" xlink:href="#DejaVuSans-50"/>
     <use x="123.779297" xlink:href="#DejaVuSans-35"/>
     <use x="187.402344" xlink:href="#DejaVuSans-30"/>
     <use x="251.025391" xlink:href="#DejaVuSans-30"/>
    </g>
    <!-- daily_report -->
    <g transform="translate(200.466563 35.472)scale(0.12 -0.12)">
     <defs>
      <path d="M 603 3500 
L 1178 3500 
L 1178 0 
L 603 0 
L 603 3500 
z
M 603 4863 
L 1178 4863 
L 1178 4134 
L 603 4134 
L 603 4863 
z
" id="DejaVuSans-69" transform="scale(0.015625)"/>
      <path d="M 603 4863 
L 1178 4863 
L 1178 0 
L 603 0 
L 603 4863 
z
" id="DejaVuSans-6c" transform="scale(0.015625)"/>
      <path d="M 2059 -325 
Q 1816 -950 1584 -1140 
Q 1353 -1331 966 -1331 
L 506 -1331 
L 506 -850 
L 844 -850 
Q 1081 -850 1212 -737 
Q 1344 -625 1503 -206 
L 1606 56 
L 191 3500 
L 800 3500 
L 1894 763 
L 2988 3500 
L 3597 3500 
L 2059 -325 
z
" id="DejaVuSans-79" transform="scale(0.015625)"/>
      <path d="M 3263 -1063 
L 3263 -1509 
L -63 -1509 
L -63 -1063 
L 3263 -1063 
z
" id="DejaVuSans-5f" transform="scale(0.015625)"/>
      <path d="M 2631 2963 
Q 2534 3019 2420 3045 
Q 2306 3072 2169 3072 
Q 1681 3072 1420 2755 
Q 1159 2438 1159 1844 
L 1159 0 
L 581 0 
L 581 3500 
L 1159 3500 
L 1159 2956 
Q 1341 3275 1631 3429 
Q 1922 3584 2338 3584 
Q 2397 3584 2469 3576 
Q 2541 3569 2628 3553 
L 2631 2963 
z
" id="DejaVuSans-72" transform="scale(0.015625)"/>
      <path d="M 1159 525 
L 1159 -1331 
L 581 -1331 
L 581 3500 
L 1159 3500 
L 1159 2969 
Q 1341 3281 1617 3432 
Q 1894 3584 2278 3584 
Q 2916 3584 3314 3078 
Q 3713 2572 3713 1747 
Q 3713 922 3314 415 
Q 2916 -91 2278 -91 
Q 1894 -91 1617 61 
Q 1341 213 1159 525 
z
M 3116 1747 
Q 3116 2381 2855 2742 
Q 2594 3103 2138 3103 
Q 1681 3103 1420 2742 
Q 1159 2381 1159 1747 
Q 1159 1113 1420 752 
Q 1681 391 2138 391 
Q 2594 391 2855 752 
Q 3116 1113 3116 1747 
z
" id="DejaVuSans-70" transform="scale(0.015625)"/>
      <path d="M 1959 3097 
Q 1497 3097 1228 2736 
Q 959 2375 959 1747 
Q 959 1119 1226 758 
Q 1494 397 1959 397 
Q 2419 397 2687 759 
Q 2956 1122 2956 1747 
Q 2956 2369 2687 2733 
Q 2419 3097 1959 3097 
z
M 1959 3584 
Q 2709 3584 3137 3096 
Q 3566 2609 3566 1747 
Q 3566 888 3137 398 
Q 2709 -91 1959 -91 
Q 1206 -91 779 398 
Q 353 888 353 1747 
Q 353 2609 779 3096 
Q 1206 3584 1959 3584 
z
" id="DejaVuSans-6f" transform="scale(0.015625)"/>
     </defs>
     <use xlink:href="#DejaVuSans-64"/>
     <use x="63.476562" xlink:href="#DejaVuSans-61"/>
     <use x="124.755859" xlink:href="#DejaVuSans-69"/>
     <use x="152.539062" xlink:href="#DejaVuSans-6c"/>
     <use x="180.322266" xlink:href="#DejaVuSans-79"/>
     <use x="239.501953" xlink:href="#DejaVuSans-5f"/>
     <use x="289.501953" xlink:href="#DejaVuSans-72"/>
     <use x="328.365234" xlink:href="#DejaVuSans-65"/>
     <use x="389.888672" xlink:href="#DejaVuSans-70"/>
     <use x="453.365234" xlink:href="#DejaVuSans-6f"/>
     <use x="514.546875" xlink:href="#DejaVuSans-72"/>
     <use x="555.660156" xlink:href="#DejaVuSans-74"/>
    </g>
   </g>
   <g id="legend_1">
    <g id="patch_7">
     <path d="M 64.6 271.48 
L 178.64375 271.48 
Q 180.64375 271.48 180.64375 269.48 
L 180.64375 182.41125 
Q 180.64375 180.41125 178.64375 180.41125 
L 64.6 180.41125 
Q 62.6 180.41125 62.6 182.41125 
L 62.6 269.48 
Q 62.6 271.48 64.6 271.48 
z
" style="fill:#ffffff;opacity:0.8;stroke:#cccccc;stroke-linejoin:miter;"/>
    </g>
    <g id="line2d_23">
     <path d="M 66.6 188.509687 
L 86.6 188.509687 
" style="fill:none;stroke:#0000ff;stroke-linecap:square;stroke-opacity:0.9;stroke-width:2;"/>
    </g>
    <g id="line2d_24"/>
    <g id="text_19">
     <!-- alpaca -->
     <g transform="translate(94.6 192.009687)scale(0.1 -0.1)">
      <defs>
       <path d="M 3122 3366 
L 3122 2828 
Q 2878 2963 2633 3030 
Q 2388 3097 2138 3097 
Q 1578 3097 1268 2742 
Q 959 2388 959 1747 
Q 959 1106 1268 751 
Q 1578 397 2138 397 
Q 2388 397 2633 464 
Q 2878 531 3122 666 
L 3122 134 
Q 2881 22 2623 -34 
Q 2366 -91 2075 -91 
Q 1284 -91 818 406 
Q 353 903 353 1747 
Q 353 2603 823 3093 
Q 1294 3584 2113 3584 
Q 2378 3584 2631 3529 
Q 2884 3475 3122 3366 
z
" id="DejaVuSans-63" transform="scale(0.015625)"/>
      </defs>
      <use xlink:href="#DejaVuSans-61"/>
      <use x="61.279297" xlink:href="#DejaVuSans-6c"/>
      <use x="89.0625" xlink:href="#DejaVuSans-70"/>
      <use x="152.539062" xlink:href="#DejaVuSans-61"/>
      <use x="213.818359" xlink:href="#DejaVuSans-63"/>
      <use x="268.798828" xlink:href="#DejaVuSans-61"/>
     </g>
    </g>
    <g id="line2d_25">
     <path d="M 66.6 203.187812 
L 86.6 203.187812 
" style="fill:none;stroke:#ff0000;stroke-linecap:square;stroke-opacity:0.9;stroke-width:2;"/>
    </g>
    <g id="line2d_26"/>
    <g id="text_20">
     <!-- mattress -->
     <g transform="translate(94.6 206.687812)scale(0.1 -0.1)">
      <defs>
       <path d="M 3328 2828 
Q 3544 3216 3844 3400 
Q 4144 3584 4550 3584 
Q 5097 3584 5394 3201 
Q 5691 2819 5691 2113 
L 5691 0 
L 5113 0 
L 5113 2094 
Q 5113 2597 4934 2840 
Q 4756 3084 4391 3084 
Q 3944 3084 3684 2787 
Q 3425 2491 3425 1978 
L 3425 0 
L 2847 0 
L 2847 2094 
Q 2847 2600 2669 2842 
Q 2491 3084 2119 3084 
Q 1678 3084 1418 2786 
Q 1159 2488 1159 1978 
L 1159 0 
L 581 0 
L 581 3500 
L 1159 3500 
L 1159 2956 
Q 1356 3278 1631 3431 
Q 1906 3584 2284 3584 
Q 2666 3584 2933 3390 
Q 3200 3197 3328 2828 
z
" id="DejaVuSans-6d" transform="scale(0.015625)"/>
       <path d="M 2834 3397 
L 2834 2853 
Q 2591 2978 2328 3040 
Q 2066 3103 1784 3103 
Q 1356 3103 1142 2972 
Q 928 2841 928 2578 
Q 928 2378 1081 2264 
Q 1234 2150 1697 2047 
L 1894 2003 
Q 2506 1872 2764 1633 
Q 3022 1394 3022 966 
Q 3022 478 2636 193 
Q 2250 -91 1575 -91 
Q 1294 -91 989 -36 
Q 684 19 347 128 
L 347 722 
Q 666 556 975 473 
Q 1284 391 1588 391 
Q 1994 391 2212 530 
Q 2431 669 2431 922 
Q 2431 1156 2273 1281 
Q 2116 1406 1581 1522 
L 1381 1569 
Q 847 1681 609 1914 
Q 372 2147 372 2553 
Q 372 3047 722 3315 
Q 1072 3584 1716 3584 
Q 2034 3584 2315 3537 
Q 2597 3491 2834 3397 
z
" id="DejaVuSans-73" transform="scale(0.015625)"/>
      </defs>
      <use xlink:href="#DejaVuSans-6d"/>
      <use x="97.412109" xlink:href="#DejaVuSans-61"/>
      <use x="158.691406" xlink:href="#DejaVuSans-74"/>
      <use x="197.900391" xlink:href="#DejaVuSans-74"/>
      <use x="237.109375" xlink:href="#DejaVuSans-72"/>
      <use x="275.972656" xlink:href="#DejaVuSans-65"/>
      <use x="337.496094" xlink:href="#DejaVuSans-73"/>
      <use x="389.595703" xlink:href="#DejaVuSans-73"/>
     </g>
    </g>
    <g id="line2d_27">
     <path d="M 66.6 217.865937 
L 86.6 217.865937 
" style="fill:none;stroke:#008000;stroke-linecap:square;stroke-opacity:0.9;stroke-width:2;"/>
    </g>
    <g id="line2d_28"/>
    <g id="text_21">
     <!-- daily-open-rebal -->
     <g transform="translate(94.6 221.365937)scale(0.1 -0.1)">
      <defs>
       <path d="M 3513 2113 
L 3513 0 
L 2938 0 
L 2938 2094 
Q 2938 2591 2744 2837 
Q 2550 3084 2163 3084 
Q 1697 3084 1428 2787 
Q 1159 2491 1159 1978 
L 1159 0 
L 581 0 
L 581 3500 
L 1159 3500 
L 1159 2956 
Q 1366 3272 1645 3428 
Q 1925 3584 2291 3584 
Q 2894 3584 3203 3211 
Q 3513 2838 3513 2113 
z
" id="DejaVuSans-6e" transform="scale(0.015625)"/>
       <path d="M 3116 1747 
Q 3116 2381 2855 2742 
Q 2594 3103 2138 3103 
Q 1681 3103 1420 2742 
Q 1159 2381 1159 1747 
Q 1159 1113 1420 752 
Q 1681 391 2138 391 
Q 2594 391 2855 752 
Q 3116 1113 3116 1747 
z
M 1159 2969 
Q 1341 3281 1617 3432 
Q 1894 3584 2278 3584 
Q 2916 3584 3314 3078 
Q 3713 2572 3713 1747 
Q 3713 922 3314 415 
Q 2916 -91 2278 -91 
Q 1894 -91 1617 61 
Q 1341 213 1159 525 
L 1159 0 
L 581 0 
L 581 4863 
L 1159 4863 
L 1159 2969 
z
" id="DejaVuSans-62" transform="scale(0.015625)"/>
      </defs>
      <use xlink:href="#DejaVuSans-64"/>
      <use x="63.476562" xlink:href="#DejaVuSans-61"/>
      <use x="124.755859" xlink:href="#DejaVuSans-69"/>
      <use x="152.539062" xlink:href="#DejaVuSans-6c"/>
      <use x="180.322266" xlink:href="#DejaVuSans-79"/>
      <use x="237.751953" xlink:href="#DejaVuSans-2d"/>
      <use x="275.710938" xlink:href="#DejaVuSans-6f"/>
      <use x="336.892578" xlink:href="#DejaVuSans-70"/>
      <use x="400.369141" xlink:href="#DejaVuSans-65"/>
      <use x="461.892578" xlink:href="#DejaVuSans-6e"/>
      <use x="525.271484" xlink:href="#DejaVuSans-2d"/>
      <use x="561.355469" xlink:href="#DejaVuSans-72"/>
      <use x="600.21875" xlink:href="#DejaVuSans-65"/>
      <use x="661.742188" xlink:href="#DejaVuSans-62"/>
      <use x="725.21875" xlink:href="#DejaVuSans-61"/>
      <use x="786.498047" xlink:href="#DejaVuSans-6c"/>
     </g>
    </g>
    <g id="line2d_29">
     <path d="M 66.6 232.544062 
L 86.6 232.544062 
" style="fill:none;stroke:#ec5283;stroke-linecap:square;stroke-width:2;"/>
    </g>
    <g id="line2d_30"/>
    <g id="text_22">
     <!-- daily-close-rebal -->
     <g transform="translate(94.6 236.044062)scale(0.1 -0.1)">
      <use xlink:href="#DejaVuSans-64"/>
      <use x="63.476562" xlink:href="#DejaVuSans-61"/>
      <use x="124.755859" xlink:href="#DejaVuSans-69"/>
      <use x="152.539062" xlink:href="#DejaVuSans-6c"/>
      <use x="180.322266" xlink:href="#DejaVuSans-79"/>
      <use x="237.751953" xlink:href="#DejaVuSans-2d"/>
      <use x="273.835938" xlink:href="#DejaVuSans-63"/>
      <use x="328.816406" xlink:href="#DejaVuSans-6c"/>
      <use x="356.599609" xlink:href="#DejaVuSans-6f"/>
      <use x="417.78125" xlink:href="#DejaVuSans-73"/>
      <use x="469.880859" xlink:href="#DejaVuSans-65"/>
      <use x="531.404297" xlink:href="#DejaVuSans-2d"/>
      <use x="567.488281" xlink:href="#DejaVuSans-72"/>
      <use x="606.351562" xlink:href="#DejaVuSans-65"/>
      <use x="667.875" xlink:href="#DejaVuSans-62"/>
      <use x="731.351562" xlink:href="#DejaVuSans-61"/>
      <use x="792.630859" xlink:href="#DejaVuSans-6c"/>
     </g>
    </g>
    <g id="line2d_31">
     <path d="M 66.6 247.222187 
L 86.6 247.222187 
" style="fill:none;stroke:#00ff00;stroke-linecap:square;stroke-opacity:0.9;stroke-width:2;"/>
    </g>
    <g id="line2d_32"/>
    <g id="text_23">
     <!-- trader-baseline -->
     <g transform="translate(94.6 250.722187)scale(0.1 -0.1)">
      <use xlink:href="#DejaVuSans-74"/>
      <use x="39.208984" xlink:href="#DejaVuSans-72"/>
      <use x="80.322266" xlink:href="#DejaVuSans-61"/>
      <use x="141.601562" xlink:href="#DejaVuSans-64"/>
      <use x="205.078125" xlink:href="#DejaVuSans-65"/>
      <use x="266.601562" xlink:href="#DejaVuSans-72"/>
      <use x="301.339844" xlink:href="#DejaVuSans-2d"/>
      <use x="337.423828" xlink:href="#DejaVuSans-62"/>
      <use x="400.900391" xlink:href="#DejaVuSans-61"/>
      <use x="462.179688" xlink:href="#DejaVuSans-73"/>
      <use x="514.279297" xlink:href="#DejaVuSans-65"/>
      <use x="575.802734" xlink:href="#DejaVuSans-6c"/>
      <use x="603.585938" xlink:href="#DejaVuSans-69"/>
      <use x="631.369141" xlink:href="#DejaVuSans-6e"/>
      <use x="694.748047" xlink:href="#DejaVuSans-65"/>
     </g>
    </g>
    <g id="line2d_33">
     <path d="M 66.6 261.900312 
L 86.6 261.900312 
" style="fill:none;stroke:#a5b9cf;stroke-linecap:square;stroke-width:2;"/>
    </g>
    <g id="line2d_34"/>
    <g id="text_24">
     <!-- default-cfg -->
     <g transform="translate(94.6 265.400312)scale(0.1 -0.1)">
      <defs>
       <path d="M 2375 4863 
L 2375 4384 
L 1825 4384 
Q 1516 4384 1395 4259 
Q 1275 4134 1275 3809 
L 1275 3500 
L 2222 3500 
L 2222 3053 
L 1275 3053 
L 1275 0 
L 697 0 
L 697 3053 
L 147 3053 
L 147 3500 
L 697 3500 
L 697 3744 
Q 697 4328 969 4595 
Q 1241 4863 1831 4863 
L 2375 4863 
z
" id="DejaVuSans-66" transform="scale(0.015625)"/>
       <path d="M 544 1381 
L 544 3500 
L 1119 3500 
L 1119 1403 
Q 1119 906 1312 657 
Q 1506 409 1894 409 
Q 2359 409 2629 706 
Q 2900 1003 2900 1516 
L 2900 3500 
L 3475 3500 
L 3475 0 
L 2900 0 
L 2900 538 
Q 2691 219 2414 64 
Q 2138 -91 1772 -91 
Q 1169 -91 856 284 
Q 544 659 544 1381 
z
M 1991 3584 
L 1991 3584 
z
" id="DejaVuSans-75" transform="scale(0.015625)"/>
       <path d="M 2906 1791 
Q 2906 2416 2648 2759 
Q 2391 3103 1925 3103 
Q 1463 3103 1205 2759 
Q 947 2416 947 1791 
Q 947 1169 1205 825 
Q 1463 481 1925 481 
Q 2391 481 2648 825 
Q 2906 1169 2906 1791 
z
M 3481 434 
Q 3481 -459 3084 -895 
Q 2688 -1331 1869 -1331 
Q 1566 -1331 1297 -1286 
Q 1028 -1241 775 -1147 
L 775 -588 
Q 1028 -725 1275 -790 
Q 1522 -856 1778 -856 
Q 2344 -856 2625 -561 
Q 2906 -266 2906 331 
L 2906 616 
Q 2728 306 2450 153 
Q 2172 0 1784 0 
Q 1141 0 747 490 
Q 353 981 353 1791 
Q 353 2603 747 3093 
Q 1141 3584 1784 3584 
Q 2172 3584 2450 3431 
Q 2728 3278 2906 2969 
L 2906 3500 
L 3481 3500 
L 3481 434 
z
" id="DejaVuSans-67" transform="scale(0.015625)"/>
      </defs>
      <use xlink:href="#DejaVuSans-64"/>
      <use x="63.476562" xlink:href="#DejaVuSans-65"/>
      <use x="125" xlink:href="#DejaVuSans-66"/>
      <use x="160.205078" xlink:href="#DejaVuSans-61"/>
      <use x="221.484375" xlink:href="#DejaVuSans-75"/>
      <use x="284.863281" xlink:href="#DejaVuSans-6c"/>
      <use x="312.646484" xlink:href="#DejaVuSans-74"/>
      <use x="351.855469" xlink:href="#DejaVuSans-2d"/>
      <use x="387.939453" xlink:href="#DejaVuSans-63"/>
      <use x="442.919922" xlink:href="#DejaVuSans-66"/>
      <use x="478.125" xlink:href="#DejaVuSans-67"/>
     </g>
    </g>
   </g>
  </g>
 </g>
 <defs>
  <clipPath id="p8f0022e500">
   <rect height="235.008" width="357.12" x="57.6" y="41.472"/>
  </clipPath>
 </defs>
</svg>
