<?xml version="1.0" encoding="utf-8" standalone="no"?>
<!DOCTYPE svg PUBLIC "-//W3C//DTD SVG 1.1//EN"
  "http://www.w3.org/Graphics/SVG/1.1/DTD/svg11.dtd">
<svg height="345.6pt" version="1.1" viewBox="0 0 460.8 345.6" width="460.8pt" xmlns="http://www.w3.org/2000/svg" xmlns:xlink="http://www.w3.org/1999/xlink">
 <metadata>
  <rdf:RDF xmlns:cc="http://creativecommons.org/ns#" xmlns:dc="http://purl.org/dc/elements/1.1/" xmlns:rdf="http://www.w3.org/1999/02/22-rdf-syntax-ns#">
   <cc:Work>
    <dc:type rdf:resource="http://purl.org/dc/dcmitype/StillImage"/>
    <dc:date>2022-05-24T10:01:43.753098</dc:date>
    <dc:format>image/svg+xml</dc:format>
    <dc:creator>
     <cc:Agent>
      <dc:title>Matplotlib v3.4.3, https://matplotlib.org/</dc:title>
     </cc:Agent>
    </dc:creator>
   </cc:Work>
  </rdf:RDF>
 </metadata>
 <defs>
  <style type="text/css">*{stroke-linecap:butt;stroke-linejoin:round;}</style>
 </defs>
 <g id="figure_1">
  <g id="patch_1">
   <path d="M 0 345.6 
L 460.8 345.6 
L 460.8 0 
L 0 0 
z
" style="fill:#ffffff;"/>
  </g>
  <g id="axes_1">
   <g id="patch_2">
    <path d="M 57.6 276.48 
L 414.72 276.48 
L 414.72 41.472 
L 57.6 41.472 
z
" style="fill:#ffffff;"/>
   </g>
   <g id="matplotlib.axis_1">
    <g id="xtick_1">
     <g id="line2d_1">
      <defs>
       <path d="M 0 0 
L 0 3.5 
" id="m07e60b6a9c" style="stroke:#000000;stroke-width:0.8;"/>
      </defs>
      <g>
       <use style="stroke:#000000;stroke-width:0.8;" x="96.523636" xlink:href="#m07e60b6a9c" y="276.48"/>
      </g>
     </g>
     <g id="text_1">
      <!-- 2021-12 -->
      <g transform="translate(59.298816 310.951846)rotate(-30)scale(0.1 -0.1)">
       <defs>
        <path d="M 1228 531 
L 3431 531 
L 3431 0 
L 469 0 
L 469 531 
Q 828 903 1448 1529 
Q 2069 2156 2228 2338 
Q 2531 2678 2651 2914 
Q 2772 3150 2772 3378 
Q 2772 3750 2511 3984 
Q 2250 4219 1831 4219 
Q 1534 4219 1204 4116 
Q 875 4013 500 3803 
L 500 4441 
Q 881 4594 1212 4672 
Q 1544 4750 1819 4750 
Q 2544 4750 2975 4387 
Q 3406 4025 3406 3419 
Q 3406 3131 3298 2873 
Q 3191 2616 2906 2266 
Q 2828 2175 2409 1742 
Q 1991 1309 1228 531 
z
" id="DejaVuSans-32" transform="scale(0.015625)"/>
        <path d="M 2034 4250 
Q 1547 4250 1301 3770 
Q 1056 3291 1056 2328 
Q 1056 1369 1301 889 
Q 1547 409 2034 409 
Q 2525 409 2770 889 
Q 3016 1369 3016 2328 
Q 3016 3291 2770 3770 
Q 2525 4250 2034 4250 
z
M 2034 4750 
Q 2819 4750 3233 4129 
Q 3647 3509 3647 2328 
Q 3647 1150 3233 529 
Q 2819 -91 2034 -91 
Q 1250 -91 836 529 
Q 422 1150 422 2328 
Q 422 3509 836 4129 
Q 1250 4750 2034 4750 
z
" id="DejaVuSans-30" transform="scale(0.015625)"/>
        <path d="M 794 531 
L 1825 531 
L 1825 4091 
L 703 3866 
L 703 4441 
L 1819 4666 
L 2450 4666 
L 2450 531 
L 3481 531 
L 3481 0 
L 794 0 
L 794 531 
z
" id="DejaVuSans-31" transform="scale(0.015625)"/>
        <path d="M 313 2009 
L 1997 2009 
L 1997 1497 
L 313 1497 
L 313 2009 
z
" id="DejaVuSans-2d" transform="scale(0.015625)"/>
       </defs>
       <use xlink:href="#DejaVuSans-32"/>
       <use x="63.623047" xlink:href="#DejaVuSans-30"/>
       <use x="127.246094" xlink:href="#DejaVuSans-32"/>
       <use x="190.869141" xlink:href="#DejaVuSans-31"/>
       <use x="254.492188" xlink:href="#DejaVuSans-2d"/>
       <use x="290.576172" xlink:href="#DejaVuSans-31"/>
       <use x="354.199219" xlink:href="#DejaVuSans-32"/>
      </g>
     </g>
    </g>
    <g id="xtick_2">
     <g id="line2d_2">
      <g>
       <use style="stroke:#000000;stroke-width:0.8;" x="150.632727" xlink:href="#m07e60b6a9c" y="276.48"/>
      </g>
     </g>
     <g id="text_2">
      <!-- 2022-01 -->
      <g transform="translate(113.407906 310.951846)rotate(-30)scale(0.1 -0.1)">
       <use xlink:href="#DejaVuSans-32"/>
       <use x="63.623047" xlink:href="#DejaVuSans-30"/>
       <use x="127.246094" xlink:href="#DejaVuSans-32"/>
       <use x="190.869141" xlink:href="#DejaVuSans-32"/>
       <use x="254.492188" xlink:href="#DejaVuSans-2d"/>
       <use x="290.576172" xlink:href="#DejaVuSans-30"/>
       <use x="354.199219" xlink:href="#DejaVuSans-31"/>
      </g>
     </g>
    </g>
    <g id="xtick_3">
     <g id="line2d_3">
      <g>
       <use style="stroke:#000000;stroke-width:0.8;" x="204.741818" xlink:href="#m07e60b6a9c" y="276.48"/>
      </g>
     </g>
     <g id="text_3">
      <!-- 2022-02 -->
      <g transform="translate(167.516997 310.951846)rotate(-30)scale(0.1 -0.1)">
       <use xlink:href="#DejaVuSans-32"/>
       <use x="63.623047" xlink:href="#DejaVuSans-30"/>
       <use x="127.246094" xlink:href="#DejaVuSans-32"/>
       <use x="190.869141" xlink:href="#DejaVuSans-32"/>
       <use x="254.492188" xlink:href="#DejaVuSans-2d"/>
       <use x="290.576172" xlink:href="#DejaVuSans-30"/>
       <use x="354.199219" xlink:href="#DejaVuSans-32"/>
      </g>
     </g>
    </g>
    <g id="xtick_4">
     <g id="line2d_4">
      <g>
       <use style="stroke:#000000;stroke-width:0.8;" x="253.614545" xlink:href="#m07e60b6a9c" y="276.48"/>
      </g>
     </g>
     <g id="text_4">
      <!-- 2022-03 -->
      <g transform="translate(216.389725 310.951846)rotate(-30)scale(0.1 -0.1)">
       <defs>
        <path d="M 2597 2516 
Q 3050 2419 3304 2112 
Q 3559 1806 3559 1356 
Q 3559 666 3084 287 
Q 2609 -91 1734 -91 
Q 1441 -91 1130 -33 
Q 819 25 488 141 
L 488 750 
Q 750 597 1062 519 
Q 1375 441 1716 441 
Q 2309 441 2620 675 
Q 2931 909 2931 1356 
Q 2931 1769 2642 2001 
Q 2353 2234 1838 2234 
L 1294 2234 
L 1294 2753 
L 1863 2753 
Q 2328 2753 2575 2939 
Q 2822 3125 2822 3475 
Q 2822 3834 2567 4026 
Q 2313 4219 1838 4219 
Q 1578 4219 1281 4162 
Q 984 4106 628 3988 
L 628 4550 
Q 988 4650 1302 4700 
Q 1616 4750 1894 4750 
Q 2613 4750 3031 4423 
Q 3450 4097 3450 3541 
Q 3450 3153 3228 2886 
Q 3006 2619 2597 2516 
z
" id="DejaVuSans-33" transform="scale(0.015625)"/>
       </defs>
       <use xlink:href="#DejaVuSans-32"/>
       <use x="63.623047" xlink:href="#DejaVuSans-30"/>
       <use x="127.246094" xlink:href="#DejaVuSans-32"/>
       <use x="190.869141" xlink:href="#DejaVuSans-32"/>
       <use x="254.492188" xlink:href="#DejaVuSans-2d"/>
       <use x="290.576172" xlink:href="#DejaVuSans-30"/>
       <use x="354.199219" xlink:href="#DejaVuSans-33"/>
      </g>
     </g>
    </g>
    <g id="xtick_5">
     <g id="line2d_5">
      <g>
       <use style="stroke:#000000;stroke-width:0.8;" x="307.723636" xlink:href="#m07e60b6a9c" y="276.48"/>
      </g>
     </g>
     <g id="text_5">
      <!-- 2022-04 -->
      <g transform="translate(270.498816 310.951846)rotate(-30)scale(0.1 -0.1)">
       <defs>
        <path d="M 2419 4116 
L 825 1625 
L 2419 1625 
L 2419 4116 
z
M 2253 4666 
L 3047 4666 
L 3047 1625 
L 3713 1625 
L 3713 1100 
L 3047 1100 
L 3047 0 
L 2419 0 
L 2419 1100 
L 313 1100 
L 313 1709 
L 2253 4666 
z
" id="DejaVuSans-34" transform="scale(0.015625)"/>
       </defs>
       <use xlink:href="#DejaVuSans-32"/>
       <use x="63.623047" xlink:href="#DejaVuSans-30"/>
       <use x="127.246094" xlink:href="#DejaVuSans-32"/>
       <use x="190.869141" xlink:href="#DejaVuSans-32"/>
       <use x="254.492188" xlink:href="#DejaVuSans-2d"/>
       <use x="290.576172" xlink:href="#DejaVuSans-30"/>
       <use x="354.199219" xlink:href="#DejaVuSans-34"/>
      </g>
     </g>
    </g>
    <g id="xtick_6">
     <g id="line2d_6">
      <g>
       <use style="stroke:#000000;stroke-width:0.8;" x="360.087273" xlink:href="#m07e60b6a9c" y="276.48"/>
      </g>
     </g>
     <g id="text_6">
      <!-- 2022-05 -->
      <g transform="translate(322.862452 310.951846)rotate(-30)scale(0.1 -0.1)">
       <defs>
        <path d="M 691 4666 
L 3169 4666 
L 3169 4134 
L 1269 4134 
L 1269 2991 
Q 1406 3038 1543 3061 
Q 1681 3084 1819 3084 
Q 2600 3084 3056 2656 
Q 3513 2228 3513 1497 
Q 3513 744 3044 326 
Q 2575 -91 1722 -91 
Q 1428 -91 1123 -41 
Q 819 9 494 109 
L 494 744 
Q 775 591 1075 516 
Q 1375 441 1709 441 
Q 2250 441 2565 725 
Q 2881 1009 2881 1497 
Q 2881 1984 2565 2268 
Q 2250 2553 1709 2553 
Q 1456 2553 1204 2497 
Q 953 2441 691 2322 
L 691 4666 
z
" id="DejaVuSans-35" transform="scale(0.015625)"/>
       </defs>
       <use xlink:href="#DejaVuSans-32"/>
       <use x="63.623047" xlink:href="#DejaVuSans-30"/>
       <use x="127.246094" xlink:href="#DejaVuSans-32"/>
       <use x="190.869141" xlink:href="#DejaVuSans-32"/>
       <use x="254.492188" xlink:href="#DejaVuSans-2d"/>
       <use x="290.576172" xlink:href="#DejaVuSans-30"/>
       <use x="354.199219" xlink:href="#DejaVuSans-35"/>
      </g>
     </g>
    </g>
    <g id="xtick_7">
     <g id="line2d_7">
      <g>
       <use style="stroke:#000000;stroke-width:0.8;" x="414.196364" xlink:href="#m07e60b6a9c" y="276.48"/>
      </g>
     </g>
     <g id="text_7">
      <!-- 2022-06 -->
      <g transform="translate(376.971543 310.951846)rotate(-30)scale(0.1 -0.1)">
       <defs>
        <path d="M 2113 2584 
Q 1688 2584 1439 2293 
Q 1191 2003 1191 1497 
Q 1191 994 1439 701 
Q 1688 409 2113 409 
Q 2538 409 2786 701 
Q 3034 994 3034 1497 
Q 3034 2003 2786 2293 
Q 2538 2584 2113 2584 
z
M 3366 4563 
L 3366 3988 
Q 3128 4100 2886 4159 
Q 2644 4219 2406 4219 
Q 1781 4219 1451 3797 
Q 1122 3375 1075 2522 
Q 1259 2794 1537 2939 
Q 1816 3084 2150 3084 
Q 2853 3084 3261 2657 
Q 3669 2231 3669 1497 
Q 3669 778 3244 343 
Q 2819 -91 2113 -91 
Q 1303 -91 875 529 
Q 447 1150 447 2328 
Q 447 3434 972 4092 
Q 1497 4750 2381 4750 
Q 2619 4750 2861 4703 
Q 3103 4656 3366 4563 
z
" id="DejaVuSans-36" transform="scale(0.015625)"/>
       </defs>
       <use xlink:href="#DejaVuSans-32"/>
       <use x="63.623047" xlink:href="#DejaVuSans-30"/>
       <use x="127.246094" xlink:href="#DejaVuSans-32"/>
       <use x="190.869141" xlink:href="#DejaVuSans-32"/>
       <use x="254.492188" xlink:href="#DejaVuSans-2d"/>
       <use x="290.576172" xlink:href="#DejaVuSans-30"/>
       <use x="354.199219" xlink:href="#DejaVuSans-36"/>
      </g>
     </g>
    </g>
    <g id="text_8">
     <!-- date -->
     <g transform="translate(224.885 324.351346)scale(0.1 -0.1)">
      <defs>
       <path d="M 2906 2969 
L 2906 4863 
L 3481 4863 
L 3481 0 
L 2906 0 
L 2906 525 
Q 2725 213 2448 61 
Q 2172 -91 1784 -91 
Q 1150 -91 751 415 
Q 353 922 353 1747 
Q 353 2572 751 3078 
Q 1150 3584 1784 3584 
Q 2172 3584 2448 3432 
Q 2725 3281 2906 2969 
z
M 947 1747 
Q 947 1113 1208 752 
Q 1469 391 1925 391 
Q 2381 391 2643 752 
Q 2906 1113 2906 1747 
Q 2906 2381 2643 2742 
Q 2381 3103 1925 3103 
Q 1469 3103 1208 2742 
Q 947 2381 947 1747 
z
" id="DejaVuSans-64" transform="scale(0.015625)"/>
       <path d="M 2194 1759 
Q 1497 1759 1228 1600 
Q 959 1441 959 1056 
Q 959 750 1161 570 
Q 1363 391 1709 391 
Q 2188 391 2477 730 
Q 2766 1069 2766 1631 
L 2766 1759 
L 2194 1759 
z
M 3341 1997 
L 3341 0 
L 2766 0 
L 2766 531 
Q 2569 213 2275 61 
Q 1981 -91 1556 -91 
Q 1019 -91 701 211 
Q 384 513 384 1019 
Q 384 1609 779 1909 
Q 1175 2209 1959 2209 
L 2766 2209 
L 2766 2266 
Q 2766 2663 2505 2880 
Q 2244 3097 1772 3097 
Q 1472 3097 1187 3025 
Q 903 2953 641 2809 
L 641 3341 
Q 956 3463 1253 3523 
Q 1550 3584 1831 3584 
Q 2591 3584 2966 3190 
Q 3341 2797 3341 1997 
z
" id="DejaVuSans-61" transform="scale(0.015625)"/>
       <path d="M 1172 4494 
L 1172 3500 
L 2356 3500 
L 2356 3053 
L 1172 3053 
L 1172 1153 
Q 1172 725 1289 603 
Q 1406 481 1766 481 
L 2356 481 
L 2356 0 
L 1766 0 
Q 1100 0 847 248 
Q 594 497 594 1153 
L 594 3053 
L 172 3053 
L 172 3500 
L 594 3500 
L 594 4494 
L 1172 4494 
z
" id="DejaVuSans-74" transform="scale(0.015625)"/>
       <path d="M 3597 1894 
L 3597 1613 
L 953 1613 
Q 991 1019 1311 708 
Q 1631 397 2203 397 
Q 2534 397 2845 478 
Q 3156 559 3463 722 
L 3463 178 
Q 3153 47 2828 -22 
Q 2503 -91 2169 -91 
Q 1331 -91 842 396 
Q 353 884 353 1716 
Q 353 2575 817 3079 
Q 1281 3584 2069 3584 
Q 2775 3584 3186 3129 
Q 3597 2675 3597 1894 
z
M 3022 2063 
Q 3016 2534 2758 2815 
Q 2500 3097 2075 3097 
Q 1594 3097 1305 2825 
Q 1016 2553 972 2059 
L 3022 2063 
z
" id="DejaVuSans-65" transform="scale(0.015625)"/>
      </defs>
      <use xlink:href="#DejaVuSans-64"/>
      <use x="63.476562" xlink:href="#DejaVuSans-61"/>
      <use x="124.755859" xlink:href="#DejaVuSans-74"/>
      <use x="163.964844" xlink:href="#DejaVuSans-65"/>
     </g>
    </g>
   </g>
   <g id="matplotlib.axis_2">
    <g id="ytick_1">
     <g id="line2d_8">
      <defs>
       <path d="M 0 0 
L -3.5 0 
" id="m310e16dba1" style="stroke:#000000;stroke-width:0.8;"/>
      </defs>
      <g>
       <use style="stroke:#000000;stroke-width:0.8;" x="57.6" xlink:href="#m310e16dba1" y="252.867214"/>
      </g>
     </g>
     <g id="text_9">
      <!-- 80000 -->
      <g transform="translate(18.7875 256.666432)scale(0.1 -0.1)">
       <defs>
        <path d="M 2034 2216 
Q 1584 2216 1326 1975 
Q 1069 1734 1069 1313 
Q 1069 891 1326 650 
Q 1584 409 2034 409 
Q 2484 409 2743 651 
Q 3003 894 3003 1313 
Q 3003 1734 2745 1975 
Q 2488 2216 2034 2216 
z
M 1403 2484 
Q 997 2584 770 2862 
Q 544 3141 544 3541 
Q 544 4100 942 4425 
Q 1341 4750 2034 4750 
Q 2731 4750 3128 4425 
Q 3525 4100 3525 3541 
Q 3525 3141 3298 2862 
Q 3072 2584 2669 2484 
Q 3125 2378 3379 2068 
Q 3634 1759 3634 1313 
Q 3634 634 3220 271 
Q 2806 -91 2034 -91 
Q 1263 -91 848 271 
Q 434 634 434 1313 
Q 434 1759 690 2068 
Q 947 2378 1403 2484 
z
M 1172 3481 
Q 1172 3119 1398 2916 
Q 1625 2713 2034 2713 
Q 2441 2713 2670 2916 
Q 2900 3119 2900 3481 
Q 2900 3844 2670 4047 
Q 2441 4250 2034 4250 
Q 1625 4250 1398 4047 
Q 1172 3844 1172 3481 
z
" id="DejaVuSans-38" transform="scale(0.015625)"/>
       </defs>
       <use xlink:href="#DejaVuSans-38"/>
       <use x="63.623047" xlink:href="#DejaVuSans-30"/>
       <use x="127.246094" xlink:href="#DejaVuSans-30"/>
       <use x="190.869141" xlink:href="#DejaVuSans-30"/>
       <use x="254.492188" xlink:href="#DejaVuSans-30"/>
      </g>
     </g>
    </g>
    <g id="ytick_2">
     <g id="line2d_9">
      <g>
       <use style="stroke:#000000;stroke-width:0.8;" x="57.6" xlink:href="#m310e16dba1" y="202.115348"/>
      </g>
     </g>
     <g id="text_10">
      <!-- 85000 -->
      <g transform="translate(18.7875 205.914567)scale(0.1 -0.1)">
       <use xlink:href="#DejaVuSans-38"/>
       <use x="63.623047" xlink:href="#DejaVuSans-35"/>
       <use x="127.246094" xlink:href="#DejaVuSans-30"/>
       <use x="190.869141" xlink:href="#DejaVuSans-30"/>
       <use x="254.492188" xlink:href="#DejaVuSans-30"/>
      </g>
     </g>
    </g>
    <g id="ytick_3">
     <g id="line2d_10">
      <g>
       <use style="stroke:#000000;stroke-width:0.8;" x="57.6" xlink:href="#m310e16dba1" y="151.363482"/>
      </g>
     </g>
     <g id="text_11">
      <!-- 90000 -->
      <g transform="translate(18.7875 155.162701)scale(0.1 -0.1)">
       <defs>
        <path d="M 703 97 
L 703 672 
Q 941 559 1184 500 
Q 1428 441 1663 441 
Q 2288 441 2617 861 
Q 2947 1281 2994 2138 
Q 2813 1869 2534 1725 
Q 2256 1581 1919 1581 
Q 1219 1581 811 2004 
Q 403 2428 403 3163 
Q 403 3881 828 4315 
Q 1253 4750 1959 4750 
Q 2769 4750 3195 4129 
Q 3622 3509 3622 2328 
Q 3622 1225 3098 567 
Q 2575 -91 1691 -91 
Q 1453 -91 1209 -44 
Q 966 3 703 97 
z
M 1959 2075 
Q 2384 2075 2632 2365 
Q 2881 2656 2881 3163 
Q 2881 3666 2632 3958 
Q 2384 4250 1959 4250 
Q 1534 4250 1286 3958 
Q 1038 3666 1038 3163 
Q 1038 2656 1286 2365 
Q 1534 2075 1959 2075 
z
" id="DejaVuSans-39" transform="scale(0.015625)"/>
       </defs>
       <use xlink:href="#DejaVuSans-39"/>
       <use x="63.623047" xlink:href="#DejaVuSans-30"/>
       <use x="127.246094" xlink:href="#DejaVuSans-30"/>
       <use x="190.869141" xlink:href="#DejaVuSans-30"/>
       <use x="254.492188" xlink:href="#DejaVuSans-30"/>
      </g>
     </g>
    </g>
    <g id="ytick_4">
     <g id="line2d_11">
      <g>
       <use style="stroke:#000000;stroke-width:0.8;" x="57.6" xlink:href="#m310e16dba1" y="100.611617"/>
      </g>
     </g>
     <g id="text_12">
      <!-- 95000 -->
      <g transform="translate(18.7875 104.410836)scale(0.1 -0.1)">
       <use xlink:href="#DejaVuSans-39"/>
       <use x="63.623047" xlink:href="#DejaVuSans-35"/>
       <use x="127.246094" xlink:href="#DejaVuSans-30"/>
       <use x="190.869141" xlink:href="#DejaVuSans-30"/>
       <use x="254.492188" xlink:href="#DejaVuSans-30"/>
      </g>
     </g>
    </g>
    <g id="ytick_5">
     <g id="line2d_12">
      <g>
       <use style="stroke:#000000;stroke-width:0.8;" x="57.6" xlink:href="#m310e16dba1" y="49.859751"/>
      </g>
     </g>
     <g id="text_13">
      <!-- 100000 -->
      <g transform="translate(12.425 53.65897)scale(0.1 -0.1)">
       <use xlink:href="#DejaVuSans-31"/>
       <use x="63.623047" xlink:href="#DejaVuSans-30"/>
       <use x="127.246094" xlink:href="#DejaVuSans-30"/>
       <use x="190.869141" xlink:href="#DejaVuSans-30"/>
       <use x="254.492188" xlink:href="#DejaVuSans-30"/>
       <use x="318.115234" xlink:href="#DejaVuSans-30"/>
      </g>
     </g>
    </g>
   </g>
   <g id="line2d_13">
    <path clip-path="url(#pa07b793f1a)" d="M 73.832727 52.154182 
L 75.578182 56.541117 
L 80.814545 64.45064 
L 82.56 65.239423 
L 84.305455 64.795563 
L 87.796364 64.788977 
L 93.032727 84.672204 
L 94.778182 97.886704 
L 96.523636 108.247664 
L 98.269091 92.946858 
L 100.014545 104.212937 
L 105.250909 93.650393 
L 106.996364 73.764225 
L 108.741818 69.456512 
L 110.487273 79.203595 
L 112.232727 76.542629 
L 117.469091 87.315855 
L 119.214545 92.854044 
L 120.96 83.301494 
L 122.705455 88.711707 
L 124.450909 95.107693 
L 129.687273 111.45437 
L 131.432727 94.818096 
L 133.178182 86.221581 
L 134.923636 80.247639 
L 141.905455 72.076239 
L 143.650909 74.624496 
L 145.396364 75.540112 
L 147.141818 73.948665 
L 148.887273 76.592261 
L 154.123636 70.654764 
L 155.869091 72.102487 
L 157.614545 89.807387 
L 161.105455 90.03396 
L 166.341818 93.518126 
L 168.087273 80.666119 
L 169.832727 74.934815 
L 171.578182 87.169221 
L 173.323636 87.831647 
L 180.305455 105.178457 
L 182.050909 110.26034 
L 183.796364 115.945355 
L 185.541818 132.741143 
L 190.778182 133.691441 
L 192.523636 143.272769 
L 194.269091 148.999423 
L 196.014545 157.094705 
L 197.76 144.472032 
L 202.996364 122.846827 
L 204.741818 114.291968 
L 206.487273 110.989706 
L 208.232727 129.478737 
L 209.978182 123.6906 
L 215.214545 123.875514 
L 216.96 116.279713 
L 218.705455 99.575319 
L 220.450909 111.899068 
L 222.196364 128.774325 
L 227.432727 133.499549 
L 229.178182 114.847434 
L 230.923636 112.376461 
L 232.669091 129.931698 
L 234.414545 137.69121 
L 241.396364 148.659608 
L 243.141818 162.409845 
L 244.887273 160.332497 
L 246.632727 139.521881 
L 251.869091 144.91876 
L 253.614545 160.138519 
L 255.36 147.72637 
L 257.105455 159.816055 
L 258.850909 176.132679 
L 264.087273 203.92344 
L 265.832727 203.556457 
L 267.578182 176.961252 
L 269.323636 184.368494 
L 271.069091 196.737435 
L 276.305455 205.431803 
L 278.050909 194.372866 
L 279.796364 159.944407 
L 281.541818 152.19011 
L 283.287273 140.625403 
L 288.523636 146.524094 
L 290.269091 135.074353 
L 292.014545 147.670769 
L 293.76 138.343882 
L 295.505455 138.071286 
L 300.741818 136.059169 
L 302.487273 118.871124 
L 304.232727 125.509568 
L 305.978182 139.620627 
L 307.723636 130.917611 
L 312.96 122.649847 
L 314.705455 137.785123 
L 316.450909 149.048865 
L 318.196364 149.129817 
L 319.941818 150.453062 
L 325.178182 162.057135 
L 326.923636 165.512495 
L 328.669091 153.416702 
L 330.414545 162.642248 
L 337.396364 165.958086 
L 339.141818 156.783429 
L 340.887273 157.439786 
L 342.632727 172.59385 
L 344.378182 190.559112 
L 349.614545 190.564922 
L 351.36 214.888445 
L 353.105455 210.59876 
L 354.850909 194.54915 
L 356.596364 213.238043 
L 361.832727 210.712639 
L 363.578182 204.872153 
L 365.323636 187.136777 
L 367.069091 218.724908 
L 368.814545 227.794125 
L 374.050909 256.86112 
L 375.796364 254.849621 
L 377.541818 265.797818 
L 379.287273 264.763652 
L 381.032727 242.57471 
L 386.269091 245.630703 
L 388.014545 226.908116 
L 389.76 252.785259 
L 391.505455 248.894922 
L 393.250909 247.407065 
L 398.487273 248.820716 
L 398.487273 248.820716 
" style="fill:none;stroke:#0000ff;stroke-linecap:square;stroke-opacity:0.9;stroke-width:2;"/>
   </g>
   <g id="line2d_14">
    <path clip-path="url(#pa07b793f1a)" d="M 73.832727 52.154182 
L 75.578182 56.664656 
L 80.814545 64.350836 
L 82.56 65.422444 
L 84.305455 64.75622 
L 87.796364 90.523444 
L 93.032727 84.731891 
L 94.778182 97.465529 
L 96.523636 108.306969 
L 98.269091 93.232292 
L 100.014545 103.529112 
L 105.250909 93.349786 
L 106.996364 73.570184 
L 108.741818 69.289015 
L 110.487273 79.2054 
L 112.232727 76.366303 
L 117.469091 87.165615 
L 119.214545 93.369435 
L 120.96 83.567617 
L 122.705455 88.611574 
L 124.450909 94.79704 
L 129.687273 111.831972 
L 131.432727 94.893046 
L 133.178182 86.825614 
L 134.923636 80.535148 
L 141.905455 72.766512 
L 143.650909 74.770201 
L 145.396364 75.325434 
L 147.141818 74.238788 
L 148.887273 76.194146 
L 154.123636 70.593214 
L 155.869091 71.609831 
L 157.614545 89.724795 
L 159.36 89.9501 
L 161.105455 89.966 
L 166.341818 93.499725 
L 168.087273 81.366897 
L 169.832727 74.623499 
L 171.578182 86.859221 
L 173.323636 87.609517 
L 180.305455 104.710938 
L 182.050909 109.610309 
L 183.796364 115.380984 
L 185.541818 132.0904 
L 190.778182 133.561436 
L 192.523636 142.750472 
L 194.269091 148.094617 
L 196.014545 156.644128 
L 197.76 143.43727 
L 202.996364 121.797448 
L 204.741818 113.798217 
L 206.487273 111.008852 
L 208.232727 128.154337 
L 209.978182 124.012563 
L 215.214545 124.211516 
L 216.96 116.141204 
L 218.705455 99.773946 
L 220.450909 111.520281 
L 222.196364 127.921321 
L 227.432727 133.094596 
L 229.178182 114.833939 
L 230.923636 111.612777 
L 232.669091 129.4594 
L 234.414545 137.021152 
L 241.396364 149.01986 
L 243.141818 161.325028 
L 244.887273 160.333057 
L 246.632727 139.473867 
L 251.869091 145.723955 
L 253.614545 160.833297 
L 255.36 148.752547 
L 257.105455 160.446534 
L 258.850909 176.059646 
L 264.087273 205.025928 
L 265.832727 203.927968 
L 267.578182 176.555099 
L 269.323636 184.253511 
L 271.069091 197.550117 
L 276.305455 205.344384 
L 278.050909 195.021261 
L 279.796364 160.232376 
L 281.541818 152.839545 
L 283.287273 141.199312 
L 288.523636 147.757889 
L 290.269091 136.009051 
L 292.014545 148.208943 
L 293.76 139.010815 
L 295.505455 138.489432 
L 300.741818 136.110938 
L 302.487273 119.444908 
L 304.232727 126.067716 
L 305.978182 139.411912 
L 307.723636 132.075193 
L 312.96 123.441497 
L 314.705455 138.310395 
L 316.450909 149.634145 
L 318.196364 149.436392 
L 319.941818 151.512114 
L 325.178182 162.248635 
L 326.923636 166.46151 
L 328.669091 154.144502 
L 330.414545 162.642463 
L 337.396364 166.397293 
L 339.141818 157.755491 
L 340.887273 157.35803 
L 342.632727 173.004653 
L 344.378182 190.504883 
L 349.614545 191.318228 
L 351.36 215.008892 
L 353.105455 210.679134 
L 354.850909 195.17016 
L 356.596364 213.386838 
L 361.832727 211.082167 
L 363.578182 205.524581 
L 365.323636 187.551497 
L 367.069091 218.491552 
L 368.814545 228.787608 
L 374.050909 257.187927 
L 375.796364 254.359203 
L 377.541818 265.173403 
L 379.287273 265.082784 
L 381.032727 242.454591 
L 386.269091 245.209063 
L 388.014545 226.780406 
L 389.76 252.638238 
L 391.505455 248.487903 
L 393.250909 246.423631 
L 398.487273 235.646452 
L 398.487273 235.646452 
" style="fill:none;stroke:#ff0000;stroke-linecap:square;stroke-opacity:0.9;stroke-width:2;"/>
   </g>
   <g id="line2d_15">
    <path clip-path="url(#pa07b793f1a)" d="M 73.832727 52.154182 
L 75.578182 57.131482 
L 80.814545 63.790752 
L 82.56 65.093615 
L 84.305455 64.954433 
L 87.796364 89.885079 
L 93.032727 85.215144 
L 96.523636 108.471077 
L 98.269091 93.125999 
L 100.014545 103.70189 
L 105.250909 93.751542 
L 106.996364 73.714171 
L 108.741818 69.490004 
L 110.487273 79.553981 
L 112.232727 76.077501 
L 117.469091 87.424129 
L 119.214545 93.142886 
L 120.96 82.866908 
L 122.705455 89.139917 
L 124.450909 94.574112 
L 129.687273 111.875843 
L 131.432727 95.301344 
L 133.178182 85.914564 
L 134.923636 80.317983 
L 141.905455 72.893811 
L 143.650909 74.98366 
L 145.396364 75.163063 
L 147.141818 74.453617 
L 148.887273 76.392186 
L 154.123636 70.301667 
L 155.869091 72.296031 
L 157.614545 90.303953 
L 159.36 89.420252 
L 161.105455 90.171119 
L 166.341818 94.082495 
L 168.087273 80.813142 
L 169.832727 75.237973 
L 171.578182 86.657264 
L 173.323636 87.535238 
L 182.050909 110.114551 
L 183.796364 115.76821 
L 185.541818 132.523071 
L 190.778182 133.863892 
L 192.523636 143.111765 
L 194.269091 149.57184 
L 196.014545 157.308778 
L 197.76 144.577902 
L 202.996364 122.698944 
L 204.741818 113.874661 
L 206.487273 111.094844 
L 208.232727 128.530577 
L 209.978182 123.818963 
L 215.214545 124.048589 
L 216.96 116.059561 
L 218.705455 99.725398 
L 220.450909 112.29894 
L 222.196364 127.946657 
L 227.432727 133.5278 
L 229.178182 114.231372 
L 230.923636 111.798771 
L 232.669091 129.89076 
L 234.414545 137.158959 
L 241.396364 149.380254 
L 243.141818 162.805131 
L 244.887273 159.93075 
L 246.632727 139.753963 
L 251.869091 145.28223 
L 253.614545 160.796551 
L 255.36 148.302139 
L 257.105455 160.234954 
L 258.850909 176.072963 
L 264.087273 204.21074 
L 265.832727 203.160415 
L 267.578182 176.548569 
L 269.323636 184.776651 
L 271.069091 197.234926 
L 276.305455 205.231904 
L 278.050909 194.659485 
L 279.796364 160.5348 
L 281.541818 152.303231 
L 283.287273 141.252453 
L 288.523636 146.982399 
L 290.269091 136.04283 
L 292.014545 147.601515 
L 293.76 138.219866 
L 295.505455 138.788596 
L 300.741818 136.36272 
L 302.487273 118.94812 
L 304.232727 125.737565 
L 305.978182 139.780675 
L 307.723636 130.809124 
L 312.96 122.429219 
L 314.705455 137.725679 
L 316.450909 148.732704 
L 318.196364 149.040054 
L 319.941818 150.605441 
L 325.178182 161.837998 
L 326.923636 165.935601 
L 328.669091 153.507964 
L 330.414545 162.985619 
L 337.396364 166.383473 
L 339.141818 156.888794 
L 340.887273 156.960538 
L 342.632727 172.373734 
L 344.378182 190.040941 
L 349.614545 190.443216 
L 351.36 214.901895 
L 353.105455 211.127355 
L 354.850909 195.031479 
L 356.596364 212.441999 
L 361.832727 210.297242 
L 363.578182 205.36279 
L 365.323636 186.873604 
L 367.069091 218.67611 
L 368.814545 228.094241 
L 374.050909 257.265046 
L 375.796364 254.608521 
L 377.541818 265.384586 
L 379.287273 265.627783 
L 381.032727 242.183143 
L 386.269091 245.492964 
L 388.014545 227.590381 
L 389.76 253.315999 
L 391.505455 248.986441 
L 393.250909 246.342417 
L 398.487273 234.788957 
L 398.487273 234.788957 
" style="fill:none;stroke:#008000;stroke-linecap:square;stroke-opacity:0.9;stroke-width:2;"/>
   </g>
   <g id="line2d_16">
    <path clip-path="url(#pa07b793f1a)" d="M 73.832727 52.154182 
L 75.578182 56.519954 
L 80.814545 64.659983 
L 82.56 64.810713 
L 84.305455 65.298775 
L 87.796364 90.141738 
L 93.032727 84.498711 
L 94.778182 97.514551 
L 96.523636 108.356326 
L 98.269091 92.590893 
L 100.014545 103.526601 
L 105.250909 93.36815 
L 106.996364 73.875519 
L 108.741818 69.033426 
L 110.487273 79.679328 
L 112.232727 76.26459 
L 117.469091 87.620901 
L 119.214545 93.01136 
L 120.96 82.964646 
L 122.705455 89.251406 
L 124.450909 94.751791 
L 129.687273 111.971723 
L 131.432727 95.271722 
L 133.178182 86.208543 
L 134.923636 80.06374 
L 141.905455 72.428853 
L 143.650909 74.69436 
L 145.396364 75.716777 
L 147.141818 73.970787 
L 148.887273 76.868793 
L 154.123636 70.420978 
L 155.869091 71.902678 
L 157.614545 89.793915 
L 161.105455 90.745946 
L 166.341818 93.609633 
L 168.087273 80.507945 
L 169.832727 74.453434 
L 171.578182 87.339812 
L 173.323636 87.351694 
L 180.305455 105.754324 
L 182.050909 109.60425 
L 183.796364 116.501643 
L 185.541818 132.96244 
L 190.778182 134.308586 
L 192.523636 143.528134 
L 194.269091 149.753897 
L 196.014545 157.504185 
L 197.76 144.789914 
L 202.996364 122.789059 
L 204.741818 113.847581 
L 206.487273 111.356844 
L 208.232727 129.250383 
L 209.978182 123.884203 
L 215.214545 123.649223 
L 216.96 116.084695 
L 218.705455 99.551491 
L 220.450909 111.957801 
L 222.196364 127.961416 
L 227.432727 133.019079 
L 229.178182 114.572341 
L 230.923636 111.556636 
L 232.669091 130.018293 
L 234.414545 137.152035 
L 241.396364 149.383371 
L 243.141818 162.369624 
L 244.887273 159.407225 
L 246.632727 139.520978 
L 251.869091 145.489655 
L 253.614545 160.190985 
L 255.36 147.562007 
L 257.105455 159.916399 
L 258.850909 175.394286 
L 264.087273 203.981464 
L 265.832727 203.255693 
L 267.578182 177.009075 
L 269.323636 184.264618 
L 271.069091 197.162609 
L 276.305455 205.206897 
L 278.050909 194.222895 
L 279.796364 159.807744 
L 281.541818 152.084323 
L 283.287273 140.822856 
L 288.523636 146.518858 
L 290.269091 135.460722 
L 292.014545 147.169334 
L 293.76 138.19288 
L 295.505455 138.034396 
L 300.741818 135.848003 
L 302.487273 118.642444 
L 304.232727 125.538152 
L 305.978182 139.139594 
L 307.723636 131.079646 
L 312.96 122.554849 
L 314.705455 136.997516 
L 316.450909 148.898928 
L 318.196364 149.319582 
L 319.941818 150.371017 
L 325.178182 162.21987 
L 326.923636 165.380427 
L 328.669091 153.002924 
L 330.414545 162.285732 
L 337.396364 166.409496 
L 339.141818 157.119429 
L 340.887273 157.195991 
L 342.632727 172.376027 
L 344.378182 189.927116 
L 349.614545 190.383369 
L 351.36 214.733985 
L 353.105455 210.485505 
L 354.850909 194.594453 
L 356.596364 212.811036 
L 361.832727 210.505519 
L 363.578182 205.032963 
L 365.323636 186.577072 
L 367.069091 218.494346 
L 374.050909 256.877498 
L 375.796364 254.982309 
L 377.541818 265.420847 
L 379.287273 264.534659 
L 381.032727 241.729653 
L 386.269091 245.414273 
L 388.014545 227.238792 
L 389.76 252.211308 
L 391.505455 248.350996 
L 393.250909 246.244682 
L 398.487273 234.803715 
L 398.487273 234.803715 
" style="fill:none;stroke:#ec5283;stroke-linecap:square;stroke-width:2;"/>
   </g>
   <g id="line2d_17">
    <path clip-path="url(#pa07b793f1a)" d="M 73.832727 52.154182 
L 75.578182 56.900233 
L 80.814545 64.718835 
L 82.56 64.553375 
L 84.305455 65.0426 
L 87.796364 90.480319 
L 93.032727 84.661448 
L 94.778182 97.355871 
L 96.523636 108.259514 
L 98.269091 92.879783 
L 100.014545 103.618689 
L 105.250909 93.748421 
L 106.996364 74.014331 
L 108.741818 69.530089 
L 110.487273 79.573435 
L 112.232727 75.968745 
L 117.469091 87.563451 
L 119.214545 93.022968 
L 120.96 83.273652 
L 122.705455 89.470842 
L 129.687273 111.776784 
L 131.432727 94.362749 
L 133.178182 86.066351 
L 134.923636 79.726398 
L 141.905455 72.211798 
L 143.650909 75.129541 
L 145.396364 75.446838 
L 147.141818 73.968326 
L 148.887273 76.421665 
L 154.123636 70.467447 
L 155.869091 72.114327 
L 157.614545 90.081712 
L 159.36 90.224997 
L 161.105455 90.19267 
L 166.341818 93.440097 
L 168.087273 80.474207 
L 169.832727 74.921319 
L 171.578182 87.376741 
L 173.323636 87.569508 
L 180.305455 105.391674 
L 182.050909 109.538943 
L 183.796364 116.287856 
L 185.541818 133.165175 
L 190.778182 133.616893 
L 192.523636 142.58527 
L 194.269091 148.685705 
L 196.014545 157.06041 
L 197.76 144.737752 
L 204.741818 114.672671 
L 206.487273 111.307299 
L 208.232727 128.70343 
L 209.978182 124.193787 
L 215.214545 123.73696 
L 216.96 115.629998 
L 218.705455 100.323279 
L 220.450909 112.630235 
L 222.196364 127.662319 
L 227.432727 132.905076 
L 229.178182 114.768659 
L 230.923636 111.459131 
L 232.669091 130.403806 
L 234.414545 137.832303 
L 241.396364 149.396913 
L 243.141818 162.399502 
L 244.887273 160.163427 
L 246.632727 139.131689 
L 251.869091 145.203841 
L 253.614545 159.881108 
L 255.36 148.384405 
L 257.105455 160.180125 
L 258.850909 176.215083 
L 264.087273 204.741855 
L 265.832727 203.193513 
L 267.578182 176.637806 
L 269.323636 183.988835 
L 271.069091 196.89042 
L 276.305455 205.464486 
L 278.050909 194.343724 
L 279.796364 159.570963 
L 281.541818 152.173784 
L 283.287273 140.397839 
L 288.523636 146.809461 
L 290.269091 135.247196 
L 292.014545 147.923834 
L 293.76 138.272368 
L 295.505455 138.154809 
L 300.741818 135.88938 
L 302.487273 118.783404 
L 304.232727 125.485947 
L 305.978182 138.992242 
L 307.723636 130.44718 
L 312.96 122.283806 
L 314.705455 137.791795 
L 316.450909 149.27491 
L 318.196364 149.570526 
L 319.941818 150.302924 
L 325.178182 162.450208 
L 326.923636 165.662804 
L 328.669091 153.49969 
L 330.414545 162.55817 
L 337.396364 165.798862 
L 339.141818 156.529367 
L 340.887273 156.635447 
L 342.632727 171.743251 
L 344.378182 189.951781 
L 349.614545 190.566539 
L 351.36 214.080736 
L 353.105455 210.668197 
L 354.850909 194.146564 
L 356.596364 212.157012 
L 361.832727 209.779601 
L 363.578182 205.230836 
L 365.323636 186.572226 
L 367.069091 218.297638 
L 368.814545 228.136399 
L 374.050909 256.505457 
L 375.796364 254.659888 
L 377.541818 264.583185 
L 379.287273 264.8386 
L 381.032727 242.198439 
L 386.269091 244.468227 
L 388.014545 227.208526 
L 389.76 252.64972 
L 391.505455 248.607167 
L 393.250909 246.374413 
L 398.487273 235.39495 
L 398.487273 235.39495 
" style="fill:none;stroke:#00ff00;stroke-linecap:square;stroke-opacity:0.9;stroke-width:2;"/>
   </g>
   <g id="line2d_18">
    <path clip-path="url(#pa07b793f1a)" d="M 73.832727 52.154182 
L 75.578182 57.354831 
L 80.814545 66.521686 
L 82.56 67.225498 
L 84.305455 68.912176 
L 87.796364 95.214443 
L 93.032727 92.590391 
L 96.523636 111.046737 
L 98.269091 95.616177 
L 100.014545 106.702975 
L 105.250909 96.924564 
L 106.996364 77.423344 
L 108.741818 72.41205 
L 110.487273 83.147258 
L 112.232727 81.908051 
L 117.469091 94.25518 
L 119.214545 99.686719 
L 120.96 91.068365 
L 124.450909 100.259662 
L 129.687273 110.730619 
L 131.432727 92.479715 
L 133.178182 84.883684 
L 134.923636 78.57559 
L 141.905455 71.541776 
L 143.650909 74.720339 
L 145.396364 76.04628 
L 147.141818 72.529661 
L 148.887273 74.404608 
L 154.123636 68.15298 
L 155.869091 70.239901 
L 157.614545 87.640306 
L 159.36 86.889061 
L 161.105455 86.642939 
L 166.341818 89.19533 
L 168.087273 76.219831 
L 169.832727 69.974584 
L 171.578182 83.608758 
L 173.323636 83.670001 
L 180.305455 103.908431 
L 182.050909 112.588594 
L 183.796364 123.113359 
L 185.541818 142.215833 
L 190.778182 136.756747 
L 192.523636 148.868103 
L 194.269091 153.910079 
L 196.014545 162.693745 
L 197.76 143.232401 
L 202.996364 120.736673 
L 204.741818 111.86978 
L 206.487273 109.313289 
L 208.232727 130.256612 
L 209.978182 123.460267 
L 215.214545 123.122589 
L 216.96 114.78915 
L 218.705455 98.004317 
L 220.450909 111.758314 
L 222.196364 128.943938 
L 227.432727 132.910002 
L 229.178182 114.508519 
L 230.923636 113.238323 
L 232.669091 134.244234 
L 234.414545 142.20998 
L 241.396364 153.369947 
L 243.141818 168.217302 
L 244.887273 156.123007 
L 246.632727 135.929179 
L 251.869091 138.348551 
L 253.614545 154.236562 
L 255.36 140.349164 
L 257.105455 152.741012 
L 258.850909 170.299858 
L 264.087273 199.185516 
L 265.832727 195.399309 
L 267.578182 166.362234 
L 269.323636 176.181049 
L 271.069091 189.214901 
L 276.305455 198.434722 
L 278.050909 191.045948 
L 279.796364 147.342467 
L 281.541818 142.403081 
L 283.287273 130.25442 
L 288.523636 137.86036 
L 290.269091 125.771059 
L 292.014545 136.561103 
L 293.76 128.899843 
L 295.505455 130.768023 
L 300.741818 128.900447 
L 302.487273 110.578296 
L 304.232727 116.681136 
L 305.978182 130.634674 
L 307.723636 119.740028 
L 312.96 110.820784 
L 314.705455 126.1904 
L 316.450909 138.427276 
L 318.196364 140.852673 
L 319.941818 141.573049 
L 326.923636 155.870726 
L 328.669091 143.270137 
L 330.414545 151.092856 
L 337.396364 155.468069 
L 339.141818 149.789567 
L 340.887273 149.724934 
L 344.378182 180.2902 
L 349.614545 182.301344 
L 351.36 206.151498 
L 353.105455 200.521179 
L 354.850909 186.270798 
L 356.596364 198.364462 
L 361.832727 196.896804 
L 363.578182 191.194152 
L 365.323636 173.395726 
L 367.069091 206.531092 
L 368.814545 217.820179 
L 374.050909 248.463622 
L 375.796364 246.050833 
L 377.541818 258.046225 
L 379.287273 255.634139 
L 381.032727 231.900579 
L 386.269091 236.172457 
L 388.014545 217.352736 
L 389.76 246.138495 
L 391.505455 244.170573 
L 393.250909 243.559562 
L 398.487273 231.279349 
L 398.487273 231.279349 
" style="fill:none;stroke:#a5b9cf;stroke-linecap:square;stroke-width:2;"/>
   </g>
   <g id="patch_3">
    <path d="M 57.6 276.48 
L 57.6 41.472 
" style="fill:none;stroke:#000000;stroke-linecap:square;stroke-linejoin:miter;stroke-width:0.8;"/>
   </g>
   <g id="patch_4">
    <path d="M 414.72 276.48 
L 414.72 41.472 
" style="fill:none;stroke:#000000;stroke-linecap:square;stroke-linejoin:miter;stroke-width:0.8;"/>
   </g>
   <g id="patch_5">
    <path d="M 57.6 276.48 
L 414.72 276.48 
" style="fill:none;stroke:#000000;stroke-linecap:square;stroke-linejoin:miter;stroke-width:0.8;"/>
   </g>
   <g id="patch_6">
    <path d="M 57.6 41.472 
L 414.72 41.472 
" style="fill:none;stroke:#000000;stroke-linecap:square;stroke-linejoin:miter;stroke-width:0.8;"/>
   </g>
   <g id="text_14">
    <!-- VFUNDS -->
    <g transform="translate(211.295625 22.034625)scale(0.12 -0.12)">
     <defs>
      <path d="M 1831 0 
L 50 4666 
L 709 4666 
L 2188 738 
L 3669 4666 
L 4325 4666 
L 2547 0 
L 1831 0 
z
" id="DejaVuSans-56" transform="scale(0.015625)"/>
      <path d="M 628 4666 
L 3309 4666 
L 3309 4134 
L 1259 4134 
L 1259 2759 
L 3109 2759 
L 3109 2228 
L 1259 2228 
L 1259 0 
L 628 0 
L 628 4666 
z
" id="DejaVuSans-46" transform="scale(0.015625)"/>
      <path d="M 556 4666 
L 1191 4666 
L 1191 1831 
Q 1191 1081 1462 751 
Q 1734 422 2344 422 
Q 2950 422 3222 751 
Q 3494 1081 3494 1831 
L 3494 4666 
L 4128 4666 
L 4128 1753 
Q 4128 841 3676 375 
Q 3225 -91 2344 -91 
Q 1459 -91 1007 375 
Q 556 841 556 1753 
L 556 4666 
z
" id="DejaVuSans-55" transform="scale(0.015625)"/>
      <path d="M 628 4666 
L 1478 4666 
L 3547 763 
L 3547 4666 
L 4159 4666 
L 4159 0 
L 3309 0 
L 1241 3903 
L 1241 0 
L 628 0 
L 628 4666 
z
" id="DejaVuSans-4e" transform="scale(0.015625)"/>
      <path d="M 1259 4147 
L 1259 519 
L 2022 519 
Q 2988 519 3436 956 
Q 3884 1394 3884 2338 
Q 3884 3275 3436 3711 
Q 2988 4147 2022 4147 
L 1259 4147 
z
M 628 4666 
L 1925 4666 
Q 3281 4666 3915 4102 
Q 4550 3538 4550 2338 
Q 4550 1131 3912 565 
Q 3275 0 1925 0 
L 628 0 
L 628 4666 
z
" id="DejaVuSans-44" transform="scale(0.015625)"/>
      <path d="M 3425 4513 
L 3425 3897 
Q 3066 4069 2747 4153 
Q 2428 4238 2131 4238 
Q 1616 4238 1336 4038 
Q 1056 3838 1056 3469 
Q 1056 3159 1242 3001 
Q 1428 2844 1947 2747 
L 2328 2669 
Q 3034 2534 3370 2195 
Q 3706 1856 3706 1288 
Q 3706 609 3251 259 
Q 2797 -91 1919 -91 
Q 1588 -91 1214 -16 
Q 841 59 441 206 
L 441 856 
Q 825 641 1194 531 
Q 1563 422 1919 422 
Q 2459 422 2753 634 
Q 3047 847 3047 1241 
Q 3047 1584 2836 1778 
Q 2625 1972 2144 2069 
L 1759 2144 
Q 1053 2284 737 2584 
Q 422 2884 422 3419 
Q 422 4038 858 4394 
Q 1294 4750 2059 4750 
Q 2388 4750 2728 4690 
Q 3069 4631 3425 4513 
z
" id="DejaVuSans-53" transform="scale(0.015625)"/>
     </defs>
     <use xlink:href="#DejaVuSans-56"/>
     <use x="68.408203" xlink:href="#DejaVuSans-46"/>
     <use x="125.927734" xlink:href="#DejaVuSans-55"/>
     <use x="199.121094" xlink:href="#DejaVuSans-4e"/>
     <use x="273.925781" xlink:href="#DejaVuSans-44"/>
     <use x="350.927734" xlink:href="#DejaVuSans-53"/>
    </g>
    <!-- daily_report -->
    <g transform="translate(200.466563 35.472)scale(0.12 -0.12)">
     <defs>
      <path d="M 603 3500 
L 1178 3500 
L 1178 0 
L 603 0 
L 603 3500 
z
M 603 4863 
L 1178 4863 
L 1178 4134 
L 603 4134 
L 603 4863 
z
" id="DejaVuSans-69" transform="scale(0.015625)"/>
      <path d="M 603 4863 
L 1178 4863 
L 1178 0 
L 603 0 
L 603 4863 
z
" id="DejaVuSans-6c" transform="scale(0.015625)"/>
      <path d="M 2059 -325 
Q 1816 -950 1584 -1140 
Q 1353 -1331 966 -1331 
L 506 -1331 
L 506 -850 
L 844 -850 
Q 1081 -850 1212 -737 
Q 1344 -625 1503 -206 
L 1606 56 
L 191 3500 
L 800 3500 
L 1894 763 
L 2988 3500 
L 3597 3500 
L 2059 -325 
z
" id="DejaVuSans-79" transform="scale(0.015625)"/>
      <path d="M 3263 -1063 
L 3263 -1509 
L -63 -1509 
L -63 -1063 
L 3263 -1063 
z
" id="DejaVuSans-5f" transform="scale(0.015625)"/>
      <path d="M 2631 2963 
Q 2534 3019 2420 3045 
Q 2306 3072 2169 3072 
Q 1681 3072 1420 2755 
Q 1159 2438 1159 1844 
L 1159 0 
L 581 0 
L 581 3500 
L 1159 3500 
L 1159 2956 
Q 1341 3275 1631 3429 
Q 1922 3584 2338 3584 
Q 2397 3584 2469 3576 
Q 2541 3569 2628 3553 
L 2631 2963 
z
" id="DejaVuSans-72" transform="scale(0.015625)"/>
      <path d="M 1159 525 
L 1159 -1331 
L 581 -1331 
L 581 3500 
L 1159 3500 
L 1159 2969 
Q 1341 3281 1617 3432 
Q 1894 3584 2278 3584 
Q 2916 3584 3314 3078 
Q 3713 2572 3713 1747 
Q 3713 922 3314 415 
Q 2916 -91 2278 -91 
Q 1894 -91 1617 61 
Q 1341 213 1159 525 
z
M 3116 1747 
Q 3116 2381 2855 2742 
Q 2594 3103 2138 3103 
Q 1681 3103 1420 2742 
Q 1159 2381 1159 1747 
Q 1159 1113 1420 752 
Q 1681 391 2138 391 
Q 2594 391 2855 752 
Q 3116 1113 3116 1747 
z
" id="DejaVuSans-70" transform="scale(0.015625)"/>
      <path d="M 1959 3097 
Q 1497 3097 1228 2736 
Q 959 2375 959 1747 
Q 959 1119 1226 758 
Q 1494 397 1959 397 
Q 2419 397 2687 759 
Q 2956 1122 2956 1747 
Q 2956 2369 2687 2733 
Q 2419 3097 1959 3097 
z
M 1959 3584 
Q 2709 3584 3137 3096 
Q 3566 2609 3566 1747 
Q 3566 888 3137 398 
Q 2709 -91 1959 -91 
Q 1206 -91 779 398 
Q 353 888 353 1747 
Q 353 2609 779 3096 
Q 1206 3584 1959 3584 
z
" id="DejaVuSans-6f" transform="scale(0.015625)"/>
     </defs>
     <use xlink:href="#DejaVuSans-64"/>
     <use x="63.476562" xlink:href="#DejaVuSans-61"/>
     <use x="124.755859" xlink:href="#DejaVuSans-69"/>
     <use x="152.539062" xlink:href="#DejaVuSans-6c"/>
     <use x="180.322266" xlink:href="#DejaVuSans-79"/>
     <use x="239.501953" xlink:href="#DejaVuSans-5f"/>
     <use x="289.501953" xlink:href="#DejaVuSans-72"/>
     <use x="328.365234" xlink:href="#DejaVuSans-65"/>
     <use x="389.888672" xlink:href="#DejaVuSans-70"/>
     <use x="453.365234" xlink:href="#DejaVuSans-6f"/>
     <use x="514.546875" xlink:href="#DejaVuSans-72"/>
     <use x="555.660156" xlink:href="#DejaVuSans-74"/>
    </g>
   </g>
   <g id="legend_1">
    <g id="patch_7">
     <path d="M 64.6 271.48 
L 178.64375 271.48 
Q 180.64375 271.48 180.64375 269.48 
L 180.64375 182.41125 
Q 180.64375 180.41125 178.64375 180.41125 
L 64.6 180.41125 
Q 62.6 180.41125 62.6 182.41125 
L 62.6 269.48 
Q 62.6 271.48 64.6 271.48 
z
" style="fill:#ffffff;opacity:0.8;stroke:#cccccc;stroke-linejoin:miter;"/>
    </g>
    <g id="line2d_19">
     <path d="M 66.6 188.509687 
L 86.6 188.509687 
" style="fill:none;stroke:#0000ff;stroke-linecap:square;stroke-opacity:0.9;stroke-width:2;"/>
    </g>
    <g id="line2d_20"/>
    <g id="text_15">
     <!-- alpaca -->
     <g transform="translate(94.6 192.009687)scale(0.1 -0.1)">
      <defs>
       <path d="M 3122 3366 
L 3122 2828 
Q 2878 2963 2633 3030 
Q 2388 3097 2138 3097 
Q 1578 3097 1268 2742 
Q 959 2388 959 1747 
Q 959 1106 1268 751 
Q 1578 397 2138 397 
Q 2388 397 2633 464 
Q 2878 531 3122 666 
L 3122 134 
Q 2881 22 2623 -34 
Q 2366 -91 2075 -91 
Q 1284 -91 818 406 
Q 353 903 353 1747 
Q 353 2603 823 3093 
Q 1294 3584 2113 3584 
Q 2378 3584 2631 3529 
Q 2884 3475 3122 3366 
z
" id="DejaVuSans-63" transform="scale(0.015625)"/>
      </defs>
      <use xlink:href="#DejaVuSans-61"/>
      <use x="61.279297" xlink:href="#DejaVuSans-6c"/>
      <use x="89.0625" xlink:href="#DejaVuSans-70"/>
      <use x="152.539062" xlink:href="#DejaVuSans-61"/>
      <use x="213.818359" xlink:href="#DejaVuSans-63"/>
      <use x="268.798828" xlink:href="#DejaVuSans-61"/>
     </g>
    </g>
    <g id="line2d_21">
     <path d="M 66.6 203.187812 
L 86.6 203.187812 
" style="fill:none;stroke:#ff0000;stroke-linecap:square;stroke-opacity:0.9;stroke-width:2;"/>
    </g>
    <g id="line2d_22"/>
    <g id="text_16">
     <!-- mattress -->
     <g transform="translate(94.6 206.687812)scale(0.1 -0.1)">
      <defs>
       <path d="M 3328 2828 
Q 3544 3216 3844 3400 
Q 4144 3584 4550 3584 
Q 5097 3584 5394 3201 
Q 5691 2819 5691 2113 
L 5691 0 
L 5113 0 
L 5113 2094 
Q 5113 2597 4934 2840 
Q 4756 3084 4391 3084 
Q 3944 3084 3684 2787 
Q 3425 2491 3425 1978 
L 3425 0 
L 2847 0 
L 2847 2094 
Q 2847 2600 2669 2842 
Q 2491 3084 2119 3084 
Q 1678 3084 1418 2786 
Q 1159 2488 1159 1978 
L 1159 0 
L 581 0 
L 581 3500 
L 1159 3500 
L 1159 2956 
Q 1356 3278 1631 3431 
Q 1906 3584 2284 3584 
Q 2666 3584 2933 3390 
Q 3200 3197 3328 2828 
z
" id="DejaVuSans-6d" transform="scale(0.015625)"/>
       <path d="M 2834 3397 
L 2834 2853 
Q 2591 2978 2328 3040 
Q 2066 3103 1784 3103 
Q 1356 3103 1142 2972 
Q 928 2841 928 2578 
Q 928 2378 1081 2264 
Q 1234 2150 1697 2047 
L 1894 2003 
Q 2506 1872 2764 1633 
Q 3022 1394 3022 966 
Q 3022 478 2636 193 
Q 2250 -91 1575 -91 
Q 1294 -91 989 -36 
Q 684 19 347 128 
L 347 722 
Q 666 556 975 473 
Q 1284 391 1588 391 
Q 1994 391 2212 530 
Q 2431 669 2431 922 
Q 2431 1156 2273 1281 
Q 2116 1406 1581 1522 
L 1381 1569 
Q 847 1681 609 1914 
Q 372 2147 372 2553 
Q 372 3047 722 3315 
Q 1072 3584 1716 3584 
Q 2034 3584 2315 3537 
Q 2597 3491 2834 3397 
z
" id="DejaVuSans-73" transform="scale(0.015625)"/>
      </defs>
      <use xlink:href="#DejaVuSans-6d"/>
      <use x="97.412109" xlink:href="#DejaVuSans-61"/>
      <use x="158.691406" xlink:href="#DejaVuSans-74"/>
      <use x="197.900391" xlink:href="#DejaVuSans-74"/>
      <use x="237.109375" xlink:href="#DejaVuSans-72"/>
      <use x="275.972656" xlink:href="#DejaVuSans-65"/>
      <use x="337.496094" xlink:href="#DejaVuSans-73"/>
      <use x="389.595703" xlink:href="#DejaVuSans-73"/>
     </g>
    </g>
    <g id="line2d_23">
     <path d="M 66.6 217.865937 
L 86.6 217.865937 
" style="fill:none;stroke:#008000;stroke-linecap:square;stroke-opacity:0.9;stroke-width:2;"/>
    </g>
    <g id="line2d_24"/>
    <g id="text_17">
     <!-- daily-open-rebal -->
     <g transform="translate(94.6 221.365937)scale(0.1 -0.1)">
      <defs>
       <path d="M 3513 2113 
L 3513 0 
L 2938 0 
L 2938 2094 
Q 2938 2591 2744 2837 
Q 2550 3084 2163 3084 
Q 1697 3084 1428 2787 
Q 1159 2491 1159 1978 
L 1159 0 
L 581 0 
L 581 3500 
L 1159 3500 
L 1159 2956 
Q 1366 3272 1645 3428 
Q 1925 3584 2291 3584 
Q 2894 3584 3203 3211 
Q 3513 2838 3513 2113 
z
" id="DejaVuSans-6e" transform="scale(0.015625)"/>
       <path d="M 3116 1747 
Q 3116 2381 2855 2742 
Q 2594 3103 2138 3103 
Q 1681 3103 1420 2742 
Q 1159 2381 1159 1747 
Q 1159 1113 1420 752 
Q 1681 391 2138 391 
Q 2594 391 2855 752 
Q 3116 1113 3116 1747 
z
M 1159 2969 
Q 1341 3281 1617 3432 
Q 1894 3584 2278 3584 
Q 2916 3584 3314 3078 
Q 3713 2572 3713 1747 
Q 3713 922 3314 415 
Q 2916 -91 2278 -91 
Q 1894 -91 1617 61 
Q 1341 213 1159 525 
L 1159 0 
L 581 0 
L 581 4863 
L 1159 4863 
L 1159 2969 
z
" id="DejaVuSans-62" transform="scale(0.015625)"/>
      </defs>
      <use xlink:href="#DejaVuSans-64"/>
      <use x="63.476562" xlink:href="#DejaVuSans-61"/>
      <use x="124.755859" xlink:href="#DejaVuSans-69"/>
      <use x="152.539062" xlink:href="#DejaVuSans-6c"/>
      <use x="180.322266" xlink:href="#DejaVuSans-79"/>
      <use x="237.751953" xlink:href="#DejaVuSans-2d"/>
      <use x="275.710938" xlink:href="#DejaVuSans-6f"/>
      <use x="336.892578" xlink:href="#DejaVuSans-70"/>
      <use x="400.369141" xlink:href="#DejaVuSans-65"/>
      <use x="461.892578" xlink:href="#DejaVuSans-6e"/>
      <use x="525.271484" xlink:href="#DejaVuSans-2d"/>
      <use x="561.355469" xlink:href="#DejaVuSans-72"/>
      <use x="600.21875" xlink:href="#DejaVuSans-65"/>
      <use x="661.742188" xlink:href="#DejaVuSans-62"/>
      <use x="725.21875" xlink:href="#DejaVuSans-61"/>
      <use x="786.498047" xlink:href="#DejaVuSans-6c"/>
     </g>
    </g>
    <g id="line2d_25">
     <path d="M 66.6 232.544062 
L 86.6 232.544062 
" style="fill:none;stroke:#ec5283;stroke-linecap:square;stroke-width:2;"/>
    </g>
    <g id="line2d_26"/>
    <g id="text_18">
     <!-- daily-close-rebal -->
     <g transform="translate(94.6 236.044062)scale(0.1 -0.1)">
      <use xlink:href="#DejaVuSans-64"/>
      <use x="63.476562" xlink:href="#DejaVuSans-61"/>
      <use x="124.755859" xlink:href="#DejaVuSans-69"/>
      <use x="152.539062" xlink:href="#DejaVuSans-6c"/>
      <use x="180.322266" xlink:href="#DejaVuSans-79"/>
      <use x="237.751953" xlink:href="#DejaVuSans-2d"/>
      <use x="273.835938" xlink:href="#DejaVuSans-63"/>
      <use x="328.816406" xlink:href="#DejaVuSans-6c"/>
      <use x="356.599609" xlink:href="#DejaVuSans-6f"/>
      <use x="417.78125" xlink:href="#DejaVuSans-73"/>
      <use x="469.880859" xlink:href="#DejaVuSans-65"/>
      <use x="531.404297" xlink:href="#DejaVuSans-2d"/>
      <use x="567.488281" xlink:href="#DejaVuSans-72"/>
      <use x="606.351562" xlink:href="#DejaVuSans-65"/>
      <use x="667.875" xlink:href="#DejaVuSans-62"/>
      <use x="731.351562" xlink:href="#DejaVuSans-61"/>
      <use x="792.630859" xlink:href="#DejaVuSans-6c"/>
     </g>
    </g>
    <g id="line2d_27">
     <path d="M 66.6 247.222187 
L 86.6 247.222187 
" style="fill:none;stroke:#00ff00;stroke-linecap:square;stroke-opacity:0.9;stroke-width:2;"/>
    </g>
    <g id="line2d_28"/>
    <g id="text_19">
     <!-- trader-baseline -->
     <g transform="translate(94.6 250.722187)scale(0.1 -0.1)">
      <use xlink:href="#DejaVuSans-74"/>
      <use x="39.208984" xlink:href="#DejaVuSans-72"/>
      <use x="80.322266" xlink:href="#DejaVuSans-61"/>
      <use x="141.601562" xlink:href="#DejaVuSans-64"/>
      <use x="205.078125" xlink:href="#DejaVuSans-65"/>
      <use x="266.601562" xlink:href="#DejaVuSans-72"/>
      <use x="301.339844" xlink:href="#DejaVuSans-2d"/>
      <use x="337.423828" xlink:href="#DejaVuSans-62"/>
      <use x="400.900391" xlink:href="#DejaVuSans-61"/>
      <use x="462.179688" xlink:href="#DejaVuSans-73"/>
      <use x="514.279297" xlink:href="#DejaVuSans-65"/>
      <use x="575.802734" xlink:href="#DejaVuSans-6c"/>
      <use x="603.585938" xlink:href="#DejaVuSans-69"/>
      <use x="631.369141" xlink:href="#DejaVuSans-6e"/>
      <use x="694.748047" xlink:href="#DejaVuSans-65"/>
     </g>
    </g>
    <g id="line2d_29">
     <path d="M 66.6 261.900312 
L 86.6 261.900312 
" style="fill:none;stroke:#a5b9cf;stroke-linecap:square;stroke-width:2;"/>
    </g>
    <g id="line2d_30"/>
    <g id="text_20">
     <!-- default-cfg -->
     <g transform="translate(94.6 265.400312)scale(0.1 -0.1)">
      <defs>
       <path d="M 2375 4863 
L 2375 4384 
L 1825 4384 
Q 1516 4384 1395 4259 
Q 1275 4134 1275 3809 
L 1275 3500 
L 2222 3500 
L 2222 3053 
L 1275 3053 
L 1275 0 
L 697 0 
L 697 3053 
L 147 3053 
L 147 3500 
L 697 3500 
L 697 3744 
Q 697 4328 969 4595 
Q 1241 4863 1831 4863 
L 2375 4863 
z
" id="DejaVuSans-66" transform="scale(0.015625)"/>
       <path d="M 544 1381 
L 544 3500 
L 1119 3500 
L 1119 1403 
Q 1119 906 1312 657 
Q 1506 409 1894 409 
Q 2359 409 2629 706 
Q 2900 1003 2900 1516 
L 2900 3500 
L 3475 3500 
L 3475 0 
L 2900 0 
L 2900 538 
Q 2691 219 2414 64 
Q 2138 -91 1772 -91 
Q 1169 -91 856 284 
Q 544 659 544 1381 
z
M 1991 3584 
L 1991 3584 
z
" id="DejaVuSans-75" transform="scale(0.015625)"/>
       <path d="M 2906 1791 
Q 2906 2416 2648 2759 
Q 2391 3103 1925 3103 
Q 1463 3103 1205 2759 
Q 947 2416 947 1791 
Q 947 1169 1205 825 
Q 1463 481 1925 481 
Q 2391 481 2648 825 
Q 2906 1169 2906 1791 
z
M 3481 434 
Q 3481 -459 3084 -895 
Q 2688 -1331 1869 -1331 
Q 1566 -1331 1297 -1286 
Q 1028 -1241 775 -1147 
L 775 -588 
Q 1028 -725 1275 -790 
Q 1522 -856 1778 -856 
Q 2344 -856 2625 -561 
Q 2906 -266 2906 331 
L 2906 616 
Q 2728 306 2450 153 
Q 2172 0 1784 0 
Q 1141 0 747 490 
Q 353 981 353 1791 
Q 353 2603 747 3093 
Q 1141 3584 1784 3584 
Q 2172 3584 2450 3431 
Q 2728 3278 2906 2969 
L 2906 3500 
L 3481 3500 
L 3481 434 
z
" id="DejaVuSans-67" transform="scale(0.015625)"/>
      </defs>
      <use xlink:href="#DejaVuSans-64"/>
      <use x="63.476562" xlink:href="#DejaVuSans-65"/>
      <use x="125" xlink:href="#DejaVuSans-66"/>
      <use x="160.205078" xlink:href="#DejaVuSans-61"/>
      <use x="221.484375" xlink:href="#DejaVuSans-75"/>
      <use x="284.863281" xlink:href="#DejaVuSans-6c"/>
      <use x="312.646484" xlink:href="#DejaVuSans-74"/>
      <use x="351.855469" xlink:href="#DejaVuSans-2d"/>
      <use x="387.939453" xlink:href="#DejaVuSans-63"/>
      <use x="442.919922" xlink:href="#DejaVuSans-66"/>
      <use x="478.125" xlink:href="#DejaVuSans-67"/>
     </g>
    </g>
   </g>
  </g>
 </g>
 <defs>
  <clipPath id="pa07b793f1a">
   <rect height="235.008" width="357.12" x="57.6" y="41.472"/>
  </clipPath>
 </defs>
</svg>
