<?xml version="1.0" encoding="utf-8" standalone="no"?>
<!DOCTYPE svg PUBLIC "-//W3C//DTD SVG 1.1//EN"
  "http://www.w3.org/Graphics/SVG/1.1/DTD/svg11.dtd">
<svg height="345.6pt" version="1.1" viewBox="0 0 460.8 345.6" width="460.8pt" xmlns="http://www.w3.org/2000/svg" xmlns:xlink="http://www.w3.org/1999/xlink">
 <metadata>
  <rdf:RDF xmlns:cc="http://creativecommons.org/ns#" xmlns:dc="http://purl.org/dc/elements/1.1/" xmlns:rdf="http://www.w3.org/1999/02/22-rdf-syntax-ns#">
   <cc:Work>
    <dc:type rdf:resource="http://purl.org/dc/dcmitype/StillImage"/>
    <dc:date>2022-04-29T01:01:55.600693</dc:date>
    <dc:format>image/svg+xml</dc:format>
    <dc:creator>
     <cc:Agent>
      <dc:title>Matplotlib v3.4.3, https://matplotlib.org/</dc:title>
     </cc:Agent>
    </dc:creator>
   </cc:Work>
  </rdf:RDF>
 </metadata>
 <defs>
  <style type="text/css">*{stroke-linecap:butt;stroke-linejoin:round;}</style>
 </defs>
 <g id="figure_1">
  <g id="patch_1">
   <path d="M 0 345.6 
L 460.8 345.6 
L 460.8 0 
L 0 0 
z
" style="fill:#ffffff;"/>
  </g>
  <g id="axes_1">
   <g id="patch_2">
    <path d="M 57.6 276.48 
L 414.72 276.48 
L 414.72 41.472 
L 57.6 41.472 
z
" style="fill:#ffffff;"/>
   </g>
   <g id="matplotlib.axis_1">
    <g id="xtick_1">
     <g id="line2d_1">
      <defs>
       <path d="M 0 0 
L 0 3.5 
" id="md88368ff08" style="stroke:#000000;stroke-width:0.8;"/>
      </defs>
      <g>
       <use style="stroke:#000000;stroke-width:0.8;" x="85.614545" xlink:href="#md88368ff08" y="276.48"/>
      </g>
     </g>
     <g id="text_1">
      <!-- 2021-09 -->
      <g transform="translate(48.389725 310.951846)rotate(-30)scale(0.1 -0.1)">
       <defs>
        <path d="M 1228 531 
L 3431 531 
L 3431 0 
L 469 0 
L 469 531 
Q 828 903 1448 1529 
Q 2069 2156 2228 2338 
Q 2531 2678 2651 2914 
Q 2772 3150 2772 3378 
Q 2772 3750 2511 3984 
Q 2250 4219 1831 4219 
Q 1534 4219 1204 4116 
Q 875 4013 500 3803 
L 500 4441 
Q 881 4594 1212 4672 
Q 1544 4750 1819 4750 
Q 2544 4750 2975 4387 
Q 3406 4025 3406 3419 
Q 3406 3131 3298 2873 
Q 3191 2616 2906 2266 
Q 2828 2175 2409 1742 
Q 1991 1309 1228 531 
z
" id="DejaVuSans-32" transform="scale(0.015625)"/>
        <path d="M 2034 4250 
Q 1547 4250 1301 3770 
Q 1056 3291 1056 2328 
Q 1056 1369 1301 889 
Q 1547 409 2034 409 
Q 2525 409 2770 889 
Q 3016 1369 3016 2328 
Q 3016 3291 2770 3770 
Q 2525 4250 2034 4250 
z
M 2034 4750 
Q 2819 4750 3233 4129 
Q 3647 3509 3647 2328 
Q 3647 1150 3233 529 
Q 2819 -91 2034 -91 
Q 1250 -91 836 529 
Q 422 1150 422 2328 
Q 422 3509 836 4129 
Q 1250 4750 2034 4750 
z
" id="DejaVuSans-30" transform="scale(0.015625)"/>
        <path d="M 794 531 
L 1825 531 
L 1825 4091 
L 703 3866 
L 703 4441 
L 1819 4666 
L 2450 4666 
L 2450 531 
L 3481 531 
L 3481 0 
L 794 0 
L 794 531 
z
" id="DejaVuSans-31" transform="scale(0.015625)"/>
        <path d="M 313 2009 
L 1997 2009 
L 1997 1497 
L 313 1497 
L 313 2009 
z
" id="DejaVuSans-2d" transform="scale(0.015625)"/>
        <path d="M 703 97 
L 703 672 
Q 941 559 1184 500 
Q 1428 441 1663 441 
Q 2288 441 2617 861 
Q 2947 1281 2994 2138 
Q 2813 1869 2534 1725 
Q 2256 1581 1919 1581 
Q 1219 1581 811 2004 
Q 403 2428 403 3163 
Q 403 3881 828 4315 
Q 1253 4750 1959 4750 
Q 2769 4750 3195 4129 
Q 3622 3509 3622 2328 
Q 3622 1225 3098 567 
Q 2575 -91 1691 -91 
Q 1453 -91 1209 -44 
Q 966 3 703 97 
z
M 1959 2075 
Q 2384 2075 2632 2365 
Q 2881 2656 2881 3163 
Q 2881 3666 2632 3958 
Q 2384 4250 1959 4250 
Q 1534 4250 1286 3958 
Q 1038 3666 1038 3163 
Q 1038 2656 1286 2365 
Q 1534 2075 1959 2075 
z
" id="DejaVuSans-39" transform="scale(0.015625)"/>
       </defs>
       <use xlink:href="#DejaVuSans-32"/>
       <use x="63.623047" xlink:href="#DejaVuSans-30"/>
       <use x="127.246094" xlink:href="#DejaVuSans-32"/>
       <use x="190.869141" xlink:href="#DejaVuSans-31"/>
       <use x="254.492188" xlink:href="#DejaVuSans-2d"/>
       <use x="290.576172" xlink:href="#DejaVuSans-30"/>
       <use x="354.199219" xlink:href="#DejaVuSans-39"/>
      </g>
     </g>
    </g>
    <g id="xtick_2">
     <g id="line2d_2">
      <g>
       <use style="stroke:#000000;stroke-width:0.8;" x="124.887273" xlink:href="#md88368ff08" y="276.48"/>
      </g>
     </g>
     <g id="text_2">
      <!-- 2021-10 -->
      <g transform="translate(87.662452 310.951846)rotate(-30)scale(0.1 -0.1)">
       <use xlink:href="#DejaVuSans-32"/>
       <use x="63.623047" xlink:href="#DejaVuSans-30"/>
       <use x="127.246094" xlink:href="#DejaVuSans-32"/>
       <use x="190.869141" xlink:href="#DejaVuSans-31"/>
       <use x="254.492188" xlink:href="#DejaVuSans-2d"/>
       <use x="290.576172" xlink:href="#DejaVuSans-31"/>
       <use x="354.199219" xlink:href="#DejaVuSans-30"/>
      </g>
     </g>
    </g>
    <g id="xtick_3">
     <g id="line2d_3">
      <g>
       <use style="stroke:#000000;stroke-width:0.8;" x="165.469091" xlink:href="#md88368ff08" y="276.48"/>
      </g>
     </g>
     <g id="text_3">
      <!-- 2021-11 -->
      <g transform="translate(128.24427 310.951846)rotate(-30)scale(0.1 -0.1)">
       <use xlink:href="#DejaVuSans-32"/>
       <use x="63.623047" xlink:href="#DejaVuSans-30"/>
       <use x="127.246094" xlink:href="#DejaVuSans-32"/>
       <use x="190.869141" xlink:href="#DejaVuSans-31"/>
       <use x="254.492188" xlink:href="#DejaVuSans-2d"/>
       <use x="290.576172" xlink:href="#DejaVuSans-31"/>
       <use x="354.199219" xlink:href="#DejaVuSans-31"/>
      </g>
     </g>
    </g>
    <g id="xtick_4">
     <g id="line2d_4">
      <g>
       <use style="stroke:#000000;stroke-width:0.8;" x="204.741818" xlink:href="#md88368ff08" y="276.48"/>
      </g>
     </g>
     <g id="text_4">
      <!-- 2021-12 -->
      <g transform="translate(167.516997 310.951846)rotate(-30)scale(0.1 -0.1)">
       <use xlink:href="#DejaVuSans-32"/>
       <use x="63.623047" xlink:href="#DejaVuSans-30"/>
       <use x="127.246094" xlink:href="#DejaVuSans-32"/>
       <use x="190.869141" xlink:href="#DejaVuSans-31"/>
       <use x="254.492188" xlink:href="#DejaVuSans-2d"/>
       <use x="290.576172" xlink:href="#DejaVuSans-31"/>
       <use x="354.199219" xlink:href="#DejaVuSans-32"/>
      </g>
     </g>
    </g>
    <g id="xtick_5">
     <g id="line2d_5">
      <g>
       <use style="stroke:#000000;stroke-width:0.8;" x="245.323636" xlink:href="#md88368ff08" y="276.48"/>
      </g>
     </g>
     <g id="text_5">
      <!-- 2022-01 -->
      <g transform="translate(208.098816 310.951846)rotate(-30)scale(0.1 -0.1)">
       <use xlink:href="#DejaVuSans-32"/>
       <use x="63.623047" xlink:href="#DejaVuSans-30"/>
       <use x="127.246094" xlink:href="#DejaVuSans-32"/>
       <use x="190.869141" xlink:href="#DejaVuSans-32"/>
       <use x="254.492188" xlink:href="#DejaVuSans-2d"/>
       <use x="290.576172" xlink:href="#DejaVuSans-30"/>
       <use x="354.199219" xlink:href="#DejaVuSans-31"/>
      </g>
     </g>
    </g>
    <g id="xtick_6">
     <g id="line2d_6">
      <g>
       <use style="stroke:#000000;stroke-width:0.8;" x="285.905455" xlink:href="#md88368ff08" y="276.48"/>
      </g>
     </g>
     <g id="text_6">
      <!-- 2022-02 -->
      <g transform="translate(248.680634 310.951846)rotate(-30)scale(0.1 -0.1)">
       <use xlink:href="#DejaVuSans-32"/>
       <use x="63.623047" xlink:href="#DejaVuSans-30"/>
       <use x="127.246094" xlink:href="#DejaVuSans-32"/>
       <use x="190.869141" xlink:href="#DejaVuSans-32"/>
       <use x="254.492188" xlink:href="#DejaVuSans-2d"/>
       <use x="290.576172" xlink:href="#DejaVuSans-30"/>
       <use x="354.199219" xlink:href="#DejaVuSans-32"/>
      </g>
     </g>
    </g>
    <g id="xtick_7">
     <g id="line2d_7">
      <g>
       <use style="stroke:#000000;stroke-width:0.8;" x="322.56" xlink:href="#md88368ff08" y="276.48"/>
      </g>
     </g>
     <g id="text_7">
      <!-- 2022-03 -->
      <g transform="translate(285.335179 310.951846)rotate(-30)scale(0.1 -0.1)">
       <defs>
        <path d="M 2597 2516 
Q 3050 2419 3304 2112 
Q 3559 1806 3559 1356 
Q 3559 666 3084 287 
Q 2609 -91 1734 -91 
Q 1441 -91 1130 -33 
Q 819 25 488 141 
L 488 750 
Q 750 597 1062 519 
Q 1375 441 1716 441 
Q 2309 441 2620 675 
Q 2931 909 2931 1356 
Q 2931 1769 2642 2001 
Q 2353 2234 1838 2234 
L 1294 2234 
L 1294 2753 
L 1863 2753 
Q 2328 2753 2575 2939 
Q 2822 3125 2822 3475 
Q 2822 3834 2567 4026 
Q 2313 4219 1838 4219 
Q 1578 4219 1281 4162 
Q 984 4106 628 3988 
L 628 4550 
Q 988 4650 1302 4700 
Q 1616 4750 1894 4750 
Q 2613 4750 3031 4423 
Q 3450 4097 3450 3541 
Q 3450 3153 3228 2886 
Q 3006 2619 2597 2516 
z
" id="DejaVuSans-33" transform="scale(0.015625)"/>
       </defs>
       <use xlink:href="#DejaVuSans-32"/>
       <use x="63.623047" xlink:href="#DejaVuSans-30"/>
       <use x="127.246094" xlink:href="#DejaVuSans-32"/>
       <use x="190.869141" xlink:href="#DejaVuSans-32"/>
       <use x="254.492188" xlink:href="#DejaVuSans-2d"/>
       <use x="290.576172" xlink:href="#DejaVuSans-30"/>
       <use x="354.199219" xlink:href="#DejaVuSans-33"/>
      </g>
     </g>
    </g>
    <g id="xtick_8">
     <g id="line2d_8">
      <g>
       <use style="stroke:#000000;stroke-width:0.8;" x="363.141818" xlink:href="#md88368ff08" y="276.48"/>
      </g>
     </g>
     <g id="text_8">
      <!-- 2022-04 -->
      <g transform="translate(325.916997 310.951846)rotate(-30)scale(0.1 -0.1)">
       <defs>
        <path d="M 2419 4116 
L 825 1625 
L 2419 1625 
L 2419 4116 
z
M 2253 4666 
L 3047 4666 
L 3047 1625 
L 3713 1625 
L 3713 1100 
L 3047 1100 
L 3047 0 
L 2419 0 
L 2419 1100 
L 313 1100 
L 313 1709 
L 2253 4666 
z
" id="DejaVuSans-34" transform="scale(0.015625)"/>
       </defs>
       <use xlink:href="#DejaVuSans-32"/>
       <use x="63.623047" xlink:href="#DejaVuSans-30"/>
       <use x="127.246094" xlink:href="#DejaVuSans-32"/>
       <use x="190.869141" xlink:href="#DejaVuSans-32"/>
       <use x="254.492188" xlink:href="#DejaVuSans-2d"/>
       <use x="290.576172" xlink:href="#DejaVuSans-30"/>
       <use x="354.199219" xlink:href="#DejaVuSans-34"/>
      </g>
     </g>
    </g>
    <g id="xtick_9">
     <g id="line2d_9">
      <g>
       <use style="stroke:#000000;stroke-width:0.8;" x="402.414545" xlink:href="#md88368ff08" y="276.48"/>
      </g>
     </g>
     <g id="text_9">
      <!-- 2022-05 -->
      <g transform="translate(365.189725 310.951846)rotate(-30)scale(0.1 -0.1)">
       <defs>
        <path d="M 691 4666 
L 3169 4666 
L 3169 4134 
L 1269 4134 
L 1269 2991 
Q 1406 3038 1543 3061 
Q 1681 3084 1819 3084 
Q 2600 3084 3056 2656 
Q 3513 2228 3513 1497 
Q 3513 744 3044 326 
Q 2575 -91 1722 -91 
Q 1428 -91 1123 -41 
Q 819 9 494 109 
L 494 744 
Q 775 591 1075 516 
Q 1375 441 1709 441 
Q 2250 441 2565 725 
Q 2881 1009 2881 1497 
Q 2881 1984 2565 2268 
Q 2250 2553 1709 2553 
Q 1456 2553 1204 2497 
Q 953 2441 691 2322 
L 691 4666 
z
" id="DejaVuSans-35" transform="scale(0.015625)"/>
       </defs>
       <use xlink:href="#DejaVuSans-32"/>
       <use x="63.623047" xlink:href="#DejaVuSans-30"/>
       <use x="127.246094" xlink:href="#DejaVuSans-32"/>
       <use x="190.869141" xlink:href="#DejaVuSans-32"/>
       <use x="254.492188" xlink:href="#DejaVuSans-2d"/>
       <use x="290.576172" xlink:href="#DejaVuSans-30"/>
       <use x="354.199219" xlink:href="#DejaVuSans-35"/>
      </g>
     </g>
    </g>
    <g id="text_10">
     <!-- date -->
     <g transform="translate(224.885 324.351346)scale(0.1 -0.1)">
      <defs>
       <path d="M 2906 2969 
L 2906 4863 
L 3481 4863 
L 3481 0 
L 2906 0 
L 2906 525 
Q 2725 213 2448 61 
Q 2172 -91 1784 -91 
Q 1150 -91 751 415 
Q 353 922 353 1747 
Q 353 2572 751 3078 
Q 1150 3584 1784 3584 
Q 2172 3584 2448 3432 
Q 2725 3281 2906 2969 
z
M 947 1747 
Q 947 1113 1208 752 
Q 1469 391 1925 391 
Q 2381 391 2643 752 
Q 2906 1113 2906 1747 
Q 2906 2381 2643 2742 
Q 2381 3103 1925 3103 
Q 1469 3103 1208 2742 
Q 947 2381 947 1747 
z
" id="DejaVuSans-64" transform="scale(0.015625)"/>
       <path d="M 2194 1759 
Q 1497 1759 1228 1600 
Q 959 1441 959 1056 
Q 959 750 1161 570 
Q 1363 391 1709 391 
Q 2188 391 2477 730 
Q 2766 1069 2766 1631 
L 2766 1759 
L 2194 1759 
z
M 3341 1997 
L 3341 0 
L 2766 0 
L 2766 531 
Q 2569 213 2275 61 
Q 1981 -91 1556 -91 
Q 1019 -91 701 211 
Q 384 513 384 1019 
Q 384 1609 779 1909 
Q 1175 2209 1959 2209 
L 2766 2209 
L 2766 2266 
Q 2766 2663 2505 2880 
Q 2244 3097 1772 3097 
Q 1472 3097 1187 3025 
Q 903 2953 641 2809 
L 641 3341 
Q 956 3463 1253 3523 
Q 1550 3584 1831 3584 
Q 2591 3584 2966 3190 
Q 3341 2797 3341 1997 
z
" id="DejaVuSans-61" transform="scale(0.015625)"/>
       <path d="M 1172 4494 
L 1172 3500 
L 2356 3500 
L 2356 3053 
L 1172 3053 
L 1172 1153 
Q 1172 725 1289 603 
Q 1406 481 1766 481 
L 2356 481 
L 2356 0 
L 1766 0 
Q 1100 0 847 248 
Q 594 497 594 1153 
L 594 3053 
L 172 3053 
L 172 3500 
L 594 3500 
L 594 4494 
L 1172 4494 
z
" id="DejaVuSans-74" transform="scale(0.015625)"/>
       <path d="M 3597 1894 
L 3597 1613 
L 953 1613 
Q 991 1019 1311 708 
Q 1631 397 2203 397 
Q 2534 397 2845 478 
Q 3156 559 3463 722 
L 3463 178 
Q 3153 47 2828 -22 
Q 2503 -91 2169 -91 
Q 1331 -91 842 396 
Q 353 884 353 1716 
Q 353 2575 817 3079 
Q 1281 3584 2069 3584 
Q 2775 3584 3186 3129 
Q 3597 2675 3597 1894 
z
M 3022 2063 
Q 3016 2534 2758 2815 
Q 2500 3097 2075 3097 
Q 1594 3097 1305 2825 
Q 1016 2553 972 2059 
L 3022 2063 
z
" id="DejaVuSans-65" transform="scale(0.015625)"/>
      </defs>
      <use xlink:href="#DejaVuSans-64"/>
      <use x="63.476562" xlink:href="#DejaVuSans-61"/>
      <use x="124.755859" xlink:href="#DejaVuSans-74"/>
      <use x="163.964844" xlink:href="#DejaVuSans-65"/>
     </g>
    </g>
   </g>
   <g id="matplotlib.axis_2">
    <g id="ytick_1">
     <g id="line2d_10">
      <defs>
       <path d="M 0 0 
L -3.5 0 
" id="m82538558ed" style="stroke:#000000;stroke-width:0.8;"/>
      </defs>
      <g>
       <use style="stroke:#000000;stroke-width:0.8;" x="57.6" xlink:href="#m82538558ed" y="251.350452"/>
      </g>
     </g>
     <g id="text_11">
      <!-- 85000 -->
      <g transform="translate(18.7875 255.149671)scale(0.1 -0.1)">
       <defs>
        <path d="M 2034 2216 
Q 1584 2216 1326 1975 
Q 1069 1734 1069 1313 
Q 1069 891 1326 650 
Q 1584 409 2034 409 
Q 2484 409 2743 651 
Q 3003 894 3003 1313 
Q 3003 1734 2745 1975 
Q 2488 2216 2034 2216 
z
M 1403 2484 
Q 997 2584 770 2862 
Q 544 3141 544 3541 
Q 544 4100 942 4425 
Q 1341 4750 2034 4750 
Q 2731 4750 3128 4425 
Q 3525 4100 3525 3541 
Q 3525 3141 3298 2862 
Q 3072 2584 2669 2484 
Q 3125 2378 3379 2068 
Q 3634 1759 3634 1313 
Q 3634 634 3220 271 
Q 2806 -91 2034 -91 
Q 1263 -91 848 271 
Q 434 634 434 1313 
Q 434 1759 690 2068 
Q 947 2378 1403 2484 
z
M 1172 3481 
Q 1172 3119 1398 2916 
Q 1625 2713 2034 2713 
Q 2441 2713 2670 2916 
Q 2900 3119 2900 3481 
Q 2900 3844 2670 4047 
Q 2441 4250 2034 4250 
Q 1625 4250 1398 4047 
Q 1172 3844 1172 3481 
z
" id="DejaVuSans-38" transform="scale(0.015625)"/>
       </defs>
       <use xlink:href="#DejaVuSans-38"/>
       <use x="63.623047" xlink:href="#DejaVuSans-35"/>
       <use x="127.246094" xlink:href="#DejaVuSans-30"/>
       <use x="190.869141" xlink:href="#DejaVuSans-30"/>
       <use x="254.492188" xlink:href="#DejaVuSans-30"/>
      </g>
     </g>
    </g>
    <g id="ytick_2">
     <g id="line2d_11">
      <g>
       <use style="stroke:#000000;stroke-width:0.8;" x="57.6" xlink:href="#m82538558ed" y="219.196625"/>
      </g>
     </g>
     <g id="text_12">
      <!-- 90000 -->
      <g transform="translate(18.7875 222.995844)scale(0.1 -0.1)">
       <use xlink:href="#DejaVuSans-39"/>
       <use x="63.623047" xlink:href="#DejaVuSans-30"/>
       <use x="127.246094" xlink:href="#DejaVuSans-30"/>
       <use x="190.869141" xlink:href="#DejaVuSans-30"/>
       <use x="254.492188" xlink:href="#DejaVuSans-30"/>
      </g>
     </g>
    </g>
    <g id="ytick_3">
     <g id="line2d_12">
      <g>
       <use style="stroke:#000000;stroke-width:0.8;" x="57.6" xlink:href="#m82538558ed" y="187.042798"/>
      </g>
     </g>
     <g id="text_13">
      <!-- 95000 -->
      <g transform="translate(18.7875 190.842017)scale(0.1 -0.1)">
       <use xlink:href="#DejaVuSans-39"/>
       <use x="63.623047" xlink:href="#DejaVuSans-35"/>
       <use x="127.246094" xlink:href="#DejaVuSans-30"/>
       <use x="190.869141" xlink:href="#DejaVuSans-30"/>
       <use x="254.492188" xlink:href="#DejaVuSans-30"/>
      </g>
     </g>
    </g>
    <g id="ytick_4">
     <g id="line2d_13">
      <g>
       <use style="stroke:#000000;stroke-width:0.8;" x="57.6" xlink:href="#m82538558ed" y="154.888971"/>
      </g>
     </g>
     <g id="text_14">
      <!-- 100000 -->
      <g transform="translate(12.425 158.68819)scale(0.1 -0.1)">
       <use xlink:href="#DejaVuSans-31"/>
       <use x="63.623047" xlink:href="#DejaVuSans-30"/>
       <use x="127.246094" xlink:href="#DejaVuSans-30"/>
       <use x="190.869141" xlink:href="#DejaVuSans-30"/>
       <use x="254.492188" xlink:href="#DejaVuSans-30"/>
       <use x="318.115234" xlink:href="#DejaVuSans-30"/>
      </g>
     </g>
    </g>
    <g id="ytick_5">
     <g id="line2d_14">
      <g>
       <use style="stroke:#000000;stroke-width:0.8;" x="57.6" xlink:href="#m82538558ed" y="122.735144"/>
      </g>
     </g>
     <g id="text_15">
      <!-- 105000 -->
      <g transform="translate(12.425 126.534363)scale(0.1 -0.1)">
       <use xlink:href="#DejaVuSans-31"/>
       <use x="63.623047" xlink:href="#DejaVuSans-30"/>
       <use x="127.246094" xlink:href="#DejaVuSans-35"/>
       <use x="190.869141" xlink:href="#DejaVuSans-30"/>
       <use x="254.492188" xlink:href="#DejaVuSans-30"/>
       <use x="318.115234" xlink:href="#DejaVuSans-30"/>
      </g>
     </g>
    </g>
    <g id="ytick_6">
     <g id="line2d_15">
      <g>
       <use style="stroke:#000000;stroke-width:0.8;" x="57.6" xlink:href="#m82538558ed" y="90.581317"/>
      </g>
     </g>
     <g id="text_16">
      <!-- 110000 -->
      <g transform="translate(12.425 94.380536)scale(0.1 -0.1)">
       <use xlink:href="#DejaVuSans-31"/>
       <use x="63.623047" xlink:href="#DejaVuSans-31"/>
       <use x="127.246094" xlink:href="#DejaVuSans-30"/>
       <use x="190.869141" xlink:href="#DejaVuSans-30"/>
       <use x="254.492188" xlink:href="#DejaVuSans-30"/>
       <use x="318.115234" xlink:href="#DejaVuSans-30"/>
      </g>
     </g>
    </g>
    <g id="ytick_7">
     <g id="line2d_16">
      <g>
       <use style="stroke:#000000;stroke-width:0.8;" x="57.6" xlink:href="#m82538558ed" y="58.42749"/>
      </g>
     </g>
     <g id="text_17">
      <!-- 115000 -->
      <g transform="translate(12.425 62.226709)scale(0.1 -0.1)">
       <use xlink:href="#DejaVuSans-31"/>
       <use x="63.623047" xlink:href="#DejaVuSans-31"/>
       <use x="127.246094" xlink:href="#DejaVuSans-35"/>
       <use x="190.869141" xlink:href="#DejaVuSans-30"/>
       <use x="254.492188" xlink:href="#DejaVuSans-30"/>
       <use x="318.115234" xlink:href="#DejaVuSans-30"/>
      </g>
     </g>
    </g>
   </g>
   <g id="line2d_17">
    <path clip-path="url(#p61352ad305)" d="M 73.832727 154.888971 
L 75.141818 155.218732 
L 76.450909 152.463122 
L 77.76 155.947437 
L 79.069091 149.868683 
L 82.996364 145.833964 
L 84.305455 144.818853 
L 85.614545 146.34737 
L 86.923636 145.993276 
L 88.232727 145.889246 
L 93.469091 146.336257 
L 96.087273 150.218115 
L 97.396364 155.615164 
L 101.323636 151.070734 
L 102.632727 160.044411 
L 103.941818 155.80196 
L 105.250909 156.998603 
L 106.56 164.006288 
L 110.487273 175.032216 
L 111.796364 176.544107 
L 113.105455 171.768557 
L 114.414545 161.538358 
L 115.723636 156.310837 
L 119.650909 151.376706 
L 120.96 165.170444 
L 122.269091 163.066094 
L 123.578182 167.482109 
L 124.887273 158.234612 
L 128.814545 170.104843 
L 130.123636 160.281433 
L 131.432727 158.059014 
L 132.741818 157.944202 
L 134.050909 157.164108 
L 139.287273 155.830425 
L 140.596364 164.05501 
L 141.905455 151.120294 
L 143.214545 150.076278 
L 147.141818 144.804763 
L 148.450909 138.628655 
L 149.76 135.874047 
L 151.069091 147.258216 
L 152.378182 155.895945 
L 156.305455 154.918533 
L 157.614545 160.942939 
L 158.923636 162.096192 
L 160.232727 154.012802 
L 161.541818 162.200112 
L 165.469091 149.41532 
L 166.778182 149.859223 
L 168.087273 143.342684 
L 169.396364 151.058329 
L 170.705455 146.674744 
L 174.632727 146.426483 
L 175.941818 153.844957 
L 177.250909 153.916517 
L 178.56 159.278333 
L 179.869091 153.999051 
L 183.796364 152.175941 
L 185.105455 151.912611 
L 186.414545 155.744152 
L 187.723636 157.166619 
L 189.032727 157.449403 
L 192.96 153.921992 
L 194.269091 148.433601 
L 195.578182 148.811845 
L 198.196364 148.946864 
L 202.123636 154.706813 
L 203.432727 167.560739 
L 204.741818 175.911117 
L 206.050909 167.753286 
L 207.36 171.950462 
L 211.287273 160.164038 
L 212.596364 148.609032 
L 213.905455 143.544992 
L 215.214545 143.448878 
L 216.523636 141.283201 
L 220.450909 147.454017 
L 221.76 144.200486 
L 223.069091 140.496543 
L 224.378182 138.120869 
L 225.687273 145.850243 
L 229.614545 154.917567 
L 230.923636 139.76719 
L 232.232727 136.859027 
L 233.541818 130.854574 
L 238.778182 122.104903 
L 240.087273 122.973672 
L 241.396364 122.745958 
L 242.705455 123.588419 
L 244.014545 126.926707 
L 247.941818 116.70708 
L 249.250909 107.843906 
L 250.56 125.328433 
L 251.869091 119.5376 
L 253.178182 117.57343 
L 257.105455 117.067709 
L 258.414545 111.068081 
L 259.723636 110.037107 
L 261.032727 117.904087 
L 262.341818 115.79156 
L 268.887273 134.262413 
L 270.196364 141.457497 
L 271.505455 156.681943 
L 275.432727 156.056007 
L 276.741818 163.126682 
L 278.050909 163.374346 
L 279.36 167.688386 
L 280.669091 151.504785 
L 284.596364 137.683433 
L 285.905455 131.005838 
L 287.214545 121.323744 
L 288.523636 164.478069 
L 289.832727 163.855953 
L 293.76 174.996263 
L 295.069091 176.586177 
L 296.378182 162.125837 
L 297.687273 173.675769 
L 298.996364 187.957421 
L 302.923636 192.117097 
L 304.232727 184.500532 
L 305.541818 187.62151 
L 306.850909 198.873387 
L 308.16 202.429964 
L 313.396364 209.413047 
L 314.705455 217.581281 
L 316.014545 204.571263 
L 317.323636 193.633651 
L 321.250909 195.375366 
L 322.56 205.039691 
L 323.869091 192.610691 
L 325.178182 194.618683 
L 326.487273 199.5574 
L 330.414545 223.900548 
L 331.723636 224.350647 
L 333.032727 200.281698 
L 334.341818 208.204104 
L 335.650909 218.318602 
L 339.578182 221.00433 
L 340.887273 209.105976 
L 342.196364 190.564867 
L 343.505455 182.928871 
L 344.814545 172.062331 
L 348.741818 175.277312 
L 350.050909 163.229731 
L 351.36 169.820815 
L 352.669091 159.012919 
L 353.978182 152.895386 
L 357.905455 150.278421 
L 359.214545 144.495754 
L 360.523636 147.081901 
L 361.832727 161.38959 
L 367.069091 150.983312 
L 368.378182 157.716381 
L 369.687273 168.345669 
L 372.305455 170.261386 
L 377.541818 186.359042 
L 378.850909 183.076973 
L 380.16 194.381525 
L 385.396364 189.844184 
L 386.705455 179.297292 
L 388.014545 186.68998 
L 389.323636 200.8069 
L 390.632727 220.141466 
L 394.56 215.13948 
L 395.869091 225.65182 
L 397.178182 232.362223 
L 398.487273 212.078072 
L 398.487273 212.078072 
" style="fill:none;stroke:#0000ff;stroke-linecap:square;stroke-opacity:0.9;stroke-width:2;"/>
   </g>
   <g id="line2d_18">
    <path clip-path="url(#p61352ad305)" d="M 73.832727 154.888971 
L 75.141818 151.145238 
L 76.450909 148.267386 
L 77.76 152.634613 
L 79.069091 144.497668 
L 82.996364 142.731155 
L 84.305455 141.625726 
L 85.614545 142.013235 
L 86.923636 142.597301 
L 88.232727 142.455292 
L 93.469091 141.017433 
L 94.778182 143.916818 
L 96.087273 145.322711 
L 97.396364 151.885987 
L 101.323636 147.535846 
L 102.632727 153.428295 
L 103.941818 150.468832 
L 105.250909 152.607463 
L 106.56 160.582936 
L 110.487273 171.056723 
L 111.796364 170.781935 
L 113.105455 167.33972 
L 114.414545 159.050733 
L 115.723636 154.323206 
L 119.650909 150.164392 
L 120.96 162.87729 
L 122.269091 162.224678 
L 123.578182 168.202547 
L 124.887273 159.147746 
L 128.814545 165.778717 
L 130.123636 157.112357 
L 131.432727 155.028893 
L 132.741818 153.848506 
L 134.050909 150.745351 
L 137.978182 153.851993 
L 139.287273 159.278794 
L 140.596364 160.928183 
L 141.905455 145.266539 
L 143.214545 140.580421 
L 147.141818 139.438149 
L 148.450909 133.581529 
L 149.76 130.387002 
L 151.069091 138.673815 
L 152.378182 142.297317 
L 156.305455 143.848855 
L 158.923636 151.170558 
L 160.232727 141.79762 
L 161.541818 140.618374 
L 165.469091 140.720876 
L 166.778182 138.126143 
L 168.087273 133.012281 
L 169.396364 134.209916 
L 170.705455 134.11489 
L 174.632727 133.701439 
L 175.941818 138.475833 
L 177.250909 142.272285 
L 178.56 141.731119 
L 179.869091 137.851855 
L 183.796364 135.856102 
L 185.105455 137.29135 
L 186.414545 138.290356 
L 187.723636 138.472134 
L 189.032727 140.626883 
L 192.96 137.820651 
L 194.269091 131.605067 
L 195.578182 131.045295 
L 198.196364 148.119092 
L 202.123636 141.092132 
L 203.432727 155.121986 
L 204.741818 162.256793 
L 206.050909 153.312958 
L 207.36 159.01444 
L 211.287273 148.777489 
L 212.596364 137.628999 
L 213.905455 133.791789 
L 215.214545 134.492201 
L 216.523636 130.13063 
L 220.450909 137.193897 
L 221.76 136.6096 
L 223.069091 131.467317 
L 224.378182 131.537869 
L 225.687273 140.158058 
L 229.614545 147.761961 
L 230.923636 135.28959 
L 232.232727 131.288439 
L 233.541818 125.351633 
L 238.778182 117.191415 
L 240.087273 117.166379 
L 241.396364 117.01071 
L 242.705455 117.63212 
L 244.014545 120.315435 
L 247.941818 113.19131 
L 249.250909 106.291573 
L 250.56 121.206381 
L 251.869091 118.34759 
L 253.178182 114.866464 
L 257.105455 115.923227 
L 258.414545 111.47287 
L 259.723636 111.689463 
L 261.032727 116.764839 
L 262.341818 117.333711 
L 267.578182 131.914211 
L 270.196364 145.023518 
L 271.505455 158.068737 
L 275.432727 159.253298 
L 276.741818 157.717787 
L 278.050909 158.75363 
L 279.36 164.448812 
L 280.669091 148.555295 
L 284.596364 138.588779 
L 285.905455 130.967912 
L 287.214545 120.380283 
L 288.523636 149.934243 
L 289.832727 145.086027 
L 293.76 149.302724 
L 295.069091 145.202793 
L 296.378182 138.82018 
L 297.687273 149.761498 
L 298.996364 163.539319 
L 302.923636 169.390854 
L 304.232727 161.559597 
L 305.541818 163.375862 
L 306.850909 175.187435 
L 308.16 178.751203 
L 313.396364 184.011493 
L 314.705455 192.429627 
L 316.014545 189.028745 
L 317.323636 174.473323 
L 321.250909 180.591082 
L 322.56 193.512676 
L 323.869091 178.678136 
L 325.178182 179.830245 
L 326.487273 189.17446 
L 330.414545 210.251228 
L 331.723636 213.672597 
L 333.032727 192.023537 
L 334.341818 200.013599 
L 335.650909 206.565268 
L 339.578182 206.912985 
L 340.887273 196.916819 
L 342.196364 182.78576 
L 343.505455 177.133458 
L 344.814545 170.538494 
L 348.741818 170.643155 
L 350.050909 160.380058 
L 351.36 166.596238 
L 352.669091 157.07221 
L 353.978182 149.780319 
L 357.905455 149.37243 
L 359.214545 146.025856 
L 360.523636 146.893574 
L 361.832727 159.279071 
L 363.141818 155.895439 
L 367.069091 151.65952 
L 368.378182 158.26271 
L 369.687273 166.23492 
L 370.996364 166.659038 
L 372.305455 165.91999 
L 376.232727 175.498609 
L 377.541818 179.078948 
L 378.850909 176.691992 
L 380.16 185.83614 
L 385.396364 182.242522 
L 386.705455 173.643628 
L 388.014545 170.580158 
L 389.323636 178.572365 
L 390.632727 196.783346 
L 394.56 195.434428 
L 395.869091 205.333843 
L 397.178182 206.732921 
L 398.487273 186.873062 
L 398.487273 186.873062 
" style="fill:none;stroke:#ff0000;stroke-linecap:square;stroke-opacity:0.9;stroke-width:2;"/>
   </g>
   <g id="line2d_19">
    <path clip-path="url(#p61352ad305)" d="M 73.832727 154.888971 
L 75.141818 151.410288 
L 76.450909 149.08725 
L 77.76 152.361761 
L 79.069091 146.191534 
L 82.996364 142.187395 
L 84.305455 141.063349 
L 85.614545 142.816275 
L 86.923636 142.015128 
L 88.232727 141.912378 
L 93.469091 141.801457 
L 94.778182 144.364294 
L 96.087273 146.324888 
L 97.396364 151.532846 
L 101.323636 146.177274 
L 102.632727 155.319498 
L 103.941818 151.546708 
L 105.250909 153.093771 
L 106.56 159.085029 
L 110.487273 169.980546 
L 111.796364 171.46866 
L 113.105455 166.717644 
L 114.414545 156.818746 
L 115.723636 151.493968 
L 119.650909 145.84221 
L 120.96 159.715135 
L 122.269091 157.555447 
L 123.578182 162.041688 
L 124.887273 152.369807 
L 128.814545 164.175555 
L 130.123636 154.837516 
L 131.432727 152.245 
L 134.050909 147.922 
L 137.978182 151.121845 
L 139.287273 156.569378 
L 140.596364 157.606325 
L 141.905455 145.114132 
L 143.214545 144.299026 
L 147.141818 138.48203 
L 148.450909 132.291996 
L 149.76 129.206865 
L 151.069091 140.309137 
L 152.378182 148.508706 
L 156.305455 148.125219 
L 157.614545 154.061378 
L 158.923636 155.075725 
L 160.232727 147.055182 
L 161.541818 146.232122 
L 165.469091 142.844565 
L 166.778182 141.340007 
L 168.087273 136.577871 
L 169.396364 136.05504 
L 170.705455 131.543849 
L 174.632727 130.259471 
L 175.941818 138.915834 
L 177.250909 143.593877 
L 178.56 143.920722 
L 179.869091 138.921898 
L 183.796364 136.855401 
L 185.105455 140.059535 
L 186.414545 140.267408 
L 187.723636 142.130258 
L 189.032727 142.124166 
L 192.96 137.785288 
L 194.269091 132.848502 
L 195.578182 133.342666 
L 198.196364 147.761642 
L 202.123636 139.726391 
L 203.432727 152.353886 
L 204.741818 161.408666 
L 206.050909 153.989482 
L 207.36 157.915075 
L 211.287273 146.067775 
L 212.596364 134.396098 
L 213.905455 128.764774 
L 215.214545 128.762149 
L 216.523636 126.3032 
L 220.450909 132.705162 
L 221.76 129.681216 
L 223.069091 125.515335 
L 224.378182 123.098693 
L 225.687273 131.170554 
L 229.614545 140.077362 
L 230.923636 124.528603 
L 232.232727 121.527049 
L 233.541818 115.571312 
L 238.778182 106.599011 
L 240.087273 106.989136 
L 241.396364 106.922083 
L 242.705455 107.860179 
L 244.014545 111.28473 
L 247.941818 100.667907 
L 249.250909 92.176953 
L 250.56 110.454967 
L 251.869091 103.454239 
L 253.178182 100.511536 
L 257.105455 99.30849 
L 258.414545 93.026458 
L 259.723636 91.235954 
L 261.032727 100.059159 
L 262.341818 98.176213 
L 268.887273 116.216751 
L 270.196364 123.674389 
L 271.505455 139.523237 
L 275.432727 138.300102 
L 276.741818 146.064768 
L 278.050909 145.87143 
L 279.36 150.430151 
L 280.669091 133.984775 
L 284.596364 119.324729 
L 285.905455 113.196645 
L 287.214545 101.136885 
L 288.523636 147.668702 
L 289.832727 147.302186 
L 293.76 158.272972 
L 295.069091 160.15121 
L 296.378182 145.653777 
L 297.687273 157.175332 
L 298.996364 171.855336 
L 302.923636 176.071162 
L 304.232727 168.198684 
L 305.541818 171.716006 
L 306.850909 183.10168 
L 308.16 186.79394 
L 313.396364 193.08373 
L 314.705455 201.378028 
L 316.014545 187.863861 
L 317.323636 176.387097 
L 321.250909 178.563951 
L 322.56 188.24576 
L 323.869091 175.275762 
L 325.178182 178.466797 
L 326.487273 186.980528 
L 330.414545 213.782271 
L 331.723636 210.766322 
L 333.032727 184.72633 
L 335.650909 204.009896 
L 339.578182 203.968606 
L 340.887273 192.413934 
L 342.196364 172.494767 
L 343.505455 164.981343 
L 344.814545 155.407498 
L 348.741818 158.078349 
L 350.050909 144.442272 
L 351.36 152.402542 
L 352.669091 142.1542 
L 353.978182 135.102847 
L 357.905455 134.501472 
L 359.214545 129.377267 
L 360.523636 132.695943 
L 361.832727 149.739673 
L 363.141818 148.231737 
L 367.069091 141.943045 
L 369.687273 159.714731 
L 370.996364 162.317644 
L 372.305455 162.76103 
L 376.232727 172.798393 
L 377.541818 176.653626 
L 378.850909 173.347146 
L 380.16 185.296203 
L 385.396364 178.675703 
L 386.705455 167.391468 
L 388.014545 171.089129 
L 389.323636 184.36536 
L 390.632727 205.467261 
L 394.56 201.670676 
L 395.869091 216.769129 
L 397.178182 223.279582 
L 398.487273 190.525741 
L 398.487273 190.525741 
" style="fill:none;stroke:#ff8040;stroke-linecap:square;stroke-opacity:0.9;stroke-width:2;"/>
   </g>
   <g id="line2d_20">
    <path clip-path="url(#p61352ad305)" d="M 73.832727 155.532048 
L 76.450909 151.758712 
L 77.76 156.997888 
L 79.069091 148.763267 
L 82.996364 152.619814 
L 84.305455 154.314792 
L 85.614545 154.658465 
L 86.923636 153.206237 
L 88.232727 152.258437 
L 93.469091 151.669509 
L 94.778182 155.004943 
L 96.087273 155.10962 
L 97.396364 162.500959 
L 101.323636 159.241953 
L 102.632727 165.544422 
L 103.941818 162.783587 
L 105.250909 164.238996 
L 106.56 172.756473 
L 110.487273 183.739605 
L 111.796364 183.751789 
L 113.105455 179.67721 
L 114.414545 172.082526 
L 115.723636 167.214397 
L 119.650909 164.253931 
L 120.96 178.317292 
L 122.269091 177.026151 
L 123.578182 184.356725 
L 124.887273 176.689932 
L 128.814545 185.543655 
L 130.123636 174.270421 
L 132.741818 169.953545 
L 134.050909 165.804565 
L 137.978182 169.961544 
L 139.287273 174.941664 
L 140.596364 175.750128 
L 141.905455 160.547031 
L 143.214545 158.699848 
L 147.141818 156.093956 
L 149.76 146.909967 
L 151.069091 159.675434 
L 152.378182 169.447995 
L 156.305455 172.23384 
L 157.614545 172.773541 
L 158.923636 183.082485 
L 160.232727 175.277116 
L 161.541818 174.096578 
L 165.469091 175.427582 
L 166.778182 173.89942 
L 168.087273 170.230791 
L 169.396364 170.811395 
L 170.705455 168.916706 
L 174.632727 168.223728 
L 175.941818 172.605972 
L 177.250909 178.280216 
L 178.56 178.662006 
L 179.869091 172.515352 
L 183.796364 171.253706 
L 185.105455 173.3543 
L 186.414545 171.597882 
L 187.723636 174.583793 
L 189.032727 176.041291 
L 192.96 171.317267 
L 194.269091 168.062641 
L 195.578182 168.027658 
L 198.196364 185.143484 
L 202.123636 178.653393 
L 204.741818 196.675633 
L 206.050909 189.354732 
L 207.36 193.901695 
L 211.287273 183.058517 
L 212.596364 172.24922 
L 213.905455 170.78719 
L 215.214545 171.554406 
L 216.523636 166.339906 
L 220.450909 171.504205 
L 221.76 170.194099 
L 223.069091 165.579177 
L 224.378182 164.652767 
L 225.687273 174.058021 
L 229.614545 183.180513 
L 230.923636 168.066704 
L 232.232727 164.307066 
L 233.541818 158.284315 
L 238.778182 151.295999 
L 240.087273 151.919472 
L 241.396364 151.687508 
L 242.705455 152.558065 
L 244.014545 155.969103 
L 247.941818 148.8154 
L 249.250909 142.164079 
L 250.56 155.138675 
L 251.869091 150.713474 
L 253.178182 147.979989 
L 257.105455 149.446339 
L 258.414545 146.957431 
L 259.723636 147.666631 
L 261.032727 150.964715 
L 262.341818 149.632577 
L 267.578182 163.747876 
L 268.887273 171.854659 
L 270.196364 177.62534 
L 271.505455 192.621242 
L 275.432727 194.439799 
L 276.741818 196.516442 
L 278.050909 195.779487 
L 279.36 200.241061 
L 280.669091 181.898912 
L 284.596364 171.785018 
L 285.905455 161.303803 
L 287.214545 152.843165 
L 288.523636 195.736385 
L 289.832727 193.405721 
L 293.76 194.653521 
L 295.069091 193.157372 
L 296.378182 186.891618 
L 297.687273 196.164698 
L 298.996364 211.739454 
L 302.923636 215.322162 
L 304.232727 209.514088 
L 305.541818 211.862318 
L 306.850909 223.734819 
L 308.16 225.953907 
L 313.396364 230.805574 
L 314.705455 239.14895 
L 316.014545 237.539123 
L 317.323636 223.943487 
L 321.250909 229.474152 
L 322.56 242.174355 
L 323.869091 227.073997 
L 325.178182 229.476978 
L 326.487273 239.408553 
L 330.414545 264.421367 
L 331.723636 261.431572 
L 333.032727 241.349072 
L 334.341818 248.926241 
L 335.650909 257.845832 
L 339.578182 258.317982 
L 340.887273 249.578881 
L 342.196364 236.432903 
L 343.505455 229.759837 
L 344.814545 224.9485 
L 348.741818 226.646412 
L 350.050909 217.904044 
L 351.36 222.412822 
L 352.669091 213.34544 
L 353.978182 207.801097 
L 357.905455 206.797343 
L 359.214545 205.097433 
L 360.523636 207.077188 
L 361.832727 221.852744 
L 363.141818 218.365333 
L 367.069091 214.816268 
L 368.378182 219.658787 
L 369.687273 227.62963 
L 370.996364 228.908945 
L 372.305455 226.055805 
L 376.232727 233.562911 
L 377.541818 236.537144 
L 378.850909 234.279897 
L 380.16 245.055324 
L 385.396364 243.125611 
L 386.705455 236.707982 
L 388.014545 234.076124 
L 389.323636 246.399233 
L 390.632727 260.772159 
L 394.56 258.815068 
L 395.869091 263.589053 
L 397.178182 265.797818 
L 398.487273 243.40993 
L 398.487273 243.40993 
" style="fill:none;stroke:#0d0d0d;stroke-linecap:square;stroke-opacity:0.25;stroke-width:2;"/>
   </g>
   <g id="line2d_21">
    <path clip-path="url(#p61352ad305)" d="M 73.832727 154.245895 
L 75.141818 148.793809 
L 76.450909 144.716463 
L 77.76 147.905388 
L 79.069091 138.81578 
L 82.996364 131.939991 
L 84.305455 131.029976 
L 85.614545 131.432942 
L 86.923636 130.137664 
L 88.232727 129.555875 
L 93.469091 127.69972 
L 94.778182 129.829967 
L 96.087273 131.296767 
L 97.396364 138.175075 
L 101.323636 134.199073 
L 102.632727 139.895691 
L 103.941818 136.62064 
L 105.250909 137.678026 
L 106.56 144.847049 
L 110.487273 154.575031 
L 111.796364 154.499633 
L 113.105455 145.909392 
L 114.414545 136.536438 
L 115.723636 129.031514 
L 119.650909 121.191987 
L 120.96 135.429746 
L 122.269091 134.412645 
L 123.578182 140.692323 
L 124.887273 128.626438 
L 128.814545 141.238786 
L 130.123636 129.868401 
L 131.432727 127.3612 
L 132.741818 125.740296 
L 134.050909 123.070271 
L 137.978182 127.589377 
L 139.287273 132.931287 
L 140.596364 135.800098 
L 141.905455 119.968602 
L 143.214545 110.735311 
L 147.141818 107.646617 
L 148.450909 100.734063 
L 149.76 95.329563 
L 151.069091 98.264559 
L 152.378182 94.909059 
L 156.305455 96.97642 
L 157.614545 101.016013 
L 158.923636 107.256512 
L 160.232727 95.622687 
L 161.541818 91.99881 
L 165.469091 94.896878 
L 166.778182 91.984709 
L 168.087273 87.199953 
L 169.396364 89.752522 
L 170.705455 90.04543 
L 174.632727 91.562955 
L 175.941818 96.63716 
L 177.250909 99.235012 
L 178.56 99.697642 
L 179.869091 98.208013 
L 183.796364 95.695349 
L 185.105455 97.731457 
L 186.414545 98.922885 
L 187.723636 99.050427 
L 189.032727 101.970896 
L 192.96 96.150825 
L 194.269091 89.017099 
L 195.578182 89.504455 
L 198.196364 107.443557 
L 202.123636 99.031192 
L 203.432727 115.536657 
L 204.741818 123.803361 
L 206.050909 112.448518 
L 207.36 117.244112 
L 211.287273 107.525895 
L 212.596364 93.366936 
L 213.905455 89.52761 
L 215.214545 89.928105 
L 216.523636 83.82241 
L 220.450909 89.461095 
L 221.76 90.10087 
L 223.069091 85.997253 
L 224.378182 78.823066 
L 225.687273 86.088664 
L 229.614545 96.056455 
L 230.923636 83.778338 
L 232.232727 83.054714 
L 233.541818 76.558841 
L 238.778182 65.135596 
L 240.087273 66.944243 
L 241.396364 65.885566 
L 242.705455 66.34663 
L 244.014545 69.333658 
L 247.941818 57.504266 
L 249.250909 54.933922 
L 250.56 68.981008 
L 251.869091 59.730747 
L 253.178182 54.65925 
L 257.105455 56.555592 
L 258.414545 54.757983 
L 259.723636 54.396753 
L 261.032727 59.192086 
L 262.341818 57.350852 
L 268.887273 78.826027 
L 270.196364 85.960987 
L 271.505455 100.114591 
L 275.432727 101.674248 
L 276.741818 97.892329 
L 278.050909 97.245813 
L 279.36 102.367504 
L 280.669091 85.129937 
L 284.596364 70.5456 
L 285.905455 59.990543 
L 287.214545 52.154182 
L 288.523636 83.676738 
L 289.832727 73.743731 
L 293.76 76.036481 
L 295.069091 74.847659 
L 296.378182 69.532031 
L 297.687273 79.745128 
L 298.996364 94.152995 
L 302.923636 100.976204 
L 304.232727 93.277508 
L 305.541818 94.55851 
L 306.850909 106.555494 
L 308.16 109.81086 
L 313.396364 115.183654 
L 314.705455 125.249343 
L 316.014545 119.747391 
L 317.323636 102.46673 
L 321.250909 109.033833 
L 322.56 124.972999 
L 323.869091 106.039185 
L 325.178182 108.834264 
L 326.487273 118.436778 
L 330.414545 142.191606 
L 331.723636 143.60905 
L 333.032727 118.222845 
L 334.341818 126.242784 
L 335.650909 135.700949 
L 339.578182 136.216002 
L 342.196364 108.776052 
L 344.814545 92.13662 
L 348.741818 90.859005 
L 350.050909 81.682255 
L 351.36 90.313393 
L 352.669091 76.140213 
L 353.978182 68.437983 
L 357.905455 67.585765 
L 359.214545 64.585166 
L 360.523636 65.981873 
L 361.832727 79.238107 
L 363.141818 77.098519 
L 367.069091 71.596998 
L 368.378182 81.136549 
L 369.687273 91.736044 
L 370.996364 90.459428 
L 372.305455 91.680729 
L 377.541818 107.59454 
L 378.850909 104.590851 
L 380.16 115.426308 
L 385.396364 112.503949 
L 386.705455 101.379915 
L 388.014545 94.434366 
L 389.323636 107.651441 
L 390.632727 125.485651 
L 394.56 124.08777 
L 395.869091 138.943791 
L 397.178182 140.972945 
L 398.487273 115.368871 
L 398.487273 115.368871 
" style="fill:none;stroke:#0d0d0d;stroke-linecap:square;stroke-opacity:0.25;stroke-width:2;"/>
   </g>
   <g id="patch_3">
    <path d="M 57.6 276.48 
L 57.6 41.472 
" style="fill:none;stroke:#000000;stroke-linecap:square;stroke-linejoin:miter;stroke-width:0.8;"/>
   </g>
   <g id="patch_4">
    <path d="M 414.72 276.48 
L 414.72 41.472 
" style="fill:none;stroke:#000000;stroke-linecap:square;stroke-linejoin:miter;stroke-width:0.8;"/>
   </g>
   <g id="patch_5">
    <path d="M 57.6 276.48 
L 414.72 276.48 
" style="fill:none;stroke:#000000;stroke-linecap:square;stroke-linejoin:miter;stroke-width:0.8;"/>
   </g>
   <g id="patch_6">
    <path d="M 57.6 41.472 
L 414.72 41.472 
" style="fill:none;stroke:#000000;stroke-linecap:square;stroke-linejoin:miter;stroke-width:0.8;"/>
   </g>
   <g id="text_18">
    <!-- TESTFUNDS1550 -->
    <g transform="translate(185.200312 22.034625)scale(0.12 -0.12)">
     <defs>
      <path d="M -19 4666 
L 3928 4666 
L 3928 4134 
L 2272 4134 
L 2272 0 
L 1638 0 
L 1638 4134 
L -19 4134 
L -19 4666 
z
" id="DejaVuSans-54" transform="scale(0.015625)"/>
      <path d="M 628 4666 
L 3578 4666 
L 3578 4134 
L 1259 4134 
L 1259 2753 
L 3481 2753 
L 3481 2222 
L 1259 2222 
L 1259 531 
L 3634 531 
L 3634 0 
L 628 0 
L 628 4666 
z
" id="DejaVuSans-45" transform="scale(0.015625)"/>
      <path d="M 3425 4513 
L 3425 3897 
Q 3066 4069 2747 4153 
Q 2428 4238 2131 4238 
Q 1616 4238 1336 4038 
Q 1056 3838 1056 3469 
Q 1056 3159 1242 3001 
Q 1428 2844 1947 2747 
L 2328 2669 
Q 3034 2534 3370 2195 
Q 3706 1856 3706 1288 
Q 3706 609 3251 259 
Q 2797 -91 1919 -91 
Q 1588 -91 1214 -16 
Q 841 59 441 206 
L 441 856 
Q 825 641 1194 531 
Q 1563 422 1919 422 
Q 2459 422 2753 634 
Q 3047 847 3047 1241 
Q 3047 1584 2836 1778 
Q 2625 1972 2144 2069 
L 1759 2144 
Q 1053 2284 737 2584 
Q 422 2884 422 3419 
Q 422 4038 858 4394 
Q 1294 4750 2059 4750 
Q 2388 4750 2728 4690 
Q 3069 4631 3425 4513 
z
" id="DejaVuSans-53" transform="scale(0.015625)"/>
      <path d="M 628 4666 
L 3309 4666 
L 3309 4134 
L 1259 4134 
L 1259 2759 
L 3109 2759 
L 3109 2228 
L 1259 2228 
L 1259 0 
L 628 0 
L 628 4666 
z
" id="DejaVuSans-46" transform="scale(0.015625)"/>
      <path d="M 556 4666 
L 1191 4666 
L 1191 1831 
Q 1191 1081 1462 751 
Q 1734 422 2344 422 
Q 2950 422 3222 751 
Q 3494 1081 3494 1831 
L 3494 4666 
L 4128 4666 
L 4128 1753 
Q 4128 841 3676 375 
Q 3225 -91 2344 -91 
Q 1459 -91 1007 375 
Q 556 841 556 1753 
L 556 4666 
z
" id="DejaVuSans-55" transform="scale(0.015625)"/>
      <path d="M 628 4666 
L 1478 4666 
L 3547 763 
L 3547 4666 
L 4159 4666 
L 4159 0 
L 3309 0 
L 1241 3903 
L 1241 0 
L 628 0 
L 628 4666 
z
" id="DejaVuSans-4e" transform="scale(0.015625)"/>
      <path d="M 1259 4147 
L 1259 519 
L 2022 519 
Q 2988 519 3436 956 
Q 3884 1394 3884 2338 
Q 3884 3275 3436 3711 
Q 2988 4147 2022 4147 
L 1259 4147 
z
M 628 4666 
L 1925 4666 
Q 3281 4666 3915 4102 
Q 4550 3538 4550 2338 
Q 4550 1131 3912 565 
Q 3275 0 1925 0 
L 628 0 
L 628 4666 
z
" id="DejaVuSans-44" transform="scale(0.015625)"/>
     </defs>
     <use xlink:href="#DejaVuSans-54"/>
     <use x="61.083984" xlink:href="#DejaVuSans-45"/>
     <use x="124.267578" xlink:href="#DejaVuSans-53"/>
     <use x="187.744141" xlink:href="#DejaVuSans-54"/>
     <use x="248.828125" xlink:href="#DejaVuSans-46"/>
     <use x="306.347656" xlink:href="#DejaVuSans-55"/>
     <use x="379.541016" xlink:href="#DejaVuSans-4e"/>
     <use x="454.345703" xlink:href="#DejaVuSans-44"/>
     <use x="531.347656" xlink:href="#DejaVuSans-53"/>
     <use x="594.824219" xlink:href="#DejaVuSans-31"/>
     <use x="658.447266" xlink:href="#DejaVuSans-35"/>
     <use x="722.070312" xlink:href="#DejaVuSans-35"/>
     <use x="785.693359" xlink:href="#DejaVuSans-30"/>
    </g>
    <!-- daily_report -->
    <g transform="translate(200.466563 35.472)scale(0.12 -0.12)">
     <defs>
      <path d="M 603 3500 
L 1178 3500 
L 1178 0 
L 603 0 
L 603 3500 
z
M 603 4863 
L 1178 4863 
L 1178 4134 
L 603 4134 
L 603 4863 
z
" id="DejaVuSans-69" transform="scale(0.015625)"/>
      <path d="M 603 4863 
L 1178 4863 
L 1178 0 
L 603 0 
L 603 4863 
z
" id="DejaVuSans-6c" transform="scale(0.015625)"/>
      <path d="M 2059 -325 
Q 1816 -950 1584 -1140 
Q 1353 -1331 966 -1331 
L 506 -1331 
L 506 -850 
L 844 -850 
Q 1081 -850 1212 -737 
Q 1344 -625 1503 -206 
L 1606 56 
L 191 3500 
L 800 3500 
L 1894 763 
L 2988 3500 
L 3597 3500 
L 2059 -325 
z
" id="DejaVuSans-79" transform="scale(0.015625)"/>
      <path d="M 3263 -1063 
L 3263 -1509 
L -63 -1509 
L -63 -1063 
L 3263 -1063 
z
" id="DejaVuSans-5f" transform="scale(0.015625)"/>
      <path d="M 2631 2963 
Q 2534 3019 2420 3045 
Q 2306 3072 2169 3072 
Q 1681 3072 1420 2755 
Q 1159 2438 1159 1844 
L 1159 0 
L 581 0 
L 581 3500 
L 1159 3500 
L 1159 2956 
Q 1341 3275 1631 3429 
Q 1922 3584 2338 3584 
Q 2397 3584 2469 3576 
Q 2541 3569 2628 3553 
L 2631 2963 
z
" id="DejaVuSans-72" transform="scale(0.015625)"/>
      <path d="M 1159 525 
L 1159 -1331 
L 581 -1331 
L 581 3500 
L 1159 3500 
L 1159 2969 
Q 1341 3281 1617 3432 
Q 1894 3584 2278 3584 
Q 2916 3584 3314 3078 
Q 3713 2572 3713 1747 
Q 3713 922 3314 415 
Q 2916 -91 2278 -91 
Q 1894 -91 1617 61 
Q 1341 213 1159 525 
z
M 3116 1747 
Q 3116 2381 2855 2742 
Q 2594 3103 2138 3103 
Q 1681 3103 1420 2742 
Q 1159 2381 1159 1747 
Q 1159 1113 1420 752 
Q 1681 391 2138 391 
Q 2594 391 2855 752 
Q 3116 1113 3116 1747 
z
" id="DejaVuSans-70" transform="scale(0.015625)"/>
      <path d="M 1959 3097 
Q 1497 3097 1228 2736 
Q 959 2375 959 1747 
Q 959 1119 1226 758 
Q 1494 397 1959 397 
Q 2419 397 2687 759 
Q 2956 1122 2956 1747 
Q 2956 2369 2687 2733 
Q 2419 3097 1959 3097 
z
M 1959 3584 
Q 2709 3584 3137 3096 
Q 3566 2609 3566 1747 
Q 3566 888 3137 398 
Q 2709 -91 1959 -91 
Q 1206 -91 779 398 
Q 353 888 353 1747 
Q 353 2609 779 3096 
Q 1206 3584 1959 3584 
z
" id="DejaVuSans-6f" transform="scale(0.015625)"/>
     </defs>
     <use xlink:href="#DejaVuSans-64"/>
     <use x="63.476562" xlink:href="#DejaVuSans-61"/>
     <use x="124.755859" xlink:href="#DejaVuSans-69"/>
     <use x="152.539062" xlink:href="#DejaVuSans-6c"/>
     <use x="180.322266" xlink:href="#DejaVuSans-79"/>
     <use x="239.501953" xlink:href="#DejaVuSans-5f"/>
     <use x="289.501953" xlink:href="#DejaVuSans-72"/>
     <use x="328.365234" xlink:href="#DejaVuSans-65"/>
     <use x="389.888672" xlink:href="#DejaVuSans-70"/>
     <use x="453.365234" xlink:href="#DejaVuSans-6f"/>
     <use x="514.546875" xlink:href="#DejaVuSans-72"/>
     <use x="555.660156" xlink:href="#DejaVuSans-74"/>
    </g>
   </g>
   <g id="legend_1">
    <g id="patch_7">
     <path d="M 64.6 271.48 
L 155.792188 271.48 
Q 157.792188 271.48 157.792188 269.48 
L 157.792188 197.089375 
Q 157.792188 195.089375 155.792188 195.089375 
L 64.6 195.089375 
Q 62.6 195.089375 62.6 197.089375 
L 62.6 269.48 
Q 62.6 271.48 64.6 271.48 
z
" style="fill:#ffffff;opacity:0.8;stroke:#cccccc;stroke-linejoin:miter;"/>
    </g>
    <g id="line2d_22">
     <path d="M 66.6 203.187812 
L 86.6 203.187812 
" style="fill:none;stroke:#0000ff;stroke-linecap:square;stroke-opacity:0.9;stroke-width:2;"/>
    </g>
    <g id="line2d_23"/>
    <g id="text_19">
     <!-- alpaca -->
     <g transform="translate(94.6 206.687812)scale(0.1 -0.1)">
      <defs>
       <path d="M 3122 3366 
L 3122 2828 
Q 2878 2963 2633 3030 
Q 2388 3097 2138 3097 
Q 1578 3097 1268 2742 
Q 959 2388 959 1747 
Q 959 1106 1268 751 
Q 1578 397 2138 397 
Q 2388 397 2633 464 
Q 2878 531 3122 666 
L 3122 134 
Q 2881 22 2623 -34 
Q 2366 -91 2075 -91 
Q 1284 -91 818 406 
Q 353 903 353 1747 
Q 353 2603 823 3093 
Q 1294 3584 2113 3584 
Q 2378 3584 2631 3529 
Q 2884 3475 3122 3366 
z
" id="DejaVuSans-63" transform="scale(0.015625)"/>
      </defs>
      <use xlink:href="#DejaVuSans-61"/>
      <use x="61.279297" xlink:href="#DejaVuSans-6c"/>
      <use x="89.0625" xlink:href="#DejaVuSans-70"/>
      <use x="152.539062" xlink:href="#DejaVuSans-61"/>
      <use x="213.818359" xlink:href="#DejaVuSans-63"/>
      <use x="268.798828" xlink:href="#DejaVuSans-61"/>
     </g>
    </g>
    <g id="line2d_24">
     <path d="M 66.6 217.865937 
L 86.6 217.865937 
" style="fill:none;stroke:#ff0000;stroke-linecap:square;stroke-opacity:0.9;stroke-width:2;"/>
    </g>
    <g id="line2d_25"/>
    <g id="text_20">
     <!-- mattress -->
     <g transform="translate(94.6 221.365937)scale(0.1 -0.1)">
      <defs>
       <path d="M 3328 2828 
Q 3544 3216 3844 3400 
Q 4144 3584 4550 3584 
Q 5097 3584 5394 3201 
Q 5691 2819 5691 2113 
L 5691 0 
L 5113 0 
L 5113 2094 
Q 5113 2597 4934 2840 
Q 4756 3084 4391 3084 
Q 3944 3084 3684 2787 
Q 3425 2491 3425 1978 
L 3425 0 
L 2847 0 
L 2847 2094 
Q 2847 2600 2669 2842 
Q 2491 3084 2119 3084 
Q 1678 3084 1418 2786 
Q 1159 2488 1159 1978 
L 1159 0 
L 581 0 
L 581 3500 
L 1159 3500 
L 1159 2956 
Q 1356 3278 1631 3431 
Q 1906 3584 2284 3584 
Q 2666 3584 2933 3390 
Q 3200 3197 3328 2828 
z
" id="DejaVuSans-6d" transform="scale(0.015625)"/>
       <path d="M 2834 3397 
L 2834 2853 
Q 2591 2978 2328 3040 
Q 2066 3103 1784 3103 
Q 1356 3103 1142 2972 
Q 928 2841 928 2578 
Q 928 2378 1081 2264 
Q 1234 2150 1697 2047 
L 1894 2003 
Q 2506 1872 2764 1633 
Q 3022 1394 3022 966 
Q 3022 478 2636 193 
Q 2250 -91 1575 -91 
Q 1294 -91 989 -36 
Q 684 19 347 128 
L 347 722 
Q 666 556 975 473 
Q 1284 391 1588 391 
Q 1994 391 2212 530 
Q 2431 669 2431 922 
Q 2431 1156 2273 1281 
Q 2116 1406 1581 1522 
L 1381 1569 
Q 847 1681 609 1914 
Q 372 2147 372 2553 
Q 372 3047 722 3315 
Q 1072 3584 1716 3584 
Q 2034 3584 2315 3537 
Q 2597 3491 2834 3397 
z
" id="DejaVuSans-73" transform="scale(0.015625)"/>
      </defs>
      <use xlink:href="#DejaVuSans-6d"/>
      <use x="97.412109" xlink:href="#DejaVuSans-61"/>
      <use x="158.691406" xlink:href="#DejaVuSans-74"/>
      <use x="197.900391" xlink:href="#DejaVuSans-74"/>
      <use x="237.109375" xlink:href="#DejaVuSans-72"/>
      <use x="275.972656" xlink:href="#DejaVuSans-65"/>
      <use x="337.496094" xlink:href="#DejaVuSans-73"/>
      <use x="389.595703" xlink:href="#DejaVuSans-73"/>
     </g>
    </g>
    <g id="line2d_26">
     <path d="M 66.6 232.544062 
L 86.6 232.544062 
" style="fill:none;stroke:#ff8040;stroke-linecap:square;stroke-opacity:0.9;stroke-width:2;"/>
    </g>
    <g id="line2d_27"/>
    <g id="text_21">
     <!-- trader-0850 -->
     <g transform="translate(94.6 236.044062)scale(0.1 -0.1)">
      <use xlink:href="#DejaVuSans-74"/>
      <use x="39.208984" xlink:href="#DejaVuSans-72"/>
      <use x="80.322266" xlink:href="#DejaVuSans-61"/>
      <use x="141.601562" xlink:href="#DejaVuSans-64"/>
      <use x="205.078125" xlink:href="#DejaVuSans-65"/>
      <use x="266.601562" xlink:href="#DejaVuSans-72"/>
      <use x="301.339844" xlink:href="#DejaVuSans-2d"/>
      <use x="337.423828" xlink:href="#DejaVuSans-30"/>
      <use x="401.046875" xlink:href="#DejaVuSans-38"/>
      <use x="464.669922" xlink:href="#DejaVuSans-35"/>
      <use x="528.292969" xlink:href="#DejaVuSans-30"/>
     </g>
    </g>
    <g id="line2d_28">
     <path d="M 66.6 247.222187 
L 86.6 247.222187 
" style="fill:none;stroke:#0d0d0d;stroke-linecap:square;stroke-opacity:0.25;stroke-width:2;"/>
    </g>
    <g id="line2d_29"/>
    <g id="text_22">
     <!-- rando-min -->
     <g transform="translate(94.6 250.722187)scale(0.1 -0.1)">
      <defs>
       <path d="M 3513 2113 
L 3513 0 
L 2938 0 
L 2938 2094 
Q 2938 2591 2744 2837 
Q 2550 3084 2163 3084 
Q 1697 3084 1428 2787 
Q 1159 2491 1159 1978 
L 1159 0 
L 581 0 
L 581 3500 
L 1159 3500 
L 1159 2956 
Q 1366 3272 1645 3428 
Q 1925 3584 2291 3584 
Q 2894 3584 3203 3211 
Q 3513 2838 3513 2113 
z
" id="DejaVuSans-6e" transform="scale(0.015625)"/>
      </defs>
      <use xlink:href="#DejaVuSans-72"/>
      <use x="41.113281" xlink:href="#DejaVuSans-61"/>
      <use x="102.392578" xlink:href="#DejaVuSans-6e"/>
      <use x="165.771484" xlink:href="#DejaVuSans-64"/>
      <use x="229.248047" xlink:href="#DejaVuSans-6f"/>
      <use x="292.304688" xlink:href="#DejaVuSans-2d"/>
      <use x="328.388672" xlink:href="#DejaVuSans-6d"/>
      <use x="425.800781" xlink:href="#DejaVuSans-69"/>
      <use x="453.583984" xlink:href="#DejaVuSans-6e"/>
     </g>
    </g>
    <g id="line2d_30">
     <path d="M 66.6 261.900312 
L 86.6 261.900312 
" style="fill:none;stroke:#0d0d0d;stroke-linecap:square;stroke-opacity:0.25;stroke-width:2;"/>
    </g>
    <g id="line2d_31"/>
    <g id="text_23">
     <!-- rando-max -->
     <g transform="translate(94.6 265.400312)scale(0.1 -0.1)">
      <defs>
       <path d="M 3513 3500 
L 2247 1797 
L 3578 0 
L 2900 0 
L 1881 1375 
L 863 0 
L 184 0 
L 1544 1831 
L 300 3500 
L 978 3500 
L 1906 2253 
L 2834 3500 
L 3513 3500 
z
" id="DejaVuSans-78" transform="scale(0.015625)"/>
      </defs>
      <use xlink:href="#DejaVuSans-72"/>
      <use x="41.113281" xlink:href="#DejaVuSans-61"/>
      <use x="102.392578" xlink:href="#DejaVuSans-6e"/>
      <use x="165.771484" xlink:href="#DejaVuSans-64"/>
      <use x="229.248047" xlink:href="#DejaVuSans-6f"/>
      <use x="292.304688" xlink:href="#DejaVuSans-2d"/>
      <use x="328.388672" xlink:href="#DejaVuSans-6d"/>
      <use x="425.800781" xlink:href="#DejaVuSans-61"/>
      <use x="487.080078" xlink:href="#DejaVuSans-78"/>
     </g>
    </g>
   </g>
  </g>
 </g>
 <defs>
  <clipPath id="p61352ad305">
   <rect height="235.008" width="357.12" x="57.6" y="41.472"/>
  </clipPath>
 </defs>
</svg>
