<?xml version="1.0" encoding="utf-8" standalone="no"?>
<!DOCTYPE svg PUBLIC "-//W3C//DTD SVG 1.1//EN"
  "http://www.w3.org/Graphics/SVG/1.1/DTD/svg11.dtd">
<svg height="345.6pt" version="1.1" viewBox="0 0 460.8 345.6" width="460.8pt" xmlns="http://www.w3.org/2000/svg" xmlns:xlink="http://www.w3.org/1999/xlink">
 <metadata>
  <rdf:RDF xmlns:cc="http://creativecommons.org/ns#" xmlns:dc="http://purl.org/dc/elements/1.1/" xmlns:rdf="http://www.w3.org/1999/02/22-rdf-syntax-ns#">
   <cc:Work>
    <dc:type rdf:resource="http://purl.org/dc/dcmitype/StillImage"/>
    <dc:date>2022-04-16T10:02:16.658954</dc:date>
    <dc:format>image/svg+xml</dc:format>
    <dc:creator>
     <cc:Agent>
      <dc:title>Matplotlib v3.4.3, https://matplotlib.org/</dc:title>
     </cc:Agent>
    </dc:creator>
   </cc:Work>
  </rdf:RDF>
 </metadata>
 <defs>
  <style type="text/css">*{stroke-linecap:butt;stroke-linejoin:round;}</style>
 </defs>
 <g id="figure_1">
  <g id="patch_1">
   <path d="M 0 345.6 
L 460.8 345.6 
L 460.8 0 
L 0 0 
z
" style="fill:#ffffff;"/>
  </g>
  <g id="axes_1">
   <g id="patch_2">
    <path d="M 57.6 276.48 
L 414.72 276.48 
L 414.72 41.472 
L 57.6 41.472 
z
" style="fill:#ffffff;"/>
   </g>
   <g id="matplotlib.axis_1">
    <g id="xtick_1">
     <g id="line2d_1">
      <defs>
       <path d="M 0 0 
L 0 3.5 
" id="mbb1366930a" style="stroke:#000000;stroke-width:0.8;"/>
      </defs>
      <g>
       <use style="stroke:#000000;stroke-width:0.8;" x="102.543673" xlink:href="#mbb1366930a" y="276.48"/>
      </g>
     </g>
     <g id="text_1">
      <!-- 2021-12 -->
      <g transform="translate(65.318853 310.951846)rotate(-30)scale(0.1 -0.1)">
       <defs>
        <path d="M 1228 531 
L 3431 531 
L 3431 0 
L 469 0 
L 469 531 
Q 828 903 1448 1529 
Q 2069 2156 2228 2338 
Q 2531 2678 2651 2914 
Q 2772 3150 2772 3378 
Q 2772 3750 2511 3984 
Q 2250 4219 1831 4219 
Q 1534 4219 1204 4116 
Q 875 4013 500 3803 
L 500 4441 
Q 881 4594 1212 4672 
Q 1544 4750 1819 4750 
Q 2544 4750 2975 4387 
Q 3406 4025 3406 3419 
Q 3406 3131 3298 2873 
Q 3191 2616 2906 2266 
Q 2828 2175 2409 1742 
Q 1991 1309 1228 531 
z
" id="DejaVuSans-32" transform="scale(0.015625)"/>
        <path d="M 2034 4250 
Q 1547 4250 1301 3770 
Q 1056 3291 1056 2328 
Q 1056 1369 1301 889 
Q 1547 409 2034 409 
Q 2525 409 2770 889 
Q 3016 1369 3016 2328 
Q 3016 3291 2770 3770 
Q 2525 4250 2034 4250 
z
M 2034 4750 
Q 2819 4750 3233 4129 
Q 3647 3509 3647 2328 
Q 3647 1150 3233 529 
Q 2819 -91 2034 -91 
Q 1250 -91 836 529 
Q 422 1150 422 2328 
Q 422 3509 836 4129 
Q 1250 4750 2034 4750 
z
" id="DejaVuSans-30" transform="scale(0.015625)"/>
        <path d="M 794 531 
L 1825 531 
L 1825 4091 
L 703 3866 
L 703 4441 
L 1819 4666 
L 2450 4666 
L 2450 531 
L 3481 531 
L 3481 0 
L 794 0 
L 794 531 
z
" id="DejaVuSans-31" transform="scale(0.015625)"/>
        <path d="M 313 2009 
L 1997 2009 
L 1997 1497 
L 313 1497 
L 313 2009 
z
" id="DejaVuSans-2d" transform="scale(0.015625)"/>
       </defs>
       <use xlink:href="#DejaVuSans-32"/>
       <use x="63.623047" xlink:href="#DejaVuSans-30"/>
       <use x="127.246094" xlink:href="#DejaVuSans-32"/>
       <use x="190.869141" xlink:href="#DejaVuSans-31"/>
       <use x="254.492188" xlink:href="#DejaVuSans-2d"/>
       <use x="290.576172" xlink:href="#DejaVuSans-31"/>
       <use x="354.199219" xlink:href="#DejaVuSans-32"/>
      </g>
     </g>
    </g>
    <g id="xtick_2">
     <g id="line2d_2">
      <g>
       <use style="stroke:#000000;stroke-width:0.8;" x="171.008237" xlink:href="#mbb1366930a" y="276.48"/>
      </g>
     </g>
     <g id="text_2">
      <!-- 2022-01 -->
      <g transform="translate(133.783417 310.951846)rotate(-30)scale(0.1 -0.1)">
       <use xlink:href="#DejaVuSans-32"/>
       <use x="63.623047" xlink:href="#DejaVuSans-30"/>
       <use x="127.246094" xlink:href="#DejaVuSans-32"/>
       <use x="190.869141" xlink:href="#DejaVuSans-32"/>
       <use x="254.492188" xlink:href="#DejaVuSans-2d"/>
       <use x="290.576172" xlink:href="#DejaVuSans-30"/>
       <use x="354.199219" xlink:href="#DejaVuSans-31"/>
      </g>
     </g>
    </g>
    <g id="xtick_3">
     <g id="line2d_3">
      <g>
       <use style="stroke:#000000;stroke-width:0.8;" x="239.472801" xlink:href="#mbb1366930a" y="276.48"/>
      </g>
     </g>
     <g id="text_3">
      <!-- 2022-02 -->
      <g transform="translate(202.247981 310.951846)rotate(-30)scale(0.1 -0.1)">
       <use xlink:href="#DejaVuSans-32"/>
       <use x="63.623047" xlink:href="#DejaVuSans-30"/>
       <use x="127.246094" xlink:href="#DejaVuSans-32"/>
       <use x="190.869141" xlink:href="#DejaVuSans-32"/>
       <use x="254.492188" xlink:href="#DejaVuSans-2d"/>
       <use x="290.576172" xlink:href="#DejaVuSans-30"/>
       <use x="354.199219" xlink:href="#DejaVuSans-32"/>
      </g>
     </g>
    </g>
    <g id="xtick_4">
     <g id="line2d_4">
      <g>
       <use style="stroke:#000000;stroke-width:0.8;" x="301.311763" xlink:href="#mbb1366930a" y="276.48"/>
      </g>
     </g>
     <g id="text_4">
      <!-- 2022-03 -->
      <g transform="translate(264.086942 310.951846)rotate(-30)scale(0.1 -0.1)">
       <defs>
        <path d="M 2597 2516 
Q 3050 2419 3304 2112 
Q 3559 1806 3559 1356 
Q 3559 666 3084 287 
Q 2609 -91 1734 -91 
Q 1441 -91 1130 -33 
Q 819 25 488 141 
L 488 750 
Q 750 597 1062 519 
Q 1375 441 1716 441 
Q 2309 441 2620 675 
Q 2931 909 2931 1356 
Q 2931 1769 2642 2001 
Q 2353 2234 1838 2234 
L 1294 2234 
L 1294 2753 
L 1863 2753 
Q 2328 2753 2575 2939 
Q 2822 3125 2822 3475 
Q 2822 3834 2567 4026 
Q 2313 4219 1838 4219 
Q 1578 4219 1281 4162 
Q 984 4106 628 3988 
L 628 4550 
Q 988 4650 1302 4700 
Q 1616 4750 1894 4750 
Q 2613 4750 3031 4423 
Q 3450 4097 3450 3541 
Q 3450 3153 3228 2886 
Q 3006 2619 2597 2516 
z
" id="DejaVuSans-33" transform="scale(0.015625)"/>
       </defs>
       <use xlink:href="#DejaVuSans-32"/>
       <use x="63.623047" xlink:href="#DejaVuSans-30"/>
       <use x="127.246094" xlink:href="#DejaVuSans-32"/>
       <use x="190.869141" xlink:href="#DejaVuSans-32"/>
       <use x="254.492188" xlink:href="#DejaVuSans-2d"/>
       <use x="290.576172" xlink:href="#DejaVuSans-30"/>
       <use x="354.199219" xlink:href="#DejaVuSans-33"/>
      </g>
     </g>
    </g>
    <g id="xtick_5">
     <g id="line2d_5">
      <g>
       <use style="stroke:#000000;stroke-width:0.8;" x="369.776327" xlink:href="#mbb1366930a" y="276.48"/>
      </g>
     </g>
     <g id="text_5">
      <!-- 2022-04 -->
      <g transform="translate(332.551506 310.951846)rotate(-30)scale(0.1 -0.1)">
       <defs>
        <path d="M 2419 4116 
L 825 1625 
L 2419 1625 
L 2419 4116 
z
M 2253 4666 
L 3047 4666 
L 3047 1625 
L 3713 1625 
L 3713 1100 
L 3047 1100 
L 3047 0 
L 2419 0 
L 2419 1100 
L 313 1100 
L 313 1709 
L 2253 4666 
z
" id="DejaVuSans-34" transform="scale(0.015625)"/>
       </defs>
       <use xlink:href="#DejaVuSans-32"/>
       <use x="63.623047" xlink:href="#DejaVuSans-30"/>
       <use x="127.246094" xlink:href="#DejaVuSans-32"/>
       <use x="190.869141" xlink:href="#DejaVuSans-32"/>
       <use x="254.492188" xlink:href="#DejaVuSans-2d"/>
       <use x="290.576172" xlink:href="#DejaVuSans-30"/>
       <use x="354.199219" xlink:href="#DejaVuSans-34"/>
      </g>
     </g>
    </g>
    <g id="text_6">
     <!-- date -->
     <g transform="translate(224.885 324.351346)scale(0.1 -0.1)">
      <defs>
       <path d="M 2906 2969 
L 2906 4863 
L 3481 4863 
L 3481 0 
L 2906 0 
L 2906 525 
Q 2725 213 2448 61 
Q 2172 -91 1784 -91 
Q 1150 -91 751 415 
Q 353 922 353 1747 
Q 353 2572 751 3078 
Q 1150 3584 1784 3584 
Q 2172 3584 2448 3432 
Q 2725 3281 2906 2969 
z
M 947 1747 
Q 947 1113 1208 752 
Q 1469 391 1925 391 
Q 2381 391 2643 752 
Q 2906 1113 2906 1747 
Q 2906 2381 2643 2742 
Q 2381 3103 1925 3103 
Q 1469 3103 1208 2742 
Q 947 2381 947 1747 
z
" id="DejaVuSans-64" transform="scale(0.015625)"/>
       <path d="M 2194 1759 
Q 1497 1759 1228 1600 
Q 959 1441 959 1056 
Q 959 750 1161 570 
Q 1363 391 1709 391 
Q 2188 391 2477 730 
Q 2766 1069 2766 1631 
L 2766 1759 
L 2194 1759 
z
M 3341 1997 
L 3341 0 
L 2766 0 
L 2766 531 
Q 2569 213 2275 61 
Q 1981 -91 1556 -91 
Q 1019 -91 701 211 
Q 384 513 384 1019 
Q 384 1609 779 1909 
Q 1175 2209 1959 2209 
L 2766 2209 
L 2766 2266 
Q 2766 2663 2505 2880 
Q 2244 3097 1772 3097 
Q 1472 3097 1187 3025 
Q 903 2953 641 2809 
L 641 3341 
Q 956 3463 1253 3523 
Q 1550 3584 1831 3584 
Q 2591 3584 2966 3190 
Q 3341 2797 3341 1997 
z
" id="DejaVuSans-61" transform="scale(0.015625)"/>
       <path d="M 1172 4494 
L 1172 3500 
L 2356 3500 
L 2356 3053 
L 1172 3053 
L 1172 1153 
Q 1172 725 1289 603 
Q 1406 481 1766 481 
L 2356 481 
L 2356 0 
L 1766 0 
Q 1100 0 847 248 
Q 594 497 594 1153 
L 594 3053 
L 172 3053 
L 172 3500 
L 594 3500 
L 594 4494 
L 1172 4494 
z
" id="DejaVuSans-74" transform="scale(0.015625)"/>
       <path d="M 3597 1894 
L 3597 1613 
L 953 1613 
Q 991 1019 1311 708 
Q 1631 397 2203 397 
Q 2534 397 2845 478 
Q 3156 559 3463 722 
L 3463 178 
Q 3153 47 2828 -22 
Q 2503 -91 2169 -91 
Q 1331 -91 842 396 
Q 353 884 353 1716 
Q 353 2575 817 3079 
Q 1281 3584 2069 3584 
Q 2775 3584 3186 3129 
Q 3597 2675 3597 1894 
z
M 3022 2063 
Q 3016 2534 2758 2815 
Q 2500 3097 2075 3097 
Q 1594 3097 1305 2825 
Q 1016 2553 972 2059 
L 3022 2063 
z
" id="DejaVuSans-65" transform="scale(0.015625)"/>
      </defs>
      <use xlink:href="#DejaVuSans-64"/>
      <use x="63.476562" xlink:href="#DejaVuSans-61"/>
      <use x="124.755859" xlink:href="#DejaVuSans-74"/>
      <use x="163.964844" xlink:href="#DejaVuSans-65"/>
     </g>
    </g>
   </g>
   <g id="matplotlib.axis_2">
    <g id="ytick_1">
     <g id="line2d_6">
      <defs>
       <path d="M 0 0 
L -3.5 0 
" id="m4da7540cb5" style="stroke:#000000;stroke-width:0.8;"/>
      </defs>
      <g>
       <use style="stroke:#000000;stroke-width:0.8;" x="57.6" xlink:href="#m4da7540cb5" y="257.083406"/>
      </g>
     </g>
     <g id="text_7">
      <!-- 92500 -->
      <g transform="translate(18.7875 260.882625)scale(0.1 -0.1)">
       <defs>
        <path d="M 703 97 
L 703 672 
Q 941 559 1184 500 
Q 1428 441 1663 441 
Q 2288 441 2617 861 
Q 2947 1281 2994 2138 
Q 2813 1869 2534 1725 
Q 2256 1581 1919 1581 
Q 1219 1581 811 2004 
Q 403 2428 403 3163 
Q 403 3881 828 4315 
Q 1253 4750 1959 4750 
Q 2769 4750 3195 4129 
Q 3622 3509 3622 2328 
Q 3622 1225 3098 567 
Q 2575 -91 1691 -91 
Q 1453 -91 1209 -44 
Q 966 3 703 97 
z
M 1959 2075 
Q 2384 2075 2632 2365 
Q 2881 2656 2881 3163 
Q 2881 3666 2632 3958 
Q 2384 4250 1959 4250 
Q 1534 4250 1286 3958 
Q 1038 3666 1038 3163 
Q 1038 2656 1286 2365 
Q 1534 2075 1959 2075 
z
" id="DejaVuSans-39" transform="scale(0.015625)"/>
        <path d="M 691 4666 
L 3169 4666 
L 3169 4134 
L 1269 4134 
L 1269 2991 
Q 1406 3038 1543 3061 
Q 1681 3084 1819 3084 
Q 2600 3084 3056 2656 
Q 3513 2228 3513 1497 
Q 3513 744 3044 326 
Q 2575 -91 1722 -91 
Q 1428 -91 1123 -41 
Q 819 9 494 109 
L 494 744 
Q 775 591 1075 516 
Q 1375 441 1709 441 
Q 2250 441 2565 725 
Q 2881 1009 2881 1497 
Q 2881 1984 2565 2268 
Q 2250 2553 1709 2553 
Q 1456 2553 1204 2497 
Q 953 2441 691 2322 
L 691 4666 
z
" id="DejaVuSans-35" transform="scale(0.015625)"/>
       </defs>
       <use xlink:href="#DejaVuSans-39"/>
       <use x="63.623047" xlink:href="#DejaVuSans-32"/>
       <use x="127.246094" xlink:href="#DejaVuSans-35"/>
       <use x="190.869141" xlink:href="#DejaVuSans-30"/>
       <use x="254.492188" xlink:href="#DejaVuSans-30"/>
      </g>
     </g>
    </g>
    <g id="ytick_2">
     <g id="line2d_7">
      <g>
       <use style="stroke:#000000;stroke-width:0.8;" x="57.6" xlink:href="#m4da7540cb5" y="227.300428"/>
      </g>
     </g>
     <g id="text_8">
      <!-- 95000 -->
      <g transform="translate(18.7875 231.099647)scale(0.1 -0.1)">
       <use xlink:href="#DejaVuSans-39"/>
       <use x="63.623047" xlink:href="#DejaVuSans-35"/>
       <use x="127.246094" xlink:href="#DejaVuSans-30"/>
       <use x="190.869141" xlink:href="#DejaVuSans-30"/>
       <use x="254.492188" xlink:href="#DejaVuSans-30"/>
      </g>
     </g>
    </g>
    <g id="ytick_3">
     <g id="line2d_8">
      <g>
       <use style="stroke:#000000;stroke-width:0.8;" x="57.6" xlink:href="#m4da7540cb5" y="197.51745"/>
      </g>
     </g>
     <g id="text_9">
      <!-- 97500 -->
      <g transform="translate(18.7875 201.316668)scale(0.1 -0.1)">
       <defs>
        <path d="M 525 4666 
L 3525 4666 
L 3525 4397 
L 1831 0 
L 1172 0 
L 2766 4134 
L 525 4134 
L 525 4666 
z
" id="DejaVuSans-37" transform="scale(0.015625)"/>
       </defs>
       <use xlink:href="#DejaVuSans-39"/>
       <use x="63.623047" xlink:href="#DejaVuSans-37"/>
       <use x="127.246094" xlink:href="#DejaVuSans-35"/>
       <use x="190.869141" xlink:href="#DejaVuSans-30"/>
       <use x="254.492188" xlink:href="#DejaVuSans-30"/>
      </g>
     </g>
    </g>
    <g id="ytick_4">
     <g id="line2d_9">
      <g>
       <use style="stroke:#000000;stroke-width:0.8;" x="57.6" xlink:href="#m4da7540cb5" y="167.734471"/>
      </g>
     </g>
     <g id="text_10">
      <!-- 100000 -->
      <g transform="translate(12.425 171.53369)scale(0.1 -0.1)">
       <use xlink:href="#DejaVuSans-31"/>
       <use x="63.623047" xlink:href="#DejaVuSans-30"/>
       <use x="127.246094" xlink:href="#DejaVuSans-30"/>
       <use x="190.869141" xlink:href="#DejaVuSans-30"/>
       <use x="254.492188" xlink:href="#DejaVuSans-30"/>
       <use x="318.115234" xlink:href="#DejaVuSans-30"/>
      </g>
     </g>
    </g>
    <g id="ytick_5">
     <g id="line2d_10">
      <g>
       <use style="stroke:#000000;stroke-width:0.8;" x="57.6" xlink:href="#m4da7540cb5" y="137.951493"/>
      </g>
     </g>
     <g id="text_11">
      <!-- 102500 -->
      <g transform="translate(12.425 141.750712)scale(0.1 -0.1)">
       <use xlink:href="#DejaVuSans-31"/>
       <use x="63.623047" xlink:href="#DejaVuSans-30"/>
       <use x="127.246094" xlink:href="#DejaVuSans-32"/>
       <use x="190.869141" xlink:href="#DejaVuSans-35"/>
       <use x="254.492188" xlink:href="#DejaVuSans-30"/>
       <use x="318.115234" xlink:href="#DejaVuSans-30"/>
      </g>
     </g>
    </g>
    <g id="ytick_6">
     <g id="line2d_11">
      <g>
       <use style="stroke:#000000;stroke-width:0.8;" x="57.6" xlink:href="#m4da7540cb5" y="108.168515"/>
      </g>
     </g>
     <g id="text_12">
      <!-- 105000 -->
      <g transform="translate(12.425 111.967734)scale(0.1 -0.1)">
       <use xlink:href="#DejaVuSans-31"/>
       <use x="63.623047" xlink:href="#DejaVuSans-30"/>
       <use x="127.246094" xlink:href="#DejaVuSans-35"/>
       <use x="190.869141" xlink:href="#DejaVuSans-30"/>
       <use x="254.492188" xlink:href="#DejaVuSans-30"/>
       <use x="318.115234" xlink:href="#DejaVuSans-30"/>
      </g>
     </g>
    </g>
    <g id="ytick_7">
     <g id="line2d_12">
      <g>
       <use style="stroke:#000000;stroke-width:0.8;" x="57.6" xlink:href="#m4da7540cb5" y="78.385536"/>
      </g>
     </g>
     <g id="text_13">
      <!-- 107500 -->
      <g transform="translate(12.425 82.184755)scale(0.1 -0.1)">
       <use xlink:href="#DejaVuSans-31"/>
       <use x="63.623047" xlink:href="#DejaVuSans-30"/>
       <use x="127.246094" xlink:href="#DejaVuSans-37"/>
       <use x="190.869141" xlink:href="#DejaVuSans-35"/>
       <use x="254.492188" xlink:href="#DejaVuSans-30"/>
       <use x="318.115234" xlink:href="#DejaVuSans-30"/>
      </g>
     </g>
    </g>
    <g id="ytick_8">
     <g id="line2d_13">
      <g>
       <use style="stroke:#000000;stroke-width:0.8;" x="57.6" xlink:href="#m4da7540cb5" y="48.602558"/>
      </g>
     </g>
     <g id="text_14">
      <!-- 110000 -->
      <g transform="translate(12.425 52.401777)scale(0.1 -0.1)">
       <use xlink:href="#DejaVuSans-31"/>
       <use x="63.623047" xlink:href="#DejaVuSans-31"/>
       <use x="127.246094" xlink:href="#DejaVuSans-30"/>
       <use x="190.869141" xlink:href="#DejaVuSans-30"/>
       <use x="254.492188" xlink:href="#DejaVuSans-30"/>
       <use x="318.115234" xlink:href="#DejaVuSans-30"/>
      </g>
     </g>
    </g>
   </g>
   <g id="line2d_14">
    <path clip-path="url(#p6e08c90534)" d="M 73.832727 52.154182 
L 76.041262 59.116806 
L 82.666865 65.435669 
L 84.875399 66.142085 
L 87.083933 61.03018 
L 91.501002 60.965667 
L 98.126605 84.470532 
L 100.335139 113.541102 
L 102.543673 135.767626 
L 104.752208 109.295825 
L 106.960742 124.299108 
L 113.586345 108.874009 
L 115.794879 81.472238 
L 118.003414 73.159614 
L 120.211948 91.24301 
L 122.420482 87.553621 
L 129.046085 98.804905 
L 131.25462 108.977684 
L 133.463154 91.440058 
L 135.671688 105.186159 
L 137.880223 108.133678 
L 144.505826 125.403037 
L 146.71436 96.272301 
L 148.922894 86.777144 
L 151.131429 77.681763 
L 159.965566 67.168119 
L 162.1741 70.229287 
L 164.382635 67.907327 
L 166.591169 69.019966 
L 168.799703 70.347141 
L 175.425306 68.030583 
L 177.63384 67.552193 
L 179.842375 100.885888 
L 182.050909 97.599792 
L 184.259443 104.70877 
L 190.885046 109.187887 
L 193.093581 94.620958 
L 195.302115 95.261727 
L 197.510649 110.785784 
L 199.719184 113.142615 
L 208.553321 141.028009 
L 210.761855 154.224068 
L 212.97039 170.108677 
L 215.178924 191.796897 
L 221.804527 178.818867 
L 224.013061 196.579346 
L 226.221596 206.289459 
L 228.43013 218.337912 
L 230.638664 193.073333 
L 237.264267 164.706779 
L 239.472801 152.02572 
L 241.681336 149.11532 
L 243.88987 174.624793 
L 246.098404 168.036549 
L 252.724007 167.79335 
L 254.932542 154.419217 
L 257.141076 130.554355 
L 259.34961 150.581167 
L 261.558145 170.661822 
L 268.183748 177.569639 
L 270.392282 153.441133 
L 272.600816 151.61262 
L 274.809351 180.233028 
L 277.017885 190.002047 
L 285.852022 204.757563 
L 288.060557 226.645651 
L 290.269091 203.408516 
L 292.477625 175.903156 
L 299.103228 176.535428 
L 301.311763 195.729015 
L 303.520297 172.225805 
L 305.728831 183.513126 
L 307.937365 196.747837 
L 314.562968 234.325293 
L 316.771503 236.984185 
L 318.980037 205.729538 
L 321.188571 210.195641 
L 323.397106 227.62352 
L 330.022709 240.799565 
L 332.231243 219.992296 
L 334.439777 188.63425 
L 336.648312 170.519013 
L 338.856846 156.005686 
L 345.482449 160.108213 
L 347.690983 146.811434 
L 349.899518 166.577046 
L 352.108052 151.292741 
L 354.316586 147.385747 
L 360.942189 143.135493 
L 363.150724 118.215165 
L 365.359258 132.773765 
L 367.567792 148.63587 
L 369.776327 142.074522 
L 376.401929 134.992248 
L 378.610464 154.506071 
L 380.818998 168.141994 
L 383.027532 165.854531 
L 385.236067 168.8007 
L 391.86167 181.803524 
L 394.070204 184.301966 
L 396.278738 166.964501 
L 398.487273 179.486475 
" style="fill:none;stroke:#0000ff;stroke-linecap:square;stroke-opacity:0.9;stroke-width:2;"/>
   </g>
   <g id="line2d_15">
    <path clip-path="url(#p6e08c90534)" d="M 73.832727 52.154182 
L 76.041262 58.708229 
L 82.666865 65.130797 
L 84.875399 65.993807 
L 87.083933 60.477832 
L 91.501002 92.36275 
L 98.126605 83.915829 
L 100.335139 113.724152 
L 102.543673 136.548364 
L 104.752208 109.475212 
L 106.960742 124.422071 
L 113.586345 108.343915 
L 115.794879 81.021656 
L 118.003414 74.181139 
L 120.211948 91.556672 
L 122.420482 87.351245 
L 129.046085 98.901348 
L 131.25462 108.115265 
L 133.463154 91.324048 
L 135.671688 105.08252 
L 137.880223 107.714188 
L 144.505826 124.525816 
L 146.71436 96.284843 
L 148.922894 86.532654 
L 151.131429 77.040531 
L 159.965566 67.563232 
L 162.1741 70.229779 
L 164.382635 67.400746 
L 166.591169 69.156201 
L 168.799703 70.513213 
L 175.425306 67.940727 
L 177.63384 67.409908 
L 179.842375 99.702804 
L 182.050909 96.098617 
L 184.259443 104.322389 
L 190.885046 107.682564 
L 193.093581 94.263902 
L 195.302115 93.728343 
L 197.510649 108.798952 
L 199.719184 112.047984 
L 208.553321 138.0412 
L 210.761855 151.486607 
L 212.97039 167.516644 
L 215.178924 189.39033 
L 221.804527 175.950501 
L 224.013061 193.984838 
L 226.221596 203.139745 
L 228.43013 215.612776 
L 230.638664 189.42987 
L 237.264267 162.71288 
L 239.472801 151.084593 
L 241.681336 146.880367 
L 243.88987 171.412486 
L 246.098404 165.152024 
L 252.724007 164.992623 
L 254.932542 151.356975 
L 257.141076 129.452363 
L 259.34961 147.770166 
L 261.558145 168.140912 
L 268.183748 176.04827 
L 270.392282 151.639593 
L 272.600816 149.986946 
L 274.809351 177.905045 
L 277.017885 187.591627 
L 285.852022 201.46194 
L 288.060557 222.944204 
L 290.269091 202.144073 
L 292.477625 173.826035 
L 299.103228 173.781058 
L 301.311763 194.456748 
L 303.520297 170.48625 
L 305.728831 179.883207 
L 307.937365 193.252486 
L 314.562968 229.404617 
L 316.771503 232.88256 
L 318.980037 202.739991 
L 321.188571 206.386746 
L 323.397106 222.39703 
L 330.022709 235.445144 
L 332.231243 214.484378 
L 334.439777 184.51161 
L 336.648312 167.345919 
L 338.856846 153.953549 
L 345.482449 157.887195 
L 347.690983 145.321948 
L 349.899518 164.28664 
L 352.108052 150.30479 
L 354.316586 144.816413 
L 360.942189 140.216667 
L 363.150724 117.583268 
L 365.359258 130.844684 
L 367.567792 146.759607 
L 369.776327 139.477348 
L 376.401929 133.94902 
L 378.610464 153.342526 
L 380.818998 165.363629 
L 383.027532 163.813106 
L 385.236067 166.161521 
L 391.86167 178.923292 
L 394.070204 180.675566 
L 396.278738 163.4635 
L 398.487273 175.738007 
" style="fill:none;stroke:#ff0000;stroke-linecap:square;stroke-opacity:0.9;stroke-width:2;"/>
   </g>
   <g id="line2d_16">
    <path clip-path="url(#p6e08c90534)" d="M 73.832727 52.154182 
L 76.041262 59.011915 
L 82.666865 64.668165 
L 84.875399 65.163374 
L 87.083933 61.153659 
L 91.501002 93.225643 
L 98.126605 84.087549 
L 100.335139 113.134483 
L 102.543673 136.494887 
L 104.752208 109.496172 
L 106.960742 124.816664 
L 113.586345 108.206321 
L 115.794879 81.244573 
L 118.003414 73.14637 
L 120.211948 91.250379 
L 122.420482 87.468745 
L 129.046085 98.863676 
L 131.25462 108.789107 
L 133.463154 90.989274 
L 135.671688 105.271521 
L 137.880223 107.360069 
L 144.505826 125.024066 
L 146.71436 96.706775 
L 148.922894 85.729154 
L 151.131429 76.716228 
L 159.965566 67.158465 
L 162.1741 70.063377 
L 164.382635 67.229158 
L 166.591169 67.917638 
L 168.799703 70.054113 
L 175.425306 67.04067 
L 177.63384 67.281659 
L 179.842375 99.821735 
L 182.050909 96.854852 
L 184.259443 104.884066 
L 190.885046 108.996487 
L 193.093581 94.813091 
L 195.302115 94.918203 
L 197.510649 111.352549 
L 199.719184 113.256591 
L 208.553321 140.688686 
L 210.761855 154.004605 
L 212.97039 169.918611 
L 215.178924 191.501302 
L 221.804527 178.325979 
L 224.013061 196.35699 
L 226.221596 205.786819 
L 228.43013 218.161906 
L 230.638664 193.03227 
L 237.264267 163.135889 
L 239.472801 151.269892 
L 241.681336 148.73444 
L 243.88987 173.647516 
L 246.098404 167.211134 
L 252.724007 166.853666 
L 254.932542 153.083509 
L 257.141076 130.47047 
L 259.34961 149.279963 
L 261.558145 169.879719 
L 268.183748 176.868848 
L 270.392282 152.763043 
L 272.600816 151.400082 
L 274.809351 180.032421 
L 277.017885 189.902801 
L 285.852022 204.126309 
L 288.060557 225.968597 
L 290.269091 203.002365 
L 292.477625 174.565171 
L 299.103228 175.767987 
L 301.311763 194.514603 
L 303.520297 170.95306 
L 305.728831 181.866289 
L 307.937365 195.747682 
L 314.562968 232.470233 
L 316.771503 235.724721 
L 318.980037 205.396162 
L 321.188571 209.067783 
L 323.397106 225.646366 
L 330.022709 239.000013 
L 332.231243 218.252372 
L 334.439777 187.411889 
L 336.648312 168.502159 
L 338.856846 155.35126 
L 345.482449 158.595174 
L 347.690983 145.725648 
L 349.899518 166.355444 
L 352.108052 150.435459 
L 354.316586 145.74953 
L 360.942189 141.49042 
L 363.150724 117.411989 
L 365.359258 131.694394 
L 367.567792 148.151718 
L 369.776327 140.459392 
L 376.401929 134.719416 
L 378.610464 153.731709 
L 380.818998 166.295484 
L 383.027532 164.400386 
L 385.236067 168.415702 
L 391.86167 180.606125 
L 394.070204 183.671186 
L 396.278738 165.979228 
L 398.487273 179.179663 
" style="fill:none;stroke:#008000;stroke-linecap:square;stroke-opacity:0.9;stroke-width:2;"/>
   </g>
   <g id="line2d_17">
    <path clip-path="url(#p6e08c90534)" d="M 73.832727 52.154182 
L 76.041262 59.688 
L 82.666865 64.769049 
L 84.875399 65.482843 
L 87.083933 60.172615 
L 91.501002 92.94619 
L 98.126605 83.931666 
L 100.335139 112.780003 
L 102.543673 136.399323 
L 104.752208 109.822037 
L 106.960742 124.400069 
L 113.586345 108.205753 
L 115.794879 81.277013 
L 118.003414 72.79304 
L 120.211948 90.806807 
L 122.420482 87.647615 
L 129.046085 98.506933 
L 131.25462 108.18679 
L 133.463154 90.94601 
L 135.671688 105.220584 
L 137.880223 107.727625 
L 144.505826 124.66581 
L 146.71436 96.780603 
L 148.922894 86.297244 
L 151.131429 76.75949 
L 159.965566 66.539944 
L 162.1741 69.810182 
L 164.382635 67.370262 
L 166.591169 68.244807 
L 168.799703 69.434744 
L 175.425306 67.57163 
L 177.63384 67.881993 
L 179.842375 99.634351 
L 182.050909 97.498511 
L 184.259443 105.169248 
L 190.885046 108.295345 
L 193.093581 95.327932 
L 195.302115 95.147735 
L 197.510649 111.418084 
L 199.719184 113.836411 
L 208.553321 140.523006 
L 210.761855 154.048924 
L 212.97039 169.847868 
L 215.178924 192.088679 
L 221.804527 177.833261 
L 224.013061 196.220256 
L 226.221596 206.140222 
L 228.43013 218.466127 
L 230.638664 192.957623 
L 237.264267 163.661141 
L 239.472801 152.108434 
L 241.681336 149.655303 
L 243.88987 174.560403 
L 246.098404 167.067227 
L 252.724007 167.49515 
L 254.932542 153.904589 
L 257.141076 130.80086 
L 259.34961 150.324483 
L 261.558145 169.690618 
L 268.183748 176.6972 
L 270.392282 152.820413 
L 272.600816 152.137014 
L 274.809351 179.923175 
L 277.017885 189.665186 
L 285.852022 203.672752 
L 288.060557 226.508794 
L 290.269091 203.416699 
L 292.477625 175.167408 
L 299.103228 175.96578 
L 301.311763 195.458085 
L 303.520297 171.753557 
L 305.728831 183.018773 
L 307.937365 195.962471 
L 314.562968 233.685681 
L 316.771503 236.034219 
L 318.980037 206.063728 
L 321.188571 209.358751 
L 323.397106 226.947961 
L 330.022709 239.588581 
L 332.231243 219.333336 
L 334.439777 188.238016 
L 336.648312 169.063844 
L 338.856846 154.790835 
L 345.482449 159.296814 
L 347.690983 146.255652 
L 349.899518 166.476331 
L 352.108052 151.568669 
L 354.316586 146.574189 
L 360.942189 141.48162 
L 363.150724 118.197416 
L 365.359258 131.652656 
L 367.567792 148.104964 
L 369.776327 141.406391 
L 376.401929 134.581472 
L 378.610464 154.44547 
L 380.818998 167.433768 
L 383.027532 165.474813 
L 385.236067 168.129632 
L 391.86167 181.028475 
L 394.070204 183.61838 
L 396.278738 165.932 
L 398.487273 179.385905 
" style="fill:none;stroke:#ec5283;stroke-linecap:square;stroke-width:2;"/>
   </g>
   <g id="line2d_18">
    <path clip-path="url(#p6e08c90534)" d="M 73.832727 52.154182 
L 76.041262 58.66493 
L 82.666865 64.622789 
L 84.875399 66.077888 
L 87.083933 60.757203 
L 91.501002 92.41943 
L 98.126605 83.277737 
L 100.335139 112.858535 
L 102.543673 136.063836 
L 104.752208 109.047358 
L 106.960742 123.865373 
L 113.586345 108.064199 
L 115.794879 80.027203 
L 118.003414 73.2066 
L 120.211948 90.782517 
L 122.420482 87.179047 
L 129.046085 97.867112 
L 131.25462 107.867403 
L 133.463154 91.52018 
L 135.671688 105.032165 
L 137.880223 107.443947 
L 144.505826 124.285092 
L 146.71436 95.72079 
L 148.922894 85.873461 
L 151.131429 76.825823 
L 159.965566 66.912255 
L 162.1741 69.859328 
L 164.382635 66.535854 
L 166.591169 68.000702 
L 168.799703 69.22181 
L 175.425306 67.144943 
L 177.63384 67.019794 
L 179.842375 99.261688 
L 182.050909 96.180954 
L 184.259443 104.339496 
L 190.885046 108.194447 
L 193.093581 94.187339 
L 195.302115 94.516649 
L 197.510649 110.465295 
L 199.719184 112.521835 
L 208.553321 140.69417 
L 210.761855 153.66381 
L 212.97039 168.970233 
L 215.178924 191.599267 
L 221.804527 177.06641 
L 224.013061 195.502625 
L 226.221596 204.752852 
L 228.43013 217.144122 
L 230.638664 191.861015 
L 237.264267 163.459216 
L 239.472801 151.155298 
L 241.681336 148.26609 
L 243.88987 173.572889 
L 246.098404 166.602375 
L 252.724007 166.224371 
L 254.932542 153.272915 
L 257.141076 130.326133 
L 259.34961 148.68419 
L 261.558145 169.504204 
L 268.183748 176.401992 
L 270.392282 152.806688 
L 272.600816 150.378913 
L 274.809351 179.884723 
L 277.017885 189.073746 
L 285.852022 202.724312 
L 288.060557 224.546759 
L 290.269091 202.664782 
L 292.477625 173.896018 
L 299.103228 174.479792 
L 301.311763 194.091742 
L 303.520297 171.077703 
L 305.728831 180.869017 
L 307.937365 194.808516 
L 314.562968 231.971373 
L 316.771503 234.638801 
L 318.980037 204.23237 
L 321.188571 208.044442 
L 323.397106 225.515609 
L 330.022709 238.761553 
L 332.231243 217.517595 
L 334.439777 187.026506 
L 336.648312 168.657295 
L 338.856846 154.616006 
L 345.482449 158.260472 
L 347.690983 145.307608 
L 349.899518 165.771634 
L 352.108052 150.004662 
L 354.316586 145.563445 
L 360.942189 141.071167 
L 363.150724 116.776764 
L 365.359258 130.561816 
L 367.567792 147.539559 
L 369.776327 139.850461 
L 376.401929 133.692459 
L 378.610464 153.448149 
L 380.818998 166.069917 
L 383.027532 164.603637 
L 385.236067 167.66193 
L 391.86167 180.038565 
L 394.070204 183.0733 
L 396.278738 165.666321 
L 398.487273 178.340395 
" style="fill:none;stroke:#00ff00;stroke-linecap:square;stroke-opacity:0.9;stroke-width:2;"/>
   </g>
   <g id="line2d_19">
    <path clip-path="url(#p6e08c90534)" d="M 73.832727 52.154182 
L 76.041262 60.880212 
L 82.666865 66.220098 
L 84.875399 68.98815 
L 87.083933 63.195425 
L 91.501002 94.181267 
L 98.126605 88.560639 
L 100.335139 117.986379 
L 102.543673 141.548552 
L 104.752208 112.144365 
L 106.960742 128.162461 
L 113.586345 110.918007 
L 115.794879 81.784212 
L 118.003414 72.837014 
L 120.211948 94.12433 
L 122.420482 93.819141 
L 129.046085 103.535572 
L 131.25462 114.454079 
L 133.463154 97.355808 
L 135.671688 112.243805 
L 137.880223 109.43142 
L 144.505826 128.381118 
L 146.71436 96.648499 
L 148.922894 86.230308 
L 151.131429 77.735413 
L 159.965566 63.668362 
L 162.1741 67.786082 
L 164.382635 63.969306 
L 166.591169 63.333203 
L 168.799703 64.775657 
L 175.425306 62.170856 
L 177.63384 64.722417 
L 179.842375 104.374035 
L 182.050909 103.241132 
L 184.259443 116.614803 
L 190.885046 119.369589 
L 193.093581 104.127502 
L 195.302115 105.301116 
L 197.510649 127.891886 
L 199.719184 132.374396 
L 208.553321 163.326028 
L 210.761855 174.958478 
L 212.97039 188.707924 
L 215.178924 213.144551 
L 221.804527 195.501959 
L 224.013061 220.059071 
L 226.221596 229.851645 
L 228.43013 244.98732 
L 230.638664 214.856353 
L 237.264267 179.331254 
L 239.472801 166.799612 
L 241.681336 167.396526 
L 243.88987 193.095931 
L 246.098404 185.239202 
L 252.724007 184.047583 
L 254.932542 169.840693 
L 257.141076 145.3593 
L 259.34961 165.635875 
L 261.558145 186.707786 
L 268.183748 192.572217 
L 270.392282 168.126805 
L 272.600816 167.519622 
L 274.809351 198.884627 
L 277.017885 210.319275 
L 285.852022 225.345155 
L 288.060557 248.907993 
L 290.269091 219.286341 
L 292.477625 194.578664 
L 299.103228 193.972283 
L 301.311763 212.237692 
L 303.520297 190.767632 
L 305.728831 204.069959 
L 307.937365 217.649443 
L 314.562968 255.296188 
L 316.771503 259.340628 
L 318.980037 225.896977 
L 321.188571 231.1193 
L 323.397106 250.312196 
L 330.022709 265.797818 
L 332.231243 242.363926 
L 334.439777 208.370728 
L 336.648312 188.911653 
L 338.856846 172.679014 
L 345.482449 177.120925 
L 347.690983 162.882478 
L 349.899518 179.911915 
L 352.108052 163.295026 
L 354.316586 161.14733 
L 360.942189 154.411527 
L 363.150724 127.975999 
L 365.359258 142.376228 
L 367.567792 158.71984 
L 369.776327 150.99825 
L 376.401929 143.193529 
L 378.610464 163.743556 
L 380.818998 176.036895 
L 383.027532 175.659304 
L 385.236067 178.811981 
L 391.86167 190.837316 
L 394.070204 193.548887 
L 396.278738 175.141916 
L 398.487273 188.983383 
" style="fill:none;stroke:#a5b9cf;stroke-linecap:square;stroke-width:2;"/>
   </g>
   <g id="patch_3">
    <path d="M 57.6 276.48 
L 57.6 41.472 
" style="fill:none;stroke:#000000;stroke-linecap:square;stroke-linejoin:miter;stroke-width:0.8;"/>
   </g>
   <g id="patch_4">
    <path d="M 414.72 276.48 
L 414.72 41.472 
" style="fill:none;stroke:#000000;stroke-linecap:square;stroke-linejoin:miter;stroke-width:0.8;"/>
   </g>
   <g id="patch_5">
    <path d="M 57.6 276.48 
L 414.72 276.48 
" style="fill:none;stroke:#000000;stroke-linecap:square;stroke-linejoin:miter;stroke-width:0.8;"/>
   </g>
   <g id="patch_6">
    <path d="M 57.6 41.472 
L 414.72 41.472 
" style="fill:none;stroke:#000000;stroke-linecap:square;stroke-linejoin:miter;stroke-width:0.8;"/>
   </g>
   <g id="text_15">
    <!-- SCHMOO -->
    <g transform="translate(209.025937 22.034625)scale(0.12 -0.12)">
     <defs>
      <path d="M 3425 4513 
L 3425 3897 
Q 3066 4069 2747 4153 
Q 2428 4238 2131 4238 
Q 1616 4238 1336 4038 
Q 1056 3838 1056 3469 
Q 1056 3159 1242 3001 
Q 1428 2844 1947 2747 
L 2328 2669 
Q 3034 2534 3370 2195 
Q 3706 1856 3706 1288 
Q 3706 609 3251 259 
Q 2797 -91 1919 -91 
Q 1588 -91 1214 -16 
Q 841 59 441 206 
L 441 856 
Q 825 641 1194 531 
Q 1563 422 1919 422 
Q 2459 422 2753 634 
Q 3047 847 3047 1241 
Q 3047 1584 2836 1778 
Q 2625 1972 2144 2069 
L 1759 2144 
Q 1053 2284 737 2584 
Q 422 2884 422 3419 
Q 422 4038 858 4394 
Q 1294 4750 2059 4750 
Q 2388 4750 2728 4690 
Q 3069 4631 3425 4513 
z
" id="DejaVuSans-53" transform="scale(0.015625)"/>
      <path d="M 4122 4306 
L 4122 3641 
Q 3803 3938 3442 4084 
Q 3081 4231 2675 4231 
Q 1875 4231 1450 3742 
Q 1025 3253 1025 2328 
Q 1025 1406 1450 917 
Q 1875 428 2675 428 
Q 3081 428 3442 575 
Q 3803 722 4122 1019 
L 4122 359 
Q 3791 134 3420 21 
Q 3050 -91 2638 -91 
Q 1578 -91 968 557 
Q 359 1206 359 2328 
Q 359 3453 968 4101 
Q 1578 4750 2638 4750 
Q 3056 4750 3426 4639 
Q 3797 4528 4122 4306 
z
" id="DejaVuSans-43" transform="scale(0.015625)"/>
      <path d="M 628 4666 
L 1259 4666 
L 1259 2753 
L 3553 2753 
L 3553 4666 
L 4184 4666 
L 4184 0 
L 3553 0 
L 3553 2222 
L 1259 2222 
L 1259 0 
L 628 0 
L 628 4666 
z
" id="DejaVuSans-48" transform="scale(0.015625)"/>
      <path d="M 628 4666 
L 1569 4666 
L 2759 1491 
L 3956 4666 
L 4897 4666 
L 4897 0 
L 4281 0 
L 4281 4097 
L 3078 897 
L 2444 897 
L 1241 4097 
L 1241 0 
L 628 0 
L 628 4666 
z
" id="DejaVuSans-4d" transform="scale(0.015625)"/>
      <path d="M 2522 4238 
Q 1834 4238 1429 3725 
Q 1025 3213 1025 2328 
Q 1025 1447 1429 934 
Q 1834 422 2522 422 
Q 3209 422 3611 934 
Q 4013 1447 4013 2328 
Q 4013 3213 3611 3725 
Q 3209 4238 2522 4238 
z
M 2522 4750 
Q 3503 4750 4090 4092 
Q 4678 3434 4678 2328 
Q 4678 1225 4090 567 
Q 3503 -91 2522 -91 
Q 1538 -91 948 565 
Q 359 1222 359 2328 
Q 359 3434 948 4092 
Q 1538 4750 2522 4750 
z
" id="DejaVuSans-4f" transform="scale(0.015625)"/>
     </defs>
     <use xlink:href="#DejaVuSans-53"/>
     <use x="63.476562" xlink:href="#DejaVuSans-43"/>
     <use x="133.300781" xlink:href="#DejaVuSans-48"/>
     <use x="208.496094" xlink:href="#DejaVuSans-4d"/>
     <use x="294.775391" xlink:href="#DejaVuSans-4f"/>
     <use x="373.486328" xlink:href="#DejaVuSans-4f"/>
    </g>
    <!-- daily_report -->
    <g transform="translate(200.466563 35.472)scale(0.12 -0.12)">
     <defs>
      <path d="M 603 3500 
L 1178 3500 
L 1178 0 
L 603 0 
L 603 3500 
z
M 603 4863 
L 1178 4863 
L 1178 4134 
L 603 4134 
L 603 4863 
z
" id="DejaVuSans-69" transform="scale(0.015625)"/>
      <path d="M 603 4863 
L 1178 4863 
L 1178 0 
L 603 0 
L 603 4863 
z
" id="DejaVuSans-6c" transform="scale(0.015625)"/>
      <path d="M 2059 -325 
Q 1816 -950 1584 -1140 
Q 1353 -1331 966 -1331 
L 506 -1331 
L 506 -850 
L 844 -850 
Q 1081 -850 1212 -737 
Q 1344 -625 1503 -206 
L 1606 56 
L 191 3500 
L 800 3500 
L 1894 763 
L 2988 3500 
L 3597 3500 
L 2059 -325 
z
" id="DejaVuSans-79" transform="scale(0.015625)"/>
      <path d="M 3263 -1063 
L 3263 -1509 
L -63 -1509 
L -63 -1063 
L 3263 -1063 
z
" id="DejaVuSans-5f" transform="scale(0.015625)"/>
      <path d="M 2631 2963 
Q 2534 3019 2420 3045 
Q 2306 3072 2169 3072 
Q 1681 3072 1420 2755 
Q 1159 2438 1159 1844 
L 1159 0 
L 581 0 
L 581 3500 
L 1159 3500 
L 1159 2956 
Q 1341 3275 1631 3429 
Q 1922 3584 2338 3584 
Q 2397 3584 2469 3576 
Q 2541 3569 2628 3553 
L 2631 2963 
z
" id="DejaVuSans-72" transform="scale(0.015625)"/>
      <path d="M 1159 525 
L 1159 -1331 
L 581 -1331 
L 581 3500 
L 1159 3500 
L 1159 2969 
Q 1341 3281 1617 3432 
Q 1894 3584 2278 3584 
Q 2916 3584 3314 3078 
Q 3713 2572 3713 1747 
Q 3713 922 3314 415 
Q 2916 -91 2278 -91 
Q 1894 -91 1617 61 
Q 1341 213 1159 525 
z
M 3116 1747 
Q 3116 2381 2855 2742 
Q 2594 3103 2138 3103 
Q 1681 3103 1420 2742 
Q 1159 2381 1159 1747 
Q 1159 1113 1420 752 
Q 1681 391 2138 391 
Q 2594 391 2855 752 
Q 3116 1113 3116 1747 
z
" id="DejaVuSans-70" transform="scale(0.015625)"/>
      <path d="M 1959 3097 
Q 1497 3097 1228 2736 
Q 959 2375 959 1747 
Q 959 1119 1226 758 
Q 1494 397 1959 397 
Q 2419 397 2687 759 
Q 2956 1122 2956 1747 
Q 2956 2369 2687 2733 
Q 2419 3097 1959 3097 
z
M 1959 3584 
Q 2709 3584 3137 3096 
Q 3566 2609 3566 1747 
Q 3566 888 3137 398 
Q 2709 -91 1959 -91 
Q 1206 -91 779 398 
Q 353 888 353 1747 
Q 353 2609 779 3096 
Q 1206 3584 1959 3584 
z
" id="DejaVuSans-6f" transform="scale(0.015625)"/>
     </defs>
     <use xlink:href="#DejaVuSans-64"/>
     <use x="63.476562" xlink:href="#DejaVuSans-61"/>
     <use x="124.755859" xlink:href="#DejaVuSans-69"/>
     <use x="152.539062" xlink:href="#DejaVuSans-6c"/>
     <use x="180.322266" xlink:href="#DejaVuSans-79"/>
     <use x="239.501953" xlink:href="#DejaVuSans-5f"/>
     <use x="289.501953" xlink:href="#DejaVuSans-72"/>
     <use x="328.365234" xlink:href="#DejaVuSans-65"/>
     <use x="389.888672" xlink:href="#DejaVuSans-70"/>
     <use x="453.365234" xlink:href="#DejaVuSans-6f"/>
     <use x="514.546875" xlink:href="#DejaVuSans-72"/>
     <use x="555.660156" xlink:href="#DejaVuSans-74"/>
    </g>
   </g>
   <g id="legend_1">
    <g id="patch_7">
     <path d="M 64.6 271.48 
L 178.64375 271.48 
Q 180.64375 271.48 180.64375 269.48 
L 180.64375 182.41125 
Q 180.64375 180.41125 178.64375 180.41125 
L 64.6 180.41125 
Q 62.6 180.41125 62.6 182.41125 
L 62.6 269.48 
Q 62.6 271.48 64.6 271.48 
z
" style="fill:#ffffff;opacity:0.8;stroke:#cccccc;stroke-linejoin:miter;"/>
    </g>
    <g id="line2d_20">
     <path d="M 66.6 188.509687 
L 86.6 188.509687 
" style="fill:none;stroke:#0000ff;stroke-linecap:square;stroke-opacity:0.9;stroke-width:2;"/>
    </g>
    <g id="line2d_21"/>
    <g id="text_16">
     <!-- alpaca -->
     <g transform="translate(94.6 192.009687)scale(0.1 -0.1)">
      <defs>
       <path d="M 3122 3366 
L 3122 2828 
Q 2878 2963 2633 3030 
Q 2388 3097 2138 3097 
Q 1578 3097 1268 2742 
Q 959 2388 959 1747 
Q 959 1106 1268 751 
Q 1578 397 2138 397 
Q 2388 397 2633 464 
Q 2878 531 3122 666 
L 3122 134 
Q 2881 22 2623 -34 
Q 2366 -91 2075 -91 
Q 1284 -91 818 406 
Q 353 903 353 1747 
Q 353 2603 823 3093 
Q 1294 3584 2113 3584 
Q 2378 3584 2631 3529 
Q 2884 3475 3122 3366 
z
" id="DejaVuSans-63" transform="scale(0.015625)"/>
      </defs>
      <use xlink:href="#DejaVuSans-61"/>
      <use x="61.279297" xlink:href="#DejaVuSans-6c"/>
      <use x="89.0625" xlink:href="#DejaVuSans-70"/>
      <use x="152.539062" xlink:href="#DejaVuSans-61"/>
      <use x="213.818359" xlink:href="#DejaVuSans-63"/>
      <use x="268.798828" xlink:href="#DejaVuSans-61"/>
     </g>
    </g>
    <g id="line2d_22">
     <path d="M 66.6 203.187812 
L 86.6 203.187812 
" style="fill:none;stroke:#ff0000;stroke-linecap:square;stroke-opacity:0.9;stroke-width:2;"/>
    </g>
    <g id="line2d_23"/>
    <g id="text_17">
     <!-- mattress -->
     <g transform="translate(94.6 206.687812)scale(0.1 -0.1)">
      <defs>
       <path d="M 3328 2828 
Q 3544 3216 3844 3400 
Q 4144 3584 4550 3584 
Q 5097 3584 5394 3201 
Q 5691 2819 5691 2113 
L 5691 0 
L 5113 0 
L 5113 2094 
Q 5113 2597 4934 2840 
Q 4756 3084 4391 3084 
Q 3944 3084 3684 2787 
Q 3425 2491 3425 1978 
L 3425 0 
L 2847 0 
L 2847 2094 
Q 2847 2600 2669 2842 
Q 2491 3084 2119 3084 
Q 1678 3084 1418 2786 
Q 1159 2488 1159 1978 
L 1159 0 
L 581 0 
L 581 3500 
L 1159 3500 
L 1159 2956 
Q 1356 3278 1631 3431 
Q 1906 3584 2284 3584 
Q 2666 3584 2933 3390 
Q 3200 3197 3328 2828 
z
" id="DejaVuSans-6d" transform="scale(0.015625)"/>
       <path d="M 2834 3397 
L 2834 2853 
Q 2591 2978 2328 3040 
Q 2066 3103 1784 3103 
Q 1356 3103 1142 2972 
Q 928 2841 928 2578 
Q 928 2378 1081 2264 
Q 1234 2150 1697 2047 
L 1894 2003 
Q 2506 1872 2764 1633 
Q 3022 1394 3022 966 
Q 3022 478 2636 193 
Q 2250 -91 1575 -91 
Q 1294 -91 989 -36 
Q 684 19 347 128 
L 347 722 
Q 666 556 975 473 
Q 1284 391 1588 391 
Q 1994 391 2212 530 
Q 2431 669 2431 922 
Q 2431 1156 2273 1281 
Q 2116 1406 1581 1522 
L 1381 1569 
Q 847 1681 609 1914 
Q 372 2147 372 2553 
Q 372 3047 722 3315 
Q 1072 3584 1716 3584 
Q 2034 3584 2315 3537 
Q 2597 3491 2834 3397 
z
" id="DejaVuSans-73" transform="scale(0.015625)"/>
      </defs>
      <use xlink:href="#DejaVuSans-6d"/>
      <use x="97.412109" xlink:href="#DejaVuSans-61"/>
      <use x="158.691406" xlink:href="#DejaVuSans-74"/>
      <use x="197.900391" xlink:href="#DejaVuSans-74"/>
      <use x="237.109375" xlink:href="#DejaVuSans-72"/>
      <use x="275.972656" xlink:href="#DejaVuSans-65"/>
      <use x="337.496094" xlink:href="#DejaVuSans-73"/>
      <use x="389.595703" xlink:href="#DejaVuSans-73"/>
     </g>
    </g>
    <g id="line2d_24">
     <path d="M 66.6 217.865937 
L 86.6 217.865937 
" style="fill:none;stroke:#008000;stroke-linecap:square;stroke-opacity:0.9;stroke-width:2;"/>
    </g>
    <g id="line2d_25"/>
    <g id="text_18">
     <!-- daily-open-rebal -->
     <g transform="translate(94.6 221.365937)scale(0.1 -0.1)">
      <defs>
       <path d="M 3513 2113 
L 3513 0 
L 2938 0 
L 2938 2094 
Q 2938 2591 2744 2837 
Q 2550 3084 2163 3084 
Q 1697 3084 1428 2787 
Q 1159 2491 1159 1978 
L 1159 0 
L 581 0 
L 581 3500 
L 1159 3500 
L 1159 2956 
Q 1366 3272 1645 3428 
Q 1925 3584 2291 3584 
Q 2894 3584 3203 3211 
Q 3513 2838 3513 2113 
z
" id="DejaVuSans-6e" transform="scale(0.015625)"/>
       <path d="M 3116 1747 
Q 3116 2381 2855 2742 
Q 2594 3103 2138 3103 
Q 1681 3103 1420 2742 
Q 1159 2381 1159 1747 
Q 1159 1113 1420 752 
Q 1681 391 2138 391 
Q 2594 391 2855 752 
Q 3116 1113 3116 1747 
z
M 1159 2969 
Q 1341 3281 1617 3432 
Q 1894 3584 2278 3584 
Q 2916 3584 3314 3078 
Q 3713 2572 3713 1747 
Q 3713 922 3314 415 
Q 2916 -91 2278 -91 
Q 1894 -91 1617 61 
Q 1341 213 1159 525 
L 1159 0 
L 581 0 
L 581 4863 
L 1159 4863 
L 1159 2969 
z
" id="DejaVuSans-62" transform="scale(0.015625)"/>
      </defs>
      <use xlink:href="#DejaVuSans-64"/>
      <use x="63.476562" xlink:href="#DejaVuSans-61"/>
      <use x="124.755859" xlink:href="#DejaVuSans-69"/>
      <use x="152.539062" xlink:href="#DejaVuSans-6c"/>
      <use x="180.322266" xlink:href="#DejaVuSans-79"/>
      <use x="237.751953" xlink:href="#DejaVuSans-2d"/>
      <use x="275.710938" xlink:href="#DejaVuSans-6f"/>
      <use x="336.892578" xlink:href="#DejaVuSans-70"/>
      <use x="400.369141" xlink:href="#DejaVuSans-65"/>
      <use x="461.892578" xlink:href="#DejaVuSans-6e"/>
      <use x="525.271484" xlink:href="#DejaVuSans-2d"/>
      <use x="561.355469" xlink:href="#DejaVuSans-72"/>
      <use x="600.21875" xlink:href="#DejaVuSans-65"/>
      <use x="661.742188" xlink:href="#DejaVuSans-62"/>
      <use x="725.21875" xlink:href="#DejaVuSans-61"/>
      <use x="786.498047" xlink:href="#DejaVuSans-6c"/>
     </g>
    </g>
    <g id="line2d_26">
     <path d="M 66.6 232.544062 
L 86.6 232.544062 
" style="fill:none;stroke:#ec5283;stroke-linecap:square;stroke-width:2;"/>
    </g>
    <g id="line2d_27"/>
    <g id="text_19">
     <!-- daily-close-rebal -->
     <g transform="translate(94.6 236.044062)scale(0.1 -0.1)">
      <use xlink:href="#DejaVuSans-64"/>
      <use x="63.476562" xlink:href="#DejaVuSans-61"/>
      <use x="124.755859" xlink:href="#DejaVuSans-69"/>
      <use x="152.539062" xlink:href="#DejaVuSans-6c"/>
      <use x="180.322266" xlink:href="#DejaVuSans-79"/>
      <use x="237.751953" xlink:href="#DejaVuSans-2d"/>
      <use x="273.835938" xlink:href="#DejaVuSans-63"/>
      <use x="328.816406" xlink:href="#DejaVuSans-6c"/>
      <use x="356.599609" xlink:href="#DejaVuSans-6f"/>
      <use x="417.78125" xlink:href="#DejaVuSans-73"/>
      <use x="469.880859" xlink:href="#DejaVuSans-65"/>
      <use x="531.404297" xlink:href="#DejaVuSans-2d"/>
      <use x="567.488281" xlink:href="#DejaVuSans-72"/>
      <use x="606.351562" xlink:href="#DejaVuSans-65"/>
      <use x="667.875" xlink:href="#DejaVuSans-62"/>
      <use x="731.351562" xlink:href="#DejaVuSans-61"/>
      <use x="792.630859" xlink:href="#DejaVuSans-6c"/>
     </g>
    </g>
    <g id="line2d_28">
     <path d="M 66.6 247.222187 
L 86.6 247.222187 
" style="fill:none;stroke:#00ff00;stroke-linecap:square;stroke-opacity:0.9;stroke-width:2;"/>
    </g>
    <g id="line2d_29"/>
    <g id="text_20">
     <!-- trader-baseline -->
     <g transform="translate(94.6 250.722187)scale(0.1 -0.1)">
      <use xlink:href="#DejaVuSans-74"/>
      <use x="39.208984" xlink:href="#DejaVuSans-72"/>
      <use x="80.322266" xlink:href="#DejaVuSans-61"/>
      <use x="141.601562" xlink:href="#DejaVuSans-64"/>
      <use x="205.078125" xlink:href="#DejaVuSans-65"/>
      <use x="266.601562" xlink:href="#DejaVuSans-72"/>
      <use x="301.339844" xlink:href="#DejaVuSans-2d"/>
      <use x="337.423828" xlink:href="#DejaVuSans-62"/>
      <use x="400.900391" xlink:href="#DejaVuSans-61"/>
      <use x="462.179688" xlink:href="#DejaVuSans-73"/>
      <use x="514.279297" xlink:href="#DejaVuSans-65"/>
      <use x="575.802734" xlink:href="#DejaVuSans-6c"/>
      <use x="603.585938" xlink:href="#DejaVuSans-69"/>
      <use x="631.369141" xlink:href="#DejaVuSans-6e"/>
      <use x="694.748047" xlink:href="#DejaVuSans-65"/>
     </g>
    </g>
    <g id="line2d_30">
     <path d="M 66.6 261.900312 
L 86.6 261.900312 
" style="fill:none;stroke:#a5b9cf;stroke-linecap:square;stroke-width:2;"/>
    </g>
    <g id="line2d_31"/>
    <g id="text_21">
     <!-- default-cfg -->
     <g transform="translate(94.6 265.400312)scale(0.1 -0.1)">
      <defs>
       <path d="M 2375 4863 
L 2375 4384 
L 1825 4384 
Q 1516 4384 1395 4259 
Q 1275 4134 1275 3809 
L 1275 3500 
L 2222 3500 
L 2222 3053 
L 1275 3053 
L 1275 0 
L 697 0 
L 697 3053 
L 147 3053 
L 147 3500 
L 697 3500 
L 697 3744 
Q 697 4328 969 4595 
Q 1241 4863 1831 4863 
L 2375 4863 
z
" id="DejaVuSans-66" transform="scale(0.015625)"/>
       <path d="M 544 1381 
L 544 3500 
L 1119 3500 
L 1119 1403 
Q 1119 906 1312 657 
Q 1506 409 1894 409 
Q 2359 409 2629 706 
Q 2900 1003 2900 1516 
L 2900 3500 
L 3475 3500 
L 3475 0 
L 2900 0 
L 2900 538 
Q 2691 219 2414 64 
Q 2138 -91 1772 -91 
Q 1169 -91 856 284 
Q 544 659 544 1381 
z
M 1991 3584 
L 1991 3584 
z
" id="DejaVuSans-75" transform="scale(0.015625)"/>
       <path d="M 2906 1791 
Q 2906 2416 2648 2759 
Q 2391 3103 1925 3103 
Q 1463 3103 1205 2759 
Q 947 2416 947 1791 
Q 947 1169 1205 825 
Q 1463 481 1925 481 
Q 2391 481 2648 825 
Q 2906 1169 2906 1791 
z
M 3481 434 
Q 3481 -459 3084 -895 
Q 2688 -1331 1869 -1331 
Q 1566 -1331 1297 -1286 
Q 1028 -1241 775 -1147 
L 775 -588 
Q 1028 -725 1275 -790 
Q 1522 -856 1778 -856 
Q 2344 -856 2625 -561 
Q 2906 -266 2906 331 
L 2906 616 
Q 2728 306 2450 153 
Q 2172 0 1784 0 
Q 1141 0 747 490 
Q 353 981 353 1791 
Q 353 2603 747 3093 
Q 1141 3584 1784 3584 
Q 2172 3584 2450 3431 
Q 2728 3278 2906 2969 
L 2906 3500 
L 3481 3500 
L 3481 434 
z
" id="DejaVuSans-67" transform="scale(0.015625)"/>
      </defs>
      <use xlink:href="#DejaVuSans-64"/>
      <use x="63.476562" xlink:href="#DejaVuSans-65"/>
      <use x="125" xlink:href="#DejaVuSans-66"/>
      <use x="160.205078" xlink:href="#DejaVuSans-61"/>
      <use x="221.484375" xlink:href="#DejaVuSans-75"/>
      <use x="284.863281" xlink:href="#DejaVuSans-6c"/>
      <use x="312.646484" xlink:href="#DejaVuSans-74"/>
      <use x="351.855469" xlink:href="#DejaVuSans-2d"/>
      <use x="387.939453" xlink:href="#DejaVuSans-63"/>
      <use x="442.919922" xlink:href="#DejaVuSans-66"/>
      <use x="478.125" xlink:href="#DejaVuSans-67"/>
     </g>
    </g>
   </g>
  </g>
 </g>
 <defs>
  <clipPath id="p6e08c90534">
   <rect height="235.008" width="357.12" x="57.6" y="41.472"/>
  </clipPath>
 </defs>
</svg>
