<?xml version="1.0" encoding="utf-8" standalone="no"?>
<!DOCTYPE svg PUBLIC "-//W3C//DTD SVG 1.1//EN"
  "http://www.w3.org/Graphics/SVG/1.1/DTD/svg11.dtd">
<svg height="345.6pt" version="1.1" viewBox="0 0 460.8 345.6" width="460.8pt" xmlns="http://www.w3.org/2000/svg" xmlns:xlink="http://www.w3.org/1999/xlink">
 <metadata>
  <rdf:RDF xmlns:cc="http://creativecommons.org/ns#" xmlns:dc="http://purl.org/dc/elements/1.1/" xmlns:rdf="http://www.w3.org/1999/02/22-rdf-syntax-ns#">
   <cc:Work>
    <dc:type rdf:resource="http://purl.org/dc/dcmitype/StillImage"/>
    <dc:date>2022-02-20T01:01:30.347908</dc:date>
    <dc:format>image/svg+xml</dc:format>
    <dc:creator>
     <cc:Agent>
      <dc:title>Matplotlib v3.4.3, https://matplotlib.org/</dc:title>
     </cc:Agent>
    </dc:creator>
   </cc:Work>
  </rdf:RDF>
 </metadata>
 <defs>
  <style type="text/css">*{stroke-linecap:butt;stroke-linejoin:round;}</style>
 </defs>
 <g id="figure_1">
  <g id="patch_1">
   <path d="M 0 345.6 
L 460.8 345.6 
L 460.8 0 
L 0 0 
z
" style="fill:#ffffff;"/>
  </g>
  <g id="axes_1">
   <g id="patch_2">
    <path d="M 57.6 276.48 
L 414.72 276.48 
L 414.72 41.472 
L 57.6 41.472 
z
" style="fill:#ffffff;"/>
   </g>
   <g id="matplotlib.axis_1">
    <g id="xtick_1">
     <g id="line2d_1">
      <defs>
       <path d="M 0 0 
L 0 3.5 
" id="m40a44d85a2" style="stroke:#000000;stroke-width:0.8;"/>
      </defs>
      <g>
       <use style="stroke:#000000;stroke-width:0.8;" x="90.15614" xlink:href="#m40a44d85a2" y="276.48"/>
      </g>
     </g>
     <g id="text_1">
      <!-- 2021-09 -->
      <g transform="translate(52.931319 310.951846)rotate(-30)scale(0.1 -0.1)">
       <defs>
        <path d="M 1228 531 
L 3431 531 
L 3431 0 
L 469 0 
L 469 531 
Q 828 903 1448 1529 
Q 2069 2156 2228 2338 
Q 2531 2678 2651 2914 
Q 2772 3150 2772 3378 
Q 2772 3750 2511 3984 
Q 2250 4219 1831 4219 
Q 1534 4219 1204 4116 
Q 875 4013 500 3803 
L 500 4441 
Q 881 4594 1212 4672 
Q 1544 4750 1819 4750 
Q 2544 4750 2975 4387 
Q 3406 4025 3406 3419 
Q 3406 3131 3298 2873 
Q 3191 2616 2906 2266 
Q 2828 2175 2409 1742 
Q 1991 1309 1228 531 
z
" id="DejaVuSans-32" transform="scale(0.015625)"/>
        <path d="M 2034 4250 
Q 1547 4250 1301 3770 
Q 1056 3291 1056 2328 
Q 1056 1369 1301 889 
Q 1547 409 2034 409 
Q 2525 409 2770 889 
Q 3016 1369 3016 2328 
Q 3016 3291 2770 3770 
Q 2525 4250 2034 4250 
z
M 2034 4750 
Q 2819 4750 3233 4129 
Q 3647 3509 3647 2328 
Q 3647 1150 3233 529 
Q 2819 -91 2034 -91 
Q 1250 -91 836 529 
Q 422 1150 422 2328 
Q 422 3509 836 4129 
Q 1250 4750 2034 4750 
z
" id="DejaVuSans-30" transform="scale(0.015625)"/>
        <path d="M 794 531 
L 1825 531 
L 1825 4091 
L 703 3866 
L 703 4441 
L 1819 4666 
L 2450 4666 
L 2450 531 
L 3481 531 
L 3481 0 
L 794 0 
L 794 531 
z
" id="DejaVuSans-31" transform="scale(0.015625)"/>
        <path d="M 313 2009 
L 1997 2009 
L 1997 1497 
L 313 1497 
L 313 2009 
z
" id="DejaVuSans-2d" transform="scale(0.015625)"/>
        <path d="M 703 97 
L 703 672 
Q 941 559 1184 500 
Q 1428 441 1663 441 
Q 2288 441 2617 861 
Q 2947 1281 2994 2138 
Q 2813 1869 2534 1725 
Q 2256 1581 1919 1581 
Q 1219 1581 811 2004 
Q 403 2428 403 3163 
Q 403 3881 828 4315 
Q 1253 4750 1959 4750 
Q 2769 4750 3195 4129 
Q 3622 3509 3622 2328 
Q 3622 1225 3098 567 
Q 2575 -91 1691 -91 
Q 1453 -91 1209 -44 
Q 966 3 703 97 
z
M 1959 2075 
Q 2384 2075 2632 2365 
Q 2881 2656 2881 3163 
Q 2881 3666 2632 3958 
Q 2384 4250 1959 4250 
Q 1534 4250 1286 3958 
Q 1038 3666 1038 3163 
Q 1038 2656 1286 2365 
Q 1534 2075 1959 2075 
z
" id="DejaVuSans-39" transform="scale(0.015625)"/>
       </defs>
       <use xlink:href="#DejaVuSans-32"/>
       <use x="63.623047" xlink:href="#DejaVuSans-30"/>
       <use x="127.246094" xlink:href="#DejaVuSans-32"/>
       <use x="190.869141" xlink:href="#DejaVuSans-31"/>
       <use x="254.492188" xlink:href="#DejaVuSans-2d"/>
       <use x="290.576172" xlink:href="#DejaVuSans-30"/>
       <use x="354.199219" xlink:href="#DejaVuSans-39"/>
      </g>
     </g>
    </g>
    <g id="xtick_2">
     <g id="line2d_2">
      <g>
       <use style="stroke:#000000;stroke-width:0.8;" x="144.567517" xlink:href="#m40a44d85a2" y="276.48"/>
      </g>
     </g>
     <g id="text_2">
      <!-- 2021-10 -->
      <g transform="translate(107.342696 310.951846)rotate(-30)scale(0.1 -0.1)">
       <use xlink:href="#DejaVuSans-32"/>
       <use x="63.623047" xlink:href="#DejaVuSans-30"/>
       <use x="127.246094" xlink:href="#DejaVuSans-32"/>
       <use x="190.869141" xlink:href="#DejaVuSans-31"/>
       <use x="254.492188" xlink:href="#DejaVuSans-2d"/>
       <use x="290.576172" xlink:href="#DejaVuSans-31"/>
       <use x="354.199219" xlink:href="#DejaVuSans-30"/>
      </g>
     </g>
    </g>
    <g id="xtick_3">
     <g id="line2d_3">
      <g>
       <use style="stroke:#000000;stroke-width:0.8;" x="200.792605" xlink:href="#m40a44d85a2" y="276.48"/>
      </g>
     </g>
     <g id="text_3">
      <!-- 2021-11 -->
      <g transform="translate(163.567785 310.951846)rotate(-30)scale(0.1 -0.1)">
       <use xlink:href="#DejaVuSans-32"/>
       <use x="63.623047" xlink:href="#DejaVuSans-30"/>
       <use x="127.246094" xlink:href="#DejaVuSans-32"/>
       <use x="190.869141" xlink:href="#DejaVuSans-31"/>
       <use x="254.492188" xlink:href="#DejaVuSans-2d"/>
       <use x="290.576172" xlink:href="#DejaVuSans-31"/>
       <use x="354.199219" xlink:href="#DejaVuSans-31"/>
      </g>
     </g>
    </g>
    <g id="xtick_4">
     <g id="line2d_4">
      <g>
       <use style="stroke:#000000;stroke-width:0.8;" x="255.203982" xlink:href="#m40a44d85a2" y="276.48"/>
      </g>
     </g>
     <g id="text_4">
      <!-- 2021-12 -->
      <g transform="translate(217.979161 310.951846)rotate(-30)scale(0.1 -0.1)">
       <use xlink:href="#DejaVuSans-32"/>
       <use x="63.623047" xlink:href="#DejaVuSans-30"/>
       <use x="127.246094" xlink:href="#DejaVuSans-32"/>
       <use x="190.869141" xlink:href="#DejaVuSans-31"/>
       <use x="254.492188" xlink:href="#DejaVuSans-2d"/>
       <use x="290.576172" xlink:href="#DejaVuSans-31"/>
       <use x="354.199219" xlink:href="#DejaVuSans-32"/>
      </g>
     </g>
    </g>
    <g id="xtick_5">
     <g id="line2d_5">
      <g>
       <use style="stroke:#000000;stroke-width:0.8;" x="311.429071" xlink:href="#m40a44d85a2" y="276.48"/>
      </g>
     </g>
     <g id="text_5">
      <!-- 2022-01 -->
      <g transform="translate(274.20425 310.951846)rotate(-30)scale(0.1 -0.1)">
       <use xlink:href="#DejaVuSans-32"/>
       <use x="63.623047" xlink:href="#DejaVuSans-30"/>
       <use x="127.246094" xlink:href="#DejaVuSans-32"/>
       <use x="190.869141" xlink:href="#DejaVuSans-32"/>
       <use x="254.492188" xlink:href="#DejaVuSans-2d"/>
       <use x="290.576172" xlink:href="#DejaVuSans-30"/>
       <use x="354.199219" xlink:href="#DejaVuSans-31"/>
      </g>
     </g>
    </g>
    <g id="xtick_6">
     <g id="line2d_6">
      <g>
       <use style="stroke:#000000;stroke-width:0.8;" x="367.654159" xlink:href="#m40a44d85a2" y="276.48"/>
      </g>
     </g>
     <g id="text_6">
      <!-- 2022-02 -->
      <g transform="translate(330.429339 310.951846)rotate(-30)scale(0.1 -0.1)">
       <use xlink:href="#DejaVuSans-32"/>
       <use x="63.623047" xlink:href="#DejaVuSans-30"/>
       <use x="127.246094" xlink:href="#DejaVuSans-32"/>
       <use x="190.869141" xlink:href="#DejaVuSans-32"/>
       <use x="254.492188" xlink:href="#DejaVuSans-2d"/>
       <use x="290.576172" xlink:href="#DejaVuSans-30"/>
       <use x="354.199219" xlink:href="#DejaVuSans-32"/>
      </g>
     </g>
    </g>
    <g id="text_7">
     <!-- date -->
     <g transform="translate(224.885 324.351346)scale(0.1 -0.1)">
      <defs>
       <path d="M 2906 2969 
L 2906 4863 
L 3481 4863 
L 3481 0 
L 2906 0 
L 2906 525 
Q 2725 213 2448 61 
Q 2172 -91 1784 -91 
Q 1150 -91 751 415 
Q 353 922 353 1747 
Q 353 2572 751 3078 
Q 1150 3584 1784 3584 
Q 2172 3584 2448 3432 
Q 2725 3281 2906 2969 
z
M 947 1747 
Q 947 1113 1208 752 
Q 1469 391 1925 391 
Q 2381 391 2643 752 
Q 2906 1113 2906 1747 
Q 2906 2381 2643 2742 
Q 2381 3103 1925 3103 
Q 1469 3103 1208 2742 
Q 947 2381 947 1747 
z
" id="DejaVuSans-64" transform="scale(0.015625)"/>
       <path d="M 2194 1759 
Q 1497 1759 1228 1600 
Q 959 1441 959 1056 
Q 959 750 1161 570 
Q 1363 391 1709 391 
Q 2188 391 2477 730 
Q 2766 1069 2766 1631 
L 2766 1759 
L 2194 1759 
z
M 3341 1997 
L 3341 0 
L 2766 0 
L 2766 531 
Q 2569 213 2275 61 
Q 1981 -91 1556 -91 
Q 1019 -91 701 211 
Q 384 513 384 1019 
Q 384 1609 779 1909 
Q 1175 2209 1959 2209 
L 2766 2209 
L 2766 2266 
Q 2766 2663 2505 2880 
Q 2244 3097 1772 3097 
Q 1472 3097 1187 3025 
Q 903 2953 641 2809 
L 641 3341 
Q 956 3463 1253 3523 
Q 1550 3584 1831 3584 
Q 2591 3584 2966 3190 
Q 3341 2797 3341 1997 
z
" id="DejaVuSans-61" transform="scale(0.015625)"/>
       <path d="M 1172 4494 
L 1172 3500 
L 2356 3500 
L 2356 3053 
L 1172 3053 
L 1172 1153 
Q 1172 725 1289 603 
Q 1406 481 1766 481 
L 2356 481 
L 2356 0 
L 1766 0 
Q 1100 0 847 248 
Q 594 497 594 1153 
L 594 3053 
L 172 3053 
L 172 3500 
L 594 3500 
L 594 4494 
L 1172 4494 
z
" id="DejaVuSans-74" transform="scale(0.015625)"/>
       <path d="M 3597 1894 
L 3597 1613 
L 953 1613 
Q 991 1019 1311 708 
Q 1631 397 2203 397 
Q 2534 397 2845 478 
Q 3156 559 3463 722 
L 3463 178 
Q 3153 47 2828 -22 
Q 2503 -91 2169 -91 
Q 1331 -91 842 396 
Q 353 884 353 1716 
Q 353 2575 817 3079 
Q 1281 3584 2069 3584 
Q 2775 3584 3186 3129 
Q 3597 2675 3597 1894 
z
M 3022 2063 
Q 3016 2534 2758 2815 
Q 2500 3097 2075 3097 
Q 1594 3097 1305 2825 
Q 1016 2553 972 2059 
L 3022 2063 
z
" id="DejaVuSans-65" transform="scale(0.015625)"/>
      </defs>
      <use xlink:href="#DejaVuSans-64"/>
      <use x="63.476562" xlink:href="#DejaVuSans-61"/>
      <use x="124.755859" xlink:href="#DejaVuSans-74"/>
      <use x="163.964844" xlink:href="#DejaVuSans-65"/>
     </g>
    </g>
   </g>
   <g id="matplotlib.axis_2">
    <g id="ytick_1">
     <g id="line2d_7">
      <defs>
       <path d="M 0 0 
L -3.5 0 
" id="m0cce1276c1" style="stroke:#000000;stroke-width:0.8;"/>
      </defs>
      <g>
       <use style="stroke:#000000;stroke-width:0.8;" x="57.6" xlink:href="#m0cce1276c1" y="244.841798"/>
      </g>
     </g>
     <g id="text_8">
      <!-- 90000 -->
      <g transform="translate(18.7875 248.641017)scale(0.1 -0.1)">
       <use xlink:href="#DejaVuSans-39"/>
       <use x="63.623047" xlink:href="#DejaVuSans-30"/>
       <use x="127.246094" xlink:href="#DejaVuSans-30"/>
       <use x="190.869141" xlink:href="#DejaVuSans-30"/>
       <use x="254.492188" xlink:href="#DejaVuSans-30"/>
      </g>
     </g>
    </g>
    <g id="ytick_2">
     <g id="line2d_8">
      <g>
       <use style="stroke:#000000;stroke-width:0.8;" x="57.6" xlink:href="#m0cce1276c1" y="207.135478"/>
      </g>
     </g>
     <g id="text_9">
      <!-- 95000 -->
      <g transform="translate(18.7875 210.934697)scale(0.1 -0.1)">
       <defs>
        <path d="M 691 4666 
L 3169 4666 
L 3169 4134 
L 1269 4134 
L 1269 2991 
Q 1406 3038 1543 3061 
Q 1681 3084 1819 3084 
Q 2600 3084 3056 2656 
Q 3513 2228 3513 1497 
Q 3513 744 3044 326 
Q 2575 -91 1722 -91 
Q 1428 -91 1123 -41 
Q 819 9 494 109 
L 494 744 
Q 775 591 1075 516 
Q 1375 441 1709 441 
Q 2250 441 2565 725 
Q 2881 1009 2881 1497 
Q 2881 1984 2565 2268 
Q 2250 2553 1709 2553 
Q 1456 2553 1204 2497 
Q 953 2441 691 2322 
L 691 4666 
z
" id="DejaVuSans-35" transform="scale(0.015625)"/>
       </defs>
       <use xlink:href="#DejaVuSans-39"/>
       <use x="63.623047" xlink:href="#DejaVuSans-35"/>
       <use x="127.246094" xlink:href="#DejaVuSans-30"/>
       <use x="190.869141" xlink:href="#DejaVuSans-30"/>
       <use x="254.492188" xlink:href="#DejaVuSans-30"/>
      </g>
     </g>
    </g>
    <g id="ytick_3">
     <g id="line2d_9">
      <g>
       <use style="stroke:#000000;stroke-width:0.8;" x="57.6" xlink:href="#m0cce1276c1" y="169.429159"/>
      </g>
     </g>
     <g id="text_10">
      <!-- 100000 -->
      <g transform="translate(12.425 173.228377)scale(0.1 -0.1)">
       <use xlink:href="#DejaVuSans-31"/>
       <use x="63.623047" xlink:href="#DejaVuSans-30"/>
       <use x="127.246094" xlink:href="#DejaVuSans-30"/>
       <use x="190.869141" xlink:href="#DejaVuSans-30"/>
       <use x="254.492188" xlink:href="#DejaVuSans-30"/>
       <use x="318.115234" xlink:href="#DejaVuSans-30"/>
      </g>
     </g>
    </g>
    <g id="ytick_4">
     <g id="line2d_10">
      <g>
       <use style="stroke:#000000;stroke-width:0.8;" x="57.6" xlink:href="#m0cce1276c1" y="131.722839"/>
      </g>
     </g>
     <g id="text_11">
      <!-- 105000 -->
      <g transform="translate(12.425 135.522058)scale(0.1 -0.1)">
       <use xlink:href="#DejaVuSans-31"/>
       <use x="63.623047" xlink:href="#DejaVuSans-30"/>
       <use x="127.246094" xlink:href="#DejaVuSans-35"/>
       <use x="190.869141" xlink:href="#DejaVuSans-30"/>
       <use x="254.492188" xlink:href="#DejaVuSans-30"/>
       <use x="318.115234" xlink:href="#DejaVuSans-30"/>
      </g>
     </g>
    </g>
    <g id="ytick_5">
     <g id="line2d_11">
      <g>
       <use style="stroke:#000000;stroke-width:0.8;" x="57.6" xlink:href="#m0cce1276c1" y="94.016519"/>
      </g>
     </g>
     <g id="text_12">
      <!-- 110000 -->
      <g transform="translate(12.425 97.815738)scale(0.1 -0.1)">
       <use xlink:href="#DejaVuSans-31"/>
       <use x="63.623047" xlink:href="#DejaVuSans-31"/>
       <use x="127.246094" xlink:href="#DejaVuSans-30"/>
       <use x="190.869141" xlink:href="#DejaVuSans-30"/>
       <use x="254.492188" xlink:href="#DejaVuSans-30"/>
       <use x="318.115234" xlink:href="#DejaVuSans-30"/>
      </g>
     </g>
    </g>
    <g id="ytick_6">
     <g id="line2d_12">
      <g>
       <use style="stroke:#000000;stroke-width:0.8;" x="57.6" xlink:href="#m0cce1276c1" y="56.310199"/>
      </g>
     </g>
     <g id="text_13">
      <!-- 115000 -->
      <g transform="translate(12.425 60.109418)scale(0.1 -0.1)">
       <use xlink:href="#DejaVuSans-31"/>
       <use x="63.623047" xlink:href="#DejaVuSans-31"/>
       <use x="127.246094" xlink:href="#DejaVuSans-35"/>
       <use x="190.869141" xlink:href="#DejaVuSans-30"/>
       <use x="254.492188" xlink:href="#DejaVuSans-30"/>
       <use x="318.115234" xlink:href="#DejaVuSans-30"/>
      </g>
     </g>
    </g>
   </g>
   <g id="line2d_13">
    <path clip-path="url(#p5306bf22a8)" d="M 73.832727 169.429159 
L 75.64644 167.248056 
L 77.460152 164.517726 
L 79.273865 168.470022 
L 81.087577 161.599084 
L 86.528715 156.511271 
L 88.342428 154.880978 
L 90.15614 157.595127 
L 91.969853 156.294501 
L 93.783565 156.673479 
L 101.038415 156.492075 
L 102.852128 158.485618 
L 104.665841 160.730415 
L 106.479553 167.354624 
L 111.920691 161.816507 
L 113.734403 171.720134 
L 115.548116 166.928122 
L 117.361828 168.232555 
L 119.175541 175.680026 
L 124.616679 189.083725 
L 126.430391 190.232441 
L 128.244104 184.437873 
L 130.057816 173.489919 
L 131.871529 166.346053 
L 137.312666 161.137018 
L 139.126379 177.699573 
L 140.940091 176.446239 
L 142.753804 182.182278 
L 144.567517 170.72359 
L 150.008654 185.156728 
L 151.822367 173.217061 
L 153.636079 170.67313 
L 155.449792 170.639022 
L 157.263504 170.217486 
L 162.704642 168.778423 
L 164.518354 168.293653 
L 166.332067 178.143401 
L 168.14578 162.92019 
L 169.959492 161.824765 
L 175.40063 155.474502 
L 177.214342 148.627001 
L 179.028055 144.97952 
L 180.841767 158.838826 
L 182.65548 169.445552 
L 188.096618 168.996202 
L 189.91033 174.563882 
L 191.724043 177.196968 
L 193.537755 167.565296 
L 195.351468 177.758146 
L 200.792605 162.103474 
L 202.606318 162.049718 
L 204.42003 154.209878 
L 206.233743 163.440382 
L 208.047456 157.711186 
L 213.488593 157.607655 
L 215.302306 166.610437 
L 217.116018 167.168424 
L 218.929731 173.144288 
L 220.743443 167.057935 
L 226.184581 164.931499 
L 227.998294 164.882705 
L 229.812006 169.069686 
L 231.625719 171.135528 
L 233.439431 171.756115 
L 238.880569 166.993669 
L 240.694281 160.711831 
L 242.507994 161.269198 
L 246.135419 161.557132 
L 251.576557 168.182714 
L 253.390269 183.240458 
L 255.203982 193.829535 
L 257.017694 184.334793 
L 258.831407 189.513524 
L 264.272544 175.499724 
L 266.086257 162.295671 
L 267.89997 156.908056 
L 269.713682 155.631469 
L 271.527395 153.757825 
L 276.968532 160.651684 
L 278.782245 157.578219 
L 280.595957 153.031678 
L 282.40967 149.610422 
L 284.223382 157.923197 
L 289.66452 168.636007 
L 291.478233 150.170624 
L 293.291945 147.207895 
L 295.105658 140.208341 
L 302.360508 130.364635 
L 304.17422 130.719468 
L 305.987933 131.033754 
L 307.801646 132.001068 
L 309.615358 136.079769 
L 315.056496 123.785227 
L 316.870208 114.351758 
L 318.683921 135.356381 
L 320.497633 128.758279 
L 322.311346 126.274089 
L 327.752483 126.079381 
L 329.566196 119.140074 
L 331.379909 118.112804 
L 333.193621 127.682476 
L 335.007334 124.934117 
L 342.262184 142.129975 
L 344.075896 147.262147 
L 345.889609 155.808307 
L 347.703321 174.299939 
L 353.144459 173.108869 
L 354.958172 181.473551 
L 356.771884 181.932033 
L 358.585597 186.908385 
L 360.399309 167.911794 
L 365.840447 151.714008 
L 367.654159 144.276014 
L 369.467872 130.611258 
L 371.281585 180.610242 
L 373.095297 179.739696 
L 378.536435 191.817738 
L 380.350147 193.777765 
L 382.16386 178.085429 
L 383.977572 191.630996 
L 385.791285 207.833381 
L 391.232423 212.916287 
L 393.046135 204.112209 
L 394.859848 207.61824 
L 396.67356 220.855202 
L 398.487273 228.173721 
" style="fill:none;stroke:#0000ff;stroke-linecap:square;stroke-opacity:0.9;stroke-width:2;"/>
   </g>
   <g id="line2d_14">
    <path clip-path="url(#p5306bf22a8)" d="M 73.832727 169.429159 
L 75.64644 165.508524 
L 77.460152 161.564823 
L 79.273865 166.899935 
L 81.087577 157.457506 
L 86.528715 155.082802 
L 88.342428 153.663115 
L 90.15614 154.169786 
L 91.969853 155.327209 
L 93.783565 154.450133 
L 101.038415 153.169104 
L 102.852128 156.190224 
L 104.665841 158.140772 
L 106.479553 165.809268 
L 111.920691 160.890026 
L 113.734403 168.019935 
L 115.548116 164.151582 
L 117.361828 166.389905 
L 119.175541 175.92632 
L 124.616679 188.374495 
L 126.430391 188.355851 
L 128.244104 183.630293 
L 130.057816 174.00797 
L 131.871529 168.956471 
L 137.312666 164.199536 
L 139.126379 179.114783 
L 140.940091 177.710388 
L 142.753804 185.120547 
L 144.567517 174.158634 
L 150.008654 182.377893 
L 151.822367 171.41698 
L 153.636079 170.039071 
L 155.449792 168.129232 
L 157.263504 163.987424 
L 162.704642 168.637807 
L 164.518354 174.223311 
L 166.332067 176.472496 
L 168.14578 158.344955 
L 169.959492 153.326801 
L 175.40063 151.41934 
L 177.214342 144.308693 
L 179.028055 140.692218 
L 180.841767 150.790844 
L 182.65548 154.436774 
L 188.096618 156.292462 
L 189.91033 160.868361 
L 191.724043 165.217953 
L 193.537755 154.409052 
L 195.351468 153.262693 
L 200.792605 152.435108 
L 202.606318 150.025076 
L 204.42003 143.657428 
L 206.233743 145.297519 
L 208.047456 145.71658 
L 213.488593 144.165601 
L 215.302306 150.129669 
L 217.116018 154.116497 
L 218.929731 154.185956 
L 220.743443 149.169666 
L 226.184581 147.607517 
L 227.998294 149.443364 
L 229.812006 149.960617 
L 231.625719 150.260917 
L 233.439431 152.377467 
L 238.880569 149.747946 
L 240.694281 141.613043 
L 242.507994 141.669611 
L 246.135419 161.546872 
L 251.576557 153.377945 
L 253.390269 169.540978 
L 255.203982 177.899017 
L 257.017694 168.089485 
L 258.831407 174.154603 
L 264.272544 162.612256 
L 266.086257 149.028812 
L 267.89997 144.921174 
L 269.713682 145.655036 
L 271.527395 140.935105 
L 276.968532 148.745326 
L 278.782245 147.955774 
L 280.595957 142.328162 
L 282.40967 141.5913 
L 284.223382 151.633063 
L 289.66452 160.980321 
L 291.478233 146.178945 
L 293.291945 141.458942 
L 295.105658 135.223215 
L 302.360508 124.892939 
L 304.17422 125.639211 
L 305.987933 124.873011 
L 307.801646 125.706464 
L 309.615358 129.151839 
L 315.056496 120.40244 
L 316.870208 112.223671 
L 318.683921 129.958792 
L 320.497633 126.747379 
L 322.311346 122.587953 
L 327.752483 123.70333 
L 329.566196 118.690797 
L 331.379909 118.16743 
L 333.193621 124.795276 
L 335.007334 124.941342 
L 342.262184 142.542346 
L 344.075896 150.316828 
L 345.889609 157.187489 
L 347.703321 172.958409 
L 353.144459 174.380187 
L 354.958172 172.833042 
L 356.771884 173.996009 
L 358.585597 180.567328 
L 360.399309 161.939829 
L 365.840447 150.359411 
L 367.654159 140.950326 
L 369.467872 129.338192 
L 371.281585 164.260923 
L 373.095297 157.810291 
L 378.536435 163.027141 
L 380.350147 158.003971 
L 382.16386 150.407575 
L 383.977572 163.693817 
L 385.791285 179.679422 
L 391.232423 186.083518 
L 393.046135 177.301989 
L 394.859848 179.113174 
L 396.67356 193.751322 
L 398.487273 197.055013 
" style="fill:none;stroke:#ff0000;stroke-linecap:square;stroke-opacity:0.9;stroke-width:2;"/>
   </g>
   <g id="line2d_15">
    <path clip-path="url(#p5306bf22a8)" d="M 73.832727 169.429159 
L 75.64644 165.640439 
L 77.460152 162.793646 
L 79.273865 166.825788 
L 81.087577 159.407548 
L 86.528715 155.166103 
L 88.342428 152.893252 
L 90.15614 154.883092 
L 91.969853 154.236052 
L 93.783565 154.547446 
L 101.038415 154.366361 
L 102.852128 155.769441 
L 104.665841 158.104768 
L 106.479553 165.296395 
L 111.920691 158.921928 
L 113.734403 169.1337 
L 115.548116 163.708605 
L 117.361828 165.095539 
L 119.175541 171.588643 
L 124.616679 184.954039 
L 126.430391 185.937592 
L 128.244104 180.767358 
L 130.057816 169.027445 
L 131.871529 162.304872 
L 137.312666 156.69631 
L 139.126379 172.429262 
L 140.940091 170.91169 
L 142.753804 177.138827 
L 144.567517 165.311797 
L 150.008654 180.005532 
L 151.822367 168.021382 
L 153.636079 165.643406 
L 155.449792 163.915375 
L 157.263504 160.350451 
L 162.704642 164.864525 
L 164.518354 171.246621 
L 166.332067 172.35458 
L 168.14578 157.616084 
L 169.959492 156.372434 
L 175.40063 149.731653 
L 177.214342 142.58631 
L 179.028055 139.505234 
L 180.841767 153.197811 
L 182.65548 163.506244 
L 188.096618 162.451809 
L 189.91033 169.072259 
L 191.724043 171.590052 
L 193.537755 161.841015 
L 195.351468 160.252539 
L 200.792605 156.130866 
L 202.606318 154.139028 
L 204.42003 148.07202 
L 206.233743 147.371578 
L 208.047456 141.570249 
L 213.488593 140.761833 
L 215.302306 150.601029 
L 217.116018 156.624378 
L 218.929731 156.313788 
L 220.743443 150.776095 
L 226.184581 148.07054 
L 227.998294 151.605483 
L 229.812006 152.415271 
L 231.625719 154.299091 
L 233.439431 155.280333 
L 238.880569 150.084448 
L 240.694281 144.120187 
L 242.507994 144.535219 
L 246.135419 160.412644 
L 251.576557 151.382145 
L 253.390269 166.517055 
L 255.203982 176.969428 
L 257.017694 167.70705 
L 258.831407 172.384105 
L 264.272544 157.991477 
L 266.086257 145.061543 
L 267.89997 139.042286 
L 269.713682 138.545651 
L 271.527395 136.029247 
L 276.968532 143.607989 
L 278.782245 140.104599 
L 280.595957 135.373008 
L 282.40967 131.265527 
L 284.223382 140.019251 
L 289.66452 150.747757 
L 291.478233 132.267 
L 293.291945 128.795649 
L 295.105658 121.579239 
L 302.360508 111.49852 
L 304.17422 112.088691 
L 305.987933 112.082213 
L 307.801646 112.887802 
L 309.615358 116.561331 
L 315.056496 104.523977 
L 316.870208 94.638673 
L 318.683921 115.967982 
L 320.497633 109.123482 
L 322.311346 106.529225 
L 327.752483 106.58265 
L 329.566196 99.676216 
L 331.379909 97.868212 
L 333.193621 107.496973 
L 335.007334 105.313411 
L 342.262184 122.973161 
L 344.075896 127.966923 
L 345.889609 136.84297 
L 347.703321 155.414633 
L 353.144459 153.719242 
L 354.958172 163.227941 
L 356.771884 163.267638 
L 358.585597 168.182814 
L 360.399309 148.306956 
L 365.840447 132.132906 
L 367.654159 124.778216 
L 369.467872 109.821716 
L 371.281585 161.379727 
L 373.095297 159.274755 
L 378.536435 172.454244 
L 380.350147 174.675728 
L 382.16386 157.91374 
L 383.977572 171.879069 
L 385.791285 188.462988 
L 391.232423 193.775716 
L 393.046135 184.4219 
L 394.859848 188.611166 
L 396.67356 201.879152 
L 398.487273 206.82301 
" style="fill:none;stroke:#ff8040;stroke-linecap:square;stroke-opacity:0.9;stroke-width:2;"/>
   </g>
   <g id="line2d_16">
    <path clip-path="url(#p5306bf22a8)" d="M 73.832727 170.183285 
L 75.64644 167.817753 
L 77.460152 165.570179 
L 79.273865 172.211771 
L 81.087577 163.212206 
L 86.528715 163.437425 
L 88.342428 163.009178 
L 90.15614 163.001231 
L 91.969853 167.154919 
L 93.783565 166.421067 
L 101.038415 167.630265 
L 102.852128 170.229419 
L 104.665841 172.234757 
L 106.479553 182.928551 
L 111.920691 176.090704 
L 113.734403 185.192123 
L 115.548116 183.189645 
L 117.361828 186.594717 
L 119.175541 196.209137 
L 124.616679 209.044016 
L 126.430391 211.010537 
L 128.244104 206.141197 
L 130.057816 196.457006 
L 131.871529 190.092581 
L 137.312666 187.872487 
L 139.126379 204.539979 
L 140.940091 201.835006 
L 142.753804 208.011021 
L 144.567517 197.639341 
L 150.008654 212.339269 
L 151.822367 201.472664 
L 153.636079 198.390185 
L 155.449792 199.052644 
L 157.263504 195.287691 
L 162.704642 198.220006 
L 164.518354 205.088453 
L 166.332067 207.856259 
L 168.14578 189.049773 
L 169.959492 185.149864 
L 175.40063 181.698333 
L 177.214342 176.753027 
L 179.028055 172.209516 
L 180.841767 183.465102 
L 182.65548 189.920628 
L 188.096618 191.013083 
L 189.91033 194.812581 
L 191.724043 206.587489 
L 193.537755 194.884123 
L 195.351468 191.952751 
L 200.792605 191.822372 
L 202.606318 190.01224 
L 204.42003 185.79232 
L 206.233743 186.814705 
L 208.047456 184.741352 
L 213.488593 183.006406 
L 215.302306 189.544416 
L 217.116018 193.351318 
L 218.929731 192.719893 
L 220.743443 187.689828 
L 226.184581 186.266931 
L 227.998294 189.159498 
L 229.812006 188.923332 
L 231.625719 188.137165 
L 233.439431 189.863742 
L 238.880569 183.740337 
L 240.694281 181.0664 
L 242.507994 180.704083 
L 246.135419 199.412467 
L 251.576557 188.690208 
L 253.390269 204.954726 
L 255.203982 214.82751 
L 257.017694 207.057006 
L 258.831407 212.23047 
L 264.272544 199.706489 
L 266.086257 190.067446 
L 267.89997 186.942051 
L 269.713682 188.210332 
L 271.527395 186.495315 
L 276.968532 192.178347 
L 278.782245 189.846743 
L 280.595957 190.528215 
L 282.40967 189.892222 
L 284.223382 200.780488 
L 289.66452 208.27112 
L 291.478233 194.760539 
L 293.291945 191.801657 
L 295.105658 186.219522 
L 302.360508 175.755392 
L 304.17422 177.884864 
L 305.987933 178.379458 
L 307.801646 179.971632 
L 309.615358 184.033712 
L 315.056496 175.020232 
L 316.870208 165.365324 
L 318.683921 181.387256 
L 320.497633 169.322761 
L 322.311346 164.562841 
L 327.752483 165.237039 
L 329.566196 164.660289 
L 331.379909 163.401184 
L 333.193621 170.292542 
L 335.007334 172.446108 
L 342.262184 188.55125 
L 344.075896 191.621625 
L 345.889609 200.241374 
L 347.703321 215.448261 
L 353.144459 215.380778 
L 354.958172 210.790811 
L 356.771884 213.009148 
L 358.585597 219.475926 
L 360.399309 203.936013 
L 365.840447 191.231957 
L 367.654159 182.405878 
L 369.467872 171.608668 
L 371.281585 224.418004 
L 373.095297 224.291024 
L 378.536435 228.393483 
L 380.350147 226.254242 
L 382.16386 221.05824 
L 383.977572 234.851236 
L 385.791285 249.530428 
L 391.232423 254.490952 
L 393.046135 246.033761 
L 394.859848 248.829408 
L 396.67356 262.519605 
L 398.487273 265.797818 
" style="fill:none;stroke:#0d0d0d;stroke-linecap:square;stroke-opacity:0.25;stroke-width:2;"/>
   </g>
   <g id="line2d_17">
    <path clip-path="url(#p5306bf22a8)" d="M 73.832727 168.675032 
L 75.64644 162.345798 
L 77.460152 155.198836 
L 79.273865 159.751863 
L 81.087577 150.393067 
L 86.528715 145.553182 
L 88.342428 141.960261 
L 90.15614 143.756408 
L 91.969853 143.919569 
L 93.783565 143.582118 
L 101.038415 138.134096 
L 102.852128 140.369485 
L 104.665841 142.396831 
L 106.479553 152.002608 
L 111.920691 145.649565 
L 113.734403 152.719766 
L 115.548116 147.296662 
L 117.361828 149.07017 
L 119.175541 159.418017 
L 124.616679 169.425278 
L 126.430391 169.160375 
L 128.244104 163.029557 
L 130.057816 153.072956 
L 131.871529 147.15932 
L 137.312666 137.688965 
L 139.126379 152.478809 
L 140.940091 148.711313 
L 142.753804 155.324288 
L 144.567517 146.259888 
L 150.008654 156.261157 
L 151.822367 147.049043 
L 153.636079 143.754211 
L 155.449792 143.339393 
L 157.263504 139.57236 
L 162.704642 142.364785 
L 164.518354 148.924613 
L 166.332067 149.835974 
L 168.14578 130.915742 
L 169.959492 127.561453 
L 175.40063 122.095123 
L 177.214342 114.515958 
L 179.028055 110.182549 
L 180.841767 119.620774 
L 182.65548 119.373803 
L 188.096618 122.408244 
L 189.91033 129.766674 
L 191.724043 130.550934 
L 193.537755 120.99471 
L 195.351468 117.249738 
L 200.792605 115.896633 
L 202.606318 113.965805 
L 204.42003 106.27044 
L 206.233743 106.428885 
L 208.047456 105.937154 
L 213.488593 105.150492 
L 215.302306 112.127148 
L 217.116018 117.615475 
L 218.929731 118.593633 
L 220.743443 111.87445 
L 226.184581 108.327955 
L 227.998294 111.352257 
L 229.812006 111.369096 
L 231.625719 114.230523 
L 233.439431 116.507632 
L 238.880569 114.224213 
L 240.694281 105.636295 
L 242.507994 106.688845 
L 246.135419 129.685344 
L 251.576557 116.300028 
L 253.390269 131.254767 
L 255.203982 139.695257 
L 257.017694 127.842484 
L 258.831407 137.620019 
L 264.272544 123.876321 
L 266.086257 109.763526 
L 267.89997 104.513904 
L 269.713682 104.832565 
L 271.527395 95.6042 
L 276.968532 104.75586 
L 278.782245 101.263586 
L 280.595957 95.496652 
L 282.40967 95.439976 
L 284.223382 105.653202 
L 289.66452 111.528328 
L 291.478233 95.703361 
L 293.291945 93.223744 
L 295.105658 84.586212 
L 302.360508 72.28097 
L 304.17422 73.074783 
L 305.987933 72.210655 
L 307.801646 73.592464 
L 309.615358 76.943652 
L 315.056496 64.835114 
L 316.870208 54.254042 
L 318.683921 70.930666 
L 320.497633 64.586474 
L 322.311346 58.684315 
L 327.752483 58.450263 
L 329.566196 52.154182 
L 331.379909 52.999439 
L 333.193621 57.15337 
L 335.007334 59.351976 
L 342.262184 75.637765 
L 344.075896 79.113744 
L 345.889609 89.280126 
L 347.703321 107.13811 
L 353.144459 107.879509 
L 354.958172 106.182247 
L 356.771884 108.447925 
L 358.585597 114.562526 
L 360.399309 93.564579 
L 365.840447 82.346036 
L 367.654159 70.623207 
L 369.467872 56.941305 
L 371.281585 86.370045 
L 373.095297 75.599681 
L 378.536435 73.529402 
L 380.350147 70.841002 
L 382.16386 61.874087 
L 383.977572 76.250721 
L 385.791285 97.167327 
L 391.232423 102.333336 
L 393.046135 92.167284 
L 394.859848 96.744284 
L 396.67356 112.1299 
L 398.487273 118.313454 
" style="fill:none;stroke:#0d0d0d;stroke-linecap:square;stroke-opacity:0.25;stroke-width:2;"/>
   </g>
   <g id="patch_3">
    <path d="M 57.6 276.48 
L 57.6 41.472 
" style="fill:none;stroke:#000000;stroke-linecap:square;stroke-linejoin:miter;stroke-width:0.8;"/>
   </g>
   <g id="patch_4">
    <path d="M 414.72 276.48 
L 414.72 41.472 
" style="fill:none;stroke:#000000;stroke-linecap:square;stroke-linejoin:miter;stroke-width:0.8;"/>
   </g>
   <g id="patch_5">
    <path d="M 57.6 276.48 
L 414.72 276.48 
" style="fill:none;stroke:#000000;stroke-linecap:square;stroke-linejoin:miter;stroke-width:0.8;"/>
   </g>
   <g id="patch_6">
    <path d="M 57.6 41.472 
L 414.72 41.472 
" style="fill:none;stroke:#000000;stroke-linecap:square;stroke-linejoin:miter;stroke-width:0.8;"/>
   </g>
   <g id="text_14">
    <!-- TESTFUNDS0830 -->
    <g transform="translate(185.200312 22.034625)scale(0.12 -0.12)">
     <defs>
      <path d="M -19 4666 
L 3928 4666 
L 3928 4134 
L 2272 4134 
L 2272 0 
L 1638 0 
L 1638 4134 
L -19 4134 
L -19 4666 
z
" id="DejaVuSans-54" transform="scale(0.015625)"/>
      <path d="M 628 4666 
L 3578 4666 
L 3578 4134 
L 1259 4134 
L 1259 2753 
L 3481 2753 
L 3481 2222 
L 1259 2222 
L 1259 531 
L 3634 531 
L 3634 0 
L 628 0 
L 628 4666 
z
" id="DejaVuSans-45" transform="scale(0.015625)"/>
      <path d="M 3425 4513 
L 3425 3897 
Q 3066 4069 2747 4153 
Q 2428 4238 2131 4238 
Q 1616 4238 1336 4038 
Q 1056 3838 1056 3469 
Q 1056 3159 1242 3001 
Q 1428 2844 1947 2747 
L 2328 2669 
Q 3034 2534 3370 2195 
Q 3706 1856 3706 1288 
Q 3706 609 3251 259 
Q 2797 -91 1919 -91 
Q 1588 -91 1214 -16 
Q 841 59 441 206 
L 441 856 
Q 825 641 1194 531 
Q 1563 422 1919 422 
Q 2459 422 2753 634 
Q 3047 847 3047 1241 
Q 3047 1584 2836 1778 
Q 2625 1972 2144 2069 
L 1759 2144 
Q 1053 2284 737 2584 
Q 422 2884 422 3419 
Q 422 4038 858 4394 
Q 1294 4750 2059 4750 
Q 2388 4750 2728 4690 
Q 3069 4631 3425 4513 
z
" id="DejaVuSans-53" transform="scale(0.015625)"/>
      <path d="M 628 4666 
L 3309 4666 
L 3309 4134 
L 1259 4134 
L 1259 2759 
L 3109 2759 
L 3109 2228 
L 1259 2228 
L 1259 0 
L 628 0 
L 628 4666 
z
" id="DejaVuSans-46" transform="scale(0.015625)"/>
      <path d="M 556 4666 
L 1191 4666 
L 1191 1831 
Q 1191 1081 1462 751 
Q 1734 422 2344 422 
Q 2950 422 3222 751 
Q 3494 1081 3494 1831 
L 3494 4666 
L 4128 4666 
L 4128 1753 
Q 4128 841 3676 375 
Q 3225 -91 2344 -91 
Q 1459 -91 1007 375 
Q 556 841 556 1753 
L 556 4666 
z
" id="DejaVuSans-55" transform="scale(0.015625)"/>
      <path d="M 628 4666 
L 1478 4666 
L 3547 763 
L 3547 4666 
L 4159 4666 
L 4159 0 
L 3309 0 
L 1241 3903 
L 1241 0 
L 628 0 
L 628 4666 
z
" id="DejaVuSans-4e" transform="scale(0.015625)"/>
      <path d="M 1259 4147 
L 1259 519 
L 2022 519 
Q 2988 519 3436 956 
Q 3884 1394 3884 2338 
Q 3884 3275 3436 3711 
Q 2988 4147 2022 4147 
L 1259 4147 
z
M 628 4666 
L 1925 4666 
Q 3281 4666 3915 4102 
Q 4550 3538 4550 2338 
Q 4550 1131 3912 565 
Q 3275 0 1925 0 
L 628 0 
L 628 4666 
z
" id="DejaVuSans-44" transform="scale(0.015625)"/>
      <path d="M 2034 2216 
Q 1584 2216 1326 1975 
Q 1069 1734 1069 1313 
Q 1069 891 1326 650 
Q 1584 409 2034 409 
Q 2484 409 2743 651 
Q 3003 894 3003 1313 
Q 3003 1734 2745 1975 
Q 2488 2216 2034 2216 
z
M 1403 2484 
Q 997 2584 770 2862 
Q 544 3141 544 3541 
Q 544 4100 942 4425 
Q 1341 4750 2034 4750 
Q 2731 4750 3128 4425 
Q 3525 4100 3525 3541 
Q 3525 3141 3298 2862 
Q 3072 2584 2669 2484 
Q 3125 2378 3379 2068 
Q 3634 1759 3634 1313 
Q 3634 634 3220 271 
Q 2806 -91 2034 -91 
Q 1263 -91 848 271 
Q 434 634 434 1313 
Q 434 1759 690 2068 
Q 947 2378 1403 2484 
z
M 1172 3481 
Q 1172 3119 1398 2916 
Q 1625 2713 2034 2713 
Q 2441 2713 2670 2916 
Q 2900 3119 2900 3481 
Q 2900 3844 2670 4047 
Q 2441 4250 2034 4250 
Q 1625 4250 1398 4047 
Q 1172 3844 1172 3481 
z
" id="DejaVuSans-38" transform="scale(0.015625)"/>
      <path d="M 2597 2516 
Q 3050 2419 3304 2112 
Q 3559 1806 3559 1356 
Q 3559 666 3084 287 
Q 2609 -91 1734 -91 
Q 1441 -91 1130 -33 
Q 819 25 488 141 
L 488 750 
Q 750 597 1062 519 
Q 1375 441 1716 441 
Q 2309 441 2620 675 
Q 2931 909 2931 1356 
Q 2931 1769 2642 2001 
Q 2353 2234 1838 2234 
L 1294 2234 
L 1294 2753 
L 1863 2753 
Q 2328 2753 2575 2939 
Q 2822 3125 2822 3475 
Q 2822 3834 2567 4026 
Q 2313 4219 1838 4219 
Q 1578 4219 1281 4162 
Q 984 4106 628 3988 
L 628 4550 
Q 988 4650 1302 4700 
Q 1616 4750 1894 4750 
Q 2613 4750 3031 4423 
Q 3450 4097 3450 3541 
Q 3450 3153 3228 2886 
Q 3006 2619 2597 2516 
z
" id="DejaVuSans-33" transform="scale(0.015625)"/>
     </defs>
     <use xlink:href="#DejaVuSans-54"/>
     <use x="61.083984" xlink:href="#DejaVuSans-45"/>
     <use x="124.267578" xlink:href="#DejaVuSans-53"/>
     <use x="187.744141" xlink:href="#DejaVuSans-54"/>
     <use x="248.828125" xlink:href="#DejaVuSans-46"/>
     <use x="306.347656" xlink:href="#DejaVuSans-55"/>
     <use x="379.541016" xlink:href="#DejaVuSans-4e"/>
     <use x="454.345703" xlink:href="#DejaVuSans-44"/>
     <use x="531.347656" xlink:href="#DejaVuSans-53"/>
     <use x="594.824219" xlink:href="#DejaVuSans-30"/>
     <use x="658.447266" xlink:href="#DejaVuSans-38"/>
     <use x="722.070312" xlink:href="#DejaVuSans-33"/>
     <use x="785.693359" xlink:href="#DejaVuSans-30"/>
    </g>
    <!-- daily_report -->
    <g transform="translate(200.466563 35.472)scale(0.12 -0.12)">
     <defs>
      <path d="M 603 3500 
L 1178 3500 
L 1178 0 
L 603 0 
L 603 3500 
z
M 603 4863 
L 1178 4863 
L 1178 4134 
L 603 4134 
L 603 4863 
z
" id="DejaVuSans-69" transform="scale(0.015625)"/>
      <path d="M 603 4863 
L 1178 4863 
L 1178 0 
L 603 0 
L 603 4863 
z
" id="DejaVuSans-6c" transform="scale(0.015625)"/>
      <path d="M 2059 -325 
Q 1816 -950 1584 -1140 
Q 1353 -1331 966 -1331 
L 506 -1331 
L 506 -850 
L 844 -850 
Q 1081 -850 1212 -737 
Q 1344 -625 1503 -206 
L 1606 56 
L 191 3500 
L 800 3500 
L 1894 763 
L 2988 3500 
L 3597 3500 
L 2059 -325 
z
" id="DejaVuSans-79" transform="scale(0.015625)"/>
      <path d="M 3263 -1063 
L 3263 -1509 
L -63 -1509 
L -63 -1063 
L 3263 -1063 
z
" id="DejaVuSans-5f" transform="scale(0.015625)"/>
      <path d="M 2631 2963 
Q 2534 3019 2420 3045 
Q 2306 3072 2169 3072 
Q 1681 3072 1420 2755 
Q 1159 2438 1159 1844 
L 1159 0 
L 581 0 
L 581 3500 
L 1159 3500 
L 1159 2956 
Q 1341 3275 1631 3429 
Q 1922 3584 2338 3584 
Q 2397 3584 2469 3576 
Q 2541 3569 2628 3553 
L 2631 2963 
z
" id="DejaVuSans-72" transform="scale(0.015625)"/>
      <path d="M 1159 525 
L 1159 -1331 
L 581 -1331 
L 581 3500 
L 1159 3500 
L 1159 2969 
Q 1341 3281 1617 3432 
Q 1894 3584 2278 3584 
Q 2916 3584 3314 3078 
Q 3713 2572 3713 1747 
Q 3713 922 3314 415 
Q 2916 -91 2278 -91 
Q 1894 -91 1617 61 
Q 1341 213 1159 525 
z
M 3116 1747 
Q 3116 2381 2855 2742 
Q 2594 3103 2138 3103 
Q 1681 3103 1420 2742 
Q 1159 2381 1159 1747 
Q 1159 1113 1420 752 
Q 1681 391 2138 391 
Q 2594 391 2855 752 
Q 3116 1113 3116 1747 
z
" id="DejaVuSans-70" transform="scale(0.015625)"/>
      <path d="M 1959 3097 
Q 1497 3097 1228 2736 
Q 959 2375 959 1747 
Q 959 1119 1226 758 
Q 1494 397 1959 397 
Q 2419 397 2687 759 
Q 2956 1122 2956 1747 
Q 2956 2369 2687 2733 
Q 2419 3097 1959 3097 
z
M 1959 3584 
Q 2709 3584 3137 3096 
Q 3566 2609 3566 1747 
Q 3566 888 3137 398 
Q 2709 -91 1959 -91 
Q 1206 -91 779 398 
Q 353 888 353 1747 
Q 353 2609 779 3096 
Q 1206 3584 1959 3584 
z
" id="DejaVuSans-6f" transform="scale(0.015625)"/>
     </defs>
     <use xlink:href="#DejaVuSans-64"/>
     <use x="63.476562" xlink:href="#DejaVuSans-61"/>
     <use x="124.755859" xlink:href="#DejaVuSans-69"/>
     <use x="152.539062" xlink:href="#DejaVuSans-6c"/>
     <use x="180.322266" xlink:href="#DejaVuSans-79"/>
     <use x="239.501953" xlink:href="#DejaVuSans-5f"/>
     <use x="289.501953" xlink:href="#DejaVuSans-72"/>
     <use x="328.365234" xlink:href="#DejaVuSans-65"/>
     <use x="389.888672" xlink:href="#DejaVuSans-70"/>
     <use x="453.365234" xlink:href="#DejaVuSans-6f"/>
     <use x="514.546875" xlink:href="#DejaVuSans-72"/>
     <use x="555.660156" xlink:href="#DejaVuSans-74"/>
    </g>
   </g>
   <g id="legend_1">
    <g id="patch_7">
     <path d="M 64.6 122.862625 
L 155.792188 122.862625 
Q 157.792188 122.862625 157.792188 120.862625 
L 157.792188 48.472 
Q 157.792188 46.472 155.792188 46.472 
L 64.6 46.472 
Q 62.6 46.472 62.6 48.472 
L 62.6 120.862625 
Q 62.6 122.862625 64.6 122.862625 
z
" style="fill:#ffffff;opacity:0.8;stroke:#cccccc;stroke-linejoin:miter;"/>
    </g>
    <g id="line2d_18">
     <path d="M 66.6 54.570437 
L 86.6 54.570437 
" style="fill:none;stroke:#0000ff;stroke-linecap:square;stroke-opacity:0.9;stroke-width:2;"/>
    </g>
    <g id="line2d_19"/>
    <g id="text_15">
     <!-- alpaca -->
     <g transform="translate(94.6 58.070437)scale(0.1 -0.1)">
      <defs>
       <path d="M 3122 3366 
L 3122 2828 
Q 2878 2963 2633 3030 
Q 2388 3097 2138 3097 
Q 1578 3097 1268 2742 
Q 959 2388 959 1747 
Q 959 1106 1268 751 
Q 1578 397 2138 397 
Q 2388 397 2633 464 
Q 2878 531 3122 666 
L 3122 134 
Q 2881 22 2623 -34 
Q 2366 -91 2075 -91 
Q 1284 -91 818 406 
Q 353 903 353 1747 
Q 353 2603 823 3093 
Q 1294 3584 2113 3584 
Q 2378 3584 2631 3529 
Q 2884 3475 3122 3366 
z
" id="DejaVuSans-63" transform="scale(0.015625)"/>
      </defs>
      <use xlink:href="#DejaVuSans-61"/>
      <use x="61.279297" xlink:href="#DejaVuSans-6c"/>
      <use x="89.0625" xlink:href="#DejaVuSans-70"/>
      <use x="152.539062" xlink:href="#DejaVuSans-61"/>
      <use x="213.818359" xlink:href="#DejaVuSans-63"/>
      <use x="268.798828" xlink:href="#DejaVuSans-61"/>
     </g>
    </g>
    <g id="line2d_20">
     <path d="M 66.6 69.248562 
L 86.6 69.248562 
" style="fill:none;stroke:#ff0000;stroke-linecap:square;stroke-opacity:0.9;stroke-width:2;"/>
    </g>
    <g id="line2d_21"/>
    <g id="text_16">
     <!-- mattress -->
     <g transform="translate(94.6 72.748562)scale(0.1 -0.1)">
      <defs>
       <path d="M 3328 2828 
Q 3544 3216 3844 3400 
Q 4144 3584 4550 3584 
Q 5097 3584 5394 3201 
Q 5691 2819 5691 2113 
L 5691 0 
L 5113 0 
L 5113 2094 
Q 5113 2597 4934 2840 
Q 4756 3084 4391 3084 
Q 3944 3084 3684 2787 
Q 3425 2491 3425 1978 
L 3425 0 
L 2847 0 
L 2847 2094 
Q 2847 2600 2669 2842 
Q 2491 3084 2119 3084 
Q 1678 3084 1418 2786 
Q 1159 2488 1159 1978 
L 1159 0 
L 581 0 
L 581 3500 
L 1159 3500 
L 1159 2956 
Q 1356 3278 1631 3431 
Q 1906 3584 2284 3584 
Q 2666 3584 2933 3390 
Q 3200 3197 3328 2828 
z
" id="DejaVuSans-6d" transform="scale(0.015625)"/>
       <path d="M 2834 3397 
L 2834 2853 
Q 2591 2978 2328 3040 
Q 2066 3103 1784 3103 
Q 1356 3103 1142 2972 
Q 928 2841 928 2578 
Q 928 2378 1081 2264 
Q 1234 2150 1697 2047 
L 1894 2003 
Q 2506 1872 2764 1633 
Q 3022 1394 3022 966 
Q 3022 478 2636 193 
Q 2250 -91 1575 -91 
Q 1294 -91 989 -36 
Q 684 19 347 128 
L 347 722 
Q 666 556 975 473 
Q 1284 391 1588 391 
Q 1994 391 2212 530 
Q 2431 669 2431 922 
Q 2431 1156 2273 1281 
Q 2116 1406 1581 1522 
L 1381 1569 
Q 847 1681 609 1914 
Q 372 2147 372 2553 
Q 372 3047 722 3315 
Q 1072 3584 1716 3584 
Q 2034 3584 2315 3537 
Q 2597 3491 2834 3397 
z
" id="DejaVuSans-73" transform="scale(0.015625)"/>
      </defs>
      <use xlink:href="#DejaVuSans-6d"/>
      <use x="97.412109" xlink:href="#DejaVuSans-61"/>
      <use x="158.691406" xlink:href="#DejaVuSans-74"/>
      <use x="197.900391" xlink:href="#DejaVuSans-74"/>
      <use x="237.109375" xlink:href="#DejaVuSans-72"/>
      <use x="275.972656" xlink:href="#DejaVuSans-65"/>
      <use x="337.496094" xlink:href="#DejaVuSans-73"/>
      <use x="389.595703" xlink:href="#DejaVuSans-73"/>
     </g>
    </g>
    <g id="line2d_22">
     <path d="M 66.6 83.926687 
L 86.6 83.926687 
" style="fill:none;stroke:#ff8040;stroke-linecap:square;stroke-opacity:0.9;stroke-width:2;"/>
    </g>
    <g id="line2d_23"/>
    <g id="text_17">
     <!-- trader-0850 -->
     <g transform="translate(94.6 87.426687)scale(0.1 -0.1)">
      <use xlink:href="#DejaVuSans-74"/>
      <use x="39.208984" xlink:href="#DejaVuSans-72"/>
      <use x="80.322266" xlink:href="#DejaVuSans-61"/>
      <use x="141.601562" xlink:href="#DejaVuSans-64"/>
      <use x="205.078125" xlink:href="#DejaVuSans-65"/>
      <use x="266.601562" xlink:href="#DejaVuSans-72"/>
      <use x="301.339844" xlink:href="#DejaVuSans-2d"/>
      <use x="337.423828" xlink:href="#DejaVuSans-30"/>
      <use x="401.046875" xlink:href="#DejaVuSans-38"/>
      <use x="464.669922" xlink:href="#DejaVuSans-35"/>
      <use x="528.292969" xlink:href="#DejaVuSans-30"/>
     </g>
    </g>
    <g id="line2d_24">
     <path d="M 66.6 98.604812 
L 86.6 98.604812 
" style="fill:none;stroke:#0d0d0d;stroke-linecap:square;stroke-opacity:0.25;stroke-width:2;"/>
    </g>
    <g id="line2d_25"/>
    <g id="text_18">
     <!-- rando-min -->
     <g transform="translate(94.6 102.104812)scale(0.1 -0.1)">
      <defs>
       <path d="M 3513 2113 
L 3513 0 
L 2938 0 
L 2938 2094 
Q 2938 2591 2744 2837 
Q 2550 3084 2163 3084 
Q 1697 3084 1428 2787 
Q 1159 2491 1159 1978 
L 1159 0 
L 581 0 
L 581 3500 
L 1159 3500 
L 1159 2956 
Q 1366 3272 1645 3428 
Q 1925 3584 2291 3584 
Q 2894 3584 3203 3211 
Q 3513 2838 3513 2113 
z
" id="DejaVuSans-6e" transform="scale(0.015625)"/>
      </defs>
      <use xlink:href="#DejaVuSans-72"/>
      <use x="41.113281" xlink:href="#DejaVuSans-61"/>
      <use x="102.392578" xlink:href="#DejaVuSans-6e"/>
      <use x="165.771484" xlink:href="#DejaVuSans-64"/>
      <use x="229.248047" xlink:href="#DejaVuSans-6f"/>
      <use x="292.304688" xlink:href="#DejaVuSans-2d"/>
      <use x="328.388672" xlink:href="#DejaVuSans-6d"/>
      <use x="425.800781" xlink:href="#DejaVuSans-69"/>
      <use x="453.583984" xlink:href="#DejaVuSans-6e"/>
     </g>
    </g>
    <g id="line2d_26">
     <path d="M 66.6 113.282937 
L 86.6 113.282937 
" style="fill:none;stroke:#0d0d0d;stroke-linecap:square;stroke-opacity:0.25;stroke-width:2;"/>
    </g>
    <g id="line2d_27"/>
    <g id="text_19">
     <!-- rando-max -->
     <g transform="translate(94.6 116.782937)scale(0.1 -0.1)">
      <defs>
       <path d="M 3513 3500 
L 2247 1797 
L 3578 0 
L 2900 0 
L 1881 1375 
L 863 0 
L 184 0 
L 1544 1831 
L 300 3500 
L 978 3500 
L 1906 2253 
L 2834 3500 
L 3513 3500 
z
" id="DejaVuSans-78" transform="scale(0.015625)"/>
      </defs>
      <use xlink:href="#DejaVuSans-72"/>
      <use x="41.113281" xlink:href="#DejaVuSans-61"/>
      <use x="102.392578" xlink:href="#DejaVuSans-6e"/>
      <use x="165.771484" xlink:href="#DejaVuSans-64"/>
      <use x="229.248047" xlink:href="#DejaVuSans-6f"/>
      <use x="292.304688" xlink:href="#DejaVuSans-2d"/>
      <use x="328.388672" xlink:href="#DejaVuSans-6d"/>
      <use x="425.800781" xlink:href="#DejaVuSans-61"/>
      <use x="487.080078" xlink:href="#DejaVuSans-78"/>
     </g>
    </g>
   </g>
  </g>
 </g>
 <defs>
  <clipPath id="p5306bf22a8">
   <rect height="235.008" width="357.12" x="57.6" y="41.472"/>
  </clipPath>
 </defs>
</svg>
