<?xml version="1.0" encoding="utf-8" standalone="no"?>
<!DOCTYPE svg PUBLIC "-//W3C//DTD SVG 1.1//EN"
  "http://www.w3.org/Graphics/SVG/1.1/DTD/svg11.dtd">
<svg height="345.6pt" version="1.1" viewBox="0 0 460.8 345.6" width="460.8pt" xmlns="http://www.w3.org/2000/svg" xmlns:xlink="http://www.w3.org/1999/xlink">
 <metadata>
  <rdf:RDF xmlns:cc="http://creativecommons.org/ns#" xmlns:dc="http://purl.org/dc/elements/1.1/" xmlns:rdf="http://www.w3.org/1999/02/22-rdf-syntax-ns#">
   <cc:Work>
    <dc:type rdf:resource="http://purl.org/dc/dcmitype/StillImage"/>
    <dc:date>2022-05-03T10:01:35.300862</dc:date>
    <dc:format>image/svg+xml</dc:format>
    <dc:creator>
     <cc:Agent>
      <dc:title>Matplotlib v3.4.3, https://matplotlib.org/</dc:title>
     </cc:Agent>
    </dc:creator>
   </cc:Work>
  </rdf:RDF>
 </metadata>
 <defs>
  <style type="text/css">*{stroke-linecap:butt;stroke-linejoin:round;}</style>
 </defs>
 <g id="figure_1">
  <g id="patch_1">
   <path d="M 0 345.6 
L 460.8 345.6 
L 460.8 0 
L 0 0 
z
" style="fill:#ffffff;"/>
  </g>
  <g id="axes_1">
   <g id="patch_2">
    <path d="M 57.6 276.48 
L 414.72 276.48 
L 414.72 41.472 
L 57.6 41.472 
z
" style="fill:#ffffff;"/>
   </g>
   <g id="matplotlib.axis_1">
    <g id="xtick_1">
     <g id="line2d_1">
      <defs>
       <path d="M 0 0 
L 0 3.5 
" id="m992020a9cf" style="stroke:#000000;stroke-width:0.8;"/>
      </defs>
      <g>
       <use style="stroke:#000000;stroke-width:0.8;" x="99.41157" xlink:href="#m992020a9cf" y="276.48"/>
      </g>
     </g>
     <g id="text_1">
      <!-- 2021-12 -->
      <g transform="translate(62.186749 310.951846)rotate(-30)scale(0.1 -0.1)">
       <defs>
        <path d="M 1228 531 
L 3431 531 
L 3431 0 
L 469 0 
L 469 531 
Q 828 903 1448 1529 
Q 2069 2156 2228 2338 
Q 2531 2678 2651 2914 
Q 2772 3150 2772 3378 
Q 2772 3750 2511 3984 
Q 2250 4219 1831 4219 
Q 1534 4219 1204 4116 
Q 875 4013 500 3803 
L 500 4441 
Q 881 4594 1212 4672 
Q 1544 4750 1819 4750 
Q 2544 4750 2975 4387 
Q 3406 4025 3406 3419 
Q 3406 3131 3298 2873 
Q 3191 2616 2906 2266 
Q 2828 2175 2409 1742 
Q 1991 1309 1228 531 
z
" id="DejaVuSans-32" transform="scale(0.015625)"/>
        <path d="M 2034 4250 
Q 1547 4250 1301 3770 
Q 1056 3291 1056 2328 
Q 1056 1369 1301 889 
Q 1547 409 2034 409 
Q 2525 409 2770 889 
Q 3016 1369 3016 2328 
Q 3016 3291 2770 3770 
Q 2525 4250 2034 4250 
z
M 2034 4750 
Q 2819 4750 3233 4129 
Q 3647 3509 3647 2328 
Q 3647 1150 3233 529 
Q 2819 -91 2034 -91 
Q 1250 -91 836 529 
Q 422 1150 422 2328 
Q 422 3509 836 4129 
Q 1250 4750 2034 4750 
z
" id="DejaVuSans-30" transform="scale(0.015625)"/>
        <path d="M 794 531 
L 1825 531 
L 1825 4091 
L 703 3866 
L 703 4441 
L 1819 4666 
L 2450 4666 
L 2450 531 
L 3481 531 
L 3481 0 
L 794 0 
L 794 531 
z
" id="DejaVuSans-31" transform="scale(0.015625)"/>
        <path d="M 313 2009 
L 1997 2009 
L 1997 1497 
L 313 1497 
L 313 2009 
z
" id="DejaVuSans-2d" transform="scale(0.015625)"/>
       </defs>
       <use xlink:href="#DejaVuSans-32"/>
       <use x="63.623047" xlink:href="#DejaVuSans-30"/>
       <use x="127.246094" xlink:href="#DejaVuSans-32"/>
       <use x="190.869141" xlink:href="#DejaVuSans-31"/>
       <use x="254.492188" xlink:href="#DejaVuSans-2d"/>
       <use x="290.576172" xlink:href="#DejaVuSans-31"/>
       <use x="354.199219" xlink:href="#DejaVuSans-32"/>
      </g>
     </g>
    </g>
    <g id="xtick_2">
     <g id="line2d_2">
      <g>
       <use style="stroke:#000000;stroke-width:0.8;" x="160.407273" xlink:href="#m992020a9cf" y="276.48"/>
      </g>
     </g>
     <g id="text_2">
      <!-- 2022-01 -->
      <g transform="translate(123.182452 310.951846)rotate(-30)scale(0.1 -0.1)">
       <use xlink:href="#DejaVuSans-32"/>
       <use x="63.623047" xlink:href="#DejaVuSans-30"/>
       <use x="127.246094" xlink:href="#DejaVuSans-32"/>
       <use x="190.869141" xlink:href="#DejaVuSans-32"/>
       <use x="254.492188" xlink:href="#DejaVuSans-2d"/>
       <use x="290.576172" xlink:href="#DejaVuSans-30"/>
       <use x="354.199219" xlink:href="#DejaVuSans-31"/>
      </g>
     </g>
    </g>
    <g id="xtick_3">
     <g id="line2d_3">
      <g>
       <use style="stroke:#000000;stroke-width:0.8;" x="221.402975" xlink:href="#m992020a9cf" y="276.48"/>
      </g>
     </g>
     <g id="text_3">
      <!-- 2022-02 -->
      <g transform="translate(184.178154 310.951846)rotate(-30)scale(0.1 -0.1)">
       <use xlink:href="#DejaVuSans-32"/>
       <use x="63.623047" xlink:href="#DejaVuSans-30"/>
       <use x="127.246094" xlink:href="#DejaVuSans-32"/>
       <use x="190.869141" xlink:href="#DejaVuSans-32"/>
       <use x="254.492188" xlink:href="#DejaVuSans-2d"/>
       <use x="290.576172" xlink:href="#DejaVuSans-30"/>
       <use x="354.199219" xlink:href="#DejaVuSans-32"/>
      </g>
     </g>
    </g>
    <g id="xtick_4">
     <g id="line2d_4">
      <g>
       <use style="stroke:#000000;stroke-width:0.8;" x="276.495868" xlink:href="#m992020a9cf" y="276.48"/>
      </g>
     </g>
     <g id="text_4">
      <!-- 2022-03 -->
      <g transform="translate(239.271047 310.951846)rotate(-30)scale(0.1 -0.1)">
       <defs>
        <path d="M 2597 2516 
Q 3050 2419 3304 2112 
Q 3559 1806 3559 1356 
Q 3559 666 3084 287 
Q 2609 -91 1734 -91 
Q 1441 -91 1130 -33 
Q 819 25 488 141 
L 488 750 
Q 750 597 1062 519 
Q 1375 441 1716 441 
Q 2309 441 2620 675 
Q 2931 909 2931 1356 
Q 2931 1769 2642 2001 
Q 2353 2234 1838 2234 
L 1294 2234 
L 1294 2753 
L 1863 2753 
Q 2328 2753 2575 2939 
Q 2822 3125 2822 3475 
Q 2822 3834 2567 4026 
Q 2313 4219 1838 4219 
Q 1578 4219 1281 4162 
Q 984 4106 628 3988 
L 628 4550 
Q 988 4650 1302 4700 
Q 1616 4750 1894 4750 
Q 2613 4750 3031 4423 
Q 3450 4097 3450 3541 
Q 3450 3153 3228 2886 
Q 3006 2619 2597 2516 
z
" id="DejaVuSans-33" transform="scale(0.015625)"/>
       </defs>
       <use xlink:href="#DejaVuSans-32"/>
       <use x="63.623047" xlink:href="#DejaVuSans-30"/>
       <use x="127.246094" xlink:href="#DejaVuSans-32"/>
       <use x="190.869141" xlink:href="#DejaVuSans-32"/>
       <use x="254.492188" xlink:href="#DejaVuSans-2d"/>
       <use x="290.576172" xlink:href="#DejaVuSans-30"/>
       <use x="354.199219" xlink:href="#DejaVuSans-33"/>
      </g>
     </g>
    </g>
    <g id="xtick_5">
     <g id="line2d_5">
      <g>
       <use style="stroke:#000000;stroke-width:0.8;" x="337.49157" xlink:href="#m992020a9cf" y="276.48"/>
      </g>
     </g>
     <g id="text_5">
      <!-- 2022-04 -->
      <g transform="translate(300.266749 310.951846)rotate(-30)scale(0.1 -0.1)">
       <defs>
        <path d="M 2419 4116 
L 825 1625 
L 2419 1625 
L 2419 4116 
z
M 2253 4666 
L 3047 4666 
L 3047 1625 
L 3713 1625 
L 3713 1100 
L 3047 1100 
L 3047 0 
L 2419 0 
L 2419 1100 
L 313 1100 
L 313 1709 
L 2253 4666 
z
" id="DejaVuSans-34" transform="scale(0.015625)"/>
       </defs>
       <use xlink:href="#DejaVuSans-32"/>
       <use x="63.623047" xlink:href="#DejaVuSans-30"/>
       <use x="127.246094" xlink:href="#DejaVuSans-32"/>
       <use x="190.869141" xlink:href="#DejaVuSans-32"/>
       <use x="254.492188" xlink:href="#DejaVuSans-2d"/>
       <use x="290.576172" xlink:href="#DejaVuSans-30"/>
       <use x="354.199219" xlink:href="#DejaVuSans-34"/>
      </g>
     </g>
    </g>
    <g id="xtick_6">
     <g id="line2d_6">
      <g>
       <use style="stroke:#000000;stroke-width:0.8;" x="396.519669" xlink:href="#m992020a9cf" y="276.48"/>
      </g>
     </g>
     <g id="text_6">
      <!-- 2022-05 -->
      <g transform="translate(359.294849 310.951846)rotate(-30)scale(0.1 -0.1)">
       <defs>
        <path d="M 691 4666 
L 3169 4666 
L 3169 4134 
L 1269 4134 
L 1269 2991 
Q 1406 3038 1543 3061 
Q 1681 3084 1819 3084 
Q 2600 3084 3056 2656 
Q 3513 2228 3513 1497 
Q 3513 744 3044 326 
Q 2575 -91 1722 -91 
Q 1428 -91 1123 -41 
Q 819 9 494 109 
L 494 744 
Q 775 591 1075 516 
Q 1375 441 1709 441 
Q 2250 441 2565 725 
Q 2881 1009 2881 1497 
Q 2881 1984 2565 2268 
Q 2250 2553 1709 2553 
Q 1456 2553 1204 2497 
Q 953 2441 691 2322 
L 691 4666 
z
" id="DejaVuSans-35" transform="scale(0.015625)"/>
       </defs>
       <use xlink:href="#DejaVuSans-32"/>
       <use x="63.623047" xlink:href="#DejaVuSans-30"/>
       <use x="127.246094" xlink:href="#DejaVuSans-32"/>
       <use x="190.869141" xlink:href="#DejaVuSans-32"/>
       <use x="254.492188" xlink:href="#DejaVuSans-2d"/>
       <use x="290.576172" xlink:href="#DejaVuSans-30"/>
       <use x="354.199219" xlink:href="#DejaVuSans-35"/>
      </g>
     </g>
    </g>
    <g id="text_7">
     <!-- date -->
     <g transform="translate(224.885 324.351346)scale(0.1 -0.1)">
      <defs>
       <path d="M 2906 2969 
L 2906 4863 
L 3481 4863 
L 3481 0 
L 2906 0 
L 2906 525 
Q 2725 213 2448 61 
Q 2172 -91 1784 -91 
Q 1150 -91 751 415 
Q 353 922 353 1747 
Q 353 2572 751 3078 
Q 1150 3584 1784 3584 
Q 2172 3584 2448 3432 
Q 2725 3281 2906 2969 
z
M 947 1747 
Q 947 1113 1208 752 
Q 1469 391 1925 391 
Q 2381 391 2643 752 
Q 2906 1113 2906 1747 
Q 2906 2381 2643 2742 
Q 2381 3103 1925 3103 
Q 1469 3103 1208 2742 
Q 947 2381 947 1747 
z
" id="DejaVuSans-64" transform="scale(0.015625)"/>
       <path d="M 2194 1759 
Q 1497 1759 1228 1600 
Q 959 1441 959 1056 
Q 959 750 1161 570 
Q 1363 391 1709 391 
Q 2188 391 2477 730 
Q 2766 1069 2766 1631 
L 2766 1759 
L 2194 1759 
z
M 3341 1997 
L 3341 0 
L 2766 0 
L 2766 531 
Q 2569 213 2275 61 
Q 1981 -91 1556 -91 
Q 1019 -91 701 211 
Q 384 513 384 1019 
Q 384 1609 779 1909 
Q 1175 2209 1959 2209 
L 2766 2209 
L 2766 2266 
Q 2766 2663 2505 2880 
Q 2244 3097 1772 3097 
Q 1472 3097 1187 3025 
Q 903 2953 641 2809 
L 641 3341 
Q 956 3463 1253 3523 
Q 1550 3584 1831 3584 
Q 2591 3584 2966 3190 
Q 3341 2797 3341 1997 
z
" id="DejaVuSans-61" transform="scale(0.015625)"/>
       <path d="M 1172 4494 
L 1172 3500 
L 2356 3500 
L 2356 3053 
L 1172 3053 
L 1172 1153 
Q 1172 725 1289 603 
Q 1406 481 1766 481 
L 2356 481 
L 2356 0 
L 1766 0 
Q 1100 0 847 248 
Q 594 497 594 1153 
L 594 3053 
L 172 3053 
L 172 3500 
L 594 3500 
L 594 4494 
L 1172 4494 
z
" id="DejaVuSans-74" transform="scale(0.015625)"/>
       <path d="M 3597 1894 
L 3597 1613 
L 953 1613 
Q 991 1019 1311 708 
Q 1631 397 2203 397 
Q 2534 397 2845 478 
Q 3156 559 3463 722 
L 3463 178 
Q 3153 47 2828 -22 
Q 2503 -91 2169 -91 
Q 1331 -91 842 396 
Q 353 884 353 1716 
Q 353 2575 817 3079 
Q 1281 3584 2069 3584 
Q 2775 3584 3186 3129 
Q 3597 2675 3597 1894 
z
M 3022 2063 
Q 3016 2534 2758 2815 
Q 2500 3097 2075 3097 
Q 1594 3097 1305 2825 
Q 1016 2553 972 2059 
L 3022 2063 
z
" id="DejaVuSans-65" transform="scale(0.015625)"/>
      </defs>
      <use xlink:href="#DejaVuSans-64"/>
      <use x="63.476562" xlink:href="#DejaVuSans-61"/>
      <use x="124.755859" xlink:href="#DejaVuSans-74"/>
      <use x="163.964844" xlink:href="#DejaVuSans-65"/>
     </g>
    </g>
   </g>
   <g id="matplotlib.axis_2">
    <g id="ytick_1">
     <g id="line2d_7">
      <defs>
       <path d="M 0 0 
L -3.5 0 
" id="mf46c1a7ec3" style="stroke:#000000;stroke-width:0.8;"/>
      </defs>
      <g>
       <use style="stroke:#000000;stroke-width:0.8;" x="57.6" xlink:href="#mf46c1a7ec3" y="262.154043"/>
      </g>
     </g>
     <g id="text_8">
      <!-- 88000 -->
      <g transform="translate(18.7875 265.953262)scale(0.1 -0.1)">
       <defs>
        <path d="M 2034 2216 
Q 1584 2216 1326 1975 
Q 1069 1734 1069 1313 
Q 1069 891 1326 650 
Q 1584 409 2034 409 
Q 2484 409 2743 651 
Q 3003 894 3003 1313 
Q 3003 1734 2745 1975 
Q 2488 2216 2034 2216 
z
M 1403 2484 
Q 997 2584 770 2862 
Q 544 3141 544 3541 
Q 544 4100 942 4425 
Q 1341 4750 2034 4750 
Q 2731 4750 3128 4425 
Q 3525 4100 3525 3541 
Q 3525 3141 3298 2862 
Q 3072 2584 2669 2484 
Q 3125 2378 3379 2068 
Q 3634 1759 3634 1313 
Q 3634 634 3220 271 
Q 2806 -91 2034 -91 
Q 1263 -91 848 271 
Q 434 634 434 1313 
Q 434 1759 690 2068 
Q 947 2378 1403 2484 
z
M 1172 3481 
Q 1172 3119 1398 2916 
Q 1625 2713 2034 2713 
Q 2441 2713 2670 2916 
Q 2900 3119 2900 3481 
Q 2900 3844 2670 4047 
Q 2441 4250 2034 4250 
Q 1625 4250 1398 4047 
Q 1172 3844 1172 3481 
z
" id="DejaVuSans-38" transform="scale(0.015625)"/>
       </defs>
       <use xlink:href="#DejaVuSans-38"/>
       <use x="63.623047" xlink:href="#DejaVuSans-38"/>
       <use x="127.246094" xlink:href="#DejaVuSans-30"/>
       <use x="190.869141" xlink:href="#DejaVuSans-30"/>
       <use x="254.492188" xlink:href="#DejaVuSans-30"/>
      </g>
     </g>
    </g>
    <g id="ytick_2">
     <g id="line2d_8">
      <g>
       <use style="stroke:#000000;stroke-width:0.8;" x="57.6" xlink:href="#mf46c1a7ec3" y="232.600554"/>
      </g>
     </g>
     <g id="text_9">
      <!-- 90000 -->
      <g transform="translate(18.7875 236.399772)scale(0.1 -0.1)">
       <defs>
        <path d="M 703 97 
L 703 672 
Q 941 559 1184 500 
Q 1428 441 1663 441 
Q 2288 441 2617 861 
Q 2947 1281 2994 2138 
Q 2813 1869 2534 1725 
Q 2256 1581 1919 1581 
Q 1219 1581 811 2004 
Q 403 2428 403 3163 
Q 403 3881 828 4315 
Q 1253 4750 1959 4750 
Q 2769 4750 3195 4129 
Q 3622 3509 3622 2328 
Q 3622 1225 3098 567 
Q 2575 -91 1691 -91 
Q 1453 -91 1209 -44 
Q 966 3 703 97 
z
M 1959 2075 
Q 2384 2075 2632 2365 
Q 2881 2656 2881 3163 
Q 2881 3666 2632 3958 
Q 2384 4250 1959 4250 
Q 1534 4250 1286 3958 
Q 1038 3666 1038 3163 
Q 1038 2656 1286 2365 
Q 1534 2075 1959 2075 
z
" id="DejaVuSans-39" transform="scale(0.015625)"/>
       </defs>
       <use xlink:href="#DejaVuSans-39"/>
       <use x="63.623047" xlink:href="#DejaVuSans-30"/>
       <use x="127.246094" xlink:href="#DejaVuSans-30"/>
       <use x="190.869141" xlink:href="#DejaVuSans-30"/>
       <use x="254.492188" xlink:href="#DejaVuSans-30"/>
      </g>
     </g>
    </g>
    <g id="ytick_3">
     <g id="line2d_9">
      <g>
       <use style="stroke:#000000;stroke-width:0.8;" x="57.6" xlink:href="#mf46c1a7ec3" y="203.047064"/>
      </g>
     </g>
     <g id="text_10">
      <!-- 92000 -->
      <g transform="translate(18.7875 206.846283)scale(0.1 -0.1)">
       <use xlink:href="#DejaVuSans-39"/>
       <use x="63.623047" xlink:href="#DejaVuSans-32"/>
       <use x="127.246094" xlink:href="#DejaVuSans-30"/>
       <use x="190.869141" xlink:href="#DejaVuSans-30"/>
       <use x="254.492188" xlink:href="#DejaVuSans-30"/>
      </g>
     </g>
    </g>
    <g id="ytick_4">
     <g id="line2d_10">
      <g>
       <use style="stroke:#000000;stroke-width:0.8;" x="57.6" xlink:href="#mf46c1a7ec3" y="173.493575"/>
      </g>
     </g>
     <g id="text_11">
      <!-- 94000 -->
      <g transform="translate(18.7875 177.292794)scale(0.1 -0.1)">
       <use xlink:href="#DejaVuSans-39"/>
       <use x="63.623047" xlink:href="#DejaVuSans-34"/>
       <use x="127.246094" xlink:href="#DejaVuSans-30"/>
       <use x="190.869141" xlink:href="#DejaVuSans-30"/>
       <use x="254.492188" xlink:href="#DejaVuSans-30"/>
      </g>
     </g>
    </g>
    <g id="ytick_5">
     <g id="line2d_11">
      <g>
       <use style="stroke:#000000;stroke-width:0.8;" x="57.6" xlink:href="#mf46c1a7ec3" y="143.940086"/>
      </g>
     </g>
     <g id="text_12">
      <!-- 96000 -->
      <g transform="translate(18.7875 147.739305)scale(0.1 -0.1)">
       <defs>
        <path d="M 2113 2584 
Q 1688 2584 1439 2293 
Q 1191 2003 1191 1497 
Q 1191 994 1439 701 
Q 1688 409 2113 409 
Q 2538 409 2786 701 
Q 3034 994 3034 1497 
Q 3034 2003 2786 2293 
Q 2538 2584 2113 2584 
z
M 3366 4563 
L 3366 3988 
Q 3128 4100 2886 4159 
Q 2644 4219 2406 4219 
Q 1781 4219 1451 3797 
Q 1122 3375 1075 2522 
Q 1259 2794 1537 2939 
Q 1816 3084 2150 3084 
Q 2853 3084 3261 2657 
Q 3669 2231 3669 1497 
Q 3669 778 3244 343 
Q 2819 -91 2113 -91 
Q 1303 -91 875 529 
Q 447 1150 447 2328 
Q 447 3434 972 4092 
Q 1497 4750 2381 4750 
Q 2619 4750 2861 4703 
Q 3103 4656 3366 4563 
z
" id="DejaVuSans-36" transform="scale(0.015625)"/>
       </defs>
       <use xlink:href="#DejaVuSans-39"/>
       <use x="63.623047" xlink:href="#DejaVuSans-36"/>
       <use x="127.246094" xlink:href="#DejaVuSans-30"/>
       <use x="190.869141" xlink:href="#DejaVuSans-30"/>
       <use x="254.492188" xlink:href="#DejaVuSans-30"/>
      </g>
     </g>
    </g>
    <g id="ytick_6">
     <g id="line2d_12">
      <g>
       <use style="stroke:#000000;stroke-width:0.8;" x="57.6" xlink:href="#mf46c1a7ec3" y="114.386597"/>
      </g>
     </g>
     <g id="text_13">
      <!-- 98000 -->
      <g transform="translate(18.7875 118.185816)scale(0.1 -0.1)">
       <use xlink:href="#DejaVuSans-39"/>
       <use x="63.623047" xlink:href="#DejaVuSans-38"/>
       <use x="127.246094" xlink:href="#DejaVuSans-30"/>
       <use x="190.869141" xlink:href="#DejaVuSans-30"/>
       <use x="254.492188" xlink:href="#DejaVuSans-30"/>
      </g>
     </g>
    </g>
    <g id="ytick_7">
     <g id="line2d_13">
      <g>
       <use style="stroke:#000000;stroke-width:0.8;" x="57.6" xlink:href="#mf46c1a7ec3" y="84.833108"/>
      </g>
     </g>
     <g id="text_14">
      <!-- 100000 -->
      <g transform="translate(12.425 88.632326)scale(0.1 -0.1)">
       <use xlink:href="#DejaVuSans-31"/>
       <use x="63.623047" xlink:href="#DejaVuSans-30"/>
       <use x="127.246094" xlink:href="#DejaVuSans-30"/>
       <use x="190.869141" xlink:href="#DejaVuSans-30"/>
       <use x="254.492188" xlink:href="#DejaVuSans-30"/>
       <use x="318.115234" xlink:href="#DejaVuSans-30"/>
      </g>
     </g>
    </g>
    <g id="ytick_8">
     <g id="line2d_14">
      <g>
       <use style="stroke:#000000;stroke-width:0.8;" x="57.6" xlink:href="#mf46c1a7ec3" y="55.279618"/>
      </g>
     </g>
     <g id="text_15">
      <!-- 102000 -->
      <g transform="translate(12.425 59.078837)scale(0.1 -0.1)">
       <use xlink:href="#DejaVuSans-31"/>
       <use x="63.623047" xlink:href="#DejaVuSans-30"/>
       <use x="127.246094" xlink:href="#DejaVuSans-32"/>
       <use x="190.869141" xlink:href="#DejaVuSans-30"/>
       <use x="254.492188" xlink:href="#DejaVuSans-30"/>
       <use x="318.115234" xlink:href="#DejaVuSans-30"/>
      </g>
     </g>
    </g>
   </g>
   <g id="line2d_15">
    <path clip-path="url(#p54e898ee9d)" d="M 73.832727 83.306726 
L 75.800331 85.391132 
L 81.70314 90.647376 
L 83.670744 87.380311 
L 85.638347 83.949342 
L 89.573554 84.53086 
L 95.476364 99.133878 
L 97.443967 126.972419 
L 99.41157 143.143791 
L 101.379174 122.335171 
L 103.346777 134.649279 
L 109.249587 117.833658 
L 111.21719 88.001724 
L 113.184793 84.336404 
L 115.152397 93.159455 
L 117.12 80.239993 
L 123.02281 93.989046 
L 124.990413 103.865825 
L 126.958017 81.140546 
L 128.92562 94.572008 
L 130.893223 110.907008 
L 136.796033 128.206873 
L 138.763636 104.143215 
L 140.73124 89.841734 
L 142.698843 80.836697 
L 150.569256 59.744056 
L 152.53686 60.292011 
L 154.504463 58.447328 
L 156.472066 62.466615 
L 158.439669 67.715104 
L 164.342479 57.670087 
L 166.310083 58.5263 
L 168.277686 87.552623 
L 170.245289 89.464985 
L 172.212893 94.883939 
L 178.115702 96.875422 
L 180.083306 83.169591 
L 182.050909 79.287964 
L 184.018512 98.992852 
L 185.986116 98.427663 
L 193.856529 124.832665 
L 195.824132 138.931986 
L 197.791736 155.544005 
L 199.759339 182.463907 
L 205.662149 178.16338 
L 207.629752 194.744308 
L 209.597355 197.558586 
L 211.564959 204.39471 
L 213.532562 170.099387 
L 219.435372 145.0039 
L 221.402975 136.158389 
L 223.370579 122.841923 
L 225.338182 155.520012 
L 227.305785 149.544358 
L 233.208595 154.445551 
L 235.176198 141.794098 
L 237.143802 122.016211 
L 239.111405 147.577949 
L 241.079008 175.076544 
L 246.981818 179.987507 
L 248.949421 157.057148 
L 250.917025 156.446862 
L 252.884628 185.288882 
L 254.852231 194.874309 
L 262.722645 209.000492 
L 264.690248 234.250872 
L 266.657851 214.14967 
L 268.625455 184.023141 
L 274.528264 187.234924 
L 276.495868 207.688125 
L 278.463471 182.978376 
L 280.431074 190.216971 
L 282.398678 202.02855 
L 288.301488 241.618793 
L 290.269091 251.891469 
L 292.236694 216.304143 
L 294.204298 222.583943 
L 296.171901 239.307189 
L 302.074711 249.302441 
L 304.042314 220.435082 
L 306.009917 190.074274 
L 307.977521 173.276633 
L 309.945124 160.216244 
L 315.847934 160.379898 
L 317.815537 144.096962 
L 319.78314 162.69305 
L 321.750744 143.681737 
L 323.718347 137.342288 
L 329.621157 127.617045 
L 331.58876 109.137337 
L 333.556364 117.735663 
L 335.523967 140.566628 
L 337.49157 136.838895 
L 343.39438 123.40856 
L 345.361983 141.460589 
L 347.329587 156.853846 
L 349.29719 149.755171 
L 351.264793 152.181346 
L 357.167603 177.40444 
L 359.135207 182.910115 
L 361.10281 166.160613 
L 363.070413 184.08233 
L 370.940826 182.869272 
L 372.90843 160.452832 
L 374.876033 161.736891 
L 376.843636 182.0816 
L 378.81124 220.221103 
L 384.71405 213.379559 
L 386.681653 252.046964 
L 388.649256 248.515854 
L 390.61686 215.214404 
L 392.584463 264.196647 
L 398.487273 251.729316 
" style="fill:none;stroke:#0000ff;stroke-linecap:square;stroke-opacity:0.9;stroke-width:2;"/>
   </g>
   <g id="line2d_16">
    <path clip-path="url(#p54e898ee9d)" d="M 73.832727 83.306726 
L 75.800331 85.383334 
L 81.70314 90.711706 
L 83.670744 88.333716 
L 85.638347 85.036469 
L 89.573554 116.589494 
L 95.476364 99.184261 
L 97.443967 127.167619 
L 99.41157 144.026012 
L 101.379174 122.703379 
L 103.346777 135.054556 
L 109.249587 117.217719 
L 111.21719 88.022434 
L 113.184793 84.080309 
L 115.152397 94.499393 
L 117.12 80.361665 
L 123.02281 94.448676 
L 124.990413 105.132484 
L 126.958017 81.381618 
L 128.92562 94.295517 
L 130.893223 111.799842 
L 136.796033 127.60356 
L 138.763636 104.603509 
L 140.73124 90.157567 
L 142.698843 79.912454 
L 150.569256 59.158068 
L 152.53686 60.475823 
L 154.504463 58.898358 
L 156.472066 63.200813 
L 158.439669 66.535584 
L 164.342479 57.636924 
L 166.310083 58.819713 
L 168.277686 87.059316 
L 170.245289 88.997514 
L 172.212893 94.321298 
L 178.115702 96.560468 
L 180.083306 82.999991 
L 182.050909 78.285349 
L 184.018512 98.852239 
L 185.986116 99.23259 
L 193.856529 125.227024 
L 195.824132 139.027035 
L 197.791736 156.207541 
L 199.759339 182.415726 
L 205.662149 176.980874 
L 207.629752 193.879527 
L 209.597355 197.151906 
L 211.564959 204.316037 
L 213.532562 170.889664 
L 219.435372 145.186426 
L 221.402975 135.845698 
L 223.370579 123.145168 
L 225.338182 156.185011 
L 227.305785 149.714425 
L 233.208595 153.559363 
L 235.176198 142.984267 
L 237.143802 122.470685 
L 239.111405 146.998374 
L 241.079008 175.413119 
L 246.981818 180.252844 
L 248.949421 158.280623 
L 250.917025 156.308769 
L 252.884628 186.279938 
L 254.852231 195.141346 
L 262.722645 209.391567 
L 264.690248 233.494747 
L 266.657851 213.353782 
L 268.625455 183.547441 
L 274.528264 186.894922 
L 276.495868 207.684492 
L 278.463471 183.260338 
L 280.431074 189.611531 
L 282.398678 200.838661 
L 288.301488 240.938804 
L 290.269091 251.275541 
L 292.236694 216.197013 
L 294.204298 222.75946 
L 296.171901 238.807284 
L 302.074711 248.61908 
L 304.042314 220.485489 
L 306.009917 191.43926 
L 307.977521 173.548677 
L 309.945124 160.199136 
L 315.847934 160.958373 
L 317.815537 143.789234 
L 319.78314 162.054512 
L 321.750744 144.010566 
L 323.718347 137.567325 
L 329.621157 127.181656 
L 331.58876 109.440488 
L 333.556364 117.731013 
L 335.523967 140.454937 
L 337.49157 136.926627 
L 343.39438 124.217051 
L 345.361983 141.907711 
L 347.329587 156.13014 
L 349.29719 149.99131 
L 351.264793 153.016435 
L 357.167603 177.505626 
L 359.135207 182.852462 
L 361.10281 166.726514 
L 363.070413 182.953563 
L 370.940826 183.35197 
L 372.90843 161.838976 
L 374.876033 162.756265 
L 376.843636 183.105162 
L 378.81124 220.467858 
L 384.71405 212.915396 
L 386.681653 251.557641 
L 388.649256 248.597329 
L 390.61686 215.069567 
L 392.584463 264.908005 
L 398.487273 257.392266 
" style="fill:none;stroke:#ff0000;stroke-linecap:square;stroke-opacity:0.9;stroke-width:2;"/>
   </g>
   <g id="line2d_17">
    <path clip-path="url(#p54e898ee9d)" d="M 73.832727 83.306726 
L 75.800331 86.593271 
L 81.70314 90.572616 
L 83.670744 88.710233 
L 85.638347 83.832769 
L 89.573554 117.038527 
L 95.476364 99.771763 
L 97.443967 127.237271 
L 99.41157 143.965354 
L 101.379174 121.799012 
L 103.346777 134.440792 
L 109.249587 117.742524 
L 111.21719 88.616261 
L 113.184793 83.570402 
L 115.152397 93.860804 
L 117.12 79.593565 
L 123.02281 94.046747 
L 124.990413 104.171756 
L 126.958017 81.405898 
L 128.92562 94.912157 
L 130.893223 110.670616 
L 136.796033 127.624165 
L 138.763636 104.398079 
L 140.73124 89.850035 
L 142.698843 80.023923 
L 150.569256 60.031699 
L 152.53686 60.733748 
L 154.504463 59.095189 
L 156.472066 63.303569 
L 158.439669 67.235851 
L 164.342479 57.501905 
L 166.310083 58.023115 
L 168.277686 87.007118 
L 170.245289 88.808892 
L 172.212893 94.28137 
L 178.115702 97.313177 
L 180.083306 82.688617 
L 182.050909 79.021749 
L 184.018512 99.226997 
L 185.986116 99.043942 
L 193.856529 125.055186 
L 195.824132 140.385416 
L 197.791736 154.790169 
L 199.759339 183.363768 
L 205.662149 177.582486 
L 207.629752 194.609831 
L 209.597355 196.967386 
L 211.564959 203.655723 
L 213.532562 170.247724 
L 219.435372 145.832178 
L 221.402975 135.757149 
L 223.370579 121.787163 
L 225.338182 155.995021 
L 227.305785 149.208746 
L 233.208595 153.70613 
L 235.176198 141.966081 
L 237.143802 122.128971 
L 239.111405 146.999308 
L 241.079008 175.527137 
L 246.981818 179.475637 
L 248.949421 158.070959 
L 250.917025 156.6678 
L 252.884628 186.006417 
L 254.852231 195.16292 
L 262.722645 210.080383 
L 264.690248 234.262157 
L 266.657851 214.128154 
L 268.625455 184.527385 
L 274.528264 187.401841 
L 276.495868 207.857552 
L 278.463471 182.902197 
L 280.431074 190.536938 
L 282.398678 201.990833 
L 288.301488 241.790089 
L 290.269091 251.488392 
L 292.236694 217.007092 
L 294.204298 222.00081 
L 296.171901 238.901537 
L 302.074711 248.487955 
L 304.042314 220.29887 
L 306.009917 190.807826 
L 307.977521 172.80198 
L 309.945124 158.954354 
L 315.847934 160.448477 
L 317.815537 144.079229 
L 319.78314 162.936688 
L 321.750744 144.601909 
L 323.718347 136.511621 
L 329.621157 127.450794 
L 331.58876 108.128935 
L 333.556364 118.648178 
L 335.523967 140.426435 
L 337.49157 136.319812 
L 343.39438 123.35087 
L 345.361983 142.238491 
L 347.329587 156.314822 
L 349.29719 149.821852 
L 351.264793 152.716533 
L 357.167603 177.750496 
L 359.135207 181.780945 
L 361.10281 166.792893 
L 363.070413 183.444155 
L 370.940826 183.62438 
L 372.90843 161.196504 
L 374.876033 162.904734 
L 376.843636 183.433332 
L 378.81124 220.215964 
L 384.71405 213.755618 
L 386.681653 251.867221 
L 388.649256 248.289776 
L 390.61686 215.256447 
L 392.584463 265.797818 
L 398.487273 257.281813 
" style="fill:none;stroke:#008000;stroke-linecap:square;stroke-opacity:0.9;stroke-width:2;"/>
   </g>
   <g id="line2d_18">
    <path clip-path="url(#p54e898ee9d)" d="M 73.832727 83.306726 
L 75.800331 85.258605 
L 81.70314 90.055227 
L 83.670744 88.221155 
L 85.638347 83.685819 
L 89.573554 117.23795 
L 95.476364 99.931533 
L 97.443967 126.827775 
L 99.41157 143.423314 
L 101.379174 121.612733 
L 103.346777 135.107183 
L 109.249587 117.218176 
L 111.21719 87.377392 
L 113.184793 83.221065 
L 115.152397 93.856372 
L 117.12 79.413875 
L 123.02281 94.04031 
L 124.990413 104.17742 
L 126.958017 81.911548 
L 128.92562 94.698953 
L 130.893223 110.628711 
L 136.796033 128.270418 
L 138.763636 103.94595 
L 140.73124 89.030035 
L 142.698843 80.811503 
L 150.569256 58.901903 
L 152.53686 60.941093 
L 154.504463 58.672996 
L 156.472066 62.2906 
L 158.439669 67.423365 
L 164.342479 58.321963 
L 166.310083 57.860698 
L 168.277686 87.133538 
L 170.245289 89.582941 
L 172.212893 95.276525 
L 178.115702 97.338645 
L 180.083306 83.815245 
L 182.050909 79.411276 
L 184.018512 98.873851 
L 185.986116 98.82949 
L 193.856529 124.706189 
L 195.824132 139.543721 
L 197.791736 155.025696 
L 199.759339 183.247249 
L 205.662149 178.306348 
L 207.629752 194.151831 
L 209.597355 196.751565 
L 211.564959 204.599346 
L 213.532562 170.141668 
L 219.435372 145.288989 
L 221.402975 135.519895 
L 223.370579 122.559069 
L 225.338182 155.189895 
L 227.305785 148.442346 
L 233.208595 153.959394 
L 235.176198 142.947689 
L 237.143802 122.482012 
L 239.111405 147.27044 
L 241.079008 174.928284 
L 246.981818 180.139045 
L 248.949421 157.339855 
L 250.917025 155.939448 
L 252.884628 185.31221 
L 254.852231 194.990034 
L 262.722645 210.390881 
L 264.690248 234.480009 
L 266.657851 213.746389 
L 268.625455 183.476437 
L 274.528264 187.089011 
L 276.495868 209.063218 
L 278.463471 183.718398 
L 280.431074 190.783554 
L 282.398678 202.115027 
L 288.301488 241.017271 
L 290.269091 251.082382 
L 292.236694 217.315499 
L 294.204298 222.522893 
L 296.171901 238.692068 
L 302.074711 248.733296 
L 304.042314 220.972989 
L 306.009917 191.486618 
L 307.977521 173.935926 
L 309.945124 159.200971 
L 315.847934 161.180356 
L 317.815537 144.843028 
L 319.78314 163.030994 
L 321.750744 144.616843 
L 323.718347 136.479292 
L 329.621157 127.135948 
L 331.58876 108.334131 
L 333.556364 118.137832 
L 335.523967 140.627578 
L 337.49157 136.039964 
L 343.39438 124.309364 
L 345.361983 141.610855 
L 347.329587 156.627854 
L 349.29719 149.607087 
L 351.264793 152.286873 
L 357.167603 176.641725 
L 359.135207 182.214964 
L 361.10281 166.670813 
L 363.070413 183.746445 
L 370.940826 183.027897 
L 372.90843 161.434213 
L 374.876033 162.841307 
L 376.843636 183.549767 
L 378.81124 220.588352 
L 384.71405 212.574709 
L 386.681653 251.84056 
L 388.649256 248.291777 
L 390.61686 215.480471 
L 392.584463 265.1443 
L 398.487273 257.760288 
" style="fill:none;stroke:#ec5283;stroke-linecap:square;stroke-width:2;"/>
   </g>
   <g id="line2d_19">
    <path clip-path="url(#p54e898ee9d)" d="M 73.832727 83.306726 
L 75.800331 86.143376 
L 81.70314 90.487302 
L 83.670744 88.622861 
L 85.638347 84.764499 
L 89.573554 117.315416 
L 95.476364 99.214361 
L 97.443967 127.520195 
L 99.41157 143.853433 
L 101.379174 121.410398 
L 103.346777 135.085677 
L 109.249587 117.159054 
L 111.21719 87.431532 
L 113.184793 83.61796 
L 115.152397 93.579469 
L 117.12 80.266083 
L 123.02281 94.692607 
L 124.990413 104.813024 
L 126.958017 80.89702 
L 128.92562 94.804216 
L 130.893223 111.588097 
L 136.796033 127.708657 
L 138.763636 104.89689 
L 140.73124 89.51539 
L 142.698843 80.538869 
L 150.569256 60.117303 
L 152.53686 60.977312 
L 154.504463 58.234424 
L 156.472066 63.1032 
L 158.439669 67.30517 
L 164.342479 58.645173 
L 166.310083 58.267471 
L 168.277686 87.817252 
L 170.245289 89.683759 
L 172.212893 94.254936 
L 178.115702 97.380892 
L 180.083306 83.649699 
L 182.050909 79.596572 
L 184.018512 99.571663 
L 185.986116 99.308512 
L 193.856529 125.303824 
L 195.824132 140.407501 
L 197.791736 155.267541 
L 199.759339 182.939886 
L 205.662149 177.233616 
L 207.629752 194.167676 
L 209.597355 197.506894 
L 211.564959 203.900758 
L 213.532562 170.22965 
L 219.435372 145.833148 
L 221.402975 136.208854 
L 223.370579 122.402897 
L 225.338182 156.220399 
L 227.305785 149.543369 
L 233.208595 154.403122 
L 235.176198 142.500253 
L 237.143802 122.292485 
L 239.111405 147.938027 
L 241.079008 175.122367 
L 246.981818 180.483166 
L 248.949421 157.585549 
L 250.917025 156.115676 
L 252.884628 186.102615 
L 254.852231 194.894376 
L 262.722645 210.387753 
L 264.690248 234.732869 
L 266.657851 214.052578 
L 268.625455 183.789319 
L 274.528264 186.716962 
L 276.495868 208.664524 
L 278.463471 183.210371 
L 280.431074 190.540203 
L 282.398678 201.464758 
L 288.301488 241.00572 
L 290.269091 251.944106 
L 292.236694 217.157455 
L 294.204298 221.861584 
L 296.171901 238.939882 
L 302.074711 248.547662 
L 304.042314 219.968024 
L 306.009917 190.703734 
L 307.977521 172.775725 
L 309.945124 159.618155 
L 315.847934 160.23703 
L 317.815537 144.243981 
L 319.78314 162.511093 
L 321.750744 144.06261 
L 323.718347 137.363129 
L 329.621157 127.714784 
L 331.58876 108.994661 
L 333.556364 118.404623 
L 335.523967 139.411329 
L 337.49157 136.384237 
L 343.39438 124.095324 
L 345.361983 141.564698 
L 347.329587 155.670317 
L 349.29719 149.171062 
L 351.264793 152.836172 
L 357.167603 176.561173 
L 359.135207 181.778238 
L 361.10281 165.668932 
L 363.070413 183.208297 
L 370.940826 183.041564 
L 372.90843 160.685095 
L 374.876033 162.51732 
L 376.843636 182.631402 
L 378.81124 220.602317 
L 384.71405 212.469181 
L 386.681653 251.838949 
L 388.649256 248.702038 
L 390.61686 215.889694 
L 392.584463 265.335656 
L 398.487273 256.916239 
" style="fill:none;stroke:#00ff00;stroke-linecap:square;stroke-opacity:0.9;stroke-width:2;"/>
   </g>
   <g id="line2d_20">
    <path clip-path="url(#p54e898ee9d)" d="M 73.832727 83.306726 
L 75.800331 86.027052 
L 81.70314 90.19172 
L 83.670744 87.756183 
L 85.638347 84.346583 
L 89.573554 117.120939 
L 95.476364 99.877059 
L 97.443967 127.112052 
L 99.41157 143.585319 
L 101.379174 121.415762 
L 103.346777 134.735775 
L 109.249587 116.892943 
L 111.21719 87.529559 
L 113.184793 82.872134 
L 115.152397 93.407442 
L 117.12 79.42365 
L 123.02281 92.456929 
L 124.990413 103.154388 
L 126.958017 80.441664 
L 128.92562 93.313591 
L 130.893223 108.705316 
L 136.796033 123.674306 
L 138.763636 99.326497 
L 140.73124 83.953754 
L 142.698843 74.295209 
L 150.569256 53.424886 
L 152.53686 54.583324 
L 154.504463 53.313618 
L 156.472066 57.298739 
L 158.439669 60.969344 
L 164.342479 52.179461 
L 166.310083 52.154182 
L 168.277686 82.333607 
L 170.245289 82.793647 
L 172.212893 89.186607 
L 178.115702 91.618998 
L 180.083306 76.5888 
L 182.050909 72.982317 
L 184.018512 94.240519 
L 185.986116 93.575285 
L 193.856529 119.694404 
L 195.824132 134.335947 
L 197.791736 149.947245 
L 199.759339 177.029685 
L 205.662149 171.598386 
L 207.629752 188.800101 
L 209.597355 192.012942 
L 211.564959 198.370805 
L 213.532562 164.828662 
L 219.435372 139.789632 
L 221.402975 129.640125 
L 223.370579 115.511616 
L 225.338182 149.537694 
L 227.305785 142.940225 
L 233.208595 147.171616 
L 235.176198 135.938057 
L 237.143802 115.930916 
L 239.111405 141.162798 
L 241.079008 169.530793 
L 246.981818 173.416024 
L 248.949421 151.906305 
L 250.917025 149.465678 
L 252.884628 179.31376 
L 254.852231 189.086789 
L 262.722645 203.778891 
L 264.690248 227.598067 
L 266.657851 207.252404 
L 268.625455 178.093941 
L 274.528264 180.640062 
L 276.495868 201.956317 
L 278.463471 177.741779 
L 280.431074 183.737867 
L 282.398678 195.254423 
L 288.301488 235.875287 
L 290.269091 245.368225 
L 292.236694 210.699646 
L 294.204298 215.659807 
L 296.171901 232.798648 
L 302.074711 242.882956 
L 304.042314 214.069219 
L 306.009917 183.397786 
L 307.977521 166.816439 
L 309.945124 151.512634 
L 315.847934 151.833651 
L 317.815537 135.448051 
L 319.78314 153.258985 
L 321.750744 132.248584 
L 323.718347 125.339177 
L 329.621157 114.237076 
L 331.58876 96.924975 
L 333.556364 106.268776 
L 335.523967 127.356171 
L 337.49157 124.088832 
L 343.39438 111.262559 
L 345.361983 129.713065 
L 347.329587 143.897995 
L 349.29719 137.575735 
L 351.264793 140.208057 
L 357.167603 165.136681 
L 359.135207 170.205328 
L 361.10281 153.880276 
L 363.070413 171.870323 
L 370.940826 171.238148 
L 372.90843 148.970759 
L 374.876033 150.072399 
L 376.843636 170.465083 
L 378.81124 209.234243 
L 384.71405 201.220422 
L 386.681653 240.29097 
L 388.649256 236.391337 
L 390.61686 202.859071 
L 392.584463 253.303281 
L 398.487273 245.014387 
" style="fill:none;stroke:#a5b9cf;stroke-linecap:square;stroke-width:2;"/>
   </g>
   <g id="patch_3">
    <path d="M 57.6 276.48 
L 57.6 41.472 
" style="fill:none;stroke:#000000;stroke-linecap:square;stroke-linejoin:miter;stroke-width:0.8;"/>
   </g>
   <g id="patch_4">
    <path d="M 414.72 276.48 
L 414.72 41.472 
" style="fill:none;stroke:#000000;stroke-linecap:square;stroke-linejoin:miter;stroke-width:0.8;"/>
   </g>
   <g id="patch_5">
    <path d="M 57.6 276.48 
L 414.72 276.48 
" style="fill:none;stroke:#000000;stroke-linecap:square;stroke-linejoin:miter;stroke-width:0.8;"/>
   </g>
   <g id="patch_6">
    <path d="M 57.6 41.472 
L 414.72 41.472 
" style="fill:none;stroke:#000000;stroke-linecap:square;stroke-linejoin:miter;stroke-width:0.8;"/>
   </g>
   <g id="text_16">
    <!-- SP500 -->
    <g transform="translate(217.280625 22.034625)scale(0.12 -0.12)">
     <defs>
      <path d="M 3425 4513 
L 3425 3897 
Q 3066 4069 2747 4153 
Q 2428 4238 2131 4238 
Q 1616 4238 1336 4038 
Q 1056 3838 1056 3469 
Q 1056 3159 1242 3001 
Q 1428 2844 1947 2747 
L 2328 2669 
Q 3034 2534 3370 2195 
Q 3706 1856 3706 1288 
Q 3706 609 3251 259 
Q 2797 -91 1919 -91 
Q 1588 -91 1214 -16 
Q 841 59 441 206 
L 441 856 
Q 825 641 1194 531 
Q 1563 422 1919 422 
Q 2459 422 2753 634 
Q 3047 847 3047 1241 
Q 3047 1584 2836 1778 
Q 2625 1972 2144 2069 
L 1759 2144 
Q 1053 2284 737 2584 
Q 422 2884 422 3419 
Q 422 4038 858 4394 
Q 1294 4750 2059 4750 
Q 2388 4750 2728 4690 
Q 3069 4631 3425 4513 
z
" id="DejaVuSans-53" transform="scale(0.015625)"/>
      <path d="M 1259 4147 
L 1259 2394 
L 2053 2394 
Q 2494 2394 2734 2622 
Q 2975 2850 2975 3272 
Q 2975 3691 2734 3919 
Q 2494 4147 2053 4147 
L 1259 4147 
z
M 628 4666 
L 2053 4666 
Q 2838 4666 3239 4311 
Q 3641 3956 3641 3272 
Q 3641 2581 3239 2228 
Q 2838 1875 2053 1875 
L 1259 1875 
L 1259 0 
L 628 0 
L 628 4666 
z
" id="DejaVuSans-50" transform="scale(0.015625)"/>
     </defs>
     <use xlink:href="#DejaVuSans-53"/>
     <use x="63.476562" xlink:href="#DejaVuSans-50"/>
     <use x="123.779297" xlink:href="#DejaVuSans-35"/>
     <use x="187.402344" xlink:href="#DejaVuSans-30"/>
     <use x="251.025391" xlink:href="#DejaVuSans-30"/>
    </g>
    <!-- daily_report -->
    <g transform="translate(200.466563 35.472)scale(0.12 -0.12)">
     <defs>
      <path d="M 603 3500 
L 1178 3500 
L 1178 0 
L 603 0 
L 603 3500 
z
M 603 4863 
L 1178 4863 
L 1178 4134 
L 603 4134 
L 603 4863 
z
" id="DejaVuSans-69" transform="scale(0.015625)"/>
      <path d="M 603 4863 
L 1178 4863 
L 1178 0 
L 603 0 
L 603 4863 
z
" id="DejaVuSans-6c" transform="scale(0.015625)"/>
      <path d="M 2059 -325 
Q 1816 -950 1584 -1140 
Q 1353 -1331 966 -1331 
L 506 -1331 
L 506 -850 
L 844 -850 
Q 1081 -850 1212 -737 
Q 1344 -625 1503 -206 
L 1606 56 
L 191 3500 
L 800 3500 
L 1894 763 
L 2988 3500 
L 3597 3500 
L 2059 -325 
z
" id="DejaVuSans-79" transform="scale(0.015625)"/>
      <path d="M 3263 -1063 
L 3263 -1509 
L -63 -1509 
L -63 -1063 
L 3263 -1063 
z
" id="DejaVuSans-5f" transform="scale(0.015625)"/>
      <path d="M 2631 2963 
Q 2534 3019 2420 3045 
Q 2306 3072 2169 3072 
Q 1681 3072 1420 2755 
Q 1159 2438 1159 1844 
L 1159 0 
L 581 0 
L 581 3500 
L 1159 3500 
L 1159 2956 
Q 1341 3275 1631 3429 
Q 1922 3584 2338 3584 
Q 2397 3584 2469 3576 
Q 2541 3569 2628 3553 
L 2631 2963 
z
" id="DejaVuSans-72" transform="scale(0.015625)"/>
      <path d="M 1159 525 
L 1159 -1331 
L 581 -1331 
L 581 3500 
L 1159 3500 
L 1159 2969 
Q 1341 3281 1617 3432 
Q 1894 3584 2278 3584 
Q 2916 3584 3314 3078 
Q 3713 2572 3713 1747 
Q 3713 922 3314 415 
Q 2916 -91 2278 -91 
Q 1894 -91 1617 61 
Q 1341 213 1159 525 
z
M 3116 1747 
Q 3116 2381 2855 2742 
Q 2594 3103 2138 3103 
Q 1681 3103 1420 2742 
Q 1159 2381 1159 1747 
Q 1159 1113 1420 752 
Q 1681 391 2138 391 
Q 2594 391 2855 752 
Q 3116 1113 3116 1747 
z
" id="DejaVuSans-70" transform="scale(0.015625)"/>
      <path d="M 1959 3097 
Q 1497 3097 1228 2736 
Q 959 2375 959 1747 
Q 959 1119 1226 758 
Q 1494 397 1959 397 
Q 2419 397 2687 759 
Q 2956 1122 2956 1747 
Q 2956 2369 2687 2733 
Q 2419 3097 1959 3097 
z
M 1959 3584 
Q 2709 3584 3137 3096 
Q 3566 2609 3566 1747 
Q 3566 888 3137 398 
Q 2709 -91 1959 -91 
Q 1206 -91 779 398 
Q 353 888 353 1747 
Q 353 2609 779 3096 
Q 1206 3584 1959 3584 
z
" id="DejaVuSans-6f" transform="scale(0.015625)"/>
     </defs>
     <use xlink:href="#DejaVuSans-64"/>
     <use x="63.476562" xlink:href="#DejaVuSans-61"/>
     <use x="124.755859" xlink:href="#DejaVuSans-69"/>
     <use x="152.539062" xlink:href="#DejaVuSans-6c"/>
     <use x="180.322266" xlink:href="#DejaVuSans-79"/>
     <use x="239.501953" xlink:href="#DejaVuSans-5f"/>
     <use x="289.501953" xlink:href="#DejaVuSans-72"/>
     <use x="328.365234" xlink:href="#DejaVuSans-65"/>
     <use x="389.888672" xlink:href="#DejaVuSans-70"/>
     <use x="453.365234" xlink:href="#DejaVuSans-6f"/>
     <use x="514.546875" xlink:href="#DejaVuSans-72"/>
     <use x="555.660156" xlink:href="#DejaVuSans-74"/>
    </g>
   </g>
   <g id="legend_1">
    <g id="patch_7">
     <path d="M 64.6 271.48 
L 178.64375 271.48 
Q 180.64375 271.48 180.64375 269.48 
L 180.64375 182.41125 
Q 180.64375 180.41125 178.64375 180.41125 
L 64.6 180.41125 
Q 62.6 180.41125 62.6 182.41125 
L 62.6 269.48 
Q 62.6 271.48 64.6 271.48 
z
" style="fill:#ffffff;opacity:0.8;stroke:#cccccc;stroke-linejoin:miter;"/>
    </g>
    <g id="line2d_21">
     <path d="M 66.6 188.509687 
L 86.6 188.509687 
" style="fill:none;stroke:#0000ff;stroke-linecap:square;stroke-opacity:0.9;stroke-width:2;"/>
    </g>
    <g id="line2d_22"/>
    <g id="text_17">
     <!-- alpaca -->
     <g transform="translate(94.6 192.009687)scale(0.1 -0.1)">
      <defs>
       <path d="M 3122 3366 
L 3122 2828 
Q 2878 2963 2633 3030 
Q 2388 3097 2138 3097 
Q 1578 3097 1268 2742 
Q 959 2388 959 1747 
Q 959 1106 1268 751 
Q 1578 397 2138 397 
Q 2388 397 2633 464 
Q 2878 531 3122 666 
L 3122 134 
Q 2881 22 2623 -34 
Q 2366 -91 2075 -91 
Q 1284 -91 818 406 
Q 353 903 353 1747 
Q 353 2603 823 3093 
Q 1294 3584 2113 3584 
Q 2378 3584 2631 3529 
Q 2884 3475 3122 3366 
z
" id="DejaVuSans-63" transform="scale(0.015625)"/>
      </defs>
      <use xlink:href="#DejaVuSans-61"/>
      <use x="61.279297" xlink:href="#DejaVuSans-6c"/>
      <use x="89.0625" xlink:href="#DejaVuSans-70"/>
      <use x="152.539062" xlink:href="#DejaVuSans-61"/>
      <use x="213.818359" xlink:href="#DejaVuSans-63"/>
      <use x="268.798828" xlink:href="#DejaVuSans-61"/>
     </g>
    </g>
    <g id="line2d_23">
     <path d="M 66.6 203.187812 
L 86.6 203.187812 
" style="fill:none;stroke:#ff0000;stroke-linecap:square;stroke-opacity:0.9;stroke-width:2;"/>
    </g>
    <g id="line2d_24"/>
    <g id="text_18">
     <!-- mattress -->
     <g transform="translate(94.6 206.687812)scale(0.1 -0.1)">
      <defs>
       <path d="M 3328 2828 
Q 3544 3216 3844 3400 
Q 4144 3584 4550 3584 
Q 5097 3584 5394 3201 
Q 5691 2819 5691 2113 
L 5691 0 
L 5113 0 
L 5113 2094 
Q 5113 2597 4934 2840 
Q 4756 3084 4391 3084 
Q 3944 3084 3684 2787 
Q 3425 2491 3425 1978 
L 3425 0 
L 2847 0 
L 2847 2094 
Q 2847 2600 2669 2842 
Q 2491 3084 2119 3084 
Q 1678 3084 1418 2786 
Q 1159 2488 1159 1978 
L 1159 0 
L 581 0 
L 581 3500 
L 1159 3500 
L 1159 2956 
Q 1356 3278 1631 3431 
Q 1906 3584 2284 3584 
Q 2666 3584 2933 3390 
Q 3200 3197 3328 2828 
z
" id="DejaVuSans-6d" transform="scale(0.015625)"/>
       <path d="M 2834 3397 
L 2834 2853 
Q 2591 2978 2328 3040 
Q 2066 3103 1784 3103 
Q 1356 3103 1142 2972 
Q 928 2841 928 2578 
Q 928 2378 1081 2264 
Q 1234 2150 1697 2047 
L 1894 2003 
Q 2506 1872 2764 1633 
Q 3022 1394 3022 966 
Q 3022 478 2636 193 
Q 2250 -91 1575 -91 
Q 1294 -91 989 -36 
Q 684 19 347 128 
L 347 722 
Q 666 556 975 473 
Q 1284 391 1588 391 
Q 1994 391 2212 530 
Q 2431 669 2431 922 
Q 2431 1156 2273 1281 
Q 2116 1406 1581 1522 
L 1381 1569 
Q 847 1681 609 1914 
Q 372 2147 372 2553 
Q 372 3047 722 3315 
Q 1072 3584 1716 3584 
Q 2034 3584 2315 3537 
Q 2597 3491 2834 3397 
z
" id="DejaVuSans-73" transform="scale(0.015625)"/>
      </defs>
      <use xlink:href="#DejaVuSans-6d"/>
      <use x="97.412109" xlink:href="#DejaVuSans-61"/>
      <use x="158.691406" xlink:href="#DejaVuSans-74"/>
      <use x="197.900391" xlink:href="#DejaVuSans-74"/>
      <use x="237.109375" xlink:href="#DejaVuSans-72"/>
      <use x="275.972656" xlink:href="#DejaVuSans-65"/>
      <use x="337.496094" xlink:href="#DejaVuSans-73"/>
      <use x="389.595703" xlink:href="#DejaVuSans-73"/>
     </g>
    </g>
    <g id="line2d_25">
     <path d="M 66.6 217.865937 
L 86.6 217.865937 
" style="fill:none;stroke:#008000;stroke-linecap:square;stroke-opacity:0.9;stroke-width:2;"/>
    </g>
    <g id="line2d_26"/>
    <g id="text_19">
     <!-- daily-open-rebal -->
     <g transform="translate(94.6 221.365937)scale(0.1 -0.1)">
      <defs>
       <path d="M 3513 2113 
L 3513 0 
L 2938 0 
L 2938 2094 
Q 2938 2591 2744 2837 
Q 2550 3084 2163 3084 
Q 1697 3084 1428 2787 
Q 1159 2491 1159 1978 
L 1159 0 
L 581 0 
L 581 3500 
L 1159 3500 
L 1159 2956 
Q 1366 3272 1645 3428 
Q 1925 3584 2291 3584 
Q 2894 3584 3203 3211 
Q 3513 2838 3513 2113 
z
" id="DejaVuSans-6e" transform="scale(0.015625)"/>
       <path d="M 3116 1747 
Q 3116 2381 2855 2742 
Q 2594 3103 2138 3103 
Q 1681 3103 1420 2742 
Q 1159 2381 1159 1747 
Q 1159 1113 1420 752 
Q 1681 391 2138 391 
Q 2594 391 2855 752 
Q 3116 1113 3116 1747 
z
M 1159 2969 
Q 1341 3281 1617 3432 
Q 1894 3584 2278 3584 
Q 2916 3584 3314 3078 
Q 3713 2572 3713 1747 
Q 3713 922 3314 415 
Q 2916 -91 2278 -91 
Q 1894 -91 1617 61 
Q 1341 213 1159 525 
L 1159 0 
L 581 0 
L 581 4863 
L 1159 4863 
L 1159 2969 
z
" id="DejaVuSans-62" transform="scale(0.015625)"/>
      </defs>
      <use xlink:href="#DejaVuSans-64"/>
      <use x="63.476562" xlink:href="#DejaVuSans-61"/>
      <use x="124.755859" xlink:href="#DejaVuSans-69"/>
      <use x="152.539062" xlink:href="#DejaVuSans-6c"/>
      <use x="180.322266" xlink:href="#DejaVuSans-79"/>
      <use x="237.751953" xlink:href="#DejaVuSans-2d"/>
      <use x="275.710938" xlink:href="#DejaVuSans-6f"/>
      <use x="336.892578" xlink:href="#DejaVuSans-70"/>
      <use x="400.369141" xlink:href="#DejaVuSans-65"/>
      <use x="461.892578" xlink:href="#DejaVuSans-6e"/>
      <use x="525.271484" xlink:href="#DejaVuSans-2d"/>
      <use x="561.355469" xlink:href="#DejaVuSans-72"/>
      <use x="600.21875" xlink:href="#DejaVuSans-65"/>
      <use x="661.742188" xlink:href="#DejaVuSans-62"/>
      <use x="725.21875" xlink:href="#DejaVuSans-61"/>
      <use x="786.498047" xlink:href="#DejaVuSans-6c"/>
     </g>
    </g>
    <g id="line2d_27">
     <path d="M 66.6 232.544062 
L 86.6 232.544062 
" style="fill:none;stroke:#ec5283;stroke-linecap:square;stroke-width:2;"/>
    </g>
    <g id="line2d_28"/>
    <g id="text_20">
     <!-- daily-close-rebal -->
     <g transform="translate(94.6 236.044062)scale(0.1 -0.1)">
      <use xlink:href="#DejaVuSans-64"/>
      <use x="63.476562" xlink:href="#DejaVuSans-61"/>
      <use x="124.755859" xlink:href="#DejaVuSans-69"/>
      <use x="152.539062" xlink:href="#DejaVuSans-6c"/>
      <use x="180.322266" xlink:href="#DejaVuSans-79"/>
      <use x="237.751953" xlink:href="#DejaVuSans-2d"/>
      <use x="273.835938" xlink:href="#DejaVuSans-63"/>
      <use x="328.816406" xlink:href="#DejaVuSans-6c"/>
      <use x="356.599609" xlink:href="#DejaVuSans-6f"/>
      <use x="417.78125" xlink:href="#DejaVuSans-73"/>
      <use x="469.880859" xlink:href="#DejaVuSans-65"/>
      <use x="531.404297" xlink:href="#DejaVuSans-2d"/>
      <use x="567.488281" xlink:href="#DejaVuSans-72"/>
      <use x="606.351562" xlink:href="#DejaVuSans-65"/>
      <use x="667.875" xlink:href="#DejaVuSans-62"/>
      <use x="731.351562" xlink:href="#DejaVuSans-61"/>
      <use x="792.630859" xlink:href="#DejaVuSans-6c"/>
     </g>
    </g>
    <g id="line2d_29">
     <path d="M 66.6 247.222187 
L 86.6 247.222187 
" style="fill:none;stroke:#00ff00;stroke-linecap:square;stroke-opacity:0.9;stroke-width:2;"/>
    </g>
    <g id="line2d_30"/>
    <g id="text_21">
     <!-- trader-baseline -->
     <g transform="translate(94.6 250.722187)scale(0.1 -0.1)">
      <use xlink:href="#DejaVuSans-74"/>
      <use x="39.208984" xlink:href="#DejaVuSans-72"/>
      <use x="80.322266" xlink:href="#DejaVuSans-61"/>
      <use x="141.601562" xlink:href="#DejaVuSans-64"/>
      <use x="205.078125" xlink:href="#DejaVuSans-65"/>
      <use x="266.601562" xlink:href="#DejaVuSans-72"/>
      <use x="301.339844" xlink:href="#DejaVuSans-2d"/>
      <use x="337.423828" xlink:href="#DejaVuSans-62"/>
      <use x="400.900391" xlink:href="#DejaVuSans-61"/>
      <use x="462.179688" xlink:href="#DejaVuSans-73"/>
      <use x="514.279297" xlink:href="#DejaVuSans-65"/>
      <use x="575.802734" xlink:href="#DejaVuSans-6c"/>
      <use x="603.585938" xlink:href="#DejaVuSans-69"/>
      <use x="631.369141" xlink:href="#DejaVuSans-6e"/>
      <use x="694.748047" xlink:href="#DejaVuSans-65"/>
     </g>
    </g>
    <g id="line2d_31">
     <path d="M 66.6 261.900312 
L 86.6 261.900312 
" style="fill:none;stroke:#a5b9cf;stroke-linecap:square;stroke-width:2;"/>
    </g>
    <g id="line2d_32"/>
    <g id="text_22">
     <!-- default-cfg -->
     <g transform="translate(94.6 265.400312)scale(0.1 -0.1)">
      <defs>
       <path d="M 2375 4863 
L 2375 4384 
L 1825 4384 
Q 1516 4384 1395 4259 
Q 1275 4134 1275 3809 
L 1275 3500 
L 2222 3500 
L 2222 3053 
L 1275 3053 
L 1275 0 
L 697 0 
L 697 3053 
L 147 3053 
L 147 3500 
L 697 3500 
L 697 3744 
Q 697 4328 969 4595 
Q 1241 4863 1831 4863 
L 2375 4863 
z
" id="DejaVuSans-66" transform="scale(0.015625)"/>
       <path d="M 544 1381 
L 544 3500 
L 1119 3500 
L 1119 1403 
Q 1119 906 1312 657 
Q 1506 409 1894 409 
Q 2359 409 2629 706 
Q 2900 1003 2900 1516 
L 2900 3500 
L 3475 3500 
L 3475 0 
L 2900 0 
L 2900 538 
Q 2691 219 2414 64 
Q 2138 -91 1772 -91 
Q 1169 -91 856 284 
Q 544 659 544 1381 
z
M 1991 3584 
L 1991 3584 
z
" id="DejaVuSans-75" transform="scale(0.015625)"/>
       <path d="M 2906 1791 
Q 2906 2416 2648 2759 
Q 2391 3103 1925 3103 
Q 1463 3103 1205 2759 
Q 947 2416 947 1791 
Q 947 1169 1205 825 
Q 1463 481 1925 481 
Q 2391 481 2648 825 
Q 2906 1169 2906 1791 
z
M 3481 434 
Q 3481 -459 3084 -895 
Q 2688 -1331 1869 -1331 
Q 1566 -1331 1297 -1286 
Q 1028 -1241 775 -1147 
L 775 -588 
Q 1028 -725 1275 -790 
Q 1522 -856 1778 -856 
Q 2344 -856 2625 -561 
Q 2906 -266 2906 331 
L 2906 616 
Q 2728 306 2450 153 
Q 2172 0 1784 0 
Q 1141 0 747 490 
Q 353 981 353 1791 
Q 353 2603 747 3093 
Q 1141 3584 1784 3584 
Q 2172 3584 2450 3431 
Q 2728 3278 2906 2969 
L 2906 3500 
L 3481 3500 
L 3481 434 
z
" id="DejaVuSans-67" transform="scale(0.015625)"/>
      </defs>
      <use xlink:href="#DejaVuSans-64"/>
      <use x="63.476562" xlink:href="#DejaVuSans-65"/>
      <use x="125" xlink:href="#DejaVuSans-66"/>
      <use x="160.205078" xlink:href="#DejaVuSans-61"/>
      <use x="221.484375" xlink:href="#DejaVuSans-75"/>
      <use x="284.863281" xlink:href="#DejaVuSans-6c"/>
      <use x="312.646484" xlink:href="#DejaVuSans-74"/>
      <use x="351.855469" xlink:href="#DejaVuSans-2d"/>
      <use x="387.939453" xlink:href="#DejaVuSans-63"/>
      <use x="442.919922" xlink:href="#DejaVuSans-66"/>
      <use x="478.125" xlink:href="#DejaVuSans-67"/>
     </g>
    </g>
   </g>
  </g>
 </g>
 <defs>
  <clipPath id="p54e898ee9d">
   <rect height="235.008" width="357.12" x="57.6" y="41.472"/>
  </clipPath>
 </defs>
</svg>
