<?xml version="1.0" encoding="utf-8" standalone="no"?>
<!DOCTYPE svg PUBLIC "-//W3C//DTD SVG 1.1//EN"
  "http://www.w3.org/Graphics/SVG/1.1/DTD/svg11.dtd">
<svg height="345.6pt" version="1.1" viewBox="0 0 460.8 345.6" width="460.8pt" xmlns="http://www.w3.org/2000/svg" xmlns:xlink="http://www.w3.org/1999/xlink">
 <metadata>
  <rdf:RDF xmlns:cc="http://creativecommons.org/ns#" xmlns:dc="http://purl.org/dc/elements/1.1/" xmlns:rdf="http://www.w3.org/1999/02/22-rdf-syntax-ns#">
   <cc:Work>
    <dc:type rdf:resource="http://purl.org/dc/dcmitype/StillImage"/>
    <dc:date>2022-04-03T20:55:27.527988</dc:date>
    <dc:format>image/svg+xml</dc:format>
    <dc:creator>
     <cc:Agent>
      <dc:title>Matplotlib v3.4.3, https://matplotlib.org/</dc:title>
     </cc:Agent>
    </dc:creator>
   </cc:Work>
  </rdf:RDF>
 </metadata>
 <defs>
  <style type="text/css">*{stroke-linecap:butt;stroke-linejoin:round;}</style>
 </defs>
 <g id="figure_1">
  <g id="patch_1">
   <path d="M 0 345.6 
L 460.8 345.6 
L 460.8 0 
L 0 0 
z
" style="fill:#ffffff;"/>
  </g>
  <g id="axes_1">
   <g id="patch_2">
    <path d="M 57.6 276.48 
L 414.72 276.48 
L 414.72 41.472 
L 57.6 41.472 
z
" style="fill:#ffffff;"/>
   </g>
   <g id="matplotlib.axis_1">
    <g id="xtick_1">
     <g id="line2d_1">
      <defs>
       <path d="M 0 0 
L 0 3.5 
" id="med20793d90" style="stroke:#000000;stroke-width:0.8;"/>
      </defs>
      <g>
       <use style="stroke:#000000;stroke-width:0.8;" x="87.053953" xlink:href="#med20793d90" y="276.48"/>
      </g>
     </g>
     <g id="text_1">
      <!-- 2021-09 -->
      <g transform="translate(49.829132 310.951846)rotate(-30)scale(0.1 -0.1)">
       <defs>
        <path d="M 1228 531 
L 3431 531 
L 3431 0 
L 469 0 
L 469 531 
Q 828 903 1448 1529 
Q 2069 2156 2228 2338 
Q 2531 2678 2651 2914 
Q 2772 3150 2772 3378 
Q 2772 3750 2511 3984 
Q 2250 4219 1831 4219 
Q 1534 4219 1204 4116 
Q 875 4013 500 3803 
L 500 4441 
Q 881 4594 1212 4672 
Q 1544 4750 1819 4750 
Q 2544 4750 2975 4387 
Q 3406 4025 3406 3419 
Q 3406 3131 3298 2873 
Q 3191 2616 2906 2266 
Q 2828 2175 2409 1742 
Q 1991 1309 1228 531 
z
" id="DejaVuSans-32" transform="scale(0.015625)"/>
        <path d="M 2034 4250 
Q 1547 4250 1301 3770 
Q 1056 3291 1056 2328 
Q 1056 1369 1301 889 
Q 1547 409 2034 409 
Q 2525 409 2770 889 
Q 3016 1369 3016 2328 
Q 3016 3291 2770 3770 
Q 2525 4250 2034 4250 
z
M 2034 4750 
Q 2819 4750 3233 4129 
Q 3647 3509 3647 2328 
Q 3647 1150 3233 529 
Q 2819 -91 2034 -91 
Q 1250 -91 836 529 
Q 422 1150 422 2328 
Q 422 3509 836 4129 
Q 1250 4750 2034 4750 
z
" id="DejaVuSans-30" transform="scale(0.015625)"/>
        <path d="M 794 531 
L 1825 531 
L 1825 4091 
L 703 3866 
L 703 4441 
L 1819 4666 
L 2450 4666 
L 2450 531 
L 3481 531 
L 3481 0 
L 794 0 
L 794 531 
z
" id="DejaVuSans-31" transform="scale(0.015625)"/>
        <path d="M 313 2009 
L 1997 2009 
L 1997 1497 
L 313 1497 
L 313 2009 
z
" id="DejaVuSans-2d" transform="scale(0.015625)"/>
        <path d="M 703 97 
L 703 672 
Q 941 559 1184 500 
Q 1428 441 1663 441 
Q 2288 441 2617 861 
Q 2947 1281 2994 2138 
Q 2813 1869 2534 1725 
Q 2256 1581 1919 1581 
Q 1219 1581 811 2004 
Q 403 2428 403 3163 
Q 403 3881 828 4315 
Q 1253 4750 1959 4750 
Q 2769 4750 3195 4129 
Q 3622 3509 3622 2328 
Q 3622 1225 3098 567 
Q 2575 -91 1691 -91 
Q 1453 -91 1209 -44 
Q 966 3 703 97 
z
M 1959 2075 
Q 2384 2075 2632 2365 
Q 2881 2656 2881 3163 
Q 2881 3666 2632 3958 
Q 2384 4250 1959 4250 
Q 1534 4250 1286 3958 
Q 1038 3666 1038 3163 
Q 1038 2656 1286 2365 
Q 1534 2075 1959 2075 
z
" id="DejaVuSans-39" transform="scale(0.015625)"/>
       </defs>
       <use xlink:href="#DejaVuSans-32"/>
       <use x="63.623047" xlink:href="#DejaVuSans-30"/>
       <use x="127.246094" xlink:href="#DejaVuSans-32"/>
       <use x="190.869141" xlink:href="#DejaVuSans-31"/>
       <use x="254.492188" xlink:href="#DejaVuSans-2d"/>
       <use x="290.576172" xlink:href="#DejaVuSans-30"/>
       <use x="354.199219" xlink:href="#DejaVuSans-39"/>
      </g>
     </g>
    </g>
    <g id="xtick_2">
     <g id="line2d_2">
      <g>
       <use style="stroke:#000000;stroke-width:0.8;" x="131.124706" xlink:href="#med20793d90" y="276.48"/>
      </g>
     </g>
     <g id="text_2">
      <!-- 2021-10 -->
      <g transform="translate(93.899885 310.951846)rotate(-30)scale(0.1 -0.1)">
       <use xlink:href="#DejaVuSans-32"/>
       <use x="63.623047" xlink:href="#DejaVuSans-30"/>
       <use x="127.246094" xlink:href="#DejaVuSans-32"/>
       <use x="190.869141" xlink:href="#DejaVuSans-31"/>
       <use x="254.492188" xlink:href="#DejaVuSans-2d"/>
       <use x="290.576172" xlink:href="#DejaVuSans-31"/>
       <use x="354.199219" xlink:href="#DejaVuSans-30"/>
      </g>
     </g>
    </g>
    <g id="xtick_3">
     <g id="line2d_3">
      <g>
       <use style="stroke:#000000;stroke-width:0.8;" x="176.664484" xlink:href="#med20793d90" y="276.48"/>
      </g>
     </g>
     <g id="text_3">
      <!-- 2021-11 -->
      <g transform="translate(139.439663 310.951846)rotate(-30)scale(0.1 -0.1)">
       <use xlink:href="#DejaVuSans-32"/>
       <use x="63.623047" xlink:href="#DejaVuSans-30"/>
       <use x="127.246094" xlink:href="#DejaVuSans-32"/>
       <use x="190.869141" xlink:href="#DejaVuSans-31"/>
       <use x="254.492188" xlink:href="#DejaVuSans-2d"/>
       <use x="290.576172" xlink:href="#DejaVuSans-31"/>
       <use x="354.199219" xlink:href="#DejaVuSans-31"/>
      </g>
     </g>
    </g>
    <g id="xtick_4">
     <g id="line2d_4">
      <g>
       <use style="stroke:#000000;stroke-width:0.8;" x="220.735237" xlink:href="#med20793d90" y="276.48"/>
      </g>
     </g>
     <g id="text_4">
      <!-- 2021-12 -->
      <g transform="translate(183.510416 310.951846)rotate(-30)scale(0.1 -0.1)">
       <use xlink:href="#DejaVuSans-32"/>
       <use x="63.623047" xlink:href="#DejaVuSans-30"/>
       <use x="127.246094" xlink:href="#DejaVuSans-32"/>
       <use x="190.869141" xlink:href="#DejaVuSans-31"/>
       <use x="254.492188" xlink:href="#DejaVuSans-2d"/>
       <use x="290.576172" xlink:href="#DejaVuSans-31"/>
       <use x="354.199219" xlink:href="#DejaVuSans-32"/>
      </g>
     </g>
    </g>
    <g id="xtick_5">
     <g id="line2d_5">
      <g>
       <use style="stroke:#000000;stroke-width:0.8;" x="266.275014" xlink:href="#med20793d90" y="276.48"/>
      </g>
     </g>
     <g id="text_5">
      <!-- 2022-01 -->
      <g transform="translate(229.050194 310.951846)rotate(-30)scale(0.1 -0.1)">
       <use xlink:href="#DejaVuSans-32"/>
       <use x="63.623047" xlink:href="#DejaVuSans-30"/>
       <use x="127.246094" xlink:href="#DejaVuSans-32"/>
       <use x="190.869141" xlink:href="#DejaVuSans-32"/>
       <use x="254.492188" xlink:href="#DejaVuSans-2d"/>
       <use x="290.576172" xlink:href="#DejaVuSans-30"/>
       <use x="354.199219" xlink:href="#DejaVuSans-31"/>
      </g>
     </g>
    </g>
    <g id="xtick_6">
     <g id="line2d_6">
      <g>
       <use style="stroke:#000000;stroke-width:0.8;" x="311.814792" xlink:href="#med20793d90" y="276.48"/>
      </g>
     </g>
     <g id="text_6">
      <!-- 2022-02 -->
      <g transform="translate(274.589971 310.951846)rotate(-30)scale(0.1 -0.1)">
       <use xlink:href="#DejaVuSans-32"/>
       <use x="63.623047" xlink:href="#DejaVuSans-30"/>
       <use x="127.246094" xlink:href="#DejaVuSans-32"/>
       <use x="190.869141" xlink:href="#DejaVuSans-32"/>
       <use x="254.492188" xlink:href="#DejaVuSans-2d"/>
       <use x="290.576172" xlink:href="#DejaVuSans-30"/>
       <use x="354.199219" xlink:href="#DejaVuSans-32"/>
      </g>
     </g>
    </g>
    <g id="xtick_7">
     <g id="line2d_7">
      <g>
       <use style="stroke:#000000;stroke-width:0.8;" x="352.947495" xlink:href="#med20793d90" y="276.48"/>
      </g>
     </g>
     <g id="text_7">
      <!-- 2022-03 -->
      <g transform="translate(315.722674 310.951846)rotate(-30)scale(0.1 -0.1)">
       <defs>
        <path d="M 2597 2516 
Q 3050 2419 3304 2112 
Q 3559 1806 3559 1356 
Q 3559 666 3084 287 
Q 2609 -91 1734 -91 
Q 1441 -91 1130 -33 
Q 819 25 488 141 
L 488 750 
Q 750 597 1062 519 
Q 1375 441 1716 441 
Q 2309 441 2620 675 
Q 2931 909 2931 1356 
Q 2931 1769 2642 2001 
Q 2353 2234 1838 2234 
L 1294 2234 
L 1294 2753 
L 1863 2753 
Q 2328 2753 2575 2939 
Q 2822 3125 2822 3475 
Q 2822 3834 2567 4026 
Q 2313 4219 1838 4219 
Q 1578 4219 1281 4162 
Q 984 4106 628 3988 
L 628 4550 
Q 988 4650 1302 4700 
Q 1616 4750 1894 4750 
Q 2613 4750 3031 4423 
Q 3450 4097 3450 3541 
Q 3450 3153 3228 2886 
Q 3006 2619 2597 2516 
z
" id="DejaVuSans-33" transform="scale(0.015625)"/>
       </defs>
       <use xlink:href="#DejaVuSans-32"/>
       <use x="63.623047" xlink:href="#DejaVuSans-30"/>
       <use x="127.246094" xlink:href="#DejaVuSans-32"/>
       <use x="190.869141" xlink:href="#DejaVuSans-32"/>
       <use x="254.492188" xlink:href="#DejaVuSans-2d"/>
       <use x="290.576172" xlink:href="#DejaVuSans-30"/>
       <use x="354.199219" xlink:href="#DejaVuSans-33"/>
      </g>
     </g>
    </g>
    <g id="xtick_8">
     <g id="line2d_8">
      <g>
       <use style="stroke:#000000;stroke-width:0.8;" x="398.487273" xlink:href="#med20793d90" y="276.48"/>
      </g>
     </g>
     <g id="text_8">
      <!-- 2022-04 -->
      <g transform="translate(361.262452 310.951846)rotate(-30)scale(0.1 -0.1)">
       <defs>
        <path d="M 2419 4116 
L 825 1625 
L 2419 1625 
L 2419 4116 
z
M 2253 4666 
L 3047 4666 
L 3047 1625 
L 3713 1625 
L 3713 1100 
L 3047 1100 
L 3047 0 
L 2419 0 
L 2419 1100 
L 313 1100 
L 313 1709 
L 2253 4666 
z
" id="DejaVuSans-34" transform="scale(0.015625)"/>
       </defs>
       <use xlink:href="#DejaVuSans-32"/>
       <use x="63.623047" xlink:href="#DejaVuSans-30"/>
       <use x="127.246094" xlink:href="#DejaVuSans-32"/>
       <use x="190.869141" xlink:href="#DejaVuSans-32"/>
       <use x="254.492188" xlink:href="#DejaVuSans-2d"/>
       <use x="290.576172" xlink:href="#DejaVuSans-30"/>
       <use x="354.199219" xlink:href="#DejaVuSans-34"/>
      </g>
     </g>
    </g>
    <g id="text_9">
     <!-- date -->
     <g transform="translate(224.885 324.351346)scale(0.1 -0.1)">
      <defs>
       <path d="M 2906 2969 
L 2906 4863 
L 3481 4863 
L 3481 0 
L 2906 0 
L 2906 525 
Q 2725 213 2448 61 
Q 2172 -91 1784 -91 
Q 1150 -91 751 415 
Q 353 922 353 1747 
Q 353 2572 751 3078 
Q 1150 3584 1784 3584 
Q 2172 3584 2448 3432 
Q 2725 3281 2906 2969 
z
M 947 1747 
Q 947 1113 1208 752 
Q 1469 391 1925 391 
Q 2381 391 2643 752 
Q 2906 1113 2906 1747 
Q 2906 2381 2643 2742 
Q 2381 3103 1925 3103 
Q 1469 3103 1208 2742 
Q 947 2381 947 1747 
z
" id="DejaVuSans-64" transform="scale(0.015625)"/>
       <path d="M 2194 1759 
Q 1497 1759 1228 1600 
Q 959 1441 959 1056 
Q 959 750 1161 570 
Q 1363 391 1709 391 
Q 2188 391 2477 730 
Q 2766 1069 2766 1631 
L 2766 1759 
L 2194 1759 
z
M 3341 1997 
L 3341 0 
L 2766 0 
L 2766 531 
Q 2569 213 2275 61 
Q 1981 -91 1556 -91 
Q 1019 -91 701 211 
Q 384 513 384 1019 
Q 384 1609 779 1909 
Q 1175 2209 1959 2209 
L 2766 2209 
L 2766 2266 
Q 2766 2663 2505 2880 
Q 2244 3097 1772 3097 
Q 1472 3097 1187 3025 
Q 903 2953 641 2809 
L 641 3341 
Q 956 3463 1253 3523 
Q 1550 3584 1831 3584 
Q 2591 3584 2966 3190 
Q 3341 2797 3341 1997 
z
" id="DejaVuSans-61" transform="scale(0.015625)"/>
       <path d="M 1172 4494 
L 1172 3500 
L 2356 3500 
L 2356 3053 
L 1172 3053 
L 1172 1153 
Q 1172 725 1289 603 
Q 1406 481 1766 481 
L 2356 481 
L 2356 0 
L 1766 0 
Q 1100 0 847 248 
Q 594 497 594 1153 
L 594 3053 
L 172 3053 
L 172 3500 
L 594 3500 
L 594 4494 
L 1172 4494 
z
" id="DejaVuSans-74" transform="scale(0.015625)"/>
       <path d="M 3597 1894 
L 3597 1613 
L 953 1613 
Q 991 1019 1311 708 
Q 1631 397 2203 397 
Q 2534 397 2845 478 
Q 3156 559 3463 722 
L 3463 178 
Q 3153 47 2828 -22 
Q 2503 -91 2169 -91 
Q 1331 -91 842 396 
Q 353 884 353 1716 
Q 353 2575 817 3079 
Q 1281 3584 2069 3584 
Q 2775 3584 3186 3129 
Q 3597 2675 3597 1894 
z
M 3022 2063 
Q 3016 2534 2758 2815 
Q 2500 3097 2075 3097 
Q 1594 3097 1305 2825 
Q 1016 2553 972 2059 
L 3022 2063 
z
" id="DejaVuSans-65" transform="scale(0.015625)"/>
      </defs>
      <use xlink:href="#DejaVuSans-64"/>
      <use x="63.476562" xlink:href="#DejaVuSans-61"/>
      <use x="124.755859" xlink:href="#DejaVuSans-74"/>
      <use x="163.964844" xlink:href="#DejaVuSans-65"/>
     </g>
    </g>
   </g>
   <g id="matplotlib.axis_2">
    <g id="ytick_1">
     <g id="line2d_9">
      <defs>
       <path d="M 0 0 
L -3.5 0 
" id="mff089e4e29" style="stroke:#000000;stroke-width:0.8;"/>
      </defs>
      <g>
       <use style="stroke:#000000;stroke-width:0.8;" x="57.6" xlink:href="#mff089e4e29" y="269.654291"/>
      </g>
     </g>
     <g id="text_10">
      <!-- 80000 -->
      <g transform="translate(18.7875 273.45351)scale(0.1 -0.1)">
       <defs>
        <path d="M 2034 2216 
Q 1584 2216 1326 1975 
Q 1069 1734 1069 1313 
Q 1069 891 1326 650 
Q 1584 409 2034 409 
Q 2484 409 2743 651 
Q 3003 894 3003 1313 
Q 3003 1734 2745 1975 
Q 2488 2216 2034 2216 
z
M 1403 2484 
Q 997 2584 770 2862 
Q 544 3141 544 3541 
Q 544 4100 942 4425 
Q 1341 4750 2034 4750 
Q 2731 4750 3128 4425 
Q 3525 4100 3525 3541 
Q 3525 3141 3298 2862 
Q 3072 2584 2669 2484 
Q 3125 2378 3379 2068 
Q 3634 1759 3634 1313 
Q 3634 634 3220 271 
Q 2806 -91 2034 -91 
Q 1263 -91 848 271 
Q 434 634 434 1313 
Q 434 1759 690 2068 
Q 947 2378 1403 2484 
z
M 1172 3481 
Q 1172 3119 1398 2916 
Q 1625 2713 2034 2713 
Q 2441 2713 2670 2916 
Q 2900 3119 2900 3481 
Q 2900 3844 2670 4047 
Q 2441 4250 2034 4250 
Q 1625 4250 1398 4047 
Q 1172 3844 1172 3481 
z
" id="DejaVuSans-38" transform="scale(0.015625)"/>
       </defs>
       <use xlink:href="#DejaVuSans-38"/>
       <use x="63.623047" xlink:href="#DejaVuSans-30"/>
       <use x="127.246094" xlink:href="#DejaVuSans-30"/>
       <use x="190.869141" xlink:href="#DejaVuSans-30"/>
       <use x="254.492188" xlink:href="#DejaVuSans-30"/>
      </g>
     </g>
    </g>
    <g id="ytick_2">
     <g id="line2d_10">
      <g>
       <use style="stroke:#000000;stroke-width:0.8;" x="57.6" xlink:href="#mff089e4e29" y="239.55987"/>
      </g>
     </g>
     <g id="text_11">
      <!-- 85000 -->
      <g transform="translate(18.7875 243.359089)scale(0.1 -0.1)">
       <defs>
        <path d="M 691 4666 
L 3169 4666 
L 3169 4134 
L 1269 4134 
L 1269 2991 
Q 1406 3038 1543 3061 
Q 1681 3084 1819 3084 
Q 2600 3084 3056 2656 
Q 3513 2228 3513 1497 
Q 3513 744 3044 326 
Q 2575 -91 1722 -91 
Q 1428 -91 1123 -41 
Q 819 9 494 109 
L 494 744 
Q 775 591 1075 516 
Q 1375 441 1709 441 
Q 2250 441 2565 725 
Q 2881 1009 2881 1497 
Q 2881 1984 2565 2268 
Q 2250 2553 1709 2553 
Q 1456 2553 1204 2497 
Q 953 2441 691 2322 
L 691 4666 
z
" id="DejaVuSans-35" transform="scale(0.015625)"/>
       </defs>
       <use xlink:href="#DejaVuSans-38"/>
       <use x="63.623047" xlink:href="#DejaVuSans-35"/>
       <use x="127.246094" xlink:href="#DejaVuSans-30"/>
       <use x="190.869141" xlink:href="#DejaVuSans-30"/>
       <use x="254.492188" xlink:href="#DejaVuSans-30"/>
      </g>
     </g>
    </g>
    <g id="ytick_3">
     <g id="line2d_11">
      <g>
       <use style="stroke:#000000;stroke-width:0.8;" x="57.6" xlink:href="#mff089e4e29" y="209.465449"/>
      </g>
     </g>
     <g id="text_12">
      <!-- 90000 -->
      <g transform="translate(18.7875 213.264668)scale(0.1 -0.1)">
       <use xlink:href="#DejaVuSans-39"/>
       <use x="63.623047" xlink:href="#DejaVuSans-30"/>
       <use x="127.246094" xlink:href="#DejaVuSans-30"/>
       <use x="190.869141" xlink:href="#DejaVuSans-30"/>
       <use x="254.492188" xlink:href="#DejaVuSans-30"/>
      </g>
     </g>
    </g>
    <g id="ytick_4">
     <g id="line2d_12">
      <g>
       <use style="stroke:#000000;stroke-width:0.8;" x="57.6" xlink:href="#mff089e4e29" y="179.371028"/>
      </g>
     </g>
     <g id="text_13">
      <!-- 95000 -->
      <g transform="translate(18.7875 183.170247)scale(0.1 -0.1)">
       <use xlink:href="#DejaVuSans-39"/>
       <use x="63.623047" xlink:href="#DejaVuSans-35"/>
       <use x="127.246094" xlink:href="#DejaVuSans-30"/>
       <use x="190.869141" xlink:href="#DejaVuSans-30"/>
       <use x="254.492188" xlink:href="#DejaVuSans-30"/>
      </g>
     </g>
    </g>
    <g id="ytick_5">
     <g id="line2d_13">
      <g>
       <use style="stroke:#000000;stroke-width:0.8;" x="57.6" xlink:href="#mff089e4e29" y="149.276607"/>
      </g>
     </g>
     <g id="text_14">
      <!-- 100000 -->
      <g transform="translate(12.425 153.075826)scale(0.1 -0.1)">
       <use xlink:href="#DejaVuSans-31"/>
       <use x="63.623047" xlink:href="#DejaVuSans-30"/>
       <use x="127.246094" xlink:href="#DejaVuSans-30"/>
       <use x="190.869141" xlink:href="#DejaVuSans-30"/>
       <use x="254.492188" xlink:href="#DejaVuSans-30"/>
       <use x="318.115234" xlink:href="#DejaVuSans-30"/>
      </g>
     </g>
    </g>
    <g id="ytick_6">
     <g id="line2d_14">
      <g>
       <use style="stroke:#000000;stroke-width:0.8;" x="57.6" xlink:href="#mff089e4e29" y="119.182186"/>
      </g>
     </g>
     <g id="text_15">
      <!-- 105000 -->
      <g transform="translate(12.425 122.981405)scale(0.1 -0.1)">
       <use xlink:href="#DejaVuSans-31"/>
       <use x="63.623047" xlink:href="#DejaVuSans-30"/>
       <use x="127.246094" xlink:href="#DejaVuSans-35"/>
       <use x="190.869141" xlink:href="#DejaVuSans-30"/>
       <use x="254.492188" xlink:href="#DejaVuSans-30"/>
       <use x="318.115234" xlink:href="#DejaVuSans-30"/>
      </g>
     </g>
    </g>
    <g id="ytick_7">
     <g id="line2d_15">
      <g>
       <use style="stroke:#000000;stroke-width:0.8;" x="57.6" xlink:href="#mff089e4e29" y="89.087765"/>
      </g>
     </g>
     <g id="text_16">
      <!-- 110000 -->
      <g transform="translate(12.425 92.886984)scale(0.1 -0.1)">
       <use xlink:href="#DejaVuSans-31"/>
       <use x="63.623047" xlink:href="#DejaVuSans-31"/>
       <use x="127.246094" xlink:href="#DejaVuSans-30"/>
       <use x="190.869141" xlink:href="#DejaVuSans-30"/>
       <use x="254.492188" xlink:href="#DejaVuSans-30"/>
       <use x="318.115234" xlink:href="#DejaVuSans-30"/>
      </g>
     </g>
    </g>
    <g id="ytick_8">
     <g id="line2d_16">
      <g>
       <use style="stroke:#000000;stroke-width:0.8;" x="57.6" xlink:href="#mff089e4e29" y="58.993344"/>
      </g>
     </g>
     <g id="text_17">
      <!-- 115000 -->
      <g transform="translate(12.425 62.792563)scale(0.1 -0.1)">
       <use xlink:href="#DejaVuSans-31"/>
       <use x="63.623047" xlink:href="#DejaVuSans-31"/>
       <use x="127.246094" xlink:href="#DejaVuSans-35"/>
       <use x="190.869141" xlink:href="#DejaVuSans-30"/>
       <use x="254.492188" xlink:href="#DejaVuSans-30"/>
       <use x="318.115234" xlink:href="#DejaVuSans-30"/>
      </g>
     </g>
    </g>
   </g>
   <g id="line2d_17">
    <path clip-path="url(#pc38f599b21)" d="M 73.832727 149.276607 
L 75.301752 149.435669 
L 76.770777 146.873552 
L 78.239803 150.403473 
L 79.708828 144.65659 
L 84.115903 141.175492 
L 85.584928 139.742684 
L 87.053953 141.594073 
L 88.522978 140.881247 
L 89.992003 141.092255 
L 95.868104 141.114011 
L 98.806154 144.836546 
L 100.275179 149.960545 
L 104.682254 145.274413 
L 106.151279 153.986232 
L 107.620304 150.120755 
L 109.089329 151.466286 
L 110.558355 157.781047 
L 114.96543 168.175369 
L 116.434455 169.41686 
L 117.90348 165.191704 
L 119.372505 155.685414 
L 120.84153 150.578815 
L 125.248606 145.808147 
L 126.717631 158.526344 
L 128.186656 156.51612 
L 129.655681 161.605295 
L 131.124706 152.206817 
L 135.531781 163.391646 
L 137.000806 154.832654 
L 138.469831 152.379185 
L 139.938856 152.059511 
L 141.407882 151.329472 
L 145.814957 150.7063 
L 147.283982 149.969298 
L 148.753007 157.442121 
L 150.222032 145.968916 
L 151.691057 145.177339 
L 156.098132 139.903283 
L 157.567158 134.223777 
L 159.036183 131.767777 
L 160.505208 142.122371 
L 161.974233 149.917089 
L 166.381308 149.390237 
L 167.850333 154.552023 
L 169.319358 156.244886 
L 170.788383 148.371263 
L 172.257408 156.369419 
L 176.664484 144.059486 
L 178.133509 144.23891 
L 179.602534 138.207676 
L 181.071559 145.483366 
L 182.540584 141.727661 
L 186.947659 141.124968 
L 188.416684 148.664524 
L 189.88571 148.549735 
L 191.354735 153.186592 
L 192.82376 148.843341 
L 197.230835 146.730775 
L 198.69986 146.875746 
L 200.168885 149.927151 
L 201.63791 151.433839 
L 203.106935 151.700912 
L 207.514011 148.250764 
L 208.983036 143.366936 
L 210.452061 143.964698 
L 213.390111 143.676145 
L 217.797186 149.316397 
L 219.266211 160.684122 
L 220.735237 168.693975 
L 222.204262 161.233735 
L 223.673287 165.256587 
L 228.080362 154.446995 
L 229.549387 143.824505 
L 231.018412 138.711093 
L 232.487437 138.449778 
L 233.956462 136.656286 
L 238.363538 142.647035 
L 241.301588 136.278175 
L 242.770613 133.717789 
L 244.239638 140.616408 
L 248.646713 149.346225 
L 250.115738 134.980827 
L 251.584763 132.21468 
L 253.053789 126.746308 
L 258.929889 118.696521 
L 260.398914 119.109614 
L 261.867939 118.984176 
L 263.336964 120.058587 
L 264.805989 123.058133 
L 269.213065 113.152437 
L 270.68209 104.89031 
L 272.151115 121.668336 
L 273.62014 116.420265 
L 275.089165 114.020101 
L 279.49624 113.614057 
L 280.965265 108.421441 
L 282.43429 107.165347 
L 283.903316 114.541096 
L 285.372341 112.963752 
L 292.717466 129.760731 
L 294.186491 136.646544 
L 295.655516 150.799307 
L 300.062592 150.042173 
L 301.531617 157.029975 
L 303.000642 157.222489 
L 304.469667 161.126415 
L 305.938692 145.956318 
L 310.345767 132.970564 
L 311.814792 126.862131 
L 313.283817 117.617154 
L 314.752842 157.85686 
L 316.221868 157.676315 
L 320.628943 168.220294 
L 322.097968 169.37202 
L 323.566993 156.188222 
L 325.036018 166.80681 
L 326.505043 180.30445 
L 330.912118 184.43892 
L 332.381144 177.00763 
L 333.850169 180.209806 
L 335.319194 190.780968 
L 336.788219 194.074833 
L 342.664319 200.031021 
L 344.133344 207.720661 
L 345.602369 195.845951 
L 347.071394 185.536036 
L 351.47847 187.667902 
L 352.947495 196.418845 
L 354.41652 184.559955 
L 355.885545 186.768529 
L 357.35457 191.028583 
L 361.761645 213.914698 
L 363.230671 214.317437 
L 364.699696 191.980214 
L 366.168721 199.155272 
L 367.637746 208.713088 
L 372.044821 210.661441 
L 373.513846 199.565342 
L 374.982871 182.201664 
L 376.451896 175.551296 
L 377.920921 165.676819 
L 382.327997 168.113952 
L 383.797022 156.849871 
L 385.266047 163.000506 
L 386.735072 152.823308 
L 388.204097 146.984127 
L 392.611172 145.030115 
L 394.080197 139.561102 
L 395.549223 141.909462 
L 397.018248 155.45877 
L 398.487273 161.193573 
L 398.487273 161.193573 
" style="fill:none;stroke:#0000ff;stroke-linecap:square;stroke-opacity:0.9;stroke-width:2;"/>
   </g>
   <g id="line2d_18">
    <path clip-path="url(#pc38f599b21)" d="M 73.832727 149.276607 
L 76.770777 143.302648 
L 78.239803 146.836753 
L 79.708828 139.688122 
L 84.115903 137.935347 
L 85.584928 136.623244 
L 87.053953 136.829141 
L 88.522978 138.045467 
L 89.992003 137.496975 
L 95.868104 136.392445 
L 97.337129 138.900523 
L 98.806154 140.027993 
L 100.275179 146.520881 
L 104.682254 142.001911 
L 106.151279 147.926622 
L 107.620304 145.375907 
L 109.089329 146.772433 
L 110.558355 154.278742 
L 114.96543 164.311402 
L 116.434455 164.508538 
L 117.90348 160.678703 
L 119.372505 153.284176 
L 120.84153 148.582582 
L 125.248606 144.583527 
L 126.717631 156.91843 
L 128.186656 156.230982 
L 129.655681 161.806535 
L 131.124706 153.357252 
L 135.531781 159.530077 
L 137.000806 150.993678 
L 138.469831 149.613359 
L 139.938856 147.935166 
L 141.407882 144.992713 
L 145.814957 148.400716 
L 147.283982 153.570542 
L 148.753007 154.81915 
L 150.222032 140.652467 
L 151.691057 136.028264 
L 156.098132 134.476415 
L 157.567158 129.614451 
L 159.036183 126.281677 
L 160.505208 133.925699 
L 161.974233 137.261914 
L 166.381308 139.250652 
L 167.850333 142.169861 
L 169.319358 145.939463 
L 170.788383 137.3968 
L 172.257408 136.270302 
L 176.664484 135.836283 
L 178.133509 133.374933 
L 179.602534 128.715311 
L 181.071559 129.943977 
L 182.540584 129.887175 
L 186.947659 129.337798 
L 188.416684 134.279208 
L 189.88571 137.260674 
L 191.354735 137.402366 
L 192.82376 133.41422 
L 197.230835 131.594536 
L 198.69986 133.063418 
L 200.168885 133.381459 
L 201.63791 133.87671 
L 203.106935 135.720335 
L 207.514011 133.287097 
L 208.983036 127.02385 
L 210.452061 127.21824 
L 213.390111 143.112009 
L 217.797186 135.995795 
L 219.266211 149.194432 
L 220.735237 156.215514 
L 222.204262 147.944374 
L 223.673287 153.001484 
L 228.080362 143.4777 
L 229.549387 133.538708 
L 231.018412 129.628316 
L 232.487437 130.083382 
L 233.956462 126.366781 
L 238.363538 132.430271 
L 239.832563 132.208942 
L 241.301588 127.448058 
L 242.770613 127.147547 
L 244.239638 135.48002 
L 248.646713 142.070469 
L 250.115738 130.724944 
L 251.584763 127.205441 
L 253.053789 121.708355 
L 258.929889 113.846274 
L 260.398914 114.163834 
L 261.867939 113.317451 
L 263.336964 114.770003 
L 264.805989 116.941125 
L 269.213065 110.173305 
L 270.68209 103.89707 
L 272.151115 117.918373 
L 273.62014 115.230371 
L 275.089165 112.136708 
L 279.49624 112.430638 
L 280.965265 108.915828 
L 282.43429 108.553739 
L 283.903316 113.477882 
L 285.372341 113.70779 
L 291.248441 127.653243 
L 294.186491 139.650287 
L 295.655516 152.378135 
L 300.062592 152.8997 
L 301.531617 151.966377 
L 303.000642 152.478643 
L 304.469667 157.772139 
L 305.938692 143.638326 
L 310.345767 134.309155 
L 311.814792 126.678527 
L 313.283817 116.766103 
L 314.752842 145.128118 
L 316.221868 140.298062 
L 320.628943 144.1329 
L 322.097968 139.963733 
L 323.566993 134.295421 
L 325.036018 144.447074 
L 326.505043 157.104652 
L 330.912118 162.751794 
L 332.381144 155.554084 
L 333.850169 156.892543 
L 335.319194 168.699425 
L 336.788219 171.262296 
L 342.664319 176.776935 
L 344.133344 184.584668 
L 345.602369 181.209495 
L 347.071394 167.365586 
L 351.47847 173.605097 
L 352.947495 185.096441 
L 354.41652 171.781412 
L 355.885545 172.931118 
L 357.35457 180.994045 
L 361.761645 201.528817 
L 363.230671 204.408186 
L 364.699696 183.957197 
L 366.168721 191.367668 
L 367.637746 197.369795 
L 372.044821 198.041015 
L 373.513846 188.642634 
L 374.982871 175.713645 
L 376.451896 170.06038 
L 377.920921 163.928365 
L 382.327997 164.041713 
L 383.797022 154.2921 
L 385.266047 159.812316 
L 386.735072 151.246098 
L 388.204097 144.677181 
L 392.611172 143.934333 
L 394.080197 140.8867 
L 395.549223 141.884458 
L 397.018248 153.120271 
L 398.487273 150.524273 
L 398.487273 150.524273 
" style="fill:none;stroke:#ff0000;stroke-linecap:square;stroke-opacity:0.9;stroke-width:2;"/>
   </g>
   <g id="line2d_19">
    <path clip-path="url(#pc38f599b21)" d="M 73.832727 149.276607 
L 75.301752 145.861789 
L 76.770777 143.369815 
L 78.239803 146.947539 
L 79.708828 141.339094 
L 84.115903 137.2234 
L 85.584928 136.04474 
L 87.053953 137.918499 
L 88.522978 136.809574 
L 89.992003 137.303514 
L 95.868104 137.513396 
L 97.337129 139.113674 
L 98.806154 140.960369 
L 100.275179 146.54931 
L 104.682254 141.339242 
L 106.151279 149.774381 
L 107.620304 146.354124 
L 109.089329 147.440204 
L 110.558355 153.388158 
L 114.96543 163.797584 
L 116.434455 165.001757 
L 117.90348 160.696262 
L 119.372505 151.226995 
L 120.84153 145.882848 
L 125.248606 140.741227 
L 126.717631 153.828669 
L 128.186656 151.464996 
L 129.655681 156.276851 
L 131.124706 146.941768 
L 135.531781 157.869828 
L 137.000806 149.035788 
L 138.469831 146.744487 
L 141.407882 142.750899 
L 145.814957 146.207315 
L 147.283982 150.649922 
L 148.753007 152.03995 
L 150.222032 139.923218 
L 151.691057 138.958354 
L 156.098132 134.036894 
L 157.567158 128.06947 
L 159.036183 125.381996 
L 160.505208 135.667476 
L 161.974233 143.389404 
L 166.381308 142.782828 
L 167.850333 148.275884 
L 169.319358 149.66907 
L 170.788383 141.959197 
L 172.257408 141.024226 
L 176.664484 137.48743 
L 178.133509 136.452233 
L 179.602534 131.810665 
L 181.071559 131.443584 
L 182.540584 126.955593 
L 186.947659 126.409575 
L 188.416684 134.340758 
L 189.88571 138.71419 
L 191.354735 138.896915 
L 192.82376 134.55499 
L 197.230835 132.605053 
L 198.69986 135.142421 
L 200.168885 135.467154 
L 201.63791 137.020586 
L 203.106935 137.587892 
L 207.514011 133.80845 
L 208.983036 128.333494 
L 210.452061 129.149159 
L 213.390111 143.128779 
L 217.797186 135.121675 
L 219.266211 146.95138 
L 220.735237 155.51515 
L 222.204262 148.53234 
L 223.673287 151.916198 
L 228.080362 141.033257 
L 229.549387 130.181131 
L 231.018412 125.057928 
L 232.487437 124.653789 
L 233.956462 122.403758 
L 238.363538 128.601213 
L 239.832563 125.675144 
L 241.301588 121.816288 
L 242.770613 119.464514 
L 244.239638 126.969455 
L 248.646713 135.463676 
L 250.115738 120.677476 
L 251.584763 118.390597 
L 253.053789 112.032389 
L 258.929889 104.292515 
L 260.398914 104.677195 
L 261.867939 104.427688 
L 263.336964 105.206763 
L 264.805989 108.550233 
L 269.213065 98.72589 
L 270.68209 90.657941 
L 272.151115 107.564182 
L 273.62014 100.712513 
L 275.089165 98.550034 
L 279.49624 97.431695 
L 280.965265 91.466542 
L 282.43429 89.636828 
L 283.903316 97.800614 
L 285.372341 95.765724 
L 292.717466 113.288417 
L 294.186491 120.098866 
L 295.655516 135.200913 
L 300.062592 133.665014 
L 301.531617 141.387794 
L 303.000642 141.125387 
L 304.469667 145.125181 
L 305.938692 129.377741 
L 310.345767 116.212938 
L 311.814792 109.733497 
L 313.283817 99.407553 
L 314.752842 142.731704 
L 316.221868 142.489232 
L 320.628943 152.516325 
L 322.097968 153.801409 
L 323.566993 140.705787 
L 325.036018 151.305797 
L 326.505043 165.213106 
L 330.912118 168.85302 
L 332.381144 161.700157 
L 333.850169 164.692178 
L 335.319194 176.026411 
L 336.788219 179.4116 
L 342.664319 184.892974 
L 344.133344 192.986563 
L 345.602369 180.094876 
L 347.071394 169.406064 
L 351.47847 171.16345 
L 352.947495 180.02961 
L 354.41652 168.451503 
L 355.885545 171.34224 
L 357.35457 179.750045 
L 361.761645 203.835124 
L 363.230671 201.532085 
L 364.699696 177.425688 
L 367.637746 194.784308 
L 372.044821 195.655324 
L 373.513846 184.632797 
L 374.982871 165.396861 
L 376.451896 159.024436 
L 377.920921 150.102956 
L 382.327997 152.110886 
L 383.797022 139.753162 
L 385.266047 146.595783 
L 386.735072 137.581353 
L 388.204097 130.625985 
L 392.611172 130.018495 
L 394.080197 125.623141 
L 395.549223 128.448188 
L 397.018248 143.994002 
L 398.487273 142.62275 
L 398.487273 142.62275 
" style="fill:none;stroke:#ff8040;stroke-linecap:square;stroke-opacity:0.9;stroke-width:2;"/>
   </g>
   <g id="line2d_20">
    <path clip-path="url(#pc38f599b21)" d="M 73.832727 149.878496 
L 75.301752 148.201293 
L 76.770777 146.776163 
L 78.239803 151.629863 
L 79.708828 145.006662 
L 84.115903 144.617268 
L 85.584928 144.216309 
L 87.053953 145.223887 
L 88.522978 147.771047 
L 89.992003 147.409785 
L 95.868104 148.568993 
L 98.806154 151.157955 
L 100.275179 158.837509 
L 104.682254 155.246873 
L 106.151279 160.444395 
L 107.620304 158.135366 
L 109.089329 160.546359 
L 110.558355 169.390169 
L 114.96543 179.967115 
L 116.434455 180.12109 
L 117.90348 176.899339 
L 119.372505 168.707113 
L 120.84153 165.848742 
L 125.248606 163.805908 
L 126.717631 175.417071 
L 128.186656 176.213812 
L 129.655681 182.731248 
L 131.124706 175.400133 
L 135.531781 182.528558 
L 137.000806 177.745589 
L 138.469831 176.744291 
L 141.407882 172.223348 
L 145.814957 177.093788 
L 147.283982 180.252367 
L 148.753007 181.788404 
L 150.222032 168.716877 
L 151.691057 163.98257 
L 156.098132 164.814797 
L 157.567158 160.937365 
L 159.036183 155.764887 
L 160.505208 160.991719 
L 161.974233 164.206556 
L 166.381308 165.945702 
L 167.850333 170.040029 
L 169.319358 175.240734 
L 170.788383 167.425657 
L 172.257408 167.514901 
L 176.664484 166.046885 
L 178.133509 164.784646 
L 179.602534 160.08769 
L 181.071559 161.843106 
L 182.540584 162.661954 
L 186.947659 161.44271 
L 188.416684 166.798102 
L 189.88571 170.708395 
L 191.354735 170.307752 
L 192.82376 167.975058 
L 197.230835 166.196211 
L 198.69986 167.749277 
L 200.168885 167.96079 
L 201.63791 170.038832 
L 203.106935 170.299113 
L 207.514011 168.901666 
L 208.983036 165.178954 
L 210.452061 164.576424 
L 213.390111 180.211556 
L 217.797186 171.368399 
L 219.266211 180.275183 
L 220.735237 186.783863 
L 222.204262 183.462508 
L 223.673287 187.592997 
L 228.080362 179.757211 
L 229.549387 167.958319 
L 231.018412 164.253789 
L 232.487437 164.623656 
L 233.956462 162.060687 
L 238.363538 169.768392 
L 239.832563 169.529517 
L 241.301588 160.929448 
L 242.770613 161.124386 
L 244.239638 168.496825 
L 248.646713 176.524396 
L 250.115738 164.132545 
L 251.584763 161.9866 
L 253.053789 156.018045 
L 258.929889 149.650665 
L 260.398914 149.626617 
L 261.867939 148.895639 
L 263.336964 149.230211 
L 264.805989 152.154805 
L 269.213065 150.962291 
L 270.68209 146.084161 
L 272.151115 157.191 
L 273.62014 160.779964 
L 275.089165 160.813543 
L 279.49624 161.490897 
L 280.965265 159.377785 
L 282.43429 159.885224 
L 283.903316 164.131777 
L 285.372341 166.460196 
L 291.248441 180.836948 
L 292.717466 186.848576 
L 294.186491 192.2176 
L 295.655516 205.689239 
L 300.062592 204.284154 
L 301.531617 202.219832 
L 303.000642 201.397215 
L 304.469667 205.391546 
L 305.938692 189.977982 
L 310.345767 181.278225 
L 311.814792 173.398108 
L 313.283817 163.548417 
L 314.752842 206.970343 
L 316.221868 201.537523 
L 320.628943 208.160792 
L 322.097968 207.614745 
L 323.566993 202.077007 
L 325.036018 210.117987 
L 326.505043 223.635044 
L 330.912118 225.811214 
L 332.381144 219.619001 
L 333.850169 222.767974 
L 335.319194 230.766 
L 336.788219 233.056456 
L 342.664319 237.423708 
L 344.133344 244.694705 
L 345.602369 238.823411 
L 347.071394 225.898767 
L 351.47847 230.217058 
L 352.947495 239.754902 
L 354.41652 227.225656 
L 355.885545 228.871653 
L 357.35457 239.72479 
L 361.761645 265.135162 
L 363.230671 265.797818 
L 364.699696 244.111011 
L 366.168721 251.927216 
L 367.637746 256.421467 
L 372.044821 251.769213 
L 373.513846 242.752925 
L 374.982871 231.795141 
L 376.451896 227.39329 
L 377.920921 221.894396 
L 382.327997 223.11567 
L 383.797022 212.773967 
L 385.266047 219.379467 
L 386.735072 208.196363 
L 388.204097 202.075611 
L 392.611172 201.889379 
L 394.080197 199.333328 
L 395.549223 200.600455 
L 397.018248 212.122361 
L 398.487273 209.148656 
L 398.487273 209.148656 
" style="fill:none;stroke:#0d0d0d;stroke-linecap:square;stroke-opacity:0.25;stroke-width:2;"/>
   </g>
   <g id="line2d_21">
    <path clip-path="url(#pc38f599b21)" d="M 73.832727 148.674719 
L 75.301752 143.80993 
L 76.770777 140.212568 
L 78.239803 142.457566 
L 79.708828 135.130268 
L 84.115903 127.778432 
L 85.584928 126.810848 
L 88.522978 128.234341 
L 89.992003 128.092989 
L 95.868104 126.670652 
L 97.337129 128.75109 
L 98.806154 129.303917 
L 100.275179 136.571545 
L 104.682254 132.164248 
L 106.151279 137.460142 
L 107.620304 134.165483 
L 109.089329 135.01851 
L 110.558355 143.936843 
L 114.96543 151.97701 
L 116.434455 150.927042 
L 117.90348 145.846474 
L 119.372505 139.180208 
L 120.84153 134.522886 
L 125.248606 129.097267 
L 126.717631 141.21136 
L 128.186656 139.152438 
L 129.655681 144.067324 
L 131.124706 133.844442 
L 135.531781 138.475276 
L 137.000806 128.903548 
L 138.469831 126.951486 
L 139.938856 123.800575 
L 141.407882 121.576703 
L 145.814957 125.76084 
L 147.283982 131.536846 
L 148.753007 134.166196 
L 150.222032 119.749496 
L 151.691057 115.032657 
L 156.098132 111.582335 
L 157.567158 106.485933 
L 159.036183 104.554585 
L 160.505208 110.953036 
L 161.974233 111.491959 
L 166.381308 112.627958 
L 167.850333 114.731658 
L 169.319358 114.547027 
L 170.788383 106.158384 
L 172.257408 101.810407 
L 176.664484 103.097209 
L 179.602534 96.523612 
L 181.071559 98.018233 
L 182.540584 94.960211 
L 186.947659 95.378499 
L 188.416684 100.205656 
L 189.88571 102.899677 
L 191.354735 102.049656 
L 192.82376 95.221529 
L 197.230835 92.473002 
L 198.69986 92.984569 
L 200.168885 93.13845 
L 201.63791 92.744808 
L 203.106935 94.686012 
L 207.514011 90.615312 
L 208.983036 83.289112 
L 210.452061 81.20051 
L 213.390111 100.548272 
L 217.797186 92.355856 
L 219.266211 104.397132 
L 220.735237 111.550874 
L 222.204262 103.822905 
L 223.673287 107.124787 
L 228.080362 95.749233 
L 229.549387 83.518297 
L 231.018412 80.988688 
L 232.487437 81.011971 
L 233.956462 77.324664 
L 238.363538 82.24271 
L 239.832563 79.928729 
L 241.301588 74.257713 
L 242.770613 67.804049 
L 244.239638 81.065182 
L 248.646713 92.287175 
L 250.115738 78.94167 
L 251.584763 76.733706 
L 253.053789 70.500567 
L 258.929889 63.954116 
L 260.398914 64.124595 
L 261.867939 63.303217 
L 263.336964 64.622073 
L 264.805989 68.150782 
L 269.213065 57.817713 
L 270.68209 52.154182 
L 272.151115 70.605143 
L 273.62014 66.359174 
L 275.089165 65.536008 
L 279.49624 65.514573 
L 280.965265 59.912144 
L 282.43429 58.357992 
L 283.903316 62.442453 
L 285.372341 62.451981 
L 291.248441 75.975589 
L 292.717466 84.965831 
L 294.186491 91.310155 
L 295.655516 102.66999 
L 300.062592 104.092729 
L 301.531617 95.342795 
L 303.000642 98.761168 
L 304.469667 107.111854 
L 305.938692 88.042624 
L 310.345767 76.145739 
L 311.814792 68.276764 
L 313.283817 58.29406 
L 314.752842 82.814596 
L 316.221868 81.093553 
L 320.628943 88.036871 
L 322.097968 85.470899 
L 323.566993 75.051229 
L 325.036018 84.352087 
L 326.505043 98.337321 
L 330.912118 103.899219 
L 332.381144 95.171772 
L 333.850169 96.530931 
L 335.319194 111.210645 
L 336.788219 113.9752 
L 342.664319 118.695288 
L 344.133344 130.013469 
L 345.602369 119.550917 
L 347.071394 107.232885 
L 351.47847 113.197178 
L 352.947495 127.483028 
L 354.41652 109.012051 
L 355.885545 110.682419 
L 357.35457 121.924597 
L 361.761645 139.685372 
L 363.230671 140.60117 
L 364.699696 115.010872 
L 366.168721 123.98651 
L 367.637746 131.34604 
L 372.044821 136.414584 
L 373.513846 124.682295 
L 374.982871 105.287234 
L 376.451896 98.753753 
L 377.920921 92.837008 
L 382.327997 92.390032 
L 383.797022 82.311621 
L 385.266047 91.703939 
L 386.735072 82.470306 
L 388.204097 76.141862 
L 392.611172 76.194526 
L 394.080197 71.402813 
L 395.549223 71.596417 
L 397.018248 86.891285 
L 398.487273 82.663638 
L 398.487273 82.663638 
" style="fill:none;stroke:#0d0d0d;stroke-linecap:square;stroke-opacity:0.25;stroke-width:2;"/>
   </g>
   <g id="patch_3">
    <path d="M 57.6 276.48 
L 57.6 41.472 
" style="fill:none;stroke:#000000;stroke-linecap:square;stroke-linejoin:miter;stroke-width:0.8;"/>
   </g>
   <g id="patch_4">
    <path d="M 414.72 276.48 
L 414.72 41.472 
" style="fill:none;stroke:#000000;stroke-linecap:square;stroke-linejoin:miter;stroke-width:0.8;"/>
   </g>
   <g id="patch_5">
    <path d="M 57.6 276.48 
L 414.72 276.48 
" style="fill:none;stroke:#000000;stroke-linecap:square;stroke-linejoin:miter;stroke-width:0.8;"/>
   </g>
   <g id="patch_6">
    <path d="M 57.6 41.472 
L 414.72 41.472 
" style="fill:none;stroke:#000000;stroke-linecap:square;stroke-linejoin:miter;stroke-width:0.8;"/>
   </g>
   <g id="text_18">
    <!-- TESTFUNDS1550 -->
    <g transform="translate(185.200312 22.034625)scale(0.12 -0.12)">
     <defs>
      <path d="M -19 4666 
L 3928 4666 
L 3928 4134 
L 2272 4134 
L 2272 0 
L 1638 0 
L 1638 4134 
L -19 4134 
L -19 4666 
z
" id="DejaVuSans-54" transform="scale(0.015625)"/>
      <path d="M 628 4666 
L 3578 4666 
L 3578 4134 
L 1259 4134 
L 1259 2753 
L 3481 2753 
L 3481 2222 
L 1259 2222 
L 1259 531 
L 3634 531 
L 3634 0 
L 628 0 
L 628 4666 
z
" id="DejaVuSans-45" transform="scale(0.015625)"/>
      <path d="M 3425 4513 
L 3425 3897 
Q 3066 4069 2747 4153 
Q 2428 4238 2131 4238 
Q 1616 4238 1336 4038 
Q 1056 3838 1056 3469 
Q 1056 3159 1242 3001 
Q 1428 2844 1947 2747 
L 2328 2669 
Q 3034 2534 3370 2195 
Q 3706 1856 3706 1288 
Q 3706 609 3251 259 
Q 2797 -91 1919 -91 
Q 1588 -91 1214 -16 
Q 841 59 441 206 
L 441 856 
Q 825 641 1194 531 
Q 1563 422 1919 422 
Q 2459 422 2753 634 
Q 3047 847 3047 1241 
Q 3047 1584 2836 1778 
Q 2625 1972 2144 2069 
L 1759 2144 
Q 1053 2284 737 2584 
Q 422 2884 422 3419 
Q 422 4038 858 4394 
Q 1294 4750 2059 4750 
Q 2388 4750 2728 4690 
Q 3069 4631 3425 4513 
z
" id="DejaVuSans-53" transform="scale(0.015625)"/>
      <path d="M 628 4666 
L 3309 4666 
L 3309 4134 
L 1259 4134 
L 1259 2759 
L 3109 2759 
L 3109 2228 
L 1259 2228 
L 1259 0 
L 628 0 
L 628 4666 
z
" id="DejaVuSans-46" transform="scale(0.015625)"/>
      <path d="M 556 4666 
L 1191 4666 
L 1191 1831 
Q 1191 1081 1462 751 
Q 1734 422 2344 422 
Q 2950 422 3222 751 
Q 3494 1081 3494 1831 
L 3494 4666 
L 4128 4666 
L 4128 1753 
Q 4128 841 3676 375 
Q 3225 -91 2344 -91 
Q 1459 -91 1007 375 
Q 556 841 556 1753 
L 556 4666 
z
" id="DejaVuSans-55" transform="scale(0.015625)"/>
      <path d="M 628 4666 
L 1478 4666 
L 3547 763 
L 3547 4666 
L 4159 4666 
L 4159 0 
L 3309 0 
L 1241 3903 
L 1241 0 
L 628 0 
L 628 4666 
z
" id="DejaVuSans-4e" transform="scale(0.015625)"/>
      <path d="M 1259 4147 
L 1259 519 
L 2022 519 
Q 2988 519 3436 956 
Q 3884 1394 3884 2338 
Q 3884 3275 3436 3711 
Q 2988 4147 2022 4147 
L 1259 4147 
z
M 628 4666 
L 1925 4666 
Q 3281 4666 3915 4102 
Q 4550 3538 4550 2338 
Q 4550 1131 3912 565 
Q 3275 0 1925 0 
L 628 0 
L 628 4666 
z
" id="DejaVuSans-44" transform="scale(0.015625)"/>
     </defs>
     <use xlink:href="#DejaVuSans-54"/>
     <use x="61.083984" xlink:href="#DejaVuSans-45"/>
     <use x="124.267578" xlink:href="#DejaVuSans-53"/>
     <use x="187.744141" xlink:href="#DejaVuSans-54"/>
     <use x="248.828125" xlink:href="#DejaVuSans-46"/>
     <use x="306.347656" xlink:href="#DejaVuSans-55"/>
     <use x="379.541016" xlink:href="#DejaVuSans-4e"/>
     <use x="454.345703" xlink:href="#DejaVuSans-44"/>
     <use x="531.347656" xlink:href="#DejaVuSans-53"/>
     <use x="594.824219" xlink:href="#DejaVuSans-31"/>
     <use x="658.447266" xlink:href="#DejaVuSans-35"/>
     <use x="722.070312" xlink:href="#DejaVuSans-35"/>
     <use x="785.693359" xlink:href="#DejaVuSans-30"/>
    </g>
    <!-- daily_report -->
    <g transform="translate(200.466563 35.472)scale(0.12 -0.12)">
     <defs>
      <path d="M 603 3500 
L 1178 3500 
L 1178 0 
L 603 0 
L 603 3500 
z
M 603 4863 
L 1178 4863 
L 1178 4134 
L 603 4134 
L 603 4863 
z
" id="DejaVuSans-69" transform="scale(0.015625)"/>
      <path d="M 603 4863 
L 1178 4863 
L 1178 0 
L 603 0 
L 603 4863 
z
" id="DejaVuSans-6c" transform="scale(0.015625)"/>
      <path d="M 2059 -325 
Q 1816 -950 1584 -1140 
Q 1353 -1331 966 -1331 
L 506 -1331 
L 506 -850 
L 844 -850 
Q 1081 -850 1212 -737 
Q 1344 -625 1503 -206 
L 1606 56 
L 191 3500 
L 800 3500 
L 1894 763 
L 2988 3500 
L 3597 3500 
L 2059 -325 
z
" id="DejaVuSans-79" transform="scale(0.015625)"/>
      <path d="M 3263 -1063 
L 3263 -1509 
L -63 -1509 
L -63 -1063 
L 3263 -1063 
z
" id="DejaVuSans-5f" transform="scale(0.015625)"/>
      <path d="M 2631 2963 
Q 2534 3019 2420 3045 
Q 2306 3072 2169 3072 
Q 1681 3072 1420 2755 
Q 1159 2438 1159 1844 
L 1159 0 
L 581 0 
L 581 3500 
L 1159 3500 
L 1159 2956 
Q 1341 3275 1631 3429 
Q 1922 3584 2338 3584 
Q 2397 3584 2469 3576 
Q 2541 3569 2628 3553 
L 2631 2963 
z
" id="DejaVuSans-72" transform="scale(0.015625)"/>
      <path d="M 1159 525 
L 1159 -1331 
L 581 -1331 
L 581 3500 
L 1159 3500 
L 1159 2969 
Q 1341 3281 1617 3432 
Q 1894 3584 2278 3584 
Q 2916 3584 3314 3078 
Q 3713 2572 3713 1747 
Q 3713 922 3314 415 
Q 2916 -91 2278 -91 
Q 1894 -91 1617 61 
Q 1341 213 1159 525 
z
M 3116 1747 
Q 3116 2381 2855 2742 
Q 2594 3103 2138 3103 
Q 1681 3103 1420 2742 
Q 1159 2381 1159 1747 
Q 1159 1113 1420 752 
Q 1681 391 2138 391 
Q 2594 391 2855 752 
Q 3116 1113 3116 1747 
z
" id="DejaVuSans-70" transform="scale(0.015625)"/>
      <path d="M 1959 3097 
Q 1497 3097 1228 2736 
Q 959 2375 959 1747 
Q 959 1119 1226 758 
Q 1494 397 1959 397 
Q 2419 397 2687 759 
Q 2956 1122 2956 1747 
Q 2956 2369 2687 2733 
Q 2419 3097 1959 3097 
z
M 1959 3584 
Q 2709 3584 3137 3096 
Q 3566 2609 3566 1747 
Q 3566 888 3137 398 
Q 2709 -91 1959 -91 
Q 1206 -91 779 398 
Q 353 888 353 1747 
Q 353 2609 779 3096 
Q 1206 3584 1959 3584 
z
" id="DejaVuSans-6f" transform="scale(0.015625)"/>
     </defs>
     <use xlink:href="#DejaVuSans-64"/>
     <use x="63.476562" xlink:href="#DejaVuSans-61"/>
     <use x="124.755859" xlink:href="#DejaVuSans-69"/>
     <use x="152.539062" xlink:href="#DejaVuSans-6c"/>
     <use x="180.322266" xlink:href="#DejaVuSans-79"/>
     <use x="239.501953" xlink:href="#DejaVuSans-5f"/>
     <use x="289.501953" xlink:href="#DejaVuSans-72"/>
     <use x="328.365234" xlink:href="#DejaVuSans-65"/>
     <use x="389.888672" xlink:href="#DejaVuSans-70"/>
     <use x="453.365234" xlink:href="#DejaVuSans-6f"/>
     <use x="514.546875" xlink:href="#DejaVuSans-72"/>
     <use x="555.660156" xlink:href="#DejaVuSans-74"/>
    </g>
   </g>
   <g id="legend_1">
    <g id="patch_7">
     <path d="M 64.6 271.48 
L 155.792188 271.48 
Q 157.792188 271.48 157.792188 269.48 
L 157.792188 197.089375 
Q 157.792188 195.089375 155.792188 195.089375 
L 64.6 195.089375 
Q 62.6 195.089375 62.6 197.089375 
L 62.6 269.48 
Q 62.6 271.48 64.6 271.48 
z
" style="fill:#ffffff;opacity:0.8;stroke:#cccccc;stroke-linejoin:miter;"/>
    </g>
    <g id="line2d_22">
     <path d="M 66.6 203.187812 
L 86.6 203.187812 
" style="fill:none;stroke:#0000ff;stroke-linecap:square;stroke-opacity:0.9;stroke-width:2;"/>
    </g>
    <g id="line2d_23"/>
    <g id="text_19">
     <!-- alpaca -->
     <g transform="translate(94.6 206.687812)scale(0.1 -0.1)">
      <defs>
       <path d="M 3122 3366 
L 3122 2828 
Q 2878 2963 2633 3030 
Q 2388 3097 2138 3097 
Q 1578 3097 1268 2742 
Q 959 2388 959 1747 
Q 959 1106 1268 751 
Q 1578 397 2138 397 
Q 2388 397 2633 464 
Q 2878 531 3122 666 
L 3122 134 
Q 2881 22 2623 -34 
Q 2366 -91 2075 -91 
Q 1284 -91 818 406 
Q 353 903 353 1747 
Q 353 2603 823 3093 
Q 1294 3584 2113 3584 
Q 2378 3584 2631 3529 
Q 2884 3475 3122 3366 
z
" id="DejaVuSans-63" transform="scale(0.015625)"/>
      </defs>
      <use xlink:href="#DejaVuSans-61"/>
      <use x="61.279297" xlink:href="#DejaVuSans-6c"/>
      <use x="89.0625" xlink:href="#DejaVuSans-70"/>
      <use x="152.539062" xlink:href="#DejaVuSans-61"/>
      <use x="213.818359" xlink:href="#DejaVuSans-63"/>
      <use x="268.798828" xlink:href="#DejaVuSans-61"/>
     </g>
    </g>
    <g id="line2d_24">
     <path d="M 66.6 217.865937 
L 86.6 217.865937 
" style="fill:none;stroke:#ff0000;stroke-linecap:square;stroke-opacity:0.9;stroke-width:2;"/>
    </g>
    <g id="line2d_25"/>
    <g id="text_20">
     <!-- mattress -->
     <g transform="translate(94.6 221.365937)scale(0.1 -0.1)">
      <defs>
       <path d="M 3328 2828 
Q 3544 3216 3844 3400 
Q 4144 3584 4550 3584 
Q 5097 3584 5394 3201 
Q 5691 2819 5691 2113 
L 5691 0 
L 5113 0 
L 5113 2094 
Q 5113 2597 4934 2840 
Q 4756 3084 4391 3084 
Q 3944 3084 3684 2787 
Q 3425 2491 3425 1978 
L 3425 0 
L 2847 0 
L 2847 2094 
Q 2847 2600 2669 2842 
Q 2491 3084 2119 3084 
Q 1678 3084 1418 2786 
Q 1159 2488 1159 1978 
L 1159 0 
L 581 0 
L 581 3500 
L 1159 3500 
L 1159 2956 
Q 1356 3278 1631 3431 
Q 1906 3584 2284 3584 
Q 2666 3584 2933 3390 
Q 3200 3197 3328 2828 
z
" id="DejaVuSans-6d" transform="scale(0.015625)"/>
       <path d="M 2834 3397 
L 2834 2853 
Q 2591 2978 2328 3040 
Q 2066 3103 1784 3103 
Q 1356 3103 1142 2972 
Q 928 2841 928 2578 
Q 928 2378 1081 2264 
Q 1234 2150 1697 2047 
L 1894 2003 
Q 2506 1872 2764 1633 
Q 3022 1394 3022 966 
Q 3022 478 2636 193 
Q 2250 -91 1575 -91 
Q 1294 -91 989 -36 
Q 684 19 347 128 
L 347 722 
Q 666 556 975 473 
Q 1284 391 1588 391 
Q 1994 391 2212 530 
Q 2431 669 2431 922 
Q 2431 1156 2273 1281 
Q 2116 1406 1581 1522 
L 1381 1569 
Q 847 1681 609 1914 
Q 372 2147 372 2553 
Q 372 3047 722 3315 
Q 1072 3584 1716 3584 
Q 2034 3584 2315 3537 
Q 2597 3491 2834 3397 
z
" id="DejaVuSans-73" transform="scale(0.015625)"/>
      </defs>
      <use xlink:href="#DejaVuSans-6d"/>
      <use x="97.412109" xlink:href="#DejaVuSans-61"/>
      <use x="158.691406" xlink:href="#DejaVuSans-74"/>
      <use x="197.900391" xlink:href="#DejaVuSans-74"/>
      <use x="237.109375" xlink:href="#DejaVuSans-72"/>
      <use x="275.972656" xlink:href="#DejaVuSans-65"/>
      <use x="337.496094" xlink:href="#DejaVuSans-73"/>
      <use x="389.595703" xlink:href="#DejaVuSans-73"/>
     </g>
    </g>
    <g id="line2d_26">
     <path d="M 66.6 232.544062 
L 86.6 232.544062 
" style="fill:none;stroke:#ff8040;stroke-linecap:square;stroke-opacity:0.9;stroke-width:2;"/>
    </g>
    <g id="line2d_27"/>
    <g id="text_21">
     <!-- trader-0850 -->
     <g transform="translate(94.6 236.044062)scale(0.1 -0.1)">
      <use xlink:href="#DejaVuSans-74"/>
      <use x="39.208984" xlink:href="#DejaVuSans-72"/>
      <use x="80.322266" xlink:href="#DejaVuSans-61"/>
      <use x="141.601562" xlink:href="#DejaVuSans-64"/>
      <use x="205.078125" xlink:href="#DejaVuSans-65"/>
      <use x="266.601562" xlink:href="#DejaVuSans-72"/>
      <use x="301.339844" xlink:href="#DejaVuSans-2d"/>
      <use x="337.423828" xlink:href="#DejaVuSans-30"/>
      <use x="401.046875" xlink:href="#DejaVuSans-38"/>
      <use x="464.669922" xlink:href="#DejaVuSans-35"/>
      <use x="528.292969" xlink:href="#DejaVuSans-30"/>
     </g>
    </g>
    <g id="line2d_28">
     <path d="M 66.6 247.222187 
L 86.6 247.222187 
" style="fill:none;stroke:#0d0d0d;stroke-linecap:square;stroke-opacity:0.25;stroke-width:2;"/>
    </g>
    <g id="line2d_29"/>
    <g id="text_22">
     <!-- rando-min -->
     <g transform="translate(94.6 250.722187)scale(0.1 -0.1)">
      <defs>
       <path d="M 3513 2113 
L 3513 0 
L 2938 0 
L 2938 2094 
Q 2938 2591 2744 2837 
Q 2550 3084 2163 3084 
Q 1697 3084 1428 2787 
Q 1159 2491 1159 1978 
L 1159 0 
L 581 0 
L 581 3500 
L 1159 3500 
L 1159 2956 
Q 1366 3272 1645 3428 
Q 1925 3584 2291 3584 
Q 2894 3584 3203 3211 
Q 3513 2838 3513 2113 
z
" id="DejaVuSans-6e" transform="scale(0.015625)"/>
      </defs>
      <use xlink:href="#DejaVuSans-72"/>
      <use x="41.113281" xlink:href="#DejaVuSans-61"/>
      <use x="102.392578" xlink:href="#DejaVuSans-6e"/>
      <use x="165.771484" xlink:href="#DejaVuSans-64"/>
      <use x="229.248047" xlink:href="#DejaVuSans-6f"/>
      <use x="292.304688" xlink:href="#DejaVuSans-2d"/>
      <use x="328.388672" xlink:href="#DejaVuSans-6d"/>
      <use x="425.800781" xlink:href="#DejaVuSans-69"/>
      <use x="453.583984" xlink:href="#DejaVuSans-6e"/>
     </g>
    </g>
    <g id="line2d_30">
     <path d="M 66.6 261.900312 
L 86.6 261.900312 
" style="fill:none;stroke:#0d0d0d;stroke-linecap:square;stroke-opacity:0.25;stroke-width:2;"/>
    </g>
    <g id="line2d_31"/>
    <g id="text_23">
     <!-- rando-max -->
     <g transform="translate(94.6 265.400312)scale(0.1 -0.1)">
      <defs>
       <path d="M 3513 3500 
L 2247 1797 
L 3578 0 
L 2900 0 
L 1881 1375 
L 863 0 
L 184 0 
L 1544 1831 
L 300 3500 
L 978 3500 
L 1906 2253 
L 2834 3500 
L 3513 3500 
z
" id="DejaVuSans-78" transform="scale(0.015625)"/>
      </defs>
      <use xlink:href="#DejaVuSans-72"/>
      <use x="41.113281" xlink:href="#DejaVuSans-61"/>
      <use x="102.392578" xlink:href="#DejaVuSans-6e"/>
      <use x="165.771484" xlink:href="#DejaVuSans-64"/>
      <use x="229.248047" xlink:href="#DejaVuSans-6f"/>
      <use x="292.304688" xlink:href="#DejaVuSans-2d"/>
      <use x="328.388672" xlink:href="#DejaVuSans-6d"/>
      <use x="425.800781" xlink:href="#DejaVuSans-61"/>
      <use x="487.080078" xlink:href="#DejaVuSans-78"/>
     </g>
    </g>
   </g>
  </g>
 </g>
 <defs>
  <clipPath id="pc38f599b21">
   <rect height="235.008" width="357.12" x="57.6" y="41.472"/>
  </clipPath>
 </defs>
</svg>
