<?xml version="1.0" encoding="utf-8" standalone="no"?>
<!DOCTYPE svg PUBLIC "-//W3C//DTD SVG 1.1//EN"
  "http://www.w3.org/Graphics/SVG/1.1/DTD/svg11.dtd">
<svg height="345.6pt" version="1.1" viewBox="0 0 460.8 345.6" width="460.8pt" xmlns="http://www.w3.org/2000/svg" xmlns:xlink="http://www.w3.org/1999/xlink">
 <metadata>
  <rdf:RDF xmlns:cc="http://creativecommons.org/ns#" xmlns:dc="http://purl.org/dc/elements/1.1/" xmlns:rdf="http://www.w3.org/1999/02/22-rdf-syntax-ns#">
   <cc:Work>
    <dc:type rdf:resource="http://purl.org/dc/dcmitype/StillImage"/>
    <dc:date>2022-06-04T10:02:42.492332</dc:date>
    <dc:format>image/svg+xml</dc:format>
    <dc:creator>
     <cc:Agent>
      <dc:title>Matplotlib v3.4.3, https://matplotlib.org/</dc:title>
     </cc:Agent>
    </dc:creator>
   </cc:Work>
  </rdf:RDF>
 </metadata>
 <defs>
  <style type="text/css">*{stroke-linecap:butt;stroke-linejoin:round;}</style>
 </defs>
 <g id="figure_1">
  <g id="patch_1">
   <path d="M 0 345.6 
L 460.8 345.6 
L 460.8 0 
L 0 0 
z
" style="fill:#ffffff;"/>
  </g>
  <g id="axes_1">
   <g id="patch_2">
    <path d="M 57.6 276.48 
L 414.72 276.48 
L 414.72 41.472 
L 57.6 41.472 
z
" style="fill:#ffffff;"/>
   </g>
   <g id="matplotlib.axis_1">
    <g id="xtick_1">
     <g id="line2d_1">
      <defs>
       <path d="M 0 0 
L 0 3.5 
" id="mf7861bdcb6" style="stroke:#000000;stroke-width:0.8;"/>
      </defs>
      <g>
       <use style="stroke:#000000;stroke-width:0.8;" x="95.256631" xlink:href="#mf7861bdcb6" y="276.48"/>
      </g>
     </g>
     <g id="text_1">
      <!-- 2021-12 -->
      <g transform="translate(58.03181 310.951846)rotate(-30)scale(0.1 -0.1)">
       <defs>
        <path d="M 1228 531 
L 3431 531 
L 3431 0 
L 469 0 
L 469 531 
Q 828 903 1448 1529 
Q 2069 2156 2228 2338 
Q 2531 2678 2651 2914 
Q 2772 3150 2772 3378 
Q 2772 3750 2511 3984 
Q 2250 4219 1831 4219 
Q 1534 4219 1204 4116 
Q 875 4013 500 3803 
L 500 4441 
Q 881 4594 1212 4672 
Q 1544 4750 1819 4750 
Q 2544 4750 2975 4387 
Q 3406 4025 3406 3419 
Q 3406 3131 3298 2873 
Q 3191 2616 2906 2266 
Q 2828 2175 2409 1742 
Q 1991 1309 1228 531 
z
" id="DejaVuSans-32" transform="scale(0.015625)"/>
        <path d="M 2034 4250 
Q 1547 4250 1301 3770 
Q 1056 3291 1056 2328 
Q 1056 1369 1301 889 
Q 1547 409 2034 409 
Q 2525 409 2770 889 
Q 3016 1369 3016 2328 
Q 3016 3291 2770 3770 
Q 2525 4250 2034 4250 
z
M 2034 4750 
Q 2819 4750 3233 4129 
Q 3647 3509 3647 2328 
Q 3647 1150 3233 529 
Q 2819 -91 2034 -91 
Q 1250 -91 836 529 
Q 422 1150 422 2328 
Q 422 3509 836 4129 
Q 1250 4750 2034 4750 
z
" id="DejaVuSans-30" transform="scale(0.015625)"/>
        <path d="M 794 531 
L 1825 531 
L 1825 4091 
L 703 3866 
L 703 4441 
L 1819 4666 
L 2450 4666 
L 2450 531 
L 3481 531 
L 3481 0 
L 794 0 
L 794 531 
z
" id="DejaVuSans-31" transform="scale(0.015625)"/>
        <path d="M 313 2009 
L 1997 2009 
L 1997 1497 
L 313 1497 
L 313 2009 
z
" id="DejaVuSans-2d" transform="scale(0.015625)"/>
       </defs>
       <use xlink:href="#DejaVuSans-32"/>
       <use x="63.623047" xlink:href="#DejaVuSans-30"/>
       <use x="127.246094" xlink:href="#DejaVuSans-32"/>
       <use x="190.869141" xlink:href="#DejaVuSans-31"/>
       <use x="254.492188" xlink:href="#DejaVuSans-2d"/>
       <use x="290.576172" xlink:href="#DejaVuSans-31"/>
       <use x="354.199219" xlink:href="#DejaVuSans-32"/>
      </g>
     </g>
    </g>
    <g id="xtick_2">
     <g id="line2d_2">
      <g>
       <use style="stroke:#000000;stroke-width:0.8;" x="146.344402" xlink:href="#mf7861bdcb6" y="276.48"/>
      </g>
     </g>
     <g id="text_2">
      <!-- 2022-01 -->
      <g transform="translate(109.119582 310.951846)rotate(-30)scale(0.1 -0.1)">
       <use xlink:href="#DejaVuSans-32"/>
       <use x="63.623047" xlink:href="#DejaVuSans-30"/>
       <use x="127.246094" xlink:href="#DejaVuSans-32"/>
       <use x="190.869141" xlink:href="#DejaVuSans-32"/>
       <use x="254.492188" xlink:href="#DejaVuSans-2d"/>
       <use x="290.576172" xlink:href="#DejaVuSans-30"/>
       <use x="354.199219" xlink:href="#DejaVuSans-31"/>
      </g>
     </g>
    </g>
    <g id="xtick_3">
     <g id="line2d_3">
      <g>
       <use style="stroke:#000000;stroke-width:0.8;" x="197.432174" xlink:href="#mf7861bdcb6" y="276.48"/>
      </g>
     </g>
     <g id="text_3">
      <!-- 2022-02 -->
      <g transform="translate(160.207353 310.951846)rotate(-30)scale(0.1 -0.1)">
       <use xlink:href="#DejaVuSans-32"/>
       <use x="63.623047" xlink:href="#DejaVuSans-30"/>
       <use x="127.246094" xlink:href="#DejaVuSans-32"/>
       <use x="190.869141" xlink:href="#DejaVuSans-32"/>
       <use x="254.492188" xlink:href="#DejaVuSans-2d"/>
       <use x="290.576172" xlink:href="#DejaVuSans-30"/>
       <use x="354.199219" xlink:href="#DejaVuSans-32"/>
      </g>
     </g>
    </g>
    <g id="xtick_4">
     <g id="line2d_4">
      <g>
       <use style="stroke:#000000;stroke-width:0.8;" x="243.575967" xlink:href="#mf7861bdcb6" y="276.48"/>
      </g>
     </g>
     <g id="text_4">
      <!-- 2022-03 -->
      <g transform="translate(206.351146 310.951846)rotate(-30)scale(0.1 -0.1)">
       <defs>
        <path d="M 2597 2516 
Q 3050 2419 3304 2112 
Q 3559 1806 3559 1356 
Q 3559 666 3084 287 
Q 2609 -91 1734 -91 
Q 1441 -91 1130 -33 
Q 819 25 488 141 
L 488 750 
Q 750 597 1062 519 
Q 1375 441 1716 441 
Q 2309 441 2620 675 
Q 2931 909 2931 1356 
Q 2931 1769 2642 2001 
Q 2353 2234 1838 2234 
L 1294 2234 
L 1294 2753 
L 1863 2753 
Q 2328 2753 2575 2939 
Q 2822 3125 2822 3475 
Q 2822 3834 2567 4026 
Q 2313 4219 1838 4219 
Q 1578 4219 1281 4162 
Q 984 4106 628 3988 
L 628 4550 
Q 988 4650 1302 4700 
Q 1616 4750 1894 4750 
Q 2613 4750 3031 4423 
Q 3450 4097 3450 3541 
Q 3450 3153 3228 2886 
Q 3006 2619 2597 2516 
z
" id="DejaVuSans-33" transform="scale(0.015625)"/>
       </defs>
       <use xlink:href="#DejaVuSans-32"/>
       <use x="63.623047" xlink:href="#DejaVuSans-30"/>
       <use x="127.246094" xlink:href="#DejaVuSans-32"/>
       <use x="190.869141" xlink:href="#DejaVuSans-32"/>
       <use x="254.492188" xlink:href="#DejaVuSans-2d"/>
       <use x="290.576172" xlink:href="#DejaVuSans-30"/>
       <use x="354.199219" xlink:href="#DejaVuSans-33"/>
      </g>
     </g>
    </g>
    <g id="xtick_5">
     <g id="line2d_5">
      <g>
       <use style="stroke:#000000;stroke-width:0.8;" x="294.663738" xlink:href="#mf7861bdcb6" y="276.48"/>
      </g>
     </g>
     <g id="text_5">
      <!-- 2022-04 -->
      <g transform="translate(257.438917 310.951846)rotate(-30)scale(0.1 -0.1)">
       <defs>
        <path d="M 2419 4116 
L 825 1625 
L 2419 1625 
L 2419 4116 
z
M 2253 4666 
L 3047 4666 
L 3047 1625 
L 3713 1625 
L 3713 1100 
L 3047 1100 
L 3047 0 
L 2419 0 
L 2419 1100 
L 313 1100 
L 313 1709 
L 2253 4666 
z
" id="DejaVuSans-34" transform="scale(0.015625)"/>
       </defs>
       <use xlink:href="#DejaVuSans-32"/>
       <use x="63.623047" xlink:href="#DejaVuSans-30"/>
       <use x="127.246094" xlink:href="#DejaVuSans-32"/>
       <use x="190.869141" xlink:href="#DejaVuSans-32"/>
       <use x="254.492188" xlink:href="#DejaVuSans-2d"/>
       <use x="290.576172" xlink:href="#DejaVuSans-30"/>
       <use x="354.199219" xlink:href="#DejaVuSans-34"/>
      </g>
     </g>
    </g>
    <g id="xtick_6">
     <g id="line2d_6">
      <g>
       <use style="stroke:#000000;stroke-width:0.8;" x="344.103516" xlink:href="#mf7861bdcb6" y="276.48"/>
      </g>
     </g>
     <g id="text_6">
      <!-- 2022-05 -->
      <g transform="translate(306.878696 310.951846)rotate(-30)scale(0.1 -0.1)">
       <defs>
        <path d="M 691 4666 
L 3169 4666 
L 3169 4134 
L 1269 4134 
L 1269 2991 
Q 1406 3038 1543 3061 
Q 1681 3084 1819 3084 
Q 2600 3084 3056 2656 
Q 3513 2228 3513 1497 
Q 3513 744 3044 326 
Q 2575 -91 1722 -91 
Q 1428 -91 1123 -41 
Q 819 9 494 109 
L 494 744 
Q 775 591 1075 516 
Q 1375 441 1709 441 
Q 2250 441 2565 725 
Q 2881 1009 2881 1497 
Q 2881 1984 2565 2268 
Q 2250 2553 1709 2553 
Q 1456 2553 1204 2497 
Q 953 2441 691 2322 
L 691 4666 
z
" id="DejaVuSans-35" transform="scale(0.015625)"/>
       </defs>
       <use xlink:href="#DejaVuSans-32"/>
       <use x="63.623047" xlink:href="#DejaVuSans-30"/>
       <use x="127.246094" xlink:href="#DejaVuSans-32"/>
       <use x="190.869141" xlink:href="#DejaVuSans-32"/>
       <use x="254.492188" xlink:href="#DejaVuSans-2d"/>
       <use x="290.576172" xlink:href="#DejaVuSans-30"/>
       <use x="354.199219" xlink:href="#DejaVuSans-35"/>
      </g>
     </g>
    </g>
    <g id="xtick_7">
     <g id="line2d_7">
      <g>
       <use style="stroke:#000000;stroke-width:0.8;" x="395.191287" xlink:href="#mf7861bdcb6" y="276.48"/>
      </g>
     </g>
     <g id="text_7">
      <!-- 2022-06 -->
      <g transform="translate(357.966467 310.951846)rotate(-30)scale(0.1 -0.1)">
       <defs>
        <path d="M 2113 2584 
Q 1688 2584 1439 2293 
Q 1191 2003 1191 1497 
Q 1191 994 1439 701 
Q 1688 409 2113 409 
Q 2538 409 2786 701 
Q 3034 994 3034 1497 
Q 3034 2003 2786 2293 
Q 2538 2584 2113 2584 
z
M 3366 4563 
L 3366 3988 
Q 3128 4100 2886 4159 
Q 2644 4219 2406 4219 
Q 1781 4219 1451 3797 
Q 1122 3375 1075 2522 
Q 1259 2794 1537 2939 
Q 1816 3084 2150 3084 
Q 2853 3084 3261 2657 
Q 3669 2231 3669 1497 
Q 3669 778 3244 343 
Q 2819 -91 2113 -91 
Q 1303 -91 875 529 
Q 447 1150 447 2328 
Q 447 3434 972 4092 
Q 1497 4750 2381 4750 
Q 2619 4750 2861 4703 
Q 3103 4656 3366 4563 
z
" id="DejaVuSans-36" transform="scale(0.015625)"/>
       </defs>
       <use xlink:href="#DejaVuSans-32"/>
       <use x="63.623047" xlink:href="#DejaVuSans-30"/>
       <use x="127.246094" xlink:href="#DejaVuSans-32"/>
       <use x="190.869141" xlink:href="#DejaVuSans-32"/>
       <use x="254.492188" xlink:href="#DejaVuSans-2d"/>
       <use x="290.576172" xlink:href="#DejaVuSans-30"/>
       <use x="354.199219" xlink:href="#DejaVuSans-36"/>
      </g>
     </g>
    </g>
    <g id="text_8">
     <!-- date -->
     <g transform="translate(224.885 324.351346)scale(0.1 -0.1)">
      <defs>
       <path d="M 2906 2969 
L 2906 4863 
L 3481 4863 
L 3481 0 
L 2906 0 
L 2906 525 
Q 2725 213 2448 61 
Q 2172 -91 1784 -91 
Q 1150 -91 751 415 
Q 353 922 353 1747 
Q 353 2572 751 3078 
Q 1150 3584 1784 3584 
Q 2172 3584 2448 3432 
Q 2725 3281 2906 2969 
z
M 947 1747 
Q 947 1113 1208 752 
Q 1469 391 1925 391 
Q 2381 391 2643 752 
Q 2906 1113 2906 1747 
Q 2906 2381 2643 2742 
Q 2381 3103 1925 3103 
Q 1469 3103 1208 2742 
Q 947 2381 947 1747 
z
" id="DejaVuSans-64" transform="scale(0.015625)"/>
       <path d="M 2194 1759 
Q 1497 1759 1228 1600 
Q 959 1441 959 1056 
Q 959 750 1161 570 
Q 1363 391 1709 391 
Q 2188 391 2477 730 
Q 2766 1069 2766 1631 
L 2766 1759 
L 2194 1759 
z
M 3341 1997 
L 3341 0 
L 2766 0 
L 2766 531 
Q 2569 213 2275 61 
Q 1981 -91 1556 -91 
Q 1019 -91 701 211 
Q 384 513 384 1019 
Q 384 1609 779 1909 
Q 1175 2209 1959 2209 
L 2766 2209 
L 2766 2266 
Q 2766 2663 2505 2880 
Q 2244 3097 1772 3097 
Q 1472 3097 1187 3025 
Q 903 2953 641 2809 
L 641 3341 
Q 956 3463 1253 3523 
Q 1550 3584 1831 3584 
Q 2591 3584 2966 3190 
Q 3341 2797 3341 1997 
z
" id="DejaVuSans-61" transform="scale(0.015625)"/>
       <path d="M 1172 4494 
L 1172 3500 
L 2356 3500 
L 2356 3053 
L 1172 3053 
L 1172 1153 
Q 1172 725 1289 603 
Q 1406 481 1766 481 
L 2356 481 
L 2356 0 
L 1766 0 
Q 1100 0 847 248 
Q 594 497 594 1153 
L 594 3053 
L 172 3053 
L 172 3500 
L 594 3500 
L 594 4494 
L 1172 4494 
z
" id="DejaVuSans-74" transform="scale(0.015625)"/>
       <path d="M 3597 1894 
L 3597 1613 
L 953 1613 
Q 991 1019 1311 708 
Q 1631 397 2203 397 
Q 2534 397 2845 478 
Q 3156 559 3463 722 
L 3463 178 
Q 3153 47 2828 -22 
Q 2503 -91 2169 -91 
Q 1331 -91 842 396 
Q 353 884 353 1716 
Q 353 2575 817 3079 
Q 1281 3584 2069 3584 
Q 2775 3584 3186 3129 
Q 3597 2675 3597 1894 
z
M 3022 2063 
Q 3016 2534 2758 2815 
Q 2500 3097 2075 3097 
Q 1594 3097 1305 2825 
Q 1016 2553 972 2059 
L 3022 2063 
z
" id="DejaVuSans-65" transform="scale(0.015625)"/>
      </defs>
      <use xlink:href="#DejaVuSans-64"/>
      <use x="63.476562" xlink:href="#DejaVuSans-61"/>
      <use x="124.755859" xlink:href="#DejaVuSans-74"/>
      <use x="163.964844" xlink:href="#DejaVuSans-65"/>
     </g>
    </g>
   </g>
   <g id="matplotlib.axis_2">
    <g id="ytick_1">
     <g id="line2d_8">
      <defs>
       <path d="M 0 0 
L -3.5 0 
" id="md0c42b09f0" style="stroke:#000000;stroke-width:0.8;"/>
      </defs>
      <g>
       <use style="stroke:#000000;stroke-width:0.8;" x="57.6" xlink:href="#md0c42b09f0" y="241.231076"/>
      </g>
     </g>
     <g id="text_9">
      <!-- 50000 -->
      <g transform="translate(18.7875 245.030295)scale(0.1 -0.1)">
       <use xlink:href="#DejaVuSans-35"/>
       <use x="63.623047" xlink:href="#DejaVuSans-30"/>
       <use x="127.246094" xlink:href="#DejaVuSans-30"/>
       <use x="190.869141" xlink:href="#DejaVuSans-30"/>
       <use x="254.492188" xlink:href="#DejaVuSans-30"/>
      </g>
     </g>
    </g>
    <g id="ytick_2">
     <g id="line2d_9">
      <g>
       <use style="stroke:#000000;stroke-width:0.8;" x="57.6" xlink:href="#md0c42b09f0" y="203.035055"/>
      </g>
     </g>
     <g id="text_10">
      <!-- 60000 -->
      <g transform="translate(18.7875 206.834273)scale(0.1 -0.1)">
       <use xlink:href="#DejaVuSans-36"/>
       <use x="63.623047" xlink:href="#DejaVuSans-30"/>
       <use x="127.246094" xlink:href="#DejaVuSans-30"/>
       <use x="190.869141" xlink:href="#DejaVuSans-30"/>
       <use x="254.492188" xlink:href="#DejaVuSans-30"/>
      </g>
     </g>
    </g>
    <g id="ytick_3">
     <g id="line2d_10">
      <g>
       <use style="stroke:#000000;stroke-width:0.8;" x="57.6" xlink:href="#md0c42b09f0" y="164.839033"/>
      </g>
     </g>
     <g id="text_11">
      <!-- 70000 -->
      <g transform="translate(18.7875 168.638252)scale(0.1 -0.1)">
       <defs>
        <path d="M 525 4666 
L 3525 4666 
L 3525 4397 
L 1831 0 
L 1172 0 
L 2766 4134 
L 525 4134 
L 525 4666 
z
" id="DejaVuSans-37" transform="scale(0.015625)"/>
       </defs>
       <use xlink:href="#DejaVuSans-37"/>
       <use x="63.623047" xlink:href="#DejaVuSans-30"/>
       <use x="127.246094" xlink:href="#DejaVuSans-30"/>
       <use x="190.869141" xlink:href="#DejaVuSans-30"/>
       <use x="254.492188" xlink:href="#DejaVuSans-30"/>
      </g>
     </g>
    </g>
    <g id="ytick_4">
     <g id="line2d_11">
      <g>
       <use style="stroke:#000000;stroke-width:0.8;" x="57.6" xlink:href="#md0c42b09f0" y="126.643012"/>
      </g>
     </g>
     <g id="text_12">
      <!-- 80000 -->
      <g transform="translate(18.7875 130.442231)scale(0.1 -0.1)">
       <defs>
        <path d="M 2034 2216 
Q 1584 2216 1326 1975 
Q 1069 1734 1069 1313 
Q 1069 891 1326 650 
Q 1584 409 2034 409 
Q 2484 409 2743 651 
Q 3003 894 3003 1313 
Q 3003 1734 2745 1975 
Q 2488 2216 2034 2216 
z
M 1403 2484 
Q 997 2584 770 2862 
Q 544 3141 544 3541 
Q 544 4100 942 4425 
Q 1341 4750 2034 4750 
Q 2731 4750 3128 4425 
Q 3525 4100 3525 3541 
Q 3525 3141 3298 2862 
Q 3072 2584 2669 2484 
Q 3125 2378 3379 2068 
Q 3634 1759 3634 1313 
Q 3634 634 3220 271 
Q 2806 -91 2034 -91 
Q 1263 -91 848 271 
Q 434 634 434 1313 
Q 434 1759 690 2068 
Q 947 2378 1403 2484 
z
M 1172 3481 
Q 1172 3119 1398 2916 
Q 1625 2713 2034 2713 
Q 2441 2713 2670 2916 
Q 2900 3119 2900 3481 
Q 2900 3844 2670 4047 
Q 2441 4250 2034 4250 
Q 1625 4250 1398 4047 
Q 1172 3844 1172 3481 
z
" id="DejaVuSans-38" transform="scale(0.015625)"/>
       </defs>
       <use xlink:href="#DejaVuSans-38"/>
       <use x="63.623047" xlink:href="#DejaVuSans-30"/>
       <use x="127.246094" xlink:href="#DejaVuSans-30"/>
       <use x="190.869141" xlink:href="#DejaVuSans-30"/>
       <use x="254.492188" xlink:href="#DejaVuSans-30"/>
      </g>
     </g>
    </g>
    <g id="ytick_5">
     <g id="line2d_12">
      <g>
       <use style="stroke:#000000;stroke-width:0.8;" x="57.6" xlink:href="#md0c42b09f0" y="88.44699"/>
      </g>
     </g>
     <g id="text_13">
      <!-- 90000 -->
      <g transform="translate(18.7875 92.246209)scale(0.1 -0.1)">
       <defs>
        <path d="M 703 97 
L 703 672 
Q 941 559 1184 500 
Q 1428 441 1663 441 
Q 2288 441 2617 861 
Q 2947 1281 2994 2138 
Q 2813 1869 2534 1725 
Q 2256 1581 1919 1581 
Q 1219 1581 811 2004 
Q 403 2428 403 3163 
Q 403 3881 828 4315 
Q 1253 4750 1959 4750 
Q 2769 4750 3195 4129 
Q 3622 3509 3622 2328 
Q 3622 1225 3098 567 
Q 2575 -91 1691 -91 
Q 1453 -91 1209 -44 
Q 966 3 703 97 
z
M 1959 2075 
Q 2384 2075 2632 2365 
Q 2881 2656 2881 3163 
Q 2881 3666 2632 3958 
Q 2384 4250 1959 4250 
Q 1534 4250 1286 3958 
Q 1038 3666 1038 3163 
Q 1038 2656 1286 2365 
Q 1534 2075 1959 2075 
z
" id="DejaVuSans-39" transform="scale(0.015625)"/>
       </defs>
       <use xlink:href="#DejaVuSans-39"/>
       <use x="63.623047" xlink:href="#DejaVuSans-30"/>
       <use x="127.246094" xlink:href="#DejaVuSans-30"/>
       <use x="190.869141" xlink:href="#DejaVuSans-30"/>
       <use x="254.492188" xlink:href="#DejaVuSans-30"/>
      </g>
     </g>
    </g>
    <g id="ytick_6">
     <g id="line2d_13">
      <g>
       <use style="stroke:#000000;stroke-width:0.8;" x="57.6" xlink:href="#md0c42b09f0" y="50.250969"/>
      </g>
     </g>
     <g id="text_14">
      <!-- 100000 -->
      <g transform="translate(12.425 54.050188)scale(0.1 -0.1)">
       <use xlink:href="#DejaVuSans-31"/>
       <use x="63.623047" xlink:href="#DejaVuSans-30"/>
       <use x="127.246094" xlink:href="#DejaVuSans-30"/>
       <use x="190.869141" xlink:href="#DejaVuSans-30"/>
       <use x="254.492188" xlink:href="#DejaVuSans-30"/>
       <use x="318.115234" xlink:href="#DejaVuSans-30"/>
      </g>
     </g>
    </g>
   </g>
   <g id="line2d_14">
    <path clip-path="url(#p370dac5d85)" d="M 73.832727 60.779289 
L 75.48072 56.556051 
L 80.424698 52.154182 
L 82.07269 64.629373 
L 87.016668 64.225928 
L 91.960646 72.798206 
L 93.608639 81.472236 
L 95.256631 104.042226 
L 96.904624 102.022619 
L 98.552617 120.05118 
L 103.496594 119.75418 
L 105.144587 104.032906 
L 106.79258 96.834497 
L 108.440572 115.535038 
L 110.088565 118.384571 
L 115.032543 132.337526 
L 116.680535 128.505632 
L 118.328528 123.948211 
L 119.976521 131.899391 
L 121.624513 120.895581 
L 126.568491 129.344867 
L 128.216484 117.791171 
L 129.864476 116.868482 
L 131.512469 114.024208 
L 138.104439 114.411899 
L 139.752432 119.050146 
L 141.400425 125.277428 
L 143.048417 118.064534 
L 144.69641 125.693871 
L 149.640388 114.31542 
L 151.28838 123.202995 
L 152.936373 145.571533 
L 154.584365 146.96397 
L 156.232358 143.599968 
L 161.176336 147.882587 
L 162.824329 142.346101 
L 164.472321 139.385688 
L 166.120314 156.641622 
L 167.768306 156.092438 
L 174.360277 170.730344 
L 176.008269 177.226359 
L 177.656262 181.77431 
L 179.304255 192.392743 
L 184.248233 198.748047 
L 185.896225 204.685431 
L 187.544218 204.59467 
L 189.19221 221.433503 
L 190.840203 216.833669 
L 197.432174 186.125084 
L 199.080166 196.901292 
L 200.728159 205.284989 
L 202.376151 196.966028 
L 207.320129 198.670376 
L 208.968122 188.00386 
L 210.616114 173.834534 
L 212.264107 181.819179 
L 213.9121 192.087609 
L 218.856078 197.020227 
L 220.50407 173.944902 
L 222.152063 175.91689 
L 223.800055 189.205185 
L 225.448048 197.759442 
L 232.040018 206.545837 
L 233.688011 215.017164 
L 235.336004 201.370056 
L 236.983996 197.164442 
L 241.927974 187.143103 
L 243.575967 188.35288 
L 245.223959 184.351432 
L 246.871952 197.004003 
L 248.519945 208.094186 
L 253.463922 219.73746 
L 255.111915 215.082398 
L 256.759908 205.617614 
L 258.4079 212.613228 
L 260.055893 225.861371 
L 264.999871 240.156967 
L 266.647863 229.602059 
L 268.295856 210.145321 
L 269.943849 201.670971 
L 271.591841 192.30129 
L 276.535819 191.489468 
L 278.183812 173.418204 
L 279.831804 166.330367 
L 281.479797 162.706374 
L 283.12779 166.238441 
L 288.071767 140.983865 
L 289.71976 130.233614 
L 291.367753 139.613661 
L 293.015745 150.511785 
L 294.663738 151.20538 
L 299.607716 137.925234 
L 301.255708 157.232996 
L 302.903701 168.733355 
L 304.551694 173.804868 
L 306.199686 183.251524 
L 311.143664 185.386746 
L 312.791657 188.798115 
L 314.439649 179.589676 
L 316.087642 187.203983 
L 322.679612 192.352666 
L 324.327605 183.262685 
L 325.975598 196.720296 
L 327.62359 202.975749 
L 329.271583 205.99851 
L 334.215561 203.443433 
L 335.863553 220.018916 
L 337.511546 218.167712 
L 339.159539 216.133952 
L 340.807531 222.131214 
L 345.751509 216.669497 
L 347.399502 214.367711 
L 349.047494 205.351881 
L 350.695487 224.525337 
L 352.343479 231.887828 
L 357.287457 249.95778 
L 358.93545 251.15908 
L 360.583443 265.797818 
L 362.231435 257.899264 
L 363.879428 243.376093 
L 368.823406 247.766937 
L 370.471398 233.357045 
L 372.119391 242.771806 
L 373.767383 237.273136 
L 375.415376 243.446153 
L 380.359354 243.199048 
L 382.007347 255.598278 
L 385.303332 232.515364 
L 386.951324 217.880713 
L 393.543295 219.412183 
L 395.191287 227.556097 
L 396.83928 212.571478 
L 398.487273 221.830054 
L 398.487273 221.830054 
" style="fill:none;stroke:#0000ff;stroke-linecap:square;stroke-opacity:0.9;stroke-width:2;"/>
   </g>
   <g id="line2d_15">
    <path clip-path="url(#p370dac5d85)" d="M 73.832727 60.779289 
L 75.48072 56.64851 
L 80.424698 52.514563 
L 82.07269 64.60685 
L 83.720683 64.565671 
L 87.016668 75.946737 
L 91.960646 72.824662 
L 93.608639 81.356955 
L 95.256631 103.846553 
L 96.904624 102.002811 
L 98.552617 119.767891 
L 103.496594 119.640101 
L 105.144587 103.947768 
L 106.79258 96.623113 
L 108.440572 115.241134 
L 110.088565 118.233998 
L 115.032543 131.70281 
L 116.680535 128.099182 
L 118.328528 123.909885 
L 119.976521 131.980472 
L 121.624513 120.568515 
L 126.568491 129.140407 
L 128.216484 117.527715 
L 129.864476 116.628654 
L 131.512469 114.068249 
L 138.104439 114.774917 
L 139.752432 119.404355 
L 141.400425 125.522361 
L 143.048417 118.082455 
L 144.69641 125.956183 
L 149.640388 114.319814 
L 151.28838 122.642396 
L 152.936373 143.149187 
L 154.584365 145.011031 
L 156.232358 141.947911 
L 161.176336 145.743452 
L 162.824329 139.589735 
L 164.472321 135.368555 
L 166.120314 151.495514 
L 167.768306 150.494488 
L 174.360277 164.409849 
L 176.008269 170.387121 
L 177.656262 175.724951 
L 179.304255 187.212954 
L 184.248233 193.716638 
L 185.896225 199.645446 
L 187.544218 200.428143 
L 189.19221 217.520392 
L 190.840203 212.946437 
L 197.432174 183.707563 
L 199.080166 192.272423 
L 200.728159 200.244241 
L 202.376151 192.405615 
L 207.320129 193.392188 
L 208.968122 183.92772 
L 210.616114 171.511084 
L 212.264107 179.749321 
L 213.9121 191.705486 
L 218.856078 196.302448 
L 220.50407 176.010193 
L 222.152063 177.396212 
L 223.800055 190.565147 
L 225.448048 197.728158 
L 232.040018 205.068185 
L 233.688011 213.855743 
L 235.336004 202.672147 
L 236.983996 197.052475 
L 241.927974 188.079603 
L 243.575967 190.025878 
L 245.223959 185.636776 
L 248.519945 208.930849 
L 253.463922 220.080685 
L 255.111915 215.498385 
L 256.759908 205.936418 
L 258.4079 212.691677 
L 260.055893 224.830675 
L 264.999871 236.531066 
L 266.647863 227.032668 
L 268.295856 209.09462 
L 269.943849 202.263291 
L 271.591841 194.107686 
L 276.535819 192.214964 
L 278.183812 176.922681 
L 279.831804 171.659842 
L 281.479797 167.664039 
L 283.12779 169.948815 
L 289.71976 139.73759 
L 293.015745 158.995903 
L 294.663738 159.542224 
L 299.607716 147.51694 
L 301.255708 165.978832 
L 302.903701 176.123017 
L 304.551694 180.185044 
L 306.199686 188.509396 
L 311.143664 190.910226 
L 312.791657 193.29542 
L 314.439649 184.15409 
L 316.087642 190.689681 
L 322.679612 195.217637 
L 324.327605 186.784593 
L 325.975598 198.707118 
L 327.62359 203.813756 
L 329.271583 207.515508 
L 334.215561 207.007691 
L 335.863553 223.602656 
L 337.511546 220.987394 
L 339.159539 219.324785 
L 340.807531 224.890797 
L 345.751509 220.169028 
L 347.399502 217.512027 
L 349.047494 209.415907 
L 350.695487 227.504233 
L 357.287457 250.01966 
L 358.93545 250.174408 
L 360.583443 262.796348 
L 362.231435 257.686084 
L 363.879428 244.591085 
L 368.823406 248.565359 
L 370.471398 235.50068 
L 372.119391 244.835937 
L 373.767383 240.156615 
L 375.415376 245.425235 
L 380.359354 243.813482 
L 382.007347 254.09772 
L 383.655339 243.951912 
L 385.303332 232.562667 
L 386.951324 219.523329 
L 393.543295 222.339869 
L 395.191287 229.071672 
L 396.83928 214.795284 
L 398.487273 223.724212 
L 398.487273 223.724212 
" style="fill:none;stroke:#ff0000;stroke-linecap:square;stroke-opacity:0.9;stroke-width:2;"/>
   </g>
   <g id="line2d_16">
    <path clip-path="url(#p370dac5d85)" d="M 73.832727 60.779289 
L 75.48072 56.472034 
L 80.424698 52.949839 
L 82.07269 64.249462 
L 83.720683 64.116127 
L 87.016668 75.4039 
L 91.960646 72.441137 
L 93.608639 80.96612 
L 95.256631 104.308014 
L 96.904624 101.533825 
L 98.552617 119.352776 
L 103.496594 118.515388 
L 105.144587 102.678904 
L 106.79258 95.59976 
L 108.440572 114.632688 
L 110.088565 117.889675 
L 115.032543 132.36396 
L 116.680535 127.320085 
L 118.328528 123.226324 
L 119.976521 130.968529 
L 121.624513 118.053786 
L 126.568491 126.533266 
L 128.216484 114.503092 
L 129.864476 114.264986 
L 131.512469 111.657656 
L 138.104439 113.410641 
L 139.752432 118.112363 
L 141.400425 124.212086 
L 143.048417 115.435145 
L 144.69641 123.673754 
L 149.640388 113.026036 
L 151.28838 121.693586 
L 152.936373 144.087082 
L 154.584365 145.769418 
L 156.232358 141.32271 
L 161.176336 145.872573 
L 162.824329 139.957646 
L 164.472321 136.858621 
L 166.120314 154.61187 
L 167.768306 154.005925 
L 174.360277 169.060993 
L 176.008269 175.336095 
L 177.656262 180.339579 
L 179.304255 190.64586 
L 184.248233 197.147898 
L 185.896225 202.994134 
L 187.544218 203.028443 
L 189.19221 220.19722 
L 190.840203 215.653458 
L 197.432174 184.758781 
L 199.080166 195.421616 
L 200.728159 203.924462 
L 202.376151 195.483584 
L 207.320129 197.552256 
L 208.968122 186.727936 
L 210.616114 172.393355 
L 212.264107 180.235034 
L 213.9121 190.540156 
L 218.856078 195.639465 
L 220.50407 173.048122 
L 222.152063 175.291649 
L 223.800055 188.325461 
L 225.448048 197.096129 
L 232.040018 205.694397 
L 233.688011 214.219967 
L 235.336004 200.467873 
L 236.983996 196.39173 
L 241.927974 186.164262 
L 243.575967 187.353558 
L 245.223959 183.611765 
L 246.871952 196.334858 
L 248.519945 207.689231 
L 253.463922 219.557642 
L 255.111915 215.053033 
L 256.759908 205.254613 
L 258.4079 213.201208 
L 260.055893 226.305481 
L 264.999871 240.058017 
L 266.647863 229.797323 
L 268.295856 210.088847 
L 269.943849 202.25401 
L 271.591841 192.830094 
L 276.535819 191.836439 
L 278.183812 172.458207 
L 279.831804 164.996098 
L 281.479797 161.298362 
L 283.12779 164.757105 
L 288.071767 137.51013 
L 289.71976 127.062874 
L 291.367753 136.954633 
L 293.015745 147.787217 
L 294.663738 147.996596 
L 299.607716 134.656441 
L 301.255708 154.383344 
L 302.903701 165.089571 
L 304.551694 170.141334 
L 306.199686 179.617247 
L 311.143664 181.403641 
L 312.791657 185.157891 
L 314.439649 175.555169 
L 316.087642 182.947465 
L 322.679612 188.425233 
L 324.327605 178.798266 
L 325.975598 192.539128 
L 327.62359 198.887627 
L 329.271583 202.158981 
L 334.215561 199.802658 
L 335.863553 216.484952 
L 337.511546 214.864321 
L 339.159539 212.75912 
L 340.807531 218.927951 
L 345.751509 213.259286 
L 347.399502 211.147189 
L 349.047494 201.974193 
L 350.695487 221.185847 
L 352.343479 228.748957 
L 357.287457 247.486154 
L 358.93545 248.627623 
L 360.583443 263.475834 
L 362.231435 255.382571 
L 363.879428 240.360858 
L 368.823406 245.102173 
L 370.471398 230.360309 
L 372.119391 240.250104 
L 373.767383 233.998447 
L 375.415376 240.531917 
L 380.359354 240.145626 
L 382.007347 252.683716 
L 385.303332 228.628597 
L 386.951324 213.606746 
L 393.543295 215.20116 
L 395.191287 223.397785 
L 396.83928 207.927989 
L 398.487273 218.214009 
L 398.487273 218.214009 
" style="fill:none;stroke:#008000;stroke-linecap:square;stroke-opacity:0.9;stroke-width:2;"/>
   </g>
   <g id="line2d_17">
    <path clip-path="url(#p370dac5d85)" d="M 73.832727 60.779289 
L 75.48072 56.643675 
L 80.424698 52.978394 
L 82.07269 64.202565 
L 83.720683 63.896125 
L 87.016668 75.484137 
L 91.960646 72.286419 
L 93.608639 81.260347 
L 95.256631 104.235883 
L 96.904624 101.504932 
L 98.552617 119.160683 
L 103.496594 118.802057 
L 105.144587 102.763545 
L 106.79258 95.533826 
L 108.440572 114.722836 
L 110.088565 117.895558 
L 115.032543 132.806569 
L 116.680535 128.208031 
L 118.328528 124.348321 
L 119.976521 132.121726 
L 121.624513 118.722389 
L 126.568491 127.510663 
L 128.216484 115.475774 
L 129.864476 115.082793 
L 131.512469 112.257463 
L 138.104439 114.063977 
L 139.752432 118.855679 
L 141.400425 125.036351 
L 143.048417 116.03861 
L 144.69641 124.359341 
L 149.640388 113.643654 
L 151.28838 122.10298 
L 152.936373 144.580238 
L 154.584365 146.263816 
L 156.232358 142.804113 
L 161.176336 147.146175 
L 162.824329 141.149279 
L 164.472321 138.279311 
L 166.120314 155.844595 
L 167.768306 155.209164 
L 174.360277 169.970002 
L 176.008269 176.280807 
L 177.656262 181.125093 
L 179.304255 191.740048 
L 184.248233 197.771556 
L 185.896225 203.717401 
L 187.544218 204.237871 
L 189.19221 221.329267 
L 190.840203 216.486771 
L 197.432174 185.966496 
L 199.080166 196.650908 
L 200.728159 205.107996 
L 202.376151 196.313603 
L 207.320129 198.498293 
L 208.968122 187.544793 
L 210.616114 173.607019 
L 212.264107 181.493731 
L 213.9121 191.660231 
L 218.856078 196.588146 
L 220.50407 173.666803 
L 222.152063 175.561737 
L 223.800055 189.029257 
L 225.448048 197.28177 
L 232.040018 206.229351 
L 233.688011 214.680281 
L 235.336004 200.851821 
L 236.983996 196.80327 
L 241.927974 186.515681 
L 243.575967 187.484955 
L 245.223959 183.666217 
L 246.871952 196.359139 
L 248.519945 207.877054 
L 253.463922 219.628348 
L 255.111915 215.173834 
L 256.759908 205.115765 
L 258.4079 213.221477 
L 260.055893 226.290158 
L 264.999871 240.471809 
L 266.647863 229.837517 
L 268.295856 210.50757 
L 269.943849 202.732982 
L 271.591841 193.066365 
L 276.535819 192.145237 
L 278.183812 172.634736 
L 279.831804 165.555438 
L 281.479797 161.729285 
L 283.12779 165.315596 
L 288.071767 137.967222 
L 289.71976 127.390067 
L 293.015745 148.610901 
L 294.663738 149.182386 
L 299.607716 136.082573 
L 301.255708 155.677494 
L 302.903701 166.263257 
L 304.551694 171.3022 
L 306.199686 180.496733 
L 311.143664 182.796197 
L 312.791657 186.230461 
L 314.439649 176.925481 
L 316.087642 184.500794 
L 322.679612 189.654965 
L 324.327605 179.946033 
L 325.975598 193.706204 
L 327.62359 200.088948 
L 329.271583 203.389436 
L 334.215561 200.840737 
L 335.863553 217.485769 
L 337.511546 215.855321 
L 339.159539 213.916801 
L 340.807531 219.880258 
L 345.751509 214.304205 
L 347.399502 211.984683 
L 349.047494 202.900515 
L 350.695487 222.294964 
L 352.343479 229.630187 
L 357.287457 248.038974 
L 358.93545 249.361246 
L 360.583443 263.953839 
L 362.231435 256.40245 
L 363.879428 241.692665 
L 368.823406 246.187746 
L 370.471398 231.380668 
L 372.119391 241.256156 
L 373.767383 235.132189 
L 375.415376 241.367131 
L 380.359354 241.135222 
L 382.007347 253.62778 
L 385.303332 229.810973 
L 386.951324 214.94242 
L 393.543295 216.771155 
L 395.191287 224.761436 
L 396.83928 209.506266 
L 398.487273 219.518442 
L 398.487273 219.518442 
" style="fill:none;stroke:#ec5283;stroke-linecap:square;stroke-width:2;"/>
   </g>
   <g id="line2d_18">
    <path clip-path="url(#p370dac5d85)" d="M 73.832727 60.779289 
L 75.48072 56.944352 
L 80.424698 52.944429 
L 82.07269 64.314422 
L 83.720683 63.773655 
L 87.016668 75.036992 
L 91.960646 72.15757 
L 93.608639 80.575463 
L 95.256631 103.112532 
L 96.904624 100.604567 
L 98.552617 117.809748 
L 103.496594 117.334113 
L 105.144587 101.875661 
L 106.79258 94.6217 
L 108.440572 113.249806 
L 110.088565 116.273832 
L 115.032543 130.914167 
L 116.680535 125.712045 
L 118.328528 121.646712 
L 119.976521 129.283032 
L 121.624513 116.595283 
L 126.568491 124.854227 
L 128.216484 113.183152 
L 129.864476 112.940277 
L 131.512469 110.407886 
L 138.104439 111.946516 
L 139.752432 116.823891 
L 141.400425 122.717403 
L 143.048417 113.907929 
L 144.69641 122.269954 
L 149.640388 111.739952 
L 151.28838 120.068022 
L 152.936373 141.959131 
L 154.584365 143.613744 
L 156.232358 139.519947 
L 161.176336 143.659766 
L 162.824329 138.149909 
L 164.472321 135.110012 
L 166.120314 152.505999 
L 167.768306 151.78945 
L 174.360277 166.448231 
L 176.008269 172.426362 
L 177.656262 177.226899 
L 179.304255 187.537307 
L 184.248233 193.528838 
L 185.896225 199.666492 
L 187.544218 199.524602 
L 189.19221 216.537067 
L 190.840203 211.605608 
L 197.432174 181.975361 
L 199.080166 192.106875 
L 200.728159 200.693584 
L 202.376151 192.241843 
L 207.320129 194.29253 
L 208.968122 183.50344 
L 210.616114 169.72965 
L 212.264107 177.295541 
L 213.9121 187.60555 
L 218.856078 192.374491 
L 220.50407 170.347555 
L 222.152063 172.189536 
L 223.800055 185.374752 
L 225.448048 193.62073 
L 232.040018 202.002704 
L 233.688011 210.357388 
L 235.336004 196.783718 
L 236.983996 193.211053 
L 241.927974 183.342885 
L 243.575967 184.360976 
L 245.223959 180.641845 
L 246.871952 193.189339 
L 248.519945 204.40929 
L 253.463922 215.685329 
L 255.111915 211.137543 
L 256.759908 201.538722 
L 258.4079 209.539268 
L 260.055893 222.153163 
L 264.999871 235.847996 
L 266.647863 225.406302 
L 268.295856 206.491152 
L 269.943849 198.933348 
L 271.591841 189.581048 
L 276.535819 188.332426 
L 278.183812 169.551362 
L 279.831804 162.356931 
L 281.479797 158.751251 
L 283.12779 162.371634 
L 288.071767 135.851763 
L 289.71976 125.419662 
L 291.367753 135.118036 
L 293.015745 145.492317 
L 294.663738 145.822017 
L 299.607716 132.668117 
L 301.255708 152.028873 
L 302.903701 162.336073 
L 304.551694 167.699438 
L 306.199686 176.540361 
L 311.143664 178.572201 
L 312.791657 182.247975 
L 314.439649 172.838293 
L 316.087642 179.922387 
L 322.679612 185.598012 
L 324.327605 176.049716 
L 325.975598 189.102634 
L 327.62359 195.675626 
L 329.271583 198.942412 
L 334.215561 196.307009 
L 335.863553 212.502868 
L 337.511546 211.150328 
L 339.159539 209.028971 
L 340.807531 214.904553 
L 345.751509 209.644644 
L 347.399502 207.315752 
L 349.047494 198.407023 
L 350.695487 217.204378 
L 352.343479 224.417375 
L 357.287457 242.892586 
L 358.93545 244.101108 
L 360.583443 258.371522 
L 362.231435 250.590716 
L 363.879428 235.895547 
L 368.823406 240.687789 
L 370.471398 226.267406 
L 372.119391 235.624256 
L 373.767383 229.829391 
L 375.415376 235.979796 
L 380.359354 235.888779 
L 382.007347 248.044455 
L 385.303332 224.507958 
L 386.951324 209.919083 
L 393.543295 211.577544 
L 395.191287 219.454541 
L 396.83928 204.110125 
L 398.487273 214.372288 
L 398.487273 214.372288 
" style="fill:none;stroke:#00ff00;stroke-linecap:square;stroke-opacity:0.9;stroke-width:2;"/>
   </g>
   <g id="line2d_19">
    <path clip-path="url(#p370dac5d85)" d="M 73.832727 60.779289 
L 75.48072 58.867351 
L 80.424698 58.362442 
L 82.07269 63.228532 
L 83.720683 63.322033 
L 87.016668 73.76448 
L 91.960646 74.224741 
L 93.608639 81.462434 
L 95.256631 103.577567 
L 96.904624 99.79024 
L 98.552617 116.591259 
L 103.496594 113.25052 
L 105.144587 97.356669 
L 106.79258 87.220405 
L 108.440572 107.599211 
L 110.088565 112.599952 
L 115.032543 124.739909 
L 116.680535 121.736256 
L 118.328528 117.50519 
L 119.976521 126.343377 
L 121.624513 110.279109 
L 126.568491 120.776501 
L 128.216484 107.24544 
L 129.864476 108.102813 
L 131.512469 104.568669 
L 138.104439 109.668649 
L 139.752432 115.563854 
L 141.400425 124.418367 
L 143.048417 110.50127 
L 144.69641 121.281616 
L 149.640388 111.77447 
L 151.28838 119.350236 
L 152.936373 145.819763 
L 154.584365 147.699091 
L 156.232358 143.395169 
L 161.176336 148.867698 
L 162.824329 143.361452 
L 164.472321 143.392347 
L 166.120314 161.996611 
L 167.768306 161.932724 
L 174.360277 177.277964 
L 176.008269 184.182413 
L 177.656262 189.373536 
L 179.304255 199.382399 
L 184.248233 202.989368 
L 185.896225 208.499417 
L 187.544218 207.978251 
L 189.19221 224.849519 
L 190.840203 220.108082 
L 195.784181 194.15529 
L 197.432174 186.200096 
L 199.080166 199.330929 
L 200.728159 209.054108 
L 202.376151 199.030429 
L 207.320129 202.414726 
L 208.968122 191.460414 
L 210.616114 175.700367 
L 212.264107 183.461676 
L 213.9121 193.114943 
L 218.856078 197.993227 
L 220.50407 167.690481 
L 222.152063 171.318402 
L 223.800055 186.328027 
L 225.448048 197.087389 
L 232.040018 206.570106 
L 233.688011 214.769651 
L 235.336004 198.702079 
L 236.983996 196.222342 
L 241.927974 183.760348 
L 243.575967 179.03434 
L 245.223959 176.436347 
L 246.871952 192.716296 
L 248.519945 204.655713 
L 253.463922 217.068387 
L 255.111915 213.684604 
L 256.759908 201.682864 
L 258.4079 211.905876 
L 260.055893 224.639262 
L 264.999871 240.378324 
L 266.647863 229.009865 
L 268.295856 206.049915 
L 269.943849 199.61847 
L 271.591841 188.655267 
L 276.535819 187.300034 
L 278.183812 163.949527 
L 279.831804 156.290496 
L 281.479797 152.455028 
L 283.12779 159.081931 
L 288.071767 136.411929 
L 289.71976 121.271755 
L 291.367753 128.4725 
L 293.015745 141.417945 
L 294.663738 138.058038 
L 299.607716 125.5454 
L 301.255708 145.605113 
L 302.903701 154.956456 
L 304.551694 159.681356 
L 306.199686 167.89341 
L 311.143664 169.647749 
L 312.791657 172.499186 
L 314.439649 162.351173 
L 316.087642 171.994662 
L 322.679612 179.096232 
L 324.327605 168.439648 
L 325.975598 185.270215 
L 327.62359 194.011379 
L 329.271583 196.001337 
L 334.215561 190.513024 
L 335.863553 206.573926 
L 337.511546 206.977541 
L 339.159539 204.254463 
L 340.807531 211.504123 
L 345.751509 202.447425 
L 347.399502 201.059503 
L 349.047494 190.72104 
L 350.695487 212.109327 
L 352.343479 222.302049 
L 357.287457 243.090913 
L 358.93545 243.97706 
L 360.583443 260.819938 
L 362.231435 250.587522 
L 363.879428 233.372001 
L 368.823406 239.371358 
L 370.471398 223.345989 
L 372.119391 233.598515 
L 373.767383 226.581912 
L 375.415376 234.05946 
L 380.359354 234.75797 
L 382.007347 248.85197 
L 383.655339 235.394725 
L 385.303332 223.502752 
L 386.951324 206.935714 
L 393.543295 208.016709 
L 395.191287 217.386082 
L 396.83928 199.890057 
L 398.487273 212.555306 
L 398.487273 212.555306 
" style="fill:none;stroke:#a5b9cf;stroke-linecap:square;stroke-width:2;"/>
   </g>
   <g id="patch_3">
    <path d="M 57.6 276.48 
L 57.6 41.472 
" style="fill:none;stroke:#000000;stroke-linecap:square;stroke-linejoin:miter;stroke-width:0.8;"/>
   </g>
   <g id="patch_4">
    <path d="M 414.72 276.48 
L 414.72 41.472 
" style="fill:none;stroke:#000000;stroke-linecap:square;stroke-linejoin:miter;stroke-width:0.8;"/>
   </g>
   <g id="patch_5">
    <path d="M 57.6 276.48 
L 414.72 276.48 
" style="fill:none;stroke:#000000;stroke-linecap:square;stroke-linejoin:miter;stroke-width:0.8;"/>
   </g>
   <g id="patch_6">
    <path d="M 57.6 41.472 
L 414.72 41.472 
" style="fill:none;stroke:#000000;stroke-linecap:square;stroke-linejoin:miter;stroke-width:0.8;"/>
   </g>
   <g id="text_15">
    <!-- STONKS -->
    <g transform="translate(211.730625 22.034625)scale(0.12 -0.12)">
     <defs>
      <path d="M 3425 4513 
L 3425 3897 
Q 3066 4069 2747 4153 
Q 2428 4238 2131 4238 
Q 1616 4238 1336 4038 
Q 1056 3838 1056 3469 
Q 1056 3159 1242 3001 
Q 1428 2844 1947 2747 
L 2328 2669 
Q 3034 2534 3370 2195 
Q 3706 1856 3706 1288 
Q 3706 609 3251 259 
Q 2797 -91 1919 -91 
Q 1588 -91 1214 -16 
Q 841 59 441 206 
L 441 856 
Q 825 641 1194 531 
Q 1563 422 1919 422 
Q 2459 422 2753 634 
Q 3047 847 3047 1241 
Q 3047 1584 2836 1778 
Q 2625 1972 2144 2069 
L 1759 2144 
Q 1053 2284 737 2584 
Q 422 2884 422 3419 
Q 422 4038 858 4394 
Q 1294 4750 2059 4750 
Q 2388 4750 2728 4690 
Q 3069 4631 3425 4513 
z
" id="DejaVuSans-53" transform="scale(0.015625)"/>
      <path d="M -19 4666 
L 3928 4666 
L 3928 4134 
L 2272 4134 
L 2272 0 
L 1638 0 
L 1638 4134 
L -19 4134 
L -19 4666 
z
" id="DejaVuSans-54" transform="scale(0.015625)"/>
      <path d="M 2522 4238 
Q 1834 4238 1429 3725 
Q 1025 3213 1025 2328 
Q 1025 1447 1429 934 
Q 1834 422 2522 422 
Q 3209 422 3611 934 
Q 4013 1447 4013 2328 
Q 4013 3213 3611 3725 
Q 3209 4238 2522 4238 
z
M 2522 4750 
Q 3503 4750 4090 4092 
Q 4678 3434 4678 2328 
Q 4678 1225 4090 567 
Q 3503 -91 2522 -91 
Q 1538 -91 948 565 
Q 359 1222 359 2328 
Q 359 3434 948 4092 
Q 1538 4750 2522 4750 
z
" id="DejaVuSans-4f" transform="scale(0.015625)"/>
      <path d="M 628 4666 
L 1478 4666 
L 3547 763 
L 3547 4666 
L 4159 4666 
L 4159 0 
L 3309 0 
L 1241 3903 
L 1241 0 
L 628 0 
L 628 4666 
z
" id="DejaVuSans-4e" transform="scale(0.015625)"/>
      <path d="M 628 4666 
L 1259 4666 
L 1259 2694 
L 3353 4666 
L 4166 4666 
L 1850 2491 
L 4331 0 
L 3500 0 
L 1259 2247 
L 1259 0 
L 628 0 
L 628 4666 
z
" id="DejaVuSans-4b" transform="scale(0.015625)"/>
     </defs>
     <use xlink:href="#DejaVuSans-53"/>
     <use x="63.476562" xlink:href="#DejaVuSans-54"/>
     <use x="124.560547" xlink:href="#DejaVuSans-4f"/>
     <use x="203.271484" xlink:href="#DejaVuSans-4e"/>
     <use x="278.076172" xlink:href="#DejaVuSans-4b"/>
     <use x="343.652344" xlink:href="#DejaVuSans-53"/>
    </g>
    <!-- daily_report -->
    <g transform="translate(200.466563 35.472)scale(0.12 -0.12)">
     <defs>
      <path d="M 603 3500 
L 1178 3500 
L 1178 0 
L 603 0 
L 603 3500 
z
M 603 4863 
L 1178 4863 
L 1178 4134 
L 603 4134 
L 603 4863 
z
" id="DejaVuSans-69" transform="scale(0.015625)"/>
      <path d="M 603 4863 
L 1178 4863 
L 1178 0 
L 603 0 
L 603 4863 
z
" id="DejaVuSans-6c" transform="scale(0.015625)"/>
      <path d="M 2059 -325 
Q 1816 -950 1584 -1140 
Q 1353 -1331 966 -1331 
L 506 -1331 
L 506 -850 
L 844 -850 
Q 1081 -850 1212 -737 
Q 1344 -625 1503 -206 
L 1606 56 
L 191 3500 
L 800 3500 
L 1894 763 
L 2988 3500 
L 3597 3500 
L 2059 -325 
z
" id="DejaVuSans-79" transform="scale(0.015625)"/>
      <path d="M 3263 -1063 
L 3263 -1509 
L -63 -1509 
L -63 -1063 
L 3263 -1063 
z
" id="DejaVuSans-5f" transform="scale(0.015625)"/>
      <path d="M 2631 2963 
Q 2534 3019 2420 3045 
Q 2306 3072 2169 3072 
Q 1681 3072 1420 2755 
Q 1159 2438 1159 1844 
L 1159 0 
L 581 0 
L 581 3500 
L 1159 3500 
L 1159 2956 
Q 1341 3275 1631 3429 
Q 1922 3584 2338 3584 
Q 2397 3584 2469 3576 
Q 2541 3569 2628 3553 
L 2631 2963 
z
" id="DejaVuSans-72" transform="scale(0.015625)"/>
      <path d="M 1159 525 
L 1159 -1331 
L 581 -1331 
L 581 3500 
L 1159 3500 
L 1159 2969 
Q 1341 3281 1617 3432 
Q 1894 3584 2278 3584 
Q 2916 3584 3314 3078 
Q 3713 2572 3713 1747 
Q 3713 922 3314 415 
Q 2916 -91 2278 -91 
Q 1894 -91 1617 61 
Q 1341 213 1159 525 
z
M 3116 1747 
Q 3116 2381 2855 2742 
Q 2594 3103 2138 3103 
Q 1681 3103 1420 2742 
Q 1159 2381 1159 1747 
Q 1159 1113 1420 752 
Q 1681 391 2138 391 
Q 2594 391 2855 752 
Q 3116 1113 3116 1747 
z
" id="DejaVuSans-70" transform="scale(0.015625)"/>
      <path d="M 1959 3097 
Q 1497 3097 1228 2736 
Q 959 2375 959 1747 
Q 959 1119 1226 758 
Q 1494 397 1959 397 
Q 2419 397 2687 759 
Q 2956 1122 2956 1747 
Q 2956 2369 2687 2733 
Q 2419 3097 1959 3097 
z
M 1959 3584 
Q 2709 3584 3137 3096 
Q 3566 2609 3566 1747 
Q 3566 888 3137 398 
Q 2709 -91 1959 -91 
Q 1206 -91 779 398 
Q 353 888 353 1747 
Q 353 2609 779 3096 
Q 1206 3584 1959 3584 
z
" id="DejaVuSans-6f" transform="scale(0.015625)"/>
     </defs>
     <use xlink:href="#DejaVuSans-64"/>
     <use x="63.476562" xlink:href="#DejaVuSans-61"/>
     <use x="124.755859" xlink:href="#DejaVuSans-69"/>
     <use x="152.539062" xlink:href="#DejaVuSans-6c"/>
     <use x="180.322266" xlink:href="#DejaVuSans-79"/>
     <use x="239.501953" xlink:href="#DejaVuSans-5f"/>
     <use x="289.501953" xlink:href="#DejaVuSans-72"/>
     <use x="328.365234" xlink:href="#DejaVuSans-65"/>
     <use x="389.888672" xlink:href="#DejaVuSans-70"/>
     <use x="453.365234" xlink:href="#DejaVuSans-6f"/>
     <use x="514.546875" xlink:href="#DejaVuSans-72"/>
     <use x="555.660156" xlink:href="#DejaVuSans-74"/>
    </g>
   </g>
   <g id="legend_1">
    <g id="patch_7">
     <path d="M 293.67625 137.54075 
L 407.72 137.54075 
Q 409.72 137.54075 409.72 135.54075 
L 409.72 48.472 
Q 409.72 46.472 407.72 46.472 
L 293.67625 46.472 
Q 291.67625 46.472 291.67625 48.472 
L 291.67625 135.54075 
Q 291.67625 137.54075 293.67625 137.54075 
z
" style="fill:#ffffff;opacity:0.8;stroke:#cccccc;stroke-linejoin:miter;"/>
    </g>
    <g id="line2d_20">
     <path d="M 295.67625 54.570437 
L 315.67625 54.570437 
" style="fill:none;stroke:#0000ff;stroke-linecap:square;stroke-opacity:0.9;stroke-width:2;"/>
    </g>
    <g id="line2d_21"/>
    <g id="text_16">
     <!-- alpaca -->
     <g transform="translate(323.67625 58.070437)scale(0.1 -0.1)">
      <defs>
       <path d="M 3122 3366 
L 3122 2828 
Q 2878 2963 2633 3030 
Q 2388 3097 2138 3097 
Q 1578 3097 1268 2742 
Q 959 2388 959 1747 
Q 959 1106 1268 751 
Q 1578 397 2138 397 
Q 2388 397 2633 464 
Q 2878 531 3122 666 
L 3122 134 
Q 2881 22 2623 -34 
Q 2366 -91 2075 -91 
Q 1284 -91 818 406 
Q 353 903 353 1747 
Q 353 2603 823 3093 
Q 1294 3584 2113 3584 
Q 2378 3584 2631 3529 
Q 2884 3475 3122 3366 
z
" id="DejaVuSans-63" transform="scale(0.015625)"/>
      </defs>
      <use xlink:href="#DejaVuSans-61"/>
      <use x="61.279297" xlink:href="#DejaVuSans-6c"/>
      <use x="89.0625" xlink:href="#DejaVuSans-70"/>
      <use x="152.539062" xlink:href="#DejaVuSans-61"/>
      <use x="213.818359" xlink:href="#DejaVuSans-63"/>
      <use x="268.798828" xlink:href="#DejaVuSans-61"/>
     </g>
    </g>
    <g id="line2d_22">
     <path d="M 295.67625 69.248562 
L 315.67625 69.248562 
" style="fill:none;stroke:#ff0000;stroke-linecap:square;stroke-opacity:0.9;stroke-width:2;"/>
    </g>
    <g id="line2d_23"/>
    <g id="text_17">
     <!-- mattress -->
     <g transform="translate(323.67625 72.748562)scale(0.1 -0.1)">
      <defs>
       <path d="M 3328 2828 
Q 3544 3216 3844 3400 
Q 4144 3584 4550 3584 
Q 5097 3584 5394 3201 
Q 5691 2819 5691 2113 
L 5691 0 
L 5113 0 
L 5113 2094 
Q 5113 2597 4934 2840 
Q 4756 3084 4391 3084 
Q 3944 3084 3684 2787 
Q 3425 2491 3425 1978 
L 3425 0 
L 2847 0 
L 2847 2094 
Q 2847 2600 2669 2842 
Q 2491 3084 2119 3084 
Q 1678 3084 1418 2786 
Q 1159 2488 1159 1978 
L 1159 0 
L 581 0 
L 581 3500 
L 1159 3500 
L 1159 2956 
Q 1356 3278 1631 3431 
Q 1906 3584 2284 3584 
Q 2666 3584 2933 3390 
Q 3200 3197 3328 2828 
z
" id="DejaVuSans-6d" transform="scale(0.015625)"/>
       <path d="M 2834 3397 
L 2834 2853 
Q 2591 2978 2328 3040 
Q 2066 3103 1784 3103 
Q 1356 3103 1142 2972 
Q 928 2841 928 2578 
Q 928 2378 1081 2264 
Q 1234 2150 1697 2047 
L 1894 2003 
Q 2506 1872 2764 1633 
Q 3022 1394 3022 966 
Q 3022 478 2636 193 
Q 2250 -91 1575 -91 
Q 1294 -91 989 -36 
Q 684 19 347 128 
L 347 722 
Q 666 556 975 473 
Q 1284 391 1588 391 
Q 1994 391 2212 530 
Q 2431 669 2431 922 
Q 2431 1156 2273 1281 
Q 2116 1406 1581 1522 
L 1381 1569 
Q 847 1681 609 1914 
Q 372 2147 372 2553 
Q 372 3047 722 3315 
Q 1072 3584 1716 3584 
Q 2034 3584 2315 3537 
Q 2597 3491 2834 3397 
z
" id="DejaVuSans-73" transform="scale(0.015625)"/>
      </defs>
      <use xlink:href="#DejaVuSans-6d"/>
      <use x="97.412109" xlink:href="#DejaVuSans-61"/>
      <use x="158.691406" xlink:href="#DejaVuSans-74"/>
      <use x="197.900391" xlink:href="#DejaVuSans-74"/>
      <use x="237.109375" xlink:href="#DejaVuSans-72"/>
      <use x="275.972656" xlink:href="#DejaVuSans-65"/>
      <use x="337.496094" xlink:href="#DejaVuSans-73"/>
      <use x="389.595703" xlink:href="#DejaVuSans-73"/>
     </g>
    </g>
    <g id="line2d_24">
     <path d="M 295.67625 83.926687 
L 315.67625 83.926687 
" style="fill:none;stroke:#008000;stroke-linecap:square;stroke-opacity:0.9;stroke-width:2;"/>
    </g>
    <g id="line2d_25"/>
    <g id="text_18">
     <!-- daily-open-rebal -->
     <g transform="translate(323.67625 87.426687)scale(0.1 -0.1)">
      <defs>
       <path d="M 3513 2113 
L 3513 0 
L 2938 0 
L 2938 2094 
Q 2938 2591 2744 2837 
Q 2550 3084 2163 3084 
Q 1697 3084 1428 2787 
Q 1159 2491 1159 1978 
L 1159 0 
L 581 0 
L 581 3500 
L 1159 3500 
L 1159 2956 
Q 1366 3272 1645 3428 
Q 1925 3584 2291 3584 
Q 2894 3584 3203 3211 
Q 3513 2838 3513 2113 
z
" id="DejaVuSans-6e" transform="scale(0.015625)"/>
       <path d="M 3116 1747 
Q 3116 2381 2855 2742 
Q 2594 3103 2138 3103 
Q 1681 3103 1420 2742 
Q 1159 2381 1159 1747 
Q 1159 1113 1420 752 
Q 1681 391 2138 391 
Q 2594 391 2855 752 
Q 3116 1113 3116 1747 
z
M 1159 2969 
Q 1341 3281 1617 3432 
Q 1894 3584 2278 3584 
Q 2916 3584 3314 3078 
Q 3713 2572 3713 1747 
Q 3713 922 3314 415 
Q 2916 -91 2278 -91 
Q 1894 -91 1617 61 
Q 1341 213 1159 525 
L 1159 0 
L 581 0 
L 581 4863 
L 1159 4863 
L 1159 2969 
z
" id="DejaVuSans-62" transform="scale(0.015625)"/>
      </defs>
      <use xlink:href="#DejaVuSans-64"/>
      <use x="63.476562" xlink:href="#DejaVuSans-61"/>
      <use x="124.755859" xlink:href="#DejaVuSans-69"/>
      <use x="152.539062" xlink:href="#DejaVuSans-6c"/>
      <use x="180.322266" xlink:href="#DejaVuSans-79"/>
      <use x="237.751953" xlink:href="#DejaVuSans-2d"/>
      <use x="275.710938" xlink:href="#DejaVuSans-6f"/>
      <use x="336.892578" xlink:href="#DejaVuSans-70"/>
      <use x="400.369141" xlink:href="#DejaVuSans-65"/>
      <use x="461.892578" xlink:href="#DejaVuSans-6e"/>
      <use x="525.271484" xlink:href="#DejaVuSans-2d"/>
      <use x="561.355469" xlink:href="#DejaVuSans-72"/>
      <use x="600.21875" xlink:href="#DejaVuSans-65"/>
      <use x="661.742188" xlink:href="#DejaVuSans-62"/>
      <use x="725.21875" xlink:href="#DejaVuSans-61"/>
      <use x="786.498047" xlink:href="#DejaVuSans-6c"/>
     </g>
    </g>
    <g id="line2d_26">
     <path d="M 295.67625 98.604812 
L 315.67625 98.604812 
" style="fill:none;stroke:#ec5283;stroke-linecap:square;stroke-width:2;"/>
    </g>
    <g id="line2d_27"/>
    <g id="text_19">
     <!-- daily-close-rebal -->
     <g transform="translate(323.67625 102.104812)scale(0.1 -0.1)">
      <use xlink:href="#DejaVuSans-64"/>
      <use x="63.476562" xlink:href="#DejaVuSans-61"/>
      <use x="124.755859" xlink:href="#DejaVuSans-69"/>
      <use x="152.539062" xlink:href="#DejaVuSans-6c"/>
      <use x="180.322266" xlink:href="#DejaVuSans-79"/>
      <use x="237.751953" xlink:href="#DejaVuSans-2d"/>
      <use x="273.835938" xlink:href="#DejaVuSans-63"/>
      <use x="328.816406" xlink:href="#DejaVuSans-6c"/>
      <use x="356.599609" xlink:href="#DejaVuSans-6f"/>
      <use x="417.78125" xlink:href="#DejaVuSans-73"/>
      <use x="469.880859" xlink:href="#DejaVuSans-65"/>
      <use x="531.404297" xlink:href="#DejaVuSans-2d"/>
      <use x="567.488281" xlink:href="#DejaVuSans-72"/>
      <use x="606.351562" xlink:href="#DejaVuSans-65"/>
      <use x="667.875" xlink:href="#DejaVuSans-62"/>
      <use x="731.351562" xlink:href="#DejaVuSans-61"/>
      <use x="792.630859" xlink:href="#DejaVuSans-6c"/>
     </g>
    </g>
    <g id="line2d_28">
     <path d="M 295.67625 113.282937 
L 315.67625 113.282937 
" style="fill:none;stroke:#00ff00;stroke-linecap:square;stroke-opacity:0.9;stroke-width:2;"/>
    </g>
    <g id="line2d_29"/>
    <g id="text_20">
     <!-- trader-baseline -->
     <g transform="translate(323.67625 116.782937)scale(0.1 -0.1)">
      <use xlink:href="#DejaVuSans-74"/>
      <use x="39.208984" xlink:href="#DejaVuSans-72"/>
      <use x="80.322266" xlink:href="#DejaVuSans-61"/>
      <use x="141.601562" xlink:href="#DejaVuSans-64"/>
      <use x="205.078125" xlink:href="#DejaVuSans-65"/>
      <use x="266.601562" xlink:href="#DejaVuSans-72"/>
      <use x="301.339844" xlink:href="#DejaVuSans-2d"/>
      <use x="337.423828" xlink:href="#DejaVuSans-62"/>
      <use x="400.900391" xlink:href="#DejaVuSans-61"/>
      <use x="462.179688" xlink:href="#DejaVuSans-73"/>
      <use x="514.279297" xlink:href="#DejaVuSans-65"/>
      <use x="575.802734" xlink:href="#DejaVuSans-6c"/>
      <use x="603.585938" xlink:href="#DejaVuSans-69"/>
      <use x="631.369141" xlink:href="#DejaVuSans-6e"/>
      <use x="694.748047" xlink:href="#DejaVuSans-65"/>
     </g>
    </g>
    <g id="line2d_30">
     <path d="M 295.67625 127.961062 
L 315.67625 127.961062 
" style="fill:none;stroke:#a5b9cf;stroke-linecap:square;stroke-width:2;"/>
    </g>
    <g id="line2d_31"/>
    <g id="text_21">
     <!-- default-cfg -->
     <g transform="translate(323.67625 131.461062)scale(0.1 -0.1)">
      <defs>
       <path d="M 2375 4863 
L 2375 4384 
L 1825 4384 
Q 1516 4384 1395 4259 
Q 1275 4134 1275 3809 
L 1275 3500 
L 2222 3500 
L 2222 3053 
L 1275 3053 
L 1275 0 
L 697 0 
L 697 3053 
L 147 3053 
L 147 3500 
L 697 3500 
L 697 3744 
Q 697 4328 969 4595 
Q 1241 4863 1831 4863 
L 2375 4863 
z
" id="DejaVuSans-66" transform="scale(0.015625)"/>
       <path d="M 544 1381 
L 544 3500 
L 1119 3500 
L 1119 1403 
Q 1119 906 1312 657 
Q 1506 409 1894 409 
Q 2359 409 2629 706 
Q 2900 1003 2900 1516 
L 2900 3500 
L 3475 3500 
L 3475 0 
L 2900 0 
L 2900 538 
Q 2691 219 2414 64 
Q 2138 -91 1772 -91 
Q 1169 -91 856 284 
Q 544 659 544 1381 
z
M 1991 3584 
L 1991 3584 
z
" id="DejaVuSans-75" transform="scale(0.015625)"/>
       <path d="M 2906 1791 
Q 2906 2416 2648 2759 
Q 2391 3103 1925 3103 
Q 1463 3103 1205 2759 
Q 947 2416 947 1791 
Q 947 1169 1205 825 
Q 1463 481 1925 481 
Q 2391 481 2648 825 
Q 2906 1169 2906 1791 
z
M 3481 434 
Q 3481 -459 3084 -895 
Q 2688 -1331 1869 -1331 
Q 1566 -1331 1297 -1286 
Q 1028 -1241 775 -1147 
L 775 -588 
Q 1028 -725 1275 -790 
Q 1522 -856 1778 -856 
Q 2344 -856 2625 -561 
Q 2906 -266 2906 331 
L 2906 616 
Q 2728 306 2450 153 
Q 2172 0 1784 0 
Q 1141 0 747 490 
Q 353 981 353 1791 
Q 353 2603 747 3093 
Q 1141 3584 1784 3584 
Q 2172 3584 2450 3431 
Q 2728 3278 2906 2969 
L 2906 3500 
L 3481 3500 
L 3481 434 
z
" id="DejaVuSans-67" transform="scale(0.015625)"/>
      </defs>
      <use xlink:href="#DejaVuSans-64"/>
      <use x="63.476562" xlink:href="#DejaVuSans-65"/>
      <use x="125" xlink:href="#DejaVuSans-66"/>
      <use x="160.205078" xlink:href="#DejaVuSans-61"/>
      <use x="221.484375" xlink:href="#DejaVuSans-75"/>
      <use x="284.863281" xlink:href="#DejaVuSans-6c"/>
      <use x="312.646484" xlink:href="#DejaVuSans-74"/>
      <use x="351.855469" xlink:href="#DejaVuSans-2d"/>
      <use x="387.939453" xlink:href="#DejaVuSans-63"/>
      <use x="442.919922" xlink:href="#DejaVuSans-66"/>
      <use x="478.125" xlink:href="#DejaVuSans-67"/>
     </g>
    </g>
   </g>
  </g>
 </g>
 <defs>
  <clipPath id="p370dac5d85">
   <rect height="235.008" width="357.12" x="57.6" y="41.472"/>
  </clipPath>
 </defs>
</svg>
