<?xml version="1.0" encoding="utf-8" standalone="no"?>
<!DOCTYPE svg PUBLIC "-//W3C//DTD SVG 1.1//EN"
  "http://www.w3.org/Graphics/SVG/1.1/DTD/svg11.dtd">
<svg height="345.6pt" version="1.1" viewBox="0 0 460.8 345.6" width="460.8pt" xmlns="http://www.w3.org/2000/svg" xmlns:xlink="http://www.w3.org/1999/xlink">
 <metadata>
  <rdf:RDF xmlns:cc="http://creativecommons.org/ns#" xmlns:dc="http://purl.org/dc/elements/1.1/" xmlns:rdf="http://www.w3.org/1999/02/22-rdf-syntax-ns#">
   <cc:Work>
    <dc:type rdf:resource="http://purl.org/dc/dcmitype/StillImage"/>
    <dc:date>2022-03-08T10:02:38.620931</dc:date>
    <dc:format>image/svg+xml</dc:format>
    <dc:creator>
     <cc:Agent>
      <dc:title>Matplotlib v3.4.3, https://matplotlib.org/</dc:title>
     </cc:Agent>
    </dc:creator>
   </cc:Work>
  </rdf:RDF>
 </metadata>
 <defs>
  <style type="text/css">*{stroke-linecap:butt;stroke-linejoin:round;}</style>
 </defs>
 <g id="figure_1">
  <g id="patch_1">
   <path d="M 0 345.6 
L 460.8 345.6 
L 460.8 0 
L 0 0 
z
" style="fill:#ffffff;"/>
  </g>
  <g id="axes_1">
   <g id="patch_2">
    <path d="M 57.6 276.48 
L 414.72 276.48 
L 414.72 41.472 
L 57.6 41.472 
z
" style="fill:#ffffff;"/>
   </g>
   <g id="matplotlib.axis_1">
    <g id="xtick_1">
     <g id="line2d_1">
      <defs>
       <path d="M 0 0 
L 0 3.5 
" id="m1c7480dcaf" style="stroke:#000000;stroke-width:0.8;"/>
      </defs>
      <g>
       <use style="stroke:#000000;stroke-width:0.8;" x="64.897281" xlink:href="#m1c7480dcaf" y="276.48"/>
      </g>
     </g>
     <g id="text_1">
      <!-- 2021-11-15 -->
      <g transform="translate(13.52783 319.118252)rotate(-30)scale(0.1 -0.1)">
       <defs>
        <path d="M 1228 531 
L 3431 531 
L 3431 0 
L 469 0 
L 469 531 
Q 828 903 1448 1529 
Q 2069 2156 2228 2338 
Q 2531 2678 2651 2914 
Q 2772 3150 2772 3378 
Q 2772 3750 2511 3984 
Q 2250 4219 1831 4219 
Q 1534 4219 1204 4116 
Q 875 4013 500 3803 
L 500 4441 
Q 881 4594 1212 4672 
Q 1544 4750 1819 4750 
Q 2544 4750 2975 4387 
Q 3406 4025 3406 3419 
Q 3406 3131 3298 2873 
Q 3191 2616 2906 2266 
Q 2828 2175 2409 1742 
Q 1991 1309 1228 531 
z
" id="DejaVuSans-32" transform="scale(0.015625)"/>
        <path d="M 2034 4250 
Q 1547 4250 1301 3770 
Q 1056 3291 1056 2328 
Q 1056 1369 1301 889 
Q 1547 409 2034 409 
Q 2525 409 2770 889 
Q 3016 1369 3016 2328 
Q 3016 3291 2770 3770 
Q 2525 4250 2034 4250 
z
M 2034 4750 
Q 2819 4750 3233 4129 
Q 3647 3509 3647 2328 
Q 3647 1150 3233 529 
Q 2819 -91 2034 -91 
Q 1250 -91 836 529 
Q 422 1150 422 2328 
Q 422 3509 836 4129 
Q 1250 4750 2034 4750 
z
" id="DejaVuSans-30" transform="scale(0.015625)"/>
        <path d="M 794 531 
L 1825 531 
L 1825 4091 
L 703 3866 
L 703 4441 
L 1819 4666 
L 2450 4666 
L 2450 531 
L 3481 531 
L 3481 0 
L 794 0 
L 794 531 
z
" id="DejaVuSans-31" transform="scale(0.015625)"/>
        <path d="M 313 2009 
L 1997 2009 
L 1997 1497 
L 313 1497 
L 313 2009 
z
" id="DejaVuSans-2d" transform="scale(0.015625)"/>
        <path d="M 691 4666 
L 3169 4666 
L 3169 4134 
L 1269 4134 
L 1269 2991 
Q 1406 3038 1543 3061 
Q 1681 3084 1819 3084 
Q 2600 3084 3056 2656 
Q 3513 2228 3513 1497 
Q 3513 744 3044 326 
Q 2575 -91 1722 -91 
Q 1428 -91 1123 -41 
Q 819 9 494 109 
L 494 744 
Q 775 591 1075 516 
Q 1375 441 1709 441 
Q 2250 441 2565 725 
Q 2881 1009 2881 1497 
Q 2881 1984 2565 2268 
Q 2250 2553 1709 2553 
Q 1456 2553 1204 2497 
Q 953 2441 691 2322 
L 691 4666 
z
" id="DejaVuSans-35" transform="scale(0.015625)"/>
       </defs>
       <use xlink:href="#DejaVuSans-32"/>
       <use x="63.623047" xlink:href="#DejaVuSans-30"/>
       <use x="127.246094" xlink:href="#DejaVuSans-32"/>
       <use x="190.869141" xlink:href="#DejaVuSans-31"/>
       <use x="254.492188" xlink:href="#DejaVuSans-2d"/>
       <use x="290.576172" xlink:href="#DejaVuSans-31"/>
       <use x="354.199219" xlink:href="#DejaVuSans-31"/>
       <use x="417.822266" xlink:href="#DejaVuSans-2d"/>
       <use x="453.90625" xlink:href="#DejaVuSans-31"/>
       <use x="517.529297" xlink:href="#DejaVuSans-35"/>
      </g>
     </g>
    </g>
    <g id="xtick_2">
     <g id="line2d_2">
      <g>
       <use style="stroke:#000000;stroke-width:0.8;" x="112.552994" xlink:href="#m1c7480dcaf" y="276.48"/>
      </g>
     </g>
     <g id="text_2">
      <!-- 2021-12-01 -->
      <g transform="translate(61.183543 319.118252)rotate(-30)scale(0.1 -0.1)">
       <use xlink:href="#DejaVuSans-32"/>
       <use x="63.623047" xlink:href="#DejaVuSans-30"/>
       <use x="127.246094" xlink:href="#DejaVuSans-32"/>
       <use x="190.869141" xlink:href="#DejaVuSans-31"/>
       <use x="254.492188" xlink:href="#DejaVuSans-2d"/>
       <use x="290.576172" xlink:href="#DejaVuSans-31"/>
       <use x="354.199219" xlink:href="#DejaVuSans-32"/>
       <use x="417.822266" xlink:href="#DejaVuSans-2d"/>
       <use x="453.90625" xlink:href="#DejaVuSans-30"/>
       <use x="517.529297" xlink:href="#DejaVuSans-31"/>
      </g>
     </g>
    </g>
    <g id="xtick_3">
     <g id="line2d_3">
      <g>
       <use style="stroke:#000000;stroke-width:0.8;" x="154.251743" xlink:href="#m1c7480dcaf" y="276.48"/>
      </g>
     </g>
     <g id="text_3">
      <!-- 2021-12-15 -->
      <g transform="translate(102.882292 319.118252)rotate(-30)scale(0.1 -0.1)">
       <use xlink:href="#DejaVuSans-32"/>
       <use x="63.623047" xlink:href="#DejaVuSans-30"/>
       <use x="127.246094" xlink:href="#DejaVuSans-32"/>
       <use x="190.869141" xlink:href="#DejaVuSans-31"/>
       <use x="254.492188" xlink:href="#DejaVuSans-2d"/>
       <use x="290.576172" xlink:href="#DejaVuSans-31"/>
       <use x="354.199219" xlink:href="#DejaVuSans-32"/>
       <use x="417.822266" xlink:href="#DejaVuSans-2d"/>
       <use x="453.90625" xlink:href="#DejaVuSans-31"/>
       <use x="517.529297" xlink:href="#DejaVuSans-35"/>
      </g>
     </g>
    </g>
    <g id="xtick_4">
     <g id="line2d_4">
      <g>
       <use style="stroke:#000000;stroke-width:0.8;" x="204.885938" xlink:href="#m1c7480dcaf" y="276.48"/>
      </g>
     </g>
     <g id="text_4">
      <!-- 2022-01-01 -->
      <g transform="translate(153.516487 319.118252)rotate(-30)scale(0.1 -0.1)">
       <use xlink:href="#DejaVuSans-32"/>
       <use x="63.623047" xlink:href="#DejaVuSans-30"/>
       <use x="127.246094" xlink:href="#DejaVuSans-32"/>
       <use x="190.869141" xlink:href="#DejaVuSans-32"/>
       <use x="254.492188" xlink:href="#DejaVuSans-2d"/>
       <use x="290.576172" xlink:href="#DejaVuSans-30"/>
       <use x="354.199219" xlink:href="#DejaVuSans-31"/>
       <use x="417.822266" xlink:href="#DejaVuSans-2d"/>
       <use x="453.90625" xlink:href="#DejaVuSans-30"/>
       <use x="517.529297" xlink:href="#DejaVuSans-31"/>
      </g>
     </g>
    </g>
    <g id="xtick_5">
     <g id="line2d_5">
      <g>
       <use style="stroke:#000000;stroke-width:0.8;" x="246.584687" xlink:href="#m1c7480dcaf" y="276.48"/>
      </g>
     </g>
     <g id="text_5">
      <!-- 2022-01-15 -->
      <g transform="translate(195.215236 319.118252)rotate(-30)scale(0.1 -0.1)">
       <use xlink:href="#DejaVuSans-32"/>
       <use x="63.623047" xlink:href="#DejaVuSans-30"/>
       <use x="127.246094" xlink:href="#DejaVuSans-32"/>
       <use x="190.869141" xlink:href="#DejaVuSans-32"/>
       <use x="254.492188" xlink:href="#DejaVuSans-2d"/>
       <use x="290.576172" xlink:href="#DejaVuSans-30"/>
       <use x="354.199219" xlink:href="#DejaVuSans-31"/>
       <use x="417.822266" xlink:href="#DejaVuSans-2d"/>
       <use x="453.90625" xlink:href="#DejaVuSans-31"/>
       <use x="517.529297" xlink:href="#DejaVuSans-35"/>
      </g>
     </g>
    </g>
    <g id="xtick_6">
     <g id="line2d_6">
      <g>
       <use style="stroke:#000000;stroke-width:0.8;" x="297.218882" xlink:href="#m1c7480dcaf" y="276.48"/>
      </g>
     </g>
     <g id="text_6">
      <!-- 2022-02-01 -->
      <g transform="translate(245.849431 319.118252)rotate(-30)scale(0.1 -0.1)">
       <use xlink:href="#DejaVuSans-32"/>
       <use x="63.623047" xlink:href="#DejaVuSans-30"/>
       <use x="127.246094" xlink:href="#DejaVuSans-32"/>
       <use x="190.869141" xlink:href="#DejaVuSans-32"/>
       <use x="254.492188" xlink:href="#DejaVuSans-2d"/>
       <use x="290.576172" xlink:href="#DejaVuSans-30"/>
       <use x="354.199219" xlink:href="#DejaVuSans-32"/>
       <use x="417.822266" xlink:href="#DejaVuSans-2d"/>
       <use x="453.90625" xlink:href="#DejaVuSans-30"/>
       <use x="517.529297" xlink:href="#DejaVuSans-31"/>
      </g>
     </g>
    </g>
    <g id="xtick_7">
     <g id="line2d_7">
      <g>
       <use style="stroke:#000000;stroke-width:0.8;" x="338.917631" xlink:href="#m1c7480dcaf" y="276.48"/>
      </g>
     </g>
     <g id="text_7">
      <!-- 2022-02-15 -->
      <g transform="translate(287.54818 319.118252)rotate(-30)scale(0.1 -0.1)">
       <use xlink:href="#DejaVuSans-32"/>
       <use x="63.623047" xlink:href="#DejaVuSans-30"/>
       <use x="127.246094" xlink:href="#DejaVuSans-32"/>
       <use x="190.869141" xlink:href="#DejaVuSans-32"/>
       <use x="254.492188" xlink:href="#DejaVuSans-2d"/>
       <use x="290.576172" xlink:href="#DejaVuSans-30"/>
       <use x="354.199219" xlink:href="#DejaVuSans-32"/>
       <use x="417.822266" xlink:href="#DejaVuSans-2d"/>
       <use x="453.90625" xlink:href="#DejaVuSans-31"/>
       <use x="517.529297" xlink:href="#DejaVuSans-35"/>
      </g>
     </g>
    </g>
    <g id="xtick_8">
     <g id="line2d_8">
      <g>
       <use style="stroke:#000000;stroke-width:0.8;" x="380.61638" xlink:href="#m1c7480dcaf" y="276.48"/>
      </g>
     </g>
     <g id="text_8">
      <!-- 2022-03-01 -->
      <g transform="translate(329.246929 319.118252)rotate(-30)scale(0.1 -0.1)">
       <defs>
        <path d="M 2597 2516 
Q 3050 2419 3304 2112 
Q 3559 1806 3559 1356 
Q 3559 666 3084 287 
Q 2609 -91 1734 -91 
Q 1441 -91 1130 -33 
Q 819 25 488 141 
L 488 750 
Q 750 597 1062 519 
Q 1375 441 1716 441 
Q 2309 441 2620 675 
Q 2931 909 2931 1356 
Q 2931 1769 2642 2001 
Q 2353 2234 1838 2234 
L 1294 2234 
L 1294 2753 
L 1863 2753 
Q 2328 2753 2575 2939 
Q 2822 3125 2822 3475 
Q 2822 3834 2567 4026 
Q 2313 4219 1838 4219 
Q 1578 4219 1281 4162 
Q 984 4106 628 3988 
L 628 4550 
Q 988 4650 1302 4700 
Q 1616 4750 1894 4750 
Q 2613 4750 3031 4423 
Q 3450 4097 3450 3541 
Q 3450 3153 3228 2886 
Q 3006 2619 2597 2516 
z
" id="DejaVuSans-33" transform="scale(0.015625)"/>
       </defs>
       <use xlink:href="#DejaVuSans-32"/>
       <use x="63.623047" xlink:href="#DejaVuSans-30"/>
       <use x="127.246094" xlink:href="#DejaVuSans-32"/>
       <use x="190.869141" xlink:href="#DejaVuSans-32"/>
       <use x="254.492188" xlink:href="#DejaVuSans-2d"/>
       <use x="290.576172" xlink:href="#DejaVuSans-30"/>
       <use x="354.199219" xlink:href="#DejaVuSans-33"/>
       <use x="417.822266" xlink:href="#DejaVuSans-2d"/>
       <use x="453.90625" xlink:href="#DejaVuSans-30"/>
       <use x="517.529297" xlink:href="#DejaVuSans-31"/>
      </g>
     </g>
    </g>
    <g id="text_9">
     <!-- date -->
     <g transform="translate(224.885 332.517752)scale(0.1 -0.1)">
      <defs>
       <path d="M 2906 2969 
L 2906 4863 
L 3481 4863 
L 3481 0 
L 2906 0 
L 2906 525 
Q 2725 213 2448 61 
Q 2172 -91 1784 -91 
Q 1150 -91 751 415 
Q 353 922 353 1747 
Q 353 2572 751 3078 
Q 1150 3584 1784 3584 
Q 2172 3584 2448 3432 
Q 2725 3281 2906 2969 
z
M 947 1747 
Q 947 1113 1208 752 
Q 1469 391 1925 391 
Q 2381 391 2643 752 
Q 2906 1113 2906 1747 
Q 2906 2381 2643 2742 
Q 2381 3103 1925 3103 
Q 1469 3103 1208 2742 
Q 947 2381 947 1747 
z
" id="DejaVuSans-64" transform="scale(0.015625)"/>
       <path d="M 2194 1759 
Q 1497 1759 1228 1600 
Q 959 1441 959 1056 
Q 959 750 1161 570 
Q 1363 391 1709 391 
Q 2188 391 2477 730 
Q 2766 1069 2766 1631 
L 2766 1759 
L 2194 1759 
z
M 3341 1997 
L 3341 0 
L 2766 0 
L 2766 531 
Q 2569 213 2275 61 
Q 1981 -91 1556 -91 
Q 1019 -91 701 211 
Q 384 513 384 1019 
Q 384 1609 779 1909 
Q 1175 2209 1959 2209 
L 2766 2209 
L 2766 2266 
Q 2766 2663 2505 2880 
Q 2244 3097 1772 3097 
Q 1472 3097 1187 3025 
Q 903 2953 641 2809 
L 641 3341 
Q 956 3463 1253 3523 
Q 1550 3584 1831 3584 
Q 2591 3584 2966 3190 
Q 3341 2797 3341 1997 
z
" id="DejaVuSans-61" transform="scale(0.015625)"/>
       <path d="M 1172 4494 
L 1172 3500 
L 2356 3500 
L 2356 3053 
L 1172 3053 
L 1172 1153 
Q 1172 725 1289 603 
Q 1406 481 1766 481 
L 2356 481 
L 2356 0 
L 1766 0 
Q 1100 0 847 248 
Q 594 497 594 1153 
L 594 3053 
L 172 3053 
L 172 3500 
L 594 3500 
L 594 4494 
L 1172 4494 
z
" id="DejaVuSans-74" transform="scale(0.015625)"/>
       <path d="M 3597 1894 
L 3597 1613 
L 953 1613 
Q 991 1019 1311 708 
Q 1631 397 2203 397 
Q 2534 397 2845 478 
Q 3156 559 3463 722 
L 3463 178 
Q 3153 47 2828 -22 
Q 2503 -91 2169 -91 
Q 1331 -91 842 396 
Q 353 884 353 1716 
Q 353 2575 817 3079 
Q 1281 3584 2069 3584 
Q 2775 3584 3186 3129 
Q 3597 2675 3597 1894 
z
M 3022 2063 
Q 3016 2534 2758 2815 
Q 2500 3097 2075 3097 
Q 1594 3097 1305 2825 
Q 1016 2553 972 2059 
L 3022 2063 
z
" id="DejaVuSans-65" transform="scale(0.015625)"/>
      </defs>
      <use xlink:href="#DejaVuSans-64"/>
      <use x="63.476562" xlink:href="#DejaVuSans-61"/>
      <use x="124.755859" xlink:href="#DejaVuSans-74"/>
      <use x="163.964844" xlink:href="#DejaVuSans-65"/>
     </g>
    </g>
   </g>
   <g id="matplotlib.axis_2">
    <g id="ytick_1">
     <g id="line2d_9">
      <defs>
       <path d="M 0 0 
L -3.5 0 
" id="m46f1fc68f2" style="stroke:#000000;stroke-width:0.8;"/>
      </defs>
      <g>
       <use style="stroke:#000000;stroke-width:0.8;" x="57.6" xlink:href="#m46f1fc68f2" y="242.151291"/>
      </g>
     </g>
     <g id="text_10">
      <!-- 112000 -->
      <g transform="translate(12.425 245.95051)scale(0.1 -0.1)">
       <use xlink:href="#DejaVuSans-31"/>
       <use x="63.623047" xlink:href="#DejaVuSans-31"/>
       <use x="127.246094" xlink:href="#DejaVuSans-32"/>
       <use x="190.869141" xlink:href="#DejaVuSans-30"/>
       <use x="254.492188" xlink:href="#DejaVuSans-30"/>
       <use x="318.115234" xlink:href="#DejaVuSans-30"/>
      </g>
     </g>
    </g>
    <g id="ytick_2">
     <g id="line2d_10">
      <g>
       <use style="stroke:#000000;stroke-width:0.8;" x="57.6" xlink:href="#m46f1fc68f2" y="204.137853"/>
      </g>
     </g>
     <g id="text_11">
      <!-- 114000 -->
      <g transform="translate(12.425 207.937072)scale(0.1 -0.1)">
       <defs>
        <path d="M 2419 4116 
L 825 1625 
L 2419 1625 
L 2419 4116 
z
M 2253 4666 
L 3047 4666 
L 3047 1625 
L 3713 1625 
L 3713 1100 
L 3047 1100 
L 3047 0 
L 2419 0 
L 2419 1100 
L 313 1100 
L 313 1709 
L 2253 4666 
z
" id="DejaVuSans-34" transform="scale(0.015625)"/>
       </defs>
       <use xlink:href="#DejaVuSans-31"/>
       <use x="63.623047" xlink:href="#DejaVuSans-31"/>
       <use x="127.246094" xlink:href="#DejaVuSans-34"/>
       <use x="190.869141" xlink:href="#DejaVuSans-30"/>
       <use x="254.492188" xlink:href="#DejaVuSans-30"/>
       <use x="318.115234" xlink:href="#DejaVuSans-30"/>
      </g>
     </g>
    </g>
    <g id="ytick_3">
     <g id="line2d_11">
      <g>
       <use style="stroke:#000000;stroke-width:0.8;" x="57.6" xlink:href="#m46f1fc68f2" y="166.124415"/>
      </g>
     </g>
     <g id="text_12">
      <!-- 116000 -->
      <g transform="translate(12.425 169.923634)scale(0.1 -0.1)">
       <defs>
        <path d="M 2113 2584 
Q 1688 2584 1439 2293 
Q 1191 2003 1191 1497 
Q 1191 994 1439 701 
Q 1688 409 2113 409 
Q 2538 409 2786 701 
Q 3034 994 3034 1497 
Q 3034 2003 2786 2293 
Q 2538 2584 2113 2584 
z
M 3366 4563 
L 3366 3988 
Q 3128 4100 2886 4159 
Q 2644 4219 2406 4219 
Q 1781 4219 1451 3797 
Q 1122 3375 1075 2522 
Q 1259 2794 1537 2939 
Q 1816 3084 2150 3084 
Q 2853 3084 3261 2657 
Q 3669 2231 3669 1497 
Q 3669 778 3244 343 
Q 2819 -91 2113 -91 
Q 1303 -91 875 529 
Q 447 1150 447 2328 
Q 447 3434 972 4092 
Q 1497 4750 2381 4750 
Q 2619 4750 2861 4703 
Q 3103 4656 3366 4563 
z
" id="DejaVuSans-36" transform="scale(0.015625)"/>
       </defs>
       <use xlink:href="#DejaVuSans-31"/>
       <use x="63.623047" xlink:href="#DejaVuSans-31"/>
       <use x="127.246094" xlink:href="#DejaVuSans-36"/>
       <use x="190.869141" xlink:href="#DejaVuSans-30"/>
       <use x="254.492188" xlink:href="#DejaVuSans-30"/>
       <use x="318.115234" xlink:href="#DejaVuSans-30"/>
      </g>
     </g>
    </g>
    <g id="ytick_4">
     <g id="line2d_12">
      <g>
       <use style="stroke:#000000;stroke-width:0.8;" x="57.6" xlink:href="#m46f1fc68f2" y="128.110978"/>
      </g>
     </g>
     <g id="text_13">
      <!-- 118000 -->
      <g transform="translate(12.425 131.910196)scale(0.1 -0.1)">
       <defs>
        <path d="M 2034 2216 
Q 1584 2216 1326 1975 
Q 1069 1734 1069 1313 
Q 1069 891 1326 650 
Q 1584 409 2034 409 
Q 2484 409 2743 651 
Q 3003 894 3003 1313 
Q 3003 1734 2745 1975 
Q 2488 2216 2034 2216 
z
M 1403 2484 
Q 997 2584 770 2862 
Q 544 3141 544 3541 
Q 544 4100 942 4425 
Q 1341 4750 2034 4750 
Q 2731 4750 3128 4425 
Q 3525 4100 3525 3541 
Q 3525 3141 3298 2862 
Q 3072 2584 2669 2484 
Q 3125 2378 3379 2068 
Q 3634 1759 3634 1313 
Q 3634 634 3220 271 
Q 2806 -91 2034 -91 
Q 1263 -91 848 271 
Q 434 634 434 1313 
Q 434 1759 690 2068 
Q 947 2378 1403 2484 
z
M 1172 3481 
Q 1172 3119 1398 2916 
Q 1625 2713 2034 2713 
Q 2441 2713 2670 2916 
Q 2900 3119 2900 3481 
Q 2900 3844 2670 4047 
Q 2441 4250 2034 4250 
Q 1625 4250 1398 4047 
Q 1172 3844 1172 3481 
z
" id="DejaVuSans-38" transform="scale(0.015625)"/>
       </defs>
       <use xlink:href="#DejaVuSans-31"/>
       <use x="63.623047" xlink:href="#DejaVuSans-31"/>
       <use x="127.246094" xlink:href="#DejaVuSans-38"/>
       <use x="190.869141" xlink:href="#DejaVuSans-30"/>
       <use x="254.492188" xlink:href="#DejaVuSans-30"/>
       <use x="318.115234" xlink:href="#DejaVuSans-30"/>
      </g>
     </g>
    </g>
    <g id="ytick_5">
     <g id="line2d_13">
      <g>
       <use style="stroke:#000000;stroke-width:0.8;" x="57.6" xlink:href="#m46f1fc68f2" y="90.09754"/>
      </g>
     </g>
     <g id="text_14">
      <!-- 120000 -->
      <g transform="translate(12.425 93.896758)scale(0.1 -0.1)">
       <use xlink:href="#DejaVuSans-31"/>
       <use x="63.623047" xlink:href="#DejaVuSans-32"/>
       <use x="127.246094" xlink:href="#DejaVuSans-30"/>
       <use x="190.869141" xlink:href="#DejaVuSans-30"/>
       <use x="254.492188" xlink:href="#DejaVuSans-30"/>
       <use x="318.115234" xlink:href="#DejaVuSans-30"/>
      </g>
     </g>
    </g>
    <g id="ytick_6">
     <g id="line2d_14">
      <g>
       <use style="stroke:#000000;stroke-width:0.8;" x="57.6" xlink:href="#m46f1fc68f2" y="52.084102"/>
      </g>
     </g>
     <g id="text_15">
      <!-- 122000 -->
      <g transform="translate(12.425 55.88332)scale(0.1 -0.1)">
       <use xlink:href="#DejaVuSans-31"/>
       <use x="63.623047" xlink:href="#DejaVuSans-32"/>
       <use x="127.246094" xlink:href="#DejaVuSans-32"/>
       <use x="190.869141" xlink:href="#DejaVuSans-30"/>
       <use x="254.492188" xlink:href="#DejaVuSans-30"/>
       <use x="318.115234" xlink:href="#DejaVuSans-30"/>
      </g>
     </g>
    </g>
   </g>
   <g id="line2d_15">
    <path clip-path="url(#pf45124c2cc)" d="M 73.832727 161.362373 
L 76.811209 173.833011 
L 85.746656 166.005277 
L 88.725138 153.647239 
L 91.70362 152.465759 
L 97.660584 152.569473 
L 106.59603 184.898497 
L 109.574512 230.92787 
L 112.552994 251.574924 
L 115.531476 212.974868 
L 118.509958 222.703383 
L 127.445405 193.374209 
L 130.423887 157.774119 
L 133.402369 155.182637 
L 136.380851 166.328308 
L 139.359333 148.28296 
L 148.294779 162.824929 
L 151.273261 172.170387 
L 154.251743 150.024373 
L 157.230225 150.194894 
L 160.208707 181.751621 
L 169.144153 216.038527 
L 172.122636 184.691757 
L 175.101118 167.360712 
L 178.0796 153.604702 
L 189.993528 125.166235 
L 192.97201 121.091586 
L 195.950492 116.854414 
L 198.928974 122.745576 
L 201.907456 120.343651 
L 210.842902 110.352454 
L 213.821384 94.288727 
L 216.799867 116.980782 
L 219.778349 116.243697 
L 222.756831 117.019166 
L 231.692277 125.381307 
L 234.670759 106.390692 
L 237.649241 99.313148 
L 240.627723 115.849425 
L 243.606205 118.062813 
L 255.520133 149.485127 
L 258.498616 164.048855 
L 261.477098 186.730553 
L 264.45558 217.727772 
L 273.391026 213.849906 
L 276.369508 225.466834 
L 279.34799 235.300321 
L 282.326472 239.300712 
L 285.304954 208.138771 
L 294.2404 176.557671 
L 297.218882 158.829554 
L 300.197364 143.605806 
L 303.175847 174.275902 
L 306.154329 170.816313 
L 315.089775 169.009717 
L 318.068257 156.242283 
L 321.046739 131.599328 
L 324.025221 164.478492 
L 327.003703 187.60858 
L 335.939149 202.025647 
L 338.917631 179.246161 
L 341.896113 171.80344 
L 344.874595 204.048957 
L 347.853078 212.985163 
L 359.767006 235.745132 
L 362.745488 265.797818 
L 365.72397 256.187073 
L 368.702452 197.870441 
L 377.637898 199.116414 
L 380.61638 228.329165 
L 383.594862 187.135239 
L 386.573344 189.139592 
L 389.551827 188.375463 
L 398.487273 241.894864 
" style="fill:none;stroke:#0000ff;stroke-linecap:square;stroke-opacity:0.9;stroke-width:2;"/>
   </g>
   <g id="line2d_16">
    <path clip-path="url(#pf45124c2cc)" d="M 73.832727 161.362373 
L 76.811209 173.754473 
L 85.746656 166.677424 
L 88.725138 154.991148 
L 91.70362 151.809739 
L 97.660584 202.714908 
L 106.59603 183.441407 
L 109.574512 231.704323 
L 112.552994 251.043539 
L 115.531476 214.144523 
L 118.509958 222.520978 
L 127.445405 193.552387 
L 130.423887 158.158594 
L 133.402369 155.791146 
L 136.380851 166.156482 
L 139.359333 148.471917 
L 148.294779 162.792578 
L 151.273261 172.074106 
L 154.251743 150.047044 
L 157.230225 150.803961 
L 160.208707 180.747217 
L 169.144153 215.382095 
L 172.122636 185.679692 
L 175.101118 166.371628 
L 178.0796 154.537778 
L 189.993528 125.252123 
L 192.97201 120.530325 
L 195.950492 116.520929 
L 198.928974 121.397088 
L 201.907456 119.475869 
L 210.842902 110.160393 
L 213.821384 94.201527 
L 216.799867 117.116067 
L 219.778349 117.330831 
L 222.756831 115.516614 
L 231.692277 126.403429 
L 234.670759 106.078641 
L 237.649241 98.51695 
L 240.627723 115.62674 
L 243.606205 116.634267 
L 255.520133 148.209931 
L 258.498616 161.885877 
L 261.477098 183.453054 
L 264.45558 216.31467 
L 273.391026 212.049472 
L 276.369508 221.921102 
L 279.34799 230.496914 
L 282.326472 233.649599 
L 285.304954 203.708467 
L 294.2404 173.422342 
L 297.218882 155.14757 
L 300.197364 138.483287 
L 303.175847 168.495035 
L 306.154329 165.881658 
L 315.089775 164.157638 
L 318.068257 152.64891 
L 321.046739 127.597199 
L 324.025221 160.750847 
L 327.003703 179.541051 
L 335.939149 196.627106 
L 338.917631 177.118704 
L 341.896113 169.408574 
L 344.874595 198.392687 
L 347.853078 207.699246 
L 359.767006 230.153724 
L 362.745488 258.59926 
L 365.72397 250.498442 
L 368.702452 192.771704 
L 377.637898 192.615784 
L 380.61638 219.810571 
L 383.594862 178.399744 
L 386.573344 178.790384 
L 389.551827 174.355781 
L 398.487273 216.314831 
" style="fill:none;stroke:#ff0000;stroke-linecap:square;stroke-opacity:0.9;stroke-width:2;"/>
   </g>
   <g id="line2d_17">
    <path clip-path="url(#pf45124c2cc)" d="M 73.832727 161.362373 
L 76.811209 173.683847 
L 85.746656 164.832605 
L 88.725138 154.43767 
L 91.70362 152.472605 
L 97.660584 201.648354 
L 106.59603 183.421755 
L 109.574512 231.422121 
L 112.552994 250.739813 
L 115.531476 211.850075 
L 118.509958 221.931864 
L 127.445405 193.542588 
L 130.423887 156.702958 
L 133.402369 155.019249 
L 136.380851 165.419824 
L 139.359333 146.94834 
L 148.294779 161.285648 
L 151.273261 172.188461 
L 154.251743 148.786052 
L 157.230225 149.464671 
L 160.208707 180.670225 
L 169.144153 216.343005 
L 172.122636 184.216335 
L 175.101118 164.789894 
L 178.0796 151.35268 
L 189.993528 123.62975 
L 192.97201 120.003989 
L 195.950492 115.061562 
L 198.928974 119.994412 
L 201.907456 117.883083 
L 210.842902 108.851471 
L 213.821384 91.687608 
L 216.799867 113.529477 
L 219.778349 115.222956 
L 222.756831 114.180196 
L 231.692277 124.177018 
L 234.670759 104.427738 
L 237.649241 96.500507 
L 240.627723 114.287368 
L 243.606205 115.398437 
L 255.520133 147.501514 
L 258.498616 162.957599 
L 261.477098 184.541056 
L 264.45558 216.525042 
L 273.391026 211.548157 
L 276.369508 223.713716 
L 279.34799 232.083817 
L 282.326472 236.830141 
L 285.304954 205.483759 
L 294.2404 173.692081 
L 297.218882 156.6096 
L 300.197364 140.913564 
L 303.175847 171.47892 
L 306.154329 166.82695 
L 315.089775 166.995843 
L 318.068257 152.622591 
L 321.046739 128.539744 
L 324.025221 162.571993 
L 327.003703 185.22729 
L 335.939149 200.051359 
L 338.917631 175.904488 
L 341.896113 168.832202 
L 344.874595 199.936124 
L 347.853078 211.10014 
L 359.767006 233.307058 
L 362.745488 262.545861 
L 365.72397 251.156945 
L 368.702452 194.396286 
L 377.637898 194.004124 
L 380.61638 223.784131 
L 383.594862 181.935344 
L 386.573344 183.211316 
L 389.551827 184.43143 
L 398.487273 230.095751 
" style="fill:none;stroke:#008000;stroke-linecap:square;stroke-opacity:0.9;stroke-width:2;"/>
   </g>
   <g id="line2d_18">
    <path clip-path="url(#pf45124c2cc)" d="M 73.832727 161.362373 
L 76.811209 174.356994 
L 85.746656 165.517626 
L 88.725138 154.034111 
L 91.70362 152.844862 
L 97.660584 201.590612 
L 106.59603 184.686066 
L 109.574512 230.537869 
L 112.552994 249.562361 
L 115.531476 212.908665 
L 118.509958 222.266105 
L 127.445405 193.344668 
L 130.423887 158.413008 
L 133.402369 154.56416 
L 136.380851 165.603672 
L 139.359333 147.789653 
L 148.294779 162.260535 
L 151.273261 172.107893 
L 154.251743 148.886437 
L 157.230225 149.067924 
L 160.208707 181.653009 
L 169.144153 216.579922 
L 172.122636 183.670043 
L 175.101118 166.679835 
L 178.0796 153.687112 
L 189.993528 123.69712 
L 192.97201 120.487415 
L 195.950492 115.610205 
L 198.928974 121.645275 
L 201.907456 120.247492 
L 210.842902 109.202258 
L 213.821384 91.633193 
L 216.799867 115.543125 
L 219.778349 115.391607 
L 222.756831 115.90813 
L 231.692277 124.170248 
L 234.670759 105.407128 
L 237.649241 97.158032 
L 240.627723 114.449463 
L 243.606205 115.468735 
L 255.520133 148.472003 
L 258.498616 162.793123 
L 261.477098 185.126231 
L 264.45558 216.844193 
L 273.391026 213.681957 
L 276.369508 225.278714 
L 279.34799 233.367987 
L 282.326472 237.691795 
L 285.304954 206.864141 
L 294.2404 174.860682 
L 297.218882 157.276577 
L 300.197364 140.774722 
L 303.175847 172.715963 
L 306.154329 167.738612 
L 315.089775 167.18829 
L 318.068257 153.599265 
L 321.046739 130.506018 
L 324.025221 162.474296 
L 327.003703 184.547016 
L 335.939149 199.863799 
L 338.917631 177.49955 
L 341.896113 171.577025 
L 344.874595 202.355674 
L 347.853078 212.407786 
L 359.767006 233.702431 
L 362.745488 264.45467 
L 365.72397 255.074385 
L 368.702452 196.154111 
L 377.637898 197.473781 
L 380.61638 226.993267 
L 383.594862 185.496654 
L 386.573344 185.982825 
L 389.551827 186.182421 
L 398.487273 233.564849 
" style="fill:none;stroke:#ec5283;stroke-linecap:square;stroke-width:2;"/>
   </g>
   <g id="line2d_19">
    <path clip-path="url(#pf45124c2cc)" d="M 73.832727 161.362373 
L 76.811209 173.914183 
L 85.746656 165.564775 
L 88.725138 152.997863 
L 91.70362 152.353847 
L 97.660584 201.052345 
L 106.59603 183.743463 
L 109.574512 229.76773 
L 112.552994 250.494524 
L 115.531476 212.624011 
L 118.509958 222.268712 
L 127.445405 192.557375 
L 130.423887 156.496555 
L 133.402369 153.661985 
L 136.380851 165.106793 
L 139.359333 147.221373 
L 148.294779 162.396181 
L 151.273261 172.212533 
L 154.251743 148.742852 
L 157.230225 148.899813 
L 160.208707 180.149792 
L 169.144153 215.167824 
L 172.122636 183.341034 
L 175.101118 164.824984 
L 178.0796 152.066243 
L 189.993528 124.287264 
L 192.97201 118.972434 
L 195.950492 114.687188 
L 198.928974 120.986826 
L 201.907456 118.517529 
L 210.842902 109.732793 
L 213.821384 92.120563 
L 216.799867 115.027066 
L 219.778349 115.145432 
L 222.756831 115.064512 
L 231.692277 124.631262 
L 234.670759 104.585426 
L 237.649241 96.449119 
L 240.627723 113.983864 
L 243.606205 115.364345 
L 255.520133 147.32723 
L 258.498616 161.930646 
L 261.477098 184.200602 
L 264.45558 215.427221 
L 273.391026 211.77745 
L 276.369508 223.827962 
L 279.34799 232.460268 
L 282.326472 236.692502 
L 285.304954 206.007803 
L 294.2404 174.85266 
L 297.218882 156.262465 
L 300.197364 140.729939 
L 303.175847 170.107057 
L 306.154329 167.00938 
L 315.089775 166.541818 
L 318.068257 152.344023 
L 321.046739 129.328842 
L 324.025221 161.181902 
L 327.003703 184.16241 
L 335.939149 199.272254 
L 338.917631 176.097942 
L 341.896113 170.442062 
L 344.874595 200.613349 
L 347.853078 209.395698 
L 359.767006 233.176972 
L 362.745488 263.302135 
L 365.72397 251.316847 
L 368.702452 194.54082 
L 377.637898 193.972879 
L 380.61638 223.646925 
L 383.594862 181.8606 
L 386.573344 183.766678 
L 389.551827 183.549756 
L 398.487273 229.814565 
" style="fill:none;stroke:#00ff00;stroke-linecap:square;stroke-opacity:0.9;stroke-width:2;"/>
   </g>
   <g id="line2d_20">
    <path clip-path="url(#pf45124c2cc)" d="M 73.832727 161.362373 
L 76.811209 175.934054 
L 85.746656 164.776938 
L 88.725138 150.307703 
L 91.70362 149.167147 
L 97.660584 194.873072 
L 106.59603 182.779127 
L 109.574512 234.755737 
L 112.552994 252.608305 
L 115.531476 209.309751 
L 118.509958 211.15581 
L 127.445405 178.842797 
L 130.423887 149.856676 
L 133.402369 146.239508 
L 136.380851 151.79435 
L 139.359333 137.888118 
L 148.294779 152.184007 
L 151.273261 161.786496 
L 154.251743 142.872442 
L 157.230225 142.912674 
L 160.208707 174.067251 
L 169.144153 205.083786 
L 172.122636 163.484822 
L 175.101118 147.378451 
L 178.0796 127.701696 
L 189.993528 98.466669 
L 192.97201 91.122553 
L 195.950492 88.578607 
L 198.928974 95.296372 
L 201.907456 90.59929 
L 210.842902 79.515182 
L 213.821384 52.154182 
L 216.799867 73.704448 
L 219.778349 73.361029 
L 222.756831 74.726548 
L 231.692277 83.847717 
L 234.670759 62.859174 
L 237.649241 54.83497 
L 240.627723 75.423215 
L 243.606205 78.62381 
L 255.520133 112.337961 
L 258.498616 133.836457 
L 261.477098 157.472739 
L 264.45558 195.126521 
L 273.391026 188.930222 
L 276.369508 202.484972 
L 279.34799 212.337651 
L 282.326472 219.97951 
L 285.304954 184.858747 
L 294.2404 146.331954 
L 297.218882 127.154022 
L 300.197364 113.818251 
L 303.175847 152.340912 
L 306.154329 143.537972 
L 315.089775 147.436214 
L 318.068257 124.984996 
L 321.046739 96.238836 
L 324.025221 129.385084 
L 327.003703 161.384361 
L 335.939149 174.610154 
L 338.917631 145.83924 
L 341.896113 137.348376 
L 344.874595 174.832887 
L 347.853078 187.669118 
L 359.767006 211.485897 
L 362.745488 246.367947 
L 365.72397 226.15364 
L 368.702452 170.321713 
L 377.637898 167.623684 
L 380.61638 201.352688 
L 383.594862 157.437791 
L 386.573344 166.382089 
L 389.551827 175.429995 
L 398.487273 240.744107 
" style="fill:none;stroke:#a5b9cf;stroke-linecap:square;stroke-width:2;"/>
   </g>
   <g id="patch_3">
    <path d="M 57.6 276.48 
L 57.6 41.472 
" style="fill:none;stroke:#000000;stroke-linecap:square;stroke-linejoin:miter;stroke-width:0.8;"/>
   </g>
   <g id="patch_4">
    <path d="M 414.72 276.48 
L 414.72 41.472 
" style="fill:none;stroke:#000000;stroke-linecap:square;stroke-linejoin:miter;stroke-width:0.8;"/>
   </g>
   <g id="patch_5">
    <path d="M 57.6 276.48 
L 414.72 276.48 
" style="fill:none;stroke:#000000;stroke-linecap:square;stroke-linejoin:miter;stroke-width:0.8;"/>
   </g>
   <g id="patch_6">
    <path d="M 57.6 41.472 
L 414.72 41.472 
" style="fill:none;stroke:#000000;stroke-linecap:square;stroke-linejoin:miter;stroke-width:0.8;"/>
   </g>
   <g id="text_16">
    <!-- UNCORRELATED -->
    <g transform="translate(187.044375 22.034625)scale(0.12 -0.12)">
     <defs>
      <path d="M 556 4666 
L 1191 4666 
L 1191 1831 
Q 1191 1081 1462 751 
Q 1734 422 2344 422 
Q 2950 422 3222 751 
Q 3494 1081 3494 1831 
L 3494 4666 
L 4128 4666 
L 4128 1753 
Q 4128 841 3676 375 
Q 3225 -91 2344 -91 
Q 1459 -91 1007 375 
Q 556 841 556 1753 
L 556 4666 
z
" id="DejaVuSans-55" transform="scale(0.015625)"/>
      <path d="M 628 4666 
L 1478 4666 
L 3547 763 
L 3547 4666 
L 4159 4666 
L 4159 0 
L 3309 0 
L 1241 3903 
L 1241 0 
L 628 0 
L 628 4666 
z
" id="DejaVuSans-4e" transform="scale(0.015625)"/>
      <path d="M 4122 4306 
L 4122 3641 
Q 3803 3938 3442 4084 
Q 3081 4231 2675 4231 
Q 1875 4231 1450 3742 
Q 1025 3253 1025 2328 
Q 1025 1406 1450 917 
Q 1875 428 2675 428 
Q 3081 428 3442 575 
Q 3803 722 4122 1019 
L 4122 359 
Q 3791 134 3420 21 
Q 3050 -91 2638 -91 
Q 1578 -91 968 557 
Q 359 1206 359 2328 
Q 359 3453 968 4101 
Q 1578 4750 2638 4750 
Q 3056 4750 3426 4639 
Q 3797 4528 4122 4306 
z
" id="DejaVuSans-43" transform="scale(0.015625)"/>
      <path d="M 2522 4238 
Q 1834 4238 1429 3725 
Q 1025 3213 1025 2328 
Q 1025 1447 1429 934 
Q 1834 422 2522 422 
Q 3209 422 3611 934 
Q 4013 1447 4013 2328 
Q 4013 3213 3611 3725 
Q 3209 4238 2522 4238 
z
M 2522 4750 
Q 3503 4750 4090 4092 
Q 4678 3434 4678 2328 
Q 4678 1225 4090 567 
Q 3503 -91 2522 -91 
Q 1538 -91 948 565 
Q 359 1222 359 2328 
Q 359 3434 948 4092 
Q 1538 4750 2522 4750 
z
" id="DejaVuSans-4f" transform="scale(0.015625)"/>
      <path d="M 2841 2188 
Q 3044 2119 3236 1894 
Q 3428 1669 3622 1275 
L 4263 0 
L 3584 0 
L 2988 1197 
Q 2756 1666 2539 1819 
Q 2322 1972 1947 1972 
L 1259 1972 
L 1259 0 
L 628 0 
L 628 4666 
L 2053 4666 
Q 2853 4666 3247 4331 
Q 3641 3997 3641 3322 
Q 3641 2881 3436 2590 
Q 3231 2300 2841 2188 
z
M 1259 4147 
L 1259 2491 
L 2053 2491 
Q 2509 2491 2742 2702 
Q 2975 2913 2975 3322 
Q 2975 3731 2742 3939 
Q 2509 4147 2053 4147 
L 1259 4147 
z
" id="DejaVuSans-52" transform="scale(0.015625)"/>
      <path d="M 628 4666 
L 3578 4666 
L 3578 4134 
L 1259 4134 
L 1259 2753 
L 3481 2753 
L 3481 2222 
L 1259 2222 
L 1259 531 
L 3634 531 
L 3634 0 
L 628 0 
L 628 4666 
z
" id="DejaVuSans-45" transform="scale(0.015625)"/>
      <path d="M 628 4666 
L 1259 4666 
L 1259 531 
L 3531 531 
L 3531 0 
L 628 0 
L 628 4666 
z
" id="DejaVuSans-4c" transform="scale(0.015625)"/>
      <path d="M 2188 4044 
L 1331 1722 
L 3047 1722 
L 2188 4044 
z
M 1831 4666 
L 2547 4666 
L 4325 0 
L 3669 0 
L 3244 1197 
L 1141 1197 
L 716 0 
L 50 0 
L 1831 4666 
z
" id="DejaVuSans-41" transform="scale(0.015625)"/>
      <path d="M -19 4666 
L 3928 4666 
L 3928 4134 
L 2272 4134 
L 2272 0 
L 1638 0 
L 1638 4134 
L -19 4134 
L -19 4666 
z
" id="DejaVuSans-54" transform="scale(0.015625)"/>
      <path d="M 1259 4147 
L 1259 519 
L 2022 519 
Q 2988 519 3436 956 
Q 3884 1394 3884 2338 
Q 3884 3275 3436 3711 
Q 2988 4147 2022 4147 
L 1259 4147 
z
M 628 4666 
L 1925 4666 
Q 3281 4666 3915 4102 
Q 4550 3538 4550 2338 
Q 4550 1131 3912 565 
Q 3275 0 1925 0 
L 628 0 
L 628 4666 
z
" id="DejaVuSans-44" transform="scale(0.015625)"/>
     </defs>
     <use xlink:href="#DejaVuSans-55"/>
     <use x="73.193359" xlink:href="#DejaVuSans-4e"/>
     <use x="147.998047" xlink:href="#DejaVuSans-43"/>
     <use x="217.822266" xlink:href="#DejaVuSans-4f"/>
     <use x="296.533203" xlink:href="#DejaVuSans-52"/>
     <use x="366.015625" xlink:href="#DejaVuSans-52"/>
     <use x="435.498047" xlink:href="#DejaVuSans-45"/>
     <use x="498.681641" xlink:href="#DejaVuSans-4c"/>
     <use x="556.644531" xlink:href="#DejaVuSans-41"/>
     <use x="617.302734" xlink:href="#DejaVuSans-54"/>
     <use x="678.386719" xlink:href="#DejaVuSans-45"/>
     <use x="741.570312" xlink:href="#DejaVuSans-44"/>
    </g>
    <!-- daily_report -->
    <g transform="translate(200.466563 35.472)scale(0.12 -0.12)">
     <defs>
      <path d="M 603 3500 
L 1178 3500 
L 1178 0 
L 603 0 
L 603 3500 
z
M 603 4863 
L 1178 4863 
L 1178 4134 
L 603 4134 
L 603 4863 
z
" id="DejaVuSans-69" transform="scale(0.015625)"/>
      <path d="M 603 4863 
L 1178 4863 
L 1178 0 
L 603 0 
L 603 4863 
z
" id="DejaVuSans-6c" transform="scale(0.015625)"/>
      <path d="M 2059 -325 
Q 1816 -950 1584 -1140 
Q 1353 -1331 966 -1331 
L 506 -1331 
L 506 -850 
L 844 -850 
Q 1081 -850 1212 -737 
Q 1344 -625 1503 -206 
L 1606 56 
L 191 3500 
L 800 3500 
L 1894 763 
L 2988 3500 
L 3597 3500 
L 2059 -325 
z
" id="DejaVuSans-79" transform="scale(0.015625)"/>
      <path d="M 3263 -1063 
L 3263 -1509 
L -63 -1509 
L -63 -1063 
L 3263 -1063 
z
" id="DejaVuSans-5f" transform="scale(0.015625)"/>
      <path d="M 2631 2963 
Q 2534 3019 2420 3045 
Q 2306 3072 2169 3072 
Q 1681 3072 1420 2755 
Q 1159 2438 1159 1844 
L 1159 0 
L 581 0 
L 581 3500 
L 1159 3500 
L 1159 2956 
Q 1341 3275 1631 3429 
Q 1922 3584 2338 3584 
Q 2397 3584 2469 3576 
Q 2541 3569 2628 3553 
L 2631 2963 
z
" id="DejaVuSans-72" transform="scale(0.015625)"/>
      <path d="M 1159 525 
L 1159 -1331 
L 581 -1331 
L 581 3500 
L 1159 3500 
L 1159 2969 
Q 1341 3281 1617 3432 
Q 1894 3584 2278 3584 
Q 2916 3584 3314 3078 
Q 3713 2572 3713 1747 
Q 3713 922 3314 415 
Q 2916 -91 2278 -91 
Q 1894 -91 1617 61 
Q 1341 213 1159 525 
z
M 3116 1747 
Q 3116 2381 2855 2742 
Q 2594 3103 2138 3103 
Q 1681 3103 1420 2742 
Q 1159 2381 1159 1747 
Q 1159 1113 1420 752 
Q 1681 391 2138 391 
Q 2594 391 2855 752 
Q 3116 1113 3116 1747 
z
" id="DejaVuSans-70" transform="scale(0.015625)"/>
      <path d="M 1959 3097 
Q 1497 3097 1228 2736 
Q 959 2375 959 1747 
Q 959 1119 1226 758 
Q 1494 397 1959 397 
Q 2419 397 2687 759 
Q 2956 1122 2956 1747 
Q 2956 2369 2687 2733 
Q 2419 3097 1959 3097 
z
M 1959 3584 
Q 2709 3584 3137 3096 
Q 3566 2609 3566 1747 
Q 3566 888 3137 398 
Q 2709 -91 1959 -91 
Q 1206 -91 779 398 
Q 353 888 353 1747 
Q 353 2609 779 3096 
Q 1206 3584 1959 3584 
z
" id="DejaVuSans-6f" transform="scale(0.015625)"/>
     </defs>
     <use xlink:href="#DejaVuSans-64"/>
     <use x="63.476562" xlink:href="#DejaVuSans-61"/>
     <use x="124.755859" xlink:href="#DejaVuSans-69"/>
     <use x="152.539062" xlink:href="#DejaVuSans-6c"/>
     <use x="180.322266" xlink:href="#DejaVuSans-79"/>
     <use x="239.501953" xlink:href="#DejaVuSans-5f"/>
     <use x="289.501953" xlink:href="#DejaVuSans-72"/>
     <use x="328.365234" xlink:href="#DejaVuSans-65"/>
     <use x="389.888672" xlink:href="#DejaVuSans-70"/>
     <use x="453.365234" xlink:href="#DejaVuSans-6f"/>
     <use x="514.546875" xlink:href="#DejaVuSans-72"/>
     <use x="555.660156" xlink:href="#DejaVuSans-74"/>
    </g>
   </g>
   <g id="legend_1">
    <g id="patch_7">
     <path d="M 64.6 137.54075 
L 178.64375 137.54075 
Q 180.64375 137.54075 180.64375 135.54075 
L 180.64375 48.472 
Q 180.64375 46.472 178.64375 46.472 
L 64.6 46.472 
Q 62.6 46.472 62.6 48.472 
L 62.6 135.54075 
Q 62.6 137.54075 64.6 137.54075 
z
" style="fill:#ffffff;opacity:0.8;stroke:#cccccc;stroke-linejoin:miter;"/>
    </g>
    <g id="line2d_21">
     <path d="M 66.6 54.570437 
L 86.6 54.570437 
" style="fill:none;stroke:#0000ff;stroke-linecap:square;stroke-opacity:0.9;stroke-width:2;"/>
    </g>
    <g id="line2d_22"/>
    <g id="text_17">
     <!-- alpaca -->
     <g transform="translate(94.6 58.070437)scale(0.1 -0.1)">
      <defs>
       <path d="M 3122 3366 
L 3122 2828 
Q 2878 2963 2633 3030 
Q 2388 3097 2138 3097 
Q 1578 3097 1268 2742 
Q 959 2388 959 1747 
Q 959 1106 1268 751 
Q 1578 397 2138 397 
Q 2388 397 2633 464 
Q 2878 531 3122 666 
L 3122 134 
Q 2881 22 2623 -34 
Q 2366 -91 2075 -91 
Q 1284 -91 818 406 
Q 353 903 353 1747 
Q 353 2603 823 3093 
Q 1294 3584 2113 3584 
Q 2378 3584 2631 3529 
Q 2884 3475 3122 3366 
z
" id="DejaVuSans-63" transform="scale(0.015625)"/>
      </defs>
      <use xlink:href="#DejaVuSans-61"/>
      <use x="61.279297" xlink:href="#DejaVuSans-6c"/>
      <use x="89.0625" xlink:href="#DejaVuSans-70"/>
      <use x="152.539062" xlink:href="#DejaVuSans-61"/>
      <use x="213.818359" xlink:href="#DejaVuSans-63"/>
      <use x="268.798828" xlink:href="#DejaVuSans-61"/>
     </g>
    </g>
    <g id="line2d_23">
     <path d="M 66.6 69.248562 
L 86.6 69.248562 
" style="fill:none;stroke:#ff0000;stroke-linecap:square;stroke-opacity:0.9;stroke-width:2;"/>
    </g>
    <g id="line2d_24"/>
    <g id="text_18">
     <!-- mattress -->
     <g transform="translate(94.6 72.748562)scale(0.1 -0.1)">
      <defs>
       <path d="M 3328 2828 
Q 3544 3216 3844 3400 
Q 4144 3584 4550 3584 
Q 5097 3584 5394 3201 
Q 5691 2819 5691 2113 
L 5691 0 
L 5113 0 
L 5113 2094 
Q 5113 2597 4934 2840 
Q 4756 3084 4391 3084 
Q 3944 3084 3684 2787 
Q 3425 2491 3425 1978 
L 3425 0 
L 2847 0 
L 2847 2094 
Q 2847 2600 2669 2842 
Q 2491 3084 2119 3084 
Q 1678 3084 1418 2786 
Q 1159 2488 1159 1978 
L 1159 0 
L 581 0 
L 581 3500 
L 1159 3500 
L 1159 2956 
Q 1356 3278 1631 3431 
Q 1906 3584 2284 3584 
Q 2666 3584 2933 3390 
Q 3200 3197 3328 2828 
z
" id="DejaVuSans-6d" transform="scale(0.015625)"/>
       <path d="M 2834 3397 
L 2834 2853 
Q 2591 2978 2328 3040 
Q 2066 3103 1784 3103 
Q 1356 3103 1142 2972 
Q 928 2841 928 2578 
Q 928 2378 1081 2264 
Q 1234 2150 1697 2047 
L 1894 2003 
Q 2506 1872 2764 1633 
Q 3022 1394 3022 966 
Q 3022 478 2636 193 
Q 2250 -91 1575 -91 
Q 1294 -91 989 -36 
Q 684 19 347 128 
L 347 722 
Q 666 556 975 473 
Q 1284 391 1588 391 
Q 1994 391 2212 530 
Q 2431 669 2431 922 
Q 2431 1156 2273 1281 
Q 2116 1406 1581 1522 
L 1381 1569 
Q 847 1681 609 1914 
Q 372 2147 372 2553 
Q 372 3047 722 3315 
Q 1072 3584 1716 3584 
Q 2034 3584 2315 3537 
Q 2597 3491 2834 3397 
z
" id="DejaVuSans-73" transform="scale(0.015625)"/>
      </defs>
      <use xlink:href="#DejaVuSans-6d"/>
      <use x="97.412109" xlink:href="#DejaVuSans-61"/>
      <use x="158.691406" xlink:href="#DejaVuSans-74"/>
      <use x="197.900391" xlink:href="#DejaVuSans-74"/>
      <use x="237.109375" xlink:href="#DejaVuSans-72"/>
      <use x="275.972656" xlink:href="#DejaVuSans-65"/>
      <use x="337.496094" xlink:href="#DejaVuSans-73"/>
      <use x="389.595703" xlink:href="#DejaVuSans-73"/>
     </g>
    </g>
    <g id="line2d_25">
     <path d="M 66.6 83.926687 
L 86.6 83.926687 
" style="fill:none;stroke:#008000;stroke-linecap:square;stroke-opacity:0.9;stroke-width:2;"/>
    </g>
    <g id="line2d_26"/>
    <g id="text_19">
     <!-- daily-open-rebal -->
     <g transform="translate(94.6 87.426687)scale(0.1 -0.1)">
      <defs>
       <path d="M 3513 2113 
L 3513 0 
L 2938 0 
L 2938 2094 
Q 2938 2591 2744 2837 
Q 2550 3084 2163 3084 
Q 1697 3084 1428 2787 
Q 1159 2491 1159 1978 
L 1159 0 
L 581 0 
L 581 3500 
L 1159 3500 
L 1159 2956 
Q 1366 3272 1645 3428 
Q 1925 3584 2291 3584 
Q 2894 3584 3203 3211 
Q 3513 2838 3513 2113 
z
" id="DejaVuSans-6e" transform="scale(0.015625)"/>
       <path d="M 3116 1747 
Q 3116 2381 2855 2742 
Q 2594 3103 2138 3103 
Q 1681 3103 1420 2742 
Q 1159 2381 1159 1747 
Q 1159 1113 1420 752 
Q 1681 391 2138 391 
Q 2594 391 2855 752 
Q 3116 1113 3116 1747 
z
M 1159 2969 
Q 1341 3281 1617 3432 
Q 1894 3584 2278 3584 
Q 2916 3584 3314 3078 
Q 3713 2572 3713 1747 
Q 3713 922 3314 415 
Q 2916 -91 2278 -91 
Q 1894 -91 1617 61 
Q 1341 213 1159 525 
L 1159 0 
L 581 0 
L 581 4863 
L 1159 4863 
L 1159 2969 
z
" id="DejaVuSans-62" transform="scale(0.015625)"/>
      </defs>
      <use xlink:href="#DejaVuSans-64"/>
      <use x="63.476562" xlink:href="#DejaVuSans-61"/>
      <use x="124.755859" xlink:href="#DejaVuSans-69"/>
      <use x="152.539062" xlink:href="#DejaVuSans-6c"/>
      <use x="180.322266" xlink:href="#DejaVuSans-79"/>
      <use x="237.751953" xlink:href="#DejaVuSans-2d"/>
      <use x="275.710938" xlink:href="#DejaVuSans-6f"/>
      <use x="336.892578" xlink:href="#DejaVuSans-70"/>
      <use x="400.369141" xlink:href="#DejaVuSans-65"/>
      <use x="461.892578" xlink:href="#DejaVuSans-6e"/>
      <use x="525.271484" xlink:href="#DejaVuSans-2d"/>
      <use x="561.355469" xlink:href="#DejaVuSans-72"/>
      <use x="600.21875" xlink:href="#DejaVuSans-65"/>
      <use x="661.742188" xlink:href="#DejaVuSans-62"/>
      <use x="725.21875" xlink:href="#DejaVuSans-61"/>
      <use x="786.498047" xlink:href="#DejaVuSans-6c"/>
     </g>
    </g>
    <g id="line2d_27">
     <path d="M 66.6 98.604812 
L 86.6 98.604812 
" style="fill:none;stroke:#ec5283;stroke-linecap:square;stroke-width:2;"/>
    </g>
    <g id="line2d_28"/>
    <g id="text_20">
     <!-- daily-close-rebal -->
     <g transform="translate(94.6 102.104812)scale(0.1 -0.1)">
      <use xlink:href="#DejaVuSans-64"/>
      <use x="63.476562" xlink:href="#DejaVuSans-61"/>
      <use x="124.755859" xlink:href="#DejaVuSans-69"/>
      <use x="152.539062" xlink:href="#DejaVuSans-6c"/>
      <use x="180.322266" xlink:href="#DejaVuSans-79"/>
      <use x="237.751953" xlink:href="#DejaVuSans-2d"/>
      <use x="273.835938" xlink:href="#DejaVuSans-63"/>
      <use x="328.816406" xlink:href="#DejaVuSans-6c"/>
      <use x="356.599609" xlink:href="#DejaVuSans-6f"/>
      <use x="417.78125" xlink:href="#DejaVuSans-73"/>
      <use x="469.880859" xlink:href="#DejaVuSans-65"/>
      <use x="531.404297" xlink:href="#DejaVuSans-2d"/>
      <use x="567.488281" xlink:href="#DejaVuSans-72"/>
      <use x="606.351562" xlink:href="#DejaVuSans-65"/>
      <use x="667.875" xlink:href="#DejaVuSans-62"/>
      <use x="731.351562" xlink:href="#DejaVuSans-61"/>
      <use x="792.630859" xlink:href="#DejaVuSans-6c"/>
     </g>
    </g>
    <g id="line2d_29">
     <path d="M 66.6 113.282937 
L 86.6 113.282937 
" style="fill:none;stroke:#00ff00;stroke-linecap:square;stroke-opacity:0.9;stroke-width:2;"/>
    </g>
    <g id="line2d_30"/>
    <g id="text_21">
     <!-- trader-baseline -->
     <g transform="translate(94.6 116.782937)scale(0.1 -0.1)">
      <use xlink:href="#DejaVuSans-74"/>
      <use x="39.208984" xlink:href="#DejaVuSans-72"/>
      <use x="80.322266" xlink:href="#DejaVuSans-61"/>
      <use x="141.601562" xlink:href="#DejaVuSans-64"/>
      <use x="205.078125" xlink:href="#DejaVuSans-65"/>
      <use x="266.601562" xlink:href="#DejaVuSans-72"/>
      <use x="301.339844" xlink:href="#DejaVuSans-2d"/>
      <use x="337.423828" xlink:href="#DejaVuSans-62"/>
      <use x="400.900391" xlink:href="#DejaVuSans-61"/>
      <use x="462.179688" xlink:href="#DejaVuSans-73"/>
      <use x="514.279297" xlink:href="#DejaVuSans-65"/>
      <use x="575.802734" xlink:href="#DejaVuSans-6c"/>
      <use x="603.585938" xlink:href="#DejaVuSans-69"/>
      <use x="631.369141" xlink:href="#DejaVuSans-6e"/>
      <use x="694.748047" xlink:href="#DejaVuSans-65"/>
     </g>
    </g>
    <g id="line2d_31">
     <path d="M 66.6 127.961062 
L 86.6 127.961062 
" style="fill:none;stroke:#a5b9cf;stroke-linecap:square;stroke-width:2;"/>
    </g>
    <g id="line2d_32"/>
    <g id="text_22">
     <!-- default-cfg -->
     <g transform="translate(94.6 131.461062)scale(0.1 -0.1)">
      <defs>
       <path d="M 2375 4863 
L 2375 4384 
L 1825 4384 
Q 1516 4384 1395 4259 
Q 1275 4134 1275 3809 
L 1275 3500 
L 2222 3500 
L 2222 3053 
L 1275 3053 
L 1275 0 
L 697 0 
L 697 3053 
L 147 3053 
L 147 3500 
L 697 3500 
L 697 3744 
Q 697 4328 969 4595 
Q 1241 4863 1831 4863 
L 2375 4863 
z
" id="DejaVuSans-66" transform="scale(0.015625)"/>
       <path d="M 544 1381 
L 544 3500 
L 1119 3500 
L 1119 1403 
Q 1119 906 1312 657 
Q 1506 409 1894 409 
Q 2359 409 2629 706 
Q 2900 1003 2900 1516 
L 2900 3500 
L 3475 3500 
L 3475 0 
L 2900 0 
L 2900 538 
Q 2691 219 2414 64 
Q 2138 -91 1772 -91 
Q 1169 -91 856 284 
Q 544 659 544 1381 
z
M 1991 3584 
L 1991 3584 
z
" id="DejaVuSans-75" transform="scale(0.015625)"/>
       <path d="M 2906 1791 
Q 2906 2416 2648 2759 
Q 2391 3103 1925 3103 
Q 1463 3103 1205 2759 
Q 947 2416 947 1791 
Q 947 1169 1205 825 
Q 1463 481 1925 481 
Q 2391 481 2648 825 
Q 2906 1169 2906 1791 
z
M 3481 434 
Q 3481 -459 3084 -895 
Q 2688 -1331 1869 -1331 
Q 1566 -1331 1297 -1286 
Q 1028 -1241 775 -1147 
L 775 -588 
Q 1028 -725 1275 -790 
Q 1522 -856 1778 -856 
Q 2344 -856 2625 -561 
Q 2906 -266 2906 331 
L 2906 616 
Q 2728 306 2450 153 
Q 2172 0 1784 0 
Q 1141 0 747 490 
Q 353 981 353 1791 
Q 353 2603 747 3093 
Q 1141 3584 1784 3584 
Q 2172 3584 2450 3431 
Q 2728 3278 2906 2969 
L 2906 3500 
L 3481 3500 
L 3481 434 
z
" id="DejaVuSans-67" transform="scale(0.015625)"/>
      </defs>
      <use xlink:href="#DejaVuSans-64"/>
      <use x="63.476562" xlink:href="#DejaVuSans-65"/>
      <use x="125" xlink:href="#DejaVuSans-66"/>
      <use x="160.205078" xlink:href="#DejaVuSans-61"/>
      <use x="221.484375" xlink:href="#DejaVuSans-75"/>
      <use x="284.863281" xlink:href="#DejaVuSans-6c"/>
      <use x="312.646484" xlink:href="#DejaVuSans-74"/>
      <use x="351.855469" xlink:href="#DejaVuSans-2d"/>
      <use x="387.939453" xlink:href="#DejaVuSans-63"/>
      <use x="442.919922" xlink:href="#DejaVuSans-66"/>
      <use x="478.125" xlink:href="#DejaVuSans-67"/>
     </g>
    </g>
   </g>
  </g>
 </g>
 <defs>
  <clipPath id="pf45124c2cc">
   <rect height="235.008" width="357.12" x="57.6" y="41.472"/>
  </clipPath>
 </defs>
</svg>
