<?xml version="1.0" encoding="utf-8" standalone="no"?>
<!DOCTYPE svg PUBLIC "-//W3C//DTD SVG 1.1//EN"
  "http://www.w3.org/Graphics/SVG/1.1/DTD/svg11.dtd">
<svg height="345.6pt" version="1.1" viewBox="0 0 460.8 345.6" width="460.8pt" xmlns="http://www.w3.org/2000/svg" xmlns:xlink="http://www.w3.org/1999/xlink">
 <metadata>
  <rdf:RDF xmlns:cc="http://creativecommons.org/ns#" xmlns:dc="http://purl.org/dc/elements/1.1/" xmlns:rdf="http://www.w3.org/1999/02/22-rdf-syntax-ns#">
   <cc:Work>
    <dc:type rdf:resource="http://purl.org/dc/dcmitype/StillImage"/>
    <dc:date>2022-01-31T01:01:23.531723</dc:date>
    <dc:format>image/svg+xml</dc:format>
    <dc:creator>
     <cc:Agent>
      <dc:title>Matplotlib v3.4.3, https://matplotlib.org/</dc:title>
     </cc:Agent>
    </dc:creator>
   </cc:Work>
  </rdf:RDF>
 </metadata>
 <defs>
  <style type="text/css">*{stroke-linecap:butt;stroke-linejoin:round;}</style>
 </defs>
 <g id="figure_1">
  <g id="patch_1">
   <path d="M 0 345.6 
L 460.8 345.6 
L 460.8 0 
L 0 0 
z
" style="fill:#ffffff;"/>
  </g>
  <g id="axes_1">
   <g id="patch_2">
    <path d="M 57.6 276.48 
L 414.72 276.48 
L 414.72 41.472 
L 57.6 41.472 
z
" style="fill:#ffffff;"/>
   </g>
   <g id="matplotlib.axis_1">
    <g id="xtick_1">
     <g id="line2d_1">
      <defs>
       <path d="M 0 0 
L 0 3.5 
" id="m06b14a5fff" style="stroke:#000000;stroke-width:0.8;"/>
      </defs>
      <g>
       <use style="stroke:#000000;stroke-width:0.8;" x="92.325708" xlink:href="#m06b14a5fff" y="276.48"/>
      </g>
     </g>
     <g id="text_1">
      <!-- 2021-09 -->
      <g transform="translate(55.100887 310.951846)rotate(-30)scale(0.1 -0.1)">
       <defs>
        <path d="M 1228 531 
L 3431 531 
L 3431 0 
L 469 0 
L 469 531 
Q 828 903 1448 1529 
Q 2069 2156 2228 2338 
Q 2531 2678 2651 2914 
Q 2772 3150 2772 3378 
Q 2772 3750 2511 3984 
Q 2250 4219 1831 4219 
Q 1534 4219 1204 4116 
Q 875 4013 500 3803 
L 500 4441 
Q 881 4594 1212 4672 
Q 1544 4750 1819 4750 
Q 2544 4750 2975 4387 
Q 3406 4025 3406 3419 
Q 3406 3131 3298 2873 
Q 3191 2616 2906 2266 
Q 2828 2175 2409 1742 
Q 1991 1309 1228 531 
z
" id="DejaVuSans-32" transform="scale(0.015625)"/>
        <path d="M 2034 4250 
Q 1547 4250 1301 3770 
Q 1056 3291 1056 2328 
Q 1056 1369 1301 889 
Q 1547 409 2034 409 
Q 2525 409 2770 889 
Q 3016 1369 3016 2328 
Q 3016 3291 2770 3770 
Q 2525 4250 2034 4250 
z
M 2034 4750 
Q 2819 4750 3233 4129 
Q 3647 3509 3647 2328 
Q 3647 1150 3233 529 
Q 2819 -91 2034 -91 
Q 1250 -91 836 529 
Q 422 1150 422 2328 
Q 422 3509 836 4129 
Q 1250 4750 2034 4750 
z
" id="DejaVuSans-30" transform="scale(0.015625)"/>
        <path d="M 794 531 
L 1825 531 
L 1825 4091 
L 703 3866 
L 703 4441 
L 1819 4666 
L 2450 4666 
L 2450 531 
L 3481 531 
L 3481 0 
L 794 0 
L 794 531 
z
" id="DejaVuSans-31" transform="scale(0.015625)"/>
        <path d="M 313 2009 
L 1997 2009 
L 1997 1497 
L 313 1497 
L 313 2009 
z
" id="DejaVuSans-2d" transform="scale(0.015625)"/>
        <path d="M 703 97 
L 703 672 
Q 941 559 1184 500 
Q 1428 441 1663 441 
Q 2288 441 2617 861 
Q 2947 1281 2994 2138 
Q 2813 1869 2534 1725 
Q 2256 1581 1919 1581 
Q 1219 1581 811 2004 
Q 403 2428 403 3163 
Q 403 3881 828 4315 
Q 1253 4750 1959 4750 
Q 2769 4750 3195 4129 
Q 3622 3509 3622 2328 
Q 3622 1225 3098 567 
Q 2575 -91 1691 -91 
Q 1453 -91 1209 -44 
Q 966 3 703 97 
z
M 1959 2075 
Q 2384 2075 2632 2365 
Q 2881 2656 2881 3163 
Q 2881 3666 2632 3958 
Q 2384 4250 1959 4250 
Q 1534 4250 1286 3958 
Q 1038 3666 1038 3163 
Q 1038 2656 1286 2365 
Q 1534 2075 1959 2075 
z
" id="DejaVuSans-39" transform="scale(0.015625)"/>
       </defs>
       <use xlink:href="#DejaVuSans-32"/>
       <use x="63.623047" xlink:href="#DejaVuSans-30"/>
       <use x="127.246094" xlink:href="#DejaVuSans-32"/>
       <use x="190.869141" xlink:href="#DejaVuSans-31"/>
       <use x="254.492188" xlink:href="#DejaVuSans-2d"/>
       <use x="290.576172" xlink:href="#DejaVuSans-30"/>
       <use x="354.199219" xlink:href="#DejaVuSans-39"/>
      </g>
     </g>
    </g>
    <g id="xtick_2">
     <g id="line2d_2">
      <g>
       <use style="stroke:#000000;stroke-width:0.8;" x="153.968976" xlink:href="#m06b14a5fff" y="276.48"/>
      </g>
     </g>
     <g id="text_2">
      <!-- 2021-10 -->
      <g transform="translate(116.744155 310.951846)rotate(-30)scale(0.1 -0.1)">
       <use xlink:href="#DejaVuSans-32"/>
       <use x="63.623047" xlink:href="#DejaVuSans-30"/>
       <use x="127.246094" xlink:href="#DejaVuSans-32"/>
       <use x="190.869141" xlink:href="#DejaVuSans-31"/>
       <use x="254.492188" xlink:href="#DejaVuSans-2d"/>
       <use x="290.576172" xlink:href="#DejaVuSans-31"/>
       <use x="354.199219" xlink:href="#DejaVuSans-30"/>
      </g>
     </g>
    </g>
    <g id="xtick_3">
     <g id="line2d_3">
      <g>
       <use style="stroke:#000000;stroke-width:0.8;" x="217.66702" xlink:href="#m06b14a5fff" y="276.48"/>
      </g>
     </g>
     <g id="text_3">
      <!-- 2021-11 -->
      <g transform="translate(180.442199 310.951846)rotate(-30)scale(0.1 -0.1)">
       <use xlink:href="#DejaVuSans-32"/>
       <use x="63.623047" xlink:href="#DejaVuSans-30"/>
       <use x="127.246094" xlink:href="#DejaVuSans-32"/>
       <use x="190.869141" xlink:href="#DejaVuSans-31"/>
       <use x="254.492188" xlink:href="#DejaVuSans-2d"/>
       <use x="290.576172" xlink:href="#DejaVuSans-31"/>
       <use x="354.199219" xlink:href="#DejaVuSans-31"/>
      </g>
     </g>
    </g>
    <g id="xtick_4">
     <g id="line2d_4">
      <g>
       <use style="stroke:#000000;stroke-width:0.8;" x="279.310288" xlink:href="#m06b14a5fff" y="276.48"/>
      </g>
     </g>
     <g id="text_4">
      <!-- 2021-12 -->
      <g transform="translate(242.085467 310.951846)rotate(-30)scale(0.1 -0.1)">
       <use xlink:href="#DejaVuSans-32"/>
       <use x="63.623047" xlink:href="#DejaVuSans-30"/>
       <use x="127.246094" xlink:href="#DejaVuSans-32"/>
       <use x="190.869141" xlink:href="#DejaVuSans-31"/>
       <use x="254.492188" xlink:href="#DejaVuSans-2d"/>
       <use x="290.576172" xlink:href="#DejaVuSans-31"/>
       <use x="354.199219" xlink:href="#DejaVuSans-32"/>
      </g>
     </g>
    </g>
    <g id="xtick_5">
     <g id="line2d_5">
      <g>
       <use style="stroke:#000000;stroke-width:0.8;" x="343.008331" xlink:href="#m06b14a5fff" y="276.48"/>
      </g>
     </g>
     <g id="text_5">
      <!-- 2022-01 -->
      <g transform="translate(305.783511 310.951846)rotate(-30)scale(0.1 -0.1)">
       <use xlink:href="#DejaVuSans-32"/>
       <use x="63.623047" xlink:href="#DejaVuSans-30"/>
       <use x="127.246094" xlink:href="#DejaVuSans-32"/>
       <use x="190.869141" xlink:href="#DejaVuSans-32"/>
       <use x="254.492188" xlink:href="#DejaVuSans-2d"/>
       <use x="290.576172" xlink:href="#DejaVuSans-30"/>
       <use x="354.199219" xlink:href="#DejaVuSans-31"/>
      </g>
     </g>
    </g>
    <g id="xtick_6">
     <g id="line2d_6">
      <g>
       <use style="stroke:#000000;stroke-width:0.8;" x="406.706375" xlink:href="#m06b14a5fff" y="276.48"/>
      </g>
     </g>
     <g id="text_6">
      <!-- 2022-02 -->
      <g transform="translate(369.481554 310.951846)rotate(-30)scale(0.1 -0.1)">
       <use xlink:href="#DejaVuSans-32"/>
       <use x="63.623047" xlink:href="#DejaVuSans-30"/>
       <use x="127.246094" xlink:href="#DejaVuSans-32"/>
       <use x="190.869141" xlink:href="#DejaVuSans-32"/>
       <use x="254.492188" xlink:href="#DejaVuSans-2d"/>
       <use x="290.576172" xlink:href="#DejaVuSans-30"/>
       <use x="354.199219" xlink:href="#DejaVuSans-32"/>
      </g>
     </g>
    </g>
    <g id="text_7">
     <!-- date -->
     <g transform="translate(224.885 324.351346)scale(0.1 -0.1)">
      <defs>
       <path d="M 2906 2969 
L 2906 4863 
L 3481 4863 
L 3481 0 
L 2906 0 
L 2906 525 
Q 2725 213 2448 61 
Q 2172 -91 1784 -91 
Q 1150 -91 751 415 
Q 353 922 353 1747 
Q 353 2572 751 3078 
Q 1150 3584 1784 3584 
Q 2172 3584 2448 3432 
Q 2725 3281 2906 2969 
z
M 947 1747 
Q 947 1113 1208 752 
Q 1469 391 1925 391 
Q 2381 391 2643 752 
Q 2906 1113 2906 1747 
Q 2906 2381 2643 2742 
Q 2381 3103 1925 3103 
Q 1469 3103 1208 2742 
Q 947 2381 947 1747 
z
" id="DejaVuSans-64" transform="scale(0.015625)"/>
       <path d="M 2194 1759 
Q 1497 1759 1228 1600 
Q 959 1441 959 1056 
Q 959 750 1161 570 
Q 1363 391 1709 391 
Q 2188 391 2477 730 
Q 2766 1069 2766 1631 
L 2766 1759 
L 2194 1759 
z
M 3341 1997 
L 3341 0 
L 2766 0 
L 2766 531 
Q 2569 213 2275 61 
Q 1981 -91 1556 -91 
Q 1019 -91 701 211 
Q 384 513 384 1019 
Q 384 1609 779 1909 
Q 1175 2209 1959 2209 
L 2766 2209 
L 2766 2266 
Q 2766 2663 2505 2880 
Q 2244 3097 1772 3097 
Q 1472 3097 1187 3025 
Q 903 2953 641 2809 
L 641 3341 
Q 956 3463 1253 3523 
Q 1550 3584 1831 3584 
Q 2591 3584 2966 3190 
Q 3341 2797 3341 1997 
z
" id="DejaVuSans-61" transform="scale(0.015625)"/>
       <path d="M 1172 4494 
L 1172 3500 
L 2356 3500 
L 2356 3053 
L 1172 3053 
L 1172 1153 
Q 1172 725 1289 603 
Q 1406 481 1766 481 
L 2356 481 
L 2356 0 
L 1766 0 
Q 1100 0 847 248 
Q 594 497 594 1153 
L 594 3053 
L 172 3053 
L 172 3500 
L 594 3500 
L 594 4494 
L 1172 4494 
z
" id="DejaVuSans-74" transform="scale(0.015625)"/>
       <path d="M 3597 1894 
L 3597 1613 
L 953 1613 
Q 991 1019 1311 708 
Q 1631 397 2203 397 
Q 2534 397 2845 478 
Q 3156 559 3463 722 
L 3463 178 
Q 3153 47 2828 -22 
Q 2503 -91 2169 -91 
Q 1331 -91 842 396 
Q 353 884 353 1716 
Q 353 2575 817 3079 
Q 1281 3584 2069 3584 
Q 2775 3584 3186 3129 
Q 3597 2675 3597 1894 
z
M 3022 2063 
Q 3016 2534 2758 2815 
Q 2500 3097 2075 3097 
Q 1594 3097 1305 2825 
Q 1016 2553 972 2059 
L 3022 2063 
z
" id="DejaVuSans-65" transform="scale(0.015625)"/>
      </defs>
      <use xlink:href="#DejaVuSans-64"/>
      <use x="63.476562" xlink:href="#DejaVuSans-61"/>
      <use x="124.755859" xlink:href="#DejaVuSans-74"/>
      <use x="163.964844" xlink:href="#DejaVuSans-65"/>
     </g>
    </g>
   </g>
   <g id="matplotlib.axis_2">
    <g id="ytick_1">
     <g id="line2d_7">
      <defs>
       <path d="M 0 0 
L -3.5 0 
" id="m79a4174e38" style="stroke:#000000;stroke-width:0.8;"/>
      </defs>
      <g>
       <use style="stroke:#000000;stroke-width:0.8;" x="57.6" xlink:href="#m79a4174e38" y="237.427134"/>
      </g>
     </g>
     <g id="text_8">
      <!-- 95000 -->
      <g transform="translate(18.7875 241.226353)scale(0.1 -0.1)">
       <defs>
        <path d="M 691 4666 
L 3169 4666 
L 3169 4134 
L 1269 4134 
L 1269 2991 
Q 1406 3038 1543 3061 
Q 1681 3084 1819 3084 
Q 2600 3084 3056 2656 
Q 3513 2228 3513 1497 
Q 3513 744 3044 326 
Q 2575 -91 1722 -91 
Q 1428 -91 1123 -41 
Q 819 9 494 109 
L 494 744 
Q 775 591 1075 516 
Q 1375 441 1709 441 
Q 2250 441 2565 725 
Q 2881 1009 2881 1497 
Q 2881 1984 2565 2268 
Q 2250 2553 1709 2553 
Q 1456 2553 1204 2497 
Q 953 2441 691 2322 
L 691 4666 
z
" id="DejaVuSans-35" transform="scale(0.015625)"/>
       </defs>
       <use xlink:href="#DejaVuSans-39"/>
       <use x="63.623047" xlink:href="#DejaVuSans-35"/>
       <use x="127.246094" xlink:href="#DejaVuSans-30"/>
       <use x="190.869141" xlink:href="#DejaVuSans-30"/>
       <use x="254.492188" xlink:href="#DejaVuSans-30"/>
      </g>
     </g>
    </g>
    <g id="ytick_2">
     <g id="line2d_8">
      <g>
       <use style="stroke:#000000;stroke-width:0.8;" x="57.6" xlink:href="#m79a4174e38" y="188.083631"/>
      </g>
     </g>
     <g id="text_9">
      <!-- 100000 -->
      <g transform="translate(12.425 191.882849)scale(0.1 -0.1)">
       <use xlink:href="#DejaVuSans-31"/>
       <use x="63.623047" xlink:href="#DejaVuSans-30"/>
       <use x="127.246094" xlink:href="#DejaVuSans-30"/>
       <use x="190.869141" xlink:href="#DejaVuSans-30"/>
       <use x="254.492188" xlink:href="#DejaVuSans-30"/>
       <use x="318.115234" xlink:href="#DejaVuSans-30"/>
      </g>
     </g>
    </g>
    <g id="ytick_3">
     <g id="line2d_9">
      <g>
       <use style="stroke:#000000;stroke-width:0.8;" x="57.6" xlink:href="#m79a4174e38" y="138.740127"/>
      </g>
     </g>
     <g id="text_10">
      <!-- 105000 -->
      <g transform="translate(12.425 142.539345)scale(0.1 -0.1)">
       <use xlink:href="#DejaVuSans-31"/>
       <use x="63.623047" xlink:href="#DejaVuSans-30"/>
       <use x="127.246094" xlink:href="#DejaVuSans-35"/>
       <use x="190.869141" xlink:href="#DejaVuSans-30"/>
       <use x="254.492188" xlink:href="#DejaVuSans-30"/>
       <use x="318.115234" xlink:href="#DejaVuSans-30"/>
      </g>
     </g>
    </g>
    <g id="ytick_4">
     <g id="line2d_10">
      <g>
       <use style="stroke:#000000;stroke-width:0.8;" x="57.6" xlink:href="#m79a4174e38" y="89.396623"/>
      </g>
     </g>
     <g id="text_11">
      <!-- 110000 -->
      <g transform="translate(12.425 93.195841)scale(0.1 -0.1)">
       <use xlink:href="#DejaVuSans-31"/>
       <use x="63.623047" xlink:href="#DejaVuSans-31"/>
       <use x="127.246094" xlink:href="#DejaVuSans-30"/>
       <use x="190.869141" xlink:href="#DejaVuSans-30"/>
       <use x="254.492188" xlink:href="#DejaVuSans-30"/>
       <use x="318.115234" xlink:href="#DejaVuSans-30"/>
      </g>
     </g>
    </g>
   </g>
   <g id="line2d_11">
    <path clip-path="url(#p81ef33c858)" d="M 73.832727 188.083631 
L 75.887503 185.236331 
L 77.942278 181.621676 
L 79.997054 186.87189 
L 82.05183 177.843562 
L 88.216157 171.915054 
L 90.270932 169.589391 
L 92.325708 172.266701 
L 94.380483 170.69651 
L 96.435259 170.625963 
L 104.654361 171.430713 
L 106.709137 173.324212 
L 108.763913 176.152523 
L 110.818688 185.666648 
L 116.983015 178.385582 
L 119.037791 191.214643 
L 121.092566 184.904603 
L 123.147342 186.672613 
L 125.202117 196.436274 
L 131.366444 213.170586 
L 133.42122 214.666589 
L 135.475995 208.122027 
L 137.530771 193.054086 
L 139.585547 184.380843 
L 145.749873 177.326477 
L 147.804649 198.646683 
L 149.859425 196.579121 
L 151.9142 204.488021 
L 153.968976 189.961829 
L 160.133303 208.216347 
L 162.188078 193.29284 
L 164.242854 189.592429 
L 166.297629 189.470244 
L 168.352405 188.320698 
L 174.516732 187.731991 
L 176.571507 186.033649 
L 178.626283 198.63902 
L 180.681059 180.167406 
L 182.735834 177.789772 
L 188.900161 170.424079 
L 190.954937 160.456782 
L 193.009712 156.320581 
L 195.064488 174.260364 
L 197.119264 187.876426 
L 203.28359 186.736435 
L 205.338366 195.024132 
L 207.393142 198.863253 
L 209.447917 185.795459 
L 211.502693 198.552241 
L 217.66702 177.995941 
L 219.721795 178.882837 
L 221.776571 167.849067 
L 223.831346 179.870278 
L 225.886122 173.564072 
L 232.050449 172.335093 
L 234.105224 184.863664 
L 236.16 184.252065 
L 238.214776 193.012081 
L 240.269551 184.705366 
L 246.433878 182.265232 
L 248.488654 181.94978 
L 250.543429 187.271876 
L 252.598205 190.286019 
L 254.65298 190.71296 
L 260.817307 184.801352 
L 262.872083 177.259432 
L 264.926858 177.99347 
L 269.03641 177.604214 
L 275.200736 186.733869 
L 277.255512 205.760334 
L 279.310288 219.337877 
L 281.365063 207.471958 
L 283.419839 214.494196 
L 289.584166 195.628629 
L 291.638941 178.854765 
L 293.693717 171.675705 
L 295.748493 170.695862 
L 297.803268 167.445566 
L 303.967595 177.195508 
L 306.022371 172.945346 
L 308.077146 166.653381 
L 310.131922 162.235735 
L 312.186697 172.376981 
L 318.351024 186.976219 
L 320.4058 163.593554 
L 322.460575 159.22658 
L 324.515351 149.801883 
L 332.734453 136.675529 
L 334.789229 137.271913 
L 336.844005 137.977543 
L 338.89878 139.001094 
L 340.953556 144.353264 
L 347.117883 128.512303 
L 349.172658 116.202267 
L 351.227434 143.566136 
L 353.282209 134.122629 
L 355.336985 132.32664 
L 361.501312 131.016277 
L 363.556087 122.470214 
L 365.610863 120.753312 
L 367.665639 133.320614 
L 369.720414 130.477458 
L 377.939517 152.739751 
L 379.994292 159.604647 
L 382.049068 170.986557 
L 384.103843 193.888191 
L 390.26817 192.92644 
L 392.322946 204.662408 
L 394.377722 204.277066 
L 396.432497 210.571944 
L 398.487273 183.8079 
" style="fill:none;stroke:#0000ff;stroke-linecap:square;stroke-opacity:0.9;stroke-width:2;"/>
   </g>
   <g id="line2d_12">
    <path clip-path="url(#p81ef33c858)" d="M 73.832727 188.083631 
L 75.887503 182.73138 
L 77.942278 178.293466 
L 79.997054 184.039443 
L 82.05183 172.539419 
L 88.216157 168.615513 
L 90.270932 168.048533 
L 92.325708 168.228541 
L 94.380483 169.028481 
L 96.435259 168.393092 
L 104.654361 166.744288 
L 106.709137 170.838842 
L 108.763913 173.403553 
L 110.818688 183.938607 
L 116.983015 176.502428 
L 119.037791 186.10746 
L 121.092566 181.118812 
L 123.147342 183.915021 
L 125.202117 196.205313 
L 131.366444 212.575309 
L 133.42122 212.835096 
L 135.475995 207.462724 
L 137.530771 194.009238 
L 139.585547 186.951253 
L 145.749873 180.509938 
L 147.804649 200.503531 
L 149.859425 199.596864 
L 151.9142 208.508272 
L 153.968976 194.238578 
L 160.133303 204.94601 
L 162.188078 191.374865 
L 164.242854 189.018807 
L 166.297629 186.381777 
L 168.352405 181.129645 
L 174.516732 186.751361 
L 176.571507 194.606256 
L 178.626283 197.880237 
L 180.681059 174.023405 
L 182.735834 166.606648 
L 188.900161 163.893892 
L 190.954937 155.076029 
L 193.009712 150.492266 
L 195.064488 162.950882 
L 197.119264 168.385599 
L 203.28359 170.903112 
L 205.338366 176.508859 
L 207.393142 182.232098 
L 209.447917 168.677169 
L 211.502693 167.04105 
L 217.66702 166.000901 
L 219.721795 162.326802 
L 221.776571 154.266111 
L 223.831346 156.336832 
L 225.886122 156.27836 
L 232.050449 155.638479 
L 234.105224 163.291 
L 236.16 168.96613 
L 238.214776 167.904603 
L 240.269551 162.028565 
L 246.433878 159.216844 
L 248.488654 161.164973 
L 250.543429 162.561547 
L 252.598205 162.561543 
L 254.65298 165.711826 
L 260.817307 161.46309 
L 262.872083 152.241591 
L 264.926858 151.235875 
L 269.03641 177.713604 
L 275.200736 166.534333 
L 277.255512 187.502021 
L 279.310288 199.031787 
L 281.365063 186.123722 
L 283.419839 194.078412 
L 289.584166 179.075757 
L 291.638941 161.65848 
L 293.693717 156.204418 
L 295.748493 156.56625 
L 297.803268 150.57108 
L 303.967595 160.90947 
L 306.022371 160.177608 
L 308.077146 152.250929 
L 310.131922 151.840095 
L 312.186697 165.003067 
L 318.351024 176.390716 
L 320.4058 157.170877 
L 322.460575 151.939541 
L 324.515351 142.820236 
L 332.734453 129.996785 
L 334.789229 130.180262 
L 336.844005 129.436123 
L 338.89878 131.254564 
L 340.953556 135.399564 
L 347.117883 123.484496 
L 349.172658 113.633879 
L 351.227434 136.607538 
L 353.282209 132.00864 
L 355.336985 127.344566 
L 361.501312 127.915449 
L 363.556087 122.029069 
L 365.610863 121.109961 
L 367.665639 129.020092 
L 369.720414 129.764554 
L 377.939517 153.174916 
L 379.994292 162.79413 
L 382.049068 172.743443 
L 384.103843 193.258427 
L 390.26817 194.43215 
L 392.322946 192.162668 
L 394.377722 193.719499 
L 396.432497 202.213338 
L 398.487273 178.363148 
" style="fill:none;stroke:#ff0000;stroke-linecap:square;stroke-opacity:0.9;stroke-width:2;"/>
   </g>
   <g id="line2d_13">
    <path clip-path="url(#p81ef33c858)" d="M 73.832727 188.083631 
L 75.887503 182.811088 
L 77.942278 178.908762 
L 79.997054 184.942169 
L 82.05183 175.84694 
L 88.216157 169.643204 
L 90.270932 166.637377 
L 92.325708 169.10795 
L 94.380483 167.858831 
L 96.435259 168.787836 
L 104.654361 168.806741 
L 106.709137 170.437243 
L 108.763913 173.598053 
L 110.818688 182.622525 
L 116.983015 173.433034 
L 119.037791 187.704276 
L 121.092566 180.502955 
L 123.147342 182.493921 
L 125.202117 191.810999 
L 131.366444 207.853011 
L 133.42122 209.228432 
L 135.475995 202.475661 
L 137.530771 187.207113 
L 139.585547 178.764247 
L 145.749873 171.263885 
L 147.804649 192.232453 
L 149.859425 190.60331 
L 151.9142 198.122201 
L 153.968976 182.990937 
L 160.133303 201.978738 
L 162.188078 186.704956 
L 164.242854 182.576803 
L 166.297629 180.300586 
L 168.352405 176.912602 
L 174.516732 182.737684 
L 176.571507 189.713203 
L 178.626283 192.093711 
L 180.681059 172.206779 
L 182.735834 170.743938 
L 188.900161 163.157734 
L 190.954937 152.627559 
L 193.009712 148.582303 
L 195.064488 166.066245 
L 197.119264 180.009915 
L 203.28359 179.416316 
L 205.338366 188.151187 
L 207.393142 191.351757 
L 209.447917 178.336656 
L 211.502693 175.510382 
L 217.66702 170.152135 
L 219.721795 168.448952 
L 221.776571 160.337093 
L 223.831346 158.939391 
L 225.886122 151.344512 
L 232.050449 151.086807 
L 234.105224 163.690593 
L 236.16 170.649735 
L 238.214776 170.986491 
L 240.269551 162.958511 
L 246.433878 160.158782 
L 248.488654 165.201575 
L 250.543429 165.2285 
L 252.598205 168.599622 
L 254.65298 169.480693 
L 260.817307 162.534233 
L 262.872083 154.377476 
L 264.926858 154.723152 
L 269.03641 176.152607 
L 275.200736 164.062288 
L 277.255512 184.201164 
L 279.310288 197.956096 
L 281.365063 185.404186 
L 283.419839 191.483505 
L 289.584166 173.788233 
L 291.638941 155.53597 
L 293.693717 148.185181 
L 295.748493 147.543908 
L 297.803268 143.813142 
L 303.967595 153.617014 
L 306.022371 149.292557 
L 308.077146 143.175078 
L 310.131922 137.744702 
L 312.186697 149.008249 
L 318.351024 163.130734 
L 320.4058 139.891134 
L 322.460575 134.522198 
L 324.515351 125.395977 
L 332.734453 112.037636 
L 334.789229 113.018693 
L 336.844005 112.566115 
L 338.89878 114.633831 
L 340.953556 119.464666 
L 347.117883 103.484634 
L 349.172658 89.896118 
L 351.227434 118.868823 
L 353.282209 109.381849 
L 355.336985 106.627943 
L 361.501312 105.442393 
L 363.556087 96.276473 
L 365.610863 94.599845 
L 367.665639 107.607981 
L 369.720414 103.679834 
L 377.939517 126.889098 
L 379.994292 134.350052 
L 382.049068 144.946073 
L 384.103843 169.220385 
L 390.26817 167.125227 
L 392.322946 179.486933 
L 394.377722 179.822684 
L 396.432497 186.387274 
L 398.487273 160.540871 
" style="fill:none;stroke:#ff8040;stroke-linecap:square;stroke-opacity:0.9;stroke-width:2;"/>
   </g>
   <g id="line2d_14">
    <path clip-path="url(#p81ef33c858)" d="M 73.832727 189.070501 
L 75.887503 185.975737 
L 77.942278 184.152554 
L 79.997054 191.111217 
L 82.05183 179.846706 
L 88.216157 178.767829 
L 90.270932 177.833659 
L 92.325708 183.207994 
L 94.380483 182.614563 
L 96.435259 181.931164 
L 104.654361 183.19902 
L 106.709137 186.919891 
L 108.763913 189.922325 
L 110.818688 203.084963 
L 116.983015 197.624487 
L 119.037791 206.547167 
L 121.092566 200.649804 
L 123.147342 202.594992 
L 125.202117 214.033529 
L 131.366444 231.601994 
L 133.42122 232.349306 
L 135.475995 227.991946 
L 137.530771 214.326498 
L 139.585547 209.104793 
L 145.749873 208.14862 
L 147.804649 225.790436 
L 149.859425 224.445785 
L 151.9142 233.342886 
L 153.968976 221.750303 
L 160.133303 233.571412 
L 162.188078 220.17153 
L 164.242854 218.752307 
L 166.297629 215.251028 
L 168.352405 210.892461 
L 174.516732 216.801541 
L 176.571507 222.591575 
L 178.626283 225.556756 
L 180.681059 200.987011 
L 182.735834 197.564369 
L 188.900161 199.924771 
L 190.954937 190.527454 
L 193.009712 184.992021 
L 195.064488 214.719384 
L 197.119264 216.315963 
L 203.28359 220.35817 
L 205.338366 226.402883 
L 207.393142 231.101087 
L 209.447917 217.385632 
L 211.502693 219.329453 
L 217.66702 221.2941 
L 219.721795 215.916202 
L 221.776571 209.171325 
L 223.831346 209.103475 
L 225.886122 208.367137 
L 232.050449 207.638379 
L 234.105224 214.320337 
L 236.16 220.941645 
L 238.214776 220.892077 
L 240.269551 220.912652 
L 246.433878 217.098281 
L 248.488654 217.80331 
L 250.543429 219.578751 
L 252.598205 219.24715 
L 254.65298 224.804714 
L 260.817307 225.071342 
L 262.872083 216.155251 
L 264.926858 215.1157 
L 269.03641 240.489485 
L 275.200736 227.630303 
L 277.255512 250.904082 
L 279.310288 263.002085 
L 281.365063 254.091988 
L 283.419839 262.46673 
L 289.584166 250.57588 
L 291.638941 233.122464 
L 293.693717 228.576685 
L 295.748493 230.101506 
L 297.803268 223.941989 
L 303.967595 234.451657 
L 306.022371 234.483761 
L 308.077146 224.321472 
L 310.131922 227.27608 
L 312.186697 236.820767 
L 318.351024 246.181831 
L 320.4058 223.675762 
L 322.460575 219.538023 
L 324.515351 210.323345 
L 332.734453 197.664028 
L 334.789229 195.869895 
L 336.844005 195.479944 
L 338.89878 197.170358 
L 340.953556 202.13954 
L 347.117883 183.540173 
L 349.172658 171.355253 
L 351.227434 195.830598 
L 353.282209 195.416278 
L 355.336985 193.042832 
L 361.501312 193.840011 
L 363.556087 188.092873 
L 365.610863 188.959069 
L 367.665639 196.088061 
L 369.720414 195.654844 
L 377.939517 219.596515 
L 379.994292 231.513167 
L 382.049068 241.146344 
L 384.103843 260.265712 
L 390.26817 260.980017 
L 392.322946 257.349816 
L 394.377722 258.044876 
L 396.432497 265.797818 
L 398.487273 243.741163 
" style="fill:none;stroke:#0d0d0d;stroke-linecap:square;stroke-opacity:0.25;stroke-width:2;"/>
   </g>
   <g id="line2d_15">
    <path clip-path="url(#p81ef33c858)" d="M 73.832727 187.09676 
L 75.887503 178.353598 
L 77.942278 172.036374 
L 79.997054 176.89981 
L 82.05183 163.338864 
L 88.216157 157.522697 
L 90.270932 154.518361 
L 92.325708 152.385442 
L 94.380483 149.596048 
L 96.435259 147.632148 
L 104.654361 146.003715 
L 106.709137 152.118523 
L 108.763913 153.636866 
L 110.818688 161.479514 
L 116.983015 155.021851 
L 119.037791 164.103368 
L 121.092566 157.190205 
L 123.147342 158.466593 
L 125.202117 169.882343 
L 131.366444 190.137163 
L 133.42122 189.946154 
L 135.475995 178.872469 
L 137.530771 161.772902 
L 139.585547 153.100625 
L 145.749873 146.991735 
L 147.804649 166.565449 
L 149.859425 163.883844 
L 151.9142 172.406837 
L 153.968976 157.392532 
L 160.133303 162.240874 
L 162.188078 150.245845 
L 164.242854 148.25807 
L 166.297629 147.403024 
L 168.352405 142.559953 
L 174.516732 150.238459 
L 176.571507 159.390891 
L 178.626283 160.11449 
L 180.681059 133.058977 
L 182.735834 128.526425 
L 188.900161 128.427458 
L 190.954937 120.163202 
L 193.009712 112.178315 
L 195.064488 118.513927 
L 197.119264 124.071906 
L 203.28359 126.589277 
L 205.338366 136.152881 
L 207.393142 140.441076 
L 209.447917 123.538235 
L 211.502693 119.482318 
L 217.66702 114.475534 
L 219.721795 109.741021 
L 221.776571 103.075018 
L 223.831346 104.455824 
L 225.886122 103.74891 
L 232.050449 101.748416 
L 234.105224 107.986297 
L 236.16 112.814933 
L 238.214776 112.935788 
L 240.269551 103.388174 
L 246.433878 101.162364 
L 248.488654 102.230482 
L 250.543429 102.86554 
L 252.598205 102.966471 
L 254.65298 107.199777 
L 260.817307 99.462036 
L 262.872083 90.731203 
L 264.926858 89.581608 
L 269.03641 118.034511 
L 275.200736 103.331712 
L 277.255512 129.824799 
L 279.310288 139.568576 
L 281.365063 124.97635 
L 283.419839 127.944212 
L 289.584166 114.016568 
L 291.638941 92.441219 
L 293.693717 91.597273 
L 295.748493 92.006296 
L 297.803268 81.71129 
L 303.967595 94.372906 
L 306.022371 96.878026 
L 308.077146 91.934391 
L 310.131922 89.097262 
L 312.186697 103.008337 
L 318.351024 118.916991 
L 320.4058 101.440678 
L 322.460575 95.889834 
L 324.515351 85.396537 
L 332.734453 73.294512 
L 334.789229 73.878065 
L 336.844005 72.749349 
L 338.89878 73.709423 
L 340.953556 79.642877 
L 347.117883 66.797574 
L 349.172658 52.154182 
L 351.227434 77.386837 
L 353.282209 73.490842 
L 355.336985 69.229357 
L 361.501312 68.525985 
L 363.556087 58.632316 
L 365.610863 57.648136 
L 367.665639 68.940558 
L 369.720414 70.650632 
L 377.939517 90.012125 
L 379.994292 97.188692 
L 382.049068 108.613964 
L 384.103843 128.181427 
L 390.26817 127.738099 
L 392.322946 132.300461 
L 394.377722 129.049112 
L 396.432497 136.098214 
L 398.487273 115.321057 
" style="fill:none;stroke:#0d0d0d;stroke-linecap:square;stroke-opacity:0.25;stroke-width:2;"/>
   </g>
   <g id="patch_3">
    <path d="M 57.6 276.48 
L 57.6 41.472 
" style="fill:none;stroke:#000000;stroke-linecap:square;stroke-linejoin:miter;stroke-width:0.8;"/>
   </g>
   <g id="patch_4">
    <path d="M 414.72 276.48 
L 414.72 41.472 
" style="fill:none;stroke:#000000;stroke-linecap:square;stroke-linejoin:miter;stroke-width:0.8;"/>
   </g>
   <g id="patch_5">
    <path d="M 57.6 276.48 
L 414.72 276.48 
" style="fill:none;stroke:#000000;stroke-linecap:square;stroke-linejoin:miter;stroke-width:0.8;"/>
   </g>
   <g id="patch_6">
    <path d="M 57.6 41.472 
L 414.72 41.472 
" style="fill:none;stroke:#000000;stroke-linecap:square;stroke-linejoin:miter;stroke-width:0.8;"/>
   </g>
   <g id="text_12">
    <!-- TESTFUNDS0830 -->
    <g transform="translate(185.200312 22.034625)scale(0.12 -0.12)">
     <defs>
      <path d="M -19 4666 
L 3928 4666 
L 3928 4134 
L 2272 4134 
L 2272 0 
L 1638 0 
L 1638 4134 
L -19 4134 
L -19 4666 
z
" id="DejaVuSans-54" transform="scale(0.015625)"/>
      <path d="M 628 4666 
L 3578 4666 
L 3578 4134 
L 1259 4134 
L 1259 2753 
L 3481 2753 
L 3481 2222 
L 1259 2222 
L 1259 531 
L 3634 531 
L 3634 0 
L 628 0 
L 628 4666 
z
" id="DejaVuSans-45" transform="scale(0.015625)"/>
      <path d="M 3425 4513 
L 3425 3897 
Q 3066 4069 2747 4153 
Q 2428 4238 2131 4238 
Q 1616 4238 1336 4038 
Q 1056 3838 1056 3469 
Q 1056 3159 1242 3001 
Q 1428 2844 1947 2747 
L 2328 2669 
Q 3034 2534 3370 2195 
Q 3706 1856 3706 1288 
Q 3706 609 3251 259 
Q 2797 -91 1919 -91 
Q 1588 -91 1214 -16 
Q 841 59 441 206 
L 441 856 
Q 825 641 1194 531 
Q 1563 422 1919 422 
Q 2459 422 2753 634 
Q 3047 847 3047 1241 
Q 3047 1584 2836 1778 
Q 2625 1972 2144 2069 
L 1759 2144 
Q 1053 2284 737 2584 
Q 422 2884 422 3419 
Q 422 4038 858 4394 
Q 1294 4750 2059 4750 
Q 2388 4750 2728 4690 
Q 3069 4631 3425 4513 
z
" id="DejaVuSans-53" transform="scale(0.015625)"/>
      <path d="M 628 4666 
L 3309 4666 
L 3309 4134 
L 1259 4134 
L 1259 2759 
L 3109 2759 
L 3109 2228 
L 1259 2228 
L 1259 0 
L 628 0 
L 628 4666 
z
" id="DejaVuSans-46" transform="scale(0.015625)"/>
      <path d="M 556 4666 
L 1191 4666 
L 1191 1831 
Q 1191 1081 1462 751 
Q 1734 422 2344 422 
Q 2950 422 3222 751 
Q 3494 1081 3494 1831 
L 3494 4666 
L 4128 4666 
L 4128 1753 
Q 4128 841 3676 375 
Q 3225 -91 2344 -91 
Q 1459 -91 1007 375 
Q 556 841 556 1753 
L 556 4666 
z
" id="DejaVuSans-55" transform="scale(0.015625)"/>
      <path d="M 628 4666 
L 1478 4666 
L 3547 763 
L 3547 4666 
L 4159 4666 
L 4159 0 
L 3309 0 
L 1241 3903 
L 1241 0 
L 628 0 
L 628 4666 
z
" id="DejaVuSans-4e" transform="scale(0.015625)"/>
      <path d="M 1259 4147 
L 1259 519 
L 2022 519 
Q 2988 519 3436 956 
Q 3884 1394 3884 2338 
Q 3884 3275 3436 3711 
Q 2988 4147 2022 4147 
L 1259 4147 
z
M 628 4666 
L 1925 4666 
Q 3281 4666 3915 4102 
Q 4550 3538 4550 2338 
Q 4550 1131 3912 565 
Q 3275 0 1925 0 
L 628 0 
L 628 4666 
z
" id="DejaVuSans-44" transform="scale(0.015625)"/>
      <path d="M 2034 2216 
Q 1584 2216 1326 1975 
Q 1069 1734 1069 1313 
Q 1069 891 1326 650 
Q 1584 409 2034 409 
Q 2484 409 2743 651 
Q 3003 894 3003 1313 
Q 3003 1734 2745 1975 
Q 2488 2216 2034 2216 
z
M 1403 2484 
Q 997 2584 770 2862 
Q 544 3141 544 3541 
Q 544 4100 942 4425 
Q 1341 4750 2034 4750 
Q 2731 4750 3128 4425 
Q 3525 4100 3525 3541 
Q 3525 3141 3298 2862 
Q 3072 2584 2669 2484 
Q 3125 2378 3379 2068 
Q 3634 1759 3634 1313 
Q 3634 634 3220 271 
Q 2806 -91 2034 -91 
Q 1263 -91 848 271 
Q 434 634 434 1313 
Q 434 1759 690 2068 
Q 947 2378 1403 2484 
z
M 1172 3481 
Q 1172 3119 1398 2916 
Q 1625 2713 2034 2713 
Q 2441 2713 2670 2916 
Q 2900 3119 2900 3481 
Q 2900 3844 2670 4047 
Q 2441 4250 2034 4250 
Q 1625 4250 1398 4047 
Q 1172 3844 1172 3481 
z
" id="DejaVuSans-38" transform="scale(0.015625)"/>
      <path d="M 2597 2516 
Q 3050 2419 3304 2112 
Q 3559 1806 3559 1356 
Q 3559 666 3084 287 
Q 2609 -91 1734 -91 
Q 1441 -91 1130 -33 
Q 819 25 488 141 
L 488 750 
Q 750 597 1062 519 
Q 1375 441 1716 441 
Q 2309 441 2620 675 
Q 2931 909 2931 1356 
Q 2931 1769 2642 2001 
Q 2353 2234 1838 2234 
L 1294 2234 
L 1294 2753 
L 1863 2753 
Q 2328 2753 2575 2939 
Q 2822 3125 2822 3475 
Q 2822 3834 2567 4026 
Q 2313 4219 1838 4219 
Q 1578 4219 1281 4162 
Q 984 4106 628 3988 
L 628 4550 
Q 988 4650 1302 4700 
Q 1616 4750 1894 4750 
Q 2613 4750 3031 4423 
Q 3450 4097 3450 3541 
Q 3450 3153 3228 2886 
Q 3006 2619 2597 2516 
z
" id="DejaVuSans-33" transform="scale(0.015625)"/>
     </defs>
     <use xlink:href="#DejaVuSans-54"/>
     <use x="61.083984" xlink:href="#DejaVuSans-45"/>
     <use x="124.267578" xlink:href="#DejaVuSans-53"/>
     <use x="187.744141" xlink:href="#DejaVuSans-54"/>
     <use x="248.828125" xlink:href="#DejaVuSans-46"/>
     <use x="306.347656" xlink:href="#DejaVuSans-55"/>
     <use x="379.541016" xlink:href="#DejaVuSans-4e"/>
     <use x="454.345703" xlink:href="#DejaVuSans-44"/>
     <use x="531.347656" xlink:href="#DejaVuSans-53"/>
     <use x="594.824219" xlink:href="#DejaVuSans-30"/>
     <use x="658.447266" xlink:href="#DejaVuSans-38"/>
     <use x="722.070312" xlink:href="#DejaVuSans-33"/>
     <use x="785.693359" xlink:href="#DejaVuSans-30"/>
    </g>
    <!-- daily_report -->
    <g transform="translate(200.466563 35.472)scale(0.12 -0.12)">
     <defs>
      <path d="M 603 3500 
L 1178 3500 
L 1178 0 
L 603 0 
L 603 3500 
z
M 603 4863 
L 1178 4863 
L 1178 4134 
L 603 4134 
L 603 4863 
z
" id="DejaVuSans-69" transform="scale(0.015625)"/>
      <path d="M 603 4863 
L 1178 4863 
L 1178 0 
L 603 0 
L 603 4863 
z
" id="DejaVuSans-6c" transform="scale(0.015625)"/>
      <path d="M 2059 -325 
Q 1816 -950 1584 -1140 
Q 1353 -1331 966 -1331 
L 506 -1331 
L 506 -850 
L 844 -850 
Q 1081 -850 1212 -737 
Q 1344 -625 1503 -206 
L 1606 56 
L 191 3500 
L 800 3500 
L 1894 763 
L 2988 3500 
L 3597 3500 
L 2059 -325 
z
" id="DejaVuSans-79" transform="scale(0.015625)"/>
      <path d="M 3263 -1063 
L 3263 -1509 
L -63 -1509 
L -63 -1063 
L 3263 -1063 
z
" id="DejaVuSans-5f" transform="scale(0.015625)"/>
      <path d="M 2631 2963 
Q 2534 3019 2420 3045 
Q 2306 3072 2169 3072 
Q 1681 3072 1420 2755 
Q 1159 2438 1159 1844 
L 1159 0 
L 581 0 
L 581 3500 
L 1159 3500 
L 1159 2956 
Q 1341 3275 1631 3429 
Q 1922 3584 2338 3584 
Q 2397 3584 2469 3576 
Q 2541 3569 2628 3553 
L 2631 2963 
z
" id="DejaVuSans-72" transform="scale(0.015625)"/>
      <path d="M 1159 525 
L 1159 -1331 
L 581 -1331 
L 581 3500 
L 1159 3500 
L 1159 2969 
Q 1341 3281 1617 3432 
Q 1894 3584 2278 3584 
Q 2916 3584 3314 3078 
Q 3713 2572 3713 1747 
Q 3713 922 3314 415 
Q 2916 -91 2278 -91 
Q 1894 -91 1617 61 
Q 1341 213 1159 525 
z
M 3116 1747 
Q 3116 2381 2855 2742 
Q 2594 3103 2138 3103 
Q 1681 3103 1420 2742 
Q 1159 2381 1159 1747 
Q 1159 1113 1420 752 
Q 1681 391 2138 391 
Q 2594 391 2855 752 
Q 3116 1113 3116 1747 
z
" id="DejaVuSans-70" transform="scale(0.015625)"/>
      <path d="M 1959 3097 
Q 1497 3097 1228 2736 
Q 959 2375 959 1747 
Q 959 1119 1226 758 
Q 1494 397 1959 397 
Q 2419 397 2687 759 
Q 2956 1122 2956 1747 
Q 2956 2369 2687 2733 
Q 2419 3097 1959 3097 
z
M 1959 3584 
Q 2709 3584 3137 3096 
Q 3566 2609 3566 1747 
Q 3566 888 3137 398 
Q 2709 -91 1959 -91 
Q 1206 -91 779 398 
Q 353 888 353 1747 
Q 353 2609 779 3096 
Q 1206 3584 1959 3584 
z
" id="DejaVuSans-6f" transform="scale(0.015625)"/>
     </defs>
     <use xlink:href="#DejaVuSans-64"/>
     <use x="63.476562" xlink:href="#DejaVuSans-61"/>
     <use x="124.755859" xlink:href="#DejaVuSans-69"/>
     <use x="152.539062" xlink:href="#DejaVuSans-6c"/>
     <use x="180.322266" xlink:href="#DejaVuSans-79"/>
     <use x="239.501953" xlink:href="#DejaVuSans-5f"/>
     <use x="289.501953" xlink:href="#DejaVuSans-72"/>
     <use x="328.365234" xlink:href="#DejaVuSans-65"/>
     <use x="389.888672" xlink:href="#DejaVuSans-70"/>
     <use x="453.365234" xlink:href="#DejaVuSans-6f"/>
     <use x="514.546875" xlink:href="#DejaVuSans-72"/>
     <use x="555.660156" xlink:href="#DejaVuSans-74"/>
    </g>
   </g>
   <g id="legend_1">
    <g id="patch_7">
     <path d="M 64.6 122.862625 
L 155.792188 122.862625 
Q 157.792188 122.862625 157.792188 120.862625 
L 157.792188 48.472 
Q 157.792188 46.472 155.792188 46.472 
L 64.6 46.472 
Q 62.6 46.472 62.6 48.472 
L 62.6 120.862625 
Q 62.6 122.862625 64.6 122.862625 
z
" style="fill:#ffffff;opacity:0.8;stroke:#cccccc;stroke-linejoin:miter;"/>
    </g>
    <g id="line2d_16">
     <path d="M 66.6 54.570437 
L 86.6 54.570437 
" style="fill:none;stroke:#0000ff;stroke-linecap:square;stroke-opacity:0.9;stroke-width:2;"/>
    </g>
    <g id="line2d_17"/>
    <g id="text_13">
     <!-- alpaca -->
     <g transform="translate(94.6 58.070437)scale(0.1 -0.1)">
      <defs>
       <path d="M 3122 3366 
L 3122 2828 
Q 2878 2963 2633 3030 
Q 2388 3097 2138 3097 
Q 1578 3097 1268 2742 
Q 959 2388 959 1747 
Q 959 1106 1268 751 
Q 1578 397 2138 397 
Q 2388 397 2633 464 
Q 2878 531 3122 666 
L 3122 134 
Q 2881 22 2623 -34 
Q 2366 -91 2075 -91 
Q 1284 -91 818 406 
Q 353 903 353 1747 
Q 353 2603 823 3093 
Q 1294 3584 2113 3584 
Q 2378 3584 2631 3529 
Q 2884 3475 3122 3366 
z
" id="DejaVuSans-63" transform="scale(0.015625)"/>
      </defs>
      <use xlink:href="#DejaVuSans-61"/>
      <use x="61.279297" xlink:href="#DejaVuSans-6c"/>
      <use x="89.0625" xlink:href="#DejaVuSans-70"/>
      <use x="152.539062" xlink:href="#DejaVuSans-61"/>
      <use x="213.818359" xlink:href="#DejaVuSans-63"/>
      <use x="268.798828" xlink:href="#DejaVuSans-61"/>
     </g>
    </g>
    <g id="line2d_18">
     <path d="M 66.6 69.248562 
L 86.6 69.248562 
" style="fill:none;stroke:#ff0000;stroke-linecap:square;stroke-opacity:0.9;stroke-width:2;"/>
    </g>
    <g id="line2d_19"/>
    <g id="text_14">
     <!-- mattress -->
     <g transform="translate(94.6 72.748562)scale(0.1 -0.1)">
      <defs>
       <path d="M 3328 2828 
Q 3544 3216 3844 3400 
Q 4144 3584 4550 3584 
Q 5097 3584 5394 3201 
Q 5691 2819 5691 2113 
L 5691 0 
L 5113 0 
L 5113 2094 
Q 5113 2597 4934 2840 
Q 4756 3084 4391 3084 
Q 3944 3084 3684 2787 
Q 3425 2491 3425 1978 
L 3425 0 
L 2847 0 
L 2847 2094 
Q 2847 2600 2669 2842 
Q 2491 3084 2119 3084 
Q 1678 3084 1418 2786 
Q 1159 2488 1159 1978 
L 1159 0 
L 581 0 
L 581 3500 
L 1159 3500 
L 1159 2956 
Q 1356 3278 1631 3431 
Q 1906 3584 2284 3584 
Q 2666 3584 2933 3390 
Q 3200 3197 3328 2828 
z
" id="DejaVuSans-6d" transform="scale(0.015625)"/>
       <path d="M 2834 3397 
L 2834 2853 
Q 2591 2978 2328 3040 
Q 2066 3103 1784 3103 
Q 1356 3103 1142 2972 
Q 928 2841 928 2578 
Q 928 2378 1081 2264 
Q 1234 2150 1697 2047 
L 1894 2003 
Q 2506 1872 2764 1633 
Q 3022 1394 3022 966 
Q 3022 478 2636 193 
Q 2250 -91 1575 -91 
Q 1294 -91 989 -36 
Q 684 19 347 128 
L 347 722 
Q 666 556 975 473 
Q 1284 391 1588 391 
Q 1994 391 2212 530 
Q 2431 669 2431 922 
Q 2431 1156 2273 1281 
Q 2116 1406 1581 1522 
L 1381 1569 
Q 847 1681 609 1914 
Q 372 2147 372 2553 
Q 372 3047 722 3315 
Q 1072 3584 1716 3584 
Q 2034 3584 2315 3537 
Q 2597 3491 2834 3397 
z
" id="DejaVuSans-73" transform="scale(0.015625)"/>
      </defs>
      <use xlink:href="#DejaVuSans-6d"/>
      <use x="97.412109" xlink:href="#DejaVuSans-61"/>
      <use x="158.691406" xlink:href="#DejaVuSans-74"/>
      <use x="197.900391" xlink:href="#DejaVuSans-74"/>
      <use x="237.109375" xlink:href="#DejaVuSans-72"/>
      <use x="275.972656" xlink:href="#DejaVuSans-65"/>
      <use x="337.496094" xlink:href="#DejaVuSans-73"/>
      <use x="389.595703" xlink:href="#DejaVuSans-73"/>
     </g>
    </g>
    <g id="line2d_20">
     <path d="M 66.6 83.926687 
L 86.6 83.926687 
" style="fill:none;stroke:#ff8040;stroke-linecap:square;stroke-opacity:0.9;stroke-width:2;"/>
    </g>
    <g id="line2d_21"/>
    <g id="text_15">
     <!-- trader-0850 -->
     <g transform="translate(94.6 87.426687)scale(0.1 -0.1)">
      <use xlink:href="#DejaVuSans-74"/>
      <use x="39.208984" xlink:href="#DejaVuSans-72"/>
      <use x="80.322266" xlink:href="#DejaVuSans-61"/>
      <use x="141.601562" xlink:href="#DejaVuSans-64"/>
      <use x="205.078125" xlink:href="#DejaVuSans-65"/>
      <use x="266.601562" xlink:href="#DejaVuSans-72"/>
      <use x="301.339844" xlink:href="#DejaVuSans-2d"/>
      <use x="337.423828" xlink:href="#DejaVuSans-30"/>
      <use x="401.046875" xlink:href="#DejaVuSans-38"/>
      <use x="464.669922" xlink:href="#DejaVuSans-35"/>
      <use x="528.292969" xlink:href="#DejaVuSans-30"/>
     </g>
    </g>
    <g id="line2d_22">
     <path d="M 66.6 98.604812 
L 86.6 98.604812 
" style="fill:none;stroke:#0d0d0d;stroke-linecap:square;stroke-opacity:0.25;stroke-width:2;"/>
    </g>
    <g id="line2d_23"/>
    <g id="text_16">
     <!-- rando-min -->
     <g transform="translate(94.6 102.104812)scale(0.1 -0.1)">
      <defs>
       <path d="M 3513 2113 
L 3513 0 
L 2938 0 
L 2938 2094 
Q 2938 2591 2744 2837 
Q 2550 3084 2163 3084 
Q 1697 3084 1428 2787 
Q 1159 2491 1159 1978 
L 1159 0 
L 581 0 
L 581 3500 
L 1159 3500 
L 1159 2956 
Q 1366 3272 1645 3428 
Q 1925 3584 2291 3584 
Q 2894 3584 3203 3211 
Q 3513 2838 3513 2113 
z
" id="DejaVuSans-6e" transform="scale(0.015625)"/>
      </defs>
      <use xlink:href="#DejaVuSans-72"/>
      <use x="41.113281" xlink:href="#DejaVuSans-61"/>
      <use x="102.392578" xlink:href="#DejaVuSans-6e"/>
      <use x="165.771484" xlink:href="#DejaVuSans-64"/>
      <use x="229.248047" xlink:href="#DejaVuSans-6f"/>
      <use x="292.304688" xlink:href="#DejaVuSans-2d"/>
      <use x="328.388672" xlink:href="#DejaVuSans-6d"/>
      <use x="425.800781" xlink:href="#DejaVuSans-69"/>
      <use x="453.583984" xlink:href="#DejaVuSans-6e"/>
     </g>
    </g>
    <g id="line2d_24">
     <path d="M 66.6 113.282937 
L 86.6 113.282937 
" style="fill:none;stroke:#0d0d0d;stroke-linecap:square;stroke-opacity:0.25;stroke-width:2;"/>
    </g>
    <g id="line2d_25"/>
    <g id="text_17">
     <!-- rando-max -->
     <g transform="translate(94.6 116.782937)scale(0.1 -0.1)">
      <defs>
       <path d="M 3513 3500 
L 2247 1797 
L 3578 0 
L 2900 0 
L 1881 1375 
L 863 0 
L 184 0 
L 1544 1831 
L 300 3500 
L 978 3500 
L 1906 2253 
L 2834 3500 
L 3513 3500 
z
" id="DejaVuSans-78" transform="scale(0.015625)"/>
      </defs>
      <use xlink:href="#DejaVuSans-72"/>
      <use x="41.113281" xlink:href="#DejaVuSans-61"/>
      <use x="102.392578" xlink:href="#DejaVuSans-6e"/>
      <use x="165.771484" xlink:href="#DejaVuSans-64"/>
      <use x="229.248047" xlink:href="#DejaVuSans-6f"/>
      <use x="292.304688" xlink:href="#DejaVuSans-2d"/>
      <use x="328.388672" xlink:href="#DejaVuSans-6d"/>
      <use x="425.800781" xlink:href="#DejaVuSans-61"/>
      <use x="487.080078" xlink:href="#DejaVuSans-78"/>
     </g>
    </g>
   </g>
  </g>
 </g>
 <defs>
  <clipPath id="p81ef33c858">
   <rect height="235.008" width="357.12" x="57.6" y="41.472"/>
  </clipPath>
 </defs>
</svg>
