<?xml version="1.0" encoding="utf-8" standalone="no"?>
<!DOCTYPE svg PUBLIC "-//W3C//DTD SVG 1.1//EN"
  "http://www.w3.org/Graphics/SVG/1.1/DTD/svg11.dtd">
<svg height="345.6pt" version="1.1" viewBox="0 0 460.8 345.6" width="460.8pt" xmlns="http://www.w3.org/2000/svg" xmlns:xlink="http://www.w3.org/1999/xlink">
 <metadata>
  <rdf:RDF xmlns:cc="http://creativecommons.org/ns#" xmlns:dc="http://purl.org/dc/elements/1.1/" xmlns:rdf="http://www.w3.org/1999/02/22-rdf-syntax-ns#">
   <cc:Work>
    <dc:type rdf:resource="http://purl.org/dc/dcmitype/StillImage"/>
    <dc:date>2022-04-19T01:01:45.494416</dc:date>
    <dc:format>image/svg+xml</dc:format>
    <dc:creator>
     <cc:Agent>
      <dc:title>Matplotlib v3.4.3, https://matplotlib.org/</dc:title>
     </cc:Agent>
    </dc:creator>
   </cc:Work>
  </rdf:RDF>
 </metadata>
 <defs>
  <style type="text/css">*{stroke-linecap:butt;stroke-linejoin:round;}</style>
 </defs>
 <g id="figure_1">
  <g id="patch_1">
   <path d="M 0 345.6 
L 460.8 345.6 
L 460.8 0 
L 0 0 
z
" style="fill:#ffffff;"/>
  </g>
  <g id="axes_1">
   <g id="patch_2">
    <path d="M 57.6 276.48 
L 414.72 276.48 
L 414.72 41.472 
L 57.6 41.472 
z
" style="fill:#ffffff;"/>
   </g>
   <g id="matplotlib.axis_1">
    <g id="xtick_1">
     <g id="line2d_1">
      <defs>
       <path d="M 0 0 
L 0 3.5 
" id="m321f764d39" style="stroke:#000000;stroke-width:0.8;"/>
      </defs>
      <g>
       <use style="stroke:#000000;stroke-width:0.8;" x="86.10958" xlink:href="#m321f764d39" y="276.48"/>
      </g>
     </g>
     <g id="text_1">
      <!-- 2021-09 -->
      <g transform="translate(48.884759 310.951846)rotate(-30)scale(0.1 -0.1)">
       <defs>
        <path d="M 1228 531 
L 3431 531 
L 3431 0 
L 469 0 
L 469 531 
Q 828 903 1448 1529 
Q 2069 2156 2228 2338 
Q 2531 2678 2651 2914 
Q 2772 3150 2772 3378 
Q 2772 3750 2511 3984 
Q 2250 4219 1831 4219 
Q 1534 4219 1204 4116 
Q 875 4013 500 3803 
L 500 4441 
Q 881 4594 1212 4672 
Q 1544 4750 1819 4750 
Q 2544 4750 2975 4387 
Q 3406 4025 3406 3419 
Q 3406 3131 3298 2873 
Q 3191 2616 2906 2266 
Q 2828 2175 2409 1742 
Q 1991 1309 1228 531 
z
" id="DejaVuSans-32" transform="scale(0.015625)"/>
        <path d="M 2034 4250 
Q 1547 4250 1301 3770 
Q 1056 3291 1056 2328 
Q 1056 1369 1301 889 
Q 1547 409 2034 409 
Q 2525 409 2770 889 
Q 3016 1369 3016 2328 
Q 3016 3291 2770 3770 
Q 2525 4250 2034 4250 
z
M 2034 4750 
Q 2819 4750 3233 4129 
Q 3647 3509 3647 2328 
Q 3647 1150 3233 529 
Q 2819 -91 2034 -91 
Q 1250 -91 836 529 
Q 422 1150 422 2328 
Q 422 3509 836 4129 
Q 1250 4750 2034 4750 
z
" id="DejaVuSans-30" transform="scale(0.015625)"/>
        <path d="M 794 531 
L 1825 531 
L 1825 4091 
L 703 3866 
L 703 4441 
L 1819 4666 
L 2450 4666 
L 2450 531 
L 3481 531 
L 3481 0 
L 794 0 
L 794 531 
z
" id="DejaVuSans-31" transform="scale(0.015625)"/>
        <path d="M 313 2009 
L 1997 2009 
L 1997 1497 
L 313 1497 
L 313 2009 
z
" id="DejaVuSans-2d" transform="scale(0.015625)"/>
        <path d="M 703 97 
L 703 672 
Q 941 559 1184 500 
Q 1428 441 1663 441 
Q 2288 441 2617 861 
Q 2947 1281 2994 2138 
Q 2813 1869 2534 1725 
Q 2256 1581 1919 1581 
Q 1219 1581 811 2004 
Q 403 2428 403 3163 
Q 403 3881 828 4315 
Q 1253 4750 1959 4750 
Q 2769 4750 3195 4129 
Q 3622 3509 3622 2328 
Q 3622 1225 3098 567 
Q 2575 -91 1691 -91 
Q 1453 -91 1209 -44 
Q 966 3 703 97 
z
M 1959 2075 
Q 2384 2075 2632 2365 
Q 2881 2656 2881 3163 
Q 2881 3666 2632 3958 
Q 2384 4250 1959 4250 
Q 1534 4250 1286 3958 
Q 1038 3666 1038 3163 
Q 1038 2656 1286 2365 
Q 1534 2075 1959 2075 
z
" id="DejaVuSans-39" transform="scale(0.015625)"/>
       </defs>
       <use xlink:href="#DejaVuSans-32"/>
       <use x="63.623047" xlink:href="#DejaVuSans-30"/>
       <use x="127.246094" xlink:href="#DejaVuSans-32"/>
       <use x="190.869141" xlink:href="#DejaVuSans-31"/>
       <use x="254.492188" xlink:href="#DejaVuSans-2d"/>
       <use x="290.576172" xlink:href="#DejaVuSans-30"/>
       <use x="354.199219" xlink:href="#DejaVuSans-39"/>
      </g>
     </g>
    </g>
    <g id="xtick_2">
     <g id="line2d_2">
      <g>
       <use style="stroke:#000000;stroke-width:0.8;" x="127.032422" xlink:href="#m321f764d39" y="276.48"/>
      </g>
     </g>
     <g id="text_2">
      <!-- 2021-10 -->
      <g transform="translate(89.807601 310.951846)rotate(-30)scale(0.1 -0.1)">
       <use xlink:href="#DejaVuSans-32"/>
       <use x="63.623047" xlink:href="#DejaVuSans-30"/>
       <use x="127.246094" xlink:href="#DejaVuSans-32"/>
       <use x="190.869141" xlink:href="#DejaVuSans-31"/>
       <use x="254.492188" xlink:href="#DejaVuSans-2d"/>
       <use x="290.576172" xlink:href="#DejaVuSans-31"/>
       <use x="354.199219" xlink:href="#DejaVuSans-30"/>
      </g>
     </g>
    </g>
    <g id="xtick_3">
     <g id="line2d_3">
      <g>
       <use style="stroke:#000000;stroke-width:0.8;" x="169.319358" xlink:href="#m321f764d39" y="276.48"/>
      </g>
     </g>
     <g id="text_3">
      <!-- 2021-11 -->
      <g transform="translate(132.094537 310.951846)rotate(-30)scale(0.1 -0.1)">
       <use xlink:href="#DejaVuSans-32"/>
       <use x="63.623047" xlink:href="#DejaVuSans-30"/>
       <use x="127.246094" xlink:href="#DejaVuSans-32"/>
       <use x="190.869141" xlink:href="#DejaVuSans-31"/>
       <use x="254.492188" xlink:href="#DejaVuSans-2d"/>
       <use x="290.576172" xlink:href="#DejaVuSans-31"/>
       <use x="354.199219" xlink:href="#DejaVuSans-31"/>
      </g>
     </g>
    </g>
    <g id="xtick_4">
     <g id="line2d_4">
      <g>
       <use style="stroke:#000000;stroke-width:0.8;" x="210.2422" xlink:href="#m321f764d39" y="276.48"/>
      </g>
     </g>
     <g id="text_4">
      <!-- 2021-12 -->
      <g transform="translate(173.017379 310.951846)rotate(-30)scale(0.1 -0.1)">
       <use xlink:href="#DejaVuSans-32"/>
       <use x="63.623047" xlink:href="#DejaVuSans-30"/>
       <use x="127.246094" xlink:href="#DejaVuSans-32"/>
       <use x="190.869141" xlink:href="#DejaVuSans-31"/>
       <use x="254.492188" xlink:href="#DejaVuSans-2d"/>
       <use x="290.576172" xlink:href="#DejaVuSans-31"/>
       <use x="354.199219" xlink:href="#DejaVuSans-32"/>
      </g>
     </g>
    </g>
    <g id="xtick_5">
     <g id="line2d_5">
      <g>
       <use style="stroke:#000000;stroke-width:0.8;" x="252.529137" xlink:href="#m321f764d39" y="276.48"/>
      </g>
     </g>
     <g id="text_5">
      <!-- 2022-01 -->
      <g transform="translate(215.304316 310.951846)rotate(-30)scale(0.1 -0.1)">
       <use xlink:href="#DejaVuSans-32"/>
       <use x="63.623047" xlink:href="#DejaVuSans-30"/>
       <use x="127.246094" xlink:href="#DejaVuSans-32"/>
       <use x="190.869141" xlink:href="#DejaVuSans-32"/>
       <use x="254.492188" xlink:href="#DejaVuSans-2d"/>
       <use x="290.576172" xlink:href="#DejaVuSans-30"/>
       <use x="354.199219" xlink:href="#DejaVuSans-31"/>
      </g>
     </g>
    </g>
    <g id="xtick_6">
     <g id="line2d_6">
      <g>
       <use style="stroke:#000000;stroke-width:0.8;" x="294.816073" xlink:href="#m321f764d39" y="276.48"/>
      </g>
     </g>
     <g id="text_6">
      <!-- 2022-02 -->
      <g transform="translate(257.591253 310.951846)rotate(-30)scale(0.1 -0.1)">
       <use xlink:href="#DejaVuSans-32"/>
       <use x="63.623047" xlink:href="#DejaVuSans-30"/>
       <use x="127.246094" xlink:href="#DejaVuSans-32"/>
       <use x="190.869141" xlink:href="#DejaVuSans-32"/>
       <use x="254.492188" xlink:href="#DejaVuSans-2d"/>
       <use x="290.576172" xlink:href="#DejaVuSans-30"/>
       <use x="354.199219" xlink:href="#DejaVuSans-32"/>
      </g>
     </g>
    </g>
    <g id="xtick_7">
     <g id="line2d_7">
      <g>
       <use style="stroke:#000000;stroke-width:0.8;" x="333.010726" xlink:href="#m321f764d39" y="276.48"/>
      </g>
     </g>
     <g id="text_7">
      <!-- 2022-03 -->
      <g transform="translate(295.785905 310.951846)rotate(-30)scale(0.1 -0.1)">
       <defs>
        <path d="M 2597 2516 
Q 3050 2419 3304 2112 
Q 3559 1806 3559 1356 
Q 3559 666 3084 287 
Q 2609 -91 1734 -91 
Q 1441 -91 1130 -33 
Q 819 25 488 141 
L 488 750 
Q 750 597 1062 519 
Q 1375 441 1716 441 
Q 2309 441 2620 675 
Q 2931 909 2931 1356 
Q 2931 1769 2642 2001 
Q 2353 2234 1838 2234 
L 1294 2234 
L 1294 2753 
L 1863 2753 
Q 2328 2753 2575 2939 
Q 2822 3125 2822 3475 
Q 2822 3834 2567 4026 
Q 2313 4219 1838 4219 
Q 1578 4219 1281 4162 
Q 984 4106 628 3988 
L 628 4550 
Q 988 4650 1302 4700 
Q 1616 4750 1894 4750 
Q 2613 4750 3031 4423 
Q 3450 4097 3450 3541 
Q 3450 3153 3228 2886 
Q 3006 2619 2597 2516 
z
" id="DejaVuSans-33" transform="scale(0.015625)"/>
       </defs>
       <use xlink:href="#DejaVuSans-32"/>
       <use x="63.623047" xlink:href="#DejaVuSans-30"/>
       <use x="127.246094" xlink:href="#DejaVuSans-32"/>
       <use x="190.869141" xlink:href="#DejaVuSans-32"/>
       <use x="254.492188" xlink:href="#DejaVuSans-2d"/>
       <use x="290.576172" xlink:href="#DejaVuSans-30"/>
       <use x="354.199219" xlink:href="#DejaVuSans-33"/>
      </g>
     </g>
    </g>
    <g id="xtick_8">
     <g id="line2d_8">
      <g>
       <use style="stroke:#000000;stroke-width:0.8;" x="375.297662" xlink:href="#m321f764d39" y="276.48"/>
      </g>
     </g>
     <g id="text_8">
      <!-- 2022-04 -->
      <g transform="translate(338.072842 310.951846)rotate(-30)scale(0.1 -0.1)">
       <defs>
        <path d="M 2419 4116 
L 825 1625 
L 2419 1625 
L 2419 4116 
z
M 2253 4666 
L 3047 4666 
L 3047 1625 
L 3713 1625 
L 3713 1100 
L 3047 1100 
L 3047 0 
L 2419 0 
L 2419 1100 
L 313 1100 
L 313 1709 
L 2253 4666 
z
" id="DejaVuSans-34" transform="scale(0.015625)"/>
       </defs>
       <use xlink:href="#DejaVuSans-32"/>
       <use x="63.623047" xlink:href="#DejaVuSans-30"/>
       <use x="127.246094" xlink:href="#DejaVuSans-32"/>
       <use x="190.869141" xlink:href="#DejaVuSans-32"/>
       <use x="254.492188" xlink:href="#DejaVuSans-2d"/>
       <use x="290.576172" xlink:href="#DejaVuSans-30"/>
       <use x="354.199219" xlink:href="#DejaVuSans-34"/>
      </g>
     </g>
    </g>
    <g id="text_9">
     <!-- date -->
     <g transform="translate(224.885 324.351346)scale(0.1 -0.1)">
      <defs>
       <path d="M 2906 2969 
L 2906 4863 
L 3481 4863 
L 3481 0 
L 2906 0 
L 2906 525 
Q 2725 213 2448 61 
Q 2172 -91 1784 -91 
Q 1150 -91 751 415 
Q 353 922 353 1747 
Q 353 2572 751 3078 
Q 1150 3584 1784 3584 
Q 2172 3584 2448 3432 
Q 2725 3281 2906 2969 
z
M 947 1747 
Q 947 1113 1208 752 
Q 1469 391 1925 391 
Q 2381 391 2643 752 
Q 2906 1113 2906 1747 
Q 2906 2381 2643 2742 
Q 2381 3103 1925 3103 
Q 1469 3103 1208 2742 
Q 947 2381 947 1747 
z
" id="DejaVuSans-64" transform="scale(0.015625)"/>
       <path d="M 2194 1759 
Q 1497 1759 1228 1600 
Q 959 1441 959 1056 
Q 959 750 1161 570 
Q 1363 391 1709 391 
Q 2188 391 2477 730 
Q 2766 1069 2766 1631 
L 2766 1759 
L 2194 1759 
z
M 3341 1997 
L 3341 0 
L 2766 0 
L 2766 531 
Q 2569 213 2275 61 
Q 1981 -91 1556 -91 
Q 1019 -91 701 211 
Q 384 513 384 1019 
Q 384 1609 779 1909 
Q 1175 2209 1959 2209 
L 2766 2209 
L 2766 2266 
Q 2766 2663 2505 2880 
Q 2244 3097 1772 3097 
Q 1472 3097 1187 3025 
Q 903 2953 641 2809 
L 641 3341 
Q 956 3463 1253 3523 
Q 1550 3584 1831 3584 
Q 2591 3584 2966 3190 
Q 3341 2797 3341 1997 
z
" id="DejaVuSans-61" transform="scale(0.015625)"/>
       <path d="M 1172 4494 
L 1172 3500 
L 2356 3500 
L 2356 3053 
L 1172 3053 
L 1172 1153 
Q 1172 725 1289 603 
Q 1406 481 1766 481 
L 2356 481 
L 2356 0 
L 1766 0 
Q 1100 0 847 248 
Q 594 497 594 1153 
L 594 3053 
L 172 3053 
L 172 3500 
L 594 3500 
L 594 4494 
L 1172 4494 
z
" id="DejaVuSans-74" transform="scale(0.015625)"/>
       <path d="M 3597 1894 
L 3597 1613 
L 953 1613 
Q 991 1019 1311 708 
Q 1631 397 2203 397 
Q 2534 397 2845 478 
Q 3156 559 3463 722 
L 3463 178 
Q 3153 47 2828 -22 
Q 2503 -91 2169 -91 
Q 1331 -91 842 396 
Q 353 884 353 1716 
Q 353 2575 817 3079 
Q 1281 3584 2069 3584 
Q 2775 3584 3186 3129 
Q 3597 2675 3597 1894 
z
M 3022 2063 
Q 3016 2534 2758 2815 
Q 2500 3097 2075 3097 
Q 1594 3097 1305 2825 
Q 1016 2553 972 2059 
L 3022 2063 
z
" id="DejaVuSans-65" transform="scale(0.015625)"/>
      </defs>
      <use xlink:href="#DejaVuSans-64"/>
      <use x="63.476562" xlink:href="#DejaVuSans-61"/>
      <use x="124.755859" xlink:href="#DejaVuSans-74"/>
      <use x="163.964844" xlink:href="#DejaVuSans-65"/>
     </g>
    </g>
   </g>
   <g id="matplotlib.axis_2">
    <g id="ytick_1">
     <g id="line2d_9">
      <defs>
       <path d="M 0 0 
L -3.5 0 
" id="m9834988620" style="stroke:#000000;stroke-width:0.8;"/>
      </defs>
      <g>
       <use style="stroke:#000000;stroke-width:0.8;" x="57.6" xlink:href="#m9834988620" y="263.051417"/>
      </g>
     </g>
     <g id="text_10">
      <!-- 80000 -->
      <g transform="translate(18.7875 266.850635)scale(0.1 -0.1)">
       <defs>
        <path d="M 2034 2216 
Q 1584 2216 1326 1975 
Q 1069 1734 1069 1313 
Q 1069 891 1326 650 
Q 1584 409 2034 409 
Q 2484 409 2743 651 
Q 3003 894 3003 1313 
Q 3003 1734 2745 1975 
Q 2488 2216 2034 2216 
z
M 1403 2484 
Q 997 2584 770 2862 
Q 544 3141 544 3541 
Q 544 4100 942 4425 
Q 1341 4750 2034 4750 
Q 2731 4750 3128 4425 
Q 3525 4100 3525 3541 
Q 3525 3141 3298 2862 
Q 3072 2584 2669 2484 
Q 3125 2378 3379 2068 
Q 3634 1759 3634 1313 
Q 3634 634 3220 271 
Q 2806 -91 2034 -91 
Q 1263 -91 848 271 
Q 434 634 434 1313 
Q 434 1759 690 2068 
Q 947 2378 1403 2484 
z
M 1172 3481 
Q 1172 3119 1398 2916 
Q 1625 2713 2034 2713 
Q 2441 2713 2670 2916 
Q 2900 3119 2900 3481 
Q 2900 3844 2670 4047 
Q 2441 4250 2034 4250 
Q 1625 4250 1398 4047 
Q 1172 3844 1172 3481 
z
" id="DejaVuSans-38" transform="scale(0.015625)"/>
       </defs>
       <use xlink:href="#DejaVuSans-38"/>
       <use x="63.623047" xlink:href="#DejaVuSans-30"/>
       <use x="127.246094" xlink:href="#DejaVuSans-30"/>
       <use x="190.869141" xlink:href="#DejaVuSans-30"/>
       <use x="254.492188" xlink:href="#DejaVuSans-30"/>
      </g>
     </g>
    </g>
    <g id="ytick_2">
     <g id="line2d_10">
      <g>
       <use style="stroke:#000000;stroke-width:0.8;" x="57.6" xlink:href="#m9834988620" y="234.77539"/>
      </g>
     </g>
     <g id="text_11">
      <!-- 85000 -->
      <g transform="translate(18.7875 238.574609)scale(0.1 -0.1)">
       <defs>
        <path d="M 691 4666 
L 3169 4666 
L 3169 4134 
L 1269 4134 
L 1269 2991 
Q 1406 3038 1543 3061 
Q 1681 3084 1819 3084 
Q 2600 3084 3056 2656 
Q 3513 2228 3513 1497 
Q 3513 744 3044 326 
Q 2575 -91 1722 -91 
Q 1428 -91 1123 -41 
Q 819 9 494 109 
L 494 744 
Q 775 591 1075 516 
Q 1375 441 1709 441 
Q 2250 441 2565 725 
Q 2881 1009 2881 1497 
Q 2881 1984 2565 2268 
Q 2250 2553 1709 2553 
Q 1456 2553 1204 2497 
Q 953 2441 691 2322 
L 691 4666 
z
" id="DejaVuSans-35" transform="scale(0.015625)"/>
       </defs>
       <use xlink:href="#DejaVuSans-38"/>
       <use x="63.623047" xlink:href="#DejaVuSans-35"/>
       <use x="127.246094" xlink:href="#DejaVuSans-30"/>
       <use x="190.869141" xlink:href="#DejaVuSans-30"/>
       <use x="254.492188" xlink:href="#DejaVuSans-30"/>
      </g>
     </g>
    </g>
    <g id="ytick_3">
     <g id="line2d_11">
      <g>
       <use style="stroke:#000000;stroke-width:0.8;" x="57.6" xlink:href="#m9834988620" y="206.499363"/>
      </g>
     </g>
     <g id="text_12">
      <!-- 90000 -->
      <g transform="translate(18.7875 210.298582)scale(0.1 -0.1)">
       <use xlink:href="#DejaVuSans-39"/>
       <use x="63.623047" xlink:href="#DejaVuSans-30"/>
       <use x="127.246094" xlink:href="#DejaVuSans-30"/>
       <use x="190.869141" xlink:href="#DejaVuSans-30"/>
       <use x="254.492188" xlink:href="#DejaVuSans-30"/>
      </g>
     </g>
    </g>
    <g id="ytick_4">
     <g id="line2d_12">
      <g>
       <use style="stroke:#000000;stroke-width:0.8;" x="57.6" xlink:href="#m9834988620" y="178.223336"/>
      </g>
     </g>
     <g id="text_13">
      <!-- 95000 -->
      <g transform="translate(18.7875 182.022555)scale(0.1 -0.1)">
       <use xlink:href="#DejaVuSans-39"/>
       <use x="63.623047" xlink:href="#DejaVuSans-35"/>
       <use x="127.246094" xlink:href="#DejaVuSans-30"/>
       <use x="190.869141" xlink:href="#DejaVuSans-30"/>
       <use x="254.492188" xlink:href="#DejaVuSans-30"/>
      </g>
     </g>
    </g>
    <g id="ytick_5">
     <g id="line2d_13">
      <g>
       <use style="stroke:#000000;stroke-width:0.8;" x="57.6" xlink:href="#m9834988620" y="149.94731"/>
      </g>
     </g>
     <g id="text_14">
      <!-- 100000 -->
      <g transform="translate(12.425 153.746528)scale(0.1 -0.1)">
       <use xlink:href="#DejaVuSans-31"/>
       <use x="63.623047" xlink:href="#DejaVuSans-30"/>
       <use x="127.246094" xlink:href="#DejaVuSans-30"/>
       <use x="190.869141" xlink:href="#DejaVuSans-30"/>
       <use x="254.492188" xlink:href="#DejaVuSans-30"/>
       <use x="318.115234" xlink:href="#DejaVuSans-30"/>
      </g>
     </g>
    </g>
    <g id="ytick_6">
     <g id="line2d_14">
      <g>
       <use style="stroke:#000000;stroke-width:0.8;" x="57.6" xlink:href="#m9834988620" y="121.671283"/>
      </g>
     </g>
     <g id="text_15">
      <!-- 105000 -->
      <g transform="translate(12.425 125.470502)scale(0.1 -0.1)">
       <use xlink:href="#DejaVuSans-31"/>
       <use x="63.623047" xlink:href="#DejaVuSans-30"/>
       <use x="127.246094" xlink:href="#DejaVuSans-35"/>
       <use x="190.869141" xlink:href="#DejaVuSans-30"/>
       <use x="254.492188" xlink:href="#DejaVuSans-30"/>
       <use x="318.115234" xlink:href="#DejaVuSans-30"/>
      </g>
     </g>
    </g>
    <g id="ytick_7">
     <g id="line2d_15">
      <g>
       <use style="stroke:#000000;stroke-width:0.8;" x="57.6" xlink:href="#m9834988620" y="93.395256"/>
      </g>
     </g>
     <g id="text_16">
      <!-- 110000 -->
      <g transform="translate(12.425 97.194475)scale(0.1 -0.1)">
       <use xlink:href="#DejaVuSans-31"/>
       <use x="63.623047" xlink:href="#DejaVuSans-31"/>
       <use x="127.246094" xlink:href="#DejaVuSans-30"/>
       <use x="190.869141" xlink:href="#DejaVuSans-30"/>
       <use x="254.492188" xlink:href="#DejaVuSans-30"/>
       <use x="318.115234" xlink:href="#DejaVuSans-30"/>
      </g>
     </g>
    </g>
    <g id="ytick_8">
     <g id="line2d_16">
      <g>
       <use style="stroke:#000000;stroke-width:0.8;" x="57.6" xlink:href="#m9834988620" y="65.119229"/>
      </g>
     </g>
     <g id="text_17">
      <!-- 115000 -->
      <g transform="translate(12.425 68.918448)scale(0.1 -0.1)">
       <use xlink:href="#DejaVuSans-31"/>
       <use x="63.623047" xlink:href="#DejaVuSans-31"/>
       <use x="127.246094" xlink:href="#DejaVuSans-35"/>
       <use x="190.869141" xlink:href="#DejaVuSans-30"/>
       <use x="254.492188" xlink:href="#DejaVuSans-30"/>
       <use x="318.115234" xlink:href="#DejaVuSans-30"/>
      </g>
     </g>
    </g>
   </g>
   <g id="line2d_17">
    <path clip-path="url(#p06059d029c)" d="M 73.832727 149.94731 
L 75.196822 150.631637 
L 76.560917 148.362543 
L 77.925011 151.578429 
L 79.289106 146.163875 
L 84.745485 141.222631 
L 86.10958 142.859863 
L 87.473675 142.436515 
L 88.837769 142.266813 
L 94.294148 142.438025 
L 95.658243 144.661822 
L 97.022338 146.632104 
L 98.386432 151.325336 
L 102.478717 146.915061 
L 103.842811 154.885685 
L 105.206906 151.083751 
L 106.571001 151.905109 
L 107.935095 157.433066 
L 112.02738 167.039984 
L 113.391474 168.407061 
L 114.755569 164.060797 
L 116.119664 155.533934 
L 117.483759 150.478325 
L 121.576043 146.12264 
L 122.940138 158.324936 
L 124.304232 156.680067 
L 125.668327 160.654793 
L 127.032422 152.478918 
L 131.124706 162.947621 
L 132.488801 154.168502 
L 133.852895 152.063093 
L 135.21699 152.09041 
L 136.581085 151.591504 
L 140.673369 150.869723 
L 142.037464 150.13527 
L 143.401558 157.313434 
L 144.765653 146.109069 
L 146.129748 145.398031 
L 150.222032 140.957723 
L 151.586127 135.259555 
L 152.950222 133.075399 
L 154.314316 142.869066 
L 155.678411 150.141618 
L 159.770695 149.347721 
L 161.13479 154.721054 
L 162.498885 155.97753 
L 163.862979 148.328473 
L 165.227074 155.845781 
L 169.319358 144.318136 
L 170.683453 144.77244 
L 172.047548 138.880199 
L 173.411642 145.8724 
L 174.775737 142.091608 
L 178.868021 141.160764 
L 180.232116 148.654852 
L 181.596211 148.246395 
L 182.960306 153.226911 
L 184.3244 148.77258 
L 188.416684 147.136693 
L 189.780779 146.809936 
L 191.144874 149.977288 
L 192.508969 151.330947 
L 193.873063 151.918555 
L 197.965348 148.297586 
L 199.329442 143.562446 
L 200.693537 143.790914 
L 203.421727 143.9314 
L 207.514011 148.887984 
L 208.878105 159.772634 
L 210.2422 167.492442 
L 211.606295 160.923526 
L 212.97039 164.093585 
L 217.062674 154.013214 
L 218.426769 144.029046 
L 219.790863 139.060428 
L 221.154958 139.282672 
L 222.519053 137.251845 
L 226.611337 142.924413 
L 227.975432 139.993701 
L 229.339526 136.653874 
L 230.703621 134.259194 
L 232.067716 140.971312 
L 236.16 148.446293 
L 237.524095 135.701145 
L 238.888189 132.482594 
L 240.252284 127.818415 
L 245.708663 120.240859 
L 247.072758 120.534237 
L 248.436853 120.277057 
L 249.800947 121.4632 
L 251.165042 123.885926 
L 255.257326 114.655105 
L 256.621421 107.661931 
L 257.985516 123.207687 
L 259.34961 118.514226 
L 260.713705 115.973687 
L 264.805989 116.232117 
L 266.170084 110.983305 
L 267.534179 109.893328 
L 268.898273 117.092834 
L 270.262368 115.442922 
L 277.082842 131.032477 
L 278.446937 137.68277 
L 279.811031 151.054662 
L 283.903316 149.785722 
L 285.26741 156.332081 
L 286.631505 156.836513 
L 287.9956 160.556804 
L 289.359694 145.697943 
L 293.451979 133.606012 
L 294.816073 128.089761 
L 296.180168 119.492786 
L 297.544263 156.773582 
L 298.908358 156.227511 
L 303.000642 165.579089 
L 304.364736 166.852019 
L 305.728831 154.84346 
L 307.092926 164.583267 
L 308.457021 177.263559 
L 312.549305 181.147351 
L 313.9134 174.403135 
L 315.277494 177.053804 
L 316.641589 187.261919 
L 318.005684 190.261125 
L 323.462063 196.317315 
L 324.826157 203.288023 
L 326.190252 191.838126 
L 327.554347 182.461524 
L 331.646631 184.332094 
L 333.010726 192.799094 
L 334.37482 181.351945 
L 335.738915 183.381267 
L 337.10301 188.153274 
L 341.195294 209.66926 
L 342.559389 210.193155 
L 343.923484 188.535383 
L 345.287578 195.673472 
L 346.651673 204.490354 
L 350.743957 206.761698 
L 352.108052 196.348252 
L 353.472147 179.779729 
L 354.836241 173.759122 
L 356.200336 163.636033 
L 360.29262 166.387936 
L 361.656715 155.970668 
L 363.02081 161.675211 
L 364.384905 151.890787 
L 365.748999 146.849963 
L 369.841283 144.991544 
L 371.205378 139.840305 
L 372.569473 141.731009 
L 373.933568 154.596329 
L 375.297662 152.220131 
L 379.389947 144.687211 
L 380.754041 151.073615 
L 382.118136 160.509102 
L 384.846325 162.544668 
L 388.93861 172.665741 
L 390.302704 176.608112 
L 391.666799 173.45673 
L 393.030894 183.340194 
L 398.487273 182.585591 
L 398.487273 182.585591 
" style="fill:none;stroke:#0000ff;stroke-linecap:square;stroke-opacity:0.9;stroke-width:2;"/>
   </g>
   <g id="line2d_18">
    <path clip-path="url(#p06059d029c)" d="M 73.832727 149.94731 
L 75.196822 146.999957 
L 76.560917 144.387328 
L 77.925011 147.641702 
L 79.289106 140.729554 
L 83.38139 139.306099 
L 84.745485 138.370656 
L 86.10958 138.362227 
L 87.473675 138.939292 
L 88.837769 138.891464 
L 94.294148 138.078525 
L 95.658243 140.25085 
L 97.022338 141.339519 
L 98.386432 147.617796 
L 102.478717 143.344053 
L 103.842811 148.455529 
L 105.206906 145.811164 
L 106.571001 147.992227 
L 107.935095 155.005973 
L 112.02738 164.200884 
L 113.391474 163.947438 
L 114.755569 160.714221 
L 116.119664 153.653746 
L 117.483759 149.499435 
L 121.576043 145.8109 
L 122.940138 156.869391 
L 124.304232 156.355548 
L 125.668327 161.735993 
L 127.032422 153.657922 
L 131.124706 159.721027 
L 132.488801 151.494216 
L 133.852895 150.122772 
L 135.21699 148.530199 
L 136.581085 145.880434 
L 140.673369 149.022415 
L 142.037464 153.695287 
L 143.401558 155.326723 
L 144.765653 141.553865 
L 146.129748 137.506116 
L 150.222032 136.093559 
L 151.586127 131.361863 
L 152.950222 128.176397 
L 154.314316 135.792816 
L 155.678411 138.889778 
L 159.770695 140.285058 
L 161.13479 143.491407 
L 162.498885 146.397431 
L 163.862979 138.423347 
L 165.227074 137.417294 
L 169.319358 137.207824 
L 170.683453 135.287437 
L 172.047548 130.782196 
L 173.411642 131.853678 
L 178.868021 131.012987 
L 180.232116 135.510011 
L 181.596211 138.62406 
L 182.960306 138.519232 
L 184.3244 134.69312 
L 188.416684 133.377953 
L 189.780779 134.745097 
L 192.508969 135.333757 
L 193.873063 137.331811 
L 197.965348 135.10486 
L 199.329442 129.30541 
L 200.693537 128.762716 
L 203.421727 143.918477 
L 207.514011 137.624687 
L 208.878105 149.958884 
L 210.2422 156.417245 
L 211.606295 148.800498 
L 212.97039 153.357181 
L 217.062674 145.012642 
L 218.426769 135.188145 
L 219.790863 131.647732 
L 221.154958 132.251929 
L 222.519053 128.079638 
L 226.611337 134.549094 
L 227.975432 134.112595 
L 229.339526 129.368884 
L 230.703621 129.065777 
L 232.067716 136.828044 
L 236.16 143.584511 
L 237.524095 132.481913 
L 238.888189 128.911184 
L 240.252284 124.187147 
L 245.708663 116.504542 
L 247.072758 116.672886 
L 248.436853 116.270891 
L 249.800947 117.158783 
L 251.165042 119.607204 
L 255.257326 113.270187 
L 256.621421 107.196373 
L 257.985516 120.144424 
L 259.34961 117.930105 
L 260.713705 114.72711 
L 264.805989 115.552132 
L 266.170084 111.953817 
L 267.534179 111.581192 
L 268.898273 116.152063 
L 270.262368 116.868598 
L 275.718747 129.436496 
L 278.446937 140.756307 
L 279.811031 152.599913 
L 283.903316 153.64445 
L 285.26741 152.226324 
L 286.631505 153.349842 
L 287.9956 158.104281 
L 289.359694 144.633749 
L 293.451979 135.421174 
L 294.816073 128.729668 
L 296.180168 119.597669 
L 297.544263 146.063039 
L 298.908358 141.280581 
L 303.000642 144.746492 
L 304.364736 141.095833 
L 305.728831 135.842548 
L 307.092926 145.697658 
L 308.457021 157.200899 
L 312.549305 162.450721 
L 313.9134 155.85638 
L 315.277494 157.075197 
L 316.641589 168.124772 
L 318.005684 170.57977 
L 323.462063 175.559928 
L 324.826157 183.178857 
L 326.190252 179.748259 
L 327.554347 167.032151 
L 331.646631 172.48105 
L 333.010726 183.661602 
L 334.37482 171.037969 
L 335.738915 172.003357 
L 337.10301 179.819124 
L 341.195294 198.980751 
L 342.559389 201.727625 
L 343.923484 182.437802 
L 345.287578 189.370455 
L 346.651673 194.992872 
L 350.743957 195.583628 
L 352.108052 187.136427 
L 353.472147 174.932937 
L 356.200336 164.074594 
L 360.29262 163.909642 
L 361.656715 154.579551 
L 363.02081 160.152932 
L 364.384905 151.777524 
L 365.748999 145.859325 
L 369.841283 144.651232 
L 371.205378 142.207441 
L 372.569473 142.966128 
L 373.933568 153.636695 
L 375.297662 150.860766 
L 379.389947 147.402285 
L 380.754041 152.762447 
L 382.118136 159.785851 
L 383.482231 160.147207 
L 384.846325 160.001489 
L 390.302704 170.817363 
L 391.666799 169.207558 
L 393.030894 176.890636 
L 398.487273 173.716899 
L 398.487273 173.716899 
" style="fill:none;stroke:#ff0000;stroke-linecap:square;stroke-opacity:0.9;stroke-width:2;"/>
   </g>
   <g id="line2d_19">
    <path clip-path="url(#p06059d029c)" d="M 73.832727 149.94731 
L 75.196822 146.906356 
L 76.560917 144.620669 
L 77.925011 147.606069 
L 79.289106 142.190573 
L 83.38139 138.558447 
L 84.745485 137.646378 
L 86.10958 139.022144 
L 87.473675 138.214959 
L 94.294148 138.466007 
L 95.658243 140.822476 
L 97.022338 142.264119 
L 98.386432 147.165803 
L 102.478717 142.663259 
L 103.842811 150.506043 
L 105.206906 146.476498 
L 106.571001 147.422177 
L 107.935095 152.701074 
L 112.02738 162.307553 
L 113.391474 163.809903 
L 114.755569 159.652797 
L 116.119664 150.368029 
L 117.483759 145.612337 
L 121.576043 140.915515 
L 122.940138 152.800258 
L 124.304232 151.335923 
L 125.668327 155.409252 
L 127.032422 146.635873 
L 131.124706 157.193516 
L 132.488801 148.748788 
L 135.21699 144.519661 
L 136.581085 142.704573 
L 140.673369 145.961541 
L 142.037464 150.30324 
L 143.401558 151.23511 
L 144.765653 140.178209 
L 146.129748 139.303324 
L 150.222032 134.448893 
L 151.586127 128.911591 
L 152.950222 126.285261 
L 154.314316 135.604963 
L 155.678411 143.056586 
L 159.770695 142.904008 
L 161.13479 148.094046 
L 162.498885 149.345668 
L 163.862979 142.127531 
L 165.227074 141.198353 
L 169.319358 137.867581 
L 170.683453 137.153597 
L 172.047548 132.293899 
L 173.411642 132.320354 
L 174.775737 127.814057 
L 178.868021 127.254143 
L 180.232116 134.629118 
L 181.596211 138.97409 
L 182.960306 139.064654 
L 184.3244 134.767477 
L 188.416684 132.952612 
L 189.780779 135.733425 
L 191.144874 135.833838 
L 192.508969 137.624781 
L 193.873063 137.713789 
L 197.965348 133.881509 
L 199.329442 128.999184 
L 200.693537 129.841964 
L 203.421727 143.07554 
L 207.514011 135.181586 
L 208.878105 146.806133 
L 210.2422 154.321903 
L 211.606295 148.066261 
L 212.97039 151.332192 
L 217.062674 140.838184 
L 218.426769 130.553208 
L 219.790863 125.614544 
L 221.154958 125.504659 
L 222.519053 123.384449 
L 226.611337 129.295436 
L 227.975432 126.577532 
L 229.339526 123.359684 
L 230.703621 120.831511 
L 232.067716 127.797044 
L 236.16 135.646174 
L 237.524095 122.093105 
L 238.888189 119.286525 
L 240.252284 113.813277 
L 245.708663 106.626625 
L 247.072758 106.896405 
L 248.436853 106.967005 
L 249.800947 107.637 
L 251.165042 110.233728 
L 255.257326 101.263704 
L 256.621421 93.328072 
L 257.985516 109.554498 
L 259.34961 103.071563 
L 260.713705 100.919098 
L 264.805989 99.705026 
L 266.170084 93.940313 
L 267.534179 93.1531 
L 268.898273 100.3021 
L 270.262368 98.595121 
L 277.082842 114.8712 
L 278.446937 121.465117 
L 279.811031 135.587233 
L 283.903316 134.436232 
L 285.26741 141.108623 
L 286.631505 141.000244 
L 287.9956 145.146696 
L 289.359694 129.980255 
L 293.451979 117.707229 
L 294.816073 111.663995 
L 296.180168 101.408504 
L 297.544263 142.703467 
L 298.908358 142.046764 
L 303.000642 152.08029 
L 304.364736 153.555371 
L 305.728831 140.823243 
L 307.092926 151.040467 
L 308.457021 163.585244 
L 312.549305 167.314186 
L 313.9134 160.758337 
L 315.277494 163.587747 
L 316.641589 173.975833 
L 318.005684 176.823587 
L 323.462063 182.248933 
L 324.826157 189.803824 
L 326.190252 177.62078 
L 327.554347 167.886538 
L 331.646631 169.670019 
L 333.010726 178.229584 
L 334.37482 166.721278 
L 335.738915 169.871821 
L 337.10301 177.367836 
L 341.195294 200.478858 
L 342.559389 198.184915 
L 343.923484 175.03886 
L 345.287578 183.160842 
L 346.651673 192.092526 
L 350.743957 192.283211 
L 352.108052 182.176137 
L 353.472147 164.186283 
L 354.836241 158.017837 
L 356.200336 149.724537 
L 360.29262 151.897454 
L 361.656715 139.506678 
L 363.02081 146.493022 
L 364.384905 138.038365 
L 365.748999 131.339399 
L 369.841283 130.772102 
L 371.205378 126.47221 
L 372.569473 129.038864 
L 373.933568 144.043795 
L 375.297662 142.985625 
L 379.389947 137.444979 
L 380.754041 144.671065 
L 382.118136 153.013171 
L 383.482231 155.477816 
L 384.846325 155.904429 
L 390.302704 167.666175 
L 391.666799 165.231016 
L 393.030894 175.583831 
L 398.487273 169.88476 
L 398.487273 169.88476 
" style="fill:none;stroke:#ff8040;stroke-linecap:square;stroke-opacity:0.9;stroke-width:2;"/>
   </g>
   <g id="line2d_20">
    <path clip-path="url(#p06059d029c)" d="M 73.832727 150.51283 
L 76.560917 146.786121 
L 77.925011 151.214928 
L 79.289106 144.730312 
L 83.38139 145.530978 
L 84.745485 144.11867 
L 86.10958 145.653174 
L 87.473675 146.357554 
L 94.294148 144.939906 
L 95.658243 148.6943 
L 97.022338 149.568194 
L 98.386432 156.272336 
L 102.478717 152.031383 
L 103.842811 159.42187 
L 105.206906 156.053476 
L 106.571001 156.068308 
L 107.935095 164.103566 
L 112.02738 173.954392 
L 113.391474 173.06028 
L 114.755569 171.097618 
L 116.119664 164.874481 
L 117.483759 161.905239 
L 121.576043 160.803494 
L 122.940138 172.243754 
L 124.304232 171.036737 
L 125.668327 176.011658 
L 127.032422 168.959807 
L 131.124706 177.559941 
L 132.488801 170.792064 
L 133.852895 169.927478 
L 135.21699 169.297831 
L 136.581085 166.955438 
L 140.673369 170.698723 
L 142.037464 175.402394 
L 143.401558 178.839472 
L 144.765653 167.080301 
L 146.129748 163.546053 
L 150.222032 159.84108 
L 151.586127 154.264096 
L 152.950222 149.933128 
L 154.314316 159.567935 
L 155.678411 161.411638 
L 159.770695 163.337437 
L 161.13479 166.727709 
L 162.498885 171.516192 
L 163.862979 165.406013 
L 165.227074 163.922672 
L 169.319358 166.603155 
L 170.683453 165.217132 
L 172.047548 160.926694 
L 173.411642 161.305475 
L 174.775737 160.920592 
L 178.868021 159.280677 
L 180.232116 164.842239 
L 181.596211 170.89456 
L 182.960306 170.526183 
L 184.3244 165.806557 
L 188.416684 164.684737 
L 189.780779 166.814233 
L 191.144874 167.04281 
L 192.508969 166.180346 
L 193.873063 170.737076 
L 197.965348 167.37614 
L 199.329442 165.414667 
L 200.693537 164.954134 
L 203.421727 178.272965 
L 207.514011 173.292383 
L 208.878105 177.482337 
L 210.2422 185.222975 
L 211.606295 178.566846 
L 212.97039 183.281345 
L 217.062674 175.295788 
L 218.426769 168.40502 
L 219.790863 163.743074 
L 221.154958 162.908314 
L 222.519053 161.180196 
L 226.611337 169.106368 
L 229.339526 168.159839 
L 230.703621 167.45091 
L 232.067716 172.396026 
L 236.16 178.100354 
L 237.524095 167.09219 
L 238.888189 165.829547 
L 240.252284 158.511231 
L 245.708663 151.637911 
L 247.072758 150.958925 
L 248.436853 150.505299 
L 249.800947 151.118339 
L 251.165042 154.668457 
L 255.257326 146.760918 
L 256.621421 138.666778 
L 257.985516 153.029647 
L 259.34961 155.438682 
L 260.713705 151.851419 
L 264.805989 154.812356 
L 266.170084 150.626827 
L 267.534179 150.319545 
L 268.898273 156.66803 
L 270.262368 155.276968 
L 275.718747 166.77169 
L 277.082842 174.116969 
L 278.446937 179.777157 
L 279.811031 188.560904 
L 283.903316 189.659454 
L 285.26741 192.514931 
L 286.631505 192.828424 
L 287.9956 198.416801 
L 289.359694 186.936247 
L 293.451979 178.721084 
L 294.816073 173.544428 
L 296.180168 162.748959 
L 297.544263 197.451667 
L 298.908358 192.32394 
L 303.000642 196.823374 
L 304.364736 197.209774 
L 305.728831 192.995824 
L 307.092926 202.481596 
L 308.457021 214.086745 
L 312.549305 217.890318 
L 313.9134 211.791287 
L 315.277494 213.721512 
L 316.641589 227.305943 
L 318.005684 229.919092 
L 323.462063 234.873665 
L 324.826157 242.036623 
L 326.190252 236.304478 
L 327.554347 227.379541 
L 331.646631 230.475068 
L 333.010726 245.821746 
L 334.37482 235.30927 
L 335.738915 236.783664 
L 337.10301 246.272303 
L 341.195294 264.8053 
L 342.559389 264.888903 
L 343.923484 248.254372 
L 345.287578 253.390658 
L 346.651673 264.120374 
L 350.743957 265.797818 
L 352.108052 258.826227 
L 353.472147 245.595311 
L 354.836241 240.514394 
L 356.200336 233.383038 
L 360.29262 235.309508 
L 361.656715 227.016161 
L 363.02081 234.522939 
L 365.748999 221.256236 
L 369.841283 220.904303 
L 371.205378 217.779767 
L 372.569473 218.373079 
L 373.933568 227.175712 
L 375.297662 223.424237 
L 379.389947 217.871737 
L 380.754041 222.037695 
L 382.118136 229.234213 
L 383.482231 229.597108 
L 384.846325 227.942321 
L 388.93861 233.720076 
L 390.302704 236.243534 
L 391.666799 234.491128 
L 393.030894 242.784605 
L 398.487273 241.552788 
L 398.487273 241.552788 
" style="fill:none;stroke:#0d0d0d;stroke-linecap:square;stroke-opacity:0.25;stroke-width:2;"/>
   </g>
   <g id="line2d_21">
    <path clip-path="url(#p06059d029c)" d="M 73.832727 149.381789 
L 75.196822 144.652314 
L 76.560917 140.904242 
L 77.925011 143.697762 
L 79.289106 136.413884 
L 83.38139 131.598209 
L 86.10958 129.347958 
L 87.473675 129.866336 
L 88.837769 129.627834 
L 94.294148 126.408365 
L 97.022338 127.863611 
L 98.386432 132.014814 
L 102.478717 126.702124 
L 103.842811 134.243199 
L 105.206906 130.479628 
L 106.571001 131.9702 
L 107.935095 140.381236 
L 112.02738 148.692999 
L 113.391474 147.839286 
L 114.755569 144.046031 
L 116.119664 136.626913 
L 117.483759 131.828025 
L 121.576043 126.944108 
L 122.940138 136.056377 
L 124.304232 134.916786 
L 125.668327 139.808758 
L 127.032422 129.829045 
L 131.124706 136.479141 
L 132.488801 127.744494 
L 133.852895 125.976719 
L 135.21699 124.729796 
L 136.581085 122.088082 
L 140.673369 124.34244 
L 142.037464 127.461078 
L 143.401558 128.84254 
L 144.765653 113.498512 
L 146.129748 108.146855 
L 150.222032 102.008686 
L 151.586127 97.151933 
L 152.950222 94.999868 
L 154.314316 95.552727 
L 155.678411 102.864473 
L 159.770695 104.175425 
L 161.13479 106.976806 
L 162.498885 107.833043 
L 163.862979 99.206041 
L 165.227074 99.438689 
L 169.319358 97.809625 
L 170.683453 96.339839 
L 172.047548 92.513274 
L 173.411642 91.893733 
L 174.775737 92.991496 
L 178.868021 91.86469 
L 180.232116 97.767245 
L 182.960306 97.300819 
L 184.3244 94.545817 
L 188.416684 92.39609 
L 189.780779 94.106321 
L 191.144874 94.667946 
L 192.508969 92.497042 
L 193.873063 91.369556 
L 197.965348 85.063642 
L 199.329442 78.920504 
L 200.693537 77.251926 
L 203.421727 91.65959 
L 207.514011 85.591305 
L 208.878105 97.560456 
L 210.2422 107.114408 
L 211.606295 99.058687 
L 212.97039 105.535298 
L 217.062674 97.43613 
L 218.426769 82.32227 
L 219.790863 79.232444 
L 221.154958 79.595331 
L 222.519053 75.154795 
L 226.611337 78.66255 
L 227.975432 79.317965 
L 229.339526 71.795817 
L 230.703621 70.676448 
L 232.067716 80.352016 
L 236.16 86.954756 
L 237.524095 78.005587 
L 238.888189 74.462759 
L 240.252284 70.08243 
L 245.708663 62.89632 
L 247.072758 64.008938 
L 248.436853 63.013035 
L 249.800947 63.337753 
L 251.165042 64.978036 
L 255.257326 58.335892 
L 256.621421 52.154182 
L 257.985516 69.161648 
L 259.34961 65.17219 
L 260.713705 62.021012 
L 264.805989 61.740485 
L 266.170084 57.512736 
L 267.534179 57.195918 
L 268.898273 60.281088 
L 270.262368 61.271055 
L 275.718747 74.164468 
L 277.082842 80.794718 
L 278.446937 86.569007 
L 279.811031 99.43504 
L 283.903316 100.792244 
L 285.26741 98.976924 
L 286.631505 96.695072 
L 287.9956 102.16317 
L 289.359694 89.731356 
L 293.451979 78.803273 
L 296.180168 64.034574 
L 297.544263 85.64969 
L 298.908358 82.611003 
L 303.000642 92.406725 
L 304.364736 86.714029 
L 305.728831 81.860885 
L 308.457021 105.301842 
L 312.549305 108.301746 
L 313.9134 100.64264 
L 315.277494 103.039368 
L 316.641589 119.397968 
L 318.005684 122.504637 
L 323.462063 127.544512 
L 324.826157 135.727354 
L 326.190252 128.438422 
L 327.554347 115.376384 
L 331.646631 119.562226 
L 333.010726 132.181152 
L 334.37482 116.761744 
L 335.738915 116.437612 
L 337.10301 122.986569 
L 341.195294 138.104737 
L 342.559389 139.960622 
L 343.923484 115.112001 
L 346.651673 133.742473 
L 350.743957 140.060141 
L 352.108052 128.078784 
L 353.472147 114.345564 
L 356.200336 99.925846 
L 360.29262 102.19541 
L 361.656715 89.574474 
L 363.02081 94.62761 
L 364.384905 86.109333 
L 365.748999 80.373481 
L 369.841283 79.47457 
L 371.205378 76.064233 
L 372.569473 77.724682 
L 373.933568 89.330874 
L 375.297662 84.056581 
L 379.389947 77.106587 
L 380.754041 82.449357 
L 382.118136 88.278251 
L 383.482231 86.443651 
L 384.846325 86.193222 
L 388.93861 95.993989 
L 390.302704 102.630791 
L 391.666799 99.430909 
L 393.030894 112.691395 
L 398.487273 106.843863 
L 398.487273 106.843863 
" style="fill:none;stroke:#0d0d0d;stroke-linecap:square;stroke-opacity:0.25;stroke-width:2;"/>
   </g>
   <g id="patch_3">
    <path d="M 57.6 276.48 
L 57.6 41.472 
" style="fill:none;stroke:#000000;stroke-linecap:square;stroke-linejoin:miter;stroke-width:0.8;"/>
   </g>
   <g id="patch_4">
    <path d="M 414.72 276.48 
L 414.72 41.472 
" style="fill:none;stroke:#000000;stroke-linecap:square;stroke-linejoin:miter;stroke-width:0.8;"/>
   </g>
   <g id="patch_5">
    <path d="M 57.6 276.48 
L 414.72 276.48 
" style="fill:none;stroke:#000000;stroke-linecap:square;stroke-linejoin:miter;stroke-width:0.8;"/>
   </g>
   <g id="patch_6">
    <path d="M 57.6 41.472 
L 414.72 41.472 
" style="fill:none;stroke:#000000;stroke-linecap:square;stroke-linejoin:miter;stroke-width:0.8;"/>
   </g>
   <g id="text_18">
    <!-- TESTFUNDS1330 -->
    <g transform="translate(185.200312 22.034625)scale(0.12 -0.12)">
     <defs>
      <path d="M -19 4666 
L 3928 4666 
L 3928 4134 
L 2272 4134 
L 2272 0 
L 1638 0 
L 1638 4134 
L -19 4134 
L -19 4666 
z
" id="DejaVuSans-54" transform="scale(0.015625)"/>
      <path d="M 628 4666 
L 3578 4666 
L 3578 4134 
L 1259 4134 
L 1259 2753 
L 3481 2753 
L 3481 2222 
L 1259 2222 
L 1259 531 
L 3634 531 
L 3634 0 
L 628 0 
L 628 4666 
z
" id="DejaVuSans-45" transform="scale(0.015625)"/>
      <path d="M 3425 4513 
L 3425 3897 
Q 3066 4069 2747 4153 
Q 2428 4238 2131 4238 
Q 1616 4238 1336 4038 
Q 1056 3838 1056 3469 
Q 1056 3159 1242 3001 
Q 1428 2844 1947 2747 
L 2328 2669 
Q 3034 2534 3370 2195 
Q 3706 1856 3706 1288 
Q 3706 609 3251 259 
Q 2797 -91 1919 -91 
Q 1588 -91 1214 -16 
Q 841 59 441 206 
L 441 856 
Q 825 641 1194 531 
Q 1563 422 1919 422 
Q 2459 422 2753 634 
Q 3047 847 3047 1241 
Q 3047 1584 2836 1778 
Q 2625 1972 2144 2069 
L 1759 2144 
Q 1053 2284 737 2584 
Q 422 2884 422 3419 
Q 422 4038 858 4394 
Q 1294 4750 2059 4750 
Q 2388 4750 2728 4690 
Q 3069 4631 3425 4513 
z
" id="DejaVuSans-53" transform="scale(0.015625)"/>
      <path d="M 628 4666 
L 3309 4666 
L 3309 4134 
L 1259 4134 
L 1259 2759 
L 3109 2759 
L 3109 2228 
L 1259 2228 
L 1259 0 
L 628 0 
L 628 4666 
z
" id="DejaVuSans-46" transform="scale(0.015625)"/>
      <path d="M 556 4666 
L 1191 4666 
L 1191 1831 
Q 1191 1081 1462 751 
Q 1734 422 2344 422 
Q 2950 422 3222 751 
Q 3494 1081 3494 1831 
L 3494 4666 
L 4128 4666 
L 4128 1753 
Q 4128 841 3676 375 
Q 3225 -91 2344 -91 
Q 1459 -91 1007 375 
Q 556 841 556 1753 
L 556 4666 
z
" id="DejaVuSans-55" transform="scale(0.015625)"/>
      <path d="M 628 4666 
L 1478 4666 
L 3547 763 
L 3547 4666 
L 4159 4666 
L 4159 0 
L 3309 0 
L 1241 3903 
L 1241 0 
L 628 0 
L 628 4666 
z
" id="DejaVuSans-4e" transform="scale(0.015625)"/>
      <path d="M 1259 4147 
L 1259 519 
L 2022 519 
Q 2988 519 3436 956 
Q 3884 1394 3884 2338 
Q 3884 3275 3436 3711 
Q 2988 4147 2022 4147 
L 1259 4147 
z
M 628 4666 
L 1925 4666 
Q 3281 4666 3915 4102 
Q 4550 3538 4550 2338 
Q 4550 1131 3912 565 
Q 3275 0 1925 0 
L 628 0 
L 628 4666 
z
" id="DejaVuSans-44" transform="scale(0.015625)"/>
     </defs>
     <use xlink:href="#DejaVuSans-54"/>
     <use x="61.083984" xlink:href="#DejaVuSans-45"/>
     <use x="124.267578" xlink:href="#DejaVuSans-53"/>
     <use x="187.744141" xlink:href="#DejaVuSans-54"/>
     <use x="248.828125" xlink:href="#DejaVuSans-46"/>
     <use x="306.347656" xlink:href="#DejaVuSans-55"/>
     <use x="379.541016" xlink:href="#DejaVuSans-4e"/>
     <use x="454.345703" xlink:href="#DejaVuSans-44"/>
     <use x="531.347656" xlink:href="#DejaVuSans-53"/>
     <use x="594.824219" xlink:href="#DejaVuSans-31"/>
     <use x="658.447266" xlink:href="#DejaVuSans-33"/>
     <use x="722.070312" xlink:href="#DejaVuSans-33"/>
     <use x="785.693359" xlink:href="#DejaVuSans-30"/>
    </g>
    <!-- daily_report -->
    <g transform="translate(200.466563 35.472)scale(0.12 -0.12)">
     <defs>
      <path d="M 603 3500 
L 1178 3500 
L 1178 0 
L 603 0 
L 603 3500 
z
M 603 4863 
L 1178 4863 
L 1178 4134 
L 603 4134 
L 603 4863 
z
" id="DejaVuSans-69" transform="scale(0.015625)"/>
      <path d="M 603 4863 
L 1178 4863 
L 1178 0 
L 603 0 
L 603 4863 
z
" id="DejaVuSans-6c" transform="scale(0.015625)"/>
      <path d="M 2059 -325 
Q 1816 -950 1584 -1140 
Q 1353 -1331 966 -1331 
L 506 -1331 
L 506 -850 
L 844 -850 
Q 1081 -850 1212 -737 
Q 1344 -625 1503 -206 
L 1606 56 
L 191 3500 
L 800 3500 
L 1894 763 
L 2988 3500 
L 3597 3500 
L 2059 -325 
z
" id="DejaVuSans-79" transform="scale(0.015625)"/>
      <path d="M 3263 -1063 
L 3263 -1509 
L -63 -1509 
L -63 -1063 
L 3263 -1063 
z
" id="DejaVuSans-5f" transform="scale(0.015625)"/>
      <path d="M 2631 2963 
Q 2534 3019 2420 3045 
Q 2306 3072 2169 3072 
Q 1681 3072 1420 2755 
Q 1159 2438 1159 1844 
L 1159 0 
L 581 0 
L 581 3500 
L 1159 3500 
L 1159 2956 
Q 1341 3275 1631 3429 
Q 1922 3584 2338 3584 
Q 2397 3584 2469 3576 
Q 2541 3569 2628 3553 
L 2631 2963 
z
" id="DejaVuSans-72" transform="scale(0.015625)"/>
      <path d="M 1159 525 
L 1159 -1331 
L 581 -1331 
L 581 3500 
L 1159 3500 
L 1159 2969 
Q 1341 3281 1617 3432 
Q 1894 3584 2278 3584 
Q 2916 3584 3314 3078 
Q 3713 2572 3713 1747 
Q 3713 922 3314 415 
Q 2916 -91 2278 -91 
Q 1894 -91 1617 61 
Q 1341 213 1159 525 
z
M 3116 1747 
Q 3116 2381 2855 2742 
Q 2594 3103 2138 3103 
Q 1681 3103 1420 2742 
Q 1159 2381 1159 1747 
Q 1159 1113 1420 752 
Q 1681 391 2138 391 
Q 2594 391 2855 752 
Q 3116 1113 3116 1747 
z
" id="DejaVuSans-70" transform="scale(0.015625)"/>
      <path d="M 1959 3097 
Q 1497 3097 1228 2736 
Q 959 2375 959 1747 
Q 959 1119 1226 758 
Q 1494 397 1959 397 
Q 2419 397 2687 759 
Q 2956 1122 2956 1747 
Q 2956 2369 2687 2733 
Q 2419 3097 1959 3097 
z
M 1959 3584 
Q 2709 3584 3137 3096 
Q 3566 2609 3566 1747 
Q 3566 888 3137 398 
Q 2709 -91 1959 -91 
Q 1206 -91 779 398 
Q 353 888 353 1747 
Q 353 2609 779 3096 
Q 1206 3584 1959 3584 
z
" id="DejaVuSans-6f" transform="scale(0.015625)"/>
     </defs>
     <use xlink:href="#DejaVuSans-64"/>
     <use x="63.476562" xlink:href="#DejaVuSans-61"/>
     <use x="124.755859" xlink:href="#DejaVuSans-69"/>
     <use x="152.539062" xlink:href="#DejaVuSans-6c"/>
     <use x="180.322266" xlink:href="#DejaVuSans-79"/>
     <use x="239.501953" xlink:href="#DejaVuSans-5f"/>
     <use x="289.501953" xlink:href="#DejaVuSans-72"/>
     <use x="328.365234" xlink:href="#DejaVuSans-65"/>
     <use x="389.888672" xlink:href="#DejaVuSans-70"/>
     <use x="453.365234" xlink:href="#DejaVuSans-6f"/>
     <use x="514.546875" xlink:href="#DejaVuSans-72"/>
     <use x="555.660156" xlink:href="#DejaVuSans-74"/>
    </g>
   </g>
   <g id="legend_1">
    <g id="patch_7">
     <path d="M 64.6 271.48 
L 155.792188 271.48 
Q 157.792188 271.48 157.792188 269.48 
L 157.792188 197.089375 
Q 157.792188 195.089375 155.792188 195.089375 
L 64.6 195.089375 
Q 62.6 195.089375 62.6 197.089375 
L 62.6 269.48 
Q 62.6 271.48 64.6 271.48 
z
" style="fill:#ffffff;opacity:0.8;stroke:#cccccc;stroke-linejoin:miter;"/>
    </g>
    <g id="line2d_22">
     <path d="M 66.6 203.187812 
L 86.6 203.187812 
" style="fill:none;stroke:#0000ff;stroke-linecap:square;stroke-opacity:0.9;stroke-width:2;"/>
    </g>
    <g id="line2d_23"/>
    <g id="text_19">
     <!-- alpaca -->
     <g transform="translate(94.6 206.687812)scale(0.1 -0.1)">
      <defs>
       <path d="M 3122 3366 
L 3122 2828 
Q 2878 2963 2633 3030 
Q 2388 3097 2138 3097 
Q 1578 3097 1268 2742 
Q 959 2388 959 1747 
Q 959 1106 1268 751 
Q 1578 397 2138 397 
Q 2388 397 2633 464 
Q 2878 531 3122 666 
L 3122 134 
Q 2881 22 2623 -34 
Q 2366 -91 2075 -91 
Q 1284 -91 818 406 
Q 353 903 353 1747 
Q 353 2603 823 3093 
Q 1294 3584 2113 3584 
Q 2378 3584 2631 3529 
Q 2884 3475 3122 3366 
z
" id="DejaVuSans-63" transform="scale(0.015625)"/>
      </defs>
      <use xlink:href="#DejaVuSans-61"/>
      <use x="61.279297" xlink:href="#DejaVuSans-6c"/>
      <use x="89.0625" xlink:href="#DejaVuSans-70"/>
      <use x="152.539062" xlink:href="#DejaVuSans-61"/>
      <use x="213.818359" xlink:href="#DejaVuSans-63"/>
      <use x="268.798828" xlink:href="#DejaVuSans-61"/>
     </g>
    </g>
    <g id="line2d_24">
     <path d="M 66.6 217.865937 
L 86.6 217.865937 
" style="fill:none;stroke:#ff0000;stroke-linecap:square;stroke-opacity:0.9;stroke-width:2;"/>
    </g>
    <g id="line2d_25"/>
    <g id="text_20">
     <!-- mattress -->
     <g transform="translate(94.6 221.365937)scale(0.1 -0.1)">
      <defs>
       <path d="M 3328 2828 
Q 3544 3216 3844 3400 
Q 4144 3584 4550 3584 
Q 5097 3584 5394 3201 
Q 5691 2819 5691 2113 
L 5691 0 
L 5113 0 
L 5113 2094 
Q 5113 2597 4934 2840 
Q 4756 3084 4391 3084 
Q 3944 3084 3684 2787 
Q 3425 2491 3425 1978 
L 3425 0 
L 2847 0 
L 2847 2094 
Q 2847 2600 2669 2842 
Q 2491 3084 2119 3084 
Q 1678 3084 1418 2786 
Q 1159 2488 1159 1978 
L 1159 0 
L 581 0 
L 581 3500 
L 1159 3500 
L 1159 2956 
Q 1356 3278 1631 3431 
Q 1906 3584 2284 3584 
Q 2666 3584 2933 3390 
Q 3200 3197 3328 2828 
z
" id="DejaVuSans-6d" transform="scale(0.015625)"/>
       <path d="M 2834 3397 
L 2834 2853 
Q 2591 2978 2328 3040 
Q 2066 3103 1784 3103 
Q 1356 3103 1142 2972 
Q 928 2841 928 2578 
Q 928 2378 1081 2264 
Q 1234 2150 1697 2047 
L 1894 2003 
Q 2506 1872 2764 1633 
Q 3022 1394 3022 966 
Q 3022 478 2636 193 
Q 2250 -91 1575 -91 
Q 1294 -91 989 -36 
Q 684 19 347 128 
L 347 722 
Q 666 556 975 473 
Q 1284 391 1588 391 
Q 1994 391 2212 530 
Q 2431 669 2431 922 
Q 2431 1156 2273 1281 
Q 2116 1406 1581 1522 
L 1381 1569 
Q 847 1681 609 1914 
Q 372 2147 372 2553 
Q 372 3047 722 3315 
Q 1072 3584 1716 3584 
Q 2034 3584 2315 3537 
Q 2597 3491 2834 3397 
z
" id="DejaVuSans-73" transform="scale(0.015625)"/>
      </defs>
      <use xlink:href="#DejaVuSans-6d"/>
      <use x="97.412109" xlink:href="#DejaVuSans-61"/>
      <use x="158.691406" xlink:href="#DejaVuSans-74"/>
      <use x="197.900391" xlink:href="#DejaVuSans-74"/>
      <use x="237.109375" xlink:href="#DejaVuSans-72"/>
      <use x="275.972656" xlink:href="#DejaVuSans-65"/>
      <use x="337.496094" xlink:href="#DejaVuSans-73"/>
      <use x="389.595703" xlink:href="#DejaVuSans-73"/>
     </g>
    </g>
    <g id="line2d_26">
     <path d="M 66.6 232.544062 
L 86.6 232.544062 
" style="fill:none;stroke:#ff8040;stroke-linecap:square;stroke-opacity:0.9;stroke-width:2;"/>
    </g>
    <g id="line2d_27"/>
    <g id="text_21">
     <!-- trader-0850 -->
     <g transform="translate(94.6 236.044062)scale(0.1 -0.1)">
      <use xlink:href="#DejaVuSans-74"/>
      <use x="39.208984" xlink:href="#DejaVuSans-72"/>
      <use x="80.322266" xlink:href="#DejaVuSans-61"/>
      <use x="141.601562" xlink:href="#DejaVuSans-64"/>
      <use x="205.078125" xlink:href="#DejaVuSans-65"/>
      <use x="266.601562" xlink:href="#DejaVuSans-72"/>
      <use x="301.339844" xlink:href="#DejaVuSans-2d"/>
      <use x="337.423828" xlink:href="#DejaVuSans-30"/>
      <use x="401.046875" xlink:href="#DejaVuSans-38"/>
      <use x="464.669922" xlink:href="#DejaVuSans-35"/>
      <use x="528.292969" xlink:href="#DejaVuSans-30"/>
     </g>
    </g>
    <g id="line2d_28">
     <path d="M 66.6 247.222187 
L 86.6 247.222187 
" style="fill:none;stroke:#0d0d0d;stroke-linecap:square;stroke-opacity:0.25;stroke-width:2;"/>
    </g>
    <g id="line2d_29"/>
    <g id="text_22">
     <!-- rando-min -->
     <g transform="translate(94.6 250.722187)scale(0.1 -0.1)">
      <defs>
       <path d="M 3513 2113 
L 3513 0 
L 2938 0 
L 2938 2094 
Q 2938 2591 2744 2837 
Q 2550 3084 2163 3084 
Q 1697 3084 1428 2787 
Q 1159 2491 1159 1978 
L 1159 0 
L 581 0 
L 581 3500 
L 1159 3500 
L 1159 2956 
Q 1366 3272 1645 3428 
Q 1925 3584 2291 3584 
Q 2894 3584 3203 3211 
Q 3513 2838 3513 2113 
z
" id="DejaVuSans-6e" transform="scale(0.015625)"/>
      </defs>
      <use xlink:href="#DejaVuSans-72"/>
      <use x="41.113281" xlink:href="#DejaVuSans-61"/>
      <use x="102.392578" xlink:href="#DejaVuSans-6e"/>
      <use x="165.771484" xlink:href="#DejaVuSans-64"/>
      <use x="229.248047" xlink:href="#DejaVuSans-6f"/>
      <use x="292.304688" xlink:href="#DejaVuSans-2d"/>
      <use x="328.388672" xlink:href="#DejaVuSans-6d"/>
      <use x="425.800781" xlink:href="#DejaVuSans-69"/>
      <use x="453.583984" xlink:href="#DejaVuSans-6e"/>
     </g>
    </g>
    <g id="line2d_30">
     <path d="M 66.6 261.900312 
L 86.6 261.900312 
" style="fill:none;stroke:#0d0d0d;stroke-linecap:square;stroke-opacity:0.25;stroke-width:2;"/>
    </g>
    <g id="line2d_31"/>
    <g id="text_23">
     <!-- rando-max -->
     <g transform="translate(94.6 265.400312)scale(0.1 -0.1)">
      <defs>
       <path d="M 3513 3500 
L 2247 1797 
L 3578 0 
L 2900 0 
L 1881 1375 
L 863 0 
L 184 0 
L 1544 1831 
L 300 3500 
L 978 3500 
L 1906 2253 
L 2834 3500 
L 3513 3500 
z
" id="DejaVuSans-78" transform="scale(0.015625)"/>
      </defs>
      <use xlink:href="#DejaVuSans-72"/>
      <use x="41.113281" xlink:href="#DejaVuSans-61"/>
      <use x="102.392578" xlink:href="#DejaVuSans-6e"/>
      <use x="165.771484" xlink:href="#DejaVuSans-64"/>
      <use x="229.248047" xlink:href="#DejaVuSans-6f"/>
      <use x="292.304688" xlink:href="#DejaVuSans-2d"/>
      <use x="328.388672" xlink:href="#DejaVuSans-6d"/>
      <use x="425.800781" xlink:href="#DejaVuSans-61"/>
      <use x="487.080078" xlink:href="#DejaVuSans-78"/>
     </g>
    </g>
   </g>
  </g>
 </g>
 <defs>
  <clipPath id="p06059d029c">
   <rect height="235.008" width="357.12" x="57.6" y="41.472"/>
  </clipPath>
 </defs>
</svg>
