<?xml version="1.0" encoding="utf-8" standalone="no"?>
<!DOCTYPE svg PUBLIC "-//W3C//DTD SVG 1.1//EN"
  "http://www.w3.org/Graphics/SVG/1.1/DTD/svg11.dtd">
<svg height="345.6pt" version="1.1" viewBox="0 0 460.8 345.6" width="460.8pt" xmlns="http://www.w3.org/2000/svg" xmlns:xlink="http://www.w3.org/1999/xlink">
 <metadata>
  <rdf:RDF xmlns:cc="http://creativecommons.org/ns#" xmlns:dc="http://purl.org/dc/elements/1.1/" xmlns:rdf="http://www.w3.org/1999/02/22-rdf-syntax-ns#">
   <cc:Work>
    <dc:type rdf:resource="http://purl.org/dc/dcmitype/StillImage"/>
    <dc:date>2022-04-15T01:01:53.845152</dc:date>
    <dc:format>image/svg+xml</dc:format>
    <dc:creator>
     <cc:Agent>
      <dc:title>Matplotlib v3.4.3, https://matplotlib.org/</dc:title>
     </cc:Agent>
    </dc:creator>
   </cc:Work>
  </rdf:RDF>
 </metadata>
 <defs>
  <style type="text/css">*{stroke-linecap:butt;stroke-linejoin:round;}</style>
 </defs>
 <g id="figure_1">
  <g id="patch_1">
   <path d="M 0 345.6 
L 460.8 345.6 
L 460.8 0 
L 0 0 
z
" style="fill:#ffffff;"/>
  </g>
  <g id="axes_1">
   <g id="patch_2">
    <path d="M 57.6 276.48 
L 414.72 276.48 
L 414.72 41.472 
L 57.6 41.472 
z
" style="fill:#ffffff;"/>
   </g>
   <g id="matplotlib.axis_1">
    <g id="xtick_1">
     <g id="line2d_1">
      <defs>
       <path d="M 0 0 
L 0 3.5 
" id="m325ece8e2e" style="stroke:#000000;stroke-width:0.8;"/>
      </defs>
      <g>
       <use style="stroke:#000000;stroke-width:0.8;" x="86.319441" xlink:href="#m325ece8e2e" y="276.48"/>
      </g>
     </g>
     <g id="text_1">
      <!-- 2021-09 -->
      <g transform="translate(49.09462 310.951846)rotate(-30)scale(0.1 -0.1)">
       <defs>
        <path d="M 1228 531 
L 3431 531 
L 3431 0 
L 469 0 
L 469 531 
Q 828 903 1448 1529 
Q 2069 2156 2228 2338 
Q 2531 2678 2651 2914 
Q 2772 3150 2772 3378 
Q 2772 3750 2511 3984 
Q 2250 4219 1831 4219 
Q 1534 4219 1204 4116 
Q 875 4013 500 3803 
L 500 4441 
Q 881 4594 1212 4672 
Q 1544 4750 1819 4750 
Q 2544 4750 2975 4387 
Q 3406 4025 3406 3419 
Q 3406 3131 3298 2873 
Q 3191 2616 2906 2266 
Q 2828 2175 2409 1742 
Q 1991 1309 1228 531 
z
" id="DejaVuSans-32" transform="scale(0.015625)"/>
        <path d="M 2034 4250 
Q 1547 4250 1301 3770 
Q 1056 3291 1056 2328 
Q 1056 1369 1301 889 
Q 1547 409 2034 409 
Q 2525 409 2770 889 
Q 3016 1369 3016 2328 
Q 3016 3291 2770 3770 
Q 2525 4250 2034 4250 
z
M 2034 4750 
Q 2819 4750 3233 4129 
Q 3647 3509 3647 2328 
Q 3647 1150 3233 529 
Q 2819 -91 2034 -91 
Q 1250 -91 836 529 
Q 422 1150 422 2328 
Q 422 3509 836 4129 
Q 1250 4750 2034 4750 
z
" id="DejaVuSans-30" transform="scale(0.015625)"/>
        <path d="M 794 531 
L 1825 531 
L 1825 4091 
L 703 3866 
L 703 4441 
L 1819 4666 
L 2450 4666 
L 2450 531 
L 3481 531 
L 3481 0 
L 794 0 
L 794 531 
z
" id="DejaVuSans-31" transform="scale(0.015625)"/>
        <path d="M 313 2009 
L 1997 2009 
L 1997 1497 
L 313 1497 
L 313 2009 
z
" id="DejaVuSans-2d" transform="scale(0.015625)"/>
        <path d="M 703 97 
L 703 672 
Q 941 559 1184 500 
Q 1428 441 1663 441 
Q 2288 441 2617 861 
Q 2947 1281 2994 2138 
Q 2813 1869 2534 1725 
Q 2256 1581 1919 1581 
Q 1219 1581 811 2004 
Q 403 2428 403 3163 
Q 403 3881 828 4315 
Q 1253 4750 1959 4750 
Q 2769 4750 3195 4129 
Q 3622 3509 3622 2328 
Q 3622 1225 3098 567 
Q 2575 -91 1691 -91 
Q 1453 -91 1209 -44 
Q 966 3 703 97 
z
M 1959 2075 
Q 2384 2075 2632 2365 
Q 2881 2656 2881 3163 
Q 2881 3666 2632 3958 
Q 2384 4250 1959 4250 
Q 1534 4250 1286 3958 
Q 1038 3666 1038 3163 
Q 1038 2656 1286 2365 
Q 1534 2075 1959 2075 
z
" id="DejaVuSans-39" transform="scale(0.015625)"/>
       </defs>
       <use xlink:href="#DejaVuSans-32"/>
       <use x="63.623047" xlink:href="#DejaVuSans-30"/>
       <use x="127.246094" xlink:href="#DejaVuSans-32"/>
       <use x="190.869141" xlink:href="#DejaVuSans-31"/>
       <use x="254.492188" xlink:href="#DejaVuSans-2d"/>
       <use x="290.576172" xlink:href="#DejaVuSans-30"/>
       <use x="354.199219" xlink:href="#DejaVuSans-39"/>
      </g>
     </g>
    </g>
    <g id="xtick_2">
     <g id="line2d_2">
      <g>
       <use style="stroke:#000000;stroke-width:0.8;" x="127.941818" xlink:href="#m325ece8e2e" y="276.48"/>
      </g>
     </g>
     <g id="text_2">
      <!-- 2021-10 -->
      <g transform="translate(90.716997 310.951846)rotate(-30)scale(0.1 -0.1)">
       <use xlink:href="#DejaVuSans-32"/>
       <use x="63.623047" xlink:href="#DejaVuSans-30"/>
       <use x="127.246094" xlink:href="#DejaVuSans-32"/>
       <use x="190.869141" xlink:href="#DejaVuSans-31"/>
       <use x="254.492188" xlink:href="#DejaVuSans-2d"/>
       <use x="290.576172" xlink:href="#DejaVuSans-31"/>
       <use x="354.199219" xlink:href="#DejaVuSans-30"/>
      </g>
     </g>
    </g>
    <g id="xtick_3">
     <g id="line2d_3">
      <g>
       <use style="stroke:#000000;stroke-width:0.8;" x="170.951608" xlink:href="#m325ece8e2e" y="276.48"/>
      </g>
     </g>
     <g id="text_3">
      <!-- 2021-11 -->
      <g transform="translate(133.726788 310.951846)rotate(-30)scale(0.1 -0.1)">
       <use xlink:href="#DejaVuSans-32"/>
       <use x="63.623047" xlink:href="#DejaVuSans-30"/>
       <use x="127.246094" xlink:href="#DejaVuSans-32"/>
       <use x="190.869141" xlink:href="#DejaVuSans-31"/>
       <use x="254.492188" xlink:href="#DejaVuSans-2d"/>
       <use x="290.576172" xlink:href="#DejaVuSans-31"/>
       <use x="354.199219" xlink:href="#DejaVuSans-31"/>
      </g>
     </g>
    </g>
    <g id="xtick_4">
     <g id="line2d_4">
      <g>
       <use style="stroke:#000000;stroke-width:0.8;" x="212.573986" xlink:href="#m325ece8e2e" y="276.48"/>
      </g>
     </g>
     <g id="text_4">
      <!-- 2021-12 -->
      <g transform="translate(175.349165 310.951846)rotate(-30)scale(0.1 -0.1)">
       <use xlink:href="#DejaVuSans-32"/>
       <use x="63.623047" xlink:href="#DejaVuSans-30"/>
       <use x="127.246094" xlink:href="#DejaVuSans-32"/>
       <use x="190.869141" xlink:href="#DejaVuSans-31"/>
       <use x="254.492188" xlink:href="#DejaVuSans-2d"/>
       <use x="290.576172" xlink:href="#DejaVuSans-31"/>
       <use x="354.199219" xlink:href="#DejaVuSans-32"/>
      </g>
     </g>
    </g>
    <g id="xtick_5">
     <g id="line2d_5">
      <g>
       <use style="stroke:#000000;stroke-width:0.8;" x="255.583776" xlink:href="#m325ece8e2e" y="276.48"/>
      </g>
     </g>
     <g id="text_5">
      <!-- 2022-01 -->
      <g transform="translate(218.358955 310.951846)rotate(-30)scale(0.1 -0.1)">
       <use xlink:href="#DejaVuSans-32"/>
       <use x="63.623047" xlink:href="#DejaVuSans-30"/>
       <use x="127.246094" xlink:href="#DejaVuSans-32"/>
       <use x="190.869141" xlink:href="#DejaVuSans-32"/>
       <use x="254.492188" xlink:href="#DejaVuSans-2d"/>
       <use x="290.576172" xlink:href="#DejaVuSans-30"/>
       <use x="354.199219" xlink:href="#DejaVuSans-31"/>
      </g>
     </g>
    </g>
    <g id="xtick_6">
     <g id="line2d_6">
      <g>
       <use style="stroke:#000000;stroke-width:0.8;" x="298.593566" xlink:href="#m325ece8e2e" y="276.48"/>
      </g>
     </g>
     <g id="text_6">
      <!-- 2022-02 -->
      <g transform="translate(261.368746 310.951846)rotate(-30)scale(0.1 -0.1)">
       <use xlink:href="#DejaVuSans-32"/>
       <use x="63.623047" xlink:href="#DejaVuSans-30"/>
       <use x="127.246094" xlink:href="#DejaVuSans-32"/>
       <use x="190.869141" xlink:href="#DejaVuSans-32"/>
       <use x="254.492188" xlink:href="#DejaVuSans-2d"/>
       <use x="290.576172" xlink:href="#DejaVuSans-30"/>
       <use x="354.199219" xlink:href="#DejaVuSans-32"/>
      </g>
     </g>
    </g>
    <g id="xtick_7">
     <g id="line2d_7">
      <g>
       <use style="stroke:#000000;stroke-width:0.8;" x="337.441119" xlink:href="#m325ece8e2e" y="276.48"/>
      </g>
     </g>
     <g id="text_7">
      <!-- 2022-03 -->
      <g transform="translate(300.216298 310.951846)rotate(-30)scale(0.1 -0.1)">
       <defs>
        <path d="M 2597 2516 
Q 3050 2419 3304 2112 
Q 3559 1806 3559 1356 
Q 3559 666 3084 287 
Q 2609 -91 1734 -91 
Q 1441 -91 1130 -33 
Q 819 25 488 141 
L 488 750 
Q 750 597 1062 519 
Q 1375 441 1716 441 
Q 2309 441 2620 675 
Q 2931 909 2931 1356 
Q 2931 1769 2642 2001 
Q 2353 2234 1838 2234 
L 1294 2234 
L 1294 2753 
L 1863 2753 
Q 2328 2753 2575 2939 
Q 2822 3125 2822 3475 
Q 2822 3834 2567 4026 
Q 2313 4219 1838 4219 
Q 1578 4219 1281 4162 
Q 984 4106 628 3988 
L 628 4550 
Q 988 4650 1302 4700 
Q 1616 4750 1894 4750 
Q 2613 4750 3031 4423 
Q 3450 4097 3450 3541 
Q 3450 3153 3228 2886 
Q 3006 2619 2597 2516 
z
" id="DejaVuSans-33" transform="scale(0.015625)"/>
       </defs>
       <use xlink:href="#DejaVuSans-32"/>
       <use x="63.623047" xlink:href="#DejaVuSans-30"/>
       <use x="127.246094" xlink:href="#DejaVuSans-32"/>
       <use x="190.869141" xlink:href="#DejaVuSans-32"/>
       <use x="254.492188" xlink:href="#DejaVuSans-2d"/>
       <use x="290.576172" xlink:href="#DejaVuSans-30"/>
       <use x="354.199219" xlink:href="#DejaVuSans-33"/>
      </g>
     </g>
    </g>
    <g id="xtick_8">
     <g id="line2d_8">
      <g>
       <use style="stroke:#000000;stroke-width:0.8;" x="380.450909" xlink:href="#m325ece8e2e" y="276.48"/>
      </g>
     </g>
     <g id="text_8">
      <!-- 2022-04 -->
      <g transform="translate(343.226088 310.951846)rotate(-30)scale(0.1 -0.1)">
       <defs>
        <path d="M 2419 4116 
L 825 1625 
L 2419 1625 
L 2419 4116 
z
M 2253 4666 
L 3047 4666 
L 3047 1625 
L 3713 1625 
L 3713 1100 
L 3047 1100 
L 3047 0 
L 2419 0 
L 2419 1100 
L 313 1100 
L 313 1709 
L 2253 4666 
z
" id="DejaVuSans-34" transform="scale(0.015625)"/>
       </defs>
       <use xlink:href="#DejaVuSans-32"/>
       <use x="63.623047" xlink:href="#DejaVuSans-30"/>
       <use x="127.246094" xlink:href="#DejaVuSans-32"/>
       <use x="190.869141" xlink:href="#DejaVuSans-32"/>
       <use x="254.492188" xlink:href="#DejaVuSans-2d"/>
       <use x="290.576172" xlink:href="#DejaVuSans-30"/>
       <use x="354.199219" xlink:href="#DejaVuSans-34"/>
      </g>
     </g>
    </g>
    <g id="text_9">
     <!-- date -->
     <g transform="translate(224.885 324.351346)scale(0.1 -0.1)">
      <defs>
       <path d="M 2906 2969 
L 2906 4863 
L 3481 4863 
L 3481 0 
L 2906 0 
L 2906 525 
Q 2725 213 2448 61 
Q 2172 -91 1784 -91 
Q 1150 -91 751 415 
Q 353 922 353 1747 
Q 353 2572 751 3078 
Q 1150 3584 1784 3584 
Q 2172 3584 2448 3432 
Q 2725 3281 2906 2969 
z
M 947 1747 
Q 947 1113 1208 752 
Q 1469 391 1925 391 
Q 2381 391 2643 752 
Q 2906 1113 2906 1747 
Q 2906 2381 2643 2742 
Q 2381 3103 1925 3103 
Q 1469 3103 1208 2742 
Q 947 2381 947 1747 
z
" id="DejaVuSans-64" transform="scale(0.015625)"/>
       <path d="M 2194 1759 
Q 1497 1759 1228 1600 
Q 959 1441 959 1056 
Q 959 750 1161 570 
Q 1363 391 1709 391 
Q 2188 391 2477 730 
Q 2766 1069 2766 1631 
L 2766 1759 
L 2194 1759 
z
M 3341 1997 
L 3341 0 
L 2766 0 
L 2766 531 
Q 2569 213 2275 61 
Q 1981 -91 1556 -91 
Q 1019 -91 701 211 
Q 384 513 384 1019 
Q 384 1609 779 1909 
Q 1175 2209 1959 2209 
L 2766 2209 
L 2766 2266 
Q 2766 2663 2505 2880 
Q 2244 3097 1772 3097 
Q 1472 3097 1187 3025 
Q 903 2953 641 2809 
L 641 3341 
Q 956 3463 1253 3523 
Q 1550 3584 1831 3584 
Q 2591 3584 2966 3190 
Q 3341 2797 3341 1997 
z
" id="DejaVuSans-61" transform="scale(0.015625)"/>
       <path d="M 1172 4494 
L 1172 3500 
L 2356 3500 
L 2356 3053 
L 1172 3053 
L 1172 1153 
Q 1172 725 1289 603 
Q 1406 481 1766 481 
L 2356 481 
L 2356 0 
L 1766 0 
Q 1100 0 847 248 
Q 594 497 594 1153 
L 594 3053 
L 172 3053 
L 172 3500 
L 594 3500 
L 594 4494 
L 1172 4494 
z
" id="DejaVuSans-74" transform="scale(0.015625)"/>
       <path d="M 3597 1894 
L 3597 1613 
L 953 1613 
Q 991 1019 1311 708 
Q 1631 397 2203 397 
Q 2534 397 2845 478 
Q 3156 559 3463 722 
L 3463 178 
Q 3153 47 2828 -22 
Q 2503 -91 2169 -91 
Q 1331 -91 842 396 
Q 353 884 353 1716 
Q 353 2575 817 3079 
Q 1281 3584 2069 3584 
Q 2775 3584 3186 3129 
Q 3597 2675 3597 1894 
z
M 3022 2063 
Q 3016 2534 2758 2815 
Q 2500 3097 2075 3097 
Q 1594 3097 1305 2825 
Q 1016 2553 972 2059 
L 3022 2063 
z
" id="DejaVuSans-65" transform="scale(0.015625)"/>
      </defs>
      <use xlink:href="#DejaVuSans-64"/>
      <use x="63.476562" xlink:href="#DejaVuSans-61"/>
      <use x="124.755859" xlink:href="#DejaVuSans-74"/>
      <use x="163.964844" xlink:href="#DejaVuSans-65"/>
     </g>
    </g>
   </g>
   <g id="matplotlib.axis_2">
    <g id="ytick_1">
     <g id="line2d_9">
      <defs>
       <path d="M 0 0 
L -3.5 0 
" id="mfc24911ce9" style="stroke:#000000;stroke-width:0.8;"/>
      </defs>
      <g>
       <use style="stroke:#000000;stroke-width:0.8;" x="57.6" xlink:href="#mfc24911ce9" y="265.812428"/>
      </g>
     </g>
     <g id="text_10">
      <!-- 80000 -->
      <g transform="translate(18.7875 269.611647)scale(0.1 -0.1)">
       <defs>
        <path d="M 2034 2216 
Q 1584 2216 1326 1975 
Q 1069 1734 1069 1313 
Q 1069 891 1326 650 
Q 1584 409 2034 409 
Q 2484 409 2743 651 
Q 3003 894 3003 1313 
Q 3003 1734 2745 1975 
Q 2488 2216 2034 2216 
z
M 1403 2484 
Q 997 2584 770 2862 
Q 544 3141 544 3541 
Q 544 4100 942 4425 
Q 1341 4750 2034 4750 
Q 2731 4750 3128 4425 
Q 3525 4100 3525 3541 
Q 3525 3141 3298 2862 
Q 3072 2584 2669 2484 
Q 3125 2378 3379 2068 
Q 3634 1759 3634 1313 
Q 3634 634 3220 271 
Q 2806 -91 2034 -91 
Q 1263 -91 848 271 
Q 434 634 434 1313 
Q 434 1759 690 2068 
Q 947 2378 1403 2484 
z
M 1172 3481 
Q 1172 3119 1398 2916 
Q 1625 2713 2034 2713 
Q 2441 2713 2670 2916 
Q 2900 3119 2900 3481 
Q 2900 3844 2670 4047 
Q 2441 4250 2034 4250 
Q 1625 4250 1398 4047 
Q 1172 3844 1172 3481 
z
" id="DejaVuSans-38" transform="scale(0.015625)"/>
       </defs>
       <use xlink:href="#DejaVuSans-38"/>
       <use x="63.623047" xlink:href="#DejaVuSans-30"/>
       <use x="127.246094" xlink:href="#DejaVuSans-30"/>
       <use x="190.869141" xlink:href="#DejaVuSans-30"/>
       <use x="254.492188" xlink:href="#DejaVuSans-30"/>
      </g>
     </g>
    </g>
    <g id="ytick_2">
     <g id="line2d_10">
      <g>
       <use style="stroke:#000000;stroke-width:0.8;" x="57.6" xlink:href="#mfc24911ce9" y="234.432728"/>
      </g>
     </g>
     <g id="text_11">
      <!-- 85000 -->
      <g transform="translate(18.7875 238.231947)scale(0.1 -0.1)">
       <defs>
        <path d="M 691 4666 
L 3169 4666 
L 3169 4134 
L 1269 4134 
L 1269 2991 
Q 1406 3038 1543 3061 
Q 1681 3084 1819 3084 
Q 2600 3084 3056 2656 
Q 3513 2228 3513 1497 
Q 3513 744 3044 326 
Q 2575 -91 1722 -91 
Q 1428 -91 1123 -41 
Q 819 9 494 109 
L 494 744 
Q 775 591 1075 516 
Q 1375 441 1709 441 
Q 2250 441 2565 725 
Q 2881 1009 2881 1497 
Q 2881 1984 2565 2268 
Q 2250 2553 1709 2553 
Q 1456 2553 1204 2497 
Q 953 2441 691 2322 
L 691 4666 
z
" id="DejaVuSans-35" transform="scale(0.015625)"/>
       </defs>
       <use xlink:href="#DejaVuSans-38"/>
       <use x="63.623047" xlink:href="#DejaVuSans-35"/>
       <use x="127.246094" xlink:href="#DejaVuSans-30"/>
       <use x="190.869141" xlink:href="#DejaVuSans-30"/>
       <use x="254.492188" xlink:href="#DejaVuSans-30"/>
      </g>
     </g>
    </g>
    <g id="ytick_3">
     <g id="line2d_11">
      <g>
       <use style="stroke:#000000;stroke-width:0.8;" x="57.6" xlink:href="#mfc24911ce9" y="203.053029"/>
      </g>
     </g>
     <g id="text_12">
      <!-- 90000 -->
      <g transform="translate(18.7875 206.852248)scale(0.1 -0.1)">
       <use xlink:href="#DejaVuSans-39"/>
       <use x="63.623047" xlink:href="#DejaVuSans-30"/>
       <use x="127.246094" xlink:href="#DejaVuSans-30"/>
       <use x="190.869141" xlink:href="#DejaVuSans-30"/>
       <use x="254.492188" xlink:href="#DejaVuSans-30"/>
      </g>
     </g>
    </g>
    <g id="ytick_4">
     <g id="line2d_12">
      <g>
       <use style="stroke:#000000;stroke-width:0.8;" x="57.6" xlink:href="#mfc24911ce9" y="171.673329"/>
      </g>
     </g>
     <g id="text_13">
      <!-- 95000 -->
      <g transform="translate(18.7875 175.472548)scale(0.1 -0.1)">
       <use xlink:href="#DejaVuSans-39"/>
       <use x="63.623047" xlink:href="#DejaVuSans-35"/>
       <use x="127.246094" xlink:href="#DejaVuSans-30"/>
       <use x="190.869141" xlink:href="#DejaVuSans-30"/>
       <use x="254.492188" xlink:href="#DejaVuSans-30"/>
      </g>
     </g>
    </g>
    <g id="ytick_5">
     <g id="line2d_13">
      <g>
       <use style="stroke:#000000;stroke-width:0.8;" x="57.6" xlink:href="#mfc24911ce9" y="140.293629"/>
      </g>
     </g>
     <g id="text_14">
      <!-- 100000 -->
      <g transform="translate(12.425 144.092848)scale(0.1 -0.1)">
       <use xlink:href="#DejaVuSans-31"/>
       <use x="63.623047" xlink:href="#DejaVuSans-30"/>
       <use x="127.246094" xlink:href="#DejaVuSans-30"/>
       <use x="190.869141" xlink:href="#DejaVuSans-30"/>
       <use x="254.492188" xlink:href="#DejaVuSans-30"/>
       <use x="318.115234" xlink:href="#DejaVuSans-30"/>
      </g>
     </g>
    </g>
    <g id="ytick_6">
     <g id="line2d_14">
      <g>
       <use style="stroke:#000000;stroke-width:0.8;" x="57.6" xlink:href="#mfc24911ce9" y="108.91393"/>
      </g>
     </g>
     <g id="text_15">
      <!-- 105000 -->
      <g transform="translate(12.425 112.713149)scale(0.1 -0.1)">
       <use xlink:href="#DejaVuSans-31"/>
       <use x="63.623047" xlink:href="#DejaVuSans-30"/>
       <use x="127.246094" xlink:href="#DejaVuSans-35"/>
       <use x="190.869141" xlink:href="#DejaVuSans-30"/>
       <use x="254.492188" xlink:href="#DejaVuSans-30"/>
       <use x="318.115234" xlink:href="#DejaVuSans-30"/>
      </g>
     </g>
    </g>
    <g id="ytick_7">
     <g id="line2d_15">
      <g>
       <use style="stroke:#000000;stroke-width:0.8;" x="57.6" xlink:href="#mfc24911ce9" y="77.53423"/>
      </g>
     </g>
     <g id="text_16">
      <!-- 110000 -->
      <g transform="translate(12.425 81.333449)scale(0.1 -0.1)">
       <use xlink:href="#DejaVuSans-31"/>
       <use x="63.623047" xlink:href="#DejaVuSans-31"/>
       <use x="127.246094" xlink:href="#DejaVuSans-30"/>
       <use x="190.869141" xlink:href="#DejaVuSans-30"/>
       <use x="254.492188" xlink:href="#DejaVuSans-30"/>
       <use x="318.115234" xlink:href="#DejaVuSans-30"/>
      </g>
     </g>
    </g>
    <g id="ytick_8">
     <g id="line2d_16">
      <g>
       <use style="stroke:#000000;stroke-width:0.8;" x="57.6" xlink:href="#mfc24911ce9" y="46.15453"/>
      </g>
     </g>
     <g id="text_17">
      <!-- 115000 -->
      <g transform="translate(12.425 49.953749)scale(0.1 -0.1)">
       <use xlink:href="#DejaVuSans-31"/>
       <use x="63.623047" xlink:href="#DejaVuSans-31"/>
       <use x="127.246094" xlink:href="#DejaVuSans-35"/>
       <use x="190.869141" xlink:href="#DejaVuSans-30"/>
       <use x="254.492188" xlink:href="#DejaVuSans-30"/>
       <use x="318.115234" xlink:href="#DejaVuSans-30"/>
      </g>
     </g>
    </g>
   </g>
   <g id="line2d_17">
    <path clip-path="url(#p0ca5811ff9)" d="M 73.832727 140.293629 
L 75.22014 140.355532 
L 76.607552 138.150888 
L 77.994965 141.361254 
L 79.382378 135.290953 
L 83.544615 131.760722 
L 84.932028 130.738264 
L 86.319441 132.251827 
L 87.706853 131.623505 
L 89.094266 131.853672 
L 94.643916 131.528229 
L 96.031329 133.94396 
L 97.418741 136.085792 
L 98.806154 141.173 
L 102.968392 136.135354 
L 104.355804 145.357841 
L 105.743217 141.193529 
L 107.130629 142.454297 
L 108.518042 149.21383 
L 112.68028 160.053433 
L 114.067692 161.08187 
L 115.455105 156.702267 
L 116.842517 146.485154 
L 118.22993 141.552365 
L 122.392168 136.659366 
L 123.77958 150.082597 
L 125.166993 148.103396 
L 126.554406 153.077451 
L 127.941818 143.250612 
L 132.104056 155.375301 
L 133.491469 145.784881 
L 134.878881 143.174702 
L 136.266294 142.940943 
L 137.653706 142.502108 
L 141.815944 141.788629 
L 143.203357 140.854884 
L 144.590769 148.867205 
L 145.978182 136.568648 
L 147.365594 135.973101 
L 151.527832 130.85061 
L 152.915245 124.455982 
L 154.302657 122.176097 
L 155.69007 132.993614 
L 157.077483 140.911163 
L 161.23972 140.604964 
L 162.627133 146.202547 
L 164.014545 147.286743 
L 165.401958 139.825072 
L 166.789371 147.394723 
L 170.951608 134.547782 
L 172.339021 134.919291 
L 173.726434 128.818773 
L 175.113846 136.658275 
L 176.501259 132.30248 
L 180.663497 131.873301 
L 182.050909 139.681856 
L 183.438322 139.660763 
L 184.825734 144.620048 
L 186.213147 139.279066 
L 190.375385 137.378371 
L 191.762797 137.556549 
L 193.15021 140.851536 
L 194.537622 142.949968 
L 195.925035 143.124642 
L 200.087273 139.072361 
L 201.474685 134.150704 
L 202.862098 134.191646 
L 205.636923 134.560573 
L 209.799161 139.967901 
L 211.186573 152.10393 
L 212.573986 160.763579 
L 213.961399 153.231321 
L 215.348811 156.815087 
L 219.511049 145.704459 
L 220.898462 134.195345 
L 222.285874 129.693017 
L 223.673287 129.350237 
L 225.060699 126.907582 
L 229.222937 133.462199 
L 230.61035 129.857749 
L 231.997762 126.686252 
L 233.385175 123.896163 
L 234.772587 131.358852 
L 238.934825 140.316731 
L 240.322238 124.992651 
L 241.70965 122.64031 
L 243.097063 117.023186 
L 248.646713 108.383253 
L 250.034126 108.923242 
L 251.421538 108.73933 
L 252.808951 109.971574 
L 254.196364 112.946598 
L 258.358601 102.970616 
L 259.746014 94.339852 
L 261.133427 111.854801 
L 262.520839 106.039536 
L 263.908252 103.826967 
L 268.07049 103.08499 
L 269.457902 97.310553 
L 270.845315 96.35116 
L 272.232727 104.604364 
L 273.62014 102.135019 
L 279.16979 116.916024 
L 280.557203 120.214591 
L 281.944615 127.388794 
L 283.332028 141.905049 
L 287.494266 141.305643 
L 288.881678 148.885367 
L 290.269091 148.483338 
L 291.656503 152.761271 
L 293.043916 136.621798 
L 297.206154 123.055398 
L 298.593566 117.093998 
L 299.980979 107.383307 
L 301.368392 149.43851 
L 302.755804 149.127575 
L 306.918042 159.813476 
L 308.305455 161.046781 
L 309.692867 147.840834 
L 311.08028 158.81856 
L 312.467692 172.266757 
L 316.62993 176.960984 
L 318.017343 169.316643 
L 319.404755 172.263782 
L 320.792168 183.406344 
L 322.17958 187.179565 
L 327.729231 193.240938 
L 329.116643 201.044926 
L 330.504056 188.858911 
L 331.891469 178.270412 
L 336.053706 179.941002 
L 337.441119 189.092775 
L 338.828531 177.273595 
L 340.215944 179.113316 
L 341.603357 183.626034 
L 345.765594 207.892396 
L 347.153007 208.036199 
L 348.54042 184.607398 
L 349.927832 192.10122 
L 351.315245 202.446034 
L 355.477483 204.389007 
L 356.864895 193.29928 
L 358.252308 174.85921 
L 359.63972 167.695687 
L 361.027133 157.461104 
L 365.189371 159.717221 
L 366.576783 148.540914 
L 367.964196 154.965928 
L 369.351608 144.031331 
L 370.739021 138.177349 
L 374.901259 135.793662 
L 376.288671 130.154312 
L 377.676084 132.305957 
L 379.063497 146.581267 
L 384.613147 136.216844 
L 386.000559 143.41997 
L 387.387972 153.114924 
L 388.775385 154.441028 
L 390.162797 155.577719 
L 395.712448 170.721699 
L 397.09986 167.84768 
L 398.487273 187.788987 
L 398.487273 187.788987 
" style="fill:none;stroke:#0000ff;stroke-linecap:square;stroke-opacity:0.9;stroke-width:2;"/>
   </g>
   <g id="line2d_18">
    <path clip-path="url(#p0ca5811ff9)" d="M 73.832727 140.293629 
L 75.22014 136.911843 
L 76.607552 134.068751 
L 77.994965 138.050821 
L 79.382378 130.33626 
L 84.932028 127.625446 
L 86.319441 127.47797 
L 87.706853 128.309697 
L 89.094266 127.912311 
L 94.643916 126.968113 
L 96.031329 129.475432 
L 97.418741 130.959479 
L 98.806154 137.701652 
L 102.968392 132.969904 
L 104.355804 139.071675 
L 105.743217 135.941316 
L 107.130629 138.020041 
L 108.518042 145.571073 
L 112.68028 155.897234 
L 114.067692 155.981208 
L 115.455105 152.562246 
L 116.842517 144.273537 
L 118.22993 139.570754 
L 122.392168 135.34369 
L 123.77958 148.283437 
L 125.166993 147.035314 
L 126.554406 153.49244 
L 127.941818 144.536014 
L 132.104056 151.460756 
L 133.491469 142.32963 
L 136.266294 138.699613 
L 137.653706 136.026037 
L 141.815944 139.256753 
L 143.203357 144.692485 
L 144.590769 146.164962 
L 145.978182 131.324008 
L 147.365594 126.553479 
L 151.527832 125.296045 
L 152.915245 119.486494 
L 154.302657 116.040329 
L 155.69007 124.340736 
L 157.077483 127.537483 
L 161.23972 129.878629 
L 162.627133 132.999087 
L 164.014545 136.871158 
L 165.401958 127.79453 
L 166.789371 126.407452 
L 170.951608 126.164221 
L 172.339021 123.657829 
L 173.726434 118.794004 
L 175.113846 120.502065 
L 176.501259 120.348751 
L 180.663497 119.279088 
L 182.050909 124.52455 
L 183.438322 127.982879 
L 184.825734 127.395536 
L 186.213147 123.789414 
L 190.375385 122.007243 
L 191.762797 123.696981 
L 193.15021 124.090484 
L 194.537622 124.342467 
L 195.925035 126.279295 
L 200.087273 123.436796 
L 201.474685 117.352227 
L 202.862098 117.159203 
L 205.636923 133.612953 
L 209.799161 126.393604 
L 211.186573 140.063985 
L 212.573986 147.46577 
L 213.961399 138.979431 
L 215.348811 143.932369 
L 219.511049 134.840494 
L 220.898462 123.365068 
L 222.285874 119.720546 
L 223.673287 120.507457 
L 225.060699 116.397332 
L 229.222937 122.650224 
L 230.61035 122.917347 
L 231.997762 117.382661 
L 233.385175 116.987791 
L 234.772587 125.751991 
L 238.934825 132.777539 
L 240.322238 120.951434 
L 241.70965 117.335622 
L 243.097063 111.597453 
L 248.646713 103.096631 
L 250.034126 103.92095 
L 251.421538 102.824471 
L 252.808951 104.276849 
L 254.196364 106.76248 
L 258.358601 99.461282 
L 259.746014 92.887569 
L 261.133427 107.329462 
L 262.520839 104.568772 
L 263.908252 101.262754 
L 268.07049 102.04733 
L 269.457902 97.950124 
L 270.845315 98.178045 
L 272.232727 102.764747 
L 273.62014 103.289861 
L 279.16979 117.773819 
L 281.944615 130.490726 
L 283.332028 143.520777 
L 287.494266 144.434176 
L 288.881678 142.805204 
L 290.269091 143.748611 
L 291.656503 149.525181 
L 293.043916 134.18059 
L 297.206154 124.473309 
L 298.593566 116.781222 
L 299.980979 106.457064 
L 301.368392 135.546885 
L 302.755804 130.672133 
L 306.918042 134.820705 
L 308.305455 130.645654 
L 309.692867 124.705397 
L 311.08028 135.34594 
L 312.467692 148.779518 
L 316.62993 154.149174 
L 318.017343 146.843863 
L 319.404755 148.157417 
L 320.792168 160.569993 
L 322.17958 163.399128 
L 327.729231 168.684404 
L 329.116643 176.824425 
L 330.504056 173.873132 
L 331.891469 159.661836 
L 336.053706 165.468284 
L 337.441119 177.720212 
L 338.828531 163.663361 
L 340.215944 165.171786 
L 341.603357 173.625396 
L 345.765594 194.703923 
L 347.153007 197.580131 
L 348.54042 176.629117 
L 351.315245 190.79875 
L 355.477483 191.135753 
L 356.864895 181.371802 
L 358.252308 167.744148 
L 359.63972 162.000139 
L 361.027133 155.621152 
L 365.189371 155.42502 
L 366.576783 145.192252 
L 367.964196 151.810945 
L 369.351608 142.594945 
L 370.739021 135.315461 
L 374.901259 134.501982 
L 376.288671 131.418 
L 377.676084 132.065045 
L 379.063497 144.252135 
L 380.450909 141.844819 
L 384.613147 137.330607 
L 386.000559 143.45329 
L 387.387972 151.216333 
L 388.775385 151.697085 
L 390.162797 151.272694 
L 394.325035 160.408858 
L 395.712448 163.921273 
L 397.09986 161.438327 
L 398.487273 170.449781 
L 398.487273 170.449781 
" style="fill:none;stroke:#ff0000;stroke-linecap:square;stroke-opacity:0.9;stroke-width:2;"/>
   </g>
   <g id="line2d_19">
    <path clip-path="url(#p0ca5811ff9)" d="M 73.832727 140.293629 
L 75.22014 136.741779 
L 76.607552 134.259648 
L 77.994965 137.926275 
L 79.382378 131.627646 
L 83.544615 127.684776 
L 84.932028 126.737377 
L 86.319441 128.272877 
L 87.706853 127.346592 
L 89.094266 127.773874 
L 94.643916 127.586552 
L 96.031329 129.878173 
L 97.418741 131.876811 
L 98.806154 137.137093 
L 102.968392 132.167611 
L 104.355804 140.75586 
L 105.743217 137.335166 
L 107.130629 138.260892 
L 108.518042 144.140635 
L 112.68028 155.432724 
L 114.067692 156.591014 
L 115.455105 152.190885 
L 116.842517 142.203346 
L 118.22993 136.686323 
L 122.392168 131.461866 
L 123.77958 144.743581 
L 125.166993 142.645103 
L 126.554406 147.252307 
L 127.941818 137.540444 
L 132.104056 149.551551 
L 133.491469 140.303699 
L 134.878881 137.48153 
L 136.266294 135.766327 
L 137.653706 133.555552 
L 141.815944 137.124617 
L 143.203357 141.640361 
L 144.590769 142.850995 
L 145.978182 130.772179 
L 147.365594 129.919781 
L 151.527832 124.758911 
L 152.915245 117.785536 
L 154.302657 115.277653 
L 155.69007 125.666702 
L 157.077483 134.417015 
L 161.23972 133.858628 
L 162.627133 139.372595 
L 164.014545 140.889958 
L 165.401958 132.720786 
L 166.789371 131.855197 
L 172.339021 127.263214 
L 173.726434 121.855832 
L 175.113846 121.55718 
L 176.501259 117.219751 
L 180.663497 116.27271 
L 182.050909 124.437142 
L 183.438322 129.616552 
L 184.825734 129.502639 
L 186.213147 124.583203 
L 190.375385 122.522451 
L 191.762797 125.926068 
L 193.15021 126.324696 
L 194.537622 127.857571 
L 195.925035 128.006316 
L 200.087273 124.172844 
L 201.474685 118.765324 
L 202.862098 119.241253 
L 205.636923 133.766136 
L 209.799161 125.454815 
L 211.186573 137.951578 
L 212.573986 146.540803 
L 213.961399 139.385456 
L 215.348811 143.116318 
L 219.511049 131.599757 
L 220.898462 120.105639 
L 222.285874 115.037591 
L 223.673287 114.409686 
L 225.060699 112.358599 
L 229.222937 118.351985 
L 230.61035 115.727589 
L 231.997762 111.648372 
L 233.385175 109.582101 
L 234.772587 116.934185 
L 238.934825 125.925238 
L 240.322238 110.883343 
L 241.70965 107.758877 
L 243.097063 101.647641 
L 248.646713 93.144277 
L 250.034126 93.676169 
L 251.421538 93.403045 
L 252.808951 94.812305 
L 254.196364 97.923562 
L 258.358601 87.302247 
L 259.746014 79.101935 
L 261.133427 96.878605 
L 262.520839 90.073811 
L 263.908252 87.64702 
L 268.07049 85.63967 
L 269.457902 79.706652 
L 270.845315 78.542339 
L 272.232727 86.45599 
L 273.62014 84.610745 
L 280.557203 102.573859 
L 281.944615 110.400447 
L 283.332028 125.421514 
L 287.494266 123.932127 
L 288.881678 132.21118 
L 290.269091 131.70142 
L 291.656503 135.889798 
L 293.043916 119.810145 
L 297.206154 105.915133 
L 298.593566 99.625255 
L 299.980979 88.093037 
L 301.368392 133.224216 
L 302.755804 132.928838 
L 306.918042 144.020176 
L 308.305455 145.347986 
L 309.692867 131.02852 
L 311.08028 142.640619 
L 312.467692 156.532242 
L 316.62993 160.944055 
L 318.017343 153.141404 
L 319.404755 156.670319 
L 320.792168 168.124847 
L 322.17958 171.499218 
L 327.729231 177.469079 
L 329.116643 185.854439 
L 330.504056 172.23288 
L 331.891469 161.3843 
L 336.053706 162.901989 
L 337.441119 172.947368 
L 338.828531 160.367515 
L 340.215944 163.116242 
L 341.603357 172.070076 
L 345.765594 197.684531 
L 347.153007 194.839192 
L 348.54042 169.457543 
L 351.315245 187.866568 
L 355.477483 188.651483 
L 356.864895 177.037905 
L 358.252308 157.689813 
L 359.63972 150.424931 
L 361.027133 141.215468 
L 365.189371 143.316515 
L 366.576783 130.113936 
L 367.964196 137.745439 
L 369.351608 127.996847 
L 370.739021 120.617767 
L 374.901259 120.275356 
L 376.288671 115.402994 
L 377.676084 118.435172 
L 379.063497 134.937167 
L 380.450909 133.527722 
L 384.613147 127.751778 
L 386.000559 135.643387 
L 387.387972 145.429698 
L 388.775385 147.812175 
L 390.162797 147.874887 
L 395.712448 161.015256 
L 397.09986 158.44292 
L 398.487273 169.948011 
L 398.487273 169.948011 
" style="fill:none;stroke:#ff8040;stroke-linecap:square;stroke-opacity:0.9;stroke-width:2;"/>
   </g>
   <g id="line2d_20">
    <path clip-path="url(#p0ca5811ff9)" d="M 73.832727 140.921223 
L 76.607552 138.222041 
L 77.994965 142.763998 
L 79.382378 136.117281 
L 83.544615 137.20178 
L 84.932028 136.967299 
L 86.319441 137.133773 
L 87.706853 138.596013 
L 89.094266 137.562708 
L 94.643916 139.478471 
L 96.031329 141.789277 
L 97.418741 143.483203 
L 98.806154 151.295714 
L 102.968392 146.448201 
L 104.355804 150.923432 
L 105.743217 149.381827 
L 107.130629 150.657408 
L 108.518042 157.430935 
L 112.68028 167.794862 
L 114.067692 168.873217 
L 115.455105 166.969918 
L 116.842517 158.723907 
L 118.22993 155.741841 
L 122.392168 153.806812 
L 123.77958 167.358421 
L 125.166993 166.46941 
L 126.554406 172.227784 
L 127.941818 162.381365 
L 132.104056 172.850469 
L 133.491469 165.632962 
L 134.878881 164.518195 
L 136.266294 161.948046 
L 137.653706 159.085242 
L 141.815944 163.482699 
L 143.203357 168.162157 
L 144.590769 170.052962 
L 145.978182 155.563976 
L 147.365594 151.07944 
L 151.527832 148.217709 
L 152.915245 144.016195 
L 154.302657 142.213655 
L 155.69007 158.130637 
L 157.077483 162.47568 
L 161.23972 163.538932 
L 162.627133 165.069738 
L 164.014545 163.550729 
L 165.401958 154.672802 
L 166.789371 158.521882 
L 170.951608 159.085314 
L 172.339021 157.255741 
L 173.726434 152.999636 
L 175.113846 153.236147 
L 176.501259 153.933877 
L 180.663497 152.927506 
L 182.050909 158.243486 
L 183.438322 161.503177 
L 184.825734 160.912007 
L 186.213147 158.705985 
L 190.375385 157.051757 
L 191.762797 159.087956 
L 193.15021 160.84816 
L 194.537622 162.07805 
L 195.925035 167.418409 
L 200.087273 169.656174 
L 201.474685 164.479765 
L 202.862098 163.416089 
L 205.636923 176.655136 
L 209.799161 167.987076 
L 211.186573 181.756202 
L 212.573986 189.629754 
L 213.961399 183.447096 
L 215.348811 190.833059 
L 219.511049 181.010693 
L 220.898462 171.500116 
L 222.285874 169.104606 
L 223.673287 169.026462 
L 225.060699 163.814273 
L 229.222937 168.076742 
L 230.61035 166.980411 
L 231.997762 161.034419 
L 233.385175 163.937415 
L 234.772587 173.142811 
L 238.934825 179.559089 
L 240.322238 167.491543 
L 241.70965 163.800364 
L 243.097063 156.211753 
L 248.646713 146.562393 
L 250.034126 146.988307 
L 251.421538 145.865428 
L 252.808951 146.93653 
L 254.196364 150.532312 
L 258.358601 148.721319 
L 259.746014 143.257001 
L 261.133427 156.275172 
L 263.908252 147.267534 
L 268.07049 147.463452 
L 269.457902 145.629648 
L 270.845315 145.821728 
L 272.232727 152.15095 
L 273.62014 150.730478 
L 279.16979 163.29159 
L 280.557203 172.881878 
L 281.944615 180.128554 
L 283.332028 189.62521 
L 287.494266 190.52984 
L 288.881678 194.697223 
L 290.269091 193.803743 
L 291.656503 196.526553 
L 293.043916 181.728878 
L 297.206154 170.930126 
L 298.593566 162.195869 
L 299.980979 154.61148 
L 301.368392 194.951823 
L 302.755804 192.653044 
L 306.918042 198.756672 
L 308.305455 197.092658 
L 309.692867 194.035012 
L 311.08028 202.101176 
L 312.467692 214.807665 
L 316.62993 215.719025 
L 318.017343 209.181153 
L 319.404755 212.816615 
L 320.792168 225.268128 
L 322.17958 226.543782 
L 327.729231 232.227201 
L 329.116643 239.992668 
L 330.504056 234.907815 
L 331.891469 222.677107 
L 336.053706 226.698713 
L 337.441119 237.260668 
L 338.828531 227.147897 
L 340.215944 228.446407 
L 341.603357 240.724677 
L 345.765594 262.153318 
L 347.153007 265.797818 
L 348.54042 244.139125 
L 349.927832 252.566351 
L 351.315245 257.201993 
L 355.477483 258.76809 
L 356.864895 249.162896 
L 358.252308 235.108549 
L 359.63972 228.206371 
L 361.027133 223.723248 
L 365.189371 225.127549 
L 366.576783 213.34316 
L 367.964196 218.86845 
L 369.351608 210.767282 
L 370.739021 205.74431 
L 374.901259 205.46985 
L 376.288671 203.830632 
L 377.676084 204.551913 
L 379.063497 216.965888 
L 380.450909 214.240253 
L 384.613147 208.952883 
L 386.000559 214.986007 
L 387.387972 222.422922 
L 388.775385 223.217288 
L 390.162797 222.23894 
L 394.325035 228.562703 
L 395.712448 231.475455 
L 397.09986 231.616083 
L 398.487273 241.901991 
L 398.487273 241.901991 
" style="fill:none;stroke:#0d0d0d;stroke-linecap:square;stroke-opacity:0.25;stroke-width:2;"/>
   </g>
   <g id="line2d_21">
    <path clip-path="url(#p0ca5811ff9)" d="M 73.832727 139.666035 
L 75.22014 134.474592 
L 76.607552 130.71552 
L 77.994965 132.792009 
L 79.382378 123.939309 
L 83.544615 114.640773 
L 84.932028 113.056816 
L 86.319441 113.734954 
L 87.706853 113.92269 
L 89.094266 113.609116 
L 94.643916 110.85687 
L 96.031329 114.053838 
L 97.418741 116.141083 
L 98.806154 121.551126 
L 102.968392 116.59044 
L 104.355804 123.748318 
L 105.743217 118.893249 
L 107.130629 121.460604 
L 108.518042 130.118538 
L 112.68028 140.49069 
L 114.067692 139.475734 
L 115.455105 135.213025 
L 116.842517 125.663056 
L 118.22993 120.716629 
L 122.392168 115.611705 
L 123.77958 128.318472 
L 125.166993 125.259812 
L 126.554406 130.76205 
L 127.941818 120.929661 
L 132.104056 127.4115 
L 133.491469 117.344125 
L 134.878881 115.382548 
L 136.266294 112.471207 
L 137.653706 109.891182 
L 141.815944 112.727431 
L 143.203357 117.952905 
L 144.590769 119.673924 
L 145.978182 104.037857 
L 147.365594 98.268458 
L 151.527832 92.707112 
L 152.915245 87.799482 
L 154.302657 87.83872 
L 155.69007 99.026707 
L 157.077483 102.168235 
L 161.23972 103.113917 
L 162.627133 105.394704 
L 164.014545 110.395771 
L 165.401958 100.383159 
L 166.789371 99.900372 
L 170.951608 95.615586 
L 172.339021 93.394588 
L 173.726434 86.167859 
L 175.113846 89.012101 
L 176.501259 86.738623 
L 180.663497 85.282775 
L 182.050909 91.170926 
L 183.438322 94.356806 
L 184.825734 94.301931 
L 186.213147 89.936596 
L 190.375385 87.453359 
L 191.762797 88.546247 
L 193.15021 90.035563 
L 194.537622 93.418258 
L 195.925035 95.846498 
L 200.087273 93.204284 
L 201.474685 87.775191 
L 202.862098 86.456292 
L 205.636923 104.145965 
L 209.799161 95.401323 
L 211.186573 110.557961 
L 212.573986 119.637855 
L 213.961399 110.793694 
L 215.348811 115.154015 
L 219.511049 101.155833 
L 220.898462 87.805879 
L 222.285874 83.532057 
L 223.673287 84.278284 
L 225.060699 79.954914 
L 229.222937 86.903842 
L 230.61035 86.597335 
L 231.997762 79.879946 
L 233.385175 80.475305 
L 234.772587 86.946692 
L 238.934825 95.765015 
L 240.322238 83.126378 
L 241.70965 80.150227 
L 243.097063 73.673158 
L 248.646713 66.27165 
L 250.034126 65.340197 
L 251.421538 64.046045 
L 252.808951 66.238897 
L 254.196364 69.855844 
L 258.358601 59.586056 
L 259.746014 52.154182 
L 261.133427 70.141017 
L 263.908252 60.602092 
L 268.07049 61.112674 
L 269.457902 56.340191 
L 270.845315 56.106347 
L 272.232727 57.487375 
L 273.62014 56.601621 
L 279.16979 72.086737 
L 280.557203 75.299053 
L 281.944615 82.988814 
L 283.332028 98.07242 
L 287.494266 96.586692 
L 288.881678 100.550194 
L 290.269091 97.897092 
L 291.656503 103.917919 
L 293.043916 86.037061 
L 297.206154 72.537916 
L 298.593566 64.639236 
L 299.980979 54.003533 
L 301.368392 78.070316 
L 302.755804 76.632178 
L 306.918042 82.883593 
L 308.305455 78.939363 
L 309.692867 69.206901 
L 311.08028 80.008499 
L 312.467692 96.469093 
L 316.62993 100.080099 
L 318.017343 90.961422 
L 319.404755 91.729529 
L 320.792168 109.337297 
L 322.17958 113.970362 
L 327.729231 120.500664 
L 329.116643 127.104126 
L 330.504056 122.498262 
L 331.891469 110.325596 
L 336.053706 115.269101 
L 337.441119 127.83091 
L 338.828531 114.718896 
L 340.215944 115.719326 
L 341.603357 117.884003 
L 345.765594 142.197112 
L 347.153007 142.429889 
L 348.54042 119.447764 
L 349.927832 128.276547 
L 351.315245 135.43437 
L 355.477483 133.903074 
L 356.864895 122.731275 
L 358.252308 105.064969 
L 359.63972 98.418065 
L 361.027133 95.138802 
L 365.189371 92.572554 
L 366.576783 85.730539 
L 367.964196 92.553063 
L 369.351608 78.099428 
L 370.739021 69.354361 
L 374.901259 66.924086 
L 376.288671 63.833666 
L 377.676084 63.82937 
L 379.063497 77.950713 
L 380.450909 74.98468 
L 384.613147 70.136524 
L 386.000559 77.648209 
L 387.387972 83.033005 
L 388.775385 85.392048 
L 390.162797 83.097096 
L 394.325035 95.531437 
L 395.712448 99.038504 
L 397.09986 96.795928 
L 398.487273 109.694321 
L 398.487273 109.694321 
" style="fill:none;stroke:#0d0d0d;stroke-linecap:square;stroke-opacity:0.25;stroke-width:2;"/>
   </g>
   <g id="patch_3">
    <path d="M 57.6 276.48 
L 57.6 41.472 
" style="fill:none;stroke:#000000;stroke-linecap:square;stroke-linejoin:miter;stroke-width:0.8;"/>
   </g>
   <g id="patch_4">
    <path d="M 414.72 276.48 
L 414.72 41.472 
" style="fill:none;stroke:#000000;stroke-linecap:square;stroke-linejoin:miter;stroke-width:0.8;"/>
   </g>
   <g id="patch_5">
    <path d="M 57.6 276.48 
L 414.72 276.48 
" style="fill:none;stroke:#000000;stroke-linecap:square;stroke-linejoin:miter;stroke-width:0.8;"/>
   </g>
   <g id="patch_6">
    <path d="M 57.6 41.472 
L 414.72 41.472 
" style="fill:none;stroke:#000000;stroke-linecap:square;stroke-linejoin:miter;stroke-width:0.8;"/>
   </g>
   <g id="text_18">
    <!-- TESTFUNDS1550 -->
    <g transform="translate(185.200312 22.034625)scale(0.12 -0.12)">
     <defs>
      <path d="M -19 4666 
L 3928 4666 
L 3928 4134 
L 2272 4134 
L 2272 0 
L 1638 0 
L 1638 4134 
L -19 4134 
L -19 4666 
z
" id="DejaVuSans-54" transform="scale(0.015625)"/>
      <path d="M 628 4666 
L 3578 4666 
L 3578 4134 
L 1259 4134 
L 1259 2753 
L 3481 2753 
L 3481 2222 
L 1259 2222 
L 1259 531 
L 3634 531 
L 3634 0 
L 628 0 
L 628 4666 
z
" id="DejaVuSans-45" transform="scale(0.015625)"/>
      <path d="M 3425 4513 
L 3425 3897 
Q 3066 4069 2747 4153 
Q 2428 4238 2131 4238 
Q 1616 4238 1336 4038 
Q 1056 3838 1056 3469 
Q 1056 3159 1242 3001 
Q 1428 2844 1947 2747 
L 2328 2669 
Q 3034 2534 3370 2195 
Q 3706 1856 3706 1288 
Q 3706 609 3251 259 
Q 2797 -91 1919 -91 
Q 1588 -91 1214 -16 
Q 841 59 441 206 
L 441 856 
Q 825 641 1194 531 
Q 1563 422 1919 422 
Q 2459 422 2753 634 
Q 3047 847 3047 1241 
Q 3047 1584 2836 1778 
Q 2625 1972 2144 2069 
L 1759 2144 
Q 1053 2284 737 2584 
Q 422 2884 422 3419 
Q 422 4038 858 4394 
Q 1294 4750 2059 4750 
Q 2388 4750 2728 4690 
Q 3069 4631 3425 4513 
z
" id="DejaVuSans-53" transform="scale(0.015625)"/>
      <path d="M 628 4666 
L 3309 4666 
L 3309 4134 
L 1259 4134 
L 1259 2759 
L 3109 2759 
L 3109 2228 
L 1259 2228 
L 1259 0 
L 628 0 
L 628 4666 
z
" id="DejaVuSans-46" transform="scale(0.015625)"/>
      <path d="M 556 4666 
L 1191 4666 
L 1191 1831 
Q 1191 1081 1462 751 
Q 1734 422 2344 422 
Q 2950 422 3222 751 
Q 3494 1081 3494 1831 
L 3494 4666 
L 4128 4666 
L 4128 1753 
Q 4128 841 3676 375 
Q 3225 -91 2344 -91 
Q 1459 -91 1007 375 
Q 556 841 556 1753 
L 556 4666 
z
" id="DejaVuSans-55" transform="scale(0.015625)"/>
      <path d="M 628 4666 
L 1478 4666 
L 3547 763 
L 3547 4666 
L 4159 4666 
L 4159 0 
L 3309 0 
L 1241 3903 
L 1241 0 
L 628 0 
L 628 4666 
z
" id="DejaVuSans-4e" transform="scale(0.015625)"/>
      <path d="M 1259 4147 
L 1259 519 
L 2022 519 
Q 2988 519 3436 956 
Q 3884 1394 3884 2338 
Q 3884 3275 3436 3711 
Q 2988 4147 2022 4147 
L 1259 4147 
z
M 628 4666 
L 1925 4666 
Q 3281 4666 3915 4102 
Q 4550 3538 4550 2338 
Q 4550 1131 3912 565 
Q 3275 0 1925 0 
L 628 0 
L 628 4666 
z
" id="DejaVuSans-44" transform="scale(0.015625)"/>
     </defs>
     <use xlink:href="#DejaVuSans-54"/>
     <use x="61.083984" xlink:href="#DejaVuSans-45"/>
     <use x="124.267578" xlink:href="#DejaVuSans-53"/>
     <use x="187.744141" xlink:href="#DejaVuSans-54"/>
     <use x="248.828125" xlink:href="#DejaVuSans-46"/>
     <use x="306.347656" xlink:href="#DejaVuSans-55"/>
     <use x="379.541016" xlink:href="#DejaVuSans-4e"/>
     <use x="454.345703" xlink:href="#DejaVuSans-44"/>
     <use x="531.347656" xlink:href="#DejaVuSans-53"/>
     <use x="594.824219" xlink:href="#DejaVuSans-31"/>
     <use x="658.447266" xlink:href="#DejaVuSans-35"/>
     <use x="722.070312" xlink:href="#DejaVuSans-35"/>
     <use x="785.693359" xlink:href="#DejaVuSans-30"/>
    </g>
    <!-- daily_report -->
    <g transform="translate(200.466563 35.472)scale(0.12 -0.12)">
     <defs>
      <path d="M 603 3500 
L 1178 3500 
L 1178 0 
L 603 0 
L 603 3500 
z
M 603 4863 
L 1178 4863 
L 1178 4134 
L 603 4134 
L 603 4863 
z
" id="DejaVuSans-69" transform="scale(0.015625)"/>
      <path d="M 603 4863 
L 1178 4863 
L 1178 0 
L 603 0 
L 603 4863 
z
" id="DejaVuSans-6c" transform="scale(0.015625)"/>
      <path d="M 2059 -325 
Q 1816 -950 1584 -1140 
Q 1353 -1331 966 -1331 
L 506 -1331 
L 506 -850 
L 844 -850 
Q 1081 -850 1212 -737 
Q 1344 -625 1503 -206 
L 1606 56 
L 191 3500 
L 800 3500 
L 1894 763 
L 2988 3500 
L 3597 3500 
L 2059 -325 
z
" id="DejaVuSans-79" transform="scale(0.015625)"/>
      <path d="M 3263 -1063 
L 3263 -1509 
L -63 -1509 
L -63 -1063 
L 3263 -1063 
z
" id="DejaVuSans-5f" transform="scale(0.015625)"/>
      <path d="M 2631 2963 
Q 2534 3019 2420 3045 
Q 2306 3072 2169 3072 
Q 1681 3072 1420 2755 
Q 1159 2438 1159 1844 
L 1159 0 
L 581 0 
L 581 3500 
L 1159 3500 
L 1159 2956 
Q 1341 3275 1631 3429 
Q 1922 3584 2338 3584 
Q 2397 3584 2469 3576 
Q 2541 3569 2628 3553 
L 2631 2963 
z
" id="DejaVuSans-72" transform="scale(0.015625)"/>
      <path d="M 1159 525 
L 1159 -1331 
L 581 -1331 
L 581 3500 
L 1159 3500 
L 1159 2969 
Q 1341 3281 1617 3432 
Q 1894 3584 2278 3584 
Q 2916 3584 3314 3078 
Q 3713 2572 3713 1747 
Q 3713 922 3314 415 
Q 2916 -91 2278 -91 
Q 1894 -91 1617 61 
Q 1341 213 1159 525 
z
M 3116 1747 
Q 3116 2381 2855 2742 
Q 2594 3103 2138 3103 
Q 1681 3103 1420 2742 
Q 1159 2381 1159 1747 
Q 1159 1113 1420 752 
Q 1681 391 2138 391 
Q 2594 391 2855 752 
Q 3116 1113 3116 1747 
z
" id="DejaVuSans-70" transform="scale(0.015625)"/>
      <path d="M 1959 3097 
Q 1497 3097 1228 2736 
Q 959 2375 959 1747 
Q 959 1119 1226 758 
Q 1494 397 1959 397 
Q 2419 397 2687 759 
Q 2956 1122 2956 1747 
Q 2956 2369 2687 2733 
Q 2419 3097 1959 3097 
z
M 1959 3584 
Q 2709 3584 3137 3096 
Q 3566 2609 3566 1747 
Q 3566 888 3137 398 
Q 2709 -91 1959 -91 
Q 1206 -91 779 398 
Q 353 888 353 1747 
Q 353 2609 779 3096 
Q 1206 3584 1959 3584 
z
" id="DejaVuSans-6f" transform="scale(0.015625)"/>
     </defs>
     <use xlink:href="#DejaVuSans-64"/>
     <use x="63.476562" xlink:href="#DejaVuSans-61"/>
     <use x="124.755859" xlink:href="#DejaVuSans-69"/>
     <use x="152.539062" xlink:href="#DejaVuSans-6c"/>
     <use x="180.322266" xlink:href="#DejaVuSans-79"/>
     <use x="239.501953" xlink:href="#DejaVuSans-5f"/>
     <use x="289.501953" xlink:href="#DejaVuSans-72"/>
     <use x="328.365234" xlink:href="#DejaVuSans-65"/>
     <use x="389.888672" xlink:href="#DejaVuSans-70"/>
     <use x="453.365234" xlink:href="#DejaVuSans-6f"/>
     <use x="514.546875" xlink:href="#DejaVuSans-72"/>
     <use x="555.660156" xlink:href="#DejaVuSans-74"/>
    </g>
   </g>
   <g id="legend_1">
    <g id="patch_7">
     <path d="M 64.6 271.48 
L 155.792188 271.48 
Q 157.792188 271.48 157.792188 269.48 
L 157.792188 197.089375 
Q 157.792188 195.089375 155.792188 195.089375 
L 64.6 195.089375 
Q 62.6 195.089375 62.6 197.089375 
L 62.6 269.48 
Q 62.6 271.48 64.6 271.48 
z
" style="fill:#ffffff;opacity:0.8;stroke:#cccccc;stroke-linejoin:miter;"/>
    </g>
    <g id="line2d_22">
     <path d="M 66.6 203.187812 
L 86.6 203.187812 
" style="fill:none;stroke:#0000ff;stroke-linecap:square;stroke-opacity:0.9;stroke-width:2;"/>
    </g>
    <g id="line2d_23"/>
    <g id="text_19">
     <!-- alpaca -->
     <g transform="translate(94.6 206.687812)scale(0.1 -0.1)">
      <defs>
       <path d="M 3122 3366 
L 3122 2828 
Q 2878 2963 2633 3030 
Q 2388 3097 2138 3097 
Q 1578 3097 1268 2742 
Q 959 2388 959 1747 
Q 959 1106 1268 751 
Q 1578 397 2138 397 
Q 2388 397 2633 464 
Q 2878 531 3122 666 
L 3122 134 
Q 2881 22 2623 -34 
Q 2366 -91 2075 -91 
Q 1284 -91 818 406 
Q 353 903 353 1747 
Q 353 2603 823 3093 
Q 1294 3584 2113 3584 
Q 2378 3584 2631 3529 
Q 2884 3475 3122 3366 
z
" id="DejaVuSans-63" transform="scale(0.015625)"/>
      </defs>
      <use xlink:href="#DejaVuSans-61"/>
      <use x="61.279297" xlink:href="#DejaVuSans-6c"/>
      <use x="89.0625" xlink:href="#DejaVuSans-70"/>
      <use x="152.539062" xlink:href="#DejaVuSans-61"/>
      <use x="213.818359" xlink:href="#DejaVuSans-63"/>
      <use x="268.798828" xlink:href="#DejaVuSans-61"/>
     </g>
    </g>
    <g id="line2d_24">
     <path d="M 66.6 217.865937 
L 86.6 217.865937 
" style="fill:none;stroke:#ff0000;stroke-linecap:square;stroke-opacity:0.9;stroke-width:2;"/>
    </g>
    <g id="line2d_25"/>
    <g id="text_20">
     <!-- mattress -->
     <g transform="translate(94.6 221.365937)scale(0.1 -0.1)">
      <defs>
       <path d="M 3328 2828 
Q 3544 3216 3844 3400 
Q 4144 3584 4550 3584 
Q 5097 3584 5394 3201 
Q 5691 2819 5691 2113 
L 5691 0 
L 5113 0 
L 5113 2094 
Q 5113 2597 4934 2840 
Q 4756 3084 4391 3084 
Q 3944 3084 3684 2787 
Q 3425 2491 3425 1978 
L 3425 0 
L 2847 0 
L 2847 2094 
Q 2847 2600 2669 2842 
Q 2491 3084 2119 3084 
Q 1678 3084 1418 2786 
Q 1159 2488 1159 1978 
L 1159 0 
L 581 0 
L 581 3500 
L 1159 3500 
L 1159 2956 
Q 1356 3278 1631 3431 
Q 1906 3584 2284 3584 
Q 2666 3584 2933 3390 
Q 3200 3197 3328 2828 
z
" id="DejaVuSans-6d" transform="scale(0.015625)"/>
       <path d="M 2834 3397 
L 2834 2853 
Q 2591 2978 2328 3040 
Q 2066 3103 1784 3103 
Q 1356 3103 1142 2972 
Q 928 2841 928 2578 
Q 928 2378 1081 2264 
Q 1234 2150 1697 2047 
L 1894 2003 
Q 2506 1872 2764 1633 
Q 3022 1394 3022 966 
Q 3022 478 2636 193 
Q 2250 -91 1575 -91 
Q 1294 -91 989 -36 
Q 684 19 347 128 
L 347 722 
Q 666 556 975 473 
Q 1284 391 1588 391 
Q 1994 391 2212 530 
Q 2431 669 2431 922 
Q 2431 1156 2273 1281 
Q 2116 1406 1581 1522 
L 1381 1569 
Q 847 1681 609 1914 
Q 372 2147 372 2553 
Q 372 3047 722 3315 
Q 1072 3584 1716 3584 
Q 2034 3584 2315 3537 
Q 2597 3491 2834 3397 
z
" id="DejaVuSans-73" transform="scale(0.015625)"/>
      </defs>
      <use xlink:href="#DejaVuSans-6d"/>
      <use x="97.412109" xlink:href="#DejaVuSans-61"/>
      <use x="158.691406" xlink:href="#DejaVuSans-74"/>
      <use x="197.900391" xlink:href="#DejaVuSans-74"/>
      <use x="237.109375" xlink:href="#DejaVuSans-72"/>
      <use x="275.972656" xlink:href="#DejaVuSans-65"/>
      <use x="337.496094" xlink:href="#DejaVuSans-73"/>
      <use x="389.595703" xlink:href="#DejaVuSans-73"/>
     </g>
    </g>
    <g id="line2d_26">
     <path d="M 66.6 232.544062 
L 86.6 232.544062 
" style="fill:none;stroke:#ff8040;stroke-linecap:square;stroke-opacity:0.9;stroke-width:2;"/>
    </g>
    <g id="line2d_27"/>
    <g id="text_21">
     <!-- trader-0850 -->
     <g transform="translate(94.6 236.044062)scale(0.1 -0.1)">
      <use xlink:href="#DejaVuSans-74"/>
      <use x="39.208984" xlink:href="#DejaVuSans-72"/>
      <use x="80.322266" xlink:href="#DejaVuSans-61"/>
      <use x="141.601562" xlink:href="#DejaVuSans-64"/>
      <use x="205.078125" xlink:href="#DejaVuSans-65"/>
      <use x="266.601562" xlink:href="#DejaVuSans-72"/>
      <use x="301.339844" xlink:href="#DejaVuSans-2d"/>
      <use x="337.423828" xlink:href="#DejaVuSans-30"/>
      <use x="401.046875" xlink:href="#DejaVuSans-38"/>
      <use x="464.669922" xlink:href="#DejaVuSans-35"/>
      <use x="528.292969" xlink:href="#DejaVuSans-30"/>
     </g>
    </g>
    <g id="line2d_28">
     <path d="M 66.6 247.222187 
L 86.6 247.222187 
" style="fill:none;stroke:#0d0d0d;stroke-linecap:square;stroke-opacity:0.25;stroke-width:2;"/>
    </g>
    <g id="line2d_29"/>
    <g id="text_22">
     <!-- rando-min -->
     <g transform="translate(94.6 250.722187)scale(0.1 -0.1)">
      <defs>
       <path d="M 3513 2113 
L 3513 0 
L 2938 0 
L 2938 2094 
Q 2938 2591 2744 2837 
Q 2550 3084 2163 3084 
Q 1697 3084 1428 2787 
Q 1159 2491 1159 1978 
L 1159 0 
L 581 0 
L 581 3500 
L 1159 3500 
L 1159 2956 
Q 1366 3272 1645 3428 
Q 1925 3584 2291 3584 
Q 2894 3584 3203 3211 
Q 3513 2838 3513 2113 
z
" id="DejaVuSans-6e" transform="scale(0.015625)"/>
      </defs>
      <use xlink:href="#DejaVuSans-72"/>
      <use x="41.113281" xlink:href="#DejaVuSans-61"/>
      <use x="102.392578" xlink:href="#DejaVuSans-6e"/>
      <use x="165.771484" xlink:href="#DejaVuSans-64"/>
      <use x="229.248047" xlink:href="#DejaVuSans-6f"/>
      <use x="292.304688" xlink:href="#DejaVuSans-2d"/>
      <use x="328.388672" xlink:href="#DejaVuSans-6d"/>
      <use x="425.800781" xlink:href="#DejaVuSans-69"/>
      <use x="453.583984" xlink:href="#DejaVuSans-6e"/>
     </g>
    </g>
    <g id="line2d_30">
     <path d="M 66.6 261.900312 
L 86.6 261.900312 
" style="fill:none;stroke:#0d0d0d;stroke-linecap:square;stroke-opacity:0.25;stroke-width:2;"/>
    </g>
    <g id="line2d_31"/>
    <g id="text_23">
     <!-- rando-max -->
     <g transform="translate(94.6 265.400312)scale(0.1 -0.1)">
      <defs>
       <path d="M 3513 3500 
L 2247 1797 
L 3578 0 
L 2900 0 
L 1881 1375 
L 863 0 
L 184 0 
L 1544 1831 
L 300 3500 
L 978 3500 
L 1906 2253 
L 2834 3500 
L 3513 3500 
z
" id="DejaVuSans-78" transform="scale(0.015625)"/>
      </defs>
      <use xlink:href="#DejaVuSans-72"/>
      <use x="41.113281" xlink:href="#DejaVuSans-61"/>
      <use x="102.392578" xlink:href="#DejaVuSans-6e"/>
      <use x="165.771484" xlink:href="#DejaVuSans-64"/>
      <use x="229.248047" xlink:href="#DejaVuSans-6f"/>
      <use x="292.304688" xlink:href="#DejaVuSans-2d"/>
      <use x="328.388672" xlink:href="#DejaVuSans-6d"/>
      <use x="425.800781" xlink:href="#DejaVuSans-61"/>
      <use x="487.080078" xlink:href="#DejaVuSans-78"/>
     </g>
    </g>
   </g>
  </g>
 </g>
 <defs>
  <clipPath id="p0ca5811ff9">
   <rect height="235.008" width="357.12" x="57.6" y="41.472"/>
  </clipPath>
 </defs>
</svg>
