<?xml version="1.0" encoding="utf-8" standalone="no"?>
<!DOCTYPE svg PUBLIC "-//W3C//DTD SVG 1.1//EN"
  "http://www.w3.org/Graphics/SVG/1.1/DTD/svg11.dtd">
<svg xmlns:xlink="http://www.w3.org/1999/xlink" width="460.8pt" height="345.6pt" viewBox="0 0 460.8 345.6" xmlns="http://www.w3.org/2000/svg" version="1.1">
 <metadata>
  <rdf:RDF xmlns:dc="http://purl.org/dc/elements/1.1/" xmlns:cc="http://creativecommons.org/ns#" xmlns:rdf="http://www.w3.org/1999/02/22-rdf-syntax-ns#">
   <cc:Work>
    <dc:type rdf:resource="http://purl.org/dc/dcmitype/StillImage"/>
    <dc:date>2022-04-04T02:02:40.589375</dc:date>
    <dc:format>image/svg+xml</dc:format>
    <dc:creator>
     <cc:Agent>
      <dc:title>Matplotlib v3.5.0, https://matplotlib.org/</dc:title>
     </cc:Agent>
    </dc:creator>
   </cc:Work>
  </rdf:RDF>
 </metadata>
 <defs>
  <style type="text/css">*{stroke-linejoin: round; stroke-linecap: butt}</style>
 </defs>
 <g id="figure_1">
  <g id="patch_1">
   <path d="M 0 345.6 
L 460.8 345.6 
L 460.8 0 
L 0 0 
z
" style="fill: #ffffff"/>
  </g>
  <g id="axes_1">
   <g id="patch_2">
    <path d="M 57.6 276.48 
L 414.72 276.48 
L 414.72 41.472 
L 57.6 41.472 
z
" style="fill: #ffffff"/>
   </g>
   <g id="matplotlib.axis_1">
    <g id="xtick_1">
     <g id="line2d_1">
      <defs>
       <path id="mbfecce83b5" d="M 0 0 
L 0 3.5 
" style="stroke: #000000; stroke-width: 0.8"/>
      </defs>
      <g>
       <use xlink:href="#mbfecce83b5" x="73.832727" y="276.48" style="stroke: #000000; stroke-width: 0.8"/>
      </g>
     </g>
     <g id="text_1">
      <!-- 2021-12-01 -->
      <g transform="translate(22.463276 319.118252)rotate(-30)scale(0.1 -0.1)">
       <defs>
        <path id="DejaVuSans-32" d="M 1228 531 
L 3431 531 
L 3431 0 
L 469 0 
L 469 531 
Q 828 903 1448 1529 
Q 2069 2156 2228 2338 
Q 2531 2678 2651 2914 
Q 2772 3150 2772 3378 
Q 2772 3750 2511 3984 
Q 2250 4219 1831 4219 
Q 1534 4219 1204 4116 
Q 875 4013 500 3803 
L 500 4441 
Q 881 4594 1212 4672 
Q 1544 4750 1819 4750 
Q 2544 4750 2975 4387 
Q 3406 4025 3406 3419 
Q 3406 3131 3298 2873 
Q 3191 2616 2906 2266 
Q 2828 2175 2409 1742 
Q 1991 1309 1228 531 
z
" transform="scale(0.015625)"/>
        <path id="DejaVuSans-30" d="M 2034 4250 
Q 1547 4250 1301 3770 
Q 1056 3291 1056 2328 
Q 1056 1369 1301 889 
Q 1547 409 2034 409 
Q 2525 409 2770 889 
Q 3016 1369 3016 2328 
Q 3016 3291 2770 3770 
Q 2525 4250 2034 4250 
z
M 2034 4750 
Q 2819 4750 3233 4129 
Q 3647 3509 3647 2328 
Q 3647 1150 3233 529 
Q 2819 -91 2034 -91 
Q 1250 -91 836 529 
Q 422 1150 422 2328 
Q 422 3509 836 4129 
Q 1250 4750 2034 4750 
z
" transform="scale(0.015625)"/>
        <path id="DejaVuSans-31" d="M 794 531 
L 1825 531 
L 1825 4091 
L 703 3866 
L 703 4441 
L 1819 4666 
L 2450 4666 
L 2450 531 
L 3481 531 
L 3481 0 
L 794 0 
L 794 531 
z
" transform="scale(0.015625)"/>
        <path id="DejaVuSans-2d" d="M 313 2009 
L 1997 2009 
L 1997 1497 
L 313 1497 
L 313 2009 
z
" transform="scale(0.015625)"/>
       </defs>
       <use xlink:href="#DejaVuSans-32"/>
       <use xlink:href="#DejaVuSans-30" x="63.623047"/>
       <use xlink:href="#DejaVuSans-32" x="127.246094"/>
       <use xlink:href="#DejaVuSans-31" x="190.869141"/>
       <use xlink:href="#DejaVuSans-2d" x="254.492188"/>
       <use xlink:href="#DejaVuSans-31" x="290.576172"/>
       <use xlink:href="#DejaVuSans-32" x="354.199219"/>
       <use xlink:href="#DejaVuSans-2d" x="417.822266"/>
       <use xlink:href="#DejaVuSans-30" x="453.90625"/>
       <use xlink:href="#DejaVuSans-31" x="517.529297"/>
      </g>
     </g>
    </g>
    <g id="xtick_2">
     <g id="line2d_2">
      <g>
       <use xlink:href="#mbfecce83b5" x="111.396063" y="276.48" style="stroke: #000000; stroke-width: 0.8"/>
      </g>
     </g>
     <g id="text_2">
      <!-- 2021-12-15 -->
      <g transform="translate(60.026612 319.118252)rotate(-30)scale(0.1 -0.1)">
       <defs>
        <path id="DejaVuSans-35" d="M 691 4666 
L 3169 4666 
L 3169 4134 
L 1269 4134 
L 1269 2991 
Q 1406 3038 1543 3061 
Q 1681 3084 1819 3084 
Q 2600 3084 3056 2656 
Q 3513 2228 3513 1497 
Q 3513 744 3044 326 
Q 2575 -91 1722 -91 
Q 1428 -91 1123 -41 
Q 819 9 494 109 
L 494 744 
Q 775 591 1075 516 
Q 1375 441 1709 441 
Q 2250 441 2565 725 
Q 2881 1009 2881 1497 
Q 2881 1984 2565 2268 
Q 2250 2553 1709 2553 
Q 1456 2553 1204 2497 
Q 953 2441 691 2322 
L 691 4666 
z
" transform="scale(0.015625)"/>
       </defs>
       <use xlink:href="#DejaVuSans-32"/>
       <use xlink:href="#DejaVuSans-30" x="63.623047"/>
       <use xlink:href="#DejaVuSans-32" x="127.246094"/>
       <use xlink:href="#DejaVuSans-31" x="190.869141"/>
       <use xlink:href="#DejaVuSans-2d" x="254.492188"/>
       <use xlink:href="#DejaVuSans-31" x="290.576172"/>
       <use xlink:href="#DejaVuSans-32" x="354.199219"/>
       <use xlink:href="#DejaVuSans-2d" x="417.822266"/>
       <use xlink:href="#DejaVuSans-31" x="453.90625"/>
       <use xlink:href="#DejaVuSans-35" x="517.529297"/>
      </g>
     </g>
    </g>
    <g id="xtick_3">
     <g id="line2d_3">
      <g>
       <use xlink:href="#mbfecce83b5" x="157.008685" y="276.48" style="stroke: #000000; stroke-width: 0.8"/>
      </g>
     </g>
     <g id="text_3">
      <!-- 2022-01-01 -->
      <g transform="translate(105.639234 319.118252)rotate(-30)scale(0.1 -0.1)">
       <use xlink:href="#DejaVuSans-32"/>
       <use xlink:href="#DejaVuSans-30" x="63.623047"/>
       <use xlink:href="#DejaVuSans-32" x="127.246094"/>
       <use xlink:href="#DejaVuSans-32" x="190.869141"/>
       <use xlink:href="#DejaVuSans-2d" x="254.492188"/>
       <use xlink:href="#DejaVuSans-30" x="290.576172"/>
       <use xlink:href="#DejaVuSans-31" x="354.199219"/>
       <use xlink:href="#DejaVuSans-2d" x="417.822266"/>
       <use xlink:href="#DejaVuSans-30" x="453.90625"/>
       <use xlink:href="#DejaVuSans-31" x="517.529297"/>
      </g>
     </g>
    </g>
    <g id="xtick_4">
     <g id="line2d_4">
      <g>
       <use xlink:href="#mbfecce83b5" x="194.572021" y="276.48" style="stroke: #000000; stroke-width: 0.8"/>
      </g>
     </g>
     <g id="text_4">
      <!-- 2022-01-15 -->
      <g transform="translate(143.20257 319.118252)rotate(-30)scale(0.1 -0.1)">
       <use xlink:href="#DejaVuSans-32"/>
       <use xlink:href="#DejaVuSans-30" x="63.623047"/>
       <use xlink:href="#DejaVuSans-32" x="127.246094"/>
       <use xlink:href="#DejaVuSans-32" x="190.869141"/>
       <use xlink:href="#DejaVuSans-2d" x="254.492188"/>
       <use xlink:href="#DejaVuSans-30" x="290.576172"/>
       <use xlink:href="#DejaVuSans-31" x="354.199219"/>
       <use xlink:href="#DejaVuSans-2d" x="417.822266"/>
       <use xlink:href="#DejaVuSans-31" x="453.90625"/>
       <use xlink:href="#DejaVuSans-35" x="517.529297"/>
      </g>
     </g>
    </g>
    <g id="xtick_5">
     <g id="line2d_5">
      <g>
       <use xlink:href="#mbfecce83b5" x="240.184643" y="276.48" style="stroke: #000000; stroke-width: 0.8"/>
      </g>
     </g>
     <g id="text_5">
      <!-- 2022-02-01 -->
      <g transform="translate(188.815192 319.118252)rotate(-30)scale(0.1 -0.1)">
       <use xlink:href="#DejaVuSans-32"/>
       <use xlink:href="#DejaVuSans-30" x="63.623047"/>
       <use xlink:href="#DejaVuSans-32" x="127.246094"/>
       <use xlink:href="#DejaVuSans-32" x="190.869141"/>
       <use xlink:href="#DejaVuSans-2d" x="254.492188"/>
       <use xlink:href="#DejaVuSans-30" x="290.576172"/>
       <use xlink:href="#DejaVuSans-32" x="354.199219"/>
       <use xlink:href="#DejaVuSans-2d" x="417.822266"/>
       <use xlink:href="#DejaVuSans-30" x="453.90625"/>
       <use xlink:href="#DejaVuSans-31" x="517.529297"/>
      </g>
     </g>
    </g>
    <g id="xtick_6">
     <g id="line2d_6">
      <g>
       <use xlink:href="#mbfecce83b5" x="277.747979" y="276.48" style="stroke: #000000; stroke-width: 0.8"/>
      </g>
     </g>
     <g id="text_6">
      <!-- 2022-02-15 -->
      <g transform="translate(226.378528 319.118252)rotate(-30)scale(0.1 -0.1)">
       <use xlink:href="#DejaVuSans-32"/>
       <use xlink:href="#DejaVuSans-30" x="63.623047"/>
       <use xlink:href="#DejaVuSans-32" x="127.246094"/>
       <use xlink:href="#DejaVuSans-32" x="190.869141"/>
       <use xlink:href="#DejaVuSans-2d" x="254.492188"/>
       <use xlink:href="#DejaVuSans-30" x="290.576172"/>
       <use xlink:href="#DejaVuSans-32" x="354.199219"/>
       <use xlink:href="#DejaVuSans-2d" x="417.822266"/>
       <use xlink:href="#DejaVuSans-31" x="453.90625"/>
       <use xlink:href="#DejaVuSans-35" x="517.529297"/>
      </g>
     </g>
    </g>
    <g id="xtick_7">
     <g id="line2d_7">
      <g>
       <use xlink:href="#mbfecce83b5" x="315.311315" y="276.48" style="stroke: #000000; stroke-width: 0.8"/>
      </g>
     </g>
     <g id="text_7">
      <!-- 2022-03-01 -->
      <g transform="translate(263.941863 319.118252)rotate(-30)scale(0.1 -0.1)">
       <defs>
        <path id="DejaVuSans-33" d="M 2597 2516 
Q 3050 2419 3304 2112 
Q 3559 1806 3559 1356 
Q 3559 666 3084 287 
Q 2609 -91 1734 -91 
Q 1441 -91 1130 -33 
Q 819 25 488 141 
L 488 750 
Q 750 597 1062 519 
Q 1375 441 1716 441 
Q 2309 441 2620 675 
Q 2931 909 2931 1356 
Q 2931 1769 2642 2001 
Q 2353 2234 1838 2234 
L 1294 2234 
L 1294 2753 
L 1863 2753 
Q 2328 2753 2575 2939 
Q 2822 3125 2822 3475 
Q 2822 3834 2567 4026 
Q 2313 4219 1838 4219 
Q 1578 4219 1281 4162 
Q 984 4106 628 3988 
L 628 4550 
Q 988 4650 1302 4700 
Q 1616 4750 1894 4750 
Q 2613 4750 3031 4423 
Q 3450 4097 3450 3541 
Q 3450 3153 3228 2886 
Q 3006 2619 2597 2516 
z
" transform="scale(0.015625)"/>
       </defs>
       <use xlink:href="#DejaVuSans-32"/>
       <use xlink:href="#DejaVuSans-30" x="63.623047"/>
       <use xlink:href="#DejaVuSans-32" x="127.246094"/>
       <use xlink:href="#DejaVuSans-32" x="190.869141"/>
       <use xlink:href="#DejaVuSans-2d" x="254.492188"/>
       <use xlink:href="#DejaVuSans-30" x="290.576172"/>
       <use xlink:href="#DejaVuSans-33" x="354.199219"/>
       <use xlink:href="#DejaVuSans-2d" x="417.822266"/>
       <use xlink:href="#DejaVuSans-30" x="453.90625"/>
       <use xlink:href="#DejaVuSans-31" x="517.529297"/>
      </g>
     </g>
    </g>
    <g id="xtick_8">
     <g id="line2d_8">
      <g>
       <use xlink:href="#mbfecce83b5" x="352.874651" y="276.48" style="stroke: #000000; stroke-width: 0.8"/>
      </g>
     </g>
     <g id="text_8">
      <!-- 2022-03-15 -->
      <g transform="translate(301.505199 319.118252)rotate(-30)scale(0.1 -0.1)">
       <use xlink:href="#DejaVuSans-32"/>
       <use xlink:href="#DejaVuSans-30" x="63.623047"/>
       <use xlink:href="#DejaVuSans-32" x="127.246094"/>
       <use xlink:href="#DejaVuSans-32" x="190.869141"/>
       <use xlink:href="#DejaVuSans-2d" x="254.492188"/>
       <use xlink:href="#DejaVuSans-30" x="290.576172"/>
       <use xlink:href="#DejaVuSans-33" x="354.199219"/>
       <use xlink:href="#DejaVuSans-2d" x="417.822266"/>
       <use xlink:href="#DejaVuSans-31" x="453.90625"/>
       <use xlink:href="#DejaVuSans-35" x="517.529297"/>
      </g>
     </g>
    </g>
    <g id="xtick_9">
     <g id="line2d_9">
      <g>
       <use xlink:href="#mbfecce83b5" x="398.487273" y="276.48" style="stroke: #000000; stroke-width: 0.8"/>
      </g>
     </g>
     <g id="text_9">
      <!-- 2022-04-01 -->
      <g transform="translate(347.117821 319.118252)rotate(-30)scale(0.1 -0.1)">
       <defs>
        <path id="DejaVuSans-34" d="M 2419 4116 
L 825 1625 
L 2419 1625 
L 2419 4116 
z
M 2253 4666 
L 3047 4666 
L 3047 1625 
L 3713 1625 
L 3713 1100 
L 3047 1100 
L 3047 0 
L 2419 0 
L 2419 1100 
L 313 1100 
L 313 1709 
L 2253 4666 
z
" transform="scale(0.015625)"/>
       </defs>
       <use xlink:href="#DejaVuSans-32"/>
       <use xlink:href="#DejaVuSans-30" x="63.623047"/>
       <use xlink:href="#DejaVuSans-32" x="127.246094"/>
       <use xlink:href="#DejaVuSans-32" x="190.869141"/>
       <use xlink:href="#DejaVuSans-2d" x="254.492188"/>
       <use xlink:href="#DejaVuSans-30" x="290.576172"/>
       <use xlink:href="#DejaVuSans-34" x="354.199219"/>
       <use xlink:href="#DejaVuSans-2d" x="417.822266"/>
       <use xlink:href="#DejaVuSans-30" x="453.90625"/>
       <use xlink:href="#DejaVuSans-31" x="517.529297"/>
      </g>
     </g>
    </g>
    <g id="text_10">
     <!-- date -->
     <g transform="translate(224.885 332.517752)scale(0.1 -0.1)">
      <defs>
       <path id="DejaVuSans-64" d="M 2906 2969 
L 2906 4863 
L 3481 4863 
L 3481 0 
L 2906 0 
L 2906 525 
Q 2725 213 2448 61 
Q 2172 -91 1784 -91 
Q 1150 -91 751 415 
Q 353 922 353 1747 
Q 353 2572 751 3078 
Q 1150 3584 1784 3584 
Q 2172 3584 2448 3432 
Q 2725 3281 2906 2969 
z
M 947 1747 
Q 947 1113 1208 752 
Q 1469 391 1925 391 
Q 2381 391 2643 752 
Q 2906 1113 2906 1747 
Q 2906 2381 2643 2742 
Q 2381 3103 1925 3103 
Q 1469 3103 1208 2742 
Q 947 2381 947 1747 
z
" transform="scale(0.015625)"/>
       <path id="DejaVuSans-61" d="M 2194 1759 
Q 1497 1759 1228 1600 
Q 959 1441 959 1056 
Q 959 750 1161 570 
Q 1363 391 1709 391 
Q 2188 391 2477 730 
Q 2766 1069 2766 1631 
L 2766 1759 
L 2194 1759 
z
M 3341 1997 
L 3341 0 
L 2766 0 
L 2766 531 
Q 2569 213 2275 61 
Q 1981 -91 1556 -91 
Q 1019 -91 701 211 
Q 384 513 384 1019 
Q 384 1609 779 1909 
Q 1175 2209 1959 2209 
L 2766 2209 
L 2766 2266 
Q 2766 2663 2505 2880 
Q 2244 3097 1772 3097 
Q 1472 3097 1187 3025 
Q 903 2953 641 2809 
L 641 3341 
Q 956 3463 1253 3523 
Q 1550 3584 1831 3584 
Q 2591 3584 2966 3190 
Q 3341 2797 3341 1997 
z
" transform="scale(0.015625)"/>
       <path id="DejaVuSans-74" d="M 1172 4494 
L 1172 3500 
L 2356 3500 
L 2356 3053 
L 1172 3053 
L 1172 1153 
Q 1172 725 1289 603 
Q 1406 481 1766 481 
L 2356 481 
L 2356 0 
L 1766 0 
Q 1100 0 847 248 
Q 594 497 594 1153 
L 594 3053 
L 172 3053 
L 172 3500 
L 594 3500 
L 594 4494 
L 1172 4494 
z
" transform="scale(0.015625)"/>
       <path id="DejaVuSans-65" d="M 3597 1894 
L 3597 1613 
L 953 1613 
Q 991 1019 1311 708 
Q 1631 397 2203 397 
Q 2534 397 2845 478 
Q 3156 559 3463 722 
L 3463 178 
Q 3153 47 2828 -22 
Q 2503 -91 2169 -91 
Q 1331 -91 842 396 
Q 353 884 353 1716 
Q 353 2575 817 3079 
Q 1281 3584 2069 3584 
Q 2775 3584 3186 3129 
Q 3597 2675 3597 1894 
z
M 3022 2063 
Q 3016 2534 2758 2815 
Q 2500 3097 2075 3097 
Q 1594 3097 1305 2825 
Q 1016 2553 972 2059 
L 3022 2063 
z
" transform="scale(0.015625)"/>
      </defs>
      <use xlink:href="#DejaVuSans-64"/>
      <use xlink:href="#DejaVuSans-61" x="63.476562"/>
      <use xlink:href="#DejaVuSans-74" x="124.755859"/>
      <use xlink:href="#DejaVuSans-65" x="163.964844"/>
     </g>
    </g>
   </g>
   <g id="matplotlib.axis_2">
    <g id="ytick_1">
     <g id="line2d_10">
      <defs>
       <path id="m15865782ff" d="M 0 0 
L -3.5 0 
" style="stroke: #000000; stroke-width: 0.8"/>
      </defs>
      <g>
       <use xlink:href="#m15865782ff" x="57.6" y="264.405365" style="stroke: #000000; stroke-width: 0.8"/>
      </g>
     </g>
     <g id="text_11">
      <!-- 90000 -->
      <g transform="translate(18.7875 268.204584)scale(0.1 -0.1)">
       <defs>
        <path id="DejaVuSans-39" d="M 703 97 
L 703 672 
Q 941 559 1184 500 
Q 1428 441 1663 441 
Q 2288 441 2617 861 
Q 2947 1281 2994 2138 
Q 2813 1869 2534 1725 
Q 2256 1581 1919 1581 
Q 1219 1581 811 2004 
Q 403 2428 403 3163 
Q 403 3881 828 4315 
Q 1253 4750 1959 4750 
Q 2769 4750 3195 4129 
Q 3622 3509 3622 2328 
Q 3622 1225 3098 567 
Q 2575 -91 1691 -91 
Q 1453 -91 1209 -44 
Q 966 3 703 97 
z
M 1959 2075 
Q 2384 2075 2632 2365 
Q 2881 2656 2881 3163 
Q 2881 3666 2632 3958 
Q 2384 4250 1959 4250 
Q 1534 4250 1286 3958 
Q 1038 3666 1038 3163 
Q 1038 2656 1286 2365 
Q 1534 2075 1959 2075 
z
" transform="scale(0.015625)"/>
       </defs>
       <use xlink:href="#DejaVuSans-39"/>
       <use xlink:href="#DejaVuSans-30" x="63.623047"/>
       <use xlink:href="#DejaVuSans-30" x="127.246094"/>
       <use xlink:href="#DejaVuSans-30" x="190.869141"/>
       <use xlink:href="#DejaVuSans-30" x="254.492188"/>
      </g>
     </g>
    </g>
    <g id="ytick_2">
     <g id="line2d_11">
      <g>
       <use xlink:href="#m15865782ff" x="57.6" y="223.443849" style="stroke: #000000; stroke-width: 0.8"/>
      </g>
     </g>
     <g id="text_12">
      <!-- 100000 -->
      <g transform="translate(12.425 227.243068)scale(0.1 -0.1)">
       <use xlink:href="#DejaVuSans-31"/>
       <use xlink:href="#DejaVuSans-30" x="63.623047"/>
       <use xlink:href="#DejaVuSans-30" x="127.246094"/>
       <use xlink:href="#DejaVuSans-30" x="190.869141"/>
       <use xlink:href="#DejaVuSans-30" x="254.492188"/>
       <use xlink:href="#DejaVuSans-30" x="318.115234"/>
      </g>
     </g>
    </g>
    <g id="ytick_3">
     <g id="line2d_12">
      <g>
       <use xlink:href="#m15865782ff" x="57.6" y="182.482332" style="stroke: #000000; stroke-width: 0.8"/>
      </g>
     </g>
     <g id="text_13">
      <!-- 110000 -->
      <g transform="translate(12.425 186.281551)scale(0.1 -0.1)">
       <use xlink:href="#DejaVuSans-31"/>
       <use xlink:href="#DejaVuSans-31" x="63.623047"/>
       <use xlink:href="#DejaVuSans-30" x="127.246094"/>
       <use xlink:href="#DejaVuSans-30" x="190.869141"/>
       <use xlink:href="#DejaVuSans-30" x="254.492188"/>
       <use xlink:href="#DejaVuSans-30" x="318.115234"/>
      </g>
     </g>
    </g>
    <g id="ytick_4">
     <g id="line2d_13">
      <g>
       <use xlink:href="#m15865782ff" x="57.6" y="141.520815" style="stroke: #000000; stroke-width: 0.8"/>
      </g>
     </g>
     <g id="text_14">
      <!-- 120000 -->
      <g transform="translate(12.425 145.320034)scale(0.1 -0.1)">
       <use xlink:href="#DejaVuSans-31"/>
       <use xlink:href="#DejaVuSans-32" x="63.623047"/>
       <use xlink:href="#DejaVuSans-30" x="127.246094"/>
       <use xlink:href="#DejaVuSans-30" x="190.869141"/>
       <use xlink:href="#DejaVuSans-30" x="254.492188"/>
       <use xlink:href="#DejaVuSans-30" x="318.115234"/>
      </g>
     </g>
    </g>
    <g id="ytick_5">
     <g id="line2d_14">
      <g>
       <use xlink:href="#m15865782ff" x="57.6" y="100.559299" style="stroke: #000000; stroke-width: 0.8"/>
      </g>
     </g>
     <g id="text_15">
      <!-- 130000 -->
      <g transform="translate(12.425 104.358517)scale(0.1 -0.1)">
       <use xlink:href="#DejaVuSans-31"/>
       <use xlink:href="#DejaVuSans-33" x="63.623047"/>
       <use xlink:href="#DejaVuSans-30" x="127.246094"/>
       <use xlink:href="#DejaVuSans-30" x="190.869141"/>
       <use xlink:href="#DejaVuSans-30" x="254.492188"/>
       <use xlink:href="#DejaVuSans-30" x="318.115234"/>
      </g>
     </g>
    </g>
    <g id="ytick_6">
     <g id="line2d_15">
      <g>
       <use xlink:href="#m15865782ff" x="57.6" y="59.597782" style="stroke: #000000; stroke-width: 0.8"/>
      </g>
     </g>
     <g id="text_16">
      <!-- 140000 -->
      <g transform="translate(12.425 63.397001)scale(0.1 -0.1)">
       <use xlink:href="#DejaVuSans-31"/>
       <use xlink:href="#DejaVuSans-34" x="63.623047"/>
       <use xlink:href="#DejaVuSans-30" x="127.246094"/>
       <use xlink:href="#DejaVuSans-30" x="190.869141"/>
       <use xlink:href="#DejaVuSans-30" x="254.492188"/>
       <use xlink:href="#DejaVuSans-30" x="318.115234"/>
      </g>
     </g>
    </g>
   </g>
   <g id="line2d_16">
    <path d="M 73.832727 223.443849 
L 76.515823 218.165308 
L 79.198918 221.973693 
L 87.248204 206.814118 
L 89.9313 201.575372 
L 92.614395 202.413333 
L 95.297491 197.786535 
L 97.980586 190.126926 
L 106.029872 203.798719 
L 108.712968 203.245143 
L 111.396063 198.294932 
L 114.079159 209.298006 
L 116.762254 209.138334 
L 124.81154 216.606891 
L 127.494636 204.325858 
L 130.177731 198.837828 
L 132.860826 194.618826 
L 143.593208 189.232391 
L 146.276304 192.447114 
L 148.959399 184.860887 
L 151.642494 186.406754 
L 154.32559 188.953406 
L 162.374876 189.891719 
L 165.057971 187.27798 
L 167.741067 191.958767 
L 170.424162 196.16377 
L 173.107258 204.286419 
L 181.156544 207.48725 
L 183.839639 192.200691 
L 186.522735 195.823606 
L 189.20583 188.75386 
L 191.888926 190.885402 
L 202.621307 191.706574 
L 205.304403 189.167308 
L 207.987498 205.102057 
L 210.670594 212.401771 
L 218.71988 143.75423 
L 221.402975 151.720448 
L 224.086071 160.708332 
L 226.769166 162.963127 
L 229.452261 154.454317 
L 237.501548 153.552017 
L 240.184643 152.90979 
L 242.867739 148.435225 
L 245.550834 152.440972 
L 248.233929 163.489607 
L 256.283216 162.320734 
L 258.966311 151.631512 
L 261.649406 152.790918 
L 264.332502 166.103035 
L 267.015597 174.119432 
L 275.064884 177.889048 
L 277.747979 169.828017 
L 280.431074 168.427071 
L 283.11417 177.889564 
L 285.797265 178.403598 
L 296.529647 193.381923 
L 299.212742 200.593743 
L 301.895838 190.209382 
L 304.578933 174.884732 
L 312.628219 175.756152 
L 315.311315 176.775147 
L 317.99441 164.661187 
L 320.677506 167.261094 
L 323.360601 166.721731 
L 331.409887 197.372368 
L 334.092983 194.901873 
L 336.776078 186.079487 
L 339.459174 185.77168 
L 342.142269 190.643845 
L 350.191555 197.255803 
L 352.874651 186.455707 
L 355.557746 159.417494 
L 358.240841 156.848076 
L 360.923937 154.667802 
L 368.973223 162.687562 
L 371.656319 163.804643 
L 374.339414 174.917757 
L 377.022509 172.096421 
L 379.705605 173.434906 
L 387.754891 176.264268 
L 390.437986 171.250172 
L 393.121082 177.816794 
L 395.804177 193.279782 
L 398.487273 190.594932 
" clip-path="url(#p5bc4fd5dac)" style="fill: none; stroke: #0000ff; stroke-opacity: 0.9; stroke-width: 2; stroke-linecap: square"/>
   </g>
   <g id="line2d_17">
    <path d="M 73.832727 223.443849 
L 76.515823 210.759866 
L 79.198918 214.562795 
L 87.248204 199.061445 
L 89.9313 193.877357 
L 92.614395 194.522076 
L 95.297491 189.423616 
L 97.980586 181.429683 
L 106.029872 193.745681 
L 108.712968 194.309803 
L 111.396063 188.825894 
L 114.079159 197.986543 
L 116.762254 199.284792 
L 124.81154 205.971144 
L 127.494636 195.256405 
L 130.177731 189.943618 
L 132.860826 186.48171 
L 143.593208 181.230989 
L 146.276304 182.612189 
L 148.959399 174.750681 
L 151.642494 177.070321 
L 154.32559 178.80397 
L 162.374876 179.700293 
L 165.057971 177.146526 
L 167.741067 180.749438 
L 170.424162 186.640899 
L 173.107258 194.26233 
L 181.156544 195.201467 
L 183.839639 181.705462 
L 186.522735 184.592127 
L 189.20583 178.310378 
L 191.888926 178.863966 
L 202.621307 183.285617 
L 205.304403 182.819833 
L 207.987498 196.900179 
L 210.670594 203.924877 
L 218.71988 146.80787 
L 221.402975 154.026855 
L 224.086071 162.389355 
L 226.769166 163.584768 
L 229.452261 155.264356 
L 237.501548 157.074955 
L 240.184643 156.81718 
L 242.867739 153.292614 
L 245.550834 156.242531 
L 248.233929 164.496629 
L 256.283216 163.049463 
L 258.966311 153.008071 
L 261.649406 156.5068 
L 264.332502 167.549257 
L 267.015597 176.383496 
L 275.064884 180.177333 
L 277.747979 172.744938 
L 280.431074 171.567619 
L 283.11417 180.656805 
L 285.797265 181.760414 
L 296.529647 196.764175 
L 299.212742 203.185196 
L 301.895838 193.719689 
L 304.578933 179.184971 
L 312.628219 180.939982 
L 315.311315 181.835469 
L 317.99441 169.1822 
L 320.677506 171.20921 
L 323.360601 170.553948 
L 331.409887 201.4483 
L 334.092983 199.332317 
L 336.776078 191.309429 
L 339.459174 190.481406 
L 342.142269 195.066592 
L 350.191555 199.415261 
L 352.874651 189.633434 
L 355.557746 162.81062 
L 358.240841 160.425765 
L 360.923937 159.488031 
L 368.973223 165.728466 
L 371.656319 166.982865 
L 374.339414 176.477697 
L 377.022509 172.898359 
L 379.705605 172.406809 
L 387.754891 175.348988 
L 390.437986 173.384949 
L 393.121082 179.294791 
L 395.804177 192.191118 
L 398.487273 191.777245 
" clip-path="url(#p5bc4fd5dac)" style="fill: none; stroke: #ff0000; stroke-opacity: 0.9; stroke-width: 2; stroke-linecap: square"/>
   </g>
   <g id="line2d_18">
    <path d="M 73.832727 223.443849 
L 76.515823 210.543711 
L 79.198918 214.235452 
L 87.248204 199.029932 
L 89.9313 193.770255 
L 92.614395 194.329048 
L 95.297491 189.217844 
L 97.980586 181.167578 
L 106.029872 193.734879 
L 108.712968 194.024271 
L 111.396063 188.704451 
L 114.079159 198.291645 
L 116.762254 199.161377 
L 124.81154 206.24085 
L 127.494636 195.118717 
L 130.177731 189.39751 
L 132.860826 185.842483 
L 143.593208 180.463745 
L 146.276304 182.379694 
L 148.959399 174.380909 
L 151.642494 176.453919 
L 154.32559 178.718573 
L 162.374876 179.269785 
L 165.057971 176.925194 
L 167.741067 180.775105 
L 170.424162 186.180968 
L 173.107258 193.796992 
L 181.156544 195.60368 
L 183.839639 181.48217 
L 186.522735 184.592156 
L 189.20583 177.542238 
L 191.888926 178.766675 
L 202.621307 181.658834 
L 205.304403 180.863755 
L 207.987498 195.601676 
L 210.670594 202.903157 
L 218.71988 141.574489 
L 221.402975 148.922353 
L 224.086071 157.344516 
L 226.769166 158.888893 
L 229.452261 150.19435 
L 237.501548 150.996027 
L 240.184643 150.562297 
L 242.867739 146.707085 
L 245.550834 150.14009 
L 248.233929 159.866644 
L 256.283216 158.096606 
L 258.966311 148.223488 
L 261.649406 150.703099 
L 264.332502 162.482037 
L 267.015597 170.848604 
L 275.064884 174.570263 
L 277.747979 166.854235 
L 280.431074 165.700156 
L 283.11417 175.161986 
L 285.797265 175.78246 
L 296.529647 190.923989 
L 299.212742 198.096035 
L 301.895838 187.910778 
L 304.578933 172.844782 
L 312.628219 174.012035 
L 315.311315 174.798752 
L 317.99441 162.346503 
L 320.677506 164.94147 
L 323.360601 163.912339 
L 331.409887 195.197195 
L 334.092983 192.491287 
L 336.776078 184.056655 
L 339.459174 183.43136 
L 342.142269 188.051124 
L 350.191555 193.566287 
L 352.874651 183.012697 
L 355.557746 156.51428 
L 358.240841 153.58054 
L 360.923937 151.844492 
L 368.973223 158.933273 
L 371.656319 160.141658 
L 374.339414 170.697046 
L 377.022509 167.18624 
L 379.705605 167.896358 
L 387.754891 170.657261 
L 390.437986 167.12228 
L 393.121082 173.605442 
L 395.804177 187.834651 
L 398.487273 186.658905 
" clip-path="url(#p5bc4fd5dac)" style="fill: none; stroke: #ec5283; stroke-width: 2; stroke-linecap: square"/>
   </g>
   <g id="line2d_19">
    <path d="M 73.832727 223.443849 
L 76.515823 210.733254 
L 79.198918 214.960623 
L 87.248204 199.825582 
L 89.9313 194.673848 
L 92.614395 195.807309 
L 95.297491 191.025386 
L 97.980586 183.124872 
L 106.029872 196.513166 
L 108.712968 196.076334 
L 111.396063 191.376398 
L 114.079159 202.161968 
L 116.762254 201.354921 
L 124.81154 208.88298 
L 127.494636 196.688658 
L 130.177731 191.62057 
L 132.860826 187.052413 
L 143.593208 181.936039 
L 146.276304 184.974184 
L 148.959399 177.3789 
L 151.642494 179.049904 
L 154.32559 181.596599 
L 162.374876 182.484705 
L 165.057971 179.804158 
L 167.741067 184.388141 
L 170.424162 188.304144 
L 173.107258 196.290136 
L 181.156544 199.358995 
L 183.839639 184.117903 
L 186.522735 187.674655 
L 189.20583 180.553238 
L 191.888926 182.683543 
L 202.621307 183.248746 
L 205.304403 180.665524 
L 207.987498 196.441396 
L 210.670594 203.962828 
L 218.71988 135.705618 
L 221.402975 143.347044 
L 224.086071 151.980627 
L 226.769166 154.15623 
L 229.452261 145.444467 
L 237.501548 145.119713 
L 240.184643 144.231579 
L 242.867739 139.602202 
L 245.550834 143.599095 
L 248.233929 154.863657 
L 256.283216 153.115833 
L 258.966311 143.005472 
L 261.649406 144.177293 
L 264.332502 156.85583 
L 267.015597 165.062984 
L 275.064884 168.333069 
L 277.747979 160.875907 
L 280.431074 159.146951 
L 283.11417 168.628176 
L 285.797265 169.027604 
L 296.529647 183.966082 
L 299.212742 190.871141 
L 301.895838 180.346102 
L 304.578933 165.681412 
L 312.628219 166.127869 
L 315.311315 166.9679 
L 317.99441 155.097857 
L 320.677506 157.700741 
L 323.360601 156.72198 
L 331.409887 186.999041 
L 334.092983 184.475926 
L 336.776078 175.622972 
L 339.459174 175.816223 
L 342.142269 180.573937 
L 350.191555 186.216597 
L 352.874651 175.998471 
L 355.557746 148.720665 
L 358.240841 145.647401 
L 360.923937 143.502714 
L 368.973223 151.08917 
L 371.656319 152.136389 
L 374.339414 163.017593 
L 377.022509 160.078001 
L 379.705605 161.213265 
L 387.754891 163.608299 
L 390.437986 159.439654 
L 393.121082 165.892324 
L 395.804177 180.86335 
L 398.487273 179.252825 
" clip-path="url(#p5bc4fd5dac)" style="fill: none; stroke: #ff8040; stroke-opacity: 0.9; stroke-width: 2; stroke-linecap: square"/>
   </g>
   <g id="line2d_20">
    <path d="M 73.832727 223.443849 
L 76.515823 210.468922 
L 79.198918 214.735604 
L 87.248204 198.922095 
L 89.9313 192.613581 
L 92.614395 193.626229 
L 95.297491 188.395324 
L 97.980586 180.675132 
L 106.029872 194.180623 
L 108.712968 193.430372 
L 111.396063 188.645674 
L 114.079159 199.908271 
L 116.762254 199.062844 
L 124.81154 206.529402 
L 127.494636 194.31461 
L 130.177731 188.895901 
L 132.860826 184.151554 
L 143.593208 178.716112 
L 146.276304 182.105186 
L 148.959399 174.178429 
L 151.642494 175.730147 
L 154.32559 178.588495 
L 162.374876 179.374679 
L 165.057971 176.557053 
L 167.741067 181.482216 
L 170.424162 185.624985 
L 173.107258 193.779759 
L 181.156544 196.903897 
L 183.839639 181.130354 
L 186.522735 185.370918 
L 189.20583 177.70652 
L 191.888926 179.763537 
L 202.621307 180.497172 
L 205.304403 178.21242 
L 207.987498 193.640654 
L 210.670594 201.556296 
L 218.71988 131.63755 
L 221.402975 139.098732 
L 224.086071 148.45314 
L 226.769166 150.736322 
L 229.452261 141.490457 
L 237.501548 140.993213 
L 240.184643 140.579674 
L 242.867739 135.836218 
L 245.550834 139.612632 
L 248.233929 150.920905 
L 256.283216 149.335196 
L 258.966311 138.879632 
L 261.649406 139.827395 
L 264.332502 153.218723 
L 267.015597 161.556268 
L 275.064884 164.964876 
L 277.747979 157.093935 
L 280.431074 155.553426 
L 283.11417 165.503177 
L 285.797265 165.988308 
L 296.529647 181.224564 
L 299.212742 188.417013 
L 301.895838 177.716057 
L 304.578933 162.241677 
L 312.628219 162.791336 
L 315.311315 163.597131 
L 317.99441 151.178846 
L 320.677506 153.789983 
L 323.360601 152.739019 
L 331.409887 184.007486 
L 334.092983 181.030331 
L 336.776078 172.157489 
L 339.459174 171.955997 
L 342.142269 176.785389 
L 350.191555 182.072548 
L 352.874651 170.095073 
L 355.557746 142.435361 
L 358.240841 138.843265 
L 360.923937 136.817644 
L 368.973223 144.834899 
L 371.656319 146.270832 
L 374.339414 157.250012 
L 377.022509 154.099554 
L 379.705605 155.317067 
L 387.754891 157.994272 
L 390.437986 153.781138 
L 393.121082 160.599941 
L 395.804177 175.992071 
L 398.487273 174.646821 
" clip-path="url(#p5bc4fd5dac)" style="fill: none; stroke: #a5b9cf; stroke-width: 2; stroke-linecap: square"/>
   </g>
   <g id="line2d_21">
    <path d="M 73.832727 223.853464 
L 76.515823 217.162399 
L 79.198918 225.270749 
L 87.248204 210.33522 
L 89.9313 203.646086 
L 92.614395 205.268398 
L 95.297491 203.028181 
L 97.980586 195.730618 
L 106.029872 207.87077 
L 108.712968 212.519385 
L 111.396063 206.808906 
L 114.079159 216.767542 
L 116.762254 219.764732 
L 124.81154 228.839579 
L 127.494636 218.715628 
L 130.177731 213.105378 
L 132.860826 209.953025 
L 143.593208 204.874589 
L 146.276304 207.615805 
L 148.959399 201.09877 
L 151.642494 204.000991 
L 154.32559 204.318683 
L 162.374876 203.47456 
L 165.057971 201.388698 
L 167.741067 203.289388 
L 170.424162 211.195124 
L 173.107258 220.569324 
L 181.156544 225.675959 
L 183.839639 215.760459 
L 186.522735 221.707436 
L 189.20583 213.043851 
L 191.888926 214.205807 
L 202.621307 221.425806 
L 205.304403 219.177081 
L 207.987498 227.778583 
L 210.670594 236.397175 
L 218.71988 205.069055 
L 221.402975 211.642907 
L 224.086071 224.462625 
L 226.769166 227.826903 
L 229.452261 220.440256 
L 237.501548 226.445706 
L 240.184643 227.605904 
L 242.867739 221.307526 
L 245.550834 223.726836 
L 248.233929 232.194538 
L 256.283216 230.881183 
L 258.966311 222.129347 
L 261.649406 226.925342 
L 264.332502 232.610108 
L 267.015597 237.985403 
L 275.064884 242.037408 
L 277.747979 232.726486 
L 280.431074 234.237427 
L 283.11417 241.867483 
L 285.797265 242.897886 
L 296.529647 253.251576 
L 299.212742 257.209801 
L 301.895838 249.157349 
L 304.578933 235.862358 
L 312.628219 238.071941 
L 315.311315 237.11557 
L 317.99441 227.85474 
L 320.677506 229.732754 
L 323.360601 229.815077 
L 331.409887 257.209996 
L 334.092983 260.916512 
L 336.776078 255.044466 
L 339.459174 255.286354 
L 342.142269 257.744912 
L 350.191555 262.588837 
L 352.874651 251.654035 
L 355.557746 235.249437 
L 358.240841 233.055774 
L 360.923937 230.595197 
L 368.973223 238.05572 
L 371.656319 238.942045 
L 374.339414 247.075449 
L 377.022509 244.348382 
L 379.705605 246.663131 
L 387.754891 248.793679 
L 390.437986 250.101372 
L 393.121082 255.817541 
L 395.804177 265.521245 
L 398.487273 265.797818 
" clip-path="url(#p5bc4fd5dac)" style="fill: none; stroke: #0d0d0d; stroke-opacity: 0.25; stroke-width: 2; stroke-linecap: square"/>
   </g>
   <g id="line2d_22">
    <path d="M 73.832727 223.034234 
L 76.515823 205.624652 
L 79.198918 206.342587 
L 87.248204 188.012031 
L 89.9313 181.951018 
L 92.614395 181.503481 
L 95.297491 173.817297 
L 97.980586 164.666841 
L 106.029872 173.901248 
L 108.712968 170.066607 
L 111.396063 164.729103 
L 114.079159 170.930489 
L 116.762254 172.427761 
L 124.81154 177.30502 
L 127.494636 167.908297 
L 130.177731 160.659667 
L 132.860826 155.501298 
L 143.593208 149.350389 
L 146.276304 150.323044 
L 148.959399 143.650163 
L 151.642494 145.839644 
L 154.32559 148.895598 
L 162.374876 153.147463 
L 165.057971 150.356301 
L 167.741067 152.319652 
L 170.424162 160.543973 
L 173.107258 161.693914 
L 181.156544 166.085887 
L 183.839639 149.237161 
L 186.522735 151.367845 
L 189.20583 142.932045 
L 191.888926 145.728395 
L 202.621307 143.795394 
L 205.304403 145.37989 
L 207.987498 158.726421 
L 210.670594 167.230391 
L 218.71988 64.910912 
L 221.402975 75.704038 
L 224.086071 86.715103 
L 226.769166 89.729368 
L 229.452261 78.529994 
L 237.501548 81.754773 
L 240.184643 80.736335 
L 242.867739 72.909093 
L 245.550834 71.13718 
L 248.233929 79.884611 
L 256.283216 78.322329 
L 258.966311 65.246214 
L 261.649406 56.264943 
L 264.332502 75.690324 
L 267.015597 82.251108 
L 275.064884 88.13906 
L 277.747979 77.292471 
L 280.431074 75.199441 
L 283.11417 86.463388 
L 285.797265 86.526653 
L 296.529647 113.22271 
L 299.212742 118.622638 
L 301.895838 107.057792 
L 304.578933 91.601727 
L 312.628219 84.153773 
L 315.311315 83.855806 
L 317.99441 68.1487 
L 320.677506 68.527575 
L 323.360601 66.784486 
L 331.409887 111.552672 
L 334.092983 101.380901 
L 336.776078 90.693301 
L 339.459174 90.188937 
L 342.142269 96.33868 
L 350.191555 101.764116 
L 352.874651 90.975985 
L 355.557746 62.038516 
L 358.240841 57.213602 
L 360.923937 52.154182 
L 368.973223 60.440978 
L 371.656319 61.823134 
L 374.339414 69.588417 
L 377.022509 65.831413 
L 379.705605 65.028833 
L 387.754891 68.242026 
L 390.437986 66.697629 
L 393.121082 73.276749 
L 395.804177 89.333783 
L 398.487273 90.194833 
" clip-path="url(#p5bc4fd5dac)" style="fill: none; stroke: #0d0d0d; stroke-opacity: 0.25; stroke-width: 2; stroke-linecap: square"/>
   </g>
   <g id="patch_3">
    <path d="M 57.6 276.48 
L 57.6 41.472 
" style="fill: none; stroke: #000000; stroke-width: 0.8; stroke-linejoin: miter; stroke-linecap: square"/>
   </g>
   <g id="patch_4">
    <path d="M 414.72 276.48 
L 414.72 41.472 
" style="fill: none; stroke: #000000; stroke-width: 0.8; stroke-linejoin: miter; stroke-linecap: square"/>
   </g>
   <g id="patch_5">
    <path d="M 57.6 276.48 
L 414.72 276.48 
" style="fill: none; stroke: #000000; stroke-width: 0.8; stroke-linejoin: miter; stroke-linecap: square"/>
   </g>
   <g id="patch_6">
    <path d="M 57.6 41.472 
L 414.72 41.472 
" style="fill: none; stroke: #000000; stroke-width: 0.8; stroke-linejoin: miter; stroke-linecap: square"/>
   </g>
   <g id="text_17">
    <!-- APOCAHOUSE3 -->
    <g transform="translate(190.37625 22.034625)scale(0.12 -0.12)">
     <defs>
      <path id="DejaVuSans-41" d="M 2188 4044 
L 1331 1722 
L 3047 1722 
L 2188 4044 
z
M 1831 4666 
L 2547 4666 
L 4325 0 
L 3669 0 
L 3244 1197 
L 1141 1197 
L 716 0 
L 50 0 
L 1831 4666 
z
" transform="scale(0.015625)"/>
      <path id="DejaVuSans-50" d="M 1259 4147 
L 1259 2394 
L 2053 2394 
Q 2494 2394 2734 2622 
Q 2975 2850 2975 3272 
Q 2975 3691 2734 3919 
Q 2494 4147 2053 4147 
L 1259 4147 
z
M 628 4666 
L 2053 4666 
Q 2838 4666 3239 4311 
Q 3641 3956 3641 3272 
Q 3641 2581 3239 2228 
Q 2838 1875 2053 1875 
L 1259 1875 
L 1259 0 
L 628 0 
L 628 4666 
z
" transform="scale(0.015625)"/>
      <path id="DejaVuSans-4f" d="M 2522 4238 
Q 1834 4238 1429 3725 
Q 1025 3213 1025 2328 
Q 1025 1447 1429 934 
Q 1834 422 2522 422 
Q 3209 422 3611 934 
Q 4013 1447 4013 2328 
Q 4013 3213 3611 3725 
Q 3209 4238 2522 4238 
z
M 2522 4750 
Q 3503 4750 4090 4092 
Q 4678 3434 4678 2328 
Q 4678 1225 4090 567 
Q 3503 -91 2522 -91 
Q 1538 -91 948 565 
Q 359 1222 359 2328 
Q 359 3434 948 4092 
Q 1538 4750 2522 4750 
z
" transform="scale(0.015625)"/>
      <path id="DejaVuSans-43" d="M 4122 4306 
L 4122 3641 
Q 3803 3938 3442 4084 
Q 3081 4231 2675 4231 
Q 1875 4231 1450 3742 
Q 1025 3253 1025 2328 
Q 1025 1406 1450 917 
Q 1875 428 2675 428 
Q 3081 428 3442 575 
Q 3803 722 4122 1019 
L 4122 359 
Q 3791 134 3420 21 
Q 3050 -91 2638 -91 
Q 1578 -91 968 557 
Q 359 1206 359 2328 
Q 359 3453 968 4101 
Q 1578 4750 2638 4750 
Q 3056 4750 3426 4639 
Q 3797 4528 4122 4306 
z
" transform="scale(0.015625)"/>
      <path id="DejaVuSans-48" d="M 628 4666 
L 1259 4666 
L 1259 2753 
L 3553 2753 
L 3553 4666 
L 4184 4666 
L 4184 0 
L 3553 0 
L 3553 2222 
L 1259 2222 
L 1259 0 
L 628 0 
L 628 4666 
z
" transform="scale(0.015625)"/>
      <path id="DejaVuSans-55" d="M 556 4666 
L 1191 4666 
L 1191 1831 
Q 1191 1081 1462 751 
Q 1734 422 2344 422 
Q 2950 422 3222 751 
Q 3494 1081 3494 1831 
L 3494 4666 
L 4128 4666 
L 4128 1753 
Q 4128 841 3676 375 
Q 3225 -91 2344 -91 
Q 1459 -91 1007 375 
Q 556 841 556 1753 
L 556 4666 
z
" transform="scale(0.015625)"/>
      <path id="DejaVuSans-53" d="M 3425 4513 
L 3425 3897 
Q 3066 4069 2747 4153 
Q 2428 4238 2131 4238 
Q 1616 4238 1336 4038 
Q 1056 3838 1056 3469 
Q 1056 3159 1242 3001 
Q 1428 2844 1947 2747 
L 2328 2669 
Q 3034 2534 3370 2195 
Q 3706 1856 3706 1288 
Q 3706 609 3251 259 
Q 2797 -91 1919 -91 
Q 1588 -91 1214 -16 
Q 841 59 441 206 
L 441 856 
Q 825 641 1194 531 
Q 1563 422 1919 422 
Q 2459 422 2753 634 
Q 3047 847 3047 1241 
Q 3047 1584 2836 1778 
Q 2625 1972 2144 2069 
L 1759 2144 
Q 1053 2284 737 2584 
Q 422 2884 422 3419 
Q 422 4038 858 4394 
Q 1294 4750 2059 4750 
Q 2388 4750 2728 4690 
Q 3069 4631 3425 4513 
z
" transform="scale(0.015625)"/>
      <path id="DejaVuSans-45" d="M 628 4666 
L 3578 4666 
L 3578 4134 
L 1259 4134 
L 1259 2753 
L 3481 2753 
L 3481 2222 
L 1259 2222 
L 1259 531 
L 3634 531 
L 3634 0 
L 628 0 
L 628 4666 
z
" transform="scale(0.015625)"/>
     </defs>
     <use xlink:href="#DejaVuSans-41"/>
     <use xlink:href="#DejaVuSans-50" x="68.408203"/>
     <use xlink:href="#DejaVuSans-4f" x="128.710938"/>
     <use xlink:href="#DejaVuSans-43" x="207.421875"/>
     <use xlink:href="#DejaVuSans-41" x="277.246094"/>
     <use xlink:href="#DejaVuSans-48" x="345.654297"/>
     <use xlink:href="#DejaVuSans-4f" x="420.849609"/>
     <use xlink:href="#DejaVuSans-55" x="499.560547"/>
     <use xlink:href="#DejaVuSans-53" x="572.753906"/>
     <use xlink:href="#DejaVuSans-45" x="636.230469"/>
     <use xlink:href="#DejaVuSans-33" x="699.414062"/>
    </g>
    <!-- daily_report -->
    <g transform="translate(200.466563 35.472)scale(0.12 -0.12)">
     <defs>
      <path id="DejaVuSans-69" d="M 603 3500 
L 1178 3500 
L 1178 0 
L 603 0 
L 603 3500 
z
M 603 4863 
L 1178 4863 
L 1178 4134 
L 603 4134 
L 603 4863 
z
" transform="scale(0.015625)"/>
      <path id="DejaVuSans-6c" d="M 603 4863 
L 1178 4863 
L 1178 0 
L 603 0 
L 603 4863 
z
" transform="scale(0.015625)"/>
      <path id="DejaVuSans-79" d="M 2059 -325 
Q 1816 -950 1584 -1140 
Q 1353 -1331 966 -1331 
L 506 -1331 
L 506 -850 
L 844 -850 
Q 1081 -850 1212 -737 
Q 1344 -625 1503 -206 
L 1606 56 
L 191 3500 
L 800 3500 
L 1894 763 
L 2988 3500 
L 3597 3500 
L 2059 -325 
z
" transform="scale(0.015625)"/>
      <path id="DejaVuSans-5f" d="M 3263 -1063 
L 3263 -1509 
L -63 -1509 
L -63 -1063 
L 3263 -1063 
z
" transform="scale(0.015625)"/>
      <path id="DejaVuSans-72" d="M 2631 2963 
Q 2534 3019 2420 3045 
Q 2306 3072 2169 3072 
Q 1681 3072 1420 2755 
Q 1159 2438 1159 1844 
L 1159 0 
L 581 0 
L 581 3500 
L 1159 3500 
L 1159 2956 
Q 1341 3275 1631 3429 
Q 1922 3584 2338 3584 
Q 2397 3584 2469 3576 
Q 2541 3569 2628 3553 
L 2631 2963 
z
" transform="scale(0.015625)"/>
      <path id="DejaVuSans-70" d="M 1159 525 
L 1159 -1331 
L 581 -1331 
L 581 3500 
L 1159 3500 
L 1159 2969 
Q 1341 3281 1617 3432 
Q 1894 3584 2278 3584 
Q 2916 3584 3314 3078 
Q 3713 2572 3713 1747 
Q 3713 922 3314 415 
Q 2916 -91 2278 -91 
Q 1894 -91 1617 61 
Q 1341 213 1159 525 
z
M 3116 1747 
Q 3116 2381 2855 2742 
Q 2594 3103 2138 3103 
Q 1681 3103 1420 2742 
Q 1159 2381 1159 1747 
Q 1159 1113 1420 752 
Q 1681 391 2138 391 
Q 2594 391 2855 752 
Q 3116 1113 3116 1747 
z
" transform="scale(0.015625)"/>
      <path id="DejaVuSans-6f" d="M 1959 3097 
Q 1497 3097 1228 2736 
Q 959 2375 959 1747 
Q 959 1119 1226 758 
Q 1494 397 1959 397 
Q 2419 397 2687 759 
Q 2956 1122 2956 1747 
Q 2956 2369 2687 2733 
Q 2419 3097 1959 3097 
z
M 1959 3584 
Q 2709 3584 3137 3096 
Q 3566 2609 3566 1747 
Q 3566 888 3137 398 
Q 2709 -91 1959 -91 
Q 1206 -91 779 398 
Q 353 888 353 1747 
Q 353 2609 779 3096 
Q 1206 3584 1959 3584 
z
" transform="scale(0.015625)"/>
     </defs>
     <use xlink:href="#DejaVuSans-64"/>
     <use xlink:href="#DejaVuSans-61" x="63.476562"/>
     <use xlink:href="#DejaVuSans-69" x="124.755859"/>
     <use xlink:href="#DejaVuSans-6c" x="152.539062"/>
     <use xlink:href="#DejaVuSans-79" x="180.322266"/>
     <use xlink:href="#DejaVuSans-5f" x="239.501953"/>
     <use xlink:href="#DejaVuSans-72" x="289.501953"/>
     <use xlink:href="#DejaVuSans-65" x="328.365234"/>
     <use xlink:href="#DejaVuSans-70" x="389.888672"/>
     <use xlink:href="#DejaVuSans-6f" x="453.365234"/>
     <use xlink:href="#DejaVuSans-72" x="514.546875"/>
     <use xlink:href="#DejaVuSans-74" x="555.660156"/>
    </g>
   </g>
   <g id="legend_1">
    <g id="patch_7">
     <path d="M 64.6 152.218875 
L 178.64375 152.218875 
Q 180.64375 152.218875 180.64375 150.218875 
L 180.64375 48.472 
Q 180.64375 46.472 178.64375 46.472 
L 64.6 46.472 
Q 62.6 46.472 62.6 48.472 
L 62.6 150.218875 
Q 62.6 152.218875 64.6 152.218875 
z
" style="fill: #ffffff; opacity: 0.8; stroke: #cccccc; stroke-linejoin: miter"/>
    </g>
    <g id="line2d_23">
     <path d="M 66.6 54.570437 
L 76.6 54.570437 
L 86.6 54.570437 
" style="fill: none; stroke: #0000ff; stroke-opacity: 0.9; stroke-width: 2; stroke-linecap: square"/>
    </g>
    <g id="text_18">
     <!-- alpaca -->
     <g transform="translate(94.6 58.070437)scale(0.1 -0.1)">
      <defs>
       <path id="DejaVuSans-63" d="M 3122 3366 
L 3122 2828 
Q 2878 2963 2633 3030 
Q 2388 3097 2138 3097 
Q 1578 3097 1268 2742 
Q 959 2388 959 1747 
Q 959 1106 1268 751 
Q 1578 397 2138 397 
Q 2388 397 2633 464 
Q 2878 531 3122 666 
L 3122 134 
Q 2881 22 2623 -34 
Q 2366 -91 2075 -91 
Q 1284 -91 818 406 
Q 353 903 353 1747 
Q 353 2603 823 3093 
Q 1294 3584 2113 3584 
Q 2378 3584 2631 3529 
Q 2884 3475 3122 3366 
z
" transform="scale(0.015625)"/>
      </defs>
      <use xlink:href="#DejaVuSans-61"/>
      <use xlink:href="#DejaVuSans-6c" x="61.279297"/>
      <use xlink:href="#DejaVuSans-70" x="89.0625"/>
      <use xlink:href="#DejaVuSans-61" x="152.539062"/>
      <use xlink:href="#DejaVuSans-63" x="213.818359"/>
      <use xlink:href="#DejaVuSans-61" x="268.798828"/>
     </g>
    </g>
    <g id="line2d_24">
     <path d="M 66.6 69.248562 
L 76.6 69.248562 
L 86.6 69.248562 
" style="fill: none; stroke: #ff0000; stroke-opacity: 0.9; stroke-width: 2; stroke-linecap: square"/>
    </g>
    <g id="text_19">
     <!-- mattress -->
     <g transform="translate(94.6 72.748562)scale(0.1 -0.1)">
      <defs>
       <path id="DejaVuSans-6d" d="M 3328 2828 
Q 3544 3216 3844 3400 
Q 4144 3584 4550 3584 
Q 5097 3584 5394 3201 
Q 5691 2819 5691 2113 
L 5691 0 
L 5113 0 
L 5113 2094 
Q 5113 2597 4934 2840 
Q 4756 3084 4391 3084 
Q 3944 3084 3684 2787 
Q 3425 2491 3425 1978 
L 3425 0 
L 2847 0 
L 2847 2094 
Q 2847 2600 2669 2842 
Q 2491 3084 2119 3084 
Q 1678 3084 1418 2786 
Q 1159 2488 1159 1978 
L 1159 0 
L 581 0 
L 581 3500 
L 1159 3500 
L 1159 2956 
Q 1356 3278 1631 3431 
Q 1906 3584 2284 3584 
Q 2666 3584 2933 3390 
Q 3200 3197 3328 2828 
z
" transform="scale(0.015625)"/>
       <path id="DejaVuSans-73" d="M 2834 3397 
L 2834 2853 
Q 2591 2978 2328 3040 
Q 2066 3103 1784 3103 
Q 1356 3103 1142 2972 
Q 928 2841 928 2578 
Q 928 2378 1081 2264 
Q 1234 2150 1697 2047 
L 1894 2003 
Q 2506 1872 2764 1633 
Q 3022 1394 3022 966 
Q 3022 478 2636 193 
Q 2250 -91 1575 -91 
Q 1294 -91 989 -36 
Q 684 19 347 128 
L 347 722 
Q 666 556 975 473 
Q 1284 391 1588 391 
Q 1994 391 2212 530 
Q 2431 669 2431 922 
Q 2431 1156 2273 1281 
Q 2116 1406 1581 1522 
L 1381 1569 
Q 847 1681 609 1914 
Q 372 2147 372 2553 
Q 372 3047 722 3315 
Q 1072 3584 1716 3584 
Q 2034 3584 2315 3537 
Q 2597 3491 2834 3397 
z
" transform="scale(0.015625)"/>
      </defs>
      <use xlink:href="#DejaVuSans-6d"/>
      <use xlink:href="#DejaVuSans-61" x="97.412109"/>
      <use xlink:href="#DejaVuSans-74" x="158.691406"/>
      <use xlink:href="#DejaVuSans-74" x="197.900391"/>
      <use xlink:href="#DejaVuSans-72" x="237.109375"/>
      <use xlink:href="#DejaVuSans-65" x="275.972656"/>
      <use xlink:href="#DejaVuSans-73" x="337.496094"/>
      <use xlink:href="#DejaVuSans-73" x="389.595703"/>
     </g>
    </g>
    <g id="line2d_25">
     <path d="M 66.6 83.926687 
L 76.6 83.926687 
L 86.6 83.926687 
" style="fill: none; stroke: #ec5283; stroke-width: 2; stroke-linecap: square"/>
    </g>
    <g id="text_20">
     <!-- daily-close-rebal -->
     <g transform="translate(94.6 87.426687)scale(0.1 -0.1)">
      <defs>
       <path id="DejaVuSans-62" d="M 3116 1747 
Q 3116 2381 2855 2742 
Q 2594 3103 2138 3103 
Q 1681 3103 1420 2742 
Q 1159 2381 1159 1747 
Q 1159 1113 1420 752 
Q 1681 391 2138 391 
Q 2594 391 2855 752 
Q 3116 1113 3116 1747 
z
M 1159 2969 
Q 1341 3281 1617 3432 
Q 1894 3584 2278 3584 
Q 2916 3584 3314 3078 
Q 3713 2572 3713 1747 
Q 3713 922 3314 415 
Q 2916 -91 2278 -91 
Q 1894 -91 1617 61 
Q 1341 213 1159 525 
L 1159 0 
L 581 0 
L 581 4863 
L 1159 4863 
L 1159 2969 
z
" transform="scale(0.015625)"/>
      </defs>
      <use xlink:href="#DejaVuSans-64"/>
      <use xlink:href="#DejaVuSans-61" x="63.476562"/>
      <use xlink:href="#DejaVuSans-69" x="124.755859"/>
      <use xlink:href="#DejaVuSans-6c" x="152.539062"/>
      <use xlink:href="#DejaVuSans-79" x="180.322266"/>
      <use xlink:href="#DejaVuSans-2d" x="237.751953"/>
      <use xlink:href="#DejaVuSans-63" x="273.835938"/>
      <use xlink:href="#DejaVuSans-6c" x="328.816406"/>
      <use xlink:href="#DejaVuSans-6f" x="356.599609"/>
      <use xlink:href="#DejaVuSans-73" x="417.78125"/>
      <use xlink:href="#DejaVuSans-65" x="469.880859"/>
      <use xlink:href="#DejaVuSans-2d" x="531.404297"/>
      <use xlink:href="#DejaVuSans-72" x="567.488281"/>
      <use xlink:href="#DejaVuSans-65" x="606.351562"/>
      <use xlink:href="#DejaVuSans-62" x="667.875"/>
      <use xlink:href="#DejaVuSans-61" x="731.351562"/>
      <use xlink:href="#DejaVuSans-6c" x="792.630859"/>
     </g>
    </g>
    <g id="line2d_26">
     <path d="M 66.6 98.604812 
L 76.6 98.604812 
L 86.6 98.604812 
" style="fill: none; stroke: #ff8040; stroke-opacity: 0.9; stroke-width: 2; stroke-linecap: square"/>
    </g>
    <g id="text_21">
     <!-- trader-0850 -->
     <g transform="translate(94.6 102.104812)scale(0.1 -0.1)">
      <defs>
       <path id="DejaVuSans-38" d="M 2034 2216 
Q 1584 2216 1326 1975 
Q 1069 1734 1069 1313 
Q 1069 891 1326 650 
Q 1584 409 2034 409 
Q 2484 409 2743 651 
Q 3003 894 3003 1313 
Q 3003 1734 2745 1975 
Q 2488 2216 2034 2216 
z
M 1403 2484 
Q 997 2584 770 2862 
Q 544 3141 544 3541 
Q 544 4100 942 4425 
Q 1341 4750 2034 4750 
Q 2731 4750 3128 4425 
Q 3525 4100 3525 3541 
Q 3525 3141 3298 2862 
Q 3072 2584 2669 2484 
Q 3125 2378 3379 2068 
Q 3634 1759 3634 1313 
Q 3634 634 3220 271 
Q 2806 -91 2034 -91 
Q 1263 -91 848 271 
Q 434 634 434 1313 
Q 434 1759 690 2068 
Q 947 2378 1403 2484 
z
M 1172 3481 
Q 1172 3119 1398 2916 
Q 1625 2713 2034 2713 
Q 2441 2713 2670 2916 
Q 2900 3119 2900 3481 
Q 2900 3844 2670 4047 
Q 2441 4250 2034 4250 
Q 1625 4250 1398 4047 
Q 1172 3844 1172 3481 
z
" transform="scale(0.015625)"/>
      </defs>
      <use xlink:href="#DejaVuSans-74"/>
      <use xlink:href="#DejaVuSans-72" x="39.208984"/>
      <use xlink:href="#DejaVuSans-61" x="80.322266"/>
      <use xlink:href="#DejaVuSans-64" x="141.601562"/>
      <use xlink:href="#DejaVuSans-65" x="205.078125"/>
      <use xlink:href="#DejaVuSans-72" x="266.601562"/>
      <use xlink:href="#DejaVuSans-2d" x="301.339844"/>
      <use xlink:href="#DejaVuSans-30" x="337.423828"/>
      <use xlink:href="#DejaVuSans-38" x="401.046875"/>
      <use xlink:href="#DejaVuSans-35" x="464.669922"/>
      <use xlink:href="#DejaVuSans-30" x="528.292969"/>
     </g>
    </g>
    <g id="line2d_27">
     <path d="M 66.6 113.282937 
L 76.6 113.282937 
L 86.6 113.282937 
" style="fill: none; stroke: #a5b9cf; stroke-width: 2; stroke-linecap: square"/>
    </g>
    <g id="text_22">
     <!-- default-cfg -->
     <g transform="translate(94.6 116.782937)scale(0.1 -0.1)">
      <defs>
       <path id="DejaVuSans-66" d="M 2375 4863 
L 2375 4384 
L 1825 4384 
Q 1516 4384 1395 4259 
Q 1275 4134 1275 3809 
L 1275 3500 
L 2222 3500 
L 2222 3053 
L 1275 3053 
L 1275 0 
L 697 0 
L 697 3053 
L 147 3053 
L 147 3500 
L 697 3500 
L 697 3744 
Q 697 4328 969 4595 
Q 1241 4863 1831 4863 
L 2375 4863 
z
" transform="scale(0.015625)"/>
       <path id="DejaVuSans-75" d="M 544 1381 
L 544 3500 
L 1119 3500 
L 1119 1403 
Q 1119 906 1312 657 
Q 1506 409 1894 409 
Q 2359 409 2629 706 
Q 2900 1003 2900 1516 
L 2900 3500 
L 3475 3500 
L 3475 0 
L 2900 0 
L 2900 538 
Q 2691 219 2414 64 
Q 2138 -91 1772 -91 
Q 1169 -91 856 284 
Q 544 659 544 1381 
z
M 1991 3584 
L 1991 3584 
z
" transform="scale(0.015625)"/>
       <path id="DejaVuSans-67" d="M 2906 1791 
Q 2906 2416 2648 2759 
Q 2391 3103 1925 3103 
Q 1463 3103 1205 2759 
Q 947 2416 947 1791 
Q 947 1169 1205 825 
Q 1463 481 1925 481 
Q 2391 481 2648 825 
Q 2906 1169 2906 1791 
z
M 3481 434 
Q 3481 -459 3084 -895 
Q 2688 -1331 1869 -1331 
Q 1566 -1331 1297 -1286 
Q 1028 -1241 775 -1147 
L 775 -588 
Q 1028 -725 1275 -790 
Q 1522 -856 1778 -856 
Q 2344 -856 2625 -561 
Q 2906 -266 2906 331 
L 2906 616 
Q 2728 306 2450 153 
Q 2172 0 1784 0 
Q 1141 0 747 490 
Q 353 981 353 1791 
Q 353 2603 747 3093 
Q 1141 3584 1784 3584 
Q 2172 3584 2450 3431 
Q 2728 3278 2906 2969 
L 2906 3500 
L 3481 3500 
L 3481 434 
z
" transform="scale(0.015625)"/>
      </defs>
      <use xlink:href="#DejaVuSans-64"/>
      <use xlink:href="#DejaVuSans-65" x="63.476562"/>
      <use xlink:href="#DejaVuSans-66" x="125"/>
      <use xlink:href="#DejaVuSans-61" x="160.205078"/>
      <use xlink:href="#DejaVuSans-75" x="221.484375"/>
      <use xlink:href="#DejaVuSans-6c" x="284.863281"/>
      <use xlink:href="#DejaVuSans-74" x="312.646484"/>
      <use xlink:href="#DejaVuSans-2d" x="351.855469"/>
      <use xlink:href="#DejaVuSans-63" x="387.939453"/>
      <use xlink:href="#DejaVuSans-66" x="442.919922"/>
      <use xlink:href="#DejaVuSans-67" x="478.125"/>
     </g>
    </g>
    <g id="line2d_28">
     <path d="M 66.6 127.961062 
L 76.6 127.961062 
L 86.6 127.961062 
" style="fill: none; stroke: #0d0d0d; stroke-opacity: 0.25; stroke-width: 2; stroke-linecap: square"/>
    </g>
    <g id="text_23">
     <!-- rando-min -->
     <g transform="translate(94.6 131.461062)scale(0.1 -0.1)">
      <defs>
       <path id="DejaVuSans-6e" d="M 3513 2113 
L 3513 0 
L 2938 0 
L 2938 2094 
Q 2938 2591 2744 2837 
Q 2550 3084 2163 3084 
Q 1697 3084 1428 2787 
Q 1159 2491 1159 1978 
L 1159 0 
L 581 0 
L 581 3500 
L 1159 3500 
L 1159 2956 
Q 1366 3272 1645 3428 
Q 1925 3584 2291 3584 
Q 2894 3584 3203 3211 
Q 3513 2838 3513 2113 
z
" transform="scale(0.015625)"/>
      </defs>
      <use xlink:href="#DejaVuSans-72"/>
      <use xlink:href="#DejaVuSans-61" x="41.113281"/>
      <use xlink:href="#DejaVuSans-6e" x="102.392578"/>
      <use xlink:href="#DejaVuSans-64" x="165.771484"/>
      <use xlink:href="#DejaVuSans-6f" x="229.248047"/>
      <use xlink:href="#DejaVuSans-2d" x="292.304688"/>
      <use xlink:href="#DejaVuSans-6d" x="328.388672"/>
      <use xlink:href="#DejaVuSans-69" x="425.800781"/>
      <use xlink:href="#DejaVuSans-6e" x="453.583984"/>
     </g>
    </g>
    <g id="line2d_29">
     <path d="M 66.6 142.639187 
L 76.6 142.639187 
L 86.6 142.639187 
" style="fill: none; stroke: #0d0d0d; stroke-opacity: 0.25; stroke-width: 2; stroke-linecap: square"/>
    </g>
    <g id="text_24">
     <!-- rando-max -->
     <g transform="translate(94.6 146.139187)scale(0.1 -0.1)">
      <defs>
       <path id="DejaVuSans-78" d="M 3513 3500 
L 2247 1797 
L 3578 0 
L 2900 0 
L 1881 1375 
L 863 0 
L 184 0 
L 1544 1831 
L 300 3500 
L 978 3500 
L 1906 2253 
L 2834 3500 
L 3513 3500 
z
" transform="scale(0.015625)"/>
      </defs>
      <use xlink:href="#DejaVuSans-72"/>
      <use xlink:href="#DejaVuSans-61" x="41.113281"/>
      <use xlink:href="#DejaVuSans-6e" x="102.392578"/>
      <use xlink:href="#DejaVuSans-64" x="165.771484"/>
      <use xlink:href="#DejaVuSans-6f" x="229.248047"/>
      <use xlink:href="#DejaVuSans-2d" x="292.304688"/>
      <use xlink:href="#DejaVuSans-6d" x="328.388672"/>
      <use xlink:href="#DejaVuSans-61" x="425.800781"/>
      <use xlink:href="#DejaVuSans-78" x="487.080078"/>
     </g>
    </g>
   </g>
  </g>
 </g>
 <defs>
  <clipPath id="p5bc4fd5dac">
   <rect x="57.6" y="41.472" width="357.12" height="235.008"/>
  </clipPath>
 </defs>
</svg>
