<?xml version="1.0" encoding="utf-8" standalone="no"?>
<!DOCTYPE svg PUBLIC "-//W3C//DTD SVG 1.1//EN"
  "http://www.w3.org/Graphics/SVG/1.1/DTD/svg11.dtd">
<svg xmlns:xlink="http://www.w3.org/1999/xlink" width="460.8pt" height="345.6pt" viewBox="0 0 460.8 345.6" xmlns="http://www.w3.org/2000/svg" version="1.1">
 <metadata>
  <rdf:RDF xmlns:dc="http://purl.org/dc/elements/1.1/" xmlns:cc="http://creativecommons.org/ns#" xmlns:rdf="http://www.w3.org/1999/02/22-rdf-syntax-ns#">
   <cc:Work>
    <dc:type rdf:resource="http://purl.org/dc/dcmitype/StillImage"/>
    <dc:date>2022-02-16T02:02:23.028410</dc:date>
    <dc:format>image/svg+xml</dc:format>
    <dc:creator>
     <cc:Agent>
      <dc:title>Matplotlib v3.5.0, https://matplotlib.org/</dc:title>
     </cc:Agent>
    </dc:creator>
   </cc:Work>
  </rdf:RDF>
 </metadata>
 <defs>
  <style type="text/css">*{stroke-linejoin: round; stroke-linecap: butt}</style>
 </defs>
 <g id="figure_1">
  <g id="patch_1">
   <path d="M 0 345.6 
L 460.8 345.6 
L 460.8 0 
L 0 0 
z
" style="fill: #ffffff"/>
  </g>
  <g id="axes_1">
   <g id="patch_2">
    <path d="M 57.6 276.48 
L 414.72 276.48 
L 414.72 41.472 
L 57.6 41.472 
z
" style="fill: #ffffff"/>
   </g>
   <g id="matplotlib.axis_1">
    <g id="xtick_1">
     <g id="line2d_1">
      <defs>
       <path id="mf9419f3958" d="M 0 0 
L 0 3.5 
" style="stroke: #000000; stroke-width: 0.8"/>
      </defs>
      <g>
       <use xlink:href="#mf9419f3958" x="73.832727" y="276.48" style="stroke: #000000; stroke-width: 0.8"/>
      </g>
     </g>
     <g id="text_1">
      <!-- 2021-12-01 -->
      <g transform="translate(22.463276 319.118252)rotate(-30)scale(0.1 -0.1)">
       <defs>
        <path id="DejaVuSans-32" d="M 1228 531 
L 3431 531 
L 3431 0 
L 469 0 
L 469 531 
Q 828 903 1448 1529 
Q 2069 2156 2228 2338 
Q 2531 2678 2651 2914 
Q 2772 3150 2772 3378 
Q 2772 3750 2511 3984 
Q 2250 4219 1831 4219 
Q 1534 4219 1204 4116 
Q 875 4013 500 3803 
L 500 4441 
Q 881 4594 1212 4672 
Q 1544 4750 1819 4750 
Q 2544 4750 2975 4387 
Q 3406 4025 3406 3419 
Q 3406 3131 3298 2873 
Q 3191 2616 2906 2266 
Q 2828 2175 2409 1742 
Q 1991 1309 1228 531 
z
" transform="scale(0.015625)"/>
        <path id="DejaVuSans-30" d="M 2034 4250 
Q 1547 4250 1301 3770 
Q 1056 3291 1056 2328 
Q 1056 1369 1301 889 
Q 1547 409 2034 409 
Q 2525 409 2770 889 
Q 3016 1369 3016 2328 
Q 3016 3291 2770 3770 
Q 2525 4250 2034 4250 
z
M 2034 4750 
Q 2819 4750 3233 4129 
Q 3647 3509 3647 2328 
Q 3647 1150 3233 529 
Q 2819 -91 2034 -91 
Q 1250 -91 836 529 
Q 422 1150 422 2328 
Q 422 3509 836 4129 
Q 1250 4750 2034 4750 
z
" transform="scale(0.015625)"/>
        <path id="DejaVuSans-31" d="M 794 531 
L 1825 531 
L 1825 4091 
L 703 3866 
L 703 4441 
L 1819 4666 
L 2450 4666 
L 2450 531 
L 3481 531 
L 3481 0 
L 794 0 
L 794 531 
z
" transform="scale(0.015625)"/>
        <path id="DejaVuSans-2d" d="M 313 2009 
L 1997 2009 
L 1997 1497 
L 313 1497 
L 313 2009 
z
" transform="scale(0.015625)"/>
       </defs>
       <use xlink:href="#DejaVuSans-32"/>
       <use xlink:href="#DejaVuSans-30" x="63.623047"/>
       <use xlink:href="#DejaVuSans-32" x="127.246094"/>
       <use xlink:href="#DejaVuSans-31" x="190.869141"/>
       <use xlink:href="#DejaVuSans-2d" x="254.492188"/>
       <use xlink:href="#DejaVuSans-31" x="290.576172"/>
       <use xlink:href="#DejaVuSans-32" x="354.199219"/>
       <use xlink:href="#DejaVuSans-2d" x="417.822266"/>
       <use xlink:href="#DejaVuSans-30" x="453.90625"/>
       <use xlink:href="#DejaVuSans-31" x="517.529297"/>
      </g>
     </g>
    </g>
    <g id="xtick_2">
     <g id="line2d_2">
      <g>
       <use xlink:href="#mf9419f3958" x="133.637512" y="276.48" style="stroke: #000000; stroke-width: 0.8"/>
      </g>
     </g>
     <g id="text_2">
      <!-- 2021-12-15 -->
      <g transform="translate(82.268061 319.118252)rotate(-30)scale(0.1 -0.1)">
       <defs>
        <path id="DejaVuSans-35" d="M 691 4666 
L 3169 4666 
L 3169 4134 
L 1269 4134 
L 1269 2991 
Q 1406 3038 1543 3061 
Q 1681 3084 1819 3084 
Q 2600 3084 3056 2656 
Q 3513 2228 3513 1497 
Q 3513 744 3044 326 
Q 2575 -91 1722 -91 
Q 1428 -91 1123 -41 
Q 819 9 494 109 
L 494 744 
Q 775 591 1075 516 
Q 1375 441 1709 441 
Q 2250 441 2565 725 
Q 2881 1009 2881 1497 
Q 2881 1984 2565 2268 
Q 2250 2553 1709 2553 
Q 1456 2553 1204 2497 
Q 953 2441 691 2322 
L 691 4666 
z
" transform="scale(0.015625)"/>
       </defs>
       <use xlink:href="#DejaVuSans-32"/>
       <use xlink:href="#DejaVuSans-30" x="63.623047"/>
       <use xlink:href="#DejaVuSans-32" x="127.246094"/>
       <use xlink:href="#DejaVuSans-31" x="190.869141"/>
       <use xlink:href="#DejaVuSans-2d" x="254.492188"/>
       <use xlink:href="#DejaVuSans-31" x="290.576172"/>
       <use xlink:href="#DejaVuSans-32" x="354.199219"/>
       <use xlink:href="#DejaVuSans-2d" x="417.822266"/>
       <use xlink:href="#DejaVuSans-31" x="453.90625"/>
       <use xlink:href="#DejaVuSans-35" x="517.529297"/>
      </g>
     </g>
    </g>
    <g id="xtick_3">
     <g id="line2d_3">
      <g>
       <use xlink:href="#mf9419f3958" x="206.257608" y="276.48" style="stroke: #000000; stroke-width: 0.8"/>
      </g>
     </g>
     <g id="text_3">
      <!-- 2022-01-01 -->
      <g transform="translate(154.888156 319.118252)rotate(-30)scale(0.1 -0.1)">
       <use xlink:href="#DejaVuSans-32"/>
       <use xlink:href="#DejaVuSans-30" x="63.623047"/>
       <use xlink:href="#DejaVuSans-32" x="127.246094"/>
       <use xlink:href="#DejaVuSans-32" x="190.869141"/>
       <use xlink:href="#DejaVuSans-2d" x="254.492188"/>
       <use xlink:href="#DejaVuSans-30" x="290.576172"/>
       <use xlink:href="#DejaVuSans-31" x="354.199219"/>
       <use xlink:href="#DejaVuSans-2d" x="417.822266"/>
       <use xlink:href="#DejaVuSans-30" x="453.90625"/>
       <use xlink:href="#DejaVuSans-31" x="517.529297"/>
      </g>
     </g>
    </g>
    <g id="xtick_4">
     <g id="line2d_4">
      <g>
       <use xlink:href="#mf9419f3958" x="266.062392" y="276.48" style="stroke: #000000; stroke-width: 0.8"/>
      </g>
     </g>
     <g id="text_4">
      <!-- 2022-01-15 -->
      <g transform="translate(214.692941 319.118252)rotate(-30)scale(0.1 -0.1)">
       <use xlink:href="#DejaVuSans-32"/>
       <use xlink:href="#DejaVuSans-30" x="63.623047"/>
       <use xlink:href="#DejaVuSans-32" x="127.246094"/>
       <use xlink:href="#DejaVuSans-32" x="190.869141"/>
       <use xlink:href="#DejaVuSans-2d" x="254.492188"/>
       <use xlink:href="#DejaVuSans-30" x="290.576172"/>
       <use xlink:href="#DejaVuSans-31" x="354.199219"/>
       <use xlink:href="#DejaVuSans-2d" x="417.822266"/>
       <use xlink:href="#DejaVuSans-31" x="453.90625"/>
       <use xlink:href="#DejaVuSans-35" x="517.529297"/>
      </g>
     </g>
    </g>
    <g id="xtick_5">
     <g id="line2d_5">
      <g>
       <use xlink:href="#mf9419f3958" x="338.682488" y="276.48" style="stroke: #000000; stroke-width: 0.8"/>
      </g>
     </g>
     <g id="text_5">
      <!-- 2022-02-01 -->
      <g transform="translate(287.313037 319.118252)rotate(-30)scale(0.1 -0.1)">
       <use xlink:href="#DejaVuSans-32"/>
       <use xlink:href="#DejaVuSans-30" x="63.623047"/>
       <use xlink:href="#DejaVuSans-32" x="127.246094"/>
       <use xlink:href="#DejaVuSans-32" x="190.869141"/>
       <use xlink:href="#DejaVuSans-2d" x="254.492188"/>
       <use xlink:href="#DejaVuSans-30" x="290.576172"/>
       <use xlink:href="#DejaVuSans-32" x="354.199219"/>
       <use xlink:href="#DejaVuSans-2d" x="417.822266"/>
       <use xlink:href="#DejaVuSans-30" x="453.90625"/>
       <use xlink:href="#DejaVuSans-31" x="517.529297"/>
      </g>
     </g>
    </g>
    <g id="xtick_6">
     <g id="line2d_6">
      <g>
       <use xlink:href="#mf9419f3958" x="398.487273" y="276.48" style="stroke: #000000; stroke-width: 0.8"/>
      </g>
     </g>
     <g id="text_6">
      <!-- 2022-02-15 -->
      <g transform="translate(347.117821 319.118252)rotate(-30)scale(0.1 -0.1)">
       <use xlink:href="#DejaVuSans-32"/>
       <use xlink:href="#DejaVuSans-30" x="63.623047"/>
       <use xlink:href="#DejaVuSans-32" x="127.246094"/>
       <use xlink:href="#DejaVuSans-32" x="190.869141"/>
       <use xlink:href="#DejaVuSans-2d" x="254.492188"/>
       <use xlink:href="#DejaVuSans-30" x="290.576172"/>
       <use xlink:href="#DejaVuSans-32" x="354.199219"/>
       <use xlink:href="#DejaVuSans-2d" x="417.822266"/>
       <use xlink:href="#DejaVuSans-31" x="453.90625"/>
       <use xlink:href="#DejaVuSans-35" x="517.529297"/>
      </g>
     </g>
    </g>
    <g id="text_7">
     <!-- date -->
     <g transform="translate(224.885 332.517752)scale(0.1 -0.1)">
      <defs>
       <path id="DejaVuSans-64" d="M 2906 2969 
L 2906 4863 
L 3481 4863 
L 3481 0 
L 2906 0 
L 2906 525 
Q 2725 213 2448 61 
Q 2172 -91 1784 -91 
Q 1150 -91 751 415 
Q 353 922 353 1747 
Q 353 2572 751 3078 
Q 1150 3584 1784 3584 
Q 2172 3584 2448 3432 
Q 2725 3281 2906 2969 
z
M 947 1747 
Q 947 1113 1208 752 
Q 1469 391 1925 391 
Q 2381 391 2643 752 
Q 2906 1113 2906 1747 
Q 2906 2381 2643 2742 
Q 2381 3103 1925 3103 
Q 1469 3103 1208 2742 
Q 947 2381 947 1747 
z
" transform="scale(0.015625)"/>
       <path id="DejaVuSans-61" d="M 2194 1759 
Q 1497 1759 1228 1600 
Q 959 1441 959 1056 
Q 959 750 1161 570 
Q 1363 391 1709 391 
Q 2188 391 2477 730 
Q 2766 1069 2766 1631 
L 2766 1759 
L 2194 1759 
z
M 3341 1997 
L 3341 0 
L 2766 0 
L 2766 531 
Q 2569 213 2275 61 
Q 1981 -91 1556 -91 
Q 1019 -91 701 211 
Q 384 513 384 1019 
Q 384 1609 779 1909 
Q 1175 2209 1959 2209 
L 2766 2209 
L 2766 2266 
Q 2766 2663 2505 2880 
Q 2244 3097 1772 3097 
Q 1472 3097 1187 3025 
Q 903 2953 641 2809 
L 641 3341 
Q 956 3463 1253 3523 
Q 1550 3584 1831 3584 
Q 2591 3584 2966 3190 
Q 3341 2797 3341 1997 
z
" transform="scale(0.015625)"/>
       <path id="DejaVuSans-74" d="M 1172 4494 
L 1172 3500 
L 2356 3500 
L 2356 3053 
L 1172 3053 
L 1172 1153 
Q 1172 725 1289 603 
Q 1406 481 1766 481 
L 2356 481 
L 2356 0 
L 1766 0 
Q 1100 0 847 248 
Q 594 497 594 1153 
L 594 3053 
L 172 3053 
L 172 3500 
L 594 3500 
L 594 4494 
L 1172 4494 
z
" transform="scale(0.015625)"/>
       <path id="DejaVuSans-65" d="M 3597 1894 
L 3597 1613 
L 953 1613 
Q 991 1019 1311 708 
Q 1631 397 2203 397 
Q 2534 397 2845 478 
Q 3156 559 3463 722 
L 3463 178 
Q 3153 47 2828 -22 
Q 2503 -91 2169 -91 
Q 1331 -91 842 396 
Q 353 884 353 1716 
Q 353 2575 817 3079 
Q 1281 3584 2069 3584 
Q 2775 3584 3186 3129 
Q 3597 2675 3597 1894 
z
M 3022 2063 
Q 3016 2534 2758 2815 
Q 2500 3097 2075 3097 
Q 1594 3097 1305 2825 
Q 1016 2553 972 2059 
L 3022 2063 
z
" transform="scale(0.015625)"/>
      </defs>
      <use xlink:href="#DejaVuSans-64"/>
      <use xlink:href="#DejaVuSans-61" x="63.476562"/>
      <use xlink:href="#DejaVuSans-74" x="124.755859"/>
      <use xlink:href="#DejaVuSans-65" x="163.964844"/>
     </g>
    </g>
   </g>
   <g id="matplotlib.axis_2">
    <g id="ytick_1">
     <g id="line2d_7">
      <defs>
       <path id="m6c2bdba09f" d="M 0 0 
L -3.5 0 
" style="stroke: #000000; stroke-width: 0.8"/>
      </defs>
      <g>
       <use xlink:href="#m6c2bdba09f" x="57.6" y="255.403711" style="stroke: #000000; stroke-width: 0.8"/>
      </g>
     </g>
     <g id="text_8">
      <!-- 100000 -->
      <g transform="translate(12.425 259.20293)scale(0.1 -0.1)">
       <use xlink:href="#DejaVuSans-31"/>
       <use xlink:href="#DejaVuSans-30" x="63.623047"/>
       <use xlink:href="#DejaVuSans-30" x="127.246094"/>
       <use xlink:href="#DejaVuSans-30" x="190.869141"/>
       <use xlink:href="#DejaVuSans-30" x="254.492188"/>
       <use xlink:href="#DejaVuSans-30" x="318.115234"/>
      </g>
     </g>
    </g>
    <g id="ytick_2">
     <g id="line2d_8">
      <g>
       <use xlink:href="#m6c2bdba09f" x="57.6" y="215.763774" style="stroke: #000000; stroke-width: 0.8"/>
      </g>
     </g>
     <g id="text_9">
      <!-- 105000 -->
      <g transform="translate(12.425 219.562993)scale(0.1 -0.1)">
       <use xlink:href="#DejaVuSans-31"/>
       <use xlink:href="#DejaVuSans-30" x="63.623047"/>
       <use xlink:href="#DejaVuSans-35" x="127.246094"/>
       <use xlink:href="#DejaVuSans-30" x="190.869141"/>
       <use xlink:href="#DejaVuSans-30" x="254.492188"/>
       <use xlink:href="#DejaVuSans-30" x="318.115234"/>
      </g>
     </g>
    </g>
    <g id="ytick_3">
     <g id="line2d_9">
      <g>
       <use xlink:href="#m6c2bdba09f" x="57.6" y="176.123837" style="stroke: #000000; stroke-width: 0.8"/>
      </g>
     </g>
     <g id="text_10">
      <!-- 110000 -->
      <g transform="translate(12.425 179.923056)scale(0.1 -0.1)">
       <use xlink:href="#DejaVuSans-31"/>
       <use xlink:href="#DejaVuSans-31" x="63.623047"/>
       <use xlink:href="#DejaVuSans-30" x="127.246094"/>
       <use xlink:href="#DejaVuSans-30" x="190.869141"/>
       <use xlink:href="#DejaVuSans-30" x="254.492188"/>
       <use xlink:href="#DejaVuSans-30" x="318.115234"/>
      </g>
     </g>
    </g>
    <g id="ytick_4">
     <g id="line2d_10">
      <g>
       <use xlink:href="#m6c2bdba09f" x="57.6" y="136.4839" style="stroke: #000000; stroke-width: 0.8"/>
      </g>
     </g>
     <g id="text_11">
      <!-- 115000 -->
      <g transform="translate(12.425 140.283119)scale(0.1 -0.1)">
       <use xlink:href="#DejaVuSans-31"/>
       <use xlink:href="#DejaVuSans-31" x="63.623047"/>
       <use xlink:href="#DejaVuSans-35" x="127.246094"/>
       <use xlink:href="#DejaVuSans-30" x="190.869141"/>
       <use xlink:href="#DejaVuSans-30" x="254.492188"/>
       <use xlink:href="#DejaVuSans-30" x="318.115234"/>
      </g>
     </g>
    </g>
    <g id="ytick_5">
     <g id="line2d_11">
      <g>
       <use xlink:href="#m6c2bdba09f" x="57.6" y="96.843963" style="stroke: #000000; stroke-width: 0.8"/>
      </g>
     </g>
     <g id="text_12">
      <!-- 120000 -->
      <g transform="translate(12.425 100.643181)scale(0.1 -0.1)">
       <use xlink:href="#DejaVuSans-31"/>
       <use xlink:href="#DejaVuSans-32" x="63.623047"/>
       <use xlink:href="#DejaVuSans-30" x="127.246094"/>
       <use xlink:href="#DejaVuSans-30" x="190.869141"/>
       <use xlink:href="#DejaVuSans-30" x="254.492188"/>
       <use xlink:href="#DejaVuSans-30" x="318.115234"/>
      </g>
     </g>
    </g>
    <g id="ytick_6">
     <g id="line2d_12">
      <g>
       <use xlink:href="#m6c2bdba09f" x="57.6" y="57.204026" style="stroke: #000000; stroke-width: 0.8"/>
      </g>
     </g>
     <g id="text_13">
      <!-- 125000 -->
      <g transform="translate(12.425 61.003244)scale(0.1 -0.1)">
       <use xlink:href="#DejaVuSans-31"/>
       <use xlink:href="#DejaVuSans-32" x="63.623047"/>
       <use xlink:href="#DejaVuSans-35" x="127.246094"/>
       <use xlink:href="#DejaVuSans-30" x="190.869141"/>
       <use xlink:href="#DejaVuSans-30" x="254.492188"/>
       <use xlink:href="#DejaVuSans-30" x="318.115234"/>
      </g>
     </g>
    </g>
   </g>
   <g id="line2d_13">
    <path d="M 73.832727 255.403711 
L 78.104498 236.380078 
L 82.376268 243.726647 
L 95.191579 218.142309 
L 99.463349 209.554047 
L 103.73512 200.88783 
L 108.00689 204.136347 
L 112.27866 206.838523 
L 125.093971 224.73492 
L 129.365742 225.895309 
L 133.637512 222.974754 
L 137.909282 231.748645 
L 142.181053 238.769903 
L 154.996364 256.278402 
L 159.268134 220.082878 
L 163.539904 212.707062 
L 167.811675 203.416606 
L 184.898756 194.310358 
L 189.170526 187.652208 
L 193.442297 187.62709 
L 197.714067 185.724277 
L 201.985837 182.306683 
L 214.801148 169.857756 
L 219.072919 155.843871 
L 223.344689 168.698301 
L 227.616459 162.985642 
L 231.88823 152.902201 
L 244.703541 167.711746 
L 248.975311 152.488061 
L 253.247081 155.790367 
L 257.518852 162.680143 
L 261.790622 174.115421 
L 278.877703 177.741863 
L 283.149474 195.857867 
L 287.421244 208.332645 
L 291.693014 230.935484 
L 304.508325 222.014726 
L 308.780096 225.037899 
L 313.051866 240.511683 
L 317.323636 244.465554 
L 321.595407 232.659579 
L 334.410718 208.474622 
L 338.682488 200.938365 
L 342.954258 205.513091 
L 347.226029 220.704525 
L 351.497799 212.825443 
L 364.31311 211.028052 
L 368.58488 193.774215 
L 372.856651 177.398216 
L 377.128421 180.137 
L 381.400191 207.230165 
L 394.215502 211.907712 
L 398.487273 187.030745 
" clip-path="url(#p7e00d4587e)" style="fill: none; stroke: #0000ff; stroke-opacity: 0.9; stroke-width: 2; stroke-linecap: square"/>
   </g>
   <g id="line2d_14">
    <path d="M 73.832727 255.403711 
L 78.104498 226.681592 
L 82.376268 233.604452 
L 95.191579 212.614461 
L 99.463349 202.98733 
L 103.73512 195.566713 
L 108.00689 201.079145 
L 112.27866 197.993513 
L 125.093971 214.294279 
L 129.365742 211.511101 
L 133.637512 206.566663 
L 137.909282 210.767148 
L 142.181053 216.899053 
L 154.996364 231.993506 
L 159.268134 191.611265 
L 163.539904 176.095615 
L 167.811675 166.997908 
L 184.898756 155.481074 
L 189.170526 149.416753 
L 193.442297 150.999574 
L 197.714067 155.157073 
L 201.985837 155.133851 
L 214.801148 144.66825 
L 219.072919 131.165048 
L 223.344689 147.92863 
L 227.616459 139.637619 
L 231.88823 129.541382 
L 244.703541 144.891515 
L 248.975311 128.836973 
L 253.247081 132.236614 
L 257.518852 136.111599 
L 261.790622 141.370364 
L 278.877703 146.021308 
L 283.149474 167.101732 
L 287.421244 188.323043 
L 291.693014 209.896765 
L 304.508325 194.58207 
L 308.780096 191.375373 
L 313.051866 205.335122 
L 317.323636 207.9766 
L 321.595407 191.165513 
L 334.410718 183.086018 
L 338.682488 162.488335 
L 342.954258 165.422188 
L 347.226029 175.344562 
L 351.497799 161.876196 
L 364.31311 165.655528 
L 368.58488 148.931935 
L 372.856651 140.489464 
L 377.128421 136.597141 
L 381.400191 144.857346 
L 394.215502 161.472878 
L 398.487273 138.897514 
" clip-path="url(#p7e00d4587e)" style="fill: none; stroke: #ff0000; stroke-opacity: 0.9; stroke-width: 2; stroke-linecap: square"/>
   </g>
   <g id="line2d_15">
    <path d="M 73.832727 255.403711 
L 78.104498 226.263411 
L 82.376268 233.572646 
L 95.191579 212.801818 
L 99.463349 202.77974 
L 103.73512 195.872912 
L 108.00689 201.527291 
L 112.27866 197.392233 
L 125.093971 213.973768 
L 129.365742 210.849882 
L 133.637512 205.963358 
L 137.909282 210.249083 
L 142.181053 216.77606 
L 154.996364 232.058968 
L 159.268134 191.894586 
L 163.539904 176.883797 
L 167.811675 168.344287 
L 184.898756 156.366231 
L 189.170526 150.270858 
L 193.442297 151.626985 
L 197.714067 155.006573 
L 201.985837 155.213559 
L 214.801148 144.351749 
L 219.072919 130.043566 
L 223.344689 146.412097 
L 227.616459 138.814468 
L 231.88823 127.996467 
L 244.703541 143.932436 
L 248.975311 127.692573 
L 253.247081 130.708537 
L 257.518852 134.591527 
L 261.790622 141.33124 
L 278.877703 146.01671 
L 283.149474 167.148412 
L 287.421244 187.147404 
L 291.693014 209.154035 
L 304.508325 194.542227 
L 308.780096 192.149066 
L 313.051866 205.98127 
L 317.323636 208.770437 
L 321.595407 192.558132 
L 334.410718 181.630927 
L 338.682488 162.252181 
L 342.954258 165.332561 
L 347.226029 176.79828 
L 351.497799 164.24433 
L 364.31311 167.598683 
L 368.58488 150.738646 
L 372.856651 140.664655 
L 377.128421 137.155587 
L 381.400191 148.49517 
L 394.215502 163.000384 
L 398.487273 139.292657 
" clip-path="url(#p7e00d4587e)" style="fill: none; stroke: #ec5283; stroke-width: 2; stroke-linecap: square"/>
   </g>
   <g id="line2d_16">
    <path d="M 73.832727 255.403711 
L 78.104498 227.887499 
L 82.376268 235.191638 
L 95.191579 209.346937 
L 99.463349 200.541448 
L 103.73512 191.81645 
L 108.00689 193.779167 
L 112.27866 196.268368 
L 125.093971 214.399511 
L 129.365742 215.093049 
L 133.637512 212.278001 
L 137.909282 220.836391 
L 142.181053 227.070445 
L 154.996364 243.287131 
L 159.268134 207.800605 
L 163.539904 199.698587 
L 167.811675 190.793757 
L 184.898756 181.712412 
L 189.170526 175.535545 
L 193.442297 174.931356 
L 197.714067 174.291825 
L 201.985837 169.934863 
L 214.801148 157.620218 
L 219.072919 144.300254 
L 223.344689 156.445976 
L 227.616459 150.494784 
L 231.88823 140.34918 
L 244.703541 154.546398 
L 248.975311 139.309286 
L 253.247081 143.121082 
L 257.518852 149.681452 
L 261.790622 160.916337 
L 278.877703 163.884591 
L 283.149474 181.180327 
L 287.421244 193.957816 
L 291.693014 215.777321 
L 304.508325 206.987034 
L 308.780096 209.68125 
L 313.051866 223.43432 
L 317.323636 227.722707 
L 321.595407 215.989431 
L 334.410718 192.336712 
L 338.682488 184.403551 
L 342.954258 189.556221 
L 347.226029 203.919361 
L 351.497799 196.744051 
L 364.31311 193.872868 
L 368.58488 177.607784 
L 372.856651 160.358894 
L 377.128421 163.261028 
L 381.400191 189.782423 
L 394.215502 192.972778 
L 398.487273 167.004737 
" clip-path="url(#p7e00d4587e)" style="fill: none; stroke: #ff8040; stroke-opacity: 0.9; stroke-width: 2; stroke-linecap: square"/>
   </g>
   <g id="line2d_17">
    <path d="M 73.832727 255.403711 
L 78.104498 226.831357 
L 82.376268 234.33776 
L 95.191579 206.727009 
L 99.463349 197.91324 
L 103.73512 188.824012 
L 108.00689 190.979902 
L 112.27866 192.71778 
L 125.093971 210.245845 
L 129.365742 211.697068 
L 133.637512 207.677368 
L 137.909282 217.237055 
L 142.181053 223.153567 
L 154.996364 239.737578 
L 159.268134 202.719134 
L 163.539904 194.400889 
L 167.811675 184.691115 
L 184.898756 175.886737 
L 189.170526 169.019414 
L 193.442297 168.603336 
L 197.714067 167.041159 
L 201.985837 163.015619 
L 214.801148 150.189378 
L 219.072919 135.639485 
L 223.344689 149.027619 
L 227.616459 142.521321 
L 231.88823 131.40119 
L 244.703541 148.004796 
L 248.975311 132.598052 
L 253.247081 135.394621 
L 257.518852 141.724431 
L 261.790622 154.198158 
L 278.877703 158.284447 
L 283.149474 176.938643 
L 287.421244 189.911877 
L 291.693014 212.898594 
L 304.508325 202.403952 
L 308.780096 203.012237 
L 313.051866 217.755589 
L 317.323636 222.556378 
L 321.595407 211.185406 
L 334.410718 185.234704 
L 338.682488 176.740468 
L 342.954258 182.229143 
L 347.226029 197.244957 
L 351.497799 189.50591 
L 364.31311 187.111697 
L 368.58488 169.790976 
L 372.856651 151.868505 
L 377.128421 154.518187 
L 381.400191 182.506915 
L 394.215502 186.086177 
L 398.487273 158.488506 
" clip-path="url(#p7e00d4587e)" style="fill: none; stroke: #a5b9cf; stroke-width: 2; stroke-linecap: square"/>
   </g>
   <g id="line2d_18">
    <path d="M 73.832727 256.19651 
L 78.104498 230.071889 
L 82.376268 242.137491 
L 95.191579 226.589599 
L 99.463349 220.25137 
L 103.73512 214.897146 
L 108.00689 225.009197 
L 112.27866 223.81512 
L 125.093971 244.061625 
L 129.365742 242.733997 
L 133.637512 234.258538 
L 137.909282 238.596012 
L 142.181053 246.627143 
L 154.996364 260.85234 
L 159.268134 230.006407 
L 163.539904 218.853169 
L 167.811675 210.93304 
L 184.898756 201.88365 
L 189.170526 193.064601 
L 193.442297 195.331105 
L 197.714067 195.563523 
L 201.985837 197.306157 
L 214.801148 186.009698 
L 219.072919 173.720178 
L 223.344689 196.056337 
L 227.616459 188.065647 
L 231.88823 175.845567 
L 244.703541 190.159651 
L 248.975311 175.968185 
L 253.247081 180.706524 
L 257.518852 188.13072 
L 261.790622 199.492249 
L 278.877703 199.866273 
L 283.149474 220.231837 
L 287.421244 241.111398 
L 291.693014 260.068523 
L 304.508325 248.268618 
L 308.780096 246.014625 
L 313.051866 260.669236 
L 317.323636 265.797818 
L 321.595407 250.722744 
L 334.410718 246.452699 
L 338.682488 222.038275 
L 342.954258 225.036358 
L 347.226029 237.058425 
L 351.497799 227.424129 
L 364.31311 226.139582 
L 368.58488 212.095537 
L 372.856651 202.942572 
L 377.128421 199.80435 
L 381.400191 212.67323 
L 394.215502 229.438732 
L 398.487273 206.269831 
" clip-path="url(#p7e00d4587e)" style="fill: none; stroke: #0d0d0d; stroke-opacity: 0.25; stroke-width: 2; stroke-linecap: square"/>
   </g>
   <g id="line2d_19">
    <path d="M 73.832727 254.610913 
L 78.104498 222.409806 
L 82.376268 225.722865 
L 95.191579 198.587636 
L 99.463349 187.73903 
L 103.73512 180.331816 
L 108.00689 184.067735 
L 112.27866 174.538039 
L 125.093971 189.074997 
L 129.365742 189.025265 
L 133.637512 185.294265 
L 137.909282 188.693136 
L 142.181053 186.429588 
L 154.996364 204.041594 
L 159.268134 164.761618 
L 163.539904 150.041329 
L 167.811675 139.855732 
L 184.898756 127.422339 
L 189.170526 122.071418 
L 193.442297 123.703307 
L 197.714067 130.36746 
L 201.985837 126.955387 
L 214.801148 113.511133 
L 219.072919 96.208135 
L 223.344689 105.061035 
L 227.616459 98.97349 
L 231.88823 80.381465 
L 244.703541 95.681576 
L 248.975311 78.705101 
L 253.247081 78.925881 
L 257.518852 73.101958 
L 261.790622 87.099497 
L 278.877703 98.02259 
L 283.149474 119.446701 
L 287.421244 136.840773 
L 291.693014 163.114225 
L 304.508325 146.746907 
L 308.780096 138.942784 
L 313.051866 151.819901 
L 317.323636 154.734318 
L 321.595407 138.090272 
L 334.410718 122.656154 
L 338.682488 108.004858 
L 342.954258 111.821632 
L 347.226029 122.836142 
L 351.497799 110.060582 
L 364.31311 115.218995 
L 368.58488 95.801727 
L 372.856651 79.005922 
L 377.128421 81.047457 
L 381.400191 78.738162 
L 394.215502 83.179651 
L 398.487273 52.154182 
" clip-path="url(#p7e00d4587e)" style="fill: none; stroke: #0d0d0d; stroke-opacity: 0.25; stroke-width: 2; stroke-linecap: square"/>
   </g>
   <g id="patch_3">
    <path d="M 57.6 276.48 
L 57.6 41.472 
" style="fill: none; stroke: #000000; stroke-width: 0.8; stroke-linejoin: miter; stroke-linecap: square"/>
   </g>
   <g id="patch_4">
    <path d="M 414.72 276.48 
L 414.72 41.472 
" style="fill: none; stroke: #000000; stroke-width: 0.8; stroke-linejoin: miter; stroke-linecap: square"/>
   </g>
   <g id="patch_5">
    <path d="M 57.6 276.48 
L 414.72 276.48 
" style="fill: none; stroke: #000000; stroke-width: 0.8; stroke-linejoin: miter; stroke-linecap: square"/>
   </g>
   <g id="patch_6">
    <path d="M 57.6 41.472 
L 414.72 41.472 
" style="fill: none; stroke: #000000; stroke-width: 0.8; stroke-linejoin: miter; stroke-linecap: square"/>
   </g>
   <g id="text_14">
    <!-- CHIEFMICKEY5 -->
    <g transform="translate(192.10125 22.034625)scale(0.12 -0.12)">
     <defs>
      <path id="DejaVuSans-43" d="M 4122 4306 
L 4122 3641 
Q 3803 3938 3442 4084 
Q 3081 4231 2675 4231 
Q 1875 4231 1450 3742 
Q 1025 3253 1025 2328 
Q 1025 1406 1450 917 
Q 1875 428 2675 428 
Q 3081 428 3442 575 
Q 3803 722 4122 1019 
L 4122 359 
Q 3791 134 3420 21 
Q 3050 -91 2638 -91 
Q 1578 -91 968 557 
Q 359 1206 359 2328 
Q 359 3453 968 4101 
Q 1578 4750 2638 4750 
Q 3056 4750 3426 4639 
Q 3797 4528 4122 4306 
z
" transform="scale(0.015625)"/>
      <path id="DejaVuSans-48" d="M 628 4666 
L 1259 4666 
L 1259 2753 
L 3553 2753 
L 3553 4666 
L 4184 4666 
L 4184 0 
L 3553 0 
L 3553 2222 
L 1259 2222 
L 1259 0 
L 628 0 
L 628 4666 
z
" transform="scale(0.015625)"/>
      <path id="DejaVuSans-49" d="M 628 4666 
L 1259 4666 
L 1259 0 
L 628 0 
L 628 4666 
z
" transform="scale(0.015625)"/>
      <path id="DejaVuSans-45" d="M 628 4666 
L 3578 4666 
L 3578 4134 
L 1259 4134 
L 1259 2753 
L 3481 2753 
L 3481 2222 
L 1259 2222 
L 1259 531 
L 3634 531 
L 3634 0 
L 628 0 
L 628 4666 
z
" transform="scale(0.015625)"/>
      <path id="DejaVuSans-46" d="M 628 4666 
L 3309 4666 
L 3309 4134 
L 1259 4134 
L 1259 2759 
L 3109 2759 
L 3109 2228 
L 1259 2228 
L 1259 0 
L 628 0 
L 628 4666 
z
" transform="scale(0.015625)"/>
      <path id="DejaVuSans-4d" d="M 628 4666 
L 1569 4666 
L 2759 1491 
L 3956 4666 
L 4897 4666 
L 4897 0 
L 4281 0 
L 4281 4097 
L 3078 897 
L 2444 897 
L 1241 4097 
L 1241 0 
L 628 0 
L 628 4666 
z
" transform="scale(0.015625)"/>
      <path id="DejaVuSans-4b" d="M 628 4666 
L 1259 4666 
L 1259 2694 
L 3353 4666 
L 4166 4666 
L 1850 2491 
L 4331 0 
L 3500 0 
L 1259 2247 
L 1259 0 
L 628 0 
L 628 4666 
z
" transform="scale(0.015625)"/>
      <path id="DejaVuSans-59" d="M -13 4666 
L 666 4666 
L 1959 2747 
L 3244 4666 
L 3922 4666 
L 2272 2222 
L 2272 0 
L 1638 0 
L 1638 2222 
L -13 4666 
z
" transform="scale(0.015625)"/>
     </defs>
     <use xlink:href="#DejaVuSans-43"/>
     <use xlink:href="#DejaVuSans-48" x="69.824219"/>
     <use xlink:href="#DejaVuSans-49" x="145.019531"/>
     <use xlink:href="#DejaVuSans-45" x="174.511719"/>
     <use xlink:href="#DejaVuSans-46" x="237.695312"/>
     <use xlink:href="#DejaVuSans-4d" x="295.214844"/>
     <use xlink:href="#DejaVuSans-49" x="381.494141"/>
     <use xlink:href="#DejaVuSans-43" x="410.986328"/>
     <use xlink:href="#DejaVuSans-4b" x="480.810547"/>
     <use xlink:href="#DejaVuSans-45" x="546.386719"/>
     <use xlink:href="#DejaVuSans-59" x="609.570312"/>
     <use xlink:href="#DejaVuSans-35" x="670.654297"/>
    </g>
    <!-- daily_report -->
    <g transform="translate(200.466563 35.472)scale(0.12 -0.12)">
     <defs>
      <path id="DejaVuSans-69" d="M 603 3500 
L 1178 3500 
L 1178 0 
L 603 0 
L 603 3500 
z
M 603 4863 
L 1178 4863 
L 1178 4134 
L 603 4134 
L 603 4863 
z
" transform="scale(0.015625)"/>
      <path id="DejaVuSans-6c" d="M 603 4863 
L 1178 4863 
L 1178 0 
L 603 0 
L 603 4863 
z
" transform="scale(0.015625)"/>
      <path id="DejaVuSans-79" d="M 2059 -325 
Q 1816 -950 1584 -1140 
Q 1353 -1331 966 -1331 
L 506 -1331 
L 506 -850 
L 844 -850 
Q 1081 -850 1212 -737 
Q 1344 -625 1503 -206 
L 1606 56 
L 191 3500 
L 800 3500 
L 1894 763 
L 2988 3500 
L 3597 3500 
L 2059 -325 
z
" transform="scale(0.015625)"/>
      <path id="DejaVuSans-5f" d="M 3263 -1063 
L 3263 -1509 
L -63 -1509 
L -63 -1063 
L 3263 -1063 
z
" transform="scale(0.015625)"/>
      <path id="DejaVuSans-72" d="M 2631 2963 
Q 2534 3019 2420 3045 
Q 2306 3072 2169 3072 
Q 1681 3072 1420 2755 
Q 1159 2438 1159 1844 
L 1159 0 
L 581 0 
L 581 3500 
L 1159 3500 
L 1159 2956 
Q 1341 3275 1631 3429 
Q 1922 3584 2338 3584 
Q 2397 3584 2469 3576 
Q 2541 3569 2628 3553 
L 2631 2963 
z
" transform="scale(0.015625)"/>
      <path id="DejaVuSans-70" d="M 1159 525 
L 1159 -1331 
L 581 -1331 
L 581 3500 
L 1159 3500 
L 1159 2969 
Q 1341 3281 1617 3432 
Q 1894 3584 2278 3584 
Q 2916 3584 3314 3078 
Q 3713 2572 3713 1747 
Q 3713 922 3314 415 
Q 2916 -91 2278 -91 
Q 1894 -91 1617 61 
Q 1341 213 1159 525 
z
M 3116 1747 
Q 3116 2381 2855 2742 
Q 2594 3103 2138 3103 
Q 1681 3103 1420 2742 
Q 1159 2381 1159 1747 
Q 1159 1113 1420 752 
Q 1681 391 2138 391 
Q 2594 391 2855 752 
Q 3116 1113 3116 1747 
z
" transform="scale(0.015625)"/>
      <path id="DejaVuSans-6f" d="M 1959 3097 
Q 1497 3097 1228 2736 
Q 959 2375 959 1747 
Q 959 1119 1226 758 
Q 1494 397 1959 397 
Q 2419 397 2687 759 
Q 2956 1122 2956 1747 
Q 2956 2369 2687 2733 
Q 2419 3097 1959 3097 
z
M 1959 3584 
Q 2709 3584 3137 3096 
Q 3566 2609 3566 1747 
Q 3566 888 3137 398 
Q 2709 -91 1959 -91 
Q 1206 -91 779 398 
Q 353 888 353 1747 
Q 353 2609 779 3096 
Q 1206 3584 1959 3584 
z
" transform="scale(0.015625)"/>
     </defs>
     <use xlink:href="#DejaVuSans-64"/>
     <use xlink:href="#DejaVuSans-61" x="63.476562"/>
     <use xlink:href="#DejaVuSans-69" x="124.755859"/>
     <use xlink:href="#DejaVuSans-6c" x="152.539062"/>
     <use xlink:href="#DejaVuSans-79" x="180.322266"/>
     <use xlink:href="#DejaVuSans-5f" x="239.501953"/>
     <use xlink:href="#DejaVuSans-72" x="289.501953"/>
     <use xlink:href="#DejaVuSans-65" x="328.365234"/>
     <use xlink:href="#DejaVuSans-70" x="389.888672"/>
     <use xlink:href="#DejaVuSans-6f" x="453.365234"/>
     <use xlink:href="#DejaVuSans-72" x="514.546875"/>
     <use xlink:href="#DejaVuSans-74" x="555.660156"/>
    </g>
   </g>
   <g id="legend_1">
    <g id="patch_7">
     <path d="M 64.6 152.218875 
L 178.64375 152.218875 
Q 180.64375 152.218875 180.64375 150.218875 
L 180.64375 48.472 
Q 180.64375 46.472 178.64375 46.472 
L 64.6 46.472 
Q 62.6 46.472 62.6 48.472 
L 62.6 150.218875 
Q 62.6 152.218875 64.6 152.218875 
z
" style="fill: #ffffff; opacity: 0.8; stroke: #cccccc; stroke-linejoin: miter"/>
    </g>
    <g id="line2d_20">
     <path d="M 66.6 54.570437 
L 76.6 54.570437 
L 86.6 54.570437 
" style="fill: none; stroke: #0000ff; stroke-opacity: 0.9; stroke-width: 2; stroke-linecap: square"/>
    </g>
    <g id="text_15">
     <!-- alpaca -->
     <g transform="translate(94.6 58.070437)scale(0.1 -0.1)">
      <defs>
       <path id="DejaVuSans-63" d="M 3122 3366 
L 3122 2828 
Q 2878 2963 2633 3030 
Q 2388 3097 2138 3097 
Q 1578 3097 1268 2742 
Q 959 2388 959 1747 
Q 959 1106 1268 751 
Q 1578 397 2138 397 
Q 2388 397 2633 464 
Q 2878 531 3122 666 
L 3122 134 
Q 2881 22 2623 -34 
Q 2366 -91 2075 -91 
Q 1284 -91 818 406 
Q 353 903 353 1747 
Q 353 2603 823 3093 
Q 1294 3584 2113 3584 
Q 2378 3584 2631 3529 
Q 2884 3475 3122 3366 
z
" transform="scale(0.015625)"/>
      </defs>
      <use xlink:href="#DejaVuSans-61"/>
      <use xlink:href="#DejaVuSans-6c" x="61.279297"/>
      <use xlink:href="#DejaVuSans-70" x="89.0625"/>
      <use xlink:href="#DejaVuSans-61" x="152.539062"/>
      <use xlink:href="#DejaVuSans-63" x="213.818359"/>
      <use xlink:href="#DejaVuSans-61" x="268.798828"/>
     </g>
    </g>
    <g id="line2d_21">
     <path d="M 66.6 69.248562 
L 76.6 69.248562 
L 86.6 69.248562 
" style="fill: none; stroke: #ff0000; stroke-opacity: 0.9; stroke-width: 2; stroke-linecap: square"/>
    </g>
    <g id="text_16">
     <!-- mattress -->
     <g transform="translate(94.6 72.748562)scale(0.1 -0.1)">
      <defs>
       <path id="DejaVuSans-6d" d="M 3328 2828 
Q 3544 3216 3844 3400 
Q 4144 3584 4550 3584 
Q 5097 3584 5394 3201 
Q 5691 2819 5691 2113 
L 5691 0 
L 5113 0 
L 5113 2094 
Q 5113 2597 4934 2840 
Q 4756 3084 4391 3084 
Q 3944 3084 3684 2787 
Q 3425 2491 3425 1978 
L 3425 0 
L 2847 0 
L 2847 2094 
Q 2847 2600 2669 2842 
Q 2491 3084 2119 3084 
Q 1678 3084 1418 2786 
Q 1159 2488 1159 1978 
L 1159 0 
L 581 0 
L 581 3500 
L 1159 3500 
L 1159 2956 
Q 1356 3278 1631 3431 
Q 1906 3584 2284 3584 
Q 2666 3584 2933 3390 
Q 3200 3197 3328 2828 
z
" transform="scale(0.015625)"/>
       <path id="DejaVuSans-73" d="M 2834 3397 
L 2834 2853 
Q 2591 2978 2328 3040 
Q 2066 3103 1784 3103 
Q 1356 3103 1142 2972 
Q 928 2841 928 2578 
Q 928 2378 1081 2264 
Q 1234 2150 1697 2047 
L 1894 2003 
Q 2506 1872 2764 1633 
Q 3022 1394 3022 966 
Q 3022 478 2636 193 
Q 2250 -91 1575 -91 
Q 1294 -91 989 -36 
Q 684 19 347 128 
L 347 722 
Q 666 556 975 473 
Q 1284 391 1588 391 
Q 1994 391 2212 530 
Q 2431 669 2431 922 
Q 2431 1156 2273 1281 
Q 2116 1406 1581 1522 
L 1381 1569 
Q 847 1681 609 1914 
Q 372 2147 372 2553 
Q 372 3047 722 3315 
Q 1072 3584 1716 3584 
Q 2034 3584 2315 3537 
Q 2597 3491 2834 3397 
z
" transform="scale(0.015625)"/>
      </defs>
      <use xlink:href="#DejaVuSans-6d"/>
      <use xlink:href="#DejaVuSans-61" x="97.412109"/>
      <use xlink:href="#DejaVuSans-74" x="158.691406"/>
      <use xlink:href="#DejaVuSans-74" x="197.900391"/>
      <use xlink:href="#DejaVuSans-72" x="237.109375"/>
      <use xlink:href="#DejaVuSans-65" x="275.972656"/>
      <use xlink:href="#DejaVuSans-73" x="337.496094"/>
      <use xlink:href="#DejaVuSans-73" x="389.595703"/>
     </g>
    </g>
    <g id="line2d_22">
     <path d="M 66.6 83.926687 
L 76.6 83.926687 
L 86.6 83.926687 
" style="fill: none; stroke: #ec5283; stroke-width: 2; stroke-linecap: square"/>
    </g>
    <g id="text_17">
     <!-- daily-close-rebal -->
     <g transform="translate(94.6 87.426687)scale(0.1 -0.1)">
      <defs>
       <path id="DejaVuSans-62" d="M 3116 1747 
Q 3116 2381 2855 2742 
Q 2594 3103 2138 3103 
Q 1681 3103 1420 2742 
Q 1159 2381 1159 1747 
Q 1159 1113 1420 752 
Q 1681 391 2138 391 
Q 2594 391 2855 752 
Q 3116 1113 3116 1747 
z
M 1159 2969 
Q 1341 3281 1617 3432 
Q 1894 3584 2278 3584 
Q 2916 3584 3314 3078 
Q 3713 2572 3713 1747 
Q 3713 922 3314 415 
Q 2916 -91 2278 -91 
Q 1894 -91 1617 61 
Q 1341 213 1159 525 
L 1159 0 
L 581 0 
L 581 4863 
L 1159 4863 
L 1159 2969 
z
" transform="scale(0.015625)"/>
      </defs>
      <use xlink:href="#DejaVuSans-64"/>
      <use xlink:href="#DejaVuSans-61" x="63.476562"/>
      <use xlink:href="#DejaVuSans-69" x="124.755859"/>
      <use xlink:href="#DejaVuSans-6c" x="152.539062"/>
      <use xlink:href="#DejaVuSans-79" x="180.322266"/>
      <use xlink:href="#DejaVuSans-2d" x="237.751953"/>
      <use xlink:href="#DejaVuSans-63" x="273.835938"/>
      <use xlink:href="#DejaVuSans-6c" x="328.816406"/>
      <use xlink:href="#DejaVuSans-6f" x="356.599609"/>
      <use xlink:href="#DejaVuSans-73" x="417.78125"/>
      <use xlink:href="#DejaVuSans-65" x="469.880859"/>
      <use xlink:href="#DejaVuSans-2d" x="531.404297"/>
      <use xlink:href="#DejaVuSans-72" x="567.488281"/>
      <use xlink:href="#DejaVuSans-65" x="606.351562"/>
      <use xlink:href="#DejaVuSans-62" x="667.875"/>
      <use xlink:href="#DejaVuSans-61" x="731.351562"/>
      <use xlink:href="#DejaVuSans-6c" x="792.630859"/>
     </g>
    </g>
    <g id="line2d_23">
     <path d="M 66.6 98.604812 
L 76.6 98.604812 
L 86.6 98.604812 
" style="fill: none; stroke: #ff8040; stroke-opacity: 0.9; stroke-width: 2; stroke-linecap: square"/>
    </g>
    <g id="text_18">
     <!-- trader-0850 -->
     <g transform="translate(94.6 102.104812)scale(0.1 -0.1)">
      <defs>
       <path id="DejaVuSans-38" d="M 2034 2216 
Q 1584 2216 1326 1975 
Q 1069 1734 1069 1313 
Q 1069 891 1326 650 
Q 1584 409 2034 409 
Q 2484 409 2743 651 
Q 3003 894 3003 1313 
Q 3003 1734 2745 1975 
Q 2488 2216 2034 2216 
z
M 1403 2484 
Q 997 2584 770 2862 
Q 544 3141 544 3541 
Q 544 4100 942 4425 
Q 1341 4750 2034 4750 
Q 2731 4750 3128 4425 
Q 3525 4100 3525 3541 
Q 3525 3141 3298 2862 
Q 3072 2584 2669 2484 
Q 3125 2378 3379 2068 
Q 3634 1759 3634 1313 
Q 3634 634 3220 271 
Q 2806 -91 2034 -91 
Q 1263 -91 848 271 
Q 434 634 434 1313 
Q 434 1759 690 2068 
Q 947 2378 1403 2484 
z
M 1172 3481 
Q 1172 3119 1398 2916 
Q 1625 2713 2034 2713 
Q 2441 2713 2670 2916 
Q 2900 3119 2900 3481 
Q 2900 3844 2670 4047 
Q 2441 4250 2034 4250 
Q 1625 4250 1398 4047 
Q 1172 3844 1172 3481 
z
" transform="scale(0.015625)"/>
      </defs>
      <use xlink:href="#DejaVuSans-74"/>
      <use xlink:href="#DejaVuSans-72" x="39.208984"/>
      <use xlink:href="#DejaVuSans-61" x="80.322266"/>
      <use xlink:href="#DejaVuSans-64" x="141.601562"/>
      <use xlink:href="#DejaVuSans-65" x="205.078125"/>
      <use xlink:href="#DejaVuSans-72" x="266.601562"/>
      <use xlink:href="#DejaVuSans-2d" x="301.339844"/>
      <use xlink:href="#DejaVuSans-30" x="337.423828"/>
      <use xlink:href="#DejaVuSans-38" x="401.046875"/>
      <use xlink:href="#DejaVuSans-35" x="464.669922"/>
      <use xlink:href="#DejaVuSans-30" x="528.292969"/>
     </g>
    </g>
    <g id="line2d_24">
     <path d="M 66.6 113.282937 
L 76.6 113.282937 
L 86.6 113.282937 
" style="fill: none; stroke: #a5b9cf; stroke-width: 2; stroke-linecap: square"/>
    </g>
    <g id="text_19">
     <!-- default-cfg -->
     <g transform="translate(94.6 116.782937)scale(0.1 -0.1)">
      <defs>
       <path id="DejaVuSans-66" d="M 2375 4863 
L 2375 4384 
L 1825 4384 
Q 1516 4384 1395 4259 
Q 1275 4134 1275 3809 
L 1275 3500 
L 2222 3500 
L 2222 3053 
L 1275 3053 
L 1275 0 
L 697 0 
L 697 3053 
L 147 3053 
L 147 3500 
L 697 3500 
L 697 3744 
Q 697 4328 969 4595 
Q 1241 4863 1831 4863 
L 2375 4863 
z
" transform="scale(0.015625)"/>
       <path id="DejaVuSans-75" d="M 544 1381 
L 544 3500 
L 1119 3500 
L 1119 1403 
Q 1119 906 1312 657 
Q 1506 409 1894 409 
Q 2359 409 2629 706 
Q 2900 1003 2900 1516 
L 2900 3500 
L 3475 3500 
L 3475 0 
L 2900 0 
L 2900 538 
Q 2691 219 2414 64 
Q 2138 -91 1772 -91 
Q 1169 -91 856 284 
Q 544 659 544 1381 
z
M 1991 3584 
L 1991 3584 
z
" transform="scale(0.015625)"/>
       <path id="DejaVuSans-67" d="M 2906 1791 
Q 2906 2416 2648 2759 
Q 2391 3103 1925 3103 
Q 1463 3103 1205 2759 
Q 947 2416 947 1791 
Q 947 1169 1205 825 
Q 1463 481 1925 481 
Q 2391 481 2648 825 
Q 2906 1169 2906 1791 
z
M 3481 434 
Q 3481 -459 3084 -895 
Q 2688 -1331 1869 -1331 
Q 1566 -1331 1297 -1286 
Q 1028 -1241 775 -1147 
L 775 -588 
Q 1028 -725 1275 -790 
Q 1522 -856 1778 -856 
Q 2344 -856 2625 -561 
Q 2906 -266 2906 331 
L 2906 616 
Q 2728 306 2450 153 
Q 2172 0 1784 0 
Q 1141 0 747 490 
Q 353 981 353 1791 
Q 353 2603 747 3093 
Q 1141 3584 1784 3584 
Q 2172 3584 2450 3431 
Q 2728 3278 2906 2969 
L 2906 3500 
L 3481 3500 
L 3481 434 
z
" transform="scale(0.015625)"/>
      </defs>
      <use xlink:href="#DejaVuSans-64"/>
      <use xlink:href="#DejaVuSans-65" x="63.476562"/>
      <use xlink:href="#DejaVuSans-66" x="125"/>
      <use xlink:href="#DejaVuSans-61" x="160.205078"/>
      <use xlink:href="#DejaVuSans-75" x="221.484375"/>
      <use xlink:href="#DejaVuSans-6c" x="284.863281"/>
      <use xlink:href="#DejaVuSans-74" x="312.646484"/>
      <use xlink:href="#DejaVuSans-2d" x="351.855469"/>
      <use xlink:href="#DejaVuSans-63" x="387.939453"/>
      <use xlink:href="#DejaVuSans-66" x="442.919922"/>
      <use xlink:href="#DejaVuSans-67" x="478.125"/>
     </g>
    </g>
    <g id="line2d_25">
     <path d="M 66.6 127.961062 
L 76.6 127.961062 
L 86.6 127.961062 
" style="fill: none; stroke: #0d0d0d; stroke-opacity: 0.25; stroke-width: 2; stroke-linecap: square"/>
    </g>
    <g id="text_20">
     <!-- rando-min -->
     <g transform="translate(94.6 131.461062)scale(0.1 -0.1)">
      <defs>
       <path id="DejaVuSans-6e" d="M 3513 2113 
L 3513 0 
L 2938 0 
L 2938 2094 
Q 2938 2591 2744 2837 
Q 2550 3084 2163 3084 
Q 1697 3084 1428 2787 
Q 1159 2491 1159 1978 
L 1159 0 
L 581 0 
L 581 3500 
L 1159 3500 
L 1159 2956 
Q 1366 3272 1645 3428 
Q 1925 3584 2291 3584 
Q 2894 3584 3203 3211 
Q 3513 2838 3513 2113 
z
" transform="scale(0.015625)"/>
      </defs>
      <use xlink:href="#DejaVuSans-72"/>
      <use xlink:href="#DejaVuSans-61" x="41.113281"/>
      <use xlink:href="#DejaVuSans-6e" x="102.392578"/>
      <use xlink:href="#DejaVuSans-64" x="165.771484"/>
      <use xlink:href="#DejaVuSans-6f" x="229.248047"/>
      <use xlink:href="#DejaVuSans-2d" x="292.304688"/>
      <use xlink:href="#DejaVuSans-6d" x="328.388672"/>
      <use xlink:href="#DejaVuSans-69" x="425.800781"/>
      <use xlink:href="#DejaVuSans-6e" x="453.583984"/>
     </g>
    </g>
    <g id="line2d_26">
     <path d="M 66.6 142.639187 
L 76.6 142.639187 
L 86.6 142.639187 
" style="fill: none; stroke: #0d0d0d; stroke-opacity: 0.25; stroke-width: 2; stroke-linecap: square"/>
    </g>
    <g id="text_21">
     <!-- rando-max -->
     <g transform="translate(94.6 146.139187)scale(0.1 -0.1)">
      <defs>
       <path id="DejaVuSans-78" d="M 3513 3500 
L 2247 1797 
L 3578 0 
L 2900 0 
L 1881 1375 
L 863 0 
L 184 0 
L 1544 1831 
L 300 3500 
L 978 3500 
L 1906 2253 
L 2834 3500 
L 3513 3500 
z
" transform="scale(0.015625)"/>
      </defs>
      <use xlink:href="#DejaVuSans-72"/>
      <use xlink:href="#DejaVuSans-61" x="41.113281"/>
      <use xlink:href="#DejaVuSans-6e" x="102.392578"/>
      <use xlink:href="#DejaVuSans-64" x="165.771484"/>
      <use xlink:href="#DejaVuSans-6f" x="229.248047"/>
      <use xlink:href="#DejaVuSans-2d" x="292.304688"/>
      <use xlink:href="#DejaVuSans-6d" x="328.388672"/>
      <use xlink:href="#DejaVuSans-61" x="425.800781"/>
      <use xlink:href="#DejaVuSans-78" x="487.080078"/>
     </g>
    </g>
   </g>
  </g>
 </g>
 <defs>
  <clipPath id="p7e00d4587e">
   <rect x="57.6" y="41.472" width="357.12" height="235.008"/>
  </clipPath>
 </defs>
</svg>
