<?xml version="1.0" encoding="utf-8" standalone="no"?>
<!DOCTYPE svg PUBLIC "-//W3C//DTD SVG 1.1//EN"
  "http://www.w3.org/Graphics/SVG/1.1/DTD/svg11.dtd">
<svg height="345.6pt" version="1.1" viewBox="0 0 460.8 345.6" width="460.8pt" xmlns="http://www.w3.org/2000/svg" xmlns:xlink="http://www.w3.org/1999/xlink">
 <metadata>
  <rdf:RDF xmlns:cc="http://creativecommons.org/ns#" xmlns:dc="http://purl.org/dc/elements/1.1/" xmlns:rdf="http://www.w3.org/1999/02/22-rdf-syntax-ns#">
   <cc:Work>
    <dc:type rdf:resource="http://purl.org/dc/dcmitype/StillImage"/>
    <dc:date>2022-04-28T10:02:27.775764</dc:date>
    <dc:format>image/svg+xml</dc:format>
    <dc:creator>
     <cc:Agent>
      <dc:title>Matplotlib v3.4.3, https://matplotlib.org/</dc:title>
     </cc:Agent>
    </dc:creator>
   </cc:Work>
  </rdf:RDF>
 </metadata>
 <defs>
  <style type="text/css">*{stroke-linecap:butt;stroke-linejoin:round;}</style>
 </defs>
 <g id="figure_1">
  <g id="patch_1">
   <path d="M 0 345.6 
L 460.8 345.6 
L 460.8 0 
L 0 0 
z
" style="fill:#ffffff;"/>
  </g>
  <g id="axes_1">
   <g id="patch_2">
    <path d="M 57.6 276.48 
L 414.72 276.48 
L 414.72 41.472 
L 57.6 41.472 
z
" style="fill:#ffffff;"/>
   </g>
   <g id="matplotlib.axis_1">
    <g id="xtick_1">
     <g id="line2d_1">
      <defs>
       <path d="M 0 0 
L 0 3.5 
" id="m0c85265b57" style="stroke:#000000;stroke-width:0.8;"/>
      </defs>
      <g>
       <use style="stroke:#000000;stroke-width:0.8;" x="100.210909" xlink:href="#m0c85265b57" y="276.48"/>
      </g>
     </g>
     <g id="text_1">
      <!-- 2021-12 -->
      <g transform="translate(62.986088 310.951846)rotate(-30)scale(0.1 -0.1)">
       <defs>
        <path d="M 1228 531 
L 3431 531 
L 3431 0 
L 469 0 
L 469 531 
Q 828 903 1448 1529 
Q 2069 2156 2228 2338 
Q 2531 2678 2651 2914 
Q 2772 3150 2772 3378 
Q 2772 3750 2511 3984 
Q 2250 4219 1831 4219 
Q 1534 4219 1204 4116 
Q 875 4013 500 3803 
L 500 4441 
Q 881 4594 1212 4672 
Q 1544 4750 1819 4750 
Q 2544 4750 2975 4387 
Q 3406 4025 3406 3419 
Q 3406 3131 3298 2873 
Q 3191 2616 2906 2266 
Q 2828 2175 2409 1742 
Q 1991 1309 1228 531 
z
" id="DejaVuSans-32" transform="scale(0.015625)"/>
        <path d="M 2034 4250 
Q 1547 4250 1301 3770 
Q 1056 3291 1056 2328 
Q 1056 1369 1301 889 
Q 1547 409 2034 409 
Q 2525 409 2770 889 
Q 3016 1369 3016 2328 
Q 3016 3291 2770 3770 
Q 2525 4250 2034 4250 
z
M 2034 4750 
Q 2819 4750 3233 4129 
Q 3647 3509 3647 2328 
Q 3647 1150 3233 529 
Q 2819 -91 2034 -91 
Q 1250 -91 836 529 
Q 422 1150 422 2328 
Q 422 3509 836 4129 
Q 1250 4750 2034 4750 
z
" id="DejaVuSans-30" transform="scale(0.015625)"/>
        <path d="M 794 531 
L 1825 531 
L 1825 4091 
L 703 3866 
L 703 4441 
L 1819 4666 
L 2450 4666 
L 2450 531 
L 3481 531 
L 3481 0 
L 794 0 
L 794 531 
z
" id="DejaVuSans-31" transform="scale(0.015625)"/>
        <path d="M 313 2009 
L 1997 2009 
L 1997 1497 
L 313 1497 
L 313 2009 
z
" id="DejaVuSans-2d" transform="scale(0.015625)"/>
       </defs>
       <use xlink:href="#DejaVuSans-32"/>
       <use x="63.623047" xlink:href="#DejaVuSans-30"/>
       <use x="127.246094" xlink:href="#DejaVuSans-32"/>
       <use x="190.869141" xlink:href="#DejaVuSans-31"/>
       <use x="254.492188" xlink:href="#DejaVuSans-2d"/>
       <use x="290.576172" xlink:href="#DejaVuSans-31"/>
       <use x="354.199219" xlink:href="#DejaVuSans-32"/>
      </g>
     </g>
    </g>
    <g id="xtick_2">
     <g id="line2d_2">
      <g>
       <use style="stroke:#000000;stroke-width:0.8;" x="163.112727" xlink:href="#m0c85265b57" y="276.48"/>
      </g>
     </g>
     <g id="text_2">
      <!-- 2022-01 -->
      <g transform="translate(125.887906 310.951846)rotate(-30)scale(0.1 -0.1)">
       <use xlink:href="#DejaVuSans-32"/>
       <use x="63.623047" xlink:href="#DejaVuSans-30"/>
       <use x="127.246094" xlink:href="#DejaVuSans-32"/>
       <use x="190.869141" xlink:href="#DejaVuSans-32"/>
       <use x="254.492188" xlink:href="#DejaVuSans-2d"/>
       <use x="290.576172" xlink:href="#DejaVuSans-30"/>
       <use x="354.199219" xlink:href="#DejaVuSans-31"/>
      </g>
     </g>
    </g>
    <g id="xtick_3">
     <g id="line2d_3">
      <g>
       <use style="stroke:#000000;stroke-width:0.8;" x="226.014545" xlink:href="#m0c85265b57" y="276.48"/>
      </g>
     </g>
     <g id="text_3">
      <!-- 2022-02 -->
      <g transform="translate(188.789725 310.951846)rotate(-30)scale(0.1 -0.1)">
       <use xlink:href="#DejaVuSans-32"/>
       <use x="63.623047" xlink:href="#DejaVuSans-30"/>
       <use x="127.246094" xlink:href="#DejaVuSans-32"/>
       <use x="190.869141" xlink:href="#DejaVuSans-32"/>
       <use x="254.492188" xlink:href="#DejaVuSans-2d"/>
       <use x="290.576172" xlink:href="#DejaVuSans-30"/>
       <use x="354.199219" xlink:href="#DejaVuSans-32"/>
      </g>
     </g>
    </g>
    <g id="xtick_4">
     <g id="line2d_4">
      <g>
       <use style="stroke:#000000;stroke-width:0.8;" x="282.829091" xlink:href="#m0c85265b57" y="276.48"/>
      </g>
     </g>
     <g id="text_4">
      <!-- 2022-03 -->
      <g transform="translate(245.60427 310.951846)rotate(-30)scale(0.1 -0.1)">
       <defs>
        <path d="M 2597 2516 
Q 3050 2419 3304 2112 
Q 3559 1806 3559 1356 
Q 3559 666 3084 287 
Q 2609 -91 1734 -91 
Q 1441 -91 1130 -33 
Q 819 25 488 141 
L 488 750 
Q 750 597 1062 519 
Q 1375 441 1716 441 
Q 2309 441 2620 675 
Q 2931 909 2931 1356 
Q 2931 1769 2642 2001 
Q 2353 2234 1838 2234 
L 1294 2234 
L 1294 2753 
L 1863 2753 
Q 2328 2753 2575 2939 
Q 2822 3125 2822 3475 
Q 2822 3834 2567 4026 
Q 2313 4219 1838 4219 
Q 1578 4219 1281 4162 
Q 984 4106 628 3988 
L 628 4550 
Q 988 4650 1302 4700 
Q 1616 4750 1894 4750 
Q 2613 4750 3031 4423 
Q 3450 4097 3450 3541 
Q 3450 3153 3228 2886 
Q 3006 2619 2597 2516 
z
" id="DejaVuSans-33" transform="scale(0.015625)"/>
       </defs>
       <use xlink:href="#DejaVuSans-32"/>
       <use x="63.623047" xlink:href="#DejaVuSans-30"/>
       <use x="127.246094" xlink:href="#DejaVuSans-32"/>
       <use x="190.869141" xlink:href="#DejaVuSans-32"/>
       <use x="254.492188" xlink:href="#DejaVuSans-2d"/>
       <use x="290.576172" xlink:href="#DejaVuSans-30"/>
       <use x="354.199219" xlink:href="#DejaVuSans-33"/>
      </g>
     </g>
    </g>
    <g id="xtick_5">
     <g id="line2d_5">
      <g>
       <use style="stroke:#000000;stroke-width:0.8;" x="345.730909" xlink:href="#m0c85265b57" y="276.48"/>
      </g>
     </g>
     <g id="text_5">
      <!-- 2022-04 -->
      <g transform="translate(308.506088 310.951846)rotate(-30)scale(0.1 -0.1)">
       <defs>
        <path d="M 2419 4116 
L 825 1625 
L 2419 1625 
L 2419 4116 
z
M 2253 4666 
L 3047 4666 
L 3047 1625 
L 3713 1625 
L 3713 1100 
L 3047 1100 
L 3047 0 
L 2419 0 
L 2419 1100 
L 313 1100 
L 313 1709 
L 2253 4666 
z
" id="DejaVuSans-34" transform="scale(0.015625)"/>
       </defs>
       <use xlink:href="#DejaVuSans-32"/>
       <use x="63.623047" xlink:href="#DejaVuSans-30"/>
       <use x="127.246094" xlink:href="#DejaVuSans-32"/>
       <use x="190.869141" xlink:href="#DejaVuSans-32"/>
       <use x="254.492188" xlink:href="#DejaVuSans-2d"/>
       <use x="290.576172" xlink:href="#DejaVuSans-30"/>
       <use x="354.199219" xlink:href="#DejaVuSans-34"/>
      </g>
     </g>
    </g>
    <g id="xtick_6">
     <g id="line2d_6">
      <g>
       <use style="stroke:#000000;stroke-width:0.8;" x="406.603636" xlink:href="#m0c85265b57" y="276.48"/>
      </g>
     </g>
     <g id="text_6">
      <!-- 2022-05 -->
      <g transform="translate(369.378816 310.951846)rotate(-30)scale(0.1 -0.1)">
       <defs>
        <path d="M 691 4666 
L 3169 4666 
L 3169 4134 
L 1269 4134 
L 1269 2991 
Q 1406 3038 1543 3061 
Q 1681 3084 1819 3084 
Q 2600 3084 3056 2656 
Q 3513 2228 3513 1497 
Q 3513 744 3044 326 
Q 2575 -91 1722 -91 
Q 1428 -91 1123 -41 
Q 819 9 494 109 
L 494 744 
Q 775 591 1075 516 
Q 1375 441 1709 441 
Q 2250 441 2565 725 
Q 2881 1009 2881 1497 
Q 2881 1984 2565 2268 
Q 2250 2553 1709 2553 
Q 1456 2553 1204 2497 
Q 953 2441 691 2322 
L 691 4666 
z
" id="DejaVuSans-35" transform="scale(0.015625)"/>
       </defs>
       <use xlink:href="#DejaVuSans-32"/>
       <use x="63.623047" xlink:href="#DejaVuSans-30"/>
       <use x="127.246094" xlink:href="#DejaVuSans-32"/>
       <use x="190.869141" xlink:href="#DejaVuSans-32"/>
       <use x="254.492188" xlink:href="#DejaVuSans-2d"/>
       <use x="290.576172" xlink:href="#DejaVuSans-30"/>
       <use x="354.199219" xlink:href="#DejaVuSans-35"/>
      </g>
     </g>
    </g>
    <g id="text_7">
     <!-- date -->
     <g transform="translate(224.885 324.351346)scale(0.1 -0.1)">
      <defs>
       <path d="M 2906 2969 
L 2906 4863 
L 3481 4863 
L 3481 0 
L 2906 0 
L 2906 525 
Q 2725 213 2448 61 
Q 2172 -91 1784 -91 
Q 1150 -91 751 415 
Q 353 922 353 1747 
Q 353 2572 751 3078 
Q 1150 3584 1784 3584 
Q 2172 3584 2448 3432 
Q 2725 3281 2906 2969 
z
M 947 1747 
Q 947 1113 1208 752 
Q 1469 391 1925 391 
Q 2381 391 2643 752 
Q 2906 1113 2906 1747 
Q 2906 2381 2643 2742 
Q 2381 3103 1925 3103 
Q 1469 3103 1208 2742 
Q 947 2381 947 1747 
z
" id="DejaVuSans-64" transform="scale(0.015625)"/>
       <path d="M 2194 1759 
Q 1497 1759 1228 1600 
Q 959 1441 959 1056 
Q 959 750 1161 570 
Q 1363 391 1709 391 
Q 2188 391 2477 730 
Q 2766 1069 2766 1631 
L 2766 1759 
L 2194 1759 
z
M 3341 1997 
L 3341 0 
L 2766 0 
L 2766 531 
Q 2569 213 2275 61 
Q 1981 -91 1556 -91 
Q 1019 -91 701 211 
Q 384 513 384 1019 
Q 384 1609 779 1909 
Q 1175 2209 1959 2209 
L 2766 2209 
L 2766 2266 
Q 2766 2663 2505 2880 
Q 2244 3097 1772 3097 
Q 1472 3097 1187 3025 
Q 903 2953 641 2809 
L 641 3341 
Q 956 3463 1253 3523 
Q 1550 3584 1831 3584 
Q 2591 3584 2966 3190 
Q 3341 2797 3341 1997 
z
" id="DejaVuSans-61" transform="scale(0.015625)"/>
       <path d="M 1172 4494 
L 1172 3500 
L 2356 3500 
L 2356 3053 
L 1172 3053 
L 1172 1153 
Q 1172 725 1289 603 
Q 1406 481 1766 481 
L 2356 481 
L 2356 0 
L 1766 0 
Q 1100 0 847 248 
Q 594 497 594 1153 
L 594 3053 
L 172 3053 
L 172 3500 
L 594 3500 
L 594 4494 
L 1172 4494 
z
" id="DejaVuSans-74" transform="scale(0.015625)"/>
       <path d="M 3597 1894 
L 3597 1613 
L 953 1613 
Q 991 1019 1311 708 
Q 1631 397 2203 397 
Q 2534 397 2845 478 
Q 3156 559 3463 722 
L 3463 178 
Q 3153 47 2828 -22 
Q 2503 -91 2169 -91 
Q 1331 -91 842 396 
Q 353 884 353 1716 
Q 353 2575 817 3079 
Q 1281 3584 2069 3584 
Q 2775 3584 3186 3129 
Q 3597 2675 3597 1894 
z
M 3022 2063 
Q 3016 2534 2758 2815 
Q 2500 3097 2075 3097 
Q 1594 3097 1305 2825 
Q 1016 2553 972 2059 
L 3022 2063 
z
" id="DejaVuSans-65" transform="scale(0.015625)"/>
      </defs>
      <use xlink:href="#DejaVuSans-64"/>
      <use x="63.476562" xlink:href="#DejaVuSans-61"/>
      <use x="124.755859" xlink:href="#DejaVuSans-74"/>
      <use x="163.964844" xlink:href="#DejaVuSans-65"/>
     </g>
    </g>
   </g>
   <g id="matplotlib.axis_2">
    <g id="ytick_1">
     <g id="line2d_7">
      <defs>
       <path d="M 0 0 
L -3.5 0 
" id="mdf7d8e2640" style="stroke:#000000;stroke-width:0.8;"/>
      </defs>
      <g>
       <use style="stroke:#000000;stroke-width:0.8;" x="57.6" xlink:href="#mdf7d8e2640" y="246.01157"/>
      </g>
     </g>
     <g id="text_8">
      <!-- 112000 -->
      <g transform="translate(12.425 249.810789)scale(0.1 -0.1)">
       <use xlink:href="#DejaVuSans-31"/>
       <use x="63.623047" xlink:href="#DejaVuSans-31"/>
       <use x="127.246094" xlink:href="#DejaVuSans-32"/>
       <use x="190.869141" xlink:href="#DejaVuSans-30"/>
       <use x="254.492188" xlink:href="#DejaVuSans-30"/>
       <use x="318.115234" xlink:href="#DejaVuSans-30"/>
      </g>
     </g>
    </g>
    <g id="ytick_2">
     <g id="line2d_8">
      <g>
       <use style="stroke:#000000;stroke-width:0.8;" x="57.6" xlink:href="#mdf7d8e2640" y="214.964045"/>
      </g>
     </g>
     <g id="text_9">
      <!-- 114000 -->
      <g transform="translate(12.425 218.763264)scale(0.1 -0.1)">
       <use xlink:href="#DejaVuSans-31"/>
       <use x="63.623047" xlink:href="#DejaVuSans-31"/>
       <use x="127.246094" xlink:href="#DejaVuSans-34"/>
       <use x="190.869141" xlink:href="#DejaVuSans-30"/>
       <use x="254.492188" xlink:href="#DejaVuSans-30"/>
       <use x="318.115234" xlink:href="#DejaVuSans-30"/>
      </g>
     </g>
    </g>
    <g id="ytick_3">
     <g id="line2d_9">
      <g>
       <use style="stroke:#000000;stroke-width:0.8;" x="57.6" xlink:href="#mdf7d8e2640" y="183.91652"/>
      </g>
     </g>
     <g id="text_10">
      <!-- 116000 -->
      <g transform="translate(12.425 187.715739)scale(0.1 -0.1)">
       <defs>
        <path d="M 2113 2584 
Q 1688 2584 1439 2293 
Q 1191 2003 1191 1497 
Q 1191 994 1439 701 
Q 1688 409 2113 409 
Q 2538 409 2786 701 
Q 3034 994 3034 1497 
Q 3034 2003 2786 2293 
Q 2538 2584 2113 2584 
z
M 3366 4563 
L 3366 3988 
Q 3128 4100 2886 4159 
Q 2644 4219 2406 4219 
Q 1781 4219 1451 3797 
Q 1122 3375 1075 2522 
Q 1259 2794 1537 2939 
Q 1816 3084 2150 3084 
Q 2853 3084 3261 2657 
Q 3669 2231 3669 1497 
Q 3669 778 3244 343 
Q 2819 -91 2113 -91 
Q 1303 -91 875 529 
Q 447 1150 447 2328 
Q 447 3434 972 4092 
Q 1497 4750 2381 4750 
Q 2619 4750 2861 4703 
Q 3103 4656 3366 4563 
z
" id="DejaVuSans-36" transform="scale(0.015625)"/>
       </defs>
       <use xlink:href="#DejaVuSans-31"/>
       <use x="63.623047" xlink:href="#DejaVuSans-31"/>
       <use x="127.246094" xlink:href="#DejaVuSans-36"/>
       <use x="190.869141" xlink:href="#DejaVuSans-30"/>
       <use x="254.492188" xlink:href="#DejaVuSans-30"/>
       <use x="318.115234" xlink:href="#DejaVuSans-30"/>
      </g>
     </g>
    </g>
    <g id="ytick_4">
     <g id="line2d_10">
      <g>
       <use style="stroke:#000000;stroke-width:0.8;" x="57.6" xlink:href="#mdf7d8e2640" y="152.868995"/>
      </g>
     </g>
     <g id="text_11">
      <!-- 118000 -->
      <g transform="translate(12.425 156.668214)scale(0.1 -0.1)">
       <defs>
        <path d="M 2034 2216 
Q 1584 2216 1326 1975 
Q 1069 1734 1069 1313 
Q 1069 891 1326 650 
Q 1584 409 2034 409 
Q 2484 409 2743 651 
Q 3003 894 3003 1313 
Q 3003 1734 2745 1975 
Q 2488 2216 2034 2216 
z
M 1403 2484 
Q 997 2584 770 2862 
Q 544 3141 544 3541 
Q 544 4100 942 4425 
Q 1341 4750 2034 4750 
Q 2731 4750 3128 4425 
Q 3525 4100 3525 3541 
Q 3525 3141 3298 2862 
Q 3072 2584 2669 2484 
Q 3125 2378 3379 2068 
Q 3634 1759 3634 1313 
Q 3634 634 3220 271 
Q 2806 -91 2034 -91 
Q 1263 -91 848 271 
Q 434 634 434 1313 
Q 434 1759 690 2068 
Q 947 2378 1403 2484 
z
M 1172 3481 
Q 1172 3119 1398 2916 
Q 1625 2713 2034 2713 
Q 2441 2713 2670 2916 
Q 2900 3119 2900 3481 
Q 2900 3844 2670 4047 
Q 2441 4250 2034 4250 
Q 1625 4250 1398 4047 
Q 1172 3844 1172 3481 
z
" id="DejaVuSans-38" transform="scale(0.015625)"/>
       </defs>
       <use xlink:href="#DejaVuSans-31"/>
       <use x="63.623047" xlink:href="#DejaVuSans-31"/>
       <use x="127.246094" xlink:href="#DejaVuSans-38"/>
       <use x="190.869141" xlink:href="#DejaVuSans-30"/>
       <use x="254.492188" xlink:href="#DejaVuSans-30"/>
       <use x="318.115234" xlink:href="#DejaVuSans-30"/>
      </g>
     </g>
    </g>
    <g id="ytick_5">
     <g id="line2d_11">
      <g>
       <use style="stroke:#000000;stroke-width:0.8;" x="57.6" xlink:href="#mdf7d8e2640" y="121.82147"/>
      </g>
     </g>
     <g id="text_12">
      <!-- 120000 -->
      <g transform="translate(12.425 125.620689)scale(0.1 -0.1)">
       <use xlink:href="#DejaVuSans-31"/>
       <use x="63.623047" xlink:href="#DejaVuSans-32"/>
       <use x="127.246094" xlink:href="#DejaVuSans-30"/>
       <use x="190.869141" xlink:href="#DejaVuSans-30"/>
       <use x="254.492188" xlink:href="#DejaVuSans-30"/>
       <use x="318.115234" xlink:href="#DejaVuSans-30"/>
      </g>
     </g>
    </g>
    <g id="ytick_6">
     <g id="line2d_12">
      <g>
       <use style="stroke:#000000;stroke-width:0.8;" x="57.6" xlink:href="#mdf7d8e2640" y="90.773946"/>
      </g>
     </g>
     <g id="text_13">
      <!-- 122000 -->
      <g transform="translate(12.425 94.573164)scale(0.1 -0.1)">
       <use xlink:href="#DejaVuSans-31"/>
       <use x="63.623047" xlink:href="#DejaVuSans-32"/>
       <use x="127.246094" xlink:href="#DejaVuSans-32"/>
       <use x="190.869141" xlink:href="#DejaVuSans-30"/>
       <use x="254.492188" xlink:href="#DejaVuSans-30"/>
       <use x="318.115234" xlink:href="#DejaVuSans-30"/>
      </g>
     </g>
    </g>
    <g id="ytick_7">
     <g id="line2d_13">
      <g>
       <use style="stroke:#000000;stroke-width:0.8;" x="57.6" xlink:href="#mdf7d8e2640" y="59.726421"/>
      </g>
     </g>
     <g id="text_14">
      <!-- 124000 -->
      <g transform="translate(12.425 63.52564)scale(0.1 -0.1)">
       <use xlink:href="#DejaVuSans-31"/>
       <use x="63.623047" xlink:href="#DejaVuSans-32"/>
       <use x="127.246094" xlink:href="#DejaVuSans-34"/>
       <use x="190.869141" xlink:href="#DejaVuSans-30"/>
       <use x="254.492188" xlink:href="#DejaVuSans-30"/>
       <use x="318.115234" xlink:href="#DejaVuSans-30"/>
      </g>
     </g>
    </g>
   </g>
   <g id="line2d_14">
    <path clip-path="url(#pa8e79a8667)" d="M 73.832727 180.027116 
L 75.861818 189.522124 
L 81.949091 183.574718 
L 83.978182 174.669052 
L 86.007273 173.627572 
L 90.065455 173.707417 
L 96.152727 198.271787 
L 98.181818 236.947857 
L 100.210909 252.611073 
L 102.24 222.705283 
L 104.269091 230.800216 
L 110.356364 206.438925 
L 112.385455 177.535296 
L 114.414545 175.613736 
L 116.443636 183.295096 
L 118.472727 169.645458 
L 124.56 180.978294 
L 126.589091 188.983593 
L 128.618182 170.771074 
L 130.647273 170.606321 
L 132.676364 196.742838 
L 138.763636 225.093712 
L 140.792727 198.70675 
L 142.821818 184.68243 
L 144.850909 174.298725 
L 152.967273 150.021893 
L 154.996364 146.565664 
L 157.025455 144.187325 
L 159.054545 147.782007 
L 161.083636 146.240132 
L 167.170909 138.840649 
L 169.2 124.858137 
L 171.229091 143.161876 
L 173.258182 144.212261 
L 175.287273 142.870032 
L 181.374545 150.489639 
L 183.403636 135.051461 
L 185.432727 128.419543 
L 187.461818 144.018658 
L 189.490909 144.564301 
L 197.607273 170.490313 
L 199.636364 182.277059 
L 201.665455 200.587906 
L 203.694545 226.118208 
L 209.781818 222.909692 
L 211.810909 233.643064 
L 213.84 240.126163 
L 215.869091 243.121494 
L 217.898182 218.125133 
L 223.985455 192.155165 
L 226.014545 178.417762 
L 228.043636 165.182662 
L 230.072727 190.149453 
L 232.101818 187.477754 
L 238.189091 186.842992 
L 240.218182 174.716111 
L 242.247273 155.039624 
L 244.276364 182.289131 
L 246.305455 201.650369 
L 252.392727 213.327024 
L 254.421818 195.677908 
L 256.450909 189.573952 
L 258.48 214.62653 
L 260.509091 222.105421 
L 268.625455 241.55062 
L 270.654545 265.797818 
L 272.683636 258.545561 
L 274.712727 210.636804 
L 280.8 210.870432 
L 282.829091 235.599723 
L 284.858182 201.168651 
L 286.887273 201.505229 
L 288.916364 201.669946 
L 295.003636 239.02595 
L 297.032727 251.972968 
L 299.061818 225.88737 
L 301.090909 221.969019 
L 303.12 240.206808 
L 309.207273 247.939687 
L 311.236364 223.905155 
L 313.265455 199.528953 
L 315.294545 172.716741 
L 317.323636 161.767178 
L 323.410909 161.187244 
L 325.44 146.4204 
L 327.469091 160.883622 
L 329.498182 139.511165 
L 331.527273 124.898683 
L 337.614545 119.122543 
L 339.643636 102.658314 
L 341.672727 107.046208 
L 343.701818 130.125642 
L 345.730909 121.519676 
L 351.818182 118.336025 
L 353.847273 134.983511 
L 355.876364 138.809835 
L 357.905455 126.478871 
L 359.934545 121.594597 
L 366.021818 147.779917 
L 368.050909 146.747381 
L 370.08 129.079351 
L 372.109091 141.368467 
L 380.225455 140.348232 
L 382.254545 117.599217 
L 384.283636 108.196198 
L 386.312727 135.752895 
L 388.341818 184.371139 
L 394.429091 186.307259 
L 396.458182 223.616666 
L 398.487273 215.789697 
" style="fill:none;stroke:#0000ff;stroke-linecap:square;stroke-opacity:0.9;stroke-width:2;"/>
   </g>
   <g id="line2d_15">
    <path clip-path="url(#pa8e79a8667)" d="M 73.832727 180.027116 
L 75.861818 190.38669 
L 81.949091 183.524978 
L 83.978182 174.022329 
L 86.007273 172.784521 
L 90.065455 213.728328 
L 96.152727 199.519428 
L 98.181818 237.11028 
L 100.210909 252.570012 
L 102.24 222.005169 
L 104.269091 229.783919 
L 110.356364 206.114603 
L 112.385455 178.084559 
L 114.414545 175.64536 
L 116.443636 183.965509 
L 118.472727 169.638486 
L 124.56 181.802009 
L 126.589091 189.144046 
L 128.618182 170.086668 
L 130.647273 171.024628 
L 132.676364 196.49909 
L 138.763636 224.410767 
L 140.792727 199.761531 
L 142.821818 184.604977 
L 144.850909 173.795792 
L 152.967273 150.552472 
L 154.996364 146.760682 
L 157.025455 143.729042 
L 159.054545 148.101292 
L 161.083636 146.860614 
L 167.170909 139.341731 
L 169.2 125.459589 
L 171.229091 143.794884 
L 173.258182 144.310623 
L 175.287273 143.215774 
L 181.374545 151.304168 
L 183.403636 135.354237 
L 185.432727 128.990327 
L 187.461818 142.552116 
L 189.490909 143.989778 
L 197.607273 168.533339 
L 199.636364 180.508529 
L 201.665455 197.725217 
L 203.694545 224.274867 
L 209.781818 221.938921 
L 211.810909 229.631681 
L 213.84 237.531618 
L 215.869091 239.283021 
L 217.898182 214.448167 
L 223.985455 190.975809 
L 226.014545 174.974266 
L 228.043636 162.011002 
L 230.072727 185.414281 
L 232.101818 183.028123 
L 238.189091 182.24882 
L 240.218182 172.931568 
L 242.247273 152.419699 
L 244.276364 180.112657 
L 246.305455 195.360299 
L 252.392727 209.270368 
L 254.421818 192.928951 
L 256.450909 186.736824 
L 258.48 209.916924 
L 260.509091 217.91761 
L 268.625455 236.206443 
L 270.654545 259.346041 
L 272.683636 253.51443 
L 274.712727 205.357275 
L 280.8 205.94766 
L 282.829091 227.939739 
L 284.858182 193.825437 
L 286.887273 194.274182 
L 288.916364 190.768218 
L 295.003636 224.456627 
L 297.032727 236.430844 
L 299.061818 215.296168 
L 301.090909 210.373082 
L 303.12 228.040242 
L 309.207273 235.914793 
L 311.236364 216.24879 
L 313.265455 193.591829 
L 315.294545 167.150612 
L 317.323636 157.575861 
L 323.410909 153.614684 
L 325.44 140.88648 
L 327.469091 153.448738 
L 329.498182 133.256144 
L 331.527273 115.923773 
L 337.614545 114.235003 
L 339.643636 98.814754 
L 341.672727 100.854156 
L 343.701818 124.148733 
L 345.730909 114.424498 
L 351.818182 112.003625 
L 353.847273 128.087055 
L 355.876364 129.905909 
L 357.905455 118.623392 
L 359.934545 109.128043 
L 366.021818 136.226116 
L 368.050909 135.547002 
L 370.08 117.942248 
L 372.109091 127.820539 
L 380.225455 127.58515 
L 382.254545 107.563585 
L 384.283636 96.530788 
L 386.312727 125.661549 
L 388.341818 173.394429 
L 394.429091 177.790236 
L 396.458182 213.82059 
L 398.487273 204.159897 
" style="fill:none;stroke:#ff0000;stroke-linecap:square;stroke-opacity:0.9;stroke-width:2;"/>
   </g>
   <g id="line2d_16">
    <path clip-path="url(#pa8e79a8667)" d="M 73.832727 180.027116 
L 75.861818 190.494524 
L 81.949091 183.839425 
L 83.978182 173.17252 
L 86.007273 172.876833 
L 90.065455 212.429438 
L 96.152727 197.415629 
L 98.181818 236.294181 
L 100.210909 252.642096 
L 102.24 220.874448 
L 104.269091 229.854127 
L 110.356364 205.649758 
L 112.385455 177.168905 
L 114.414545 174.804743 
L 116.443636 182.199253 
L 118.472727 168.111165 
L 124.56 181.412206 
L 126.589091 189.328707 
L 128.618182 170.133881 
L 130.647273 170.583978 
L 132.676364 195.452349 
L 138.763636 224.350297 
L 140.792727 197.795985 
L 142.821818 183.784436 
L 144.850909 172.260252 
L 152.967273 148.638381 
L 154.996364 145.768325 
L 157.025455 141.515778 
L 159.054545 146.94803 
L 161.083636 145.084068 
L 167.170909 137.510819 
L 169.2 123.174903 
L 171.229091 141.643157 
L 173.258182 141.372764 
L 175.287273 141.684149 
L 181.374545 149.589642 
L 183.403636 132.850869 
L 185.432727 127.125823 
L 187.461818 141.157792 
L 189.490909 142.138652 
L 197.607273 168.136232 
L 199.636364 180.922572 
L 201.665455 197.975571 
L 203.694545 224.115814 
L 209.781818 220.747475 
L 211.810909 230.380474 
L 213.84 238.414216 
L 215.869091 241.666793 
L 217.898182 216.196997 
L 223.985455 190.580139 
L 226.014545 175.753698 
L 228.043636 162.929378 
L 230.072727 187.186669 
L 232.101818 184.847138 
L 238.189091 183.796836 
L 240.218182 172.913629 
L 242.247273 153.587587 
L 244.276364 180.685345 
L 246.305455 198.104028 
L 252.392727 210.875177 
L 254.421818 192.105913 
L 256.450909 187.048218 
L 258.48 211.76188 
L 260.509091 219.928016 
L 268.625455 238.284916 
L 270.654545 262.558307 
L 272.683636 253.030673 
L 274.712727 206.364331 
L 280.8 206.702265 
L 282.829091 230.519308 
L 284.858182 197.036907 
L 286.887273 197.170239 
L 288.916364 198.761418 
L 295.003636 235.733378 
L 297.032727 249.440404 
L 299.061818 221.043364 
L 301.090909 218.459318 
L 303.12 236.897779 
L 309.207273 243.965845 
L 311.236364 219.423318 
L 313.265455 195.011891 
L 315.294545 169.163793 
L 317.323636 157.715529 
L 323.410909 157.055025 
L 325.44 142.839993 
L 327.469091 156.692163 
L 329.498182 135.756115 
L 331.527273 120.264719 
L 337.614545 114.662813 
L 339.643636 98.39226 
L 341.672727 102.376392 
L 343.701818 124.928275 
L 345.730909 116.867553 
L 351.818182 114.379799 
L 353.847273 129.679879 
L 355.876364 135.173442 
L 357.905455 122.6809 
L 359.934545 117.754953 
L 366.021818 143.520912 
L 368.050909 143.993701 
L 370.08 125.246719 
L 372.109091 137.379061 
L 380.225455 137.111948 
L 382.254545 114.502099 
L 384.283636 103.939073 
L 386.312727 131.695091 
L 388.341818 179.457996 
L 394.429091 180.772119 
L 396.458182 219.6613 
L 398.487273 211.04931 
" style="fill:none;stroke:#008000;stroke-linecap:square;stroke-opacity:0.9;stroke-width:2;"/>
   </g>
   <g id="line2d_17">
    <path clip-path="url(#pa8e79a8667)" d="M 73.832727 180.027116 
L 75.861818 189.624731 
L 81.949091 183.524268 
L 83.978182 173.183139 
L 86.007273 172.831959 
L 90.065455 212.880307 
L 96.152727 198.650644 
L 98.181818 236.065964 
L 100.210909 253.547599 
L 102.24 222.49793 
L 104.269091 229.10069 
L 110.356364 206.171601 
L 112.385455 176.738881 
L 114.414545 174.682394 
L 116.443636 182.894388 
L 118.472727 169.559437 
L 124.56 180.911974 
L 126.589091 188.528608 
L 128.618182 170.211758 
L 130.647273 171.072974 
L 132.676364 195.124228 
L 138.763636 224.61164 
L 140.792727 198.88912 
L 142.821818 184.398266 
L 144.850909 173.351301 
L 152.967273 150.096882 
L 154.996364 146.131785 
L 157.025455 142.877515 
L 159.054545 147.466617 
L 161.083636 145.338258 
L 167.170909 137.687361 
L 169.2 124.152144 
L 171.229091 141.817997 
L 173.258182 142.754132 
L 175.287273 142.585626 
L 181.374545 150.266998 
L 183.403636 133.148679 
L 185.432727 127.975641 
L 187.461818 142.60122 
L 189.490909 143.266183 
L 197.607273 169.035482 
L 199.636364 181.935551 
L 201.665455 199.130624 
L 203.694545 226.446473 
L 209.781818 223.040994 
L 211.810909 231.796798 
L 213.84 239.284941 
L 215.869091 242.327061 
L 217.898182 217.833279 
L 223.985455 192.338247 
L 226.014545 177.063212 
L 228.043636 164.484595 
L 230.072727 187.862594 
L 232.101818 185.145007 
L 238.189091 186.254463 
L 240.218182 174.496332 
L 242.247273 153.901168 
L 244.276364 181.374779 
L 246.305455 200.46047 
L 252.392727 212.530359 
L 254.421818 194.361641 
L 256.450909 188.331393 
L 258.48 212.982861 
L 260.509091 221.707871 
L 268.625455 239.131758 
L 270.654545 264.996613 
L 272.683636 256.48416 
L 274.712727 209.221539 
L 280.8 209.460347 
L 282.829091 232.808081 
L 284.858182 199.902819 
L 286.887273 200.349746 
L 288.916364 201.085776 
L 295.003636 238.581527 
L 297.032727 251.496316 
L 299.061818 223.753357 
L 301.090909 222.011834 
L 303.12 239.32426 
L 309.207273 247.511488 
L 311.236364 221.742698 
L 313.265455 196.642688 
L 315.294545 171.33901 
L 317.323636 160.534989 
L 323.410909 158.391146 
L 325.44 144.276556 
L 327.469091 158.981105 
L 329.498182 138.396043 
L 331.527273 123.06074 
L 337.614545 117.511161 
L 339.643636 99.965044 
L 341.672727 104.284753 
L 343.701818 128.550497 
L 345.730909 119.232688 
L 351.818182 115.83327 
L 353.847273 131.87692 
L 355.876364 137.480938 
L 357.905455 124.683941 
L 359.934545 119.089607 
L 366.021818 144.888188 
L 368.050909 145.543615 
L 370.08 128.369549 
L 372.109091 138.843555 
L 380.225455 139.483924 
L 382.254545 116.647282 
L 384.283636 106.441404 
L 386.312727 134.155276 
L 388.341818 182.708673 
L 394.429091 183.557575 
L 396.458182 222.553887 
L 398.487273 213.851266 
" style="fill:none;stroke:#ec5283;stroke-linecap:square;stroke-width:2;"/>
   </g>
   <g id="line2d_18">
    <path clip-path="url(#pa8e79a8667)" d="M 73.832727 180.027116 
L 75.861818 189.794556 
L 81.949091 182.758224 
L 83.978182 173.657334 
L 86.007273 173.195982 
L 90.065455 212.94313 
L 96.152727 197.786181 
L 98.181818 236.213649 
L 100.210909 252.078601 
L 102.24 220.973892 
L 104.269091 229.821556 
L 110.356364 206.315804 
L 112.385455 176.136952 
L 114.414545 174.60054 
L 116.443636 183.327388 
L 118.472727 168.634649 
L 124.56 181.348607 
L 126.589091 189.398384 
L 128.618182 169.339278 
L 130.647273 170.861141 
L 132.676364 194.782362 
L 138.763636 224.902544 
L 140.792727 198.388801 
L 142.821818 182.505162 
L 144.850909 172.944195 
L 152.967273 149.841311 
L 154.996364 144.961231 
L 157.025455 142.222502 
L 159.054545 146.634385 
L 161.083636 145.401518 
L 167.170909 136.946776 
L 169.2 123.112355 
L 171.229091 141.430413 
L 173.258182 142.848208 
L 175.287273 142.348147 
L 181.374545 149.328545 
L 183.403636 132.836508 
L 185.432727 127.076613 
L 187.461818 142.257454 
L 189.490909 142.386948 
L 197.607273 168.984787 
L 199.636364 181.489503 
L 201.665455 198.799874 
L 203.694545 225.192537 
L 209.781818 220.924312 
L 211.810909 231.246673 
L 213.84 238.600676 
L 215.869091 241.77042 
L 217.898182 215.594395 
L 223.985455 191.000163 
L 226.014545 175.641533 
L 228.043636 162.631784 
L 230.072727 188.220362 
L 232.101818 184.165363 
L 238.189091 184.870865 
L 240.218182 172.381912 
L 242.247273 152.802427 
L 244.276364 179.633579 
L 246.305455 198.551373 
L 252.392727 210.598549 
L 254.421818 192.401063 
L 256.450909 187.04355 
L 258.48 212.737546 
L 260.509091 219.33579 
L 268.625455 238.086813 
L 270.654545 262.535123 
L 272.683636 253.37811 
L 274.712727 206.70833 
L 280.8 207.731948 
L 282.829091 231.190979 
L 284.858182 196.776255 
L 286.887273 196.959259 
L 288.916364 198.737405 
L 295.003636 235.732731 
L 297.032727 248.872063 
L 299.061818 220.758596 
L 301.090909 219.648413 
L 303.12 236.186769 
L 309.207273 243.807185 
L 311.236364 219.862147 
L 313.265455 194.997609 
L 315.294545 168.05516 
L 317.323636 158.182436 
L 323.410909 155.975403 
L 325.44 142.592177 
L 327.469091 156.871572 
L 329.498182 136.462458 
L 331.527273 120.672056 
L 337.614545 115.142217 
L 339.643636 98.562593 
L 341.672727 101.790371 
L 343.701818 125.540304 
L 345.730909 118.335248 
L 351.818182 114.490213 
L 353.847273 130.663171 
L 355.876364 134.549445 
L 357.905455 122.802596 
L 359.934545 116.880032 
L 366.021818 143.391873 
L 368.050909 143.326764 
L 370.08 126.121131 
L 372.109091 137.431052 
L 380.225455 137.033764 
L 382.254545 113.553785 
L 384.283636 104.581341 
L 386.312727 132.010271 
L 388.341818 179.788754 
L 394.429091 181.779613 
L 396.458182 219.9468 
L 398.487273 210.840189 
" style="fill:none;stroke:#00ff00;stroke-linecap:square;stroke-opacity:0.9;stroke-width:2;"/>
   </g>
   <g id="line2d_19">
    <path clip-path="url(#pa8e79a8667)" d="M 73.832727 180.027116 
L 75.861818 192.505557 
L 81.949091 183.58062 
L 83.978182 170.380596 
L 86.007273 171.280759 
L 90.065455 208.500123 
L 96.152727 197.895557 
L 98.181818 240.395617 
L 100.210909 254.337955 
L 102.24 218.598467 
L 104.269091 219.968468 
L 110.356364 194.981276 
L 112.385455 171.004002 
L 114.414545 167.765239 
L 116.443636 172.38211 
L 118.472727 159.883579 
L 124.56 172.884776 
L 126.589091 181.270545 
L 128.618182 165.36372 
L 130.647273 165.274757 
L 132.676364 191.159868 
L 138.763636 216.626528 
L 140.792727 182.173319 
L 142.821818 167.87301 
L 144.850909 151.587695 
L 152.967273 129.438717 
L 154.996364 122.491692 
L 157.025455 120.187835 
L 159.054545 126.351455 
L 161.083636 122.360456 
L 167.170909 112.765619 
L 169.2 90.011127 
L 171.229091 108.546865 
L 173.258182 107.795083 
L 175.287273 109.627524 
L 181.374545 115.948846 
L 183.403636 100.222432 
L 185.432727 93.269049 
L 187.461818 109.779717 
L 189.490909 112.488299 
L 197.607273 140.757644 
L 199.636364 156.998881 
L 201.665455 176.813808 
L 203.694545 206.744334 
L 209.781818 201.733846 
L 211.810909 214.374613 
L 213.84 220.290782 
L 215.869091 228.424775 
L 217.898182 200.246229 
L 223.985455 167.772676 
L 226.014545 151.285643 
L 228.043636 140.893641 
L 230.072727 171.586986 
L 232.101818 166.654546 
L 238.189091 167.718751 
L 240.218182 151.181607 
L 242.247273 126.799654 
L 244.276364 154.727376 
L 246.305455 181.41207 
L 252.392727 190.720853 
L 254.421818 166.329223 
L 256.450909 161.527342 
L 258.48 191.621154 
L 260.509091 201.031149 
L 268.625455 220.363947 
L 270.654545 249.024146 
L 272.683636 232.856754 
L 274.712727 186.887322 
L 280.8 184.764045 
L 282.829091 213.685347 
L 284.858182 176.935203 
L 286.887273 183.608632 
L 288.916364 191.503322 
L 295.003636 244.837439 
L 297.032727 252.162851 
L 299.061818 206.849918 
L 301.090909 207.495384 
L 303.12 229.052312 
L 309.207273 241.001726 
L 311.236364 203.26692 
L 313.265455 163.515716 
L 315.294545 139.553871 
L 317.323636 120.155002 
L 323.410909 117.473138 
L 325.44 96.190865 
L 327.469091 113.540815 
L 329.498182 93.731371 
L 331.527273 79.276181 
L 337.614545 70.440875 
L 339.643636 52.154182 
L 341.672727 54.723163 
L 343.701818 79.424684 
L 345.730909 74.27029 
L 351.818182 69.96977 
L 353.847273 88.666362 
L 355.876364 95.970059 
L 357.905455 85.45041 
L 359.934545 87.626719 
L 366.021818 111.221257 
L 368.050909 112.939815 
L 370.08 91.389737 
L 372.109091 105.861095 
L 380.225455 104.119781 
L 382.254545 76.518252 
L 384.283636 70.399465 
L 386.312727 98.21847 
L 388.341818 149.685188 
L 394.429091 150.261115 
L 396.458182 191.75567 
L 398.487273 182.480817 
" style="fill:none;stroke:#a5b9cf;stroke-linecap:square;stroke-width:2;"/>
   </g>
   <g id="patch_3">
    <path d="M 57.6 276.48 
L 57.6 41.472 
" style="fill:none;stroke:#000000;stroke-linecap:square;stroke-linejoin:miter;stroke-width:0.8;"/>
   </g>
   <g id="patch_4">
    <path d="M 414.72 276.48 
L 414.72 41.472 
" style="fill:none;stroke:#000000;stroke-linecap:square;stroke-linejoin:miter;stroke-width:0.8;"/>
   </g>
   <g id="patch_5">
    <path d="M 57.6 276.48 
L 414.72 276.48 
" style="fill:none;stroke:#000000;stroke-linecap:square;stroke-linejoin:miter;stroke-width:0.8;"/>
   </g>
   <g id="patch_6">
    <path d="M 57.6 41.472 
L 414.72 41.472 
" style="fill:none;stroke:#000000;stroke-linecap:square;stroke-linejoin:miter;stroke-width:0.8;"/>
   </g>
   <g id="text_15">
    <!-- UNCORRELATED -->
    <g transform="translate(187.044375 22.034625)scale(0.12 -0.12)">
     <defs>
      <path d="M 556 4666 
L 1191 4666 
L 1191 1831 
Q 1191 1081 1462 751 
Q 1734 422 2344 422 
Q 2950 422 3222 751 
Q 3494 1081 3494 1831 
L 3494 4666 
L 4128 4666 
L 4128 1753 
Q 4128 841 3676 375 
Q 3225 -91 2344 -91 
Q 1459 -91 1007 375 
Q 556 841 556 1753 
L 556 4666 
z
" id="DejaVuSans-55" transform="scale(0.015625)"/>
      <path d="M 628 4666 
L 1478 4666 
L 3547 763 
L 3547 4666 
L 4159 4666 
L 4159 0 
L 3309 0 
L 1241 3903 
L 1241 0 
L 628 0 
L 628 4666 
z
" id="DejaVuSans-4e" transform="scale(0.015625)"/>
      <path d="M 4122 4306 
L 4122 3641 
Q 3803 3938 3442 4084 
Q 3081 4231 2675 4231 
Q 1875 4231 1450 3742 
Q 1025 3253 1025 2328 
Q 1025 1406 1450 917 
Q 1875 428 2675 428 
Q 3081 428 3442 575 
Q 3803 722 4122 1019 
L 4122 359 
Q 3791 134 3420 21 
Q 3050 -91 2638 -91 
Q 1578 -91 968 557 
Q 359 1206 359 2328 
Q 359 3453 968 4101 
Q 1578 4750 2638 4750 
Q 3056 4750 3426 4639 
Q 3797 4528 4122 4306 
z
" id="DejaVuSans-43" transform="scale(0.015625)"/>
      <path d="M 2522 4238 
Q 1834 4238 1429 3725 
Q 1025 3213 1025 2328 
Q 1025 1447 1429 934 
Q 1834 422 2522 422 
Q 3209 422 3611 934 
Q 4013 1447 4013 2328 
Q 4013 3213 3611 3725 
Q 3209 4238 2522 4238 
z
M 2522 4750 
Q 3503 4750 4090 4092 
Q 4678 3434 4678 2328 
Q 4678 1225 4090 567 
Q 3503 -91 2522 -91 
Q 1538 -91 948 565 
Q 359 1222 359 2328 
Q 359 3434 948 4092 
Q 1538 4750 2522 4750 
z
" id="DejaVuSans-4f" transform="scale(0.015625)"/>
      <path d="M 2841 2188 
Q 3044 2119 3236 1894 
Q 3428 1669 3622 1275 
L 4263 0 
L 3584 0 
L 2988 1197 
Q 2756 1666 2539 1819 
Q 2322 1972 1947 1972 
L 1259 1972 
L 1259 0 
L 628 0 
L 628 4666 
L 2053 4666 
Q 2853 4666 3247 4331 
Q 3641 3997 3641 3322 
Q 3641 2881 3436 2590 
Q 3231 2300 2841 2188 
z
M 1259 4147 
L 1259 2491 
L 2053 2491 
Q 2509 2491 2742 2702 
Q 2975 2913 2975 3322 
Q 2975 3731 2742 3939 
Q 2509 4147 2053 4147 
L 1259 4147 
z
" id="DejaVuSans-52" transform="scale(0.015625)"/>
      <path d="M 628 4666 
L 3578 4666 
L 3578 4134 
L 1259 4134 
L 1259 2753 
L 3481 2753 
L 3481 2222 
L 1259 2222 
L 1259 531 
L 3634 531 
L 3634 0 
L 628 0 
L 628 4666 
z
" id="DejaVuSans-45" transform="scale(0.015625)"/>
      <path d="M 628 4666 
L 1259 4666 
L 1259 531 
L 3531 531 
L 3531 0 
L 628 0 
L 628 4666 
z
" id="DejaVuSans-4c" transform="scale(0.015625)"/>
      <path d="M 2188 4044 
L 1331 1722 
L 3047 1722 
L 2188 4044 
z
M 1831 4666 
L 2547 4666 
L 4325 0 
L 3669 0 
L 3244 1197 
L 1141 1197 
L 716 0 
L 50 0 
L 1831 4666 
z
" id="DejaVuSans-41" transform="scale(0.015625)"/>
      <path d="M -19 4666 
L 3928 4666 
L 3928 4134 
L 2272 4134 
L 2272 0 
L 1638 0 
L 1638 4134 
L -19 4134 
L -19 4666 
z
" id="DejaVuSans-54" transform="scale(0.015625)"/>
      <path d="M 1259 4147 
L 1259 519 
L 2022 519 
Q 2988 519 3436 956 
Q 3884 1394 3884 2338 
Q 3884 3275 3436 3711 
Q 2988 4147 2022 4147 
L 1259 4147 
z
M 628 4666 
L 1925 4666 
Q 3281 4666 3915 4102 
Q 4550 3538 4550 2338 
Q 4550 1131 3912 565 
Q 3275 0 1925 0 
L 628 0 
L 628 4666 
z
" id="DejaVuSans-44" transform="scale(0.015625)"/>
     </defs>
     <use xlink:href="#DejaVuSans-55"/>
     <use x="73.193359" xlink:href="#DejaVuSans-4e"/>
     <use x="147.998047" xlink:href="#DejaVuSans-43"/>
     <use x="217.822266" xlink:href="#DejaVuSans-4f"/>
     <use x="296.533203" xlink:href="#DejaVuSans-52"/>
     <use x="366.015625" xlink:href="#DejaVuSans-52"/>
     <use x="435.498047" xlink:href="#DejaVuSans-45"/>
     <use x="498.681641" xlink:href="#DejaVuSans-4c"/>
     <use x="556.644531" xlink:href="#DejaVuSans-41"/>
     <use x="617.302734" xlink:href="#DejaVuSans-54"/>
     <use x="678.386719" xlink:href="#DejaVuSans-45"/>
     <use x="741.570312" xlink:href="#DejaVuSans-44"/>
    </g>
    <!-- daily_report -->
    <g transform="translate(200.466563 35.472)scale(0.12 -0.12)">
     <defs>
      <path d="M 603 3500 
L 1178 3500 
L 1178 0 
L 603 0 
L 603 3500 
z
M 603 4863 
L 1178 4863 
L 1178 4134 
L 603 4134 
L 603 4863 
z
" id="DejaVuSans-69" transform="scale(0.015625)"/>
      <path d="M 603 4863 
L 1178 4863 
L 1178 0 
L 603 0 
L 603 4863 
z
" id="DejaVuSans-6c" transform="scale(0.015625)"/>
      <path d="M 2059 -325 
Q 1816 -950 1584 -1140 
Q 1353 -1331 966 -1331 
L 506 -1331 
L 506 -850 
L 844 -850 
Q 1081 -850 1212 -737 
Q 1344 -625 1503 -206 
L 1606 56 
L 191 3500 
L 800 3500 
L 1894 763 
L 2988 3500 
L 3597 3500 
L 2059 -325 
z
" id="DejaVuSans-79" transform="scale(0.015625)"/>
      <path d="M 3263 -1063 
L 3263 -1509 
L -63 -1509 
L -63 -1063 
L 3263 -1063 
z
" id="DejaVuSans-5f" transform="scale(0.015625)"/>
      <path d="M 2631 2963 
Q 2534 3019 2420 3045 
Q 2306 3072 2169 3072 
Q 1681 3072 1420 2755 
Q 1159 2438 1159 1844 
L 1159 0 
L 581 0 
L 581 3500 
L 1159 3500 
L 1159 2956 
Q 1341 3275 1631 3429 
Q 1922 3584 2338 3584 
Q 2397 3584 2469 3576 
Q 2541 3569 2628 3553 
L 2631 2963 
z
" id="DejaVuSans-72" transform="scale(0.015625)"/>
      <path d="M 1159 525 
L 1159 -1331 
L 581 -1331 
L 581 3500 
L 1159 3500 
L 1159 2969 
Q 1341 3281 1617 3432 
Q 1894 3584 2278 3584 
Q 2916 3584 3314 3078 
Q 3713 2572 3713 1747 
Q 3713 922 3314 415 
Q 2916 -91 2278 -91 
Q 1894 -91 1617 61 
Q 1341 213 1159 525 
z
M 3116 1747 
Q 3116 2381 2855 2742 
Q 2594 3103 2138 3103 
Q 1681 3103 1420 2742 
Q 1159 2381 1159 1747 
Q 1159 1113 1420 752 
Q 1681 391 2138 391 
Q 2594 391 2855 752 
Q 3116 1113 3116 1747 
z
" id="DejaVuSans-70" transform="scale(0.015625)"/>
      <path d="M 1959 3097 
Q 1497 3097 1228 2736 
Q 959 2375 959 1747 
Q 959 1119 1226 758 
Q 1494 397 1959 397 
Q 2419 397 2687 759 
Q 2956 1122 2956 1747 
Q 2956 2369 2687 2733 
Q 2419 3097 1959 3097 
z
M 1959 3584 
Q 2709 3584 3137 3096 
Q 3566 2609 3566 1747 
Q 3566 888 3137 398 
Q 2709 -91 1959 -91 
Q 1206 -91 779 398 
Q 353 888 353 1747 
Q 353 2609 779 3096 
Q 1206 3584 1959 3584 
z
" id="DejaVuSans-6f" transform="scale(0.015625)"/>
     </defs>
     <use xlink:href="#DejaVuSans-64"/>
     <use x="63.476562" xlink:href="#DejaVuSans-61"/>
     <use x="124.755859" xlink:href="#DejaVuSans-69"/>
     <use x="152.539062" xlink:href="#DejaVuSans-6c"/>
     <use x="180.322266" xlink:href="#DejaVuSans-79"/>
     <use x="239.501953" xlink:href="#DejaVuSans-5f"/>
     <use x="289.501953" xlink:href="#DejaVuSans-72"/>
     <use x="328.365234" xlink:href="#DejaVuSans-65"/>
     <use x="389.888672" xlink:href="#DejaVuSans-70"/>
     <use x="453.365234" xlink:href="#DejaVuSans-6f"/>
     <use x="514.546875" xlink:href="#DejaVuSans-72"/>
     <use x="555.660156" xlink:href="#DejaVuSans-74"/>
    </g>
   </g>
   <g id="legend_1">
    <g id="patch_7">
     <path d="M 179.138125 137.54075 
L 293.181875 137.54075 
Q 295.181875 137.54075 295.181875 135.54075 
L 295.181875 48.472 
Q 295.181875 46.472 293.181875 46.472 
L 179.138125 46.472 
Q 177.138125 46.472 177.138125 48.472 
L 177.138125 135.54075 
Q 177.138125 137.54075 179.138125 137.54075 
z
" style="fill:#ffffff;opacity:0.8;stroke:#cccccc;stroke-linejoin:miter;"/>
    </g>
    <g id="line2d_20">
     <path d="M 181.138125 54.570437 
L 201.138125 54.570437 
" style="fill:none;stroke:#0000ff;stroke-linecap:square;stroke-opacity:0.9;stroke-width:2;"/>
    </g>
    <g id="line2d_21"/>
    <g id="text_16">
     <!-- alpaca -->
     <g transform="translate(209.138125 58.070437)scale(0.1 -0.1)">
      <defs>
       <path d="M 3122 3366 
L 3122 2828 
Q 2878 2963 2633 3030 
Q 2388 3097 2138 3097 
Q 1578 3097 1268 2742 
Q 959 2388 959 1747 
Q 959 1106 1268 751 
Q 1578 397 2138 397 
Q 2388 397 2633 464 
Q 2878 531 3122 666 
L 3122 134 
Q 2881 22 2623 -34 
Q 2366 -91 2075 -91 
Q 1284 -91 818 406 
Q 353 903 353 1747 
Q 353 2603 823 3093 
Q 1294 3584 2113 3584 
Q 2378 3584 2631 3529 
Q 2884 3475 3122 3366 
z
" id="DejaVuSans-63" transform="scale(0.015625)"/>
      </defs>
      <use xlink:href="#DejaVuSans-61"/>
      <use x="61.279297" xlink:href="#DejaVuSans-6c"/>
      <use x="89.0625" xlink:href="#DejaVuSans-70"/>
      <use x="152.539062" xlink:href="#DejaVuSans-61"/>
      <use x="213.818359" xlink:href="#DejaVuSans-63"/>
      <use x="268.798828" xlink:href="#DejaVuSans-61"/>
     </g>
    </g>
    <g id="line2d_22">
     <path d="M 181.138125 69.248562 
L 201.138125 69.248562 
" style="fill:none;stroke:#ff0000;stroke-linecap:square;stroke-opacity:0.9;stroke-width:2;"/>
    </g>
    <g id="line2d_23"/>
    <g id="text_17">
     <!-- mattress -->
     <g transform="translate(209.138125 72.748562)scale(0.1 -0.1)">
      <defs>
       <path d="M 3328 2828 
Q 3544 3216 3844 3400 
Q 4144 3584 4550 3584 
Q 5097 3584 5394 3201 
Q 5691 2819 5691 2113 
L 5691 0 
L 5113 0 
L 5113 2094 
Q 5113 2597 4934 2840 
Q 4756 3084 4391 3084 
Q 3944 3084 3684 2787 
Q 3425 2491 3425 1978 
L 3425 0 
L 2847 0 
L 2847 2094 
Q 2847 2600 2669 2842 
Q 2491 3084 2119 3084 
Q 1678 3084 1418 2786 
Q 1159 2488 1159 1978 
L 1159 0 
L 581 0 
L 581 3500 
L 1159 3500 
L 1159 2956 
Q 1356 3278 1631 3431 
Q 1906 3584 2284 3584 
Q 2666 3584 2933 3390 
Q 3200 3197 3328 2828 
z
" id="DejaVuSans-6d" transform="scale(0.015625)"/>
       <path d="M 2834 3397 
L 2834 2853 
Q 2591 2978 2328 3040 
Q 2066 3103 1784 3103 
Q 1356 3103 1142 2972 
Q 928 2841 928 2578 
Q 928 2378 1081 2264 
Q 1234 2150 1697 2047 
L 1894 2003 
Q 2506 1872 2764 1633 
Q 3022 1394 3022 966 
Q 3022 478 2636 193 
Q 2250 -91 1575 -91 
Q 1294 -91 989 -36 
Q 684 19 347 128 
L 347 722 
Q 666 556 975 473 
Q 1284 391 1588 391 
Q 1994 391 2212 530 
Q 2431 669 2431 922 
Q 2431 1156 2273 1281 
Q 2116 1406 1581 1522 
L 1381 1569 
Q 847 1681 609 1914 
Q 372 2147 372 2553 
Q 372 3047 722 3315 
Q 1072 3584 1716 3584 
Q 2034 3584 2315 3537 
Q 2597 3491 2834 3397 
z
" id="DejaVuSans-73" transform="scale(0.015625)"/>
      </defs>
      <use xlink:href="#DejaVuSans-6d"/>
      <use x="97.412109" xlink:href="#DejaVuSans-61"/>
      <use x="158.691406" xlink:href="#DejaVuSans-74"/>
      <use x="197.900391" xlink:href="#DejaVuSans-74"/>
      <use x="237.109375" xlink:href="#DejaVuSans-72"/>
      <use x="275.972656" xlink:href="#DejaVuSans-65"/>
      <use x="337.496094" xlink:href="#DejaVuSans-73"/>
      <use x="389.595703" xlink:href="#DejaVuSans-73"/>
     </g>
    </g>
    <g id="line2d_24">
     <path d="M 181.138125 83.926687 
L 201.138125 83.926687 
" style="fill:none;stroke:#008000;stroke-linecap:square;stroke-opacity:0.9;stroke-width:2;"/>
    </g>
    <g id="line2d_25"/>
    <g id="text_18">
     <!-- daily-open-rebal -->
     <g transform="translate(209.138125 87.426687)scale(0.1 -0.1)">
      <defs>
       <path d="M 3513 2113 
L 3513 0 
L 2938 0 
L 2938 2094 
Q 2938 2591 2744 2837 
Q 2550 3084 2163 3084 
Q 1697 3084 1428 2787 
Q 1159 2491 1159 1978 
L 1159 0 
L 581 0 
L 581 3500 
L 1159 3500 
L 1159 2956 
Q 1366 3272 1645 3428 
Q 1925 3584 2291 3584 
Q 2894 3584 3203 3211 
Q 3513 2838 3513 2113 
z
" id="DejaVuSans-6e" transform="scale(0.015625)"/>
       <path d="M 3116 1747 
Q 3116 2381 2855 2742 
Q 2594 3103 2138 3103 
Q 1681 3103 1420 2742 
Q 1159 2381 1159 1747 
Q 1159 1113 1420 752 
Q 1681 391 2138 391 
Q 2594 391 2855 752 
Q 3116 1113 3116 1747 
z
M 1159 2969 
Q 1341 3281 1617 3432 
Q 1894 3584 2278 3584 
Q 2916 3584 3314 3078 
Q 3713 2572 3713 1747 
Q 3713 922 3314 415 
Q 2916 -91 2278 -91 
Q 1894 -91 1617 61 
Q 1341 213 1159 525 
L 1159 0 
L 581 0 
L 581 4863 
L 1159 4863 
L 1159 2969 
z
" id="DejaVuSans-62" transform="scale(0.015625)"/>
      </defs>
      <use xlink:href="#DejaVuSans-64"/>
      <use x="63.476562" xlink:href="#DejaVuSans-61"/>
      <use x="124.755859" xlink:href="#DejaVuSans-69"/>
      <use x="152.539062" xlink:href="#DejaVuSans-6c"/>
      <use x="180.322266" xlink:href="#DejaVuSans-79"/>
      <use x="237.751953" xlink:href="#DejaVuSans-2d"/>
      <use x="275.710938" xlink:href="#DejaVuSans-6f"/>
      <use x="336.892578" xlink:href="#DejaVuSans-70"/>
      <use x="400.369141" xlink:href="#DejaVuSans-65"/>
      <use x="461.892578" xlink:href="#DejaVuSans-6e"/>
      <use x="525.271484" xlink:href="#DejaVuSans-2d"/>
      <use x="561.355469" xlink:href="#DejaVuSans-72"/>
      <use x="600.21875" xlink:href="#DejaVuSans-65"/>
      <use x="661.742188" xlink:href="#DejaVuSans-62"/>
      <use x="725.21875" xlink:href="#DejaVuSans-61"/>
      <use x="786.498047" xlink:href="#DejaVuSans-6c"/>
     </g>
    </g>
    <g id="line2d_26">
     <path d="M 181.138125 98.604812 
L 201.138125 98.604812 
" style="fill:none;stroke:#ec5283;stroke-linecap:square;stroke-width:2;"/>
    </g>
    <g id="line2d_27"/>
    <g id="text_19">
     <!-- daily-close-rebal -->
     <g transform="translate(209.138125 102.104812)scale(0.1 -0.1)">
      <use xlink:href="#DejaVuSans-64"/>
      <use x="63.476562" xlink:href="#DejaVuSans-61"/>
      <use x="124.755859" xlink:href="#DejaVuSans-69"/>
      <use x="152.539062" xlink:href="#DejaVuSans-6c"/>
      <use x="180.322266" xlink:href="#DejaVuSans-79"/>
      <use x="237.751953" xlink:href="#DejaVuSans-2d"/>
      <use x="273.835938" xlink:href="#DejaVuSans-63"/>
      <use x="328.816406" xlink:href="#DejaVuSans-6c"/>
      <use x="356.599609" xlink:href="#DejaVuSans-6f"/>
      <use x="417.78125" xlink:href="#DejaVuSans-73"/>
      <use x="469.880859" xlink:href="#DejaVuSans-65"/>
      <use x="531.404297" xlink:href="#DejaVuSans-2d"/>
      <use x="567.488281" xlink:href="#DejaVuSans-72"/>
      <use x="606.351562" xlink:href="#DejaVuSans-65"/>
      <use x="667.875" xlink:href="#DejaVuSans-62"/>
      <use x="731.351562" xlink:href="#DejaVuSans-61"/>
      <use x="792.630859" xlink:href="#DejaVuSans-6c"/>
     </g>
    </g>
    <g id="line2d_28">
     <path d="M 181.138125 113.282937 
L 201.138125 113.282937 
" style="fill:none;stroke:#00ff00;stroke-linecap:square;stroke-opacity:0.9;stroke-width:2;"/>
    </g>
    <g id="line2d_29"/>
    <g id="text_20">
     <!-- trader-baseline -->
     <g transform="translate(209.138125 116.782937)scale(0.1 -0.1)">
      <use xlink:href="#DejaVuSans-74"/>
      <use x="39.208984" xlink:href="#DejaVuSans-72"/>
      <use x="80.322266" xlink:href="#DejaVuSans-61"/>
      <use x="141.601562" xlink:href="#DejaVuSans-64"/>
      <use x="205.078125" xlink:href="#DejaVuSans-65"/>
      <use x="266.601562" xlink:href="#DejaVuSans-72"/>
      <use x="301.339844" xlink:href="#DejaVuSans-2d"/>
      <use x="337.423828" xlink:href="#DejaVuSans-62"/>
      <use x="400.900391" xlink:href="#DejaVuSans-61"/>
      <use x="462.179688" xlink:href="#DejaVuSans-73"/>
      <use x="514.279297" xlink:href="#DejaVuSans-65"/>
      <use x="575.802734" xlink:href="#DejaVuSans-6c"/>
      <use x="603.585938" xlink:href="#DejaVuSans-69"/>
      <use x="631.369141" xlink:href="#DejaVuSans-6e"/>
      <use x="694.748047" xlink:href="#DejaVuSans-65"/>
     </g>
    </g>
    <g id="line2d_30">
     <path d="M 181.138125 127.961062 
L 201.138125 127.961062 
" style="fill:none;stroke:#a5b9cf;stroke-linecap:square;stroke-width:2;"/>
    </g>
    <g id="line2d_31"/>
    <g id="text_21">
     <!-- default-cfg -->
     <g transform="translate(209.138125 131.461062)scale(0.1 -0.1)">
      <defs>
       <path d="M 2375 4863 
L 2375 4384 
L 1825 4384 
Q 1516 4384 1395 4259 
Q 1275 4134 1275 3809 
L 1275 3500 
L 2222 3500 
L 2222 3053 
L 1275 3053 
L 1275 0 
L 697 0 
L 697 3053 
L 147 3053 
L 147 3500 
L 697 3500 
L 697 3744 
Q 697 4328 969 4595 
Q 1241 4863 1831 4863 
L 2375 4863 
z
" id="DejaVuSans-66" transform="scale(0.015625)"/>
       <path d="M 544 1381 
L 544 3500 
L 1119 3500 
L 1119 1403 
Q 1119 906 1312 657 
Q 1506 409 1894 409 
Q 2359 409 2629 706 
Q 2900 1003 2900 1516 
L 2900 3500 
L 3475 3500 
L 3475 0 
L 2900 0 
L 2900 538 
Q 2691 219 2414 64 
Q 2138 -91 1772 -91 
Q 1169 -91 856 284 
Q 544 659 544 1381 
z
M 1991 3584 
L 1991 3584 
z
" id="DejaVuSans-75" transform="scale(0.015625)"/>
       <path d="M 2906 1791 
Q 2906 2416 2648 2759 
Q 2391 3103 1925 3103 
Q 1463 3103 1205 2759 
Q 947 2416 947 1791 
Q 947 1169 1205 825 
Q 1463 481 1925 481 
Q 2391 481 2648 825 
Q 2906 1169 2906 1791 
z
M 3481 434 
Q 3481 -459 3084 -895 
Q 2688 -1331 1869 -1331 
Q 1566 -1331 1297 -1286 
Q 1028 -1241 775 -1147 
L 775 -588 
Q 1028 -725 1275 -790 
Q 1522 -856 1778 -856 
Q 2344 -856 2625 -561 
Q 2906 -266 2906 331 
L 2906 616 
Q 2728 306 2450 153 
Q 2172 0 1784 0 
Q 1141 0 747 490 
Q 353 981 353 1791 
Q 353 2603 747 3093 
Q 1141 3584 1784 3584 
Q 2172 3584 2450 3431 
Q 2728 3278 2906 2969 
L 2906 3500 
L 3481 3500 
L 3481 434 
z
" id="DejaVuSans-67" transform="scale(0.015625)"/>
      </defs>
      <use xlink:href="#DejaVuSans-64"/>
      <use x="63.476562" xlink:href="#DejaVuSans-65"/>
      <use x="125" xlink:href="#DejaVuSans-66"/>
      <use x="160.205078" xlink:href="#DejaVuSans-61"/>
      <use x="221.484375" xlink:href="#DejaVuSans-75"/>
      <use x="284.863281" xlink:href="#DejaVuSans-6c"/>
      <use x="312.646484" xlink:href="#DejaVuSans-74"/>
      <use x="351.855469" xlink:href="#DejaVuSans-2d"/>
      <use x="387.939453" xlink:href="#DejaVuSans-63"/>
      <use x="442.919922" xlink:href="#DejaVuSans-66"/>
      <use x="478.125" xlink:href="#DejaVuSans-67"/>
     </g>
    </g>
   </g>
  </g>
 </g>
 <defs>
  <clipPath id="pa8e79a8667">
   <rect height="235.008" width="357.12" x="57.6" y="41.472"/>
  </clipPath>
 </defs>
</svg>
