<?xml version="1.0" encoding="utf-8" standalone="no"?>
<!DOCTYPE svg PUBLIC "-//W3C//DTD SVG 1.1//EN"
  "http://www.w3.org/Graphics/SVG/1.1/DTD/svg11.dtd">
<svg height="345.6pt" version="1.1" viewBox="0 0 460.8 345.6" width="460.8pt" xmlns="http://www.w3.org/2000/svg" xmlns:xlink="http://www.w3.org/1999/xlink">
 <metadata>
  <rdf:RDF xmlns:cc="http://creativecommons.org/ns#" xmlns:dc="http://purl.org/dc/elements/1.1/" xmlns:rdf="http://www.w3.org/1999/02/22-rdf-syntax-ns#">
   <cc:Work>
    <dc:type rdf:resource="http://purl.org/dc/dcmitype/StillImage"/>
    <dc:date>2022-04-28T10:02:05.748818</dc:date>
    <dc:format>image/svg+xml</dc:format>
    <dc:creator>
     <cc:Agent>
      <dc:title>Matplotlib v3.4.3, https://matplotlib.org/</dc:title>
     </cc:Agent>
    </dc:creator>
   </cc:Work>
  </rdf:RDF>
 </metadata>
 <defs>
  <style type="text/css">*{stroke-linecap:butt;stroke-linejoin:round;}</style>
 </defs>
 <g id="figure_1">
  <g id="patch_1">
   <path d="M 0 345.6 
L 460.8 345.6 
L 460.8 0 
L 0 0 
z
" style="fill:#ffffff;"/>
  </g>
  <g id="axes_1">
   <g id="patch_2">
    <path d="M 57.6 276.48 
L 414.72 276.48 
L 414.72 41.472 
L 57.6 41.472 
z
" style="fill:#ffffff;"/>
   </g>
   <g id="matplotlib.axis_1">
    <g id="xtick_1">
     <g id="line2d_1">
      <defs>
       <path d="M 0 0 
L 0 3.5 
" id="mc22a22669f" style="stroke:#000000;stroke-width:0.8;"/>
      </defs>
      <g>
       <use style="stroke:#000000;stroke-width:0.8;" x="100.210909" xlink:href="#mc22a22669f" y="276.48"/>
      </g>
     </g>
     <g id="text_1">
      <!-- 2021-12 -->
      <g transform="translate(62.986088 310.951846)rotate(-30)scale(0.1 -0.1)">
       <defs>
        <path d="M 1228 531 
L 3431 531 
L 3431 0 
L 469 0 
L 469 531 
Q 828 903 1448 1529 
Q 2069 2156 2228 2338 
Q 2531 2678 2651 2914 
Q 2772 3150 2772 3378 
Q 2772 3750 2511 3984 
Q 2250 4219 1831 4219 
Q 1534 4219 1204 4116 
Q 875 4013 500 3803 
L 500 4441 
Q 881 4594 1212 4672 
Q 1544 4750 1819 4750 
Q 2544 4750 2975 4387 
Q 3406 4025 3406 3419 
Q 3406 3131 3298 2873 
Q 3191 2616 2906 2266 
Q 2828 2175 2409 1742 
Q 1991 1309 1228 531 
z
" id="DejaVuSans-32" transform="scale(0.015625)"/>
        <path d="M 2034 4250 
Q 1547 4250 1301 3770 
Q 1056 3291 1056 2328 
Q 1056 1369 1301 889 
Q 1547 409 2034 409 
Q 2525 409 2770 889 
Q 3016 1369 3016 2328 
Q 3016 3291 2770 3770 
Q 2525 4250 2034 4250 
z
M 2034 4750 
Q 2819 4750 3233 4129 
Q 3647 3509 3647 2328 
Q 3647 1150 3233 529 
Q 2819 -91 2034 -91 
Q 1250 -91 836 529 
Q 422 1150 422 2328 
Q 422 3509 836 4129 
Q 1250 4750 2034 4750 
z
" id="DejaVuSans-30" transform="scale(0.015625)"/>
        <path d="M 794 531 
L 1825 531 
L 1825 4091 
L 703 3866 
L 703 4441 
L 1819 4666 
L 2450 4666 
L 2450 531 
L 3481 531 
L 3481 0 
L 794 0 
L 794 531 
z
" id="DejaVuSans-31" transform="scale(0.015625)"/>
        <path d="M 313 2009 
L 1997 2009 
L 1997 1497 
L 313 1497 
L 313 2009 
z
" id="DejaVuSans-2d" transform="scale(0.015625)"/>
       </defs>
       <use xlink:href="#DejaVuSans-32"/>
       <use x="63.623047" xlink:href="#DejaVuSans-30"/>
       <use x="127.246094" xlink:href="#DejaVuSans-32"/>
       <use x="190.869141" xlink:href="#DejaVuSans-31"/>
       <use x="254.492188" xlink:href="#DejaVuSans-2d"/>
       <use x="290.576172" xlink:href="#DejaVuSans-31"/>
       <use x="354.199219" xlink:href="#DejaVuSans-32"/>
      </g>
     </g>
    </g>
    <g id="xtick_2">
     <g id="line2d_2">
      <g>
       <use style="stroke:#000000;stroke-width:0.8;" x="163.112727" xlink:href="#mc22a22669f" y="276.48"/>
      </g>
     </g>
     <g id="text_2">
      <!-- 2022-01 -->
      <g transform="translate(125.887906 310.951846)rotate(-30)scale(0.1 -0.1)">
       <use xlink:href="#DejaVuSans-32"/>
       <use x="63.623047" xlink:href="#DejaVuSans-30"/>
       <use x="127.246094" xlink:href="#DejaVuSans-32"/>
       <use x="190.869141" xlink:href="#DejaVuSans-32"/>
       <use x="254.492188" xlink:href="#DejaVuSans-2d"/>
       <use x="290.576172" xlink:href="#DejaVuSans-30"/>
       <use x="354.199219" xlink:href="#DejaVuSans-31"/>
      </g>
     </g>
    </g>
    <g id="xtick_3">
     <g id="line2d_3">
      <g>
       <use style="stroke:#000000;stroke-width:0.8;" x="226.014545" xlink:href="#mc22a22669f" y="276.48"/>
      </g>
     </g>
     <g id="text_3">
      <!-- 2022-02 -->
      <g transform="translate(188.789725 310.951846)rotate(-30)scale(0.1 -0.1)">
       <use xlink:href="#DejaVuSans-32"/>
       <use x="63.623047" xlink:href="#DejaVuSans-30"/>
       <use x="127.246094" xlink:href="#DejaVuSans-32"/>
       <use x="190.869141" xlink:href="#DejaVuSans-32"/>
       <use x="254.492188" xlink:href="#DejaVuSans-2d"/>
       <use x="290.576172" xlink:href="#DejaVuSans-30"/>
       <use x="354.199219" xlink:href="#DejaVuSans-32"/>
      </g>
     </g>
    </g>
    <g id="xtick_4">
     <g id="line2d_4">
      <g>
       <use style="stroke:#000000;stroke-width:0.8;" x="282.829091" xlink:href="#mc22a22669f" y="276.48"/>
      </g>
     </g>
     <g id="text_4">
      <!-- 2022-03 -->
      <g transform="translate(245.60427 310.951846)rotate(-30)scale(0.1 -0.1)">
       <defs>
        <path d="M 2597 2516 
Q 3050 2419 3304 2112 
Q 3559 1806 3559 1356 
Q 3559 666 3084 287 
Q 2609 -91 1734 -91 
Q 1441 -91 1130 -33 
Q 819 25 488 141 
L 488 750 
Q 750 597 1062 519 
Q 1375 441 1716 441 
Q 2309 441 2620 675 
Q 2931 909 2931 1356 
Q 2931 1769 2642 2001 
Q 2353 2234 1838 2234 
L 1294 2234 
L 1294 2753 
L 1863 2753 
Q 2328 2753 2575 2939 
Q 2822 3125 2822 3475 
Q 2822 3834 2567 4026 
Q 2313 4219 1838 4219 
Q 1578 4219 1281 4162 
Q 984 4106 628 3988 
L 628 4550 
Q 988 4650 1302 4700 
Q 1616 4750 1894 4750 
Q 2613 4750 3031 4423 
Q 3450 4097 3450 3541 
Q 3450 3153 3228 2886 
Q 3006 2619 2597 2516 
z
" id="DejaVuSans-33" transform="scale(0.015625)"/>
       </defs>
       <use xlink:href="#DejaVuSans-32"/>
       <use x="63.623047" xlink:href="#DejaVuSans-30"/>
       <use x="127.246094" xlink:href="#DejaVuSans-32"/>
       <use x="190.869141" xlink:href="#DejaVuSans-32"/>
       <use x="254.492188" xlink:href="#DejaVuSans-2d"/>
       <use x="290.576172" xlink:href="#DejaVuSans-30"/>
       <use x="354.199219" xlink:href="#DejaVuSans-33"/>
      </g>
     </g>
    </g>
    <g id="xtick_5">
     <g id="line2d_5">
      <g>
       <use style="stroke:#000000;stroke-width:0.8;" x="345.730909" xlink:href="#mc22a22669f" y="276.48"/>
      </g>
     </g>
     <g id="text_5">
      <!-- 2022-04 -->
      <g transform="translate(308.506088 310.951846)rotate(-30)scale(0.1 -0.1)">
       <defs>
        <path d="M 2419 4116 
L 825 1625 
L 2419 1625 
L 2419 4116 
z
M 2253 4666 
L 3047 4666 
L 3047 1625 
L 3713 1625 
L 3713 1100 
L 3047 1100 
L 3047 0 
L 2419 0 
L 2419 1100 
L 313 1100 
L 313 1709 
L 2253 4666 
z
" id="DejaVuSans-34" transform="scale(0.015625)"/>
       </defs>
       <use xlink:href="#DejaVuSans-32"/>
       <use x="63.623047" xlink:href="#DejaVuSans-30"/>
       <use x="127.246094" xlink:href="#DejaVuSans-32"/>
       <use x="190.869141" xlink:href="#DejaVuSans-32"/>
       <use x="254.492188" xlink:href="#DejaVuSans-2d"/>
       <use x="290.576172" xlink:href="#DejaVuSans-30"/>
       <use x="354.199219" xlink:href="#DejaVuSans-34"/>
      </g>
     </g>
    </g>
    <g id="xtick_6">
     <g id="line2d_6">
      <g>
       <use style="stroke:#000000;stroke-width:0.8;" x="406.603636" xlink:href="#mc22a22669f" y="276.48"/>
      </g>
     </g>
     <g id="text_6">
      <!-- 2022-05 -->
      <g transform="translate(369.378816 310.951846)rotate(-30)scale(0.1 -0.1)">
       <defs>
        <path d="M 691 4666 
L 3169 4666 
L 3169 4134 
L 1269 4134 
L 1269 2991 
Q 1406 3038 1543 3061 
Q 1681 3084 1819 3084 
Q 2600 3084 3056 2656 
Q 3513 2228 3513 1497 
Q 3513 744 3044 326 
Q 2575 -91 1722 -91 
Q 1428 -91 1123 -41 
Q 819 9 494 109 
L 494 744 
Q 775 591 1075 516 
Q 1375 441 1709 441 
Q 2250 441 2565 725 
Q 2881 1009 2881 1497 
Q 2881 1984 2565 2268 
Q 2250 2553 1709 2553 
Q 1456 2553 1204 2497 
Q 953 2441 691 2322 
L 691 4666 
z
" id="DejaVuSans-35" transform="scale(0.015625)"/>
       </defs>
       <use xlink:href="#DejaVuSans-32"/>
       <use x="63.623047" xlink:href="#DejaVuSans-30"/>
       <use x="127.246094" xlink:href="#DejaVuSans-32"/>
       <use x="190.869141" xlink:href="#DejaVuSans-32"/>
       <use x="254.492188" xlink:href="#DejaVuSans-2d"/>
       <use x="290.576172" xlink:href="#DejaVuSans-30"/>
       <use x="354.199219" xlink:href="#DejaVuSans-35"/>
      </g>
     </g>
    </g>
    <g id="text_7">
     <!-- date -->
     <g transform="translate(224.885 324.351346)scale(0.1 -0.1)">
      <defs>
       <path d="M 2906 2969 
L 2906 4863 
L 3481 4863 
L 3481 0 
L 2906 0 
L 2906 525 
Q 2725 213 2448 61 
Q 2172 -91 1784 -91 
Q 1150 -91 751 415 
Q 353 922 353 1747 
Q 353 2572 751 3078 
Q 1150 3584 1784 3584 
Q 2172 3584 2448 3432 
Q 2725 3281 2906 2969 
z
M 947 1747 
Q 947 1113 1208 752 
Q 1469 391 1925 391 
Q 2381 391 2643 752 
Q 2906 1113 2906 1747 
Q 2906 2381 2643 2742 
Q 2381 3103 1925 3103 
Q 1469 3103 1208 2742 
Q 947 2381 947 1747 
z
" id="DejaVuSans-64" transform="scale(0.015625)"/>
       <path d="M 2194 1759 
Q 1497 1759 1228 1600 
Q 959 1441 959 1056 
Q 959 750 1161 570 
Q 1363 391 1709 391 
Q 2188 391 2477 730 
Q 2766 1069 2766 1631 
L 2766 1759 
L 2194 1759 
z
M 3341 1997 
L 3341 0 
L 2766 0 
L 2766 531 
Q 2569 213 2275 61 
Q 1981 -91 1556 -91 
Q 1019 -91 701 211 
Q 384 513 384 1019 
Q 384 1609 779 1909 
Q 1175 2209 1959 2209 
L 2766 2209 
L 2766 2266 
Q 2766 2663 2505 2880 
Q 2244 3097 1772 3097 
Q 1472 3097 1187 3025 
Q 903 2953 641 2809 
L 641 3341 
Q 956 3463 1253 3523 
Q 1550 3584 1831 3584 
Q 2591 3584 2966 3190 
Q 3341 2797 3341 1997 
z
" id="DejaVuSans-61" transform="scale(0.015625)"/>
       <path d="M 1172 4494 
L 1172 3500 
L 2356 3500 
L 2356 3053 
L 1172 3053 
L 1172 1153 
Q 1172 725 1289 603 
Q 1406 481 1766 481 
L 2356 481 
L 2356 0 
L 1766 0 
Q 1100 0 847 248 
Q 594 497 594 1153 
L 594 3053 
L 172 3053 
L 172 3500 
L 594 3500 
L 594 4494 
L 1172 4494 
z
" id="DejaVuSans-74" transform="scale(0.015625)"/>
       <path d="M 3597 1894 
L 3597 1613 
L 953 1613 
Q 991 1019 1311 708 
Q 1631 397 2203 397 
Q 2534 397 2845 478 
Q 3156 559 3463 722 
L 3463 178 
Q 3153 47 2828 -22 
Q 2503 -91 2169 -91 
Q 1331 -91 842 396 
Q 353 884 353 1716 
Q 353 2575 817 3079 
Q 1281 3584 2069 3584 
Q 2775 3584 3186 3129 
Q 3597 2675 3597 1894 
z
M 3022 2063 
Q 3016 2534 2758 2815 
Q 2500 3097 2075 3097 
Q 1594 3097 1305 2825 
Q 1016 2553 972 2059 
L 3022 2063 
z
" id="DejaVuSans-65" transform="scale(0.015625)"/>
      </defs>
      <use xlink:href="#DejaVuSans-64"/>
      <use x="63.476562" xlink:href="#DejaVuSans-61"/>
      <use x="124.755859" xlink:href="#DejaVuSans-74"/>
      <use x="163.964844" xlink:href="#DejaVuSans-65"/>
     </g>
    </g>
   </g>
   <g id="matplotlib.axis_2">
    <g id="ytick_1">
     <g id="line2d_7">
      <defs>
       <path d="M 0 0 
L -3.5 0 
" id="mc5c74645ad" style="stroke:#000000;stroke-width:0.8;"/>
      </defs>
      <g>
       <use style="stroke:#000000;stroke-width:0.8;" x="57.6" xlink:href="#mc5c74645ad" y="266.420835"/>
      </g>
     </g>
     <g id="text_8">
      <!-- 50000 -->
      <g transform="translate(18.7875 270.220053)scale(0.1 -0.1)">
       <use xlink:href="#DejaVuSans-35"/>
       <use x="63.623047" xlink:href="#DejaVuSans-30"/>
       <use x="127.246094" xlink:href="#DejaVuSans-30"/>
       <use x="190.869141" xlink:href="#DejaVuSans-30"/>
       <use x="254.492188" xlink:href="#DejaVuSans-30"/>
      </g>
     </g>
    </g>
    <g id="ytick_2">
     <g id="line2d_8">
      <g>
       <use style="stroke:#000000;stroke-width:0.8;" x="57.6" xlink:href="#mc5c74645ad" y="223.112346"/>
      </g>
     </g>
     <g id="text_9">
      <!-- 60000 -->
      <g transform="translate(18.7875 226.911565)scale(0.1 -0.1)">
       <defs>
        <path d="M 2113 2584 
Q 1688 2584 1439 2293 
Q 1191 2003 1191 1497 
Q 1191 994 1439 701 
Q 1688 409 2113 409 
Q 2538 409 2786 701 
Q 3034 994 3034 1497 
Q 3034 2003 2786 2293 
Q 2538 2584 2113 2584 
z
M 3366 4563 
L 3366 3988 
Q 3128 4100 2886 4159 
Q 2644 4219 2406 4219 
Q 1781 4219 1451 3797 
Q 1122 3375 1075 2522 
Q 1259 2794 1537 2939 
Q 1816 3084 2150 3084 
Q 2853 3084 3261 2657 
Q 3669 2231 3669 1497 
Q 3669 778 3244 343 
Q 2819 -91 2113 -91 
Q 1303 -91 875 529 
Q 447 1150 447 2328 
Q 447 3434 972 4092 
Q 1497 4750 2381 4750 
Q 2619 4750 2861 4703 
Q 3103 4656 3366 4563 
z
" id="DejaVuSans-36" transform="scale(0.015625)"/>
       </defs>
       <use xlink:href="#DejaVuSans-36"/>
       <use x="63.623047" xlink:href="#DejaVuSans-30"/>
       <use x="127.246094" xlink:href="#DejaVuSans-30"/>
       <use x="190.869141" xlink:href="#DejaVuSans-30"/>
       <use x="254.492188" xlink:href="#DejaVuSans-30"/>
      </g>
     </g>
    </g>
    <g id="ytick_3">
     <g id="line2d_9">
      <g>
       <use style="stroke:#000000;stroke-width:0.8;" x="57.6" xlink:href="#mc5c74645ad" y="179.803857"/>
      </g>
     </g>
     <g id="text_10">
      <!-- 70000 -->
      <g transform="translate(18.7875 183.603076)scale(0.1 -0.1)">
       <defs>
        <path d="M 525 4666 
L 3525 4666 
L 3525 4397 
L 1831 0 
L 1172 0 
L 2766 4134 
L 525 4134 
L 525 4666 
z
" id="DejaVuSans-37" transform="scale(0.015625)"/>
       </defs>
       <use xlink:href="#DejaVuSans-37"/>
       <use x="63.623047" xlink:href="#DejaVuSans-30"/>
       <use x="127.246094" xlink:href="#DejaVuSans-30"/>
       <use x="190.869141" xlink:href="#DejaVuSans-30"/>
       <use x="254.492188" xlink:href="#DejaVuSans-30"/>
      </g>
     </g>
    </g>
    <g id="ytick_4">
     <g id="line2d_10">
      <g>
       <use style="stroke:#000000;stroke-width:0.8;" x="57.6" xlink:href="#mc5c74645ad" y="136.495369"/>
      </g>
     </g>
     <g id="text_11">
      <!-- 80000 -->
      <g transform="translate(18.7875 140.294587)scale(0.1 -0.1)">
       <defs>
        <path d="M 2034 2216 
Q 1584 2216 1326 1975 
Q 1069 1734 1069 1313 
Q 1069 891 1326 650 
Q 1584 409 2034 409 
Q 2484 409 2743 651 
Q 3003 894 3003 1313 
Q 3003 1734 2745 1975 
Q 2488 2216 2034 2216 
z
M 1403 2484 
Q 997 2584 770 2862 
Q 544 3141 544 3541 
Q 544 4100 942 4425 
Q 1341 4750 2034 4750 
Q 2731 4750 3128 4425 
Q 3525 4100 3525 3541 
Q 3525 3141 3298 2862 
Q 3072 2584 2669 2484 
Q 3125 2378 3379 2068 
Q 3634 1759 3634 1313 
Q 3634 634 3220 271 
Q 2806 -91 2034 -91 
Q 1263 -91 848 271 
Q 434 634 434 1313 
Q 434 1759 690 2068 
Q 947 2378 1403 2484 
z
M 1172 3481 
Q 1172 3119 1398 2916 
Q 1625 2713 2034 2713 
Q 2441 2713 2670 2916 
Q 2900 3119 2900 3481 
Q 2900 3844 2670 4047 
Q 2441 4250 2034 4250 
Q 1625 4250 1398 4047 
Q 1172 3844 1172 3481 
z
" id="DejaVuSans-38" transform="scale(0.015625)"/>
       </defs>
       <use xlink:href="#DejaVuSans-38"/>
       <use x="63.623047" xlink:href="#DejaVuSans-30"/>
       <use x="127.246094" xlink:href="#DejaVuSans-30"/>
       <use x="190.869141" xlink:href="#DejaVuSans-30"/>
       <use x="254.492188" xlink:href="#DejaVuSans-30"/>
      </g>
     </g>
    </g>
    <g id="ytick_5">
     <g id="line2d_11">
      <g>
       <use style="stroke:#000000;stroke-width:0.8;" x="57.6" xlink:href="#mc5c74645ad" y="93.18688"/>
      </g>
     </g>
     <g id="text_12">
      <!-- 90000 -->
      <g transform="translate(18.7875 96.986099)scale(0.1 -0.1)">
       <defs>
        <path d="M 703 97 
L 703 672 
Q 941 559 1184 500 
Q 1428 441 1663 441 
Q 2288 441 2617 861 
Q 2947 1281 2994 2138 
Q 2813 1869 2534 1725 
Q 2256 1581 1919 1581 
Q 1219 1581 811 2004 
Q 403 2428 403 3163 
Q 403 3881 828 4315 
Q 1253 4750 1959 4750 
Q 2769 4750 3195 4129 
Q 3622 3509 3622 2328 
Q 3622 1225 3098 567 
Q 2575 -91 1691 -91 
Q 1453 -91 1209 -44 
Q 966 3 703 97 
z
M 1959 2075 
Q 2384 2075 2632 2365 
Q 2881 2656 2881 3163 
Q 2881 3666 2632 3958 
Q 2384 4250 1959 4250 
Q 1534 4250 1286 3958 
Q 1038 3666 1038 3163 
Q 1038 2656 1286 2365 
Q 1534 2075 1959 2075 
z
" id="DejaVuSans-39" transform="scale(0.015625)"/>
       </defs>
       <use xlink:href="#DejaVuSans-39"/>
       <use x="63.623047" xlink:href="#DejaVuSans-30"/>
       <use x="127.246094" xlink:href="#DejaVuSans-30"/>
       <use x="190.869141" xlink:href="#DejaVuSans-30"/>
       <use x="254.492188" xlink:href="#DejaVuSans-30"/>
      </g>
     </g>
    </g>
    <g id="ytick_6">
     <g id="line2d_12">
      <g>
       <use style="stroke:#000000;stroke-width:0.8;" x="57.6" xlink:href="#mc5c74645ad" y="49.878391"/>
      </g>
     </g>
     <g id="text_13">
      <!-- 100000 -->
      <g transform="translate(12.425 53.67761)scale(0.1 -0.1)">
       <use xlink:href="#DejaVuSans-31"/>
       <use x="63.623047" xlink:href="#DejaVuSans-30"/>
       <use x="127.246094" xlink:href="#DejaVuSans-30"/>
       <use x="190.869141" xlink:href="#DejaVuSans-30"/>
       <use x="254.492188" xlink:href="#DejaVuSans-30"/>
       <use x="318.115234" xlink:href="#DejaVuSans-30"/>
      </g>
     </g>
    </g>
   </g>
   <g id="line2d_13">
    <path clip-path="url(#p8d26e48fe2)" d="M 73.832727 61.815908 
L 75.861818 56.837232 
L 81.949091 52.154182 
L 83.978182 66.234617 
L 86.007273 65.715994 
L 90.065455 65.854177 
L 96.152727 75.604192 
L 98.181818 85.304092 
L 100.210909 110.633427 
L 102.24 108.602542 
L 104.269091 128.904227 
L 110.356364 128.924959 
L 112.385455 110.850354 
L 114.414545 102.580469 
L 116.443636 124.008452 
L 118.472727 127.210172 
L 124.56 142.69897 
L 126.589091 138.632458 
L 128.618182 133.469115 
L 130.647273 142.520201 
L 132.676364 129.912854 
L 138.763636 139.638189 
L 140.792727 126.326775 
L 142.821818 125.44504 
L 144.850909 122.272345 
L 152.967273 122.69248 
L 154.996364 127.92171 
L 157.025455 134.715205 
L 159.054545 126.53915 
L 161.083636 135.445896 
L 167.170909 122.685317 
L 169.2 132.619551 
L 171.229091 157.666836 
L 173.258182 159.87376 
L 175.287273 155.798469 
L 181.374545 160.585126 
L 183.403636 154.003444 
L 185.432727 150.901751 
L 187.461818 170.595682 
L 189.490909 169.866507 
L 197.607273 186.550276 
L 199.636364 193.676982 
L 201.665455 199.120048 
L 203.694545 211.173161 
L 209.781818 218.187032 
L 211.810909 224.769915 
L 213.84 224.915602 
L 215.869091 244.038857 
L 217.898182 238.856896 
L 223.985455 212.85284 
L 226.014545 203.963205 
L 228.043636 216.24146 
L 230.072727 225.624248 
L 232.101818 216.152063 
L 238.189091 218.293731 
L 240.218182 206.146973 
L 242.247273 190.286763 
L 244.276364 198.898914 
L 246.305455 210.768869 
L 252.392727 216.134336 
L 254.421818 190.349107 
L 256.450909 192.564032 
L 258.48 207.778854 
L 260.509091 217.023509 
L 268.625455 227.033725 
L 270.654545 236.64171 
L 272.683636 221.030171 
L 274.712727 216.375854 
L 280.8 204.812626 
L 282.829091 206.195853 
L 284.858182 202.098263 
L 286.887273 216.054731 
L 288.916364 228.893465 
L 295.003636 241.960401 
L 297.032727 236.545366 
L 299.061818 225.896136 
L 301.090909 234.075243 
L 303.12 249.1181 
L 309.207273 265.318172 
L 311.236364 253.290661 
L 313.265455 231.333005 
L 315.294545 221.720495 
L 317.323636 210.615548 
L 323.410909 210.215108 
L 325.44 189.323467 
L 327.469091 181.332612 
L 329.498182 177.033651 
L 331.527273 181.348103 
L 337.614545 152.570642 
L 339.643636 140.46559 
L 341.672727 151.538965 
L 343.701818 163.303083 
L 345.730909 164.411985 
L 351.818182 149.374488 
L 353.847273 171.293747 
L 355.876364 184.302357 
L 357.905455 189.698472 
L 359.934545 200.410507 
L 366.021818 203.156569 
L 368.050909 207.333935 
L 370.08 196.538228 
L 372.109091 205.348755 
L 380.225455 211.041836 
L 382.254545 200.820387 
L 384.283636 215.986674 
L 386.312727 223.093091 
L 388.341818 226.336593 
L 394.429091 223.539303 
L 396.458182 242.230268 
L 398.487273 247.598149 
" style="fill:none;stroke:#0000ff;stroke-linecap:square;stroke-opacity:0.9;stroke-width:2;"/>
   </g>
   <g id="line2d_14">
    <path clip-path="url(#p8d26e48fe2)" d="M 73.832727 61.815908 
L 75.861818 56.963915 
L 81.949091 52.515572 
L 83.978182 66.244898 
L 86.007273 66.075436 
L 90.065455 78.883046 
L 96.152727 75.697495 
L 98.181818 85.203048 
L 100.210909 110.593039 
L 102.24 108.271824 
L 104.269091 128.997618 
L 110.356364 128.672194 
L 112.385455 110.832079 
L 114.414545 102.681031 
L 116.443636 123.769396 
L 118.472727 126.827563 
L 124.56 142.433671 
L 126.589091 138.306956 
L 128.618182 133.609173 
L 130.647273 142.387135 
L 132.676364 129.986826 
L 138.763636 139.561879 
L 140.792727 126.443921 
L 142.821818 125.285131 
L 144.850909 122.400212 
L 152.967273 123.079394 
L 154.996364 128.412429 
L 157.025455 135.224179 
L 159.054545 126.826926 
L 161.083636 135.667583 
L 167.170909 122.314705 
L 169.2 132.199866 
L 171.229091 155.178567 
L 173.258182 157.438863 
L 175.287273 153.997203 
L 181.374545 158.383095 
L 183.403636 151.03813 
L 185.432727 146.232454 
L 187.461818 164.758252 
L 189.490909 163.392108 
L 197.607273 179.570907 
L 199.636364 185.987351 
L 201.665455 192.082992 
L 203.694545 205.320165 
L 209.781818 212.442623 
L 211.810909 219.388893 
L 213.84 219.849152 
L 215.869091 239.593741 
L 217.898182 234.443909 
L 223.985455 209.758056 
L 226.014545 201.363547 
L 228.043636 211.079005 
L 230.072727 219.737814 
L 232.101818 210.888277 
L 238.189091 211.933757 
L 240.218182 201.427183 
L 242.247273 187.682266 
L 244.276364 196.875376 
L 246.305455 210.358176 
L 252.392727 215.505887 
L 254.421818 192.316118 
L 256.450909 194.163537 
L 258.48 208.995357 
L 260.509091 217.005147 
L 268.625455 225.745699 
L 270.654545 235.544576 
L 272.683636 222.768115 
L 274.712727 216.343458 
L 280.8 206.121468 
L 282.829091 208.582328 
L 284.858182 203.38038 
L 286.887273 217.023738 
L 288.916364 229.761919 
L 295.003636 242.7709 
L 297.032727 237.042145 
L 299.061818 226.372998 
L 301.090909 234.422088 
L 303.12 247.850131 
L 309.207273 261.037738 
L 311.236364 250.391634 
L 313.265455 230.041134 
L 315.294545 222.154184 
L 317.323636 212.717535 
L 323.410909 210.497254 
L 325.44 193.417221 
L 327.469091 187.848312 
L 329.498182 182.700041 
L 331.527273 185.688575 
L 337.614545 160.325543 
L 339.643636 151.215759 
L 341.672727 162.035926 
L 343.701818 172.95195 
L 345.730909 173.944746 
L 351.818182 160.222289 
L 353.847273 181.146303 
L 355.876364 192.342375 
L 357.905455 196.943666 
L 359.934545 206.426613 
L 366.021818 209.449333 
L 368.050909 212.472948 
L 370.08 201.770865 
L 372.109091 209.203841 
L 380.225455 213.954805 
L 382.254545 204.720238 
L 384.283636 218.339553 
L 386.312727 224.16309 
L 388.341818 227.87737 
L 394.429091 227.525214 
L 396.458182 246.280602 
L 398.487273 243.547316 
" style="fill:none;stroke:#ff0000;stroke-linecap:square;stroke-opacity:0.9;stroke-width:2;"/>
   </g>
   <g id="line2d_15">
    <path clip-path="url(#p8d26e48fe2)" d="M 73.832727 61.815908 
L 75.861818 57.117672 
L 81.949091 52.723888 
L 83.978182 65.766292 
L 86.007273 65.448858 
L 90.065455 78.12946 
L 96.152727 74.770069 
L 98.181818 85.000413 
L 100.210909 110.968851 
L 102.24 107.82211 
L 104.269091 127.994037 
L 110.356364 127.28803 
L 112.385455 109.395438 
L 114.414545 101.256316 
L 116.443636 122.682009 
L 118.472727 126.562352 
L 124.56 143.222735 
L 126.589091 137.21403 
L 128.618182 132.901583 
L 130.647273 141.375664 
L 132.676364 126.671724 
L 138.763636 136.262478 
L 140.792727 122.747833 
L 142.821818 122.436365 
L 144.850909 119.608868 
L 152.967273 121.363483 
L 154.996364 126.700287 
L 157.025455 133.826443 
L 159.054545 123.481243 
L 161.083636 133.306539 
L 167.170909 121.127451 
L 169.2 130.856717 
L 171.229091 156.049045 
L 173.258182 158.103422 
L 175.287273 153.165971 
L 181.374545 157.980299 
L 183.403636 151.392212 
L 185.432727 148.112476 
L 187.461818 168.15645 
L 189.490909 167.617221 
L 197.607273 184.523042 
L 199.636364 191.688849 
L 201.665455 197.43295 
L 203.694545 208.898651 
L 209.781818 216.105087 
L 211.810909 223.138219 
L 213.84 223.102944 
L 215.869091 242.804934 
L 217.898182 237.31438 
L 223.985455 211.438714 
L 226.014545 202.380138 
L 228.043636 214.550486 
L 230.072727 224.410524 
L 232.101818 214.593718 
L 238.189091 216.77044 
L 240.218182 204.380182 
L 242.247273 188.417548 
L 244.276364 197.249723 
L 246.305455 209.163211 
L 252.392727 214.731749 
L 254.421818 189.094887 
L 256.450909 191.356608 
L 258.48 206.784892 
L 260.509091 216.353624 
L 268.625455 225.904395 
L 270.654545 235.875434 
L 272.683636 220.077676 
L 274.712727 215.692197 
L 280.8 204.225795 
L 282.829091 205.391452 
L 284.858182 200.923289 
L 286.887273 215.571174 
L 288.916364 228.438071 
L 295.003636 241.944553 
L 297.032727 236.739862 
L 299.061818 225.530962 
L 301.090909 234.493514 
L 303.12 249.211033 
L 309.207273 265.094442 
L 311.236364 253.23717 
L 313.265455 231.174916 
L 315.294545 222.571679 
L 317.323636 211.255167 
L 323.410909 210.134798 
L 325.44 188.27074 
L 327.469091 179.977225 
L 329.498182 175.893688 
L 331.527273 179.808512 
L 337.614545 148.928058 
L 339.643636 136.878639 
L 341.672727 148.183116 
L 343.701818 160.207129 
L 345.730909 160.470725 
L 351.818182 145.526602 
L 353.847273 167.708302 
L 355.876364 179.856281 
L 357.905455 185.783884 
L 359.934545 196.264148 
L 366.021818 198.550685 
L 368.050909 202.836551 
L 370.08 191.813792 
L 372.109091 200.495323 
L 380.225455 206.765668 
L 382.254545 195.681076 
L 384.283636 211.152392 
L 386.312727 218.524233 
L 388.341818 222.109255 
L 394.429091 219.356829 
L 396.458182 238.202206 
L 398.487273 236.61739 
" style="fill:none;stroke:#008000;stroke-linecap:square;stroke-opacity:0.9;stroke-width:2;"/>
   </g>
   <g id="line2d_16">
    <path clip-path="url(#p8d26e48fe2)" d="M 73.832727 61.815908 
L 75.861818 57.067931 
L 81.949091 52.853722 
L 83.978182 65.591823 
L 86.007273 65.323426 
L 90.065455 78.413522 
L 96.152727 74.805921 
L 98.181818 84.765845 
L 100.210909 110.734404 
L 102.24 107.935573 
L 104.269091 128.161478 
L 110.356364 127.76722 
L 112.385455 109.411249 
L 114.414545 101.152676 
L 116.443636 122.799579 
L 118.472727 126.53614 
L 124.56 143.457707 
L 126.589091 138.211825 
L 128.618182 134.056274 
L 130.647273 142.635224 
L 132.676364 127.638027 
L 138.763636 137.458256 
L 140.792727 123.975425 
L 142.821818 123.60177 
L 144.850909 120.552355 
L 152.967273 122.037173 
L 154.996364 127.794358 
L 157.025455 134.454921 
L 159.054545 124.488081 
L 161.083636 134.021441 
L 167.170909 121.780553 
L 169.2 131.669635 
L 171.229091 157.000857 
L 173.258182 158.809179 
L 175.287273 154.594253 
L 181.374545 159.48323 
L 183.403636 153.17487 
L 185.432727 149.764062 
L 187.461818 169.612625 
L 189.490909 169.003969 
L 197.607273 185.632944 
L 199.636364 193.03106 
L 201.665455 198.494416 
L 203.694545 210.492321 
L 209.781818 217.406835 
L 211.810909 223.857049 
L 213.84 224.419353 
L 215.869091 243.65286 
L 217.898182 238.348856 
L 223.985455 212.290299 
L 226.014545 203.728527 
L 228.043636 215.898734 
L 230.072727 225.163272 
L 232.101818 215.734392 
L 238.189091 217.794279 
L 240.218182 205.719087 
L 242.247273 189.520347 
L 244.276364 198.62536 
L 246.305455 210.259787 
L 252.392727 215.924573 
L 254.421818 189.757753 
L 256.450909 191.878505 
L 258.48 207.324465 
L 260.509091 216.883694 
L 268.625455 226.391762 
L 270.654545 236.403909 
L 272.683636 220.731769 
L 274.712727 215.857619 
L 280.8 204.392048 
L 282.829091 205.707731 
L 284.858182 201.011159 
L 286.887273 215.577197 
L 288.916364 228.538495 
L 295.003636 241.988178 
L 297.032727 236.720624 
L 299.061818 225.613113 
L 301.090909 234.671092 
L 303.12 249.475448 
L 309.207273 265.29538 
L 311.236364 253.691155 
L 313.265455 231.533453 
L 315.294545 222.77829 
L 317.323636 211.645968 
L 323.410909 210.603033 
L 325.44 188.890116 
L 327.469091 180.683508 
L 329.498182 176.539363 
L 331.527273 180.498141 
L 337.614545 149.627967 
L 339.643636 137.330705 
L 341.672727 148.854974 
L 343.701818 161.299047 
L 345.730909 161.902607 
L 351.818182 146.964077 
L 353.847273 169.20025 
L 355.876364 181.42928 
L 357.905455 187.174778 
L 359.934545 197.539575 
L 366.021818 200.325474 
L 368.050909 204.216414 
L 370.08 193.552637 
L 372.109091 201.850637 
L 380.225455 207.975406 
L 382.254545 197.221874 
L 384.283636 212.13614 
L 386.312727 219.721676 
L 388.341818 223.561446 
L 394.429091 220.849593 
L 396.458182 239.358146 
L 398.487273 237.865039 
" style="fill:none;stroke:#ec5283;stroke-linecap:square;stroke-width:2;"/>
   </g>
   <g id="line2d_17">
    <path clip-path="url(#p8d26e48fe2)" d="M 73.832727 61.815908 
L 75.861818 57.3386 
L 81.949091 52.916454 
L 83.978182 65.688433 
L 86.007273 65.490217 
L 90.065455 77.788819 
L 96.152727 74.830688 
L 98.181818 84.291367 
L 100.210909 109.735534 
L 102.24 106.912409 
L 104.269091 126.273429 
L 110.356364 125.776935 
L 112.385455 108.357082 
L 114.414545 100.193516 
L 116.443636 121.46083 
L 118.472727 124.949469 
L 124.56 141.218734 
L 126.589091 135.65664 
L 128.618182 130.926379 
L 130.647273 139.625686 
L 132.676364 124.851279 
L 138.763636 134.4314 
L 140.792727 121.527958 
L 142.821818 121.291461 
L 144.850909 117.855016 
L 152.967273 119.63205 
L 154.996364 125.337214 
L 157.025455 131.945982 
L 159.054545 122.309666 
L 161.083636 131.728334 
L 167.170909 119.615599 
L 169.2 129.215199 
L 171.229091 154.012103 
L 173.258182 155.659891 
L 175.287273 151.167149 
L 181.374545 155.921915 
L 183.403636 149.296515 
L 185.432727 146.183164 
L 187.461818 165.944855 
L 189.490909 164.998038 
L 197.607273 181.566941 
L 199.636364 188.354635 
L 201.665455 193.914434 
L 203.694545 205.467616 
L 209.781818 212.693957 
L 211.810909 219.024291 
L 213.84 219.380347 
L 215.869091 238.442869 
L 217.898182 232.820296 
L 223.985455 207.750623 
L 226.014545 199.260928 
L 228.043636 210.829531 
L 230.072727 220.125696 
L 232.101818 210.919286 
L 238.189091 212.945049 
L 240.218182 201.168385 
L 242.247273 185.154347 
L 244.276364 194.063702 
L 246.305455 205.745733 
L 252.392727 211.068429 
L 254.421818 186.132736 
L 256.450909 188.181536 
L 258.48 203.214975 
L 260.509091 212.592669 
L 268.625455 222.133277 
L 270.654545 231.545751 
L 272.683636 216.310428 
L 274.712727 211.709977 
L 280.8 200.54634 
L 282.829091 201.887654 
L 284.858182 197.756231 
L 286.887273 211.848719 
L 288.916364 224.358128 
L 295.003636 237.300035 
L 297.032727 232.487945 
L 299.061818 221.471739 
L 301.090909 230.175318 
L 303.12 244.677873 
L 309.207273 260.16121 
L 311.236364 248.666502 
L 313.265455 227.312472 
L 315.294545 218.507747 
L 317.323636 207.823852 
L 323.410909 206.513991 
L 325.44 185.330802 
L 327.469091 176.853899 
L 329.498182 173.140731 
L 331.527273 176.814296 
L 337.614545 146.816653 
L 339.643636 135.126154 
L 341.672727 146.067625 
L 343.701818 157.95395 
L 345.730909 158.053376 
L 351.818182 143.338119 
L 353.847273 165.046451 
L 355.876364 177.032865 
L 357.905455 182.853246 
L 359.934545 193.231849 
L 366.021818 195.391161 
L 368.050909 199.520913 
L 370.08 188.557779 
L 372.109091 196.98592 
L 380.225455 203.097715 
L 382.254545 192.543441 
L 384.283636 207.482731 
L 386.312727 214.680783 
L 388.341818 218.370438 
L 394.429091 215.5681 
L 396.458182 233.914613 
L 398.487273 231.96179 
" style="fill:none;stroke:#00ff00;stroke-linecap:square;stroke-opacity:0.9;stroke-width:2;"/>
   </g>
   <g id="line2d_18">
    <path clip-path="url(#p8d26e48fe2)" d="M 73.832727 61.815908 
L 75.861818 59.842477 
L 81.949091 59.040811 
L 83.978182 64.39727 
L 86.007273 64.787798 
L 90.065455 76.652335 
L 96.152727 76.723611 
L 98.181818 85.601712 
L 100.210909 110.294102 
L 102.24 105.963143 
L 104.269091 125.018416 
L 110.356364 121.355246 
L 112.385455 103.074955 
L 114.414545 91.990598 
L 116.443636 114.881305 
L 118.472727 120.389333 
L 124.56 134.15778 
L 126.589091 130.767376 
L 128.618182 126.187862 
L 130.647273 136.080002 
L 132.676364 117.947169 
L 138.763636 129.843686 
L 140.792727 114.725464 
L 142.821818 115.453707 
L 144.850909 111.117124 
L 152.967273 117.026266 
L 154.996364 123.756008 
L 157.025455 133.913853 
L 159.054545 118.242259 
L 161.083636 130.257698 
L 167.170909 119.466507 
L 169.2 128.559661 
L 171.229091 158.245093 
L 173.258182 160.009688 
L 175.287273 155.715666 
L 181.374545 161.642437 
L 183.403636 155.799892 
L 185.432727 155.360375 
L 187.461818 176.348424 
L 189.490909 176.398459 
L 197.607273 193.855802 
L 199.636364 201.847255 
L 201.665455 207.361607 
L 203.694545 218.7721 
L 209.781818 223.052464 
L 211.810909 229.600903 
L 213.84 228.456595 
L 215.869091 247.70776 
L 217.898182 242.570909 
L 223.985455 213.164089 
L 226.014545 204.169575 
L 228.043636 218.694019 
L 230.072727 229.781934 
L 232.101818 218.953976 
L 238.189091 222.315925 
L 240.218182 209.788291 
L 242.247273 192.307428 
L 244.276364 201.160465 
L 246.305455 211.966178 
L 252.392727 217.019018 
L 254.421818 183.271919 
L 256.450909 187.273338 
L 258.48 204.13223 
L 260.509091 216.17826 
L 268.625455 227.099109 
L 270.654545 236.761089 
L 272.683636 218.190172 
L 274.712727 215.29524 
L 280.8 201.56164 
L 282.829091 196.046808 
L 284.858182 192.907481 
L 286.887273 211.8149 
L 288.916364 225.063017 
L 295.003636 238.802618 
L 297.032727 235.114835 
L 299.061818 221.743171 
L 301.090909 233.210299 
L 303.12 247.872888 
L 309.207273 265.797818 
L 311.236364 252.589165 
L 313.265455 226.804016 
L 315.294545 219.32409 
L 317.323636 206.615364 
L 323.410909 205.46622 
L 325.44 178.697427 
L 327.469091 170.286608 
L 329.498182 165.827762 
L 331.527273 173.077497 
L 337.614545 147.446481 
L 339.643636 130.587132 
L 341.672727 138.73577 
L 343.701818 153.272135 
L 345.730909 149.480858 
L 351.818182 135.259622 
L 353.847273 157.985198 
L 355.876364 168.481493 
L 357.905455 173.637114 
L 359.934545 183.114953 
L 366.021818 184.982321 
L 368.050909 188.276464 
L 370.08 177.064708 
L 372.109091 188.29155 
L 380.225455 196.214399 
L 382.254545 183.817264 
L 384.283636 202.722145 
L 386.312727 212.694461 
L 388.341818 215.107348 
L 394.429091 208.677567 
L 396.458182 227.127464 
L 398.487273 227.552172 
" style="fill:none;stroke:#a5b9cf;stroke-linecap:square;stroke-width:2;"/>
   </g>
   <g id="patch_3">
    <path d="M 57.6 276.48 
L 57.6 41.472 
" style="fill:none;stroke:#000000;stroke-linecap:square;stroke-linejoin:miter;stroke-width:0.8;"/>
   </g>
   <g id="patch_4">
    <path d="M 414.72 276.48 
L 414.72 41.472 
" style="fill:none;stroke:#000000;stroke-linecap:square;stroke-linejoin:miter;stroke-width:0.8;"/>
   </g>
   <g id="patch_5">
    <path d="M 57.6 276.48 
L 414.72 276.48 
" style="fill:none;stroke:#000000;stroke-linecap:square;stroke-linejoin:miter;stroke-width:0.8;"/>
   </g>
   <g id="patch_6">
    <path d="M 57.6 41.472 
L 414.72 41.472 
" style="fill:none;stroke:#000000;stroke-linecap:square;stroke-linejoin:miter;stroke-width:0.8;"/>
   </g>
   <g id="text_14">
    <!-- STONKS -->
    <g transform="translate(211.730625 22.034625)scale(0.12 -0.12)">
     <defs>
      <path d="M 3425 4513 
L 3425 3897 
Q 3066 4069 2747 4153 
Q 2428 4238 2131 4238 
Q 1616 4238 1336 4038 
Q 1056 3838 1056 3469 
Q 1056 3159 1242 3001 
Q 1428 2844 1947 2747 
L 2328 2669 
Q 3034 2534 3370 2195 
Q 3706 1856 3706 1288 
Q 3706 609 3251 259 
Q 2797 -91 1919 -91 
Q 1588 -91 1214 -16 
Q 841 59 441 206 
L 441 856 
Q 825 641 1194 531 
Q 1563 422 1919 422 
Q 2459 422 2753 634 
Q 3047 847 3047 1241 
Q 3047 1584 2836 1778 
Q 2625 1972 2144 2069 
L 1759 2144 
Q 1053 2284 737 2584 
Q 422 2884 422 3419 
Q 422 4038 858 4394 
Q 1294 4750 2059 4750 
Q 2388 4750 2728 4690 
Q 3069 4631 3425 4513 
z
" id="DejaVuSans-53" transform="scale(0.015625)"/>
      <path d="M -19 4666 
L 3928 4666 
L 3928 4134 
L 2272 4134 
L 2272 0 
L 1638 0 
L 1638 4134 
L -19 4134 
L -19 4666 
z
" id="DejaVuSans-54" transform="scale(0.015625)"/>
      <path d="M 2522 4238 
Q 1834 4238 1429 3725 
Q 1025 3213 1025 2328 
Q 1025 1447 1429 934 
Q 1834 422 2522 422 
Q 3209 422 3611 934 
Q 4013 1447 4013 2328 
Q 4013 3213 3611 3725 
Q 3209 4238 2522 4238 
z
M 2522 4750 
Q 3503 4750 4090 4092 
Q 4678 3434 4678 2328 
Q 4678 1225 4090 567 
Q 3503 -91 2522 -91 
Q 1538 -91 948 565 
Q 359 1222 359 2328 
Q 359 3434 948 4092 
Q 1538 4750 2522 4750 
z
" id="DejaVuSans-4f" transform="scale(0.015625)"/>
      <path d="M 628 4666 
L 1478 4666 
L 3547 763 
L 3547 4666 
L 4159 4666 
L 4159 0 
L 3309 0 
L 1241 3903 
L 1241 0 
L 628 0 
L 628 4666 
z
" id="DejaVuSans-4e" transform="scale(0.015625)"/>
      <path d="M 628 4666 
L 1259 4666 
L 1259 2694 
L 3353 4666 
L 4166 4666 
L 1850 2491 
L 4331 0 
L 3500 0 
L 1259 2247 
L 1259 0 
L 628 0 
L 628 4666 
z
" id="DejaVuSans-4b" transform="scale(0.015625)"/>
     </defs>
     <use xlink:href="#DejaVuSans-53"/>
     <use x="63.476562" xlink:href="#DejaVuSans-54"/>
     <use x="124.560547" xlink:href="#DejaVuSans-4f"/>
     <use x="203.271484" xlink:href="#DejaVuSans-4e"/>
     <use x="278.076172" xlink:href="#DejaVuSans-4b"/>
     <use x="343.652344" xlink:href="#DejaVuSans-53"/>
    </g>
    <!-- daily_report -->
    <g transform="translate(200.466563 35.472)scale(0.12 -0.12)">
     <defs>
      <path d="M 603 3500 
L 1178 3500 
L 1178 0 
L 603 0 
L 603 3500 
z
M 603 4863 
L 1178 4863 
L 1178 4134 
L 603 4134 
L 603 4863 
z
" id="DejaVuSans-69" transform="scale(0.015625)"/>
      <path d="M 603 4863 
L 1178 4863 
L 1178 0 
L 603 0 
L 603 4863 
z
" id="DejaVuSans-6c" transform="scale(0.015625)"/>
      <path d="M 2059 -325 
Q 1816 -950 1584 -1140 
Q 1353 -1331 966 -1331 
L 506 -1331 
L 506 -850 
L 844 -850 
Q 1081 -850 1212 -737 
Q 1344 -625 1503 -206 
L 1606 56 
L 191 3500 
L 800 3500 
L 1894 763 
L 2988 3500 
L 3597 3500 
L 2059 -325 
z
" id="DejaVuSans-79" transform="scale(0.015625)"/>
      <path d="M 3263 -1063 
L 3263 -1509 
L -63 -1509 
L -63 -1063 
L 3263 -1063 
z
" id="DejaVuSans-5f" transform="scale(0.015625)"/>
      <path d="M 2631 2963 
Q 2534 3019 2420 3045 
Q 2306 3072 2169 3072 
Q 1681 3072 1420 2755 
Q 1159 2438 1159 1844 
L 1159 0 
L 581 0 
L 581 3500 
L 1159 3500 
L 1159 2956 
Q 1341 3275 1631 3429 
Q 1922 3584 2338 3584 
Q 2397 3584 2469 3576 
Q 2541 3569 2628 3553 
L 2631 2963 
z
" id="DejaVuSans-72" transform="scale(0.015625)"/>
      <path d="M 1159 525 
L 1159 -1331 
L 581 -1331 
L 581 3500 
L 1159 3500 
L 1159 2969 
Q 1341 3281 1617 3432 
Q 1894 3584 2278 3584 
Q 2916 3584 3314 3078 
Q 3713 2572 3713 1747 
Q 3713 922 3314 415 
Q 2916 -91 2278 -91 
Q 1894 -91 1617 61 
Q 1341 213 1159 525 
z
M 3116 1747 
Q 3116 2381 2855 2742 
Q 2594 3103 2138 3103 
Q 1681 3103 1420 2742 
Q 1159 2381 1159 1747 
Q 1159 1113 1420 752 
Q 1681 391 2138 391 
Q 2594 391 2855 752 
Q 3116 1113 3116 1747 
z
" id="DejaVuSans-70" transform="scale(0.015625)"/>
      <path d="M 1959 3097 
Q 1497 3097 1228 2736 
Q 959 2375 959 1747 
Q 959 1119 1226 758 
Q 1494 397 1959 397 
Q 2419 397 2687 759 
Q 2956 1122 2956 1747 
Q 2956 2369 2687 2733 
Q 2419 3097 1959 3097 
z
M 1959 3584 
Q 2709 3584 3137 3096 
Q 3566 2609 3566 1747 
Q 3566 888 3137 398 
Q 2709 -91 1959 -91 
Q 1206 -91 779 398 
Q 353 888 353 1747 
Q 353 2609 779 3096 
Q 1206 3584 1959 3584 
z
" id="DejaVuSans-6f" transform="scale(0.015625)"/>
     </defs>
     <use xlink:href="#DejaVuSans-64"/>
     <use x="63.476562" xlink:href="#DejaVuSans-61"/>
     <use x="124.755859" xlink:href="#DejaVuSans-69"/>
     <use x="152.539062" xlink:href="#DejaVuSans-6c"/>
     <use x="180.322266" xlink:href="#DejaVuSans-79"/>
     <use x="239.501953" xlink:href="#DejaVuSans-5f"/>
     <use x="289.501953" xlink:href="#DejaVuSans-72"/>
     <use x="328.365234" xlink:href="#DejaVuSans-65"/>
     <use x="389.888672" xlink:href="#DejaVuSans-70"/>
     <use x="453.365234" xlink:href="#DejaVuSans-6f"/>
     <use x="514.546875" xlink:href="#DejaVuSans-72"/>
     <use x="555.660156" xlink:href="#DejaVuSans-74"/>
    </g>
   </g>
   <g id="legend_1">
    <g id="patch_7">
     <path d="M 64.6 271.48 
L 178.64375 271.48 
Q 180.64375 271.48 180.64375 269.48 
L 180.64375 182.41125 
Q 180.64375 180.41125 178.64375 180.41125 
L 64.6 180.41125 
Q 62.6 180.41125 62.6 182.41125 
L 62.6 269.48 
Q 62.6 271.48 64.6 271.48 
z
" style="fill:#ffffff;opacity:0.8;stroke:#cccccc;stroke-linejoin:miter;"/>
    </g>
    <g id="line2d_19">
     <path d="M 66.6 188.509687 
L 86.6 188.509687 
" style="fill:none;stroke:#0000ff;stroke-linecap:square;stroke-opacity:0.9;stroke-width:2;"/>
    </g>
    <g id="line2d_20"/>
    <g id="text_15">
     <!-- alpaca -->
     <g transform="translate(94.6 192.009687)scale(0.1 -0.1)">
      <defs>
       <path d="M 3122 3366 
L 3122 2828 
Q 2878 2963 2633 3030 
Q 2388 3097 2138 3097 
Q 1578 3097 1268 2742 
Q 959 2388 959 1747 
Q 959 1106 1268 751 
Q 1578 397 2138 397 
Q 2388 397 2633 464 
Q 2878 531 3122 666 
L 3122 134 
Q 2881 22 2623 -34 
Q 2366 -91 2075 -91 
Q 1284 -91 818 406 
Q 353 903 353 1747 
Q 353 2603 823 3093 
Q 1294 3584 2113 3584 
Q 2378 3584 2631 3529 
Q 2884 3475 3122 3366 
z
" id="DejaVuSans-63" transform="scale(0.015625)"/>
      </defs>
      <use xlink:href="#DejaVuSans-61"/>
      <use x="61.279297" xlink:href="#DejaVuSans-6c"/>
      <use x="89.0625" xlink:href="#DejaVuSans-70"/>
      <use x="152.539062" xlink:href="#DejaVuSans-61"/>
      <use x="213.818359" xlink:href="#DejaVuSans-63"/>
      <use x="268.798828" xlink:href="#DejaVuSans-61"/>
     </g>
    </g>
    <g id="line2d_21">
     <path d="M 66.6 203.187812 
L 86.6 203.187812 
" style="fill:none;stroke:#ff0000;stroke-linecap:square;stroke-opacity:0.9;stroke-width:2;"/>
    </g>
    <g id="line2d_22"/>
    <g id="text_16">
     <!-- mattress -->
     <g transform="translate(94.6 206.687812)scale(0.1 -0.1)">
      <defs>
       <path d="M 3328 2828 
Q 3544 3216 3844 3400 
Q 4144 3584 4550 3584 
Q 5097 3584 5394 3201 
Q 5691 2819 5691 2113 
L 5691 0 
L 5113 0 
L 5113 2094 
Q 5113 2597 4934 2840 
Q 4756 3084 4391 3084 
Q 3944 3084 3684 2787 
Q 3425 2491 3425 1978 
L 3425 0 
L 2847 0 
L 2847 2094 
Q 2847 2600 2669 2842 
Q 2491 3084 2119 3084 
Q 1678 3084 1418 2786 
Q 1159 2488 1159 1978 
L 1159 0 
L 581 0 
L 581 3500 
L 1159 3500 
L 1159 2956 
Q 1356 3278 1631 3431 
Q 1906 3584 2284 3584 
Q 2666 3584 2933 3390 
Q 3200 3197 3328 2828 
z
" id="DejaVuSans-6d" transform="scale(0.015625)"/>
       <path d="M 2834 3397 
L 2834 2853 
Q 2591 2978 2328 3040 
Q 2066 3103 1784 3103 
Q 1356 3103 1142 2972 
Q 928 2841 928 2578 
Q 928 2378 1081 2264 
Q 1234 2150 1697 2047 
L 1894 2003 
Q 2506 1872 2764 1633 
Q 3022 1394 3022 966 
Q 3022 478 2636 193 
Q 2250 -91 1575 -91 
Q 1294 -91 989 -36 
Q 684 19 347 128 
L 347 722 
Q 666 556 975 473 
Q 1284 391 1588 391 
Q 1994 391 2212 530 
Q 2431 669 2431 922 
Q 2431 1156 2273 1281 
Q 2116 1406 1581 1522 
L 1381 1569 
Q 847 1681 609 1914 
Q 372 2147 372 2553 
Q 372 3047 722 3315 
Q 1072 3584 1716 3584 
Q 2034 3584 2315 3537 
Q 2597 3491 2834 3397 
z
" id="DejaVuSans-73" transform="scale(0.015625)"/>
      </defs>
      <use xlink:href="#DejaVuSans-6d"/>
      <use x="97.412109" xlink:href="#DejaVuSans-61"/>
      <use x="158.691406" xlink:href="#DejaVuSans-74"/>
      <use x="197.900391" xlink:href="#DejaVuSans-74"/>
      <use x="237.109375" xlink:href="#DejaVuSans-72"/>
      <use x="275.972656" xlink:href="#DejaVuSans-65"/>
      <use x="337.496094" xlink:href="#DejaVuSans-73"/>
      <use x="389.595703" xlink:href="#DejaVuSans-73"/>
     </g>
    </g>
    <g id="line2d_23">
     <path d="M 66.6 217.865937 
L 86.6 217.865937 
" style="fill:none;stroke:#008000;stroke-linecap:square;stroke-opacity:0.9;stroke-width:2;"/>
    </g>
    <g id="line2d_24"/>
    <g id="text_17">
     <!-- daily-open-rebal -->
     <g transform="translate(94.6 221.365937)scale(0.1 -0.1)">
      <defs>
       <path d="M 3513 2113 
L 3513 0 
L 2938 0 
L 2938 2094 
Q 2938 2591 2744 2837 
Q 2550 3084 2163 3084 
Q 1697 3084 1428 2787 
Q 1159 2491 1159 1978 
L 1159 0 
L 581 0 
L 581 3500 
L 1159 3500 
L 1159 2956 
Q 1366 3272 1645 3428 
Q 1925 3584 2291 3584 
Q 2894 3584 3203 3211 
Q 3513 2838 3513 2113 
z
" id="DejaVuSans-6e" transform="scale(0.015625)"/>
       <path d="M 3116 1747 
Q 3116 2381 2855 2742 
Q 2594 3103 2138 3103 
Q 1681 3103 1420 2742 
Q 1159 2381 1159 1747 
Q 1159 1113 1420 752 
Q 1681 391 2138 391 
Q 2594 391 2855 752 
Q 3116 1113 3116 1747 
z
M 1159 2969 
Q 1341 3281 1617 3432 
Q 1894 3584 2278 3584 
Q 2916 3584 3314 3078 
Q 3713 2572 3713 1747 
Q 3713 922 3314 415 
Q 2916 -91 2278 -91 
Q 1894 -91 1617 61 
Q 1341 213 1159 525 
L 1159 0 
L 581 0 
L 581 4863 
L 1159 4863 
L 1159 2969 
z
" id="DejaVuSans-62" transform="scale(0.015625)"/>
      </defs>
      <use xlink:href="#DejaVuSans-64"/>
      <use x="63.476562" xlink:href="#DejaVuSans-61"/>
      <use x="124.755859" xlink:href="#DejaVuSans-69"/>
      <use x="152.539062" xlink:href="#DejaVuSans-6c"/>
      <use x="180.322266" xlink:href="#DejaVuSans-79"/>
      <use x="237.751953" xlink:href="#DejaVuSans-2d"/>
      <use x="275.710938" xlink:href="#DejaVuSans-6f"/>
      <use x="336.892578" xlink:href="#DejaVuSans-70"/>
      <use x="400.369141" xlink:href="#DejaVuSans-65"/>
      <use x="461.892578" xlink:href="#DejaVuSans-6e"/>
      <use x="525.271484" xlink:href="#DejaVuSans-2d"/>
      <use x="561.355469" xlink:href="#DejaVuSans-72"/>
      <use x="600.21875" xlink:href="#DejaVuSans-65"/>
      <use x="661.742188" xlink:href="#DejaVuSans-62"/>
      <use x="725.21875" xlink:href="#DejaVuSans-61"/>
      <use x="786.498047" xlink:href="#DejaVuSans-6c"/>
     </g>
    </g>
    <g id="line2d_25">
     <path d="M 66.6 232.544062 
L 86.6 232.544062 
" style="fill:none;stroke:#ec5283;stroke-linecap:square;stroke-width:2;"/>
    </g>
    <g id="line2d_26"/>
    <g id="text_18">
     <!-- daily-close-rebal -->
     <g transform="translate(94.6 236.044062)scale(0.1 -0.1)">
      <use xlink:href="#DejaVuSans-64"/>
      <use x="63.476562" xlink:href="#DejaVuSans-61"/>
      <use x="124.755859" xlink:href="#DejaVuSans-69"/>
      <use x="152.539062" xlink:href="#DejaVuSans-6c"/>
      <use x="180.322266" xlink:href="#DejaVuSans-79"/>
      <use x="237.751953" xlink:href="#DejaVuSans-2d"/>
      <use x="273.835938" xlink:href="#DejaVuSans-63"/>
      <use x="328.816406" xlink:href="#DejaVuSans-6c"/>
      <use x="356.599609" xlink:href="#DejaVuSans-6f"/>
      <use x="417.78125" xlink:href="#DejaVuSans-73"/>
      <use x="469.880859" xlink:href="#DejaVuSans-65"/>
      <use x="531.404297" xlink:href="#DejaVuSans-2d"/>
      <use x="567.488281" xlink:href="#DejaVuSans-72"/>
      <use x="606.351562" xlink:href="#DejaVuSans-65"/>
      <use x="667.875" xlink:href="#DejaVuSans-62"/>
      <use x="731.351562" xlink:href="#DejaVuSans-61"/>
      <use x="792.630859" xlink:href="#DejaVuSans-6c"/>
     </g>
    </g>
    <g id="line2d_27">
     <path d="M 66.6 247.222187 
L 86.6 247.222187 
" style="fill:none;stroke:#00ff00;stroke-linecap:square;stroke-opacity:0.9;stroke-width:2;"/>
    </g>
    <g id="line2d_28"/>
    <g id="text_19">
     <!-- trader-baseline -->
     <g transform="translate(94.6 250.722187)scale(0.1 -0.1)">
      <use xlink:href="#DejaVuSans-74"/>
      <use x="39.208984" xlink:href="#DejaVuSans-72"/>
      <use x="80.322266" xlink:href="#DejaVuSans-61"/>
      <use x="141.601562" xlink:href="#DejaVuSans-64"/>
      <use x="205.078125" xlink:href="#DejaVuSans-65"/>
      <use x="266.601562" xlink:href="#DejaVuSans-72"/>
      <use x="301.339844" xlink:href="#DejaVuSans-2d"/>
      <use x="337.423828" xlink:href="#DejaVuSans-62"/>
      <use x="400.900391" xlink:href="#DejaVuSans-61"/>
      <use x="462.179688" xlink:href="#DejaVuSans-73"/>
      <use x="514.279297" xlink:href="#DejaVuSans-65"/>
      <use x="575.802734" xlink:href="#DejaVuSans-6c"/>
      <use x="603.585938" xlink:href="#DejaVuSans-69"/>
      <use x="631.369141" xlink:href="#DejaVuSans-6e"/>
      <use x="694.748047" xlink:href="#DejaVuSans-65"/>
     </g>
    </g>
    <g id="line2d_29">
     <path d="M 66.6 261.900312 
L 86.6 261.900312 
" style="fill:none;stroke:#a5b9cf;stroke-linecap:square;stroke-width:2;"/>
    </g>
    <g id="line2d_30"/>
    <g id="text_20">
     <!-- default-cfg -->
     <g transform="translate(94.6 265.400312)scale(0.1 -0.1)">
      <defs>
       <path d="M 2375 4863 
L 2375 4384 
L 1825 4384 
Q 1516 4384 1395 4259 
Q 1275 4134 1275 3809 
L 1275 3500 
L 2222 3500 
L 2222 3053 
L 1275 3053 
L 1275 0 
L 697 0 
L 697 3053 
L 147 3053 
L 147 3500 
L 697 3500 
L 697 3744 
Q 697 4328 969 4595 
Q 1241 4863 1831 4863 
L 2375 4863 
z
" id="DejaVuSans-66" transform="scale(0.015625)"/>
       <path d="M 544 1381 
L 544 3500 
L 1119 3500 
L 1119 1403 
Q 1119 906 1312 657 
Q 1506 409 1894 409 
Q 2359 409 2629 706 
Q 2900 1003 2900 1516 
L 2900 3500 
L 3475 3500 
L 3475 0 
L 2900 0 
L 2900 538 
Q 2691 219 2414 64 
Q 2138 -91 1772 -91 
Q 1169 -91 856 284 
Q 544 659 544 1381 
z
M 1991 3584 
L 1991 3584 
z
" id="DejaVuSans-75" transform="scale(0.015625)"/>
       <path d="M 2906 1791 
Q 2906 2416 2648 2759 
Q 2391 3103 1925 3103 
Q 1463 3103 1205 2759 
Q 947 2416 947 1791 
Q 947 1169 1205 825 
Q 1463 481 1925 481 
Q 2391 481 2648 825 
Q 2906 1169 2906 1791 
z
M 3481 434 
Q 3481 -459 3084 -895 
Q 2688 -1331 1869 -1331 
Q 1566 -1331 1297 -1286 
Q 1028 -1241 775 -1147 
L 775 -588 
Q 1028 -725 1275 -790 
Q 1522 -856 1778 -856 
Q 2344 -856 2625 -561 
Q 2906 -266 2906 331 
L 2906 616 
Q 2728 306 2450 153 
Q 2172 0 1784 0 
Q 1141 0 747 490 
Q 353 981 353 1791 
Q 353 2603 747 3093 
Q 1141 3584 1784 3584 
Q 2172 3584 2450 3431 
Q 2728 3278 2906 2969 
L 2906 3500 
L 3481 3500 
L 3481 434 
z
" id="DejaVuSans-67" transform="scale(0.015625)"/>
      </defs>
      <use xlink:href="#DejaVuSans-64"/>
      <use x="63.476562" xlink:href="#DejaVuSans-65"/>
      <use x="125" xlink:href="#DejaVuSans-66"/>
      <use x="160.205078" xlink:href="#DejaVuSans-61"/>
      <use x="221.484375" xlink:href="#DejaVuSans-75"/>
      <use x="284.863281" xlink:href="#DejaVuSans-6c"/>
      <use x="312.646484" xlink:href="#DejaVuSans-74"/>
      <use x="351.855469" xlink:href="#DejaVuSans-2d"/>
      <use x="387.939453" xlink:href="#DejaVuSans-63"/>
      <use x="442.919922" xlink:href="#DejaVuSans-66"/>
      <use x="478.125" xlink:href="#DejaVuSans-67"/>
     </g>
    </g>
   </g>
  </g>
 </g>
 <defs>
  <clipPath id="p8d26e48fe2">
   <rect height="235.008" width="357.12" x="57.6" y="41.472"/>
  </clipPath>
 </defs>
</svg>
