<?xml version="1.0" encoding="utf-8" standalone="no"?>
<!DOCTYPE svg PUBLIC "-//W3C//DTD SVG 1.1//EN"
  "http://www.w3.org/Graphics/SVG/1.1/DTD/svg11.dtd">
<svg height="345.6pt" version="1.1" viewBox="0 0 460.8 345.6" width="460.8pt" xmlns="http://www.w3.org/2000/svg" xmlns:xlink="http://www.w3.org/1999/xlink">
 <metadata>
  <rdf:RDF xmlns:cc="http://creativecommons.org/ns#" xmlns:dc="http://purl.org/dc/elements/1.1/" xmlns:rdf="http://www.w3.org/1999/02/22-rdf-syntax-ns#">
   <cc:Work>
    <dc:type rdf:resource="http://purl.org/dc/dcmitype/StillImage"/>
    <dc:date>2022-03-10T01:02:17.380140</dc:date>
    <dc:format>image/svg+xml</dc:format>
    <dc:creator>
     <cc:Agent>
      <dc:title>Matplotlib v3.4.3, https://matplotlib.org/</dc:title>
     </cc:Agent>
    </dc:creator>
   </cc:Work>
  </rdf:RDF>
 </metadata>
 <defs>
  <style type="text/css">*{stroke-linecap:butt;stroke-linejoin:round;}</style>
 </defs>
 <g id="figure_1">
  <g id="patch_1">
   <path d="M 0 345.6 
L 460.8 345.6 
L 460.8 0 
L 0 0 
z
" style="fill:#ffffff;"/>
  </g>
  <g id="axes_1">
   <g id="patch_2">
    <path d="M 57.6 276.48 
L 414.72 276.48 
L 414.72 41.472 
L 57.6 41.472 
z
" style="fill:#ffffff;"/>
   </g>
   <g id="matplotlib.axis_1">
    <g id="xtick_1">
     <g id="line2d_1">
      <defs>
       <path d="M 0 0 
L 0 3.5 
" id="mb91b54298b" style="stroke:#000000;stroke-width:0.8;"/>
      </defs>
      <g>
       <use style="stroke:#000000;stroke-width:0.8;" x="88.589752" xlink:href="#mb91b54298b" y="276.48"/>
      </g>
     </g>
     <g id="text_1">
      <!-- 2021-09 -->
      <g transform="translate(51.364931 310.951846)rotate(-30)scale(0.1 -0.1)">
       <defs>
        <path d="M 1228 531 
L 3431 531 
L 3431 0 
L 469 0 
L 469 531 
Q 828 903 1448 1529 
Q 2069 2156 2228 2338 
Q 2531 2678 2651 2914 
Q 2772 3150 2772 3378 
Q 2772 3750 2511 3984 
Q 2250 4219 1831 4219 
Q 1534 4219 1204 4116 
Q 875 4013 500 3803 
L 500 4441 
Q 881 4594 1212 4672 
Q 1544 4750 1819 4750 
Q 2544 4750 2975 4387 
Q 3406 4025 3406 3419 
Q 3406 3131 3298 2873 
Q 3191 2616 2906 2266 
Q 2828 2175 2409 1742 
Q 1991 1309 1228 531 
z
" id="DejaVuSans-32" transform="scale(0.015625)"/>
        <path d="M 2034 4250 
Q 1547 4250 1301 3770 
Q 1056 3291 1056 2328 
Q 1056 1369 1301 889 
Q 1547 409 2034 409 
Q 2525 409 2770 889 
Q 3016 1369 3016 2328 
Q 3016 3291 2770 3770 
Q 2525 4250 2034 4250 
z
M 2034 4750 
Q 2819 4750 3233 4129 
Q 3647 3509 3647 2328 
Q 3647 1150 3233 529 
Q 2819 -91 2034 -91 
Q 1250 -91 836 529 
Q 422 1150 422 2328 
Q 422 3509 836 4129 
Q 1250 4750 2034 4750 
z
" id="DejaVuSans-30" transform="scale(0.015625)"/>
        <path d="M 794 531 
L 1825 531 
L 1825 4091 
L 703 3866 
L 703 4441 
L 1819 4666 
L 2450 4666 
L 2450 531 
L 3481 531 
L 3481 0 
L 794 0 
L 794 531 
z
" id="DejaVuSans-31" transform="scale(0.015625)"/>
        <path d="M 313 2009 
L 1997 2009 
L 1997 1497 
L 313 1497 
L 313 2009 
z
" id="DejaVuSans-2d" transform="scale(0.015625)"/>
        <path d="M 703 97 
L 703 672 
Q 941 559 1184 500 
Q 1428 441 1663 441 
Q 2288 441 2617 861 
Q 2947 1281 2994 2138 
Q 2813 1869 2534 1725 
Q 2256 1581 1919 1581 
Q 1219 1581 811 2004 
Q 403 2428 403 3163 
Q 403 3881 828 4315 
Q 1253 4750 1959 4750 
Q 2769 4750 3195 4129 
Q 3622 3509 3622 2328 
Q 3622 1225 3098 567 
Q 2575 -91 1691 -91 
Q 1453 -91 1209 -44 
Q 966 3 703 97 
z
M 1959 2075 
Q 2384 2075 2632 2365 
Q 2881 2656 2881 3163 
Q 2881 3666 2632 3958 
Q 2384 4250 1959 4250 
Q 1534 4250 1286 3958 
Q 1038 3666 1038 3163 
Q 1038 2656 1286 2365 
Q 1534 2075 1959 2075 
z
" id="DejaVuSans-39" transform="scale(0.015625)"/>
       </defs>
       <use xlink:href="#DejaVuSans-32"/>
       <use x="63.623047" xlink:href="#DejaVuSans-30"/>
       <use x="127.246094" xlink:href="#DejaVuSans-32"/>
       <use x="190.869141" xlink:href="#DejaVuSans-31"/>
       <use x="254.492188" xlink:href="#DejaVuSans-2d"/>
       <use x="290.576172" xlink:href="#DejaVuSans-30"/>
       <use x="354.199219" xlink:href="#DejaVuSans-39"/>
      </g>
     </g>
    </g>
    <g id="xtick_2">
     <g id="line2d_2">
      <g>
       <use style="stroke:#000000;stroke-width:0.8;" x="137.779835" xlink:href="#mb91b54298b" y="276.48"/>
      </g>
     </g>
     <g id="text_2">
      <!-- 2021-10 -->
      <g transform="translate(100.555014 310.951846)rotate(-30)scale(0.1 -0.1)">
       <use xlink:href="#DejaVuSans-32"/>
       <use x="63.623047" xlink:href="#DejaVuSans-30"/>
       <use x="127.246094" xlink:href="#DejaVuSans-32"/>
       <use x="190.869141" xlink:href="#DejaVuSans-31"/>
       <use x="254.492188" xlink:href="#DejaVuSans-2d"/>
       <use x="290.576172" xlink:href="#DejaVuSans-31"/>
       <use x="354.199219" xlink:href="#DejaVuSans-30"/>
      </g>
     </g>
    </g>
    <g id="xtick_3">
     <g id="line2d_3">
      <g>
       <use style="stroke:#000000;stroke-width:0.8;" x="188.609587" xlink:href="#mb91b54298b" y="276.48"/>
      </g>
     </g>
     <g id="text_3">
      <!-- 2021-11 -->
      <g transform="translate(151.384766 310.951846)rotate(-30)scale(0.1 -0.1)">
       <use xlink:href="#DejaVuSans-32"/>
       <use x="63.623047" xlink:href="#DejaVuSans-30"/>
       <use x="127.246094" xlink:href="#DejaVuSans-32"/>
       <use x="190.869141" xlink:href="#DejaVuSans-31"/>
       <use x="254.492188" xlink:href="#DejaVuSans-2d"/>
       <use x="290.576172" xlink:href="#DejaVuSans-31"/>
       <use x="354.199219" xlink:href="#DejaVuSans-31"/>
      </g>
     </g>
    </g>
    <g id="xtick_4">
     <g id="line2d_4">
      <g>
       <use style="stroke:#000000;stroke-width:0.8;" x="237.799669" xlink:href="#mb91b54298b" y="276.48"/>
      </g>
     </g>
     <g id="text_4">
      <!-- 2021-12 -->
      <g transform="translate(200.574849 310.951846)rotate(-30)scale(0.1 -0.1)">
       <use xlink:href="#DejaVuSans-32"/>
       <use x="63.623047" xlink:href="#DejaVuSans-30"/>
       <use x="127.246094" xlink:href="#DejaVuSans-32"/>
       <use x="190.869141" xlink:href="#DejaVuSans-31"/>
       <use x="254.492188" xlink:href="#DejaVuSans-2d"/>
       <use x="290.576172" xlink:href="#DejaVuSans-31"/>
       <use x="354.199219" xlink:href="#DejaVuSans-32"/>
      </g>
     </g>
    </g>
    <g id="xtick_5">
     <g id="line2d_5">
      <g>
       <use style="stroke:#000000;stroke-width:0.8;" x="288.629421" xlink:href="#mb91b54298b" y="276.48"/>
      </g>
     </g>
     <g id="text_5">
      <!-- 2022-01 -->
      <g transform="translate(251.404601 310.951846)rotate(-30)scale(0.1 -0.1)">
       <use xlink:href="#DejaVuSans-32"/>
       <use x="63.623047" xlink:href="#DejaVuSans-30"/>
       <use x="127.246094" xlink:href="#DejaVuSans-32"/>
       <use x="190.869141" xlink:href="#DejaVuSans-32"/>
       <use x="254.492188" xlink:href="#DejaVuSans-2d"/>
       <use x="290.576172" xlink:href="#DejaVuSans-30"/>
       <use x="354.199219" xlink:href="#DejaVuSans-31"/>
      </g>
     </g>
    </g>
    <g id="xtick_6">
     <g id="line2d_6">
      <g>
       <use style="stroke:#000000;stroke-width:0.8;" x="339.459174" xlink:href="#mb91b54298b" y="276.48"/>
      </g>
     </g>
     <g id="text_6">
      <!-- 2022-02 -->
      <g transform="translate(302.234353 310.951846)rotate(-30)scale(0.1 -0.1)">
       <use xlink:href="#DejaVuSans-32"/>
       <use x="63.623047" xlink:href="#DejaVuSans-30"/>
       <use x="127.246094" xlink:href="#DejaVuSans-32"/>
       <use x="190.869141" xlink:href="#DejaVuSans-32"/>
       <use x="254.492188" xlink:href="#DejaVuSans-2d"/>
       <use x="290.576172" xlink:href="#DejaVuSans-30"/>
       <use x="354.199219" xlink:href="#DejaVuSans-32"/>
      </g>
     </g>
    </g>
    <g id="xtick_7">
     <g id="line2d_7">
      <g>
       <use style="stroke:#000000;stroke-width:0.8;" x="385.369917" xlink:href="#mb91b54298b" y="276.48"/>
      </g>
     </g>
     <g id="text_7">
      <!-- 2022-03 -->
      <g transform="translate(348.145097 310.951846)rotate(-30)scale(0.1 -0.1)">
       <defs>
        <path d="M 2597 2516 
Q 3050 2419 3304 2112 
Q 3559 1806 3559 1356 
Q 3559 666 3084 287 
Q 2609 -91 1734 -91 
Q 1441 -91 1130 -33 
Q 819 25 488 141 
L 488 750 
Q 750 597 1062 519 
Q 1375 441 1716 441 
Q 2309 441 2620 675 
Q 2931 909 2931 1356 
Q 2931 1769 2642 2001 
Q 2353 2234 1838 2234 
L 1294 2234 
L 1294 2753 
L 1863 2753 
Q 2328 2753 2575 2939 
Q 2822 3125 2822 3475 
Q 2822 3834 2567 4026 
Q 2313 4219 1838 4219 
Q 1578 4219 1281 4162 
Q 984 4106 628 3988 
L 628 4550 
Q 988 4650 1302 4700 
Q 1616 4750 1894 4750 
Q 2613 4750 3031 4423 
Q 3450 4097 3450 3541 
Q 3450 3153 3228 2886 
Q 3006 2619 2597 2516 
z
" id="DejaVuSans-33" transform="scale(0.015625)"/>
       </defs>
       <use xlink:href="#DejaVuSans-32"/>
       <use x="63.623047" xlink:href="#DejaVuSans-30"/>
       <use x="127.246094" xlink:href="#DejaVuSans-32"/>
       <use x="190.869141" xlink:href="#DejaVuSans-32"/>
       <use x="254.492188" xlink:href="#DejaVuSans-2d"/>
       <use x="290.576172" xlink:href="#DejaVuSans-30"/>
       <use x="354.199219" xlink:href="#DejaVuSans-33"/>
      </g>
     </g>
    </g>
    <g id="text_8">
     <!-- date -->
     <g transform="translate(224.885 324.351346)scale(0.1 -0.1)">
      <defs>
       <path d="M 2906 2969 
L 2906 4863 
L 3481 4863 
L 3481 0 
L 2906 0 
L 2906 525 
Q 2725 213 2448 61 
Q 2172 -91 1784 -91 
Q 1150 -91 751 415 
Q 353 922 353 1747 
Q 353 2572 751 3078 
Q 1150 3584 1784 3584 
Q 2172 3584 2448 3432 
Q 2725 3281 2906 2969 
z
M 947 1747 
Q 947 1113 1208 752 
Q 1469 391 1925 391 
Q 2381 391 2643 752 
Q 2906 1113 2906 1747 
Q 2906 2381 2643 2742 
Q 2381 3103 1925 3103 
Q 1469 3103 1208 2742 
Q 947 2381 947 1747 
z
" id="DejaVuSans-64" transform="scale(0.015625)"/>
       <path d="M 2194 1759 
Q 1497 1759 1228 1600 
Q 959 1441 959 1056 
Q 959 750 1161 570 
Q 1363 391 1709 391 
Q 2188 391 2477 730 
Q 2766 1069 2766 1631 
L 2766 1759 
L 2194 1759 
z
M 3341 1997 
L 3341 0 
L 2766 0 
L 2766 531 
Q 2569 213 2275 61 
Q 1981 -91 1556 -91 
Q 1019 -91 701 211 
Q 384 513 384 1019 
Q 384 1609 779 1909 
Q 1175 2209 1959 2209 
L 2766 2209 
L 2766 2266 
Q 2766 2663 2505 2880 
Q 2244 3097 1772 3097 
Q 1472 3097 1187 3025 
Q 903 2953 641 2809 
L 641 3341 
Q 956 3463 1253 3523 
Q 1550 3584 1831 3584 
Q 2591 3584 2966 3190 
Q 3341 2797 3341 1997 
z
" id="DejaVuSans-61" transform="scale(0.015625)"/>
       <path d="M 1172 4494 
L 1172 3500 
L 2356 3500 
L 2356 3053 
L 1172 3053 
L 1172 1153 
Q 1172 725 1289 603 
Q 1406 481 1766 481 
L 2356 481 
L 2356 0 
L 1766 0 
Q 1100 0 847 248 
Q 594 497 594 1153 
L 594 3053 
L 172 3053 
L 172 3500 
L 594 3500 
L 594 4494 
L 1172 4494 
z
" id="DejaVuSans-74" transform="scale(0.015625)"/>
       <path d="M 3597 1894 
L 3597 1613 
L 953 1613 
Q 991 1019 1311 708 
Q 1631 397 2203 397 
Q 2534 397 2845 478 
Q 3156 559 3463 722 
L 3463 178 
Q 3153 47 2828 -22 
Q 2503 -91 2169 -91 
Q 1331 -91 842 396 
Q 353 884 353 1716 
Q 353 2575 817 3079 
Q 1281 3584 2069 3584 
Q 2775 3584 3186 3129 
Q 3597 2675 3597 1894 
z
M 3022 2063 
Q 3016 2534 2758 2815 
Q 2500 3097 2075 3097 
Q 1594 3097 1305 2825 
Q 1016 2553 972 2059 
L 3022 2063 
z
" id="DejaVuSans-65" transform="scale(0.015625)"/>
      </defs>
      <use xlink:href="#DejaVuSans-64"/>
      <use x="63.476562" xlink:href="#DejaVuSans-61"/>
      <use x="124.755859" xlink:href="#DejaVuSans-74"/>
      <use x="163.964844" xlink:href="#DejaVuSans-65"/>
     </g>
    </g>
   </g>
   <g id="matplotlib.axis_2">
    <g id="ytick_1">
     <g id="line2d_8">
      <defs>
       <path d="M 0 0 
L -3.5 0 
" id="m299c79e415" style="stroke:#000000;stroke-width:0.8;"/>
      </defs>
      <g>
       <use style="stroke:#000000;stroke-width:0.8;" x="57.6" xlink:href="#m299c79e415" y="264.410468"/>
      </g>
     </g>
     <g id="text_9">
      <!-- 80000 -->
      <g transform="translate(18.7875 268.209687)scale(0.1 -0.1)">
       <defs>
        <path d="M 2034 2216 
Q 1584 2216 1326 1975 
Q 1069 1734 1069 1313 
Q 1069 891 1326 650 
Q 1584 409 2034 409 
Q 2484 409 2743 651 
Q 3003 894 3003 1313 
Q 3003 1734 2745 1975 
Q 2488 2216 2034 2216 
z
M 1403 2484 
Q 997 2584 770 2862 
Q 544 3141 544 3541 
Q 544 4100 942 4425 
Q 1341 4750 2034 4750 
Q 2731 4750 3128 4425 
Q 3525 4100 3525 3541 
Q 3525 3141 3298 2862 
Q 3072 2584 2669 2484 
Q 3125 2378 3379 2068 
Q 3634 1759 3634 1313 
Q 3634 634 3220 271 
Q 2806 -91 2034 -91 
Q 1263 -91 848 271 
Q 434 634 434 1313 
Q 434 1759 690 2068 
Q 947 2378 1403 2484 
z
M 1172 3481 
Q 1172 3119 1398 2916 
Q 1625 2713 2034 2713 
Q 2441 2713 2670 2916 
Q 2900 3119 2900 3481 
Q 2900 3844 2670 4047 
Q 2441 4250 2034 4250 
Q 1625 4250 1398 4047 
Q 1172 3844 1172 3481 
z
" id="DejaVuSans-38" transform="scale(0.015625)"/>
       </defs>
       <use xlink:href="#DejaVuSans-38"/>
       <use x="63.623047" xlink:href="#DejaVuSans-30"/>
       <use x="127.246094" xlink:href="#DejaVuSans-30"/>
       <use x="190.869141" xlink:href="#DejaVuSans-30"/>
       <use x="254.492188" xlink:href="#DejaVuSans-30"/>
      </g>
     </g>
    </g>
    <g id="ytick_2">
     <g id="line2d_9">
      <g>
       <use style="stroke:#000000;stroke-width:0.8;" x="57.6" xlink:href="#m299c79e415" y="236.920507"/>
      </g>
     </g>
     <g id="text_10">
      <!-- 85000 -->
      <g transform="translate(18.7875 240.719725)scale(0.1 -0.1)">
       <defs>
        <path d="M 691 4666 
L 3169 4666 
L 3169 4134 
L 1269 4134 
L 1269 2991 
Q 1406 3038 1543 3061 
Q 1681 3084 1819 3084 
Q 2600 3084 3056 2656 
Q 3513 2228 3513 1497 
Q 3513 744 3044 326 
Q 2575 -91 1722 -91 
Q 1428 -91 1123 -41 
Q 819 9 494 109 
L 494 744 
Q 775 591 1075 516 
Q 1375 441 1709 441 
Q 2250 441 2565 725 
Q 2881 1009 2881 1497 
Q 2881 1984 2565 2268 
Q 2250 2553 1709 2553 
Q 1456 2553 1204 2497 
Q 953 2441 691 2322 
L 691 4666 
z
" id="DejaVuSans-35" transform="scale(0.015625)"/>
       </defs>
       <use xlink:href="#DejaVuSans-38"/>
       <use x="63.623047" xlink:href="#DejaVuSans-35"/>
       <use x="127.246094" xlink:href="#DejaVuSans-30"/>
       <use x="190.869141" xlink:href="#DejaVuSans-30"/>
       <use x="254.492188" xlink:href="#DejaVuSans-30"/>
      </g>
     </g>
    </g>
    <g id="ytick_3">
     <g id="line2d_10">
      <g>
       <use style="stroke:#000000;stroke-width:0.8;" x="57.6" xlink:href="#m299c79e415" y="209.430545"/>
      </g>
     </g>
     <g id="text_11">
      <!-- 90000 -->
      <g transform="translate(18.7875 213.229763)scale(0.1 -0.1)">
       <use xlink:href="#DejaVuSans-39"/>
       <use x="63.623047" xlink:href="#DejaVuSans-30"/>
       <use x="127.246094" xlink:href="#DejaVuSans-30"/>
       <use x="190.869141" xlink:href="#DejaVuSans-30"/>
       <use x="254.492188" xlink:href="#DejaVuSans-30"/>
      </g>
     </g>
    </g>
    <g id="ytick_4">
     <g id="line2d_11">
      <g>
       <use style="stroke:#000000;stroke-width:0.8;" x="57.6" xlink:href="#m299c79e415" y="181.940583"/>
      </g>
     </g>
     <g id="text_12">
      <!-- 95000 -->
      <g transform="translate(18.7875 185.739802)scale(0.1 -0.1)">
       <use xlink:href="#DejaVuSans-39"/>
       <use x="63.623047" xlink:href="#DejaVuSans-35"/>
       <use x="127.246094" xlink:href="#DejaVuSans-30"/>
       <use x="190.869141" xlink:href="#DejaVuSans-30"/>
       <use x="254.492188" xlink:href="#DejaVuSans-30"/>
      </g>
     </g>
    </g>
    <g id="ytick_5">
     <g id="line2d_12">
      <g>
       <use style="stroke:#000000;stroke-width:0.8;" x="57.6" xlink:href="#m299c79e415" y="154.450621"/>
      </g>
     </g>
     <g id="text_13">
      <!-- 100000 -->
      <g transform="translate(12.425 158.24984)scale(0.1 -0.1)">
       <use xlink:href="#DejaVuSans-31"/>
       <use x="63.623047" xlink:href="#DejaVuSans-30"/>
       <use x="127.246094" xlink:href="#DejaVuSans-30"/>
       <use x="190.869141" xlink:href="#DejaVuSans-30"/>
       <use x="254.492188" xlink:href="#DejaVuSans-30"/>
       <use x="318.115234" xlink:href="#DejaVuSans-30"/>
      </g>
     </g>
    </g>
    <g id="ytick_6">
     <g id="line2d_13">
      <g>
       <use style="stroke:#000000;stroke-width:0.8;" x="57.6" xlink:href="#m299c79e415" y="126.960659"/>
      </g>
     </g>
     <g id="text_14">
      <!-- 105000 -->
      <g transform="translate(12.425 130.759878)scale(0.1 -0.1)">
       <use xlink:href="#DejaVuSans-31"/>
       <use x="63.623047" xlink:href="#DejaVuSans-30"/>
       <use x="127.246094" xlink:href="#DejaVuSans-35"/>
       <use x="190.869141" xlink:href="#DejaVuSans-30"/>
       <use x="254.492188" xlink:href="#DejaVuSans-30"/>
       <use x="318.115234" xlink:href="#DejaVuSans-30"/>
      </g>
     </g>
    </g>
    <g id="ytick_7">
     <g id="line2d_14">
      <g>
       <use style="stroke:#000000;stroke-width:0.8;" x="57.6" xlink:href="#m299c79e415" y="99.470697"/>
      </g>
     </g>
     <g id="text_15">
      <!-- 110000 -->
      <g transform="translate(12.425 103.269916)scale(0.1 -0.1)">
       <use xlink:href="#DejaVuSans-31"/>
       <use x="63.623047" xlink:href="#DejaVuSans-31"/>
       <use x="127.246094" xlink:href="#DejaVuSans-30"/>
       <use x="190.869141" xlink:href="#DejaVuSans-30"/>
       <use x="254.492188" xlink:href="#DejaVuSans-30"/>
       <use x="318.115234" xlink:href="#DejaVuSans-30"/>
      </g>
     </g>
    </g>
    <g id="ytick_8">
     <g id="line2d_15">
      <g>
       <use style="stroke:#000000;stroke-width:0.8;" x="57.6" xlink:href="#m299c79e415" y="71.980736"/>
      </g>
     </g>
     <g id="text_16">
      <!-- 115000 -->
      <g transform="translate(12.425 75.779954)scale(0.1 -0.1)">
       <use xlink:href="#DejaVuSans-31"/>
       <use x="63.623047" xlink:href="#DejaVuSans-31"/>
       <use x="127.246094" xlink:href="#DejaVuSans-35"/>
       <use x="190.869141" xlink:href="#DejaVuSans-30"/>
       <use x="254.492188" xlink:href="#DejaVuSans-30"/>
       <use x="318.115234" xlink:href="#DejaVuSans-30"/>
      </g>
     </g>
    </g>
    <g id="ytick_9">
     <g id="line2d_16">
      <g>
       <use style="stroke:#000000;stroke-width:0.8;" x="57.6" xlink:href="#m299c79e415" y="44.490774"/>
      </g>
     </g>
     <g id="text_17">
      <!-- 120000 -->
      <g transform="translate(12.425 48.289992)scale(0.1 -0.1)">
       <use xlink:href="#DejaVuSans-31"/>
       <use x="63.623047" xlink:href="#DejaVuSans-32"/>
       <use x="127.246094" xlink:href="#DejaVuSans-30"/>
       <use x="190.869141" xlink:href="#DejaVuSans-30"/>
       <use x="254.492188" xlink:href="#DejaVuSans-30"/>
       <use x="318.115234" xlink:href="#DejaVuSans-30"/>
      </g>
     </g>
    </g>
   </g>
   <g id="line2d_17">
    <path clip-path="url(#p4adf849333)" d="M 73.832727 154.450621 
L 75.472397 154.651736 
L 77.112066 152.633398 
L 78.751736 155.620014 
L 80.391405 150.480445 
L 85.310413 147.290391 
L 86.950083 146.010233 
L 88.589752 147.634437 
L 90.229421 147.165736 
L 91.869091 147.323066 
L 98.427769 147.117825 
L 100.067438 149.350105 
L 101.707107 151.223085 
L 103.346777 155.735381 
L 108.265785 151.322857 
L 109.905455 159.406797 
L 111.545124 155.495314 
L 113.184793 156.038603 
L 114.824463 161.467674 
L 119.743471 170.797365 
L 121.38314 172.57276 
L 123.02281 168.250685 
L 124.662479 159.535755 
L 126.302149 155.052008 
L 131.221157 150.600567 
L 132.860826 162.509895 
L 134.500496 160.629087 
L 136.140165 165.071119 
L 137.779835 156.759544 
L 142.698843 167.170492 
L 144.338512 158.934191 
L 145.978182 156.450265 
L 147.617851 156.691449 
L 149.257521 156.03003 
L 154.176529 155.141908 
L 155.816198 154.62063 
L 157.455868 161.616866 
L 159.095537 151.041096 
L 160.735207 150.144984 
L 165.654215 145.33666 
L 167.293884 140.19168 
L 168.933554 137.867776 
L 170.573223 147.291163 
L 172.212893 154.67768 
L 177.131901 153.742084 
L 178.77157 159.119508 
L 180.41124 160.295582 
L 182.050909 153.071373 
L 183.690579 160.312883 
L 188.609587 149.01069 
L 190.249256 148.966102 
L 191.888926 143.52199 
L 193.528595 150.341322 
L 195.168264 146.754521 
L 200.087273 145.88375 
L 201.726942 152.844777 
L 203.366612 153.159365 
L 205.006281 157.632553 
L 206.64595 152.901858 
L 211.564959 151.559772 
L 213.204628 151.343364 
L 214.844298 154.579114 
L 216.483967 156.211953 
L 218.123636 156.672189 
L 223.042645 153.262871 
L 224.682314 148.542144 
L 226.321983 148.973543 
L 229.601322 148.706149 
L 234.520331 153.584117 
L 236.16 164.387745 
L 237.799669 171.699395 
L 239.439339 164.634372 
L 241.079008 168.039753 
L 245.998017 158.349268 
L 247.637686 148.289571 
L 249.277355 144.240475 
L 250.917025 143.888033 
L 252.556694 141.837696 
L 257.475702 147.424453 
L 260.755041 141.376917 
L 262.394711 139.01532 
L 264.03438 145.884641 
L 268.953388 153.213566 
L 270.593058 140.575807 
L 272.232727 137.602632 
L 273.872397 132.480873 
L 280.431074 125.417375 
L 282.070744 125.781849 
L 283.710413 125.77496 
L 285.350083 126.526182 
L 286.989752 129.040575 
L 291.90876 120.604897 
L 293.54843 113.059552 
L 295.188099 128.711315 
L 296.827769 123.656091 
L 298.467438 121.777472 
L 303.386446 121.626881 
L 305.026116 116.529247 
L 306.665785 115.058598 
L 308.305455 122.087667 
L 309.945124 120.776829 
L 318.143471 136.249615 
L 319.78314 142.656731 
L 321.42281 155.307826 
L 326.341818 154.679994 
L 327.981488 161.162227 
L 329.621157 161.048356 
L 331.260826 164.329639 
L 332.900496 150.455067 
L 337.819504 138.66021 
L 339.459174 133.268326 
L 341.098843 124.515913 
L 342.738512 161.01349 
L 344.378182 160.479043 
L 349.29719 169.508646 
L 350.93686 171.219277 
L 352.576529 158.685893 
L 354.216198 168.804432 
L 355.855868 180.98648 
L 360.774876 184.675775 
L 362.414545 178.176905 
L 364.054215 180.675513 
L 365.693884 190.886248 
L 367.333554 193.739174 
L 373.892231 199.195321 
L 375.531901 206.63598 
L 377.17157 195.121219 
L 378.81124 186.131748 
L 383.730248 187.425845 
L 385.369917 195.781185 
L 387.009587 185.189876 
L 388.649256 187.43117 
L 390.288926 191.561264 
L 395.207934 212.421314 
L 396.847603 212.881409 
L 398.487273 195.63537 
L 398.487273 195.63537 
" style="fill:none;stroke:#0000ff;stroke-linecap:square;stroke-opacity:0.9;stroke-width:2;"/>
   </g>
   <g id="line2d_18">
    <path clip-path="url(#p4adf849333)" d="M 73.832727 154.450621 
L 75.472397 151.393824 
L 77.112066 149.066343 
L 78.751736 152.383148 
L 80.391405 145.530159 
L 85.310413 143.598554 
L 88.589752 143.11506 
L 90.229421 143.848922 
L 91.869091 143.777251 
L 98.427769 142.602433 
L 100.067438 145.197318 
L 101.707107 146.267939 
L 103.346777 151.690382 
L 108.265785 147.890692 
L 109.905455 153.425432 
L 111.545124 150.427968 
L 113.184793 152.038254 
L 114.824463 159.295563 
L 119.743471 168.147488 
L 121.38314 168.293889 
L 123.02281 165.182018 
L 124.662479 158.065354 
L 126.302149 154.14926 
L 131.221157 150.451867 
L 132.860826 161.109722 
L 134.500496 160.810257 
L 136.140165 166.068513 
L 137.779835 157.954204 
L 142.698843 163.869289 
L 144.338512 156.421006 
L 145.978182 154.693479 
L 147.617851 153.541274 
L 149.257521 150.395353 
L 154.176529 153.696874 
L 155.816198 157.896244 
L 157.455868 159.737161 
L 159.095537 146.441523 
L 160.735207 142.610441 
L 165.654215 141.166195 
L 167.293884 136.261603 
L 168.933554 132.991916 
L 170.573223 140.416694 
L 172.212893 143.373514 
L 177.131901 144.943166 
L 178.77157 147.919274 
L 180.41124 151.319374 
L 182.050909 143.607798 
L 183.690579 142.183295 
L 188.609587 141.918767 
L 190.249256 140.330627 
L 191.888926 135.579271 
L 193.528595 137.133458 
L 195.168264 137.007128 
L 200.087273 136.19145 
L 201.726942 140.513211 
L 203.366612 143.668969 
L 205.006281 143.473524 
L 206.64595 139.857001 
L 211.564959 138.34077 
L 213.204628 139.687195 
L 214.844298 140.08071 
L 216.483967 140.342934 
L 218.123636 142.264833 
L 223.042645 139.810836 
L 224.682314 134.129757 
L 226.321983 134.217944 
L 229.601322 148.760723 
L 234.520331 142.573601 
L 236.16 154.483925 
L 237.799669 160.896784 
L 239.439339 153.249585 
L 241.079008 157.774059 
L 245.998017 149.440636 
L 247.637686 139.838059 
L 249.277355 136.439094 
L 250.917025 137.234011 
L 252.556694 133.319353 
L 257.475702 139.219254 
L 259.115372 138.897654 
L 260.755041 134.739207 
L 262.394711 134.495687 
L 264.03438 141.379819 
L 268.953388 148.021738 
L 270.593058 137.423048 
L 272.232727 134.271177 
L 273.872397 129.623727 
L 280.431074 121.968431 
L 282.070744 122.175403 
L 283.710413 121.889524 
L 285.350083 122.948032 
L 286.989752 124.723218 
L 291.90876 118.518491 
L 293.54843 113.056326 
L 295.188099 125.516557 
L 296.827769 123.33206 
L 298.467438 120.501212 
L 303.386446 121.12653 
L 305.026116 117.465545 
L 306.665785 117.32946 
L 308.305455 122.031181 
L 309.945124 122.007347 
L 316.503802 134.940465 
L 319.78314 145.562556 
L 321.42281 157.075727 
L 326.341818 157.92304 
L 327.981488 156.653591 
L 329.621157 157.671699 
L 331.260826 162.190615 
L 332.900496 149.078688 
L 337.819504 140.594203 
L 339.459174 133.969607 
L 341.098843 124.765989 
L 342.738512 150.62077 
L 344.378182 145.853762 
L 349.29719 149.784758 
L 350.93686 146.030106 
L 352.576529 140.947821 
L 354.216198 150.076245 
L 355.855868 161.554012 
L 360.774876 166.760994 
L 362.414545 160.227137 
L 364.054215 161.477097 
L 365.693884 172.186283 
L 367.333554 174.959619 
L 373.892231 179.397186 
L 375.531901 186.76255 
L 377.17157 183.80472 
L 378.81124 171.096099 
L 383.730248 176.27503 
L 385.369917 187.137886 
L 387.009587 174.651248 
L 388.649256 175.869152 
L 390.288926 183.873983 
L 395.207934 201.941834 
L 396.847603 204.627012 
L 398.487273 186.206341 
L 398.487273 186.206341 
" style="fill:none;stroke:#ff0000;stroke-linecap:square;stroke-opacity:0.9;stroke-width:2;"/>
   </g>
   <g id="line2d_19">
    <path clip-path="url(#p4adf849333)" d="M 73.832727 154.450621 
L 75.472397 151.585073 
L 77.112066 149.239903 
L 78.751736 152.209915 
L 80.391405 147.283345 
L 85.310413 143.370724 
L 86.950083 142.663954 
L 88.589752 143.787319 
L 90.229421 143.341597 
L 91.869091 143.603754 
L 98.427769 143.379305 
L 101.707107 147.120272 
L 103.346777 151.954557 
L 108.265785 147.350985 
L 109.905455 154.700451 
L 111.545124 150.973985 
L 113.184793 151.806287 
L 114.824463 157.004497 
L 119.743471 166.527378 
L 121.38314 167.809025 
L 123.02281 163.624472 
L 124.662479 155.055471 
L 126.302149 149.973139 
L 131.221157 145.411486 
L 132.860826 157.248156 
L 134.500496 155.427132 
L 136.140165 159.60842 
L 137.779835 151.008267 
L 142.698843 161.674401 
L 144.338512 153.325834 
L 145.978182 151.01399 
L 147.617851 149.590614 
L 149.257521 147.029247 
L 154.176529 150.287862 
L 155.816198 154.819841 
L 157.455868 155.921706 
L 159.095537 145.201942 
L 160.735207 144.202302 
L 165.654215 139.265739 
L 167.293884 134.054142 
L 168.933554 131.314163 
L 170.573223 140.734605 
L 172.212893 148.026615 
L 177.131901 147.294819 
L 178.77157 152.633943 
L 180.41124 153.586874 
L 182.050909 146.808616 
L 183.690579 145.737866 
L 188.609587 142.711618 
L 190.249256 142.149429 
L 191.888926 137.449172 
L 193.528595 137.123207 
L 195.168264 132.95445 
L 200.087273 132.441234 
L 201.726942 139.361203 
L 203.366612 143.905662 
L 205.006281 144.327667 
L 206.64595 139.838191 
L 211.564959 137.961143 
L 213.204628 140.766873 
L 214.844298 141.037358 
L 216.483967 142.21604 
L 218.123636 142.635119 
L 223.042645 138.860842 
L 224.682314 134.526836 
L 226.321983 134.592674 
L 229.601322 147.46419 
L 234.520331 140.213374 
L 236.16 151.434538 
L 237.799669 158.694978 
L 239.439339 152.395896 
L 241.079008 155.901898 
L 245.998017 145.558685 
L 247.637686 135.617492 
L 249.277355 130.904202 
L 250.917025 130.77072 
L 252.556694 128.850381 
L 257.475702 134.332773 
L 259.115372 131.674029 
L 260.755041 128.142986 
L 262.394711 125.988199 
L 264.03438 132.827798 
L 268.953388 140.779784 
L 270.593058 127.212353 
L 272.232727 125.042176 
L 273.872397 119.575172 
L 280.431074 111.993669 
L 282.070744 112.271556 
L 283.710413 112.321572 
L 285.350083 113.086735 
L 286.989752 116.110836 
L 291.90876 107.186138 
L 293.54843 99.582176 
L 295.188099 115.188314 
L 296.827769 108.862024 
L 298.467438 106.835327 
L 303.386446 105.915424 
L 305.026116 100.128033 
L 306.665785 98.94585 
L 308.305455 106.218211 
L 309.945124 104.618798 
L 318.143471 120.467928 
L 319.78314 126.779077 
L 321.42281 140.197266 
L 326.341818 139.285855 
L 327.981488 146.262776 
L 329.621157 145.921386 
L 331.260826 149.759127 
L 332.900496 135.269882 
L 337.819504 122.938579 
L 339.459174 117.357474 
L 341.098843 107.677175 
L 342.738512 147.577408 
L 344.378182 146.943111 
L 349.29719 156.324332 
L 350.93686 157.721463 
L 352.576529 145.66236 
L 354.216198 155.410233 
L 355.855868 167.952013 
L 360.774876 171.470264 
L 362.414545 164.941425 
L 364.054215 167.482804 
L 365.693884 177.833735 
L 367.333554 180.719232 
L 373.892231 186.071395 
L 375.531901 193.427609 
L 377.17157 181.269406 
L 378.81124 171.513959 
L 383.730248 173.537969 
L 385.369917 181.833312 
L 387.009587 170.446351 
L 388.649256 173.760812 
L 390.288926 180.877827 
L 395.207934 203.30197 
L 396.847603 201.012112 
L 398.487273 179.001342 
L 398.487273 179.001342 
" style="fill:none;stroke:#ff8040;stroke-linecap:square;stroke-opacity:0.9;stroke-width:2;"/>
   </g>
   <g id="line2d_20">
    <path clip-path="url(#p4adf849333)" d="M 73.832727 155.00042 
L 75.472397 153.339011 
L 77.112066 152.416658 
L 78.751736 156.945914 
L 80.391405 151.640514 
L 85.310413 152.510229 
L 86.950083 151.871859 
L 88.589752 152.129309 
L 90.229421 154.298888 
L 91.869091 152.864862 
L 98.427769 154.652199 
L 101.707107 157.135756 
L 103.346777 163.86887 
L 108.265785 159.41995 
L 109.905455 165.49178 
L 111.545124 161.824469 
L 113.184793 162.498139 
L 114.824463 170.458531 
L 119.743471 179.892937 
L 121.38314 180.269384 
L 123.02281 180.391787 
L 124.662479 172.080341 
L 126.302149 167.234064 
L 131.221157 165.714997 
L 132.860826 178.212294 
L 134.500496 177.433407 
L 136.140165 181.981191 
L 137.779835 173.588226 
L 142.698843 178.230723 
L 144.338512 170.701657 
L 145.978182 169.491206 
L 147.617851 168.52377 
L 149.257521 165.989982 
L 154.176529 168.717229 
L 155.816198 172.431247 
L 157.455868 174.368599 
L 159.095537 162.998293 
L 160.735207 158.187573 
L 165.654215 159.536634 
L 167.293884 154.429045 
L 168.933554 153.406919 
L 170.573223 159.696742 
L 172.212893 162.99816 
L 177.131901 164.84745 
L 178.77157 168.493435 
L 180.41124 170.789449 
L 182.050909 163.121008 
L 183.690579 163.055224 
L 188.609587 165.213861 
L 190.249256 163.317502 
L 191.888926 157.832906 
L 195.168264 161.155313 
L 200.087273 161.122851 
L 201.726942 165.857451 
L 203.366612 166.381422 
L 205.006281 166.499162 
L 206.64595 161.12058 
L 211.564959 159.268344 
L 213.204628 160.323817 
L 214.844298 161.834664 
L 216.483967 162.00865 
L 218.123636 162.379707 
L 223.042645 163.101913 
L 224.682314 158.724257 
L 226.321983 159.058798 
L 229.601322 173.158346 
L 234.520331 166.436026 
L 237.799669 185.376701 
L 239.439339 174.831815 
L 241.079008 180.624603 
L 245.998017 175.333331 
L 247.637686 164.521926 
L 249.277355 162.621875 
L 250.917025 162.497272 
L 252.556694 159.54 
L 257.475702 160.576281 
L 259.115372 161.665112 
L 260.755041 158.108489 
L 262.394711 156.611034 
L 264.03438 166.781218 
L 268.953388 173.581248 
L 270.593058 166.718637 
L 273.872397 157.562138 
L 280.431074 151.35138 
L 282.070744 151.049418 
L 283.710413 151.218428 
L 285.350083 151.194162 
L 286.989752 152.422399 
L 291.90876 148.341727 
L 293.54843 143.959156 
L 295.188099 156.5482 
L 296.827769 155.563751 
L 298.467438 151.845105 
L 303.386446 150.869387 
L 305.026116 146.480053 
L 306.665785 146.278627 
L 308.305455 149.848259 
L 309.945124 150.023517 
L 316.503802 161.928533 
L 318.143471 166.07455 
L 319.78314 172.42167 
L 321.42281 183.931246 
L 326.341818 183.397266 
L 327.981488 186.348825 
L 329.621157 185.224848 
L 331.260826 190.30309 
L 332.900496 178.344674 
L 337.819504 169.119189 
L 339.459174 161.928556 
L 341.098843 150.973564 
L 342.738512 205.200111 
L 344.378182 200.477355 
L 349.29719 205.455339 
L 350.93686 201.537779 
L 352.576529 194.05655 
L 354.216198 202.84548 
L 355.855868 214.270171 
L 360.774876 219.457497 
L 362.414545 213.337019 
L 364.054215 213.942976 
L 365.693884 225.153449 
L 367.333554 229.910769 
L 373.892231 234.184876 
L 375.531901 238.882208 
L 377.17157 239.105288 
L 378.81124 229.006267 
L 383.730248 233.939513 
L 385.369917 245.154125 
L 387.009587 235.048987 
L 388.649256 235.46268 
L 390.288926 246.025892 
L 395.207934 264.352299 
L 396.847603 265.797818 
L 398.487273 252.048901 
L 398.487273 252.048901 
" style="fill:none;stroke:#0d0d0d;stroke-linecap:square;stroke-opacity:0.25;stroke-width:2;"/>
   </g>
   <g id="line2d_21">
    <path clip-path="url(#p4adf849333)" d="M 73.832727 153.900822 
L 75.472397 149.063742 
L 77.112066 145.882964 
L 78.751736 148.071077 
L 80.391405 141.389599 
L 85.310413 137.39276 
L 86.950083 136.408575 
L 88.589752 135.015071 
L 90.229421 135.687065 
L 91.869091 135.578974 
L 98.427769 133.592619 
L 100.067438 136.49287 
L 101.707107 137.162561 
L 103.346777 142.83111 
L 108.265785 137.005418 
L 109.905455 141.240078 
L 111.545124 138.005186 
L 113.184793 139.569557 
L 114.824463 146.696864 
L 119.743471 156.170335 
L 121.38314 156.353559 
L 123.02281 149.322833 
L 124.662479 140.582232 
L 126.302149 135.037132 
L 131.221157 132.105291 
L 132.860826 143.321108 
L 134.500496 143.202335 
L 136.140165 148.701637 
L 137.779835 140.412916 
L 142.698843 147.254126 
L 144.338512 138.409982 
L 145.978182 135.326182 
L 147.617851 132.897945 
L 149.257521 129.349582 
L 154.176529 132.102609 
L 155.816198 135.427114 
L 157.455868 137.99772 
L 159.095537 123.146979 
L 160.735207 119.562934 
L 165.654215 116.522108 
L 167.293884 111.854233 
L 168.933554 108.070819 
L 170.573223 116.317599 
L 172.212893 118.450477 
L 177.131901 119.271728 
L 178.77157 121.70997 
L 180.41124 125.230891 
L 182.050909 115.048763 
L 183.690579 114.250729 
L 188.609587 110.397042 
L 190.249256 108.88113 
L 191.888926 103.53813 
L 193.528595 104.438484 
L 195.168264 101.376339 
L 200.087273 101.255884 
L 201.726942 104.986655 
L 203.366612 106.738387 
L 205.006281 107.167109 
L 206.64595 103.086943 
L 211.564959 103.280624 
L 213.204628 106.610965 
L 214.844298 105.372597 
L 216.483967 103.349679 
L 218.123636 105.531123 
L 223.042645 101.013576 
L 224.682314 96.513724 
L 226.321983 95.693999 
L 229.601322 111.060279 
L 234.520331 104.287679 
L 236.16 115.5026 
L 237.799669 123.508774 
L 239.439339 114.77144 
L 241.079008 119.973272 
L 245.998017 109.347844 
L 247.637686 101.390447 
L 249.277355 100.230001 
L 250.917025 100.755192 
L 252.556694 98.054616 
L 257.475702 100.081525 
L 259.115372 100.059069 
L 260.755041 93.079678 
L 262.394711 88.744299 
L 264.03438 95.978278 
L 268.953388 102.249647 
L 270.593058 90.846271 
L 272.232727 87.702525 
L 273.872397 82.326025 
L 280.431074 73.522795 
L 282.070744 74.072396 
L 283.710413 73.539423 
L 285.350083 73.951275 
L 286.989752 74.922714 
L 291.90876 60.487444 
L 293.54843 52.154182 
L 295.188099 65.66731 
L 296.827769 64.344524 
L 298.467438 64.796513 
L 303.386446 66.029392 
L 305.026116 63.177714 
L 306.665785 63.403215 
L 308.305455 73.846209 
L 309.945124 72.713407 
L 316.503802 88.555217 
L 318.143471 91.691118 
L 319.78314 96.078876 
L 321.42281 109.907735 
L 326.341818 111.41896 
L 327.981488 118.74007 
L 329.621157 119.240658 
L 331.260826 124.101275 
L 332.900496 108.150071 
L 337.819504 98.656643 
L 339.459174 92.006497 
L 341.098843 74.537653 
L 342.738512 90.630637 
L 344.378182 83.407287 
L 349.29719 89.20719 
L 350.93686 87.30656 
L 352.576529 77.346686 
L 354.216198 89.379885 
L 355.855868 103.465546 
L 360.774876 110.589466 
L 362.414545 105.317829 
L 364.054215 105.764655 
L 365.693884 116.416662 
L 367.333554 119.31479 
L 373.892231 125.345797 
L 375.531901 135.561769 
L 377.17157 129.827144 
L 378.81124 116.264438 
L 383.730248 123.43858 
L 385.369917 133.420989 
L 387.009587 120.454229 
L 388.649256 125.262848 
L 390.288926 133.000843 
L 395.207934 157.224016 
L 396.847603 161.763347 
L 398.487273 138.496665 
L 398.487273 138.496665 
" style="fill:none;stroke:#0d0d0d;stroke-linecap:square;stroke-opacity:0.25;stroke-width:2;"/>
   </g>
   <g id="patch_3">
    <path d="M 57.6 276.48 
L 57.6 41.472 
" style="fill:none;stroke:#000000;stroke-linecap:square;stroke-linejoin:miter;stroke-width:0.8;"/>
   </g>
   <g id="patch_4">
    <path d="M 414.72 276.48 
L 414.72 41.472 
" style="fill:none;stroke:#000000;stroke-linecap:square;stroke-linejoin:miter;stroke-width:0.8;"/>
   </g>
   <g id="patch_5">
    <path d="M 57.6 276.48 
L 414.72 276.48 
" style="fill:none;stroke:#000000;stroke-linecap:square;stroke-linejoin:miter;stroke-width:0.8;"/>
   </g>
   <g id="patch_6">
    <path d="M 57.6 41.472 
L 414.72 41.472 
" style="fill:none;stroke:#000000;stroke-linecap:square;stroke-linejoin:miter;stroke-width:0.8;"/>
   </g>
   <g id="text_18">
    <!-- TESTFUNDS1330 -->
    <g transform="translate(185.200312 22.034625)scale(0.12 -0.12)">
     <defs>
      <path d="M -19 4666 
L 3928 4666 
L 3928 4134 
L 2272 4134 
L 2272 0 
L 1638 0 
L 1638 4134 
L -19 4134 
L -19 4666 
z
" id="DejaVuSans-54" transform="scale(0.015625)"/>
      <path d="M 628 4666 
L 3578 4666 
L 3578 4134 
L 1259 4134 
L 1259 2753 
L 3481 2753 
L 3481 2222 
L 1259 2222 
L 1259 531 
L 3634 531 
L 3634 0 
L 628 0 
L 628 4666 
z
" id="DejaVuSans-45" transform="scale(0.015625)"/>
      <path d="M 3425 4513 
L 3425 3897 
Q 3066 4069 2747 4153 
Q 2428 4238 2131 4238 
Q 1616 4238 1336 4038 
Q 1056 3838 1056 3469 
Q 1056 3159 1242 3001 
Q 1428 2844 1947 2747 
L 2328 2669 
Q 3034 2534 3370 2195 
Q 3706 1856 3706 1288 
Q 3706 609 3251 259 
Q 2797 -91 1919 -91 
Q 1588 -91 1214 -16 
Q 841 59 441 206 
L 441 856 
Q 825 641 1194 531 
Q 1563 422 1919 422 
Q 2459 422 2753 634 
Q 3047 847 3047 1241 
Q 3047 1584 2836 1778 
Q 2625 1972 2144 2069 
L 1759 2144 
Q 1053 2284 737 2584 
Q 422 2884 422 3419 
Q 422 4038 858 4394 
Q 1294 4750 2059 4750 
Q 2388 4750 2728 4690 
Q 3069 4631 3425 4513 
z
" id="DejaVuSans-53" transform="scale(0.015625)"/>
      <path d="M 628 4666 
L 3309 4666 
L 3309 4134 
L 1259 4134 
L 1259 2759 
L 3109 2759 
L 3109 2228 
L 1259 2228 
L 1259 0 
L 628 0 
L 628 4666 
z
" id="DejaVuSans-46" transform="scale(0.015625)"/>
      <path d="M 556 4666 
L 1191 4666 
L 1191 1831 
Q 1191 1081 1462 751 
Q 1734 422 2344 422 
Q 2950 422 3222 751 
Q 3494 1081 3494 1831 
L 3494 4666 
L 4128 4666 
L 4128 1753 
Q 4128 841 3676 375 
Q 3225 -91 2344 -91 
Q 1459 -91 1007 375 
Q 556 841 556 1753 
L 556 4666 
z
" id="DejaVuSans-55" transform="scale(0.015625)"/>
      <path d="M 628 4666 
L 1478 4666 
L 3547 763 
L 3547 4666 
L 4159 4666 
L 4159 0 
L 3309 0 
L 1241 3903 
L 1241 0 
L 628 0 
L 628 4666 
z
" id="DejaVuSans-4e" transform="scale(0.015625)"/>
      <path d="M 1259 4147 
L 1259 519 
L 2022 519 
Q 2988 519 3436 956 
Q 3884 1394 3884 2338 
Q 3884 3275 3436 3711 
Q 2988 4147 2022 4147 
L 1259 4147 
z
M 628 4666 
L 1925 4666 
Q 3281 4666 3915 4102 
Q 4550 3538 4550 2338 
Q 4550 1131 3912 565 
Q 3275 0 1925 0 
L 628 0 
L 628 4666 
z
" id="DejaVuSans-44" transform="scale(0.015625)"/>
     </defs>
     <use xlink:href="#DejaVuSans-54"/>
     <use x="61.083984" xlink:href="#DejaVuSans-45"/>
     <use x="124.267578" xlink:href="#DejaVuSans-53"/>
     <use x="187.744141" xlink:href="#DejaVuSans-54"/>
     <use x="248.828125" xlink:href="#DejaVuSans-46"/>
     <use x="306.347656" xlink:href="#DejaVuSans-55"/>
     <use x="379.541016" xlink:href="#DejaVuSans-4e"/>
     <use x="454.345703" xlink:href="#DejaVuSans-44"/>
     <use x="531.347656" xlink:href="#DejaVuSans-53"/>
     <use x="594.824219" xlink:href="#DejaVuSans-31"/>
     <use x="658.447266" xlink:href="#DejaVuSans-33"/>
     <use x="722.070312" xlink:href="#DejaVuSans-33"/>
     <use x="785.693359" xlink:href="#DejaVuSans-30"/>
    </g>
    <!-- daily_report -->
    <g transform="translate(200.466563 35.472)scale(0.12 -0.12)">
     <defs>
      <path d="M 603 3500 
L 1178 3500 
L 1178 0 
L 603 0 
L 603 3500 
z
M 603 4863 
L 1178 4863 
L 1178 4134 
L 603 4134 
L 603 4863 
z
" id="DejaVuSans-69" transform="scale(0.015625)"/>
      <path d="M 603 4863 
L 1178 4863 
L 1178 0 
L 603 0 
L 603 4863 
z
" id="DejaVuSans-6c" transform="scale(0.015625)"/>
      <path d="M 2059 -325 
Q 1816 -950 1584 -1140 
Q 1353 -1331 966 -1331 
L 506 -1331 
L 506 -850 
L 844 -850 
Q 1081 -850 1212 -737 
Q 1344 -625 1503 -206 
L 1606 56 
L 191 3500 
L 800 3500 
L 1894 763 
L 2988 3500 
L 3597 3500 
L 2059 -325 
z
" id="DejaVuSans-79" transform="scale(0.015625)"/>
      <path d="M 3263 -1063 
L 3263 -1509 
L -63 -1509 
L -63 -1063 
L 3263 -1063 
z
" id="DejaVuSans-5f" transform="scale(0.015625)"/>
      <path d="M 2631 2963 
Q 2534 3019 2420 3045 
Q 2306 3072 2169 3072 
Q 1681 3072 1420 2755 
Q 1159 2438 1159 1844 
L 1159 0 
L 581 0 
L 581 3500 
L 1159 3500 
L 1159 2956 
Q 1341 3275 1631 3429 
Q 1922 3584 2338 3584 
Q 2397 3584 2469 3576 
Q 2541 3569 2628 3553 
L 2631 2963 
z
" id="DejaVuSans-72" transform="scale(0.015625)"/>
      <path d="M 1159 525 
L 1159 -1331 
L 581 -1331 
L 581 3500 
L 1159 3500 
L 1159 2969 
Q 1341 3281 1617 3432 
Q 1894 3584 2278 3584 
Q 2916 3584 3314 3078 
Q 3713 2572 3713 1747 
Q 3713 922 3314 415 
Q 2916 -91 2278 -91 
Q 1894 -91 1617 61 
Q 1341 213 1159 525 
z
M 3116 1747 
Q 3116 2381 2855 2742 
Q 2594 3103 2138 3103 
Q 1681 3103 1420 2742 
Q 1159 2381 1159 1747 
Q 1159 1113 1420 752 
Q 1681 391 2138 391 
Q 2594 391 2855 752 
Q 3116 1113 3116 1747 
z
" id="DejaVuSans-70" transform="scale(0.015625)"/>
      <path d="M 1959 3097 
Q 1497 3097 1228 2736 
Q 959 2375 959 1747 
Q 959 1119 1226 758 
Q 1494 397 1959 397 
Q 2419 397 2687 759 
Q 2956 1122 2956 1747 
Q 2956 2369 2687 2733 
Q 2419 3097 1959 3097 
z
M 1959 3584 
Q 2709 3584 3137 3096 
Q 3566 2609 3566 1747 
Q 3566 888 3137 398 
Q 2709 -91 1959 -91 
Q 1206 -91 779 398 
Q 353 888 353 1747 
Q 353 2609 779 3096 
Q 1206 3584 1959 3584 
z
" id="DejaVuSans-6f" transform="scale(0.015625)"/>
     </defs>
     <use xlink:href="#DejaVuSans-64"/>
     <use x="63.476562" xlink:href="#DejaVuSans-61"/>
     <use x="124.755859" xlink:href="#DejaVuSans-69"/>
     <use x="152.539062" xlink:href="#DejaVuSans-6c"/>
     <use x="180.322266" xlink:href="#DejaVuSans-79"/>
     <use x="239.501953" xlink:href="#DejaVuSans-5f"/>
     <use x="289.501953" xlink:href="#DejaVuSans-72"/>
     <use x="328.365234" xlink:href="#DejaVuSans-65"/>
     <use x="389.888672" xlink:href="#DejaVuSans-70"/>
     <use x="453.365234" xlink:href="#DejaVuSans-6f"/>
     <use x="514.546875" xlink:href="#DejaVuSans-72"/>
     <use x="555.660156" xlink:href="#DejaVuSans-74"/>
    </g>
   </g>
   <g id="legend_1">
    <g id="patch_7">
     <path d="M 64.6 122.862625 
L 155.792188 122.862625 
Q 157.792188 122.862625 157.792188 120.862625 
L 157.792188 48.472 
Q 157.792188 46.472 155.792188 46.472 
L 64.6 46.472 
Q 62.6 46.472 62.6 48.472 
L 62.6 120.862625 
Q 62.6 122.862625 64.6 122.862625 
z
" style="fill:#ffffff;opacity:0.8;stroke:#cccccc;stroke-linejoin:miter;"/>
    </g>
    <g id="line2d_22">
     <path d="M 66.6 54.570437 
L 86.6 54.570437 
" style="fill:none;stroke:#0000ff;stroke-linecap:square;stroke-opacity:0.9;stroke-width:2;"/>
    </g>
    <g id="line2d_23"/>
    <g id="text_19">
     <!-- alpaca -->
     <g transform="translate(94.6 58.070437)scale(0.1 -0.1)">
      <defs>
       <path d="M 3122 3366 
L 3122 2828 
Q 2878 2963 2633 3030 
Q 2388 3097 2138 3097 
Q 1578 3097 1268 2742 
Q 959 2388 959 1747 
Q 959 1106 1268 751 
Q 1578 397 2138 397 
Q 2388 397 2633 464 
Q 2878 531 3122 666 
L 3122 134 
Q 2881 22 2623 -34 
Q 2366 -91 2075 -91 
Q 1284 -91 818 406 
Q 353 903 353 1747 
Q 353 2603 823 3093 
Q 1294 3584 2113 3584 
Q 2378 3584 2631 3529 
Q 2884 3475 3122 3366 
z
" id="DejaVuSans-63" transform="scale(0.015625)"/>
      </defs>
      <use xlink:href="#DejaVuSans-61"/>
      <use x="61.279297" xlink:href="#DejaVuSans-6c"/>
      <use x="89.0625" xlink:href="#DejaVuSans-70"/>
      <use x="152.539062" xlink:href="#DejaVuSans-61"/>
      <use x="213.818359" xlink:href="#DejaVuSans-63"/>
      <use x="268.798828" xlink:href="#DejaVuSans-61"/>
     </g>
    </g>
    <g id="line2d_24">
     <path d="M 66.6 69.248562 
L 86.6 69.248562 
" style="fill:none;stroke:#ff0000;stroke-linecap:square;stroke-opacity:0.9;stroke-width:2;"/>
    </g>
    <g id="line2d_25"/>
    <g id="text_20">
     <!-- mattress -->
     <g transform="translate(94.6 72.748562)scale(0.1 -0.1)">
      <defs>
       <path d="M 3328 2828 
Q 3544 3216 3844 3400 
Q 4144 3584 4550 3584 
Q 5097 3584 5394 3201 
Q 5691 2819 5691 2113 
L 5691 0 
L 5113 0 
L 5113 2094 
Q 5113 2597 4934 2840 
Q 4756 3084 4391 3084 
Q 3944 3084 3684 2787 
Q 3425 2491 3425 1978 
L 3425 0 
L 2847 0 
L 2847 2094 
Q 2847 2600 2669 2842 
Q 2491 3084 2119 3084 
Q 1678 3084 1418 2786 
Q 1159 2488 1159 1978 
L 1159 0 
L 581 0 
L 581 3500 
L 1159 3500 
L 1159 2956 
Q 1356 3278 1631 3431 
Q 1906 3584 2284 3584 
Q 2666 3584 2933 3390 
Q 3200 3197 3328 2828 
z
" id="DejaVuSans-6d" transform="scale(0.015625)"/>
       <path d="M 2834 3397 
L 2834 2853 
Q 2591 2978 2328 3040 
Q 2066 3103 1784 3103 
Q 1356 3103 1142 2972 
Q 928 2841 928 2578 
Q 928 2378 1081 2264 
Q 1234 2150 1697 2047 
L 1894 2003 
Q 2506 1872 2764 1633 
Q 3022 1394 3022 966 
Q 3022 478 2636 193 
Q 2250 -91 1575 -91 
Q 1294 -91 989 -36 
Q 684 19 347 128 
L 347 722 
Q 666 556 975 473 
Q 1284 391 1588 391 
Q 1994 391 2212 530 
Q 2431 669 2431 922 
Q 2431 1156 2273 1281 
Q 2116 1406 1581 1522 
L 1381 1569 
Q 847 1681 609 1914 
Q 372 2147 372 2553 
Q 372 3047 722 3315 
Q 1072 3584 1716 3584 
Q 2034 3584 2315 3537 
Q 2597 3491 2834 3397 
z
" id="DejaVuSans-73" transform="scale(0.015625)"/>
      </defs>
      <use xlink:href="#DejaVuSans-6d"/>
      <use x="97.412109" xlink:href="#DejaVuSans-61"/>
      <use x="158.691406" xlink:href="#DejaVuSans-74"/>
      <use x="197.900391" xlink:href="#DejaVuSans-74"/>
      <use x="237.109375" xlink:href="#DejaVuSans-72"/>
      <use x="275.972656" xlink:href="#DejaVuSans-65"/>
      <use x="337.496094" xlink:href="#DejaVuSans-73"/>
      <use x="389.595703" xlink:href="#DejaVuSans-73"/>
     </g>
    </g>
    <g id="line2d_26">
     <path d="M 66.6 83.926687 
L 86.6 83.926687 
" style="fill:none;stroke:#ff8040;stroke-linecap:square;stroke-opacity:0.9;stroke-width:2;"/>
    </g>
    <g id="line2d_27"/>
    <g id="text_21">
     <!-- trader-0850 -->
     <g transform="translate(94.6 87.426687)scale(0.1 -0.1)">
      <use xlink:href="#DejaVuSans-74"/>
      <use x="39.208984" xlink:href="#DejaVuSans-72"/>
      <use x="80.322266" xlink:href="#DejaVuSans-61"/>
      <use x="141.601562" xlink:href="#DejaVuSans-64"/>
      <use x="205.078125" xlink:href="#DejaVuSans-65"/>
      <use x="266.601562" xlink:href="#DejaVuSans-72"/>
      <use x="301.339844" xlink:href="#DejaVuSans-2d"/>
      <use x="337.423828" xlink:href="#DejaVuSans-30"/>
      <use x="401.046875" xlink:href="#DejaVuSans-38"/>
      <use x="464.669922" xlink:href="#DejaVuSans-35"/>
      <use x="528.292969" xlink:href="#DejaVuSans-30"/>
     </g>
    </g>
    <g id="line2d_28">
     <path d="M 66.6 98.604812 
L 86.6 98.604812 
" style="fill:none;stroke:#0d0d0d;stroke-linecap:square;stroke-opacity:0.25;stroke-width:2;"/>
    </g>
    <g id="line2d_29"/>
    <g id="text_22">
     <!-- rando-min -->
     <g transform="translate(94.6 102.104812)scale(0.1 -0.1)">
      <defs>
       <path d="M 3513 2113 
L 3513 0 
L 2938 0 
L 2938 2094 
Q 2938 2591 2744 2837 
Q 2550 3084 2163 3084 
Q 1697 3084 1428 2787 
Q 1159 2491 1159 1978 
L 1159 0 
L 581 0 
L 581 3500 
L 1159 3500 
L 1159 2956 
Q 1366 3272 1645 3428 
Q 1925 3584 2291 3584 
Q 2894 3584 3203 3211 
Q 3513 2838 3513 2113 
z
" id="DejaVuSans-6e" transform="scale(0.015625)"/>
      </defs>
      <use xlink:href="#DejaVuSans-72"/>
      <use x="41.113281" xlink:href="#DejaVuSans-61"/>
      <use x="102.392578" xlink:href="#DejaVuSans-6e"/>
      <use x="165.771484" xlink:href="#DejaVuSans-64"/>
      <use x="229.248047" xlink:href="#DejaVuSans-6f"/>
      <use x="292.304688" xlink:href="#DejaVuSans-2d"/>
      <use x="328.388672" xlink:href="#DejaVuSans-6d"/>
      <use x="425.800781" xlink:href="#DejaVuSans-69"/>
      <use x="453.583984" xlink:href="#DejaVuSans-6e"/>
     </g>
    </g>
    <g id="line2d_30">
     <path d="M 66.6 113.282937 
L 86.6 113.282937 
" style="fill:none;stroke:#0d0d0d;stroke-linecap:square;stroke-opacity:0.25;stroke-width:2;"/>
    </g>
    <g id="line2d_31"/>
    <g id="text_23">
     <!-- rando-max -->
     <g transform="translate(94.6 116.782937)scale(0.1 -0.1)">
      <defs>
       <path d="M 3513 3500 
L 2247 1797 
L 3578 0 
L 2900 0 
L 1881 1375 
L 863 0 
L 184 0 
L 1544 1831 
L 300 3500 
L 978 3500 
L 1906 2253 
L 2834 3500 
L 3513 3500 
z
" id="DejaVuSans-78" transform="scale(0.015625)"/>
      </defs>
      <use xlink:href="#DejaVuSans-72"/>
      <use x="41.113281" xlink:href="#DejaVuSans-61"/>
      <use x="102.392578" xlink:href="#DejaVuSans-6e"/>
      <use x="165.771484" xlink:href="#DejaVuSans-64"/>
      <use x="229.248047" xlink:href="#DejaVuSans-6f"/>
      <use x="292.304688" xlink:href="#DejaVuSans-2d"/>
      <use x="328.388672" xlink:href="#DejaVuSans-6d"/>
      <use x="425.800781" xlink:href="#DejaVuSans-61"/>
      <use x="487.080078" xlink:href="#DejaVuSans-78"/>
     </g>
    </g>
   </g>
  </g>
 </g>
 <defs>
  <clipPath id="p4adf849333">
   <rect height="235.008" width="357.12" x="57.6" y="41.472"/>
  </clipPath>
 </defs>
</svg>
