<?xml version="1.0" encoding="utf-8" standalone="no"?>
<!DOCTYPE svg PUBLIC "-//W3C//DTD SVG 1.1//EN"
  "http://www.w3.org/Graphics/SVG/1.1/DTD/svg11.dtd">
<svg height="345.6pt" version="1.1" viewBox="0 0 460.8 345.6" width="460.8pt" xmlns="http://www.w3.org/2000/svg" xmlns:xlink="http://www.w3.org/1999/xlink">
 <metadata>
  <rdf:RDF xmlns:cc="http://creativecommons.org/ns#" xmlns:dc="http://purl.org/dc/elements/1.1/" xmlns:rdf="http://www.w3.org/1999/02/22-rdf-syntax-ns#">
   <cc:Work>
    <dc:type rdf:resource="http://purl.org/dc/dcmitype/StillImage"/>
    <dc:date>2022-03-10T01:02:26.969245</dc:date>
    <dc:format>image/svg+xml</dc:format>
    <dc:creator>
     <cc:Agent>
      <dc:title>Matplotlib v3.4.3, https://matplotlib.org/</dc:title>
     </cc:Agent>
    </dc:creator>
   </cc:Work>
  </rdf:RDF>
 </metadata>
 <defs>
  <style type="text/css">*{stroke-linecap:butt;stroke-linejoin:round;}</style>
 </defs>
 <g id="figure_1">
  <g id="patch_1">
   <path d="M 0 345.6 
L 460.8 345.6 
L 460.8 0 
L 0 0 
z
" style="fill:#ffffff;"/>
  </g>
  <g id="axes_1">
   <g id="patch_2">
    <path d="M 57.6 276.48 
L 414.72 276.48 
L 414.72 41.472 
L 57.6 41.472 
z
" style="fill:#ffffff;"/>
   </g>
   <g id="matplotlib.axis_1">
    <g id="xtick_1">
     <g id="line2d_1">
      <defs>
       <path d="M 0 0 
L 0 3.5 
" id="m3c9255331c" style="stroke:#000000;stroke-width:0.8;"/>
      </defs>
      <g>
       <use style="stroke:#000000;stroke-width:0.8;" x="88.589752" xlink:href="#m3c9255331c" y="276.48"/>
      </g>
     </g>
     <g id="text_1">
      <!-- 2021-09 -->
      <g transform="translate(51.364931 310.951846)rotate(-30)scale(0.1 -0.1)">
       <defs>
        <path d="M 1228 531 
L 3431 531 
L 3431 0 
L 469 0 
L 469 531 
Q 828 903 1448 1529 
Q 2069 2156 2228 2338 
Q 2531 2678 2651 2914 
Q 2772 3150 2772 3378 
Q 2772 3750 2511 3984 
Q 2250 4219 1831 4219 
Q 1534 4219 1204 4116 
Q 875 4013 500 3803 
L 500 4441 
Q 881 4594 1212 4672 
Q 1544 4750 1819 4750 
Q 2544 4750 2975 4387 
Q 3406 4025 3406 3419 
Q 3406 3131 3298 2873 
Q 3191 2616 2906 2266 
Q 2828 2175 2409 1742 
Q 1991 1309 1228 531 
z
" id="DejaVuSans-32" transform="scale(0.015625)"/>
        <path d="M 2034 4250 
Q 1547 4250 1301 3770 
Q 1056 3291 1056 2328 
Q 1056 1369 1301 889 
Q 1547 409 2034 409 
Q 2525 409 2770 889 
Q 3016 1369 3016 2328 
Q 3016 3291 2770 3770 
Q 2525 4250 2034 4250 
z
M 2034 4750 
Q 2819 4750 3233 4129 
Q 3647 3509 3647 2328 
Q 3647 1150 3233 529 
Q 2819 -91 2034 -91 
Q 1250 -91 836 529 
Q 422 1150 422 2328 
Q 422 3509 836 4129 
Q 1250 4750 2034 4750 
z
" id="DejaVuSans-30" transform="scale(0.015625)"/>
        <path d="M 794 531 
L 1825 531 
L 1825 4091 
L 703 3866 
L 703 4441 
L 1819 4666 
L 2450 4666 
L 2450 531 
L 3481 531 
L 3481 0 
L 794 0 
L 794 531 
z
" id="DejaVuSans-31" transform="scale(0.015625)"/>
        <path d="M 313 2009 
L 1997 2009 
L 1997 1497 
L 313 1497 
L 313 2009 
z
" id="DejaVuSans-2d" transform="scale(0.015625)"/>
        <path d="M 703 97 
L 703 672 
Q 941 559 1184 500 
Q 1428 441 1663 441 
Q 2288 441 2617 861 
Q 2947 1281 2994 2138 
Q 2813 1869 2534 1725 
Q 2256 1581 1919 1581 
Q 1219 1581 811 2004 
Q 403 2428 403 3163 
Q 403 3881 828 4315 
Q 1253 4750 1959 4750 
Q 2769 4750 3195 4129 
Q 3622 3509 3622 2328 
Q 3622 1225 3098 567 
Q 2575 -91 1691 -91 
Q 1453 -91 1209 -44 
Q 966 3 703 97 
z
M 1959 2075 
Q 2384 2075 2632 2365 
Q 2881 2656 2881 3163 
Q 2881 3666 2632 3958 
Q 2384 4250 1959 4250 
Q 1534 4250 1286 3958 
Q 1038 3666 1038 3163 
Q 1038 2656 1286 2365 
Q 1534 2075 1959 2075 
z
" id="DejaVuSans-39" transform="scale(0.015625)"/>
       </defs>
       <use xlink:href="#DejaVuSans-32"/>
       <use x="63.623047" xlink:href="#DejaVuSans-30"/>
       <use x="127.246094" xlink:href="#DejaVuSans-32"/>
       <use x="190.869141" xlink:href="#DejaVuSans-31"/>
       <use x="254.492188" xlink:href="#DejaVuSans-2d"/>
       <use x="290.576172" xlink:href="#DejaVuSans-30"/>
       <use x="354.199219" xlink:href="#DejaVuSans-39"/>
      </g>
     </g>
    </g>
    <g id="xtick_2">
     <g id="line2d_2">
      <g>
       <use style="stroke:#000000;stroke-width:0.8;" x="137.779835" xlink:href="#m3c9255331c" y="276.48"/>
      </g>
     </g>
     <g id="text_2">
      <!-- 2021-10 -->
      <g transform="translate(100.555014 310.951846)rotate(-30)scale(0.1 -0.1)">
       <use xlink:href="#DejaVuSans-32"/>
       <use x="63.623047" xlink:href="#DejaVuSans-30"/>
       <use x="127.246094" xlink:href="#DejaVuSans-32"/>
       <use x="190.869141" xlink:href="#DejaVuSans-31"/>
       <use x="254.492188" xlink:href="#DejaVuSans-2d"/>
       <use x="290.576172" xlink:href="#DejaVuSans-31"/>
       <use x="354.199219" xlink:href="#DejaVuSans-30"/>
      </g>
     </g>
    </g>
    <g id="xtick_3">
     <g id="line2d_3">
      <g>
       <use style="stroke:#000000;stroke-width:0.8;" x="188.609587" xlink:href="#m3c9255331c" y="276.48"/>
      </g>
     </g>
     <g id="text_3">
      <!-- 2021-11 -->
      <g transform="translate(151.384766 310.951846)rotate(-30)scale(0.1 -0.1)">
       <use xlink:href="#DejaVuSans-32"/>
       <use x="63.623047" xlink:href="#DejaVuSans-30"/>
       <use x="127.246094" xlink:href="#DejaVuSans-32"/>
       <use x="190.869141" xlink:href="#DejaVuSans-31"/>
       <use x="254.492188" xlink:href="#DejaVuSans-2d"/>
       <use x="290.576172" xlink:href="#DejaVuSans-31"/>
       <use x="354.199219" xlink:href="#DejaVuSans-31"/>
      </g>
     </g>
    </g>
    <g id="xtick_4">
     <g id="line2d_4">
      <g>
       <use style="stroke:#000000;stroke-width:0.8;" x="237.799669" xlink:href="#m3c9255331c" y="276.48"/>
      </g>
     </g>
     <g id="text_4">
      <!-- 2021-12 -->
      <g transform="translate(200.574849 310.951846)rotate(-30)scale(0.1 -0.1)">
       <use xlink:href="#DejaVuSans-32"/>
       <use x="63.623047" xlink:href="#DejaVuSans-30"/>
       <use x="127.246094" xlink:href="#DejaVuSans-32"/>
       <use x="190.869141" xlink:href="#DejaVuSans-31"/>
       <use x="254.492188" xlink:href="#DejaVuSans-2d"/>
       <use x="290.576172" xlink:href="#DejaVuSans-31"/>
       <use x="354.199219" xlink:href="#DejaVuSans-32"/>
      </g>
     </g>
    </g>
    <g id="xtick_5">
     <g id="line2d_5">
      <g>
       <use style="stroke:#000000;stroke-width:0.8;" x="288.629421" xlink:href="#m3c9255331c" y="276.48"/>
      </g>
     </g>
     <g id="text_5">
      <!-- 2022-01 -->
      <g transform="translate(251.404601 310.951846)rotate(-30)scale(0.1 -0.1)">
       <use xlink:href="#DejaVuSans-32"/>
       <use x="63.623047" xlink:href="#DejaVuSans-30"/>
       <use x="127.246094" xlink:href="#DejaVuSans-32"/>
       <use x="190.869141" xlink:href="#DejaVuSans-32"/>
       <use x="254.492188" xlink:href="#DejaVuSans-2d"/>
       <use x="290.576172" xlink:href="#DejaVuSans-30"/>
       <use x="354.199219" xlink:href="#DejaVuSans-31"/>
      </g>
     </g>
    </g>
    <g id="xtick_6">
     <g id="line2d_6">
      <g>
       <use style="stroke:#000000;stroke-width:0.8;" x="339.459174" xlink:href="#m3c9255331c" y="276.48"/>
      </g>
     </g>
     <g id="text_6">
      <!-- 2022-02 -->
      <g transform="translate(302.234353 310.951846)rotate(-30)scale(0.1 -0.1)">
       <use xlink:href="#DejaVuSans-32"/>
       <use x="63.623047" xlink:href="#DejaVuSans-30"/>
       <use x="127.246094" xlink:href="#DejaVuSans-32"/>
       <use x="190.869141" xlink:href="#DejaVuSans-32"/>
       <use x="254.492188" xlink:href="#DejaVuSans-2d"/>
       <use x="290.576172" xlink:href="#DejaVuSans-30"/>
       <use x="354.199219" xlink:href="#DejaVuSans-32"/>
      </g>
     </g>
    </g>
    <g id="xtick_7">
     <g id="line2d_7">
      <g>
       <use style="stroke:#000000;stroke-width:0.8;" x="385.369917" xlink:href="#m3c9255331c" y="276.48"/>
      </g>
     </g>
     <g id="text_7">
      <!-- 2022-03 -->
      <g transform="translate(348.145097 310.951846)rotate(-30)scale(0.1 -0.1)">
       <defs>
        <path d="M 2597 2516 
Q 3050 2419 3304 2112 
Q 3559 1806 3559 1356 
Q 3559 666 3084 287 
Q 2609 -91 1734 -91 
Q 1441 -91 1130 -33 
Q 819 25 488 141 
L 488 750 
Q 750 597 1062 519 
Q 1375 441 1716 441 
Q 2309 441 2620 675 
Q 2931 909 2931 1356 
Q 2931 1769 2642 2001 
Q 2353 2234 1838 2234 
L 1294 2234 
L 1294 2753 
L 1863 2753 
Q 2328 2753 2575 2939 
Q 2822 3125 2822 3475 
Q 2822 3834 2567 4026 
Q 2313 4219 1838 4219 
Q 1578 4219 1281 4162 
Q 984 4106 628 3988 
L 628 4550 
Q 988 4650 1302 4700 
Q 1616 4750 1894 4750 
Q 2613 4750 3031 4423 
Q 3450 4097 3450 3541 
Q 3450 3153 3228 2886 
Q 3006 2619 2597 2516 
z
" id="DejaVuSans-33" transform="scale(0.015625)"/>
       </defs>
       <use xlink:href="#DejaVuSans-32"/>
       <use x="63.623047" xlink:href="#DejaVuSans-30"/>
       <use x="127.246094" xlink:href="#DejaVuSans-32"/>
       <use x="190.869141" xlink:href="#DejaVuSans-32"/>
       <use x="254.492188" xlink:href="#DejaVuSans-2d"/>
       <use x="290.576172" xlink:href="#DejaVuSans-30"/>
       <use x="354.199219" xlink:href="#DejaVuSans-33"/>
      </g>
     </g>
    </g>
    <g id="text_8">
     <!-- date -->
     <g transform="translate(224.885 324.351346)scale(0.1 -0.1)">
      <defs>
       <path d="M 2906 2969 
L 2906 4863 
L 3481 4863 
L 3481 0 
L 2906 0 
L 2906 525 
Q 2725 213 2448 61 
Q 2172 -91 1784 -91 
Q 1150 -91 751 415 
Q 353 922 353 1747 
Q 353 2572 751 3078 
Q 1150 3584 1784 3584 
Q 2172 3584 2448 3432 
Q 2725 3281 2906 2969 
z
M 947 1747 
Q 947 1113 1208 752 
Q 1469 391 1925 391 
Q 2381 391 2643 752 
Q 2906 1113 2906 1747 
Q 2906 2381 2643 2742 
Q 2381 3103 1925 3103 
Q 1469 3103 1208 2742 
Q 947 2381 947 1747 
z
" id="DejaVuSans-64" transform="scale(0.015625)"/>
       <path d="M 2194 1759 
Q 1497 1759 1228 1600 
Q 959 1441 959 1056 
Q 959 750 1161 570 
Q 1363 391 1709 391 
Q 2188 391 2477 730 
Q 2766 1069 2766 1631 
L 2766 1759 
L 2194 1759 
z
M 3341 1997 
L 3341 0 
L 2766 0 
L 2766 531 
Q 2569 213 2275 61 
Q 1981 -91 1556 -91 
Q 1019 -91 701 211 
Q 384 513 384 1019 
Q 384 1609 779 1909 
Q 1175 2209 1959 2209 
L 2766 2209 
L 2766 2266 
Q 2766 2663 2505 2880 
Q 2244 3097 1772 3097 
Q 1472 3097 1187 3025 
Q 903 2953 641 2809 
L 641 3341 
Q 956 3463 1253 3523 
Q 1550 3584 1831 3584 
Q 2591 3584 2966 3190 
Q 3341 2797 3341 1997 
z
" id="DejaVuSans-61" transform="scale(0.015625)"/>
       <path d="M 1172 4494 
L 1172 3500 
L 2356 3500 
L 2356 3053 
L 1172 3053 
L 1172 1153 
Q 1172 725 1289 603 
Q 1406 481 1766 481 
L 2356 481 
L 2356 0 
L 1766 0 
Q 1100 0 847 248 
Q 594 497 594 1153 
L 594 3053 
L 172 3053 
L 172 3500 
L 594 3500 
L 594 4494 
L 1172 4494 
z
" id="DejaVuSans-74" transform="scale(0.015625)"/>
       <path d="M 3597 1894 
L 3597 1613 
L 953 1613 
Q 991 1019 1311 708 
Q 1631 397 2203 397 
Q 2534 397 2845 478 
Q 3156 559 3463 722 
L 3463 178 
Q 3153 47 2828 -22 
Q 2503 -91 2169 -91 
Q 1331 -91 842 396 
Q 353 884 353 1716 
Q 353 2575 817 3079 
Q 1281 3584 2069 3584 
Q 2775 3584 3186 3129 
Q 3597 2675 3597 1894 
z
M 3022 2063 
Q 3016 2534 2758 2815 
Q 2500 3097 2075 3097 
Q 1594 3097 1305 2825 
Q 1016 2553 972 2059 
L 3022 2063 
z
" id="DejaVuSans-65" transform="scale(0.015625)"/>
      </defs>
      <use xlink:href="#DejaVuSans-64"/>
      <use x="63.476562" xlink:href="#DejaVuSans-61"/>
      <use x="124.755859" xlink:href="#DejaVuSans-74"/>
      <use x="163.964844" xlink:href="#DejaVuSans-65"/>
     </g>
    </g>
   </g>
   <g id="matplotlib.axis_2">
    <g id="ytick_1">
     <g id="line2d_8">
      <defs>
       <path d="M 0 0 
L -3.5 0 
" id="me2c7fc8642" style="stroke:#000000;stroke-width:0.8;"/>
      </defs>
      <g>
       <use style="stroke:#000000;stroke-width:0.8;" x="57.6" xlink:href="#me2c7fc8642" y="247.805924"/>
      </g>
     </g>
     <g id="text_9">
      <!-- 85000 -->
      <g transform="translate(18.7875 251.605143)scale(0.1 -0.1)">
       <defs>
        <path d="M 2034 2216 
Q 1584 2216 1326 1975 
Q 1069 1734 1069 1313 
Q 1069 891 1326 650 
Q 1584 409 2034 409 
Q 2484 409 2743 651 
Q 3003 894 3003 1313 
Q 3003 1734 2745 1975 
Q 2488 2216 2034 2216 
z
M 1403 2484 
Q 997 2584 770 2862 
Q 544 3141 544 3541 
Q 544 4100 942 4425 
Q 1341 4750 2034 4750 
Q 2731 4750 3128 4425 
Q 3525 4100 3525 3541 
Q 3525 3141 3298 2862 
Q 3072 2584 2669 2484 
Q 3125 2378 3379 2068 
Q 3634 1759 3634 1313 
Q 3634 634 3220 271 
Q 2806 -91 2034 -91 
Q 1263 -91 848 271 
Q 434 634 434 1313 
Q 434 1759 690 2068 
Q 947 2378 1403 2484 
z
M 1172 3481 
Q 1172 3119 1398 2916 
Q 1625 2713 2034 2713 
Q 2441 2713 2670 2916 
Q 2900 3119 2900 3481 
Q 2900 3844 2670 4047 
Q 2441 4250 2034 4250 
Q 1625 4250 1398 4047 
Q 1172 3844 1172 3481 
z
" id="DejaVuSans-38" transform="scale(0.015625)"/>
        <path d="M 691 4666 
L 3169 4666 
L 3169 4134 
L 1269 4134 
L 1269 2991 
Q 1406 3038 1543 3061 
Q 1681 3084 1819 3084 
Q 2600 3084 3056 2656 
Q 3513 2228 3513 1497 
Q 3513 744 3044 326 
Q 2575 -91 1722 -91 
Q 1428 -91 1123 -41 
Q 819 9 494 109 
L 494 744 
Q 775 591 1075 516 
Q 1375 441 1709 441 
Q 2250 441 2565 725 
Q 2881 1009 2881 1497 
Q 2881 1984 2565 2268 
Q 2250 2553 1709 2553 
Q 1456 2553 1204 2497 
Q 953 2441 691 2322 
L 691 4666 
z
" id="DejaVuSans-35" transform="scale(0.015625)"/>
       </defs>
       <use xlink:href="#DejaVuSans-38"/>
       <use x="63.623047" xlink:href="#DejaVuSans-35"/>
       <use x="127.246094" xlink:href="#DejaVuSans-30"/>
       <use x="190.869141" xlink:href="#DejaVuSans-30"/>
       <use x="254.492188" xlink:href="#DejaVuSans-30"/>
      </g>
     </g>
    </g>
    <g id="ytick_2">
     <g id="line2d_9">
      <g>
       <use style="stroke:#000000;stroke-width:0.8;" x="57.6" xlink:href="#me2c7fc8642" y="215.930178"/>
      </g>
     </g>
     <g id="text_10">
      <!-- 90000 -->
      <g transform="translate(18.7875 219.729397)scale(0.1 -0.1)">
       <use xlink:href="#DejaVuSans-39"/>
       <use x="63.623047" xlink:href="#DejaVuSans-30"/>
       <use x="127.246094" xlink:href="#DejaVuSans-30"/>
       <use x="190.869141" xlink:href="#DejaVuSans-30"/>
       <use x="254.492188" xlink:href="#DejaVuSans-30"/>
      </g>
     </g>
    </g>
    <g id="ytick_3">
     <g id="line2d_10">
      <g>
       <use style="stroke:#000000;stroke-width:0.8;" x="57.6" xlink:href="#me2c7fc8642" y="184.054432"/>
      </g>
     </g>
     <g id="text_11">
      <!-- 95000 -->
      <g transform="translate(18.7875 187.85365)scale(0.1 -0.1)">
       <use xlink:href="#DejaVuSans-39"/>
       <use x="63.623047" xlink:href="#DejaVuSans-35"/>
       <use x="127.246094" xlink:href="#DejaVuSans-30"/>
       <use x="190.869141" xlink:href="#DejaVuSans-30"/>
       <use x="254.492188" xlink:href="#DejaVuSans-30"/>
      </g>
     </g>
    </g>
    <g id="ytick_4">
     <g id="line2d_11">
      <g>
       <use style="stroke:#000000;stroke-width:0.8;" x="57.6" xlink:href="#me2c7fc8642" y="152.178686"/>
      </g>
     </g>
     <g id="text_12">
      <!-- 100000 -->
      <g transform="translate(12.425 155.977904)scale(0.1 -0.1)">
       <use xlink:href="#DejaVuSans-31"/>
       <use x="63.623047" xlink:href="#DejaVuSans-30"/>
       <use x="127.246094" xlink:href="#DejaVuSans-30"/>
       <use x="190.869141" xlink:href="#DejaVuSans-30"/>
       <use x="254.492188" xlink:href="#DejaVuSans-30"/>
       <use x="318.115234" xlink:href="#DejaVuSans-30"/>
      </g>
     </g>
    </g>
    <g id="ytick_5">
     <g id="line2d_12">
      <g>
       <use style="stroke:#000000;stroke-width:0.8;" x="57.6" xlink:href="#me2c7fc8642" y="120.302939"/>
      </g>
     </g>
     <g id="text_13">
      <!-- 105000 -->
      <g transform="translate(12.425 124.102158)scale(0.1 -0.1)">
       <use xlink:href="#DejaVuSans-31"/>
       <use x="63.623047" xlink:href="#DejaVuSans-30"/>
       <use x="127.246094" xlink:href="#DejaVuSans-35"/>
       <use x="190.869141" xlink:href="#DejaVuSans-30"/>
       <use x="254.492188" xlink:href="#DejaVuSans-30"/>
       <use x="318.115234" xlink:href="#DejaVuSans-30"/>
      </g>
     </g>
    </g>
    <g id="ytick_6">
     <g id="line2d_13">
      <g>
       <use style="stroke:#000000;stroke-width:0.8;" x="57.6" xlink:href="#me2c7fc8642" y="88.427193"/>
      </g>
     </g>
     <g id="text_14">
      <!-- 110000 -->
      <g transform="translate(12.425 92.226412)scale(0.1 -0.1)">
       <use xlink:href="#DejaVuSans-31"/>
       <use x="63.623047" xlink:href="#DejaVuSans-31"/>
       <use x="127.246094" xlink:href="#DejaVuSans-30"/>
       <use x="190.869141" xlink:href="#DejaVuSans-30"/>
       <use x="254.492188" xlink:href="#DejaVuSans-30"/>
       <use x="318.115234" xlink:href="#DejaVuSans-30"/>
      </g>
     </g>
    </g>
    <g id="ytick_7">
     <g id="line2d_14">
      <g>
       <use style="stroke:#000000;stroke-width:0.8;" x="57.6" xlink:href="#me2c7fc8642" y="56.551447"/>
      </g>
     </g>
     <g id="text_15">
      <!-- 115000 -->
      <g transform="translate(12.425 60.350666)scale(0.1 -0.1)">
       <use xlink:href="#DejaVuSans-31"/>
       <use x="63.623047" xlink:href="#DejaVuSans-31"/>
       <use x="127.246094" xlink:href="#DejaVuSans-35"/>
       <use x="190.869141" xlink:href="#DejaVuSans-30"/>
       <use x="254.492188" xlink:href="#DejaVuSans-30"/>
       <use x="318.115234" xlink:href="#DejaVuSans-30"/>
      </g>
     </g>
    </g>
   </g>
   <g id="line2d_15">
    <path clip-path="url(#p21414c0146)" d="M 73.832727 152.178686 
L 75.472397 152.235728 
L 77.112066 150.096704 
L 78.751736 153.513654 
L 80.391405 147.372004 
L 86.950083 142.258706 
L 88.589752 143.581494 
L 90.229421 142.92993 
L 91.869091 143.392134 
L 98.427769 143.454473 
L 100.067438 145.701455 
L 101.707107 147.450472 
L 103.346777 153.495959 
L 108.265785 148.051698 
L 109.905455 157.329153 
L 111.545124 153.039328 
L 113.184793 154.585599 
L 114.824463 161.120886 
L 119.743471 171.753582 
L 121.38314 173.762544 
L 123.02281 168.546764 
L 124.662479 158.453486 
L 126.302149 153.348139 
L 131.221157 148.894748 
L 132.860826 162.349371 
L 134.500496 159.859569 
L 136.140165 164.893745 
L 137.779835 155.283709 
L 142.698843 167.455316 
L 144.338512 157.664791 
L 145.978182 155.143733 
L 147.617851 154.778097 
L 149.257521 154.013765 
L 154.176529 153.653538 
L 155.816198 152.981612 
L 157.455868 161.20157 
L 159.095537 148.64617 
L 160.735207 147.496104 
L 165.654215 142.27463 
L 167.293884 135.973858 
L 168.933554 133.762314 
L 170.573223 144.796192 
L 172.212893 153.122043 
L 177.131901 152.409428 
L 178.77157 158.258523 
L 180.41124 159.181578 
L 182.050909 151.19855 
L 183.690579 159.820667 
L 188.609587 146.754418 
L 190.249256 146.858843 
L 191.888926 140.372621 
L 193.528595 148.129492 
L 195.168264 144.194796 
L 200.087273 143.314014 
L 201.726942 151.65628 
L 203.366612 150.943041 
L 205.006281 156.10544 
L 206.64595 151.316608 
L 211.564959 149.278803 
L 213.204628 149.450467 
L 214.844298 153.19479 
L 216.483967 154.850367 
L 218.123636 154.995523 
L 223.042645 151.017539 
L 224.682314 145.987381 
L 226.321983 146.400378 
L 229.601322 146.225291 
L 234.520331 152.174308 
L 236.16 164.70671 
L 237.799669 172.982307 
L 239.439339 165.261319 
L 241.079008 169.239592 
L 245.998017 157.664224 
L 247.637686 146.011596 
L 249.277355 140.846314 
L 250.917025 141.090065 
L 252.556694 138.76968 
L 257.475702 145.172723 
L 260.755041 137.964739 
L 262.394711 135.248951 
L 264.03438 142.933438 
L 268.953388 151.847433 
L 270.593058 136.871868 
L 272.232727 134.02501 
L 273.872397 128.316484 
L 280.431074 119.776649 
L 282.070744 120.25499 
L 283.710413 120.286221 
L 285.350083 121.431868 
L 286.989752 124.495596 
L 291.90876 113.97645 
L 293.54843 105.315495 
L 295.188099 123.206058 
L 296.827769 117.174447 
L 298.467438 114.978262 
L 303.386446 114.528661 
L 305.026116 108.59599 
L 306.665785 107.393986 
L 308.305455 115.587523 
L 309.945124 113.501936 
L 316.503802 128.21325 
L 318.143471 131.533075 
L 319.78314 139.263469 
L 321.42281 154.337356 
L 326.341818 153.096883 
L 327.981488 160.401678 
L 329.621157 160.584551 
L 331.260826 164.806118 
L 332.900496 148.758497 
L 337.819504 134.585491 
L 339.459174 128.717236 
L 341.098843 118.421654 
L 342.738512 161.53965 
L 344.378182 161.166714 
L 349.29719 172.098306 
L 350.93686 173.798354 
L 352.576529 159.760237 
L 354.216198 170.554574 
L 355.855868 184.782385 
L 360.774876 189.264102 
L 362.414545 181.71387 
L 364.054215 185.013652 
L 365.693884 196.178812 
L 367.333554 199.330582 
L 373.892231 206.00779 
L 375.531901 214.232867 
L 377.17157 201.347457 
L 378.81124 190.49588 
L 383.730248 192.324848 
L 385.369917 202.031936 
L 387.009587 189.672559 
L 388.649256 191.906708 
L 390.288926 196.061759 
L 395.207934 220.42261 
L 396.847603 220.724158 
L 398.487273 201.125482 
L 398.487273 201.125482 
" style="fill:none;stroke:#0000ff;stroke-linecap:square;stroke-opacity:0.9;stroke-width:2;"/>
   </g>
   <g id="line2d_16">
    <path clip-path="url(#p21414c0146)" d="M 73.832727 152.178686 
L 77.112066 145.600776 
L 78.751736 149.725002 
L 80.391405 141.891219 
L 85.310413 139.674444 
L 86.950083 139.277007 
L 88.589752 139.357299 
L 90.229421 140.023415 
L 91.869091 139.987658 
L 98.427769 139.011995 
L 100.067438 140.993702 
L 101.707107 142.541532 
L 103.346777 149.578489 
L 108.265785 144.399356 
L 109.905455 150.9753 
L 111.545124 147.578191 
L 113.184793 149.466148 
L 114.824463 157.478307 
L 119.743471 167.716162 
L 121.38314 168.122296 
L 123.02281 164.382571 
L 124.662479 156.38656 
L 126.302149 151.823363 
L 131.221157 147.23721 
L 132.860826 160.128634 
L 134.500496 159.395264 
L 136.140165 165.778854 
L 137.779835 156.165241 
L 142.698843 163.459102 
L 144.338512 154.342996 
L 145.978182 152.247564 
L 147.617851 150.737731 
L 149.257521 147.892936 
L 154.176529 151.30484 
L 155.816198 156.724657 
L 157.455868 158.076259 
L 159.095537 142.930564 
L 160.735207 138.434938 
L 165.654215 136.682203 
L 167.293884 131.318551 
L 168.933554 127.714395 
L 170.573223 136.463143 
L 172.212893 139.377008 
L 177.131901 141.128054 
L 178.77157 144.502813 
L 180.41124 148.644227 
L 182.050909 139.587202 
L 183.690579 138.039429 
L 188.609587 138.178247 
L 190.249256 135.334616 
L 191.888926 130.743467 
L 193.528595 132.080576 
L 195.168264 131.72368 
L 200.087273 130.954449 
L 201.726942 136.085084 
L 203.366612 139.411456 
L 205.006281 139.607333 
L 206.64595 135.410479 
L 211.564959 133.738926 
L 214.844298 135.808124 
L 216.483967 135.615017 
L 218.123636 138.274508 
L 223.042645 135.441155 
L 224.682314 128.747347 
L 226.321983 128.601363 
L 229.601322 145.274803 
L 234.520331 138.255241 
L 236.16 152.130535 
L 237.799669 159.677723 
L 239.439339 151.090598 
L 241.079008 156.036328 
L 245.998017 146.646388 
L 247.637686 135.139024 
L 249.277355 131.215079 
L 250.917025 132.32633 
L 252.556694 127.812311 
L 257.475702 134.490376 
L 259.115372 134.26411 
L 260.755041 128.929938 
L 262.394711 128.957908 
L 264.03438 137.260459 
L 268.953388 144.848736 
L 270.593058 132.559707 
L 272.232727 128.903105 
L 273.872397 123.277274 
L 280.431074 114.355512 
L 282.070744 114.811893 
L 283.710413 114.65287 
L 285.350083 115.445257 
L 286.989752 118.19915 
L 291.90876 110.698511 
L 293.54843 104.269305 
L 295.188099 119.049979 
L 296.827769 116.400798 
L 298.467438 112.877612 
L 303.386446 113.548693 
L 305.026116 108.935289 
L 306.665785 109.00455 
L 308.305455 114.434039 
L 309.945124 114.355427 
L 316.503802 129.447809 
L 319.78314 142.1572 
L 321.42281 155.244575 
L 326.341818 156.447995 
L 327.981488 154.886885 
L 329.621157 155.863576 
L 331.260826 161.360991 
L 332.900496 145.852476 
L 337.819504 136.237911 
L 339.459174 128.50145 
L 341.098843 118.061336 
L 342.738512 147.336582 
L 344.378182 142.706023 
L 349.29719 146.720624 
L 350.93686 142.226999 
L 352.576529 136.429635 
L 354.216198 147.330738 
L 355.855868 160.451857 
L 360.774876 166.525418 
L 362.414545 158.792628 
L 364.054215 160.246662 
L 365.693884 172.814472 
L 367.333554 175.884614 
L 373.892231 181.219859 
L 375.531901 189.500172 
L 377.17157 185.868835 
L 378.81124 171.746068 
L 383.730248 177.809027 
L 385.369917 190.078035 
L 387.009587 176.133804 
L 388.649256 177.219133 
L 390.288926 186.212506 
L 395.207934 207.608389 
L 396.847603 210.133817 
L 398.487273 188.721172 
L 398.487273 188.721172 
" style="fill:none;stroke:#ff0000;stroke-linecap:square;stroke-opacity:0.9;stroke-width:2;"/>
   </g>
   <g id="line2d_17">
    <path clip-path="url(#p21414c0146)" d="M 73.832727 152.178686 
L 75.472397 148.596946 
L 77.112066 146.190157 
L 78.751736 149.916864 
L 80.391405 143.430896 
L 85.310413 139.731743 
L 86.950083 138.279098 
L 88.589752 139.952521 
L 90.229421 138.867467 
L 91.869091 139.312441 
L 98.427769 139.405943 
L 100.067438 141.692819 
L 101.707107 143.268138 
L 103.346777 149.392177 
L 108.265785 143.514399 
L 109.905455 152.950933 
L 111.545124 148.736077 
L 113.184793 150.329603 
L 114.824463 156.291651 
L 119.743471 167.509136 
L 121.38314 168.87426 
L 123.02281 163.959258 
L 124.662479 154.26059 
L 126.302149 148.356372 
L 131.221157 142.870304 
L 132.860826 156.649138 
L 134.500496 154.453887 
L 136.140165 159.652159 
L 137.779835 149.740515 
L 142.698843 161.787538 
L 144.338512 151.934461 
L 145.978182 149.631652 
L 147.617851 147.566192 
L 149.257521 145.27998 
L 154.176529 148.645392 
L 155.816198 153.655168 
L 157.455868 154.930391 
L 159.095537 142.70382 
L 160.735207 141.805694 
L 165.654215 135.793055 
L 167.293884 129.634607 
L 168.933554 126.578547 
L 170.573223 137.440885 
L 172.212893 145.949384 
L 177.131901 145.348715 
L 178.77157 151.302394 
L 180.41124 152.726919 
L 182.050909 144.750154 
L 183.690579 143.278743 
L 190.249256 138.711304 
L 191.888926 133.903053 
L 193.528595 133.494187 
L 195.168264 129.040155 
L 200.087273 128.069641 
L 201.726942 136.180927 
L 203.366612 141.020418 
L 205.006281 141.475063 
L 206.64595 136.121968 
L 211.564959 134.419146 
L 213.204628 137.630796 
L 214.844298 137.757326 
L 216.483967 139.703887 
L 218.123636 139.55192 
L 223.042645 135.337017 
L 224.682314 130.26527 
L 226.321983 130.802974 
L 229.601322 145.545904 
L 234.520331 137.395524 
L 236.16 150.013911 
L 237.799669 158.797054 
L 239.439339 150.930636 
L 241.079008 155.242757 
L 245.998017 143.237226 
L 247.637686 131.808665 
L 249.277355 126.691338 
L 250.917025 126.322409 
L 252.556694 123.614335 
L 257.475702 130.414748 
L 259.115372 127.069973 
L 260.755041 122.923369 
L 262.394711 120.930488 
L 264.03438 128.424909 
L 268.953388 137.191753 
L 270.593058 122.035251 
L 272.232727 119.437433 
L 273.872397 113.133731 
L 280.431074 104.746161 
L 282.070744 105.009701 
L 283.710413 104.82359 
L 285.350083 105.63331 
L 286.989752 108.882127 
L 291.90876 98.464366 
L 293.54843 89.555093 
L 295.188099 107.62134 
L 296.827769 101.222602 
L 298.467438 98.274473 
L 303.386446 97.190447 
L 305.026116 90.789149 
L 306.665785 89.59464 
L 308.305455 97.487792 
L 309.945124 95.622122 
L 318.143471 113.836233 
L 319.78314 121.736283 
L 321.42281 136.857778 
L 326.341818 135.53439 
L 327.981488 143.771311 
L 329.621157 143.715589 
L 331.260826 147.58301 
L 332.900496 131.034798 
L 337.819504 116.889342 
L 339.459174 110.573144 
L 341.098843 99.352036 
L 342.738512 145.181013 
L 344.378182 144.762519 
L 349.29719 155.899631 
L 350.93686 156.942955 
L 352.576529 142.735991 
L 354.216198 154.358142 
L 355.855868 168.883306 
L 360.774876 173.201905 
L 362.414545 165.617762 
L 364.054215 168.682531 
L 365.693884 180.032891 
L 367.333554 184.147801 
L 373.892231 189.94089 
L 375.531901 198.464071 
L 377.17157 184.829378 
L 378.81124 173.683492 
L 383.730248 175.642794 
L 385.369917 184.958519 
L 387.009587 172.414045 
L 388.649256 175.527573 
L 390.288926 184.47831 
L 395.207934 210.014346 
L 396.847603 207.273044 
L 398.487273 181.874099 
L 398.487273 181.874099 
" style="fill:none;stroke:#ff8040;stroke-linecap:square;stroke-opacity:0.9;stroke-width:2;"/>
   </g>
   <g id="line2d_18">
    <path clip-path="url(#p21414c0146)" d="M 73.832727 152.8162 
L 77.112066 149.21436 
L 78.751736 154.502664 
L 80.391405 147.686258 
L 85.310413 146.885603 
L 86.950083 146.047266 
L 88.589752 146.336148 
L 90.229421 148.580447 
L 91.869091 147.753308 
L 98.427769 149.245092 
L 100.067438 152.096191 
L 101.707107 154.056056 
L 103.346777 161.714007 
L 108.265785 157.015563 
L 109.905455 161.931733 
L 111.545124 159.440172 
L 113.184793 162.051675 
L 114.824463 169.854256 
L 119.743471 181.809433 
L 121.38314 181.59119 
L 123.02281 177.916947 
L 124.662479 170.829804 
L 126.302149 166.274104 
L 131.221157 160.950658 
L 132.860826 173.599216 
L 134.500496 172.369445 
L 136.140165 179.505814 
L 137.779835 171.105332 
L 142.698843 183.088034 
L 144.338512 172.197608 
L 145.978182 171.050518 
L 147.617851 171.532486 
L 149.257521 168.77313 
L 154.176529 173.372878 
L 157.455868 181.136444 
L 159.095537 165.850062 
L 160.735207 163.366775 
L 165.654215 163.625244 
L 167.293884 156.922973 
L 168.933554 151.861632 
L 170.573223 164.874341 
L 172.212893 169.268696 
L 177.131901 168.889288 
L 178.77157 169.318701 
L 180.41124 171.239525 
L 182.050909 162.543631 
L 183.690579 164.044035 
L 188.609587 162.753083 
L 190.249256 160.162162 
L 191.888926 155.594722 
L 193.528595 157.54519 
L 195.168264 154.058941 
L 200.087273 153.662514 
L 201.726942 159.93055 
L 203.366612 163.355934 
L 205.006281 162.955181 
L 206.64595 158.589665 
L 211.564959 156.708604 
L 214.844298 159.087178 
L 216.483967 159.335026 
L 218.123636 159.933374 
L 223.042645 158.077033 
L 224.682314 151.781392 
L 226.321983 151.739634 
L 229.601322 169.144565 
L 234.520331 162.842218 
L 236.16 180.189772 
L 237.799669 190.702729 
L 239.439339 186.611358 
L 241.079008 194.616539 
L 245.998017 188.681813 
L 247.637686 179.214708 
L 249.277355 173.802509 
L 250.917025 175.055761 
L 252.556694 171.913668 
L 257.475702 179.099124 
L 259.115372 179.053465 
L 260.755041 175.67267 
L 262.394711 172.610026 
L 264.03438 179.27512 
L 268.953388 186.405168 
L 270.593058 173.167259 
L 272.232727 168.946468 
L 273.872397 161.193727 
L 280.431074 152.054282 
L 282.070744 153.905699 
L 283.710413 152.799266 
L 285.350083 154.20076 
L 286.989752 154.546433 
L 291.90876 147.773838 
L 293.54843 135.443262 
L 295.188099 152.608912 
L 296.827769 150.292784 
L 298.467438 147.768438 
L 303.386446 147.67838 
L 305.026116 143.393653 
L 306.665785 142.765676 
L 308.305455 146.561649 
L 309.945124 147.40984 
L 316.503802 162.310247 
L 318.143471 169.443052 
L 319.78314 175.70229 
L 321.42281 188.771075 
L 326.341818 189.981952 
L 329.621157 190.460691 
L 331.260826 196.337019 
L 332.900496 180.785861 
L 337.819504 174.343081 
L 339.459174 168.577877 
L 341.098843 158.282293 
L 342.738512 202.731978 
L 344.378182 197.736178 
L 349.29719 203.660669 
L 350.93686 198.926392 
L 352.576529 193.088211 
L 354.216198 201.616587 
L 355.855868 214.499541 
L 360.774876 220.373963 
L 362.414545 214.712523 
L 364.054215 216.915751 
L 365.693884 226.726604 
L 367.333554 229.155706 
L 373.892231 234.731678 
L 375.531901 243.659461 
L 377.17157 241.424157 
L 378.81124 227.408035 
L 383.730248 233.336568 
L 385.369917 249.91381 
L 387.009587 236.268426 
L 388.649256 235.909863 
L 390.288926 245.84366 
L 395.207934 263.648936 
L 396.847603 265.797818 
L 398.487273 246.760376 
L 398.487273 246.760376 
" style="fill:none;stroke:#0d0d0d;stroke-linecap:square;stroke-opacity:0.25;stroke-width:2;"/>
   </g>
   <g id="line2d_19">
    <path clip-path="url(#p21414c0146)" d="M 73.832727 151.541171 
L 75.472397 146.414786 
L 77.112066 142.417752 
L 78.751736 144.829971 
L 80.391405 136.451957 
L 85.310413 127.626938 
L 86.950083 126.622712 
L 88.589752 126.315679 
L 90.229421 125.559505 
L 91.869091 124.628594 
L 98.427769 124.364729 
L 100.067438 128.297369 
L 101.707107 128.878127 
L 103.346777 135.234203 
L 108.265785 130.381713 
L 109.905455 136.582713 
L 111.545124 132.841457 
L 113.184793 134.389148 
L 114.824463 142.169104 
L 119.743471 151.777042 
L 121.38314 151.500407 
L 123.02281 144.667177 
L 124.662479 135.441685 
L 126.302149 130.561316 
L 131.221157 126.051982 
L 132.860826 138.183371 
L 134.500496 136.284692 
L 136.140165 142.835807 
L 137.779835 132.962969 
L 142.698843 138.771183 
L 144.338512 128.656084 
L 145.978182 127.423507 
L 147.617851 125.201477 
L 149.257521 122.164409 
L 154.176529 123.85062 
L 155.816198 130.085918 
L 157.455868 131.66982 
L 159.095537 114.834228 
L 160.735207 108.997374 
L 165.654215 106.892694 
L 168.933554 97.074452 
L 170.573223 110.207873 
L 172.212893 114.541448 
L 177.131901 114.270583 
L 178.77157 118.879646 
L 180.41124 119.875399 
L 182.050909 110.447758 
L 183.690579 107.662441 
L 188.609587 108.351939 
L 190.249256 106.03855 
L 191.888926 100.569417 
L 193.528595 99.259825 
L 195.168264 97.62769 
L 200.087273 97.152542 
L 201.726942 100.208064 
L 203.366612 104.069738 
L 205.006281 104.138515 
L 206.64595 100.834793 
L 211.564959 96.886614 
L 213.204628 98.278003 
L 214.844298 98.20464 
L 216.483967 93.761862 
L 218.123636 96.792755 
L 223.042645 92.070986 
L 224.682314 85.216115 
L 226.321983 84.128236 
L 229.601322 103.486611 
L 234.520331 95.516847 
L 236.16 111.030181 
L 237.799669 119.166421 
L 239.439339 107.820696 
L 241.079008 114.458977 
L 245.998017 102.495629 
L 247.637686 92.109655 
L 249.277355 86.70161 
L 250.917025 87.009119 
L 252.556694 79.676706 
L 257.475702 88.428705 
L 259.115372 89.612783 
L 260.755041 80.281112 
L 262.394711 83.365088 
L 264.03438 93.680548 
L 268.953388 103.457415 
L 270.593058 88.931271 
L 272.232727 83.688273 
L 273.872397 77.932451 
L 280.431074 68.930194 
L 282.070744 70.06723 
L 283.710413 69.416657 
L 285.350083 70.300322 
L 286.989752 71.325565 
L 291.90876 64.939785 
L 293.54843 52.154182 
L 295.188099 66.909572 
L 296.827769 67.024854 
L 298.467438 61.511622 
L 303.386446 63.985705 
L 305.026116 62.134474 
L 306.665785 63.534228 
L 308.305455 68.312639 
L 309.945124 68.637352 
L 316.503802 87.625677 
L 318.143471 90.324054 
L 319.78314 98.022112 
L 321.42281 112.290773 
L 326.341818 112.228166 
L 327.981488 101.771896 
L 329.621157 97.637433 
L 331.260826 103.381284 
L 332.900496 89.498236 
L 337.819504 80.435301 
L 339.459174 71.426676 
L 341.098843 58.822233 
L 342.738512 89.620967 
L 344.378182 86.738486 
L 349.29719 92.458154 
L 350.93686 88.683841 
L 352.576529 82.664923 
L 354.216198 96.574151 
L 355.855868 108.149263 
L 360.774876 113.176962 
L 362.414545 105.465937 
L 364.054215 109.035725 
L 365.693884 122.583395 
L 367.333554 126.757466 
L 373.892231 135.518813 
L 375.531901 144.350724 
L 377.17157 134.388203 
L 378.81124 114.55327 
L 383.730248 120.633609 
L 385.369917 134.801601 
L 387.009587 121.645038 
L 388.649256 122.833776 
L 390.288926 130.547711 
L 395.207934 152.760019 
L 396.847603 154.382716 
L 398.487273 131.977746 
L 398.487273 131.977746 
" style="fill:none;stroke:#0d0d0d;stroke-linecap:square;stroke-opacity:0.25;stroke-width:2;"/>
   </g>
   <g id="patch_3">
    <path d="M 57.6 276.48 
L 57.6 41.472 
" style="fill:none;stroke:#000000;stroke-linecap:square;stroke-linejoin:miter;stroke-width:0.8;"/>
   </g>
   <g id="patch_4">
    <path d="M 414.72 276.48 
L 414.72 41.472 
" style="fill:none;stroke:#000000;stroke-linecap:square;stroke-linejoin:miter;stroke-width:0.8;"/>
   </g>
   <g id="patch_5">
    <path d="M 57.6 276.48 
L 414.72 276.48 
" style="fill:none;stroke:#000000;stroke-linecap:square;stroke-linejoin:miter;stroke-width:0.8;"/>
   </g>
   <g id="patch_6">
    <path d="M 57.6 41.472 
L 414.72 41.472 
" style="fill:none;stroke:#000000;stroke-linecap:square;stroke-linejoin:miter;stroke-width:0.8;"/>
   </g>
   <g id="text_16">
    <!-- TESTFUNDS1550 -->
    <g transform="translate(185.200312 22.034625)scale(0.12 -0.12)">
     <defs>
      <path d="M -19 4666 
L 3928 4666 
L 3928 4134 
L 2272 4134 
L 2272 0 
L 1638 0 
L 1638 4134 
L -19 4134 
L -19 4666 
z
" id="DejaVuSans-54" transform="scale(0.015625)"/>
      <path d="M 628 4666 
L 3578 4666 
L 3578 4134 
L 1259 4134 
L 1259 2753 
L 3481 2753 
L 3481 2222 
L 1259 2222 
L 1259 531 
L 3634 531 
L 3634 0 
L 628 0 
L 628 4666 
z
" id="DejaVuSans-45" transform="scale(0.015625)"/>
      <path d="M 3425 4513 
L 3425 3897 
Q 3066 4069 2747 4153 
Q 2428 4238 2131 4238 
Q 1616 4238 1336 4038 
Q 1056 3838 1056 3469 
Q 1056 3159 1242 3001 
Q 1428 2844 1947 2747 
L 2328 2669 
Q 3034 2534 3370 2195 
Q 3706 1856 3706 1288 
Q 3706 609 3251 259 
Q 2797 -91 1919 -91 
Q 1588 -91 1214 -16 
Q 841 59 441 206 
L 441 856 
Q 825 641 1194 531 
Q 1563 422 1919 422 
Q 2459 422 2753 634 
Q 3047 847 3047 1241 
Q 3047 1584 2836 1778 
Q 2625 1972 2144 2069 
L 1759 2144 
Q 1053 2284 737 2584 
Q 422 2884 422 3419 
Q 422 4038 858 4394 
Q 1294 4750 2059 4750 
Q 2388 4750 2728 4690 
Q 3069 4631 3425 4513 
z
" id="DejaVuSans-53" transform="scale(0.015625)"/>
      <path d="M 628 4666 
L 3309 4666 
L 3309 4134 
L 1259 4134 
L 1259 2759 
L 3109 2759 
L 3109 2228 
L 1259 2228 
L 1259 0 
L 628 0 
L 628 4666 
z
" id="DejaVuSans-46" transform="scale(0.015625)"/>
      <path d="M 556 4666 
L 1191 4666 
L 1191 1831 
Q 1191 1081 1462 751 
Q 1734 422 2344 422 
Q 2950 422 3222 751 
Q 3494 1081 3494 1831 
L 3494 4666 
L 4128 4666 
L 4128 1753 
Q 4128 841 3676 375 
Q 3225 -91 2344 -91 
Q 1459 -91 1007 375 
Q 556 841 556 1753 
L 556 4666 
z
" id="DejaVuSans-55" transform="scale(0.015625)"/>
      <path d="M 628 4666 
L 1478 4666 
L 3547 763 
L 3547 4666 
L 4159 4666 
L 4159 0 
L 3309 0 
L 1241 3903 
L 1241 0 
L 628 0 
L 628 4666 
z
" id="DejaVuSans-4e" transform="scale(0.015625)"/>
      <path d="M 1259 4147 
L 1259 519 
L 2022 519 
Q 2988 519 3436 956 
Q 3884 1394 3884 2338 
Q 3884 3275 3436 3711 
Q 2988 4147 2022 4147 
L 1259 4147 
z
M 628 4666 
L 1925 4666 
Q 3281 4666 3915 4102 
Q 4550 3538 4550 2338 
Q 4550 1131 3912 565 
Q 3275 0 1925 0 
L 628 0 
L 628 4666 
z
" id="DejaVuSans-44" transform="scale(0.015625)"/>
     </defs>
     <use xlink:href="#DejaVuSans-54"/>
     <use x="61.083984" xlink:href="#DejaVuSans-45"/>
     <use x="124.267578" xlink:href="#DejaVuSans-53"/>
     <use x="187.744141" xlink:href="#DejaVuSans-54"/>
     <use x="248.828125" xlink:href="#DejaVuSans-46"/>
     <use x="306.347656" xlink:href="#DejaVuSans-55"/>
     <use x="379.541016" xlink:href="#DejaVuSans-4e"/>
     <use x="454.345703" xlink:href="#DejaVuSans-44"/>
     <use x="531.347656" xlink:href="#DejaVuSans-53"/>
     <use x="594.824219" xlink:href="#DejaVuSans-31"/>
     <use x="658.447266" xlink:href="#DejaVuSans-35"/>
     <use x="722.070312" xlink:href="#DejaVuSans-35"/>
     <use x="785.693359" xlink:href="#DejaVuSans-30"/>
    </g>
    <!-- daily_report -->
    <g transform="translate(200.466563 35.472)scale(0.12 -0.12)">
     <defs>
      <path d="M 603 3500 
L 1178 3500 
L 1178 0 
L 603 0 
L 603 3500 
z
M 603 4863 
L 1178 4863 
L 1178 4134 
L 603 4134 
L 603 4863 
z
" id="DejaVuSans-69" transform="scale(0.015625)"/>
      <path d="M 603 4863 
L 1178 4863 
L 1178 0 
L 603 0 
L 603 4863 
z
" id="DejaVuSans-6c" transform="scale(0.015625)"/>
      <path d="M 2059 -325 
Q 1816 -950 1584 -1140 
Q 1353 -1331 966 -1331 
L 506 -1331 
L 506 -850 
L 844 -850 
Q 1081 -850 1212 -737 
Q 1344 -625 1503 -206 
L 1606 56 
L 191 3500 
L 800 3500 
L 1894 763 
L 2988 3500 
L 3597 3500 
L 2059 -325 
z
" id="DejaVuSans-79" transform="scale(0.015625)"/>
      <path d="M 3263 -1063 
L 3263 -1509 
L -63 -1509 
L -63 -1063 
L 3263 -1063 
z
" id="DejaVuSans-5f" transform="scale(0.015625)"/>
      <path d="M 2631 2963 
Q 2534 3019 2420 3045 
Q 2306 3072 2169 3072 
Q 1681 3072 1420 2755 
Q 1159 2438 1159 1844 
L 1159 0 
L 581 0 
L 581 3500 
L 1159 3500 
L 1159 2956 
Q 1341 3275 1631 3429 
Q 1922 3584 2338 3584 
Q 2397 3584 2469 3576 
Q 2541 3569 2628 3553 
L 2631 2963 
z
" id="DejaVuSans-72" transform="scale(0.015625)"/>
      <path d="M 1159 525 
L 1159 -1331 
L 581 -1331 
L 581 3500 
L 1159 3500 
L 1159 2969 
Q 1341 3281 1617 3432 
Q 1894 3584 2278 3584 
Q 2916 3584 3314 3078 
Q 3713 2572 3713 1747 
Q 3713 922 3314 415 
Q 2916 -91 2278 -91 
Q 1894 -91 1617 61 
Q 1341 213 1159 525 
z
M 3116 1747 
Q 3116 2381 2855 2742 
Q 2594 3103 2138 3103 
Q 1681 3103 1420 2742 
Q 1159 2381 1159 1747 
Q 1159 1113 1420 752 
Q 1681 391 2138 391 
Q 2594 391 2855 752 
Q 3116 1113 3116 1747 
z
" id="DejaVuSans-70" transform="scale(0.015625)"/>
      <path d="M 1959 3097 
Q 1497 3097 1228 2736 
Q 959 2375 959 1747 
Q 959 1119 1226 758 
Q 1494 397 1959 397 
Q 2419 397 2687 759 
Q 2956 1122 2956 1747 
Q 2956 2369 2687 2733 
Q 2419 3097 1959 3097 
z
M 1959 3584 
Q 2709 3584 3137 3096 
Q 3566 2609 3566 1747 
Q 3566 888 3137 398 
Q 2709 -91 1959 -91 
Q 1206 -91 779 398 
Q 353 888 353 1747 
Q 353 2609 779 3096 
Q 1206 3584 1959 3584 
z
" id="DejaVuSans-6f" transform="scale(0.015625)"/>
     </defs>
     <use xlink:href="#DejaVuSans-64"/>
     <use x="63.476562" xlink:href="#DejaVuSans-61"/>
     <use x="124.755859" xlink:href="#DejaVuSans-69"/>
     <use x="152.539062" xlink:href="#DejaVuSans-6c"/>
     <use x="180.322266" xlink:href="#DejaVuSans-79"/>
     <use x="239.501953" xlink:href="#DejaVuSans-5f"/>
     <use x="289.501953" xlink:href="#DejaVuSans-72"/>
     <use x="328.365234" xlink:href="#DejaVuSans-65"/>
     <use x="389.888672" xlink:href="#DejaVuSans-70"/>
     <use x="453.365234" xlink:href="#DejaVuSans-6f"/>
     <use x="514.546875" xlink:href="#DejaVuSans-72"/>
     <use x="555.660156" xlink:href="#DejaVuSans-74"/>
    </g>
   </g>
   <g id="legend_1">
    <g id="patch_7">
     <path d="M 64.6 271.48 
L 155.792188 271.48 
Q 157.792188 271.48 157.792188 269.48 
L 157.792188 197.089375 
Q 157.792188 195.089375 155.792188 195.089375 
L 64.6 195.089375 
Q 62.6 195.089375 62.6 197.089375 
L 62.6 269.48 
Q 62.6 271.48 64.6 271.48 
z
" style="fill:#ffffff;opacity:0.8;stroke:#cccccc;stroke-linejoin:miter;"/>
    </g>
    <g id="line2d_20">
     <path d="M 66.6 203.187812 
L 86.6 203.187812 
" style="fill:none;stroke:#0000ff;stroke-linecap:square;stroke-opacity:0.9;stroke-width:2;"/>
    </g>
    <g id="line2d_21"/>
    <g id="text_17">
     <!-- alpaca -->
     <g transform="translate(94.6 206.687812)scale(0.1 -0.1)">
      <defs>
       <path d="M 3122 3366 
L 3122 2828 
Q 2878 2963 2633 3030 
Q 2388 3097 2138 3097 
Q 1578 3097 1268 2742 
Q 959 2388 959 1747 
Q 959 1106 1268 751 
Q 1578 397 2138 397 
Q 2388 397 2633 464 
Q 2878 531 3122 666 
L 3122 134 
Q 2881 22 2623 -34 
Q 2366 -91 2075 -91 
Q 1284 -91 818 406 
Q 353 903 353 1747 
Q 353 2603 823 3093 
Q 1294 3584 2113 3584 
Q 2378 3584 2631 3529 
Q 2884 3475 3122 3366 
z
" id="DejaVuSans-63" transform="scale(0.015625)"/>
      </defs>
      <use xlink:href="#DejaVuSans-61"/>
      <use x="61.279297" xlink:href="#DejaVuSans-6c"/>
      <use x="89.0625" xlink:href="#DejaVuSans-70"/>
      <use x="152.539062" xlink:href="#DejaVuSans-61"/>
      <use x="213.818359" xlink:href="#DejaVuSans-63"/>
      <use x="268.798828" xlink:href="#DejaVuSans-61"/>
     </g>
    </g>
    <g id="line2d_22">
     <path d="M 66.6 217.865937 
L 86.6 217.865937 
" style="fill:none;stroke:#ff0000;stroke-linecap:square;stroke-opacity:0.9;stroke-width:2;"/>
    </g>
    <g id="line2d_23"/>
    <g id="text_18">
     <!-- mattress -->
     <g transform="translate(94.6 221.365937)scale(0.1 -0.1)">
      <defs>
       <path d="M 3328 2828 
Q 3544 3216 3844 3400 
Q 4144 3584 4550 3584 
Q 5097 3584 5394 3201 
Q 5691 2819 5691 2113 
L 5691 0 
L 5113 0 
L 5113 2094 
Q 5113 2597 4934 2840 
Q 4756 3084 4391 3084 
Q 3944 3084 3684 2787 
Q 3425 2491 3425 1978 
L 3425 0 
L 2847 0 
L 2847 2094 
Q 2847 2600 2669 2842 
Q 2491 3084 2119 3084 
Q 1678 3084 1418 2786 
Q 1159 2488 1159 1978 
L 1159 0 
L 581 0 
L 581 3500 
L 1159 3500 
L 1159 2956 
Q 1356 3278 1631 3431 
Q 1906 3584 2284 3584 
Q 2666 3584 2933 3390 
Q 3200 3197 3328 2828 
z
" id="DejaVuSans-6d" transform="scale(0.015625)"/>
       <path d="M 2834 3397 
L 2834 2853 
Q 2591 2978 2328 3040 
Q 2066 3103 1784 3103 
Q 1356 3103 1142 2972 
Q 928 2841 928 2578 
Q 928 2378 1081 2264 
Q 1234 2150 1697 2047 
L 1894 2003 
Q 2506 1872 2764 1633 
Q 3022 1394 3022 966 
Q 3022 478 2636 193 
Q 2250 -91 1575 -91 
Q 1294 -91 989 -36 
Q 684 19 347 128 
L 347 722 
Q 666 556 975 473 
Q 1284 391 1588 391 
Q 1994 391 2212 530 
Q 2431 669 2431 922 
Q 2431 1156 2273 1281 
Q 2116 1406 1581 1522 
L 1381 1569 
Q 847 1681 609 1914 
Q 372 2147 372 2553 
Q 372 3047 722 3315 
Q 1072 3584 1716 3584 
Q 2034 3584 2315 3537 
Q 2597 3491 2834 3397 
z
" id="DejaVuSans-73" transform="scale(0.015625)"/>
      </defs>
      <use xlink:href="#DejaVuSans-6d"/>
      <use x="97.412109" xlink:href="#DejaVuSans-61"/>
      <use x="158.691406" xlink:href="#DejaVuSans-74"/>
      <use x="197.900391" xlink:href="#DejaVuSans-74"/>
      <use x="237.109375" xlink:href="#DejaVuSans-72"/>
      <use x="275.972656" xlink:href="#DejaVuSans-65"/>
      <use x="337.496094" xlink:href="#DejaVuSans-73"/>
      <use x="389.595703" xlink:href="#DejaVuSans-73"/>
     </g>
    </g>
    <g id="line2d_24">
     <path d="M 66.6 232.544062 
L 86.6 232.544062 
" style="fill:none;stroke:#ff8040;stroke-linecap:square;stroke-opacity:0.9;stroke-width:2;"/>
    </g>
    <g id="line2d_25"/>
    <g id="text_19">
     <!-- trader-0850 -->
     <g transform="translate(94.6 236.044062)scale(0.1 -0.1)">
      <use xlink:href="#DejaVuSans-74"/>
      <use x="39.208984" xlink:href="#DejaVuSans-72"/>
      <use x="80.322266" xlink:href="#DejaVuSans-61"/>
      <use x="141.601562" xlink:href="#DejaVuSans-64"/>
      <use x="205.078125" xlink:href="#DejaVuSans-65"/>
      <use x="266.601562" xlink:href="#DejaVuSans-72"/>
      <use x="301.339844" xlink:href="#DejaVuSans-2d"/>
      <use x="337.423828" xlink:href="#DejaVuSans-30"/>
      <use x="401.046875" xlink:href="#DejaVuSans-38"/>
      <use x="464.669922" xlink:href="#DejaVuSans-35"/>
      <use x="528.292969" xlink:href="#DejaVuSans-30"/>
     </g>
    </g>
    <g id="line2d_26">
     <path d="M 66.6 247.222187 
L 86.6 247.222187 
" style="fill:none;stroke:#0d0d0d;stroke-linecap:square;stroke-opacity:0.25;stroke-width:2;"/>
    </g>
    <g id="line2d_27"/>
    <g id="text_20">
     <!-- rando-min -->
     <g transform="translate(94.6 250.722187)scale(0.1 -0.1)">
      <defs>
       <path d="M 3513 2113 
L 3513 0 
L 2938 0 
L 2938 2094 
Q 2938 2591 2744 2837 
Q 2550 3084 2163 3084 
Q 1697 3084 1428 2787 
Q 1159 2491 1159 1978 
L 1159 0 
L 581 0 
L 581 3500 
L 1159 3500 
L 1159 2956 
Q 1366 3272 1645 3428 
Q 1925 3584 2291 3584 
Q 2894 3584 3203 3211 
Q 3513 2838 3513 2113 
z
" id="DejaVuSans-6e" transform="scale(0.015625)"/>
      </defs>
      <use xlink:href="#DejaVuSans-72"/>
      <use x="41.113281" xlink:href="#DejaVuSans-61"/>
      <use x="102.392578" xlink:href="#DejaVuSans-6e"/>
      <use x="165.771484" xlink:href="#DejaVuSans-64"/>
      <use x="229.248047" xlink:href="#DejaVuSans-6f"/>
      <use x="292.304688" xlink:href="#DejaVuSans-2d"/>
      <use x="328.388672" xlink:href="#DejaVuSans-6d"/>
      <use x="425.800781" xlink:href="#DejaVuSans-69"/>
      <use x="453.583984" xlink:href="#DejaVuSans-6e"/>
     </g>
    </g>
    <g id="line2d_28">
     <path d="M 66.6 261.900312 
L 86.6 261.900312 
" style="fill:none;stroke:#0d0d0d;stroke-linecap:square;stroke-opacity:0.25;stroke-width:2;"/>
    </g>
    <g id="line2d_29"/>
    <g id="text_21">
     <!-- rando-max -->
     <g transform="translate(94.6 265.400312)scale(0.1 -0.1)">
      <defs>
       <path d="M 3513 3500 
L 2247 1797 
L 3578 0 
L 2900 0 
L 1881 1375 
L 863 0 
L 184 0 
L 1544 1831 
L 300 3500 
L 978 3500 
L 1906 2253 
L 2834 3500 
L 3513 3500 
z
" id="DejaVuSans-78" transform="scale(0.015625)"/>
      </defs>
      <use xlink:href="#DejaVuSans-72"/>
      <use x="41.113281" xlink:href="#DejaVuSans-61"/>
      <use x="102.392578" xlink:href="#DejaVuSans-6e"/>
      <use x="165.771484" xlink:href="#DejaVuSans-64"/>
      <use x="229.248047" xlink:href="#DejaVuSans-6f"/>
      <use x="292.304688" xlink:href="#DejaVuSans-2d"/>
      <use x="328.388672" xlink:href="#DejaVuSans-6d"/>
      <use x="425.800781" xlink:href="#DejaVuSans-61"/>
      <use x="487.080078" xlink:href="#DejaVuSans-78"/>
     </g>
    </g>
   </g>
  </g>
 </g>
 <defs>
  <clipPath id="p21414c0146">
   <rect height="235.008" width="357.12" x="57.6" y="41.472"/>
  </clipPath>
 </defs>
</svg>
