<?xml version="1.0" encoding="utf-8" standalone="no"?>
<!DOCTYPE svg PUBLIC "-//W3C//DTD SVG 1.1//EN"
  "http://www.w3.org/Graphics/SVG/1.1/DTD/svg11.dtd">
<svg height="345.6pt" version="1.1" viewBox="0 0 460.8 345.6" width="460.8pt" xmlns="http://www.w3.org/2000/svg" xmlns:xlink="http://www.w3.org/1999/xlink">
 <metadata>
  <rdf:RDF xmlns:cc="http://creativecommons.org/ns#" xmlns:dc="http://purl.org/dc/elements/1.1/" xmlns:rdf="http://www.w3.org/1999/02/22-rdf-syntax-ns#">
   <cc:Work>
    <dc:type rdf:resource="http://purl.org/dc/dcmitype/StillImage"/>
    <dc:date>2022-04-08T01:02:08.991976</dc:date>
    <dc:format>image/svg+xml</dc:format>
    <dc:creator>
     <cc:Agent>
      <dc:title>Matplotlib v3.4.3, https://matplotlib.org/</dc:title>
     </cc:Agent>
    </dc:creator>
   </cc:Work>
  </rdf:RDF>
 </metadata>
 <defs>
  <style type="text/css">*{stroke-linecap:butt;stroke-linejoin:round;}</style>
 </defs>
 <g id="figure_1">
  <g id="patch_1">
   <path d="M 0 345.6 
L 460.8 345.6 
L 460.8 0 
L 0 0 
z
" style="fill:#ffffff;"/>
  </g>
  <g id="axes_1">
   <g id="patch_2">
    <path d="M 57.6 276.48 
L 414.72 276.48 
L 414.72 41.472 
L 57.6 41.472 
z
" style="fill:#ffffff;"/>
   </g>
   <g id="matplotlib.axis_1">
    <g id="xtick_1">
     <g id="line2d_1">
      <defs>
       <path d="M 0 0 
L 0 3.5 
" id="m1b78039f1a" style="stroke:#000000;stroke-width:0.8;"/>
      </defs>
      <g>
       <use style="stroke:#000000;stroke-width:0.8;" x="86.704493" xlink:href="#m1b78039f1a" y="276.48"/>
      </g>
     </g>
     <g id="text_1">
      <!-- 2021-09 -->
      <g transform="translate(49.479673 310.951846)rotate(-30)scale(0.1 -0.1)">
       <defs>
        <path d="M 1228 531 
L 3431 531 
L 3431 0 
L 469 0 
L 469 531 
Q 828 903 1448 1529 
Q 2069 2156 2228 2338 
Q 2531 2678 2651 2914 
Q 2772 3150 2772 3378 
Q 2772 3750 2511 3984 
Q 2250 4219 1831 4219 
Q 1534 4219 1204 4116 
Q 875 4013 500 3803 
L 500 4441 
Q 881 4594 1212 4672 
Q 1544 4750 1819 4750 
Q 2544 4750 2975 4387 
Q 3406 4025 3406 3419 
Q 3406 3131 3298 2873 
Q 3191 2616 2906 2266 
Q 2828 2175 2409 1742 
Q 1991 1309 1228 531 
z
" id="DejaVuSans-32" transform="scale(0.015625)"/>
        <path d="M 2034 4250 
Q 1547 4250 1301 3770 
Q 1056 3291 1056 2328 
Q 1056 1369 1301 889 
Q 1547 409 2034 409 
Q 2525 409 2770 889 
Q 3016 1369 3016 2328 
Q 3016 3291 2770 3770 
Q 2525 4250 2034 4250 
z
M 2034 4750 
Q 2819 4750 3233 4129 
Q 3647 3509 3647 2328 
Q 3647 1150 3233 529 
Q 2819 -91 2034 -91 
Q 1250 -91 836 529 
Q 422 1150 422 2328 
Q 422 3509 836 4129 
Q 1250 4750 2034 4750 
z
" id="DejaVuSans-30" transform="scale(0.015625)"/>
        <path d="M 794 531 
L 1825 531 
L 1825 4091 
L 703 3866 
L 703 4441 
L 1819 4666 
L 2450 4666 
L 2450 531 
L 3481 531 
L 3481 0 
L 794 0 
L 794 531 
z
" id="DejaVuSans-31" transform="scale(0.015625)"/>
        <path d="M 313 2009 
L 1997 2009 
L 1997 1497 
L 313 1497 
L 313 2009 
z
" id="DejaVuSans-2d" transform="scale(0.015625)"/>
        <path d="M 703 97 
L 703 672 
Q 941 559 1184 500 
Q 1428 441 1663 441 
Q 2288 441 2617 861 
Q 2947 1281 2994 2138 
Q 2813 1869 2534 1725 
Q 2256 1581 1919 1581 
Q 1219 1581 811 2004 
Q 403 2428 403 3163 
Q 403 3881 828 4315 
Q 1253 4750 1959 4750 
Q 2769 4750 3195 4129 
Q 3622 3509 3622 2328 
Q 3622 1225 3098 567 
Q 2575 -91 1691 -91 
Q 1453 -91 1209 -44 
Q 966 3 703 97 
z
M 1959 2075 
Q 2384 2075 2632 2365 
Q 2881 2656 2881 3163 
Q 2881 3666 2632 3958 
Q 2384 4250 1959 4250 
Q 1534 4250 1286 3958 
Q 1038 3666 1038 3163 
Q 1038 2656 1286 2365 
Q 1534 2075 1959 2075 
z
" id="DejaVuSans-39" transform="scale(0.015625)"/>
       </defs>
       <use xlink:href="#DejaVuSans-32"/>
       <use x="63.623047" xlink:href="#DejaVuSans-30"/>
       <use x="127.246094" xlink:href="#DejaVuSans-32"/>
       <use x="190.869141" xlink:href="#DejaVuSans-31"/>
       <use x="254.492188" xlink:href="#DejaVuSans-2d"/>
       <use x="290.576172" xlink:href="#DejaVuSans-30"/>
       <use x="354.199219" xlink:href="#DejaVuSans-39"/>
      </g>
     </g>
    </g>
    <g id="xtick_2">
     <g id="line2d_2">
      <g>
       <use style="stroke:#000000;stroke-width:0.8;" x="129.61038" xlink:href="#m1b78039f1a" y="276.48"/>
      </g>
     </g>
     <g id="text_2">
      <!-- 2021-10 -->
      <g transform="translate(92.38556 310.951846)rotate(-30)scale(0.1 -0.1)">
       <use xlink:href="#DejaVuSans-32"/>
       <use x="63.623047" xlink:href="#DejaVuSans-30"/>
       <use x="127.246094" xlink:href="#DejaVuSans-32"/>
       <use x="190.869141" xlink:href="#DejaVuSans-31"/>
       <use x="254.492188" xlink:href="#DejaVuSans-2d"/>
       <use x="290.576172" xlink:href="#DejaVuSans-31"/>
       <use x="354.199219" xlink:href="#DejaVuSans-30"/>
      </g>
     </g>
    </g>
    <g id="xtick_3">
     <g id="line2d_3">
      <g>
       <use style="stroke:#000000;stroke-width:0.8;" x="173.946464" xlink:href="#m1b78039f1a" y="276.48"/>
      </g>
     </g>
     <g id="text_3">
      <!-- 2021-11 -->
      <g transform="translate(136.721643 310.951846)rotate(-30)scale(0.1 -0.1)">
       <use xlink:href="#DejaVuSans-32"/>
       <use x="63.623047" xlink:href="#DejaVuSans-30"/>
       <use x="127.246094" xlink:href="#DejaVuSans-32"/>
       <use x="190.869141" xlink:href="#DejaVuSans-31"/>
       <use x="254.492188" xlink:href="#DejaVuSans-2d"/>
       <use x="290.576172" xlink:href="#DejaVuSans-31"/>
       <use x="354.199219" xlink:href="#DejaVuSans-31"/>
      </g>
     </g>
    </g>
    <g id="xtick_4">
     <g id="line2d_4">
      <g>
       <use style="stroke:#000000;stroke-width:0.8;" x="216.852351" xlink:href="#m1b78039f1a" y="276.48"/>
      </g>
     </g>
     <g id="text_4">
      <!-- 2021-12 -->
      <g transform="translate(179.62753 310.951846)rotate(-30)scale(0.1 -0.1)">
       <use xlink:href="#DejaVuSans-32"/>
       <use x="63.623047" xlink:href="#DejaVuSans-30"/>
       <use x="127.246094" xlink:href="#DejaVuSans-32"/>
       <use x="190.869141" xlink:href="#DejaVuSans-31"/>
       <use x="254.492188" xlink:href="#DejaVuSans-2d"/>
       <use x="290.576172" xlink:href="#DejaVuSans-31"/>
       <use x="354.199219" xlink:href="#DejaVuSans-32"/>
      </g>
     </g>
    </g>
    <g id="xtick_5">
     <g id="line2d_5">
      <g>
       <use style="stroke:#000000;stroke-width:0.8;" x="261.188434" xlink:href="#m1b78039f1a" y="276.48"/>
      </g>
     </g>
     <g id="text_5">
      <!-- 2022-01 -->
      <g transform="translate(223.963613 310.951846)rotate(-30)scale(0.1 -0.1)">
       <use xlink:href="#DejaVuSans-32"/>
       <use x="63.623047" xlink:href="#DejaVuSans-30"/>
       <use x="127.246094" xlink:href="#DejaVuSans-32"/>
       <use x="190.869141" xlink:href="#DejaVuSans-32"/>
       <use x="254.492188" xlink:href="#DejaVuSans-2d"/>
       <use x="290.576172" xlink:href="#DejaVuSans-30"/>
       <use x="354.199219" xlink:href="#DejaVuSans-31"/>
      </g>
     </g>
    </g>
    <g id="xtick_6">
     <g id="line2d_6">
      <g>
       <use style="stroke:#000000;stroke-width:0.8;" x="305.524517" xlink:href="#m1b78039f1a" y="276.48"/>
      </g>
     </g>
     <g id="text_6">
      <!-- 2022-02 -->
      <g transform="translate(268.299697 310.951846)rotate(-30)scale(0.1 -0.1)">
       <use xlink:href="#DejaVuSans-32"/>
       <use x="63.623047" xlink:href="#DejaVuSans-30"/>
       <use x="127.246094" xlink:href="#DejaVuSans-32"/>
       <use x="190.869141" xlink:href="#DejaVuSans-32"/>
       <use x="254.492188" xlink:href="#DejaVuSans-2d"/>
       <use x="290.576172" xlink:href="#DejaVuSans-30"/>
       <use x="354.199219" xlink:href="#DejaVuSans-32"/>
      </g>
     </g>
    </g>
    <g id="xtick_7">
     <g id="line2d_7">
      <g>
       <use style="stroke:#000000;stroke-width:0.8;" x="345.570012" xlink:href="#m1b78039f1a" y="276.48"/>
      </g>
     </g>
     <g id="text_7">
      <!-- 2022-03 -->
      <g transform="translate(308.345191 310.951846)rotate(-30)scale(0.1 -0.1)">
       <defs>
        <path d="M 2597 2516 
Q 3050 2419 3304 2112 
Q 3559 1806 3559 1356 
Q 3559 666 3084 287 
Q 2609 -91 1734 -91 
Q 1441 -91 1130 -33 
Q 819 25 488 141 
L 488 750 
Q 750 597 1062 519 
Q 1375 441 1716 441 
Q 2309 441 2620 675 
Q 2931 909 2931 1356 
Q 2931 1769 2642 2001 
Q 2353 2234 1838 2234 
L 1294 2234 
L 1294 2753 
L 1863 2753 
Q 2328 2753 2575 2939 
Q 2822 3125 2822 3475 
Q 2822 3834 2567 4026 
Q 2313 4219 1838 4219 
Q 1578 4219 1281 4162 
Q 984 4106 628 3988 
L 628 4550 
Q 988 4650 1302 4700 
Q 1616 4750 1894 4750 
Q 2613 4750 3031 4423 
Q 3450 4097 3450 3541 
Q 3450 3153 3228 2886 
Q 3006 2619 2597 2516 
z
" id="DejaVuSans-33" transform="scale(0.015625)"/>
       </defs>
       <use xlink:href="#DejaVuSans-32"/>
       <use x="63.623047" xlink:href="#DejaVuSans-30"/>
       <use x="127.246094" xlink:href="#DejaVuSans-32"/>
       <use x="190.869141" xlink:href="#DejaVuSans-32"/>
       <use x="254.492188" xlink:href="#DejaVuSans-2d"/>
       <use x="290.576172" xlink:href="#DejaVuSans-30"/>
       <use x="354.199219" xlink:href="#DejaVuSans-33"/>
      </g>
     </g>
    </g>
    <g id="xtick_8">
     <g id="line2d_8">
      <g>
       <use style="stroke:#000000;stroke-width:0.8;" x="389.906095" xlink:href="#m1b78039f1a" y="276.48"/>
      </g>
     </g>
     <g id="text_8">
      <!-- 2022-04 -->
      <g transform="translate(352.681274 310.951846)rotate(-30)scale(0.1 -0.1)">
       <defs>
        <path d="M 2419 4116 
L 825 1625 
L 2419 1625 
L 2419 4116 
z
M 2253 4666 
L 3047 4666 
L 3047 1625 
L 3713 1625 
L 3713 1100 
L 3047 1100 
L 3047 0 
L 2419 0 
L 2419 1100 
L 313 1100 
L 313 1709 
L 2253 4666 
z
" id="DejaVuSans-34" transform="scale(0.015625)"/>
       </defs>
       <use xlink:href="#DejaVuSans-32"/>
       <use x="63.623047" xlink:href="#DejaVuSans-30"/>
       <use x="127.246094" xlink:href="#DejaVuSans-32"/>
       <use x="190.869141" xlink:href="#DejaVuSans-32"/>
       <use x="254.492188" xlink:href="#DejaVuSans-2d"/>
       <use x="290.576172" xlink:href="#DejaVuSans-30"/>
       <use x="354.199219" xlink:href="#DejaVuSans-34"/>
      </g>
     </g>
    </g>
    <g id="text_9">
     <!-- date -->
     <g transform="translate(224.885 324.351346)scale(0.1 -0.1)">
      <defs>
       <path d="M 2906 2969 
L 2906 4863 
L 3481 4863 
L 3481 0 
L 2906 0 
L 2906 525 
Q 2725 213 2448 61 
Q 2172 -91 1784 -91 
Q 1150 -91 751 415 
Q 353 922 353 1747 
Q 353 2572 751 3078 
Q 1150 3584 1784 3584 
Q 2172 3584 2448 3432 
Q 2725 3281 2906 2969 
z
M 947 1747 
Q 947 1113 1208 752 
Q 1469 391 1925 391 
Q 2381 391 2643 752 
Q 2906 1113 2906 1747 
Q 2906 2381 2643 2742 
Q 2381 3103 1925 3103 
Q 1469 3103 1208 2742 
Q 947 2381 947 1747 
z
" id="DejaVuSans-64" transform="scale(0.015625)"/>
       <path d="M 2194 1759 
Q 1497 1759 1228 1600 
Q 959 1441 959 1056 
Q 959 750 1161 570 
Q 1363 391 1709 391 
Q 2188 391 2477 730 
Q 2766 1069 2766 1631 
L 2766 1759 
L 2194 1759 
z
M 3341 1997 
L 3341 0 
L 2766 0 
L 2766 531 
Q 2569 213 2275 61 
Q 1981 -91 1556 -91 
Q 1019 -91 701 211 
Q 384 513 384 1019 
Q 384 1609 779 1909 
Q 1175 2209 1959 2209 
L 2766 2209 
L 2766 2266 
Q 2766 2663 2505 2880 
Q 2244 3097 1772 3097 
Q 1472 3097 1187 3025 
Q 903 2953 641 2809 
L 641 3341 
Q 956 3463 1253 3523 
Q 1550 3584 1831 3584 
Q 2591 3584 2966 3190 
Q 3341 2797 3341 1997 
z
" id="DejaVuSans-61" transform="scale(0.015625)"/>
       <path d="M 1172 4494 
L 1172 3500 
L 2356 3500 
L 2356 3053 
L 1172 3053 
L 1172 1153 
Q 1172 725 1289 603 
Q 1406 481 1766 481 
L 2356 481 
L 2356 0 
L 1766 0 
Q 1100 0 847 248 
Q 594 497 594 1153 
L 594 3053 
L 172 3053 
L 172 3500 
L 594 3500 
L 594 4494 
L 1172 4494 
z
" id="DejaVuSans-74" transform="scale(0.015625)"/>
       <path d="M 3597 1894 
L 3597 1613 
L 953 1613 
Q 991 1019 1311 708 
Q 1631 397 2203 397 
Q 2534 397 2845 478 
Q 3156 559 3463 722 
L 3463 178 
Q 3153 47 2828 -22 
Q 2503 -91 2169 -91 
Q 1331 -91 842 396 
Q 353 884 353 1716 
Q 353 2575 817 3079 
Q 1281 3584 2069 3584 
Q 2775 3584 3186 3129 
Q 3597 2675 3597 1894 
z
M 3022 2063 
Q 3016 2534 2758 2815 
Q 2500 3097 2075 3097 
Q 1594 3097 1305 2825 
Q 1016 2553 972 2059 
L 3022 2063 
z
" id="DejaVuSans-65" transform="scale(0.015625)"/>
      </defs>
      <use xlink:href="#DejaVuSans-64"/>
      <use x="63.476562" xlink:href="#DejaVuSans-61"/>
      <use x="124.755859" xlink:href="#DejaVuSans-74"/>
      <use x="163.964844" xlink:href="#DejaVuSans-65"/>
     </g>
    </g>
   </g>
   <g id="matplotlib.axis_2">
    <g id="ytick_1">
     <g id="line2d_9">
      <defs>
       <path d="M 0 0 
L -3.5 0 
" id="m737949f54a" style="stroke:#000000;stroke-width:0.8;"/>
      </defs>
      <g>
       <use style="stroke:#000000;stroke-width:0.8;" x="57.6" xlink:href="#m737949f54a" y="249.590773"/>
      </g>
     </g>
     <g id="text_10">
      <!-- 85000 -->
      <g transform="translate(18.7875 253.389991)scale(0.1 -0.1)">
       <defs>
        <path d="M 2034 2216 
Q 1584 2216 1326 1975 
Q 1069 1734 1069 1313 
Q 1069 891 1326 650 
Q 1584 409 2034 409 
Q 2484 409 2743 651 
Q 3003 894 3003 1313 
Q 3003 1734 2745 1975 
Q 2488 2216 2034 2216 
z
M 1403 2484 
Q 997 2584 770 2862 
Q 544 3141 544 3541 
Q 544 4100 942 4425 
Q 1341 4750 2034 4750 
Q 2731 4750 3128 4425 
Q 3525 4100 3525 3541 
Q 3525 3141 3298 2862 
Q 3072 2584 2669 2484 
Q 3125 2378 3379 2068 
Q 3634 1759 3634 1313 
Q 3634 634 3220 271 
Q 2806 -91 2034 -91 
Q 1263 -91 848 271 
Q 434 634 434 1313 
Q 434 1759 690 2068 
Q 947 2378 1403 2484 
z
M 1172 3481 
Q 1172 3119 1398 2916 
Q 1625 2713 2034 2713 
Q 2441 2713 2670 2916 
Q 2900 3119 2900 3481 
Q 2900 3844 2670 4047 
Q 2441 4250 2034 4250 
Q 1625 4250 1398 4047 
Q 1172 3844 1172 3481 
z
" id="DejaVuSans-38" transform="scale(0.015625)"/>
        <path d="M 691 4666 
L 3169 4666 
L 3169 4134 
L 1269 4134 
L 1269 2991 
Q 1406 3038 1543 3061 
Q 1681 3084 1819 3084 
Q 2600 3084 3056 2656 
Q 3513 2228 3513 1497 
Q 3513 744 3044 326 
Q 2575 -91 1722 -91 
Q 1428 -91 1123 -41 
Q 819 9 494 109 
L 494 744 
Q 775 591 1075 516 
Q 1375 441 1709 441 
Q 2250 441 2565 725 
Q 2881 1009 2881 1497 
Q 2881 1984 2565 2268 
Q 2250 2553 1709 2553 
Q 1456 2553 1204 2497 
Q 953 2441 691 2322 
L 691 4666 
z
" id="DejaVuSans-35" transform="scale(0.015625)"/>
       </defs>
       <use xlink:href="#DejaVuSans-38"/>
       <use x="63.623047" xlink:href="#DejaVuSans-35"/>
       <use x="127.246094" xlink:href="#DejaVuSans-30"/>
       <use x="190.869141" xlink:href="#DejaVuSans-30"/>
       <use x="254.492188" xlink:href="#DejaVuSans-30"/>
      </g>
     </g>
    </g>
    <g id="ytick_2">
     <g id="line2d_10">
      <g>
       <use style="stroke:#000000;stroke-width:0.8;" x="57.6" xlink:href="#m737949f54a" y="216.688262"/>
      </g>
     </g>
     <g id="text_11">
      <!-- 90000 -->
      <g transform="translate(18.7875 220.487481)scale(0.1 -0.1)">
       <use xlink:href="#DejaVuSans-39"/>
       <use x="63.623047" xlink:href="#DejaVuSans-30"/>
       <use x="127.246094" xlink:href="#DejaVuSans-30"/>
       <use x="190.869141" xlink:href="#DejaVuSans-30"/>
       <use x="254.492188" xlink:href="#DejaVuSans-30"/>
      </g>
     </g>
    </g>
    <g id="ytick_3">
     <g id="line2d_11">
      <g>
       <use style="stroke:#000000;stroke-width:0.8;" x="57.6" xlink:href="#m737949f54a" y="183.785751"/>
      </g>
     </g>
     <g id="text_12">
      <!-- 95000 -->
      <g transform="translate(18.7875 187.58497)scale(0.1 -0.1)">
       <use xlink:href="#DejaVuSans-39"/>
       <use x="63.623047" xlink:href="#DejaVuSans-35"/>
       <use x="127.246094" xlink:href="#DejaVuSans-30"/>
       <use x="190.869141" xlink:href="#DejaVuSans-30"/>
       <use x="254.492188" xlink:href="#DejaVuSans-30"/>
      </g>
     </g>
    </g>
    <g id="ytick_4">
     <g id="line2d_12">
      <g>
       <use style="stroke:#000000;stroke-width:0.8;" x="57.6" xlink:href="#m737949f54a" y="150.88324"/>
      </g>
     </g>
     <g id="text_13">
      <!-- 100000 -->
      <g transform="translate(12.425 154.682459)scale(0.1 -0.1)">
       <use xlink:href="#DejaVuSans-31"/>
       <use x="63.623047" xlink:href="#DejaVuSans-30"/>
       <use x="127.246094" xlink:href="#DejaVuSans-30"/>
       <use x="190.869141" xlink:href="#DejaVuSans-30"/>
       <use x="254.492188" xlink:href="#DejaVuSans-30"/>
       <use x="318.115234" xlink:href="#DejaVuSans-30"/>
      </g>
     </g>
    </g>
    <g id="ytick_5">
     <g id="line2d_13">
      <g>
       <use style="stroke:#000000;stroke-width:0.8;" x="57.6" xlink:href="#m737949f54a" y="117.980729"/>
      </g>
     </g>
     <g id="text_14">
      <!-- 105000 -->
      <g transform="translate(12.425 121.779948)scale(0.1 -0.1)">
       <use xlink:href="#DejaVuSans-31"/>
       <use x="63.623047" xlink:href="#DejaVuSans-30"/>
       <use x="127.246094" xlink:href="#DejaVuSans-35"/>
       <use x="190.869141" xlink:href="#DejaVuSans-30"/>
       <use x="254.492188" xlink:href="#DejaVuSans-30"/>
       <use x="318.115234" xlink:href="#DejaVuSans-30"/>
      </g>
     </g>
    </g>
    <g id="ytick_6">
     <g id="line2d_14">
      <g>
       <use style="stroke:#000000;stroke-width:0.8;" x="57.6" xlink:href="#m737949f54a" y="85.078219"/>
      </g>
     </g>
     <g id="text_15">
      <!-- 110000 -->
      <g transform="translate(12.425 88.877437)scale(0.1 -0.1)">
       <use xlink:href="#DejaVuSans-31"/>
       <use x="63.623047" xlink:href="#DejaVuSans-31"/>
       <use x="127.246094" xlink:href="#DejaVuSans-30"/>
       <use x="190.869141" xlink:href="#DejaVuSans-30"/>
       <use x="254.492188" xlink:href="#DejaVuSans-30"/>
       <use x="318.115234" xlink:href="#DejaVuSans-30"/>
      </g>
     </g>
    </g>
    <g id="ytick_7">
     <g id="line2d_15">
      <g>
       <use style="stroke:#000000;stroke-width:0.8;" x="57.6" xlink:href="#m737949f54a" y="52.175708"/>
      </g>
     </g>
     <g id="text_16">
      <!-- 115000 -->
      <g transform="translate(12.425 55.974926)scale(0.1 -0.1)">
       <use xlink:href="#DejaVuSans-31"/>
       <use x="63.623047" xlink:href="#DejaVuSans-31"/>
       <use x="127.246094" xlink:href="#DejaVuSans-35"/>
       <use x="190.869141" xlink:href="#DejaVuSans-30"/>
       <use x="254.492188" xlink:href="#DejaVuSans-30"/>
       <use x="318.115234" xlink:href="#DejaVuSans-30"/>
      </g>
     </g>
    </g>
   </g>
   <g id="line2d_16">
    <path clip-path="url(#p02c8df4ece)" d="M 73.832727 150.88324 
L 75.262924 151.238476 
L 76.69312 148.248647 
L 78.123316 152.054458 
L 79.553512 145.869722 
L 85.274297 140.60817 
L 86.704493 142.153795 
L 88.13469 141.369772 
L 89.564886 141.548559 
L 95.285671 141.712166 
L 96.715867 144.23432 
L 98.146063 145.861699 
L 99.57626 152.074528 
L 103.866848 146.400402 
L 105.297044 156.213174 
L 106.727241 151.918929 
L 108.157437 153.221054 
L 109.587633 159.736849 
L 113.878222 171.212216 
L 115.308418 172.556173 
L 116.738614 168.225943 
L 118.168811 157.942619 
L 119.599007 152.415962 
L 123.889596 147.239136 
L 125.319792 161.00933 
L 126.749988 159.31526 
L 128.180184 164.343831 
L 129.61038 154.135068 
L 133.900969 166.44067 
L 135.331165 156.615765 
L 136.761362 154.006817 
L 138.191558 153.630032 
L 139.621754 152.996929 
L 143.912343 152.387077 
L 145.342539 151.714213 
L 146.772735 159.982887 
L 148.202932 147.062448 
L 149.633128 145.894641 
L 153.923716 140.925654 
L 155.353913 134.065395 
L 156.784109 131.350957 
L 158.214305 143.181478 
L 159.644501 151.462724 
L 163.93509 150.957192 
L 165.365286 156.637007 
L 166.795483 158.546492 
L 168.225679 149.844629 
L 169.655875 158.818344 
L 173.946464 145.2816 
L 175.37666 145.210423 
L 176.806856 138.505706 
L 178.237052 146.91329 
L 179.667249 142.567896 
L 183.957837 142.112188 
L 185.388034 150.3408 
L 186.81823 149.973941 
L 188.248426 155.508523 
L 189.678622 150.385117 
L 193.969211 147.771274 
L 195.399407 148.262316 
L 196.829604 151.739437 
L 198.2598 153.522657 
L 199.689996 153.587427 
L 203.980585 149.572645 
L 205.410781 143.954787 
L 206.840977 144.844128 
L 209.70137 145.089888 
L 213.991958 150.834027 
L 215.422155 163.806187 
L 216.852351 172.461458 
L 218.282547 164.320488 
L 219.712743 168.19826 
L 224.003332 156.610789 
L 225.433528 144.437726 
L 226.863724 139.430468 
L 228.293921 138.93821 
L 229.724117 137.07475 
L 234.014706 143.410068 
L 236.875098 136.411101 
L 238.305294 133.707171 
L 239.735491 141.410438 
L 244.026079 150.36228 
L 245.456276 135.455824 
L 246.886472 132.059605 
L 248.316668 126.293972 
L 254.037453 117.892686 
L 255.467649 117.678799 
L 256.897845 117.807192 
L 258.328042 118.708262 
L 259.758238 121.806479 
L 264.048827 111.290049 
L 265.479023 102.859362 
L 266.909219 120.748564 
L 268.339415 115.178942 
L 269.769612 112.732905 
L 274.0602 112.029113 
L 275.490396 105.852914 
L 276.920593 104.867955 
L 278.350789 112.863898 
L 279.780985 111.112598 
L 285.50177 126.392588 
L 286.931966 129.681326 
L 288.362163 137.235035 
L 289.792359 152.586385 
L 294.082948 151.70728 
L 295.513144 159.418803 
L 296.94334 159.726004 
L 298.373536 163.698359 
L 299.803732 146.849437 
L 304.094321 132.802357 
L 305.524517 126.583167 
L 306.954714 116.017391 
L 308.38491 160.778481 
L 309.815106 160.395035 
L 314.105695 171.559592 
L 315.535891 172.668497 
L 316.966087 158.387734 
L 318.396284 169.982755 
L 319.82648 184.2941 
L 324.117068 189.166593 
L 325.547265 180.945617 
L 326.977461 184.261192 
L 328.407657 195.808186 
L 329.837853 199.797372 
L 335.558638 206.573692 
L 336.988835 214.912965 
L 338.419031 201.885236 
L 339.849227 190.461885 
L 344.139816 192.295408 
L 345.570012 201.978015 
L 347.000208 189.411247 
L 348.430404 191.894362 
L 349.860601 196.346585 
L 354.151189 221.773227 
L 355.581386 221.678976 
L 357.011582 197.078103 
L 358.441778 205.424567 
L 359.871974 215.868424 
L 364.162563 217.965586 
L 365.592759 206.285269 
L 367.022956 187.016255 
L 368.453152 180.124157 
L 369.883348 168.904281 
L 374.173937 171.435538 
L 375.604133 159.242195 
L 377.034329 166.339899 
L 378.464525 154.937879 
L 379.894722 148.277665 
L 384.18531 146.384435 
L 385.615507 140.259028 
L 387.045703 142.563314 
L 388.475899 157.88649 
L 389.906095 154.88636 
L 394.196684 146.70156 
L 395.62688 154.077076 
L 397.057076 164.443643 
L 398.487273 178.347291 
L 398.487273 178.347291 
" style="fill:none;stroke:#0000ff;stroke-linecap:square;stroke-opacity:0.9;stroke-width:2;"/>
   </g>
   <g id="line2d_17">
    <path clip-path="url(#p02c8df4ece)" d="M 73.832727 150.88324 
L 75.262924 147.488572 
L 76.69312 144.478353 
L 78.123316 148.36104 
L 79.553512 140.120892 
L 85.274297 137.352926 
L 86.704493 137.224116 
L 88.13469 138.043125 
L 89.564886 137.97268 
L 95.285671 136.992947 
L 96.715867 139.66704 
L 98.146063 140.911659 
L 99.57626 148.077356 
L 103.866848 143.375831 
L 105.297044 149.329312 
L 106.727241 146.346205 
L 108.157437 148.288601 
L 109.587633 156.365386 
L 113.878222 167.112749 
L 115.308418 167.362135 
L 116.738614 163.519544 
L 118.168811 155.01259 
L 119.599007 150.153383 
L 123.889596 146.133323 
L 125.319792 159.082337 
L 126.749988 157.959041 
L 128.180184 164.884497 
L 129.61038 154.813381 
L 133.900969 162.104804 
L 135.331165 153.210952 
L 136.761362 151.45391 
L 138.191558 149.313701 
L 139.621754 146.205954 
L 143.912343 150.451919 
L 145.342539 155.254394 
L 146.772735 157.214404 
L 148.202932 141.072743 
L 149.633128 136.801356 
L 153.923716 135.152521 
L 155.353913 129.077624 
L 156.784109 125.844113 
L 158.214305 134.019854 
L 159.644501 137.742653 
L 163.93509 139.655558 
L 166.795483 147.058313 
L 168.225679 137.955007 
L 169.655875 136.33571 
L 173.946464 136.079979 
L 175.37666 133.952216 
L 176.806856 128.538088 
L 178.237052 130.074894 
L 179.667249 130.007274 
L 183.957837 128.810688 
L 185.388034 134.129744 
L 186.81823 137.628667 
L 188.248426 137.313413 
L 189.678622 133.037269 
L 193.969211 131.847642 
L 196.829604 133.95135 
L 198.2598 133.781727 
L 199.689996 136.080805 
L 203.980585 133.193773 
L 205.410781 127.087553 
L 206.840977 126.385358 
L 209.70137 143.843608 
L 213.991958 136.372905 
L 215.422155 150.947293 
L 216.852351 158.743183 
L 218.282547 149.704787 
L 219.712743 154.889724 
L 224.003332 144.633248 
L 225.433528 133.589426 
L 226.863724 129.539801 
L 228.293921 129.819374 
L 229.724117 125.51833 
L 234.014706 132.474044 
L 235.444902 132.198394 
L 236.875098 127.190669 
L 238.305294 126.543331 
L 239.735491 135.739272 
L 244.026079 143.429183 
L 245.456276 130.320564 
L 246.886472 126.743085 
L 248.316668 120.687063 
L 254.037453 111.713226 
L 255.467649 112.504556 
L 256.897845 112.096298 
L 258.328042 112.702413 
L 259.758238 115.519546 
L 264.048827 107.772184 
L 265.479023 101.448034 
L 266.909219 116.302141 
L 268.339415 113.584143 
L 269.769612 109.964725 
L 274.0602 110.835597 
L 275.490396 106.467733 
L 276.920593 106.390641 
L 278.350789 111.511407 
L 279.780985 112.452709 
L 285.50177 127.59853 
L 288.362163 140.340779 
L 289.792359 154.350046 
L 294.082948 155.105977 
L 295.513144 153.293729 
L 296.94334 154.286759 
L 298.373536 160.216628 
L 299.803732 144.518613 
L 304.094321 134.317532 
L 305.524517 126.040946 
L 306.954714 115.894246 
L 308.38491 146.198609 
L 309.815106 140.809438 
L 314.105695 145.376867 
L 315.535891 140.864115 
L 316.966087 134.829908 
L 318.396284 145.892274 
L 319.82648 159.301479 
L 324.117068 165.508079 
L 325.547265 158.126974 
L 326.977461 159.616496 
L 328.407657 172.171701 
L 329.837853 174.818848 
L 335.558638 180.567995 
L 336.988835 189.239449 
L 338.419031 185.56977 
L 339.849227 170.918658 
L 344.139816 177.116298 
L 345.570012 190.341363 
L 347.000208 175.045943 
L 348.430404 177.014756 
L 349.860601 185.687863 
L 354.151189 207.721478 
L 355.581386 210.841681 
L 357.011582 188.921284 
L 358.441778 196.485904 
L 359.871974 203.351105 
L 364.162563 203.888106 
L 365.592759 194.090943 
L 367.022956 179.959719 
L 368.453152 173.18195 
L 369.883348 167.016481 
L 374.173937 166.717221 
L 375.604133 156.423007 
L 377.034329 162.442201 
L 378.464525 153.296568 
L 379.894722 145.914002 
L 384.18531 145.20513 
L 385.615507 141.96304 
L 387.045703 142.619747 
L 388.475899 155.09721 
L 389.906095 152.503994 
L 394.196684 147.661738 
L 395.62688 154.408398 
L 397.057076 162.67702 
L 398.487273 162.558131 
L 398.487273 162.558131 
" style="fill:none;stroke:#ff0000;stroke-linecap:square;stroke-opacity:0.9;stroke-width:2;"/>
   </g>
   <g id="line2d_18">
    <path clip-path="url(#p02c8df4ece)" d="M 73.832727 150.88324 
L 75.262924 147.219667 
L 76.69312 144.585146 
L 78.123316 148.158687 
L 79.553512 142.083164 
L 83.844101 137.877856 
L 85.274297 137.001136 
L 86.704493 138.440378 
L 88.13469 137.058134 
L 89.564886 137.498774 
L 95.285671 137.606644 
L 96.715867 140.231847 
L 98.146063 142.195129 
L 99.57626 148.009783 
L 103.866848 142.224341 
L 105.297044 151.34455 
L 106.727241 147.188655 
L 108.157437 148.646767 
L 109.587633 155.162406 
L 113.878222 166.523772 
L 115.308418 167.756174 
L 116.738614 163.055855 
L 118.168811 153.162483 
L 119.599007 147.148799 
L 123.889596 141.707506 
L 125.319792 155.640386 
L 126.749988 153.703725 
L 128.180184 158.36734 
L 129.61038 148.209255 
L 133.900969 160.819661 
L 135.331165 150.734867 
L 136.761362 147.83858 
L 138.191558 146.454366 
L 139.621754 143.815883 
L 143.912343 147.367909 
L 145.342539 152.165424 
L 146.772735 153.435904 
L 148.202932 140.853946 
L 149.633128 139.762362 
L 153.923716 134.538465 
L 155.353913 127.751559 
L 156.784109 124.463332 
L 158.214305 135.474135 
L 159.644501 144.131413 
L 163.93509 144.150533 
L 165.365286 150.188222 
L 166.795483 151.101056 
L 168.225679 142.793935 
L 169.655875 141.761137 
L 173.946464 138.17135 
L 175.37666 137.149973 
L 176.806856 132.051759 
L 178.237052 131.428395 
L 179.667249 126.513758 
L 183.957837 125.74597 
L 185.388034 134.323623 
L 186.81823 139.496098 
L 188.248426 139.923969 
L 189.678622 134.703894 
L 193.969211 132.468704 
L 195.399407 135.962944 
L 196.829604 135.838526 
L 198.2598 138.023512 
L 199.689996 137.999852 
L 203.980585 133.548814 
L 205.410781 127.962996 
L 206.840977 128.877556 
L 209.70137 143.89664 
L 213.991958 135.119079 
L 215.422155 148.781509 
L 216.852351 157.756543 
L 218.282547 149.916068 
L 219.712743 154.191613 
L 224.003332 141.521648 
L 225.433528 129.969437 
L 226.863724 124.179786 
L 228.293921 123.807921 
L 229.724117 121.395209 
L 234.014706 128.192041 
L 235.444902 125.039768 
L 236.875098 120.737102 
L 238.305294 118.306775 
L 239.735491 126.780513 
L 244.026079 136.004209 
L 245.456276 119.627857 
L 246.886472 116.751398 
L 248.316668 110.188243 
L 254.037453 101.807296 
L 255.467649 102.238465 
L 256.897845 102.243023 
L 258.328042 102.802384 
L 259.758238 106.484702 
L 264.048827 95.785995 
L 265.479023 86.20964 
L 266.909219 105.103317 
L 268.339415 98.054078 
L 269.769612 95.051769 
L 274.0602 93.873333 
L 275.490396 87.344644 
L 276.920593 86.045387 
L 278.350789 94.719496 
L 279.780985 92.721507 
L 285.50177 108.009104 
L 286.931966 111.135583 
L 288.362163 119.00823 
L 289.792359 135.284336 
L 294.082948 133.785868 
L 295.513144 142.484869 
L 296.94334 141.676891 
L 298.373536 146.370773 
L 299.803732 129.261916 
L 304.094321 114.44347 
L 305.524517 107.897648 
L 306.954714 96.106993 
L 308.38491 143.955732 
L 309.815106 143.261299 
L 314.105695 154.72332 
L 315.535891 156.010988 
L 316.966087 141.636985 
L 318.396284 153.268128 
L 319.82648 168.035471 
L 324.117068 172.228512 
L 325.547265 164.524875 
L 326.977461 167.669057 
L 328.407657 179.558548 
L 329.837853 183.81415 
L 335.558638 190.130393 
L 336.988835 198.749073 
L 338.419031 184.153346 
L 339.849227 172.79085 
L 344.139816 174.655262 
L 345.570012 184.672278 
L 347.000208 171.723485 
L 348.430404 175.206906 
L 354.151189 210.859706 
L 355.581386 208.160965 
L 357.011582 181.730203 
L 358.441778 190.653063 
L 359.871974 200.72163 
L 364.162563 201.603472 
L 365.592759 189.310681 
L 367.022956 168.522737 
L 368.453152 161.588107 
L 369.883348 151.36821 
L 374.173937 154.466155 
L 375.604133 139.938599 
L 377.034329 148.420275 
L 378.464525 137.94402 
L 379.894722 130.023773 
L 384.18531 130.179786 
L 385.615507 124.452614 
L 387.045703 128.3107 
L 388.475899 145.504072 
L 389.906095 143.759642 
L 394.196684 137.688225 
L 395.62688 146.242234 
L 397.057076 156.22007 
L 398.487273 158.618813 
L 398.487273 158.618813 
" style="fill:none;stroke:#ff8040;stroke-linecap:square;stroke-opacity:0.9;stroke-width:2;"/>
   </g>
   <g id="line2d_19">
    <path clip-path="url(#p02c8df4ece)" d="M 73.832727 151.54129 
L 75.262924 149.38056 
L 76.69312 148.248977 
L 78.123316 152.860955 
L 79.553512 145.592274 
L 83.844101 146.550439 
L 85.274297 145.696654 
L 86.704493 146.460834 
L 88.13469 147.878322 
L 89.564886 147.37285 
L 95.285671 148.720603 
L 96.715867 151.161602 
L 98.146063 152.873734 
L 99.57626 162.454215 
L 103.866848 158.046139 
L 105.297044 163.922877 
L 106.727241 162.617353 
L 108.157437 165.438436 
L 109.587633 174.683888 
L 113.878222 185.748316 
L 115.308418 184.701743 
L 116.738614 185.266259 
L 119.599007 173.567412 
L 123.889596 173.738264 
L 125.319792 186.646026 
L 126.749988 187.261196 
L 128.180184 192.706414 
L 129.61038 184.331977 
L 133.900969 194.065938 
L 135.331165 186.280076 
L 136.761362 184.726704 
L 138.191558 185.221706 
L 139.621754 182.254633 
L 143.912343 186.01355 
L 145.342539 192.126658 
L 146.772735 192.109782 
L 148.202932 177.695711 
L 149.633128 174.456088 
L 153.923716 172.4927 
L 155.353913 165.185541 
L 156.784109 164.610446 
L 158.214305 172.815129 
L 159.644501 173.398052 
L 163.93509 175.385876 
L 165.365286 179.690102 
L 166.795483 184.430876 
L 168.225679 175.8835 
L 169.655875 178.165721 
L 173.946464 172.169703 
L 175.37666 170.824684 
L 176.806856 166.261785 
L 178.237052 166.811711 
L 179.667249 166.210043 
L 183.957837 166.553179 
L 185.388034 171.355135 
L 186.81823 177.815263 
L 188.248426 177.420103 
L 189.678622 173.511177 
L 193.969211 171.939968 
L 195.399407 174.18113 
L 196.829604 173.445722 
L 198.2598 176.513437 
L 199.689996 178.624135 
L 203.980585 175.876411 
L 205.410781 172.789549 
L 206.840977 171.552335 
L 209.70137 187.102585 
L 213.991958 187.87578 
L 215.422155 200.438189 
L 216.852351 205.031861 
L 218.282547 195.962799 
L 219.712743 200.272507 
L 224.003332 191.350851 
L 225.433528 179.68935 
L 226.863724 176.008687 
L 228.293921 177.035744 
L 229.724117 172.7936 
L 234.014706 178.689943 
L 235.444902 178.423417 
L 236.875098 174.419242 
L 238.305294 170.828961 
L 239.735491 179.281651 
L 244.026079 184.576201 
L 245.456276 173.585795 
L 246.886472 171.277331 
L 248.316668 164.216926 
L 254.037453 153.646947 
L 256.897845 154.516863 
L 258.328042 153.569601 
L 259.758238 157.248288 
L 264.048827 152.583643 
L 265.479023 145.346393 
L 266.909219 157.065185 
L 268.339415 154.000182 
L 269.769612 149.620522 
L 274.0602 155.07636 
L 275.490396 150.840831 
L 276.920593 150.803868 
L 278.350789 154.767949 
L 279.780985 156.336413 
L 285.50177 169.127561 
L 286.931966 170.007733 
L 288.362163 176.544072 
L 289.792359 187.856109 
L 294.082948 188.921305 
L 295.513144 187.867607 
L 296.94334 188.995535 
L 298.373536 194.22873 
L 299.803732 182.103943 
L 304.094321 174.092647 
L 305.524517 165.544159 
L 306.954714 155.893892 
L 308.38491 215.927004 
L 309.815106 213.650045 
L 314.105695 220.404226 
L 315.535891 218.579458 
L 316.966087 209.670466 
L 318.396284 218.75376 
L 319.82648 231.936792 
L 324.117068 234.895155 
L 325.547265 228.968774 
L 326.977461 229.768833 
L 328.407657 241.625962 
L 329.837853 244.240494 
L 335.558638 249.837336 
L 336.988835 257.317873 
L 338.419031 252.375133 
L 339.849227 240.097928 
L 344.139816 245.221169 
L 345.570012 258.287298 
L 347.000208 242.174537 
L 348.430404 241.513544 
L 349.860601 244.762311 
L 354.151189 265.525735 
L 355.581386 265.797818 
L 357.011582 243.650222 
L 358.441778 251.551581 
L 359.871974 256.076977 
L 364.162563 260.390621 
L 365.592759 248.446673 
L 367.022956 234.434434 
L 369.883348 220.210757 
L 374.173937 219.799775 
L 375.604133 210.772541 
L 377.034329 218.465076 
L 378.464525 209.700602 
L 379.894722 204.66272 
L 384.18531 205.182969 
L 385.615507 202.251467 
L 387.045703 202.21518 
L 388.475899 215.181511 
L 389.906095 212.70738 
L 394.196684 207.454164 
L 395.62688 213.012605 
L 397.057076 224.408411 
L 398.487273 224.303369 
L 398.487273 224.303369 
" style="fill:none;stroke:#0d0d0d;stroke-linecap:square;stroke-opacity:0.25;stroke-width:2;"/>
   </g>
   <g id="line2d_20">
    <path clip-path="url(#p02c8df4ece)" d="M 73.832727 150.22519 
L 75.262924 145.200109 
L 76.69312 140.822414 
L 78.123316 144.154593 
L 79.553512 135.875927 
L 83.844101 126.918133 
L 85.274297 124.766402 
L 86.704493 125.196934 
L 88.13469 126.903986 
L 89.564886 126.809107 
L 95.285671 123.467613 
L 98.146063 126.363788 
L 99.57626 134.406423 
L 103.866848 128.48107 
L 105.297044 135.988611 
L 106.727241 133.029597 
L 108.157437 134.225283 
L 109.587633 142.280329 
L 113.878222 153.390793 
L 115.308418 152.579234 
L 116.738614 145.544998 
L 119.599007 129.536687 
L 123.889596 121.187513 
L 125.319792 135.996801 
L 126.749988 135.136722 
L 128.180184 141.313008 
L 129.61038 130.002151 
L 133.900969 139.326996 
L 135.331165 129.096353 
L 136.761362 127.293078 
L 138.191558 127.292203 
L 139.621754 123.411175 
L 143.912343 125.84502 
L 145.342539 131.834164 
L 146.772735 133.493179 
L 148.202932 114.876302 
L 149.633128 111.390115 
L 153.923716 109.013204 
L 155.353913 103.847664 
L 156.784109 99.469405 
L 158.214305 107.736926 
L 159.644501 109.505325 
L 163.93509 110.803097 
L 165.365286 111.543351 
L 166.795483 122.120347 
L 168.225679 112.215806 
L 169.655875 107.818087 
L 173.946464 106.044794 
L 175.37666 102.257564 
L 176.806856 96.14162 
L 178.237052 99.878554 
L 179.667249 101.961465 
L 183.957837 102.54217 
L 186.81823 111.693175 
L 188.248426 111.128611 
L 189.678622 102.812867 
L 193.969211 97.613014 
L 195.399407 100.734142 
L 196.829604 99.721156 
L 198.2598 103.340798 
L 199.689996 104.910181 
L 203.980585 103.585102 
L 205.410781 98.310908 
L 206.840977 97.565347 
L 209.70137 114.471855 
L 213.991958 106.056016 
L 215.422155 120.758392 
L 216.852351 127.512845 
L 218.282547 116.703876 
L 219.712743 124.517574 
L 224.003332 114.308481 
L 225.433528 100.878661 
L 226.863724 96.526142 
L 228.293921 96.155343 
L 229.724117 90.331037 
L 234.014706 97.705134 
L 235.444902 95.324853 
L 236.875098 91.003396 
L 238.305294 91.53964 
L 239.735491 100.422756 
L 244.026079 108.641313 
L 245.456276 95.95683 
L 246.886472 92.301431 
L 248.316668 84.448154 
L 254.037453 72.150835 
L 255.467649 72.363447 
L 256.897845 72.967016 
L 258.328042 72.775209 
L 259.758238 76.147906 
L 264.048827 65.72855 
L 265.479023 52.154182 
L 266.909219 72.467085 
L 268.339415 71.620289 
L 269.769612 67.970192 
L 274.0602 67.284615 
L 275.490396 62.907358 
L 276.920593 62.80989 
L 278.350789 69.502828 
L 279.780985 70.259386 
L 285.50177 87.379573 
L 286.931966 92.796261 
L 288.362163 99.036679 
L 289.792359 114.730298 
L 294.082948 116.196686 
L 295.513144 110.045807 
L 296.94334 110.011763 
L 298.373536 116.082401 
L 299.803732 96.081505 
L 304.094321 84.860178 
L 305.524517 76.062383 
L 306.954714 57.443858 
L 308.38491 88.953762 
L 309.815106 83.260335 
L 314.105695 86.114413 
L 315.535891 87.211993 
L 316.966087 78.428205 
L 318.396284 91.514796 
L 319.82648 107.804788 
L 324.117068 113.290181 
L 325.547265 106.037924 
L 326.977461 108.105937 
L 328.407657 123.696884 
L 329.837853 128.621509 
L 335.558638 135.126025 
L 336.988835 145.182179 
L 338.419031 142.25435 
L 339.849227 127.182156 
L 344.139816 131.722549 
L 345.570012 147.941341 
L 347.000208 131.34373 
L 348.430404 130.340047 
L 349.860601 140.723341 
L 354.151189 166.536106 
L 355.581386 169.477298 
L 357.011582 144.950474 
L 358.441778 153.234223 
L 359.871974 160.389697 
L 364.162563 159.70356 
L 365.592759 148.972958 
L 367.022956 134.028761 
L 368.453152 126.0621 
L 369.883348 115.661991 
L 374.173937 116.768525 
L 375.604133 105.863171 
L 377.034329 110.988055 
L 378.464525 101.135369 
L 379.894722 92.087 
L 384.18531 90.047811 
L 385.615507 85.161988 
L 387.045703 87.131111 
L 388.475899 100.067907 
L 389.906095 94.829787 
L 394.196684 89.606771 
L 395.62688 97.402765 
L 397.057076 108.310004 
L 398.487273 110.060366 
L 398.487273 110.060366 
" style="fill:none;stroke:#0d0d0d;stroke-linecap:square;stroke-opacity:0.25;stroke-width:2;"/>
   </g>
   <g id="patch_3">
    <path d="M 57.6 276.48 
L 57.6 41.472 
" style="fill:none;stroke:#000000;stroke-linecap:square;stroke-linejoin:miter;stroke-width:0.8;"/>
   </g>
   <g id="patch_4">
    <path d="M 414.72 276.48 
L 414.72 41.472 
" style="fill:none;stroke:#000000;stroke-linecap:square;stroke-linejoin:miter;stroke-width:0.8;"/>
   </g>
   <g id="patch_5">
    <path d="M 57.6 276.48 
L 414.72 276.48 
" style="fill:none;stroke:#000000;stroke-linecap:square;stroke-linejoin:miter;stroke-width:0.8;"/>
   </g>
   <g id="patch_6">
    <path d="M 57.6 41.472 
L 414.72 41.472 
" style="fill:none;stroke:#000000;stroke-linecap:square;stroke-linejoin:miter;stroke-width:0.8;"/>
   </g>
   <g id="text_17">
    <!-- TESTFUNDS1550 -->
    <g transform="translate(185.200312 22.034625)scale(0.12 -0.12)">
     <defs>
      <path d="M -19 4666 
L 3928 4666 
L 3928 4134 
L 2272 4134 
L 2272 0 
L 1638 0 
L 1638 4134 
L -19 4134 
L -19 4666 
z
" id="DejaVuSans-54" transform="scale(0.015625)"/>
      <path d="M 628 4666 
L 3578 4666 
L 3578 4134 
L 1259 4134 
L 1259 2753 
L 3481 2753 
L 3481 2222 
L 1259 2222 
L 1259 531 
L 3634 531 
L 3634 0 
L 628 0 
L 628 4666 
z
" id="DejaVuSans-45" transform="scale(0.015625)"/>
      <path d="M 3425 4513 
L 3425 3897 
Q 3066 4069 2747 4153 
Q 2428 4238 2131 4238 
Q 1616 4238 1336 4038 
Q 1056 3838 1056 3469 
Q 1056 3159 1242 3001 
Q 1428 2844 1947 2747 
L 2328 2669 
Q 3034 2534 3370 2195 
Q 3706 1856 3706 1288 
Q 3706 609 3251 259 
Q 2797 -91 1919 -91 
Q 1588 -91 1214 -16 
Q 841 59 441 206 
L 441 856 
Q 825 641 1194 531 
Q 1563 422 1919 422 
Q 2459 422 2753 634 
Q 3047 847 3047 1241 
Q 3047 1584 2836 1778 
Q 2625 1972 2144 2069 
L 1759 2144 
Q 1053 2284 737 2584 
Q 422 2884 422 3419 
Q 422 4038 858 4394 
Q 1294 4750 2059 4750 
Q 2388 4750 2728 4690 
Q 3069 4631 3425 4513 
z
" id="DejaVuSans-53" transform="scale(0.015625)"/>
      <path d="M 628 4666 
L 3309 4666 
L 3309 4134 
L 1259 4134 
L 1259 2759 
L 3109 2759 
L 3109 2228 
L 1259 2228 
L 1259 0 
L 628 0 
L 628 4666 
z
" id="DejaVuSans-46" transform="scale(0.015625)"/>
      <path d="M 556 4666 
L 1191 4666 
L 1191 1831 
Q 1191 1081 1462 751 
Q 1734 422 2344 422 
Q 2950 422 3222 751 
Q 3494 1081 3494 1831 
L 3494 4666 
L 4128 4666 
L 4128 1753 
Q 4128 841 3676 375 
Q 3225 -91 2344 -91 
Q 1459 -91 1007 375 
Q 556 841 556 1753 
L 556 4666 
z
" id="DejaVuSans-55" transform="scale(0.015625)"/>
      <path d="M 628 4666 
L 1478 4666 
L 3547 763 
L 3547 4666 
L 4159 4666 
L 4159 0 
L 3309 0 
L 1241 3903 
L 1241 0 
L 628 0 
L 628 4666 
z
" id="DejaVuSans-4e" transform="scale(0.015625)"/>
      <path d="M 1259 4147 
L 1259 519 
L 2022 519 
Q 2988 519 3436 956 
Q 3884 1394 3884 2338 
Q 3884 3275 3436 3711 
Q 2988 4147 2022 4147 
L 1259 4147 
z
M 628 4666 
L 1925 4666 
Q 3281 4666 3915 4102 
Q 4550 3538 4550 2338 
Q 4550 1131 3912 565 
Q 3275 0 1925 0 
L 628 0 
L 628 4666 
z
" id="DejaVuSans-44" transform="scale(0.015625)"/>
     </defs>
     <use xlink:href="#DejaVuSans-54"/>
     <use x="61.083984" xlink:href="#DejaVuSans-45"/>
     <use x="124.267578" xlink:href="#DejaVuSans-53"/>
     <use x="187.744141" xlink:href="#DejaVuSans-54"/>
     <use x="248.828125" xlink:href="#DejaVuSans-46"/>
     <use x="306.347656" xlink:href="#DejaVuSans-55"/>
     <use x="379.541016" xlink:href="#DejaVuSans-4e"/>
     <use x="454.345703" xlink:href="#DejaVuSans-44"/>
     <use x="531.347656" xlink:href="#DejaVuSans-53"/>
     <use x="594.824219" xlink:href="#DejaVuSans-31"/>
     <use x="658.447266" xlink:href="#DejaVuSans-35"/>
     <use x="722.070312" xlink:href="#DejaVuSans-35"/>
     <use x="785.693359" xlink:href="#DejaVuSans-30"/>
    </g>
    <!-- daily_report -->
    <g transform="translate(200.466563 35.472)scale(0.12 -0.12)">
     <defs>
      <path d="M 603 3500 
L 1178 3500 
L 1178 0 
L 603 0 
L 603 3500 
z
M 603 4863 
L 1178 4863 
L 1178 4134 
L 603 4134 
L 603 4863 
z
" id="DejaVuSans-69" transform="scale(0.015625)"/>
      <path d="M 603 4863 
L 1178 4863 
L 1178 0 
L 603 0 
L 603 4863 
z
" id="DejaVuSans-6c" transform="scale(0.015625)"/>
      <path d="M 2059 -325 
Q 1816 -950 1584 -1140 
Q 1353 -1331 966 -1331 
L 506 -1331 
L 506 -850 
L 844 -850 
Q 1081 -850 1212 -737 
Q 1344 -625 1503 -206 
L 1606 56 
L 191 3500 
L 800 3500 
L 1894 763 
L 2988 3500 
L 3597 3500 
L 2059 -325 
z
" id="DejaVuSans-79" transform="scale(0.015625)"/>
      <path d="M 3263 -1063 
L 3263 -1509 
L -63 -1509 
L -63 -1063 
L 3263 -1063 
z
" id="DejaVuSans-5f" transform="scale(0.015625)"/>
      <path d="M 2631 2963 
Q 2534 3019 2420 3045 
Q 2306 3072 2169 3072 
Q 1681 3072 1420 2755 
Q 1159 2438 1159 1844 
L 1159 0 
L 581 0 
L 581 3500 
L 1159 3500 
L 1159 2956 
Q 1341 3275 1631 3429 
Q 1922 3584 2338 3584 
Q 2397 3584 2469 3576 
Q 2541 3569 2628 3553 
L 2631 2963 
z
" id="DejaVuSans-72" transform="scale(0.015625)"/>
      <path d="M 1159 525 
L 1159 -1331 
L 581 -1331 
L 581 3500 
L 1159 3500 
L 1159 2969 
Q 1341 3281 1617 3432 
Q 1894 3584 2278 3584 
Q 2916 3584 3314 3078 
Q 3713 2572 3713 1747 
Q 3713 922 3314 415 
Q 2916 -91 2278 -91 
Q 1894 -91 1617 61 
Q 1341 213 1159 525 
z
M 3116 1747 
Q 3116 2381 2855 2742 
Q 2594 3103 2138 3103 
Q 1681 3103 1420 2742 
Q 1159 2381 1159 1747 
Q 1159 1113 1420 752 
Q 1681 391 2138 391 
Q 2594 391 2855 752 
Q 3116 1113 3116 1747 
z
" id="DejaVuSans-70" transform="scale(0.015625)"/>
      <path d="M 1959 3097 
Q 1497 3097 1228 2736 
Q 959 2375 959 1747 
Q 959 1119 1226 758 
Q 1494 397 1959 397 
Q 2419 397 2687 759 
Q 2956 1122 2956 1747 
Q 2956 2369 2687 2733 
Q 2419 3097 1959 3097 
z
M 1959 3584 
Q 2709 3584 3137 3096 
Q 3566 2609 3566 1747 
Q 3566 888 3137 398 
Q 2709 -91 1959 -91 
Q 1206 -91 779 398 
Q 353 888 353 1747 
Q 353 2609 779 3096 
Q 1206 3584 1959 3584 
z
" id="DejaVuSans-6f" transform="scale(0.015625)"/>
     </defs>
     <use xlink:href="#DejaVuSans-64"/>
     <use x="63.476562" xlink:href="#DejaVuSans-61"/>
     <use x="124.755859" xlink:href="#DejaVuSans-69"/>
     <use x="152.539062" xlink:href="#DejaVuSans-6c"/>
     <use x="180.322266" xlink:href="#DejaVuSans-79"/>
     <use x="239.501953" xlink:href="#DejaVuSans-5f"/>
     <use x="289.501953" xlink:href="#DejaVuSans-72"/>
     <use x="328.365234" xlink:href="#DejaVuSans-65"/>
     <use x="389.888672" xlink:href="#DejaVuSans-70"/>
     <use x="453.365234" xlink:href="#DejaVuSans-6f"/>
     <use x="514.546875" xlink:href="#DejaVuSans-72"/>
     <use x="555.660156" xlink:href="#DejaVuSans-74"/>
    </g>
   </g>
   <g id="legend_1">
    <g id="patch_7">
     <path d="M 64.6 271.48 
L 155.792188 271.48 
Q 157.792188 271.48 157.792188 269.48 
L 157.792188 197.089375 
Q 157.792188 195.089375 155.792188 195.089375 
L 64.6 195.089375 
Q 62.6 195.089375 62.6 197.089375 
L 62.6 269.48 
Q 62.6 271.48 64.6 271.48 
z
" style="fill:#ffffff;opacity:0.8;stroke:#cccccc;stroke-linejoin:miter;"/>
    </g>
    <g id="line2d_21">
     <path d="M 66.6 203.187812 
L 86.6 203.187812 
" style="fill:none;stroke:#0000ff;stroke-linecap:square;stroke-opacity:0.9;stroke-width:2;"/>
    </g>
    <g id="line2d_22"/>
    <g id="text_18">
     <!-- alpaca -->
     <g transform="translate(94.6 206.687812)scale(0.1 -0.1)">
      <defs>
       <path d="M 3122 3366 
L 3122 2828 
Q 2878 2963 2633 3030 
Q 2388 3097 2138 3097 
Q 1578 3097 1268 2742 
Q 959 2388 959 1747 
Q 959 1106 1268 751 
Q 1578 397 2138 397 
Q 2388 397 2633 464 
Q 2878 531 3122 666 
L 3122 134 
Q 2881 22 2623 -34 
Q 2366 -91 2075 -91 
Q 1284 -91 818 406 
Q 353 903 353 1747 
Q 353 2603 823 3093 
Q 1294 3584 2113 3584 
Q 2378 3584 2631 3529 
Q 2884 3475 3122 3366 
z
" id="DejaVuSans-63" transform="scale(0.015625)"/>
      </defs>
      <use xlink:href="#DejaVuSans-61"/>
      <use x="61.279297" xlink:href="#DejaVuSans-6c"/>
      <use x="89.0625" xlink:href="#DejaVuSans-70"/>
      <use x="152.539062" xlink:href="#DejaVuSans-61"/>
      <use x="213.818359" xlink:href="#DejaVuSans-63"/>
      <use x="268.798828" xlink:href="#DejaVuSans-61"/>
     </g>
    </g>
    <g id="line2d_23">
     <path d="M 66.6 217.865937 
L 86.6 217.865937 
" style="fill:none;stroke:#ff0000;stroke-linecap:square;stroke-opacity:0.9;stroke-width:2;"/>
    </g>
    <g id="line2d_24"/>
    <g id="text_19">
     <!-- mattress -->
     <g transform="translate(94.6 221.365937)scale(0.1 -0.1)">
      <defs>
       <path d="M 3328 2828 
Q 3544 3216 3844 3400 
Q 4144 3584 4550 3584 
Q 5097 3584 5394 3201 
Q 5691 2819 5691 2113 
L 5691 0 
L 5113 0 
L 5113 2094 
Q 5113 2597 4934 2840 
Q 4756 3084 4391 3084 
Q 3944 3084 3684 2787 
Q 3425 2491 3425 1978 
L 3425 0 
L 2847 0 
L 2847 2094 
Q 2847 2600 2669 2842 
Q 2491 3084 2119 3084 
Q 1678 3084 1418 2786 
Q 1159 2488 1159 1978 
L 1159 0 
L 581 0 
L 581 3500 
L 1159 3500 
L 1159 2956 
Q 1356 3278 1631 3431 
Q 1906 3584 2284 3584 
Q 2666 3584 2933 3390 
Q 3200 3197 3328 2828 
z
" id="DejaVuSans-6d" transform="scale(0.015625)"/>
       <path d="M 2834 3397 
L 2834 2853 
Q 2591 2978 2328 3040 
Q 2066 3103 1784 3103 
Q 1356 3103 1142 2972 
Q 928 2841 928 2578 
Q 928 2378 1081 2264 
Q 1234 2150 1697 2047 
L 1894 2003 
Q 2506 1872 2764 1633 
Q 3022 1394 3022 966 
Q 3022 478 2636 193 
Q 2250 -91 1575 -91 
Q 1294 -91 989 -36 
Q 684 19 347 128 
L 347 722 
Q 666 556 975 473 
Q 1284 391 1588 391 
Q 1994 391 2212 530 
Q 2431 669 2431 922 
Q 2431 1156 2273 1281 
Q 2116 1406 1581 1522 
L 1381 1569 
Q 847 1681 609 1914 
Q 372 2147 372 2553 
Q 372 3047 722 3315 
Q 1072 3584 1716 3584 
Q 2034 3584 2315 3537 
Q 2597 3491 2834 3397 
z
" id="DejaVuSans-73" transform="scale(0.015625)"/>
      </defs>
      <use xlink:href="#DejaVuSans-6d"/>
      <use x="97.412109" xlink:href="#DejaVuSans-61"/>
      <use x="158.691406" xlink:href="#DejaVuSans-74"/>
      <use x="197.900391" xlink:href="#DejaVuSans-74"/>
      <use x="237.109375" xlink:href="#DejaVuSans-72"/>
      <use x="275.972656" xlink:href="#DejaVuSans-65"/>
      <use x="337.496094" xlink:href="#DejaVuSans-73"/>
      <use x="389.595703" xlink:href="#DejaVuSans-73"/>
     </g>
    </g>
    <g id="line2d_25">
     <path d="M 66.6 232.544062 
L 86.6 232.544062 
" style="fill:none;stroke:#ff8040;stroke-linecap:square;stroke-opacity:0.9;stroke-width:2;"/>
    </g>
    <g id="line2d_26"/>
    <g id="text_20">
     <!-- trader-0850 -->
     <g transform="translate(94.6 236.044062)scale(0.1 -0.1)">
      <use xlink:href="#DejaVuSans-74"/>
      <use x="39.208984" xlink:href="#DejaVuSans-72"/>
      <use x="80.322266" xlink:href="#DejaVuSans-61"/>
      <use x="141.601562" xlink:href="#DejaVuSans-64"/>
      <use x="205.078125" xlink:href="#DejaVuSans-65"/>
      <use x="266.601562" xlink:href="#DejaVuSans-72"/>
      <use x="301.339844" xlink:href="#DejaVuSans-2d"/>
      <use x="337.423828" xlink:href="#DejaVuSans-30"/>
      <use x="401.046875" xlink:href="#DejaVuSans-38"/>
      <use x="464.669922" xlink:href="#DejaVuSans-35"/>
      <use x="528.292969" xlink:href="#DejaVuSans-30"/>
     </g>
    </g>
    <g id="line2d_27">
     <path d="M 66.6 247.222187 
L 86.6 247.222187 
" style="fill:none;stroke:#0d0d0d;stroke-linecap:square;stroke-opacity:0.25;stroke-width:2;"/>
    </g>
    <g id="line2d_28"/>
    <g id="text_21">
     <!-- rando-min -->
     <g transform="translate(94.6 250.722187)scale(0.1 -0.1)">
      <defs>
       <path d="M 3513 2113 
L 3513 0 
L 2938 0 
L 2938 2094 
Q 2938 2591 2744 2837 
Q 2550 3084 2163 3084 
Q 1697 3084 1428 2787 
Q 1159 2491 1159 1978 
L 1159 0 
L 581 0 
L 581 3500 
L 1159 3500 
L 1159 2956 
Q 1366 3272 1645 3428 
Q 1925 3584 2291 3584 
Q 2894 3584 3203 3211 
Q 3513 2838 3513 2113 
z
" id="DejaVuSans-6e" transform="scale(0.015625)"/>
      </defs>
      <use xlink:href="#DejaVuSans-72"/>
      <use x="41.113281" xlink:href="#DejaVuSans-61"/>
      <use x="102.392578" xlink:href="#DejaVuSans-6e"/>
      <use x="165.771484" xlink:href="#DejaVuSans-64"/>
      <use x="229.248047" xlink:href="#DejaVuSans-6f"/>
      <use x="292.304688" xlink:href="#DejaVuSans-2d"/>
      <use x="328.388672" xlink:href="#DejaVuSans-6d"/>
      <use x="425.800781" xlink:href="#DejaVuSans-69"/>
      <use x="453.583984" xlink:href="#DejaVuSans-6e"/>
     </g>
    </g>
    <g id="line2d_29">
     <path d="M 66.6 261.900312 
L 86.6 261.900312 
" style="fill:none;stroke:#0d0d0d;stroke-linecap:square;stroke-opacity:0.25;stroke-width:2;"/>
    </g>
    <g id="line2d_30"/>
    <g id="text_22">
     <!-- rando-max -->
     <g transform="translate(94.6 265.400312)scale(0.1 -0.1)">
      <defs>
       <path d="M 3513 3500 
L 2247 1797 
L 3578 0 
L 2900 0 
L 1881 1375 
L 863 0 
L 184 0 
L 1544 1831 
L 300 3500 
L 978 3500 
L 1906 2253 
L 2834 3500 
L 3513 3500 
z
" id="DejaVuSans-78" transform="scale(0.015625)"/>
      </defs>
      <use xlink:href="#DejaVuSans-72"/>
      <use x="41.113281" xlink:href="#DejaVuSans-61"/>
      <use x="102.392578" xlink:href="#DejaVuSans-6e"/>
      <use x="165.771484" xlink:href="#DejaVuSans-64"/>
      <use x="229.248047" xlink:href="#DejaVuSans-6f"/>
      <use x="292.304688" xlink:href="#DejaVuSans-2d"/>
      <use x="328.388672" xlink:href="#DejaVuSans-6d"/>
      <use x="425.800781" xlink:href="#DejaVuSans-61"/>
      <use x="487.080078" xlink:href="#DejaVuSans-78"/>
     </g>
    </g>
   </g>
  </g>
 </g>
 <defs>
  <clipPath id="p02c8df4ece">
   <rect height="235.008" width="357.12" x="57.6" y="41.472"/>
  </clipPath>
 </defs>
</svg>
