<?xml version="1.0" encoding="utf-8" standalone="no"?>
<!DOCTYPE svg PUBLIC "-//W3C//DTD SVG 1.1//EN"
  "http://www.w3.org/Graphics/SVG/1.1/DTD/svg11.dtd">
<svg height="345.6pt" version="1.1" viewBox="0 0 460.8 345.6" width="460.8pt" xmlns="http://www.w3.org/2000/svg" xmlns:xlink="http://www.w3.org/1999/xlink">
 <metadata>
  <rdf:RDF xmlns:cc="http://creativecommons.org/ns#" xmlns:dc="http://purl.org/dc/elements/1.1/" xmlns:rdf="http://www.w3.org/1999/02/22-rdf-syntax-ns#">
   <cc:Work>
    <dc:type rdf:resource="http://purl.org/dc/dcmitype/StillImage"/>
    <dc:date>2022-05-10T10:01:41.805794</dc:date>
    <dc:format>image/svg+xml</dc:format>
    <dc:creator>
     <cc:Agent>
      <dc:title>Matplotlib v3.4.3, https://matplotlib.org/</dc:title>
     </cc:Agent>
    </dc:creator>
   </cc:Work>
  </rdf:RDF>
 </metadata>
 <defs>
  <style type="text/css">*{stroke-linecap:butt;stroke-linejoin:round;}</style>
 </defs>
 <g id="figure_1">
  <g id="patch_1">
   <path d="M 0 345.6 
L 460.8 345.6 
L 460.8 0 
L 0 0 
z
" style="fill:#ffffff;"/>
  </g>
  <g id="axes_1">
   <g id="patch_2">
    <path d="M 57.6 276.48 
L 414.72 276.48 
L 414.72 41.472 
L 57.6 41.472 
z
" style="fill:#ffffff;"/>
   </g>
   <g id="matplotlib.axis_1">
    <g id="xtick_1">
     <g id="line2d_1">
      <defs>
       <path d="M 0 0 
L 0 3.5 
" id="m19f85f0600" style="stroke:#000000;stroke-width:0.8;"/>
      </defs>
      <g>
       <use style="stroke:#000000;stroke-width:0.8;" x="98.370571" xlink:href="#m19f85f0600" y="276.48"/>
      </g>
     </g>
     <g id="text_1">
      <!-- 2021-12 -->
      <g transform="translate(61.14575 310.951846)rotate(-30)scale(0.1 -0.1)">
       <defs>
        <path d="M 1228 531 
L 3431 531 
L 3431 0 
L 469 0 
L 469 531 
Q 828 903 1448 1529 
Q 2069 2156 2228 2338 
Q 2531 2678 2651 2914 
Q 2772 3150 2772 3378 
Q 2772 3750 2511 3984 
Q 2250 4219 1831 4219 
Q 1534 4219 1204 4116 
Q 875 4013 500 3803 
L 500 4441 
Q 881 4594 1212 4672 
Q 1544 4750 1819 4750 
Q 2544 4750 2975 4387 
Q 3406 4025 3406 3419 
Q 3406 3131 3298 2873 
Q 3191 2616 2906 2266 
Q 2828 2175 2409 1742 
Q 1991 1309 1228 531 
z
" id="DejaVuSans-32" transform="scale(0.015625)"/>
        <path d="M 2034 4250 
Q 1547 4250 1301 3770 
Q 1056 3291 1056 2328 
Q 1056 1369 1301 889 
Q 1547 409 2034 409 
Q 2525 409 2770 889 
Q 3016 1369 3016 2328 
Q 3016 3291 2770 3770 
Q 2525 4250 2034 4250 
z
M 2034 4750 
Q 2819 4750 3233 4129 
Q 3647 3509 3647 2328 
Q 3647 1150 3233 529 
Q 2819 -91 2034 -91 
Q 1250 -91 836 529 
Q 422 1150 422 2328 
Q 422 3509 836 4129 
Q 1250 4750 2034 4750 
z
" id="DejaVuSans-30" transform="scale(0.015625)"/>
        <path d="M 794 531 
L 1825 531 
L 1825 4091 
L 703 3866 
L 703 4441 
L 1819 4666 
L 2450 4666 
L 2450 531 
L 3481 531 
L 3481 0 
L 794 0 
L 794 531 
z
" id="DejaVuSans-31" transform="scale(0.015625)"/>
        <path d="M 313 2009 
L 1997 2009 
L 1997 1497 
L 313 1497 
L 313 2009 
z
" id="DejaVuSans-2d" transform="scale(0.015625)"/>
       </defs>
       <use xlink:href="#DejaVuSans-32"/>
       <use x="63.623047" xlink:href="#DejaVuSans-30"/>
       <use x="127.246094" xlink:href="#DejaVuSans-32"/>
       <use x="190.869141" xlink:href="#DejaVuSans-31"/>
       <use x="254.492188" xlink:href="#DejaVuSans-2d"/>
       <use x="290.576172" xlink:href="#DejaVuSans-31"/>
       <use x="354.199219" xlink:href="#DejaVuSans-32"/>
      </g>
     </g>
    </g>
    <g id="xtick_2">
     <g id="line2d_2">
      <g>
       <use style="stroke:#000000;stroke-width:0.8;" x="156.88389" xlink:href="#m19f85f0600" y="276.48"/>
      </g>
     </g>
     <g id="text_2">
      <!-- 2022-01 -->
      <g transform="translate(119.659069 310.951846)rotate(-30)scale(0.1 -0.1)">
       <use xlink:href="#DejaVuSans-32"/>
       <use x="63.623047" xlink:href="#DejaVuSans-30"/>
       <use x="127.246094" xlink:href="#DejaVuSans-32"/>
       <use x="190.869141" xlink:href="#DejaVuSans-32"/>
       <use x="254.492188" xlink:href="#DejaVuSans-2d"/>
       <use x="290.576172" xlink:href="#DejaVuSans-30"/>
       <use x="354.199219" xlink:href="#DejaVuSans-31"/>
      </g>
     </g>
    </g>
    <g id="xtick_3">
     <g id="line2d_3">
      <g>
       <use style="stroke:#000000;stroke-width:0.8;" x="215.397209" xlink:href="#m19f85f0600" y="276.48"/>
      </g>
     </g>
     <g id="text_3">
      <!-- 2022-02 -->
      <g transform="translate(178.172388 310.951846)rotate(-30)scale(0.1 -0.1)">
       <use xlink:href="#DejaVuSans-32"/>
       <use x="63.623047" xlink:href="#DejaVuSans-30"/>
       <use x="127.246094" xlink:href="#DejaVuSans-32"/>
       <use x="190.869141" xlink:href="#DejaVuSans-32"/>
       <use x="254.492188" xlink:href="#DejaVuSans-2d"/>
       <use x="290.576172" xlink:href="#DejaVuSans-30"/>
       <use x="354.199219" xlink:href="#DejaVuSans-32"/>
      </g>
     </g>
    </g>
    <g id="xtick_4">
     <g id="line2d_4">
      <g>
       <use style="stroke:#000000;stroke-width:0.8;" x="268.247949" xlink:href="#m19f85f0600" y="276.48"/>
      </g>
     </g>
     <g id="text_4">
      <!-- 2022-03 -->
      <g transform="translate(231.023128 310.951846)rotate(-30)scale(0.1 -0.1)">
       <defs>
        <path d="M 2597 2516 
Q 3050 2419 3304 2112 
Q 3559 1806 3559 1356 
Q 3559 666 3084 287 
Q 2609 -91 1734 -91 
Q 1441 -91 1130 -33 
Q 819 25 488 141 
L 488 750 
Q 750 597 1062 519 
Q 1375 441 1716 441 
Q 2309 441 2620 675 
Q 2931 909 2931 1356 
Q 2931 1769 2642 2001 
Q 2353 2234 1838 2234 
L 1294 2234 
L 1294 2753 
L 1863 2753 
Q 2328 2753 2575 2939 
Q 2822 3125 2822 3475 
Q 2822 3834 2567 4026 
Q 2313 4219 1838 4219 
Q 1578 4219 1281 4162 
Q 984 4106 628 3988 
L 628 4550 
Q 988 4650 1302 4700 
Q 1616 4750 1894 4750 
Q 2613 4750 3031 4423 
Q 3450 4097 3450 3541 
Q 3450 3153 3228 2886 
Q 3006 2619 2597 2516 
z
" id="DejaVuSans-33" transform="scale(0.015625)"/>
       </defs>
       <use xlink:href="#DejaVuSans-32"/>
       <use x="63.623047" xlink:href="#DejaVuSans-30"/>
       <use x="127.246094" xlink:href="#DejaVuSans-32"/>
       <use x="190.869141" xlink:href="#DejaVuSans-32"/>
       <use x="254.492188" xlink:href="#DejaVuSans-2d"/>
       <use x="290.576172" xlink:href="#DejaVuSans-30"/>
       <use x="354.199219" xlink:href="#DejaVuSans-33"/>
      </g>
     </g>
    </g>
    <g id="xtick_5">
     <g id="line2d_5">
      <g>
       <use style="stroke:#000000;stroke-width:0.8;" x="326.761268" xlink:href="#m19f85f0600" y="276.48"/>
      </g>
     </g>
     <g id="text_5">
      <!-- 2022-04 -->
      <g transform="translate(289.536448 310.951846)rotate(-30)scale(0.1 -0.1)">
       <defs>
        <path d="M 2419 4116 
L 825 1625 
L 2419 1625 
L 2419 4116 
z
M 2253 4666 
L 3047 4666 
L 3047 1625 
L 3713 1625 
L 3713 1100 
L 3047 1100 
L 3047 0 
L 2419 0 
L 2419 1100 
L 313 1100 
L 313 1709 
L 2253 4666 
z
" id="DejaVuSans-34" transform="scale(0.015625)"/>
       </defs>
       <use xlink:href="#DejaVuSans-32"/>
       <use x="63.623047" xlink:href="#DejaVuSans-30"/>
       <use x="127.246094" xlink:href="#DejaVuSans-32"/>
       <use x="190.869141" xlink:href="#DejaVuSans-32"/>
       <use x="254.492188" xlink:href="#DejaVuSans-2d"/>
       <use x="290.576172" xlink:href="#DejaVuSans-30"/>
       <use x="354.199219" xlink:href="#DejaVuSans-34"/>
      </g>
     </g>
    </g>
    <g id="xtick_6">
     <g id="line2d_6">
      <g>
       <use style="stroke:#000000;stroke-width:0.8;" x="383.387061" xlink:href="#m19f85f0600" y="276.48"/>
      </g>
     </g>
     <g id="text_6">
      <!-- 2022-05 -->
      <g transform="translate(346.16224 310.951846)rotate(-30)scale(0.1 -0.1)">
       <defs>
        <path d="M 691 4666 
L 3169 4666 
L 3169 4134 
L 1269 4134 
L 1269 2991 
Q 1406 3038 1543 3061 
Q 1681 3084 1819 3084 
Q 2600 3084 3056 2656 
Q 3513 2228 3513 1497 
Q 3513 744 3044 326 
Q 2575 -91 1722 -91 
Q 1428 -91 1123 -41 
Q 819 9 494 109 
L 494 744 
Q 775 591 1075 516 
Q 1375 441 1709 441 
Q 2250 441 2565 725 
Q 2881 1009 2881 1497 
Q 2881 1984 2565 2268 
Q 2250 2553 1709 2553 
Q 1456 2553 1204 2497 
Q 953 2441 691 2322 
L 691 4666 
z
" id="DejaVuSans-35" transform="scale(0.015625)"/>
       </defs>
       <use xlink:href="#DejaVuSans-32"/>
       <use x="63.623047" xlink:href="#DejaVuSans-30"/>
       <use x="127.246094" xlink:href="#DejaVuSans-32"/>
       <use x="190.869141" xlink:href="#DejaVuSans-32"/>
       <use x="254.492188" xlink:href="#DejaVuSans-2d"/>
       <use x="290.576172" xlink:href="#DejaVuSans-30"/>
       <use x="354.199219" xlink:href="#DejaVuSans-35"/>
      </g>
     </g>
    </g>
    <g id="text_7">
     <!-- date -->
     <g transform="translate(224.885 324.351346)scale(0.1 -0.1)">
      <defs>
       <path d="M 2906 2969 
L 2906 4863 
L 3481 4863 
L 3481 0 
L 2906 0 
L 2906 525 
Q 2725 213 2448 61 
Q 2172 -91 1784 -91 
Q 1150 -91 751 415 
Q 353 922 353 1747 
Q 353 2572 751 3078 
Q 1150 3584 1784 3584 
Q 2172 3584 2448 3432 
Q 2725 3281 2906 2969 
z
M 947 1747 
Q 947 1113 1208 752 
Q 1469 391 1925 391 
Q 2381 391 2643 752 
Q 2906 1113 2906 1747 
Q 2906 2381 2643 2742 
Q 2381 3103 1925 3103 
Q 1469 3103 1208 2742 
Q 947 2381 947 1747 
z
" id="DejaVuSans-64" transform="scale(0.015625)"/>
       <path d="M 2194 1759 
Q 1497 1759 1228 1600 
Q 959 1441 959 1056 
Q 959 750 1161 570 
Q 1363 391 1709 391 
Q 2188 391 2477 730 
Q 2766 1069 2766 1631 
L 2766 1759 
L 2194 1759 
z
M 3341 1997 
L 3341 0 
L 2766 0 
L 2766 531 
Q 2569 213 2275 61 
Q 1981 -91 1556 -91 
Q 1019 -91 701 211 
Q 384 513 384 1019 
Q 384 1609 779 1909 
Q 1175 2209 1959 2209 
L 2766 2209 
L 2766 2266 
Q 2766 2663 2505 2880 
Q 2244 3097 1772 3097 
Q 1472 3097 1187 3025 
Q 903 2953 641 2809 
L 641 3341 
Q 956 3463 1253 3523 
Q 1550 3584 1831 3584 
Q 2591 3584 2966 3190 
Q 3341 2797 3341 1997 
z
" id="DejaVuSans-61" transform="scale(0.015625)"/>
       <path d="M 1172 4494 
L 1172 3500 
L 2356 3500 
L 2356 3053 
L 1172 3053 
L 1172 1153 
Q 1172 725 1289 603 
Q 1406 481 1766 481 
L 2356 481 
L 2356 0 
L 1766 0 
Q 1100 0 847 248 
Q 594 497 594 1153 
L 594 3053 
L 172 3053 
L 172 3500 
L 594 3500 
L 594 4494 
L 1172 4494 
z
" id="DejaVuSans-74" transform="scale(0.015625)"/>
       <path d="M 3597 1894 
L 3597 1613 
L 953 1613 
Q 991 1019 1311 708 
Q 1631 397 2203 397 
Q 2534 397 2845 478 
Q 3156 559 3463 722 
L 3463 178 
Q 3153 47 2828 -22 
Q 2503 -91 2169 -91 
Q 1331 -91 842 396 
Q 353 884 353 1716 
Q 353 2575 817 3079 
Q 1281 3584 2069 3584 
Q 2775 3584 3186 3129 
Q 3597 2675 3597 1894 
z
M 3022 2063 
Q 3016 2534 2758 2815 
Q 2500 3097 2075 3097 
Q 1594 3097 1305 2825 
Q 1016 2553 972 2059 
L 3022 2063 
z
" id="DejaVuSans-65" transform="scale(0.015625)"/>
      </defs>
      <use xlink:href="#DejaVuSans-64"/>
      <use x="63.476562" xlink:href="#DejaVuSans-61"/>
      <use x="124.755859" xlink:href="#DejaVuSans-74"/>
      <use x="163.964844" xlink:href="#DejaVuSans-65"/>
     </g>
    </g>
   </g>
   <g id="matplotlib.axis_2">
    <g id="ytick_1">
     <g id="line2d_7">
      <defs>
       <path d="M 0 0 
L -3.5 0 
" id="m576cd24c0d" style="stroke:#000000;stroke-width:0.8;"/>
      </defs>
      <g>
       <use style="stroke:#000000;stroke-width:0.8;" x="57.6" xlink:href="#m576cd24c0d" y="261.022666"/>
      </g>
     </g>
     <g id="text_8">
      <!-- 80000 -->
      <g transform="translate(18.7875 264.821885)scale(0.1 -0.1)">
       <defs>
        <path d="M 2034 2216 
Q 1584 2216 1326 1975 
Q 1069 1734 1069 1313 
Q 1069 891 1326 650 
Q 1584 409 2034 409 
Q 2484 409 2743 651 
Q 3003 894 3003 1313 
Q 3003 1734 2745 1975 
Q 2488 2216 2034 2216 
z
M 1403 2484 
Q 997 2584 770 2862 
Q 544 3141 544 3541 
Q 544 4100 942 4425 
Q 1341 4750 2034 4750 
Q 2731 4750 3128 4425 
Q 3525 4100 3525 3541 
Q 3525 3141 3298 2862 
Q 3072 2584 2669 2484 
Q 3125 2378 3379 2068 
Q 3634 1759 3634 1313 
Q 3634 634 3220 271 
Q 2806 -91 2034 -91 
Q 1263 -91 848 271 
Q 434 634 434 1313 
Q 434 1759 690 2068 
Q 947 2378 1403 2484 
z
M 1172 3481 
Q 1172 3119 1398 2916 
Q 1625 2713 2034 2713 
Q 2441 2713 2670 2916 
Q 2900 3119 2900 3481 
Q 2900 3844 2670 4047 
Q 2441 4250 2034 4250 
Q 1625 4250 1398 4047 
Q 1172 3844 1172 3481 
z
" id="DejaVuSans-38" transform="scale(0.015625)"/>
       </defs>
       <use xlink:href="#DejaVuSans-38"/>
       <use x="63.623047" xlink:href="#DejaVuSans-30"/>
       <use x="127.246094" xlink:href="#DejaVuSans-30"/>
       <use x="190.869141" xlink:href="#DejaVuSans-30"/>
       <use x="254.492188" xlink:href="#DejaVuSans-30"/>
      </g>
     </g>
    </g>
    <g id="ytick_2">
     <g id="line2d_8">
      <g>
       <use style="stroke:#000000;stroke-width:0.8;" x="57.6" xlink:href="#m576cd24c0d" y="234.615648"/>
      </g>
     </g>
     <g id="text_9">
      <!-- 82500 -->
      <g transform="translate(18.7875 238.414867)scale(0.1 -0.1)">
       <use xlink:href="#DejaVuSans-38"/>
       <use x="63.623047" xlink:href="#DejaVuSans-32"/>
       <use x="127.246094" xlink:href="#DejaVuSans-35"/>
       <use x="190.869141" xlink:href="#DejaVuSans-30"/>
       <use x="254.492188" xlink:href="#DejaVuSans-30"/>
      </g>
     </g>
    </g>
    <g id="ytick_3">
     <g id="line2d_9">
      <g>
       <use style="stroke:#000000;stroke-width:0.8;" x="57.6" xlink:href="#m576cd24c0d" y="208.208631"/>
      </g>
     </g>
     <g id="text_10">
      <!-- 85000 -->
      <g transform="translate(18.7875 212.007849)scale(0.1 -0.1)">
       <use xlink:href="#DejaVuSans-38"/>
       <use x="63.623047" xlink:href="#DejaVuSans-35"/>
       <use x="127.246094" xlink:href="#DejaVuSans-30"/>
       <use x="190.869141" xlink:href="#DejaVuSans-30"/>
       <use x="254.492188" xlink:href="#DejaVuSans-30"/>
      </g>
     </g>
    </g>
    <g id="ytick_4">
     <g id="line2d_10">
      <g>
       <use style="stroke:#000000;stroke-width:0.8;" x="57.6" xlink:href="#m576cd24c0d" y="181.801613"/>
      </g>
     </g>
     <g id="text_11">
      <!-- 87500 -->
      <g transform="translate(18.7875 185.600831)scale(0.1 -0.1)">
       <defs>
        <path d="M 525 4666 
L 3525 4666 
L 3525 4397 
L 1831 0 
L 1172 0 
L 2766 4134 
L 525 4134 
L 525 4666 
z
" id="DejaVuSans-37" transform="scale(0.015625)"/>
       </defs>
       <use xlink:href="#DejaVuSans-38"/>
       <use x="63.623047" xlink:href="#DejaVuSans-37"/>
       <use x="127.246094" xlink:href="#DejaVuSans-35"/>
       <use x="190.869141" xlink:href="#DejaVuSans-30"/>
       <use x="254.492188" xlink:href="#DejaVuSans-30"/>
      </g>
     </g>
    </g>
    <g id="ytick_5">
     <g id="line2d_11">
      <g>
       <use style="stroke:#000000;stroke-width:0.8;" x="57.6" xlink:href="#m576cd24c0d" y="155.394595"/>
      </g>
     </g>
     <g id="text_12">
      <!-- 90000 -->
      <g transform="translate(18.7875 159.193813)scale(0.1 -0.1)">
       <defs>
        <path d="M 703 97 
L 703 672 
Q 941 559 1184 500 
Q 1428 441 1663 441 
Q 2288 441 2617 861 
Q 2947 1281 2994 2138 
Q 2813 1869 2534 1725 
Q 2256 1581 1919 1581 
Q 1219 1581 811 2004 
Q 403 2428 403 3163 
Q 403 3881 828 4315 
Q 1253 4750 1959 4750 
Q 2769 4750 3195 4129 
Q 3622 3509 3622 2328 
Q 3622 1225 3098 567 
Q 2575 -91 1691 -91 
Q 1453 -91 1209 -44 
Q 966 3 703 97 
z
M 1959 2075 
Q 2384 2075 2632 2365 
Q 2881 2656 2881 3163 
Q 2881 3666 2632 3958 
Q 2384 4250 1959 4250 
Q 1534 4250 1286 3958 
Q 1038 3666 1038 3163 
Q 1038 2656 1286 2365 
Q 1534 2075 1959 2075 
z
" id="DejaVuSans-39" transform="scale(0.015625)"/>
       </defs>
       <use xlink:href="#DejaVuSans-39"/>
       <use x="63.623047" xlink:href="#DejaVuSans-30"/>
       <use x="127.246094" xlink:href="#DejaVuSans-30"/>
       <use x="190.869141" xlink:href="#DejaVuSans-30"/>
       <use x="254.492188" xlink:href="#DejaVuSans-30"/>
      </g>
     </g>
    </g>
    <g id="ytick_6">
     <g id="line2d_12">
      <g>
       <use style="stroke:#000000;stroke-width:0.8;" x="57.6" xlink:href="#m576cd24c0d" y="128.987577"/>
      </g>
     </g>
     <g id="text_13">
      <!-- 92500 -->
      <g transform="translate(18.7875 132.786795)scale(0.1 -0.1)">
       <use xlink:href="#DejaVuSans-39"/>
       <use x="63.623047" xlink:href="#DejaVuSans-32"/>
       <use x="127.246094" xlink:href="#DejaVuSans-35"/>
       <use x="190.869141" xlink:href="#DejaVuSans-30"/>
       <use x="254.492188" xlink:href="#DejaVuSans-30"/>
      </g>
     </g>
    </g>
    <g id="ytick_7">
     <g id="line2d_13">
      <g>
       <use style="stroke:#000000;stroke-width:0.8;" x="57.6" xlink:href="#m576cd24c0d" y="102.580559"/>
      </g>
     </g>
     <g id="text_14">
      <!-- 95000 -->
      <g transform="translate(18.7875 106.379778)scale(0.1 -0.1)">
       <use xlink:href="#DejaVuSans-39"/>
       <use x="63.623047" xlink:href="#DejaVuSans-35"/>
       <use x="127.246094" xlink:href="#DejaVuSans-30"/>
       <use x="190.869141" xlink:href="#DejaVuSans-30"/>
       <use x="254.492188" xlink:href="#DejaVuSans-30"/>
      </g>
     </g>
    </g>
    <g id="ytick_8">
     <g id="line2d_14">
      <g>
       <use style="stroke:#000000;stroke-width:0.8;" x="57.6" xlink:href="#m576cd24c0d" y="76.173541"/>
      </g>
     </g>
     <g id="text_15">
      <!-- 97500 -->
      <g transform="translate(18.7875 79.97276)scale(0.1 -0.1)">
       <use xlink:href="#DejaVuSans-39"/>
       <use x="63.623047" xlink:href="#DejaVuSans-37"/>
       <use x="127.246094" xlink:href="#DejaVuSans-35"/>
       <use x="190.869141" xlink:href="#DejaVuSans-30"/>
       <use x="254.492188" xlink:href="#DejaVuSans-30"/>
      </g>
     </g>
    </g>
    <g id="ytick_9">
     <g id="line2d_15">
      <g>
       <use style="stroke:#000000;stroke-width:0.8;" x="57.6" xlink:href="#m576cd24c0d" y="49.766523"/>
      </g>
     </g>
     <g id="text_16">
      <!-- 100000 -->
      <g transform="translate(12.425 53.565742)scale(0.1 -0.1)">
       <use xlink:href="#DejaVuSans-31"/>
       <use x="63.623047" xlink:href="#DejaVuSans-30"/>
       <use x="127.246094" xlink:href="#DejaVuSans-30"/>
       <use x="190.869141" xlink:href="#DejaVuSans-30"/>
       <use x="254.492188" xlink:href="#DejaVuSans-30"/>
       <use x="318.115234" xlink:href="#DejaVuSans-30"/>
      </g>
     </g>
    </g>
   </g>
   <g id="line2d_16">
    <path clip-path="url(#pc53cc09dcb)" d="M 73.832727 52.154182 
L 75.720254 56.908277 
L 81.382833 64.75218 
L 83.270359 65.581267 
L 85.157886 64.999801 
L 88.932939 65.161432 
L 94.595518 86.351555 
L 96.483044 99.383731 
L 98.370571 110.563882 
L 100.258097 93.916752 
L 102.145624 106.500384 
L 107.808203 95.820533 
L 109.695729 74.403493 
L 111.583256 70.076779 
L 113.470782 80.114284 
L 115.358309 77.513172 
L 121.020888 88.735569 
L 122.908414 94.77356 
L 124.795941 84.64245 
L 126.683467 90.445561 
L 128.570994 97.089137 
L 134.233573 114.29579 
L 136.121099 96.374793 
L 138.008626 87.828754 
L 139.896152 81.675959 
L 147.446258 73.190282 
L 149.333784 75.861488 
L 151.221311 76.371766 
L 153.108837 74.605899 
L 154.996364 77.003599 
L 160.658943 71.40825 
L 162.546469 72.121816 
L 164.433996 91.420256 
L 166.321522 91.009645 
L 168.209049 91.766632 
L 173.871628 94.943677 
L 175.759154 81.953992 
L 177.646681 75.551097 
L 179.534207 88.631669 
L 181.421734 88.996905 
L 188.971839 107.052409 
L 190.859366 112.414303 
L 192.746892 118.740927 
L 194.634419 135.877517 
L 200.296998 137.893798 
L 202.184524 147.207124 
L 204.072051 153.410377 
L 205.959577 161.448321 
L 207.847104 148.542119 
L 213.509683 125.361898 
L 215.397209 116.634711 
L 217.284736 113.548171 
L 219.172262 131.942258 
L 221.059789 127.612829 
L 226.722368 127.15714 
L 228.609894 118.411678 
L 230.497421 102.39805 
L 232.384947 114.944871 
L 234.272474 131.6389 
L 239.935053 135.993716 
L 241.822579 117.393409 
L 243.710106 114.62682 
L 245.597632 133.38212 
L 247.485159 140.971511 
L 255.035264 152.65426 
L 256.922791 167.205786 
L 258.810317 163.90245 
L 260.697844 143.665424 
L 266.360423 149.304584 
L 268.247949 164.853555 
L 270.135476 151.425109 
L 272.023002 163.797241 
L 273.910529 180.298535 
L 279.573108 210.466543 
L 281.460634 209.751848 
L 283.348161 181.290059 
L 285.235687 189.634742 
L 287.123214 202.637849 
L 292.785793 211.319386 
L 294.673319 200.678585 
L 296.560846 164.46166 
L 298.448372 156.408134 
L 300.335899 144.378945 
L 305.998478 150.523592 
L 307.886004 139.406559 
L 309.773531 151.598454 
L 311.661057 142.098056 
L 313.548584 142.132157 
L 319.211163 139.061537 
L 321.098689 121.410818 
L 322.986216 128.346655 
L 324.873742 142.656332 
L 326.761268 134.382128 
L 332.423848 125.377507 
L 334.311374 140.817664 
L 336.198901 153.088183 
L 338.086427 153.622947 
L 339.973953 154.360614 
L 345.636533 166.212433 
L 347.524059 170.381577 
L 349.411586 158.075316 
L 351.299112 166.48209 
L 358.849218 170.626848 
L 360.736744 161.560713 
L 362.624271 161.592701 
L 364.511797 177.320376 
L 366.399323 196.073345 
L 372.061903 196.498611 
L 373.949429 221.210796 
L 375.836956 216.564507 
L 377.724482 200.119312 
L 379.612008 219.443939 
L 385.274588 216.221494 
L 387.162114 211.291118 
L 389.049641 191.895602 
L 390.937167 225.29654 
L 392.824693 235.491034 
L 398.487273 254.691458 
" style="fill:none;stroke:#0000ff;stroke-linecap:square;stroke-opacity:0.9;stroke-width:2;"/>
   </g>
   <g id="line2d_17">
    <path clip-path="url(#pc53cc09dcb)" d="M 73.832727 52.154182 
L 75.720254 57.647568 
L 81.382833 65.261384 
L 83.270359 65.244557 
L 85.157886 65.240205 
L 88.932939 91.32043 
L 94.595518 86.380811 
L 96.483044 98.841318 
L 98.370571 110.38977 
L 100.258097 94.92548 
L 102.145624 105.751237 
L 107.808203 94.908756 
L 109.695729 75.205831 
L 111.583256 70.474116 
L 113.470782 80.210365 
L 115.358309 77.785227 
L 121.020888 88.587687 
L 122.908414 94.741679 
L 124.795941 84.74394 
L 126.683467 90.999874 
L 128.570994 96.261872 
L 134.233573 114.593709 
L 136.121099 96.611477 
L 138.008626 87.45156 
L 139.896152 81.423843 
L 147.446258 73.69901 
L 149.333784 75.722647 
L 151.221311 76.743596 
L 153.108837 74.900187 
L 154.996364 76.950191 
L 160.658943 71.251862 
L 162.546469 72.47626 
L 164.433996 91.544725 
L 166.321522 91.173976 
L 168.209049 91.869309 
L 173.871628 94.953036 
L 175.759154 81.924395 
L 177.646681 75.754699 
L 179.534207 88.360397 
L 181.421734 88.432726 
L 188.971839 106.565763 
L 190.859366 111.455548 
L 192.746892 118.294528 
L 194.634419 135.637552 
L 200.296998 137.293785 
L 202.184524 146.028778 
L 204.072051 152.772229 
L 205.959577 160.814881 
L 207.847104 147.486362 
L 213.509683 125.344287 
L 215.397209 116.967197 
L 217.284736 113.737283 
L 219.172262 131.166485 
L 221.059789 127.094218 
L 226.722368 126.913149 
L 228.609894 118.782019 
L 230.497421 101.199072 
L 232.384947 114.071699 
L 234.272474 131.210672 
L 239.935053 135.792427 
L 241.822579 117.269125 
L 243.710106 113.586717 
L 245.597632 133.057331 
L 247.485159 140.633689 
L 255.035264 153.030863 
L 256.922791 165.90932 
L 258.810317 164.722017 
L 260.697844 143.37078 
L 266.360423 149.594343 
L 268.247949 164.893034 
L 270.135476 152.344534 
L 272.023002 164.697237 
L 273.910529 180.67132 
L 279.573108 210.286041 
L 281.460634 209.522581 
L 283.348161 181.786491 
L 285.235687 189.882684 
L 287.123214 203.665416 
L 292.785793 212.291815 
L 294.673319 200.113905 
L 296.560846 165.16044 
L 298.448372 156.840154 
L 300.335899 144.604355 
L 305.998478 151.064421 
L 307.886004 139.605308 
L 309.773531 152.305593 
L 311.661057 142.755746 
L 313.548584 142.399025 
L 319.211163 140.164474 
L 321.098689 122.364756 
L 322.986216 129.118763 
L 324.873742 143.049234 
L 326.761268 134.31891 
L 332.423848 125.693608 
L 334.311374 141.330155 
L 336.198901 153.799656 
L 338.086427 153.79727 
L 339.973953 154.950558 
L 345.636533 167.185593 
L 347.524059 170.669438 
L 349.411586 158.789495 
L 351.299112 167.347256 
L 358.849218 171.118775 
L 360.736744 161.547408 
L 362.624271 162.019739 
L 364.511797 177.181758 
L 366.399323 196.363823 
L 372.061903 197.39719 
L 373.949429 221.80668 
L 375.836956 217.399722 
L 377.724482 200.432953 
L 379.612008 220.097729 
L 385.274588 217.504882 
L 387.162114 212.333245 
L 389.049641 192.951068 
L 390.937167 226.186422 
L 392.824693 236.075868 
L 398.487273 265.707479 
" style="fill:none;stroke:#ff0000;stroke-linecap:square;stroke-opacity:0.9;stroke-width:2;"/>
   </g>
   <g id="line2d_18">
    <path clip-path="url(#pc53cc09dcb)" d="M 73.832727 52.154182 
L 75.720254 57.080475 
L 81.382833 65.120271 
L 83.270359 65.70276 
L 85.157886 65.42141 
L 88.932939 91.618041 
L 94.595518 85.801988 
L 96.483044 99.104463 
L 98.370571 110.408959 
L 100.258097 94.172339 
L 102.145624 106.373265 
L 107.808203 95.536992 
L 109.695729 74.586831 
L 111.583256 69.356561 
L 113.470782 80.11622 
L 115.358309 77.138765 
L 121.020888 89.334356 
L 122.908414 95.247814 
L 124.795941 84.120247 
L 126.683467 90.622938 
L 128.570994 96.30733 
L 134.233573 114.372611 
L 136.121099 96.328448 
L 138.008626 87.366233 
L 139.896152 80.904384 
L 147.446258 73.587848 
L 149.333784 76.055022 
L 151.221311 76.154684 
L 153.108837 75.256718 
L 154.996364 77.234315 
L 160.658943 70.654506 
L 162.546469 72.517068 
L 164.433996 91.310989 
L 166.321522 90.977012 
L 168.209049 91.953249 
L 173.871628 95.308737 
L 175.759154 81.607959 
L 177.646681 76.257455 
L 179.534207 88.644731 
L 181.421734 88.96993 
L 188.971839 107.331858 
L 190.859366 112.517314 
L 192.746892 118.47931 
L 194.634419 135.722033 
L 200.296998 137.406112 
L 202.184524 146.246926 
L 204.072051 153.72315 
L 205.959577 161.123432 
L 207.847104 147.662459 
L 213.509683 125.440311 
L 215.397209 117.005133 
L 217.284736 114.158219 
L 219.172262 131.934965 
L 221.059789 127.056083 
L 226.722368 127.247355 
L 228.609894 118.563664 
L 230.497421 101.979359 
L 232.384947 114.486688 
L 234.272474 131.053646 
L 239.935053 136.578686 
L 241.822579 117.510077 
L 243.710106 114.391063 
L 245.597632 133.442655 
L 247.485159 140.946343 
L 255.035264 152.742288 
L 256.922791 166.962131 
L 258.810317 164.586141 
L 260.697844 143.705124 
L 266.360423 149.329563 
L 268.247949 164.900495 
L 270.135476 151.715985 
L 272.023002 164.600908 
L 273.910529 181.234456 
L 279.573108 210.595594 
L 281.460634 209.977034 
L 283.348161 181.436202 
L 285.235687 189.867543 
L 287.123214 202.864539 
L 292.785793 212.292884 
L 294.673319 200.895358 
L 296.560846 164.3647 
L 298.448372 156.751011 
L 300.335899 144.627539 
L 305.998478 150.55243 
L 307.886004 138.6479 
L 309.773531 151.066946 
L 311.661057 142.200605 
L 313.548584 142.020944 
L 319.211163 139.778931 
L 321.098689 121.971722 
L 322.986216 128.095021 
L 324.873742 142.984819 
L 326.761268 133.673355 
L 332.423848 125.288043 
L 334.311374 140.667555 
L 336.198901 153.135748 
L 338.086427 153.545902 
L 339.973953 155.024407 
L 345.636533 167.232551 
L 347.524059 170.849165 
L 349.411586 157.719147 
L 351.299112 167.229882 
L 358.849218 170.32784 
L 360.736744 161.569686 
L 362.624271 162.05735 
L 364.511797 176.813495 
L 366.399323 196.373515 
L 372.061903 196.124416 
L 373.949429 221.162302 
L 375.836956 217.561457 
L 377.724482 200.355542 
L 379.612008 219.113343 
L 385.274588 217.022946 
L 387.162114 211.173545 
L 389.049641 192.82251 
L 390.937167 225.358631 
L 392.824693 235.684411 
L 398.487273 265.797818 
" style="fill:none;stroke:#008000;stroke-linecap:square;stroke-opacity:0.9;stroke-width:2;"/>
   </g>
   <g id="line2d_19">
    <path clip-path="url(#pc53cc09dcb)" d="M 73.832727 52.154182 
L 75.720254 57.242165 
L 81.382833 64.667359 
L 83.270359 65.953122 
L 85.157886 65.632148 
L 88.932939 92.101961 
L 94.595518 86.457847 
L 96.483044 99.336131 
L 98.370571 110.170977 
L 100.258097 94.674132 
L 102.145624 105.766558 
L 107.808203 95.297883 
L 109.695729 74.690865 
L 111.583256 69.554585 
L 113.470782 80.577794 
L 115.358309 77.829789 
L 121.020888 89.482872 
L 122.908414 94.695358 
L 124.795941 84.010878 
L 126.683467 90.570099 
L 128.570994 97.061362 
L 134.233573 114.362914 
L 136.121099 97.243417 
L 138.008626 87.480172 
L 139.896152 81.108117 
L 147.446258 73.970208 
L 149.333784 76.345815 
L 151.221311 76.89022 
L 153.108837 75.266449 
L 154.996364 77.652183 
L 160.658943 71.19965 
L 162.546469 72.49203 
L 164.433996 91.071127 
L 166.321522 91.071387 
L 168.209049 92.530605 
L 173.871628 94.864744 
L 175.759154 81.830781 
L 177.646681 76.116883 
L 179.534207 88.367757 
L 181.421734 88.739086 
L 188.971839 107.881579 
L 190.859366 111.87333 
L 192.746892 118.419738 
L 194.634419 136.465397 
L 200.296998 137.927544 
L 202.184524 146.460295 
L 204.072051 152.875857 
L 205.959577 161.052671 
L 207.847104 148.12973 
L 213.509683 124.713505 
L 215.397209 117.245195 
L 217.284736 114.049779 
L 219.172262 132.022266 
L 221.059789 126.849942 
L 226.722368 126.678726 
L 228.609894 118.352956 
L 230.497421 101.423487 
L 232.384947 114.84628 
L 234.272474 131.394253 
L 239.935053 136.642521 
L 241.822579 116.620014 
L 243.710106 114.159025 
L 245.597632 133.098388 
L 247.485159 141.364367 
L 255.035264 152.595659 
L 256.922791 166.966315 
L 258.810317 163.906378 
L 260.697844 143.612436 
L 266.360423 148.630787 
L 268.247949 165.105455 
L 270.135476 151.529693 
L 272.023002 164.188618 
L 273.910529 180.653341 
L 279.573108 210.149541 
L 281.460634 209.902259 
L 283.348161 181.787243 
L 285.235687 189.191857 
L 287.123214 202.653422 
L 292.785793 212.23138 
L 294.673319 200.503143 
L 296.560846 164.067681 
L 298.448372 156.656306 
L 300.335899 144.523848 
L 305.998478 150.419586 
L 307.886004 139.161445 
L 309.773531 151.171462 
L 311.661057 142.020064 
L 313.548584 141.917942 
L 319.211163 139.274466 
L 321.098689 121.467326 
L 322.986216 128.497213 
L 324.873742 142.771293 
L 326.761268 133.864201 
L 332.423848 124.854001 
L 334.311374 140.281229 
L 336.198901 152.763589 
L 338.086427 153.211456 
L 339.973953 155.177147 
L 345.636533 166.211968 
L 347.524059 170.183903 
L 349.411586 157.539019 
L 351.299112 166.83389 
L 358.849218 170.634437 
L 360.736744 161.012586 
L 362.624271 161.42433 
L 364.511797 177.325176 
L 366.399323 195.993195 
L 372.061903 196.058814 
L 373.949429 221.129247 
L 375.836956 217.39535 
L 377.724482 200.444854 
L 379.612008 218.776405 
L 385.274588 216.797983 
L 387.162114 211.563854 
L 389.049641 191.995531 
L 390.937167 225.229753 
L 392.824693 234.728042 
L 398.487273 265.021262 
" style="fill:none;stroke:#ec5283;stroke-linecap:square;stroke-width:2;"/>
   </g>
   <g id="line2d_20">
    <path clip-path="url(#pc53cc09dcb)" d="M 73.832727 52.154182 
L 75.720254 56.826674 
L 81.382833 64.647227 
L 83.270359 65.339642 
L 85.157886 65.34846 
L 88.932939 91.781824 
L 94.595518 85.871942 
L 96.483044 99.795148 
L 98.370571 110.514811 
L 100.258097 93.958281 
L 102.145624 105.513152 
L 107.808203 94.800171 
L 109.695729 74.053976 
L 111.583256 70.157996 
L 113.470782 79.824361 
L 115.358309 77.147902 
L 121.020888 89.137617 
L 122.908414 95.378609 
L 124.795941 84.413925 
L 126.683467 91.008994 
L 128.570994 96.961399 
L 134.233573 114.453024 
L 136.121099 96.419463 
L 138.008626 87.477158 
L 139.896152 81.666145 
L 147.446258 73.930791 
L 149.333784 75.579481 
L 151.221311 76.768808 
L 153.108837 75.605138 
L 154.996364 77.541863 
L 160.658943 70.700676 
L 162.546469 72.498214 
L 164.433996 91.36215 
L 166.321522 91.537708 
L 168.209049 91.646634 
L 173.871628 95.461505 
L 175.759154 81.803175 
L 177.646681 75.271781 
L 179.534207 88.552909 
L 181.421734 88.287422 
L 188.971839 107.772973 
L 190.859366 112.15699 
L 192.746892 118.487159 
L 194.634419 136.173975 
L 200.296998 136.840283 
L 202.184524 146.59344 
L 204.072051 153.072726 
L 205.959577 161.045004 
L 207.847104 147.81108 
L 213.509683 125.032756 
L 215.397209 116.828981 
L 217.284736 114.128811 
L 219.172262 131.685327 
L 221.059789 127.392868 
L 226.722368 126.824202 
L 228.609894 118.556361 
L 230.497421 102.267968 
L 232.384947 114.206574 
L 234.272474 131.47983 
L 239.935053 136.6473 
L 241.822579 116.869112 
L 243.710106 114.219228 
L 245.597632 133.508928 
L 247.485159 140.819568 
L 255.035264 152.91485 
L 256.922791 166.301749 
L 258.810317 164.622043 
L 260.697844 143.564787 
L 266.360423 149.166695 
L 268.247949 164.719825 
L 270.135476 152.211207 
L 272.023002 163.795625 
L 273.910529 180.459043 
L 279.573108 210.195049 
L 281.460634 208.848696 
L 283.348161 181.903814 
L 285.235687 189.74807 
L 287.123214 203.409397 
L 292.785793 211.984674 
L 294.673319 200.170388 
L 296.560846 164.015436 
L 298.448372 156.169043 
L 300.335899 144.428792 
L 305.998478 151.038224 
L 307.886004 139.481177 
L 309.773531 150.894092 
L 311.661057 142.402495 
L 313.548584 142.073392 
L 319.211163 139.441439 
L 321.098689 121.24895 
L 322.986216 128.286535 
L 324.873742 143.011666 
L 326.761268 134.069879 
L 332.423848 125.72913 
L 334.311374 140.674065 
L 336.198901 152.781752 
L 338.086427 153.509974 
L 339.973953 154.459897 
L 345.636533 166.985852 
L 347.524059 170.593895 
L 349.411586 157.867687 
L 351.299112 166.634483 
L 358.849218 170.995351 
L 360.736744 161.636867 
L 362.624271 161.022146 
L 364.511797 177.150165 
L 366.399323 195.799304 
L 372.061903 196.359831 
L 373.949429 220.761457 
L 375.836956 216.926125 
L 377.724482 200.028608 
L 379.612008 219.313092 
L 385.274588 216.104483 
L 387.162114 211.288632 
L 389.049641 191.981682 
L 390.937167 225.344919 
L 392.824693 234.851144 
L 398.487273 265.369086 
" style="fill:none;stroke:#00ff00;stroke-linecap:square;stroke-opacity:0.9;stroke-width:2;"/>
   </g>
   <g id="line2d_21">
    <path clip-path="url(#pc53cc09dcb)" d="M 73.832727 52.154182 
L 75.720254 58.191527 
L 81.382833 67.044894 
L 83.270359 67.856051 
L 85.157886 69.549263 
L 88.932939 97.717933 
L 94.595518 93.398928 
L 96.483044 103.221813 
L 98.370571 112.85814 
L 100.258097 97.519343 
L 102.145624 108.984066 
L 107.808203 98.726001 
L 109.695729 78.178353 
L 111.583256 73.401639 
L 113.470782 83.860869 
L 115.358309 83.341467 
L 121.020888 95.776826 
L 122.908414 100.925959 
L 124.795941 92.829229 
L 126.683467 97.81726 
L 128.570994 102.699758 
L 134.233573 113.120779 
L 136.121099 94.795825 
L 138.008626 85.828168 
L 139.896152 80.017792 
L 147.446258 72.142989 
L 149.333784 75.149857 
L 151.221311 76.570313 
L 153.108837 73.340147 
L 154.996364 75.276945 
L 160.658943 68.685224 
L 162.546469 71.349137 
L 164.433996 89.434655 
L 166.321522 87.870445 
L 168.209049 88.062326 
L 173.871628 90.813349 
L 175.759154 76.645695 
L 177.646681 71.672378 
L 179.534207 85.550193 
L 181.421734 85.071621 
L 188.971839 106.396833 
L 190.859366 115.289594 
L 192.746892 126.779772 
L 194.634419 145.553972 
L 200.296998 139.916129 
L 202.184524 153.398534 
L 204.072051 158.045633 
L 205.959577 167.035524 
L 207.847104 147.107615 
L 213.509683 123.178619 
L 215.397209 114.915516 
L 217.284736 111.491004 
L 219.172262 133.036572 
L 221.059789 125.639 
L 226.722368 126.681751 
L 228.609894 116.903379 
L 230.497421 99.427181 
L 232.384947 114.201333 
L 234.272474 132.620198 
L 239.935053 136.588067 
L 241.822579 117.649087 
L 243.710106 116.268403 
L 245.597632 137.772539 
L 247.485159 145.014001 
L 255.035264 157.245395 
L 256.922791 173.20158 
L 258.810317 160.91926 
L 260.697844 139.702409 
L 266.360423 142.098209 
L 268.247949 158.221204 
L 270.135476 144.052792 
L 272.023002 156.966472 
L 273.910529 174.261838 
L 279.573108 205.488335 
L 281.460634 201.13275 
L 283.348161 171.177024 
L 285.235687 180.847281 
L 287.123214 195.401 
L 292.785793 203.655282 
L 294.673319 196.876402 
L 296.560846 151.760067 
L 298.448372 145.706017 
L 300.335899 133.299871 
L 305.998478 141.737888 
L 307.886004 128.951705 
L 309.773531 139.314117 
L 311.661057 131.940247 
L 313.548584 134.021542 
L 319.211163 132.15194 
L 321.098689 113.100146 
L 322.986216 119.317635 
L 324.873742 133.935631 
L 326.761268 122.491214 
L 332.423848 112.899295 
L 334.311374 129.369488 
L 336.198901 141.96307 
L 338.086427 144.148589 
L 339.973953 145.178567 
L 345.636533 155.934924 
L 347.524059 159.926626 
L 349.411586 146.307995 
L 351.299112 154.940781 
L 358.849218 160.226088 
L 360.736744 153.277917 
L 362.624271 154.031057 
L 364.511797 169.981918 
L 366.399323 185.548355 
L 372.061903 187.870515 
L 373.949429 212.530389 
L 375.836956 206.157164 
L 377.724482 191.284113 
L 379.612008 204.413661 
L 385.274588 202.64193 
L 387.162114 196.424317 
L 389.049641 178.993898 
L 390.937167 212.730519 
L 392.824693 224.4732 
L 398.487273 256.087907 
" style="fill:none;stroke:#a5b9cf;stroke-linecap:square;stroke-width:2;"/>
   </g>
   <g id="patch_3">
    <path d="M 57.6 276.48 
L 57.6 41.472 
" style="fill:none;stroke:#000000;stroke-linecap:square;stroke-linejoin:miter;stroke-width:0.8;"/>
   </g>
   <g id="patch_4">
    <path d="M 414.72 276.48 
L 414.72 41.472 
" style="fill:none;stroke:#000000;stroke-linecap:square;stroke-linejoin:miter;stroke-width:0.8;"/>
   </g>
   <g id="patch_5">
    <path d="M 57.6 276.48 
L 414.72 276.48 
" style="fill:none;stroke:#000000;stroke-linecap:square;stroke-linejoin:miter;stroke-width:0.8;"/>
   </g>
   <g id="patch_6">
    <path d="M 57.6 41.472 
L 414.72 41.472 
" style="fill:none;stroke:#000000;stroke-linecap:square;stroke-linejoin:miter;stroke-width:0.8;"/>
   </g>
   <g id="text_17">
    <!-- VFUNDS -->
    <g transform="translate(211.295625 22.034625)scale(0.12 -0.12)">
     <defs>
      <path d="M 1831 0 
L 50 4666 
L 709 4666 
L 2188 738 
L 3669 4666 
L 4325 4666 
L 2547 0 
L 1831 0 
z
" id="DejaVuSans-56" transform="scale(0.015625)"/>
      <path d="M 628 4666 
L 3309 4666 
L 3309 4134 
L 1259 4134 
L 1259 2759 
L 3109 2759 
L 3109 2228 
L 1259 2228 
L 1259 0 
L 628 0 
L 628 4666 
z
" id="DejaVuSans-46" transform="scale(0.015625)"/>
      <path d="M 556 4666 
L 1191 4666 
L 1191 1831 
Q 1191 1081 1462 751 
Q 1734 422 2344 422 
Q 2950 422 3222 751 
Q 3494 1081 3494 1831 
L 3494 4666 
L 4128 4666 
L 4128 1753 
Q 4128 841 3676 375 
Q 3225 -91 2344 -91 
Q 1459 -91 1007 375 
Q 556 841 556 1753 
L 556 4666 
z
" id="DejaVuSans-55" transform="scale(0.015625)"/>
      <path d="M 628 4666 
L 1478 4666 
L 3547 763 
L 3547 4666 
L 4159 4666 
L 4159 0 
L 3309 0 
L 1241 3903 
L 1241 0 
L 628 0 
L 628 4666 
z
" id="DejaVuSans-4e" transform="scale(0.015625)"/>
      <path d="M 1259 4147 
L 1259 519 
L 2022 519 
Q 2988 519 3436 956 
Q 3884 1394 3884 2338 
Q 3884 3275 3436 3711 
Q 2988 4147 2022 4147 
L 1259 4147 
z
M 628 4666 
L 1925 4666 
Q 3281 4666 3915 4102 
Q 4550 3538 4550 2338 
Q 4550 1131 3912 565 
Q 3275 0 1925 0 
L 628 0 
L 628 4666 
z
" id="DejaVuSans-44" transform="scale(0.015625)"/>
      <path d="M 3425 4513 
L 3425 3897 
Q 3066 4069 2747 4153 
Q 2428 4238 2131 4238 
Q 1616 4238 1336 4038 
Q 1056 3838 1056 3469 
Q 1056 3159 1242 3001 
Q 1428 2844 1947 2747 
L 2328 2669 
Q 3034 2534 3370 2195 
Q 3706 1856 3706 1288 
Q 3706 609 3251 259 
Q 2797 -91 1919 -91 
Q 1588 -91 1214 -16 
Q 841 59 441 206 
L 441 856 
Q 825 641 1194 531 
Q 1563 422 1919 422 
Q 2459 422 2753 634 
Q 3047 847 3047 1241 
Q 3047 1584 2836 1778 
Q 2625 1972 2144 2069 
L 1759 2144 
Q 1053 2284 737 2584 
Q 422 2884 422 3419 
Q 422 4038 858 4394 
Q 1294 4750 2059 4750 
Q 2388 4750 2728 4690 
Q 3069 4631 3425 4513 
z
" id="DejaVuSans-53" transform="scale(0.015625)"/>
     </defs>
     <use xlink:href="#DejaVuSans-56"/>
     <use x="68.408203" xlink:href="#DejaVuSans-46"/>
     <use x="125.927734" xlink:href="#DejaVuSans-55"/>
     <use x="199.121094" xlink:href="#DejaVuSans-4e"/>
     <use x="273.925781" xlink:href="#DejaVuSans-44"/>
     <use x="350.927734" xlink:href="#DejaVuSans-53"/>
    </g>
    <!-- daily_report -->
    <g transform="translate(200.466563 35.472)scale(0.12 -0.12)">
     <defs>
      <path d="M 603 3500 
L 1178 3500 
L 1178 0 
L 603 0 
L 603 3500 
z
M 603 4863 
L 1178 4863 
L 1178 4134 
L 603 4134 
L 603 4863 
z
" id="DejaVuSans-69" transform="scale(0.015625)"/>
      <path d="M 603 4863 
L 1178 4863 
L 1178 0 
L 603 0 
L 603 4863 
z
" id="DejaVuSans-6c" transform="scale(0.015625)"/>
      <path d="M 2059 -325 
Q 1816 -950 1584 -1140 
Q 1353 -1331 966 -1331 
L 506 -1331 
L 506 -850 
L 844 -850 
Q 1081 -850 1212 -737 
Q 1344 -625 1503 -206 
L 1606 56 
L 191 3500 
L 800 3500 
L 1894 763 
L 2988 3500 
L 3597 3500 
L 2059 -325 
z
" id="DejaVuSans-79" transform="scale(0.015625)"/>
      <path d="M 3263 -1063 
L 3263 -1509 
L -63 -1509 
L -63 -1063 
L 3263 -1063 
z
" id="DejaVuSans-5f" transform="scale(0.015625)"/>
      <path d="M 2631 2963 
Q 2534 3019 2420 3045 
Q 2306 3072 2169 3072 
Q 1681 3072 1420 2755 
Q 1159 2438 1159 1844 
L 1159 0 
L 581 0 
L 581 3500 
L 1159 3500 
L 1159 2956 
Q 1341 3275 1631 3429 
Q 1922 3584 2338 3584 
Q 2397 3584 2469 3576 
Q 2541 3569 2628 3553 
L 2631 2963 
z
" id="DejaVuSans-72" transform="scale(0.015625)"/>
      <path d="M 1159 525 
L 1159 -1331 
L 581 -1331 
L 581 3500 
L 1159 3500 
L 1159 2969 
Q 1341 3281 1617 3432 
Q 1894 3584 2278 3584 
Q 2916 3584 3314 3078 
Q 3713 2572 3713 1747 
Q 3713 922 3314 415 
Q 2916 -91 2278 -91 
Q 1894 -91 1617 61 
Q 1341 213 1159 525 
z
M 3116 1747 
Q 3116 2381 2855 2742 
Q 2594 3103 2138 3103 
Q 1681 3103 1420 2742 
Q 1159 2381 1159 1747 
Q 1159 1113 1420 752 
Q 1681 391 2138 391 
Q 2594 391 2855 752 
Q 3116 1113 3116 1747 
z
" id="DejaVuSans-70" transform="scale(0.015625)"/>
      <path d="M 1959 3097 
Q 1497 3097 1228 2736 
Q 959 2375 959 1747 
Q 959 1119 1226 758 
Q 1494 397 1959 397 
Q 2419 397 2687 759 
Q 2956 1122 2956 1747 
Q 2956 2369 2687 2733 
Q 2419 3097 1959 3097 
z
M 1959 3584 
Q 2709 3584 3137 3096 
Q 3566 2609 3566 1747 
Q 3566 888 3137 398 
Q 2709 -91 1959 -91 
Q 1206 -91 779 398 
Q 353 888 353 1747 
Q 353 2609 779 3096 
Q 1206 3584 1959 3584 
z
" id="DejaVuSans-6f" transform="scale(0.015625)"/>
     </defs>
     <use xlink:href="#DejaVuSans-64"/>
     <use x="63.476562" xlink:href="#DejaVuSans-61"/>
     <use x="124.755859" xlink:href="#DejaVuSans-69"/>
     <use x="152.539062" xlink:href="#DejaVuSans-6c"/>
     <use x="180.322266" xlink:href="#DejaVuSans-79"/>
     <use x="239.501953" xlink:href="#DejaVuSans-5f"/>
     <use x="289.501953" xlink:href="#DejaVuSans-72"/>
     <use x="328.365234" xlink:href="#DejaVuSans-65"/>
     <use x="389.888672" xlink:href="#DejaVuSans-70"/>
     <use x="453.365234" xlink:href="#DejaVuSans-6f"/>
     <use x="514.546875" xlink:href="#DejaVuSans-72"/>
     <use x="555.660156" xlink:href="#DejaVuSans-74"/>
    </g>
   </g>
   <g id="legend_1">
    <g id="patch_7">
     <path d="M 64.6 271.48 
L 178.64375 271.48 
Q 180.64375 271.48 180.64375 269.48 
L 180.64375 182.41125 
Q 180.64375 180.41125 178.64375 180.41125 
L 64.6 180.41125 
Q 62.6 180.41125 62.6 182.41125 
L 62.6 269.48 
Q 62.6 271.48 64.6 271.48 
z
" style="fill:#ffffff;opacity:0.8;stroke:#cccccc;stroke-linejoin:miter;"/>
    </g>
    <g id="line2d_22">
     <path d="M 66.6 188.509687 
L 86.6 188.509687 
" style="fill:none;stroke:#0000ff;stroke-linecap:square;stroke-opacity:0.9;stroke-width:2;"/>
    </g>
    <g id="line2d_23"/>
    <g id="text_18">
     <!-- alpaca -->
     <g transform="translate(94.6 192.009687)scale(0.1 -0.1)">
      <defs>
       <path d="M 3122 3366 
L 3122 2828 
Q 2878 2963 2633 3030 
Q 2388 3097 2138 3097 
Q 1578 3097 1268 2742 
Q 959 2388 959 1747 
Q 959 1106 1268 751 
Q 1578 397 2138 397 
Q 2388 397 2633 464 
Q 2878 531 3122 666 
L 3122 134 
Q 2881 22 2623 -34 
Q 2366 -91 2075 -91 
Q 1284 -91 818 406 
Q 353 903 353 1747 
Q 353 2603 823 3093 
Q 1294 3584 2113 3584 
Q 2378 3584 2631 3529 
Q 2884 3475 3122 3366 
z
" id="DejaVuSans-63" transform="scale(0.015625)"/>
      </defs>
      <use xlink:href="#DejaVuSans-61"/>
      <use x="61.279297" xlink:href="#DejaVuSans-6c"/>
      <use x="89.0625" xlink:href="#DejaVuSans-70"/>
      <use x="152.539062" xlink:href="#DejaVuSans-61"/>
      <use x="213.818359" xlink:href="#DejaVuSans-63"/>
      <use x="268.798828" xlink:href="#DejaVuSans-61"/>
     </g>
    </g>
    <g id="line2d_24">
     <path d="M 66.6 203.187812 
L 86.6 203.187812 
" style="fill:none;stroke:#ff0000;stroke-linecap:square;stroke-opacity:0.9;stroke-width:2;"/>
    </g>
    <g id="line2d_25"/>
    <g id="text_19">
     <!-- mattress -->
     <g transform="translate(94.6 206.687812)scale(0.1 -0.1)">
      <defs>
       <path d="M 3328 2828 
Q 3544 3216 3844 3400 
Q 4144 3584 4550 3584 
Q 5097 3584 5394 3201 
Q 5691 2819 5691 2113 
L 5691 0 
L 5113 0 
L 5113 2094 
Q 5113 2597 4934 2840 
Q 4756 3084 4391 3084 
Q 3944 3084 3684 2787 
Q 3425 2491 3425 1978 
L 3425 0 
L 2847 0 
L 2847 2094 
Q 2847 2600 2669 2842 
Q 2491 3084 2119 3084 
Q 1678 3084 1418 2786 
Q 1159 2488 1159 1978 
L 1159 0 
L 581 0 
L 581 3500 
L 1159 3500 
L 1159 2956 
Q 1356 3278 1631 3431 
Q 1906 3584 2284 3584 
Q 2666 3584 2933 3390 
Q 3200 3197 3328 2828 
z
" id="DejaVuSans-6d" transform="scale(0.015625)"/>
       <path d="M 2834 3397 
L 2834 2853 
Q 2591 2978 2328 3040 
Q 2066 3103 1784 3103 
Q 1356 3103 1142 2972 
Q 928 2841 928 2578 
Q 928 2378 1081 2264 
Q 1234 2150 1697 2047 
L 1894 2003 
Q 2506 1872 2764 1633 
Q 3022 1394 3022 966 
Q 3022 478 2636 193 
Q 2250 -91 1575 -91 
Q 1294 -91 989 -36 
Q 684 19 347 128 
L 347 722 
Q 666 556 975 473 
Q 1284 391 1588 391 
Q 1994 391 2212 530 
Q 2431 669 2431 922 
Q 2431 1156 2273 1281 
Q 2116 1406 1581 1522 
L 1381 1569 
Q 847 1681 609 1914 
Q 372 2147 372 2553 
Q 372 3047 722 3315 
Q 1072 3584 1716 3584 
Q 2034 3584 2315 3537 
Q 2597 3491 2834 3397 
z
" id="DejaVuSans-73" transform="scale(0.015625)"/>
      </defs>
      <use xlink:href="#DejaVuSans-6d"/>
      <use x="97.412109" xlink:href="#DejaVuSans-61"/>
      <use x="158.691406" xlink:href="#DejaVuSans-74"/>
      <use x="197.900391" xlink:href="#DejaVuSans-74"/>
      <use x="237.109375" xlink:href="#DejaVuSans-72"/>
      <use x="275.972656" xlink:href="#DejaVuSans-65"/>
      <use x="337.496094" xlink:href="#DejaVuSans-73"/>
      <use x="389.595703" xlink:href="#DejaVuSans-73"/>
     </g>
    </g>
    <g id="line2d_26">
     <path d="M 66.6 217.865937 
L 86.6 217.865937 
" style="fill:none;stroke:#008000;stroke-linecap:square;stroke-opacity:0.9;stroke-width:2;"/>
    </g>
    <g id="line2d_27"/>
    <g id="text_20">
     <!-- daily-open-rebal -->
     <g transform="translate(94.6 221.365937)scale(0.1 -0.1)">
      <defs>
       <path d="M 3513 2113 
L 3513 0 
L 2938 0 
L 2938 2094 
Q 2938 2591 2744 2837 
Q 2550 3084 2163 3084 
Q 1697 3084 1428 2787 
Q 1159 2491 1159 1978 
L 1159 0 
L 581 0 
L 581 3500 
L 1159 3500 
L 1159 2956 
Q 1366 3272 1645 3428 
Q 1925 3584 2291 3584 
Q 2894 3584 3203 3211 
Q 3513 2838 3513 2113 
z
" id="DejaVuSans-6e" transform="scale(0.015625)"/>
       <path d="M 3116 1747 
Q 3116 2381 2855 2742 
Q 2594 3103 2138 3103 
Q 1681 3103 1420 2742 
Q 1159 2381 1159 1747 
Q 1159 1113 1420 752 
Q 1681 391 2138 391 
Q 2594 391 2855 752 
Q 3116 1113 3116 1747 
z
M 1159 2969 
Q 1341 3281 1617 3432 
Q 1894 3584 2278 3584 
Q 2916 3584 3314 3078 
Q 3713 2572 3713 1747 
Q 3713 922 3314 415 
Q 2916 -91 2278 -91 
Q 1894 -91 1617 61 
Q 1341 213 1159 525 
L 1159 0 
L 581 0 
L 581 4863 
L 1159 4863 
L 1159 2969 
z
" id="DejaVuSans-62" transform="scale(0.015625)"/>
      </defs>
      <use xlink:href="#DejaVuSans-64"/>
      <use x="63.476562" xlink:href="#DejaVuSans-61"/>
      <use x="124.755859" xlink:href="#DejaVuSans-69"/>
      <use x="152.539062" xlink:href="#DejaVuSans-6c"/>
      <use x="180.322266" xlink:href="#DejaVuSans-79"/>
      <use x="237.751953" xlink:href="#DejaVuSans-2d"/>
      <use x="275.710938" xlink:href="#DejaVuSans-6f"/>
      <use x="336.892578" xlink:href="#DejaVuSans-70"/>
      <use x="400.369141" xlink:href="#DejaVuSans-65"/>
      <use x="461.892578" xlink:href="#DejaVuSans-6e"/>
      <use x="525.271484" xlink:href="#DejaVuSans-2d"/>
      <use x="561.355469" xlink:href="#DejaVuSans-72"/>
      <use x="600.21875" xlink:href="#DejaVuSans-65"/>
      <use x="661.742188" xlink:href="#DejaVuSans-62"/>
      <use x="725.21875" xlink:href="#DejaVuSans-61"/>
      <use x="786.498047" xlink:href="#DejaVuSans-6c"/>
     </g>
    </g>
    <g id="line2d_28">
     <path d="M 66.6 232.544062 
L 86.6 232.544062 
" style="fill:none;stroke:#ec5283;stroke-linecap:square;stroke-width:2;"/>
    </g>
    <g id="line2d_29"/>
    <g id="text_21">
     <!-- daily-close-rebal -->
     <g transform="translate(94.6 236.044062)scale(0.1 -0.1)">
      <use xlink:href="#DejaVuSans-64"/>
      <use x="63.476562" xlink:href="#DejaVuSans-61"/>
      <use x="124.755859" xlink:href="#DejaVuSans-69"/>
      <use x="152.539062" xlink:href="#DejaVuSans-6c"/>
      <use x="180.322266" xlink:href="#DejaVuSans-79"/>
      <use x="237.751953" xlink:href="#DejaVuSans-2d"/>
      <use x="273.835938" xlink:href="#DejaVuSans-63"/>
      <use x="328.816406" xlink:href="#DejaVuSans-6c"/>
      <use x="356.599609" xlink:href="#DejaVuSans-6f"/>
      <use x="417.78125" xlink:href="#DejaVuSans-73"/>
      <use x="469.880859" xlink:href="#DejaVuSans-65"/>
      <use x="531.404297" xlink:href="#DejaVuSans-2d"/>
      <use x="567.488281" xlink:href="#DejaVuSans-72"/>
      <use x="606.351562" xlink:href="#DejaVuSans-65"/>
      <use x="667.875" xlink:href="#DejaVuSans-62"/>
      <use x="731.351562" xlink:href="#DejaVuSans-61"/>
      <use x="792.630859" xlink:href="#DejaVuSans-6c"/>
     </g>
    </g>
    <g id="line2d_30">
     <path d="M 66.6 247.222187 
L 86.6 247.222187 
" style="fill:none;stroke:#00ff00;stroke-linecap:square;stroke-opacity:0.9;stroke-width:2;"/>
    </g>
    <g id="line2d_31"/>
    <g id="text_22">
     <!-- trader-baseline -->
     <g transform="translate(94.6 250.722187)scale(0.1 -0.1)">
      <use xlink:href="#DejaVuSans-74"/>
      <use x="39.208984" xlink:href="#DejaVuSans-72"/>
      <use x="80.322266" xlink:href="#DejaVuSans-61"/>
      <use x="141.601562" xlink:href="#DejaVuSans-64"/>
      <use x="205.078125" xlink:href="#DejaVuSans-65"/>
      <use x="266.601562" xlink:href="#DejaVuSans-72"/>
      <use x="301.339844" xlink:href="#DejaVuSans-2d"/>
      <use x="337.423828" xlink:href="#DejaVuSans-62"/>
      <use x="400.900391" xlink:href="#DejaVuSans-61"/>
      <use x="462.179688" xlink:href="#DejaVuSans-73"/>
      <use x="514.279297" xlink:href="#DejaVuSans-65"/>
      <use x="575.802734" xlink:href="#DejaVuSans-6c"/>
      <use x="603.585938" xlink:href="#DejaVuSans-69"/>
      <use x="631.369141" xlink:href="#DejaVuSans-6e"/>
      <use x="694.748047" xlink:href="#DejaVuSans-65"/>
     </g>
    </g>
    <g id="line2d_32">
     <path d="M 66.6 261.900312 
L 86.6 261.900312 
" style="fill:none;stroke:#a5b9cf;stroke-linecap:square;stroke-width:2;"/>
    </g>
    <g id="line2d_33"/>
    <g id="text_23">
     <!-- default-cfg -->
     <g transform="translate(94.6 265.400312)scale(0.1 -0.1)">
      <defs>
       <path d="M 2375 4863 
L 2375 4384 
L 1825 4384 
Q 1516 4384 1395 4259 
Q 1275 4134 1275 3809 
L 1275 3500 
L 2222 3500 
L 2222 3053 
L 1275 3053 
L 1275 0 
L 697 0 
L 697 3053 
L 147 3053 
L 147 3500 
L 697 3500 
L 697 3744 
Q 697 4328 969 4595 
Q 1241 4863 1831 4863 
L 2375 4863 
z
" id="DejaVuSans-66" transform="scale(0.015625)"/>
       <path d="M 544 1381 
L 544 3500 
L 1119 3500 
L 1119 1403 
Q 1119 906 1312 657 
Q 1506 409 1894 409 
Q 2359 409 2629 706 
Q 2900 1003 2900 1516 
L 2900 3500 
L 3475 3500 
L 3475 0 
L 2900 0 
L 2900 538 
Q 2691 219 2414 64 
Q 2138 -91 1772 -91 
Q 1169 -91 856 284 
Q 544 659 544 1381 
z
M 1991 3584 
L 1991 3584 
z
" id="DejaVuSans-75" transform="scale(0.015625)"/>
       <path d="M 2906 1791 
Q 2906 2416 2648 2759 
Q 2391 3103 1925 3103 
Q 1463 3103 1205 2759 
Q 947 2416 947 1791 
Q 947 1169 1205 825 
Q 1463 481 1925 481 
Q 2391 481 2648 825 
Q 2906 1169 2906 1791 
z
M 3481 434 
Q 3481 -459 3084 -895 
Q 2688 -1331 1869 -1331 
Q 1566 -1331 1297 -1286 
Q 1028 -1241 775 -1147 
L 775 -588 
Q 1028 -725 1275 -790 
Q 1522 -856 1778 -856 
Q 2344 -856 2625 -561 
Q 2906 -266 2906 331 
L 2906 616 
Q 2728 306 2450 153 
Q 2172 0 1784 0 
Q 1141 0 747 490 
Q 353 981 353 1791 
Q 353 2603 747 3093 
Q 1141 3584 1784 3584 
Q 2172 3584 2450 3431 
Q 2728 3278 2906 2969 
L 2906 3500 
L 3481 3500 
L 3481 434 
z
" id="DejaVuSans-67" transform="scale(0.015625)"/>
      </defs>
      <use xlink:href="#DejaVuSans-64"/>
      <use x="63.476562" xlink:href="#DejaVuSans-65"/>
      <use x="125" xlink:href="#DejaVuSans-66"/>
      <use x="160.205078" xlink:href="#DejaVuSans-61"/>
      <use x="221.484375" xlink:href="#DejaVuSans-75"/>
      <use x="284.863281" xlink:href="#DejaVuSans-6c"/>
      <use x="312.646484" xlink:href="#DejaVuSans-74"/>
      <use x="351.855469" xlink:href="#DejaVuSans-2d"/>
      <use x="387.939453" xlink:href="#DejaVuSans-63"/>
      <use x="442.919922" xlink:href="#DejaVuSans-66"/>
      <use x="478.125" xlink:href="#DejaVuSans-67"/>
     </g>
    </g>
   </g>
  </g>
 </g>
 <defs>
  <clipPath id="pc53cc09dcb">
   <rect height="235.008" width="357.12" x="57.6" y="41.472"/>
  </clipPath>
 </defs>
</svg>
