<?xml version="1.0" encoding="utf-8" standalone="no"?>
<!DOCTYPE svg PUBLIC "-//W3C//DTD SVG 1.1//EN"
  "http://www.w3.org/Graphics/SVG/1.1/DTD/svg11.dtd">
<svg height="345.6pt" version="1.1" viewBox="0 0 460.8 345.6" width="460.8pt" xmlns="http://www.w3.org/2000/svg" xmlns:xlink="http://www.w3.org/1999/xlink">
 <metadata>
  <rdf:RDF xmlns:cc="http://creativecommons.org/ns#" xmlns:dc="http://purl.org/dc/elements/1.1/" xmlns:rdf="http://www.w3.org/1999/02/22-rdf-syntax-ns#">
   <cc:Work>
    <dc:type rdf:resource="http://purl.org/dc/dcmitype/StillImage"/>
    <dc:date>2022-05-16T10:01:37.393460</dc:date>
    <dc:format>image/svg+xml</dc:format>
    <dc:creator>
     <cc:Agent>
      <dc:title>Matplotlib v3.4.3, https://matplotlib.org/</dc:title>
     </cc:Agent>
    </dc:creator>
   </cc:Work>
  </rdf:RDF>
 </metadata>
 <defs>
  <style type="text/css">*{stroke-linecap:butt;stroke-linejoin:round;}</style>
 </defs>
 <g id="figure_1">
  <g id="patch_1">
   <path d="M 0 345.6 
L 460.8 345.6 
L 460.8 0 
L 0 0 
z
" style="fill:#ffffff;"/>
  </g>
  <g id="axes_1">
   <g id="patch_2">
    <path d="M 57.6 276.48 
L 414.72 276.48 
L 414.72 41.472 
L 57.6 41.472 
z
" style="fill:#ffffff;"/>
   </g>
   <g id="matplotlib.axis_1">
    <g id="xtick_1">
     <g id="line2d_1">
      <defs>
       <path d="M 0 0 
L 0 3.5 
" id="m6eb9e366ae" style="stroke:#000000;stroke-width:0.8;"/>
      </defs>
      <g>
       <use style="stroke:#000000;stroke-width:0.8;" x="97.812893" xlink:href="#m6eb9e366ae" y="276.48"/>
      </g>
     </g>
     <g id="text_1">
      <!-- 2021-12 -->
      <g transform="translate(60.588072 310.951846)rotate(-30)scale(0.1 -0.1)">
       <defs>
        <path d="M 1228 531 
L 3431 531 
L 3431 0 
L 469 0 
L 469 531 
Q 828 903 1448 1529 
Q 2069 2156 2228 2338 
Q 2531 2678 2651 2914 
Q 2772 3150 2772 3378 
Q 2772 3750 2511 3984 
Q 2250 4219 1831 4219 
Q 1534 4219 1204 4116 
Q 875 4013 500 3803 
L 500 4441 
Q 881 4594 1212 4672 
Q 1544 4750 1819 4750 
Q 2544 4750 2975 4387 
Q 3406 4025 3406 3419 
Q 3406 3131 3298 2873 
Q 3191 2616 2906 2266 
Q 2828 2175 2409 1742 
Q 1991 1309 1228 531 
z
" id="DejaVuSans-32" transform="scale(0.015625)"/>
        <path d="M 2034 4250 
Q 1547 4250 1301 3770 
Q 1056 3291 1056 2328 
Q 1056 1369 1301 889 
Q 1547 409 2034 409 
Q 2525 409 2770 889 
Q 3016 1369 3016 2328 
Q 3016 3291 2770 3770 
Q 2525 4250 2034 4250 
z
M 2034 4750 
Q 2819 4750 3233 4129 
Q 3647 3509 3647 2328 
Q 3647 1150 3233 529 
Q 2819 -91 2034 -91 
Q 1250 -91 836 529 
Q 422 1150 422 2328 
Q 422 3509 836 4129 
Q 1250 4750 2034 4750 
z
" id="DejaVuSans-30" transform="scale(0.015625)"/>
        <path d="M 794 531 
L 1825 531 
L 1825 4091 
L 703 3866 
L 703 4441 
L 1819 4666 
L 2450 4666 
L 2450 531 
L 3481 531 
L 3481 0 
L 794 0 
L 794 531 
z
" id="DejaVuSans-31" transform="scale(0.015625)"/>
        <path d="M 313 2009 
L 1997 2009 
L 1997 1497 
L 313 1497 
L 313 2009 
z
" id="DejaVuSans-2d" transform="scale(0.015625)"/>
       </defs>
       <use xlink:href="#DejaVuSans-32"/>
       <use x="63.623047" xlink:href="#DejaVuSans-30"/>
       <use x="127.246094" xlink:href="#DejaVuSans-32"/>
       <use x="190.869141" xlink:href="#DejaVuSans-31"/>
       <use x="254.492188" xlink:href="#DejaVuSans-2d"/>
       <use x="290.576172" xlink:href="#DejaVuSans-31"/>
       <use x="354.199219" xlink:href="#DejaVuSans-32"/>
      </g>
     </g>
    </g>
    <g id="xtick_2">
     <g id="line2d_2">
      <g>
       <use style="stroke:#000000;stroke-width:0.8;" x="154.996364" xlink:href="#m6eb9e366ae" y="276.48"/>
      </g>
     </g>
     <g id="text_2">
      <!-- 2022-01 -->
      <g transform="translate(117.771543 310.951846)rotate(-30)scale(0.1 -0.1)">
       <use xlink:href="#DejaVuSans-32"/>
       <use x="63.623047" xlink:href="#DejaVuSans-30"/>
       <use x="127.246094" xlink:href="#DejaVuSans-32"/>
       <use x="190.869141" xlink:href="#DejaVuSans-32"/>
       <use x="254.492188" xlink:href="#DejaVuSans-2d"/>
       <use x="290.576172" xlink:href="#DejaVuSans-30"/>
       <use x="354.199219" xlink:href="#DejaVuSans-31"/>
      </g>
     </g>
    </g>
    <g id="xtick_3">
     <g id="line2d_3">
      <g>
       <use style="stroke:#000000;stroke-width:0.8;" x="212.179835" xlink:href="#m6eb9e366ae" y="276.48"/>
      </g>
     </g>
     <g id="text_3">
      <!-- 2022-02 -->
      <g transform="translate(174.955014 310.951846)rotate(-30)scale(0.1 -0.1)">
       <use xlink:href="#DejaVuSans-32"/>
       <use x="63.623047" xlink:href="#DejaVuSans-30"/>
       <use x="127.246094" xlink:href="#DejaVuSans-32"/>
       <use x="190.869141" xlink:href="#DejaVuSans-32"/>
       <use x="254.492188" xlink:href="#DejaVuSans-2d"/>
       <use x="290.576172" xlink:href="#DejaVuSans-30"/>
       <use x="354.199219" xlink:href="#DejaVuSans-32"/>
      </g>
     </g>
    </g>
    <g id="xtick_4">
     <g id="line2d_4">
      <g>
       <use style="stroke:#000000;stroke-width:0.8;" x="263.829421" xlink:href="#m6eb9e366ae" y="276.48"/>
      </g>
     </g>
     <g id="text_4">
      <!-- 2022-03 -->
      <g transform="translate(226.604601 310.951846)rotate(-30)scale(0.1 -0.1)">
       <defs>
        <path d="M 2597 2516 
Q 3050 2419 3304 2112 
Q 3559 1806 3559 1356 
Q 3559 666 3084 287 
Q 2609 -91 1734 -91 
Q 1441 -91 1130 -33 
Q 819 25 488 141 
L 488 750 
Q 750 597 1062 519 
Q 1375 441 1716 441 
Q 2309 441 2620 675 
Q 2931 909 2931 1356 
Q 2931 1769 2642 2001 
Q 2353 2234 1838 2234 
L 1294 2234 
L 1294 2753 
L 1863 2753 
Q 2328 2753 2575 2939 
Q 2822 3125 2822 3475 
Q 2822 3834 2567 4026 
Q 2313 4219 1838 4219 
Q 1578 4219 1281 4162 
Q 984 4106 628 3988 
L 628 4550 
Q 988 4650 1302 4700 
Q 1616 4750 1894 4750 
Q 2613 4750 3031 4423 
Q 3450 4097 3450 3541 
Q 3450 3153 3228 2886 
Q 3006 2619 2597 2516 
z
" id="DejaVuSans-33" transform="scale(0.015625)"/>
       </defs>
       <use xlink:href="#DejaVuSans-32"/>
       <use x="63.623047" xlink:href="#DejaVuSans-30"/>
       <use x="127.246094" xlink:href="#DejaVuSans-32"/>
       <use x="190.869141" xlink:href="#DejaVuSans-32"/>
       <use x="254.492188" xlink:href="#DejaVuSans-2d"/>
       <use x="290.576172" xlink:href="#DejaVuSans-30"/>
       <use x="354.199219" xlink:href="#DejaVuSans-33"/>
      </g>
     </g>
    </g>
    <g id="xtick_5">
     <g id="line2d_5">
      <g>
       <use style="stroke:#000000;stroke-width:0.8;" x="321.012893" xlink:href="#m6eb9e366ae" y="276.48"/>
      </g>
     </g>
     <g id="text_5">
      <!-- 2022-04 -->
      <g transform="translate(283.788072 310.951846)rotate(-30)scale(0.1 -0.1)">
       <defs>
        <path d="M 2419 4116 
L 825 1625 
L 2419 1625 
L 2419 4116 
z
M 2253 4666 
L 3047 4666 
L 3047 1625 
L 3713 1625 
L 3713 1100 
L 3047 1100 
L 3047 0 
L 2419 0 
L 2419 1100 
L 313 1100 
L 313 1709 
L 2253 4666 
z
" id="DejaVuSans-34" transform="scale(0.015625)"/>
       </defs>
       <use xlink:href="#DejaVuSans-32"/>
       <use x="63.623047" xlink:href="#DejaVuSans-30"/>
       <use x="127.246094" xlink:href="#DejaVuSans-32"/>
       <use x="190.869141" xlink:href="#DejaVuSans-32"/>
       <use x="254.492188" xlink:href="#DejaVuSans-2d"/>
       <use x="290.576172" xlink:href="#DejaVuSans-30"/>
       <use x="354.199219" xlink:href="#DejaVuSans-34"/>
      </g>
     </g>
    </g>
    <g id="xtick_6">
     <g id="line2d_6">
      <g>
       <use style="stroke:#000000;stroke-width:0.8;" x="376.351736" xlink:href="#m6eb9e366ae" y="276.48"/>
      </g>
     </g>
     <g id="text_6">
      <!-- 2022-05 -->
      <g transform="translate(339.126915 310.951846)rotate(-30)scale(0.1 -0.1)">
       <defs>
        <path d="M 691 4666 
L 3169 4666 
L 3169 4134 
L 1269 4134 
L 1269 2991 
Q 1406 3038 1543 3061 
Q 1681 3084 1819 3084 
Q 2600 3084 3056 2656 
Q 3513 2228 3513 1497 
Q 3513 744 3044 326 
Q 2575 -91 1722 -91 
Q 1428 -91 1123 -41 
Q 819 9 494 109 
L 494 744 
Q 775 591 1075 516 
Q 1375 441 1709 441 
Q 2250 441 2565 725 
Q 2881 1009 2881 1497 
Q 2881 1984 2565 2268 
Q 2250 2553 1709 2553 
Q 1456 2553 1204 2497 
Q 953 2441 691 2322 
L 691 4666 
z
" id="DejaVuSans-35" transform="scale(0.015625)"/>
       </defs>
       <use xlink:href="#DejaVuSans-32"/>
       <use x="63.623047" xlink:href="#DejaVuSans-30"/>
       <use x="127.246094" xlink:href="#DejaVuSans-32"/>
       <use x="190.869141" xlink:href="#DejaVuSans-32"/>
       <use x="254.492188" xlink:href="#DejaVuSans-2d"/>
       <use x="290.576172" xlink:href="#DejaVuSans-30"/>
       <use x="354.199219" xlink:href="#DejaVuSans-35"/>
      </g>
     </g>
    </g>
    <g id="text_7">
     <!-- date -->
     <g transform="translate(224.885 324.351346)scale(0.1 -0.1)">
      <defs>
       <path d="M 2906 2969 
L 2906 4863 
L 3481 4863 
L 3481 0 
L 2906 0 
L 2906 525 
Q 2725 213 2448 61 
Q 2172 -91 1784 -91 
Q 1150 -91 751 415 
Q 353 922 353 1747 
Q 353 2572 751 3078 
Q 1150 3584 1784 3584 
Q 2172 3584 2448 3432 
Q 2725 3281 2906 2969 
z
M 947 1747 
Q 947 1113 1208 752 
Q 1469 391 1925 391 
Q 2381 391 2643 752 
Q 2906 1113 2906 1747 
Q 2906 2381 2643 2742 
Q 2381 3103 1925 3103 
Q 1469 3103 1208 2742 
Q 947 2381 947 1747 
z
" id="DejaVuSans-64" transform="scale(0.015625)"/>
       <path d="M 2194 1759 
Q 1497 1759 1228 1600 
Q 959 1441 959 1056 
Q 959 750 1161 570 
Q 1363 391 1709 391 
Q 2188 391 2477 730 
Q 2766 1069 2766 1631 
L 2766 1759 
L 2194 1759 
z
M 3341 1997 
L 3341 0 
L 2766 0 
L 2766 531 
Q 2569 213 2275 61 
Q 1981 -91 1556 -91 
Q 1019 -91 701 211 
Q 384 513 384 1019 
Q 384 1609 779 1909 
Q 1175 2209 1959 2209 
L 2766 2209 
L 2766 2266 
Q 2766 2663 2505 2880 
Q 2244 3097 1772 3097 
Q 1472 3097 1187 3025 
Q 903 2953 641 2809 
L 641 3341 
Q 956 3463 1253 3523 
Q 1550 3584 1831 3584 
Q 2591 3584 2966 3190 
Q 3341 2797 3341 1997 
z
" id="DejaVuSans-61" transform="scale(0.015625)"/>
       <path d="M 1172 4494 
L 1172 3500 
L 2356 3500 
L 2356 3053 
L 1172 3053 
L 1172 1153 
Q 1172 725 1289 603 
Q 1406 481 1766 481 
L 2356 481 
L 2356 0 
L 1766 0 
Q 1100 0 847 248 
Q 594 497 594 1153 
L 594 3053 
L 172 3053 
L 172 3500 
L 594 3500 
L 594 4494 
L 1172 4494 
z
" id="DejaVuSans-74" transform="scale(0.015625)"/>
       <path d="M 3597 1894 
L 3597 1613 
L 953 1613 
Q 991 1019 1311 708 
Q 1631 397 2203 397 
Q 2534 397 2845 478 
Q 3156 559 3463 722 
L 3463 178 
Q 3153 47 2828 -22 
Q 2503 -91 2169 -91 
Q 1331 -91 842 396 
Q 353 884 353 1716 
Q 353 2575 817 3079 
Q 1281 3584 2069 3584 
Q 2775 3584 3186 3129 
Q 3597 2675 3597 1894 
z
M 3022 2063 
Q 3016 2534 2758 2815 
Q 2500 3097 2075 3097 
Q 1594 3097 1305 2825 
Q 1016 2553 972 2059 
L 3022 2063 
z
" id="DejaVuSans-65" transform="scale(0.015625)"/>
      </defs>
      <use xlink:href="#DejaVuSans-64"/>
      <use x="63.476562" xlink:href="#DejaVuSans-61"/>
      <use x="124.755859" xlink:href="#DejaVuSans-74"/>
      <use x="163.964844" xlink:href="#DejaVuSans-65"/>
     </g>
    </g>
   </g>
   <g id="matplotlib.axis_2">
    <g id="ytick_1">
     <g id="line2d_7">
      <defs>
       <path d="M 0 0 
L -3.5 0 
" id="m640a0ada91" style="stroke:#000000;stroke-width:0.8;"/>
      </defs>
      <g>
       <use style="stroke:#000000;stroke-width:0.8;" x="57.6" xlink:href="#m640a0ada91" y="228.215013"/>
      </g>
     </g>
     <g id="text_8">
      <!-- 90000 -->
      <g transform="translate(18.7875 232.014232)scale(0.1 -0.1)">
       <defs>
        <path d="M 703 97 
L 703 672 
Q 941 559 1184 500 
Q 1428 441 1663 441 
Q 2288 441 2617 861 
Q 2947 1281 2994 2138 
Q 2813 1869 2534 1725 
Q 2256 1581 1919 1581 
Q 1219 1581 811 2004 
Q 403 2428 403 3163 
Q 403 3881 828 4315 
Q 1253 4750 1959 4750 
Q 2769 4750 3195 4129 
Q 3622 3509 3622 2328 
Q 3622 1225 3098 567 
Q 2575 -91 1691 -91 
Q 1453 -91 1209 -44 
Q 966 3 703 97 
z
M 1959 2075 
Q 2384 2075 2632 2365 
Q 2881 2656 2881 3163 
Q 2881 3666 2632 3958 
Q 2384 4250 1959 4250 
Q 1534 4250 1286 3958 
Q 1038 3666 1038 3163 
Q 1038 2656 1286 2365 
Q 1534 2075 1959 2075 
z
" id="DejaVuSans-39" transform="scale(0.015625)"/>
       </defs>
       <use xlink:href="#DejaVuSans-39"/>
       <use x="63.623047" xlink:href="#DejaVuSans-30"/>
       <use x="127.246094" xlink:href="#DejaVuSans-30"/>
       <use x="190.869141" xlink:href="#DejaVuSans-30"/>
       <use x="254.492188" xlink:href="#DejaVuSans-30"/>
      </g>
     </g>
    </g>
    <g id="ytick_2">
     <g id="line2d_8">
      <g>
       <use style="stroke:#000000;stroke-width:0.8;" x="57.6" xlink:href="#m640a0ada91" y="177.586318"/>
      </g>
     </g>
     <g id="text_9">
      <!-- 95000 -->
      <g transform="translate(18.7875 181.385537)scale(0.1 -0.1)">
       <use xlink:href="#DejaVuSans-39"/>
       <use x="63.623047" xlink:href="#DejaVuSans-35"/>
       <use x="127.246094" xlink:href="#DejaVuSans-30"/>
       <use x="190.869141" xlink:href="#DejaVuSans-30"/>
       <use x="254.492188" xlink:href="#DejaVuSans-30"/>
      </g>
     </g>
    </g>
    <g id="ytick_3">
     <g id="line2d_9">
      <g>
       <use style="stroke:#000000;stroke-width:0.8;" x="57.6" xlink:href="#m640a0ada91" y="126.957622"/>
      </g>
     </g>
     <g id="text_10">
      <!-- 100000 -->
      <g transform="translate(12.425 130.756841)scale(0.1 -0.1)">
       <use xlink:href="#DejaVuSans-31"/>
       <use x="63.623047" xlink:href="#DejaVuSans-30"/>
       <use x="127.246094" xlink:href="#DejaVuSans-30"/>
       <use x="190.869141" xlink:href="#DejaVuSans-30"/>
       <use x="254.492188" xlink:href="#DejaVuSans-30"/>
       <use x="318.115234" xlink:href="#DejaVuSans-30"/>
      </g>
     </g>
    </g>
    <g id="ytick_4">
     <g id="line2d_10">
      <g>
       <use style="stroke:#000000;stroke-width:0.8;" x="57.6" xlink:href="#m640a0ada91" y="76.328927"/>
      </g>
     </g>
     <g id="text_11">
      <!-- 105000 -->
      <g transform="translate(12.425 80.128146)scale(0.1 -0.1)">
       <use xlink:href="#DejaVuSans-31"/>
       <use x="63.623047" xlink:href="#DejaVuSans-30"/>
       <use x="127.246094" xlink:href="#DejaVuSans-35"/>
       <use x="190.869141" xlink:href="#DejaVuSans-30"/>
       <use x="254.492188" xlink:href="#DejaVuSans-30"/>
       <use x="318.115234" xlink:href="#DejaVuSans-30"/>
      </g>
     </g>
    </g>
   </g>
   <g id="line2d_11">
    <path clip-path="url(#p70ac475c52)" d="M 73.832727 129.910483 
L 75.677355 132.499726 
L 81.21124 128.702288 
L 83.055868 120.103263 
L 84.900496 118.717523 
L 88.589752 119.073329 
L 94.123636 133.720098 
L 95.968264 154.322356 
L 97.812893 166.060506 
L 99.657521 153.332521 
L 101.502149 161.170174 
L 107.036033 145.873768 
L 108.880661 127.943775 
L 110.725289 121.880912 
L 112.569917 122.760407 
L 114.414545 116.372743 
L 119.94843 125.536018 
L 121.793058 125.220185 
L 123.637686 117.709863 
L 125.482314 117.587733 
L 127.326942 129.34436 
L 132.860826 140.596624 
L 134.705455 121.32516 
L 136.550083 116.612116 
L 138.394711 107.078472 
L 145.773223 94.038038 
L 147.617851 94.564417 
L 149.462479 93.493915 
L 151.307107 94.82454 
L 153.151736 99.494845 
L 158.68562 88.437357 
L 160.530248 78.036207 
L 162.374876 100.74464 
L 164.219504 96.163833 
L 166.064132 91.379056 
L 171.598017 93.006349 
L 173.442645 86.468525 
L 175.287273 86.239326 
L 177.131901 93.985651 
L 178.976529 94.354888 
L 186.355041 117.274577 
L 188.199669 126.755303 
L 190.044298 135.734646 
L 191.888926 157.309504 
L 197.42281 158.186384 
L 199.267438 156.958884 
L 201.112066 158.43751 
L 202.956694 166.333519 
L 204.801322 143.023809 
L 210.335207 127.435813 
L 212.179835 114.620055 
L 214.024463 98.099877 
L 215.869091 150.02014 
L 217.713719 142.651318 
L 223.247603 152.204578 
L 225.092231 147.862036 
L 226.93686 135.289235 
L 228.781488 151.995634 
L 230.626116 173.531518 
L 236.16 182.958114 
L 238.004628 171.356031 
L 239.849256 173.929444 
L 241.693884 194.79522 
L 243.538512 199.269751 
L 250.917025 208.504842 
L 252.761653 221.842622 
L 254.606281 212.803908 
L 256.450909 191.601355 
L 261.984793 199.561081 
L 263.829421 219.069515 
L 265.67405 197.795327 
L 267.518678 200.46647 
L 269.363306 212.407459 
L 274.89719 246.678156 
L 276.741818 249.680545 
L 278.586446 216.935496 
L 280.431074 228.400307 
L 282.275702 239.956067 
L 287.809587 241.906791 
L 289.654215 226.01684 
L 291.498843 202.234924 
L 293.343471 192.435313 
L 295.188099 181.035076 
L 300.721983 182.163651 
L 302.566612 166.330792 
L 304.41124 176.331531 
L 306.255868 161.307828 
L 308.100496 150.817739 
L 313.63438 149.010968 
L 315.479008 142.542161 
L 317.323636 143.606017 
L 319.168264 163.056488 
L 321.012893 158.066276 
L 326.546777 150.039404 
L 328.391405 158.884549 
L 330.236033 173.013377 
L 332.080661 172.919833 
L 333.925289 173.277333 
L 339.459174 188.489393 
L 341.303802 194.011162 
L 343.14843 190.811807 
L 344.993058 205.365864 
L 352.37157 199.206863 
L 354.216198 184.924703 
L 356.060826 184.541902 
L 357.905455 200.735723 
L 359.750083 227.675524 
L 365.283967 223.820508 
L 367.128595 239.528269 
L 368.973223 245.421956 
L 370.817851 205.848882 
L 372.662479 233.730798 
L 378.196364 225.290693 
L 380.040992 217.969077 
L 381.88562 178.5318 
L 383.730248 214.589291 
L 385.574876 213.313251 
L 391.10876 240.565394 
L 392.953388 246.61158 
L 394.798017 258.308749 
L 396.642645 262.952658 
L 398.487273 256.806002 
" style="fill:none;stroke:#0000ff;stroke-linecap:square;stroke-opacity:0.9;stroke-width:2;"/>
   </g>
   <g id="line2d_12">
    <path clip-path="url(#p70ac475c52)" d="M 73.832727 129.910483 
L 75.677355 132.876815 
L 81.21124 129.288852 
L 83.055868 119.784872 
L 84.900496 119.270516 
L 88.589752 144.211564 
L 94.123636 133.06462 
L 95.968264 154.44677 
L 97.812893 166.660573 
L 99.657521 153.428302 
L 101.502149 160.523724 
L 107.036033 146.072687 
L 108.880661 128.118417 
L 110.725289 122.446798 
L 112.569917 122.45867 
L 114.414545 116.279744 
L 119.94843 126.403308 
L 121.793058 126.199956 
L 123.637686 118.287899 
L 125.482314 117.445329 
L 127.326942 129.530857 
L 132.860826 141.095178 
L 134.705455 121.711242 
L 136.550083 116.261196 
L 138.394711 107.575308 
L 145.773223 93.667565 
L 147.617851 94.128288 
L 149.462479 93.361391 
L 151.307107 94.776905 
L 153.151736 99.704729 
L 158.68562 88.55048 
L 160.530248 77.658339 
L 162.374876 100.43035 
L 164.219504 96.978138 
L 166.064132 92.378914 
L 171.598017 92.620674 
L 173.442645 86.737335 
L 175.287273 86.44329 
L 177.131901 94.539927 
L 178.976529 94.79291 
L 186.355041 117.350588 
L 188.199669 126.786414 
L 190.044298 136.704128 
L 191.888926 157.562074 
L 197.42281 158.229922 
L 199.267438 155.274158 
L 201.112066 158.196627 
L 202.956694 165.894364 
L 204.801322 142.232094 
L 210.335207 127.535584 
L 212.179835 115.110075 
L 214.024463 99.065761 
L 215.869091 148.049092 
L 217.713719 140.367913 
L 223.247603 146.78922 
L 225.092231 141.439966 
L 226.93686 131.789056 
L 228.781488 149.007196 
L 230.626116 169.429305 
L 236.16 178.10942 
L 238.004628 167.574192 
L 239.849256 170.048997 
L 241.693884 189.150568 
L 243.538512 193.86105 
L 250.917025 201.883828 
L 252.761653 214.822515 
L 254.606281 209.514804 
L 256.450909 187.190529 
L 261.984793 196.91997 
L 263.829421 216.23205 
L 265.67405 193.940352 
L 267.518678 195.771858 
L 269.363306 208.691987 
L 274.89719 240.678452 
L 276.741818 244.827412 
L 278.586446 212.83976 
L 280.431074 224.789469 
L 282.275702 234.896052 
L 287.809587 236.435826 
L 289.654215 220.786914 
L 291.498843 199.283559 
L 293.343471 189.967753 
L 295.188099 180.343445 
L 300.721983 180.265662 
L 302.566612 165.183892 
L 304.41124 174.055169 
L 306.255868 159.554874 
L 308.100496 149.131026 
L 313.63438 147.867475 
L 315.479008 142.532833 
L 317.323636 143.015571 
L 319.168264 161.796666 
L 321.012893 157.375246 
L 326.546777 150.855147 
L 328.391405 160.671494 
L 330.236033 172.448732 
L 332.080661 173.12579 
L 333.925289 172.307732 
L 339.459174 186.964801 
L 341.303802 192.278123 
L 343.14843 189.328322 
L 344.993058 202.554467 
L 352.37157 196.348199 
L 354.216198 183.696701 
L 356.060826 178.095141 
L 357.905455 190.238998 
L 359.750083 217.070674 
L 365.283967 214.800749 
L 367.128595 231.110761 
L 368.973223 233.580876 
L 370.817851 202.695108 
L 372.662479 231.211219 
L 378.196364 224.818245 
L 380.040992 218.205435 
L 381.88562 178.145325 
L 383.730248 212.454594 
L 385.574876 209.874832 
L 391.10876 236.913428 
L 392.953388 244.790387 
L 394.798017 254.547007 
L 396.642645 259.207352 
L 398.487273 245.179935 
" style="fill:none;stroke:#ff0000;stroke-linecap:square;stroke-opacity:0.9;stroke-width:2;"/>
   </g>
   <g id="line2d_13">
    <path clip-path="url(#p70ac475c52)" d="M 73.832727 129.910483 
L 75.677355 133.099225 
L 81.21124 129.165963 
L 83.055868 119.69925 
L 84.900496 118.668212 
L 88.589752 143.864253 
L 94.123636 132.251684 
L 95.968264 154.483126 
L 97.812893 166.709953 
L 99.657521 153.029834 
L 101.502149 160.801058 
L 107.036033 144.960918 
L 108.880661 128.407271 
L 110.725289 121.374856 
L 112.569917 122.394775 
L 114.414545 116.253648 
L 119.94843 126.296257 
L 121.793058 125.132425 
L 123.637686 117.303369 
L 125.482314 116.8483 
L 127.326942 128.820751 
L 132.860826 140.436184 
L 134.705455 121.434181 
L 136.550083 116.262767 
L 138.394711 107.225911 
L 145.773223 93.792997 
L 147.617851 94.578519 
L 149.462479 93.173253 
L 151.307107 94.398073 
L 153.151736 98.809857 
L 158.68562 88.529251 
L 160.530248 77.390679 
L 162.374876 101.201355 
L 164.219504 96.151696 
L 166.064132 92.00792 
L 171.598017 92.157448 
L 173.442645 85.643812 
L 175.287273 85.552031 
L 177.131901 94.274747 
L 178.976529 94.234114 
L 186.355041 116.439731 
L 188.199669 125.602508 
L 190.044298 135.533451 
L 191.888926 157.459286 
L 197.42281 157.793698 
L 199.267438 156.251176 
L 201.112066 158.435058 
L 202.956694 166.745135 
L 204.801322 143.00017 
L 210.335207 126.458707 
L 212.179835 114.469953 
L 214.024463 97.589845 
L 215.869091 148.297468 
L 217.713719 142.361163 
L 223.247603 151.673932 
L 225.092231 146.482317 
L 226.93686 134.907604 
L 228.781488 151.459759 
L 230.626116 173.139943 
L 236.16 181.704489 
L 238.004628 169.71657 
L 239.849256 173.348016 
L 241.693884 193.307529 
L 243.538512 198.332551 
L 250.917025 206.743671 
L 252.761653 220.065385 
L 254.606281 210.969747 
L 256.450909 190.150455 
L 261.984793 198.463791 
L 263.829421 217.24691 
L 265.67405 196.418959 
L 267.518678 199.327031 
L 269.363306 211.913177 
L 274.89719 245.667646 
L 276.741818 249.213777 
L 278.586446 215.357811 
L 280.431074 227.615225 
L 282.275702 238.857739 
L 287.809587 240.53907 
L 289.654215 224.398244 
L 291.498843 201.427093 
L 293.343471 190.797831 
L 295.188099 180.317822 
L 300.721983 181.538394 
L 302.566612 164.438038 
L 304.41124 174.622831 
L 306.255868 159.388586 
L 308.100496 149.306028 
L 313.63438 147.358851 
L 315.479008 141.48359 
L 317.323636 142.117534 
L 319.168264 162.029607 
L 321.012893 157.261972 
L 326.546777 149.000329 
L 328.391405 157.878455 
L 330.236033 171.6545 
L 332.080661 172.233808 
L 333.925289 172.218535 
L 339.459174 187.530323 
L 341.303802 192.887635 
L 343.14843 189.895427 
L 344.993058 204.824306 
L 352.37157 199.013836 
L 354.216198 183.564934 
L 356.060826 184.259085 
L 357.905455 199.641262 
L 359.750083 227.268486 
L 365.283967 223.518623 
L 367.128595 239.828499 
L 368.973223 245.535305 
L 370.817851 205.702327 
L 372.662479 234.740363 
L 378.196364 225.162128 
L 380.040992 218.593689 
L 381.88562 178.562856 
L 383.730248 214.563191 
L 385.574876 214.096034 
L 391.10876 240.053219 
L 392.953388 246.477472 
L 394.798017 258.802605 
L 396.642645 263.03882 
L 398.487273 247.641022 
" style="fill:none;stroke:#008000;stroke-linecap:square;stroke-opacity:0.9;stroke-width:2;"/>
   </g>
   <g id="line2d_14">
    <path clip-path="url(#p70ac475c52)" d="M 73.832727 129.910483 
L 75.677355 132.496257 
L 81.21124 128.709502 
L 83.055868 119.908937 
L 84.900496 119.109426 
L 88.589752 144.559472 
L 94.123636 133.237895 
L 95.968264 153.998542 
L 97.812893 166.635781 
L 99.657521 153.1785 
L 101.502149 160.862752 
L 107.036033 145.468362 
L 108.880661 128.35639 
L 110.725289 122.36347 
L 112.569917 122.488625 
L 114.414545 116.577068 
L 119.94843 126.21555 
L 121.793058 125.817128 
L 123.637686 118.164657 
L 125.482314 116.617918 
L 127.326942 129.371252 
L 132.860826 140.636163 
L 134.705455 121.360315 
L 136.550083 116.340141 
L 138.394711 106.842789 
L 145.773223 94.254481 
L 147.617851 94.140028 
L 149.462479 93.754809 
L 151.307107 94.969682 
L 153.151736 99.16793 
L 158.68562 88.556754 
L 160.530248 77.705886 
L 162.374876 101.428599 
L 164.219504 96.761488 
L 166.064132 92.004559 
L 171.598017 92.823549 
L 173.442645 86.322014 
L 175.287273 86.616697 
L 177.131901 94.930964 
L 178.976529 94.231762 
L 186.355041 117.148353 
L 188.199669 126.110132 
L 190.044298 136.457266 
L 191.888926 157.510516 
L 197.42281 158.40292 
L 199.267438 156.833475 
L 201.112066 158.41953 
L 202.956694 166.422855 
L 204.801322 143.360949 
L 210.335207 126.841646 
L 212.179835 115.227639 
L 214.024463 98.288036 
L 215.869091 149.971038 
L 217.713719 142.902003 
L 223.247603 152.824246 
L 225.092231 148.011188 
L 226.93686 135.7454 
L 228.781488 152.405656 
L 230.626116 174.500696 
L 236.16 182.420249 
L 238.004628 171.475929 
L 239.849256 174.514688 
L 241.693884 194.515689 
L 243.538512 199.636412 
L 250.917025 208.623563 
L 252.761653 221.829824 
L 254.606281 212.600116 
L 256.450909 191.496225 
L 261.984793 199.971964 
L 263.829421 218.622585 
L 265.67405 197.230754 
L 267.518678 199.882593 
L 269.363306 212.691172 
L 274.89719 247.674146 
L 276.741818 250.261245 
L 278.586446 216.995426 
L 280.431074 228.940127 
L 282.275702 240.181784 
L 287.809587 241.937612 
L 289.654215 225.825904 
L 291.498843 202.192388 
L 293.343471 191.969318 
L 295.188099 180.968455 
L 300.721983 182.369476 
L 302.566612 165.799747 
L 304.41124 175.973941 
L 306.255868 161.141447 
L 308.100496 150.089351 
L 313.63438 148.274309 
L 315.479008 142.039759 
L 317.323636 143.192828 
L 319.168264 163.169463 
L 321.012893 158.217984 
L 326.546777 149.168794 
L 328.391405 159.07249 
L 330.236033 172.871506 
L 332.080661 173.657306 
L 333.925289 172.982023 
L 339.459174 189.090356 
L 341.303802 194.084863 
L 343.14843 190.539133 
L 344.993058 204.967288 
L 352.37157 199.933501 
L 354.216198 184.612868 
L 356.060826 185.367138 
L 357.905455 200.747693 
L 359.750083 228.413043 
L 365.283967 224.102616 
L 367.128595 240.296652 
L 368.973223 245.318088 
L 370.817851 206.648844 
L 372.662479 234.597687 
L 378.196364 226.0096 
L 380.040992 218.523245 
L 381.88562 178.154337 
L 383.730248 214.245605 
L 385.574876 213.616177 
L 391.10876 240.747371 
L 392.953388 247.338551 
L 394.798017 258.111512 
L 396.642645 263.15293 
L 398.487273 246.899337 
" style="fill:none;stroke:#ec5283;stroke-linecap:square;stroke-width:2;"/>
   </g>
   <g id="line2d_15">
    <path clip-path="url(#p70ac475c52)" d="M 73.832727 129.910483 
L 75.677355 133.090281 
L 81.21124 128.801547 
L 83.055868 119.833432 
L 84.900496 118.60305 
L 88.589752 143.940096 
L 94.123636 132.674316 
L 95.968264 154.49174 
L 97.812893 166.155845 
L 99.657521 153.321002 
L 101.502149 160.352474 
L 107.036033 145.361055 
L 108.880661 127.465265 
L 110.725289 122.121834 
L 112.569917 122.704359 
L 114.414545 116.906155 
L 119.94843 126.34769 
L 121.793058 124.996294 
L 123.637686 117.480177 
L 125.482314 116.432519 
L 127.326942 129.496518 
L 132.860826 140.504769 
L 134.705455 121.438433 
L 136.550083 115.531637 
L 138.394711 106.845196 
L 145.773223 93.32712 
L 147.617851 94.413802 
L 149.462479 93.013189 
L 151.307107 94.332745 
L 153.151736 98.741653 
L 158.68562 87.617859 
L 160.530248 77.596113 
L 162.374876 101.451002 
L 164.219504 96.503365 
L 166.064132 91.485544 
L 171.598017 92.905383 
L 173.442645 86.437051 
L 175.287273 85.862906 
L 177.131901 94.326495 
L 178.976529 93.443156 
L 186.355041 116.837398 
L 188.199669 125.983097 
L 190.044298 135.873036 
L 191.888926 157.335681 
L 197.42281 157.559321 
L 199.267438 156.112845 
L 201.112066 157.960974 
L 202.956694 166.252234 
L 204.801322 143.235409 
L 210.335207 127.193531 
L 212.179835 114.147376 
L 214.024463 96.876279 
L 215.869091 148.287646 
L 217.713719 142.027718 
L 223.247603 151.638271 
L 225.092231 146.622841 
L 226.93686 134.285653 
L 228.781488 151.876016 
L 230.626116 172.284611 
L 236.16 181.137538 
L 238.004628 170.412194 
L 239.849256 173.335541 
L 241.693884 192.899876 
L 243.538512 198.258347 
L 250.917025 206.640596 
L 252.761653 220.421777 
L 254.606281 211.265914 
L 256.450909 190.481702 
L 261.984793 198.512499 
L 263.829421 217.67408 
L 265.67405 195.635932 
L 267.518678 198.476127 
L 269.363306 211.804499 
L 274.89719 246.102406 
L 276.741818 249.074652 
L 278.586446 215.578179 
L 280.431074 227.370356 
L 282.275702 239.115911 
L 287.809587 240.060763 
L 289.654215 223.982324 
L 291.498843 200.941038 
L 293.343471 191.339009 
L 295.188099 180.18967 
L 300.721983 180.809571 
L 302.566612 164.969277 
L 304.41124 174.426111 
L 306.255868 159.680298 
L 308.100496 149.01484 
L 313.63438 147.090906 
L 315.479008 141.389679 
L 317.323636 142.788685 
L 319.168264 162.43796 
L 321.012893 157.698181 
L 326.546777 148.59357 
L 328.391405 157.848717 
L 330.236033 171.555739 
L 332.080661 172.395773 
L 333.925289 172.113558 
L 339.459174 187.517098 
L 341.303802 192.746814 
L 343.14843 190.32088 
L 344.993058 204.385025 
L 352.37157 198.19378 
L 354.216198 184.128991 
L 356.060826 184.60112 
L 357.905455 200.375548 
L 359.750083 226.858067 
L 365.283967 223.234442 
L 367.128595 239.556912 
L 368.973223 244.993692 
L 370.817851 205.588997 
L 372.662479 234.236334 
L 378.196364 224.741694 
L 380.040992 217.960826 
L 381.88562 178.035362 
L 383.730248 214.174136 
L 385.574876 213.999602 
L 391.10876 239.903522 
L 392.953388 246.647389 
L 394.798017 258.565404 
L 396.642645 262.89644 
L 398.487273 247.271487 
" style="fill:none;stroke:#00ff00;stroke-linecap:square;stroke-opacity:0.9;stroke-width:2;"/>
   </g>
   <g id="line2d_16">
    <path clip-path="url(#p70ac475c52)" d="M 73.832727 129.910483 
L 75.677355 131.437503 
L 81.21124 125.344116 
L 83.055868 118.506542 
L 84.900496 118.771969 
L 88.589752 139.780994 
L 94.123636 127.689135 
L 95.968264 147.458527 
L 97.812893 161.543397 
L 99.657521 148.080468 
L 101.502149 155.266736 
L 107.036033 135.576551 
L 108.880661 118.347437 
L 110.725289 110.76292 
L 112.569917 109.361023 
L 114.414545 106.839157 
L 119.94843 116.735485 
L 121.793058 111.151771 
L 123.637686 104.565336 
L 125.482314 99.243555 
L 127.326942 110.377931 
L 132.860826 124.318554 
L 134.705455 100.780699 
L 136.550083 95.562799 
L 138.394711 85.876348 
L 145.773223 72.525237 
L 147.617851 73.783091 
L 149.462479 73.546432 
L 151.307107 75.157032 
L 153.151736 80.058927 
L 158.68562 64.414963 
L 160.530248 52.154182 
L 162.374876 80.603362 
L 164.219504 71.901794 
L 166.064132 68.873752 
L 171.598017 69.742014 
L 173.442645 59.708011 
L 175.287273 58.366793 
L 177.131901 70.727845 
L 178.976529 67.742086 
L 186.355041 90.941405 
L 188.199669 96.123167 
L 190.044298 108.506827 
L 191.888926 132.391063 
L 197.42281 130.643922 
L 199.267438 142.676324 
L 201.112066 142.633131 
L 202.956694 149.255304 
L 204.801322 123.63004 
L 210.335207 102.255549 
L 212.179835 92.727315 
L 214.024463 77.054293 
L 215.869091 140.144677 
L 217.713719 137.946662 
L 223.247603 154.182421 
L 225.092231 156.524729 
L 226.93686 135.266865 
L 228.781488 152.738983 
L 230.626116 174.884311 
L 236.16 181.698266 
L 238.004628 169.295195 
L 239.849256 174.461731 
L 241.693884 192.363269 
L 243.538512 198.118793 
L 250.917025 209.074427 
L 252.761653 221.413137 
L 254.606281 200.440423 
L 256.450909 182.242255 
L 261.984793 186.951579 
L 263.829421 204.250145 
L 265.67405 183.724192 
L 267.518678 189.702606 
L 269.363306 208.004153 
L 274.89719 249.180821 
L 276.741818 244.84409 
L 278.586446 204.224067 
L 280.431074 217.874314 
L 282.275702 233.802089 
L 287.809587 234.598529 
L 289.654215 216.303088 
L 291.498843 184.668053 
L 293.343471 174.120388 
L 295.188099 159.755954 
L 300.721983 162.869628 
L 302.566612 141.719997 
L 304.41124 153.639689 
L 306.255868 139.609937 
L 308.100496 127.625254 
L 313.63438 126.619695 
L 315.479008 118.338921 
L 317.323636 123.088713 
L 319.168264 149.524438 
L 321.012893 146.684405 
L 326.546777 137.424819 
L 328.391405 150.29518 
L 330.236033 164.715127 
L 332.080661 168.735857 
L 333.925289 169.411945 
L 339.459174 184.242392 
L 341.303802 190.232315 
L 343.14843 185.883962 
L 344.993058 204.306252 
L 352.37157 193.320636 
L 354.216198 175.622206 
L 356.060826 181.215596 
L 357.905455 206.576122 
L 359.750083 237.258316 
L 365.283967 231.080735 
L 367.128595 252.855584 
L 368.973223 263.702015 
L 370.817851 211.881726 
L 372.662479 240.577876 
L 378.196364 224.785126 
L 380.040992 213.851342 
L 381.88562 171.724864 
L 383.730248 212.166747 
L 385.574876 216.375767 
L 391.10876 243.341771 
L 392.953388 243.317758 
L 394.798017 258.96376 
L 396.642645 265.797818 
L 398.487273 247.101929 
" style="fill:none;stroke:#a5b9cf;stroke-linecap:square;stroke-width:2;"/>
   </g>
   <g id="patch_3">
    <path d="M 57.6 276.48 
L 57.6 41.472 
" style="fill:none;stroke:#000000;stroke-linecap:square;stroke-linejoin:miter;stroke-width:0.8;"/>
   </g>
   <g id="patch_4">
    <path d="M 414.72 276.48 
L 414.72 41.472 
" style="fill:none;stroke:#000000;stroke-linecap:square;stroke-linejoin:miter;stroke-width:0.8;"/>
   </g>
   <g id="patch_5">
    <path d="M 57.6 276.48 
L 414.72 276.48 
" style="fill:none;stroke:#000000;stroke-linecap:square;stroke-linejoin:miter;stroke-width:0.8;"/>
   </g>
   <g id="patch_6">
    <path d="M 57.6 41.472 
L 414.72 41.472 
" style="fill:none;stroke:#000000;stroke-linecap:square;stroke-linejoin:miter;stroke-width:0.8;"/>
   </g>
   <g id="text_12">
    <!-- TESTFUNDS -->
    <g transform="translate(200.470313 22.034625)scale(0.12 -0.12)">
     <defs>
      <path d="M -19 4666 
L 3928 4666 
L 3928 4134 
L 2272 4134 
L 2272 0 
L 1638 0 
L 1638 4134 
L -19 4134 
L -19 4666 
z
" id="DejaVuSans-54" transform="scale(0.015625)"/>
      <path d="M 628 4666 
L 3578 4666 
L 3578 4134 
L 1259 4134 
L 1259 2753 
L 3481 2753 
L 3481 2222 
L 1259 2222 
L 1259 531 
L 3634 531 
L 3634 0 
L 628 0 
L 628 4666 
z
" id="DejaVuSans-45" transform="scale(0.015625)"/>
      <path d="M 3425 4513 
L 3425 3897 
Q 3066 4069 2747 4153 
Q 2428 4238 2131 4238 
Q 1616 4238 1336 4038 
Q 1056 3838 1056 3469 
Q 1056 3159 1242 3001 
Q 1428 2844 1947 2747 
L 2328 2669 
Q 3034 2534 3370 2195 
Q 3706 1856 3706 1288 
Q 3706 609 3251 259 
Q 2797 -91 1919 -91 
Q 1588 -91 1214 -16 
Q 841 59 441 206 
L 441 856 
Q 825 641 1194 531 
Q 1563 422 1919 422 
Q 2459 422 2753 634 
Q 3047 847 3047 1241 
Q 3047 1584 2836 1778 
Q 2625 1972 2144 2069 
L 1759 2144 
Q 1053 2284 737 2584 
Q 422 2884 422 3419 
Q 422 4038 858 4394 
Q 1294 4750 2059 4750 
Q 2388 4750 2728 4690 
Q 3069 4631 3425 4513 
z
" id="DejaVuSans-53" transform="scale(0.015625)"/>
      <path d="M 628 4666 
L 3309 4666 
L 3309 4134 
L 1259 4134 
L 1259 2759 
L 3109 2759 
L 3109 2228 
L 1259 2228 
L 1259 0 
L 628 0 
L 628 4666 
z
" id="DejaVuSans-46" transform="scale(0.015625)"/>
      <path d="M 556 4666 
L 1191 4666 
L 1191 1831 
Q 1191 1081 1462 751 
Q 1734 422 2344 422 
Q 2950 422 3222 751 
Q 3494 1081 3494 1831 
L 3494 4666 
L 4128 4666 
L 4128 1753 
Q 4128 841 3676 375 
Q 3225 -91 2344 -91 
Q 1459 -91 1007 375 
Q 556 841 556 1753 
L 556 4666 
z
" id="DejaVuSans-55" transform="scale(0.015625)"/>
      <path d="M 628 4666 
L 1478 4666 
L 3547 763 
L 3547 4666 
L 4159 4666 
L 4159 0 
L 3309 0 
L 1241 3903 
L 1241 0 
L 628 0 
L 628 4666 
z
" id="DejaVuSans-4e" transform="scale(0.015625)"/>
      <path d="M 1259 4147 
L 1259 519 
L 2022 519 
Q 2988 519 3436 956 
Q 3884 1394 3884 2338 
Q 3884 3275 3436 3711 
Q 2988 4147 2022 4147 
L 1259 4147 
z
M 628 4666 
L 1925 4666 
Q 3281 4666 3915 4102 
Q 4550 3538 4550 2338 
Q 4550 1131 3912 565 
Q 3275 0 1925 0 
L 628 0 
L 628 4666 
z
" id="DejaVuSans-44" transform="scale(0.015625)"/>
     </defs>
     <use xlink:href="#DejaVuSans-54"/>
     <use x="61.083984" xlink:href="#DejaVuSans-45"/>
     <use x="124.267578" xlink:href="#DejaVuSans-53"/>
     <use x="187.744141" xlink:href="#DejaVuSans-54"/>
     <use x="248.828125" xlink:href="#DejaVuSans-46"/>
     <use x="306.347656" xlink:href="#DejaVuSans-55"/>
     <use x="379.541016" xlink:href="#DejaVuSans-4e"/>
     <use x="454.345703" xlink:href="#DejaVuSans-44"/>
     <use x="531.347656" xlink:href="#DejaVuSans-53"/>
    </g>
    <!-- daily_report -->
    <g transform="translate(200.466563 35.472)scale(0.12 -0.12)">
     <defs>
      <path d="M 603 3500 
L 1178 3500 
L 1178 0 
L 603 0 
L 603 3500 
z
M 603 4863 
L 1178 4863 
L 1178 4134 
L 603 4134 
L 603 4863 
z
" id="DejaVuSans-69" transform="scale(0.015625)"/>
      <path d="M 603 4863 
L 1178 4863 
L 1178 0 
L 603 0 
L 603 4863 
z
" id="DejaVuSans-6c" transform="scale(0.015625)"/>
      <path d="M 2059 -325 
Q 1816 -950 1584 -1140 
Q 1353 -1331 966 -1331 
L 506 -1331 
L 506 -850 
L 844 -850 
Q 1081 -850 1212 -737 
Q 1344 -625 1503 -206 
L 1606 56 
L 191 3500 
L 800 3500 
L 1894 763 
L 2988 3500 
L 3597 3500 
L 2059 -325 
z
" id="DejaVuSans-79" transform="scale(0.015625)"/>
      <path d="M 3263 -1063 
L 3263 -1509 
L -63 -1509 
L -63 -1063 
L 3263 -1063 
z
" id="DejaVuSans-5f" transform="scale(0.015625)"/>
      <path d="M 2631 2963 
Q 2534 3019 2420 3045 
Q 2306 3072 2169 3072 
Q 1681 3072 1420 2755 
Q 1159 2438 1159 1844 
L 1159 0 
L 581 0 
L 581 3500 
L 1159 3500 
L 1159 2956 
Q 1341 3275 1631 3429 
Q 1922 3584 2338 3584 
Q 2397 3584 2469 3576 
Q 2541 3569 2628 3553 
L 2631 2963 
z
" id="DejaVuSans-72" transform="scale(0.015625)"/>
      <path d="M 1159 525 
L 1159 -1331 
L 581 -1331 
L 581 3500 
L 1159 3500 
L 1159 2969 
Q 1341 3281 1617 3432 
Q 1894 3584 2278 3584 
Q 2916 3584 3314 3078 
Q 3713 2572 3713 1747 
Q 3713 922 3314 415 
Q 2916 -91 2278 -91 
Q 1894 -91 1617 61 
Q 1341 213 1159 525 
z
M 3116 1747 
Q 3116 2381 2855 2742 
Q 2594 3103 2138 3103 
Q 1681 3103 1420 2742 
Q 1159 2381 1159 1747 
Q 1159 1113 1420 752 
Q 1681 391 2138 391 
Q 2594 391 2855 752 
Q 3116 1113 3116 1747 
z
" id="DejaVuSans-70" transform="scale(0.015625)"/>
      <path d="M 1959 3097 
Q 1497 3097 1228 2736 
Q 959 2375 959 1747 
Q 959 1119 1226 758 
Q 1494 397 1959 397 
Q 2419 397 2687 759 
Q 2956 1122 2956 1747 
Q 2956 2369 2687 2733 
Q 2419 3097 1959 3097 
z
M 1959 3584 
Q 2709 3584 3137 3096 
Q 3566 2609 3566 1747 
Q 3566 888 3137 398 
Q 2709 -91 1959 -91 
Q 1206 -91 779 398 
Q 353 888 353 1747 
Q 353 2609 779 3096 
Q 1206 3584 1959 3584 
z
" id="DejaVuSans-6f" transform="scale(0.015625)"/>
     </defs>
     <use xlink:href="#DejaVuSans-64"/>
     <use x="63.476562" xlink:href="#DejaVuSans-61"/>
     <use x="124.755859" xlink:href="#DejaVuSans-69"/>
     <use x="152.539062" xlink:href="#DejaVuSans-6c"/>
     <use x="180.322266" xlink:href="#DejaVuSans-79"/>
     <use x="239.501953" xlink:href="#DejaVuSans-5f"/>
     <use x="289.501953" xlink:href="#DejaVuSans-72"/>
     <use x="328.365234" xlink:href="#DejaVuSans-65"/>
     <use x="389.888672" xlink:href="#DejaVuSans-70"/>
     <use x="453.365234" xlink:href="#DejaVuSans-6f"/>
     <use x="514.546875" xlink:href="#DejaVuSans-72"/>
     <use x="555.660156" xlink:href="#DejaVuSans-74"/>
    </g>
   </g>
   <g id="legend_1">
    <g id="patch_7">
     <path d="M 64.6 271.48 
L 178.64375 271.48 
Q 180.64375 271.48 180.64375 269.48 
L 180.64375 182.41125 
Q 180.64375 180.41125 178.64375 180.41125 
L 64.6 180.41125 
Q 62.6 180.41125 62.6 182.41125 
L 62.6 269.48 
Q 62.6 271.48 64.6 271.48 
z
" style="fill:#ffffff;opacity:0.8;stroke:#cccccc;stroke-linejoin:miter;"/>
    </g>
    <g id="line2d_17">
     <path d="M 66.6 188.509687 
L 86.6 188.509687 
" style="fill:none;stroke:#0000ff;stroke-linecap:square;stroke-opacity:0.9;stroke-width:2;"/>
    </g>
    <g id="line2d_18"/>
    <g id="text_13">
     <!-- alpaca -->
     <g transform="translate(94.6 192.009687)scale(0.1 -0.1)">
      <defs>
       <path d="M 3122 3366 
L 3122 2828 
Q 2878 2963 2633 3030 
Q 2388 3097 2138 3097 
Q 1578 3097 1268 2742 
Q 959 2388 959 1747 
Q 959 1106 1268 751 
Q 1578 397 2138 397 
Q 2388 397 2633 464 
Q 2878 531 3122 666 
L 3122 134 
Q 2881 22 2623 -34 
Q 2366 -91 2075 -91 
Q 1284 -91 818 406 
Q 353 903 353 1747 
Q 353 2603 823 3093 
Q 1294 3584 2113 3584 
Q 2378 3584 2631 3529 
Q 2884 3475 3122 3366 
z
" id="DejaVuSans-63" transform="scale(0.015625)"/>
      </defs>
      <use xlink:href="#DejaVuSans-61"/>
      <use x="61.279297" xlink:href="#DejaVuSans-6c"/>
      <use x="89.0625" xlink:href="#DejaVuSans-70"/>
      <use x="152.539062" xlink:href="#DejaVuSans-61"/>
      <use x="213.818359" xlink:href="#DejaVuSans-63"/>
      <use x="268.798828" xlink:href="#DejaVuSans-61"/>
     </g>
    </g>
    <g id="line2d_19">
     <path d="M 66.6 203.187812 
L 86.6 203.187812 
" style="fill:none;stroke:#ff0000;stroke-linecap:square;stroke-opacity:0.9;stroke-width:2;"/>
    </g>
    <g id="line2d_20"/>
    <g id="text_14">
     <!-- mattress -->
     <g transform="translate(94.6 206.687812)scale(0.1 -0.1)">
      <defs>
       <path d="M 3328 2828 
Q 3544 3216 3844 3400 
Q 4144 3584 4550 3584 
Q 5097 3584 5394 3201 
Q 5691 2819 5691 2113 
L 5691 0 
L 5113 0 
L 5113 2094 
Q 5113 2597 4934 2840 
Q 4756 3084 4391 3084 
Q 3944 3084 3684 2787 
Q 3425 2491 3425 1978 
L 3425 0 
L 2847 0 
L 2847 2094 
Q 2847 2600 2669 2842 
Q 2491 3084 2119 3084 
Q 1678 3084 1418 2786 
Q 1159 2488 1159 1978 
L 1159 0 
L 581 0 
L 581 3500 
L 1159 3500 
L 1159 2956 
Q 1356 3278 1631 3431 
Q 1906 3584 2284 3584 
Q 2666 3584 2933 3390 
Q 3200 3197 3328 2828 
z
" id="DejaVuSans-6d" transform="scale(0.015625)"/>
       <path d="M 2834 3397 
L 2834 2853 
Q 2591 2978 2328 3040 
Q 2066 3103 1784 3103 
Q 1356 3103 1142 2972 
Q 928 2841 928 2578 
Q 928 2378 1081 2264 
Q 1234 2150 1697 2047 
L 1894 2003 
Q 2506 1872 2764 1633 
Q 3022 1394 3022 966 
Q 3022 478 2636 193 
Q 2250 -91 1575 -91 
Q 1294 -91 989 -36 
Q 684 19 347 128 
L 347 722 
Q 666 556 975 473 
Q 1284 391 1588 391 
Q 1994 391 2212 530 
Q 2431 669 2431 922 
Q 2431 1156 2273 1281 
Q 2116 1406 1581 1522 
L 1381 1569 
Q 847 1681 609 1914 
Q 372 2147 372 2553 
Q 372 3047 722 3315 
Q 1072 3584 1716 3584 
Q 2034 3584 2315 3537 
Q 2597 3491 2834 3397 
z
" id="DejaVuSans-73" transform="scale(0.015625)"/>
      </defs>
      <use xlink:href="#DejaVuSans-6d"/>
      <use x="97.412109" xlink:href="#DejaVuSans-61"/>
      <use x="158.691406" xlink:href="#DejaVuSans-74"/>
      <use x="197.900391" xlink:href="#DejaVuSans-74"/>
      <use x="237.109375" xlink:href="#DejaVuSans-72"/>
      <use x="275.972656" xlink:href="#DejaVuSans-65"/>
      <use x="337.496094" xlink:href="#DejaVuSans-73"/>
      <use x="389.595703" xlink:href="#DejaVuSans-73"/>
     </g>
    </g>
    <g id="line2d_21">
     <path d="M 66.6 217.865937 
L 86.6 217.865937 
" style="fill:none;stroke:#008000;stroke-linecap:square;stroke-opacity:0.9;stroke-width:2;"/>
    </g>
    <g id="line2d_22"/>
    <g id="text_15">
     <!-- daily-open-rebal -->
     <g transform="translate(94.6 221.365937)scale(0.1 -0.1)">
      <defs>
       <path d="M 3513 2113 
L 3513 0 
L 2938 0 
L 2938 2094 
Q 2938 2591 2744 2837 
Q 2550 3084 2163 3084 
Q 1697 3084 1428 2787 
Q 1159 2491 1159 1978 
L 1159 0 
L 581 0 
L 581 3500 
L 1159 3500 
L 1159 2956 
Q 1366 3272 1645 3428 
Q 1925 3584 2291 3584 
Q 2894 3584 3203 3211 
Q 3513 2838 3513 2113 
z
" id="DejaVuSans-6e" transform="scale(0.015625)"/>
       <path d="M 3116 1747 
Q 3116 2381 2855 2742 
Q 2594 3103 2138 3103 
Q 1681 3103 1420 2742 
Q 1159 2381 1159 1747 
Q 1159 1113 1420 752 
Q 1681 391 2138 391 
Q 2594 391 2855 752 
Q 3116 1113 3116 1747 
z
M 1159 2969 
Q 1341 3281 1617 3432 
Q 1894 3584 2278 3584 
Q 2916 3584 3314 3078 
Q 3713 2572 3713 1747 
Q 3713 922 3314 415 
Q 2916 -91 2278 -91 
Q 1894 -91 1617 61 
Q 1341 213 1159 525 
L 1159 0 
L 581 0 
L 581 4863 
L 1159 4863 
L 1159 2969 
z
" id="DejaVuSans-62" transform="scale(0.015625)"/>
      </defs>
      <use xlink:href="#DejaVuSans-64"/>
      <use x="63.476562" xlink:href="#DejaVuSans-61"/>
      <use x="124.755859" xlink:href="#DejaVuSans-69"/>
      <use x="152.539062" xlink:href="#DejaVuSans-6c"/>
      <use x="180.322266" xlink:href="#DejaVuSans-79"/>
      <use x="237.751953" xlink:href="#DejaVuSans-2d"/>
      <use x="275.710938" xlink:href="#DejaVuSans-6f"/>
      <use x="336.892578" xlink:href="#DejaVuSans-70"/>
      <use x="400.369141" xlink:href="#DejaVuSans-65"/>
      <use x="461.892578" xlink:href="#DejaVuSans-6e"/>
      <use x="525.271484" xlink:href="#DejaVuSans-2d"/>
      <use x="561.355469" xlink:href="#DejaVuSans-72"/>
      <use x="600.21875" xlink:href="#DejaVuSans-65"/>
      <use x="661.742188" xlink:href="#DejaVuSans-62"/>
      <use x="725.21875" xlink:href="#DejaVuSans-61"/>
      <use x="786.498047" xlink:href="#DejaVuSans-6c"/>
     </g>
    </g>
    <g id="line2d_23">
     <path d="M 66.6 232.544062 
L 86.6 232.544062 
" style="fill:none;stroke:#ec5283;stroke-linecap:square;stroke-width:2;"/>
    </g>
    <g id="line2d_24"/>
    <g id="text_16">
     <!-- daily-close-rebal -->
     <g transform="translate(94.6 236.044062)scale(0.1 -0.1)">
      <use xlink:href="#DejaVuSans-64"/>
      <use x="63.476562" xlink:href="#DejaVuSans-61"/>
      <use x="124.755859" xlink:href="#DejaVuSans-69"/>
      <use x="152.539062" xlink:href="#DejaVuSans-6c"/>
      <use x="180.322266" xlink:href="#DejaVuSans-79"/>
      <use x="237.751953" xlink:href="#DejaVuSans-2d"/>
      <use x="273.835938" xlink:href="#DejaVuSans-63"/>
      <use x="328.816406" xlink:href="#DejaVuSans-6c"/>
      <use x="356.599609" xlink:href="#DejaVuSans-6f"/>
      <use x="417.78125" xlink:href="#DejaVuSans-73"/>
      <use x="469.880859" xlink:href="#DejaVuSans-65"/>
      <use x="531.404297" xlink:href="#DejaVuSans-2d"/>
      <use x="567.488281" xlink:href="#DejaVuSans-72"/>
      <use x="606.351562" xlink:href="#DejaVuSans-65"/>
      <use x="667.875" xlink:href="#DejaVuSans-62"/>
      <use x="731.351562" xlink:href="#DejaVuSans-61"/>
      <use x="792.630859" xlink:href="#DejaVuSans-6c"/>
     </g>
    </g>
    <g id="line2d_25">
     <path d="M 66.6 247.222187 
L 86.6 247.222187 
" style="fill:none;stroke:#00ff00;stroke-linecap:square;stroke-opacity:0.9;stroke-width:2;"/>
    </g>
    <g id="line2d_26"/>
    <g id="text_17">
     <!-- trader-baseline -->
     <g transform="translate(94.6 250.722187)scale(0.1 -0.1)">
      <use xlink:href="#DejaVuSans-74"/>
      <use x="39.208984" xlink:href="#DejaVuSans-72"/>
      <use x="80.322266" xlink:href="#DejaVuSans-61"/>
      <use x="141.601562" xlink:href="#DejaVuSans-64"/>
      <use x="205.078125" xlink:href="#DejaVuSans-65"/>
      <use x="266.601562" xlink:href="#DejaVuSans-72"/>
      <use x="301.339844" xlink:href="#DejaVuSans-2d"/>
      <use x="337.423828" xlink:href="#DejaVuSans-62"/>
      <use x="400.900391" xlink:href="#DejaVuSans-61"/>
      <use x="462.179688" xlink:href="#DejaVuSans-73"/>
      <use x="514.279297" xlink:href="#DejaVuSans-65"/>
      <use x="575.802734" xlink:href="#DejaVuSans-6c"/>
      <use x="603.585938" xlink:href="#DejaVuSans-69"/>
      <use x="631.369141" xlink:href="#DejaVuSans-6e"/>
      <use x="694.748047" xlink:href="#DejaVuSans-65"/>
     </g>
    </g>
    <g id="line2d_27">
     <path d="M 66.6 261.900312 
L 86.6 261.900312 
" style="fill:none;stroke:#a5b9cf;stroke-linecap:square;stroke-width:2;"/>
    </g>
    <g id="line2d_28"/>
    <g id="text_18">
     <!-- default-cfg -->
     <g transform="translate(94.6 265.400312)scale(0.1 -0.1)">
      <defs>
       <path d="M 2375 4863 
L 2375 4384 
L 1825 4384 
Q 1516 4384 1395 4259 
Q 1275 4134 1275 3809 
L 1275 3500 
L 2222 3500 
L 2222 3053 
L 1275 3053 
L 1275 0 
L 697 0 
L 697 3053 
L 147 3053 
L 147 3500 
L 697 3500 
L 697 3744 
Q 697 4328 969 4595 
Q 1241 4863 1831 4863 
L 2375 4863 
z
" id="DejaVuSans-66" transform="scale(0.015625)"/>
       <path d="M 544 1381 
L 544 3500 
L 1119 3500 
L 1119 1403 
Q 1119 906 1312 657 
Q 1506 409 1894 409 
Q 2359 409 2629 706 
Q 2900 1003 2900 1516 
L 2900 3500 
L 3475 3500 
L 3475 0 
L 2900 0 
L 2900 538 
Q 2691 219 2414 64 
Q 2138 -91 1772 -91 
Q 1169 -91 856 284 
Q 544 659 544 1381 
z
M 1991 3584 
L 1991 3584 
z
" id="DejaVuSans-75" transform="scale(0.015625)"/>
       <path d="M 2906 1791 
Q 2906 2416 2648 2759 
Q 2391 3103 1925 3103 
Q 1463 3103 1205 2759 
Q 947 2416 947 1791 
Q 947 1169 1205 825 
Q 1463 481 1925 481 
Q 2391 481 2648 825 
Q 2906 1169 2906 1791 
z
M 3481 434 
Q 3481 -459 3084 -895 
Q 2688 -1331 1869 -1331 
Q 1566 -1331 1297 -1286 
Q 1028 -1241 775 -1147 
L 775 -588 
Q 1028 -725 1275 -790 
Q 1522 -856 1778 -856 
Q 2344 -856 2625 -561 
Q 2906 -266 2906 331 
L 2906 616 
Q 2728 306 2450 153 
Q 2172 0 1784 0 
Q 1141 0 747 490 
Q 353 981 353 1791 
Q 353 2603 747 3093 
Q 1141 3584 1784 3584 
Q 2172 3584 2450 3431 
Q 2728 3278 2906 2969 
L 2906 3500 
L 3481 3500 
L 3481 434 
z
" id="DejaVuSans-67" transform="scale(0.015625)"/>
      </defs>
      <use xlink:href="#DejaVuSans-64"/>
      <use x="63.476562" xlink:href="#DejaVuSans-65"/>
      <use x="125" xlink:href="#DejaVuSans-66"/>
      <use x="160.205078" xlink:href="#DejaVuSans-61"/>
      <use x="221.484375" xlink:href="#DejaVuSans-75"/>
      <use x="284.863281" xlink:href="#DejaVuSans-6c"/>
      <use x="312.646484" xlink:href="#DejaVuSans-74"/>
      <use x="351.855469" xlink:href="#DejaVuSans-2d"/>
      <use x="387.939453" xlink:href="#DejaVuSans-63"/>
      <use x="442.919922" xlink:href="#DejaVuSans-66"/>
      <use x="478.125" xlink:href="#DejaVuSans-67"/>
     </g>
    </g>
   </g>
  </g>
 </g>
 <defs>
  <clipPath id="p70ac475c52">
   <rect height="235.008" width="357.12" x="57.6" y="41.472"/>
  </clipPath>
 </defs>
</svg>
