<?xml version="1.0" encoding="utf-8" standalone="no"?>
<!DOCTYPE svg PUBLIC "-//W3C//DTD SVG 1.1//EN"
  "http://www.w3.org/Graphics/SVG/1.1/DTD/svg11.dtd">
<svg height="345.6pt" version="1.1" viewBox="0 0 460.8 345.6" width="460.8pt" xmlns="http://www.w3.org/2000/svg" xmlns:xlink="http://www.w3.org/1999/xlink">
 <metadata>
  <rdf:RDF xmlns:cc="http://creativecommons.org/ns#" xmlns:dc="http://purl.org/dc/elements/1.1/" xmlns:rdf="http://www.w3.org/1999/02/22-rdf-syntax-ns#">
   <cc:Work>
    <dc:type rdf:resource="http://purl.org/dc/dcmitype/StillImage"/>
    <dc:date>2022-05-16T10:01:27.170064</dc:date>
    <dc:format>image/svg+xml</dc:format>
    <dc:creator>
     <cc:Agent>
      <dc:title>Matplotlib v3.4.3, https://matplotlib.org/</dc:title>
     </cc:Agent>
    </dc:creator>
   </cc:Work>
  </rdf:RDF>
 </metadata>
 <defs>
  <style type="text/css">*{stroke-linecap:butt;stroke-linejoin:round;}</style>
 </defs>
 <g id="figure_1">
  <g id="patch_1">
   <path d="M 0 345.6 
L 460.8 345.6 
L 460.8 0 
L 0 0 
z
" style="fill:#ffffff;"/>
  </g>
  <g id="axes_1">
   <g id="patch_2">
    <path d="M 57.6 276.48 
L 414.72 276.48 
L 414.72 41.472 
L 57.6 41.472 
z
" style="fill:#ffffff;"/>
   </g>
   <g id="matplotlib.axis_1">
    <g id="xtick_1">
     <g id="line2d_1">
      <defs>
       <path d="M 0 0 
L 0 3.5 
" id="m0aab3138b3" style="stroke:#000000;stroke-width:0.8;"/>
      </defs>
      <g>
       <use style="stroke:#000000;stroke-width:0.8;" x="97.812893" xlink:href="#m0aab3138b3" y="276.48"/>
      </g>
     </g>
     <g id="text_1">
      <!-- 2021-12 -->
      <g transform="translate(60.588072 310.951846)rotate(-30)scale(0.1 -0.1)">
       <defs>
        <path d="M 1228 531 
L 3431 531 
L 3431 0 
L 469 0 
L 469 531 
Q 828 903 1448 1529 
Q 2069 2156 2228 2338 
Q 2531 2678 2651 2914 
Q 2772 3150 2772 3378 
Q 2772 3750 2511 3984 
Q 2250 4219 1831 4219 
Q 1534 4219 1204 4116 
Q 875 4013 500 3803 
L 500 4441 
Q 881 4594 1212 4672 
Q 1544 4750 1819 4750 
Q 2544 4750 2975 4387 
Q 3406 4025 3406 3419 
Q 3406 3131 3298 2873 
Q 3191 2616 2906 2266 
Q 2828 2175 2409 1742 
Q 1991 1309 1228 531 
z
" id="DejaVuSans-32" transform="scale(0.015625)"/>
        <path d="M 2034 4250 
Q 1547 4250 1301 3770 
Q 1056 3291 1056 2328 
Q 1056 1369 1301 889 
Q 1547 409 2034 409 
Q 2525 409 2770 889 
Q 3016 1369 3016 2328 
Q 3016 3291 2770 3770 
Q 2525 4250 2034 4250 
z
M 2034 4750 
Q 2819 4750 3233 4129 
Q 3647 3509 3647 2328 
Q 3647 1150 3233 529 
Q 2819 -91 2034 -91 
Q 1250 -91 836 529 
Q 422 1150 422 2328 
Q 422 3509 836 4129 
Q 1250 4750 2034 4750 
z
" id="DejaVuSans-30" transform="scale(0.015625)"/>
        <path d="M 794 531 
L 1825 531 
L 1825 4091 
L 703 3866 
L 703 4441 
L 1819 4666 
L 2450 4666 
L 2450 531 
L 3481 531 
L 3481 0 
L 794 0 
L 794 531 
z
" id="DejaVuSans-31" transform="scale(0.015625)"/>
        <path d="M 313 2009 
L 1997 2009 
L 1997 1497 
L 313 1497 
L 313 2009 
z
" id="DejaVuSans-2d" transform="scale(0.015625)"/>
       </defs>
       <use xlink:href="#DejaVuSans-32"/>
       <use x="63.623047" xlink:href="#DejaVuSans-30"/>
       <use x="127.246094" xlink:href="#DejaVuSans-32"/>
       <use x="190.869141" xlink:href="#DejaVuSans-31"/>
       <use x="254.492188" xlink:href="#DejaVuSans-2d"/>
       <use x="290.576172" xlink:href="#DejaVuSans-31"/>
       <use x="354.199219" xlink:href="#DejaVuSans-32"/>
      </g>
     </g>
    </g>
    <g id="xtick_2">
     <g id="line2d_2">
      <g>
       <use style="stroke:#000000;stroke-width:0.8;" x="154.996364" xlink:href="#m0aab3138b3" y="276.48"/>
      </g>
     </g>
     <g id="text_2">
      <!-- 2022-01 -->
      <g transform="translate(117.771543 310.951846)rotate(-30)scale(0.1 -0.1)">
       <use xlink:href="#DejaVuSans-32"/>
       <use x="63.623047" xlink:href="#DejaVuSans-30"/>
       <use x="127.246094" xlink:href="#DejaVuSans-32"/>
       <use x="190.869141" xlink:href="#DejaVuSans-32"/>
       <use x="254.492188" xlink:href="#DejaVuSans-2d"/>
       <use x="290.576172" xlink:href="#DejaVuSans-30"/>
       <use x="354.199219" xlink:href="#DejaVuSans-31"/>
      </g>
     </g>
    </g>
    <g id="xtick_3">
     <g id="line2d_3">
      <g>
       <use style="stroke:#000000;stroke-width:0.8;" x="212.179835" xlink:href="#m0aab3138b3" y="276.48"/>
      </g>
     </g>
     <g id="text_3">
      <!-- 2022-02 -->
      <g transform="translate(174.955014 310.951846)rotate(-30)scale(0.1 -0.1)">
       <use xlink:href="#DejaVuSans-32"/>
       <use x="63.623047" xlink:href="#DejaVuSans-30"/>
       <use x="127.246094" xlink:href="#DejaVuSans-32"/>
       <use x="190.869141" xlink:href="#DejaVuSans-32"/>
       <use x="254.492188" xlink:href="#DejaVuSans-2d"/>
       <use x="290.576172" xlink:href="#DejaVuSans-30"/>
       <use x="354.199219" xlink:href="#DejaVuSans-32"/>
      </g>
     </g>
    </g>
    <g id="xtick_4">
     <g id="line2d_4">
      <g>
       <use style="stroke:#000000;stroke-width:0.8;" x="263.829421" xlink:href="#m0aab3138b3" y="276.48"/>
      </g>
     </g>
     <g id="text_4">
      <!-- 2022-03 -->
      <g transform="translate(226.604601 310.951846)rotate(-30)scale(0.1 -0.1)">
       <defs>
        <path d="M 2597 2516 
Q 3050 2419 3304 2112 
Q 3559 1806 3559 1356 
Q 3559 666 3084 287 
Q 2609 -91 1734 -91 
Q 1441 -91 1130 -33 
Q 819 25 488 141 
L 488 750 
Q 750 597 1062 519 
Q 1375 441 1716 441 
Q 2309 441 2620 675 
Q 2931 909 2931 1356 
Q 2931 1769 2642 2001 
Q 2353 2234 1838 2234 
L 1294 2234 
L 1294 2753 
L 1863 2753 
Q 2328 2753 2575 2939 
Q 2822 3125 2822 3475 
Q 2822 3834 2567 4026 
Q 2313 4219 1838 4219 
Q 1578 4219 1281 4162 
Q 984 4106 628 3988 
L 628 4550 
Q 988 4650 1302 4700 
Q 1616 4750 1894 4750 
Q 2613 4750 3031 4423 
Q 3450 4097 3450 3541 
Q 3450 3153 3228 2886 
Q 3006 2619 2597 2516 
z
" id="DejaVuSans-33" transform="scale(0.015625)"/>
       </defs>
       <use xlink:href="#DejaVuSans-32"/>
       <use x="63.623047" xlink:href="#DejaVuSans-30"/>
       <use x="127.246094" xlink:href="#DejaVuSans-32"/>
       <use x="190.869141" xlink:href="#DejaVuSans-32"/>
       <use x="254.492188" xlink:href="#DejaVuSans-2d"/>
       <use x="290.576172" xlink:href="#DejaVuSans-30"/>
       <use x="354.199219" xlink:href="#DejaVuSans-33"/>
      </g>
     </g>
    </g>
    <g id="xtick_5">
     <g id="line2d_5">
      <g>
       <use style="stroke:#000000;stroke-width:0.8;" x="321.012893" xlink:href="#m0aab3138b3" y="276.48"/>
      </g>
     </g>
     <g id="text_5">
      <!-- 2022-04 -->
      <g transform="translate(283.788072 310.951846)rotate(-30)scale(0.1 -0.1)">
       <defs>
        <path d="M 2419 4116 
L 825 1625 
L 2419 1625 
L 2419 4116 
z
M 2253 4666 
L 3047 4666 
L 3047 1625 
L 3713 1625 
L 3713 1100 
L 3047 1100 
L 3047 0 
L 2419 0 
L 2419 1100 
L 313 1100 
L 313 1709 
L 2253 4666 
z
" id="DejaVuSans-34" transform="scale(0.015625)"/>
       </defs>
       <use xlink:href="#DejaVuSans-32"/>
       <use x="63.623047" xlink:href="#DejaVuSans-30"/>
       <use x="127.246094" xlink:href="#DejaVuSans-32"/>
       <use x="190.869141" xlink:href="#DejaVuSans-32"/>
       <use x="254.492188" xlink:href="#DejaVuSans-2d"/>
       <use x="290.576172" xlink:href="#DejaVuSans-30"/>
       <use x="354.199219" xlink:href="#DejaVuSans-34"/>
      </g>
     </g>
    </g>
    <g id="xtick_6">
     <g id="line2d_6">
      <g>
       <use style="stroke:#000000;stroke-width:0.8;" x="376.351736" xlink:href="#m0aab3138b3" y="276.48"/>
      </g>
     </g>
     <g id="text_6">
      <!-- 2022-05 -->
      <g transform="translate(339.126915 310.951846)rotate(-30)scale(0.1 -0.1)">
       <defs>
        <path d="M 691 4666 
L 3169 4666 
L 3169 4134 
L 1269 4134 
L 1269 2991 
Q 1406 3038 1543 3061 
Q 1681 3084 1819 3084 
Q 2600 3084 3056 2656 
Q 3513 2228 3513 1497 
Q 3513 744 3044 326 
Q 2575 -91 1722 -91 
Q 1428 -91 1123 -41 
Q 819 9 494 109 
L 494 744 
Q 775 591 1075 516 
Q 1375 441 1709 441 
Q 2250 441 2565 725 
Q 2881 1009 2881 1497 
Q 2881 1984 2565 2268 
Q 2250 2553 1709 2553 
Q 1456 2553 1204 2497 
Q 953 2441 691 2322 
L 691 4666 
z
" id="DejaVuSans-35" transform="scale(0.015625)"/>
       </defs>
       <use xlink:href="#DejaVuSans-32"/>
       <use x="63.623047" xlink:href="#DejaVuSans-30"/>
       <use x="127.246094" xlink:href="#DejaVuSans-32"/>
       <use x="190.869141" xlink:href="#DejaVuSans-32"/>
       <use x="254.492188" xlink:href="#DejaVuSans-2d"/>
       <use x="290.576172" xlink:href="#DejaVuSans-30"/>
       <use x="354.199219" xlink:href="#DejaVuSans-35"/>
      </g>
     </g>
    </g>
    <g id="text_7">
     <!-- date -->
     <g transform="translate(224.885 324.351346)scale(0.1 -0.1)">
      <defs>
       <path d="M 2906 2969 
L 2906 4863 
L 3481 4863 
L 3481 0 
L 2906 0 
L 2906 525 
Q 2725 213 2448 61 
Q 2172 -91 1784 -91 
Q 1150 -91 751 415 
Q 353 922 353 1747 
Q 353 2572 751 3078 
Q 1150 3584 1784 3584 
Q 2172 3584 2448 3432 
Q 2725 3281 2906 2969 
z
M 947 1747 
Q 947 1113 1208 752 
Q 1469 391 1925 391 
Q 2381 391 2643 752 
Q 2906 1113 2906 1747 
Q 2906 2381 2643 2742 
Q 2381 3103 1925 3103 
Q 1469 3103 1208 2742 
Q 947 2381 947 1747 
z
" id="DejaVuSans-64" transform="scale(0.015625)"/>
       <path d="M 2194 1759 
Q 1497 1759 1228 1600 
Q 959 1441 959 1056 
Q 959 750 1161 570 
Q 1363 391 1709 391 
Q 2188 391 2477 730 
Q 2766 1069 2766 1631 
L 2766 1759 
L 2194 1759 
z
M 3341 1997 
L 3341 0 
L 2766 0 
L 2766 531 
Q 2569 213 2275 61 
Q 1981 -91 1556 -91 
Q 1019 -91 701 211 
Q 384 513 384 1019 
Q 384 1609 779 1909 
Q 1175 2209 1959 2209 
L 2766 2209 
L 2766 2266 
Q 2766 2663 2505 2880 
Q 2244 3097 1772 3097 
Q 1472 3097 1187 3025 
Q 903 2953 641 2809 
L 641 3341 
Q 956 3463 1253 3523 
Q 1550 3584 1831 3584 
Q 2591 3584 2966 3190 
Q 3341 2797 3341 1997 
z
" id="DejaVuSans-61" transform="scale(0.015625)"/>
       <path d="M 1172 4494 
L 1172 3500 
L 2356 3500 
L 2356 3053 
L 1172 3053 
L 1172 1153 
Q 1172 725 1289 603 
Q 1406 481 1766 481 
L 2356 481 
L 2356 0 
L 1766 0 
Q 1100 0 847 248 
Q 594 497 594 1153 
L 594 3053 
L 172 3053 
L 172 3500 
L 594 3500 
L 594 4494 
L 1172 4494 
z
" id="DejaVuSans-74" transform="scale(0.015625)"/>
       <path d="M 3597 1894 
L 3597 1613 
L 953 1613 
Q 991 1019 1311 708 
Q 1631 397 2203 397 
Q 2534 397 2845 478 
Q 3156 559 3463 722 
L 3463 178 
Q 3153 47 2828 -22 
Q 2503 -91 2169 -91 
Q 1331 -91 842 396 
Q 353 884 353 1716 
Q 353 2575 817 3079 
Q 1281 3584 2069 3584 
Q 2775 3584 3186 3129 
Q 3597 2675 3597 1894 
z
M 3022 2063 
Q 3016 2534 2758 2815 
Q 2500 3097 2075 3097 
Q 1594 3097 1305 2825 
Q 1016 2553 972 2059 
L 3022 2063 
z
" id="DejaVuSans-65" transform="scale(0.015625)"/>
      </defs>
      <use xlink:href="#DejaVuSans-64"/>
      <use x="63.476562" xlink:href="#DejaVuSans-61"/>
      <use x="124.755859" xlink:href="#DejaVuSans-74"/>
      <use x="163.964844" xlink:href="#DejaVuSans-65"/>
     </g>
    </g>
   </g>
   <g id="matplotlib.axis_2">
    <g id="ytick_1">
     <g id="line2d_7">
      <defs>
       <path d="M 0 0 
L -3.5 0 
" id="m4cd104d46d" style="stroke:#000000;stroke-width:0.8;"/>
      </defs>
      <g>
       <use style="stroke:#000000;stroke-width:0.8;" x="57.6" xlink:href="#m4cd104d46d" y="252.680555"/>
      </g>
     </g>
     <g id="text_8">
      <!-- 80000 -->
      <g transform="translate(18.7875 256.479774)scale(0.1 -0.1)">
       <defs>
        <path d="M 2034 2216 
Q 1584 2216 1326 1975 
Q 1069 1734 1069 1313 
Q 1069 891 1326 650 
Q 1584 409 2034 409 
Q 2484 409 2743 651 
Q 3003 894 3003 1313 
Q 3003 1734 2745 1975 
Q 2488 2216 2034 2216 
z
M 1403 2484 
Q 997 2584 770 2862 
Q 544 3141 544 3541 
Q 544 4100 942 4425 
Q 1341 4750 2034 4750 
Q 2731 4750 3128 4425 
Q 3525 4100 3525 3541 
Q 3525 3141 3298 2862 
Q 3072 2584 2669 2484 
Q 3125 2378 3379 2068 
Q 3634 1759 3634 1313 
Q 3634 634 3220 271 
Q 2806 -91 2034 -91 
Q 1263 -91 848 271 
Q 434 634 434 1313 
Q 434 1759 690 2068 
Q 947 2378 1403 2484 
z
M 1172 3481 
Q 1172 3119 1398 2916 
Q 1625 2713 2034 2713 
Q 2441 2713 2670 2916 
Q 2900 3119 2900 3481 
Q 2900 3844 2670 4047 
Q 2441 4250 2034 4250 
Q 1625 4250 1398 4047 
Q 1172 3844 1172 3481 
z
" id="DejaVuSans-38" transform="scale(0.015625)"/>
       </defs>
       <use xlink:href="#DejaVuSans-38"/>
       <use x="63.623047" xlink:href="#DejaVuSans-30"/>
       <use x="127.246094" xlink:href="#DejaVuSans-30"/>
       <use x="190.869141" xlink:href="#DejaVuSans-30"/>
       <use x="254.492188" xlink:href="#DejaVuSans-30"/>
      </g>
     </g>
    </g>
    <g id="ytick_2">
     <g id="line2d_8">
      <g>
       <use style="stroke:#000000;stroke-width:0.8;" x="57.6" xlink:href="#m4cd104d46d" y="201.975887"/>
      </g>
     </g>
     <g id="text_9">
      <!-- 85000 -->
      <g transform="translate(18.7875 205.775106)scale(0.1 -0.1)">
       <use xlink:href="#DejaVuSans-38"/>
       <use x="63.623047" xlink:href="#DejaVuSans-35"/>
       <use x="127.246094" xlink:href="#DejaVuSans-30"/>
       <use x="190.869141" xlink:href="#DejaVuSans-30"/>
       <use x="254.492188" xlink:href="#DejaVuSans-30"/>
      </g>
     </g>
    </g>
    <g id="ytick_3">
     <g id="line2d_9">
      <g>
       <use style="stroke:#000000;stroke-width:0.8;" x="57.6" xlink:href="#m4cd104d46d" y="151.27122"/>
      </g>
     </g>
     <g id="text_10">
      <!-- 90000 -->
      <g transform="translate(18.7875 155.070439)scale(0.1 -0.1)">
       <defs>
        <path d="M 703 97 
L 703 672 
Q 941 559 1184 500 
Q 1428 441 1663 441 
Q 2288 441 2617 861 
Q 2947 1281 2994 2138 
Q 2813 1869 2534 1725 
Q 2256 1581 1919 1581 
Q 1219 1581 811 2004 
Q 403 2428 403 3163 
Q 403 3881 828 4315 
Q 1253 4750 1959 4750 
Q 2769 4750 3195 4129 
Q 3622 3509 3622 2328 
Q 3622 1225 3098 567 
Q 2575 -91 1691 -91 
Q 1453 -91 1209 -44 
Q 966 3 703 97 
z
M 1959 2075 
Q 2384 2075 2632 2365 
Q 2881 2656 2881 3163 
Q 2881 3666 2632 3958 
Q 2384 4250 1959 4250 
Q 1534 4250 1286 3958 
Q 1038 3666 1038 3163 
Q 1038 2656 1286 2365 
Q 1534 2075 1959 2075 
z
" id="DejaVuSans-39" transform="scale(0.015625)"/>
       </defs>
       <use xlink:href="#DejaVuSans-39"/>
       <use x="63.623047" xlink:href="#DejaVuSans-30"/>
       <use x="127.246094" xlink:href="#DejaVuSans-30"/>
       <use x="190.869141" xlink:href="#DejaVuSans-30"/>
       <use x="254.492188" xlink:href="#DejaVuSans-30"/>
      </g>
     </g>
    </g>
    <g id="ytick_4">
     <g id="line2d_10">
      <g>
       <use style="stroke:#000000;stroke-width:0.8;" x="57.6" xlink:href="#m4cd104d46d" y="100.566552"/>
      </g>
     </g>
     <g id="text_11">
      <!-- 95000 -->
      <g transform="translate(18.7875 104.365771)scale(0.1 -0.1)">
       <use xlink:href="#DejaVuSans-39"/>
       <use x="63.623047" xlink:href="#DejaVuSans-35"/>
       <use x="127.246094" xlink:href="#DejaVuSans-30"/>
       <use x="190.869141" xlink:href="#DejaVuSans-30"/>
       <use x="254.492188" xlink:href="#DejaVuSans-30"/>
      </g>
     </g>
    </g>
    <g id="ytick_5">
     <g id="line2d_11">
      <g>
       <use style="stroke:#000000;stroke-width:0.8;" x="57.6" xlink:href="#m4cd104d46d" y="49.861885"/>
      </g>
     </g>
     <g id="text_12">
      <!-- 100000 -->
      <g transform="translate(12.425 53.661104)scale(0.1 -0.1)">
       <use xlink:href="#DejaVuSans-31"/>
       <use x="63.623047" xlink:href="#DejaVuSans-30"/>
       <use x="127.246094" xlink:href="#DejaVuSans-30"/>
       <use x="190.869141" xlink:href="#DejaVuSans-30"/>
       <use x="254.492188" xlink:href="#DejaVuSans-30"/>
       <use x="318.115234" xlink:href="#DejaVuSans-30"/>
      </g>
     </g>
    </g>
   </g>
   <g id="line2d_12">
    <path clip-path="url(#p9e84091761)" d="M 73.832727 52.154182 
L 75.677355 57.071658 
L 81.21124 64.552164 
L 83.055868 64.612574 
L 84.900496 64.917127 
L 88.589752 64.927057 
L 94.123636 84.428233 
L 95.968264 97.053673 
L 97.812893 107.509228 
L 99.657521 92.31267 
L 101.502149 104.280693 
L 107.036033 93.291815 
L 108.880661 73.859649 
L 110.725289 69.566875 
L 112.569917 78.664599 
L 114.414545 76.307694 
L 119.94843 87.023985 
L 121.793058 92.787512 
L 123.637686 82.914361 
L 125.482314 88.75886 
L 127.326942 94.502805 
L 132.860826 112.160257 
L 134.705455 95.121168 
L 136.550083 86.464844 
L 138.394711 80.503006 
L 145.773223 72.198709 
L 147.617851 74.877873 
L 149.462479 75.97989 
L 151.307107 73.801399 
L 153.151736 76.18596 
L 158.68562 70.065587 
L 160.530248 72.08328 
L 162.374876 89.78417 
L 164.219504 90.070804 
L 166.064132 90.569017 
L 171.598017 93.470954 
L 173.442645 81.258628 
L 175.287273 75.178158 
L 177.131901 86.812834 
L 178.976529 87.343557 
L 186.355041 105.007723 
L 188.199669 109.407092 
L 190.044298 115.983006 
L 191.888926 133.090236 
L 197.42281 134.116443 
L 199.267438 143.439104 
L 201.112066 149.653904 
L 202.956694 156.757523 
L 204.801322 144.812956 
L 210.335207 122.760397 
L 212.179835 114.088306 
L 214.024463 111.16609 
L 215.869091 128.785822 
L 217.713719 124.348634 
L 223.247603 124.561191 
L 225.092231 116.462847 
L 226.93686 99.914988 
L 228.781488 111.94838 
L 230.626116 128.293957 
L 236.16 133.146832 
L 238.004628 114.685513 
L 239.849256 111.609659 
L 241.693884 130.269382 
L 243.538512 137.303843 
L 250.917025 148.604011 
L 252.761653 162.549572 
L 254.606281 159.462088 
L 256.450909 139.792494 
L 261.984793 144.845267 
L 263.829421 159.984857 
L 265.67405 147.803321 
L 267.518678 159.599035 
L 269.363306 175.603552 
L 274.89719 204.143119 
L 276.741818 203.528363 
L 278.586446 176.388852 
L 280.431074 184.19145 
L 282.275702 197.222266 
L 287.809587 205.499407 
L 289.654215 194.176199 
L 291.498843 159.922371 
L 293.343471 152.573492 
L 295.188099 140.563091 
L 300.721983 147.148678 
L 302.566612 135.661159 
L 304.41124 147.43224 
L 306.255868 137.986852 
L 308.100496 138.141962 
L 313.63438 136.071952 
L 315.479008 118.583181 
L 317.323636 125.34977 
L 319.168264 138.62404 
L 321.012893 130.655029 
L 326.546777 122.823572 
L 328.391405 137.251432 
L 330.236033 149.409109 
L 332.080661 148.995826 
L 333.925289 150.739354 
L 339.459174 162.039311 
L 341.303802 165.754929 
L 343.14843 153.401744 
L 344.993058 161.971083 
L 352.37157 166.385936 
L 354.216198 156.937582 
L 356.060826 156.698245 
L 357.905455 171.961322 
L 359.750083 190.127067 
L 365.283967 190.061578 
L 367.128595 214.559729 
L 368.973223 210.701408 
L 370.817851 194.76071 
L 372.662479 213.084984 
L 378.196364 210.486715 
L 380.040992 205.174481 
L 381.88562 186.21944 
L 383.730248 218.131983 
L 385.574876 228.362114 
L 391.10876 256.950795 
L 392.953388 254.677246 
L 394.798017 265.797818 
L 396.642645 264.82284 
L 398.487273 249.443912 
" style="fill:none;stroke:#0000ff;stroke-linecap:square;stroke-opacity:0.9;stroke-width:2;"/>
   </g>
   <g id="line2d_13">
    <path clip-path="url(#p9e84091761)" d="M 73.832727 52.154182 
L 75.677355 56.547628 
L 81.21124 63.982723 
L 83.055868 65.514152 
L 84.900496 64.693459 
L 88.589752 90.203032 
L 94.123636 84.519001 
L 95.968264 97.011163 
L 97.812893 108.365205 
L 99.657521 93.022919 
L 101.502149 103.72745 
L 107.036033 94.113941 
L 108.880661 73.948985 
L 110.725289 68.922453 
L 112.569917 79.033299 
L 114.414545 76.085412 
L 119.94843 87.748416 
L 121.793058 93.689799 
L 123.637686 83.008322 
L 125.482314 89.188888 
L 127.326942 94.592884 
L 132.860826 112.181696 
L 134.705455 95.022272 
L 136.550083 86.935228 
L 138.394711 79.820984 
L 145.773223 72.500316 
L 147.617851 74.976752 
L 149.462479 75.247252 
L 151.307107 74.05646 
L 153.151736 76.942779 
L 158.68562 70.048 
L 160.530248 71.399693 
L 162.374876 89.555036 
L 164.219504 90.105507 
L 166.064132 90.138695 
L 171.598017 93.746692 
L 173.442645 80.576525 
L 175.287273 74.985289 
L 177.131901 86.298455 
L 178.976529 87.226392 
L 186.355041 104.699842 
L 188.199669 108.801378 
L 190.044298 115.899046 
L 191.888926 131.75557 
L 197.42281 133.828175 
L 199.267438 142.772953 
L 201.112066 148.23255 
L 202.956694 155.758488 
L 204.801322 143.320705 
L 210.335207 122.089777 
L 212.179835 114.256985 
L 214.024463 110.600884 
L 215.869091 127.885606 
L 217.713719 123.484651 
L 223.247603 123.942392 
L 225.092231 116.128249 
L 226.93686 99.599242 
L 228.781488 112.005401 
L 230.626116 128.121787 
L 236.16 132.617305 
L 238.004628 114.077004 
L 239.849256 111.200177 
L 241.693884 129.566144 
L 243.538512 136.45194 
L 250.917025 148.81626 
L 252.761653 161.955569 
L 254.606281 159.803968 
L 256.450909 139.912164 
L 261.984793 145.607744 
L 263.829421 160.938794 
L 265.67405 148.237342 
L 267.518678 159.811734 
L 269.363306 175.691426 
L 274.89719 204.238463 
L 276.741818 203.252782 
L 278.586446 176.470538 
L 280.431074 184.948331 
L 282.275702 197.819468 
L 287.809587 205.200195 
L 289.654215 194.467016 
L 291.498843 160.256135 
L 293.343471 152.891538 
L 295.188099 140.891363 
L 300.721983 147.078746 
L 302.566612 136.586513 
L 304.41124 148.427861 
L 306.255868 138.77456 
L 308.100496 139.274443 
L 313.63438 136.51254 
L 315.479008 119.366111 
L 317.323636 125.816887 
L 319.168264 139.982883 
L 321.012893 131.753375 
L 326.546777 123.175723 
L 328.391405 137.748904 
L 330.236033 148.947761 
L 332.080661 149.625652 
L 333.925289 150.707936 
L 339.459174 162.881295 
L 341.303802 166.455362 
L 343.14843 154.011015 
L 344.993058 163.284151 
L 352.37157 165.990507 
L 354.216198 157.152629 
L 356.060826 157.85827 
L 357.905455 172.743701 
L 359.750083 190.756565 
L 365.283967 191.456731 
L 367.128595 215.426016 
L 368.973223 211.318881 
L 370.817851 195.243094 
L 372.662479 212.754346 
L 378.196364 210.574838 
L 380.040992 205.639792 
L 381.88562 187.170313 
L 383.730248 219.080358 
L 385.574876 227.900187 
L 391.10876 257.376422 
L 392.953388 254.567566 
L 394.798017 265.251585 
L 396.642645 265.32795 
L 398.487273 241.750054 
" style="fill:none;stroke:#ff0000;stroke-linecap:square;stroke-opacity:0.9;stroke-width:2;"/>
   </g>
   <g id="line2d_14">
    <path clip-path="url(#p9e84091761)" d="M 73.832727 52.154182 
L 75.677355 56.86197 
L 81.21124 64.707592 
L 83.055868 65.341733 
L 84.900496 65.216324 
L 88.589752 90.63856 
L 94.123636 84.275435 
L 95.968264 97.585032 
L 97.812893 107.498015 
L 99.657521 93.199439 
L 101.502149 103.683076 
L 107.036033 93.77655 
L 108.880661 74.125944 
L 110.725289 69.441208 
L 112.569917 79.06394 
L 114.414545 76.305207 
L 119.94843 87.27871 
L 121.793058 92.78752 
L 123.637686 83.422241 
L 125.482314 89.658649 
L 127.326942 94.499201 
L 132.860826 111.756798 
L 134.705455 95.348111 
L 136.550083 86.29268 
L 138.394711 79.991573 
L 145.773223 72.170735 
L 147.617851 74.963796 
L 149.462479 75.141841 
L 151.307107 74.01602 
L 153.151736 76.118194 
L 158.68562 69.914431 
L 160.530248 71.957741 
L 162.374876 90.036668 
L 164.219504 89.856812 
L 166.064132 90.943099 
L 171.598017 93.513552 
L 173.442645 81.394392 
L 175.287273 75.163706 
L 177.131901 86.666345 
L 178.976529 87.087873 
L 186.355041 105.527631 
L 188.199669 109.233244 
L 190.044298 116.227747 
L 191.888926 132.486704 
L 197.42281 134.056923 
L 199.267438 142.554569 
L 201.112066 149.518209 
L 202.956694 157.094051 
L 204.801322 144.8468 
L 210.335207 122.77529 
L 212.179835 114.282824 
L 214.024463 111.716734 
L 215.869091 129.21371 
L 217.713719 124.611357 
L 223.247603 124.177173 
L 225.092231 115.907766 
L 226.93686 100.107582 
L 228.781488 112.274337 
L 230.626116 128.341631 
L 236.16 133.229713 
L 238.004628 114.765847 
L 239.849256 111.567365 
L 241.693884 130.583802 
L 243.538512 137.383607 
L 250.917025 149.503504 
L 252.761653 162.677657 
L 254.606281 159.492742 
L 256.450909 139.782756 
L 261.984793 145.130479 
L 263.829421 160.034027 
L 265.67405 148.327171 
L 267.518678 159.68325 
L 269.363306 176.140686 
L 274.89719 204.315327 
L 276.741818 202.760581 
L 278.586446 176.485882 
L 280.431074 184.345414 
L 282.275702 197.101097 
L 287.809587 205.091871 
L 289.654215 194.419589 
L 291.498843 159.778835 
L 293.343471 152.841736 
L 295.188099 140.862437 
L 300.721983 147.090484 
L 302.566612 135.454282 
L 304.41124 147.382539 
L 306.255868 138.741272 
L 308.100496 138.827776 
L 313.63438 135.569761 
L 315.479008 119.015293 
L 317.323636 125.56604 
L 319.168264 139.301599 
L 321.012893 131.057687 
L 326.546777 122.569848 
L 328.391405 137.251546 
L 330.236033 149.115397 
L 332.080661 149.856407 
L 333.925289 150.601189 
L 339.459174 161.735895 
L 341.303802 165.440353 
L 343.14843 153.134846 
L 344.993058 162.484683 
L 352.37157 165.971554 
L 354.216198 157.262948 
L 356.060826 156.726329 
L 357.905455 171.906491 
L 359.750083 190.179292 
L 365.283967 191.025573 
L 367.128595 214.182301 
L 368.973223 210.452154 
L 370.817851 194.720455 
L 372.662479 212.878284 
L 378.196364 210.284516 
L 380.040992 205.418229 
L 381.88562 186.276132 
L 383.730248 218.293382 
L 385.574876 228.573262 
L 391.10876 257.138099 
L 392.953388 254.612172 
L 394.798017 265.650071 
L 396.642645 264.526201 
L 398.487273 241.768604 
" style="fill:none;stroke:#008000;stroke-linecap:square;stroke-opacity:0.9;stroke-width:2;"/>
   </g>
   <g id="line2d_15">
    <path clip-path="url(#p9e84091761)" d="M 73.832727 52.154182 
L 75.677355 57.107664 
L 81.21124 64.531834 
L 83.055868 65.102996 
L 84.900496 64.34561 
L 88.589752 90.510237 
L 94.123636 84.414968 
L 95.968264 97.292697 
L 97.812893 107.858399 
L 99.657521 92.354016 
L 101.502149 104.300253 
L 107.036033 93.928522 
L 108.880661 74.214419 
L 110.725289 69.292289 
L 112.569917 79.386941 
L 114.414545 76.313062 
L 119.94843 87.803869 
L 121.793058 93.050697 
L 123.637686 83.463432 
L 125.482314 89.771557 
L 127.326942 94.855148 
L 132.860826 111.723807 
L 134.705455 95.093403 
L 136.550083 86.41498 
L 138.394711 80.631975 
L 145.773223 72.889687 
L 147.617851 75.063594 
L 149.462479 75.671096 
L 151.307107 74.052763 
L 153.151736 76.734394 
L 158.68562 70.734262 
L 160.530248 71.552055 
L 162.374876 90.262736 
L 164.219504 89.735352 
L 166.064132 90.683143 
L 171.598017 93.126712 
L 173.442645 80.525659 
L 175.287273 75.120076 
L 177.131901 87.22109 
L 178.976529 87.88065 
L 186.355041 105.196969 
L 188.199669 110.172976 
L 190.044298 115.81167 
L 191.888926 133.208863 
L 197.42281 133.803322 
L 199.267438 142.548292 
L 201.112066 149.20569 
L 202.956694 157.018434 
L 204.801322 144.56557 
L 210.335207 122.008234 
L 212.179835 114.512859 
L 214.024463 111.116282 
L 215.869091 129.110882 
L 217.713719 124.21767 
L 223.247603 123.53918 
L 225.092231 115.762347 
L 226.93686 99.979106 
L 228.781488 111.764592 
L 230.626116 128.63813 
L 236.16 133.440738 
L 238.004628 114.261822 
L 239.849256 111.473718 
L 241.693884 129.615222 
L 243.538512 137.488566 
L 250.917025 149.317559 
L 252.761653 162.499024 
L 254.606281 159.337291 
L 256.450909 139.615807 
L 261.984793 145.11559 
L 263.829421 160.033337 
L 265.67405 147.602424 
L 267.518678 159.994812 
L 269.363306 175.574595 
L 274.89719 204.189006 
L 276.741818 202.87896 
L 278.586446 176.890481 
L 280.431074 183.767787 
L 282.275702 197.407958 
L 287.809587 205.137934 
L 289.654215 194.808485 
L 291.498843 159.618434 
L 293.343471 152.058479 
L 295.188099 140.386103 
L 300.721983 147.008757 
L 302.566612 135.548822 
L 304.41124 147.077006 
L 306.255868 138.153603 
L 308.100496 137.906616 
L 313.63438 135.244274 
L 315.479008 118.065264 
L 317.323636 124.720604 
L 319.168264 138.694351 
L 321.012893 131.011185 
L 326.546777 122.410805 
L 328.391405 137.214908 
L 330.236033 148.405062 
L 332.080661 149.571732 
L 333.925289 150.761039 
L 339.459174 162.126802 
L 341.303802 165.046245 
L 343.14843 153.176599 
L 344.993058 162.233787 
L 352.37157 165.467317 
L 354.216198 157.28105 
L 356.060826 157.512899 
L 357.905455 172.18965 
L 359.750083 190.012201 
L 365.283967 190.852633 
L 367.128595 214.331712 
L 368.973223 210.454164 
L 370.817851 194.280978 
L 372.662479 212.123447 
L 378.196364 210.142847 
L 380.040992 204.781531 
L 381.88562 186.54161 
L 383.730248 218.61088 
L 385.574876 227.399491 
L 391.10876 257.252007 
L 392.953388 254.578933 
L 394.798017 265.191308 
L 396.642645 264.543627 
L 398.487273 242.02173 
" style="fill:none;stroke:#ec5283;stroke-linecap:square;stroke-width:2;"/>
   </g>
   <g id="line2d_16">
    <path clip-path="url(#p9e84091761)" d="M 73.832727 52.154182 
L 75.677355 57.065419 
L 81.21124 64.629379 
L 83.055868 65.410085 
L 84.900496 64.926755 
L 88.589752 89.726741 
L 94.123636 84.671311 
L 95.968264 97.609163 
L 97.812893 107.433523 
L 99.657521 93.029695 
L 101.502149 103.892413 
L 107.036033 93.252356 
L 108.880661 73.850258 
L 110.725289 68.979963 
L 112.569917 79.398733 
L 114.414545 76.144679 
L 119.94843 87.332767 
L 121.793058 92.894963 
L 123.637686 82.907547 
L 125.482314 88.694423 
L 127.326942 95.210892 
L 132.860826 112.189122 
L 134.705455 94.383695 
L 136.550083 86.308643 
L 138.394711 79.663406 
L 145.773223 72.268935 
L 147.617851 75.35965 
L 149.462479 75.166253 
L 151.307107 74.637365 
L 153.151736 76.104644 
L 158.68562 70.61598 
L 160.530248 71.49632 
L 162.374876 89.558537 
L 164.219504 89.90131 
L 166.064132 90.882149 
L 171.598017 93.447303 
L 173.442645 80.381385 
L 175.287273 74.669726 
L 177.131901 87.275801 
L 178.976529 87.105794 
L 186.355041 105.621906 
L 188.199669 109.838584 
L 190.044298 116.155266 
L 191.888926 132.527675 
L 197.42281 134.366982 
L 199.267438 142.51076 
L 201.112066 149.485493 
L 202.956694 156.767313 
L 204.801322 144.356356 
L 210.335207 122.207191 
L 212.179835 114.579652 
L 214.024463 110.737372 
L 215.869091 128.43549 
L 217.713719 123.581398 
L 223.247603 124.325333 
L 225.092231 116.232935 
L 226.93686 99.944106 
L 228.781488 111.664209 
L 230.626116 127.579976 
L 236.16 133.242623 
L 238.004628 114.083469 
L 239.849256 111.748256 
L 241.693884 129.59298 
L 243.538512 137.525561 
L 250.917025 148.402702 
L 252.761653 162.260136 
L 254.606281 159.471156 
L 256.450909 139.510779 
L 261.984793 144.83727 
L 263.829421 160.445731 
L 265.67405 147.565153 
L 267.518678 159.82855 
L 269.363306 175.330477 
L 274.89719 203.685639 
L 276.741818 202.858124 
L 278.586446 176.120551 
L 280.431074 184.008655 
L 282.275702 197.065982 
L 287.809587 205.404977 
L 289.654215 194.171241 
L 291.498843 159.849886 
L 293.343471 152.075584 
L 295.188099 140.543499 
L 300.721983 147.339426 
L 302.566612 135.829123 
L 304.41124 147.572227 
L 306.255868 138.554806 
L 308.100496 138.222787 
L 313.63438 135.766484 
L 315.479008 118.883776 
L 317.323636 124.689495 
L 319.168264 138.704956 
L 321.012893 130.892266 
L 326.546777 122.574447 
L 328.391405 137.064164 
L 330.236033 148.998904 
L 332.080661 149.006082 
L 333.925289 150.309942 
L 339.459174 161.682101 
L 341.303802 165.466068 
L 343.14843 153.579101 
L 344.993058 162.581508 
L 352.37157 165.839769 
L 354.216198 157.250677 
L 356.060826 156.906453 
L 357.905455 171.671844 
L 359.750083 190.221184 
L 365.283967 190.696389 
L 367.128595 213.968101 
L 368.973223 210.337665 
L 370.817851 194.367914 
L 372.662479 212.442083 
L 378.196364 209.838988 
L 380.040992 204.306954 
L 381.88562 186.809102 
L 383.730248 217.887194 
L 385.574876 227.770438 
L 391.10876 256.900257 
L 392.953388 254.760796 
L 394.798017 265.347901 
L 396.642645 264.177677 
L 398.487273 241.948662 
" style="fill:none;stroke:#00ff00;stroke-linecap:square;stroke-opacity:0.9;stroke-width:2;"/>
   </g>
   <g id="line2d_17">
    <path clip-path="url(#p9e84091761)" d="M 73.832727 52.154182 
L 75.677355 57.364516 
L 81.21124 65.813855 
L 83.055868 67.077157 
L 84.900496 68.27313 
L 88.589752 95.781985 
L 94.123636 92.19102 
L 95.968264 101.304401 
L 97.812893 110.99719 
L 99.657521 94.978833 
L 101.502149 106.495507 
L 107.036033 97.328053 
L 108.880661 77.290172 
L 110.725289 72.579011 
L 112.569917 82.828307 
L 114.414545 81.556486 
L 119.94843 93.574964 
L 121.793058 99.45139 
L 123.637686 91.485244 
L 125.482314 95.60894 
L 127.326942 100.231198 
L 132.860826 111.082786 
L 134.705455 92.509099 
L 136.550083 84.397757 
L 138.394711 78.625194 
L 145.773223 71.959425 
L 147.617851 75.021912 
L 149.462479 76.423747 
L 151.307107 72.010308 
L 153.151736 74.530497 
L 158.68562 68.358887 
L 160.530248 70.316602 
L 162.374876 88.008449 
L 164.219504 86.461243 
L 166.064132 86.803689 
L 171.598017 89.087984 
L 173.442645 75.491676 
L 175.287273 70.940444 
L 177.131901 83.758461 
L 178.976529 83.843938 
L 186.355041 104.160887 
L 188.199669 112.334867 
L 190.044298 123.735896 
L 191.888926 142.041603 
L 197.42281 136.696725 
L 199.267438 149.002379 
L 201.112066 154.287053 
L 202.956694 162.021549 
L 204.801322 142.519322 
L 210.335207 120.101814 
L 212.179835 112.238502 
L 214.024463 109.216597 
L 215.869091 129.502622 
L 217.713719 122.946954 
L 223.247603 123.390163 
L 225.092231 114.976349 
L 226.93686 97.660771 
L 228.781488 111.434417 
L 230.626116 128.608942 
L 236.16 132.787587 
L 238.004628 115.055785 
L 239.849256 114.033159 
L 241.693884 133.824139 
L 243.538512 141.339048 
L 250.917025 152.691954 
L 252.761653 168.486299 
L 254.606281 156.534444 
L 256.450909 135.550689 
L 261.984793 138.925326 
L 263.829421 154.172962 
L 265.67405 139.881544 
L 267.518678 152.1562 
L 269.363306 169.694094 
L 274.89719 198.710675 
L 276.741818 194.631518 
L 278.586446 166.743912 
L 280.431074 176.334124 
L 282.275702 188.889097 
L 287.809587 198.320432 
L 289.654215 190.724939 
L 291.498843 147.629992 
L 293.343471 142.793934 
L 295.188099 130.144925 
L 300.721983 137.439372 
L 302.566612 125.745371 
L 304.41124 136.024299 
L 306.255868 128.158431 
L 308.100496 130.724272 
L 313.63438 128.856846 
L 315.479008 111.243727 
L 317.323636 116.82702 
L 319.168264 130.508049 
L 321.012893 119.767781 
L 326.546777 110.796747 
L 328.391405 126.66547 
L 330.236033 138.439495 
L 332.080661 140.29019 
L 333.925289 141.407961 
L 339.459174 152.287487 
L 341.303802 155.383113 
L 343.14843 143.213373 
L 344.993058 150.99559 
L 352.37157 155.309013 
L 354.216198 149.49221 
L 356.060826 149.833328 
L 357.905455 164.858375 
L 359.750083 180.332024 
L 365.283967 182.1162 
L 367.128595 206.26353 
L 368.973223 200.762299 
L 370.817851 186.018218 
L 372.662479 198.400038 
L 378.196364 196.395117 
L 380.040992 191.456528 
L 381.88562 173.76535 
L 383.730248 206.2282 
L 385.574876 217.530502 
L 391.10876 247.530902 
L 392.953388 245.904964 
L 394.798017 257.424084 
L 396.642645 255.51833 
L 398.487273 231.191201 
" style="fill:none;stroke:#a5b9cf;stroke-linecap:square;stroke-width:2;"/>
   </g>
   <g id="patch_3">
    <path d="M 57.6 276.48 
L 57.6 41.472 
" style="fill:none;stroke:#000000;stroke-linecap:square;stroke-linejoin:miter;stroke-width:0.8;"/>
   </g>
   <g id="patch_4">
    <path d="M 414.72 276.48 
L 414.72 41.472 
" style="fill:none;stroke:#000000;stroke-linecap:square;stroke-linejoin:miter;stroke-width:0.8;"/>
   </g>
   <g id="patch_5">
    <path d="M 57.6 276.48 
L 414.72 276.48 
" style="fill:none;stroke:#000000;stroke-linecap:square;stroke-linejoin:miter;stroke-width:0.8;"/>
   </g>
   <g id="patch_6">
    <path d="M 57.6 41.472 
L 414.72 41.472 
" style="fill:none;stroke:#000000;stroke-linecap:square;stroke-linejoin:miter;stroke-width:0.8;"/>
   </g>
   <g id="text_13">
    <!-- VFUNDS -->
    <g transform="translate(211.295625 22.034625)scale(0.12 -0.12)">
     <defs>
      <path d="M 1831 0 
L 50 4666 
L 709 4666 
L 2188 738 
L 3669 4666 
L 4325 4666 
L 2547 0 
L 1831 0 
z
" id="DejaVuSans-56" transform="scale(0.015625)"/>
      <path d="M 628 4666 
L 3309 4666 
L 3309 4134 
L 1259 4134 
L 1259 2759 
L 3109 2759 
L 3109 2228 
L 1259 2228 
L 1259 0 
L 628 0 
L 628 4666 
z
" id="DejaVuSans-46" transform="scale(0.015625)"/>
      <path d="M 556 4666 
L 1191 4666 
L 1191 1831 
Q 1191 1081 1462 751 
Q 1734 422 2344 422 
Q 2950 422 3222 751 
Q 3494 1081 3494 1831 
L 3494 4666 
L 4128 4666 
L 4128 1753 
Q 4128 841 3676 375 
Q 3225 -91 2344 -91 
Q 1459 -91 1007 375 
Q 556 841 556 1753 
L 556 4666 
z
" id="DejaVuSans-55" transform="scale(0.015625)"/>
      <path d="M 628 4666 
L 1478 4666 
L 3547 763 
L 3547 4666 
L 4159 4666 
L 4159 0 
L 3309 0 
L 1241 3903 
L 1241 0 
L 628 0 
L 628 4666 
z
" id="DejaVuSans-4e" transform="scale(0.015625)"/>
      <path d="M 1259 4147 
L 1259 519 
L 2022 519 
Q 2988 519 3436 956 
Q 3884 1394 3884 2338 
Q 3884 3275 3436 3711 
Q 2988 4147 2022 4147 
L 1259 4147 
z
M 628 4666 
L 1925 4666 
Q 3281 4666 3915 4102 
Q 4550 3538 4550 2338 
Q 4550 1131 3912 565 
Q 3275 0 1925 0 
L 628 0 
L 628 4666 
z
" id="DejaVuSans-44" transform="scale(0.015625)"/>
      <path d="M 3425 4513 
L 3425 3897 
Q 3066 4069 2747 4153 
Q 2428 4238 2131 4238 
Q 1616 4238 1336 4038 
Q 1056 3838 1056 3469 
Q 1056 3159 1242 3001 
Q 1428 2844 1947 2747 
L 2328 2669 
Q 3034 2534 3370 2195 
Q 3706 1856 3706 1288 
Q 3706 609 3251 259 
Q 2797 -91 1919 -91 
Q 1588 -91 1214 -16 
Q 841 59 441 206 
L 441 856 
Q 825 641 1194 531 
Q 1563 422 1919 422 
Q 2459 422 2753 634 
Q 3047 847 3047 1241 
Q 3047 1584 2836 1778 
Q 2625 1972 2144 2069 
L 1759 2144 
Q 1053 2284 737 2584 
Q 422 2884 422 3419 
Q 422 4038 858 4394 
Q 1294 4750 2059 4750 
Q 2388 4750 2728 4690 
Q 3069 4631 3425 4513 
z
" id="DejaVuSans-53" transform="scale(0.015625)"/>
     </defs>
     <use xlink:href="#DejaVuSans-56"/>
     <use x="68.408203" xlink:href="#DejaVuSans-46"/>
     <use x="125.927734" xlink:href="#DejaVuSans-55"/>
     <use x="199.121094" xlink:href="#DejaVuSans-4e"/>
     <use x="273.925781" xlink:href="#DejaVuSans-44"/>
     <use x="350.927734" xlink:href="#DejaVuSans-53"/>
    </g>
    <!-- daily_report -->
    <g transform="translate(200.466563 35.472)scale(0.12 -0.12)">
     <defs>
      <path d="M 603 3500 
L 1178 3500 
L 1178 0 
L 603 0 
L 603 3500 
z
M 603 4863 
L 1178 4863 
L 1178 4134 
L 603 4134 
L 603 4863 
z
" id="DejaVuSans-69" transform="scale(0.015625)"/>
      <path d="M 603 4863 
L 1178 4863 
L 1178 0 
L 603 0 
L 603 4863 
z
" id="DejaVuSans-6c" transform="scale(0.015625)"/>
      <path d="M 2059 -325 
Q 1816 -950 1584 -1140 
Q 1353 -1331 966 -1331 
L 506 -1331 
L 506 -850 
L 844 -850 
Q 1081 -850 1212 -737 
Q 1344 -625 1503 -206 
L 1606 56 
L 191 3500 
L 800 3500 
L 1894 763 
L 2988 3500 
L 3597 3500 
L 2059 -325 
z
" id="DejaVuSans-79" transform="scale(0.015625)"/>
      <path d="M 3263 -1063 
L 3263 -1509 
L -63 -1509 
L -63 -1063 
L 3263 -1063 
z
" id="DejaVuSans-5f" transform="scale(0.015625)"/>
      <path d="M 2631 2963 
Q 2534 3019 2420 3045 
Q 2306 3072 2169 3072 
Q 1681 3072 1420 2755 
Q 1159 2438 1159 1844 
L 1159 0 
L 581 0 
L 581 3500 
L 1159 3500 
L 1159 2956 
Q 1341 3275 1631 3429 
Q 1922 3584 2338 3584 
Q 2397 3584 2469 3576 
Q 2541 3569 2628 3553 
L 2631 2963 
z
" id="DejaVuSans-72" transform="scale(0.015625)"/>
      <path d="M 1159 525 
L 1159 -1331 
L 581 -1331 
L 581 3500 
L 1159 3500 
L 1159 2969 
Q 1341 3281 1617 3432 
Q 1894 3584 2278 3584 
Q 2916 3584 3314 3078 
Q 3713 2572 3713 1747 
Q 3713 922 3314 415 
Q 2916 -91 2278 -91 
Q 1894 -91 1617 61 
Q 1341 213 1159 525 
z
M 3116 1747 
Q 3116 2381 2855 2742 
Q 2594 3103 2138 3103 
Q 1681 3103 1420 2742 
Q 1159 2381 1159 1747 
Q 1159 1113 1420 752 
Q 1681 391 2138 391 
Q 2594 391 2855 752 
Q 3116 1113 3116 1747 
z
" id="DejaVuSans-70" transform="scale(0.015625)"/>
      <path d="M 1959 3097 
Q 1497 3097 1228 2736 
Q 959 2375 959 1747 
Q 959 1119 1226 758 
Q 1494 397 1959 397 
Q 2419 397 2687 759 
Q 2956 1122 2956 1747 
Q 2956 2369 2687 2733 
Q 2419 3097 1959 3097 
z
M 1959 3584 
Q 2709 3584 3137 3096 
Q 3566 2609 3566 1747 
Q 3566 888 3137 398 
Q 2709 -91 1959 -91 
Q 1206 -91 779 398 
Q 353 888 353 1747 
Q 353 2609 779 3096 
Q 1206 3584 1959 3584 
z
" id="DejaVuSans-6f" transform="scale(0.015625)"/>
     </defs>
     <use xlink:href="#DejaVuSans-64"/>
     <use x="63.476562" xlink:href="#DejaVuSans-61"/>
     <use x="124.755859" xlink:href="#DejaVuSans-69"/>
     <use x="152.539062" xlink:href="#DejaVuSans-6c"/>
     <use x="180.322266" xlink:href="#DejaVuSans-79"/>
     <use x="239.501953" xlink:href="#DejaVuSans-5f"/>
     <use x="289.501953" xlink:href="#DejaVuSans-72"/>
     <use x="328.365234" xlink:href="#DejaVuSans-65"/>
     <use x="389.888672" xlink:href="#DejaVuSans-70"/>
     <use x="453.365234" xlink:href="#DejaVuSans-6f"/>
     <use x="514.546875" xlink:href="#DejaVuSans-72"/>
     <use x="555.660156" xlink:href="#DejaVuSans-74"/>
    </g>
   </g>
   <g id="legend_1">
    <g id="patch_7">
     <path d="M 64.6 271.48 
L 178.64375 271.48 
Q 180.64375 271.48 180.64375 269.48 
L 180.64375 182.41125 
Q 180.64375 180.41125 178.64375 180.41125 
L 64.6 180.41125 
Q 62.6 180.41125 62.6 182.41125 
L 62.6 269.48 
Q 62.6 271.48 64.6 271.48 
z
" style="fill:#ffffff;opacity:0.8;stroke:#cccccc;stroke-linejoin:miter;"/>
    </g>
    <g id="line2d_18">
     <path d="M 66.6 188.509687 
L 86.6 188.509687 
" style="fill:none;stroke:#0000ff;stroke-linecap:square;stroke-opacity:0.9;stroke-width:2;"/>
    </g>
    <g id="line2d_19"/>
    <g id="text_14">
     <!-- alpaca -->
     <g transform="translate(94.6 192.009687)scale(0.1 -0.1)">
      <defs>
       <path d="M 3122 3366 
L 3122 2828 
Q 2878 2963 2633 3030 
Q 2388 3097 2138 3097 
Q 1578 3097 1268 2742 
Q 959 2388 959 1747 
Q 959 1106 1268 751 
Q 1578 397 2138 397 
Q 2388 397 2633 464 
Q 2878 531 3122 666 
L 3122 134 
Q 2881 22 2623 -34 
Q 2366 -91 2075 -91 
Q 1284 -91 818 406 
Q 353 903 353 1747 
Q 353 2603 823 3093 
Q 1294 3584 2113 3584 
Q 2378 3584 2631 3529 
Q 2884 3475 3122 3366 
z
" id="DejaVuSans-63" transform="scale(0.015625)"/>
      </defs>
      <use xlink:href="#DejaVuSans-61"/>
      <use x="61.279297" xlink:href="#DejaVuSans-6c"/>
      <use x="89.0625" xlink:href="#DejaVuSans-70"/>
      <use x="152.539062" xlink:href="#DejaVuSans-61"/>
      <use x="213.818359" xlink:href="#DejaVuSans-63"/>
      <use x="268.798828" xlink:href="#DejaVuSans-61"/>
     </g>
    </g>
    <g id="line2d_20">
     <path d="M 66.6 203.187812 
L 86.6 203.187812 
" style="fill:none;stroke:#ff0000;stroke-linecap:square;stroke-opacity:0.9;stroke-width:2;"/>
    </g>
    <g id="line2d_21"/>
    <g id="text_15">
     <!-- mattress -->
     <g transform="translate(94.6 206.687812)scale(0.1 -0.1)">
      <defs>
       <path d="M 3328 2828 
Q 3544 3216 3844 3400 
Q 4144 3584 4550 3584 
Q 5097 3584 5394 3201 
Q 5691 2819 5691 2113 
L 5691 0 
L 5113 0 
L 5113 2094 
Q 5113 2597 4934 2840 
Q 4756 3084 4391 3084 
Q 3944 3084 3684 2787 
Q 3425 2491 3425 1978 
L 3425 0 
L 2847 0 
L 2847 2094 
Q 2847 2600 2669 2842 
Q 2491 3084 2119 3084 
Q 1678 3084 1418 2786 
Q 1159 2488 1159 1978 
L 1159 0 
L 581 0 
L 581 3500 
L 1159 3500 
L 1159 2956 
Q 1356 3278 1631 3431 
Q 1906 3584 2284 3584 
Q 2666 3584 2933 3390 
Q 3200 3197 3328 2828 
z
" id="DejaVuSans-6d" transform="scale(0.015625)"/>
       <path d="M 2834 3397 
L 2834 2853 
Q 2591 2978 2328 3040 
Q 2066 3103 1784 3103 
Q 1356 3103 1142 2972 
Q 928 2841 928 2578 
Q 928 2378 1081 2264 
Q 1234 2150 1697 2047 
L 1894 2003 
Q 2506 1872 2764 1633 
Q 3022 1394 3022 966 
Q 3022 478 2636 193 
Q 2250 -91 1575 -91 
Q 1294 -91 989 -36 
Q 684 19 347 128 
L 347 722 
Q 666 556 975 473 
Q 1284 391 1588 391 
Q 1994 391 2212 530 
Q 2431 669 2431 922 
Q 2431 1156 2273 1281 
Q 2116 1406 1581 1522 
L 1381 1569 
Q 847 1681 609 1914 
Q 372 2147 372 2553 
Q 372 3047 722 3315 
Q 1072 3584 1716 3584 
Q 2034 3584 2315 3537 
Q 2597 3491 2834 3397 
z
" id="DejaVuSans-73" transform="scale(0.015625)"/>
      </defs>
      <use xlink:href="#DejaVuSans-6d"/>
      <use x="97.412109" xlink:href="#DejaVuSans-61"/>
      <use x="158.691406" xlink:href="#DejaVuSans-74"/>
      <use x="197.900391" xlink:href="#DejaVuSans-74"/>
      <use x="237.109375" xlink:href="#DejaVuSans-72"/>
      <use x="275.972656" xlink:href="#DejaVuSans-65"/>
      <use x="337.496094" xlink:href="#DejaVuSans-73"/>
      <use x="389.595703" xlink:href="#DejaVuSans-73"/>
     </g>
    </g>
    <g id="line2d_22">
     <path d="M 66.6 217.865937 
L 86.6 217.865937 
" style="fill:none;stroke:#008000;stroke-linecap:square;stroke-opacity:0.9;stroke-width:2;"/>
    </g>
    <g id="line2d_23"/>
    <g id="text_16">
     <!-- daily-open-rebal -->
     <g transform="translate(94.6 221.365937)scale(0.1 -0.1)">
      <defs>
       <path d="M 3513 2113 
L 3513 0 
L 2938 0 
L 2938 2094 
Q 2938 2591 2744 2837 
Q 2550 3084 2163 3084 
Q 1697 3084 1428 2787 
Q 1159 2491 1159 1978 
L 1159 0 
L 581 0 
L 581 3500 
L 1159 3500 
L 1159 2956 
Q 1366 3272 1645 3428 
Q 1925 3584 2291 3584 
Q 2894 3584 3203 3211 
Q 3513 2838 3513 2113 
z
" id="DejaVuSans-6e" transform="scale(0.015625)"/>
       <path d="M 3116 1747 
Q 3116 2381 2855 2742 
Q 2594 3103 2138 3103 
Q 1681 3103 1420 2742 
Q 1159 2381 1159 1747 
Q 1159 1113 1420 752 
Q 1681 391 2138 391 
Q 2594 391 2855 752 
Q 3116 1113 3116 1747 
z
M 1159 2969 
Q 1341 3281 1617 3432 
Q 1894 3584 2278 3584 
Q 2916 3584 3314 3078 
Q 3713 2572 3713 1747 
Q 3713 922 3314 415 
Q 2916 -91 2278 -91 
Q 1894 -91 1617 61 
Q 1341 213 1159 525 
L 1159 0 
L 581 0 
L 581 4863 
L 1159 4863 
L 1159 2969 
z
" id="DejaVuSans-62" transform="scale(0.015625)"/>
      </defs>
      <use xlink:href="#DejaVuSans-64"/>
      <use x="63.476562" xlink:href="#DejaVuSans-61"/>
      <use x="124.755859" xlink:href="#DejaVuSans-69"/>
      <use x="152.539062" xlink:href="#DejaVuSans-6c"/>
      <use x="180.322266" xlink:href="#DejaVuSans-79"/>
      <use x="237.751953" xlink:href="#DejaVuSans-2d"/>
      <use x="275.710938" xlink:href="#DejaVuSans-6f"/>
      <use x="336.892578" xlink:href="#DejaVuSans-70"/>
      <use x="400.369141" xlink:href="#DejaVuSans-65"/>
      <use x="461.892578" xlink:href="#DejaVuSans-6e"/>
      <use x="525.271484" xlink:href="#DejaVuSans-2d"/>
      <use x="561.355469" xlink:href="#DejaVuSans-72"/>
      <use x="600.21875" xlink:href="#DejaVuSans-65"/>
      <use x="661.742188" xlink:href="#DejaVuSans-62"/>
      <use x="725.21875" xlink:href="#DejaVuSans-61"/>
      <use x="786.498047" xlink:href="#DejaVuSans-6c"/>
     </g>
    </g>
    <g id="line2d_24">
     <path d="M 66.6 232.544062 
L 86.6 232.544062 
" style="fill:none;stroke:#ec5283;stroke-linecap:square;stroke-width:2;"/>
    </g>
    <g id="line2d_25"/>
    <g id="text_17">
     <!-- daily-close-rebal -->
     <g transform="translate(94.6 236.044062)scale(0.1 -0.1)">
      <use xlink:href="#DejaVuSans-64"/>
      <use x="63.476562" xlink:href="#DejaVuSans-61"/>
      <use x="124.755859" xlink:href="#DejaVuSans-69"/>
      <use x="152.539062" xlink:href="#DejaVuSans-6c"/>
      <use x="180.322266" xlink:href="#DejaVuSans-79"/>
      <use x="237.751953" xlink:href="#DejaVuSans-2d"/>
      <use x="273.835938" xlink:href="#DejaVuSans-63"/>
      <use x="328.816406" xlink:href="#DejaVuSans-6c"/>
      <use x="356.599609" xlink:href="#DejaVuSans-6f"/>
      <use x="417.78125" xlink:href="#DejaVuSans-73"/>
      <use x="469.880859" xlink:href="#DejaVuSans-65"/>
      <use x="531.404297" xlink:href="#DejaVuSans-2d"/>
      <use x="567.488281" xlink:href="#DejaVuSans-72"/>
      <use x="606.351562" xlink:href="#DejaVuSans-65"/>
      <use x="667.875" xlink:href="#DejaVuSans-62"/>
      <use x="731.351562" xlink:href="#DejaVuSans-61"/>
      <use x="792.630859" xlink:href="#DejaVuSans-6c"/>
     </g>
    </g>
    <g id="line2d_26">
     <path d="M 66.6 247.222187 
L 86.6 247.222187 
" style="fill:none;stroke:#00ff00;stroke-linecap:square;stroke-opacity:0.9;stroke-width:2;"/>
    </g>
    <g id="line2d_27"/>
    <g id="text_18">
     <!-- trader-baseline -->
     <g transform="translate(94.6 250.722187)scale(0.1 -0.1)">
      <use xlink:href="#DejaVuSans-74"/>
      <use x="39.208984" xlink:href="#DejaVuSans-72"/>
      <use x="80.322266" xlink:href="#DejaVuSans-61"/>
      <use x="141.601562" xlink:href="#DejaVuSans-64"/>
      <use x="205.078125" xlink:href="#DejaVuSans-65"/>
      <use x="266.601562" xlink:href="#DejaVuSans-72"/>
      <use x="301.339844" xlink:href="#DejaVuSans-2d"/>
      <use x="337.423828" xlink:href="#DejaVuSans-62"/>
      <use x="400.900391" xlink:href="#DejaVuSans-61"/>
      <use x="462.179688" xlink:href="#DejaVuSans-73"/>
      <use x="514.279297" xlink:href="#DejaVuSans-65"/>
      <use x="575.802734" xlink:href="#DejaVuSans-6c"/>
      <use x="603.585938" xlink:href="#DejaVuSans-69"/>
      <use x="631.369141" xlink:href="#DejaVuSans-6e"/>
      <use x="694.748047" xlink:href="#DejaVuSans-65"/>
     </g>
    </g>
    <g id="line2d_28">
     <path d="M 66.6 261.900312 
L 86.6 261.900312 
" style="fill:none;stroke:#a5b9cf;stroke-linecap:square;stroke-width:2;"/>
    </g>
    <g id="line2d_29"/>
    <g id="text_19">
     <!-- default-cfg -->
     <g transform="translate(94.6 265.400312)scale(0.1 -0.1)">
      <defs>
       <path d="M 2375 4863 
L 2375 4384 
L 1825 4384 
Q 1516 4384 1395 4259 
Q 1275 4134 1275 3809 
L 1275 3500 
L 2222 3500 
L 2222 3053 
L 1275 3053 
L 1275 0 
L 697 0 
L 697 3053 
L 147 3053 
L 147 3500 
L 697 3500 
L 697 3744 
Q 697 4328 969 4595 
Q 1241 4863 1831 4863 
L 2375 4863 
z
" id="DejaVuSans-66" transform="scale(0.015625)"/>
       <path d="M 544 1381 
L 544 3500 
L 1119 3500 
L 1119 1403 
Q 1119 906 1312 657 
Q 1506 409 1894 409 
Q 2359 409 2629 706 
Q 2900 1003 2900 1516 
L 2900 3500 
L 3475 3500 
L 3475 0 
L 2900 0 
L 2900 538 
Q 2691 219 2414 64 
Q 2138 -91 1772 -91 
Q 1169 -91 856 284 
Q 544 659 544 1381 
z
M 1991 3584 
L 1991 3584 
z
" id="DejaVuSans-75" transform="scale(0.015625)"/>
       <path d="M 2906 1791 
Q 2906 2416 2648 2759 
Q 2391 3103 1925 3103 
Q 1463 3103 1205 2759 
Q 947 2416 947 1791 
Q 947 1169 1205 825 
Q 1463 481 1925 481 
Q 2391 481 2648 825 
Q 2906 1169 2906 1791 
z
M 3481 434 
Q 3481 -459 3084 -895 
Q 2688 -1331 1869 -1331 
Q 1566 -1331 1297 -1286 
Q 1028 -1241 775 -1147 
L 775 -588 
Q 1028 -725 1275 -790 
Q 1522 -856 1778 -856 
Q 2344 -856 2625 -561 
Q 2906 -266 2906 331 
L 2906 616 
Q 2728 306 2450 153 
Q 2172 0 1784 0 
Q 1141 0 747 490 
Q 353 981 353 1791 
Q 353 2603 747 3093 
Q 1141 3584 1784 3584 
Q 2172 3584 2450 3431 
Q 2728 3278 2906 2969 
L 2906 3500 
L 3481 3500 
L 3481 434 
z
" id="DejaVuSans-67" transform="scale(0.015625)"/>
      </defs>
      <use xlink:href="#DejaVuSans-64"/>
      <use x="63.476562" xlink:href="#DejaVuSans-65"/>
      <use x="125" xlink:href="#DejaVuSans-66"/>
      <use x="160.205078" xlink:href="#DejaVuSans-61"/>
      <use x="221.484375" xlink:href="#DejaVuSans-75"/>
      <use x="284.863281" xlink:href="#DejaVuSans-6c"/>
      <use x="312.646484" xlink:href="#DejaVuSans-74"/>
      <use x="351.855469" xlink:href="#DejaVuSans-2d"/>
      <use x="387.939453" xlink:href="#DejaVuSans-63"/>
      <use x="442.919922" xlink:href="#DejaVuSans-66"/>
      <use x="478.125" xlink:href="#DejaVuSans-67"/>
     </g>
    </g>
   </g>
  </g>
 </g>
 <defs>
  <clipPath id="p9e84091761">
   <rect height="235.008" width="357.12" x="57.6" y="41.472"/>
  </clipPath>
 </defs>
</svg>
