<?xml version="1.0" encoding="utf-8" standalone="no"?>
<!DOCTYPE svg PUBLIC "-//W3C//DTD SVG 1.1//EN"
  "http://www.w3.org/Graphics/SVG/1.1/DTD/svg11.dtd">
<svg height="345.6pt" version="1.1" viewBox="0 0 460.8 345.6" width="460.8pt" xmlns="http://www.w3.org/2000/svg" xmlns:xlink="http://www.w3.org/1999/xlink">
 <metadata>
  <rdf:RDF xmlns:cc="http://creativecommons.org/ns#" xmlns:dc="http://purl.org/dc/elements/1.1/" xmlns:rdf="http://www.w3.org/1999/02/22-rdf-syntax-ns#">
   <cc:Work>
    <dc:type rdf:resource="http://purl.org/dc/dcmitype/StillImage"/>
    <dc:date>2022-05-14T01:01:27.434155</dc:date>
    <dc:format>image/svg+xml</dc:format>
    <dc:creator>
     <cc:Agent>
      <dc:title>Matplotlib v3.4.3, https://matplotlib.org/</dc:title>
     </cc:Agent>
    </dc:creator>
   </cc:Work>
  </rdf:RDF>
 </metadata>
 <defs>
  <style type="text/css">*{stroke-linecap:butt;stroke-linejoin:round;}</style>
 </defs>
 <g id="figure_1">
  <g id="patch_1">
   <path d="M 0 345.6 
L 460.8 345.6 
L 460.8 0 
L 0 0 
z
" style="fill:#ffffff;"/>
  </g>
  <g id="axes_1">
   <g id="patch_2">
    <path d="M 57.6 276.48 
L 414.72 276.48 
L 414.72 41.472 
L 57.6 41.472 
z
" style="fill:#ffffff;"/>
   </g>
   <g id="matplotlib.axis_1">
    <g id="xtick_1">
     <g id="line2d_1">
      <defs>
       <path d="M 0 0 
L 0 3.5 
" id="m06da5e8480" style="stroke:#000000;stroke-width:0.8;"/>
      </defs>
      <g>
       <use style="stroke:#000000;stroke-width:0.8;" x="84.942579" xlink:href="#m06da5e8480" y="276.48"/>
      </g>
     </g>
     <g id="text_1">
      <!-- 2021-09 -->
      <g transform="translate(47.717758 310.951846)rotate(-30)scale(0.1 -0.1)">
       <defs>
        <path d="M 1228 531 
L 3431 531 
L 3431 0 
L 469 0 
L 469 531 
Q 828 903 1448 1529 
Q 2069 2156 2228 2338 
Q 2531 2678 2651 2914 
Q 2772 3150 2772 3378 
Q 2772 3750 2511 3984 
Q 2250 4219 1831 4219 
Q 1534 4219 1204 4116 
Q 875 4013 500 3803 
L 500 4441 
Q 881 4594 1212 4672 
Q 1544 4750 1819 4750 
Q 2544 4750 2975 4387 
Q 3406 4025 3406 3419 
Q 3406 3131 3298 2873 
Q 3191 2616 2906 2266 
Q 2828 2175 2409 1742 
Q 1991 1309 1228 531 
z
" id="DejaVuSans-32" transform="scale(0.015625)"/>
        <path d="M 2034 4250 
Q 1547 4250 1301 3770 
Q 1056 3291 1056 2328 
Q 1056 1369 1301 889 
Q 1547 409 2034 409 
Q 2525 409 2770 889 
Q 3016 1369 3016 2328 
Q 3016 3291 2770 3770 
Q 2525 4250 2034 4250 
z
M 2034 4750 
Q 2819 4750 3233 4129 
Q 3647 3509 3647 2328 
Q 3647 1150 3233 529 
Q 2819 -91 2034 -91 
Q 1250 -91 836 529 
Q 422 1150 422 2328 
Q 422 3509 836 4129 
Q 1250 4750 2034 4750 
z
" id="DejaVuSans-30" transform="scale(0.015625)"/>
        <path d="M 794 531 
L 1825 531 
L 1825 4091 
L 703 3866 
L 703 4441 
L 1819 4666 
L 2450 4666 
L 2450 531 
L 3481 531 
L 3481 0 
L 794 0 
L 794 531 
z
" id="DejaVuSans-31" transform="scale(0.015625)"/>
        <path d="M 313 2009 
L 1997 2009 
L 1997 1497 
L 313 1497 
L 313 2009 
z
" id="DejaVuSans-2d" transform="scale(0.015625)"/>
        <path d="M 703 97 
L 703 672 
Q 941 559 1184 500 
Q 1428 441 1663 441 
Q 2288 441 2617 861 
Q 2947 1281 2994 2138 
Q 2813 1869 2534 1725 
Q 2256 1581 1919 1581 
Q 1219 1581 811 2004 
Q 403 2428 403 3163 
Q 403 3881 828 4315 
Q 1253 4750 1959 4750 
Q 2769 4750 3195 4129 
Q 3622 3509 3622 2328 
Q 3622 1225 3098 567 
Q 2575 -91 1691 -91 
Q 1453 -91 1209 -44 
Q 966 3 703 97 
z
M 1959 2075 
Q 2384 2075 2632 2365 
Q 2881 2656 2881 3163 
Q 2881 3666 2632 3958 
Q 2384 4250 1959 4250 
Q 1534 4250 1286 3958 
Q 1038 3666 1038 3163 
Q 1038 2656 1286 2365 
Q 1534 2075 1959 2075 
z
" id="DejaVuSans-39" transform="scale(0.015625)"/>
       </defs>
       <use xlink:href="#DejaVuSans-32"/>
       <use x="63.623047" xlink:href="#DejaVuSans-30"/>
       <use x="127.246094" xlink:href="#DejaVuSans-32"/>
       <use x="190.869141" xlink:href="#DejaVuSans-31"/>
       <use x="254.492188" xlink:href="#DejaVuSans-2d"/>
       <use x="290.576172" xlink:href="#DejaVuSans-30"/>
       <use x="354.199219" xlink:href="#DejaVuSans-39"/>
      </g>
     </g>
    </g>
    <g id="xtick_2">
     <g id="line2d_2">
      <g>
       <use style="stroke:#000000;stroke-width:0.8;" x="121.975417" xlink:href="#m06da5e8480" y="276.48"/>
      </g>
     </g>
     <g id="text_2">
      <!-- 2021-10 -->
      <g transform="translate(84.750596 310.951846)rotate(-30)scale(0.1 -0.1)">
       <use xlink:href="#DejaVuSans-32"/>
       <use x="63.623047" xlink:href="#DejaVuSans-30"/>
       <use x="127.246094" xlink:href="#DejaVuSans-32"/>
       <use x="190.869141" xlink:href="#DejaVuSans-31"/>
       <use x="254.492188" xlink:href="#DejaVuSans-2d"/>
       <use x="290.576172" xlink:href="#DejaVuSans-31"/>
       <use x="354.199219" xlink:href="#DejaVuSans-30"/>
      </g>
     </g>
    </g>
    <g id="xtick_3">
     <g id="line2d_3">
      <g>
       <use style="stroke:#000000;stroke-width:0.8;" x="160.242682" xlink:href="#m06da5e8480" y="276.48"/>
      </g>
     </g>
     <g id="text_3">
      <!-- 2021-11 -->
      <g transform="translate(123.017862 310.951846)rotate(-30)scale(0.1 -0.1)">
       <use xlink:href="#DejaVuSans-32"/>
       <use x="63.623047" xlink:href="#DejaVuSans-30"/>
       <use x="127.246094" xlink:href="#DejaVuSans-32"/>
       <use x="190.869141" xlink:href="#DejaVuSans-31"/>
       <use x="254.492188" xlink:href="#DejaVuSans-2d"/>
       <use x="290.576172" xlink:href="#DejaVuSans-31"/>
       <use x="354.199219" xlink:href="#DejaVuSans-31"/>
      </g>
     </g>
    </g>
    <g id="xtick_4">
     <g id="line2d_4">
      <g>
       <use style="stroke:#000000;stroke-width:0.8;" x="197.27552" xlink:href="#m06da5e8480" y="276.48"/>
      </g>
     </g>
     <g id="text_4">
      <!-- 2021-12 -->
      <g transform="translate(160.050699 310.951846)rotate(-30)scale(0.1 -0.1)">
       <use xlink:href="#DejaVuSans-32"/>
       <use x="63.623047" xlink:href="#DejaVuSans-30"/>
       <use x="127.246094" xlink:href="#DejaVuSans-32"/>
       <use x="190.869141" xlink:href="#DejaVuSans-31"/>
       <use x="254.492188" xlink:href="#DejaVuSans-2d"/>
       <use x="290.576172" xlink:href="#DejaVuSans-31"/>
       <use x="354.199219" xlink:href="#DejaVuSans-32"/>
      </g>
     </g>
    </g>
    <g id="xtick_5">
     <g id="line2d_5">
      <g>
       <use style="stroke:#000000;stroke-width:0.8;" x="235.542786" xlink:href="#m06da5e8480" y="276.48"/>
      </g>
     </g>
     <g id="text_5">
      <!-- 2022-01 -->
      <g transform="translate(198.317965 310.951846)rotate(-30)scale(0.1 -0.1)">
       <use xlink:href="#DejaVuSans-32"/>
       <use x="63.623047" xlink:href="#DejaVuSans-30"/>
       <use x="127.246094" xlink:href="#DejaVuSans-32"/>
       <use x="190.869141" xlink:href="#DejaVuSans-32"/>
       <use x="254.492188" xlink:href="#DejaVuSans-2d"/>
       <use x="290.576172" xlink:href="#DejaVuSans-30"/>
       <use x="354.199219" xlink:href="#DejaVuSans-31"/>
      </g>
     </g>
    </g>
    <g id="xtick_6">
     <g id="line2d_6">
      <g>
       <use style="stroke:#000000;stroke-width:0.8;" x="273.810052" xlink:href="#m06da5e8480" y="276.48"/>
      </g>
     </g>
     <g id="text_6">
      <!-- 2022-02 -->
      <g transform="translate(236.585231 310.951846)rotate(-30)scale(0.1 -0.1)">
       <use xlink:href="#DejaVuSans-32"/>
       <use x="63.623047" xlink:href="#DejaVuSans-30"/>
       <use x="127.246094" xlink:href="#DejaVuSans-32"/>
       <use x="190.869141" xlink:href="#DejaVuSans-32"/>
       <use x="254.492188" xlink:href="#DejaVuSans-2d"/>
       <use x="290.576172" xlink:href="#DejaVuSans-30"/>
       <use x="354.199219" xlink:href="#DejaVuSans-32"/>
      </g>
     </g>
    </g>
    <g id="xtick_7">
     <g id="line2d_7">
      <g>
       <use style="stroke:#000000;stroke-width:0.8;" x="308.374034" xlink:href="#m06da5e8480" y="276.48"/>
      </g>
     </g>
     <g id="text_7">
      <!-- 2022-03 -->
      <g transform="translate(271.149213 310.951846)rotate(-30)scale(0.1 -0.1)">
       <defs>
        <path d="M 2597 2516 
Q 3050 2419 3304 2112 
Q 3559 1806 3559 1356 
Q 3559 666 3084 287 
Q 2609 -91 1734 -91 
Q 1441 -91 1130 -33 
Q 819 25 488 141 
L 488 750 
Q 750 597 1062 519 
Q 1375 441 1716 441 
Q 2309 441 2620 675 
Q 2931 909 2931 1356 
Q 2931 1769 2642 2001 
Q 2353 2234 1838 2234 
L 1294 2234 
L 1294 2753 
L 1863 2753 
Q 2328 2753 2575 2939 
Q 2822 3125 2822 3475 
Q 2822 3834 2567 4026 
Q 2313 4219 1838 4219 
Q 1578 4219 1281 4162 
Q 984 4106 628 3988 
L 628 4550 
Q 988 4650 1302 4700 
Q 1616 4750 1894 4750 
Q 2613 4750 3031 4423 
Q 3450 4097 3450 3541 
Q 3450 3153 3228 2886 
Q 3006 2619 2597 2516 
z
" id="DejaVuSans-33" transform="scale(0.015625)"/>
       </defs>
       <use xlink:href="#DejaVuSans-32"/>
       <use x="63.623047" xlink:href="#DejaVuSans-30"/>
       <use x="127.246094" xlink:href="#DejaVuSans-32"/>
       <use x="190.869141" xlink:href="#DejaVuSans-32"/>
       <use x="254.492188" xlink:href="#DejaVuSans-2d"/>
       <use x="290.576172" xlink:href="#DejaVuSans-30"/>
       <use x="354.199219" xlink:href="#DejaVuSans-33"/>
      </g>
     </g>
    </g>
    <g id="xtick_8">
     <g id="line2d_8">
      <g>
       <use style="stroke:#000000;stroke-width:0.8;" x="346.6413" xlink:href="#m06da5e8480" y="276.48"/>
      </g>
     </g>
     <g id="text_8">
      <!-- 2022-04 -->
      <g transform="translate(309.416479 310.951846)rotate(-30)scale(0.1 -0.1)">
       <defs>
        <path d="M 2419 4116 
L 825 1625 
L 2419 1625 
L 2419 4116 
z
M 2253 4666 
L 3047 4666 
L 3047 1625 
L 3713 1625 
L 3713 1100 
L 3047 1100 
L 3047 0 
L 2419 0 
L 2419 1100 
L 313 1100 
L 313 1709 
L 2253 4666 
z
" id="DejaVuSans-34" transform="scale(0.015625)"/>
       </defs>
       <use xlink:href="#DejaVuSans-32"/>
       <use x="63.623047" xlink:href="#DejaVuSans-30"/>
       <use x="127.246094" xlink:href="#DejaVuSans-32"/>
       <use x="190.869141" xlink:href="#DejaVuSans-32"/>
       <use x="254.492188" xlink:href="#DejaVuSans-2d"/>
       <use x="290.576172" xlink:href="#DejaVuSans-30"/>
       <use x="354.199219" xlink:href="#DejaVuSans-34"/>
      </g>
     </g>
    </g>
    <g id="xtick_9">
     <g id="line2d_9">
      <g>
       <use style="stroke:#000000;stroke-width:0.8;" x="383.674138" xlink:href="#m06da5e8480" y="276.48"/>
      </g>
     </g>
     <g id="text_9">
      <!-- 2022-05 -->
      <g transform="translate(346.449317 310.951846)rotate(-30)scale(0.1 -0.1)">
       <defs>
        <path d="M 691 4666 
L 3169 4666 
L 3169 4134 
L 1269 4134 
L 1269 2991 
Q 1406 3038 1543 3061 
Q 1681 3084 1819 3084 
Q 2600 3084 3056 2656 
Q 3513 2228 3513 1497 
Q 3513 744 3044 326 
Q 2575 -91 1722 -91 
Q 1428 -91 1123 -41 
Q 819 9 494 109 
L 494 744 
Q 775 591 1075 516 
Q 1375 441 1709 441 
Q 2250 441 2565 725 
Q 2881 1009 2881 1497 
Q 2881 1984 2565 2268 
Q 2250 2553 1709 2553 
Q 1456 2553 1204 2497 
Q 953 2441 691 2322 
L 691 4666 
z
" id="DejaVuSans-35" transform="scale(0.015625)"/>
       </defs>
       <use xlink:href="#DejaVuSans-32"/>
       <use x="63.623047" xlink:href="#DejaVuSans-30"/>
       <use x="127.246094" xlink:href="#DejaVuSans-32"/>
       <use x="190.869141" xlink:href="#DejaVuSans-32"/>
       <use x="254.492188" xlink:href="#DejaVuSans-2d"/>
       <use x="290.576172" xlink:href="#DejaVuSans-30"/>
       <use x="354.199219" xlink:href="#DejaVuSans-35"/>
      </g>
     </g>
    </g>
    <g id="text_10">
     <!-- date -->
     <g transform="translate(224.885 324.351346)scale(0.1 -0.1)">
      <defs>
       <path d="M 2906 2969 
L 2906 4863 
L 3481 4863 
L 3481 0 
L 2906 0 
L 2906 525 
Q 2725 213 2448 61 
Q 2172 -91 1784 -91 
Q 1150 -91 751 415 
Q 353 922 353 1747 
Q 353 2572 751 3078 
Q 1150 3584 1784 3584 
Q 2172 3584 2448 3432 
Q 2725 3281 2906 2969 
z
M 947 1747 
Q 947 1113 1208 752 
Q 1469 391 1925 391 
Q 2381 391 2643 752 
Q 2906 1113 2906 1747 
Q 2906 2381 2643 2742 
Q 2381 3103 1925 3103 
Q 1469 3103 1208 2742 
Q 947 2381 947 1747 
z
" id="DejaVuSans-64" transform="scale(0.015625)"/>
       <path d="M 2194 1759 
Q 1497 1759 1228 1600 
Q 959 1441 959 1056 
Q 959 750 1161 570 
Q 1363 391 1709 391 
Q 2188 391 2477 730 
Q 2766 1069 2766 1631 
L 2766 1759 
L 2194 1759 
z
M 3341 1997 
L 3341 0 
L 2766 0 
L 2766 531 
Q 2569 213 2275 61 
Q 1981 -91 1556 -91 
Q 1019 -91 701 211 
Q 384 513 384 1019 
Q 384 1609 779 1909 
Q 1175 2209 1959 2209 
L 2766 2209 
L 2766 2266 
Q 2766 2663 2505 2880 
Q 2244 3097 1772 3097 
Q 1472 3097 1187 3025 
Q 903 2953 641 2809 
L 641 3341 
Q 956 3463 1253 3523 
Q 1550 3584 1831 3584 
Q 2591 3584 2966 3190 
Q 3341 2797 3341 1997 
z
" id="DejaVuSans-61" transform="scale(0.015625)"/>
       <path d="M 1172 4494 
L 1172 3500 
L 2356 3500 
L 2356 3053 
L 1172 3053 
L 1172 1153 
Q 1172 725 1289 603 
Q 1406 481 1766 481 
L 2356 481 
L 2356 0 
L 1766 0 
Q 1100 0 847 248 
Q 594 497 594 1153 
L 594 3053 
L 172 3053 
L 172 3500 
L 594 3500 
L 594 4494 
L 1172 4494 
z
" id="DejaVuSans-74" transform="scale(0.015625)"/>
       <path d="M 3597 1894 
L 3597 1613 
L 953 1613 
Q 991 1019 1311 708 
Q 1631 397 2203 397 
Q 2534 397 2845 478 
Q 3156 559 3463 722 
L 3463 178 
Q 3153 47 2828 -22 
Q 2503 -91 2169 -91 
Q 1331 -91 842 396 
Q 353 884 353 1716 
Q 353 2575 817 3079 
Q 1281 3584 2069 3584 
Q 2775 3584 3186 3129 
Q 3597 2675 3597 1894 
z
M 3022 2063 
Q 3016 2534 2758 2815 
Q 2500 3097 2075 3097 
Q 1594 3097 1305 2825 
Q 1016 2553 972 2059 
L 3022 2063 
z
" id="DejaVuSans-65" transform="scale(0.015625)"/>
      </defs>
      <use xlink:href="#DejaVuSans-64"/>
      <use x="63.476562" xlink:href="#DejaVuSans-61"/>
      <use x="124.755859" xlink:href="#DejaVuSans-74"/>
      <use x="163.964844" xlink:href="#DejaVuSans-65"/>
     </g>
    </g>
   </g>
   <g id="matplotlib.axis_2">
    <g id="ytick_1">
     <g id="line2d_10">
      <defs>
       <path d="M 0 0 
L -3.5 0 
" id="m84d0d1b372" style="stroke:#000000;stroke-width:0.8;"/>
      </defs>
      <g>
       <use style="stroke:#000000;stroke-width:0.8;" x="57.6" xlink:href="#m84d0d1b372" y="251.601301"/>
      </g>
     </g>
     <g id="text_11">
      <!-- 80000 -->
      <g transform="translate(18.7875 255.40052)scale(0.1 -0.1)">
       <defs>
        <path d="M 2034 2216 
Q 1584 2216 1326 1975 
Q 1069 1734 1069 1313 
Q 1069 891 1326 650 
Q 1584 409 2034 409 
Q 2484 409 2743 651 
Q 3003 894 3003 1313 
Q 3003 1734 2745 1975 
Q 2488 2216 2034 2216 
z
M 1403 2484 
Q 997 2584 770 2862 
Q 544 3141 544 3541 
Q 544 4100 942 4425 
Q 1341 4750 2034 4750 
Q 2731 4750 3128 4425 
Q 3525 4100 3525 3541 
Q 3525 3141 3298 2862 
Q 3072 2584 2669 2484 
Q 3125 2378 3379 2068 
Q 3634 1759 3634 1313 
Q 3634 634 3220 271 
Q 2806 -91 2034 -91 
Q 1263 -91 848 271 
Q 434 634 434 1313 
Q 434 1759 690 2068 
Q 947 2378 1403 2484 
z
M 1172 3481 
Q 1172 3119 1398 2916 
Q 1625 2713 2034 2713 
Q 2441 2713 2670 2916 
Q 2900 3119 2900 3481 
Q 2900 3844 2670 4047 
Q 2441 4250 2034 4250 
Q 1625 4250 1398 4047 
Q 1172 3844 1172 3481 
z
" id="DejaVuSans-38" transform="scale(0.015625)"/>
       </defs>
       <use xlink:href="#DejaVuSans-38"/>
       <use x="63.623047" xlink:href="#DejaVuSans-30"/>
       <use x="127.246094" xlink:href="#DejaVuSans-30"/>
       <use x="190.869141" xlink:href="#DejaVuSans-30"/>
       <use x="254.492188" xlink:href="#DejaVuSans-30"/>
      </g>
     </g>
    </g>
    <g id="ytick_2">
     <g id="line2d_11">
      <g>
       <use style="stroke:#000000;stroke-width:0.8;" x="57.6" xlink:href="#m84d0d1b372" y="201.534603"/>
      </g>
     </g>
     <g id="text_12">
      <!-- 90000 -->
      <g transform="translate(18.7875 205.333822)scale(0.1 -0.1)">
       <use xlink:href="#DejaVuSans-39"/>
       <use x="63.623047" xlink:href="#DejaVuSans-30"/>
       <use x="127.246094" xlink:href="#DejaVuSans-30"/>
       <use x="190.869141" xlink:href="#DejaVuSans-30"/>
       <use x="254.492188" xlink:href="#DejaVuSans-30"/>
      </g>
     </g>
    </g>
    <g id="ytick_3">
     <g id="line2d_12">
      <g>
       <use style="stroke:#000000;stroke-width:0.8;" x="57.6" xlink:href="#m84d0d1b372" y="151.467906"/>
      </g>
     </g>
     <g id="text_13">
      <!-- 100000 -->
      <g transform="translate(12.425 155.267124)scale(0.1 -0.1)">
       <use xlink:href="#DejaVuSans-31"/>
       <use x="63.623047" xlink:href="#DejaVuSans-30"/>
       <use x="127.246094" xlink:href="#DejaVuSans-30"/>
       <use x="190.869141" xlink:href="#DejaVuSans-30"/>
       <use x="254.492188" xlink:href="#DejaVuSans-30"/>
       <use x="318.115234" xlink:href="#DejaVuSans-30"/>
      </g>
     </g>
    </g>
    <g id="ytick_4">
     <g id="line2d_13">
      <g>
       <use style="stroke:#000000;stroke-width:0.8;" x="57.6" xlink:href="#m84d0d1b372" y="101.401208"/>
      </g>
     </g>
     <g id="text_14">
      <!-- 110000 -->
      <g transform="translate(12.425 105.200426)scale(0.1 -0.1)">
       <use xlink:href="#DejaVuSans-31"/>
       <use x="63.623047" xlink:href="#DejaVuSans-31"/>
       <use x="127.246094" xlink:href="#DejaVuSans-30"/>
       <use x="190.869141" xlink:href="#DejaVuSans-30"/>
       <use x="254.492188" xlink:href="#DejaVuSans-30"/>
       <use x="318.115234" xlink:href="#DejaVuSans-30"/>
      </g>
     </g>
    </g>
    <g id="ytick_5">
     <g id="line2d_14">
      <g>
       <use style="stroke:#000000;stroke-width:0.8;" x="57.6" xlink:href="#m84d0d1b372" y="51.33451"/>
      </g>
     </g>
     <g id="text_15">
      <!-- 120000 -->
      <g transform="translate(12.425 55.133728)scale(0.1 -0.1)">
       <use xlink:href="#DejaVuSans-31"/>
       <use x="63.623047" xlink:href="#DejaVuSans-32"/>
       <use x="127.246094" xlink:href="#DejaVuSans-30"/>
       <use x="190.869141" xlink:href="#DejaVuSans-30"/>
       <use x="254.492188" xlink:href="#DejaVuSans-30"/>
       <use x="318.115234" xlink:href="#DejaVuSans-30"/>
      </g>
     </g>
    </g>
   </g>
   <g id="line2d_15">
    <path clip-path="url(#p94f86cbb5a)" d="M 73.832727 151.467906 
L 75.067155 149.97158 
L 76.301583 147.872743 
L 77.536011 150.620911 
L 78.770439 145.919669 
L 83.708151 141.865006 
L 84.942579 143.213065 
L 86.177007 142.53945 
L 87.411434 142.981432 
L 92.349146 142.782417 
L 93.583574 144.01011 
L 94.818002 145.443251 
L 96.05243 150.03117 
L 99.755714 146.583346 
L 100.990142 152.933244 
L 102.22457 150.204876 
L 103.458998 150.837628 
L 104.693426 155.56912 
L 108.396709 164.162962 
L 109.631137 165.345352 
L 110.865565 161.330702 
L 112.099993 153.727123 
L 113.334421 149.692479 
L 117.037705 146.264161 
L 118.272133 157.089621 
L 119.506561 155.779058 
L 120.740989 159.712342 
L 121.975417 152.577577 
L 125.6787 161.747027 
L 126.913128 154.130364 
L 128.147556 152.152406 
L 129.381984 152.250638 
L 130.616412 151.773899 
L 134.319696 151.2526 
L 135.554124 150.500417 
L 136.788552 156.793543 
L 138.02298 147.231237 
L 139.257408 146.48635 
L 142.960691 142.590454 
L 144.195119 137.477831 
L 145.429547 135.388258 
L 146.663975 144.21707 
L 147.898403 151.439013 
L 151.601687 150.855156 
L 152.836115 155.233262 
L 154.070543 156.974504 
L 155.304971 150.404136 
L 156.539399 156.912116 
L 160.242682 146.725851 
L 161.47711 146.666215 
L 162.711538 141.242074 
L 163.945966 147.679613 
L 165.180394 143.834982 
L 168.883678 143.553948 
L 170.118106 149.602997 
L 171.352534 149.879767 
L 172.586962 153.858436 
L 173.82139 149.977355 
L 177.524673 148.247571 
L 178.759101 148.470149 
L 179.993529 151.163506 
L 181.227957 152.428489 
L 182.462385 153.018353 
L 186.165669 149.586485 
L 187.400097 145.906674 
L 188.634525 146.078033 
L 191.103381 146.052831 
L 194.806664 150.606949 
L 196.041092 160.443244 
L 197.27552 167.327031 
L 198.509948 161.099778 
L 199.744376 164.778096 
L 203.44766 155.316617 
L 204.682088 146.950808 
L 205.916516 143.123427 
L 207.150944 142.520092 
L 208.385372 141.144177 
L 212.088655 145.948295 
L 213.323083 143.768991 
L 214.557511 140.673568 
L 215.791939 137.9363 
L 217.026367 143.755504 
L 220.729651 150.80978 
L 221.964079 138.809803 
L 223.198507 136.799232 
L 224.432935 132.034008 
L 229.370646 125.535441 
L 230.605074 125.949277 
L 231.839502 125.943715 
L 233.07393 126.82929 
L 234.308358 129.0128 
L 238.011642 120.925023 
L 239.24607 115.084716 
L 240.480498 129.151092 
L 241.714926 124.271326 
L 242.949354 123.069012 
L 246.652637 122.741997 
L 247.887065 118.216222 
L 249.121493 117.30408 
L 250.355921 123.748772 
L 251.590349 122.219811 
L 256.528061 133.566854 
L 257.762489 136.869358 
L 258.996917 142.864886 
L 260.231345 154.705879 
L 263.934628 153.843025 
L 265.169056 159.904455 
L 266.403484 159.981345 
L 267.637912 163.18132 
L 268.87234 150.114233 
L 272.575624 139.779834 
L 273.810052 134.871689 
L 275.04448 125.613784 
L 276.278908 159.054369 
L 277.513336 158.026398 
L 281.216619 166.780846 
L 282.451047 167.780944 
L 283.685475 157.270538 
L 284.919903 166.350408 
L 286.154331 176.688892 
L 289.857615 180.274322 
L 291.092043 174.134288 
L 292.326471 176.744586 
L 293.560899 185.524325 
L 294.795327 188.634685 
L 299.733038 193.865082 
L 300.967466 200.447706 
L 302.201894 189.67192 
L 303.436322 181.211401 
L 307.139606 183.03013 
L 308.374034 191.545064 
L 309.608462 181.344217 
L 310.84289 183.521242 
L 312.077318 189.528925 
L 315.780601 208.472877 
L 317.015029 208.871887 
L 318.249457 189.979139 
L 319.483885 195.766682 
L 320.718313 203.543567 
L 324.421597 204.392384 
L 325.656025 195.278852 
L 326.890453 180.969465 
L 328.124881 176.059574 
L 329.359309 167.684525 
L 333.062592 170.032008 
L 334.29702 160.70955 
L 335.531448 166.208331 
L 336.765876 158.428239 
L 338.000304 153.327577 
L 341.703588 152.001538 
L 342.938016 147.907847 
L 344.172444 149.904995 
L 345.406872 161.383627 
L 346.6413 160.004563 
L 350.344583 154.260148 
L 351.579011 159.858206 
L 352.813439 167.527595 
L 355.282295 168.874526 
L 358.985579 177.238161 
L 360.220007 180.915167 
L 361.454435 178.799093 
L 362.688863 187.586083 
L 367.626574 183.387726 
L 368.861002 174.908069 
L 370.09543 179.897239 
L 371.329858 192.522649 
L 372.564286 207.578324 
L 376.26757 204.382945 
L 377.501998 212.239823 
L 378.736426 217.143071 
L 379.970854 190.065444 
L 381.205282 204.851922 
L 384.908566 198.403224 
L 386.142993 193.493893 
L 387.377421 174.069522 
L 388.611849 194.50957 
L 389.846277 196.750743 
L 393.549561 209.276169 
L 394.783989 208.503441 
L 396.018417 216.43565 
L 397.252845 219.955317 
L 398.487273 214.917664 
L 398.487273 214.917664 
" style="fill:none;stroke:#0000ff;stroke-linecap:square;stroke-opacity:0.9;stroke-width:2;"/>
   </g>
   <g id="line2d_16">
    <path clip-path="url(#p94f86cbb5a)" d="M 73.832727 151.467906 
L 75.067155 148.587678 
L 76.301583 146.619158 
L 77.536011 149.673031 
L 78.770439 143.332756 
L 82.473723 142.071122 
L 83.708151 141.082924 
L 86.177007 141.757981 
L 87.411434 141.821348 
L 92.349146 140.969995 
L 93.583574 142.913731 
L 94.818002 143.934017 
L 96.05243 148.953709 
L 99.755714 145.412996 
L 100.990142 150.192451 
L 102.22457 147.789533 
L 103.458998 149.669528 
L 104.693426 155.648734 
L 108.396709 163.982739 
L 109.631137 164.068956 
L 110.865565 161.240551 
L 112.099993 154.703537 
L 113.334421 150.931498 
L 117.037705 147.772147 
L 118.272133 157.864035 
L 119.506561 157.163322 
L 120.740989 161.8841 
L 121.975417 154.777755 
L 125.6787 160.278506 
L 126.913128 152.792208 
L 128.147556 151.574325 
L 129.381984 150.181049 
L 130.616412 148.092033 
L 134.319696 151.098593 
L 135.554124 154.682287 
L 136.788552 156.311131 
L 138.02298 144.094241 
L 139.257408 140.544677 
L 142.960691 139.417538 
L 144.195119 134.989396 
L 145.429547 132.257132 
L 146.663975 139.079654 
L 147.898403 141.651323 
L 151.601687 143.029194 
L 152.836115 145.611247 
L 154.070543 148.728472 
L 155.304971 141.668511 
L 156.539399 140.429275 
L 160.242682 140.019165 
L 161.47711 138.431524 
L 162.711538 134.669162 
L 163.945966 135.755544 
L 165.180394 135.483215 
L 168.883678 134.84541 
L 170.118106 138.85039 
L 171.352534 141.407343 
L 172.586962 141.49273 
L 173.82139 138.274079 
L 177.524673 136.654657 
L 178.759101 137.831227 
L 179.993529 138.311489 
L 181.227957 138.649216 
L 182.462385 140.21466 
L 186.165669 138.420815 
L 187.400097 133.339686 
L 188.634525 132.943281 
L 191.103381 146.155653 
L 194.806664 140.366435 
L 196.041092 151.371669 
L 197.27552 157.297812 
L 198.509948 150.506663 
L 199.744376 154.460247 
L 203.44766 146.857284 
L 204.682088 137.962036 
L 205.916516 135.473387 
L 207.150944 135.65404 
L 208.385372 132.421763 
L 212.088655 137.465843 
L 213.323083 137.544904 
L 214.557511 133.35191 
L 215.791939 133.183381 
L 217.026367 139.811002 
L 220.729651 145.68226 
L 221.964079 136.054993 
L 223.198507 133.203137 
L 224.432935 128.851183 
L 229.370646 121.686166 
L 230.605074 122.032139 
L 231.839502 121.823954 
L 233.07393 122.46086 
L 234.308358 124.425844 
L 238.011642 118.683144 
L 239.24607 113.602973 
L 240.480498 125.39113 
L 241.714926 122.984259 
L 242.949354 120.228043 
L 246.652637 120.892228 
L 247.887065 117.512313 
L 249.121493 117.677794 
L 250.355921 121.813576 
L 251.590349 122.106414 
L 256.528061 133.676572 
L 258.996917 143.47021 
L 260.231345 153.917515 
L 263.934628 154.914818 
L 265.169056 153.495224 
L 266.403484 154.352014 
L 267.637912 158.847156 
L 268.87234 146.657605 
L 272.575624 138.710823 
L 273.810052 132.655751 
L 275.04448 124.366909 
L 276.278908 147.833333 
L 277.513336 143.966808 
L 281.216619 147.151039 
L 282.451047 143.489225 
L 283.685475 138.845235 
L 284.919903 147.454767 
L 286.154331 158.106754 
L 289.857615 162.562391 
L 291.092043 156.881538 
L 292.326471 157.952657 
L 293.560899 167.702685 
L 294.795327 169.951926 
L 299.733038 174.242619 
L 300.967466 180.854357 
L 302.201894 178.0071 
L 303.436322 166.739986 
L 307.139606 171.638944 
L 308.374034 181.409003 
L 309.608462 170.300909 
L 310.84289 171.336508 
L 312.077318 177.869063 
L 315.780601 194.699219 
L 317.015029 197.176589 
L 318.249457 180.239011 
L 320.718313 191.712273 
L 324.421597 192.035758 
L 325.656025 184.213719 
L 326.890453 173.457338 
L 329.359309 163.81141 
L 333.062592 163.743879 
L 334.29702 155.612801 
L 335.531448 160.530669 
L 336.765876 153.06353 
L 338.000304 147.532794 
L 341.703588 146.893396 
L 342.938016 144.384789 
L 344.172444 144.839793 
L 345.406872 154.772399 
L 346.6413 152.314302 
L 350.344583 149.370813 
L 351.579011 154.167875 
L 352.813439 160.01417 
L 354.047867 160.302743 
L 355.282295 160.395893 
L 360.220007 170.170758 
L 361.454435 168.441597 
L 362.688863 175.58762 
L 367.626574 172.607191 
L 368.861002 165.932848 
L 370.09543 163.402632 
L 371.329858 170.187705 
L 372.564286 184.377879 
L 376.26757 183.056338 
L 377.501998 190.804595 
L 378.736426 191.852702 
L 379.970854 176.567802 
L 381.205282 191.125099 
L 384.908566 188.36486 
L 386.142993 184.575513 
L 387.377421 164.602345 
L 388.611849 181.699575 
L 389.846277 180.722203 
L 394.783989 198.13335 
L 396.018417 203.330105 
L 397.252845 205.910808 
L 398.487273 198.981955 
L 398.487273 198.981955 
" style="fill:none;stroke:#ff0000;stroke-linecap:square;stroke-opacity:0.9;stroke-width:2;"/>
   </g>
   <g id="line2d_17">
    <path clip-path="url(#p94f86cbb5a)" d="M 73.832727 151.467906 
L 75.067155 148.910875 
L 76.301583 147.23313 
L 77.536011 149.64409 
L 78.770439 144.91593 
L 82.473723 141.773587 
L 83.708151 140.531887 
L 84.942579 141.843882 
L 86.177007 141.251699 
L 87.411434 141.194213 
L 92.349146 141.653817 
L 93.583574 142.761121 
L 94.818002 144.060414 
L 96.05243 148.628029 
L 99.755714 144.323551 
L 100.990142 150.848675 
L 102.22457 147.956011 
L 103.458998 148.588252 
L 104.693426 152.967075 
L 108.396709 161.785761 
L 109.631137 162.208536 
L 110.865565 158.610749 
L 112.099993 151.17103 
L 113.334421 146.649174 
L 117.037705 142.834248 
L 118.272133 153.88592 
L 119.506561 152.760412 
L 120.740989 156.302871 
L 121.975417 149.015182 
L 125.6787 158.586458 
L 126.913128 150.328573 
L 128.147556 148.842092 
L 129.381984 147.738362 
L 130.616412 145.411369 
L 134.319696 148.636936 
L 135.554124 152.557602 
L 136.788552 153.366872 
L 138.02298 143.556656 
L 139.257408 142.463582 
L 142.960691 138.664875 
L 144.195119 133.324461 
L 145.429547 131.256698 
L 146.663975 140.584214 
L 147.898403 147.471045 
L 151.601687 146.834513 
L 152.836115 151.316933 
L 154.070543 153.228468 
L 155.304971 146.626053 
L 156.539399 145.131808 
L 160.242682 142.53797 
L 161.47711 141.506088 
L 162.711538 137.207584 
L 163.945966 136.538972 
L 165.180394 133.143359 
L 168.883678 132.316373 
L 170.118106 139.008753 
L 171.352534 143.007666 
L 172.586962 142.777121 
L 173.82139 138.656794 
L 177.524673 137.118455 
L 178.759101 139.757539 
L 179.993529 139.954461 
L 181.227957 141.596438 
L 182.462385 141.919017 
L 186.165669 138.336926 
L 187.400097 134.685421 
L 188.634525 134.586353 
L 191.103381 145.628457 
L 194.806664 139.321483 
L 196.041092 149.368931 
L 197.27552 156.424056 
L 198.509948 150.080157 
L 199.744376 153.551873 
L 203.44766 144.01333 
L 204.682088 134.927024 
L 205.916516 131.220691 
L 207.150944 130.584456 
L 208.385372 129.161368 
L 212.088655 133.890705 
L 213.323083 131.650678 
L 214.557511 128.631932 
L 215.791939 126.275236 
L 217.026367 131.760776 
L 220.729651 139.154356 
L 221.964079 126.658827 
L 223.198507 124.564942 
L 224.432935 119.602392 
L 229.370646 113.211091 
L 231.839502 113.52195 
L 233.07393 113.960029 
L 234.308358 116.446443 
L 238.011642 108.341325 
L 239.24607 101.803537 
L 240.480498 116.208253 
L 241.714926 111.249025 
L 242.949354 109.710442 
L 246.652637 109.566537 
L 247.887065 104.828604 
L 249.121493 104.08893 
L 250.355921 110.540937 
L 251.590349 108.913612 
L 256.528061 120.405323 
L 257.762489 123.884578 
L 258.996917 129.901595 
L 260.231345 142.100832 
L 263.934628 141.127476 
L 265.169056 147.481488 
L 266.403484 147.136564 
L 267.637912 150.264287 
L 268.87234 137.533153 
L 272.575624 126.268319 
L 273.810052 121.831066 
L 275.04448 112.04447 
L 276.278908 146.198335 
L 277.513336 145.049578 
L 281.216619 153.724973 
L 282.451047 154.977286 
L 283.685475 144.193479 
L 284.919903 153.27458 
L 286.154331 164.226542 
L 289.857615 167.390073 
L 291.092043 161.301313 
L 292.326471 164.232239 
L 293.560899 173.060628 
L 294.795327 176.328596 
L 299.733038 181.654354 
L 300.967466 188.201861 
L 302.201894 176.939478 
L 303.436322 168.068832 
L 307.139606 170.369719 
L 308.374034 178.310836 
L 309.608462 168.199683 
L 310.84289 171.43301 
L 312.077318 180.43743 
L 315.780601 201.178857 
L 317.015029 199.065954 
L 318.249457 178.38616 
L 320.718313 193.074339 
L 324.421597 193.620261 
L 325.656025 184.696851 
L 326.890453 169.181355 
L 328.124881 163.786326 
L 329.359309 156.115156 
L 333.062592 158.338747 
L 334.29702 147.432938 
L 335.531448 153.817182 
L 336.765876 146.089785 
L 338.000304 140.520105 
L 341.703588 139.977028 
L 342.938016 135.924953 
L 344.172444 138.752454 
L 345.406872 151.914829 
L 346.6413 150.712967 
L 350.344583 145.768435 
L 352.813439 159.279308 
L 354.047867 161.183046 
L 355.282295 161.726179 
L 358.985579 169.828115 
L 360.220007 172.244125 
L 361.454435 170.382556 
L 362.688863 179.695113 
L 367.626574 173.903288 
L 368.861002 165.354535 
L 370.09543 168.296036 
L 371.329858 181.627022 
L 372.564286 196.7103 
L 376.26757 193.76464 
L 377.501998 205.626433 
L 378.736426 210.242694 
L 379.970854 183.902112 
L 381.205282 198.247146 
L 384.908566 190.389191 
L 386.142993 185.08618 
L 387.377421 163.895798 
L 388.611849 184.195561 
L 389.846277 186.370524 
L 393.549561 200.202576 
L 394.783989 199.796431 
L 396.018417 208.277239 
L 397.252845 211.64551 
L 398.487273 202.332967 
L 398.487273 202.332967 
" style="fill:none;stroke:#ff8040;stroke-linecap:square;stroke-opacity:0.9;stroke-width:2;"/>
   </g>
   <g id="line2d_18">
    <path clip-path="url(#p94f86cbb5a)" d="M 73.832727 151.968573 
L 76.301583 149.495455 
L 77.536011 153.807311 
L 78.770439 148.341158 
L 82.473723 148.948713 
L 83.708151 147.95349 
L 84.942579 148.410717 
L 86.177007 148.71027 
L 87.411434 148.804505 
L 92.349146 148.125327 
L 93.583574 150.901404 
L 94.818002 151.854327 
L 96.05243 158.07347 
L 99.755714 153.944108 
L 100.990142 159.636971 
L 102.22457 157.376662 
L 103.458998 157.843912 
L 104.693426 164.984116 
L 108.396709 172.832392 
L 109.631137 172.965944 
L 110.865565 173.566238 
L 112.099993 166.696684 
L 113.334421 163.756239 
L 117.037705 160.649089 
L 118.272133 171.58998 
L 119.506561 171.643836 
L 120.740989 175.415117 
L 121.975417 169.46698 
L 125.6787 179.006673 
L 126.913128 172.908771 
L 128.147556 171.36609 
L 129.381984 172.683748 
L 130.616412 170.234922 
L 134.319696 173.761557 
L 135.554124 177.874377 
L 136.788552 180.443721 
L 138.02298 169.301313 
L 139.257408 168.361872 
L 142.960691 169.151832 
L 144.195119 164.323415 
L 145.429547 160.961783 
L 146.663975 172.168466 
L 147.898403 177.914782 
L 152.836115 178.080109 
L 154.070543 185.166702 
L 155.304971 179.55514 
L 156.539399 178.782734 
L 160.242682 176.019805 
L 161.47711 174.222704 
L 162.711538 170.562611 
L 163.945966 170.387924 
L 165.180394 169.147348 
L 168.883678 168.154953 
L 170.118106 171.680861 
L 171.352534 178.167577 
L 172.586962 177.574929 
L 173.82139 174.618327 
L 177.524673 173.919624 
L 178.759101 174.31911 
L 179.993529 174.878709 
L 181.227957 174.530721 
L 182.462385 176.447453 
L 186.165669 174.496516 
L 187.400097 167.447277 
L 188.634525 167.611649 
L 191.103381 181.088053 
L 194.806664 177.833406 
L 196.041092 187.736921 
L 197.27552 193.824746 
L 198.509948 188.598207 
L 199.744376 190.480963 
L 203.44766 183.030936 
L 204.682088 173.526301 
L 205.916516 173.064479 
L 207.150944 172.228385 
L 208.385372 167.843229 
L 212.088655 173.760292 
L 213.323083 173.453264 
L 214.557511 169.394676 
L 215.791939 172.433728 
L 217.026367 178.575217 
L 220.729651 183.923693 
L 221.964079 175.544746 
L 223.198507 172.649905 
L 224.432935 168.181762 
L 229.370646 162.529069 
L 230.605074 162.504348 
L 231.839502 162.630851 
L 233.07393 163.136357 
L 234.308358 163.496226 
L 238.011642 160.586982 
L 239.24607 155.891103 
L 240.480498 167.965088 
L 241.714926 165.661729 
L 242.949354 162.365994 
L 246.652637 163.388064 
L 247.887065 159.848982 
L 249.121493 159.993305 
L 250.355921 162.378412 
L 251.590349 162.3114 
L 256.528061 173.241746 
L 257.762489 177.273089 
L 258.996917 181.832375 
L 260.231345 192.4098 
L 263.934628 192.8091 
L 265.169056 192.763687 
L 266.403484 193.704988 
L 267.637912 198.169163 
L 268.87234 189.532827 
L 272.575624 181.177998 
L 273.810052 175.511342 
L 275.04448 171.584092 
L 276.278908 200.564316 
L 277.513336 198.560446 
L 281.216619 202.025666 
L 282.451047 199.844845 
L 283.685475 193.666791 
L 284.919903 201.230578 
L 286.154331 211.177864 
L 289.857615 217.432358 
L 291.092043 211.133519 
L 292.326471 213.180127 
L 293.560899 221.484422 
L 294.795327 223.292011 
L 299.733038 228.40616 
L 300.967466 234.154351 
L 302.201894 233.336136 
L 303.436322 223.2867 
L 307.139606 227.010861 
L 308.374034 237.235226 
L 309.608462 225.372184 
L 310.84289 225.409052 
L 312.077318 232.670051 
L 315.780601 251.958293 
L 317.015029 251.23805 
L 318.249457 234.979498 
L 319.483885 240.451126 
L 320.718313 244.404962 
L 324.421597 245.80115 
L 325.656025 237.851 
L 326.890453 227.115049 
L 329.359309 219.781941 
L 333.062592 222.281599 
L 334.29702 215.338096 
L 335.531448 221.686264 
L 336.765876 213.716162 
L 338.000304 208.181136 
L 341.703588 207.926535 
L 342.938016 206.181531 
L 344.172444 206.351745 
L 345.406872 213.736996 
L 346.6413 210.434783 
L 350.344583 209.941658 
L 351.579011 214.959418 
L 352.813439 220.748299 
L 354.047867 220.495 
L 355.282295 220.051912 
L 358.985579 226.173685 
L 360.220007 229.517406 
L 361.454435 226.71623 
L 362.688863 233.081562 
L 367.626574 231.277 
L 368.861002 225.046944 
L 370.09543 230.136111 
L 371.329858 239.166098 
L 372.564286 251.078965 
L 376.26757 250.31528 
L 377.501998 259.116065 
L 378.736426 260.991227 
L 379.970854 242.852435 
L 381.205282 255.334369 
L 384.908566 250.103755 
L 386.142993 247.007847 
L 387.377421 229.055557 
L 388.611849 245.605821 
L 389.846277 243.361401 
L 393.549561 255.061312 
L 394.783989 257.433545 
L 396.018417 264.597081 
L 397.252845 265.797818 
L 398.487273 257.091099 
L 398.487273 257.091099 
" style="fill:none;stroke:#0d0d0d;stroke-linecap:square;stroke-opacity:0.25;stroke-width:2;"/>
   </g>
   <g id="line2d_19">
    <path clip-path="url(#p94f86cbb5a)" d="M 73.832727 150.967239 
L 75.067155 146.978101 
L 76.301583 143.369988 
L 77.536011 145.606461 
L 78.770439 139.033631 
L 82.473723 136.502052 
L 83.708151 134.146268 
L 84.942579 133.596045 
L 86.177007 133.901669 
L 87.411434 133.361744 
L 92.349146 130.819049 
L 93.583574 133.937987 
L 94.818002 134.449896 
L 96.05243 139.077754 
L 99.755714 135.455132 
L 100.990142 139.423396 
L 102.22457 137.539252 
L 103.458998 138.735733 
L 104.693426 145.364876 
L 108.396709 152.284873 
L 109.631137 151.8007 
L 110.865565 147.203683 
L 112.099993 140.068846 
L 113.334421 134.880366 
L 117.037705 132.049437 
L 118.272133 142.340903 
L 119.506561 139.819922 
L 120.740989 144.44141 
L 121.975417 138.70923 
L 125.6787 143.119009 
L 126.913128 136.748168 
L 128.147556 135.4615 
L 130.616412 130.251006 
L 134.319696 132.443376 
L 135.554124 137.354828 
L 136.788552 138.620125 
L 138.02298 123.991289 
L 139.257408 120.284521 
L 142.960691 116.934267 
L 144.195119 110.879757 
L 145.429547 108.560612 
L 146.663975 114.478428 
L 147.898403 115.088159 
L 151.601687 115.617582 
L 152.836115 117.665279 
L 154.070543 118.632124 
L 155.304971 111.173428 
L 156.539399 111.567451 
L 160.242682 110.001512 
L 161.47711 106.065397 
L 162.711538 101.429727 
L 163.945966 101.575633 
L 165.180394 96.910984 
L 168.883678 96.57026 
L 170.118106 99.855643 
L 171.352534 104.277615 
L 172.586962 103.773464 
L 173.82139 100.970552 
L 177.524673 98.266297 
L 178.759101 99.180941 
L 179.993529 99.724625 
L 181.227957 99.975148 
L 182.462385 102.673774 
L 186.165669 97.566725 
L 187.400097 93.436728 
L 188.634525 92.825397 
L 191.103381 106.879845 
L 194.806664 97.317401 
L 196.041092 108.845232 
L 197.27552 115.403547 
L 198.509948 107.917289 
L 199.744376 110.565564 
L 203.44766 101.014599 
L 204.682088 90.041001 
L 205.916516 87.804949 
L 207.150944 88.21909 
L 208.385372 84.479794 
L 212.088655 88.811464 
L 213.323083 88.375247 
L 214.557511 83.372468 
L 215.791939 77.526319 
L 217.026367 85.296238 
L 220.729651 92.39551 
L 221.964079 82.723529 
L 223.198507 77.477065 
L 224.432935 73.23702 
L 229.370646 64.677924 
L 230.605074 67.007807 
L 231.839502 66.928433 
L 233.07393 67.489703 
L 234.308358 67.658199 
L 238.011642 59.477251 
L 239.24607 52.154182 
L 240.480498 64.903127 
L 241.714926 60.597625 
L 242.949354 58.256671 
L 246.652637 58.492741 
L 247.887065 55.730016 
L 249.121493 55.464848 
L 250.355921 54.319838 
L 251.590349 54.115606 
L 256.528061 65.965303 
L 257.762489 69.36754 
L 258.996917 74.86428 
L 260.231345 87.999378 
L 263.934628 89.830219 
L 265.169056 88.19091 
L 266.403484 89.958272 
L 267.637912 93.762519 
L 268.87234 81.374674 
L 272.575624 72.927051 
L 273.810052 66.756486 
L 275.04448 57.243848 
L 276.278908 87.028627 
L 277.513336 86.203831 
L 281.216619 88.010448 
L 282.451047 83.292133 
L 283.685475 75.793247 
L 284.919903 85.319372 
L 286.154331 97.901093 
L 289.857615 102.001277 
L 291.092043 94.7247 
L 292.326471 94.672096 
L 293.560899 108.280689 
L 294.795327 111.606862 
L 299.733038 116.853111 
L 300.967466 125.739893 
L 302.201894 124.451575 
L 303.436322 114.682306 
L 307.139606 117.912166 
L 308.374034 124.182468 
L 309.608462 112.896504 
L 310.84289 116.917313 
L 312.077318 121.744545 
L 315.780601 135.574727 
L 317.015029 139.576594 
L 318.249457 121.825052 
L 320.718313 136.7471 
L 324.421597 136.23759 
L 326.890453 115.366075 
L 328.124881 109.852629 
L 329.359309 100.61931 
L 333.062592 101.835214 
L 334.29702 92.261293 
L 335.531448 100.070228 
L 336.765876 88.145311 
L 338.000304 82.591921 
L 341.703588 80.237793 
L 342.938016 79.628008 
L 344.172444 81.292769 
L 345.406872 91.552412 
L 346.6413 89.072414 
L 350.344583 84.495085 
L 351.579011 88.860244 
L 352.813439 95.517723 
L 354.047867 96.556806 
L 355.282295 96.970422 
L 360.220007 110.293833 
L 361.454435 109.359852 
L 362.688863 117.818544 
L 367.626574 118.335724 
L 368.861002 108.227141 
L 370.09543 101.720412 
L 371.329858 109.102878 
L 372.564286 123.723226 
L 376.26757 120.931326 
L 377.501998 131.283574 
L 378.736426 136.577867 
L 379.970854 111.089654 
L 381.205282 127.70375 
L 384.908566 120.609553 
L 386.142993 116.042827 
L 387.377421 96.412583 
L 388.611849 114.980374 
L 389.846277 113.774728 
L 393.549561 130.512515 
L 394.783989 128.727591 
L 396.018417 138.62463 
L 397.252845 140.89155 
L 398.487273 129.881449 
L 398.487273 129.881449 
" style="fill:none;stroke:#0d0d0d;stroke-linecap:square;stroke-opacity:0.25;stroke-width:2;"/>
   </g>
   <g id="patch_3">
    <path d="M 57.6 276.48 
L 57.6 41.472 
" style="fill:none;stroke:#000000;stroke-linecap:square;stroke-linejoin:miter;stroke-width:0.8;"/>
   </g>
   <g id="patch_4">
    <path d="M 414.72 276.48 
L 414.72 41.472 
" style="fill:none;stroke:#000000;stroke-linecap:square;stroke-linejoin:miter;stroke-width:0.8;"/>
   </g>
   <g id="patch_5">
    <path d="M 57.6 276.48 
L 414.72 276.48 
" style="fill:none;stroke:#000000;stroke-linecap:square;stroke-linejoin:miter;stroke-width:0.8;"/>
   </g>
   <g id="patch_6">
    <path d="M 57.6 41.472 
L 414.72 41.472 
" style="fill:none;stroke:#000000;stroke-linecap:square;stroke-linejoin:miter;stroke-width:0.8;"/>
   </g>
   <g id="text_16">
    <!-- TESTFUNDS0830 -->
    <g transform="translate(185.200312 22.034625)scale(0.12 -0.12)">
     <defs>
      <path d="M -19 4666 
L 3928 4666 
L 3928 4134 
L 2272 4134 
L 2272 0 
L 1638 0 
L 1638 4134 
L -19 4134 
L -19 4666 
z
" id="DejaVuSans-54" transform="scale(0.015625)"/>
      <path d="M 628 4666 
L 3578 4666 
L 3578 4134 
L 1259 4134 
L 1259 2753 
L 3481 2753 
L 3481 2222 
L 1259 2222 
L 1259 531 
L 3634 531 
L 3634 0 
L 628 0 
L 628 4666 
z
" id="DejaVuSans-45" transform="scale(0.015625)"/>
      <path d="M 3425 4513 
L 3425 3897 
Q 3066 4069 2747 4153 
Q 2428 4238 2131 4238 
Q 1616 4238 1336 4038 
Q 1056 3838 1056 3469 
Q 1056 3159 1242 3001 
Q 1428 2844 1947 2747 
L 2328 2669 
Q 3034 2534 3370 2195 
Q 3706 1856 3706 1288 
Q 3706 609 3251 259 
Q 2797 -91 1919 -91 
Q 1588 -91 1214 -16 
Q 841 59 441 206 
L 441 856 
Q 825 641 1194 531 
Q 1563 422 1919 422 
Q 2459 422 2753 634 
Q 3047 847 3047 1241 
Q 3047 1584 2836 1778 
Q 2625 1972 2144 2069 
L 1759 2144 
Q 1053 2284 737 2584 
Q 422 2884 422 3419 
Q 422 4038 858 4394 
Q 1294 4750 2059 4750 
Q 2388 4750 2728 4690 
Q 3069 4631 3425 4513 
z
" id="DejaVuSans-53" transform="scale(0.015625)"/>
      <path d="M 628 4666 
L 3309 4666 
L 3309 4134 
L 1259 4134 
L 1259 2759 
L 3109 2759 
L 3109 2228 
L 1259 2228 
L 1259 0 
L 628 0 
L 628 4666 
z
" id="DejaVuSans-46" transform="scale(0.015625)"/>
      <path d="M 556 4666 
L 1191 4666 
L 1191 1831 
Q 1191 1081 1462 751 
Q 1734 422 2344 422 
Q 2950 422 3222 751 
Q 3494 1081 3494 1831 
L 3494 4666 
L 4128 4666 
L 4128 1753 
Q 4128 841 3676 375 
Q 3225 -91 2344 -91 
Q 1459 -91 1007 375 
Q 556 841 556 1753 
L 556 4666 
z
" id="DejaVuSans-55" transform="scale(0.015625)"/>
      <path d="M 628 4666 
L 1478 4666 
L 3547 763 
L 3547 4666 
L 4159 4666 
L 4159 0 
L 3309 0 
L 1241 3903 
L 1241 0 
L 628 0 
L 628 4666 
z
" id="DejaVuSans-4e" transform="scale(0.015625)"/>
      <path d="M 1259 4147 
L 1259 519 
L 2022 519 
Q 2988 519 3436 956 
Q 3884 1394 3884 2338 
Q 3884 3275 3436 3711 
Q 2988 4147 2022 4147 
L 1259 4147 
z
M 628 4666 
L 1925 4666 
Q 3281 4666 3915 4102 
Q 4550 3538 4550 2338 
Q 4550 1131 3912 565 
Q 3275 0 1925 0 
L 628 0 
L 628 4666 
z
" id="DejaVuSans-44" transform="scale(0.015625)"/>
     </defs>
     <use xlink:href="#DejaVuSans-54"/>
     <use x="61.083984" xlink:href="#DejaVuSans-45"/>
     <use x="124.267578" xlink:href="#DejaVuSans-53"/>
     <use x="187.744141" xlink:href="#DejaVuSans-54"/>
     <use x="248.828125" xlink:href="#DejaVuSans-46"/>
     <use x="306.347656" xlink:href="#DejaVuSans-55"/>
     <use x="379.541016" xlink:href="#DejaVuSans-4e"/>
     <use x="454.345703" xlink:href="#DejaVuSans-44"/>
     <use x="531.347656" xlink:href="#DejaVuSans-53"/>
     <use x="594.824219" xlink:href="#DejaVuSans-30"/>
     <use x="658.447266" xlink:href="#DejaVuSans-38"/>
     <use x="722.070312" xlink:href="#DejaVuSans-33"/>
     <use x="785.693359" xlink:href="#DejaVuSans-30"/>
    </g>
    <!-- daily_report -->
    <g transform="translate(200.466563 35.472)scale(0.12 -0.12)">
     <defs>
      <path d="M 603 3500 
L 1178 3500 
L 1178 0 
L 603 0 
L 603 3500 
z
M 603 4863 
L 1178 4863 
L 1178 4134 
L 603 4134 
L 603 4863 
z
" id="DejaVuSans-69" transform="scale(0.015625)"/>
      <path d="M 603 4863 
L 1178 4863 
L 1178 0 
L 603 0 
L 603 4863 
z
" id="DejaVuSans-6c" transform="scale(0.015625)"/>
      <path d="M 2059 -325 
Q 1816 -950 1584 -1140 
Q 1353 -1331 966 -1331 
L 506 -1331 
L 506 -850 
L 844 -850 
Q 1081 -850 1212 -737 
Q 1344 -625 1503 -206 
L 1606 56 
L 191 3500 
L 800 3500 
L 1894 763 
L 2988 3500 
L 3597 3500 
L 2059 -325 
z
" id="DejaVuSans-79" transform="scale(0.015625)"/>
      <path d="M 3263 -1063 
L 3263 -1509 
L -63 -1509 
L -63 -1063 
L 3263 -1063 
z
" id="DejaVuSans-5f" transform="scale(0.015625)"/>
      <path d="M 2631 2963 
Q 2534 3019 2420 3045 
Q 2306 3072 2169 3072 
Q 1681 3072 1420 2755 
Q 1159 2438 1159 1844 
L 1159 0 
L 581 0 
L 581 3500 
L 1159 3500 
L 1159 2956 
Q 1341 3275 1631 3429 
Q 1922 3584 2338 3584 
Q 2397 3584 2469 3576 
Q 2541 3569 2628 3553 
L 2631 2963 
z
" id="DejaVuSans-72" transform="scale(0.015625)"/>
      <path d="M 1159 525 
L 1159 -1331 
L 581 -1331 
L 581 3500 
L 1159 3500 
L 1159 2969 
Q 1341 3281 1617 3432 
Q 1894 3584 2278 3584 
Q 2916 3584 3314 3078 
Q 3713 2572 3713 1747 
Q 3713 922 3314 415 
Q 2916 -91 2278 -91 
Q 1894 -91 1617 61 
Q 1341 213 1159 525 
z
M 3116 1747 
Q 3116 2381 2855 2742 
Q 2594 3103 2138 3103 
Q 1681 3103 1420 2742 
Q 1159 2381 1159 1747 
Q 1159 1113 1420 752 
Q 1681 391 2138 391 
Q 2594 391 2855 752 
Q 3116 1113 3116 1747 
z
" id="DejaVuSans-70" transform="scale(0.015625)"/>
      <path d="M 1959 3097 
Q 1497 3097 1228 2736 
Q 959 2375 959 1747 
Q 959 1119 1226 758 
Q 1494 397 1959 397 
Q 2419 397 2687 759 
Q 2956 1122 2956 1747 
Q 2956 2369 2687 2733 
Q 2419 3097 1959 3097 
z
M 1959 3584 
Q 2709 3584 3137 3096 
Q 3566 2609 3566 1747 
Q 3566 888 3137 398 
Q 2709 -91 1959 -91 
Q 1206 -91 779 398 
Q 353 888 353 1747 
Q 353 2609 779 3096 
Q 1206 3584 1959 3584 
z
" id="DejaVuSans-6f" transform="scale(0.015625)"/>
     </defs>
     <use xlink:href="#DejaVuSans-64"/>
     <use x="63.476562" xlink:href="#DejaVuSans-61"/>
     <use x="124.755859" xlink:href="#DejaVuSans-69"/>
     <use x="152.539062" xlink:href="#DejaVuSans-6c"/>
     <use x="180.322266" xlink:href="#DejaVuSans-79"/>
     <use x="239.501953" xlink:href="#DejaVuSans-5f"/>
     <use x="289.501953" xlink:href="#DejaVuSans-72"/>
     <use x="328.365234" xlink:href="#DejaVuSans-65"/>
     <use x="389.888672" xlink:href="#DejaVuSans-70"/>
     <use x="453.365234" xlink:href="#DejaVuSans-6f"/>
     <use x="514.546875" xlink:href="#DejaVuSans-72"/>
     <use x="555.660156" xlink:href="#DejaVuSans-74"/>
    </g>
   </g>
   <g id="legend_1">
    <g id="patch_7">
     <path d="M 64.6 271.48 
L 155.792188 271.48 
Q 157.792188 271.48 157.792188 269.48 
L 157.792188 197.089375 
Q 157.792188 195.089375 155.792188 195.089375 
L 64.6 195.089375 
Q 62.6 195.089375 62.6 197.089375 
L 62.6 269.48 
Q 62.6 271.48 64.6 271.48 
z
" style="fill:#ffffff;opacity:0.8;stroke:#cccccc;stroke-linejoin:miter;"/>
    </g>
    <g id="line2d_20">
     <path d="M 66.6 203.187812 
L 86.6 203.187812 
" style="fill:none;stroke:#0000ff;stroke-linecap:square;stroke-opacity:0.9;stroke-width:2;"/>
    </g>
    <g id="line2d_21"/>
    <g id="text_17">
     <!-- alpaca -->
     <g transform="translate(94.6 206.687812)scale(0.1 -0.1)">
      <defs>
       <path d="M 3122 3366 
L 3122 2828 
Q 2878 2963 2633 3030 
Q 2388 3097 2138 3097 
Q 1578 3097 1268 2742 
Q 959 2388 959 1747 
Q 959 1106 1268 751 
Q 1578 397 2138 397 
Q 2388 397 2633 464 
Q 2878 531 3122 666 
L 3122 134 
Q 2881 22 2623 -34 
Q 2366 -91 2075 -91 
Q 1284 -91 818 406 
Q 353 903 353 1747 
Q 353 2603 823 3093 
Q 1294 3584 2113 3584 
Q 2378 3584 2631 3529 
Q 2884 3475 3122 3366 
z
" id="DejaVuSans-63" transform="scale(0.015625)"/>
      </defs>
      <use xlink:href="#DejaVuSans-61"/>
      <use x="61.279297" xlink:href="#DejaVuSans-6c"/>
      <use x="89.0625" xlink:href="#DejaVuSans-70"/>
      <use x="152.539062" xlink:href="#DejaVuSans-61"/>
      <use x="213.818359" xlink:href="#DejaVuSans-63"/>
      <use x="268.798828" xlink:href="#DejaVuSans-61"/>
     </g>
    </g>
    <g id="line2d_22">
     <path d="M 66.6 217.865937 
L 86.6 217.865937 
" style="fill:none;stroke:#ff0000;stroke-linecap:square;stroke-opacity:0.9;stroke-width:2;"/>
    </g>
    <g id="line2d_23"/>
    <g id="text_18">
     <!-- mattress -->
     <g transform="translate(94.6 221.365937)scale(0.1 -0.1)">
      <defs>
       <path d="M 3328 2828 
Q 3544 3216 3844 3400 
Q 4144 3584 4550 3584 
Q 5097 3584 5394 3201 
Q 5691 2819 5691 2113 
L 5691 0 
L 5113 0 
L 5113 2094 
Q 5113 2597 4934 2840 
Q 4756 3084 4391 3084 
Q 3944 3084 3684 2787 
Q 3425 2491 3425 1978 
L 3425 0 
L 2847 0 
L 2847 2094 
Q 2847 2600 2669 2842 
Q 2491 3084 2119 3084 
Q 1678 3084 1418 2786 
Q 1159 2488 1159 1978 
L 1159 0 
L 581 0 
L 581 3500 
L 1159 3500 
L 1159 2956 
Q 1356 3278 1631 3431 
Q 1906 3584 2284 3584 
Q 2666 3584 2933 3390 
Q 3200 3197 3328 2828 
z
" id="DejaVuSans-6d" transform="scale(0.015625)"/>
       <path d="M 2834 3397 
L 2834 2853 
Q 2591 2978 2328 3040 
Q 2066 3103 1784 3103 
Q 1356 3103 1142 2972 
Q 928 2841 928 2578 
Q 928 2378 1081 2264 
Q 1234 2150 1697 2047 
L 1894 2003 
Q 2506 1872 2764 1633 
Q 3022 1394 3022 966 
Q 3022 478 2636 193 
Q 2250 -91 1575 -91 
Q 1294 -91 989 -36 
Q 684 19 347 128 
L 347 722 
Q 666 556 975 473 
Q 1284 391 1588 391 
Q 1994 391 2212 530 
Q 2431 669 2431 922 
Q 2431 1156 2273 1281 
Q 2116 1406 1581 1522 
L 1381 1569 
Q 847 1681 609 1914 
Q 372 2147 372 2553 
Q 372 3047 722 3315 
Q 1072 3584 1716 3584 
Q 2034 3584 2315 3537 
Q 2597 3491 2834 3397 
z
" id="DejaVuSans-73" transform="scale(0.015625)"/>
      </defs>
      <use xlink:href="#DejaVuSans-6d"/>
      <use x="97.412109" xlink:href="#DejaVuSans-61"/>
      <use x="158.691406" xlink:href="#DejaVuSans-74"/>
      <use x="197.900391" xlink:href="#DejaVuSans-74"/>
      <use x="237.109375" xlink:href="#DejaVuSans-72"/>
      <use x="275.972656" xlink:href="#DejaVuSans-65"/>
      <use x="337.496094" xlink:href="#DejaVuSans-73"/>
      <use x="389.595703" xlink:href="#DejaVuSans-73"/>
     </g>
    </g>
    <g id="line2d_24">
     <path d="M 66.6 232.544062 
L 86.6 232.544062 
" style="fill:none;stroke:#ff8040;stroke-linecap:square;stroke-opacity:0.9;stroke-width:2;"/>
    </g>
    <g id="line2d_25"/>
    <g id="text_19">
     <!-- trader-0850 -->
     <g transform="translate(94.6 236.044062)scale(0.1 -0.1)">
      <use xlink:href="#DejaVuSans-74"/>
      <use x="39.208984" xlink:href="#DejaVuSans-72"/>
      <use x="80.322266" xlink:href="#DejaVuSans-61"/>
      <use x="141.601562" xlink:href="#DejaVuSans-64"/>
      <use x="205.078125" xlink:href="#DejaVuSans-65"/>
      <use x="266.601562" xlink:href="#DejaVuSans-72"/>
      <use x="301.339844" xlink:href="#DejaVuSans-2d"/>
      <use x="337.423828" xlink:href="#DejaVuSans-30"/>
      <use x="401.046875" xlink:href="#DejaVuSans-38"/>
      <use x="464.669922" xlink:href="#DejaVuSans-35"/>
      <use x="528.292969" xlink:href="#DejaVuSans-30"/>
     </g>
    </g>
    <g id="line2d_26">
     <path d="M 66.6 247.222187 
L 86.6 247.222187 
" style="fill:none;stroke:#0d0d0d;stroke-linecap:square;stroke-opacity:0.25;stroke-width:2;"/>
    </g>
    <g id="line2d_27"/>
    <g id="text_20">
     <!-- rando-min -->
     <g transform="translate(94.6 250.722187)scale(0.1 -0.1)">
      <defs>
       <path d="M 3513 2113 
L 3513 0 
L 2938 0 
L 2938 2094 
Q 2938 2591 2744 2837 
Q 2550 3084 2163 3084 
Q 1697 3084 1428 2787 
Q 1159 2491 1159 1978 
L 1159 0 
L 581 0 
L 581 3500 
L 1159 3500 
L 1159 2956 
Q 1366 3272 1645 3428 
Q 1925 3584 2291 3584 
Q 2894 3584 3203 3211 
Q 3513 2838 3513 2113 
z
" id="DejaVuSans-6e" transform="scale(0.015625)"/>
      </defs>
      <use xlink:href="#DejaVuSans-72"/>
      <use x="41.113281" xlink:href="#DejaVuSans-61"/>
      <use x="102.392578" xlink:href="#DejaVuSans-6e"/>
      <use x="165.771484" xlink:href="#DejaVuSans-64"/>
      <use x="229.248047" xlink:href="#DejaVuSans-6f"/>
      <use x="292.304688" xlink:href="#DejaVuSans-2d"/>
      <use x="328.388672" xlink:href="#DejaVuSans-6d"/>
      <use x="425.800781" xlink:href="#DejaVuSans-69"/>
      <use x="453.583984" xlink:href="#DejaVuSans-6e"/>
     </g>
    </g>
    <g id="line2d_28">
     <path d="M 66.6 261.900312 
L 86.6 261.900312 
" style="fill:none;stroke:#0d0d0d;stroke-linecap:square;stroke-opacity:0.25;stroke-width:2;"/>
    </g>
    <g id="line2d_29"/>
    <g id="text_21">
     <!-- rando-max -->
     <g transform="translate(94.6 265.400312)scale(0.1 -0.1)">
      <defs>
       <path d="M 3513 3500 
L 2247 1797 
L 3578 0 
L 2900 0 
L 1881 1375 
L 863 0 
L 184 0 
L 1544 1831 
L 300 3500 
L 978 3500 
L 1906 2253 
L 2834 3500 
L 3513 3500 
z
" id="DejaVuSans-78" transform="scale(0.015625)"/>
      </defs>
      <use xlink:href="#DejaVuSans-72"/>
      <use x="41.113281" xlink:href="#DejaVuSans-61"/>
      <use x="102.392578" xlink:href="#DejaVuSans-6e"/>
      <use x="165.771484" xlink:href="#DejaVuSans-64"/>
      <use x="229.248047" xlink:href="#DejaVuSans-6f"/>
      <use x="292.304688" xlink:href="#DejaVuSans-2d"/>
      <use x="328.388672" xlink:href="#DejaVuSans-6d"/>
      <use x="425.800781" xlink:href="#DejaVuSans-61"/>
      <use x="487.080078" xlink:href="#DejaVuSans-78"/>
     </g>
    </g>
   </g>
  </g>
 </g>
 <defs>
  <clipPath id="p94f86cbb5a">
   <rect height="235.008" width="357.12" x="57.6" y="41.472"/>
  </clipPath>
 </defs>
</svg>
