<?xml version="1.0" encoding="utf-8" standalone="no"?>
<!DOCTYPE svg PUBLIC "-//W3C//DTD SVG 1.1//EN"
  "http://www.w3.org/Graphics/SVG/1.1/DTD/svg11.dtd">
<svg height="345.6pt" version="1.1" viewBox="0 0 460.8 345.6" width="460.8pt" xmlns="http://www.w3.org/2000/svg" xmlns:xlink="http://www.w3.org/1999/xlink">
 <metadata>
  <rdf:RDF xmlns:cc="http://creativecommons.org/ns#" xmlns:dc="http://purl.org/dc/elements/1.1/" xmlns:rdf="http://www.w3.org/1999/02/22-rdf-syntax-ns#">
   <cc:Work>
    <dc:type rdf:resource="http://purl.org/dc/dcmitype/StillImage"/>
    <dc:date>2022-04-26T10:02:30.289716</dc:date>
    <dc:format>image/svg+xml</dc:format>
    <dc:creator>
     <cc:Agent>
      <dc:title>Matplotlib v3.4.3, https://matplotlib.org/</dc:title>
     </cc:Agent>
    </dc:creator>
   </cc:Work>
  </rdf:RDF>
 </metadata>
 <defs>
  <style type="text/css">*{stroke-linecap:butt;stroke-linejoin:round;}</style>
 </defs>
 <g id="figure_1">
  <g id="patch_1">
   <path d="M 0 345.6 
L 460.8 345.6 
L 460.8 0 
L 0 0 
z
" style="fill:#ffffff;"/>
  </g>
  <g id="axes_1">
   <g id="patch_2">
    <path d="M 57.6 276.48 
L 414.72 276.48 
L 414.72 41.472 
L 57.6 41.472 
z
" style="fill:#ffffff;"/>
   </g>
   <g id="matplotlib.axis_1">
    <g id="xtick_1">
     <g id="line2d_1">
      <defs>
       <path d="M 0 0 
L 0 3.5 
" id="m89c6b576ff" style="stroke:#000000;stroke-width:0.8;"/>
      </defs>
      <g>
       <use style="stroke:#000000;stroke-width:0.8;" x="100.54481" xlink:href="#m89c6b576ff" y="276.48"/>
      </g>
     </g>
     <g id="text_1">
      <!-- 2021-12 -->
      <g transform="translate(63.319989 310.951846)rotate(-30)scale(0.1 -0.1)">
       <defs>
        <path d="M 1228 531 
L 3431 531 
L 3431 0 
L 469 0 
L 469 531 
Q 828 903 1448 1529 
Q 2069 2156 2228 2338 
Q 2531 2678 2651 2914 
Q 2772 3150 2772 3378 
Q 2772 3750 2511 3984 
Q 2250 4219 1831 4219 
Q 1534 4219 1204 4116 
Q 875 4013 500 3803 
L 500 4441 
Q 881 4594 1212 4672 
Q 1544 4750 1819 4750 
Q 2544 4750 2975 4387 
Q 3406 4025 3406 3419 
Q 3406 3131 3298 2873 
Q 3191 2616 2906 2266 
Q 2828 2175 2409 1742 
Q 1991 1309 1228 531 
z
" id="DejaVuSans-32" transform="scale(0.015625)"/>
        <path d="M 2034 4250 
Q 1547 4250 1301 3770 
Q 1056 3291 1056 2328 
Q 1056 1369 1301 889 
Q 1547 409 2034 409 
Q 2525 409 2770 889 
Q 3016 1369 3016 2328 
Q 3016 3291 2770 3770 
Q 2525 4250 2034 4250 
z
M 2034 4750 
Q 2819 4750 3233 4129 
Q 3647 3509 3647 2328 
Q 3647 1150 3233 529 
Q 2819 -91 2034 -91 
Q 1250 -91 836 529 
Q 422 1150 422 2328 
Q 422 3509 836 4129 
Q 1250 4750 2034 4750 
z
" id="DejaVuSans-30" transform="scale(0.015625)"/>
        <path d="M 794 531 
L 1825 531 
L 1825 4091 
L 703 3866 
L 703 4441 
L 1819 4666 
L 2450 4666 
L 2450 531 
L 3481 531 
L 3481 0 
L 794 0 
L 794 531 
z
" id="DejaVuSans-31" transform="scale(0.015625)"/>
        <path d="M 313 2009 
L 1997 2009 
L 1997 1497 
L 313 1497 
L 313 2009 
z
" id="DejaVuSans-2d" transform="scale(0.015625)"/>
       </defs>
       <use xlink:href="#DejaVuSans-32"/>
       <use x="63.623047" xlink:href="#DejaVuSans-30"/>
       <use x="127.246094" xlink:href="#DejaVuSans-32"/>
       <use x="190.869141" xlink:href="#DejaVuSans-31"/>
       <use x="254.492188" xlink:href="#DejaVuSans-2d"/>
       <use x="290.576172" xlink:href="#DejaVuSans-31"/>
       <use x="354.199219" xlink:href="#DejaVuSans-32"/>
      </g>
     </g>
    </g>
    <g id="xtick_2">
     <g id="line2d_2">
      <g>
       <use style="stroke:#000000;stroke-width:0.8;" x="164.242854" xlink:href="#m89c6b576ff" y="276.48"/>
      </g>
     </g>
     <g id="text_2">
      <!-- 2022-01 -->
      <g transform="translate(127.018033 310.951846)rotate(-30)scale(0.1 -0.1)">
       <use xlink:href="#DejaVuSans-32"/>
       <use x="63.623047" xlink:href="#DejaVuSans-30"/>
       <use x="127.246094" xlink:href="#DejaVuSans-32"/>
       <use x="190.869141" xlink:href="#DejaVuSans-32"/>
       <use x="254.492188" xlink:href="#DejaVuSans-2d"/>
       <use x="290.576172" xlink:href="#DejaVuSans-30"/>
       <use x="354.199219" xlink:href="#DejaVuSans-31"/>
      </g>
     </g>
    </g>
    <g id="xtick_3">
     <g id="line2d_3">
      <g>
       <use style="stroke:#000000;stroke-width:0.8;" x="227.940898" xlink:href="#m89c6b576ff" y="276.48"/>
      </g>
     </g>
     <g id="text_3">
      <!-- 2022-02 -->
      <g transform="translate(190.716077 310.951846)rotate(-30)scale(0.1 -0.1)">
       <use xlink:href="#DejaVuSans-32"/>
       <use x="63.623047" xlink:href="#DejaVuSans-30"/>
       <use x="127.246094" xlink:href="#DejaVuSans-32"/>
       <use x="190.869141" xlink:href="#DejaVuSans-32"/>
       <use x="254.492188" xlink:href="#DejaVuSans-2d"/>
       <use x="290.576172" xlink:href="#DejaVuSans-30"/>
       <use x="354.199219" xlink:href="#DejaVuSans-32"/>
      </g>
     </g>
    </g>
    <g id="xtick_4">
     <g id="line2d_4">
      <g>
       <use style="stroke:#000000;stroke-width:0.8;" x="285.474614" xlink:href="#m89c6b576ff" y="276.48"/>
      </g>
     </g>
     <g id="text_4">
      <!-- 2022-03 -->
      <g transform="translate(248.249794 310.951846)rotate(-30)scale(0.1 -0.1)">
       <defs>
        <path d="M 2597 2516 
Q 3050 2419 3304 2112 
Q 3559 1806 3559 1356 
Q 3559 666 3084 287 
Q 2609 -91 1734 -91 
Q 1441 -91 1130 -33 
Q 819 25 488 141 
L 488 750 
Q 750 597 1062 519 
Q 1375 441 1716 441 
Q 2309 441 2620 675 
Q 2931 909 2931 1356 
Q 2931 1769 2642 2001 
Q 2353 2234 1838 2234 
L 1294 2234 
L 1294 2753 
L 1863 2753 
Q 2328 2753 2575 2939 
Q 2822 3125 2822 3475 
Q 2822 3834 2567 4026 
Q 2313 4219 1838 4219 
Q 1578 4219 1281 4162 
Q 984 4106 628 3988 
L 628 4550 
Q 988 4650 1302 4700 
Q 1616 4750 1894 4750 
Q 2613 4750 3031 4423 
Q 3450 4097 3450 3541 
Q 3450 3153 3228 2886 
Q 3006 2619 2597 2516 
z
" id="DejaVuSans-33" transform="scale(0.015625)"/>
       </defs>
       <use xlink:href="#DejaVuSans-32"/>
       <use x="63.623047" xlink:href="#DejaVuSans-30"/>
       <use x="127.246094" xlink:href="#DejaVuSans-32"/>
       <use x="190.869141" xlink:href="#DejaVuSans-32"/>
       <use x="254.492188" xlink:href="#DejaVuSans-2d"/>
       <use x="290.576172" xlink:href="#DejaVuSans-30"/>
       <use x="354.199219" xlink:href="#DejaVuSans-33"/>
      </g>
     </g>
    </g>
    <g id="xtick_5">
     <g id="line2d_5">
      <g>
       <use style="stroke:#000000;stroke-width:0.8;" x="349.172658" xlink:href="#m89c6b576ff" y="276.48"/>
      </g>
     </g>
     <g id="text_5">
      <!-- 2022-04 -->
      <g transform="translate(311.947837 310.951846)rotate(-30)scale(0.1 -0.1)">
       <defs>
        <path d="M 2419 4116 
L 825 1625 
L 2419 1625 
L 2419 4116 
z
M 2253 4666 
L 3047 4666 
L 3047 1625 
L 3713 1625 
L 3713 1100 
L 3047 1100 
L 3047 0 
L 2419 0 
L 2419 1100 
L 313 1100 
L 313 1709 
L 2253 4666 
z
" id="DejaVuSans-34" transform="scale(0.015625)"/>
       </defs>
       <use xlink:href="#DejaVuSans-32"/>
       <use x="63.623047" xlink:href="#DejaVuSans-30"/>
       <use x="127.246094" xlink:href="#DejaVuSans-32"/>
       <use x="190.869141" xlink:href="#DejaVuSans-32"/>
       <use x="254.492188" xlink:href="#DejaVuSans-2d"/>
       <use x="290.576172" xlink:href="#DejaVuSans-30"/>
       <use x="354.199219" xlink:href="#DejaVuSans-34"/>
      </g>
     </g>
    </g>
    <g id="xtick_6">
     <g id="line2d_6">
      <g>
       <use style="stroke:#000000;stroke-width:0.8;" x="410.815926" xlink:href="#m89c6b576ff" y="276.48"/>
      </g>
     </g>
     <g id="text_6">
      <!-- 2022-05 -->
      <g transform="translate(373.591106 310.951846)rotate(-30)scale(0.1 -0.1)">
       <defs>
        <path d="M 691 4666 
L 3169 4666 
L 3169 4134 
L 1269 4134 
L 1269 2991 
Q 1406 3038 1543 3061 
Q 1681 3084 1819 3084 
Q 2600 3084 3056 2656 
Q 3513 2228 3513 1497 
Q 3513 744 3044 326 
Q 2575 -91 1722 -91 
Q 1428 -91 1123 -41 
Q 819 9 494 109 
L 494 744 
Q 775 591 1075 516 
Q 1375 441 1709 441 
Q 2250 441 2565 725 
Q 2881 1009 2881 1497 
Q 2881 1984 2565 2268 
Q 2250 2553 1709 2553 
Q 1456 2553 1204 2497 
Q 953 2441 691 2322 
L 691 4666 
z
" id="DejaVuSans-35" transform="scale(0.015625)"/>
       </defs>
       <use xlink:href="#DejaVuSans-32"/>
       <use x="63.623047" xlink:href="#DejaVuSans-30"/>
       <use x="127.246094" xlink:href="#DejaVuSans-32"/>
       <use x="190.869141" xlink:href="#DejaVuSans-32"/>
       <use x="254.492188" xlink:href="#DejaVuSans-2d"/>
       <use x="290.576172" xlink:href="#DejaVuSans-30"/>
       <use x="354.199219" xlink:href="#DejaVuSans-35"/>
      </g>
     </g>
    </g>
    <g id="text_7">
     <!-- date -->
     <g transform="translate(224.885 324.351346)scale(0.1 -0.1)">
      <defs>
       <path d="M 2906 2969 
L 2906 4863 
L 3481 4863 
L 3481 0 
L 2906 0 
L 2906 525 
Q 2725 213 2448 61 
Q 2172 -91 1784 -91 
Q 1150 -91 751 415 
Q 353 922 353 1747 
Q 353 2572 751 3078 
Q 1150 3584 1784 3584 
Q 2172 3584 2448 3432 
Q 2725 3281 2906 2969 
z
M 947 1747 
Q 947 1113 1208 752 
Q 1469 391 1925 391 
Q 2381 391 2643 752 
Q 2906 1113 2906 1747 
Q 2906 2381 2643 2742 
Q 2381 3103 1925 3103 
Q 1469 3103 1208 2742 
Q 947 2381 947 1747 
z
" id="DejaVuSans-64" transform="scale(0.015625)"/>
       <path d="M 2194 1759 
Q 1497 1759 1228 1600 
Q 959 1441 959 1056 
Q 959 750 1161 570 
Q 1363 391 1709 391 
Q 2188 391 2477 730 
Q 2766 1069 2766 1631 
L 2766 1759 
L 2194 1759 
z
M 3341 1997 
L 3341 0 
L 2766 0 
L 2766 531 
Q 2569 213 2275 61 
Q 1981 -91 1556 -91 
Q 1019 -91 701 211 
Q 384 513 384 1019 
Q 384 1609 779 1909 
Q 1175 2209 1959 2209 
L 2766 2209 
L 2766 2266 
Q 2766 2663 2505 2880 
Q 2244 3097 1772 3097 
Q 1472 3097 1187 3025 
Q 903 2953 641 2809 
L 641 3341 
Q 956 3463 1253 3523 
Q 1550 3584 1831 3584 
Q 2591 3584 2966 3190 
Q 3341 2797 3341 1997 
z
" id="DejaVuSans-61" transform="scale(0.015625)"/>
       <path d="M 1172 4494 
L 1172 3500 
L 2356 3500 
L 2356 3053 
L 1172 3053 
L 1172 1153 
Q 1172 725 1289 603 
Q 1406 481 1766 481 
L 2356 481 
L 2356 0 
L 1766 0 
Q 1100 0 847 248 
Q 594 497 594 1153 
L 594 3053 
L 172 3053 
L 172 3500 
L 594 3500 
L 594 4494 
L 1172 4494 
z
" id="DejaVuSans-74" transform="scale(0.015625)"/>
       <path d="M 3597 1894 
L 3597 1613 
L 953 1613 
Q 991 1019 1311 708 
Q 1631 397 2203 397 
Q 2534 397 2845 478 
Q 3156 559 3463 722 
L 3463 178 
Q 3153 47 2828 -22 
Q 2503 -91 2169 -91 
Q 1331 -91 842 396 
Q 353 884 353 1716 
Q 353 2575 817 3079 
Q 1281 3584 2069 3584 
Q 2775 3584 3186 3129 
Q 3597 2675 3597 1894 
z
M 3022 2063 
Q 3016 2534 2758 2815 
Q 2500 3097 2075 3097 
Q 1594 3097 1305 2825 
Q 1016 2553 972 2059 
L 3022 2063 
z
" id="DejaVuSans-65" transform="scale(0.015625)"/>
      </defs>
      <use xlink:href="#DejaVuSans-64"/>
      <use x="63.476562" xlink:href="#DejaVuSans-61"/>
      <use x="124.755859" xlink:href="#DejaVuSans-74"/>
      <use x="163.964844" xlink:href="#DejaVuSans-65"/>
     </g>
    </g>
   </g>
   <g id="matplotlib.axis_2">
    <g id="ytick_1">
     <g id="line2d_7">
      <defs>
       <path d="M 0 0 
L -3.5 0 
" id="m2db94cdad2" style="stroke:#000000;stroke-width:0.8;"/>
      </defs>
      <g>
       <use style="stroke:#000000;stroke-width:0.8;" x="57.6" xlink:href="#m2db94cdad2" y="246.48732"/>
      </g>
     </g>
     <g id="text_8">
      <!-- 112000 -->
      <g transform="translate(12.425 250.286539)scale(0.1 -0.1)">
       <use xlink:href="#DejaVuSans-31"/>
       <use x="63.623047" xlink:href="#DejaVuSans-31"/>
       <use x="127.246094" xlink:href="#DejaVuSans-32"/>
       <use x="190.869141" xlink:href="#DejaVuSans-30"/>
       <use x="254.492188" xlink:href="#DejaVuSans-30"/>
       <use x="318.115234" xlink:href="#DejaVuSans-30"/>
      </g>
     </g>
    </g>
    <g id="ytick_2">
     <g id="line2d_8">
      <g>
       <use style="stroke:#000000;stroke-width:0.8;" x="57.6" xlink:href="#m2db94cdad2" y="215.335114"/>
      </g>
     </g>
     <g id="text_9">
      <!-- 114000 -->
      <g transform="translate(12.425 219.134333)scale(0.1 -0.1)">
       <use xlink:href="#DejaVuSans-31"/>
       <use x="63.623047" xlink:href="#DejaVuSans-31"/>
       <use x="127.246094" xlink:href="#DejaVuSans-34"/>
       <use x="190.869141" xlink:href="#DejaVuSans-30"/>
       <use x="254.492188" xlink:href="#DejaVuSans-30"/>
       <use x="318.115234" xlink:href="#DejaVuSans-30"/>
      </g>
     </g>
    </g>
    <g id="ytick_3">
     <g id="line2d_9">
      <g>
       <use style="stroke:#000000;stroke-width:0.8;" x="57.6" xlink:href="#m2db94cdad2" y="184.182908"/>
      </g>
     </g>
     <g id="text_10">
      <!-- 116000 -->
      <g transform="translate(12.425 187.982127)scale(0.1 -0.1)">
       <defs>
        <path d="M 2113 2584 
Q 1688 2584 1439 2293 
Q 1191 2003 1191 1497 
Q 1191 994 1439 701 
Q 1688 409 2113 409 
Q 2538 409 2786 701 
Q 3034 994 3034 1497 
Q 3034 2003 2786 2293 
Q 2538 2584 2113 2584 
z
M 3366 4563 
L 3366 3988 
Q 3128 4100 2886 4159 
Q 2644 4219 2406 4219 
Q 1781 4219 1451 3797 
Q 1122 3375 1075 2522 
Q 1259 2794 1537 2939 
Q 1816 3084 2150 3084 
Q 2853 3084 3261 2657 
Q 3669 2231 3669 1497 
Q 3669 778 3244 343 
Q 2819 -91 2113 -91 
Q 1303 -91 875 529 
Q 447 1150 447 2328 
Q 447 3434 972 4092 
Q 1497 4750 2381 4750 
Q 2619 4750 2861 4703 
Q 3103 4656 3366 4563 
z
" id="DejaVuSans-36" transform="scale(0.015625)"/>
       </defs>
       <use xlink:href="#DejaVuSans-31"/>
       <use x="63.623047" xlink:href="#DejaVuSans-31"/>
       <use x="127.246094" xlink:href="#DejaVuSans-36"/>
       <use x="190.869141" xlink:href="#DejaVuSans-30"/>
       <use x="254.492188" xlink:href="#DejaVuSans-30"/>
       <use x="318.115234" xlink:href="#DejaVuSans-30"/>
      </g>
     </g>
    </g>
    <g id="ytick_4">
     <g id="line2d_10">
      <g>
       <use style="stroke:#000000;stroke-width:0.8;" x="57.6" xlink:href="#m2db94cdad2" y="153.030702"/>
      </g>
     </g>
     <g id="text_11">
      <!-- 118000 -->
      <g transform="translate(12.425 156.829921)scale(0.1 -0.1)">
       <defs>
        <path d="M 2034 2216 
Q 1584 2216 1326 1975 
Q 1069 1734 1069 1313 
Q 1069 891 1326 650 
Q 1584 409 2034 409 
Q 2484 409 2743 651 
Q 3003 894 3003 1313 
Q 3003 1734 2745 1975 
Q 2488 2216 2034 2216 
z
M 1403 2484 
Q 997 2584 770 2862 
Q 544 3141 544 3541 
Q 544 4100 942 4425 
Q 1341 4750 2034 4750 
Q 2731 4750 3128 4425 
Q 3525 4100 3525 3541 
Q 3525 3141 3298 2862 
Q 3072 2584 2669 2484 
Q 3125 2378 3379 2068 
Q 3634 1759 3634 1313 
Q 3634 634 3220 271 
Q 2806 -91 2034 -91 
Q 1263 -91 848 271 
Q 434 634 434 1313 
Q 434 1759 690 2068 
Q 947 2378 1403 2484 
z
M 1172 3481 
Q 1172 3119 1398 2916 
Q 1625 2713 2034 2713 
Q 2441 2713 2670 2916 
Q 2900 3119 2900 3481 
Q 2900 3844 2670 4047 
Q 2441 4250 2034 4250 
Q 1625 4250 1398 4047 
Q 1172 3844 1172 3481 
z
" id="DejaVuSans-38" transform="scale(0.015625)"/>
       </defs>
       <use xlink:href="#DejaVuSans-31"/>
       <use x="63.623047" xlink:href="#DejaVuSans-31"/>
       <use x="127.246094" xlink:href="#DejaVuSans-38"/>
       <use x="190.869141" xlink:href="#DejaVuSans-30"/>
       <use x="254.492188" xlink:href="#DejaVuSans-30"/>
       <use x="318.115234" xlink:href="#DejaVuSans-30"/>
      </g>
     </g>
    </g>
    <g id="ytick_5">
     <g id="line2d_11">
      <g>
       <use style="stroke:#000000;stroke-width:0.8;" x="57.6" xlink:href="#m2db94cdad2" y="121.878496"/>
      </g>
     </g>
     <g id="text_12">
      <!-- 120000 -->
      <g transform="translate(12.425 125.677715)scale(0.1 -0.1)">
       <use xlink:href="#DejaVuSans-31"/>
       <use x="63.623047" xlink:href="#DejaVuSans-32"/>
       <use x="127.246094" xlink:href="#DejaVuSans-30"/>
       <use x="190.869141" xlink:href="#DejaVuSans-30"/>
       <use x="254.492188" xlink:href="#DejaVuSans-30"/>
       <use x="318.115234" xlink:href="#DejaVuSans-30"/>
      </g>
     </g>
    </g>
    <g id="ytick_6">
     <g id="line2d_12">
      <g>
       <use style="stroke:#000000;stroke-width:0.8;" x="57.6" xlink:href="#m2db94cdad2" y="90.72629"/>
      </g>
     </g>
     <g id="text_13">
      <!-- 122000 -->
      <g transform="translate(12.425 94.525509)scale(0.1 -0.1)">
       <use xlink:href="#DejaVuSans-31"/>
       <use x="63.623047" xlink:href="#DejaVuSans-32"/>
       <use x="127.246094" xlink:href="#DejaVuSans-32"/>
       <use x="190.869141" xlink:href="#DejaVuSans-30"/>
       <use x="254.492188" xlink:href="#DejaVuSans-30"/>
       <use x="318.115234" xlink:href="#DejaVuSans-30"/>
      </g>
     </g>
    </g>
    <g id="ytick_7">
     <g id="line2d_13">
      <g>
       <use style="stroke:#000000;stroke-width:0.8;" x="57.6" xlink:href="#m2db94cdad2" y="59.574084"/>
      </g>
     </g>
     <g id="text_14">
      <!-- 124000 -->
      <g transform="translate(12.425 63.373303)scale(0.1 -0.1)">
       <use xlink:href="#DejaVuSans-31"/>
       <use x="63.623047" xlink:href="#DejaVuSans-32"/>
       <use x="127.246094" xlink:href="#DejaVuSans-34"/>
       <use x="190.869141" xlink:href="#DejaVuSans-30"/>
       <use x="254.492188" xlink:href="#DejaVuSans-30"/>
       <use x="318.115234" xlink:href="#DejaVuSans-30"/>
      </g>
     </g>
    </g>
   </g>
   <g id="line2d_14">
    <path clip-path="url(#p6777cae654)" d="M 73.832727 180.28039 
L 75.887503 190.377403 
L 82.05183 184.382053 
L 84.106605 174.218525 
L 86.161381 172.606381 
L 90.270932 172.825068 
L 96.435259 199.534284 
L 98.490035 237.274103 
L 100.54481 254.132755 
L 102.599586 223.440587 
L 104.654361 230.694234 
L 110.818688 206.792486 
L 112.873464 178.406337 
L 114.928239 175.746362 
L 116.983015 183.963654 
L 119.037791 170.399416 
L 125.202117 182.133332 
L 127.256893 189.343078 
L 129.311669 171.343491 
L 131.366444 171.140269 
L 133.42122 196.677367 
L 139.585547 225.311784 
L 141.640322 199.983611 
L 143.695098 184.942967 
L 145.749873 174.369833 
L 153.968976 150.662706 
L 156.023751 147.44104 
L 158.078527 144.217041 
L 160.133303 148.554583 
L 162.188078 145.91054 
L 168.352405 138.175992 
L 170.407181 124.279828 
L 172.461956 143.093526 
L 174.516732 143.638333 
L 176.571507 143.993114 
L 182.735834 150.540769 
L 184.79061 134.525034 
L 186.845386 129.090766 
L 188.900161 143.845564 
L 190.954937 144.552877 
L 199.174039 170.003247 
L 201.228815 183.174777 
L 203.28359 199.964495 
L 205.338366 226.676624 
L 211.502693 224.121959 
L 213.557468 232.834073 
L 215.612244 240.162621 
L 217.66702 243.662714 
L 219.721795 219.140094 
L 225.886122 192.86934 
L 227.940898 178.141555 
L 229.995673 164.698946 
L 232.050449 189.359941 
L 234.105224 186.601469 
L 240.269551 187.463654 
L 242.324327 175.130699 
L 244.379102 156.393957 
L 246.433878 183.122078 
L 248.488654 201.740176 
L 254.65298 213.728166 
L 256.707756 195.096261 
L 258.762532 189.133203 
L 260.817307 214.853067 
L 262.872083 223.365179 
L 271.091185 241.306909 
L 273.145961 265.797818 
L 275.200736 257.823392 
L 277.255512 210.823324 
L 283.419839 212.636938 
L 285.474614 235.145848 
L 287.52939 202.629235 
L 289.584166 202.375293 
L 291.638941 202.266703 
L 297.803268 240.786345 
L 299.858044 253.308628 
L 301.912819 225.071082 
L 303.967595 223.007887 
L 306.022371 240.960449 
L 312.186697 249.502383 
L 314.241473 224.596533 
L 316.296249 198.66342 
L 318.351024 173.892028 
L 320.4058 162.189626 
L 326.570127 160.597353 
L 328.624902 146.80911 
L 330.679678 160.445723 
L 332.734453 140.420862 
L 334.789229 124.169397 
L 340.953556 119.209915 
L 343.008331 102.438706 
L 345.063107 106.85184 
L 347.117883 130.350923 
L 349.172658 122.292506 
L 355.336985 118.453901 
L 357.391761 134.879076 
L 359.446536 139.018433 
L 361.501312 127.721902 
L 363.556087 120.987305 
L 369.720414 146.513264 
L 371.77519 147.558332 
L 373.829965 129.831206 
L 375.884741 141.01708 
L 384.103843 140.968718 
L 386.158619 117.431948 
L 388.213395 108.994381 
L 390.26817 136.315277 
L 392.322946 185.052445 
L 398.487273 195.299457 
" style="fill:none;stroke:#0000ff;stroke-linecap:square;stroke-opacity:0.9;stroke-width:2;"/>
   </g>
   <g id="line2d_15">
    <path clip-path="url(#p6777cae654)" d="M 73.832727 180.28039 
L 75.887503 189.593919 
L 82.05183 183.451041 
L 84.106605 174.345343 
L 86.161381 173.620276 
L 90.270932 213.38101 
L 96.435259 198.40436 
L 98.490035 238.026413 
L 100.54481 253.199184 
L 102.599586 222.806786 
L 104.654361 229.959319 
L 110.818688 206.225977 
L 112.873464 177.677996 
L 114.928239 175.047442 
L 116.983015 183.519465 
L 119.037791 169.164676 
L 125.202117 181.584338 
L 127.256893 189.871236 
L 129.311669 169.945176 
L 131.366444 170.681721 
L 133.42122 196.589813 
L 139.585547 225.668545 
L 141.640322 199.947571 
L 143.695098 185.033403 
L 145.749873 173.726194 
L 153.968976 151.543733 
L 156.023751 146.573001 
L 158.078527 143.855439 
L 160.133303 148.465316 
L 162.188078 145.896222 
L 168.352405 139.233895 
L 170.407181 125.057637 
L 172.461956 142.760657 
L 174.516732 144.738593 
L 176.571507 144.071472 
L 182.735834 151.509547 
L 184.79061 134.29978 
L 186.845386 129.973889 
L 188.900161 142.967151 
L 190.954937 144.373875 
L 199.174039 169.273503 
L 201.228815 181.72687 
L 203.28359 198.032675 
L 205.338366 225.296817 
L 211.502693 221.692235 
L 213.557468 229.822851 
L 215.612244 237.547791 
L 217.66702 239.082055 
L 219.721795 214.667815 
L 225.886122 190.229131 
L 227.940898 175.532317 
L 229.995673 162.100519 
L 232.050449 185.357776 
L 234.105224 183.245166 
L 240.269551 182.901304 
L 242.324327 171.947663 
L 244.379102 153.26659 
L 246.433878 180.345319 
L 248.488654 195.117967 
L 254.65298 209.496918 
L 256.707756 192.912718 
L 258.762532 187.238231 
L 260.817307 211.352026 
L 262.872083 218.075843 
L 271.091185 236.576804 
L 273.145961 260.678604 
L 275.200736 254.167929 
L 277.255512 206.287345 
L 283.419839 207.028453 
L 285.474614 229.012846 
L 287.52939 194.738923 
L 289.584166 194.633551 
L 291.638941 191.162298 
L 297.803268 224.866065 
L 299.858044 237.061968 
L 301.912819 214.857209 
L 303.967595 210.943185 
L 306.022371 228.402464 
L 312.186697 236.240627 
L 314.241473 216.911744 
L 316.296249 193.27566 
L 318.351024 167.667984 
L 320.4058 156.939056 
L 326.570127 154.433239 
L 328.624902 141.61332 
L 330.679678 154.55319 
L 332.734453 134.071479 
L 334.789229 117.112301 
L 340.953556 114.758633 
L 343.008331 98.700178 
L 345.063107 100.838856 
L 347.117883 124.444037 
L 349.172658 115.121253 
L 355.336985 111.926725 
L 357.391761 128.231222 
L 359.446536 130.3528 
L 361.501312 118.013874 
L 363.556087 109.41842 
L 369.720414 137.092964 
L 371.77519 136.089766 
L 373.829965 118.787711 
L 375.884741 127.771255 
L 384.103843 127.290409 
L 386.158619 107.011699 
L 388.213395 96.040799 
L 390.26817 125.959234 
L 392.322946 173.572579 
L 398.487273 178.784547 
" style="fill:none;stroke:#ff0000;stroke-linecap:square;stroke-opacity:0.9;stroke-width:2;"/>
   </g>
   <g id="line2d_16">
    <path clip-path="url(#p6777cae654)" d="M 73.832727 180.28039 
L 75.887503 189.740297 
L 82.05183 184.016732 
L 84.106605 174.170505 
L 86.161381 173.152986 
L 90.270932 214.255128 
L 96.435259 198.671988 
L 98.490035 236.778846 
L 100.54481 252.704199 
L 102.599586 222.417345 
L 104.654361 230.418045 
L 110.818688 205.740123 
L 112.873464 176.423368 
L 114.928239 175.074906 
L 116.983015 182.705278 
L 119.037791 168.62758 
L 125.202117 180.725492 
L 127.256893 189.508136 
L 129.311669 170.422968 
L 131.366444 170.520861 
L 133.42122 196.062779 
L 139.585547 224.626336 
L 141.640322 198.158548 
L 143.695098 182.919793 
L 145.749873 172.108309 
L 153.968976 149.343003 
L 156.023751 145.692061 
L 158.078527 141.587684 
L 160.133303 146.592912 
L 162.188078 145.73165 
L 168.352405 136.909121 
L 170.407181 123.719882 
L 172.461956 141.667414 
L 174.516732 142.134248 
L 176.571507 142.023847 
L 182.735834 148.842261 
L 184.79061 133.936949 
L 186.845386 127.608716 
L 188.900161 142.302494 
L 190.954937 142.09266 
L 199.174039 168.17004 
L 201.228815 181.555617 
L 203.28359 198.760849 
L 205.338366 224.969739 
L 211.502693 222.315252 
L 213.557468 231.653891 
L 215.612244 238.318479 
L 217.66702 242.185735 
L 219.721795 216.339785 
L 225.886122 191.556044 
L 227.940898 176.184308 
L 229.995673 163.623961 
L 232.050449 188.607599 
L 234.105224 185.574635 
L 240.269551 184.934248 
L 242.324327 172.855409 
L 244.379102 153.284815 
L 246.433878 180.538913 
L 248.488654 199.176557 
L 254.65298 211.162574 
L 256.707756 192.603208 
L 258.762532 187.66017 
L 260.817307 212.721955 
L 262.872083 221.14251 
L 271.091185 238.541178 
L 273.145961 263.368012 
L 275.200736 254.086942 
L 277.255512 206.619283 
L 283.419839 207.737607 
L 285.474614 231.728078 
L 287.52939 197.658715 
L 289.584166 198.172583 
L 291.638941 199.131106 
L 297.803268 236.752408 
L 299.858044 250.150469 
L 301.912819 222.012945 
L 303.967595 220.18933 
L 306.022371 237.254215 
L 312.186697 244.504983 
L 314.241473 219.930847 
L 316.296249 193.825669 
L 318.351024 169.499927 
L 320.4058 158.436174 
L 326.570127 157.21521 
L 328.624902 142.959538 
L 330.679678 157.118292 
L 332.734453 136.83561 
L 334.789229 120.230468 
L 340.953556 115.43162 
L 343.008331 98.180377 
L 345.063107 101.991631 
L 347.117883 124.864864 
L 349.172658 118.187553 
L 355.336985 113.13821 
L 357.391761 130.422175 
L 359.446536 134.381033 
L 361.501312 122.3671 
L 363.556087 117.335074 
L 369.720414 142.919619 
L 371.77519 143.172601 
L 373.829965 125.104489 
L 375.884741 137.022045 
L 384.103843 136.593547 
L 386.158619 113.895042 
L 388.213395 104.809629 
L 390.26817 131.940885 
L 392.322946 180.924398 
L 398.487273 181.872685 
" style="fill:none;stroke:#008000;stroke-linecap:square;stroke-opacity:0.9;stroke-width:2;"/>
   </g>
   <g id="line2d_17">
    <path clip-path="url(#p6777cae654)" d="M 73.832727 180.28039 
L 75.887503 190.407372 
L 82.05183 183.357636 
L 84.106605 173.698595 
L 86.161381 173.623923 
L 90.270932 213.580633 
L 96.435259 198.591525 
L 98.490035 237.075955 
L 100.54481 253.134354 
L 102.599586 222.674803 
L 104.654361 230.101295 
L 110.818688 205.57503 
L 112.873464 176.593026 
L 114.928239 174.943215 
L 116.983015 183.793563 
L 119.037791 169.337354 
L 125.202117 181.199547 
L 127.256893 189.803404 
L 129.311669 170.683309 
L 131.366444 170.775452 
L 133.42122 195.764644 
L 139.585547 225.676534 
L 141.640322 199.410564 
L 143.695098 183.59368 
L 145.749873 173.498722 
L 153.968976 149.521467 
L 156.023751 146.434185 
L 158.078527 142.450187 
L 160.133303 148.081307 
L 162.188078 145.554597 
L 168.352405 138.325051 
L 170.407181 123.678531 
L 172.461956 141.641003 
L 174.516732 143.432118 
L 176.571507 143.020768 
L 182.735834 149.865877 
L 184.79061 134.1285 
L 186.845386 127.632376 
L 188.900161 142.457478 
L 190.954937 143.91988 
L 199.174039 169.099397 
L 201.228815 181.790941 
L 203.28359 199.195697 
L 205.338366 225.801168 
L 211.502693 223.332919 
L 213.557468 232.681975 
L 215.612244 239.423808 
L 217.66702 242.892239 
L 219.721795 218.164923 
L 225.886122 191.756805 
L 227.940898 176.574783 
L 229.995673 164.792732 
L 232.050449 189.629436 
L 234.105224 186.798004 
L 240.269551 185.913816 
L 242.324327 174.263523 
L 244.379102 154.656717 
L 246.433878 181.43718 
L 248.488654 199.415502 
L 254.65298 212.945561 
L 256.707756 194.47095 
L 258.762532 188.199755 
L 260.817307 213.138429 
L 262.872083 220.77254 
L 271.091185 240.682882 
L 273.145961 264.272331 
L 275.200736 256.117992 
L 277.255512 209.040856 
L 283.419839 210.744438 
L 285.474614 234.409363 
L 287.52939 200.189728 
L 289.584166 201.382156 
L 291.638941 201.251191 
L 297.803268 238.484455 
L 299.858044 251.677122 
L 301.912819 223.907121 
L 303.967595 222.675495 
L 306.022371 239.192611 
L 312.186697 247.127858 
L 314.241473 222.219723 
L 316.296249 197.262106 
L 318.351024 171.568962 
L 320.4058 160.371839 
L 326.570127 158.369635 
L 328.624902 144.478535 
L 330.679678 158.793769 
L 332.734453 138.216018 
L 334.789229 122.507864 
L 340.953556 118.119008 
L 343.008331 100.14942 
L 345.063107 104.071853 
L 347.117883 128.643475 
L 349.172658 120.342305 
L 355.336985 116.890652 
L 357.391761 132.639493 
L 359.446536 137.94004 
L 361.501312 124.786189 
L 363.556087 119.971001 
L 369.720414 145.098336 
L 371.77519 146.732746 
L 373.829965 127.643007 
L 375.884741 139.174055 
L 384.103843 138.919464 
L 386.158619 116.341663 
L 388.213395 106.397452 
L 390.26817 134.357871 
L 392.322946 182.012413 
L 398.487273 184.821716 
" style="fill:none;stroke:#ec5283;stroke-linecap:square;stroke-width:2;"/>
   </g>
   <g id="line2d_18">
    <path clip-path="url(#p6777cae654)" d="M 73.832727 180.28039 
L 75.887503 190.494802 
L 82.05183 183.353856 
L 84.106605 173.809256 
L 86.161381 172.871444 
L 90.270932 214.198074 
L 96.435259 197.830247 
L 98.490035 236.994201 
L 100.54481 252.904411 
L 102.599586 222.309467 
L 104.654361 229.827363 
L 110.818688 206.414673 
L 112.873464 176.005704 
L 114.928239 175.0079 
L 116.983015 182.404719 
L 119.037791 169.202975 
L 125.202117 181.042092 
L 127.256893 188.932574 
L 129.311669 170.455433 
L 131.366444 170.125249 
L 133.42122 194.937587 
L 139.585547 224.160885 
L 141.640322 199.162922 
L 143.695098 183.142448 
L 145.749873 172.404126 
L 153.968976 149.698032 
L 156.023751 145.758707 
L 158.078527 142.113968 
L 160.133303 146.818767 
L 162.188078 145.553316 
L 168.352405 137.987069 
L 170.407181 124.054913 
L 172.461956 141.688937 
L 174.516732 142.786381 
L 176.571507 141.55835 
L 182.735834 148.774772 
L 184.79061 133.376822 
L 186.845386 127.535697 
L 188.900161 142.53825 
L 190.954937 142.163834 
L 199.174039 168.86834 
L 201.228815 181.99649 
L 203.28359 197.697151 
L 205.338366 224.480582 
L 211.502693 222.375744 
L 213.557468 230.5986 
L 215.612244 238.360707 
L 217.66702 241.355458 
L 219.721795 216.369977 
L 225.886122 190.966144 
L 227.940898 175.726423 
L 229.995673 163.06076 
L 232.050449 187.502908 
L 234.105224 184.778836 
L 240.269551 184.145645 
L 242.324327 173.115365 
L 244.379102 153.184253 
L 246.433878 180.092004 
L 248.488654 199.06234 
L 254.65298 211.948907 
L 256.707756 193.513991 
L 258.762532 186.938372 
L 260.817307 212.344893 
L 262.872083 220.662821 
L 271.091185 239.432033 
L 273.145961 263.827975 
L 275.200736 254.317326 
L 277.255512 207.100508 
L 283.419839 207.787548 
L 285.474614 231.897192 
L 287.52939 197.230417 
L 289.584166 198.125735 
L 291.638941 199.07386 
L 297.803268 236.798032 
L 299.858044 249.173408 
L 301.912819 220.800564 
L 303.967595 219.179594 
L 306.022371 237.325342 
L 312.186697 245.35283 
L 314.241473 219.471382 
L 316.296249 195.062323 
L 318.351024 168.740717 
L 320.4058 157.679947 
L 326.570127 155.90844 
L 328.624902 143.240761 
L 330.679678 156.727955 
L 332.734453 136.520287 
L 334.789229 120.480213 
L 340.953556 114.930063 
L 343.008331 97.868143 
L 345.063107 102.763521 
L 347.117883 125.929496 
L 349.172658 117.199975 
L 355.336985 113.833345 
L 357.391761 130.485006 
L 359.446536 134.794857 
L 361.501312 122.601168 
L 363.556087 117.470927 
L 369.720414 143.401581 
L 371.77519 142.992492 
L 373.829965 124.920473 
L 375.884741 136.829746 
L 384.103843 136.744048 
L 386.158619 113.926349 
L 388.213395 104.420514 
L 390.26817 131.828495 
L 392.322946 179.886437 
L 398.487273 181.705673 
" style="fill:none;stroke:#00ff00;stroke-linecap:square;stroke-opacity:0.9;stroke-width:2;"/>
   </g>
   <g id="line2d_19">
    <path clip-path="url(#p6777cae654)" d="M 73.832727 180.28039 
L 75.887503 192.773184 
L 82.05183 184.160084 
L 84.106605 171.412941 
L 86.161381 171.521383 
L 90.270932 209.197986 
L 96.435259 198.815703 
L 98.490035 240.912477 
L 100.54481 256.149865 
L 102.599586 219.226041 
L 104.654361 220.599679 
L 110.818688 194.608207 
L 112.873464 171.2767 
L 114.928239 167.936473 
L 116.983015 172.456966 
L 119.037791 160.366595 
L 125.202117 173.231786 
L 127.256893 181.41014 
L 129.311669 165.046612 
L 131.366444 165.721048 
L 133.42122 191.485349 
L 139.585547 216.134508 
L 141.640322 182.494714 
L 143.695098 168.643069 
L 145.749873 151.981394 
L 153.968976 129.862981 
L 156.023751 123.379422 
L 158.078527 120.085603 
L 160.133303 126.951459 
L 162.188078 122.982159 
L 168.352405 114.148767 
L 170.407181 90.842117 
L 172.461956 108.46565 
L 174.516732 108.500477 
L 176.571507 108.980423 
L 182.735834 115.944474 
L 184.79061 100.021462 
L 186.845386 92.916527 
L 188.900161 109.967737 
L 190.954937 112.793979 
L 199.174039 141.278399 
L 201.228815 156.982301 
L 203.28359 176.728678 
L 205.338366 207.544659 
L 211.502693 202.092189 
L 213.557468 215.125253 
L 215.612244 222.048431 
L 217.66702 229.527928 
L 219.721795 199.640992 
L 225.886122 168.365208 
L 227.940898 151.989816 
L 229.995673 142.104751 
L 232.050449 172.806628 
L 234.105224 167.040899 
L 240.269551 169.064117 
L 242.324327 151.133785 
L 244.379102 125.609114 
L 246.433878 155.074501 
L 248.488654 180.734794 
L 254.65298 190.452162 
L 256.707756 166.839344 
L 258.762532 161.483291 
L 260.817307 191.672873 
L 262.872083 201.150036 
L 271.091185 220.893364 
L 273.145961 249.305636 
L 275.200736 234.077163 
L 277.255512 187.900928 
L 283.419839 185.319396 
L 285.474614 213.14203 
L 287.52939 177.488774 
L 289.584166 184.226287 
L 291.638941 191.921899 
L 297.803268 246.523769 
L 299.858044 253.383573 
L 301.912819 207.321374 
L 303.967595 208.40785 
L 306.022371 230.835401 
L 312.186697 240.501388 
L 314.241473 202.557001 
L 316.296249 163.854541 
L 318.351024 139.178237 
L 320.4058 121.597879 
L 326.570127 116.881967 
L 328.624902 96.600247 
L 330.679678 113.333784 
L 332.734453 92.879934 
L 334.789229 79.096694 
L 340.953556 69.709501 
L 343.008331 52.154182 
L 345.063107 54.78937 
L 347.117883 78.105914 
L 349.172658 73.925422 
L 355.336985 70.060311 
L 357.391761 88.445095 
L 359.446536 95.402813 
L 361.501312 85.170167 
L 363.556087 87.171451 
L 369.720414 110.380379 
L 371.77519 113.09419 
L 373.829965 90.300367 
L 375.884741 106.265739 
L 384.103843 103.666126 
L 386.158619 77.003489 
L 388.213395 70.112906 
L 390.26817 99.638565 
L 392.322946 148.88484 
L 398.487273 149.763091 
" style="fill:none;stroke:#a5b9cf;stroke-linecap:square;stroke-width:2;"/>
   </g>
   <g id="patch_3">
    <path d="M 57.6 276.48 
L 57.6 41.472 
" style="fill:none;stroke:#000000;stroke-linecap:square;stroke-linejoin:miter;stroke-width:0.8;"/>
   </g>
   <g id="patch_4">
    <path d="M 414.72 276.48 
L 414.72 41.472 
" style="fill:none;stroke:#000000;stroke-linecap:square;stroke-linejoin:miter;stroke-width:0.8;"/>
   </g>
   <g id="patch_5">
    <path d="M 57.6 276.48 
L 414.72 276.48 
" style="fill:none;stroke:#000000;stroke-linecap:square;stroke-linejoin:miter;stroke-width:0.8;"/>
   </g>
   <g id="patch_6">
    <path d="M 57.6 41.472 
L 414.72 41.472 
" style="fill:none;stroke:#000000;stroke-linecap:square;stroke-linejoin:miter;stroke-width:0.8;"/>
   </g>
   <g id="text_15">
    <!-- UNCORRELATED -->
    <g transform="translate(187.044375 22.034625)scale(0.12 -0.12)">
     <defs>
      <path d="M 556 4666 
L 1191 4666 
L 1191 1831 
Q 1191 1081 1462 751 
Q 1734 422 2344 422 
Q 2950 422 3222 751 
Q 3494 1081 3494 1831 
L 3494 4666 
L 4128 4666 
L 4128 1753 
Q 4128 841 3676 375 
Q 3225 -91 2344 -91 
Q 1459 -91 1007 375 
Q 556 841 556 1753 
L 556 4666 
z
" id="DejaVuSans-55" transform="scale(0.015625)"/>
      <path d="M 628 4666 
L 1478 4666 
L 3547 763 
L 3547 4666 
L 4159 4666 
L 4159 0 
L 3309 0 
L 1241 3903 
L 1241 0 
L 628 0 
L 628 4666 
z
" id="DejaVuSans-4e" transform="scale(0.015625)"/>
      <path d="M 4122 4306 
L 4122 3641 
Q 3803 3938 3442 4084 
Q 3081 4231 2675 4231 
Q 1875 4231 1450 3742 
Q 1025 3253 1025 2328 
Q 1025 1406 1450 917 
Q 1875 428 2675 428 
Q 3081 428 3442 575 
Q 3803 722 4122 1019 
L 4122 359 
Q 3791 134 3420 21 
Q 3050 -91 2638 -91 
Q 1578 -91 968 557 
Q 359 1206 359 2328 
Q 359 3453 968 4101 
Q 1578 4750 2638 4750 
Q 3056 4750 3426 4639 
Q 3797 4528 4122 4306 
z
" id="DejaVuSans-43" transform="scale(0.015625)"/>
      <path d="M 2522 4238 
Q 1834 4238 1429 3725 
Q 1025 3213 1025 2328 
Q 1025 1447 1429 934 
Q 1834 422 2522 422 
Q 3209 422 3611 934 
Q 4013 1447 4013 2328 
Q 4013 3213 3611 3725 
Q 3209 4238 2522 4238 
z
M 2522 4750 
Q 3503 4750 4090 4092 
Q 4678 3434 4678 2328 
Q 4678 1225 4090 567 
Q 3503 -91 2522 -91 
Q 1538 -91 948 565 
Q 359 1222 359 2328 
Q 359 3434 948 4092 
Q 1538 4750 2522 4750 
z
" id="DejaVuSans-4f" transform="scale(0.015625)"/>
      <path d="M 2841 2188 
Q 3044 2119 3236 1894 
Q 3428 1669 3622 1275 
L 4263 0 
L 3584 0 
L 2988 1197 
Q 2756 1666 2539 1819 
Q 2322 1972 1947 1972 
L 1259 1972 
L 1259 0 
L 628 0 
L 628 4666 
L 2053 4666 
Q 2853 4666 3247 4331 
Q 3641 3997 3641 3322 
Q 3641 2881 3436 2590 
Q 3231 2300 2841 2188 
z
M 1259 4147 
L 1259 2491 
L 2053 2491 
Q 2509 2491 2742 2702 
Q 2975 2913 2975 3322 
Q 2975 3731 2742 3939 
Q 2509 4147 2053 4147 
L 1259 4147 
z
" id="DejaVuSans-52" transform="scale(0.015625)"/>
      <path d="M 628 4666 
L 3578 4666 
L 3578 4134 
L 1259 4134 
L 1259 2753 
L 3481 2753 
L 3481 2222 
L 1259 2222 
L 1259 531 
L 3634 531 
L 3634 0 
L 628 0 
L 628 4666 
z
" id="DejaVuSans-45" transform="scale(0.015625)"/>
      <path d="M 628 4666 
L 1259 4666 
L 1259 531 
L 3531 531 
L 3531 0 
L 628 0 
L 628 4666 
z
" id="DejaVuSans-4c" transform="scale(0.015625)"/>
      <path d="M 2188 4044 
L 1331 1722 
L 3047 1722 
L 2188 4044 
z
M 1831 4666 
L 2547 4666 
L 4325 0 
L 3669 0 
L 3244 1197 
L 1141 1197 
L 716 0 
L 50 0 
L 1831 4666 
z
" id="DejaVuSans-41" transform="scale(0.015625)"/>
      <path d="M -19 4666 
L 3928 4666 
L 3928 4134 
L 2272 4134 
L 2272 0 
L 1638 0 
L 1638 4134 
L -19 4134 
L -19 4666 
z
" id="DejaVuSans-54" transform="scale(0.015625)"/>
      <path d="M 1259 4147 
L 1259 519 
L 2022 519 
Q 2988 519 3436 956 
Q 3884 1394 3884 2338 
Q 3884 3275 3436 3711 
Q 2988 4147 2022 4147 
L 1259 4147 
z
M 628 4666 
L 1925 4666 
Q 3281 4666 3915 4102 
Q 4550 3538 4550 2338 
Q 4550 1131 3912 565 
Q 3275 0 1925 0 
L 628 0 
L 628 4666 
z
" id="DejaVuSans-44" transform="scale(0.015625)"/>
     </defs>
     <use xlink:href="#DejaVuSans-55"/>
     <use x="73.193359" xlink:href="#DejaVuSans-4e"/>
     <use x="147.998047" xlink:href="#DejaVuSans-43"/>
     <use x="217.822266" xlink:href="#DejaVuSans-4f"/>
     <use x="296.533203" xlink:href="#DejaVuSans-52"/>
     <use x="366.015625" xlink:href="#DejaVuSans-52"/>
     <use x="435.498047" xlink:href="#DejaVuSans-45"/>
     <use x="498.681641" xlink:href="#DejaVuSans-4c"/>
     <use x="556.644531" xlink:href="#DejaVuSans-41"/>
     <use x="617.302734" xlink:href="#DejaVuSans-54"/>
     <use x="678.386719" xlink:href="#DejaVuSans-45"/>
     <use x="741.570312" xlink:href="#DejaVuSans-44"/>
    </g>
    <!-- daily_report -->
    <g transform="translate(200.466563 35.472)scale(0.12 -0.12)">
     <defs>
      <path d="M 603 3500 
L 1178 3500 
L 1178 0 
L 603 0 
L 603 3500 
z
M 603 4863 
L 1178 4863 
L 1178 4134 
L 603 4134 
L 603 4863 
z
" id="DejaVuSans-69" transform="scale(0.015625)"/>
      <path d="M 603 4863 
L 1178 4863 
L 1178 0 
L 603 0 
L 603 4863 
z
" id="DejaVuSans-6c" transform="scale(0.015625)"/>
      <path d="M 2059 -325 
Q 1816 -950 1584 -1140 
Q 1353 -1331 966 -1331 
L 506 -1331 
L 506 -850 
L 844 -850 
Q 1081 -850 1212 -737 
Q 1344 -625 1503 -206 
L 1606 56 
L 191 3500 
L 800 3500 
L 1894 763 
L 2988 3500 
L 3597 3500 
L 2059 -325 
z
" id="DejaVuSans-79" transform="scale(0.015625)"/>
      <path d="M 3263 -1063 
L 3263 -1509 
L -63 -1509 
L -63 -1063 
L 3263 -1063 
z
" id="DejaVuSans-5f" transform="scale(0.015625)"/>
      <path d="M 2631 2963 
Q 2534 3019 2420 3045 
Q 2306 3072 2169 3072 
Q 1681 3072 1420 2755 
Q 1159 2438 1159 1844 
L 1159 0 
L 581 0 
L 581 3500 
L 1159 3500 
L 1159 2956 
Q 1341 3275 1631 3429 
Q 1922 3584 2338 3584 
Q 2397 3584 2469 3576 
Q 2541 3569 2628 3553 
L 2631 2963 
z
" id="DejaVuSans-72" transform="scale(0.015625)"/>
      <path d="M 1159 525 
L 1159 -1331 
L 581 -1331 
L 581 3500 
L 1159 3500 
L 1159 2969 
Q 1341 3281 1617 3432 
Q 1894 3584 2278 3584 
Q 2916 3584 3314 3078 
Q 3713 2572 3713 1747 
Q 3713 922 3314 415 
Q 2916 -91 2278 -91 
Q 1894 -91 1617 61 
Q 1341 213 1159 525 
z
M 3116 1747 
Q 3116 2381 2855 2742 
Q 2594 3103 2138 3103 
Q 1681 3103 1420 2742 
Q 1159 2381 1159 1747 
Q 1159 1113 1420 752 
Q 1681 391 2138 391 
Q 2594 391 2855 752 
Q 3116 1113 3116 1747 
z
" id="DejaVuSans-70" transform="scale(0.015625)"/>
      <path d="M 1959 3097 
Q 1497 3097 1228 2736 
Q 959 2375 959 1747 
Q 959 1119 1226 758 
Q 1494 397 1959 397 
Q 2419 397 2687 759 
Q 2956 1122 2956 1747 
Q 2956 2369 2687 2733 
Q 2419 3097 1959 3097 
z
M 1959 3584 
Q 2709 3584 3137 3096 
Q 3566 2609 3566 1747 
Q 3566 888 3137 398 
Q 2709 -91 1959 -91 
Q 1206 -91 779 398 
Q 353 888 353 1747 
Q 353 2609 779 3096 
Q 1206 3584 1959 3584 
z
" id="DejaVuSans-6f" transform="scale(0.015625)"/>
     </defs>
     <use xlink:href="#DejaVuSans-64"/>
     <use x="63.476562" xlink:href="#DejaVuSans-61"/>
     <use x="124.755859" xlink:href="#DejaVuSans-69"/>
     <use x="152.539062" xlink:href="#DejaVuSans-6c"/>
     <use x="180.322266" xlink:href="#DejaVuSans-79"/>
     <use x="239.501953" xlink:href="#DejaVuSans-5f"/>
     <use x="289.501953" xlink:href="#DejaVuSans-72"/>
     <use x="328.365234" xlink:href="#DejaVuSans-65"/>
     <use x="389.888672" xlink:href="#DejaVuSans-70"/>
     <use x="453.365234" xlink:href="#DejaVuSans-6f"/>
     <use x="514.546875" xlink:href="#DejaVuSans-72"/>
     <use x="555.660156" xlink:href="#DejaVuSans-74"/>
    </g>
   </g>
   <g id="legend_1">
    <g id="patch_7">
     <path d="M 64.6 137.54075 
L 178.64375 137.54075 
Q 180.64375 137.54075 180.64375 135.54075 
L 180.64375 48.472 
Q 180.64375 46.472 178.64375 46.472 
L 64.6 46.472 
Q 62.6 46.472 62.6 48.472 
L 62.6 135.54075 
Q 62.6 137.54075 64.6 137.54075 
z
" style="fill:#ffffff;opacity:0.8;stroke:#cccccc;stroke-linejoin:miter;"/>
    </g>
    <g id="line2d_20">
     <path d="M 66.6 54.570437 
L 86.6 54.570437 
" style="fill:none;stroke:#0000ff;stroke-linecap:square;stroke-opacity:0.9;stroke-width:2;"/>
    </g>
    <g id="line2d_21"/>
    <g id="text_16">
     <!-- alpaca -->
     <g transform="translate(94.6 58.070437)scale(0.1 -0.1)">
      <defs>
       <path d="M 3122 3366 
L 3122 2828 
Q 2878 2963 2633 3030 
Q 2388 3097 2138 3097 
Q 1578 3097 1268 2742 
Q 959 2388 959 1747 
Q 959 1106 1268 751 
Q 1578 397 2138 397 
Q 2388 397 2633 464 
Q 2878 531 3122 666 
L 3122 134 
Q 2881 22 2623 -34 
Q 2366 -91 2075 -91 
Q 1284 -91 818 406 
Q 353 903 353 1747 
Q 353 2603 823 3093 
Q 1294 3584 2113 3584 
Q 2378 3584 2631 3529 
Q 2884 3475 3122 3366 
z
" id="DejaVuSans-63" transform="scale(0.015625)"/>
      </defs>
      <use xlink:href="#DejaVuSans-61"/>
      <use x="61.279297" xlink:href="#DejaVuSans-6c"/>
      <use x="89.0625" xlink:href="#DejaVuSans-70"/>
      <use x="152.539062" xlink:href="#DejaVuSans-61"/>
      <use x="213.818359" xlink:href="#DejaVuSans-63"/>
      <use x="268.798828" xlink:href="#DejaVuSans-61"/>
     </g>
    </g>
    <g id="line2d_22">
     <path d="M 66.6 69.248562 
L 86.6 69.248562 
" style="fill:none;stroke:#ff0000;stroke-linecap:square;stroke-opacity:0.9;stroke-width:2;"/>
    </g>
    <g id="line2d_23"/>
    <g id="text_17">
     <!-- mattress -->
     <g transform="translate(94.6 72.748562)scale(0.1 -0.1)">
      <defs>
       <path d="M 3328 2828 
Q 3544 3216 3844 3400 
Q 4144 3584 4550 3584 
Q 5097 3584 5394 3201 
Q 5691 2819 5691 2113 
L 5691 0 
L 5113 0 
L 5113 2094 
Q 5113 2597 4934 2840 
Q 4756 3084 4391 3084 
Q 3944 3084 3684 2787 
Q 3425 2491 3425 1978 
L 3425 0 
L 2847 0 
L 2847 2094 
Q 2847 2600 2669 2842 
Q 2491 3084 2119 3084 
Q 1678 3084 1418 2786 
Q 1159 2488 1159 1978 
L 1159 0 
L 581 0 
L 581 3500 
L 1159 3500 
L 1159 2956 
Q 1356 3278 1631 3431 
Q 1906 3584 2284 3584 
Q 2666 3584 2933 3390 
Q 3200 3197 3328 2828 
z
" id="DejaVuSans-6d" transform="scale(0.015625)"/>
       <path d="M 2834 3397 
L 2834 2853 
Q 2591 2978 2328 3040 
Q 2066 3103 1784 3103 
Q 1356 3103 1142 2972 
Q 928 2841 928 2578 
Q 928 2378 1081 2264 
Q 1234 2150 1697 2047 
L 1894 2003 
Q 2506 1872 2764 1633 
Q 3022 1394 3022 966 
Q 3022 478 2636 193 
Q 2250 -91 1575 -91 
Q 1294 -91 989 -36 
Q 684 19 347 128 
L 347 722 
Q 666 556 975 473 
Q 1284 391 1588 391 
Q 1994 391 2212 530 
Q 2431 669 2431 922 
Q 2431 1156 2273 1281 
Q 2116 1406 1581 1522 
L 1381 1569 
Q 847 1681 609 1914 
Q 372 2147 372 2553 
Q 372 3047 722 3315 
Q 1072 3584 1716 3584 
Q 2034 3584 2315 3537 
Q 2597 3491 2834 3397 
z
" id="DejaVuSans-73" transform="scale(0.015625)"/>
      </defs>
      <use xlink:href="#DejaVuSans-6d"/>
      <use x="97.412109" xlink:href="#DejaVuSans-61"/>
      <use x="158.691406" xlink:href="#DejaVuSans-74"/>
      <use x="197.900391" xlink:href="#DejaVuSans-74"/>
      <use x="237.109375" xlink:href="#DejaVuSans-72"/>
      <use x="275.972656" xlink:href="#DejaVuSans-65"/>
      <use x="337.496094" xlink:href="#DejaVuSans-73"/>
      <use x="389.595703" xlink:href="#DejaVuSans-73"/>
     </g>
    </g>
    <g id="line2d_24">
     <path d="M 66.6 83.926687 
L 86.6 83.926687 
" style="fill:none;stroke:#008000;stroke-linecap:square;stroke-opacity:0.9;stroke-width:2;"/>
    </g>
    <g id="line2d_25"/>
    <g id="text_18">
     <!-- daily-open-rebal -->
     <g transform="translate(94.6 87.426687)scale(0.1 -0.1)">
      <defs>
       <path d="M 3513 2113 
L 3513 0 
L 2938 0 
L 2938 2094 
Q 2938 2591 2744 2837 
Q 2550 3084 2163 3084 
Q 1697 3084 1428 2787 
Q 1159 2491 1159 1978 
L 1159 0 
L 581 0 
L 581 3500 
L 1159 3500 
L 1159 2956 
Q 1366 3272 1645 3428 
Q 1925 3584 2291 3584 
Q 2894 3584 3203 3211 
Q 3513 2838 3513 2113 
z
" id="DejaVuSans-6e" transform="scale(0.015625)"/>
       <path d="M 3116 1747 
Q 3116 2381 2855 2742 
Q 2594 3103 2138 3103 
Q 1681 3103 1420 2742 
Q 1159 2381 1159 1747 
Q 1159 1113 1420 752 
Q 1681 391 2138 391 
Q 2594 391 2855 752 
Q 3116 1113 3116 1747 
z
M 1159 2969 
Q 1341 3281 1617 3432 
Q 1894 3584 2278 3584 
Q 2916 3584 3314 3078 
Q 3713 2572 3713 1747 
Q 3713 922 3314 415 
Q 2916 -91 2278 -91 
Q 1894 -91 1617 61 
Q 1341 213 1159 525 
L 1159 0 
L 581 0 
L 581 4863 
L 1159 4863 
L 1159 2969 
z
" id="DejaVuSans-62" transform="scale(0.015625)"/>
      </defs>
      <use xlink:href="#DejaVuSans-64"/>
      <use x="63.476562" xlink:href="#DejaVuSans-61"/>
      <use x="124.755859" xlink:href="#DejaVuSans-69"/>
      <use x="152.539062" xlink:href="#DejaVuSans-6c"/>
      <use x="180.322266" xlink:href="#DejaVuSans-79"/>
      <use x="237.751953" xlink:href="#DejaVuSans-2d"/>
      <use x="275.710938" xlink:href="#DejaVuSans-6f"/>
      <use x="336.892578" xlink:href="#DejaVuSans-70"/>
      <use x="400.369141" xlink:href="#DejaVuSans-65"/>
      <use x="461.892578" xlink:href="#DejaVuSans-6e"/>
      <use x="525.271484" xlink:href="#DejaVuSans-2d"/>
      <use x="561.355469" xlink:href="#DejaVuSans-72"/>
      <use x="600.21875" xlink:href="#DejaVuSans-65"/>
      <use x="661.742188" xlink:href="#DejaVuSans-62"/>
      <use x="725.21875" xlink:href="#DejaVuSans-61"/>
      <use x="786.498047" xlink:href="#DejaVuSans-6c"/>
     </g>
    </g>
    <g id="line2d_26">
     <path d="M 66.6 98.604812 
L 86.6 98.604812 
" style="fill:none;stroke:#ec5283;stroke-linecap:square;stroke-width:2;"/>
    </g>
    <g id="line2d_27"/>
    <g id="text_19">
     <!-- daily-close-rebal -->
     <g transform="translate(94.6 102.104812)scale(0.1 -0.1)">
      <use xlink:href="#DejaVuSans-64"/>
      <use x="63.476562" xlink:href="#DejaVuSans-61"/>
      <use x="124.755859" xlink:href="#DejaVuSans-69"/>
      <use x="152.539062" xlink:href="#DejaVuSans-6c"/>
      <use x="180.322266" xlink:href="#DejaVuSans-79"/>
      <use x="237.751953" xlink:href="#DejaVuSans-2d"/>
      <use x="273.835938" xlink:href="#DejaVuSans-63"/>
      <use x="328.816406" xlink:href="#DejaVuSans-6c"/>
      <use x="356.599609" xlink:href="#DejaVuSans-6f"/>
      <use x="417.78125" xlink:href="#DejaVuSans-73"/>
      <use x="469.880859" xlink:href="#DejaVuSans-65"/>
      <use x="531.404297" xlink:href="#DejaVuSans-2d"/>
      <use x="567.488281" xlink:href="#DejaVuSans-72"/>
      <use x="606.351562" xlink:href="#DejaVuSans-65"/>
      <use x="667.875" xlink:href="#DejaVuSans-62"/>
      <use x="731.351562" xlink:href="#DejaVuSans-61"/>
      <use x="792.630859" xlink:href="#DejaVuSans-6c"/>
     </g>
    </g>
    <g id="line2d_28">
     <path d="M 66.6 113.282937 
L 86.6 113.282937 
" style="fill:none;stroke:#00ff00;stroke-linecap:square;stroke-opacity:0.9;stroke-width:2;"/>
    </g>
    <g id="line2d_29"/>
    <g id="text_20">
     <!-- trader-baseline -->
     <g transform="translate(94.6 116.782937)scale(0.1 -0.1)">
      <use xlink:href="#DejaVuSans-74"/>
      <use x="39.208984" xlink:href="#DejaVuSans-72"/>
      <use x="80.322266" xlink:href="#DejaVuSans-61"/>
      <use x="141.601562" xlink:href="#DejaVuSans-64"/>
      <use x="205.078125" xlink:href="#DejaVuSans-65"/>
      <use x="266.601562" xlink:href="#DejaVuSans-72"/>
      <use x="301.339844" xlink:href="#DejaVuSans-2d"/>
      <use x="337.423828" xlink:href="#DejaVuSans-62"/>
      <use x="400.900391" xlink:href="#DejaVuSans-61"/>
      <use x="462.179688" xlink:href="#DejaVuSans-73"/>
      <use x="514.279297" xlink:href="#DejaVuSans-65"/>
      <use x="575.802734" xlink:href="#DejaVuSans-6c"/>
      <use x="603.585938" xlink:href="#DejaVuSans-69"/>
      <use x="631.369141" xlink:href="#DejaVuSans-6e"/>
      <use x="694.748047" xlink:href="#DejaVuSans-65"/>
     </g>
    </g>
    <g id="line2d_30">
     <path d="M 66.6 127.961062 
L 86.6 127.961062 
" style="fill:none;stroke:#a5b9cf;stroke-linecap:square;stroke-width:2;"/>
    </g>
    <g id="line2d_31"/>
    <g id="text_21">
     <!-- default-cfg -->
     <g transform="translate(94.6 131.461062)scale(0.1 -0.1)">
      <defs>
       <path d="M 2375 4863 
L 2375 4384 
L 1825 4384 
Q 1516 4384 1395 4259 
Q 1275 4134 1275 3809 
L 1275 3500 
L 2222 3500 
L 2222 3053 
L 1275 3053 
L 1275 0 
L 697 0 
L 697 3053 
L 147 3053 
L 147 3500 
L 697 3500 
L 697 3744 
Q 697 4328 969 4595 
Q 1241 4863 1831 4863 
L 2375 4863 
z
" id="DejaVuSans-66" transform="scale(0.015625)"/>
       <path d="M 544 1381 
L 544 3500 
L 1119 3500 
L 1119 1403 
Q 1119 906 1312 657 
Q 1506 409 1894 409 
Q 2359 409 2629 706 
Q 2900 1003 2900 1516 
L 2900 3500 
L 3475 3500 
L 3475 0 
L 2900 0 
L 2900 538 
Q 2691 219 2414 64 
Q 2138 -91 1772 -91 
Q 1169 -91 856 284 
Q 544 659 544 1381 
z
M 1991 3584 
L 1991 3584 
z
" id="DejaVuSans-75" transform="scale(0.015625)"/>
       <path d="M 2906 1791 
Q 2906 2416 2648 2759 
Q 2391 3103 1925 3103 
Q 1463 3103 1205 2759 
Q 947 2416 947 1791 
Q 947 1169 1205 825 
Q 1463 481 1925 481 
Q 2391 481 2648 825 
Q 2906 1169 2906 1791 
z
M 3481 434 
Q 3481 -459 3084 -895 
Q 2688 -1331 1869 -1331 
Q 1566 -1331 1297 -1286 
Q 1028 -1241 775 -1147 
L 775 -588 
Q 1028 -725 1275 -790 
Q 1522 -856 1778 -856 
Q 2344 -856 2625 -561 
Q 2906 -266 2906 331 
L 2906 616 
Q 2728 306 2450 153 
Q 2172 0 1784 0 
Q 1141 0 747 490 
Q 353 981 353 1791 
Q 353 2603 747 3093 
Q 1141 3584 1784 3584 
Q 2172 3584 2450 3431 
Q 2728 3278 2906 2969 
L 2906 3500 
L 3481 3500 
L 3481 434 
z
" id="DejaVuSans-67" transform="scale(0.015625)"/>
      </defs>
      <use xlink:href="#DejaVuSans-64"/>
      <use x="63.476562" xlink:href="#DejaVuSans-65"/>
      <use x="125" xlink:href="#DejaVuSans-66"/>
      <use x="160.205078" xlink:href="#DejaVuSans-61"/>
      <use x="221.484375" xlink:href="#DejaVuSans-75"/>
      <use x="284.863281" xlink:href="#DejaVuSans-6c"/>
      <use x="312.646484" xlink:href="#DejaVuSans-74"/>
      <use x="351.855469" xlink:href="#DejaVuSans-2d"/>
      <use x="387.939453" xlink:href="#DejaVuSans-63"/>
      <use x="442.919922" xlink:href="#DejaVuSans-66"/>
      <use x="478.125" xlink:href="#DejaVuSans-67"/>
     </g>
    </g>
   </g>
  </g>
 </g>
 <defs>
  <clipPath id="p6777cae654">
   <rect height="235.008" width="357.12" x="57.6" y="41.472"/>
  </clipPath>
 </defs>
</svg>
