<?xml version="1.0" encoding="utf-8" standalone="no"?>
<!DOCTYPE svg PUBLIC "-//W3C//DTD SVG 1.1//EN"
  "http://www.w3.org/Graphics/SVG/1.1/DTD/svg11.dtd">
<svg height="345.6pt" version="1.1" viewBox="0 0 460.8 345.6" width="460.8pt" xmlns="http://www.w3.org/2000/svg" xmlns:xlink="http://www.w3.org/1999/xlink">
 <metadata>
  <rdf:RDF xmlns:cc="http://creativecommons.org/ns#" xmlns:dc="http://purl.org/dc/elements/1.1/" xmlns:rdf="http://www.w3.org/1999/02/22-rdf-syntax-ns#">
   <cc:Work>
    <dc:type rdf:resource="http://purl.org/dc/dcmitype/StillImage"/>
    <dc:date>2022-02-18T01:01:32.201960</dc:date>
    <dc:format>image/svg+xml</dc:format>
    <dc:creator>
     <cc:Agent>
      <dc:title>Matplotlib v3.4.3, https://matplotlib.org/</dc:title>
     </cc:Agent>
    </dc:creator>
   </cc:Work>
  </rdf:RDF>
 </metadata>
 <defs>
  <style type="text/css">*{stroke-linecap:butt;stroke-linejoin:round;}</style>
 </defs>
 <g id="figure_1">
  <g id="patch_1">
   <path d="M 0 345.6 
L 460.8 345.6 
L 460.8 0 
L 0 0 
z
" style="fill:#ffffff;"/>
  </g>
  <g id="axes_1">
   <g id="patch_2">
    <path d="M 57.6 276.48 
L 414.72 276.48 
L 414.72 41.472 
L 57.6 41.472 
z
" style="fill:#ffffff;"/>
   </g>
   <g id="matplotlib.axis_1">
    <g id="xtick_1">
     <g id="line2d_1">
      <defs>
       <path d="M 0 0 
L 0 3.5 
" id="m83f87c4526" style="stroke:#000000;stroke-width:0.8;"/>
      </defs>
      <g>
       <use style="stroke:#000000;stroke-width:0.8;" x="90.247845" xlink:href="#m83f87c4526" y="276.48"/>
      </g>
     </g>
     <g id="text_1">
      <!-- 2021-09 -->
      <g transform="translate(53.023024 310.951846)rotate(-30)scale(0.1 -0.1)">
       <defs>
        <path d="M 1228 531 
L 3431 531 
L 3431 0 
L 469 0 
L 469 531 
Q 828 903 1448 1529 
Q 2069 2156 2228 2338 
Q 2531 2678 2651 2914 
Q 2772 3150 2772 3378 
Q 2772 3750 2511 3984 
Q 2250 4219 1831 4219 
Q 1534 4219 1204 4116 
Q 875 4013 500 3803 
L 500 4441 
Q 881 4594 1212 4672 
Q 1544 4750 1819 4750 
Q 2544 4750 2975 4387 
Q 3406 4025 3406 3419 
Q 3406 3131 3298 2873 
Q 3191 2616 2906 2266 
Q 2828 2175 2409 1742 
Q 1991 1309 1228 531 
z
" id="DejaVuSans-32" transform="scale(0.015625)"/>
        <path d="M 2034 4250 
Q 1547 4250 1301 3770 
Q 1056 3291 1056 2328 
Q 1056 1369 1301 889 
Q 1547 409 2034 409 
Q 2525 409 2770 889 
Q 3016 1369 3016 2328 
Q 3016 3291 2770 3770 
Q 2525 4250 2034 4250 
z
M 2034 4750 
Q 2819 4750 3233 4129 
Q 3647 3509 3647 2328 
Q 3647 1150 3233 529 
Q 2819 -91 2034 -91 
Q 1250 -91 836 529 
Q 422 1150 422 2328 
Q 422 3509 836 4129 
Q 1250 4750 2034 4750 
z
" id="DejaVuSans-30" transform="scale(0.015625)"/>
        <path d="M 794 531 
L 1825 531 
L 1825 4091 
L 703 3866 
L 703 4441 
L 1819 4666 
L 2450 4666 
L 2450 531 
L 3481 531 
L 3481 0 
L 794 0 
L 794 531 
z
" id="DejaVuSans-31" transform="scale(0.015625)"/>
        <path d="M 313 2009 
L 1997 2009 
L 1997 1497 
L 313 1497 
L 313 2009 
z
" id="DejaVuSans-2d" transform="scale(0.015625)"/>
        <path d="M 703 97 
L 703 672 
Q 941 559 1184 500 
Q 1428 441 1663 441 
Q 2288 441 2617 861 
Q 2947 1281 2994 2138 
Q 2813 1869 2534 1725 
Q 2256 1581 1919 1581 
Q 1219 1581 811 2004 
Q 403 2428 403 3163 
Q 403 3881 828 4315 
Q 1253 4750 1959 4750 
Q 2769 4750 3195 4129 
Q 3622 3509 3622 2328 
Q 3622 1225 3098 567 
Q 2575 -91 1691 -91 
Q 1453 -91 1209 -44 
Q 966 3 703 97 
z
M 1959 2075 
Q 2384 2075 2632 2365 
Q 2881 2656 2881 3163 
Q 2881 3666 2632 3958 
Q 2384 4250 1959 4250 
Q 1534 4250 1286 3958 
Q 1038 3666 1038 3163 
Q 1038 2656 1286 2365 
Q 1534 2075 1959 2075 
z
" id="DejaVuSans-39" transform="scale(0.015625)"/>
       </defs>
       <use xlink:href="#DejaVuSans-32"/>
       <use x="63.623047" xlink:href="#DejaVuSans-30"/>
       <use x="127.246094" xlink:href="#DejaVuSans-32"/>
       <use x="190.869141" xlink:href="#DejaVuSans-31"/>
       <use x="254.492188" xlink:href="#DejaVuSans-2d"/>
       <use x="290.576172" xlink:href="#DejaVuSans-30"/>
       <use x="354.199219" xlink:href="#DejaVuSans-39"/>
      </g>
     </g>
    </g>
    <g id="xtick_2">
     <g id="line2d_2">
      <g>
       <use style="stroke:#000000;stroke-width:0.8;" x="144.964903" xlink:href="#m83f87c4526" y="276.48"/>
      </g>
     </g>
     <g id="text_2">
      <!-- 2021-10 -->
      <g transform="translate(107.740082 310.951846)rotate(-30)scale(0.1 -0.1)">
       <use xlink:href="#DejaVuSans-32"/>
       <use x="63.623047" xlink:href="#DejaVuSans-30"/>
       <use x="127.246094" xlink:href="#DejaVuSans-32"/>
       <use x="190.869141" xlink:href="#DejaVuSans-31"/>
       <use x="254.492188" xlink:href="#DejaVuSans-2d"/>
       <use x="290.576172" xlink:href="#DejaVuSans-31"/>
       <use x="354.199219" xlink:href="#DejaVuSans-30"/>
      </g>
     </g>
    </g>
    <g id="xtick_3">
     <g id="line2d_3">
      <g>
       <use style="stroke:#000000;stroke-width:0.8;" x="201.505863" xlink:href="#m83f87c4526" y="276.48"/>
      </g>
     </g>
     <g id="text_3">
      <!-- 2021-11 -->
      <g transform="translate(164.281042 310.951846)rotate(-30)scale(0.1 -0.1)">
       <use xlink:href="#DejaVuSans-32"/>
       <use x="63.623047" xlink:href="#DejaVuSans-30"/>
       <use x="127.246094" xlink:href="#DejaVuSans-32"/>
       <use x="190.869141" xlink:href="#DejaVuSans-31"/>
       <use x="254.492188" xlink:href="#DejaVuSans-2d"/>
       <use x="290.576172" xlink:href="#DejaVuSans-31"/>
       <use x="354.199219" xlink:href="#DejaVuSans-31"/>
      </g>
     </g>
    </g>
    <g id="xtick_4">
     <g id="line2d_4">
      <g>
       <use style="stroke:#000000;stroke-width:0.8;" x="256.222921" xlink:href="#m83f87c4526" y="276.48"/>
      </g>
     </g>
     <g id="text_4">
      <!-- 2021-12 -->
      <g transform="translate(218.998101 310.951846)rotate(-30)scale(0.1 -0.1)">
       <use xlink:href="#DejaVuSans-32"/>
       <use x="63.623047" xlink:href="#DejaVuSans-30"/>
       <use x="127.246094" xlink:href="#DejaVuSans-32"/>
       <use x="190.869141" xlink:href="#DejaVuSans-31"/>
       <use x="254.492188" xlink:href="#DejaVuSans-2d"/>
       <use x="290.576172" xlink:href="#DejaVuSans-31"/>
       <use x="354.199219" xlink:href="#DejaVuSans-32"/>
      </g>
     </g>
    </g>
    <g id="xtick_5">
     <g id="line2d_5">
      <g>
       <use style="stroke:#000000;stroke-width:0.8;" x="312.763882" xlink:href="#m83f87c4526" y="276.48"/>
      </g>
     </g>
     <g id="text_5">
      <!-- 2022-01 -->
      <g transform="translate(275.539061 310.951846)rotate(-30)scale(0.1 -0.1)">
       <use xlink:href="#DejaVuSans-32"/>
       <use x="63.623047" xlink:href="#DejaVuSans-30"/>
       <use x="127.246094" xlink:href="#DejaVuSans-32"/>
       <use x="190.869141" xlink:href="#DejaVuSans-32"/>
       <use x="254.492188" xlink:href="#DejaVuSans-2d"/>
       <use x="290.576172" xlink:href="#DejaVuSans-30"/>
       <use x="354.199219" xlink:href="#DejaVuSans-31"/>
      </g>
     </g>
    </g>
    <g id="xtick_6">
     <g id="line2d_6">
      <g>
       <use style="stroke:#000000;stroke-width:0.8;" x="369.304842" xlink:href="#m83f87c4526" y="276.48"/>
      </g>
     </g>
     <g id="text_6">
      <!-- 2022-02 -->
      <g transform="translate(332.080021 310.951846)rotate(-30)scale(0.1 -0.1)">
       <use xlink:href="#DejaVuSans-32"/>
       <use x="63.623047" xlink:href="#DejaVuSans-30"/>
       <use x="127.246094" xlink:href="#DejaVuSans-32"/>
       <use x="190.869141" xlink:href="#DejaVuSans-32"/>
       <use x="254.492188" xlink:href="#DejaVuSans-2d"/>
       <use x="290.576172" xlink:href="#DejaVuSans-30"/>
       <use x="354.199219" xlink:href="#DejaVuSans-32"/>
      </g>
     </g>
    </g>
    <g id="text_7">
     <!-- date -->
     <g transform="translate(224.885 324.351346)scale(0.1 -0.1)">
      <defs>
       <path d="M 2906 2969 
L 2906 4863 
L 3481 4863 
L 3481 0 
L 2906 0 
L 2906 525 
Q 2725 213 2448 61 
Q 2172 -91 1784 -91 
Q 1150 -91 751 415 
Q 353 922 353 1747 
Q 353 2572 751 3078 
Q 1150 3584 1784 3584 
Q 2172 3584 2448 3432 
Q 2725 3281 2906 2969 
z
M 947 1747 
Q 947 1113 1208 752 
Q 1469 391 1925 391 
Q 2381 391 2643 752 
Q 2906 1113 2906 1747 
Q 2906 2381 2643 2742 
Q 2381 3103 1925 3103 
Q 1469 3103 1208 2742 
Q 947 2381 947 1747 
z
" id="DejaVuSans-64" transform="scale(0.015625)"/>
       <path d="M 2194 1759 
Q 1497 1759 1228 1600 
Q 959 1441 959 1056 
Q 959 750 1161 570 
Q 1363 391 1709 391 
Q 2188 391 2477 730 
Q 2766 1069 2766 1631 
L 2766 1759 
L 2194 1759 
z
M 3341 1997 
L 3341 0 
L 2766 0 
L 2766 531 
Q 2569 213 2275 61 
Q 1981 -91 1556 -91 
Q 1019 -91 701 211 
Q 384 513 384 1019 
Q 384 1609 779 1909 
Q 1175 2209 1959 2209 
L 2766 2209 
L 2766 2266 
Q 2766 2663 2505 2880 
Q 2244 3097 1772 3097 
Q 1472 3097 1187 3025 
Q 903 2953 641 2809 
L 641 3341 
Q 956 3463 1253 3523 
Q 1550 3584 1831 3584 
Q 2591 3584 2966 3190 
Q 3341 2797 3341 1997 
z
" id="DejaVuSans-61" transform="scale(0.015625)"/>
       <path d="M 1172 4494 
L 1172 3500 
L 2356 3500 
L 2356 3053 
L 1172 3053 
L 1172 1153 
Q 1172 725 1289 603 
Q 1406 481 1766 481 
L 2356 481 
L 2356 0 
L 1766 0 
Q 1100 0 847 248 
Q 594 497 594 1153 
L 594 3053 
L 172 3053 
L 172 3500 
L 594 3500 
L 594 4494 
L 1172 4494 
z
" id="DejaVuSans-74" transform="scale(0.015625)"/>
       <path d="M 3597 1894 
L 3597 1613 
L 953 1613 
Q 991 1019 1311 708 
Q 1631 397 2203 397 
Q 2534 397 2845 478 
Q 3156 559 3463 722 
L 3463 178 
Q 3153 47 2828 -22 
Q 2503 -91 2169 -91 
Q 1331 -91 842 396 
Q 353 884 353 1716 
Q 353 2575 817 3079 
Q 1281 3584 2069 3584 
Q 2775 3584 3186 3129 
Q 3597 2675 3597 1894 
z
M 3022 2063 
Q 3016 2534 2758 2815 
Q 2500 3097 2075 3097 
Q 1594 3097 1305 2825 
Q 1016 2553 972 2059 
L 3022 2063 
z
" id="DejaVuSans-65" transform="scale(0.015625)"/>
      </defs>
      <use xlink:href="#DejaVuSans-64"/>
      <use x="63.476562" xlink:href="#DejaVuSans-61"/>
      <use x="124.755859" xlink:href="#DejaVuSans-74"/>
      <use x="163.964844" xlink:href="#DejaVuSans-65"/>
     </g>
    </g>
   </g>
   <g id="matplotlib.axis_2">
    <g id="ytick_1">
     <g id="line2d_7">
      <defs>
       <path d="M 0 0 
L -3.5 0 
" id="m579d21086d" style="stroke:#000000;stroke-width:0.8;"/>
      </defs>
      <g>
       <use style="stroke:#000000;stroke-width:0.8;" x="57.6" xlink:href="#m579d21086d" y="245.872239"/>
      </g>
     </g>
     <g id="text_8">
      <!-- 90000 -->
      <g transform="translate(18.7875 249.671458)scale(0.1 -0.1)">
       <use xlink:href="#DejaVuSans-39"/>
       <use x="63.623047" xlink:href="#DejaVuSans-30"/>
       <use x="127.246094" xlink:href="#DejaVuSans-30"/>
       <use x="190.869141" xlink:href="#DejaVuSans-30"/>
       <use x="254.492188" xlink:href="#DejaVuSans-30"/>
      </g>
     </g>
    </g>
    <g id="ytick_2">
     <g id="line2d_8">
      <g>
       <use style="stroke:#000000;stroke-width:0.8;" x="57.6" xlink:href="#m579d21086d" y="208.898736"/>
      </g>
     </g>
     <g id="text_9">
      <!-- 95000 -->
      <g transform="translate(18.7875 212.697954)scale(0.1 -0.1)">
       <defs>
        <path d="M 691 4666 
L 3169 4666 
L 3169 4134 
L 1269 4134 
L 1269 2991 
Q 1406 3038 1543 3061 
Q 1681 3084 1819 3084 
Q 2600 3084 3056 2656 
Q 3513 2228 3513 1497 
Q 3513 744 3044 326 
Q 2575 -91 1722 -91 
Q 1428 -91 1123 -41 
Q 819 9 494 109 
L 494 744 
Q 775 591 1075 516 
Q 1375 441 1709 441 
Q 2250 441 2565 725 
Q 2881 1009 2881 1497 
Q 2881 1984 2565 2268 
Q 2250 2553 1709 2553 
Q 1456 2553 1204 2497 
Q 953 2441 691 2322 
L 691 4666 
z
" id="DejaVuSans-35" transform="scale(0.015625)"/>
       </defs>
       <use xlink:href="#DejaVuSans-39"/>
       <use x="63.623047" xlink:href="#DejaVuSans-35"/>
       <use x="127.246094" xlink:href="#DejaVuSans-30"/>
       <use x="190.869141" xlink:href="#DejaVuSans-30"/>
       <use x="254.492188" xlink:href="#DejaVuSans-30"/>
      </g>
     </g>
    </g>
    <g id="ytick_3">
     <g id="line2d_9">
      <g>
       <use style="stroke:#000000;stroke-width:0.8;" x="57.6" xlink:href="#m579d21086d" y="171.925232"/>
      </g>
     </g>
     <g id="text_10">
      <!-- 100000 -->
      <g transform="translate(12.425 175.724451)scale(0.1 -0.1)">
       <use xlink:href="#DejaVuSans-31"/>
       <use x="63.623047" xlink:href="#DejaVuSans-30"/>
       <use x="127.246094" xlink:href="#DejaVuSans-30"/>
       <use x="190.869141" xlink:href="#DejaVuSans-30"/>
       <use x="254.492188" xlink:href="#DejaVuSans-30"/>
       <use x="318.115234" xlink:href="#DejaVuSans-30"/>
      </g>
     </g>
    </g>
    <g id="ytick_4">
     <g id="line2d_10">
      <g>
       <use style="stroke:#000000;stroke-width:0.8;" x="57.6" xlink:href="#m579d21086d" y="134.951728"/>
      </g>
     </g>
     <g id="text_11">
      <!-- 105000 -->
      <g transform="translate(12.425 138.750947)scale(0.1 -0.1)">
       <use xlink:href="#DejaVuSans-31"/>
       <use x="63.623047" xlink:href="#DejaVuSans-30"/>
       <use x="127.246094" xlink:href="#DejaVuSans-35"/>
       <use x="190.869141" xlink:href="#DejaVuSans-30"/>
       <use x="254.492188" xlink:href="#DejaVuSans-30"/>
       <use x="318.115234" xlink:href="#DejaVuSans-30"/>
      </g>
     </g>
    </g>
    <g id="ytick_5">
     <g id="line2d_11">
      <g>
       <use style="stroke:#000000;stroke-width:0.8;" x="57.6" xlink:href="#m579d21086d" y="97.978225"/>
      </g>
     </g>
     <g id="text_12">
      <!-- 110000 -->
      <g transform="translate(12.425 101.777443)scale(0.1 -0.1)">
       <use xlink:href="#DejaVuSans-31"/>
       <use x="63.623047" xlink:href="#DejaVuSans-31"/>
       <use x="127.246094" xlink:href="#DejaVuSans-30"/>
       <use x="190.869141" xlink:href="#DejaVuSans-30"/>
       <use x="254.492188" xlink:href="#DejaVuSans-30"/>
       <use x="318.115234" xlink:href="#DejaVuSans-30"/>
      </g>
     </g>
    </g>
    <g id="ytick_6">
     <g id="line2d_12">
      <g>
       <use style="stroke:#000000;stroke-width:0.8;" x="57.6" xlink:href="#m579d21086d" y="61.004721"/>
      </g>
     </g>
     <g id="text_13">
      <!-- 115000 -->
      <g transform="translate(12.425 64.80394)scale(0.1 -0.1)">
       <use xlink:href="#DejaVuSans-31"/>
       <use x="63.623047" xlink:href="#DejaVuSans-31"/>
       <use x="127.246094" xlink:href="#DejaVuSans-35"/>
       <use x="190.869141" xlink:href="#DejaVuSans-30"/>
       <use x="254.492188" xlink:href="#DejaVuSans-30"/>
       <use x="318.115234" xlink:href="#DejaVuSans-30"/>
      </g>
     </g>
    </g>
   </g>
   <g id="line2d_13">
    <path clip-path="url(#pb97b56eecc)" d="M 73.832727 171.925232 
L 75.656629 169.577403 
L 77.480531 166.937367 
L 79.304433 171.276905 
L 81.128335 164.083422 
L 86.600041 159.840084 
L 88.423943 157.79546 
L 90.247845 159.990232 
L 92.071747 158.898917 
L 93.895649 159.525037 
L 101.191256 159.169081 
L 103.015158 161.415169 
L 104.83906 163.220357 
L 106.662962 169.749299 
L 112.134668 164.249103 
L 113.95857 174.082422 
L 115.782472 169.756834 
L 117.606374 170.586114 
L 119.430276 177.916024 
L 124.901982 190.86476 
L 126.725884 192.408386 
L 128.549785 186.7904 
L 130.373687 175.748477 
L 132.197589 168.912695 
L 137.669295 163.878332 
L 139.493197 180.315943 
L 141.317099 178.260229 
L 143.141001 184.020518 
L 144.964903 173.109659 
L 150.436609 187.456713 
L 152.260511 175.56651 
L 154.084413 173.403576 
L 155.908315 173.304422 
L 157.732217 172.144851 
L 163.203922 171.289849 
L 165.027824 170.896212 
L 166.851726 180.258434 
L 168.675628 165.604617 
L 170.49953 164.149873 
L 175.971236 158.664458 
L 177.795138 151.01234 
L 179.61904 148.227842 
L 181.442942 161.698886 
L 183.266844 172.109131 
L 188.73855 171.10438 
L 190.562451 177.485084 
L 192.386353 180.172428 
L 194.210255 169.898543 
L 196.034157 179.911116 
L 201.505863 164.464068 
L 203.329765 165.03447 
L 205.153667 157.296618 
L 206.977569 166.230094 
L 208.801471 160.857506 
L 214.273177 160.269342 
L 216.097079 169.269875 
L 217.920981 169.444538 
L 219.744883 175.660666 
L 221.568784 169.603732 
L 227.04049 167.179138 
L 228.864392 167.044931 
L 230.688294 171.767578 
L 232.512196 172.900667 
L 234.336098 173.672812 
L 239.807804 169.528777 
L 241.631706 163.926151 
L 243.455608 163.785868 
L 247.103412 164.051963 
L 252.575117 170.910834 
L 254.399019 185.213637 
L 256.222921 195.788761 
L 258.046823 186.708628 
L 259.870725 191.010441 
L 265.342431 177.684963 
L 267.166333 164.973228 
L 268.990235 158.94537 
L 270.814137 158.906597 
L 272.638039 156.110897 
L 278.109745 163.473001 
L 279.933647 160.48991 
L 281.757549 156.237503 
L 283.58145 152.521013 
L 285.405352 160.416517 
L 290.877058 170.821481 
L 292.70096 153.024221 
L 294.524862 150.263321 
L 296.348764 143.092599 
L 303.644372 133.336001 
L 305.468274 133.71227 
L 307.292176 134.236389 
L 309.116078 135.152361 
L 310.93998 138.87848 
L 316.411685 126.738106 
L 318.235587 118.129879 
L 320.059489 138.660599 
L 321.883391 132.168336 
L 323.707293 130.196548 
L 329.178999 129.705095 
L 331.002901 122.801972 
L 332.826803 121.230093 
L 334.650705 131.10522 
L 336.474607 128.835478 
L 343.770215 145.542259 
L 345.594116 150.161807 
L 347.418018 158.606492 
L 349.24192 176.343593 
L 354.713626 175.296013 
L 356.537528 183.801137 
L 358.36143 183.78659 
L 360.185332 189.220775 
L 362.009234 169.829958 
L 367.48094 154.455806 
L 369.304842 147.455092 
L 371.128744 133.789957 
L 372.952646 183.095992 
L 374.776547 181.41205 
L 380.248253 194.448897 
L 382.072155 195.901107 
L 383.896057 180.616082 
L 385.719959 193.275153 
L 387.543861 209.590259 
L 393.015567 214.59605 
L 394.839469 205.801072 
L 396.663371 209.658404 
L 398.487273 222.444093 
" style="fill:none;stroke:#0000ff;stroke-linecap:square;stroke-opacity:0.9;stroke-width:2;"/>
   </g>
   <g id="line2d_14">
    <path clip-path="url(#pb97b56eecc)" d="M 73.832727 171.925232 
L 75.656629 168.056186 
L 77.480531 164.533905 
L 79.304433 169.44736 
L 81.128335 160.001302 
L 86.600041 157.427097 
L 88.423943 156.453615 
L 90.247845 156.839134 
L 92.071747 157.949735 
L 93.895649 157.119958 
L 101.191256 156.423638 
L 103.015158 159.374338 
L 104.83906 160.739598 
L 106.662962 168.751602 
L 112.134668 162.924683 
L 113.95857 170.203239 
L 115.782472 166.740463 
L 117.606374 168.908618 
L 119.430276 177.904094 
L 124.901982 190.153683 
L 126.725884 190.101079 
L 128.549785 186.293142 
L 130.373687 176.462871 
L 132.197589 171.179336 
L 137.669295 166.621108 
L 139.493197 181.576194 
L 141.317099 180.113452 
L 143.141001 187.09089 
L 144.964903 176.429761 
L 150.436609 184.586581 
L 152.260511 174.024106 
L 154.084413 172.080217 
L 155.908315 170.233275 
L 157.732217 166.646707 
L 163.203922 171.133008 
L 165.027824 176.547892 
L 166.851726 178.956641 
L 168.675628 161.168561 
L 170.49953 155.73915 
L 175.971236 153.72306 
L 177.795138 147.611372 
L 179.61904 143.402413 
L 181.442942 153.608595 
L 183.266844 157.077391 
L 188.73855 159.084848 
L 190.562451 163.179961 
L 192.386353 167.299363 
L 194.210255 156.766337 
L 196.034157 155.867471 
L 201.505863 155.029813 
L 203.329765 152.950705 
L 205.153667 146.901708 
L 206.977569 148.335409 
L 208.801471 148.213954 
L 214.273177 147.733185 
L 216.097079 153.01036 
L 217.920981 157.482971 
L 219.744883 156.756397 
L 221.568784 151.970131 
L 227.04049 150.153487 
L 228.864392 152.349641 
L 230.688294 152.355054 
L 232.512196 152.739276 
L 234.336098 155.653541 
L 239.807804 152.415227 
L 241.631706 144.817218 
L 243.455608 144.357849 
L 247.103412 164.080796 
L 252.575117 155.73029 
L 254.399019 171.656058 
L 256.222921 180.778248 
L 258.046823 170.664651 
L 259.870725 176.37506 
L 265.342431 165.344605 
L 267.166333 152.48384 
L 268.990235 148.04875 
L 270.814137 148.286179 
L 272.638039 143.875869 
L 278.109745 151.73362 
L 279.933647 151.202359 
L 281.757549 145.467712 
L 283.58145 144.490442 
L 285.405352 154.533984 
L 290.877058 163.119934 
L 292.70096 149.379222 
L 294.524862 144.638305 
L 296.348764 137.92033 
L 303.644372 128.065518 
L 305.468274 128.678468 
L 307.292176 127.99092 
L 309.116078 129.436971 
L 310.93998 132.136235 
L 316.411685 123.615086 
L 318.235587 116.369879 
L 320.059489 133.18513 
L 321.883391 129.821942 
L 323.707293 126.445295 
L 329.178999 126.88334 
L 331.002901 122.319352 
L 332.826803 122.23071 
L 334.650705 127.851699 
L 336.474607 128.692822 
L 343.770215 145.789957 
L 345.594116 152.516333 
L 347.418018 160.223873 
L 349.24192 175.98383 
L 354.713626 176.620768 
L 356.537528 174.95915 
L 358.36143 176.073746 
L 360.185332 182.282061 
L 362.009234 164.991726 
L 367.48094 152.823178 
L 369.304842 144.055432 
L 371.128744 132.204881 
L 372.952646 166.327716 
L 374.776547 160.808093 
L 380.248253 165.49662 
L 382.072155 160.752058 
L 383.896057 153.438777 
L 385.719959 165.813754 
L 387.543861 181.688141 
L 393.015567 188.07924 
L 394.839469 179.541392 
L 396.663371 181.783376 
L 398.487273 195.389266 
" style="fill:none;stroke:#ff0000;stroke-linecap:square;stroke-opacity:0.9;stroke-width:2;"/>
   </g>
   <g id="line2d_15">
    <path clip-path="url(#pb97b56eecc)" d="M 73.832727 171.925232 
L 75.656629 168.254603 
L 77.480531 165.65405 
L 79.304433 169.501874 
L 81.128335 162.17108 
L 86.600041 157.816202 
L 88.423943 155.618413 
L 90.247845 158.205276 
L 92.071747 157.168789 
L 93.895649 157.188921 
L 101.191256 157.569198 
L 103.015158 159.104163 
L 104.83906 160.800534 
L 106.662962 167.636488 
L 112.134668 161.5861 
L 113.95857 171.572971 
L 115.782472 166.227731 
L 117.606374 167.556763 
L 119.430276 174.019682 
L 124.901982 186.91947 
L 126.725884 188.38804 
L 128.549785 182.973151 
L 130.373687 171.233029 
L 132.197589 164.863759 
L 137.669295 159.358424 
L 139.493197 175.162853 
L 141.317099 173.266148 
L 143.141001 178.962968 
L 144.964903 168.104955 
L 150.436609 181.94282 
L 152.260511 170.562958 
L 154.084413 167.948769 
L 155.908315 166.404506 
L 157.732217 163.582049 
L 163.203922 167.377113 
L 165.027824 173.155194 
L 166.851726 174.294646 
L 168.675628 160.203045 
L 170.49953 158.778829 
L 175.971236 152.983868 
L 177.795138 144.977353 
L 179.61904 142.65827 
L 181.442942 155.77658 
L 183.266844 165.686202 
L 188.73855 165.193322 
L 190.562451 172.114468 
L 192.386353 174.309806 
L 194.210255 164.453379 
L 196.034157 162.57039 
L 201.505863 158.50454 
L 203.329765 157.033916 
L 205.153667 150.937426 
L 206.977569 150.562616 
L 208.801471 144.452139 
L 214.273177 143.708414 
L 216.097079 152.956096 
L 217.920981 158.98403 
L 219.744883 159.123241 
L 221.568784 153.190283 
L 227.04049 151.009663 
L 228.864392 155.024803 
L 230.688294 155.497652 
L 232.512196 156.886408 
L 234.336098 157.497626 
L 239.807804 153.113284 
L 241.631706 146.680465 
L 243.455608 147.428651 
L 247.103412 163.193696 
L 252.575117 154.047096 
L 254.399019 168.689444 
L 256.222921 179.340449 
L 258.046823 169.805249 
L 259.870725 175.021944 
L 265.342431 160.764834 
L 267.166333 147.766414 
L 268.990235 142.142768 
L 270.814137 140.99657 
L 272.638039 139.065991 
L 278.109745 146.280345 
L 279.933647 142.804188 
L 281.757549 138.177315 
L 283.58145 134.837162 
L 285.405352 143.097345 
L 290.877058 153.405755 
L 292.70096 135.216425 
L 294.524862 131.992606 
L 296.348764 124.985688 
L 303.644372 115.129195 
L 305.468274 115.4787 
L 307.292176 115.612062 
L 309.116078 116.84851 
L 310.93998 120.351209 
L 316.411685 108.178757 
L 318.235587 98.154643 
L 320.059489 120.010045 
L 321.883391 112.97421 
L 323.707293 110.654558 
L 329.178999 110.220016 
L 331.002901 103.199695 
L 332.826803 101.777959 
L 334.650705 111.220931 
L 336.474607 108.985189 
L 343.770215 125.954134 
L 345.594116 131.434432 
L 347.418018 140.124213 
L 349.24192 157.705705 
L 354.713626 156.750189 
L 356.537528 165.415885 
L 358.36143 165.541497 
L 360.185332 170.72886 
L 362.009234 151.757657 
L 367.48094 134.678135 
L 369.304842 127.778392 
L 371.128744 113.768363 
L 372.952646 163.667943 
L 374.776547 162.443992 
L 380.248253 175.219023 
L 382.072155 176.909655 
L 383.896057 161.003078 
L 385.719959 174.087054 
L 387.543861 190.968212 
L 393.015567 195.507803 
L 394.839469 186.875693 
L 396.663371 190.806096 
L 398.487273 204.24967 
" style="fill:none;stroke:#ff8040;stroke-linecap:square;stroke-opacity:0.9;stroke-width:2;"/>
   </g>
   <g id="line2d_16">
    <path clip-path="url(#pb97b56eecc)" d="M 73.832727 172.664702 
L 75.656629 170.651027 
L 77.480531 169.150439 
L 79.304433 174.243807 
L 81.128335 166.532168 
L 86.600041 169.919684 
L 88.423943 169.810008 
L 90.247845 170.207446 
L 92.071747 170.366489 
L 93.895649 169.972932 
L 101.191256 168.811869 
L 103.015158 173.086398 
L 104.83906 174.45353 
L 106.662962 182.475381 
L 112.134668 174.825908 
L 113.95857 183.136779 
L 115.782472 179.280325 
L 117.606374 181.242448 
L 119.430276 192.015702 
L 124.901982 202.366389 
L 126.725884 202.496111 
L 128.549785 204.936088 
L 130.373687 196.46842 
L 132.197589 192.616951 
L 137.669295 189.911023 
L 139.493197 204.788149 
L 141.317099 202.423871 
L 143.141001 209.683479 
L 144.964903 197.296162 
L 150.436609 207.032165 
L 152.260511 195.345844 
L 154.084413 192.847864 
L 155.908315 194.198633 
L 157.732217 191.22081 
L 163.203922 195.61666 
L 165.027824 200.678321 
L 166.851726 201.792569 
L 168.675628 184.27893 
L 170.49953 181.428419 
L 175.971236 177.466094 
L 177.795138 172.361673 
L 179.61904 168.679639 
L 181.442942 186.403557 
L 183.266844 190.372652 
L 188.73855 192.012218 
L 190.562451 199.679945 
L 192.386353 206.309357 
L 194.210255 195.159116 
L 196.034157 193.663121 
L 201.505863 194.436287 
L 203.329765 190.283491 
L 205.153667 183.13292 
L 206.977569 185.145568 
L 208.801471 185.560128 
L 214.273177 185.372883 
L 216.097079 192.383026 
L 217.920981 193.041786 
L 219.744883 191.859989 
L 221.568784 191.117667 
L 227.04049 189.417497 
L 228.864392 190.439259 
L 230.688294 192.593077 
L 232.512196 195.17541 
L 234.336098 196.668632 
L 239.807804 194.075107 
L 241.631706 187.83011 
L 243.455608 187.949561 
L 247.103412 206.626636 
L 252.575117 200.853168 
L 254.399019 212.302857 
L 256.222921 221.280282 
L 258.046823 210.922518 
L 259.870725 218.73489 
L 265.342431 206.582029 
L 267.166333 195.040785 
L 268.990235 192.817514 
L 270.814137 193.401928 
L 272.638039 189.946221 
L 278.109745 196.893564 
L 279.933647 196.632195 
L 281.757549 193.884993 
L 283.58145 193.787441 
L 285.405352 202.831147 
L 290.877058 209.569733 
L 292.70096 196.959058 
L 294.524862 192.626623 
L 296.348764 184.912191 
L 303.644372 175.99826 
L 305.468274 176.999622 
L 307.292176 177.965296 
L 309.116078 179.882713 
L 310.93998 181.395219 
L 316.411685 174.319589 
L 318.235587 168.582293 
L 320.059489 187.138125 
L 321.883391 186.774448 
L 323.707293 183.325467 
L 329.178999 184.836956 
L 331.002901 180.333197 
L 332.826803 178.406397 
L 334.650705 187.062342 
L 336.474607 188.565829 
L 343.770215 206.334199 
L 345.594116 212.424942 
L 347.418018 220.391839 
L 349.24192 233.116991 
L 354.713626 234.81419 
L 356.537528 237.162116 
L 358.36143 240.246605 
L 360.185332 243.870511 
L 362.009234 226.971469 
L 367.48094 214.407994 
L 369.304842 203.640158 
L 371.128744 194.059147 
L 372.952646 222.66342 
L 374.776547 214.455968 
L 380.248253 223.946455 
L 382.072155 220.784733 
L 383.896057 217.975108 
L 385.719959 232.564988 
L 387.543861 249.862835 
L 393.015567 258.050275 
L 394.839469 252.144444 
L 396.663371 255.014906 
L 398.487273 265.797818 
" style="fill:none;stroke:#0d0d0d;stroke-linecap:square;stroke-opacity:0.25;stroke-width:2;"/>
   </g>
   <g id="line2d_17">
    <path clip-path="url(#pb97b56eecc)" d="M 73.832727 171.185762 
L 75.656629 165.396162 
L 77.480531 160.439204 
L 79.304433 164.507343 
L 81.128335 154.141042 
L 86.600041 148.656729 
L 88.423943 148.15188 
L 90.247845 149.550905 
L 92.071747 148.046949 
L 93.895649 148.383052 
L 101.191256 144.61302 
L 103.015158 145.157298 
L 104.83906 146.003675 
L 106.662962 155.41951 
L 112.134668 149.125849 
L 113.95857 155.269534 
L 115.782472 150.781601 
L 117.606374 150.167035 
L 119.430276 161.344647 
L 124.901982 171.216673 
L 126.725884 171.180674 
L 128.549785 164.152585 
L 130.373687 152.75594 
L 132.197589 146.511374 
L 137.669295 133.543375 
L 139.493197 147.655467 
L 141.317099 144.287345 
L 143.141001 151.583561 
L 144.964903 142.396183 
L 150.436609 154.713722 
L 152.260511 140.62859 
L 154.084413 137.381665 
L 155.908315 135.186415 
L 157.732217 132.180587 
L 163.203922 136.627484 
L 165.027824 142.397275 
L 166.851726 144.796201 
L 168.675628 123.791982 
L 170.49953 117.838231 
L 175.971236 113.627161 
L 177.795138 107.119877 
L 179.61904 101.916718 
L 181.442942 101.904975 
L 183.266844 109.902773 
L 188.73855 113.267221 
L 190.562451 119.149741 
L 192.386353 124.896627 
L 194.210255 113.437439 
L 196.034157 109.867854 
L 201.505863 105.829239 
L 203.329765 102.958617 
L 205.153667 97.555481 
L 206.977569 96.127251 
L 208.801471 92.874906 
L 214.273177 94.329145 
L 216.097079 99.995764 
L 217.920981 105.017448 
L 219.744883 104.076281 
L 221.568784 100.87349 
L 227.04049 100.560142 
L 228.864392 103.998571 
L 230.688294 107.760254 
L 232.512196 103.997445 
L 234.336098 104.672356 
L 239.807804 102.317986 
L 241.631706 96.914116 
L 243.455608 93.365092 
L 247.103412 116.386957 
L 252.575117 103.134761 
L 254.399019 117.251124 
L 256.222921 127.235155 
L 258.046823 116.460142 
L 259.870725 121.557033 
L 265.342431 109.241899 
L 267.166333 97.81502 
L 268.990235 94.535665 
L 270.814137 94.322312 
L 272.638039 88.44456 
L 278.109745 97.960883 
L 279.933647 98.21823 
L 281.757549 90.515742 
L 283.58145 82.17748 
L 285.405352 91.621755 
L 290.877058 101.704764 
L 292.70096 86.462391 
L 294.524862 85.290205 
L 296.348764 78.678645 
L 303.644372 67.266467 
L 305.468274 71.00667 
L 307.292176 70.078118 
L 309.116078 70.059779 
L 310.93998 72.708442 
L 316.411685 63.155185 
L 318.235587 52.154182 
L 320.059489 70.484899 
L 321.883391 67.805374 
L 323.707293 63.541764 
L 329.178999 65.122161 
L 331.002901 61.146782 
L 332.826803 60.066083 
L 334.650705 68.16026 
L 336.474607 68.367919 
L 343.770215 87.143454 
L 345.594116 95.05927 
L 347.418018 103.510897 
L 349.24192 119.960664 
L 354.713626 118.458498 
L 356.537528 120.141023 
L 358.36143 121.599632 
L 360.185332 127.935275 
L 362.009234 106.799639 
L 367.48094 95.406089 
L 369.304842 84.326948 
L 371.128744 72.643778 
L 372.952646 102.691923 
L 374.776547 96.695927 
L 380.248253 103.582374 
L 382.072155 99.973586 
L 383.896057 83.101823 
L 385.719959 97.100281 
L 387.543861 113.355658 
L 393.015567 120.343448 
L 394.839469 110.369465 
L 396.663371 113.425986 
L 398.487273 131.51122 
" style="fill:none;stroke:#0d0d0d;stroke-linecap:square;stroke-opacity:0.25;stroke-width:2;"/>
   </g>
   <g id="patch_3">
    <path d="M 57.6 276.48 
L 57.6 41.472 
" style="fill:none;stroke:#000000;stroke-linecap:square;stroke-linejoin:miter;stroke-width:0.8;"/>
   </g>
   <g id="patch_4">
    <path d="M 414.72 276.48 
L 414.72 41.472 
" style="fill:none;stroke:#000000;stroke-linecap:square;stroke-linejoin:miter;stroke-width:0.8;"/>
   </g>
   <g id="patch_5">
    <path d="M 57.6 276.48 
L 414.72 276.48 
" style="fill:none;stroke:#000000;stroke-linecap:square;stroke-linejoin:miter;stroke-width:0.8;"/>
   </g>
   <g id="patch_6">
    <path d="M 57.6 41.472 
L 414.72 41.472 
" style="fill:none;stroke:#000000;stroke-linecap:square;stroke-linejoin:miter;stroke-width:0.8;"/>
   </g>
   <g id="text_14">
    <!-- TESTFUNDS0830 -->
    <g transform="translate(185.200312 22.034625)scale(0.12 -0.12)">
     <defs>
      <path d="M -19 4666 
L 3928 4666 
L 3928 4134 
L 2272 4134 
L 2272 0 
L 1638 0 
L 1638 4134 
L -19 4134 
L -19 4666 
z
" id="DejaVuSans-54" transform="scale(0.015625)"/>
      <path d="M 628 4666 
L 3578 4666 
L 3578 4134 
L 1259 4134 
L 1259 2753 
L 3481 2753 
L 3481 2222 
L 1259 2222 
L 1259 531 
L 3634 531 
L 3634 0 
L 628 0 
L 628 4666 
z
" id="DejaVuSans-45" transform="scale(0.015625)"/>
      <path d="M 3425 4513 
L 3425 3897 
Q 3066 4069 2747 4153 
Q 2428 4238 2131 4238 
Q 1616 4238 1336 4038 
Q 1056 3838 1056 3469 
Q 1056 3159 1242 3001 
Q 1428 2844 1947 2747 
L 2328 2669 
Q 3034 2534 3370 2195 
Q 3706 1856 3706 1288 
Q 3706 609 3251 259 
Q 2797 -91 1919 -91 
Q 1588 -91 1214 -16 
Q 841 59 441 206 
L 441 856 
Q 825 641 1194 531 
Q 1563 422 1919 422 
Q 2459 422 2753 634 
Q 3047 847 3047 1241 
Q 3047 1584 2836 1778 
Q 2625 1972 2144 2069 
L 1759 2144 
Q 1053 2284 737 2584 
Q 422 2884 422 3419 
Q 422 4038 858 4394 
Q 1294 4750 2059 4750 
Q 2388 4750 2728 4690 
Q 3069 4631 3425 4513 
z
" id="DejaVuSans-53" transform="scale(0.015625)"/>
      <path d="M 628 4666 
L 3309 4666 
L 3309 4134 
L 1259 4134 
L 1259 2759 
L 3109 2759 
L 3109 2228 
L 1259 2228 
L 1259 0 
L 628 0 
L 628 4666 
z
" id="DejaVuSans-46" transform="scale(0.015625)"/>
      <path d="M 556 4666 
L 1191 4666 
L 1191 1831 
Q 1191 1081 1462 751 
Q 1734 422 2344 422 
Q 2950 422 3222 751 
Q 3494 1081 3494 1831 
L 3494 4666 
L 4128 4666 
L 4128 1753 
Q 4128 841 3676 375 
Q 3225 -91 2344 -91 
Q 1459 -91 1007 375 
Q 556 841 556 1753 
L 556 4666 
z
" id="DejaVuSans-55" transform="scale(0.015625)"/>
      <path d="M 628 4666 
L 1478 4666 
L 3547 763 
L 3547 4666 
L 4159 4666 
L 4159 0 
L 3309 0 
L 1241 3903 
L 1241 0 
L 628 0 
L 628 4666 
z
" id="DejaVuSans-4e" transform="scale(0.015625)"/>
      <path d="M 1259 4147 
L 1259 519 
L 2022 519 
Q 2988 519 3436 956 
Q 3884 1394 3884 2338 
Q 3884 3275 3436 3711 
Q 2988 4147 2022 4147 
L 1259 4147 
z
M 628 4666 
L 1925 4666 
Q 3281 4666 3915 4102 
Q 4550 3538 4550 2338 
Q 4550 1131 3912 565 
Q 3275 0 1925 0 
L 628 0 
L 628 4666 
z
" id="DejaVuSans-44" transform="scale(0.015625)"/>
      <path d="M 2034 2216 
Q 1584 2216 1326 1975 
Q 1069 1734 1069 1313 
Q 1069 891 1326 650 
Q 1584 409 2034 409 
Q 2484 409 2743 651 
Q 3003 894 3003 1313 
Q 3003 1734 2745 1975 
Q 2488 2216 2034 2216 
z
M 1403 2484 
Q 997 2584 770 2862 
Q 544 3141 544 3541 
Q 544 4100 942 4425 
Q 1341 4750 2034 4750 
Q 2731 4750 3128 4425 
Q 3525 4100 3525 3541 
Q 3525 3141 3298 2862 
Q 3072 2584 2669 2484 
Q 3125 2378 3379 2068 
Q 3634 1759 3634 1313 
Q 3634 634 3220 271 
Q 2806 -91 2034 -91 
Q 1263 -91 848 271 
Q 434 634 434 1313 
Q 434 1759 690 2068 
Q 947 2378 1403 2484 
z
M 1172 3481 
Q 1172 3119 1398 2916 
Q 1625 2713 2034 2713 
Q 2441 2713 2670 2916 
Q 2900 3119 2900 3481 
Q 2900 3844 2670 4047 
Q 2441 4250 2034 4250 
Q 1625 4250 1398 4047 
Q 1172 3844 1172 3481 
z
" id="DejaVuSans-38" transform="scale(0.015625)"/>
      <path d="M 2597 2516 
Q 3050 2419 3304 2112 
Q 3559 1806 3559 1356 
Q 3559 666 3084 287 
Q 2609 -91 1734 -91 
Q 1441 -91 1130 -33 
Q 819 25 488 141 
L 488 750 
Q 750 597 1062 519 
Q 1375 441 1716 441 
Q 2309 441 2620 675 
Q 2931 909 2931 1356 
Q 2931 1769 2642 2001 
Q 2353 2234 1838 2234 
L 1294 2234 
L 1294 2753 
L 1863 2753 
Q 2328 2753 2575 2939 
Q 2822 3125 2822 3475 
Q 2822 3834 2567 4026 
Q 2313 4219 1838 4219 
Q 1578 4219 1281 4162 
Q 984 4106 628 3988 
L 628 4550 
Q 988 4650 1302 4700 
Q 1616 4750 1894 4750 
Q 2613 4750 3031 4423 
Q 3450 4097 3450 3541 
Q 3450 3153 3228 2886 
Q 3006 2619 2597 2516 
z
" id="DejaVuSans-33" transform="scale(0.015625)"/>
     </defs>
     <use xlink:href="#DejaVuSans-54"/>
     <use x="61.083984" xlink:href="#DejaVuSans-45"/>
     <use x="124.267578" xlink:href="#DejaVuSans-53"/>
     <use x="187.744141" xlink:href="#DejaVuSans-54"/>
     <use x="248.828125" xlink:href="#DejaVuSans-46"/>
     <use x="306.347656" xlink:href="#DejaVuSans-55"/>
     <use x="379.541016" xlink:href="#DejaVuSans-4e"/>
     <use x="454.345703" xlink:href="#DejaVuSans-44"/>
     <use x="531.347656" xlink:href="#DejaVuSans-53"/>
     <use x="594.824219" xlink:href="#DejaVuSans-30"/>
     <use x="658.447266" xlink:href="#DejaVuSans-38"/>
     <use x="722.070312" xlink:href="#DejaVuSans-33"/>
     <use x="785.693359" xlink:href="#DejaVuSans-30"/>
    </g>
    <!-- daily_report -->
    <g transform="translate(200.466563 35.472)scale(0.12 -0.12)">
     <defs>
      <path d="M 603 3500 
L 1178 3500 
L 1178 0 
L 603 0 
L 603 3500 
z
M 603 4863 
L 1178 4863 
L 1178 4134 
L 603 4134 
L 603 4863 
z
" id="DejaVuSans-69" transform="scale(0.015625)"/>
      <path d="M 603 4863 
L 1178 4863 
L 1178 0 
L 603 0 
L 603 4863 
z
" id="DejaVuSans-6c" transform="scale(0.015625)"/>
      <path d="M 2059 -325 
Q 1816 -950 1584 -1140 
Q 1353 -1331 966 -1331 
L 506 -1331 
L 506 -850 
L 844 -850 
Q 1081 -850 1212 -737 
Q 1344 -625 1503 -206 
L 1606 56 
L 191 3500 
L 800 3500 
L 1894 763 
L 2988 3500 
L 3597 3500 
L 2059 -325 
z
" id="DejaVuSans-79" transform="scale(0.015625)"/>
      <path d="M 3263 -1063 
L 3263 -1509 
L -63 -1509 
L -63 -1063 
L 3263 -1063 
z
" id="DejaVuSans-5f" transform="scale(0.015625)"/>
      <path d="M 2631 2963 
Q 2534 3019 2420 3045 
Q 2306 3072 2169 3072 
Q 1681 3072 1420 2755 
Q 1159 2438 1159 1844 
L 1159 0 
L 581 0 
L 581 3500 
L 1159 3500 
L 1159 2956 
Q 1341 3275 1631 3429 
Q 1922 3584 2338 3584 
Q 2397 3584 2469 3576 
Q 2541 3569 2628 3553 
L 2631 2963 
z
" id="DejaVuSans-72" transform="scale(0.015625)"/>
      <path d="M 1159 525 
L 1159 -1331 
L 581 -1331 
L 581 3500 
L 1159 3500 
L 1159 2969 
Q 1341 3281 1617 3432 
Q 1894 3584 2278 3584 
Q 2916 3584 3314 3078 
Q 3713 2572 3713 1747 
Q 3713 922 3314 415 
Q 2916 -91 2278 -91 
Q 1894 -91 1617 61 
Q 1341 213 1159 525 
z
M 3116 1747 
Q 3116 2381 2855 2742 
Q 2594 3103 2138 3103 
Q 1681 3103 1420 2742 
Q 1159 2381 1159 1747 
Q 1159 1113 1420 752 
Q 1681 391 2138 391 
Q 2594 391 2855 752 
Q 3116 1113 3116 1747 
z
" id="DejaVuSans-70" transform="scale(0.015625)"/>
      <path d="M 1959 3097 
Q 1497 3097 1228 2736 
Q 959 2375 959 1747 
Q 959 1119 1226 758 
Q 1494 397 1959 397 
Q 2419 397 2687 759 
Q 2956 1122 2956 1747 
Q 2956 2369 2687 2733 
Q 2419 3097 1959 3097 
z
M 1959 3584 
Q 2709 3584 3137 3096 
Q 3566 2609 3566 1747 
Q 3566 888 3137 398 
Q 2709 -91 1959 -91 
Q 1206 -91 779 398 
Q 353 888 353 1747 
Q 353 2609 779 3096 
Q 1206 3584 1959 3584 
z
" id="DejaVuSans-6f" transform="scale(0.015625)"/>
     </defs>
     <use xlink:href="#DejaVuSans-64"/>
     <use x="63.476562" xlink:href="#DejaVuSans-61"/>
     <use x="124.755859" xlink:href="#DejaVuSans-69"/>
     <use x="152.539062" xlink:href="#DejaVuSans-6c"/>
     <use x="180.322266" xlink:href="#DejaVuSans-79"/>
     <use x="239.501953" xlink:href="#DejaVuSans-5f"/>
     <use x="289.501953" xlink:href="#DejaVuSans-72"/>
     <use x="328.365234" xlink:href="#DejaVuSans-65"/>
     <use x="389.888672" xlink:href="#DejaVuSans-70"/>
     <use x="453.365234" xlink:href="#DejaVuSans-6f"/>
     <use x="514.546875" xlink:href="#DejaVuSans-72"/>
     <use x="555.660156" xlink:href="#DejaVuSans-74"/>
    </g>
   </g>
   <g id="legend_1">
    <g id="patch_7">
     <path d="M 64.6 122.862625 
L 155.792188 122.862625 
Q 157.792188 122.862625 157.792188 120.862625 
L 157.792188 48.472 
Q 157.792188 46.472 155.792188 46.472 
L 64.6 46.472 
Q 62.6 46.472 62.6 48.472 
L 62.6 120.862625 
Q 62.6 122.862625 64.6 122.862625 
z
" style="fill:#ffffff;opacity:0.8;stroke:#cccccc;stroke-linejoin:miter;"/>
    </g>
    <g id="line2d_18">
     <path d="M 66.6 54.570437 
L 86.6 54.570437 
" style="fill:none;stroke:#0000ff;stroke-linecap:square;stroke-opacity:0.9;stroke-width:2;"/>
    </g>
    <g id="line2d_19"/>
    <g id="text_15">
     <!-- alpaca -->
     <g transform="translate(94.6 58.070437)scale(0.1 -0.1)">
      <defs>
       <path d="M 3122 3366 
L 3122 2828 
Q 2878 2963 2633 3030 
Q 2388 3097 2138 3097 
Q 1578 3097 1268 2742 
Q 959 2388 959 1747 
Q 959 1106 1268 751 
Q 1578 397 2138 397 
Q 2388 397 2633 464 
Q 2878 531 3122 666 
L 3122 134 
Q 2881 22 2623 -34 
Q 2366 -91 2075 -91 
Q 1284 -91 818 406 
Q 353 903 353 1747 
Q 353 2603 823 3093 
Q 1294 3584 2113 3584 
Q 2378 3584 2631 3529 
Q 2884 3475 3122 3366 
z
" id="DejaVuSans-63" transform="scale(0.015625)"/>
      </defs>
      <use xlink:href="#DejaVuSans-61"/>
      <use x="61.279297" xlink:href="#DejaVuSans-6c"/>
      <use x="89.0625" xlink:href="#DejaVuSans-70"/>
      <use x="152.539062" xlink:href="#DejaVuSans-61"/>
      <use x="213.818359" xlink:href="#DejaVuSans-63"/>
      <use x="268.798828" xlink:href="#DejaVuSans-61"/>
     </g>
    </g>
    <g id="line2d_20">
     <path d="M 66.6 69.248562 
L 86.6 69.248562 
" style="fill:none;stroke:#ff0000;stroke-linecap:square;stroke-opacity:0.9;stroke-width:2;"/>
    </g>
    <g id="line2d_21"/>
    <g id="text_16">
     <!-- mattress -->
     <g transform="translate(94.6 72.748562)scale(0.1 -0.1)">
      <defs>
       <path d="M 3328 2828 
Q 3544 3216 3844 3400 
Q 4144 3584 4550 3584 
Q 5097 3584 5394 3201 
Q 5691 2819 5691 2113 
L 5691 0 
L 5113 0 
L 5113 2094 
Q 5113 2597 4934 2840 
Q 4756 3084 4391 3084 
Q 3944 3084 3684 2787 
Q 3425 2491 3425 1978 
L 3425 0 
L 2847 0 
L 2847 2094 
Q 2847 2600 2669 2842 
Q 2491 3084 2119 3084 
Q 1678 3084 1418 2786 
Q 1159 2488 1159 1978 
L 1159 0 
L 581 0 
L 581 3500 
L 1159 3500 
L 1159 2956 
Q 1356 3278 1631 3431 
Q 1906 3584 2284 3584 
Q 2666 3584 2933 3390 
Q 3200 3197 3328 2828 
z
" id="DejaVuSans-6d" transform="scale(0.015625)"/>
       <path d="M 2834 3397 
L 2834 2853 
Q 2591 2978 2328 3040 
Q 2066 3103 1784 3103 
Q 1356 3103 1142 2972 
Q 928 2841 928 2578 
Q 928 2378 1081 2264 
Q 1234 2150 1697 2047 
L 1894 2003 
Q 2506 1872 2764 1633 
Q 3022 1394 3022 966 
Q 3022 478 2636 193 
Q 2250 -91 1575 -91 
Q 1294 -91 989 -36 
Q 684 19 347 128 
L 347 722 
Q 666 556 975 473 
Q 1284 391 1588 391 
Q 1994 391 2212 530 
Q 2431 669 2431 922 
Q 2431 1156 2273 1281 
Q 2116 1406 1581 1522 
L 1381 1569 
Q 847 1681 609 1914 
Q 372 2147 372 2553 
Q 372 3047 722 3315 
Q 1072 3584 1716 3584 
Q 2034 3584 2315 3537 
Q 2597 3491 2834 3397 
z
" id="DejaVuSans-73" transform="scale(0.015625)"/>
      </defs>
      <use xlink:href="#DejaVuSans-6d"/>
      <use x="97.412109" xlink:href="#DejaVuSans-61"/>
      <use x="158.691406" xlink:href="#DejaVuSans-74"/>
      <use x="197.900391" xlink:href="#DejaVuSans-74"/>
      <use x="237.109375" xlink:href="#DejaVuSans-72"/>
      <use x="275.972656" xlink:href="#DejaVuSans-65"/>
      <use x="337.496094" xlink:href="#DejaVuSans-73"/>
      <use x="389.595703" xlink:href="#DejaVuSans-73"/>
     </g>
    </g>
    <g id="line2d_22">
     <path d="M 66.6 83.926687 
L 86.6 83.926687 
" style="fill:none;stroke:#ff8040;stroke-linecap:square;stroke-opacity:0.9;stroke-width:2;"/>
    </g>
    <g id="line2d_23"/>
    <g id="text_17">
     <!-- trader-0850 -->
     <g transform="translate(94.6 87.426687)scale(0.1 -0.1)">
      <use xlink:href="#DejaVuSans-74"/>
      <use x="39.208984" xlink:href="#DejaVuSans-72"/>
      <use x="80.322266" xlink:href="#DejaVuSans-61"/>
      <use x="141.601562" xlink:href="#DejaVuSans-64"/>
      <use x="205.078125" xlink:href="#DejaVuSans-65"/>
      <use x="266.601562" xlink:href="#DejaVuSans-72"/>
      <use x="301.339844" xlink:href="#DejaVuSans-2d"/>
      <use x="337.423828" xlink:href="#DejaVuSans-30"/>
      <use x="401.046875" xlink:href="#DejaVuSans-38"/>
      <use x="464.669922" xlink:href="#DejaVuSans-35"/>
      <use x="528.292969" xlink:href="#DejaVuSans-30"/>
     </g>
    </g>
    <g id="line2d_24">
     <path d="M 66.6 98.604812 
L 86.6 98.604812 
" style="fill:none;stroke:#0d0d0d;stroke-linecap:square;stroke-opacity:0.25;stroke-width:2;"/>
    </g>
    <g id="line2d_25"/>
    <g id="text_18">
     <!-- rando-min -->
     <g transform="translate(94.6 102.104812)scale(0.1 -0.1)">
      <defs>
       <path d="M 3513 2113 
L 3513 0 
L 2938 0 
L 2938 2094 
Q 2938 2591 2744 2837 
Q 2550 3084 2163 3084 
Q 1697 3084 1428 2787 
Q 1159 2491 1159 1978 
L 1159 0 
L 581 0 
L 581 3500 
L 1159 3500 
L 1159 2956 
Q 1366 3272 1645 3428 
Q 1925 3584 2291 3584 
Q 2894 3584 3203 3211 
Q 3513 2838 3513 2113 
z
" id="DejaVuSans-6e" transform="scale(0.015625)"/>
      </defs>
      <use xlink:href="#DejaVuSans-72"/>
      <use x="41.113281" xlink:href="#DejaVuSans-61"/>
      <use x="102.392578" xlink:href="#DejaVuSans-6e"/>
      <use x="165.771484" xlink:href="#DejaVuSans-64"/>
      <use x="229.248047" xlink:href="#DejaVuSans-6f"/>
      <use x="292.304688" xlink:href="#DejaVuSans-2d"/>
      <use x="328.388672" xlink:href="#DejaVuSans-6d"/>
      <use x="425.800781" xlink:href="#DejaVuSans-69"/>
      <use x="453.583984" xlink:href="#DejaVuSans-6e"/>
     </g>
    </g>
    <g id="line2d_26">
     <path d="M 66.6 113.282937 
L 86.6 113.282937 
" style="fill:none;stroke:#0d0d0d;stroke-linecap:square;stroke-opacity:0.25;stroke-width:2;"/>
    </g>
    <g id="line2d_27"/>
    <g id="text_19">
     <!-- rando-max -->
     <g transform="translate(94.6 116.782937)scale(0.1 -0.1)">
      <defs>
       <path d="M 3513 3500 
L 2247 1797 
L 3578 0 
L 2900 0 
L 1881 1375 
L 863 0 
L 184 0 
L 1544 1831 
L 300 3500 
L 978 3500 
L 1906 2253 
L 2834 3500 
L 3513 3500 
z
" id="DejaVuSans-78" transform="scale(0.015625)"/>
      </defs>
      <use xlink:href="#DejaVuSans-72"/>
      <use x="41.113281" xlink:href="#DejaVuSans-61"/>
      <use x="102.392578" xlink:href="#DejaVuSans-6e"/>
      <use x="165.771484" xlink:href="#DejaVuSans-64"/>
      <use x="229.248047" xlink:href="#DejaVuSans-6f"/>
      <use x="292.304688" xlink:href="#DejaVuSans-2d"/>
      <use x="328.388672" xlink:href="#DejaVuSans-6d"/>
      <use x="425.800781" xlink:href="#DejaVuSans-61"/>
      <use x="487.080078" xlink:href="#DejaVuSans-78"/>
     </g>
    </g>
   </g>
  </g>
 </g>
 <defs>
  <clipPath id="pb97b56eecc">
   <rect height="235.008" width="357.12" x="57.6" y="41.472"/>
  </clipPath>
 </defs>
</svg>
