<?xml version="1.0" encoding="utf-8" standalone="no"?>
<!DOCTYPE svg PUBLIC "-//W3C//DTD SVG 1.1//EN"
  "http://www.w3.org/Graphics/SVG/1.1/DTD/svg11.dtd">
<svg height="345.6pt" version="1.1" viewBox="0 0 460.8 345.6" width="460.8pt" xmlns="http://www.w3.org/2000/svg" xmlns:xlink="http://www.w3.org/1999/xlink">
 <metadata>
  <rdf:RDF xmlns:cc="http://creativecommons.org/ns#" xmlns:dc="http://purl.org/dc/elements/1.1/" xmlns:rdf="http://www.w3.org/1999/02/22-rdf-syntax-ns#">
   <cc:Work>
    <dc:type rdf:resource="http://purl.org/dc/dcmitype/StillImage"/>
    <dc:date>2022-02-18T01:01:41.015855</dc:date>
    <dc:format>image/svg+xml</dc:format>
    <dc:creator>
     <cc:Agent>
      <dc:title>Matplotlib v3.4.3, https://matplotlib.org/</dc:title>
     </cc:Agent>
    </dc:creator>
   </cc:Work>
  </rdf:RDF>
 </metadata>
 <defs>
  <style type="text/css">*{stroke-linecap:butt;stroke-linejoin:round;}</style>
 </defs>
 <g id="figure_1">
  <g id="patch_1">
   <path d="M 0 345.6 
L 460.8 345.6 
L 460.8 0 
L 0 0 
z
" style="fill:#ffffff;"/>
  </g>
  <g id="axes_1">
   <g id="patch_2">
    <path d="M 57.6 276.48 
L 414.72 276.48 
L 414.72 41.472 
L 57.6 41.472 
z
" style="fill:#ffffff;"/>
   </g>
   <g id="matplotlib.axis_1">
    <g id="xtick_1">
     <g id="line2d_1">
      <defs>
       <path d="M 0 0 
L 0 3.5 
" id="m1695369fd1" style="stroke:#000000;stroke-width:0.8;"/>
      </defs>
      <g>
       <use style="stroke:#000000;stroke-width:0.8;" x="90.247845" xlink:href="#m1695369fd1" y="276.48"/>
      </g>
     </g>
     <g id="text_1">
      <!-- 2021-09 -->
      <g transform="translate(53.023024 310.951846)rotate(-30)scale(0.1 -0.1)">
       <defs>
        <path d="M 1228 531 
L 3431 531 
L 3431 0 
L 469 0 
L 469 531 
Q 828 903 1448 1529 
Q 2069 2156 2228 2338 
Q 2531 2678 2651 2914 
Q 2772 3150 2772 3378 
Q 2772 3750 2511 3984 
Q 2250 4219 1831 4219 
Q 1534 4219 1204 4116 
Q 875 4013 500 3803 
L 500 4441 
Q 881 4594 1212 4672 
Q 1544 4750 1819 4750 
Q 2544 4750 2975 4387 
Q 3406 4025 3406 3419 
Q 3406 3131 3298 2873 
Q 3191 2616 2906 2266 
Q 2828 2175 2409 1742 
Q 1991 1309 1228 531 
z
" id="DejaVuSans-32" transform="scale(0.015625)"/>
        <path d="M 2034 4250 
Q 1547 4250 1301 3770 
Q 1056 3291 1056 2328 
Q 1056 1369 1301 889 
Q 1547 409 2034 409 
Q 2525 409 2770 889 
Q 3016 1369 3016 2328 
Q 3016 3291 2770 3770 
Q 2525 4250 2034 4250 
z
M 2034 4750 
Q 2819 4750 3233 4129 
Q 3647 3509 3647 2328 
Q 3647 1150 3233 529 
Q 2819 -91 2034 -91 
Q 1250 -91 836 529 
Q 422 1150 422 2328 
Q 422 3509 836 4129 
Q 1250 4750 2034 4750 
z
" id="DejaVuSans-30" transform="scale(0.015625)"/>
        <path d="M 794 531 
L 1825 531 
L 1825 4091 
L 703 3866 
L 703 4441 
L 1819 4666 
L 2450 4666 
L 2450 531 
L 3481 531 
L 3481 0 
L 794 0 
L 794 531 
z
" id="DejaVuSans-31" transform="scale(0.015625)"/>
        <path d="M 313 2009 
L 1997 2009 
L 1997 1497 
L 313 1497 
L 313 2009 
z
" id="DejaVuSans-2d" transform="scale(0.015625)"/>
        <path d="M 703 97 
L 703 672 
Q 941 559 1184 500 
Q 1428 441 1663 441 
Q 2288 441 2617 861 
Q 2947 1281 2994 2138 
Q 2813 1869 2534 1725 
Q 2256 1581 1919 1581 
Q 1219 1581 811 2004 
Q 403 2428 403 3163 
Q 403 3881 828 4315 
Q 1253 4750 1959 4750 
Q 2769 4750 3195 4129 
Q 3622 3509 3622 2328 
Q 3622 1225 3098 567 
Q 2575 -91 1691 -91 
Q 1453 -91 1209 -44 
Q 966 3 703 97 
z
M 1959 2075 
Q 2384 2075 2632 2365 
Q 2881 2656 2881 3163 
Q 2881 3666 2632 3958 
Q 2384 4250 1959 4250 
Q 1534 4250 1286 3958 
Q 1038 3666 1038 3163 
Q 1038 2656 1286 2365 
Q 1534 2075 1959 2075 
z
" id="DejaVuSans-39" transform="scale(0.015625)"/>
       </defs>
       <use xlink:href="#DejaVuSans-32"/>
       <use x="63.623047" xlink:href="#DejaVuSans-30"/>
       <use x="127.246094" xlink:href="#DejaVuSans-32"/>
       <use x="190.869141" xlink:href="#DejaVuSans-31"/>
       <use x="254.492188" xlink:href="#DejaVuSans-2d"/>
       <use x="290.576172" xlink:href="#DejaVuSans-30"/>
       <use x="354.199219" xlink:href="#DejaVuSans-39"/>
      </g>
     </g>
    </g>
    <g id="xtick_2">
     <g id="line2d_2">
      <g>
       <use style="stroke:#000000;stroke-width:0.8;" x="144.964903" xlink:href="#m1695369fd1" y="276.48"/>
      </g>
     </g>
     <g id="text_2">
      <!-- 2021-10 -->
      <g transform="translate(107.740082 310.951846)rotate(-30)scale(0.1 -0.1)">
       <use xlink:href="#DejaVuSans-32"/>
       <use x="63.623047" xlink:href="#DejaVuSans-30"/>
       <use x="127.246094" xlink:href="#DejaVuSans-32"/>
       <use x="190.869141" xlink:href="#DejaVuSans-31"/>
       <use x="254.492188" xlink:href="#DejaVuSans-2d"/>
       <use x="290.576172" xlink:href="#DejaVuSans-31"/>
       <use x="354.199219" xlink:href="#DejaVuSans-30"/>
      </g>
     </g>
    </g>
    <g id="xtick_3">
     <g id="line2d_3">
      <g>
       <use style="stroke:#000000;stroke-width:0.8;" x="201.505863" xlink:href="#m1695369fd1" y="276.48"/>
      </g>
     </g>
     <g id="text_3">
      <!-- 2021-11 -->
      <g transform="translate(164.281042 310.951846)rotate(-30)scale(0.1 -0.1)">
       <use xlink:href="#DejaVuSans-32"/>
       <use x="63.623047" xlink:href="#DejaVuSans-30"/>
       <use x="127.246094" xlink:href="#DejaVuSans-32"/>
       <use x="190.869141" xlink:href="#DejaVuSans-31"/>
       <use x="254.492188" xlink:href="#DejaVuSans-2d"/>
       <use x="290.576172" xlink:href="#DejaVuSans-31"/>
       <use x="354.199219" xlink:href="#DejaVuSans-31"/>
      </g>
     </g>
    </g>
    <g id="xtick_4">
     <g id="line2d_4">
      <g>
       <use style="stroke:#000000;stroke-width:0.8;" x="256.222921" xlink:href="#m1695369fd1" y="276.48"/>
      </g>
     </g>
     <g id="text_4">
      <!-- 2021-12 -->
      <g transform="translate(218.998101 310.951846)rotate(-30)scale(0.1 -0.1)">
       <use xlink:href="#DejaVuSans-32"/>
       <use x="63.623047" xlink:href="#DejaVuSans-30"/>
       <use x="127.246094" xlink:href="#DejaVuSans-32"/>
       <use x="190.869141" xlink:href="#DejaVuSans-31"/>
       <use x="254.492188" xlink:href="#DejaVuSans-2d"/>
       <use x="290.576172" xlink:href="#DejaVuSans-31"/>
       <use x="354.199219" xlink:href="#DejaVuSans-32"/>
      </g>
     </g>
    </g>
    <g id="xtick_5">
     <g id="line2d_5">
      <g>
       <use style="stroke:#000000;stroke-width:0.8;" x="312.763882" xlink:href="#m1695369fd1" y="276.48"/>
      </g>
     </g>
     <g id="text_5">
      <!-- 2022-01 -->
      <g transform="translate(275.539061 310.951846)rotate(-30)scale(0.1 -0.1)">
       <use xlink:href="#DejaVuSans-32"/>
       <use x="63.623047" xlink:href="#DejaVuSans-30"/>
       <use x="127.246094" xlink:href="#DejaVuSans-32"/>
       <use x="190.869141" xlink:href="#DejaVuSans-32"/>
       <use x="254.492188" xlink:href="#DejaVuSans-2d"/>
       <use x="290.576172" xlink:href="#DejaVuSans-30"/>
       <use x="354.199219" xlink:href="#DejaVuSans-31"/>
      </g>
     </g>
    </g>
    <g id="xtick_6">
     <g id="line2d_6">
      <g>
       <use style="stroke:#000000;stroke-width:0.8;" x="369.304842" xlink:href="#m1695369fd1" y="276.48"/>
      </g>
     </g>
     <g id="text_6">
      <!-- 2022-02 -->
      <g transform="translate(332.080021 310.951846)rotate(-30)scale(0.1 -0.1)">
       <use xlink:href="#DejaVuSans-32"/>
       <use x="63.623047" xlink:href="#DejaVuSans-30"/>
       <use x="127.246094" xlink:href="#DejaVuSans-32"/>
       <use x="190.869141" xlink:href="#DejaVuSans-32"/>
       <use x="254.492188" xlink:href="#DejaVuSans-2d"/>
       <use x="290.576172" xlink:href="#DejaVuSans-30"/>
       <use x="354.199219" xlink:href="#DejaVuSans-32"/>
      </g>
     </g>
    </g>
    <g id="text_7">
     <!-- date -->
     <g transform="translate(224.885 324.351346)scale(0.1 -0.1)">
      <defs>
       <path d="M 2906 2969 
L 2906 4863 
L 3481 4863 
L 3481 0 
L 2906 0 
L 2906 525 
Q 2725 213 2448 61 
Q 2172 -91 1784 -91 
Q 1150 -91 751 415 
Q 353 922 353 1747 
Q 353 2572 751 3078 
Q 1150 3584 1784 3584 
Q 2172 3584 2448 3432 
Q 2725 3281 2906 2969 
z
M 947 1747 
Q 947 1113 1208 752 
Q 1469 391 1925 391 
Q 2381 391 2643 752 
Q 2906 1113 2906 1747 
Q 2906 2381 2643 2742 
Q 2381 3103 1925 3103 
Q 1469 3103 1208 2742 
Q 947 2381 947 1747 
z
" id="DejaVuSans-64" transform="scale(0.015625)"/>
       <path d="M 2194 1759 
Q 1497 1759 1228 1600 
Q 959 1441 959 1056 
Q 959 750 1161 570 
Q 1363 391 1709 391 
Q 2188 391 2477 730 
Q 2766 1069 2766 1631 
L 2766 1759 
L 2194 1759 
z
M 3341 1997 
L 3341 0 
L 2766 0 
L 2766 531 
Q 2569 213 2275 61 
Q 1981 -91 1556 -91 
Q 1019 -91 701 211 
Q 384 513 384 1019 
Q 384 1609 779 1909 
Q 1175 2209 1959 2209 
L 2766 2209 
L 2766 2266 
Q 2766 2663 2505 2880 
Q 2244 3097 1772 3097 
Q 1472 3097 1187 3025 
Q 903 2953 641 2809 
L 641 3341 
Q 956 3463 1253 3523 
Q 1550 3584 1831 3584 
Q 2591 3584 2966 3190 
Q 3341 2797 3341 1997 
z
" id="DejaVuSans-61" transform="scale(0.015625)"/>
       <path d="M 1172 4494 
L 1172 3500 
L 2356 3500 
L 2356 3053 
L 1172 3053 
L 1172 1153 
Q 1172 725 1289 603 
Q 1406 481 1766 481 
L 2356 481 
L 2356 0 
L 1766 0 
Q 1100 0 847 248 
Q 594 497 594 1153 
L 594 3053 
L 172 3053 
L 172 3500 
L 594 3500 
L 594 4494 
L 1172 4494 
z
" id="DejaVuSans-74" transform="scale(0.015625)"/>
       <path d="M 3597 1894 
L 3597 1613 
L 953 1613 
Q 991 1019 1311 708 
Q 1631 397 2203 397 
Q 2534 397 2845 478 
Q 3156 559 3463 722 
L 3463 178 
Q 3153 47 2828 -22 
Q 2503 -91 2169 -91 
Q 1331 -91 842 396 
Q 353 884 353 1716 
Q 353 2575 817 3079 
Q 1281 3584 2069 3584 
Q 2775 3584 3186 3129 
Q 3597 2675 3597 1894 
z
M 3022 2063 
Q 3016 2534 2758 2815 
Q 2500 3097 2075 3097 
Q 1594 3097 1305 2825 
Q 1016 2553 972 2059 
L 3022 2063 
z
" id="DejaVuSans-65" transform="scale(0.015625)"/>
      </defs>
      <use xlink:href="#DejaVuSans-64"/>
      <use x="63.476562" xlink:href="#DejaVuSans-61"/>
      <use x="124.755859" xlink:href="#DejaVuSans-74"/>
      <use x="163.964844" xlink:href="#DejaVuSans-65"/>
     </g>
    </g>
   </g>
   <g id="matplotlib.axis_2">
    <g id="ytick_1">
     <g id="line2d_7">
      <defs>
       <path d="M 0 0 
L -3.5 0 
" id="m611088ab0a" style="stroke:#000000;stroke-width:0.8;"/>
      </defs>
      <g>
       <use style="stroke:#000000;stroke-width:0.8;" x="57.6" xlink:href="#m611088ab0a" y="248.891738"/>
      </g>
     </g>
     <g id="text_8">
      <!-- 90000 -->
      <g transform="translate(18.7875 252.690957)scale(0.1 -0.1)">
       <use xlink:href="#DejaVuSans-39"/>
       <use x="63.623047" xlink:href="#DejaVuSans-30"/>
       <use x="127.246094" xlink:href="#DejaVuSans-30"/>
       <use x="190.869141" xlink:href="#DejaVuSans-30"/>
       <use x="254.492188" xlink:href="#DejaVuSans-30"/>
      </g>
     </g>
    </g>
    <g id="ytick_2">
     <g id="line2d_8">
      <g>
       <use style="stroke:#000000;stroke-width:0.8;" x="57.6" xlink:href="#m611088ab0a" y="212.113113"/>
      </g>
     </g>
     <g id="text_9">
      <!-- 95000 -->
      <g transform="translate(18.7875 215.912332)scale(0.1 -0.1)">
       <defs>
        <path d="M 691 4666 
L 3169 4666 
L 3169 4134 
L 1269 4134 
L 1269 2991 
Q 1406 3038 1543 3061 
Q 1681 3084 1819 3084 
Q 2600 3084 3056 2656 
Q 3513 2228 3513 1497 
Q 3513 744 3044 326 
Q 2575 -91 1722 -91 
Q 1428 -91 1123 -41 
Q 819 9 494 109 
L 494 744 
Q 775 591 1075 516 
Q 1375 441 1709 441 
Q 2250 441 2565 725 
Q 2881 1009 2881 1497 
Q 2881 1984 2565 2268 
Q 2250 2553 1709 2553 
Q 1456 2553 1204 2497 
Q 953 2441 691 2322 
L 691 4666 
z
" id="DejaVuSans-35" transform="scale(0.015625)"/>
       </defs>
       <use xlink:href="#DejaVuSans-39"/>
       <use x="63.623047" xlink:href="#DejaVuSans-35"/>
       <use x="127.246094" xlink:href="#DejaVuSans-30"/>
       <use x="190.869141" xlink:href="#DejaVuSans-30"/>
       <use x="254.492188" xlink:href="#DejaVuSans-30"/>
      </g>
     </g>
    </g>
    <g id="ytick_3">
     <g id="line2d_9">
      <g>
       <use style="stroke:#000000;stroke-width:0.8;" x="57.6" xlink:href="#m611088ab0a" y="175.334488"/>
      </g>
     </g>
     <g id="text_10">
      <!-- 100000 -->
      <g transform="translate(12.425 179.133707)scale(0.1 -0.1)">
       <use xlink:href="#DejaVuSans-31"/>
       <use x="63.623047" xlink:href="#DejaVuSans-30"/>
       <use x="127.246094" xlink:href="#DejaVuSans-30"/>
       <use x="190.869141" xlink:href="#DejaVuSans-30"/>
       <use x="254.492188" xlink:href="#DejaVuSans-30"/>
       <use x="318.115234" xlink:href="#DejaVuSans-30"/>
      </g>
     </g>
    </g>
    <g id="ytick_4">
     <g id="line2d_10">
      <g>
       <use style="stroke:#000000;stroke-width:0.8;" x="57.6" xlink:href="#m611088ab0a" y="138.555863"/>
      </g>
     </g>
     <g id="text_11">
      <!-- 105000 -->
      <g transform="translate(12.425 142.355082)scale(0.1 -0.1)">
       <use xlink:href="#DejaVuSans-31"/>
       <use x="63.623047" xlink:href="#DejaVuSans-30"/>
       <use x="127.246094" xlink:href="#DejaVuSans-35"/>
       <use x="190.869141" xlink:href="#DejaVuSans-30"/>
       <use x="254.492188" xlink:href="#DejaVuSans-30"/>
       <use x="318.115234" xlink:href="#DejaVuSans-30"/>
      </g>
     </g>
    </g>
    <g id="ytick_5">
     <g id="line2d_11">
      <g>
       <use style="stroke:#000000;stroke-width:0.8;" x="57.6" xlink:href="#m611088ab0a" y="101.777238"/>
      </g>
     </g>
     <g id="text_12">
      <!-- 110000 -->
      <g transform="translate(12.425 105.576457)scale(0.1 -0.1)">
       <use xlink:href="#DejaVuSans-31"/>
       <use x="63.623047" xlink:href="#DejaVuSans-31"/>
       <use x="127.246094" xlink:href="#DejaVuSans-30"/>
       <use x="190.869141" xlink:href="#DejaVuSans-30"/>
       <use x="254.492188" xlink:href="#DejaVuSans-30"/>
       <use x="318.115234" xlink:href="#DejaVuSans-30"/>
      </g>
     </g>
    </g>
    <g id="ytick_6">
     <g id="line2d_12">
      <g>
       <use style="stroke:#000000;stroke-width:0.8;" x="57.6" xlink:href="#m611088ab0a" y="64.998613"/>
      </g>
     </g>
     <g id="text_13">
      <!-- 115000 -->
      <g transform="translate(12.425 68.797832)scale(0.1 -0.1)">
       <use xlink:href="#DejaVuSans-31"/>
       <use x="63.623047" xlink:href="#DejaVuSans-31"/>
       <use x="127.246094" xlink:href="#DejaVuSans-35"/>
       <use x="190.869141" xlink:href="#DejaVuSans-30"/>
       <use x="254.492188" xlink:href="#DejaVuSans-30"/>
       <use x="318.115234" xlink:href="#DejaVuSans-30"/>
      </g>
     </g>
    </g>
   </g>
   <g id="line2d_13">
    <path clip-path="url(#pa58c7bea01)" d="M 73.832727 175.334488 
L 75.656629 175.696644 
L 77.480531 173.14033 
L 79.304433 177.091331 
L 81.128335 170.409234 
L 86.600041 165.239176 
L 88.423943 163.890182 
L 90.247845 165.966309 
L 92.071747 165.511903 
L 93.895649 165.940894 
L 101.191256 165.502124 
L 103.015158 168.214244 
L 104.83906 170.461637 
L 106.662962 177.244651 
L 112.134668 171.140142 
L 113.95857 181.400932 
L 115.782472 176.441446 
L 117.606374 177.713569 
L 119.430276 184.496856 
L 124.901982 197.657353 
L 126.725884 199.139809 
L 128.549785 194.186215 
L 130.373687 182.252307 
L 132.197589 175.89367 
L 137.669295 170.713912 
L 139.493197 186.203798 
L 141.317099 183.654495 
L 143.141001 189.398909 
L 144.964903 178.663414 
L 150.436609 192.183832 
L 152.260511 180.929938 
L 154.084413 178.519316 
L 155.908315 178.372187 
L 157.732217 177.138259 
L 163.203922 175.963655 
L 165.027824 175.234918 
L 166.851726 184.661309 
L 168.675628 170.528241 
L 170.49953 169.656249 
L 175.971236 163.315695 
L 177.795138 155.722203 
L 179.61904 153.36064 
L 181.442942 166.059561 
L 183.266844 175.237386 
L 188.73855 174.613703 
L 190.562451 180.995417 
L 192.386353 183.122783 
L 194.210255 173.812888 
L 196.034157 182.618009 
L 201.505863 167.773375 
L 203.329765 168.086521 
L 205.153667 160.813032 
L 206.977569 169.880022 
L 208.801471 164.99061 
L 214.273177 164.102225 
L 216.097079 173.53466 
L 217.920981 173.29848 
L 219.744883 179.633028 
L 221.568784 173.308139 
L 227.04049 171.145317 
L 228.864392 171.220938 
L 230.688294 175.31709 
L 232.512196 177.065504 
L 234.336098 177.620159 
L 239.807804 173.298514 
L 241.631706 166.955054 
L 243.455608 167.427193 
L 247.103412 167.664849 
L 252.575117 173.983065 
L 254.399019 188.291068 
L 256.222921 198.000039 
L 258.046823 189.069555 
L 259.870725 193.700717 
L 265.342431 180.488082 
L 267.166333 167.120157 
L 268.990235 161.861607 
L 270.814137 161.300725 
L 272.638039 158.633575 
L 278.109745 165.804449 
L 279.933647 162.098815 
L 281.757549 157.905919 
L 283.58145 155.029207 
L 285.405352 163.21266 
L 290.877058 173.596708 
L 292.70096 156.374379 
L 294.524862 152.668203 
L 296.348764 146.441012 
L 303.644372 136.68438 
L 305.468274 136.639557 
L 307.292176 136.90823 
L 309.116078 138.02895 
L 310.93998 141.611477 
L 316.411685 129.565099 
L 318.235587 119.83695 
L 320.059489 140.977387 
L 321.883391 134.429838 
L 323.707293 131.184834 
L 329.178999 131.122205 
L 331.002901 124.2175 
L 332.826803 122.644428 
L 334.650705 132.274316 
L 336.474607 130.080802 
L 343.770215 146.857306 
L 345.594116 150.356835 
L 347.418018 159.512626 
L 349.24192 176.654522 
L 354.713626 175.78664 
L 356.537528 184.204014 
L 358.36143 183.919105 
L 360.185332 189.230546 
L 362.009234 170.347445 
L 367.48094 153.999568 
L 369.304842 147.090706 
L 371.128744 135.522932 
L 372.952646 184.119493 
L 374.776547 182.88511 
L 380.248253 195.469486 
L 382.072155 197.658586 
L 383.896057 181.362258 
L 385.719959 194.249166 
L 387.543861 210.776483 
L 393.015567 215.824484 
L 394.839469 207.254943 
L 396.663371 210.562057 
L 398.487273 223.966076 
" style="fill:none;stroke:#0000ff;stroke-linecap:square;stroke-opacity:0.9;stroke-width:2;"/>
   </g>
   <g id="line2d_14">
    <path clip-path="url(#pa58c7bea01)" d="M 73.832727 175.334488 
L 75.656629 171.381494 
L 77.480531 167.692206 
L 79.304433 172.581151 
L 81.128335 163.322892 
L 86.600041 161.137019 
L 88.423943 160.132383 
L 90.247845 160.167199 
L 92.071747 161.276865 
L 93.895649 160.71732 
L 101.191256 159.526458 
L 103.015158 162.903867 
L 104.83906 164.153797 
L 106.662962 172.301563 
L 112.134668 166.801768 
L 113.95857 173.965097 
L 115.782472 170.603357 
L 117.606374 172.561096 
L 119.430276 181.643026 
L 124.901982 193.957094 
L 126.725884 193.602667 
L 128.549785 189.257595 
L 130.373687 179.833211 
L 132.197589 174.896095 
L 137.669295 169.96515 
L 139.493197 184.927112 
L 141.317099 183.854514 
L 143.141001 190.918167 
L 144.964903 180.013182 
L 150.436609 188.219281 
L 152.260511 177.66188 
L 154.084413 175.559458 
L 155.908315 174.066535 
L 157.732217 170.5061 
L 163.203922 174.467262 
L 165.027824 179.964376 
L 166.851726 182.363841 
L 168.675628 164.708373 
L 170.49953 159.100322 
L 175.971236 157.24839 
L 177.795138 151.311052 
L 179.61904 146.639218 
L 181.442942 156.549165 
L 183.266844 160.545207 
L 188.73855 162.899079 
L 190.562451 166.510086 
L 192.386353 170.741958 
L 194.210255 160.702916 
L 196.034157 159.5849 
L 201.505863 159.140628 
L 203.329765 156.306644 
L 205.153667 150.675934 
L 206.977569 151.638197 
L 208.801471 151.727784 
L 214.273177 151.150241 
L 216.097079 156.846568 
L 217.920981 160.781383 
L 219.744883 160.782962 
L 221.568784 155.713686 
L 227.04049 153.933072 
L 228.864392 155.661724 
L 230.688294 155.946511 
L 232.512196 156.501208 
L 234.336098 159.215513 
L 239.807804 155.511402 
L 241.631706 148.60968 
L 243.455608 147.9519 
L 247.103412 167.562591 
L 252.575117 159.270333 
L 254.399019 175.124451 
L 256.222921 183.866731 
L 258.046823 174.050722 
L 259.870725 179.7606 
L 265.342431 168.270602 
L 267.166333 156.031752 
L 268.990235 151.62439 
L 270.814137 151.738245 
L 272.638039 147.215402 
L 278.109745 155.129498 
L 279.933647 154.436375 
L 281.757549 148.894565 
L 283.58145 148.272384 
L 285.405352 158.250239 
L 290.877058 167.131855 
L 292.70096 152.806172 
L 294.524862 147.919356 
L 296.348764 141.975534 
L 303.644372 131.828319 
L 305.468274 132.464973 
L 307.292176 131.752286 
L 309.116078 133.110663 
L 310.93998 135.785673 
L 316.411685 127.762837 
L 318.235587 120.090939 
L 320.059489 136.893711 
L 321.883391 134.137417 
L 323.707293 129.553728 
L 329.178999 130.67948 
L 331.002901 125.792683 
L 332.826803 125.701461 
L 334.650705 131.414497 
L 336.474607 132.189934 
L 343.770215 149.271957 
L 345.594116 156.092019 
L 347.418018 163.589823 
L 349.24192 179.061567 
L 354.713626 180.349942 
L 356.537528 178.336781 
L 358.36143 179.42102 
L 360.185332 185.827148 
L 362.009234 168.111695 
L 367.48094 156.931025 
L 369.304842 147.584479 
L 371.128744 136.072159 
L 372.952646 170.357694 
L 374.776547 164.077214 
L 380.248253 168.933166 
L 382.072155 163.749213 
L 383.896057 156.747509 
L 385.719959 169.3177 
L 387.543861 184.63136 
L 393.015567 192.051749 
L 394.839469 182.788934 
L 396.663371 184.906677 
L 398.487273 198.595124 
" style="fill:none;stroke:#ff0000;stroke-linecap:square;stroke-opacity:0.9;stroke-width:2;"/>
   </g>
   <g id="line2d_15">
    <path clip-path="url(#pa58c7bea01)" d="M 73.832727 175.334488 
L 75.656629 171.576063 
L 77.480531 168.259012 
L 79.304433 172.417939 
L 81.128335 165.171561 
L 86.600041 160.745524 
L 88.423943 159.66319 
L 90.247845 161.238493 
L 92.071747 159.849198 
L 93.895649 160.223688 
L 101.191256 160.691397 
L 103.015158 162.859355 
L 104.83906 165.103586 
L 106.662962 171.850006 
L 112.134668 165.447786 
L 113.95857 175.80792 
L 115.782472 170.920057 
L 117.606374 171.822385 
L 119.430276 178.724882 
L 124.901982 191.503079 
L 126.725884 192.964575 
L 128.549785 187.515669 
L 130.373687 176.382468 
L 132.197589 169.979246 
L 137.669295 163.130987 
L 139.493197 179.468505 
L 141.317099 176.93925 
L 143.141001 182.385087 
L 144.964903 171.115308 
L 150.436609 185.004048 
L 152.260511 173.646301 
L 154.084413 170.51582 
L 155.908315 168.55572 
L 157.732217 165.638641 
L 163.203922 169.498128 
L 165.027824 175.551427 
L 166.851726 176.696107 
L 168.675628 162.543832 
L 170.49953 161.211741 
L 175.971236 155.62808 
L 177.795138 147.901831 
L 179.61904 144.398668 
L 181.442942 156.938358 
L 183.266844 166.886387 
L 188.73855 166.044325 
L 190.562451 172.447245 
L 192.386353 174.708102 
L 194.210255 164.958301 
L 196.034157 164.206019 
L 201.505863 160.101122 
L 203.329765 158.240007 
L 205.153667 152.7483 
L 206.977569 151.961818 
L 208.801471 146.853225 
L 214.273177 146.026862 
L 216.097079 155.637499 
L 217.920981 161.480766 
L 219.744883 161.133518 
L 221.568784 155.95941 
L 227.04049 152.957927 
L 228.864392 156.98286 
L 230.688294 157.514256 
L 232.512196 159.19146 
L 234.336098 159.479885 
L 239.807804 154.329848 
L 241.631706 148.77465 
L 243.455608 149.132794 
L 247.103412 166.088885 
L 252.575117 156.448645 
L 254.399019 171.096285 
L 256.222921 181.140003 
L 258.046823 172.76382 
L 259.870725 177.761293 
L 265.342431 163.502858 
L 267.166333 150.390525 
L 268.990235 143.952927 
L 270.814137 143.581816 
L 272.638039 140.859007 
L 278.109745 148.303242 
L 279.933647 145.017465 
L 281.757549 140.1182 
L 283.58145 137.194547 
L 285.405352 146.983015 
L 290.877058 156.672135 
L 292.70096 139.131624 
L 294.524862 135.433784 
L 296.348764 128.598385 
L 303.644372 118.594287 
L 305.468274 119.588328 
L 307.292176 119.212792 
L 309.116078 120.178805 
L 310.93998 123.638911 
L 316.411685 111.963126 
L 318.235587 101.533633 
L 320.059489 122.497553 
L 321.883391 114.336794 
L 323.707293 111.560286 
L 329.178999 110.079812 
L 331.002901 102.939422 
L 332.826803 101.359778 
L 334.650705 110.847204 
L 336.474607 108.863678 
L 343.770215 125.608236 
L 345.594116 129.236537 
L 347.418018 138.612688 
L 349.24192 156.139545 
L 354.713626 155.223757 
L 356.537528 163.943711 
L 358.36143 163.879519 
L 360.185332 168.901815 
L 362.009234 149.918525 
L 367.48094 133.255793 
L 369.304842 126.150964 
L 371.128744 112.266629 
L 372.952646 165.592047 
L 374.776547 164.843471 
L 380.248253 177.920646 
L 382.072155 179.97616 
L 383.896057 163.169793 
L 385.719959 176.766337 
L 387.543861 193.251915 
L 393.015567 198.48947 
L 394.839469 189.068565 
L 396.663371 193.058763 
L 398.487273 206.267597 
" style="fill:none;stroke:#ff8040;stroke-linecap:square;stroke-opacity:0.9;stroke-width:2;"/>
   </g>
   <g id="line2d_16">
    <path clip-path="url(#pa58c7bea01)" d="M 73.832727 176.070061 
L 75.656629 174.074661 
L 77.480531 172.43396 
L 79.304433 177.879747 
L 81.128335 169.722883 
L 86.600041 171.650505 
L 88.423943 172.113335 
L 90.247845 173.81965 
L 92.071747 175.118752 
L 93.895649 175.277568 
L 101.191256 173.790611 
L 103.015158 178.75657 
L 104.83906 180.93241 
L 106.662962 187.617958 
L 112.134668 181.248639 
L 113.95857 187.069062 
L 115.782472 183.160087 
L 117.606374 187.036929 
L 119.430276 195.129386 
L 124.901982 208.424168 
L 126.725884 209.451711 
L 128.549785 205.45912 
L 130.373687 196.62375 
L 132.197589 191.318786 
L 137.669295 188.380897 
L 139.493197 203.993798 
L 141.317099 204.010358 
L 143.141001 211.115697 
L 144.964903 200.736127 
L 150.436609 214.082864 
L 152.260511 204.950188 
L 154.084413 206.002497 
L 155.908315 203.825864 
L 157.732217 202.212378 
L 163.203922 203.456968 
L 165.027824 208.281446 
L 166.851726 209.174714 
L 168.675628 193.265623 
L 170.49953 188.947234 
L 175.971236 186.010313 
L 177.795138 178.548986 
L 179.61904 177.535511 
L 181.442942 190.565089 
L 183.266844 198.3748 
L 188.73855 201.088931 
L 190.562451 207.190625 
L 192.386353 207.546506 
L 194.210255 200.327991 
L 196.034157 199.569793 
L 201.505863 196.611223 
L 203.329765 194.683261 
L 205.153667 190.60942 
L 206.977569 192.460735 
L 208.801471 189.739797 
L 214.273177 188.375092 
L 216.097079 194.263722 
L 217.920981 198.733738 
L 219.744883 197.620705 
L 221.568784 194.982972 
L 227.04049 193.165577 
L 228.864392 195.659295 
L 230.688294 195.905384 
L 232.512196 196.404675 
L 234.336098 196.550042 
L 239.807804 197.563027 
L 241.631706 189.1365 
L 243.455608 186.364136 
L 247.103412 205.239504 
L 252.575117 199.867519 
L 254.399019 217.505658 
L 256.222921 223.927829 
L 258.046823 212.574857 
L 259.870725 217.135607 
L 265.342431 209.865964 
L 267.166333 199.976889 
L 268.990235 195.272262 
L 270.814137 195.13981 
L 272.638039 187.864239 
L 278.109745 195.788873 
L 279.933647 196.724768 
L 281.757549 192.161967 
L 283.58145 197.609409 
L 285.405352 205.843002 
L 290.877058 213.299378 
L 292.70096 201.273511 
L 294.524862 197.772142 
L 296.348764 190.821587 
L 303.644372 180.61179 
L 305.468274 180.509384 
L 307.292176 180.158493 
L 309.116078 182.277616 
L 310.93998 183.860119 
L 316.411685 173.339375 
L 318.235587 165.310529 
L 320.059489 180.949543 
L 321.883391 180.251377 
L 323.707293 178.957488 
L 329.178999 180.611914 
L 331.002901 175.549524 
L 332.826803 176.138105 
L 334.650705 183.265644 
L 336.474607 180.740989 
L 343.770215 195.977358 
L 345.594116 202.277566 
L 347.418018 210.625633 
L 349.24192 223.913857 
L 354.713626 224.795564 
L 356.537528 226.664488 
L 358.36143 228.243447 
L 360.185332 234.054249 
L 362.009234 222.409404 
L 367.48094 209.634928 
L 369.304842 200.260957 
L 371.128744 188.740172 
L 372.952646 229.34398 
L 374.776547 224.420317 
L 380.248253 232.306248 
L 382.072155 227.180094 
L 383.896057 224.204351 
L 385.719959 235.544285 
L 387.543861 250.41456 
L 393.015567 257.031345 
L 394.839469 248.212405 
L 396.663371 249.568764 
L 398.487273 265.797818 
" style="fill:none;stroke:#0d0d0d;stroke-linecap:square;stroke-opacity:0.25;stroke-width:2;"/>
   </g>
   <g id="line2d_17">
    <path clip-path="url(#pa58c7bea01)" d="M 73.832727 174.598916 
L 75.656629 168.635716 
L 77.480531 163.458596 
L 79.304433 167.680753 
L 81.128335 157.882095 
L 86.600041 152.301657 
L 88.423943 149.005718 
L 90.247845 147.410894 
L 92.071747 145.569492 
L 93.895649 144.718243 
L 101.191256 146.118984 
L 103.015158 149.648523 
L 104.83906 151.250025 
L 106.662962 156.906064 
L 112.134668 152.604466 
L 113.95857 160.395245 
L 115.782472 155.103246 
L 117.606374 157.251561 
L 119.430276 165.079334 
L 124.901982 175.115843 
L 126.725884 176.039061 
L 128.549785 168.219561 
L 130.373687 158.327389 
L 132.197589 153.007682 
L 137.669295 145.390764 
L 139.493197 158.756474 
L 141.317099 158.252757 
L 143.141001 164.441621 
L 144.964903 153.156682 
L 150.436609 160.576101 
L 152.260511 150.734394 
L 154.084413 147.733605 
L 155.908315 144.783733 
L 157.732217 141.170684 
L 163.203922 146.7013 
L 165.027824 152.300666 
L 166.851726 157.067492 
L 168.675628 138.348455 
L 170.49953 132.117316 
L 175.971236 125.891512 
L 177.795138 117.762543 
L 179.61904 111.607553 
L 181.442942 110.887404 
L 183.266844 109.14757 
L 188.73855 111.593165 
L 190.562451 118.643112 
L 192.386353 123.05949 
L 194.210255 113.446679 
L 196.034157 111.287053 
L 201.505863 109.724575 
L 203.329765 108.096788 
L 205.153667 101.17993 
L 206.977569 104.155079 
L 208.801471 101.930277 
L 214.273177 98.906824 
L 216.097079 104.583189 
L 217.920981 104.009028 
L 219.744883 103.574137 
L 221.568784 100.934781 
L 227.04049 101.347404 
L 228.864392 102.660415 
L 230.688294 102.094566 
L 232.512196 98.641734 
L 234.336098 104.316594 
L 239.807804 105.907609 
L 241.631706 102.829319 
L 243.455608 99.991786 
L 247.103412 119.844378 
L 252.575117 108.569792 
L 254.399019 126.809735 
L 256.222921 137.92121 
L 258.046823 125.375595 
L 259.870725 126.744099 
L 265.342431 115.101211 
L 267.166333 98.690455 
L 268.990235 97.662302 
L 270.814137 99.118434 
L 272.638039 97.56744 
L 278.109745 101.426475 
L 279.933647 102.075751 
L 281.757549 95.214609 
L 283.58145 84.993402 
L 285.405352 99.078077 
L 290.877058 109.038224 
L 292.70096 95.244537 
L 294.524862 90.366552 
L 296.348764 81.923435 
L 303.644372 69.842517 
L 305.468274 69.754636 
L 307.292176 67.965958 
L 309.116078 69.252772 
L 310.93998 74.063121 
L 316.411685 61.586919 
L 318.235587 52.154182 
L 320.059489 73.524202 
L 321.883391 71.925626 
L 323.707293 67.99252 
L 329.178999 67.867879 
L 331.002901 63.477377 
L 332.826803 63.880116 
L 334.650705 73.862754 
L 336.474607 72.880159 
L 343.770215 92.234752 
L 345.594116 96.679522 
L 347.418018 103.741594 
L 349.24192 125.675204 
L 354.713626 124.552226 
L 356.537528 122.389174 
L 358.36143 125.008906 
L 360.185332 133.028061 
L 362.009234 112.138218 
L 367.48094 98.152562 
L 369.304842 89.716078 
L 371.128744 76.799237 
L 372.952646 104.149887 
L 374.776547 102.711249 
L 380.248253 109.052509 
L 382.072155 105.499346 
L 383.896057 95.203394 
L 385.719959 104.588675 
L 387.543861 120.705181 
L 393.015567 129.086247 
L 394.839469 119.97796 
L 396.663371 122.828887 
L 398.487273 136.221327 
" style="fill:none;stroke:#0d0d0d;stroke-linecap:square;stroke-opacity:0.25;stroke-width:2;"/>
   </g>
   <g id="patch_3">
    <path d="M 57.6 276.48 
L 57.6 41.472 
" style="fill:none;stroke:#000000;stroke-linecap:square;stroke-linejoin:miter;stroke-width:0.8;"/>
   </g>
   <g id="patch_4">
    <path d="M 414.72 276.48 
L 414.72 41.472 
" style="fill:none;stroke:#000000;stroke-linecap:square;stroke-linejoin:miter;stroke-width:0.8;"/>
   </g>
   <g id="patch_5">
    <path d="M 57.6 276.48 
L 414.72 276.48 
" style="fill:none;stroke:#000000;stroke-linecap:square;stroke-linejoin:miter;stroke-width:0.8;"/>
   </g>
   <g id="patch_6">
    <path d="M 57.6 41.472 
L 414.72 41.472 
" style="fill:none;stroke:#000000;stroke-linecap:square;stroke-linejoin:miter;stroke-width:0.8;"/>
   </g>
   <g id="text_14">
    <!-- TESTFUNDS1330 -->
    <g transform="translate(185.200312 22.034625)scale(0.12 -0.12)">
     <defs>
      <path d="M -19 4666 
L 3928 4666 
L 3928 4134 
L 2272 4134 
L 2272 0 
L 1638 0 
L 1638 4134 
L -19 4134 
L -19 4666 
z
" id="DejaVuSans-54" transform="scale(0.015625)"/>
      <path d="M 628 4666 
L 3578 4666 
L 3578 4134 
L 1259 4134 
L 1259 2753 
L 3481 2753 
L 3481 2222 
L 1259 2222 
L 1259 531 
L 3634 531 
L 3634 0 
L 628 0 
L 628 4666 
z
" id="DejaVuSans-45" transform="scale(0.015625)"/>
      <path d="M 3425 4513 
L 3425 3897 
Q 3066 4069 2747 4153 
Q 2428 4238 2131 4238 
Q 1616 4238 1336 4038 
Q 1056 3838 1056 3469 
Q 1056 3159 1242 3001 
Q 1428 2844 1947 2747 
L 2328 2669 
Q 3034 2534 3370 2195 
Q 3706 1856 3706 1288 
Q 3706 609 3251 259 
Q 2797 -91 1919 -91 
Q 1588 -91 1214 -16 
Q 841 59 441 206 
L 441 856 
Q 825 641 1194 531 
Q 1563 422 1919 422 
Q 2459 422 2753 634 
Q 3047 847 3047 1241 
Q 3047 1584 2836 1778 
Q 2625 1972 2144 2069 
L 1759 2144 
Q 1053 2284 737 2584 
Q 422 2884 422 3419 
Q 422 4038 858 4394 
Q 1294 4750 2059 4750 
Q 2388 4750 2728 4690 
Q 3069 4631 3425 4513 
z
" id="DejaVuSans-53" transform="scale(0.015625)"/>
      <path d="M 628 4666 
L 3309 4666 
L 3309 4134 
L 1259 4134 
L 1259 2759 
L 3109 2759 
L 3109 2228 
L 1259 2228 
L 1259 0 
L 628 0 
L 628 4666 
z
" id="DejaVuSans-46" transform="scale(0.015625)"/>
      <path d="M 556 4666 
L 1191 4666 
L 1191 1831 
Q 1191 1081 1462 751 
Q 1734 422 2344 422 
Q 2950 422 3222 751 
Q 3494 1081 3494 1831 
L 3494 4666 
L 4128 4666 
L 4128 1753 
Q 4128 841 3676 375 
Q 3225 -91 2344 -91 
Q 1459 -91 1007 375 
Q 556 841 556 1753 
L 556 4666 
z
" id="DejaVuSans-55" transform="scale(0.015625)"/>
      <path d="M 628 4666 
L 1478 4666 
L 3547 763 
L 3547 4666 
L 4159 4666 
L 4159 0 
L 3309 0 
L 1241 3903 
L 1241 0 
L 628 0 
L 628 4666 
z
" id="DejaVuSans-4e" transform="scale(0.015625)"/>
      <path d="M 1259 4147 
L 1259 519 
L 2022 519 
Q 2988 519 3436 956 
Q 3884 1394 3884 2338 
Q 3884 3275 3436 3711 
Q 2988 4147 2022 4147 
L 1259 4147 
z
M 628 4666 
L 1925 4666 
Q 3281 4666 3915 4102 
Q 4550 3538 4550 2338 
Q 4550 1131 3912 565 
Q 3275 0 1925 0 
L 628 0 
L 628 4666 
z
" id="DejaVuSans-44" transform="scale(0.015625)"/>
      <path d="M 2597 2516 
Q 3050 2419 3304 2112 
Q 3559 1806 3559 1356 
Q 3559 666 3084 287 
Q 2609 -91 1734 -91 
Q 1441 -91 1130 -33 
Q 819 25 488 141 
L 488 750 
Q 750 597 1062 519 
Q 1375 441 1716 441 
Q 2309 441 2620 675 
Q 2931 909 2931 1356 
Q 2931 1769 2642 2001 
Q 2353 2234 1838 2234 
L 1294 2234 
L 1294 2753 
L 1863 2753 
Q 2328 2753 2575 2939 
Q 2822 3125 2822 3475 
Q 2822 3834 2567 4026 
Q 2313 4219 1838 4219 
Q 1578 4219 1281 4162 
Q 984 4106 628 3988 
L 628 4550 
Q 988 4650 1302 4700 
Q 1616 4750 1894 4750 
Q 2613 4750 3031 4423 
Q 3450 4097 3450 3541 
Q 3450 3153 3228 2886 
Q 3006 2619 2597 2516 
z
" id="DejaVuSans-33" transform="scale(0.015625)"/>
     </defs>
     <use xlink:href="#DejaVuSans-54"/>
     <use x="61.083984" xlink:href="#DejaVuSans-45"/>
     <use x="124.267578" xlink:href="#DejaVuSans-53"/>
     <use x="187.744141" xlink:href="#DejaVuSans-54"/>
     <use x="248.828125" xlink:href="#DejaVuSans-46"/>
     <use x="306.347656" xlink:href="#DejaVuSans-55"/>
     <use x="379.541016" xlink:href="#DejaVuSans-4e"/>
     <use x="454.345703" xlink:href="#DejaVuSans-44"/>
     <use x="531.347656" xlink:href="#DejaVuSans-53"/>
     <use x="594.824219" xlink:href="#DejaVuSans-31"/>
     <use x="658.447266" xlink:href="#DejaVuSans-33"/>
     <use x="722.070312" xlink:href="#DejaVuSans-33"/>
     <use x="785.693359" xlink:href="#DejaVuSans-30"/>
    </g>
    <!-- daily_report -->
    <g transform="translate(200.466563 35.472)scale(0.12 -0.12)">
     <defs>
      <path d="M 603 3500 
L 1178 3500 
L 1178 0 
L 603 0 
L 603 3500 
z
M 603 4863 
L 1178 4863 
L 1178 4134 
L 603 4134 
L 603 4863 
z
" id="DejaVuSans-69" transform="scale(0.015625)"/>
      <path d="M 603 4863 
L 1178 4863 
L 1178 0 
L 603 0 
L 603 4863 
z
" id="DejaVuSans-6c" transform="scale(0.015625)"/>
      <path d="M 2059 -325 
Q 1816 -950 1584 -1140 
Q 1353 -1331 966 -1331 
L 506 -1331 
L 506 -850 
L 844 -850 
Q 1081 -850 1212 -737 
Q 1344 -625 1503 -206 
L 1606 56 
L 191 3500 
L 800 3500 
L 1894 763 
L 2988 3500 
L 3597 3500 
L 2059 -325 
z
" id="DejaVuSans-79" transform="scale(0.015625)"/>
      <path d="M 3263 -1063 
L 3263 -1509 
L -63 -1509 
L -63 -1063 
L 3263 -1063 
z
" id="DejaVuSans-5f" transform="scale(0.015625)"/>
      <path d="M 2631 2963 
Q 2534 3019 2420 3045 
Q 2306 3072 2169 3072 
Q 1681 3072 1420 2755 
Q 1159 2438 1159 1844 
L 1159 0 
L 581 0 
L 581 3500 
L 1159 3500 
L 1159 2956 
Q 1341 3275 1631 3429 
Q 1922 3584 2338 3584 
Q 2397 3584 2469 3576 
Q 2541 3569 2628 3553 
L 2631 2963 
z
" id="DejaVuSans-72" transform="scale(0.015625)"/>
      <path d="M 1159 525 
L 1159 -1331 
L 581 -1331 
L 581 3500 
L 1159 3500 
L 1159 2969 
Q 1341 3281 1617 3432 
Q 1894 3584 2278 3584 
Q 2916 3584 3314 3078 
Q 3713 2572 3713 1747 
Q 3713 922 3314 415 
Q 2916 -91 2278 -91 
Q 1894 -91 1617 61 
Q 1341 213 1159 525 
z
M 3116 1747 
Q 3116 2381 2855 2742 
Q 2594 3103 2138 3103 
Q 1681 3103 1420 2742 
Q 1159 2381 1159 1747 
Q 1159 1113 1420 752 
Q 1681 391 2138 391 
Q 2594 391 2855 752 
Q 3116 1113 3116 1747 
z
" id="DejaVuSans-70" transform="scale(0.015625)"/>
      <path d="M 1959 3097 
Q 1497 3097 1228 2736 
Q 959 2375 959 1747 
Q 959 1119 1226 758 
Q 1494 397 1959 397 
Q 2419 397 2687 759 
Q 2956 1122 2956 1747 
Q 2956 2369 2687 2733 
Q 2419 3097 1959 3097 
z
M 1959 3584 
Q 2709 3584 3137 3096 
Q 3566 2609 3566 1747 
Q 3566 888 3137 398 
Q 2709 -91 1959 -91 
Q 1206 -91 779 398 
Q 353 888 353 1747 
Q 353 2609 779 3096 
Q 1206 3584 1959 3584 
z
" id="DejaVuSans-6f" transform="scale(0.015625)"/>
     </defs>
     <use xlink:href="#DejaVuSans-64"/>
     <use x="63.476562" xlink:href="#DejaVuSans-61"/>
     <use x="124.755859" xlink:href="#DejaVuSans-69"/>
     <use x="152.539062" xlink:href="#DejaVuSans-6c"/>
     <use x="180.322266" xlink:href="#DejaVuSans-79"/>
     <use x="239.501953" xlink:href="#DejaVuSans-5f"/>
     <use x="289.501953" xlink:href="#DejaVuSans-72"/>
     <use x="328.365234" xlink:href="#DejaVuSans-65"/>
     <use x="389.888672" xlink:href="#DejaVuSans-70"/>
     <use x="453.365234" xlink:href="#DejaVuSans-6f"/>
     <use x="514.546875" xlink:href="#DejaVuSans-72"/>
     <use x="555.660156" xlink:href="#DejaVuSans-74"/>
    </g>
   </g>
   <g id="legend_1">
    <g id="patch_7">
     <path d="M 64.6 122.862625 
L 155.792188 122.862625 
Q 157.792188 122.862625 157.792188 120.862625 
L 157.792188 48.472 
Q 157.792188 46.472 155.792188 46.472 
L 64.6 46.472 
Q 62.6 46.472 62.6 48.472 
L 62.6 120.862625 
Q 62.6 122.862625 64.6 122.862625 
z
" style="fill:#ffffff;opacity:0.8;stroke:#cccccc;stroke-linejoin:miter;"/>
    </g>
    <g id="line2d_18">
     <path d="M 66.6 54.570437 
L 86.6 54.570437 
" style="fill:none;stroke:#0000ff;stroke-linecap:square;stroke-opacity:0.9;stroke-width:2;"/>
    </g>
    <g id="line2d_19"/>
    <g id="text_15">
     <!-- alpaca -->
     <g transform="translate(94.6 58.070437)scale(0.1 -0.1)">
      <defs>
       <path d="M 3122 3366 
L 3122 2828 
Q 2878 2963 2633 3030 
Q 2388 3097 2138 3097 
Q 1578 3097 1268 2742 
Q 959 2388 959 1747 
Q 959 1106 1268 751 
Q 1578 397 2138 397 
Q 2388 397 2633 464 
Q 2878 531 3122 666 
L 3122 134 
Q 2881 22 2623 -34 
Q 2366 -91 2075 -91 
Q 1284 -91 818 406 
Q 353 903 353 1747 
Q 353 2603 823 3093 
Q 1294 3584 2113 3584 
Q 2378 3584 2631 3529 
Q 2884 3475 3122 3366 
z
" id="DejaVuSans-63" transform="scale(0.015625)"/>
      </defs>
      <use xlink:href="#DejaVuSans-61"/>
      <use x="61.279297" xlink:href="#DejaVuSans-6c"/>
      <use x="89.0625" xlink:href="#DejaVuSans-70"/>
      <use x="152.539062" xlink:href="#DejaVuSans-61"/>
      <use x="213.818359" xlink:href="#DejaVuSans-63"/>
      <use x="268.798828" xlink:href="#DejaVuSans-61"/>
     </g>
    </g>
    <g id="line2d_20">
     <path d="M 66.6 69.248562 
L 86.6 69.248562 
" style="fill:none;stroke:#ff0000;stroke-linecap:square;stroke-opacity:0.9;stroke-width:2;"/>
    </g>
    <g id="line2d_21"/>
    <g id="text_16">
     <!-- mattress -->
     <g transform="translate(94.6 72.748562)scale(0.1 -0.1)">
      <defs>
       <path d="M 3328 2828 
Q 3544 3216 3844 3400 
Q 4144 3584 4550 3584 
Q 5097 3584 5394 3201 
Q 5691 2819 5691 2113 
L 5691 0 
L 5113 0 
L 5113 2094 
Q 5113 2597 4934 2840 
Q 4756 3084 4391 3084 
Q 3944 3084 3684 2787 
Q 3425 2491 3425 1978 
L 3425 0 
L 2847 0 
L 2847 2094 
Q 2847 2600 2669 2842 
Q 2491 3084 2119 3084 
Q 1678 3084 1418 2786 
Q 1159 2488 1159 1978 
L 1159 0 
L 581 0 
L 581 3500 
L 1159 3500 
L 1159 2956 
Q 1356 3278 1631 3431 
Q 1906 3584 2284 3584 
Q 2666 3584 2933 3390 
Q 3200 3197 3328 2828 
z
" id="DejaVuSans-6d" transform="scale(0.015625)"/>
       <path d="M 2834 3397 
L 2834 2853 
Q 2591 2978 2328 3040 
Q 2066 3103 1784 3103 
Q 1356 3103 1142 2972 
Q 928 2841 928 2578 
Q 928 2378 1081 2264 
Q 1234 2150 1697 2047 
L 1894 2003 
Q 2506 1872 2764 1633 
Q 3022 1394 3022 966 
Q 3022 478 2636 193 
Q 2250 -91 1575 -91 
Q 1294 -91 989 -36 
Q 684 19 347 128 
L 347 722 
Q 666 556 975 473 
Q 1284 391 1588 391 
Q 1994 391 2212 530 
Q 2431 669 2431 922 
Q 2431 1156 2273 1281 
Q 2116 1406 1581 1522 
L 1381 1569 
Q 847 1681 609 1914 
Q 372 2147 372 2553 
Q 372 3047 722 3315 
Q 1072 3584 1716 3584 
Q 2034 3584 2315 3537 
Q 2597 3491 2834 3397 
z
" id="DejaVuSans-73" transform="scale(0.015625)"/>
      </defs>
      <use xlink:href="#DejaVuSans-6d"/>
      <use x="97.412109" xlink:href="#DejaVuSans-61"/>
      <use x="158.691406" xlink:href="#DejaVuSans-74"/>
      <use x="197.900391" xlink:href="#DejaVuSans-74"/>
      <use x="237.109375" xlink:href="#DejaVuSans-72"/>
      <use x="275.972656" xlink:href="#DejaVuSans-65"/>
      <use x="337.496094" xlink:href="#DejaVuSans-73"/>
      <use x="389.595703" xlink:href="#DejaVuSans-73"/>
     </g>
    </g>
    <g id="line2d_22">
     <path d="M 66.6 83.926687 
L 86.6 83.926687 
" style="fill:none;stroke:#ff8040;stroke-linecap:square;stroke-opacity:0.9;stroke-width:2;"/>
    </g>
    <g id="line2d_23"/>
    <g id="text_17">
     <!-- trader-0850 -->
     <g transform="translate(94.6 87.426687)scale(0.1 -0.1)">
      <defs>
       <path d="M 2034 2216 
Q 1584 2216 1326 1975 
Q 1069 1734 1069 1313 
Q 1069 891 1326 650 
Q 1584 409 2034 409 
Q 2484 409 2743 651 
Q 3003 894 3003 1313 
Q 3003 1734 2745 1975 
Q 2488 2216 2034 2216 
z
M 1403 2484 
Q 997 2584 770 2862 
Q 544 3141 544 3541 
Q 544 4100 942 4425 
Q 1341 4750 2034 4750 
Q 2731 4750 3128 4425 
Q 3525 4100 3525 3541 
Q 3525 3141 3298 2862 
Q 3072 2584 2669 2484 
Q 3125 2378 3379 2068 
Q 3634 1759 3634 1313 
Q 3634 634 3220 271 
Q 2806 -91 2034 -91 
Q 1263 -91 848 271 
Q 434 634 434 1313 
Q 434 1759 690 2068 
Q 947 2378 1403 2484 
z
M 1172 3481 
Q 1172 3119 1398 2916 
Q 1625 2713 2034 2713 
Q 2441 2713 2670 2916 
Q 2900 3119 2900 3481 
Q 2900 3844 2670 4047 
Q 2441 4250 2034 4250 
Q 1625 4250 1398 4047 
Q 1172 3844 1172 3481 
z
" id="DejaVuSans-38" transform="scale(0.015625)"/>
      </defs>
      <use xlink:href="#DejaVuSans-74"/>
      <use x="39.208984" xlink:href="#DejaVuSans-72"/>
      <use x="80.322266" xlink:href="#DejaVuSans-61"/>
      <use x="141.601562" xlink:href="#DejaVuSans-64"/>
      <use x="205.078125" xlink:href="#DejaVuSans-65"/>
      <use x="266.601562" xlink:href="#DejaVuSans-72"/>
      <use x="301.339844" xlink:href="#DejaVuSans-2d"/>
      <use x="337.423828" xlink:href="#DejaVuSans-30"/>
      <use x="401.046875" xlink:href="#DejaVuSans-38"/>
      <use x="464.669922" xlink:href="#DejaVuSans-35"/>
      <use x="528.292969" xlink:href="#DejaVuSans-30"/>
     </g>
    </g>
    <g id="line2d_24">
     <path d="M 66.6 98.604812 
L 86.6 98.604812 
" style="fill:none;stroke:#0d0d0d;stroke-linecap:square;stroke-opacity:0.25;stroke-width:2;"/>
    </g>
    <g id="line2d_25"/>
    <g id="text_18">
     <!-- rando-min -->
     <g transform="translate(94.6 102.104812)scale(0.1 -0.1)">
      <defs>
       <path d="M 3513 2113 
L 3513 0 
L 2938 0 
L 2938 2094 
Q 2938 2591 2744 2837 
Q 2550 3084 2163 3084 
Q 1697 3084 1428 2787 
Q 1159 2491 1159 1978 
L 1159 0 
L 581 0 
L 581 3500 
L 1159 3500 
L 1159 2956 
Q 1366 3272 1645 3428 
Q 1925 3584 2291 3584 
Q 2894 3584 3203 3211 
Q 3513 2838 3513 2113 
z
" id="DejaVuSans-6e" transform="scale(0.015625)"/>
      </defs>
      <use xlink:href="#DejaVuSans-72"/>
      <use x="41.113281" xlink:href="#DejaVuSans-61"/>
      <use x="102.392578" xlink:href="#DejaVuSans-6e"/>
      <use x="165.771484" xlink:href="#DejaVuSans-64"/>
      <use x="229.248047" xlink:href="#DejaVuSans-6f"/>
      <use x="292.304688" xlink:href="#DejaVuSans-2d"/>
      <use x="328.388672" xlink:href="#DejaVuSans-6d"/>
      <use x="425.800781" xlink:href="#DejaVuSans-69"/>
      <use x="453.583984" xlink:href="#DejaVuSans-6e"/>
     </g>
    </g>
    <g id="line2d_26">
     <path d="M 66.6 113.282937 
L 86.6 113.282937 
" style="fill:none;stroke:#0d0d0d;stroke-linecap:square;stroke-opacity:0.25;stroke-width:2;"/>
    </g>
    <g id="line2d_27"/>
    <g id="text_19">
     <!-- rando-max -->
     <g transform="translate(94.6 116.782937)scale(0.1 -0.1)">
      <defs>
       <path d="M 3513 3500 
L 2247 1797 
L 3578 0 
L 2900 0 
L 1881 1375 
L 863 0 
L 184 0 
L 1544 1831 
L 300 3500 
L 978 3500 
L 1906 2253 
L 2834 3500 
L 3513 3500 
z
" id="DejaVuSans-78" transform="scale(0.015625)"/>
      </defs>
      <use xlink:href="#DejaVuSans-72"/>
      <use x="41.113281" xlink:href="#DejaVuSans-61"/>
      <use x="102.392578" xlink:href="#DejaVuSans-6e"/>
      <use x="165.771484" xlink:href="#DejaVuSans-64"/>
      <use x="229.248047" xlink:href="#DejaVuSans-6f"/>
      <use x="292.304688" xlink:href="#DejaVuSans-2d"/>
      <use x="328.388672" xlink:href="#DejaVuSans-6d"/>
      <use x="425.800781" xlink:href="#DejaVuSans-61"/>
      <use x="487.080078" xlink:href="#DejaVuSans-78"/>
     </g>
    </g>
   </g>
  </g>
 </g>
 <defs>
  <clipPath id="pa58c7bea01">
   <rect height="235.008" width="357.12" x="57.6" y="41.472"/>
  </clipPath>
 </defs>
</svg>
