<?xml version="1.0" encoding="utf-8" standalone="no"?>
<!DOCTYPE svg PUBLIC "-//W3C//DTD SVG 1.1//EN"
  "http://www.w3.org/Graphics/SVG/1.1/DTD/svg11.dtd">
<svg height="345.6pt" version="1.1" viewBox="0 0 460.8 345.6" width="460.8pt" xmlns="http://www.w3.org/2000/svg" xmlns:xlink="http://www.w3.org/1999/xlink">
 <metadata>
  <rdf:RDF xmlns:cc="http://creativecommons.org/ns#" xmlns:dc="http://purl.org/dc/elements/1.1/" xmlns:rdf="http://www.w3.org/1999/02/22-rdf-syntax-ns#">
   <cc:Work>
    <dc:type rdf:resource="http://purl.org/dc/dcmitype/StillImage"/>
    <dc:date>2022-02-01T01:01:35.825766</dc:date>
    <dc:format>image/svg+xml</dc:format>
    <dc:creator>
     <cc:Agent>
      <dc:title>Matplotlib v3.4.3, https://matplotlib.org/</dc:title>
     </cc:Agent>
    </dc:creator>
   </cc:Work>
  </rdf:RDF>
 </metadata>
 <defs>
  <style type="text/css">*{stroke-linecap:butt;stroke-linejoin:round;}</style>
 </defs>
 <g id="figure_1">
  <g id="patch_1">
   <path d="M 0 345.6 
L 460.8 345.6 
L 460.8 0 
L 0 0 
z
" style="fill:#ffffff;"/>
  </g>
  <g id="axes_1">
   <g id="patch_2">
    <path d="M 57.6 276.48 
L 414.72 276.48 
L 414.72 41.472 
L 57.6 41.472 
z
" style="fill:#ffffff;"/>
   </g>
   <g id="matplotlib.axis_1">
    <g id="xtick_1">
     <g id="line2d_1">
      <defs>
       <path d="M 0 0 
L 0 3.5 
" id="m45fead8f50" style="stroke:#000000;stroke-width:0.8;"/>
      </defs>
      <g>
       <use style="stroke:#000000;stroke-width:0.8;" x="91.981118" xlink:href="#m45fead8f50" y="276.48"/>
      </g>
     </g>
     <g id="text_1">
      <!-- 2021-09 -->
      <g transform="translate(54.756297 310.951846)rotate(-30)scale(0.1 -0.1)">
       <defs>
        <path d="M 1228 531 
L 3431 531 
L 3431 0 
L 469 0 
L 469 531 
Q 828 903 1448 1529 
Q 2069 2156 2228 2338 
Q 2531 2678 2651 2914 
Q 2772 3150 2772 3378 
Q 2772 3750 2511 3984 
Q 2250 4219 1831 4219 
Q 1534 4219 1204 4116 
Q 875 4013 500 3803 
L 500 4441 
Q 881 4594 1212 4672 
Q 1544 4750 1819 4750 
Q 2544 4750 2975 4387 
Q 3406 4025 3406 3419 
Q 3406 3131 3298 2873 
Q 3191 2616 2906 2266 
Q 2828 2175 2409 1742 
Q 1991 1309 1228 531 
z
" id="DejaVuSans-32" transform="scale(0.015625)"/>
        <path d="M 2034 4250 
Q 1547 4250 1301 3770 
Q 1056 3291 1056 2328 
Q 1056 1369 1301 889 
Q 1547 409 2034 409 
Q 2525 409 2770 889 
Q 3016 1369 3016 2328 
Q 3016 3291 2770 3770 
Q 2525 4250 2034 4250 
z
M 2034 4750 
Q 2819 4750 3233 4129 
Q 3647 3509 3647 2328 
Q 3647 1150 3233 529 
Q 2819 -91 2034 -91 
Q 1250 -91 836 529 
Q 422 1150 422 2328 
Q 422 3509 836 4129 
Q 1250 4750 2034 4750 
z
" id="DejaVuSans-30" transform="scale(0.015625)"/>
        <path d="M 794 531 
L 1825 531 
L 1825 4091 
L 703 3866 
L 703 4441 
L 1819 4666 
L 2450 4666 
L 2450 531 
L 3481 531 
L 3481 0 
L 794 0 
L 794 531 
z
" id="DejaVuSans-31" transform="scale(0.015625)"/>
        <path d="M 313 2009 
L 1997 2009 
L 1997 1497 
L 313 1497 
L 313 2009 
z
" id="DejaVuSans-2d" transform="scale(0.015625)"/>
        <path d="M 703 97 
L 703 672 
Q 941 559 1184 500 
Q 1428 441 1663 441 
Q 2288 441 2617 861 
Q 2947 1281 2994 2138 
Q 2813 1869 2534 1725 
Q 2256 1581 1919 1581 
Q 1219 1581 811 2004 
Q 403 2428 403 3163 
Q 403 3881 828 4315 
Q 1253 4750 1959 4750 
Q 2769 4750 3195 4129 
Q 3622 3509 3622 2328 
Q 3622 1225 3098 567 
Q 2575 -91 1691 -91 
Q 1453 -91 1209 -44 
Q 966 3 703 97 
z
M 1959 2075 
Q 2384 2075 2632 2365 
Q 2881 2656 2881 3163 
Q 2881 3666 2632 3958 
Q 2384 4250 1959 4250 
Q 1534 4250 1286 3958 
Q 1038 3666 1038 3163 
Q 1038 2656 1286 2365 
Q 1534 2075 1959 2075 
z
" id="DejaVuSans-39" transform="scale(0.015625)"/>
       </defs>
       <use xlink:href="#DejaVuSans-32"/>
       <use x="63.623047" xlink:href="#DejaVuSans-30"/>
       <use x="127.246094" xlink:href="#DejaVuSans-32"/>
       <use x="190.869141" xlink:href="#DejaVuSans-31"/>
       <use x="254.492188" xlink:href="#DejaVuSans-2d"/>
       <use x="290.576172" xlink:href="#DejaVuSans-30"/>
       <use x="354.199219" xlink:href="#DejaVuSans-39"/>
      </g>
     </g>
    </g>
    <g id="xtick_2">
     <g id="line2d_2">
      <g>
       <use style="stroke:#000000;stroke-width:0.8;" x="152.475754" xlink:href="#m45fead8f50" y="276.48"/>
      </g>
     </g>
     <g id="text_2">
      <!-- 2021-10 -->
      <g transform="translate(115.250933 310.951846)rotate(-30)scale(0.1 -0.1)">
       <use xlink:href="#DejaVuSans-32"/>
       <use x="63.623047" xlink:href="#DejaVuSans-30"/>
       <use x="127.246094" xlink:href="#DejaVuSans-32"/>
       <use x="190.869141" xlink:href="#DejaVuSans-31"/>
       <use x="254.492188" xlink:href="#DejaVuSans-2d"/>
       <use x="290.576172" xlink:href="#DejaVuSans-31"/>
       <use x="354.199219" xlink:href="#DejaVuSans-30"/>
      </g>
     </g>
    </g>
    <g id="xtick_3">
     <g id="line2d_3">
      <g>
       <use style="stroke:#000000;stroke-width:0.8;" x="214.986877" xlink:href="#m45fead8f50" y="276.48"/>
      </g>
     </g>
     <g id="text_3">
      <!-- 2021-11 -->
      <g transform="translate(177.762057 310.951846)rotate(-30)scale(0.1 -0.1)">
       <use xlink:href="#DejaVuSans-32"/>
       <use x="63.623047" xlink:href="#DejaVuSans-30"/>
       <use x="127.246094" xlink:href="#DejaVuSans-32"/>
       <use x="190.869141" xlink:href="#DejaVuSans-31"/>
       <use x="254.492188" xlink:href="#DejaVuSans-2d"/>
       <use x="290.576172" xlink:href="#DejaVuSans-31"/>
       <use x="354.199219" xlink:href="#DejaVuSans-31"/>
      </g>
     </g>
    </g>
    <g id="xtick_4">
     <g id="line2d_4">
      <g>
       <use style="stroke:#000000;stroke-width:0.8;" x="275.481513" xlink:href="#m45fead8f50" y="276.48"/>
      </g>
     </g>
     <g id="text_4">
      <!-- 2021-12 -->
      <g transform="translate(238.256692 310.951846)rotate(-30)scale(0.1 -0.1)">
       <use xlink:href="#DejaVuSans-32"/>
       <use x="63.623047" xlink:href="#DejaVuSans-30"/>
       <use x="127.246094" xlink:href="#DejaVuSans-32"/>
       <use x="190.869141" xlink:href="#DejaVuSans-31"/>
       <use x="254.492188" xlink:href="#DejaVuSans-2d"/>
       <use x="290.576172" xlink:href="#DejaVuSans-31"/>
       <use x="354.199219" xlink:href="#DejaVuSans-32"/>
      </g>
     </g>
    </g>
    <g id="xtick_5">
     <g id="line2d_5">
      <g>
       <use style="stroke:#000000;stroke-width:0.8;" x="337.992637" xlink:href="#m45fead8f50" y="276.48"/>
      </g>
     </g>
     <g id="text_5">
      <!-- 2022-01 -->
      <g transform="translate(300.767816 310.951846)rotate(-30)scale(0.1 -0.1)">
       <use xlink:href="#DejaVuSans-32"/>
       <use x="63.623047" xlink:href="#DejaVuSans-30"/>
       <use x="127.246094" xlink:href="#DejaVuSans-32"/>
       <use x="190.869141" xlink:href="#DejaVuSans-32"/>
       <use x="254.492188" xlink:href="#DejaVuSans-2d"/>
       <use x="290.576172" xlink:href="#DejaVuSans-30"/>
       <use x="354.199219" xlink:href="#DejaVuSans-31"/>
      </g>
     </g>
    </g>
    <g id="xtick_6">
     <g id="line2d_6">
      <g>
       <use style="stroke:#000000;stroke-width:0.8;" x="400.503761" xlink:href="#m45fead8f50" y="276.48"/>
      </g>
     </g>
     <g id="text_6">
      <!-- 2022-02 -->
      <g transform="translate(363.27894 310.951846)rotate(-30)scale(0.1 -0.1)">
       <use xlink:href="#DejaVuSans-32"/>
       <use x="63.623047" xlink:href="#DejaVuSans-30"/>
       <use x="127.246094" xlink:href="#DejaVuSans-32"/>
       <use x="190.869141" xlink:href="#DejaVuSans-32"/>
       <use x="254.492188" xlink:href="#DejaVuSans-2d"/>
       <use x="290.576172" xlink:href="#DejaVuSans-30"/>
       <use x="354.199219" xlink:href="#DejaVuSans-32"/>
      </g>
     </g>
    </g>
    <g id="text_7">
     <!-- date -->
     <g transform="translate(224.885 324.351346)scale(0.1 -0.1)">
      <defs>
       <path d="M 2906 2969 
L 2906 4863 
L 3481 4863 
L 3481 0 
L 2906 0 
L 2906 525 
Q 2725 213 2448 61 
Q 2172 -91 1784 -91 
Q 1150 -91 751 415 
Q 353 922 353 1747 
Q 353 2572 751 3078 
Q 1150 3584 1784 3584 
Q 2172 3584 2448 3432 
Q 2725 3281 2906 2969 
z
M 947 1747 
Q 947 1113 1208 752 
Q 1469 391 1925 391 
Q 2381 391 2643 752 
Q 2906 1113 2906 1747 
Q 2906 2381 2643 2742 
Q 2381 3103 1925 3103 
Q 1469 3103 1208 2742 
Q 947 2381 947 1747 
z
" id="DejaVuSans-64" transform="scale(0.015625)"/>
       <path d="M 2194 1759 
Q 1497 1759 1228 1600 
Q 959 1441 959 1056 
Q 959 750 1161 570 
Q 1363 391 1709 391 
Q 2188 391 2477 730 
Q 2766 1069 2766 1631 
L 2766 1759 
L 2194 1759 
z
M 3341 1997 
L 3341 0 
L 2766 0 
L 2766 531 
Q 2569 213 2275 61 
Q 1981 -91 1556 -91 
Q 1019 -91 701 211 
Q 384 513 384 1019 
Q 384 1609 779 1909 
Q 1175 2209 1959 2209 
L 2766 2209 
L 2766 2266 
Q 2766 2663 2505 2880 
Q 2244 3097 1772 3097 
Q 1472 3097 1187 3025 
Q 903 2953 641 2809 
L 641 3341 
Q 956 3463 1253 3523 
Q 1550 3584 1831 3584 
Q 2591 3584 2966 3190 
Q 3341 2797 3341 1997 
z
" id="DejaVuSans-61" transform="scale(0.015625)"/>
       <path d="M 1172 4494 
L 1172 3500 
L 2356 3500 
L 2356 3053 
L 1172 3053 
L 1172 1153 
Q 1172 725 1289 603 
Q 1406 481 1766 481 
L 2356 481 
L 2356 0 
L 1766 0 
Q 1100 0 847 248 
Q 594 497 594 1153 
L 594 3053 
L 172 3053 
L 172 3500 
L 594 3500 
L 594 4494 
L 1172 4494 
z
" id="DejaVuSans-74" transform="scale(0.015625)"/>
       <path d="M 3597 1894 
L 3597 1613 
L 953 1613 
Q 991 1019 1311 708 
Q 1631 397 2203 397 
Q 2534 397 2845 478 
Q 3156 559 3463 722 
L 3463 178 
Q 3153 47 2828 -22 
Q 2503 -91 2169 -91 
Q 1331 -91 842 396 
Q 353 884 353 1716 
Q 353 2575 817 3079 
Q 1281 3584 2069 3584 
Q 2775 3584 3186 3129 
Q 3597 2675 3597 1894 
z
M 3022 2063 
Q 3016 2534 2758 2815 
Q 2500 3097 2075 3097 
Q 1594 3097 1305 2825 
Q 1016 2553 972 2059 
L 3022 2063 
z
" id="DejaVuSans-65" transform="scale(0.015625)"/>
      </defs>
      <use xlink:href="#DejaVuSans-64"/>
      <use x="63.476562" xlink:href="#DejaVuSans-61"/>
      <use x="124.755859" xlink:href="#DejaVuSans-74"/>
      <use x="163.964844" xlink:href="#DejaVuSans-65"/>
     </g>
    </g>
   </g>
   <g id="matplotlib.axis_2">
    <g id="ytick_1">
     <g id="line2d_7">
      <defs>
       <path d="M 0 0 
L -3.5 0 
" id="ma368a33762" style="stroke:#000000;stroke-width:0.8;"/>
      </defs>
      <g>
       <use style="stroke:#000000;stroke-width:0.8;" x="57.6" xlink:href="#ma368a33762" y="234.666525"/>
      </g>
     </g>
     <g id="text_8">
      <!-- 95000 -->
      <g transform="translate(18.7875 238.465744)scale(0.1 -0.1)">
       <defs>
        <path d="M 691 4666 
L 3169 4666 
L 3169 4134 
L 1269 4134 
L 1269 2991 
Q 1406 3038 1543 3061 
Q 1681 3084 1819 3084 
Q 2600 3084 3056 2656 
Q 3513 2228 3513 1497 
Q 3513 744 3044 326 
Q 2575 -91 1722 -91 
Q 1428 -91 1123 -41 
Q 819 9 494 109 
L 494 744 
Q 775 591 1075 516 
Q 1375 441 1709 441 
Q 2250 441 2565 725 
Q 2881 1009 2881 1497 
Q 2881 1984 2565 2268 
Q 2250 2553 1709 2553 
Q 1456 2553 1204 2497 
Q 953 2441 691 2322 
L 691 4666 
z
" id="DejaVuSans-35" transform="scale(0.015625)"/>
       </defs>
       <use xlink:href="#DejaVuSans-39"/>
       <use x="63.623047" xlink:href="#DejaVuSans-35"/>
       <use x="127.246094" xlink:href="#DejaVuSans-30"/>
       <use x="190.869141" xlink:href="#DejaVuSans-30"/>
       <use x="254.492188" xlink:href="#DejaVuSans-30"/>
      </g>
     </g>
    </g>
    <g id="ytick_2">
     <g id="line2d_8">
      <g>
       <use style="stroke:#000000;stroke-width:0.8;" x="57.6" xlink:href="#ma368a33762" y="192.087996"/>
      </g>
     </g>
     <g id="text_9">
      <!-- 100000 -->
      <g transform="translate(12.425 195.887215)scale(0.1 -0.1)">
       <use xlink:href="#DejaVuSans-31"/>
       <use x="63.623047" xlink:href="#DejaVuSans-30"/>
       <use x="127.246094" xlink:href="#DejaVuSans-30"/>
       <use x="190.869141" xlink:href="#DejaVuSans-30"/>
       <use x="254.492188" xlink:href="#DejaVuSans-30"/>
       <use x="318.115234" xlink:href="#DejaVuSans-30"/>
      </g>
     </g>
    </g>
    <g id="ytick_3">
     <g id="line2d_9">
      <g>
       <use style="stroke:#000000;stroke-width:0.8;" x="57.6" xlink:href="#ma368a33762" y="149.509467"/>
      </g>
     </g>
     <g id="text_10">
      <!-- 105000 -->
      <g transform="translate(12.425 153.308686)scale(0.1 -0.1)">
       <use xlink:href="#DejaVuSans-31"/>
       <use x="63.623047" xlink:href="#DejaVuSans-30"/>
       <use x="127.246094" xlink:href="#DejaVuSans-35"/>
       <use x="190.869141" xlink:href="#DejaVuSans-30"/>
       <use x="254.492188" xlink:href="#DejaVuSans-30"/>
       <use x="318.115234" xlink:href="#DejaVuSans-30"/>
      </g>
     </g>
    </g>
    <g id="ytick_4">
     <g id="line2d_10">
      <g>
       <use style="stroke:#000000;stroke-width:0.8;" x="57.6" xlink:href="#ma368a33762" y="106.930938"/>
      </g>
     </g>
     <g id="text_11">
      <!-- 110000 -->
      <g transform="translate(12.425 110.730157)scale(0.1 -0.1)">
       <use xlink:href="#DejaVuSans-31"/>
       <use x="63.623047" xlink:href="#DejaVuSans-31"/>
       <use x="127.246094" xlink:href="#DejaVuSans-30"/>
       <use x="190.869141" xlink:href="#DejaVuSans-30"/>
       <use x="254.492188" xlink:href="#DejaVuSans-30"/>
       <use x="318.115234" xlink:href="#DejaVuSans-30"/>
      </g>
     </g>
    </g>
    <g id="ytick_5">
     <g id="line2d_11">
      <g>
       <use style="stroke:#000000;stroke-width:0.8;" x="57.6" xlink:href="#ma368a33762" y="64.352409"/>
      </g>
     </g>
     <g id="text_12">
      <!-- 115000 -->
      <g transform="translate(12.425 68.151628)scale(0.1 -0.1)">
       <use xlink:href="#DejaVuSans-31"/>
       <use x="63.623047" xlink:href="#DejaVuSans-31"/>
       <use x="127.246094" xlink:href="#DejaVuSans-35"/>
       <use x="190.869141" xlink:href="#DejaVuSans-30"/>
       <use x="254.492188" xlink:href="#DejaVuSans-30"/>
       <use x="318.115234" xlink:href="#DejaVuSans-30"/>
      </g>
     </g>
    </g>
   </g>
   <g id="line2d_12">
    <path clip-path="url(#p96ac602fbd)" d="M 73.832727 192.087996 
L 75.849215 189.550305 
L 77.865703 186.540552 
L 79.882191 191.246766 
L 81.898679 182.670592 
L 87.948142 177.649451 
L 89.96463 176.223263 
L 91.981118 178.213038 
L 93.997606 177.19233 
L 96.014094 177.759247 
L 104.080045 177.32396 
L 106.096533 179.84511 
L 108.113021 182.589801 
L 110.129509 190.056425 
L 116.178972 183.674704 
L 118.19546 195.070213 
L 120.211948 189.6577 
L 122.228436 190.889916 
L 124.244924 199.315347 
L 130.294387 213.932578 
L 132.310875 215.668972 
L 134.327363 208.979082 
L 136.343851 196.106352 
L 138.360339 189.30123 
L 144.409802 182.975661 
L 146.42629 201.691797 
L 148.442778 199.37138 
L 150.459266 206.050456 
L 152.475754 193.410396 
L 158.525217 209.768709 
L 160.541705 196.48951 
L 162.558193 193.895133 
L 164.574681 193.666092 
L 166.591169 192.275961 
L 172.640632 191.326637 
L 174.65712 190.400644 
L 176.673608 201.447421 
L 178.690096 184.85342 
L 180.706584 183.433718 
L 186.756047 176.654019 
L 188.772535 167.855889 
L 190.789023 165.192462 
L 192.805511 180.409669 
L 194.821999 191.874758 
L 200.871462 191.561164 
L 202.88795 198.521279 
L 204.904438 201.061814 
L 206.920926 190.342655 
L 208.937414 201.611623 
L 214.986877 183.477734 
L 217.003365 184.191467 
L 219.019853 175.231727 
L 221.036341 185.418968 
L 223.052829 179.300562 
L 229.102292 178.284838 
L 231.11878 188.986098 
L 233.135268 189.458418 
L 235.151756 196.053841 
L 237.168244 189.140742 
L 243.217708 186.505563 
L 245.234195 186.761437 
L 247.250683 191.68741 
L 249.267171 193.598842 
L 251.283659 194.211926 
L 257.333123 188.773754 
L 259.34961 183.011635 
L 261.366098 182.804698 
L 265.399074 182.904522 
L 271.448538 190.899884 
L 273.465025 207.542719 
L 275.481513 219.487195 
L 277.498001 209.029266 
L 279.514489 214.44758 
L 285.563953 198.82761 
L 287.58044 184.410092 
L 289.596928 177.132312 
L 291.613416 176.962936 
L 293.629904 174.201641 
L 299.679368 182.143052 
L 301.695855 179.003428 
L 303.712343 173.499799 
L 305.728831 169.054968 
L 307.745319 178.427257 
L 313.794783 190.687746 
L 315.81127 170.699515 
L 317.827758 167.305214 
L 319.844246 159.533013 
L 327.910198 148.387186 
L 329.926685 148.744967 
L 331.943173 148.769853 
L 333.959661 150.411372 
L 335.976149 153.987418 
L 342.025613 140.407352 
L 344.042101 129.550181 
L 346.058588 153.705603 
L 348.075076 146.209004 
L 350.091564 143.610558 
L 356.141028 142.933259 
L 358.157516 135.425864 
L 360.174003 133.760582 
L 362.190491 145.137044 
L 364.206979 142.391172 
L 372.272931 161.222746 
L 374.289418 167.77204 
L 376.305906 177.378417 
L 378.322394 197.624432 
L 384.371858 196.368667 
L 386.388346 206.412385 
L 388.404833 206.04685 
L 390.421321 211.88144 
L 392.437809 189.684264 
L 398.487273 172.725887 
" style="fill:none;stroke:#0000ff;stroke-linecap:square;stroke-opacity:0.9;stroke-width:2;"/>
   </g>
   <g id="line2d_13">
    <path clip-path="url(#p96ac602fbd)" d="M 73.832727 192.087996 
L 75.849215 187.089446 
L 77.865703 183.583659 
L 79.882191 188.453197 
L 81.898679 178.773982 
L 87.948142 175.955038 
L 89.96463 174.450697 
L 91.981118 174.993526 
L 93.997606 175.951904 
L 96.014094 175.174438 
L 104.080045 174.274278 
L 106.096533 177.055928 
L 108.113021 179.229977 
L 110.129509 188.306715 
L 116.178972 182.055294 
L 118.19546 190.671365 
L 120.211948 185.83463 
L 122.228436 188.442612 
L 124.244924 199.498677 
L 130.294387 213.299065 
L 132.310875 213.424076 
L 134.327363 208.75494 
L 136.343851 197.499812 
L 138.360339 190.878185 
L 144.409802 185.678001 
L 146.42629 202.54835 
L 148.442778 201.674162 
L 150.459266 209.923561 
L 152.475754 197.352864 
L 158.525217 206.986994 
L 160.541705 194.724192 
L 162.558193 192.81732 
L 164.574681 190.667034 
L 166.591169 185.873813 
L 172.640632 190.925293 
L 174.65712 197.796334 
L 176.673608 200.26352 
L 178.690096 179.672735 
L 180.706584 173.698096 
L 186.756047 171.572193 
L 188.772535 164.050252 
L 190.789023 158.896056 
L 192.805511 170.925919 
L 194.821999 175.388157 
L 200.871462 177.62515 
L 202.88795 182.192246 
L 204.904438 187.167197 
L 206.920926 175.114441 
L 208.937414 173.809262 
L 214.986877 173.170302 
L 217.003365 169.57954 
L 219.019853 162.800021 
L 221.036341 164.723433 
L 223.052829 165.07937 
L 229.102292 163.599033 
L 231.11878 171.075334 
L 233.135268 175.571528 
L 235.151756 175.258679 
L 237.168244 169.614894 
L 243.217708 166.791442 
L 245.234195 169.216252 
L 247.250683 170.08083 
L 249.267171 170.123281 
L 251.283659 173.040818 
L 257.333123 169.826737 
L 259.34961 160.734903 
L 261.366098 160.079493 
L 265.399074 183.315618 
L 271.448538 173.965765 
L 273.465025 192.087483 
L 275.481513 202.149437 
L 277.498001 190.14173 
L 279.514489 197.008772 
L 285.563953 184.558704 
L 287.58044 169.394688 
L 289.596928 164.394057 
L 291.613416 165.417668 
L 293.629904 159.717013 
L 299.679368 168.092846 
L 301.695855 167.952212 
L 303.712343 161.48935 
L 305.728831 160.457326 
L 307.745319 171.956652 
L 313.794783 181.92946 
L 315.81127 166.034723 
L 317.827758 160.936721 
L 319.844246 152.86971 
L 327.910198 141.619381 
L 329.926685 142.733968 
L 331.943173 141.57842 
L 333.959661 142.814211 
L 335.976149 145.990885 
L 342.025613 136.99326 
L 344.042101 127.498446 
L 346.058588 147.271148 
L 348.075076 144.033635 
L 350.091564 139.206028 
L 356.141028 140.179742 
L 358.157516 134.437236 
L 360.174003 134.920889 
L 362.190491 141.798115 
L 364.206979 141.976729 
L 372.272931 161.809538 
L 374.289418 170.024321 
L 376.305906 178.317013 
L 378.322394 196.305864 
L 384.371858 197.432742 
L 386.388346 195.885335 
L 388.404833 196.506384 
L 390.421321 204.168694 
L 392.437809 184.045721 
L 398.487273 170.377992 
" style="fill:none;stroke:#ff0000;stroke-linecap:square;stroke-opacity:0.9;stroke-width:2;"/>
   </g>
   <g id="line2d_14">
    <path clip-path="url(#p96ac602fbd)" d="M 73.832727 192.087996 
L 75.849215 187.979359 
L 77.865703 184.133039 
L 79.882191 189.208621 
L 81.898679 181.247633 
L 87.948142 175.792299 
L 89.96463 173.79428 
L 91.981118 175.702093 
L 93.997606 175.061961 
L 96.014094 175.197628 
L 104.080045 174.945108 
L 106.096533 176.647023 
L 108.113021 179.765867 
L 110.129509 187.445273 
L 116.178972 179.46986 
L 118.19546 191.426036 
L 120.211948 185.978907 
L 122.228436 186.832033 
L 124.244924 195.151722 
L 130.294387 209.337308 
L 132.310875 210.439907 
L 134.327363 204.399986 
L 136.343851 191.155189 
L 138.360339 183.878388 
L 144.409802 177.329063 
L 146.42629 195.708115 
L 148.442778 194.165945 
L 150.459266 200.903207 
L 152.475754 188.083613 
L 158.525217 203.474569 
L 160.541705 190.322138 
L 162.558193 187.284256 
L 164.574681 185.881632 
L 166.591169 182.190125 
L 172.640632 187.036639 
L 174.65712 193.321168 
L 176.673608 195.317176 
L 178.690096 178.463632 
L 180.706584 176.974009 
L 186.756047 169.981039 
L 188.772535 161.211573 
L 190.789023 158.195999 
L 192.805511 173.151431 
L 194.821999 185.366645 
L 200.871462 184.113205 
L 202.88795 191.634207 
L 204.904438 194.84087 
L 206.920926 183.452775 
L 208.937414 181.299885 
L 214.986877 176.561445 
L 217.003365 175.380989 
L 219.019853 167.624786 
L 221.036341 167.142999 
L 223.052829 160.366387 
L 229.102292 159.383365 
L 231.11878 170.210737 
L 233.135268 177.465582 
L 235.151756 177.859526 
L 237.168244 170.745326 
L 243.217708 168.114849 
L 245.234195 171.961238 
L 247.250683 172.601261 
L 249.267171 175.150933 
L 251.283659 175.575756 
L 257.333123 169.984606 
L 259.34961 163.126153 
L 261.366098 163.586154 
L 265.399074 182.222799 
L 271.448538 171.058555 
L 273.465025 188.021114 
L 275.481513 200.483999 
L 277.498001 189.300505 
L 279.514489 195.822241 
L 285.563953 179.362228 
L 287.58044 163.930206 
L 289.596928 157.554079 
L 291.613416 156.763637 
L 293.629904 153.670539 
L 299.679368 162.204599 
L 301.695855 158.992784 
L 303.712343 153.631686 
L 305.728831 149.450398 
L 307.745319 158.504179 
L 313.794783 171.337241 
L 315.81127 150.12929 
L 317.827758 146.047299 
L 319.844246 138.134283 
L 327.910198 126.971059 
L 329.926685 126.925743 
L 331.943173 127.218316 
L 333.959661 128.217088 
L 335.976149 132.345415 
L 342.025613 118.419044 
L 344.042101 107.822787 
L 346.058588 132.083332 
L 348.075076 123.828764 
L 350.091564 121.106516 
L 356.141028 120.580843 
L 358.157516 112.788481 
L 360.174003 111.505838 
L 362.190491 122.350921 
L 364.206979 119.514982 
L 372.272931 139.216278 
L 374.289418 145.531384 
L 376.305906 155.646696 
L 378.322394 175.893096 
L 384.371858 174.35759 
L 386.388346 184.790946 
L 388.404833 184.900223 
L 390.421321 190.334966 
L 392.437809 168.60824 
L 398.487273 149.551755 
" style="fill:none;stroke:#ff8040;stroke-linecap:square;stroke-opacity:0.9;stroke-width:2;"/>
   </g>
   <g id="line2d_15">
    <path clip-path="url(#p96ac602fbd)" d="M 73.832727 192.939567 
L 75.849215 191.131595 
L 77.865703 187.560588 
L 79.882191 193.931139 
L 81.898679 183.549212 
L 87.948142 188.456854 
L 89.96463 188.089146 
L 91.981118 188.149827 
L 93.997606 186.264343 
L 96.014094 187.139686 
L 104.080045 186.895477 
L 106.096533 191.41678 
L 108.113021 192.665588 
L 110.129509 206.374305 
L 116.178972 201.078262 
L 118.19546 208.909239 
L 120.211948 206.769914 
L 122.228436 209.623492 
L 124.244924 218.642246 
L 130.294387 231.676794 
L 132.310875 231.613559 
L 134.327363 228.174791 
L 136.343851 220.250768 
L 138.360339 215.815384 
L 144.409802 212.74582 
L 146.42629 229.314505 
L 148.442778 228.452017 
L 150.459266 237.125146 
L 152.475754 226.144157 
L 158.525217 238.911896 
L 160.541705 227.796476 
L 162.558193 225.578645 
L 164.574681 223.321286 
L 166.591169 218.716229 
L 172.640632 223.272068 
L 174.65712 229.218778 
L 176.673608 231.87345 
L 178.690096 212.385323 
L 180.706584 206.757479 
L 186.756047 206.936561 
L 188.772535 198.790182 
L 190.789023 193.222076 
L 192.805511 206.157126 
L 194.821999 216.944822 
L 200.871462 219.141946 
L 202.88795 227.101623 
L 204.904438 225.569846 
L 206.920926 212.742478 
L 208.937414 213.424614 
L 214.986877 213.301804 
L 217.003365 210.778947 
L 219.019853 207.196739 
L 221.036341 208.483733 
L 223.052829 211.808019 
L 229.102292 209.177145 
L 231.11878 213.620735 
L 233.135268 215.315216 
L 235.151756 215.379018 
L 237.168244 209.589522 
L 243.217708 208.947008 
L 245.234195 211.162619 
L 247.250683 210.844694 
L 249.267171 213.488829 
L 251.283659 218.984998 
L 257.333123 219.464564 
L 259.34961 213.027732 
L 261.366098 214.055903 
L 265.399074 237.922918 
L 271.448538 225.481905 
L 273.465025 242.119262 
L 275.481513 252.53689 
L 277.498001 242.930094 
L 279.514489 246.976807 
L 285.563953 233.573454 
L 287.58044 217.619849 
L 289.596928 213.487939 
L 291.613416 215.09939 
L 293.629904 210.821702 
L 299.679368 220.355216 
L 301.695855 218.84471 
L 303.712343 215.946171 
L 305.728831 217.863691 
L 307.745319 232.300637 
L 313.794783 238.53854 
L 315.81127 220.451384 
L 317.827758 215.781036 
L 319.844246 208.818747 
L 327.910198 199.638116 
L 329.926685 199.49546 
L 331.943173 199.409061 
L 333.959661 200.73157 
L 335.976149 203.001364 
L 342.025613 193.405579 
L 344.042101 184.540783 
L 346.058588 208.919867 
L 348.075076 214.036033 
L 350.091564 211.161385 
L 356.141028 211.968927 
L 358.157516 206.966149 
L 360.174003 205.734533 
L 362.190491 212.742452 
L 364.206979 213.276177 
L 372.272931 232.527395 
L 374.289418 241.150257 
L 376.305906 249.993581 
L 378.322394 265.797818 
L 384.371858 263.461771 
L 386.388346 252.656874 
L 388.404833 254.385855 
L 390.421321 261.84235 
L 392.437809 239.534151 
L 398.487273 227.239221 
" style="fill:none;stroke:#0d0d0d;stroke-linecap:square;stroke-opacity:0.25;stroke-width:2;"/>
   </g>
   <g id="line2d_16">
    <path clip-path="url(#p96ac602fbd)" d="M 73.832727 191.236426 
L 75.849215 184.114926 
L 77.865703 177.459085 
L 79.882191 182.855489 
L 81.898679 171.334257 
L 87.948142 163.006583 
L 89.96463 160.510474 
L 91.981118 162.152056 
L 93.997606 161.842366 
L 96.014094 161.773499 
L 104.080045 157.569844 
L 106.096533 160.672923 
L 108.113021 163.112784 
L 110.129509 171.780439 
L 116.178972 163.601845 
L 118.19546 173.589146 
L 120.211948 169.785655 
L 122.228436 173.694313 
L 124.244924 184.689239 
L 130.294387 194.03632 
L 132.310875 193.146554 
L 134.327363 188.068538 
L 136.343851 177.267569 
L 138.360339 171.707776 
L 144.409802 154.543918 
L 146.42629 170.316014 
L 148.442778 172.217977 
L 150.459266 181.914355 
L 152.475754 169.3391 
L 158.525217 183.692216 
L 160.541705 173.257972 
L 162.558193 170.230423 
L 164.574681 165.850305 
L 166.591169 161.18325 
L 172.640632 166.623043 
L 174.65712 172.835854 
L 176.673608 175.872929 
L 178.690096 154.045329 
L 180.706584 145.403116 
L 186.756047 144.256672 
L 188.772535 136.486933 
L 190.789023 130.495958 
L 192.805511 138.293293 
L 194.821999 140.622218 
L 200.871462 140.346248 
L 202.88795 147.7794 
L 204.904438 148.485974 
L 206.920926 135.826161 
L 208.937414 135.862767 
L 214.986877 135.692392 
L 217.003365 128.391157 
L 219.019853 121.252507 
L 221.036341 121.162942 
L 223.052829 123.265531 
L 229.102292 121.872274 
L 231.11878 126.078372 
L 233.135268 128.458743 
L 235.151756 127.305436 
L 237.168244 113.549354 
L 243.217708 111.142358 
L 245.234195 113.453959 
L 247.250683 113.218495 
L 249.267171 114.409769 
L 251.283659 115.354677 
L 257.333123 112.686743 
L 259.34961 106.368967 
L 261.366098 106.223144 
L 265.399074 129.205831 
L 271.448538 113.811524 
L 273.465025 130.746505 
L 275.481513 144.637514 
L 277.498001 123.857334 
L 279.514489 132.367773 
L 285.563953 115.492828 
L 287.58044 100.421231 
L 289.596928 89.977551 
L 291.613416 89.934613 
L 293.629904 81.994497 
L 299.679368 89.626234 
L 301.695855 87.469861 
L 303.712343 78.847539 
L 305.728831 75.452738 
L 307.745319 92.646338 
L 313.794783 104.398297 
L 315.81127 82.213824 
L 317.827758 78.74827 
L 319.844246 69.67589 
L 327.910198 58.440175 
L 329.926685 59.142269 
L 331.943173 60.480459 
L 333.959661 62.443717 
L 335.976149 67.332633 
L 342.025613 57.757564 
L 344.042101 52.154182 
L 346.058588 75.131379 
L 348.075076 69.659369 
L 350.091564 65.230889 
L 356.141028 68.888514 
L 358.157516 65.19783 
L 360.174003 65.000265 
L 362.190491 68.606021 
L 364.206979 69.461617 
L 372.272931 87.944531 
L 374.289418 96.133383 
L 376.305906 102.830565 
L 378.322394 124.030167 
L 384.371858 124.042129 
L 386.388346 118.31197 
L 388.404833 124.867503 
L 390.421321 131.84342 
L 392.437809 109.406255 
L 398.487273 89.135445 
" style="fill:none;stroke:#0d0d0d;stroke-linecap:square;stroke-opacity:0.25;stroke-width:2;"/>
   </g>
   <g id="patch_3">
    <path d="M 57.6 276.48 
L 57.6 41.472 
" style="fill:none;stroke:#000000;stroke-linecap:square;stroke-linejoin:miter;stroke-width:0.8;"/>
   </g>
   <g id="patch_4">
    <path d="M 414.72 276.48 
L 414.72 41.472 
" style="fill:none;stroke:#000000;stroke-linecap:square;stroke-linejoin:miter;stroke-width:0.8;"/>
   </g>
   <g id="patch_5">
    <path d="M 57.6 276.48 
L 414.72 276.48 
" style="fill:none;stroke:#000000;stroke-linecap:square;stroke-linejoin:miter;stroke-width:0.8;"/>
   </g>
   <g id="patch_6">
    <path d="M 57.6 41.472 
L 414.72 41.472 
" style="fill:none;stroke:#000000;stroke-linecap:square;stroke-linejoin:miter;stroke-width:0.8;"/>
   </g>
   <g id="text_13">
    <!-- TESTFUNDS0830 -->
    <g transform="translate(185.200312 22.034625)scale(0.12 -0.12)">
     <defs>
      <path d="M -19 4666 
L 3928 4666 
L 3928 4134 
L 2272 4134 
L 2272 0 
L 1638 0 
L 1638 4134 
L -19 4134 
L -19 4666 
z
" id="DejaVuSans-54" transform="scale(0.015625)"/>
      <path d="M 628 4666 
L 3578 4666 
L 3578 4134 
L 1259 4134 
L 1259 2753 
L 3481 2753 
L 3481 2222 
L 1259 2222 
L 1259 531 
L 3634 531 
L 3634 0 
L 628 0 
L 628 4666 
z
" id="DejaVuSans-45" transform="scale(0.015625)"/>
      <path d="M 3425 4513 
L 3425 3897 
Q 3066 4069 2747 4153 
Q 2428 4238 2131 4238 
Q 1616 4238 1336 4038 
Q 1056 3838 1056 3469 
Q 1056 3159 1242 3001 
Q 1428 2844 1947 2747 
L 2328 2669 
Q 3034 2534 3370 2195 
Q 3706 1856 3706 1288 
Q 3706 609 3251 259 
Q 2797 -91 1919 -91 
Q 1588 -91 1214 -16 
Q 841 59 441 206 
L 441 856 
Q 825 641 1194 531 
Q 1563 422 1919 422 
Q 2459 422 2753 634 
Q 3047 847 3047 1241 
Q 3047 1584 2836 1778 
Q 2625 1972 2144 2069 
L 1759 2144 
Q 1053 2284 737 2584 
Q 422 2884 422 3419 
Q 422 4038 858 4394 
Q 1294 4750 2059 4750 
Q 2388 4750 2728 4690 
Q 3069 4631 3425 4513 
z
" id="DejaVuSans-53" transform="scale(0.015625)"/>
      <path d="M 628 4666 
L 3309 4666 
L 3309 4134 
L 1259 4134 
L 1259 2759 
L 3109 2759 
L 3109 2228 
L 1259 2228 
L 1259 0 
L 628 0 
L 628 4666 
z
" id="DejaVuSans-46" transform="scale(0.015625)"/>
      <path d="M 556 4666 
L 1191 4666 
L 1191 1831 
Q 1191 1081 1462 751 
Q 1734 422 2344 422 
Q 2950 422 3222 751 
Q 3494 1081 3494 1831 
L 3494 4666 
L 4128 4666 
L 4128 1753 
Q 4128 841 3676 375 
Q 3225 -91 2344 -91 
Q 1459 -91 1007 375 
Q 556 841 556 1753 
L 556 4666 
z
" id="DejaVuSans-55" transform="scale(0.015625)"/>
      <path d="M 628 4666 
L 1478 4666 
L 3547 763 
L 3547 4666 
L 4159 4666 
L 4159 0 
L 3309 0 
L 1241 3903 
L 1241 0 
L 628 0 
L 628 4666 
z
" id="DejaVuSans-4e" transform="scale(0.015625)"/>
      <path d="M 1259 4147 
L 1259 519 
L 2022 519 
Q 2988 519 3436 956 
Q 3884 1394 3884 2338 
Q 3884 3275 3436 3711 
Q 2988 4147 2022 4147 
L 1259 4147 
z
M 628 4666 
L 1925 4666 
Q 3281 4666 3915 4102 
Q 4550 3538 4550 2338 
Q 4550 1131 3912 565 
Q 3275 0 1925 0 
L 628 0 
L 628 4666 
z
" id="DejaVuSans-44" transform="scale(0.015625)"/>
      <path d="M 2034 2216 
Q 1584 2216 1326 1975 
Q 1069 1734 1069 1313 
Q 1069 891 1326 650 
Q 1584 409 2034 409 
Q 2484 409 2743 651 
Q 3003 894 3003 1313 
Q 3003 1734 2745 1975 
Q 2488 2216 2034 2216 
z
M 1403 2484 
Q 997 2584 770 2862 
Q 544 3141 544 3541 
Q 544 4100 942 4425 
Q 1341 4750 2034 4750 
Q 2731 4750 3128 4425 
Q 3525 4100 3525 3541 
Q 3525 3141 3298 2862 
Q 3072 2584 2669 2484 
Q 3125 2378 3379 2068 
Q 3634 1759 3634 1313 
Q 3634 634 3220 271 
Q 2806 -91 2034 -91 
Q 1263 -91 848 271 
Q 434 634 434 1313 
Q 434 1759 690 2068 
Q 947 2378 1403 2484 
z
M 1172 3481 
Q 1172 3119 1398 2916 
Q 1625 2713 2034 2713 
Q 2441 2713 2670 2916 
Q 2900 3119 2900 3481 
Q 2900 3844 2670 4047 
Q 2441 4250 2034 4250 
Q 1625 4250 1398 4047 
Q 1172 3844 1172 3481 
z
" id="DejaVuSans-38" transform="scale(0.015625)"/>
      <path d="M 2597 2516 
Q 3050 2419 3304 2112 
Q 3559 1806 3559 1356 
Q 3559 666 3084 287 
Q 2609 -91 1734 -91 
Q 1441 -91 1130 -33 
Q 819 25 488 141 
L 488 750 
Q 750 597 1062 519 
Q 1375 441 1716 441 
Q 2309 441 2620 675 
Q 2931 909 2931 1356 
Q 2931 1769 2642 2001 
Q 2353 2234 1838 2234 
L 1294 2234 
L 1294 2753 
L 1863 2753 
Q 2328 2753 2575 2939 
Q 2822 3125 2822 3475 
Q 2822 3834 2567 4026 
Q 2313 4219 1838 4219 
Q 1578 4219 1281 4162 
Q 984 4106 628 3988 
L 628 4550 
Q 988 4650 1302 4700 
Q 1616 4750 1894 4750 
Q 2613 4750 3031 4423 
Q 3450 4097 3450 3541 
Q 3450 3153 3228 2886 
Q 3006 2619 2597 2516 
z
" id="DejaVuSans-33" transform="scale(0.015625)"/>
     </defs>
     <use xlink:href="#DejaVuSans-54"/>
     <use x="61.083984" xlink:href="#DejaVuSans-45"/>
     <use x="124.267578" xlink:href="#DejaVuSans-53"/>
     <use x="187.744141" xlink:href="#DejaVuSans-54"/>
     <use x="248.828125" xlink:href="#DejaVuSans-46"/>
     <use x="306.347656" xlink:href="#DejaVuSans-55"/>
     <use x="379.541016" xlink:href="#DejaVuSans-4e"/>
     <use x="454.345703" xlink:href="#DejaVuSans-44"/>
     <use x="531.347656" xlink:href="#DejaVuSans-53"/>
     <use x="594.824219" xlink:href="#DejaVuSans-30"/>
     <use x="658.447266" xlink:href="#DejaVuSans-38"/>
     <use x="722.070312" xlink:href="#DejaVuSans-33"/>
     <use x="785.693359" xlink:href="#DejaVuSans-30"/>
    </g>
    <!-- daily_report -->
    <g transform="translate(200.466563 35.472)scale(0.12 -0.12)">
     <defs>
      <path d="M 603 3500 
L 1178 3500 
L 1178 0 
L 603 0 
L 603 3500 
z
M 603 4863 
L 1178 4863 
L 1178 4134 
L 603 4134 
L 603 4863 
z
" id="DejaVuSans-69" transform="scale(0.015625)"/>
      <path d="M 603 4863 
L 1178 4863 
L 1178 0 
L 603 0 
L 603 4863 
z
" id="DejaVuSans-6c" transform="scale(0.015625)"/>
      <path d="M 2059 -325 
Q 1816 -950 1584 -1140 
Q 1353 -1331 966 -1331 
L 506 -1331 
L 506 -850 
L 844 -850 
Q 1081 -850 1212 -737 
Q 1344 -625 1503 -206 
L 1606 56 
L 191 3500 
L 800 3500 
L 1894 763 
L 2988 3500 
L 3597 3500 
L 2059 -325 
z
" id="DejaVuSans-79" transform="scale(0.015625)"/>
      <path d="M 3263 -1063 
L 3263 -1509 
L -63 -1509 
L -63 -1063 
L 3263 -1063 
z
" id="DejaVuSans-5f" transform="scale(0.015625)"/>
      <path d="M 2631 2963 
Q 2534 3019 2420 3045 
Q 2306 3072 2169 3072 
Q 1681 3072 1420 2755 
Q 1159 2438 1159 1844 
L 1159 0 
L 581 0 
L 581 3500 
L 1159 3500 
L 1159 2956 
Q 1341 3275 1631 3429 
Q 1922 3584 2338 3584 
Q 2397 3584 2469 3576 
Q 2541 3569 2628 3553 
L 2631 2963 
z
" id="DejaVuSans-72" transform="scale(0.015625)"/>
      <path d="M 1159 525 
L 1159 -1331 
L 581 -1331 
L 581 3500 
L 1159 3500 
L 1159 2969 
Q 1341 3281 1617 3432 
Q 1894 3584 2278 3584 
Q 2916 3584 3314 3078 
Q 3713 2572 3713 1747 
Q 3713 922 3314 415 
Q 2916 -91 2278 -91 
Q 1894 -91 1617 61 
Q 1341 213 1159 525 
z
M 3116 1747 
Q 3116 2381 2855 2742 
Q 2594 3103 2138 3103 
Q 1681 3103 1420 2742 
Q 1159 2381 1159 1747 
Q 1159 1113 1420 752 
Q 1681 391 2138 391 
Q 2594 391 2855 752 
Q 3116 1113 3116 1747 
z
" id="DejaVuSans-70" transform="scale(0.015625)"/>
      <path d="M 1959 3097 
Q 1497 3097 1228 2736 
Q 959 2375 959 1747 
Q 959 1119 1226 758 
Q 1494 397 1959 397 
Q 2419 397 2687 759 
Q 2956 1122 2956 1747 
Q 2956 2369 2687 2733 
Q 2419 3097 1959 3097 
z
M 1959 3584 
Q 2709 3584 3137 3096 
Q 3566 2609 3566 1747 
Q 3566 888 3137 398 
Q 2709 -91 1959 -91 
Q 1206 -91 779 398 
Q 353 888 353 1747 
Q 353 2609 779 3096 
Q 1206 3584 1959 3584 
z
" id="DejaVuSans-6f" transform="scale(0.015625)"/>
     </defs>
     <use xlink:href="#DejaVuSans-64"/>
     <use x="63.476562" xlink:href="#DejaVuSans-61"/>
     <use x="124.755859" xlink:href="#DejaVuSans-69"/>
     <use x="152.539062" xlink:href="#DejaVuSans-6c"/>
     <use x="180.322266" xlink:href="#DejaVuSans-79"/>
     <use x="239.501953" xlink:href="#DejaVuSans-5f"/>
     <use x="289.501953" xlink:href="#DejaVuSans-72"/>
     <use x="328.365234" xlink:href="#DejaVuSans-65"/>
     <use x="389.888672" xlink:href="#DejaVuSans-70"/>
     <use x="453.365234" xlink:href="#DejaVuSans-6f"/>
     <use x="514.546875" xlink:href="#DejaVuSans-72"/>
     <use x="555.660156" xlink:href="#DejaVuSans-74"/>
    </g>
   </g>
   <g id="legend_1">
    <g id="patch_7">
     <path d="M 64.6 122.862625 
L 155.792188 122.862625 
Q 157.792188 122.862625 157.792188 120.862625 
L 157.792188 48.472 
Q 157.792188 46.472 155.792188 46.472 
L 64.6 46.472 
Q 62.6 46.472 62.6 48.472 
L 62.6 120.862625 
Q 62.6 122.862625 64.6 122.862625 
z
" style="fill:#ffffff;opacity:0.8;stroke:#cccccc;stroke-linejoin:miter;"/>
    </g>
    <g id="line2d_17">
     <path d="M 66.6 54.570437 
L 86.6 54.570437 
" style="fill:none;stroke:#0000ff;stroke-linecap:square;stroke-opacity:0.9;stroke-width:2;"/>
    </g>
    <g id="line2d_18"/>
    <g id="text_14">
     <!-- alpaca -->
     <g transform="translate(94.6 58.070437)scale(0.1 -0.1)">
      <defs>
       <path d="M 3122 3366 
L 3122 2828 
Q 2878 2963 2633 3030 
Q 2388 3097 2138 3097 
Q 1578 3097 1268 2742 
Q 959 2388 959 1747 
Q 959 1106 1268 751 
Q 1578 397 2138 397 
Q 2388 397 2633 464 
Q 2878 531 3122 666 
L 3122 134 
Q 2881 22 2623 -34 
Q 2366 -91 2075 -91 
Q 1284 -91 818 406 
Q 353 903 353 1747 
Q 353 2603 823 3093 
Q 1294 3584 2113 3584 
Q 2378 3584 2631 3529 
Q 2884 3475 3122 3366 
z
" id="DejaVuSans-63" transform="scale(0.015625)"/>
      </defs>
      <use xlink:href="#DejaVuSans-61"/>
      <use x="61.279297" xlink:href="#DejaVuSans-6c"/>
      <use x="89.0625" xlink:href="#DejaVuSans-70"/>
      <use x="152.539062" xlink:href="#DejaVuSans-61"/>
      <use x="213.818359" xlink:href="#DejaVuSans-63"/>
      <use x="268.798828" xlink:href="#DejaVuSans-61"/>
     </g>
    </g>
    <g id="line2d_19">
     <path d="M 66.6 69.248562 
L 86.6 69.248562 
" style="fill:none;stroke:#ff0000;stroke-linecap:square;stroke-opacity:0.9;stroke-width:2;"/>
    </g>
    <g id="line2d_20"/>
    <g id="text_15">
     <!-- mattress -->
     <g transform="translate(94.6 72.748562)scale(0.1 -0.1)">
      <defs>
       <path d="M 3328 2828 
Q 3544 3216 3844 3400 
Q 4144 3584 4550 3584 
Q 5097 3584 5394 3201 
Q 5691 2819 5691 2113 
L 5691 0 
L 5113 0 
L 5113 2094 
Q 5113 2597 4934 2840 
Q 4756 3084 4391 3084 
Q 3944 3084 3684 2787 
Q 3425 2491 3425 1978 
L 3425 0 
L 2847 0 
L 2847 2094 
Q 2847 2600 2669 2842 
Q 2491 3084 2119 3084 
Q 1678 3084 1418 2786 
Q 1159 2488 1159 1978 
L 1159 0 
L 581 0 
L 581 3500 
L 1159 3500 
L 1159 2956 
Q 1356 3278 1631 3431 
Q 1906 3584 2284 3584 
Q 2666 3584 2933 3390 
Q 3200 3197 3328 2828 
z
" id="DejaVuSans-6d" transform="scale(0.015625)"/>
       <path d="M 2834 3397 
L 2834 2853 
Q 2591 2978 2328 3040 
Q 2066 3103 1784 3103 
Q 1356 3103 1142 2972 
Q 928 2841 928 2578 
Q 928 2378 1081 2264 
Q 1234 2150 1697 2047 
L 1894 2003 
Q 2506 1872 2764 1633 
Q 3022 1394 3022 966 
Q 3022 478 2636 193 
Q 2250 -91 1575 -91 
Q 1294 -91 989 -36 
Q 684 19 347 128 
L 347 722 
Q 666 556 975 473 
Q 1284 391 1588 391 
Q 1994 391 2212 530 
Q 2431 669 2431 922 
Q 2431 1156 2273 1281 
Q 2116 1406 1581 1522 
L 1381 1569 
Q 847 1681 609 1914 
Q 372 2147 372 2553 
Q 372 3047 722 3315 
Q 1072 3584 1716 3584 
Q 2034 3584 2315 3537 
Q 2597 3491 2834 3397 
z
" id="DejaVuSans-73" transform="scale(0.015625)"/>
      </defs>
      <use xlink:href="#DejaVuSans-6d"/>
      <use x="97.412109" xlink:href="#DejaVuSans-61"/>
      <use x="158.691406" xlink:href="#DejaVuSans-74"/>
      <use x="197.900391" xlink:href="#DejaVuSans-74"/>
      <use x="237.109375" xlink:href="#DejaVuSans-72"/>
      <use x="275.972656" xlink:href="#DejaVuSans-65"/>
      <use x="337.496094" xlink:href="#DejaVuSans-73"/>
      <use x="389.595703" xlink:href="#DejaVuSans-73"/>
     </g>
    </g>
    <g id="line2d_21">
     <path d="M 66.6 83.926687 
L 86.6 83.926687 
" style="fill:none;stroke:#ff8040;stroke-linecap:square;stroke-opacity:0.9;stroke-width:2;"/>
    </g>
    <g id="line2d_22"/>
    <g id="text_16">
     <!-- trader-0850 -->
     <g transform="translate(94.6 87.426687)scale(0.1 -0.1)">
      <use xlink:href="#DejaVuSans-74"/>
      <use x="39.208984" xlink:href="#DejaVuSans-72"/>
      <use x="80.322266" xlink:href="#DejaVuSans-61"/>
      <use x="141.601562" xlink:href="#DejaVuSans-64"/>
      <use x="205.078125" xlink:href="#DejaVuSans-65"/>
      <use x="266.601562" xlink:href="#DejaVuSans-72"/>
      <use x="301.339844" xlink:href="#DejaVuSans-2d"/>
      <use x="337.423828" xlink:href="#DejaVuSans-30"/>
      <use x="401.046875" xlink:href="#DejaVuSans-38"/>
      <use x="464.669922" xlink:href="#DejaVuSans-35"/>
      <use x="528.292969" xlink:href="#DejaVuSans-30"/>
     </g>
    </g>
    <g id="line2d_23">
     <path d="M 66.6 98.604812 
L 86.6 98.604812 
" style="fill:none;stroke:#0d0d0d;stroke-linecap:square;stroke-opacity:0.25;stroke-width:2;"/>
    </g>
    <g id="line2d_24"/>
    <g id="text_17">
     <!-- rando-min -->
     <g transform="translate(94.6 102.104812)scale(0.1 -0.1)">
      <defs>
       <path d="M 3513 2113 
L 3513 0 
L 2938 0 
L 2938 2094 
Q 2938 2591 2744 2837 
Q 2550 3084 2163 3084 
Q 1697 3084 1428 2787 
Q 1159 2491 1159 1978 
L 1159 0 
L 581 0 
L 581 3500 
L 1159 3500 
L 1159 2956 
Q 1366 3272 1645 3428 
Q 1925 3584 2291 3584 
Q 2894 3584 3203 3211 
Q 3513 2838 3513 2113 
z
" id="DejaVuSans-6e" transform="scale(0.015625)"/>
      </defs>
      <use xlink:href="#DejaVuSans-72"/>
      <use x="41.113281" xlink:href="#DejaVuSans-61"/>
      <use x="102.392578" xlink:href="#DejaVuSans-6e"/>
      <use x="165.771484" xlink:href="#DejaVuSans-64"/>
      <use x="229.248047" xlink:href="#DejaVuSans-6f"/>
      <use x="292.304688" xlink:href="#DejaVuSans-2d"/>
      <use x="328.388672" xlink:href="#DejaVuSans-6d"/>
      <use x="425.800781" xlink:href="#DejaVuSans-69"/>
      <use x="453.583984" xlink:href="#DejaVuSans-6e"/>
     </g>
    </g>
    <g id="line2d_25">
     <path d="M 66.6 113.282937 
L 86.6 113.282937 
" style="fill:none;stroke:#0d0d0d;stroke-linecap:square;stroke-opacity:0.25;stroke-width:2;"/>
    </g>
    <g id="line2d_26"/>
    <g id="text_18">
     <!-- rando-max -->
     <g transform="translate(94.6 116.782937)scale(0.1 -0.1)">
      <defs>
       <path d="M 3513 3500 
L 2247 1797 
L 3578 0 
L 2900 0 
L 1881 1375 
L 863 0 
L 184 0 
L 1544 1831 
L 300 3500 
L 978 3500 
L 1906 2253 
L 2834 3500 
L 3513 3500 
z
" id="DejaVuSans-78" transform="scale(0.015625)"/>
      </defs>
      <use xlink:href="#DejaVuSans-72"/>
      <use x="41.113281" xlink:href="#DejaVuSans-61"/>
      <use x="102.392578" xlink:href="#DejaVuSans-6e"/>
      <use x="165.771484" xlink:href="#DejaVuSans-64"/>
      <use x="229.248047" xlink:href="#DejaVuSans-6f"/>
      <use x="292.304688" xlink:href="#DejaVuSans-2d"/>
      <use x="328.388672" xlink:href="#DejaVuSans-6d"/>
      <use x="425.800781" xlink:href="#DejaVuSans-61"/>
      <use x="487.080078" xlink:href="#DejaVuSans-78"/>
     </g>
    </g>
   </g>
  </g>
 </g>
 <defs>
  <clipPath id="p96ac602fbd">
   <rect height="235.008" width="357.12" x="57.6" y="41.472"/>
  </clipPath>
 </defs>
</svg>
