<?xml version="1.0" encoding="utf-8" standalone="no"?>
<!DOCTYPE svg PUBLIC "-//W3C//DTD SVG 1.1//EN"
  "http://www.w3.org/Graphics/SVG/1.1/DTD/svg11.dtd">
<svg height="345.6pt" version="1.1" viewBox="0 0 460.8 345.6" width="460.8pt" xmlns="http://www.w3.org/2000/svg" xmlns:xlink="http://www.w3.org/1999/xlink">
 <metadata>
  <rdf:RDF xmlns:cc="http://creativecommons.org/ns#" xmlns:dc="http://purl.org/dc/elements/1.1/" xmlns:rdf="http://www.w3.org/1999/02/22-rdf-syntax-ns#">
   <cc:Work>
    <dc:type rdf:resource="http://purl.org/dc/dcmitype/StillImage"/>
    <dc:date>2022-03-10T10:02:57.321574</dc:date>
    <dc:format>image/svg+xml</dc:format>
    <dc:creator>
     <cc:Agent>
      <dc:title>Matplotlib v3.4.3, https://matplotlib.org/</dc:title>
     </cc:Agent>
    </dc:creator>
   </cc:Work>
  </rdf:RDF>
 </metadata>
 <defs>
  <style type="text/css">*{stroke-linecap:butt;stroke-linejoin:round;}</style>
 </defs>
 <g id="figure_1">
  <g id="patch_1">
   <path d="M 0 345.6 
L 460.8 345.6 
L 460.8 0 
L 0 0 
z
" style="fill:#ffffff;"/>
  </g>
  <g id="axes_1">
   <g id="patch_2">
    <path d="M 57.6 276.48 
L 414.72 276.48 
L 414.72 41.472 
L 57.6 41.472 
z
" style="fill:#ffffff;"/>
   </g>
   <g id="matplotlib.axis_1">
    <g id="xtick_1">
     <g id="line2d_1">
      <defs>
       <path d="M 0 0 
L 0 3.5 
" id="m4bfb0da1fb" style="stroke:#000000;stroke-width:0.8;"/>
      </defs>
      <g>
       <use style="stroke:#000000;stroke-width:0.8;" x="65.05828" xlink:href="#m4bfb0da1fb" y="276.48"/>
      </g>
     </g>
     <g id="text_1">
      <!-- 2021-11-15 -->
      <g transform="translate(13.688829 319.118252)rotate(-30)scale(0.1 -0.1)">
       <defs>
        <path d="M 1228 531 
L 3431 531 
L 3431 0 
L 469 0 
L 469 531 
Q 828 903 1448 1529 
Q 2069 2156 2228 2338 
Q 2531 2678 2651 2914 
Q 2772 3150 2772 3378 
Q 2772 3750 2511 3984 
Q 2250 4219 1831 4219 
Q 1534 4219 1204 4116 
Q 875 4013 500 3803 
L 500 4441 
Q 881 4594 1212 4672 
Q 1544 4750 1819 4750 
Q 2544 4750 2975 4387 
Q 3406 4025 3406 3419 
Q 3406 3131 3298 2873 
Q 3191 2616 2906 2266 
Q 2828 2175 2409 1742 
Q 1991 1309 1228 531 
z
" id="DejaVuSans-32" transform="scale(0.015625)"/>
        <path d="M 2034 4250 
Q 1547 4250 1301 3770 
Q 1056 3291 1056 2328 
Q 1056 1369 1301 889 
Q 1547 409 2034 409 
Q 2525 409 2770 889 
Q 3016 1369 3016 2328 
Q 3016 3291 2770 3770 
Q 2525 4250 2034 4250 
z
M 2034 4750 
Q 2819 4750 3233 4129 
Q 3647 3509 3647 2328 
Q 3647 1150 3233 529 
Q 2819 -91 2034 -91 
Q 1250 -91 836 529 
Q 422 1150 422 2328 
Q 422 3509 836 4129 
Q 1250 4750 2034 4750 
z
" id="DejaVuSans-30" transform="scale(0.015625)"/>
        <path d="M 794 531 
L 1825 531 
L 1825 4091 
L 703 3866 
L 703 4441 
L 1819 4666 
L 2450 4666 
L 2450 531 
L 3481 531 
L 3481 0 
L 794 0 
L 794 531 
z
" id="DejaVuSans-31" transform="scale(0.015625)"/>
        <path d="M 313 2009 
L 1997 2009 
L 1997 1497 
L 313 1497 
L 313 2009 
z
" id="DejaVuSans-2d" transform="scale(0.015625)"/>
        <path d="M 691 4666 
L 3169 4666 
L 3169 4134 
L 1269 4134 
L 1269 2991 
Q 1406 3038 1543 3061 
Q 1681 3084 1819 3084 
Q 2600 3084 3056 2656 
Q 3513 2228 3513 1497 
Q 3513 744 3044 326 
Q 2575 -91 1722 -91 
Q 1428 -91 1123 -41 
Q 819 9 494 109 
L 494 744 
Q 775 591 1075 516 
Q 1375 441 1709 441 
Q 2250 441 2565 725 
Q 2881 1009 2881 1497 
Q 2881 1984 2565 2268 
Q 2250 2553 1709 2553 
Q 1456 2553 1204 2497 
Q 953 2441 691 2322 
L 691 4666 
z
" id="DejaVuSans-35" transform="scale(0.015625)"/>
       </defs>
       <use xlink:href="#DejaVuSans-32"/>
       <use x="63.623047" xlink:href="#DejaVuSans-30"/>
       <use x="127.246094" xlink:href="#DejaVuSans-32"/>
       <use x="190.869141" xlink:href="#DejaVuSans-31"/>
       <use x="254.492188" xlink:href="#DejaVuSans-2d"/>
       <use x="290.576172" xlink:href="#DejaVuSans-31"/>
       <use x="354.199219" xlink:href="#DejaVuSans-31"/>
       <use x="417.822266" xlink:href="#DejaVuSans-2d"/>
       <use x="453.90625" xlink:href="#DejaVuSans-31"/>
       <use x="517.529297" xlink:href="#DejaVuSans-35"/>
      </g>
     </g>
    </g>
    <g id="xtick_2">
     <g id="line2d_2">
      <g>
       <use style="stroke:#000000;stroke-width:0.8;" x="111.855332" xlink:href="#m4bfb0da1fb" y="276.48"/>
      </g>
     </g>
     <g id="text_2">
      <!-- 2021-12-01 -->
      <g transform="translate(60.48588 319.118252)rotate(-30)scale(0.1 -0.1)">
       <use xlink:href="#DejaVuSans-32"/>
       <use x="63.623047" xlink:href="#DejaVuSans-30"/>
       <use x="127.246094" xlink:href="#DejaVuSans-32"/>
       <use x="190.869141" xlink:href="#DejaVuSans-31"/>
       <use x="254.492188" xlink:href="#DejaVuSans-2d"/>
       <use x="290.576172" xlink:href="#DejaVuSans-31"/>
       <use x="354.199219" xlink:href="#DejaVuSans-32"/>
       <use x="417.822266" xlink:href="#DejaVuSans-2d"/>
       <use x="453.90625" xlink:href="#DejaVuSans-30"/>
       <use x="517.529297" xlink:href="#DejaVuSans-31"/>
      </g>
     </g>
    </g>
    <g id="xtick_3">
     <g id="line2d_3">
      <g>
       <use style="stroke:#000000;stroke-width:0.8;" x="152.802752" xlink:href="#m4bfb0da1fb" y="276.48"/>
      </g>
     </g>
     <g id="text_3">
      <!-- 2021-12-15 -->
      <g transform="translate(101.4333 319.118252)rotate(-30)scale(0.1 -0.1)">
       <use xlink:href="#DejaVuSans-32"/>
       <use x="63.623047" xlink:href="#DejaVuSans-30"/>
       <use x="127.246094" xlink:href="#DejaVuSans-32"/>
       <use x="190.869141" xlink:href="#DejaVuSans-31"/>
       <use x="254.492188" xlink:href="#DejaVuSans-2d"/>
       <use x="290.576172" xlink:href="#DejaVuSans-31"/>
       <use x="354.199219" xlink:href="#DejaVuSans-32"/>
       <use x="417.822266" xlink:href="#DejaVuSans-2d"/>
       <use x="453.90625" xlink:href="#DejaVuSans-31"/>
       <use x="517.529297" xlink:href="#DejaVuSans-35"/>
      </g>
     </g>
    </g>
    <g id="xtick_4">
     <g id="line2d_4">
      <g>
       <use style="stroke:#000000;stroke-width:0.8;" x="202.524619" xlink:href="#m4bfb0da1fb" y="276.48"/>
      </g>
     </g>
     <g id="text_4">
      <!-- 2022-01-01 -->
      <g transform="translate(151.155168 319.118252)rotate(-30)scale(0.1 -0.1)">
       <use xlink:href="#DejaVuSans-32"/>
       <use x="63.623047" xlink:href="#DejaVuSans-30"/>
       <use x="127.246094" xlink:href="#DejaVuSans-32"/>
       <use x="190.869141" xlink:href="#DejaVuSans-32"/>
       <use x="254.492188" xlink:href="#DejaVuSans-2d"/>
       <use x="290.576172" xlink:href="#DejaVuSans-30"/>
       <use x="354.199219" xlink:href="#DejaVuSans-31"/>
       <use x="417.822266" xlink:href="#DejaVuSans-2d"/>
       <use x="453.90625" xlink:href="#DejaVuSans-30"/>
       <use x="517.529297" xlink:href="#DejaVuSans-31"/>
      </g>
     </g>
    </g>
    <g id="xtick_5">
     <g id="line2d_5">
      <g>
       <use style="stroke:#000000;stroke-width:0.8;" x="243.472039" xlink:href="#m4bfb0da1fb" y="276.48"/>
      </g>
     </g>
     <g id="text_5">
      <!-- 2022-01-15 -->
      <g transform="translate(192.102588 319.118252)rotate(-30)scale(0.1 -0.1)">
       <use xlink:href="#DejaVuSans-32"/>
       <use x="63.623047" xlink:href="#DejaVuSans-30"/>
       <use x="127.246094" xlink:href="#DejaVuSans-32"/>
       <use x="190.869141" xlink:href="#DejaVuSans-32"/>
       <use x="254.492188" xlink:href="#DejaVuSans-2d"/>
       <use x="290.576172" xlink:href="#DejaVuSans-30"/>
       <use x="354.199219" xlink:href="#DejaVuSans-31"/>
       <use x="417.822266" xlink:href="#DejaVuSans-2d"/>
       <use x="453.90625" xlink:href="#DejaVuSans-31"/>
       <use x="517.529297" xlink:href="#DejaVuSans-35"/>
      </g>
     </g>
    </g>
    <g id="xtick_6">
     <g id="line2d_6">
      <g>
       <use style="stroke:#000000;stroke-width:0.8;" x="293.193907" xlink:href="#m4bfb0da1fb" y="276.48"/>
      </g>
     </g>
     <g id="text_6">
      <!-- 2022-02-01 -->
      <g transform="translate(241.824455 319.118252)rotate(-30)scale(0.1 -0.1)">
       <use xlink:href="#DejaVuSans-32"/>
       <use x="63.623047" xlink:href="#DejaVuSans-30"/>
       <use x="127.246094" xlink:href="#DejaVuSans-32"/>
       <use x="190.869141" xlink:href="#DejaVuSans-32"/>
       <use x="254.492188" xlink:href="#DejaVuSans-2d"/>
       <use x="290.576172" xlink:href="#DejaVuSans-30"/>
       <use x="354.199219" xlink:href="#DejaVuSans-32"/>
       <use x="417.822266" xlink:href="#DejaVuSans-2d"/>
       <use x="453.90625" xlink:href="#DejaVuSans-30"/>
       <use x="517.529297" xlink:href="#DejaVuSans-31"/>
      </g>
     </g>
    </g>
    <g id="xtick_7">
     <g id="line2d_7">
      <g>
       <use style="stroke:#000000;stroke-width:0.8;" x="334.141327" xlink:href="#m4bfb0da1fb" y="276.48"/>
      </g>
     </g>
     <g id="text_7">
      <!-- 2022-02-15 -->
      <g transform="translate(282.771875 319.118252)rotate(-30)scale(0.1 -0.1)">
       <use xlink:href="#DejaVuSans-32"/>
       <use x="63.623047" xlink:href="#DejaVuSans-30"/>
       <use x="127.246094" xlink:href="#DejaVuSans-32"/>
       <use x="190.869141" xlink:href="#DejaVuSans-32"/>
       <use x="254.492188" xlink:href="#DejaVuSans-2d"/>
       <use x="290.576172" xlink:href="#DejaVuSans-30"/>
       <use x="354.199219" xlink:href="#DejaVuSans-32"/>
       <use x="417.822266" xlink:href="#DejaVuSans-2d"/>
       <use x="453.90625" xlink:href="#DejaVuSans-31"/>
       <use x="517.529297" xlink:href="#DejaVuSans-35"/>
      </g>
     </g>
    </g>
    <g id="xtick_8">
     <g id="line2d_8">
      <g>
       <use style="stroke:#000000;stroke-width:0.8;" x="375.088747" xlink:href="#m4bfb0da1fb" y="276.48"/>
      </g>
     </g>
     <g id="text_8">
      <!-- 2022-03-01 -->
      <g transform="translate(323.719296 319.118252)rotate(-30)scale(0.1 -0.1)">
       <defs>
        <path d="M 2597 2516 
Q 3050 2419 3304 2112 
Q 3559 1806 3559 1356 
Q 3559 666 3084 287 
Q 2609 -91 1734 -91 
Q 1441 -91 1130 -33 
Q 819 25 488 141 
L 488 750 
Q 750 597 1062 519 
Q 1375 441 1716 441 
Q 2309 441 2620 675 
Q 2931 909 2931 1356 
Q 2931 1769 2642 2001 
Q 2353 2234 1838 2234 
L 1294 2234 
L 1294 2753 
L 1863 2753 
Q 2328 2753 2575 2939 
Q 2822 3125 2822 3475 
Q 2822 3834 2567 4026 
Q 2313 4219 1838 4219 
Q 1578 4219 1281 4162 
Q 984 4106 628 3988 
L 628 4550 
Q 988 4650 1302 4700 
Q 1616 4750 1894 4750 
Q 2613 4750 3031 4423 
Q 3450 4097 3450 3541 
Q 3450 3153 3228 2886 
Q 3006 2619 2597 2516 
z
" id="DejaVuSans-33" transform="scale(0.015625)"/>
       </defs>
       <use xlink:href="#DejaVuSans-32"/>
       <use x="63.623047" xlink:href="#DejaVuSans-30"/>
       <use x="127.246094" xlink:href="#DejaVuSans-32"/>
       <use x="190.869141" xlink:href="#DejaVuSans-32"/>
       <use x="254.492188" xlink:href="#DejaVuSans-2d"/>
       <use x="290.576172" xlink:href="#DejaVuSans-30"/>
       <use x="354.199219" xlink:href="#DejaVuSans-33"/>
       <use x="417.822266" xlink:href="#DejaVuSans-2d"/>
       <use x="453.90625" xlink:href="#DejaVuSans-30"/>
       <use x="517.529297" xlink:href="#DejaVuSans-31"/>
      </g>
     </g>
    </g>
    <g id="text_9">
     <!-- date -->
     <g transform="translate(224.885 332.517752)scale(0.1 -0.1)">
      <defs>
       <path d="M 2906 2969 
L 2906 4863 
L 3481 4863 
L 3481 0 
L 2906 0 
L 2906 525 
Q 2725 213 2448 61 
Q 2172 -91 1784 -91 
Q 1150 -91 751 415 
Q 353 922 353 1747 
Q 353 2572 751 3078 
Q 1150 3584 1784 3584 
Q 2172 3584 2448 3432 
Q 2725 3281 2906 2969 
z
M 947 1747 
Q 947 1113 1208 752 
Q 1469 391 1925 391 
Q 2381 391 2643 752 
Q 2906 1113 2906 1747 
Q 2906 2381 2643 2742 
Q 2381 3103 1925 3103 
Q 1469 3103 1208 2742 
Q 947 2381 947 1747 
z
" id="DejaVuSans-64" transform="scale(0.015625)"/>
       <path d="M 2194 1759 
Q 1497 1759 1228 1600 
Q 959 1441 959 1056 
Q 959 750 1161 570 
Q 1363 391 1709 391 
Q 2188 391 2477 730 
Q 2766 1069 2766 1631 
L 2766 1759 
L 2194 1759 
z
M 3341 1997 
L 3341 0 
L 2766 0 
L 2766 531 
Q 2569 213 2275 61 
Q 1981 -91 1556 -91 
Q 1019 -91 701 211 
Q 384 513 384 1019 
Q 384 1609 779 1909 
Q 1175 2209 1959 2209 
L 2766 2209 
L 2766 2266 
Q 2766 2663 2505 2880 
Q 2244 3097 1772 3097 
Q 1472 3097 1187 3025 
Q 903 2953 641 2809 
L 641 3341 
Q 956 3463 1253 3523 
Q 1550 3584 1831 3584 
Q 2591 3584 2966 3190 
Q 3341 2797 3341 1997 
z
" id="DejaVuSans-61" transform="scale(0.015625)"/>
       <path d="M 1172 4494 
L 1172 3500 
L 2356 3500 
L 2356 3053 
L 1172 3053 
L 1172 1153 
Q 1172 725 1289 603 
Q 1406 481 1766 481 
L 2356 481 
L 2356 0 
L 1766 0 
Q 1100 0 847 248 
Q 594 497 594 1153 
L 594 3053 
L 172 3053 
L 172 3500 
L 594 3500 
L 594 4494 
L 1172 4494 
z
" id="DejaVuSans-74" transform="scale(0.015625)"/>
       <path d="M 3597 1894 
L 3597 1613 
L 953 1613 
Q 991 1019 1311 708 
Q 1631 397 2203 397 
Q 2534 397 2845 478 
Q 3156 559 3463 722 
L 3463 178 
Q 3153 47 2828 -22 
Q 2503 -91 2169 -91 
Q 1331 -91 842 396 
Q 353 884 353 1716 
Q 353 2575 817 3079 
Q 1281 3584 2069 3584 
Q 2775 3584 3186 3129 
Q 3597 2675 3597 1894 
z
M 3022 2063 
Q 3016 2534 2758 2815 
Q 2500 3097 2075 3097 
Q 1594 3097 1305 2825 
Q 1016 2553 972 2059 
L 3022 2063 
z
" id="DejaVuSans-65" transform="scale(0.015625)"/>
      </defs>
      <use xlink:href="#DejaVuSans-64"/>
      <use x="63.476562" xlink:href="#DejaVuSans-61"/>
      <use x="124.755859" xlink:href="#DejaVuSans-74"/>
      <use x="163.964844" xlink:href="#DejaVuSans-65"/>
     </g>
    </g>
   </g>
   <g id="matplotlib.axis_2">
    <g id="ytick_1">
     <g id="line2d_9">
      <defs>
       <path d="M 0 0 
L -3.5 0 
" id="m0234e2569e" style="stroke:#000000;stroke-width:0.8;"/>
      </defs>
      <g>
       <use style="stroke:#000000;stroke-width:0.8;" x="57.6" xlink:href="#m0234e2569e" y="242.513356"/>
      </g>
     </g>
     <g id="text_10">
      <!-- 112000 -->
      <g transform="translate(12.425 246.312575)scale(0.1 -0.1)">
       <use xlink:href="#DejaVuSans-31"/>
       <use x="63.623047" xlink:href="#DejaVuSans-31"/>
       <use x="127.246094" xlink:href="#DejaVuSans-32"/>
       <use x="190.869141" xlink:href="#DejaVuSans-30"/>
       <use x="254.492188" xlink:href="#DejaVuSans-30"/>
       <use x="318.115234" xlink:href="#DejaVuSans-30"/>
      </g>
     </g>
    </g>
    <g id="ytick_2">
     <g id="line2d_10">
      <g>
       <use style="stroke:#000000;stroke-width:0.8;" x="57.6" xlink:href="#m0234e2569e" y="204.685245"/>
      </g>
     </g>
     <g id="text_11">
      <!-- 114000 -->
      <g transform="translate(12.425 208.484464)scale(0.1 -0.1)">
       <defs>
        <path d="M 2419 4116 
L 825 1625 
L 2419 1625 
L 2419 4116 
z
M 2253 4666 
L 3047 4666 
L 3047 1625 
L 3713 1625 
L 3713 1100 
L 3047 1100 
L 3047 0 
L 2419 0 
L 2419 1100 
L 313 1100 
L 313 1709 
L 2253 4666 
z
" id="DejaVuSans-34" transform="scale(0.015625)"/>
       </defs>
       <use xlink:href="#DejaVuSans-31"/>
       <use x="63.623047" xlink:href="#DejaVuSans-31"/>
       <use x="127.246094" xlink:href="#DejaVuSans-34"/>
       <use x="190.869141" xlink:href="#DejaVuSans-30"/>
       <use x="254.492188" xlink:href="#DejaVuSans-30"/>
       <use x="318.115234" xlink:href="#DejaVuSans-30"/>
      </g>
     </g>
    </g>
    <g id="ytick_3">
     <g id="line2d_11">
      <g>
       <use style="stroke:#000000;stroke-width:0.8;" x="57.6" xlink:href="#m0234e2569e" y="166.857134"/>
      </g>
     </g>
     <g id="text_12">
      <!-- 116000 -->
      <g transform="translate(12.425 170.656353)scale(0.1 -0.1)">
       <defs>
        <path d="M 2113 2584 
Q 1688 2584 1439 2293 
Q 1191 2003 1191 1497 
Q 1191 994 1439 701 
Q 1688 409 2113 409 
Q 2538 409 2786 701 
Q 3034 994 3034 1497 
Q 3034 2003 2786 2293 
Q 2538 2584 2113 2584 
z
M 3366 4563 
L 3366 3988 
Q 3128 4100 2886 4159 
Q 2644 4219 2406 4219 
Q 1781 4219 1451 3797 
Q 1122 3375 1075 2522 
Q 1259 2794 1537 2939 
Q 1816 3084 2150 3084 
Q 2853 3084 3261 2657 
Q 3669 2231 3669 1497 
Q 3669 778 3244 343 
Q 2819 -91 2113 -91 
Q 1303 -91 875 529 
Q 447 1150 447 2328 
Q 447 3434 972 4092 
Q 1497 4750 2381 4750 
Q 2619 4750 2861 4703 
Q 3103 4656 3366 4563 
z
" id="DejaVuSans-36" transform="scale(0.015625)"/>
       </defs>
       <use xlink:href="#DejaVuSans-31"/>
       <use x="63.623047" xlink:href="#DejaVuSans-31"/>
       <use x="127.246094" xlink:href="#DejaVuSans-36"/>
       <use x="190.869141" xlink:href="#DejaVuSans-30"/>
       <use x="254.492188" xlink:href="#DejaVuSans-30"/>
       <use x="318.115234" xlink:href="#DejaVuSans-30"/>
      </g>
     </g>
    </g>
    <g id="ytick_4">
     <g id="line2d_12">
      <g>
       <use style="stroke:#000000;stroke-width:0.8;" x="57.6" xlink:href="#m0234e2569e" y="129.029023"/>
      </g>
     </g>
     <g id="text_13">
      <!-- 118000 -->
      <g transform="translate(12.425 132.828241)scale(0.1 -0.1)">
       <defs>
        <path d="M 2034 2216 
Q 1584 2216 1326 1975 
Q 1069 1734 1069 1313 
Q 1069 891 1326 650 
Q 1584 409 2034 409 
Q 2484 409 2743 651 
Q 3003 894 3003 1313 
Q 3003 1734 2745 1975 
Q 2488 2216 2034 2216 
z
M 1403 2484 
Q 997 2584 770 2862 
Q 544 3141 544 3541 
Q 544 4100 942 4425 
Q 1341 4750 2034 4750 
Q 2731 4750 3128 4425 
Q 3525 4100 3525 3541 
Q 3525 3141 3298 2862 
Q 3072 2584 2669 2484 
Q 3125 2378 3379 2068 
Q 3634 1759 3634 1313 
Q 3634 634 3220 271 
Q 2806 -91 2034 -91 
Q 1263 -91 848 271 
Q 434 634 434 1313 
Q 434 1759 690 2068 
Q 947 2378 1403 2484 
z
M 1172 3481 
Q 1172 3119 1398 2916 
Q 1625 2713 2034 2713 
Q 2441 2713 2670 2916 
Q 2900 3119 2900 3481 
Q 2900 3844 2670 4047 
Q 2441 4250 2034 4250 
Q 1625 4250 1398 4047 
Q 1172 3844 1172 3481 
z
" id="DejaVuSans-38" transform="scale(0.015625)"/>
       </defs>
       <use xlink:href="#DejaVuSans-31"/>
       <use x="63.623047" xlink:href="#DejaVuSans-31"/>
       <use x="127.246094" xlink:href="#DejaVuSans-38"/>
       <use x="190.869141" xlink:href="#DejaVuSans-30"/>
       <use x="254.492188" xlink:href="#DejaVuSans-30"/>
       <use x="318.115234" xlink:href="#DejaVuSans-30"/>
      </g>
     </g>
    </g>
    <g id="ytick_5">
     <g id="line2d_13">
      <g>
       <use style="stroke:#000000;stroke-width:0.8;" x="57.6" xlink:href="#m0234e2569e" y="91.200911"/>
      </g>
     </g>
     <g id="text_14">
      <!-- 120000 -->
      <g transform="translate(12.425 95.00013)scale(0.1 -0.1)">
       <use xlink:href="#DejaVuSans-31"/>
       <use x="63.623047" xlink:href="#DejaVuSans-32"/>
       <use x="127.246094" xlink:href="#DejaVuSans-30"/>
       <use x="190.869141" xlink:href="#DejaVuSans-30"/>
       <use x="254.492188" xlink:href="#DejaVuSans-30"/>
       <use x="318.115234" xlink:href="#DejaVuSans-30"/>
      </g>
     </g>
    </g>
    <g id="ytick_6">
     <g id="line2d_14">
      <g>
       <use style="stroke:#000000;stroke-width:0.8;" x="57.6" xlink:href="#m0234e2569e" y="53.3728"/>
      </g>
     </g>
     <g id="text_15">
      <!-- 122000 -->
      <g transform="translate(12.425 57.172019)scale(0.1 -0.1)">
       <use xlink:href="#DejaVuSans-31"/>
       <use x="63.623047" xlink:href="#DejaVuSans-32"/>
       <use x="127.246094" xlink:href="#DejaVuSans-32"/>
       <use x="190.869141" xlink:href="#DejaVuSans-30"/>
       <use x="254.492188" xlink:href="#DejaVuSans-30"/>
       <use x="318.115234" xlink:href="#DejaVuSans-30"/>
      </g>
     </g>
    </g>
   </g>
   <g id="line2d_15">
    <path clip-path="url(#p6cbb2ba90c)" d="M 73.832727 162.118307 
L 76.757543 173.820831 
L 85.53199 166.203823 
L 88.456806 154.482832 
L 91.381622 152.857522 
L 97.231253 152.627103 
L 106.0057 184.172295 
L 108.930516 231.716311 
L 111.855332 251.601141 
L 114.780147 214.132012 
L 117.704963 222.477907 
L 126.47941 194.955246 
L 129.404226 158.839819 
L 132.329042 156.224644 
L 135.253857 166.213677 
L 138.178673 148.622438 
L 146.95312 163.320062 
L 149.877936 173.692332 
L 152.802752 150.415607 
L 155.727568 150.293992 
L 158.652383 181.36467 
L 167.42683 217.181122 
L 170.351646 184.760516 
L 173.276462 167.747372 
L 176.201278 154.906511 
L 187.900541 126.989564 
L 190.825356 122.971428 
L 193.750172 117.861706 
L 196.674988 123.548848 
L 199.599803 120.948539 
L 208.374251 110.806635 
L 211.299066 94.093451 
L 214.223882 117.149303 
L 217.148698 117.516426 
L 220.073514 117.031809 
L 228.847961 127.651821 
L 231.772776 106.64526 
L 234.697592 100.776036 
L 237.622408 117.616806 
L 240.547224 118.531011 
L 252.246486 149.553087 
L 255.171302 164.817201 
L 258.096118 187.511074 
L 261.020934 219.370429 
L 269.795381 214.678228 
L 272.720197 225.99028 
L 275.645012 235.148675 
L 278.569828 239.886976 
L 281.494644 209.588388 
L 290.269091 178.388767 
L 293.193907 159.575356 
L 296.118722 144.393583 
L 299.043538 173.104808 
L 301.968354 170.40223 
L 310.742801 171.031116 
L 313.667617 156.594856 
L 316.592432 132.010729 
L 319.517248 165.166321 
L 322.442064 187.594359 
L 331.216511 201.961845 
L 334.141327 180.935683 
L 337.066143 174.210468 
L 339.990958 204.973056 
L 342.915774 213.877817 
L 354.615037 237.126694 
L 357.539853 265.797818 
L 360.464668 256.279745 
L 363.389484 199.941 
L 372.163931 200.290175 
L 375.088747 229.712463 
L 378.013563 188.651499 
L 380.938378 189.70617 
L 383.863194 189.006887 
L 392.637641 234.207488 
L 395.562457 249.511695 
L 398.487273 223.624705 
" style="fill:none;stroke:#0000ff;stroke-linecap:square;stroke-opacity:0.9;stroke-width:2;"/>
   </g>
   <g id="line2d_16">
    <path clip-path="url(#p6cbb2ba90c)" d="M 73.832727 162.118307 
L 76.757543 173.314706 
L 85.53199 166.070421 
L 88.456806 154.714326 
L 91.381622 153.157425 
L 97.231253 202.501262 
L 106.0057 185.809265 
L 108.930516 230.858827 
L 111.855332 251.956013 
L 114.780147 214.585904 
L 117.704963 223.147967 
L 126.47941 194.227855 
L 129.404226 159.984436 
L 132.329042 155.607638 
L 135.253857 167.10194 
L 138.178673 149.563527 
L 146.95312 163.453497 
L 149.877936 173.869589 
L 152.802752 150.375464 
L 155.727568 150.908437 
L 158.652383 181.338531 
L 167.42683 217.010555 
L 170.351646 185.143455 
L 173.276462 167.697201 
L 176.201278 154.087282 
L 187.900541 126.183913 
L 190.825356 122.861519 
L 193.750172 118.450565 
L 196.674988 123.222509 
L 199.599803 120.473962 
L 208.374251 112.772522 
L 211.299066 95.06465 
L 214.223882 116.87638 
L 217.148698 118.3122 
L 220.073514 116.440532 
L 228.847961 125.926313 
L 231.772776 107.130055 
L 234.697592 100.434285 
L 237.622408 116.260289 
L 240.547224 117.214207 
L 252.246486 149.074311 
L 255.171302 162.950239 
L 258.096118 184.447437 
L 261.020934 215.071609 
L 269.795381 211.502211 
L 272.720197 221.317615 
L 275.645012 231.164643 
L 278.569828 234.367637 
L 281.494644 203.68836 
L 290.269091 175.203998 
L 293.193907 154.876797 
L 296.118722 139.112989 
L 299.043538 169.703881 
L 301.968354 165.168316 
L 310.742801 165.198111 
L 313.667617 152.538574 
L 316.592432 129.15725 
L 319.517248 161.312098 
L 322.442064 181.01725 
L 331.216511 197.543302 
L 334.141327 178.141269 
L 337.066143 170.958762 
L 339.990958 199.34566 
L 342.915774 209.342204 
L 354.615037 230.728104 
L 357.539853 259.646797 
L 360.464668 250.950106 
L 363.389484 193.523769 
L 372.163931 193.755584 
L 375.088747 220.597589 
L 378.013563 179.844479 
L 380.938378 178.113685 
L 383.863194 176.068589 
L 392.637641 216.033111 
L 395.562457 232.326393 
L 398.487273 203.426239 
" style="fill:none;stroke:#ff0000;stroke-linecap:square;stroke-opacity:0.9;stroke-width:2;"/>
   </g>
   <g id="line2d_17">
    <path clip-path="url(#p6cbb2ba90c)" d="M 73.832727 162.118307 
L 76.757543 174.737779 
L 85.53199 166.596756 
L 88.456806 155.316923 
L 91.381622 153.176038 
L 97.231253 203.003694 
L 106.0057 183.948139 
L 108.930516 231.468705 
L 111.855332 250.495125 
L 114.780147 212.544611 
L 117.704963 222.068759 
L 126.47941 194.03725 
L 129.404226 157.576394 
L 132.329042 154.42535 
L 135.253857 165.435801 
L 138.178673 147.747541 
L 146.95312 163.26798 
L 149.877936 172.241848 
L 152.802752 150.119109 
L 155.727568 150.417814 
L 158.652383 181.112961 
L 167.42683 215.391014 
L 170.351646 184.04271 
L 173.276462 166.43684 
L 176.201278 152.086705 
L 187.900541 124.100248 
L 190.825356 120.68311 
L 193.750172 116.459012 
L 196.674988 122.2324 
L 199.599803 119.842039 
L 208.374251 110.220733 
L 211.299066 93.162 
L 214.223882 114.295454 
L 217.148698 116.663077 
L 220.073514 115.481973 
L 228.847961 124.116352 
L 231.772776 105.554773 
L 234.697592 97.75337 
L 237.622408 114.631005 
L 240.547224 115.682884 
L 252.246486 147.621821 
L 255.171302 162.515483 
L 258.096118 184.728639 
L 261.020934 217.015288 
L 269.795381 213.034544 
L 272.720197 223.622815 
L 275.645012 232.69083 
L 278.569828 236.868791 
L 281.494644 207.067426 
L 290.269091 174.662423 
L 293.193907 156.902261 
L 296.118722 140.609261 
L 299.043538 171.110339 
L 301.968354 168.46523 
L 310.742801 167.019986 
L 313.667617 154.296706 
L 316.592432 129.412404 
L 319.517248 162.54786 
L 322.442064 185.138872 
L 331.216511 200.009222 
L 334.141327 177.025595 
L 337.066143 170.014685 
L 339.990958 201.184425 
L 342.915774 210.606236 
L 354.615037 233.153403 
L 357.539853 262.310679 
L 360.464668 251.14732 
L 363.389484 194.325468 
L 372.163931 196.427072 
L 375.088747 224.26204 
L 378.013563 183.457402 
L 380.938378 184.449335 
L 383.863194 184.154666 
L 392.637641 230.943254 
L 395.562457 245.652738 
L 398.487273 211.588021 
" style="fill:none;stroke:#008000;stroke-linecap:square;stroke-opacity:0.9;stroke-width:2;"/>
   </g>
   <g id="line2d_18">
    <path clip-path="url(#p6cbb2ba90c)" d="M 73.832727 162.118307 
L 76.757543 174.459145 
L 85.53199 166.817386 
L 88.456806 153.959397 
L 91.381622 153.964463 
L 97.231253 201.86695 
L 106.0057 184.182631 
L 108.930516 231.291756 
L 111.855332 250.492022 
L 114.780147 213.310036 
L 117.704963 222.289406 
L 126.47941 194.588575 
L 129.404226 157.302348 
L 132.329042 155.676594 
L 135.253857 166.412594 
L 138.178673 147.940446 
L 146.95312 163.983101 
L 149.877936 173.399182 
L 152.802752 149.264691 
L 155.727568 151.091179 
L 158.652383 181.436134 
L 167.42683 217.586923 
L 170.351646 185.116573 
L 173.276462 166.582093 
L 176.201278 154.51693 
L 187.900541 125.016973 
L 190.825356 120.383701 
L 193.750172 116.696972 
L 196.674988 121.891598 
L 199.599803 119.439433 
L 208.374251 110.210088 
L 211.299066 92.719393 
L 214.223882 115.399623 
L 217.148698 117.270297 
L 220.073514 115.178937 
L 228.847961 124.895261 
L 231.772776 106.654721 
L 234.697592 98.512143 
L 237.622408 116.112938 
L 240.547224 116.495897 
L 252.246486 148.627561 
L 255.171302 164.096782 
L 258.096118 186.16451 
L 261.020934 217.479311 
L 269.795381 214.093831 
L 272.720197 224.948837 
L 275.645012 234.827043 
L 278.569828 237.761989 
L 281.494644 207.141872 
L 290.269091 176.278518 
L 293.193907 157.453424 
L 296.118722 143.343277 
L 299.043538 172.206666 
L 301.968354 170.039402 
L 310.742801 169.547252 
L 313.667617 155.714951 
L 316.592432 131.617061 
L 319.517248 163.36538 
L 322.442064 185.748701 
L 331.216511 202.221319 
L 334.141327 178.121349 
L 337.066143 171.786948 
L 339.990958 202.889834 
L 342.915774 211.864534 
L 354.615037 235.128109 
L 357.539853 264.353536 
L 360.464668 255.303728 
L 363.389484 197.781345 
L 372.163931 198.063186 
L 375.088747 226.587654 
L 378.013563 187.204423 
L 380.938378 186.094009 
L 383.863194 187.411186 
L 392.637641 233.779747 
L 395.562457 248.47938 
L 398.487273 215.028256 
" style="fill:none;stroke:#ec5283;stroke-linecap:square;stroke-width:2;"/>
   </g>
   <g id="line2d_19">
    <path clip-path="url(#p6cbb2ba90c)" d="M 73.832727 162.118307 
L 76.757543 175.024399 
L 85.53199 165.586223 
L 88.456806 154.777192 
L 91.381622 153.787188 
L 97.231253 201.760392 
L 106.0057 184.316853 
L 108.930516 231.01142 
L 111.855332 249.418802 
L 114.780147 212.875666 
L 117.704963 221.641371 
L 126.47941 193.375324 
L 129.404226 157.950157 
L 132.329042 155.815338 
L 135.253857 164.749273 
L 138.178673 147.796344 
L 146.95312 163.841943 
L 149.877936 172.473005 
L 152.802752 149.056217 
L 155.727568 149.925937 
L 158.652383 180.488445 
L 167.42683 216.847505 
L 170.351646 184.755986 
L 173.276462 166.537513 
L 176.201278 153.254732 
L 187.900541 125.522543 
L 190.825356 120.36785 
L 193.750172 116.105765 
L 196.674988 122.603792 
L 199.599803 119.196558 
L 208.374251 110.179369 
L 211.299066 92.492964 
L 214.223882 114.437913 
L 217.148698 116.749452 
L 220.073514 115.890689 
L 228.847961 124.337996 
L 231.772776 104.494522 
L 234.697592 98.696917 
L 237.622408 114.595703 
L 240.547224 115.966627 
L 252.246486 147.058281 
L 255.171302 163.245101 
L 258.096118 183.784681 
L 261.020934 217.010992 
L 269.795381 211.931621 
L 272.720197 223.27378 
L 275.645012 232.380902 
L 278.569828 237.86146 
L 281.494644 206.663529 
L 290.269091 174.446912 
L 293.193907 157.362287 
L 296.118722 142.120407 
L 299.043538 171.412199 
L 301.968354 168.627216 
L 310.742801 167.899001 
L 313.667617 153.713826 
L 316.592432 130.388955 
L 319.517248 161.68184 
L 322.442064 185.212354 
L 331.216511 199.350591 
L 334.141327 177.988696 
L 337.066143 169.983731 
L 339.990958 200.529917 
L 342.915774 210.361009 
L 354.615037 233.643085 
L 357.539853 261.968851 
L 360.464668 251.226668 
L 363.389484 194.897753 
L 372.163931 196.093918 
L 375.088747 223.804053 
L 378.013563 183.057275 
L 380.938378 183.539351 
L 383.863194 183.927636 
L 392.637641 231.228398 
L 395.562457 246.184219 
L 398.487273 212.768676 
" style="fill:none;stroke:#00ff00;stroke-linecap:square;stroke-opacity:0.9;stroke-width:2;"/>
   </g>
   <g id="line2d_20">
    <path clip-path="url(#p6cbb2ba90c)" d="M 73.832727 162.118307 
L 76.757543 176.741037 
L 85.53199 166.25882 
L 88.456806 149.96744 
L 91.381622 150.435154 
L 97.231253 195.778127 
L 106.0057 183.530211 
L 108.930516 234.953395 
L 111.855332 252.852822 
L 114.780147 210.881033 
L 117.704963 211.704069 
L 126.47941 180.519128 
L 129.404226 151.165009 
L 132.329042 146.918609 
L 135.253857 152.502356 
L 138.178673 138.918975 
L 146.95312 153.893698 
L 149.877936 162.877294 
L 152.802752 144.342188 
L 155.727568 143.992975 
L 158.652383 175.230368 
L 167.42683 206.372318 
L 170.351646 165.087126 
L 173.276462 148.021314 
L 176.201278 128.675278 
L 187.900541 100.26294 
L 190.825356 92.366744 
L 193.750172 90.667997 
L 196.674988 96.898917 
L 199.599803 92.153891 
L 208.374251 80.986539 
L 211.299066 52.154182 
L 214.223882 75.213846 
L 217.148698 74.726033 
L 220.073514 77.261944 
L 228.847961 84.234922 
L 231.772776 64.416275 
L 234.697592 55.971451 
L 237.622408 75.882421 
L 240.547224 78.970005 
L 252.246486 114.541852 
L 255.171302 135.294835 
L 258.096118 156.629273 
L 261.020934 195.032288 
L 269.795381 188.115291 
L 272.720197 203.059473 
L 275.645012 212.686895 
L 278.569828 222.123163 
L 281.494644 186.731797 
L 290.269091 147.546247 
L 293.193907 128.130677 
L 296.118722 114.078031 
L 299.043538 152.786748 
L 301.968354 145.580567 
L 310.742801 147.568275 
L 313.667617 127.059297 
L 316.592432 97.212688 
L 319.517248 130.659082 
L 322.442064 163.56182 
L 331.216511 174.172021 
L 334.141327 146.805569 
L 337.066143 137.852908 
L 339.990958 176.557291 
L 342.915774 187.375326 
L 354.615037 210.574249 
L 357.539853 245.831231 
L 360.464668 226.62553 
L 363.389484 171.796665 
L 372.163931 167.74273 
L 375.088747 202.338436 
L 378.013563 157.981339 
L 380.938378 166.767078 
L 383.863194 176.764439 
L 392.637641 241.217514 
L 395.562457 250.008578 
L 398.487273 194.153769 
" style="fill:none;stroke:#a5b9cf;stroke-linecap:square;stroke-width:2;"/>
   </g>
   <g id="patch_3">
    <path d="M 57.6 276.48 
L 57.6 41.472 
" style="fill:none;stroke:#000000;stroke-linecap:square;stroke-linejoin:miter;stroke-width:0.8;"/>
   </g>
   <g id="patch_4">
    <path d="M 414.72 276.48 
L 414.72 41.472 
" style="fill:none;stroke:#000000;stroke-linecap:square;stroke-linejoin:miter;stroke-width:0.8;"/>
   </g>
   <g id="patch_5">
    <path d="M 57.6 276.48 
L 414.72 276.48 
" style="fill:none;stroke:#000000;stroke-linecap:square;stroke-linejoin:miter;stroke-width:0.8;"/>
   </g>
   <g id="patch_6">
    <path d="M 57.6 41.472 
L 414.72 41.472 
" style="fill:none;stroke:#000000;stroke-linecap:square;stroke-linejoin:miter;stroke-width:0.8;"/>
   </g>
   <g id="text_16">
    <!-- UNCORRELATED -->
    <g transform="translate(187.044375 22.034625)scale(0.12 -0.12)">
     <defs>
      <path d="M 556 4666 
L 1191 4666 
L 1191 1831 
Q 1191 1081 1462 751 
Q 1734 422 2344 422 
Q 2950 422 3222 751 
Q 3494 1081 3494 1831 
L 3494 4666 
L 4128 4666 
L 4128 1753 
Q 4128 841 3676 375 
Q 3225 -91 2344 -91 
Q 1459 -91 1007 375 
Q 556 841 556 1753 
L 556 4666 
z
" id="DejaVuSans-55" transform="scale(0.015625)"/>
      <path d="M 628 4666 
L 1478 4666 
L 3547 763 
L 3547 4666 
L 4159 4666 
L 4159 0 
L 3309 0 
L 1241 3903 
L 1241 0 
L 628 0 
L 628 4666 
z
" id="DejaVuSans-4e" transform="scale(0.015625)"/>
      <path d="M 4122 4306 
L 4122 3641 
Q 3803 3938 3442 4084 
Q 3081 4231 2675 4231 
Q 1875 4231 1450 3742 
Q 1025 3253 1025 2328 
Q 1025 1406 1450 917 
Q 1875 428 2675 428 
Q 3081 428 3442 575 
Q 3803 722 4122 1019 
L 4122 359 
Q 3791 134 3420 21 
Q 3050 -91 2638 -91 
Q 1578 -91 968 557 
Q 359 1206 359 2328 
Q 359 3453 968 4101 
Q 1578 4750 2638 4750 
Q 3056 4750 3426 4639 
Q 3797 4528 4122 4306 
z
" id="DejaVuSans-43" transform="scale(0.015625)"/>
      <path d="M 2522 4238 
Q 1834 4238 1429 3725 
Q 1025 3213 1025 2328 
Q 1025 1447 1429 934 
Q 1834 422 2522 422 
Q 3209 422 3611 934 
Q 4013 1447 4013 2328 
Q 4013 3213 3611 3725 
Q 3209 4238 2522 4238 
z
M 2522 4750 
Q 3503 4750 4090 4092 
Q 4678 3434 4678 2328 
Q 4678 1225 4090 567 
Q 3503 -91 2522 -91 
Q 1538 -91 948 565 
Q 359 1222 359 2328 
Q 359 3434 948 4092 
Q 1538 4750 2522 4750 
z
" id="DejaVuSans-4f" transform="scale(0.015625)"/>
      <path d="M 2841 2188 
Q 3044 2119 3236 1894 
Q 3428 1669 3622 1275 
L 4263 0 
L 3584 0 
L 2988 1197 
Q 2756 1666 2539 1819 
Q 2322 1972 1947 1972 
L 1259 1972 
L 1259 0 
L 628 0 
L 628 4666 
L 2053 4666 
Q 2853 4666 3247 4331 
Q 3641 3997 3641 3322 
Q 3641 2881 3436 2590 
Q 3231 2300 2841 2188 
z
M 1259 4147 
L 1259 2491 
L 2053 2491 
Q 2509 2491 2742 2702 
Q 2975 2913 2975 3322 
Q 2975 3731 2742 3939 
Q 2509 4147 2053 4147 
L 1259 4147 
z
" id="DejaVuSans-52" transform="scale(0.015625)"/>
      <path d="M 628 4666 
L 3578 4666 
L 3578 4134 
L 1259 4134 
L 1259 2753 
L 3481 2753 
L 3481 2222 
L 1259 2222 
L 1259 531 
L 3634 531 
L 3634 0 
L 628 0 
L 628 4666 
z
" id="DejaVuSans-45" transform="scale(0.015625)"/>
      <path d="M 628 4666 
L 1259 4666 
L 1259 531 
L 3531 531 
L 3531 0 
L 628 0 
L 628 4666 
z
" id="DejaVuSans-4c" transform="scale(0.015625)"/>
      <path d="M 2188 4044 
L 1331 1722 
L 3047 1722 
L 2188 4044 
z
M 1831 4666 
L 2547 4666 
L 4325 0 
L 3669 0 
L 3244 1197 
L 1141 1197 
L 716 0 
L 50 0 
L 1831 4666 
z
" id="DejaVuSans-41" transform="scale(0.015625)"/>
      <path d="M -19 4666 
L 3928 4666 
L 3928 4134 
L 2272 4134 
L 2272 0 
L 1638 0 
L 1638 4134 
L -19 4134 
L -19 4666 
z
" id="DejaVuSans-54" transform="scale(0.015625)"/>
      <path d="M 1259 4147 
L 1259 519 
L 2022 519 
Q 2988 519 3436 956 
Q 3884 1394 3884 2338 
Q 3884 3275 3436 3711 
Q 2988 4147 2022 4147 
L 1259 4147 
z
M 628 4666 
L 1925 4666 
Q 3281 4666 3915 4102 
Q 4550 3538 4550 2338 
Q 4550 1131 3912 565 
Q 3275 0 1925 0 
L 628 0 
L 628 4666 
z
" id="DejaVuSans-44" transform="scale(0.015625)"/>
     </defs>
     <use xlink:href="#DejaVuSans-55"/>
     <use x="73.193359" xlink:href="#DejaVuSans-4e"/>
     <use x="147.998047" xlink:href="#DejaVuSans-43"/>
     <use x="217.822266" xlink:href="#DejaVuSans-4f"/>
     <use x="296.533203" xlink:href="#DejaVuSans-52"/>
     <use x="366.015625" xlink:href="#DejaVuSans-52"/>
     <use x="435.498047" xlink:href="#DejaVuSans-45"/>
     <use x="498.681641" xlink:href="#DejaVuSans-4c"/>
     <use x="556.644531" xlink:href="#DejaVuSans-41"/>
     <use x="617.302734" xlink:href="#DejaVuSans-54"/>
     <use x="678.386719" xlink:href="#DejaVuSans-45"/>
     <use x="741.570312" xlink:href="#DejaVuSans-44"/>
    </g>
    <!-- daily_report -->
    <g transform="translate(200.466563 35.472)scale(0.12 -0.12)">
     <defs>
      <path d="M 603 3500 
L 1178 3500 
L 1178 0 
L 603 0 
L 603 3500 
z
M 603 4863 
L 1178 4863 
L 1178 4134 
L 603 4134 
L 603 4863 
z
" id="DejaVuSans-69" transform="scale(0.015625)"/>
      <path d="M 603 4863 
L 1178 4863 
L 1178 0 
L 603 0 
L 603 4863 
z
" id="DejaVuSans-6c" transform="scale(0.015625)"/>
      <path d="M 2059 -325 
Q 1816 -950 1584 -1140 
Q 1353 -1331 966 -1331 
L 506 -1331 
L 506 -850 
L 844 -850 
Q 1081 -850 1212 -737 
Q 1344 -625 1503 -206 
L 1606 56 
L 191 3500 
L 800 3500 
L 1894 763 
L 2988 3500 
L 3597 3500 
L 2059 -325 
z
" id="DejaVuSans-79" transform="scale(0.015625)"/>
      <path d="M 3263 -1063 
L 3263 -1509 
L -63 -1509 
L -63 -1063 
L 3263 -1063 
z
" id="DejaVuSans-5f" transform="scale(0.015625)"/>
      <path d="M 2631 2963 
Q 2534 3019 2420 3045 
Q 2306 3072 2169 3072 
Q 1681 3072 1420 2755 
Q 1159 2438 1159 1844 
L 1159 0 
L 581 0 
L 581 3500 
L 1159 3500 
L 1159 2956 
Q 1341 3275 1631 3429 
Q 1922 3584 2338 3584 
Q 2397 3584 2469 3576 
Q 2541 3569 2628 3553 
L 2631 2963 
z
" id="DejaVuSans-72" transform="scale(0.015625)"/>
      <path d="M 1159 525 
L 1159 -1331 
L 581 -1331 
L 581 3500 
L 1159 3500 
L 1159 2969 
Q 1341 3281 1617 3432 
Q 1894 3584 2278 3584 
Q 2916 3584 3314 3078 
Q 3713 2572 3713 1747 
Q 3713 922 3314 415 
Q 2916 -91 2278 -91 
Q 1894 -91 1617 61 
Q 1341 213 1159 525 
z
M 3116 1747 
Q 3116 2381 2855 2742 
Q 2594 3103 2138 3103 
Q 1681 3103 1420 2742 
Q 1159 2381 1159 1747 
Q 1159 1113 1420 752 
Q 1681 391 2138 391 
Q 2594 391 2855 752 
Q 3116 1113 3116 1747 
z
" id="DejaVuSans-70" transform="scale(0.015625)"/>
      <path d="M 1959 3097 
Q 1497 3097 1228 2736 
Q 959 2375 959 1747 
Q 959 1119 1226 758 
Q 1494 397 1959 397 
Q 2419 397 2687 759 
Q 2956 1122 2956 1747 
Q 2956 2369 2687 2733 
Q 2419 3097 1959 3097 
z
M 1959 3584 
Q 2709 3584 3137 3096 
Q 3566 2609 3566 1747 
Q 3566 888 3137 398 
Q 2709 -91 1959 -91 
Q 1206 -91 779 398 
Q 353 888 353 1747 
Q 353 2609 779 3096 
Q 1206 3584 1959 3584 
z
" id="DejaVuSans-6f" transform="scale(0.015625)"/>
     </defs>
     <use xlink:href="#DejaVuSans-64"/>
     <use x="63.476562" xlink:href="#DejaVuSans-61"/>
     <use x="124.755859" xlink:href="#DejaVuSans-69"/>
     <use x="152.539062" xlink:href="#DejaVuSans-6c"/>
     <use x="180.322266" xlink:href="#DejaVuSans-79"/>
     <use x="239.501953" xlink:href="#DejaVuSans-5f"/>
     <use x="289.501953" xlink:href="#DejaVuSans-72"/>
     <use x="328.365234" xlink:href="#DejaVuSans-65"/>
     <use x="389.888672" xlink:href="#DejaVuSans-70"/>
     <use x="453.365234" xlink:href="#DejaVuSans-6f"/>
     <use x="514.546875" xlink:href="#DejaVuSans-72"/>
     <use x="555.660156" xlink:href="#DejaVuSans-74"/>
    </g>
   </g>
   <g id="legend_1">
    <g id="patch_7">
     <path d="M 64.6 137.54075 
L 178.64375 137.54075 
Q 180.64375 137.54075 180.64375 135.54075 
L 180.64375 48.472 
Q 180.64375 46.472 178.64375 46.472 
L 64.6 46.472 
Q 62.6 46.472 62.6 48.472 
L 62.6 135.54075 
Q 62.6 137.54075 64.6 137.54075 
z
" style="fill:#ffffff;opacity:0.8;stroke:#cccccc;stroke-linejoin:miter;"/>
    </g>
    <g id="line2d_21">
     <path d="M 66.6 54.570437 
L 86.6 54.570437 
" style="fill:none;stroke:#0000ff;stroke-linecap:square;stroke-opacity:0.9;stroke-width:2;"/>
    </g>
    <g id="line2d_22"/>
    <g id="text_17">
     <!-- alpaca -->
     <g transform="translate(94.6 58.070437)scale(0.1 -0.1)">
      <defs>
       <path d="M 3122 3366 
L 3122 2828 
Q 2878 2963 2633 3030 
Q 2388 3097 2138 3097 
Q 1578 3097 1268 2742 
Q 959 2388 959 1747 
Q 959 1106 1268 751 
Q 1578 397 2138 397 
Q 2388 397 2633 464 
Q 2878 531 3122 666 
L 3122 134 
Q 2881 22 2623 -34 
Q 2366 -91 2075 -91 
Q 1284 -91 818 406 
Q 353 903 353 1747 
Q 353 2603 823 3093 
Q 1294 3584 2113 3584 
Q 2378 3584 2631 3529 
Q 2884 3475 3122 3366 
z
" id="DejaVuSans-63" transform="scale(0.015625)"/>
      </defs>
      <use xlink:href="#DejaVuSans-61"/>
      <use x="61.279297" xlink:href="#DejaVuSans-6c"/>
      <use x="89.0625" xlink:href="#DejaVuSans-70"/>
      <use x="152.539062" xlink:href="#DejaVuSans-61"/>
      <use x="213.818359" xlink:href="#DejaVuSans-63"/>
      <use x="268.798828" xlink:href="#DejaVuSans-61"/>
     </g>
    </g>
    <g id="line2d_23">
     <path d="M 66.6 69.248562 
L 86.6 69.248562 
" style="fill:none;stroke:#ff0000;stroke-linecap:square;stroke-opacity:0.9;stroke-width:2;"/>
    </g>
    <g id="line2d_24"/>
    <g id="text_18">
     <!-- mattress -->
     <g transform="translate(94.6 72.748562)scale(0.1 -0.1)">
      <defs>
       <path d="M 3328 2828 
Q 3544 3216 3844 3400 
Q 4144 3584 4550 3584 
Q 5097 3584 5394 3201 
Q 5691 2819 5691 2113 
L 5691 0 
L 5113 0 
L 5113 2094 
Q 5113 2597 4934 2840 
Q 4756 3084 4391 3084 
Q 3944 3084 3684 2787 
Q 3425 2491 3425 1978 
L 3425 0 
L 2847 0 
L 2847 2094 
Q 2847 2600 2669 2842 
Q 2491 3084 2119 3084 
Q 1678 3084 1418 2786 
Q 1159 2488 1159 1978 
L 1159 0 
L 581 0 
L 581 3500 
L 1159 3500 
L 1159 2956 
Q 1356 3278 1631 3431 
Q 1906 3584 2284 3584 
Q 2666 3584 2933 3390 
Q 3200 3197 3328 2828 
z
" id="DejaVuSans-6d" transform="scale(0.015625)"/>
       <path d="M 2834 3397 
L 2834 2853 
Q 2591 2978 2328 3040 
Q 2066 3103 1784 3103 
Q 1356 3103 1142 2972 
Q 928 2841 928 2578 
Q 928 2378 1081 2264 
Q 1234 2150 1697 2047 
L 1894 2003 
Q 2506 1872 2764 1633 
Q 3022 1394 3022 966 
Q 3022 478 2636 193 
Q 2250 -91 1575 -91 
Q 1294 -91 989 -36 
Q 684 19 347 128 
L 347 722 
Q 666 556 975 473 
Q 1284 391 1588 391 
Q 1994 391 2212 530 
Q 2431 669 2431 922 
Q 2431 1156 2273 1281 
Q 2116 1406 1581 1522 
L 1381 1569 
Q 847 1681 609 1914 
Q 372 2147 372 2553 
Q 372 3047 722 3315 
Q 1072 3584 1716 3584 
Q 2034 3584 2315 3537 
Q 2597 3491 2834 3397 
z
" id="DejaVuSans-73" transform="scale(0.015625)"/>
      </defs>
      <use xlink:href="#DejaVuSans-6d"/>
      <use x="97.412109" xlink:href="#DejaVuSans-61"/>
      <use x="158.691406" xlink:href="#DejaVuSans-74"/>
      <use x="197.900391" xlink:href="#DejaVuSans-74"/>
      <use x="237.109375" xlink:href="#DejaVuSans-72"/>
      <use x="275.972656" xlink:href="#DejaVuSans-65"/>
      <use x="337.496094" xlink:href="#DejaVuSans-73"/>
      <use x="389.595703" xlink:href="#DejaVuSans-73"/>
     </g>
    </g>
    <g id="line2d_25">
     <path d="M 66.6 83.926687 
L 86.6 83.926687 
" style="fill:none;stroke:#008000;stroke-linecap:square;stroke-opacity:0.9;stroke-width:2;"/>
    </g>
    <g id="line2d_26"/>
    <g id="text_19">
     <!-- daily-open-rebal -->
     <g transform="translate(94.6 87.426687)scale(0.1 -0.1)">
      <defs>
       <path d="M 3513 2113 
L 3513 0 
L 2938 0 
L 2938 2094 
Q 2938 2591 2744 2837 
Q 2550 3084 2163 3084 
Q 1697 3084 1428 2787 
Q 1159 2491 1159 1978 
L 1159 0 
L 581 0 
L 581 3500 
L 1159 3500 
L 1159 2956 
Q 1366 3272 1645 3428 
Q 1925 3584 2291 3584 
Q 2894 3584 3203 3211 
Q 3513 2838 3513 2113 
z
" id="DejaVuSans-6e" transform="scale(0.015625)"/>
       <path d="M 3116 1747 
Q 3116 2381 2855 2742 
Q 2594 3103 2138 3103 
Q 1681 3103 1420 2742 
Q 1159 2381 1159 1747 
Q 1159 1113 1420 752 
Q 1681 391 2138 391 
Q 2594 391 2855 752 
Q 3116 1113 3116 1747 
z
M 1159 2969 
Q 1341 3281 1617 3432 
Q 1894 3584 2278 3584 
Q 2916 3584 3314 3078 
Q 3713 2572 3713 1747 
Q 3713 922 3314 415 
Q 2916 -91 2278 -91 
Q 1894 -91 1617 61 
Q 1341 213 1159 525 
L 1159 0 
L 581 0 
L 581 4863 
L 1159 4863 
L 1159 2969 
z
" id="DejaVuSans-62" transform="scale(0.015625)"/>
      </defs>
      <use xlink:href="#DejaVuSans-64"/>
      <use x="63.476562" xlink:href="#DejaVuSans-61"/>
      <use x="124.755859" xlink:href="#DejaVuSans-69"/>
      <use x="152.539062" xlink:href="#DejaVuSans-6c"/>
      <use x="180.322266" xlink:href="#DejaVuSans-79"/>
      <use x="237.751953" xlink:href="#DejaVuSans-2d"/>
      <use x="275.710938" xlink:href="#DejaVuSans-6f"/>
      <use x="336.892578" xlink:href="#DejaVuSans-70"/>
      <use x="400.369141" xlink:href="#DejaVuSans-65"/>
      <use x="461.892578" xlink:href="#DejaVuSans-6e"/>
      <use x="525.271484" xlink:href="#DejaVuSans-2d"/>
      <use x="561.355469" xlink:href="#DejaVuSans-72"/>
      <use x="600.21875" xlink:href="#DejaVuSans-65"/>
      <use x="661.742188" xlink:href="#DejaVuSans-62"/>
      <use x="725.21875" xlink:href="#DejaVuSans-61"/>
      <use x="786.498047" xlink:href="#DejaVuSans-6c"/>
     </g>
    </g>
    <g id="line2d_27">
     <path d="M 66.6 98.604812 
L 86.6 98.604812 
" style="fill:none;stroke:#ec5283;stroke-linecap:square;stroke-width:2;"/>
    </g>
    <g id="line2d_28"/>
    <g id="text_20">
     <!-- daily-close-rebal -->
     <g transform="translate(94.6 102.104812)scale(0.1 -0.1)">
      <use xlink:href="#DejaVuSans-64"/>
      <use x="63.476562" xlink:href="#DejaVuSans-61"/>
      <use x="124.755859" xlink:href="#DejaVuSans-69"/>
      <use x="152.539062" xlink:href="#DejaVuSans-6c"/>
      <use x="180.322266" xlink:href="#DejaVuSans-79"/>
      <use x="237.751953" xlink:href="#DejaVuSans-2d"/>
      <use x="273.835938" xlink:href="#DejaVuSans-63"/>
      <use x="328.816406" xlink:href="#DejaVuSans-6c"/>
      <use x="356.599609" xlink:href="#DejaVuSans-6f"/>
      <use x="417.78125" xlink:href="#DejaVuSans-73"/>
      <use x="469.880859" xlink:href="#DejaVuSans-65"/>
      <use x="531.404297" xlink:href="#DejaVuSans-2d"/>
      <use x="567.488281" xlink:href="#DejaVuSans-72"/>
      <use x="606.351562" xlink:href="#DejaVuSans-65"/>
      <use x="667.875" xlink:href="#DejaVuSans-62"/>
      <use x="731.351562" xlink:href="#DejaVuSans-61"/>
      <use x="792.630859" xlink:href="#DejaVuSans-6c"/>
     </g>
    </g>
    <g id="line2d_29">
     <path d="M 66.6 113.282937 
L 86.6 113.282937 
" style="fill:none;stroke:#00ff00;stroke-linecap:square;stroke-opacity:0.9;stroke-width:2;"/>
    </g>
    <g id="line2d_30"/>
    <g id="text_21">
     <!-- trader-baseline -->
     <g transform="translate(94.6 116.782937)scale(0.1 -0.1)">
      <use xlink:href="#DejaVuSans-74"/>
      <use x="39.208984" xlink:href="#DejaVuSans-72"/>
      <use x="80.322266" xlink:href="#DejaVuSans-61"/>
      <use x="141.601562" xlink:href="#DejaVuSans-64"/>
      <use x="205.078125" xlink:href="#DejaVuSans-65"/>
      <use x="266.601562" xlink:href="#DejaVuSans-72"/>
      <use x="301.339844" xlink:href="#DejaVuSans-2d"/>
      <use x="337.423828" xlink:href="#DejaVuSans-62"/>
      <use x="400.900391" xlink:href="#DejaVuSans-61"/>
      <use x="462.179688" xlink:href="#DejaVuSans-73"/>
      <use x="514.279297" xlink:href="#DejaVuSans-65"/>
      <use x="575.802734" xlink:href="#DejaVuSans-6c"/>
      <use x="603.585938" xlink:href="#DejaVuSans-69"/>
      <use x="631.369141" xlink:href="#DejaVuSans-6e"/>
      <use x="694.748047" xlink:href="#DejaVuSans-65"/>
     </g>
    </g>
    <g id="line2d_31">
     <path d="M 66.6 127.961062 
L 86.6 127.961062 
" style="fill:none;stroke:#a5b9cf;stroke-linecap:square;stroke-width:2;"/>
    </g>
    <g id="line2d_32"/>
    <g id="text_22">
     <!-- default-cfg -->
     <g transform="translate(94.6 131.461062)scale(0.1 -0.1)">
      <defs>
       <path d="M 2375 4863 
L 2375 4384 
L 1825 4384 
Q 1516 4384 1395 4259 
Q 1275 4134 1275 3809 
L 1275 3500 
L 2222 3500 
L 2222 3053 
L 1275 3053 
L 1275 0 
L 697 0 
L 697 3053 
L 147 3053 
L 147 3500 
L 697 3500 
L 697 3744 
Q 697 4328 969 4595 
Q 1241 4863 1831 4863 
L 2375 4863 
z
" id="DejaVuSans-66" transform="scale(0.015625)"/>
       <path d="M 544 1381 
L 544 3500 
L 1119 3500 
L 1119 1403 
Q 1119 906 1312 657 
Q 1506 409 1894 409 
Q 2359 409 2629 706 
Q 2900 1003 2900 1516 
L 2900 3500 
L 3475 3500 
L 3475 0 
L 2900 0 
L 2900 538 
Q 2691 219 2414 64 
Q 2138 -91 1772 -91 
Q 1169 -91 856 284 
Q 544 659 544 1381 
z
M 1991 3584 
L 1991 3584 
z
" id="DejaVuSans-75" transform="scale(0.015625)"/>
       <path d="M 2906 1791 
Q 2906 2416 2648 2759 
Q 2391 3103 1925 3103 
Q 1463 3103 1205 2759 
Q 947 2416 947 1791 
Q 947 1169 1205 825 
Q 1463 481 1925 481 
Q 2391 481 2648 825 
Q 2906 1169 2906 1791 
z
M 3481 434 
Q 3481 -459 3084 -895 
Q 2688 -1331 1869 -1331 
Q 1566 -1331 1297 -1286 
Q 1028 -1241 775 -1147 
L 775 -588 
Q 1028 -725 1275 -790 
Q 1522 -856 1778 -856 
Q 2344 -856 2625 -561 
Q 2906 -266 2906 331 
L 2906 616 
Q 2728 306 2450 153 
Q 2172 0 1784 0 
Q 1141 0 747 490 
Q 353 981 353 1791 
Q 353 2603 747 3093 
Q 1141 3584 1784 3584 
Q 2172 3584 2450 3431 
Q 2728 3278 2906 2969 
L 2906 3500 
L 3481 3500 
L 3481 434 
z
" id="DejaVuSans-67" transform="scale(0.015625)"/>
      </defs>
      <use xlink:href="#DejaVuSans-64"/>
      <use x="63.476562" xlink:href="#DejaVuSans-65"/>
      <use x="125" xlink:href="#DejaVuSans-66"/>
      <use x="160.205078" xlink:href="#DejaVuSans-61"/>
      <use x="221.484375" xlink:href="#DejaVuSans-75"/>
      <use x="284.863281" xlink:href="#DejaVuSans-6c"/>
      <use x="312.646484" xlink:href="#DejaVuSans-74"/>
      <use x="351.855469" xlink:href="#DejaVuSans-2d"/>
      <use x="387.939453" xlink:href="#DejaVuSans-63"/>
      <use x="442.919922" xlink:href="#DejaVuSans-66"/>
      <use x="478.125" xlink:href="#DejaVuSans-67"/>
     </g>
    </g>
   </g>
  </g>
 </g>
 <defs>
  <clipPath id="p6cbb2ba90c">
   <rect height="235.008" width="357.12" x="57.6" y="41.472"/>
  </clipPath>
 </defs>
</svg>
