<?xml version="1.0" encoding="utf-8" standalone="no"?>
<!DOCTYPE svg PUBLIC "-//W3C//DTD SVG 1.1//EN"
  "http://www.w3.org/Graphics/SVG/1.1/DTD/svg11.dtd">
<svg height="345.6pt" version="1.1" viewBox="0 0 460.8 345.6" width="460.8pt" xmlns="http://www.w3.org/2000/svg" xmlns:xlink="http://www.w3.org/1999/xlink">
 <metadata>
  <rdf:RDF xmlns:cc="http://creativecommons.org/ns#" xmlns:dc="http://purl.org/dc/elements/1.1/" xmlns:rdf="http://www.w3.org/1999/02/22-rdf-syntax-ns#">
   <cc:Work>
    <dc:type rdf:resource="http://purl.org/dc/dcmitype/StillImage"/>
    <dc:date>2022-04-21T10:01:44.791216</dc:date>
    <dc:format>image/svg+xml</dc:format>
    <dc:creator>
     <cc:Agent>
      <dc:title>Matplotlib v3.4.3, https://matplotlib.org/</dc:title>
     </cc:Agent>
    </dc:creator>
   </cc:Work>
  </rdf:RDF>
 </metadata>
 <defs>
  <style type="text/css">*{stroke-linecap:butt;stroke-linejoin:round;}</style>
 </defs>
 <g id="figure_1">
  <g id="patch_1">
   <path d="M 0 345.6 
L 460.8 345.6 
L 460.8 0 
L 0 0 
z
" style="fill:#ffffff;"/>
  </g>
  <g id="axes_1">
   <g id="patch_2">
    <path d="M 57.6 276.48 
L 414.72 276.48 
L 414.72 41.472 
L 57.6 41.472 
z
" style="fill:#ffffff;"/>
   </g>
   <g id="matplotlib.axis_1">
    <g id="xtick_1">
     <g id="line2d_1">
      <defs>
       <path d="M 0 0 
L 0 3.5 
" id="m8d5e2ec579" style="stroke:#000000;stroke-width:0.8;"/>
      </defs>
      <g>
       <use style="stroke:#000000;stroke-width:0.8;" x="101.417754" xlink:href="#m8d5e2ec579" y="276.48"/>
      </g>
     </g>
     <g id="text_1">
      <!-- 2021-12 -->
      <g transform="translate(64.192933 310.951846)rotate(-30)scale(0.1 -0.1)">
       <defs>
        <path d="M 1228 531 
L 3431 531 
L 3431 0 
L 469 0 
L 469 531 
Q 828 903 1448 1529 
Q 2069 2156 2228 2338 
Q 2531 2678 2651 2914 
Q 2772 3150 2772 3378 
Q 2772 3750 2511 3984 
Q 2250 4219 1831 4219 
Q 1534 4219 1204 4116 
Q 875 4013 500 3803 
L 500 4441 
Q 881 4594 1212 4672 
Q 1544 4750 1819 4750 
Q 2544 4750 2975 4387 
Q 3406 4025 3406 3419 
Q 3406 3131 3298 2873 
Q 3191 2616 2906 2266 
Q 2828 2175 2409 1742 
Q 1991 1309 1228 531 
z
" id="DejaVuSans-32" transform="scale(0.015625)"/>
        <path d="M 2034 4250 
Q 1547 4250 1301 3770 
Q 1056 3291 1056 2328 
Q 1056 1369 1301 889 
Q 1547 409 2034 409 
Q 2525 409 2770 889 
Q 3016 1369 3016 2328 
Q 3016 3291 2770 3770 
Q 2525 4250 2034 4250 
z
M 2034 4750 
Q 2819 4750 3233 4129 
Q 3647 3509 3647 2328 
Q 3647 1150 3233 529 
Q 2819 -91 2034 -91 
Q 1250 -91 836 529 
Q 422 1150 422 2328 
Q 422 3509 836 4129 
Q 1250 4750 2034 4750 
z
" id="DejaVuSans-30" transform="scale(0.015625)"/>
        <path d="M 794 531 
L 1825 531 
L 1825 4091 
L 703 3866 
L 703 4441 
L 1819 4666 
L 2450 4666 
L 2450 531 
L 3481 531 
L 3481 0 
L 794 0 
L 794 531 
z
" id="DejaVuSans-31" transform="scale(0.015625)"/>
        <path d="M 313 2009 
L 1997 2009 
L 1997 1497 
L 313 1497 
L 313 2009 
z
" id="DejaVuSans-2d" transform="scale(0.015625)"/>
       </defs>
       <use xlink:href="#DejaVuSans-32"/>
       <use x="63.623047" xlink:href="#DejaVuSans-30"/>
       <use x="127.246094" xlink:href="#DejaVuSans-32"/>
       <use x="190.869141" xlink:href="#DejaVuSans-31"/>
       <use x="254.492188" xlink:href="#DejaVuSans-2d"/>
       <use x="290.576172" xlink:href="#DejaVuSans-31"/>
       <use x="354.199219" xlink:href="#DejaVuSans-32"/>
      </g>
     </g>
    </g>
    <g id="xtick_2">
     <g id="line2d_2">
      <g>
       <use style="stroke:#000000;stroke-width:0.8;" x="167.197433" xlink:href="#m8d5e2ec579" y="276.48"/>
      </g>
     </g>
     <g id="text_2">
      <!-- 2022-01 -->
      <g transform="translate(129.972612 310.951846)rotate(-30)scale(0.1 -0.1)">
       <use xlink:href="#DejaVuSans-32"/>
       <use x="63.623047" xlink:href="#DejaVuSans-30"/>
       <use x="127.246094" xlink:href="#DejaVuSans-32"/>
       <use x="190.869141" xlink:href="#DejaVuSans-32"/>
       <use x="254.492188" xlink:href="#DejaVuSans-2d"/>
       <use x="290.576172" xlink:href="#DejaVuSans-30"/>
       <use x="354.199219" xlink:href="#DejaVuSans-31"/>
      </g>
     </g>
    </g>
    <g id="xtick_3">
     <g id="line2d_3">
      <g>
       <use style="stroke:#000000;stroke-width:0.8;" x="232.977112" xlink:href="#m8d5e2ec579" y="276.48"/>
      </g>
     </g>
     <g id="text_3">
      <!-- 2022-02 -->
      <g transform="translate(195.752291 310.951846)rotate(-30)scale(0.1 -0.1)">
       <use xlink:href="#DejaVuSans-32"/>
       <use x="63.623047" xlink:href="#DejaVuSans-30"/>
       <use x="127.246094" xlink:href="#DejaVuSans-32"/>
       <use x="190.869141" xlink:href="#DejaVuSans-32"/>
       <use x="254.492188" xlink:href="#DejaVuSans-2d"/>
       <use x="290.576172" xlink:href="#DejaVuSans-30"/>
       <use x="354.199219" xlink:href="#DejaVuSans-32"/>
      </g>
     </g>
    </g>
    <g id="xtick_4">
     <g id="line2d_4">
      <g>
       <use style="stroke:#000000;stroke-width:0.8;" x="292.391016" xlink:href="#m8d5e2ec579" y="276.48"/>
      </g>
     </g>
     <g id="text_4">
      <!-- 2022-03 -->
      <g transform="translate(255.166195 310.951846)rotate(-30)scale(0.1 -0.1)">
       <defs>
        <path d="M 2597 2516 
Q 3050 2419 3304 2112 
Q 3559 1806 3559 1356 
Q 3559 666 3084 287 
Q 2609 -91 1734 -91 
Q 1441 -91 1130 -33 
Q 819 25 488 141 
L 488 750 
Q 750 597 1062 519 
Q 1375 441 1716 441 
Q 2309 441 2620 675 
Q 2931 909 2931 1356 
Q 2931 1769 2642 2001 
Q 2353 2234 1838 2234 
L 1294 2234 
L 1294 2753 
L 1863 2753 
Q 2328 2753 2575 2939 
Q 2822 3125 2822 3475 
Q 2822 3834 2567 4026 
Q 2313 4219 1838 4219 
Q 1578 4219 1281 4162 
Q 984 4106 628 3988 
L 628 4550 
Q 988 4650 1302 4700 
Q 1616 4750 1894 4750 
Q 2613 4750 3031 4423 
Q 3450 4097 3450 3541 
Q 3450 3153 3228 2886 
Q 3006 2619 2597 2516 
z
" id="DejaVuSans-33" transform="scale(0.015625)"/>
       </defs>
       <use xlink:href="#DejaVuSans-32"/>
       <use x="63.623047" xlink:href="#DejaVuSans-30"/>
       <use x="127.246094" xlink:href="#DejaVuSans-32"/>
       <use x="190.869141" xlink:href="#DejaVuSans-32"/>
       <use x="254.492188" xlink:href="#DejaVuSans-2d"/>
       <use x="290.576172" xlink:href="#DejaVuSans-30"/>
       <use x="354.199219" xlink:href="#DejaVuSans-33"/>
      </g>
     </g>
    </g>
    <g id="xtick_5">
     <g id="line2d_5">
      <g>
       <use style="stroke:#000000;stroke-width:0.8;" x="358.170695" xlink:href="#m8d5e2ec579" y="276.48"/>
      </g>
     </g>
     <g id="text_5">
      <!-- 2022-04 -->
      <g transform="translate(320.945874 310.951846)rotate(-30)scale(0.1 -0.1)">
       <defs>
        <path d="M 2419 4116 
L 825 1625 
L 2419 1625 
L 2419 4116 
z
M 2253 4666 
L 3047 4666 
L 3047 1625 
L 3713 1625 
L 3713 1100 
L 3047 1100 
L 3047 0 
L 2419 0 
L 2419 1100 
L 313 1100 
L 313 1709 
L 2253 4666 
z
" id="DejaVuSans-34" transform="scale(0.015625)"/>
       </defs>
       <use xlink:href="#DejaVuSans-32"/>
       <use x="63.623047" xlink:href="#DejaVuSans-30"/>
       <use x="127.246094" xlink:href="#DejaVuSans-32"/>
       <use x="190.869141" xlink:href="#DejaVuSans-32"/>
       <use x="254.492188" xlink:href="#DejaVuSans-2d"/>
       <use x="290.576172" xlink:href="#DejaVuSans-30"/>
       <use x="354.199219" xlink:href="#DejaVuSans-34"/>
      </g>
     </g>
    </g>
    <g id="text_6">
     <!-- date -->
     <g transform="translate(224.885 324.351346)scale(0.1 -0.1)">
      <defs>
       <path d="M 2906 2969 
L 2906 4863 
L 3481 4863 
L 3481 0 
L 2906 0 
L 2906 525 
Q 2725 213 2448 61 
Q 2172 -91 1784 -91 
Q 1150 -91 751 415 
Q 353 922 353 1747 
Q 353 2572 751 3078 
Q 1150 3584 1784 3584 
Q 2172 3584 2448 3432 
Q 2725 3281 2906 2969 
z
M 947 1747 
Q 947 1113 1208 752 
Q 1469 391 1925 391 
Q 2381 391 2643 752 
Q 2906 1113 2906 1747 
Q 2906 2381 2643 2742 
Q 2381 3103 1925 3103 
Q 1469 3103 1208 2742 
Q 947 2381 947 1747 
z
" id="DejaVuSans-64" transform="scale(0.015625)"/>
       <path d="M 2194 1759 
Q 1497 1759 1228 1600 
Q 959 1441 959 1056 
Q 959 750 1161 570 
Q 1363 391 1709 391 
Q 2188 391 2477 730 
Q 2766 1069 2766 1631 
L 2766 1759 
L 2194 1759 
z
M 3341 1997 
L 3341 0 
L 2766 0 
L 2766 531 
Q 2569 213 2275 61 
Q 1981 -91 1556 -91 
Q 1019 -91 701 211 
Q 384 513 384 1019 
Q 384 1609 779 1909 
Q 1175 2209 1959 2209 
L 2766 2209 
L 2766 2266 
Q 2766 2663 2505 2880 
Q 2244 3097 1772 3097 
Q 1472 3097 1187 3025 
Q 903 2953 641 2809 
L 641 3341 
Q 956 3463 1253 3523 
Q 1550 3584 1831 3584 
Q 2591 3584 2966 3190 
Q 3341 2797 3341 1997 
z
" id="DejaVuSans-61" transform="scale(0.015625)"/>
       <path d="M 1172 4494 
L 1172 3500 
L 2356 3500 
L 2356 3053 
L 1172 3053 
L 1172 1153 
Q 1172 725 1289 603 
Q 1406 481 1766 481 
L 2356 481 
L 2356 0 
L 1766 0 
Q 1100 0 847 248 
Q 594 497 594 1153 
L 594 3053 
L 172 3053 
L 172 3500 
L 594 3500 
L 594 4494 
L 1172 4494 
z
" id="DejaVuSans-74" transform="scale(0.015625)"/>
       <path d="M 3597 1894 
L 3597 1613 
L 953 1613 
Q 991 1019 1311 708 
Q 1631 397 2203 397 
Q 2534 397 2845 478 
Q 3156 559 3463 722 
L 3463 178 
Q 3153 47 2828 -22 
Q 2503 -91 2169 -91 
Q 1331 -91 842 396 
Q 353 884 353 1716 
Q 353 2575 817 3079 
Q 1281 3584 2069 3584 
Q 2775 3584 3186 3129 
Q 3597 2675 3597 1894 
z
M 3022 2063 
Q 3016 2534 2758 2815 
Q 2500 3097 2075 3097 
Q 1594 3097 1305 2825 
Q 1016 2553 972 2059 
L 3022 2063 
z
" id="DejaVuSans-65" transform="scale(0.015625)"/>
      </defs>
      <use xlink:href="#DejaVuSans-64"/>
      <use x="63.476562" xlink:href="#DejaVuSans-61"/>
      <use x="124.755859" xlink:href="#DejaVuSans-74"/>
      <use x="163.964844" xlink:href="#DejaVuSans-65"/>
     </g>
    </g>
   </g>
   <g id="matplotlib.axis_2">
    <g id="ytick_1">
     <g id="line2d_6">
      <defs>
       <path d="M 0 0 
L -3.5 0 
" id="m91d5b22ef6" style="stroke:#000000;stroke-width:0.8;"/>
      </defs>
      <g>
       <use style="stroke:#000000;stroke-width:0.8;" x="57.6" xlink:href="#m91d5b22ef6" y="274.481917"/>
      </g>
     </g>
     <g id="text_7">
      <!-- 84000 -->
      <g transform="translate(18.7875 278.281135)scale(0.1 -0.1)">
       <defs>
        <path d="M 2034 2216 
Q 1584 2216 1326 1975 
Q 1069 1734 1069 1313 
Q 1069 891 1326 650 
Q 1584 409 2034 409 
Q 2484 409 2743 651 
Q 3003 894 3003 1313 
Q 3003 1734 2745 1975 
Q 2488 2216 2034 2216 
z
M 1403 2484 
Q 997 2584 770 2862 
Q 544 3141 544 3541 
Q 544 4100 942 4425 
Q 1341 4750 2034 4750 
Q 2731 4750 3128 4425 
Q 3525 4100 3525 3541 
Q 3525 3141 3298 2862 
Q 3072 2584 2669 2484 
Q 3125 2378 3379 2068 
Q 3634 1759 3634 1313 
Q 3634 634 3220 271 
Q 2806 -91 2034 -91 
Q 1263 -91 848 271 
Q 434 634 434 1313 
Q 434 1759 690 2068 
Q 947 2378 1403 2484 
z
M 1172 3481 
Q 1172 3119 1398 2916 
Q 1625 2713 2034 2713 
Q 2441 2713 2670 2916 
Q 2900 3119 2900 3481 
Q 2900 3844 2670 4047 
Q 2441 4250 2034 4250 
Q 1625 4250 1398 4047 
Q 1172 3844 1172 3481 
z
" id="DejaVuSans-38" transform="scale(0.015625)"/>
       </defs>
       <use xlink:href="#DejaVuSans-38"/>
       <use x="63.623047" xlink:href="#DejaVuSans-34"/>
       <use x="127.246094" xlink:href="#DejaVuSans-30"/>
       <use x="190.869141" xlink:href="#DejaVuSans-30"/>
       <use x="254.492188" xlink:href="#DejaVuSans-30"/>
      </g>
     </g>
    </g>
    <g id="ytick_2">
     <g id="line2d_7">
      <g>
       <use style="stroke:#000000;stroke-width:0.8;" x="57.6" xlink:href="#m91d5b22ef6" y="246.2927"/>
      </g>
     </g>
     <g id="text_8">
      <!-- 86000 -->
      <g transform="translate(18.7875 250.091918)scale(0.1 -0.1)">
       <defs>
        <path d="M 2113 2584 
Q 1688 2584 1439 2293 
Q 1191 2003 1191 1497 
Q 1191 994 1439 701 
Q 1688 409 2113 409 
Q 2538 409 2786 701 
Q 3034 994 3034 1497 
Q 3034 2003 2786 2293 
Q 2538 2584 2113 2584 
z
M 3366 4563 
L 3366 3988 
Q 3128 4100 2886 4159 
Q 2644 4219 2406 4219 
Q 1781 4219 1451 3797 
Q 1122 3375 1075 2522 
Q 1259 2794 1537 2939 
Q 1816 3084 2150 3084 
Q 2853 3084 3261 2657 
Q 3669 2231 3669 1497 
Q 3669 778 3244 343 
Q 2819 -91 2113 -91 
Q 1303 -91 875 529 
Q 447 1150 447 2328 
Q 447 3434 972 4092 
Q 1497 4750 2381 4750 
Q 2619 4750 2861 4703 
Q 3103 4656 3366 4563 
z
" id="DejaVuSans-36" transform="scale(0.015625)"/>
       </defs>
       <use xlink:href="#DejaVuSans-38"/>
       <use x="63.623047" xlink:href="#DejaVuSans-36"/>
       <use x="127.246094" xlink:href="#DejaVuSans-30"/>
       <use x="190.869141" xlink:href="#DejaVuSans-30"/>
       <use x="254.492188" xlink:href="#DejaVuSans-30"/>
      </g>
     </g>
    </g>
    <g id="ytick_3">
     <g id="line2d_8">
      <g>
       <use style="stroke:#000000;stroke-width:0.8;" x="57.6" xlink:href="#m91d5b22ef6" y="218.103483"/>
      </g>
     </g>
     <g id="text_9">
      <!-- 88000 -->
      <g transform="translate(18.7875 221.902701)scale(0.1 -0.1)">
       <use xlink:href="#DejaVuSans-38"/>
       <use x="63.623047" xlink:href="#DejaVuSans-38"/>
       <use x="127.246094" xlink:href="#DejaVuSans-30"/>
       <use x="190.869141" xlink:href="#DejaVuSans-30"/>
       <use x="254.492188" xlink:href="#DejaVuSans-30"/>
      </g>
     </g>
    </g>
    <g id="ytick_4">
     <g id="line2d_9">
      <g>
       <use style="stroke:#000000;stroke-width:0.8;" x="57.6" xlink:href="#m91d5b22ef6" y="189.914266"/>
      </g>
     </g>
     <g id="text_10">
      <!-- 90000 -->
      <g transform="translate(18.7875 193.713484)scale(0.1 -0.1)">
       <defs>
        <path d="M 703 97 
L 703 672 
Q 941 559 1184 500 
Q 1428 441 1663 441 
Q 2288 441 2617 861 
Q 2947 1281 2994 2138 
Q 2813 1869 2534 1725 
Q 2256 1581 1919 1581 
Q 1219 1581 811 2004 
Q 403 2428 403 3163 
Q 403 3881 828 4315 
Q 1253 4750 1959 4750 
Q 2769 4750 3195 4129 
Q 3622 3509 3622 2328 
Q 3622 1225 3098 567 
Q 2575 -91 1691 -91 
Q 1453 -91 1209 -44 
Q 966 3 703 97 
z
M 1959 2075 
Q 2384 2075 2632 2365 
Q 2881 2656 2881 3163 
Q 2881 3666 2632 3958 
Q 2384 4250 1959 4250 
Q 1534 4250 1286 3958 
Q 1038 3666 1038 3163 
Q 1038 2656 1286 2365 
Q 1534 2075 1959 2075 
z
" id="DejaVuSans-39" transform="scale(0.015625)"/>
       </defs>
       <use xlink:href="#DejaVuSans-39"/>
       <use x="63.623047" xlink:href="#DejaVuSans-30"/>
       <use x="127.246094" xlink:href="#DejaVuSans-30"/>
       <use x="190.869141" xlink:href="#DejaVuSans-30"/>
       <use x="254.492188" xlink:href="#DejaVuSans-30"/>
      </g>
     </g>
    </g>
    <g id="ytick_5">
     <g id="line2d_10">
      <g>
       <use style="stroke:#000000;stroke-width:0.8;" x="57.6" xlink:href="#m91d5b22ef6" y="161.725049"/>
      </g>
     </g>
     <g id="text_11">
      <!-- 92000 -->
      <g transform="translate(18.7875 165.524267)scale(0.1 -0.1)">
       <use xlink:href="#DejaVuSans-39"/>
       <use x="63.623047" xlink:href="#DejaVuSans-32"/>
       <use x="127.246094" xlink:href="#DejaVuSans-30"/>
       <use x="190.869141" xlink:href="#DejaVuSans-30"/>
       <use x="254.492188" xlink:href="#DejaVuSans-30"/>
      </g>
     </g>
    </g>
    <g id="ytick_6">
     <g id="line2d_11">
      <g>
       <use style="stroke:#000000;stroke-width:0.8;" x="57.6" xlink:href="#m91d5b22ef6" y="133.535832"/>
      </g>
     </g>
     <g id="text_12">
      <!-- 94000 -->
      <g transform="translate(18.7875 137.33505)scale(0.1 -0.1)">
       <use xlink:href="#DejaVuSans-39"/>
       <use x="63.623047" xlink:href="#DejaVuSans-34"/>
       <use x="127.246094" xlink:href="#DejaVuSans-30"/>
       <use x="190.869141" xlink:href="#DejaVuSans-30"/>
       <use x="254.492188" xlink:href="#DejaVuSans-30"/>
      </g>
     </g>
    </g>
    <g id="ytick_7">
     <g id="line2d_12">
      <g>
       <use style="stroke:#000000;stroke-width:0.8;" x="57.6" xlink:href="#m91d5b22ef6" y="105.346615"/>
      </g>
     </g>
     <g id="text_13">
      <!-- 96000 -->
      <g transform="translate(18.7875 109.145833)scale(0.1 -0.1)">
       <use xlink:href="#DejaVuSans-39"/>
       <use x="63.623047" xlink:href="#DejaVuSans-36"/>
       <use x="127.246094" xlink:href="#DejaVuSans-30"/>
       <use x="190.869141" xlink:href="#DejaVuSans-30"/>
       <use x="254.492188" xlink:href="#DejaVuSans-30"/>
      </g>
     </g>
    </g>
    <g id="ytick_8">
     <g id="line2d_13">
      <g>
       <use style="stroke:#000000;stroke-width:0.8;" x="57.6" xlink:href="#m91d5b22ef6" y="77.157398"/>
      </g>
     </g>
     <g id="text_14">
      <!-- 98000 -->
      <g transform="translate(18.7875 80.956616)scale(0.1 -0.1)">
       <use xlink:href="#DejaVuSans-39"/>
       <use x="63.623047" xlink:href="#DejaVuSans-38"/>
       <use x="127.246094" xlink:href="#DejaVuSans-30"/>
       <use x="190.869141" xlink:href="#DejaVuSans-30"/>
       <use x="254.492188" xlink:href="#DejaVuSans-30"/>
      </g>
     </g>
    </g>
    <g id="ytick_9">
     <g id="line2d_14">
      <g>
       <use style="stroke:#000000;stroke-width:0.8;" x="57.6" xlink:href="#m91d5b22ef6" y="48.968181"/>
      </g>
     </g>
     <g id="text_15">
      <!-- 100000 -->
      <g transform="translate(12.425 52.767399)scale(0.1 -0.1)">
       <use xlink:href="#DejaVuSans-31"/>
       <use x="63.623047" xlink:href="#DejaVuSans-30"/>
       <use x="127.246094" xlink:href="#DejaVuSans-30"/>
       <use x="190.869141" xlink:href="#DejaVuSans-30"/>
       <use x="254.492188" xlink:href="#DejaVuSans-30"/>
       <use x="318.115234" xlink:href="#DejaVuSans-30"/>
      </g>
     </g>
    </g>
   </g>
   <g id="line2d_15">
    <path clip-path="url(#p191621c5d0)" d="M 73.832727 52.154182 
L 75.954652 58.355933 
L 82.320428 69.495458 
L 84.442353 70.607665 
L 86.564278 70.330942 
L 90.808128 69.897768 
L 97.173904 96.923284 
L 99.295829 114.791693 
L 101.417754 130.214617 
L 103.539679 108.656086 
L 105.661604 124.326325 
L 112.02738 109.680128 
L 114.149305 82.428431 
L 116.27123 75.420378 
L 118.393155 90.171337 
L 120.51508 85.693039 
L 126.880856 101.402571 
L 129.002781 109.184544 
L 131.124706 95.673182 
L 133.246631 103.78961 
L 135.368556 111.482574 
L 141.734332 135.348093 
L 143.856257 112.080145 
L 145.978182 100.104409 
L 148.100107 91.060429 
L 156.587807 80.264091 
L 158.709733 83.318481 
L 160.831658 84.64955 
L 162.953583 82.402476 
L 165.075508 85.700429 
L 171.441283 77.856586 
L 173.563209 79.148811 
L 175.685134 104.78988 
L 177.807059 103.903717 
L 179.928984 105.184322 
L 186.294759 110.227906 
L 188.416684 92.167557 
L 190.53861 83.1867 
L 192.660535 100.323605 
L 194.78246 101.477263 
L 203.27016 126.136306 
L 205.392086 132.382635 
L 207.514011 140.993656 
L 209.635936 164.789139 
L 216.001711 165.341276 
L 218.123636 178.34649 
L 220.245561 186.370601 
L 222.367487 198.359753 
L 224.489412 180.351137 
L 230.855187 150.348702 
L 232.977112 138.300448 
L 235.099037 133.713084 
L 237.220963 158.960722 
L 239.342888 151.936203 
L 245.708663 151.569821 
L 247.830588 140.977001 
L 249.952513 118.12104 
L 252.074439 135.456223 
L 254.196364 157.746978 
L 260.562139 165.103302 
L 262.684064 138.407461 
L 264.805989 135.141549 
L 266.927914 159.823556 
L 269.04984 170.997571 
L 277.53754 187.31774 
L 279.659465 205.133631 
L 281.78139 201.364938 
L 283.903316 173.99308 
L 290.269091 181.782609 
L 292.391016 201.924113 
L 294.512941 185.094895 
L 296.634866 201.779737 
L 298.756791 224.176385 
L 305.122567 263.566533 
L 307.244492 262.09371 
L 309.366417 225.305146 
L 311.488342 235.949179 
L 313.610267 254.102237 
L 319.976043 264.884564 
L 322.097968 250.320571 
L 324.219893 202.805483 
L 326.341818 191.614194 
L 328.463743 175.700429 
L 334.829519 183.066523 
L 336.951444 168.011863 
L 339.073369 184.076516 
L 341.195294 171.239032 
L 343.317219 171.442737 
L 349.682995 167.953414 
L 351.80492 144.509952 
L 353.926845 153.848253 
L 356.04877 172.910584 
L 358.170695 161.153743 
L 364.536471 149.481439 
L 366.658396 170.161143 
L 368.780321 187.157587 
L 370.902246 187.707158 
L 373.024171 189.080449 
L 379.389947 205.127432 
L 381.511872 209.9812 
L 383.633797 192.993565 
L 385.755722 204.668963 
L 394.243422 210.365106 
L 396.365348 197.543503 
L 398.487273 192.411022 
" style="fill:none;stroke:#0000ff;stroke-linecap:square;stroke-opacity:0.9;stroke-width:2;"/>
   </g>
   <g id="line2d_16">
    <path clip-path="url(#p191621c5d0)" d="M 73.832727 52.154182 
L 75.954652 59.07051 
L 82.320428 68.313086 
L 84.442353 70.679263 
L 86.564278 69.055474 
L 90.808128 105.360804 
L 97.173904 96.771661 
L 99.295829 115.788976 
L 101.417754 129.368697 
L 103.539679 108.899734 
L 105.661604 124.559076 
L 112.02738 109.645099 
L 114.149305 82.019392 
L 116.27123 76.334944 
L 118.393155 90.0948 
L 120.51508 86.314005 
L 126.880856 100.660002 
L 129.002781 108.910905 
L 131.124706 95.376558 
L 133.246631 103.508141 
L 135.368556 111.561536 
L 141.734332 135.235494 
L 143.856257 112.09384 
L 145.978182 100.324415 
L 148.100107 91.235404 
L 156.587807 80.303265 
L 158.709733 83.680013 
L 160.831658 84.638412 
L 162.953583 83.182755 
L 165.075508 86.259743 
L 171.441283 77.251938 
L 173.563209 79.228816 
L 175.685134 104.5914 
L 177.807059 104.154676 
L 179.928984 105.915342 
L 186.294759 109.381721 
L 188.416684 91.923719 
L 190.53861 82.872146 
L 192.660535 99.666427 
L 194.78246 100.752613 
L 203.27016 125.677842 
L 205.392086 131.63752 
L 207.514011 140.639968 
L 209.635936 162.657208 
L 216.001711 165.672107 
L 218.123636 176.993729 
L 220.245561 186.30952 
L 222.367487 197.000033 
L 224.489412 179.161503 
L 230.855187 148.705209 
L 232.977112 138.245041 
L 235.099037 133.107565 
L 237.220963 158.419385 
L 239.342888 151.772113 
L 245.708663 151.691041 
L 247.830588 140.114135 
L 249.952513 118.414382 
L 252.074439 135.310681 
L 254.196364 158.111092 
L 260.562139 163.986212 
L 262.684064 138.814488 
L 264.805989 134.260741 
L 266.927914 159.250009 
L 269.04984 169.702002 
L 277.53754 186.643818 
L 279.659465 204.68863 
L 281.78139 202.534882 
L 283.903316 174.337729 
L 290.269091 182.34206 
L 292.391016 202.321358 
L 294.512941 185.055732 
L 296.634866 202.507148 
L 298.756791 224.377818 
L 305.122567 264.478186 
L 307.244492 261.921938 
L 309.366417 225.85419 
L 311.488342 236.749492 
L 313.610267 254.015379 
L 319.976043 265.092712 
L 322.097968 249.750304 
L 324.219893 202.731148 
L 326.341818 192.267209 
L 328.463743 175.678459 
L 334.829519 184.644236 
L 336.951444 168.490902 
L 339.073369 184.84438 
L 341.195294 172.425643 
L 343.317219 172.297526 
L 349.682995 168.863283 
L 351.80492 145.322048 
L 353.926845 153.796611 
L 356.04877 173.297769 
L 358.170695 162.142514 
L 364.536471 150.977703 
L 366.658396 171.529192 
L 368.780321 187.116207 
L 370.902246 188.096997 
L 373.024171 190.156499 
L 379.389947 204.942314 
L 381.511872 210.379737 
L 383.633797 193.772339 
L 385.755722 205.945055 
L 394.243422 211.187526 
L 396.365348 198.53064 
L 398.487273 198.634571 
" style="fill:none;stroke:#ff0000;stroke-linecap:square;stroke-opacity:0.9;stroke-width:2;"/>
   </g>
   <g id="line2d_17">
    <path clip-path="url(#p191621c5d0)" d="M 73.832727 52.154182 
L 75.954652 58.837849 
L 82.320428 68.768787 
L 84.442353 69.465594 
L 86.564278 69.440121 
L 90.808128 105.467568 
L 97.173904 97.391364 
L 99.295829 114.657878 
L 101.417754 129.143732 
L 103.539679 108.321001 
L 105.661604 124.507655 
L 112.02738 110.433291 
L 114.149305 82.536457 
L 116.27123 76.297298 
L 118.393155 89.259758 
L 120.51508 86.35629 
L 126.880856 101.834833 
L 129.002781 108.611733 
L 131.124706 95.053326 
L 133.246631 104.343274 
L 135.368556 112.01839 
L 141.734332 134.935088 
L 143.856257 110.915981 
L 145.978182 99.030866 
L 148.100107 91.629034 
L 156.587807 80.886048 
L 158.709733 83.728513 
L 160.831658 84.559665 
L 162.953583 82.476794 
L 165.075508 85.281007 
L 171.441283 77.726144 
L 173.563209 79.567651 
L 175.685134 104.230596 
L 177.807059 105.099432 
L 179.928984 105.781365 
L 186.294759 110.131902 
L 188.416684 91.758907 
L 190.53861 84.01878 
L 192.660535 101.012377 
L 194.78246 101.287007 
L 203.27016 126.146706 
L 205.392086 131.665033 
L 207.514011 141.098173 
L 209.635936 164.533341 
L 216.001711 165.794301 
L 218.123636 178.247501 
L 220.245561 187.393914 
L 222.367487 197.980152 
L 224.489412 180.751863 
L 230.855187 149.932015 
L 232.977112 138.05739 
L 235.099037 133.951812 
L 237.220963 158.506045 
L 239.342888 151.625598 
L 245.708663 151.682443 
L 247.830588 141.237037 
L 249.952513 118.763618 
L 252.074439 136.174372 
L 254.196364 157.601776 
L 260.562139 165.194856 
L 262.684064 138.339487 
L 264.805989 134.517555 
L 266.927914 160.495259 
L 269.04984 170.687872 
L 277.53754 186.728312 
L 279.659465 205.399334 
L 281.78139 202.550388 
L 283.903316 174.463926 
L 290.269091 181.920488 
L 292.391016 203.020236 
L 294.512941 185.268923 
L 296.634866 202.495296 
L 298.756791 224.186154 
L 305.122567 263.316013 
L 307.244492 262.083266 
L 309.366417 224.588926 
L 311.488342 235.859367 
L 313.610267 254.028313 
L 319.976043 265.57867 
L 322.097968 250.473102 
L 324.219893 202.616322 
L 326.341818 190.749617 
L 328.463743 174.999116 
L 334.829519 183.800068 
L 336.951444 167.87262 
L 339.073369 184.529359 
L 341.195294 171.523389 
L 343.317219 171.470244 
L 349.682995 168.866462 
L 351.80492 144.75026 
L 353.926845 153.145333 
L 356.04877 172.928655 
L 358.170695 162.066142 
L 364.536471 149.426153 
L 366.658396 170.730887 
L 368.780321 187.091089 
L 370.902246 186.874889 
L 373.024171 189.129189 
L 379.389947 205.694399 
L 381.511872 209.481528 
L 383.633797 193.242476 
L 385.755722 204.917926 
L 394.243422 210.466603 
L 396.365348 198.042819 
L 398.487273 197.618662 
" style="fill:none;stroke:#008000;stroke-linecap:square;stroke-opacity:0.9;stroke-width:2;"/>
   </g>
   <g id="line2d_18">
    <path clip-path="url(#p191621c5d0)" d="M 73.832727 52.154182 
L 75.954652 58.836742 
L 82.320428 68.45238 
L 84.442353 69.528076 
L 86.564278 69.900139 
L 90.808128 105.612658 
L 97.173904 96.916682 
L 99.295829 114.661208 
L 101.417754 130.113247 
L 103.539679 108.764194 
L 105.661604 123.678728 
L 112.02738 110.107316 
L 114.149305 81.869194 
L 116.27123 75.998975 
L 118.393155 90.011131 
L 120.51508 86.253249 
L 126.880856 101.635227 
L 129.002781 109.259151 
L 131.124706 95.089951 
L 133.246631 103.611662 
L 135.368556 112.342327 
L 141.734332 134.613197 
L 143.856257 111.666243 
L 145.978182 99.949855 
L 148.100107 90.784963 
L 156.587807 80.794469 
L 158.709733 84.012851 
L 160.831658 85.454603 
L 162.953583 83.422606 
L 165.075508 85.400149 
L 171.441283 77.056009 
L 173.563209 79.002982 
L 175.685134 104.028228 
L 177.807059 104.291237 
L 179.928984 104.935475 
L 186.294759 110.474011 
L 188.416684 92.083937 
L 190.53861 84.17042 
L 192.660535 100.927349 
L 194.78246 101.359431 
L 203.27016 125.328682 
L 205.392086 132.784539 
L 207.514011 140.835319 
L 209.635936 164.204009 
L 216.001711 166.522527 
L 218.123636 178.553434 
L 220.245561 187.093178 
L 222.367487 197.655157 
L 224.489412 180.372158 
L 230.855187 149.169993 
L 232.977112 139.070594 
L 235.099037 134.230083 
L 237.220963 158.276014 
L 239.342888 151.960092 
L 245.708663 151.375969 
L 247.830588 141.469658 
L 249.952513 117.801143 
L 252.074439 136.142959 
L 254.196364 157.338986 
L 260.562139 164.471137 
L 262.684064 138.622857 
L 264.805989 135.679039 
L 266.927914 160.415472 
L 269.04984 170.402426 
L 277.53754 187.019667 
L 279.659465 205.099552 
L 281.78139 201.905058 
L 283.903316 173.007711 
L 290.269091 181.037181 
L 292.391016 202.188715 
L 294.512941 184.548629 
L 296.634866 201.083347 
L 298.756791 223.581632 
L 305.122567 263.264003 
L 307.244492 261.824958 
L 309.366417 224.39646 
L 311.488342 236.070271 
L 313.610267 253.906315 
L 319.976043 265.797818 
L 322.097968 249.973712 
L 324.219893 201.771143 
L 326.341818 191.647594 
L 328.463743 175.621689 
L 334.829519 183.433184 
L 336.951444 167.961954 
L 339.073369 184.05783 
L 341.195294 171.658167 
L 343.317219 172.34594 
L 349.682995 168.369923 
L 351.80492 143.808673 
L 353.926845 153.164196 
L 356.04877 173.493193 
L 358.170695 161.317523 
L 364.536471 150.077348 
L 366.658396 170.512944 
L 368.780321 187.232123 
L 370.902246 186.7524 
L 373.024171 189.530567 
L 379.389947 205.338487 
L 381.511872 209.120511 
L 383.633797 192.093865 
L 385.755722 205.034261 
L 394.243422 210.173399 
L 396.365348 198.255129 
L 398.487273 197.555236 
" style="fill:none;stroke:#ec5283;stroke-linecap:square;stroke-width:2;"/>
   </g>
   <g id="line2d_19">
    <path clip-path="url(#p191621c5d0)" d="M 73.832727 52.154182 
L 75.954652 59.401866 
L 82.320428 69.159105 
L 84.442353 69.366546 
L 86.564278 69.708411 
L 90.808128 104.647651 
L 97.173904 97.367807 
L 99.295829 115.064494 
L 101.417754 129.728294 
L 103.539679 109.081911 
L 105.661604 123.724719 
L 112.02738 109.215237 
L 114.149305 82.579284 
L 116.27123 75.315436 
L 118.393155 89.373983 
L 120.51508 85.255752 
L 126.880856 100.806604 
L 129.002781 108.775878 
L 131.124706 95.53511 
L 133.246631 103.167009 
L 135.368556 111.288237 
L 141.734332 134.916282 
L 143.856257 111.465498 
L 145.978182 99.29199 
L 148.100107 91.072378 
L 156.587807 80.475055 
L 158.709733 84.343394 
L 160.831658 84.917133 
L 162.953583 83.097462 
L 165.075508 85.597377 
L 171.441283 77.181423 
L 173.563209 79.756318 
L 175.685134 104.183752 
L 177.807059 104.855869 
L 179.928984 105.050168 
L 186.294759 109.414701 
L 188.416684 91.674376 
L 190.53861 83.97994 
L 192.660535 100.356811 
L 194.78246 100.534256 
L 203.27016 125.198256 
L 205.392086 131.544867 
L 207.514011 140.719383 
L 209.635936 164.351499 
L 216.001711 165.690043 
L 218.123636 178.722763 
L 220.245561 186.342188 
L 222.367487 198.21674 
L 224.489412 180.546167 
L 230.855187 149.627793 
L 232.977112 138.095935 
L 235.099037 134.443108 
L 237.220963 158.32763 
L 239.342888 152.632995 
L 245.708663 151.984171 
L 247.830588 140.874856 
L 249.952513 118.489164 
L 252.074439 136.083831 
L 254.196364 157.048471 
L 260.562139 164.026007 
L 262.684064 138.780861 
L 264.805989 134.334791 
L 266.927914 160.404324 
L 269.04984 170.422909 
L 277.53754 187.121494 
L 279.659465 205.223841 
L 281.78139 201.866636 
L 283.903316 172.938599 
L 290.269091 180.937816 
L 292.391016 202.43387 
L 294.512941 185.599454 
L 296.634866 201.127161 
L 298.756791 223.180085 
L 305.122567 263.323007 
L 307.244492 261.525183 
L 309.366417 224.868392 
L 311.488342 235.319043 
L 313.610267 253.275925 
L 319.976043 264.409362 
L 322.097968 249.631161 
L 324.219893 202.025644 
L 326.341818 191.671552 
L 328.463743 174.809084 
L 334.829519 184.258765 
L 336.951444 168.516122 
L 339.073369 184.52654 
L 341.195294 171.301719 
L 343.317219 171.835294 
L 349.682995 167.952775 
L 351.80492 144.79648 
L 353.926845 152.992136 
L 356.04877 172.524942 
L 358.170695 161.642489 
L 364.536471 150.329661 
L 366.658396 169.8304 
L 368.780321 186.400715 
L 370.902246 187.255475 
L 373.024171 189.5649 
L 379.389947 205.405885 
L 381.511872 209.313043 
L 383.633797 192.203018 
L 385.755722 204.854355 
L 394.243422 209.946601 
L 396.365348 197.890187 
L 398.487273 197.630106 
" style="fill:none;stroke:#00ff00;stroke-linecap:square;stroke-opacity:0.9;stroke-width:2;"/>
   </g>
   <g id="line2d_20">
    <path clip-path="url(#p191621c5d0)" d="M 73.832727 52.154182 
L 75.954652 59.601276 
L 82.320428 71.784451 
L 84.442353 73.806174 
L 86.564278 74.647519 
L 90.808128 112.79427 
L 97.173904 107.792705 
L 99.295829 119.99785 
L 101.417754 133.418999 
L 103.539679 112.755556 
L 105.661604 128.474361 
L 112.02738 114.199582 
L 114.149305 87.474085 
L 116.27123 79.813927 
L 118.393155 95.165528 
L 120.51508 93.46057 
L 126.880856 109.604945 
L 129.002781 117.946803 
L 131.124706 106.226899 
L 133.246631 112.452987 
L 135.368556 119.181895 
L 141.734332 133.920843 
L 143.856257 109.045219 
L 145.978182 97.124685 
L 148.100107 88.235924 
L 156.587807 79.634326 
L 158.709733 84.0848 
L 160.831658 85.555714 
L 162.953583 80.540886 
L 165.075508 83.720327 
L 171.441283 75.114397 
L 173.563209 77.710152 
L 175.685134 101.973609 
L 177.807059 99.974228 
L 179.928984 100.630026 
L 186.294759 104.050215 
L 188.416684 84.616164 
L 190.53861 78.1692 
L 192.660535 95.484134 
L 194.78246 95.923124 
L 203.27016 124.122653 
L 205.392086 136.736561 
L 207.514011 151.755251 
L 209.635936 176.951552 
L 216.001711 168.41041 
L 218.123636 187.439446 
L 220.245561 194.261362 
L 222.367487 205.690124 
L 224.489412 178.196644 
L 230.855187 146.818856 
L 232.977112 136.161515 
L 235.099037 131.025118 
L 237.220963 159.973835 
L 239.342888 150.363082 
L 245.708663 150.737075 
L 247.830588 139.411415 
L 249.952513 115.572271 
L 252.074439 135.424595 
L 254.196364 158.435423 
L 260.562139 165.198593 
L 262.684064 140.009458 
L 264.805989 137.575362 
L 266.927914 166.284104 
L 269.04984 177.298526 
L 277.53754 191.64563 
L 279.659465 213.780112 
L 281.78139 197.336586 
L 283.903316 167.813465 
L 290.269091 171.758047 
L 292.391016 193.800818 
L 294.512941 173.771426 
L 296.634866 191.067862 
L 298.756791 215.526949 
L 305.122567 256.008274 
L 307.244492 250.366037 
L 309.366417 211.101375 
L 311.488342 223.725237 
L 313.610267 243.120506 
L 319.976043 255.56889 
L 322.097968 244.224513 
L 324.219893 184.634539 
L 326.341818 177.007226 
L 328.463743 160.497159 
L 334.829519 171.007293 
L 336.951444 155.258682 
L 339.073369 168.834708 
L 341.195294 157.705086 
L 343.317219 160.469923 
L 349.682995 158.864873 
L 351.80492 134.16202 
L 353.926845 142.091287 
L 356.04877 161.869517 
L 358.170695 147.044795 
L 364.536471 133.586973 
L 366.658396 155.671917 
L 368.780321 171.763334 
L 370.902246 174.45713 
L 373.024171 175.946833 
L 379.389947 190.110238 
L 381.511872 194.950643 
L 383.633797 178.09931 
L 385.755722 189.565999 
L 394.243422 195.632095 
L 396.365348 187.090721 
L 398.487273 188.007197 
" style="fill:none;stroke:#a5b9cf;stroke-linecap:square;stroke-width:2;"/>
   </g>
   <g id="patch_3">
    <path d="M 57.6 276.48 
L 57.6 41.472 
" style="fill:none;stroke:#000000;stroke-linecap:square;stroke-linejoin:miter;stroke-width:0.8;"/>
   </g>
   <g id="patch_4">
    <path d="M 414.72 276.48 
L 414.72 41.472 
" style="fill:none;stroke:#000000;stroke-linecap:square;stroke-linejoin:miter;stroke-width:0.8;"/>
   </g>
   <g id="patch_5">
    <path d="M 57.6 276.48 
L 414.72 276.48 
" style="fill:none;stroke:#000000;stroke-linecap:square;stroke-linejoin:miter;stroke-width:0.8;"/>
   </g>
   <g id="patch_6">
    <path d="M 57.6 41.472 
L 414.72 41.472 
" style="fill:none;stroke:#000000;stroke-linecap:square;stroke-linejoin:miter;stroke-width:0.8;"/>
   </g>
   <g id="text_16">
    <!-- VFUNDS -->
    <g transform="translate(211.295625 22.034625)scale(0.12 -0.12)">
     <defs>
      <path d="M 1831 0 
L 50 4666 
L 709 4666 
L 2188 738 
L 3669 4666 
L 4325 4666 
L 2547 0 
L 1831 0 
z
" id="DejaVuSans-56" transform="scale(0.015625)"/>
      <path d="M 628 4666 
L 3309 4666 
L 3309 4134 
L 1259 4134 
L 1259 2759 
L 3109 2759 
L 3109 2228 
L 1259 2228 
L 1259 0 
L 628 0 
L 628 4666 
z
" id="DejaVuSans-46" transform="scale(0.015625)"/>
      <path d="M 556 4666 
L 1191 4666 
L 1191 1831 
Q 1191 1081 1462 751 
Q 1734 422 2344 422 
Q 2950 422 3222 751 
Q 3494 1081 3494 1831 
L 3494 4666 
L 4128 4666 
L 4128 1753 
Q 4128 841 3676 375 
Q 3225 -91 2344 -91 
Q 1459 -91 1007 375 
Q 556 841 556 1753 
L 556 4666 
z
" id="DejaVuSans-55" transform="scale(0.015625)"/>
      <path d="M 628 4666 
L 1478 4666 
L 3547 763 
L 3547 4666 
L 4159 4666 
L 4159 0 
L 3309 0 
L 1241 3903 
L 1241 0 
L 628 0 
L 628 4666 
z
" id="DejaVuSans-4e" transform="scale(0.015625)"/>
      <path d="M 1259 4147 
L 1259 519 
L 2022 519 
Q 2988 519 3436 956 
Q 3884 1394 3884 2338 
Q 3884 3275 3436 3711 
Q 2988 4147 2022 4147 
L 1259 4147 
z
M 628 4666 
L 1925 4666 
Q 3281 4666 3915 4102 
Q 4550 3538 4550 2338 
Q 4550 1131 3912 565 
Q 3275 0 1925 0 
L 628 0 
L 628 4666 
z
" id="DejaVuSans-44" transform="scale(0.015625)"/>
      <path d="M 3425 4513 
L 3425 3897 
Q 3066 4069 2747 4153 
Q 2428 4238 2131 4238 
Q 1616 4238 1336 4038 
Q 1056 3838 1056 3469 
Q 1056 3159 1242 3001 
Q 1428 2844 1947 2747 
L 2328 2669 
Q 3034 2534 3370 2195 
Q 3706 1856 3706 1288 
Q 3706 609 3251 259 
Q 2797 -91 1919 -91 
Q 1588 -91 1214 -16 
Q 841 59 441 206 
L 441 856 
Q 825 641 1194 531 
Q 1563 422 1919 422 
Q 2459 422 2753 634 
Q 3047 847 3047 1241 
Q 3047 1584 2836 1778 
Q 2625 1972 2144 2069 
L 1759 2144 
Q 1053 2284 737 2584 
Q 422 2884 422 3419 
Q 422 4038 858 4394 
Q 1294 4750 2059 4750 
Q 2388 4750 2728 4690 
Q 3069 4631 3425 4513 
z
" id="DejaVuSans-53" transform="scale(0.015625)"/>
     </defs>
     <use xlink:href="#DejaVuSans-56"/>
     <use x="68.408203" xlink:href="#DejaVuSans-46"/>
     <use x="125.927734" xlink:href="#DejaVuSans-55"/>
     <use x="199.121094" xlink:href="#DejaVuSans-4e"/>
     <use x="273.925781" xlink:href="#DejaVuSans-44"/>
     <use x="350.927734" xlink:href="#DejaVuSans-53"/>
    </g>
    <!-- daily_report -->
    <g transform="translate(200.466563 35.472)scale(0.12 -0.12)">
     <defs>
      <path d="M 603 3500 
L 1178 3500 
L 1178 0 
L 603 0 
L 603 3500 
z
M 603 4863 
L 1178 4863 
L 1178 4134 
L 603 4134 
L 603 4863 
z
" id="DejaVuSans-69" transform="scale(0.015625)"/>
      <path d="M 603 4863 
L 1178 4863 
L 1178 0 
L 603 0 
L 603 4863 
z
" id="DejaVuSans-6c" transform="scale(0.015625)"/>
      <path d="M 2059 -325 
Q 1816 -950 1584 -1140 
Q 1353 -1331 966 -1331 
L 506 -1331 
L 506 -850 
L 844 -850 
Q 1081 -850 1212 -737 
Q 1344 -625 1503 -206 
L 1606 56 
L 191 3500 
L 800 3500 
L 1894 763 
L 2988 3500 
L 3597 3500 
L 2059 -325 
z
" id="DejaVuSans-79" transform="scale(0.015625)"/>
      <path d="M 3263 -1063 
L 3263 -1509 
L -63 -1509 
L -63 -1063 
L 3263 -1063 
z
" id="DejaVuSans-5f" transform="scale(0.015625)"/>
      <path d="M 2631 2963 
Q 2534 3019 2420 3045 
Q 2306 3072 2169 3072 
Q 1681 3072 1420 2755 
Q 1159 2438 1159 1844 
L 1159 0 
L 581 0 
L 581 3500 
L 1159 3500 
L 1159 2956 
Q 1341 3275 1631 3429 
Q 1922 3584 2338 3584 
Q 2397 3584 2469 3576 
Q 2541 3569 2628 3553 
L 2631 2963 
z
" id="DejaVuSans-72" transform="scale(0.015625)"/>
      <path d="M 1159 525 
L 1159 -1331 
L 581 -1331 
L 581 3500 
L 1159 3500 
L 1159 2969 
Q 1341 3281 1617 3432 
Q 1894 3584 2278 3584 
Q 2916 3584 3314 3078 
Q 3713 2572 3713 1747 
Q 3713 922 3314 415 
Q 2916 -91 2278 -91 
Q 1894 -91 1617 61 
Q 1341 213 1159 525 
z
M 3116 1747 
Q 3116 2381 2855 2742 
Q 2594 3103 2138 3103 
Q 1681 3103 1420 2742 
Q 1159 2381 1159 1747 
Q 1159 1113 1420 752 
Q 1681 391 2138 391 
Q 2594 391 2855 752 
Q 3116 1113 3116 1747 
z
" id="DejaVuSans-70" transform="scale(0.015625)"/>
      <path d="M 1959 3097 
Q 1497 3097 1228 2736 
Q 959 2375 959 1747 
Q 959 1119 1226 758 
Q 1494 397 1959 397 
Q 2419 397 2687 759 
Q 2956 1122 2956 1747 
Q 2956 2369 2687 2733 
Q 2419 3097 1959 3097 
z
M 1959 3584 
Q 2709 3584 3137 3096 
Q 3566 2609 3566 1747 
Q 3566 888 3137 398 
Q 2709 -91 1959 -91 
Q 1206 -91 779 398 
Q 353 888 353 1747 
Q 353 2609 779 3096 
Q 1206 3584 1959 3584 
z
" id="DejaVuSans-6f" transform="scale(0.015625)"/>
     </defs>
     <use xlink:href="#DejaVuSans-64"/>
     <use x="63.476562" xlink:href="#DejaVuSans-61"/>
     <use x="124.755859" xlink:href="#DejaVuSans-69"/>
     <use x="152.539062" xlink:href="#DejaVuSans-6c"/>
     <use x="180.322266" xlink:href="#DejaVuSans-79"/>
     <use x="239.501953" xlink:href="#DejaVuSans-5f"/>
     <use x="289.501953" xlink:href="#DejaVuSans-72"/>
     <use x="328.365234" xlink:href="#DejaVuSans-65"/>
     <use x="389.888672" xlink:href="#DejaVuSans-70"/>
     <use x="453.365234" xlink:href="#DejaVuSans-6f"/>
     <use x="514.546875" xlink:href="#DejaVuSans-72"/>
     <use x="555.660156" xlink:href="#DejaVuSans-74"/>
    </g>
   </g>
   <g id="legend_1">
    <g id="patch_7">
     <path d="M 64.6 271.48 
L 178.64375 271.48 
Q 180.64375 271.48 180.64375 269.48 
L 180.64375 182.41125 
Q 180.64375 180.41125 178.64375 180.41125 
L 64.6 180.41125 
Q 62.6 180.41125 62.6 182.41125 
L 62.6 269.48 
Q 62.6 271.48 64.6 271.48 
z
" style="fill:#ffffff;opacity:0.8;stroke:#cccccc;stroke-linejoin:miter;"/>
    </g>
    <g id="line2d_21">
     <path d="M 66.6 188.509687 
L 86.6 188.509687 
" style="fill:none;stroke:#0000ff;stroke-linecap:square;stroke-opacity:0.9;stroke-width:2;"/>
    </g>
    <g id="line2d_22"/>
    <g id="text_17">
     <!-- alpaca -->
     <g transform="translate(94.6 192.009687)scale(0.1 -0.1)">
      <defs>
       <path d="M 3122 3366 
L 3122 2828 
Q 2878 2963 2633 3030 
Q 2388 3097 2138 3097 
Q 1578 3097 1268 2742 
Q 959 2388 959 1747 
Q 959 1106 1268 751 
Q 1578 397 2138 397 
Q 2388 397 2633 464 
Q 2878 531 3122 666 
L 3122 134 
Q 2881 22 2623 -34 
Q 2366 -91 2075 -91 
Q 1284 -91 818 406 
Q 353 903 353 1747 
Q 353 2603 823 3093 
Q 1294 3584 2113 3584 
Q 2378 3584 2631 3529 
Q 2884 3475 3122 3366 
z
" id="DejaVuSans-63" transform="scale(0.015625)"/>
      </defs>
      <use xlink:href="#DejaVuSans-61"/>
      <use x="61.279297" xlink:href="#DejaVuSans-6c"/>
      <use x="89.0625" xlink:href="#DejaVuSans-70"/>
      <use x="152.539062" xlink:href="#DejaVuSans-61"/>
      <use x="213.818359" xlink:href="#DejaVuSans-63"/>
      <use x="268.798828" xlink:href="#DejaVuSans-61"/>
     </g>
    </g>
    <g id="line2d_23">
     <path d="M 66.6 203.187812 
L 86.6 203.187812 
" style="fill:none;stroke:#ff0000;stroke-linecap:square;stroke-opacity:0.9;stroke-width:2;"/>
    </g>
    <g id="line2d_24"/>
    <g id="text_18">
     <!-- mattress -->
     <g transform="translate(94.6 206.687812)scale(0.1 -0.1)">
      <defs>
       <path d="M 3328 2828 
Q 3544 3216 3844 3400 
Q 4144 3584 4550 3584 
Q 5097 3584 5394 3201 
Q 5691 2819 5691 2113 
L 5691 0 
L 5113 0 
L 5113 2094 
Q 5113 2597 4934 2840 
Q 4756 3084 4391 3084 
Q 3944 3084 3684 2787 
Q 3425 2491 3425 1978 
L 3425 0 
L 2847 0 
L 2847 2094 
Q 2847 2600 2669 2842 
Q 2491 3084 2119 3084 
Q 1678 3084 1418 2786 
Q 1159 2488 1159 1978 
L 1159 0 
L 581 0 
L 581 3500 
L 1159 3500 
L 1159 2956 
Q 1356 3278 1631 3431 
Q 1906 3584 2284 3584 
Q 2666 3584 2933 3390 
Q 3200 3197 3328 2828 
z
" id="DejaVuSans-6d" transform="scale(0.015625)"/>
       <path d="M 2834 3397 
L 2834 2853 
Q 2591 2978 2328 3040 
Q 2066 3103 1784 3103 
Q 1356 3103 1142 2972 
Q 928 2841 928 2578 
Q 928 2378 1081 2264 
Q 1234 2150 1697 2047 
L 1894 2003 
Q 2506 1872 2764 1633 
Q 3022 1394 3022 966 
Q 3022 478 2636 193 
Q 2250 -91 1575 -91 
Q 1294 -91 989 -36 
Q 684 19 347 128 
L 347 722 
Q 666 556 975 473 
Q 1284 391 1588 391 
Q 1994 391 2212 530 
Q 2431 669 2431 922 
Q 2431 1156 2273 1281 
Q 2116 1406 1581 1522 
L 1381 1569 
Q 847 1681 609 1914 
Q 372 2147 372 2553 
Q 372 3047 722 3315 
Q 1072 3584 1716 3584 
Q 2034 3584 2315 3537 
Q 2597 3491 2834 3397 
z
" id="DejaVuSans-73" transform="scale(0.015625)"/>
      </defs>
      <use xlink:href="#DejaVuSans-6d"/>
      <use x="97.412109" xlink:href="#DejaVuSans-61"/>
      <use x="158.691406" xlink:href="#DejaVuSans-74"/>
      <use x="197.900391" xlink:href="#DejaVuSans-74"/>
      <use x="237.109375" xlink:href="#DejaVuSans-72"/>
      <use x="275.972656" xlink:href="#DejaVuSans-65"/>
      <use x="337.496094" xlink:href="#DejaVuSans-73"/>
      <use x="389.595703" xlink:href="#DejaVuSans-73"/>
     </g>
    </g>
    <g id="line2d_25">
     <path d="M 66.6 217.865937 
L 86.6 217.865937 
" style="fill:none;stroke:#008000;stroke-linecap:square;stroke-opacity:0.9;stroke-width:2;"/>
    </g>
    <g id="line2d_26"/>
    <g id="text_19">
     <!-- daily-open-rebal -->
     <g transform="translate(94.6 221.365937)scale(0.1 -0.1)">
      <defs>
       <path d="M 3513 2113 
L 3513 0 
L 2938 0 
L 2938 2094 
Q 2938 2591 2744 2837 
Q 2550 3084 2163 3084 
Q 1697 3084 1428 2787 
Q 1159 2491 1159 1978 
L 1159 0 
L 581 0 
L 581 3500 
L 1159 3500 
L 1159 2956 
Q 1366 3272 1645 3428 
Q 1925 3584 2291 3584 
Q 2894 3584 3203 3211 
Q 3513 2838 3513 2113 
z
" id="DejaVuSans-6e" transform="scale(0.015625)"/>
       <path d="M 3116 1747 
Q 3116 2381 2855 2742 
Q 2594 3103 2138 3103 
Q 1681 3103 1420 2742 
Q 1159 2381 1159 1747 
Q 1159 1113 1420 752 
Q 1681 391 2138 391 
Q 2594 391 2855 752 
Q 3116 1113 3116 1747 
z
M 1159 2969 
Q 1341 3281 1617 3432 
Q 1894 3584 2278 3584 
Q 2916 3584 3314 3078 
Q 3713 2572 3713 1747 
Q 3713 922 3314 415 
Q 2916 -91 2278 -91 
Q 1894 -91 1617 61 
Q 1341 213 1159 525 
L 1159 0 
L 581 0 
L 581 4863 
L 1159 4863 
L 1159 2969 
z
" id="DejaVuSans-62" transform="scale(0.015625)"/>
      </defs>
      <use xlink:href="#DejaVuSans-64"/>
      <use x="63.476562" xlink:href="#DejaVuSans-61"/>
      <use x="124.755859" xlink:href="#DejaVuSans-69"/>
      <use x="152.539062" xlink:href="#DejaVuSans-6c"/>
      <use x="180.322266" xlink:href="#DejaVuSans-79"/>
      <use x="237.751953" xlink:href="#DejaVuSans-2d"/>
      <use x="275.710938" xlink:href="#DejaVuSans-6f"/>
      <use x="336.892578" xlink:href="#DejaVuSans-70"/>
      <use x="400.369141" xlink:href="#DejaVuSans-65"/>
      <use x="461.892578" xlink:href="#DejaVuSans-6e"/>
      <use x="525.271484" xlink:href="#DejaVuSans-2d"/>
      <use x="561.355469" xlink:href="#DejaVuSans-72"/>
      <use x="600.21875" xlink:href="#DejaVuSans-65"/>
      <use x="661.742188" xlink:href="#DejaVuSans-62"/>
      <use x="725.21875" xlink:href="#DejaVuSans-61"/>
      <use x="786.498047" xlink:href="#DejaVuSans-6c"/>
     </g>
    </g>
    <g id="line2d_27">
     <path d="M 66.6 232.544062 
L 86.6 232.544062 
" style="fill:none;stroke:#ec5283;stroke-linecap:square;stroke-width:2;"/>
    </g>
    <g id="line2d_28"/>
    <g id="text_20">
     <!-- daily-close-rebal -->
     <g transform="translate(94.6 236.044062)scale(0.1 -0.1)">
      <use xlink:href="#DejaVuSans-64"/>
      <use x="63.476562" xlink:href="#DejaVuSans-61"/>
      <use x="124.755859" xlink:href="#DejaVuSans-69"/>
      <use x="152.539062" xlink:href="#DejaVuSans-6c"/>
      <use x="180.322266" xlink:href="#DejaVuSans-79"/>
      <use x="237.751953" xlink:href="#DejaVuSans-2d"/>
      <use x="273.835938" xlink:href="#DejaVuSans-63"/>
      <use x="328.816406" xlink:href="#DejaVuSans-6c"/>
      <use x="356.599609" xlink:href="#DejaVuSans-6f"/>
      <use x="417.78125" xlink:href="#DejaVuSans-73"/>
      <use x="469.880859" xlink:href="#DejaVuSans-65"/>
      <use x="531.404297" xlink:href="#DejaVuSans-2d"/>
      <use x="567.488281" xlink:href="#DejaVuSans-72"/>
      <use x="606.351562" xlink:href="#DejaVuSans-65"/>
      <use x="667.875" xlink:href="#DejaVuSans-62"/>
      <use x="731.351562" xlink:href="#DejaVuSans-61"/>
      <use x="792.630859" xlink:href="#DejaVuSans-6c"/>
     </g>
    </g>
    <g id="line2d_29">
     <path d="M 66.6 247.222187 
L 86.6 247.222187 
" style="fill:none;stroke:#00ff00;stroke-linecap:square;stroke-opacity:0.9;stroke-width:2;"/>
    </g>
    <g id="line2d_30"/>
    <g id="text_21">
     <!-- trader-baseline -->
     <g transform="translate(94.6 250.722187)scale(0.1 -0.1)">
      <use xlink:href="#DejaVuSans-74"/>
      <use x="39.208984" xlink:href="#DejaVuSans-72"/>
      <use x="80.322266" xlink:href="#DejaVuSans-61"/>
      <use x="141.601562" xlink:href="#DejaVuSans-64"/>
      <use x="205.078125" xlink:href="#DejaVuSans-65"/>
      <use x="266.601562" xlink:href="#DejaVuSans-72"/>
      <use x="301.339844" xlink:href="#DejaVuSans-2d"/>
      <use x="337.423828" xlink:href="#DejaVuSans-62"/>
      <use x="400.900391" xlink:href="#DejaVuSans-61"/>
      <use x="462.179688" xlink:href="#DejaVuSans-73"/>
      <use x="514.279297" xlink:href="#DejaVuSans-65"/>
      <use x="575.802734" xlink:href="#DejaVuSans-6c"/>
      <use x="603.585938" xlink:href="#DejaVuSans-69"/>
      <use x="631.369141" xlink:href="#DejaVuSans-6e"/>
      <use x="694.748047" xlink:href="#DejaVuSans-65"/>
     </g>
    </g>
    <g id="line2d_31">
     <path d="M 66.6 261.900312 
L 86.6 261.900312 
" style="fill:none;stroke:#a5b9cf;stroke-linecap:square;stroke-width:2;"/>
    </g>
    <g id="line2d_32"/>
    <g id="text_22">
     <!-- default-cfg -->
     <g transform="translate(94.6 265.400312)scale(0.1 -0.1)">
      <defs>
       <path d="M 2375 4863 
L 2375 4384 
L 1825 4384 
Q 1516 4384 1395 4259 
Q 1275 4134 1275 3809 
L 1275 3500 
L 2222 3500 
L 2222 3053 
L 1275 3053 
L 1275 0 
L 697 0 
L 697 3053 
L 147 3053 
L 147 3500 
L 697 3500 
L 697 3744 
Q 697 4328 969 4595 
Q 1241 4863 1831 4863 
L 2375 4863 
z
" id="DejaVuSans-66" transform="scale(0.015625)"/>
       <path d="M 544 1381 
L 544 3500 
L 1119 3500 
L 1119 1403 
Q 1119 906 1312 657 
Q 1506 409 1894 409 
Q 2359 409 2629 706 
Q 2900 1003 2900 1516 
L 2900 3500 
L 3475 3500 
L 3475 0 
L 2900 0 
L 2900 538 
Q 2691 219 2414 64 
Q 2138 -91 1772 -91 
Q 1169 -91 856 284 
Q 544 659 544 1381 
z
M 1991 3584 
L 1991 3584 
z
" id="DejaVuSans-75" transform="scale(0.015625)"/>
       <path d="M 2906 1791 
Q 2906 2416 2648 2759 
Q 2391 3103 1925 3103 
Q 1463 3103 1205 2759 
Q 947 2416 947 1791 
Q 947 1169 1205 825 
Q 1463 481 1925 481 
Q 2391 481 2648 825 
Q 2906 1169 2906 1791 
z
M 3481 434 
Q 3481 -459 3084 -895 
Q 2688 -1331 1869 -1331 
Q 1566 -1331 1297 -1286 
Q 1028 -1241 775 -1147 
L 775 -588 
Q 1028 -725 1275 -790 
Q 1522 -856 1778 -856 
Q 2344 -856 2625 -561 
Q 2906 -266 2906 331 
L 2906 616 
Q 2728 306 2450 153 
Q 2172 0 1784 0 
Q 1141 0 747 490 
Q 353 981 353 1791 
Q 353 2603 747 3093 
Q 1141 3584 1784 3584 
Q 2172 3584 2450 3431 
Q 2728 3278 2906 2969 
L 2906 3500 
L 3481 3500 
L 3481 434 
z
" id="DejaVuSans-67" transform="scale(0.015625)"/>
      </defs>
      <use xlink:href="#DejaVuSans-64"/>
      <use x="63.476562" xlink:href="#DejaVuSans-65"/>
      <use x="125" xlink:href="#DejaVuSans-66"/>
      <use x="160.205078" xlink:href="#DejaVuSans-61"/>
      <use x="221.484375" xlink:href="#DejaVuSans-75"/>
      <use x="284.863281" xlink:href="#DejaVuSans-6c"/>
      <use x="312.646484" xlink:href="#DejaVuSans-74"/>
      <use x="351.855469" xlink:href="#DejaVuSans-2d"/>
      <use x="387.939453" xlink:href="#DejaVuSans-63"/>
      <use x="442.919922" xlink:href="#DejaVuSans-66"/>
      <use x="478.125" xlink:href="#DejaVuSans-67"/>
     </g>
    </g>
   </g>
  </g>
 </g>
 <defs>
  <clipPath id="p191621c5d0">
   <rect height="235.008" width="357.12" x="57.6" y="41.472"/>
  </clipPath>
 </defs>
</svg>
