<?xml version="1.0" encoding="utf-8" standalone="no"?>
<!DOCTYPE svg PUBLIC "-//W3C//DTD SVG 1.1//EN"
  "http://www.w3.org/Graphics/SVG/1.1/DTD/svg11.dtd">
<svg height="345.6pt" version="1.1" viewBox="0 0 460.8 345.6" width="460.8pt" xmlns="http://www.w3.org/2000/svg" xmlns:xlink="http://www.w3.org/1999/xlink">
 <metadata>
  <rdf:RDF xmlns:cc="http://creativecommons.org/ns#" xmlns:dc="http://purl.org/dc/elements/1.1/" xmlns:rdf="http://www.w3.org/1999/02/22-rdf-syntax-ns#">
   <cc:Work>
    <dc:type rdf:resource="http://purl.org/dc/dcmitype/StillImage"/>
    <dc:date>2022-06-03T10:01:35.749565</dc:date>
    <dc:format>image/svg+xml</dc:format>
    <dc:creator>
     <cc:Agent>
      <dc:title>Matplotlib v3.4.3, https://matplotlib.org/</dc:title>
     </cc:Agent>
    </dc:creator>
   </cc:Work>
  </rdf:RDF>
 </metadata>
 <defs>
  <style type="text/css">*{stroke-linecap:butt;stroke-linejoin:round;}</style>
 </defs>
 <g id="figure_1">
  <g id="patch_1">
   <path d="M 0 345.6 
L 460.8 345.6 
L 460.8 0 
L 0 0 
z
" style="fill:#ffffff;"/>
  </g>
  <g id="axes_1">
   <g id="patch_2">
    <path d="M 57.6 276.48 
L 414.72 276.48 
L 414.72 41.472 
L 57.6 41.472 
z
" style="fill:#ffffff;"/>
   </g>
   <g id="matplotlib.axis_1">
    <g id="xtick_1">
     <g id="line2d_1">
      <defs>
       <path d="M 0 0 
L 0 3.5 
" id="m486dabc01d" style="stroke:#000000;stroke-width:0.8;"/>
      </defs>
      <g>
       <use style="stroke:#000000;stroke-width:0.8;" x="95.365937" xlink:href="#m486dabc01d" y="276.48"/>
      </g>
     </g>
     <g id="text_1">
      <!-- 2021-12 -->
      <g transform="translate(58.141116 310.951846)rotate(-30)scale(0.1 -0.1)">
       <defs>
        <path d="M 1228 531 
L 3431 531 
L 3431 0 
L 469 0 
L 469 531 
Q 828 903 1448 1529 
Q 2069 2156 2228 2338 
Q 2531 2678 2651 2914 
Q 2772 3150 2772 3378 
Q 2772 3750 2511 3984 
Q 2250 4219 1831 4219 
Q 1534 4219 1204 4116 
Q 875 4013 500 3803 
L 500 4441 
Q 881 4594 1212 4672 
Q 1544 4750 1819 4750 
Q 2544 4750 2975 4387 
Q 3406 4025 3406 3419 
Q 3406 3131 3298 2873 
Q 3191 2616 2906 2266 
Q 2828 2175 2409 1742 
Q 1991 1309 1228 531 
z
" id="DejaVuSans-32" transform="scale(0.015625)"/>
        <path d="M 2034 4250 
Q 1547 4250 1301 3770 
Q 1056 3291 1056 2328 
Q 1056 1369 1301 889 
Q 1547 409 2034 409 
Q 2525 409 2770 889 
Q 3016 1369 3016 2328 
Q 3016 3291 2770 3770 
Q 2525 4250 2034 4250 
z
M 2034 4750 
Q 2819 4750 3233 4129 
Q 3647 3509 3647 2328 
Q 3647 1150 3233 529 
Q 2819 -91 2034 -91 
Q 1250 -91 836 529 
Q 422 1150 422 2328 
Q 422 3509 836 4129 
Q 1250 4750 2034 4750 
z
" id="DejaVuSans-30" transform="scale(0.015625)"/>
        <path d="M 794 531 
L 1825 531 
L 1825 4091 
L 703 3866 
L 703 4441 
L 1819 4666 
L 2450 4666 
L 2450 531 
L 3481 531 
L 3481 0 
L 794 0 
L 794 531 
z
" id="DejaVuSans-31" transform="scale(0.015625)"/>
        <path d="M 313 2009 
L 1997 2009 
L 1997 1497 
L 313 1497 
L 313 2009 
z
" id="DejaVuSans-2d" transform="scale(0.015625)"/>
       </defs>
       <use xlink:href="#DejaVuSans-32"/>
       <use x="63.623047" xlink:href="#DejaVuSans-30"/>
       <use x="127.246094" xlink:href="#DejaVuSans-32"/>
       <use x="190.869141" xlink:href="#DejaVuSans-31"/>
       <use x="254.492188" xlink:href="#DejaVuSans-2d"/>
       <use x="290.576172" xlink:href="#DejaVuSans-31"/>
       <use x="354.199219" xlink:href="#DejaVuSans-32"/>
      </g>
     </g>
    </g>
    <g id="xtick_2">
     <g id="line2d_2">
      <g>
       <use style="stroke:#000000;stroke-width:0.8;" x="146.71436" xlink:href="#m486dabc01d" y="276.48"/>
      </g>
     </g>
     <g id="text_2">
      <!-- 2022-01 -->
      <g transform="translate(109.489539 310.951846)rotate(-30)scale(0.1 -0.1)">
       <use xlink:href="#DejaVuSans-32"/>
       <use x="63.623047" xlink:href="#DejaVuSans-30"/>
       <use x="127.246094" xlink:href="#DejaVuSans-32"/>
       <use x="190.869141" xlink:href="#DejaVuSans-32"/>
       <use x="254.492188" xlink:href="#DejaVuSans-2d"/>
       <use x="290.576172" xlink:href="#DejaVuSans-30"/>
       <use x="354.199219" xlink:href="#DejaVuSans-31"/>
      </g>
     </g>
    </g>
    <g id="xtick_3">
     <g id="line2d_3">
      <g>
       <use style="stroke:#000000;stroke-width:0.8;" x="198.062783" xlink:href="#m486dabc01d" y="276.48"/>
      </g>
     </g>
     <g id="text_3">
      <!-- 2022-02 -->
      <g transform="translate(160.837962 310.951846)rotate(-30)scale(0.1 -0.1)">
       <use xlink:href="#DejaVuSans-32"/>
       <use x="63.623047" xlink:href="#DejaVuSans-30"/>
       <use x="127.246094" xlink:href="#DejaVuSans-32"/>
       <use x="190.869141" xlink:href="#DejaVuSans-32"/>
       <use x="254.492188" xlink:href="#DejaVuSans-2d"/>
       <use x="290.576172" xlink:href="#DejaVuSans-30"/>
       <use x="354.199219" xlink:href="#DejaVuSans-32"/>
      </g>
     </g>
    </g>
    <g id="xtick_4">
     <g id="line2d_4">
      <g>
       <use style="stroke:#000000;stroke-width:0.8;" x="244.442004" xlink:href="#m486dabc01d" y="276.48"/>
      </g>
     </g>
     <g id="text_4">
      <!-- 2022-03 -->
      <g transform="translate(207.217183 310.951846)rotate(-30)scale(0.1 -0.1)">
       <defs>
        <path d="M 2597 2516 
Q 3050 2419 3304 2112 
Q 3559 1806 3559 1356 
Q 3559 666 3084 287 
Q 2609 -91 1734 -91 
Q 1441 -91 1130 -33 
Q 819 25 488 141 
L 488 750 
Q 750 597 1062 519 
Q 1375 441 1716 441 
Q 2309 441 2620 675 
Q 2931 909 2931 1356 
Q 2931 1769 2642 2001 
Q 2353 2234 1838 2234 
L 1294 2234 
L 1294 2753 
L 1863 2753 
Q 2328 2753 2575 2939 
Q 2822 3125 2822 3475 
Q 2822 3834 2567 4026 
Q 2313 4219 1838 4219 
Q 1578 4219 1281 4162 
Q 984 4106 628 3988 
L 628 4550 
Q 988 4650 1302 4700 
Q 1616 4750 1894 4750 
Q 2613 4750 3031 4423 
Q 3450 4097 3450 3541 
Q 3450 3153 3228 2886 
Q 3006 2619 2597 2516 
z
" id="DejaVuSans-33" transform="scale(0.015625)"/>
       </defs>
       <use xlink:href="#DejaVuSans-32"/>
       <use x="63.623047" xlink:href="#DejaVuSans-30"/>
       <use x="127.246094" xlink:href="#DejaVuSans-32"/>
       <use x="190.869141" xlink:href="#DejaVuSans-32"/>
       <use x="254.492188" xlink:href="#DejaVuSans-2d"/>
       <use x="290.576172" xlink:href="#DejaVuSans-30"/>
       <use x="354.199219" xlink:href="#DejaVuSans-33"/>
      </g>
     </g>
    </g>
    <g id="xtick_5">
     <g id="line2d_5">
      <g>
       <use style="stroke:#000000;stroke-width:0.8;" x="295.790427" xlink:href="#m486dabc01d" y="276.48"/>
      </g>
     </g>
     <g id="text_5">
      <!-- 2022-04 -->
      <g transform="translate(258.565606 310.951846)rotate(-30)scale(0.1 -0.1)">
       <defs>
        <path d="M 2419 4116 
L 825 1625 
L 2419 1625 
L 2419 4116 
z
M 2253 4666 
L 3047 4666 
L 3047 1625 
L 3713 1625 
L 3713 1100 
L 3047 1100 
L 3047 0 
L 2419 0 
L 2419 1100 
L 313 1100 
L 313 1709 
L 2253 4666 
z
" id="DejaVuSans-34" transform="scale(0.015625)"/>
       </defs>
       <use xlink:href="#DejaVuSans-32"/>
       <use x="63.623047" xlink:href="#DejaVuSans-30"/>
       <use x="127.246094" xlink:href="#DejaVuSans-32"/>
       <use x="190.869141" xlink:href="#DejaVuSans-32"/>
       <use x="254.492188" xlink:href="#DejaVuSans-2d"/>
       <use x="290.576172" xlink:href="#DejaVuSans-30"/>
       <use x="354.199219" xlink:href="#DejaVuSans-34"/>
      </g>
     </g>
    </g>
    <g id="xtick_6">
     <g id="line2d_6">
      <g>
       <use style="stroke:#000000;stroke-width:0.8;" x="345.482449" xlink:href="#m486dabc01d" y="276.48"/>
      </g>
     </g>
     <g id="text_6">
      <!-- 2022-05 -->
      <g transform="translate(308.257628 310.951846)rotate(-30)scale(0.1 -0.1)">
       <defs>
        <path d="M 691 4666 
L 3169 4666 
L 3169 4134 
L 1269 4134 
L 1269 2991 
Q 1406 3038 1543 3061 
Q 1681 3084 1819 3084 
Q 2600 3084 3056 2656 
Q 3513 2228 3513 1497 
Q 3513 744 3044 326 
Q 2575 -91 1722 -91 
Q 1428 -91 1123 -41 
Q 819 9 494 109 
L 494 744 
Q 775 591 1075 516 
Q 1375 441 1709 441 
Q 2250 441 2565 725 
Q 2881 1009 2881 1497 
Q 2881 1984 2565 2268 
Q 2250 2553 1709 2553 
Q 1456 2553 1204 2497 
Q 953 2441 691 2322 
L 691 4666 
z
" id="DejaVuSans-35" transform="scale(0.015625)"/>
       </defs>
       <use xlink:href="#DejaVuSans-32"/>
       <use x="63.623047" xlink:href="#DejaVuSans-30"/>
       <use x="127.246094" xlink:href="#DejaVuSans-32"/>
       <use x="190.869141" xlink:href="#DejaVuSans-32"/>
       <use x="254.492188" xlink:href="#DejaVuSans-2d"/>
       <use x="290.576172" xlink:href="#DejaVuSans-30"/>
       <use x="354.199219" xlink:href="#DejaVuSans-35"/>
      </g>
     </g>
    </g>
    <g id="xtick_7">
     <g id="line2d_7">
      <g>
       <use style="stroke:#000000;stroke-width:0.8;" x="396.830872" xlink:href="#m486dabc01d" y="276.48"/>
      </g>
     </g>
     <g id="text_7">
      <!-- 2022-06 -->
      <g transform="translate(359.606051 310.951846)rotate(-30)scale(0.1 -0.1)">
       <defs>
        <path d="M 2113 2584 
Q 1688 2584 1439 2293 
Q 1191 2003 1191 1497 
Q 1191 994 1439 701 
Q 1688 409 2113 409 
Q 2538 409 2786 701 
Q 3034 994 3034 1497 
Q 3034 2003 2786 2293 
Q 2538 2584 2113 2584 
z
M 3366 4563 
L 3366 3988 
Q 3128 4100 2886 4159 
Q 2644 4219 2406 4219 
Q 1781 4219 1451 3797 
Q 1122 3375 1075 2522 
Q 1259 2794 1537 2939 
Q 1816 3084 2150 3084 
Q 2853 3084 3261 2657 
Q 3669 2231 3669 1497 
Q 3669 778 3244 343 
Q 2819 -91 2113 -91 
Q 1303 -91 875 529 
Q 447 1150 447 2328 
Q 447 3434 972 4092 
Q 1497 4750 2381 4750 
Q 2619 4750 2861 4703 
Q 3103 4656 3366 4563 
z
" id="DejaVuSans-36" transform="scale(0.015625)"/>
       </defs>
       <use xlink:href="#DejaVuSans-32"/>
       <use x="63.623047" xlink:href="#DejaVuSans-30"/>
       <use x="127.246094" xlink:href="#DejaVuSans-32"/>
       <use x="190.869141" xlink:href="#DejaVuSans-32"/>
       <use x="254.492188" xlink:href="#DejaVuSans-2d"/>
       <use x="290.576172" xlink:href="#DejaVuSans-30"/>
       <use x="354.199219" xlink:href="#DejaVuSans-36"/>
      </g>
     </g>
    </g>
    <g id="text_8">
     <!-- date -->
     <g transform="translate(224.885 324.351346)scale(0.1 -0.1)">
      <defs>
       <path d="M 2906 2969 
L 2906 4863 
L 3481 4863 
L 3481 0 
L 2906 0 
L 2906 525 
Q 2725 213 2448 61 
Q 2172 -91 1784 -91 
Q 1150 -91 751 415 
Q 353 922 353 1747 
Q 353 2572 751 3078 
Q 1150 3584 1784 3584 
Q 2172 3584 2448 3432 
Q 2725 3281 2906 2969 
z
M 947 1747 
Q 947 1113 1208 752 
Q 1469 391 1925 391 
Q 2381 391 2643 752 
Q 2906 1113 2906 1747 
Q 2906 2381 2643 2742 
Q 2381 3103 1925 3103 
Q 1469 3103 1208 2742 
Q 947 2381 947 1747 
z
" id="DejaVuSans-64" transform="scale(0.015625)"/>
       <path d="M 2194 1759 
Q 1497 1759 1228 1600 
Q 959 1441 959 1056 
Q 959 750 1161 570 
Q 1363 391 1709 391 
Q 2188 391 2477 730 
Q 2766 1069 2766 1631 
L 2766 1759 
L 2194 1759 
z
M 3341 1997 
L 3341 0 
L 2766 0 
L 2766 531 
Q 2569 213 2275 61 
Q 1981 -91 1556 -91 
Q 1019 -91 701 211 
Q 384 513 384 1019 
Q 384 1609 779 1909 
Q 1175 2209 1959 2209 
L 2766 2209 
L 2766 2266 
Q 2766 2663 2505 2880 
Q 2244 3097 1772 3097 
Q 1472 3097 1187 3025 
Q 903 2953 641 2809 
L 641 3341 
Q 956 3463 1253 3523 
Q 1550 3584 1831 3584 
Q 2591 3584 2966 3190 
Q 3341 2797 3341 1997 
z
" id="DejaVuSans-61" transform="scale(0.015625)"/>
       <path d="M 1172 4494 
L 1172 3500 
L 2356 3500 
L 2356 3053 
L 1172 3053 
L 1172 1153 
Q 1172 725 1289 603 
Q 1406 481 1766 481 
L 2356 481 
L 2356 0 
L 1766 0 
Q 1100 0 847 248 
Q 594 497 594 1153 
L 594 3053 
L 172 3053 
L 172 3500 
L 594 3500 
L 594 4494 
L 1172 4494 
z
" id="DejaVuSans-74" transform="scale(0.015625)"/>
       <path d="M 3597 1894 
L 3597 1613 
L 953 1613 
Q 991 1019 1311 708 
Q 1631 397 2203 397 
Q 2534 397 2845 478 
Q 3156 559 3463 722 
L 3463 178 
Q 3153 47 2828 -22 
Q 2503 -91 2169 -91 
Q 1331 -91 842 396 
Q 353 884 353 1716 
Q 353 2575 817 3079 
Q 1281 3584 2069 3584 
Q 2775 3584 3186 3129 
Q 3597 2675 3597 1894 
z
M 3022 2063 
Q 3016 2534 2758 2815 
Q 2500 3097 2075 3097 
Q 1594 3097 1305 2825 
Q 1016 2553 972 2059 
L 3022 2063 
z
" id="DejaVuSans-65" transform="scale(0.015625)"/>
      </defs>
      <use xlink:href="#DejaVuSans-64"/>
      <use x="63.476562" xlink:href="#DejaVuSans-61"/>
      <use x="124.755859" xlink:href="#DejaVuSans-74"/>
      <use x="163.964844" xlink:href="#DejaVuSans-65"/>
     </g>
    </g>
   </g>
   <g id="matplotlib.axis_2">
    <g id="ytick_1">
     <g id="line2d_8">
      <defs>
       <path d="M 0 0 
L -3.5 0 
" id="m4a4da87467" style="stroke:#000000;stroke-width:0.8;"/>
      </defs>
      <g>
       <use style="stroke:#000000;stroke-width:0.8;" x="57.6" xlink:href="#m4a4da87467" y="270.833137"/>
      </g>
     </g>
     <g id="text_9">
      <!-- 82500 -->
      <g transform="translate(18.7875 274.632355)scale(0.1 -0.1)">
       <defs>
        <path d="M 2034 2216 
Q 1584 2216 1326 1975 
Q 1069 1734 1069 1313 
Q 1069 891 1326 650 
Q 1584 409 2034 409 
Q 2484 409 2743 651 
Q 3003 894 3003 1313 
Q 3003 1734 2745 1975 
Q 2488 2216 2034 2216 
z
M 1403 2484 
Q 997 2584 770 2862 
Q 544 3141 544 3541 
Q 544 4100 942 4425 
Q 1341 4750 2034 4750 
Q 2731 4750 3128 4425 
Q 3525 4100 3525 3541 
Q 3525 3141 3298 2862 
Q 3072 2584 2669 2484 
Q 3125 2378 3379 2068 
Q 3634 1759 3634 1313 
Q 3634 634 3220 271 
Q 2806 -91 2034 -91 
Q 1263 -91 848 271 
Q 434 634 434 1313 
Q 434 1759 690 2068 
Q 947 2378 1403 2484 
z
M 1172 3481 
Q 1172 3119 1398 2916 
Q 1625 2713 2034 2713 
Q 2441 2713 2670 2916 
Q 2900 3119 2900 3481 
Q 2900 3844 2670 4047 
Q 2441 4250 2034 4250 
Q 1625 4250 1398 4047 
Q 1172 3844 1172 3481 
z
" id="DejaVuSans-38" transform="scale(0.015625)"/>
       </defs>
       <use xlink:href="#DejaVuSans-38"/>
       <use x="63.623047" xlink:href="#DejaVuSans-32"/>
       <use x="127.246094" xlink:href="#DejaVuSans-35"/>
       <use x="190.869141" xlink:href="#DejaVuSans-30"/>
       <use x="254.492188" xlink:href="#DejaVuSans-30"/>
      </g>
     </g>
    </g>
    <g id="ytick_2">
     <g id="line2d_9">
      <g>
       <use style="stroke:#000000;stroke-width:0.8;" x="57.6" xlink:href="#m4a4da87467" y="243.081744"/>
      </g>
     </g>
     <g id="text_10">
      <!-- 85000 -->
      <g transform="translate(18.7875 246.880963)scale(0.1 -0.1)">
       <use xlink:href="#DejaVuSans-38"/>
       <use x="63.623047" xlink:href="#DejaVuSans-35"/>
       <use x="127.246094" xlink:href="#DejaVuSans-30"/>
       <use x="190.869141" xlink:href="#DejaVuSans-30"/>
       <use x="254.492188" xlink:href="#DejaVuSans-30"/>
      </g>
     </g>
    </g>
    <g id="ytick_3">
     <g id="line2d_10">
      <g>
       <use style="stroke:#000000;stroke-width:0.8;" x="57.6" xlink:href="#m4a4da87467" y="215.330352"/>
      </g>
     </g>
     <g id="text_11">
      <!-- 87500 -->
      <g transform="translate(18.7875 219.129571)scale(0.1 -0.1)">
       <defs>
        <path d="M 525 4666 
L 3525 4666 
L 3525 4397 
L 1831 0 
L 1172 0 
L 2766 4134 
L 525 4134 
L 525 4666 
z
" id="DejaVuSans-37" transform="scale(0.015625)"/>
       </defs>
       <use xlink:href="#DejaVuSans-38"/>
       <use x="63.623047" xlink:href="#DejaVuSans-37"/>
       <use x="127.246094" xlink:href="#DejaVuSans-35"/>
       <use x="190.869141" xlink:href="#DejaVuSans-30"/>
       <use x="254.492188" xlink:href="#DejaVuSans-30"/>
      </g>
     </g>
    </g>
    <g id="ytick_4">
     <g id="line2d_11">
      <g>
       <use style="stroke:#000000;stroke-width:0.8;" x="57.6" xlink:href="#m4a4da87467" y="187.57896"/>
      </g>
     </g>
     <g id="text_12">
      <!-- 90000 -->
      <g transform="translate(18.7875 191.378179)scale(0.1 -0.1)">
       <defs>
        <path d="M 703 97 
L 703 672 
Q 941 559 1184 500 
Q 1428 441 1663 441 
Q 2288 441 2617 861 
Q 2947 1281 2994 2138 
Q 2813 1869 2534 1725 
Q 2256 1581 1919 1581 
Q 1219 1581 811 2004 
Q 403 2428 403 3163 
Q 403 3881 828 4315 
Q 1253 4750 1959 4750 
Q 2769 4750 3195 4129 
Q 3622 3509 3622 2328 
Q 3622 1225 3098 567 
Q 2575 -91 1691 -91 
Q 1453 -91 1209 -44 
Q 966 3 703 97 
z
M 1959 2075 
Q 2384 2075 2632 2365 
Q 2881 2656 2881 3163 
Q 2881 3666 2632 3958 
Q 2384 4250 1959 4250 
Q 1534 4250 1286 3958 
Q 1038 3666 1038 3163 
Q 1038 2656 1286 2365 
Q 1534 2075 1959 2075 
z
" id="DejaVuSans-39" transform="scale(0.015625)"/>
       </defs>
       <use xlink:href="#DejaVuSans-39"/>
       <use x="63.623047" xlink:href="#DejaVuSans-30"/>
       <use x="127.246094" xlink:href="#DejaVuSans-30"/>
       <use x="190.869141" xlink:href="#DejaVuSans-30"/>
       <use x="254.492188" xlink:href="#DejaVuSans-30"/>
      </g>
     </g>
    </g>
    <g id="ytick_5">
     <g id="line2d_12">
      <g>
       <use style="stroke:#000000;stroke-width:0.8;" x="57.6" xlink:href="#m4a4da87467" y="159.827568"/>
      </g>
     </g>
     <g id="text_13">
      <!-- 92500 -->
      <g transform="translate(18.7875 163.626787)scale(0.1 -0.1)">
       <use xlink:href="#DejaVuSans-39"/>
       <use x="63.623047" xlink:href="#DejaVuSans-32"/>
       <use x="127.246094" xlink:href="#DejaVuSans-35"/>
       <use x="190.869141" xlink:href="#DejaVuSans-30"/>
       <use x="254.492188" xlink:href="#DejaVuSans-30"/>
      </g>
     </g>
    </g>
    <g id="ytick_6">
     <g id="line2d_13">
      <g>
       <use style="stroke:#000000;stroke-width:0.8;" x="57.6" xlink:href="#m4a4da87467" y="132.076176"/>
      </g>
     </g>
     <g id="text_14">
      <!-- 95000 -->
      <g transform="translate(18.7875 135.875395)scale(0.1 -0.1)">
       <use xlink:href="#DejaVuSans-39"/>
       <use x="63.623047" xlink:href="#DejaVuSans-35"/>
       <use x="127.246094" xlink:href="#DejaVuSans-30"/>
       <use x="190.869141" xlink:href="#DejaVuSans-30"/>
       <use x="254.492188" xlink:href="#DejaVuSans-30"/>
      </g>
     </g>
    </g>
    <g id="ytick_7">
     <g id="line2d_14">
      <g>
       <use style="stroke:#000000;stroke-width:0.8;" x="57.6" xlink:href="#m4a4da87467" y="104.324784"/>
      </g>
     </g>
     <g id="text_15">
      <!-- 97500 -->
      <g transform="translate(18.7875 108.124003)scale(0.1 -0.1)">
       <use xlink:href="#DejaVuSans-39"/>
       <use x="63.623047" xlink:href="#DejaVuSans-37"/>
       <use x="127.246094" xlink:href="#DejaVuSans-35"/>
       <use x="190.869141" xlink:href="#DejaVuSans-30"/>
       <use x="254.492188" xlink:href="#DejaVuSans-30"/>
      </g>
     </g>
    </g>
    <g id="ytick_8">
     <g id="line2d_15">
      <g>
       <use style="stroke:#000000;stroke-width:0.8;" x="57.6" xlink:href="#m4a4da87467" y="76.573392"/>
      </g>
     </g>
     <g id="text_16">
      <!-- 100000 -->
      <g transform="translate(12.425 80.372611)scale(0.1 -0.1)">
       <use xlink:href="#DejaVuSans-31"/>
       <use x="63.623047" xlink:href="#DejaVuSans-30"/>
       <use x="127.246094" xlink:href="#DejaVuSans-30"/>
       <use x="190.869141" xlink:href="#DejaVuSans-30"/>
       <use x="254.492188" xlink:href="#DejaVuSans-30"/>
       <use x="318.115234" xlink:href="#DejaVuSans-30"/>
      </g>
     </g>
    </g>
    <g id="ytick_9">
     <g id="line2d_16">
      <g>
       <use style="stroke:#000000;stroke-width:0.8;" x="57.6" xlink:href="#m4a4da87467" y="48.822"/>
      </g>
     </g>
     <g id="text_17">
      <!-- 102500 -->
      <g transform="translate(12.425 52.621219)scale(0.1 -0.1)">
       <use xlink:href="#DejaVuSans-31"/>
       <use x="63.623047" xlink:href="#DejaVuSans-30"/>
       <use x="127.246094" xlink:href="#DejaVuSans-32"/>
       <use x="190.869141" xlink:href="#DejaVuSans-35"/>
       <use x="254.492188" xlink:href="#DejaVuSans-30"/>
       <use x="318.115234" xlink:href="#DejaVuSans-30"/>
      </g>
     </g>
    </g>
   </g>
   <g id="line2d_17">
    <path clip-path="url(#p91c839de88)" d="M 73.832727 75.426746 
L 75.489128 77.730489 
L 80.45833 80.274191 
L 82.114731 79.163866 
L 83.771132 76.392986 
L 87.083933 76.505701 
L 92.053135 87.644908 
L 93.709536 108.888536 
L 95.365937 121.150104 
L 97.022338 104.611578 
L 98.678738 114.535617 
L 103.647941 101.728065 
L 105.304341 78.551923 
L 106.960742 75.700085 
L 108.617143 83.524441 
L 110.273544 72.477388 
L 115.242746 83.48198 
L 116.899147 91.154063 
L 118.555547 73.813079 
L 120.211948 84.39949 
L 121.868349 96.670047 
L 126.837551 108.863362 
L 128.493952 90.759301 
L 130.150353 80.22191 
L 131.806753 72.852965 
L 138.432356 57.413135 
L 140.088757 58.541031 
L 141.745158 56.438347 
L 143.401558 59.762123 
L 145.057959 62.806246 
L 150.027161 55.965786 
L 151.683562 56.288115 
L 153.339963 78.503763 
L 154.996364 79.791312 
L 156.652764 83.575977 
L 161.621967 85.927401 
L 163.278367 75.188116 
L 164.934768 71.779131 
L 166.591169 87.567537 
L 168.24757 87.804362 
L 174.873173 106.813591 
L 176.529573 117.904989 
L 178.185974 129.893873 
L 179.842375 149.792856 
L 184.811577 146.810219 
L 186.467978 158.831559 
L 188.124378 161.459944 
L 189.780779 166.727943 
L 191.43718 141.216064 
L 196.406382 122.619667 
L 198.062783 114.931379 
L 199.719184 104.600554 
L 201.375584 130.333038 
L 203.031985 124.375021 
L 208.001187 128.58477 
L 209.657588 120.356696 
L 211.313989 103.88313 
L 212.97039 123.197713 
L 214.62679 144.468951 
L 219.595993 148.114724 
L 221.252393 131.274912 
L 222.908794 129.642384 
L 224.565195 152.274167 
L 226.221596 159.220969 
L 232.847199 170.263676 
L 234.503599 188.152796 
L 236.16 173.030839 
L 237.816401 150.973492 
L 242.785603 153.793781 
L 244.442004 168.90301 
L 246.098404 150.300181 
L 247.754805 155.969844 
L 249.411206 164.345541 
L 254.380408 193.985708 
L 256.036809 201.587047 
L 257.69321 175.689528 
L 259.34961 180.044753 
L 261.006011 192.331049 
L 265.975213 200.102837 
L 267.631614 178.665984 
L 269.288015 155.765855 
L 270.944416 143.068741 
L 272.600816 133.162271 
L 277.570019 133.306266 
L 279.226419 121.321017 
L 280.88282 134.446895 
L 282.539221 121.606554 
L 284.195622 115.345204 
L 289.164824 108.505891 
L 290.821224 94.49384 
L 292.477625 101.590226 
L 294.134026 117.551729 
L 295.790427 114.891157 
L 300.759629 105.83549 
L 302.41603 119.734235 
L 304.07243 130.307078 
L 305.728831 125.366121 
L 307.385232 128.039896 
L 312.354434 145.766111 
L 314.010835 149.553053 
L 315.667236 138.175169 
L 317.323636 150.839602 
L 323.949239 150.92066 
L 325.60564 133.642224 
L 327.262041 134.646063 
L 328.918442 149.865754 
L 330.574842 178.769248 
L 335.544045 173.361405 
L 337.200445 202.289727 
L 338.856846 199.786607 
L 340.513247 174.798097 
L 342.169647 211.07952 
L 347.13885 204.844733 
L 348.79525 201.270403 
L 350.451651 170.87995 
L 352.108052 206.416805 
L 353.764453 212.39947 
L 358.733655 243.496457 
L 360.390056 242.115381 
L 362.046456 256.422147 
L 363.702857 257.978429 
L 365.359258 235.485632 
L 370.32846 239.307552 
L 371.984861 220.371386 
L 373.641262 258.898362 
L 375.297662 264.088754 
L 376.954063 264.701869 
L 381.923265 246.856781 
L 383.579666 253.691884 
L 385.236067 245.472025 
L 386.892468 227.475021 
L 388.548868 203.499638 
L 395.174471 209.170739 
L 396.830872 217.042046 
L 398.487273 207.573613 
L 398.487273 207.573613 
" style="fill:none;stroke:#0000ff;stroke-linecap:square;stroke-opacity:0.9;stroke-width:2;"/>
   </g>
   <g id="line2d_18">
    <path clip-path="url(#p91c839de88)" d="M 73.832727 75.426746 
L 75.489128 77.522613 
L 80.45833 80.483892 
L 82.114731 79.388668 
L 83.771132 76.560891 
L 87.083933 100.237096 
L 92.053135 87.313112 
L 93.709536 108.857141 
L 95.365937 121.14797 
L 97.022338 104.130431 
L 98.678738 114.396882 
L 103.647941 101.22296 
L 105.304341 78.495783 
L 106.960742 75.300513 
L 108.617143 83.435325 
L 110.273544 73.146924 
L 115.242746 83.749924 
L 116.899147 91.68224 
L 118.555547 74.249447 
L 120.211948 84.444742 
L 121.868349 96.411407 
L 126.837551 108.703382 
L 128.493952 91.600287 
L 130.150353 80.004471 
L 131.806753 73.0016 
L 138.432356 57.02122 
L 140.088757 58.944926 
L 141.745158 56.490815 
L 143.401558 60.347981 
L 145.057959 63.605431 
L 150.027161 56.11073 
L 151.683562 56.56777 
L 153.339963 78.375649 
L 154.996364 80.171194 
L 156.652764 84.224696 
L 161.621967 85.421073 
L 163.278367 75.339081 
L 164.934768 71.722692 
L 166.591169 87.383519 
L 168.24757 87.755622 
L 174.873173 107.138698 
L 176.529573 117.509173 
L 178.185974 129.602011 
L 179.842375 150.170013 
L 184.811577 146.677965 
L 186.467978 158.458702 
L 188.124378 161.179626 
L 189.780779 166.372744 
L 191.43718 140.851939 
L 196.406382 122.614163 
L 198.062783 115.119544 
L 199.719184 104.998443 
L 201.375584 130.134149 
L 203.031985 125.200247 
L 208.001187 128.932656 
L 209.657588 119.454903 
L 211.313989 104.768844 
L 212.97039 123.103057 
L 214.62679 144.240374 
L 219.595993 148.029655 
L 221.252393 131.616839 
L 222.908794 130.284532 
L 224.565195 152.081202 
L 226.221596 159.85037 
L 232.847199 170.738603 
L 234.503599 188.436095 
L 236.16 173.982734 
L 237.816401 151.500754 
L 242.785603 153.492545 
L 244.442004 169.739627 
L 246.098404 150.999259 
L 247.754805 155.874372 
L 249.411206 164.419156 
L 254.380408 194.558707 
L 256.036809 201.691464 
L 257.69321 175.145453 
L 259.34961 179.588807 
L 261.006011 192.861627 
L 265.975213 200.466295 
L 269.288015 155.84253 
L 270.944416 142.729336 
L 272.600816 132.483153 
L 277.570019 133.590117 
L 279.226419 120.824604 
L 280.88282 135.112881 
L 282.539221 121.437794 
L 284.195622 115.879406 
L 289.164824 108.110536 
L 290.821224 94.487054 
L 292.477625 101.136329 
L 294.134026 118.584286 
L 300.759629 105.823447 
L 302.41603 119.59459 
L 304.07243 130.55493 
L 305.728831 124.986048 
L 307.385232 128.185533 
L 312.354434 146.386164 
L 314.010835 149.840825 
L 315.667236 138.265911 
L 317.323636 150.882434 
L 323.949239 150.165092 
L 325.60564 134.141477 
L 327.262041 134.554226 
L 328.918442 149.965242 
L 330.574842 179.10806 
L 335.544045 173.31879 
L 337.200445 201.985496 
L 338.856846 199.730662 
L 340.513247 174.820256 
L 342.169647 211.739544 
L 347.13885 206.169595 
L 348.79525 202.124953 
L 350.451651 171.350676 
L 352.108052 208.027889 
L 353.764453 213.682619 
L 358.733655 244.26446 
L 360.390056 242.135703 
L 362.046456 257.745871 
L 363.702857 259.01644 
L 365.359258 236.14282 
L 370.32846 239.48322 
L 371.984861 220.999377 
L 373.641262 259.771579 
L 375.297662 265.415387 
L 376.954063 264.814787 
L 381.923265 247.707633 
L 383.579666 254.996307 
L 385.236067 246.239857 
L 386.892468 227.95663 
L 388.548868 204.158109 
L 395.174471 209.913547 
L 396.830872 217.104748 
L 398.487273 199.654805 
L 398.487273 199.654805 
" style="fill:none;stroke:#ff0000;stroke-linecap:square;stroke-opacity:0.9;stroke-width:2;"/>
   </g>
   <g id="line2d_19">
    <path clip-path="url(#p91c839de88)" d="M 73.832727 75.426746 
L 75.489128 77.098883 
L 80.45833 80.953175 
L 82.114731 78.639342 
L 83.771132 75.751486 
L 87.083933 100.684358 
L 92.053135 87.482224 
L 93.709536 108.655046 
L 95.365937 121.191187 
L 97.022338 104.076685 
L 98.678738 113.486865 
L 103.647941 101.16531 
L 105.304341 78.479058 
L 106.960742 75.85392 
L 108.617143 83.733397 
L 110.273544 72.816104 
L 115.242746 83.123585 
L 116.899147 91.331914 
L 118.555547 73.692394 
L 120.211948 84.227659 
L 121.868349 96.029177 
L 126.837551 109.627555 
L 128.493952 90.625062 
L 130.150353 80.430336 
L 131.806753 73.648267 
L 138.432356 57.167935 
L 140.088757 58.702426 
L 141.745158 56.697164 
L 143.401558 59.701509 
L 145.057959 63.267306 
L 150.027161 56.645527 
L 151.683562 57.321195 
L 153.339963 78.40381 
L 154.996364 79.442601 
L 156.652764 83.476534 
L 161.621967 85.614201 
L 163.278367 75.140323 
L 164.934768 72.307097 
L 166.591169 87.429846 
L 168.24757 87.354118 
L 174.873173 106.407934 
L 178.185974 129.735224 
L 179.842375 150.702238 
L 184.811577 146.108579 
L 186.467978 158.361827 
L 188.124378 161.17928 
L 189.780779 165.952941 
L 191.43718 140.73163 
L 196.406382 121.958491 
L 198.062783 114.648884 
L 199.719184 105.342342 
L 201.375584 129.751833 
L 203.031985 125.22312 
L 208.001187 128.808906 
L 209.657588 120.296133 
L 211.313989 104.554755 
L 212.97039 123.399126 
L 214.62679 144.405837 
L 219.595993 148.083138 
L 221.252393 131.912852 
L 222.908794 130.232635 
L 224.565195 152.526385 
L 226.221596 158.831696 
L 232.847199 170.610847 
L 234.503599 189.145608 
L 236.16 172.946187 
L 237.816401 150.885252 
L 242.785603 153.248732 
L 244.442004 169.521532 
L 246.098404 150.900101 
L 247.754805 156.136495 
L 249.411206 164.137793 
L 254.380408 194.179227 
L 256.036809 202.142535 
L 257.69321 175.065502 
L 259.34961 180.490017 
L 261.006011 192.485937 
L 265.975213 200.126283 
L 269.288015 156.519903 
L 270.944416 142.812762 
L 272.600816 132.448951 
L 277.570019 134.012268 
L 279.226419 121.842909 
L 280.88282 135.17484 
L 282.539221 121.386694 
L 284.195622 115.938011 
L 289.164824 107.686094 
L 290.821224 94.683309 
L 292.477625 101.278309 
L 294.134026 118.169684 
L 295.790427 115.311775 
L 300.759629 105.738678 
L 302.41603 119.87863 
L 304.07243 130.325849 
L 305.728831 124.810864 
L 307.385232 127.834135 
L 312.354434 145.610433 
L 314.010835 149.387304 
L 315.667236 138.187146 
L 317.323636 151.190953 
L 323.949239 150.575458 
L 325.60564 134.290755 
L 327.262041 135.102534 
L 328.918442 149.939545 
L 330.574842 178.359218 
L 335.544045 173.338765 
L 337.200445 202.309014 
L 338.856846 199.403866 
L 340.513247 174.731669 
L 342.169647 211.773395 
L 347.13885 205.716687 
L 348.79525 201.829356 
L 350.451651 171.775041 
L 352.108052 207.426204 
L 353.764453 213.074768 
L 358.733655 245.160422 
L 360.390056 242.335448 
L 362.046456 257.787091 
L 363.702857 258.545852 
L 365.359258 236.788154 
L 370.32846 239.999862 
L 371.984861 221.29346 
L 373.641262 259.033186 
L 375.297662 265.797818 
L 376.954063 264.560828 
L 381.923265 247.699651 
L 383.579666 254.631307 
L 385.236067 246.643267 
L 386.892468 227.875596 
L 388.548868 204.429913 
L 395.174471 209.514455 
L 396.830872 217.412774 
L 398.487273 199.154088 
L 398.487273 199.154088 
" style="fill:none;stroke:#008000;stroke-linecap:square;stroke-opacity:0.9;stroke-width:2;"/>
   </g>
   <g id="line2d_20">
    <path clip-path="url(#p91c839de88)" d="M 73.832727 75.426746 
L 75.489128 77.437953 
L 80.45833 80.079072 
L 82.114731 78.640679 
L 83.771132 75.929255 
L 87.083933 101.153754 
L 92.053135 87.797947 
L 93.709536 107.986253 
L 95.365937 120.981617 
L 97.022338 104.295671 
L 98.678738 114.085055 
L 103.647941 101.814159 
L 105.304341 78.849135 
L 106.960742 75.891248 
L 108.617143 83.631248 
L 110.273544 73.259839 
L 115.242746 83.977571 
L 116.899147 90.798676 
L 118.555547 74.311878 
L 120.211948 83.80652 
L 121.868349 96.529324 
L 126.837551 109.248512 
L 128.493952 91.029328 
L 130.150353 79.725094 
L 131.806753 73.58848 
L 138.432356 57.074944 
L 140.088757 58.936306 
L 141.745158 56.946253 
L 145.057959 63.041637 
L 150.027161 56.81518 
L 151.683562 56.692224 
L 153.339963 78.600426 
L 154.996364 79.809448 
L 156.652764 84.132508 
L 161.621967 85.231368 
L 163.278367 75.385903 
L 164.934768 72.152805 
L 166.591169 88.061976 
L 168.24757 87.671367 
L 174.873173 106.916543 
L 178.185974 129.732515 
L 179.842375 150.36044 
L 184.811577 146.013188 
L 186.467978 158.573295 
L 188.124378 160.902107 
L 189.780779 166.830692 
L 191.43718 141.637167 
L 196.406382 122.196583 
L 198.062783 114.393759 
L 199.719184 105.272617 
L 201.375584 129.734846 
L 203.031985 125.433954 
L 208.001187 129.030187 
L 209.657588 119.795127 
L 211.313989 104.666976 
L 212.97039 123.653904 
L 214.62679 144.448525 
L 219.595993 148.155461 
L 221.252393 131.58991 
L 222.908794 130.316793 
L 224.565195 152.704517 
L 226.221596 159.888208 
L 232.847199 170.469966 
L 234.503599 188.377609 
L 236.16 172.928358 
L 237.816401 151.325185 
L 242.785603 153.687586 
L 244.442004 168.827373 
L 246.098404 150.281506 
L 247.754805 155.959101 
L 249.411206 163.686621 
L 254.380408 194.444784 
L 256.036809 201.892363 
L 257.69321 175.602078 
L 259.34961 180.158852 
L 261.006011 192.773851 
L 265.975213 199.889423 
L 269.288015 156.46401 
L 270.944416 143.480457 
L 272.600816 132.454326 
L 277.570019 133.562644 
L 279.226419 121.280027 
L 280.88282 134.873235 
L 282.539221 121.552719 
L 284.195622 115.198006 
L 289.164824 107.687317 
L 290.821224 94.047179 
L 292.477625 101.734091 
L 294.134026 118.138486 
L 300.759629 105.897608 
L 302.41603 119.236481 
L 304.07243 130.384982 
L 305.728831 124.411895 
L 307.385232 127.908404 
L 312.354434 145.695935 
L 314.010835 150.221139 
L 315.667236 138.141463 
L 317.323636 151.281186 
L 323.949239 150.365404 
L 325.60564 133.810495 
L 327.262041 134.531533 
L 328.918442 149.653113 
L 330.574842 178.997094 
L 335.544045 172.605819 
L 337.200445 202.592768 
L 338.856846 199.262962 
L 340.513247 175.060937 
L 342.169647 211.717947 
L 347.13885 205.533906 
L 348.79525 201.598258 
L 350.451651 171.254482 
L 352.108052 207.700928 
L 353.764453 213.714616 
L 358.733655 244.615381 
L 360.390056 242.14672 
L 362.046456 258.143747 
L 363.702857 258.43024 
L 365.359258 236.442864 
L 370.32846 239.484945 
L 371.984861 220.967677 
L 373.641262 259.719245 
L 375.297662 264.941157 
L 376.954063 265.360865 
L 381.923265 247.830768 
L 383.579666 255.073729 
L 385.236067 245.989581 
L 386.892468 227.341255 
L 388.548868 203.983824 
L 395.174471 209.859132 
L 396.830872 217.774996 
L 398.487273 199.516279 
L 398.487273 199.516279 
" style="fill:none;stroke:#ec5283;stroke-linecap:square;stroke-width:2;"/>
   </g>
   <g id="line2d_21">
    <path clip-path="url(#p91c839de88)" d="M 73.832727 75.426746 
L 75.489128 77.832731 
L 80.45833 80.492802 
L 82.114731 78.497626 
L 83.771132 76.319847 
L 87.083933 101.311349 
L 92.053135 87.124404 
L 93.709536 108.336583 
L 95.365937 120.560519 
L 97.022338 104.084735 
L 98.678738 114.510359 
L 103.647941 101.223394 
L 105.304341 79.090089 
L 106.960742 75.964313 
L 108.617143 82.982761 
L 110.273544 73.269942 
L 115.242746 83.078993 
L 116.899147 91.342229 
L 118.555547 74.483809 
L 120.211948 84.435777 
L 121.868349 96.730432 
L 126.837551 109.147031 
L 128.493952 91.25937 
L 130.150353 80.24352 
L 131.806753 73.616077 
L 138.432356 57.996254 
L 140.088757 58.113477 
L 141.745158 57.191517 
L 143.401558 59.924808 
L 145.057959 63.20455 
L 150.027161 56.07765 
L 151.683562 56.61789 
L 153.339963 78.824246 
L 154.996364 79.930119 
L 156.652764 83.777633 
L 161.621967 85.977102 
L 163.278367 75.353312 
L 164.934768 71.864087 
L 166.591169 87.420849 
L 168.24757 86.869291 
L 174.873173 106.967806 
L 176.529573 117.284826 
L 178.185974 129.281224 
L 179.842375 150.204504 
L 184.811577 145.904351 
L 186.467978 158.101956 
L 188.124378 160.686306 
L 189.780779 166.871503 
L 191.43718 141.29743 
L 196.406382 121.814799 
L 198.062783 114.452719 
L 199.719184 104.953914 
L 201.375584 129.652885 
L 203.031985 125.413065 
L 208.001187 128.569065 
L 209.657588 120.378862 
L 211.313989 104.138501 
L 212.97039 123.351649 
L 214.62679 144.900842 
L 219.595993 148.043947 
L 221.252393 131.552559 
L 222.908794 130.615617 
L 224.565195 152.528611 
L 226.221596 159.124007 
L 232.847199 170.240409 
L 234.503599 188.212248 
L 236.16 173.607145 
L 237.816401 151.579485 
L 242.785603 154.117523 
L 244.442004 169.431458 
L 246.098404 150.516827 
L 247.754805 155.281733 
L 249.411206 164.120847 
L 254.380408 194.609216 
L 256.036809 201.269215 
L 257.69321 176.022636 
L 259.34961 180.232063 
L 261.006011 192.646012 
L 265.975213 199.911074 
L 267.631614 178.8434 
L 269.288015 156.349966 
L 270.944416 142.642382 
L 272.600816 132.587619 
L 277.570019 134.270568 
L 279.226419 120.878244 
L 280.88282 135.257065 
L 282.539221 121.104058 
L 284.195622 115.518535 
L 289.164824 108.098874 
L 290.821224 94.986537 
L 292.477625 101.226815 
L 294.134026 117.539852 
L 295.790427 115.508235 
L 300.759629 105.914836 
L 302.41603 120.194943 
L 304.07243 129.721979 
L 305.728831 125.19787 
L 307.385232 127.771838 
L 312.354434 145.593797 
L 314.010835 149.989373 
L 315.667236 138.317748 
L 317.323636 150.342119 
L 323.949239 150.912867 
L 325.60564 133.5289 
L 327.262041 134.505094 
L 328.918442 150.617003 
L 330.574842 178.829344 
L 335.544045 172.793626 
L 337.200445 202.107022 
L 338.856846 199.45684 
L 340.513247 174.405046 
L 342.169647 212.140255 
L 347.13885 205.826817 
L 348.79525 201.998115 
L 350.451651 171.701081 
L 352.108052 207.972145 
L 353.764453 213.046235 
L 358.733655 244.849945 
L 360.390056 242.496172 
L 362.046456 257.61732 
L 363.702857 258.781976 
L 365.359258 236.070122 
L 370.32846 239.802708 
L 371.984861 220.864121 
L 373.641262 259.291956 
L 375.297662 265.599317 
L 376.954063 264.56469 
L 381.923265 247.138943 
L 383.579666 254.974906 
L 385.236067 246.283229 
L 386.892468 228.282887 
L 388.548868 204.085971 
L 395.174471 209.601167 
L 396.830872 217.75541 
L 398.487273 198.9122 
L 398.487273 198.9122 
" style="fill:none;stroke:#00ff00;stroke-linecap:square;stroke-opacity:0.9;stroke-width:2;"/>
   </g>
   <g id="line2d_22">
    <path clip-path="url(#p91c839de88)" d="M 73.832727 75.426746 
L 75.489128 77.252187 
L 80.45833 80.096483 
L 82.114731 79.251132 
L 83.771132 76.182051 
L 87.083933 100.63475 
L 92.053135 87.712375 
L 93.709536 108.524798 
L 95.365937 120.537076 
L 97.022338 104.080523 
L 98.678738 114.209107 
L 103.647941 101.458448 
L 105.304341 78.590188 
L 106.960742 75.147073 
L 108.617143 83.529224 
L 110.273544 72.921604 
L 115.242746 82.643397 
L 116.899147 89.815927 
L 118.555547 73.483499 
L 120.211948 82.620321 
L 121.868349 94.742206 
L 126.837551 106.596649 
L 128.493952 86.713094 
L 130.150353 75.541298 
L 131.806753 68.682729 
L 138.432356 53.296667 
L 140.088757 54.355336 
L 141.745158 53.015943 
L 143.401558 55.644725 
L 145.057959 58.592816 
L 150.027161 52.154182 
L 151.683562 52.3633 
L 153.339963 74.098687 
L 154.996364 75.010445 
L 156.652764 79.817889 
L 161.621967 80.824577 
L 163.278367 70.956408 
L 164.934768 67.486945 
L 166.591169 83.671031 
L 168.24757 83.027395 
L 174.873173 102.538583 
L 178.185974 125.267537 
L 179.842375 146.34965 
L 184.811577 142.264339 
L 186.467978 154.70482 
L 188.124378 156.921413 
L 189.780779 162.165332 
L 191.43718 136.95766 
L 196.406382 117.530107 
L 198.062783 110.199322 
L 199.719184 100.295452 
L 201.375584 125.062911 
L 203.031985 120.788037 
L 208.001187 124.112259 
L 209.657588 115.48648 
L 211.313989 99.928965 
L 212.97039 118.783055 
L 214.62679 139.865231 
L 219.595993 143.763505 
L 221.252393 126.405277 
L 222.908794 125.732167 
L 224.565195 148.245876 
L 226.221596 155.150188 
L 232.847199 165.671367 
L 234.503599 184.681052 
L 236.16 168.557631 
L 237.816401 146.895935 
L 242.785603 149.090811 
L 244.442004 164.90586 
L 246.098404 146.249012 
L 247.754805 150.530205 
L 249.411206 159.130854 
L 254.380408 189.676157 
L 256.036809 197.49348 
L 257.69321 170.413732 
L 259.34961 175.455058 
L 261.006011 188.269885 
L 265.975213 195.298403 
L 269.288015 150.755688 
L 270.944416 137.78928 
L 272.600816 126.460211 
L 277.570019 126.537535 
L 279.226419 113.634668 
L 280.88282 128.055672 
L 282.539221 111.944851 
L 284.195622 106.902935 
L 289.164824 99.07688 
L 290.821224 85.726613 
L 292.477625 92.296905 
L 294.134026 109.522543 
L 295.790427 106.248494 
L 300.759629 96.679276 
L 302.41603 110.50755 
L 304.07243 120.936208 
L 305.728831 116.18071 
L 307.385232 118.969231 
L 312.354434 137.259121 
L 314.010835 140.608894 
L 315.667236 128.489136 
L 317.323636 141.513499 
L 323.949239 141.471964 
L 325.60564 125.153771 
L 327.262041 125.083034 
L 328.918442 141.662423 
L 330.574842 169.951188 
L 335.544045 164.053539 
L 337.200445 193.966458 
L 338.856846 191.170068 
L 340.513247 165.423572 
L 342.169647 203.121669 
L 347.13885 197.690833 
L 348.79525 193.294989 
L 350.451651 162.751987 
L 352.108052 199.170804 
L 353.764453 204.660515 
L 358.733655 235.990068 
L 360.390056 234.194108 
L 362.046456 248.722918 
L 363.702857 250.556028 
L 365.359258 227.913069 
L 370.32846 231.809457 
L 371.984861 211.630474 
L 373.641262 250.541295 
L 375.297662 256.58187 
L 376.954063 256.063711 
L 381.923265 238.885206 
L 383.579666 245.653427 
L 385.236067 237.279831 
L 386.892468 218.777129 
L 388.548868 194.932371 
L 395.174471 200.289583 
L 396.830872 208.744317 
L 398.487273 189.872036 
L 398.487273 189.872036 
" style="fill:none;stroke:#a5b9cf;stroke-linecap:square;stroke-width:2;"/>
   </g>
   <g id="patch_3">
    <path d="M 57.6 276.48 
L 57.6 41.472 
" style="fill:none;stroke:#000000;stroke-linecap:square;stroke-linejoin:miter;stroke-width:0.8;"/>
   </g>
   <g id="patch_4">
    <path d="M 414.72 276.48 
L 414.72 41.472 
" style="fill:none;stroke:#000000;stroke-linecap:square;stroke-linejoin:miter;stroke-width:0.8;"/>
   </g>
   <g id="patch_5">
    <path d="M 57.6 276.48 
L 414.72 276.48 
" style="fill:none;stroke:#000000;stroke-linecap:square;stroke-linejoin:miter;stroke-width:0.8;"/>
   </g>
   <g id="patch_6">
    <path d="M 57.6 41.472 
L 414.72 41.472 
" style="fill:none;stroke:#000000;stroke-linecap:square;stroke-linejoin:miter;stroke-width:0.8;"/>
   </g>
   <g id="text_18">
    <!-- SP500 -->
    <g transform="translate(217.280625 22.034625)scale(0.12 -0.12)">
     <defs>
      <path d="M 3425 4513 
L 3425 3897 
Q 3066 4069 2747 4153 
Q 2428 4238 2131 4238 
Q 1616 4238 1336 4038 
Q 1056 3838 1056 3469 
Q 1056 3159 1242 3001 
Q 1428 2844 1947 2747 
L 2328 2669 
Q 3034 2534 3370 2195 
Q 3706 1856 3706 1288 
Q 3706 609 3251 259 
Q 2797 -91 1919 -91 
Q 1588 -91 1214 -16 
Q 841 59 441 206 
L 441 856 
Q 825 641 1194 531 
Q 1563 422 1919 422 
Q 2459 422 2753 634 
Q 3047 847 3047 1241 
Q 3047 1584 2836 1778 
Q 2625 1972 2144 2069 
L 1759 2144 
Q 1053 2284 737 2584 
Q 422 2884 422 3419 
Q 422 4038 858 4394 
Q 1294 4750 2059 4750 
Q 2388 4750 2728 4690 
Q 3069 4631 3425 4513 
z
" id="DejaVuSans-53" transform="scale(0.015625)"/>
      <path d="M 1259 4147 
L 1259 2394 
L 2053 2394 
Q 2494 2394 2734 2622 
Q 2975 2850 2975 3272 
Q 2975 3691 2734 3919 
Q 2494 4147 2053 4147 
L 1259 4147 
z
M 628 4666 
L 2053 4666 
Q 2838 4666 3239 4311 
Q 3641 3956 3641 3272 
Q 3641 2581 3239 2228 
Q 2838 1875 2053 1875 
L 1259 1875 
L 1259 0 
L 628 0 
L 628 4666 
z
" id="DejaVuSans-50" transform="scale(0.015625)"/>
     </defs>
     <use xlink:href="#DejaVuSans-53"/>
     <use x="63.476562" xlink:href="#DejaVuSans-50"/>
     <use x="123.779297" xlink:href="#DejaVuSans-35"/>
     <use x="187.402344" xlink:href="#DejaVuSans-30"/>
     <use x="251.025391" xlink:href="#DejaVuSans-30"/>
    </g>
    <!-- daily_report -->
    <g transform="translate(200.466563 35.472)scale(0.12 -0.12)">
     <defs>
      <path d="M 603 3500 
L 1178 3500 
L 1178 0 
L 603 0 
L 603 3500 
z
M 603 4863 
L 1178 4863 
L 1178 4134 
L 603 4134 
L 603 4863 
z
" id="DejaVuSans-69" transform="scale(0.015625)"/>
      <path d="M 603 4863 
L 1178 4863 
L 1178 0 
L 603 0 
L 603 4863 
z
" id="DejaVuSans-6c" transform="scale(0.015625)"/>
      <path d="M 2059 -325 
Q 1816 -950 1584 -1140 
Q 1353 -1331 966 -1331 
L 506 -1331 
L 506 -850 
L 844 -850 
Q 1081 -850 1212 -737 
Q 1344 -625 1503 -206 
L 1606 56 
L 191 3500 
L 800 3500 
L 1894 763 
L 2988 3500 
L 3597 3500 
L 2059 -325 
z
" id="DejaVuSans-79" transform="scale(0.015625)"/>
      <path d="M 3263 -1063 
L 3263 -1509 
L -63 -1509 
L -63 -1063 
L 3263 -1063 
z
" id="DejaVuSans-5f" transform="scale(0.015625)"/>
      <path d="M 2631 2963 
Q 2534 3019 2420 3045 
Q 2306 3072 2169 3072 
Q 1681 3072 1420 2755 
Q 1159 2438 1159 1844 
L 1159 0 
L 581 0 
L 581 3500 
L 1159 3500 
L 1159 2956 
Q 1341 3275 1631 3429 
Q 1922 3584 2338 3584 
Q 2397 3584 2469 3576 
Q 2541 3569 2628 3553 
L 2631 2963 
z
" id="DejaVuSans-72" transform="scale(0.015625)"/>
      <path d="M 1159 525 
L 1159 -1331 
L 581 -1331 
L 581 3500 
L 1159 3500 
L 1159 2969 
Q 1341 3281 1617 3432 
Q 1894 3584 2278 3584 
Q 2916 3584 3314 3078 
Q 3713 2572 3713 1747 
Q 3713 922 3314 415 
Q 2916 -91 2278 -91 
Q 1894 -91 1617 61 
Q 1341 213 1159 525 
z
M 3116 1747 
Q 3116 2381 2855 2742 
Q 2594 3103 2138 3103 
Q 1681 3103 1420 2742 
Q 1159 2381 1159 1747 
Q 1159 1113 1420 752 
Q 1681 391 2138 391 
Q 2594 391 2855 752 
Q 3116 1113 3116 1747 
z
" id="DejaVuSans-70" transform="scale(0.015625)"/>
      <path d="M 1959 3097 
Q 1497 3097 1228 2736 
Q 959 2375 959 1747 
Q 959 1119 1226 758 
Q 1494 397 1959 397 
Q 2419 397 2687 759 
Q 2956 1122 2956 1747 
Q 2956 2369 2687 2733 
Q 2419 3097 1959 3097 
z
M 1959 3584 
Q 2709 3584 3137 3096 
Q 3566 2609 3566 1747 
Q 3566 888 3137 398 
Q 2709 -91 1959 -91 
Q 1206 -91 779 398 
Q 353 888 353 1747 
Q 353 2609 779 3096 
Q 1206 3584 1959 3584 
z
" id="DejaVuSans-6f" transform="scale(0.015625)"/>
     </defs>
     <use xlink:href="#DejaVuSans-64"/>
     <use x="63.476562" xlink:href="#DejaVuSans-61"/>
     <use x="124.755859" xlink:href="#DejaVuSans-69"/>
     <use x="152.539062" xlink:href="#DejaVuSans-6c"/>
     <use x="180.322266" xlink:href="#DejaVuSans-79"/>
     <use x="239.501953" xlink:href="#DejaVuSans-5f"/>
     <use x="289.501953" xlink:href="#DejaVuSans-72"/>
     <use x="328.365234" xlink:href="#DejaVuSans-65"/>
     <use x="389.888672" xlink:href="#DejaVuSans-70"/>
     <use x="453.365234" xlink:href="#DejaVuSans-6f"/>
     <use x="514.546875" xlink:href="#DejaVuSans-72"/>
     <use x="555.660156" xlink:href="#DejaVuSans-74"/>
    </g>
   </g>
   <g id="legend_1">
    <g id="patch_7">
     <path d="M 64.6 271.48 
L 178.64375 271.48 
Q 180.64375 271.48 180.64375 269.48 
L 180.64375 182.41125 
Q 180.64375 180.41125 178.64375 180.41125 
L 64.6 180.41125 
Q 62.6 180.41125 62.6 182.41125 
L 62.6 269.48 
Q 62.6 271.48 64.6 271.48 
z
" style="fill:#ffffff;opacity:0.8;stroke:#cccccc;stroke-linejoin:miter;"/>
    </g>
    <g id="line2d_23">
     <path d="M 66.6 188.509687 
L 86.6 188.509687 
" style="fill:none;stroke:#0000ff;stroke-linecap:square;stroke-opacity:0.9;stroke-width:2;"/>
    </g>
    <g id="line2d_24"/>
    <g id="text_19">
     <!-- alpaca -->
     <g transform="translate(94.6 192.009687)scale(0.1 -0.1)">
      <defs>
       <path d="M 3122 3366 
L 3122 2828 
Q 2878 2963 2633 3030 
Q 2388 3097 2138 3097 
Q 1578 3097 1268 2742 
Q 959 2388 959 1747 
Q 959 1106 1268 751 
Q 1578 397 2138 397 
Q 2388 397 2633 464 
Q 2878 531 3122 666 
L 3122 134 
Q 2881 22 2623 -34 
Q 2366 -91 2075 -91 
Q 1284 -91 818 406 
Q 353 903 353 1747 
Q 353 2603 823 3093 
Q 1294 3584 2113 3584 
Q 2378 3584 2631 3529 
Q 2884 3475 3122 3366 
z
" id="DejaVuSans-63" transform="scale(0.015625)"/>
      </defs>
      <use xlink:href="#DejaVuSans-61"/>
      <use x="61.279297" xlink:href="#DejaVuSans-6c"/>
      <use x="89.0625" xlink:href="#DejaVuSans-70"/>
      <use x="152.539062" xlink:href="#DejaVuSans-61"/>
      <use x="213.818359" xlink:href="#DejaVuSans-63"/>
      <use x="268.798828" xlink:href="#DejaVuSans-61"/>
     </g>
    </g>
    <g id="line2d_25">
     <path d="M 66.6 203.187812 
L 86.6 203.187812 
" style="fill:none;stroke:#ff0000;stroke-linecap:square;stroke-opacity:0.9;stroke-width:2;"/>
    </g>
    <g id="line2d_26"/>
    <g id="text_20">
     <!-- mattress -->
     <g transform="translate(94.6 206.687812)scale(0.1 -0.1)">
      <defs>
       <path d="M 3328 2828 
Q 3544 3216 3844 3400 
Q 4144 3584 4550 3584 
Q 5097 3584 5394 3201 
Q 5691 2819 5691 2113 
L 5691 0 
L 5113 0 
L 5113 2094 
Q 5113 2597 4934 2840 
Q 4756 3084 4391 3084 
Q 3944 3084 3684 2787 
Q 3425 2491 3425 1978 
L 3425 0 
L 2847 0 
L 2847 2094 
Q 2847 2600 2669 2842 
Q 2491 3084 2119 3084 
Q 1678 3084 1418 2786 
Q 1159 2488 1159 1978 
L 1159 0 
L 581 0 
L 581 3500 
L 1159 3500 
L 1159 2956 
Q 1356 3278 1631 3431 
Q 1906 3584 2284 3584 
Q 2666 3584 2933 3390 
Q 3200 3197 3328 2828 
z
" id="DejaVuSans-6d" transform="scale(0.015625)"/>
       <path d="M 2834 3397 
L 2834 2853 
Q 2591 2978 2328 3040 
Q 2066 3103 1784 3103 
Q 1356 3103 1142 2972 
Q 928 2841 928 2578 
Q 928 2378 1081 2264 
Q 1234 2150 1697 2047 
L 1894 2003 
Q 2506 1872 2764 1633 
Q 3022 1394 3022 966 
Q 3022 478 2636 193 
Q 2250 -91 1575 -91 
Q 1294 -91 989 -36 
Q 684 19 347 128 
L 347 722 
Q 666 556 975 473 
Q 1284 391 1588 391 
Q 1994 391 2212 530 
Q 2431 669 2431 922 
Q 2431 1156 2273 1281 
Q 2116 1406 1581 1522 
L 1381 1569 
Q 847 1681 609 1914 
Q 372 2147 372 2553 
Q 372 3047 722 3315 
Q 1072 3584 1716 3584 
Q 2034 3584 2315 3537 
Q 2597 3491 2834 3397 
z
" id="DejaVuSans-73" transform="scale(0.015625)"/>
      </defs>
      <use xlink:href="#DejaVuSans-6d"/>
      <use x="97.412109" xlink:href="#DejaVuSans-61"/>
      <use x="158.691406" xlink:href="#DejaVuSans-74"/>
      <use x="197.900391" xlink:href="#DejaVuSans-74"/>
      <use x="237.109375" xlink:href="#DejaVuSans-72"/>
      <use x="275.972656" xlink:href="#DejaVuSans-65"/>
      <use x="337.496094" xlink:href="#DejaVuSans-73"/>
      <use x="389.595703" xlink:href="#DejaVuSans-73"/>
     </g>
    </g>
    <g id="line2d_27">
     <path d="M 66.6 217.865937 
L 86.6 217.865937 
" style="fill:none;stroke:#008000;stroke-linecap:square;stroke-opacity:0.9;stroke-width:2;"/>
    </g>
    <g id="line2d_28"/>
    <g id="text_21">
     <!-- daily-open-rebal -->
     <g transform="translate(94.6 221.365937)scale(0.1 -0.1)">
      <defs>
       <path d="M 3513 2113 
L 3513 0 
L 2938 0 
L 2938 2094 
Q 2938 2591 2744 2837 
Q 2550 3084 2163 3084 
Q 1697 3084 1428 2787 
Q 1159 2491 1159 1978 
L 1159 0 
L 581 0 
L 581 3500 
L 1159 3500 
L 1159 2956 
Q 1366 3272 1645 3428 
Q 1925 3584 2291 3584 
Q 2894 3584 3203 3211 
Q 3513 2838 3513 2113 
z
" id="DejaVuSans-6e" transform="scale(0.015625)"/>
       <path d="M 3116 1747 
Q 3116 2381 2855 2742 
Q 2594 3103 2138 3103 
Q 1681 3103 1420 2742 
Q 1159 2381 1159 1747 
Q 1159 1113 1420 752 
Q 1681 391 2138 391 
Q 2594 391 2855 752 
Q 3116 1113 3116 1747 
z
M 1159 2969 
Q 1341 3281 1617 3432 
Q 1894 3584 2278 3584 
Q 2916 3584 3314 3078 
Q 3713 2572 3713 1747 
Q 3713 922 3314 415 
Q 2916 -91 2278 -91 
Q 1894 -91 1617 61 
Q 1341 213 1159 525 
L 1159 0 
L 581 0 
L 581 4863 
L 1159 4863 
L 1159 2969 
z
" id="DejaVuSans-62" transform="scale(0.015625)"/>
      </defs>
      <use xlink:href="#DejaVuSans-64"/>
      <use x="63.476562" xlink:href="#DejaVuSans-61"/>
      <use x="124.755859" xlink:href="#DejaVuSans-69"/>
      <use x="152.539062" xlink:href="#DejaVuSans-6c"/>
      <use x="180.322266" xlink:href="#DejaVuSans-79"/>
      <use x="237.751953" xlink:href="#DejaVuSans-2d"/>
      <use x="275.710938" xlink:href="#DejaVuSans-6f"/>
      <use x="336.892578" xlink:href="#DejaVuSans-70"/>
      <use x="400.369141" xlink:href="#DejaVuSans-65"/>
      <use x="461.892578" xlink:href="#DejaVuSans-6e"/>
      <use x="525.271484" xlink:href="#DejaVuSans-2d"/>
      <use x="561.355469" xlink:href="#DejaVuSans-72"/>
      <use x="600.21875" xlink:href="#DejaVuSans-65"/>
      <use x="661.742188" xlink:href="#DejaVuSans-62"/>
      <use x="725.21875" xlink:href="#DejaVuSans-61"/>
      <use x="786.498047" xlink:href="#DejaVuSans-6c"/>
     </g>
    </g>
    <g id="line2d_29">
     <path d="M 66.6 232.544062 
L 86.6 232.544062 
" style="fill:none;stroke:#ec5283;stroke-linecap:square;stroke-width:2;"/>
    </g>
    <g id="line2d_30"/>
    <g id="text_22">
     <!-- daily-close-rebal -->
     <g transform="translate(94.6 236.044062)scale(0.1 -0.1)">
      <use xlink:href="#DejaVuSans-64"/>
      <use x="63.476562" xlink:href="#DejaVuSans-61"/>
      <use x="124.755859" xlink:href="#DejaVuSans-69"/>
      <use x="152.539062" xlink:href="#DejaVuSans-6c"/>
      <use x="180.322266" xlink:href="#DejaVuSans-79"/>
      <use x="237.751953" xlink:href="#DejaVuSans-2d"/>
      <use x="273.835938" xlink:href="#DejaVuSans-63"/>
      <use x="328.816406" xlink:href="#DejaVuSans-6c"/>
      <use x="356.599609" xlink:href="#DejaVuSans-6f"/>
      <use x="417.78125" xlink:href="#DejaVuSans-73"/>
      <use x="469.880859" xlink:href="#DejaVuSans-65"/>
      <use x="531.404297" xlink:href="#DejaVuSans-2d"/>
      <use x="567.488281" xlink:href="#DejaVuSans-72"/>
      <use x="606.351562" xlink:href="#DejaVuSans-65"/>
      <use x="667.875" xlink:href="#DejaVuSans-62"/>
      <use x="731.351562" xlink:href="#DejaVuSans-61"/>
      <use x="792.630859" xlink:href="#DejaVuSans-6c"/>
     </g>
    </g>
    <g id="line2d_31">
     <path d="M 66.6 247.222187 
L 86.6 247.222187 
" style="fill:none;stroke:#00ff00;stroke-linecap:square;stroke-opacity:0.9;stroke-width:2;"/>
    </g>
    <g id="line2d_32"/>
    <g id="text_23">
     <!-- trader-baseline -->
     <g transform="translate(94.6 250.722187)scale(0.1 -0.1)">
      <use xlink:href="#DejaVuSans-74"/>
      <use x="39.208984" xlink:href="#DejaVuSans-72"/>
      <use x="80.322266" xlink:href="#DejaVuSans-61"/>
      <use x="141.601562" xlink:href="#DejaVuSans-64"/>
      <use x="205.078125" xlink:href="#DejaVuSans-65"/>
      <use x="266.601562" xlink:href="#DejaVuSans-72"/>
      <use x="301.339844" xlink:href="#DejaVuSans-2d"/>
      <use x="337.423828" xlink:href="#DejaVuSans-62"/>
      <use x="400.900391" xlink:href="#DejaVuSans-61"/>
      <use x="462.179688" xlink:href="#DejaVuSans-73"/>
      <use x="514.279297" xlink:href="#DejaVuSans-65"/>
      <use x="575.802734" xlink:href="#DejaVuSans-6c"/>
      <use x="603.585938" xlink:href="#DejaVuSans-69"/>
      <use x="631.369141" xlink:href="#DejaVuSans-6e"/>
      <use x="694.748047" xlink:href="#DejaVuSans-65"/>
     </g>
    </g>
    <g id="line2d_33">
     <path d="M 66.6 261.900312 
L 86.6 261.900312 
" style="fill:none;stroke:#a5b9cf;stroke-linecap:square;stroke-width:2;"/>
    </g>
    <g id="line2d_34"/>
    <g id="text_24">
     <!-- default-cfg -->
     <g transform="translate(94.6 265.400312)scale(0.1 -0.1)">
      <defs>
       <path d="M 2375 4863 
L 2375 4384 
L 1825 4384 
Q 1516 4384 1395 4259 
Q 1275 4134 1275 3809 
L 1275 3500 
L 2222 3500 
L 2222 3053 
L 1275 3053 
L 1275 0 
L 697 0 
L 697 3053 
L 147 3053 
L 147 3500 
L 697 3500 
L 697 3744 
Q 697 4328 969 4595 
Q 1241 4863 1831 4863 
L 2375 4863 
z
" id="DejaVuSans-66" transform="scale(0.015625)"/>
       <path d="M 544 1381 
L 544 3500 
L 1119 3500 
L 1119 1403 
Q 1119 906 1312 657 
Q 1506 409 1894 409 
Q 2359 409 2629 706 
Q 2900 1003 2900 1516 
L 2900 3500 
L 3475 3500 
L 3475 0 
L 2900 0 
L 2900 538 
Q 2691 219 2414 64 
Q 2138 -91 1772 -91 
Q 1169 -91 856 284 
Q 544 659 544 1381 
z
M 1991 3584 
L 1991 3584 
z
" id="DejaVuSans-75" transform="scale(0.015625)"/>
       <path d="M 2906 1791 
Q 2906 2416 2648 2759 
Q 2391 3103 1925 3103 
Q 1463 3103 1205 2759 
Q 947 2416 947 1791 
Q 947 1169 1205 825 
Q 1463 481 1925 481 
Q 2391 481 2648 825 
Q 2906 1169 2906 1791 
z
M 3481 434 
Q 3481 -459 3084 -895 
Q 2688 -1331 1869 -1331 
Q 1566 -1331 1297 -1286 
Q 1028 -1241 775 -1147 
L 775 -588 
Q 1028 -725 1275 -790 
Q 1522 -856 1778 -856 
Q 2344 -856 2625 -561 
Q 2906 -266 2906 331 
L 2906 616 
Q 2728 306 2450 153 
Q 2172 0 1784 0 
Q 1141 0 747 490 
Q 353 981 353 1791 
Q 353 2603 747 3093 
Q 1141 3584 1784 3584 
Q 2172 3584 2450 3431 
Q 2728 3278 2906 2969 
L 2906 3500 
L 3481 3500 
L 3481 434 
z
" id="DejaVuSans-67" transform="scale(0.015625)"/>
      </defs>
      <use xlink:href="#DejaVuSans-64"/>
      <use x="63.476562" xlink:href="#DejaVuSans-65"/>
      <use x="125" xlink:href="#DejaVuSans-66"/>
      <use x="160.205078" xlink:href="#DejaVuSans-61"/>
      <use x="221.484375" xlink:href="#DejaVuSans-75"/>
      <use x="284.863281" xlink:href="#DejaVuSans-6c"/>
      <use x="312.646484" xlink:href="#DejaVuSans-74"/>
      <use x="351.855469" xlink:href="#DejaVuSans-2d"/>
      <use x="387.939453" xlink:href="#DejaVuSans-63"/>
      <use x="442.919922" xlink:href="#DejaVuSans-66"/>
      <use x="478.125" xlink:href="#DejaVuSans-67"/>
     </g>
    </g>
   </g>
  </g>
 </g>
 <defs>
  <clipPath id="p91c839de88">
   <rect height="235.008" width="357.12" x="57.6" y="41.472"/>
  </clipPath>
 </defs>
</svg>
