<?xml version="1.0" encoding="utf-8" standalone="no"?>
<!DOCTYPE svg PUBLIC "-//W3C//DTD SVG 1.1//EN"
  "http://www.w3.org/Graphics/SVG/1.1/DTD/svg11.dtd">
<svg height="345.6pt" version="1.1" viewBox="0 0 460.8 345.6" width="460.8pt" xmlns="http://www.w3.org/2000/svg" xmlns:xlink="http://www.w3.org/1999/xlink">
 <metadata>
  <rdf:RDF xmlns:cc="http://creativecommons.org/ns#" xmlns:dc="http://purl.org/dc/elements/1.1/" xmlns:rdf="http://www.w3.org/1999/02/22-rdf-syntax-ns#">
   <cc:Work>
    <dc:type rdf:resource="http://purl.org/dc/dcmitype/StillImage"/>
    <dc:date>2022-03-08T01:01:34.283559</dc:date>
    <dc:format>image/svg+xml</dc:format>
    <dc:creator>
     <cc:Agent>
      <dc:title>Matplotlib v3.4.3, https://matplotlib.org/</dc:title>
     </cc:Agent>
    </dc:creator>
   </cc:Work>
  </rdf:RDF>
 </metadata>
 <defs>
  <style type="text/css">*{stroke-linecap:butt;stroke-linejoin:round;}</style>
 </defs>
 <g id="figure_1">
  <g id="patch_1">
   <path d="M 0 345.6 
L 460.8 345.6 
L 460.8 0 
L 0 0 
z
" style="fill:#ffffff;"/>
  </g>
  <g id="axes_1">
   <g id="patch_2">
    <path d="M 57.6 276.48 
L 414.72 276.48 
L 414.72 41.472 
L 57.6 41.472 
z
" style="fill:#ffffff;"/>
   </g>
   <g id="matplotlib.axis_1">
    <g id="xtick_1">
     <g id="line2d_1">
      <defs>
       <path d="M 0 0 
L 0 3.5 
" id="mda65eec45f" style="stroke:#000000;stroke-width:0.8;"/>
      </defs>
      <g>
       <use style="stroke:#000000;stroke-width:0.8;" x="88.740334" xlink:href="#mda65eec45f" y="276.48"/>
      </g>
     </g>
     <g id="text_1">
      <!-- 2021-09 -->
      <g transform="translate(51.515513 310.951846)rotate(-30)scale(0.1 -0.1)">
       <defs>
        <path d="M 1228 531 
L 3431 531 
L 3431 0 
L 469 0 
L 469 531 
Q 828 903 1448 1529 
Q 2069 2156 2228 2338 
Q 2531 2678 2651 2914 
Q 2772 3150 2772 3378 
Q 2772 3750 2511 3984 
Q 2250 4219 1831 4219 
Q 1534 4219 1204 4116 
Q 875 4013 500 3803 
L 500 4441 
Q 881 4594 1212 4672 
Q 1544 4750 1819 4750 
Q 2544 4750 2975 4387 
Q 3406 4025 3406 3419 
Q 3406 3131 3298 2873 
Q 3191 2616 2906 2266 
Q 2828 2175 2409 1742 
Q 1991 1309 1228 531 
z
" id="DejaVuSans-32" transform="scale(0.015625)"/>
        <path d="M 2034 4250 
Q 1547 4250 1301 3770 
Q 1056 3291 1056 2328 
Q 1056 1369 1301 889 
Q 1547 409 2034 409 
Q 2525 409 2770 889 
Q 3016 1369 3016 2328 
Q 3016 3291 2770 3770 
Q 2525 4250 2034 4250 
z
M 2034 4750 
Q 2819 4750 3233 4129 
Q 3647 3509 3647 2328 
Q 3647 1150 3233 529 
Q 2819 -91 2034 -91 
Q 1250 -91 836 529 
Q 422 1150 422 2328 
Q 422 3509 836 4129 
Q 1250 4750 2034 4750 
z
" id="DejaVuSans-30" transform="scale(0.015625)"/>
        <path d="M 794 531 
L 1825 531 
L 1825 4091 
L 703 3866 
L 703 4441 
L 1819 4666 
L 2450 4666 
L 2450 531 
L 3481 531 
L 3481 0 
L 794 0 
L 794 531 
z
" id="DejaVuSans-31" transform="scale(0.015625)"/>
        <path d="M 313 2009 
L 1997 2009 
L 1997 1497 
L 313 1497 
L 313 2009 
z
" id="DejaVuSans-2d" transform="scale(0.015625)"/>
        <path d="M 703 97 
L 703 672 
Q 941 559 1184 500 
Q 1428 441 1663 441 
Q 2288 441 2617 861 
Q 2947 1281 2994 2138 
Q 2813 1869 2534 1725 
Q 2256 1581 1919 1581 
Q 1219 1581 811 2004 
Q 403 2428 403 3163 
Q 403 3881 828 4315 
Q 1253 4750 1959 4750 
Q 2769 4750 3195 4129 
Q 3622 3509 3622 2328 
Q 3622 1225 3098 567 
Q 2575 -91 1691 -91 
Q 1453 -91 1209 -44 
Q 966 3 703 97 
z
M 1959 2075 
Q 2384 2075 2632 2365 
Q 2881 2656 2881 3163 
Q 2881 3666 2632 3958 
Q 2384 4250 1959 4250 
Q 1534 4250 1286 3958 
Q 1038 3666 1038 3163 
Q 1038 2656 1286 2365 
Q 1534 2075 1959 2075 
z
" id="DejaVuSans-39" transform="scale(0.015625)"/>
       </defs>
       <use xlink:href="#DejaVuSans-32"/>
       <use x="63.623047" xlink:href="#DejaVuSans-30"/>
       <use x="127.246094" xlink:href="#DejaVuSans-32"/>
       <use x="190.869141" xlink:href="#DejaVuSans-31"/>
       <use x="254.492188" xlink:href="#DejaVuSans-2d"/>
       <use x="290.576172" xlink:href="#DejaVuSans-30"/>
       <use x="354.199219" xlink:href="#DejaVuSans-39"/>
      </g>
     </g>
    </g>
    <g id="xtick_2">
     <g id="line2d_2">
      <g>
       <use style="stroke:#000000;stroke-width:0.8;" x="138.432356" xlink:href="#mda65eec45f" y="276.48"/>
      </g>
     </g>
     <g id="text_2">
      <!-- 2021-10 -->
      <g transform="translate(101.207535 310.951846)rotate(-30)scale(0.1 -0.1)">
       <use xlink:href="#DejaVuSans-32"/>
       <use x="63.623047" xlink:href="#DejaVuSans-30"/>
       <use x="127.246094" xlink:href="#DejaVuSans-32"/>
       <use x="190.869141" xlink:href="#DejaVuSans-31"/>
       <use x="254.492188" xlink:href="#DejaVuSans-2d"/>
       <use x="290.576172" xlink:href="#DejaVuSans-31"/>
       <use x="354.199219" xlink:href="#DejaVuSans-30"/>
      </g>
     </g>
    </g>
    <g id="xtick_3">
     <g id="line2d_3">
      <g>
       <use style="stroke:#000000;stroke-width:0.8;" x="189.780779" xlink:href="#mda65eec45f" y="276.48"/>
      </g>
     </g>
     <g id="text_3">
      <!-- 2021-11 -->
      <g transform="translate(152.555958 310.951846)rotate(-30)scale(0.1 -0.1)">
       <use xlink:href="#DejaVuSans-32"/>
       <use x="63.623047" xlink:href="#DejaVuSans-30"/>
       <use x="127.246094" xlink:href="#DejaVuSans-32"/>
       <use x="190.869141" xlink:href="#DejaVuSans-31"/>
       <use x="254.492188" xlink:href="#DejaVuSans-2d"/>
       <use x="290.576172" xlink:href="#DejaVuSans-31"/>
       <use x="354.199219" xlink:href="#DejaVuSans-31"/>
      </g>
     </g>
    </g>
    <g id="xtick_4">
     <g id="line2d_4">
      <g>
       <use style="stroke:#000000;stroke-width:0.8;" x="239.472801" xlink:href="#mda65eec45f" y="276.48"/>
      </g>
     </g>
     <g id="text_4">
      <!-- 2021-12 -->
      <g transform="translate(202.247981 310.951846)rotate(-30)scale(0.1 -0.1)">
       <use xlink:href="#DejaVuSans-32"/>
       <use x="63.623047" xlink:href="#DejaVuSans-30"/>
       <use x="127.246094" xlink:href="#DejaVuSans-32"/>
       <use x="190.869141" xlink:href="#DejaVuSans-31"/>
       <use x="254.492188" xlink:href="#DejaVuSans-2d"/>
       <use x="290.576172" xlink:href="#DejaVuSans-31"/>
       <use x="354.199219" xlink:href="#DejaVuSans-32"/>
      </g>
     </g>
    </g>
    <g id="xtick_5">
     <g id="line2d_5">
      <g>
       <use style="stroke:#000000;stroke-width:0.8;" x="290.821224" xlink:href="#mda65eec45f" y="276.48"/>
      </g>
     </g>
     <g id="text_5">
      <!-- 2022-01 -->
      <g transform="translate(253.596404 310.951846)rotate(-30)scale(0.1 -0.1)">
       <use xlink:href="#DejaVuSans-32"/>
       <use x="63.623047" xlink:href="#DejaVuSans-30"/>
       <use x="127.246094" xlink:href="#DejaVuSans-32"/>
       <use x="190.869141" xlink:href="#DejaVuSans-32"/>
       <use x="254.492188" xlink:href="#DejaVuSans-2d"/>
       <use x="290.576172" xlink:href="#DejaVuSans-30"/>
       <use x="354.199219" xlink:href="#DejaVuSans-31"/>
      </g>
     </g>
    </g>
    <g id="xtick_6">
     <g id="line2d_6">
      <g>
       <use style="stroke:#000000;stroke-width:0.8;" x="342.169647" xlink:href="#mda65eec45f" y="276.48"/>
      </g>
     </g>
     <g id="text_6">
      <!-- 2022-02 -->
      <g transform="translate(304.944827 310.951846)rotate(-30)scale(0.1 -0.1)">
       <use xlink:href="#DejaVuSans-32"/>
       <use x="63.623047" xlink:href="#DejaVuSans-30"/>
       <use x="127.246094" xlink:href="#DejaVuSans-32"/>
       <use x="190.869141" xlink:href="#DejaVuSans-32"/>
       <use x="254.492188" xlink:href="#DejaVuSans-2d"/>
       <use x="290.576172" xlink:href="#DejaVuSans-30"/>
       <use x="354.199219" xlink:href="#DejaVuSans-32"/>
      </g>
     </g>
    </g>
    <g id="xtick_7">
     <g id="line2d_7">
      <g>
       <use style="stroke:#000000;stroke-width:0.8;" x="388.548868" xlink:href="#mda65eec45f" y="276.48"/>
      </g>
     </g>
     <g id="text_7">
      <!-- 2022-03 -->
      <g transform="translate(351.324047 310.951846)rotate(-30)scale(0.1 -0.1)">
       <defs>
        <path d="M 2597 2516 
Q 3050 2419 3304 2112 
Q 3559 1806 3559 1356 
Q 3559 666 3084 287 
Q 2609 -91 1734 -91 
Q 1441 -91 1130 -33 
Q 819 25 488 141 
L 488 750 
Q 750 597 1062 519 
Q 1375 441 1716 441 
Q 2309 441 2620 675 
Q 2931 909 2931 1356 
Q 2931 1769 2642 2001 
Q 2353 2234 1838 2234 
L 1294 2234 
L 1294 2753 
L 1863 2753 
Q 2328 2753 2575 2939 
Q 2822 3125 2822 3475 
Q 2822 3834 2567 4026 
Q 2313 4219 1838 4219 
Q 1578 4219 1281 4162 
Q 984 4106 628 3988 
L 628 4550 
Q 988 4650 1302 4700 
Q 1616 4750 1894 4750 
Q 2613 4750 3031 4423 
Q 3450 4097 3450 3541 
Q 3450 3153 3228 2886 
Q 3006 2619 2597 2516 
z
" id="DejaVuSans-33" transform="scale(0.015625)"/>
       </defs>
       <use xlink:href="#DejaVuSans-32"/>
       <use x="63.623047" xlink:href="#DejaVuSans-30"/>
       <use x="127.246094" xlink:href="#DejaVuSans-32"/>
       <use x="190.869141" xlink:href="#DejaVuSans-32"/>
       <use x="254.492188" xlink:href="#DejaVuSans-2d"/>
       <use x="290.576172" xlink:href="#DejaVuSans-30"/>
       <use x="354.199219" xlink:href="#DejaVuSans-33"/>
      </g>
     </g>
    </g>
    <g id="text_8">
     <!-- date -->
     <g transform="translate(224.885 324.351346)scale(0.1 -0.1)">
      <defs>
       <path d="M 2906 2969 
L 2906 4863 
L 3481 4863 
L 3481 0 
L 2906 0 
L 2906 525 
Q 2725 213 2448 61 
Q 2172 -91 1784 -91 
Q 1150 -91 751 415 
Q 353 922 353 1747 
Q 353 2572 751 3078 
Q 1150 3584 1784 3584 
Q 2172 3584 2448 3432 
Q 2725 3281 2906 2969 
z
M 947 1747 
Q 947 1113 1208 752 
Q 1469 391 1925 391 
Q 2381 391 2643 752 
Q 2906 1113 2906 1747 
Q 2906 2381 2643 2742 
Q 2381 3103 1925 3103 
Q 1469 3103 1208 2742 
Q 947 2381 947 1747 
z
" id="DejaVuSans-64" transform="scale(0.015625)"/>
       <path d="M 2194 1759 
Q 1497 1759 1228 1600 
Q 959 1441 959 1056 
Q 959 750 1161 570 
Q 1363 391 1709 391 
Q 2188 391 2477 730 
Q 2766 1069 2766 1631 
L 2766 1759 
L 2194 1759 
z
M 3341 1997 
L 3341 0 
L 2766 0 
L 2766 531 
Q 2569 213 2275 61 
Q 1981 -91 1556 -91 
Q 1019 -91 701 211 
Q 384 513 384 1019 
Q 384 1609 779 1909 
Q 1175 2209 1959 2209 
L 2766 2209 
L 2766 2266 
Q 2766 2663 2505 2880 
Q 2244 3097 1772 3097 
Q 1472 3097 1187 3025 
Q 903 2953 641 2809 
L 641 3341 
Q 956 3463 1253 3523 
Q 1550 3584 1831 3584 
Q 2591 3584 2966 3190 
Q 3341 2797 3341 1997 
z
" id="DejaVuSans-61" transform="scale(0.015625)"/>
       <path d="M 1172 4494 
L 1172 3500 
L 2356 3500 
L 2356 3053 
L 1172 3053 
L 1172 1153 
Q 1172 725 1289 603 
Q 1406 481 1766 481 
L 2356 481 
L 2356 0 
L 1766 0 
Q 1100 0 847 248 
Q 594 497 594 1153 
L 594 3053 
L 172 3053 
L 172 3500 
L 594 3500 
L 594 4494 
L 1172 4494 
z
" id="DejaVuSans-74" transform="scale(0.015625)"/>
       <path d="M 3597 1894 
L 3597 1613 
L 953 1613 
Q 991 1019 1311 708 
Q 1631 397 2203 397 
Q 2534 397 2845 478 
Q 3156 559 3463 722 
L 3463 178 
Q 3153 47 2828 -22 
Q 2503 -91 2169 -91 
Q 1331 -91 842 396 
Q 353 884 353 1716 
Q 353 2575 817 3079 
Q 1281 3584 2069 3584 
Q 2775 3584 3186 3129 
Q 3597 2675 3597 1894 
z
M 3022 2063 
Q 3016 2534 2758 2815 
Q 2500 3097 2075 3097 
Q 1594 3097 1305 2825 
Q 1016 2553 972 2059 
L 3022 2063 
z
" id="DejaVuSans-65" transform="scale(0.015625)"/>
      </defs>
      <use xlink:href="#DejaVuSans-64"/>
      <use x="63.476562" xlink:href="#DejaVuSans-61"/>
      <use x="124.755859" xlink:href="#DejaVuSans-74"/>
      <use x="163.964844" xlink:href="#DejaVuSans-65"/>
     </g>
    </g>
   </g>
   <g id="matplotlib.axis_2">
    <g id="ytick_1">
     <g id="line2d_8">
      <defs>
       <path d="M 0 0 
L -3.5 0 
" id="m7f452bcb59" style="stroke:#000000;stroke-width:0.8;"/>
      </defs>
      <g>
       <use style="stroke:#000000;stroke-width:0.8;" x="57.6" xlink:href="#m7f452bcb59" y="255.562892"/>
      </g>
     </g>
     <g id="text_9">
      <!-- 85000 -->
      <g transform="translate(18.7875 259.362111)scale(0.1 -0.1)">
       <defs>
        <path d="M 2034 2216 
Q 1584 2216 1326 1975 
Q 1069 1734 1069 1313 
Q 1069 891 1326 650 
Q 1584 409 2034 409 
Q 2484 409 2743 651 
Q 3003 894 3003 1313 
Q 3003 1734 2745 1975 
Q 2488 2216 2034 2216 
z
M 1403 2484 
Q 997 2584 770 2862 
Q 544 3141 544 3541 
Q 544 4100 942 4425 
Q 1341 4750 2034 4750 
Q 2731 4750 3128 4425 
Q 3525 4100 3525 3541 
Q 3525 3141 3298 2862 
Q 3072 2584 2669 2484 
Q 3125 2378 3379 2068 
Q 3634 1759 3634 1313 
Q 3634 634 3220 271 
Q 2806 -91 2034 -91 
Q 1263 -91 848 271 
Q 434 634 434 1313 
Q 434 1759 690 2068 
Q 947 2378 1403 2484 
z
M 1172 3481 
Q 1172 3119 1398 2916 
Q 1625 2713 2034 2713 
Q 2441 2713 2670 2916 
Q 2900 3119 2900 3481 
Q 2900 3844 2670 4047 
Q 2441 4250 2034 4250 
Q 1625 4250 1398 4047 
Q 1172 3844 1172 3481 
z
" id="DejaVuSans-38" transform="scale(0.015625)"/>
        <path d="M 691 4666 
L 3169 4666 
L 3169 4134 
L 1269 4134 
L 1269 2991 
Q 1406 3038 1543 3061 
Q 1681 3084 1819 3084 
Q 2600 3084 3056 2656 
Q 3513 2228 3513 1497 
Q 3513 744 3044 326 
Q 2575 -91 1722 -91 
Q 1428 -91 1123 -41 
Q 819 9 494 109 
L 494 744 
Q 775 591 1075 516 
Q 1375 441 1709 441 
Q 2250 441 2565 725 
Q 2881 1009 2881 1497 
Q 2881 1984 2565 2268 
Q 2250 2553 1709 2553 
Q 1456 2553 1204 2497 
Q 953 2441 691 2322 
L 691 4666 
z
" id="DejaVuSans-35" transform="scale(0.015625)"/>
       </defs>
       <use xlink:href="#DejaVuSans-38"/>
       <use x="63.623047" xlink:href="#DejaVuSans-35"/>
       <use x="127.246094" xlink:href="#DejaVuSans-30"/>
       <use x="190.869141" xlink:href="#DejaVuSans-30"/>
       <use x="254.492188" xlink:href="#DejaVuSans-30"/>
      </g>
     </g>
    </g>
    <g id="ytick_2">
     <g id="line2d_9">
      <g>
       <use style="stroke:#000000;stroke-width:0.8;" x="57.6" xlink:href="#m7f452bcb59" y="220.897487"/>
      </g>
     </g>
     <g id="text_10">
      <!-- 90000 -->
      <g transform="translate(18.7875 224.696705)scale(0.1 -0.1)">
       <use xlink:href="#DejaVuSans-39"/>
       <use x="63.623047" xlink:href="#DejaVuSans-30"/>
       <use x="127.246094" xlink:href="#DejaVuSans-30"/>
       <use x="190.869141" xlink:href="#DejaVuSans-30"/>
       <use x="254.492188" xlink:href="#DejaVuSans-30"/>
      </g>
     </g>
    </g>
    <g id="ytick_3">
     <g id="line2d_10">
      <g>
       <use style="stroke:#000000;stroke-width:0.8;" x="57.6" xlink:href="#m7f452bcb59" y="186.232081"/>
      </g>
     </g>
     <g id="text_11">
      <!-- 95000 -->
      <g transform="translate(18.7875 190.0313)scale(0.1 -0.1)">
       <use xlink:href="#DejaVuSans-39"/>
       <use x="63.623047" xlink:href="#DejaVuSans-35"/>
       <use x="127.246094" xlink:href="#DejaVuSans-30"/>
       <use x="190.869141" xlink:href="#DejaVuSans-30"/>
       <use x="254.492188" xlink:href="#DejaVuSans-30"/>
      </g>
     </g>
    </g>
    <g id="ytick_4">
     <g id="line2d_11">
      <g>
       <use style="stroke:#000000;stroke-width:0.8;" x="57.6" xlink:href="#m7f452bcb59" y="151.566676"/>
      </g>
     </g>
     <g id="text_12">
      <!-- 100000 -->
      <g transform="translate(12.425 155.365895)scale(0.1 -0.1)">
       <use xlink:href="#DejaVuSans-31"/>
       <use x="63.623047" xlink:href="#DejaVuSans-30"/>
       <use x="127.246094" xlink:href="#DejaVuSans-30"/>
       <use x="190.869141" xlink:href="#DejaVuSans-30"/>
       <use x="254.492188" xlink:href="#DejaVuSans-30"/>
       <use x="318.115234" xlink:href="#DejaVuSans-30"/>
      </g>
     </g>
    </g>
    <g id="ytick_5">
     <g id="line2d_12">
      <g>
       <use style="stroke:#000000;stroke-width:0.8;" x="57.6" xlink:href="#m7f452bcb59" y="116.901271"/>
      </g>
     </g>
     <g id="text_13">
      <!-- 105000 -->
      <g transform="translate(12.425 120.700489)scale(0.1 -0.1)">
       <use xlink:href="#DejaVuSans-31"/>
       <use x="63.623047" xlink:href="#DejaVuSans-30"/>
       <use x="127.246094" xlink:href="#DejaVuSans-35"/>
       <use x="190.869141" xlink:href="#DejaVuSans-30"/>
       <use x="254.492188" xlink:href="#DejaVuSans-30"/>
       <use x="318.115234" xlink:href="#DejaVuSans-30"/>
      </g>
     </g>
    </g>
    <g id="ytick_6">
     <g id="line2d_13">
      <g>
       <use style="stroke:#000000;stroke-width:0.8;" x="57.6" xlink:href="#m7f452bcb59" y="82.235865"/>
      </g>
     </g>
     <g id="text_14">
      <!-- 110000 -->
      <g transform="translate(12.425 86.035084)scale(0.1 -0.1)">
       <use xlink:href="#DejaVuSans-31"/>
       <use x="63.623047" xlink:href="#DejaVuSans-31"/>
       <use x="127.246094" xlink:href="#DejaVuSans-30"/>
       <use x="190.869141" xlink:href="#DejaVuSans-30"/>
       <use x="254.492188" xlink:href="#DejaVuSans-30"/>
       <use x="318.115234" xlink:href="#DejaVuSans-30"/>
      </g>
     </g>
    </g>
    <g id="ytick_7">
     <g id="line2d_14">
      <g>
       <use style="stroke:#000000;stroke-width:0.8;" x="57.6" xlink:href="#m7f452bcb59" y="47.57046"/>
      </g>
     </g>
     <g id="text_15">
      <!-- 115000 -->
      <g transform="translate(12.425 51.369678)scale(0.1 -0.1)">
       <use xlink:href="#DejaVuSans-31"/>
       <use x="63.623047" xlink:href="#DejaVuSans-31"/>
       <use x="127.246094" xlink:href="#DejaVuSans-35"/>
       <use x="190.869141" xlink:href="#DejaVuSans-30"/>
       <use x="254.492188" xlink:href="#DejaVuSans-30"/>
       <use x="318.115234" xlink:href="#DejaVuSans-30"/>
      </g>
     </g>
    </g>
   </g>
   <g id="line2d_15">
    <path clip-path="url(#p7c13bdade5)" d="M 73.832727 151.566676 
L 75.489128 152.388739 
L 77.145529 149.245529 
L 78.801929 153.572535 
L 80.45833 146.454307 
L 87.083933 141.246993 
L 88.740334 143.078553 
L 90.396735 142.350988 
L 92.053135 142.491244 
L 98.678738 142.310071 
L 100.335139 145.173676 
L 101.99154 146.991394 
L 103.647941 153.11448 
L 108.617143 148.025687 
L 110.273544 157.372432 
L 111.929944 152.632612 
L 113.586345 153.49035 
L 115.242746 160.405541 
L 120.211948 172.597603 
L 121.868349 174.166483 
L 123.52475 168.797148 
L 125.18115 158.156814 
L 126.837551 151.988039 
L 131.806753 146.780565 
L 133.463154 161.954056 
L 135.119555 159.223356 
L 136.775955 165.148852 
L 138.432356 154.767689 
L 143.401558 167.364207 
L 145.057959 156.79861 
L 146.71436 154.514787 
L 148.370761 154.37797 
L 150.027161 153.040084 
L 154.996364 152.586814 
L 156.652764 151.64093 
L 158.309165 160.264442 
L 159.965566 147.163717 
L 161.621967 145.971976 
L 166.591169 140.407714 
L 168.24757 133.021016 
L 169.90397 130.28604 
L 171.560371 142.540807 
L 173.216772 151.500118 
L 178.185974 151.05634 
L 179.842375 157.123562 
L 181.498776 158.466634 
L 183.155176 149.810554 
L 184.811577 159.031122 
L 189.780779 144.562639 
L 191.43718 145.029068 
L 193.093581 137.74975 
L 194.749981 146.651568 
L 196.406382 141.704999 
L 201.375584 141.174471 
L 203.031985 149.669191 
L 204.688386 149.779454 
L 206.344787 155.046725 
L 208.001187 149.757311 
L 212.97039 147.693808 
L 214.62679 147.901922 
L 216.283191 151.671149 
L 217.939592 153.645914 
L 219.595993 153.956982 
L 224.565195 149.885352 
L 226.221596 143.624249 
L 227.877996 144.61266 
L 231.190798 144.700773 
L 236.16 150.394461 
L 237.816401 163.637581 
L 239.472801 173.357119 
L 241.129202 164.789253 
L 242.785603 168.824643 
L 247.754805 156.238068 
L 249.411206 143.918703 
L 251.067607 138.540856 
L 252.724007 138.531415 
L 254.380408 136.049503 
L 259.34961 142.51192 
L 261.006011 138.955383 
L 262.662412 134.982607 
L 264.318813 132.032975 
L 265.975213 140.347077 
L 270.944416 149.82453 
L 272.600816 133.624525 
L 274.257217 130.284918 
L 275.913618 123.807258 
L 282.539221 115.37409 
L 285.852022 115.30955 
L 287.508423 116.329056 
L 289.164824 119.703981 
L 294.134026 108.867232 
L 295.790427 99.191503 
L 297.446827 119.070131 
L 299.103228 112.701367 
L 300.759629 110.0209 
L 305.728831 110.22617 
L 307.385232 103.893236 
L 309.041633 102.413455 
L 310.698033 110.830686 
L 312.354434 108.905024 
L 320.636438 128.55802 
L 322.292839 136.791141 
L 323.949239 153.309101 
L 328.918442 151.952566 
L 330.574842 159.834199 
L 332.231243 159.58555 
L 333.887644 164.66134 
L 335.544045 146.462721 
L 340.513247 131.902707 
L 342.169647 124.749029 
L 343.826048 114.249292 
L 345.482449 160.380458 
L 347.13885 158.900047 
L 352.108052 170.648995 
L 353.764453 172.488434 
L 355.420853 157.047395 
L 357.077254 169.216152 
L 358.733655 184.584527 
L 363.702857 189.643081 
L 365.359258 181.569741 
L 367.015659 185.303699 
L 368.672059 197.059263 
L 370.32846 201.282752 
L 376.954063 207.847515 
L 378.610464 217.355608 
L 380.266865 202.954545 
L 381.923265 191.221752 
L 386.892468 193.314229 
L 388.548868 203.868479 
L 390.205269 190.584727 
L 391.86167 192.713087 
L 393.518071 197.992837 
L 398.487273 235.417772 
L 398.487273 235.417772 
" style="fill:none;stroke:#0000ff;stroke-linecap:square;stroke-opacity:0.9;stroke-width:2;"/>
   </g>
   <g id="line2d_16">
    <path clip-path="url(#p7c13bdade5)" d="M 73.832727 151.566676 
L 77.145529 144.456576 
L 78.801929 148.700243 
L 80.45833 140.460231 
L 85.427532 138.479316 
L 87.083933 136.984774 
L 88.740334 137.164199 
L 90.396735 138.564044 
L 92.053135 138.087692 
L 98.678738 136.900832 
L 100.335139 139.97305 
L 101.99154 141.122772 
L 103.647941 148.590192 
L 108.617143 143.240718 
L 110.273544 149.754365 
L 111.929944 146.482722 
L 113.586345 148.742973 
L 115.242746 157.739747 
L 120.211948 169.031528 
L 121.868349 169.111275 
L 123.52475 165.181013 
L 125.18115 155.931384 
L 126.837551 150.601371 
L 131.806753 146.659782 
L 133.463154 160.472855 
L 135.119555 159.352827 
L 136.775955 166.294278 
L 138.432356 156.084277 
L 143.401558 163.438936 
L 145.057959 153.364007 
L 146.71436 151.942732 
L 148.370761 150.058289 
L 150.027161 146.679607 
L 154.996364 150.914865 
L 156.652764 156.368476 
L 158.309165 158.278991 
L 159.965566 141.058226 
L 161.621967 136.19889 
L 166.591169 134.549322 
L 168.24757 128.510171 
L 169.90397 124.937941 
L 171.560371 133.988716 
L 173.216772 138.053913 
L 178.185974 139.690498 
L 179.842375 143.160508 
L 181.498776 147.200268 
L 183.155176 137.774098 
L 184.811577 136.654625 
L 189.780779 135.740359 
L 191.43718 133.734842 
L 193.093581 128.309455 
L 194.749981 129.178686 
L 196.406382 129.476852 
L 201.375584 128.45068 
L 203.031985 134.117946 
L 204.688386 138.063409 
L 206.344787 137.339561 
L 208.001187 133.054533 
L 212.97039 131.368085 
L 214.62679 133.118552 
L 216.283191 133.494998 
L 217.939592 133.291043 
L 219.595993 136.241147 
L 224.565195 133.423713 
L 226.221596 126.497887 
L 227.877996 125.590542 
L 231.190798 144.049002 
L 236.16 136.379321 
L 237.816401 151.436865 
L 239.472801 159.436685 
L 241.129202 149.842259 
L 242.785603 155.914247 
L 247.754805 145.364067 
L 249.411206 133.35808 
L 251.067607 128.857723 
L 252.724007 129.896873 
L 254.380408 125.39383 
L 259.34961 132.055764 
L 261.006011 131.97744 
L 262.662412 126.463145 
L 264.318813 126.291187 
L 265.975213 135.658779 
L 270.944416 143.384593 
L 272.600816 130.089999 
L 274.257217 126.263206 
L 275.913618 120.123715 
L 282.539221 110.719201 
L 284.195622 111.385878 
L 285.852022 110.61576 
L 287.508423 111.859943 
L 289.164824 114.426097 
L 294.134026 106.49511 
L 295.790427 98.985665 
L 297.446827 115.501069 
L 299.103228 112.355288 
L 300.759629 108.789548 
L 305.728831 109.524601 
L 307.385232 105.187632 
L 309.041633 104.72361 
L 310.698033 110.570591 
L 312.354434 110.474604 
L 318.980037 126.683831 
L 322.292839 140.592857 
L 323.949239 155.173016 
L 328.918442 155.889409 
L 330.574842 154.121893 
L 332.231243 155.648366 
L 333.887644 161.234038 
L 335.544045 144.96068 
L 340.513247 133.989809 
L 342.169647 125.477284 
L 343.826048 114.061346 
L 345.482449 146.765638 
L 347.13885 141.058731 
L 352.108052 145.566492 
L 353.764453 140.640435 
L 355.420853 134.491756 
L 357.077254 145.97762 
L 358.733655 160.902472 
L 363.702857 167.18063 
L 365.359258 159.228364 
L 367.015659 160.36995 
L 368.672059 173.854659 
L 370.32846 177.046223 
L 376.954063 182.791484 
L 378.610464 191.791093 
L 380.266865 188.247477 
L 381.923265 172.328476 
L 386.892468 179.228497 
L 388.548868 192.735132 
L 390.205269 177.350195 
L 391.86167 178.73339 
L 393.518071 188.613933 
L 398.487273 211.350575 
L 398.487273 211.350575 
" style="fill:none;stroke:#ff0000;stroke-linecap:square;stroke-opacity:0.9;stroke-width:2;"/>
   </g>
   <g id="line2d_17">
    <path clip-path="url(#p7c13bdade5)" d="M 73.832727 151.566676 
L 75.489128 147.744256 
L 77.145529 145.030813 
L 78.801929 148.951989 
L 80.45833 142.54964 
L 85.427532 137.478199 
L 87.083933 136.637762 
L 88.740334 137.974306 
L 90.396735 137.111882 
L 92.053135 137.620067 
L 98.678738 137.832193 
L 100.335139 140.249195 
L 101.99154 142.097426 
L 103.647941 148.456808 
L 108.617143 142.002969 
L 110.273544 151.941729 
L 111.929944 147.475647 
L 113.586345 148.756532 
L 115.242746 154.61234 
L 120.211948 166.580436 
L 121.868349 168.025743 
L 123.52475 163.129014 
L 125.18115 151.987669 
L 126.837551 146.023024 
L 131.806753 140.114421 
L 133.463154 155.158095 
L 135.119555 153.060624 
L 136.775955 158.118683 
L 138.432356 147.455444 
L 143.401558 160.645807 
L 145.057959 150.223742 
L 146.71436 147.258305 
L 150.027161 142.64687 
L 154.996364 146.536773 
L 156.652764 151.97277 
L 158.309165 153.434617 
L 159.965566 139.516077 
L 161.621967 138.434481 
L 166.591169 132.595254 
L 168.24757 125.242077 
L 169.90397 122.33942 
L 171.560371 134.422465 
L 173.216772 143.342912 
L 178.185974 142.580936 
L 179.842375 148.896706 
L 181.498776 150.404144 
L 183.155176 142.014008 
L 184.811577 140.870154 
L 191.43718 135.533527 
L 193.093581 129.993326 
L 194.749981 129.573323 
L 196.406382 124.36301 
L 201.375584 123.970829 
L 203.031985 132.891307 
L 204.688386 138.151175 
L 206.344787 138.28388 
L 208.001187 132.935123 
L 212.97039 130.84073 
L 214.62679 133.879262 
L 216.283191 134.593166 
L 217.939592 136.101014 
L 219.595993 136.646524 
L 224.565195 132.017952 
L 226.221596 126.156389 
L 227.877996 126.755883 
L 231.190798 142.85539 
L 236.16 133.90026 
L 237.816401 147.747056 
L 239.472801 156.872926 
L 241.129202 149.08873 
L 242.785603 153.265689 
L 247.754805 140.08422 
L 249.411206 127.564359 
L 251.067607 122.055337 
L 252.724007 121.650027 
L 254.380408 119.540975 
L 259.34961 125.98049 
L 261.006011 122.60171 
L 262.662412 118.407419 
L 264.318813 115.569787 
L 265.975213 124.830956 
L 270.944416 134.061495 
L 272.600816 117.278882 
L 274.257217 113.98408 
L 275.913618 107.273973 
L 282.539221 98.193635 
L 284.195622 98.956511 
L 285.852022 98.805824 
L 287.508423 99.421494 
L 289.164824 103.294101 
L 294.134026 91.864302 
L 295.790427 81.994924 
L 297.446827 101.637828 
L 299.103228 94.315016 
L 300.759629 91.502027 
L 305.728831 89.730915 
L 307.385232 83.081792 
L 309.041633 81.36795 
L 310.698033 90.77981 
L 312.354434 88.862516 
L 318.980037 104.322362 
L 320.636438 108.741188 
L 322.292839 116.491964 
L 323.949239 133.736268 
L 328.918442 132.339921 
L 330.574842 140.950626 
L 332.231243 140.980191 
L 333.887644 145.767447 
L 335.544045 127.638507 
L 340.513247 111.679743 
L 342.169647 104.888967 
L 343.826048 92.200949 
L 345.482449 142.771601 
L 347.13885 142.31389 
L 352.108052 153.757717 
L 353.764453 155.74392 
L 355.420853 139.910347 
L 357.077254 152.863328 
L 358.733655 168.390076 
L 363.702857 172.760085 
L 365.359258 164.723067 
L 367.015659 168.154212 
L 368.672059 180.889371 
L 370.32846 184.588788 
L 376.954063 191.581818 
L 378.610464 200.623932 
L 380.266865 185.488752 
L 381.923265 173.173183 
L 386.892468 175.652151 
L 388.548868 185.994538 
L 390.205269 172.040191 
L 391.86167 175.693394 
L 393.518071 185.42062 
L 398.487273 213.565679 
L 398.487273 213.565679 
" style="fill:none;stroke:#ff8040;stroke-linecap:square;stroke-opacity:0.9;stroke-width:2;"/>
   </g>
   <g id="line2d_18">
    <path clip-path="url(#p7c13bdade5)" d="M 73.832727 152.259984 
L 75.489128 150.664911 
L 77.145529 148.241819 
L 78.801929 153.740872 
L 80.45833 146.273448 
L 85.427532 145.561791 
L 87.083933 146.182055 
L 88.740334 146.401532 
L 90.396735 148.881951 
L 92.053135 148.442128 
L 98.678738 148.659637 
L 100.335139 150.808594 
L 101.99154 152.570454 
L 103.647941 159.974065 
L 108.617143 154.365599 
L 110.273544 161.65516 
L 111.929944 158.291161 
L 113.586345 160.711966 
L 115.242746 170.328112 
L 120.211948 183.081868 
L 121.868349 183.528367 
L 123.52475 180.179728 
L 125.18115 171.853507 
L 126.837551 167.701034 
L 131.806753 167.371882 
L 133.463154 181.338699 
L 135.119555 180.101938 
L 136.775955 185.827148 
L 138.432356 176.995103 
L 143.401558 187.952094 
L 145.057959 177.222808 
L 146.71436 177.577091 
L 148.370761 174.820423 
L 150.027161 171.15509 
L 154.996364 176.419171 
L 156.652764 182.992187 
L 158.309165 183.495078 
L 159.965566 167.826958 
L 161.621967 163.541208 
L 166.591169 163.564869 
L 168.24757 158.890432 
L 169.90397 152.434656 
L 171.560371 160.837205 
L 173.216772 165.913262 
L 178.185974 169.50505 
L 179.842375 179.48465 
L 181.498776 178.816408 
L 183.155176 170.496172 
L 184.811577 170.961696 
L 189.780779 176.278003 
L 191.43718 173.923566 
L 193.093581 167.279297 
L 194.749981 168.070297 
L 196.406382 164.400629 
L 201.375584 162.719753 
L 203.031985 170.533228 
L 204.688386 174.545768 
L 206.344787 174.465327 
L 208.001187 174.094017 
L 212.97039 173.746596 
L 214.62679 174.687675 
L 216.283191 174.754859 
L 217.939592 172.192852 
L 219.595993 173.776118 
L 224.565195 168.622882 
L 226.221596 165.248657 
L 227.877996 166.518469 
L 231.190798 185.160692 
L 236.16 176.738519 
L 237.816401 193.685581 
L 239.472801 202.933505 
L 241.129202 195.580074 
L 242.785603 203.093219 
L 247.754805 196.862293 
L 249.411206 186.281827 
L 251.067607 182.434711 
L 252.724007 183.51979 
L 254.380408 180.075877 
L 259.34961 185.325991 
L 261.006011 181.480679 
L 262.662412 175.635902 
L 264.318813 176.019556 
L 265.975213 181.157158 
L 270.944416 190.696474 
L 272.600816 178.531358 
L 275.913618 165.575966 
L 282.539221 158.430821 
L 284.195622 158.032411 
L 285.852022 156.422835 
L 287.508423 157.578146 
L 289.164824 159.240855 
L 294.134026 149.135662 
L 295.790427 141.705033 
L 297.446827 162.836362 
L 299.103228 164.238431 
L 300.759629 159.290305 
L 305.728831 158.788881 
L 307.385232 152.79212 
L 309.041633 150.729199 
L 310.698033 155.417328 
L 312.354434 155.98394 
L 318.980037 167.224124 
L 320.636438 173.798476 
L 322.292839 180.917181 
L 323.949239 197.509043 
L 328.918442 198.530995 
L 330.574842 200.198164 
L 332.231243 199.759871 
L 333.887644 205.143258 
L 335.544045 189.745883 
L 340.513247 177.008495 
L 342.169647 165.628731 
L 343.826048 159.400298 
L 345.482449 199.170965 
L 347.13885 193.739435 
L 352.108052 200.166225 
L 353.764453 198.369078 
L 355.420853 188.949025 
L 357.077254 199.545962 
L 358.733655 214.950394 
L 363.702857 220.977079 
L 365.359258 213.376758 
L 367.015659 216.433337 
L 368.672059 228.251641 
L 370.32846 230.043884 
L 376.954063 236.920434 
L 378.610464 247.477966 
L 380.266865 240.078237 
L 381.923265 228.198717 
L 386.892468 232.977282 
L 388.548868 247.016451 
L 390.205269 233.75497 
L 391.86167 235.974155 
L 393.518071 242.852744 
L 398.487273 265.797818 
L 398.487273 265.797818 
" style="fill:none;stroke:#0d0d0d;stroke-linecap:square;stroke-opacity:0.25;stroke-width:2;"/>
   </g>
   <g id="line2d_19">
    <path clip-path="url(#p7c13bdade5)" d="M 73.832727 150.873368 
L 75.489128 144.979073 
L 77.145529 139.630678 
L 78.801929 142.679464 
L 80.45833 134.138653 
L 85.427532 129.17633 
L 87.083933 127.3253 
L 88.740334 126.676254 
L 90.396735 125.628738 
L 92.053135 125.884705 
L 98.678738 122.221462 
L 100.335139 124.18715 
L 101.99154 124.617442 
L 103.647941 131.991831 
L 108.617143 126.5276 
L 110.273544 131.694588 
L 111.929944 127.60384 
L 113.586345 130.066333 
L 115.242746 137.473839 
L 120.211948 149.796648 
L 121.868349 150.585951 
L 123.52475 147.938698 
L 125.18115 138.840395 
L 126.837551 132.816989 
L 131.806753 125.740807 
L 133.463154 140.737186 
L 135.119555 139.480482 
L 136.775955 144.283601 
L 138.432356 132.783657 
L 143.401558 135.709346 
L 145.057959 127.230535 
L 146.71436 125.666339 
L 148.370761 125.725455 
L 150.027161 121.951843 
L 154.996364 127.635436 
L 156.652764 133.620381 
L 158.309165 133.16495 
L 159.965566 114.93482 
L 161.621967 108.939239 
L 166.591169 108.159597 
L 168.24757 102.507697 
L 169.90397 97.580957 
L 171.560371 100.950394 
L 173.216772 108.285664 
L 178.185974 109.725738 
L 179.842375 116.04606 
L 181.498776 114.085378 
L 183.155176 105.245393 
L 184.811577 101.183631 
L 189.780779 101.829469 
L 191.43718 96.878938 
L 193.093581 92.953826 
L 194.749981 94.334749 
L 196.406382 96.884364 
L 201.375584 96.699157 
L 203.031985 100.403098 
L 204.688386 103.464223 
L 206.344787 104.390256 
L 208.001187 99.80945 
L 212.97039 99.286195 
L 214.62679 100.364055 
L 216.283191 98.140589 
L 217.939592 102.188467 
L 219.595993 100.791317 
L 224.565195 99.314543 
L 226.221596 91.510561 
L 227.877996 90.418013 
L 231.190798 110.265955 
L 236.16 104.548885 
L 239.472801 126.403186 
L 241.129202 112.796167 
L 242.785603 119.071626 
L 247.754805 106.943098 
L 249.411206 94.638813 
L 251.067607 88.652361 
L 252.724007 89.851748 
L 254.380408 82.994473 
L 259.34961 90.551451 
L 261.006011 88.167848 
L 262.662412 83.726393 
L 264.318813 83.151411 
L 265.975213 95.96097 
L 270.944416 103.272389 
L 272.600816 89.696221 
L 274.257217 83.93057 
L 275.913618 75.638092 
L 282.539221 66.104345 
L 284.195622 66.088554 
L 285.852022 66.237558 
L 287.508423 67.35803 
L 289.164824 70.549329 
L 294.134026 61.166297 
L 295.790427 52.154182 
L 297.446827 66.504263 
L 299.103228 61.016887 
L 300.759629 59.883793 
L 305.728831 60.557834 
L 307.385232 52.423954 
L 309.041633 53.664638 
L 310.698033 59.327658 
L 312.354434 61.270455 
L 318.980037 76.971606 
L 320.636438 82.807778 
L 322.292839 92.045887 
L 323.949239 107.322674 
L 328.918442 105.337374 
L 330.574842 106.243604 
L 332.231243 106.305358 
L 333.887644 111.389435 
L 335.544045 91.06912 
L 340.513247 80.40814 
L 342.169647 71.60595 
L 343.826048 61.988493 
L 345.482449 94.945377 
L 347.13885 92.751457 
L 352.108052 98.986266 
L 353.764453 95.102712 
L 355.420853 87.430915 
L 357.077254 102.599843 
L 358.733655 115.693519 
L 363.702857 120.346265 
L 365.359258 112.200187 
L 367.015659 114.518722 
L 368.672059 128.16375 
L 370.32846 134.260311 
L 376.954063 140.453015 
L 378.610464 150.244165 
L 380.266865 136.875284 
L 381.923265 118.329968 
L 386.892468 124.149465 
L 388.548868 132.719769 
L 390.205269 119.334255 
L 391.86167 118.007737 
L 393.518071 124.24945 
L 398.487273 149.280598 
L 398.487273 149.280598 
" style="fill:none;stroke:#0d0d0d;stroke-linecap:square;stroke-opacity:0.25;stroke-width:2;"/>
   </g>
   <g id="patch_3">
    <path d="M 57.6 276.48 
L 57.6 41.472 
" style="fill:none;stroke:#000000;stroke-linecap:square;stroke-linejoin:miter;stroke-width:0.8;"/>
   </g>
   <g id="patch_4">
    <path d="M 414.72 276.48 
L 414.72 41.472 
" style="fill:none;stroke:#000000;stroke-linecap:square;stroke-linejoin:miter;stroke-width:0.8;"/>
   </g>
   <g id="patch_5">
    <path d="M 57.6 276.48 
L 414.72 276.48 
" style="fill:none;stroke:#000000;stroke-linecap:square;stroke-linejoin:miter;stroke-width:0.8;"/>
   </g>
   <g id="patch_6">
    <path d="M 57.6 41.472 
L 414.72 41.472 
" style="fill:none;stroke:#000000;stroke-linecap:square;stroke-linejoin:miter;stroke-width:0.8;"/>
   </g>
   <g id="text_16">
    <!-- TESTFUNDS1330 -->
    <g transform="translate(185.200312 22.034625)scale(0.12 -0.12)">
     <defs>
      <path d="M -19 4666 
L 3928 4666 
L 3928 4134 
L 2272 4134 
L 2272 0 
L 1638 0 
L 1638 4134 
L -19 4134 
L -19 4666 
z
" id="DejaVuSans-54" transform="scale(0.015625)"/>
      <path d="M 628 4666 
L 3578 4666 
L 3578 4134 
L 1259 4134 
L 1259 2753 
L 3481 2753 
L 3481 2222 
L 1259 2222 
L 1259 531 
L 3634 531 
L 3634 0 
L 628 0 
L 628 4666 
z
" id="DejaVuSans-45" transform="scale(0.015625)"/>
      <path d="M 3425 4513 
L 3425 3897 
Q 3066 4069 2747 4153 
Q 2428 4238 2131 4238 
Q 1616 4238 1336 4038 
Q 1056 3838 1056 3469 
Q 1056 3159 1242 3001 
Q 1428 2844 1947 2747 
L 2328 2669 
Q 3034 2534 3370 2195 
Q 3706 1856 3706 1288 
Q 3706 609 3251 259 
Q 2797 -91 1919 -91 
Q 1588 -91 1214 -16 
Q 841 59 441 206 
L 441 856 
Q 825 641 1194 531 
Q 1563 422 1919 422 
Q 2459 422 2753 634 
Q 3047 847 3047 1241 
Q 3047 1584 2836 1778 
Q 2625 1972 2144 2069 
L 1759 2144 
Q 1053 2284 737 2584 
Q 422 2884 422 3419 
Q 422 4038 858 4394 
Q 1294 4750 2059 4750 
Q 2388 4750 2728 4690 
Q 3069 4631 3425 4513 
z
" id="DejaVuSans-53" transform="scale(0.015625)"/>
      <path d="M 628 4666 
L 3309 4666 
L 3309 4134 
L 1259 4134 
L 1259 2759 
L 3109 2759 
L 3109 2228 
L 1259 2228 
L 1259 0 
L 628 0 
L 628 4666 
z
" id="DejaVuSans-46" transform="scale(0.015625)"/>
      <path d="M 556 4666 
L 1191 4666 
L 1191 1831 
Q 1191 1081 1462 751 
Q 1734 422 2344 422 
Q 2950 422 3222 751 
Q 3494 1081 3494 1831 
L 3494 4666 
L 4128 4666 
L 4128 1753 
Q 4128 841 3676 375 
Q 3225 -91 2344 -91 
Q 1459 -91 1007 375 
Q 556 841 556 1753 
L 556 4666 
z
" id="DejaVuSans-55" transform="scale(0.015625)"/>
      <path d="M 628 4666 
L 1478 4666 
L 3547 763 
L 3547 4666 
L 4159 4666 
L 4159 0 
L 3309 0 
L 1241 3903 
L 1241 0 
L 628 0 
L 628 4666 
z
" id="DejaVuSans-4e" transform="scale(0.015625)"/>
      <path d="M 1259 4147 
L 1259 519 
L 2022 519 
Q 2988 519 3436 956 
Q 3884 1394 3884 2338 
Q 3884 3275 3436 3711 
Q 2988 4147 2022 4147 
L 1259 4147 
z
M 628 4666 
L 1925 4666 
Q 3281 4666 3915 4102 
Q 4550 3538 4550 2338 
Q 4550 1131 3912 565 
Q 3275 0 1925 0 
L 628 0 
L 628 4666 
z
" id="DejaVuSans-44" transform="scale(0.015625)"/>
     </defs>
     <use xlink:href="#DejaVuSans-54"/>
     <use x="61.083984" xlink:href="#DejaVuSans-45"/>
     <use x="124.267578" xlink:href="#DejaVuSans-53"/>
     <use x="187.744141" xlink:href="#DejaVuSans-54"/>
     <use x="248.828125" xlink:href="#DejaVuSans-46"/>
     <use x="306.347656" xlink:href="#DejaVuSans-55"/>
     <use x="379.541016" xlink:href="#DejaVuSans-4e"/>
     <use x="454.345703" xlink:href="#DejaVuSans-44"/>
     <use x="531.347656" xlink:href="#DejaVuSans-53"/>
     <use x="594.824219" xlink:href="#DejaVuSans-31"/>
     <use x="658.447266" xlink:href="#DejaVuSans-33"/>
     <use x="722.070312" xlink:href="#DejaVuSans-33"/>
     <use x="785.693359" xlink:href="#DejaVuSans-30"/>
    </g>
    <!-- daily_report -->
    <g transform="translate(200.466563 35.472)scale(0.12 -0.12)">
     <defs>
      <path d="M 603 3500 
L 1178 3500 
L 1178 0 
L 603 0 
L 603 3500 
z
M 603 4863 
L 1178 4863 
L 1178 4134 
L 603 4134 
L 603 4863 
z
" id="DejaVuSans-69" transform="scale(0.015625)"/>
      <path d="M 603 4863 
L 1178 4863 
L 1178 0 
L 603 0 
L 603 4863 
z
" id="DejaVuSans-6c" transform="scale(0.015625)"/>
      <path d="M 2059 -325 
Q 1816 -950 1584 -1140 
Q 1353 -1331 966 -1331 
L 506 -1331 
L 506 -850 
L 844 -850 
Q 1081 -850 1212 -737 
Q 1344 -625 1503 -206 
L 1606 56 
L 191 3500 
L 800 3500 
L 1894 763 
L 2988 3500 
L 3597 3500 
L 2059 -325 
z
" id="DejaVuSans-79" transform="scale(0.015625)"/>
      <path d="M 3263 -1063 
L 3263 -1509 
L -63 -1509 
L -63 -1063 
L 3263 -1063 
z
" id="DejaVuSans-5f" transform="scale(0.015625)"/>
      <path d="M 2631 2963 
Q 2534 3019 2420 3045 
Q 2306 3072 2169 3072 
Q 1681 3072 1420 2755 
Q 1159 2438 1159 1844 
L 1159 0 
L 581 0 
L 581 3500 
L 1159 3500 
L 1159 2956 
Q 1341 3275 1631 3429 
Q 1922 3584 2338 3584 
Q 2397 3584 2469 3576 
Q 2541 3569 2628 3553 
L 2631 2963 
z
" id="DejaVuSans-72" transform="scale(0.015625)"/>
      <path d="M 1159 525 
L 1159 -1331 
L 581 -1331 
L 581 3500 
L 1159 3500 
L 1159 2969 
Q 1341 3281 1617 3432 
Q 1894 3584 2278 3584 
Q 2916 3584 3314 3078 
Q 3713 2572 3713 1747 
Q 3713 922 3314 415 
Q 2916 -91 2278 -91 
Q 1894 -91 1617 61 
Q 1341 213 1159 525 
z
M 3116 1747 
Q 3116 2381 2855 2742 
Q 2594 3103 2138 3103 
Q 1681 3103 1420 2742 
Q 1159 2381 1159 1747 
Q 1159 1113 1420 752 
Q 1681 391 2138 391 
Q 2594 391 2855 752 
Q 3116 1113 3116 1747 
z
" id="DejaVuSans-70" transform="scale(0.015625)"/>
      <path d="M 1959 3097 
Q 1497 3097 1228 2736 
Q 959 2375 959 1747 
Q 959 1119 1226 758 
Q 1494 397 1959 397 
Q 2419 397 2687 759 
Q 2956 1122 2956 1747 
Q 2956 2369 2687 2733 
Q 2419 3097 1959 3097 
z
M 1959 3584 
Q 2709 3584 3137 3096 
Q 3566 2609 3566 1747 
Q 3566 888 3137 398 
Q 2709 -91 1959 -91 
Q 1206 -91 779 398 
Q 353 888 353 1747 
Q 353 2609 779 3096 
Q 1206 3584 1959 3584 
z
" id="DejaVuSans-6f" transform="scale(0.015625)"/>
     </defs>
     <use xlink:href="#DejaVuSans-64"/>
     <use x="63.476562" xlink:href="#DejaVuSans-61"/>
     <use x="124.755859" xlink:href="#DejaVuSans-69"/>
     <use x="152.539062" xlink:href="#DejaVuSans-6c"/>
     <use x="180.322266" xlink:href="#DejaVuSans-79"/>
     <use x="239.501953" xlink:href="#DejaVuSans-5f"/>
     <use x="289.501953" xlink:href="#DejaVuSans-72"/>
     <use x="328.365234" xlink:href="#DejaVuSans-65"/>
     <use x="389.888672" xlink:href="#DejaVuSans-70"/>
     <use x="453.365234" xlink:href="#DejaVuSans-6f"/>
     <use x="514.546875" xlink:href="#DejaVuSans-72"/>
     <use x="555.660156" xlink:href="#DejaVuSans-74"/>
    </g>
   </g>
   <g id="legend_1">
    <g id="patch_7">
     <path d="M 64.6 271.48 
L 155.792188 271.48 
Q 157.792188 271.48 157.792188 269.48 
L 157.792188 197.089375 
Q 157.792188 195.089375 155.792188 195.089375 
L 64.6 195.089375 
Q 62.6 195.089375 62.6 197.089375 
L 62.6 269.48 
Q 62.6 271.48 64.6 271.48 
z
" style="fill:#ffffff;opacity:0.8;stroke:#cccccc;stroke-linejoin:miter;"/>
    </g>
    <g id="line2d_20">
     <path d="M 66.6 203.187812 
L 86.6 203.187812 
" style="fill:none;stroke:#0000ff;stroke-linecap:square;stroke-opacity:0.9;stroke-width:2;"/>
    </g>
    <g id="line2d_21"/>
    <g id="text_17">
     <!-- alpaca -->
     <g transform="translate(94.6 206.687812)scale(0.1 -0.1)">
      <defs>
       <path d="M 3122 3366 
L 3122 2828 
Q 2878 2963 2633 3030 
Q 2388 3097 2138 3097 
Q 1578 3097 1268 2742 
Q 959 2388 959 1747 
Q 959 1106 1268 751 
Q 1578 397 2138 397 
Q 2388 397 2633 464 
Q 2878 531 3122 666 
L 3122 134 
Q 2881 22 2623 -34 
Q 2366 -91 2075 -91 
Q 1284 -91 818 406 
Q 353 903 353 1747 
Q 353 2603 823 3093 
Q 1294 3584 2113 3584 
Q 2378 3584 2631 3529 
Q 2884 3475 3122 3366 
z
" id="DejaVuSans-63" transform="scale(0.015625)"/>
      </defs>
      <use xlink:href="#DejaVuSans-61"/>
      <use x="61.279297" xlink:href="#DejaVuSans-6c"/>
      <use x="89.0625" xlink:href="#DejaVuSans-70"/>
      <use x="152.539062" xlink:href="#DejaVuSans-61"/>
      <use x="213.818359" xlink:href="#DejaVuSans-63"/>
      <use x="268.798828" xlink:href="#DejaVuSans-61"/>
     </g>
    </g>
    <g id="line2d_22">
     <path d="M 66.6 217.865937 
L 86.6 217.865937 
" style="fill:none;stroke:#ff0000;stroke-linecap:square;stroke-opacity:0.9;stroke-width:2;"/>
    </g>
    <g id="line2d_23"/>
    <g id="text_18">
     <!-- mattress -->
     <g transform="translate(94.6 221.365937)scale(0.1 -0.1)">
      <defs>
       <path d="M 3328 2828 
Q 3544 3216 3844 3400 
Q 4144 3584 4550 3584 
Q 5097 3584 5394 3201 
Q 5691 2819 5691 2113 
L 5691 0 
L 5113 0 
L 5113 2094 
Q 5113 2597 4934 2840 
Q 4756 3084 4391 3084 
Q 3944 3084 3684 2787 
Q 3425 2491 3425 1978 
L 3425 0 
L 2847 0 
L 2847 2094 
Q 2847 2600 2669 2842 
Q 2491 3084 2119 3084 
Q 1678 3084 1418 2786 
Q 1159 2488 1159 1978 
L 1159 0 
L 581 0 
L 581 3500 
L 1159 3500 
L 1159 2956 
Q 1356 3278 1631 3431 
Q 1906 3584 2284 3584 
Q 2666 3584 2933 3390 
Q 3200 3197 3328 2828 
z
" id="DejaVuSans-6d" transform="scale(0.015625)"/>
       <path d="M 2834 3397 
L 2834 2853 
Q 2591 2978 2328 3040 
Q 2066 3103 1784 3103 
Q 1356 3103 1142 2972 
Q 928 2841 928 2578 
Q 928 2378 1081 2264 
Q 1234 2150 1697 2047 
L 1894 2003 
Q 2506 1872 2764 1633 
Q 3022 1394 3022 966 
Q 3022 478 2636 193 
Q 2250 -91 1575 -91 
Q 1294 -91 989 -36 
Q 684 19 347 128 
L 347 722 
Q 666 556 975 473 
Q 1284 391 1588 391 
Q 1994 391 2212 530 
Q 2431 669 2431 922 
Q 2431 1156 2273 1281 
Q 2116 1406 1581 1522 
L 1381 1569 
Q 847 1681 609 1914 
Q 372 2147 372 2553 
Q 372 3047 722 3315 
Q 1072 3584 1716 3584 
Q 2034 3584 2315 3537 
Q 2597 3491 2834 3397 
z
" id="DejaVuSans-73" transform="scale(0.015625)"/>
      </defs>
      <use xlink:href="#DejaVuSans-6d"/>
      <use x="97.412109" xlink:href="#DejaVuSans-61"/>
      <use x="158.691406" xlink:href="#DejaVuSans-74"/>
      <use x="197.900391" xlink:href="#DejaVuSans-74"/>
      <use x="237.109375" xlink:href="#DejaVuSans-72"/>
      <use x="275.972656" xlink:href="#DejaVuSans-65"/>
      <use x="337.496094" xlink:href="#DejaVuSans-73"/>
      <use x="389.595703" xlink:href="#DejaVuSans-73"/>
     </g>
    </g>
    <g id="line2d_24">
     <path d="M 66.6 232.544062 
L 86.6 232.544062 
" style="fill:none;stroke:#ff8040;stroke-linecap:square;stroke-opacity:0.9;stroke-width:2;"/>
    </g>
    <g id="line2d_25"/>
    <g id="text_19">
     <!-- trader-0850 -->
     <g transform="translate(94.6 236.044062)scale(0.1 -0.1)">
      <use xlink:href="#DejaVuSans-74"/>
      <use x="39.208984" xlink:href="#DejaVuSans-72"/>
      <use x="80.322266" xlink:href="#DejaVuSans-61"/>
      <use x="141.601562" xlink:href="#DejaVuSans-64"/>
      <use x="205.078125" xlink:href="#DejaVuSans-65"/>
      <use x="266.601562" xlink:href="#DejaVuSans-72"/>
      <use x="301.339844" xlink:href="#DejaVuSans-2d"/>
      <use x="337.423828" xlink:href="#DejaVuSans-30"/>
      <use x="401.046875" xlink:href="#DejaVuSans-38"/>
      <use x="464.669922" xlink:href="#DejaVuSans-35"/>
      <use x="528.292969" xlink:href="#DejaVuSans-30"/>
     </g>
    </g>
    <g id="line2d_26">
     <path d="M 66.6 247.222187 
L 86.6 247.222187 
" style="fill:none;stroke:#0d0d0d;stroke-linecap:square;stroke-opacity:0.25;stroke-width:2;"/>
    </g>
    <g id="line2d_27"/>
    <g id="text_20">
     <!-- rando-min -->
     <g transform="translate(94.6 250.722187)scale(0.1 -0.1)">
      <defs>
       <path d="M 3513 2113 
L 3513 0 
L 2938 0 
L 2938 2094 
Q 2938 2591 2744 2837 
Q 2550 3084 2163 3084 
Q 1697 3084 1428 2787 
Q 1159 2491 1159 1978 
L 1159 0 
L 581 0 
L 581 3500 
L 1159 3500 
L 1159 2956 
Q 1366 3272 1645 3428 
Q 1925 3584 2291 3584 
Q 2894 3584 3203 3211 
Q 3513 2838 3513 2113 
z
" id="DejaVuSans-6e" transform="scale(0.015625)"/>
      </defs>
      <use xlink:href="#DejaVuSans-72"/>
      <use x="41.113281" xlink:href="#DejaVuSans-61"/>
      <use x="102.392578" xlink:href="#DejaVuSans-6e"/>
      <use x="165.771484" xlink:href="#DejaVuSans-64"/>
      <use x="229.248047" xlink:href="#DejaVuSans-6f"/>
      <use x="292.304688" xlink:href="#DejaVuSans-2d"/>
      <use x="328.388672" xlink:href="#DejaVuSans-6d"/>
      <use x="425.800781" xlink:href="#DejaVuSans-69"/>
      <use x="453.583984" xlink:href="#DejaVuSans-6e"/>
     </g>
    </g>
    <g id="line2d_28">
     <path d="M 66.6 261.900312 
L 86.6 261.900312 
" style="fill:none;stroke:#0d0d0d;stroke-linecap:square;stroke-opacity:0.25;stroke-width:2;"/>
    </g>
    <g id="line2d_29"/>
    <g id="text_21">
     <!-- rando-max -->
     <g transform="translate(94.6 265.400312)scale(0.1 -0.1)">
      <defs>
       <path d="M 3513 3500 
L 2247 1797 
L 3578 0 
L 2900 0 
L 1881 1375 
L 863 0 
L 184 0 
L 1544 1831 
L 300 3500 
L 978 3500 
L 1906 2253 
L 2834 3500 
L 3513 3500 
z
" id="DejaVuSans-78" transform="scale(0.015625)"/>
      </defs>
      <use xlink:href="#DejaVuSans-72"/>
      <use x="41.113281" xlink:href="#DejaVuSans-61"/>
      <use x="102.392578" xlink:href="#DejaVuSans-6e"/>
      <use x="165.771484" xlink:href="#DejaVuSans-64"/>
      <use x="229.248047" xlink:href="#DejaVuSans-6f"/>
      <use x="292.304688" xlink:href="#DejaVuSans-2d"/>
      <use x="328.388672" xlink:href="#DejaVuSans-6d"/>
      <use x="425.800781" xlink:href="#DejaVuSans-61"/>
      <use x="487.080078" xlink:href="#DejaVuSans-78"/>
     </g>
    </g>
   </g>
  </g>
 </g>
 <defs>
  <clipPath id="p7c13bdade5">
   <rect height="235.008" width="357.12" x="57.6" y="41.472"/>
  </clipPath>
 </defs>
</svg>
