<?xml version="1.0" encoding="utf-8" standalone="no"?>
<!DOCTYPE svg PUBLIC "-//W3C//DTD SVG 1.1//EN"
  "http://www.w3.org/Graphics/SVG/1.1/DTD/svg11.dtd">
<svg height="345.6pt" version="1.1" viewBox="0 0 460.8 345.6" width="460.8pt" xmlns="http://www.w3.org/2000/svg" xmlns:xlink="http://www.w3.org/1999/xlink">
 <metadata>
  <rdf:RDF xmlns:cc="http://creativecommons.org/ns#" xmlns:dc="http://purl.org/dc/elements/1.1/" xmlns:rdf="http://www.w3.org/1999/02/22-rdf-syntax-ns#">
   <cc:Work>
    <dc:type rdf:resource="http://purl.org/dc/dcmitype/StillImage"/>
    <dc:date>2022-04-30T10:01:43.670142</dc:date>
    <dc:format>image/svg+xml</dc:format>
    <dc:creator>
     <cc:Agent>
      <dc:title>Matplotlib v3.4.3, https://matplotlib.org/</dc:title>
     </cc:Agent>
    </dc:creator>
   </cc:Work>
  </rdf:RDF>
 </metadata>
 <defs>
  <style type="text/css">*{stroke-linecap:butt;stroke-linejoin:round;}</style>
 </defs>
 <g id="figure_1">
  <g id="patch_1">
   <path d="M 0 345.6 
L 460.8 345.6 
L 460.8 0 
L 0 0 
z
" style="fill:#ffffff;"/>
  </g>
  <g id="axes_1">
   <g id="patch_2">
    <path d="M 57.6 276.48 
L 414.72 276.48 
L 414.72 41.472 
L 57.6 41.472 
z
" style="fill:#ffffff;"/>
   </g>
   <g id="matplotlib.axis_1">
    <g id="xtick_1">
     <g id="line2d_1">
      <defs>
       <path d="M 0 0 
L 0 3.5 
" id="mab045c3d86" style="stroke:#000000;stroke-width:0.8;"/>
      </defs>
      <g>
       <use style="stroke:#000000;stroke-width:0.8;" x="99.885253" xlink:href="#mab045c3d86" y="276.48"/>
      </g>
     </g>
     <g id="text_1">
      <!-- 2021-12 -->
      <g transform="translate(62.660432 310.951846)rotate(-30)scale(0.1 -0.1)">
       <defs>
        <path d="M 1228 531 
L 3431 531 
L 3431 0 
L 469 0 
L 469 531 
Q 828 903 1448 1529 
Q 2069 2156 2228 2338 
Q 2531 2678 2651 2914 
Q 2772 3150 2772 3378 
Q 2772 3750 2511 3984 
Q 2250 4219 1831 4219 
Q 1534 4219 1204 4116 
Q 875 4013 500 3803 
L 500 4441 
Q 881 4594 1212 4672 
Q 1544 4750 1819 4750 
Q 2544 4750 2975 4387 
Q 3406 4025 3406 3419 
Q 3406 3131 3298 2873 
Q 3191 2616 2906 2266 
Q 2828 2175 2409 1742 
Q 1991 1309 1228 531 
z
" id="DejaVuSans-32" transform="scale(0.015625)"/>
        <path d="M 2034 4250 
Q 1547 4250 1301 3770 
Q 1056 3291 1056 2328 
Q 1056 1369 1301 889 
Q 1547 409 2034 409 
Q 2525 409 2770 889 
Q 3016 1369 3016 2328 
Q 3016 3291 2770 3770 
Q 2525 4250 2034 4250 
z
M 2034 4750 
Q 2819 4750 3233 4129 
Q 3647 3509 3647 2328 
Q 3647 1150 3233 529 
Q 2819 -91 2034 -91 
Q 1250 -91 836 529 
Q 422 1150 422 2328 
Q 422 3509 836 4129 
Q 1250 4750 2034 4750 
z
" id="DejaVuSans-30" transform="scale(0.015625)"/>
        <path d="M 794 531 
L 1825 531 
L 1825 4091 
L 703 3866 
L 703 4441 
L 1819 4666 
L 2450 4666 
L 2450 531 
L 3481 531 
L 3481 0 
L 794 0 
L 794 531 
z
" id="DejaVuSans-31" transform="scale(0.015625)"/>
        <path d="M 313 2009 
L 1997 2009 
L 1997 1497 
L 313 1497 
L 313 2009 
z
" id="DejaVuSans-2d" transform="scale(0.015625)"/>
       </defs>
       <use xlink:href="#DejaVuSans-32"/>
       <use x="63.623047" xlink:href="#DejaVuSans-30"/>
       <use x="127.246094" xlink:href="#DejaVuSans-32"/>
       <use x="190.869141" xlink:href="#DejaVuSans-31"/>
       <use x="254.492188" xlink:href="#DejaVuSans-2d"/>
       <use x="290.576172" xlink:href="#DejaVuSans-31"/>
       <use x="354.199219" xlink:href="#DejaVuSans-32"/>
      </g>
     </g>
    </g>
    <g id="xtick_2">
     <g id="line2d_2">
      <g>
       <use style="stroke:#000000;stroke-width:0.8;" x="162.010505" xlink:href="#mab045c3d86" y="276.48"/>
      </g>
     </g>
     <g id="text_2">
      <!-- 2022-01 -->
      <g transform="translate(124.785684 310.951846)rotate(-30)scale(0.1 -0.1)">
       <use xlink:href="#DejaVuSans-32"/>
       <use x="63.623047" xlink:href="#DejaVuSans-30"/>
       <use x="127.246094" xlink:href="#DejaVuSans-32"/>
       <use x="190.869141" xlink:href="#DejaVuSans-32"/>
       <use x="254.492188" xlink:href="#DejaVuSans-2d"/>
       <use x="290.576172" xlink:href="#DejaVuSans-30"/>
       <use x="354.199219" xlink:href="#DejaVuSans-31"/>
      </g>
     </g>
    </g>
    <g id="xtick_3">
     <g id="line2d_3">
      <g>
       <use style="stroke:#000000;stroke-width:0.8;" x="224.135758" xlink:href="#mab045c3d86" y="276.48"/>
      </g>
     </g>
     <g id="text_3">
      <!-- 2022-02 -->
      <g transform="translate(186.910937 310.951846)rotate(-30)scale(0.1 -0.1)">
       <use xlink:href="#DejaVuSans-32"/>
       <use x="63.623047" xlink:href="#DejaVuSans-30"/>
       <use x="127.246094" xlink:href="#DejaVuSans-32"/>
       <use x="190.869141" xlink:href="#DejaVuSans-32"/>
       <use x="254.492188" xlink:href="#DejaVuSans-2d"/>
       <use x="290.576172" xlink:href="#DejaVuSans-30"/>
       <use x="354.199219" xlink:href="#DejaVuSans-32"/>
      </g>
     </g>
    </g>
    <g id="xtick_4">
     <g id="line2d_4">
      <g>
       <use style="stroke:#000000;stroke-width:0.8;" x="280.248889" xlink:href="#mab045c3d86" y="276.48"/>
      </g>
     </g>
     <g id="text_4">
      <!-- 2022-03 -->
      <g transform="translate(243.024068 310.951846)rotate(-30)scale(0.1 -0.1)">
       <defs>
        <path d="M 2597 2516 
Q 3050 2419 3304 2112 
Q 3559 1806 3559 1356 
Q 3559 666 3084 287 
Q 2609 -91 1734 -91 
Q 1441 -91 1130 -33 
Q 819 25 488 141 
L 488 750 
Q 750 597 1062 519 
Q 1375 441 1716 441 
Q 2309 441 2620 675 
Q 2931 909 2931 1356 
Q 2931 1769 2642 2001 
Q 2353 2234 1838 2234 
L 1294 2234 
L 1294 2753 
L 1863 2753 
Q 2328 2753 2575 2939 
Q 2822 3125 2822 3475 
Q 2822 3834 2567 4026 
Q 2313 4219 1838 4219 
Q 1578 4219 1281 4162 
Q 984 4106 628 3988 
L 628 4550 
Q 988 4650 1302 4700 
Q 1616 4750 1894 4750 
Q 2613 4750 3031 4423 
Q 3450 4097 3450 3541 
Q 3450 3153 3228 2886 
Q 3006 2619 2597 2516 
z
" id="DejaVuSans-33" transform="scale(0.015625)"/>
       </defs>
       <use xlink:href="#DejaVuSans-32"/>
       <use x="63.623047" xlink:href="#DejaVuSans-30"/>
       <use x="127.246094" xlink:href="#DejaVuSans-32"/>
       <use x="190.869141" xlink:href="#DejaVuSans-32"/>
       <use x="254.492188" xlink:href="#DejaVuSans-2d"/>
       <use x="290.576172" xlink:href="#DejaVuSans-30"/>
       <use x="354.199219" xlink:href="#DejaVuSans-33"/>
      </g>
     </g>
    </g>
    <g id="xtick_5">
     <g id="line2d_5">
      <g>
       <use style="stroke:#000000;stroke-width:0.8;" x="342.374141" xlink:href="#mab045c3d86" y="276.48"/>
      </g>
     </g>
     <g id="text_5">
      <!-- 2022-04 -->
      <g transform="translate(305.149321 310.951846)rotate(-30)scale(0.1 -0.1)">
       <defs>
        <path d="M 2419 4116 
L 825 1625 
L 2419 1625 
L 2419 4116 
z
M 2253 4666 
L 3047 4666 
L 3047 1625 
L 3713 1625 
L 3713 1100 
L 3047 1100 
L 3047 0 
L 2419 0 
L 2419 1100 
L 313 1100 
L 313 1709 
L 2253 4666 
z
" id="DejaVuSans-34" transform="scale(0.015625)"/>
       </defs>
       <use xlink:href="#DejaVuSans-32"/>
       <use x="63.623047" xlink:href="#DejaVuSans-30"/>
       <use x="127.246094" xlink:href="#DejaVuSans-32"/>
       <use x="190.869141" xlink:href="#DejaVuSans-32"/>
       <use x="254.492188" xlink:href="#DejaVuSans-2d"/>
       <use x="290.576172" xlink:href="#DejaVuSans-30"/>
       <use x="354.199219" xlink:href="#DejaVuSans-34"/>
      </g>
     </g>
    </g>
    <g id="xtick_6">
     <g id="line2d_6">
      <g>
       <use style="stroke:#000000;stroke-width:0.8;" x="402.495354" xlink:href="#mab045c3d86" y="276.48"/>
      </g>
     </g>
     <g id="text_6">
      <!-- 2022-05 -->
      <g transform="translate(365.270533 310.951846)rotate(-30)scale(0.1 -0.1)">
       <defs>
        <path d="M 691 4666 
L 3169 4666 
L 3169 4134 
L 1269 4134 
L 1269 2991 
Q 1406 3038 1543 3061 
Q 1681 3084 1819 3084 
Q 2600 3084 3056 2656 
Q 3513 2228 3513 1497 
Q 3513 744 3044 326 
Q 2575 -91 1722 -91 
Q 1428 -91 1123 -41 
Q 819 9 494 109 
L 494 744 
Q 775 591 1075 516 
Q 1375 441 1709 441 
Q 2250 441 2565 725 
Q 2881 1009 2881 1497 
Q 2881 1984 2565 2268 
Q 2250 2553 1709 2553 
Q 1456 2553 1204 2497 
Q 953 2441 691 2322 
L 691 4666 
z
" id="DejaVuSans-35" transform="scale(0.015625)"/>
       </defs>
       <use xlink:href="#DejaVuSans-32"/>
       <use x="63.623047" xlink:href="#DejaVuSans-30"/>
       <use x="127.246094" xlink:href="#DejaVuSans-32"/>
       <use x="190.869141" xlink:href="#DejaVuSans-32"/>
       <use x="254.492188" xlink:href="#DejaVuSans-2d"/>
       <use x="290.576172" xlink:href="#DejaVuSans-30"/>
       <use x="354.199219" xlink:href="#DejaVuSans-35"/>
      </g>
     </g>
    </g>
    <g id="text_7">
     <!-- date -->
     <g transform="translate(224.885 324.351346)scale(0.1 -0.1)">
      <defs>
       <path d="M 2906 2969 
L 2906 4863 
L 3481 4863 
L 3481 0 
L 2906 0 
L 2906 525 
Q 2725 213 2448 61 
Q 2172 -91 1784 -91 
Q 1150 -91 751 415 
Q 353 922 353 1747 
Q 353 2572 751 3078 
Q 1150 3584 1784 3584 
Q 2172 3584 2448 3432 
Q 2725 3281 2906 2969 
z
M 947 1747 
Q 947 1113 1208 752 
Q 1469 391 1925 391 
Q 2381 391 2643 752 
Q 2906 1113 2906 1747 
Q 2906 2381 2643 2742 
Q 2381 3103 1925 3103 
Q 1469 3103 1208 2742 
Q 947 2381 947 1747 
z
" id="DejaVuSans-64" transform="scale(0.015625)"/>
       <path d="M 2194 1759 
Q 1497 1759 1228 1600 
Q 959 1441 959 1056 
Q 959 750 1161 570 
Q 1363 391 1709 391 
Q 2188 391 2477 730 
Q 2766 1069 2766 1631 
L 2766 1759 
L 2194 1759 
z
M 3341 1997 
L 3341 0 
L 2766 0 
L 2766 531 
Q 2569 213 2275 61 
Q 1981 -91 1556 -91 
Q 1019 -91 701 211 
Q 384 513 384 1019 
Q 384 1609 779 1909 
Q 1175 2209 1959 2209 
L 2766 2209 
L 2766 2266 
Q 2766 2663 2505 2880 
Q 2244 3097 1772 3097 
Q 1472 3097 1187 3025 
Q 903 2953 641 2809 
L 641 3341 
Q 956 3463 1253 3523 
Q 1550 3584 1831 3584 
Q 2591 3584 2966 3190 
Q 3341 2797 3341 1997 
z
" id="DejaVuSans-61" transform="scale(0.015625)"/>
       <path d="M 1172 4494 
L 1172 3500 
L 2356 3500 
L 2356 3053 
L 1172 3053 
L 1172 1153 
Q 1172 725 1289 603 
Q 1406 481 1766 481 
L 2356 481 
L 2356 0 
L 1766 0 
Q 1100 0 847 248 
Q 594 497 594 1153 
L 594 3053 
L 172 3053 
L 172 3500 
L 594 3500 
L 594 4494 
L 1172 4494 
z
" id="DejaVuSans-74" transform="scale(0.015625)"/>
       <path d="M 3597 1894 
L 3597 1613 
L 953 1613 
Q 991 1019 1311 708 
Q 1631 397 2203 397 
Q 2534 397 2845 478 
Q 3156 559 3463 722 
L 3463 178 
Q 3153 47 2828 -22 
Q 2503 -91 2169 -91 
Q 1331 -91 842 396 
Q 353 884 353 1716 
Q 353 2575 817 3079 
Q 1281 3584 2069 3584 
Q 2775 3584 3186 3129 
Q 3597 2675 3597 1894 
z
M 3022 2063 
Q 3016 2534 2758 2815 
Q 2500 3097 2075 3097 
Q 1594 3097 1305 2825 
Q 1016 2553 972 2059 
L 3022 2063 
z
" id="DejaVuSans-65" transform="scale(0.015625)"/>
      </defs>
      <use xlink:href="#DejaVuSans-64"/>
      <use x="63.476562" xlink:href="#DejaVuSans-61"/>
      <use x="124.755859" xlink:href="#DejaVuSans-74"/>
      <use x="163.964844" xlink:href="#DejaVuSans-65"/>
     </g>
    </g>
   </g>
   <g id="matplotlib.axis_2">
    <g id="ytick_1">
     <g id="line2d_7">
      <defs>
       <path d="M 0 0 
L -3.5 0 
" id="mb8a562e619" style="stroke:#000000;stroke-width:0.8;"/>
      </defs>
      <g>
       <use style="stroke:#000000;stroke-width:0.8;" x="57.6" xlink:href="#mb8a562e619" y="262.414818"/>
      </g>
     </g>
     <g id="text_8">
      <!-- 84000 -->
      <g transform="translate(18.7875 266.214036)scale(0.1 -0.1)">
       <defs>
        <path d="M 2034 2216 
Q 1584 2216 1326 1975 
Q 1069 1734 1069 1313 
Q 1069 891 1326 650 
Q 1584 409 2034 409 
Q 2484 409 2743 651 
Q 3003 894 3003 1313 
Q 3003 1734 2745 1975 
Q 2488 2216 2034 2216 
z
M 1403 2484 
Q 997 2584 770 2862 
Q 544 3141 544 3541 
Q 544 4100 942 4425 
Q 1341 4750 2034 4750 
Q 2731 4750 3128 4425 
Q 3525 4100 3525 3541 
Q 3525 3141 3298 2862 
Q 3072 2584 2669 2484 
Q 3125 2378 3379 2068 
Q 3634 1759 3634 1313 
Q 3634 634 3220 271 
Q 2806 -91 2034 -91 
Q 1263 -91 848 271 
Q 434 634 434 1313 
Q 434 1759 690 2068 
Q 947 2378 1403 2484 
z
M 1172 3481 
Q 1172 3119 1398 2916 
Q 1625 2713 2034 2713 
Q 2441 2713 2670 2916 
Q 2900 3119 2900 3481 
Q 2900 3844 2670 4047 
Q 2441 4250 2034 4250 
Q 1625 4250 1398 4047 
Q 1172 3844 1172 3481 
z
" id="DejaVuSans-38" transform="scale(0.015625)"/>
       </defs>
       <use xlink:href="#DejaVuSans-38"/>
       <use x="63.623047" xlink:href="#DejaVuSans-34"/>
       <use x="127.246094" xlink:href="#DejaVuSans-30"/>
       <use x="190.869141" xlink:href="#DejaVuSans-30"/>
       <use x="254.492188" xlink:href="#DejaVuSans-30"/>
      </g>
     </g>
    </g>
    <g id="ytick_2">
     <g id="line2d_8">
      <g>
       <use style="stroke:#000000;stroke-width:0.8;" x="57.6" xlink:href="#mb8a562e619" y="235.755604"/>
      </g>
     </g>
     <g id="text_9">
      <!-- 86000 -->
      <g transform="translate(18.7875 239.554822)scale(0.1 -0.1)">
       <defs>
        <path d="M 2113 2584 
Q 1688 2584 1439 2293 
Q 1191 2003 1191 1497 
Q 1191 994 1439 701 
Q 1688 409 2113 409 
Q 2538 409 2786 701 
Q 3034 994 3034 1497 
Q 3034 2003 2786 2293 
Q 2538 2584 2113 2584 
z
M 3366 4563 
L 3366 3988 
Q 3128 4100 2886 4159 
Q 2644 4219 2406 4219 
Q 1781 4219 1451 3797 
Q 1122 3375 1075 2522 
Q 1259 2794 1537 2939 
Q 1816 3084 2150 3084 
Q 2853 3084 3261 2657 
Q 3669 2231 3669 1497 
Q 3669 778 3244 343 
Q 2819 -91 2113 -91 
Q 1303 -91 875 529 
Q 447 1150 447 2328 
Q 447 3434 972 4092 
Q 1497 4750 2381 4750 
Q 2619 4750 2861 4703 
Q 3103 4656 3366 4563 
z
" id="DejaVuSans-36" transform="scale(0.015625)"/>
       </defs>
       <use xlink:href="#DejaVuSans-38"/>
       <use x="63.623047" xlink:href="#DejaVuSans-36"/>
       <use x="127.246094" xlink:href="#DejaVuSans-30"/>
       <use x="190.869141" xlink:href="#DejaVuSans-30"/>
       <use x="254.492188" xlink:href="#DejaVuSans-30"/>
      </g>
     </g>
    </g>
    <g id="ytick_3">
     <g id="line2d_9">
      <g>
       <use style="stroke:#000000;stroke-width:0.8;" x="57.6" xlink:href="#mb8a562e619" y="209.096389"/>
      </g>
     </g>
     <g id="text_10">
      <!-- 88000 -->
      <g transform="translate(18.7875 212.895608)scale(0.1 -0.1)">
       <use xlink:href="#DejaVuSans-38"/>
       <use x="63.623047" xlink:href="#DejaVuSans-38"/>
       <use x="127.246094" xlink:href="#DejaVuSans-30"/>
       <use x="190.869141" xlink:href="#DejaVuSans-30"/>
       <use x="254.492188" xlink:href="#DejaVuSans-30"/>
      </g>
     </g>
    </g>
    <g id="ytick_4">
     <g id="line2d_10">
      <g>
       <use style="stroke:#000000;stroke-width:0.8;" x="57.6" xlink:href="#mb8a562e619" y="182.437175"/>
      </g>
     </g>
     <g id="text_11">
      <!-- 90000 -->
      <g transform="translate(18.7875 186.236394)scale(0.1 -0.1)">
       <defs>
        <path d="M 703 97 
L 703 672 
Q 941 559 1184 500 
Q 1428 441 1663 441 
Q 2288 441 2617 861 
Q 2947 1281 2994 2138 
Q 2813 1869 2534 1725 
Q 2256 1581 1919 1581 
Q 1219 1581 811 2004 
Q 403 2428 403 3163 
Q 403 3881 828 4315 
Q 1253 4750 1959 4750 
Q 2769 4750 3195 4129 
Q 3622 3509 3622 2328 
Q 3622 1225 3098 567 
Q 2575 -91 1691 -91 
Q 1453 -91 1209 -44 
Q 966 3 703 97 
z
M 1959 2075 
Q 2384 2075 2632 2365 
Q 2881 2656 2881 3163 
Q 2881 3666 2632 3958 
Q 2384 4250 1959 4250 
Q 1534 4250 1286 3958 
Q 1038 3666 1038 3163 
Q 1038 2656 1286 2365 
Q 1534 2075 1959 2075 
z
" id="DejaVuSans-39" transform="scale(0.015625)"/>
       </defs>
       <use xlink:href="#DejaVuSans-39"/>
       <use x="63.623047" xlink:href="#DejaVuSans-30"/>
       <use x="127.246094" xlink:href="#DejaVuSans-30"/>
       <use x="190.869141" xlink:href="#DejaVuSans-30"/>
       <use x="254.492188" xlink:href="#DejaVuSans-30"/>
      </g>
     </g>
    </g>
    <g id="ytick_5">
     <g id="line2d_11">
      <g>
       <use style="stroke:#000000;stroke-width:0.8;" x="57.6" xlink:href="#mb8a562e619" y="155.777961"/>
      </g>
     </g>
     <g id="text_12">
      <!-- 92000 -->
      <g transform="translate(18.7875 159.57718)scale(0.1 -0.1)">
       <use xlink:href="#DejaVuSans-39"/>
       <use x="63.623047" xlink:href="#DejaVuSans-32"/>
       <use x="127.246094" xlink:href="#DejaVuSans-30"/>
       <use x="190.869141" xlink:href="#DejaVuSans-30"/>
       <use x="254.492188" xlink:href="#DejaVuSans-30"/>
      </g>
     </g>
    </g>
    <g id="ytick_6">
     <g id="line2d_12">
      <g>
       <use style="stroke:#000000;stroke-width:0.8;" x="57.6" xlink:href="#mb8a562e619" y="129.118747"/>
      </g>
     </g>
     <g id="text_13">
      <!-- 94000 -->
      <g transform="translate(18.7875 132.917966)scale(0.1 -0.1)">
       <use xlink:href="#DejaVuSans-39"/>
       <use x="63.623047" xlink:href="#DejaVuSans-34"/>
       <use x="127.246094" xlink:href="#DejaVuSans-30"/>
       <use x="190.869141" xlink:href="#DejaVuSans-30"/>
       <use x="254.492188" xlink:href="#DejaVuSans-30"/>
      </g>
     </g>
    </g>
    <g id="ytick_7">
     <g id="line2d_13">
      <g>
       <use style="stroke:#000000;stroke-width:0.8;" x="57.6" xlink:href="#mb8a562e619" y="102.459533"/>
      </g>
     </g>
     <g id="text_14">
      <!-- 96000 -->
      <g transform="translate(18.7875 106.258752)scale(0.1 -0.1)">
       <use xlink:href="#DejaVuSans-39"/>
       <use x="63.623047" xlink:href="#DejaVuSans-36"/>
       <use x="127.246094" xlink:href="#DejaVuSans-30"/>
       <use x="190.869141" xlink:href="#DejaVuSans-30"/>
       <use x="254.492188" xlink:href="#DejaVuSans-30"/>
      </g>
     </g>
    </g>
    <g id="ytick_8">
     <g id="line2d_14">
      <g>
       <use style="stroke:#000000;stroke-width:0.8;" x="57.6" xlink:href="#mb8a562e619" y="75.800319"/>
      </g>
     </g>
     <g id="text_15">
      <!-- 98000 -->
      <g transform="translate(18.7875 79.599537)scale(0.1 -0.1)">
       <use xlink:href="#DejaVuSans-39"/>
       <use x="63.623047" xlink:href="#DejaVuSans-38"/>
       <use x="127.246094" xlink:href="#DejaVuSans-30"/>
       <use x="190.869141" xlink:href="#DejaVuSans-30"/>
       <use x="254.492188" xlink:href="#DejaVuSans-30"/>
      </g>
     </g>
    </g>
    <g id="ytick_9">
     <g id="line2d_15">
      <g>
       <use style="stroke:#000000;stroke-width:0.8;" x="57.6" xlink:href="#mb8a562e619" y="49.141105"/>
      </g>
     </g>
     <g id="text_16">
      <!-- 100000 -->
      <g transform="translate(12.425 52.940323)scale(0.1 -0.1)">
       <use xlink:href="#DejaVuSans-31"/>
       <use x="63.623047" xlink:href="#DejaVuSans-30"/>
       <use x="127.246094" xlink:href="#DejaVuSans-30"/>
       <use x="190.869141" xlink:href="#DejaVuSans-30"/>
       <use x="254.492188" xlink:href="#DejaVuSans-30"/>
       <use x="318.115234" xlink:href="#DejaVuSans-30"/>
      </g>
     </g>
    </g>
   </g>
   <g id="line2d_16">
    <path clip-path="url(#pa3b624a604)" d="M 73.832727 52.154182 
L 75.836768 59.096463 
L 81.848889 68.505685 
L 83.852929 68.708792 
L 85.85697 69.102792 
L 89.865051 68.876636 
L 95.877172 94.441881 
L 97.881212 111.948294 
L 99.885253 125.418502 
L 101.889293 104.896868 
L 103.893333 119.963307 
L 109.905455 106.104162 
L 111.909495 79.948962 
L 113.913535 74.789364 
L 115.917576 87.434372 
L 117.921616 83.274437 
L 123.933737 97.875484 
L 125.937778 105.969954 
L 127.941818 93.264384 
L 129.945859 100.092372 
L 131.949899 108.213745 
L 137.96202 131.063791 
L 139.966061 109.038273 
L 141.970101 97.817617 
L 143.974141 88.73496 
L 151.990303 79.255438 
L 153.994343 82.545516 
L 155.998384 82.652243 
L 158.002424 81.483149 
L 160.006465 83.572891 
L 166.018586 75.98653 
L 168.022626 78.057041 
L 170.026667 101.939873 
L 172.030707 101.204958 
L 174.034747 101.984002 
L 180.046869 105.933415 
L 182.050909 90.564408 
L 184.054949 82.002986 
L 186.05899 98.033126 
L 188.06303 98.119195 
L 196.079192 122.025543 
L 198.083232 128.241704 
L 200.087273 135.736308 
L 202.091313 157.720219 
L 208.103434 160.126352 
L 210.107475 171.208718 
L 212.111515 179.248906 
L 214.115556 190.20674 
L 216.119596 173.650649 
L 222.131717 143.988285 
L 224.135758 134.426416 
L 226.139798 129.610848 
L 228.143838 153.199463 
L 230.147879 147.196768 
L 236.16 146.275213 
L 238.16404 136.523476 
L 240.168081 115.084643 
L 242.172121 131.286443 
L 244.176162 152.092079 
L 250.188283 158.905562 
L 252.192323 133.755042 
L 254.196364 130.428307 
L 256.200404 155.240466 
L 258.204444 164.809243 
L 266.220606 179.052292 
L 268.224646 197.077062 
L 270.228687 193.833144 
L 272.232727 167.329516 
L 278.244848 174.268835 
L 280.248889 194.96274 
L 282.252929 177.583274 
L 284.25697 193.04739 
L 286.26101 214.612379 
L 292.273131 251.854303 
L 294.277172 250.861187 
L 296.281212 215.40967 
L 298.285253 225.488234 
L 300.289293 242.578421 
L 306.301414 253.870554 
L 308.305455 239.148476 
L 310.309495 194.47958 
L 312.313535 183.017743 
L 314.317576 169.154424 
L 320.329697 176.72085 
L 322.333737 162.168595 
L 324.337778 177.55888 
L 326.341818 164.871771 
L 328.345859 165.335806 
L 334.35798 161.566934 
L 336.36202 139.899261 
L 338.366061 147.729151 
L 340.370101 166.521825 
L 342.374141 155.034423 
L 348.386263 144.292355 
L 350.390303 164.658553 
L 352.394343 179.007275 
L 354.398384 179.328865 
L 356.402424 182.055993 
L 362.414545 197.247008 
L 364.418586 200.867452 
L 366.422626 184.654817 
L 368.426667 196.84519 
L 376.442828 201.049356 
L 378.446869 189.690505 
L 380.450909 189.9436 
L 382.454949 209.764373 
L 384.45899 233.360806 
L 390.471111 233.663603 
L 392.475152 265.400462 
L 394.479192 260.093196 
L 396.483232 238.826655 
L 398.487273 261.526583 
" style="fill:none;stroke:#0000ff;stroke-linecap:square;stroke-opacity:0.9;stroke-width:2;"/>
   </g>
   <g id="line2d_17">
    <path clip-path="url(#pa3b624a604)" d="M 73.832727 52.154182 
L 75.836768 58.572616 
L 81.848889 67.499156 
L 83.852929 69.429812 
L 85.85697 68.59478 
L 89.865051 102.781638 
L 95.877172 94.857263 
L 97.881212 111.747999 
L 99.885253 125.883492 
L 101.889293 104.930707 
L 103.893333 119.699404 
L 109.905455 106.444519 
L 111.909495 80.342985 
L 113.913535 75.161528 
L 115.917576 88.099077 
L 117.921616 83.957987 
L 123.933737 98.079608 
L 125.937778 106.072757 
L 127.941818 92.415113 
L 129.945859 100.450839 
L 131.949899 108.486192 
L 137.96202 130.189875 
L 139.966061 108.747039 
L 141.970101 97.944409 
L 143.974141 88.447218 
L 151.990303 78.603735 
L 153.994343 82.845607 
L 155.998384 82.979663 
L 158.002424 80.744844 
L 160.006465 84.309425 
L 166.018586 75.342756 
L 168.022626 78.428423 
L 170.026667 101.068892 
L 172.030707 102.060054 
L 174.034747 101.822773 
L 180.046869 107.122896 
L 182.050909 90.07091 
L 184.054949 81.409715 
L 186.05899 97.491034 
L 188.06303 98.45065 
L 196.079192 121.774508 
L 198.083232 126.623618 
L 200.087273 135.09022 
L 202.091313 157.589644 
L 208.103434 159.278593 
L 210.107475 171.143037 
L 212.111515 178.442152 
L 214.115556 188.324386 
L 216.119596 172.645439 
L 222.131717 143.750816 
L 224.135758 133.524694 
L 226.139798 128.830673 
L 228.143838 151.716939 
L 230.147879 146.320712 
L 236.16 145.516285 
L 238.16404 136.260496 
L 240.168081 115.110189 
L 242.172121 130.40066 
L 244.176162 151.19977 
L 250.188283 157.989606 
L 252.192323 133.851466 
L 254.196364 130.408519 
L 256.200404 153.773339 
L 258.204444 163.10082 
L 266.220606 178.782788 
L 268.224646 196.360889 
L 270.228687 193.595318 
L 272.232727 166.86695 
L 278.244848 174.235606 
L 280.248889 195.324797 
L 282.252929 178.100113 
L 284.25697 193.314394 
L 286.26101 214.640331 
L 292.273131 251.746112 
L 294.277172 250.413379 
L 296.281212 216.194802 
L 298.285253 226.055958 
L 300.289293 242.944679 
L 306.301414 253.427458 
L 308.305455 239.054278 
L 310.309495 194.142973 
L 312.313535 184.836955 
L 314.317576 169.884942 
L 320.329697 176.814337 
L 322.333737 162.330635 
L 324.337778 178.174477 
L 326.341818 166.514255 
L 328.345859 166.201776 
L 334.35798 162.939077 
L 336.36202 139.772963 
L 338.366061 148.347629 
L 340.370101 167.251264 
L 342.374141 156.66753 
L 348.386263 144.79083 
L 350.390303 164.219838 
L 352.394343 179.654302 
L 354.398384 179.58802 
L 356.402424 182.145562 
L 362.414545 196.600539 
L 364.418586 201.962946 
L 366.422626 185.855779 
L 368.426667 197.601444 
L 376.442828 202.888026 
L 378.446869 191.237524 
L 380.450909 190.721232 
L 382.454949 210.471762 
L 384.45899 234.332976 
L 390.471111 234.843816 
L 392.475152 265.797818 
L 394.479192 260.560135 
L 396.483232 239.606863 
L 398.487273 263.490694 
" style="fill:none;stroke:#ff0000;stroke-linecap:square;stroke-opacity:0.9;stroke-width:2;"/>
   </g>
   <g id="line2d_18">
    <path clip-path="url(#pa3b624a604)" d="M 73.832727 52.154182 
L 75.836768 57.810446 
L 81.848889 67.724426 
L 83.852929 68.921612 
L 85.85697 68.368416 
L 89.865051 102.079256 
L 95.877172 95.091653 
L 97.881212 111.148303 
L 99.885253 125.275828 
L 101.889293 105.068764 
L 103.893333 120.215402 
L 109.905455 106.312757 
L 111.909495 80.267871 
L 113.913535 74.316958 
L 115.917576 86.980473 
L 117.921616 83.721746 
L 123.933737 98.471255 
L 125.937778 106.473995 
L 127.941818 92.704227 
L 129.945859 100.555323 
L 131.949899 108.30782 
L 137.96202 130.447899 
L 139.966061 107.701258 
L 141.970101 96.721098 
L 143.974141 89.147936 
L 151.990303 78.962088 
L 153.994343 82.446756 
L 155.998384 83.416939 
L 158.002424 80.996632 
L 160.006465 83.628189 
L 166.018586 76.025066 
L 168.022626 77.357045 
L 170.026667 102.0589 
L 172.030707 101.78636 
L 174.034747 102.117444 
L 180.046869 106.906867 
L 182.050909 90.253426 
L 184.054949 81.330941 
L 186.05899 98.456295 
L 188.06303 98.72581 
L 196.079192 122.3942 
L 198.083232 127.818084 
L 200.087273 136.376241 
L 202.091313 158.882513 
L 208.103434 160.227951 
L 210.107475 170.831428 
L 212.111515 180.049057 
L 214.115556 189.976039 
L 216.119596 173.067013 
L 222.131717 144.811795 
L 224.135758 134.289584 
L 226.139798 130.138863 
L 228.143838 152.789041 
L 230.147879 146.104577 
L 236.16 147.115901 
L 238.16404 136.625948 
L 240.168081 114.406826 
L 242.172121 130.755064 
L 244.176162 152.655853 
L 250.188283 159.022446 
L 252.192323 133.60294 
L 254.196364 130.794099 
L 256.200404 154.192101 
L 258.204444 163.790171 
L 266.220606 179.015486 
L 268.224646 196.503501 
L 270.228687 193.664323 
L 272.232727 166.666245 
L 278.244848 173.842454 
L 280.248889 194.162144 
L 282.252929 177.796755 
L 284.25697 194.333413 
L 286.26101 214.644426 
L 292.273131 251.69111 
L 294.277172 250.864735 
L 296.281212 215.17628 
L 298.285253 225.173086 
L 300.289293 242.672488 
L 306.301414 253.842169 
L 308.305455 239.78702 
L 310.309495 193.727679 
L 312.313535 183.82732 
L 314.317576 169.259025 
L 320.329697 177.398045 
L 322.333737 161.392746 
L 324.337778 178.027214 
L 326.341818 165.26837 
L 328.345859 166.200624 
L 334.35798 162.717254 
L 336.36202 140.345526 
L 338.366061 147.923453 
L 340.370101 166.507578 
L 342.374141 156.040918 
L 348.386263 144.338042 
L 350.390303 164.506776 
L 352.394343 179.993385 
L 354.398384 180.220891 
L 356.402424 181.316834 
L 362.414545 196.967226 
L 364.418586 200.69632 
L 366.422626 184.905465 
L 368.426667 197.001487 
L 376.442828 201.741749 
L 378.446869 190.142628 
L 380.450909 190.222245 
L 382.454949 209.87769 
L 384.45899 233.442316 
L 390.471111 234.591741 
L 392.475152 265.571575 
L 394.479192 259.811695 
L 396.483232 239.708079 
L 398.487273 263.384992 
" style="fill:none;stroke:#008000;stroke-linecap:square;stroke-opacity:0.9;stroke-width:2;"/>
   </g>
   <g id="line2d_19">
    <path clip-path="url(#pa3b624a604)" d="M 73.832727 52.154182 
L 75.836768 58.039208 
L 81.848889 68.314446 
L 83.852929 68.503253 
L 85.85697 68.619632 
L 89.865051 101.744428 
L 95.877172 94.769915 
L 97.881212 111.494459 
L 99.885253 124.879031 
L 101.889293 105.938737 
L 103.893333 120.140178 
L 109.905455 107.219475 
L 111.909495 80.66227 
L 113.913535 75.007234 
L 115.917576 88.120976 
L 117.921616 84.049971 
L 123.933737 98.398506 
L 125.937778 105.961185 
L 127.941818 92.474522 
L 129.945859 100.448386 
L 131.949899 108.302052 
L 137.96202 130.836707 
L 139.966061 108.217446 
L 141.970101 97.67744 
L 143.974141 89.252845 
L 151.990303 78.652466 
L 153.994343 82.917645 
L 155.998384 82.414878 
L 158.002424 81.740666 
L 160.006465 84.566008 
L 166.018586 75.978496 
L 168.022626 77.931646 
L 170.026667 101.280061 
L 172.030707 101.376026 
L 174.034747 101.886599 
L 180.046869 106.257567 
L 182.050909 90.374177 
L 184.054949 82.078038 
L 186.05899 97.638786 
L 188.06303 98.489284 
L 196.079192 122.537423 
L 198.083232 127.951684 
L 200.087273 135.849006 
L 202.091313 158.5865 
L 208.103434 159.36573 
L 210.107475 172.076584 
L 212.111515 179.151569 
L 214.115556 190.603686 
L 216.119596 173.917976 
L 222.131717 144.010271 
L 224.135758 133.746589 
L 226.139798 129.490558 
L 228.143838 152.459098 
L 230.147879 146.675578 
L 236.16 146.763809 
L 238.16404 135.75019 
L 240.168081 114.345528 
L 242.172121 130.443234 
L 244.176162 152.386502 
L 250.188283 157.831382 
L 252.192323 134.502141 
L 254.196364 130.939199 
L 256.200404 154.7664 
L 258.204444 164.152158 
L 266.220606 180.059917 
L 268.224646 196.526452 
L 270.228687 193.096275 
L 272.232727 166.65568 
L 278.244848 173.976592 
L 280.248889 193.649655 
L 282.252929 177.856794 
L 284.25697 193.327436 
L 286.26101 213.993244 
L 292.273131 252.530713 
L 294.277172 249.976125 
L 296.281212 215.228176 
L 298.285253 226.182027 
L 300.289293 243.175238 
L 306.301414 253.89299 
L 308.305455 239.21121 
L 310.309495 194.119753 
L 312.313535 184.087628 
L 314.317576 168.543239 
L 320.329697 176.181654 
L 322.333737 161.921155 
L 324.337778 176.711621 
L 326.341818 165.551081 
L 328.345859 165.012992 
L 334.35798 161.349849 
L 336.36202 139.976513 
L 338.366061 147.873594 
L 340.370101 166.469206 
L 342.374141 155.990799 
L 348.386263 144.445681 
L 350.390303 163.978985 
L 352.394343 179.00162 
L 354.398384 180.100806 
L 356.402424 181.177598 
L 362.414545 196.302662 
L 364.418586 200.476796 
L 366.422626 185.554836 
L 368.426667 196.818331 
L 376.442828 201.949681 
L 378.446869 189.827529 
L 380.450909 189.748806 
L 382.454949 209.393617 
L 384.45899 234.13699 
L 390.471111 233.617834 
L 392.475152 265.717443 
L 394.479192 260.022459 
L 396.483232 238.651667 
L 398.487273 262.842087 
" style="fill:none;stroke:#ec5283;stroke-linecap:square;stroke-width:2;"/>
   </g>
   <g id="line2d_20">
    <path clip-path="url(#pa3b624a604)" d="M 73.832727 52.154182 
L 75.836768 57.813651 
L 81.848889 67.513532 
L 83.852929 68.576861 
L 85.85697 68.59424 
L 89.865051 102.022411 
L 95.877172 94.41549 
L 97.881212 112.211078 
L 99.885253 125.845378 
L 101.889293 105.053965 
L 103.893333 120.18576 
L 109.905455 106.419501 
L 111.909495 80.361256 
L 113.913535 74.586018 
L 115.917576 87.765423 
L 117.921616 84.017944 
L 123.933737 98.551318 
L 125.937778 105.636638 
L 127.941818 92.266291 
L 129.945859 100.869012 
L 131.949899 108.530126 
L 137.96202 130.108438 
L 139.966061 108.569123 
L 141.970101 96.609271 
L 143.974141 89.335038 
L 151.990303 78.577774 
L 153.994343 82.271427 
L 155.998384 83.176375 
L 158.002424 80.924138 
L 160.006465 84.295484 
L 166.018586 75.818653 
L 168.022626 77.664854 
L 170.026667 102.053671 
L 172.030707 102.150268 
L 174.034747 101.824316 
L 180.046869 106.370426 
L 182.050909 90.454831 
L 184.054949 81.4646 
L 186.05899 98.350178 
L 188.06303 97.91648 
L 196.079192 121.777309 
L 198.083232 127.3572 
L 200.087273 136.377632 
L 202.091313 157.761717 
L 208.103434 158.918879 
L 210.107475 170.812935 
L 212.111515 179.217881 
L 214.115556 189.612301 
L 216.119596 172.941508 
L 222.131717 144.526601 
L 224.135758 133.366173 
L 226.139798 129.972693 
L 228.143838 153.493637 
L 230.147879 146.144673 
L 236.16 146.132715 
L 238.16404 135.757434 
L 240.168081 114.940352 
L 242.172121 131.395735 
L 244.176162 151.383935 
L 250.188283 157.781509 
L 252.192323 134.021213 
L 254.196364 130.000743 
L 256.200404 154.449963 
L 258.204444 164.015867 
L 266.220606 178.710978 
L 268.224646 197.052533 
L 270.228687 193.593872 
L 272.232727 167.473343 
L 278.244848 174.895318 
L 280.248889 193.744041 
L 282.252929 177.797904 
L 284.25697 192.982325 
L 286.26101 213.903763 
L 292.273131 251.578652 
L 294.277172 250.928894 
L 296.281212 215.442396 
L 298.285253 225.21384 
L 300.289293 242.323516 
L 306.301414 253.688716 
L 308.305455 239.780282 
L 310.309495 194.266571 
L 312.313535 183.624053 
L 314.317576 168.754507 
L 320.329697 176.372839 
L 322.333737 161.512393 
L 324.337778 176.654575 
L 326.341818 165.750798 
L 328.345859 165.611256 
L 334.35798 162.325117 
L 336.36202 139.598361 
L 338.366061 148.313193 
L 340.370101 166.445462 
L 342.374141 155.830948 
L 348.386263 145.051319 
L 350.390303 164.468778 
L 352.394343 179.261992 
L 354.398384 180.095184 
L 356.402424 182.04611 
L 362.414545 196.774764 
L 364.418586 200.597456 
L 366.422626 184.685058 
L 368.426667 197.089878 
L 376.442828 202.055198 
L 378.446869 190.328333 
L 380.450909 189.795859 
L 382.454949 210.16266 
L 384.45899 233.604601 
L 390.471111 233.555407 
L 392.475152 265.480288 
L 394.479192 259.5335 
L 396.483232 239.144217 
L 398.487273 262.231113 
" style="fill:none;stroke:#00ff00;stroke-linecap:square;stroke-opacity:0.9;stroke-width:2;"/>
   </g>
   <g id="line2d_21">
    <path clip-path="url(#pa3b624a604)" d="M 73.832727 52.154182 
L 75.836768 59.047595 
L 81.848889 71.002319 
L 83.852929 72.087488 
L 85.85697 73.778988 
L 89.865051 108.611964 
L 95.877172 104.720563 
L 97.881212 116.795377 
L 99.885253 129.475597 
L 101.889293 108.272464 
L 103.893333 123.490296 
L 109.905455 111.436144 
L 111.909495 84.864317 
L 113.913535 78.250373 
L 115.917576 92.210409 
L 117.921616 90.997726 
L 123.933737 107.450701 
L 125.937778 113.895359 
L 127.941818 103.15675 
L 129.945859 109.261286 
L 131.949899 115.943593 
L 137.96202 129.169329 
L 139.966061 105.02682 
L 141.970101 95.552027 
L 143.974141 86.950495 
L 151.990303 78.092545 
L 153.994343 81.220562 
L 155.998384 82.871387 
L 158.002424 78.75022 
L 160.006465 81.562024 
L 166.018586 72.819987 
L 168.022626 75.752032 
L 170.026667 99.576581 
L 172.030707 98.010064 
L 174.034747 97.346233 
L 180.046869 101.880018 
L 182.050909 83.030288 
L 184.054949 76.125998 
L 186.05899 94.240225 
L 188.06303 93.903253 
L 196.079192 120.466378 
L 198.083232 131.336756 
L 200.087273 145.40869 
L 202.091313 170.830035 
L 208.103434 162.935237 
L 210.107475 179.346282 
L 212.111515 186.04747 
L 214.115556 196.724111 
L 216.119596 171.548478 
L 222.131717 141.421483 
L 224.135758 131.504427 
L 226.139798 127.2122 
L 228.143838 154.056638 
L 230.147879 145.943716 
L 236.16 146.353656 
L 238.16404 134.12496 
L 240.168081 111.482677 
L 242.172121 131.270331 
L 244.176162 152.922532 
L 250.188283 159.291935 
L 252.192323 134.509078 
L 254.196364 132.569453 
L 256.200404 159.397637 
L 258.204444 169.663109 
L 266.220606 185.072387 
L 268.224646 204.640141 
L 270.228687 189.492548 
L 272.232727 162.151484 
L 278.244848 165.657849 
L 280.248889 185.296799 
L 282.252929 167.932882 
L 284.25697 184.250017 
L 286.26101 206.387371 
L 292.273131 245.534734 
L 294.277172 239.808888 
L 296.281212 202.67894 
L 298.285253 214.766404 
L 300.289293 232.664928 
L 306.301414 244.077355 
L 308.305455 234.228011 
L 310.309495 177.948174 
L 312.313535 170.868136 
L 314.317576 154.64248 
L 320.329697 164.339104 
L 322.333737 149.553 
L 324.337778 162.915077 
L 326.341818 151.971191 
L 328.345859 155.161973 
L 334.35798 153.024031 
L 336.36202 128.650498 
L 338.366061 136.525395 
L 340.370101 155.909469 
L 342.374141 141.114236 
L 348.386263 128.718989 
L 350.390303 149.43649 
L 352.394343 165.05573 
L 354.398384 168.124003 
L 356.402424 169.419795 
L 362.414545 183.457257 
L 364.418586 188.37838 
L 366.422626 170.943099 
L 368.426667 182.214322 
L 376.442828 188.261668 
L 378.446869 179.703365 
L 380.450909 180.340855 
L 382.454949 200.412819 
L 384.45899 220.155473 
L 390.471111 223.184582 
L 392.475152 253.999276 
L 394.479192 247.422912 
L 396.483232 228.213319 
L 398.487273 244.471332 
" style="fill:none;stroke:#a5b9cf;stroke-linecap:square;stroke-width:2;"/>
   </g>
   <g id="patch_3">
    <path d="M 57.6 276.48 
L 57.6 41.472 
" style="fill:none;stroke:#000000;stroke-linecap:square;stroke-linejoin:miter;stroke-width:0.8;"/>
   </g>
   <g id="patch_4">
    <path d="M 414.72 276.48 
L 414.72 41.472 
" style="fill:none;stroke:#000000;stroke-linecap:square;stroke-linejoin:miter;stroke-width:0.8;"/>
   </g>
   <g id="patch_5">
    <path d="M 57.6 276.48 
L 414.72 276.48 
" style="fill:none;stroke:#000000;stroke-linecap:square;stroke-linejoin:miter;stroke-width:0.8;"/>
   </g>
   <g id="patch_6">
    <path d="M 57.6 41.472 
L 414.72 41.472 
" style="fill:none;stroke:#000000;stroke-linecap:square;stroke-linejoin:miter;stroke-width:0.8;"/>
   </g>
   <g id="text_17">
    <!-- VFUNDS -->
    <g transform="translate(211.295625 22.034625)scale(0.12 -0.12)">
     <defs>
      <path d="M 1831 0 
L 50 4666 
L 709 4666 
L 2188 738 
L 3669 4666 
L 4325 4666 
L 2547 0 
L 1831 0 
z
" id="DejaVuSans-56" transform="scale(0.015625)"/>
      <path d="M 628 4666 
L 3309 4666 
L 3309 4134 
L 1259 4134 
L 1259 2759 
L 3109 2759 
L 3109 2228 
L 1259 2228 
L 1259 0 
L 628 0 
L 628 4666 
z
" id="DejaVuSans-46" transform="scale(0.015625)"/>
      <path d="M 556 4666 
L 1191 4666 
L 1191 1831 
Q 1191 1081 1462 751 
Q 1734 422 2344 422 
Q 2950 422 3222 751 
Q 3494 1081 3494 1831 
L 3494 4666 
L 4128 4666 
L 4128 1753 
Q 4128 841 3676 375 
Q 3225 -91 2344 -91 
Q 1459 -91 1007 375 
Q 556 841 556 1753 
L 556 4666 
z
" id="DejaVuSans-55" transform="scale(0.015625)"/>
      <path d="M 628 4666 
L 1478 4666 
L 3547 763 
L 3547 4666 
L 4159 4666 
L 4159 0 
L 3309 0 
L 1241 3903 
L 1241 0 
L 628 0 
L 628 4666 
z
" id="DejaVuSans-4e" transform="scale(0.015625)"/>
      <path d="M 1259 4147 
L 1259 519 
L 2022 519 
Q 2988 519 3436 956 
Q 3884 1394 3884 2338 
Q 3884 3275 3436 3711 
Q 2988 4147 2022 4147 
L 1259 4147 
z
M 628 4666 
L 1925 4666 
Q 3281 4666 3915 4102 
Q 4550 3538 4550 2338 
Q 4550 1131 3912 565 
Q 3275 0 1925 0 
L 628 0 
L 628 4666 
z
" id="DejaVuSans-44" transform="scale(0.015625)"/>
      <path d="M 3425 4513 
L 3425 3897 
Q 3066 4069 2747 4153 
Q 2428 4238 2131 4238 
Q 1616 4238 1336 4038 
Q 1056 3838 1056 3469 
Q 1056 3159 1242 3001 
Q 1428 2844 1947 2747 
L 2328 2669 
Q 3034 2534 3370 2195 
Q 3706 1856 3706 1288 
Q 3706 609 3251 259 
Q 2797 -91 1919 -91 
Q 1588 -91 1214 -16 
Q 841 59 441 206 
L 441 856 
Q 825 641 1194 531 
Q 1563 422 1919 422 
Q 2459 422 2753 634 
Q 3047 847 3047 1241 
Q 3047 1584 2836 1778 
Q 2625 1972 2144 2069 
L 1759 2144 
Q 1053 2284 737 2584 
Q 422 2884 422 3419 
Q 422 4038 858 4394 
Q 1294 4750 2059 4750 
Q 2388 4750 2728 4690 
Q 3069 4631 3425 4513 
z
" id="DejaVuSans-53" transform="scale(0.015625)"/>
     </defs>
     <use xlink:href="#DejaVuSans-56"/>
     <use x="68.408203" xlink:href="#DejaVuSans-46"/>
     <use x="125.927734" xlink:href="#DejaVuSans-55"/>
     <use x="199.121094" xlink:href="#DejaVuSans-4e"/>
     <use x="273.925781" xlink:href="#DejaVuSans-44"/>
     <use x="350.927734" xlink:href="#DejaVuSans-53"/>
    </g>
    <!-- daily_report -->
    <g transform="translate(200.466563 35.472)scale(0.12 -0.12)">
     <defs>
      <path d="M 603 3500 
L 1178 3500 
L 1178 0 
L 603 0 
L 603 3500 
z
M 603 4863 
L 1178 4863 
L 1178 4134 
L 603 4134 
L 603 4863 
z
" id="DejaVuSans-69" transform="scale(0.015625)"/>
      <path d="M 603 4863 
L 1178 4863 
L 1178 0 
L 603 0 
L 603 4863 
z
" id="DejaVuSans-6c" transform="scale(0.015625)"/>
      <path d="M 2059 -325 
Q 1816 -950 1584 -1140 
Q 1353 -1331 966 -1331 
L 506 -1331 
L 506 -850 
L 844 -850 
Q 1081 -850 1212 -737 
Q 1344 -625 1503 -206 
L 1606 56 
L 191 3500 
L 800 3500 
L 1894 763 
L 2988 3500 
L 3597 3500 
L 2059 -325 
z
" id="DejaVuSans-79" transform="scale(0.015625)"/>
      <path d="M 3263 -1063 
L 3263 -1509 
L -63 -1509 
L -63 -1063 
L 3263 -1063 
z
" id="DejaVuSans-5f" transform="scale(0.015625)"/>
      <path d="M 2631 2963 
Q 2534 3019 2420 3045 
Q 2306 3072 2169 3072 
Q 1681 3072 1420 2755 
Q 1159 2438 1159 1844 
L 1159 0 
L 581 0 
L 581 3500 
L 1159 3500 
L 1159 2956 
Q 1341 3275 1631 3429 
Q 1922 3584 2338 3584 
Q 2397 3584 2469 3576 
Q 2541 3569 2628 3553 
L 2631 2963 
z
" id="DejaVuSans-72" transform="scale(0.015625)"/>
      <path d="M 1159 525 
L 1159 -1331 
L 581 -1331 
L 581 3500 
L 1159 3500 
L 1159 2969 
Q 1341 3281 1617 3432 
Q 1894 3584 2278 3584 
Q 2916 3584 3314 3078 
Q 3713 2572 3713 1747 
Q 3713 922 3314 415 
Q 2916 -91 2278 -91 
Q 1894 -91 1617 61 
Q 1341 213 1159 525 
z
M 3116 1747 
Q 3116 2381 2855 2742 
Q 2594 3103 2138 3103 
Q 1681 3103 1420 2742 
Q 1159 2381 1159 1747 
Q 1159 1113 1420 752 
Q 1681 391 2138 391 
Q 2594 391 2855 752 
Q 3116 1113 3116 1747 
z
" id="DejaVuSans-70" transform="scale(0.015625)"/>
      <path d="M 1959 3097 
Q 1497 3097 1228 2736 
Q 959 2375 959 1747 
Q 959 1119 1226 758 
Q 1494 397 1959 397 
Q 2419 397 2687 759 
Q 2956 1122 2956 1747 
Q 2956 2369 2687 2733 
Q 2419 3097 1959 3097 
z
M 1959 3584 
Q 2709 3584 3137 3096 
Q 3566 2609 3566 1747 
Q 3566 888 3137 398 
Q 2709 -91 1959 -91 
Q 1206 -91 779 398 
Q 353 888 353 1747 
Q 353 2609 779 3096 
Q 1206 3584 1959 3584 
z
" id="DejaVuSans-6f" transform="scale(0.015625)"/>
     </defs>
     <use xlink:href="#DejaVuSans-64"/>
     <use x="63.476562" xlink:href="#DejaVuSans-61"/>
     <use x="124.755859" xlink:href="#DejaVuSans-69"/>
     <use x="152.539062" xlink:href="#DejaVuSans-6c"/>
     <use x="180.322266" xlink:href="#DejaVuSans-79"/>
     <use x="239.501953" xlink:href="#DejaVuSans-5f"/>
     <use x="289.501953" xlink:href="#DejaVuSans-72"/>
     <use x="328.365234" xlink:href="#DejaVuSans-65"/>
     <use x="389.888672" xlink:href="#DejaVuSans-70"/>
     <use x="453.365234" xlink:href="#DejaVuSans-6f"/>
     <use x="514.546875" xlink:href="#DejaVuSans-72"/>
     <use x="555.660156" xlink:href="#DejaVuSans-74"/>
    </g>
   </g>
   <g id="legend_1">
    <g id="patch_7">
     <path d="M 64.6 271.48 
L 178.64375 271.48 
Q 180.64375 271.48 180.64375 269.48 
L 180.64375 182.41125 
Q 180.64375 180.41125 178.64375 180.41125 
L 64.6 180.41125 
Q 62.6 180.41125 62.6 182.41125 
L 62.6 269.48 
Q 62.6 271.48 64.6 271.48 
z
" style="fill:#ffffff;opacity:0.8;stroke:#cccccc;stroke-linejoin:miter;"/>
    </g>
    <g id="line2d_22">
     <path d="M 66.6 188.509687 
L 86.6 188.509687 
" style="fill:none;stroke:#0000ff;stroke-linecap:square;stroke-opacity:0.9;stroke-width:2;"/>
    </g>
    <g id="line2d_23"/>
    <g id="text_18">
     <!-- alpaca -->
     <g transform="translate(94.6 192.009687)scale(0.1 -0.1)">
      <defs>
       <path d="M 3122 3366 
L 3122 2828 
Q 2878 2963 2633 3030 
Q 2388 3097 2138 3097 
Q 1578 3097 1268 2742 
Q 959 2388 959 1747 
Q 959 1106 1268 751 
Q 1578 397 2138 397 
Q 2388 397 2633 464 
Q 2878 531 3122 666 
L 3122 134 
Q 2881 22 2623 -34 
Q 2366 -91 2075 -91 
Q 1284 -91 818 406 
Q 353 903 353 1747 
Q 353 2603 823 3093 
Q 1294 3584 2113 3584 
Q 2378 3584 2631 3529 
Q 2884 3475 3122 3366 
z
" id="DejaVuSans-63" transform="scale(0.015625)"/>
      </defs>
      <use xlink:href="#DejaVuSans-61"/>
      <use x="61.279297" xlink:href="#DejaVuSans-6c"/>
      <use x="89.0625" xlink:href="#DejaVuSans-70"/>
      <use x="152.539062" xlink:href="#DejaVuSans-61"/>
      <use x="213.818359" xlink:href="#DejaVuSans-63"/>
      <use x="268.798828" xlink:href="#DejaVuSans-61"/>
     </g>
    </g>
    <g id="line2d_24">
     <path d="M 66.6 203.187812 
L 86.6 203.187812 
" style="fill:none;stroke:#ff0000;stroke-linecap:square;stroke-opacity:0.9;stroke-width:2;"/>
    </g>
    <g id="line2d_25"/>
    <g id="text_19">
     <!-- mattress -->
     <g transform="translate(94.6 206.687812)scale(0.1 -0.1)">
      <defs>
       <path d="M 3328 2828 
Q 3544 3216 3844 3400 
Q 4144 3584 4550 3584 
Q 5097 3584 5394 3201 
Q 5691 2819 5691 2113 
L 5691 0 
L 5113 0 
L 5113 2094 
Q 5113 2597 4934 2840 
Q 4756 3084 4391 3084 
Q 3944 3084 3684 2787 
Q 3425 2491 3425 1978 
L 3425 0 
L 2847 0 
L 2847 2094 
Q 2847 2600 2669 2842 
Q 2491 3084 2119 3084 
Q 1678 3084 1418 2786 
Q 1159 2488 1159 1978 
L 1159 0 
L 581 0 
L 581 3500 
L 1159 3500 
L 1159 2956 
Q 1356 3278 1631 3431 
Q 1906 3584 2284 3584 
Q 2666 3584 2933 3390 
Q 3200 3197 3328 2828 
z
" id="DejaVuSans-6d" transform="scale(0.015625)"/>
       <path d="M 2834 3397 
L 2834 2853 
Q 2591 2978 2328 3040 
Q 2066 3103 1784 3103 
Q 1356 3103 1142 2972 
Q 928 2841 928 2578 
Q 928 2378 1081 2264 
Q 1234 2150 1697 2047 
L 1894 2003 
Q 2506 1872 2764 1633 
Q 3022 1394 3022 966 
Q 3022 478 2636 193 
Q 2250 -91 1575 -91 
Q 1294 -91 989 -36 
Q 684 19 347 128 
L 347 722 
Q 666 556 975 473 
Q 1284 391 1588 391 
Q 1994 391 2212 530 
Q 2431 669 2431 922 
Q 2431 1156 2273 1281 
Q 2116 1406 1581 1522 
L 1381 1569 
Q 847 1681 609 1914 
Q 372 2147 372 2553 
Q 372 3047 722 3315 
Q 1072 3584 1716 3584 
Q 2034 3584 2315 3537 
Q 2597 3491 2834 3397 
z
" id="DejaVuSans-73" transform="scale(0.015625)"/>
      </defs>
      <use xlink:href="#DejaVuSans-6d"/>
      <use x="97.412109" xlink:href="#DejaVuSans-61"/>
      <use x="158.691406" xlink:href="#DejaVuSans-74"/>
      <use x="197.900391" xlink:href="#DejaVuSans-74"/>
      <use x="237.109375" xlink:href="#DejaVuSans-72"/>
      <use x="275.972656" xlink:href="#DejaVuSans-65"/>
      <use x="337.496094" xlink:href="#DejaVuSans-73"/>
      <use x="389.595703" xlink:href="#DejaVuSans-73"/>
     </g>
    </g>
    <g id="line2d_26">
     <path d="M 66.6 217.865937 
L 86.6 217.865937 
" style="fill:none;stroke:#008000;stroke-linecap:square;stroke-opacity:0.9;stroke-width:2;"/>
    </g>
    <g id="line2d_27"/>
    <g id="text_20">
     <!-- daily-open-rebal -->
     <g transform="translate(94.6 221.365937)scale(0.1 -0.1)">
      <defs>
       <path d="M 3513 2113 
L 3513 0 
L 2938 0 
L 2938 2094 
Q 2938 2591 2744 2837 
Q 2550 3084 2163 3084 
Q 1697 3084 1428 2787 
Q 1159 2491 1159 1978 
L 1159 0 
L 581 0 
L 581 3500 
L 1159 3500 
L 1159 2956 
Q 1366 3272 1645 3428 
Q 1925 3584 2291 3584 
Q 2894 3584 3203 3211 
Q 3513 2838 3513 2113 
z
" id="DejaVuSans-6e" transform="scale(0.015625)"/>
       <path d="M 3116 1747 
Q 3116 2381 2855 2742 
Q 2594 3103 2138 3103 
Q 1681 3103 1420 2742 
Q 1159 2381 1159 1747 
Q 1159 1113 1420 752 
Q 1681 391 2138 391 
Q 2594 391 2855 752 
Q 3116 1113 3116 1747 
z
M 1159 2969 
Q 1341 3281 1617 3432 
Q 1894 3584 2278 3584 
Q 2916 3584 3314 3078 
Q 3713 2572 3713 1747 
Q 3713 922 3314 415 
Q 2916 -91 2278 -91 
Q 1894 -91 1617 61 
Q 1341 213 1159 525 
L 1159 0 
L 581 0 
L 581 4863 
L 1159 4863 
L 1159 2969 
z
" id="DejaVuSans-62" transform="scale(0.015625)"/>
      </defs>
      <use xlink:href="#DejaVuSans-64"/>
      <use x="63.476562" xlink:href="#DejaVuSans-61"/>
      <use x="124.755859" xlink:href="#DejaVuSans-69"/>
      <use x="152.539062" xlink:href="#DejaVuSans-6c"/>
      <use x="180.322266" xlink:href="#DejaVuSans-79"/>
      <use x="237.751953" xlink:href="#DejaVuSans-2d"/>
      <use x="275.710938" xlink:href="#DejaVuSans-6f"/>
      <use x="336.892578" xlink:href="#DejaVuSans-70"/>
      <use x="400.369141" xlink:href="#DejaVuSans-65"/>
      <use x="461.892578" xlink:href="#DejaVuSans-6e"/>
      <use x="525.271484" xlink:href="#DejaVuSans-2d"/>
      <use x="561.355469" xlink:href="#DejaVuSans-72"/>
      <use x="600.21875" xlink:href="#DejaVuSans-65"/>
      <use x="661.742188" xlink:href="#DejaVuSans-62"/>
      <use x="725.21875" xlink:href="#DejaVuSans-61"/>
      <use x="786.498047" xlink:href="#DejaVuSans-6c"/>
     </g>
    </g>
    <g id="line2d_28">
     <path d="M 66.6 232.544062 
L 86.6 232.544062 
" style="fill:none;stroke:#ec5283;stroke-linecap:square;stroke-width:2;"/>
    </g>
    <g id="line2d_29"/>
    <g id="text_21">
     <!-- daily-close-rebal -->
     <g transform="translate(94.6 236.044062)scale(0.1 -0.1)">
      <use xlink:href="#DejaVuSans-64"/>
      <use x="63.476562" xlink:href="#DejaVuSans-61"/>
      <use x="124.755859" xlink:href="#DejaVuSans-69"/>
      <use x="152.539062" xlink:href="#DejaVuSans-6c"/>
      <use x="180.322266" xlink:href="#DejaVuSans-79"/>
      <use x="237.751953" xlink:href="#DejaVuSans-2d"/>
      <use x="273.835938" xlink:href="#DejaVuSans-63"/>
      <use x="328.816406" xlink:href="#DejaVuSans-6c"/>
      <use x="356.599609" xlink:href="#DejaVuSans-6f"/>
      <use x="417.78125" xlink:href="#DejaVuSans-73"/>
      <use x="469.880859" xlink:href="#DejaVuSans-65"/>
      <use x="531.404297" xlink:href="#DejaVuSans-2d"/>
      <use x="567.488281" xlink:href="#DejaVuSans-72"/>
      <use x="606.351562" xlink:href="#DejaVuSans-65"/>
      <use x="667.875" xlink:href="#DejaVuSans-62"/>
      <use x="731.351562" xlink:href="#DejaVuSans-61"/>
      <use x="792.630859" xlink:href="#DejaVuSans-6c"/>
     </g>
    </g>
    <g id="line2d_30">
     <path d="M 66.6 247.222187 
L 86.6 247.222187 
" style="fill:none;stroke:#00ff00;stroke-linecap:square;stroke-opacity:0.9;stroke-width:2;"/>
    </g>
    <g id="line2d_31"/>
    <g id="text_22">
     <!-- trader-baseline -->
     <g transform="translate(94.6 250.722187)scale(0.1 -0.1)">
      <use xlink:href="#DejaVuSans-74"/>
      <use x="39.208984" xlink:href="#DejaVuSans-72"/>
      <use x="80.322266" xlink:href="#DejaVuSans-61"/>
      <use x="141.601562" xlink:href="#DejaVuSans-64"/>
      <use x="205.078125" xlink:href="#DejaVuSans-65"/>
      <use x="266.601562" xlink:href="#DejaVuSans-72"/>
      <use x="301.339844" xlink:href="#DejaVuSans-2d"/>
      <use x="337.423828" xlink:href="#DejaVuSans-62"/>
      <use x="400.900391" xlink:href="#DejaVuSans-61"/>
      <use x="462.179688" xlink:href="#DejaVuSans-73"/>
      <use x="514.279297" xlink:href="#DejaVuSans-65"/>
      <use x="575.802734" xlink:href="#DejaVuSans-6c"/>
      <use x="603.585938" xlink:href="#DejaVuSans-69"/>
      <use x="631.369141" xlink:href="#DejaVuSans-6e"/>
      <use x="694.748047" xlink:href="#DejaVuSans-65"/>
     </g>
    </g>
    <g id="line2d_32">
     <path d="M 66.6 261.900312 
L 86.6 261.900312 
" style="fill:none;stroke:#a5b9cf;stroke-linecap:square;stroke-width:2;"/>
    </g>
    <g id="line2d_33"/>
    <g id="text_23">
     <!-- default-cfg -->
     <g transform="translate(94.6 265.400312)scale(0.1 -0.1)">
      <defs>
       <path d="M 2375 4863 
L 2375 4384 
L 1825 4384 
Q 1516 4384 1395 4259 
Q 1275 4134 1275 3809 
L 1275 3500 
L 2222 3500 
L 2222 3053 
L 1275 3053 
L 1275 0 
L 697 0 
L 697 3053 
L 147 3053 
L 147 3500 
L 697 3500 
L 697 3744 
Q 697 4328 969 4595 
Q 1241 4863 1831 4863 
L 2375 4863 
z
" id="DejaVuSans-66" transform="scale(0.015625)"/>
       <path d="M 544 1381 
L 544 3500 
L 1119 3500 
L 1119 1403 
Q 1119 906 1312 657 
Q 1506 409 1894 409 
Q 2359 409 2629 706 
Q 2900 1003 2900 1516 
L 2900 3500 
L 3475 3500 
L 3475 0 
L 2900 0 
L 2900 538 
Q 2691 219 2414 64 
Q 2138 -91 1772 -91 
Q 1169 -91 856 284 
Q 544 659 544 1381 
z
M 1991 3584 
L 1991 3584 
z
" id="DejaVuSans-75" transform="scale(0.015625)"/>
       <path d="M 2906 1791 
Q 2906 2416 2648 2759 
Q 2391 3103 1925 3103 
Q 1463 3103 1205 2759 
Q 947 2416 947 1791 
Q 947 1169 1205 825 
Q 1463 481 1925 481 
Q 2391 481 2648 825 
Q 2906 1169 2906 1791 
z
M 3481 434 
Q 3481 -459 3084 -895 
Q 2688 -1331 1869 -1331 
Q 1566 -1331 1297 -1286 
Q 1028 -1241 775 -1147 
L 775 -588 
Q 1028 -725 1275 -790 
Q 1522 -856 1778 -856 
Q 2344 -856 2625 -561 
Q 2906 -266 2906 331 
L 2906 616 
Q 2728 306 2450 153 
Q 2172 0 1784 0 
Q 1141 0 747 490 
Q 353 981 353 1791 
Q 353 2603 747 3093 
Q 1141 3584 1784 3584 
Q 2172 3584 2450 3431 
Q 2728 3278 2906 2969 
L 2906 3500 
L 3481 3500 
L 3481 434 
z
" id="DejaVuSans-67" transform="scale(0.015625)"/>
      </defs>
      <use xlink:href="#DejaVuSans-64"/>
      <use x="63.476562" xlink:href="#DejaVuSans-65"/>
      <use x="125" xlink:href="#DejaVuSans-66"/>
      <use x="160.205078" xlink:href="#DejaVuSans-61"/>
      <use x="221.484375" xlink:href="#DejaVuSans-75"/>
      <use x="284.863281" xlink:href="#DejaVuSans-6c"/>
      <use x="312.646484" xlink:href="#DejaVuSans-74"/>
      <use x="351.855469" xlink:href="#DejaVuSans-2d"/>
      <use x="387.939453" xlink:href="#DejaVuSans-63"/>
      <use x="442.919922" xlink:href="#DejaVuSans-66"/>
      <use x="478.125" xlink:href="#DejaVuSans-67"/>
     </g>
    </g>
   </g>
  </g>
 </g>
 <defs>
  <clipPath id="pa3b624a604">
   <rect height="235.008" width="357.12" x="57.6" y="41.472"/>
  </clipPath>
 </defs>
</svg>
