<?xml version="1.0" encoding="utf-8" standalone="no"?>
<!DOCTYPE svg PUBLIC "-//W3C//DTD SVG 1.1//EN"
  "http://www.w3.org/Graphics/SVG/1.1/DTD/svg11.dtd">
<svg height="345.6pt" version="1.1" viewBox="0 0 460.8 345.6" width="460.8pt" xmlns="http://www.w3.org/2000/svg" xmlns:xlink="http://www.w3.org/1999/xlink">
 <metadata>
  <rdf:RDF xmlns:cc="http://creativecommons.org/ns#" xmlns:dc="http://purl.org/dc/elements/1.1/" xmlns:rdf="http://www.w3.org/1999/02/22-rdf-syntax-ns#">
   <cc:Work>
    <dc:type rdf:resource="http://purl.org/dc/dcmitype/StillImage"/>
    <dc:date>2022-02-13T01:01:48.646341</dc:date>
    <dc:format>image/svg+xml</dc:format>
    <dc:creator>
     <cc:Agent>
      <dc:title>Matplotlib v3.4.3, https://matplotlib.org/</dc:title>
     </cc:Agent>
    </dc:creator>
   </cc:Work>
  </rdf:RDF>
 </metadata>
 <defs>
  <style type="text/css">*{stroke-linecap:butt;stroke-linejoin:round;}</style>
 </defs>
 <g id="figure_1">
  <g id="patch_1">
   <path d="M 0 345.6 
L 460.8 345.6 
L 460.8 0 
L 0 0 
z
" style="fill:#ffffff;"/>
  </g>
  <g id="axes_1">
   <g id="patch_2">
    <path d="M 57.6 276.48 
L 414.72 276.48 
L 414.72 41.472 
L 57.6 41.472 
z
" style="fill:#ffffff;"/>
   </g>
   <g id="matplotlib.axis_1">
    <g id="xtick_1">
     <g id="line2d_1">
      <defs>
       <path d="M 0 0 
L 0 3.5 
" id="md4ab5a624f" style="stroke:#000000;stroke-width:0.8;"/>
      </defs>
      <g>
       <use style="stroke:#000000;stroke-width:0.8;" x="90.820465" xlink:href="#md4ab5a624f" y="276.48"/>
      </g>
     </g>
     <g id="text_1">
      <!-- 2021-09 -->
      <g transform="translate(53.595644 310.951846)rotate(-30)scale(0.1 -0.1)">
       <defs>
        <path d="M 1228 531 
L 3431 531 
L 3431 0 
L 469 0 
L 469 531 
Q 828 903 1448 1529 
Q 2069 2156 2228 2338 
Q 2531 2678 2651 2914 
Q 2772 3150 2772 3378 
Q 2772 3750 2511 3984 
Q 2250 4219 1831 4219 
Q 1534 4219 1204 4116 
Q 875 4013 500 3803 
L 500 4441 
Q 881 4594 1212 4672 
Q 1544 4750 1819 4750 
Q 2544 4750 2975 4387 
Q 3406 4025 3406 3419 
Q 3406 3131 3298 2873 
Q 3191 2616 2906 2266 
Q 2828 2175 2409 1742 
Q 1991 1309 1228 531 
z
" id="DejaVuSans-32" transform="scale(0.015625)"/>
        <path d="M 2034 4250 
Q 1547 4250 1301 3770 
Q 1056 3291 1056 2328 
Q 1056 1369 1301 889 
Q 1547 409 2034 409 
Q 2525 409 2770 889 
Q 3016 1369 3016 2328 
Q 3016 3291 2770 3770 
Q 2525 4250 2034 4250 
z
M 2034 4750 
Q 2819 4750 3233 4129 
Q 3647 3509 3647 2328 
Q 3647 1150 3233 529 
Q 2819 -91 2034 -91 
Q 1250 -91 836 529 
Q 422 1150 422 2328 
Q 422 3509 836 4129 
Q 1250 4750 2034 4750 
z
" id="DejaVuSans-30" transform="scale(0.015625)"/>
        <path d="M 794 531 
L 1825 531 
L 1825 4091 
L 703 3866 
L 703 4441 
L 1819 4666 
L 2450 4666 
L 2450 531 
L 3481 531 
L 3481 0 
L 794 0 
L 794 531 
z
" id="DejaVuSans-31" transform="scale(0.015625)"/>
        <path d="M 313 2009 
L 1997 2009 
L 1997 1497 
L 313 1497 
L 313 2009 
z
" id="DejaVuSans-2d" transform="scale(0.015625)"/>
        <path d="M 703 97 
L 703 672 
Q 941 559 1184 500 
Q 1428 441 1663 441 
Q 2288 441 2617 861 
Q 2947 1281 2994 2138 
Q 2813 1869 2534 1725 
Q 2256 1581 1919 1581 
Q 1219 1581 811 2004 
Q 403 2428 403 3163 
Q 403 3881 828 4315 
Q 1253 4750 1959 4750 
Q 2769 4750 3195 4129 
Q 3622 3509 3622 2328 
Q 3622 1225 3098 567 
Q 2575 -91 1691 -91 
Q 1453 -91 1209 -44 
Q 966 3 703 97 
z
M 1959 2075 
Q 2384 2075 2632 2365 
Q 2881 2656 2881 3163 
Q 2881 3666 2632 3958 
Q 2384 4250 1959 4250 
Q 1534 4250 1286 3958 
Q 1038 3666 1038 3163 
Q 1038 2656 1286 2365 
Q 1534 2075 1959 2075 
z
" id="DejaVuSans-39" transform="scale(0.015625)"/>
       </defs>
       <use xlink:href="#DejaVuSans-32"/>
       <use x="63.623047" xlink:href="#DejaVuSans-30"/>
       <use x="127.246094" xlink:href="#DejaVuSans-32"/>
       <use x="190.869141" xlink:href="#DejaVuSans-31"/>
       <use x="254.492188" xlink:href="#DejaVuSans-2d"/>
       <use x="290.576172" xlink:href="#DejaVuSans-30"/>
       <use x="354.199219" xlink:href="#DejaVuSans-39"/>
      </g>
     </g>
    </g>
    <g id="xtick_2">
     <g id="line2d_2">
      <g>
       <use style="stroke:#000000;stroke-width:0.8;" x="147.446258" xlink:href="#md4ab5a624f" y="276.48"/>
      </g>
     </g>
     <g id="text_2">
      <!-- 2021-10 -->
      <g transform="translate(110.221437 310.951846)rotate(-30)scale(0.1 -0.1)">
       <use xlink:href="#DejaVuSans-32"/>
       <use x="63.623047" xlink:href="#DejaVuSans-30"/>
       <use x="127.246094" xlink:href="#DejaVuSans-32"/>
       <use x="190.869141" xlink:href="#DejaVuSans-31"/>
       <use x="254.492188" xlink:href="#DejaVuSans-2d"/>
       <use x="290.576172" xlink:href="#DejaVuSans-31"/>
       <use x="354.199219" xlink:href="#DejaVuSans-30"/>
      </g>
     </g>
    </g>
    <g id="xtick_3">
     <g id="line2d_3">
      <g>
       <use style="stroke:#000000;stroke-width:0.8;" x="205.959577" xlink:href="#md4ab5a624f" y="276.48"/>
      </g>
     </g>
     <g id="text_3">
      <!-- 2021-11 -->
      <g transform="translate(168.734756 310.951846)rotate(-30)scale(0.1 -0.1)">
       <use xlink:href="#DejaVuSans-32"/>
       <use x="63.623047" xlink:href="#DejaVuSans-30"/>
       <use x="127.246094" xlink:href="#DejaVuSans-32"/>
       <use x="190.869141" xlink:href="#DejaVuSans-31"/>
       <use x="254.492188" xlink:href="#DejaVuSans-2d"/>
       <use x="290.576172" xlink:href="#DejaVuSans-31"/>
       <use x="354.199219" xlink:href="#DejaVuSans-31"/>
      </g>
     </g>
    </g>
    <g id="xtick_4">
     <g id="line2d_4">
      <g>
       <use style="stroke:#000000;stroke-width:0.8;" x="262.58537" xlink:href="#md4ab5a624f" y="276.48"/>
      </g>
     </g>
     <g id="text_4">
      <!-- 2021-12 -->
      <g transform="translate(225.360549 310.951846)rotate(-30)scale(0.1 -0.1)">
       <use xlink:href="#DejaVuSans-32"/>
       <use x="63.623047" xlink:href="#DejaVuSans-30"/>
       <use x="127.246094" xlink:href="#DejaVuSans-32"/>
       <use x="190.869141" xlink:href="#DejaVuSans-31"/>
       <use x="254.492188" xlink:href="#DejaVuSans-2d"/>
       <use x="290.576172" xlink:href="#DejaVuSans-31"/>
       <use x="354.199219" xlink:href="#DejaVuSans-32"/>
      </g>
     </g>
    </g>
    <g id="xtick_5">
     <g id="line2d_5">
      <g>
       <use style="stroke:#000000;stroke-width:0.8;" x="321.098689" xlink:href="#md4ab5a624f" y="276.48"/>
      </g>
     </g>
     <g id="text_5">
      <!-- 2022-01 -->
      <g transform="translate(283.873868 310.951846)rotate(-30)scale(0.1 -0.1)">
       <use xlink:href="#DejaVuSans-32"/>
       <use x="63.623047" xlink:href="#DejaVuSans-30"/>
       <use x="127.246094" xlink:href="#DejaVuSans-32"/>
       <use x="190.869141" xlink:href="#DejaVuSans-32"/>
       <use x="254.492188" xlink:href="#DejaVuSans-2d"/>
       <use x="290.576172" xlink:href="#DejaVuSans-30"/>
       <use x="354.199219" xlink:href="#DejaVuSans-31"/>
      </g>
     </g>
    </g>
    <g id="xtick_6">
     <g id="line2d_6">
      <g>
       <use style="stroke:#000000;stroke-width:0.8;" x="379.612008" xlink:href="#md4ab5a624f" y="276.48"/>
      </g>
     </g>
     <g id="text_6">
      <!-- 2022-02 -->
      <g transform="translate(342.387188 310.951846)rotate(-30)scale(0.1 -0.1)">
       <use xlink:href="#DejaVuSans-32"/>
       <use x="63.623047" xlink:href="#DejaVuSans-30"/>
       <use x="127.246094" xlink:href="#DejaVuSans-32"/>
       <use x="190.869141" xlink:href="#DejaVuSans-32"/>
       <use x="254.492188" xlink:href="#DejaVuSans-2d"/>
       <use x="290.576172" xlink:href="#DejaVuSans-30"/>
       <use x="354.199219" xlink:href="#DejaVuSans-32"/>
      </g>
     </g>
    </g>
    <g id="text_7">
     <!-- date -->
     <g transform="translate(224.885 324.351346)scale(0.1 -0.1)">
      <defs>
       <path d="M 2906 2969 
L 2906 4863 
L 3481 4863 
L 3481 0 
L 2906 0 
L 2906 525 
Q 2725 213 2448 61 
Q 2172 -91 1784 -91 
Q 1150 -91 751 415 
Q 353 922 353 1747 
Q 353 2572 751 3078 
Q 1150 3584 1784 3584 
Q 2172 3584 2448 3432 
Q 2725 3281 2906 2969 
z
M 947 1747 
Q 947 1113 1208 752 
Q 1469 391 1925 391 
Q 2381 391 2643 752 
Q 2906 1113 2906 1747 
Q 2906 2381 2643 2742 
Q 2381 3103 1925 3103 
Q 1469 3103 1208 2742 
Q 947 2381 947 1747 
z
" id="DejaVuSans-64" transform="scale(0.015625)"/>
       <path d="M 2194 1759 
Q 1497 1759 1228 1600 
Q 959 1441 959 1056 
Q 959 750 1161 570 
Q 1363 391 1709 391 
Q 2188 391 2477 730 
Q 2766 1069 2766 1631 
L 2766 1759 
L 2194 1759 
z
M 3341 1997 
L 3341 0 
L 2766 0 
L 2766 531 
Q 2569 213 2275 61 
Q 1981 -91 1556 -91 
Q 1019 -91 701 211 
Q 384 513 384 1019 
Q 384 1609 779 1909 
Q 1175 2209 1959 2209 
L 2766 2209 
L 2766 2266 
Q 2766 2663 2505 2880 
Q 2244 3097 1772 3097 
Q 1472 3097 1187 3025 
Q 903 2953 641 2809 
L 641 3341 
Q 956 3463 1253 3523 
Q 1550 3584 1831 3584 
Q 2591 3584 2966 3190 
Q 3341 2797 3341 1997 
z
" id="DejaVuSans-61" transform="scale(0.015625)"/>
       <path d="M 1172 4494 
L 1172 3500 
L 2356 3500 
L 2356 3053 
L 1172 3053 
L 1172 1153 
Q 1172 725 1289 603 
Q 1406 481 1766 481 
L 2356 481 
L 2356 0 
L 1766 0 
Q 1100 0 847 248 
Q 594 497 594 1153 
L 594 3053 
L 172 3053 
L 172 3500 
L 594 3500 
L 594 4494 
L 1172 4494 
z
" id="DejaVuSans-74" transform="scale(0.015625)"/>
       <path d="M 3597 1894 
L 3597 1613 
L 953 1613 
Q 991 1019 1311 708 
Q 1631 397 2203 397 
Q 2534 397 2845 478 
Q 3156 559 3463 722 
L 3463 178 
Q 3153 47 2828 -22 
Q 2503 -91 2169 -91 
Q 1331 -91 842 396 
Q 353 884 353 1716 
Q 353 2575 817 3079 
Q 1281 3584 2069 3584 
Q 2775 3584 3186 3129 
Q 3597 2675 3597 1894 
z
M 3022 2063 
Q 3016 2534 2758 2815 
Q 2500 3097 2075 3097 
Q 1594 3097 1305 2825 
Q 1016 2553 972 2059 
L 3022 2063 
z
" id="DejaVuSans-65" transform="scale(0.015625)"/>
      </defs>
      <use xlink:href="#DejaVuSans-64"/>
      <use x="63.476562" xlink:href="#DejaVuSans-61"/>
      <use x="124.755859" xlink:href="#DejaVuSans-74"/>
      <use x="163.964844" xlink:href="#DejaVuSans-65"/>
     </g>
    </g>
   </g>
   <g id="matplotlib.axis_2">
    <g id="ytick_1">
     <g id="line2d_7">
      <defs>
       <path d="M 0 0 
L -3.5 0 
" id="m7c3a4a9ce2" style="stroke:#000000;stroke-width:0.8;"/>
      </defs>
      <g>
       <use style="stroke:#000000;stroke-width:0.8;" x="57.6" xlink:href="#m7c3a4a9ce2" y="274.404488"/>
      </g>
     </g>
     <g id="text_8">
      <!-- 90000 -->
      <g transform="translate(18.7875 278.203707)scale(0.1 -0.1)">
       <use xlink:href="#DejaVuSans-39"/>
       <use x="63.623047" xlink:href="#DejaVuSans-30"/>
       <use x="127.246094" xlink:href="#DejaVuSans-30"/>
       <use x="190.869141" xlink:href="#DejaVuSans-30"/>
       <use x="254.492188" xlink:href="#DejaVuSans-30"/>
      </g>
     </g>
    </g>
    <g id="ytick_2">
     <g id="line2d_8">
      <g>
       <use style="stroke:#000000;stroke-width:0.8;" x="57.6" xlink:href="#m7c3a4a9ce2" y="231.70735"/>
      </g>
     </g>
     <g id="text_9">
      <!-- 95000 -->
      <g transform="translate(18.7875 235.506569)scale(0.1 -0.1)">
       <defs>
        <path d="M 691 4666 
L 3169 4666 
L 3169 4134 
L 1269 4134 
L 1269 2991 
Q 1406 3038 1543 3061 
Q 1681 3084 1819 3084 
Q 2600 3084 3056 2656 
Q 3513 2228 3513 1497 
Q 3513 744 3044 326 
Q 2575 -91 1722 -91 
Q 1428 -91 1123 -41 
Q 819 9 494 109 
L 494 744 
Q 775 591 1075 516 
Q 1375 441 1709 441 
Q 2250 441 2565 725 
Q 2881 1009 2881 1497 
Q 2881 1984 2565 2268 
Q 2250 2553 1709 2553 
Q 1456 2553 1204 2497 
Q 953 2441 691 2322 
L 691 4666 
z
" id="DejaVuSans-35" transform="scale(0.015625)"/>
       </defs>
       <use xlink:href="#DejaVuSans-39"/>
       <use x="63.623047" xlink:href="#DejaVuSans-35"/>
       <use x="127.246094" xlink:href="#DejaVuSans-30"/>
       <use x="190.869141" xlink:href="#DejaVuSans-30"/>
       <use x="254.492188" xlink:href="#DejaVuSans-30"/>
      </g>
     </g>
    </g>
    <g id="ytick_3">
     <g id="line2d_9">
      <g>
       <use style="stroke:#000000;stroke-width:0.8;" x="57.6" xlink:href="#m7c3a4a9ce2" y="189.010213"/>
      </g>
     </g>
     <g id="text_10">
      <!-- 100000 -->
      <g transform="translate(12.425 192.809432)scale(0.1 -0.1)">
       <use xlink:href="#DejaVuSans-31"/>
       <use x="63.623047" xlink:href="#DejaVuSans-30"/>
       <use x="127.246094" xlink:href="#DejaVuSans-30"/>
       <use x="190.869141" xlink:href="#DejaVuSans-30"/>
       <use x="254.492188" xlink:href="#DejaVuSans-30"/>
       <use x="318.115234" xlink:href="#DejaVuSans-30"/>
      </g>
     </g>
    </g>
    <g id="ytick_4">
     <g id="line2d_10">
      <g>
       <use style="stroke:#000000;stroke-width:0.8;" x="57.6" xlink:href="#m7c3a4a9ce2" y="146.313075"/>
      </g>
     </g>
     <g id="text_11">
      <!-- 105000 -->
      <g transform="translate(12.425 150.112294)scale(0.1 -0.1)">
       <use xlink:href="#DejaVuSans-31"/>
       <use x="63.623047" xlink:href="#DejaVuSans-30"/>
       <use x="127.246094" xlink:href="#DejaVuSans-35"/>
       <use x="190.869141" xlink:href="#DejaVuSans-30"/>
       <use x="254.492188" xlink:href="#DejaVuSans-30"/>
       <use x="318.115234" xlink:href="#DejaVuSans-30"/>
      </g>
     </g>
    </g>
    <g id="ytick_5">
     <g id="line2d_11">
      <g>
       <use style="stroke:#000000;stroke-width:0.8;" x="57.6" xlink:href="#m7c3a4a9ce2" y="103.615938"/>
      </g>
     </g>
     <g id="text_12">
      <!-- 110000 -->
      <g transform="translate(12.425 107.415156)scale(0.1 -0.1)">
       <use xlink:href="#DejaVuSans-31"/>
       <use x="63.623047" xlink:href="#DejaVuSans-31"/>
       <use x="127.246094" xlink:href="#DejaVuSans-30"/>
       <use x="190.869141" xlink:href="#DejaVuSans-30"/>
       <use x="254.492188" xlink:href="#DejaVuSans-30"/>
       <use x="318.115234" xlink:href="#DejaVuSans-30"/>
      </g>
     </g>
    </g>
    <g id="ytick_6">
     <g id="line2d_12">
      <g>
       <use style="stroke:#000000;stroke-width:0.8;" x="57.6" xlink:href="#m7c3a4a9ce2" y="60.9188"/>
      </g>
     </g>
     <g id="text_13">
      <!-- 115000 -->
      <g transform="translate(12.425 64.718019)scale(0.1 -0.1)">
       <use xlink:href="#DejaVuSans-31"/>
       <use x="63.623047" xlink:href="#DejaVuSans-31"/>
       <use x="127.246094" xlink:href="#DejaVuSans-35"/>
       <use x="190.869141" xlink:href="#DejaVuSans-30"/>
       <use x="254.492188" xlink:href="#DejaVuSans-30"/>
       <use x="318.115234" xlink:href="#DejaVuSans-30"/>
      </g>
     </g>
    </g>
   </g>
   <g id="line2d_13">
    <path clip-path="url(#p6e82c1bdbf)" d="M 73.832727 189.010213 
L 75.720254 189.000738 
L 77.60778 186.00002 
L 79.495307 190.643568 
L 81.382833 182.669076 
L 87.045412 177.538063 
L 88.932939 175.255548 
L 90.820465 178.235748 
L 92.707992 177.045881 
L 94.595518 177.004464 
L 102.145624 177.612164 
L 104.03315 180.612365 
L 105.920677 183.157962 
L 107.808203 190.429488 
L 113.470782 183.710536 
L 115.358309 195.227393 
L 117.245835 190.164725 
L 119.133362 191.851298 
L 121.020888 201.003965 
L 126.683467 215.770659 
L 128.570994 217.165869 
L 130.45852 210.923949 
L 132.346047 198.106635 
L 134.233573 190.580452 
L 139.896152 184.304947 
L 141.783679 202.509723 
L 143.671205 199.232167 
L 145.558732 206.17982 
L 147.446258 193.545103 
L 153.108837 208.944235 
L 154.996364 196.755988 
L 156.88389 193.372915 
L 158.771416 192.696534 
L 160.658943 191.841515 
L 166.321522 190.758832 
L 168.209049 190.471374 
L 170.096575 200.647736 
L 171.984101 184.583102 
L 173.871628 182.668718 
L 179.534207 175.829396 
L 181.421734 167.093087 
L 183.30926 164.422711 
L 185.196786 178.846101 
L 187.084313 189.607947 
L 192.746892 188.868529 
L 194.634419 197.084823 
L 196.521945 199.067341 
L 198.409471 187.939365 
L 200.296998 199.199375 
L 205.959577 181.902705 
L 207.847104 181.856209 
L 209.73463 173.303002 
L 211.622156 184.025544 
L 213.509683 177.891743 
L 219.172262 177.840241 
L 221.059789 187.649921 
L 222.947315 187.717935 
L 224.834841 195.02934 
L 226.722368 187.601506 
L 232.384947 185.361922 
L 234.272474 185.022941 
L 236.16 190.255904 
L 238.047526 191.805838 
L 239.935053 192.642406 
L 245.597632 187.343438 
L 247.485159 180.389938 
L 249.372685 181.370669 
L 253.147738 181.228247 
L 258.810317 189.054045 
L 260.697844 205.179691 
L 262.58537 216.442733 
L 264.472896 206.67383 
L 266.360423 212.117544 
L 272.023002 195.983846 
L 273.910529 180.691 
L 275.798055 173.951494 
L 277.685581 174.361186 
L 279.573108 171.249994 
L 285.235687 179.600778 
L 287.123214 175.086632 
L 289.01074 170.005599 
L 290.898266 166.46698 
L 292.785793 176.841752 
L 298.448372 188.899293 
L 300.335899 168.644279 
L 302.223425 164.732859 
L 304.110951 156.69229 
L 311.661057 145.764095 
L 313.548584 146.401308 
L 315.43611 146.232205 
L 317.323636 147.590259 
L 319.211163 151.91706 
L 324.873742 137.781055 
L 326.761268 126.04346 
L 328.648795 150.01132 
L 330.536321 142.394055 
L 332.423848 139.480475 
L 338.086427 138.432542 
L 339.973953 130.759426 
L 341.86148 128.726747 
L 343.749006 140.505078 
L 345.636533 137.175006 
L 353.186638 156.794251 
L 355.074165 161.059001 
L 356.961691 171.212058 
L 358.849218 191.419052 
L 364.511797 190.371167 
L 366.399323 200.571033 
L 368.28685 200.314296 
L 370.174376 206.263545 
L 372.061903 184.360917 
L 377.724482 165.851578 
L 379.612008 157.646224 
L 381.499535 144.406952 
L 383.387061 201.887413 
L 385.274588 200.76275 
L 390.937167 215.528607 
L 392.824693 217.886402 
L 394.71222 199.231815 
L 396.599746 213.860171 
L 398.487273 233.102624 
" style="fill:none;stroke:#0000ff;stroke-linecap:square;stroke-opacity:0.9;stroke-width:2;"/>
   </g>
   <g id="line2d_14">
    <path clip-path="url(#p6e82c1bdbf)" d="M 73.832727 189.010213 
L 75.720254 184.738422 
L 77.60778 180.369863 
L 79.495307 186.062647 
L 81.382833 175.125534 
L 87.045412 172.336595 
L 88.932939 171.373152 
L 90.820465 171.272977 
L 92.707992 172.445374 
L 94.595518 172.61546 
L 102.145624 171.052492 
L 104.03315 174.395238 
L 105.920677 176.375368 
L 107.808203 185.468777 
L 113.470782 178.821248 
L 115.358309 186.806576 
L 117.245835 183.166246 
L 119.133362 185.854943 
L 121.020888 195.901284 
L 126.683467 209.794868 
L 128.570994 210.244336 
L 130.45852 205.492336 
L 132.346047 194.551467 
L 134.233573 188.536786 
L 139.896152 182.385295 
L 141.783679 199.429079 
L 143.671205 198.635048 
L 145.558732 206.536792 
L 147.446258 194.280296 
L 153.108837 203.451245 
L 154.996364 191.246316 
L 156.88389 189.875716 
L 158.771416 187.268891 
L 160.658943 183.068638 
L 166.321522 187.916269 
L 168.209049 194.989662 
L 170.096575 197.11448 
L 171.984101 176.801286 
L 173.871628 170.690394 
L 179.534207 168.418804 
L 181.421734 161.021743 
L 183.30926 155.686026 
L 185.196786 167.503838 
L 187.084313 171.923736 
L 192.746892 174.173474 
L 194.634419 178.958637 
L 196.521945 184.251283 
L 198.409471 171.881679 
L 200.296998 170.511509 
L 205.959577 169.949276 
L 207.847104 167.097995 
L 209.73463 160.124196 
L 211.622156 161.933243 
L 213.509683 161.401545 
L 219.172262 160.244567 
L 221.059789 167.812218 
L 222.947315 172.088851 
L 224.834841 171.563107 
L 226.722368 166.53462 
L 232.384947 164.474918 
L 234.272474 166.191708 
L 236.16 167.028776 
L 238.047526 167.139305 
L 239.935053 170.080118 
L 245.597632 166.546622 
L 247.485159 157.949326 
L 249.372685 157.298686 
L 253.147738 179.946995 
L 258.810317 170.860746 
L 260.697844 189.13765 
L 262.58537 199.280339 
L 264.472896 187.328815 
L 266.360423 193.850001 
L 272.023002 181.224112 
L 273.910529 166.136553 
L 275.798055 161.046262 
L 277.685581 161.782643 
L 279.573108 156.408085 
L 285.235687 165.096729 
L 287.123214 165.277996 
L 289.01074 158.42854 
L 290.898266 157.910982 
L 292.785793 168.969844 
L 298.448372 179.569464 
L 300.335899 162.999155 
L 302.223425 157.529203 
L 304.110951 150.463419 
L 311.661057 138.802064 
L 313.548584 138.813208 
L 315.43611 137.978851 
L 317.323636 139.906548 
L 319.211163 143.012864 
L 324.873742 133.500037 
L 326.761268 124.155033 
L 328.648795 144.606779 
L 330.536321 141.197841 
L 332.423848 136.484967 
L 338.086427 137.187079 
L 339.973953 131.613969 
L 341.86148 131.194413 
L 343.749006 138.543177 
L 345.636533 138.971259 
L 353.186638 158.24624 
L 355.074165 167.202624 
L 356.961691 175.598958 
L 358.849218 193.58533 
L 364.511797 194.700404 
L 366.399323 192.271845 
L 368.28685 193.425 
L 370.174376 201.32348 
L 372.061903 180.785128 
L 377.724482 167.760474 
L 379.612008 156.783815 
L 381.499535 143.545432 
L 383.387061 183.046508 
L 385.274588 176.323076 
L 390.937167 181.533927 
L 392.824693 175.584142 
L 394.71222 167.625481 
L 396.599746 182.012303 
L 398.487273 200.252107 
" style="fill:none;stroke:#ff0000;stroke-linecap:square;stroke-opacity:0.9;stroke-width:2;"/>
   </g>
   <g id="line2d_15">
    <path clip-path="url(#p6e82c1bdbf)" d="M 73.832727 189.010213 
L 75.720254 184.940613 
L 77.60778 181.000026 
L 79.495307 185.645262 
L 81.382833 177.295498 
L 87.045412 171.974904 
L 88.932939 170.396279 
L 90.820465 172.981424 
L 92.707992 171.137512 
L 94.595518 171.855113 
L 102.145624 171.837741 
L 104.03315 174.653556 
L 105.920677 177.689288 
L 107.808203 184.994722 
L 113.470782 178.158195 
L 115.358309 189.545399 
L 117.245835 184.885617 
L 119.133362 186.387397 
L 121.020888 194.71231 
L 126.683467 209.558162 
L 128.570994 211.257166 
L 130.45852 205.062332 
L 132.346047 191.992572 
L 134.233573 184.322396 
L 139.896152 177.227698 
L 141.783679 195.360332 
L 143.671205 192.546986 
L 145.558732 199.041679 
L 147.446258 185.946863 
L 153.108837 201.912283 
L 154.996364 188.264269 
L 156.88389 185.156535 
L 158.771416 182.710118 
L 160.658943 179.478444 
L 166.321522 184.330915 
L 168.209049 191.463256 
L 170.096575 192.471563 
L 171.984101 176.142597 
L 173.871628 174.916079 
L 179.534207 167.094127 
L 181.421734 158.93729 
L 183.30926 154.968225 
L 185.196786 169.316028 
L 187.084313 180.683063 
L 192.746892 180.00425 
L 194.634419 188.028726 
L 196.521945 189.614781 
L 198.409471 179.248623 
L 200.296998 177.272613 
L 205.959577 172.405496 
L 207.847104 170.880609 
L 209.73463 164.465155 
L 211.622156 163.662718 
L 213.509683 157.686774 
L 219.172262 156.348156 
L 221.059789 167.307157 
L 222.947315 174.523872 
L 224.834841 174.760955 
L 226.722368 167.754233 
L 232.384947 164.730603 
L 234.272474 169.653286 
L 236.16 170.062052 
L 238.047526 172.009841 
L 239.935053 172.497876 
L 245.597632 166.759087 
L 247.485159 159.262038 
L 249.372685 160.420116 
L 253.147738 180.115946 
L 258.810317 168.720533 
L 260.697844 186.038283 
L 262.58537 197.570402 
L 264.472896 187.807227 
L 266.360423 193.457842 
L 272.023002 176.584861 
L 273.910529 161.366426 
L 275.798055 154.678008 
L 277.685581 154.332799 
L 279.573108 150.835118 
L 285.235687 159.554083 
L 287.123214 154.839159 
L 289.01074 150.192723 
L 290.898266 146.623925 
L 292.785793 157.761583 
L 298.448372 169.74024 
L 300.335899 148.915371 
L 302.223425 144.441543 
L 304.110951 136.476889 
L 311.661057 124.896194 
L 313.548584 125.731815 
L 315.43611 125.636723 
L 317.323636 126.787933 
L 319.211163 130.921759 
L 324.873742 116.827745 
L 326.761268 105.867232 
L 328.648795 129.421919 
L 330.536321 119.958976 
L 332.423848 117.027784 
L 338.086427 115.344329 
L 339.973953 106.854796 
L 341.86148 104.975531 
L 343.749006 115.985266 
L 345.636533 112.951494 
L 353.186638 133.14662 
L 355.074165 137.238376 
L 356.961691 147.957671 
L 358.849218 168.98285 
L 364.511797 167.519031 
L 366.399323 178.060339 
L 368.28685 177.27224 
L 370.174376 183.248695 
L 372.061903 161.031859 
L 377.724482 142.238222 
L 379.612008 133.501375 
L 381.499535 117.740503 
L 383.387061 179.460072 
L 385.274588 179.344211 
L 390.937167 193.48673 
L 392.824693 195.525096 
L 394.71222 176.937664 
L 396.599746 192.073312 
L 398.487273 210.92619 
" style="fill:none;stroke:#ff8040;stroke-linecap:square;stroke-opacity:0.9;stroke-width:2;"/>
   </g>
   <g id="line2d_16">
    <path clip-path="url(#p6e82c1bdbf)" d="M 73.832727 189.864156 
L 75.720254 187.306882 
L 77.60778 185.38672 
L 79.495307 192.916314 
L 81.382833 183.852592 
L 87.045412 183.896585 
L 88.932939 182.504736 
L 90.820465 183.289667 
L 92.707992 186.291075 
L 94.595518 185.623082 
L 102.145624 183.816805 
L 104.03315 188.885169 
L 105.920677 191.212184 
L 107.808203 200.330432 
L 113.470782 195.828572 
L 115.358309 202.877154 
L 117.245835 199.728147 
L 119.133362 203.01693 
L 121.020888 214.171594 
L 126.683467 226.7123 
L 128.570994 227.929982 
L 130.45852 222.14825 
L 132.346047 213.301298 
L 134.233573 208.542455 
L 139.896152 210.189538 
L 141.783679 228.274768 
L 143.671205 224.351619 
L 145.558732 233.4664 
L 147.446258 222.506291 
L 153.108837 227.242258 
L 154.996364 219.137039 
L 156.88389 217.935824 
L 158.771416 216.624868 
L 160.658943 212.737798 
L 166.321522 218.015957 
L 168.209049 223.45899 
L 170.096575 228.467899 
L 171.984101 210.59932 
L 173.871628 204.751559 
L 179.534207 204.754614 
L 181.421734 196.228331 
L 183.30926 191.486877 
L 185.196786 205.199649 
L 187.084313 212.774704 
L 192.746892 216.939976 
L 194.634419 221.125492 
L 196.521945 226.117407 
L 198.409471 215.318968 
L 200.296998 216.280139 
L 205.959577 213.617983 
L 207.847104 208.479107 
L 209.73463 203.763708 
L 211.622156 208.720483 
L 213.509683 210.341307 
L 219.172262 208.509506 
L 221.059789 212.787932 
L 222.947315 223.351026 
L 224.834841 222.759823 
L 226.722368 214.432778 
L 232.384947 211.224698 
L 234.272474 213.706772 
L 236.16 215.397638 
L 238.047526 215.436173 
L 239.935053 218.587088 
L 245.597632 215.197018 
L 247.485159 210.329789 
L 249.372685 208.087965 
L 253.147738 229.708792 
L 258.810317 216.376352 
L 260.697844 233.178618 
L 262.58537 244.635825 
L 264.472896 234.778734 
L 266.360423 243.785175 
L 272.023002 229.224936 
L 273.910529 214.927041 
L 275.798055 211.371125 
L 277.685581 213.178261 
L 279.573108 210.985111 
L 285.235687 221.824228 
L 287.123214 220.188049 
L 289.01074 217.02007 
L 290.898266 214.118732 
L 292.785793 224.636606 
L 298.448372 233.104453 
L 300.335899 220.623888 
L 302.223425 216.114926 
L 304.110951 207.794203 
L 311.661057 195.785457 
L 313.548584 197.536732 
L 315.43611 196.683451 
L 317.323636 197.411265 
L 319.211163 202.534539 
L 324.873742 190.659774 
L 326.761268 182.601983 
L 328.648795 202.325808 
L 330.536321 202.412698 
L 332.423848 200.036316 
L 338.086427 199.815403 
L 339.973953 196.037715 
L 341.86148 196.172832 
L 343.749006 208.041629 
L 345.636533 204.38543 
L 353.186638 221.633539 
L 355.074165 225.591825 
L 356.961691 233.273431 
L 358.849218 251.4637 
L 364.511797 251.16812 
L 366.399323 254.496313 
L 368.28685 256.336862 
L 370.174376 262.740615 
L 372.061903 241.362069 
L 377.724482 226.785854 
L 379.612008 216.297796 
L 381.499535 202.379068 
L 383.387061 252.635488 
L 385.274588 245.333871 
L 390.937167 249.037462 
L 392.824693 246.696973 
L 394.71222 237.741299 
L 396.599746 249.821616 
L 398.487273 265.797818 
" style="fill:none;stroke:#0d0d0d;stroke-linecap:square;stroke-opacity:0.25;stroke-width:2;"/>
   </g>
   <g id="line2d_17">
    <path clip-path="url(#p6e82c1bdbf)" d="M 73.832727 188.15627 
L 75.720254 180.835515 
L 77.60778 175.232571 
L 79.495307 179.604691 
L 81.382833 168.362324 
L 87.045412 160.091056 
L 88.932939 157.701339 
L 90.820465 157.31742 
L 92.707992 158.88125 
L 94.595518 158.945168 
L 102.145624 155.631202 
L 104.03315 158.618337 
L 105.920677 160.10944 
L 107.808203 163.823807 
L 113.470782 159.688197 
L 115.358309 170.129509 
L 117.245835 164.742208 
L 119.133362 167.066594 
L 121.020888 177.118485 
L 126.683467 190.428447 
L 128.570994 189.830099 
L 130.45852 182.667692 
L 132.346047 171.023097 
L 134.233573 162.257026 
L 139.896152 159.316767 
L 141.783679 174.634553 
L 143.671205 176.082909 
L 145.558732 183.802477 
L 147.446258 170.437471 
L 153.108837 178.279023 
L 154.996364 164.666074 
L 156.88389 162.538196 
L 158.771416 161.619388 
L 160.658943 155.83059 
L 166.321522 163.138493 
L 168.209049 170.471375 
L 170.096575 168.455476 
L 171.984101 146.904159 
L 173.871628 139.814262 
L 179.534207 128.881153 
L 181.421734 120.894537 
L 183.30926 116.048051 
L 185.196786 136.778281 
L 187.084313 136.004244 
L 192.746892 141.068706 
L 194.634419 145.785639 
L 196.521945 148.873242 
L 198.409471 137.575901 
L 200.296998 131.208396 
L 205.959577 134.87846 
L 207.847104 129.756486 
L 209.73463 119.5335 
L 211.622156 120.691376 
L 213.509683 120.059071 
L 219.172262 117.250354 
L 221.059789 125.634348 
L 222.947315 127.933093 
L 224.834841 127.661184 
L 226.722368 114.912065 
L 232.384947 115.375113 
L 234.272474 114.17264 
L 236.16 110.296943 
L 238.047526 110.506726 
L 239.935053 110.025499 
L 245.597632 96.193064 
L 247.485159 86.47472 
L 249.372685 85.555675 
L 253.147738 106.604096 
L 258.810317 90.450153 
L 260.697844 117.649191 
L 262.58537 137.835255 
L 264.472896 127.992336 
L 266.360423 132.721594 
L 272.023002 114.756285 
L 273.910529 101.730533 
L 275.798055 94.666439 
L 277.685581 94.548846 
L 279.573108 91.134386 
L 285.235687 100.908521 
L 287.123214 99.270915 
L 289.01074 91.507922 
L 290.898266 92.856413 
L 292.785793 102.303892 
L 298.448372 118.48984 
L 300.335899 98.441632 
L 302.223425 89.890765 
L 304.110951 81.555978 
L 311.661057 69.901998 
L 313.548584 70.356669 
L 315.43611 70.343857 
L 317.323636 71.513244 
L 319.211163 73.06112 
L 324.873742 64.134131 
L 326.761268 52.154182 
L 328.648795 77.889263 
L 330.536321 75.65077 
L 332.423848 69.503386 
L 338.086427 69.825681 
L 339.973953 66.631812 
L 341.86148 64.683421 
L 343.749006 75.620263 
L 345.636533 75.108731 
L 353.186638 96.084213 
L 355.074165 105.09729 
L 356.961691 114.141252 
L 358.849218 132.61851 
L 364.511797 133.281116 
L 366.399323 127.266773 
L 368.28685 127.948792 
L 370.174376 132.951908 
L 372.061903 113.755232 
L 377.724482 98.461329 
L 379.612008 84.477901 
L 381.499535 71.733822 
L 383.387061 98.091272 
L 385.274588 90.366017 
L 390.937167 93.141906 
L 392.824693 88.960558 
L 394.71222 81.330499 
L 396.599746 101.103827 
L 398.487273 121.367939 
" style="fill:none;stroke:#0d0d0d;stroke-linecap:square;stroke-opacity:0.25;stroke-width:2;"/>
   </g>
   <g id="patch_3">
    <path d="M 57.6 276.48 
L 57.6 41.472 
" style="fill:none;stroke:#000000;stroke-linecap:square;stroke-linejoin:miter;stroke-width:0.8;"/>
   </g>
   <g id="patch_4">
    <path d="M 414.72 276.48 
L 414.72 41.472 
" style="fill:none;stroke:#000000;stroke-linecap:square;stroke-linejoin:miter;stroke-width:0.8;"/>
   </g>
   <g id="patch_5">
    <path d="M 57.6 276.48 
L 414.72 276.48 
" style="fill:none;stroke:#000000;stroke-linecap:square;stroke-linejoin:miter;stroke-width:0.8;"/>
   </g>
   <g id="patch_6">
    <path d="M 57.6 41.472 
L 414.72 41.472 
" style="fill:none;stroke:#000000;stroke-linecap:square;stroke-linejoin:miter;stroke-width:0.8;"/>
   </g>
   <g id="text_14">
    <!-- TESTFUNDS1550 -->
    <g transform="translate(185.200312 22.034625)scale(0.12 -0.12)">
     <defs>
      <path d="M -19 4666 
L 3928 4666 
L 3928 4134 
L 2272 4134 
L 2272 0 
L 1638 0 
L 1638 4134 
L -19 4134 
L -19 4666 
z
" id="DejaVuSans-54" transform="scale(0.015625)"/>
      <path d="M 628 4666 
L 3578 4666 
L 3578 4134 
L 1259 4134 
L 1259 2753 
L 3481 2753 
L 3481 2222 
L 1259 2222 
L 1259 531 
L 3634 531 
L 3634 0 
L 628 0 
L 628 4666 
z
" id="DejaVuSans-45" transform="scale(0.015625)"/>
      <path d="M 3425 4513 
L 3425 3897 
Q 3066 4069 2747 4153 
Q 2428 4238 2131 4238 
Q 1616 4238 1336 4038 
Q 1056 3838 1056 3469 
Q 1056 3159 1242 3001 
Q 1428 2844 1947 2747 
L 2328 2669 
Q 3034 2534 3370 2195 
Q 3706 1856 3706 1288 
Q 3706 609 3251 259 
Q 2797 -91 1919 -91 
Q 1588 -91 1214 -16 
Q 841 59 441 206 
L 441 856 
Q 825 641 1194 531 
Q 1563 422 1919 422 
Q 2459 422 2753 634 
Q 3047 847 3047 1241 
Q 3047 1584 2836 1778 
Q 2625 1972 2144 2069 
L 1759 2144 
Q 1053 2284 737 2584 
Q 422 2884 422 3419 
Q 422 4038 858 4394 
Q 1294 4750 2059 4750 
Q 2388 4750 2728 4690 
Q 3069 4631 3425 4513 
z
" id="DejaVuSans-53" transform="scale(0.015625)"/>
      <path d="M 628 4666 
L 3309 4666 
L 3309 4134 
L 1259 4134 
L 1259 2759 
L 3109 2759 
L 3109 2228 
L 1259 2228 
L 1259 0 
L 628 0 
L 628 4666 
z
" id="DejaVuSans-46" transform="scale(0.015625)"/>
      <path d="M 556 4666 
L 1191 4666 
L 1191 1831 
Q 1191 1081 1462 751 
Q 1734 422 2344 422 
Q 2950 422 3222 751 
Q 3494 1081 3494 1831 
L 3494 4666 
L 4128 4666 
L 4128 1753 
Q 4128 841 3676 375 
Q 3225 -91 2344 -91 
Q 1459 -91 1007 375 
Q 556 841 556 1753 
L 556 4666 
z
" id="DejaVuSans-55" transform="scale(0.015625)"/>
      <path d="M 628 4666 
L 1478 4666 
L 3547 763 
L 3547 4666 
L 4159 4666 
L 4159 0 
L 3309 0 
L 1241 3903 
L 1241 0 
L 628 0 
L 628 4666 
z
" id="DejaVuSans-4e" transform="scale(0.015625)"/>
      <path d="M 1259 4147 
L 1259 519 
L 2022 519 
Q 2988 519 3436 956 
Q 3884 1394 3884 2338 
Q 3884 3275 3436 3711 
Q 2988 4147 2022 4147 
L 1259 4147 
z
M 628 4666 
L 1925 4666 
Q 3281 4666 3915 4102 
Q 4550 3538 4550 2338 
Q 4550 1131 3912 565 
Q 3275 0 1925 0 
L 628 0 
L 628 4666 
z
" id="DejaVuSans-44" transform="scale(0.015625)"/>
     </defs>
     <use xlink:href="#DejaVuSans-54"/>
     <use x="61.083984" xlink:href="#DejaVuSans-45"/>
     <use x="124.267578" xlink:href="#DejaVuSans-53"/>
     <use x="187.744141" xlink:href="#DejaVuSans-54"/>
     <use x="248.828125" xlink:href="#DejaVuSans-46"/>
     <use x="306.347656" xlink:href="#DejaVuSans-55"/>
     <use x="379.541016" xlink:href="#DejaVuSans-4e"/>
     <use x="454.345703" xlink:href="#DejaVuSans-44"/>
     <use x="531.347656" xlink:href="#DejaVuSans-53"/>
     <use x="594.824219" xlink:href="#DejaVuSans-31"/>
     <use x="658.447266" xlink:href="#DejaVuSans-35"/>
     <use x="722.070312" xlink:href="#DejaVuSans-35"/>
     <use x="785.693359" xlink:href="#DejaVuSans-30"/>
    </g>
    <!-- daily_report -->
    <g transform="translate(200.466563 35.472)scale(0.12 -0.12)">
     <defs>
      <path d="M 603 3500 
L 1178 3500 
L 1178 0 
L 603 0 
L 603 3500 
z
M 603 4863 
L 1178 4863 
L 1178 4134 
L 603 4134 
L 603 4863 
z
" id="DejaVuSans-69" transform="scale(0.015625)"/>
      <path d="M 603 4863 
L 1178 4863 
L 1178 0 
L 603 0 
L 603 4863 
z
" id="DejaVuSans-6c" transform="scale(0.015625)"/>
      <path d="M 2059 -325 
Q 1816 -950 1584 -1140 
Q 1353 -1331 966 -1331 
L 506 -1331 
L 506 -850 
L 844 -850 
Q 1081 -850 1212 -737 
Q 1344 -625 1503 -206 
L 1606 56 
L 191 3500 
L 800 3500 
L 1894 763 
L 2988 3500 
L 3597 3500 
L 2059 -325 
z
" id="DejaVuSans-79" transform="scale(0.015625)"/>
      <path d="M 3263 -1063 
L 3263 -1509 
L -63 -1509 
L -63 -1063 
L 3263 -1063 
z
" id="DejaVuSans-5f" transform="scale(0.015625)"/>
      <path d="M 2631 2963 
Q 2534 3019 2420 3045 
Q 2306 3072 2169 3072 
Q 1681 3072 1420 2755 
Q 1159 2438 1159 1844 
L 1159 0 
L 581 0 
L 581 3500 
L 1159 3500 
L 1159 2956 
Q 1341 3275 1631 3429 
Q 1922 3584 2338 3584 
Q 2397 3584 2469 3576 
Q 2541 3569 2628 3553 
L 2631 2963 
z
" id="DejaVuSans-72" transform="scale(0.015625)"/>
      <path d="M 1159 525 
L 1159 -1331 
L 581 -1331 
L 581 3500 
L 1159 3500 
L 1159 2969 
Q 1341 3281 1617 3432 
Q 1894 3584 2278 3584 
Q 2916 3584 3314 3078 
Q 3713 2572 3713 1747 
Q 3713 922 3314 415 
Q 2916 -91 2278 -91 
Q 1894 -91 1617 61 
Q 1341 213 1159 525 
z
M 3116 1747 
Q 3116 2381 2855 2742 
Q 2594 3103 2138 3103 
Q 1681 3103 1420 2742 
Q 1159 2381 1159 1747 
Q 1159 1113 1420 752 
Q 1681 391 2138 391 
Q 2594 391 2855 752 
Q 3116 1113 3116 1747 
z
" id="DejaVuSans-70" transform="scale(0.015625)"/>
      <path d="M 1959 3097 
Q 1497 3097 1228 2736 
Q 959 2375 959 1747 
Q 959 1119 1226 758 
Q 1494 397 1959 397 
Q 2419 397 2687 759 
Q 2956 1122 2956 1747 
Q 2956 2369 2687 2733 
Q 2419 3097 1959 3097 
z
M 1959 3584 
Q 2709 3584 3137 3096 
Q 3566 2609 3566 1747 
Q 3566 888 3137 398 
Q 2709 -91 1959 -91 
Q 1206 -91 779 398 
Q 353 888 353 1747 
Q 353 2609 779 3096 
Q 1206 3584 1959 3584 
z
" id="DejaVuSans-6f" transform="scale(0.015625)"/>
     </defs>
     <use xlink:href="#DejaVuSans-64"/>
     <use x="63.476562" xlink:href="#DejaVuSans-61"/>
     <use x="124.755859" xlink:href="#DejaVuSans-69"/>
     <use x="152.539062" xlink:href="#DejaVuSans-6c"/>
     <use x="180.322266" xlink:href="#DejaVuSans-79"/>
     <use x="239.501953" xlink:href="#DejaVuSans-5f"/>
     <use x="289.501953" xlink:href="#DejaVuSans-72"/>
     <use x="328.365234" xlink:href="#DejaVuSans-65"/>
     <use x="389.888672" xlink:href="#DejaVuSans-70"/>
     <use x="453.365234" xlink:href="#DejaVuSans-6f"/>
     <use x="514.546875" xlink:href="#DejaVuSans-72"/>
     <use x="555.660156" xlink:href="#DejaVuSans-74"/>
    </g>
   </g>
   <g id="legend_1">
    <g id="patch_7">
     <path d="M 64.6 122.862625 
L 155.792188 122.862625 
Q 157.792188 122.862625 157.792188 120.862625 
L 157.792188 48.472 
Q 157.792188 46.472 155.792188 46.472 
L 64.6 46.472 
Q 62.6 46.472 62.6 48.472 
L 62.6 120.862625 
Q 62.6 122.862625 64.6 122.862625 
z
" style="fill:#ffffff;opacity:0.8;stroke:#cccccc;stroke-linejoin:miter;"/>
    </g>
    <g id="line2d_18">
     <path d="M 66.6 54.570437 
L 86.6 54.570437 
" style="fill:none;stroke:#0000ff;stroke-linecap:square;stroke-opacity:0.9;stroke-width:2;"/>
    </g>
    <g id="line2d_19"/>
    <g id="text_15">
     <!-- alpaca -->
     <g transform="translate(94.6 58.070437)scale(0.1 -0.1)">
      <defs>
       <path d="M 3122 3366 
L 3122 2828 
Q 2878 2963 2633 3030 
Q 2388 3097 2138 3097 
Q 1578 3097 1268 2742 
Q 959 2388 959 1747 
Q 959 1106 1268 751 
Q 1578 397 2138 397 
Q 2388 397 2633 464 
Q 2878 531 3122 666 
L 3122 134 
Q 2881 22 2623 -34 
Q 2366 -91 2075 -91 
Q 1284 -91 818 406 
Q 353 903 353 1747 
Q 353 2603 823 3093 
Q 1294 3584 2113 3584 
Q 2378 3584 2631 3529 
Q 2884 3475 3122 3366 
z
" id="DejaVuSans-63" transform="scale(0.015625)"/>
      </defs>
      <use xlink:href="#DejaVuSans-61"/>
      <use x="61.279297" xlink:href="#DejaVuSans-6c"/>
      <use x="89.0625" xlink:href="#DejaVuSans-70"/>
      <use x="152.539062" xlink:href="#DejaVuSans-61"/>
      <use x="213.818359" xlink:href="#DejaVuSans-63"/>
      <use x="268.798828" xlink:href="#DejaVuSans-61"/>
     </g>
    </g>
    <g id="line2d_20">
     <path d="M 66.6 69.248562 
L 86.6 69.248562 
" style="fill:none;stroke:#ff0000;stroke-linecap:square;stroke-opacity:0.9;stroke-width:2;"/>
    </g>
    <g id="line2d_21"/>
    <g id="text_16">
     <!-- mattress -->
     <g transform="translate(94.6 72.748562)scale(0.1 -0.1)">
      <defs>
       <path d="M 3328 2828 
Q 3544 3216 3844 3400 
Q 4144 3584 4550 3584 
Q 5097 3584 5394 3201 
Q 5691 2819 5691 2113 
L 5691 0 
L 5113 0 
L 5113 2094 
Q 5113 2597 4934 2840 
Q 4756 3084 4391 3084 
Q 3944 3084 3684 2787 
Q 3425 2491 3425 1978 
L 3425 0 
L 2847 0 
L 2847 2094 
Q 2847 2600 2669 2842 
Q 2491 3084 2119 3084 
Q 1678 3084 1418 2786 
Q 1159 2488 1159 1978 
L 1159 0 
L 581 0 
L 581 3500 
L 1159 3500 
L 1159 2956 
Q 1356 3278 1631 3431 
Q 1906 3584 2284 3584 
Q 2666 3584 2933 3390 
Q 3200 3197 3328 2828 
z
" id="DejaVuSans-6d" transform="scale(0.015625)"/>
       <path d="M 2834 3397 
L 2834 2853 
Q 2591 2978 2328 3040 
Q 2066 3103 1784 3103 
Q 1356 3103 1142 2972 
Q 928 2841 928 2578 
Q 928 2378 1081 2264 
Q 1234 2150 1697 2047 
L 1894 2003 
Q 2506 1872 2764 1633 
Q 3022 1394 3022 966 
Q 3022 478 2636 193 
Q 2250 -91 1575 -91 
Q 1294 -91 989 -36 
Q 684 19 347 128 
L 347 722 
Q 666 556 975 473 
Q 1284 391 1588 391 
Q 1994 391 2212 530 
Q 2431 669 2431 922 
Q 2431 1156 2273 1281 
Q 2116 1406 1581 1522 
L 1381 1569 
Q 847 1681 609 1914 
Q 372 2147 372 2553 
Q 372 3047 722 3315 
Q 1072 3584 1716 3584 
Q 2034 3584 2315 3537 
Q 2597 3491 2834 3397 
z
" id="DejaVuSans-73" transform="scale(0.015625)"/>
      </defs>
      <use xlink:href="#DejaVuSans-6d"/>
      <use x="97.412109" xlink:href="#DejaVuSans-61"/>
      <use x="158.691406" xlink:href="#DejaVuSans-74"/>
      <use x="197.900391" xlink:href="#DejaVuSans-74"/>
      <use x="237.109375" xlink:href="#DejaVuSans-72"/>
      <use x="275.972656" xlink:href="#DejaVuSans-65"/>
      <use x="337.496094" xlink:href="#DejaVuSans-73"/>
      <use x="389.595703" xlink:href="#DejaVuSans-73"/>
     </g>
    </g>
    <g id="line2d_22">
     <path d="M 66.6 83.926687 
L 86.6 83.926687 
" style="fill:none;stroke:#ff8040;stroke-linecap:square;stroke-opacity:0.9;stroke-width:2;"/>
    </g>
    <g id="line2d_23"/>
    <g id="text_17">
     <!-- trader-0850 -->
     <g transform="translate(94.6 87.426687)scale(0.1 -0.1)">
      <defs>
       <path d="M 2034 2216 
Q 1584 2216 1326 1975 
Q 1069 1734 1069 1313 
Q 1069 891 1326 650 
Q 1584 409 2034 409 
Q 2484 409 2743 651 
Q 3003 894 3003 1313 
Q 3003 1734 2745 1975 
Q 2488 2216 2034 2216 
z
M 1403 2484 
Q 997 2584 770 2862 
Q 544 3141 544 3541 
Q 544 4100 942 4425 
Q 1341 4750 2034 4750 
Q 2731 4750 3128 4425 
Q 3525 4100 3525 3541 
Q 3525 3141 3298 2862 
Q 3072 2584 2669 2484 
Q 3125 2378 3379 2068 
Q 3634 1759 3634 1313 
Q 3634 634 3220 271 
Q 2806 -91 2034 -91 
Q 1263 -91 848 271 
Q 434 634 434 1313 
Q 434 1759 690 2068 
Q 947 2378 1403 2484 
z
M 1172 3481 
Q 1172 3119 1398 2916 
Q 1625 2713 2034 2713 
Q 2441 2713 2670 2916 
Q 2900 3119 2900 3481 
Q 2900 3844 2670 4047 
Q 2441 4250 2034 4250 
Q 1625 4250 1398 4047 
Q 1172 3844 1172 3481 
z
" id="DejaVuSans-38" transform="scale(0.015625)"/>
      </defs>
      <use xlink:href="#DejaVuSans-74"/>
      <use x="39.208984" xlink:href="#DejaVuSans-72"/>
      <use x="80.322266" xlink:href="#DejaVuSans-61"/>
      <use x="141.601562" xlink:href="#DejaVuSans-64"/>
      <use x="205.078125" xlink:href="#DejaVuSans-65"/>
      <use x="266.601562" xlink:href="#DejaVuSans-72"/>
      <use x="301.339844" xlink:href="#DejaVuSans-2d"/>
      <use x="337.423828" xlink:href="#DejaVuSans-30"/>
      <use x="401.046875" xlink:href="#DejaVuSans-38"/>
      <use x="464.669922" xlink:href="#DejaVuSans-35"/>
      <use x="528.292969" xlink:href="#DejaVuSans-30"/>
     </g>
    </g>
    <g id="line2d_24">
     <path d="M 66.6 98.604812 
L 86.6 98.604812 
" style="fill:none;stroke:#0d0d0d;stroke-linecap:square;stroke-opacity:0.25;stroke-width:2;"/>
    </g>
    <g id="line2d_25"/>
    <g id="text_18">
     <!-- rando-min -->
     <g transform="translate(94.6 102.104812)scale(0.1 -0.1)">
      <defs>
       <path d="M 3513 2113 
L 3513 0 
L 2938 0 
L 2938 2094 
Q 2938 2591 2744 2837 
Q 2550 3084 2163 3084 
Q 1697 3084 1428 2787 
Q 1159 2491 1159 1978 
L 1159 0 
L 581 0 
L 581 3500 
L 1159 3500 
L 1159 2956 
Q 1366 3272 1645 3428 
Q 1925 3584 2291 3584 
Q 2894 3584 3203 3211 
Q 3513 2838 3513 2113 
z
" id="DejaVuSans-6e" transform="scale(0.015625)"/>
      </defs>
      <use xlink:href="#DejaVuSans-72"/>
      <use x="41.113281" xlink:href="#DejaVuSans-61"/>
      <use x="102.392578" xlink:href="#DejaVuSans-6e"/>
      <use x="165.771484" xlink:href="#DejaVuSans-64"/>
      <use x="229.248047" xlink:href="#DejaVuSans-6f"/>
      <use x="292.304688" xlink:href="#DejaVuSans-2d"/>
      <use x="328.388672" xlink:href="#DejaVuSans-6d"/>
      <use x="425.800781" xlink:href="#DejaVuSans-69"/>
      <use x="453.583984" xlink:href="#DejaVuSans-6e"/>
     </g>
    </g>
    <g id="line2d_26">
     <path d="M 66.6 113.282937 
L 86.6 113.282937 
" style="fill:none;stroke:#0d0d0d;stroke-linecap:square;stroke-opacity:0.25;stroke-width:2;"/>
    </g>
    <g id="line2d_27"/>
    <g id="text_19">
     <!-- rando-max -->
     <g transform="translate(94.6 116.782937)scale(0.1 -0.1)">
      <defs>
       <path d="M 3513 3500 
L 2247 1797 
L 3578 0 
L 2900 0 
L 1881 1375 
L 863 0 
L 184 0 
L 1544 1831 
L 300 3500 
L 978 3500 
L 1906 2253 
L 2834 3500 
L 3513 3500 
z
" id="DejaVuSans-78" transform="scale(0.015625)"/>
      </defs>
      <use xlink:href="#DejaVuSans-72"/>
      <use x="41.113281" xlink:href="#DejaVuSans-61"/>
      <use x="102.392578" xlink:href="#DejaVuSans-6e"/>
      <use x="165.771484" xlink:href="#DejaVuSans-64"/>
      <use x="229.248047" xlink:href="#DejaVuSans-6f"/>
      <use x="292.304688" xlink:href="#DejaVuSans-2d"/>
      <use x="328.388672" xlink:href="#DejaVuSans-6d"/>
      <use x="425.800781" xlink:href="#DejaVuSans-61"/>
      <use x="487.080078" xlink:href="#DejaVuSans-78"/>
     </g>
    </g>
   </g>
  </g>
 </g>
 <defs>
  <clipPath id="p6e82c1bdbf">
   <rect height="235.008" width="357.12" x="57.6" y="41.472"/>
  </clipPath>
 </defs>
</svg>
