<?xml version="1.0" encoding="utf-8" standalone="no"?>
<!DOCTYPE svg PUBLIC "-//W3C//DTD SVG 1.1//EN"
  "http://www.w3.org/Graphics/SVG/1.1/DTD/svg11.dtd">
<svg height="345.6pt" version="1.1" viewBox="0 0 460.8 345.6" width="460.8pt" xmlns="http://www.w3.org/2000/svg" xmlns:xlink="http://www.w3.org/1999/xlink">
 <metadata>
  <rdf:RDF xmlns:cc="http://creativecommons.org/ns#" xmlns:dc="http://purl.org/dc/elements/1.1/" xmlns:rdf="http://www.w3.org/1999/02/22-rdf-syntax-ns#">
   <cc:Work>
    <dc:type rdf:resource="http://purl.org/dc/dcmitype/StillImage"/>
    <dc:date>2022-06-07T10:02:01.551478</dc:date>
    <dc:format>image/svg+xml</dc:format>
    <dc:creator>
     <cc:Agent>
      <dc:title>Matplotlib v3.4.3, https://matplotlib.org/</dc:title>
     </cc:Agent>
    </dc:creator>
   </cc:Work>
  </rdf:RDF>
 </metadata>
 <defs>
  <style type="text/css">*{stroke-linecap:butt;stroke-linejoin:round;}</style>
 </defs>
 <g id="figure_1">
  <g id="patch_1">
   <path d="M 0 345.6 
L 460.8 345.6 
L 460.8 0 
L 0 0 
z
" style="fill:#ffffff;"/>
  </g>
  <g id="axes_1">
   <g id="patch_2">
    <path d="M 57.6 276.48 
L 414.72 276.48 
L 414.72 41.472 
L 57.6 41.472 
z
" style="fill:#ffffff;"/>
   </g>
   <g id="matplotlib.axis_1">
    <g id="xtick_1">
     <g id="line2d_1">
      <defs>
       <path d="M 0 0 
L 0 3.5 
" id="m05304d8de3" style="stroke:#000000;stroke-width:0.8;"/>
      </defs>
      <g>
       <use style="stroke:#000000;stroke-width:0.8;" x="94.935273" xlink:href="#m05304d8de3" y="276.48"/>
      </g>
     </g>
     <g id="text_1">
      <!-- 2021-12 -->
      <g transform="translate(57.710452 310.951846)rotate(-30)scale(0.1 -0.1)">
       <defs>
        <path d="M 1228 531 
L 3431 531 
L 3431 0 
L 469 0 
L 469 531 
Q 828 903 1448 1529 
Q 2069 2156 2228 2338 
Q 2531 2678 2651 2914 
Q 2772 3150 2772 3378 
Q 2772 3750 2511 3984 
Q 2250 4219 1831 4219 
Q 1534 4219 1204 4116 
Q 875 4013 500 3803 
L 500 4441 
Q 881 4594 1212 4672 
Q 1544 4750 1819 4750 
Q 2544 4750 2975 4387 
Q 3406 4025 3406 3419 
Q 3406 3131 3298 2873 
Q 3191 2616 2906 2266 
Q 2828 2175 2409 1742 
Q 1991 1309 1228 531 
z
" id="DejaVuSans-32" transform="scale(0.015625)"/>
        <path d="M 2034 4250 
Q 1547 4250 1301 3770 
Q 1056 3291 1056 2328 
Q 1056 1369 1301 889 
Q 1547 409 2034 409 
Q 2525 409 2770 889 
Q 3016 1369 3016 2328 
Q 3016 3291 2770 3770 
Q 2525 4250 2034 4250 
z
M 2034 4750 
Q 2819 4750 3233 4129 
Q 3647 3509 3647 2328 
Q 3647 1150 3233 529 
Q 2819 -91 2034 -91 
Q 1250 -91 836 529 
Q 422 1150 422 2328 
Q 422 3509 836 4129 
Q 1250 4750 2034 4750 
z
" id="DejaVuSans-30" transform="scale(0.015625)"/>
        <path d="M 794 531 
L 1825 531 
L 1825 4091 
L 703 3866 
L 703 4441 
L 1819 4666 
L 2450 4666 
L 2450 531 
L 3481 531 
L 3481 0 
L 794 0 
L 794 531 
z
" id="DejaVuSans-31" transform="scale(0.015625)"/>
        <path d="M 313 2009 
L 1997 2009 
L 1997 1497 
L 313 1497 
L 313 2009 
z
" id="DejaVuSans-2d" transform="scale(0.015625)"/>
       </defs>
       <use xlink:href="#DejaVuSans-32"/>
       <use x="63.623047" xlink:href="#DejaVuSans-30"/>
       <use x="127.246094" xlink:href="#DejaVuSans-32"/>
       <use x="190.869141" xlink:href="#DejaVuSans-31"/>
       <use x="254.492188" xlink:href="#DejaVuSans-2d"/>
       <use x="290.576172" xlink:href="#DejaVuSans-31"/>
       <use x="354.199219" xlink:href="#DejaVuSans-32"/>
      </g>
     </g>
    </g>
    <g id="xtick_2">
     <g id="line2d_2">
      <g>
       <use style="stroke:#000000;stroke-width:0.8;" x="145.256727" xlink:href="#m05304d8de3" y="276.48"/>
      </g>
     </g>
     <g id="text_2">
      <!-- 2022-01 -->
      <g transform="translate(108.031906 310.951846)rotate(-30)scale(0.1 -0.1)">
       <use xlink:href="#DejaVuSans-32"/>
       <use x="63.623047" xlink:href="#DejaVuSans-30"/>
       <use x="127.246094" xlink:href="#DejaVuSans-32"/>
       <use x="190.869141" xlink:href="#DejaVuSans-32"/>
       <use x="254.492188" xlink:href="#DejaVuSans-2d"/>
       <use x="290.576172" xlink:href="#DejaVuSans-30"/>
       <use x="354.199219" xlink:href="#DejaVuSans-31"/>
      </g>
     </g>
    </g>
    <g id="xtick_3">
     <g id="line2d_3">
      <g>
       <use style="stroke:#000000;stroke-width:0.8;" x="195.578182" xlink:href="#m05304d8de3" y="276.48"/>
      </g>
     </g>
     <g id="text_3">
      <!-- 2022-02 -->
      <g transform="translate(158.353361 310.951846)rotate(-30)scale(0.1 -0.1)">
       <use xlink:href="#DejaVuSans-32"/>
       <use x="63.623047" xlink:href="#DejaVuSans-30"/>
       <use x="127.246094" xlink:href="#DejaVuSans-32"/>
       <use x="190.869141" xlink:href="#DejaVuSans-32"/>
       <use x="254.492188" xlink:href="#DejaVuSans-2d"/>
       <use x="290.576172" xlink:href="#DejaVuSans-30"/>
       <use x="354.199219" xlink:href="#DejaVuSans-32"/>
      </g>
     </g>
    </g>
    <g id="xtick_4">
     <g id="line2d_4">
      <g>
       <use style="stroke:#000000;stroke-width:0.8;" x="241.029818" xlink:href="#m05304d8de3" y="276.48"/>
      </g>
     </g>
     <g id="text_4">
      <!-- 2022-03 -->
      <g transform="translate(203.804997 310.951846)rotate(-30)scale(0.1 -0.1)">
       <defs>
        <path d="M 2597 2516 
Q 3050 2419 3304 2112 
Q 3559 1806 3559 1356 
Q 3559 666 3084 287 
Q 2609 -91 1734 -91 
Q 1441 -91 1130 -33 
Q 819 25 488 141 
L 488 750 
Q 750 597 1062 519 
Q 1375 441 1716 441 
Q 2309 441 2620 675 
Q 2931 909 2931 1356 
Q 2931 1769 2642 2001 
Q 2353 2234 1838 2234 
L 1294 2234 
L 1294 2753 
L 1863 2753 
Q 2328 2753 2575 2939 
Q 2822 3125 2822 3475 
Q 2822 3834 2567 4026 
Q 2313 4219 1838 4219 
Q 1578 4219 1281 4162 
Q 984 4106 628 3988 
L 628 4550 
Q 988 4650 1302 4700 
Q 1616 4750 1894 4750 
Q 2613 4750 3031 4423 
Q 3450 4097 3450 3541 
Q 3450 3153 3228 2886 
Q 3006 2619 2597 2516 
z
" id="DejaVuSans-33" transform="scale(0.015625)"/>
       </defs>
       <use xlink:href="#DejaVuSans-32"/>
       <use x="63.623047" xlink:href="#DejaVuSans-30"/>
       <use x="127.246094" xlink:href="#DejaVuSans-32"/>
       <use x="190.869141" xlink:href="#DejaVuSans-32"/>
       <use x="254.492188" xlink:href="#DejaVuSans-2d"/>
       <use x="290.576172" xlink:href="#DejaVuSans-30"/>
       <use x="354.199219" xlink:href="#DejaVuSans-33"/>
      </g>
     </g>
    </g>
    <g id="xtick_5">
     <g id="line2d_5">
      <g>
       <use style="stroke:#000000;stroke-width:0.8;" x="291.351273" xlink:href="#m05304d8de3" y="276.48"/>
      </g>
     </g>
     <g id="text_5">
      <!-- 2022-04 -->
      <g transform="translate(254.126452 310.951846)rotate(-30)scale(0.1 -0.1)">
       <defs>
        <path d="M 2419 4116 
L 825 1625 
L 2419 1625 
L 2419 4116 
z
M 2253 4666 
L 3047 4666 
L 3047 1625 
L 3713 1625 
L 3713 1100 
L 3047 1100 
L 3047 0 
L 2419 0 
L 2419 1100 
L 313 1100 
L 313 1709 
L 2253 4666 
z
" id="DejaVuSans-34" transform="scale(0.015625)"/>
       </defs>
       <use xlink:href="#DejaVuSans-32"/>
       <use x="63.623047" xlink:href="#DejaVuSans-30"/>
       <use x="127.246094" xlink:href="#DejaVuSans-32"/>
       <use x="190.869141" xlink:href="#DejaVuSans-32"/>
       <use x="254.492188" xlink:href="#DejaVuSans-2d"/>
       <use x="290.576172" xlink:href="#DejaVuSans-30"/>
       <use x="354.199219" xlink:href="#DejaVuSans-34"/>
      </g>
     </g>
    </g>
    <g id="xtick_6">
     <g id="line2d_6">
      <g>
       <use style="stroke:#000000;stroke-width:0.8;" x="340.049455" xlink:href="#m05304d8de3" y="276.48"/>
      </g>
     </g>
     <g id="text_6">
      <!-- 2022-05 -->
      <g transform="translate(302.824634 310.951846)rotate(-30)scale(0.1 -0.1)">
       <defs>
        <path d="M 691 4666 
L 3169 4666 
L 3169 4134 
L 1269 4134 
L 1269 2991 
Q 1406 3038 1543 3061 
Q 1681 3084 1819 3084 
Q 2600 3084 3056 2656 
Q 3513 2228 3513 1497 
Q 3513 744 3044 326 
Q 2575 -91 1722 -91 
Q 1428 -91 1123 -41 
Q 819 9 494 109 
L 494 744 
Q 775 591 1075 516 
Q 1375 441 1709 441 
Q 2250 441 2565 725 
Q 2881 1009 2881 1497 
Q 2881 1984 2565 2268 
Q 2250 2553 1709 2553 
Q 1456 2553 1204 2497 
Q 953 2441 691 2322 
L 691 4666 
z
" id="DejaVuSans-35" transform="scale(0.015625)"/>
       </defs>
       <use xlink:href="#DejaVuSans-32"/>
       <use x="63.623047" xlink:href="#DejaVuSans-30"/>
       <use x="127.246094" xlink:href="#DejaVuSans-32"/>
       <use x="190.869141" xlink:href="#DejaVuSans-32"/>
       <use x="254.492188" xlink:href="#DejaVuSans-2d"/>
       <use x="290.576172" xlink:href="#DejaVuSans-30"/>
       <use x="354.199219" xlink:href="#DejaVuSans-35"/>
      </g>
     </g>
    </g>
    <g id="xtick_7">
     <g id="line2d_7">
      <g>
       <use style="stroke:#000000;stroke-width:0.8;" x="390.370909" xlink:href="#m05304d8de3" y="276.48"/>
      </g>
     </g>
     <g id="text_7">
      <!-- 2022-06 -->
      <g transform="translate(353.146088 310.951846)rotate(-30)scale(0.1 -0.1)">
       <defs>
        <path d="M 2113 2584 
Q 1688 2584 1439 2293 
Q 1191 2003 1191 1497 
Q 1191 994 1439 701 
Q 1688 409 2113 409 
Q 2538 409 2786 701 
Q 3034 994 3034 1497 
Q 3034 2003 2786 2293 
Q 2538 2584 2113 2584 
z
M 3366 4563 
L 3366 3988 
Q 3128 4100 2886 4159 
Q 2644 4219 2406 4219 
Q 1781 4219 1451 3797 
Q 1122 3375 1075 2522 
Q 1259 2794 1537 2939 
Q 1816 3084 2150 3084 
Q 2853 3084 3261 2657 
Q 3669 2231 3669 1497 
Q 3669 778 3244 343 
Q 2819 -91 2113 -91 
Q 1303 -91 875 529 
Q 447 1150 447 2328 
Q 447 3434 972 4092 
Q 1497 4750 2381 4750 
Q 2619 4750 2861 4703 
Q 3103 4656 3366 4563 
z
" id="DejaVuSans-36" transform="scale(0.015625)"/>
       </defs>
       <use xlink:href="#DejaVuSans-32"/>
       <use x="63.623047" xlink:href="#DejaVuSans-30"/>
       <use x="127.246094" xlink:href="#DejaVuSans-32"/>
       <use x="190.869141" xlink:href="#DejaVuSans-32"/>
       <use x="254.492188" xlink:href="#DejaVuSans-2d"/>
       <use x="290.576172" xlink:href="#DejaVuSans-30"/>
       <use x="354.199219" xlink:href="#DejaVuSans-36"/>
      </g>
     </g>
    </g>
    <g id="text_8">
     <!-- date -->
     <g transform="translate(224.885 324.351346)scale(0.1 -0.1)">
      <defs>
       <path d="M 2906 2969 
L 2906 4863 
L 3481 4863 
L 3481 0 
L 2906 0 
L 2906 525 
Q 2725 213 2448 61 
Q 2172 -91 1784 -91 
Q 1150 -91 751 415 
Q 353 922 353 1747 
Q 353 2572 751 3078 
Q 1150 3584 1784 3584 
Q 2172 3584 2448 3432 
Q 2725 3281 2906 2969 
z
M 947 1747 
Q 947 1113 1208 752 
Q 1469 391 1925 391 
Q 2381 391 2643 752 
Q 2906 1113 2906 1747 
Q 2906 2381 2643 2742 
Q 2381 3103 1925 3103 
Q 1469 3103 1208 2742 
Q 947 2381 947 1747 
z
" id="DejaVuSans-64" transform="scale(0.015625)"/>
       <path d="M 2194 1759 
Q 1497 1759 1228 1600 
Q 959 1441 959 1056 
Q 959 750 1161 570 
Q 1363 391 1709 391 
Q 2188 391 2477 730 
Q 2766 1069 2766 1631 
L 2766 1759 
L 2194 1759 
z
M 3341 1997 
L 3341 0 
L 2766 0 
L 2766 531 
Q 2569 213 2275 61 
Q 1981 -91 1556 -91 
Q 1019 -91 701 211 
Q 384 513 384 1019 
Q 384 1609 779 1909 
Q 1175 2209 1959 2209 
L 2766 2209 
L 2766 2266 
Q 2766 2663 2505 2880 
Q 2244 3097 1772 3097 
Q 1472 3097 1187 3025 
Q 903 2953 641 2809 
L 641 3341 
Q 956 3463 1253 3523 
Q 1550 3584 1831 3584 
Q 2591 3584 2966 3190 
Q 3341 2797 3341 1997 
z
" id="DejaVuSans-61" transform="scale(0.015625)"/>
       <path d="M 1172 4494 
L 1172 3500 
L 2356 3500 
L 2356 3053 
L 1172 3053 
L 1172 1153 
Q 1172 725 1289 603 
Q 1406 481 1766 481 
L 2356 481 
L 2356 0 
L 1766 0 
Q 1100 0 847 248 
Q 594 497 594 1153 
L 594 3053 
L 172 3053 
L 172 3500 
L 594 3500 
L 594 4494 
L 1172 4494 
z
" id="DejaVuSans-74" transform="scale(0.015625)"/>
       <path d="M 3597 1894 
L 3597 1613 
L 953 1613 
Q 991 1019 1311 708 
Q 1631 397 2203 397 
Q 2534 397 2845 478 
Q 3156 559 3463 722 
L 3463 178 
Q 3153 47 2828 -22 
Q 2503 -91 2169 -91 
Q 1331 -91 842 396 
Q 353 884 353 1716 
Q 353 2575 817 3079 
Q 1281 3584 2069 3584 
Q 2775 3584 3186 3129 
Q 3597 2675 3597 1894 
z
M 3022 2063 
Q 3016 2534 2758 2815 
Q 2500 3097 2075 3097 
Q 1594 3097 1305 2825 
Q 1016 2553 972 2059 
L 3022 2063 
z
" id="DejaVuSans-65" transform="scale(0.015625)"/>
      </defs>
      <use xlink:href="#DejaVuSans-64"/>
      <use x="63.476562" xlink:href="#DejaVuSans-61"/>
      <use x="124.755859" xlink:href="#DejaVuSans-74"/>
      <use x="163.964844" xlink:href="#DejaVuSans-65"/>
     </g>
    </g>
   </g>
   <g id="matplotlib.axis_2">
    <g id="ytick_1">
     <g id="line2d_8">
      <defs>
       <path d="M 0 0 
L -3.5 0 
" id="m7887bc5d58" style="stroke:#000000;stroke-width:0.8;"/>
      </defs>
      <g>
       <use style="stroke:#000000;stroke-width:0.8;" x="57.6" xlink:href="#m7887bc5d58" y="258.974759"/>
      </g>
     </g>
     <g id="text_9">
      <!-- 85000 -->
      <g transform="translate(18.7875 262.773977)scale(0.1 -0.1)">
       <defs>
        <path d="M 2034 2216 
Q 1584 2216 1326 1975 
Q 1069 1734 1069 1313 
Q 1069 891 1326 650 
Q 1584 409 2034 409 
Q 2484 409 2743 651 
Q 3003 894 3003 1313 
Q 3003 1734 2745 1975 
Q 2488 2216 2034 2216 
z
M 1403 2484 
Q 997 2584 770 2862 
Q 544 3141 544 3541 
Q 544 4100 942 4425 
Q 1341 4750 2034 4750 
Q 2731 4750 3128 4425 
Q 3525 4100 3525 3541 
Q 3525 3141 3298 2862 
Q 3072 2584 2669 2484 
Q 3125 2378 3379 2068 
Q 3634 1759 3634 1313 
Q 3634 634 3220 271 
Q 2806 -91 2034 -91 
Q 1263 -91 848 271 
Q 434 634 434 1313 
Q 434 1759 690 2068 
Q 947 2378 1403 2484 
z
M 1172 3481 
Q 1172 3119 1398 2916 
Q 1625 2713 2034 2713 
Q 2441 2713 2670 2916 
Q 2900 3119 2900 3481 
Q 2900 3844 2670 4047 
Q 2441 4250 2034 4250 
Q 1625 4250 1398 4047 
Q 1172 3844 1172 3481 
z
" id="DejaVuSans-38" transform="scale(0.015625)"/>
       </defs>
       <use xlink:href="#DejaVuSans-38"/>
       <use x="63.623047" xlink:href="#DejaVuSans-35"/>
       <use x="127.246094" xlink:href="#DejaVuSans-30"/>
       <use x="190.869141" xlink:href="#DejaVuSans-30"/>
       <use x="254.492188" xlink:href="#DejaVuSans-30"/>
      </g>
     </g>
    </g>
    <g id="ytick_2">
     <g id="line2d_9">
      <g>
       <use style="stroke:#000000;stroke-width:0.8;" x="57.6" xlink:href="#m7887bc5d58" y="212.901705"/>
      </g>
     </g>
     <g id="text_10">
      <!-- 90000 -->
      <g transform="translate(18.7875 216.700924)scale(0.1 -0.1)">
       <defs>
        <path d="M 703 97 
L 703 672 
Q 941 559 1184 500 
Q 1428 441 1663 441 
Q 2288 441 2617 861 
Q 2947 1281 2994 2138 
Q 2813 1869 2534 1725 
Q 2256 1581 1919 1581 
Q 1219 1581 811 2004 
Q 403 2428 403 3163 
Q 403 3881 828 4315 
Q 1253 4750 1959 4750 
Q 2769 4750 3195 4129 
Q 3622 3509 3622 2328 
Q 3622 1225 3098 567 
Q 2575 -91 1691 -91 
Q 1453 -91 1209 -44 
Q 966 3 703 97 
z
M 1959 2075 
Q 2384 2075 2632 2365 
Q 2881 2656 2881 3163 
Q 2881 3666 2632 3958 
Q 2384 4250 1959 4250 
Q 1534 4250 1286 3958 
Q 1038 3666 1038 3163 
Q 1038 2656 1286 2365 
Q 1534 2075 1959 2075 
z
" id="DejaVuSans-39" transform="scale(0.015625)"/>
       </defs>
       <use xlink:href="#DejaVuSans-39"/>
       <use x="63.623047" xlink:href="#DejaVuSans-30"/>
       <use x="127.246094" xlink:href="#DejaVuSans-30"/>
       <use x="190.869141" xlink:href="#DejaVuSans-30"/>
       <use x="254.492188" xlink:href="#DejaVuSans-30"/>
      </g>
     </g>
    </g>
    <g id="ytick_3">
     <g id="line2d_10">
      <g>
       <use style="stroke:#000000;stroke-width:0.8;" x="57.6" xlink:href="#m7887bc5d58" y="166.828652"/>
      </g>
     </g>
     <g id="text_11">
      <!-- 95000 -->
      <g transform="translate(18.7875 170.627871)scale(0.1 -0.1)">
       <use xlink:href="#DejaVuSans-39"/>
       <use x="63.623047" xlink:href="#DejaVuSans-35"/>
       <use x="127.246094" xlink:href="#DejaVuSans-30"/>
       <use x="190.869141" xlink:href="#DejaVuSans-30"/>
       <use x="254.492188" xlink:href="#DejaVuSans-30"/>
      </g>
     </g>
    </g>
    <g id="ytick_4">
     <g id="line2d_11">
      <g>
       <use style="stroke:#000000;stroke-width:0.8;" x="57.6" xlink:href="#m7887bc5d58" y="120.755599"/>
      </g>
     </g>
     <g id="text_12">
      <!-- 100000 -->
      <g transform="translate(12.425 124.554818)scale(0.1 -0.1)">
       <use xlink:href="#DejaVuSans-31"/>
       <use x="63.623047" xlink:href="#DejaVuSans-30"/>
       <use x="127.246094" xlink:href="#DejaVuSans-30"/>
       <use x="190.869141" xlink:href="#DejaVuSans-30"/>
       <use x="254.492188" xlink:href="#DejaVuSans-30"/>
       <use x="318.115234" xlink:href="#DejaVuSans-30"/>
      </g>
     </g>
    </g>
    <g id="ytick_5">
     <g id="line2d_12">
      <g>
       <use style="stroke:#000000;stroke-width:0.8;" x="57.6" xlink:href="#m7887bc5d58" y="74.682546"/>
      </g>
     </g>
     <g id="text_13">
      <!-- 105000 -->
      <g transform="translate(12.425 78.481765)scale(0.1 -0.1)">
       <use xlink:href="#DejaVuSans-31"/>
       <use x="63.623047" xlink:href="#DejaVuSans-30"/>
       <use x="127.246094" xlink:href="#DejaVuSans-35"/>
       <use x="190.869141" xlink:href="#DejaVuSans-30"/>
       <use x="254.492188" xlink:href="#DejaVuSans-30"/>
       <use x="318.115234" xlink:href="#DejaVuSans-30"/>
      </g>
     </g>
    </g>
   </g>
   <g id="line2d_13">
    <path clip-path="url(#pbdb2757b68)" d="M 73.832727 123.442757 
L 75.456 125.732721 
L 80.325818 122.910203 
L 81.949091 113.847336 
L 86.818909 113.784701 
L 91.688727 126.216553 
L 93.312 145.492359 
L 94.935273 156.570225 
L 96.558545 144.994166 
L 98.181818 152.009207 
L 103.051636 137.775294 
L 104.674909 121.524638 
L 106.298182 115.702818 
L 107.921455 116.62239 
L 109.544727 110.449609 
L 114.414545 119.442072 
L 116.037818 119.420701 
L 117.661091 112.09478 
L 119.284364 111.43022 
L 120.907636 122.698709 
L 125.777455 133.617179 
L 127.400727 115.795546 
L 129.024 110.845742 
L 130.647273 102.78673 
L 137.140364 90.041678 
L 138.763636 90.560272 
L 140.386909 90.056507 
L 142.010182 91.276954 
L 143.633455 95.078545 
L 148.503273 85.167582 
L 150.126545 75.903477 
L 151.749818 97.595615 
L 153.373091 92.911642 
L 154.996364 88.980071 
L 159.866182 89.16796 
L 161.489455 83.44657 
L 163.112727 83.434515 
L 164.736 90.62248 
L 166.359273 90.594724 
L 172.852364 111.845719 
L 174.475636 119.826201 
L 176.098909 129.239819 
L 177.722182 148.832586 
L 182.592 148.788151 
L 184.215273 147.985223 
L 185.838545 149.219803 
L 187.461818 156.812649 
L 189.085091 135.799941 
L 193.954909 121.190225 
L 195.578182 109.816671 
L 197.201455 94.595647 
L 198.824727 141.710823 
L 200.448 134.990776 
L 205.317818 144.091981 
L 206.941091 139.750236 
L 208.564364 128.159687 
L 210.187636 143.930445 
L 211.810909 163.324135 
L 216.680727 170.97219 
L 218.304 160.612712 
L 219.927273 164.153703 
L 221.550545 182.450322 
L 223.173818 186.375957 
L 229.666909 195.247604 
L 231.290182 206.202514 
L 232.913455 198.788239 
L 234.536727 179.076787 
L 239.406545 187.015101 
L 241.029818 204.015986 
L 242.653091 184.93737 
L 244.276364 187.706143 
L 245.899636 199.244538 
L 250.769455 230.090965 
L 252.392727 232.729657 
L 254.016 202.732028 
L 257.262545 223.958873 
L 262.132364 225.397216 
L 263.755636 210.855204 
L 265.378909 189.517957 
L 268.625455 170.40696 
L 273.495273 171.072195 
L 275.118545 156.248943 
L 276.741818 165.142226 
L 278.365091 151.66865 
L 279.988364 141.907716 
L 284.858182 140.33715 
L 286.481455 134.95982 
L 288.104727 135.688788 
L 289.728 153.717996 
L 291.351273 149.206749 
L 296.221091 141.758206 
L 297.844364 149.882062 
L 299.467636 162.340393 
L 301.090909 162.951909 
L 302.714182 162.312527 
L 307.584 177.102755 
L 309.207273 181.576425 
L 310.830545 178.384325 
L 312.453818 192.156444 
L 318.946909 186.177993 
L 320.570182 173.539449 
L 322.193455 173.517403 
L 323.816727 188.159349 
L 325.44 212.162501 
L 330.309818 208.672283 
L 331.933091 223.176808 
L 333.556364 228.429399 
L 335.179636 192.63526 
L 336.802909 217.938416 
L 341.672727 209.891339 
L 343.296 204.093 
L 344.919273 167.914796 
L 346.542545 200.668813 
L 348.165818 199.406933 
L 353.035636 224.008429 
L 354.658909 229.852752 
L 356.282182 240.846518 
L 357.905455 244.292766 
L 359.528727 230.041993 
L 364.398545 232.472243 
L 366.021818 215.983877 
L 367.645091 248.212174 
L 369.268364 258.1109 
L 370.891636 264.86375 
L 375.761455 243.212398 
L 377.384727 257.907761 
L 379.008 256.606508 
L 380.631273 238.597392 
L 382.254545 219.090224 
L 388.747636 221.431595 
L 390.370909 227.365499 
L 391.994182 213.328889 
L 393.617455 228.256308 
L 398.487273 224.607227 
L 398.487273 224.607227 
" style="fill:none;stroke:#0000ff;stroke-linecap:square;stroke-opacity:0.9;stroke-width:2;"/>
   </g>
   <g id="line2d_14">
    <path clip-path="url(#pbdb2757b68)" d="M 73.832727 123.442757 
L 75.456 126.169568 
L 80.325818 123.114026 
L 81.949091 113.82719 
L 83.572364 113.889287 
L 86.818909 136.790734 
L 91.688727 126.563874 
L 93.312 146.253631 
L 94.935273 156.69475 
L 96.558545 144.912243 
L 98.181818 151.982397 
L 103.051636 138.067384 
L 104.674909 122.264624 
L 106.298182 116.131583 
L 107.921455 116.846405 
L 109.544727 111.540673 
L 114.414545 120.294267 
L 116.037818 119.968256 
L 117.661091 112.786146 
L 119.284364 111.95792 
L 120.907636 122.944274 
L 125.777455 134.065287 
L 127.400727 116.078835 
L 129.024 111.387767 
L 130.647273 103.071024 
L 137.140364 91.263702 
L 138.763636 91.076058 
L 140.386909 90.433322 
L 142.010182 91.768551 
L 143.633455 95.264004 
L 148.503273 85.106651 
L 150.126545 76.131704 
L 151.749818 96.770285 
L 153.373091 93.653102 
L 154.996364 89.196606 
L 159.866182 89.863345 
L 161.489455 84.742732 
L 163.112727 84.169178 
L 164.736 91.456188 
L 166.359273 91.429833 
L 172.852364 112.468941 
L 176.098909 129.923806 
L 177.722182 148.543241 
L 182.592 149.923858 
L 184.215273 146.841814 
L 185.838545 148.341777 
L 187.461818 156.76689 
L 189.085091 134.664949 
L 193.954909 120.954974 
L 195.578182 109.877405 
L 197.201455 95.188924 
L 198.824727 139.326934 
L 200.448 132.790035 
L 205.317818 139.215596 
L 206.941091 133.302183 
L 208.564364 124.52923 
L 210.187636 140.837021 
L 211.810909 158.756595 
L 216.680727 167.438205 
L 218.304 157.859581 
L 219.927273 159.669759 
L 221.550545 176.881239 
L 223.173818 181.199098 
L 229.666909 188.902765 
L 231.290182 200.353501 
L 232.913455 195.457659 
L 234.536727 175.648487 
L 239.406545 183.887978 
L 241.029818 201.21043 
L 242.653091 181.906501 
L 244.276364 182.725856 
L 245.899636 195.485355 
L 250.769455 224.486292 
L 252.392727 228.267591 
L 254.016 198.929435 
L 255.639273 210.247256 
L 257.262545 218.940974 
L 262.132364 220.037348 
L 263.755636 206.617145 
L 265.378909 186.763457 
L 268.625455 169.311191 
L 273.495273 169.079582 
L 275.118545 155.216573 
L 276.741818 163.748359 
L 278.365091 150.789864 
L 279.988364 140.681603 
L 284.858182 139.564865 
L 286.481455 134.601209 
L 288.104727 135.364209 
L 289.728 153.0065 
L 291.351273 148.274616 
L 296.221091 142.03198 
L 297.844364 150.663931 
L 299.467636 162.314388 
L 301.090909 162.768492 
L 302.714182 161.910887 
L 307.584 175.805457 
L 309.207273 179.957363 
L 310.830545 177.209932 
L 312.453818 188.825913 
L 318.946909 183.894294 
L 320.570182 171.73496 
L 322.193455 167.243852 
L 323.816727 178.014718 
L 325.44 203.239724 
L 330.309818 200.392997 
L 331.933091 215.665786 
L 333.556364 217.151418 
L 335.179636 189.607521 
L 336.802909 214.986021 
L 341.672727 209.662781 
L 343.296 204.097413 
L 344.919273 167.546409 
L 346.542545 198.024509 
L 348.165818 196.175389 
L 354.658909 227.86815 
L 356.282182 237.298085 
L 357.905455 241.331734 
L 359.528727 228.816645 
L 364.398545 229.961704 
L 366.021818 213.463501 
L 367.645091 246.311282 
L 369.268364 256.236949 
L 370.891636 263.315629 
L 375.761455 242.568487 
L 377.384727 253.131579 
L 379.008 252.646709 
L 380.631273 234.928938 
L 382.254545 215.453407 
L 388.747636 218.557368 
L 390.370909 223.126546 
L 391.994182 211.949424 
L 393.617455 225.047721 
L 398.487273 216.381782 
L 398.487273 216.381782 
" style="fill:none;stroke:#ff0000;stroke-linecap:square;stroke-opacity:0.9;stroke-width:2;"/>
   </g>
   <g id="line2d_15">
    <path clip-path="url(#pbdb2757b68)" d="M 73.832727 123.442757 
L 75.456 126.303694 
L 80.325818 122.849392 
L 81.949091 114.11575 
L 83.572364 113.200274 
L 86.818909 135.998396 
L 91.688727 126.466154 
L 93.312 145.319866 
L 94.935273 156.097389 
L 96.558545 143.976149 
L 98.181818 151.252404 
L 103.051636 136.806755 
L 104.674909 122.155625 
L 106.298182 115.815185 
L 107.921455 117.048164 
L 109.544727 111.519952 
L 114.414545 120.00829 
L 116.037818 118.963655 
L 117.661091 112.164542 
L 119.284364 111.318739 
L 120.907636 122.297584 
L 125.777455 133.326837 
L 127.400727 115.685873 
L 129.024 110.522604 
L 130.647273 102.998799 
L 137.140364 90.241772 
L 138.763636 90.440277 
L 140.386909 89.819726 
L 142.010182 91.780083 
L 143.633455 95.173118 
L 148.503273 85.545881 
L 150.126545 76.322121 
L 151.749818 96.845868 
L 153.373091 93.436177 
L 154.996364 88.508265 
L 159.866182 89.593522 
L 161.489455 83.798562 
L 163.112727 83.596211 
L 164.736 90.629791 
L 166.359273 90.187023 
L 172.852364 111.503743 
L 176.098909 128.715144 
L 177.722182 147.98223 
L 182.592 148.48864 
L 184.215273 147.992101 
L 185.838545 149.243254 
L 187.461818 156.601931 
L 189.085091 135.309386 
L 193.954909 120.404694 
L 195.578182 109.531988 
L 197.201455 94.174566 
L 198.824727 140.327409 
L 200.448 134.457139 
L 205.317818 142.756232 
L 206.941091 138.87729 
L 208.564364 127.913251 
L 210.187636 143.016112 
L 211.810909 162.158838 
L 216.680727 170.118981 
L 218.304 159.60229 
L 219.927273 163.152063 
L 221.550545 181.412663 
L 223.173818 185.939666 
L 229.666909 194.227406 
L 231.290182 205.640741 
L 232.913455 197.670272 
L 234.536727 177.876927 
L 239.406545 185.583564 
L 241.029818 202.884836 
L 242.653091 183.489843 
L 244.276364 186.53025 
L 245.899636 198.192993 
L 250.769455 228.888716 
L 252.392727 231.672901 
L 254.016 201.192014 
L 257.262545 222.981676 
L 262.132364 224.280749 
L 263.755636 209.235947 
L 265.378909 188.463546 
L 267.002182 178.985981 
L 268.625455 168.679632 
L 273.495273 169.715492 
L 275.118545 155.258497 
L 276.741818 164.753932 
L 278.365091 150.216875 
L 279.988364 140.974668 
L 284.858182 139.615491 
L 286.481455 133.833685 
L 288.104727 134.567287 
L 289.728 152.998798 
L 291.351273 147.932058 
L 296.221091 140.667754 
L 297.844364 148.814141 
L 299.467636 161.467499 
L 301.090909 162.459743 
L 302.714182 162.233626 
L 309.207273 180.606802 
L 310.830545 177.807683 
L 312.453818 191.651577 
L 318.946909 186.287216 
L 320.570182 172.413026 
L 322.193455 172.76418 
L 323.816727 186.959853 
L 325.44 211.792562 
L 330.309818 208.483869 
L 331.933091 223.568743 
L 333.556364 228.798867 
L 335.179636 192.777297 
L 336.802909 218.1978 
L 341.672727 210.387965 
L 343.296 203.953362 
L 344.919273 167.978369 
L 346.542545 199.836511 
L 348.165818 199.65213 
L 353.035636 224.505286 
L 354.658909 230.15157 
L 356.282182 240.737814 
L 357.905455 244.866665 
L 359.528727 230.466513 
L 364.398545 232.206713 
L 366.021818 216.540524 
L 367.645091 248.231445 
L 369.268364 258.613782 
L 370.891636 264.660499 
L 375.761455 243.751485 
L 377.384727 258.855549 
L 379.008 256.824014 
L 380.631273 238.904968 
L 382.254545 219.503605 
L 388.747636 221.370566 
L 390.370909 227.337567 
L 391.994182 213.191953 
L 393.617455 229.058506 
L 398.487273 219.7312 
L 398.487273 219.7312 
" style="fill:none;stroke:#008000;stroke-linecap:square;stroke-opacity:0.9;stroke-width:2;"/>
   </g>
   <g id="line2d_16">
    <path clip-path="url(#pbdb2757b68)" d="M 73.832727 123.442757 
L 75.456 125.956968 
L 80.325818 122.655062 
L 81.949091 114.161335 
L 83.572364 113.350083 
L 86.818909 136.234102 
L 91.688727 126.190931 
L 93.312 145.707049 
L 94.935273 157.15368 
L 96.558545 144.964728 
L 98.181818 151.212324 
L 103.051636 137.521098 
L 104.674909 122.267209 
L 106.298182 116.488057 
L 107.921455 116.910812 
L 109.544727 111.706618 
L 114.414545 119.914686 
L 116.037818 119.23146 
L 117.661091 112.482461 
L 119.284364 110.977191 
L 120.907636 122.905317 
L 125.777455 133.833787 
L 127.400727 116.152764 
L 129.024 111.175782 
L 130.647273 102.609748 
L 137.140364 90.542313 
L 138.763636 91.309377 
L 140.386909 90.737937 
L 142.010182 91.897309 
L 143.633455 95.635996 
L 148.503273 85.450292 
L 150.126545 76.235924 
L 151.749818 97.308309 
L 153.373091 93.637359 
L 154.996364 89.049125 
L 159.866182 89.607401 
L 161.489455 83.929017 
L 163.112727 84.007985 
L 164.736 91.408812 
L 166.359273 91.317038 
L 172.852364 111.756024 
L 174.475636 119.930096 
L 176.098909 129.307403 
L 177.722182 148.218116 
L 182.592 148.87966 
L 184.215273 148.084913 
L 185.838545 149.841132 
L 187.461818 157.15787 
L 189.085091 135.615279 
L 193.954909 121.176905 
L 195.578182 110.117739 
L 197.201455 94.880167 
L 198.824727 141.734619 
L 200.448 135.12692 
L 205.317818 144.045546 
L 206.941091 139.970727 
L 208.564364 128.978412 
L 210.187636 143.990793 
L 211.810909 163.749535 
L 216.680727 171.371202 
L 218.304 161.28084 
L 219.927273 163.952014 
L 221.550545 182.213439 
L 223.173818 186.622378 
L 229.666909 195.430806 
L 231.290182 206.867473 
L 232.913455 199.336431 
L 234.536727 179.42835 
L 239.406545 186.786424 
L 241.029818 203.879137 
L 242.653091 184.775448 
L 244.276364 186.967453 
L 245.899636 198.950552 
L 250.769455 230.200172 
L 252.392727 233.23281 
L 254.016 202.605583 
L 257.262545 223.878341 
L 262.132364 225.066907 
L 263.755636 210.350946 
L 265.378909 188.892383 
L 267.002182 180.425924 
L 268.625455 169.486294 
L 273.495273 171.444353 
L 275.118545 156.343581 
L 276.741818 164.798605 
L 278.365091 151.562284 
L 279.988364 142.171935 
L 284.858182 140.03225 
L 286.481455 134.507284 
L 288.104727 135.442041 
L 289.728 153.858119 
L 291.351273 148.780775 
L 296.221091 140.97049 
L 297.844364 149.546516 
L 299.467636 162.734867 
L 301.090909 163.031031 
L 302.714182 162.709322 
L 309.207273 181.597753 
L 310.830545 178.939794 
L 312.453818 192.226712 
L 318.946909 186.975269 
L 320.570182 173.849887 
L 322.193455 173.286153 
L 323.816727 187.558289 
L 325.44 212.397721 
L 330.309818 208.790731 
L 331.933091 224.103098 
L 333.556364 228.544723 
L 335.179636 192.642473 
L 336.802909 218.882277 
L 341.672727 210.267842 
L 343.296 203.570728 
L 344.919273 167.427456 
L 346.542545 200.141617 
L 348.165818 199.593384 
L 353.035636 224.620132 
L 354.658909 229.745551 
L 356.282182 240.121956 
L 357.905455 245.005191 
L 359.528727 229.993577 
L 364.398545 232.532009 
L 366.021818 216.229933 
L 367.645091 248.4907 
L 369.268364 258.832589 
L 370.891636 265.248728 
L 375.761455 244.005025 
L 377.384727 259.09227 
L 379.008 257.237709 
L 382.254545 219.460288 
L 388.747636 221.842068 
L 390.370909 227.413727 
L 391.994182 213.257748 
L 393.617455 228.831763 
L 398.487273 220.108468 
L 398.487273 220.108468 
" style="fill:none;stroke:#ec5283;stroke-linecap:square;stroke-width:2;"/>
   </g>
   <g id="line2d_17">
    <path clip-path="url(#pbdb2757b68)" d="M 73.832727 123.442757 
L 75.456 126.584913 
L 80.325818 122.673847 
L 81.949091 114.017378 
L 83.572364 113.634943 
L 86.818909 136.682201 
L 91.688727 125.588945 
L 93.312 145.451604 
L 94.935273 156.054472 
L 96.558545 144.539307 
L 98.181818 151.271104 
L 103.051636 137.298426 
L 104.674909 121.58995 
L 106.298182 115.969874 
L 107.921455 116.373265 
L 109.544727 111.077209 
L 114.414545 119.817809 
L 116.037818 118.961789 
L 117.661091 112.445918 
L 119.284364 111.465157 
L 120.907636 122.554165 
L 125.777455 133.348655 
L 127.400727 115.428409 
L 129.024 111.138394 
L 130.647273 102.865503 
L 137.140364 90.752036 
L 138.763636 91.00412 
L 140.386909 89.804389 
L 142.010182 91.501088 
L 143.633455 95.518123 
L 148.503273 85.697234 
L 150.126545 76.469049 
L 151.749818 97.355728 
L 154.996364 88.641407 
L 159.866182 89.203331 
L 161.489455 83.845246 
L 163.112727 82.933978 
L 164.736 90.64458 
L 166.359273 91.02705 
L 172.852364 111.371087 
L 176.098909 129.129776 
L 177.722182 147.81268 
L 182.592 149.067456 
L 184.215273 147.215247 
L 185.838545 148.841204 
L 187.461818 156.337996 
L 189.085091 134.962334 
L 193.954909 120.301236 
L 195.578182 109.919242 
L 197.201455 94.052922 
L 198.824727 140.166842 
L 200.448 134.534514 
L 205.317818 143.155345 
L 206.941091 138.475248 
L 208.564364 127.967719 
L 210.187636 142.885991 
L 211.810909 162.069948 
L 216.680727 170.438459 
L 218.304 160.322263 
L 219.927273 163.123777 
L 221.550545 181.458637 
L 223.173818 185.996355 
L 229.666909 193.774635 
L 231.290182 205.519753 
L 232.913455 197.898458 
L 234.536727 177.911765 
L 239.406545 185.675013 
L 241.029818 202.882309 
L 242.653091 183.142393 
L 244.276364 185.871351 
L 245.899636 198.072509 
L 250.769455 229.464967 
L 252.392727 231.331388 
L 254.016 201.066199 
L 257.262545 222.684878 
L 262.132364 223.707165 
L 263.755636 209.597891 
L 265.378909 188.349774 
L 267.002182 178.763676 
L 268.625455 168.342801 
L 273.495273 170.421589 
L 275.118545 155.548228 
L 276.741818 164.141934 
L 278.365091 150.466429 
L 279.988364 141.243006 
L 284.858182 138.868761 
L 286.481455 133.527988 
L 288.104727 135.123333 
L 289.728 152.545953 
L 291.351273 148.172654 
L 296.221091 140.32572 
L 297.844364 148.756453 
L 299.467636 161.576459 
L 301.090909 162.183356 
L 302.714182 161.929506 
L 309.207273 180.645964 
L 310.830545 177.677995 
L 312.453818 191.490804 
L 318.946909 186.250635 
L 320.570182 172.365539 
L 322.193455 173.138046 
L 323.816727 187.207175 
L 325.44 212.428634 
L 330.309818 208.609361 
L 331.933091 223.927252 
L 333.556364 227.995975 
L 335.179636 192.994915 
L 336.802909 218.665632 
L 341.672727 210.380077 
L 343.296 203.239609 
L 344.919273 167.892487 
L 346.542545 200.504658 
L 348.165818 199.726623 
L 353.035636 223.902311 
L 354.658909 229.471758 
L 356.282182 240.124528 
L 357.905455 244.545453 
L 359.528727 230.195809 
L 364.398545 232.011541 
L 366.021818 216.467714 
L 367.645091 248.886665 
L 369.268364 258.554278 
L 370.891636 265.031716 
L 375.761455 243.327215 
L 377.384727 258.200543 
L 379.008 257.127429 
L 380.631273 238.873585 
L 382.254545 219.02991 
L 388.747636 221.749648 
L 390.370909 227.431984 
L 391.994182 213.909775 
L 393.617455 228.611518 
L 398.487273 220.254567 
L 398.487273 220.254567 
" style="fill:none;stroke:#00ff00;stroke-linecap:square;stroke-opacity:0.9;stroke-width:2;"/>
   </g>
   <g id="line2d_18">
    <path clip-path="url(#pbdb2757b68)" d="M 73.832727 123.442757 
L 75.456 125.044256 
L 80.325818 119.735826 
L 81.949091 112.554227 
L 83.572364 113.144194 
L 86.818909 133.150548 
L 91.688727 121.570793 
L 93.312 139.901402 
L 94.935273 151.707734 
L 96.558545 140.252646 
L 98.181818 146.515271 
L 103.051636 129.107639 
L 104.674909 113.090424 
L 106.298182 105.834479 
L 107.921455 105.426809 
L 109.544727 102.546901 
L 114.414545 110.829766 
L 116.037818 107.0323 
L 117.661091 100.459329 
L 119.284364 95.136651 
L 120.907636 105.597434 
L 125.777455 118.888526 
L 127.400727 96.414469 
L 129.024 92.500625 
L 130.647273 83.328276 
L 137.140364 71.546012 
L 138.763636 72.036328 
L 140.386909 72.401599 
L 142.010182 73.426142 
L 143.633455 77.588122 
L 148.503273 63.684894 
L 150.126545 52.154182 
L 151.749818 78.740126 
L 153.373091 70.872629 
L 154.996364 68.264217 
L 159.866182 68.503218 
L 161.489455 60.275065 
L 163.112727 58.003079 
L 164.736 70.272469 
L 166.359273 67.386629 
L 172.852364 88.336881 
L 174.475636 92.625047 
L 176.098909 103.850737 
L 177.722182 125.597408 
L 182.592 124.203582 
L 184.215273 134.716184 
L 185.838545 135.380752 
L 187.461818 141.167079 
L 189.085091 118.029847 
L 193.954909 98.229581 
L 195.578182 89.406755 
L 197.201455 75.721724 
L 198.824727 132.650085 
L 200.448 130.773209 
L 205.317818 145.918336 
L 206.941091 147.750966 
L 208.564364 128.157748 
L 210.187636 143.881186 
L 211.810909 164.300689 
L 216.680727 170.411193 
L 218.304 159.842729 
L 219.927273 164.481603 
L 221.550545 180.116703 
L 223.173818 185.758646 
L 229.666909 195.645585 
L 231.290182 206.979751 
L 232.913455 188.240049 
L 234.536727 171.200507 
L 239.406545 175.812173 
L 241.029818 191.901002 
L 242.653091 172.667935 
L 244.276364 177.663486 
L 245.899636 193.977306 
L 250.769455 232.679009 
L 252.392727 227.980207 
L 254.016 190.566701 
L 257.262545 217.598004 
L 262.132364 218.669413 
L 263.755636 201.952226 
L 265.378909 173.209901 
L 267.002182 163.330769 
L 268.625455 150.260789 
L 273.495273 153.254298 
L 275.118545 134.704517 
L 276.741818 145.488281 
L 278.365091 132.007599 
L 279.988364 121.348571 
L 284.858182 119.86099 
L 286.481455 112.941239 
L 288.104727 116.974506 
L 289.728 140.74798 
L 291.351273 138.942797 
L 296.221091 130.227742 
L 297.844364 142.148034 
L 299.467636 154.989439 
L 301.090909 158.364661 
L 302.714182 158.716311 
L 307.584 172.861951 
L 309.207273 178.488769 
L 310.830545 173.602428 
L 312.453818 190.86069 
L 318.946909 181.008039 
L 320.570182 164.738393 
L 322.193455 170.470424 
L 323.816727 193.604365 
L 325.44 220.427188 
L 330.309818 215.625389 
L 331.933091 235.522231 
L 333.556364 245.382446 
L 335.179636 198.243899 
L 336.802909 224.308005 
L 341.672727 209.791476 
L 343.296 199.472767 
L 344.919273 161.139269 
L 346.542545 198.580385 
L 348.165818 201.739848 
L 353.035636 226.418625 
L 354.658909 226.892551 
L 356.282182 240.94598 
L 357.905455 247.064357 
L 359.528727 230.137534 
L 364.398545 235.827105 
L 366.021818 216.493315 
L 367.645091 249.410946 
L 369.268364 259.113547 
L 370.891636 265.797818 
L 375.761455 240.573189 
L 377.384727 264.121138 
L 379.008 261.294182 
L 380.631273 240.91894 
L 382.254545 218.976779 
L 388.747636 218.829743 
L 390.370909 227.289589 
L 391.994182 208.043934 
L 393.617455 228.634975 
L 398.487273 218.199709 
L 398.487273 218.199709 
" style="fill:none;stroke:#a5b9cf;stroke-linecap:square;stroke-width:2;"/>
   </g>
   <g id="patch_3">
    <path d="M 57.6 276.48 
L 57.6 41.472 
" style="fill:none;stroke:#000000;stroke-linecap:square;stroke-linejoin:miter;stroke-width:0.8;"/>
   </g>
   <g id="patch_4">
    <path d="M 414.72 276.48 
L 414.72 41.472 
" style="fill:none;stroke:#000000;stroke-linecap:square;stroke-linejoin:miter;stroke-width:0.8;"/>
   </g>
   <g id="patch_5">
    <path d="M 57.6 276.48 
L 414.72 276.48 
" style="fill:none;stroke:#000000;stroke-linecap:square;stroke-linejoin:miter;stroke-width:0.8;"/>
   </g>
   <g id="patch_6">
    <path d="M 57.6 41.472 
L 414.72 41.472 
" style="fill:none;stroke:#000000;stroke-linecap:square;stroke-linejoin:miter;stroke-width:0.8;"/>
   </g>
   <g id="text_14">
    <!-- TESTFUNDS -->
    <g transform="translate(200.470313 22.034625)scale(0.12 -0.12)">
     <defs>
      <path d="M -19 4666 
L 3928 4666 
L 3928 4134 
L 2272 4134 
L 2272 0 
L 1638 0 
L 1638 4134 
L -19 4134 
L -19 4666 
z
" id="DejaVuSans-54" transform="scale(0.015625)"/>
      <path d="M 628 4666 
L 3578 4666 
L 3578 4134 
L 1259 4134 
L 1259 2753 
L 3481 2753 
L 3481 2222 
L 1259 2222 
L 1259 531 
L 3634 531 
L 3634 0 
L 628 0 
L 628 4666 
z
" id="DejaVuSans-45" transform="scale(0.015625)"/>
      <path d="M 3425 4513 
L 3425 3897 
Q 3066 4069 2747 4153 
Q 2428 4238 2131 4238 
Q 1616 4238 1336 4038 
Q 1056 3838 1056 3469 
Q 1056 3159 1242 3001 
Q 1428 2844 1947 2747 
L 2328 2669 
Q 3034 2534 3370 2195 
Q 3706 1856 3706 1288 
Q 3706 609 3251 259 
Q 2797 -91 1919 -91 
Q 1588 -91 1214 -16 
Q 841 59 441 206 
L 441 856 
Q 825 641 1194 531 
Q 1563 422 1919 422 
Q 2459 422 2753 634 
Q 3047 847 3047 1241 
Q 3047 1584 2836 1778 
Q 2625 1972 2144 2069 
L 1759 2144 
Q 1053 2284 737 2584 
Q 422 2884 422 3419 
Q 422 4038 858 4394 
Q 1294 4750 2059 4750 
Q 2388 4750 2728 4690 
Q 3069 4631 3425 4513 
z
" id="DejaVuSans-53" transform="scale(0.015625)"/>
      <path d="M 628 4666 
L 3309 4666 
L 3309 4134 
L 1259 4134 
L 1259 2759 
L 3109 2759 
L 3109 2228 
L 1259 2228 
L 1259 0 
L 628 0 
L 628 4666 
z
" id="DejaVuSans-46" transform="scale(0.015625)"/>
      <path d="M 556 4666 
L 1191 4666 
L 1191 1831 
Q 1191 1081 1462 751 
Q 1734 422 2344 422 
Q 2950 422 3222 751 
Q 3494 1081 3494 1831 
L 3494 4666 
L 4128 4666 
L 4128 1753 
Q 4128 841 3676 375 
Q 3225 -91 2344 -91 
Q 1459 -91 1007 375 
Q 556 841 556 1753 
L 556 4666 
z
" id="DejaVuSans-55" transform="scale(0.015625)"/>
      <path d="M 628 4666 
L 1478 4666 
L 3547 763 
L 3547 4666 
L 4159 4666 
L 4159 0 
L 3309 0 
L 1241 3903 
L 1241 0 
L 628 0 
L 628 4666 
z
" id="DejaVuSans-4e" transform="scale(0.015625)"/>
      <path d="M 1259 4147 
L 1259 519 
L 2022 519 
Q 2988 519 3436 956 
Q 3884 1394 3884 2338 
Q 3884 3275 3436 3711 
Q 2988 4147 2022 4147 
L 1259 4147 
z
M 628 4666 
L 1925 4666 
Q 3281 4666 3915 4102 
Q 4550 3538 4550 2338 
Q 4550 1131 3912 565 
Q 3275 0 1925 0 
L 628 0 
L 628 4666 
z
" id="DejaVuSans-44" transform="scale(0.015625)"/>
     </defs>
     <use xlink:href="#DejaVuSans-54"/>
     <use x="61.083984" xlink:href="#DejaVuSans-45"/>
     <use x="124.267578" xlink:href="#DejaVuSans-53"/>
     <use x="187.744141" xlink:href="#DejaVuSans-54"/>
     <use x="248.828125" xlink:href="#DejaVuSans-46"/>
     <use x="306.347656" xlink:href="#DejaVuSans-55"/>
     <use x="379.541016" xlink:href="#DejaVuSans-4e"/>
     <use x="454.345703" xlink:href="#DejaVuSans-44"/>
     <use x="531.347656" xlink:href="#DejaVuSans-53"/>
    </g>
    <!-- daily_report -->
    <g transform="translate(200.466563 35.472)scale(0.12 -0.12)">
     <defs>
      <path d="M 603 3500 
L 1178 3500 
L 1178 0 
L 603 0 
L 603 3500 
z
M 603 4863 
L 1178 4863 
L 1178 4134 
L 603 4134 
L 603 4863 
z
" id="DejaVuSans-69" transform="scale(0.015625)"/>
      <path d="M 603 4863 
L 1178 4863 
L 1178 0 
L 603 0 
L 603 4863 
z
" id="DejaVuSans-6c" transform="scale(0.015625)"/>
      <path d="M 2059 -325 
Q 1816 -950 1584 -1140 
Q 1353 -1331 966 -1331 
L 506 -1331 
L 506 -850 
L 844 -850 
Q 1081 -850 1212 -737 
Q 1344 -625 1503 -206 
L 1606 56 
L 191 3500 
L 800 3500 
L 1894 763 
L 2988 3500 
L 3597 3500 
L 2059 -325 
z
" id="DejaVuSans-79" transform="scale(0.015625)"/>
      <path d="M 3263 -1063 
L 3263 -1509 
L -63 -1509 
L -63 -1063 
L 3263 -1063 
z
" id="DejaVuSans-5f" transform="scale(0.015625)"/>
      <path d="M 2631 2963 
Q 2534 3019 2420 3045 
Q 2306 3072 2169 3072 
Q 1681 3072 1420 2755 
Q 1159 2438 1159 1844 
L 1159 0 
L 581 0 
L 581 3500 
L 1159 3500 
L 1159 2956 
Q 1341 3275 1631 3429 
Q 1922 3584 2338 3584 
Q 2397 3584 2469 3576 
Q 2541 3569 2628 3553 
L 2631 2963 
z
" id="DejaVuSans-72" transform="scale(0.015625)"/>
      <path d="M 1159 525 
L 1159 -1331 
L 581 -1331 
L 581 3500 
L 1159 3500 
L 1159 2969 
Q 1341 3281 1617 3432 
Q 1894 3584 2278 3584 
Q 2916 3584 3314 3078 
Q 3713 2572 3713 1747 
Q 3713 922 3314 415 
Q 2916 -91 2278 -91 
Q 1894 -91 1617 61 
Q 1341 213 1159 525 
z
M 3116 1747 
Q 3116 2381 2855 2742 
Q 2594 3103 2138 3103 
Q 1681 3103 1420 2742 
Q 1159 2381 1159 1747 
Q 1159 1113 1420 752 
Q 1681 391 2138 391 
Q 2594 391 2855 752 
Q 3116 1113 3116 1747 
z
" id="DejaVuSans-70" transform="scale(0.015625)"/>
      <path d="M 1959 3097 
Q 1497 3097 1228 2736 
Q 959 2375 959 1747 
Q 959 1119 1226 758 
Q 1494 397 1959 397 
Q 2419 397 2687 759 
Q 2956 1122 2956 1747 
Q 2956 2369 2687 2733 
Q 2419 3097 1959 3097 
z
M 1959 3584 
Q 2709 3584 3137 3096 
Q 3566 2609 3566 1747 
Q 3566 888 3137 398 
Q 2709 -91 1959 -91 
Q 1206 -91 779 398 
Q 353 888 353 1747 
Q 353 2609 779 3096 
Q 1206 3584 1959 3584 
z
" id="DejaVuSans-6f" transform="scale(0.015625)"/>
     </defs>
     <use xlink:href="#DejaVuSans-64"/>
     <use x="63.476562" xlink:href="#DejaVuSans-61"/>
     <use x="124.755859" xlink:href="#DejaVuSans-69"/>
     <use x="152.539062" xlink:href="#DejaVuSans-6c"/>
     <use x="180.322266" xlink:href="#DejaVuSans-79"/>
     <use x="239.501953" xlink:href="#DejaVuSans-5f"/>
     <use x="289.501953" xlink:href="#DejaVuSans-72"/>
     <use x="328.365234" xlink:href="#DejaVuSans-65"/>
     <use x="389.888672" xlink:href="#DejaVuSans-70"/>
     <use x="453.365234" xlink:href="#DejaVuSans-6f"/>
     <use x="514.546875" xlink:href="#DejaVuSans-72"/>
     <use x="555.660156" xlink:href="#DejaVuSans-74"/>
    </g>
   </g>
   <g id="legend_1">
    <g id="patch_7">
     <path d="M 64.6 271.48 
L 178.64375 271.48 
Q 180.64375 271.48 180.64375 269.48 
L 180.64375 182.41125 
Q 180.64375 180.41125 178.64375 180.41125 
L 64.6 180.41125 
Q 62.6 180.41125 62.6 182.41125 
L 62.6 269.48 
Q 62.6 271.48 64.6 271.48 
z
" style="fill:#ffffff;opacity:0.8;stroke:#cccccc;stroke-linejoin:miter;"/>
    </g>
    <g id="line2d_19">
     <path d="M 66.6 188.509687 
L 86.6 188.509687 
" style="fill:none;stroke:#0000ff;stroke-linecap:square;stroke-opacity:0.9;stroke-width:2;"/>
    </g>
    <g id="line2d_20"/>
    <g id="text_15">
     <!-- alpaca -->
     <g transform="translate(94.6 192.009687)scale(0.1 -0.1)">
      <defs>
       <path d="M 3122 3366 
L 3122 2828 
Q 2878 2963 2633 3030 
Q 2388 3097 2138 3097 
Q 1578 3097 1268 2742 
Q 959 2388 959 1747 
Q 959 1106 1268 751 
Q 1578 397 2138 397 
Q 2388 397 2633 464 
Q 2878 531 3122 666 
L 3122 134 
Q 2881 22 2623 -34 
Q 2366 -91 2075 -91 
Q 1284 -91 818 406 
Q 353 903 353 1747 
Q 353 2603 823 3093 
Q 1294 3584 2113 3584 
Q 2378 3584 2631 3529 
Q 2884 3475 3122 3366 
z
" id="DejaVuSans-63" transform="scale(0.015625)"/>
      </defs>
      <use xlink:href="#DejaVuSans-61"/>
      <use x="61.279297" xlink:href="#DejaVuSans-6c"/>
      <use x="89.0625" xlink:href="#DejaVuSans-70"/>
      <use x="152.539062" xlink:href="#DejaVuSans-61"/>
      <use x="213.818359" xlink:href="#DejaVuSans-63"/>
      <use x="268.798828" xlink:href="#DejaVuSans-61"/>
     </g>
    </g>
    <g id="line2d_21">
     <path d="M 66.6 203.187812 
L 86.6 203.187812 
" style="fill:none;stroke:#ff0000;stroke-linecap:square;stroke-opacity:0.9;stroke-width:2;"/>
    </g>
    <g id="line2d_22"/>
    <g id="text_16">
     <!-- mattress -->
     <g transform="translate(94.6 206.687812)scale(0.1 -0.1)">
      <defs>
       <path d="M 3328 2828 
Q 3544 3216 3844 3400 
Q 4144 3584 4550 3584 
Q 5097 3584 5394 3201 
Q 5691 2819 5691 2113 
L 5691 0 
L 5113 0 
L 5113 2094 
Q 5113 2597 4934 2840 
Q 4756 3084 4391 3084 
Q 3944 3084 3684 2787 
Q 3425 2491 3425 1978 
L 3425 0 
L 2847 0 
L 2847 2094 
Q 2847 2600 2669 2842 
Q 2491 3084 2119 3084 
Q 1678 3084 1418 2786 
Q 1159 2488 1159 1978 
L 1159 0 
L 581 0 
L 581 3500 
L 1159 3500 
L 1159 2956 
Q 1356 3278 1631 3431 
Q 1906 3584 2284 3584 
Q 2666 3584 2933 3390 
Q 3200 3197 3328 2828 
z
" id="DejaVuSans-6d" transform="scale(0.015625)"/>
       <path d="M 2834 3397 
L 2834 2853 
Q 2591 2978 2328 3040 
Q 2066 3103 1784 3103 
Q 1356 3103 1142 2972 
Q 928 2841 928 2578 
Q 928 2378 1081 2264 
Q 1234 2150 1697 2047 
L 1894 2003 
Q 2506 1872 2764 1633 
Q 3022 1394 3022 966 
Q 3022 478 2636 193 
Q 2250 -91 1575 -91 
Q 1294 -91 989 -36 
Q 684 19 347 128 
L 347 722 
Q 666 556 975 473 
Q 1284 391 1588 391 
Q 1994 391 2212 530 
Q 2431 669 2431 922 
Q 2431 1156 2273 1281 
Q 2116 1406 1581 1522 
L 1381 1569 
Q 847 1681 609 1914 
Q 372 2147 372 2553 
Q 372 3047 722 3315 
Q 1072 3584 1716 3584 
Q 2034 3584 2315 3537 
Q 2597 3491 2834 3397 
z
" id="DejaVuSans-73" transform="scale(0.015625)"/>
      </defs>
      <use xlink:href="#DejaVuSans-6d"/>
      <use x="97.412109" xlink:href="#DejaVuSans-61"/>
      <use x="158.691406" xlink:href="#DejaVuSans-74"/>
      <use x="197.900391" xlink:href="#DejaVuSans-74"/>
      <use x="237.109375" xlink:href="#DejaVuSans-72"/>
      <use x="275.972656" xlink:href="#DejaVuSans-65"/>
      <use x="337.496094" xlink:href="#DejaVuSans-73"/>
      <use x="389.595703" xlink:href="#DejaVuSans-73"/>
     </g>
    </g>
    <g id="line2d_23">
     <path d="M 66.6 217.865937 
L 86.6 217.865937 
" style="fill:none;stroke:#008000;stroke-linecap:square;stroke-opacity:0.9;stroke-width:2;"/>
    </g>
    <g id="line2d_24"/>
    <g id="text_17">
     <!-- daily-open-rebal -->
     <g transform="translate(94.6 221.365937)scale(0.1 -0.1)">
      <defs>
       <path d="M 3513 2113 
L 3513 0 
L 2938 0 
L 2938 2094 
Q 2938 2591 2744 2837 
Q 2550 3084 2163 3084 
Q 1697 3084 1428 2787 
Q 1159 2491 1159 1978 
L 1159 0 
L 581 0 
L 581 3500 
L 1159 3500 
L 1159 2956 
Q 1366 3272 1645 3428 
Q 1925 3584 2291 3584 
Q 2894 3584 3203 3211 
Q 3513 2838 3513 2113 
z
" id="DejaVuSans-6e" transform="scale(0.015625)"/>
       <path d="M 3116 1747 
Q 3116 2381 2855 2742 
Q 2594 3103 2138 3103 
Q 1681 3103 1420 2742 
Q 1159 2381 1159 1747 
Q 1159 1113 1420 752 
Q 1681 391 2138 391 
Q 2594 391 2855 752 
Q 3116 1113 3116 1747 
z
M 1159 2969 
Q 1341 3281 1617 3432 
Q 1894 3584 2278 3584 
Q 2916 3584 3314 3078 
Q 3713 2572 3713 1747 
Q 3713 922 3314 415 
Q 2916 -91 2278 -91 
Q 1894 -91 1617 61 
Q 1341 213 1159 525 
L 1159 0 
L 581 0 
L 581 4863 
L 1159 4863 
L 1159 2969 
z
" id="DejaVuSans-62" transform="scale(0.015625)"/>
      </defs>
      <use xlink:href="#DejaVuSans-64"/>
      <use x="63.476562" xlink:href="#DejaVuSans-61"/>
      <use x="124.755859" xlink:href="#DejaVuSans-69"/>
      <use x="152.539062" xlink:href="#DejaVuSans-6c"/>
      <use x="180.322266" xlink:href="#DejaVuSans-79"/>
      <use x="237.751953" xlink:href="#DejaVuSans-2d"/>
      <use x="275.710938" xlink:href="#DejaVuSans-6f"/>
      <use x="336.892578" xlink:href="#DejaVuSans-70"/>
      <use x="400.369141" xlink:href="#DejaVuSans-65"/>
      <use x="461.892578" xlink:href="#DejaVuSans-6e"/>
      <use x="525.271484" xlink:href="#DejaVuSans-2d"/>
      <use x="561.355469" xlink:href="#DejaVuSans-72"/>
      <use x="600.21875" xlink:href="#DejaVuSans-65"/>
      <use x="661.742188" xlink:href="#DejaVuSans-62"/>
      <use x="725.21875" xlink:href="#DejaVuSans-61"/>
      <use x="786.498047" xlink:href="#DejaVuSans-6c"/>
     </g>
    </g>
    <g id="line2d_25">
     <path d="M 66.6 232.544062 
L 86.6 232.544062 
" style="fill:none;stroke:#ec5283;stroke-linecap:square;stroke-width:2;"/>
    </g>
    <g id="line2d_26"/>
    <g id="text_18">
     <!-- daily-close-rebal -->
     <g transform="translate(94.6 236.044062)scale(0.1 -0.1)">
      <use xlink:href="#DejaVuSans-64"/>
      <use x="63.476562" xlink:href="#DejaVuSans-61"/>
      <use x="124.755859" xlink:href="#DejaVuSans-69"/>
      <use x="152.539062" xlink:href="#DejaVuSans-6c"/>
      <use x="180.322266" xlink:href="#DejaVuSans-79"/>
      <use x="237.751953" xlink:href="#DejaVuSans-2d"/>
      <use x="273.835938" xlink:href="#DejaVuSans-63"/>
      <use x="328.816406" xlink:href="#DejaVuSans-6c"/>
      <use x="356.599609" xlink:href="#DejaVuSans-6f"/>
      <use x="417.78125" xlink:href="#DejaVuSans-73"/>
      <use x="469.880859" xlink:href="#DejaVuSans-65"/>
      <use x="531.404297" xlink:href="#DejaVuSans-2d"/>
      <use x="567.488281" xlink:href="#DejaVuSans-72"/>
      <use x="606.351562" xlink:href="#DejaVuSans-65"/>
      <use x="667.875" xlink:href="#DejaVuSans-62"/>
      <use x="731.351562" xlink:href="#DejaVuSans-61"/>
      <use x="792.630859" xlink:href="#DejaVuSans-6c"/>
     </g>
    </g>
    <g id="line2d_27">
     <path d="M 66.6 247.222187 
L 86.6 247.222187 
" style="fill:none;stroke:#00ff00;stroke-linecap:square;stroke-opacity:0.9;stroke-width:2;"/>
    </g>
    <g id="line2d_28"/>
    <g id="text_19">
     <!-- trader-baseline -->
     <g transform="translate(94.6 250.722187)scale(0.1 -0.1)">
      <use xlink:href="#DejaVuSans-74"/>
      <use x="39.208984" xlink:href="#DejaVuSans-72"/>
      <use x="80.322266" xlink:href="#DejaVuSans-61"/>
      <use x="141.601562" xlink:href="#DejaVuSans-64"/>
      <use x="205.078125" xlink:href="#DejaVuSans-65"/>
      <use x="266.601562" xlink:href="#DejaVuSans-72"/>
      <use x="301.339844" xlink:href="#DejaVuSans-2d"/>
      <use x="337.423828" xlink:href="#DejaVuSans-62"/>
      <use x="400.900391" xlink:href="#DejaVuSans-61"/>
      <use x="462.179688" xlink:href="#DejaVuSans-73"/>
      <use x="514.279297" xlink:href="#DejaVuSans-65"/>
      <use x="575.802734" xlink:href="#DejaVuSans-6c"/>
      <use x="603.585938" xlink:href="#DejaVuSans-69"/>
      <use x="631.369141" xlink:href="#DejaVuSans-6e"/>
      <use x="694.748047" xlink:href="#DejaVuSans-65"/>
     </g>
    </g>
    <g id="line2d_29">
     <path d="M 66.6 261.900312 
L 86.6 261.900312 
" style="fill:none;stroke:#a5b9cf;stroke-linecap:square;stroke-width:2;"/>
    </g>
    <g id="line2d_30"/>
    <g id="text_20">
     <!-- default-cfg -->
     <g transform="translate(94.6 265.400312)scale(0.1 -0.1)">
      <defs>
       <path d="M 2375 4863 
L 2375 4384 
L 1825 4384 
Q 1516 4384 1395 4259 
Q 1275 4134 1275 3809 
L 1275 3500 
L 2222 3500 
L 2222 3053 
L 1275 3053 
L 1275 0 
L 697 0 
L 697 3053 
L 147 3053 
L 147 3500 
L 697 3500 
L 697 3744 
Q 697 4328 969 4595 
Q 1241 4863 1831 4863 
L 2375 4863 
z
" id="DejaVuSans-66" transform="scale(0.015625)"/>
       <path d="M 544 1381 
L 544 3500 
L 1119 3500 
L 1119 1403 
Q 1119 906 1312 657 
Q 1506 409 1894 409 
Q 2359 409 2629 706 
Q 2900 1003 2900 1516 
L 2900 3500 
L 3475 3500 
L 3475 0 
L 2900 0 
L 2900 538 
Q 2691 219 2414 64 
Q 2138 -91 1772 -91 
Q 1169 -91 856 284 
Q 544 659 544 1381 
z
M 1991 3584 
L 1991 3584 
z
" id="DejaVuSans-75" transform="scale(0.015625)"/>
       <path d="M 2906 1791 
Q 2906 2416 2648 2759 
Q 2391 3103 1925 3103 
Q 1463 3103 1205 2759 
Q 947 2416 947 1791 
Q 947 1169 1205 825 
Q 1463 481 1925 481 
Q 2391 481 2648 825 
Q 2906 1169 2906 1791 
z
M 3481 434 
Q 3481 -459 3084 -895 
Q 2688 -1331 1869 -1331 
Q 1566 -1331 1297 -1286 
Q 1028 -1241 775 -1147 
L 775 -588 
Q 1028 -725 1275 -790 
Q 1522 -856 1778 -856 
Q 2344 -856 2625 -561 
Q 2906 -266 2906 331 
L 2906 616 
Q 2728 306 2450 153 
Q 2172 0 1784 0 
Q 1141 0 747 490 
Q 353 981 353 1791 
Q 353 2603 747 3093 
Q 1141 3584 1784 3584 
Q 2172 3584 2450 3431 
Q 2728 3278 2906 2969 
L 2906 3500 
L 3481 3500 
L 3481 434 
z
" id="DejaVuSans-67" transform="scale(0.015625)"/>
      </defs>
      <use xlink:href="#DejaVuSans-64"/>
      <use x="63.476562" xlink:href="#DejaVuSans-65"/>
      <use x="125" xlink:href="#DejaVuSans-66"/>
      <use x="160.205078" xlink:href="#DejaVuSans-61"/>
      <use x="221.484375" xlink:href="#DejaVuSans-75"/>
      <use x="284.863281" xlink:href="#DejaVuSans-6c"/>
      <use x="312.646484" xlink:href="#DejaVuSans-74"/>
      <use x="351.855469" xlink:href="#DejaVuSans-2d"/>
      <use x="387.939453" xlink:href="#DejaVuSans-63"/>
      <use x="442.919922" xlink:href="#DejaVuSans-66"/>
      <use x="478.125" xlink:href="#DejaVuSans-67"/>
     </g>
    </g>
   </g>
  </g>
 </g>
 <defs>
  <clipPath id="pbdb2757b68">
   <rect height="235.008" width="357.12" x="57.6" y="41.472"/>
  </clipPath>
 </defs>
</svg>
