<?xml version="1.0" encoding="utf-8" standalone="no"?>
<!DOCTYPE svg PUBLIC "-//W3C//DTD SVG 1.1//EN"
  "http://www.w3.org/Graphics/SVG/1.1/DTD/svg11.dtd">
<svg height="345.6pt" version="1.1" viewBox="0 0 460.8 345.6" width="460.8pt" xmlns="http://www.w3.org/2000/svg" xmlns:xlink="http://www.w3.org/1999/xlink">
 <metadata>
  <rdf:RDF xmlns:cc="http://creativecommons.org/ns#" xmlns:dc="http://purl.org/dc/elements/1.1/" xmlns:rdf="http://www.w3.org/1999/02/22-rdf-syntax-ns#">
   <cc:Work>
    <dc:type rdf:resource="http://purl.org/dc/dcmitype/StillImage"/>
    <dc:date>2022-06-07T10:02:25.514501</dc:date>
    <dc:format>image/svg+xml</dc:format>
    <dc:creator>
     <cc:Agent>
      <dc:title>Matplotlib v3.4.3, https://matplotlib.org/</dc:title>
     </cc:Agent>
    </dc:creator>
   </cc:Work>
  </rdf:RDF>
 </metadata>
 <defs>
  <style type="text/css">*{stroke-linecap:butt;stroke-linejoin:round;}</style>
 </defs>
 <g id="figure_1">
  <g id="patch_1">
   <path d="M 0 345.6 
L 460.8 345.6 
L 460.8 0 
L 0 0 
z
" style="fill:#ffffff;"/>
  </g>
  <g id="axes_1">
   <g id="patch_2">
    <path d="M 57.6 276.48 
L 414.72 276.48 
L 414.72 41.472 
L 57.6 41.472 
z
" style="fill:#ffffff;"/>
   </g>
   <g id="matplotlib.axis_1">
    <g id="xtick_1">
     <g id="line2d_1">
      <defs>
       <path d="M 0 0 
L 0 3.5 
" id="m71622a6146" style="stroke:#000000;stroke-width:0.8;"/>
      </defs>
      <g>
       <use style="stroke:#000000;stroke-width:0.8;" x="94.935273" xlink:href="#m71622a6146" y="276.48"/>
      </g>
     </g>
     <g id="text_1">
      <!-- 2021-12 -->
      <g transform="translate(57.710452 310.951846)rotate(-30)scale(0.1 -0.1)">
       <defs>
        <path d="M 1228 531 
L 3431 531 
L 3431 0 
L 469 0 
L 469 531 
Q 828 903 1448 1529 
Q 2069 2156 2228 2338 
Q 2531 2678 2651 2914 
Q 2772 3150 2772 3378 
Q 2772 3750 2511 3984 
Q 2250 4219 1831 4219 
Q 1534 4219 1204 4116 
Q 875 4013 500 3803 
L 500 4441 
Q 881 4594 1212 4672 
Q 1544 4750 1819 4750 
Q 2544 4750 2975 4387 
Q 3406 4025 3406 3419 
Q 3406 3131 3298 2873 
Q 3191 2616 2906 2266 
Q 2828 2175 2409 1742 
Q 1991 1309 1228 531 
z
" id="DejaVuSans-32" transform="scale(0.015625)"/>
        <path d="M 2034 4250 
Q 1547 4250 1301 3770 
Q 1056 3291 1056 2328 
Q 1056 1369 1301 889 
Q 1547 409 2034 409 
Q 2525 409 2770 889 
Q 3016 1369 3016 2328 
Q 3016 3291 2770 3770 
Q 2525 4250 2034 4250 
z
M 2034 4750 
Q 2819 4750 3233 4129 
Q 3647 3509 3647 2328 
Q 3647 1150 3233 529 
Q 2819 -91 2034 -91 
Q 1250 -91 836 529 
Q 422 1150 422 2328 
Q 422 3509 836 4129 
Q 1250 4750 2034 4750 
z
" id="DejaVuSans-30" transform="scale(0.015625)"/>
        <path d="M 794 531 
L 1825 531 
L 1825 4091 
L 703 3866 
L 703 4441 
L 1819 4666 
L 2450 4666 
L 2450 531 
L 3481 531 
L 3481 0 
L 794 0 
L 794 531 
z
" id="DejaVuSans-31" transform="scale(0.015625)"/>
        <path d="M 313 2009 
L 1997 2009 
L 1997 1497 
L 313 1497 
L 313 2009 
z
" id="DejaVuSans-2d" transform="scale(0.015625)"/>
       </defs>
       <use xlink:href="#DejaVuSans-32"/>
       <use x="63.623047" xlink:href="#DejaVuSans-30"/>
       <use x="127.246094" xlink:href="#DejaVuSans-32"/>
       <use x="190.869141" xlink:href="#DejaVuSans-31"/>
       <use x="254.492188" xlink:href="#DejaVuSans-2d"/>
       <use x="290.576172" xlink:href="#DejaVuSans-31"/>
       <use x="354.199219" xlink:href="#DejaVuSans-32"/>
      </g>
     </g>
    </g>
    <g id="xtick_2">
     <g id="line2d_2">
      <g>
       <use style="stroke:#000000;stroke-width:0.8;" x="145.256727" xlink:href="#m71622a6146" y="276.48"/>
      </g>
     </g>
     <g id="text_2">
      <!-- 2022-01 -->
      <g transform="translate(108.031906 310.951846)rotate(-30)scale(0.1 -0.1)">
       <use xlink:href="#DejaVuSans-32"/>
       <use x="63.623047" xlink:href="#DejaVuSans-30"/>
       <use x="127.246094" xlink:href="#DejaVuSans-32"/>
       <use x="190.869141" xlink:href="#DejaVuSans-32"/>
       <use x="254.492188" xlink:href="#DejaVuSans-2d"/>
       <use x="290.576172" xlink:href="#DejaVuSans-30"/>
       <use x="354.199219" xlink:href="#DejaVuSans-31"/>
      </g>
     </g>
    </g>
    <g id="xtick_3">
     <g id="line2d_3">
      <g>
       <use style="stroke:#000000;stroke-width:0.8;" x="195.578182" xlink:href="#m71622a6146" y="276.48"/>
      </g>
     </g>
     <g id="text_3">
      <!-- 2022-02 -->
      <g transform="translate(158.353361 310.951846)rotate(-30)scale(0.1 -0.1)">
       <use xlink:href="#DejaVuSans-32"/>
       <use x="63.623047" xlink:href="#DejaVuSans-30"/>
       <use x="127.246094" xlink:href="#DejaVuSans-32"/>
       <use x="190.869141" xlink:href="#DejaVuSans-32"/>
       <use x="254.492188" xlink:href="#DejaVuSans-2d"/>
       <use x="290.576172" xlink:href="#DejaVuSans-30"/>
       <use x="354.199219" xlink:href="#DejaVuSans-32"/>
      </g>
     </g>
    </g>
    <g id="xtick_4">
     <g id="line2d_4">
      <g>
       <use style="stroke:#000000;stroke-width:0.8;" x="241.029818" xlink:href="#m71622a6146" y="276.48"/>
      </g>
     </g>
     <g id="text_4">
      <!-- 2022-03 -->
      <g transform="translate(203.804997 310.951846)rotate(-30)scale(0.1 -0.1)">
       <defs>
        <path d="M 2597 2516 
Q 3050 2419 3304 2112 
Q 3559 1806 3559 1356 
Q 3559 666 3084 287 
Q 2609 -91 1734 -91 
Q 1441 -91 1130 -33 
Q 819 25 488 141 
L 488 750 
Q 750 597 1062 519 
Q 1375 441 1716 441 
Q 2309 441 2620 675 
Q 2931 909 2931 1356 
Q 2931 1769 2642 2001 
Q 2353 2234 1838 2234 
L 1294 2234 
L 1294 2753 
L 1863 2753 
Q 2328 2753 2575 2939 
Q 2822 3125 2822 3475 
Q 2822 3834 2567 4026 
Q 2313 4219 1838 4219 
Q 1578 4219 1281 4162 
Q 984 4106 628 3988 
L 628 4550 
Q 988 4650 1302 4700 
Q 1616 4750 1894 4750 
Q 2613 4750 3031 4423 
Q 3450 4097 3450 3541 
Q 3450 3153 3228 2886 
Q 3006 2619 2597 2516 
z
" id="DejaVuSans-33" transform="scale(0.015625)"/>
       </defs>
       <use xlink:href="#DejaVuSans-32"/>
       <use x="63.623047" xlink:href="#DejaVuSans-30"/>
       <use x="127.246094" xlink:href="#DejaVuSans-32"/>
       <use x="190.869141" xlink:href="#DejaVuSans-32"/>
       <use x="254.492188" xlink:href="#DejaVuSans-2d"/>
       <use x="290.576172" xlink:href="#DejaVuSans-30"/>
       <use x="354.199219" xlink:href="#DejaVuSans-33"/>
      </g>
     </g>
    </g>
    <g id="xtick_5">
     <g id="line2d_5">
      <g>
       <use style="stroke:#000000;stroke-width:0.8;" x="291.351273" xlink:href="#m71622a6146" y="276.48"/>
      </g>
     </g>
     <g id="text_5">
      <!-- 2022-04 -->
      <g transform="translate(254.126452 310.951846)rotate(-30)scale(0.1 -0.1)">
       <defs>
        <path d="M 2419 4116 
L 825 1625 
L 2419 1625 
L 2419 4116 
z
M 2253 4666 
L 3047 4666 
L 3047 1625 
L 3713 1625 
L 3713 1100 
L 3047 1100 
L 3047 0 
L 2419 0 
L 2419 1100 
L 313 1100 
L 313 1709 
L 2253 4666 
z
" id="DejaVuSans-34" transform="scale(0.015625)"/>
       </defs>
       <use xlink:href="#DejaVuSans-32"/>
       <use x="63.623047" xlink:href="#DejaVuSans-30"/>
       <use x="127.246094" xlink:href="#DejaVuSans-32"/>
       <use x="190.869141" xlink:href="#DejaVuSans-32"/>
       <use x="254.492188" xlink:href="#DejaVuSans-2d"/>
       <use x="290.576172" xlink:href="#DejaVuSans-30"/>
       <use x="354.199219" xlink:href="#DejaVuSans-34"/>
      </g>
     </g>
    </g>
    <g id="xtick_6">
     <g id="line2d_6">
      <g>
       <use style="stroke:#000000;stroke-width:0.8;" x="340.049455" xlink:href="#m71622a6146" y="276.48"/>
      </g>
     </g>
     <g id="text_6">
      <!-- 2022-05 -->
      <g transform="translate(302.824634 310.951846)rotate(-30)scale(0.1 -0.1)">
       <defs>
        <path d="M 691 4666 
L 3169 4666 
L 3169 4134 
L 1269 4134 
L 1269 2991 
Q 1406 3038 1543 3061 
Q 1681 3084 1819 3084 
Q 2600 3084 3056 2656 
Q 3513 2228 3513 1497 
Q 3513 744 3044 326 
Q 2575 -91 1722 -91 
Q 1428 -91 1123 -41 
Q 819 9 494 109 
L 494 744 
Q 775 591 1075 516 
Q 1375 441 1709 441 
Q 2250 441 2565 725 
Q 2881 1009 2881 1497 
Q 2881 1984 2565 2268 
Q 2250 2553 1709 2553 
Q 1456 2553 1204 2497 
Q 953 2441 691 2322 
L 691 4666 
z
" id="DejaVuSans-35" transform="scale(0.015625)"/>
       </defs>
       <use xlink:href="#DejaVuSans-32"/>
       <use x="63.623047" xlink:href="#DejaVuSans-30"/>
       <use x="127.246094" xlink:href="#DejaVuSans-32"/>
       <use x="190.869141" xlink:href="#DejaVuSans-32"/>
       <use x="254.492188" xlink:href="#DejaVuSans-2d"/>
       <use x="290.576172" xlink:href="#DejaVuSans-30"/>
       <use x="354.199219" xlink:href="#DejaVuSans-35"/>
      </g>
     </g>
    </g>
    <g id="xtick_7">
     <g id="line2d_7">
      <g>
       <use style="stroke:#000000;stroke-width:0.8;" x="390.370909" xlink:href="#m71622a6146" y="276.48"/>
      </g>
     </g>
     <g id="text_7">
      <!-- 2022-06 -->
      <g transform="translate(353.146088 310.951846)rotate(-30)scale(0.1 -0.1)">
       <defs>
        <path d="M 2113 2584 
Q 1688 2584 1439 2293 
Q 1191 2003 1191 1497 
Q 1191 994 1439 701 
Q 1688 409 2113 409 
Q 2538 409 2786 701 
Q 3034 994 3034 1497 
Q 3034 2003 2786 2293 
Q 2538 2584 2113 2584 
z
M 3366 4563 
L 3366 3988 
Q 3128 4100 2886 4159 
Q 2644 4219 2406 4219 
Q 1781 4219 1451 3797 
Q 1122 3375 1075 2522 
Q 1259 2794 1537 2939 
Q 1816 3084 2150 3084 
Q 2853 3084 3261 2657 
Q 3669 2231 3669 1497 
Q 3669 778 3244 343 
Q 2819 -91 2113 -91 
Q 1303 -91 875 529 
Q 447 1150 447 2328 
Q 447 3434 972 4092 
Q 1497 4750 2381 4750 
Q 2619 4750 2861 4703 
Q 3103 4656 3366 4563 
z
" id="DejaVuSans-36" transform="scale(0.015625)"/>
       </defs>
       <use xlink:href="#DejaVuSans-32"/>
       <use x="63.623047" xlink:href="#DejaVuSans-30"/>
       <use x="127.246094" xlink:href="#DejaVuSans-32"/>
       <use x="190.869141" xlink:href="#DejaVuSans-32"/>
       <use x="254.492188" xlink:href="#DejaVuSans-2d"/>
       <use x="290.576172" xlink:href="#DejaVuSans-30"/>
       <use x="354.199219" xlink:href="#DejaVuSans-36"/>
      </g>
     </g>
    </g>
    <g id="text_8">
     <!-- date -->
     <g transform="translate(224.885 324.351346)scale(0.1 -0.1)">
      <defs>
       <path d="M 2906 2969 
L 2906 4863 
L 3481 4863 
L 3481 0 
L 2906 0 
L 2906 525 
Q 2725 213 2448 61 
Q 2172 -91 1784 -91 
Q 1150 -91 751 415 
Q 353 922 353 1747 
Q 353 2572 751 3078 
Q 1150 3584 1784 3584 
Q 2172 3584 2448 3432 
Q 2725 3281 2906 2969 
z
M 947 1747 
Q 947 1113 1208 752 
Q 1469 391 1925 391 
Q 2381 391 2643 752 
Q 2906 1113 2906 1747 
Q 2906 2381 2643 2742 
Q 2381 3103 1925 3103 
Q 1469 3103 1208 2742 
Q 947 2381 947 1747 
z
" id="DejaVuSans-64" transform="scale(0.015625)"/>
       <path d="M 2194 1759 
Q 1497 1759 1228 1600 
Q 959 1441 959 1056 
Q 959 750 1161 570 
Q 1363 391 1709 391 
Q 2188 391 2477 730 
Q 2766 1069 2766 1631 
L 2766 1759 
L 2194 1759 
z
M 3341 1997 
L 3341 0 
L 2766 0 
L 2766 531 
Q 2569 213 2275 61 
Q 1981 -91 1556 -91 
Q 1019 -91 701 211 
Q 384 513 384 1019 
Q 384 1609 779 1909 
Q 1175 2209 1959 2209 
L 2766 2209 
L 2766 2266 
Q 2766 2663 2505 2880 
Q 2244 3097 1772 3097 
Q 1472 3097 1187 3025 
Q 903 2953 641 2809 
L 641 3341 
Q 956 3463 1253 3523 
Q 1550 3584 1831 3584 
Q 2591 3584 2966 3190 
Q 3341 2797 3341 1997 
z
" id="DejaVuSans-61" transform="scale(0.015625)"/>
       <path d="M 1172 4494 
L 1172 3500 
L 2356 3500 
L 2356 3053 
L 1172 3053 
L 1172 1153 
Q 1172 725 1289 603 
Q 1406 481 1766 481 
L 2356 481 
L 2356 0 
L 1766 0 
Q 1100 0 847 248 
Q 594 497 594 1153 
L 594 3053 
L 172 3053 
L 172 3500 
L 594 3500 
L 594 4494 
L 1172 4494 
z
" id="DejaVuSans-74" transform="scale(0.015625)"/>
       <path d="M 3597 1894 
L 3597 1613 
L 953 1613 
Q 991 1019 1311 708 
Q 1631 397 2203 397 
Q 2534 397 2845 478 
Q 3156 559 3463 722 
L 3463 178 
Q 3153 47 2828 -22 
Q 2503 -91 2169 -91 
Q 1331 -91 842 396 
Q 353 884 353 1716 
Q 353 2575 817 3079 
Q 1281 3584 2069 3584 
Q 2775 3584 3186 3129 
Q 3597 2675 3597 1894 
z
M 3022 2063 
Q 3016 2534 2758 2815 
Q 2500 3097 2075 3097 
Q 1594 3097 1305 2825 
Q 1016 2553 972 2059 
L 3022 2063 
z
" id="DejaVuSans-65" transform="scale(0.015625)"/>
      </defs>
      <use xlink:href="#DejaVuSans-64"/>
      <use x="63.476562" xlink:href="#DejaVuSans-61"/>
      <use x="124.755859" xlink:href="#DejaVuSans-74"/>
      <use x="163.964844" xlink:href="#DejaVuSans-65"/>
     </g>
    </g>
   </g>
   <g id="matplotlib.axis_2">
    <g id="ytick_1">
     <g id="line2d_8">
      <defs>
       <path d="M 0 0 
L -3.5 0 
" id="m36305929ef" style="stroke:#000000;stroke-width:0.8;"/>
      </defs>
      <g>
       <use style="stroke:#000000;stroke-width:0.8;" x="57.6" xlink:href="#m36305929ef" y="257.001881"/>
      </g>
     </g>
     <g id="text_9">
      <!-- 85000 -->
      <g transform="translate(18.7875 260.8011)scale(0.1 -0.1)">
       <defs>
        <path d="M 2034 2216 
Q 1584 2216 1326 1975 
Q 1069 1734 1069 1313 
Q 1069 891 1326 650 
Q 1584 409 2034 409 
Q 2484 409 2743 651 
Q 3003 894 3003 1313 
Q 3003 1734 2745 1975 
Q 2488 2216 2034 2216 
z
M 1403 2484 
Q 997 2584 770 2862 
Q 544 3141 544 3541 
Q 544 4100 942 4425 
Q 1341 4750 2034 4750 
Q 2731 4750 3128 4425 
Q 3525 4100 3525 3541 
Q 3525 3141 3298 2862 
Q 3072 2584 2669 2484 
Q 3125 2378 3379 2068 
Q 3634 1759 3634 1313 
Q 3634 634 3220 271 
Q 2806 -91 2034 -91 
Q 1263 -91 848 271 
Q 434 634 434 1313 
Q 434 1759 690 2068 
Q 947 2378 1403 2484 
z
M 1172 3481 
Q 1172 3119 1398 2916 
Q 1625 2713 2034 2713 
Q 2441 2713 2670 2916 
Q 2900 3119 2900 3481 
Q 2900 3844 2670 4047 
Q 2441 4250 2034 4250 
Q 1625 4250 1398 4047 
Q 1172 3844 1172 3481 
z
" id="DejaVuSans-38" transform="scale(0.015625)"/>
       </defs>
       <use xlink:href="#DejaVuSans-38"/>
       <use x="63.623047" xlink:href="#DejaVuSans-35"/>
       <use x="127.246094" xlink:href="#DejaVuSans-30"/>
       <use x="190.869141" xlink:href="#DejaVuSans-30"/>
       <use x="254.492188" xlink:href="#DejaVuSans-30"/>
      </g>
     </g>
    </g>
    <g id="ytick_2">
     <g id="line2d_9">
      <g>
       <use style="stroke:#000000;stroke-width:0.8;" x="57.6" xlink:href="#m36305929ef" y="215.537883"/>
      </g>
     </g>
     <g id="text_10">
      <!-- 90000 -->
      <g transform="translate(18.7875 219.337102)scale(0.1 -0.1)">
       <defs>
        <path d="M 703 97 
L 703 672 
Q 941 559 1184 500 
Q 1428 441 1663 441 
Q 2288 441 2617 861 
Q 2947 1281 2994 2138 
Q 2813 1869 2534 1725 
Q 2256 1581 1919 1581 
Q 1219 1581 811 2004 
Q 403 2428 403 3163 
Q 403 3881 828 4315 
Q 1253 4750 1959 4750 
Q 2769 4750 3195 4129 
Q 3622 3509 3622 2328 
Q 3622 1225 3098 567 
Q 2575 -91 1691 -91 
Q 1453 -91 1209 -44 
Q 966 3 703 97 
z
M 1959 2075 
Q 2384 2075 2632 2365 
Q 2881 2656 2881 3163 
Q 2881 3666 2632 3958 
Q 2384 4250 1959 4250 
Q 1534 4250 1286 3958 
Q 1038 3666 1038 3163 
Q 1038 2656 1286 2365 
Q 1534 2075 1959 2075 
z
" id="DejaVuSans-39" transform="scale(0.015625)"/>
       </defs>
       <use xlink:href="#DejaVuSans-39"/>
       <use x="63.623047" xlink:href="#DejaVuSans-30"/>
       <use x="127.246094" xlink:href="#DejaVuSans-30"/>
       <use x="190.869141" xlink:href="#DejaVuSans-30"/>
       <use x="254.492188" xlink:href="#DejaVuSans-30"/>
      </g>
     </g>
    </g>
    <g id="ytick_3">
     <g id="line2d_10">
      <g>
       <use style="stroke:#000000;stroke-width:0.8;" x="57.6" xlink:href="#m36305929ef" y="174.073884"/>
      </g>
     </g>
     <g id="text_11">
      <!-- 95000 -->
      <g transform="translate(18.7875 177.873103)scale(0.1 -0.1)">
       <use xlink:href="#DejaVuSans-39"/>
       <use x="63.623047" xlink:href="#DejaVuSans-35"/>
       <use x="127.246094" xlink:href="#DejaVuSans-30"/>
       <use x="190.869141" xlink:href="#DejaVuSans-30"/>
       <use x="254.492188" xlink:href="#DejaVuSans-30"/>
      </g>
     </g>
    </g>
    <g id="ytick_4">
     <g id="line2d_11">
      <g>
       <use style="stroke:#000000;stroke-width:0.8;" x="57.6" xlink:href="#m36305929ef" y="132.609886"/>
      </g>
     </g>
     <g id="text_12">
      <!-- 100000 -->
      <g transform="translate(12.425 136.409104)scale(0.1 -0.1)">
       <use xlink:href="#DejaVuSans-31"/>
       <use x="63.623047" xlink:href="#DejaVuSans-30"/>
       <use x="127.246094" xlink:href="#DejaVuSans-30"/>
       <use x="190.869141" xlink:href="#DejaVuSans-30"/>
       <use x="254.492188" xlink:href="#DejaVuSans-30"/>
       <use x="318.115234" xlink:href="#DejaVuSans-30"/>
      </g>
     </g>
    </g>
    <g id="ytick_5">
     <g id="line2d_12">
      <g>
       <use style="stroke:#000000;stroke-width:0.8;" x="57.6" xlink:href="#m36305929ef" y="91.145887"/>
      </g>
     </g>
     <g id="text_13">
      <!-- 105000 -->
      <g transform="translate(12.425 94.945106)scale(0.1 -0.1)">
       <use xlink:href="#DejaVuSans-31"/>
       <use x="63.623047" xlink:href="#DejaVuSans-30"/>
       <use x="127.246094" xlink:href="#DejaVuSans-35"/>
       <use x="190.869141" xlink:href="#DejaVuSans-30"/>
       <use x="254.492188" xlink:href="#DejaVuSans-30"/>
       <use x="318.115234" xlink:href="#DejaVuSans-30"/>
      </g>
     </g>
    </g>
    <g id="ytick_6">
     <g id="line2d_13">
      <g>
       <use style="stroke:#000000;stroke-width:0.8;" x="57.6" xlink:href="#m36305929ef" y="49.681889"/>
      </g>
     </g>
     <g id="text_14">
      <!-- 110000 -->
      <g transform="translate(12.425 53.481107)scale(0.1 -0.1)">
       <use xlink:href="#DejaVuSans-31"/>
       <use x="63.623047" xlink:href="#DejaVuSans-31"/>
       <use x="127.246094" xlink:href="#DejaVuSans-30"/>
       <use x="190.869141" xlink:href="#DejaVuSans-30"/>
       <use x="254.492188" xlink:href="#DejaVuSans-30"/>
       <use x="318.115234" xlink:href="#DejaVuSans-30"/>
      </g>
     </g>
    </g>
   </g>
   <g id="line2d_14">
    <path clip-path="url(#pebfef2910b)" d="M 73.832727 52.154182 
L 75.456 57.334072 
L 80.325818 60.711182 
L 81.949091 61.532254 
L 83.572364 57.80789 
L 86.818909 58.454253 
L 91.688727 74.151765 
L 93.312 94.460184 
L 94.935273 110.737474 
L 96.558545 92.383782 
L 98.181818 102.814869 
L 103.051636 91.158755 
L 104.674909 72.065225 
L 106.298182 66.672762 
L 107.921455 79.144065 
L 109.544727 76.430685 
L 114.414545 84.423783 
L 116.037818 91.716945 
L 117.661091 79.714268 
L 119.284364 88.915286 
L 120.907636 91.332613 
L 125.777455 103.070593 
L 127.400727 83.10665 
L 129.024 75.633281 
L 130.647273 70.045345 
L 137.140364 63.04849 
L 138.763636 64.478282 
L 140.386909 63.071806 
L 142.010182 63.389318 
L 143.633455 65.047831 
L 148.503273 63.120652 
L 150.126545 63.062502 
L 151.749818 85.425662 
L 153.373091 83.763193 
L 154.996364 88.796162 
L 159.866182 91.332593 
L 161.489455 82.390305 
L 163.112727 82.246742 
L 164.736 93.708635 
L 166.359273 95.163716 
L 172.852364 114.411804 
L 174.475636 122.852683 
L 176.098909 134.468771 
L 177.722182 149.994432 
L 182.592 139.794725 
L 184.215273 153.330004 
L 185.838545 159.250139 
L 187.461818 168.119144 
L 189.085091 150.582413 
L 193.954909 130.428616 
L 195.578182 122.147271 
L 197.201455 119.849108 
L 198.824727 137.338338 
L 200.448 132.507478 
L 205.317818 132.268294 
L 206.941091 123.439661 
L 208.564364 106.464581 
L 211.810909 134.241986 
L 216.680727 139.730674 
L 218.304 122.615657 
L 219.927273 121.991292 
L 221.550545 141.903968 
L 223.173818 147.77565 
L 229.666909 158.070633 
L 231.290182 173.859637 
L 232.913455 157.995666 
L 234.536727 138.097302 
L 239.406545 138.280058 
L 241.029818 152.261683 
L 242.653091 135.479496 
L 245.899636 152.290814 
L 250.769455 178.452083 
L 252.392727 180.993791 
L 254.016 159.021717 
L 255.639273 162.282984 
L 257.262545 174.380498 
L 262.132364 182.775759 
L 263.755636 168.62222 
L 265.378909 146.896527 
L 267.002182 134.129205 
L 268.625455 124.015146 
L 273.495273 127.424961 
L 275.118545 117.966569 
L 276.741818 131.680253 
L 278.365091 121.681829 
L 279.988364 118.851438 
L 284.858182 114.905307 
L 286.481455 98.321815 
L 288.104727 108.362444 
L 289.728 119.713275 
L 291.351273 114.847509 
L 296.221091 110.203713 
L 297.844364 123.863235 
L 299.467636 132.866743 
L 301.090909 131.293102 
L 302.714182 133.896066 
L 307.584 142.704855 
L 309.207273 144.477089 
L 310.830545 131.666046 
L 312.453818 141.407209 
L 318.946909 144.293064 
L 320.570182 127.859245 
L 322.193455 126.550215 
L 323.816727 142.52513 
L 325.44 164.209442 
L 330.309818 159.335092 
L 331.933091 182.293011 
L 333.556364 182.062729 
L 335.179636 165.95856 
L 336.802909 192.082712 
L 341.672727 186.510676 
L 343.296 181.739354 
L 344.919273 160.832655 
L 346.542545 190.025173 
L 353.035636 230.503307 
L 354.658909 230.800158 
L 356.282182 244.572385 
L 357.905455 240.11754 
L 359.528727 217.28182 
L 364.398545 223.044505 
L 366.021818 205.265723 
L 367.645091 234.612622 
L 369.268364 233.80775 
L 370.891636 233.145941 
L 375.761455 223.356411 
L 377.384727 233.881715 
L 379.008 222.875441 
L 380.631273 206.311589 
L 382.254545 186.459577 
L 388.747636 194.630502 
L 390.370909 201.501616 
L 391.994182 183.865025 
L 393.617455 194.587529 
L 398.487273 194.701493 
L 398.487273 194.701493 
" style="fill:none;stroke:#0000ff;stroke-linecap:square;stroke-opacity:0.9;stroke-width:2;"/>
   </g>
   <g id="line2d_15">
    <path clip-path="url(#pebfef2910b)" d="M 73.832727 52.154182 
L 75.456 56.724362 
L 80.325818 61.151938 
L 81.949091 61.224146 
L 83.572364 57.90776 
L 86.818909 80.539285 
L 91.688727 74.156144 
L 93.312 94.742232 
L 94.935273 111.04861 
L 96.558545 92.265366 
L 98.181818 102.255053 
L 103.051636 91.206751 
L 104.674909 72.291254 
L 106.298182 66.963236 
L 107.921455 79.300881 
L 109.544727 76.243176 
L 114.414545 84.474171 
L 116.037818 91.288328 
L 117.661091 79.541264 
L 119.284364 89.121748 
L 120.907636 91.042075 
L 125.777455 103.039838 
L 127.400727 82.772806 
L 129.024 75.757205 
L 130.647273 69.542033 
L 137.140364 63.024153 
L 138.763636 65.244027 
L 140.386909 62.890749 
L 142.010182 63.824889 
L 143.633455 64.37545 
L 148.503273 63.276212 
L 150.126545 62.374182 
L 151.749818 85.086473 
L 153.373091 82.838724 
L 154.996364 87.799801 
L 159.866182 91.063362 
L 161.489455 80.784383 
L 163.112727 81.614598 
L 164.736 92.095883 
L 166.359273 93.26344 
L 172.852364 112.210172 
L 174.475636 121.437634 
L 176.098909 132.316838 
L 177.722182 147.713367 
L 182.592 138.721262 
L 184.215273 150.495271 
L 185.838545 157.269822 
L 187.461818 165.359966 
L 189.085091 148.386781 
L 193.954909 128.333646 
L 195.578182 120.252006 
L 197.201455 118.849882 
L 198.824727 135.872596 
L 200.448 131.447483 
L 205.317818 130.37309 
L 206.941091 121.034689 
L 208.564364 105.955949 
L 211.810909 132.589577 
L 216.680727 138.004762 
L 218.304 121.790095 
L 219.927273 120.416457 
L 221.550545 140.071789 
L 223.173818 145.887947 
L 229.666909 156.283035 
L 231.290182 170.840388 
L 232.913455 156.564486 
L 234.536727 136.831579 
L 239.406545 137.134055 
L 241.029818 150.734609 
L 242.653091 134.141193 
L 244.276364 141.451924 
L 245.899636 150.533262 
L 250.769455 176.085547 
L 252.392727 177.900928 
L 254.016 156.900889 
L 255.639273 159.260438 
L 257.262545 170.793519 
L 262.132364 179.358232 
L 263.755636 165.343355 
L 265.378909 145.000307 
L 267.002182 132.440337 
L 268.625455 123.222891 
L 273.495273 125.436336 
L 275.118545 116.551139 
L 276.741818 130.154004 
L 278.365091 119.996005 
L 279.988364 116.524776 
L 284.858182 113.60637 
L 286.481455 97.31517 
L 288.104727 106.350842 
L 289.728 118.034304 
L 291.351273 113.25234 
L 296.221091 109.319558 
L 297.844364 122.449603 
L 299.467636 130.774854 
L 301.090909 129.379693 
L 302.714182 131.34981 
L 307.584 140.338316 
L 309.207273 142.121681 
L 310.830545 130.238327 
L 312.453818 138.18491 
L 318.946909 141.662953 
L 320.570182 125.578322 
L 322.193455 123.716029 
L 323.816727 139.042758 
L 325.44 160.533477 
L 330.309818 156.166441 
L 331.933091 179.248687 
L 333.556364 178.220161 
L 335.179636 162.716106 
L 336.802909 188.776081 
L 341.672727 183.878417 
L 343.296 178.812273 
L 344.919273 157.191675 
L 346.542545 186.246008 
L 348.165818 194.818545 
L 353.035636 224.366998 
L 354.658909 225.091629 
L 356.282182 237.80552 
L 357.905455 233.776908 
L 359.528727 212.209273 
L 364.398545 216.64605 
L 366.021818 199.791119 
L 367.645091 228.262904 
L 369.268364 227.867548 
L 370.891636 228.48291 
L 375.761455 217.755799 
L 377.384727 226.992712 
L 379.008 216.158278 
L 380.631273 200.511603 
L 382.254545 180.666284 
L 388.747636 189.142119 
L 390.370909 195.890598 
L 391.994182 179.50128 
L 393.617455 189.752533 
L 398.487273 186.718901 
L 398.487273 186.718901 
" style="fill:none;stroke:#ff0000;stroke-linecap:square;stroke-opacity:0.9;stroke-width:2;"/>
   </g>
   <g id="line2d_16">
    <path clip-path="url(#pebfef2910b)" d="M 73.832727 52.154182 
L 75.456 57.469455 
L 80.325818 61.022144 
L 81.949091 61.315254 
L 83.572364 57.686172 
L 86.818909 80.184516 
L 91.688727 74.337453 
L 93.312 94.577159 
L 94.935273 110.650027 
L 96.558545 91.812389 
L 98.181818 102.718183 
L 103.051636 91.058184 
L 104.674909 72.386563 
L 106.298182 67.231137 
L 107.921455 79.352341 
L 109.544727 76.740096 
L 114.414545 84.234019 
L 116.037818 91.726533 
L 117.661091 79.301204 
L 119.284364 88.992189 
L 120.907636 90.967398 
L 125.777455 102.433546 
L 127.400727 83.005917 
L 130.647273 69.06353 
L 137.140364 62.518569 
L 138.763636 64.241411 
L 140.386909 62.92119 
L 142.010182 63.517536 
L 143.633455 64.296341 
L 148.503273 62.64293 
L 150.126545 62.842816 
L 151.749818 85.710582 
L 153.373091 83.692421 
L 154.996364 88.741076 
L 159.866182 91.70522 
L 161.489455 81.752821 
L 163.112727 81.958548 
L 164.736 93.357074 
L 166.359273 94.656418 
L 172.852364 114.163995 
L 174.475636 122.818631 
L 176.098909 134.260585 
L 177.722182 149.126878 
L 182.592 139.678528 
L 184.215273 152.458667 
L 185.838545 158.813058 
L 187.461818 168.187071 
L 189.085091 149.478521 
L 193.954909 129.695209 
L 195.578182 121.426834 
L 197.201455 119.289056 
L 198.824727 137.377439 
L 200.448 132.527879 
L 205.317818 131.742079 
L 206.941091 122.870799 
L 208.564364 106.789992 
L 211.810909 133.764122 
L 216.680727 138.980353 
L 218.304 122.287205 
L 219.927273 121.232915 
L 221.550545 141.053412 
L 223.173818 148.038102 
L 229.666909 157.549702 
L 231.290182 173.182742 
L 232.913455 156.665759 
L 234.536727 137.210068 
L 239.406545 137.524538 
L 241.029818 151.812488 
L 242.653091 134.885607 
L 244.276364 142.552136 
L 245.899636 152.061016 
L 250.769455 177.937525 
L 252.392727 179.825068 
L 254.016 158.254771 
L 255.639273 161.18461 
L 257.262545 173.121264 
L 262.132364 182.561486 
L 263.755636 167.500913 
L 265.378909 146.271527 
L 267.002182 133.385727 
L 268.625455 123.350797 
L 273.495273 126.420497 
L 275.118545 117.817815 
L 276.741818 131.329681 
L 278.365091 121.061188 
L 279.988364 117.923247 
L 284.858182 114.272816 
L 286.481455 97.593951 
L 288.104727 107.391201 
L 289.728 118.452169 
L 291.351273 113.860169 
L 296.221091 109.069593 
L 297.844364 122.626219 
L 299.467636 131.955155 
L 301.090909 130.213166 
L 302.714182 132.506627 
L 307.584 141.980452 
L 309.207273 143.426424 
L 310.830545 131.309377 
L 312.453818 140.535663 
L 318.946909 143.938663 
L 320.570182 127.31961 
L 322.193455 125.344785 
L 323.816727 141.466707 
L 325.44 163.722364 
L 330.309818 158.279722 
L 331.933091 181.566294 
L 333.556364 181.21664 
L 335.179636 165.539243 
L 336.802909 191.064729 
L 341.672727 185.625802 
L 343.296 181.562462 
L 344.919273 159.50194 
L 346.542545 189.370371 
L 348.165818 199.324007 
L 353.035636 229.896052 
L 354.658909 230.175784 
L 356.282182 244.10254 
L 357.905455 239.012235 
L 359.528727 216.245003 
L 364.398545 222.424045 
L 366.021818 204.414455 
L 367.645091 233.340307 
L 369.268364 232.470249 
L 370.891636 232.198331 
L 375.761455 222.620866 
L 377.384727 233.011426 
L 379.008 221.715305 
L 380.631273 206.068459 
L 382.254545 185.560761 
L 388.747636 193.700299 
L 390.370909 200.539968 
L 391.994182 182.865935 
L 393.617455 193.770714 
L 398.487273 190.866008 
L 398.487273 190.866008 
" style="fill:none;stroke:#008000;stroke-linecap:square;stroke-opacity:0.9;stroke-width:2;"/>
   </g>
   <g id="line2d_17">
    <path clip-path="url(#pebfef2910b)" d="M 73.832727 52.154182 
L 75.456 57.32711 
L 80.325818 60.920947 
L 81.949091 61.276633 
L 83.572364 58.488974 
L 86.818909 80.64028 
L 91.688727 74.040672 
L 93.312 94.764069 
L 94.935273 110.725022 
L 96.558545 91.800417 
L 98.181818 102.756818 
L 103.051636 91.546767 
L 104.674909 71.782229 
L 106.298182 66.501059 
L 107.921455 79.53334 
L 109.544727 76.44244 
L 114.414545 84.655038 
L 116.037818 91.470665 
L 117.661091 79.158724 
L 119.284364 88.888468 
L 120.907636 91.13325 
L 125.777455 103.066946 
L 127.400727 82.496775 
L 129.024 75.588696 
L 130.647273 69.67878 
L 137.140364 62.517755 
L 138.763636 64.634264 
L 140.386909 62.836485 
L 142.010182 63.291611 
L 143.633455 64.270217 
L 148.503273 62.95696 
L 150.126545 62.675139 
L 151.749818 85.406241 
L 153.373091 83.10599 
L 154.996364 88.958977 
L 159.866182 91.4591 
L 161.489455 81.940263 
L 163.112727 82.48672 
L 164.736 92.767657 
L 166.359273 94.726992 
L 172.852364 113.558722 
L 174.475636 122.858529 
L 176.098909 134.060405 
L 177.722182 149.292009 
L 182.592 139.752538 
L 184.215273 152.586801 
L 185.838545 159.097992 
L 187.461818 167.612265 
L 189.085091 149.770247 
L 193.954909 129.889089 
L 195.578182 121.628361 
L 197.201455 120.188224 
L 198.824727 137.001089 
L 200.448 132.511584 
L 205.317818 131.946639 
L 206.941091 122.550803 
L 208.564364 106.925794 
L 211.810909 134.007425 
L 216.680727 139.462569 
L 218.304 122.494965 
L 219.927273 121.250059 
L 221.550545 141.681563 
L 223.173818 147.942095 
L 229.666909 157.96862 
L 231.290182 173.245795 
L 232.913455 157.420829 
L 234.536727 137.578347 
L 239.406545 137.87038 
L 241.029818 151.827052 
L 242.653091 135.684168 
L 244.276364 143.187363 
L 250.769455 178.026254 
L 252.392727 180.445896 
L 254.016 158.750257 
L 255.639273 161.805852 
L 257.262545 173.578266 
L 262.132364 182.47309 
L 263.755636 168.43467 
L 265.378909 146.245455 
L 267.002182 133.557386 
L 268.625455 124.029364 
L 273.495273 126.271389 
L 275.118545 117.514077 
L 276.741818 131.479027 
L 278.365091 120.716173 
L 279.988364 117.622382 
L 284.858182 115.093896 
L 286.481455 97.920775 
L 288.104727 107.215852 
L 289.728 118.992038 
L 291.351273 113.88965 
L 296.221091 109.927901 
L 297.844364 123.429648 
L 299.467636 132.294831 
L 301.090909 131.249221 
L 302.714182 133.052898 
L 307.584 142.112707 
L 309.207273 144.178728 
L 310.830545 131.434144 
L 312.453818 140.852617 
L 318.946909 143.769746 
L 320.570182 127.169024 
L 322.193455 126.195302 
L 323.816727 142.23549 
L 325.44 163.488991 
L 330.309818 158.456029 
L 331.933091 182.037043 
L 333.556364 181.295587 
L 335.179636 165.291898 
L 336.802909 191.377476 
L 341.672727 186.200855 
L 343.296 181.685905 
L 344.919273 160.079668 
L 346.542545 189.502255 
L 353.035636 229.807913 
L 354.658909 230.01421 
L 356.282182 243.791394 
L 357.905455 238.769808 
L 359.528727 217.077925 
L 364.398545 222.232935 
L 366.021818 205.155394 
L 367.645091 233.773736 
L 369.268364 232.95125 
L 370.891636 232.691841 
L 375.761455 222.723936 
L 377.384727 232.484616 
L 379.008 222.380462 
L 380.631273 205.509899 
L 382.254545 185.336655 
L 388.747636 194.407234 
L 390.370909 200.627832 
L 391.994182 183.317442 
L 393.617455 193.387409 
L 398.487273 190.742725 
L 398.487273 190.742725 
" style="fill:none;stroke:#ec5283;stroke-linecap:square;stroke-width:2;"/>
   </g>
   <g id="line2d_18">
    <path clip-path="url(#pebfef2910b)" d="M 73.832727 52.154182 
L 75.456 57.322359 
L 80.325818 60.739827 
L 81.949091 61.126874 
L 83.572364 57.699724 
L 86.818909 80.650685 
L 91.688727 74.15042 
L 93.312 94.106034 
L 94.935273 110.554229 
L 96.558545 92.172161 
L 98.181818 102.508668 
L 103.051636 91.132382 
L 104.674909 72.274957 
L 106.298182 67.073191 
L 107.921455 78.870692 
L 109.544727 76.706604 
L 114.414545 84.05065 
L 116.037818 91.46881 
L 117.661091 79.430076 
L 119.284364 88.2943 
L 120.907636 91.122165 
L 125.777455 102.728847 
L 127.400727 82.305361 
L 130.647273 69.373694 
L 137.140364 62.424212 
L 138.763636 64.306497 
L 140.386909 62.553153 
L 142.010182 63.326709 
L 143.633455 64.323536 
L 150.126545 62.615319 
L 151.749818 85.567 
L 153.373091 83.258712 
L 154.996364 88.73981 
L 159.866182 91.524043 
L 161.489455 81.813474 
L 163.112727 82.029135 
L 164.736 92.587477 
L 166.359273 94.312481 
L 172.852364 113.526607 
L 174.475636 122.102212 
L 176.098909 133.904143 
L 177.722182 149.051713 
L 182.592 139.637954 
L 184.215273 152.128965 
L 185.838545 158.822865 
L 187.461818 167.240912 
L 189.085091 149.366216 
L 193.954909 129.340868 
L 195.578182 121.095354 
L 197.201455 118.944894 
L 198.824727 136.371338 
L 200.448 132.210668 
L 205.317818 131.655893 
L 206.941091 122.361268 
L 208.564364 105.989322 
L 210.187636 119.328353 
L 211.810909 133.956355 
L 216.680727 138.391843 
L 218.304 122.266748 
L 219.927273 120.765 
L 221.550545 140.708442 
L 223.173818 147.035766 
L 229.666909 156.922394 
L 231.290182 172.280754 
L 232.913455 156.590874 
L 234.536727 137.502526 
L 239.406545 137.455162 
L 241.029818 151.200517 
L 242.653091 134.782663 
L 244.276364 141.750173 
L 245.899636 151.580364 
L 250.769455 177.700441 
L 252.392727 179.766969 
L 254.016 157.664541 
L 255.639273 160.650634 
L 257.262545 172.904469 
L 262.132364 181.999228 
L 263.755636 167.317416 
L 265.378909 145.378484 
L 267.002182 133.108028 
L 268.625455 123.501174 
L 273.495273 125.850607 
L 275.118545 116.815035 
L 276.741818 130.786903 
L 278.365091 120.562347 
L 279.988364 117.723121 
L 284.858182 114.363638 
L 286.481455 97.620613 
L 288.104727 106.568101 
L 289.728 118.726983 
L 291.351273 113.015349 
L 296.221091 108.923223 
L 297.844364 122.173665 
L 299.467636 131.334275 
L 301.090909 130.533599 
L 302.714182 132.706628 
L 307.584 141.083111 
L 309.207273 142.890071 
L 310.830545 130.782001 
L 312.453818 139.659718 
L 318.946909 143.277558 
L 320.570182 126.507636 
L 322.193455 125.349609 
L 323.816727 141.071783 
L 325.44 163.09691 
L 330.309818 158.096579 
L 331.933091 181.186321 
L 333.556364 180.364519 
L 335.179636 164.750371 
L 336.802909 190.735938 
L 341.672727 184.818869 
L 343.296 180.614047 
L 344.919273 158.867694 
L 346.542545 188.969255 
L 348.165818 198.165652 
L 353.035636 229.018042 
L 354.658909 229.190734 
L 356.282182 242.889125 
L 357.905455 237.821485 
L 359.528727 215.649887 
L 364.398545 221.311522 
L 366.021818 204.203639 
L 367.645091 232.432344 
L 370.891636 231.171522 
L 375.761455 221.806116 
L 377.384727 231.881688 
L 379.008 221.258034 
L 380.631273 204.807547 
L 382.254545 184.440172 
L 388.747636 193.088333 
L 390.370909 199.658163 
L 391.994182 182.187542 
L 393.617455 192.761534 
L 398.487273 190.526864 
L 398.487273 190.526864 
" style="fill:none;stroke:#00ff00;stroke-linecap:square;stroke-opacity:0.9;stroke-width:2;"/>
   </g>
   <g id="line2d_19">
    <path clip-path="url(#pebfef2910b)" d="M 73.832727 52.154182 
L 75.456 57.507362 
L 80.325818 61.950349 
L 81.949091 64.212564 
L 83.572364 59.270911 
L 86.818909 81.475574 
L 91.688727 77.43179 
L 93.312 98.214018 
L 94.935273 114.022276 
L 96.558545 93.827496 
L 98.181818 105.092384 
L 103.051636 92.907608 
L 104.674909 72.582067 
L 106.298182 66.960909 
L 107.921455 81.650111 
L 109.544727 80.781613 
L 114.414545 88.302886 
L 116.037818 95.168657 
L 117.661091 83.135048 
L 119.284364 94.441657 
L 120.907636 92.283514 
L 125.777455 104.742281 
L 127.400727 82.726677 
L 129.024 76.386384 
L 130.647273 69.293274 
L 137.140364 60.366107 
L 138.763636 62.33982 
L 140.386909 60.782068 
L 142.010182 60.366542 
L 143.633455 61.008045 
L 148.503273 59.368652 
L 150.126545 61.242788 
L 151.749818 89.026411 
L 153.373091 88.441748 
L 154.996364 96.943878 
L 159.866182 98.686085 
L 161.489455 87.816895 
L 163.112727 88.927053 
L 164.736 105.314638 
L 166.359273 107.805341 
L 172.852364 129.571508 
L 174.475636 137.603318 
L 176.098909 147.850039 
L 177.722182 164.247012 
L 182.592 152.148299 
L 184.215273 169.063913 
L 185.838545 176.214878 
L 187.461818 186.064555 
L 189.085091 165.648208 
L 193.954909 140.965643 
L 195.578182 131.830884 
L 197.201455 131.887278 
L 198.824727 150.531978 
L 200.448 144.287081 
L 205.317818 143.938731 
L 206.941091 134.474833 
L 208.564364 117.148174 
L 210.187636 130.948536 
L 211.810909 146.407669 
L 216.680727 150.354244 
L 218.304 132.233927 
L 219.927273 132.815887 
L 221.550545 154.667886 
L 223.173818 162.082162 
L 229.666909 172.445826 
L 231.290182 189.372545 
L 232.913455 169.104324 
L 234.536727 151.237184 
L 239.406545 150.771268 
L 241.029818 163.014891 
L 242.653091 148.634214 
L 250.769455 193.926102 
L 252.392727 196.058041 
L 254.016 173.093159 
L 255.639273 176.682353 
L 257.262545 190.378677 
L 262.132364 201.396633 
L 263.755636 184.489043 
L 265.378909 160.81358 
L 267.002182 147.616459 
L 268.625455 136.180331 
L 273.495273 138.899846 
L 275.118545 129.056819 
L 276.741818 140.737712 
L 278.365091 129.6374 
L 279.988364 128.525334 
L 284.858182 123.662377 
L 286.481455 104.756832 
L 288.104727 115.115337 
L 289.728 126.254169 
L 291.351273 120.662434 
L 296.221091 115.540455 
L 297.844364 129.767557 
L 299.467636 138.485166 
L 301.090909 137.773262 
L 307.584 149.240398 
L 309.207273 151.041406 
L 310.830545 137.268383 
L 312.453818 147.628013 
L 318.946909 151.739368 
L 320.570182 134.299783 
L 322.193455 136.36265 
L 323.816727 154.31011 
L 325.44 176.335348 
L 330.309818 167.652718 
L 331.933091 194.406233 
L 333.556364 194.649989 
L 335.179636 175.829516 
L 336.802909 203.52504 
L 341.672727 195.531997 
L 343.296 193.571992 
L 344.919273 172.090205 
L 346.542545 205.302749 
L 348.165818 217.046597 
L 353.035636 250.417531 
L 354.658909 249.217181 
L 356.282182 265.797818 
L 357.905455 259.44244 
L 359.528727 233.481349 
L 364.398545 241.64935 
L 366.021818 224.513605 
L 367.645091 253.640607 
L 369.268364 250.978866 
L 370.891636 250.020535 
L 375.761455 240.715816 
L 377.384727 253.394223 
L 379.008 243.133692 
L 380.631273 226.481013 
L 382.254545 204.434738 
L 388.747636 212.015383 
L 390.370909 219.18213 
L 391.994182 199.436591 
L 393.617455 210.659228 
L 398.487273 208.489532 
L 398.487273 208.489532 
" style="fill:none;stroke:#a5b9cf;stroke-linecap:square;stroke-width:2;"/>
   </g>
   <g id="patch_3">
    <path d="M 57.6 276.48 
L 57.6 41.472 
" style="fill:none;stroke:#000000;stroke-linecap:square;stroke-linejoin:miter;stroke-width:0.8;"/>
   </g>
   <g id="patch_4">
    <path d="M 414.72 276.48 
L 414.72 41.472 
" style="fill:none;stroke:#000000;stroke-linecap:square;stroke-linejoin:miter;stroke-width:0.8;"/>
   </g>
   <g id="patch_5">
    <path d="M 57.6 276.48 
L 414.72 276.48 
" style="fill:none;stroke:#000000;stroke-linecap:square;stroke-linejoin:miter;stroke-width:0.8;"/>
   </g>
   <g id="patch_6">
    <path d="M 57.6 41.472 
L 414.72 41.472 
" style="fill:none;stroke:#000000;stroke-linecap:square;stroke-linejoin:miter;stroke-width:0.8;"/>
   </g>
   <g id="text_15">
    <!-- SCHMOO -->
    <g transform="translate(209.025937 22.034625)scale(0.12 -0.12)">
     <defs>
      <path d="M 3425 4513 
L 3425 3897 
Q 3066 4069 2747 4153 
Q 2428 4238 2131 4238 
Q 1616 4238 1336 4038 
Q 1056 3838 1056 3469 
Q 1056 3159 1242 3001 
Q 1428 2844 1947 2747 
L 2328 2669 
Q 3034 2534 3370 2195 
Q 3706 1856 3706 1288 
Q 3706 609 3251 259 
Q 2797 -91 1919 -91 
Q 1588 -91 1214 -16 
Q 841 59 441 206 
L 441 856 
Q 825 641 1194 531 
Q 1563 422 1919 422 
Q 2459 422 2753 634 
Q 3047 847 3047 1241 
Q 3047 1584 2836 1778 
Q 2625 1972 2144 2069 
L 1759 2144 
Q 1053 2284 737 2584 
Q 422 2884 422 3419 
Q 422 4038 858 4394 
Q 1294 4750 2059 4750 
Q 2388 4750 2728 4690 
Q 3069 4631 3425 4513 
z
" id="DejaVuSans-53" transform="scale(0.015625)"/>
      <path d="M 4122 4306 
L 4122 3641 
Q 3803 3938 3442 4084 
Q 3081 4231 2675 4231 
Q 1875 4231 1450 3742 
Q 1025 3253 1025 2328 
Q 1025 1406 1450 917 
Q 1875 428 2675 428 
Q 3081 428 3442 575 
Q 3803 722 4122 1019 
L 4122 359 
Q 3791 134 3420 21 
Q 3050 -91 2638 -91 
Q 1578 -91 968 557 
Q 359 1206 359 2328 
Q 359 3453 968 4101 
Q 1578 4750 2638 4750 
Q 3056 4750 3426 4639 
Q 3797 4528 4122 4306 
z
" id="DejaVuSans-43" transform="scale(0.015625)"/>
      <path d="M 628 4666 
L 1259 4666 
L 1259 2753 
L 3553 2753 
L 3553 4666 
L 4184 4666 
L 4184 0 
L 3553 0 
L 3553 2222 
L 1259 2222 
L 1259 0 
L 628 0 
L 628 4666 
z
" id="DejaVuSans-48" transform="scale(0.015625)"/>
      <path d="M 628 4666 
L 1569 4666 
L 2759 1491 
L 3956 4666 
L 4897 4666 
L 4897 0 
L 4281 0 
L 4281 4097 
L 3078 897 
L 2444 897 
L 1241 4097 
L 1241 0 
L 628 0 
L 628 4666 
z
" id="DejaVuSans-4d" transform="scale(0.015625)"/>
      <path d="M 2522 4238 
Q 1834 4238 1429 3725 
Q 1025 3213 1025 2328 
Q 1025 1447 1429 934 
Q 1834 422 2522 422 
Q 3209 422 3611 934 
Q 4013 1447 4013 2328 
Q 4013 3213 3611 3725 
Q 3209 4238 2522 4238 
z
M 2522 4750 
Q 3503 4750 4090 4092 
Q 4678 3434 4678 2328 
Q 4678 1225 4090 567 
Q 3503 -91 2522 -91 
Q 1538 -91 948 565 
Q 359 1222 359 2328 
Q 359 3434 948 4092 
Q 1538 4750 2522 4750 
z
" id="DejaVuSans-4f" transform="scale(0.015625)"/>
     </defs>
     <use xlink:href="#DejaVuSans-53"/>
     <use x="63.476562" xlink:href="#DejaVuSans-43"/>
     <use x="133.300781" xlink:href="#DejaVuSans-48"/>
     <use x="208.496094" xlink:href="#DejaVuSans-4d"/>
     <use x="294.775391" xlink:href="#DejaVuSans-4f"/>
     <use x="373.486328" xlink:href="#DejaVuSans-4f"/>
    </g>
    <!-- daily_report -->
    <g transform="translate(200.466563 35.472)scale(0.12 -0.12)">
     <defs>
      <path d="M 603 3500 
L 1178 3500 
L 1178 0 
L 603 0 
L 603 3500 
z
M 603 4863 
L 1178 4863 
L 1178 4134 
L 603 4134 
L 603 4863 
z
" id="DejaVuSans-69" transform="scale(0.015625)"/>
      <path d="M 603 4863 
L 1178 4863 
L 1178 0 
L 603 0 
L 603 4863 
z
" id="DejaVuSans-6c" transform="scale(0.015625)"/>
      <path d="M 2059 -325 
Q 1816 -950 1584 -1140 
Q 1353 -1331 966 -1331 
L 506 -1331 
L 506 -850 
L 844 -850 
Q 1081 -850 1212 -737 
Q 1344 -625 1503 -206 
L 1606 56 
L 191 3500 
L 800 3500 
L 1894 763 
L 2988 3500 
L 3597 3500 
L 2059 -325 
z
" id="DejaVuSans-79" transform="scale(0.015625)"/>
      <path d="M 3263 -1063 
L 3263 -1509 
L -63 -1509 
L -63 -1063 
L 3263 -1063 
z
" id="DejaVuSans-5f" transform="scale(0.015625)"/>
      <path d="M 2631 2963 
Q 2534 3019 2420 3045 
Q 2306 3072 2169 3072 
Q 1681 3072 1420 2755 
Q 1159 2438 1159 1844 
L 1159 0 
L 581 0 
L 581 3500 
L 1159 3500 
L 1159 2956 
Q 1341 3275 1631 3429 
Q 1922 3584 2338 3584 
Q 2397 3584 2469 3576 
Q 2541 3569 2628 3553 
L 2631 2963 
z
" id="DejaVuSans-72" transform="scale(0.015625)"/>
      <path d="M 1159 525 
L 1159 -1331 
L 581 -1331 
L 581 3500 
L 1159 3500 
L 1159 2969 
Q 1341 3281 1617 3432 
Q 1894 3584 2278 3584 
Q 2916 3584 3314 3078 
Q 3713 2572 3713 1747 
Q 3713 922 3314 415 
Q 2916 -91 2278 -91 
Q 1894 -91 1617 61 
Q 1341 213 1159 525 
z
M 3116 1747 
Q 3116 2381 2855 2742 
Q 2594 3103 2138 3103 
Q 1681 3103 1420 2742 
Q 1159 2381 1159 1747 
Q 1159 1113 1420 752 
Q 1681 391 2138 391 
Q 2594 391 2855 752 
Q 3116 1113 3116 1747 
z
" id="DejaVuSans-70" transform="scale(0.015625)"/>
      <path d="M 1959 3097 
Q 1497 3097 1228 2736 
Q 959 2375 959 1747 
Q 959 1119 1226 758 
Q 1494 397 1959 397 
Q 2419 397 2687 759 
Q 2956 1122 2956 1747 
Q 2956 2369 2687 2733 
Q 2419 3097 1959 3097 
z
M 1959 3584 
Q 2709 3584 3137 3096 
Q 3566 2609 3566 1747 
Q 3566 888 3137 398 
Q 2709 -91 1959 -91 
Q 1206 -91 779 398 
Q 353 888 353 1747 
Q 353 2609 779 3096 
Q 1206 3584 1959 3584 
z
" id="DejaVuSans-6f" transform="scale(0.015625)"/>
     </defs>
     <use xlink:href="#DejaVuSans-64"/>
     <use x="63.476562" xlink:href="#DejaVuSans-61"/>
     <use x="124.755859" xlink:href="#DejaVuSans-69"/>
     <use x="152.539062" xlink:href="#DejaVuSans-6c"/>
     <use x="180.322266" xlink:href="#DejaVuSans-79"/>
     <use x="239.501953" xlink:href="#DejaVuSans-5f"/>
     <use x="289.501953" xlink:href="#DejaVuSans-72"/>
     <use x="328.365234" xlink:href="#DejaVuSans-65"/>
     <use x="389.888672" xlink:href="#DejaVuSans-70"/>
     <use x="453.365234" xlink:href="#DejaVuSans-6f"/>
     <use x="514.546875" xlink:href="#DejaVuSans-72"/>
     <use x="555.660156" xlink:href="#DejaVuSans-74"/>
    </g>
   </g>
   <g id="legend_1">
    <g id="patch_7">
     <path d="M 64.6 271.48 
L 178.64375 271.48 
Q 180.64375 271.48 180.64375 269.48 
L 180.64375 182.41125 
Q 180.64375 180.41125 178.64375 180.41125 
L 64.6 180.41125 
Q 62.6 180.41125 62.6 182.41125 
L 62.6 269.48 
Q 62.6 271.48 64.6 271.48 
z
" style="fill:#ffffff;opacity:0.8;stroke:#cccccc;stroke-linejoin:miter;"/>
    </g>
    <g id="line2d_20">
     <path d="M 66.6 188.509687 
L 86.6 188.509687 
" style="fill:none;stroke:#0000ff;stroke-linecap:square;stroke-opacity:0.9;stroke-width:2;"/>
    </g>
    <g id="line2d_21"/>
    <g id="text_16">
     <!-- alpaca -->
     <g transform="translate(94.6 192.009687)scale(0.1 -0.1)">
      <defs>
       <path d="M 3122 3366 
L 3122 2828 
Q 2878 2963 2633 3030 
Q 2388 3097 2138 3097 
Q 1578 3097 1268 2742 
Q 959 2388 959 1747 
Q 959 1106 1268 751 
Q 1578 397 2138 397 
Q 2388 397 2633 464 
Q 2878 531 3122 666 
L 3122 134 
Q 2881 22 2623 -34 
Q 2366 -91 2075 -91 
Q 1284 -91 818 406 
Q 353 903 353 1747 
Q 353 2603 823 3093 
Q 1294 3584 2113 3584 
Q 2378 3584 2631 3529 
Q 2884 3475 3122 3366 
z
" id="DejaVuSans-63" transform="scale(0.015625)"/>
      </defs>
      <use xlink:href="#DejaVuSans-61"/>
      <use x="61.279297" xlink:href="#DejaVuSans-6c"/>
      <use x="89.0625" xlink:href="#DejaVuSans-70"/>
      <use x="152.539062" xlink:href="#DejaVuSans-61"/>
      <use x="213.818359" xlink:href="#DejaVuSans-63"/>
      <use x="268.798828" xlink:href="#DejaVuSans-61"/>
     </g>
    </g>
    <g id="line2d_22">
     <path d="M 66.6 203.187812 
L 86.6 203.187812 
" style="fill:none;stroke:#ff0000;stroke-linecap:square;stroke-opacity:0.9;stroke-width:2;"/>
    </g>
    <g id="line2d_23"/>
    <g id="text_17">
     <!-- mattress -->
     <g transform="translate(94.6 206.687812)scale(0.1 -0.1)">
      <defs>
       <path d="M 3328 2828 
Q 3544 3216 3844 3400 
Q 4144 3584 4550 3584 
Q 5097 3584 5394 3201 
Q 5691 2819 5691 2113 
L 5691 0 
L 5113 0 
L 5113 2094 
Q 5113 2597 4934 2840 
Q 4756 3084 4391 3084 
Q 3944 3084 3684 2787 
Q 3425 2491 3425 1978 
L 3425 0 
L 2847 0 
L 2847 2094 
Q 2847 2600 2669 2842 
Q 2491 3084 2119 3084 
Q 1678 3084 1418 2786 
Q 1159 2488 1159 1978 
L 1159 0 
L 581 0 
L 581 3500 
L 1159 3500 
L 1159 2956 
Q 1356 3278 1631 3431 
Q 1906 3584 2284 3584 
Q 2666 3584 2933 3390 
Q 3200 3197 3328 2828 
z
" id="DejaVuSans-6d" transform="scale(0.015625)"/>
       <path d="M 2834 3397 
L 2834 2853 
Q 2591 2978 2328 3040 
Q 2066 3103 1784 3103 
Q 1356 3103 1142 2972 
Q 928 2841 928 2578 
Q 928 2378 1081 2264 
Q 1234 2150 1697 2047 
L 1894 2003 
Q 2506 1872 2764 1633 
Q 3022 1394 3022 966 
Q 3022 478 2636 193 
Q 2250 -91 1575 -91 
Q 1294 -91 989 -36 
Q 684 19 347 128 
L 347 722 
Q 666 556 975 473 
Q 1284 391 1588 391 
Q 1994 391 2212 530 
Q 2431 669 2431 922 
Q 2431 1156 2273 1281 
Q 2116 1406 1581 1522 
L 1381 1569 
Q 847 1681 609 1914 
Q 372 2147 372 2553 
Q 372 3047 722 3315 
Q 1072 3584 1716 3584 
Q 2034 3584 2315 3537 
Q 2597 3491 2834 3397 
z
" id="DejaVuSans-73" transform="scale(0.015625)"/>
      </defs>
      <use xlink:href="#DejaVuSans-6d"/>
      <use x="97.412109" xlink:href="#DejaVuSans-61"/>
      <use x="158.691406" xlink:href="#DejaVuSans-74"/>
      <use x="197.900391" xlink:href="#DejaVuSans-74"/>
      <use x="237.109375" xlink:href="#DejaVuSans-72"/>
      <use x="275.972656" xlink:href="#DejaVuSans-65"/>
      <use x="337.496094" xlink:href="#DejaVuSans-73"/>
      <use x="389.595703" xlink:href="#DejaVuSans-73"/>
     </g>
    </g>
    <g id="line2d_24">
     <path d="M 66.6 217.865937 
L 86.6 217.865937 
" style="fill:none;stroke:#008000;stroke-linecap:square;stroke-opacity:0.9;stroke-width:2;"/>
    </g>
    <g id="line2d_25"/>
    <g id="text_18">
     <!-- daily-open-rebal -->
     <g transform="translate(94.6 221.365937)scale(0.1 -0.1)">
      <defs>
       <path d="M 3513 2113 
L 3513 0 
L 2938 0 
L 2938 2094 
Q 2938 2591 2744 2837 
Q 2550 3084 2163 3084 
Q 1697 3084 1428 2787 
Q 1159 2491 1159 1978 
L 1159 0 
L 581 0 
L 581 3500 
L 1159 3500 
L 1159 2956 
Q 1366 3272 1645 3428 
Q 1925 3584 2291 3584 
Q 2894 3584 3203 3211 
Q 3513 2838 3513 2113 
z
" id="DejaVuSans-6e" transform="scale(0.015625)"/>
       <path d="M 3116 1747 
Q 3116 2381 2855 2742 
Q 2594 3103 2138 3103 
Q 1681 3103 1420 2742 
Q 1159 2381 1159 1747 
Q 1159 1113 1420 752 
Q 1681 391 2138 391 
Q 2594 391 2855 752 
Q 3116 1113 3116 1747 
z
M 1159 2969 
Q 1341 3281 1617 3432 
Q 1894 3584 2278 3584 
Q 2916 3584 3314 3078 
Q 3713 2572 3713 1747 
Q 3713 922 3314 415 
Q 2916 -91 2278 -91 
Q 1894 -91 1617 61 
Q 1341 213 1159 525 
L 1159 0 
L 581 0 
L 581 4863 
L 1159 4863 
L 1159 2969 
z
" id="DejaVuSans-62" transform="scale(0.015625)"/>
      </defs>
      <use xlink:href="#DejaVuSans-64"/>
      <use x="63.476562" xlink:href="#DejaVuSans-61"/>
      <use x="124.755859" xlink:href="#DejaVuSans-69"/>
      <use x="152.539062" xlink:href="#DejaVuSans-6c"/>
      <use x="180.322266" xlink:href="#DejaVuSans-79"/>
      <use x="237.751953" xlink:href="#DejaVuSans-2d"/>
      <use x="275.710938" xlink:href="#DejaVuSans-6f"/>
      <use x="336.892578" xlink:href="#DejaVuSans-70"/>
      <use x="400.369141" xlink:href="#DejaVuSans-65"/>
      <use x="461.892578" xlink:href="#DejaVuSans-6e"/>
      <use x="525.271484" xlink:href="#DejaVuSans-2d"/>
      <use x="561.355469" xlink:href="#DejaVuSans-72"/>
      <use x="600.21875" xlink:href="#DejaVuSans-65"/>
      <use x="661.742188" xlink:href="#DejaVuSans-62"/>
      <use x="725.21875" xlink:href="#DejaVuSans-61"/>
      <use x="786.498047" xlink:href="#DejaVuSans-6c"/>
     </g>
    </g>
    <g id="line2d_26">
     <path d="M 66.6 232.544062 
L 86.6 232.544062 
" style="fill:none;stroke:#ec5283;stroke-linecap:square;stroke-width:2;"/>
    </g>
    <g id="line2d_27"/>
    <g id="text_19">
     <!-- daily-close-rebal -->
     <g transform="translate(94.6 236.044062)scale(0.1 -0.1)">
      <use xlink:href="#DejaVuSans-64"/>
      <use x="63.476562" xlink:href="#DejaVuSans-61"/>
      <use x="124.755859" xlink:href="#DejaVuSans-69"/>
      <use x="152.539062" xlink:href="#DejaVuSans-6c"/>
      <use x="180.322266" xlink:href="#DejaVuSans-79"/>
      <use x="237.751953" xlink:href="#DejaVuSans-2d"/>
      <use x="273.835938" xlink:href="#DejaVuSans-63"/>
      <use x="328.816406" xlink:href="#DejaVuSans-6c"/>
      <use x="356.599609" xlink:href="#DejaVuSans-6f"/>
      <use x="417.78125" xlink:href="#DejaVuSans-73"/>
      <use x="469.880859" xlink:href="#DejaVuSans-65"/>
      <use x="531.404297" xlink:href="#DejaVuSans-2d"/>
      <use x="567.488281" xlink:href="#DejaVuSans-72"/>
      <use x="606.351562" xlink:href="#DejaVuSans-65"/>
      <use x="667.875" xlink:href="#DejaVuSans-62"/>
      <use x="731.351562" xlink:href="#DejaVuSans-61"/>
      <use x="792.630859" xlink:href="#DejaVuSans-6c"/>
     </g>
    </g>
    <g id="line2d_28">
     <path d="M 66.6 247.222187 
L 86.6 247.222187 
" style="fill:none;stroke:#00ff00;stroke-linecap:square;stroke-opacity:0.9;stroke-width:2;"/>
    </g>
    <g id="line2d_29"/>
    <g id="text_20">
     <!-- trader-baseline -->
     <g transform="translate(94.6 250.722187)scale(0.1 -0.1)">
      <use xlink:href="#DejaVuSans-74"/>
      <use x="39.208984" xlink:href="#DejaVuSans-72"/>
      <use x="80.322266" xlink:href="#DejaVuSans-61"/>
      <use x="141.601562" xlink:href="#DejaVuSans-64"/>
      <use x="205.078125" xlink:href="#DejaVuSans-65"/>
      <use x="266.601562" xlink:href="#DejaVuSans-72"/>
      <use x="301.339844" xlink:href="#DejaVuSans-2d"/>
      <use x="337.423828" xlink:href="#DejaVuSans-62"/>
      <use x="400.900391" xlink:href="#DejaVuSans-61"/>
      <use x="462.179688" xlink:href="#DejaVuSans-73"/>
      <use x="514.279297" xlink:href="#DejaVuSans-65"/>
      <use x="575.802734" xlink:href="#DejaVuSans-6c"/>
      <use x="603.585938" xlink:href="#DejaVuSans-69"/>
      <use x="631.369141" xlink:href="#DejaVuSans-6e"/>
      <use x="694.748047" xlink:href="#DejaVuSans-65"/>
     </g>
    </g>
    <g id="line2d_30">
     <path d="M 66.6 261.900312 
L 86.6 261.900312 
" style="fill:none;stroke:#a5b9cf;stroke-linecap:square;stroke-width:2;"/>
    </g>
    <g id="line2d_31"/>
    <g id="text_21">
     <!-- default-cfg -->
     <g transform="translate(94.6 265.400312)scale(0.1 -0.1)">
      <defs>
       <path d="M 2375 4863 
L 2375 4384 
L 1825 4384 
Q 1516 4384 1395 4259 
Q 1275 4134 1275 3809 
L 1275 3500 
L 2222 3500 
L 2222 3053 
L 1275 3053 
L 1275 0 
L 697 0 
L 697 3053 
L 147 3053 
L 147 3500 
L 697 3500 
L 697 3744 
Q 697 4328 969 4595 
Q 1241 4863 1831 4863 
L 2375 4863 
z
" id="DejaVuSans-66" transform="scale(0.015625)"/>
       <path d="M 544 1381 
L 544 3500 
L 1119 3500 
L 1119 1403 
Q 1119 906 1312 657 
Q 1506 409 1894 409 
Q 2359 409 2629 706 
Q 2900 1003 2900 1516 
L 2900 3500 
L 3475 3500 
L 3475 0 
L 2900 0 
L 2900 538 
Q 2691 219 2414 64 
Q 2138 -91 1772 -91 
Q 1169 -91 856 284 
Q 544 659 544 1381 
z
M 1991 3584 
L 1991 3584 
z
" id="DejaVuSans-75" transform="scale(0.015625)"/>
       <path d="M 2906 1791 
Q 2906 2416 2648 2759 
Q 2391 3103 1925 3103 
Q 1463 3103 1205 2759 
Q 947 2416 947 1791 
Q 947 1169 1205 825 
Q 1463 481 1925 481 
Q 2391 481 2648 825 
Q 2906 1169 2906 1791 
z
M 3481 434 
Q 3481 -459 3084 -895 
Q 2688 -1331 1869 -1331 
Q 1566 -1331 1297 -1286 
Q 1028 -1241 775 -1147 
L 775 -588 
Q 1028 -725 1275 -790 
Q 1522 -856 1778 -856 
Q 2344 -856 2625 -561 
Q 2906 -266 2906 331 
L 2906 616 
Q 2728 306 2450 153 
Q 2172 0 1784 0 
Q 1141 0 747 490 
Q 353 981 353 1791 
Q 353 2603 747 3093 
Q 1141 3584 1784 3584 
Q 2172 3584 2450 3431 
Q 2728 3278 2906 2969 
L 2906 3500 
L 3481 3500 
L 3481 434 
z
" id="DejaVuSans-67" transform="scale(0.015625)"/>
      </defs>
      <use xlink:href="#DejaVuSans-64"/>
      <use x="63.476562" xlink:href="#DejaVuSans-65"/>
      <use x="125" xlink:href="#DejaVuSans-66"/>
      <use x="160.205078" xlink:href="#DejaVuSans-61"/>
      <use x="221.484375" xlink:href="#DejaVuSans-75"/>
      <use x="284.863281" xlink:href="#DejaVuSans-6c"/>
      <use x="312.646484" xlink:href="#DejaVuSans-74"/>
      <use x="351.855469" xlink:href="#DejaVuSans-2d"/>
      <use x="387.939453" xlink:href="#DejaVuSans-63"/>
      <use x="442.919922" xlink:href="#DejaVuSans-66"/>
      <use x="478.125" xlink:href="#DejaVuSans-67"/>
     </g>
    </g>
   </g>
  </g>
 </g>
 <defs>
  <clipPath id="pebfef2910b">
   <rect height="235.008" width="357.12" x="57.6" y="41.472"/>
  </clipPath>
 </defs>
</svg>
