<?xml version="1.0" encoding="utf-8" standalone="no"?>
<!DOCTYPE svg PUBLIC "-//W3C//DTD SVG 1.1//EN"
  "http://www.w3.org/Graphics/SVG/1.1/DTD/svg11.dtd">
<svg height="345.6pt" version="1.1" viewBox="0 0 460.8 345.6" width="460.8pt" xmlns="http://www.w3.org/2000/svg" xmlns:xlink="http://www.w3.org/1999/xlink">
 <metadata>
  <rdf:RDF xmlns:cc="http://creativecommons.org/ns#" xmlns:dc="http://purl.org/dc/elements/1.1/" xmlns:rdf="http://www.w3.org/1999/02/22-rdf-syntax-ns#">
   <cc:Work>
    <dc:type rdf:resource="http://purl.org/dc/dcmitype/StillImage"/>
    <dc:date>2022-06-07T10:01:41.239248</dc:date>
    <dc:format>image/svg+xml</dc:format>
    <dc:creator>
     <cc:Agent>
      <dc:title>Matplotlib v3.4.3, https://matplotlib.org/</dc:title>
     </cc:Agent>
    </dc:creator>
   </cc:Work>
  </rdf:RDF>
 </metadata>
 <defs>
  <style type="text/css">*{stroke-linecap:butt;stroke-linejoin:round;}</style>
 </defs>
 <g id="figure_1">
  <g id="patch_1">
   <path d="M 0 345.6 
L 460.8 345.6 
L 460.8 0 
L 0 0 
z
" style="fill:#ffffff;"/>
  </g>
  <g id="axes_1">
   <g id="patch_2">
    <path d="M 57.6 276.48 
L 414.72 276.48 
L 414.72 41.472 
L 57.6 41.472 
z
" style="fill:#ffffff;"/>
   </g>
   <g id="matplotlib.axis_1">
    <g id="xtick_1">
     <g id="line2d_1">
      <defs>
       <path d="M 0 0 
L 0 3.5 
" id="m5c9355dd7f" style="stroke:#000000;stroke-width:0.8;"/>
      </defs>
      <g>
       <use style="stroke:#000000;stroke-width:0.8;" x="94.935273" xlink:href="#m5c9355dd7f" y="276.48"/>
      </g>
     </g>
     <g id="text_1">
      <!-- 2021-12 -->
      <g transform="translate(57.710452 310.951846)rotate(-30)scale(0.1 -0.1)">
       <defs>
        <path d="M 1228 531 
L 3431 531 
L 3431 0 
L 469 0 
L 469 531 
Q 828 903 1448 1529 
Q 2069 2156 2228 2338 
Q 2531 2678 2651 2914 
Q 2772 3150 2772 3378 
Q 2772 3750 2511 3984 
Q 2250 4219 1831 4219 
Q 1534 4219 1204 4116 
Q 875 4013 500 3803 
L 500 4441 
Q 881 4594 1212 4672 
Q 1544 4750 1819 4750 
Q 2544 4750 2975 4387 
Q 3406 4025 3406 3419 
Q 3406 3131 3298 2873 
Q 3191 2616 2906 2266 
Q 2828 2175 2409 1742 
Q 1991 1309 1228 531 
z
" id="DejaVuSans-32" transform="scale(0.015625)"/>
        <path d="M 2034 4250 
Q 1547 4250 1301 3770 
Q 1056 3291 1056 2328 
Q 1056 1369 1301 889 
Q 1547 409 2034 409 
Q 2525 409 2770 889 
Q 3016 1369 3016 2328 
Q 3016 3291 2770 3770 
Q 2525 4250 2034 4250 
z
M 2034 4750 
Q 2819 4750 3233 4129 
Q 3647 3509 3647 2328 
Q 3647 1150 3233 529 
Q 2819 -91 2034 -91 
Q 1250 -91 836 529 
Q 422 1150 422 2328 
Q 422 3509 836 4129 
Q 1250 4750 2034 4750 
z
" id="DejaVuSans-30" transform="scale(0.015625)"/>
        <path d="M 794 531 
L 1825 531 
L 1825 4091 
L 703 3866 
L 703 4441 
L 1819 4666 
L 2450 4666 
L 2450 531 
L 3481 531 
L 3481 0 
L 794 0 
L 794 531 
z
" id="DejaVuSans-31" transform="scale(0.015625)"/>
        <path d="M 313 2009 
L 1997 2009 
L 1997 1497 
L 313 1497 
L 313 2009 
z
" id="DejaVuSans-2d" transform="scale(0.015625)"/>
       </defs>
       <use xlink:href="#DejaVuSans-32"/>
       <use x="63.623047" xlink:href="#DejaVuSans-30"/>
       <use x="127.246094" xlink:href="#DejaVuSans-32"/>
       <use x="190.869141" xlink:href="#DejaVuSans-31"/>
       <use x="254.492188" xlink:href="#DejaVuSans-2d"/>
       <use x="290.576172" xlink:href="#DejaVuSans-31"/>
       <use x="354.199219" xlink:href="#DejaVuSans-32"/>
      </g>
     </g>
    </g>
    <g id="xtick_2">
     <g id="line2d_2">
      <g>
       <use style="stroke:#000000;stroke-width:0.8;" x="145.256727" xlink:href="#m5c9355dd7f" y="276.48"/>
      </g>
     </g>
     <g id="text_2">
      <!-- 2022-01 -->
      <g transform="translate(108.031906 310.951846)rotate(-30)scale(0.1 -0.1)">
       <use xlink:href="#DejaVuSans-32"/>
       <use x="63.623047" xlink:href="#DejaVuSans-30"/>
       <use x="127.246094" xlink:href="#DejaVuSans-32"/>
       <use x="190.869141" xlink:href="#DejaVuSans-32"/>
       <use x="254.492188" xlink:href="#DejaVuSans-2d"/>
       <use x="290.576172" xlink:href="#DejaVuSans-30"/>
       <use x="354.199219" xlink:href="#DejaVuSans-31"/>
      </g>
     </g>
    </g>
    <g id="xtick_3">
     <g id="line2d_3">
      <g>
       <use style="stroke:#000000;stroke-width:0.8;" x="195.578182" xlink:href="#m5c9355dd7f" y="276.48"/>
      </g>
     </g>
     <g id="text_3">
      <!-- 2022-02 -->
      <g transform="translate(158.353361 310.951846)rotate(-30)scale(0.1 -0.1)">
       <use xlink:href="#DejaVuSans-32"/>
       <use x="63.623047" xlink:href="#DejaVuSans-30"/>
       <use x="127.246094" xlink:href="#DejaVuSans-32"/>
       <use x="190.869141" xlink:href="#DejaVuSans-32"/>
       <use x="254.492188" xlink:href="#DejaVuSans-2d"/>
       <use x="290.576172" xlink:href="#DejaVuSans-30"/>
       <use x="354.199219" xlink:href="#DejaVuSans-32"/>
      </g>
     </g>
    </g>
    <g id="xtick_4">
     <g id="line2d_4">
      <g>
       <use style="stroke:#000000;stroke-width:0.8;" x="241.029818" xlink:href="#m5c9355dd7f" y="276.48"/>
      </g>
     </g>
     <g id="text_4">
      <!-- 2022-03 -->
      <g transform="translate(203.804997 310.951846)rotate(-30)scale(0.1 -0.1)">
       <defs>
        <path d="M 2597 2516 
Q 3050 2419 3304 2112 
Q 3559 1806 3559 1356 
Q 3559 666 3084 287 
Q 2609 -91 1734 -91 
Q 1441 -91 1130 -33 
Q 819 25 488 141 
L 488 750 
Q 750 597 1062 519 
Q 1375 441 1716 441 
Q 2309 441 2620 675 
Q 2931 909 2931 1356 
Q 2931 1769 2642 2001 
Q 2353 2234 1838 2234 
L 1294 2234 
L 1294 2753 
L 1863 2753 
Q 2328 2753 2575 2939 
Q 2822 3125 2822 3475 
Q 2822 3834 2567 4026 
Q 2313 4219 1838 4219 
Q 1578 4219 1281 4162 
Q 984 4106 628 3988 
L 628 4550 
Q 988 4650 1302 4700 
Q 1616 4750 1894 4750 
Q 2613 4750 3031 4423 
Q 3450 4097 3450 3541 
Q 3450 3153 3228 2886 
Q 3006 2619 2597 2516 
z
" id="DejaVuSans-33" transform="scale(0.015625)"/>
       </defs>
       <use xlink:href="#DejaVuSans-32"/>
       <use x="63.623047" xlink:href="#DejaVuSans-30"/>
       <use x="127.246094" xlink:href="#DejaVuSans-32"/>
       <use x="190.869141" xlink:href="#DejaVuSans-32"/>
       <use x="254.492188" xlink:href="#DejaVuSans-2d"/>
       <use x="290.576172" xlink:href="#DejaVuSans-30"/>
       <use x="354.199219" xlink:href="#DejaVuSans-33"/>
      </g>
     </g>
    </g>
    <g id="xtick_5">
     <g id="line2d_5">
      <g>
       <use style="stroke:#000000;stroke-width:0.8;" x="291.351273" xlink:href="#m5c9355dd7f" y="276.48"/>
      </g>
     </g>
     <g id="text_5">
      <!-- 2022-04 -->
      <g transform="translate(254.126452 310.951846)rotate(-30)scale(0.1 -0.1)">
       <defs>
        <path d="M 2419 4116 
L 825 1625 
L 2419 1625 
L 2419 4116 
z
M 2253 4666 
L 3047 4666 
L 3047 1625 
L 3713 1625 
L 3713 1100 
L 3047 1100 
L 3047 0 
L 2419 0 
L 2419 1100 
L 313 1100 
L 313 1709 
L 2253 4666 
z
" id="DejaVuSans-34" transform="scale(0.015625)"/>
       </defs>
       <use xlink:href="#DejaVuSans-32"/>
       <use x="63.623047" xlink:href="#DejaVuSans-30"/>
       <use x="127.246094" xlink:href="#DejaVuSans-32"/>
       <use x="190.869141" xlink:href="#DejaVuSans-32"/>
       <use x="254.492188" xlink:href="#DejaVuSans-2d"/>
       <use x="290.576172" xlink:href="#DejaVuSans-30"/>
       <use x="354.199219" xlink:href="#DejaVuSans-34"/>
      </g>
     </g>
    </g>
    <g id="xtick_6">
     <g id="line2d_6">
      <g>
       <use style="stroke:#000000;stroke-width:0.8;" x="340.049455" xlink:href="#m5c9355dd7f" y="276.48"/>
      </g>
     </g>
     <g id="text_6">
      <!-- 2022-05 -->
      <g transform="translate(302.824634 310.951846)rotate(-30)scale(0.1 -0.1)">
       <defs>
        <path d="M 691 4666 
L 3169 4666 
L 3169 4134 
L 1269 4134 
L 1269 2991 
Q 1406 3038 1543 3061 
Q 1681 3084 1819 3084 
Q 2600 3084 3056 2656 
Q 3513 2228 3513 1497 
Q 3513 744 3044 326 
Q 2575 -91 1722 -91 
Q 1428 -91 1123 -41 
Q 819 9 494 109 
L 494 744 
Q 775 591 1075 516 
Q 1375 441 1709 441 
Q 2250 441 2565 725 
Q 2881 1009 2881 1497 
Q 2881 1984 2565 2268 
Q 2250 2553 1709 2553 
Q 1456 2553 1204 2497 
Q 953 2441 691 2322 
L 691 4666 
z
" id="DejaVuSans-35" transform="scale(0.015625)"/>
       </defs>
       <use xlink:href="#DejaVuSans-32"/>
       <use x="63.623047" xlink:href="#DejaVuSans-30"/>
       <use x="127.246094" xlink:href="#DejaVuSans-32"/>
       <use x="190.869141" xlink:href="#DejaVuSans-32"/>
       <use x="254.492188" xlink:href="#DejaVuSans-2d"/>
       <use x="290.576172" xlink:href="#DejaVuSans-30"/>
       <use x="354.199219" xlink:href="#DejaVuSans-35"/>
      </g>
     </g>
    </g>
    <g id="xtick_7">
     <g id="line2d_7">
      <g>
       <use style="stroke:#000000;stroke-width:0.8;" x="390.370909" xlink:href="#m5c9355dd7f" y="276.48"/>
      </g>
     </g>
     <g id="text_7">
      <!-- 2022-06 -->
      <g transform="translate(353.146088 310.951846)rotate(-30)scale(0.1 -0.1)">
       <defs>
        <path d="M 2113 2584 
Q 1688 2584 1439 2293 
Q 1191 2003 1191 1497 
Q 1191 994 1439 701 
Q 1688 409 2113 409 
Q 2538 409 2786 701 
Q 3034 994 3034 1497 
Q 3034 2003 2786 2293 
Q 2538 2584 2113 2584 
z
M 3366 4563 
L 3366 3988 
Q 3128 4100 2886 4159 
Q 2644 4219 2406 4219 
Q 1781 4219 1451 3797 
Q 1122 3375 1075 2522 
Q 1259 2794 1537 2939 
Q 1816 3084 2150 3084 
Q 2853 3084 3261 2657 
Q 3669 2231 3669 1497 
Q 3669 778 3244 343 
Q 2819 -91 2113 -91 
Q 1303 -91 875 529 
Q 447 1150 447 2328 
Q 447 3434 972 4092 
Q 1497 4750 2381 4750 
Q 2619 4750 2861 4703 
Q 3103 4656 3366 4563 
z
" id="DejaVuSans-36" transform="scale(0.015625)"/>
       </defs>
       <use xlink:href="#DejaVuSans-32"/>
       <use x="63.623047" xlink:href="#DejaVuSans-30"/>
       <use x="127.246094" xlink:href="#DejaVuSans-32"/>
       <use x="190.869141" xlink:href="#DejaVuSans-32"/>
       <use x="254.492188" xlink:href="#DejaVuSans-2d"/>
       <use x="290.576172" xlink:href="#DejaVuSans-30"/>
       <use x="354.199219" xlink:href="#DejaVuSans-36"/>
      </g>
     </g>
    </g>
    <g id="text_8">
     <!-- date -->
     <g transform="translate(224.885 324.351346)scale(0.1 -0.1)">
      <defs>
       <path d="M 2906 2969 
L 2906 4863 
L 3481 4863 
L 3481 0 
L 2906 0 
L 2906 525 
Q 2725 213 2448 61 
Q 2172 -91 1784 -91 
Q 1150 -91 751 415 
Q 353 922 353 1747 
Q 353 2572 751 3078 
Q 1150 3584 1784 3584 
Q 2172 3584 2448 3432 
Q 2725 3281 2906 2969 
z
M 947 1747 
Q 947 1113 1208 752 
Q 1469 391 1925 391 
Q 2381 391 2643 752 
Q 2906 1113 2906 1747 
Q 2906 2381 2643 2742 
Q 2381 3103 1925 3103 
Q 1469 3103 1208 2742 
Q 947 2381 947 1747 
z
" id="DejaVuSans-64" transform="scale(0.015625)"/>
       <path d="M 2194 1759 
Q 1497 1759 1228 1600 
Q 959 1441 959 1056 
Q 959 750 1161 570 
Q 1363 391 1709 391 
Q 2188 391 2477 730 
Q 2766 1069 2766 1631 
L 2766 1759 
L 2194 1759 
z
M 3341 1997 
L 3341 0 
L 2766 0 
L 2766 531 
Q 2569 213 2275 61 
Q 1981 -91 1556 -91 
Q 1019 -91 701 211 
Q 384 513 384 1019 
Q 384 1609 779 1909 
Q 1175 2209 1959 2209 
L 2766 2209 
L 2766 2266 
Q 2766 2663 2505 2880 
Q 2244 3097 1772 3097 
Q 1472 3097 1187 3025 
Q 903 2953 641 2809 
L 641 3341 
Q 956 3463 1253 3523 
Q 1550 3584 1831 3584 
Q 2591 3584 2966 3190 
Q 3341 2797 3341 1997 
z
" id="DejaVuSans-61" transform="scale(0.015625)"/>
       <path d="M 1172 4494 
L 1172 3500 
L 2356 3500 
L 2356 3053 
L 1172 3053 
L 1172 1153 
Q 1172 725 1289 603 
Q 1406 481 1766 481 
L 2356 481 
L 2356 0 
L 1766 0 
Q 1100 0 847 248 
Q 594 497 594 1153 
L 594 3053 
L 172 3053 
L 172 3500 
L 594 3500 
L 594 4494 
L 1172 4494 
z
" id="DejaVuSans-74" transform="scale(0.015625)"/>
       <path d="M 3597 1894 
L 3597 1613 
L 953 1613 
Q 991 1019 1311 708 
Q 1631 397 2203 397 
Q 2534 397 2845 478 
Q 3156 559 3463 722 
L 3463 178 
Q 3153 47 2828 -22 
Q 2503 -91 2169 -91 
Q 1331 -91 842 396 
Q 353 884 353 1716 
Q 353 2575 817 3079 
Q 1281 3584 2069 3584 
Q 2775 3584 3186 3129 
Q 3597 2675 3597 1894 
z
M 3022 2063 
Q 3016 2534 2758 2815 
Q 2500 3097 2075 3097 
Q 1594 3097 1305 2825 
Q 1016 2553 972 2059 
L 3022 2063 
z
" id="DejaVuSans-65" transform="scale(0.015625)"/>
      </defs>
      <use xlink:href="#DejaVuSans-64"/>
      <use x="63.476562" xlink:href="#DejaVuSans-61"/>
      <use x="124.755859" xlink:href="#DejaVuSans-74"/>
      <use x="163.964844" xlink:href="#DejaVuSans-65"/>
     </g>
    </g>
   </g>
   <g id="matplotlib.axis_2">
    <g id="ytick_1">
     <g id="line2d_8">
      <defs>
       <path d="M 0 0 
L -3.5 0 
" id="m86256e238d" style="stroke:#000000;stroke-width:0.8;"/>
      </defs>
      <g>
       <use style="stroke:#000000;stroke-width:0.8;" x="57.6" xlink:href="#m86256e238d" y="270.846908"/>
      </g>
     </g>
     <g id="text_9">
      <!-- 82500 -->
      <g transform="translate(18.7875 274.646127)scale(0.1 -0.1)">
       <defs>
        <path d="M 2034 2216 
Q 1584 2216 1326 1975 
Q 1069 1734 1069 1313 
Q 1069 891 1326 650 
Q 1584 409 2034 409 
Q 2484 409 2743 651 
Q 3003 894 3003 1313 
Q 3003 1734 2745 1975 
Q 2488 2216 2034 2216 
z
M 1403 2484 
Q 997 2584 770 2862 
Q 544 3141 544 3541 
Q 544 4100 942 4425 
Q 1341 4750 2034 4750 
Q 2731 4750 3128 4425 
Q 3525 4100 3525 3541 
Q 3525 3141 3298 2862 
Q 3072 2584 2669 2484 
Q 3125 2378 3379 2068 
Q 3634 1759 3634 1313 
Q 3634 634 3220 271 
Q 2806 -91 2034 -91 
Q 1263 -91 848 271 
Q 434 634 434 1313 
Q 434 1759 690 2068 
Q 947 2378 1403 2484 
z
M 1172 3481 
Q 1172 3119 1398 2916 
Q 1625 2713 2034 2713 
Q 2441 2713 2670 2916 
Q 2900 3119 2900 3481 
Q 2900 3844 2670 4047 
Q 2441 4250 2034 4250 
Q 1625 4250 1398 4047 
Q 1172 3844 1172 3481 
z
" id="DejaVuSans-38" transform="scale(0.015625)"/>
       </defs>
       <use xlink:href="#DejaVuSans-38"/>
       <use x="63.623047" xlink:href="#DejaVuSans-32"/>
       <use x="127.246094" xlink:href="#DejaVuSans-35"/>
       <use x="190.869141" xlink:href="#DejaVuSans-30"/>
       <use x="254.492188" xlink:href="#DejaVuSans-30"/>
      </g>
     </g>
    </g>
    <g id="ytick_2">
     <g id="line2d_9">
      <g>
       <use style="stroke:#000000;stroke-width:0.8;" x="57.6" xlink:href="#m86256e238d" y="243.151009"/>
      </g>
     </g>
     <g id="text_10">
      <!-- 85000 -->
      <g transform="translate(18.7875 246.950228)scale(0.1 -0.1)">
       <use xlink:href="#DejaVuSans-38"/>
       <use x="63.623047" xlink:href="#DejaVuSans-35"/>
       <use x="127.246094" xlink:href="#DejaVuSans-30"/>
       <use x="190.869141" xlink:href="#DejaVuSans-30"/>
       <use x="254.492188" xlink:href="#DejaVuSans-30"/>
      </g>
     </g>
    </g>
    <g id="ytick_3">
     <g id="line2d_10">
      <g>
       <use style="stroke:#000000;stroke-width:0.8;" x="57.6" xlink:href="#m86256e238d" y="215.455111"/>
      </g>
     </g>
     <g id="text_11">
      <!-- 87500 -->
      <g transform="translate(18.7875 219.254329)scale(0.1 -0.1)">
       <defs>
        <path d="M 525 4666 
L 3525 4666 
L 3525 4397 
L 1831 0 
L 1172 0 
L 2766 4134 
L 525 4134 
L 525 4666 
z
" id="DejaVuSans-37" transform="scale(0.015625)"/>
       </defs>
       <use xlink:href="#DejaVuSans-38"/>
       <use x="63.623047" xlink:href="#DejaVuSans-37"/>
       <use x="127.246094" xlink:href="#DejaVuSans-35"/>
       <use x="190.869141" xlink:href="#DejaVuSans-30"/>
       <use x="254.492188" xlink:href="#DejaVuSans-30"/>
      </g>
     </g>
    </g>
    <g id="ytick_4">
     <g id="line2d_11">
      <g>
       <use style="stroke:#000000;stroke-width:0.8;" x="57.6" xlink:href="#m86256e238d" y="187.759212"/>
      </g>
     </g>
     <g id="text_12">
      <!-- 90000 -->
      <g transform="translate(18.7875 191.558431)scale(0.1 -0.1)">
       <defs>
        <path d="M 703 97 
L 703 672 
Q 941 559 1184 500 
Q 1428 441 1663 441 
Q 2288 441 2617 861 
Q 2947 1281 2994 2138 
Q 2813 1869 2534 1725 
Q 2256 1581 1919 1581 
Q 1219 1581 811 2004 
Q 403 2428 403 3163 
Q 403 3881 828 4315 
Q 1253 4750 1959 4750 
Q 2769 4750 3195 4129 
Q 3622 3509 3622 2328 
Q 3622 1225 3098 567 
Q 2575 -91 1691 -91 
Q 1453 -91 1209 -44 
Q 966 3 703 97 
z
M 1959 2075 
Q 2384 2075 2632 2365 
Q 2881 2656 2881 3163 
Q 2881 3666 2632 3958 
Q 2384 4250 1959 4250 
Q 1534 4250 1286 3958 
Q 1038 3666 1038 3163 
Q 1038 2656 1286 2365 
Q 1534 2075 1959 2075 
z
" id="DejaVuSans-39" transform="scale(0.015625)"/>
       </defs>
       <use xlink:href="#DejaVuSans-39"/>
       <use x="63.623047" xlink:href="#DejaVuSans-30"/>
       <use x="127.246094" xlink:href="#DejaVuSans-30"/>
       <use x="190.869141" xlink:href="#DejaVuSans-30"/>
       <use x="254.492188" xlink:href="#DejaVuSans-30"/>
      </g>
     </g>
    </g>
    <g id="ytick_5">
     <g id="line2d_12">
      <g>
       <use style="stroke:#000000;stroke-width:0.8;" x="57.6" xlink:href="#m86256e238d" y="160.063313"/>
      </g>
     </g>
     <g id="text_13">
      <!-- 92500 -->
      <g transform="translate(18.7875 163.862532)scale(0.1 -0.1)">
       <use xlink:href="#DejaVuSans-39"/>
       <use x="63.623047" xlink:href="#DejaVuSans-32"/>
       <use x="127.246094" xlink:href="#DejaVuSans-35"/>
       <use x="190.869141" xlink:href="#DejaVuSans-30"/>
       <use x="254.492188" xlink:href="#DejaVuSans-30"/>
      </g>
     </g>
    </g>
    <g id="ytick_6">
     <g id="line2d_13">
      <g>
       <use style="stroke:#000000;stroke-width:0.8;" x="57.6" xlink:href="#m86256e238d" y="132.367415"/>
      </g>
     </g>
     <g id="text_14">
      <!-- 95000 -->
      <g transform="translate(18.7875 136.166633)scale(0.1 -0.1)">
       <use xlink:href="#DejaVuSans-39"/>
       <use x="63.623047" xlink:href="#DejaVuSans-35"/>
       <use x="127.246094" xlink:href="#DejaVuSans-30"/>
       <use x="190.869141" xlink:href="#DejaVuSans-30"/>
       <use x="254.492188" xlink:href="#DejaVuSans-30"/>
      </g>
     </g>
    </g>
    <g id="ytick_7">
     <g id="line2d_14">
      <g>
       <use style="stroke:#000000;stroke-width:0.8;" x="57.6" xlink:href="#m86256e238d" y="104.671516"/>
      </g>
     </g>
     <g id="text_15">
      <!-- 97500 -->
      <g transform="translate(18.7875 108.470735)scale(0.1 -0.1)">
       <use xlink:href="#DejaVuSans-39"/>
       <use x="63.623047" xlink:href="#DejaVuSans-37"/>
       <use x="127.246094" xlink:href="#DejaVuSans-35"/>
       <use x="190.869141" xlink:href="#DejaVuSans-30"/>
       <use x="254.492188" xlink:href="#DejaVuSans-30"/>
      </g>
     </g>
    </g>
    <g id="ytick_8">
     <g id="line2d_15">
      <g>
       <use style="stroke:#000000;stroke-width:0.8;" x="57.6" xlink:href="#m86256e238d" y="76.975617"/>
      </g>
     </g>
     <g id="text_16">
      <!-- 100000 -->
      <g transform="translate(12.425 80.774836)scale(0.1 -0.1)">
       <use xlink:href="#DejaVuSans-31"/>
       <use x="63.623047" xlink:href="#DejaVuSans-30"/>
       <use x="127.246094" xlink:href="#DejaVuSans-30"/>
       <use x="190.869141" xlink:href="#DejaVuSans-30"/>
       <use x="254.492188" xlink:href="#DejaVuSans-30"/>
       <use x="318.115234" xlink:href="#DejaVuSans-30"/>
      </g>
     </g>
    </g>
    <g id="ytick_9">
     <g id="line2d_16">
      <g>
       <use style="stroke:#000000;stroke-width:0.8;" x="57.6" xlink:href="#m86256e238d" y="49.279719"/>
      </g>
     </g>
     <g id="text_17">
      <!-- 102500 -->
      <g transform="translate(12.425 53.078938)scale(0.1 -0.1)">
       <use xlink:href="#DejaVuSans-31"/>
       <use x="63.623047" xlink:href="#DejaVuSans-30"/>
       <use x="127.246094" xlink:href="#DejaVuSans-32"/>
       <use x="190.869141" xlink:href="#DejaVuSans-35"/>
       <use x="254.492188" xlink:href="#DejaVuSans-30"/>
       <use x="318.115234" xlink:href="#DejaVuSans-30"/>
      </g>
     </g>
    </g>
   </g>
   <g id="line2d_17">
    <path clip-path="url(#p3fd9b1c1ce)" d="M 73.832727 75.831265 
L 75.456 77.593655 
L 80.325818 80.814476 
L 81.949091 79.321281 
L 83.572364 76.158567 
L 86.818909 76.427638 
L 91.688727 87.402413 
L 93.312 109.324613 
L 94.935273 120.753664 
L 96.558545 105.479546 
L 98.181818 114.542478 
L 103.051636 101.517538 
L 104.674909 79.021569 
L 106.298182 76.496243 
L 107.921455 84.241528 
L 109.544727 73.116898 
L 114.414545 84.030316 
L 116.037818 92.170448 
L 117.661091 74.406724 
L 119.284364 84.327472 
L 120.907636 96.881511 
L 125.777455 110.176112 
L 127.400727 91.128554 
L 129.024 80.751429 
L 130.647273 73.294831 
L 137.140364 57.525324 
L 138.763636 59.259532 
L 140.386909 57.068888 
L 142.010182 60.411579 
L 143.633455 64.031762 
L 148.503273 56.61383 
L 150.126545 57.138495 
L 151.749818 79.225418 
L 153.373091 80.296073 
L 154.996364 83.883171 
L 159.866182 86.193905 
L 161.489455 75.749457 
L 163.112727 72.981067 
L 164.736 88.104719 
L 166.359273 87.991073 
L 172.852364 107.072555 
L 176.098909 129.61331 
L 177.722182 150.152492 
L 182.592 146.38845 
L 184.215273 159.381661 
L 185.838545 161.228124 
L 187.461818 166.812948 
L 189.085091 141.180953 
L 195.578182 115.453597 
L 197.201455 104.758937 
L 198.824727 130.319204 
L 200.448 125.361032 
L 205.317818 129.342779 
L 206.941091 119.884367 
L 208.564364 105.016003 
L 210.187636 123.732294 
L 211.810909 144.804278 
L 216.680727 148.054094 
L 218.304 131.391051 
L 219.927273 130.240222 
L 221.550545 152.416144 
L 223.173818 159.922408 
L 229.666909 170.481863 
L 231.290182 188.771962 
L 232.913455 173.938856 
L 234.536727 151.962779 
L 239.406545 153.899906 
L 241.029818 169.826681 
L 242.653091 150.542896 
L 244.276364 156.095801 
L 245.899636 164.474269 
L 250.769455 194.463376 
L 252.392727 201.323226 
L 254.016 176.205857 
L 255.639273 179.989832 
L 257.262545 192.85674 
L 262.132364 199.631796 
L 265.378909 156.818632 
L 267.002182 143.729091 
L 268.625455 133.42793 
L 273.495273 133.696757 
L 275.118545 122.014792 
L 276.741818 134.500734 
L 278.365091 121.987418 
L 279.988364 116.069681 
L 284.858182 108.305386 
L 286.481455 95.108366 
L 288.104727 101.552784 
L 289.728 118.381466 
L 291.351273 115.630704 
L 296.221091 106.612207 
L 297.844364 120.228449 
L 299.467636 130.915026 
L 301.090909 124.846014 
L 302.714182 128.320092 
L 307.584 146.106585 
L 309.207273 149.8466 
L 310.830545 138.11064 
L 312.453818 150.811007 
L 318.946909 150.667474 
L 320.570182 133.88532 
L 322.193455 134.835015 
L 323.816727 149.982767 
L 325.44 179.372841 
L 330.309818 173.358238 
L 331.933091 202.665668 
L 333.556364 199.698564 
L 335.179636 174.554895 
L 336.802909 210.880307 
L 341.672727 205.501959 
L 343.296 201.000869 
L 344.919273 171.081952 
L 346.542545 207.450584 
L 348.165818 212.134118 
L 353.035636 244.367242 
L 354.658909 241.868855 
L 356.282182 257.446453 
L 357.905455 257.632324 
L 359.528727 235.429858 
L 364.398545 238.927847 
L 366.021818 220.5355 
L 367.645091 259.048455 
L 369.268364 264.108038 
L 370.891636 263.995894 
L 375.761455 246.952404 
L 377.384727 253.45614 
L 379.008 245.581593 
L 380.631273 226.814164 
L 382.254545 203.160739 
L 388.747636 209.131807 
L 390.370909 216.480426 
L 391.994182 198.420767 
L 393.617455 214.55233 
L 398.487273 215.463144 
L 398.487273 215.463144 
" style="fill:none;stroke:#0000ff;stroke-linecap:square;stroke-opacity:0.9;stroke-width:2;"/>
   </g>
   <g id="line2d_18">
    <path clip-path="url(#p3fd9b1c1ce)" d="M 73.832727 75.831265 
L 75.456 78.085642 
L 80.325818 80.624704 
L 81.949091 79.123864 
L 83.572364 76.044676 
L 86.818909 100.754903 
L 91.688727 87.456841 
L 93.312 108.551696 
L 94.935273 121.190779 
L 96.558545 104.631089 
L 98.181818 113.838504 
L 103.051636 101.571453 
L 104.674909 79.792779 
L 106.298182 75.958339 
L 107.921455 84.262064 
L 109.544727 72.760187 
L 114.414545 83.712716 
L 116.037818 91.458949 
L 117.661091 74.08832 
L 119.284364 84.00511 
L 120.907636 96.373133 
L 125.777455 109.049481 
L 127.400727 91.597567 
L 129.024 80.612357 
L 130.647273 74.096922 
L 137.140364 57.528572 
L 138.763636 58.71769 
L 140.386909 57.855372 
L 142.010182 60.805996 
L 143.633455 63.118193 
L 148.503273 57.358938 
L 150.126545 57.041702 
L 151.749818 78.553805 
L 153.373091 80.501728 
L 154.996364 84.188629 
L 159.866182 86.308095 
L 161.489455 75.766194 
L 163.112727 72.325599 
L 164.736 87.56343 
L 166.359273 88.150957 
L 172.852364 106.922852 
L 174.475636 117.799668 
L 176.098909 129.872658 
L 177.722182 150.51184 
L 182.592 146.665983 
L 184.215273 158.49241 
L 185.838545 161.254645 
L 187.461818 166.634706 
L 189.085091 141.647086 
L 193.954909 122.705131 
L 195.578182 114.858402 
L 197.201455 105.506528 
L 198.824727 129.91241 
L 200.448 125.362836 
L 205.317818 129.452791 
L 206.941091 120.277442 
L 208.564364 105.142175 
L 210.187636 123.752853 
L 211.810909 145.083737 
L 216.680727 147.91858 
L 218.304 131.832174 
L 219.927273 129.849634 
L 221.550545 152.594656 
L 223.173818 159.827651 
L 229.666909 170.770834 
L 231.290182 188.729293 
L 232.913455 173.562924 
L 234.536727 151.326988 
L 239.406545 153.974979 
L 241.029818 169.178585 
L 242.653091 150.508257 
L 244.276364 156.428633 
L 245.899636 163.820624 
L 250.769455 194.642631 
L 252.392727 202.284708 
L 254.016 175.964908 
L 255.639273 180.005217 
L 257.262545 193.106531 
L 262.132364 200.37624 
L 265.378909 156.156443 
L 267.002182 143.611938 
L 268.625455 132.827578 
L 273.495273 133.730266 
L 275.118545 121.409678 
L 276.741818 135.20385 
L 278.365091 121.025837 
L 279.988364 115.920535 
L 284.858182 108.82201 
L 286.481455 95.070194 
L 288.104727 102.180763 
L 289.728 117.849569 
L 291.351273 115.341552 
L 296.221091 106.48799 
L 297.844364 120.383585 
L 299.467636 130.911309 
L 301.090909 125.399777 
L 302.714182 127.760493 
L 307.584 146.639442 
L 309.207273 150.593574 
L 310.830545 137.674006 
L 312.453818 151.439639 
L 318.946909 151.204085 
L 320.570182 134.233967 
L 322.193455 135.263223 
L 323.816727 150.681497 
L 325.44 179.492538 
L 330.309818 172.731381 
L 331.933091 202.636574 
L 333.556364 199.991619 
L 335.179636 174.577417 
L 336.802909 212.057708 
L 341.672727 205.675997 
L 343.296 202.154132 
L 344.919273 171.990113 
L 346.542545 208.327606 
L 348.165818 214.025738 
L 353.035636 244.150708 
L 354.658909 242.876097 
L 356.282182 258.244289 
L 357.905455 258.511487 
L 359.528727 237.065094 
L 364.398545 239.832569 
L 366.021818 221.240052 
L 367.645091 259.949507 
L 369.268364 265.546251 
L 370.891636 264.534794 
L 375.761455 247.232341 
L 377.384727 254.102268 
L 379.008 246.608671 
L 380.631273 227.375215 
L 382.254545 203.954712 
L 388.747636 210.146859 
L 390.370909 217.952297 
L 391.994182 199.612178 
L 393.617455 215.457009 
L 398.487273 212.985736 
L 398.487273 212.985736 
" style="fill:none;stroke:#ff0000;stroke-linecap:square;stroke-opacity:0.9;stroke-width:2;"/>
   </g>
   <g id="line2d_19">
    <path clip-path="url(#p3fd9b1c1ce)" d="M 73.832727 75.831265 
L 75.456 77.264571 
L 80.325818 80.77903 
L 81.949091 79.631346 
L 83.572364 76.107558 
L 86.818909 100.683636 
L 91.688727 87.315575 
L 93.312 109.187457 
L 94.935273 120.872236 
L 96.558545 104.783882 
L 98.181818 114.300306 
L 103.051636 101.421932 
L 104.674909 79.08868 
L 106.298182 76.70449 
L 107.921455 84.074205 
L 109.544727 72.861849 
L 114.414545 83.689007 
L 116.037818 91.238461 
L 117.661091 74.068209 
L 119.284364 84.74915 
L 120.907636 96.305141 
L 125.777455 109.214113 
L 127.400727 90.974221 
L 129.024 80.342284 
L 130.647273 73.336884 
L 137.140364 57.405045 
L 138.763636 59.346405 
L 140.386909 57.166575 
L 143.633455 63.463284 
L 148.503273 57.334116 
L 150.126545 57.429256 
L 151.749818 79.509149 
L 153.373091 80.206855 
L 154.996364 84.553831 
L 159.866182 85.459088 
L 161.489455 75.459714 
L 163.112727 72.784614 
L 164.736 87.948078 
L 166.359273 88.246907 
L 172.852364 107.024282 
L 176.098909 130.393373 
L 177.722182 150.292154 
L 182.592 146.470888 
L 184.215273 158.83793 
L 185.838545 161.021914 
L 187.461818 166.240607 
L 189.085091 141.007606 
L 193.954909 122.769271 
L 195.578182 114.776733 
L 197.201455 104.856437 
L 198.824727 130.492815 
L 200.448 124.902798 
L 205.317818 128.994096 
L 206.941091 120.626761 
L 208.564364 104.290416 
L 210.187636 123.374762 
L 211.810909 145.091289 
L 216.680727 148.307243 
L 218.304 131.441408 
L 219.927273 130.601238 
L 221.550545 153.043677 
L 223.173818 159.461548 
L 229.666909 170.415125 
L 231.290182 188.693061 
L 232.913455 173.226242 
L 234.536727 151.344677 
L 239.406545 153.805684 
L 241.029818 169.845099 
L 242.653091 150.881611 
L 244.276364 156.095569 
L 245.899636 163.855957 
L 250.769455 194.743005 
L 252.392727 201.863178 
L 254.016 176.071144 
L 255.639273 180.15528 
L 257.262545 192.639576 
L 262.132364 199.827332 
L 265.378909 156.849392 
L 267.002182 143.60001 
L 268.625455 132.622115 
L 273.495273 134.354291 
L 275.118545 121.391655 
L 276.741818 134.833722 
L 278.365091 121.666006 
L 279.988364 116.429953 
L 284.858182 108.796364 
L 286.481455 94.430646 
L 288.104727 102.405311 
L 289.728 118.283397 
L 291.351273 115.109065 
L 296.221091 106.006162 
L 297.844364 119.633625 
L 299.467636 130.586397 
L 301.090909 125.0551 
L 302.714182 128.457 
L 307.584 146.284908 
L 309.207273 150.189989 
L 310.830545 137.716245 
L 312.453818 151.060113 
L 318.946909 150.393596 
L 320.570182 134.172599 
L 322.193455 135.230906 
L 323.816727 150.98591 
L 325.44 179.565002 
L 330.309818 172.964915 
L 331.933091 201.748484 
L 333.556364 199.912556 
L 335.179636 174.624447 
L 336.802909 212.526834 
L 341.672727 206.232799 
L 343.296 201.266101 
L 344.919273 171.535839 
L 346.542545 207.722989 
L 348.165818 212.958126 
L 353.035636 244.578348 
L 354.658909 243.057574 
L 356.282182 257.867532 
L 357.905455 258.549897 
L 359.528727 236.820208 
L 364.398545 240.177049 
L 366.021818 221.082482 
L 367.645091 259.037431 
L 369.268364 265.600372 
L 370.891636 265.268203 
L 375.761455 247.833866 
L 377.384727 254.725698 
L 379.008 245.92174 
L 380.631273 227.830525 
L 382.254545 203.907732 
L 388.747636 209.420983 
L 390.370909 217.655897 
L 391.994182 199.614699 
L 393.617455 215.163431 
L 398.487273 212.495765 
L 398.487273 212.495765 
" style="fill:none;stroke:#008000;stroke-linecap:square;stroke-opacity:0.9;stroke-width:2;"/>
   </g>
   <g id="line2d_20">
    <path clip-path="url(#p3fd9b1c1ce)" d="M 73.832727 75.831265 
L 75.456 78.052606 
L 80.325818 81.477168 
L 81.949091 79.583678 
L 83.572364 77.032133 
L 86.818909 101.620132 
L 91.688727 87.84983 
L 93.312 108.820848 
L 94.935273 120.773502 
L 96.558545 105.427768 
L 98.181818 114.196085 
L 103.051636 101.170234 
L 104.674909 79.437267 
L 106.298182 75.897313 
L 107.921455 83.857104 
L 109.544727 72.856892 
L 114.414545 83.5979 
L 116.037818 92.161878 
L 117.661091 74.682371 
L 119.284364 84.865639 
L 120.907636 97.081151 
L 125.777455 109.924325 
L 127.400727 92.033456 
L 129.024 81.003262 
L 130.647273 73.473452 
L 137.140364 58.039043 
L 138.763636 58.812193 
L 140.386909 57.80001 
L 142.010182 60.342979 
L 143.633455 63.3062 
L 148.503273 57.171044 
L 150.126545 57.292689 
L 151.749818 78.616893 
L 153.373091 80.228385 
L 154.996364 84.298859 
L 159.866182 85.647305 
L 161.489455 75.593924 
L 163.112727 72.248861 
L 164.736 87.578508 
L 166.359273 87.207944 
L 172.852364 107.437049 
L 174.475636 117.610181 
L 176.098909 130.099999 
L 177.722182 150.324294 
L 182.592 146.605612 
L 184.215273 158.391594 
L 185.838545 161.744959 
L 187.461818 166.181133 
L 189.085091 141.239862 
L 193.954909 122.195375 
L 195.578182 114.832878 
L 197.201455 104.993603 
L 198.824727 130.682787 
L 200.448 125.338309 
L 205.317818 128.723848 
L 206.941091 120.221462 
L 208.564364 104.29991 
L 211.810909 144.497454 
L 216.680727 147.975917 
L 218.304 131.24969 
L 219.927273 130.868975 
L 221.550545 152.655891 
L 223.173818 159.509207 
L 229.666909 170.707059 
L 231.290182 189.070778 
L 232.913455 174.229074 
L 234.536727 151.686072 
L 239.406545 153.695471 
L 241.029818 170.071752 
L 242.653091 150.759544 
L 244.276364 156.342827 
L 245.899636 164.58266 
L 250.769455 194.574373 
L 252.392727 201.66801 
L 254.016 175.678574 
L 255.639273 180.516446 
L 257.262545 192.964221 
L 262.132364 200.215113 
L 265.378909 156.346435 
L 267.002182 143.89214 
L 268.625455 133.589981 
L 273.495273 134.495447 
L 275.118545 121.335783 
L 276.741818 135.22628 
L 278.365091 121.586846 
L 279.988364 115.590537 
L 284.858182 108.259665 
L 286.481455 94.760603 
L 288.104727 101.673481 
L 289.728 118.121436 
L 291.351273 115.554293 
L 296.221091 106.810831 
L 297.844364 119.983797 
L 299.467636 130.908341 
L 301.090909 125.28258 
L 302.714182 128.457947 
L 307.584 145.976169 
L 309.207273 149.547761 
L 310.830545 137.703189 
L 312.453818 151.107214 
L 318.946909 150.785544 
L 320.570182 134.488597 
L 322.193455 134.878268 
L 323.816727 150.39928 
L 325.44 179.228533 
L 330.309818 172.594127 
L 331.933091 201.772174 
L 333.556364 199.109321 
L 335.179636 174.730888 
L 336.802909 212.423217 
L 341.672727 206.70046 
L 343.296 201.643123 
L 344.919273 172.286111 
L 346.542545 208.203479 
L 348.165818 213.120278 
L 353.035636 244.354296 
L 354.658909 242.532698 
L 356.282182 258.007073 
L 357.905455 258.399516 
L 359.528727 236.410724 
L 364.398545 240.017847 
L 366.021818 220.98373 
L 367.645091 259.140463 
L 369.268364 265.797818 
L 370.891636 265.236654 
L 375.761455 247.82015 
L 377.384727 254.462329 
L 379.008 246.291316 
L 380.631273 227.663557 
L 382.254545 204.057986 
L 388.747636 210.193685 
L 390.370909 218.033778 
L 391.994182 199.194245 
L 393.617455 215.203321 
L 398.487273 212.711096 
L 398.487273 212.711096 
" style="fill:none;stroke:#ec5283;stroke-linecap:square;stroke-width:2;"/>
   </g>
   <g id="line2d_21">
    <path clip-path="url(#p3fd9b1c1ce)" d="M 73.832727 75.831265 
L 75.456 78.126569 
L 80.325818 80.566501 
L 83.572364 77.116103 
L 86.818909 100.643337 
L 91.688727 88.137493 
L 93.312 108.818359 
L 94.935273 120.911691 
L 96.558545 105.135233 
L 98.181818 114.248007 
L 103.051636 101.985211 
L 104.674909 79.784416 
L 106.298182 75.72641 
L 107.921455 83.28633 
L 109.544727 73.321864 
L 114.414545 83.961695 
L 116.037818 92.168751 
L 117.661091 74.280355 
L 119.284364 84.129735 
L 120.907636 97.136118 
L 125.777455 109.428098 
L 127.400727 91.013019 
L 129.024 80.191044 
L 130.647273 74.267247 
L 137.140364 57.81278 
L 138.763636 59.205433 
L 140.386909 57.699288 
L 143.633455 63.340992 
L 148.503273 56.972836 
L 150.126545 57.434243 
L 151.749818 79.481056 
L 153.373091 80.53508 
L 154.996364 84.295911 
L 159.866182 85.817053 
L 161.489455 76.249529 
L 163.112727 72.385718 
L 164.736 87.557589 
L 166.359273 87.367257 
L 172.852364 106.742218 
L 174.475636 117.624756 
L 176.098909 129.818103 
L 177.722182 151.112095 
L 182.592 146.818349 
L 184.215273 159.270533 
L 185.838545 161.617072 
L 187.461818 166.821349 
L 189.085091 141.178421 
L 193.954909 122.850697 
L 195.578182 114.956617 
L 197.201455 105.079883 
L 198.824727 130.725552 
L 200.448 125.162766 
L 205.317818 128.921835 
L 206.941091 120.369271 
L 208.564364 104.965737 
L 210.187636 123.804421 
L 211.810909 144.808696 
L 216.680727 147.938203 
L 218.304 132.155152 
L 219.927273 130.629778 
L 221.550545 152.509717 
L 223.173818 159.923047 
L 229.666909 170.839091 
L 231.290182 188.624787 
L 232.913455 174.211524 
L 234.536727 150.948452 
L 239.406545 154.241779 
L 241.029818 169.134558 
L 242.653091 150.826221 
L 244.276364 155.501246 
L 245.899636 164.099019 
L 250.769455 194.773938 
L 252.392727 201.521134 
L 254.016 175.9222 
L 255.639273 179.819665 
L 257.262545 192.741358 
L 262.132364 200.494973 
L 265.378909 156.929399 
L 267.002182 143.704569 
L 268.625455 132.815155 
L 273.495273 134.449733 
L 275.118545 121.822622 
L 276.741818 135.163155 
L 278.365091 121.665299 
L 279.988364 115.912717 
L 284.858182 108.607149 
L 286.481455 94.73489 
L 288.104727 101.942003 
L 289.728 118.280348 
L 291.351273 115.654671 
L 296.221091 106.132827 
L 297.844364 120.233034 
L 299.467636 131.019124 
L 301.090909 125.616576 
L 302.714182 128.494423 
L 307.584 146.094537 
L 309.207273 149.761644 
L 310.830545 138.047909 
L 312.453818 150.631506 
L 318.946909 151.010405 
L 320.570182 134.121666 
L 322.193455 135.204336 
L 323.816727 149.935558 
L 325.44 179.253569 
L 330.309818 173.329858 
L 331.933091 202.627618 
L 333.556364 199.546279 
L 335.179636 175.262593 
L 336.802909 212.252089 
L 341.672727 205.938164 
L 343.296 202.038133 
L 344.919273 171.600633 
L 346.542545 208.044662 
L 348.165818 213.299259 
L 353.035636 244.340529 
L 354.658909 242.569933 
L 356.282182 258.278145 
L 357.905455 258.089638 
L 359.528727 236.097817 
L 364.398545 240.239008 
L 366.021818 221.080064 
L 367.645091 259.393823 
L 369.268364 264.779266 
L 370.891636 265.415766 
L 375.761455 247.174679 
L 377.384727 254.474241 
L 379.008 245.933039 
L 380.631273 227.598494 
L 382.254545 204.355076 
L 388.747636 210.031158 
L 390.370909 217.892852 
L 391.994182 199.676919 
L 393.617455 215.66455 
L 398.487273 212.242622 
L 398.487273 212.242622 
" style="fill:none;stroke:#00ff00;stroke-linecap:square;stroke-opacity:0.9;stroke-width:2;"/>
   </g>
   <g id="line2d_22">
    <path clip-path="url(#p3fd9b1c1ce)" d="M 73.832727 75.831265 
L 75.456 78.049188 
L 80.325818 81.113637 
L 81.949091 79.717905 
L 83.572364 76.772011 
L 86.818909 100.991827 
L 91.688727 87.619369 
L 93.312 108.683549 
L 94.935273 120.69104 
L 96.558545 104.620278 
L 98.181818 113.892111 
L 103.051636 101.261056 
L 104.674909 78.916993 
L 106.298182 75.883282 
L 107.921455 83.33385 
L 109.544727 73.41009 
L 114.414545 82.800223 
L 116.037818 90.478404 
L 117.661091 73.881412 
L 119.284364 83.418925 
L 120.907636 95.021176 
L 125.777455 106.148768 
L 127.400727 87.782433 
L 129.024 76.053901 
L 130.647273 69.815192 
L 137.140364 53.482205 
L 138.763636 54.255516 
L 140.386909 53.279321 
L 142.010182 55.801112 
L 143.633455 59.764383 
L 148.503273 52.154182 
L 150.126545 52.959331 
L 151.749818 74.481003 
L 153.373091 75.292538 
L 154.996364 79.409788 
L 159.866182 81.846541 
L 161.489455 71.355385 
L 163.112727 67.864532 
L 164.736 83.134315 
L 166.359273 83.522933 
L 172.852364 102.387438 
L 176.098909 125.689819 
L 177.722182 145.942951 
L 182.592 142.525126 
L 184.215273 154.423506 
L 185.838545 157.649182 
L 187.461818 161.930766 
L 189.085091 136.821637 
L 193.954909 118.482648 
L 195.578182 110.521318 
L 197.201455 100.969478 
L 198.824727 125.708963 
L 200.448 120.53576 
L 205.317818 124.181644 
L 206.941091 115.599512 
L 208.564364 99.72751 
L 211.810909 139.927601 
L 216.680727 143.919777 
L 218.304 126.772239 
L 219.927273 125.651951 
L 221.550545 148.067292 
L 223.173818 154.992 
L 229.666909 165.953231 
L 231.290182 184.514494 
L 232.913455 169.118326 
L 234.536727 146.711106 
L 239.406545 149.044005 
L 241.029818 164.353088 
L 242.653091 146.063937 
L 244.276364 151.359194 
L 245.899636 159.572744 
L 250.769455 189.997059 
L 252.392727 196.888202 
L 254.016 170.976938 
L 255.639273 175.366517 
L 257.262545 187.920522 
L 262.132364 195.042945 
L 265.378909 151.460178 
L 267.002182 138.178655 
L 268.625455 126.833312 
L 273.495273 126.994709 
L 275.118545 114.960044 
L 276.741818 127.746672 
L 278.365091 112.086549 
L 279.988364 107.384664 
L 284.858182 99.610086 
L 286.481455 85.36028 
L 288.104727 92.570207 
L 289.728 109.198236 
L 291.351273 106.38329 
L 296.221091 97.377775 
L 297.844364 111.048683 
L 299.467636 121.202048 
L 301.090909 115.890581 
L 302.714182 118.755156 
L 307.584 137.248817 
L 309.207273 141.280459 
L 310.830545 128.955941 
L 312.453818 141.676016 
L 318.946909 141.807308 
L 320.570182 124.660447 
L 322.193455 125.419972 
L 323.816727 141.651908 
L 325.44 169.852305 
L 330.309818 164.318272 
L 331.933091 193.492363 
L 333.556364 191.091787 
L 335.179636 166.305234 
L 336.802909 203.108093 
L 341.672727 197.980969 
L 343.296 192.754879 
L 344.919273 163.250102 
L 346.542545 198.655503 
L 348.165818 204.88535 
L 353.035636 236.684536 
L 354.658909 233.768576 
L 356.282182 249.732926 
L 357.905455 250.137304 
L 359.528727 227.539594 
L 364.398545 231.729257 
L 366.021818 212.26309 
L 367.645091 251.31381 
L 369.268364 256.554888 
L 370.891636 255.823798 
L 375.761455 238.558402 
L 377.384727 245.969275 
L 379.008 237.594238 
L 380.631273 218.494911 
L 382.254545 194.358361 
L 388.747636 200.742561 
L 390.370909 207.892284 
L 391.994182 190.006852 
L 393.617455 205.827014 
L 398.487273 203.395898 
L 398.487273 203.395898 
" style="fill:none;stroke:#a5b9cf;stroke-linecap:square;stroke-width:2;"/>
   </g>
   <g id="patch_3">
    <path d="M 57.6 276.48 
L 57.6 41.472 
" style="fill:none;stroke:#000000;stroke-linecap:square;stroke-linejoin:miter;stroke-width:0.8;"/>
   </g>
   <g id="patch_4">
    <path d="M 414.72 276.48 
L 414.72 41.472 
" style="fill:none;stroke:#000000;stroke-linecap:square;stroke-linejoin:miter;stroke-width:0.8;"/>
   </g>
   <g id="patch_5">
    <path d="M 57.6 276.48 
L 414.72 276.48 
" style="fill:none;stroke:#000000;stroke-linecap:square;stroke-linejoin:miter;stroke-width:0.8;"/>
   </g>
   <g id="patch_6">
    <path d="M 57.6 41.472 
L 414.72 41.472 
" style="fill:none;stroke:#000000;stroke-linecap:square;stroke-linejoin:miter;stroke-width:0.8;"/>
   </g>
   <g id="text_18">
    <!-- SP500 -->
    <g transform="translate(217.280625 22.034625)scale(0.12 -0.12)">
     <defs>
      <path d="M 3425 4513 
L 3425 3897 
Q 3066 4069 2747 4153 
Q 2428 4238 2131 4238 
Q 1616 4238 1336 4038 
Q 1056 3838 1056 3469 
Q 1056 3159 1242 3001 
Q 1428 2844 1947 2747 
L 2328 2669 
Q 3034 2534 3370 2195 
Q 3706 1856 3706 1288 
Q 3706 609 3251 259 
Q 2797 -91 1919 -91 
Q 1588 -91 1214 -16 
Q 841 59 441 206 
L 441 856 
Q 825 641 1194 531 
Q 1563 422 1919 422 
Q 2459 422 2753 634 
Q 3047 847 3047 1241 
Q 3047 1584 2836 1778 
Q 2625 1972 2144 2069 
L 1759 2144 
Q 1053 2284 737 2584 
Q 422 2884 422 3419 
Q 422 4038 858 4394 
Q 1294 4750 2059 4750 
Q 2388 4750 2728 4690 
Q 3069 4631 3425 4513 
z
" id="DejaVuSans-53" transform="scale(0.015625)"/>
      <path d="M 1259 4147 
L 1259 2394 
L 2053 2394 
Q 2494 2394 2734 2622 
Q 2975 2850 2975 3272 
Q 2975 3691 2734 3919 
Q 2494 4147 2053 4147 
L 1259 4147 
z
M 628 4666 
L 2053 4666 
Q 2838 4666 3239 4311 
Q 3641 3956 3641 3272 
Q 3641 2581 3239 2228 
Q 2838 1875 2053 1875 
L 1259 1875 
L 1259 0 
L 628 0 
L 628 4666 
z
" id="DejaVuSans-50" transform="scale(0.015625)"/>
     </defs>
     <use xlink:href="#DejaVuSans-53"/>
     <use x="63.476562" xlink:href="#DejaVuSans-50"/>
     <use x="123.779297" xlink:href="#DejaVuSans-35"/>
     <use x="187.402344" xlink:href="#DejaVuSans-30"/>
     <use x="251.025391" xlink:href="#DejaVuSans-30"/>
    </g>
    <!-- daily_report -->
    <g transform="translate(200.466563 35.472)scale(0.12 -0.12)">
     <defs>
      <path d="M 603 3500 
L 1178 3500 
L 1178 0 
L 603 0 
L 603 3500 
z
M 603 4863 
L 1178 4863 
L 1178 4134 
L 603 4134 
L 603 4863 
z
" id="DejaVuSans-69" transform="scale(0.015625)"/>
      <path d="M 603 4863 
L 1178 4863 
L 1178 0 
L 603 0 
L 603 4863 
z
" id="DejaVuSans-6c" transform="scale(0.015625)"/>
      <path d="M 2059 -325 
Q 1816 -950 1584 -1140 
Q 1353 -1331 966 -1331 
L 506 -1331 
L 506 -850 
L 844 -850 
Q 1081 -850 1212 -737 
Q 1344 -625 1503 -206 
L 1606 56 
L 191 3500 
L 800 3500 
L 1894 763 
L 2988 3500 
L 3597 3500 
L 2059 -325 
z
" id="DejaVuSans-79" transform="scale(0.015625)"/>
      <path d="M 3263 -1063 
L 3263 -1509 
L -63 -1509 
L -63 -1063 
L 3263 -1063 
z
" id="DejaVuSans-5f" transform="scale(0.015625)"/>
      <path d="M 2631 2963 
Q 2534 3019 2420 3045 
Q 2306 3072 2169 3072 
Q 1681 3072 1420 2755 
Q 1159 2438 1159 1844 
L 1159 0 
L 581 0 
L 581 3500 
L 1159 3500 
L 1159 2956 
Q 1341 3275 1631 3429 
Q 1922 3584 2338 3584 
Q 2397 3584 2469 3576 
Q 2541 3569 2628 3553 
L 2631 2963 
z
" id="DejaVuSans-72" transform="scale(0.015625)"/>
      <path d="M 1159 525 
L 1159 -1331 
L 581 -1331 
L 581 3500 
L 1159 3500 
L 1159 2969 
Q 1341 3281 1617 3432 
Q 1894 3584 2278 3584 
Q 2916 3584 3314 3078 
Q 3713 2572 3713 1747 
Q 3713 922 3314 415 
Q 2916 -91 2278 -91 
Q 1894 -91 1617 61 
Q 1341 213 1159 525 
z
M 3116 1747 
Q 3116 2381 2855 2742 
Q 2594 3103 2138 3103 
Q 1681 3103 1420 2742 
Q 1159 2381 1159 1747 
Q 1159 1113 1420 752 
Q 1681 391 2138 391 
Q 2594 391 2855 752 
Q 3116 1113 3116 1747 
z
" id="DejaVuSans-70" transform="scale(0.015625)"/>
      <path d="M 1959 3097 
Q 1497 3097 1228 2736 
Q 959 2375 959 1747 
Q 959 1119 1226 758 
Q 1494 397 1959 397 
Q 2419 397 2687 759 
Q 2956 1122 2956 1747 
Q 2956 2369 2687 2733 
Q 2419 3097 1959 3097 
z
M 1959 3584 
Q 2709 3584 3137 3096 
Q 3566 2609 3566 1747 
Q 3566 888 3137 398 
Q 2709 -91 1959 -91 
Q 1206 -91 779 398 
Q 353 888 353 1747 
Q 353 2609 779 3096 
Q 1206 3584 1959 3584 
z
" id="DejaVuSans-6f" transform="scale(0.015625)"/>
     </defs>
     <use xlink:href="#DejaVuSans-64"/>
     <use x="63.476562" xlink:href="#DejaVuSans-61"/>
     <use x="124.755859" xlink:href="#DejaVuSans-69"/>
     <use x="152.539062" xlink:href="#DejaVuSans-6c"/>
     <use x="180.322266" xlink:href="#DejaVuSans-79"/>
     <use x="239.501953" xlink:href="#DejaVuSans-5f"/>
     <use x="289.501953" xlink:href="#DejaVuSans-72"/>
     <use x="328.365234" xlink:href="#DejaVuSans-65"/>
     <use x="389.888672" xlink:href="#DejaVuSans-70"/>
     <use x="453.365234" xlink:href="#DejaVuSans-6f"/>
     <use x="514.546875" xlink:href="#DejaVuSans-72"/>
     <use x="555.660156" xlink:href="#DejaVuSans-74"/>
    </g>
   </g>
   <g id="legend_1">
    <g id="patch_7">
     <path d="M 64.6 271.48 
L 178.64375 271.48 
Q 180.64375 271.48 180.64375 269.48 
L 180.64375 182.41125 
Q 180.64375 180.41125 178.64375 180.41125 
L 64.6 180.41125 
Q 62.6 180.41125 62.6 182.41125 
L 62.6 269.48 
Q 62.6 271.48 64.6 271.48 
z
" style="fill:#ffffff;opacity:0.8;stroke:#cccccc;stroke-linejoin:miter;"/>
    </g>
    <g id="line2d_23">
     <path d="M 66.6 188.509687 
L 86.6 188.509687 
" style="fill:none;stroke:#0000ff;stroke-linecap:square;stroke-opacity:0.9;stroke-width:2;"/>
    </g>
    <g id="line2d_24"/>
    <g id="text_19">
     <!-- alpaca -->
     <g transform="translate(94.6 192.009687)scale(0.1 -0.1)">
      <defs>
       <path d="M 3122 3366 
L 3122 2828 
Q 2878 2963 2633 3030 
Q 2388 3097 2138 3097 
Q 1578 3097 1268 2742 
Q 959 2388 959 1747 
Q 959 1106 1268 751 
Q 1578 397 2138 397 
Q 2388 397 2633 464 
Q 2878 531 3122 666 
L 3122 134 
Q 2881 22 2623 -34 
Q 2366 -91 2075 -91 
Q 1284 -91 818 406 
Q 353 903 353 1747 
Q 353 2603 823 3093 
Q 1294 3584 2113 3584 
Q 2378 3584 2631 3529 
Q 2884 3475 3122 3366 
z
" id="DejaVuSans-63" transform="scale(0.015625)"/>
      </defs>
      <use xlink:href="#DejaVuSans-61"/>
      <use x="61.279297" xlink:href="#DejaVuSans-6c"/>
      <use x="89.0625" xlink:href="#DejaVuSans-70"/>
      <use x="152.539062" xlink:href="#DejaVuSans-61"/>
      <use x="213.818359" xlink:href="#DejaVuSans-63"/>
      <use x="268.798828" xlink:href="#DejaVuSans-61"/>
     </g>
    </g>
    <g id="line2d_25">
     <path d="M 66.6 203.187812 
L 86.6 203.187812 
" style="fill:none;stroke:#ff0000;stroke-linecap:square;stroke-opacity:0.9;stroke-width:2;"/>
    </g>
    <g id="line2d_26"/>
    <g id="text_20">
     <!-- mattress -->
     <g transform="translate(94.6 206.687812)scale(0.1 -0.1)">
      <defs>
       <path d="M 3328 2828 
Q 3544 3216 3844 3400 
Q 4144 3584 4550 3584 
Q 5097 3584 5394 3201 
Q 5691 2819 5691 2113 
L 5691 0 
L 5113 0 
L 5113 2094 
Q 5113 2597 4934 2840 
Q 4756 3084 4391 3084 
Q 3944 3084 3684 2787 
Q 3425 2491 3425 1978 
L 3425 0 
L 2847 0 
L 2847 2094 
Q 2847 2600 2669 2842 
Q 2491 3084 2119 3084 
Q 1678 3084 1418 2786 
Q 1159 2488 1159 1978 
L 1159 0 
L 581 0 
L 581 3500 
L 1159 3500 
L 1159 2956 
Q 1356 3278 1631 3431 
Q 1906 3584 2284 3584 
Q 2666 3584 2933 3390 
Q 3200 3197 3328 2828 
z
" id="DejaVuSans-6d" transform="scale(0.015625)"/>
       <path d="M 2834 3397 
L 2834 2853 
Q 2591 2978 2328 3040 
Q 2066 3103 1784 3103 
Q 1356 3103 1142 2972 
Q 928 2841 928 2578 
Q 928 2378 1081 2264 
Q 1234 2150 1697 2047 
L 1894 2003 
Q 2506 1872 2764 1633 
Q 3022 1394 3022 966 
Q 3022 478 2636 193 
Q 2250 -91 1575 -91 
Q 1294 -91 989 -36 
Q 684 19 347 128 
L 347 722 
Q 666 556 975 473 
Q 1284 391 1588 391 
Q 1994 391 2212 530 
Q 2431 669 2431 922 
Q 2431 1156 2273 1281 
Q 2116 1406 1581 1522 
L 1381 1569 
Q 847 1681 609 1914 
Q 372 2147 372 2553 
Q 372 3047 722 3315 
Q 1072 3584 1716 3584 
Q 2034 3584 2315 3537 
Q 2597 3491 2834 3397 
z
" id="DejaVuSans-73" transform="scale(0.015625)"/>
      </defs>
      <use xlink:href="#DejaVuSans-6d"/>
      <use x="97.412109" xlink:href="#DejaVuSans-61"/>
      <use x="158.691406" xlink:href="#DejaVuSans-74"/>
      <use x="197.900391" xlink:href="#DejaVuSans-74"/>
      <use x="237.109375" xlink:href="#DejaVuSans-72"/>
      <use x="275.972656" xlink:href="#DejaVuSans-65"/>
      <use x="337.496094" xlink:href="#DejaVuSans-73"/>
      <use x="389.595703" xlink:href="#DejaVuSans-73"/>
     </g>
    </g>
    <g id="line2d_27">
     <path d="M 66.6 217.865937 
L 86.6 217.865937 
" style="fill:none;stroke:#008000;stroke-linecap:square;stroke-opacity:0.9;stroke-width:2;"/>
    </g>
    <g id="line2d_28"/>
    <g id="text_21">
     <!-- daily-open-rebal -->
     <g transform="translate(94.6 221.365937)scale(0.1 -0.1)">
      <defs>
       <path d="M 3513 2113 
L 3513 0 
L 2938 0 
L 2938 2094 
Q 2938 2591 2744 2837 
Q 2550 3084 2163 3084 
Q 1697 3084 1428 2787 
Q 1159 2491 1159 1978 
L 1159 0 
L 581 0 
L 581 3500 
L 1159 3500 
L 1159 2956 
Q 1366 3272 1645 3428 
Q 1925 3584 2291 3584 
Q 2894 3584 3203 3211 
Q 3513 2838 3513 2113 
z
" id="DejaVuSans-6e" transform="scale(0.015625)"/>
       <path d="M 3116 1747 
Q 3116 2381 2855 2742 
Q 2594 3103 2138 3103 
Q 1681 3103 1420 2742 
Q 1159 2381 1159 1747 
Q 1159 1113 1420 752 
Q 1681 391 2138 391 
Q 2594 391 2855 752 
Q 3116 1113 3116 1747 
z
M 1159 2969 
Q 1341 3281 1617 3432 
Q 1894 3584 2278 3584 
Q 2916 3584 3314 3078 
Q 3713 2572 3713 1747 
Q 3713 922 3314 415 
Q 2916 -91 2278 -91 
Q 1894 -91 1617 61 
Q 1341 213 1159 525 
L 1159 0 
L 581 0 
L 581 4863 
L 1159 4863 
L 1159 2969 
z
" id="DejaVuSans-62" transform="scale(0.015625)"/>
      </defs>
      <use xlink:href="#DejaVuSans-64"/>
      <use x="63.476562" xlink:href="#DejaVuSans-61"/>
      <use x="124.755859" xlink:href="#DejaVuSans-69"/>
      <use x="152.539062" xlink:href="#DejaVuSans-6c"/>
      <use x="180.322266" xlink:href="#DejaVuSans-79"/>
      <use x="237.751953" xlink:href="#DejaVuSans-2d"/>
      <use x="275.710938" xlink:href="#DejaVuSans-6f"/>
      <use x="336.892578" xlink:href="#DejaVuSans-70"/>
      <use x="400.369141" xlink:href="#DejaVuSans-65"/>
      <use x="461.892578" xlink:href="#DejaVuSans-6e"/>
      <use x="525.271484" xlink:href="#DejaVuSans-2d"/>
      <use x="561.355469" xlink:href="#DejaVuSans-72"/>
      <use x="600.21875" xlink:href="#DejaVuSans-65"/>
      <use x="661.742188" xlink:href="#DejaVuSans-62"/>
      <use x="725.21875" xlink:href="#DejaVuSans-61"/>
      <use x="786.498047" xlink:href="#DejaVuSans-6c"/>
     </g>
    </g>
    <g id="line2d_29">
     <path d="M 66.6 232.544062 
L 86.6 232.544062 
" style="fill:none;stroke:#ec5283;stroke-linecap:square;stroke-width:2;"/>
    </g>
    <g id="line2d_30"/>
    <g id="text_22">
     <!-- daily-close-rebal -->
     <g transform="translate(94.6 236.044062)scale(0.1 -0.1)">
      <use xlink:href="#DejaVuSans-64"/>
      <use x="63.476562" xlink:href="#DejaVuSans-61"/>
      <use x="124.755859" xlink:href="#DejaVuSans-69"/>
      <use x="152.539062" xlink:href="#DejaVuSans-6c"/>
      <use x="180.322266" xlink:href="#DejaVuSans-79"/>
      <use x="237.751953" xlink:href="#DejaVuSans-2d"/>
      <use x="273.835938" xlink:href="#DejaVuSans-63"/>
      <use x="328.816406" xlink:href="#DejaVuSans-6c"/>
      <use x="356.599609" xlink:href="#DejaVuSans-6f"/>
      <use x="417.78125" xlink:href="#DejaVuSans-73"/>
      <use x="469.880859" xlink:href="#DejaVuSans-65"/>
      <use x="531.404297" xlink:href="#DejaVuSans-2d"/>
      <use x="567.488281" xlink:href="#DejaVuSans-72"/>
      <use x="606.351562" xlink:href="#DejaVuSans-65"/>
      <use x="667.875" xlink:href="#DejaVuSans-62"/>
      <use x="731.351562" xlink:href="#DejaVuSans-61"/>
      <use x="792.630859" xlink:href="#DejaVuSans-6c"/>
     </g>
    </g>
    <g id="line2d_31">
     <path d="M 66.6 247.222187 
L 86.6 247.222187 
" style="fill:none;stroke:#00ff00;stroke-linecap:square;stroke-opacity:0.9;stroke-width:2;"/>
    </g>
    <g id="line2d_32"/>
    <g id="text_23">
     <!-- trader-baseline -->
     <g transform="translate(94.6 250.722187)scale(0.1 -0.1)">
      <use xlink:href="#DejaVuSans-74"/>
      <use x="39.208984" xlink:href="#DejaVuSans-72"/>
      <use x="80.322266" xlink:href="#DejaVuSans-61"/>
      <use x="141.601562" xlink:href="#DejaVuSans-64"/>
      <use x="205.078125" xlink:href="#DejaVuSans-65"/>
      <use x="266.601562" xlink:href="#DejaVuSans-72"/>
      <use x="301.339844" xlink:href="#DejaVuSans-2d"/>
      <use x="337.423828" xlink:href="#DejaVuSans-62"/>
      <use x="400.900391" xlink:href="#DejaVuSans-61"/>
      <use x="462.179688" xlink:href="#DejaVuSans-73"/>
      <use x="514.279297" xlink:href="#DejaVuSans-65"/>
      <use x="575.802734" xlink:href="#DejaVuSans-6c"/>
      <use x="603.585938" xlink:href="#DejaVuSans-69"/>
      <use x="631.369141" xlink:href="#DejaVuSans-6e"/>
      <use x="694.748047" xlink:href="#DejaVuSans-65"/>
     </g>
    </g>
    <g id="line2d_33">
     <path d="M 66.6 261.900312 
L 86.6 261.900312 
" style="fill:none;stroke:#a5b9cf;stroke-linecap:square;stroke-width:2;"/>
    </g>
    <g id="line2d_34"/>
    <g id="text_24">
     <!-- default-cfg -->
     <g transform="translate(94.6 265.400312)scale(0.1 -0.1)">
      <defs>
       <path d="M 2375 4863 
L 2375 4384 
L 1825 4384 
Q 1516 4384 1395 4259 
Q 1275 4134 1275 3809 
L 1275 3500 
L 2222 3500 
L 2222 3053 
L 1275 3053 
L 1275 0 
L 697 0 
L 697 3053 
L 147 3053 
L 147 3500 
L 697 3500 
L 697 3744 
Q 697 4328 969 4595 
Q 1241 4863 1831 4863 
L 2375 4863 
z
" id="DejaVuSans-66" transform="scale(0.015625)"/>
       <path d="M 544 1381 
L 544 3500 
L 1119 3500 
L 1119 1403 
Q 1119 906 1312 657 
Q 1506 409 1894 409 
Q 2359 409 2629 706 
Q 2900 1003 2900 1516 
L 2900 3500 
L 3475 3500 
L 3475 0 
L 2900 0 
L 2900 538 
Q 2691 219 2414 64 
Q 2138 -91 1772 -91 
Q 1169 -91 856 284 
Q 544 659 544 1381 
z
M 1991 3584 
L 1991 3584 
z
" id="DejaVuSans-75" transform="scale(0.015625)"/>
       <path d="M 2906 1791 
Q 2906 2416 2648 2759 
Q 2391 3103 1925 3103 
Q 1463 3103 1205 2759 
Q 947 2416 947 1791 
Q 947 1169 1205 825 
Q 1463 481 1925 481 
Q 2391 481 2648 825 
Q 2906 1169 2906 1791 
z
M 3481 434 
Q 3481 -459 3084 -895 
Q 2688 -1331 1869 -1331 
Q 1566 -1331 1297 -1286 
Q 1028 -1241 775 -1147 
L 775 -588 
Q 1028 -725 1275 -790 
Q 1522 -856 1778 -856 
Q 2344 -856 2625 -561 
Q 2906 -266 2906 331 
L 2906 616 
Q 2728 306 2450 153 
Q 2172 0 1784 0 
Q 1141 0 747 490 
Q 353 981 353 1791 
Q 353 2603 747 3093 
Q 1141 3584 1784 3584 
Q 2172 3584 2450 3431 
Q 2728 3278 2906 2969 
L 2906 3500 
L 3481 3500 
L 3481 434 
z
" id="DejaVuSans-67" transform="scale(0.015625)"/>
      </defs>
      <use xlink:href="#DejaVuSans-64"/>
      <use x="63.476562" xlink:href="#DejaVuSans-65"/>
      <use x="125" xlink:href="#DejaVuSans-66"/>
      <use x="160.205078" xlink:href="#DejaVuSans-61"/>
      <use x="221.484375" xlink:href="#DejaVuSans-75"/>
      <use x="284.863281" xlink:href="#DejaVuSans-6c"/>
      <use x="312.646484" xlink:href="#DejaVuSans-74"/>
      <use x="351.855469" xlink:href="#DejaVuSans-2d"/>
      <use x="387.939453" xlink:href="#DejaVuSans-63"/>
      <use x="442.919922" xlink:href="#DejaVuSans-66"/>
      <use x="478.125" xlink:href="#DejaVuSans-67"/>
     </g>
    </g>
   </g>
  </g>
 </g>
 <defs>
  <clipPath id="p3fd9b1c1ce">
   <rect height="235.008" width="357.12" x="57.6" y="41.472"/>
  </clipPath>
 </defs>
</svg>
