<?xml version="1.0" encoding="utf-8" standalone="no"?>
<!DOCTYPE svg PUBLIC "-//W3C//DTD SVG 1.1//EN"
  "http://www.w3.org/Graphics/SVG/1.1/DTD/svg11.dtd">
<svg height="345.6pt" version="1.1" viewBox="0 0 460.8 345.6" width="460.8pt" xmlns="http://www.w3.org/2000/svg" xmlns:xlink="http://www.w3.org/1999/xlink">
 <metadata>
  <rdf:RDF xmlns:cc="http://creativecommons.org/ns#" xmlns:dc="http://purl.org/dc/elements/1.1/" xmlns:rdf="http://www.w3.org/1999/02/22-rdf-syntax-ns#">
   <cc:Work>
    <dc:type rdf:resource="http://purl.org/dc/dcmitype/StillImage"/>
    <dc:date>2022-02-15T01:01:57.275933</dc:date>
    <dc:format>image/svg+xml</dc:format>
    <dc:creator>
     <cc:Agent>
      <dc:title>Matplotlib v3.4.3, https://matplotlib.org/</dc:title>
     </cc:Agent>
    </dc:creator>
   </cc:Work>
  </rdf:RDF>
 </metadata>
 <defs>
  <style type="text/css">*{stroke-linecap:butt;stroke-linejoin:round;}</style>
 </defs>
 <g id="figure_1">
  <g id="patch_1">
   <path d="M 0 345.6 
L 460.8 345.6 
L 460.8 0 
L 0 0 
z
" style="fill:#ffffff;"/>
  </g>
  <g id="axes_1">
   <g id="patch_2">
    <path d="M 57.6 276.48 
L 414.72 276.48 
L 414.72 41.472 
L 57.6 41.472 
z
" style="fill:#ffffff;"/>
   </g>
   <g id="matplotlib.axis_1">
    <g id="xtick_1">
     <g id="line2d_1">
      <defs>
       <path d="M 0 0 
L 0 3.5 
" id="m5d1284c65e" style="stroke:#000000;stroke-width:0.8;"/>
      </defs>
      <g>
       <use style="stroke:#000000;stroke-width:0.8;" x="90.529247" xlink:href="#m5d1284c65e" y="276.48"/>
      </g>
     </g>
     <g id="text_1">
      <!-- 2021-09 -->
      <g transform="translate(53.304426 310.951846)rotate(-30)scale(0.1 -0.1)">
       <defs>
        <path d="M 1228 531 
L 3431 531 
L 3431 0 
L 469 0 
L 469 531 
Q 828 903 1448 1529 
Q 2069 2156 2228 2338 
Q 2531 2678 2651 2914 
Q 2772 3150 2772 3378 
Q 2772 3750 2511 3984 
Q 2250 4219 1831 4219 
Q 1534 4219 1204 4116 
Q 875 4013 500 3803 
L 500 4441 
Q 881 4594 1212 4672 
Q 1544 4750 1819 4750 
Q 2544 4750 2975 4387 
Q 3406 4025 3406 3419 
Q 3406 3131 3298 2873 
Q 3191 2616 2906 2266 
Q 2828 2175 2409 1742 
Q 1991 1309 1228 531 
z
" id="DejaVuSans-32" transform="scale(0.015625)"/>
        <path d="M 2034 4250 
Q 1547 4250 1301 3770 
Q 1056 3291 1056 2328 
Q 1056 1369 1301 889 
Q 1547 409 2034 409 
Q 2525 409 2770 889 
Q 3016 1369 3016 2328 
Q 3016 3291 2770 3770 
Q 2525 4250 2034 4250 
z
M 2034 4750 
Q 2819 4750 3233 4129 
Q 3647 3509 3647 2328 
Q 3647 1150 3233 529 
Q 2819 -91 2034 -91 
Q 1250 -91 836 529 
Q 422 1150 422 2328 
Q 422 3509 836 4129 
Q 1250 4750 2034 4750 
z
" id="DejaVuSans-30" transform="scale(0.015625)"/>
        <path d="M 794 531 
L 1825 531 
L 1825 4091 
L 703 3866 
L 703 4441 
L 1819 4666 
L 2450 4666 
L 2450 531 
L 3481 531 
L 3481 0 
L 794 0 
L 794 531 
z
" id="DejaVuSans-31" transform="scale(0.015625)"/>
        <path d="M 313 2009 
L 1997 2009 
L 1997 1497 
L 313 1497 
L 313 2009 
z
" id="DejaVuSans-2d" transform="scale(0.015625)"/>
        <path d="M 703 97 
L 703 672 
Q 941 559 1184 500 
Q 1428 441 1663 441 
Q 2288 441 2617 861 
Q 2947 1281 2994 2138 
Q 2813 1869 2534 1725 
Q 2256 1581 1919 1581 
Q 1219 1581 811 2004 
Q 403 2428 403 3163 
Q 403 3881 828 4315 
Q 1253 4750 1959 4750 
Q 2769 4750 3195 4129 
Q 3622 3509 3622 2328 
Q 3622 1225 3098 567 
Q 2575 -91 1691 -91 
Q 1453 -91 1209 -44 
Q 966 3 703 97 
z
M 1959 2075 
Q 2384 2075 2632 2365 
Q 2881 2656 2881 3163 
Q 2881 3666 2632 3958 
Q 2384 4250 1959 4250 
Q 1534 4250 1286 3958 
Q 1038 3666 1038 3163 
Q 1038 2656 1286 2365 
Q 1534 2075 1959 2075 
z
" id="DejaVuSans-39" transform="scale(0.015625)"/>
       </defs>
       <use xlink:href="#DejaVuSans-32"/>
       <use x="63.623047" xlink:href="#DejaVuSans-30"/>
       <use x="127.246094" xlink:href="#DejaVuSans-32"/>
       <use x="190.869141" xlink:href="#DejaVuSans-31"/>
       <use x="254.492188" xlink:href="#DejaVuSans-2d"/>
       <use x="290.576172" xlink:href="#DejaVuSans-30"/>
       <use x="354.199219" xlink:href="#DejaVuSans-39"/>
      </g>
     </g>
    </g>
    <g id="xtick_2">
     <g id="line2d_2">
      <g>
       <use style="stroke:#000000;stroke-width:0.8;" x="146.184312" xlink:href="#m5d1284c65e" y="276.48"/>
      </g>
     </g>
     <g id="text_2">
      <!-- 2021-10 -->
      <g transform="translate(108.959491 310.951846)rotate(-30)scale(0.1 -0.1)">
       <use xlink:href="#DejaVuSans-32"/>
       <use x="63.623047" xlink:href="#DejaVuSans-30"/>
       <use x="127.246094" xlink:href="#DejaVuSans-32"/>
       <use x="190.869141" xlink:href="#DejaVuSans-31"/>
       <use x="254.492188" xlink:href="#DejaVuSans-2d"/>
       <use x="290.576172" xlink:href="#DejaVuSans-31"/>
       <use x="354.199219" xlink:href="#DejaVuSans-30"/>
      </g>
     </g>
    </g>
    <g id="xtick_3">
     <g id="line2d_3">
      <g>
       <use style="stroke:#000000;stroke-width:0.8;" x="203.694545" xlink:href="#m5d1284c65e" y="276.48"/>
      </g>
     </g>
     <g id="text_3">
      <!-- 2021-11 -->
      <g transform="translate(166.469725 310.951846)rotate(-30)scale(0.1 -0.1)">
       <use xlink:href="#DejaVuSans-32"/>
       <use x="63.623047" xlink:href="#DejaVuSans-30"/>
       <use x="127.246094" xlink:href="#DejaVuSans-32"/>
       <use x="190.869141" xlink:href="#DejaVuSans-31"/>
       <use x="254.492188" xlink:href="#DejaVuSans-2d"/>
       <use x="290.576172" xlink:href="#DejaVuSans-31"/>
       <use x="354.199219" xlink:href="#DejaVuSans-31"/>
      </g>
     </g>
    </g>
    <g id="xtick_4">
     <g id="line2d_4">
      <g>
       <use style="stroke:#000000;stroke-width:0.8;" x="259.34961" xlink:href="#m5d1284c65e" y="276.48"/>
      </g>
     </g>
     <g id="text_4">
      <!-- 2021-12 -->
      <g transform="translate(222.12479 310.951846)rotate(-30)scale(0.1 -0.1)">
       <use xlink:href="#DejaVuSans-32"/>
       <use x="63.623047" xlink:href="#DejaVuSans-30"/>
       <use x="127.246094" xlink:href="#DejaVuSans-32"/>
       <use x="190.869141" xlink:href="#DejaVuSans-31"/>
       <use x="254.492188" xlink:href="#DejaVuSans-2d"/>
       <use x="290.576172" xlink:href="#DejaVuSans-31"/>
       <use x="354.199219" xlink:href="#DejaVuSans-32"/>
      </g>
     </g>
    </g>
    <g id="xtick_5">
     <g id="line2d_5">
      <g>
       <use style="stroke:#000000;stroke-width:0.8;" x="316.859844" xlink:href="#m5d1284c65e" y="276.48"/>
      </g>
     </g>
     <g id="text_5">
      <!-- 2022-01 -->
      <g transform="translate(279.635023 310.951846)rotate(-30)scale(0.1 -0.1)">
       <use xlink:href="#DejaVuSans-32"/>
       <use x="63.623047" xlink:href="#DejaVuSans-30"/>
       <use x="127.246094" xlink:href="#DejaVuSans-32"/>
       <use x="190.869141" xlink:href="#DejaVuSans-32"/>
       <use x="254.492188" xlink:href="#DejaVuSans-2d"/>
       <use x="290.576172" xlink:href="#DejaVuSans-30"/>
       <use x="354.199219" xlink:href="#DejaVuSans-31"/>
      </g>
     </g>
    </g>
    <g id="xtick_6">
     <g id="line2d_6">
      <g>
       <use style="stroke:#000000;stroke-width:0.8;" x="374.370078" xlink:href="#m5d1284c65e" y="276.48"/>
      </g>
     </g>
     <g id="text_6">
      <!-- 2022-02 -->
      <g transform="translate(337.145257 310.951846)rotate(-30)scale(0.1 -0.1)">
       <use xlink:href="#DejaVuSans-32"/>
       <use x="63.623047" xlink:href="#DejaVuSans-30"/>
       <use x="127.246094" xlink:href="#DejaVuSans-32"/>
       <use x="190.869141" xlink:href="#DejaVuSans-32"/>
       <use x="254.492188" xlink:href="#DejaVuSans-2d"/>
       <use x="290.576172" xlink:href="#DejaVuSans-30"/>
       <use x="354.199219" xlink:href="#DejaVuSans-32"/>
      </g>
     </g>
    </g>
    <g id="text_7">
     <!-- date -->
     <g transform="translate(224.885 324.351346)scale(0.1 -0.1)">
      <defs>
       <path d="M 2906 2969 
L 2906 4863 
L 3481 4863 
L 3481 0 
L 2906 0 
L 2906 525 
Q 2725 213 2448 61 
Q 2172 -91 1784 -91 
Q 1150 -91 751 415 
Q 353 922 353 1747 
Q 353 2572 751 3078 
Q 1150 3584 1784 3584 
Q 2172 3584 2448 3432 
Q 2725 3281 2906 2969 
z
M 947 1747 
Q 947 1113 1208 752 
Q 1469 391 1925 391 
Q 2381 391 2643 752 
Q 2906 1113 2906 1747 
Q 2906 2381 2643 2742 
Q 2381 3103 1925 3103 
Q 1469 3103 1208 2742 
Q 947 2381 947 1747 
z
" id="DejaVuSans-64" transform="scale(0.015625)"/>
       <path d="M 2194 1759 
Q 1497 1759 1228 1600 
Q 959 1441 959 1056 
Q 959 750 1161 570 
Q 1363 391 1709 391 
Q 2188 391 2477 730 
Q 2766 1069 2766 1631 
L 2766 1759 
L 2194 1759 
z
M 3341 1997 
L 3341 0 
L 2766 0 
L 2766 531 
Q 2569 213 2275 61 
Q 1981 -91 1556 -91 
Q 1019 -91 701 211 
Q 384 513 384 1019 
Q 384 1609 779 1909 
Q 1175 2209 1959 2209 
L 2766 2209 
L 2766 2266 
Q 2766 2663 2505 2880 
Q 2244 3097 1772 3097 
Q 1472 3097 1187 3025 
Q 903 2953 641 2809 
L 641 3341 
Q 956 3463 1253 3523 
Q 1550 3584 1831 3584 
Q 2591 3584 2966 3190 
Q 3341 2797 3341 1997 
z
" id="DejaVuSans-61" transform="scale(0.015625)"/>
       <path d="M 1172 4494 
L 1172 3500 
L 2356 3500 
L 2356 3053 
L 1172 3053 
L 1172 1153 
Q 1172 725 1289 603 
Q 1406 481 1766 481 
L 2356 481 
L 2356 0 
L 1766 0 
Q 1100 0 847 248 
Q 594 497 594 1153 
L 594 3053 
L 172 3053 
L 172 3500 
L 594 3500 
L 594 4494 
L 1172 4494 
z
" id="DejaVuSans-74" transform="scale(0.015625)"/>
       <path d="M 3597 1894 
L 3597 1613 
L 953 1613 
Q 991 1019 1311 708 
Q 1631 397 2203 397 
Q 2534 397 2845 478 
Q 3156 559 3463 722 
L 3463 178 
Q 3153 47 2828 -22 
Q 2503 -91 2169 -91 
Q 1331 -91 842 396 
Q 353 884 353 1716 
Q 353 2575 817 3079 
Q 1281 3584 2069 3584 
Q 2775 3584 3186 3129 
Q 3597 2675 3597 1894 
z
M 3022 2063 
Q 3016 2534 2758 2815 
Q 2500 3097 2075 3097 
Q 1594 3097 1305 2825 
Q 1016 2553 972 2059 
L 3022 2063 
z
" id="DejaVuSans-65" transform="scale(0.015625)"/>
      </defs>
      <use xlink:href="#DejaVuSans-64"/>
      <use x="63.476562" xlink:href="#DejaVuSans-61"/>
      <use x="124.755859" xlink:href="#DejaVuSans-74"/>
      <use x="163.964844" xlink:href="#DejaVuSans-65"/>
     </g>
    </g>
   </g>
   <g id="matplotlib.axis_2">
    <g id="ytick_1">
     <g id="line2d_7">
      <defs>
       <path d="M 0 0 
L -3.5 0 
" id="m07cdd036b1" style="stroke:#000000;stroke-width:0.8;"/>
      </defs>
      <g>
       <use style="stroke:#000000;stroke-width:0.8;" x="57.6" xlink:href="#m07cdd036b1" y="234.564512"/>
      </g>
     </g>
     <g id="text_8">
      <!-- 95000 -->
      <g transform="translate(18.7875 238.363731)scale(0.1 -0.1)">
       <defs>
        <path d="M 691 4666 
L 3169 4666 
L 3169 4134 
L 1269 4134 
L 1269 2991 
Q 1406 3038 1543 3061 
Q 1681 3084 1819 3084 
Q 2600 3084 3056 2656 
Q 3513 2228 3513 1497 
Q 3513 744 3044 326 
Q 2575 -91 1722 -91 
Q 1428 -91 1123 -41 
Q 819 9 494 109 
L 494 744 
Q 775 591 1075 516 
Q 1375 441 1709 441 
Q 2250 441 2565 725 
Q 2881 1009 2881 1497 
Q 2881 1984 2565 2268 
Q 2250 2553 1709 2553 
Q 1456 2553 1204 2497 
Q 953 2441 691 2322 
L 691 4666 
z
" id="DejaVuSans-35" transform="scale(0.015625)"/>
       </defs>
       <use xlink:href="#DejaVuSans-39"/>
       <use x="63.623047" xlink:href="#DejaVuSans-35"/>
       <use x="127.246094" xlink:href="#DejaVuSans-30"/>
       <use x="190.869141" xlink:href="#DejaVuSans-30"/>
       <use x="254.492188" xlink:href="#DejaVuSans-30"/>
      </g>
     </g>
    </g>
    <g id="ytick_2">
     <g id="line2d_8">
      <g>
       <use style="stroke:#000000;stroke-width:0.8;" x="57.6" xlink:href="#m07cdd036b1" y="191.063623"/>
      </g>
     </g>
     <g id="text_9">
      <!-- 100000 -->
      <g transform="translate(12.425 194.862841)scale(0.1 -0.1)">
       <use xlink:href="#DejaVuSans-31"/>
       <use x="63.623047" xlink:href="#DejaVuSans-30"/>
       <use x="127.246094" xlink:href="#DejaVuSans-30"/>
       <use x="190.869141" xlink:href="#DejaVuSans-30"/>
       <use x="254.492188" xlink:href="#DejaVuSans-30"/>
       <use x="318.115234" xlink:href="#DejaVuSans-30"/>
      </g>
     </g>
    </g>
    <g id="ytick_3">
     <g id="line2d_9">
      <g>
       <use style="stroke:#000000;stroke-width:0.8;" x="57.6" xlink:href="#m07cdd036b1" y="147.562733"/>
      </g>
     </g>
     <g id="text_10">
      <!-- 105000 -->
      <g transform="translate(12.425 151.361952)scale(0.1 -0.1)">
       <use xlink:href="#DejaVuSans-31"/>
       <use x="63.623047" xlink:href="#DejaVuSans-30"/>
       <use x="127.246094" xlink:href="#DejaVuSans-35"/>
       <use x="190.869141" xlink:href="#DejaVuSans-30"/>
       <use x="254.492188" xlink:href="#DejaVuSans-30"/>
       <use x="318.115234" xlink:href="#DejaVuSans-30"/>
      </g>
     </g>
    </g>
    <g id="ytick_4">
     <g id="line2d_10">
      <g>
       <use style="stroke:#000000;stroke-width:0.8;" x="57.6" xlink:href="#m07cdd036b1" y="104.061843"/>
      </g>
     </g>
     <g id="text_11">
      <!-- 110000 -->
      <g transform="translate(12.425 107.861062)scale(0.1 -0.1)">
       <use xlink:href="#DejaVuSans-31"/>
       <use x="63.623047" xlink:href="#DejaVuSans-31"/>
       <use x="127.246094" xlink:href="#DejaVuSans-30"/>
       <use x="190.869141" xlink:href="#DejaVuSans-30"/>
       <use x="254.492188" xlink:href="#DejaVuSans-30"/>
       <use x="318.115234" xlink:href="#DejaVuSans-30"/>
      </g>
     </g>
    </g>
    <g id="ytick_5">
     <g id="line2d_11">
      <g>
       <use style="stroke:#000000;stroke-width:0.8;" x="57.6" xlink:href="#m07cdd036b1" y="60.560954"/>
      </g>
     </g>
     <g id="text_12">
      <!-- 115000 -->
      <g transform="translate(12.425 64.360173)scale(0.1 -0.1)">
       <use xlink:href="#DejaVuSans-31"/>
       <use x="63.623047" xlink:href="#DejaVuSans-31"/>
       <use x="127.246094" xlink:href="#DejaVuSans-35"/>
       <use x="190.869141" xlink:href="#DejaVuSans-30"/>
       <use x="254.492188" xlink:href="#DejaVuSans-30"/>
       <use x="318.115234" xlink:href="#DejaVuSans-30"/>
      </g>
     </g>
    </g>
   </g>
   <g id="line2d_12">
    <path clip-path="url(#p9640f490c0)" d="M 73.832727 191.063623 
L 75.687896 191.614693 
L 77.543065 187.996608 
L 79.398234 192.809002 
L 81.253403 184.540654 
L 86.818909 179.048625 
L 88.674078 177.284259 
L 90.529247 179.419678 
L 92.384416 178.886778 
L 94.239584 179.122885 
L 101.66026 179.447842 
L 103.515429 181.904469 
L 105.370597 185.116199 
L 107.225766 192.075666 
L 112.791273 185.530635 
L 114.646442 197.53708 
L 116.50161 192.526575 
L 118.356779 194.062941 
L 120.211948 203.137034 
L 125.777455 218.08503 
L 127.632623 220.298157 
L 129.487792 213.705952 
L 131.342961 200.123595 
L 133.19813 192.376431 
L 138.763636 185.851162 
L 140.618805 204.89218 
L 142.473974 202.040228 
L 144.329143 208.3613 
L 146.184312 195.456898 
L 151.749818 211.460803 
L 153.604987 199.157082 
L 155.460156 195.311371 
L 157.315325 194.749228 
L 159.170494 193.77708 
L 164.736 192.623943 
L 166.591169 192.268597 
L 168.446338 203.027534 
L 170.301506 186.567206 
L 172.156675 184.364224 
L 177.722182 177.403756 
L 179.577351 169.258891 
L 181.432519 165.499902 
L 183.287688 180.361111 
L 185.142857 192.007814 
L 190.708364 191.480447 
L 192.563532 199.314347 
L 194.418701 200.470483 
L 196.27387 190.19427 
L 198.129039 200.959527 
L 203.694545 183.712071 
L 205.549714 184.011121 
L 207.404883 175.153612 
L 209.260052 185.693052 
L 211.115221 180.34449 
L 216.680727 179.218043 
L 218.535896 190.268983 
L 220.391065 189.518715 
L 222.246234 196.466044 
L 224.101403 189.673345 
L 229.666909 186.961004 
L 231.522078 187.217952 
L 233.377247 192.287173 
L 235.232416 194.683791 
L 237.087584 194.623061 
L 242.653091 189.389694 
L 244.50826 182.390016 
L 246.363429 182.939823 
L 250.073766 183.103931 
L 255.639273 191.167727 
L 257.494442 208.157729 
L 259.34961 219.44324 
L 261.204779 208.776346 
L 263.059948 213.808307 
L 268.625455 197.982502 
L 270.480623 183.273783 
L 272.335792 176.247378 
L 274.190961 175.867869 
L 276.04613 172.392753 
L 281.611636 181.251449 
L 283.466805 177.161162 
L 285.321974 171.519277 
L 287.177143 168.618714 
L 289.032312 178.359804 
L 294.597818 191.116268 
L 296.452987 170.573064 
L 298.308156 166.555356 
L 300.163325 158.682477 
L 307.584 147.042776 
L 309.439169 147.959532 
L 311.294338 147.407833 
L 313.149506 148.868179 
L 315.004675 152.766526 
L 320.570182 139.336648 
L 322.425351 127.707158 
L 324.280519 151.162216 
L 326.135688 143.946718 
L 327.990857 140.450495 
L 333.556364 139.656061 
L 335.411532 131.802569 
L 337.266701 130.175284 
L 339.12187 141.251962 
L 340.977039 138.349867 
L 348.397714 158.115391 
L 350.252883 162.766513 
L 352.108052 172.789783 
L 353.963221 193.463637 
L 359.528727 192.681109 
L 361.383896 202.349497 
L 363.239065 202.658446 
L 365.094234 208.280381 
L 366.949403 186.023463 
L 372.514909 167.791064 
L 374.370078 159.232898 
L 376.225247 145.278531 
L 378.080416 203.647282 
L 379.935584 203.220001 
L 385.501091 218.480368 
L 387.35626 220.527882 
L 389.211429 201.672868 
L 391.066597 216.805541 
L 392.921766 235.146638 
L 398.487273 240.87143 
" style="fill:none;stroke:#0000ff;stroke-linecap:square;stroke-opacity:0.9;stroke-width:2;"/>
   </g>
   <g id="line2d_13">
    <path clip-path="url(#p9640f490c0)" d="M 73.832727 191.063623 
L 75.687896 186.630172 
L 77.543065 182.105008 
L 79.398234 187.49602 
L 81.253403 177.520897 
L 86.818909 174.004571 
L 88.674078 173.534992 
L 90.529247 173.192115 
L 92.384416 174.711511 
L 94.239584 174.127498 
L 101.66026 172.29717 
L 103.515429 176.172524 
L 105.370597 177.495724 
L 107.225766 187.517874 
L 112.791273 180.801374 
L 114.646442 189.503771 
L 116.50161 184.965698 
L 118.356779 187.903104 
L 120.211948 198.925395 
L 125.777455 212.316665 
L 127.632623 212.85476 
L 129.487792 207.825372 
L 131.342961 196.796252 
L 133.19813 190.550863 
L 138.763636 184.973357 
L 140.618805 201.86433 
L 142.473974 200.473252 
L 144.329143 208.91938 
L 146.184312 196.573751 
L 151.749818 206.415326 
L 153.604987 194.080137 
L 155.460156 191.709178 
L 157.315325 189.384588 
L 159.170494 185.444428 
L 164.736 190.25197 
L 166.591169 197.304262 
L 168.446338 199.538881 
L 170.301506 178.138729 
L 172.156675 172.410199 
L 177.722182 170.088749 
L 179.577351 162.572619 
L 181.432519 157.10357 
L 183.287688 169.416318 
L 185.142857 174.191181 
L 190.708364 176.622524 
L 192.563532 180.924176 
L 194.418701 186.217193 
L 196.27387 173.881514 
L 198.129039 172.287383 
L 203.694545 171.215944 
L 205.549714 168.231618 
L 207.404883 161.509513 
L 209.260052 163.583489 
L 211.115221 163.055432 
L 216.680727 162.551125 
L 218.535896 169.035126 
L 220.391065 173.526162 
L 222.246234 173.972363 
L 224.101403 168.132104 
L 229.666909 165.636817 
L 231.522078 167.438875 
L 233.377247 168.670037 
L 235.232416 168.194707 
L 237.087584 172.098612 
L 242.653091 167.578104 
L 244.50826 158.94035 
L 246.363429 158.552694 
L 250.073766 182.197429 
L 255.639273 172.222375 
L 257.494442 191.208978 
L 259.34961 200.943171 
L 261.204779 188.790202 
L 263.059948 196.128558 
L 268.625455 183.463503 
L 270.480623 168.137587 
L 272.335792 163.291075 
L 274.190961 163.202695 
L 276.04613 158.219753 
L 281.611636 167.35113 
L 283.466805 166.322869 
L 285.321974 159.706572 
L 287.177143 159.32457 
L 289.032312 170.721035 
L 294.597818 181.153274 
L 296.452987 164.453277 
L 298.308156 159.417722 
L 300.163325 151.126885 
L 307.584 139.491025 
L 309.439169 139.925588 
L 311.294338 139.848431 
L 313.149506 140.710813 
L 315.004675 144.798827 
L 320.570182 134.347675 
L 322.425351 125.057172 
L 324.280519 145.510193 
L 326.135688 141.960529 
L 327.990857 137.472539 
L 333.556364 138.231747 
L 335.411532 132.599785 
L 337.266701 132.55628 
L 339.12187 139.504533 
L 340.977039 139.441847 
L 348.397714 159.540492 
L 350.252883 168.389478 
L 352.108052 177.109675 
L 353.963221 195.78694 
L 359.528727 196.783871 
L 361.383896 194.322265 
L 363.239065 196.0571 
L 365.094234 203.963278 
L 366.949403 182.720298 
L 372.514909 168.683127 
L 374.370078 158.518532 
L 376.225247 144.359685 
L 378.080416 184.595465 
L 379.935584 178.113769 
L 385.501091 183.69371 
L 387.35626 177.408998 
L 389.211429 169.387893 
L 391.066597 184.386954 
L 392.921766 202.915785 
L 398.487273 210.516303 
" style="fill:none;stroke:#ff0000;stroke-linecap:square;stroke-opacity:0.9;stroke-width:2;"/>
   </g>
   <g id="line2d_14">
    <path clip-path="url(#p9640f490c0)" d="M 73.832727 191.063623 
L 75.687896 186.167307 
L 77.543065 183.060761 
L 79.398234 187.925469 
L 81.253403 179.836957 
L 86.818909 173.395647 
L 88.674078 172.688706 
L 90.529247 174.382889 
L 92.384416 173.149457 
L 94.239584 173.529897 
L 101.66026 174.109193 
L 103.515429 176.797119 
L 105.370597 179.507377 
L 107.225766 186.507126 
L 112.791273 179.874583 
L 114.646442 191.744743 
L 116.50161 186.866927 
L 118.356779 188.206862 
L 120.211948 197.191711 
L 125.777455 212.035126 
L 127.632623 213.711553 
L 129.487792 207.436292 
L 131.342961 194.006215 
L 133.19813 186.180337 
L 138.763636 178.471101 
L 140.618805 197.084157 
L 142.473974 194.654936 
L 144.329143 200.623649 
L 146.184312 187.341586 
L 151.749818 203.841247 
L 153.604987 190.592202 
L 155.460156 186.942944 
L 157.315325 184.810158 
L 159.170494 181.059912 
L 164.736 186.275405 
L 166.591169 193.034071 
L 168.446338 194.456437 
L 170.301506 177.820362 
L 172.156675 176.386728 
L 177.722182 168.985806 
L 179.577351 159.843601 
L 181.432519 156.638448 
L 183.287688 171.247272 
L 185.142857 182.8859 
L 190.708364 181.963763 
L 192.563532 190.069073 
L 194.418701 191.304595 
L 196.27387 181.155999 
L 198.129039 178.880104 
L 203.694545 174.538041 
L 205.549714 173.260133 
L 207.404883 165.614586 
L 209.260052 165.488411 
L 211.115221 158.99678 
L 216.680727 158.513434 
L 218.535896 168.952928 
L 220.391065 176.214629 
L 222.246234 176.847631 
L 224.101403 169.225218 
L 229.666909 166.831922 
L 231.522078 171.28171 
L 233.377247 171.450152 
L 235.232416 173.507441 
L 237.087584 174.342528 
L 242.653091 168.44137 
L 244.50826 161.372532 
L 246.363429 161.412219 
L 250.073766 182.214062 
L 255.639273 170.634467 
L 257.494442 187.872284 
L 259.34961 199.687184 
L 261.204779 189.650376 
L 263.059948 195.36195 
L 268.625455 178.754586 
L 270.480623 162.758143 
L 272.335792 156.022505 
L 274.190961 155.632485 
L 276.04613 152.614914 
L 281.611636 160.712595 
L 283.466805 156.411617 
L 285.321974 151.611175 
L 287.177143 147.766418 
L 289.032312 158.824544 
L 294.597818 171.021688 
L 296.452987 149.836401 
L 298.308156 145.985132 
L 300.163325 137.827026 
L 307.584 126.023682 
L 309.439169 126.78666 
L 311.294338 126.67745 
L 313.149506 127.736463 
L 315.004675 131.873112 
L 320.570182 118.157004 
L 322.425351 105.731762 
L 324.280519 130.243233 
L 326.135688 121.440013 
L 327.990857 117.721773 
L 333.556364 115.989731 
L 335.411532 106.825006 
L 337.266701 105.637834 
L 339.12187 116.971513 
L 340.977039 114.154261 
L 348.397714 134.242111 
L 350.252883 138.361334 
L 352.108052 149.633576 
L 353.963221 170.440986 
L 359.528727 168.941697 
L 361.383896 179.438394 
L 363.239065 179.177401 
L 365.094234 184.85754 
L 366.949403 162.22394 
L 372.514909 143.112128 
L 374.370078 134.51059 
L 376.225247 119.035954 
L 378.080416 181.280174 
L 379.935584 180.829427 
L 385.501091 195.685958 
L 387.35626 198.17681 
L 389.211429 178.229174 
L 391.066597 194.349044 
L 392.921766 213.888392 
L 398.487273 219.357691 
" style="fill:none;stroke:#ff8040;stroke-linecap:square;stroke-opacity:0.9;stroke-width:2;"/>
   </g>
   <g id="line2d_15">
    <path clip-path="url(#p9640f490c0)" d="M 73.832727 191.93364 
L 75.687896 189.794647 
L 77.543065 188.005967 
L 79.398234 195.082961 
L 81.253403 184.790118 
L 86.818909 187.146707 
L 88.674078 186.058787 
L 90.529247 184.932314 
L 92.384416 190.669929 
L 94.239584 190.5491 
L 101.66026 189.699 
L 103.515429 192.524395 
L 105.370597 193.73893 
L 107.225766 200.083994 
L 112.791273 193.21995 
L 114.646442 199.312785 
L 116.50161 195.422837 
L 118.356779 198.724282 
L 120.211948 213.585212 
L 125.777455 228.104102 
L 127.632623 227.835594 
L 129.487792 227.813089 
L 131.342961 219.064324 
L 133.19813 212.020032 
L 138.763636 212.286895 
L 140.618805 226.892275 
L 142.473974 224.630601 
L 144.329143 235.816512 
L 146.184312 224.491853 
L 151.749818 228.427241 
L 153.604987 217.064496 
L 155.460156 214.731482 
L 157.315325 210.948564 
L 159.170494 207.664218 
L 164.736 212.135678 
L 166.591169 220.186447 
L 168.446338 224.178524 
L 170.301506 202.725643 
L 172.156675 198.439002 
L 177.722182 198.519136 
L 179.577351 191.75143 
L 181.432519 189.114606 
L 183.287688 207.523573 
L 185.142857 217.49693 
L 190.708364 220.102604 
L 192.563532 224.847482 
L 194.418701 228.611642 
L 196.27387 214.452515 
L 198.129039 218.507673 
L 203.694545 216.349745 
L 205.549714 213.120327 
L 207.404883 206.670517 
L 209.260052 208.300971 
L 211.115221 206.133751 
L 216.680727 205.6053 
L 218.535896 208.848598 
L 220.391065 213.195611 
L 222.246234 211.886142 
L 224.101403 208.545044 
L 229.666909 204.574798 
L 231.522078 206.090765 
L 233.377247 207.816983 
L 235.232416 207.997487 
L 237.087584 207.989328 
L 242.653091 208.517552 
L 244.50826 201.770371 
L 246.363429 200.41112 
L 250.073766 225.220781 
L 255.639273 213.016336 
L 257.494442 238.664028 
L 259.34961 250.115887 
L 261.204779 240.325807 
L 263.059948 244.387179 
L 268.625455 233.081682 
L 270.480623 218.270217 
L 272.335792 212.398566 
L 274.190961 212.612893 
L 276.04613 209.499117 
L 281.611636 221.367519 
L 283.466805 216.720066 
L 285.321974 212.542337 
L 287.177143 209.529301 
L 289.032312 221.439261 
L 294.597818 230.439555 
L 296.452987 216.097994 
L 298.308156 213.376451 
L 300.163325 205.882949 
L 307.584 191.515345 
L 309.439169 190.99941 
L 311.294338 188.553451 
L 313.149506 189.508507 
L 315.004675 197.540111 
L 320.570182 186.282595 
L 322.425351 179.21444 
L 324.280519 198.357443 
L 326.135688 194.068585 
L 327.990857 194.245105 
L 333.556364 197.683455 
L 335.411532 193.235471 
L 337.266701 192.040155 
L 339.12187 198.548437 
L 340.977039 198.74683 
L 348.397714 216.331218 
L 350.252883 225.717775 
L 352.108052 234.198097 
L 353.963221 252.133219 
L 359.528727 254.603135 
L 361.383896 249.570725 
L 363.239065 251.527088 
L 365.094234 257.317585 
L 366.949403 233.235233 
L 372.514909 220.887224 
L 374.370078 210.654848 
L 376.225247 191.831695 
L 378.080416 241.107882 
L 379.935584 235.920077 
L 385.501091 241.210326 
L 387.35626 234.005992 
L 389.211429 226.277988 
L 391.066597 240.881909 
L 392.921766 259.341028 
L 398.487273 265.797818 
" style="fill:none;stroke:#0d0d0d;stroke-linecap:square;stroke-opacity:0.25;stroke-width:2;"/>
   </g>
   <g id="line2d_16">
    <path clip-path="url(#p9640f490c0)" d="M 73.832727 190.193605 
L 75.687896 183.178145 
L 77.543065 176.80726 
L 79.398234 180.752767 
L 81.253403 170.45456 
L 86.818909 163.381068 
L 88.674078 160.739489 
L 90.529247 160.370514 
L 92.384416 161.731813 
L 94.239584 160.323506 
L 101.66026 159.765508 
L 103.515429 162.590233 
L 105.370597 163.990367 
L 107.225766 171.267515 
L 112.791273 165.760381 
L 114.646442 173.425981 
L 116.50161 170.337776 
L 118.356779 172.958792 
L 120.211948 181.283179 
L 125.777455 194.019747 
L 127.632623 194.606334 
L 129.487792 183.810989 
L 131.342961 171.481103 
L 133.19813 164.899444 
L 138.763636 151.192417 
L 140.618805 167.364853 
L 142.473974 166.073592 
L 144.329143 173.127621 
L 146.184312 155.576135 
L 151.749818 158.940957 
L 153.604987 148.005071 
L 155.460156 145.81618 
L 157.315325 148.710225 
L 159.170494 143.07804 
L 164.736 146.416138 
L 166.591169 153.57822 
L 168.446338 155.160357 
L 170.301506 131.674435 
L 172.156675 124.90757 
L 177.722182 125.155822 
L 179.577351 118.14891 
L 181.432519 111.889181 
L 183.287688 111.339118 
L 185.142857 114.344318 
L 190.708364 120.968704 
L 192.563532 133.511233 
L 194.418701 129.382477 
L 196.27387 119.301245 
L 198.129039 116.612671 
L 203.694545 114.955713 
L 205.549714 110.707054 
L 207.404883 104.911213 
L 209.260052 106.326422 
L 211.115221 108.51679 
L 216.680727 107.436993 
L 218.535896 114.613665 
L 220.391065 120.378542 
L 222.246234 120.574596 
L 224.101403 110.524453 
L 229.666909 105.073005 
L 231.522078 108.512222 
L 233.377247 109.878858 
L 235.232416 112.784482 
L 237.087584 111.711921 
L 242.653091 106.497331 
L 244.50826 101.561557 
L 246.363429 98.71652 
L 250.073766 125.554202 
L 255.639273 116.030943 
L 257.494442 132.07079 
L 259.34961 145.074945 
L 261.204779 132.735745 
L 263.059948 137.138877 
L 268.625455 127.542294 
L 270.480623 112.369573 
L 272.335792 104.155179 
L 274.190961 103.377908 
L 276.04613 96.222869 
L 281.611636 105.095975 
L 283.466805 104.070063 
L 285.321974 99.071558 
L 287.177143 90.828244 
L 289.032312 105.495249 
L 294.597818 117.000158 
L 296.452987 100.394462 
L 298.308156 94.362393 
L 300.163325 88.089922 
L 307.584 75.000828 
L 309.439169 74.439392 
L 311.294338 74.232519 
L 313.149506 76.168941 
L 315.004675 80.940709 
L 320.570182 64.072847 
L 322.425351 52.154182 
L 324.280519 73.572389 
L 326.135688 68.928019 
L 327.990857 64.769511 
L 333.556364 66.076537 
L 335.411532 58.951274 
L 337.266701 59.352407 
L 339.12187 66.35451 
L 340.977039 67.536673 
L 348.397714 90.831623 
L 350.252883 98.215577 
L 352.108052 107.629817 
L 353.963221 122.907219 
L 359.528727 120.714992 
L 361.383896 117.91602 
L 363.239065 119.513001 
L 365.094234 125.096295 
L 366.949403 104.573568 
L 372.514909 94.594165 
L 374.370078 82.243542 
L 376.225247 70.314416 
L 378.080416 101.347646 
L 379.935584 91.366575 
L 385.501091 104.496414 
L 387.35626 101.95323 
L 389.211429 92.960292 
L 391.066597 108.368043 
L 392.921766 128.401001 
L 398.487273 132.160206 
" style="fill:none;stroke:#0d0d0d;stroke-linecap:square;stroke-opacity:0.25;stroke-width:2;"/>
   </g>
   <g id="patch_3">
    <path d="M 57.6 276.48 
L 57.6 41.472 
" style="fill:none;stroke:#000000;stroke-linecap:square;stroke-linejoin:miter;stroke-width:0.8;"/>
   </g>
   <g id="patch_4">
    <path d="M 414.72 276.48 
L 414.72 41.472 
" style="fill:none;stroke:#000000;stroke-linecap:square;stroke-linejoin:miter;stroke-width:0.8;"/>
   </g>
   <g id="patch_5">
    <path d="M 57.6 276.48 
L 414.72 276.48 
" style="fill:none;stroke:#000000;stroke-linecap:square;stroke-linejoin:miter;stroke-width:0.8;"/>
   </g>
   <g id="patch_6">
    <path d="M 57.6 41.472 
L 414.72 41.472 
" style="fill:none;stroke:#000000;stroke-linecap:square;stroke-linejoin:miter;stroke-width:0.8;"/>
   </g>
   <g id="text_13">
    <!-- TESTFUNDS1550 -->
    <g transform="translate(185.200312 22.034625)scale(0.12 -0.12)">
     <defs>
      <path d="M -19 4666 
L 3928 4666 
L 3928 4134 
L 2272 4134 
L 2272 0 
L 1638 0 
L 1638 4134 
L -19 4134 
L -19 4666 
z
" id="DejaVuSans-54" transform="scale(0.015625)"/>
      <path d="M 628 4666 
L 3578 4666 
L 3578 4134 
L 1259 4134 
L 1259 2753 
L 3481 2753 
L 3481 2222 
L 1259 2222 
L 1259 531 
L 3634 531 
L 3634 0 
L 628 0 
L 628 4666 
z
" id="DejaVuSans-45" transform="scale(0.015625)"/>
      <path d="M 3425 4513 
L 3425 3897 
Q 3066 4069 2747 4153 
Q 2428 4238 2131 4238 
Q 1616 4238 1336 4038 
Q 1056 3838 1056 3469 
Q 1056 3159 1242 3001 
Q 1428 2844 1947 2747 
L 2328 2669 
Q 3034 2534 3370 2195 
Q 3706 1856 3706 1288 
Q 3706 609 3251 259 
Q 2797 -91 1919 -91 
Q 1588 -91 1214 -16 
Q 841 59 441 206 
L 441 856 
Q 825 641 1194 531 
Q 1563 422 1919 422 
Q 2459 422 2753 634 
Q 3047 847 3047 1241 
Q 3047 1584 2836 1778 
Q 2625 1972 2144 2069 
L 1759 2144 
Q 1053 2284 737 2584 
Q 422 2884 422 3419 
Q 422 4038 858 4394 
Q 1294 4750 2059 4750 
Q 2388 4750 2728 4690 
Q 3069 4631 3425 4513 
z
" id="DejaVuSans-53" transform="scale(0.015625)"/>
      <path d="M 628 4666 
L 3309 4666 
L 3309 4134 
L 1259 4134 
L 1259 2759 
L 3109 2759 
L 3109 2228 
L 1259 2228 
L 1259 0 
L 628 0 
L 628 4666 
z
" id="DejaVuSans-46" transform="scale(0.015625)"/>
      <path d="M 556 4666 
L 1191 4666 
L 1191 1831 
Q 1191 1081 1462 751 
Q 1734 422 2344 422 
Q 2950 422 3222 751 
Q 3494 1081 3494 1831 
L 3494 4666 
L 4128 4666 
L 4128 1753 
Q 4128 841 3676 375 
Q 3225 -91 2344 -91 
Q 1459 -91 1007 375 
Q 556 841 556 1753 
L 556 4666 
z
" id="DejaVuSans-55" transform="scale(0.015625)"/>
      <path d="M 628 4666 
L 1478 4666 
L 3547 763 
L 3547 4666 
L 4159 4666 
L 4159 0 
L 3309 0 
L 1241 3903 
L 1241 0 
L 628 0 
L 628 4666 
z
" id="DejaVuSans-4e" transform="scale(0.015625)"/>
      <path d="M 1259 4147 
L 1259 519 
L 2022 519 
Q 2988 519 3436 956 
Q 3884 1394 3884 2338 
Q 3884 3275 3436 3711 
Q 2988 4147 2022 4147 
L 1259 4147 
z
M 628 4666 
L 1925 4666 
Q 3281 4666 3915 4102 
Q 4550 3538 4550 2338 
Q 4550 1131 3912 565 
Q 3275 0 1925 0 
L 628 0 
L 628 4666 
z
" id="DejaVuSans-44" transform="scale(0.015625)"/>
     </defs>
     <use xlink:href="#DejaVuSans-54"/>
     <use x="61.083984" xlink:href="#DejaVuSans-45"/>
     <use x="124.267578" xlink:href="#DejaVuSans-53"/>
     <use x="187.744141" xlink:href="#DejaVuSans-54"/>
     <use x="248.828125" xlink:href="#DejaVuSans-46"/>
     <use x="306.347656" xlink:href="#DejaVuSans-55"/>
     <use x="379.541016" xlink:href="#DejaVuSans-4e"/>
     <use x="454.345703" xlink:href="#DejaVuSans-44"/>
     <use x="531.347656" xlink:href="#DejaVuSans-53"/>
     <use x="594.824219" xlink:href="#DejaVuSans-31"/>
     <use x="658.447266" xlink:href="#DejaVuSans-35"/>
     <use x="722.070312" xlink:href="#DejaVuSans-35"/>
     <use x="785.693359" xlink:href="#DejaVuSans-30"/>
    </g>
    <!-- daily_report -->
    <g transform="translate(200.466563 35.472)scale(0.12 -0.12)">
     <defs>
      <path d="M 603 3500 
L 1178 3500 
L 1178 0 
L 603 0 
L 603 3500 
z
M 603 4863 
L 1178 4863 
L 1178 4134 
L 603 4134 
L 603 4863 
z
" id="DejaVuSans-69" transform="scale(0.015625)"/>
      <path d="M 603 4863 
L 1178 4863 
L 1178 0 
L 603 0 
L 603 4863 
z
" id="DejaVuSans-6c" transform="scale(0.015625)"/>
      <path d="M 2059 -325 
Q 1816 -950 1584 -1140 
Q 1353 -1331 966 -1331 
L 506 -1331 
L 506 -850 
L 844 -850 
Q 1081 -850 1212 -737 
Q 1344 -625 1503 -206 
L 1606 56 
L 191 3500 
L 800 3500 
L 1894 763 
L 2988 3500 
L 3597 3500 
L 2059 -325 
z
" id="DejaVuSans-79" transform="scale(0.015625)"/>
      <path d="M 3263 -1063 
L 3263 -1509 
L -63 -1509 
L -63 -1063 
L 3263 -1063 
z
" id="DejaVuSans-5f" transform="scale(0.015625)"/>
      <path d="M 2631 2963 
Q 2534 3019 2420 3045 
Q 2306 3072 2169 3072 
Q 1681 3072 1420 2755 
Q 1159 2438 1159 1844 
L 1159 0 
L 581 0 
L 581 3500 
L 1159 3500 
L 1159 2956 
Q 1341 3275 1631 3429 
Q 1922 3584 2338 3584 
Q 2397 3584 2469 3576 
Q 2541 3569 2628 3553 
L 2631 2963 
z
" id="DejaVuSans-72" transform="scale(0.015625)"/>
      <path d="M 1159 525 
L 1159 -1331 
L 581 -1331 
L 581 3500 
L 1159 3500 
L 1159 2969 
Q 1341 3281 1617 3432 
Q 1894 3584 2278 3584 
Q 2916 3584 3314 3078 
Q 3713 2572 3713 1747 
Q 3713 922 3314 415 
Q 2916 -91 2278 -91 
Q 1894 -91 1617 61 
Q 1341 213 1159 525 
z
M 3116 1747 
Q 3116 2381 2855 2742 
Q 2594 3103 2138 3103 
Q 1681 3103 1420 2742 
Q 1159 2381 1159 1747 
Q 1159 1113 1420 752 
Q 1681 391 2138 391 
Q 2594 391 2855 752 
Q 3116 1113 3116 1747 
z
" id="DejaVuSans-70" transform="scale(0.015625)"/>
      <path d="M 1959 3097 
Q 1497 3097 1228 2736 
Q 959 2375 959 1747 
Q 959 1119 1226 758 
Q 1494 397 1959 397 
Q 2419 397 2687 759 
Q 2956 1122 2956 1747 
Q 2956 2369 2687 2733 
Q 2419 3097 1959 3097 
z
M 1959 3584 
Q 2709 3584 3137 3096 
Q 3566 2609 3566 1747 
Q 3566 888 3137 398 
Q 2709 -91 1959 -91 
Q 1206 -91 779 398 
Q 353 888 353 1747 
Q 353 2609 779 3096 
Q 1206 3584 1959 3584 
z
" id="DejaVuSans-6f" transform="scale(0.015625)"/>
     </defs>
     <use xlink:href="#DejaVuSans-64"/>
     <use x="63.476562" xlink:href="#DejaVuSans-61"/>
     <use x="124.755859" xlink:href="#DejaVuSans-69"/>
     <use x="152.539062" xlink:href="#DejaVuSans-6c"/>
     <use x="180.322266" xlink:href="#DejaVuSans-79"/>
     <use x="239.501953" xlink:href="#DejaVuSans-5f"/>
     <use x="289.501953" xlink:href="#DejaVuSans-72"/>
     <use x="328.365234" xlink:href="#DejaVuSans-65"/>
     <use x="389.888672" xlink:href="#DejaVuSans-70"/>
     <use x="453.365234" xlink:href="#DejaVuSans-6f"/>
     <use x="514.546875" xlink:href="#DejaVuSans-72"/>
     <use x="555.660156" xlink:href="#DejaVuSans-74"/>
    </g>
   </g>
   <g id="legend_1">
    <g id="patch_7">
     <path d="M 64.6 122.862625 
L 155.792188 122.862625 
Q 157.792188 122.862625 157.792188 120.862625 
L 157.792188 48.472 
Q 157.792188 46.472 155.792188 46.472 
L 64.6 46.472 
Q 62.6 46.472 62.6 48.472 
L 62.6 120.862625 
Q 62.6 122.862625 64.6 122.862625 
z
" style="fill:#ffffff;opacity:0.8;stroke:#cccccc;stroke-linejoin:miter;"/>
    </g>
    <g id="line2d_17">
     <path d="M 66.6 54.570437 
L 86.6 54.570437 
" style="fill:none;stroke:#0000ff;stroke-linecap:square;stroke-opacity:0.9;stroke-width:2;"/>
    </g>
    <g id="line2d_18"/>
    <g id="text_14">
     <!-- alpaca -->
     <g transform="translate(94.6 58.070437)scale(0.1 -0.1)">
      <defs>
       <path d="M 3122 3366 
L 3122 2828 
Q 2878 2963 2633 3030 
Q 2388 3097 2138 3097 
Q 1578 3097 1268 2742 
Q 959 2388 959 1747 
Q 959 1106 1268 751 
Q 1578 397 2138 397 
Q 2388 397 2633 464 
Q 2878 531 3122 666 
L 3122 134 
Q 2881 22 2623 -34 
Q 2366 -91 2075 -91 
Q 1284 -91 818 406 
Q 353 903 353 1747 
Q 353 2603 823 3093 
Q 1294 3584 2113 3584 
Q 2378 3584 2631 3529 
Q 2884 3475 3122 3366 
z
" id="DejaVuSans-63" transform="scale(0.015625)"/>
      </defs>
      <use xlink:href="#DejaVuSans-61"/>
      <use x="61.279297" xlink:href="#DejaVuSans-6c"/>
      <use x="89.0625" xlink:href="#DejaVuSans-70"/>
      <use x="152.539062" xlink:href="#DejaVuSans-61"/>
      <use x="213.818359" xlink:href="#DejaVuSans-63"/>
      <use x="268.798828" xlink:href="#DejaVuSans-61"/>
     </g>
    </g>
    <g id="line2d_19">
     <path d="M 66.6 69.248562 
L 86.6 69.248562 
" style="fill:none;stroke:#ff0000;stroke-linecap:square;stroke-opacity:0.9;stroke-width:2;"/>
    </g>
    <g id="line2d_20"/>
    <g id="text_15">
     <!-- mattress -->
     <g transform="translate(94.6 72.748562)scale(0.1 -0.1)">
      <defs>
       <path d="M 3328 2828 
Q 3544 3216 3844 3400 
Q 4144 3584 4550 3584 
Q 5097 3584 5394 3201 
Q 5691 2819 5691 2113 
L 5691 0 
L 5113 0 
L 5113 2094 
Q 5113 2597 4934 2840 
Q 4756 3084 4391 3084 
Q 3944 3084 3684 2787 
Q 3425 2491 3425 1978 
L 3425 0 
L 2847 0 
L 2847 2094 
Q 2847 2600 2669 2842 
Q 2491 3084 2119 3084 
Q 1678 3084 1418 2786 
Q 1159 2488 1159 1978 
L 1159 0 
L 581 0 
L 581 3500 
L 1159 3500 
L 1159 2956 
Q 1356 3278 1631 3431 
Q 1906 3584 2284 3584 
Q 2666 3584 2933 3390 
Q 3200 3197 3328 2828 
z
" id="DejaVuSans-6d" transform="scale(0.015625)"/>
       <path d="M 2834 3397 
L 2834 2853 
Q 2591 2978 2328 3040 
Q 2066 3103 1784 3103 
Q 1356 3103 1142 2972 
Q 928 2841 928 2578 
Q 928 2378 1081 2264 
Q 1234 2150 1697 2047 
L 1894 2003 
Q 2506 1872 2764 1633 
Q 3022 1394 3022 966 
Q 3022 478 2636 193 
Q 2250 -91 1575 -91 
Q 1294 -91 989 -36 
Q 684 19 347 128 
L 347 722 
Q 666 556 975 473 
Q 1284 391 1588 391 
Q 1994 391 2212 530 
Q 2431 669 2431 922 
Q 2431 1156 2273 1281 
Q 2116 1406 1581 1522 
L 1381 1569 
Q 847 1681 609 1914 
Q 372 2147 372 2553 
Q 372 3047 722 3315 
Q 1072 3584 1716 3584 
Q 2034 3584 2315 3537 
Q 2597 3491 2834 3397 
z
" id="DejaVuSans-73" transform="scale(0.015625)"/>
      </defs>
      <use xlink:href="#DejaVuSans-6d"/>
      <use x="97.412109" xlink:href="#DejaVuSans-61"/>
      <use x="158.691406" xlink:href="#DejaVuSans-74"/>
      <use x="197.900391" xlink:href="#DejaVuSans-74"/>
      <use x="237.109375" xlink:href="#DejaVuSans-72"/>
      <use x="275.972656" xlink:href="#DejaVuSans-65"/>
      <use x="337.496094" xlink:href="#DejaVuSans-73"/>
      <use x="389.595703" xlink:href="#DejaVuSans-73"/>
     </g>
    </g>
    <g id="line2d_21">
     <path d="M 66.6 83.926687 
L 86.6 83.926687 
" style="fill:none;stroke:#ff8040;stroke-linecap:square;stroke-opacity:0.9;stroke-width:2;"/>
    </g>
    <g id="line2d_22"/>
    <g id="text_16">
     <!-- trader-0850 -->
     <g transform="translate(94.6 87.426687)scale(0.1 -0.1)">
      <defs>
       <path d="M 2034 2216 
Q 1584 2216 1326 1975 
Q 1069 1734 1069 1313 
Q 1069 891 1326 650 
Q 1584 409 2034 409 
Q 2484 409 2743 651 
Q 3003 894 3003 1313 
Q 3003 1734 2745 1975 
Q 2488 2216 2034 2216 
z
M 1403 2484 
Q 997 2584 770 2862 
Q 544 3141 544 3541 
Q 544 4100 942 4425 
Q 1341 4750 2034 4750 
Q 2731 4750 3128 4425 
Q 3525 4100 3525 3541 
Q 3525 3141 3298 2862 
Q 3072 2584 2669 2484 
Q 3125 2378 3379 2068 
Q 3634 1759 3634 1313 
Q 3634 634 3220 271 
Q 2806 -91 2034 -91 
Q 1263 -91 848 271 
Q 434 634 434 1313 
Q 434 1759 690 2068 
Q 947 2378 1403 2484 
z
M 1172 3481 
Q 1172 3119 1398 2916 
Q 1625 2713 2034 2713 
Q 2441 2713 2670 2916 
Q 2900 3119 2900 3481 
Q 2900 3844 2670 4047 
Q 2441 4250 2034 4250 
Q 1625 4250 1398 4047 
Q 1172 3844 1172 3481 
z
" id="DejaVuSans-38" transform="scale(0.015625)"/>
      </defs>
      <use xlink:href="#DejaVuSans-74"/>
      <use x="39.208984" xlink:href="#DejaVuSans-72"/>
      <use x="80.322266" xlink:href="#DejaVuSans-61"/>
      <use x="141.601562" xlink:href="#DejaVuSans-64"/>
      <use x="205.078125" xlink:href="#DejaVuSans-65"/>
      <use x="266.601562" xlink:href="#DejaVuSans-72"/>
      <use x="301.339844" xlink:href="#DejaVuSans-2d"/>
      <use x="337.423828" xlink:href="#DejaVuSans-30"/>
      <use x="401.046875" xlink:href="#DejaVuSans-38"/>
      <use x="464.669922" xlink:href="#DejaVuSans-35"/>
      <use x="528.292969" xlink:href="#DejaVuSans-30"/>
     </g>
    </g>
    <g id="line2d_23">
     <path d="M 66.6 98.604812 
L 86.6 98.604812 
" style="fill:none;stroke:#0d0d0d;stroke-linecap:square;stroke-opacity:0.25;stroke-width:2;"/>
    </g>
    <g id="line2d_24"/>
    <g id="text_17">
     <!-- rando-min -->
     <g transform="translate(94.6 102.104812)scale(0.1 -0.1)">
      <defs>
       <path d="M 3513 2113 
L 3513 0 
L 2938 0 
L 2938 2094 
Q 2938 2591 2744 2837 
Q 2550 3084 2163 3084 
Q 1697 3084 1428 2787 
Q 1159 2491 1159 1978 
L 1159 0 
L 581 0 
L 581 3500 
L 1159 3500 
L 1159 2956 
Q 1366 3272 1645 3428 
Q 1925 3584 2291 3584 
Q 2894 3584 3203 3211 
Q 3513 2838 3513 2113 
z
" id="DejaVuSans-6e" transform="scale(0.015625)"/>
      </defs>
      <use xlink:href="#DejaVuSans-72"/>
      <use x="41.113281" xlink:href="#DejaVuSans-61"/>
      <use x="102.392578" xlink:href="#DejaVuSans-6e"/>
      <use x="165.771484" xlink:href="#DejaVuSans-64"/>
      <use x="229.248047" xlink:href="#DejaVuSans-6f"/>
      <use x="292.304688" xlink:href="#DejaVuSans-2d"/>
      <use x="328.388672" xlink:href="#DejaVuSans-6d"/>
      <use x="425.800781" xlink:href="#DejaVuSans-69"/>
      <use x="453.583984" xlink:href="#DejaVuSans-6e"/>
     </g>
    </g>
    <g id="line2d_25">
     <path d="M 66.6 113.282937 
L 86.6 113.282937 
" style="fill:none;stroke:#0d0d0d;stroke-linecap:square;stroke-opacity:0.25;stroke-width:2;"/>
    </g>
    <g id="line2d_26"/>
    <g id="text_18">
     <!-- rando-max -->
     <g transform="translate(94.6 116.782937)scale(0.1 -0.1)">
      <defs>
       <path d="M 3513 3500 
L 2247 1797 
L 3578 0 
L 2900 0 
L 1881 1375 
L 863 0 
L 184 0 
L 1544 1831 
L 300 3500 
L 978 3500 
L 1906 2253 
L 2834 3500 
L 3513 3500 
z
" id="DejaVuSans-78" transform="scale(0.015625)"/>
      </defs>
      <use xlink:href="#DejaVuSans-72"/>
      <use x="41.113281" xlink:href="#DejaVuSans-61"/>
      <use x="102.392578" xlink:href="#DejaVuSans-6e"/>
      <use x="165.771484" xlink:href="#DejaVuSans-64"/>
      <use x="229.248047" xlink:href="#DejaVuSans-6f"/>
      <use x="292.304688" xlink:href="#DejaVuSans-2d"/>
      <use x="328.388672" xlink:href="#DejaVuSans-6d"/>
      <use x="425.800781" xlink:href="#DejaVuSans-61"/>
      <use x="487.080078" xlink:href="#DejaVuSans-78"/>
     </g>
    </g>
   </g>
  </g>
 </g>
 <defs>
  <clipPath id="p9640f490c0">
   <rect height="235.008" width="357.12" x="57.6" y="41.472"/>
  </clipPath>
 </defs>
</svg>
