<?xml version="1.0" encoding="utf-8" standalone="no"?>
<!DOCTYPE svg PUBLIC "-//W3C//DTD SVG 1.1//EN"
  "http://www.w3.org/Graphics/SVG/1.1/DTD/svg11.dtd">
<svg height="345.6pt" version="1.1" viewBox="0 0 460.8 345.6" width="460.8pt" xmlns="http://www.w3.org/2000/svg" xmlns:xlink="http://www.w3.org/1999/xlink">
 <metadata>
  <rdf:RDF xmlns:cc="http://creativecommons.org/ns#" xmlns:dc="http://purl.org/dc/elements/1.1/" xmlns:rdf="http://www.w3.org/1999/02/22-rdf-syntax-ns#">
   <cc:Work>
    <dc:type rdf:resource="http://purl.org/dc/dcmitype/StillImage"/>
    <dc:date>2022-02-15T01:01:45.981351</dc:date>
    <dc:format>image/svg+xml</dc:format>
    <dc:creator>
     <cc:Agent>
      <dc:title>Matplotlib v3.4.3, https://matplotlib.org/</dc:title>
     </cc:Agent>
    </dc:creator>
   </cc:Work>
  </rdf:RDF>
 </metadata>
 <defs>
  <style type="text/css">*{stroke-linecap:butt;stroke-linejoin:round;}</style>
 </defs>
 <g id="figure_1">
  <g id="patch_1">
   <path d="M 0 345.6 
L 460.8 345.6 
L 460.8 0 
L 0 0 
z
" style="fill:#ffffff;"/>
  </g>
  <g id="axes_1">
   <g id="patch_2">
    <path d="M 57.6 276.48 
L 414.72 276.48 
L 414.72 41.472 
L 57.6 41.472 
z
" style="fill:#ffffff;"/>
   </g>
   <g id="matplotlib.axis_1">
    <g id="xtick_1">
     <g id="line2d_1">
      <defs>
       <path d="M 0 0 
L 0 3.5 
" id="mf89358e247" style="stroke:#000000;stroke-width:0.8;"/>
      </defs>
      <g>
       <use style="stroke:#000000;stroke-width:0.8;" x="90.529247" xlink:href="#mf89358e247" y="276.48"/>
      </g>
     </g>
     <g id="text_1">
      <!-- 2021-09 -->
      <g transform="translate(53.304426 310.951846)rotate(-30)scale(0.1 -0.1)">
       <defs>
        <path d="M 1228 531 
L 3431 531 
L 3431 0 
L 469 0 
L 469 531 
Q 828 903 1448 1529 
Q 2069 2156 2228 2338 
Q 2531 2678 2651 2914 
Q 2772 3150 2772 3378 
Q 2772 3750 2511 3984 
Q 2250 4219 1831 4219 
Q 1534 4219 1204 4116 
Q 875 4013 500 3803 
L 500 4441 
Q 881 4594 1212 4672 
Q 1544 4750 1819 4750 
Q 2544 4750 2975 4387 
Q 3406 4025 3406 3419 
Q 3406 3131 3298 2873 
Q 3191 2616 2906 2266 
Q 2828 2175 2409 1742 
Q 1991 1309 1228 531 
z
" id="DejaVuSans-32" transform="scale(0.015625)"/>
        <path d="M 2034 4250 
Q 1547 4250 1301 3770 
Q 1056 3291 1056 2328 
Q 1056 1369 1301 889 
Q 1547 409 2034 409 
Q 2525 409 2770 889 
Q 3016 1369 3016 2328 
Q 3016 3291 2770 3770 
Q 2525 4250 2034 4250 
z
M 2034 4750 
Q 2819 4750 3233 4129 
Q 3647 3509 3647 2328 
Q 3647 1150 3233 529 
Q 2819 -91 2034 -91 
Q 1250 -91 836 529 
Q 422 1150 422 2328 
Q 422 3509 836 4129 
Q 1250 4750 2034 4750 
z
" id="DejaVuSans-30" transform="scale(0.015625)"/>
        <path d="M 794 531 
L 1825 531 
L 1825 4091 
L 703 3866 
L 703 4441 
L 1819 4666 
L 2450 4666 
L 2450 531 
L 3481 531 
L 3481 0 
L 794 0 
L 794 531 
z
" id="DejaVuSans-31" transform="scale(0.015625)"/>
        <path d="M 313 2009 
L 1997 2009 
L 1997 1497 
L 313 1497 
L 313 2009 
z
" id="DejaVuSans-2d" transform="scale(0.015625)"/>
        <path d="M 703 97 
L 703 672 
Q 941 559 1184 500 
Q 1428 441 1663 441 
Q 2288 441 2617 861 
Q 2947 1281 2994 2138 
Q 2813 1869 2534 1725 
Q 2256 1581 1919 1581 
Q 1219 1581 811 2004 
Q 403 2428 403 3163 
Q 403 3881 828 4315 
Q 1253 4750 1959 4750 
Q 2769 4750 3195 4129 
Q 3622 3509 3622 2328 
Q 3622 1225 3098 567 
Q 2575 -91 1691 -91 
Q 1453 -91 1209 -44 
Q 966 3 703 97 
z
M 1959 2075 
Q 2384 2075 2632 2365 
Q 2881 2656 2881 3163 
Q 2881 3666 2632 3958 
Q 2384 4250 1959 4250 
Q 1534 4250 1286 3958 
Q 1038 3666 1038 3163 
Q 1038 2656 1286 2365 
Q 1534 2075 1959 2075 
z
" id="DejaVuSans-39" transform="scale(0.015625)"/>
       </defs>
       <use xlink:href="#DejaVuSans-32"/>
       <use x="63.623047" xlink:href="#DejaVuSans-30"/>
       <use x="127.246094" xlink:href="#DejaVuSans-32"/>
       <use x="190.869141" xlink:href="#DejaVuSans-31"/>
       <use x="254.492188" xlink:href="#DejaVuSans-2d"/>
       <use x="290.576172" xlink:href="#DejaVuSans-30"/>
       <use x="354.199219" xlink:href="#DejaVuSans-39"/>
      </g>
     </g>
    </g>
    <g id="xtick_2">
     <g id="line2d_2">
      <g>
       <use style="stroke:#000000;stroke-width:0.8;" x="146.184312" xlink:href="#mf89358e247" y="276.48"/>
      </g>
     </g>
     <g id="text_2">
      <!-- 2021-10 -->
      <g transform="translate(108.959491 310.951846)rotate(-30)scale(0.1 -0.1)">
       <use xlink:href="#DejaVuSans-32"/>
       <use x="63.623047" xlink:href="#DejaVuSans-30"/>
       <use x="127.246094" xlink:href="#DejaVuSans-32"/>
       <use x="190.869141" xlink:href="#DejaVuSans-31"/>
       <use x="254.492188" xlink:href="#DejaVuSans-2d"/>
       <use x="290.576172" xlink:href="#DejaVuSans-31"/>
       <use x="354.199219" xlink:href="#DejaVuSans-30"/>
      </g>
     </g>
    </g>
    <g id="xtick_3">
     <g id="line2d_3">
      <g>
       <use style="stroke:#000000;stroke-width:0.8;" x="203.694545" xlink:href="#mf89358e247" y="276.48"/>
      </g>
     </g>
     <g id="text_3">
      <!-- 2021-11 -->
      <g transform="translate(166.469725 310.951846)rotate(-30)scale(0.1 -0.1)">
       <use xlink:href="#DejaVuSans-32"/>
       <use x="63.623047" xlink:href="#DejaVuSans-30"/>
       <use x="127.246094" xlink:href="#DejaVuSans-32"/>
       <use x="190.869141" xlink:href="#DejaVuSans-31"/>
       <use x="254.492188" xlink:href="#DejaVuSans-2d"/>
       <use x="290.576172" xlink:href="#DejaVuSans-31"/>
       <use x="354.199219" xlink:href="#DejaVuSans-31"/>
      </g>
     </g>
    </g>
    <g id="xtick_4">
     <g id="line2d_4">
      <g>
       <use style="stroke:#000000;stroke-width:0.8;" x="259.34961" xlink:href="#mf89358e247" y="276.48"/>
      </g>
     </g>
     <g id="text_4">
      <!-- 2021-12 -->
      <g transform="translate(222.12479 310.951846)rotate(-30)scale(0.1 -0.1)">
       <use xlink:href="#DejaVuSans-32"/>
       <use x="63.623047" xlink:href="#DejaVuSans-30"/>
       <use x="127.246094" xlink:href="#DejaVuSans-32"/>
       <use x="190.869141" xlink:href="#DejaVuSans-31"/>
       <use x="254.492188" xlink:href="#DejaVuSans-2d"/>
       <use x="290.576172" xlink:href="#DejaVuSans-31"/>
       <use x="354.199219" xlink:href="#DejaVuSans-32"/>
      </g>
     </g>
    </g>
    <g id="xtick_5">
     <g id="line2d_5">
      <g>
       <use style="stroke:#000000;stroke-width:0.8;" x="316.859844" xlink:href="#mf89358e247" y="276.48"/>
      </g>
     </g>
     <g id="text_5">
      <!-- 2022-01 -->
      <g transform="translate(279.635023 310.951846)rotate(-30)scale(0.1 -0.1)">
       <use xlink:href="#DejaVuSans-32"/>
       <use x="63.623047" xlink:href="#DejaVuSans-30"/>
       <use x="127.246094" xlink:href="#DejaVuSans-32"/>
       <use x="190.869141" xlink:href="#DejaVuSans-32"/>
       <use x="254.492188" xlink:href="#DejaVuSans-2d"/>
       <use x="290.576172" xlink:href="#DejaVuSans-30"/>
       <use x="354.199219" xlink:href="#DejaVuSans-31"/>
      </g>
     </g>
    </g>
    <g id="xtick_6">
     <g id="line2d_6">
      <g>
       <use style="stroke:#000000;stroke-width:0.8;" x="374.370078" xlink:href="#mf89358e247" y="276.48"/>
      </g>
     </g>
     <g id="text_6">
      <!-- 2022-02 -->
      <g transform="translate(337.145257 310.951846)rotate(-30)scale(0.1 -0.1)">
       <use xlink:href="#DejaVuSans-32"/>
       <use x="63.623047" xlink:href="#DejaVuSans-30"/>
       <use x="127.246094" xlink:href="#DejaVuSans-32"/>
       <use x="190.869141" xlink:href="#DejaVuSans-32"/>
       <use x="254.492188" xlink:href="#DejaVuSans-2d"/>
       <use x="290.576172" xlink:href="#DejaVuSans-30"/>
       <use x="354.199219" xlink:href="#DejaVuSans-32"/>
      </g>
     </g>
    </g>
    <g id="text_7">
     <!-- date -->
     <g transform="translate(224.885 324.351346)scale(0.1 -0.1)">
      <defs>
       <path d="M 2906 2969 
L 2906 4863 
L 3481 4863 
L 3481 0 
L 2906 0 
L 2906 525 
Q 2725 213 2448 61 
Q 2172 -91 1784 -91 
Q 1150 -91 751 415 
Q 353 922 353 1747 
Q 353 2572 751 3078 
Q 1150 3584 1784 3584 
Q 2172 3584 2448 3432 
Q 2725 3281 2906 2969 
z
M 947 1747 
Q 947 1113 1208 752 
Q 1469 391 1925 391 
Q 2381 391 2643 752 
Q 2906 1113 2906 1747 
Q 2906 2381 2643 2742 
Q 2381 3103 1925 3103 
Q 1469 3103 1208 2742 
Q 947 2381 947 1747 
z
" id="DejaVuSans-64" transform="scale(0.015625)"/>
       <path d="M 2194 1759 
Q 1497 1759 1228 1600 
Q 959 1441 959 1056 
Q 959 750 1161 570 
Q 1363 391 1709 391 
Q 2188 391 2477 730 
Q 2766 1069 2766 1631 
L 2766 1759 
L 2194 1759 
z
M 3341 1997 
L 3341 0 
L 2766 0 
L 2766 531 
Q 2569 213 2275 61 
Q 1981 -91 1556 -91 
Q 1019 -91 701 211 
Q 384 513 384 1019 
Q 384 1609 779 1909 
Q 1175 2209 1959 2209 
L 2766 2209 
L 2766 2266 
Q 2766 2663 2505 2880 
Q 2244 3097 1772 3097 
Q 1472 3097 1187 3025 
Q 903 2953 641 2809 
L 641 3341 
Q 956 3463 1253 3523 
Q 1550 3584 1831 3584 
Q 2591 3584 2966 3190 
Q 3341 2797 3341 1997 
z
" id="DejaVuSans-61" transform="scale(0.015625)"/>
       <path d="M 1172 4494 
L 1172 3500 
L 2356 3500 
L 2356 3053 
L 1172 3053 
L 1172 1153 
Q 1172 725 1289 603 
Q 1406 481 1766 481 
L 2356 481 
L 2356 0 
L 1766 0 
Q 1100 0 847 248 
Q 594 497 594 1153 
L 594 3053 
L 172 3053 
L 172 3500 
L 594 3500 
L 594 4494 
L 1172 4494 
z
" id="DejaVuSans-74" transform="scale(0.015625)"/>
       <path d="M 3597 1894 
L 3597 1613 
L 953 1613 
Q 991 1019 1311 708 
Q 1631 397 2203 397 
Q 2534 397 2845 478 
Q 3156 559 3463 722 
L 3463 178 
Q 3153 47 2828 -22 
Q 2503 -91 2169 -91 
Q 1331 -91 842 396 
Q 353 884 353 1716 
Q 353 2575 817 3079 
Q 1281 3584 2069 3584 
Q 2775 3584 3186 3129 
Q 3597 2675 3597 1894 
z
M 3022 2063 
Q 3016 2534 2758 2815 
Q 2500 3097 2075 3097 
Q 1594 3097 1305 2825 
Q 1016 2553 972 2059 
L 3022 2063 
z
" id="DejaVuSans-65" transform="scale(0.015625)"/>
      </defs>
      <use xlink:href="#DejaVuSans-64"/>
      <use x="63.476562" xlink:href="#DejaVuSans-61"/>
      <use x="124.755859" xlink:href="#DejaVuSans-74"/>
      <use x="163.964844" xlink:href="#DejaVuSans-65"/>
     </g>
    </g>
   </g>
   <g id="matplotlib.axis_2">
    <g id="ytick_1">
     <g id="line2d_7">
      <defs>
       <path d="M 0 0 
L -3.5 0 
" id="m5bffad572a" style="stroke:#000000;stroke-width:0.8;"/>
      </defs>
      <g>
       <use style="stroke:#000000;stroke-width:0.8;" x="57.6" xlink:href="#m5bffad572a" y="259.397572"/>
      </g>
     </g>
     <g id="text_8">
      <!-- 90000 -->
      <g transform="translate(18.7875 263.196791)scale(0.1 -0.1)">
       <use xlink:href="#DejaVuSans-39"/>
       <use x="63.623047" xlink:href="#DejaVuSans-30"/>
       <use x="127.246094" xlink:href="#DejaVuSans-30"/>
       <use x="190.869141" xlink:href="#DejaVuSans-30"/>
       <use x="254.492188" xlink:href="#DejaVuSans-30"/>
      </g>
     </g>
    </g>
    <g id="ytick_2">
     <g id="line2d_8">
      <g>
       <use style="stroke:#000000;stroke-width:0.8;" x="57.6" xlink:href="#m5bffad572a" y="220.258815"/>
      </g>
     </g>
     <g id="text_9">
      <!-- 95000 -->
      <g transform="translate(18.7875 224.058034)scale(0.1 -0.1)">
       <defs>
        <path d="M 691 4666 
L 3169 4666 
L 3169 4134 
L 1269 4134 
L 1269 2991 
Q 1406 3038 1543 3061 
Q 1681 3084 1819 3084 
Q 2600 3084 3056 2656 
Q 3513 2228 3513 1497 
Q 3513 744 3044 326 
Q 2575 -91 1722 -91 
Q 1428 -91 1123 -41 
Q 819 9 494 109 
L 494 744 
Q 775 591 1075 516 
Q 1375 441 1709 441 
Q 2250 441 2565 725 
Q 2881 1009 2881 1497 
Q 2881 1984 2565 2268 
Q 2250 2553 1709 2553 
Q 1456 2553 1204 2497 
Q 953 2441 691 2322 
L 691 4666 
z
" id="DejaVuSans-35" transform="scale(0.015625)"/>
       </defs>
       <use xlink:href="#DejaVuSans-39"/>
       <use x="63.623047" xlink:href="#DejaVuSans-35"/>
       <use x="127.246094" xlink:href="#DejaVuSans-30"/>
       <use x="190.869141" xlink:href="#DejaVuSans-30"/>
       <use x="254.492188" xlink:href="#DejaVuSans-30"/>
      </g>
     </g>
    </g>
    <g id="ytick_3">
     <g id="line2d_9">
      <g>
       <use style="stroke:#000000;stroke-width:0.8;" x="57.6" xlink:href="#m5bffad572a" y="181.120058"/>
      </g>
     </g>
     <g id="text_10">
      <!-- 100000 -->
      <g transform="translate(12.425 184.919276)scale(0.1 -0.1)">
       <use xlink:href="#DejaVuSans-31"/>
       <use x="63.623047" xlink:href="#DejaVuSans-30"/>
       <use x="127.246094" xlink:href="#DejaVuSans-30"/>
       <use x="190.869141" xlink:href="#DejaVuSans-30"/>
       <use x="254.492188" xlink:href="#DejaVuSans-30"/>
       <use x="318.115234" xlink:href="#DejaVuSans-30"/>
      </g>
     </g>
    </g>
    <g id="ytick_4">
     <g id="line2d_10">
      <g>
       <use style="stroke:#000000;stroke-width:0.8;" x="57.6" xlink:href="#m5bffad572a" y="141.9813"/>
      </g>
     </g>
     <g id="text_11">
      <!-- 105000 -->
      <g transform="translate(12.425 145.780519)scale(0.1 -0.1)">
       <use xlink:href="#DejaVuSans-31"/>
       <use x="63.623047" xlink:href="#DejaVuSans-30"/>
       <use x="127.246094" xlink:href="#DejaVuSans-35"/>
       <use x="190.869141" xlink:href="#DejaVuSans-30"/>
       <use x="254.492188" xlink:href="#DejaVuSans-30"/>
       <use x="318.115234" xlink:href="#DejaVuSans-30"/>
      </g>
     </g>
    </g>
    <g id="ytick_5">
     <g id="line2d_11">
      <g>
       <use style="stroke:#000000;stroke-width:0.8;" x="57.6" xlink:href="#m5bffad572a" y="102.842543"/>
      </g>
     </g>
     <g id="text_12">
      <!-- 110000 -->
      <g transform="translate(12.425 106.641762)scale(0.1 -0.1)">
       <use xlink:href="#DejaVuSans-31"/>
       <use x="63.623047" xlink:href="#DejaVuSans-31"/>
       <use x="127.246094" xlink:href="#DejaVuSans-30"/>
       <use x="190.869141" xlink:href="#DejaVuSans-30"/>
       <use x="254.492188" xlink:href="#DejaVuSans-30"/>
       <use x="318.115234" xlink:href="#DejaVuSans-30"/>
      </g>
     </g>
    </g>
    <g id="ytick_6">
     <g id="line2d_12">
      <g>
       <use style="stroke:#000000;stroke-width:0.8;" x="57.6" xlink:href="#m5bffad572a" y="63.703786"/>
      </g>
     </g>
     <g id="text_13">
      <!-- 115000 -->
      <g transform="translate(12.425 67.503005)scale(0.1 -0.1)">
       <use xlink:href="#DejaVuSans-31"/>
       <use x="63.623047" xlink:href="#DejaVuSans-31"/>
       <use x="127.246094" xlink:href="#DejaVuSans-35"/>
       <use x="190.869141" xlink:href="#DejaVuSans-30"/>
       <use x="254.492188" xlink:href="#DejaVuSans-30"/>
       <use x="318.115234" xlink:href="#DejaVuSans-30"/>
      </g>
     </g>
    </g>
   </g>
   <g id="line2d_13">
    <path clip-path="url(#p57d62cb040)" d="M 73.832727 181.120058 
L 75.687896 181.888363 
L 77.543065 178.999803 
L 79.398234 183.09602 
L 81.253403 175.863149 
L 86.818909 170.907417 
L 88.674078 169.246857 
L 90.529247 171.243651 
L 92.384416 170.265284 
L 94.239584 170.538121 
L 101.66026 171.193539 
L 103.515429 173.534181 
L 105.370597 176.149449 
L 107.225766 183.416947 
L 112.791273 176.54619 
L 114.646442 187.656495 
L 116.50161 182.705695 
L 118.356779 183.666203 
L 120.211948 191.473616 
L 125.777455 204.724009 
L 127.632623 206.35902 
L 129.487792 200.869823 
L 131.342961 188.581086 
L 133.19813 181.609475 
L 138.763636 175.666155 
L 140.618805 192.961065 
L 142.473974 189.89493 
L 144.329143 196.313013 
L 146.184312 184.575926 
L 151.749818 199.339286 
L 153.604987 187.13125 
L 155.460156 184.389937 
L 157.315325 183.579652 
L 159.170494 183.087964 
L 164.736 181.813127 
L 166.591169 181.252528 
L 168.446338 191.386279 
L 170.301506 176.178435 
L 172.156675 174.913881 
L 177.722182 168.313312 
L 179.577351 160.311937 
L 181.432519 157.828191 
L 183.287688 171.443052 
L 185.142857 180.849942 
L 190.708364 180.262806 
L 192.563532 187.764319 
L 194.418701 189.162586 
L 196.27387 178.964127 
L 198.129039 189.125392 
L 203.694545 173.40908 
L 205.549714 173.614915 
L 207.404883 165.578579 
L 209.260052 175.516571 
L 211.115221 169.653573 
L 216.680727 168.885145 
L 218.535896 179.168275 
L 220.391065 179.054255 
L 222.246234 185.059587 
L 224.101403 178.8603 
L 229.666909 177.133684 
L 231.522078 177.310368 
L 233.377247 181.030049 
L 235.232416 182.968642 
L 237.087584 183.526648 
L 242.653091 179.221758 
L 244.50826 172.708771 
L 246.363429 173.323728 
L 250.073766 172.834409 
L 255.639273 179.601117 
L 257.494442 195.365721 
L 259.34961 205.542343 
L 261.204779 196.180689 
L 263.059948 200.566313 
L 268.625455 186.321089 
L 270.480623 172.228563 
L 272.335792 166.169207 
L 274.190961 166.122724 
L 276.04613 163.589892 
L 281.611636 170.758562 
L 283.466805 166.708703 
L 285.321974 162.650655 
L 287.177143 159.184941 
L 289.032312 168.519611 
L 294.597818 179.457553 
L 296.452987 161.372488 
L 298.308156 157.701423 
L 300.163325 150.107311 
L 307.584 140.054764 
L 309.439169 140.195166 
L 311.294338 139.885006 
L 313.149506 141.47045 
L 315.004675 144.764409 
L 320.570182 132.725819 
L 322.425351 122.010913 
L 324.280519 144.162034 
L 326.135688 137.74769 
L 327.990857 134.492622 
L 333.556364 133.947737 
L 335.411532 127.274707 
L 337.266701 125.07153 
L 339.12187 135.234471 
L 340.977039 133.307047 
L 348.397714 150.951076 
L 350.252883 155.206856 
L 352.108052 163.89877 
L 353.963221 183.020997 
L 359.528727 181.338627 
L 361.383896 190.351472 
L 363.239065 190.028987 
L 365.094234 195.889813 
L 366.949403 175.70394 
L 372.514909 158.486525 
L 374.370078 150.666128 
L 376.225247 138.931283 
L 378.080416 190.84236 
L 379.935584 189.559852 
L 385.501091 203.027042 
L 387.35626 204.754186 
L 389.211429 187.801821 
L 391.066597 201.163168 
L 392.921766 218.283187 
L 398.487273 223.062721 
" style="fill:none;stroke:#0000ff;stroke-linecap:square;stroke-opacity:0.9;stroke-width:2;"/>
   </g>
   <g id="line2d_14">
    <path clip-path="url(#p57d62cb040)" d="M 73.832727 181.120058 
L 75.687896 176.594874 
L 77.543065 172.845938 
L 79.398234 178.514636 
L 81.253403 168.799059 
L 86.818909 166.166347 
L 88.674078 164.937177 
L 90.529247 164.986767 
L 92.384416 166.060986 
L 94.239584 165.624165 
L 101.66026 164.935234 
L 103.515429 167.437599 
L 105.370597 169.5726 
L 107.225766 177.630387 
L 112.791273 172.075301 
L 114.646442 179.731938 
L 116.50161 175.848291 
L 118.356779 178.018598 
L 120.211948 188.148285 
L 125.777455 200.496184 
L 127.632623 200.45138 
L 129.487792 196.014343 
L 131.342961 186.134028 
L 133.19813 180.342569 
L 138.763636 175.670392 
L 140.618805 190.658283 
L 142.473974 189.637355 
L 144.329143 197.482179 
L 146.184312 185.855556 
L 151.749818 194.844251 
L 153.604987 183.30868 
L 155.460156 181.249875 
L 157.315325 179.117844 
L 159.170494 175.903291 
L 164.736 180.544702 
L 166.591169 186.454328 
L 168.446338 188.868263 
L 170.301506 169.980787 
L 172.156675 164.054523 
L 177.722182 162.38614 
L 179.577351 155.648075 
L 181.432519 150.705041 
L 183.287688 161.240212 
L 185.142857 165.246071 
L 190.708364 167.552425 
L 192.563532 171.53953 
L 194.418701 176.257507 
L 196.27387 165.403561 
L 198.129039 163.896627 
L 203.694545 163.181152 
L 205.549714 160.550239 
L 207.404883 154.834065 
L 209.260052 156.488303 
L 211.115221 156.155244 
L 216.680727 155.42191 
L 218.535896 161.164797 
L 220.391065 165.255992 
L 222.246234 165.298037 
L 224.101403 160.447104 
L 229.666909 157.981025 
L 231.522078 160.137326 
L 233.377247 160.409631 
L 235.232416 160.52994 
L 237.087584 163.349233 
L 242.653091 160.117174 
L 244.50826 152.650165 
L 246.363429 152.136095 
L 250.073766 172.48275 
L 255.639273 163.990517 
L 257.494442 180.711653 
L 259.34961 189.925259 
L 261.204779 179.187608 
L 263.059948 185.992196 
L 268.625455 174.053752 
L 270.480623 160.043682 
L 272.335792 155.382008 
L 274.190961 156.394028 
L 276.04613 151.242512 
L 281.611636 159.779542 
L 283.466805 158.941758 
L 285.321974 152.897202 
L 287.177143 152.091728 
L 289.032312 162.68586 
L 294.597818 171.935966 
L 296.452987 157.278893 
L 298.308156 152.210695 
L 300.163325 145.266713 
L 307.584 135.123935 
L 309.439169 135.560661 
L 311.294338 134.934194 
L 313.149506 135.691563 
L 315.004675 139.04718 
L 320.570182 130.540629 
L 322.425351 122.259115 
L 324.280519 140.305239 
L 326.135688 137.052425 
L 327.990857 132.569112 
L 333.556364 133.420263 
L 335.411532 128.570988 
L 337.266701 128.492881 
L 339.12187 134.863367 
L 340.977039 135.135243 
L 348.397714 153.350183 
L 350.252883 161.237474 
L 352.108052 168.786911 
L 353.963221 185.019076 
L 359.528727 186.061531 
L 361.383896 184.549534 
L 363.239065 185.865503 
L 365.094234 192.590784 
L 366.949403 173.564351 
L 372.514909 161.110796 
L 374.370078 151.973219 
L 376.225247 138.958272 
L 378.080416 175.281083 
L 379.935584 169.268546 
L 385.501091 174.428345 
L 387.35626 169.049816 
L 389.211429 161.351623 
L 391.066597 175.103378 
L 392.921766 191.481853 
L 398.487273 198.803664 
" style="fill:none;stroke:#ff0000;stroke-linecap:square;stroke-opacity:0.9;stroke-width:2;"/>
   </g>
   <g id="line2d_15">
    <path clip-path="url(#p57d62cb040)" d="M 73.832727 181.120058 
L 75.687896 177.209191 
L 77.543065 173.493446 
L 79.398234 178.485399 
L 81.253403 171.000414 
L 86.818909 165.335809 
L 88.674078 163.868251 
L 90.529247 165.992575 
L 92.384416 164.647951 
L 94.239584 165.542252 
L 101.66026 165.653405 
L 103.515429 168.348166 
L 105.370597 170.102995 
L 107.225766 177.207233 
L 112.791273 170.844727 
L 114.646442 181.817715 
L 116.50161 175.982485 
L 118.356779 177.544656 
L 120.211948 185.045239 
L 125.777455 198.510853 
L 127.632623 199.772585 
L 129.487792 194.523142 
L 131.342961 181.790749 
L 133.19813 175.256804 
L 138.763636 168.193181 
L 140.618805 185.18011 
L 142.473974 182.448879 
L 144.329143 188.20405 
L 146.184312 176.230934 
L 151.749818 190.878328 
L 153.604987 179.566786 
L 155.460156 176.213106 
L 157.315325 174.267056 
L 159.170494 170.679368 
L 164.736 174.906264 
L 166.591169 181.498153 
L 168.446338 182.747039 
L 170.301506 167.742672 
L 172.156675 166.471056 
L 177.722182 159.632464 
L 179.577351 151.891212 
L 181.432519 148.108218 
L 183.287688 161.542553 
L 185.142857 171.767296 
L 190.708364 170.935682 
L 192.563532 178.281145 
L 194.418701 179.779935 
L 196.27387 170.133416 
L 198.129039 168.998348 
L 203.694545 164.8686 
L 205.549714 163.164371 
L 207.404883 156.888788 
L 209.260052 156.269062 
L 211.115221 150.635966 
L 216.680727 149.832335 
L 218.535896 160.229382 
L 220.391065 166.342091 
L 222.246234 166.471335 
L 224.101403 160.026394 
L 229.666909 157.548233 
L 231.522078 161.648983 
L 233.377247 161.666655 
L 235.232416 163.633807 
L 237.087584 163.795145 
L 242.653091 159.166133 
L 244.50826 152.692872 
L 246.363429 152.94307 
L 250.073766 171.260906 
L 255.639273 161.125907 
L 257.494442 177.109087 
L 259.34961 187.72304 
L 261.204779 177.951377 
L 263.059948 183.409213 
L 268.625455 168.712948 
L 270.480623 154.518362 
L 272.335792 147.466998 
L 274.190961 147.141741 
L 276.04613 145.004471 
L 281.611636 152.194669 
L 283.466805 148.79336 
L 285.321974 144.298147 
L 287.177143 140.63394 
L 289.032312 150.922576 
L 294.597818 161.798732 
L 296.452987 142.609738 
L 298.308156 138.711942 
L 300.163325 131.689664 
L 307.584 121.096069 
L 309.439169 121.38943 
L 311.294338 120.941631 
L 313.149506 122.732882 
L 315.004675 126.180294 
L 320.570182 113.211909 
L 322.425351 103.051789 
L 324.280519 125.358931 
L 326.135688 116.67534 
L 327.990857 113.238162 
L 333.556364 111.99961 
L 335.411532 104.011415 
L 337.266701 102.281206 
L 339.12187 112.275413 
L 340.977039 109.685434 
L 348.397714 128.34319 
L 350.252883 132.238628 
L 352.108052 141.595685 
L 353.963221 160.753998 
L 359.528727 159.664067 
L 361.383896 169.214028 
L 363.239065 169.054531 
L 365.094234 174.512099 
L 366.949403 153.856607 
L 372.514909 136.392412 
L 374.370078 128.127751 
L 376.225247 114.194422 
L 378.080416 170.69846 
L 379.935584 170.376442 
L 385.501091 184.11021 
L 387.35626 185.464098 
L 389.211429 168.234805 
L 391.066597 182.627865 
L 392.921766 199.672807 
L 398.487273 205.435809 
" style="fill:none;stroke:#ff8040;stroke-linecap:square;stroke-opacity:0.9;stroke-width:2;"/>
   </g>
   <g id="line2d_16">
    <path clip-path="url(#p57d62cb040)" d="M 73.832727 181.902833 
L 75.687896 180.133311 
L 77.543065 178.050913 
L 79.398234 184.829773 
L 81.253403 175.959916 
L 86.818909 174.632601 
L 88.674078 174.337301 
L 90.529247 174.370617 
L 92.384416 176.8021 
L 94.239584 176.25804 
L 101.66026 176.181642 
L 103.515429 180.948459 
L 105.370597 182.382178 
L 107.225766 191.115909 
L 112.791273 185.14117 
L 114.646442 195.010595 
L 116.50161 190.935442 
L 118.356779 191.578272 
L 120.211948 202.513339 
L 125.777455 216.201701 
L 127.632623 215.659386 
L 129.487792 214.3782 
L 131.342961 202.924366 
L 133.19813 199.824026 
L 138.763636 194.36832 
L 140.618805 211.066604 
L 142.473974 211.953987 
L 144.329143 219.974944 
L 146.184312 208.30546 
L 151.749818 222.133336 
L 153.604987 212.927068 
L 155.460156 210.590629 
L 157.315325 211.812982 
L 159.170494 207.408154 
L 164.736 211.282578 
L 166.591169 216.790863 
L 168.446338 221.624806 
L 170.301506 205.586001 
L 172.156675 204.793506 
L 177.722182 205.146989 
L 179.577351 197.649851 
L 181.432519 194.204519 
L 183.287688 198.849845 
L 185.142857 206.93611 
L 190.708364 209.830617 
L 192.563532 212.353415 
L 194.418701 217.470008 
L 196.27387 207.035423 
L 198.129039 204.976479 
L 203.694545 206.136743 
L 205.549714 201.417836 
L 207.404883 196.517298 
L 209.260052 198.397063 
L 211.115221 198.893373 
L 216.680727 198.075825 
L 218.535896 205.119186 
L 220.391065 210.257917 
L 222.246234 209.725743 
L 224.101403 206.157674 
L 229.666909 200.271241 
L 231.522078 202.777437 
L 233.377247 204.022628 
L 235.232416 200.692433 
L 237.087584 201.012254 
L 242.653091 201.221535 
L 244.50826 194.787475 
L 246.363429 198.189684 
L 250.073766 216.2766 
L 255.639273 211.560036 
L 257.494442 227.832207 
L 259.34961 234.786504 
L 261.204779 225.820954 
L 263.059948 232.479451 
L 268.625455 220.664045 
L 270.480623 206.474285 
L 272.335792 202.284079 
L 274.190961 201.82389 
L 276.04613 199.642731 
L 281.611636 205.939465 
L 283.466805 206.090884 
L 285.321974 200.104302 
L 287.177143 193.25207 
L 289.032312 203.677194 
L 294.597818 214.513653 
L 296.452987 198.883506 
L 298.308156 196.192627 
L 300.163325 190.349146 
L 307.584 179.742906 
L 309.439169 180.359746 
L 311.294338 179.037442 
L 313.149506 180.313225 
L 315.004675 182.941993 
L 320.570182 175.341508 
L 322.425351 168.72086 
L 324.280519 187.531611 
L 326.135688 184.600996 
L 327.990857 181.261591 
L 333.556364 180.825218 
L 335.411532 174.45991 
L 337.266701 176.300486 
L 339.12187 181.279176 
L 340.977039 181.986285 
L 348.397714 202.44015 
L 350.252883 205.985958 
L 352.108052 211.814733 
L 353.963221 227.877843 
L 359.528727 230.573114 
L 361.383896 227.225473 
L 363.239065 226.691271 
L 365.094234 233.609957 
L 366.949403 212.907641 
L 372.514909 202.119872 
L 374.370078 192.602349 
L 376.225247 179.087491 
L 378.080416 242.733915 
L 379.935584 238.007273 
L 385.501091 245.539765 
L 387.35626 240.993776 
L 389.211429 231.301537 
L 391.066597 243.596196 
L 392.921766 258.275225 
L 398.487273 265.797818 
" style="fill:none;stroke:#0d0d0d;stroke-linecap:square;stroke-opacity:0.25;stroke-width:2;"/>
   </g>
   <g id="line2d_17">
    <path clip-path="url(#p57d62cb040)" d="M 73.832727 180.337283 
L 75.687896 173.691861 
L 77.543065 168.082727 
L 79.398234 172.941073 
L 81.253403 162.91137 
L 86.818909 156.66087 
L 88.674078 154.401294 
L 90.529247 153.557819 
L 92.384416 154.280537 
L 94.239584 154.34012 
L 101.66026 152.171993 
L 103.515429 153.040572 
L 105.370597 154.655242 
L 107.225766 161.473732 
L 112.791273 155.723549 
L 114.646442 162.978713 
L 116.50161 158.217382 
L 118.356779 160.593602 
L 120.211948 170.781858 
L 125.777455 181.043249 
L 127.632623 180.921042 
L 129.487792 176.342125 
L 131.342961 167.530838 
L 133.19813 161.343862 
L 138.763636 152.623352 
L 140.618805 167.102421 
L 142.473974 161.080717 
L 144.329143 170.164159 
L 146.184312 160.04983 
L 151.749818 164.248793 
L 153.604987 154.083622 
L 155.460156 150.403901 
L 157.315325 147.354962 
L 159.170494 143.777572 
L 164.736 148.978874 
L 166.591169 154.456872 
L 168.446338 157.71066 
L 170.301506 134.99695 
L 172.156675 126.503646 
L 177.722182 125.737521 
L 179.577351 118.987359 
L 181.432519 113.689535 
L 183.287688 120.748325 
L 185.142857 118.540834 
L 190.708364 120.068032 
L 192.563532 124.825309 
L 194.418701 129.060195 
L 196.27387 115.919612 
L 198.129039 110.879149 
L 203.694545 106.694385 
L 205.549714 104.149751 
L 207.404883 95.757229 
L 209.260052 95.788282 
L 211.115221 101.674879 
L 216.680727 102.058174 
L 218.535896 109.254731 
L 220.391065 110.58743 
L 222.246234 109.934846 
L 224.101403 108.632156 
L 229.666909 106.188664 
L 231.522078 110.197386 
L 233.377247 108.279667 
L 235.232416 105.422328 
L 237.087584 106.579016 
L 242.653091 104.458205 
L 244.50826 101.051677 
L 246.363429 102.580535 
L 250.073766 123.279497 
L 255.639273 109.359271 
L 257.494442 130.471531 
L 259.34961 134.822923 
L 261.204779 124.986393 
L 263.059948 132.580379 
L 268.625455 121.336889 
L 270.480623 108.623221 
L 272.335792 101.762376 
L 274.190961 101.560065 
L 276.04613 95.938569 
L 281.611636 104.309136 
L 283.466805 99.421238 
L 285.321974 91.581737 
L 287.177143 88.606893 
L 289.032312 101.092116 
L 294.597818 113.452898 
L 296.452987 97.722824 
L 298.308156 98.863931 
L 300.163325 90.786581 
L 307.584 82.447675 
L 309.439169 83.036156 
L 311.294338 81.776434 
L 313.149506 82.391799 
L 315.004675 86.355692 
L 320.570182 79.658484 
L 322.425351 68.020078 
L 324.280519 89.034698 
L 326.135688 84.402364 
L 327.990857 76.951902 
L 333.556364 78.179161 
L 335.411532 72.546477 
L 337.266701 72.647066 
L 339.12187 84.682849 
L 340.977039 85.418209 
L 348.397714 107.379939 
L 350.252883 114.379573 
L 352.108052 122.511635 
L 353.963221 137.495516 
L 359.528727 137.70144 
L 361.383896 130.924992 
L 363.239065 130.391574 
L 365.094234 136.51732 
L 366.949403 99.825965 
L 372.514909 82.814294 
L 374.370078 70.389469 
L 376.225247 52.154182 
L 378.080416 102.980175 
L 379.935584 93.864584 
L 385.501091 102.125178 
L 387.35626 100.658843 
L 389.211429 89.438264 
L 391.066597 104.331202 
L 392.921766 124.125916 
L 398.487273 133.323706 
" style="fill:none;stroke:#0d0d0d;stroke-linecap:square;stroke-opacity:0.25;stroke-width:2;"/>
   </g>
   <g id="patch_3">
    <path d="M 57.6 276.48 
L 57.6 41.472 
" style="fill:none;stroke:#000000;stroke-linecap:square;stroke-linejoin:miter;stroke-width:0.8;"/>
   </g>
   <g id="patch_4">
    <path d="M 414.72 276.48 
L 414.72 41.472 
" style="fill:none;stroke:#000000;stroke-linecap:square;stroke-linejoin:miter;stroke-width:0.8;"/>
   </g>
   <g id="patch_5">
    <path d="M 57.6 276.48 
L 414.72 276.48 
" style="fill:none;stroke:#000000;stroke-linecap:square;stroke-linejoin:miter;stroke-width:0.8;"/>
   </g>
   <g id="patch_6">
    <path d="M 57.6 41.472 
L 414.72 41.472 
" style="fill:none;stroke:#000000;stroke-linecap:square;stroke-linejoin:miter;stroke-width:0.8;"/>
   </g>
   <g id="text_14">
    <!-- TESTFUNDS1330 -->
    <g transform="translate(185.200312 22.034625)scale(0.12 -0.12)">
     <defs>
      <path d="M -19 4666 
L 3928 4666 
L 3928 4134 
L 2272 4134 
L 2272 0 
L 1638 0 
L 1638 4134 
L -19 4134 
L -19 4666 
z
" id="DejaVuSans-54" transform="scale(0.015625)"/>
      <path d="M 628 4666 
L 3578 4666 
L 3578 4134 
L 1259 4134 
L 1259 2753 
L 3481 2753 
L 3481 2222 
L 1259 2222 
L 1259 531 
L 3634 531 
L 3634 0 
L 628 0 
L 628 4666 
z
" id="DejaVuSans-45" transform="scale(0.015625)"/>
      <path d="M 3425 4513 
L 3425 3897 
Q 3066 4069 2747 4153 
Q 2428 4238 2131 4238 
Q 1616 4238 1336 4038 
Q 1056 3838 1056 3469 
Q 1056 3159 1242 3001 
Q 1428 2844 1947 2747 
L 2328 2669 
Q 3034 2534 3370 2195 
Q 3706 1856 3706 1288 
Q 3706 609 3251 259 
Q 2797 -91 1919 -91 
Q 1588 -91 1214 -16 
Q 841 59 441 206 
L 441 856 
Q 825 641 1194 531 
Q 1563 422 1919 422 
Q 2459 422 2753 634 
Q 3047 847 3047 1241 
Q 3047 1584 2836 1778 
Q 2625 1972 2144 2069 
L 1759 2144 
Q 1053 2284 737 2584 
Q 422 2884 422 3419 
Q 422 4038 858 4394 
Q 1294 4750 2059 4750 
Q 2388 4750 2728 4690 
Q 3069 4631 3425 4513 
z
" id="DejaVuSans-53" transform="scale(0.015625)"/>
      <path d="M 628 4666 
L 3309 4666 
L 3309 4134 
L 1259 4134 
L 1259 2759 
L 3109 2759 
L 3109 2228 
L 1259 2228 
L 1259 0 
L 628 0 
L 628 4666 
z
" id="DejaVuSans-46" transform="scale(0.015625)"/>
      <path d="M 556 4666 
L 1191 4666 
L 1191 1831 
Q 1191 1081 1462 751 
Q 1734 422 2344 422 
Q 2950 422 3222 751 
Q 3494 1081 3494 1831 
L 3494 4666 
L 4128 4666 
L 4128 1753 
Q 4128 841 3676 375 
Q 3225 -91 2344 -91 
Q 1459 -91 1007 375 
Q 556 841 556 1753 
L 556 4666 
z
" id="DejaVuSans-55" transform="scale(0.015625)"/>
      <path d="M 628 4666 
L 1478 4666 
L 3547 763 
L 3547 4666 
L 4159 4666 
L 4159 0 
L 3309 0 
L 1241 3903 
L 1241 0 
L 628 0 
L 628 4666 
z
" id="DejaVuSans-4e" transform="scale(0.015625)"/>
      <path d="M 1259 4147 
L 1259 519 
L 2022 519 
Q 2988 519 3436 956 
Q 3884 1394 3884 2338 
Q 3884 3275 3436 3711 
Q 2988 4147 2022 4147 
L 1259 4147 
z
M 628 4666 
L 1925 4666 
Q 3281 4666 3915 4102 
Q 4550 3538 4550 2338 
Q 4550 1131 3912 565 
Q 3275 0 1925 0 
L 628 0 
L 628 4666 
z
" id="DejaVuSans-44" transform="scale(0.015625)"/>
      <path d="M 2597 2516 
Q 3050 2419 3304 2112 
Q 3559 1806 3559 1356 
Q 3559 666 3084 287 
Q 2609 -91 1734 -91 
Q 1441 -91 1130 -33 
Q 819 25 488 141 
L 488 750 
Q 750 597 1062 519 
Q 1375 441 1716 441 
Q 2309 441 2620 675 
Q 2931 909 2931 1356 
Q 2931 1769 2642 2001 
Q 2353 2234 1838 2234 
L 1294 2234 
L 1294 2753 
L 1863 2753 
Q 2328 2753 2575 2939 
Q 2822 3125 2822 3475 
Q 2822 3834 2567 4026 
Q 2313 4219 1838 4219 
Q 1578 4219 1281 4162 
Q 984 4106 628 3988 
L 628 4550 
Q 988 4650 1302 4700 
Q 1616 4750 1894 4750 
Q 2613 4750 3031 4423 
Q 3450 4097 3450 3541 
Q 3450 3153 3228 2886 
Q 3006 2619 2597 2516 
z
" id="DejaVuSans-33" transform="scale(0.015625)"/>
     </defs>
     <use xlink:href="#DejaVuSans-54"/>
     <use x="61.083984" xlink:href="#DejaVuSans-45"/>
     <use x="124.267578" xlink:href="#DejaVuSans-53"/>
     <use x="187.744141" xlink:href="#DejaVuSans-54"/>
     <use x="248.828125" xlink:href="#DejaVuSans-46"/>
     <use x="306.347656" xlink:href="#DejaVuSans-55"/>
     <use x="379.541016" xlink:href="#DejaVuSans-4e"/>
     <use x="454.345703" xlink:href="#DejaVuSans-44"/>
     <use x="531.347656" xlink:href="#DejaVuSans-53"/>
     <use x="594.824219" xlink:href="#DejaVuSans-31"/>
     <use x="658.447266" xlink:href="#DejaVuSans-33"/>
     <use x="722.070312" xlink:href="#DejaVuSans-33"/>
     <use x="785.693359" xlink:href="#DejaVuSans-30"/>
    </g>
    <!-- daily_report -->
    <g transform="translate(200.466563 35.472)scale(0.12 -0.12)">
     <defs>
      <path d="M 603 3500 
L 1178 3500 
L 1178 0 
L 603 0 
L 603 3500 
z
M 603 4863 
L 1178 4863 
L 1178 4134 
L 603 4134 
L 603 4863 
z
" id="DejaVuSans-69" transform="scale(0.015625)"/>
      <path d="M 603 4863 
L 1178 4863 
L 1178 0 
L 603 0 
L 603 4863 
z
" id="DejaVuSans-6c" transform="scale(0.015625)"/>
      <path d="M 2059 -325 
Q 1816 -950 1584 -1140 
Q 1353 -1331 966 -1331 
L 506 -1331 
L 506 -850 
L 844 -850 
Q 1081 -850 1212 -737 
Q 1344 -625 1503 -206 
L 1606 56 
L 191 3500 
L 800 3500 
L 1894 763 
L 2988 3500 
L 3597 3500 
L 2059 -325 
z
" id="DejaVuSans-79" transform="scale(0.015625)"/>
      <path d="M 3263 -1063 
L 3263 -1509 
L -63 -1509 
L -63 -1063 
L 3263 -1063 
z
" id="DejaVuSans-5f" transform="scale(0.015625)"/>
      <path d="M 2631 2963 
Q 2534 3019 2420 3045 
Q 2306 3072 2169 3072 
Q 1681 3072 1420 2755 
Q 1159 2438 1159 1844 
L 1159 0 
L 581 0 
L 581 3500 
L 1159 3500 
L 1159 2956 
Q 1341 3275 1631 3429 
Q 1922 3584 2338 3584 
Q 2397 3584 2469 3576 
Q 2541 3569 2628 3553 
L 2631 2963 
z
" id="DejaVuSans-72" transform="scale(0.015625)"/>
      <path d="M 1159 525 
L 1159 -1331 
L 581 -1331 
L 581 3500 
L 1159 3500 
L 1159 2969 
Q 1341 3281 1617 3432 
Q 1894 3584 2278 3584 
Q 2916 3584 3314 3078 
Q 3713 2572 3713 1747 
Q 3713 922 3314 415 
Q 2916 -91 2278 -91 
Q 1894 -91 1617 61 
Q 1341 213 1159 525 
z
M 3116 1747 
Q 3116 2381 2855 2742 
Q 2594 3103 2138 3103 
Q 1681 3103 1420 2742 
Q 1159 2381 1159 1747 
Q 1159 1113 1420 752 
Q 1681 391 2138 391 
Q 2594 391 2855 752 
Q 3116 1113 3116 1747 
z
" id="DejaVuSans-70" transform="scale(0.015625)"/>
      <path d="M 1959 3097 
Q 1497 3097 1228 2736 
Q 959 2375 959 1747 
Q 959 1119 1226 758 
Q 1494 397 1959 397 
Q 2419 397 2687 759 
Q 2956 1122 2956 1747 
Q 2956 2369 2687 2733 
Q 2419 3097 1959 3097 
z
M 1959 3584 
Q 2709 3584 3137 3096 
Q 3566 2609 3566 1747 
Q 3566 888 3137 398 
Q 2709 -91 1959 -91 
Q 1206 -91 779 398 
Q 353 888 353 1747 
Q 353 2609 779 3096 
Q 1206 3584 1959 3584 
z
" id="DejaVuSans-6f" transform="scale(0.015625)"/>
     </defs>
     <use xlink:href="#DejaVuSans-64"/>
     <use x="63.476562" xlink:href="#DejaVuSans-61"/>
     <use x="124.755859" xlink:href="#DejaVuSans-69"/>
     <use x="152.539062" xlink:href="#DejaVuSans-6c"/>
     <use x="180.322266" xlink:href="#DejaVuSans-79"/>
     <use x="239.501953" xlink:href="#DejaVuSans-5f"/>
     <use x="289.501953" xlink:href="#DejaVuSans-72"/>
     <use x="328.365234" xlink:href="#DejaVuSans-65"/>
     <use x="389.888672" xlink:href="#DejaVuSans-70"/>
     <use x="453.365234" xlink:href="#DejaVuSans-6f"/>
     <use x="514.546875" xlink:href="#DejaVuSans-72"/>
     <use x="555.660156" xlink:href="#DejaVuSans-74"/>
    </g>
   </g>
   <g id="legend_1">
    <g id="patch_7">
     <path d="M 64.6 122.862625 
L 155.792188 122.862625 
Q 157.792188 122.862625 157.792188 120.862625 
L 157.792188 48.472 
Q 157.792188 46.472 155.792188 46.472 
L 64.6 46.472 
Q 62.6 46.472 62.6 48.472 
L 62.6 120.862625 
Q 62.6 122.862625 64.6 122.862625 
z
" style="fill:#ffffff;opacity:0.8;stroke:#cccccc;stroke-linejoin:miter;"/>
    </g>
    <g id="line2d_18">
     <path d="M 66.6 54.570437 
L 86.6 54.570437 
" style="fill:none;stroke:#0000ff;stroke-linecap:square;stroke-opacity:0.9;stroke-width:2;"/>
    </g>
    <g id="line2d_19"/>
    <g id="text_15">
     <!-- alpaca -->
     <g transform="translate(94.6 58.070437)scale(0.1 -0.1)">
      <defs>
       <path d="M 3122 3366 
L 3122 2828 
Q 2878 2963 2633 3030 
Q 2388 3097 2138 3097 
Q 1578 3097 1268 2742 
Q 959 2388 959 1747 
Q 959 1106 1268 751 
Q 1578 397 2138 397 
Q 2388 397 2633 464 
Q 2878 531 3122 666 
L 3122 134 
Q 2881 22 2623 -34 
Q 2366 -91 2075 -91 
Q 1284 -91 818 406 
Q 353 903 353 1747 
Q 353 2603 823 3093 
Q 1294 3584 2113 3584 
Q 2378 3584 2631 3529 
Q 2884 3475 3122 3366 
z
" id="DejaVuSans-63" transform="scale(0.015625)"/>
      </defs>
      <use xlink:href="#DejaVuSans-61"/>
      <use x="61.279297" xlink:href="#DejaVuSans-6c"/>
      <use x="89.0625" xlink:href="#DejaVuSans-70"/>
      <use x="152.539062" xlink:href="#DejaVuSans-61"/>
      <use x="213.818359" xlink:href="#DejaVuSans-63"/>
      <use x="268.798828" xlink:href="#DejaVuSans-61"/>
     </g>
    </g>
    <g id="line2d_20">
     <path d="M 66.6 69.248562 
L 86.6 69.248562 
" style="fill:none;stroke:#ff0000;stroke-linecap:square;stroke-opacity:0.9;stroke-width:2;"/>
    </g>
    <g id="line2d_21"/>
    <g id="text_16">
     <!-- mattress -->
     <g transform="translate(94.6 72.748562)scale(0.1 -0.1)">
      <defs>
       <path d="M 3328 2828 
Q 3544 3216 3844 3400 
Q 4144 3584 4550 3584 
Q 5097 3584 5394 3201 
Q 5691 2819 5691 2113 
L 5691 0 
L 5113 0 
L 5113 2094 
Q 5113 2597 4934 2840 
Q 4756 3084 4391 3084 
Q 3944 3084 3684 2787 
Q 3425 2491 3425 1978 
L 3425 0 
L 2847 0 
L 2847 2094 
Q 2847 2600 2669 2842 
Q 2491 3084 2119 3084 
Q 1678 3084 1418 2786 
Q 1159 2488 1159 1978 
L 1159 0 
L 581 0 
L 581 3500 
L 1159 3500 
L 1159 2956 
Q 1356 3278 1631 3431 
Q 1906 3584 2284 3584 
Q 2666 3584 2933 3390 
Q 3200 3197 3328 2828 
z
" id="DejaVuSans-6d" transform="scale(0.015625)"/>
       <path d="M 2834 3397 
L 2834 2853 
Q 2591 2978 2328 3040 
Q 2066 3103 1784 3103 
Q 1356 3103 1142 2972 
Q 928 2841 928 2578 
Q 928 2378 1081 2264 
Q 1234 2150 1697 2047 
L 1894 2003 
Q 2506 1872 2764 1633 
Q 3022 1394 3022 966 
Q 3022 478 2636 193 
Q 2250 -91 1575 -91 
Q 1294 -91 989 -36 
Q 684 19 347 128 
L 347 722 
Q 666 556 975 473 
Q 1284 391 1588 391 
Q 1994 391 2212 530 
Q 2431 669 2431 922 
Q 2431 1156 2273 1281 
Q 2116 1406 1581 1522 
L 1381 1569 
Q 847 1681 609 1914 
Q 372 2147 372 2553 
Q 372 3047 722 3315 
Q 1072 3584 1716 3584 
Q 2034 3584 2315 3537 
Q 2597 3491 2834 3397 
z
" id="DejaVuSans-73" transform="scale(0.015625)"/>
      </defs>
      <use xlink:href="#DejaVuSans-6d"/>
      <use x="97.412109" xlink:href="#DejaVuSans-61"/>
      <use x="158.691406" xlink:href="#DejaVuSans-74"/>
      <use x="197.900391" xlink:href="#DejaVuSans-74"/>
      <use x="237.109375" xlink:href="#DejaVuSans-72"/>
      <use x="275.972656" xlink:href="#DejaVuSans-65"/>
      <use x="337.496094" xlink:href="#DejaVuSans-73"/>
      <use x="389.595703" xlink:href="#DejaVuSans-73"/>
     </g>
    </g>
    <g id="line2d_22">
     <path d="M 66.6 83.926687 
L 86.6 83.926687 
" style="fill:none;stroke:#ff8040;stroke-linecap:square;stroke-opacity:0.9;stroke-width:2;"/>
    </g>
    <g id="line2d_23"/>
    <g id="text_17">
     <!-- trader-0850 -->
     <g transform="translate(94.6 87.426687)scale(0.1 -0.1)">
      <defs>
       <path d="M 2034 2216 
Q 1584 2216 1326 1975 
Q 1069 1734 1069 1313 
Q 1069 891 1326 650 
Q 1584 409 2034 409 
Q 2484 409 2743 651 
Q 3003 894 3003 1313 
Q 3003 1734 2745 1975 
Q 2488 2216 2034 2216 
z
M 1403 2484 
Q 997 2584 770 2862 
Q 544 3141 544 3541 
Q 544 4100 942 4425 
Q 1341 4750 2034 4750 
Q 2731 4750 3128 4425 
Q 3525 4100 3525 3541 
Q 3525 3141 3298 2862 
Q 3072 2584 2669 2484 
Q 3125 2378 3379 2068 
Q 3634 1759 3634 1313 
Q 3634 634 3220 271 
Q 2806 -91 2034 -91 
Q 1263 -91 848 271 
Q 434 634 434 1313 
Q 434 1759 690 2068 
Q 947 2378 1403 2484 
z
M 1172 3481 
Q 1172 3119 1398 2916 
Q 1625 2713 2034 2713 
Q 2441 2713 2670 2916 
Q 2900 3119 2900 3481 
Q 2900 3844 2670 4047 
Q 2441 4250 2034 4250 
Q 1625 4250 1398 4047 
Q 1172 3844 1172 3481 
z
" id="DejaVuSans-38" transform="scale(0.015625)"/>
      </defs>
      <use xlink:href="#DejaVuSans-74"/>
      <use x="39.208984" xlink:href="#DejaVuSans-72"/>
      <use x="80.322266" xlink:href="#DejaVuSans-61"/>
      <use x="141.601562" xlink:href="#DejaVuSans-64"/>
      <use x="205.078125" xlink:href="#DejaVuSans-65"/>
      <use x="266.601562" xlink:href="#DejaVuSans-72"/>
      <use x="301.339844" xlink:href="#DejaVuSans-2d"/>
      <use x="337.423828" xlink:href="#DejaVuSans-30"/>
      <use x="401.046875" xlink:href="#DejaVuSans-38"/>
      <use x="464.669922" xlink:href="#DejaVuSans-35"/>
      <use x="528.292969" xlink:href="#DejaVuSans-30"/>
     </g>
    </g>
    <g id="line2d_24">
     <path d="M 66.6 98.604812 
L 86.6 98.604812 
" style="fill:none;stroke:#0d0d0d;stroke-linecap:square;stroke-opacity:0.25;stroke-width:2;"/>
    </g>
    <g id="line2d_25"/>
    <g id="text_18">
     <!-- rando-min -->
     <g transform="translate(94.6 102.104812)scale(0.1 -0.1)">
      <defs>
       <path d="M 3513 2113 
L 3513 0 
L 2938 0 
L 2938 2094 
Q 2938 2591 2744 2837 
Q 2550 3084 2163 3084 
Q 1697 3084 1428 2787 
Q 1159 2491 1159 1978 
L 1159 0 
L 581 0 
L 581 3500 
L 1159 3500 
L 1159 2956 
Q 1366 3272 1645 3428 
Q 1925 3584 2291 3584 
Q 2894 3584 3203 3211 
Q 3513 2838 3513 2113 
z
" id="DejaVuSans-6e" transform="scale(0.015625)"/>
      </defs>
      <use xlink:href="#DejaVuSans-72"/>
      <use x="41.113281" xlink:href="#DejaVuSans-61"/>
      <use x="102.392578" xlink:href="#DejaVuSans-6e"/>
      <use x="165.771484" xlink:href="#DejaVuSans-64"/>
      <use x="229.248047" xlink:href="#DejaVuSans-6f"/>
      <use x="292.304688" xlink:href="#DejaVuSans-2d"/>
      <use x="328.388672" xlink:href="#DejaVuSans-6d"/>
      <use x="425.800781" xlink:href="#DejaVuSans-69"/>
      <use x="453.583984" xlink:href="#DejaVuSans-6e"/>
     </g>
    </g>
    <g id="line2d_26">
     <path d="M 66.6 113.282937 
L 86.6 113.282937 
" style="fill:none;stroke:#0d0d0d;stroke-linecap:square;stroke-opacity:0.25;stroke-width:2;"/>
    </g>
    <g id="line2d_27"/>
    <g id="text_19">
     <!-- rando-max -->
     <g transform="translate(94.6 116.782937)scale(0.1 -0.1)">
      <defs>
       <path d="M 3513 3500 
L 2247 1797 
L 3578 0 
L 2900 0 
L 1881 1375 
L 863 0 
L 184 0 
L 1544 1831 
L 300 3500 
L 978 3500 
L 1906 2253 
L 2834 3500 
L 3513 3500 
z
" id="DejaVuSans-78" transform="scale(0.015625)"/>
      </defs>
      <use xlink:href="#DejaVuSans-72"/>
      <use x="41.113281" xlink:href="#DejaVuSans-61"/>
      <use x="102.392578" xlink:href="#DejaVuSans-6e"/>
      <use x="165.771484" xlink:href="#DejaVuSans-64"/>
      <use x="229.248047" xlink:href="#DejaVuSans-6f"/>
      <use x="292.304688" xlink:href="#DejaVuSans-2d"/>
      <use x="328.388672" xlink:href="#DejaVuSans-6d"/>
      <use x="425.800781" xlink:href="#DejaVuSans-61"/>
      <use x="487.080078" xlink:href="#DejaVuSans-78"/>
     </g>
    </g>
   </g>
  </g>
 </g>
 <defs>
  <clipPath id="p57d62cb040">
   <rect height="235.008" width="357.12" x="57.6" y="41.472"/>
  </clipPath>
 </defs>
</svg>
