<?xml version="1.0" encoding="utf-8" standalone="no"?>
<!DOCTYPE svg PUBLIC "-//W3C//DTD SVG 1.1//EN"
  "http://www.w3.org/Graphics/SVG/1.1/DTD/svg11.dtd">
<svg height="345.6pt" version="1.1" viewBox="0 0 460.8 345.6" width="460.8pt" xmlns="http://www.w3.org/2000/svg" xmlns:xlink="http://www.w3.org/1999/xlink">
 <metadata>
  <rdf:RDF xmlns:cc="http://creativecommons.org/ns#" xmlns:dc="http://purl.org/dc/elements/1.1/" xmlns:rdf="http://www.w3.org/1999/02/22-rdf-syntax-ns#">
   <cc:Work>
    <dc:type rdf:resource="http://purl.org/dc/dcmitype/StillImage"/>
    <dc:date>2022-06-02T10:02:07.827816</dc:date>
    <dc:format>image/svg+xml</dc:format>
    <dc:creator>
     <cc:Agent>
      <dc:title>Matplotlib v3.4.3, https://matplotlib.org/</dc:title>
     </cc:Agent>
    </dc:creator>
   </cc:Work>
  </rdf:RDF>
 </metadata>
 <defs>
  <style type="text/css">*{stroke-linecap:butt;stroke-linejoin:round;}</style>
 </defs>
 <g id="figure_1">
  <g id="patch_1">
   <path d="M 0 345.6 
L 460.8 345.6 
L 460.8 0 
L 0 0 
z
" style="fill:#ffffff;"/>
  </g>
  <g id="axes_1">
   <g id="patch_2">
    <path d="M 57.6 276.48 
L 414.72 276.48 
L 414.72 41.472 
L 57.6 41.472 
z
" style="fill:#ffffff;"/>
   </g>
   <g id="matplotlib.axis_1">
    <g id="xtick_1">
     <g id="line2d_1">
      <defs>
       <path d="M 0 0 
L 0 3.5 
" id="m90566b661c" style="stroke:#000000;stroke-width:0.8;"/>
      </defs>
      <g>
       <use style="stroke:#000000;stroke-width:0.8;" x="95.476364" xlink:href="#m90566b661c" y="276.48"/>
      </g>
     </g>
     <g id="text_1">
      <!-- 2021-12 -->
      <g transform="translate(58.251543 310.951846)rotate(-30)scale(0.1 -0.1)">
       <defs>
        <path d="M 1228 531 
L 3431 531 
L 3431 0 
L 469 0 
L 469 531 
Q 828 903 1448 1529 
Q 2069 2156 2228 2338 
Q 2531 2678 2651 2914 
Q 2772 3150 2772 3378 
Q 2772 3750 2511 3984 
Q 2250 4219 1831 4219 
Q 1534 4219 1204 4116 
Q 875 4013 500 3803 
L 500 4441 
Q 881 4594 1212 4672 
Q 1544 4750 1819 4750 
Q 2544 4750 2975 4387 
Q 3406 4025 3406 3419 
Q 3406 3131 3298 2873 
Q 3191 2616 2906 2266 
Q 2828 2175 2409 1742 
Q 1991 1309 1228 531 
z
" id="DejaVuSans-32" transform="scale(0.015625)"/>
        <path d="M 2034 4250 
Q 1547 4250 1301 3770 
Q 1056 3291 1056 2328 
Q 1056 1369 1301 889 
Q 1547 409 2034 409 
Q 2525 409 2770 889 
Q 3016 1369 3016 2328 
Q 3016 3291 2770 3770 
Q 2525 4250 2034 4250 
z
M 2034 4750 
Q 2819 4750 3233 4129 
Q 3647 3509 3647 2328 
Q 3647 1150 3233 529 
Q 2819 -91 2034 -91 
Q 1250 -91 836 529 
Q 422 1150 422 2328 
Q 422 3509 836 4129 
Q 1250 4750 2034 4750 
z
" id="DejaVuSans-30" transform="scale(0.015625)"/>
        <path d="M 794 531 
L 1825 531 
L 1825 4091 
L 703 3866 
L 703 4441 
L 1819 4666 
L 2450 4666 
L 2450 531 
L 3481 531 
L 3481 0 
L 794 0 
L 794 531 
z
" id="DejaVuSans-31" transform="scale(0.015625)"/>
        <path d="M 313 2009 
L 1997 2009 
L 1997 1497 
L 313 1497 
L 313 2009 
z
" id="DejaVuSans-2d" transform="scale(0.015625)"/>
       </defs>
       <use xlink:href="#DejaVuSans-32"/>
       <use x="63.623047" xlink:href="#DejaVuSans-30"/>
       <use x="127.246094" xlink:href="#DejaVuSans-32"/>
       <use x="190.869141" xlink:href="#DejaVuSans-31"/>
       <use x="254.492188" xlink:href="#DejaVuSans-2d"/>
       <use x="290.576172" xlink:href="#DejaVuSans-31"/>
       <use x="354.199219" xlink:href="#DejaVuSans-32"/>
      </g>
     </g>
    </g>
    <g id="xtick_2">
     <g id="line2d_2">
      <g>
       <use style="stroke:#000000;stroke-width:0.8;" x="147.088112" xlink:href="#m90566b661c" y="276.48"/>
      </g>
     </g>
     <g id="text_2">
      <!-- 2022-01 -->
      <g transform="translate(109.863291 310.951846)rotate(-30)scale(0.1 -0.1)">
       <use xlink:href="#DejaVuSans-32"/>
       <use x="63.623047" xlink:href="#DejaVuSans-30"/>
       <use x="127.246094" xlink:href="#DejaVuSans-32"/>
       <use x="190.869141" xlink:href="#DejaVuSans-32"/>
       <use x="254.492188" xlink:href="#DejaVuSans-2d"/>
       <use x="290.576172" xlink:href="#DejaVuSans-30"/>
       <use x="354.199219" xlink:href="#DejaVuSans-31"/>
      </g>
     </g>
    </g>
    <g id="xtick_3">
     <g id="line2d_3">
      <g>
       <use style="stroke:#000000;stroke-width:0.8;" x="198.69986" xlink:href="#m90566b661c" y="276.48"/>
      </g>
     </g>
     <g id="text_3">
      <!-- 2022-02 -->
      <g transform="translate(161.475039 310.951846)rotate(-30)scale(0.1 -0.1)">
       <use xlink:href="#DejaVuSans-32"/>
       <use x="63.623047" xlink:href="#DejaVuSans-30"/>
       <use x="127.246094" xlink:href="#DejaVuSans-32"/>
       <use x="190.869141" xlink:href="#DejaVuSans-32"/>
       <use x="254.492188" xlink:href="#DejaVuSans-2d"/>
       <use x="290.576172" xlink:href="#DejaVuSans-30"/>
       <use x="354.199219" xlink:href="#DejaVuSans-32"/>
      </g>
     </g>
    </g>
    <g id="xtick_4">
     <g id="line2d_4">
      <g>
       <use style="stroke:#000000;stroke-width:0.8;" x="245.316923" xlink:href="#m90566b661c" y="276.48"/>
      </g>
     </g>
     <g id="text_4">
      <!-- 2022-03 -->
      <g transform="translate(208.092102 310.951846)rotate(-30)scale(0.1 -0.1)">
       <defs>
        <path d="M 2597 2516 
Q 3050 2419 3304 2112 
Q 3559 1806 3559 1356 
Q 3559 666 3084 287 
Q 2609 -91 1734 -91 
Q 1441 -91 1130 -33 
Q 819 25 488 141 
L 488 750 
Q 750 597 1062 519 
Q 1375 441 1716 441 
Q 2309 441 2620 675 
Q 2931 909 2931 1356 
Q 2931 1769 2642 2001 
Q 2353 2234 1838 2234 
L 1294 2234 
L 1294 2753 
L 1863 2753 
Q 2328 2753 2575 2939 
Q 2822 3125 2822 3475 
Q 2822 3834 2567 4026 
Q 2313 4219 1838 4219 
Q 1578 4219 1281 4162 
Q 984 4106 628 3988 
L 628 4550 
Q 988 4650 1302 4700 
Q 1616 4750 1894 4750 
Q 2613 4750 3031 4423 
Q 3450 4097 3450 3541 
Q 3450 3153 3228 2886 
Q 3006 2619 2597 2516 
z
" id="DejaVuSans-33" transform="scale(0.015625)"/>
       </defs>
       <use xlink:href="#DejaVuSans-32"/>
       <use x="63.623047" xlink:href="#DejaVuSans-30"/>
       <use x="127.246094" xlink:href="#DejaVuSans-32"/>
       <use x="190.869141" xlink:href="#DejaVuSans-32"/>
       <use x="254.492188" xlink:href="#DejaVuSans-2d"/>
       <use x="290.576172" xlink:href="#DejaVuSans-30"/>
       <use x="354.199219" xlink:href="#DejaVuSans-33"/>
      </g>
     </g>
    </g>
    <g id="xtick_5">
     <g id="line2d_5">
      <g>
       <use style="stroke:#000000;stroke-width:0.8;" x="296.928671" xlink:href="#m90566b661c" y="276.48"/>
      </g>
     </g>
     <g id="text_5">
      <!-- 2022-04 -->
      <g transform="translate(259.703851 310.951846)rotate(-30)scale(0.1 -0.1)">
       <defs>
        <path d="M 2419 4116 
L 825 1625 
L 2419 1625 
L 2419 4116 
z
M 2253 4666 
L 3047 4666 
L 3047 1625 
L 3713 1625 
L 3713 1100 
L 3047 1100 
L 3047 0 
L 2419 0 
L 2419 1100 
L 313 1100 
L 313 1709 
L 2253 4666 
z
" id="DejaVuSans-34" transform="scale(0.015625)"/>
       </defs>
       <use xlink:href="#DejaVuSans-32"/>
       <use x="63.623047" xlink:href="#DejaVuSans-30"/>
       <use x="127.246094" xlink:href="#DejaVuSans-32"/>
       <use x="190.869141" xlink:href="#DejaVuSans-32"/>
       <use x="254.492188" xlink:href="#DejaVuSans-2d"/>
       <use x="290.576172" xlink:href="#DejaVuSans-30"/>
       <use x="354.199219" xlink:href="#DejaVuSans-34"/>
      </g>
     </g>
    </g>
    <g id="xtick_6">
     <g id="line2d_6">
      <g>
       <use style="stroke:#000000;stroke-width:0.8;" x="346.875524" xlink:href="#m90566b661c" y="276.48"/>
      </g>
     </g>
     <g id="text_6">
      <!-- 2022-05 -->
      <g transform="translate(309.650704 310.951846)rotate(-30)scale(0.1 -0.1)">
       <defs>
        <path d="M 691 4666 
L 3169 4666 
L 3169 4134 
L 1269 4134 
L 1269 2991 
Q 1406 3038 1543 3061 
Q 1681 3084 1819 3084 
Q 2600 3084 3056 2656 
Q 3513 2228 3513 1497 
Q 3513 744 3044 326 
Q 2575 -91 1722 -91 
Q 1428 -91 1123 -41 
Q 819 9 494 109 
L 494 744 
Q 775 591 1075 516 
Q 1375 441 1709 441 
Q 2250 441 2565 725 
Q 2881 1009 2881 1497 
Q 2881 1984 2565 2268 
Q 2250 2553 1709 2553 
Q 1456 2553 1204 2497 
Q 953 2441 691 2322 
L 691 4666 
z
" id="DejaVuSans-35" transform="scale(0.015625)"/>
       </defs>
       <use xlink:href="#DejaVuSans-32"/>
       <use x="63.623047" xlink:href="#DejaVuSans-30"/>
       <use x="127.246094" xlink:href="#DejaVuSans-32"/>
       <use x="190.869141" xlink:href="#DejaVuSans-32"/>
       <use x="254.492188" xlink:href="#DejaVuSans-2d"/>
       <use x="290.576172" xlink:href="#DejaVuSans-30"/>
       <use x="354.199219" xlink:href="#DejaVuSans-35"/>
      </g>
     </g>
    </g>
    <g id="xtick_7">
     <g id="line2d_7">
      <g>
       <use style="stroke:#000000;stroke-width:0.8;" x="398.487273" xlink:href="#m90566b661c" y="276.48"/>
      </g>
     </g>
     <g id="text_7">
      <!-- 2022-06 -->
      <g transform="translate(361.262452 310.951846)rotate(-30)scale(0.1 -0.1)">
       <defs>
        <path d="M 2113 2584 
Q 1688 2584 1439 2293 
Q 1191 2003 1191 1497 
Q 1191 994 1439 701 
Q 1688 409 2113 409 
Q 2538 409 2786 701 
Q 3034 994 3034 1497 
Q 3034 2003 2786 2293 
Q 2538 2584 2113 2584 
z
M 3366 4563 
L 3366 3988 
Q 3128 4100 2886 4159 
Q 2644 4219 2406 4219 
Q 1781 4219 1451 3797 
Q 1122 3375 1075 2522 
Q 1259 2794 1537 2939 
Q 1816 3084 2150 3084 
Q 2853 3084 3261 2657 
Q 3669 2231 3669 1497 
Q 3669 778 3244 343 
Q 2819 -91 2113 -91 
Q 1303 -91 875 529 
Q 447 1150 447 2328 
Q 447 3434 972 4092 
Q 1497 4750 2381 4750 
Q 2619 4750 2861 4703 
Q 3103 4656 3366 4563 
z
" id="DejaVuSans-36" transform="scale(0.015625)"/>
       </defs>
       <use xlink:href="#DejaVuSans-32"/>
       <use x="63.623047" xlink:href="#DejaVuSans-30"/>
       <use x="127.246094" xlink:href="#DejaVuSans-32"/>
       <use x="190.869141" xlink:href="#DejaVuSans-32"/>
       <use x="254.492188" xlink:href="#DejaVuSans-2d"/>
       <use x="290.576172" xlink:href="#DejaVuSans-30"/>
       <use x="354.199219" xlink:href="#DejaVuSans-36"/>
      </g>
     </g>
    </g>
    <g id="text_8">
     <!-- date -->
     <g transform="translate(224.885 324.351346)scale(0.1 -0.1)">
      <defs>
       <path d="M 2906 2969 
L 2906 4863 
L 3481 4863 
L 3481 0 
L 2906 0 
L 2906 525 
Q 2725 213 2448 61 
Q 2172 -91 1784 -91 
Q 1150 -91 751 415 
Q 353 922 353 1747 
Q 353 2572 751 3078 
Q 1150 3584 1784 3584 
Q 2172 3584 2448 3432 
Q 2725 3281 2906 2969 
z
M 947 1747 
Q 947 1113 1208 752 
Q 1469 391 1925 391 
Q 2381 391 2643 752 
Q 2906 1113 2906 1747 
Q 2906 2381 2643 2742 
Q 2381 3103 1925 3103 
Q 1469 3103 1208 2742 
Q 947 2381 947 1747 
z
" id="DejaVuSans-64" transform="scale(0.015625)"/>
       <path d="M 2194 1759 
Q 1497 1759 1228 1600 
Q 959 1441 959 1056 
Q 959 750 1161 570 
Q 1363 391 1709 391 
Q 2188 391 2477 730 
Q 2766 1069 2766 1631 
L 2766 1759 
L 2194 1759 
z
M 3341 1997 
L 3341 0 
L 2766 0 
L 2766 531 
Q 2569 213 2275 61 
Q 1981 -91 1556 -91 
Q 1019 -91 701 211 
Q 384 513 384 1019 
Q 384 1609 779 1909 
Q 1175 2209 1959 2209 
L 2766 2209 
L 2766 2266 
Q 2766 2663 2505 2880 
Q 2244 3097 1772 3097 
Q 1472 3097 1187 3025 
Q 903 2953 641 2809 
L 641 3341 
Q 956 3463 1253 3523 
Q 1550 3584 1831 3584 
Q 2591 3584 2966 3190 
Q 3341 2797 3341 1997 
z
" id="DejaVuSans-61" transform="scale(0.015625)"/>
       <path d="M 1172 4494 
L 1172 3500 
L 2356 3500 
L 2356 3053 
L 1172 3053 
L 1172 1153 
Q 1172 725 1289 603 
Q 1406 481 1766 481 
L 2356 481 
L 2356 0 
L 1766 0 
Q 1100 0 847 248 
Q 594 497 594 1153 
L 594 3053 
L 172 3053 
L 172 3500 
L 594 3500 
L 594 4494 
L 1172 4494 
z
" id="DejaVuSans-74" transform="scale(0.015625)"/>
       <path d="M 3597 1894 
L 3597 1613 
L 953 1613 
Q 991 1019 1311 708 
Q 1631 397 2203 397 
Q 2534 397 2845 478 
Q 3156 559 3463 722 
L 3463 178 
Q 3153 47 2828 -22 
Q 2503 -91 2169 -91 
Q 1331 -91 842 396 
Q 353 884 353 1716 
Q 353 2575 817 3079 
Q 1281 3584 2069 3584 
Q 2775 3584 3186 3129 
Q 3597 2675 3597 1894 
z
M 3022 2063 
Q 3016 2534 2758 2815 
Q 2500 3097 2075 3097 
Q 1594 3097 1305 2825 
Q 1016 2553 972 2059 
L 3022 2063 
z
" id="DejaVuSans-65" transform="scale(0.015625)"/>
      </defs>
      <use xlink:href="#DejaVuSans-64"/>
      <use x="63.476562" xlink:href="#DejaVuSans-61"/>
      <use x="124.755859" xlink:href="#DejaVuSans-74"/>
      <use x="163.964844" xlink:href="#DejaVuSans-65"/>
     </g>
    </g>
   </g>
   <g id="matplotlib.axis_2">
    <g id="ytick_1">
     <g id="line2d_8">
      <defs>
       <path d="M 0 0 
L -3.5 0 
" id="me8c790df88" style="stroke:#000000;stroke-width:0.8;"/>
      </defs>
      <g>
       <use style="stroke:#000000;stroke-width:0.8;" x="57.6" xlink:href="#me8c790df88" y="241.430963"/>
      </g>
     </g>
     <g id="text_9">
      <!-- 50000 -->
      <g transform="translate(18.7875 245.230181)scale(0.1 -0.1)">
       <use xlink:href="#DejaVuSans-35"/>
       <use x="63.623047" xlink:href="#DejaVuSans-30"/>
       <use x="127.246094" xlink:href="#DejaVuSans-30"/>
       <use x="190.869141" xlink:href="#DejaVuSans-30"/>
       <use x="254.492188" xlink:href="#DejaVuSans-30"/>
      </g>
     </g>
    </g>
    <g id="ytick_2">
     <g id="line2d_9">
      <g>
       <use style="stroke:#000000;stroke-width:0.8;" x="57.6" xlink:href="#me8c790df88" y="203.138354"/>
      </g>
     </g>
     <g id="text_10">
      <!-- 60000 -->
      <g transform="translate(18.7875 206.937573)scale(0.1 -0.1)">
       <use xlink:href="#DejaVuSans-36"/>
       <use x="63.623047" xlink:href="#DejaVuSans-30"/>
       <use x="127.246094" xlink:href="#DejaVuSans-30"/>
       <use x="190.869141" xlink:href="#DejaVuSans-30"/>
       <use x="254.492188" xlink:href="#DejaVuSans-30"/>
      </g>
     </g>
    </g>
    <g id="ytick_3">
     <g id="line2d_10">
      <g>
       <use style="stroke:#000000;stroke-width:0.8;" x="57.6" xlink:href="#me8c790df88" y="164.845746"/>
      </g>
     </g>
     <g id="text_11">
      <!-- 70000 -->
      <g transform="translate(18.7875 168.644965)scale(0.1 -0.1)">
       <defs>
        <path d="M 525 4666 
L 3525 4666 
L 3525 4397 
L 1831 0 
L 1172 0 
L 2766 4134 
L 525 4134 
L 525 4666 
z
" id="DejaVuSans-37" transform="scale(0.015625)"/>
       </defs>
       <use xlink:href="#DejaVuSans-37"/>
       <use x="63.623047" xlink:href="#DejaVuSans-30"/>
       <use x="127.246094" xlink:href="#DejaVuSans-30"/>
       <use x="190.869141" xlink:href="#DejaVuSans-30"/>
       <use x="254.492188" xlink:href="#DejaVuSans-30"/>
      </g>
     </g>
    </g>
    <g id="ytick_4">
     <g id="line2d_11">
      <g>
       <use style="stroke:#000000;stroke-width:0.8;" x="57.6" xlink:href="#me8c790df88" y="126.553138"/>
      </g>
     </g>
     <g id="text_12">
      <!-- 80000 -->
      <g transform="translate(18.7875 130.352357)scale(0.1 -0.1)">
       <defs>
        <path d="M 2034 2216 
Q 1584 2216 1326 1975 
Q 1069 1734 1069 1313 
Q 1069 891 1326 650 
Q 1584 409 2034 409 
Q 2484 409 2743 651 
Q 3003 894 3003 1313 
Q 3003 1734 2745 1975 
Q 2488 2216 2034 2216 
z
M 1403 2484 
Q 997 2584 770 2862 
Q 544 3141 544 3541 
Q 544 4100 942 4425 
Q 1341 4750 2034 4750 
Q 2731 4750 3128 4425 
Q 3525 4100 3525 3541 
Q 3525 3141 3298 2862 
Q 3072 2584 2669 2484 
Q 3125 2378 3379 2068 
Q 3634 1759 3634 1313 
Q 3634 634 3220 271 
Q 2806 -91 2034 -91 
Q 1263 -91 848 271 
Q 434 634 434 1313 
Q 434 1759 690 2068 
Q 947 2378 1403 2484 
z
M 1172 3481 
Q 1172 3119 1398 2916 
Q 1625 2713 2034 2713 
Q 2441 2713 2670 2916 
Q 2900 3119 2900 3481 
Q 2900 3844 2670 4047 
Q 2441 4250 2034 4250 
Q 1625 4250 1398 4047 
Q 1172 3844 1172 3481 
z
" id="DejaVuSans-38" transform="scale(0.015625)"/>
       </defs>
       <use xlink:href="#DejaVuSans-38"/>
       <use x="63.623047" xlink:href="#DejaVuSans-30"/>
       <use x="127.246094" xlink:href="#DejaVuSans-30"/>
       <use x="190.869141" xlink:href="#DejaVuSans-30"/>
       <use x="254.492188" xlink:href="#DejaVuSans-30"/>
      </g>
     </g>
    </g>
    <g id="ytick_5">
     <g id="line2d_12">
      <g>
       <use style="stroke:#000000;stroke-width:0.8;" x="57.6" xlink:href="#me8c790df88" y="88.26053"/>
      </g>
     </g>
     <g id="text_13">
      <!-- 90000 -->
      <g transform="translate(18.7875 92.059748)scale(0.1 -0.1)">
       <defs>
        <path d="M 703 97 
L 703 672 
Q 941 559 1184 500 
Q 1428 441 1663 441 
Q 2288 441 2617 861 
Q 2947 1281 2994 2138 
Q 2813 1869 2534 1725 
Q 2256 1581 1919 1581 
Q 1219 1581 811 2004 
Q 403 2428 403 3163 
Q 403 3881 828 4315 
Q 1253 4750 1959 4750 
Q 2769 4750 3195 4129 
Q 3622 3509 3622 2328 
Q 3622 1225 3098 567 
Q 2575 -91 1691 -91 
Q 1453 -91 1209 -44 
Q 966 3 703 97 
z
M 1959 2075 
Q 2384 2075 2632 2365 
Q 2881 2656 2881 3163 
Q 2881 3666 2632 3958 
Q 2384 4250 1959 4250 
Q 1534 4250 1286 3958 
Q 1038 3666 1038 3163 
Q 1038 2656 1286 2365 
Q 1534 2075 1959 2075 
z
" id="DejaVuSans-39" transform="scale(0.015625)"/>
       </defs>
       <use xlink:href="#DejaVuSans-39"/>
       <use x="63.623047" xlink:href="#DejaVuSans-30"/>
       <use x="127.246094" xlink:href="#DejaVuSans-30"/>
       <use x="190.869141" xlink:href="#DejaVuSans-30"/>
       <use x="254.492188" xlink:href="#DejaVuSans-30"/>
      </g>
     </g>
    </g>
    <g id="ytick_6">
     <g id="line2d_13">
      <g>
       <use style="stroke:#000000;stroke-width:0.8;" x="57.6" xlink:href="#me8c790df88" y="49.967921"/>
      </g>
     </g>
     <g id="text_14">
      <!-- 100000 -->
      <g transform="translate(12.425 53.76714)scale(0.1 -0.1)">
       <use xlink:href="#DejaVuSans-31"/>
       <use x="63.623047" xlink:href="#DejaVuSans-30"/>
       <use x="127.246094" xlink:href="#DejaVuSans-30"/>
       <use x="190.869141" xlink:href="#DejaVuSans-30"/>
       <use x="254.492188" xlink:href="#DejaVuSans-30"/>
       <use x="318.115234" xlink:href="#DejaVuSans-30"/>
      </g>
     </g>
    </g>
   </g>
   <g id="line2d_14">
    <path clip-path="url(#p26ce8b6ad9)" d="M 73.832727 60.522864 
L 75.497622 56.252555 
L 80.492308 52.154182 
L 82.157203 64.450117 
L 83.822098 64.218375 
L 87.151888 64.067002 
L 92.146573 72.410309 
L 93.811469 81.110687 
L 95.476364 103.764229 
L 97.141259 101.920879 
L 98.806154 120.125484 
L 103.800839 119.814902 
L 105.465734 103.636611 
L 107.130629 96.848882 
L 108.795524 115.654301 
L 110.46042 118.072471 
L 115.455105 132.030505 
L 117.12 128.305889 
L 118.784895 123.894253 
L 120.44979 131.720411 
L 122.114685 120.811981 
L 127.109371 129.173706 
L 128.774266 117.538298 
L 130.439161 116.449332 
L 132.104056 113.704836 
L 138.763636 114.492328 
L 140.428531 119.184602 
L 142.093427 124.962296 
L 143.758322 117.985458 
L 145.423217 125.779748 
L 150.417902 114.2192 
L 152.082797 122.907872 
L 153.747692 145.521296 
L 155.412587 147.096991 
L 157.077483 143.543947 
L 162.072168 147.960796 
L 163.737063 142.072954 
L 165.401958 139.424084 
L 167.066853 156.938115 
L 168.731748 156.288391 
L 175.391329 170.617606 
L 177.056224 176.932521 
L 178.721119 181.811181 
L 180.386014 192.338733 
L 185.380699 198.594506 
L 187.045594 204.802571 
L 188.71049 204.552564 
L 190.375385 221.814873 
L 192.04028 216.949128 
L 198.69986 186.132168 
L 200.364755 197.098584 
L 202.02965 205.345653 
L 203.694545 197.067107 
L 208.689231 198.895664 
L 210.354126 188.208646 
L 212.019021 174.057744 
L 213.683916 181.572495 
L 215.348811 192.180976 
L 220.343497 197.063436 
L 222.008392 173.969006 
L 223.673287 176.122905 
L 225.338182 189.280388 
L 227.003077 197.842928 
L 233.662657 206.577113 
L 235.327552 215.145096 
L 236.992448 201.46547 
L 238.657343 197.227495 
L 243.652028 187.089616 
L 245.316923 188.167312 
L 246.981818 184.544266 
L 248.646713 196.990276 
L 250.311608 208.514031 
L 255.306294 219.574171 
L 256.971189 215.055889 
L 258.636084 205.56886 
L 260.300979 212.865646 
L 261.965874 226.005422 
L 266.960559 240.373125 
L 268.625455 229.985028 
L 270.29035 210.391042 
L 271.955245 201.951938 
L 273.62014 192.315065 
L 278.614825 191.591041 
L 280.27972 173.189111 
L 281.944615 166.251984 
L 283.60951 162.705796 
L 285.274406 166.130727 
L 290.269091 141.100695 
L 291.933986 130.066377 
L 293.598881 139.753806 
L 295.263776 150.478679 
L 296.928671 151.220036 
L 301.923357 137.694635 
L 303.588252 157.313768 
L 305.253147 168.446353 
L 306.918042 173.53323 
L 308.582937 183.081296 
L 313.577622 185.510129 
L 315.242517 189.00453 
L 316.907413 179.845099 
L 318.572308 187.467082 
L 325.231888 192.492919 
L 326.896783 183.237429 
L 328.561678 196.554392 
L 330.226573 202.826935 
L 331.891469 206.1725 
L 336.886154 203.777871 
L 338.551049 219.922515 
L 340.215944 218.324375 
L 341.880839 216.333289 
L 343.545734 222.268136 
L 348.54042 216.455923 
L 350.205315 214.172753 
L 351.87021 205.705269 
L 353.535105 224.434449 
L 355.2 232.039633 
L 360.194685 250.199123 
L 361.85958 251.470164 
L 363.524476 265.797818 
L 365.189371 257.980138 
L 366.854266 243.47316 
L 371.848951 248.083255 
L 373.513846 233.642992 
L 375.178741 243.217069 
L 376.843636 237.18978 
L 378.508531 243.307549 
L 383.503217 243.510942 
L 385.168112 255.606202 
L 388.497902 232.688424 
L 390.162797 218.211013 
L 396.822378 219.49627 
L 398.487273 222.404783 
L 398.487273 222.404783 
" style="fill:none;stroke:#0000ff;stroke-linecap:square;stroke-opacity:0.9;stroke-width:2;"/>
   </g>
   <g id="line2d_15">
    <path clip-path="url(#p26ce8b6ad9)" d="M 73.832727 60.522864 
L 75.497622 56.435124 
L 80.492308 52.277502 
L 82.157203 64.377109 
L 83.822098 64.07244 
L 87.151888 75.827184 
L 92.146573 72.588157 
L 93.811469 81.266119 
L 95.476364 103.782956 
L 97.141259 101.932798 
L 98.806154 119.657216 
L 103.800839 119.380859 
L 105.465734 103.950429 
L 107.130629 96.786464 
L 108.795524 115.297745 
L 110.46042 117.954507 
L 115.455105 131.822415 
L 118.784895 123.885958 
L 120.44979 131.698318 
L 122.114685 120.729308 
L 127.109371 129.132252 
L 128.774266 117.711825 
L 130.439161 116.826147 
L 132.104056 113.944927 
L 138.763636 114.792742 
L 140.428531 119.385082 
L 142.093427 125.3976 
L 143.758322 117.974685 
L 145.423217 125.747092 
L 150.417902 113.928019 
L 152.082797 122.539714 
L 153.747692 143.211888 
L 155.412587 145.025457 
L 157.077483 142.056013 
L 162.072168 145.998417 
L 163.737063 139.67019 
L 165.401958 135.132471 
L 167.066853 151.470754 
L 168.731748 150.389099 
L 175.391329 164.287041 
L 177.056224 170.478957 
L 178.721119 175.534213 
L 180.386014 187.6103 
L 185.380699 193.861542 
L 187.045594 199.621524 
L 188.71049 200.217141 
L 190.375385 217.567677 
L 192.04028 213.064946 
L 198.69986 184.108419 
L 200.364755 192.525136 
L 202.02965 200.109952 
L 203.694545 192.264778 
L 208.689231 193.322524 
L 210.354126 183.978482 
L 212.019021 171.477571 
L 213.683916 179.735655 
L 215.348811 191.967362 
L 220.343497 196.105514 
L 222.008392 176.080586 
L 223.673287 177.373902 
L 225.338182 190.729805 
L 227.003077 197.998233 
L 233.662657 205.345481 
L 235.327552 214.138777 
L 236.992448 202.793886 
L 238.657343 197.017396 
L 243.652028 188.159114 
L 245.316923 190.15565 
L 246.981818 185.591976 
L 250.311608 209.024594 
L 255.306294 220.400876 
L 256.971189 215.777314 
L 258.636084 205.821135 
L 260.300979 213.098201 
L 261.965874 224.797041 
L 266.960559 236.892856 
L 268.625455 227.206654 
L 270.29035 209.452941 
L 271.955245 202.44163 
L 273.62014 194.223543 
L 278.614825 192.247786 
L 280.27972 176.936203 
L 281.944615 171.842124 
L 283.60951 167.705733 
L 285.274406 170.167334 
L 291.933986 139.885047 
L 293.598881 149.110873 
L 295.263776 159.139758 
L 296.928671 159.499974 
L 301.923357 147.21368 
L 303.588252 166.007762 
L 305.253147 176.184429 
L 306.918042 179.987137 
L 308.582937 188.578436 
L 313.577622 190.827904 
L 315.242517 193.611833 
L 316.907413 184.37275 
L 318.572308 190.941067 
L 325.231888 195.073363 
L 326.896783 187.085705 
L 328.561678 198.759525 
L 330.226573 203.876801 
L 331.891469 207.60686 
L 336.886154 207.050742 
L 338.551049 223.500374 
L 340.215944 221.23249 
L 341.880839 219.274144 
L 343.545734 224.720919 
L 348.54042 220.405839 
L 350.205315 217.804877 
L 351.87021 209.467859 
L 353.535105 227.762779 
L 355.2 233.127885 
L 360.194685 250.098681 
L 361.85958 250.480188 
L 363.524476 263.105363 
L 365.189371 257.822524 
L 366.854266 244.854348 
L 371.848951 248.781441 
L 373.513846 235.46704 
L 375.178741 245.00728 
L 376.843636 240.416355 
L 378.508531 245.439636 
L 383.503217 243.920618 
L 385.168112 254.52315 
L 386.833007 244.243618 
L 388.497902 232.735407 
L 390.162797 219.674438 
L 396.822378 222.803774 
L 398.487273 228.994294 
L 398.487273 228.994294 
" style="fill:none;stroke:#ff0000;stroke-linecap:square;stroke-opacity:0.9;stroke-width:2;"/>
   </g>
   <g id="line2d_16">
    <path clip-path="url(#p26ce8b6ad9)" d="M 73.832727 60.522864 
L 75.497622 56.249258 
L 80.492308 52.587612 
L 82.157203 64.152989 
L 83.822098 63.570826 
L 87.151888 74.905105 
L 92.146573 72.256258 
L 93.811469 80.75386 
L 95.476364 103.897801 
L 97.141259 101.183105 
L 98.806154 119.230808 
L 103.800839 118.653611 
L 105.465734 102.414051 
L 107.130629 95.493499 
L 108.795524 114.224366 
L 110.46042 117.663306 
L 115.455105 132.529374 
L 117.12 127.061242 
L 118.784895 123.031484 
L 120.44979 131.230999 
L 122.114685 117.912946 
L 127.109371 126.206924 
L 128.774266 114.457109 
L 130.439161 114.223417 
L 132.104056 111.610751 
L 138.763636 113.286346 
L 140.428531 118.026375 
L 142.093427 124.069216 
L 143.758322 115.01777 
L 145.423217 123.870096 
L 150.417902 112.66883 
L 152.082797 121.538034 
L 153.747692 144.01678 
L 155.412587 145.637024 
L 157.077483 141.547334 
L 162.072168 145.766032 
L 163.737063 139.971269 
L 165.401958 136.960367 
L 167.066853 154.74826 
L 168.731748 154.097557 
L 175.391329 168.973596 
L 177.056224 175.361093 
L 178.721119 180.250549 
L 180.386014 190.556117 
L 185.380699 197.051546 
L 187.045594 203.174383 
L 188.71049 203.13167 
L 190.375385 220.430314 
L 192.04028 215.517981 
L 198.69986 185.080234 
L 200.364755 195.42858 
L 202.02965 204.049206 
L 203.694545 195.664263 
L 208.689231 197.713553 
L 210.354126 186.552694 
L 212.019021 172.331062 
L 213.683916 180.243667 
L 215.348811 190.746321 
L 220.343497 195.817598 
L 222.008392 173.011241 
L 223.673287 175.289757 
L 225.338182 188.427609 
L 227.003077 197.069947 
L 233.662657 205.55535 
L 235.327552 214.363332 
L 236.992448 200.493302 
L 238.657343 196.597471 
L 243.652028 186.270941 
L 245.316923 187.427801 
L 246.981818 183.54808 
L 248.646713 196.429049 
L 250.311608 207.871786 
L 255.306294 219.524767 
L 256.971189 215.268729 
L 258.636084 205.176579 
L 260.300979 213.218547 
L 261.965874 226.17952 
L 266.960559 240.300842 
L 268.625455 230.084152 
L 270.29035 210.460424 
L 271.955245 202.515263 
L 273.62014 192.681966 
L 278.614825 191.702928 
L 280.27972 172.396956 
L 281.944615 164.725888 
L 283.60951 161.421061 
L 285.274406 164.623833 
L 290.269091 137.460287 
L 291.933986 126.668776 
L 293.598881 136.7768 
L 295.263776 147.816729 
L 296.928671 147.945262 
L 301.923357 134.430098 
L 303.588252 154.219746 
L 305.253147 164.998302 
L 306.918042 170.078844 
L 308.582937 179.620483 
L 313.577622 181.700263 
L 315.242517 185.178571 
L 316.907413 175.482565 
L 318.572308 183.267703 
L 325.231888 188.428738 
L 326.896783 178.972333 
L 328.561678 192.316023 
L 330.226573 199.252558 
L 331.891469 202.357194 
L 336.886154 200.03253 
L 338.551049 216.65697 
L 340.215944 214.932717 
L 341.880839 212.74479 
L 343.545734 219.097334 
L 350.205315 211.180652 
L 351.87021 202.012787 
L 353.535105 221.239148 
L 355.2 228.893487 
L 360.194685 247.639395 
L 361.85958 248.876871 
L 363.524476 263.583749 
L 365.189371 255.710238 
L 366.854266 240.456025 
L 371.848951 245.277644 
L 373.513846 230.438079 
L 375.178741 240.446314 
L 376.843636 234.421534 
L 378.508531 240.560311 
L 383.503217 240.422022 
L 385.168112 252.862145 
L 388.497902 228.878544 
L 390.162797 213.775828 
L 396.822378 215.29988 
L 398.487273 223.332243 
L 398.487273 223.332243 
" style="fill:none;stroke:#008000;stroke-linecap:square;stroke-opacity:0.9;stroke-width:2;"/>
   </g>
   <g id="line2d_17">
    <path clip-path="url(#p26ce8b6ad9)" d="M 73.832727 60.522864 
L 75.497622 56.48792 
L 80.492308 52.669393 
L 82.157203 63.925366 
L 83.822098 63.43784 
L 87.151888 74.979548 
L 92.146573 72.15201 
L 93.811469 80.712668 
L 95.476364 103.931093 
L 97.141259 101.443965 
L 98.806154 119.2052 
L 103.800839 118.508111 
L 105.465734 102.706161 
L 107.130629 95.542908 
L 108.795524 114.450367 
L 110.46042 117.626372 
L 115.455105 132.523836 
L 117.12 128.043544 
L 118.784895 124.270171 
L 120.44979 132.190401 
L 122.114685 118.959853 
L 127.109371 127.273265 
L 128.774266 115.244904 
L 130.439161 115.068254 
L 132.104056 112.319931 
L 138.763636 114.052274 
L 140.428531 119.051492 
L 142.093427 124.837318 
L 143.758322 115.914246 
L 145.423217 124.257977 
L 150.417902 113.54778 
L 152.082797 122.032876 
L 153.747692 144.670811 
L 155.412587 146.418488 
L 157.077483 142.695001 
L 162.072168 147.188851 
L 163.737063 141.324765 
L 165.401958 138.423311 
L 167.066853 155.946439 
L 168.731748 155.336915 
L 175.391329 170.184999 
L 177.056224 176.463259 
L 178.721119 181.432168 
L 180.386014 191.797235 
L 185.380699 197.83203 
L 187.045594 203.997669 
L 188.71049 204.298321 
L 190.375385 221.224881 
L 192.04028 216.654957 
L 198.69986 185.802885 
L 200.364755 196.593132 
L 202.02965 205.1238 
L 203.694545 196.73234 
L 208.689231 198.418246 
L 210.354126 187.621383 
L 212.019021 173.414647 
L 213.683916 181.575731 
L 215.348811 191.614966 
L 220.343497 196.682256 
L 222.008392 173.860143 
L 223.673287 175.896046 
L 225.338182 189.179331 
L 227.003077 197.462758 
L 233.662657 206.186514 
L 235.327552 214.63395 
L 236.992448 201.053748 
L 238.657343 196.608545 
L 243.652028 186.263649 
L 245.316923 187.657069 
L 246.981818 183.818362 
L 248.646713 196.373815 
L 250.311608 207.861475 
L 255.306294 219.722638 
L 256.971189 215.267147 
L 258.636084 205.311988 
L 260.300979 213.352523 
L 261.965874 226.406276 
L 266.960559 240.51775 
L 268.625455 229.848792 
L 270.29035 210.58065 
L 271.955245 202.677819 
L 273.62014 193.28936 
L 278.614825 192.14224 
L 280.27972 172.762762 
L 281.944615 165.748696 
L 283.60951 161.988423 
L 285.274406 165.46258 
L 290.269091 138.100328 
L 291.933986 127.408103 
L 295.263776 148.24071 
L 296.928671 148.964394 
L 301.923357 135.992766 
L 303.588252 155.397729 
L 305.253147 166.252414 
L 306.918042 171.478382 
L 308.582937 180.663995 
L 313.577622 182.856429 
L 315.242517 186.546935 
L 316.907413 176.826643 
L 318.572308 184.514793 
L 325.231888 189.685643 
L 326.896783 179.972066 
L 328.561678 193.578288 
L 330.226573 200.147548 
L 331.891469 203.466594 
L 336.886154 201.055952 
L 338.551049 217.71203 
L 341.880839 213.873642 
L 343.545734 220.009883 
L 350.205315 212.186182 
L 351.87021 203.287123 
L 353.535105 222.521119 
L 355.2 229.775799 
L 360.194685 248.32985 
L 361.85958 249.531934 
L 363.524476 264.346616 
L 365.189371 256.535914 
L 366.854266 241.513841 
L 371.848951 246.548756 
L 373.513846 231.726655 
L 375.178741 241.360297 
L 376.843636 235.405844 
L 378.508531 241.433912 
L 383.503217 241.518103 
L 385.168112 253.883741 
L 386.833007 241.369224 
L 388.497902 229.886748 
L 390.162797 214.872699 
L 396.822378 217.139421 
L 398.487273 224.814769 
L 398.487273 224.814769 
" style="fill:none;stroke:#ec5283;stroke-linecap:square;stroke-width:2;"/>
   </g>
   <g id="line2d_18">
    <path clip-path="url(#p26ce8b6ad9)" d="M 73.832727 60.522864 
L 75.497622 56.4853 
L 80.492308 52.62837 
L 82.157203 63.979654 
L 83.822098 63.64756 
L 87.151888 74.668839 
L 92.146573 71.973204 
L 93.811469 80.263965 
L 95.476364 102.830106 
L 97.141259 100.157497 
L 98.806154 117.727394 
L 103.800839 117.17603 
L 105.465734 101.662057 
L 107.130629 94.290112 
L 108.795524 113.150926 
L 110.46042 116.146819 
L 115.455105 130.804105 
L 117.12 125.594737 
L 118.784895 121.680986 
L 120.44979 129.274039 
L 122.114685 116.480184 
L 127.109371 124.713943 
L 128.774266 113.142053 
L 130.439161 112.963537 
L 132.104056 110.152721 
L 138.763636 111.977989 
L 140.428531 116.737957 
L 142.093427 122.515209 
L 143.758322 114.014493 
L 145.423217 122.213612 
L 150.417902 111.45581 
L 152.082797 119.931642 
L 153.747692 141.899908 
L 155.412587 143.479989 
L 157.077483 139.512892 
L 162.072168 143.645016 
L 163.737063 137.944426 
L 165.401958 135.099473 
L 167.066853 152.331062 
L 168.731748 152.043037 
L 175.391329 166.288105 
L 177.056224 172.47748 
L 178.721119 177.455888 
L 180.386014 187.559641 
L 185.380699 193.830675 
L 187.045594 199.500739 
L 188.71049 199.630512 
L 190.375385 216.443623 
L 192.04028 211.923824 
L 198.69986 181.905158 
L 200.364755 192.47961 
L 202.02965 200.588762 
L 203.694545 192.302503 
L 208.689231 194.05383 
L 210.354126 183.799116 
L 212.019021 169.859332 
L 213.683916 177.587189 
L 215.348811 187.731402 
L 220.343497 192.599341 
L 222.008392 170.396282 
L 223.673287 172.235452 
L 225.338182 185.602424 
L 227.003077 193.797118 
L 233.662657 201.994649 
L 235.327552 210.310782 
L 236.992448 196.847626 
L 238.657343 193.126122 
L 243.652028 183.166146 
L 245.316923 184.305803 
L 246.981818 180.460702 
L 248.646713 192.984625 
L 250.311608 204.227808 
L 255.306294 215.891922 
L 256.971189 211.324769 
L 258.636084 201.869647 
L 260.300979 209.346175 
L 261.965874 222.257664 
L 266.960559 236.097687 
L 268.625455 225.749573 
L 270.29035 206.547389 
L 271.955245 199.07803 
L 273.62014 189.522688 
L 278.614825 188.462751 
L 280.27972 169.72687 
L 281.944615 162.294781 
L 283.60951 158.826704 
L 285.274406 162.058358 
L 290.269091 135.552839 
L 291.933986 125.119487 
L 293.598881 134.963592 
L 295.263776 145.634251 
L 296.928671 145.554668 
L 301.923357 132.892843 
L 303.588252 152.083558 
L 305.253147 162.465743 
L 306.918042 167.547454 
L 308.582937 176.568945 
L 313.577622 178.486157 
L 315.242517 182.218321 
L 316.907413 172.747839 
L 318.572308 180.328678 
L 325.231888 185.625476 
L 326.896783 175.88885 
L 328.561678 189.223212 
L 330.226573 195.651638 
L 331.891469 198.947328 
L 336.886154 196.557925 
L 338.551049 212.830461 
L 341.880839 209.212026 
L 343.545734 214.958366 
L 348.54042 209.772103 
L 350.205315 207.475702 
L 351.87021 198.465752 
L 353.535105 217.234816 
L 355.2 224.577757 
L 360.194685 242.803633 
L 361.85958 244.247958 
L 363.524476 258.494923 
L 365.189371 250.857154 
L 366.854266 236.310877 
L 371.848951 240.846718 
L 373.513846 226.495666 
L 375.178741 236.108774 
L 376.843636 230.258513 
L 378.508531 236.082303 
L 383.503217 236.100058 
L 385.168112 248.098162 
L 388.497902 224.783777 
L 390.162797 210.014964 
L 396.822378 211.532405 
L 398.487273 219.46885 
L 398.487273 219.46885 
" style="fill:none;stroke:#00ff00;stroke-linecap:square;stroke-opacity:0.9;stroke-width:2;"/>
   </g>
   <g id="line2d_19">
    <path clip-path="url(#p26ce8b6ad9)" d="M 73.832727 60.522864 
L 75.497622 58.581509 
L 80.492308 57.921833 
L 82.157203 62.840259 
L 83.822098 63.193135 
L 87.151888 73.740346 
L 92.146573 73.840812 
L 93.811469 81.370806 
L 95.476364 103.5361 
L 97.141259 99.654961 
L 98.806154 116.614634 
L 103.800839 113.020993 
L 105.465734 97.125057 
L 107.130629 87.270755 
L 108.795524 107.216233 
L 110.46042 112.473974 
L 115.455105 124.5226 
L 117.12 121.618504 
L 118.784895 117.511506 
L 120.44979 126.265014 
L 122.114685 110.172538 
L 127.109371 120.738859 
L 128.774266 107.217067 
L 130.439161 107.851726 
L 132.104056 104.239769 
L 138.763636 109.437008 
L 140.428531 115.144546 
L 142.093427 124.241649 
L 143.758322 110.373721 
L 145.423217 121.024437 
L 150.417902 111.571573 
L 152.082797 119.545139 
L 153.747692 145.571333 
L 155.412587 147.571509 
L 157.077483 143.61158 
L 162.072168 148.870745 
L 163.737063 143.486464 
L 165.401958 143.417834 
L 167.066853 161.999829 
L 168.731748 161.570952 
L 175.391329 177.320581 
L 177.056224 184.356403 
L 178.721119 189.233202 
L 180.386014 199.191424 
L 185.380699 202.965571 
L 187.045594 208.701788 
L 188.71049 207.938918 
L 190.375385 225.056118 
L 192.04028 220.487755 
L 197.034965 194.187653 
L 198.69986 186.098831 
L 200.364755 199.22322 
L 202.02965 209.065869 
L 203.694545 199.313609 
L 208.689231 202.473636 
L 210.354126 191.423038 
L 212.019021 175.867413 
L 213.683916 183.683718 
L 215.348811 193.167052 
L 220.343497 197.967975 
L 222.008392 167.903879 
L 223.673287 171.463251 
L 225.338182 186.364734 
L 227.003077 197.232897 
L 233.662657 206.791875 
L 235.327552 215.131767 
L 236.992448 198.701625 
L 238.657343 196.226685 
L 243.652028 183.794446 
L 245.316923 179.094362 
L 246.981818 176.547098 
L 248.646713 192.782986 
L 250.311608 204.921521 
L 255.306294 217.081602 
L 256.971189 214.007636 
L 258.636084 201.781521 
L 260.300979 212.222256 
L 261.965874 224.880026 
L 266.960559 240.903957 
L 268.625455 229.265571 
L 270.29035 206.357867 
L 271.955245 199.572152 
L 273.62014 188.435108 
L 278.614825 187.438528 
L 280.27972 163.680758 
L 281.944615 156.558315 
L 283.60951 152.490343 
L 285.274406 159.038347 
L 290.269091 136.472975 
L 291.933986 121.136895 
L 293.598881 128.597348 
L 295.263776 141.396632 
L 296.928671 138.229215 
L 301.923357 125.228233 
L 303.588252 145.410387 
L 305.253147 154.992925 
L 306.918042 159.634059 
L 308.582937 167.791151 
L 313.577622 169.715307 
L 315.242517 172.47106 
L 316.907413 162.43581 
L 318.572308 172.103778 
L 325.231888 179.279383 
L 326.896783 168.520537 
L 328.561678 185.266405 
L 330.226573 193.840225 
L 331.891469 196.408921 
L 336.886154 190.701354 
L 338.551049 206.763821 
L 340.215944 207.11066 
L 341.880839 204.547257 
L 343.545734 211.727431 
L 348.54042 202.533733 
L 350.205315 201.061158 
L 351.87021 190.762095 
L 353.535105 212.180712 
L 355.2 222.644949 
L 360.194685 243.097477 
L 361.85958 244.295341 
L 363.524476 261.069599 
L 365.189371 250.965436 
L 366.854266 233.406772 
L 371.848951 239.567574 
L 373.513846 223.496225 
L 375.178741 233.937585 
L 376.843636 226.992246 
L 378.508531 234.218777 
L 383.503217 234.708052 
L 385.168112 249.186922 
L 386.833007 235.654238 
L 388.497902 223.5383 
L 390.162797 207.309101 
L 396.822378 208.076766 
L 398.487273 217.519705 
L 398.487273 217.519705 
" style="fill:none;stroke:#a5b9cf;stroke-linecap:square;stroke-width:2;"/>
   </g>
   <g id="patch_3">
    <path d="M 57.6 276.48 
L 57.6 41.472 
" style="fill:none;stroke:#000000;stroke-linecap:square;stroke-linejoin:miter;stroke-width:0.8;"/>
   </g>
   <g id="patch_4">
    <path d="M 414.72 276.48 
L 414.72 41.472 
" style="fill:none;stroke:#000000;stroke-linecap:square;stroke-linejoin:miter;stroke-width:0.8;"/>
   </g>
   <g id="patch_5">
    <path d="M 57.6 276.48 
L 414.72 276.48 
" style="fill:none;stroke:#000000;stroke-linecap:square;stroke-linejoin:miter;stroke-width:0.8;"/>
   </g>
   <g id="patch_6">
    <path d="M 57.6 41.472 
L 414.72 41.472 
" style="fill:none;stroke:#000000;stroke-linecap:square;stroke-linejoin:miter;stroke-width:0.8;"/>
   </g>
   <g id="text_15">
    <!-- STONKS -->
    <g transform="translate(211.730625 22.034625)scale(0.12 -0.12)">
     <defs>
      <path d="M 3425 4513 
L 3425 3897 
Q 3066 4069 2747 4153 
Q 2428 4238 2131 4238 
Q 1616 4238 1336 4038 
Q 1056 3838 1056 3469 
Q 1056 3159 1242 3001 
Q 1428 2844 1947 2747 
L 2328 2669 
Q 3034 2534 3370 2195 
Q 3706 1856 3706 1288 
Q 3706 609 3251 259 
Q 2797 -91 1919 -91 
Q 1588 -91 1214 -16 
Q 841 59 441 206 
L 441 856 
Q 825 641 1194 531 
Q 1563 422 1919 422 
Q 2459 422 2753 634 
Q 3047 847 3047 1241 
Q 3047 1584 2836 1778 
Q 2625 1972 2144 2069 
L 1759 2144 
Q 1053 2284 737 2584 
Q 422 2884 422 3419 
Q 422 4038 858 4394 
Q 1294 4750 2059 4750 
Q 2388 4750 2728 4690 
Q 3069 4631 3425 4513 
z
" id="DejaVuSans-53" transform="scale(0.015625)"/>
      <path d="M -19 4666 
L 3928 4666 
L 3928 4134 
L 2272 4134 
L 2272 0 
L 1638 0 
L 1638 4134 
L -19 4134 
L -19 4666 
z
" id="DejaVuSans-54" transform="scale(0.015625)"/>
      <path d="M 2522 4238 
Q 1834 4238 1429 3725 
Q 1025 3213 1025 2328 
Q 1025 1447 1429 934 
Q 1834 422 2522 422 
Q 3209 422 3611 934 
Q 4013 1447 4013 2328 
Q 4013 3213 3611 3725 
Q 3209 4238 2522 4238 
z
M 2522 4750 
Q 3503 4750 4090 4092 
Q 4678 3434 4678 2328 
Q 4678 1225 4090 567 
Q 3503 -91 2522 -91 
Q 1538 -91 948 565 
Q 359 1222 359 2328 
Q 359 3434 948 4092 
Q 1538 4750 2522 4750 
z
" id="DejaVuSans-4f" transform="scale(0.015625)"/>
      <path d="M 628 4666 
L 1478 4666 
L 3547 763 
L 3547 4666 
L 4159 4666 
L 4159 0 
L 3309 0 
L 1241 3903 
L 1241 0 
L 628 0 
L 628 4666 
z
" id="DejaVuSans-4e" transform="scale(0.015625)"/>
      <path d="M 628 4666 
L 1259 4666 
L 1259 2694 
L 3353 4666 
L 4166 4666 
L 1850 2491 
L 4331 0 
L 3500 0 
L 1259 2247 
L 1259 0 
L 628 0 
L 628 4666 
z
" id="DejaVuSans-4b" transform="scale(0.015625)"/>
     </defs>
     <use xlink:href="#DejaVuSans-53"/>
     <use x="63.476562" xlink:href="#DejaVuSans-54"/>
     <use x="124.560547" xlink:href="#DejaVuSans-4f"/>
     <use x="203.271484" xlink:href="#DejaVuSans-4e"/>
     <use x="278.076172" xlink:href="#DejaVuSans-4b"/>
     <use x="343.652344" xlink:href="#DejaVuSans-53"/>
    </g>
    <!-- daily_report -->
    <g transform="translate(200.466563 35.472)scale(0.12 -0.12)">
     <defs>
      <path d="M 603 3500 
L 1178 3500 
L 1178 0 
L 603 0 
L 603 3500 
z
M 603 4863 
L 1178 4863 
L 1178 4134 
L 603 4134 
L 603 4863 
z
" id="DejaVuSans-69" transform="scale(0.015625)"/>
      <path d="M 603 4863 
L 1178 4863 
L 1178 0 
L 603 0 
L 603 4863 
z
" id="DejaVuSans-6c" transform="scale(0.015625)"/>
      <path d="M 2059 -325 
Q 1816 -950 1584 -1140 
Q 1353 -1331 966 -1331 
L 506 -1331 
L 506 -850 
L 844 -850 
Q 1081 -850 1212 -737 
Q 1344 -625 1503 -206 
L 1606 56 
L 191 3500 
L 800 3500 
L 1894 763 
L 2988 3500 
L 3597 3500 
L 2059 -325 
z
" id="DejaVuSans-79" transform="scale(0.015625)"/>
      <path d="M 3263 -1063 
L 3263 -1509 
L -63 -1509 
L -63 -1063 
L 3263 -1063 
z
" id="DejaVuSans-5f" transform="scale(0.015625)"/>
      <path d="M 2631 2963 
Q 2534 3019 2420 3045 
Q 2306 3072 2169 3072 
Q 1681 3072 1420 2755 
Q 1159 2438 1159 1844 
L 1159 0 
L 581 0 
L 581 3500 
L 1159 3500 
L 1159 2956 
Q 1341 3275 1631 3429 
Q 1922 3584 2338 3584 
Q 2397 3584 2469 3576 
Q 2541 3569 2628 3553 
L 2631 2963 
z
" id="DejaVuSans-72" transform="scale(0.015625)"/>
      <path d="M 1159 525 
L 1159 -1331 
L 581 -1331 
L 581 3500 
L 1159 3500 
L 1159 2969 
Q 1341 3281 1617 3432 
Q 1894 3584 2278 3584 
Q 2916 3584 3314 3078 
Q 3713 2572 3713 1747 
Q 3713 922 3314 415 
Q 2916 -91 2278 -91 
Q 1894 -91 1617 61 
Q 1341 213 1159 525 
z
M 3116 1747 
Q 3116 2381 2855 2742 
Q 2594 3103 2138 3103 
Q 1681 3103 1420 2742 
Q 1159 2381 1159 1747 
Q 1159 1113 1420 752 
Q 1681 391 2138 391 
Q 2594 391 2855 752 
Q 3116 1113 3116 1747 
z
" id="DejaVuSans-70" transform="scale(0.015625)"/>
      <path d="M 1959 3097 
Q 1497 3097 1228 2736 
Q 959 2375 959 1747 
Q 959 1119 1226 758 
Q 1494 397 1959 397 
Q 2419 397 2687 759 
Q 2956 1122 2956 1747 
Q 2956 2369 2687 2733 
Q 2419 3097 1959 3097 
z
M 1959 3584 
Q 2709 3584 3137 3096 
Q 3566 2609 3566 1747 
Q 3566 888 3137 398 
Q 2709 -91 1959 -91 
Q 1206 -91 779 398 
Q 353 888 353 1747 
Q 353 2609 779 3096 
Q 1206 3584 1959 3584 
z
" id="DejaVuSans-6f" transform="scale(0.015625)"/>
     </defs>
     <use xlink:href="#DejaVuSans-64"/>
     <use x="63.476562" xlink:href="#DejaVuSans-61"/>
     <use x="124.755859" xlink:href="#DejaVuSans-69"/>
     <use x="152.539062" xlink:href="#DejaVuSans-6c"/>
     <use x="180.322266" xlink:href="#DejaVuSans-79"/>
     <use x="239.501953" xlink:href="#DejaVuSans-5f"/>
     <use x="289.501953" xlink:href="#DejaVuSans-72"/>
     <use x="328.365234" xlink:href="#DejaVuSans-65"/>
     <use x="389.888672" xlink:href="#DejaVuSans-70"/>
     <use x="453.365234" xlink:href="#DejaVuSans-6f"/>
     <use x="514.546875" xlink:href="#DejaVuSans-72"/>
     <use x="555.660156" xlink:href="#DejaVuSans-74"/>
    </g>
   </g>
   <g id="legend_1">
    <g id="patch_7">
     <path d="M 64.6 271.48 
L 178.64375 271.48 
Q 180.64375 271.48 180.64375 269.48 
L 180.64375 182.41125 
Q 180.64375 180.41125 178.64375 180.41125 
L 64.6 180.41125 
Q 62.6 180.41125 62.6 182.41125 
L 62.6 269.48 
Q 62.6 271.48 64.6 271.48 
z
" style="fill:#ffffff;opacity:0.8;stroke:#cccccc;stroke-linejoin:miter;"/>
    </g>
    <g id="line2d_20">
     <path d="M 66.6 188.509687 
L 86.6 188.509687 
" style="fill:none;stroke:#0000ff;stroke-linecap:square;stroke-opacity:0.9;stroke-width:2;"/>
    </g>
    <g id="line2d_21"/>
    <g id="text_16">
     <!-- alpaca -->
     <g transform="translate(94.6 192.009687)scale(0.1 -0.1)">
      <defs>
       <path d="M 3122 3366 
L 3122 2828 
Q 2878 2963 2633 3030 
Q 2388 3097 2138 3097 
Q 1578 3097 1268 2742 
Q 959 2388 959 1747 
Q 959 1106 1268 751 
Q 1578 397 2138 397 
Q 2388 397 2633 464 
Q 2878 531 3122 666 
L 3122 134 
Q 2881 22 2623 -34 
Q 2366 -91 2075 -91 
Q 1284 -91 818 406 
Q 353 903 353 1747 
Q 353 2603 823 3093 
Q 1294 3584 2113 3584 
Q 2378 3584 2631 3529 
Q 2884 3475 3122 3366 
z
" id="DejaVuSans-63" transform="scale(0.015625)"/>
      </defs>
      <use xlink:href="#DejaVuSans-61"/>
      <use x="61.279297" xlink:href="#DejaVuSans-6c"/>
      <use x="89.0625" xlink:href="#DejaVuSans-70"/>
      <use x="152.539062" xlink:href="#DejaVuSans-61"/>
      <use x="213.818359" xlink:href="#DejaVuSans-63"/>
      <use x="268.798828" xlink:href="#DejaVuSans-61"/>
     </g>
    </g>
    <g id="line2d_22">
     <path d="M 66.6 203.187812 
L 86.6 203.187812 
" style="fill:none;stroke:#ff0000;stroke-linecap:square;stroke-opacity:0.9;stroke-width:2;"/>
    </g>
    <g id="line2d_23"/>
    <g id="text_17">
     <!-- mattress -->
     <g transform="translate(94.6 206.687812)scale(0.1 -0.1)">
      <defs>
       <path d="M 3328 2828 
Q 3544 3216 3844 3400 
Q 4144 3584 4550 3584 
Q 5097 3584 5394 3201 
Q 5691 2819 5691 2113 
L 5691 0 
L 5113 0 
L 5113 2094 
Q 5113 2597 4934 2840 
Q 4756 3084 4391 3084 
Q 3944 3084 3684 2787 
Q 3425 2491 3425 1978 
L 3425 0 
L 2847 0 
L 2847 2094 
Q 2847 2600 2669 2842 
Q 2491 3084 2119 3084 
Q 1678 3084 1418 2786 
Q 1159 2488 1159 1978 
L 1159 0 
L 581 0 
L 581 3500 
L 1159 3500 
L 1159 2956 
Q 1356 3278 1631 3431 
Q 1906 3584 2284 3584 
Q 2666 3584 2933 3390 
Q 3200 3197 3328 2828 
z
" id="DejaVuSans-6d" transform="scale(0.015625)"/>
       <path d="M 2834 3397 
L 2834 2853 
Q 2591 2978 2328 3040 
Q 2066 3103 1784 3103 
Q 1356 3103 1142 2972 
Q 928 2841 928 2578 
Q 928 2378 1081 2264 
Q 1234 2150 1697 2047 
L 1894 2003 
Q 2506 1872 2764 1633 
Q 3022 1394 3022 966 
Q 3022 478 2636 193 
Q 2250 -91 1575 -91 
Q 1294 -91 989 -36 
Q 684 19 347 128 
L 347 722 
Q 666 556 975 473 
Q 1284 391 1588 391 
Q 1994 391 2212 530 
Q 2431 669 2431 922 
Q 2431 1156 2273 1281 
Q 2116 1406 1581 1522 
L 1381 1569 
Q 847 1681 609 1914 
Q 372 2147 372 2553 
Q 372 3047 722 3315 
Q 1072 3584 1716 3584 
Q 2034 3584 2315 3537 
Q 2597 3491 2834 3397 
z
" id="DejaVuSans-73" transform="scale(0.015625)"/>
      </defs>
      <use xlink:href="#DejaVuSans-6d"/>
      <use x="97.412109" xlink:href="#DejaVuSans-61"/>
      <use x="158.691406" xlink:href="#DejaVuSans-74"/>
      <use x="197.900391" xlink:href="#DejaVuSans-74"/>
      <use x="237.109375" xlink:href="#DejaVuSans-72"/>
      <use x="275.972656" xlink:href="#DejaVuSans-65"/>
      <use x="337.496094" xlink:href="#DejaVuSans-73"/>
      <use x="389.595703" xlink:href="#DejaVuSans-73"/>
     </g>
    </g>
    <g id="line2d_24">
     <path d="M 66.6 217.865937 
L 86.6 217.865937 
" style="fill:none;stroke:#008000;stroke-linecap:square;stroke-opacity:0.9;stroke-width:2;"/>
    </g>
    <g id="line2d_25"/>
    <g id="text_18">
     <!-- daily-open-rebal -->
     <g transform="translate(94.6 221.365937)scale(0.1 -0.1)">
      <defs>
       <path d="M 3513 2113 
L 3513 0 
L 2938 0 
L 2938 2094 
Q 2938 2591 2744 2837 
Q 2550 3084 2163 3084 
Q 1697 3084 1428 2787 
Q 1159 2491 1159 1978 
L 1159 0 
L 581 0 
L 581 3500 
L 1159 3500 
L 1159 2956 
Q 1366 3272 1645 3428 
Q 1925 3584 2291 3584 
Q 2894 3584 3203 3211 
Q 3513 2838 3513 2113 
z
" id="DejaVuSans-6e" transform="scale(0.015625)"/>
       <path d="M 3116 1747 
Q 3116 2381 2855 2742 
Q 2594 3103 2138 3103 
Q 1681 3103 1420 2742 
Q 1159 2381 1159 1747 
Q 1159 1113 1420 752 
Q 1681 391 2138 391 
Q 2594 391 2855 752 
Q 3116 1113 3116 1747 
z
M 1159 2969 
Q 1341 3281 1617 3432 
Q 1894 3584 2278 3584 
Q 2916 3584 3314 3078 
Q 3713 2572 3713 1747 
Q 3713 922 3314 415 
Q 2916 -91 2278 -91 
Q 1894 -91 1617 61 
Q 1341 213 1159 525 
L 1159 0 
L 581 0 
L 581 4863 
L 1159 4863 
L 1159 2969 
z
" id="DejaVuSans-62" transform="scale(0.015625)"/>
      </defs>
      <use xlink:href="#DejaVuSans-64"/>
      <use x="63.476562" xlink:href="#DejaVuSans-61"/>
      <use x="124.755859" xlink:href="#DejaVuSans-69"/>
      <use x="152.539062" xlink:href="#DejaVuSans-6c"/>
      <use x="180.322266" xlink:href="#DejaVuSans-79"/>
      <use x="237.751953" xlink:href="#DejaVuSans-2d"/>
      <use x="275.710938" xlink:href="#DejaVuSans-6f"/>
      <use x="336.892578" xlink:href="#DejaVuSans-70"/>
      <use x="400.369141" xlink:href="#DejaVuSans-65"/>
      <use x="461.892578" xlink:href="#DejaVuSans-6e"/>
      <use x="525.271484" xlink:href="#DejaVuSans-2d"/>
      <use x="561.355469" xlink:href="#DejaVuSans-72"/>
      <use x="600.21875" xlink:href="#DejaVuSans-65"/>
      <use x="661.742188" xlink:href="#DejaVuSans-62"/>
      <use x="725.21875" xlink:href="#DejaVuSans-61"/>
      <use x="786.498047" xlink:href="#DejaVuSans-6c"/>
     </g>
    </g>
    <g id="line2d_26">
     <path d="M 66.6 232.544062 
L 86.6 232.544062 
" style="fill:none;stroke:#ec5283;stroke-linecap:square;stroke-width:2;"/>
    </g>
    <g id="line2d_27"/>
    <g id="text_19">
     <!-- daily-close-rebal -->
     <g transform="translate(94.6 236.044062)scale(0.1 -0.1)">
      <use xlink:href="#DejaVuSans-64"/>
      <use x="63.476562" xlink:href="#DejaVuSans-61"/>
      <use x="124.755859" xlink:href="#DejaVuSans-69"/>
      <use x="152.539062" xlink:href="#DejaVuSans-6c"/>
      <use x="180.322266" xlink:href="#DejaVuSans-79"/>
      <use x="237.751953" xlink:href="#DejaVuSans-2d"/>
      <use x="273.835938" xlink:href="#DejaVuSans-63"/>
      <use x="328.816406" xlink:href="#DejaVuSans-6c"/>
      <use x="356.599609" xlink:href="#DejaVuSans-6f"/>
      <use x="417.78125" xlink:href="#DejaVuSans-73"/>
      <use x="469.880859" xlink:href="#DejaVuSans-65"/>
      <use x="531.404297" xlink:href="#DejaVuSans-2d"/>
      <use x="567.488281" xlink:href="#DejaVuSans-72"/>
      <use x="606.351562" xlink:href="#DejaVuSans-65"/>
      <use x="667.875" xlink:href="#DejaVuSans-62"/>
      <use x="731.351562" xlink:href="#DejaVuSans-61"/>
      <use x="792.630859" xlink:href="#DejaVuSans-6c"/>
     </g>
    </g>
    <g id="line2d_28">
     <path d="M 66.6 247.222187 
L 86.6 247.222187 
" style="fill:none;stroke:#00ff00;stroke-linecap:square;stroke-opacity:0.9;stroke-width:2;"/>
    </g>
    <g id="line2d_29"/>
    <g id="text_20">
     <!-- trader-baseline -->
     <g transform="translate(94.6 250.722187)scale(0.1 -0.1)">
      <use xlink:href="#DejaVuSans-74"/>
      <use x="39.208984" xlink:href="#DejaVuSans-72"/>
      <use x="80.322266" xlink:href="#DejaVuSans-61"/>
      <use x="141.601562" xlink:href="#DejaVuSans-64"/>
      <use x="205.078125" xlink:href="#DejaVuSans-65"/>
      <use x="266.601562" xlink:href="#DejaVuSans-72"/>
      <use x="301.339844" xlink:href="#DejaVuSans-2d"/>
      <use x="337.423828" xlink:href="#DejaVuSans-62"/>
      <use x="400.900391" xlink:href="#DejaVuSans-61"/>
      <use x="462.179688" xlink:href="#DejaVuSans-73"/>
      <use x="514.279297" xlink:href="#DejaVuSans-65"/>
      <use x="575.802734" xlink:href="#DejaVuSans-6c"/>
      <use x="603.585938" xlink:href="#DejaVuSans-69"/>
      <use x="631.369141" xlink:href="#DejaVuSans-6e"/>
      <use x="694.748047" xlink:href="#DejaVuSans-65"/>
     </g>
    </g>
    <g id="line2d_30">
     <path d="M 66.6 261.900312 
L 86.6 261.900312 
" style="fill:none;stroke:#a5b9cf;stroke-linecap:square;stroke-width:2;"/>
    </g>
    <g id="line2d_31"/>
    <g id="text_21">
     <!-- default-cfg -->
     <g transform="translate(94.6 265.400312)scale(0.1 -0.1)">
      <defs>
       <path d="M 2375 4863 
L 2375 4384 
L 1825 4384 
Q 1516 4384 1395 4259 
Q 1275 4134 1275 3809 
L 1275 3500 
L 2222 3500 
L 2222 3053 
L 1275 3053 
L 1275 0 
L 697 0 
L 697 3053 
L 147 3053 
L 147 3500 
L 697 3500 
L 697 3744 
Q 697 4328 969 4595 
Q 1241 4863 1831 4863 
L 2375 4863 
z
" id="DejaVuSans-66" transform="scale(0.015625)"/>
       <path d="M 544 1381 
L 544 3500 
L 1119 3500 
L 1119 1403 
Q 1119 906 1312 657 
Q 1506 409 1894 409 
Q 2359 409 2629 706 
Q 2900 1003 2900 1516 
L 2900 3500 
L 3475 3500 
L 3475 0 
L 2900 0 
L 2900 538 
Q 2691 219 2414 64 
Q 2138 -91 1772 -91 
Q 1169 -91 856 284 
Q 544 659 544 1381 
z
M 1991 3584 
L 1991 3584 
z
" id="DejaVuSans-75" transform="scale(0.015625)"/>
       <path d="M 2906 1791 
Q 2906 2416 2648 2759 
Q 2391 3103 1925 3103 
Q 1463 3103 1205 2759 
Q 947 2416 947 1791 
Q 947 1169 1205 825 
Q 1463 481 1925 481 
Q 2391 481 2648 825 
Q 2906 1169 2906 1791 
z
M 3481 434 
Q 3481 -459 3084 -895 
Q 2688 -1331 1869 -1331 
Q 1566 -1331 1297 -1286 
Q 1028 -1241 775 -1147 
L 775 -588 
Q 1028 -725 1275 -790 
Q 1522 -856 1778 -856 
Q 2344 -856 2625 -561 
Q 2906 -266 2906 331 
L 2906 616 
Q 2728 306 2450 153 
Q 2172 0 1784 0 
Q 1141 0 747 490 
Q 353 981 353 1791 
Q 353 2603 747 3093 
Q 1141 3584 1784 3584 
Q 2172 3584 2450 3431 
Q 2728 3278 2906 2969 
L 2906 3500 
L 3481 3500 
L 3481 434 
z
" id="DejaVuSans-67" transform="scale(0.015625)"/>
      </defs>
      <use xlink:href="#DejaVuSans-64"/>
      <use x="63.476562" xlink:href="#DejaVuSans-65"/>
      <use x="125" xlink:href="#DejaVuSans-66"/>
      <use x="160.205078" xlink:href="#DejaVuSans-61"/>
      <use x="221.484375" xlink:href="#DejaVuSans-75"/>
      <use x="284.863281" xlink:href="#DejaVuSans-6c"/>
      <use x="312.646484" xlink:href="#DejaVuSans-74"/>
      <use x="351.855469" xlink:href="#DejaVuSans-2d"/>
      <use x="387.939453" xlink:href="#DejaVuSans-63"/>
      <use x="442.919922" xlink:href="#DejaVuSans-66"/>
      <use x="478.125" xlink:href="#DejaVuSans-67"/>
     </g>
    </g>
   </g>
  </g>
 </g>
 <defs>
  <clipPath id="p26ce8b6ad9">
   <rect height="235.008" width="357.12" x="57.6" y="41.472"/>
  </clipPath>
 </defs>
</svg>
