<?xml version="1.0" encoding="utf-8" standalone="no"?>
<!DOCTYPE svg PUBLIC "-//W3C//DTD SVG 1.1//EN"
  "http://www.w3.org/Graphics/SVG/1.1/DTD/svg11.dtd">
<svg height="345.6pt" version="1.1" viewBox="0 0 460.8 345.6" width="460.8pt" xmlns="http://www.w3.org/2000/svg" xmlns:xlink="http://www.w3.org/1999/xlink">
 <metadata>
  <rdf:RDF xmlns:cc="http://creativecommons.org/ns#" xmlns:dc="http://purl.org/dc/elements/1.1/" xmlns:rdf="http://www.w3.org/1999/02/22-rdf-syntax-ns#">
   <cc:Work>
    <dc:type rdf:resource="http://purl.org/dc/dcmitype/StillImage"/>
    <dc:date>2022-05-15T10:01:34.494141</dc:date>
    <dc:format>image/svg+xml</dc:format>
    <dc:creator>
     <cc:Agent>
      <dc:title>Matplotlib v3.4.3, https://matplotlib.org/</dc:title>
     </cc:Agent>
    </dc:creator>
   </cc:Work>
  </rdf:RDF>
 </metadata>
 <defs>
  <style type="text/css">*{stroke-linecap:butt;stroke-linejoin:round;}</style>
 </defs>
 <g id="figure_1">
  <g id="patch_1">
   <path d="M 0 345.6 
L 460.8 345.6 
L 460.8 0 
L 0 0 
z
" style="fill:#ffffff;"/>
  </g>
  <g id="axes_1">
   <g id="patch_2">
    <path d="M 57.6 276.48 
L 414.72 276.48 
L 414.72 41.472 
L 57.6 41.472 
z
" style="fill:#ffffff;"/>
   </g>
   <g id="matplotlib.axis_1">
    <g id="xtick_1">
     <g id="line2d_1">
      <defs>
       <path d="M 0 0 
L 0 3.5 
" id="m50aeaba624" style="stroke:#000000;stroke-width:0.8;"/>
      </defs>
      <g>
       <use style="stroke:#000000;stroke-width:0.8;" x="97.812893" xlink:href="#m50aeaba624" y="276.48"/>
      </g>
     </g>
     <g id="text_1">
      <!-- 2021-12 -->
      <g transform="translate(60.588072 310.951846)rotate(-30)scale(0.1 -0.1)">
       <defs>
        <path d="M 1228 531 
L 3431 531 
L 3431 0 
L 469 0 
L 469 531 
Q 828 903 1448 1529 
Q 2069 2156 2228 2338 
Q 2531 2678 2651 2914 
Q 2772 3150 2772 3378 
Q 2772 3750 2511 3984 
Q 2250 4219 1831 4219 
Q 1534 4219 1204 4116 
Q 875 4013 500 3803 
L 500 4441 
Q 881 4594 1212 4672 
Q 1544 4750 1819 4750 
Q 2544 4750 2975 4387 
Q 3406 4025 3406 3419 
Q 3406 3131 3298 2873 
Q 3191 2616 2906 2266 
Q 2828 2175 2409 1742 
Q 1991 1309 1228 531 
z
" id="DejaVuSans-32" transform="scale(0.015625)"/>
        <path d="M 2034 4250 
Q 1547 4250 1301 3770 
Q 1056 3291 1056 2328 
Q 1056 1369 1301 889 
Q 1547 409 2034 409 
Q 2525 409 2770 889 
Q 3016 1369 3016 2328 
Q 3016 3291 2770 3770 
Q 2525 4250 2034 4250 
z
M 2034 4750 
Q 2819 4750 3233 4129 
Q 3647 3509 3647 2328 
Q 3647 1150 3233 529 
Q 2819 -91 2034 -91 
Q 1250 -91 836 529 
Q 422 1150 422 2328 
Q 422 3509 836 4129 
Q 1250 4750 2034 4750 
z
" id="DejaVuSans-30" transform="scale(0.015625)"/>
        <path d="M 794 531 
L 1825 531 
L 1825 4091 
L 703 3866 
L 703 4441 
L 1819 4666 
L 2450 4666 
L 2450 531 
L 3481 531 
L 3481 0 
L 794 0 
L 794 531 
z
" id="DejaVuSans-31" transform="scale(0.015625)"/>
        <path d="M 313 2009 
L 1997 2009 
L 1997 1497 
L 313 1497 
L 313 2009 
z
" id="DejaVuSans-2d" transform="scale(0.015625)"/>
       </defs>
       <use xlink:href="#DejaVuSans-32"/>
       <use x="63.623047" xlink:href="#DejaVuSans-30"/>
       <use x="127.246094" xlink:href="#DejaVuSans-32"/>
       <use x="190.869141" xlink:href="#DejaVuSans-31"/>
       <use x="254.492188" xlink:href="#DejaVuSans-2d"/>
       <use x="290.576172" xlink:href="#DejaVuSans-31"/>
       <use x="354.199219" xlink:href="#DejaVuSans-32"/>
      </g>
     </g>
    </g>
    <g id="xtick_2">
     <g id="line2d_2">
      <g>
       <use style="stroke:#000000;stroke-width:0.8;" x="154.996364" xlink:href="#m50aeaba624" y="276.48"/>
      </g>
     </g>
     <g id="text_2">
      <!-- 2022-01 -->
      <g transform="translate(117.771543 310.951846)rotate(-30)scale(0.1 -0.1)">
       <use xlink:href="#DejaVuSans-32"/>
       <use x="63.623047" xlink:href="#DejaVuSans-30"/>
       <use x="127.246094" xlink:href="#DejaVuSans-32"/>
       <use x="190.869141" xlink:href="#DejaVuSans-32"/>
       <use x="254.492188" xlink:href="#DejaVuSans-2d"/>
       <use x="290.576172" xlink:href="#DejaVuSans-30"/>
       <use x="354.199219" xlink:href="#DejaVuSans-31"/>
      </g>
     </g>
    </g>
    <g id="xtick_3">
     <g id="line2d_3">
      <g>
       <use style="stroke:#000000;stroke-width:0.8;" x="212.179835" xlink:href="#m50aeaba624" y="276.48"/>
      </g>
     </g>
     <g id="text_3">
      <!-- 2022-02 -->
      <g transform="translate(174.955014 310.951846)rotate(-30)scale(0.1 -0.1)">
       <use xlink:href="#DejaVuSans-32"/>
       <use x="63.623047" xlink:href="#DejaVuSans-30"/>
       <use x="127.246094" xlink:href="#DejaVuSans-32"/>
       <use x="190.869141" xlink:href="#DejaVuSans-32"/>
       <use x="254.492188" xlink:href="#DejaVuSans-2d"/>
       <use x="290.576172" xlink:href="#DejaVuSans-30"/>
       <use x="354.199219" xlink:href="#DejaVuSans-32"/>
      </g>
     </g>
    </g>
    <g id="xtick_4">
     <g id="line2d_4">
      <g>
       <use style="stroke:#000000;stroke-width:0.8;" x="263.829421" xlink:href="#m50aeaba624" y="276.48"/>
      </g>
     </g>
     <g id="text_4">
      <!-- 2022-03 -->
      <g transform="translate(226.604601 310.951846)rotate(-30)scale(0.1 -0.1)">
       <defs>
        <path d="M 2597 2516 
Q 3050 2419 3304 2112 
Q 3559 1806 3559 1356 
Q 3559 666 3084 287 
Q 2609 -91 1734 -91 
Q 1441 -91 1130 -33 
Q 819 25 488 141 
L 488 750 
Q 750 597 1062 519 
Q 1375 441 1716 441 
Q 2309 441 2620 675 
Q 2931 909 2931 1356 
Q 2931 1769 2642 2001 
Q 2353 2234 1838 2234 
L 1294 2234 
L 1294 2753 
L 1863 2753 
Q 2328 2753 2575 2939 
Q 2822 3125 2822 3475 
Q 2822 3834 2567 4026 
Q 2313 4219 1838 4219 
Q 1578 4219 1281 4162 
Q 984 4106 628 3988 
L 628 4550 
Q 988 4650 1302 4700 
Q 1616 4750 1894 4750 
Q 2613 4750 3031 4423 
Q 3450 4097 3450 3541 
Q 3450 3153 3228 2886 
Q 3006 2619 2597 2516 
z
" id="DejaVuSans-33" transform="scale(0.015625)"/>
       </defs>
       <use xlink:href="#DejaVuSans-32"/>
       <use x="63.623047" xlink:href="#DejaVuSans-30"/>
       <use x="127.246094" xlink:href="#DejaVuSans-32"/>
       <use x="190.869141" xlink:href="#DejaVuSans-32"/>
       <use x="254.492188" xlink:href="#DejaVuSans-2d"/>
       <use x="290.576172" xlink:href="#DejaVuSans-30"/>
       <use x="354.199219" xlink:href="#DejaVuSans-33"/>
      </g>
     </g>
    </g>
    <g id="xtick_5">
     <g id="line2d_5">
      <g>
       <use style="stroke:#000000;stroke-width:0.8;" x="321.012893" xlink:href="#m50aeaba624" y="276.48"/>
      </g>
     </g>
     <g id="text_5">
      <!-- 2022-04 -->
      <g transform="translate(283.788072 310.951846)rotate(-30)scale(0.1 -0.1)">
       <defs>
        <path d="M 2419 4116 
L 825 1625 
L 2419 1625 
L 2419 4116 
z
M 2253 4666 
L 3047 4666 
L 3047 1625 
L 3713 1625 
L 3713 1100 
L 3047 1100 
L 3047 0 
L 2419 0 
L 2419 1100 
L 313 1100 
L 313 1709 
L 2253 4666 
z
" id="DejaVuSans-34" transform="scale(0.015625)"/>
       </defs>
       <use xlink:href="#DejaVuSans-32"/>
       <use x="63.623047" xlink:href="#DejaVuSans-30"/>
       <use x="127.246094" xlink:href="#DejaVuSans-32"/>
       <use x="190.869141" xlink:href="#DejaVuSans-32"/>
       <use x="254.492188" xlink:href="#DejaVuSans-2d"/>
       <use x="290.576172" xlink:href="#DejaVuSans-30"/>
       <use x="354.199219" xlink:href="#DejaVuSans-34"/>
      </g>
     </g>
    </g>
    <g id="xtick_6">
     <g id="line2d_6">
      <g>
       <use style="stroke:#000000;stroke-width:0.8;" x="376.351736" xlink:href="#m50aeaba624" y="276.48"/>
      </g>
     </g>
     <g id="text_6">
      <!-- 2022-05 -->
      <g transform="translate(339.126915 310.951846)rotate(-30)scale(0.1 -0.1)">
       <defs>
        <path d="M 691 4666 
L 3169 4666 
L 3169 4134 
L 1269 4134 
L 1269 2991 
Q 1406 3038 1543 3061 
Q 1681 3084 1819 3084 
Q 2600 3084 3056 2656 
Q 3513 2228 3513 1497 
Q 3513 744 3044 326 
Q 2575 -91 1722 -91 
Q 1428 -91 1123 -41 
Q 819 9 494 109 
L 494 744 
Q 775 591 1075 516 
Q 1375 441 1709 441 
Q 2250 441 2565 725 
Q 2881 1009 2881 1497 
Q 2881 1984 2565 2268 
Q 2250 2553 1709 2553 
Q 1456 2553 1204 2497 
Q 953 2441 691 2322 
L 691 4666 
z
" id="DejaVuSans-35" transform="scale(0.015625)"/>
       </defs>
       <use xlink:href="#DejaVuSans-32"/>
       <use x="63.623047" xlink:href="#DejaVuSans-30"/>
       <use x="127.246094" xlink:href="#DejaVuSans-32"/>
       <use x="190.869141" xlink:href="#DejaVuSans-32"/>
       <use x="254.492188" xlink:href="#DejaVuSans-2d"/>
       <use x="290.576172" xlink:href="#DejaVuSans-30"/>
       <use x="354.199219" xlink:href="#DejaVuSans-35"/>
      </g>
     </g>
    </g>
    <g id="text_7">
     <!-- date -->
     <g transform="translate(224.885 324.351346)scale(0.1 -0.1)">
      <defs>
       <path d="M 2906 2969 
L 2906 4863 
L 3481 4863 
L 3481 0 
L 2906 0 
L 2906 525 
Q 2725 213 2448 61 
Q 2172 -91 1784 -91 
Q 1150 -91 751 415 
Q 353 922 353 1747 
Q 353 2572 751 3078 
Q 1150 3584 1784 3584 
Q 2172 3584 2448 3432 
Q 2725 3281 2906 2969 
z
M 947 1747 
Q 947 1113 1208 752 
Q 1469 391 1925 391 
Q 2381 391 2643 752 
Q 2906 1113 2906 1747 
Q 2906 2381 2643 2742 
Q 2381 3103 1925 3103 
Q 1469 3103 1208 2742 
Q 947 2381 947 1747 
z
" id="DejaVuSans-64" transform="scale(0.015625)"/>
       <path d="M 2194 1759 
Q 1497 1759 1228 1600 
Q 959 1441 959 1056 
Q 959 750 1161 570 
Q 1363 391 1709 391 
Q 2188 391 2477 730 
Q 2766 1069 2766 1631 
L 2766 1759 
L 2194 1759 
z
M 3341 1997 
L 3341 0 
L 2766 0 
L 2766 531 
Q 2569 213 2275 61 
Q 1981 -91 1556 -91 
Q 1019 -91 701 211 
Q 384 513 384 1019 
Q 384 1609 779 1909 
Q 1175 2209 1959 2209 
L 2766 2209 
L 2766 2266 
Q 2766 2663 2505 2880 
Q 2244 3097 1772 3097 
Q 1472 3097 1187 3025 
Q 903 2953 641 2809 
L 641 3341 
Q 956 3463 1253 3523 
Q 1550 3584 1831 3584 
Q 2591 3584 2966 3190 
Q 3341 2797 3341 1997 
z
" id="DejaVuSans-61" transform="scale(0.015625)"/>
       <path d="M 1172 4494 
L 1172 3500 
L 2356 3500 
L 2356 3053 
L 1172 3053 
L 1172 1153 
Q 1172 725 1289 603 
Q 1406 481 1766 481 
L 2356 481 
L 2356 0 
L 1766 0 
Q 1100 0 847 248 
Q 594 497 594 1153 
L 594 3053 
L 172 3053 
L 172 3500 
L 594 3500 
L 594 4494 
L 1172 4494 
z
" id="DejaVuSans-74" transform="scale(0.015625)"/>
       <path d="M 3597 1894 
L 3597 1613 
L 953 1613 
Q 991 1019 1311 708 
Q 1631 397 2203 397 
Q 2534 397 2845 478 
Q 3156 559 3463 722 
L 3463 178 
Q 3153 47 2828 -22 
Q 2503 -91 2169 -91 
Q 1331 -91 842 396 
Q 353 884 353 1716 
Q 353 2575 817 3079 
Q 1281 3584 2069 3584 
Q 2775 3584 3186 3129 
Q 3597 2675 3597 1894 
z
M 3022 2063 
Q 3016 2534 2758 2815 
Q 2500 3097 2075 3097 
Q 1594 3097 1305 2825 
Q 1016 2553 972 2059 
L 3022 2063 
z
" id="DejaVuSans-65" transform="scale(0.015625)"/>
      </defs>
      <use xlink:href="#DejaVuSans-64"/>
      <use x="63.476562" xlink:href="#DejaVuSans-61"/>
      <use x="124.755859" xlink:href="#DejaVuSans-74"/>
      <use x="163.964844" xlink:href="#DejaVuSans-65"/>
     </g>
    </g>
   </g>
   <g id="matplotlib.axis_2">
    <g id="ytick_1">
     <g id="line2d_7">
      <defs>
       <path d="M 0 0 
L -3.5 0 
" id="m2cc6d29a86" style="stroke:#000000;stroke-width:0.8;"/>
      </defs>
      <g>
       <use style="stroke:#000000;stroke-width:0.8;" x="57.6" xlink:href="#m2cc6d29a86" y="249.541987"/>
      </g>
     </g>
     <g id="text_8">
      <!-- 85000 -->
      <g transform="translate(18.7875 253.341205)scale(0.1 -0.1)">
       <defs>
        <path d="M 2034 2216 
Q 1584 2216 1326 1975 
Q 1069 1734 1069 1313 
Q 1069 891 1326 650 
Q 1584 409 2034 409 
Q 2484 409 2743 651 
Q 3003 894 3003 1313 
Q 3003 1734 2745 1975 
Q 2488 2216 2034 2216 
z
M 1403 2484 
Q 997 2584 770 2862 
Q 544 3141 544 3541 
Q 544 4100 942 4425 
Q 1341 4750 2034 4750 
Q 2731 4750 3128 4425 
Q 3525 4100 3525 3541 
Q 3525 3141 3298 2862 
Q 3072 2584 2669 2484 
Q 3125 2378 3379 2068 
Q 3634 1759 3634 1313 
Q 3634 634 3220 271 
Q 2806 -91 2034 -91 
Q 1263 -91 848 271 
Q 434 634 434 1313 
Q 434 1759 690 2068 
Q 947 2378 1403 2484 
z
M 1172 3481 
Q 1172 3119 1398 2916 
Q 1625 2713 2034 2713 
Q 2441 2713 2670 2916 
Q 2900 3119 2900 3481 
Q 2900 3844 2670 4047 
Q 2441 4250 2034 4250 
Q 1625 4250 1398 4047 
Q 1172 3844 1172 3481 
z
" id="DejaVuSans-38" transform="scale(0.015625)"/>
       </defs>
       <use xlink:href="#DejaVuSans-38"/>
       <use x="63.623047" xlink:href="#DejaVuSans-35"/>
       <use x="127.246094" xlink:href="#DejaVuSans-30"/>
       <use x="190.869141" xlink:href="#DejaVuSans-30"/>
       <use x="254.492188" xlink:href="#DejaVuSans-30"/>
      </g>
     </g>
    </g>
    <g id="ytick_2">
     <g id="line2d_8">
      <g>
       <use style="stroke:#000000;stroke-width:0.8;" x="57.6" xlink:href="#m2cc6d29a86" y="220.874445"/>
      </g>
     </g>
     <g id="text_9">
      <!-- 87500 -->
      <g transform="translate(18.7875 224.673664)scale(0.1 -0.1)">
       <defs>
        <path d="M 525 4666 
L 3525 4666 
L 3525 4397 
L 1831 0 
L 1172 0 
L 2766 4134 
L 525 4134 
L 525 4666 
z
" id="DejaVuSans-37" transform="scale(0.015625)"/>
       </defs>
       <use xlink:href="#DejaVuSans-38"/>
       <use x="63.623047" xlink:href="#DejaVuSans-37"/>
       <use x="127.246094" xlink:href="#DejaVuSans-35"/>
       <use x="190.869141" xlink:href="#DejaVuSans-30"/>
       <use x="254.492188" xlink:href="#DejaVuSans-30"/>
      </g>
     </g>
    </g>
    <g id="ytick_3">
     <g id="line2d_9">
      <g>
       <use style="stroke:#000000;stroke-width:0.8;" x="57.6" xlink:href="#m2cc6d29a86" y="192.206904"/>
      </g>
     </g>
     <g id="text_10">
      <!-- 90000 -->
      <g transform="translate(18.7875 196.006123)scale(0.1 -0.1)">
       <defs>
        <path d="M 703 97 
L 703 672 
Q 941 559 1184 500 
Q 1428 441 1663 441 
Q 2288 441 2617 861 
Q 2947 1281 2994 2138 
Q 2813 1869 2534 1725 
Q 2256 1581 1919 1581 
Q 1219 1581 811 2004 
Q 403 2428 403 3163 
Q 403 3881 828 4315 
Q 1253 4750 1959 4750 
Q 2769 4750 3195 4129 
Q 3622 3509 3622 2328 
Q 3622 1225 3098 567 
Q 2575 -91 1691 -91 
Q 1453 -91 1209 -44 
Q 966 3 703 97 
z
M 1959 2075 
Q 2384 2075 2632 2365 
Q 2881 2656 2881 3163 
Q 2881 3666 2632 3958 
Q 2384 4250 1959 4250 
Q 1534 4250 1286 3958 
Q 1038 3666 1038 3163 
Q 1038 2656 1286 2365 
Q 1534 2075 1959 2075 
z
" id="DejaVuSans-39" transform="scale(0.015625)"/>
       </defs>
       <use xlink:href="#DejaVuSans-39"/>
       <use x="63.623047" xlink:href="#DejaVuSans-30"/>
       <use x="127.246094" xlink:href="#DejaVuSans-30"/>
       <use x="190.869141" xlink:href="#DejaVuSans-30"/>
       <use x="254.492188" xlink:href="#DejaVuSans-30"/>
      </g>
     </g>
    </g>
    <g id="ytick_4">
     <g id="line2d_10">
      <g>
       <use style="stroke:#000000;stroke-width:0.8;" x="57.6" xlink:href="#m2cc6d29a86" y="163.539363"/>
      </g>
     </g>
     <g id="text_11">
      <!-- 92500 -->
      <g transform="translate(18.7875 167.338582)scale(0.1 -0.1)">
       <use xlink:href="#DejaVuSans-39"/>
       <use x="63.623047" xlink:href="#DejaVuSans-32"/>
       <use x="127.246094" xlink:href="#DejaVuSans-35"/>
       <use x="190.869141" xlink:href="#DejaVuSans-30"/>
       <use x="254.492188" xlink:href="#DejaVuSans-30"/>
      </g>
     </g>
    </g>
    <g id="ytick_5">
     <g id="line2d_11">
      <g>
       <use style="stroke:#000000;stroke-width:0.8;" x="57.6" xlink:href="#m2cc6d29a86" y="134.871822"/>
      </g>
     </g>
     <g id="text_12">
      <!-- 95000 -->
      <g transform="translate(18.7875 138.671041)scale(0.1 -0.1)">
       <use xlink:href="#DejaVuSans-39"/>
       <use x="63.623047" xlink:href="#DejaVuSans-35"/>
       <use x="127.246094" xlink:href="#DejaVuSans-30"/>
       <use x="190.869141" xlink:href="#DejaVuSans-30"/>
       <use x="254.492188" xlink:href="#DejaVuSans-30"/>
      </g>
     </g>
    </g>
    <g id="ytick_6">
     <g id="line2d_12">
      <g>
       <use style="stroke:#000000;stroke-width:0.8;" x="57.6" xlink:href="#m2cc6d29a86" y="106.204281"/>
      </g>
     </g>
     <g id="text_13">
      <!-- 97500 -->
      <g transform="translate(18.7875 110.003499)scale(0.1 -0.1)">
       <use xlink:href="#DejaVuSans-39"/>
       <use x="63.623047" xlink:href="#DejaVuSans-37"/>
       <use x="127.246094" xlink:href="#DejaVuSans-35"/>
       <use x="190.869141" xlink:href="#DejaVuSans-30"/>
       <use x="254.492188" xlink:href="#DejaVuSans-30"/>
      </g>
     </g>
    </g>
    <g id="ytick_7">
     <g id="line2d_13">
      <g>
       <use style="stroke:#000000;stroke-width:0.8;" x="57.6" xlink:href="#m2cc6d29a86" y="77.536739"/>
      </g>
     </g>
     <g id="text_14">
      <!-- 100000 -->
      <g transform="translate(12.425 81.335958)scale(0.1 -0.1)">
       <use xlink:href="#DejaVuSans-31"/>
       <use x="63.623047" xlink:href="#DejaVuSans-30"/>
       <use x="127.246094" xlink:href="#DejaVuSans-30"/>
       <use x="190.869141" xlink:href="#DejaVuSans-30"/>
       <use x="254.492188" xlink:href="#DejaVuSans-30"/>
       <use x="318.115234" xlink:href="#DejaVuSans-30"/>
      </g>
     </g>
    </g>
    <g id="ytick_8">
     <g id="line2d_14">
      <g>
       <use style="stroke:#000000;stroke-width:0.8;" x="57.6" xlink:href="#m2cc6d29a86" y="48.869198"/>
      </g>
     </g>
     <g id="text_15">
      <!-- 102500 -->
      <g transform="translate(12.425 52.668417)scale(0.1 -0.1)">
       <use xlink:href="#DejaVuSans-31"/>
       <use x="63.623047" xlink:href="#DejaVuSans-30"/>
       <use x="127.246094" xlink:href="#DejaVuSans-32"/>
       <use x="190.869141" xlink:href="#DejaVuSans-35"/>
       <use x="254.492188" xlink:href="#DejaVuSans-30"/>
       <use x="318.115234" xlink:href="#DejaVuSans-30"/>
      </g>
     </g>
    </g>
   </g>
   <g id="line2d_15">
    <path clip-path="url(#p728d2ecaf6)" d="M 73.832727 76.35224 
L 75.677355 78.737559 
L 81.21124 81.679893 
L 83.055868 79.948404 
L 84.900496 77.418608 
L 88.589752 76.78972 
L 94.123636 88.924292 
L 95.968264 110.77677 
L 97.812893 123.261908 
L 99.657521 106.360084 
L 101.502149 116.692246 
L 107.036033 103.239478 
L 108.880661 80.229445 
L 110.725289 76.600159 
L 112.569917 84.816956 
L 114.414545 73.280052 
L 119.94843 84.8212 
L 121.793058 92.553523 
L 123.637686 75.471017 
L 125.482314 85.042415 
L 127.326942 98.039348 
L 132.860826 110.90439 
L 134.705455 92.127307 
L 136.550083 80.913535 
L 138.394711 73.876252 
L 145.773223 57.636371 
L 147.617851 58.801369 
L 149.462479 56.982238 
L 151.307107 60.178114 
L 153.151736 63.918322 
L 158.68562 56.244661 
L 160.530248 56.847214 
L 162.374876 79.49076 
L 164.219504 80.238267 
L 166.064132 85.47102 
L 171.598017 87.202997 
L 173.442645 76.272281 
L 175.287273 72.648142 
L 177.131901 88.495976 
L 178.976529 88.796799 
L 186.355041 109.18938 
L 188.199669 119.800445 
L 190.044298 132.319751 
L 191.888926 154.106876 
L 197.42281 149.574311 
L 199.267438 161.879283 
L 201.112066 165.066791 
L 202.956694 170.221765 
L 204.801322 144.537343 
L 210.335207 124.581207 
L 212.179835 116.665109 
L 214.024463 106.494837 
L 215.869091 132.319567 
L 217.713719 127.046916 
L 223.247603 131.548811 
L 225.092231 121.762619 
L 226.93686 105.892511 
L 228.781488 126.353854 
L 230.626116 148.175905 
L 236.16 151.225789 
L 238.004628 134.108967 
L 239.849256 132.891549 
L 241.693884 156.431517 
L 243.538512 162.915836 
L 250.917025 174.48099 
L 252.761653 193.419163 
L 254.606281 177.500114 
L 256.450909 154.574074 
L 261.984793 157.043991 
L 263.829421 173.169174 
L 265.67405 154.262929 
L 267.518678 158.826787 
L 269.363306 168.115142 
L 274.89719 199.401867 
L 276.741818 206.633833 
L 278.586446 179.435763 
L 280.431074 184.769917 
L 282.275702 197.534178 
L 287.809587 205.460601 
L 289.654215 183.059008 
L 291.498843 159.773872 
L 293.343471 146.749779 
L 295.188099 135.975084 
L 300.721983 136.329496 
L 302.566612 123.368094 
L 304.41124 137.862405 
L 306.255868 123.138509 
L 308.100496 117.923147 
L 313.63438 110.658209 
L 315.479008 95.826627 
L 317.323636 103.024242 
L 319.168264 119.804337 
L 321.012893 117.162818 
L 326.546777 107.765301 
L 328.391405 122.470346 
L 330.236033 132.718075 
L 332.080661 127.638961 
L 333.925289 130.665676 
L 339.459174 149.290082 
L 341.303802 153.316962 
L 343.14843 141.119984 
L 344.993058 153.784817 
L 352.37157 153.442499 
L 354.216198 136.774862 
L 356.060826 137.276297 
L 357.905455 153.517656 
L 359.750083 183.693322 
L 365.283967 176.894207 
L 367.128595 206.943571 
L 368.973223 204.350084 
L 370.817851 178.894037 
L 372.662479 217.129324 
L 378.196364 210.033623 
L 380.040992 206.382284 
L 381.88562 174.81526 
L 383.730248 211.791594 
L 385.574876 217.518741 
L 391.10876 250.643743 
L 392.953388 247.841795 
L 394.798017 264.065596 
L 396.642645 264.655687 
L 398.487273 241.832355 
" style="fill:none;stroke:#0000ff;stroke-linecap:square;stroke-opacity:0.9;stroke-width:2;"/>
   </g>
   <g id="line2d_16">
    <path clip-path="url(#p728d2ecaf6)" d="M 73.832727 76.35224 
L 75.677355 78.574916 
L 81.21124 82.096935 
L 83.055868 80.349707 
L 84.900496 77.220624 
L 88.589752 103.052473 
L 94.123636 88.962811 
L 95.968264 110.322209 
L 97.812893 122.933958 
L 99.657521 106.715915 
L 101.502149 116.671132 
L 107.036033 103.698913 
L 108.880661 79.514074 
L 110.725289 77.219183 
L 112.569917 84.647625 
L 114.414545 74.049499 
L 119.94843 84.962034 
L 121.793058 92.258984 
L 123.637686 75.236573 
L 125.482314 85.317528 
L 127.326942 98.199046 
L 132.860826 111.293793 
L 134.705455 92.061535 
L 136.550083 81.05572 
L 138.394711 74.114431 
L 145.773223 57.370093 
L 147.617851 59.136839 
L 149.462479 57.85609 
L 151.307107 60.560789 
L 153.151736 63.543601 
L 158.68562 57.040967 
L 160.530248 57.039667 
L 162.374876 79.083062 
L 164.219504 80.700653 
L 166.064132 84.644664 
L 171.598017 87.083396 
L 173.442645 75.978932 
L 175.287273 72.56746 
L 177.131901 88.603832 
L 178.976529 88.480309 
L 186.355041 108.899931 
L 188.199669 119.931511 
L 190.044298 132.696615 
L 191.888926 153.879099 
L 197.42281 149.08415 
L 199.267438 162.638388 
L 201.112066 164.64783 
L 202.956694 170.371094 
L 204.801322 144.502911 
L 210.335207 124.849334 
L 212.179835 117.578763 
L 214.024463 106.405682 
L 215.869091 132.969109 
L 217.713719 127.076762 
L 223.247603 131.096809 
L 225.092231 121.803627 
L 226.93686 106.251001 
L 228.781488 125.478005 
L 230.626116 147.878406 
L 236.16 151.163351 
L 238.004628 134.528035 
L 239.849256 132.780093 
L 241.693884 155.351749 
L 243.538512 162.572531 
L 250.917025 174.831103 
L 252.761653 193.618743 
L 254.606281 177.1332 
L 256.450909 154.973385 
L 261.984793 156.950527 
L 263.829421 173.450245 
L 265.67405 153.630523 
L 267.518678 158.816318 
L 269.363306 167.839329 
L 274.89719 198.596661 
L 276.741818 206.533872 
L 278.586446 179.688201 
L 280.431074 184.863864 
L 282.275702 197.371548 
L 287.809587 204.829392 
L 289.654215 182.417536 
L 291.498843 159.466373 
L 293.343471 145.858102 
L 295.188099 135.816099 
L 300.721983 136.581988 
L 302.566612 123.479489 
L 304.41124 137.182884 
L 306.255868 123.733949 
L 308.100496 118.283124 
L 313.63438 109.928203 
L 315.479008 96.031878 
L 317.323636 102.765822 
L 319.168264 120.907893 
L 321.012893 116.915819 
L 326.546777 108.058846 
L 328.391405 122.164892 
L 330.236033 132.791513 
L 332.080661 127.202414 
L 333.925289 130.302996 
L 339.459174 149.428725 
L 341.303802 153.053554 
L 343.14843 140.477659 
L 344.993058 154.051012 
L 352.37157 154.022487 
L 354.216198 137.182171 
L 356.060826 137.996283 
L 357.905455 154.16792 
L 359.750083 183.539708 
L 365.283967 176.858151 
L 367.128595 207.597308 
L 368.973223 204.251365 
L 370.817851 178.568185 
L 372.662479 217.668362 
L 378.196364 211.402858 
L 380.040992 206.891599 
L 381.88562 176.087381 
L 383.730248 212.747775 
L 385.574876 218.300915 
L 391.10876 251.056944 
L 392.953388 249.26343 
L 394.798017 264.800673 
L 396.642645 265.797818 
L 398.487273 242.519235 
" style="fill:none;stroke:#ff0000;stroke-linecap:square;stroke-opacity:0.9;stroke-width:2;"/>
   </g>
   <g id="line2d_17">
    <path clip-path="url(#p728d2ecaf6)" d="M 73.832727 76.35224 
L 75.677355 78.815633 
L 81.21124 82.116392 
L 83.055868 79.504077 
L 84.900496 77.10151 
L 88.589752 102.481233 
L 94.123636 88.836753 
L 95.968264 110.0344 
L 97.812893 123.402846 
L 99.657521 105.888014 
L 101.502149 115.901069 
L 107.036033 102.957197 
L 108.880661 80.17304 
L 110.725289 76.997049 
L 112.569917 84.142159 
L 114.414545 74.178974 
L 119.94843 84.693312 
L 121.793058 92.915654 
L 123.637686 75.039934 
L 125.482314 85.544237 
L 127.326942 98.381919 
L 132.860826 111.019539 
L 134.705455 92.810676 
L 136.550083 81.425 
L 138.394711 73.875451 
L 145.773223 57.970618 
L 147.617851 59.350548 
L 149.462479 57.8011 
L 151.307107 60.224282 
L 153.151736 63.729534 
L 158.68562 56.090598 
L 160.530248 57.396541 
L 162.374876 79.209141 
L 164.219504 80.894888 
L 166.064132 84.924659 
L 171.598017 86.89003 
L 173.442645 76.806025 
L 175.287273 72.885047 
L 177.131901 89.092301 
L 178.976529 88.144149 
L 186.355041 108.129088 
L 188.199669 119.744217 
L 190.044298 132.805277 
L 191.888926 153.396248 
L 197.42281 149.296043 
L 199.267438 162.635763 
L 201.112066 165.321509 
L 202.956694 170.070756 
L 204.801322 143.721369 
L 210.335207 125.105411 
L 212.179835 116.838869 
L 214.024463 106.674994 
L 215.869091 132.776025 
L 217.713719 127.467401 
L 223.247603 131.101321 
L 225.092231 122.620055 
L 226.93686 106.236756 
L 228.781488 126.420368 
L 230.626116 147.331635 
L 236.16 150.766746 
L 238.004628 133.786168 
L 239.849256 132.935485 
L 241.693884 156.1417 
L 243.538512 163.553583 
L 250.917025 174.18402 
L 252.761653 193.384285 
L 254.606281 178.017279 
L 256.450909 154.625061 
L 261.984793 157.153944 
L 263.829421 173.578013 
L 265.67405 153.823843 
L 267.518678 158.770864 
L 269.363306 168.529619 
L 274.89719 199.221745 
L 276.741818 207.109462 
L 278.586446 180.312543 
L 280.431074 184.534558 
L 282.275702 197.340152 
L 287.809587 204.948518 
L 289.654215 182.760161 
L 291.498843 160.160186 
L 293.343471 146.419689 
L 295.188099 135.619763 
L 300.721983 136.132428 
L 302.566612 123.948226 
L 304.41124 137.56158 
L 306.255868 123.581822 
L 308.100496 118.443739 
L 313.63438 109.77736 
L 315.479008 95.989374 
L 317.323636 102.953905 
L 319.168264 120.275787 
L 321.012893 117.539859 
L 326.546777 107.731925 
L 328.391405 122.383048 
L 330.236033 133.438879 
L 332.080661 127.761093 
L 333.925289 130.781817 
L 339.459174 149.703227 
L 341.303802 153.238525 
L 343.14843 140.346341 
L 344.993058 154.381781 
L 352.37157 153.718273 
L 354.216198 136.997525 
L 356.060826 137.288136 
L 357.905455 153.398683 
L 359.750083 182.907698 
L 365.283967 176.659938 
L 367.128595 207.543759 
L 368.973223 204.605846 
L 370.817851 179.110879 
L 372.662479 217.850074 
L 378.196364 211.33361 
L 380.040992 207.13458 
L 381.88562 175.28887 
L 383.730248 212.736571 
L 385.574876 218.782024 
L 391.10876 251.07403 
L 392.953388 248.444431 
L 394.798017 264.137659 
L 396.642645 265.457431 
L 398.487273 242.599014 
" style="fill:none;stroke:#008000;stroke-linecap:square;stroke-opacity:0.9;stroke-width:2;"/>
   </g>
   <g id="line2d_18">
    <path clip-path="url(#p728d2ecaf6)" d="M 73.832727 76.35224 
L 75.677355 78.037831 
L 81.21124 81.755705 
L 83.055868 80.187247 
L 84.900496 77.374218 
L 88.589752 102.254482 
L 94.123636 88.320347 
L 95.968264 110.905715 
L 97.812893 123.072367 
L 99.657521 106.530595 
L 101.502149 115.749796 
L 107.036033 103.411126 
L 108.880661 80.217813 
L 110.725289 76.836609 
L 112.569917 84.155984 
L 114.414545 73.805007 
L 119.94843 85.196442 
L 121.793058 93.019525 
L 123.637686 75.235718 
L 125.482314 85.741245 
L 127.326942 98.155513 
L 132.860826 111.439026 
L 134.705455 92.886081 
L 136.550083 80.799291 
L 138.394711 74.696769 
L 145.773223 57.498022 
L 147.617851 59.315656 
L 149.462479 57.197731 
L 151.307107 60.421494 
L 153.151736 63.493441 
L 158.68562 56.291272 
L 160.530248 57.472331 
L 162.374876 80.141438 
L 164.219504 81.239583 
L 166.064132 85.4302 
L 171.598017 86.719251 
L 173.442645 75.818449 
L 175.287273 73.120327 
L 177.131901 89.455716 
L 178.976529 89.037783 
L 186.355041 108.79403 
L 188.199669 120.201598 
L 190.044298 132.107937 
L 191.888926 154.160336 
L 197.42281 149.373745 
L 199.267438 162.657923 
L 201.112066 165.266041 
L 202.956694 169.91177 
L 204.801322 144.232469 
L 210.335207 124.991966 
L 212.179835 116.627764 
L 214.024463 106.430686 
L 215.869091 132.326006 
L 217.713719 126.965825 
L 223.247603 131.247164 
L 225.092231 122.099217 
L 226.93686 105.960413 
L 228.781488 125.751605 
L 230.626116 147.988313 
L 236.16 150.979474 
L 238.004628 134.512272 
L 239.849256 132.955589 
L 241.693884 156.349516 
L 243.538512 163.152397 
L 250.917025 174.134112 
L 252.761653 193.821674 
L 254.606281 177.839807 
L 256.450909 154.317547 
L 261.984793 156.820287 
L 263.829421 173.792621 
L 265.67405 154.224349 
L 267.518678 158.91317 
L 269.363306 168.123819 
L 274.89719 198.786867 
L 276.741818 206.489441 
L 278.586446 180.089621 
L 280.431074 184.484138 
L 282.275702 196.985577 
L 287.809587 205.240507 
L 289.654215 182.984069 
L 291.498843 159.941179 
L 293.343471 146.421111 
L 295.188099 135.360762 
L 300.721983 136.840178 
L 302.566612 123.405768 
L 304.41124 138.113986 
L 306.255868 123.978188 
L 308.100496 117.397465 
L 313.63438 110.094845 
L 315.479008 96.156935 
L 317.323636 103.570612 
L 319.168264 120.061744 
L 321.012893 117.858428 
L 326.546777 108.109982 
L 328.391405 122.226737 
L 330.236033 133.097331 
L 332.080661 127.121348 
L 333.925289 130.85898 
L 339.459174 149.313479 
L 341.303802 152.851306 
L 343.14843 140.54464 
L 344.993058 154.408786 
L 352.37157 153.978333 
L 354.216198 137.11304 
L 356.060826 137.916431 
L 357.905455 153.830778 
L 359.750083 183.550002 
L 365.283967 177.603394 
L 367.128595 207.212762 
L 368.973223 204.665651 
L 370.817851 178.402065 
L 372.662479 217.622019 
L 378.196364 211.563061 
L 380.040992 206.538448 
L 381.88562 176.057726 
L 383.730248 213.211085 
L 385.574876 218.516866 
L 391.10876 251.246284 
L 392.953388 248.982465 
L 394.798017 264.229468 
L 396.642645 265.354127 
L 398.487273 242.702025 
" style="fill:none;stroke:#ec5283;stroke-linecap:square;stroke-width:2;"/>
   </g>
   <g id="line2d_19">
    <path clip-path="url(#p728d2ecaf6)" d="M 73.832727 76.35224 
L 75.677355 78.454519 
L 81.21124 81.510644 
L 83.055868 80.439402 
L 84.900496 76.867446 
L 88.589752 102.39116 
L 94.123636 89.030464 
L 95.968264 109.980937 
L 97.812893 122.885466 
L 99.657521 106.819286 
L 101.502149 116.421788 
L 107.036033 103.302433 
L 108.880661 80.349996 
L 110.725289 76.452356 
L 112.569917 84.904327 
L 114.414545 73.646256 
L 119.94843 85.298019 
L 121.793058 92.503918 
L 123.637686 74.597759 
L 125.482314 85.528692 
L 127.326942 98.359945 
L 132.860826 111.802647 
L 134.705455 92.649667 
L 136.550083 80.817485 
L 138.394711 74.611664 
L 145.773223 58.304903 
L 147.617851 58.836368 
L 149.462479 57.76156 
L 151.307107 61.036788 
L 153.151736 63.662436 
L 158.68562 57.002876 
L 160.530248 57.404663 
L 162.374876 79.257641 
L 164.219504 80.968087 
L 166.064132 84.888169 
L 171.598017 87.254575 
L 173.442645 76.26115 
L 175.287273 72.81742 
L 177.131901 88.343495 
L 178.976529 88.272333 
L 186.355041 108.200285 
L 188.199669 119.5844 
L 190.044298 132.073062 
L 191.888926 154.207549 
L 197.42281 149.245514 
L 199.267438 161.838179 
L 201.112066 164.852029 
L 202.956694 170.764636 
L 204.801322 144.818628 
L 210.335207 125.18063 
L 212.179835 117.585672 
L 214.024463 106.438116 
L 215.869091 132.335306 
L 217.713719 127.407336 
L 223.247603 131.60988 
L 225.092231 122.688113 
L 226.93686 106.093731 
L 228.781488 126.623417 
L 230.626116 147.435995 
L 236.16 151.085756 
L 238.004628 134.070128 
L 239.849256 133.212533 
L 241.693884 155.527034 
L 243.538512 163.307849 
L 250.917025 174.573809 
L 252.761653 193.191172 
L 254.606281 177.681991 
L 256.450909 154.518297 
L 261.984793 157.727546 
L 263.829421 172.910484 
L 265.67405 153.995486 
L 267.518678 158.999797 
L 269.363306 167.52393 
L 274.89719 198.568899 
L 276.741818 206.636798 
L 278.586446 179.284883 
L 280.431074 184.285074 
L 282.275702 197.716074 
L 287.809587 205.399139 
L 289.654215 182.479877 
L 291.498843 159.760554 
L 293.343471 145.878816 
L 295.188099 135.797858 
L 300.721983 137.103196 
L 302.566612 124.036895 
L 304.41124 137.43995 
L 306.255868 123.134509 
L 308.100496 117.765571 
L 313.63438 110.574259 
L 315.479008 95.707086 
L 317.323636 102.886489 
L 319.168264 120.945803 
L 321.012893 116.962782 
L 326.546777 107.511802 
L 328.391405 121.661219 
L 330.236033 132.952194 
L 332.080661 127.829739 
L 333.925289 130.782751 
L 339.459174 149.335159 
L 341.303802 153.202638 
L 343.14843 140.967576 
L 344.993058 153.864952 
L 352.37157 153.653119 
L 354.216198 137.137533 
L 356.060826 137.791704 
L 357.905455 153.980017 
L 359.750083 183.462579 
L 365.283967 177.309213 
L 367.128595 207.322914 
L 368.973223 204.865406 
L 370.817851 178.688876 
L 372.662479 218.135433 
L 378.196364 211.432206 
L 380.040992 206.898116 
L 381.88562 175.368292 
L 383.730248 213.546667 
L 385.574876 219.389668 
L 391.10876 251.133405 
L 392.953388 249.135237 
L 394.798017 264.421292 
L 396.642645 265.590003 
L 398.487273 242.935426 
" style="fill:none;stroke:#00ff00;stroke-linecap:square;stroke-opacity:0.9;stroke-width:2;"/>
   </g>
   <g id="line2d_20">
    <path clip-path="url(#p728d2ecaf6)" d="M 73.832727 76.35224 
L 75.677355 78.105483 
L 81.21124 82.0488 
L 83.055868 79.763906 
L 84.900496 77.076406 
L 88.589752 102.670999 
L 94.123636 88.943702 
L 95.968264 110.731926 
L 97.812893 122.588766 
L 99.657521 106.585906 
L 101.502149 115.518029 
L 107.036033 102.548372 
L 108.880661 80.086792 
L 110.725289 75.945597 
L 112.569917 84.07814 
L 114.414545 73.196273 
L 119.94843 83.675494 
L 121.793058 91.536466 
L 123.637686 74.155747 
L 125.482314 84.527667 
L 127.326942 96.277024 
L 132.860826 108.195608 
L 134.705455 88.607043 
L 136.550083 76.607788 
L 138.394711 69.154749 
L 145.773223 52.828101 
L 147.617851 53.922187 
L 149.462479 52.497479 
L 151.307107 56.028202 
L 153.151736 59.287387 
L 158.68562 52.588699 
L 160.530248 52.154182 
L 162.374876 74.629153 
L 164.219504 75.85423 
L 166.064132 80.280744 
L 171.598017 82.857115 
L 173.442645 72.163314 
L 175.287273 68.238318 
L 177.131901 84.74157 
L 178.976529 83.892272 
L 186.355041 103.864828 
L 188.199669 115.444713 
L 190.044298 127.4677 
L 191.888926 149.363187 
L 197.42281 145.515812 
L 199.267438 157.942895 
L 201.112066 160.382026 
L 202.956694 165.917997 
L 204.801322 140.143865 
L 210.335207 120.062963 
L 212.179835 113.061532 
L 214.024463 101.316285 
L 215.869091 127.972054 
L 217.713719 122.172923 
L 223.247603 126.303026 
L 225.092231 117.697709 
L 226.93686 101.685464 
L 228.781488 120.94994 
L 230.626116 143.253656 
L 236.16 146.66367 
L 238.004628 128.915686 
L 239.849256 127.916023 
L 241.693884 150.695882 
L 243.538512 157.680144 
L 250.917025 169.419707 
L 252.761653 188.907095 
L 254.606281 172.269401 
L 256.450909 149.735111 
L 261.984793 151.837145 
L 263.829421 168.087901 
L 265.67405 149.237783 
L 267.518678 154.615032 
L 269.363306 162.651168 
L 274.89719 194.14133 
L 276.741818 201.722593 
L 278.586446 174.870407 
L 280.431074 178.814288 
L 282.275702 192.151862 
L 287.809587 199.614656 
L 289.654215 177.620341 
L 291.498843 154.128696 
L 293.343471 140.556491 
L 295.188099 128.67644 
L 300.721983 129.637109 
L 302.566612 116.084125 
L 304.41124 130.522652 
L 306.255868 113.872808 
L 308.100496 108.464677 
L 313.63438 100.512475 
L 315.479008 86.318936 
L 317.323636 94.073278 
L 319.168264 111.576833 
L 321.012893 107.640211 
L 326.546777 98.097286 
L 328.391405 112.434881 
L 330.236033 123.322657 
L 332.080661 118.073834 
L 333.925289 120.528987 
L 339.459174 139.806939 
L 341.303802 143.55587 
L 343.14843 130.963294 
L 344.993058 145.072501 
L 352.37157 144.36646 
L 354.216198 127.055852 
L 356.060826 128.051051 
L 357.905455 144.744225 
L 359.750083 174.565265 
L 365.283967 167.541066 
L 367.128595 198.480002 
L 368.973223 195.929477 
L 370.817851 169.382716 
L 372.662479 209.129393 
L 378.196364 202.730796 
L 380.040992 197.341079 
L 381.88562 166.804332 
L 383.730248 204.060991 
L 385.574876 210.016144 
L 391.10876 242.713668 
L 392.953388 239.706027 
L 394.798017 255.586886 
L 396.642645 256.253831 
L 398.487273 233.320709 
" style="fill:none;stroke:#a5b9cf;stroke-linecap:square;stroke-width:2;"/>
   </g>
   <g id="patch_3">
    <path d="M 57.6 276.48 
L 57.6 41.472 
" style="fill:none;stroke:#000000;stroke-linecap:square;stroke-linejoin:miter;stroke-width:0.8;"/>
   </g>
   <g id="patch_4">
    <path d="M 414.72 276.48 
L 414.72 41.472 
" style="fill:none;stroke:#000000;stroke-linecap:square;stroke-linejoin:miter;stroke-width:0.8;"/>
   </g>
   <g id="patch_5">
    <path d="M 57.6 276.48 
L 414.72 276.48 
" style="fill:none;stroke:#000000;stroke-linecap:square;stroke-linejoin:miter;stroke-width:0.8;"/>
   </g>
   <g id="patch_6">
    <path d="M 57.6 41.472 
L 414.72 41.472 
" style="fill:none;stroke:#000000;stroke-linecap:square;stroke-linejoin:miter;stroke-width:0.8;"/>
   </g>
   <g id="text_16">
    <!-- SP500 -->
    <g transform="translate(217.280625 22.034625)scale(0.12 -0.12)">
     <defs>
      <path d="M 3425 4513 
L 3425 3897 
Q 3066 4069 2747 4153 
Q 2428 4238 2131 4238 
Q 1616 4238 1336 4038 
Q 1056 3838 1056 3469 
Q 1056 3159 1242 3001 
Q 1428 2844 1947 2747 
L 2328 2669 
Q 3034 2534 3370 2195 
Q 3706 1856 3706 1288 
Q 3706 609 3251 259 
Q 2797 -91 1919 -91 
Q 1588 -91 1214 -16 
Q 841 59 441 206 
L 441 856 
Q 825 641 1194 531 
Q 1563 422 1919 422 
Q 2459 422 2753 634 
Q 3047 847 3047 1241 
Q 3047 1584 2836 1778 
Q 2625 1972 2144 2069 
L 1759 2144 
Q 1053 2284 737 2584 
Q 422 2884 422 3419 
Q 422 4038 858 4394 
Q 1294 4750 2059 4750 
Q 2388 4750 2728 4690 
Q 3069 4631 3425 4513 
z
" id="DejaVuSans-53" transform="scale(0.015625)"/>
      <path d="M 1259 4147 
L 1259 2394 
L 2053 2394 
Q 2494 2394 2734 2622 
Q 2975 2850 2975 3272 
Q 2975 3691 2734 3919 
Q 2494 4147 2053 4147 
L 1259 4147 
z
M 628 4666 
L 2053 4666 
Q 2838 4666 3239 4311 
Q 3641 3956 3641 3272 
Q 3641 2581 3239 2228 
Q 2838 1875 2053 1875 
L 1259 1875 
L 1259 0 
L 628 0 
L 628 4666 
z
" id="DejaVuSans-50" transform="scale(0.015625)"/>
     </defs>
     <use xlink:href="#DejaVuSans-53"/>
     <use x="63.476562" xlink:href="#DejaVuSans-50"/>
     <use x="123.779297" xlink:href="#DejaVuSans-35"/>
     <use x="187.402344" xlink:href="#DejaVuSans-30"/>
     <use x="251.025391" xlink:href="#DejaVuSans-30"/>
    </g>
    <!-- daily_report -->
    <g transform="translate(200.466563 35.472)scale(0.12 -0.12)">
     <defs>
      <path d="M 603 3500 
L 1178 3500 
L 1178 0 
L 603 0 
L 603 3500 
z
M 603 4863 
L 1178 4863 
L 1178 4134 
L 603 4134 
L 603 4863 
z
" id="DejaVuSans-69" transform="scale(0.015625)"/>
      <path d="M 603 4863 
L 1178 4863 
L 1178 0 
L 603 0 
L 603 4863 
z
" id="DejaVuSans-6c" transform="scale(0.015625)"/>
      <path d="M 2059 -325 
Q 1816 -950 1584 -1140 
Q 1353 -1331 966 -1331 
L 506 -1331 
L 506 -850 
L 844 -850 
Q 1081 -850 1212 -737 
Q 1344 -625 1503 -206 
L 1606 56 
L 191 3500 
L 800 3500 
L 1894 763 
L 2988 3500 
L 3597 3500 
L 2059 -325 
z
" id="DejaVuSans-79" transform="scale(0.015625)"/>
      <path d="M 3263 -1063 
L 3263 -1509 
L -63 -1509 
L -63 -1063 
L 3263 -1063 
z
" id="DejaVuSans-5f" transform="scale(0.015625)"/>
      <path d="M 2631 2963 
Q 2534 3019 2420 3045 
Q 2306 3072 2169 3072 
Q 1681 3072 1420 2755 
Q 1159 2438 1159 1844 
L 1159 0 
L 581 0 
L 581 3500 
L 1159 3500 
L 1159 2956 
Q 1341 3275 1631 3429 
Q 1922 3584 2338 3584 
Q 2397 3584 2469 3576 
Q 2541 3569 2628 3553 
L 2631 2963 
z
" id="DejaVuSans-72" transform="scale(0.015625)"/>
      <path d="M 1159 525 
L 1159 -1331 
L 581 -1331 
L 581 3500 
L 1159 3500 
L 1159 2969 
Q 1341 3281 1617 3432 
Q 1894 3584 2278 3584 
Q 2916 3584 3314 3078 
Q 3713 2572 3713 1747 
Q 3713 922 3314 415 
Q 2916 -91 2278 -91 
Q 1894 -91 1617 61 
Q 1341 213 1159 525 
z
M 3116 1747 
Q 3116 2381 2855 2742 
Q 2594 3103 2138 3103 
Q 1681 3103 1420 2742 
Q 1159 2381 1159 1747 
Q 1159 1113 1420 752 
Q 1681 391 2138 391 
Q 2594 391 2855 752 
Q 3116 1113 3116 1747 
z
" id="DejaVuSans-70" transform="scale(0.015625)"/>
      <path d="M 1959 3097 
Q 1497 3097 1228 2736 
Q 959 2375 959 1747 
Q 959 1119 1226 758 
Q 1494 397 1959 397 
Q 2419 397 2687 759 
Q 2956 1122 2956 1747 
Q 2956 2369 2687 2733 
Q 2419 3097 1959 3097 
z
M 1959 3584 
Q 2709 3584 3137 3096 
Q 3566 2609 3566 1747 
Q 3566 888 3137 398 
Q 2709 -91 1959 -91 
Q 1206 -91 779 398 
Q 353 888 353 1747 
Q 353 2609 779 3096 
Q 1206 3584 1959 3584 
z
" id="DejaVuSans-6f" transform="scale(0.015625)"/>
     </defs>
     <use xlink:href="#DejaVuSans-64"/>
     <use x="63.476562" xlink:href="#DejaVuSans-61"/>
     <use x="124.755859" xlink:href="#DejaVuSans-69"/>
     <use x="152.539062" xlink:href="#DejaVuSans-6c"/>
     <use x="180.322266" xlink:href="#DejaVuSans-79"/>
     <use x="239.501953" xlink:href="#DejaVuSans-5f"/>
     <use x="289.501953" xlink:href="#DejaVuSans-72"/>
     <use x="328.365234" xlink:href="#DejaVuSans-65"/>
     <use x="389.888672" xlink:href="#DejaVuSans-70"/>
     <use x="453.365234" xlink:href="#DejaVuSans-6f"/>
     <use x="514.546875" xlink:href="#DejaVuSans-72"/>
     <use x="555.660156" xlink:href="#DejaVuSans-74"/>
    </g>
   </g>
   <g id="legend_1">
    <g id="patch_7">
     <path d="M 64.6 271.48 
L 178.64375 271.48 
Q 180.64375 271.48 180.64375 269.48 
L 180.64375 182.41125 
Q 180.64375 180.41125 178.64375 180.41125 
L 64.6 180.41125 
Q 62.6 180.41125 62.6 182.41125 
L 62.6 269.48 
Q 62.6 271.48 64.6 271.48 
z
" style="fill:#ffffff;opacity:0.8;stroke:#cccccc;stroke-linejoin:miter;"/>
    </g>
    <g id="line2d_21">
     <path d="M 66.6 188.509687 
L 86.6 188.509687 
" style="fill:none;stroke:#0000ff;stroke-linecap:square;stroke-opacity:0.9;stroke-width:2;"/>
    </g>
    <g id="line2d_22"/>
    <g id="text_17">
     <!-- alpaca -->
     <g transform="translate(94.6 192.009687)scale(0.1 -0.1)">
      <defs>
       <path d="M 3122 3366 
L 3122 2828 
Q 2878 2963 2633 3030 
Q 2388 3097 2138 3097 
Q 1578 3097 1268 2742 
Q 959 2388 959 1747 
Q 959 1106 1268 751 
Q 1578 397 2138 397 
Q 2388 397 2633 464 
Q 2878 531 3122 666 
L 3122 134 
Q 2881 22 2623 -34 
Q 2366 -91 2075 -91 
Q 1284 -91 818 406 
Q 353 903 353 1747 
Q 353 2603 823 3093 
Q 1294 3584 2113 3584 
Q 2378 3584 2631 3529 
Q 2884 3475 3122 3366 
z
" id="DejaVuSans-63" transform="scale(0.015625)"/>
      </defs>
      <use xlink:href="#DejaVuSans-61"/>
      <use x="61.279297" xlink:href="#DejaVuSans-6c"/>
      <use x="89.0625" xlink:href="#DejaVuSans-70"/>
      <use x="152.539062" xlink:href="#DejaVuSans-61"/>
      <use x="213.818359" xlink:href="#DejaVuSans-63"/>
      <use x="268.798828" xlink:href="#DejaVuSans-61"/>
     </g>
    </g>
    <g id="line2d_23">
     <path d="M 66.6 203.187812 
L 86.6 203.187812 
" style="fill:none;stroke:#ff0000;stroke-linecap:square;stroke-opacity:0.9;stroke-width:2;"/>
    </g>
    <g id="line2d_24"/>
    <g id="text_18">
     <!-- mattress -->
     <g transform="translate(94.6 206.687812)scale(0.1 -0.1)">
      <defs>
       <path d="M 3328 2828 
Q 3544 3216 3844 3400 
Q 4144 3584 4550 3584 
Q 5097 3584 5394 3201 
Q 5691 2819 5691 2113 
L 5691 0 
L 5113 0 
L 5113 2094 
Q 5113 2597 4934 2840 
Q 4756 3084 4391 3084 
Q 3944 3084 3684 2787 
Q 3425 2491 3425 1978 
L 3425 0 
L 2847 0 
L 2847 2094 
Q 2847 2600 2669 2842 
Q 2491 3084 2119 3084 
Q 1678 3084 1418 2786 
Q 1159 2488 1159 1978 
L 1159 0 
L 581 0 
L 581 3500 
L 1159 3500 
L 1159 2956 
Q 1356 3278 1631 3431 
Q 1906 3584 2284 3584 
Q 2666 3584 2933 3390 
Q 3200 3197 3328 2828 
z
" id="DejaVuSans-6d" transform="scale(0.015625)"/>
       <path d="M 2834 3397 
L 2834 2853 
Q 2591 2978 2328 3040 
Q 2066 3103 1784 3103 
Q 1356 3103 1142 2972 
Q 928 2841 928 2578 
Q 928 2378 1081 2264 
Q 1234 2150 1697 2047 
L 1894 2003 
Q 2506 1872 2764 1633 
Q 3022 1394 3022 966 
Q 3022 478 2636 193 
Q 2250 -91 1575 -91 
Q 1294 -91 989 -36 
Q 684 19 347 128 
L 347 722 
Q 666 556 975 473 
Q 1284 391 1588 391 
Q 1994 391 2212 530 
Q 2431 669 2431 922 
Q 2431 1156 2273 1281 
Q 2116 1406 1581 1522 
L 1381 1569 
Q 847 1681 609 1914 
Q 372 2147 372 2553 
Q 372 3047 722 3315 
Q 1072 3584 1716 3584 
Q 2034 3584 2315 3537 
Q 2597 3491 2834 3397 
z
" id="DejaVuSans-73" transform="scale(0.015625)"/>
      </defs>
      <use xlink:href="#DejaVuSans-6d"/>
      <use x="97.412109" xlink:href="#DejaVuSans-61"/>
      <use x="158.691406" xlink:href="#DejaVuSans-74"/>
      <use x="197.900391" xlink:href="#DejaVuSans-74"/>
      <use x="237.109375" xlink:href="#DejaVuSans-72"/>
      <use x="275.972656" xlink:href="#DejaVuSans-65"/>
      <use x="337.496094" xlink:href="#DejaVuSans-73"/>
      <use x="389.595703" xlink:href="#DejaVuSans-73"/>
     </g>
    </g>
    <g id="line2d_25">
     <path d="M 66.6 217.865937 
L 86.6 217.865937 
" style="fill:none;stroke:#008000;stroke-linecap:square;stroke-opacity:0.9;stroke-width:2;"/>
    </g>
    <g id="line2d_26"/>
    <g id="text_19">
     <!-- daily-open-rebal -->
     <g transform="translate(94.6 221.365937)scale(0.1 -0.1)">
      <defs>
       <path d="M 3513 2113 
L 3513 0 
L 2938 0 
L 2938 2094 
Q 2938 2591 2744 2837 
Q 2550 3084 2163 3084 
Q 1697 3084 1428 2787 
Q 1159 2491 1159 1978 
L 1159 0 
L 581 0 
L 581 3500 
L 1159 3500 
L 1159 2956 
Q 1366 3272 1645 3428 
Q 1925 3584 2291 3584 
Q 2894 3584 3203 3211 
Q 3513 2838 3513 2113 
z
" id="DejaVuSans-6e" transform="scale(0.015625)"/>
       <path d="M 3116 1747 
Q 3116 2381 2855 2742 
Q 2594 3103 2138 3103 
Q 1681 3103 1420 2742 
Q 1159 2381 1159 1747 
Q 1159 1113 1420 752 
Q 1681 391 2138 391 
Q 2594 391 2855 752 
Q 3116 1113 3116 1747 
z
M 1159 2969 
Q 1341 3281 1617 3432 
Q 1894 3584 2278 3584 
Q 2916 3584 3314 3078 
Q 3713 2572 3713 1747 
Q 3713 922 3314 415 
Q 2916 -91 2278 -91 
Q 1894 -91 1617 61 
Q 1341 213 1159 525 
L 1159 0 
L 581 0 
L 581 4863 
L 1159 4863 
L 1159 2969 
z
" id="DejaVuSans-62" transform="scale(0.015625)"/>
      </defs>
      <use xlink:href="#DejaVuSans-64"/>
      <use x="63.476562" xlink:href="#DejaVuSans-61"/>
      <use x="124.755859" xlink:href="#DejaVuSans-69"/>
      <use x="152.539062" xlink:href="#DejaVuSans-6c"/>
      <use x="180.322266" xlink:href="#DejaVuSans-79"/>
      <use x="237.751953" xlink:href="#DejaVuSans-2d"/>
      <use x="275.710938" xlink:href="#DejaVuSans-6f"/>
      <use x="336.892578" xlink:href="#DejaVuSans-70"/>
      <use x="400.369141" xlink:href="#DejaVuSans-65"/>
      <use x="461.892578" xlink:href="#DejaVuSans-6e"/>
      <use x="525.271484" xlink:href="#DejaVuSans-2d"/>
      <use x="561.355469" xlink:href="#DejaVuSans-72"/>
      <use x="600.21875" xlink:href="#DejaVuSans-65"/>
      <use x="661.742188" xlink:href="#DejaVuSans-62"/>
      <use x="725.21875" xlink:href="#DejaVuSans-61"/>
      <use x="786.498047" xlink:href="#DejaVuSans-6c"/>
     </g>
    </g>
    <g id="line2d_27">
     <path d="M 66.6 232.544062 
L 86.6 232.544062 
" style="fill:none;stroke:#ec5283;stroke-linecap:square;stroke-width:2;"/>
    </g>
    <g id="line2d_28"/>
    <g id="text_20">
     <!-- daily-close-rebal -->
     <g transform="translate(94.6 236.044062)scale(0.1 -0.1)">
      <use xlink:href="#DejaVuSans-64"/>
      <use x="63.476562" xlink:href="#DejaVuSans-61"/>
      <use x="124.755859" xlink:href="#DejaVuSans-69"/>
      <use x="152.539062" xlink:href="#DejaVuSans-6c"/>
      <use x="180.322266" xlink:href="#DejaVuSans-79"/>
      <use x="237.751953" xlink:href="#DejaVuSans-2d"/>
      <use x="273.835938" xlink:href="#DejaVuSans-63"/>
      <use x="328.816406" xlink:href="#DejaVuSans-6c"/>
      <use x="356.599609" xlink:href="#DejaVuSans-6f"/>
      <use x="417.78125" xlink:href="#DejaVuSans-73"/>
      <use x="469.880859" xlink:href="#DejaVuSans-65"/>
      <use x="531.404297" xlink:href="#DejaVuSans-2d"/>
      <use x="567.488281" xlink:href="#DejaVuSans-72"/>
      <use x="606.351562" xlink:href="#DejaVuSans-65"/>
      <use x="667.875" xlink:href="#DejaVuSans-62"/>
      <use x="731.351562" xlink:href="#DejaVuSans-61"/>
      <use x="792.630859" xlink:href="#DejaVuSans-6c"/>
     </g>
    </g>
    <g id="line2d_29">
     <path d="M 66.6 247.222187 
L 86.6 247.222187 
" style="fill:none;stroke:#00ff00;stroke-linecap:square;stroke-opacity:0.9;stroke-width:2;"/>
    </g>
    <g id="line2d_30"/>
    <g id="text_21">
     <!-- trader-baseline -->
     <g transform="translate(94.6 250.722187)scale(0.1 -0.1)">
      <use xlink:href="#DejaVuSans-74"/>
      <use x="39.208984" xlink:href="#DejaVuSans-72"/>
      <use x="80.322266" xlink:href="#DejaVuSans-61"/>
      <use x="141.601562" xlink:href="#DejaVuSans-64"/>
      <use x="205.078125" xlink:href="#DejaVuSans-65"/>
      <use x="266.601562" xlink:href="#DejaVuSans-72"/>
      <use x="301.339844" xlink:href="#DejaVuSans-2d"/>
      <use x="337.423828" xlink:href="#DejaVuSans-62"/>
      <use x="400.900391" xlink:href="#DejaVuSans-61"/>
      <use x="462.179688" xlink:href="#DejaVuSans-73"/>
      <use x="514.279297" xlink:href="#DejaVuSans-65"/>
      <use x="575.802734" xlink:href="#DejaVuSans-6c"/>
      <use x="603.585938" xlink:href="#DejaVuSans-69"/>
      <use x="631.369141" xlink:href="#DejaVuSans-6e"/>
      <use x="694.748047" xlink:href="#DejaVuSans-65"/>
     </g>
    </g>
    <g id="line2d_31">
     <path d="M 66.6 261.900312 
L 86.6 261.900312 
" style="fill:none;stroke:#a5b9cf;stroke-linecap:square;stroke-width:2;"/>
    </g>
    <g id="line2d_32"/>
    <g id="text_22">
     <!-- default-cfg -->
     <g transform="translate(94.6 265.400312)scale(0.1 -0.1)">
      <defs>
       <path d="M 2375 4863 
L 2375 4384 
L 1825 4384 
Q 1516 4384 1395 4259 
Q 1275 4134 1275 3809 
L 1275 3500 
L 2222 3500 
L 2222 3053 
L 1275 3053 
L 1275 0 
L 697 0 
L 697 3053 
L 147 3053 
L 147 3500 
L 697 3500 
L 697 3744 
Q 697 4328 969 4595 
Q 1241 4863 1831 4863 
L 2375 4863 
z
" id="DejaVuSans-66" transform="scale(0.015625)"/>
       <path d="M 544 1381 
L 544 3500 
L 1119 3500 
L 1119 1403 
Q 1119 906 1312 657 
Q 1506 409 1894 409 
Q 2359 409 2629 706 
Q 2900 1003 2900 1516 
L 2900 3500 
L 3475 3500 
L 3475 0 
L 2900 0 
L 2900 538 
Q 2691 219 2414 64 
Q 2138 -91 1772 -91 
Q 1169 -91 856 284 
Q 544 659 544 1381 
z
M 1991 3584 
L 1991 3584 
z
" id="DejaVuSans-75" transform="scale(0.015625)"/>
       <path d="M 2906 1791 
Q 2906 2416 2648 2759 
Q 2391 3103 1925 3103 
Q 1463 3103 1205 2759 
Q 947 2416 947 1791 
Q 947 1169 1205 825 
Q 1463 481 1925 481 
Q 2391 481 2648 825 
Q 2906 1169 2906 1791 
z
M 3481 434 
Q 3481 -459 3084 -895 
Q 2688 -1331 1869 -1331 
Q 1566 -1331 1297 -1286 
Q 1028 -1241 775 -1147 
L 775 -588 
Q 1028 -725 1275 -790 
Q 1522 -856 1778 -856 
Q 2344 -856 2625 -561 
Q 2906 -266 2906 331 
L 2906 616 
Q 2728 306 2450 153 
Q 2172 0 1784 0 
Q 1141 0 747 490 
Q 353 981 353 1791 
Q 353 2603 747 3093 
Q 1141 3584 1784 3584 
Q 2172 3584 2450 3431 
Q 2728 3278 2906 2969 
L 2906 3500 
L 3481 3500 
L 3481 434 
z
" id="DejaVuSans-67" transform="scale(0.015625)"/>
      </defs>
      <use xlink:href="#DejaVuSans-64"/>
      <use x="63.476562" xlink:href="#DejaVuSans-65"/>
      <use x="125" xlink:href="#DejaVuSans-66"/>
      <use x="160.205078" xlink:href="#DejaVuSans-61"/>
      <use x="221.484375" xlink:href="#DejaVuSans-75"/>
      <use x="284.863281" xlink:href="#DejaVuSans-6c"/>
      <use x="312.646484" xlink:href="#DejaVuSans-74"/>
      <use x="351.855469" xlink:href="#DejaVuSans-2d"/>
      <use x="387.939453" xlink:href="#DejaVuSans-63"/>
      <use x="442.919922" xlink:href="#DejaVuSans-66"/>
      <use x="478.125" xlink:href="#DejaVuSans-67"/>
     </g>
    </g>
   </g>
  </g>
 </g>
 <defs>
  <clipPath id="p728d2ecaf6">
   <rect height="235.008" width="357.12" x="57.6" y="41.472"/>
  </clipPath>
 </defs>
</svg>
