<?xml version="1.0" encoding="utf-8" standalone="no"?>
<!DOCTYPE svg PUBLIC "-//W3C//DTD SVG 1.1//EN"
  "http://www.w3.org/Graphics/SVG/1.1/DTD/svg11.dtd">
<svg height="345.6pt" version="1.1" viewBox="0 0 460.8 345.6" width="460.8pt" xmlns="http://www.w3.org/2000/svg" xmlns:xlink="http://www.w3.org/1999/xlink">
 <metadata>
  <rdf:RDF xmlns:cc="http://creativecommons.org/ns#" xmlns:dc="http://purl.org/dc/elements/1.1/" xmlns:rdf="http://www.w3.org/1999/02/22-rdf-syntax-ns#">
   <cc:Work>
    <dc:type rdf:resource="http://purl.org/dc/dcmitype/StillImage"/>
    <dc:date>2022-05-15T10:02:06.560735</dc:date>
    <dc:format>image/svg+xml</dc:format>
    <dc:creator>
     <cc:Agent>
      <dc:title>Matplotlib v3.4.3, https://matplotlib.org/</dc:title>
     </cc:Agent>
    </dc:creator>
   </cc:Work>
  </rdf:RDF>
 </metadata>
 <defs>
  <style type="text/css">*{stroke-linecap:butt;stroke-linejoin:round;}</style>
 </defs>
 <g id="figure_1">
  <g id="patch_1">
   <path d="M 0 345.6 
L 460.8 345.6 
L 460.8 0 
L 0 0 
z
" style="fill:#ffffff;"/>
  </g>
  <g id="axes_1">
   <g id="patch_2">
    <path d="M 57.6 276.48 
L 414.72 276.48 
L 414.72 41.472 
L 57.6 41.472 
z
" style="fill:#ffffff;"/>
   </g>
   <g id="matplotlib.axis_1">
    <g id="xtick_1">
     <g id="line2d_1">
      <defs>
       <path d="M 0 0 
L 0 3.5 
" id="mb66c207dd2" style="stroke:#000000;stroke-width:0.8;"/>
      </defs>
      <g>
       <use style="stroke:#000000;stroke-width:0.8;" x="97.812893" xlink:href="#mb66c207dd2" y="276.48"/>
      </g>
     </g>
     <g id="text_1">
      <!-- 2021-12 -->
      <g transform="translate(60.588072 310.951846)rotate(-30)scale(0.1 -0.1)">
       <defs>
        <path d="M 1228 531 
L 3431 531 
L 3431 0 
L 469 0 
L 469 531 
Q 828 903 1448 1529 
Q 2069 2156 2228 2338 
Q 2531 2678 2651 2914 
Q 2772 3150 2772 3378 
Q 2772 3750 2511 3984 
Q 2250 4219 1831 4219 
Q 1534 4219 1204 4116 
Q 875 4013 500 3803 
L 500 4441 
Q 881 4594 1212 4672 
Q 1544 4750 1819 4750 
Q 2544 4750 2975 4387 
Q 3406 4025 3406 3419 
Q 3406 3131 3298 2873 
Q 3191 2616 2906 2266 
Q 2828 2175 2409 1742 
Q 1991 1309 1228 531 
z
" id="DejaVuSans-32" transform="scale(0.015625)"/>
        <path d="M 2034 4250 
Q 1547 4250 1301 3770 
Q 1056 3291 1056 2328 
Q 1056 1369 1301 889 
Q 1547 409 2034 409 
Q 2525 409 2770 889 
Q 3016 1369 3016 2328 
Q 3016 3291 2770 3770 
Q 2525 4250 2034 4250 
z
M 2034 4750 
Q 2819 4750 3233 4129 
Q 3647 3509 3647 2328 
Q 3647 1150 3233 529 
Q 2819 -91 2034 -91 
Q 1250 -91 836 529 
Q 422 1150 422 2328 
Q 422 3509 836 4129 
Q 1250 4750 2034 4750 
z
" id="DejaVuSans-30" transform="scale(0.015625)"/>
        <path d="M 794 531 
L 1825 531 
L 1825 4091 
L 703 3866 
L 703 4441 
L 1819 4666 
L 2450 4666 
L 2450 531 
L 3481 531 
L 3481 0 
L 794 0 
L 794 531 
z
" id="DejaVuSans-31" transform="scale(0.015625)"/>
        <path d="M 313 2009 
L 1997 2009 
L 1997 1497 
L 313 1497 
L 313 2009 
z
" id="DejaVuSans-2d" transform="scale(0.015625)"/>
       </defs>
       <use xlink:href="#DejaVuSans-32"/>
       <use x="63.623047" xlink:href="#DejaVuSans-30"/>
       <use x="127.246094" xlink:href="#DejaVuSans-32"/>
       <use x="190.869141" xlink:href="#DejaVuSans-31"/>
       <use x="254.492188" xlink:href="#DejaVuSans-2d"/>
       <use x="290.576172" xlink:href="#DejaVuSans-31"/>
       <use x="354.199219" xlink:href="#DejaVuSans-32"/>
      </g>
     </g>
    </g>
    <g id="xtick_2">
     <g id="line2d_2">
      <g>
       <use style="stroke:#000000;stroke-width:0.8;" x="154.996364" xlink:href="#mb66c207dd2" y="276.48"/>
      </g>
     </g>
     <g id="text_2">
      <!-- 2022-01 -->
      <g transform="translate(117.771543 310.951846)rotate(-30)scale(0.1 -0.1)">
       <use xlink:href="#DejaVuSans-32"/>
       <use x="63.623047" xlink:href="#DejaVuSans-30"/>
       <use x="127.246094" xlink:href="#DejaVuSans-32"/>
       <use x="190.869141" xlink:href="#DejaVuSans-32"/>
       <use x="254.492188" xlink:href="#DejaVuSans-2d"/>
       <use x="290.576172" xlink:href="#DejaVuSans-30"/>
       <use x="354.199219" xlink:href="#DejaVuSans-31"/>
      </g>
     </g>
    </g>
    <g id="xtick_3">
     <g id="line2d_3">
      <g>
       <use style="stroke:#000000;stroke-width:0.8;" x="212.179835" xlink:href="#mb66c207dd2" y="276.48"/>
      </g>
     </g>
     <g id="text_3">
      <!-- 2022-02 -->
      <g transform="translate(174.955014 310.951846)rotate(-30)scale(0.1 -0.1)">
       <use xlink:href="#DejaVuSans-32"/>
       <use x="63.623047" xlink:href="#DejaVuSans-30"/>
       <use x="127.246094" xlink:href="#DejaVuSans-32"/>
       <use x="190.869141" xlink:href="#DejaVuSans-32"/>
       <use x="254.492188" xlink:href="#DejaVuSans-2d"/>
       <use x="290.576172" xlink:href="#DejaVuSans-30"/>
       <use x="354.199219" xlink:href="#DejaVuSans-32"/>
      </g>
     </g>
    </g>
    <g id="xtick_4">
     <g id="line2d_4">
      <g>
       <use style="stroke:#000000;stroke-width:0.8;" x="263.829421" xlink:href="#mb66c207dd2" y="276.48"/>
      </g>
     </g>
     <g id="text_4">
      <!-- 2022-03 -->
      <g transform="translate(226.604601 310.951846)rotate(-30)scale(0.1 -0.1)">
       <defs>
        <path d="M 2597 2516 
Q 3050 2419 3304 2112 
Q 3559 1806 3559 1356 
Q 3559 666 3084 287 
Q 2609 -91 1734 -91 
Q 1441 -91 1130 -33 
Q 819 25 488 141 
L 488 750 
Q 750 597 1062 519 
Q 1375 441 1716 441 
Q 2309 441 2620 675 
Q 2931 909 2931 1356 
Q 2931 1769 2642 2001 
Q 2353 2234 1838 2234 
L 1294 2234 
L 1294 2753 
L 1863 2753 
Q 2328 2753 2575 2939 
Q 2822 3125 2822 3475 
Q 2822 3834 2567 4026 
Q 2313 4219 1838 4219 
Q 1578 4219 1281 4162 
Q 984 4106 628 3988 
L 628 4550 
Q 988 4650 1302 4700 
Q 1616 4750 1894 4750 
Q 2613 4750 3031 4423 
Q 3450 4097 3450 3541 
Q 3450 3153 3228 2886 
Q 3006 2619 2597 2516 
z
" id="DejaVuSans-33" transform="scale(0.015625)"/>
       </defs>
       <use xlink:href="#DejaVuSans-32"/>
       <use x="63.623047" xlink:href="#DejaVuSans-30"/>
       <use x="127.246094" xlink:href="#DejaVuSans-32"/>
       <use x="190.869141" xlink:href="#DejaVuSans-32"/>
       <use x="254.492188" xlink:href="#DejaVuSans-2d"/>
       <use x="290.576172" xlink:href="#DejaVuSans-30"/>
       <use x="354.199219" xlink:href="#DejaVuSans-33"/>
      </g>
     </g>
    </g>
    <g id="xtick_5">
     <g id="line2d_5">
      <g>
       <use style="stroke:#000000;stroke-width:0.8;" x="321.012893" xlink:href="#mb66c207dd2" y="276.48"/>
      </g>
     </g>
     <g id="text_5">
      <!-- 2022-04 -->
      <g transform="translate(283.788072 310.951846)rotate(-30)scale(0.1 -0.1)">
       <defs>
        <path d="M 2419 4116 
L 825 1625 
L 2419 1625 
L 2419 4116 
z
M 2253 4666 
L 3047 4666 
L 3047 1625 
L 3713 1625 
L 3713 1100 
L 3047 1100 
L 3047 0 
L 2419 0 
L 2419 1100 
L 313 1100 
L 313 1709 
L 2253 4666 
z
" id="DejaVuSans-34" transform="scale(0.015625)"/>
       </defs>
       <use xlink:href="#DejaVuSans-32"/>
       <use x="63.623047" xlink:href="#DejaVuSans-30"/>
       <use x="127.246094" xlink:href="#DejaVuSans-32"/>
       <use x="190.869141" xlink:href="#DejaVuSans-32"/>
       <use x="254.492188" xlink:href="#DejaVuSans-2d"/>
       <use x="290.576172" xlink:href="#DejaVuSans-30"/>
       <use x="354.199219" xlink:href="#DejaVuSans-34"/>
      </g>
     </g>
    </g>
    <g id="xtick_6">
     <g id="line2d_6">
      <g>
       <use style="stroke:#000000;stroke-width:0.8;" x="376.351736" xlink:href="#mb66c207dd2" y="276.48"/>
      </g>
     </g>
     <g id="text_6">
      <!-- 2022-05 -->
      <g transform="translate(339.126915 310.951846)rotate(-30)scale(0.1 -0.1)">
       <defs>
        <path d="M 691 4666 
L 3169 4666 
L 3169 4134 
L 1269 4134 
L 1269 2991 
Q 1406 3038 1543 3061 
Q 1681 3084 1819 3084 
Q 2600 3084 3056 2656 
Q 3513 2228 3513 1497 
Q 3513 744 3044 326 
Q 2575 -91 1722 -91 
Q 1428 -91 1123 -41 
Q 819 9 494 109 
L 494 744 
Q 775 591 1075 516 
Q 1375 441 1709 441 
Q 2250 441 2565 725 
Q 2881 1009 2881 1497 
Q 2881 1984 2565 2268 
Q 2250 2553 1709 2553 
Q 1456 2553 1204 2497 
Q 953 2441 691 2322 
L 691 4666 
z
" id="DejaVuSans-35" transform="scale(0.015625)"/>
       </defs>
       <use xlink:href="#DejaVuSans-32"/>
       <use x="63.623047" xlink:href="#DejaVuSans-30"/>
       <use x="127.246094" xlink:href="#DejaVuSans-32"/>
       <use x="190.869141" xlink:href="#DejaVuSans-32"/>
       <use x="254.492188" xlink:href="#DejaVuSans-2d"/>
       <use x="290.576172" xlink:href="#DejaVuSans-30"/>
       <use x="354.199219" xlink:href="#DejaVuSans-35"/>
      </g>
     </g>
    </g>
    <g id="text_7">
     <!-- date -->
     <g transform="translate(224.885 324.351346)scale(0.1 -0.1)">
      <defs>
       <path d="M 2906 2969 
L 2906 4863 
L 3481 4863 
L 3481 0 
L 2906 0 
L 2906 525 
Q 2725 213 2448 61 
Q 2172 -91 1784 -91 
Q 1150 -91 751 415 
Q 353 922 353 1747 
Q 353 2572 751 3078 
Q 1150 3584 1784 3584 
Q 2172 3584 2448 3432 
Q 2725 3281 2906 2969 
z
M 947 1747 
Q 947 1113 1208 752 
Q 1469 391 1925 391 
Q 2381 391 2643 752 
Q 2906 1113 2906 1747 
Q 2906 2381 2643 2742 
Q 2381 3103 1925 3103 
Q 1469 3103 1208 2742 
Q 947 2381 947 1747 
z
" id="DejaVuSans-64" transform="scale(0.015625)"/>
       <path d="M 2194 1759 
Q 1497 1759 1228 1600 
Q 959 1441 959 1056 
Q 959 750 1161 570 
Q 1363 391 1709 391 
Q 2188 391 2477 730 
Q 2766 1069 2766 1631 
L 2766 1759 
L 2194 1759 
z
M 3341 1997 
L 3341 0 
L 2766 0 
L 2766 531 
Q 2569 213 2275 61 
Q 1981 -91 1556 -91 
Q 1019 -91 701 211 
Q 384 513 384 1019 
Q 384 1609 779 1909 
Q 1175 2209 1959 2209 
L 2766 2209 
L 2766 2266 
Q 2766 2663 2505 2880 
Q 2244 3097 1772 3097 
Q 1472 3097 1187 3025 
Q 903 2953 641 2809 
L 641 3341 
Q 956 3463 1253 3523 
Q 1550 3584 1831 3584 
Q 2591 3584 2966 3190 
Q 3341 2797 3341 1997 
z
" id="DejaVuSans-61" transform="scale(0.015625)"/>
       <path d="M 1172 4494 
L 1172 3500 
L 2356 3500 
L 2356 3053 
L 1172 3053 
L 1172 1153 
Q 1172 725 1289 603 
Q 1406 481 1766 481 
L 2356 481 
L 2356 0 
L 1766 0 
Q 1100 0 847 248 
Q 594 497 594 1153 
L 594 3053 
L 172 3053 
L 172 3500 
L 594 3500 
L 594 4494 
L 1172 4494 
z
" id="DejaVuSans-74" transform="scale(0.015625)"/>
       <path d="M 3597 1894 
L 3597 1613 
L 953 1613 
Q 991 1019 1311 708 
Q 1631 397 2203 397 
Q 2534 397 2845 478 
Q 3156 559 3463 722 
L 3463 178 
Q 3153 47 2828 -22 
Q 2503 -91 2169 -91 
Q 1331 -91 842 396 
Q 353 884 353 1716 
Q 353 2575 817 3079 
Q 1281 3584 2069 3584 
Q 2775 3584 3186 3129 
Q 3597 2675 3597 1894 
z
M 3022 2063 
Q 3016 2534 2758 2815 
Q 2500 3097 2075 3097 
Q 1594 3097 1305 2825 
Q 1016 2553 972 2059 
L 3022 2063 
z
" id="DejaVuSans-65" transform="scale(0.015625)"/>
      </defs>
      <use xlink:href="#DejaVuSans-64"/>
      <use x="63.476562" xlink:href="#DejaVuSans-61"/>
      <use x="124.755859" xlink:href="#DejaVuSans-74"/>
      <use x="163.964844" xlink:href="#DejaVuSans-65"/>
     </g>
    </g>
   </g>
   <g id="matplotlib.axis_2">
    <g id="ytick_1">
     <g id="line2d_7">
      <defs>
       <path d="M 0 0 
L -3.5 0 
" id="m8761dde3aa" style="stroke:#000000;stroke-width:0.8;"/>
      </defs>
      <g>
       <use style="stroke:#000000;stroke-width:0.8;" x="57.6" xlink:href="#m8761dde3aa" y="241.400483"/>
      </g>
     </g>
     <g id="text_8">
      <!-- 50000 -->
      <g transform="translate(18.7875 245.199702)scale(0.1 -0.1)">
       <use xlink:href="#DejaVuSans-35"/>
       <use x="63.623047" xlink:href="#DejaVuSans-30"/>
       <use x="127.246094" xlink:href="#DejaVuSans-30"/>
       <use x="190.869141" xlink:href="#DejaVuSans-30"/>
       <use x="254.492188" xlink:href="#DejaVuSans-30"/>
      </g>
     </g>
    </g>
    <g id="ytick_2">
     <g id="line2d_8">
      <g>
       <use style="stroke:#000000;stroke-width:0.8;" x="57.6" xlink:href="#m8761dde3aa" y="203.182926"/>
      </g>
     </g>
     <g id="text_9">
      <!-- 60000 -->
      <g transform="translate(18.7875 206.982144)scale(0.1 -0.1)">
       <defs>
        <path d="M 2113 2584 
Q 1688 2584 1439 2293 
Q 1191 2003 1191 1497 
Q 1191 994 1439 701 
Q 1688 409 2113 409 
Q 2538 409 2786 701 
Q 3034 994 3034 1497 
Q 3034 2003 2786 2293 
Q 2538 2584 2113 2584 
z
M 3366 4563 
L 3366 3988 
Q 3128 4100 2886 4159 
Q 2644 4219 2406 4219 
Q 1781 4219 1451 3797 
Q 1122 3375 1075 2522 
Q 1259 2794 1537 2939 
Q 1816 3084 2150 3084 
Q 2853 3084 3261 2657 
Q 3669 2231 3669 1497 
Q 3669 778 3244 343 
Q 2819 -91 2113 -91 
Q 1303 -91 875 529 
Q 447 1150 447 2328 
Q 447 3434 972 4092 
Q 1497 4750 2381 4750 
Q 2619 4750 2861 4703 
Q 3103 4656 3366 4563 
z
" id="DejaVuSans-36" transform="scale(0.015625)"/>
       </defs>
       <use xlink:href="#DejaVuSans-36"/>
       <use x="63.623047" xlink:href="#DejaVuSans-30"/>
       <use x="127.246094" xlink:href="#DejaVuSans-30"/>
       <use x="190.869141" xlink:href="#DejaVuSans-30"/>
       <use x="254.492188" xlink:href="#DejaVuSans-30"/>
      </g>
     </g>
    </g>
    <g id="ytick_3">
     <g id="line2d_9">
      <g>
       <use style="stroke:#000000;stroke-width:0.8;" x="57.6" xlink:href="#m8761dde3aa" y="164.965368"/>
      </g>
     </g>
     <g id="text_10">
      <!-- 70000 -->
      <g transform="translate(18.7875 168.764587)scale(0.1 -0.1)">
       <defs>
        <path d="M 525 4666 
L 3525 4666 
L 3525 4397 
L 1831 0 
L 1172 0 
L 2766 4134 
L 525 4134 
L 525 4666 
z
" id="DejaVuSans-37" transform="scale(0.015625)"/>
       </defs>
       <use xlink:href="#DejaVuSans-37"/>
       <use x="63.623047" xlink:href="#DejaVuSans-30"/>
       <use x="127.246094" xlink:href="#DejaVuSans-30"/>
       <use x="190.869141" xlink:href="#DejaVuSans-30"/>
       <use x="254.492188" xlink:href="#DejaVuSans-30"/>
      </g>
     </g>
    </g>
    <g id="ytick_4">
     <g id="line2d_10">
      <g>
       <use style="stroke:#000000;stroke-width:0.8;" x="57.6" xlink:href="#m8761dde3aa" y="126.747811"/>
      </g>
     </g>
     <g id="text_11">
      <!-- 80000 -->
      <g transform="translate(18.7875 130.54703)scale(0.1 -0.1)">
       <defs>
        <path d="M 2034 2216 
Q 1584 2216 1326 1975 
Q 1069 1734 1069 1313 
Q 1069 891 1326 650 
Q 1584 409 2034 409 
Q 2484 409 2743 651 
Q 3003 894 3003 1313 
Q 3003 1734 2745 1975 
Q 2488 2216 2034 2216 
z
M 1403 2484 
Q 997 2584 770 2862 
Q 544 3141 544 3541 
Q 544 4100 942 4425 
Q 1341 4750 2034 4750 
Q 2731 4750 3128 4425 
Q 3525 4100 3525 3541 
Q 3525 3141 3298 2862 
Q 3072 2584 2669 2484 
Q 3125 2378 3379 2068 
Q 3634 1759 3634 1313 
Q 3634 634 3220 271 
Q 2806 -91 2034 -91 
Q 1263 -91 848 271 
Q 434 634 434 1313 
Q 434 1759 690 2068 
Q 947 2378 1403 2484 
z
M 1172 3481 
Q 1172 3119 1398 2916 
Q 1625 2713 2034 2713 
Q 2441 2713 2670 2916 
Q 2900 3119 2900 3481 
Q 2900 3844 2670 4047 
Q 2441 4250 2034 4250 
Q 1625 4250 1398 4047 
Q 1172 3844 1172 3481 
z
" id="DejaVuSans-38" transform="scale(0.015625)"/>
       </defs>
       <use xlink:href="#DejaVuSans-38"/>
       <use x="63.623047" xlink:href="#DejaVuSans-30"/>
       <use x="127.246094" xlink:href="#DejaVuSans-30"/>
       <use x="190.869141" xlink:href="#DejaVuSans-30"/>
       <use x="254.492188" xlink:href="#DejaVuSans-30"/>
      </g>
     </g>
    </g>
    <g id="ytick_5">
     <g id="line2d_11">
      <g>
       <use style="stroke:#000000;stroke-width:0.8;" x="57.6" xlink:href="#m8761dde3aa" y="88.530254"/>
      </g>
     </g>
     <g id="text_12">
      <!-- 90000 -->
      <g transform="translate(18.7875 92.329472)scale(0.1 -0.1)">
       <defs>
        <path d="M 703 97 
L 703 672 
Q 941 559 1184 500 
Q 1428 441 1663 441 
Q 2288 441 2617 861 
Q 2947 1281 2994 2138 
Q 2813 1869 2534 1725 
Q 2256 1581 1919 1581 
Q 1219 1581 811 2004 
Q 403 2428 403 3163 
Q 403 3881 828 4315 
Q 1253 4750 1959 4750 
Q 2769 4750 3195 4129 
Q 3622 3509 3622 2328 
Q 3622 1225 3098 567 
Q 2575 -91 1691 -91 
Q 1453 -91 1209 -44 
Q 966 3 703 97 
z
M 1959 2075 
Q 2384 2075 2632 2365 
Q 2881 2656 2881 3163 
Q 2881 3666 2632 3958 
Q 2384 4250 1959 4250 
Q 1534 4250 1286 3958 
Q 1038 3666 1038 3163 
Q 1038 2656 1286 2365 
Q 1534 2075 1959 2075 
z
" id="DejaVuSans-39" transform="scale(0.015625)"/>
       </defs>
       <use xlink:href="#DejaVuSans-39"/>
       <use x="63.623047" xlink:href="#DejaVuSans-30"/>
       <use x="127.246094" xlink:href="#DejaVuSans-30"/>
       <use x="190.869141" xlink:href="#DejaVuSans-30"/>
       <use x="254.492188" xlink:href="#DejaVuSans-30"/>
      </g>
     </g>
    </g>
    <g id="ytick_6">
     <g id="line2d_12">
      <g>
       <use style="stroke:#000000;stroke-width:0.8;" x="57.6" xlink:href="#m8761dde3aa" y="50.312696"/>
      </g>
     </g>
     <g id="text_13">
      <!-- 100000 -->
      <g transform="translate(12.425 54.111915)scale(0.1 -0.1)">
       <use xlink:href="#DejaVuSans-31"/>
       <use x="63.623047" xlink:href="#DejaVuSans-30"/>
       <use x="127.246094" xlink:href="#DejaVuSans-30"/>
       <use x="190.869141" xlink:href="#DejaVuSans-30"/>
       <use x="254.492188" xlink:href="#DejaVuSans-30"/>
       <use x="318.115234" xlink:href="#DejaVuSans-30"/>
      </g>
     </g>
    </g>
   </g>
   <g id="line2d_13">
    <path clip-path="url(#p9310cb2390)" d="M 73.832727 60.846952 
L 75.677355 56.529455 
L 81.21124 52.154182 
L 83.055868 64.660619 
L 84.900496 64.472379 
L 88.589752 64.366151 
L 94.123636 72.864275 
L 95.968264 81.615526 
L 97.812893 103.91354 
L 99.657521 102.092833 
L 101.502149 120.171668 
L 107.036033 119.755079 
L 108.880661 103.994134 
L 110.725289 96.938833 
L 112.569917 115.522227 
L 114.414545 118.352579 
L 119.94843 132.331093 
L 121.793058 128.334955 
L 123.637686 124.177399 
L 125.482314 131.988848 
L 127.326942 121.039221 
L 132.860826 129.401251 
L 134.705455 117.75295 
L 136.550083 116.9726 
L 138.394711 113.913335 
L 145.773223 114.560891 
L 147.617851 119.369854 
L 149.462479 125.325718 
L 151.307107 118.028118 
L 153.151736 125.970703 
L 158.68562 114.500625 
L 160.530248 123.112335 
L 162.374876 145.647787 
L 164.219504 147.061875 
L 166.064132 143.780348 
L 171.598017 148.13305 
L 173.442645 142.32597 
L 175.287273 139.251991 
L 177.131901 156.890914 
L 178.976529 156.434794 
L 186.355041 170.904726 
L 188.199669 177.317359 
L 190.044298 182.176415 
L 191.888926 192.389722 
L 197.42281 198.720506 
L 199.267438 204.628 
L 201.112066 204.533544 
L 202.956694 221.741783 
L 204.801322 216.784019 
L 210.335207 194.197268 
L 212.179835 186.359733 
L 214.024463 196.890842 
L 215.869091 205.241489 
L 217.713719 197.078154 
L 223.247603 198.968362 
L 225.092231 188.00696 
L 226.93686 174.115206 
L 228.781488 181.772836 
L 230.626116 192.037855 
L 236.16 197.122992 
L 238.004628 174.422938 
L 239.849256 176.290407 
L 241.693884 189.375398 
L 243.538512 197.772749 
L 250.917025 206.615763 
L 252.761653 215.123949 
L 254.606281 201.624283 
L 256.450909 197.179199 
L 261.984793 187.359949 
L 263.829421 188.335672 
L 265.67405 184.490466 
L 267.518678 197.059134 
L 269.363306 208.524173 
L 274.89719 219.618971 
L 276.741818 214.956106 
L 278.586446 205.418151 
L 280.431074 212.84873 
L 282.275702 226.046937 
L 287.809587 240.191866 
L 289.654215 229.80424 
L 291.498843 210.316138 
L 293.343471 201.998676 
L 295.188099 192.287167 
L 300.721983 191.815041 
L 302.566612 173.517681 
L 304.41124 166.495996 
L 306.255868 162.667241 
L 308.100496 166.499916 
L 313.63438 141.03388 
L 315.479008 130.38543 
L 317.323636 139.771914 
L 319.168264 150.570984 
L 321.012893 151.259997 
L 326.546777 137.914178 
L 328.391405 157.197468 
L 330.236033 168.878105 
L 332.080661 173.629326 
L 333.925289 183.316571 
L 339.459174 185.560947 
L 341.303802 189.231257 
L 343.14843 179.845796 
L 344.993058 187.351766 
L 352.37157 192.764035 
L 354.216198 183.337631 
L 356.060826 196.810843 
L 357.905455 202.938512 
L 359.750083 205.899636 
L 365.283967 203.758994 
L 367.128595 219.876545 
L 368.973223 218.528461 
L 370.817851 216.46939 
L 372.662479 222.494629 
L 378.196364 216.524522 
L 380.040992 214.499135 
L 381.88562 205.77625 
L 383.730248 224.637415 
L 385.574876 232.265913 
L 391.10876 250.269318 
L 392.953388 251.228025 
L 394.798017 265.797818 
L 396.642645 258.201998 
L 398.487273 243.25806 
" style="fill:none;stroke:#0000ff;stroke-linecap:square;stroke-opacity:0.9;stroke-width:2;"/>
   </g>
   <g id="line2d_14">
    <path clip-path="url(#p9310cb2390)" d="M 73.832727 60.846952 
L 75.677355 56.781318 
L 81.21124 52.740616 
L 83.055868 64.762586 
L 84.900496 64.493844 
L 88.589752 75.862042 
L 94.123636 72.870077 
L 95.968264 81.560826 
L 97.812893 104.026342 
L 99.657521 102.117611 
L 101.502149 120.178613 
L 107.036033 119.566061 
L 108.880661 104.175421 
L 110.725289 96.819377 
L 112.569917 115.396087 
L 114.414545 118.208108 
L 119.94843 131.966798 
L 121.793058 128.198049 
L 123.637686 124.34649 
L 125.482314 132.095419 
L 127.326942 120.871702 
L 132.860826 129.477622 
L 134.705455 117.601746 
L 136.550083 116.856675 
L 138.394711 114.078151 
L 145.773223 115.057699 
L 147.617851 119.626709 
L 149.462479 125.479956 
L 151.307107 118.329951 
L 153.151736 125.881473 
L 158.68562 114.261311 
L 160.530248 122.738921 
L 162.374876 143.271363 
L 164.219504 145.144185 
L 166.064132 142.092619 
L 171.598017 145.858117 
L 173.442645 139.814438 
L 175.287273 135.412452 
L 177.131901 151.641174 
L 178.976529 150.73932 
L 186.355041 164.612981 
L 188.199669 170.527707 
L 190.044298 175.59206 
L 191.888926 187.629041 
L 197.42281 193.97923 
L 199.267438 199.830378 
L 201.112066 200.399367 
L 202.956694 217.65958 
L 204.801322 212.852435 
L 210.335207 191.476086 
L 212.179835 183.984489 
L 214.024463 192.450086 
L 215.869091 200.438879 
L 217.713719 192.505766 
L 223.247603 193.501148 
L 225.092231 183.812007 
L 226.93686 171.83829 
L 228.781488 179.877818 
L 230.626116 192.098054 
L 236.16 196.210202 
L 238.004628 176.064137 
L 239.849256 177.656067 
L 241.693884 190.545517 
L 243.538512 197.970243 
L 250.917025 205.234982 
L 252.761653 214.12007 
L 254.606281 202.840269 
L 256.450909 196.993868 
L 261.984793 188.185778 
L 263.829421 190.079672 
L 265.67405 185.769937 
L 267.518678 197.549859 
L 269.363306 209.38589 
L 274.89719 220.45427 
L 276.741818 215.740146 
L 278.586446 205.98359 
L 280.431074 212.804337 
L 282.275702 224.973099 
L 287.809587 236.842854 
L 289.654215 227.400311 
L 291.498843 209.450541 
L 293.343471 202.470899 
L 295.188099 193.987021 
L 300.721983 192.157829 
L 302.566612 177.12824 
L 304.41124 171.773792 
L 306.255868 167.535373 
L 308.100496 170.101323 
L 313.63438 147.839014 
L 315.479008 139.826692 
L 317.323636 149.195702 
L 319.168264 158.938871 
L 321.012893 159.814306 
L 326.546777 147.426512 
L 328.391405 165.941187 
L 330.236033 176.155214 
L 332.080661 180.290959 
L 333.925289 188.525524 
L 339.459174 190.836424 
L 341.303802 193.793664 
L 343.14843 184.61457 
L 344.993058 190.8877 
L 352.37157 195.059368 
L 354.216198 186.916189 
L 356.060826 198.925747 
L 357.905455 204.000563 
L 359.750083 207.675827 
L 365.283967 207.232539 
L 367.128595 223.500258 
L 368.973223 221.094558 
L 370.817851 219.537278 
L 372.662479 224.732684 
L 378.196364 220.184773 
L 380.040992 217.919442 
L 381.88562 209.431805 
L 383.730248 227.642874 
L 385.574876 233.330405 
L 391.10876 250.04363 
L 392.953388 250.287746 
L 394.798017 262.987884 
L 396.642645 257.958138 
L 398.487273 245.037191 
" style="fill:none;stroke:#ff0000;stroke-linecap:square;stroke-opacity:0.9;stroke-width:2;"/>
   </g>
   <g id="line2d_15">
    <path clip-path="url(#p9310cb2390)" d="M 73.832727 60.846952 
L 75.677355 56.885148 
L 81.21124 52.781346 
L 83.055868 64.548687 
L 84.900496 63.891682 
L 88.589752 75.283815 
L 94.123636 72.277488 
L 95.968264 81.177287 
L 97.812893 104.215938 
L 99.657521 101.610855 
L 101.502149 119.459353 
L 107.036033 118.937521 
L 108.880661 102.911213 
L 110.725289 95.372376 
L 112.569917 114.673708 
L 114.414545 117.863686 
L 119.94843 132.740093 
L 121.793058 127.583947 
L 123.637686 123.222401 
L 125.482314 131.231324 
L 127.326942 118.022069 
L 132.860826 126.641342 
L 134.705455 114.614597 
L 136.550083 114.465148 
L 138.394711 111.542665 
L 145.773223 113.187615 
L 147.617851 118.378454 
L 149.462479 124.069566 
L 151.307107 115.36765 
L 153.151736 123.765341 
L 158.68562 112.874438 
L 160.530248 121.800592 
L 162.374876 143.940488 
L 164.219504 145.864825 
L 166.064132 141.686761 
L 171.598017 145.806962 
L 173.442645 139.917 
L 175.287273 137.140237 
L 177.131901 154.782036 
L 178.976529 154.411712 
L 186.355041 169.220097 
L 188.199669 175.515057 
L 190.044298 180.178575 
L 191.888926 190.716449 
L 197.42281 197.091346 
L 199.267438 202.977977 
L 201.112066 203.462783 
L 202.956694 220.425519 
L 204.801322 215.591385 
L 210.335207 192.819628 
L 212.179835 185.029172 
L 214.024463 195.531681 
L 215.869091 204.210242 
L 217.713719 195.680625 
L 223.247603 197.559071 
L 225.092231 186.780398 
L 226.93686 172.574845 
L 228.781488 180.561709 
L 230.626116 190.958959 
L 236.16 195.804536 
L 238.004628 173.206825 
L 239.849256 175.407019 
L 241.693884 188.464439 
L 243.538512 196.993878 
L 250.917025 205.759346 
L 252.761653 214.170679 
L 254.606281 200.46442 
L 256.450909 196.569689 
L 261.984793 186.404836 
L 263.829421 187.265128 
L 265.67405 183.748491 
L 267.518678 196.588592 
L 269.363306 208.111657 
L 274.89719 219.445389 
L 276.741818 215.144528 
L 278.586446 205.355994 
L 280.431074 213.300572 
L 282.275702 226.381401 
L 287.809587 240.249996 
L 289.654215 229.823875 
L 291.498843 210.491155 
L 293.343471 202.396004 
L 295.188099 192.951595 
L 300.721983 191.819886 
L 302.566612 172.448133 
L 304.41124 165.196084 
L 306.255868 161.401819 
L 308.100496 164.776048 
L 313.63438 137.527784 
L 315.479008 127.063473 
L 317.323636 137.191818 
L 319.168264 147.812895 
L 321.012893 148.048187 
L 326.546777 134.929845 
L 328.391405 154.252624 
L 330.236033 165.144085 
L 332.080661 170.337302 
L 333.925289 179.580743 
L 339.459174 181.832792 
L 341.303802 185.079441 
L 343.14843 175.65849 
L 344.993058 183.138983 
L 352.37157 188.801157 
L 354.216198 178.793012 
L 356.060826 192.462106 
L 357.905455 199.098204 
L 359.750083 202.445766 
L 365.283967 199.911714 
L 367.128595 216.482013 
L 368.973223 214.973525 
L 370.817851 212.889125 
L 372.662479 218.977994 
L 378.196364 213.341376 
L 380.040992 211.050686 
L 381.88562 201.917846 
L 383.730248 221.2942 
L 385.574876 228.732886 
L 391.10876 247.65936 
L 392.953388 248.810954 
L 394.798017 263.660487 
L 396.642645 255.469242 
L 398.487273 240.525209 
" style="fill:none;stroke:#008000;stroke-linecap:square;stroke-opacity:0.9;stroke-width:2;"/>
   </g>
   <g id="line2d_16">
    <path clip-path="url(#p9310cb2390)" d="M 73.832727 60.846952 
L 75.677355 56.624671 
L 81.21124 53.054709 
L 83.055868 64.423416 
L 84.900496 63.921382 
L 88.589752 75.407064 
L 94.123636 72.4221 
L 95.968264 81.010095 
L 97.812893 104.133304 
L 99.657521 101.501259 
L 101.502149 119.445511 
L 107.036033 118.918294 
L 108.880661 103.004224 
L 110.725289 95.645853 
L 112.569917 114.837858 
L 114.414545 117.873614 
L 119.94843 132.957243 
L 121.793058 128.278829 
L 123.637686 124.587486 
L 125.482314 132.156389 
L 127.326942 118.943478 
L 132.860826 127.408995 
L 134.705455 115.69586 
L 136.550083 115.357357 
L 138.394711 112.442106 
L 145.773223 114.080977 
L 147.617851 118.940909 
L 149.462479 124.961011 
L 151.307107 116.116707 
L 153.151736 124.608802 
L 158.68562 113.562164 
L 160.530248 122.388287 
L 162.374876 144.598245 
L 164.219504 146.508597 
L 166.064132 142.752875 
L 171.598017 147.098462 
L 173.442645 141.513911 
L 175.287273 138.538024 
L 177.131901 155.982031 
L 178.976529 155.443311 
L 186.355041 170.179167 
L 188.199669 176.396284 
L 190.044298 181.593802 
L 191.888926 191.72832 
L 197.42281 198.107357 
L 199.267438 204.175072 
L 201.112066 204.390148 
L 202.956694 221.303677 
L 204.801322 216.501616 
L 210.335207 193.680847 
L 212.179835 185.977518 
L 214.024463 196.858882 
L 215.869091 205.069699 
L 217.713719 196.474643 
L 223.247603 198.65691 
L 225.092231 187.821383 
L 226.93686 173.652069 
L 228.781488 181.630681 
L 230.626116 191.81299 
L 236.16 196.642267 
L 238.004628 173.668298 
L 239.849256 175.988332 
L 241.693884 189.292071 
L 243.538512 197.460048 
L 250.917025 206.33453 
L 252.761653 214.77354 
L 254.606281 201.161467 
L 256.450909 196.677086 
L 261.984793 186.435753 
L 263.829421 187.517757 
L 265.67405 183.836188 
L 267.518678 196.604849 
L 269.363306 207.855534 
L 274.89719 219.881776 
L 276.741818 215.240467 
L 278.586446 205.53932 
L 280.431074 213.416419 
L 282.275702 226.193309 
L 287.809587 240.296288 
L 289.654215 230.026415 
L 291.498843 210.576937 
L 293.343471 202.667026 
L 295.188099 193.383353 
L 300.721983 192.242462 
L 302.566612 172.745993 
L 304.41124 165.77816 
L 306.255868 161.988579 
L 308.100496 165.62818 
L 313.63438 138.104671 
L 315.479008 127.81567 
L 317.323636 137.451342 
L 319.168264 148.443051 
L 321.012893 149.230385 
L 326.546777 136.156144 
L 328.391405 155.584079 
L 330.236033 166.384311 
L 332.080661 171.499473 
L 333.925289 180.869385 
L 339.459174 182.984065 
L 341.303802 186.359816 
L 343.14843 177.021655 
L 344.993058 184.612686 
L 352.37157 189.876533 
L 354.216198 180.2528 
L 356.060826 193.815132 
L 357.905455 200.480123 
L 359.750083 203.507182 
L 365.283967 201.131621 
L 367.128595 217.503376 
L 368.973223 216.178949 
L 370.817851 214.019122 
L 372.662479 220.078916 
L 378.196364 214.391869 
L 380.040992 212.303141 
L 381.88562 203.21415 
L 383.730248 222.236657 
L 385.574876 229.735305 
L 391.10876 248.481892 
L 392.953388 249.474511 
L 394.798017 264.151313 
L 396.642645 256.466121 
L 398.487273 241.624217 
" style="fill:none;stroke:#ec5283;stroke-linecap:square;stroke-width:2;"/>
   </g>
   <g id="line2d_17">
    <path clip-path="url(#p9310cb2390)" d="M 73.832727 60.846952 
L 75.677355 56.937597 
L 81.21124 53.024181 
L 83.055868 64.543049 
L 84.900496 63.984454 
L 88.589752 74.962805 
L 94.123636 72.022507 
L 95.968264 80.817757 
L 97.812893 103.319597 
L 99.657521 100.394184 
L 101.502149 117.837398 
L 107.036033 117.511171 
L 108.880661 101.940704 
L 110.725289 94.879703 
L 112.569917 113.204971 
L 114.414545 116.461972 
L 119.94843 131.06374 
L 121.793058 125.823792 
L 123.637686 122.061792 
L 125.482314 129.368802 
L 127.326942 116.785891 
L 132.860826 124.881671 
L 134.705455 113.525201 
L 136.550083 113.037592 
L 138.394711 110.649327 
L 145.773223 111.865751 
L 147.617851 116.783273 
L 149.462479 122.815784 
L 151.307107 114.160679 
L 153.151736 122.446889 
L 158.68562 111.585199 
L 160.530248 120.192253 
L 162.374876 141.89514 
L 164.219504 143.954183 
L 166.064132 139.491153 
L 171.598017 143.870775 
L 173.442645 138.203644 
L 175.287273 135.215802 
L 177.131901 152.398409 
L 178.976529 152.111002 
L 186.355041 166.335091 
L 188.199669 172.680398 
L 190.044298 177.468726 
L 191.888926 187.760599 
L 197.42281 193.88322 
L 199.267438 199.59661 
L 201.112066 199.926069 
L 202.956694 216.600926 
L 204.801322 212.043477 
L 210.335207 189.687228 
L 212.179835 182.127251 
L 214.024463 192.328478 
L 215.869091 200.487248 
L 217.713719 192.353632 
L 223.247603 194.066078 
L 225.092231 183.774833 
L 226.93686 169.781141 
L 228.781488 177.492084 
L 230.626116 187.553067 
L 236.16 192.625642 
L 238.004628 170.269275 
L 239.849256 172.647739 
L 241.693884 185.703082 
L 243.538512 193.870972 
L 250.917025 202.218738 
L 252.761653 210.586845 
L 254.606281 196.909795 
L 256.450909 193.050554 
L 261.984793 183.186659 
L 263.829421 184.154395 
L 265.67405 180.659331 
L 267.518678 193.208902 
L 269.363306 204.475954 
L 274.89719 215.573345 
L 276.741818 211.501157 
L 278.586446 201.959593 
L 280.431074 209.477068 
L 282.275702 222.300046 
L 287.809587 236.088544 
L 289.654215 225.748724 
L 291.498843 206.885309 
L 293.343471 198.983998 
L 295.188099 189.512214 
L 300.721983 188.670959 
L 302.566612 169.9182 
L 304.41124 162.578355 
L 306.255868 158.807127 
L 308.100496 162.237178 
L 313.63438 135.652734 
L 315.479008 125.391332 
L 317.323636 135.230454 
L 319.168264 145.584196 
L 321.012893 145.718582 
L 326.546777 132.882125 
L 328.391405 152.060019 
L 330.236033 162.650066 
L 332.080661 167.812138 
L 333.925289 176.916518 
L 339.459174 178.855125 
L 341.303802 182.260497 
L 343.14843 172.852588 
L 344.993058 180.321609 
L 352.37157 185.705978 
L 354.216198 176.066764 
L 356.060826 189.438301 
L 357.905455 195.919793 
L 359.750083 198.917098 
L 365.283967 196.717483 
L 367.128595 212.987891 
L 368.973223 211.337002 
L 370.817851 209.168246 
L 372.662479 214.963504 
L 378.196364 209.701365 
L 380.040992 207.271719 
L 381.88562 198.3704 
L 383.730248 217.404244 
L 385.574876 224.612604 
L 391.10876 242.937355 
L 392.953388 244.017511 
L 394.798017 258.655801 
L 396.642645 250.888858 
L 398.487273 236.1614 
" style="fill:none;stroke:#00ff00;stroke-linecap:square;stroke-opacity:0.9;stroke-width:2;"/>
   </g>
   <g id="line2d_18">
    <path clip-path="url(#p9310cb2390)" d="M 73.832727 60.846952 
L 75.677355 59.055836 
L 81.21124 58.187853 
L 83.055868 63.386822 
L 84.900496 63.229356 
L 88.589752 73.903841 
L 94.123636 74.254956 
L 95.968264 81.638669 
L 97.812893 103.708453 
L 99.657521 99.77812 
L 101.502149 116.767185 
L 107.036033 113.401248 
L 108.880661 97.406341 
L 110.725289 87.418428 
L 112.569917 107.649809 
L 114.414545 112.566196 
L 119.94843 124.956466 
L 121.793058 121.75717 
L 123.637686 117.71165 
L 125.482314 126.305873 
L 127.326942 110.35292 
L 132.860826 120.83434 
L 134.705455 107.386608 
L 136.550083 108.205092 
L 138.394711 104.537712 
L 145.773223 109.640364 
L 147.617851 115.658026 
L 149.462479 124.714077 
L 151.307107 110.87249 
L 153.151736 121.304901 
L 158.68562 112.0047 
L 160.530248 119.770734 
L 162.374876 145.743258 
L 164.219504 147.738626 
L 166.064132 143.804674 
L 171.598017 149.060493 
L 173.442645 143.591582 
L 175.287273 143.29557 
L 177.131901 161.795902 
L 178.976529 161.878462 
L 186.355041 177.448901 
L 188.199669 184.609841 
L 190.044298 189.312399 
L 191.888926 199.530586 
L 197.42281 202.917512 
L 199.267438 208.704898 
L 201.112066 208.130605 
L 202.956694 224.911942 
L 204.801322 220.308484 
L 210.335207 194.401853 
L 212.179835 186.388716 
L 214.024463 199.521647 
L 215.869091 209.339031 
L 217.713719 199.526821 
L 223.247603 202.451542 
L 225.092231 191.501922 
L 226.93686 175.865603 
L 228.781488 183.853518 
L 230.626116 193.212072 
L 236.16 198.137347 
L 238.004628 167.795665 
L 239.849256 171.604172 
L 241.693884 186.236721 
L 243.538512 197.220098 
L 250.917025 206.986445 
L 252.761653 215.111666 
L 254.606281 199.043174 
L 256.450909 196.158798 
L 261.984793 184.148045 
L 263.829421 179.290164 
L 265.67405 176.553228 
L 267.518678 192.984121 
L 269.363306 205.01809 
L 274.89719 217.071316 
L 276.741818 213.888582 
L 278.586446 201.778907 
L 280.431074 212.182626 
L 282.275702 225.020298 
L 287.809587 240.566438 
L 289.654215 229.212961 
L 291.498843 206.344207 
L 293.343471 199.776675 
L 295.188099 188.831114 
L 300.721983 187.403253 
L 302.566612 164.128323 
L 304.41124 156.384026 
L 306.255868 152.568271 
L 308.100496 159.006536 
L 313.63438 136.591332 
L 315.479008 121.480667 
L 317.323636 128.771417 
L 319.168264 141.235856 
L 321.012893 138.233429 
L 326.546777 125.57019 
L 328.391405 145.851299 
L 330.236033 155.136647 
L 332.080661 159.753575 
L 333.925289 167.861341 
L 339.459174 169.783936 
L 341.303802 172.411893 
L 343.14843 162.414341 
L 344.993058 172.322975 
L 352.37157 179.295186 
L 354.216198 168.506787 
L 356.060826 185.198286 
L 357.905455 193.856971 
L 359.750083 196.331073 
L 365.283967 190.507551 
L 367.128595 206.692563 
L 368.973223 206.815449 
L 370.817851 204.611863 
L 372.662479 211.535603 
L 378.196364 202.488564 
L 380.040992 201.050335 
L 381.88562 190.85332 
L 383.730248 212.271188 
L 385.574876 222.503486 
L 391.10876 243.16968 
L 392.953388 244.268379 
L 394.798017 260.846733 
L 396.642645 250.686359 
L 398.487273 233.352575 
" style="fill:none;stroke:#a5b9cf;stroke-linecap:square;stroke-width:2;"/>
   </g>
   <g id="patch_3">
    <path d="M 57.6 276.48 
L 57.6 41.472 
" style="fill:none;stroke:#000000;stroke-linecap:square;stroke-linejoin:miter;stroke-width:0.8;"/>
   </g>
   <g id="patch_4">
    <path d="M 414.72 276.48 
L 414.72 41.472 
" style="fill:none;stroke:#000000;stroke-linecap:square;stroke-linejoin:miter;stroke-width:0.8;"/>
   </g>
   <g id="patch_5">
    <path d="M 57.6 276.48 
L 414.72 276.48 
" style="fill:none;stroke:#000000;stroke-linecap:square;stroke-linejoin:miter;stroke-width:0.8;"/>
   </g>
   <g id="patch_6">
    <path d="M 57.6 41.472 
L 414.72 41.472 
" style="fill:none;stroke:#000000;stroke-linecap:square;stroke-linejoin:miter;stroke-width:0.8;"/>
   </g>
   <g id="text_14">
    <!-- STONKS -->
    <g transform="translate(211.730625 22.034625)scale(0.12 -0.12)">
     <defs>
      <path d="M 3425 4513 
L 3425 3897 
Q 3066 4069 2747 4153 
Q 2428 4238 2131 4238 
Q 1616 4238 1336 4038 
Q 1056 3838 1056 3469 
Q 1056 3159 1242 3001 
Q 1428 2844 1947 2747 
L 2328 2669 
Q 3034 2534 3370 2195 
Q 3706 1856 3706 1288 
Q 3706 609 3251 259 
Q 2797 -91 1919 -91 
Q 1588 -91 1214 -16 
Q 841 59 441 206 
L 441 856 
Q 825 641 1194 531 
Q 1563 422 1919 422 
Q 2459 422 2753 634 
Q 3047 847 3047 1241 
Q 3047 1584 2836 1778 
Q 2625 1972 2144 2069 
L 1759 2144 
Q 1053 2284 737 2584 
Q 422 2884 422 3419 
Q 422 4038 858 4394 
Q 1294 4750 2059 4750 
Q 2388 4750 2728 4690 
Q 3069 4631 3425 4513 
z
" id="DejaVuSans-53" transform="scale(0.015625)"/>
      <path d="M -19 4666 
L 3928 4666 
L 3928 4134 
L 2272 4134 
L 2272 0 
L 1638 0 
L 1638 4134 
L -19 4134 
L -19 4666 
z
" id="DejaVuSans-54" transform="scale(0.015625)"/>
      <path d="M 2522 4238 
Q 1834 4238 1429 3725 
Q 1025 3213 1025 2328 
Q 1025 1447 1429 934 
Q 1834 422 2522 422 
Q 3209 422 3611 934 
Q 4013 1447 4013 2328 
Q 4013 3213 3611 3725 
Q 3209 4238 2522 4238 
z
M 2522 4750 
Q 3503 4750 4090 4092 
Q 4678 3434 4678 2328 
Q 4678 1225 4090 567 
Q 3503 -91 2522 -91 
Q 1538 -91 948 565 
Q 359 1222 359 2328 
Q 359 3434 948 4092 
Q 1538 4750 2522 4750 
z
" id="DejaVuSans-4f" transform="scale(0.015625)"/>
      <path d="M 628 4666 
L 1478 4666 
L 3547 763 
L 3547 4666 
L 4159 4666 
L 4159 0 
L 3309 0 
L 1241 3903 
L 1241 0 
L 628 0 
L 628 4666 
z
" id="DejaVuSans-4e" transform="scale(0.015625)"/>
      <path d="M 628 4666 
L 1259 4666 
L 1259 2694 
L 3353 4666 
L 4166 4666 
L 1850 2491 
L 4331 0 
L 3500 0 
L 1259 2247 
L 1259 0 
L 628 0 
L 628 4666 
z
" id="DejaVuSans-4b" transform="scale(0.015625)"/>
     </defs>
     <use xlink:href="#DejaVuSans-53"/>
     <use x="63.476562" xlink:href="#DejaVuSans-54"/>
     <use x="124.560547" xlink:href="#DejaVuSans-4f"/>
     <use x="203.271484" xlink:href="#DejaVuSans-4e"/>
     <use x="278.076172" xlink:href="#DejaVuSans-4b"/>
     <use x="343.652344" xlink:href="#DejaVuSans-53"/>
    </g>
    <!-- daily_report -->
    <g transform="translate(200.466563 35.472)scale(0.12 -0.12)">
     <defs>
      <path d="M 603 3500 
L 1178 3500 
L 1178 0 
L 603 0 
L 603 3500 
z
M 603 4863 
L 1178 4863 
L 1178 4134 
L 603 4134 
L 603 4863 
z
" id="DejaVuSans-69" transform="scale(0.015625)"/>
      <path d="M 603 4863 
L 1178 4863 
L 1178 0 
L 603 0 
L 603 4863 
z
" id="DejaVuSans-6c" transform="scale(0.015625)"/>
      <path d="M 2059 -325 
Q 1816 -950 1584 -1140 
Q 1353 -1331 966 -1331 
L 506 -1331 
L 506 -850 
L 844 -850 
Q 1081 -850 1212 -737 
Q 1344 -625 1503 -206 
L 1606 56 
L 191 3500 
L 800 3500 
L 1894 763 
L 2988 3500 
L 3597 3500 
L 2059 -325 
z
" id="DejaVuSans-79" transform="scale(0.015625)"/>
      <path d="M 3263 -1063 
L 3263 -1509 
L -63 -1509 
L -63 -1063 
L 3263 -1063 
z
" id="DejaVuSans-5f" transform="scale(0.015625)"/>
      <path d="M 2631 2963 
Q 2534 3019 2420 3045 
Q 2306 3072 2169 3072 
Q 1681 3072 1420 2755 
Q 1159 2438 1159 1844 
L 1159 0 
L 581 0 
L 581 3500 
L 1159 3500 
L 1159 2956 
Q 1341 3275 1631 3429 
Q 1922 3584 2338 3584 
Q 2397 3584 2469 3576 
Q 2541 3569 2628 3553 
L 2631 2963 
z
" id="DejaVuSans-72" transform="scale(0.015625)"/>
      <path d="M 1159 525 
L 1159 -1331 
L 581 -1331 
L 581 3500 
L 1159 3500 
L 1159 2969 
Q 1341 3281 1617 3432 
Q 1894 3584 2278 3584 
Q 2916 3584 3314 3078 
Q 3713 2572 3713 1747 
Q 3713 922 3314 415 
Q 2916 -91 2278 -91 
Q 1894 -91 1617 61 
Q 1341 213 1159 525 
z
M 3116 1747 
Q 3116 2381 2855 2742 
Q 2594 3103 2138 3103 
Q 1681 3103 1420 2742 
Q 1159 2381 1159 1747 
Q 1159 1113 1420 752 
Q 1681 391 2138 391 
Q 2594 391 2855 752 
Q 3116 1113 3116 1747 
z
" id="DejaVuSans-70" transform="scale(0.015625)"/>
      <path d="M 1959 3097 
Q 1497 3097 1228 2736 
Q 959 2375 959 1747 
Q 959 1119 1226 758 
Q 1494 397 1959 397 
Q 2419 397 2687 759 
Q 2956 1122 2956 1747 
Q 2956 2369 2687 2733 
Q 2419 3097 1959 3097 
z
M 1959 3584 
Q 2709 3584 3137 3096 
Q 3566 2609 3566 1747 
Q 3566 888 3137 398 
Q 2709 -91 1959 -91 
Q 1206 -91 779 398 
Q 353 888 353 1747 
Q 353 2609 779 3096 
Q 1206 3584 1959 3584 
z
" id="DejaVuSans-6f" transform="scale(0.015625)"/>
     </defs>
     <use xlink:href="#DejaVuSans-64"/>
     <use x="63.476562" xlink:href="#DejaVuSans-61"/>
     <use x="124.755859" xlink:href="#DejaVuSans-69"/>
     <use x="152.539062" xlink:href="#DejaVuSans-6c"/>
     <use x="180.322266" xlink:href="#DejaVuSans-79"/>
     <use x="239.501953" xlink:href="#DejaVuSans-5f"/>
     <use x="289.501953" xlink:href="#DejaVuSans-72"/>
     <use x="328.365234" xlink:href="#DejaVuSans-65"/>
     <use x="389.888672" xlink:href="#DejaVuSans-70"/>
     <use x="453.365234" xlink:href="#DejaVuSans-6f"/>
     <use x="514.546875" xlink:href="#DejaVuSans-72"/>
     <use x="555.660156" xlink:href="#DejaVuSans-74"/>
    </g>
   </g>
   <g id="legend_1">
    <g id="patch_7">
     <path d="M 64.6 271.48 
L 178.64375 271.48 
Q 180.64375 271.48 180.64375 269.48 
L 180.64375 182.41125 
Q 180.64375 180.41125 178.64375 180.41125 
L 64.6 180.41125 
Q 62.6 180.41125 62.6 182.41125 
L 62.6 269.48 
Q 62.6 271.48 64.6 271.48 
z
" style="fill:#ffffff;opacity:0.8;stroke:#cccccc;stroke-linejoin:miter;"/>
    </g>
    <g id="line2d_19">
     <path d="M 66.6 188.509687 
L 86.6 188.509687 
" style="fill:none;stroke:#0000ff;stroke-linecap:square;stroke-opacity:0.9;stroke-width:2;"/>
    </g>
    <g id="line2d_20"/>
    <g id="text_15">
     <!-- alpaca -->
     <g transform="translate(94.6 192.009687)scale(0.1 -0.1)">
      <defs>
       <path d="M 3122 3366 
L 3122 2828 
Q 2878 2963 2633 3030 
Q 2388 3097 2138 3097 
Q 1578 3097 1268 2742 
Q 959 2388 959 1747 
Q 959 1106 1268 751 
Q 1578 397 2138 397 
Q 2388 397 2633 464 
Q 2878 531 3122 666 
L 3122 134 
Q 2881 22 2623 -34 
Q 2366 -91 2075 -91 
Q 1284 -91 818 406 
Q 353 903 353 1747 
Q 353 2603 823 3093 
Q 1294 3584 2113 3584 
Q 2378 3584 2631 3529 
Q 2884 3475 3122 3366 
z
" id="DejaVuSans-63" transform="scale(0.015625)"/>
      </defs>
      <use xlink:href="#DejaVuSans-61"/>
      <use x="61.279297" xlink:href="#DejaVuSans-6c"/>
      <use x="89.0625" xlink:href="#DejaVuSans-70"/>
      <use x="152.539062" xlink:href="#DejaVuSans-61"/>
      <use x="213.818359" xlink:href="#DejaVuSans-63"/>
      <use x="268.798828" xlink:href="#DejaVuSans-61"/>
     </g>
    </g>
    <g id="line2d_21">
     <path d="M 66.6 203.187812 
L 86.6 203.187812 
" style="fill:none;stroke:#ff0000;stroke-linecap:square;stroke-opacity:0.9;stroke-width:2;"/>
    </g>
    <g id="line2d_22"/>
    <g id="text_16">
     <!-- mattress -->
     <g transform="translate(94.6 206.687812)scale(0.1 -0.1)">
      <defs>
       <path d="M 3328 2828 
Q 3544 3216 3844 3400 
Q 4144 3584 4550 3584 
Q 5097 3584 5394 3201 
Q 5691 2819 5691 2113 
L 5691 0 
L 5113 0 
L 5113 2094 
Q 5113 2597 4934 2840 
Q 4756 3084 4391 3084 
Q 3944 3084 3684 2787 
Q 3425 2491 3425 1978 
L 3425 0 
L 2847 0 
L 2847 2094 
Q 2847 2600 2669 2842 
Q 2491 3084 2119 3084 
Q 1678 3084 1418 2786 
Q 1159 2488 1159 1978 
L 1159 0 
L 581 0 
L 581 3500 
L 1159 3500 
L 1159 2956 
Q 1356 3278 1631 3431 
Q 1906 3584 2284 3584 
Q 2666 3584 2933 3390 
Q 3200 3197 3328 2828 
z
" id="DejaVuSans-6d" transform="scale(0.015625)"/>
       <path d="M 2834 3397 
L 2834 2853 
Q 2591 2978 2328 3040 
Q 2066 3103 1784 3103 
Q 1356 3103 1142 2972 
Q 928 2841 928 2578 
Q 928 2378 1081 2264 
Q 1234 2150 1697 2047 
L 1894 2003 
Q 2506 1872 2764 1633 
Q 3022 1394 3022 966 
Q 3022 478 2636 193 
Q 2250 -91 1575 -91 
Q 1294 -91 989 -36 
Q 684 19 347 128 
L 347 722 
Q 666 556 975 473 
Q 1284 391 1588 391 
Q 1994 391 2212 530 
Q 2431 669 2431 922 
Q 2431 1156 2273 1281 
Q 2116 1406 1581 1522 
L 1381 1569 
Q 847 1681 609 1914 
Q 372 2147 372 2553 
Q 372 3047 722 3315 
Q 1072 3584 1716 3584 
Q 2034 3584 2315 3537 
Q 2597 3491 2834 3397 
z
" id="DejaVuSans-73" transform="scale(0.015625)"/>
      </defs>
      <use xlink:href="#DejaVuSans-6d"/>
      <use x="97.412109" xlink:href="#DejaVuSans-61"/>
      <use x="158.691406" xlink:href="#DejaVuSans-74"/>
      <use x="197.900391" xlink:href="#DejaVuSans-74"/>
      <use x="237.109375" xlink:href="#DejaVuSans-72"/>
      <use x="275.972656" xlink:href="#DejaVuSans-65"/>
      <use x="337.496094" xlink:href="#DejaVuSans-73"/>
      <use x="389.595703" xlink:href="#DejaVuSans-73"/>
     </g>
    </g>
    <g id="line2d_23">
     <path d="M 66.6 217.865937 
L 86.6 217.865937 
" style="fill:none;stroke:#008000;stroke-linecap:square;stroke-opacity:0.9;stroke-width:2;"/>
    </g>
    <g id="line2d_24"/>
    <g id="text_17">
     <!-- daily-open-rebal -->
     <g transform="translate(94.6 221.365937)scale(0.1 -0.1)">
      <defs>
       <path d="M 3513 2113 
L 3513 0 
L 2938 0 
L 2938 2094 
Q 2938 2591 2744 2837 
Q 2550 3084 2163 3084 
Q 1697 3084 1428 2787 
Q 1159 2491 1159 1978 
L 1159 0 
L 581 0 
L 581 3500 
L 1159 3500 
L 1159 2956 
Q 1366 3272 1645 3428 
Q 1925 3584 2291 3584 
Q 2894 3584 3203 3211 
Q 3513 2838 3513 2113 
z
" id="DejaVuSans-6e" transform="scale(0.015625)"/>
       <path d="M 3116 1747 
Q 3116 2381 2855 2742 
Q 2594 3103 2138 3103 
Q 1681 3103 1420 2742 
Q 1159 2381 1159 1747 
Q 1159 1113 1420 752 
Q 1681 391 2138 391 
Q 2594 391 2855 752 
Q 3116 1113 3116 1747 
z
M 1159 2969 
Q 1341 3281 1617 3432 
Q 1894 3584 2278 3584 
Q 2916 3584 3314 3078 
Q 3713 2572 3713 1747 
Q 3713 922 3314 415 
Q 2916 -91 2278 -91 
Q 1894 -91 1617 61 
Q 1341 213 1159 525 
L 1159 0 
L 581 0 
L 581 4863 
L 1159 4863 
L 1159 2969 
z
" id="DejaVuSans-62" transform="scale(0.015625)"/>
      </defs>
      <use xlink:href="#DejaVuSans-64"/>
      <use x="63.476562" xlink:href="#DejaVuSans-61"/>
      <use x="124.755859" xlink:href="#DejaVuSans-69"/>
      <use x="152.539062" xlink:href="#DejaVuSans-6c"/>
      <use x="180.322266" xlink:href="#DejaVuSans-79"/>
      <use x="237.751953" xlink:href="#DejaVuSans-2d"/>
      <use x="275.710938" xlink:href="#DejaVuSans-6f"/>
      <use x="336.892578" xlink:href="#DejaVuSans-70"/>
      <use x="400.369141" xlink:href="#DejaVuSans-65"/>
      <use x="461.892578" xlink:href="#DejaVuSans-6e"/>
      <use x="525.271484" xlink:href="#DejaVuSans-2d"/>
      <use x="561.355469" xlink:href="#DejaVuSans-72"/>
      <use x="600.21875" xlink:href="#DejaVuSans-65"/>
      <use x="661.742188" xlink:href="#DejaVuSans-62"/>
      <use x="725.21875" xlink:href="#DejaVuSans-61"/>
      <use x="786.498047" xlink:href="#DejaVuSans-6c"/>
     </g>
    </g>
    <g id="line2d_25">
     <path d="M 66.6 232.544062 
L 86.6 232.544062 
" style="fill:none;stroke:#ec5283;stroke-linecap:square;stroke-width:2;"/>
    </g>
    <g id="line2d_26"/>
    <g id="text_18">
     <!-- daily-close-rebal -->
     <g transform="translate(94.6 236.044062)scale(0.1 -0.1)">
      <use xlink:href="#DejaVuSans-64"/>
      <use x="63.476562" xlink:href="#DejaVuSans-61"/>
      <use x="124.755859" xlink:href="#DejaVuSans-69"/>
      <use x="152.539062" xlink:href="#DejaVuSans-6c"/>
      <use x="180.322266" xlink:href="#DejaVuSans-79"/>
      <use x="237.751953" xlink:href="#DejaVuSans-2d"/>
      <use x="273.835938" xlink:href="#DejaVuSans-63"/>
      <use x="328.816406" xlink:href="#DejaVuSans-6c"/>
      <use x="356.599609" xlink:href="#DejaVuSans-6f"/>
      <use x="417.78125" xlink:href="#DejaVuSans-73"/>
      <use x="469.880859" xlink:href="#DejaVuSans-65"/>
      <use x="531.404297" xlink:href="#DejaVuSans-2d"/>
      <use x="567.488281" xlink:href="#DejaVuSans-72"/>
      <use x="606.351562" xlink:href="#DejaVuSans-65"/>
      <use x="667.875" xlink:href="#DejaVuSans-62"/>
      <use x="731.351562" xlink:href="#DejaVuSans-61"/>
      <use x="792.630859" xlink:href="#DejaVuSans-6c"/>
     </g>
    </g>
    <g id="line2d_27">
     <path d="M 66.6 247.222187 
L 86.6 247.222187 
" style="fill:none;stroke:#00ff00;stroke-linecap:square;stroke-opacity:0.9;stroke-width:2;"/>
    </g>
    <g id="line2d_28"/>
    <g id="text_19">
     <!-- trader-baseline -->
     <g transform="translate(94.6 250.722187)scale(0.1 -0.1)">
      <use xlink:href="#DejaVuSans-74"/>
      <use x="39.208984" xlink:href="#DejaVuSans-72"/>
      <use x="80.322266" xlink:href="#DejaVuSans-61"/>
      <use x="141.601562" xlink:href="#DejaVuSans-64"/>
      <use x="205.078125" xlink:href="#DejaVuSans-65"/>
      <use x="266.601562" xlink:href="#DejaVuSans-72"/>
      <use x="301.339844" xlink:href="#DejaVuSans-2d"/>
      <use x="337.423828" xlink:href="#DejaVuSans-62"/>
      <use x="400.900391" xlink:href="#DejaVuSans-61"/>
      <use x="462.179688" xlink:href="#DejaVuSans-73"/>
      <use x="514.279297" xlink:href="#DejaVuSans-65"/>
      <use x="575.802734" xlink:href="#DejaVuSans-6c"/>
      <use x="603.585938" xlink:href="#DejaVuSans-69"/>
      <use x="631.369141" xlink:href="#DejaVuSans-6e"/>
      <use x="694.748047" xlink:href="#DejaVuSans-65"/>
     </g>
    </g>
    <g id="line2d_29">
     <path d="M 66.6 261.900312 
L 86.6 261.900312 
" style="fill:none;stroke:#a5b9cf;stroke-linecap:square;stroke-width:2;"/>
    </g>
    <g id="line2d_30"/>
    <g id="text_20">
     <!-- default-cfg -->
     <g transform="translate(94.6 265.400312)scale(0.1 -0.1)">
      <defs>
       <path d="M 2375 4863 
L 2375 4384 
L 1825 4384 
Q 1516 4384 1395 4259 
Q 1275 4134 1275 3809 
L 1275 3500 
L 2222 3500 
L 2222 3053 
L 1275 3053 
L 1275 0 
L 697 0 
L 697 3053 
L 147 3053 
L 147 3500 
L 697 3500 
L 697 3744 
Q 697 4328 969 4595 
Q 1241 4863 1831 4863 
L 2375 4863 
z
" id="DejaVuSans-66" transform="scale(0.015625)"/>
       <path d="M 544 1381 
L 544 3500 
L 1119 3500 
L 1119 1403 
Q 1119 906 1312 657 
Q 1506 409 1894 409 
Q 2359 409 2629 706 
Q 2900 1003 2900 1516 
L 2900 3500 
L 3475 3500 
L 3475 0 
L 2900 0 
L 2900 538 
Q 2691 219 2414 64 
Q 2138 -91 1772 -91 
Q 1169 -91 856 284 
Q 544 659 544 1381 
z
M 1991 3584 
L 1991 3584 
z
" id="DejaVuSans-75" transform="scale(0.015625)"/>
       <path d="M 2906 1791 
Q 2906 2416 2648 2759 
Q 2391 3103 1925 3103 
Q 1463 3103 1205 2759 
Q 947 2416 947 1791 
Q 947 1169 1205 825 
Q 1463 481 1925 481 
Q 2391 481 2648 825 
Q 2906 1169 2906 1791 
z
M 3481 434 
Q 3481 -459 3084 -895 
Q 2688 -1331 1869 -1331 
Q 1566 -1331 1297 -1286 
Q 1028 -1241 775 -1147 
L 775 -588 
Q 1028 -725 1275 -790 
Q 1522 -856 1778 -856 
Q 2344 -856 2625 -561 
Q 2906 -266 2906 331 
L 2906 616 
Q 2728 306 2450 153 
Q 2172 0 1784 0 
Q 1141 0 747 490 
Q 353 981 353 1791 
Q 353 2603 747 3093 
Q 1141 3584 1784 3584 
Q 2172 3584 2450 3431 
Q 2728 3278 2906 2969 
L 2906 3500 
L 3481 3500 
L 3481 434 
z
" id="DejaVuSans-67" transform="scale(0.015625)"/>
      </defs>
      <use xlink:href="#DejaVuSans-64"/>
      <use x="63.476562" xlink:href="#DejaVuSans-65"/>
      <use x="125" xlink:href="#DejaVuSans-66"/>
      <use x="160.205078" xlink:href="#DejaVuSans-61"/>
      <use x="221.484375" xlink:href="#DejaVuSans-75"/>
      <use x="284.863281" xlink:href="#DejaVuSans-6c"/>
      <use x="312.646484" xlink:href="#DejaVuSans-74"/>
      <use x="351.855469" xlink:href="#DejaVuSans-2d"/>
      <use x="387.939453" xlink:href="#DejaVuSans-63"/>
      <use x="442.919922" xlink:href="#DejaVuSans-66"/>
      <use x="478.125" xlink:href="#DejaVuSans-67"/>
     </g>
    </g>
   </g>
  </g>
 </g>
 <defs>
  <clipPath id="p9310cb2390">
   <rect height="235.008" width="357.12" x="57.6" y="41.472"/>
  </clipPath>
 </defs>
</svg>
