<?xml version="1.0" encoding="utf-8" standalone="no"?>
<!DOCTYPE svg PUBLIC "-//W3C//DTD SVG 1.1//EN"
  "http://www.w3.org/Graphics/SVG/1.1/DTD/svg11.dtd">
<svg height="345.6pt" version="1.1" viewBox="0 0 460.8 345.6" width="460.8pt" xmlns="http://www.w3.org/2000/svg" xmlns:xlink="http://www.w3.org/1999/xlink">
 <metadata>
  <rdf:RDF xmlns:cc="http://creativecommons.org/ns#" xmlns:dc="http://purl.org/dc/elements/1.1/" xmlns:rdf="http://www.w3.org/1999/02/22-rdf-syntax-ns#">
   <cc:Work>
    <dc:type rdf:resource="http://purl.org/dc/dcmitype/StillImage"/>
    <dc:date>2022-05-31T10:01:42.379434</dc:date>
    <dc:format>image/svg+xml</dc:format>
    <dc:creator>
     <cc:Agent>
      <dc:title>Matplotlib v3.4.3, https://matplotlib.org/</dc:title>
     </cc:Agent>
    </dc:creator>
   </cc:Work>
  </rdf:RDF>
 </metadata>
 <defs>
  <style type="text/css">*{stroke-linecap:butt;stroke-linejoin:round;}</style>
 </defs>
 <g id="figure_1">
  <g id="patch_1">
   <path d="M 0 345.6 
L 460.8 345.6 
L 460.8 0 
L 0 0 
z
" style="fill:#ffffff;"/>
  </g>
  <g id="axes_1">
   <g id="patch_2">
    <path d="M 57.6 276.48 
L 414.72 276.48 
L 414.72 41.472 
L 57.6 41.472 
z
" style="fill:#ffffff;"/>
   </g>
   <g id="matplotlib.axis_1">
    <g id="xtick_1">
     <g id="line2d_1">
      <defs>
       <path d="M 0 0 
L 0 3.5 
" id="m98bc931ea6" style="stroke:#000000;stroke-width:0.8;"/>
      </defs>
      <g>
       <use style="stroke:#000000;stroke-width:0.8;" x="96.045933" xlink:href="#m98bc931ea6" y="276.48"/>
      </g>
     </g>
     <g id="text_1">
      <!-- 2021-12 -->
      <g transform="translate(58.821112 310.951846)rotate(-30)scale(0.1 -0.1)">
       <defs>
        <path d="M 1228 531 
L 3431 531 
L 3431 0 
L 469 0 
L 469 531 
Q 828 903 1448 1529 
Q 2069 2156 2228 2338 
Q 2531 2678 2651 2914 
Q 2772 3150 2772 3378 
Q 2772 3750 2511 3984 
Q 2250 4219 1831 4219 
Q 1534 4219 1204 4116 
Q 875 4013 500 3803 
L 500 4441 
Q 881 4594 1212 4672 
Q 1544 4750 1819 4750 
Q 2544 4750 2975 4387 
Q 3406 4025 3406 3419 
Q 3406 3131 3298 2873 
Q 3191 2616 2906 2266 
Q 2828 2175 2409 1742 
Q 1991 1309 1228 531 
z
" id="DejaVuSans-32" transform="scale(0.015625)"/>
        <path d="M 2034 4250 
Q 1547 4250 1301 3770 
Q 1056 3291 1056 2328 
Q 1056 1369 1301 889 
Q 1547 409 2034 409 
Q 2525 409 2770 889 
Q 3016 1369 3016 2328 
Q 3016 3291 2770 3770 
Q 2525 4250 2034 4250 
z
M 2034 4750 
Q 2819 4750 3233 4129 
Q 3647 3509 3647 2328 
Q 3647 1150 3233 529 
Q 2819 -91 2034 -91 
Q 1250 -91 836 529 
Q 422 1150 422 2328 
Q 422 3509 836 4129 
Q 1250 4750 2034 4750 
z
" id="DejaVuSans-30" transform="scale(0.015625)"/>
        <path d="M 794 531 
L 1825 531 
L 1825 4091 
L 703 3866 
L 703 4441 
L 1819 4666 
L 2450 4666 
L 2450 531 
L 3481 531 
L 3481 0 
L 794 0 
L 794 531 
z
" id="DejaVuSans-31" transform="scale(0.015625)"/>
        <path d="M 313 2009 
L 1997 2009 
L 1997 1497 
L 313 1497 
L 313 2009 
z
" id="DejaVuSans-2d" transform="scale(0.015625)"/>
       </defs>
       <use xlink:href="#DejaVuSans-32"/>
       <use x="63.623047" xlink:href="#DejaVuSans-30"/>
       <use x="127.246094" xlink:href="#DejaVuSans-32"/>
       <use x="190.869141" xlink:href="#DejaVuSans-31"/>
       <use x="254.492188" xlink:href="#DejaVuSans-2d"/>
       <use x="290.576172" xlink:href="#DejaVuSans-31"/>
       <use x="354.199219" xlink:href="#DejaVuSans-32"/>
      </g>
     </g>
    </g>
    <g id="xtick_2">
     <g id="line2d_2">
      <g>
       <use style="stroke:#000000;stroke-width:0.8;" x="149.015885" xlink:href="#m98bc931ea6" y="276.48"/>
      </g>
     </g>
     <g id="text_2">
      <!-- 2022-01 -->
      <g transform="translate(111.791064 310.951846)rotate(-30)scale(0.1 -0.1)">
       <use xlink:href="#DejaVuSans-32"/>
       <use x="63.623047" xlink:href="#DejaVuSans-30"/>
       <use x="127.246094" xlink:href="#DejaVuSans-32"/>
       <use x="190.869141" xlink:href="#DejaVuSans-32"/>
       <use x="254.492188" xlink:href="#DejaVuSans-2d"/>
       <use x="290.576172" xlink:href="#DejaVuSans-30"/>
       <use x="354.199219" xlink:href="#DejaVuSans-31"/>
      </g>
     </g>
    </g>
    <g id="xtick_3">
     <g id="line2d_3">
      <g>
       <use style="stroke:#000000;stroke-width:0.8;" x="201.985837" xlink:href="#m98bc931ea6" y="276.48"/>
      </g>
     </g>
     <g id="text_3">
      <!-- 2022-02 -->
      <g transform="translate(164.761017 310.951846)rotate(-30)scale(0.1 -0.1)">
       <use xlink:href="#DejaVuSans-32"/>
       <use x="63.623047" xlink:href="#DejaVuSans-30"/>
       <use x="127.246094" xlink:href="#DejaVuSans-32"/>
       <use x="190.869141" xlink:href="#DejaVuSans-32"/>
       <use x="254.492188" xlink:href="#DejaVuSans-2d"/>
       <use x="290.576172" xlink:href="#DejaVuSans-30"/>
       <use x="354.199219" xlink:href="#DejaVuSans-32"/>
      </g>
     </g>
    </g>
    <g id="xtick_4">
     <g id="line2d_4">
      <g>
       <use style="stroke:#000000;stroke-width:0.8;" x="249.829665" xlink:href="#m98bc931ea6" y="276.48"/>
      </g>
     </g>
     <g id="text_4">
      <!-- 2022-03 -->
      <g transform="translate(212.604844 310.951846)rotate(-30)scale(0.1 -0.1)">
       <defs>
        <path d="M 2597 2516 
Q 3050 2419 3304 2112 
Q 3559 1806 3559 1356 
Q 3559 666 3084 287 
Q 2609 -91 1734 -91 
Q 1441 -91 1130 -33 
Q 819 25 488 141 
L 488 750 
Q 750 597 1062 519 
Q 1375 441 1716 441 
Q 2309 441 2620 675 
Q 2931 909 2931 1356 
Q 2931 1769 2642 2001 
Q 2353 2234 1838 2234 
L 1294 2234 
L 1294 2753 
L 1863 2753 
Q 2328 2753 2575 2939 
Q 2822 3125 2822 3475 
Q 2822 3834 2567 4026 
Q 2313 4219 1838 4219 
Q 1578 4219 1281 4162 
Q 984 4106 628 3988 
L 628 4550 
Q 988 4650 1302 4700 
Q 1616 4750 1894 4750 
Q 2613 4750 3031 4423 
Q 3450 4097 3450 3541 
Q 3450 3153 3228 2886 
Q 3006 2619 2597 2516 
z
" id="DejaVuSans-33" transform="scale(0.015625)"/>
       </defs>
       <use xlink:href="#DejaVuSans-32"/>
       <use x="63.623047" xlink:href="#DejaVuSans-30"/>
       <use x="127.246094" xlink:href="#DejaVuSans-32"/>
       <use x="190.869141" xlink:href="#DejaVuSans-32"/>
       <use x="254.492188" xlink:href="#DejaVuSans-2d"/>
       <use x="290.576172" xlink:href="#DejaVuSans-30"/>
       <use x="354.199219" xlink:href="#DejaVuSans-33"/>
      </g>
     </g>
    </g>
    <g id="xtick_5">
     <g id="line2d_5">
      <g>
       <use style="stroke:#000000;stroke-width:0.8;" x="302.799617" xlink:href="#m98bc931ea6" y="276.48"/>
      </g>
     </g>
     <g id="text_5">
      <!-- 2022-04 -->
      <g transform="translate(265.574796 310.951846)rotate(-30)scale(0.1 -0.1)">
       <defs>
        <path d="M 2419 4116 
L 825 1625 
L 2419 1625 
L 2419 4116 
z
M 2253 4666 
L 3047 4666 
L 3047 1625 
L 3713 1625 
L 3713 1100 
L 3047 1100 
L 3047 0 
L 2419 0 
L 2419 1100 
L 313 1100 
L 313 1709 
L 2253 4666 
z
" id="DejaVuSans-34" transform="scale(0.015625)"/>
       </defs>
       <use xlink:href="#DejaVuSans-32"/>
       <use x="63.623047" xlink:href="#DejaVuSans-30"/>
       <use x="127.246094" xlink:href="#DejaVuSans-32"/>
       <use x="190.869141" xlink:href="#DejaVuSans-32"/>
       <use x="254.492188" xlink:href="#DejaVuSans-2d"/>
       <use x="290.576172" xlink:href="#DejaVuSans-30"/>
       <use x="354.199219" xlink:href="#DejaVuSans-34"/>
      </g>
     </g>
    </g>
    <g id="xtick_6">
     <g id="line2d_6">
      <g>
       <use style="stroke:#000000;stroke-width:0.8;" x="354.060861" xlink:href="#m98bc931ea6" y="276.48"/>
      </g>
     </g>
     <g id="text_6">
      <!-- 2022-05 -->
      <g transform="translate(316.83604 310.951846)rotate(-30)scale(0.1 -0.1)">
       <defs>
        <path d="M 691 4666 
L 3169 4666 
L 3169 4134 
L 1269 4134 
L 1269 2991 
Q 1406 3038 1543 3061 
Q 1681 3084 1819 3084 
Q 2600 3084 3056 2656 
Q 3513 2228 3513 1497 
Q 3513 744 3044 326 
Q 2575 -91 1722 -91 
Q 1428 -91 1123 -41 
Q 819 9 494 109 
L 494 744 
Q 775 591 1075 516 
Q 1375 441 1709 441 
Q 2250 441 2565 725 
Q 2881 1009 2881 1497 
Q 2881 1984 2565 2268 
Q 2250 2553 1709 2553 
Q 1456 2553 1204 2497 
Q 953 2441 691 2322 
L 691 4666 
z
" id="DejaVuSans-35" transform="scale(0.015625)"/>
       </defs>
       <use xlink:href="#DejaVuSans-32"/>
       <use x="63.623047" xlink:href="#DejaVuSans-30"/>
       <use x="127.246094" xlink:href="#DejaVuSans-32"/>
       <use x="190.869141" xlink:href="#DejaVuSans-32"/>
       <use x="254.492188" xlink:href="#DejaVuSans-2d"/>
       <use x="290.576172" xlink:href="#DejaVuSans-30"/>
       <use x="354.199219" xlink:href="#DejaVuSans-35"/>
      </g>
     </g>
    </g>
    <g id="xtick_7">
     <g id="line2d_7">
      <g>
       <use style="stroke:#000000;stroke-width:0.8;" x="407.030813" xlink:href="#m98bc931ea6" y="276.48"/>
      </g>
     </g>
     <g id="text_7">
      <!-- 2022-06 -->
      <g transform="translate(369.805993 310.951846)rotate(-30)scale(0.1 -0.1)">
       <defs>
        <path d="M 2113 2584 
Q 1688 2584 1439 2293 
Q 1191 2003 1191 1497 
Q 1191 994 1439 701 
Q 1688 409 2113 409 
Q 2538 409 2786 701 
Q 3034 994 3034 1497 
Q 3034 2003 2786 2293 
Q 2538 2584 2113 2584 
z
M 3366 4563 
L 3366 3988 
Q 3128 4100 2886 4159 
Q 2644 4219 2406 4219 
Q 1781 4219 1451 3797 
Q 1122 3375 1075 2522 
Q 1259 2794 1537 2939 
Q 1816 3084 2150 3084 
Q 2853 3084 3261 2657 
Q 3669 2231 3669 1497 
Q 3669 778 3244 343 
Q 2819 -91 2113 -91 
Q 1303 -91 875 529 
Q 447 1150 447 2328 
Q 447 3434 972 4092 
Q 1497 4750 2381 4750 
Q 2619 4750 2861 4703 
Q 3103 4656 3366 4563 
z
" id="DejaVuSans-36" transform="scale(0.015625)"/>
       </defs>
       <use xlink:href="#DejaVuSans-32"/>
       <use x="63.623047" xlink:href="#DejaVuSans-30"/>
       <use x="127.246094" xlink:href="#DejaVuSans-32"/>
       <use x="190.869141" xlink:href="#DejaVuSans-32"/>
       <use x="254.492188" xlink:href="#DejaVuSans-2d"/>
       <use x="290.576172" xlink:href="#DejaVuSans-30"/>
       <use x="354.199219" xlink:href="#DejaVuSans-36"/>
      </g>
     </g>
    </g>
    <g id="text_8">
     <!-- date -->
     <g transform="translate(224.885 324.351346)scale(0.1 -0.1)">
      <defs>
       <path d="M 2906 2969 
L 2906 4863 
L 3481 4863 
L 3481 0 
L 2906 0 
L 2906 525 
Q 2725 213 2448 61 
Q 2172 -91 1784 -91 
Q 1150 -91 751 415 
Q 353 922 353 1747 
Q 353 2572 751 3078 
Q 1150 3584 1784 3584 
Q 2172 3584 2448 3432 
Q 2725 3281 2906 2969 
z
M 947 1747 
Q 947 1113 1208 752 
Q 1469 391 1925 391 
Q 2381 391 2643 752 
Q 2906 1113 2906 1747 
Q 2906 2381 2643 2742 
Q 2381 3103 1925 3103 
Q 1469 3103 1208 2742 
Q 947 2381 947 1747 
z
" id="DejaVuSans-64" transform="scale(0.015625)"/>
       <path d="M 2194 1759 
Q 1497 1759 1228 1600 
Q 959 1441 959 1056 
Q 959 750 1161 570 
Q 1363 391 1709 391 
Q 2188 391 2477 730 
Q 2766 1069 2766 1631 
L 2766 1759 
L 2194 1759 
z
M 3341 1997 
L 3341 0 
L 2766 0 
L 2766 531 
Q 2569 213 2275 61 
Q 1981 -91 1556 -91 
Q 1019 -91 701 211 
Q 384 513 384 1019 
Q 384 1609 779 1909 
Q 1175 2209 1959 2209 
L 2766 2209 
L 2766 2266 
Q 2766 2663 2505 2880 
Q 2244 3097 1772 3097 
Q 1472 3097 1187 3025 
Q 903 2953 641 2809 
L 641 3341 
Q 956 3463 1253 3523 
Q 1550 3584 1831 3584 
Q 2591 3584 2966 3190 
Q 3341 2797 3341 1997 
z
" id="DejaVuSans-61" transform="scale(0.015625)"/>
       <path d="M 1172 4494 
L 1172 3500 
L 2356 3500 
L 2356 3053 
L 1172 3053 
L 1172 1153 
Q 1172 725 1289 603 
Q 1406 481 1766 481 
L 2356 481 
L 2356 0 
L 1766 0 
Q 1100 0 847 248 
Q 594 497 594 1153 
L 594 3053 
L 172 3053 
L 172 3500 
L 594 3500 
L 594 4494 
L 1172 4494 
z
" id="DejaVuSans-74" transform="scale(0.015625)"/>
       <path d="M 3597 1894 
L 3597 1613 
L 953 1613 
Q 991 1019 1311 708 
Q 1631 397 2203 397 
Q 2534 397 2845 478 
Q 3156 559 3463 722 
L 3463 178 
Q 3153 47 2828 -22 
Q 2503 -91 2169 -91 
Q 1331 -91 842 396 
Q 353 884 353 1716 
Q 353 2575 817 3079 
Q 1281 3584 2069 3584 
Q 2775 3584 3186 3129 
Q 3597 2675 3597 1894 
z
M 3022 2063 
Q 3016 2534 2758 2815 
Q 2500 3097 2075 3097 
Q 1594 3097 1305 2825 
Q 1016 2553 972 2059 
L 3022 2063 
z
" id="DejaVuSans-65" transform="scale(0.015625)"/>
      </defs>
      <use xlink:href="#DejaVuSans-64"/>
      <use x="63.476562" xlink:href="#DejaVuSans-61"/>
      <use x="124.755859" xlink:href="#DejaVuSans-74"/>
      <use x="163.964844" xlink:href="#DejaVuSans-65"/>
     </g>
    </g>
   </g>
   <g id="matplotlib.axis_2">
    <g id="ytick_1">
     <g id="line2d_8">
      <defs>
       <path d="M 0 0 
L -3.5 0 
" id="ma6872bf62b" style="stroke:#000000;stroke-width:0.8;"/>
      </defs>
      <g>
       <use style="stroke:#000000;stroke-width:0.8;" x="57.6" xlink:href="#ma6872bf62b" y="253.240336"/>
      </g>
     </g>
     <g id="text_9">
      <!-- 80000 -->
      <g transform="translate(18.7875 257.039554)scale(0.1 -0.1)">
       <defs>
        <path d="M 2034 2216 
Q 1584 2216 1326 1975 
Q 1069 1734 1069 1313 
Q 1069 891 1326 650 
Q 1584 409 2034 409 
Q 2484 409 2743 651 
Q 3003 894 3003 1313 
Q 3003 1734 2745 1975 
Q 2488 2216 2034 2216 
z
M 1403 2484 
Q 997 2584 770 2862 
Q 544 3141 544 3541 
Q 544 4100 942 4425 
Q 1341 4750 2034 4750 
Q 2731 4750 3128 4425 
Q 3525 4100 3525 3541 
Q 3525 3141 3298 2862 
Q 3072 2584 2669 2484 
Q 3125 2378 3379 2068 
Q 3634 1759 3634 1313 
Q 3634 634 3220 271 
Q 2806 -91 2034 -91 
Q 1263 -91 848 271 
Q 434 634 434 1313 
Q 434 1759 690 2068 
Q 947 2378 1403 2484 
z
M 1172 3481 
Q 1172 3119 1398 2916 
Q 1625 2713 2034 2713 
Q 2441 2713 2670 2916 
Q 2900 3119 2900 3481 
Q 2900 3844 2670 4047 
Q 2441 4250 2034 4250 
Q 1625 4250 1398 4047 
Q 1172 3844 1172 3481 
z
" id="DejaVuSans-38" transform="scale(0.015625)"/>
       </defs>
       <use xlink:href="#DejaVuSans-38"/>
       <use x="63.623047" xlink:href="#DejaVuSans-30"/>
       <use x="127.246094" xlink:href="#DejaVuSans-30"/>
       <use x="190.869141" xlink:href="#DejaVuSans-30"/>
       <use x="254.492188" xlink:href="#DejaVuSans-30"/>
      </g>
     </g>
    </g>
    <g id="ytick_2">
     <g id="line2d_9">
      <g>
       <use style="stroke:#000000;stroke-width:0.8;" x="57.6" xlink:href="#ma6872bf62b" y="202.394123"/>
      </g>
     </g>
     <g id="text_10">
      <!-- 85000 -->
      <g transform="translate(18.7875 206.193342)scale(0.1 -0.1)">
       <use xlink:href="#DejaVuSans-38"/>
       <use x="63.623047" xlink:href="#DejaVuSans-35"/>
       <use x="127.246094" xlink:href="#DejaVuSans-30"/>
       <use x="190.869141" xlink:href="#DejaVuSans-30"/>
       <use x="254.492188" xlink:href="#DejaVuSans-30"/>
      </g>
     </g>
    </g>
    <g id="ytick_3">
     <g id="line2d_10">
      <g>
       <use style="stroke:#000000;stroke-width:0.8;" x="57.6" xlink:href="#ma6872bf62b" y="151.547911"/>
      </g>
     </g>
     <g id="text_11">
      <!-- 90000 -->
      <g transform="translate(18.7875 155.34713)scale(0.1 -0.1)">
       <defs>
        <path d="M 703 97 
L 703 672 
Q 941 559 1184 500 
Q 1428 441 1663 441 
Q 2288 441 2617 861 
Q 2947 1281 2994 2138 
Q 2813 1869 2534 1725 
Q 2256 1581 1919 1581 
Q 1219 1581 811 2004 
Q 403 2428 403 3163 
Q 403 3881 828 4315 
Q 1253 4750 1959 4750 
Q 2769 4750 3195 4129 
Q 3622 3509 3622 2328 
Q 3622 1225 3098 567 
Q 2575 -91 1691 -91 
Q 1453 -91 1209 -44 
Q 966 3 703 97 
z
M 1959 2075 
Q 2384 2075 2632 2365 
Q 2881 2656 2881 3163 
Q 2881 3666 2632 3958 
Q 2384 4250 1959 4250 
Q 1534 4250 1286 3958 
Q 1038 3666 1038 3163 
Q 1038 2656 1286 2365 
Q 1534 2075 1959 2075 
z
" id="DejaVuSans-39" transform="scale(0.015625)"/>
       </defs>
       <use xlink:href="#DejaVuSans-39"/>
       <use x="63.623047" xlink:href="#DejaVuSans-30"/>
       <use x="127.246094" xlink:href="#DejaVuSans-30"/>
       <use x="190.869141" xlink:href="#DejaVuSans-30"/>
       <use x="254.492188" xlink:href="#DejaVuSans-30"/>
      </g>
     </g>
    </g>
    <g id="ytick_4">
     <g id="line2d_11">
      <g>
       <use style="stroke:#000000;stroke-width:0.8;" x="57.6" xlink:href="#ma6872bf62b" y="100.701698"/>
      </g>
     </g>
     <g id="text_12">
      <!-- 95000 -->
      <g transform="translate(18.7875 104.500917)scale(0.1 -0.1)">
       <use xlink:href="#DejaVuSans-39"/>
       <use x="63.623047" xlink:href="#DejaVuSans-35"/>
       <use x="127.246094" xlink:href="#DejaVuSans-30"/>
       <use x="190.869141" xlink:href="#DejaVuSans-30"/>
       <use x="254.492188" xlink:href="#DejaVuSans-30"/>
      </g>
     </g>
    </g>
    <g id="ytick_5">
     <g id="line2d_12">
      <g>
       <use style="stroke:#000000;stroke-width:0.8;" x="57.6" xlink:href="#ma6872bf62b" y="49.855486"/>
      </g>
     </g>
     <g id="text_13">
      <!-- 100000 -->
      <g transform="translate(12.425 53.654705)scale(0.1 -0.1)">
       <use xlink:href="#DejaVuSans-31"/>
       <use x="63.623047" xlink:href="#DejaVuSans-30"/>
       <use x="127.246094" xlink:href="#DejaVuSans-30"/>
       <use x="190.869141" xlink:href="#DejaVuSans-30"/>
       <use x="254.492188" xlink:href="#DejaVuSans-30"/>
       <use x="318.115234" xlink:href="#DejaVuSans-30"/>
      </g>
     </g>
    </g>
   </g>
   <g id="line2d_13">
    <path clip-path="url(#p1b2af85066)" d="M 73.832727 52.154182 
L 75.541435 56.683663 
L 80.66756 64.001185 
L 82.376268 65.084386 
L 84.084976 65.239336 
L 87.502392 64.606363 
L 92.628517 84.437275 
L 94.337225 97.365664 
L 96.045933 107.901882 
L 97.754641 93.107486 
L 99.463349 103.917057 
L 104.589474 93.38165 
L 106.298182 73.773192 
L 108.00689 69.333261 
L 109.715598 79.675116 
L 111.424306 75.866311 
L 116.550431 87.113683 
L 118.259139 93.112611 
L 119.967847 82.64916 
L 123.385263 94.614674 
L 128.511388 112.427678 
L 130.220096 95.001054 
L 131.928804 86.512942 
L 133.637512 80.269743 
L 140.472344 72.473225 
L 142.181053 74.653814 
L 143.889761 76.011975 
L 145.598469 74.624461 
L 147.307177 75.972192 
L 152.433301 69.926278 
L 154.14201 71.425781 
L 155.850718 90.08072 
L 157.559426 90.147133 
L 159.268134 90.605753 
L 164.394258 94.060117 
L 166.102967 81.084178 
L 167.811675 75.34014 
L 169.520383 86.726565 
L 171.229091 87.955009 
L 178.063923 105.011129 
L 179.772632 109.823463 
L 181.48134 116.148012 
L 183.190048 133.04843 
L 188.316172 133.893274 
L 190.02488 142.899586 
L 191.733589 149.471566 
L 193.442297 157.749095 
L 195.151005 144.958751 
L 200.277129 122.479919 
L 201.985837 113.964645 
L 203.694545 111.047966 
L 205.403254 128.785666 
L 207.111962 124.38065 
L 212.238086 124.346703 
L 213.946794 115.761217 
L 215.655502 100.47418 
L 217.364211 112.266686 
L 219.072919 127.989973 
L 224.199043 132.83134 
L 225.907751 114.413076 
L 227.616459 112.136461 
L 229.325167 130.671081 
L 231.033876 137.934533 
L 237.868708 149.374106 
L 239.577416 162.704998 
L 241.286124 160.398491 
L 242.994833 139.460797 
L 248.120957 144.920684 
L 249.829665 160.375495 
L 251.538373 148.207562 
L 253.247081 160.449634 
L 254.955789 176.418404 
L 260.081914 204.190366 
L 261.790622 203.115041 
L 263.49933 176.521111 
L 265.208038 184.967821 
L 266.916746 197.875363 
L 272.042871 205.916951 
L 273.751579 194.533763 
L 275.460287 160.48786 
L 277.168995 152.034205 
L 278.877703 140.595887 
L 284.003828 147.332832 
L 285.712536 136.147835 
L 287.421244 147.31617 
L 289.129952 138.111064 
L 290.83866 138.507749 
L 295.964785 135.720302 
L 297.673493 118.517027 
L 299.382201 124.856625 
L 301.090909 139.029878 
L 302.799617 130.56566 
L 307.925742 122.801207 
L 309.63445 137.645632 
L 311.343158 148.822488 
L 313.051866 149.728936 
L 314.760574 151.018982 
L 319.886699 162.161574 
L 321.595407 165.374106 
L 323.304115 153.739449 
L 325.012823 163.100825 
L 331.847656 166.383198 
L 333.556364 156.975147 
L 335.265072 157.158012 
L 336.97378 172.272623 
L 338.682488 190.358389 
L 343.808612 191.221507 
L 345.517321 214.597344 
L 347.226029 210.85537 
L 348.934737 194.575448 
L 350.643445 213.055459 
L 355.769569 210.12293 
L 357.478278 205.605945 
L 359.186986 187.254577 
L 360.895694 218.585852 
L 367.730526 257.196052 
L 369.439234 255.140514 
L 371.147943 265.797818 
L 372.856651 265.243521 
L 374.565359 242.362418 
L 379.691483 245.860871 
L 381.400191 227.493761 
L 383.1089 253.725525 
L 384.817608 249.30789 
L 386.526316 247.046285 
L 391.65244 236.321187 
L 393.361148 245.791292 
L 395.069856 238.8699 
L 396.778565 224.505942 
L 398.487273 211.360251 
L 398.487273 211.360251 
" style="fill:none;stroke:#0000ff;stroke-linecap:square;stroke-opacity:0.9;stroke-width:2;"/>
   </g>
   <g id="line2d_14">
    <path clip-path="url(#p1b2af85066)" d="M 73.832727 52.154182 
L 75.541435 57.200413 
L 80.66756 64.237875 
L 82.376268 65.464438 
L 84.084976 64.433213 
L 87.502392 90.852318 
L 92.628517 84.413652 
L 94.337225 97.975455 
L 96.045933 108.267677 
L 97.754641 92.979236 
L 99.463349 104.187922 
L 104.589474 93.909657 
L 106.298182 73.873582 
L 108.00689 69.500738 
L 109.715598 78.770754 
L 111.424306 76.524468 
L 116.550431 87.691501 
L 118.259139 93.357496 
L 119.967847 83.446683 
L 123.385263 94.583836 
L 128.511388 112.252631 
L 130.220096 95.568899 
L 131.928804 86.751508 
L 133.637512 80.025939 
L 140.472344 72.214692 
L 142.181053 75.221375 
L 143.889761 75.888777 
L 145.598469 74.045263 
L 147.307177 76.832096 
L 152.433301 69.885899 
L 154.14201 71.535096 
L 155.850718 89.478562 
L 157.559426 89.818268 
L 159.268134 90.585592 
L 164.394258 93.149334 
L 166.102967 81.039965 
L 167.811675 74.350945 
L 169.520383 86.779887 
L 171.229091 87.326293 
L 179.772632 109.551852 
L 181.48134 116.053538 
L 183.190048 132.314842 
L 188.316172 134.177398 
L 190.02488 142.820733 
L 191.733589 148.92473 
L 193.442297 156.471653 
L 195.151005 143.695861 
L 200.277129 122.253397 
L 201.985837 113.658606 
L 203.694545 110.968572 
L 205.403254 128.216299 
L 207.111962 123.459887 
L 212.238086 123.816784 
L 213.946794 115.58368 
L 215.655502 99.482113 
L 217.364211 111.752834 
L 219.072919 127.738242 
L 224.199043 132.70192 
L 225.907751 114.275906 
L 227.616459 111.964381 
L 229.325167 129.471785 
L 231.033876 136.632291 
L 237.868708 149.077457 
L 239.577416 161.991703 
L 241.286124 159.997207 
L 242.994833 140.133686 
L 248.120957 145.566102 
L 249.829665 161.352278 
L 251.538373 148.855573 
L 253.247081 160.742357 
L 254.955789 175.726944 
L 260.081914 205.071989 
L 261.790622 204.304976 
L 263.49933 177.411445 
L 265.208038 184.792051 
L 266.916746 197.769183 
L 272.042871 205.893289 
L 273.751579 194.735989 
L 275.460287 160.611856 
L 277.168995 153.148099 
L 278.877703 141.842627 
L 284.003828 147.447574 
L 285.712536 136.336832 
L 287.421244 148.558175 
L 289.129952 139.348638 
L 290.83866 139.580912 
L 295.964785 136.236646 
L 297.673493 119.363166 
L 299.382201 126.156699 
L 301.090909 139.7945 
L 302.799617 131.292667 
L 307.925742 122.858124 
L 309.63445 138.577387 
L 311.343158 149.819563 
L 313.051866 149.774712 
L 314.760574 151.595219 
L 321.595407 166.620894 
L 323.304115 154.124369 
L 325.012823 163.452496 
L 331.847656 166.278385 
L 333.556364 157.473589 
L 335.265072 158.382816 
L 336.97378 173.063521 
L 338.682488 191.19251 
L 343.808612 191.843659 
L 345.517321 215.563384 
L 347.226029 211.809663 
L 348.934737 195.669671 
L 350.643445 213.937441 
L 355.769569 211.23152 
L 357.478278 205.822463 
L 359.186986 187.933614 
L 360.895694 219.196256 
L 362.604402 229.230172 
L 367.730526 257.524872 
L 369.439234 255.340838 
L 371.147943 265.441791 
L 372.856651 265.10815 
L 374.565359 243.163901 
L 379.691483 245.379255 
L 381.400191 227.621802 
L 383.1089 253.651252 
L 384.817608 249.106518 
L 386.526316 247.174446 
L 391.65244 235.61381 
L 393.361148 245.295153 
L 395.069856 239.199761 
L 398.487273 208.634756 
L 398.487273 208.634756 
" style="fill:none;stroke:#ff0000;stroke-linecap:square;stroke-opacity:0.9;stroke-width:2;"/>
   </g>
   <g id="line2d_15">
    <path clip-path="url(#p1b2af85066)" d="M 73.832727 52.154182 
L 75.541435 57.199081 
L 80.66756 64.727146 
L 82.376268 65.321339 
L 84.084976 64.54856 
L 87.502392 90.422884 
L 92.628517 84.567746 
L 94.337225 97.524731 
L 96.045933 107.82935 
L 97.754641 92.806067 
L 99.463349 104.277654 
L 104.589474 93.257707 
L 106.298182 73.42933 
L 108.00689 69.501296 
L 109.715598 79.268254 
L 111.424306 76.407919 
L 116.550431 87.891795 
L 118.259139 93.352012 
L 119.967847 82.852554 
L 123.385263 95.465203 
L 128.511388 112.291671 
L 130.220096 95.168708 
L 131.928804 86.295034 
L 133.637512 80.095128 
L 140.472344 72.171997 
L 142.181053 74.708559 
L 143.889761 75.683025 
L 145.598469 74.16515 
L 147.307177 76.559179 
L 152.433301 70.194035 
L 154.14201 71.517874 
L 155.850718 89.554095 
L 157.559426 90.417058 
L 159.268134 90.099183 
L 164.394258 94.121843 
L 166.102967 81.281644 
L 167.811675 74.506801 
L 169.520383 87.303932 
L 171.229091 87.21363 
L 178.063923 105.209825 
L 179.772632 110.302636 
L 181.48134 116.638065 
L 183.190048 132.818589 
L 188.316172 134.156073 
L 190.02488 142.732928 
L 191.733589 149.391803 
L 193.442297 157.224604 
L 195.151005 144.145964 
L 200.277129 122.358641 
L 201.985837 114.328096 
L 203.694545 111.552711 
L 205.403254 129.574961 
L 207.111962 124.803977 
L 212.238086 124.170519 
L 213.946794 116.464708 
L 215.655502 99.616876 
L 217.364211 112.334585 
L 219.072919 127.948665 
L 224.199043 133.761245 
L 225.907751 114.793787 
L 227.616459 112.047818 
L 229.325167 130.719606 
L 231.033876 137.714528 
L 237.868708 149.179296 
L 239.577416 162.13128 
L 241.286124 160.177922 
L 242.994833 140.345019 
L 248.120957 144.995864 
L 249.829665 161.032047 
L 251.538373 148.692034 
L 253.247081 160.545208 
L 254.955789 175.996707 
L 260.081914 204.737172 
L 261.790622 203.996323 
L 263.49933 176.641857 
L 265.208038 184.51844 
L 266.916746 197.451292 
L 272.042871 205.502083 
L 273.751579 194.725383 
L 275.460287 159.934689 
L 277.168995 152.342997 
L 278.877703 141.164353 
L 284.003828 147.230393 
L 285.712536 136.350115 
L 287.421244 148.08363 
L 289.129952 139.119156 
L 290.83866 138.665712 
L 295.964785 135.793382 
L 297.673493 118.463006 
L 299.382201 125.02148 
L 301.090909 139.692677 
L 302.799617 131.336404 
L 307.925742 122.363711 
L 309.63445 137.526027 
L 311.343158 149.229015 
L 313.051866 149.222692 
L 314.760574 151.464002 
L 319.886699 162.879555 
L 321.595407 165.602705 
L 323.304115 153.362131 
L 325.012823 163.034367 
L 331.847656 166.456388 
L 333.556364 157.777617 
L 335.265072 157.622966 
L 336.97378 172.5004 
L 338.682488 190.890798 
L 343.808612 191.511677 
L 345.517321 215.108165 
L 347.226029 210.761421 
L 348.934737 195.331932 
L 350.643445 213.014788 
L 355.769569 210.62013 
L 357.478278 205.58997 
L 359.186986 187.042148 
L 360.895694 218.777827 
L 367.730526 257.403015 
L 369.439234 255.365865 
L 371.147943 265.696456 
L 372.856651 265.3113 
L 374.565359 242.568029 
L 379.691483 245.449492 
L 381.400191 227.145137 
L 383.1089 253.003228 
L 384.817608 249.216628 
L 386.526316 247.611631 
L 391.65244 236.009009 
L 393.361148 245.428856 
L 395.069856 238.839726 
L 396.778565 224.327134 
L 398.487273 208.159687 
L 398.487273 208.159687 
" style="fill:none;stroke:#008000;stroke-linecap:square;stroke-opacity:0.9;stroke-width:2;"/>
   </g>
   <g id="line2d_16">
    <path clip-path="url(#p1b2af85066)" d="M 73.832727 52.154182 
L 75.541435 57.456613 
L 80.66756 63.923719 
L 82.376268 64.961142 
L 84.084976 64.341115 
L 87.502392 90.078276 
L 92.628517 85.151551 
L 94.337225 98.084015 
L 96.045933 108.55534 
L 97.754641 93.249443 
L 99.463349 104.273551 
L 104.589474 93.768002 
L 106.298182 73.757658 
L 108.00689 68.837827 
L 109.715598 78.832299 
L 111.424306 76.999149 
L 116.550431 87.906358 
L 118.259139 93.012617 
L 119.967847 83.501198 
L 123.385263 95.288413 
L 128.511388 111.892719 
L 130.220096 95.278708 
L 131.928804 86.626457 
L 133.637512 79.79252 
L 140.472344 72.777435 
L 142.181053 75.460275 
L 143.889761 75.727038 
L 145.598469 74.148742 
L 147.307177 75.986552 
L 152.433301 70.177009 
L 154.14201 71.808139 
L 155.850718 89.871953 
L 157.559426 90.244389 
L 164.394258 93.484689 
L 166.102967 81.420044 
L 167.811675 75.165487 
L 169.520383 87.376686 
L 171.229091 87.340974 
L 178.063923 105.542617 
L 179.772632 109.507951 
L 181.48134 116.487081 
L 183.190048 132.874915 
L 188.316172 134.523905 
L 190.02488 143.094396 
L 191.733589 149.248709 
L 193.442297 157.00722 
L 195.151005 145.099216 
L 201.985837 114.449844 
L 203.694545 110.964669 
L 205.403254 129.402026 
L 207.111962 123.864268 
L 212.238086 123.753663 
L 213.946794 115.756672 
L 215.655502 100.400039 
L 217.364211 112.583143 
L 219.072919 128.109625 
L 224.199043 133.088782 
L 225.907751 114.181674 
L 227.616459 111.990904 
L 229.325167 130.253872 
L 231.033876 137.401093 
L 237.868708 149.770443 
L 239.577416 162.27517 
L 241.286124 160.446829 
L 242.994833 140.056985 
L 248.120957 145.128371 
L 249.829665 160.149528 
L 251.538373 148.261407 
L 253.247081 160.495781 
L 254.955789 176.065728 
L 260.081914 204.777789 
L 261.790622 203.218165 
L 263.49933 177.118901 
L 265.208038 184.589503 
L 266.916746 197.090875 
L 272.042871 206.206676 
L 273.751579 195.04717 
L 275.460287 160.231685 
L 277.168995 152.7195 
L 278.877703 141.058238 
L 284.003828 147.065415 
L 285.712536 135.514971 
L 287.421244 147.775838 
L 289.129952 138.320397 
L 290.83866 138.580588 
L 295.964785 135.498528 
L 297.673493 119.210591 
L 299.382201 125.353164 
L 301.090909 139.284104 
L 302.799617 131.183854 
L 307.925742 122.15303 
L 309.63445 137.205657 
L 311.343158 149.483247 
L 313.051866 149.078951 
L 314.760574 151.136815 
L 319.886699 161.918383 
L 321.595407 166.20019 
L 323.304115 153.844566 
L 325.012823 162.446483 
L 331.847656 166.67201 
L 333.556364 156.662218 
L 335.265072 157.518895 
L 336.97378 172.52219 
L 338.682488 190.652734 
L 343.808612 191.245592 
L 345.517321 214.51903 
L 347.226029 211.328745 
L 348.934737 194.319284 
L 350.643445 212.876985 
L 355.769569 210.645657 
L 357.478278 204.682724 
L 359.186986 186.836336 
L 360.895694 219.011712 
L 362.604402 227.894201 
L 367.730526 257.494332 
L 369.439234 254.678444 
L 371.147943 265.31672 
L 372.856651 265.550116 
L 374.565359 242.775875 
L 379.691483 245.174673 
L 381.400191 227.338826 
L 383.1089 252.577769 
L 384.817608 248.769828 
L 386.526316 247.17983 
L 391.65244 234.980803 
L 393.361148 245.038347 
L 395.069856 238.366987 
L 396.778565 223.790568 
L 398.487273 208.009982 
L 398.487273 208.009982 
" style="fill:none;stroke:#ec5283;stroke-linecap:square;stroke-width:2;"/>
   </g>
   <g id="line2d_17">
    <path clip-path="url(#p1b2af85066)" d="M 73.832727 52.154182 
L 75.541435 57.475581 
L 80.66756 64.210413 
L 82.376268 65.423891 
L 84.084976 65.008165 
L 87.502392 90.056808 
L 92.628517 84.388835 
L 94.337225 97.828764 
L 96.045933 107.919766 
L 97.754641 92.590778 
L 99.463349 103.891628 
L 104.589474 93.571783 
L 106.298182 73.333858 
L 108.00689 68.800644 
L 109.715598 79.508522 
L 111.424306 75.978627 
L 116.550431 87.403607 
L 118.259139 93.338757 
L 119.967847 83.314223 
L 121.676555 89.763734 
L 128.511388 112.225531 
L 130.220096 94.984667 
L 131.928804 85.929081 
L 133.637512 79.77716 
L 140.472344 72.615749 
L 142.181053 75.435616 
L 143.889761 75.542894 
L 145.598469 74.696832 
L 147.307177 76.721508 
L 152.433301 69.89035 
L 154.14201 71.564244 
L 155.850718 89.939253 
L 159.268134 90.017681 
L 164.394258 93.450665 
L 166.102967 80.734521 
L 167.811675 75.093159 
L 169.520383 87.490671 
L 171.229091 87.124458 
L 179.772632 109.940726 
L 181.48134 116.747453 
L 183.190048 133.360893 
L 188.316172 133.962135 
L 190.02488 142.89623 
L 191.733589 148.974839 
L 193.442297 156.93232 
L 195.151005 144.006622 
L 200.277129 122.267841 
L 201.985837 114.419505 
L 203.694545 111.574423 
L 205.403254 128.806251 
L 207.111962 123.912705 
L 212.238086 124.230373 
L 213.946794 115.880984 
L 215.655502 99.526447 
L 217.364211 112.518852 
L 219.072919 128.576249 
L 224.199043 132.705361 
L 225.907751 114.665339 
L 227.616459 112.251107 
L 229.325167 130.353872 
L 231.033876 137.066831 
L 237.868708 148.834546 
L 239.577416 162.505537 
L 241.286124 159.845465 
L 242.994833 139.827409 
L 248.120957 145.242099 
L 249.829665 160.179344 
L 251.538373 148.028756 
L 253.247081 159.890304 
L 254.955789 175.609793 
L 260.081914 204.060819 
L 261.790622 203.735827 
L 263.49933 176.948249 
L 265.208038 184.343932 
L 266.916746 197.462085 
L 272.042871 205.43875 
L 273.751579 194.475812 
L 275.460287 159.995911 
L 277.168995 152.482248 
L 278.877703 141.035859 
L 284.003828 146.79096 
L 285.712536 136.182879 
L 287.421244 147.511016 
L 289.129952 138.250513 
L 290.83866 138.125837 
L 295.964785 135.769202 
L 297.673493 119.105097 
L 299.382201 125.34122 
L 301.090909 139.037702 
L 302.799617 131.378637 
L 307.925742 122.465163 
L 309.63445 137.33477 
L 311.343158 149.341336 
L 313.051866 149.747136 
L 314.760574 150.747917 
L 319.886699 161.95327 
L 321.595407 166.145395 
L 323.304115 153.570038 
L 325.012823 162.972317 
L 331.847656 165.938348 
L 333.556364 157.350718 
L 335.265072 157.693317 
L 336.97378 172.501349 
L 338.682488 190.933832 
L 343.808612 190.765024 
L 345.517321 214.929516 
L 347.226029 210.508 
L 348.934737 194.511141 
L 350.643445 212.595365 
L 355.769569 210.458284 
L 357.478278 204.853346 
L 359.186986 186.761393 
L 360.895694 219.035669 
L 362.604402 228.181272 
L 367.730526 256.987963 
L 369.439234 254.982179 
L 371.147943 265.487854 
L 372.856651 265.269826 
L 374.565359 241.82072 
L 379.691483 245.357844 
L 381.400191 227.236044 
L 383.1089 252.77097 
L 384.817608 249.036735 
L 386.526316 246.782067 
L 391.65244 235.3839 
L 393.361148 245.338985 
L 395.069856 238.565028 
L 396.778565 223.995236 
L 398.487273 208.338884 
L 398.487273 208.338884 
" style="fill:none;stroke:#00ff00;stroke-linecap:square;stroke-opacity:0.9;stroke-width:2;"/>
   </g>
   <g id="line2d_18">
    <path clip-path="url(#p1b2af85066)" d="M 73.832727 52.154182 
L 75.541435 57.659584 
L 80.66756 66.635299 
L 82.376268 67.571372 
L 84.084976 68.958851 
L 87.502392 96.003407 
L 92.628517 91.87972 
L 96.045933 110.421571 
L 97.754641 95.681993 
L 99.463349 107.180421 
L 104.589474 97.622355 
L 106.298182 77.796837 
L 108.00689 72.039665 
L 109.715598 82.509818 
L 111.424306 81.888611 
L 116.550431 94.477094 
L 118.259139 99.535065 
L 119.967847 90.683479 
L 121.676555 96.021752 
L 123.385263 99.899027 
L 128.511388 110.366376 
L 130.220096 92.759563 
L 131.928804 84.865317 
L 133.637512 78.458267 
L 140.472344 71.220568 
L 142.181053 74.902564 
L 143.889761 76.435706 
L 145.598469 72.90045 
L 147.307177 74.822441 
L 152.433301 67.77275 
L 154.14201 70.322223 
L 155.850718 88.07653 
L 157.559426 86.512115 
L 159.268134 86.739871 
L 164.394258 89.421049 
L 166.102967 76.24622 
L 167.811675 70.489775 
L 169.520383 84.236443 
L 171.229091 83.642173 
L 178.063923 104.245529 
L 179.772632 112.969093 
L 181.48134 123.43248 
L 183.190048 142.178995 
L 188.316172 136.196465 
L 190.02488 149.067548 
L 191.733589 155.040864 
L 193.442297 162.772729 
L 195.151005 142.888369 
L 200.277129 121.096016 
L 201.985837 112.385007 
L 203.694545 109.061989 
L 205.403254 129.747936 
L 207.111962 123.047949 
L 212.238086 123.443359 
L 213.946794 114.926613 
L 215.655502 98.329764 
L 217.364211 111.612268 
L 219.072919 128.991637 
L 224.199043 133.358435 
L 225.907751 115.544946 
L 227.616459 114.154336 
L 229.325167 134.694279 
L 231.033876 142.038706 
L 237.868708 153.567027 
L 239.577416 168.68834 
L 241.286124 156.214357 
L 242.994833 135.569732 
L 248.120957 138.534367 
L 249.829665 153.850019 
L 251.538373 140.555669 
L 253.247081 152.451108 
L 254.955789 170.110175 
L 260.081914 198.916307 
L 261.790622 195.545758 
L 263.49933 167.144143 
L 265.208038 176.361378 
L 266.916746 189.150169 
L 272.042871 198.090173 
L 273.751579 191.458152 
L 275.460287 147.886878 
L 277.168995 143.013799 
L 278.877703 130.644351 
L 284.003828 137.480403 
L 285.712536 126.43703 
L 287.421244 136.385588 
L 289.129952 128.105272 
L 290.83866 130.976065 
L 295.964785 129.762895 
L 297.673493 111.489567 
L 299.382201 116.763091 
L 301.090909 130.641091 
L 302.799617 120.143311 
L 307.925742 110.68726 
L 309.63445 126.846046 
L 311.343158 138.831957 
L 313.051866 141.067875 
L 314.760574 141.957352 
L 319.886699 151.586694 
L 321.595407 155.894216 
L 323.304115 143.003101 
L 325.012823 151.644657 
L 331.847656 156.049663 
L 333.556364 149.179889 
L 335.265072 149.746848 
L 338.682488 180.751518 
L 343.808612 182.917323 
L 345.517321 205.976977 
L 347.226029 200.978901 
L 348.934737 186.12401 
L 350.643445 199.172906 
L 355.769569 196.924052 
L 357.478278 190.95496 
L 359.186986 174.47048 
L 360.895694 207.533647 
L 362.604402 218.294914 
L 367.730526 248.652616 
L 369.439234 246.663504 
L 371.147943 258.571574 
L 372.856651 256.402179 
L 374.565359 231.350697 
L 379.691483 236.906827 
L 381.400191 217.270189 
L 383.1089 245.928768 
L 384.817608 244.40294 
L 386.526316 243.905756 
L 391.65244 231.702366 
L 393.361148 240.894473 
L 395.069856 233.248455 
L 396.778565 217.037883 
L 398.487273 198.041573 
L 398.487273 198.041573 
" style="fill:none;stroke:#a5b9cf;stroke-linecap:square;stroke-width:2;"/>
   </g>
   <g id="patch_3">
    <path d="M 57.6 276.48 
L 57.6 41.472 
" style="fill:none;stroke:#000000;stroke-linecap:square;stroke-linejoin:miter;stroke-width:0.8;"/>
   </g>
   <g id="patch_4">
    <path d="M 414.72 276.48 
L 414.72 41.472 
" style="fill:none;stroke:#000000;stroke-linecap:square;stroke-linejoin:miter;stroke-width:0.8;"/>
   </g>
   <g id="patch_5">
    <path d="M 57.6 276.48 
L 414.72 276.48 
" style="fill:none;stroke:#000000;stroke-linecap:square;stroke-linejoin:miter;stroke-width:0.8;"/>
   </g>
   <g id="patch_6">
    <path d="M 57.6 41.472 
L 414.72 41.472 
" style="fill:none;stroke:#000000;stroke-linecap:square;stroke-linejoin:miter;stroke-width:0.8;"/>
   </g>
   <g id="text_14">
    <!-- VFUNDS -->
    <g transform="translate(211.295625 22.034625)scale(0.12 -0.12)">
     <defs>
      <path d="M 1831 0 
L 50 4666 
L 709 4666 
L 2188 738 
L 3669 4666 
L 4325 4666 
L 2547 0 
L 1831 0 
z
" id="DejaVuSans-56" transform="scale(0.015625)"/>
      <path d="M 628 4666 
L 3309 4666 
L 3309 4134 
L 1259 4134 
L 1259 2759 
L 3109 2759 
L 3109 2228 
L 1259 2228 
L 1259 0 
L 628 0 
L 628 4666 
z
" id="DejaVuSans-46" transform="scale(0.015625)"/>
      <path d="M 556 4666 
L 1191 4666 
L 1191 1831 
Q 1191 1081 1462 751 
Q 1734 422 2344 422 
Q 2950 422 3222 751 
Q 3494 1081 3494 1831 
L 3494 4666 
L 4128 4666 
L 4128 1753 
Q 4128 841 3676 375 
Q 3225 -91 2344 -91 
Q 1459 -91 1007 375 
Q 556 841 556 1753 
L 556 4666 
z
" id="DejaVuSans-55" transform="scale(0.015625)"/>
      <path d="M 628 4666 
L 1478 4666 
L 3547 763 
L 3547 4666 
L 4159 4666 
L 4159 0 
L 3309 0 
L 1241 3903 
L 1241 0 
L 628 0 
L 628 4666 
z
" id="DejaVuSans-4e" transform="scale(0.015625)"/>
      <path d="M 1259 4147 
L 1259 519 
L 2022 519 
Q 2988 519 3436 956 
Q 3884 1394 3884 2338 
Q 3884 3275 3436 3711 
Q 2988 4147 2022 4147 
L 1259 4147 
z
M 628 4666 
L 1925 4666 
Q 3281 4666 3915 4102 
Q 4550 3538 4550 2338 
Q 4550 1131 3912 565 
Q 3275 0 1925 0 
L 628 0 
L 628 4666 
z
" id="DejaVuSans-44" transform="scale(0.015625)"/>
      <path d="M 3425 4513 
L 3425 3897 
Q 3066 4069 2747 4153 
Q 2428 4238 2131 4238 
Q 1616 4238 1336 4038 
Q 1056 3838 1056 3469 
Q 1056 3159 1242 3001 
Q 1428 2844 1947 2747 
L 2328 2669 
Q 3034 2534 3370 2195 
Q 3706 1856 3706 1288 
Q 3706 609 3251 259 
Q 2797 -91 1919 -91 
Q 1588 -91 1214 -16 
Q 841 59 441 206 
L 441 856 
Q 825 641 1194 531 
Q 1563 422 1919 422 
Q 2459 422 2753 634 
Q 3047 847 3047 1241 
Q 3047 1584 2836 1778 
Q 2625 1972 2144 2069 
L 1759 2144 
Q 1053 2284 737 2584 
Q 422 2884 422 3419 
Q 422 4038 858 4394 
Q 1294 4750 2059 4750 
Q 2388 4750 2728 4690 
Q 3069 4631 3425 4513 
z
" id="DejaVuSans-53" transform="scale(0.015625)"/>
     </defs>
     <use xlink:href="#DejaVuSans-56"/>
     <use x="68.408203" xlink:href="#DejaVuSans-46"/>
     <use x="125.927734" xlink:href="#DejaVuSans-55"/>
     <use x="199.121094" xlink:href="#DejaVuSans-4e"/>
     <use x="273.925781" xlink:href="#DejaVuSans-44"/>
     <use x="350.927734" xlink:href="#DejaVuSans-53"/>
    </g>
    <!-- daily_report -->
    <g transform="translate(200.466563 35.472)scale(0.12 -0.12)">
     <defs>
      <path d="M 603 3500 
L 1178 3500 
L 1178 0 
L 603 0 
L 603 3500 
z
M 603 4863 
L 1178 4863 
L 1178 4134 
L 603 4134 
L 603 4863 
z
" id="DejaVuSans-69" transform="scale(0.015625)"/>
      <path d="M 603 4863 
L 1178 4863 
L 1178 0 
L 603 0 
L 603 4863 
z
" id="DejaVuSans-6c" transform="scale(0.015625)"/>
      <path d="M 2059 -325 
Q 1816 -950 1584 -1140 
Q 1353 -1331 966 -1331 
L 506 -1331 
L 506 -850 
L 844 -850 
Q 1081 -850 1212 -737 
Q 1344 -625 1503 -206 
L 1606 56 
L 191 3500 
L 800 3500 
L 1894 763 
L 2988 3500 
L 3597 3500 
L 2059 -325 
z
" id="DejaVuSans-79" transform="scale(0.015625)"/>
      <path d="M 3263 -1063 
L 3263 -1509 
L -63 -1509 
L -63 -1063 
L 3263 -1063 
z
" id="DejaVuSans-5f" transform="scale(0.015625)"/>
      <path d="M 2631 2963 
Q 2534 3019 2420 3045 
Q 2306 3072 2169 3072 
Q 1681 3072 1420 2755 
Q 1159 2438 1159 1844 
L 1159 0 
L 581 0 
L 581 3500 
L 1159 3500 
L 1159 2956 
Q 1341 3275 1631 3429 
Q 1922 3584 2338 3584 
Q 2397 3584 2469 3576 
Q 2541 3569 2628 3553 
L 2631 2963 
z
" id="DejaVuSans-72" transform="scale(0.015625)"/>
      <path d="M 1159 525 
L 1159 -1331 
L 581 -1331 
L 581 3500 
L 1159 3500 
L 1159 2969 
Q 1341 3281 1617 3432 
Q 1894 3584 2278 3584 
Q 2916 3584 3314 3078 
Q 3713 2572 3713 1747 
Q 3713 922 3314 415 
Q 2916 -91 2278 -91 
Q 1894 -91 1617 61 
Q 1341 213 1159 525 
z
M 3116 1747 
Q 3116 2381 2855 2742 
Q 2594 3103 2138 3103 
Q 1681 3103 1420 2742 
Q 1159 2381 1159 1747 
Q 1159 1113 1420 752 
Q 1681 391 2138 391 
Q 2594 391 2855 752 
Q 3116 1113 3116 1747 
z
" id="DejaVuSans-70" transform="scale(0.015625)"/>
      <path d="M 1959 3097 
Q 1497 3097 1228 2736 
Q 959 2375 959 1747 
Q 959 1119 1226 758 
Q 1494 397 1959 397 
Q 2419 397 2687 759 
Q 2956 1122 2956 1747 
Q 2956 2369 2687 2733 
Q 2419 3097 1959 3097 
z
M 1959 3584 
Q 2709 3584 3137 3096 
Q 3566 2609 3566 1747 
Q 3566 888 3137 398 
Q 2709 -91 1959 -91 
Q 1206 -91 779 398 
Q 353 888 353 1747 
Q 353 2609 779 3096 
Q 1206 3584 1959 3584 
z
" id="DejaVuSans-6f" transform="scale(0.015625)"/>
     </defs>
     <use xlink:href="#DejaVuSans-64"/>
     <use x="63.476562" xlink:href="#DejaVuSans-61"/>
     <use x="124.755859" xlink:href="#DejaVuSans-69"/>
     <use x="152.539062" xlink:href="#DejaVuSans-6c"/>
     <use x="180.322266" xlink:href="#DejaVuSans-79"/>
     <use x="239.501953" xlink:href="#DejaVuSans-5f"/>
     <use x="289.501953" xlink:href="#DejaVuSans-72"/>
     <use x="328.365234" xlink:href="#DejaVuSans-65"/>
     <use x="389.888672" xlink:href="#DejaVuSans-70"/>
     <use x="453.365234" xlink:href="#DejaVuSans-6f"/>
     <use x="514.546875" xlink:href="#DejaVuSans-72"/>
     <use x="555.660156" xlink:href="#DejaVuSans-74"/>
    </g>
   </g>
   <g id="legend_1">
    <g id="patch_7">
     <path d="M 64.6 271.48 
L 178.64375 271.48 
Q 180.64375 271.48 180.64375 269.48 
L 180.64375 182.41125 
Q 180.64375 180.41125 178.64375 180.41125 
L 64.6 180.41125 
Q 62.6 180.41125 62.6 182.41125 
L 62.6 269.48 
Q 62.6 271.48 64.6 271.48 
z
" style="fill:#ffffff;opacity:0.8;stroke:#cccccc;stroke-linejoin:miter;"/>
    </g>
    <g id="line2d_19">
     <path d="M 66.6 188.509687 
L 86.6 188.509687 
" style="fill:none;stroke:#0000ff;stroke-linecap:square;stroke-opacity:0.9;stroke-width:2;"/>
    </g>
    <g id="line2d_20"/>
    <g id="text_15">
     <!-- alpaca -->
     <g transform="translate(94.6 192.009687)scale(0.1 -0.1)">
      <defs>
       <path d="M 3122 3366 
L 3122 2828 
Q 2878 2963 2633 3030 
Q 2388 3097 2138 3097 
Q 1578 3097 1268 2742 
Q 959 2388 959 1747 
Q 959 1106 1268 751 
Q 1578 397 2138 397 
Q 2388 397 2633 464 
Q 2878 531 3122 666 
L 3122 134 
Q 2881 22 2623 -34 
Q 2366 -91 2075 -91 
Q 1284 -91 818 406 
Q 353 903 353 1747 
Q 353 2603 823 3093 
Q 1294 3584 2113 3584 
Q 2378 3584 2631 3529 
Q 2884 3475 3122 3366 
z
" id="DejaVuSans-63" transform="scale(0.015625)"/>
      </defs>
      <use xlink:href="#DejaVuSans-61"/>
      <use x="61.279297" xlink:href="#DejaVuSans-6c"/>
      <use x="89.0625" xlink:href="#DejaVuSans-70"/>
      <use x="152.539062" xlink:href="#DejaVuSans-61"/>
      <use x="213.818359" xlink:href="#DejaVuSans-63"/>
      <use x="268.798828" xlink:href="#DejaVuSans-61"/>
     </g>
    </g>
    <g id="line2d_21">
     <path d="M 66.6 203.187812 
L 86.6 203.187812 
" style="fill:none;stroke:#ff0000;stroke-linecap:square;stroke-opacity:0.9;stroke-width:2;"/>
    </g>
    <g id="line2d_22"/>
    <g id="text_16">
     <!-- mattress -->
     <g transform="translate(94.6 206.687812)scale(0.1 -0.1)">
      <defs>
       <path d="M 3328 2828 
Q 3544 3216 3844 3400 
Q 4144 3584 4550 3584 
Q 5097 3584 5394 3201 
Q 5691 2819 5691 2113 
L 5691 0 
L 5113 0 
L 5113 2094 
Q 5113 2597 4934 2840 
Q 4756 3084 4391 3084 
Q 3944 3084 3684 2787 
Q 3425 2491 3425 1978 
L 3425 0 
L 2847 0 
L 2847 2094 
Q 2847 2600 2669 2842 
Q 2491 3084 2119 3084 
Q 1678 3084 1418 2786 
Q 1159 2488 1159 1978 
L 1159 0 
L 581 0 
L 581 3500 
L 1159 3500 
L 1159 2956 
Q 1356 3278 1631 3431 
Q 1906 3584 2284 3584 
Q 2666 3584 2933 3390 
Q 3200 3197 3328 2828 
z
" id="DejaVuSans-6d" transform="scale(0.015625)"/>
       <path d="M 2834 3397 
L 2834 2853 
Q 2591 2978 2328 3040 
Q 2066 3103 1784 3103 
Q 1356 3103 1142 2972 
Q 928 2841 928 2578 
Q 928 2378 1081 2264 
Q 1234 2150 1697 2047 
L 1894 2003 
Q 2506 1872 2764 1633 
Q 3022 1394 3022 966 
Q 3022 478 2636 193 
Q 2250 -91 1575 -91 
Q 1294 -91 989 -36 
Q 684 19 347 128 
L 347 722 
Q 666 556 975 473 
Q 1284 391 1588 391 
Q 1994 391 2212 530 
Q 2431 669 2431 922 
Q 2431 1156 2273 1281 
Q 2116 1406 1581 1522 
L 1381 1569 
Q 847 1681 609 1914 
Q 372 2147 372 2553 
Q 372 3047 722 3315 
Q 1072 3584 1716 3584 
Q 2034 3584 2315 3537 
Q 2597 3491 2834 3397 
z
" id="DejaVuSans-73" transform="scale(0.015625)"/>
      </defs>
      <use xlink:href="#DejaVuSans-6d"/>
      <use x="97.412109" xlink:href="#DejaVuSans-61"/>
      <use x="158.691406" xlink:href="#DejaVuSans-74"/>
      <use x="197.900391" xlink:href="#DejaVuSans-74"/>
      <use x="237.109375" xlink:href="#DejaVuSans-72"/>
      <use x="275.972656" xlink:href="#DejaVuSans-65"/>
      <use x="337.496094" xlink:href="#DejaVuSans-73"/>
      <use x="389.595703" xlink:href="#DejaVuSans-73"/>
     </g>
    </g>
    <g id="line2d_23">
     <path d="M 66.6 217.865937 
L 86.6 217.865937 
" style="fill:none;stroke:#008000;stroke-linecap:square;stroke-opacity:0.9;stroke-width:2;"/>
    </g>
    <g id="line2d_24"/>
    <g id="text_17">
     <!-- daily-open-rebal -->
     <g transform="translate(94.6 221.365937)scale(0.1 -0.1)">
      <defs>
       <path d="M 3513 2113 
L 3513 0 
L 2938 0 
L 2938 2094 
Q 2938 2591 2744 2837 
Q 2550 3084 2163 3084 
Q 1697 3084 1428 2787 
Q 1159 2491 1159 1978 
L 1159 0 
L 581 0 
L 581 3500 
L 1159 3500 
L 1159 2956 
Q 1366 3272 1645 3428 
Q 1925 3584 2291 3584 
Q 2894 3584 3203 3211 
Q 3513 2838 3513 2113 
z
" id="DejaVuSans-6e" transform="scale(0.015625)"/>
       <path d="M 3116 1747 
Q 3116 2381 2855 2742 
Q 2594 3103 2138 3103 
Q 1681 3103 1420 2742 
Q 1159 2381 1159 1747 
Q 1159 1113 1420 752 
Q 1681 391 2138 391 
Q 2594 391 2855 752 
Q 3116 1113 3116 1747 
z
M 1159 2969 
Q 1341 3281 1617 3432 
Q 1894 3584 2278 3584 
Q 2916 3584 3314 3078 
Q 3713 2572 3713 1747 
Q 3713 922 3314 415 
Q 2916 -91 2278 -91 
Q 1894 -91 1617 61 
Q 1341 213 1159 525 
L 1159 0 
L 581 0 
L 581 4863 
L 1159 4863 
L 1159 2969 
z
" id="DejaVuSans-62" transform="scale(0.015625)"/>
      </defs>
      <use xlink:href="#DejaVuSans-64"/>
      <use x="63.476562" xlink:href="#DejaVuSans-61"/>
      <use x="124.755859" xlink:href="#DejaVuSans-69"/>
      <use x="152.539062" xlink:href="#DejaVuSans-6c"/>
      <use x="180.322266" xlink:href="#DejaVuSans-79"/>
      <use x="237.751953" xlink:href="#DejaVuSans-2d"/>
      <use x="275.710938" xlink:href="#DejaVuSans-6f"/>
      <use x="336.892578" xlink:href="#DejaVuSans-70"/>
      <use x="400.369141" xlink:href="#DejaVuSans-65"/>
      <use x="461.892578" xlink:href="#DejaVuSans-6e"/>
      <use x="525.271484" xlink:href="#DejaVuSans-2d"/>
      <use x="561.355469" xlink:href="#DejaVuSans-72"/>
      <use x="600.21875" xlink:href="#DejaVuSans-65"/>
      <use x="661.742188" xlink:href="#DejaVuSans-62"/>
      <use x="725.21875" xlink:href="#DejaVuSans-61"/>
      <use x="786.498047" xlink:href="#DejaVuSans-6c"/>
     </g>
    </g>
    <g id="line2d_25">
     <path d="M 66.6 232.544062 
L 86.6 232.544062 
" style="fill:none;stroke:#ec5283;stroke-linecap:square;stroke-width:2;"/>
    </g>
    <g id="line2d_26"/>
    <g id="text_18">
     <!-- daily-close-rebal -->
     <g transform="translate(94.6 236.044062)scale(0.1 -0.1)">
      <use xlink:href="#DejaVuSans-64"/>
      <use x="63.476562" xlink:href="#DejaVuSans-61"/>
      <use x="124.755859" xlink:href="#DejaVuSans-69"/>
      <use x="152.539062" xlink:href="#DejaVuSans-6c"/>
      <use x="180.322266" xlink:href="#DejaVuSans-79"/>
      <use x="237.751953" xlink:href="#DejaVuSans-2d"/>
      <use x="273.835938" xlink:href="#DejaVuSans-63"/>
      <use x="328.816406" xlink:href="#DejaVuSans-6c"/>
      <use x="356.599609" xlink:href="#DejaVuSans-6f"/>
      <use x="417.78125" xlink:href="#DejaVuSans-73"/>
      <use x="469.880859" xlink:href="#DejaVuSans-65"/>
      <use x="531.404297" xlink:href="#DejaVuSans-2d"/>
      <use x="567.488281" xlink:href="#DejaVuSans-72"/>
      <use x="606.351562" xlink:href="#DejaVuSans-65"/>
      <use x="667.875" xlink:href="#DejaVuSans-62"/>
      <use x="731.351562" xlink:href="#DejaVuSans-61"/>
      <use x="792.630859" xlink:href="#DejaVuSans-6c"/>
     </g>
    </g>
    <g id="line2d_27">
     <path d="M 66.6 247.222187 
L 86.6 247.222187 
" style="fill:none;stroke:#00ff00;stroke-linecap:square;stroke-opacity:0.9;stroke-width:2;"/>
    </g>
    <g id="line2d_28"/>
    <g id="text_19">
     <!-- trader-baseline -->
     <g transform="translate(94.6 250.722187)scale(0.1 -0.1)">
      <use xlink:href="#DejaVuSans-74"/>
      <use x="39.208984" xlink:href="#DejaVuSans-72"/>
      <use x="80.322266" xlink:href="#DejaVuSans-61"/>
      <use x="141.601562" xlink:href="#DejaVuSans-64"/>
      <use x="205.078125" xlink:href="#DejaVuSans-65"/>
      <use x="266.601562" xlink:href="#DejaVuSans-72"/>
      <use x="301.339844" xlink:href="#DejaVuSans-2d"/>
      <use x="337.423828" xlink:href="#DejaVuSans-62"/>
      <use x="400.900391" xlink:href="#DejaVuSans-61"/>
      <use x="462.179688" xlink:href="#DejaVuSans-73"/>
      <use x="514.279297" xlink:href="#DejaVuSans-65"/>
      <use x="575.802734" xlink:href="#DejaVuSans-6c"/>
      <use x="603.585938" xlink:href="#DejaVuSans-69"/>
      <use x="631.369141" xlink:href="#DejaVuSans-6e"/>
      <use x="694.748047" xlink:href="#DejaVuSans-65"/>
     </g>
    </g>
    <g id="line2d_29">
     <path d="M 66.6 261.900312 
L 86.6 261.900312 
" style="fill:none;stroke:#a5b9cf;stroke-linecap:square;stroke-width:2;"/>
    </g>
    <g id="line2d_30"/>
    <g id="text_20">
     <!-- default-cfg -->
     <g transform="translate(94.6 265.400312)scale(0.1 -0.1)">
      <defs>
       <path d="M 2375 4863 
L 2375 4384 
L 1825 4384 
Q 1516 4384 1395 4259 
Q 1275 4134 1275 3809 
L 1275 3500 
L 2222 3500 
L 2222 3053 
L 1275 3053 
L 1275 0 
L 697 0 
L 697 3053 
L 147 3053 
L 147 3500 
L 697 3500 
L 697 3744 
Q 697 4328 969 4595 
Q 1241 4863 1831 4863 
L 2375 4863 
z
" id="DejaVuSans-66" transform="scale(0.015625)"/>
       <path d="M 544 1381 
L 544 3500 
L 1119 3500 
L 1119 1403 
Q 1119 906 1312 657 
Q 1506 409 1894 409 
Q 2359 409 2629 706 
Q 2900 1003 2900 1516 
L 2900 3500 
L 3475 3500 
L 3475 0 
L 2900 0 
L 2900 538 
Q 2691 219 2414 64 
Q 2138 -91 1772 -91 
Q 1169 -91 856 284 
Q 544 659 544 1381 
z
M 1991 3584 
L 1991 3584 
z
" id="DejaVuSans-75" transform="scale(0.015625)"/>
       <path d="M 2906 1791 
Q 2906 2416 2648 2759 
Q 2391 3103 1925 3103 
Q 1463 3103 1205 2759 
Q 947 2416 947 1791 
Q 947 1169 1205 825 
Q 1463 481 1925 481 
Q 2391 481 2648 825 
Q 2906 1169 2906 1791 
z
M 3481 434 
Q 3481 -459 3084 -895 
Q 2688 -1331 1869 -1331 
Q 1566 -1331 1297 -1286 
Q 1028 -1241 775 -1147 
L 775 -588 
Q 1028 -725 1275 -790 
Q 1522 -856 1778 -856 
Q 2344 -856 2625 -561 
Q 2906 -266 2906 331 
L 2906 616 
Q 2728 306 2450 153 
Q 2172 0 1784 0 
Q 1141 0 747 490 
Q 353 981 353 1791 
Q 353 2603 747 3093 
Q 1141 3584 1784 3584 
Q 2172 3584 2450 3431 
Q 2728 3278 2906 2969 
L 2906 3500 
L 3481 3500 
L 3481 434 
z
" id="DejaVuSans-67" transform="scale(0.015625)"/>
      </defs>
      <use xlink:href="#DejaVuSans-64"/>
      <use x="63.476562" xlink:href="#DejaVuSans-65"/>
      <use x="125" xlink:href="#DejaVuSans-66"/>
      <use x="160.205078" xlink:href="#DejaVuSans-61"/>
      <use x="221.484375" xlink:href="#DejaVuSans-75"/>
      <use x="284.863281" xlink:href="#DejaVuSans-6c"/>
      <use x="312.646484" xlink:href="#DejaVuSans-74"/>
      <use x="351.855469" xlink:href="#DejaVuSans-2d"/>
      <use x="387.939453" xlink:href="#DejaVuSans-63"/>
      <use x="442.919922" xlink:href="#DejaVuSans-66"/>
      <use x="478.125" xlink:href="#DejaVuSans-67"/>
     </g>
    </g>
   </g>
  </g>
 </g>
 <defs>
  <clipPath id="p1b2af85066">
   <rect height="235.008" width="357.12" x="57.6" y="41.472"/>
  </clipPath>
 </defs>
</svg>
