<?xml version="1.0" encoding="utf-8" standalone="no"?>
<!DOCTYPE svg PUBLIC "-//W3C//DTD SVG 1.1//EN"
  "http://www.w3.org/Graphics/SVG/1.1/DTD/svg11.dtd">
<svg height="345.6pt" version="1.1" viewBox="0 0 460.8 345.6" width="460.8pt" xmlns="http://www.w3.org/2000/svg" xmlns:xlink="http://www.w3.org/1999/xlink">
 <metadata>
  <rdf:RDF xmlns:cc="http://creativecommons.org/ns#" xmlns:dc="http://purl.org/dc/elements/1.1/" xmlns:rdf="http://www.w3.org/1999/02/22-rdf-syntax-ns#">
   <cc:Work>
    <dc:type rdf:resource="http://purl.org/dc/dcmitype/StillImage"/>
    <dc:date>2022-05-13T10:01:33.932475</dc:date>
    <dc:format>image/svg+xml</dc:format>
    <dc:creator>
     <cc:Agent>
      <dc:title>Matplotlib v3.4.3, https://matplotlib.org/</dc:title>
     </cc:Agent>
    </dc:creator>
   </cc:Work>
  </rdf:RDF>
 </metadata>
 <defs>
  <style type="text/css">*{stroke-linecap:butt;stroke-linejoin:round;}</style>
 </defs>
 <g id="figure_1">
  <g id="patch_1">
   <path d="M 0 345.6 
L 460.8 345.6 
L 460.8 0 
L 0 0 
z
" style="fill:#ffffff;"/>
  </g>
  <g id="axes_1">
   <g id="patch_2">
    <path d="M 57.6 276.48 
L 414.72 276.48 
L 414.72 41.472 
L 57.6 41.472 
z
" style="fill:#ffffff;"/>
   </g>
   <g id="matplotlib.axis_1">
    <g id="xtick_1">
     <g id="line2d_1">
      <defs>
       <path d="M 0 0 
L 0 3.5 
" id="md4640f1307" style="stroke:#000000;stroke-width:0.8;"/>
      </defs>
      <g>
       <use style="stroke:#000000;stroke-width:0.8;" x="97.949922" xlink:href="#md4640f1307" y="276.48"/>
      </g>
     </g>
     <g id="text_1">
      <!-- 2021-12 -->
      <g transform="translate(60.725101 310.951846)rotate(-30)scale(0.1 -0.1)">
       <defs>
        <path d="M 1228 531 
L 3431 531 
L 3431 0 
L 469 0 
L 469 531 
Q 828 903 1448 1529 
Q 2069 2156 2228 2338 
Q 2531 2678 2651 2914 
Q 2772 3150 2772 3378 
Q 2772 3750 2511 3984 
Q 2250 4219 1831 4219 
Q 1534 4219 1204 4116 
Q 875 4013 500 3803 
L 500 4441 
Q 881 4594 1212 4672 
Q 1544 4750 1819 4750 
Q 2544 4750 2975 4387 
Q 3406 4025 3406 3419 
Q 3406 3131 3298 2873 
Q 3191 2616 2906 2266 
Q 2828 2175 2409 1742 
Q 1991 1309 1228 531 
z
" id="DejaVuSans-32" transform="scale(0.015625)"/>
        <path d="M 2034 4250 
Q 1547 4250 1301 3770 
Q 1056 3291 1056 2328 
Q 1056 1369 1301 889 
Q 1547 409 2034 409 
Q 2525 409 2770 889 
Q 3016 1369 3016 2328 
Q 3016 3291 2770 3770 
Q 2525 4250 2034 4250 
z
M 2034 4750 
Q 2819 4750 3233 4129 
Q 3647 3509 3647 2328 
Q 3647 1150 3233 529 
Q 2819 -91 2034 -91 
Q 1250 -91 836 529 
Q 422 1150 422 2328 
Q 422 3509 836 4129 
Q 1250 4750 2034 4750 
z
" id="DejaVuSans-30" transform="scale(0.015625)"/>
        <path d="M 794 531 
L 1825 531 
L 1825 4091 
L 703 3866 
L 703 4441 
L 1819 4666 
L 2450 4666 
L 2450 531 
L 3481 531 
L 3481 0 
L 794 0 
L 794 531 
z
" id="DejaVuSans-31" transform="scale(0.015625)"/>
        <path d="M 313 2009 
L 1997 2009 
L 1997 1497 
L 313 1497 
L 313 2009 
z
" id="DejaVuSans-2d" transform="scale(0.015625)"/>
       </defs>
       <use xlink:href="#DejaVuSans-32"/>
       <use x="63.623047" xlink:href="#DejaVuSans-30"/>
       <use x="127.246094" xlink:href="#DejaVuSans-32"/>
       <use x="190.869141" xlink:href="#DejaVuSans-31"/>
       <use x="254.492188" xlink:href="#DejaVuSans-2d"/>
       <use x="290.576172" xlink:href="#DejaVuSans-31"/>
       <use x="354.199219" xlink:href="#DejaVuSans-32"/>
      </g>
     </g>
    </g>
    <g id="xtick_2">
     <g id="line2d_2">
      <g>
       <use style="stroke:#000000;stroke-width:0.8;" x="155.460156" xlink:href="#md4640f1307" y="276.48"/>
      </g>
     </g>
     <g id="text_2">
      <!-- 2022-01 -->
      <g transform="translate(118.235335 310.951846)rotate(-30)scale(0.1 -0.1)">
       <use xlink:href="#DejaVuSans-32"/>
       <use x="63.623047" xlink:href="#DejaVuSans-30"/>
       <use x="127.246094" xlink:href="#DejaVuSans-32"/>
       <use x="190.869141" xlink:href="#DejaVuSans-32"/>
       <use x="254.492188" xlink:href="#DejaVuSans-2d"/>
       <use x="290.576172" xlink:href="#DejaVuSans-30"/>
       <use x="354.199219" xlink:href="#DejaVuSans-31"/>
      </g>
     </g>
    </g>
    <g id="xtick_3">
     <g id="line2d_3">
      <g>
       <use style="stroke:#000000;stroke-width:0.8;" x="212.97039" xlink:href="#md4640f1307" y="276.48"/>
      </g>
     </g>
     <g id="text_3">
      <!-- 2022-02 -->
      <g transform="translate(175.745569 310.951846)rotate(-30)scale(0.1 -0.1)">
       <use xlink:href="#DejaVuSans-32"/>
       <use x="63.623047" xlink:href="#DejaVuSans-30"/>
       <use x="127.246094" xlink:href="#DejaVuSans-32"/>
       <use x="190.869141" xlink:href="#DejaVuSans-32"/>
       <use x="254.492188" xlink:href="#DejaVuSans-2d"/>
       <use x="290.576172" xlink:href="#DejaVuSans-30"/>
       <use x="354.199219" xlink:href="#DejaVuSans-32"/>
      </g>
     </g>
    </g>
    <g id="xtick_4">
     <g id="line2d_4">
      <g>
       <use style="stroke:#000000;stroke-width:0.8;" x="264.915117" xlink:href="#md4640f1307" y="276.48"/>
      </g>
     </g>
     <g id="text_4">
      <!-- 2022-03 -->
      <g transform="translate(227.690296 310.951846)rotate(-30)scale(0.1 -0.1)">
       <defs>
        <path d="M 2597 2516 
Q 3050 2419 3304 2112 
Q 3559 1806 3559 1356 
Q 3559 666 3084 287 
Q 2609 -91 1734 -91 
Q 1441 -91 1130 -33 
Q 819 25 488 141 
L 488 750 
Q 750 597 1062 519 
Q 1375 441 1716 441 
Q 2309 441 2620 675 
Q 2931 909 2931 1356 
Q 2931 1769 2642 2001 
Q 2353 2234 1838 2234 
L 1294 2234 
L 1294 2753 
L 1863 2753 
Q 2328 2753 2575 2939 
Q 2822 3125 2822 3475 
Q 2822 3834 2567 4026 
Q 2313 4219 1838 4219 
Q 1578 4219 1281 4162 
Q 984 4106 628 3988 
L 628 4550 
Q 988 4650 1302 4700 
Q 1616 4750 1894 4750 
Q 2613 4750 3031 4423 
Q 3450 4097 3450 3541 
Q 3450 3153 3228 2886 
Q 3006 2619 2597 2516 
z
" id="DejaVuSans-33" transform="scale(0.015625)"/>
       </defs>
       <use xlink:href="#DejaVuSans-32"/>
       <use x="63.623047" xlink:href="#DejaVuSans-30"/>
       <use x="127.246094" xlink:href="#DejaVuSans-32"/>
       <use x="190.869141" xlink:href="#DejaVuSans-32"/>
       <use x="254.492188" xlink:href="#DejaVuSans-2d"/>
       <use x="290.576172" xlink:href="#DejaVuSans-30"/>
       <use x="354.199219" xlink:href="#DejaVuSans-33"/>
      </g>
     </g>
    </g>
    <g id="xtick_5">
     <g id="line2d_5">
      <g>
       <use style="stroke:#000000;stroke-width:0.8;" x="322.425351" xlink:href="#md4640f1307" y="276.48"/>
      </g>
     </g>
     <g id="text_5">
      <!-- 2022-04 -->
      <g transform="translate(285.20053 310.951846)rotate(-30)scale(0.1 -0.1)">
       <defs>
        <path d="M 2419 4116 
L 825 1625 
L 2419 1625 
L 2419 4116 
z
M 2253 4666 
L 3047 4666 
L 3047 1625 
L 3713 1625 
L 3713 1100 
L 3047 1100 
L 3047 0 
L 2419 0 
L 2419 1100 
L 313 1100 
L 313 1709 
L 2253 4666 
z
" id="DejaVuSans-34" transform="scale(0.015625)"/>
       </defs>
       <use xlink:href="#DejaVuSans-32"/>
       <use x="63.623047" xlink:href="#DejaVuSans-30"/>
       <use x="127.246094" xlink:href="#DejaVuSans-32"/>
       <use x="190.869141" xlink:href="#DejaVuSans-32"/>
       <use x="254.492188" xlink:href="#DejaVuSans-2d"/>
       <use x="290.576172" xlink:href="#DejaVuSans-30"/>
       <use x="354.199219" xlink:href="#DejaVuSans-34"/>
      </g>
     </g>
    </g>
    <g id="xtick_6">
     <g id="line2d_6">
      <g>
       <use style="stroke:#000000;stroke-width:0.8;" x="378.080416" xlink:href="#md4640f1307" y="276.48"/>
      </g>
     </g>
     <g id="text_6">
      <!-- 2022-05 -->
      <g transform="translate(340.855595 310.951846)rotate(-30)scale(0.1 -0.1)">
       <defs>
        <path d="M 691 4666 
L 3169 4666 
L 3169 4134 
L 1269 4134 
L 1269 2991 
Q 1406 3038 1543 3061 
Q 1681 3084 1819 3084 
Q 2600 3084 3056 2656 
Q 3513 2228 3513 1497 
Q 3513 744 3044 326 
Q 2575 -91 1722 -91 
Q 1428 -91 1123 -41 
Q 819 9 494 109 
L 494 744 
Q 775 591 1075 516 
Q 1375 441 1709 441 
Q 2250 441 2565 725 
Q 2881 1009 2881 1497 
Q 2881 1984 2565 2268 
Q 2250 2553 1709 2553 
Q 1456 2553 1204 2497 
Q 953 2441 691 2322 
L 691 4666 
z
" id="DejaVuSans-35" transform="scale(0.015625)"/>
       </defs>
       <use xlink:href="#DejaVuSans-32"/>
       <use x="63.623047" xlink:href="#DejaVuSans-30"/>
       <use x="127.246094" xlink:href="#DejaVuSans-32"/>
       <use x="190.869141" xlink:href="#DejaVuSans-32"/>
       <use x="254.492188" xlink:href="#DejaVuSans-2d"/>
       <use x="290.576172" xlink:href="#DejaVuSans-30"/>
       <use x="354.199219" xlink:href="#DejaVuSans-35"/>
      </g>
     </g>
    </g>
    <g id="text_7">
     <!-- date -->
     <g transform="translate(224.885 324.351346)scale(0.1 -0.1)">
      <defs>
       <path d="M 2906 2969 
L 2906 4863 
L 3481 4863 
L 3481 0 
L 2906 0 
L 2906 525 
Q 2725 213 2448 61 
Q 2172 -91 1784 -91 
Q 1150 -91 751 415 
Q 353 922 353 1747 
Q 353 2572 751 3078 
Q 1150 3584 1784 3584 
Q 2172 3584 2448 3432 
Q 2725 3281 2906 2969 
z
M 947 1747 
Q 947 1113 1208 752 
Q 1469 391 1925 391 
Q 2381 391 2643 752 
Q 2906 1113 2906 1747 
Q 2906 2381 2643 2742 
Q 2381 3103 1925 3103 
Q 1469 3103 1208 2742 
Q 947 2381 947 1747 
z
" id="DejaVuSans-64" transform="scale(0.015625)"/>
       <path d="M 2194 1759 
Q 1497 1759 1228 1600 
Q 959 1441 959 1056 
Q 959 750 1161 570 
Q 1363 391 1709 391 
Q 2188 391 2477 730 
Q 2766 1069 2766 1631 
L 2766 1759 
L 2194 1759 
z
M 3341 1997 
L 3341 0 
L 2766 0 
L 2766 531 
Q 2569 213 2275 61 
Q 1981 -91 1556 -91 
Q 1019 -91 701 211 
Q 384 513 384 1019 
Q 384 1609 779 1909 
Q 1175 2209 1959 2209 
L 2766 2209 
L 2766 2266 
Q 2766 2663 2505 2880 
Q 2244 3097 1772 3097 
Q 1472 3097 1187 3025 
Q 903 2953 641 2809 
L 641 3341 
Q 956 3463 1253 3523 
Q 1550 3584 1831 3584 
Q 2591 3584 2966 3190 
Q 3341 2797 3341 1997 
z
" id="DejaVuSans-61" transform="scale(0.015625)"/>
       <path d="M 1172 4494 
L 1172 3500 
L 2356 3500 
L 2356 3053 
L 1172 3053 
L 1172 1153 
Q 1172 725 1289 603 
Q 1406 481 1766 481 
L 2356 481 
L 2356 0 
L 1766 0 
Q 1100 0 847 248 
Q 594 497 594 1153 
L 594 3053 
L 172 3053 
L 172 3500 
L 594 3500 
L 594 4494 
L 1172 4494 
z
" id="DejaVuSans-74" transform="scale(0.015625)"/>
       <path d="M 3597 1894 
L 3597 1613 
L 953 1613 
Q 991 1019 1311 708 
Q 1631 397 2203 397 
Q 2534 397 2845 478 
Q 3156 559 3463 722 
L 3463 178 
Q 3153 47 2828 -22 
Q 2503 -91 2169 -91 
Q 1331 -91 842 396 
Q 353 884 353 1716 
Q 353 2575 817 3079 
Q 1281 3584 2069 3584 
Q 2775 3584 3186 3129 
Q 3597 2675 3597 1894 
z
M 3022 2063 
Q 3016 2534 2758 2815 
Q 2500 3097 2075 3097 
Q 1594 3097 1305 2825 
Q 1016 2553 972 2059 
L 3022 2063 
z
" id="DejaVuSans-65" transform="scale(0.015625)"/>
      </defs>
      <use xlink:href="#DejaVuSans-64"/>
      <use x="63.476562" xlink:href="#DejaVuSans-61"/>
      <use x="124.755859" xlink:href="#DejaVuSans-74"/>
      <use x="163.964844" xlink:href="#DejaVuSans-65"/>
     </g>
    </g>
   </g>
   <g id="matplotlib.axis_2">
    <g id="ytick_1">
     <g id="line2d_7">
      <defs>
       <path d="M 0 0 
L -3.5 0 
" id="mff73290138" style="stroke:#000000;stroke-width:0.8;"/>
      </defs>
      <g>
       <use style="stroke:#000000;stroke-width:0.8;" x="57.6" xlink:href="#mff73290138" y="249.615584"/>
      </g>
     </g>
     <g id="text_8">
      <!-- 85000 -->
      <g transform="translate(18.7875 253.414803)scale(0.1 -0.1)">
       <defs>
        <path d="M 2034 2216 
Q 1584 2216 1326 1975 
Q 1069 1734 1069 1313 
Q 1069 891 1326 650 
Q 1584 409 2034 409 
Q 2484 409 2743 651 
Q 3003 894 3003 1313 
Q 3003 1734 2745 1975 
Q 2488 2216 2034 2216 
z
M 1403 2484 
Q 997 2584 770 2862 
Q 544 3141 544 3541 
Q 544 4100 942 4425 
Q 1341 4750 2034 4750 
Q 2731 4750 3128 4425 
Q 3525 4100 3525 3541 
Q 3525 3141 3298 2862 
Q 3072 2584 2669 2484 
Q 3125 2378 3379 2068 
Q 3634 1759 3634 1313 
Q 3634 634 3220 271 
Q 2806 -91 2034 -91 
Q 1263 -91 848 271 
Q 434 634 434 1313 
Q 434 1759 690 2068 
Q 947 2378 1403 2484 
z
M 1172 3481 
Q 1172 3119 1398 2916 
Q 1625 2713 2034 2713 
Q 2441 2713 2670 2916 
Q 2900 3119 2900 3481 
Q 2900 3844 2670 4047 
Q 2441 4250 2034 4250 
Q 1625 4250 1398 4047 
Q 1172 3844 1172 3481 
z
" id="DejaVuSans-38" transform="scale(0.015625)"/>
       </defs>
       <use xlink:href="#DejaVuSans-38"/>
       <use x="63.623047" xlink:href="#DejaVuSans-35"/>
       <use x="127.246094" xlink:href="#DejaVuSans-30"/>
       <use x="190.869141" xlink:href="#DejaVuSans-30"/>
       <use x="254.492188" xlink:href="#DejaVuSans-30"/>
      </g>
     </g>
    </g>
    <g id="ytick_2">
     <g id="line2d_8">
      <g>
       <use style="stroke:#000000;stroke-width:0.8;" x="57.6" xlink:href="#mff73290138" y="220.987986"/>
      </g>
     </g>
     <g id="text_9">
      <!-- 87500 -->
      <g transform="translate(18.7875 224.787204)scale(0.1 -0.1)">
       <defs>
        <path d="M 525 4666 
L 3525 4666 
L 3525 4397 
L 1831 0 
L 1172 0 
L 2766 4134 
L 525 4134 
L 525 4666 
z
" id="DejaVuSans-37" transform="scale(0.015625)"/>
       </defs>
       <use xlink:href="#DejaVuSans-38"/>
       <use x="63.623047" xlink:href="#DejaVuSans-37"/>
       <use x="127.246094" xlink:href="#DejaVuSans-35"/>
       <use x="190.869141" xlink:href="#DejaVuSans-30"/>
       <use x="254.492188" xlink:href="#DejaVuSans-30"/>
      </g>
     </g>
    </g>
    <g id="ytick_3">
     <g id="line2d_9">
      <g>
       <use style="stroke:#000000;stroke-width:0.8;" x="57.6" xlink:href="#mff73290138" y="192.360387"/>
      </g>
     </g>
     <g id="text_10">
      <!-- 90000 -->
      <g transform="translate(18.7875 196.159606)scale(0.1 -0.1)">
       <defs>
        <path d="M 703 97 
L 703 672 
Q 941 559 1184 500 
Q 1428 441 1663 441 
Q 2288 441 2617 861 
Q 2947 1281 2994 2138 
Q 2813 1869 2534 1725 
Q 2256 1581 1919 1581 
Q 1219 1581 811 2004 
Q 403 2428 403 3163 
Q 403 3881 828 4315 
Q 1253 4750 1959 4750 
Q 2769 4750 3195 4129 
Q 3622 3509 3622 2328 
Q 3622 1225 3098 567 
Q 2575 -91 1691 -91 
Q 1453 -91 1209 -44 
Q 966 3 703 97 
z
M 1959 2075 
Q 2384 2075 2632 2365 
Q 2881 2656 2881 3163 
Q 2881 3666 2632 3958 
Q 2384 4250 1959 4250 
Q 1534 4250 1286 3958 
Q 1038 3666 1038 3163 
Q 1038 2656 1286 2365 
Q 1534 2075 1959 2075 
z
" id="DejaVuSans-39" transform="scale(0.015625)"/>
       </defs>
       <use xlink:href="#DejaVuSans-39"/>
       <use x="63.623047" xlink:href="#DejaVuSans-30"/>
       <use x="127.246094" xlink:href="#DejaVuSans-30"/>
       <use x="190.869141" xlink:href="#DejaVuSans-30"/>
       <use x="254.492188" xlink:href="#DejaVuSans-30"/>
      </g>
     </g>
    </g>
    <g id="ytick_4">
     <g id="line2d_10">
      <g>
       <use style="stroke:#000000;stroke-width:0.8;" x="57.6" xlink:href="#mff73290138" y="163.732789"/>
      </g>
     </g>
     <g id="text_11">
      <!-- 92500 -->
      <g transform="translate(18.7875 167.532007)scale(0.1 -0.1)">
       <use xlink:href="#DejaVuSans-39"/>
       <use x="63.623047" xlink:href="#DejaVuSans-32"/>
       <use x="127.246094" xlink:href="#DejaVuSans-35"/>
       <use x="190.869141" xlink:href="#DejaVuSans-30"/>
       <use x="254.492188" xlink:href="#DejaVuSans-30"/>
      </g>
     </g>
    </g>
    <g id="ytick_5">
     <g id="line2d_11">
      <g>
       <use style="stroke:#000000;stroke-width:0.8;" x="57.6" xlink:href="#mff73290138" y="135.10519"/>
      </g>
     </g>
     <g id="text_12">
      <!-- 95000 -->
      <g transform="translate(18.7875 138.904409)scale(0.1 -0.1)">
       <use xlink:href="#DejaVuSans-39"/>
       <use x="63.623047" xlink:href="#DejaVuSans-35"/>
       <use x="127.246094" xlink:href="#DejaVuSans-30"/>
       <use x="190.869141" xlink:href="#DejaVuSans-30"/>
       <use x="254.492188" xlink:href="#DejaVuSans-30"/>
      </g>
     </g>
    </g>
    <g id="ytick_6">
     <g id="line2d_12">
      <g>
       <use style="stroke:#000000;stroke-width:0.8;" x="57.6" xlink:href="#mff73290138" y="106.477592"/>
      </g>
     </g>
     <g id="text_13">
      <!-- 97500 -->
      <g transform="translate(18.7875 110.27681)scale(0.1 -0.1)">
       <use xlink:href="#DejaVuSans-39"/>
       <use x="63.623047" xlink:href="#DejaVuSans-37"/>
       <use x="127.246094" xlink:href="#DejaVuSans-35"/>
       <use x="190.869141" xlink:href="#DejaVuSans-30"/>
       <use x="254.492188" xlink:href="#DejaVuSans-30"/>
      </g>
     </g>
    </g>
    <g id="ytick_7">
     <g id="line2d_13">
      <g>
       <use style="stroke:#000000;stroke-width:0.8;" x="57.6" xlink:href="#mff73290138" y="77.849993"/>
      </g>
     </g>
     <g id="text_14">
      <!-- 100000 -->
      <g transform="translate(12.425 81.649212)scale(0.1 -0.1)">
       <use xlink:href="#DejaVuSans-31"/>
       <use x="63.623047" xlink:href="#DejaVuSans-30"/>
       <use x="127.246094" xlink:href="#DejaVuSans-30"/>
       <use x="190.869141" xlink:href="#DejaVuSans-30"/>
       <use x="254.492188" xlink:href="#DejaVuSans-30"/>
       <use x="318.115234" xlink:href="#DejaVuSans-30"/>
      </g>
     </g>
    </g>
    <g id="ytick_8">
     <g id="line2d_14">
      <g>
       <use style="stroke:#000000;stroke-width:0.8;" x="57.6" xlink:href="#mff73290138" y="49.222395"/>
      </g>
     </g>
     <g id="text_15">
      <!-- 102500 -->
      <g transform="translate(12.425 53.021613)scale(0.1 -0.1)">
       <use xlink:href="#DejaVuSans-31"/>
       <use x="63.623047" xlink:href="#DejaVuSans-30"/>
       <use x="127.246094" xlink:href="#DejaVuSans-32"/>
       <use x="190.869141" xlink:href="#DejaVuSans-35"/>
       <use x="254.492188" xlink:href="#DejaVuSans-30"/>
       <use x="318.115234" xlink:href="#DejaVuSans-30"/>
      </g>
     </g>
    </g>
   </g>
   <g id="line2d_15">
    <path clip-path="url(#pbe0b14ff21)" d="M 73.832727 76.667144 
L 75.687896 78.827911 
L 81.253403 81.770902 
L 83.108571 80.735415 
L 84.96374 77.780047 
L 88.674078 77.057284 
L 94.239584 89.599114 
L 96.094753 110.630584 
L 97.949922 123.794262 
L 99.805091 106.912885 
L 101.66026 116.658215 
L 107.225766 102.959895 
L 109.080935 80.103382 
L 110.936104 77.271056 
L 112.791273 84.933225 
L 114.646442 74.380698 
L 120.211948 84.983045 
L 122.067117 92.89543 
L 123.922286 75.282753 
L 125.777455 85.175642 
L 127.632623 97.99136 
L 133.19813 111.685859 
L 135.053299 92.858771 
L 136.908468 81.109784 
L 138.763636 74.39973 
L 146.184312 58.406093 
L 148.039481 59.187682 
L 149.894649 57.628487 
L 151.749818 60.853491 
L 153.604987 63.649812 
L 159.170494 57.093311 
L 161.025662 56.907573 
L 162.880831 79.448576 
L 164.736 80.647758 
L 166.591169 85.320227 
L 172.156675 87.086026 
L 174.011844 77.01071 
L 175.867013 73.003815 
L 177.722182 89.054134 
L 179.577351 88.59551 
L 186.998026 109.228794 
L 188.853195 120.474621 
L 190.708364 132.986202 
L 192.563532 153.905521 
L 198.129039 149.645184 
L 199.984208 162.707204 
L 201.839377 164.933314 
L 203.694545 170.333159 
L 205.549714 144.8771 
L 211.115221 125.015584 
L 212.97039 117.508678 
L 214.825558 107.104274 
L 216.680727 133.344181 
L 218.535896 128.213412 
L 224.101403 131.601104 
L 225.956571 122.916974 
L 227.81174 106.860625 
L 229.666909 126.581101 
L 231.522078 148.490178 
L 237.087584 151.332603 
L 238.942753 134.053459 
L 240.797922 133.443488 
L 242.653091 155.659789 
L 244.50826 163.135635 
L 251.928935 174.107317 
L 253.784104 193.448122 
L 255.639273 177.4811 
L 257.494442 154.805101 
L 263.059948 157.098283 
L 264.915117 172.984921 
L 266.770286 154.519903 
L 268.625455 159.788822 
L 270.480623 168.272614 
L 276.04613 198.676856 
L 277.901299 206.841901 
L 279.756468 180.239985 
L 281.611636 184.958645 
L 283.466805 197.716053 
L 289.032312 205.671648 
L 290.887481 182.266832 
L 292.742649 159.817593 
L 294.597818 146.563913 
L 296.452987 136.069128 
L 302.018494 136.84614 
L 303.873662 124.193399 
L 305.728831 137.435338 
L 307.584 123.430817 
L 309.439169 118.508038 
L 315.004675 109.973796 
L 316.859844 96.075542 
L 318.715013 103.740606 
L 320.570182 120.080117 
L 322.425351 118.167476 
L 327.990857 108.034011 
L 329.846026 122.258801 
L 331.701195 132.922528 
L 333.556364 128.2992 
L 335.411532 130.923796 
L 340.977039 149.826393 
L 342.832208 153.485464 
L 344.687377 141.017299 
L 346.542545 154.367661 
L 353.963221 154.170502 
L 355.81839 136.977207 
L 357.673558 137.844421 
L 359.528727 153.441385 
L 361.383896 183.442452 
L 366.949403 176.674691 
L 368.804571 207.004065 
L 370.65974 204.264493 
L 372.514909 179.019295 
L 374.370078 216.437973 
L 379.935584 210.885057 
L 381.790753 206.523272 
L 383.645922 175.479471 
L 385.501091 212.842831 
L 387.35626 218.432602 
L 392.921766 250.680678 
L 394.776935 247.918169 
L 396.632104 264.133325 
L 398.487273 248.120266 
" style="fill:none;stroke:#0000ff;stroke-linecap:square;stroke-opacity:0.9;stroke-width:2;"/>
   </g>
   <g id="line2d_16">
    <path clip-path="url(#pbe0b14ff21)" d="M 73.832727 76.667144 
L 75.687896 79.135458 
L 81.253403 81.430233 
L 83.108571 80.493902 
L 84.96374 77.28829 
L 88.674078 102.477633 
L 94.239584 88.586053 
L 96.094753 110.200785 
L 97.949922 123.999803 
L 99.805091 106.703204 
L 101.66026 116.839454 
L 107.225766 103.936801 
L 109.080935 80.771223 
L 110.936104 76.766944 
L 112.791273 84.430363 
L 114.646442 74.388345 
L 120.211948 85.625492 
L 122.067117 92.948782 
L 123.922286 75.601099 
L 125.777455 85.187257 
L 127.632623 98.080178 
L 133.19813 111.936486 
L 135.053299 92.854913 
L 136.908468 81.961395 
L 138.763636 74.804679 
L 146.184312 58.45935 
L 148.039481 59.42332 
L 149.894649 57.677026 
L 151.749818 60.747091 
L 153.604987 64.199815 
L 159.170494 57.232052 
L 161.025662 57.816504 
L 162.880831 79.435081 
L 164.736 81.374092 
L 166.591169 85.690949 
L 172.156675 87.119122 
L 174.011844 77.136755 
L 175.867013 73.739013 
L 177.722182 88.813075 
L 179.577351 88.452944 
L 186.998026 108.942078 
L 188.853195 120.853975 
L 190.708364 133.140184 
L 192.563532 154.57144 
L 198.129039 149.651109 
L 199.984208 161.96278 
L 201.839377 165.623073 
L 203.694545 170.646243 
L 205.549714 144.1625 
L 211.115221 124.730173 
L 212.97039 117.316081 
L 214.825558 107.075197 
L 216.680727 133.007906 
L 218.535896 128.141273 
L 224.101403 130.991137 
L 225.956571 123.050544 
L 227.81174 106.91451 
L 229.666909 126.809335 
L 231.522078 147.540156 
L 237.087584 151.090182 
L 238.942753 134.067809 
L 240.797922 132.802306 
L 242.653091 155.792765 
L 244.50826 162.969038 
L 251.928935 175.148925 
L 253.784104 193.789848 
L 255.639273 177.631662 
L 257.494442 155.09224 
L 263.059948 157.584925 
L 264.915117 174.115412 
L 266.770286 154.742049 
L 268.625455 159.893487 
L 270.480623 168.500176 
L 276.04613 199.167691 
L 277.901299 207.327993 
L 279.756468 180.370352 
L 281.611636 184.491907 
L 283.466805 197.977817 
L 289.032312 204.743643 
L 290.887481 182.741004 
L 292.742649 160.095951 
L 294.597818 146.883022 
L 296.452987 135.381781 
L 302.018494 136.653292 
L 303.873662 123.898549 
L 305.728831 137.975478 
L 307.584 123.994695 
L 309.439169 118.668499 
L 315.004675 110.61911 
L 316.859844 95.927141 
L 318.715013 103.633972 
L 320.570182 120.587472 
L 322.425351 117.441574 
L 327.990857 107.613009 
L 329.846026 122.291444 
L 331.701195 133.221828 
L 333.556364 127.73139 
L 335.411532 130.076386 
L 340.977039 148.938217 
L 342.832208 153.769212 
L 344.687377 140.797617 
L 346.542545 154.874115 
L 353.963221 154.526326 
L 355.81839 136.436712 
L 357.673558 137.95359 
L 359.528727 153.849857 
L 361.383896 183.566708 
L 366.949403 177.134732 
L 368.804571 207.770966 
L 370.65974 204.385028 
L 372.514909 179.280213 
L 374.370078 217.963947 
L 379.935584 211.803802 
L 381.790753 207.153479 
L 383.645922 175.538315 
L 385.501091 213.246796 
L 387.35626 219.254316 
L 392.921766 251.465237 
L 394.776935 248.652678 
L 396.632104 264.707952 
L 398.487273 265.147372 
" style="fill:none;stroke:#ff0000;stroke-linecap:square;stroke-opacity:0.9;stroke-width:2;"/>
   </g>
   <g id="line2d_17">
    <path clip-path="url(#pbe0b14ff21)" d="M 73.832727 76.667144 
L 75.687896 78.097731 
L 81.253403 82.323658 
L 83.108571 80.035223 
L 84.96374 76.926627 
L 88.674078 102.924392 
L 94.239584 89.35049 
L 96.094753 110.556053 
L 97.949922 123.313393 
L 99.805091 106.294802 
L 101.66026 116.121617 
L 107.225766 103.241329 
L 109.080935 80.544046 
L 110.936104 77.558025 
L 112.791273 84.333869 
L 114.646442 74.198667 
L 120.211948 84.733996 
L 122.067117 93.440931 
L 123.922286 74.858204 
L 125.777455 85.557525 
L 127.632623 98.570224 
L 133.19813 111.629772 
L 135.053299 92.999149 
L 136.908468 81.392607 
L 138.763636 75.030434 
L 146.184312 58.03803 
L 148.039481 59.129826 
L 149.894649 57.407286 
L 151.749818 60.95947 
L 153.604987 64.5439 
L 159.170494 57.028675 
L 161.025662 57.022686 
L 162.880831 80.309756 
L 164.736 80.674807 
L 166.591169 85.011257 
L 172.156675 86.674863 
L 174.011844 76.814145 
L 175.867013 73.020735 
L 177.722182 88.699599 
L 179.577351 88.690368 
L 186.998026 108.626627 
L 188.853195 120.435024 
L 190.708364 133.137961 
L 192.563532 154.247363 
L 198.129039 150.343616 
L 199.984208 162.587725 
L 201.839377 164.649017 
L 203.694545 170.517059 
L 205.549714 145.011262 
L 211.115221 124.693918 
L 212.97039 117.72954 
L 214.825558 106.978032 
L 216.680727 132.447393 
L 218.535896 127.120606 
L 224.101403 131.829945 
L 225.956571 122.089137 
L 227.81174 106.492575 
L 229.666909 125.780521 
L 231.522078 147.818068 
L 237.087584 151.399441 
L 238.942753 134.436136 
L 240.797922 132.898547 
L 242.653091 155.778843 
L 244.50826 163.541254 
L 251.928935 174.569769 
L 253.784104 193.866093 
L 255.639273 177.559393 
L 257.494442 154.751643 
L 263.059948 157.839298 
L 264.915117 173.542298 
L 266.770286 153.808306 
L 268.625455 159.871298 
L 270.480623 168.026498 
L 276.04613 198.752769 
L 277.901299 206.649215 
L 279.756468 180.162419 
L 281.611636 184.257718 
L 283.466805 197.521174 
L 289.032312 205.582993 
L 290.887481 182.305092 
L 292.742649 160.457227 
L 294.597818 146.197552 
L 296.452987 136.017524 
L 302.018494 136.822848 
L 303.873662 124.356645 
L 305.728831 137.78774 
L 307.584 123.463505 
L 309.439169 118.18418 
L 315.004675 110.826562 
L 316.859844 96.72849 
L 318.715013 103.306972 
L 320.570182 120.558831 
L 322.425351 118.095968 
L 327.990857 107.822613 
L 329.846026 121.760954 
L 331.701195 133.633191 
L 333.556364 127.648757 
L 335.411532 130.568764 
L 340.977039 148.940907 
L 342.832208 153.552504 
L 344.687377 141.576005 
L 346.542545 154.1531 
L 353.963221 153.925527 
L 355.81839 137.398226 
L 357.673558 138.195888 
L 359.528727 153.545212 
L 361.383896 183.374337 
L 366.949403 177.578338 
L 368.804571 207.682189 
L 370.65974 204.796356 
L 372.514909 179.324593 
L 374.370078 217.636442 
L 379.935584 211.381747 
L 381.790753 206.970132 
L 383.645922 176.351474 
L 385.501091 213.662232 
L 387.35626 218.727004 
L 392.921766 251.158171 
L 394.776935 249.356809 
L 396.632104 264.867643 
L 398.487273 265.024202 
" style="fill:none;stroke:#008000;stroke-linecap:square;stroke-opacity:0.9;stroke-width:2;"/>
   </g>
   <g id="line2d_18">
    <path clip-path="url(#pbe0b14ff21)" d="M 73.832727 76.667144 
L 75.687896 79.083044 
L 81.253403 81.533289 
L 83.108571 80.189009 
L 84.96374 77.149985 
L 88.674078 102.354511 
L 94.239584 89.454035 
L 96.094753 110.472337 
L 97.949922 122.943829 
L 99.805091 106.852693 
L 101.66026 116.171493 
L 107.225766 102.949598 
L 109.080935 79.848078 
L 110.936104 76.891811 
L 112.791273 84.464186 
L 114.646442 74.344937 
L 120.211948 85.437065 
L 122.067117 92.801307 
L 123.922286 75.18654 
L 125.777455 85.886983 
L 127.632623 98.50536 
L 133.19813 112.113307 
L 135.053299 93.234851 
L 136.908468 81.783142 
L 138.763636 74.532968 
L 146.184312 57.645336 
L 148.039481 58.710974 
L 149.894649 57.791629 
L 151.749818 60.703565 
L 153.604987 63.907098 
L 159.170494 57.035988 
L 161.025662 57.185262 
L 162.880831 79.528508 
L 164.736 80.641831 
L 166.591169 85.245622 
L 172.156675 87.113141 
L 174.011844 77.019105 
L 175.867013 73.019255 
L 177.722182 89.578404 
L 179.577351 89.103365 
L 186.998026 108.72831 
L 188.853195 120.046183 
L 190.708364 132.463423 
L 192.563532 154.139887 
L 198.129039 149.499642 
L 199.984208 162.666998 
L 201.839377 164.913856 
L 203.694545 170.926025 
L 205.549714 143.927837 
L 211.115221 125.502026 
L 212.97039 117.820384 
L 214.825558 107.188844 
L 216.680727 132.936152 
L 218.535896 127.19107 
L 224.101403 131.592123 
L 225.956571 122.44886 
L 227.81174 106.478558 
L 229.666909 126.039393 
L 231.522078 147.568963 
L 237.087584 151.813815 
L 238.942753 134.430784 
L 240.797922 132.934151 
L 242.653091 156.15749 
L 244.50826 162.8301 
L 251.928935 174.66025 
L 253.784104 193.364445 
L 255.639273 177.322442 
L 257.494442 154.622894 
L 263.059948 157.014222 
L 264.915117 173.75936 
L 266.770286 153.985027 
L 268.625455 159.949301 
L 270.480623 167.842922 
L 276.04613 199.22062 
L 277.901299 206.718918 
L 279.756468 180.394524 
L 281.611636 184.118223 
L 283.466805 197.768475 
L 289.032312 205.133944 
L 290.887481 182.857895 
L 292.742649 159.58695 
L 294.597818 146.041949 
L 296.452987 136.285871 
L 302.018494 136.297875 
L 303.873662 123.779044 
L 305.728831 138.421369 
L 307.584 124.002918 
L 309.439169 118.295758 
L 315.004675 110.106473 
L 316.859844 96.949217 
L 318.715013 104.111286 
L 320.570182 120.419681 
L 322.425351 117.752156 
L 327.990857 108.431109 
L 329.846026 121.771642 
L 331.701195 132.980322 
L 333.556364 127.837049 
L 335.411532 130.450782 
L 340.977039 149.881833 
L 342.832208 152.972088 
L 344.687377 140.925226 
L 346.542545 154.5465 
L 353.963221 153.932678 
L 355.81839 136.587269 
L 357.673558 137.721524 
L 359.528727 154.02825 
L 361.383896 183.267192 
L 366.949403 177.773278 
L 368.804571 207.22025 
L 370.65974 204.904356 
L 372.514909 178.991917 
L 374.370078 218.167432 
L 379.935584 211.657826 
L 381.790753 207.2966 
L 383.645922 175.818203 
L 385.501091 213.546161 
L 387.35626 218.479767 
L 392.921766 251.248849 
L 394.776935 249.099111 
L 396.632104 265.258923 
L 398.487273 265.797818 
" style="fill:none;stroke:#ec5283;stroke-linecap:square;stroke-width:2;"/>
   </g>
   <g id="line2d_19">
    <path clip-path="url(#pbe0b14ff21)" d="M 73.832727 76.667144 
L 75.687896 78.495166 
L 81.253403 82.005759 
L 83.108571 80.005378 
L 84.96374 78.012086 
L 88.674078 102.666126 
L 94.239584 88.579118 
L 96.094753 110.904857 
L 97.949922 124.073278 
L 99.805091 107.017593 
L 101.66026 116.414286 
L 107.225766 102.92037 
L 109.080935 80.611995 
L 110.936104 77.284612 
L 112.791273 85.089277 
L 114.646442 74.346217 
L 120.211948 85.077164 
L 122.067117 92.890329 
L 123.922286 74.76228 
L 125.777455 85.441012 
L 127.632623 97.934902 
L 133.19813 111.912594 
L 135.053299 93.302962 
L 136.908468 81.488105 
L 138.763636 74.52623 
L 146.184312 57.793789 
L 148.039481 59.706763 
L 149.894649 57.977619 
L 151.749818 60.712202 
L 153.604987 63.795118 
L 159.170494 57.497083 
L 161.025662 57.193754 
L 162.880831 79.510295 
L 164.736 80.953527 
L 166.591169 85.590918 
L 172.156675 87.024801 
L 174.011844 76.313605 
L 175.867013 73.501648 
L 177.722182 89.694329 
L 179.577351 89.439095 
L 186.998026 108.395568 
L 188.853195 119.978252 
L 190.708364 132.537267 
L 192.563532 154.466037 
L 198.129039 149.370844 
L 199.984208 162.651917 
L 201.839377 165.500656 
L 203.694545 170.227634 
L 205.549714 144.31482 
L 211.115221 124.510086 
L 212.97039 117.105222 
L 214.825558 106.529125 
L 216.680727 132.873525 
L 218.535896 127.143936 
L 224.101403 131.115176 
L 225.956571 122.475183 
L 227.81174 106.989359 
L 229.666909 126.624125 
L 231.522078 148.113357 
L 237.087584 152.079803 
L 238.942753 134.035859 
L 240.797922 133.310199 
L 242.653091 156.236878 
L 244.50826 162.790556 
L 251.928935 174.820867 
L 253.784104 193.556025 
L 255.639273 177.48017 
L 257.494442 154.32245 
L 263.059948 157.309266 
L 264.915117 173.198382 
L 266.770286 154.648597 
L 268.625455 159.917947 
L 270.480623 168.510449 
L 276.04613 199.241055 
L 277.901299 206.888937 
L 279.756468 179.832219 
L 281.611636 184.965514 
L 283.466805 198.123138 
L 289.032312 205.599265 
L 290.887481 182.741152 
L 292.742649 159.391885 
L 294.597818 147.060659 
L 296.452987 135.945292 
L 302.018494 136.69396 
L 303.873662 123.938697 
L 305.728831 137.561692 
L 307.584 123.663352 
L 309.439169 118.379919 
L 315.004675 111.06557 
L 316.859844 96.985485 
L 318.715013 103.28551 
L 320.570182 120.981142 
L 322.425351 117.300801 
L 327.990857 107.875335 
L 329.846026 122.382679 
L 331.701195 132.880759 
L 333.556364 127.391127 
L 335.411532 130.373526 
L 340.977039 149.506243 
L 342.832208 153.185662 
L 344.687377 141.502939 
L 346.542545 154.035308 
L 353.963221 154.134089 
L 355.81839 136.49435 
L 357.673558 137.478929 
L 359.528727 153.269811 
L 361.383896 182.991822 
L 366.949403 177.602554 
L 368.804571 207.320659 
L 370.65974 205.172041 
L 372.514909 178.885709 
L 374.370078 218.219232 
L 379.935584 211.458192 
L 381.790753 206.645841 
L 383.645922 175.874867 
L 385.501091 213.078062 
L 387.35626 219.370606 
L 392.921766 251.07454 
L 394.776935 249.431031 
L 396.632104 265.05516 
L 398.487273 265.084386 
" style="fill:none;stroke:#00ff00;stroke-linecap:square;stroke-opacity:0.9;stroke-width:2;"/>
   </g>
   <g id="line2d_20">
    <path clip-path="url(#pbe0b14ff21)" d="M 73.832727 76.667144 
L 75.687896 78.264682 
L 81.253403 82.093646 
L 83.108571 80.484539 
L 84.96374 77.536758 
L 88.674078 102.855497 
L 94.239584 89.441123 
L 96.094753 110.690614 
L 97.949922 123.157147 
L 99.805091 106.390212 
L 101.66026 116.608041 
L 107.225766 103.751232 
L 109.080935 80.487866 
L 110.936104 77.055372 
L 112.791273 84.416124 
L 114.646442 73.751307 
L 120.211948 84.122968 
L 122.067117 91.340535 
L 123.922286 73.55204 
L 125.777455 83.986527 
L 127.632623 95.647242 
L 133.19813 108.810088 
L 135.053299 88.715114 
L 136.908468 77.314616 
L 138.763636 70.462323 
L 146.184312 53.547387 
L 148.039481 54.87678 
L 149.894649 53.676919 
L 151.749818 56.175191 
L 153.604987 59.945432 
L 159.170494 52.154182 
L 161.025662 52.709012 
L 162.880831 75.328981 
L 164.736 76.434866 
L 166.591169 80.991772 
L 172.156675 82.542955 
L 174.011844 72.245722 
L 175.867013 69.113776 
L 177.722182 85.023896 
L 179.577351 84.46923 
L 186.998026 104.259033 
L 188.853195 115.695863 
L 190.708364 127.794856 
L 192.563532 149.52254 
L 198.129039 145.217883 
L 199.984208 157.613161 
L 201.839377 160.283551 
L 203.694545 166.144888 
L 205.549714 140.065542 
L 211.115221 119.823409 
L 212.97039 112.424286 
L 214.825558 101.965 
L 216.680727 127.831826 
L 218.535896 122.565023 
L 224.101403 126.820399 
L 225.956571 117.410543 
L 227.81174 101.359322 
L 229.666909 121.192301 
L 231.522078 142.81698 
L 237.087584 147.116236 
L 238.942753 130.007773 
L 240.797922 128.068592 
L 242.653091 151.42115 
L 244.50826 158.33988 
L 251.928935 170.366694 
L 253.784104 189.196957 
L 255.639273 172.425551 
L 257.494442 149.929141 
L 263.059948 151.892246 
L 264.915117 168.957821 
L 266.770286 149.094867 
L 268.625455 154.662785 
L 270.480623 163.62942 
L 276.04613 194.282151 
L 277.901299 201.691812 
L 279.756468 174.721311 
L 281.611636 179.702277 
L 283.466805 193.184574 
L 289.032312 200.176151 
L 290.887481 177.406987 
L 292.742649 154.786281 
L 294.597818 141.62146 
L 296.452987 129.719203 
L 302.018494 129.350712 
L 303.873662 116.428409 
L 305.728831 130.501482 
L 307.584 114.349611 
L 309.439169 109.156637 
L 315.004675 100.66576 
L 316.859844 86.3185 
L 318.715013 94.616519 
L 320.570182 110.733408 
L 322.425351 108.486516 
L 327.990857 98.152817 
L 329.846026 112.426129 
L 331.701195 123.586151 
L 333.556364 118.874056 
L 335.411532 121.115382 
L 340.977039 140.70975 
L 342.832208 143.751027 
L 344.687377 131.639086 
L 346.542545 145.571923 
L 353.963221 144.359659 
L 355.81839 128.005966 
L 357.673558 128.59955 
L 359.528727 144.79806 
L 361.383896 174.556335 
L 366.949403 167.640049 
L 368.804571 198.182247 
L 370.65974 195.619057 
L 372.514909 169.992319 
L 374.370078 209.270808 
L 379.935584 202.160987 
L 381.790753 197.566743 
L 383.645922 167.191966 
L 385.501091 204.633241 
L 387.35626 210.575181 
L 392.921766 242.311361 
L 394.776935 240.700838 
L 396.632104 256.274987 
L 398.487273 257.03252 
" style="fill:none;stroke:#a5b9cf;stroke-linecap:square;stroke-width:2;"/>
   </g>
   <g id="patch_3">
    <path d="M 57.6 276.48 
L 57.6 41.472 
" style="fill:none;stroke:#000000;stroke-linecap:square;stroke-linejoin:miter;stroke-width:0.8;"/>
   </g>
   <g id="patch_4">
    <path d="M 414.72 276.48 
L 414.72 41.472 
" style="fill:none;stroke:#000000;stroke-linecap:square;stroke-linejoin:miter;stroke-width:0.8;"/>
   </g>
   <g id="patch_5">
    <path d="M 57.6 276.48 
L 414.72 276.48 
" style="fill:none;stroke:#000000;stroke-linecap:square;stroke-linejoin:miter;stroke-width:0.8;"/>
   </g>
   <g id="patch_6">
    <path d="M 57.6 41.472 
L 414.72 41.472 
" style="fill:none;stroke:#000000;stroke-linecap:square;stroke-linejoin:miter;stroke-width:0.8;"/>
   </g>
   <g id="text_16">
    <!-- SP500 -->
    <g transform="translate(217.280625 22.034625)scale(0.12 -0.12)">
     <defs>
      <path d="M 3425 4513 
L 3425 3897 
Q 3066 4069 2747 4153 
Q 2428 4238 2131 4238 
Q 1616 4238 1336 4038 
Q 1056 3838 1056 3469 
Q 1056 3159 1242 3001 
Q 1428 2844 1947 2747 
L 2328 2669 
Q 3034 2534 3370 2195 
Q 3706 1856 3706 1288 
Q 3706 609 3251 259 
Q 2797 -91 1919 -91 
Q 1588 -91 1214 -16 
Q 841 59 441 206 
L 441 856 
Q 825 641 1194 531 
Q 1563 422 1919 422 
Q 2459 422 2753 634 
Q 3047 847 3047 1241 
Q 3047 1584 2836 1778 
Q 2625 1972 2144 2069 
L 1759 2144 
Q 1053 2284 737 2584 
Q 422 2884 422 3419 
Q 422 4038 858 4394 
Q 1294 4750 2059 4750 
Q 2388 4750 2728 4690 
Q 3069 4631 3425 4513 
z
" id="DejaVuSans-53" transform="scale(0.015625)"/>
      <path d="M 1259 4147 
L 1259 2394 
L 2053 2394 
Q 2494 2394 2734 2622 
Q 2975 2850 2975 3272 
Q 2975 3691 2734 3919 
Q 2494 4147 2053 4147 
L 1259 4147 
z
M 628 4666 
L 2053 4666 
Q 2838 4666 3239 4311 
Q 3641 3956 3641 3272 
Q 3641 2581 3239 2228 
Q 2838 1875 2053 1875 
L 1259 1875 
L 1259 0 
L 628 0 
L 628 4666 
z
" id="DejaVuSans-50" transform="scale(0.015625)"/>
     </defs>
     <use xlink:href="#DejaVuSans-53"/>
     <use x="63.476562" xlink:href="#DejaVuSans-50"/>
     <use x="123.779297" xlink:href="#DejaVuSans-35"/>
     <use x="187.402344" xlink:href="#DejaVuSans-30"/>
     <use x="251.025391" xlink:href="#DejaVuSans-30"/>
    </g>
    <!-- daily_report -->
    <g transform="translate(200.466563 35.472)scale(0.12 -0.12)">
     <defs>
      <path d="M 603 3500 
L 1178 3500 
L 1178 0 
L 603 0 
L 603 3500 
z
M 603 4863 
L 1178 4863 
L 1178 4134 
L 603 4134 
L 603 4863 
z
" id="DejaVuSans-69" transform="scale(0.015625)"/>
      <path d="M 603 4863 
L 1178 4863 
L 1178 0 
L 603 0 
L 603 4863 
z
" id="DejaVuSans-6c" transform="scale(0.015625)"/>
      <path d="M 2059 -325 
Q 1816 -950 1584 -1140 
Q 1353 -1331 966 -1331 
L 506 -1331 
L 506 -850 
L 844 -850 
Q 1081 -850 1212 -737 
Q 1344 -625 1503 -206 
L 1606 56 
L 191 3500 
L 800 3500 
L 1894 763 
L 2988 3500 
L 3597 3500 
L 2059 -325 
z
" id="DejaVuSans-79" transform="scale(0.015625)"/>
      <path d="M 3263 -1063 
L 3263 -1509 
L -63 -1509 
L -63 -1063 
L 3263 -1063 
z
" id="DejaVuSans-5f" transform="scale(0.015625)"/>
      <path d="M 2631 2963 
Q 2534 3019 2420 3045 
Q 2306 3072 2169 3072 
Q 1681 3072 1420 2755 
Q 1159 2438 1159 1844 
L 1159 0 
L 581 0 
L 581 3500 
L 1159 3500 
L 1159 2956 
Q 1341 3275 1631 3429 
Q 1922 3584 2338 3584 
Q 2397 3584 2469 3576 
Q 2541 3569 2628 3553 
L 2631 2963 
z
" id="DejaVuSans-72" transform="scale(0.015625)"/>
      <path d="M 1159 525 
L 1159 -1331 
L 581 -1331 
L 581 3500 
L 1159 3500 
L 1159 2969 
Q 1341 3281 1617 3432 
Q 1894 3584 2278 3584 
Q 2916 3584 3314 3078 
Q 3713 2572 3713 1747 
Q 3713 922 3314 415 
Q 2916 -91 2278 -91 
Q 1894 -91 1617 61 
Q 1341 213 1159 525 
z
M 3116 1747 
Q 3116 2381 2855 2742 
Q 2594 3103 2138 3103 
Q 1681 3103 1420 2742 
Q 1159 2381 1159 1747 
Q 1159 1113 1420 752 
Q 1681 391 2138 391 
Q 2594 391 2855 752 
Q 3116 1113 3116 1747 
z
" id="DejaVuSans-70" transform="scale(0.015625)"/>
      <path d="M 1959 3097 
Q 1497 3097 1228 2736 
Q 959 2375 959 1747 
Q 959 1119 1226 758 
Q 1494 397 1959 397 
Q 2419 397 2687 759 
Q 2956 1122 2956 1747 
Q 2956 2369 2687 2733 
Q 2419 3097 1959 3097 
z
M 1959 3584 
Q 2709 3584 3137 3096 
Q 3566 2609 3566 1747 
Q 3566 888 3137 398 
Q 2709 -91 1959 -91 
Q 1206 -91 779 398 
Q 353 888 353 1747 
Q 353 2609 779 3096 
Q 1206 3584 1959 3584 
z
" id="DejaVuSans-6f" transform="scale(0.015625)"/>
     </defs>
     <use xlink:href="#DejaVuSans-64"/>
     <use x="63.476562" xlink:href="#DejaVuSans-61"/>
     <use x="124.755859" xlink:href="#DejaVuSans-69"/>
     <use x="152.539062" xlink:href="#DejaVuSans-6c"/>
     <use x="180.322266" xlink:href="#DejaVuSans-79"/>
     <use x="239.501953" xlink:href="#DejaVuSans-5f"/>
     <use x="289.501953" xlink:href="#DejaVuSans-72"/>
     <use x="328.365234" xlink:href="#DejaVuSans-65"/>
     <use x="389.888672" xlink:href="#DejaVuSans-70"/>
     <use x="453.365234" xlink:href="#DejaVuSans-6f"/>
     <use x="514.546875" xlink:href="#DejaVuSans-72"/>
     <use x="555.660156" xlink:href="#DejaVuSans-74"/>
    </g>
   </g>
   <g id="legend_1">
    <g id="patch_7">
     <path d="M 64.6 271.48 
L 178.64375 271.48 
Q 180.64375 271.48 180.64375 269.48 
L 180.64375 182.41125 
Q 180.64375 180.41125 178.64375 180.41125 
L 64.6 180.41125 
Q 62.6 180.41125 62.6 182.41125 
L 62.6 269.48 
Q 62.6 271.48 64.6 271.48 
z
" style="fill:#ffffff;opacity:0.8;stroke:#cccccc;stroke-linejoin:miter;"/>
    </g>
    <g id="line2d_21">
     <path d="M 66.6 188.509687 
L 86.6 188.509687 
" style="fill:none;stroke:#0000ff;stroke-linecap:square;stroke-opacity:0.9;stroke-width:2;"/>
    </g>
    <g id="line2d_22"/>
    <g id="text_17">
     <!-- alpaca -->
     <g transform="translate(94.6 192.009687)scale(0.1 -0.1)">
      <defs>
       <path d="M 3122 3366 
L 3122 2828 
Q 2878 2963 2633 3030 
Q 2388 3097 2138 3097 
Q 1578 3097 1268 2742 
Q 959 2388 959 1747 
Q 959 1106 1268 751 
Q 1578 397 2138 397 
Q 2388 397 2633 464 
Q 2878 531 3122 666 
L 3122 134 
Q 2881 22 2623 -34 
Q 2366 -91 2075 -91 
Q 1284 -91 818 406 
Q 353 903 353 1747 
Q 353 2603 823 3093 
Q 1294 3584 2113 3584 
Q 2378 3584 2631 3529 
Q 2884 3475 3122 3366 
z
" id="DejaVuSans-63" transform="scale(0.015625)"/>
      </defs>
      <use xlink:href="#DejaVuSans-61"/>
      <use x="61.279297" xlink:href="#DejaVuSans-6c"/>
      <use x="89.0625" xlink:href="#DejaVuSans-70"/>
      <use x="152.539062" xlink:href="#DejaVuSans-61"/>
      <use x="213.818359" xlink:href="#DejaVuSans-63"/>
      <use x="268.798828" xlink:href="#DejaVuSans-61"/>
     </g>
    </g>
    <g id="line2d_23">
     <path d="M 66.6 203.187812 
L 86.6 203.187812 
" style="fill:none;stroke:#ff0000;stroke-linecap:square;stroke-opacity:0.9;stroke-width:2;"/>
    </g>
    <g id="line2d_24"/>
    <g id="text_18">
     <!-- mattress -->
     <g transform="translate(94.6 206.687812)scale(0.1 -0.1)">
      <defs>
       <path d="M 3328 2828 
Q 3544 3216 3844 3400 
Q 4144 3584 4550 3584 
Q 5097 3584 5394 3201 
Q 5691 2819 5691 2113 
L 5691 0 
L 5113 0 
L 5113 2094 
Q 5113 2597 4934 2840 
Q 4756 3084 4391 3084 
Q 3944 3084 3684 2787 
Q 3425 2491 3425 1978 
L 3425 0 
L 2847 0 
L 2847 2094 
Q 2847 2600 2669 2842 
Q 2491 3084 2119 3084 
Q 1678 3084 1418 2786 
Q 1159 2488 1159 1978 
L 1159 0 
L 581 0 
L 581 3500 
L 1159 3500 
L 1159 2956 
Q 1356 3278 1631 3431 
Q 1906 3584 2284 3584 
Q 2666 3584 2933 3390 
Q 3200 3197 3328 2828 
z
" id="DejaVuSans-6d" transform="scale(0.015625)"/>
       <path d="M 2834 3397 
L 2834 2853 
Q 2591 2978 2328 3040 
Q 2066 3103 1784 3103 
Q 1356 3103 1142 2972 
Q 928 2841 928 2578 
Q 928 2378 1081 2264 
Q 1234 2150 1697 2047 
L 1894 2003 
Q 2506 1872 2764 1633 
Q 3022 1394 3022 966 
Q 3022 478 2636 193 
Q 2250 -91 1575 -91 
Q 1294 -91 989 -36 
Q 684 19 347 128 
L 347 722 
Q 666 556 975 473 
Q 1284 391 1588 391 
Q 1994 391 2212 530 
Q 2431 669 2431 922 
Q 2431 1156 2273 1281 
Q 2116 1406 1581 1522 
L 1381 1569 
Q 847 1681 609 1914 
Q 372 2147 372 2553 
Q 372 3047 722 3315 
Q 1072 3584 1716 3584 
Q 2034 3584 2315 3537 
Q 2597 3491 2834 3397 
z
" id="DejaVuSans-73" transform="scale(0.015625)"/>
      </defs>
      <use xlink:href="#DejaVuSans-6d"/>
      <use x="97.412109" xlink:href="#DejaVuSans-61"/>
      <use x="158.691406" xlink:href="#DejaVuSans-74"/>
      <use x="197.900391" xlink:href="#DejaVuSans-74"/>
      <use x="237.109375" xlink:href="#DejaVuSans-72"/>
      <use x="275.972656" xlink:href="#DejaVuSans-65"/>
      <use x="337.496094" xlink:href="#DejaVuSans-73"/>
      <use x="389.595703" xlink:href="#DejaVuSans-73"/>
     </g>
    </g>
    <g id="line2d_25">
     <path d="M 66.6 217.865937 
L 86.6 217.865937 
" style="fill:none;stroke:#008000;stroke-linecap:square;stroke-opacity:0.9;stroke-width:2;"/>
    </g>
    <g id="line2d_26"/>
    <g id="text_19">
     <!-- daily-open-rebal -->
     <g transform="translate(94.6 221.365937)scale(0.1 -0.1)">
      <defs>
       <path d="M 3513 2113 
L 3513 0 
L 2938 0 
L 2938 2094 
Q 2938 2591 2744 2837 
Q 2550 3084 2163 3084 
Q 1697 3084 1428 2787 
Q 1159 2491 1159 1978 
L 1159 0 
L 581 0 
L 581 3500 
L 1159 3500 
L 1159 2956 
Q 1366 3272 1645 3428 
Q 1925 3584 2291 3584 
Q 2894 3584 3203 3211 
Q 3513 2838 3513 2113 
z
" id="DejaVuSans-6e" transform="scale(0.015625)"/>
       <path d="M 3116 1747 
Q 3116 2381 2855 2742 
Q 2594 3103 2138 3103 
Q 1681 3103 1420 2742 
Q 1159 2381 1159 1747 
Q 1159 1113 1420 752 
Q 1681 391 2138 391 
Q 2594 391 2855 752 
Q 3116 1113 3116 1747 
z
M 1159 2969 
Q 1341 3281 1617 3432 
Q 1894 3584 2278 3584 
Q 2916 3584 3314 3078 
Q 3713 2572 3713 1747 
Q 3713 922 3314 415 
Q 2916 -91 2278 -91 
Q 1894 -91 1617 61 
Q 1341 213 1159 525 
L 1159 0 
L 581 0 
L 581 4863 
L 1159 4863 
L 1159 2969 
z
" id="DejaVuSans-62" transform="scale(0.015625)"/>
      </defs>
      <use xlink:href="#DejaVuSans-64"/>
      <use x="63.476562" xlink:href="#DejaVuSans-61"/>
      <use x="124.755859" xlink:href="#DejaVuSans-69"/>
      <use x="152.539062" xlink:href="#DejaVuSans-6c"/>
      <use x="180.322266" xlink:href="#DejaVuSans-79"/>
      <use x="237.751953" xlink:href="#DejaVuSans-2d"/>
      <use x="275.710938" xlink:href="#DejaVuSans-6f"/>
      <use x="336.892578" xlink:href="#DejaVuSans-70"/>
      <use x="400.369141" xlink:href="#DejaVuSans-65"/>
      <use x="461.892578" xlink:href="#DejaVuSans-6e"/>
      <use x="525.271484" xlink:href="#DejaVuSans-2d"/>
      <use x="561.355469" xlink:href="#DejaVuSans-72"/>
      <use x="600.21875" xlink:href="#DejaVuSans-65"/>
      <use x="661.742188" xlink:href="#DejaVuSans-62"/>
      <use x="725.21875" xlink:href="#DejaVuSans-61"/>
      <use x="786.498047" xlink:href="#DejaVuSans-6c"/>
     </g>
    </g>
    <g id="line2d_27">
     <path d="M 66.6 232.544062 
L 86.6 232.544062 
" style="fill:none;stroke:#ec5283;stroke-linecap:square;stroke-width:2;"/>
    </g>
    <g id="line2d_28"/>
    <g id="text_20">
     <!-- daily-close-rebal -->
     <g transform="translate(94.6 236.044062)scale(0.1 -0.1)">
      <use xlink:href="#DejaVuSans-64"/>
      <use x="63.476562" xlink:href="#DejaVuSans-61"/>
      <use x="124.755859" xlink:href="#DejaVuSans-69"/>
      <use x="152.539062" xlink:href="#DejaVuSans-6c"/>
      <use x="180.322266" xlink:href="#DejaVuSans-79"/>
      <use x="237.751953" xlink:href="#DejaVuSans-2d"/>
      <use x="273.835938" xlink:href="#DejaVuSans-63"/>
      <use x="328.816406" xlink:href="#DejaVuSans-6c"/>
      <use x="356.599609" xlink:href="#DejaVuSans-6f"/>
      <use x="417.78125" xlink:href="#DejaVuSans-73"/>
      <use x="469.880859" xlink:href="#DejaVuSans-65"/>
      <use x="531.404297" xlink:href="#DejaVuSans-2d"/>
      <use x="567.488281" xlink:href="#DejaVuSans-72"/>
      <use x="606.351562" xlink:href="#DejaVuSans-65"/>
      <use x="667.875" xlink:href="#DejaVuSans-62"/>
      <use x="731.351562" xlink:href="#DejaVuSans-61"/>
      <use x="792.630859" xlink:href="#DejaVuSans-6c"/>
     </g>
    </g>
    <g id="line2d_29">
     <path d="M 66.6 247.222187 
L 86.6 247.222187 
" style="fill:none;stroke:#00ff00;stroke-linecap:square;stroke-opacity:0.9;stroke-width:2;"/>
    </g>
    <g id="line2d_30"/>
    <g id="text_21">
     <!-- trader-baseline -->
     <g transform="translate(94.6 250.722187)scale(0.1 -0.1)">
      <use xlink:href="#DejaVuSans-74"/>
      <use x="39.208984" xlink:href="#DejaVuSans-72"/>
      <use x="80.322266" xlink:href="#DejaVuSans-61"/>
      <use x="141.601562" xlink:href="#DejaVuSans-64"/>
      <use x="205.078125" xlink:href="#DejaVuSans-65"/>
      <use x="266.601562" xlink:href="#DejaVuSans-72"/>
      <use x="301.339844" xlink:href="#DejaVuSans-2d"/>
      <use x="337.423828" xlink:href="#DejaVuSans-62"/>
      <use x="400.900391" xlink:href="#DejaVuSans-61"/>
      <use x="462.179688" xlink:href="#DejaVuSans-73"/>
      <use x="514.279297" xlink:href="#DejaVuSans-65"/>
      <use x="575.802734" xlink:href="#DejaVuSans-6c"/>
      <use x="603.585938" xlink:href="#DejaVuSans-69"/>
      <use x="631.369141" xlink:href="#DejaVuSans-6e"/>
      <use x="694.748047" xlink:href="#DejaVuSans-65"/>
     </g>
    </g>
    <g id="line2d_31">
     <path d="M 66.6 261.900312 
L 86.6 261.900312 
" style="fill:none;stroke:#a5b9cf;stroke-linecap:square;stroke-width:2;"/>
    </g>
    <g id="line2d_32"/>
    <g id="text_22">
     <!-- default-cfg -->
     <g transform="translate(94.6 265.400312)scale(0.1 -0.1)">
      <defs>
       <path d="M 2375 4863 
L 2375 4384 
L 1825 4384 
Q 1516 4384 1395 4259 
Q 1275 4134 1275 3809 
L 1275 3500 
L 2222 3500 
L 2222 3053 
L 1275 3053 
L 1275 0 
L 697 0 
L 697 3053 
L 147 3053 
L 147 3500 
L 697 3500 
L 697 3744 
Q 697 4328 969 4595 
Q 1241 4863 1831 4863 
L 2375 4863 
z
" id="DejaVuSans-66" transform="scale(0.015625)"/>
       <path d="M 544 1381 
L 544 3500 
L 1119 3500 
L 1119 1403 
Q 1119 906 1312 657 
Q 1506 409 1894 409 
Q 2359 409 2629 706 
Q 2900 1003 2900 1516 
L 2900 3500 
L 3475 3500 
L 3475 0 
L 2900 0 
L 2900 538 
Q 2691 219 2414 64 
Q 2138 -91 1772 -91 
Q 1169 -91 856 284 
Q 544 659 544 1381 
z
M 1991 3584 
L 1991 3584 
z
" id="DejaVuSans-75" transform="scale(0.015625)"/>
       <path d="M 2906 1791 
Q 2906 2416 2648 2759 
Q 2391 3103 1925 3103 
Q 1463 3103 1205 2759 
Q 947 2416 947 1791 
Q 947 1169 1205 825 
Q 1463 481 1925 481 
Q 2391 481 2648 825 
Q 2906 1169 2906 1791 
z
M 3481 434 
Q 3481 -459 3084 -895 
Q 2688 -1331 1869 -1331 
Q 1566 -1331 1297 -1286 
Q 1028 -1241 775 -1147 
L 775 -588 
Q 1028 -725 1275 -790 
Q 1522 -856 1778 -856 
Q 2344 -856 2625 -561 
Q 2906 -266 2906 331 
L 2906 616 
Q 2728 306 2450 153 
Q 2172 0 1784 0 
Q 1141 0 747 490 
Q 353 981 353 1791 
Q 353 2603 747 3093 
Q 1141 3584 1784 3584 
Q 2172 3584 2450 3431 
Q 2728 3278 2906 2969 
L 2906 3500 
L 3481 3500 
L 3481 434 
z
" id="DejaVuSans-67" transform="scale(0.015625)"/>
      </defs>
      <use xlink:href="#DejaVuSans-64"/>
      <use x="63.476562" xlink:href="#DejaVuSans-65"/>
      <use x="125" xlink:href="#DejaVuSans-66"/>
      <use x="160.205078" xlink:href="#DejaVuSans-61"/>
      <use x="221.484375" xlink:href="#DejaVuSans-75"/>
      <use x="284.863281" xlink:href="#DejaVuSans-6c"/>
      <use x="312.646484" xlink:href="#DejaVuSans-74"/>
      <use x="351.855469" xlink:href="#DejaVuSans-2d"/>
      <use x="387.939453" xlink:href="#DejaVuSans-63"/>
      <use x="442.919922" xlink:href="#DejaVuSans-66"/>
      <use x="478.125" xlink:href="#DejaVuSans-67"/>
     </g>
    </g>
   </g>
  </g>
 </g>
 <defs>
  <clipPath id="pbe0b14ff21">
   <rect height="235.008" width="357.12" x="57.6" y="41.472"/>
  </clipPath>
 </defs>
</svg>
