<?xml version="1.0" encoding="utf-8" standalone="no"?>
<!DOCTYPE svg PUBLIC "-//W3C//DTD SVG 1.1//EN"
  "http://www.w3.org/Graphics/SVG/1.1/DTD/svg11.dtd">
<svg height="345.6pt" version="1.1" viewBox="0 0 460.8 345.6" width="460.8pt" xmlns="http://www.w3.org/2000/svg" xmlns:xlink="http://www.w3.org/1999/xlink">
 <metadata>
  <rdf:RDF xmlns:cc="http://creativecommons.org/ns#" xmlns:dc="http://purl.org/dc/elements/1.1/" xmlns:rdf="http://www.w3.org/1999/02/22-rdf-syntax-ns#">
   <cc:Work>
    <dc:type rdf:resource="http://purl.org/dc/dcmitype/StillImage"/>
    <dc:date>2022-05-02T01:01:35.428835</dc:date>
    <dc:format>image/svg+xml</dc:format>
    <dc:creator>
     <cc:Agent>
      <dc:title>Matplotlib v3.4.3, https://matplotlib.org/</dc:title>
     </cc:Agent>
    </dc:creator>
   </cc:Work>
  </rdf:RDF>
 </metadata>
 <defs>
  <style type="text/css">*{stroke-linecap:butt;stroke-linejoin:round;}</style>
 </defs>
 <g id="figure_1">
  <g id="patch_1">
   <path d="M 0 345.6 
L 460.8 345.6 
L 460.8 0 
L 0 0 
z
" style="fill:#ffffff;"/>
  </g>
  <g id="axes_1">
   <g id="patch_2">
    <path d="M 57.6 276.48 
L 414.72 276.48 
L 414.72 41.472 
L 57.6 41.472 
z
" style="fill:#ffffff;"/>
   </g>
   <g id="matplotlib.axis_1">
    <g id="xtick_1">
     <g id="line2d_1">
      <defs>
       <path d="M 0 0 
L 0 3.5 
" id="m6741404a26" style="stroke:#000000;stroke-width:0.8;"/>
      </defs>
      <g>
       <use style="stroke:#000000;stroke-width:0.8;" x="85.567229" xlink:href="#m6741404a26" y="276.48"/>
      </g>
     </g>
     <g id="text_1">
      <!-- 2021-09 -->
      <g transform="translate(48.342408 310.951846)rotate(-30)scale(0.1 -0.1)">
       <defs>
        <path d="M 1228 531 
L 3431 531 
L 3431 0 
L 469 0 
L 469 531 
Q 828 903 1448 1529 
Q 2069 2156 2228 2338 
Q 2531 2678 2651 2914 
Q 2772 3150 2772 3378 
Q 2772 3750 2511 3984 
Q 2250 4219 1831 4219 
Q 1534 4219 1204 4116 
Q 875 4013 500 3803 
L 500 4441 
Q 881 4594 1212 4672 
Q 1544 4750 1819 4750 
Q 2544 4750 2975 4387 
Q 3406 4025 3406 3419 
Q 3406 3131 3298 2873 
Q 3191 2616 2906 2266 
Q 2828 2175 2409 1742 
Q 1991 1309 1228 531 
z
" id="DejaVuSans-32" transform="scale(0.015625)"/>
        <path d="M 2034 4250 
Q 1547 4250 1301 3770 
Q 1056 3291 1056 2328 
Q 1056 1369 1301 889 
Q 1547 409 2034 409 
Q 2525 409 2770 889 
Q 3016 1369 3016 2328 
Q 3016 3291 2770 3770 
Q 2525 4250 2034 4250 
z
M 2034 4750 
Q 2819 4750 3233 4129 
Q 3647 3509 3647 2328 
Q 3647 1150 3233 529 
Q 2819 -91 2034 -91 
Q 1250 -91 836 529 
Q 422 1150 422 2328 
Q 422 3509 836 4129 
Q 1250 4750 2034 4750 
z
" id="DejaVuSans-30" transform="scale(0.015625)"/>
        <path d="M 794 531 
L 1825 531 
L 1825 4091 
L 703 3866 
L 703 4441 
L 1819 4666 
L 2450 4666 
L 2450 531 
L 3481 531 
L 3481 0 
L 794 0 
L 794 531 
z
" id="DejaVuSans-31" transform="scale(0.015625)"/>
        <path d="M 313 2009 
L 1997 2009 
L 1997 1497 
L 313 1497 
L 313 2009 
z
" id="DejaVuSans-2d" transform="scale(0.015625)"/>
        <path d="M 703 97 
L 703 672 
Q 941 559 1184 500 
Q 1428 441 1663 441 
Q 2288 441 2617 861 
Q 2947 1281 2994 2138 
Q 2813 1869 2534 1725 
Q 2256 1581 1919 1581 
Q 1219 1581 811 2004 
Q 403 2428 403 3163 
Q 403 3881 828 4315 
Q 1253 4750 1959 4750 
Q 2769 4750 3195 4129 
Q 3622 3509 3622 2328 
Q 3622 1225 3098 567 
Q 2575 -91 1691 -91 
Q 1453 -91 1209 -44 
Q 966 3 703 97 
z
M 1959 2075 
Q 2384 2075 2632 2365 
Q 2881 2656 2881 3163 
Q 2881 3666 2632 3958 
Q 2384 4250 1959 4250 
Q 1534 4250 1286 3958 
Q 1038 3666 1038 3163 
Q 1038 2656 1286 2365 
Q 1534 2075 1959 2075 
z
" id="DejaVuSans-39" transform="scale(0.015625)"/>
       </defs>
       <use xlink:href="#DejaVuSans-32"/>
       <use x="63.623047" xlink:href="#DejaVuSans-30"/>
       <use x="127.246094" xlink:href="#DejaVuSans-32"/>
       <use x="190.869141" xlink:href="#DejaVuSans-31"/>
       <use x="254.492188" xlink:href="#DejaVuSans-2d"/>
       <use x="290.576172" xlink:href="#DejaVuSans-30"/>
       <use x="354.199219" xlink:href="#DejaVuSans-39"/>
      </g>
     </g>
    </g>
    <g id="xtick_2">
     <g id="line2d_2">
      <g>
       <use style="stroke:#000000;stroke-width:0.8;" x="124.682234" xlink:href="#m6741404a26" y="276.48"/>
      </g>
     </g>
     <g id="text_2">
      <!-- 2021-10 -->
      <g transform="translate(87.457414 310.951846)rotate(-30)scale(0.1 -0.1)">
       <use xlink:href="#DejaVuSans-32"/>
       <use x="63.623047" xlink:href="#DejaVuSans-30"/>
       <use x="127.246094" xlink:href="#DejaVuSans-32"/>
       <use x="190.869141" xlink:href="#DejaVuSans-31"/>
       <use x="254.492188" xlink:href="#DejaVuSans-2d"/>
       <use x="290.576172" xlink:href="#DejaVuSans-31"/>
       <use x="354.199219" xlink:href="#DejaVuSans-30"/>
      </g>
     </g>
    </g>
    <g id="xtick_3">
     <g id="line2d_3">
      <g>
       <use style="stroke:#000000;stroke-width:0.8;" x="165.101073" xlink:href="#m6741404a26" y="276.48"/>
      </g>
     </g>
     <g id="text_3">
      <!-- 2021-11 -->
      <g transform="translate(127.876253 310.951846)rotate(-30)scale(0.1 -0.1)">
       <use xlink:href="#DejaVuSans-32"/>
       <use x="63.623047" xlink:href="#DejaVuSans-30"/>
       <use x="127.246094" xlink:href="#DejaVuSans-32"/>
       <use x="190.869141" xlink:href="#DejaVuSans-31"/>
       <use x="254.492188" xlink:href="#DejaVuSans-2d"/>
       <use x="290.576172" xlink:href="#DejaVuSans-31"/>
       <use x="354.199219" xlink:href="#DejaVuSans-31"/>
      </g>
     </g>
    </g>
    <g id="xtick_4">
     <g id="line2d_4">
      <g>
       <use style="stroke:#000000;stroke-width:0.8;" x="204.216079" xlink:href="#m6741404a26" y="276.48"/>
      </g>
     </g>
     <g id="text_4">
      <!-- 2021-12 -->
      <g transform="translate(166.991258 310.951846)rotate(-30)scale(0.1 -0.1)">
       <use xlink:href="#DejaVuSans-32"/>
       <use x="63.623047" xlink:href="#DejaVuSans-30"/>
       <use x="127.246094" xlink:href="#DejaVuSans-32"/>
       <use x="190.869141" xlink:href="#DejaVuSans-31"/>
       <use x="254.492188" xlink:href="#DejaVuSans-2d"/>
       <use x="290.576172" xlink:href="#DejaVuSans-31"/>
       <use x="354.199219" xlink:href="#DejaVuSans-32"/>
      </g>
     </g>
    </g>
    <g id="xtick_5">
     <g id="line2d_5">
      <g>
       <use style="stroke:#000000;stroke-width:0.8;" x="244.634918" xlink:href="#m6741404a26" y="276.48"/>
      </g>
     </g>
     <g id="text_5">
      <!-- 2022-01 -->
      <g transform="translate(207.410097 310.951846)rotate(-30)scale(0.1 -0.1)">
       <use xlink:href="#DejaVuSans-32"/>
       <use x="63.623047" xlink:href="#DejaVuSans-30"/>
       <use x="127.246094" xlink:href="#DejaVuSans-32"/>
       <use x="190.869141" xlink:href="#DejaVuSans-32"/>
       <use x="254.492188" xlink:href="#DejaVuSans-2d"/>
       <use x="290.576172" xlink:href="#DejaVuSans-30"/>
       <use x="354.199219" xlink:href="#DejaVuSans-31"/>
      </g>
     </g>
    </g>
    <g id="xtick_6">
     <g id="line2d_6">
      <g>
       <use style="stroke:#000000;stroke-width:0.8;" x="285.053757" xlink:href="#m6741404a26" y="276.48"/>
      </g>
     </g>
     <g id="text_6">
      <!-- 2022-02 -->
      <g transform="translate(247.828936 310.951846)rotate(-30)scale(0.1 -0.1)">
       <use xlink:href="#DejaVuSans-32"/>
       <use x="63.623047" xlink:href="#DejaVuSans-30"/>
       <use x="127.246094" xlink:href="#DejaVuSans-32"/>
       <use x="190.869141" xlink:href="#DejaVuSans-32"/>
       <use x="254.492188" xlink:href="#DejaVuSans-2d"/>
       <use x="290.576172" xlink:href="#DejaVuSans-30"/>
       <use x="354.199219" xlink:href="#DejaVuSans-32"/>
      </g>
     </g>
    </g>
    <g id="xtick_7">
     <g id="line2d_7">
      <g>
       <use style="stroke:#000000;stroke-width:0.8;" x="321.561095" xlink:href="#m6741404a26" y="276.48"/>
      </g>
     </g>
     <g id="text_7">
      <!-- 2022-03 -->
      <g transform="translate(284.336274 310.951846)rotate(-30)scale(0.1 -0.1)">
       <defs>
        <path d="M 2597 2516 
Q 3050 2419 3304 2112 
Q 3559 1806 3559 1356 
Q 3559 666 3084 287 
Q 2609 -91 1734 -91 
Q 1441 -91 1130 -33 
Q 819 25 488 141 
L 488 750 
Q 750 597 1062 519 
Q 1375 441 1716 441 
Q 2309 441 2620 675 
Q 2931 909 2931 1356 
Q 2931 1769 2642 2001 
Q 2353 2234 1838 2234 
L 1294 2234 
L 1294 2753 
L 1863 2753 
Q 2328 2753 2575 2939 
Q 2822 3125 2822 3475 
Q 2822 3834 2567 4026 
Q 2313 4219 1838 4219 
Q 1578 4219 1281 4162 
Q 984 4106 628 3988 
L 628 4550 
Q 988 4650 1302 4700 
Q 1616 4750 1894 4750 
Q 2613 4750 3031 4423 
Q 3450 4097 3450 3541 
Q 3450 3153 3228 2886 
Q 3006 2619 2597 2516 
z
" id="DejaVuSans-33" transform="scale(0.015625)"/>
       </defs>
       <use xlink:href="#DejaVuSans-32"/>
       <use x="63.623047" xlink:href="#DejaVuSans-30"/>
       <use x="127.246094" xlink:href="#DejaVuSans-32"/>
       <use x="190.869141" xlink:href="#DejaVuSans-32"/>
       <use x="254.492188" xlink:href="#DejaVuSans-2d"/>
       <use x="290.576172" xlink:href="#DejaVuSans-30"/>
       <use x="354.199219" xlink:href="#DejaVuSans-33"/>
      </g>
     </g>
    </g>
    <g id="xtick_8">
     <g id="line2d_8">
      <g>
       <use style="stroke:#000000;stroke-width:0.8;" x="361.979934" xlink:href="#m6741404a26" y="276.48"/>
      </g>
     </g>
     <g id="text_8">
      <!-- 2022-04 -->
      <g transform="translate(324.755113 310.951846)rotate(-30)scale(0.1 -0.1)">
       <defs>
        <path d="M 2419 4116 
L 825 1625 
L 2419 1625 
L 2419 4116 
z
M 2253 4666 
L 3047 4666 
L 3047 1625 
L 3713 1625 
L 3713 1100 
L 3047 1100 
L 3047 0 
L 2419 0 
L 2419 1100 
L 313 1100 
L 313 1709 
L 2253 4666 
z
" id="DejaVuSans-34" transform="scale(0.015625)"/>
       </defs>
       <use xlink:href="#DejaVuSans-32"/>
       <use x="63.623047" xlink:href="#DejaVuSans-30"/>
       <use x="127.246094" xlink:href="#DejaVuSans-32"/>
       <use x="190.869141" xlink:href="#DejaVuSans-32"/>
       <use x="254.492188" xlink:href="#DejaVuSans-2d"/>
       <use x="290.576172" xlink:href="#DejaVuSans-30"/>
       <use x="354.199219" xlink:href="#DejaVuSans-34"/>
      </g>
     </g>
    </g>
    <g id="xtick_9">
     <g id="line2d_9">
      <g>
       <use style="stroke:#000000;stroke-width:0.8;" x="401.09494" xlink:href="#m6741404a26" y="276.48"/>
      </g>
     </g>
     <g id="text_9">
      <!-- 2022-05 -->
      <g transform="translate(363.870119 310.951846)rotate(-30)scale(0.1 -0.1)">
       <defs>
        <path d="M 691 4666 
L 3169 4666 
L 3169 4134 
L 1269 4134 
L 1269 2991 
Q 1406 3038 1543 3061 
Q 1681 3084 1819 3084 
Q 2600 3084 3056 2656 
Q 3513 2228 3513 1497 
Q 3513 744 3044 326 
Q 2575 -91 1722 -91 
Q 1428 -91 1123 -41 
Q 819 9 494 109 
L 494 744 
Q 775 591 1075 516 
Q 1375 441 1709 441 
Q 2250 441 2565 725 
Q 2881 1009 2881 1497 
Q 2881 1984 2565 2268 
Q 2250 2553 1709 2553 
Q 1456 2553 1204 2497 
Q 953 2441 691 2322 
L 691 4666 
z
" id="DejaVuSans-35" transform="scale(0.015625)"/>
       </defs>
       <use xlink:href="#DejaVuSans-32"/>
       <use x="63.623047" xlink:href="#DejaVuSans-30"/>
       <use x="127.246094" xlink:href="#DejaVuSans-32"/>
       <use x="190.869141" xlink:href="#DejaVuSans-32"/>
       <use x="254.492188" xlink:href="#DejaVuSans-2d"/>
       <use x="290.576172" xlink:href="#DejaVuSans-30"/>
       <use x="354.199219" xlink:href="#DejaVuSans-35"/>
      </g>
     </g>
    </g>
    <g id="text_10">
     <!-- date -->
     <g transform="translate(224.885 324.351346)scale(0.1 -0.1)">
      <defs>
       <path d="M 2906 2969 
L 2906 4863 
L 3481 4863 
L 3481 0 
L 2906 0 
L 2906 525 
Q 2725 213 2448 61 
Q 2172 -91 1784 -91 
Q 1150 -91 751 415 
Q 353 922 353 1747 
Q 353 2572 751 3078 
Q 1150 3584 1784 3584 
Q 2172 3584 2448 3432 
Q 2725 3281 2906 2969 
z
M 947 1747 
Q 947 1113 1208 752 
Q 1469 391 1925 391 
Q 2381 391 2643 752 
Q 2906 1113 2906 1747 
Q 2906 2381 2643 2742 
Q 2381 3103 1925 3103 
Q 1469 3103 1208 2742 
Q 947 2381 947 1747 
z
" id="DejaVuSans-64" transform="scale(0.015625)"/>
       <path d="M 2194 1759 
Q 1497 1759 1228 1600 
Q 959 1441 959 1056 
Q 959 750 1161 570 
Q 1363 391 1709 391 
Q 2188 391 2477 730 
Q 2766 1069 2766 1631 
L 2766 1759 
L 2194 1759 
z
M 3341 1997 
L 3341 0 
L 2766 0 
L 2766 531 
Q 2569 213 2275 61 
Q 1981 -91 1556 -91 
Q 1019 -91 701 211 
Q 384 513 384 1019 
Q 384 1609 779 1909 
Q 1175 2209 1959 2209 
L 2766 2209 
L 2766 2266 
Q 2766 2663 2505 2880 
Q 2244 3097 1772 3097 
Q 1472 3097 1187 3025 
Q 903 2953 641 2809 
L 641 3341 
Q 956 3463 1253 3523 
Q 1550 3584 1831 3584 
Q 2591 3584 2966 3190 
Q 3341 2797 3341 1997 
z
" id="DejaVuSans-61" transform="scale(0.015625)"/>
       <path d="M 1172 4494 
L 1172 3500 
L 2356 3500 
L 2356 3053 
L 1172 3053 
L 1172 1153 
Q 1172 725 1289 603 
Q 1406 481 1766 481 
L 2356 481 
L 2356 0 
L 1766 0 
Q 1100 0 847 248 
Q 594 497 594 1153 
L 594 3053 
L 172 3053 
L 172 3500 
L 594 3500 
L 594 4494 
L 1172 4494 
z
" id="DejaVuSans-74" transform="scale(0.015625)"/>
       <path d="M 3597 1894 
L 3597 1613 
L 953 1613 
Q 991 1019 1311 708 
Q 1631 397 2203 397 
Q 2534 397 2845 478 
Q 3156 559 3463 722 
L 3463 178 
Q 3153 47 2828 -22 
Q 2503 -91 2169 -91 
Q 1331 -91 842 396 
Q 353 884 353 1716 
Q 353 2575 817 3079 
Q 1281 3584 2069 3584 
Q 2775 3584 3186 3129 
Q 3597 2675 3597 1894 
z
M 3022 2063 
Q 3016 2534 2758 2815 
Q 2500 3097 2075 3097 
Q 1594 3097 1305 2825 
Q 1016 2553 972 2059 
L 3022 2063 
z
" id="DejaVuSans-65" transform="scale(0.015625)"/>
      </defs>
      <use xlink:href="#DejaVuSans-64"/>
      <use x="63.476562" xlink:href="#DejaVuSans-61"/>
      <use x="124.755859" xlink:href="#DejaVuSans-74"/>
      <use x="163.964844" xlink:href="#DejaVuSans-65"/>
     </g>
    </g>
   </g>
   <g id="matplotlib.axis_2">
    <g id="ytick_1">
     <g id="line2d_10">
      <defs>
       <path d="M 0 0 
L -3.5 0 
" id="m68d2874b7f" style="stroke:#000000;stroke-width:0.8;"/>
      </defs>
      <g>
       <use style="stroke:#000000;stroke-width:0.8;" x="57.6" xlink:href="#m68d2874b7f" y="247.798721"/>
      </g>
     </g>
     <g id="text_11">
      <!-- 85000 -->
      <g transform="translate(18.7875 251.59794)scale(0.1 -0.1)">
       <defs>
        <path d="M 2034 2216 
Q 1584 2216 1326 1975 
Q 1069 1734 1069 1313 
Q 1069 891 1326 650 
Q 1584 409 2034 409 
Q 2484 409 2743 651 
Q 3003 894 3003 1313 
Q 3003 1734 2745 1975 
Q 2488 2216 2034 2216 
z
M 1403 2484 
Q 997 2584 770 2862 
Q 544 3141 544 3541 
Q 544 4100 942 4425 
Q 1341 4750 2034 4750 
Q 2731 4750 3128 4425 
Q 3525 4100 3525 3541 
Q 3525 3141 3298 2862 
Q 3072 2584 2669 2484 
Q 3125 2378 3379 2068 
Q 3634 1759 3634 1313 
Q 3634 634 3220 271 
Q 2806 -91 2034 -91 
Q 1263 -91 848 271 
Q 434 634 434 1313 
Q 434 1759 690 2068 
Q 947 2378 1403 2484 
z
M 1172 3481 
Q 1172 3119 1398 2916 
Q 1625 2713 2034 2713 
Q 2441 2713 2670 2916 
Q 2900 3119 2900 3481 
Q 2900 3844 2670 4047 
Q 2441 4250 2034 4250 
Q 1625 4250 1398 4047 
Q 1172 3844 1172 3481 
z
" id="DejaVuSans-38" transform="scale(0.015625)"/>
       </defs>
       <use xlink:href="#DejaVuSans-38"/>
       <use x="63.623047" xlink:href="#DejaVuSans-35"/>
       <use x="127.246094" xlink:href="#DejaVuSans-30"/>
       <use x="190.869141" xlink:href="#DejaVuSans-30"/>
       <use x="254.492188" xlink:href="#DejaVuSans-30"/>
      </g>
     </g>
    </g>
    <g id="ytick_2">
     <g id="line2d_11">
      <g>
       <use style="stroke:#000000;stroke-width:0.8;" x="57.6" xlink:href="#m68d2874b7f" y="216.690261"/>
      </g>
     </g>
     <g id="text_12">
      <!-- 90000 -->
      <g transform="translate(18.7875 220.48948)scale(0.1 -0.1)">
       <use xlink:href="#DejaVuSans-39"/>
       <use x="63.623047" xlink:href="#DejaVuSans-30"/>
       <use x="127.246094" xlink:href="#DejaVuSans-30"/>
       <use x="190.869141" xlink:href="#DejaVuSans-30"/>
       <use x="254.492188" xlink:href="#DejaVuSans-30"/>
      </g>
     </g>
    </g>
    <g id="ytick_3">
     <g id="line2d_12">
      <g>
       <use style="stroke:#000000;stroke-width:0.8;" x="57.6" xlink:href="#m68d2874b7f" y="185.581802"/>
      </g>
     </g>
     <g id="text_13">
      <!-- 95000 -->
      <g transform="translate(18.7875 189.381021)scale(0.1 -0.1)">
       <use xlink:href="#DejaVuSans-39"/>
       <use x="63.623047" xlink:href="#DejaVuSans-35"/>
       <use x="127.246094" xlink:href="#DejaVuSans-30"/>
       <use x="190.869141" xlink:href="#DejaVuSans-30"/>
       <use x="254.492188" xlink:href="#DejaVuSans-30"/>
      </g>
     </g>
    </g>
    <g id="ytick_4">
     <g id="line2d_13">
      <g>
       <use style="stroke:#000000;stroke-width:0.8;" x="57.6" xlink:href="#m68d2874b7f" y="154.473343"/>
      </g>
     </g>
     <g id="text_14">
      <!-- 100000 -->
      <g transform="translate(12.425 158.272562)scale(0.1 -0.1)">
       <use xlink:href="#DejaVuSans-31"/>
       <use x="63.623047" xlink:href="#DejaVuSans-30"/>
       <use x="127.246094" xlink:href="#DejaVuSans-30"/>
       <use x="190.869141" xlink:href="#DejaVuSans-30"/>
       <use x="254.492188" xlink:href="#DejaVuSans-30"/>
       <use x="318.115234" xlink:href="#DejaVuSans-30"/>
      </g>
     </g>
    </g>
    <g id="ytick_5">
     <g id="line2d_14">
      <g>
       <use style="stroke:#000000;stroke-width:0.8;" x="57.6" xlink:href="#m68d2874b7f" y="123.364883"/>
      </g>
     </g>
     <g id="text_15">
      <!-- 105000 -->
      <g transform="translate(12.425 127.164102)scale(0.1 -0.1)">
       <use xlink:href="#DejaVuSans-31"/>
       <use x="63.623047" xlink:href="#DejaVuSans-30"/>
       <use x="127.246094" xlink:href="#DejaVuSans-35"/>
       <use x="190.869141" xlink:href="#DejaVuSans-30"/>
       <use x="254.492188" xlink:href="#DejaVuSans-30"/>
       <use x="318.115234" xlink:href="#DejaVuSans-30"/>
      </g>
     </g>
    </g>
    <g id="ytick_6">
     <g id="line2d_15">
      <g>
       <use style="stroke:#000000;stroke-width:0.8;" x="57.6" xlink:href="#m68d2874b7f" y="92.256424"/>
      </g>
     </g>
     <g id="text_16">
      <!-- 110000 -->
      <g transform="translate(12.425 96.055643)scale(0.1 -0.1)">
       <use xlink:href="#DejaVuSans-31"/>
       <use x="63.623047" xlink:href="#DejaVuSans-31"/>
       <use x="127.246094" xlink:href="#DejaVuSans-30"/>
       <use x="190.869141" xlink:href="#DejaVuSans-30"/>
       <use x="254.492188" xlink:href="#DejaVuSans-30"/>
       <use x="318.115234" xlink:href="#DejaVuSans-30"/>
      </g>
     </g>
    </g>
    <g id="ytick_7">
     <g id="line2d_16">
      <g>
       <use style="stroke:#000000;stroke-width:0.8;" x="57.6" xlink:href="#m68d2874b7f" y="61.147965"/>
      </g>
     </g>
     <g id="text_17">
      <!-- 115000 -->
      <g transform="translate(12.425 64.947184)scale(0.1 -0.1)">
       <use xlink:href="#DejaVuSans-31"/>
       <use x="63.623047" xlink:href="#DejaVuSans-31"/>
       <use x="127.246094" xlink:href="#DejaVuSans-35"/>
       <use x="190.869141" xlink:href="#DejaVuSans-30"/>
       <use x="254.492188" xlink:href="#DejaVuSans-30"/>
       <use x="318.115234" xlink:href="#DejaVuSans-30"/>
      </g>
     </g>
    </g>
   </g>
   <g id="line2d_17">
    <path clip-path="url(#p284ddc8a2c)" d="M 73.832727 154.473343 
L 76.440394 150.257789 
L 77.744228 153.906904 
L 79.048061 147.76369 
L 82.959562 144.260602 
L 84.263395 142.635764 
L 85.567229 144.290774 
L 86.871062 143.505639 
L 88.174896 143.866738 
L 93.39023 143.620439 
L 95.997897 147.298914 
L 97.301731 153.255099 
L 101.213231 147.848333 
L 102.517065 156.430749 
L 103.820898 152.775541 
L 105.124732 153.476239 
L 106.428565 159.473532 
L 110.340066 170.431867 
L 111.643899 171.661258 
L 112.947733 166.762024 
L 114.251566 157.721769 
L 115.5554 152.341127 
L 119.4669 147.558549 
L 120.770734 161.392184 
L 122.074567 160.104419 
L 123.378401 164.67831 
L 124.682234 155.578771 
L 128.593735 167.444977 
L 129.897568 157.632512 
L 131.201402 155.447082 
L 132.505235 155.771109 
L 133.809069 154.91353 
L 137.72057 153.88176 
L 139.024403 153.168434 
L 140.328237 161.608249 
L 141.63207 149.354059 
L 142.935904 148.334217 
L 146.847404 143.189358 
L 148.151238 136.83532 
L 149.455071 134.306389 
L 150.758905 145.956043 
L 152.062738 154.296823 
L 155.974239 153.890409 
L 157.278072 158.821139 
L 158.581906 161.217943 
L 159.885739 153.33599 
L 161.189573 161.266717 
L 165.101073 148.443542 
L 166.404907 148.442864 
L 167.70874 141.976297 
L 169.012574 149.389895 
L 170.316407 145.240058 
L 174.227908 144.653585 
L 175.531742 152.030541 
L 176.835575 152.408666 
L 178.139409 157.377285 
L 179.443242 152.521568 
L 183.354743 150.849301 
L 184.658576 150.836328 
L 185.96241 154.264085 
L 187.266243 155.493702 
L 188.570077 156.142714 
L 192.481577 152.604739 
L 193.785411 147.798904 
L 195.089244 147.765854 
L 197.696911 148.04867 
L 201.608412 153.698409 
L 202.912245 165.459657 
L 204.216079 174.237923 
L 205.519912 166.385034 
L 206.823746 171.110785 
L 210.735246 159.261146 
L 212.03908 148.721594 
L 213.342913 143.596116 
L 214.646747 143.54783 
L 215.950581 141.551339 
L 219.862081 147.412707 
L 221.165915 144.880058 
L 222.469748 140.794303 
L 223.773582 137.710395 
L 225.077415 144.47518 
L 228.988916 153.365341 
L 230.292749 138.792379 
L 231.596583 136.079509 
L 232.900416 130.570393 
L 238.11575 122.110466 
L 239.419584 122.624136 
L 240.723417 122.658772 
L 242.027251 123.708795 
L 243.331084 126.395541 
L 247.242585 116.568464 
L 248.546418 108.855198 
L 249.850252 126.558789 
L 251.154085 120.632851 
L 252.457919 118.952579 
L 256.369419 118.666593 
L 257.673253 113.030639 
L 258.977087 111.876161 
L 260.28092 119.989329 
L 261.584754 118.284601 
L 266.800088 132.25123 
L 268.103921 136.436301 
L 269.407755 143.412718 
L 270.711588 157.928259 
L 274.623089 157.060221 
L 275.926922 164.767019 
L 277.230756 165.023699 
L 278.534589 168.468089 
L 279.838423 152.708586 
L 283.749923 139.546547 
L 285.053757 133.606114 
L 286.35759 122.8 
L 287.661424 163.9377 
L 288.965257 162.451374 
L 292.876758 172.954491 
L 294.180591 174.716033 
L 295.484425 161.542645 
L 296.788258 172.622493 
L 298.092092 186.22322 
L 302.003593 190.054658 
L 303.307426 182.781094 
L 304.61126 185.968851 
L 305.915093 196.885978 
L 307.218927 201.075343 
L 312.434261 206.946962 
L 313.738094 215.257495 
L 315.041928 201.819838 
L 316.345761 191.111212 
L 320.257262 194.096316 
L 321.561095 203.837378 
L 322.864929 191.775548 
L 324.168762 194.894652 
L 325.472596 201.526907 
L 329.384096 225.525284 
L 330.68793 225.589937 
L 331.991763 202.088834 
L 333.295597 209.940394 
L 334.59943 218.841323 
L 338.510931 220.136509 
L 339.814765 209.336595 
L 341.118598 191.211919 
L 342.422432 184.755422 
L 343.726265 174.945843 
L 347.637766 177.687981 
L 348.941599 165.86335 
L 350.245433 172.788716 
L 351.549266 163.031348 
L 352.8531 156.984364 
L 356.7646 155.349163 
L 358.068434 150.329894 
L 359.372267 152.540985 
L 360.676101 166.904349 
L 361.979934 165.010654 
L 365.891435 158.107567 
L 367.195268 164.863388 
L 368.499102 174.355834 
L 369.802935 175.442771 
L 371.106769 175.984673 
L 375.018269 186.661596 
L 376.322103 190.826791 
L 377.625936 188.381524 
L 378.92977 199.243824 
L 384.145104 194.017443 
L 385.448938 183.480673 
L 386.752771 189.512019 
L 388.056605 205.639868 
L 389.360438 224.267501 
L 393.271939 219.700702 
L 394.575772 229.886742 
L 395.879606 236.354986 
L 397.183439 202.619 
L 398.487273 227.124014 
L 398.487273 227.124014 
" style="fill:none;stroke:#0000ff;stroke-linecap:square;stroke-opacity:0.9;stroke-width:2;"/>
   </g>
   <g id="line2d_18">
    <path clip-path="url(#p284ddc8a2c)" d="M 73.832727 154.473343 
L 75.136561 150.84635 
L 76.440394 147.96268 
L 77.744228 152.352107 
L 79.048061 144.63912 
L 82.959562 142.373473 
L 84.263395 141.874567 
L 85.567229 141.807698 
L 86.871062 142.361048 
L 88.174896 142.370239 
L 93.39023 141.51144 
L 94.694064 143.862357 
L 95.997897 144.843494 
L 97.301731 151.953356 
L 101.213231 147.177301 
L 102.517065 153.0707 
L 103.820898 150.446786 
L 105.124732 151.844801 
L 106.428565 159.51359 
L 110.340066 169.743364 
L 111.643899 169.949219 
L 112.947733 166.30329 
L 114.251566 158.573212 
L 115.5554 153.684342 
L 119.4669 150.173322 
L 120.770734 162.207088 
L 122.074567 161.583488 
L 123.378401 167.464448 
L 124.682234 158.758311 
L 128.593735 165.209774 
L 129.897568 156.121496 
L 132.505235 153.002197 
L 133.809069 150.127635 
L 137.72057 153.886414 
L 139.024403 158.53256 
L 140.328237 160.125225 
L 141.63207 145.522313 
L 142.935904 140.61211 
L 146.847404 139.080284 
L 148.151238 133.955958 
L 149.455071 130.597245 
L 150.758905 138.770368 
L 152.062738 142.155749 
L 155.974239 143.692237 
L 158.581906 150.582604 
L 159.885739 142.236966 
L 161.189573 140.605522 
L 165.101073 140.281994 
L 166.404907 138.18875 
L 167.70874 133.457883 
L 169.012574 134.39813 
L 170.316407 134.916816 
L 174.227908 133.894446 
L 175.531742 139.0354 
L 176.835575 142.064147 
L 178.139409 141.699982 
L 179.443242 138.008144 
L 183.354743 136.12001 
L 184.658576 137.683897 
L 185.96241 138.237906 
L 187.266243 138.191909 
L 188.570077 140.49137 
L 192.481577 137.818374 
L 193.785411 131.657402 
L 195.089244 131.308782 
L 197.696911 147.668094 
L 201.608412 141.185143 
L 202.912245 154.113918 
L 204.216079 161.785896 
L 205.519912 153.220532 
L 206.823746 158.077612 
L 210.735246 149.025261 
L 212.03908 137.654404 
L 213.342913 134.395807 
L 214.646747 134.910959 
L 215.950581 130.66041 
L 219.862081 137.170403 
L 221.165915 136.746128 
L 222.469748 132.070876 
L 223.773582 131.864161 
L 225.077415 140.091408 
L 228.988916 147.457896 
L 230.292749 135.081502 
L 231.596583 131.859984 
L 232.900416 125.962739 
L 238.11575 117.976301 
L 239.419584 118.380439 
L 240.723417 117.643386 
L 242.027251 118.446985 
L 243.331084 120.997215 
L 247.242585 114.018866 
L 248.546418 107.742684 
L 249.850252 121.962005 
L 251.154085 119.475004 
L 252.457919 115.792136 
L 256.369419 116.337751 
L 257.673253 112.858267 
L 258.977087 112.356296 
L 260.28092 117.473701 
L 261.584754 117.937177 
L 266.800088 132.345987 
L 268.103921 138.144587 
L 269.407755 144.626495 
L 270.711588 157.564352 
L 274.623089 158.627317 
L 275.926922 157.035388 
L 277.230756 157.949528 
L 278.534589 163.709239 
L 279.838423 148.71998 
L 283.749923 138.660226 
L 285.053757 131.202109 
L 286.35759 121.138416 
L 287.661424 149.864181 
L 288.965257 144.925791 
L 292.876758 148.85078 
L 294.180591 144.914459 
L 295.484425 139.305759 
L 296.788258 149.573868 
L 298.092092 162.385527 
L 302.003593 168.160547 
L 303.307426 161.141396 
L 304.61126 162.542412 
L 305.915093 174.570599 
L 307.218927 177.083929 
L 312.434261 182.68691 
L 313.738094 190.626073 
L 315.041928 187.332706 
L 316.345761 173.089305 
L 320.257262 179.252181 
L 321.561095 191.57539 
L 322.864929 177.382335 
L 324.168762 179.10777 
L 325.472596 187.545832 
L 329.384096 208.419951 
L 330.68793 210.998184 
L 331.991763 190.515207 
L 334.59943 204.236264 
L 338.510931 204.840058 
L 339.814765 195.192503 
L 341.118598 181.918873 
L 342.422432 175.520005 
L 343.726265 169.873453 
L 347.637766 169.736128 
L 348.941599 159.283923 
L 350.245433 165.59625 
L 351.549266 156.720802 
L 352.8531 149.766056 
L 356.7646 149.164345 
L 358.068434 145.862888 
L 359.372267 146.232761 
L 360.676101 158.892008 
L 361.979934 155.493215 
L 365.891435 151.738781 
L 367.195268 157.664391 
L 368.499102 165.129207 
L 369.802935 165.703282 
L 371.106769 164.97199 
L 376.322103 177.775896 
L 377.625936 175.305231 
L 378.92977 184.382788 
L 384.145104 180.788271 
L 385.448938 172.313012 
L 386.752771 169.702621 
L 388.056605 177.595645 
L 389.360438 195.094142 
L 393.271939 193.877757 
L 394.575772 203.10415 
L 395.879606 204.821762 
L 397.183439 185.70268 
L 398.487273 203.742985 
L 398.487273 203.742985 
" style="fill:none;stroke:#ff0000;stroke-linecap:square;stroke-opacity:0.9;stroke-width:2;"/>
   </g>
   <g id="line2d_19">
    <path clip-path="url(#p284ddc8a2c)" d="M 73.832727 154.473343 
L 75.136561 151.188452 
L 76.440394 148.925378 
L 77.744228 152.119419 
L 79.048061 146.66906 
L 82.959562 142.76795 
L 84.263395 141.270883 
L 85.567229 142.76196 
L 86.871062 142.010131 
L 88.174896 141.834676 
L 93.39023 141.93222 
L 95.997897 145.090457 
L 97.301731 151.123058 
L 101.213231 145.808195 
L 102.517065 154.211051 
L 103.820898 149.984664 
L 105.124732 151.057156 
L 106.428565 156.573263 
L 110.340066 166.941114 
L 111.643899 167.93621 
L 112.947733 163.656005 
L 114.251566 153.817361 
L 115.5554 148.519643 
L 119.4669 144.148711 
L 120.770734 157.297873 
L 122.074567 156.043797 
L 123.378401 160.505508 
L 124.682234 151.678656 
L 128.593735 163.31695 
L 129.897568 153.346232 
L 131.201402 151.418911 
L 132.505235 149.705613 
L 133.809069 147.469302 
L 137.72057 150.682547 
L 139.024403 155.665274 
L 140.328237 157.027024 
L 141.63207 144.608576 
L 142.935904 143.225885 
L 146.847404 138.599875 
L 148.151238 131.998114 
L 149.455071 129.508655 
L 150.758905 140.749863 
L 152.062738 149.252932 
L 155.974239 148.940271 
L 157.278072 154.431733 
L 158.581906 156.283265 
L 159.885739 147.967345 
L 161.189573 146.865696 
L 166.404907 141.914947 
L 167.70874 136.965079 
L 169.012574 136.472676 
L 170.316407 131.664574 
L 174.227908 130.991515 
L 175.531742 139.022602 
L 176.835575 143.684599 
L 178.139409 144.037233 
L 179.443242 138.810781 
L 183.354743 137.102995 
L 184.658576 139.696571 
L 185.96241 140.427619 
L 187.266243 141.720821 
L 188.570077 142.446474 
L 192.481577 138.458174 
L 193.785411 133.19449 
L 195.089244 133.474932 
L 197.696911 147.239833 
L 201.608412 139.569972 
L 202.912245 151.985986 
L 204.216079 160.824332 
L 205.519912 152.777472 
L 206.823746 157.099101 
L 210.735246 145.446255 
L 212.03908 133.8469 
L 213.342913 129.14489 
L 214.646747 128.690254 
L 215.950581 126.755379 
L 219.862081 133.036074 
L 221.165915 130.05865 
L 222.469748 126.306392 
L 223.773582 123.215476 
L 225.077415 129.907719 
L 228.988916 138.955972 
L 230.292749 123.584068 
L 231.596583 120.795541 
L 232.900416 114.741728 
L 238.11575 106.891848 
L 239.419584 107.136714 
L 240.723417 107.047971 
L 242.027251 107.89758 
L 243.331084 110.863696 
L 247.242585 101.09189 
L 248.546418 92.705921 
L 249.850252 110.45382 
L 251.154085 104.281608 
L 252.457919 102.835825 
L 256.369419 102.516741 
L 257.673253 97.041348 
L 258.977087 95.660723 
L 260.28092 103.833343 
L 261.584754 101.24346 
L 266.800088 115.936294 
L 268.103921 120.52596 
L 269.407755 127.295899 
L 270.711588 142.448195 
L 274.623089 141.696426 
L 275.926922 149.266706 
L 277.230756 149.158001 
L 278.534589 153.005751 
L 279.838423 137.273091 
L 283.749923 123.199761 
L 285.053757 117.590738 
L 286.35759 105.679306 
L 287.661424 147.553867 
L 288.965257 146.05154 
L 292.876758 157.272362 
L 294.180591 158.633039 
L 295.484425 145.381704 
L 296.788258 156.77263 
L 298.092092 170.2569 
L 302.003593 174.285514 
L 303.307426 166.917558 
L 304.61126 169.994551 
L 305.915093 181.25109 
L 307.218927 185.644765 
L 312.434261 191.48081 
L 313.738094 200.137585 
L 315.041928 186.006811 
L 316.345761 175.230865 
L 320.257262 177.690693 
L 321.561095 187.91785 
L 322.864929 175.073205 
L 324.168762 179.341218 
L 325.472596 190.192965 
L 329.384096 215.988472 
L 330.68793 213.602685 
L 331.991763 187.606464 
L 334.59943 206.413331 
L 338.510931 206.746696 
L 339.814765 195.612061 
L 341.118598 176.156202 
L 342.422432 169.733984 
L 343.726265 160.328672 
L 347.637766 162.643579 
L 348.941599 149.610276 
L 350.245433 157.234597 
L 351.549266 148.027556 
L 352.8531 140.853895 
L 356.7646 139.849304 
L 358.068434 135.108688 
L 359.372267 138.54481 
L 360.676101 154.848267 
L 361.979934 153.636689 
L 365.891435 147.534954 
L 367.195268 155.325891 
L 368.499102 164.496657 
L 369.802935 167.143991 
L 371.106769 166.94412 
L 376.322103 180.271957 
L 377.625936 177.747918 
L 378.92977 189.373326 
L 384.145104 182.380524 
L 385.448938 171.203334 
L 386.752771 175.356018 
L 388.056605 191.835661 
L 389.360438 211.021193 
L 393.271939 207.376259 
L 394.575772 221.20449 
L 395.879606 227.627059 
L 397.183439 194.877545 
L 398.487273 212.878939 
L 398.487273 212.878939 
" style="fill:none;stroke:#ff8040;stroke-linecap:square;stroke-opacity:0.9;stroke-width:2;"/>
   </g>
   <g id="line2d_20">
    <path clip-path="url(#p284ddc8a2c)" d="M 73.832727 155.095512 
L 75.136561 153.043049 
L 76.440394 153.497412 
L 77.744228 156.576027 
L 79.048061 149.247338 
L 82.959562 151.895342 
L 84.263395 152.105854 
L 85.567229 153.814412 
L 86.871062 156.9337 
L 88.174896 156.526867 
L 93.39023 155.554423 
L 94.694064 158.407029 
L 95.997897 160.02037 
L 97.301731 171.063701 
L 101.213231 165.776194 
L 102.517065 172.524442 
L 103.820898 168.840459 
L 105.124732 170.299849 
L 106.428565 175.919367 
L 110.340066 184.028774 
L 111.643899 184.691932 
L 112.947733 179.399813 
L 114.251566 170.860414 
L 115.5554 165.803757 
L 119.4669 166.917611 
L 120.770734 180.354182 
L 122.074567 179.404652 
L 123.378401 186.830009 
L 124.682234 178.340158 
L 128.593735 182.444904 
L 129.897568 173.927724 
L 131.201402 173.25918 
L 132.505235 171.515969 
L 133.809069 169.081171 
L 137.72057 171.748555 
L 139.024403 176.228334 
L 140.328237 179.206979 
L 141.63207 164.216063 
L 142.935904 161.475137 
L 146.847404 161.714156 
L 148.151238 155.361299 
L 149.455071 151.20298 
L 150.758905 162.789266 
L 152.062738 169.638566 
L 155.974239 171.425751 
L 157.278072 173.296483 
L 158.581906 174.941372 
L 159.885739 167.1447 
L 161.189573 165.529746 
L 165.101073 163.88899 
L 166.404907 162.175131 
L 167.70874 159.120321 
L 169.012574 161.010534 
L 170.316407 163.674931 
L 174.227908 163.48756 
L 176.835575 172.610146 
L 178.139409 172.402562 
L 179.443242 167.480203 
L 183.354743 166.524296 
L 184.658576 170.15359 
L 185.96241 169.929855 
L 187.266243 172.80885 
L 188.570077 175.352102 
L 192.481577 174.819077 
L 193.785411 166.610854 
L 195.089244 166.940871 
L 197.696911 179.434567 
L 201.608412 174.265547 
L 202.912245 189.329558 
L 204.216079 194.84747 
L 205.519912 184.937746 
L 206.823746 190.008414 
L 210.735246 179.032853 
L 212.03908 167.299396 
L 213.342913 165.50408 
L 214.646747 165.248595 
L 215.950581 163.413684 
L 219.862081 167.210189 
L 221.165915 166.685995 
L 222.469748 161.01293 
L 223.773582 164.51385 
L 225.077415 169.888031 
L 228.988916 176.973235 
L 230.292749 165.709082 
L 231.596583 160.589288 
L 232.900416 156.659655 
L 238.11575 149.769212 
L 239.419584 148.30618 
L 240.723417 148.212501 
L 242.027251 149.379616 
L 243.331084 153.144359 
L 247.242585 148.565611 
L 248.546418 143.361337 
L 249.850252 157.859411 
L 251.154085 156.542829 
L 252.457919 154.884725 
L 256.369419 154.324309 
L 257.673253 149.408077 
L 258.977087 149.334676 
L 260.28092 154.466071 
L 261.584754 155.244308 
L 266.800088 169.979953 
L 269.407755 181.280563 
L 270.711588 194.422829 
L 274.623089 196.195692 
L 275.926922 196.661004 
L 277.230756 198.658325 
L 278.534589 203.711706 
L 279.838423 192.209497 
L 283.749923 181.47297 
L 285.053757 173.800758 
L 286.35759 163.554311 
L 287.661424 201.72522 
L 288.965257 196.332085 
L 292.876758 201.108483 
L 294.180591 198.397905 
L 295.484425 189.384433 
L 296.788258 199.512214 
L 298.092092 211.882204 
L 302.003593 217.281404 
L 303.307426 211.189429 
L 304.61126 211.662799 
L 305.915093 226.266763 
L 307.218927 228.382141 
L 312.434261 233.642266 
L 313.738094 240.010357 
L 315.041928 237.683245 
L 316.345761 225.621815 
L 320.257262 229.822104 
L 321.561095 239.738206 
L 322.864929 229.238799 
L 324.168762 230.900991 
L 325.472596 243.707768 
L 329.384096 260.923202 
L 330.68793 264.550928 
L 331.991763 247.744516 
L 333.295597 253.915757 
L 334.59943 258.54791 
L 338.510931 262.140393 
L 339.814765 254.135523 
L 341.118598 244.148227 
L 342.422432 235.97142 
L 343.726265 229.301139 
L 347.637766 229.004353 
L 348.941599 219.845065 
L 350.245433 227.139532 
L 351.549266 219.986234 
L 352.8531 214.439753 
L 356.7646 213.260066 
L 358.068434 209.9811 
L 359.372267 209.684739 
L 360.676101 219.862888 
L 361.979934 217.133452 
L 365.891435 215.133168 
L 367.195268 220.055739 
L 368.499102 229.424484 
L 369.802935 228.050031 
L 371.106769 231.217867 
L 375.018269 238.711219 
L 376.322103 241.536703 
L 377.625936 238.785881 
L 378.92977 247.322096 
L 384.145104 245.481848 
L 385.448938 238.006162 
L 386.752771 237.622957 
L 388.056605 246.967633 
L 389.360438 261.347317 
L 393.271939 258.492395 
L 394.575772 263.987436 
L 395.879606 265.797818 
L 397.183439 248.603304 
L 398.487273 263.92118 
L 398.487273 263.92118 
" style="fill:none;stroke:#0d0d0d;stroke-linecap:square;stroke-opacity:0.25;stroke-width:2;"/>
   </g>
   <g id="line2d_21">
    <path clip-path="url(#p284ddc8a2c)" d="M 73.832727 153.851174 
L 75.136561 148.326146 
L 76.440394 144.499961 
L 77.744228 148.199967 
L 79.048061 140.417279 
L 82.959562 134.183772 
L 84.263395 133.662769 
L 85.567229 131.690892 
L 86.871062 128.741954 
L 88.174896 128.944074 
L 93.39023 129.364715 
L 94.694064 132.224839 
L 95.997897 133.696234 
L 97.301731 140.009858 
L 101.213231 134.131978 
L 102.517065 141.842763 
L 103.820898 139.385502 
L 105.124732 141.130064 
L 106.428565 147.169539 
L 110.340066 158.392065 
L 111.643899 158.322416 
L 112.947733 151.966546 
L 114.251566 144.345137 
L 115.5554 138.224525 
L 119.4669 133.894101 
L 120.770734 145.437733 
L 122.074567 145.478026 
L 123.378401 151.384927 
L 124.682234 141.345968 
L 128.593735 149.477302 
L 129.897568 136.714575 
L 131.201402 135.652435 
L 133.809069 129.559091 
L 137.72057 133.364734 
L 139.024403 138.272711 
L 140.328237 138.82146 
L 141.63207 122.803475 
L 142.935904 119.358973 
L 146.847404 117.725547 
L 148.151238 112.30839 
L 149.455071 108.601503 
L 150.758905 114.221769 
L 152.062738 118.091654 
L 155.974239 118.867243 
L 157.278072 119.392978 
L 158.581906 121.61043 
L 159.885739 112.195546 
L 161.189573 112.848856 
L 165.101073 108.603712 
L 166.404907 106.618711 
L 167.70874 100.712891 
L 169.012574 98.960015 
L 170.316407 99.71502 
L 174.227908 98.437435 
L 175.531742 104.919331 
L 176.835575 108.115359 
L 178.139409 107.458983 
L 179.443242 101.846428 
L 183.354743 100.138534 
L 184.658576 104.268191 
L 185.96241 103.313471 
L 188.570077 105.488371 
L 192.481577 98.26965 
L 193.785411 93.157792 
L 195.089244 92.407773 
L 197.696911 109.206329 
L 201.608412 101.485021 
L 202.912245 118.511009 
L 204.216079 124.64528 
L 205.519912 114.389488 
L 206.823746 119.569918 
L 210.735246 107.339131 
L 212.03908 93.727222 
L 213.342913 88.263741 
L 214.646747 89.124143 
L 215.950581 86.436766 
L 219.862081 93.521352 
L 221.165915 92.909422 
L 222.469748 86.118743 
L 223.773582 80.716142 
L 225.077415 88.686179 
L 228.988916 97.929111 
L 230.292749 86.075295 
L 231.596583 82.52028 
L 232.900416 74.272257 
L 238.11575 64.123246 
L 239.419584 63.318196 
L 240.723417 64.198545 
L 242.027251 64.724405 
L 243.331084 68.241034 
L 247.242585 62.747084 
L 248.546418 52.154182 
L 249.850252 71.341956 
L 251.154085 66.063303 
L 252.457919 61.770284 
L 256.369419 60.359446 
L 257.673253 53.021318 
L 258.977087 53.680866 
L 260.28092 60.076825 
L 261.584754 56.296714 
L 268.103921 79.991001 
L 269.407755 86.654481 
L 270.711588 102.628887 
L 274.623089 104.421384 
L 275.926922 106.592694 
L 277.230756 105.611762 
L 278.534589 111.932541 
L 279.838423 94.461127 
L 283.749923 84.340034 
L 285.053757 76.076087 
L 286.35759 63.53684 
L 287.661424 87.172028 
L 288.965257 82.064481 
L 292.876758 91.276689 
L 294.180591 92.411601 
L 295.484425 85.367481 
L 296.788258 97.860589 
L 298.092092 111.871881 
L 302.003593 117.8514 
L 303.307426 108.306348 
L 304.61126 110.24985 
L 305.915093 121.109193 
L 307.218927 123.585984 
L 312.434261 128.580696 
L 313.738094 137.448692 
L 315.041928 127.506962 
L 316.345761 111.7676 
L 320.257262 118.752169 
L 321.561095 131.482324 
L 322.864929 117.131551 
L 324.168762 119.571978 
L 329.384096 156.035021 
L 330.68793 155.538658 
L 331.991763 129.072308 
L 333.295597 139.453405 
L 334.59943 146.319857 
L 338.510931 144.042194 
L 339.814765 132.29834 
L 341.118598 117.922276 
L 342.422432 110.771034 
L 343.726265 101.765864 
L 347.637766 103.393978 
L 348.941599 90.147175 
L 350.245433 98.819997 
L 352.8531 82.33471 
L 356.7646 79.993004 
L 358.068434 77.283104 
L 359.372267 76.933224 
L 360.676101 93.969532 
L 361.979934 89.29235 
L 365.891435 85.567585 
L 367.195268 91.345312 
L 368.499102 101.886365 
L 369.802935 100.04548 
L 371.106769 99.254486 
L 376.322103 114.203694 
L 377.625936 111.220858 
L 378.92977 118.367409 
L 384.145104 112.028528 
L 385.448938 102.184037 
L 386.752771 94.098253 
L 388.056605 99.422459 
L 389.360438 119.170805 
L 393.271939 118.14627 
L 394.575772 129.832247 
L 395.879606 135.150383 
L 397.183439 101.025282 
L 398.487273 120.186898 
L 398.487273 120.186898 
" style="fill:none;stroke:#0d0d0d;stroke-linecap:square;stroke-opacity:0.25;stroke-width:2;"/>
   </g>
   <g id="patch_3">
    <path d="M 57.6 276.48 
L 57.6 41.472 
" style="fill:none;stroke:#000000;stroke-linecap:square;stroke-linejoin:miter;stroke-width:0.8;"/>
   </g>
   <g id="patch_4">
    <path d="M 414.72 276.48 
L 414.72 41.472 
" style="fill:none;stroke:#000000;stroke-linecap:square;stroke-linejoin:miter;stroke-width:0.8;"/>
   </g>
   <g id="patch_5">
    <path d="M 57.6 276.48 
L 414.72 276.48 
" style="fill:none;stroke:#000000;stroke-linecap:square;stroke-linejoin:miter;stroke-width:0.8;"/>
   </g>
   <g id="patch_6">
    <path d="M 57.6 41.472 
L 414.72 41.472 
" style="fill:none;stroke:#000000;stroke-linecap:square;stroke-linejoin:miter;stroke-width:0.8;"/>
   </g>
   <g id="text_18">
    <!-- TESTFUNDS0830 -->
    <g transform="translate(185.200312 22.034625)scale(0.12 -0.12)">
     <defs>
      <path d="M -19 4666 
L 3928 4666 
L 3928 4134 
L 2272 4134 
L 2272 0 
L 1638 0 
L 1638 4134 
L -19 4134 
L -19 4666 
z
" id="DejaVuSans-54" transform="scale(0.015625)"/>
      <path d="M 628 4666 
L 3578 4666 
L 3578 4134 
L 1259 4134 
L 1259 2753 
L 3481 2753 
L 3481 2222 
L 1259 2222 
L 1259 531 
L 3634 531 
L 3634 0 
L 628 0 
L 628 4666 
z
" id="DejaVuSans-45" transform="scale(0.015625)"/>
      <path d="M 3425 4513 
L 3425 3897 
Q 3066 4069 2747 4153 
Q 2428 4238 2131 4238 
Q 1616 4238 1336 4038 
Q 1056 3838 1056 3469 
Q 1056 3159 1242 3001 
Q 1428 2844 1947 2747 
L 2328 2669 
Q 3034 2534 3370 2195 
Q 3706 1856 3706 1288 
Q 3706 609 3251 259 
Q 2797 -91 1919 -91 
Q 1588 -91 1214 -16 
Q 841 59 441 206 
L 441 856 
Q 825 641 1194 531 
Q 1563 422 1919 422 
Q 2459 422 2753 634 
Q 3047 847 3047 1241 
Q 3047 1584 2836 1778 
Q 2625 1972 2144 2069 
L 1759 2144 
Q 1053 2284 737 2584 
Q 422 2884 422 3419 
Q 422 4038 858 4394 
Q 1294 4750 2059 4750 
Q 2388 4750 2728 4690 
Q 3069 4631 3425 4513 
z
" id="DejaVuSans-53" transform="scale(0.015625)"/>
      <path d="M 628 4666 
L 3309 4666 
L 3309 4134 
L 1259 4134 
L 1259 2759 
L 3109 2759 
L 3109 2228 
L 1259 2228 
L 1259 0 
L 628 0 
L 628 4666 
z
" id="DejaVuSans-46" transform="scale(0.015625)"/>
      <path d="M 556 4666 
L 1191 4666 
L 1191 1831 
Q 1191 1081 1462 751 
Q 1734 422 2344 422 
Q 2950 422 3222 751 
Q 3494 1081 3494 1831 
L 3494 4666 
L 4128 4666 
L 4128 1753 
Q 4128 841 3676 375 
Q 3225 -91 2344 -91 
Q 1459 -91 1007 375 
Q 556 841 556 1753 
L 556 4666 
z
" id="DejaVuSans-55" transform="scale(0.015625)"/>
      <path d="M 628 4666 
L 1478 4666 
L 3547 763 
L 3547 4666 
L 4159 4666 
L 4159 0 
L 3309 0 
L 1241 3903 
L 1241 0 
L 628 0 
L 628 4666 
z
" id="DejaVuSans-4e" transform="scale(0.015625)"/>
      <path d="M 1259 4147 
L 1259 519 
L 2022 519 
Q 2988 519 3436 956 
Q 3884 1394 3884 2338 
Q 3884 3275 3436 3711 
Q 2988 4147 2022 4147 
L 1259 4147 
z
M 628 4666 
L 1925 4666 
Q 3281 4666 3915 4102 
Q 4550 3538 4550 2338 
Q 4550 1131 3912 565 
Q 3275 0 1925 0 
L 628 0 
L 628 4666 
z
" id="DejaVuSans-44" transform="scale(0.015625)"/>
     </defs>
     <use xlink:href="#DejaVuSans-54"/>
     <use x="61.083984" xlink:href="#DejaVuSans-45"/>
     <use x="124.267578" xlink:href="#DejaVuSans-53"/>
     <use x="187.744141" xlink:href="#DejaVuSans-54"/>
     <use x="248.828125" xlink:href="#DejaVuSans-46"/>
     <use x="306.347656" xlink:href="#DejaVuSans-55"/>
     <use x="379.541016" xlink:href="#DejaVuSans-4e"/>
     <use x="454.345703" xlink:href="#DejaVuSans-44"/>
     <use x="531.347656" xlink:href="#DejaVuSans-53"/>
     <use x="594.824219" xlink:href="#DejaVuSans-30"/>
     <use x="658.447266" xlink:href="#DejaVuSans-38"/>
     <use x="722.070312" xlink:href="#DejaVuSans-33"/>
     <use x="785.693359" xlink:href="#DejaVuSans-30"/>
    </g>
    <!-- daily_report -->
    <g transform="translate(200.466563 35.472)scale(0.12 -0.12)">
     <defs>
      <path d="M 603 3500 
L 1178 3500 
L 1178 0 
L 603 0 
L 603 3500 
z
M 603 4863 
L 1178 4863 
L 1178 4134 
L 603 4134 
L 603 4863 
z
" id="DejaVuSans-69" transform="scale(0.015625)"/>
      <path d="M 603 4863 
L 1178 4863 
L 1178 0 
L 603 0 
L 603 4863 
z
" id="DejaVuSans-6c" transform="scale(0.015625)"/>
      <path d="M 2059 -325 
Q 1816 -950 1584 -1140 
Q 1353 -1331 966 -1331 
L 506 -1331 
L 506 -850 
L 844 -850 
Q 1081 -850 1212 -737 
Q 1344 -625 1503 -206 
L 1606 56 
L 191 3500 
L 800 3500 
L 1894 763 
L 2988 3500 
L 3597 3500 
L 2059 -325 
z
" id="DejaVuSans-79" transform="scale(0.015625)"/>
      <path d="M 3263 -1063 
L 3263 -1509 
L -63 -1509 
L -63 -1063 
L 3263 -1063 
z
" id="DejaVuSans-5f" transform="scale(0.015625)"/>
      <path d="M 2631 2963 
Q 2534 3019 2420 3045 
Q 2306 3072 2169 3072 
Q 1681 3072 1420 2755 
Q 1159 2438 1159 1844 
L 1159 0 
L 581 0 
L 581 3500 
L 1159 3500 
L 1159 2956 
Q 1341 3275 1631 3429 
Q 1922 3584 2338 3584 
Q 2397 3584 2469 3576 
Q 2541 3569 2628 3553 
L 2631 2963 
z
" id="DejaVuSans-72" transform="scale(0.015625)"/>
      <path d="M 1159 525 
L 1159 -1331 
L 581 -1331 
L 581 3500 
L 1159 3500 
L 1159 2969 
Q 1341 3281 1617 3432 
Q 1894 3584 2278 3584 
Q 2916 3584 3314 3078 
Q 3713 2572 3713 1747 
Q 3713 922 3314 415 
Q 2916 -91 2278 -91 
Q 1894 -91 1617 61 
Q 1341 213 1159 525 
z
M 3116 1747 
Q 3116 2381 2855 2742 
Q 2594 3103 2138 3103 
Q 1681 3103 1420 2742 
Q 1159 2381 1159 1747 
Q 1159 1113 1420 752 
Q 1681 391 2138 391 
Q 2594 391 2855 752 
Q 3116 1113 3116 1747 
z
" id="DejaVuSans-70" transform="scale(0.015625)"/>
      <path d="M 1959 3097 
Q 1497 3097 1228 2736 
Q 959 2375 959 1747 
Q 959 1119 1226 758 
Q 1494 397 1959 397 
Q 2419 397 2687 759 
Q 2956 1122 2956 1747 
Q 2956 2369 2687 2733 
Q 2419 3097 1959 3097 
z
M 1959 3584 
Q 2709 3584 3137 3096 
Q 3566 2609 3566 1747 
Q 3566 888 3137 398 
Q 2709 -91 1959 -91 
Q 1206 -91 779 398 
Q 353 888 353 1747 
Q 353 2609 779 3096 
Q 1206 3584 1959 3584 
z
" id="DejaVuSans-6f" transform="scale(0.015625)"/>
     </defs>
     <use xlink:href="#DejaVuSans-64"/>
     <use x="63.476562" xlink:href="#DejaVuSans-61"/>
     <use x="124.755859" xlink:href="#DejaVuSans-69"/>
     <use x="152.539062" xlink:href="#DejaVuSans-6c"/>
     <use x="180.322266" xlink:href="#DejaVuSans-79"/>
     <use x="239.501953" xlink:href="#DejaVuSans-5f"/>
     <use x="289.501953" xlink:href="#DejaVuSans-72"/>
     <use x="328.365234" xlink:href="#DejaVuSans-65"/>
     <use x="389.888672" xlink:href="#DejaVuSans-70"/>
     <use x="453.365234" xlink:href="#DejaVuSans-6f"/>
     <use x="514.546875" xlink:href="#DejaVuSans-72"/>
     <use x="555.660156" xlink:href="#DejaVuSans-74"/>
    </g>
   </g>
   <g id="legend_1">
    <g id="patch_7">
     <path d="M 64.6 271.48 
L 155.792188 271.48 
Q 157.792188 271.48 157.792188 269.48 
L 157.792188 197.089375 
Q 157.792188 195.089375 155.792188 195.089375 
L 64.6 195.089375 
Q 62.6 195.089375 62.6 197.089375 
L 62.6 269.48 
Q 62.6 271.48 64.6 271.48 
z
" style="fill:#ffffff;opacity:0.8;stroke:#cccccc;stroke-linejoin:miter;"/>
    </g>
    <g id="line2d_22">
     <path d="M 66.6 203.187812 
L 86.6 203.187812 
" style="fill:none;stroke:#0000ff;stroke-linecap:square;stroke-opacity:0.9;stroke-width:2;"/>
    </g>
    <g id="line2d_23"/>
    <g id="text_19">
     <!-- alpaca -->
     <g transform="translate(94.6 206.687812)scale(0.1 -0.1)">
      <defs>
       <path d="M 3122 3366 
L 3122 2828 
Q 2878 2963 2633 3030 
Q 2388 3097 2138 3097 
Q 1578 3097 1268 2742 
Q 959 2388 959 1747 
Q 959 1106 1268 751 
Q 1578 397 2138 397 
Q 2388 397 2633 464 
Q 2878 531 3122 666 
L 3122 134 
Q 2881 22 2623 -34 
Q 2366 -91 2075 -91 
Q 1284 -91 818 406 
Q 353 903 353 1747 
Q 353 2603 823 3093 
Q 1294 3584 2113 3584 
Q 2378 3584 2631 3529 
Q 2884 3475 3122 3366 
z
" id="DejaVuSans-63" transform="scale(0.015625)"/>
      </defs>
      <use xlink:href="#DejaVuSans-61"/>
      <use x="61.279297" xlink:href="#DejaVuSans-6c"/>
      <use x="89.0625" xlink:href="#DejaVuSans-70"/>
      <use x="152.539062" xlink:href="#DejaVuSans-61"/>
      <use x="213.818359" xlink:href="#DejaVuSans-63"/>
      <use x="268.798828" xlink:href="#DejaVuSans-61"/>
     </g>
    </g>
    <g id="line2d_24">
     <path d="M 66.6 217.865937 
L 86.6 217.865937 
" style="fill:none;stroke:#ff0000;stroke-linecap:square;stroke-opacity:0.9;stroke-width:2;"/>
    </g>
    <g id="line2d_25"/>
    <g id="text_20">
     <!-- mattress -->
     <g transform="translate(94.6 221.365937)scale(0.1 -0.1)">
      <defs>
       <path d="M 3328 2828 
Q 3544 3216 3844 3400 
Q 4144 3584 4550 3584 
Q 5097 3584 5394 3201 
Q 5691 2819 5691 2113 
L 5691 0 
L 5113 0 
L 5113 2094 
Q 5113 2597 4934 2840 
Q 4756 3084 4391 3084 
Q 3944 3084 3684 2787 
Q 3425 2491 3425 1978 
L 3425 0 
L 2847 0 
L 2847 2094 
Q 2847 2600 2669 2842 
Q 2491 3084 2119 3084 
Q 1678 3084 1418 2786 
Q 1159 2488 1159 1978 
L 1159 0 
L 581 0 
L 581 3500 
L 1159 3500 
L 1159 2956 
Q 1356 3278 1631 3431 
Q 1906 3584 2284 3584 
Q 2666 3584 2933 3390 
Q 3200 3197 3328 2828 
z
" id="DejaVuSans-6d" transform="scale(0.015625)"/>
       <path d="M 2834 3397 
L 2834 2853 
Q 2591 2978 2328 3040 
Q 2066 3103 1784 3103 
Q 1356 3103 1142 2972 
Q 928 2841 928 2578 
Q 928 2378 1081 2264 
Q 1234 2150 1697 2047 
L 1894 2003 
Q 2506 1872 2764 1633 
Q 3022 1394 3022 966 
Q 3022 478 2636 193 
Q 2250 -91 1575 -91 
Q 1294 -91 989 -36 
Q 684 19 347 128 
L 347 722 
Q 666 556 975 473 
Q 1284 391 1588 391 
Q 1994 391 2212 530 
Q 2431 669 2431 922 
Q 2431 1156 2273 1281 
Q 2116 1406 1581 1522 
L 1381 1569 
Q 847 1681 609 1914 
Q 372 2147 372 2553 
Q 372 3047 722 3315 
Q 1072 3584 1716 3584 
Q 2034 3584 2315 3537 
Q 2597 3491 2834 3397 
z
" id="DejaVuSans-73" transform="scale(0.015625)"/>
      </defs>
      <use xlink:href="#DejaVuSans-6d"/>
      <use x="97.412109" xlink:href="#DejaVuSans-61"/>
      <use x="158.691406" xlink:href="#DejaVuSans-74"/>
      <use x="197.900391" xlink:href="#DejaVuSans-74"/>
      <use x="237.109375" xlink:href="#DejaVuSans-72"/>
      <use x="275.972656" xlink:href="#DejaVuSans-65"/>
      <use x="337.496094" xlink:href="#DejaVuSans-73"/>
      <use x="389.595703" xlink:href="#DejaVuSans-73"/>
     </g>
    </g>
    <g id="line2d_26">
     <path d="M 66.6 232.544062 
L 86.6 232.544062 
" style="fill:none;stroke:#ff8040;stroke-linecap:square;stroke-opacity:0.9;stroke-width:2;"/>
    </g>
    <g id="line2d_27"/>
    <g id="text_21">
     <!-- trader-0850 -->
     <g transform="translate(94.6 236.044062)scale(0.1 -0.1)">
      <use xlink:href="#DejaVuSans-74"/>
      <use x="39.208984" xlink:href="#DejaVuSans-72"/>
      <use x="80.322266" xlink:href="#DejaVuSans-61"/>
      <use x="141.601562" xlink:href="#DejaVuSans-64"/>
      <use x="205.078125" xlink:href="#DejaVuSans-65"/>
      <use x="266.601562" xlink:href="#DejaVuSans-72"/>
      <use x="301.339844" xlink:href="#DejaVuSans-2d"/>
      <use x="337.423828" xlink:href="#DejaVuSans-30"/>
      <use x="401.046875" xlink:href="#DejaVuSans-38"/>
      <use x="464.669922" xlink:href="#DejaVuSans-35"/>
      <use x="528.292969" xlink:href="#DejaVuSans-30"/>
     </g>
    </g>
    <g id="line2d_28">
     <path d="M 66.6 247.222187 
L 86.6 247.222187 
" style="fill:none;stroke:#0d0d0d;stroke-linecap:square;stroke-opacity:0.25;stroke-width:2;"/>
    </g>
    <g id="line2d_29"/>
    <g id="text_22">
     <!-- rando-min -->
     <g transform="translate(94.6 250.722187)scale(0.1 -0.1)">
      <defs>
       <path d="M 3513 2113 
L 3513 0 
L 2938 0 
L 2938 2094 
Q 2938 2591 2744 2837 
Q 2550 3084 2163 3084 
Q 1697 3084 1428 2787 
Q 1159 2491 1159 1978 
L 1159 0 
L 581 0 
L 581 3500 
L 1159 3500 
L 1159 2956 
Q 1366 3272 1645 3428 
Q 1925 3584 2291 3584 
Q 2894 3584 3203 3211 
Q 3513 2838 3513 2113 
z
" id="DejaVuSans-6e" transform="scale(0.015625)"/>
      </defs>
      <use xlink:href="#DejaVuSans-72"/>
      <use x="41.113281" xlink:href="#DejaVuSans-61"/>
      <use x="102.392578" xlink:href="#DejaVuSans-6e"/>
      <use x="165.771484" xlink:href="#DejaVuSans-64"/>
      <use x="229.248047" xlink:href="#DejaVuSans-6f"/>
      <use x="292.304688" xlink:href="#DejaVuSans-2d"/>
      <use x="328.388672" xlink:href="#DejaVuSans-6d"/>
      <use x="425.800781" xlink:href="#DejaVuSans-69"/>
      <use x="453.583984" xlink:href="#DejaVuSans-6e"/>
     </g>
    </g>
    <g id="line2d_30">
     <path d="M 66.6 261.900312 
L 86.6 261.900312 
" style="fill:none;stroke:#0d0d0d;stroke-linecap:square;stroke-opacity:0.25;stroke-width:2;"/>
    </g>
    <g id="line2d_31"/>
    <g id="text_23">
     <!-- rando-max -->
     <g transform="translate(94.6 265.400312)scale(0.1 -0.1)">
      <defs>
       <path d="M 3513 3500 
L 2247 1797 
L 3578 0 
L 2900 0 
L 1881 1375 
L 863 0 
L 184 0 
L 1544 1831 
L 300 3500 
L 978 3500 
L 1906 2253 
L 2834 3500 
L 3513 3500 
z
" id="DejaVuSans-78" transform="scale(0.015625)"/>
      </defs>
      <use xlink:href="#DejaVuSans-72"/>
      <use x="41.113281" xlink:href="#DejaVuSans-61"/>
      <use x="102.392578" xlink:href="#DejaVuSans-6e"/>
      <use x="165.771484" xlink:href="#DejaVuSans-64"/>
      <use x="229.248047" xlink:href="#DejaVuSans-6f"/>
      <use x="292.304688" xlink:href="#DejaVuSans-2d"/>
      <use x="328.388672" xlink:href="#DejaVuSans-6d"/>
      <use x="425.800781" xlink:href="#DejaVuSans-61"/>
      <use x="487.080078" xlink:href="#DejaVuSans-78"/>
     </g>
    </g>
   </g>
  </g>
 </g>
 <defs>
  <clipPath id="p284ddc8a2c">
   <rect height="235.008" width="357.12" x="57.6" y="41.472"/>
  </clipPath>
 </defs>
</svg>
