<?xml version="1.0" encoding="utf-8" standalone="no"?>
<!DOCTYPE svg PUBLIC "-//W3C//DTD SVG 1.1//EN"
  "http://www.w3.org/Graphics/SVG/1.1/DTD/svg11.dtd">
<svg height="345.6pt" version="1.1" viewBox="0 0 460.8 345.6" width="460.8pt" xmlns="http://www.w3.org/2000/svg" xmlns:xlink="http://www.w3.org/1999/xlink">
 <metadata>
  <rdf:RDF xmlns:cc="http://creativecommons.org/ns#" xmlns:dc="http://purl.org/dc/elements/1.1/" xmlns:rdf="http://www.w3.org/1999/02/22-rdf-syntax-ns#">
   <cc:Work>
    <dc:type rdf:resource="http://purl.org/dc/dcmitype/StillImage"/>
    <dc:date>2022-03-18T10:01:50.384108</dc:date>
    <dc:format>image/svg+xml</dc:format>
    <dc:creator>
     <cc:Agent>
      <dc:title>Matplotlib v3.4.3, https://matplotlib.org/</dc:title>
     </cc:Agent>
    </dc:creator>
   </cc:Work>
  </rdf:RDF>
 </metadata>
 <defs>
  <style type="text/css">*{stroke-linecap:butt;stroke-linejoin:round;}</style>
 </defs>
 <g id="figure_1">
  <g id="patch_1">
   <path d="M 0 345.6 
L 460.8 345.6 
L 460.8 0 
L 0 0 
z
" style="fill:#ffffff;"/>
  </g>
  <g id="axes_1">
   <g id="patch_2">
    <path d="M 57.6 276.48 
L 414.72 276.48 
L 414.72 41.472 
L 57.6 41.472 
z
" style="fill:#ffffff;"/>
   </g>
   <g id="matplotlib.axis_1">
    <g id="xtick_1">
     <g id="line2d_1">
      <defs>
       <path d="M 0 0 
L 0 3.5 
" id="m7189da9be6" style="stroke:#000000;stroke-width:0.8;"/>
      </defs>
      <g>
       <use style="stroke:#000000;stroke-width:0.8;" x="65.648159" xlink:href="#m7189da9be6" y="276.48"/>
      </g>
     </g>
     <g id="text_1">
      <!-- 2021-11-15 -->
      <g transform="translate(14.278708 319.118252)rotate(-30)scale(0.1 -0.1)">
       <defs>
        <path d="M 1228 531 
L 3431 531 
L 3431 0 
L 469 0 
L 469 531 
Q 828 903 1448 1529 
Q 2069 2156 2228 2338 
Q 2531 2678 2651 2914 
Q 2772 3150 2772 3378 
Q 2772 3750 2511 3984 
Q 2250 4219 1831 4219 
Q 1534 4219 1204 4116 
Q 875 4013 500 3803 
L 500 4441 
Q 881 4594 1212 4672 
Q 1544 4750 1819 4750 
Q 2544 4750 2975 4387 
Q 3406 4025 3406 3419 
Q 3406 3131 3298 2873 
Q 3191 2616 2906 2266 
Q 2828 2175 2409 1742 
Q 1991 1309 1228 531 
z
" id="DejaVuSans-32" transform="scale(0.015625)"/>
        <path d="M 2034 4250 
Q 1547 4250 1301 3770 
Q 1056 3291 1056 2328 
Q 1056 1369 1301 889 
Q 1547 409 2034 409 
Q 2525 409 2770 889 
Q 3016 1369 3016 2328 
Q 3016 3291 2770 3770 
Q 2525 4250 2034 4250 
z
M 2034 4750 
Q 2819 4750 3233 4129 
Q 3647 3509 3647 2328 
Q 3647 1150 3233 529 
Q 2819 -91 2034 -91 
Q 1250 -91 836 529 
Q 422 1150 422 2328 
Q 422 3509 836 4129 
Q 1250 4750 2034 4750 
z
" id="DejaVuSans-30" transform="scale(0.015625)"/>
        <path d="M 794 531 
L 1825 531 
L 1825 4091 
L 703 3866 
L 703 4441 
L 1819 4666 
L 2450 4666 
L 2450 531 
L 3481 531 
L 3481 0 
L 794 0 
L 794 531 
z
" id="DejaVuSans-31" transform="scale(0.015625)"/>
        <path d="M 313 2009 
L 1997 2009 
L 1997 1497 
L 313 1497 
L 313 2009 
z
" id="DejaVuSans-2d" transform="scale(0.015625)"/>
        <path d="M 691 4666 
L 3169 4666 
L 3169 4134 
L 1269 4134 
L 1269 2991 
Q 1406 3038 1543 3061 
Q 1681 3084 1819 3084 
Q 2600 3084 3056 2656 
Q 3513 2228 3513 1497 
Q 3513 744 3044 326 
Q 2575 -91 1722 -91 
Q 1428 -91 1123 -41 
Q 819 9 494 109 
L 494 744 
Q 775 591 1075 516 
Q 1375 441 1709 441 
Q 2250 441 2565 725 
Q 2881 1009 2881 1497 
Q 2881 1984 2565 2268 
Q 2250 2553 1709 2553 
Q 1456 2553 1204 2497 
Q 953 2441 691 2322 
L 691 4666 
z
" id="DejaVuSans-35" transform="scale(0.015625)"/>
       </defs>
       <use xlink:href="#DejaVuSans-32"/>
       <use x="63.623047" xlink:href="#DejaVuSans-30"/>
       <use x="127.246094" xlink:href="#DejaVuSans-32"/>
       <use x="190.869141" xlink:href="#DejaVuSans-31"/>
       <use x="254.492188" xlink:href="#DejaVuSans-2d"/>
       <use x="290.576172" xlink:href="#DejaVuSans-31"/>
       <use x="354.199219" xlink:href="#DejaVuSans-31"/>
       <use x="417.822266" xlink:href="#DejaVuSans-2d"/>
       <use x="453.90625" xlink:href="#DejaVuSans-31"/>
       <use x="517.529297" xlink:href="#DejaVuSans-35"/>
      </g>
     </g>
    </g>
    <g id="xtick_2">
     <g id="line2d_2">
      <g>
       <use style="stroke:#000000;stroke-width:0.8;" x="109.29919" xlink:href="#m7189da9be6" y="276.48"/>
      </g>
     </g>
     <g id="text_2">
      <!-- 2021-12-01 -->
      <g transform="translate(57.929739 319.118252)rotate(-30)scale(0.1 -0.1)">
       <use xlink:href="#DejaVuSans-32"/>
       <use x="63.623047" xlink:href="#DejaVuSans-30"/>
       <use x="127.246094" xlink:href="#DejaVuSans-32"/>
       <use x="190.869141" xlink:href="#DejaVuSans-31"/>
       <use x="254.492188" xlink:href="#DejaVuSans-2d"/>
       <use x="290.576172" xlink:href="#DejaVuSans-31"/>
       <use x="354.199219" xlink:href="#DejaVuSans-32"/>
       <use x="417.822266" xlink:href="#DejaVuSans-2d"/>
       <use x="453.90625" xlink:href="#DejaVuSans-30"/>
       <use x="517.529297" xlink:href="#DejaVuSans-31"/>
      </g>
     </g>
    </g>
    <g id="xtick_3">
     <g id="line2d_3">
      <g>
       <use style="stroke:#000000;stroke-width:0.8;" x="147.493843" xlink:href="#m7189da9be6" y="276.48"/>
      </g>
     </g>
     <g id="text_3">
      <!-- 2021-12-15 -->
      <g transform="translate(96.124391 319.118252)rotate(-30)scale(0.1 -0.1)">
       <use xlink:href="#DejaVuSans-32"/>
       <use x="63.623047" xlink:href="#DejaVuSans-30"/>
       <use x="127.246094" xlink:href="#DejaVuSans-32"/>
       <use x="190.869141" xlink:href="#DejaVuSans-31"/>
       <use x="254.492188" xlink:href="#DejaVuSans-2d"/>
       <use x="290.576172" xlink:href="#DejaVuSans-31"/>
       <use x="354.199219" xlink:href="#DejaVuSans-32"/>
       <use x="417.822266" xlink:href="#DejaVuSans-2d"/>
       <use x="453.90625" xlink:href="#DejaVuSans-31"/>
       <use x="517.529297" xlink:href="#DejaVuSans-35"/>
      </g>
     </g>
    </g>
    <g id="xtick_4">
     <g id="line2d_4">
      <g>
       <use style="stroke:#000000;stroke-width:0.8;" x="193.873063" xlink:href="#m7189da9be6" y="276.48"/>
      </g>
     </g>
     <g id="text_4">
      <!-- 2022-01-01 -->
      <g transform="translate(142.503612 319.118252)rotate(-30)scale(0.1 -0.1)">
       <use xlink:href="#DejaVuSans-32"/>
       <use x="63.623047" xlink:href="#DejaVuSans-30"/>
       <use x="127.246094" xlink:href="#DejaVuSans-32"/>
       <use x="190.869141" xlink:href="#DejaVuSans-32"/>
       <use x="254.492188" xlink:href="#DejaVuSans-2d"/>
       <use x="290.576172" xlink:href="#DejaVuSans-30"/>
       <use x="354.199219" xlink:href="#DejaVuSans-31"/>
       <use x="417.822266" xlink:href="#DejaVuSans-2d"/>
       <use x="453.90625" xlink:href="#DejaVuSans-30"/>
       <use x="517.529297" xlink:href="#DejaVuSans-31"/>
      </g>
     </g>
    </g>
    <g id="xtick_5">
     <g id="line2d_5">
      <g>
       <use style="stroke:#000000;stroke-width:0.8;" x="232.067716" xlink:href="#m7189da9be6" y="276.48"/>
      </g>
     </g>
     <g id="text_5">
      <!-- 2022-01-15 -->
      <g transform="translate(180.698264 319.118252)rotate(-30)scale(0.1 -0.1)">
       <use xlink:href="#DejaVuSans-32"/>
       <use x="63.623047" xlink:href="#DejaVuSans-30"/>
       <use x="127.246094" xlink:href="#DejaVuSans-32"/>
       <use x="190.869141" xlink:href="#DejaVuSans-32"/>
       <use x="254.492188" xlink:href="#DejaVuSans-2d"/>
       <use x="290.576172" xlink:href="#DejaVuSans-30"/>
       <use x="354.199219" xlink:href="#DejaVuSans-31"/>
       <use x="417.822266" xlink:href="#DejaVuSans-2d"/>
       <use x="453.90625" xlink:href="#DejaVuSans-31"/>
       <use x="517.529297" xlink:href="#DejaVuSans-35"/>
      </g>
     </g>
    </g>
    <g id="xtick_6">
     <g id="line2d_6">
      <g>
       <use style="stroke:#000000;stroke-width:0.8;" x="278.446937" xlink:href="#m7189da9be6" y="276.48"/>
      </g>
     </g>
     <g id="text_6">
      <!-- 2022-02-01 -->
      <g transform="translate(227.077485 319.118252)rotate(-30)scale(0.1 -0.1)">
       <use xlink:href="#DejaVuSans-32"/>
       <use x="63.623047" xlink:href="#DejaVuSans-30"/>
       <use x="127.246094" xlink:href="#DejaVuSans-32"/>
       <use x="190.869141" xlink:href="#DejaVuSans-32"/>
       <use x="254.492188" xlink:href="#DejaVuSans-2d"/>
       <use x="290.576172" xlink:href="#DejaVuSans-30"/>
       <use x="354.199219" xlink:href="#DejaVuSans-32"/>
       <use x="417.822266" xlink:href="#DejaVuSans-2d"/>
       <use x="453.90625" xlink:href="#DejaVuSans-30"/>
       <use x="517.529297" xlink:href="#DejaVuSans-31"/>
      </g>
     </g>
    </g>
    <g id="xtick_7">
     <g id="line2d_7">
      <g>
       <use style="stroke:#000000;stroke-width:0.8;" x="316.641589" xlink:href="#m7189da9be6" y="276.48"/>
      </g>
     </g>
     <g id="text_7">
      <!-- 2022-02-15 -->
      <g transform="translate(265.272138 319.118252)rotate(-30)scale(0.1 -0.1)">
       <use xlink:href="#DejaVuSans-32"/>
       <use x="63.623047" xlink:href="#DejaVuSans-30"/>
       <use x="127.246094" xlink:href="#DejaVuSans-32"/>
       <use x="190.869141" xlink:href="#DejaVuSans-32"/>
       <use x="254.492188" xlink:href="#DejaVuSans-2d"/>
       <use x="290.576172" xlink:href="#DejaVuSans-30"/>
       <use x="354.199219" xlink:href="#DejaVuSans-32"/>
       <use x="417.822266" xlink:href="#DejaVuSans-2d"/>
       <use x="453.90625" xlink:href="#DejaVuSans-31"/>
       <use x="517.529297" xlink:href="#DejaVuSans-35"/>
      </g>
     </g>
    </g>
    <g id="xtick_8">
     <g id="line2d_8">
      <g>
       <use style="stroke:#000000;stroke-width:0.8;" x="354.836241" xlink:href="#m7189da9be6" y="276.48"/>
      </g>
     </g>
     <g id="text_8">
      <!-- 2022-03-01 -->
      <g transform="translate(303.46679 319.118252)rotate(-30)scale(0.1 -0.1)">
       <defs>
        <path d="M 2597 2516 
Q 3050 2419 3304 2112 
Q 3559 1806 3559 1356 
Q 3559 666 3084 287 
Q 2609 -91 1734 -91 
Q 1441 -91 1130 -33 
Q 819 25 488 141 
L 488 750 
Q 750 597 1062 519 
Q 1375 441 1716 441 
Q 2309 441 2620 675 
Q 2931 909 2931 1356 
Q 2931 1769 2642 2001 
Q 2353 2234 1838 2234 
L 1294 2234 
L 1294 2753 
L 1863 2753 
Q 2328 2753 2575 2939 
Q 2822 3125 2822 3475 
Q 2822 3834 2567 4026 
Q 2313 4219 1838 4219 
Q 1578 4219 1281 4162 
Q 984 4106 628 3988 
L 628 4550 
Q 988 4650 1302 4700 
Q 1616 4750 1894 4750 
Q 2613 4750 3031 4423 
Q 3450 4097 3450 3541 
Q 3450 3153 3228 2886 
Q 3006 2619 2597 2516 
z
" id="DejaVuSans-33" transform="scale(0.015625)"/>
       </defs>
       <use xlink:href="#DejaVuSans-32"/>
       <use x="63.623047" xlink:href="#DejaVuSans-30"/>
       <use x="127.246094" xlink:href="#DejaVuSans-32"/>
       <use x="190.869141" xlink:href="#DejaVuSans-32"/>
       <use x="254.492188" xlink:href="#DejaVuSans-2d"/>
       <use x="290.576172" xlink:href="#DejaVuSans-30"/>
       <use x="354.199219" xlink:href="#DejaVuSans-33"/>
       <use x="417.822266" xlink:href="#DejaVuSans-2d"/>
       <use x="453.90625" xlink:href="#DejaVuSans-30"/>
       <use x="517.529297" xlink:href="#DejaVuSans-31"/>
      </g>
     </g>
    </g>
    <g id="xtick_9">
     <g id="line2d_9">
      <g>
       <use style="stroke:#000000;stroke-width:0.8;" x="393.030894" xlink:href="#m7189da9be6" y="276.48"/>
      </g>
     </g>
     <g id="text_9">
      <!-- 2022-03-15 -->
      <g transform="translate(341.661442 319.118252)rotate(-30)scale(0.1 -0.1)">
       <use xlink:href="#DejaVuSans-32"/>
       <use x="63.623047" xlink:href="#DejaVuSans-30"/>
       <use x="127.246094" xlink:href="#DejaVuSans-32"/>
       <use x="190.869141" xlink:href="#DejaVuSans-32"/>
       <use x="254.492188" xlink:href="#DejaVuSans-2d"/>
       <use x="290.576172" xlink:href="#DejaVuSans-30"/>
       <use x="354.199219" xlink:href="#DejaVuSans-33"/>
       <use x="417.822266" xlink:href="#DejaVuSans-2d"/>
       <use x="453.90625" xlink:href="#DejaVuSans-31"/>
       <use x="517.529297" xlink:href="#DejaVuSans-35"/>
      </g>
     </g>
    </g>
    <g id="text_10">
     <!-- date -->
     <g transform="translate(224.885 332.517752)scale(0.1 -0.1)">
      <defs>
       <path d="M 2906 2969 
L 2906 4863 
L 3481 4863 
L 3481 0 
L 2906 0 
L 2906 525 
Q 2725 213 2448 61 
Q 2172 -91 1784 -91 
Q 1150 -91 751 415 
Q 353 922 353 1747 
Q 353 2572 751 3078 
Q 1150 3584 1784 3584 
Q 2172 3584 2448 3432 
Q 2725 3281 2906 2969 
z
M 947 1747 
Q 947 1113 1208 752 
Q 1469 391 1925 391 
Q 2381 391 2643 752 
Q 2906 1113 2906 1747 
Q 2906 2381 2643 2742 
Q 2381 3103 1925 3103 
Q 1469 3103 1208 2742 
Q 947 2381 947 1747 
z
" id="DejaVuSans-64" transform="scale(0.015625)"/>
       <path d="M 2194 1759 
Q 1497 1759 1228 1600 
Q 959 1441 959 1056 
Q 959 750 1161 570 
Q 1363 391 1709 391 
Q 2188 391 2477 730 
Q 2766 1069 2766 1631 
L 2766 1759 
L 2194 1759 
z
M 3341 1997 
L 3341 0 
L 2766 0 
L 2766 531 
Q 2569 213 2275 61 
Q 1981 -91 1556 -91 
Q 1019 -91 701 211 
Q 384 513 384 1019 
Q 384 1609 779 1909 
Q 1175 2209 1959 2209 
L 2766 2209 
L 2766 2266 
Q 2766 2663 2505 2880 
Q 2244 3097 1772 3097 
Q 1472 3097 1187 3025 
Q 903 2953 641 2809 
L 641 3341 
Q 956 3463 1253 3523 
Q 1550 3584 1831 3584 
Q 2591 3584 2966 3190 
Q 3341 2797 3341 1997 
z
" id="DejaVuSans-61" transform="scale(0.015625)"/>
       <path d="M 1172 4494 
L 1172 3500 
L 2356 3500 
L 2356 3053 
L 1172 3053 
L 1172 1153 
Q 1172 725 1289 603 
Q 1406 481 1766 481 
L 2356 481 
L 2356 0 
L 1766 0 
Q 1100 0 847 248 
Q 594 497 594 1153 
L 594 3053 
L 172 3053 
L 172 3500 
L 594 3500 
L 594 4494 
L 1172 4494 
z
" id="DejaVuSans-74" transform="scale(0.015625)"/>
       <path d="M 3597 1894 
L 3597 1613 
L 953 1613 
Q 991 1019 1311 708 
Q 1631 397 2203 397 
Q 2534 397 2845 478 
Q 3156 559 3463 722 
L 3463 178 
Q 3153 47 2828 -22 
Q 2503 -91 2169 -91 
Q 1331 -91 842 396 
Q 353 884 353 1716 
Q 353 2575 817 3079 
Q 1281 3584 2069 3584 
Q 2775 3584 3186 3129 
Q 3597 2675 3597 1894 
z
M 3022 2063 
Q 3016 2534 2758 2815 
Q 2500 3097 2075 3097 
Q 1594 3097 1305 2825 
Q 1016 2553 972 2059 
L 3022 2063 
z
" id="DejaVuSans-65" transform="scale(0.015625)"/>
      </defs>
      <use xlink:href="#DejaVuSans-64"/>
      <use x="63.476562" xlink:href="#DejaVuSans-61"/>
      <use x="124.755859" xlink:href="#DejaVuSans-74"/>
      <use x="163.964844" xlink:href="#DejaVuSans-65"/>
     </g>
    </g>
   </g>
   <g id="matplotlib.axis_2">
    <g id="ytick_1">
     <g id="line2d_10">
      <defs>
       <path d="M 0 0 
L -3.5 0 
" id="m197c3a5f8e" style="stroke:#000000;stroke-width:0.8;"/>
      </defs>
      <g>
       <use style="stroke:#000000;stroke-width:0.8;" x="57.6" xlink:href="#m197c3a5f8e" y="266.382598"/>
      </g>
     </g>
     <g id="text_11">
      <!-- 50000 -->
      <g transform="translate(18.7875 270.181817)scale(0.1 -0.1)">
       <use xlink:href="#DejaVuSans-35"/>
       <use x="63.623047" xlink:href="#DejaVuSans-30"/>
       <use x="127.246094" xlink:href="#DejaVuSans-30"/>
       <use x="190.869141" xlink:href="#DejaVuSans-30"/>
       <use x="254.492188" xlink:href="#DejaVuSans-30"/>
      </g>
     </g>
    </g>
    <g id="ytick_2">
     <g id="line2d_11">
      <g>
       <use style="stroke:#000000;stroke-width:0.8;" x="57.6" xlink:href="#m197c3a5f8e" y="223.084427"/>
      </g>
     </g>
     <g id="text_12">
      <!-- 60000 -->
      <g transform="translate(18.7875 226.883646)scale(0.1 -0.1)">
       <defs>
        <path d="M 2113 2584 
Q 1688 2584 1439 2293 
Q 1191 2003 1191 1497 
Q 1191 994 1439 701 
Q 1688 409 2113 409 
Q 2538 409 2786 701 
Q 3034 994 3034 1497 
Q 3034 2003 2786 2293 
Q 2538 2584 2113 2584 
z
M 3366 4563 
L 3366 3988 
Q 3128 4100 2886 4159 
Q 2644 4219 2406 4219 
Q 1781 4219 1451 3797 
Q 1122 3375 1075 2522 
Q 1259 2794 1537 2939 
Q 1816 3084 2150 3084 
Q 2853 3084 3261 2657 
Q 3669 2231 3669 1497 
Q 3669 778 3244 343 
Q 2819 -91 2113 -91 
Q 1303 -91 875 529 
Q 447 1150 447 2328 
Q 447 3434 972 4092 
Q 1497 4750 2381 4750 
Q 2619 4750 2861 4703 
Q 3103 4656 3366 4563 
z
" id="DejaVuSans-36" transform="scale(0.015625)"/>
       </defs>
       <use xlink:href="#DejaVuSans-36"/>
       <use x="63.623047" xlink:href="#DejaVuSans-30"/>
       <use x="127.246094" xlink:href="#DejaVuSans-30"/>
       <use x="190.869141" xlink:href="#DejaVuSans-30"/>
       <use x="254.492188" xlink:href="#DejaVuSans-30"/>
      </g>
     </g>
    </g>
    <g id="ytick_3">
     <g id="line2d_12">
      <g>
       <use style="stroke:#000000;stroke-width:0.8;" x="57.6" xlink:href="#m197c3a5f8e" y="179.786256"/>
      </g>
     </g>
     <g id="text_13">
      <!-- 70000 -->
      <g transform="translate(18.7875 183.585475)scale(0.1 -0.1)">
       <defs>
        <path d="M 525 4666 
L 3525 4666 
L 3525 4397 
L 1831 0 
L 1172 0 
L 2766 4134 
L 525 4134 
L 525 4666 
z
" id="DejaVuSans-37" transform="scale(0.015625)"/>
       </defs>
       <use xlink:href="#DejaVuSans-37"/>
       <use x="63.623047" xlink:href="#DejaVuSans-30"/>
       <use x="127.246094" xlink:href="#DejaVuSans-30"/>
       <use x="190.869141" xlink:href="#DejaVuSans-30"/>
       <use x="254.492188" xlink:href="#DejaVuSans-30"/>
      </g>
     </g>
    </g>
    <g id="ytick_4">
     <g id="line2d_13">
      <g>
       <use style="stroke:#000000;stroke-width:0.8;" x="57.6" xlink:href="#m197c3a5f8e" y="136.488085"/>
      </g>
     </g>
     <g id="text_14">
      <!-- 80000 -->
      <g transform="translate(18.7875 140.287304)scale(0.1 -0.1)">
       <defs>
        <path d="M 2034 2216 
Q 1584 2216 1326 1975 
Q 1069 1734 1069 1313 
Q 1069 891 1326 650 
Q 1584 409 2034 409 
Q 2484 409 2743 651 
Q 3003 894 3003 1313 
Q 3003 1734 2745 1975 
Q 2488 2216 2034 2216 
z
M 1403 2484 
Q 997 2584 770 2862 
Q 544 3141 544 3541 
Q 544 4100 942 4425 
Q 1341 4750 2034 4750 
Q 2731 4750 3128 4425 
Q 3525 4100 3525 3541 
Q 3525 3141 3298 2862 
Q 3072 2584 2669 2484 
Q 3125 2378 3379 2068 
Q 3634 1759 3634 1313 
Q 3634 634 3220 271 
Q 2806 -91 2034 -91 
Q 1263 -91 848 271 
Q 434 634 434 1313 
Q 434 1759 690 2068 
Q 947 2378 1403 2484 
z
M 1172 3481 
Q 1172 3119 1398 2916 
Q 1625 2713 2034 2713 
Q 2441 2713 2670 2916 
Q 2900 3119 2900 3481 
Q 2900 3844 2670 4047 
Q 2441 4250 2034 4250 
Q 1625 4250 1398 4047 
Q 1172 3844 1172 3481 
z
" id="DejaVuSans-38" transform="scale(0.015625)"/>
       </defs>
       <use xlink:href="#DejaVuSans-38"/>
       <use x="63.623047" xlink:href="#DejaVuSans-30"/>
       <use x="127.246094" xlink:href="#DejaVuSans-30"/>
       <use x="190.869141" xlink:href="#DejaVuSans-30"/>
       <use x="254.492188" xlink:href="#DejaVuSans-30"/>
      </g>
     </g>
    </g>
    <g id="ytick_5">
     <g id="line2d_14">
      <g>
       <use style="stroke:#000000;stroke-width:0.8;" x="57.6" xlink:href="#m197c3a5f8e" y="93.189914"/>
      </g>
     </g>
     <g id="text_15">
      <!-- 90000 -->
      <g transform="translate(18.7875 96.989133)scale(0.1 -0.1)">
       <defs>
        <path d="M 703 97 
L 703 672 
Q 941 559 1184 500 
Q 1428 441 1663 441 
Q 2288 441 2617 861 
Q 2947 1281 2994 2138 
Q 2813 1869 2534 1725 
Q 2256 1581 1919 1581 
Q 1219 1581 811 2004 
Q 403 2428 403 3163 
Q 403 3881 828 4315 
Q 1253 4750 1959 4750 
Q 2769 4750 3195 4129 
Q 3622 3509 3622 2328 
Q 3622 1225 3098 567 
Q 2575 -91 1691 -91 
Q 1453 -91 1209 -44 
Q 966 3 703 97 
z
M 1959 2075 
Q 2384 2075 2632 2365 
Q 2881 2656 2881 3163 
Q 2881 3666 2632 3958 
Q 2384 4250 1959 4250 
Q 1534 4250 1286 3958 
Q 1038 3666 1038 3163 
Q 1038 2656 1286 2365 
Q 1534 2075 1959 2075 
z
" id="DejaVuSans-39" transform="scale(0.015625)"/>
       </defs>
       <use xlink:href="#DejaVuSans-39"/>
       <use x="63.623047" xlink:href="#DejaVuSans-30"/>
       <use x="127.246094" xlink:href="#DejaVuSans-30"/>
       <use x="190.869141" xlink:href="#DejaVuSans-30"/>
       <use x="254.492188" xlink:href="#DejaVuSans-30"/>
      </g>
     </g>
    </g>
    <g id="ytick_6">
     <g id="line2d_15">
      <g>
       <use style="stroke:#000000;stroke-width:0.8;" x="57.6" xlink:href="#m197c3a5f8e" y="49.891743"/>
      </g>
     </g>
     <g id="text_16">
      <!-- 100000 -->
      <g transform="translate(12.425 53.690962)scale(0.1 -0.1)">
       <use xlink:href="#DejaVuSans-31"/>
       <use x="63.623047" xlink:href="#DejaVuSans-30"/>
       <use x="127.246094" xlink:href="#DejaVuSans-30"/>
       <use x="190.869141" xlink:href="#DejaVuSans-30"/>
       <use x="254.492188" xlink:href="#DejaVuSans-30"/>
       <use x="318.115234" xlink:href="#DejaVuSans-30"/>
      </g>
     </g>
    </g>
   </g>
   <g id="line2d_16">
    <path clip-path="url(#p3a069eda6c)" d="M 73.832727 61.826415 
L 76.560917 56.8941 
L 84.745485 52.154182 
L 87.473675 66.205427 
L 90.201864 65.786846 
L 95.658243 65.928613 
L 103.842811 75.550798 
L 106.571001 84.997029 
L 109.29919 110.922441 
L 112.02738 108.447818 
L 114.755569 129.18816 
L 122.940138 128.952507 
L 125.668327 110.943167 
L 128.396516 102.907926 
L 131.124706 123.942265 
L 133.852895 126.976909 
L 142.037464 142.595077 
L 144.765653 138.325642 
L 147.493843 133.754976 
L 150.222032 142.615116 
L 152.950222 129.992267 
L 161.13479 139.742566 
L 163.862979 126.581966 
L 166.591169 125.305644 
L 169.319358 122.173947 
L 180.232116 122.878134 
L 182.960306 127.901374 
L 185.688495 134.892802 
L 188.416684 126.535912 
L 191.144874 135.5387 
L 199.329442 122.454612 
L 202.057632 132.605425 
L 204.785821 157.605411 
L 207.514011 159.572064 
L 210.2422 155.543831 
L 218.426769 160.830201 
L 221.154958 154.130866 
L 223.883147 150.740798 
L 226.611337 170.535971 
L 229.339526 169.970867 
L 240.252284 186.315794 
L 242.980474 193.745202 
L 245.708663 199.322506 
L 248.436853 211.036125 
L 256.621421 218.282618 
L 259.34961 224.902741 
L 262.0778 224.554104 
L 264.805989 243.868706 
L 267.534179 238.682873 
L 275.718747 212.890186 
L 278.446937 204.053011 
L 281.175126 215.892956 
L 283.903316 225.460609 
L 286.631505 216.205523 
L 294.816073 218.192888 
L 297.544263 205.954631 
L 300.272452 190.276744 
L 303.000642 198.731045 
L 305.728831 210.575748 
L 313.9134 216.238906 
L 316.641589 190.449414 
L 319.369778 192.408149 
L 322.097968 207.442541 
L 324.826157 216.964155 
L 335.738915 226.878186 
L 338.467105 236.423613 
L 341.195294 220.941829 
L 343.923484 216.519576 
L 352.108052 204.801012 
L 354.836241 206.356129 
L 357.564431 202.075169 
L 360.29262 216.040388 
L 363.02081 229.141774 
L 371.205378 241.750074 
L 373.933568 236.381309 
L 376.661757 225.641465 
L 379.389947 234.240713 
L 382.118136 249.275164 
L 390.302704 264.940538 
L 393.030894 253.066047 
L 395.759083 231.278994 
L 398.487273 215.630503 
" style="fill:none;stroke:#0000ff;stroke-linecap:square;stroke-opacity:0.9;stroke-width:2;"/>
   </g>
   <g id="line2d_17">
    <path clip-path="url(#p3a069eda6c)" d="M 73.832727 61.826415 
L 76.560917 57.350155 
L 84.745485 52.511496 
L 87.473675 66.394559 
L 90.201864 65.889031 
L 95.658243 78.795221 
L 103.842811 75.350458 
L 106.571001 85.027188 
L 109.29919 110.839089 
L 112.02738 108.472179 
L 114.755569 128.830758 
L 122.940138 128.425542 
L 125.668327 110.618862 
L 128.396516 102.45689 
L 131.124706 123.557396 
L 133.852895 127.037196 
L 142.037464 142.175896 
L 144.765653 138.160686 
L 147.493843 133.451377 
L 150.222032 142.261928 
L 152.950222 129.964076 
L 161.13479 139.420897 
L 163.862979 126.40555 
L 166.591169 125.161559 
L 169.319358 122.128556 
L 180.232116 123.273188 
L 182.960306 128.260951 
L 185.688495 135.248775 
L 188.416684 126.867456 
L 191.144874 135.711123 
L 199.329442 122.164898 
L 202.057632 132.170587 
L 204.785821 155.218535 
L 207.514011 157.142672 
L 210.2422 154.032078 
L 218.426769 158.481933 
L 221.154958 151.345442 
L 223.883147 146.388855 
L 226.611337 164.885449 
L 229.339526 163.410012 
L 240.252284 179.475609 
L 242.980474 186.103891 
L 245.708663 192.048251 
L 248.436853 205.146299 
L 256.621421 212.275123 
L 259.34961 219.512074 
L 262.0778 219.843935 
L 264.805989 239.389162 
L 267.534179 234.02244 
L 275.718747 209.715557 
L 278.446937 201.417615 
L 281.175126 211.0663 
L 283.903316 219.625374 
L 286.631505 210.902243 
L 294.816073 212.122749 
L 297.544263 201.162702 
L 300.272452 187.527306 
L 303.000642 196.923304 
L 305.728831 210.503443 
L 313.9134 215.25446 
L 316.641589 192.357185 
L 319.369778 193.931301 
L 322.097968 208.632792 
L 324.826157 217.243926 
L 335.738915 225.325712 
L 338.467105 235.571368 
L 341.195294 222.820053 
L 343.923484 216.296162 
L 352.108052 206.104508 
L 354.836241 208.323744 
L 357.564431 203.215217 
L 360.29262 216.960823 
L 363.02081 229.746498 
L 371.205378 242.468291 
L 373.933568 237.279979 
L 376.661757 226.245823 
L 379.389947 234.24316 
L 382.118136 247.604188 
L 390.302704 261.102278 
L 393.030894 250.359299 
L 395.759083 229.84646 
L 398.487273 222.142658 
" style="fill:none;stroke:#ff0000;stroke-linecap:square;stroke-opacity:0.9;stroke-width:2;"/>
   </g>
   <g id="line2d_18">
    <path clip-path="url(#p3a069eda6c)" d="M 73.832727 61.826415 
L 76.560917 57.058544 
L 84.745485 53.022769 
L 87.473675 65.706376 
L 90.201864 65.267208 
L 95.658243 78.092112 
L 103.842811 75.114092 
L 106.571001 84.625614 
L 109.29919 110.997494 
L 112.02738 107.795669 
L 114.755569 127.813347 
L 122.940138 127.349547 
L 125.668327 109.308845 
L 128.396516 100.977966 
L 131.124706 122.868407 
L 133.852895 126.18485 
L 142.037464 143.151837 
L 144.765653 137.158589 
L 147.493843 132.867571 
L 150.222032 141.468536 
L 152.950222 126.806376 
L 161.13479 136.091855 
L 163.862979 122.742355 
L 166.591169 122.44891 
L 169.319358 119.443547 
L 180.232116 121.407967 
L 182.960306 126.782357 
L 185.688495 133.601154 
L 188.416684 123.629301 
L 191.144874 133.157308 
L 199.329442 120.796105 
L 202.057632 131.037742 
L 204.785821 156.281155 
L 207.514011 158.041608 
L 210.2422 153.379051 
L 218.426769 158.18439 
L 221.154958 151.638527 
L 223.883147 148.049822 
L 226.611337 168.36273 
L 229.339526 167.620369 
L 240.252284 184.484464 
L 242.980474 191.647969 
L 245.708663 197.06783 
L 248.436853 209.210286 
L 256.621421 216.037919 
L 259.34961 223.122142 
L 262.0778 223.125863 
L 264.805989 242.77202 
L 267.534179 237.245351 
L 275.718747 211.285139 
L 278.446937 202.525199 
L 281.175126 214.383513 
L 283.903316 224.338602 
L 286.631505 214.663529 
L 294.816073 216.573593 
L 297.544263 204.437802 
L 300.272452 188.212811 
L 303.000642 197.431045 
L 305.728831 209.315589 
L 313.9134 214.973526 
L 316.641589 189.146803 
L 319.369778 191.422188 
L 322.097968 206.394652 
L 324.826157 216.15565 
L 335.738915 225.738415 
L 338.467105 235.850755 
L 341.195294 220.058007 
L 343.923484 215.458077 
L 352.108052 204.101551 
L 354.836241 205.140437 
L 357.564431 200.899187 
L 360.29262 215.648692 
L 363.02081 228.423765 
L 371.205378 241.68797 
L 373.933568 236.617008 
L 376.661757 225.429692 
L 379.389947 234.587618 
L 382.118136 249.496771 
L 390.302704 265.3224 
L 393.030894 253.142072 
L 395.759083 231.301506 
L 398.487273 222.462861 
" style="fill:none;stroke:#008000;stroke-linecap:square;stroke-opacity:0.9;stroke-width:2;"/>
   </g>
   <g id="line2d_19">
    <path clip-path="url(#p3a069eda6c)" d="M 73.832727 61.826415 
L 76.560917 56.953709 
L 84.745485 52.770259 
L 87.473675 65.896117 
L 90.201864 65.395059 
L 95.658243 78.1632 
L 103.842811 75.054747 
L 106.571001 84.821195 
L 109.29919 110.883274 
L 112.02738 107.865478 
L 114.755569 128.043106 
L 122.940138 127.712574 
L 125.668327 109.506668 
L 128.396516 101.41923 
L 131.124706 122.935757 
L 133.852895 126.443969 
L 142.037464 143.495811 
L 144.765653 138.483682 
L 147.493843 133.896911 
L 150.222032 142.852614 
L 152.950222 127.848853 
L 161.13479 137.413971 
L 163.862979 123.687029 
L 166.591169 123.615243 
L 169.319358 120.244315 
L 180.232116 122.123583 
L 182.960306 127.866714 
L 185.688495 134.503908 
L 188.416684 124.715451 
L 191.144874 134.015765 
L 199.329442 121.570161 
L 202.057632 131.390473 
L 204.785821 156.97068 
L 207.514011 158.697675 
L 210.2422 154.723423 
L 218.426769 159.6248 
L 221.154958 152.980669 
L 223.883147 149.869208 
L 226.611337 169.580676 
L 229.339526 168.892841 
L 240.252284 185.586307 
L 242.980474 193.009742 
L 245.708663 198.393404 
L 248.436853 210.10928 
L 256.621421 217.340786 
L 259.34961 224.0462 
L 262.0778 224.371613 
L 264.805989 243.702572 
L 267.534179 238.242791 
L 275.718747 212.259844 
L 278.446937 203.829446 
L 281.175126 215.675844 
L 283.903316 225.330513 
L 286.631505 215.536936 
L 294.816073 217.914184 
L 297.544263 205.785794 
L 300.272452 189.821224 
L 303.000642 198.652475 
L 305.728831 210.05717 
L 313.9134 216.046035 
L 316.641589 189.845172 
L 319.369778 192.233261 
L 322.097968 207.361493 
L 324.826157 216.611949 
L 335.738915 226.37273 
L 338.467105 236.19889 
L 341.195294 220.740188 
L 343.923484 216.015002 
L 352.108052 204.156449 
L 354.836241 205.442402 
L 357.564431 201.187638 
L 360.29262 215.478628 
L 363.02081 228.681678 
L 371.205378 242.022291 
L 373.933568 236.851924 
L 376.661757 225.77244 
L 379.389947 234.560718 
L 382.118136 249.337677 
L 390.302704 265.37945 
L 393.030894 253.457963 
L 395.759083 231.611182 
L 398.487273 222.385991 
" style="fill:none;stroke:#ec5283;stroke-linecap:square;stroke-width:2;"/>
   </g>
   <g id="line2d_20">
    <path clip-path="url(#p3a069eda6c)" d="M 73.832727 61.826415 
L 76.560917 57.062485 
L 84.745485 53.298001 
L 87.473675 65.598223 
L 90.201864 65.401406 
L 95.658243 77.691471 
L 103.842811 74.519202 
L 106.571001 84.217883 
L 109.29919 109.858177 
L 112.02738 106.838475 
L 114.755569 126.452677 
L 122.940138 125.746006 
L 125.668327 108.26233 
L 128.396516 100.174258 
L 131.124706 121.240929 
L 133.852895 124.785914 
L 142.037464 141.306618 
L 144.765653 135.577376 
L 147.493843 130.818368 
L 150.222032 139.533851 
L 152.950222 125.232551 
L 161.13479 134.580003 
L 163.862979 121.479327 
L 166.591169 121.14975 
L 169.319358 118.186884 
L 180.232116 119.68268 
L 182.960306 125.264857 
L 185.688495 131.877118 
L 188.416684 122.085193 
L 191.144874 131.584311 
L 199.329442 119.323407 
L 202.057632 129.122594 
L 204.785821 153.858823 
L 207.514011 155.938254 
L 210.2422 151.190181 
L 218.426769 155.734878 
L 221.154958 149.419275 
L 223.883147 145.976228 
L 226.611337 165.923084 
L 229.339526 165.027578 
L 240.252284 181.412744 
L 242.980474 188.343464 
L 245.708663 193.854402 
L 248.436853 205.500543 
L 256.621421 212.418465 
L 259.34961 218.958973 
L 262.0778 219.27969 
L 264.805989 238.196048 
L 267.534179 232.805868 
L 275.718747 207.843564 
L 278.446937 199.175149 
L 281.175126 211.005509 
L 283.903316 220.154204 
L 286.631505 210.580977 
L 294.816073 212.835272 
L 297.544263 201.226265 
L 300.272452 185.260238 
L 303.000642 194.026162 
L 305.728831 205.688565 
L 313.9134 211.046132 
L 316.641589 185.912812 
L 319.369778 188.517233 
L 322.097968 203.158516 
L 324.826157 212.30893 
L 335.738915 221.743411 
L 338.467105 231.29465 
L 341.195294 216.258559 
L 343.923484 211.716187 
L 352.108052 200.387525 
L 354.836241 201.835696 
L 357.564431 197.720567 
L 360.29262 211.593182 
L 363.02081 224.58878 
L 371.205378 237.409883 
L 373.933568 232.424262 
L 376.661757 221.398568 
L 379.389947 230.134516 
L 382.118136 244.564977 
L 390.302704 260.118171 
L 393.030894 248.858003 
L 395.759083 227.120272 
L 398.487273 218.609924 
" style="fill:none;stroke:#00ff00;stroke-linecap:square;stroke-opacity:0.9;stroke-width:2;"/>
   </g>
   <g id="line2d_21">
    <path clip-path="url(#p3a069eda6c)" d="M 73.832727 61.826415 
L 76.560917 59.489263 
L 84.745485 58.972077 
L 87.473675 64.716459 
L 90.201864 64.850353 
L 95.658243 76.863396 
L 103.842811 76.871725 
L 106.571001 85.680011 
L 109.29919 110.437839 
L 112.02738 105.960916 
L 114.755569 125.285285 
L 122.940138 121.511942 
L 125.668327 103.297149 
L 128.396516 92.111614 
L 131.124706 114.79674 
L 133.852895 120.429468 
L 142.037464 134.317494 
L 144.765653 130.757446 
L 147.493843 126.149753 
L 150.222032 136.116962 
L 152.950222 118.022806 
L 161.13479 129.990912 
L 163.862979 114.613219 
L 166.591169 115.270604 
L 169.319358 111.206879 
L 180.232116 117.167391 
L 182.960306 123.874835 
L 185.688495 134.281999 
L 188.416684 118.406283 
L 191.144874 130.314091 
L 199.329442 119.484707 
L 202.057632 128.482567 
L 204.785821 157.828716 
L 207.514011 160.099157 
L 210.2422 155.72823 
L 218.426769 161.919987 
L 221.154958 155.396652 
L 223.883147 155.565178 
L 226.611337 176.215324 
L 229.339526 176.496493 
L 240.252284 193.85844 
L 242.980474 201.83614 
L 245.708663 207.498849 
L 248.436853 218.847194 
L 256.621421 222.657937 
L 259.34961 229.381038 
L 262.0778 228.347585 
L 264.805989 247.889537 
L 267.534179 242.702342 
L 275.718747 213.312609 
L 278.446937 203.853669 
L 281.175126 218.94712 
L 283.903316 229.751325 
L 286.631505 218.741797 
L 294.816073 222.342552 
L 297.544263 209.795791 
L 300.272452 192.046812 
L 303.000642 201.080686 
L 305.728831 211.709959 
L 313.9134 217.316695 
L 316.641589 183.031394 
L 319.369778 187.271749 
L 322.097968 203.938036 
L 324.826157 216.119319 
L 335.738915 227.295926 
L 338.467105 236.780791 
L 341.195294 218.234216 
L 343.923484 215.383492 
L 352.108052 201.315853 
L 354.836241 195.68499 
L 357.564431 193.222474 
L 360.29262 211.645418 
L 363.02081 225.056124 
L 371.205378 238.923097 
L 373.933568 235.370053 
L 376.661757 221.77301 
L 379.389947 233.136679 
L 382.118136 247.621611 
L 390.302704 265.797818 
L 393.030894 252.579899 
L 395.759083 226.759115 
L 398.487273 219.294428 
" style="fill:none;stroke:#a5b9cf;stroke-linecap:square;stroke-width:2;"/>
   </g>
   <g id="patch_3">
    <path d="M 57.6 276.48 
L 57.6 41.472 
" style="fill:none;stroke:#000000;stroke-linecap:square;stroke-linejoin:miter;stroke-width:0.8;"/>
   </g>
   <g id="patch_4">
    <path d="M 414.72 276.48 
L 414.72 41.472 
" style="fill:none;stroke:#000000;stroke-linecap:square;stroke-linejoin:miter;stroke-width:0.8;"/>
   </g>
   <g id="patch_5">
    <path d="M 57.6 276.48 
L 414.72 276.48 
" style="fill:none;stroke:#000000;stroke-linecap:square;stroke-linejoin:miter;stroke-width:0.8;"/>
   </g>
   <g id="patch_6">
    <path d="M 57.6 41.472 
L 414.72 41.472 
" style="fill:none;stroke:#000000;stroke-linecap:square;stroke-linejoin:miter;stroke-width:0.8;"/>
   </g>
   <g id="text_17">
    <!-- STONKS -->
    <g transform="translate(211.730625 22.034625)scale(0.12 -0.12)">
     <defs>
      <path d="M 3425 4513 
L 3425 3897 
Q 3066 4069 2747 4153 
Q 2428 4238 2131 4238 
Q 1616 4238 1336 4038 
Q 1056 3838 1056 3469 
Q 1056 3159 1242 3001 
Q 1428 2844 1947 2747 
L 2328 2669 
Q 3034 2534 3370 2195 
Q 3706 1856 3706 1288 
Q 3706 609 3251 259 
Q 2797 -91 1919 -91 
Q 1588 -91 1214 -16 
Q 841 59 441 206 
L 441 856 
Q 825 641 1194 531 
Q 1563 422 1919 422 
Q 2459 422 2753 634 
Q 3047 847 3047 1241 
Q 3047 1584 2836 1778 
Q 2625 1972 2144 2069 
L 1759 2144 
Q 1053 2284 737 2584 
Q 422 2884 422 3419 
Q 422 4038 858 4394 
Q 1294 4750 2059 4750 
Q 2388 4750 2728 4690 
Q 3069 4631 3425 4513 
z
" id="DejaVuSans-53" transform="scale(0.015625)"/>
      <path d="M -19 4666 
L 3928 4666 
L 3928 4134 
L 2272 4134 
L 2272 0 
L 1638 0 
L 1638 4134 
L -19 4134 
L -19 4666 
z
" id="DejaVuSans-54" transform="scale(0.015625)"/>
      <path d="M 2522 4238 
Q 1834 4238 1429 3725 
Q 1025 3213 1025 2328 
Q 1025 1447 1429 934 
Q 1834 422 2522 422 
Q 3209 422 3611 934 
Q 4013 1447 4013 2328 
Q 4013 3213 3611 3725 
Q 3209 4238 2522 4238 
z
M 2522 4750 
Q 3503 4750 4090 4092 
Q 4678 3434 4678 2328 
Q 4678 1225 4090 567 
Q 3503 -91 2522 -91 
Q 1538 -91 948 565 
Q 359 1222 359 2328 
Q 359 3434 948 4092 
Q 1538 4750 2522 4750 
z
" id="DejaVuSans-4f" transform="scale(0.015625)"/>
      <path d="M 628 4666 
L 1478 4666 
L 3547 763 
L 3547 4666 
L 4159 4666 
L 4159 0 
L 3309 0 
L 1241 3903 
L 1241 0 
L 628 0 
L 628 4666 
z
" id="DejaVuSans-4e" transform="scale(0.015625)"/>
      <path d="M 628 4666 
L 1259 4666 
L 1259 2694 
L 3353 4666 
L 4166 4666 
L 1850 2491 
L 4331 0 
L 3500 0 
L 1259 2247 
L 1259 0 
L 628 0 
L 628 4666 
z
" id="DejaVuSans-4b" transform="scale(0.015625)"/>
     </defs>
     <use xlink:href="#DejaVuSans-53"/>
     <use x="63.476562" xlink:href="#DejaVuSans-54"/>
     <use x="124.560547" xlink:href="#DejaVuSans-4f"/>
     <use x="203.271484" xlink:href="#DejaVuSans-4e"/>
     <use x="278.076172" xlink:href="#DejaVuSans-4b"/>
     <use x="343.652344" xlink:href="#DejaVuSans-53"/>
    </g>
    <!-- daily_report -->
    <g transform="translate(200.466563 35.472)scale(0.12 -0.12)">
     <defs>
      <path d="M 603 3500 
L 1178 3500 
L 1178 0 
L 603 0 
L 603 3500 
z
M 603 4863 
L 1178 4863 
L 1178 4134 
L 603 4134 
L 603 4863 
z
" id="DejaVuSans-69" transform="scale(0.015625)"/>
      <path d="M 603 4863 
L 1178 4863 
L 1178 0 
L 603 0 
L 603 4863 
z
" id="DejaVuSans-6c" transform="scale(0.015625)"/>
      <path d="M 2059 -325 
Q 1816 -950 1584 -1140 
Q 1353 -1331 966 -1331 
L 506 -1331 
L 506 -850 
L 844 -850 
Q 1081 -850 1212 -737 
Q 1344 -625 1503 -206 
L 1606 56 
L 191 3500 
L 800 3500 
L 1894 763 
L 2988 3500 
L 3597 3500 
L 2059 -325 
z
" id="DejaVuSans-79" transform="scale(0.015625)"/>
      <path d="M 3263 -1063 
L 3263 -1509 
L -63 -1509 
L -63 -1063 
L 3263 -1063 
z
" id="DejaVuSans-5f" transform="scale(0.015625)"/>
      <path d="M 2631 2963 
Q 2534 3019 2420 3045 
Q 2306 3072 2169 3072 
Q 1681 3072 1420 2755 
Q 1159 2438 1159 1844 
L 1159 0 
L 581 0 
L 581 3500 
L 1159 3500 
L 1159 2956 
Q 1341 3275 1631 3429 
Q 1922 3584 2338 3584 
Q 2397 3584 2469 3576 
Q 2541 3569 2628 3553 
L 2631 2963 
z
" id="DejaVuSans-72" transform="scale(0.015625)"/>
      <path d="M 1159 525 
L 1159 -1331 
L 581 -1331 
L 581 3500 
L 1159 3500 
L 1159 2969 
Q 1341 3281 1617 3432 
Q 1894 3584 2278 3584 
Q 2916 3584 3314 3078 
Q 3713 2572 3713 1747 
Q 3713 922 3314 415 
Q 2916 -91 2278 -91 
Q 1894 -91 1617 61 
Q 1341 213 1159 525 
z
M 3116 1747 
Q 3116 2381 2855 2742 
Q 2594 3103 2138 3103 
Q 1681 3103 1420 2742 
Q 1159 2381 1159 1747 
Q 1159 1113 1420 752 
Q 1681 391 2138 391 
Q 2594 391 2855 752 
Q 3116 1113 3116 1747 
z
" id="DejaVuSans-70" transform="scale(0.015625)"/>
      <path d="M 1959 3097 
Q 1497 3097 1228 2736 
Q 959 2375 959 1747 
Q 959 1119 1226 758 
Q 1494 397 1959 397 
Q 2419 397 2687 759 
Q 2956 1122 2956 1747 
Q 2956 2369 2687 2733 
Q 2419 3097 1959 3097 
z
M 1959 3584 
Q 2709 3584 3137 3096 
Q 3566 2609 3566 1747 
Q 3566 888 3137 398 
Q 2709 -91 1959 -91 
Q 1206 -91 779 398 
Q 353 888 353 1747 
Q 353 2609 779 3096 
Q 1206 3584 1959 3584 
z
" id="DejaVuSans-6f" transform="scale(0.015625)"/>
     </defs>
     <use xlink:href="#DejaVuSans-64"/>
     <use x="63.476562" xlink:href="#DejaVuSans-61"/>
     <use x="124.755859" xlink:href="#DejaVuSans-69"/>
     <use x="152.539062" xlink:href="#DejaVuSans-6c"/>
     <use x="180.322266" xlink:href="#DejaVuSans-79"/>
     <use x="239.501953" xlink:href="#DejaVuSans-5f"/>
     <use x="289.501953" xlink:href="#DejaVuSans-72"/>
     <use x="328.365234" xlink:href="#DejaVuSans-65"/>
     <use x="389.888672" xlink:href="#DejaVuSans-70"/>
     <use x="453.365234" xlink:href="#DejaVuSans-6f"/>
     <use x="514.546875" xlink:href="#DejaVuSans-72"/>
     <use x="555.660156" xlink:href="#DejaVuSans-74"/>
    </g>
   </g>
   <g id="legend_1">
    <g id="patch_7">
     <path d="M 293.67625 137.54075 
L 407.72 137.54075 
Q 409.72 137.54075 409.72 135.54075 
L 409.72 48.472 
Q 409.72 46.472 407.72 46.472 
L 293.67625 46.472 
Q 291.67625 46.472 291.67625 48.472 
L 291.67625 135.54075 
Q 291.67625 137.54075 293.67625 137.54075 
z
" style="fill:#ffffff;opacity:0.8;stroke:#cccccc;stroke-linejoin:miter;"/>
    </g>
    <g id="line2d_22">
     <path d="M 295.67625 54.570437 
L 315.67625 54.570437 
" style="fill:none;stroke:#0000ff;stroke-linecap:square;stroke-opacity:0.9;stroke-width:2;"/>
    </g>
    <g id="line2d_23"/>
    <g id="text_18">
     <!-- alpaca -->
     <g transform="translate(323.67625 58.070437)scale(0.1 -0.1)">
      <defs>
       <path d="M 3122 3366 
L 3122 2828 
Q 2878 2963 2633 3030 
Q 2388 3097 2138 3097 
Q 1578 3097 1268 2742 
Q 959 2388 959 1747 
Q 959 1106 1268 751 
Q 1578 397 2138 397 
Q 2388 397 2633 464 
Q 2878 531 3122 666 
L 3122 134 
Q 2881 22 2623 -34 
Q 2366 -91 2075 -91 
Q 1284 -91 818 406 
Q 353 903 353 1747 
Q 353 2603 823 3093 
Q 1294 3584 2113 3584 
Q 2378 3584 2631 3529 
Q 2884 3475 3122 3366 
z
" id="DejaVuSans-63" transform="scale(0.015625)"/>
      </defs>
      <use xlink:href="#DejaVuSans-61"/>
      <use x="61.279297" xlink:href="#DejaVuSans-6c"/>
      <use x="89.0625" xlink:href="#DejaVuSans-70"/>
      <use x="152.539062" xlink:href="#DejaVuSans-61"/>
      <use x="213.818359" xlink:href="#DejaVuSans-63"/>
      <use x="268.798828" xlink:href="#DejaVuSans-61"/>
     </g>
    </g>
    <g id="line2d_24">
     <path d="M 295.67625 69.248562 
L 315.67625 69.248562 
" style="fill:none;stroke:#ff0000;stroke-linecap:square;stroke-opacity:0.9;stroke-width:2;"/>
    </g>
    <g id="line2d_25"/>
    <g id="text_19">
     <!-- mattress -->
     <g transform="translate(323.67625 72.748562)scale(0.1 -0.1)">
      <defs>
       <path d="M 3328 2828 
Q 3544 3216 3844 3400 
Q 4144 3584 4550 3584 
Q 5097 3584 5394 3201 
Q 5691 2819 5691 2113 
L 5691 0 
L 5113 0 
L 5113 2094 
Q 5113 2597 4934 2840 
Q 4756 3084 4391 3084 
Q 3944 3084 3684 2787 
Q 3425 2491 3425 1978 
L 3425 0 
L 2847 0 
L 2847 2094 
Q 2847 2600 2669 2842 
Q 2491 3084 2119 3084 
Q 1678 3084 1418 2786 
Q 1159 2488 1159 1978 
L 1159 0 
L 581 0 
L 581 3500 
L 1159 3500 
L 1159 2956 
Q 1356 3278 1631 3431 
Q 1906 3584 2284 3584 
Q 2666 3584 2933 3390 
Q 3200 3197 3328 2828 
z
" id="DejaVuSans-6d" transform="scale(0.015625)"/>
       <path d="M 2834 3397 
L 2834 2853 
Q 2591 2978 2328 3040 
Q 2066 3103 1784 3103 
Q 1356 3103 1142 2972 
Q 928 2841 928 2578 
Q 928 2378 1081 2264 
Q 1234 2150 1697 2047 
L 1894 2003 
Q 2506 1872 2764 1633 
Q 3022 1394 3022 966 
Q 3022 478 2636 193 
Q 2250 -91 1575 -91 
Q 1294 -91 989 -36 
Q 684 19 347 128 
L 347 722 
Q 666 556 975 473 
Q 1284 391 1588 391 
Q 1994 391 2212 530 
Q 2431 669 2431 922 
Q 2431 1156 2273 1281 
Q 2116 1406 1581 1522 
L 1381 1569 
Q 847 1681 609 1914 
Q 372 2147 372 2553 
Q 372 3047 722 3315 
Q 1072 3584 1716 3584 
Q 2034 3584 2315 3537 
Q 2597 3491 2834 3397 
z
" id="DejaVuSans-73" transform="scale(0.015625)"/>
      </defs>
      <use xlink:href="#DejaVuSans-6d"/>
      <use x="97.412109" xlink:href="#DejaVuSans-61"/>
      <use x="158.691406" xlink:href="#DejaVuSans-74"/>
      <use x="197.900391" xlink:href="#DejaVuSans-74"/>
      <use x="237.109375" xlink:href="#DejaVuSans-72"/>
      <use x="275.972656" xlink:href="#DejaVuSans-65"/>
      <use x="337.496094" xlink:href="#DejaVuSans-73"/>
      <use x="389.595703" xlink:href="#DejaVuSans-73"/>
     </g>
    </g>
    <g id="line2d_26">
     <path d="M 295.67625 83.926687 
L 315.67625 83.926687 
" style="fill:none;stroke:#008000;stroke-linecap:square;stroke-opacity:0.9;stroke-width:2;"/>
    </g>
    <g id="line2d_27"/>
    <g id="text_20">
     <!-- daily-open-rebal -->
     <g transform="translate(323.67625 87.426687)scale(0.1 -0.1)">
      <defs>
       <path d="M 3513 2113 
L 3513 0 
L 2938 0 
L 2938 2094 
Q 2938 2591 2744 2837 
Q 2550 3084 2163 3084 
Q 1697 3084 1428 2787 
Q 1159 2491 1159 1978 
L 1159 0 
L 581 0 
L 581 3500 
L 1159 3500 
L 1159 2956 
Q 1366 3272 1645 3428 
Q 1925 3584 2291 3584 
Q 2894 3584 3203 3211 
Q 3513 2838 3513 2113 
z
" id="DejaVuSans-6e" transform="scale(0.015625)"/>
       <path d="M 3116 1747 
Q 3116 2381 2855 2742 
Q 2594 3103 2138 3103 
Q 1681 3103 1420 2742 
Q 1159 2381 1159 1747 
Q 1159 1113 1420 752 
Q 1681 391 2138 391 
Q 2594 391 2855 752 
Q 3116 1113 3116 1747 
z
M 1159 2969 
Q 1341 3281 1617 3432 
Q 1894 3584 2278 3584 
Q 2916 3584 3314 3078 
Q 3713 2572 3713 1747 
Q 3713 922 3314 415 
Q 2916 -91 2278 -91 
Q 1894 -91 1617 61 
Q 1341 213 1159 525 
L 1159 0 
L 581 0 
L 581 4863 
L 1159 4863 
L 1159 2969 
z
" id="DejaVuSans-62" transform="scale(0.015625)"/>
      </defs>
      <use xlink:href="#DejaVuSans-64"/>
      <use x="63.476562" xlink:href="#DejaVuSans-61"/>
      <use x="124.755859" xlink:href="#DejaVuSans-69"/>
      <use x="152.539062" xlink:href="#DejaVuSans-6c"/>
      <use x="180.322266" xlink:href="#DejaVuSans-79"/>
      <use x="237.751953" xlink:href="#DejaVuSans-2d"/>
      <use x="275.710938" xlink:href="#DejaVuSans-6f"/>
      <use x="336.892578" xlink:href="#DejaVuSans-70"/>
      <use x="400.369141" xlink:href="#DejaVuSans-65"/>
      <use x="461.892578" xlink:href="#DejaVuSans-6e"/>
      <use x="525.271484" xlink:href="#DejaVuSans-2d"/>
      <use x="561.355469" xlink:href="#DejaVuSans-72"/>
      <use x="600.21875" xlink:href="#DejaVuSans-65"/>
      <use x="661.742188" xlink:href="#DejaVuSans-62"/>
      <use x="725.21875" xlink:href="#DejaVuSans-61"/>
      <use x="786.498047" xlink:href="#DejaVuSans-6c"/>
     </g>
    </g>
    <g id="line2d_28">
     <path d="M 295.67625 98.604812 
L 315.67625 98.604812 
" style="fill:none;stroke:#ec5283;stroke-linecap:square;stroke-width:2;"/>
    </g>
    <g id="line2d_29"/>
    <g id="text_21">
     <!-- daily-close-rebal -->
     <g transform="translate(323.67625 102.104812)scale(0.1 -0.1)">
      <use xlink:href="#DejaVuSans-64"/>
      <use x="63.476562" xlink:href="#DejaVuSans-61"/>
      <use x="124.755859" xlink:href="#DejaVuSans-69"/>
      <use x="152.539062" xlink:href="#DejaVuSans-6c"/>
      <use x="180.322266" xlink:href="#DejaVuSans-79"/>
      <use x="237.751953" xlink:href="#DejaVuSans-2d"/>
      <use x="273.835938" xlink:href="#DejaVuSans-63"/>
      <use x="328.816406" xlink:href="#DejaVuSans-6c"/>
      <use x="356.599609" xlink:href="#DejaVuSans-6f"/>
      <use x="417.78125" xlink:href="#DejaVuSans-73"/>
      <use x="469.880859" xlink:href="#DejaVuSans-65"/>
      <use x="531.404297" xlink:href="#DejaVuSans-2d"/>
      <use x="567.488281" xlink:href="#DejaVuSans-72"/>
      <use x="606.351562" xlink:href="#DejaVuSans-65"/>
      <use x="667.875" xlink:href="#DejaVuSans-62"/>
      <use x="731.351562" xlink:href="#DejaVuSans-61"/>
      <use x="792.630859" xlink:href="#DejaVuSans-6c"/>
     </g>
    </g>
    <g id="line2d_30">
     <path d="M 295.67625 113.282937 
L 315.67625 113.282937 
" style="fill:none;stroke:#00ff00;stroke-linecap:square;stroke-opacity:0.9;stroke-width:2;"/>
    </g>
    <g id="line2d_31"/>
    <g id="text_22">
     <!-- trader-baseline -->
     <g transform="translate(323.67625 116.782937)scale(0.1 -0.1)">
      <use xlink:href="#DejaVuSans-74"/>
      <use x="39.208984" xlink:href="#DejaVuSans-72"/>
      <use x="80.322266" xlink:href="#DejaVuSans-61"/>
      <use x="141.601562" xlink:href="#DejaVuSans-64"/>
      <use x="205.078125" xlink:href="#DejaVuSans-65"/>
      <use x="266.601562" xlink:href="#DejaVuSans-72"/>
      <use x="301.339844" xlink:href="#DejaVuSans-2d"/>
      <use x="337.423828" xlink:href="#DejaVuSans-62"/>
      <use x="400.900391" xlink:href="#DejaVuSans-61"/>
      <use x="462.179688" xlink:href="#DejaVuSans-73"/>
      <use x="514.279297" xlink:href="#DejaVuSans-65"/>
      <use x="575.802734" xlink:href="#DejaVuSans-6c"/>
      <use x="603.585938" xlink:href="#DejaVuSans-69"/>
      <use x="631.369141" xlink:href="#DejaVuSans-6e"/>
      <use x="694.748047" xlink:href="#DejaVuSans-65"/>
     </g>
    </g>
    <g id="line2d_32">
     <path d="M 295.67625 127.961062 
L 315.67625 127.961062 
" style="fill:none;stroke:#a5b9cf;stroke-linecap:square;stroke-width:2;"/>
    </g>
    <g id="line2d_33"/>
    <g id="text_23">
     <!-- default-cfg -->
     <g transform="translate(323.67625 131.461062)scale(0.1 -0.1)">
      <defs>
       <path d="M 2375 4863 
L 2375 4384 
L 1825 4384 
Q 1516 4384 1395 4259 
Q 1275 4134 1275 3809 
L 1275 3500 
L 2222 3500 
L 2222 3053 
L 1275 3053 
L 1275 0 
L 697 0 
L 697 3053 
L 147 3053 
L 147 3500 
L 697 3500 
L 697 3744 
Q 697 4328 969 4595 
Q 1241 4863 1831 4863 
L 2375 4863 
z
" id="DejaVuSans-66" transform="scale(0.015625)"/>
       <path d="M 544 1381 
L 544 3500 
L 1119 3500 
L 1119 1403 
Q 1119 906 1312 657 
Q 1506 409 1894 409 
Q 2359 409 2629 706 
Q 2900 1003 2900 1516 
L 2900 3500 
L 3475 3500 
L 3475 0 
L 2900 0 
L 2900 538 
Q 2691 219 2414 64 
Q 2138 -91 1772 -91 
Q 1169 -91 856 284 
Q 544 659 544 1381 
z
M 1991 3584 
L 1991 3584 
z
" id="DejaVuSans-75" transform="scale(0.015625)"/>
       <path d="M 2906 1791 
Q 2906 2416 2648 2759 
Q 2391 3103 1925 3103 
Q 1463 3103 1205 2759 
Q 947 2416 947 1791 
Q 947 1169 1205 825 
Q 1463 481 1925 481 
Q 2391 481 2648 825 
Q 2906 1169 2906 1791 
z
M 3481 434 
Q 3481 -459 3084 -895 
Q 2688 -1331 1869 -1331 
Q 1566 -1331 1297 -1286 
Q 1028 -1241 775 -1147 
L 775 -588 
Q 1028 -725 1275 -790 
Q 1522 -856 1778 -856 
Q 2344 -856 2625 -561 
Q 2906 -266 2906 331 
L 2906 616 
Q 2728 306 2450 153 
Q 2172 0 1784 0 
Q 1141 0 747 490 
Q 353 981 353 1791 
Q 353 2603 747 3093 
Q 1141 3584 1784 3584 
Q 2172 3584 2450 3431 
Q 2728 3278 2906 2969 
L 2906 3500 
L 3481 3500 
L 3481 434 
z
" id="DejaVuSans-67" transform="scale(0.015625)"/>
      </defs>
      <use xlink:href="#DejaVuSans-64"/>
      <use x="63.476562" xlink:href="#DejaVuSans-65"/>
      <use x="125" xlink:href="#DejaVuSans-66"/>
      <use x="160.205078" xlink:href="#DejaVuSans-61"/>
      <use x="221.484375" xlink:href="#DejaVuSans-75"/>
      <use x="284.863281" xlink:href="#DejaVuSans-6c"/>
      <use x="312.646484" xlink:href="#DejaVuSans-74"/>
      <use x="351.855469" xlink:href="#DejaVuSans-2d"/>
      <use x="387.939453" xlink:href="#DejaVuSans-63"/>
      <use x="442.919922" xlink:href="#DejaVuSans-66"/>
      <use x="478.125" xlink:href="#DejaVuSans-67"/>
     </g>
    </g>
   </g>
  </g>
 </g>
 <defs>
  <clipPath id="p3a069eda6c">
   <rect height="235.008" width="357.12" x="57.6" y="41.472"/>
  </clipPath>
 </defs>
</svg>
