<?xml version="1.0" encoding="utf-8" standalone="no"?>
<!DOCTYPE svg PUBLIC "-//W3C//DTD SVG 1.1//EN"
  "http://www.w3.org/Graphics/SVG/1.1/DTD/svg11.dtd">
<svg height="345.6pt" version="1.1" viewBox="0 0 460.8 345.6" width="460.8pt" xmlns="http://www.w3.org/2000/svg" xmlns:xlink="http://www.w3.org/1999/xlink">
 <metadata>
  <rdf:RDF xmlns:cc="http://creativecommons.org/ns#" xmlns:dc="http://purl.org/dc/elements/1.1/" xmlns:rdf="http://www.w3.org/1999/02/22-rdf-syntax-ns#">
   <cc:Work>
    <dc:type rdf:resource="http://purl.org/dc/dcmitype/StillImage"/>
    <dc:date>2022-05-11T10:02:30.748437</dc:date>
    <dc:format>image/svg+xml</dc:format>
    <dc:creator>
     <cc:Agent>
      <dc:title>Matplotlib v3.4.3, https://matplotlib.org/</dc:title>
     </cc:Agent>
    </dc:creator>
   </cc:Work>
  </rdf:RDF>
 </metadata>
 <defs>
  <style type="text/css">*{stroke-linecap:butt;stroke-linejoin:round;}</style>
 </defs>
 <g id="figure_1">
  <g id="patch_1">
   <path d="M 0 345.6 
L 460.8 345.6 
L 460.8 0 
L 0 0 
z
" style="fill:#ffffff;"/>
  </g>
  <g id="axes_1">
   <g id="patch_2">
    <path d="M 57.6 276.48 
L 414.72 276.48 
L 414.72 41.472 
L 57.6 41.472 
z
" style="fill:#ffffff;"/>
   </g>
   <g id="matplotlib.axis_1">
    <g id="xtick_1">
     <g id="line2d_1">
      <defs>
       <path d="M 0 0 
L 0 3.5 
" id="m94a02ebda9" style="stroke:#000000;stroke-width:0.8;"/>
      </defs>
      <g>
       <use style="stroke:#000000;stroke-width:0.8;" x="98.228734" xlink:href="#m94a02ebda9" y="276.48"/>
      </g>
     </g>
     <g id="text_1">
      <!-- 2021-12 -->
      <g transform="translate(61.003913 310.951846)rotate(-30)scale(0.1 -0.1)">
       <defs>
        <path d="M 1228 531 
L 3431 531 
L 3431 0 
L 469 0 
L 469 531 
Q 828 903 1448 1529 
Q 2069 2156 2228 2338 
Q 2531 2678 2651 2914 
Q 2772 3150 2772 3378 
Q 2772 3750 2511 3984 
Q 2250 4219 1831 4219 
Q 1534 4219 1204 4116 
Q 875 4013 500 3803 
L 500 4441 
Q 881 4594 1212 4672 
Q 1544 4750 1819 4750 
Q 2544 4750 2975 4387 
Q 3406 4025 3406 3419 
Q 3406 3131 3298 2873 
Q 3191 2616 2906 2266 
Q 2828 2175 2409 1742 
Q 1991 1309 1228 531 
z
" id="DejaVuSans-32" transform="scale(0.015625)"/>
        <path d="M 2034 4250 
Q 1547 4250 1301 3770 
Q 1056 3291 1056 2328 
Q 1056 1369 1301 889 
Q 1547 409 2034 409 
Q 2525 409 2770 889 
Q 3016 1369 3016 2328 
Q 3016 3291 2770 3770 
Q 2525 4250 2034 4250 
z
M 2034 4750 
Q 2819 4750 3233 4129 
Q 3647 3509 3647 2328 
Q 3647 1150 3233 529 
Q 2819 -91 2034 -91 
Q 1250 -91 836 529 
Q 422 1150 422 2328 
Q 422 3509 836 4129 
Q 1250 4750 2034 4750 
z
" id="DejaVuSans-30" transform="scale(0.015625)"/>
        <path d="M 794 531 
L 1825 531 
L 1825 4091 
L 703 3866 
L 703 4441 
L 1819 4666 
L 2450 4666 
L 2450 531 
L 3481 531 
L 3481 0 
L 794 0 
L 794 531 
z
" id="DejaVuSans-31" transform="scale(0.015625)"/>
        <path d="M 313 2009 
L 1997 2009 
L 1997 1497 
L 313 1497 
L 313 2009 
z
" id="DejaVuSans-2d" transform="scale(0.015625)"/>
       </defs>
       <use xlink:href="#DejaVuSans-32"/>
       <use x="63.623047" xlink:href="#DejaVuSans-30"/>
       <use x="127.246094" xlink:href="#DejaVuSans-32"/>
       <use x="190.869141" xlink:href="#DejaVuSans-31"/>
       <use x="254.492188" xlink:href="#DejaVuSans-2d"/>
       <use x="290.576172" xlink:href="#DejaVuSans-31"/>
       <use x="354.199219" xlink:href="#DejaVuSans-32"/>
      </g>
     </g>
    </g>
    <g id="xtick_2">
     <g id="line2d_2">
      <g>
       <use style="stroke:#000000;stroke-width:0.8;" x="156.403826" xlink:href="#m94a02ebda9" y="276.48"/>
      </g>
     </g>
     <g id="text_2">
      <!-- 2022-01 -->
      <g transform="translate(119.179005 310.951846)rotate(-30)scale(0.1 -0.1)">
       <use xlink:href="#DejaVuSans-32"/>
       <use x="63.623047" xlink:href="#DejaVuSans-30"/>
       <use x="127.246094" xlink:href="#DejaVuSans-32"/>
       <use x="190.869141" xlink:href="#DejaVuSans-32"/>
       <use x="254.492188" xlink:href="#DejaVuSans-2d"/>
       <use x="290.576172" xlink:href="#DejaVuSans-30"/>
       <use x="354.199219" xlink:href="#DejaVuSans-31"/>
      </g>
     </g>
    </g>
    <g id="xtick_3">
     <g id="line2d_3">
      <g>
       <use style="stroke:#000000;stroke-width:0.8;" x="214.578917" xlink:href="#m94a02ebda9" y="276.48"/>
      </g>
     </g>
     <g id="text_3">
      <!-- 2022-02 -->
      <g transform="translate(177.354097 310.951846)rotate(-30)scale(0.1 -0.1)">
       <use xlink:href="#DejaVuSans-32"/>
       <use x="63.623047" xlink:href="#DejaVuSans-30"/>
       <use x="127.246094" xlink:href="#DejaVuSans-32"/>
       <use x="190.869141" xlink:href="#DejaVuSans-32"/>
       <use x="254.492188" xlink:href="#DejaVuSans-2d"/>
       <use x="290.576172" xlink:href="#DejaVuSans-30"/>
       <use x="354.199219" xlink:href="#DejaVuSans-32"/>
      </g>
     </g>
    </g>
    <g id="xtick_4">
     <g id="line2d_4">
      <g>
       <use style="stroke:#000000;stroke-width:0.8;" x="267.124162" xlink:href="#m94a02ebda9" y="276.48"/>
      </g>
     </g>
     <g id="text_4">
      <!-- 2022-03 -->
      <g transform="translate(229.899341 310.951846)rotate(-30)scale(0.1 -0.1)">
       <defs>
        <path d="M 2597 2516 
Q 3050 2419 3304 2112 
Q 3559 1806 3559 1356 
Q 3559 666 3084 287 
Q 2609 -91 1734 -91 
Q 1441 -91 1130 -33 
Q 819 25 488 141 
L 488 750 
Q 750 597 1062 519 
Q 1375 441 1716 441 
Q 2309 441 2620 675 
Q 2931 909 2931 1356 
Q 2931 1769 2642 2001 
Q 2353 2234 1838 2234 
L 1294 2234 
L 1294 2753 
L 1863 2753 
Q 2328 2753 2575 2939 
Q 2822 3125 2822 3475 
Q 2822 3834 2567 4026 
Q 2313 4219 1838 4219 
Q 1578 4219 1281 4162 
Q 984 4106 628 3988 
L 628 4550 
Q 988 4650 1302 4700 
Q 1616 4750 1894 4750 
Q 2613 4750 3031 4423 
Q 3450 4097 3450 3541 
Q 3450 3153 3228 2886 
Q 3006 2619 2597 2516 
z
" id="DejaVuSans-33" transform="scale(0.015625)"/>
       </defs>
       <use xlink:href="#DejaVuSans-32"/>
       <use x="63.623047" xlink:href="#DejaVuSans-30"/>
       <use x="127.246094" xlink:href="#DejaVuSans-32"/>
       <use x="190.869141" xlink:href="#DejaVuSans-32"/>
       <use x="254.492188" xlink:href="#DejaVuSans-2d"/>
       <use x="290.576172" xlink:href="#DejaVuSans-30"/>
       <use x="354.199219" xlink:href="#DejaVuSans-33"/>
      </g>
     </g>
    </g>
    <g id="xtick_5">
     <g id="line2d_5">
      <g>
       <use style="stroke:#000000;stroke-width:0.8;" x="325.299254" xlink:href="#m94a02ebda9" y="276.48"/>
      </g>
     </g>
     <g id="text_5">
      <!-- 2022-04 -->
      <g transform="translate(288.074433 310.951846)rotate(-30)scale(0.1 -0.1)">
       <defs>
        <path d="M 2419 4116 
L 825 1625 
L 2419 1625 
L 2419 4116 
z
M 2253 4666 
L 3047 4666 
L 3047 1625 
L 3713 1625 
L 3713 1100 
L 3047 1100 
L 3047 0 
L 2419 0 
L 2419 1100 
L 313 1100 
L 313 1709 
L 2253 4666 
z
" id="DejaVuSans-34" transform="scale(0.015625)"/>
       </defs>
       <use xlink:href="#DejaVuSans-32"/>
       <use x="63.623047" xlink:href="#DejaVuSans-30"/>
       <use x="127.246094" xlink:href="#DejaVuSans-32"/>
       <use x="190.869141" xlink:href="#DejaVuSans-32"/>
       <use x="254.492188" xlink:href="#DejaVuSans-2d"/>
       <use x="290.576172" xlink:href="#DejaVuSans-30"/>
       <use x="354.199219" xlink:href="#DejaVuSans-34"/>
      </g>
     </g>
    </g>
    <g id="xtick_6">
     <g id="line2d_6">
      <g>
       <use style="stroke:#000000;stroke-width:0.8;" x="381.59773" xlink:href="#m94a02ebda9" y="276.48"/>
      </g>
     </g>
     <g id="text_6">
      <!-- 2022-05 -->
      <g transform="translate(344.372909 310.951846)rotate(-30)scale(0.1 -0.1)">
       <defs>
        <path d="M 691 4666 
L 3169 4666 
L 3169 4134 
L 1269 4134 
L 1269 2991 
Q 1406 3038 1543 3061 
Q 1681 3084 1819 3084 
Q 2600 3084 3056 2656 
Q 3513 2228 3513 1497 
Q 3513 744 3044 326 
Q 2575 -91 1722 -91 
Q 1428 -91 1123 -41 
Q 819 9 494 109 
L 494 744 
Q 775 591 1075 516 
Q 1375 441 1709 441 
Q 2250 441 2565 725 
Q 2881 1009 2881 1497 
Q 2881 1984 2565 2268 
Q 2250 2553 1709 2553 
Q 1456 2553 1204 2497 
Q 953 2441 691 2322 
L 691 4666 
z
" id="DejaVuSans-35" transform="scale(0.015625)"/>
       </defs>
       <use xlink:href="#DejaVuSans-32"/>
       <use x="63.623047" xlink:href="#DejaVuSans-30"/>
       <use x="127.246094" xlink:href="#DejaVuSans-32"/>
       <use x="190.869141" xlink:href="#DejaVuSans-32"/>
       <use x="254.492188" xlink:href="#DejaVuSans-2d"/>
       <use x="290.576172" xlink:href="#DejaVuSans-30"/>
       <use x="354.199219" xlink:href="#DejaVuSans-35"/>
      </g>
     </g>
    </g>
    <g id="text_7">
     <!-- date -->
     <g transform="translate(224.885 324.351346)scale(0.1 -0.1)">
      <defs>
       <path d="M 2906 2969 
L 2906 4863 
L 3481 4863 
L 3481 0 
L 2906 0 
L 2906 525 
Q 2725 213 2448 61 
Q 2172 -91 1784 -91 
Q 1150 -91 751 415 
Q 353 922 353 1747 
Q 353 2572 751 3078 
Q 1150 3584 1784 3584 
Q 2172 3584 2448 3432 
Q 2725 3281 2906 2969 
z
M 947 1747 
Q 947 1113 1208 752 
Q 1469 391 1925 391 
Q 2381 391 2643 752 
Q 2906 1113 2906 1747 
Q 2906 2381 2643 2742 
Q 2381 3103 1925 3103 
Q 1469 3103 1208 2742 
Q 947 2381 947 1747 
z
" id="DejaVuSans-64" transform="scale(0.015625)"/>
       <path d="M 2194 1759 
Q 1497 1759 1228 1600 
Q 959 1441 959 1056 
Q 959 750 1161 570 
Q 1363 391 1709 391 
Q 2188 391 2477 730 
Q 2766 1069 2766 1631 
L 2766 1759 
L 2194 1759 
z
M 3341 1997 
L 3341 0 
L 2766 0 
L 2766 531 
Q 2569 213 2275 61 
Q 1981 -91 1556 -91 
Q 1019 -91 701 211 
Q 384 513 384 1019 
Q 384 1609 779 1909 
Q 1175 2209 1959 2209 
L 2766 2209 
L 2766 2266 
Q 2766 2663 2505 2880 
Q 2244 3097 1772 3097 
Q 1472 3097 1187 3025 
Q 903 2953 641 2809 
L 641 3341 
Q 956 3463 1253 3523 
Q 1550 3584 1831 3584 
Q 2591 3584 2966 3190 
Q 3341 2797 3341 1997 
z
" id="DejaVuSans-61" transform="scale(0.015625)"/>
       <path d="M 1172 4494 
L 1172 3500 
L 2356 3500 
L 2356 3053 
L 1172 3053 
L 1172 1153 
Q 1172 725 1289 603 
Q 1406 481 1766 481 
L 2356 481 
L 2356 0 
L 1766 0 
Q 1100 0 847 248 
Q 594 497 594 1153 
L 594 3053 
L 172 3053 
L 172 3500 
L 594 3500 
L 594 4494 
L 1172 4494 
z
" id="DejaVuSans-74" transform="scale(0.015625)"/>
       <path d="M 3597 1894 
L 3597 1613 
L 953 1613 
Q 991 1019 1311 708 
Q 1631 397 2203 397 
Q 2534 397 2845 478 
Q 3156 559 3463 722 
L 3463 178 
Q 3153 47 2828 -22 
Q 2503 -91 2169 -91 
Q 1331 -91 842 396 
Q 353 884 353 1716 
Q 353 2575 817 3079 
Q 1281 3584 2069 3584 
Q 2775 3584 3186 3129 
Q 3597 2675 3597 1894 
z
M 3022 2063 
Q 3016 2534 2758 2815 
Q 2500 3097 2075 3097 
Q 1594 3097 1305 2825 
Q 1016 2553 972 2059 
L 3022 2063 
z
" id="DejaVuSans-65" transform="scale(0.015625)"/>
      </defs>
      <use xlink:href="#DejaVuSans-64"/>
      <use x="63.476562" xlink:href="#DejaVuSans-61"/>
      <use x="124.755859" xlink:href="#DejaVuSans-74"/>
      <use x="163.964844" xlink:href="#DejaVuSans-65"/>
     </g>
    </g>
   </g>
   <g id="matplotlib.axis_2">
    <g id="ytick_1">
     <g id="line2d_7">
      <defs>
       <path d="M 0 0 
L -3.5 0 
" id="mb7cda4c4bc" style="stroke:#000000;stroke-width:0.8;"/>
      </defs>
      <g>
       <use style="stroke:#000000;stroke-width:0.8;" x="57.6" xlink:href="#mb7cda4c4bc" y="262.743823"/>
      </g>
     </g>
     <g id="text_8">
      <!-- 110000 -->
      <g transform="translate(12.425 266.543042)scale(0.1 -0.1)">
       <use xlink:href="#DejaVuSans-31"/>
       <use x="63.623047" xlink:href="#DejaVuSans-31"/>
       <use x="127.246094" xlink:href="#DejaVuSans-30"/>
       <use x="190.869141" xlink:href="#DejaVuSans-30"/>
       <use x="254.492188" xlink:href="#DejaVuSans-30"/>
       <use x="318.115234" xlink:href="#DejaVuSans-30"/>
      </g>
     </g>
    </g>
    <g id="ytick_2">
     <g id="line2d_8">
      <g>
       <use style="stroke:#000000;stroke-width:0.8;" x="57.6" xlink:href="#mb7cda4c4bc" y="233.783394"/>
      </g>
     </g>
     <g id="text_9">
      <!-- 112000 -->
      <g transform="translate(12.425 237.582613)scale(0.1 -0.1)">
       <use xlink:href="#DejaVuSans-31"/>
       <use x="63.623047" xlink:href="#DejaVuSans-31"/>
       <use x="127.246094" xlink:href="#DejaVuSans-32"/>
       <use x="190.869141" xlink:href="#DejaVuSans-30"/>
       <use x="254.492188" xlink:href="#DejaVuSans-30"/>
       <use x="318.115234" xlink:href="#DejaVuSans-30"/>
      </g>
     </g>
    </g>
    <g id="ytick_3">
     <g id="line2d_9">
      <g>
       <use style="stroke:#000000;stroke-width:0.8;" x="57.6" xlink:href="#mb7cda4c4bc" y="204.822966"/>
      </g>
     </g>
     <g id="text_10">
      <!-- 114000 -->
      <g transform="translate(12.425 208.622184)scale(0.1 -0.1)">
       <use xlink:href="#DejaVuSans-31"/>
       <use x="63.623047" xlink:href="#DejaVuSans-31"/>
       <use x="127.246094" xlink:href="#DejaVuSans-34"/>
       <use x="190.869141" xlink:href="#DejaVuSans-30"/>
       <use x="254.492188" xlink:href="#DejaVuSans-30"/>
       <use x="318.115234" xlink:href="#DejaVuSans-30"/>
      </g>
     </g>
    </g>
    <g id="ytick_4">
     <g id="line2d_10">
      <g>
       <use style="stroke:#000000;stroke-width:0.8;" x="57.6" xlink:href="#mb7cda4c4bc" y="175.862537"/>
      </g>
     </g>
     <g id="text_11">
      <!-- 116000 -->
      <g transform="translate(12.425 179.661756)scale(0.1 -0.1)">
       <defs>
        <path d="M 2113 2584 
Q 1688 2584 1439 2293 
Q 1191 2003 1191 1497 
Q 1191 994 1439 701 
Q 1688 409 2113 409 
Q 2538 409 2786 701 
Q 3034 994 3034 1497 
Q 3034 2003 2786 2293 
Q 2538 2584 2113 2584 
z
M 3366 4563 
L 3366 3988 
Q 3128 4100 2886 4159 
Q 2644 4219 2406 4219 
Q 1781 4219 1451 3797 
Q 1122 3375 1075 2522 
Q 1259 2794 1537 2939 
Q 1816 3084 2150 3084 
Q 2853 3084 3261 2657 
Q 3669 2231 3669 1497 
Q 3669 778 3244 343 
Q 2819 -91 2113 -91 
Q 1303 -91 875 529 
Q 447 1150 447 2328 
Q 447 3434 972 4092 
Q 1497 4750 2381 4750 
Q 2619 4750 2861 4703 
Q 3103 4656 3366 4563 
z
" id="DejaVuSans-36" transform="scale(0.015625)"/>
       </defs>
       <use xlink:href="#DejaVuSans-31"/>
       <use x="63.623047" xlink:href="#DejaVuSans-31"/>
       <use x="127.246094" xlink:href="#DejaVuSans-36"/>
       <use x="190.869141" xlink:href="#DejaVuSans-30"/>
       <use x="254.492188" xlink:href="#DejaVuSans-30"/>
       <use x="318.115234" xlink:href="#DejaVuSans-30"/>
      </g>
     </g>
    </g>
    <g id="ytick_5">
     <g id="line2d_11">
      <g>
       <use style="stroke:#000000;stroke-width:0.8;" x="57.6" xlink:href="#mb7cda4c4bc" y="146.902108"/>
      </g>
     </g>
     <g id="text_12">
      <!-- 118000 -->
      <g transform="translate(12.425 150.701327)scale(0.1 -0.1)">
       <defs>
        <path d="M 2034 2216 
Q 1584 2216 1326 1975 
Q 1069 1734 1069 1313 
Q 1069 891 1326 650 
Q 1584 409 2034 409 
Q 2484 409 2743 651 
Q 3003 894 3003 1313 
Q 3003 1734 2745 1975 
Q 2488 2216 2034 2216 
z
M 1403 2484 
Q 997 2584 770 2862 
Q 544 3141 544 3541 
Q 544 4100 942 4425 
Q 1341 4750 2034 4750 
Q 2731 4750 3128 4425 
Q 3525 4100 3525 3541 
Q 3525 3141 3298 2862 
Q 3072 2584 2669 2484 
Q 3125 2378 3379 2068 
Q 3634 1759 3634 1313 
Q 3634 634 3220 271 
Q 2806 -91 2034 -91 
Q 1263 -91 848 271 
Q 434 634 434 1313 
Q 434 1759 690 2068 
Q 947 2378 1403 2484 
z
M 1172 3481 
Q 1172 3119 1398 2916 
Q 1625 2713 2034 2713 
Q 2441 2713 2670 2916 
Q 2900 3119 2900 3481 
Q 2900 3844 2670 4047 
Q 2441 4250 2034 4250 
Q 1625 4250 1398 4047 
Q 1172 3844 1172 3481 
z
" id="DejaVuSans-38" transform="scale(0.015625)"/>
       </defs>
       <use xlink:href="#DejaVuSans-31"/>
       <use x="63.623047" xlink:href="#DejaVuSans-31"/>
       <use x="127.246094" xlink:href="#DejaVuSans-38"/>
       <use x="190.869141" xlink:href="#DejaVuSans-30"/>
       <use x="254.492188" xlink:href="#DejaVuSans-30"/>
       <use x="318.115234" xlink:href="#DejaVuSans-30"/>
      </g>
     </g>
    </g>
    <g id="ytick_6">
     <g id="line2d_12">
      <g>
       <use style="stroke:#000000;stroke-width:0.8;" x="57.6" xlink:href="#mb7cda4c4bc" y="117.94168"/>
      </g>
     </g>
     <g id="text_13">
      <!-- 120000 -->
      <g transform="translate(12.425 121.740899)scale(0.1 -0.1)">
       <use xlink:href="#DejaVuSans-31"/>
       <use x="63.623047" xlink:href="#DejaVuSans-32"/>
       <use x="127.246094" xlink:href="#DejaVuSans-30"/>
       <use x="190.869141" xlink:href="#DejaVuSans-30"/>
       <use x="254.492188" xlink:href="#DejaVuSans-30"/>
       <use x="318.115234" xlink:href="#DejaVuSans-30"/>
      </g>
     </g>
    </g>
    <g id="ytick_7">
     <g id="line2d_13">
      <g>
       <use style="stroke:#000000;stroke-width:0.8;" x="57.6" xlink:href="#mb7cda4c4bc" y="88.981251"/>
      </g>
     </g>
     <g id="text_14">
      <!-- 122000 -->
      <g transform="translate(12.425 92.78047)scale(0.1 -0.1)">
       <use xlink:href="#DejaVuSans-31"/>
       <use x="63.623047" xlink:href="#DejaVuSans-32"/>
       <use x="127.246094" xlink:href="#DejaVuSans-32"/>
       <use x="190.869141" xlink:href="#DejaVuSans-30"/>
       <use x="254.492188" xlink:href="#DejaVuSans-30"/>
       <use x="318.115234" xlink:href="#DejaVuSans-30"/>
      </g>
     </g>
    </g>
    <g id="ytick_8">
     <g id="line2d_14">
      <g>
       <use style="stroke:#000000;stroke-width:0.8;" x="57.6" xlink:href="#mb7cda4c4bc" y="60.020822"/>
      </g>
     </g>
     <g id="text_15">
      <!-- 124000 -->
      <g transform="translate(12.425 63.820041)scale(0.1 -0.1)">
       <use xlink:href="#DejaVuSans-31"/>
       <use x="63.623047" xlink:href="#DejaVuSans-32"/>
       <use x="127.246094" xlink:href="#DejaVuSans-34"/>
       <use x="190.869141" xlink:href="#DejaVuSans-30"/>
       <use x="254.492188" xlink:href="#DejaVuSans-30"/>
       <use x="318.115234" xlink:href="#DejaVuSans-30"/>
      </g>
     </g>
    </g>
   </g>
   <g id="line2d_15">
    <path clip-path="url(#pe6e5574b04)" d="M 73.832727 172.234588 
L 75.709343 181.735691 
L 81.339191 175.003444 
L 83.215807 166.70706 
L 85.092422 165.998319 
L 88.845654 166.037344 
L 94.475502 189.111727 
L 96.352118 225.461752 
L 98.228734 240.459503 
L 100.105349 211.508655 
L 101.981965 218.936054 
L 107.611813 196.944167 
L 109.488429 169.323075 
L 111.365045 168.013595 
L 113.241661 175.480084 
L 115.118276 161.94032 
L 120.748124 173.403212 
L 122.62474 180.532866 
L 124.501356 163.192523 
L 126.377972 164.071774 
L 128.254587 186.728514 
L 133.884435 213.381938 
L 135.761051 190.126648 
L 137.637667 176.768009 
L 139.514283 166.075054 
L 147.020746 145.53324 
L 148.897362 142.253718 
L 150.773978 138.761907 
L 152.650594 142.474356 
L 154.52721 140.516302 
L 160.157057 132.910105 
L 162.033673 121.268677 
L 163.910289 137.525674 
L 165.786905 138.031763 
L 167.663521 138.507434 
L 173.293368 145.654135 
L 175.169984 130.237258 
L 177.0466 125.486925 
L 178.923216 138.047442 
L 180.799832 139.5054 
L 188.306295 163.32622 
L 190.182911 174.600533 
L 192.059527 191.431352 
L 193.936143 215.696399 
L 199.565991 213.109222 
L 201.442606 221.723232 
L 203.319222 228.45933 
L 205.195838 231.586963 
L 207.072454 208.395787 
L 212.702302 183.366816 
L 214.578917 170.562067 
L 216.455533 158.351734 
L 218.332149 181.410397 
L 220.208765 179.497982 
L 225.838613 178.851291 
L 227.715229 168.522149 
L 229.591844 149.442725 
L 231.46846 174.663828 
L 233.345076 191.91702 
L 238.974924 203.45328 
L 240.85154 186.91957 
L 242.728156 180.208356 
L 244.604771 204.246261 
L 246.481387 211.669521 
L 253.987851 229.287379 
L 255.864467 252.628697 
L 257.741083 244.363245 
L 259.617698 201.061615 
L 265.247546 201.256231 
L 267.124162 224.313385 
L 269.000778 192.194616 
L 270.877394 193.160009 
L 272.754009 192.60152 
L 278.383857 227.839472 
L 280.260473 240.060752 
L 282.137089 214.335754 
L 284.013705 211.440247 
L 285.890321 227.97741 
L 291.520168 235.798559 
L 293.396784 212.826642 
L 295.2734 189.599297 
L 297.150016 166.168755 
L 299.026632 156.23961 
L 304.656479 153.629272 
L 306.533095 141.849074 
L 308.409711 154.303744 
L 310.286327 134.625691 
L 312.162943 119.705013 
L 317.79279 115.849665 
L 319.669406 100.769678 
L 321.546022 104.096019 
L 323.422638 124.991074 
L 325.299254 118.43996 
L 330.929101 114.603206 
L 332.805717 129.595258 
L 334.682333 133.576959 
L 336.558949 122.990698 
L 338.435565 117.401946 
L 344.065413 141.684253 
L 345.942028 141.522787 
L 347.818644 124.90525 
L 349.69526 135.311021 
L 357.201724 135.592065 
L 359.078339 114.69555 
L 360.954955 105.745685 
L 362.831571 130.447233 
L 364.708187 175.809386 
L 370.338035 177.506691 
L 372.214651 213.655801 
L 374.091266 205.156641 
L 375.967882 173.731298 
L 377.844498 225.734062 
L 383.474346 223.007518 
L 385.350962 212.47298 
L 387.227578 163.164661 
L 389.104193 211.826131 
L 390.980809 213.955575 
L 396.610657 264.252959 
L 398.487273 252.110641 
" style="fill:none;stroke:#0000ff;stroke-linecap:square;stroke-opacity:0.9;stroke-width:2;"/>
   </g>
   <g id="line2d_16">
    <path clip-path="url(#pe6e5574b04)" d="M 73.832727 172.234588 
L 75.709343 181.553637 
L 81.339191 175.682177 
L 83.215807 167.389233 
L 85.092422 165.641401 
L 88.845654 203.19995 
L 94.475502 189.090315 
L 96.352118 226.250394 
L 98.228734 240.684409 
L 100.105349 212.196679 
L 101.981965 218.895291 
L 107.611813 197.474966 
L 109.488429 170.246574 
L 111.365045 168.174493 
L 113.241661 175.422755 
L 115.118276 162.153019 
L 120.748124 173.380228 
L 122.62474 181.300373 
L 124.501356 163.414841 
L 126.377972 164.017929 
L 128.254587 186.892952 
L 133.884435 213.331611 
L 135.761051 190.209901 
L 137.637667 176.357611 
L 139.514283 166.599887 
L 147.020746 145.112102 
L 148.897362 141.620646 
L 150.773978 138.580074 
L 152.650594 142.937876 
L 154.52721 140.430007 
L 160.157057 134.483426 
L 162.033673 120.744495 
L 163.910289 137.399947 
L 165.786905 138.299638 
L 167.663521 138.330427 
L 173.293368 145.81869 
L 175.169984 129.884179 
L 177.0466 124.853027 
L 178.923216 137.241414 
L 180.799832 137.813329 
L 188.306295 161.796394 
L 190.182911 173.328816 
L 192.059527 188.967184 
L 193.936143 213.01226 
L 199.565991 210.349427 
L 201.442606 218.101609 
L 203.319222 225.56072 
L 205.195838 226.546849 
L 207.072454 204.977535 
L 212.702302 182.363233 
L 214.578917 167.552051 
L 216.455533 154.555106 
L 218.332149 177.901715 
L 220.208765 175.158378 
L 225.838613 173.864161 
L 227.715229 164.361664 
L 229.591844 146.728435 
L 231.46846 171.691509 
L 233.345076 185.958785 
L 238.974924 199.202707 
L 240.85154 184.416891 
L 242.728156 177.92908 
L 244.604771 200.072446 
L 246.481387 208.342577 
L 253.987851 224.528908 
L 255.864467 246.114651 
L 257.741083 240.549758 
L 259.617698 196.904639 
L 265.247546 196.887894 
L 267.124162 217.732861 
L 269.000778 185.271076 
L 270.877394 184.332309 
L 272.754009 183.199987 
L 278.383857 214.042971 
L 280.260473 226.120909 
L 282.137089 204.811985 
L 284.013705 200.754975 
L 285.890321 216.252658 
L 291.520168 225.081044 
L 293.396784 206.957172 
L 295.2734 184.213006 
L 297.150016 160.105603 
L 299.026632 151.864925 
L 304.656479 147.966226 
L 306.533095 137.090173 
L 308.409711 147.539633 
L 310.286327 129.681179 
L 312.162943 113.327087 
L 317.79279 110.923632 
L 319.669406 96.011964 
L 321.546022 98.014542 
L 323.422638 120.439178 
L 325.299254 112.359311 
L 330.929101 109.011793 
L 332.805717 124.426171 
L 334.682333 126.334491 
L 336.558949 114.03456 
L 338.435565 106.122536 
L 344.065413 131.019841 
L 345.942028 130.818187 
L 347.818644 114.649585 
L 349.69526 124.461216 
L 357.201724 123.918617 
L 359.078339 103.477964 
L 360.954955 94.189867 
L 362.831571 120.790831 
L 364.708187 166.781304 
L 370.338035 170.029608 
L 372.214651 203.620332 
L 374.091266 195.014355 
L 375.967882 163.62588 
L 377.844498 215.091023 
L 383.474346 212.829494 
L 385.350962 200.079011 
L 387.227578 150.117268 
L 389.104193 195.269498 
L 390.980809 194.674707 
L 396.610657 249.525794 
L 398.487273 252.079595 
" style="fill:none;stroke:#ff0000;stroke-linecap:square;stroke-opacity:0.9;stroke-width:2;"/>
   </g>
   <g id="line2d_17">
    <path clip-path="url(#pe6e5574b04)" d="M 73.832727 172.234588 
L 75.709343 181.105044 
L 81.339191 175.453393 
L 83.215807 166.364056 
L 85.092422 165.889842 
L 88.845654 203.04004 
L 94.475502 189.741287 
L 96.352118 224.633662 
L 98.228734 239.695279 
L 100.105349 210.40965 
L 101.981965 217.638637 
L 107.611813 195.835485 
L 109.488429 168.492059 
L 111.365045 166.904805 
L 113.241661 175.197769 
L 115.118276 161.165288 
L 120.748124 172.817289 
L 122.62474 180.077441 
L 124.501356 162.214485 
L 126.377972 163.380842 
L 128.254587 186.737875 
L 133.884435 213.935574 
L 135.761051 188.556348 
L 137.637667 174.692989 
L 139.514283 165.596153 
L 147.020746 143.206837 
L 148.897362 140.507395 
L 150.773978 137.159718 
L 152.650594 141.340271 
L 154.52721 139.48862 
L 160.157057 132.343807 
L 162.033673 119.930087 
L 163.910289 135.626419 
L 165.786905 136.402658 
L 167.663521 136.161957 
L 173.293368 143.686379 
L 175.169984 129.201954 
L 177.0466 122.69579 
L 178.923216 136.555385 
L 180.799832 137.753499 
L 188.306295 161.085483 
L 190.182911 172.571939 
L 192.059527 188.923643 
L 193.936143 214.145216 
L 199.565991 210.450427 
L 201.442606 219.270504 
L 203.319222 226.772702 
L 205.195838 230.161121 
L 207.072454 206.805974 
L 212.702302 182.474737 
L 214.578917 168.153793 
L 216.455533 156.073611 
L 218.332149 180.006276 
L 220.208765 176.826462 
L 225.838613 176.094037 
L 227.715229 166.331293 
L 229.591844 147.190899 
L 231.46846 172.068417 
L 233.345076 189.749941 
L 238.974924 200.763158 
L 240.85154 183.424698 
L 242.728156 179.258733 
L 244.604771 202.004619 
L 246.481387 208.956092 
L 253.987851 227.318809 
L 255.864467 250.1388 
L 257.741083 241.070307 
L 259.617698 196.772927 
L 265.247546 198.322231 
L 267.124162 220.12651 
L 269.000778 188.321365 
L 270.877394 189.366462 
L 272.754009 188.571652 
L 278.383857 224.197817 
L 280.260473 236.379533 
L 282.137089 211.084504 
L 284.013705 208.356176 
L 285.890321 225.063515 
L 291.520168 232.756797 
L 293.396784 209.846035 
L 295.2734 185.389082 
L 297.150016 160.862913 
L 299.026632 152.114143 
L 304.656479 149.854574 
L 306.533095 137.835988 
L 308.409711 150.99871 
L 310.286327 131.649561 
L 312.162943 116.342629 
L 317.79279 112.00223 
L 319.669406 95.73723 
L 321.546022 98.757646 
L 323.422638 121.253069 
L 325.299254 114.21941 
L 330.929101 110.977208 
L 332.805717 126.08461 
L 334.682333 129.712456 
L 336.558949 118.532019 
L 338.435565 113.105113 
L 344.065413 137.868631 
L 345.942028 137.793977 
L 347.818644 121.069956 
L 349.69526 131.327223 
L 357.201724 132.469632 
L 359.078339 110.226128 
L 360.954955 101.283335 
L 362.831571 126.536975 
L 364.708187 172.435598 
L 370.338035 173.270082 
L 372.214651 210.117575 
L 374.091266 201.84416 
L 375.967882 169.664966 
L 377.844498 223.221629 
L 383.474346 219.641171 
L 385.350962 208.301007 
L 387.227578 160.316541 
L 389.104193 208.852581 
L 390.980809 210.613265 
L 396.610657 261.170121 
L 398.487273 264.768496 
" style="fill:none;stroke:#008000;stroke-linecap:square;stroke-opacity:0.9;stroke-width:2;"/>
   </g>
   <g id="line2d_18">
    <path clip-path="url(#pe6e5574b04)" d="M 73.832727 172.234588 
L 75.709343 181.572718 
L 81.339191 175.981137 
L 83.215807 166.256898 
L 85.092422 165.044497 
L 88.845654 203.684071 
L 94.475502 188.671314 
L 96.352118 224.653249 
L 98.228734 240.746362 
L 100.105349 211.542354 
L 101.981965 219.095988 
L 107.611813 197.007617 
L 109.488429 169.780975 
L 111.365045 167.155215 
L 113.241661 174.428849 
L 115.118276 162.105942 
L 120.748124 173.586081 
L 122.62474 180.9265 
L 124.501356 163.079391 
L 126.377972 163.410723 
L 128.254587 186.720792 
L 133.884435 214.046694 
L 135.761051 189.896386 
L 137.637667 175.588447 
L 139.514283 165.712652 
L 147.020746 143.652608 
L 148.897362 140.467563 
L 150.773978 137.746622 
L 152.650594 142.415031 
L 154.52721 140.731153 
L 160.157057 132.824537 
L 162.033673 120.431795 
L 163.910289 137.437562 
L 165.786905 136.743767 
L 167.663521 136.594264 
L 173.293368 144.863647 
L 175.169984 129.80533 
L 177.0466 123.99048 
L 178.923216 136.563744 
L 180.799832 137.301682 
L 188.306295 162.487435 
L 190.182911 174.623185 
L 192.059527 189.883876 
L 193.936143 214.565076 
L 199.565991 211.432886 
L 201.442606 221.143665 
L 203.319222 227.311433 
L 205.195838 230.813358 
L 207.072454 206.872567 
L 212.702302 183.066822 
L 214.578917 169.105437 
L 216.455533 157.384316 
L 218.332149 179.617193 
L 220.208765 177.597617 
L 225.838613 177.214745 
L 227.715229 166.706167 
L 229.591844 148.324788 
L 231.46846 173.213767 
L 233.345076 189.878228 
L 238.974924 202.084224 
L 240.85154 184.876749 
L 242.728156 179.019376 
L 244.604771 202.784583 
L 246.481387 210.809933 
L 253.987851 227.43336 
L 255.864467 251.484634 
L 257.741083 243.469093 
L 259.617698 199.289903 
L 265.247546 199.468045 
L 267.124162 222.306542 
L 269.000778 190.531019 
L 270.877394 191.263672 
L 272.754009 190.983608 
L 278.383857 226.892185 
L 280.260473 239.602357 
L 282.137089 212.876723 
L 284.013705 210.332556 
L 285.890321 228.139945 
L 291.520168 234.323551 
L 293.396784 211.092743 
L 295.2734 188.592053 
L 297.150016 164.350483 
L 299.026632 153.60725 
L 304.656479 151.997984 
L 306.533095 139.074467 
L 308.409711 152.011483 
L 310.286327 133.916227 
L 312.162943 119.161237 
L 317.79279 114.208383 
L 319.669406 98.333535 
L 321.546022 101.428696 
L 323.422638 123.05908 
L 325.299254 115.491789 
L 330.929101 113.175738 
L 332.805717 127.754696 
L 334.682333 131.609716 
L 336.558949 121.65899 
L 338.435565 115.674136 
L 344.065413 139.323578 
L 345.942028 140.283172 
L 347.818644 123.061967 
L 349.69526 133.997106 
L 357.201724 133.97614 
L 359.078339 112.845618 
L 360.954955 103.318228 
L 362.831571 128.948064 
L 364.708187 174.469006 
L 370.338035 175.885018 
L 372.214651 211.73921 
L 374.091266 204.115217 
L 375.967882 172.470566 
L 377.844498 224.57123 
L 383.474346 222.488246 
L 385.350962 210.659489 
L 387.227578 161.892098 
L 389.104193 210.018254 
L 390.980809 212.422829 
L 396.610657 262.983365 
L 398.487273 265.797818 
" style="fill:none;stroke:#ec5283;stroke-linecap:square;stroke-width:2;"/>
   </g>
   <g id="line2d_19">
    <path clip-path="url(#pe6e5574b04)" d="M 73.832727 172.234588 
L 75.709343 181.719868 
L 81.339191 175.153438 
L 83.215807 166.386846 
L 85.092422 165.075858 
L 88.845654 203.665697 
L 94.475502 188.601827 
L 96.352118 224.523572 
L 98.228734 239.982792 
L 100.105349 210.169465 
L 101.981965 217.459397 
L 107.611813 195.966854 
L 109.488429 168.651165 
L 111.365045 166.292399 
L 113.241661 174.702413 
L 115.118276 161.260721 
L 120.748124 172.479366 
L 122.62474 180.309101 
L 124.501356 162.428346 
L 126.377972 162.909986 
L 128.254587 186.996606 
L 133.884435 212.815745 
L 135.761051 188.977251 
L 137.637667 175.181693 
L 139.514283 164.592368 
L 147.020746 143.256358 
L 148.897362 140.363842 
L 150.773978 137.214093 
L 152.650594 140.7575 
L 154.52721 140.112549 
L 160.157057 132.588989 
L 162.033673 118.704821 
L 163.910289 136.423424 
L 165.786905 137.557035 
L 167.663521 135.961566 
L 173.293368 143.247054 
L 175.169984 128.766612 
L 177.0466 123.827546 
L 178.923216 136.64412 
L 180.799832 137.463807 
L 188.306295 161.83793 
L 190.182911 172.446082 
L 192.059527 188.49052 
L 193.936143 213.70069 
L 199.565991 210.843443 
L 201.442606 220.013521 
L 203.319222 227.26168 
L 205.195838 229.458973 
L 207.072454 206.727164 
L 212.702302 182.491979 
L 214.578917 167.77754 
L 216.455533 155.943186 
L 218.332149 178.81984 
L 220.208765 177.310929 
L 225.838613 176.636741 
L 227.715229 165.687016 
L 229.591844 146.908362 
L 231.46846 172.287862 
L 233.345076 189.932513 
L 238.974924 200.784896 
L 240.85154 184.431137 
L 242.728156 178.868969 
L 244.604771 202.141729 
L 246.481387 209.561494 
L 253.987851 227.179661 
L 255.864467 249.123334 
L 257.741083 241.342835 
L 259.617698 196.733721 
L 265.247546 198.300531 
L 267.124162 219.927189 
L 269.000778 188.826158 
L 270.877394 189.113287 
L 272.754009 189.250277 
L 278.383857 224.060608 
L 280.260473 236.422702 
L 282.137089 210.210784 
L 284.013705 208.949177 
L 285.890321 225.384205 
L 291.520168 232.80258 
L 293.396784 209.030722 
L 295.2734 185.763768 
L 297.150016 160.979326 
L 299.026632 151.440099 
L 304.656479 149.706857 
L 306.533095 137.97924 
L 308.409711 149.846339 
L 310.286327 131.284167 
L 312.162943 116.676119 
L 317.79279 111.536544 
L 319.669406 96.107566 
L 321.546022 99.91622 
L 323.422638 121.633879 
L 325.299254 113.710775 
L 330.929101 110.378065 
L 332.805717 125.914106 
L 334.682333 129.642298 
L 336.558949 118.709723 
L 338.435565 114.21193 
L 344.065413 137.737808 
L 345.942028 138.035821 
L 347.818644 120.945918 
L 349.69526 132.47964 
L 357.201724 131.678815 
L 359.078339 110.738517 
L 360.954955 102.439426 
L 362.831571 126.551276 
L 364.708187 171.731133 
L 370.338035 173.786474 
L 372.214651 209.042989 
L 374.091266 201.118903 
L 375.967882 169.590143 
L 377.844498 223.140508 
L 383.474346 220.362831 
L 385.350962 208.741744 
L 387.227578 160.255243 
L 389.104193 208.260142 
L 390.980809 211.046633 
L 396.610657 262.02258 
L 398.487273 263.911431 
" style="fill:none;stroke:#00ff00;stroke-linecap:square;stroke-opacity:0.9;stroke-width:2;"/>
   </g>
   <g id="line2d_20">
    <path clip-path="url(#pe6e5574b04)" d="M 73.832727 172.234588 
L 75.709343 183.263257 
L 81.339191 175.809865 
L 83.215807 163.781078 
L 85.092422 164.275076 
L 88.845654 198.366382 
L 94.475502 189.61166 
L 96.352118 228.53441 
L 98.228734 242.204889 
L 100.105349 208.168779 
L 101.981965 209.148539 
L 107.611813 186.671403 
L 109.488429 162.761407 
L 111.365045 160.73514 
L 113.241661 165.646636 
L 115.118276 154.123405 
L 120.748124 165.264712 
L 122.62474 173.422166 
L 124.501356 158.344033 
L 126.377972 158.753487 
L 128.254587 181.476794 
L 133.884435 205.842042 
L 135.761051 173.853225 
L 137.637667 161.747425 
L 139.514283 145.43725 
L 147.020746 125.235093 
L 148.897362 119.148191 
L 150.773978 116.734272 
L 152.650594 122.619928 
L 154.52721 119.033139 
L 160.157057 110.333922 
L 162.033673 88.587735 
L 163.910289 106.185564 
L 165.786905 105.401888 
L 167.663521 106.327715 
L 173.293368 112.781788 
L 175.169984 96.818513 
L 177.0466 89.98978 
L 178.923216 105.819011 
L 180.799832 109.233331 
L 188.306295 135.486213 
L 190.182911 150.654593 
L 192.059527 168.772438 
L 193.936143 197.134167 
L 199.565991 193.171696 
L 201.442606 204.853542 
L 203.319222 211.059073 
L 205.195838 218.32938 
L 207.072454 190.450855 
L 212.702302 161.953135 
L 214.578917 146.378744 
L 216.455533 135.745868 
L 218.332149 165.133201 
L 220.208765 159.994029 
L 225.838613 161.436847 
L 227.715229 145.229422 
L 229.591844 121.478342 
L 231.46846 148.0255 
L 233.345076 172.809785 
L 238.974924 182.399644 
L 240.85154 160.304935 
L 242.728156 153.974363 
L 244.604771 182.307871 
L 246.481387 191.666892 
L 253.987851 209.687805 
L 255.864467 236.417748 
L 257.741083 221.778822 
L 259.617698 178.383151 
L 265.247546 176.772693 
L 267.124162 203.716171 
L 269.000778 169.178837 
L 270.877394 175.172898 
L 272.754009 182.697702 
L 278.383857 233.120838 
L 280.260473 239.982371 
L 282.137089 196.164721 
L 284.013705 198.528665 
L 285.890321 218.622427 
L 291.520168 229.188943 
L 293.396784 193.112691 
L 295.2734 157.677762 
L 297.150016 134.552013 
L 299.026632 117.322606 
L 304.656479 112.831444 
L 306.533095 94.482333 
L 308.409711 110.287759 
L 310.286327 91.461275 
L 312.162943 78.515169 
L 317.79279 69.666446 
L 319.669406 52.154182 
L 321.546022 56.504534 
L 323.422638 77.590742 
L 325.299254 73.185627 
L 330.929101 69.28567 
L 332.805717 87.371841 
L 334.682333 93.228765 
L 336.558949 85.028923 
L 338.435565 85.93043 
L 344.065413 107.574933 
L 345.942028 108.978508 
L 347.818644 88.712992 
L 349.69526 102.385599 
L 357.201724 101.573225 
L 359.078339 75.916936 
L 360.954955 69.448528 
L 362.831571 96.625871 
L 364.708187 143.264419 
L 370.338035 143.787186 
L 372.214651 182.868043 
L 374.091266 174.061447 
L 375.967882 140.199904 
L 377.844498 197.133198 
L 383.474346 189.623459 
L 385.350962 177.203266 
L 387.227578 127.079665 
L 389.104193 181.459834 
L 390.980809 185.632395 
L 396.610657 242.557164 
L 398.487273 243.575316 
" style="fill:none;stroke:#a5b9cf;stroke-linecap:square;stroke-width:2;"/>
   </g>
   <g id="patch_3">
    <path d="M 57.6 276.48 
L 57.6 41.472 
" style="fill:none;stroke:#000000;stroke-linecap:square;stroke-linejoin:miter;stroke-width:0.8;"/>
   </g>
   <g id="patch_4">
    <path d="M 414.72 276.48 
L 414.72 41.472 
" style="fill:none;stroke:#000000;stroke-linecap:square;stroke-linejoin:miter;stroke-width:0.8;"/>
   </g>
   <g id="patch_5">
    <path d="M 57.6 276.48 
L 414.72 276.48 
" style="fill:none;stroke:#000000;stroke-linecap:square;stroke-linejoin:miter;stroke-width:0.8;"/>
   </g>
   <g id="patch_6">
    <path d="M 57.6 41.472 
L 414.72 41.472 
" style="fill:none;stroke:#000000;stroke-linecap:square;stroke-linejoin:miter;stroke-width:0.8;"/>
   </g>
   <g id="text_16">
    <!-- UNCORRELATED -->
    <g transform="translate(187.044375 22.034625)scale(0.12 -0.12)">
     <defs>
      <path d="M 556 4666 
L 1191 4666 
L 1191 1831 
Q 1191 1081 1462 751 
Q 1734 422 2344 422 
Q 2950 422 3222 751 
Q 3494 1081 3494 1831 
L 3494 4666 
L 4128 4666 
L 4128 1753 
Q 4128 841 3676 375 
Q 3225 -91 2344 -91 
Q 1459 -91 1007 375 
Q 556 841 556 1753 
L 556 4666 
z
" id="DejaVuSans-55" transform="scale(0.015625)"/>
      <path d="M 628 4666 
L 1478 4666 
L 3547 763 
L 3547 4666 
L 4159 4666 
L 4159 0 
L 3309 0 
L 1241 3903 
L 1241 0 
L 628 0 
L 628 4666 
z
" id="DejaVuSans-4e" transform="scale(0.015625)"/>
      <path d="M 4122 4306 
L 4122 3641 
Q 3803 3938 3442 4084 
Q 3081 4231 2675 4231 
Q 1875 4231 1450 3742 
Q 1025 3253 1025 2328 
Q 1025 1406 1450 917 
Q 1875 428 2675 428 
Q 3081 428 3442 575 
Q 3803 722 4122 1019 
L 4122 359 
Q 3791 134 3420 21 
Q 3050 -91 2638 -91 
Q 1578 -91 968 557 
Q 359 1206 359 2328 
Q 359 3453 968 4101 
Q 1578 4750 2638 4750 
Q 3056 4750 3426 4639 
Q 3797 4528 4122 4306 
z
" id="DejaVuSans-43" transform="scale(0.015625)"/>
      <path d="M 2522 4238 
Q 1834 4238 1429 3725 
Q 1025 3213 1025 2328 
Q 1025 1447 1429 934 
Q 1834 422 2522 422 
Q 3209 422 3611 934 
Q 4013 1447 4013 2328 
Q 4013 3213 3611 3725 
Q 3209 4238 2522 4238 
z
M 2522 4750 
Q 3503 4750 4090 4092 
Q 4678 3434 4678 2328 
Q 4678 1225 4090 567 
Q 3503 -91 2522 -91 
Q 1538 -91 948 565 
Q 359 1222 359 2328 
Q 359 3434 948 4092 
Q 1538 4750 2522 4750 
z
" id="DejaVuSans-4f" transform="scale(0.015625)"/>
      <path d="M 2841 2188 
Q 3044 2119 3236 1894 
Q 3428 1669 3622 1275 
L 4263 0 
L 3584 0 
L 2988 1197 
Q 2756 1666 2539 1819 
Q 2322 1972 1947 1972 
L 1259 1972 
L 1259 0 
L 628 0 
L 628 4666 
L 2053 4666 
Q 2853 4666 3247 4331 
Q 3641 3997 3641 3322 
Q 3641 2881 3436 2590 
Q 3231 2300 2841 2188 
z
M 1259 4147 
L 1259 2491 
L 2053 2491 
Q 2509 2491 2742 2702 
Q 2975 2913 2975 3322 
Q 2975 3731 2742 3939 
Q 2509 4147 2053 4147 
L 1259 4147 
z
" id="DejaVuSans-52" transform="scale(0.015625)"/>
      <path d="M 628 4666 
L 3578 4666 
L 3578 4134 
L 1259 4134 
L 1259 2753 
L 3481 2753 
L 3481 2222 
L 1259 2222 
L 1259 531 
L 3634 531 
L 3634 0 
L 628 0 
L 628 4666 
z
" id="DejaVuSans-45" transform="scale(0.015625)"/>
      <path d="M 628 4666 
L 1259 4666 
L 1259 531 
L 3531 531 
L 3531 0 
L 628 0 
L 628 4666 
z
" id="DejaVuSans-4c" transform="scale(0.015625)"/>
      <path d="M 2188 4044 
L 1331 1722 
L 3047 1722 
L 2188 4044 
z
M 1831 4666 
L 2547 4666 
L 4325 0 
L 3669 0 
L 3244 1197 
L 1141 1197 
L 716 0 
L 50 0 
L 1831 4666 
z
" id="DejaVuSans-41" transform="scale(0.015625)"/>
      <path d="M -19 4666 
L 3928 4666 
L 3928 4134 
L 2272 4134 
L 2272 0 
L 1638 0 
L 1638 4134 
L -19 4134 
L -19 4666 
z
" id="DejaVuSans-54" transform="scale(0.015625)"/>
      <path d="M 1259 4147 
L 1259 519 
L 2022 519 
Q 2988 519 3436 956 
Q 3884 1394 3884 2338 
Q 3884 3275 3436 3711 
Q 2988 4147 2022 4147 
L 1259 4147 
z
M 628 4666 
L 1925 4666 
Q 3281 4666 3915 4102 
Q 4550 3538 4550 2338 
Q 4550 1131 3912 565 
Q 3275 0 1925 0 
L 628 0 
L 628 4666 
z
" id="DejaVuSans-44" transform="scale(0.015625)"/>
     </defs>
     <use xlink:href="#DejaVuSans-55"/>
     <use x="73.193359" xlink:href="#DejaVuSans-4e"/>
     <use x="147.998047" xlink:href="#DejaVuSans-43"/>
     <use x="217.822266" xlink:href="#DejaVuSans-4f"/>
     <use x="296.533203" xlink:href="#DejaVuSans-52"/>
     <use x="366.015625" xlink:href="#DejaVuSans-52"/>
     <use x="435.498047" xlink:href="#DejaVuSans-45"/>
     <use x="498.681641" xlink:href="#DejaVuSans-4c"/>
     <use x="556.644531" xlink:href="#DejaVuSans-41"/>
     <use x="617.302734" xlink:href="#DejaVuSans-54"/>
     <use x="678.386719" xlink:href="#DejaVuSans-45"/>
     <use x="741.570312" xlink:href="#DejaVuSans-44"/>
    </g>
    <!-- daily_report -->
    <g transform="translate(200.466563 35.472)scale(0.12 -0.12)">
     <defs>
      <path d="M 603 3500 
L 1178 3500 
L 1178 0 
L 603 0 
L 603 3500 
z
M 603 4863 
L 1178 4863 
L 1178 4134 
L 603 4134 
L 603 4863 
z
" id="DejaVuSans-69" transform="scale(0.015625)"/>
      <path d="M 603 4863 
L 1178 4863 
L 1178 0 
L 603 0 
L 603 4863 
z
" id="DejaVuSans-6c" transform="scale(0.015625)"/>
      <path d="M 2059 -325 
Q 1816 -950 1584 -1140 
Q 1353 -1331 966 -1331 
L 506 -1331 
L 506 -850 
L 844 -850 
Q 1081 -850 1212 -737 
Q 1344 -625 1503 -206 
L 1606 56 
L 191 3500 
L 800 3500 
L 1894 763 
L 2988 3500 
L 3597 3500 
L 2059 -325 
z
" id="DejaVuSans-79" transform="scale(0.015625)"/>
      <path d="M 3263 -1063 
L 3263 -1509 
L -63 -1509 
L -63 -1063 
L 3263 -1063 
z
" id="DejaVuSans-5f" transform="scale(0.015625)"/>
      <path d="M 2631 2963 
Q 2534 3019 2420 3045 
Q 2306 3072 2169 3072 
Q 1681 3072 1420 2755 
Q 1159 2438 1159 1844 
L 1159 0 
L 581 0 
L 581 3500 
L 1159 3500 
L 1159 2956 
Q 1341 3275 1631 3429 
Q 1922 3584 2338 3584 
Q 2397 3584 2469 3576 
Q 2541 3569 2628 3553 
L 2631 2963 
z
" id="DejaVuSans-72" transform="scale(0.015625)"/>
      <path d="M 1159 525 
L 1159 -1331 
L 581 -1331 
L 581 3500 
L 1159 3500 
L 1159 2969 
Q 1341 3281 1617 3432 
Q 1894 3584 2278 3584 
Q 2916 3584 3314 3078 
Q 3713 2572 3713 1747 
Q 3713 922 3314 415 
Q 2916 -91 2278 -91 
Q 1894 -91 1617 61 
Q 1341 213 1159 525 
z
M 3116 1747 
Q 3116 2381 2855 2742 
Q 2594 3103 2138 3103 
Q 1681 3103 1420 2742 
Q 1159 2381 1159 1747 
Q 1159 1113 1420 752 
Q 1681 391 2138 391 
Q 2594 391 2855 752 
Q 3116 1113 3116 1747 
z
" id="DejaVuSans-70" transform="scale(0.015625)"/>
      <path d="M 1959 3097 
Q 1497 3097 1228 2736 
Q 959 2375 959 1747 
Q 959 1119 1226 758 
Q 1494 397 1959 397 
Q 2419 397 2687 759 
Q 2956 1122 2956 1747 
Q 2956 2369 2687 2733 
Q 2419 3097 1959 3097 
z
M 1959 3584 
Q 2709 3584 3137 3096 
Q 3566 2609 3566 1747 
Q 3566 888 3137 398 
Q 2709 -91 1959 -91 
Q 1206 -91 779 398 
Q 353 888 353 1747 
Q 353 2609 779 3096 
Q 1206 3584 1959 3584 
z
" id="DejaVuSans-6f" transform="scale(0.015625)"/>
     </defs>
     <use xlink:href="#DejaVuSans-64"/>
     <use x="63.476562" xlink:href="#DejaVuSans-61"/>
     <use x="124.755859" xlink:href="#DejaVuSans-69"/>
     <use x="152.539062" xlink:href="#DejaVuSans-6c"/>
     <use x="180.322266" xlink:href="#DejaVuSans-79"/>
     <use x="239.501953" xlink:href="#DejaVuSans-5f"/>
     <use x="289.501953" xlink:href="#DejaVuSans-72"/>
     <use x="328.365234" xlink:href="#DejaVuSans-65"/>
     <use x="389.888672" xlink:href="#DejaVuSans-70"/>
     <use x="453.365234" xlink:href="#DejaVuSans-6f"/>
     <use x="514.546875" xlink:href="#DejaVuSans-72"/>
     <use x="555.660156" xlink:href="#DejaVuSans-74"/>
    </g>
   </g>
   <g id="legend_1">
    <g id="patch_7">
     <path d="M 179.138125 137.54075 
L 293.181875 137.54075 
Q 295.181875 137.54075 295.181875 135.54075 
L 295.181875 48.472 
Q 295.181875 46.472 293.181875 46.472 
L 179.138125 46.472 
Q 177.138125 46.472 177.138125 48.472 
L 177.138125 135.54075 
Q 177.138125 137.54075 179.138125 137.54075 
z
" style="fill:#ffffff;opacity:0.8;stroke:#cccccc;stroke-linejoin:miter;"/>
    </g>
    <g id="line2d_21">
     <path d="M 181.138125 54.570437 
L 201.138125 54.570437 
" style="fill:none;stroke:#0000ff;stroke-linecap:square;stroke-opacity:0.9;stroke-width:2;"/>
    </g>
    <g id="line2d_22"/>
    <g id="text_17">
     <!-- alpaca -->
     <g transform="translate(209.138125 58.070437)scale(0.1 -0.1)">
      <defs>
       <path d="M 3122 3366 
L 3122 2828 
Q 2878 2963 2633 3030 
Q 2388 3097 2138 3097 
Q 1578 3097 1268 2742 
Q 959 2388 959 1747 
Q 959 1106 1268 751 
Q 1578 397 2138 397 
Q 2388 397 2633 464 
Q 2878 531 3122 666 
L 3122 134 
Q 2881 22 2623 -34 
Q 2366 -91 2075 -91 
Q 1284 -91 818 406 
Q 353 903 353 1747 
Q 353 2603 823 3093 
Q 1294 3584 2113 3584 
Q 2378 3584 2631 3529 
Q 2884 3475 3122 3366 
z
" id="DejaVuSans-63" transform="scale(0.015625)"/>
      </defs>
      <use xlink:href="#DejaVuSans-61"/>
      <use x="61.279297" xlink:href="#DejaVuSans-6c"/>
      <use x="89.0625" xlink:href="#DejaVuSans-70"/>
      <use x="152.539062" xlink:href="#DejaVuSans-61"/>
      <use x="213.818359" xlink:href="#DejaVuSans-63"/>
      <use x="268.798828" xlink:href="#DejaVuSans-61"/>
     </g>
    </g>
    <g id="line2d_23">
     <path d="M 181.138125 69.248562 
L 201.138125 69.248562 
" style="fill:none;stroke:#ff0000;stroke-linecap:square;stroke-opacity:0.9;stroke-width:2;"/>
    </g>
    <g id="line2d_24"/>
    <g id="text_18">
     <!-- mattress -->
     <g transform="translate(209.138125 72.748562)scale(0.1 -0.1)">
      <defs>
       <path d="M 3328 2828 
Q 3544 3216 3844 3400 
Q 4144 3584 4550 3584 
Q 5097 3584 5394 3201 
Q 5691 2819 5691 2113 
L 5691 0 
L 5113 0 
L 5113 2094 
Q 5113 2597 4934 2840 
Q 4756 3084 4391 3084 
Q 3944 3084 3684 2787 
Q 3425 2491 3425 1978 
L 3425 0 
L 2847 0 
L 2847 2094 
Q 2847 2600 2669 2842 
Q 2491 3084 2119 3084 
Q 1678 3084 1418 2786 
Q 1159 2488 1159 1978 
L 1159 0 
L 581 0 
L 581 3500 
L 1159 3500 
L 1159 2956 
Q 1356 3278 1631 3431 
Q 1906 3584 2284 3584 
Q 2666 3584 2933 3390 
Q 3200 3197 3328 2828 
z
" id="DejaVuSans-6d" transform="scale(0.015625)"/>
       <path d="M 2834 3397 
L 2834 2853 
Q 2591 2978 2328 3040 
Q 2066 3103 1784 3103 
Q 1356 3103 1142 2972 
Q 928 2841 928 2578 
Q 928 2378 1081 2264 
Q 1234 2150 1697 2047 
L 1894 2003 
Q 2506 1872 2764 1633 
Q 3022 1394 3022 966 
Q 3022 478 2636 193 
Q 2250 -91 1575 -91 
Q 1294 -91 989 -36 
Q 684 19 347 128 
L 347 722 
Q 666 556 975 473 
Q 1284 391 1588 391 
Q 1994 391 2212 530 
Q 2431 669 2431 922 
Q 2431 1156 2273 1281 
Q 2116 1406 1581 1522 
L 1381 1569 
Q 847 1681 609 1914 
Q 372 2147 372 2553 
Q 372 3047 722 3315 
Q 1072 3584 1716 3584 
Q 2034 3584 2315 3537 
Q 2597 3491 2834 3397 
z
" id="DejaVuSans-73" transform="scale(0.015625)"/>
      </defs>
      <use xlink:href="#DejaVuSans-6d"/>
      <use x="97.412109" xlink:href="#DejaVuSans-61"/>
      <use x="158.691406" xlink:href="#DejaVuSans-74"/>
      <use x="197.900391" xlink:href="#DejaVuSans-74"/>
      <use x="237.109375" xlink:href="#DejaVuSans-72"/>
      <use x="275.972656" xlink:href="#DejaVuSans-65"/>
      <use x="337.496094" xlink:href="#DejaVuSans-73"/>
      <use x="389.595703" xlink:href="#DejaVuSans-73"/>
     </g>
    </g>
    <g id="line2d_25">
     <path d="M 181.138125 83.926687 
L 201.138125 83.926687 
" style="fill:none;stroke:#008000;stroke-linecap:square;stroke-opacity:0.9;stroke-width:2;"/>
    </g>
    <g id="line2d_26"/>
    <g id="text_19">
     <!-- daily-open-rebal -->
     <g transform="translate(209.138125 87.426687)scale(0.1 -0.1)">
      <defs>
       <path d="M 3513 2113 
L 3513 0 
L 2938 0 
L 2938 2094 
Q 2938 2591 2744 2837 
Q 2550 3084 2163 3084 
Q 1697 3084 1428 2787 
Q 1159 2491 1159 1978 
L 1159 0 
L 581 0 
L 581 3500 
L 1159 3500 
L 1159 2956 
Q 1366 3272 1645 3428 
Q 1925 3584 2291 3584 
Q 2894 3584 3203 3211 
Q 3513 2838 3513 2113 
z
" id="DejaVuSans-6e" transform="scale(0.015625)"/>
       <path d="M 3116 1747 
Q 3116 2381 2855 2742 
Q 2594 3103 2138 3103 
Q 1681 3103 1420 2742 
Q 1159 2381 1159 1747 
Q 1159 1113 1420 752 
Q 1681 391 2138 391 
Q 2594 391 2855 752 
Q 3116 1113 3116 1747 
z
M 1159 2969 
Q 1341 3281 1617 3432 
Q 1894 3584 2278 3584 
Q 2916 3584 3314 3078 
Q 3713 2572 3713 1747 
Q 3713 922 3314 415 
Q 2916 -91 2278 -91 
Q 1894 -91 1617 61 
Q 1341 213 1159 525 
L 1159 0 
L 581 0 
L 581 4863 
L 1159 4863 
L 1159 2969 
z
" id="DejaVuSans-62" transform="scale(0.015625)"/>
      </defs>
      <use xlink:href="#DejaVuSans-64"/>
      <use x="63.476562" xlink:href="#DejaVuSans-61"/>
      <use x="124.755859" xlink:href="#DejaVuSans-69"/>
      <use x="152.539062" xlink:href="#DejaVuSans-6c"/>
      <use x="180.322266" xlink:href="#DejaVuSans-79"/>
      <use x="237.751953" xlink:href="#DejaVuSans-2d"/>
      <use x="275.710938" xlink:href="#DejaVuSans-6f"/>
      <use x="336.892578" xlink:href="#DejaVuSans-70"/>
      <use x="400.369141" xlink:href="#DejaVuSans-65"/>
      <use x="461.892578" xlink:href="#DejaVuSans-6e"/>
      <use x="525.271484" xlink:href="#DejaVuSans-2d"/>
      <use x="561.355469" xlink:href="#DejaVuSans-72"/>
      <use x="600.21875" xlink:href="#DejaVuSans-65"/>
      <use x="661.742188" xlink:href="#DejaVuSans-62"/>
      <use x="725.21875" xlink:href="#DejaVuSans-61"/>
      <use x="786.498047" xlink:href="#DejaVuSans-6c"/>
     </g>
    </g>
    <g id="line2d_27">
     <path d="M 181.138125 98.604812 
L 201.138125 98.604812 
" style="fill:none;stroke:#ec5283;stroke-linecap:square;stroke-width:2;"/>
    </g>
    <g id="line2d_28"/>
    <g id="text_20">
     <!-- daily-close-rebal -->
     <g transform="translate(209.138125 102.104812)scale(0.1 -0.1)">
      <use xlink:href="#DejaVuSans-64"/>
      <use x="63.476562" xlink:href="#DejaVuSans-61"/>
      <use x="124.755859" xlink:href="#DejaVuSans-69"/>
      <use x="152.539062" xlink:href="#DejaVuSans-6c"/>
      <use x="180.322266" xlink:href="#DejaVuSans-79"/>
      <use x="237.751953" xlink:href="#DejaVuSans-2d"/>
      <use x="273.835938" xlink:href="#DejaVuSans-63"/>
      <use x="328.816406" xlink:href="#DejaVuSans-6c"/>
      <use x="356.599609" xlink:href="#DejaVuSans-6f"/>
      <use x="417.78125" xlink:href="#DejaVuSans-73"/>
      <use x="469.880859" xlink:href="#DejaVuSans-65"/>
      <use x="531.404297" xlink:href="#DejaVuSans-2d"/>
      <use x="567.488281" xlink:href="#DejaVuSans-72"/>
      <use x="606.351562" xlink:href="#DejaVuSans-65"/>
      <use x="667.875" xlink:href="#DejaVuSans-62"/>
      <use x="731.351562" xlink:href="#DejaVuSans-61"/>
      <use x="792.630859" xlink:href="#DejaVuSans-6c"/>
     </g>
    </g>
    <g id="line2d_29">
     <path d="M 181.138125 113.282937 
L 201.138125 113.282937 
" style="fill:none;stroke:#00ff00;stroke-linecap:square;stroke-opacity:0.9;stroke-width:2;"/>
    </g>
    <g id="line2d_30"/>
    <g id="text_21">
     <!-- trader-baseline -->
     <g transform="translate(209.138125 116.782937)scale(0.1 -0.1)">
      <use xlink:href="#DejaVuSans-74"/>
      <use x="39.208984" xlink:href="#DejaVuSans-72"/>
      <use x="80.322266" xlink:href="#DejaVuSans-61"/>
      <use x="141.601562" xlink:href="#DejaVuSans-64"/>
      <use x="205.078125" xlink:href="#DejaVuSans-65"/>
      <use x="266.601562" xlink:href="#DejaVuSans-72"/>
      <use x="301.339844" xlink:href="#DejaVuSans-2d"/>
      <use x="337.423828" xlink:href="#DejaVuSans-62"/>
      <use x="400.900391" xlink:href="#DejaVuSans-61"/>
      <use x="462.179688" xlink:href="#DejaVuSans-73"/>
      <use x="514.279297" xlink:href="#DejaVuSans-65"/>
      <use x="575.802734" xlink:href="#DejaVuSans-6c"/>
      <use x="603.585938" xlink:href="#DejaVuSans-69"/>
      <use x="631.369141" xlink:href="#DejaVuSans-6e"/>
      <use x="694.748047" xlink:href="#DejaVuSans-65"/>
     </g>
    </g>
    <g id="line2d_31">
     <path d="M 181.138125 127.961062 
L 201.138125 127.961062 
" style="fill:none;stroke:#a5b9cf;stroke-linecap:square;stroke-width:2;"/>
    </g>
    <g id="line2d_32"/>
    <g id="text_22">
     <!-- default-cfg -->
     <g transform="translate(209.138125 131.461062)scale(0.1 -0.1)">
      <defs>
       <path d="M 2375 4863 
L 2375 4384 
L 1825 4384 
Q 1516 4384 1395 4259 
Q 1275 4134 1275 3809 
L 1275 3500 
L 2222 3500 
L 2222 3053 
L 1275 3053 
L 1275 0 
L 697 0 
L 697 3053 
L 147 3053 
L 147 3500 
L 697 3500 
L 697 3744 
Q 697 4328 969 4595 
Q 1241 4863 1831 4863 
L 2375 4863 
z
" id="DejaVuSans-66" transform="scale(0.015625)"/>
       <path d="M 544 1381 
L 544 3500 
L 1119 3500 
L 1119 1403 
Q 1119 906 1312 657 
Q 1506 409 1894 409 
Q 2359 409 2629 706 
Q 2900 1003 2900 1516 
L 2900 3500 
L 3475 3500 
L 3475 0 
L 2900 0 
L 2900 538 
Q 2691 219 2414 64 
Q 2138 -91 1772 -91 
Q 1169 -91 856 284 
Q 544 659 544 1381 
z
M 1991 3584 
L 1991 3584 
z
" id="DejaVuSans-75" transform="scale(0.015625)"/>
       <path d="M 2906 1791 
Q 2906 2416 2648 2759 
Q 2391 3103 1925 3103 
Q 1463 3103 1205 2759 
Q 947 2416 947 1791 
Q 947 1169 1205 825 
Q 1463 481 1925 481 
Q 2391 481 2648 825 
Q 2906 1169 2906 1791 
z
M 3481 434 
Q 3481 -459 3084 -895 
Q 2688 -1331 1869 -1331 
Q 1566 -1331 1297 -1286 
Q 1028 -1241 775 -1147 
L 775 -588 
Q 1028 -725 1275 -790 
Q 1522 -856 1778 -856 
Q 2344 -856 2625 -561 
Q 2906 -266 2906 331 
L 2906 616 
Q 2728 306 2450 153 
Q 2172 0 1784 0 
Q 1141 0 747 490 
Q 353 981 353 1791 
Q 353 2603 747 3093 
Q 1141 3584 1784 3584 
Q 2172 3584 2450 3431 
Q 2728 3278 2906 2969 
L 2906 3500 
L 3481 3500 
L 3481 434 
z
" id="DejaVuSans-67" transform="scale(0.015625)"/>
      </defs>
      <use xlink:href="#DejaVuSans-64"/>
      <use x="63.476562" xlink:href="#DejaVuSans-65"/>
      <use x="125" xlink:href="#DejaVuSans-66"/>
      <use x="160.205078" xlink:href="#DejaVuSans-61"/>
      <use x="221.484375" xlink:href="#DejaVuSans-75"/>
      <use x="284.863281" xlink:href="#DejaVuSans-6c"/>
      <use x="312.646484" xlink:href="#DejaVuSans-74"/>
      <use x="351.855469" xlink:href="#DejaVuSans-2d"/>
      <use x="387.939453" xlink:href="#DejaVuSans-63"/>
      <use x="442.919922" xlink:href="#DejaVuSans-66"/>
      <use x="478.125" xlink:href="#DejaVuSans-67"/>
     </g>
    </g>
   </g>
  </g>
 </g>
 <defs>
  <clipPath id="pe6e5574b04">
   <rect height="235.008" width="357.12" x="57.6" y="41.472"/>
  </clipPath>
 </defs>
</svg>
