<?xml version="1.0" encoding="utf-8" standalone="no"?>
<!DOCTYPE svg PUBLIC "-//W3C//DTD SVG 1.1//EN"
  "http://www.w3.org/Graphics/SVG/1.1/DTD/svg11.dtd">
<svg height="345.6pt" version="1.1" viewBox="0 0 460.8 345.6" width="460.8pt" xmlns="http://www.w3.org/2000/svg" xmlns:xlink="http://www.w3.org/1999/xlink">
 <metadata>
  <rdf:RDF xmlns:cc="http://creativecommons.org/ns#" xmlns:dc="http://purl.org/dc/elements/1.1/" xmlns:rdf="http://www.w3.org/1999/02/22-rdf-syntax-ns#">
   <cc:Work>
    <dc:type rdf:resource="http://purl.org/dc/dcmitype/StillImage"/>
    <dc:date>2022-06-06T10:02:01.414335</dc:date>
    <dc:format>image/svg+xml</dc:format>
    <dc:creator>
     <cc:Agent>
      <dc:title>Matplotlib v3.4.3, https://matplotlib.org/</dc:title>
     </cc:Agent>
    </dc:creator>
   </cc:Work>
  </rdf:RDF>
 </metadata>
 <defs>
  <style type="text/css">*{stroke-linecap:butt;stroke-linejoin:round;}</style>
 </defs>
 <g id="figure_1">
  <g id="patch_1">
   <path d="M 0 345.6 
L 460.8 345.6 
L 460.8 0 
L 0 0 
z
" style="fill:#ffffff;"/>
  </g>
  <g id="axes_1">
   <g id="patch_2">
    <path d="M 57.6 276.48 
L 414.72 276.48 
L 414.72 41.472 
L 57.6 41.472 
z
" style="fill:#ffffff;"/>
   </g>
   <g id="matplotlib.axis_1">
    <g id="xtick_1">
     <g id="line2d_1">
      <defs>
       <path d="M 0 0 
L 0 3.5 
" id="mf6181658ba" style="stroke:#000000;stroke-width:0.8;"/>
      </defs>
      <g>
       <use style="stroke:#000000;stroke-width:0.8;" x="95.256631" xlink:href="#mf6181658ba" y="276.48"/>
      </g>
     </g>
     <g id="text_1">
      <!-- 2021-12 -->
      <g transform="translate(58.03181 310.951846)rotate(-30)scale(0.1 -0.1)">
       <defs>
        <path d="M 1228 531 
L 3431 531 
L 3431 0 
L 469 0 
L 469 531 
Q 828 903 1448 1529 
Q 2069 2156 2228 2338 
Q 2531 2678 2651 2914 
Q 2772 3150 2772 3378 
Q 2772 3750 2511 3984 
Q 2250 4219 1831 4219 
Q 1534 4219 1204 4116 
Q 875 4013 500 3803 
L 500 4441 
Q 881 4594 1212 4672 
Q 1544 4750 1819 4750 
Q 2544 4750 2975 4387 
Q 3406 4025 3406 3419 
Q 3406 3131 3298 2873 
Q 3191 2616 2906 2266 
Q 2828 2175 2409 1742 
Q 1991 1309 1228 531 
z
" id="DejaVuSans-32" transform="scale(0.015625)"/>
        <path d="M 2034 4250 
Q 1547 4250 1301 3770 
Q 1056 3291 1056 2328 
Q 1056 1369 1301 889 
Q 1547 409 2034 409 
Q 2525 409 2770 889 
Q 3016 1369 3016 2328 
Q 3016 3291 2770 3770 
Q 2525 4250 2034 4250 
z
M 2034 4750 
Q 2819 4750 3233 4129 
Q 3647 3509 3647 2328 
Q 3647 1150 3233 529 
Q 2819 -91 2034 -91 
Q 1250 -91 836 529 
Q 422 1150 422 2328 
Q 422 3509 836 4129 
Q 1250 4750 2034 4750 
z
" id="DejaVuSans-30" transform="scale(0.015625)"/>
        <path d="M 794 531 
L 1825 531 
L 1825 4091 
L 703 3866 
L 703 4441 
L 1819 4666 
L 2450 4666 
L 2450 531 
L 3481 531 
L 3481 0 
L 794 0 
L 794 531 
z
" id="DejaVuSans-31" transform="scale(0.015625)"/>
        <path d="M 313 2009 
L 1997 2009 
L 1997 1497 
L 313 1497 
L 313 2009 
z
" id="DejaVuSans-2d" transform="scale(0.015625)"/>
       </defs>
       <use xlink:href="#DejaVuSans-32"/>
       <use x="63.623047" xlink:href="#DejaVuSans-30"/>
       <use x="127.246094" xlink:href="#DejaVuSans-32"/>
       <use x="190.869141" xlink:href="#DejaVuSans-31"/>
       <use x="254.492188" xlink:href="#DejaVuSans-2d"/>
       <use x="290.576172" xlink:href="#DejaVuSans-31"/>
       <use x="354.199219" xlink:href="#DejaVuSans-32"/>
      </g>
     </g>
    </g>
    <g id="xtick_2">
     <g id="line2d_2">
      <g>
       <use style="stroke:#000000;stroke-width:0.8;" x="146.344402" xlink:href="#mf6181658ba" y="276.48"/>
      </g>
     </g>
     <g id="text_2">
      <!-- 2022-01 -->
      <g transform="translate(109.119582 310.951846)rotate(-30)scale(0.1 -0.1)">
       <use xlink:href="#DejaVuSans-32"/>
       <use x="63.623047" xlink:href="#DejaVuSans-30"/>
       <use x="127.246094" xlink:href="#DejaVuSans-32"/>
       <use x="190.869141" xlink:href="#DejaVuSans-32"/>
       <use x="254.492188" xlink:href="#DejaVuSans-2d"/>
       <use x="290.576172" xlink:href="#DejaVuSans-30"/>
       <use x="354.199219" xlink:href="#DejaVuSans-31"/>
      </g>
     </g>
    </g>
    <g id="xtick_3">
     <g id="line2d_3">
      <g>
       <use style="stroke:#000000;stroke-width:0.8;" x="197.432174" xlink:href="#mf6181658ba" y="276.48"/>
      </g>
     </g>
     <g id="text_3">
      <!-- 2022-02 -->
      <g transform="translate(160.207353 310.951846)rotate(-30)scale(0.1 -0.1)">
       <use xlink:href="#DejaVuSans-32"/>
       <use x="63.623047" xlink:href="#DejaVuSans-30"/>
       <use x="127.246094" xlink:href="#DejaVuSans-32"/>
       <use x="190.869141" xlink:href="#DejaVuSans-32"/>
       <use x="254.492188" xlink:href="#DejaVuSans-2d"/>
       <use x="290.576172" xlink:href="#DejaVuSans-30"/>
       <use x="354.199219" xlink:href="#DejaVuSans-32"/>
      </g>
     </g>
    </g>
    <g id="xtick_4">
     <g id="line2d_4">
      <g>
       <use style="stroke:#000000;stroke-width:0.8;" x="243.575967" xlink:href="#mf6181658ba" y="276.48"/>
      </g>
     </g>
     <g id="text_4">
      <!-- 2022-03 -->
      <g transform="translate(206.351146 310.951846)rotate(-30)scale(0.1 -0.1)">
       <defs>
        <path d="M 2597 2516 
Q 3050 2419 3304 2112 
Q 3559 1806 3559 1356 
Q 3559 666 3084 287 
Q 2609 -91 1734 -91 
Q 1441 -91 1130 -33 
Q 819 25 488 141 
L 488 750 
Q 750 597 1062 519 
Q 1375 441 1716 441 
Q 2309 441 2620 675 
Q 2931 909 2931 1356 
Q 2931 1769 2642 2001 
Q 2353 2234 1838 2234 
L 1294 2234 
L 1294 2753 
L 1863 2753 
Q 2328 2753 2575 2939 
Q 2822 3125 2822 3475 
Q 2822 3834 2567 4026 
Q 2313 4219 1838 4219 
Q 1578 4219 1281 4162 
Q 984 4106 628 3988 
L 628 4550 
Q 988 4650 1302 4700 
Q 1616 4750 1894 4750 
Q 2613 4750 3031 4423 
Q 3450 4097 3450 3541 
Q 3450 3153 3228 2886 
Q 3006 2619 2597 2516 
z
" id="DejaVuSans-33" transform="scale(0.015625)"/>
       </defs>
       <use xlink:href="#DejaVuSans-32"/>
       <use x="63.623047" xlink:href="#DejaVuSans-30"/>
       <use x="127.246094" xlink:href="#DejaVuSans-32"/>
       <use x="190.869141" xlink:href="#DejaVuSans-32"/>
       <use x="254.492188" xlink:href="#DejaVuSans-2d"/>
       <use x="290.576172" xlink:href="#DejaVuSans-30"/>
       <use x="354.199219" xlink:href="#DejaVuSans-33"/>
      </g>
     </g>
    </g>
    <g id="xtick_5">
     <g id="line2d_5">
      <g>
       <use style="stroke:#000000;stroke-width:0.8;" x="294.663738" xlink:href="#mf6181658ba" y="276.48"/>
      </g>
     </g>
     <g id="text_5">
      <!-- 2022-04 -->
      <g transform="translate(257.438917 310.951846)rotate(-30)scale(0.1 -0.1)">
       <defs>
        <path d="M 2419 4116 
L 825 1625 
L 2419 1625 
L 2419 4116 
z
M 2253 4666 
L 3047 4666 
L 3047 1625 
L 3713 1625 
L 3713 1100 
L 3047 1100 
L 3047 0 
L 2419 0 
L 2419 1100 
L 313 1100 
L 313 1709 
L 2253 4666 
z
" id="DejaVuSans-34" transform="scale(0.015625)"/>
       </defs>
       <use xlink:href="#DejaVuSans-32"/>
       <use x="63.623047" xlink:href="#DejaVuSans-30"/>
       <use x="127.246094" xlink:href="#DejaVuSans-32"/>
       <use x="190.869141" xlink:href="#DejaVuSans-32"/>
       <use x="254.492188" xlink:href="#DejaVuSans-2d"/>
       <use x="290.576172" xlink:href="#DejaVuSans-30"/>
       <use x="354.199219" xlink:href="#DejaVuSans-34"/>
      </g>
     </g>
    </g>
    <g id="xtick_6">
     <g id="line2d_6">
      <g>
       <use style="stroke:#000000;stroke-width:0.8;" x="344.103516" xlink:href="#mf6181658ba" y="276.48"/>
      </g>
     </g>
     <g id="text_6">
      <!-- 2022-05 -->
      <g transform="translate(306.878696 310.951846)rotate(-30)scale(0.1 -0.1)">
       <defs>
        <path d="M 691 4666 
L 3169 4666 
L 3169 4134 
L 1269 4134 
L 1269 2991 
Q 1406 3038 1543 3061 
Q 1681 3084 1819 3084 
Q 2600 3084 3056 2656 
Q 3513 2228 3513 1497 
Q 3513 744 3044 326 
Q 2575 -91 1722 -91 
Q 1428 -91 1123 -41 
Q 819 9 494 109 
L 494 744 
Q 775 591 1075 516 
Q 1375 441 1709 441 
Q 2250 441 2565 725 
Q 2881 1009 2881 1497 
Q 2881 1984 2565 2268 
Q 2250 2553 1709 2553 
Q 1456 2553 1204 2497 
Q 953 2441 691 2322 
L 691 4666 
z
" id="DejaVuSans-35" transform="scale(0.015625)"/>
       </defs>
       <use xlink:href="#DejaVuSans-32"/>
       <use x="63.623047" xlink:href="#DejaVuSans-30"/>
       <use x="127.246094" xlink:href="#DejaVuSans-32"/>
       <use x="190.869141" xlink:href="#DejaVuSans-32"/>
       <use x="254.492188" xlink:href="#DejaVuSans-2d"/>
       <use x="290.576172" xlink:href="#DejaVuSans-30"/>
       <use x="354.199219" xlink:href="#DejaVuSans-35"/>
      </g>
     </g>
    </g>
    <g id="xtick_7">
     <g id="line2d_7">
      <g>
       <use style="stroke:#000000;stroke-width:0.8;" x="395.191287" xlink:href="#mf6181658ba" y="276.48"/>
      </g>
     </g>
     <g id="text_7">
      <!-- 2022-06 -->
      <g transform="translate(357.966467 310.951846)rotate(-30)scale(0.1 -0.1)">
       <defs>
        <path d="M 2113 2584 
Q 1688 2584 1439 2293 
Q 1191 2003 1191 1497 
Q 1191 994 1439 701 
Q 1688 409 2113 409 
Q 2538 409 2786 701 
Q 3034 994 3034 1497 
Q 3034 2003 2786 2293 
Q 2538 2584 2113 2584 
z
M 3366 4563 
L 3366 3988 
Q 3128 4100 2886 4159 
Q 2644 4219 2406 4219 
Q 1781 4219 1451 3797 
Q 1122 3375 1075 2522 
Q 1259 2794 1537 2939 
Q 1816 3084 2150 3084 
Q 2853 3084 3261 2657 
Q 3669 2231 3669 1497 
Q 3669 778 3244 343 
Q 2819 -91 2113 -91 
Q 1303 -91 875 529 
Q 447 1150 447 2328 
Q 447 3434 972 4092 
Q 1497 4750 2381 4750 
Q 2619 4750 2861 4703 
Q 3103 4656 3366 4563 
z
" id="DejaVuSans-36" transform="scale(0.015625)"/>
       </defs>
       <use xlink:href="#DejaVuSans-32"/>
       <use x="63.623047" xlink:href="#DejaVuSans-30"/>
       <use x="127.246094" xlink:href="#DejaVuSans-32"/>
       <use x="190.869141" xlink:href="#DejaVuSans-32"/>
       <use x="254.492188" xlink:href="#DejaVuSans-2d"/>
       <use x="290.576172" xlink:href="#DejaVuSans-30"/>
       <use x="354.199219" xlink:href="#DejaVuSans-36"/>
      </g>
     </g>
    </g>
    <g id="text_8">
     <!-- date -->
     <g transform="translate(224.885 324.351346)scale(0.1 -0.1)">
      <defs>
       <path d="M 2906 2969 
L 2906 4863 
L 3481 4863 
L 3481 0 
L 2906 0 
L 2906 525 
Q 2725 213 2448 61 
Q 2172 -91 1784 -91 
Q 1150 -91 751 415 
Q 353 922 353 1747 
Q 353 2572 751 3078 
Q 1150 3584 1784 3584 
Q 2172 3584 2448 3432 
Q 2725 3281 2906 2969 
z
M 947 1747 
Q 947 1113 1208 752 
Q 1469 391 1925 391 
Q 2381 391 2643 752 
Q 2906 1113 2906 1747 
Q 2906 2381 2643 2742 
Q 2381 3103 1925 3103 
Q 1469 3103 1208 2742 
Q 947 2381 947 1747 
z
" id="DejaVuSans-64" transform="scale(0.015625)"/>
       <path d="M 2194 1759 
Q 1497 1759 1228 1600 
Q 959 1441 959 1056 
Q 959 750 1161 570 
Q 1363 391 1709 391 
Q 2188 391 2477 730 
Q 2766 1069 2766 1631 
L 2766 1759 
L 2194 1759 
z
M 3341 1997 
L 3341 0 
L 2766 0 
L 2766 531 
Q 2569 213 2275 61 
Q 1981 -91 1556 -91 
Q 1019 -91 701 211 
Q 384 513 384 1019 
Q 384 1609 779 1909 
Q 1175 2209 1959 2209 
L 2766 2209 
L 2766 2266 
Q 2766 2663 2505 2880 
Q 2244 3097 1772 3097 
Q 1472 3097 1187 3025 
Q 903 2953 641 2809 
L 641 3341 
Q 956 3463 1253 3523 
Q 1550 3584 1831 3584 
Q 2591 3584 2966 3190 
Q 3341 2797 3341 1997 
z
" id="DejaVuSans-61" transform="scale(0.015625)"/>
       <path d="M 1172 4494 
L 1172 3500 
L 2356 3500 
L 2356 3053 
L 1172 3053 
L 1172 1153 
Q 1172 725 1289 603 
Q 1406 481 1766 481 
L 2356 481 
L 2356 0 
L 1766 0 
Q 1100 0 847 248 
Q 594 497 594 1153 
L 594 3053 
L 172 3053 
L 172 3500 
L 594 3500 
L 594 4494 
L 1172 4494 
z
" id="DejaVuSans-74" transform="scale(0.015625)"/>
       <path d="M 3597 1894 
L 3597 1613 
L 953 1613 
Q 991 1019 1311 708 
Q 1631 397 2203 397 
Q 2534 397 2845 478 
Q 3156 559 3463 722 
L 3463 178 
Q 3153 47 2828 -22 
Q 2503 -91 2169 -91 
Q 1331 -91 842 396 
Q 353 884 353 1716 
Q 353 2575 817 3079 
Q 1281 3584 2069 3584 
Q 2775 3584 3186 3129 
Q 3597 2675 3597 1894 
z
M 3022 2063 
Q 3016 2534 2758 2815 
Q 2500 3097 2075 3097 
Q 1594 3097 1305 2825 
Q 1016 2553 972 2059 
L 3022 2063 
z
" id="DejaVuSans-65" transform="scale(0.015625)"/>
      </defs>
      <use xlink:href="#DejaVuSans-64"/>
      <use x="63.476562" xlink:href="#DejaVuSans-61"/>
      <use x="124.755859" xlink:href="#DejaVuSans-74"/>
      <use x="163.964844" xlink:href="#DejaVuSans-65"/>
     </g>
    </g>
   </g>
   <g id="matplotlib.axis_2">
    <g id="ytick_1">
     <g id="line2d_8">
      <defs>
       <path d="M 0 0 
L -3.5 0 
" id="m556f170146" style="stroke:#000000;stroke-width:0.8;"/>
      </defs>
      <g>
       <use style="stroke:#000000;stroke-width:0.8;" x="57.6" xlink:href="#m556f170146" y="256.967307"/>
      </g>
     </g>
     <g id="text_9">
      <!-- 85000 -->
      <g transform="translate(18.7875 260.766525)scale(0.1 -0.1)">
       <defs>
        <path d="M 2034 2216 
Q 1584 2216 1326 1975 
Q 1069 1734 1069 1313 
Q 1069 891 1326 650 
Q 1584 409 2034 409 
Q 2484 409 2743 651 
Q 3003 894 3003 1313 
Q 3003 1734 2745 1975 
Q 2488 2216 2034 2216 
z
M 1403 2484 
Q 997 2584 770 2862 
Q 544 3141 544 3541 
Q 544 4100 942 4425 
Q 1341 4750 2034 4750 
Q 2731 4750 3128 4425 
Q 3525 4100 3525 3541 
Q 3525 3141 3298 2862 
Q 3072 2584 2669 2484 
Q 3125 2378 3379 2068 
Q 3634 1759 3634 1313 
Q 3634 634 3220 271 
Q 2806 -91 2034 -91 
Q 1263 -91 848 271 
Q 434 634 434 1313 
Q 434 1759 690 2068 
Q 947 2378 1403 2484 
z
M 1172 3481 
Q 1172 3119 1398 2916 
Q 1625 2713 2034 2713 
Q 2441 2713 2670 2916 
Q 2900 3119 2900 3481 
Q 2900 3844 2670 4047 
Q 2441 4250 2034 4250 
Q 1625 4250 1398 4047 
Q 1172 3844 1172 3481 
z
" id="DejaVuSans-38" transform="scale(0.015625)"/>
       </defs>
       <use xlink:href="#DejaVuSans-38"/>
       <use x="63.623047" xlink:href="#DejaVuSans-35"/>
       <use x="127.246094" xlink:href="#DejaVuSans-30"/>
       <use x="190.869141" xlink:href="#DejaVuSans-30"/>
       <use x="254.492188" xlink:href="#DejaVuSans-30"/>
      </g>
     </g>
    </g>
    <g id="ytick_2">
     <g id="line2d_9">
      <g>
       <use style="stroke:#000000;stroke-width:0.8;" x="57.6" xlink:href="#m556f170146" y="215.510307"/>
      </g>
     </g>
     <g id="text_10">
      <!-- 90000 -->
      <g transform="translate(18.7875 219.309525)scale(0.1 -0.1)">
       <defs>
        <path d="M 703 97 
L 703 672 
Q 941 559 1184 500 
Q 1428 441 1663 441 
Q 2288 441 2617 861 
Q 2947 1281 2994 2138 
Q 2813 1869 2534 1725 
Q 2256 1581 1919 1581 
Q 1219 1581 811 2004 
Q 403 2428 403 3163 
Q 403 3881 828 4315 
Q 1253 4750 1959 4750 
Q 2769 4750 3195 4129 
Q 3622 3509 3622 2328 
Q 3622 1225 3098 567 
Q 2575 -91 1691 -91 
Q 1453 -91 1209 -44 
Q 966 3 703 97 
z
M 1959 2075 
Q 2384 2075 2632 2365 
Q 2881 2656 2881 3163 
Q 2881 3666 2632 3958 
Q 2384 4250 1959 4250 
Q 1534 4250 1286 3958 
Q 1038 3666 1038 3163 
Q 1038 2656 1286 2365 
Q 1534 2075 1959 2075 
z
" id="DejaVuSans-39" transform="scale(0.015625)"/>
       </defs>
       <use xlink:href="#DejaVuSans-39"/>
       <use x="63.623047" xlink:href="#DejaVuSans-30"/>
       <use x="127.246094" xlink:href="#DejaVuSans-30"/>
       <use x="190.869141" xlink:href="#DejaVuSans-30"/>
       <use x="254.492188" xlink:href="#DejaVuSans-30"/>
      </g>
     </g>
    </g>
    <g id="ytick_3">
     <g id="line2d_10">
      <g>
       <use style="stroke:#000000;stroke-width:0.8;" x="57.6" xlink:href="#m556f170146" y="174.053306"/>
      </g>
     </g>
     <g id="text_11">
      <!-- 95000 -->
      <g transform="translate(18.7875 177.852525)scale(0.1 -0.1)">
       <use xlink:href="#DejaVuSans-39"/>
       <use x="63.623047" xlink:href="#DejaVuSans-35"/>
       <use x="127.246094" xlink:href="#DejaVuSans-30"/>
       <use x="190.869141" xlink:href="#DejaVuSans-30"/>
       <use x="254.492188" xlink:href="#DejaVuSans-30"/>
      </g>
     </g>
    </g>
    <g id="ytick_4">
     <g id="line2d_11">
      <g>
       <use style="stroke:#000000;stroke-width:0.8;" x="57.6" xlink:href="#m556f170146" y="132.596306"/>
      </g>
     </g>
     <g id="text_12">
      <!-- 100000 -->
      <g transform="translate(12.425 136.395525)scale(0.1 -0.1)">
       <use xlink:href="#DejaVuSans-31"/>
       <use x="63.623047" xlink:href="#DejaVuSans-30"/>
       <use x="127.246094" xlink:href="#DejaVuSans-30"/>
       <use x="190.869141" xlink:href="#DejaVuSans-30"/>
       <use x="254.492188" xlink:href="#DejaVuSans-30"/>
       <use x="318.115234" xlink:href="#DejaVuSans-30"/>
      </g>
     </g>
    </g>
    <g id="ytick_5">
     <g id="line2d_12">
      <g>
       <use style="stroke:#000000;stroke-width:0.8;" x="57.6" xlink:href="#m556f170146" y="91.139306"/>
      </g>
     </g>
     <g id="text_13">
      <!-- 105000 -->
      <g transform="translate(12.425 94.938525)scale(0.1 -0.1)">
       <use xlink:href="#DejaVuSans-31"/>
       <use x="63.623047" xlink:href="#DejaVuSans-30"/>
       <use x="127.246094" xlink:href="#DejaVuSans-35"/>
       <use x="190.869141" xlink:href="#DejaVuSans-30"/>
       <use x="254.492188" xlink:href="#DejaVuSans-30"/>
       <use x="318.115234" xlink:href="#DejaVuSans-30"/>
      </g>
     </g>
    </g>
    <g id="ytick_6">
     <g id="line2d_13">
      <g>
       <use style="stroke:#000000;stroke-width:0.8;" x="57.6" xlink:href="#m556f170146" y="49.682306"/>
      </g>
     </g>
     <g id="text_14">
      <!-- 110000 -->
      <g transform="translate(12.425 53.481525)scale(0.1 -0.1)">
       <use xlink:href="#DejaVuSans-31"/>
       <use x="63.623047" xlink:href="#DejaVuSans-31"/>
       <use x="127.246094" xlink:href="#DejaVuSans-30"/>
       <use x="190.869141" xlink:href="#DejaVuSans-30"/>
       <use x="254.492188" xlink:href="#DejaVuSans-30"/>
       <use x="318.115234" xlink:href="#DejaVuSans-30"/>
      </g>
     </g>
    </g>
   </g>
   <g id="line2d_14">
    <path clip-path="url(#p33adabfede)" d="M 73.832727 52.154182 
L 75.48072 57.368568 
L 80.424698 61.406963 
L 82.07269 61.330208 
L 83.720683 57.873024 
L 87.016668 58.505725 
L 91.960646 73.898434 
L 93.608639 94.377697 
L 95.256631 110.320711 
L 96.904624 92.454539 
L 98.552617 102.749655 
L 103.496594 91.178858 
L 105.144587 71.778 
L 106.79258 67.366529 
L 108.440572 79.348379 
L 110.088565 76.286901 
L 115.032543 84.342872 
L 116.680535 91.066148 
L 118.328528 79.818131 
L 119.976521 88.333649 
L 121.624513 91.138563 
L 126.568491 102.598825 
L 128.216484 82.762685 
L 129.864476 75.64429 
L 131.512469 69.982202 
L 138.104439 62.629885 
L 139.752432 64.794132 
L 141.400425 62.631968 
L 143.048417 63.697474 
L 144.69641 64.564851 
L 149.640388 63.054958 
L 151.28838 62.765492 
L 152.936373 86.22107 
L 154.584365 84.061468 
L 156.232358 88.807073 
L 161.176336 91.414851 
L 162.824329 81.773978 
L 164.472321 82.038067 
L 166.120314 93.523423 
L 167.768306 94.861044 
L 174.360277 114.192762 
L 176.008269 122.950529 
L 177.656262 134.614772 
L 179.304255 149.831148 
L 184.248233 140.096252 
L 185.896225 153.062588 
L 187.544218 159.330713 
L 189.19221 168.402523 
L 190.840203 150.089406 
L 195.784181 130.157325 
L 197.432174 121.639583 
L 199.080166 119.990639 
L 200.728159 137.256916 
L 202.376151 132.921797 
L 207.320129 132.369857 
L 208.968122 122.825738 
L 210.616114 107.197536 
L 213.9121 134.568927 
L 218.856078 139.58687 
L 220.50407 122.806434 
L 222.152063 121.584998 
L 223.800055 142.023024 
L 225.448048 148.15732 
L 232.040018 158.302896 
L 233.688011 173.585626 
L 235.336004 157.372949 
L 236.983996 138.090133 
L 241.927974 138.321032 
L 243.575967 151.902535 
L 245.223959 136.129498 
L 246.871952 143.678565 
L 253.463922 178.76483 
L 255.111915 180.763454 
L 256.759908 158.930037 
L 258.4079 161.65719 
L 260.055893 174.081437 
L 264.999871 182.969728 
L 266.647863 168.633741 
L 268.295856 146.935234 
L 269.943849 134.492195 
L 271.591841 124.692509 
L 276.535819 127.207615 
L 278.183812 117.978316 
L 279.831804 131.769693 
L 281.479797 121.565574 
L 283.12779 118.351314 
L 288.071767 115.366945 
L 289.71976 98.09674 
L 291.367753 107.770174 
L 293.015745 119.711875 
L 294.663738 114.40077 
L 299.607716 109.854029 
L 301.255708 123.892608 
L 302.903701 132.198326 
L 304.551694 131.490082 
L 306.199686 133.49206 
L 311.143664 142.37361 
L 312.791657 144.058612 
L 314.439649 131.984135 
L 316.087642 141.163654 
L 322.679612 144.595735 
L 324.327605 127.794019 
L 325.975598 126.887983 
L 327.62359 142.368445 
L 329.271583 164.246802 
L 334.215561 159.213411 
L 335.863553 182.361335 
L 337.511546 181.926414 
L 339.159539 165.858642 
L 340.807531 191.84252 
L 345.751509 186.677112 
L 347.399502 182.144964 
L 349.047494 160.203022 
L 350.695487 190.466606 
L 352.343479 200.189796 
L 357.287457 230.765075 
L 358.93545 230.809802 
L 360.583443 245.062771 
L 362.231435 240.192977 
L 363.879428 217.298812 
L 368.823406 222.74721 
L 370.471398 205.623423 
L 372.119391 234.774344 
L 373.767383 233.722759 
L 375.415376 233.421852 
L 380.359354 223.200817 
L 382.007347 233.543772 
L 383.655339 222.869663 
L 385.303332 206.83509 
L 386.951324 186.116285 
L 393.543295 194.703037 
L 395.191287 201.28629 
L 396.83928 184.158885 
L 398.487273 185.682555 
L 398.487273 185.682555 
" style="fill:none;stroke:#0000ff;stroke-linecap:square;stroke-opacity:0.9;stroke-width:2;"/>
   </g>
   <g id="line2d_15">
    <path clip-path="url(#p33adabfede)" d="M 73.832727 52.154182 
L 75.48072 56.957041 
L 80.424698 60.966482 
L 82.07269 61.93247 
L 83.720683 58.439381 
L 87.016668 80.890655 
L 91.960646 74.747461 
L 93.608639 95.050917 
L 95.256631 111.123006 
L 96.904624 92.516888 
L 98.552617 102.65958 
L 103.496594 91.647288 
L 105.144587 71.996759 
L 106.79258 67.363905 
L 108.440572 79.534743 
L 110.088565 76.350368 
L 115.032543 84.766419 
L 116.680535 91.09736 
L 118.328528 79.95804 
L 119.976521 88.52568 
L 121.624513 91.166985 
L 126.568491 102.561174 
L 128.216484 82.993578 
L 129.864476 76.157344 
L 131.512469 70.079605 
L 138.104439 62.917037 
L 139.752432 65.201865 
L 141.400425 62.887712 
L 143.048417 63.800695 
L 144.69641 64.562421 
L 149.640388 63.518977 
L 151.28838 62.993361 
L 152.936373 84.798975 
L 154.584365 82.795566 
L 156.232358 88.475654 
L 161.176336 90.784336 
L 162.824329 81.392329 
L 164.472321 81.615625 
L 166.120314 92.292259 
L 167.768306 93.586585 
L 174.360277 112.00818 
L 176.008269 121.075589 
L 177.656262 132.663938 
L 179.304255 147.646775 
L 184.248233 138.488638 
L 185.896225 150.581829 
L 187.544218 157.112097 
L 189.19221 165.172323 
L 190.840203 148.135876 
L 195.784181 128.572436 
L 197.432174 120.340804 
L 199.080166 118.311321 
L 200.728159 135.889186 
L 202.376151 130.963146 
L 207.320129 130.599342 
L 208.968122 121.250842 
L 210.616114 105.714785 
L 213.9121 132.662689 
L 218.856078 138.12645 
L 220.50407 121.857474 
L 222.152063 120.414169 
L 223.800055 140.082305 
L 225.448048 145.712048 
L 232.040018 155.597266 
L 233.688011 171.049491 
L 235.336004 156.420747 
L 236.983996 136.843297 
L 241.927974 137.13605 
L 243.575967 151.270422 
L 245.223959 134.215163 
L 246.871952 141.18302 
L 248.519945 150.024594 
L 253.463922 175.591007 
L 255.111915 177.693797 
L 256.759908 157.572924 
L 258.4079 159.261583 
L 260.055893 170.70013 
L 264.999871 179.125397 
L 266.647863 165.38465 
L 268.295856 144.462779 
L 269.943849 132.513194 
L 271.591841 122.886003 
L 276.535819 125.173464 
L 278.183812 116.594955 
L 279.831804 130.123203 
L 281.479797 120.358993 
L 283.12779 116.661366 
L 288.071767 113.477002 
L 289.71976 97.277621 
L 291.367753 107.001741 
L 293.015745 118.338782 
L 294.663738 113.321902 
L 299.607716 109.706454 
L 301.255708 122.75368 
L 302.903701 130.731947 
L 304.551694 129.965969 
L 306.199686 131.627904 
L 311.143664 140.290863 
L 312.791657 141.958206 
L 314.439649 129.734569 
L 316.087642 138.771838 
L 322.679612 141.542619 
L 324.327605 125.830642 
L 325.975598 123.648187 
L 327.62359 139.103503 
L 329.271583 160.983623 
L 334.215561 156.532291 
L 335.863553 178.506153 
L 337.511546 178.45287 
L 339.159539 162.906276 
L 340.807531 188.588031 
L 345.751509 183.706167 
L 347.399502 178.323221 
L 349.047494 157.136813 
L 350.695487 186.0318 
L 352.343479 194.885019 
L 357.287457 224.528579 
L 358.93545 224.96023 
L 360.583443 238.135067 
L 362.231435 233.640022 
L 363.879428 212.666033 
L 368.823406 216.631532 
L 370.471398 199.840301 
L 372.119391 228.245515 
L 373.767383 228.516507 
L 375.415376 227.910139 
L 380.359354 218.483113 
L 382.007347 226.497021 
L 383.655339 216.802573 
L 385.303332 200.889307 
L 386.951324 181.226049 
L 393.543295 189.421378 
L 395.191287 195.828425 
L 396.83928 179.695272 
L 398.487273 189.733739 
L 398.487273 189.733739 
" style="fill:none;stroke:#ff0000;stroke-linecap:square;stroke-opacity:0.9;stroke-width:2;"/>
   </g>
   <g id="line2d_16">
    <path clip-path="url(#p33adabfede)" d="M 73.832727 52.154182 
L 75.48072 56.764727 
L 80.424698 61.441056 
L 82.07269 61.786374 
L 83.720683 58.1199 
L 87.016668 80.757164 
L 91.960646 74.501122 
L 93.608639 94.487267 
L 95.256631 110.672631 
L 96.904624 92.385986 
L 98.552617 102.08213 
L 103.496594 91.26878 
L 105.144587 72.066989 
L 106.79258 67.165174 
L 108.440572 78.870215 
L 110.088565 75.997993 
L 115.032543 84.667953 
L 116.680535 91.347202 
L 118.328528 79.749074 
L 119.976521 89.024068 
L 121.624513 91.203957 
L 126.568491 102.802213 
L 128.216484 83.025134 
L 129.864476 75.850652 
L 131.512469 69.535134 
L 138.104439 62.122443 
L 139.752432 64.915622 
L 141.400425 62.220353 
L 143.048417 63.442732 
L 144.69641 63.988107 
L 151.28838 62.68912 
L 152.936373 85.176402 
L 154.584365 83.292887 
L 156.232358 89.051485 
L 161.176336 91.396156 
L 162.824329 82.058657 
L 164.472321 82.306777 
L 166.120314 93.267801 
L 167.768306 94.408331 
L 174.360277 113.840609 
L 176.008269 122.488486 
L 177.656262 133.822869 
L 179.304255 149.564934 
L 184.248233 139.851042 
L 185.896225 152.166936 
L 187.544218 159.133912 
L 189.19221 168.039156 
L 190.840203 149.846683 
L 195.784181 129.470365 
L 197.432174 121.367284 
L 199.080166 120.060301 
L 200.728159 136.937017 
L 202.376151 131.833398 
L 207.320129 131.614077 
L 208.968122 122.21876 
L 210.616114 106.61594 
L 213.9121 134.252949 
L 218.856078 138.980187 
L 220.50407 122.515751 
L 222.152063 121.634204 
L 223.800055 141.39135 
L 225.448048 147.347235 
L 232.040018 157.319681 
L 233.688011 173.334793 
L 235.336004 157.05616 
L 236.983996 137.248783 
L 241.927974 138.110166 
L 243.575967 151.699879 
L 245.223959 135.043878 
L 246.871952 142.975329 
L 248.519945 151.877151 
L 253.463922 177.823829 
L 255.111915 180.346647 
L 256.759908 158.403029 
L 258.4079 161.033784 
L 260.055893 172.856597 
L 264.999871 182.605794 
L 266.647863 167.503046 
L 268.295856 146.535805 
L 269.943849 133.21959 
L 271.591841 123.930275 
L 276.535819 126.480577 
L 278.183812 117.173329 
L 279.831804 131.345084 
L 281.479797 120.476384 
L 283.12779 117.301684 
L 288.071767 114.443936 
L 289.71976 97.438065 
L 291.367753 106.791471 
L 293.015745 118.346913 
L 294.663738 113.910204 
L 299.607716 109.05772 
L 301.255708 122.625331 
L 302.903701 131.436228 
L 304.551694 130.474517 
L 312.791657 143.865329 
L 314.439649 131.393075 
L 316.087642 140.50391 
L 322.679612 143.838037 
L 324.327605 126.683459 
L 325.975598 125.282447 
L 327.62359 141.377473 
L 329.271583 163.203803 
L 334.215561 158.417428 
L 335.863553 181.192426 
L 337.511546 181.116465 
L 339.159539 165.302661 
L 340.807531 190.828874 
L 345.751509 186.15695 
L 347.399502 181.001616 
L 349.047494 159.869486 
L 350.695487 189.196698 
L 352.343479 199.085575 
L 357.287457 229.943687 
L 358.93545 230.048723 
L 360.583443 243.400808 
L 362.231435 238.717714 
L 363.879428 216.558736 
L 368.823406 221.735201 
L 370.471398 204.979738 
L 372.119391 233.320049 
L 373.767383 232.614367 
L 375.415376 232.451426 
L 380.359354 222.648567 
L 382.007347 232.268395 
L 383.655339 221.937604 
L 385.303332 205.353015 
L 386.951324 185.672917 
L 393.543295 194.151244 
L 395.191287 201.029658 
L 396.83928 182.594222 
L 398.487273 193.197069 
L 398.487273 193.197069 
" style="fill:none;stroke:#008000;stroke-linecap:square;stroke-opacity:0.9;stroke-width:2;"/>
   </g>
   <g id="line2d_17">
    <path clip-path="url(#p33adabfede)" d="M 73.832727 52.154182 
L 75.48072 56.643516 
L 80.424698 60.957126 
L 82.07269 61.313035 
L 83.720683 58.072303 
L 87.016668 80.739642 
L 91.960646 74.483099 
L 93.608639 94.978321 
L 95.256631 110.712611 
L 96.904624 91.999887 
L 98.552617 102.111092 
L 103.496594 91.506185 
L 105.144587 71.864803 
L 106.79258 66.859009 
L 108.440572 78.814502 
L 110.088565 76.346424 
L 115.032543 84.46068 
L 116.680535 91.878472 
L 118.328528 79.525092 
L 119.976521 88.705614 
L 121.624513 91.006589 
L 126.568491 103.218442 
L 128.216484 83.276657 
L 129.864476 75.972132 
L 131.512469 69.277384 
L 138.104439 62.153319 
L 139.752432 64.37337 
L 141.400425 62.971795 
L 143.048417 63.317897 
L 144.69641 64.481685 
L 149.640388 63.383175 
L 151.28838 62.816752 
L 152.936373 85.535951 
L 154.584365 83.301871 
L 156.232358 89.017696 
L 161.176336 91.15949 
L 162.824329 82.080394 
L 164.472321 82.099285 
L 166.120314 92.948385 
L 167.768306 94.778522 
L 174.360277 114.282512 
L 176.008269 122.67821 
L 177.656262 134.061714 
L 179.304255 149.074759 
L 184.248233 139.71834 
L 185.896225 152.710707 
L 187.544218 159.585105 
L 189.19221 168.372109 
L 190.840203 149.628522 
L 195.784181 129.569725 
L 197.432174 121.865662 
L 199.080166 120.105005 
L 200.728159 137.277564 
L 202.376151 132.20494 
L 207.320129 131.952614 
L 208.968122 122.766742 
L 210.616114 106.439388 
L 213.9121 134.313706 
L 218.856078 139.580745 
L 220.50407 122.697166 
L 222.152063 121.788715 
L 223.800055 141.359225 
L 225.448048 148.156112 
L 232.040018 157.882807 
L 233.688011 173.613056 
L 235.336004 157.168301 
L 236.983996 137.727099 
L 241.927974 137.959061 
L 243.575967 152.097442 
L 245.223959 135.653667 
L 246.871952 142.837135 
L 248.519945 151.920425 
L 253.463922 178.375037 
L 255.111915 180.631064 
L 256.759908 158.918805 
L 258.4079 161.755673 
L 260.055893 173.818241 
L 264.999871 182.580799 
L 266.647863 168.331973 
L 268.295856 146.804253 
L 269.943849 133.501669 
L 271.591841 124.093019 
L 276.535819 126.720682 
L 278.183812 118.077487 
L 279.831804 131.755568 
L 281.479797 121.294633 
L 283.12779 117.609625 
L 288.071767 114.604209 
L 289.71976 98.039169 
L 291.367753 107.374592 
L 293.015745 119.031294 
L 294.663738 114.070742 
L 299.607716 109.890617 
L 301.255708 123.212117 
L 302.903701 132.223148 
L 304.551694 131.107828 
L 306.199686 132.908391 
L 311.143664 142.054205 
L 312.791657 143.512886 
L 314.439649 131.209291 
L 316.087642 140.107012 
L 322.679612 144.10775 
L 324.327605 127.683111 
L 325.975598 125.649994 
L 327.62359 141.694443 
L 329.271583 163.986203 
L 334.215561 158.903409 
L 335.863553 181.837983 
L 337.511546 181.427247 
L 339.159539 165.431625 
L 340.807531 191.421238 
L 345.751509 185.656069 
L 347.399502 181.304079 
L 349.047494 159.894324 
L 350.695487 189.698217 
L 352.343479 199.495629 
L 357.287457 230.134741 
L 358.93545 229.99155 
L 360.583443 243.818735 
L 362.231435 239.316294 
L 363.879428 216.540307 
L 368.823406 222.56932 
L 370.471398 204.449208 
L 372.119391 233.739108 
L 373.767383 232.756442 
L 375.415376 232.85644 
L 380.359354 222.588487 
L 382.007347 232.635825 
L 383.655339 222.096941 
L 385.303332 205.84278 
L 386.951324 185.927531 
L 393.543295 194.039373 
L 395.191287 200.905426 
L 396.83928 183.555601 
L 398.487273 193.74264 
L 398.487273 193.74264 
" style="fill:none;stroke:#ec5283;stroke-linecap:square;stroke-width:2;"/>
   </g>
   <g id="line2d_18">
    <path clip-path="url(#p33adabfede)" d="M 73.832727 52.154182 
L 75.48072 57.11801 
L 80.424698 61.377015 
L 82.07269 61.684211 
L 83.720683 57.666847 
L 87.016668 79.861405 
L 91.960646 74.21298 
L 93.608639 94.081874 
L 95.256631 110.655381 
L 96.904624 91.806724 
L 98.552617 101.846952 
L 103.496594 91.075592 
L 105.144587 71.648491 
L 106.79258 67.028856 
L 108.440572 78.652832 
L 110.088565 75.947129 
L 115.032543 84.48214 
L 116.680535 91.289726 
L 118.328528 79.311578 
L 119.976521 88.643229 
L 121.624513 90.46711 
L 126.568491 102.387837 
L 128.216484 82.897672 
L 129.864476 75.223439 
L 131.512469 68.967864 
L 138.104439 62.50064 
L 139.752432 64.276301 
L 141.400425 62.509972 
L 143.048417 63.16392 
L 144.69641 64.260516 
L 149.640388 62.924143 
L 151.28838 62.608023 
L 152.936373 84.918242 
L 154.584365 83.306361 
L 156.232358 88.966743 
L 161.176336 90.973006 
L 162.824329 81.112546 
L 164.472321 81.467985 
L 166.120314 92.541926 
L 167.768306 94.020938 
L 174.360277 113.170075 
L 176.008269 122.164555 
L 177.656262 133.199149 
L 179.304255 148.510651 
L 184.248233 139.204926 
L 185.896225 151.928684 
L 187.544218 158.587559 
L 189.19221 167.604839 
L 190.840203 149.390379 
L 195.784181 128.951409 
L 197.432174 121.043332 
L 199.080166 119.54578 
L 200.728159 136.763376 
L 202.376151 131.651579 
L 207.320129 131.635576 
L 208.968122 121.844342 
L 210.616114 105.976649 
L 213.9121 133.511863 
L 218.856078 138.924773 
L 220.50407 121.881355 
L 222.152063 120.866238 
L 223.800055 140.417759 
L 225.448048 146.814037 
L 232.040018 157.525982 
L 233.688011 172.362963 
L 235.336004 156.256282 
L 236.983996 136.756687 
L 241.927974 137.450211 
L 243.575967 150.759532 
L 245.223959 134.431272 
L 246.871952 141.957756 
L 248.519945 151.592214 
L 253.463922 177.52782 
L 255.111915 179.588754 
L 256.759908 157.860136 
L 258.4079 160.624201 
L 260.055893 172.970558 
L 264.999871 181.530677 
L 266.647863 167.455452 
L 268.295856 145.359865 
L 269.943849 133.506423 
L 271.591841 123.639219 
L 276.535819 125.761089 
L 278.183812 117.075624 
L 279.831804 130.666559 
L 281.479797 119.981199 
L 283.12779 117.155481 
L 288.071767 114.127454 
L 289.71976 97.205267 
L 291.367753 106.64499 
L 293.015745 118.544278 
L 294.663738 113.299686 
L 299.607716 108.679621 
L 301.255708 122.608538 
L 302.903701 131.230438 
L 304.551694 130.522419 
L 306.199686 132.567674 
L 311.143664 141.59356 
L 312.791657 142.794703 
L 314.439649 131.112217 
L 316.087642 139.885763 
L 322.679612 142.83552 
L 324.327605 126.6427 
L 325.975598 124.997371 
L 327.62359 141.445569 
L 329.271583 163.162603 
L 334.215561 158.376657 
L 335.863553 181.093899 
L 337.511546 180.737253 
L 339.159539 164.824212 
L 340.807531 190.466272 
L 345.751509 185.303561 
L 347.399502 180.708984 
L 349.047494 159.145203 
L 350.695487 188.924096 
L 352.343479 198.614443 
L 357.287457 228.935151 
L 358.93545 229.150477 
L 360.583443 242.661396 
L 362.231435 238.350331 
L 363.879428 215.430891 
L 368.823406 221.037358 
L 370.471398 203.623363 
L 372.119391 232.35607 
L 373.767383 231.419248 
L 375.415376 231.433847 
L 380.359354 221.570231 
L 382.007347 231.9486 
L 383.655339 220.814024 
L 385.303332 205.052118 
L 386.951324 184.576039 
L 393.543295 192.95079 
L 395.191287 200.02061 
L 396.83928 182.314336 
L 398.487273 192.573854 
L 398.487273 192.573854 
" style="fill:none;stroke:#00ff00;stroke-linecap:square;stroke-opacity:0.9;stroke-width:2;"/>
   </g>
   <g id="line2d_19">
    <path clip-path="url(#p33adabfede)" d="M 73.832727 52.154182 
L 75.48072 57.563301 
L 82.07269 64.080568 
L 83.720683 59.722217 
L 87.016668 81.673637 
L 91.960646 77.672457 
L 93.608639 97.63545 
L 95.256631 114.529365 
L 96.904624 94.336447 
L 98.552617 104.995224 
L 103.496594 92.561779 
L 105.144587 73.045643 
L 106.79258 67.094008 
L 108.440572 81.040315 
L 110.088565 81.029799 
L 115.032543 88.540432 
L 116.680535 94.961742 
L 118.328528 83.40379 
L 119.976521 94.272889 
L 121.624513 92.406099 
L 126.568491 105.262292 
L 128.216484 82.859958 
L 131.512469 69.808167 
L 138.104439 60.257541 
L 139.752432 62.863163 
L 141.400425 60.64006 
L 143.048417 59.676967 
L 144.69641 61.435783 
L 149.640388 59.429372 
L 151.28838 61.118839 
L 152.936373 88.908145 
L 154.584365 87.834681 
L 156.232358 96.863112 
L 161.176336 99.016228 
L 162.824329 88.2205 
L 164.472321 88.930995 
L 166.120314 105.372418 
L 167.768306 108.029868 
L 174.360277 129.395095 
L 176.008269 137.064056 
L 177.656262 147.787634 
L 179.304255 164.404837 
L 184.248233 151.811289 
L 185.896225 168.933897 
L 187.544218 176.120393 
L 189.19221 185.988131 
L 190.840203 165.4927 
L 197.432174 132.011611 
L 199.080166 132.090513 
L 200.728159 149.990444 
L 202.376151 144.596504 
L 207.320129 143.742322 
L 208.968122 134.774399 
L 210.616114 117.414641 
L 212.264107 130.557652 
L 213.9121 145.769974 
L 218.856078 150.56361 
L 220.50407 132.400022 
L 222.152063 132.904519 
L 223.800055 154.651836 
L 225.448048 161.983102 
L 232.040018 172.354057 
L 233.688011 188.585577 
L 235.336004 168.657509 
L 236.983996 150.94454 
L 241.927974 151.012604 
L 243.575967 162.989231 
L 245.223959 148.220154 
L 246.871952 157.336117 
L 248.519945 167.46511 
L 253.463922 193.65896 
L 255.111915 195.914567 
L 256.759908 172.537979 
L 258.4079 176.832536 
L 260.055893 190.495402 
L 264.999871 201.278448 
L 266.647863 184.797063 
L 268.295856 160.689539 
L 269.943849 147.161886 
L 271.591841 135.616124 
L 276.535819 138.782473 
L 278.183812 129.042268 
L 279.831804 140.366717 
L 281.479797 129.07472 
L 283.12779 128.478006 
L 288.071767 123.621727 
L 289.71976 104.544183 
L 293.015745 126.456175 
L 294.663738 120.491289 
L 299.607716 115.856037 
L 301.255708 130.006815 
L 302.903701 138.584202 
L 304.551694 137.871892 
L 311.143664 148.875181 
L 312.791657 150.894967 
L 314.439649 137.020585 
L 316.087642 147.703468 
L 322.679612 151.861177 
L 324.327605 134.365928 
L 325.975598 136.056595 
L 327.62359 154.824886 
L 329.271583 175.760334 
L 334.215561 167.565286 
L 335.863553 194.842846 
L 337.511546 194.703018 
L 339.159539 175.741364 
L 340.807531 203.022806 
L 345.751509 194.863861 
L 347.399502 194.113182 
L 349.047494 172.405679 
L 350.695487 204.981988 
L 357.287457 250.14063 
L 358.93545 248.891624 
L 360.583443 265.797818 
L 362.231435 259.148962 
L 363.879428 232.669179 
L 368.823406 241.686195 
L 370.471398 224.398652 
L 372.119391 253.816014 
L 373.767383 251.106786 
L 375.415376 250.409438 
L 380.359354 240.895169 
L 382.007347 253.34475 
L 383.655339 242.90205 
L 385.303332 226.084344 
L 386.951324 204.199343 
L 393.543295 211.92037 
L 395.191287 218.996126 
L 396.83928 198.774346 
L 398.487273 210.631309 
L 398.487273 210.631309 
" style="fill:none;stroke:#a5b9cf;stroke-linecap:square;stroke-width:2;"/>
   </g>
   <g id="patch_3">
    <path d="M 57.6 276.48 
L 57.6 41.472 
" style="fill:none;stroke:#000000;stroke-linecap:square;stroke-linejoin:miter;stroke-width:0.8;"/>
   </g>
   <g id="patch_4">
    <path d="M 414.72 276.48 
L 414.72 41.472 
" style="fill:none;stroke:#000000;stroke-linecap:square;stroke-linejoin:miter;stroke-width:0.8;"/>
   </g>
   <g id="patch_5">
    <path d="M 57.6 276.48 
L 414.72 276.48 
" style="fill:none;stroke:#000000;stroke-linecap:square;stroke-linejoin:miter;stroke-width:0.8;"/>
   </g>
   <g id="patch_6">
    <path d="M 57.6 41.472 
L 414.72 41.472 
" style="fill:none;stroke:#000000;stroke-linecap:square;stroke-linejoin:miter;stroke-width:0.8;"/>
   </g>
   <g id="text_15">
    <!-- SCHMOO -->
    <g transform="translate(209.025937 22.034625)scale(0.12 -0.12)">
     <defs>
      <path d="M 3425 4513 
L 3425 3897 
Q 3066 4069 2747 4153 
Q 2428 4238 2131 4238 
Q 1616 4238 1336 4038 
Q 1056 3838 1056 3469 
Q 1056 3159 1242 3001 
Q 1428 2844 1947 2747 
L 2328 2669 
Q 3034 2534 3370 2195 
Q 3706 1856 3706 1288 
Q 3706 609 3251 259 
Q 2797 -91 1919 -91 
Q 1588 -91 1214 -16 
Q 841 59 441 206 
L 441 856 
Q 825 641 1194 531 
Q 1563 422 1919 422 
Q 2459 422 2753 634 
Q 3047 847 3047 1241 
Q 3047 1584 2836 1778 
Q 2625 1972 2144 2069 
L 1759 2144 
Q 1053 2284 737 2584 
Q 422 2884 422 3419 
Q 422 4038 858 4394 
Q 1294 4750 2059 4750 
Q 2388 4750 2728 4690 
Q 3069 4631 3425 4513 
z
" id="DejaVuSans-53" transform="scale(0.015625)"/>
      <path d="M 4122 4306 
L 4122 3641 
Q 3803 3938 3442 4084 
Q 3081 4231 2675 4231 
Q 1875 4231 1450 3742 
Q 1025 3253 1025 2328 
Q 1025 1406 1450 917 
Q 1875 428 2675 428 
Q 3081 428 3442 575 
Q 3803 722 4122 1019 
L 4122 359 
Q 3791 134 3420 21 
Q 3050 -91 2638 -91 
Q 1578 -91 968 557 
Q 359 1206 359 2328 
Q 359 3453 968 4101 
Q 1578 4750 2638 4750 
Q 3056 4750 3426 4639 
Q 3797 4528 4122 4306 
z
" id="DejaVuSans-43" transform="scale(0.015625)"/>
      <path d="M 628 4666 
L 1259 4666 
L 1259 2753 
L 3553 2753 
L 3553 4666 
L 4184 4666 
L 4184 0 
L 3553 0 
L 3553 2222 
L 1259 2222 
L 1259 0 
L 628 0 
L 628 4666 
z
" id="DejaVuSans-48" transform="scale(0.015625)"/>
      <path d="M 628 4666 
L 1569 4666 
L 2759 1491 
L 3956 4666 
L 4897 4666 
L 4897 0 
L 4281 0 
L 4281 4097 
L 3078 897 
L 2444 897 
L 1241 4097 
L 1241 0 
L 628 0 
L 628 4666 
z
" id="DejaVuSans-4d" transform="scale(0.015625)"/>
      <path d="M 2522 4238 
Q 1834 4238 1429 3725 
Q 1025 3213 1025 2328 
Q 1025 1447 1429 934 
Q 1834 422 2522 422 
Q 3209 422 3611 934 
Q 4013 1447 4013 2328 
Q 4013 3213 3611 3725 
Q 3209 4238 2522 4238 
z
M 2522 4750 
Q 3503 4750 4090 4092 
Q 4678 3434 4678 2328 
Q 4678 1225 4090 567 
Q 3503 -91 2522 -91 
Q 1538 -91 948 565 
Q 359 1222 359 2328 
Q 359 3434 948 4092 
Q 1538 4750 2522 4750 
z
" id="DejaVuSans-4f" transform="scale(0.015625)"/>
     </defs>
     <use xlink:href="#DejaVuSans-53"/>
     <use x="63.476562" xlink:href="#DejaVuSans-43"/>
     <use x="133.300781" xlink:href="#DejaVuSans-48"/>
     <use x="208.496094" xlink:href="#DejaVuSans-4d"/>
     <use x="294.775391" xlink:href="#DejaVuSans-4f"/>
     <use x="373.486328" xlink:href="#DejaVuSans-4f"/>
    </g>
    <!-- daily_report -->
    <g transform="translate(200.466563 35.472)scale(0.12 -0.12)">
     <defs>
      <path d="M 603 3500 
L 1178 3500 
L 1178 0 
L 603 0 
L 603 3500 
z
M 603 4863 
L 1178 4863 
L 1178 4134 
L 603 4134 
L 603 4863 
z
" id="DejaVuSans-69" transform="scale(0.015625)"/>
      <path d="M 603 4863 
L 1178 4863 
L 1178 0 
L 603 0 
L 603 4863 
z
" id="DejaVuSans-6c" transform="scale(0.015625)"/>
      <path d="M 2059 -325 
Q 1816 -950 1584 -1140 
Q 1353 -1331 966 -1331 
L 506 -1331 
L 506 -850 
L 844 -850 
Q 1081 -850 1212 -737 
Q 1344 -625 1503 -206 
L 1606 56 
L 191 3500 
L 800 3500 
L 1894 763 
L 2988 3500 
L 3597 3500 
L 2059 -325 
z
" id="DejaVuSans-79" transform="scale(0.015625)"/>
      <path d="M 3263 -1063 
L 3263 -1509 
L -63 -1509 
L -63 -1063 
L 3263 -1063 
z
" id="DejaVuSans-5f" transform="scale(0.015625)"/>
      <path d="M 2631 2963 
Q 2534 3019 2420 3045 
Q 2306 3072 2169 3072 
Q 1681 3072 1420 2755 
Q 1159 2438 1159 1844 
L 1159 0 
L 581 0 
L 581 3500 
L 1159 3500 
L 1159 2956 
Q 1341 3275 1631 3429 
Q 1922 3584 2338 3584 
Q 2397 3584 2469 3576 
Q 2541 3569 2628 3553 
L 2631 2963 
z
" id="DejaVuSans-72" transform="scale(0.015625)"/>
      <path d="M 1159 525 
L 1159 -1331 
L 581 -1331 
L 581 3500 
L 1159 3500 
L 1159 2969 
Q 1341 3281 1617 3432 
Q 1894 3584 2278 3584 
Q 2916 3584 3314 3078 
Q 3713 2572 3713 1747 
Q 3713 922 3314 415 
Q 2916 -91 2278 -91 
Q 1894 -91 1617 61 
Q 1341 213 1159 525 
z
M 3116 1747 
Q 3116 2381 2855 2742 
Q 2594 3103 2138 3103 
Q 1681 3103 1420 2742 
Q 1159 2381 1159 1747 
Q 1159 1113 1420 752 
Q 1681 391 2138 391 
Q 2594 391 2855 752 
Q 3116 1113 3116 1747 
z
" id="DejaVuSans-70" transform="scale(0.015625)"/>
      <path d="M 1959 3097 
Q 1497 3097 1228 2736 
Q 959 2375 959 1747 
Q 959 1119 1226 758 
Q 1494 397 1959 397 
Q 2419 397 2687 759 
Q 2956 1122 2956 1747 
Q 2956 2369 2687 2733 
Q 2419 3097 1959 3097 
z
M 1959 3584 
Q 2709 3584 3137 3096 
Q 3566 2609 3566 1747 
Q 3566 888 3137 398 
Q 2709 -91 1959 -91 
Q 1206 -91 779 398 
Q 353 888 353 1747 
Q 353 2609 779 3096 
Q 1206 3584 1959 3584 
z
" id="DejaVuSans-6f" transform="scale(0.015625)"/>
     </defs>
     <use xlink:href="#DejaVuSans-64"/>
     <use x="63.476562" xlink:href="#DejaVuSans-61"/>
     <use x="124.755859" xlink:href="#DejaVuSans-69"/>
     <use x="152.539062" xlink:href="#DejaVuSans-6c"/>
     <use x="180.322266" xlink:href="#DejaVuSans-79"/>
     <use x="239.501953" xlink:href="#DejaVuSans-5f"/>
     <use x="289.501953" xlink:href="#DejaVuSans-72"/>
     <use x="328.365234" xlink:href="#DejaVuSans-65"/>
     <use x="389.888672" xlink:href="#DejaVuSans-70"/>
     <use x="453.365234" xlink:href="#DejaVuSans-6f"/>
     <use x="514.546875" xlink:href="#DejaVuSans-72"/>
     <use x="555.660156" xlink:href="#DejaVuSans-74"/>
    </g>
   </g>
   <g id="legend_1">
    <g id="patch_7">
     <path d="M 64.6 271.48 
L 178.64375 271.48 
Q 180.64375 271.48 180.64375 269.48 
L 180.64375 182.41125 
Q 180.64375 180.41125 178.64375 180.41125 
L 64.6 180.41125 
Q 62.6 180.41125 62.6 182.41125 
L 62.6 269.48 
Q 62.6 271.48 64.6 271.48 
z
" style="fill:#ffffff;opacity:0.8;stroke:#cccccc;stroke-linejoin:miter;"/>
    </g>
    <g id="line2d_20">
     <path d="M 66.6 188.509687 
L 86.6 188.509687 
" style="fill:none;stroke:#0000ff;stroke-linecap:square;stroke-opacity:0.9;stroke-width:2;"/>
    </g>
    <g id="line2d_21"/>
    <g id="text_16">
     <!-- alpaca -->
     <g transform="translate(94.6 192.009687)scale(0.1 -0.1)">
      <defs>
       <path d="M 3122 3366 
L 3122 2828 
Q 2878 2963 2633 3030 
Q 2388 3097 2138 3097 
Q 1578 3097 1268 2742 
Q 959 2388 959 1747 
Q 959 1106 1268 751 
Q 1578 397 2138 397 
Q 2388 397 2633 464 
Q 2878 531 3122 666 
L 3122 134 
Q 2881 22 2623 -34 
Q 2366 -91 2075 -91 
Q 1284 -91 818 406 
Q 353 903 353 1747 
Q 353 2603 823 3093 
Q 1294 3584 2113 3584 
Q 2378 3584 2631 3529 
Q 2884 3475 3122 3366 
z
" id="DejaVuSans-63" transform="scale(0.015625)"/>
      </defs>
      <use xlink:href="#DejaVuSans-61"/>
      <use x="61.279297" xlink:href="#DejaVuSans-6c"/>
      <use x="89.0625" xlink:href="#DejaVuSans-70"/>
      <use x="152.539062" xlink:href="#DejaVuSans-61"/>
      <use x="213.818359" xlink:href="#DejaVuSans-63"/>
      <use x="268.798828" xlink:href="#DejaVuSans-61"/>
     </g>
    </g>
    <g id="line2d_22">
     <path d="M 66.6 203.187812 
L 86.6 203.187812 
" style="fill:none;stroke:#ff0000;stroke-linecap:square;stroke-opacity:0.9;stroke-width:2;"/>
    </g>
    <g id="line2d_23"/>
    <g id="text_17">
     <!-- mattress -->
     <g transform="translate(94.6 206.687812)scale(0.1 -0.1)">
      <defs>
       <path d="M 3328 2828 
Q 3544 3216 3844 3400 
Q 4144 3584 4550 3584 
Q 5097 3584 5394 3201 
Q 5691 2819 5691 2113 
L 5691 0 
L 5113 0 
L 5113 2094 
Q 5113 2597 4934 2840 
Q 4756 3084 4391 3084 
Q 3944 3084 3684 2787 
Q 3425 2491 3425 1978 
L 3425 0 
L 2847 0 
L 2847 2094 
Q 2847 2600 2669 2842 
Q 2491 3084 2119 3084 
Q 1678 3084 1418 2786 
Q 1159 2488 1159 1978 
L 1159 0 
L 581 0 
L 581 3500 
L 1159 3500 
L 1159 2956 
Q 1356 3278 1631 3431 
Q 1906 3584 2284 3584 
Q 2666 3584 2933 3390 
Q 3200 3197 3328 2828 
z
" id="DejaVuSans-6d" transform="scale(0.015625)"/>
       <path d="M 2834 3397 
L 2834 2853 
Q 2591 2978 2328 3040 
Q 2066 3103 1784 3103 
Q 1356 3103 1142 2972 
Q 928 2841 928 2578 
Q 928 2378 1081 2264 
Q 1234 2150 1697 2047 
L 1894 2003 
Q 2506 1872 2764 1633 
Q 3022 1394 3022 966 
Q 3022 478 2636 193 
Q 2250 -91 1575 -91 
Q 1294 -91 989 -36 
Q 684 19 347 128 
L 347 722 
Q 666 556 975 473 
Q 1284 391 1588 391 
Q 1994 391 2212 530 
Q 2431 669 2431 922 
Q 2431 1156 2273 1281 
Q 2116 1406 1581 1522 
L 1381 1569 
Q 847 1681 609 1914 
Q 372 2147 372 2553 
Q 372 3047 722 3315 
Q 1072 3584 1716 3584 
Q 2034 3584 2315 3537 
Q 2597 3491 2834 3397 
z
" id="DejaVuSans-73" transform="scale(0.015625)"/>
      </defs>
      <use xlink:href="#DejaVuSans-6d"/>
      <use x="97.412109" xlink:href="#DejaVuSans-61"/>
      <use x="158.691406" xlink:href="#DejaVuSans-74"/>
      <use x="197.900391" xlink:href="#DejaVuSans-74"/>
      <use x="237.109375" xlink:href="#DejaVuSans-72"/>
      <use x="275.972656" xlink:href="#DejaVuSans-65"/>
      <use x="337.496094" xlink:href="#DejaVuSans-73"/>
      <use x="389.595703" xlink:href="#DejaVuSans-73"/>
     </g>
    </g>
    <g id="line2d_24">
     <path d="M 66.6 217.865937 
L 86.6 217.865937 
" style="fill:none;stroke:#008000;stroke-linecap:square;stroke-opacity:0.9;stroke-width:2;"/>
    </g>
    <g id="line2d_25"/>
    <g id="text_18">
     <!-- daily-open-rebal -->
     <g transform="translate(94.6 221.365937)scale(0.1 -0.1)">
      <defs>
       <path d="M 3513 2113 
L 3513 0 
L 2938 0 
L 2938 2094 
Q 2938 2591 2744 2837 
Q 2550 3084 2163 3084 
Q 1697 3084 1428 2787 
Q 1159 2491 1159 1978 
L 1159 0 
L 581 0 
L 581 3500 
L 1159 3500 
L 1159 2956 
Q 1366 3272 1645 3428 
Q 1925 3584 2291 3584 
Q 2894 3584 3203 3211 
Q 3513 2838 3513 2113 
z
" id="DejaVuSans-6e" transform="scale(0.015625)"/>
       <path d="M 3116 1747 
Q 3116 2381 2855 2742 
Q 2594 3103 2138 3103 
Q 1681 3103 1420 2742 
Q 1159 2381 1159 1747 
Q 1159 1113 1420 752 
Q 1681 391 2138 391 
Q 2594 391 2855 752 
Q 3116 1113 3116 1747 
z
M 1159 2969 
Q 1341 3281 1617 3432 
Q 1894 3584 2278 3584 
Q 2916 3584 3314 3078 
Q 3713 2572 3713 1747 
Q 3713 922 3314 415 
Q 2916 -91 2278 -91 
Q 1894 -91 1617 61 
Q 1341 213 1159 525 
L 1159 0 
L 581 0 
L 581 4863 
L 1159 4863 
L 1159 2969 
z
" id="DejaVuSans-62" transform="scale(0.015625)"/>
      </defs>
      <use xlink:href="#DejaVuSans-64"/>
      <use x="63.476562" xlink:href="#DejaVuSans-61"/>
      <use x="124.755859" xlink:href="#DejaVuSans-69"/>
      <use x="152.539062" xlink:href="#DejaVuSans-6c"/>
      <use x="180.322266" xlink:href="#DejaVuSans-79"/>
      <use x="237.751953" xlink:href="#DejaVuSans-2d"/>
      <use x="275.710938" xlink:href="#DejaVuSans-6f"/>
      <use x="336.892578" xlink:href="#DejaVuSans-70"/>
      <use x="400.369141" xlink:href="#DejaVuSans-65"/>
      <use x="461.892578" xlink:href="#DejaVuSans-6e"/>
      <use x="525.271484" xlink:href="#DejaVuSans-2d"/>
      <use x="561.355469" xlink:href="#DejaVuSans-72"/>
      <use x="600.21875" xlink:href="#DejaVuSans-65"/>
      <use x="661.742188" xlink:href="#DejaVuSans-62"/>
      <use x="725.21875" xlink:href="#DejaVuSans-61"/>
      <use x="786.498047" xlink:href="#DejaVuSans-6c"/>
     </g>
    </g>
    <g id="line2d_26">
     <path d="M 66.6 232.544062 
L 86.6 232.544062 
" style="fill:none;stroke:#ec5283;stroke-linecap:square;stroke-width:2;"/>
    </g>
    <g id="line2d_27"/>
    <g id="text_19">
     <!-- daily-close-rebal -->
     <g transform="translate(94.6 236.044062)scale(0.1 -0.1)">
      <use xlink:href="#DejaVuSans-64"/>
      <use x="63.476562" xlink:href="#DejaVuSans-61"/>
      <use x="124.755859" xlink:href="#DejaVuSans-69"/>
      <use x="152.539062" xlink:href="#DejaVuSans-6c"/>
      <use x="180.322266" xlink:href="#DejaVuSans-79"/>
      <use x="237.751953" xlink:href="#DejaVuSans-2d"/>
      <use x="273.835938" xlink:href="#DejaVuSans-63"/>
      <use x="328.816406" xlink:href="#DejaVuSans-6c"/>
      <use x="356.599609" xlink:href="#DejaVuSans-6f"/>
      <use x="417.78125" xlink:href="#DejaVuSans-73"/>
      <use x="469.880859" xlink:href="#DejaVuSans-65"/>
      <use x="531.404297" xlink:href="#DejaVuSans-2d"/>
      <use x="567.488281" xlink:href="#DejaVuSans-72"/>
      <use x="606.351562" xlink:href="#DejaVuSans-65"/>
      <use x="667.875" xlink:href="#DejaVuSans-62"/>
      <use x="731.351562" xlink:href="#DejaVuSans-61"/>
      <use x="792.630859" xlink:href="#DejaVuSans-6c"/>
     </g>
    </g>
    <g id="line2d_28">
     <path d="M 66.6 247.222187 
L 86.6 247.222187 
" style="fill:none;stroke:#00ff00;stroke-linecap:square;stroke-opacity:0.9;stroke-width:2;"/>
    </g>
    <g id="line2d_29"/>
    <g id="text_20">
     <!-- trader-baseline -->
     <g transform="translate(94.6 250.722187)scale(0.1 -0.1)">
      <use xlink:href="#DejaVuSans-74"/>
      <use x="39.208984" xlink:href="#DejaVuSans-72"/>
      <use x="80.322266" xlink:href="#DejaVuSans-61"/>
      <use x="141.601562" xlink:href="#DejaVuSans-64"/>
      <use x="205.078125" xlink:href="#DejaVuSans-65"/>
      <use x="266.601562" xlink:href="#DejaVuSans-72"/>
      <use x="301.339844" xlink:href="#DejaVuSans-2d"/>
      <use x="337.423828" xlink:href="#DejaVuSans-62"/>
      <use x="400.900391" xlink:href="#DejaVuSans-61"/>
      <use x="462.179688" xlink:href="#DejaVuSans-73"/>
      <use x="514.279297" xlink:href="#DejaVuSans-65"/>
      <use x="575.802734" xlink:href="#DejaVuSans-6c"/>
      <use x="603.585938" xlink:href="#DejaVuSans-69"/>
      <use x="631.369141" xlink:href="#DejaVuSans-6e"/>
      <use x="694.748047" xlink:href="#DejaVuSans-65"/>
     </g>
    </g>
    <g id="line2d_30">
     <path d="M 66.6 261.900312 
L 86.6 261.900312 
" style="fill:none;stroke:#a5b9cf;stroke-linecap:square;stroke-width:2;"/>
    </g>
    <g id="line2d_31"/>
    <g id="text_21">
     <!-- default-cfg -->
     <g transform="translate(94.6 265.400312)scale(0.1 -0.1)">
      <defs>
       <path d="M 2375 4863 
L 2375 4384 
L 1825 4384 
Q 1516 4384 1395 4259 
Q 1275 4134 1275 3809 
L 1275 3500 
L 2222 3500 
L 2222 3053 
L 1275 3053 
L 1275 0 
L 697 0 
L 697 3053 
L 147 3053 
L 147 3500 
L 697 3500 
L 697 3744 
Q 697 4328 969 4595 
Q 1241 4863 1831 4863 
L 2375 4863 
z
" id="DejaVuSans-66" transform="scale(0.015625)"/>
       <path d="M 544 1381 
L 544 3500 
L 1119 3500 
L 1119 1403 
Q 1119 906 1312 657 
Q 1506 409 1894 409 
Q 2359 409 2629 706 
Q 2900 1003 2900 1516 
L 2900 3500 
L 3475 3500 
L 3475 0 
L 2900 0 
L 2900 538 
Q 2691 219 2414 64 
Q 2138 -91 1772 -91 
Q 1169 -91 856 284 
Q 544 659 544 1381 
z
M 1991 3584 
L 1991 3584 
z
" id="DejaVuSans-75" transform="scale(0.015625)"/>
       <path d="M 2906 1791 
Q 2906 2416 2648 2759 
Q 2391 3103 1925 3103 
Q 1463 3103 1205 2759 
Q 947 2416 947 1791 
Q 947 1169 1205 825 
Q 1463 481 1925 481 
Q 2391 481 2648 825 
Q 2906 1169 2906 1791 
z
M 3481 434 
Q 3481 -459 3084 -895 
Q 2688 -1331 1869 -1331 
Q 1566 -1331 1297 -1286 
Q 1028 -1241 775 -1147 
L 775 -588 
Q 1028 -725 1275 -790 
Q 1522 -856 1778 -856 
Q 2344 -856 2625 -561 
Q 2906 -266 2906 331 
L 2906 616 
Q 2728 306 2450 153 
Q 2172 0 1784 0 
Q 1141 0 747 490 
Q 353 981 353 1791 
Q 353 2603 747 3093 
Q 1141 3584 1784 3584 
Q 2172 3584 2450 3431 
Q 2728 3278 2906 2969 
L 2906 3500 
L 3481 3500 
L 3481 434 
z
" id="DejaVuSans-67" transform="scale(0.015625)"/>
      </defs>
      <use xlink:href="#DejaVuSans-64"/>
      <use x="63.476562" xlink:href="#DejaVuSans-65"/>
      <use x="125" xlink:href="#DejaVuSans-66"/>
      <use x="160.205078" xlink:href="#DejaVuSans-61"/>
      <use x="221.484375" xlink:href="#DejaVuSans-75"/>
      <use x="284.863281" xlink:href="#DejaVuSans-6c"/>
      <use x="312.646484" xlink:href="#DejaVuSans-74"/>
      <use x="351.855469" xlink:href="#DejaVuSans-2d"/>
      <use x="387.939453" xlink:href="#DejaVuSans-63"/>
      <use x="442.919922" xlink:href="#DejaVuSans-66"/>
      <use x="478.125" xlink:href="#DejaVuSans-67"/>
     </g>
    </g>
   </g>
  </g>
 </g>
 <defs>
  <clipPath id="p33adabfede">
   <rect height="235.008" width="357.12" x="57.6" y="41.472"/>
  </clipPath>
 </defs>
</svg>
