<?xml version="1.0" encoding="utf-8" standalone="no"?>
<!DOCTYPE svg PUBLIC "-//W3C//DTD SVG 1.1//EN"
  "http://www.w3.org/Graphics/SVG/1.1/DTD/svg11.dtd">
<svg height="345.6pt" version="1.1" viewBox="0 0 460.8 345.6" width="460.8pt" xmlns="http://www.w3.org/2000/svg" xmlns:xlink="http://www.w3.org/1999/xlink">
 <metadata>
  <rdf:RDF xmlns:cc="http://creativecommons.org/ns#" xmlns:dc="http://purl.org/dc/elements/1.1/" xmlns:rdf="http://www.w3.org/1999/02/22-rdf-syntax-ns#">
   <cc:Work>
    <dc:type rdf:resource="http://purl.org/dc/dcmitype/StillImage"/>
    <dc:date>2022-05-14T10:02:15.431295</dc:date>
    <dc:format>image/svg+xml</dc:format>
    <dc:creator>
     <cc:Agent>
      <dc:title>Matplotlib v3.4.3, https://matplotlib.org/</dc:title>
     </cc:Agent>
    </dc:creator>
   </cc:Work>
  </rdf:RDF>
 </metadata>
 <defs>
  <style type="text/css">*{stroke-linecap:butt;stroke-linejoin:round;}</style>
 </defs>
 <g id="figure_1">
  <g id="patch_1">
   <path d="M 0 345.6 
L 460.8 345.6 
L 460.8 0 
L 0 0 
z
" style="fill:#ffffff;"/>
  </g>
  <g id="axes_1">
   <g id="patch_2">
    <path d="M 57.6 276.48 
L 414.72 276.48 
L 414.72 41.472 
L 57.6 41.472 
z
" style="fill:#ffffff;"/>
   </g>
   <g id="matplotlib.axis_1">
    <g id="xtick_1">
     <g id="line2d_1">
      <defs>
       <path d="M 0 0 
L 0 3.5 
" id="m0cbc141e3a" style="stroke:#000000;stroke-width:0.8;"/>
      </defs>
      <g>
       <use style="stroke:#000000;stroke-width:0.8;" x="97.812893" xlink:href="#m0cbc141e3a" y="276.48"/>
      </g>
     </g>
     <g id="text_1">
      <!-- 2021-12 -->
      <g transform="translate(60.588072 310.951846)rotate(-30)scale(0.1 -0.1)">
       <defs>
        <path d="M 1228 531 
L 3431 531 
L 3431 0 
L 469 0 
L 469 531 
Q 828 903 1448 1529 
Q 2069 2156 2228 2338 
Q 2531 2678 2651 2914 
Q 2772 3150 2772 3378 
Q 2772 3750 2511 3984 
Q 2250 4219 1831 4219 
Q 1534 4219 1204 4116 
Q 875 4013 500 3803 
L 500 4441 
Q 881 4594 1212 4672 
Q 1544 4750 1819 4750 
Q 2544 4750 2975 4387 
Q 3406 4025 3406 3419 
Q 3406 3131 3298 2873 
Q 3191 2616 2906 2266 
Q 2828 2175 2409 1742 
Q 1991 1309 1228 531 
z
" id="DejaVuSans-32" transform="scale(0.015625)"/>
        <path d="M 2034 4250 
Q 1547 4250 1301 3770 
Q 1056 3291 1056 2328 
Q 1056 1369 1301 889 
Q 1547 409 2034 409 
Q 2525 409 2770 889 
Q 3016 1369 3016 2328 
Q 3016 3291 2770 3770 
Q 2525 4250 2034 4250 
z
M 2034 4750 
Q 2819 4750 3233 4129 
Q 3647 3509 3647 2328 
Q 3647 1150 3233 529 
Q 2819 -91 2034 -91 
Q 1250 -91 836 529 
Q 422 1150 422 2328 
Q 422 3509 836 4129 
Q 1250 4750 2034 4750 
z
" id="DejaVuSans-30" transform="scale(0.015625)"/>
        <path d="M 794 531 
L 1825 531 
L 1825 4091 
L 703 3866 
L 703 4441 
L 1819 4666 
L 2450 4666 
L 2450 531 
L 3481 531 
L 3481 0 
L 794 0 
L 794 531 
z
" id="DejaVuSans-31" transform="scale(0.015625)"/>
        <path d="M 313 2009 
L 1997 2009 
L 1997 1497 
L 313 1497 
L 313 2009 
z
" id="DejaVuSans-2d" transform="scale(0.015625)"/>
       </defs>
       <use xlink:href="#DejaVuSans-32"/>
       <use x="63.623047" xlink:href="#DejaVuSans-30"/>
       <use x="127.246094" xlink:href="#DejaVuSans-32"/>
       <use x="190.869141" xlink:href="#DejaVuSans-31"/>
       <use x="254.492188" xlink:href="#DejaVuSans-2d"/>
       <use x="290.576172" xlink:href="#DejaVuSans-31"/>
       <use x="354.199219" xlink:href="#DejaVuSans-32"/>
      </g>
     </g>
    </g>
    <g id="xtick_2">
     <g id="line2d_2">
      <g>
       <use style="stroke:#000000;stroke-width:0.8;" x="154.996364" xlink:href="#m0cbc141e3a" y="276.48"/>
      </g>
     </g>
     <g id="text_2">
      <!-- 2022-01 -->
      <g transform="translate(117.771543 310.951846)rotate(-30)scale(0.1 -0.1)">
       <use xlink:href="#DejaVuSans-32"/>
       <use x="63.623047" xlink:href="#DejaVuSans-30"/>
       <use x="127.246094" xlink:href="#DejaVuSans-32"/>
       <use x="190.869141" xlink:href="#DejaVuSans-32"/>
       <use x="254.492188" xlink:href="#DejaVuSans-2d"/>
       <use x="290.576172" xlink:href="#DejaVuSans-30"/>
       <use x="354.199219" xlink:href="#DejaVuSans-31"/>
      </g>
     </g>
    </g>
    <g id="xtick_3">
     <g id="line2d_3">
      <g>
       <use style="stroke:#000000;stroke-width:0.8;" x="212.179835" xlink:href="#m0cbc141e3a" y="276.48"/>
      </g>
     </g>
     <g id="text_3">
      <!-- 2022-02 -->
      <g transform="translate(174.955014 310.951846)rotate(-30)scale(0.1 -0.1)">
       <use xlink:href="#DejaVuSans-32"/>
       <use x="63.623047" xlink:href="#DejaVuSans-30"/>
       <use x="127.246094" xlink:href="#DejaVuSans-32"/>
       <use x="190.869141" xlink:href="#DejaVuSans-32"/>
       <use x="254.492188" xlink:href="#DejaVuSans-2d"/>
       <use x="290.576172" xlink:href="#DejaVuSans-30"/>
       <use x="354.199219" xlink:href="#DejaVuSans-32"/>
      </g>
     </g>
    </g>
    <g id="xtick_4">
     <g id="line2d_4">
      <g>
       <use style="stroke:#000000;stroke-width:0.8;" x="263.829421" xlink:href="#m0cbc141e3a" y="276.48"/>
      </g>
     </g>
     <g id="text_4">
      <!-- 2022-03 -->
      <g transform="translate(226.604601 310.951846)rotate(-30)scale(0.1 -0.1)">
       <defs>
        <path d="M 2597 2516 
Q 3050 2419 3304 2112 
Q 3559 1806 3559 1356 
Q 3559 666 3084 287 
Q 2609 -91 1734 -91 
Q 1441 -91 1130 -33 
Q 819 25 488 141 
L 488 750 
Q 750 597 1062 519 
Q 1375 441 1716 441 
Q 2309 441 2620 675 
Q 2931 909 2931 1356 
Q 2931 1769 2642 2001 
Q 2353 2234 1838 2234 
L 1294 2234 
L 1294 2753 
L 1863 2753 
Q 2328 2753 2575 2939 
Q 2822 3125 2822 3475 
Q 2822 3834 2567 4026 
Q 2313 4219 1838 4219 
Q 1578 4219 1281 4162 
Q 984 4106 628 3988 
L 628 4550 
Q 988 4650 1302 4700 
Q 1616 4750 1894 4750 
Q 2613 4750 3031 4423 
Q 3450 4097 3450 3541 
Q 3450 3153 3228 2886 
Q 3006 2619 2597 2516 
z
" id="DejaVuSans-33" transform="scale(0.015625)"/>
       </defs>
       <use xlink:href="#DejaVuSans-32"/>
       <use x="63.623047" xlink:href="#DejaVuSans-30"/>
       <use x="127.246094" xlink:href="#DejaVuSans-32"/>
       <use x="190.869141" xlink:href="#DejaVuSans-32"/>
       <use x="254.492188" xlink:href="#DejaVuSans-2d"/>
       <use x="290.576172" xlink:href="#DejaVuSans-30"/>
       <use x="354.199219" xlink:href="#DejaVuSans-33"/>
      </g>
     </g>
    </g>
    <g id="xtick_5">
     <g id="line2d_5">
      <g>
       <use style="stroke:#000000;stroke-width:0.8;" x="321.012893" xlink:href="#m0cbc141e3a" y="276.48"/>
      </g>
     </g>
     <g id="text_5">
      <!-- 2022-04 -->
      <g transform="translate(283.788072 310.951846)rotate(-30)scale(0.1 -0.1)">
       <defs>
        <path d="M 2419 4116 
L 825 1625 
L 2419 1625 
L 2419 4116 
z
M 2253 4666 
L 3047 4666 
L 3047 1625 
L 3713 1625 
L 3713 1100 
L 3047 1100 
L 3047 0 
L 2419 0 
L 2419 1100 
L 313 1100 
L 313 1709 
L 2253 4666 
z
" id="DejaVuSans-34" transform="scale(0.015625)"/>
       </defs>
       <use xlink:href="#DejaVuSans-32"/>
       <use x="63.623047" xlink:href="#DejaVuSans-30"/>
       <use x="127.246094" xlink:href="#DejaVuSans-32"/>
       <use x="190.869141" xlink:href="#DejaVuSans-32"/>
       <use x="254.492188" xlink:href="#DejaVuSans-2d"/>
       <use x="290.576172" xlink:href="#DejaVuSans-30"/>
       <use x="354.199219" xlink:href="#DejaVuSans-34"/>
      </g>
     </g>
    </g>
    <g id="xtick_6">
     <g id="line2d_6">
      <g>
       <use style="stroke:#000000;stroke-width:0.8;" x="376.351736" xlink:href="#m0cbc141e3a" y="276.48"/>
      </g>
     </g>
     <g id="text_6">
      <!-- 2022-05 -->
      <g transform="translate(339.126915 310.951846)rotate(-30)scale(0.1 -0.1)">
       <defs>
        <path d="M 691 4666 
L 3169 4666 
L 3169 4134 
L 1269 4134 
L 1269 2991 
Q 1406 3038 1543 3061 
Q 1681 3084 1819 3084 
Q 2600 3084 3056 2656 
Q 3513 2228 3513 1497 
Q 3513 744 3044 326 
Q 2575 -91 1722 -91 
Q 1428 -91 1123 -41 
Q 819 9 494 109 
L 494 744 
Q 775 591 1075 516 
Q 1375 441 1709 441 
Q 2250 441 2565 725 
Q 2881 1009 2881 1497 
Q 2881 1984 2565 2268 
Q 2250 2553 1709 2553 
Q 1456 2553 1204 2497 
Q 953 2441 691 2322 
L 691 4666 
z
" id="DejaVuSans-35" transform="scale(0.015625)"/>
       </defs>
       <use xlink:href="#DejaVuSans-32"/>
       <use x="63.623047" xlink:href="#DejaVuSans-30"/>
       <use x="127.246094" xlink:href="#DejaVuSans-32"/>
       <use x="190.869141" xlink:href="#DejaVuSans-32"/>
       <use x="254.492188" xlink:href="#DejaVuSans-2d"/>
       <use x="290.576172" xlink:href="#DejaVuSans-30"/>
       <use x="354.199219" xlink:href="#DejaVuSans-35"/>
      </g>
     </g>
    </g>
    <g id="text_7">
     <!-- date -->
     <g transform="translate(224.885 324.351346)scale(0.1 -0.1)">
      <defs>
       <path d="M 2906 2969 
L 2906 4863 
L 3481 4863 
L 3481 0 
L 2906 0 
L 2906 525 
Q 2725 213 2448 61 
Q 2172 -91 1784 -91 
Q 1150 -91 751 415 
Q 353 922 353 1747 
Q 353 2572 751 3078 
Q 1150 3584 1784 3584 
Q 2172 3584 2448 3432 
Q 2725 3281 2906 2969 
z
M 947 1747 
Q 947 1113 1208 752 
Q 1469 391 1925 391 
Q 2381 391 2643 752 
Q 2906 1113 2906 1747 
Q 2906 2381 2643 2742 
Q 2381 3103 1925 3103 
Q 1469 3103 1208 2742 
Q 947 2381 947 1747 
z
" id="DejaVuSans-64" transform="scale(0.015625)"/>
       <path d="M 2194 1759 
Q 1497 1759 1228 1600 
Q 959 1441 959 1056 
Q 959 750 1161 570 
Q 1363 391 1709 391 
Q 2188 391 2477 730 
Q 2766 1069 2766 1631 
L 2766 1759 
L 2194 1759 
z
M 3341 1997 
L 3341 0 
L 2766 0 
L 2766 531 
Q 2569 213 2275 61 
Q 1981 -91 1556 -91 
Q 1019 -91 701 211 
Q 384 513 384 1019 
Q 384 1609 779 1909 
Q 1175 2209 1959 2209 
L 2766 2209 
L 2766 2266 
Q 2766 2663 2505 2880 
Q 2244 3097 1772 3097 
Q 1472 3097 1187 3025 
Q 903 2953 641 2809 
L 641 3341 
Q 956 3463 1253 3523 
Q 1550 3584 1831 3584 
Q 2591 3584 2966 3190 
Q 3341 2797 3341 1997 
z
" id="DejaVuSans-61" transform="scale(0.015625)"/>
       <path d="M 1172 4494 
L 1172 3500 
L 2356 3500 
L 2356 3053 
L 1172 3053 
L 1172 1153 
Q 1172 725 1289 603 
Q 1406 481 1766 481 
L 2356 481 
L 2356 0 
L 1766 0 
Q 1100 0 847 248 
Q 594 497 594 1153 
L 594 3053 
L 172 3053 
L 172 3500 
L 594 3500 
L 594 4494 
L 1172 4494 
z
" id="DejaVuSans-74" transform="scale(0.015625)"/>
       <path d="M 3597 1894 
L 3597 1613 
L 953 1613 
Q 991 1019 1311 708 
Q 1631 397 2203 397 
Q 2534 397 2845 478 
Q 3156 559 3463 722 
L 3463 178 
Q 3153 47 2828 -22 
Q 2503 -91 2169 -91 
Q 1331 -91 842 396 
Q 353 884 353 1716 
Q 353 2575 817 3079 
Q 1281 3584 2069 3584 
Q 2775 3584 3186 3129 
Q 3597 2675 3597 1894 
z
M 3022 2063 
Q 3016 2534 2758 2815 
Q 2500 3097 2075 3097 
Q 1594 3097 1305 2825 
Q 1016 2553 972 2059 
L 3022 2063 
z
" id="DejaVuSans-65" transform="scale(0.015625)"/>
      </defs>
      <use xlink:href="#DejaVuSans-64"/>
      <use x="63.476562" xlink:href="#DejaVuSans-61"/>
      <use x="124.755859" xlink:href="#DejaVuSans-74"/>
      <use x="163.964844" xlink:href="#DejaVuSans-65"/>
     </g>
    </g>
   </g>
   <g id="matplotlib.axis_2">
    <g id="ytick_1">
     <g id="line2d_7">
      <defs>
       <path d="M 0 0 
L -3.5 0 
" id="m7ff4802566" style="stroke:#000000;stroke-width:0.8;"/>
      </defs>
      <g>
       <use style="stroke:#000000;stroke-width:0.8;" x="57.6" xlink:href="#m7ff4802566" y="256.450481"/>
      </g>
     </g>
     <g id="text_8">
      <!-- 85000 -->
      <g transform="translate(18.7875 260.2497)scale(0.1 -0.1)">
       <defs>
        <path d="M 2034 2216 
Q 1584 2216 1326 1975 
Q 1069 1734 1069 1313 
Q 1069 891 1326 650 
Q 1584 409 2034 409 
Q 2484 409 2743 651 
Q 3003 894 3003 1313 
Q 3003 1734 2745 1975 
Q 2488 2216 2034 2216 
z
M 1403 2484 
Q 997 2584 770 2862 
Q 544 3141 544 3541 
Q 544 4100 942 4425 
Q 1341 4750 2034 4750 
Q 2731 4750 3128 4425 
Q 3525 4100 3525 3541 
Q 3525 3141 3298 2862 
Q 3072 2584 2669 2484 
Q 3125 2378 3379 2068 
Q 3634 1759 3634 1313 
Q 3634 634 3220 271 
Q 2806 -91 2034 -91 
Q 1263 -91 848 271 
Q 434 634 434 1313 
Q 434 1759 690 2068 
Q 947 2378 1403 2484 
z
M 1172 3481 
Q 1172 3119 1398 2916 
Q 1625 2713 2034 2713 
Q 2441 2713 2670 2916 
Q 2900 3119 2900 3481 
Q 2900 3844 2670 4047 
Q 2441 4250 2034 4250 
Q 1625 4250 1398 4047 
Q 1172 3844 1172 3481 
z
" id="DejaVuSans-38" transform="scale(0.015625)"/>
       </defs>
       <use xlink:href="#DejaVuSans-38"/>
       <use x="63.623047" xlink:href="#DejaVuSans-35"/>
       <use x="127.246094" xlink:href="#DejaVuSans-30"/>
       <use x="190.869141" xlink:href="#DejaVuSans-30"/>
       <use x="254.492188" xlink:href="#DejaVuSans-30"/>
      </g>
     </g>
    </g>
    <g id="ytick_2">
     <g id="line2d_8">
      <g>
       <use style="stroke:#000000;stroke-width:0.8;" x="57.6" xlink:href="#m7ff4802566" y="215.098093"/>
      </g>
     </g>
     <g id="text_9">
      <!-- 90000 -->
      <g transform="translate(18.7875 218.897312)scale(0.1 -0.1)">
       <defs>
        <path d="M 703 97 
L 703 672 
Q 941 559 1184 500 
Q 1428 441 1663 441 
Q 2288 441 2617 861 
Q 2947 1281 2994 2138 
Q 2813 1869 2534 1725 
Q 2256 1581 1919 1581 
Q 1219 1581 811 2004 
Q 403 2428 403 3163 
Q 403 3881 828 4315 
Q 1253 4750 1959 4750 
Q 2769 4750 3195 4129 
Q 3622 3509 3622 2328 
Q 3622 1225 3098 567 
Q 2575 -91 1691 -91 
Q 1453 -91 1209 -44 
Q 966 3 703 97 
z
M 1959 2075 
Q 2384 2075 2632 2365 
Q 2881 2656 2881 3163 
Q 2881 3666 2632 3958 
Q 2384 4250 1959 4250 
Q 1534 4250 1286 3958 
Q 1038 3666 1038 3163 
Q 1038 2656 1286 2365 
Q 1534 2075 1959 2075 
z
" id="DejaVuSans-39" transform="scale(0.015625)"/>
       </defs>
       <use xlink:href="#DejaVuSans-39"/>
       <use x="63.623047" xlink:href="#DejaVuSans-30"/>
       <use x="127.246094" xlink:href="#DejaVuSans-30"/>
       <use x="190.869141" xlink:href="#DejaVuSans-30"/>
       <use x="254.492188" xlink:href="#DejaVuSans-30"/>
      </g>
     </g>
    </g>
    <g id="ytick_3">
     <g id="line2d_9">
      <g>
       <use style="stroke:#000000;stroke-width:0.8;" x="57.6" xlink:href="#m7ff4802566" y="173.745706"/>
      </g>
     </g>
     <g id="text_10">
      <!-- 95000 -->
      <g transform="translate(18.7875 177.544925)scale(0.1 -0.1)">
       <use xlink:href="#DejaVuSans-39"/>
       <use x="63.623047" xlink:href="#DejaVuSans-35"/>
       <use x="127.246094" xlink:href="#DejaVuSans-30"/>
       <use x="190.869141" xlink:href="#DejaVuSans-30"/>
       <use x="254.492188" xlink:href="#DejaVuSans-30"/>
      </g>
     </g>
    </g>
    <g id="ytick_4">
     <g id="line2d_10">
      <g>
       <use style="stroke:#000000;stroke-width:0.8;" x="57.6" xlink:href="#m7ff4802566" y="132.393318"/>
      </g>
     </g>
     <g id="text_11">
      <!-- 100000 -->
      <g transform="translate(12.425 136.192537)scale(0.1 -0.1)">
       <use xlink:href="#DejaVuSans-31"/>
       <use x="63.623047" xlink:href="#DejaVuSans-30"/>
       <use x="127.246094" xlink:href="#DejaVuSans-30"/>
       <use x="190.869141" xlink:href="#DejaVuSans-30"/>
       <use x="254.492188" xlink:href="#DejaVuSans-30"/>
       <use x="318.115234" xlink:href="#DejaVuSans-30"/>
      </g>
     </g>
    </g>
    <g id="ytick_5">
     <g id="line2d_11">
      <g>
       <use style="stroke:#000000;stroke-width:0.8;" x="57.6" xlink:href="#m7ff4802566" y="91.040931"/>
      </g>
     </g>
     <g id="text_12">
      <!-- 105000 -->
      <g transform="translate(12.425 94.84015)scale(0.1 -0.1)">
       <use xlink:href="#DejaVuSans-31"/>
       <use x="63.623047" xlink:href="#DejaVuSans-30"/>
       <use x="127.246094" xlink:href="#DejaVuSans-35"/>
       <use x="190.869141" xlink:href="#DejaVuSans-30"/>
       <use x="254.492188" xlink:href="#DejaVuSans-30"/>
       <use x="318.115234" xlink:href="#DejaVuSans-30"/>
      </g>
     </g>
    </g>
    <g id="ytick_6">
     <g id="line2d_12">
      <g>
       <use style="stroke:#000000;stroke-width:0.8;" x="57.6" xlink:href="#m7ff4802566" y="49.688543"/>
      </g>
     </g>
     <g id="text_13">
      <!-- 110000 -->
      <g transform="translate(12.425 53.487762)scale(0.1 -0.1)">
       <use xlink:href="#DejaVuSans-31"/>
       <use x="63.623047" xlink:href="#DejaVuSans-31"/>
       <use x="127.246094" xlink:href="#DejaVuSans-30"/>
       <use x="190.869141" xlink:href="#DejaVuSans-30"/>
       <use x="254.492188" xlink:href="#DejaVuSans-30"/>
       <use x="318.115234" xlink:href="#DejaVuSans-30"/>
      </g>
     </g>
    </g>
   </g>
   <g id="line2d_13">
    <path clip-path="url(#p5cbe1db08d)" d="M 73.832727 52.154182 
L 75.677355 57.275722 
L 81.21124 60.925724 
L 83.055868 61.385984 
L 84.900496 58.042937 
L 88.589752 58.313341 
L 94.123636 74.447997 
L 95.968264 94.368554 
L 97.812893 110.147316 
L 99.657521 92.352827 
L 101.502149 102.038334 
L 107.036033 91.581256 
L 108.880661 71.720206 
L 110.725289 67.217041 
L 112.569917 79.280896 
L 114.414545 76.314155 
L 119.94843 84.691279 
L 121.793058 91.547961 
L 123.637686 79.601426 
L 125.482314 88.618793 
L 127.326942 90.921366 
L 132.860826 103.127984 
L 134.705455 83.273071 
L 136.550083 75.944566 
L 138.394711 69.927534 
L 145.773223 62.935505 
L 147.617851 64.5185 
L 149.462479 62.589643 
L 151.307107 63.615444 
L 153.151736 64.924508 
L 158.68562 62.809287 
L 160.530248 62.912698 
L 162.374876 85.353837 
L 164.219504 83.805201 
L 166.064132 89.35495 
L 171.598017 91.371987 
L 173.442645 81.628257 
L 175.287273 82.290221 
L 177.131901 92.988753 
L 178.976529 95.06911 
L 186.355041 114.027271 
L 188.199669 122.878141 
L 190.044298 134.004326 
L 191.888926 149.06923 
L 197.42281 139.90663 
L 199.267438 152.378917 
L 201.112066 159.440826 
L 202.956694 168.280032 
L 204.801322 149.813219 
L 210.335207 130.085825 
L 212.179835 121.552036 
L 214.024463 119.623429 
L 215.869091 137.332773 
L 217.713719 132.367487 
L 223.247603 132.639483 
L 225.092231 122.7838 
L 226.93686 106.42935 
L 228.781488 119.902865 
L 230.626116 134.131402 
L 236.16 139.415758 
L 238.004628 122.345036 
L 239.849256 121.792565 
L 241.693884 141.103208 
L 243.538512 147.81702 
L 250.917025 157.59183 
L 252.761653 173.515152 
L 254.606281 157.743384 
L 256.450909 137.77535 
L 261.984793 138.597325 
L 263.829421 151.759941 
L 265.67405 135.340625 
L 267.518678 143.423088 
L 269.363306 152.371817 
L 274.89719 178.825627 
L 276.741818 180.897422 
L 278.586446 159.237019 
L 280.431074 161.843167 
L 282.275702 173.546636 
L 287.809587 182.846935 
L 289.654215 168.185668 
L 291.498843 146.250922 
L 293.343471 133.738618 
L 295.188099 124.039446 
L 300.721983 127.090563 
L 302.566612 118.377255 
L 304.41124 131.614385 
L 306.255868 121.3456 
L 308.100496 118.158997 
L 313.63438 114.971144 
L 315.479008 98.012989 
L 317.323636 107.549103 
L 319.168264 119.505326 
L 321.012893 114.567471 
L 326.546777 109.691797 
L 328.391405 123.719239 
L 330.236033 132.318619 
L 332.080661 131.099104 
L 333.925289 133.18835 
L 339.459174 141.967932 
L 341.303802 143.908175 
L 343.14843 131.717195 
L 344.993058 141.022474 
L 352.37157 144.265403 
L 354.216198 128.03774 
L 356.060826 126.364371 
L 357.905455 142.562039 
L 359.750083 164.386919 
L 365.283967 158.762425 
L 367.128595 182.027795 
L 368.973223 181.911122 
L 370.817851 165.937381 
L 372.662479 191.731753 
L 378.196364 186.315033 
L 380.040992 181.865245 
L 381.88562 160.076036 
L 383.730248 190.040689 
L 385.574876 199.567556 
L 391.10876 230.352344 
L 392.953388 230.212466 
L 394.798017 244.192307 
L 396.642645 239.706541 
L 398.487273 216.750103 
" style="fill:none;stroke:#0000ff;stroke-linecap:square;stroke-opacity:0.9;stroke-width:2;"/>
   </g>
   <g id="line2d_14">
    <path clip-path="url(#p5cbe1db08d)" d="M 73.832727 52.154182 
L 75.677355 57.368062 
L 81.21124 61.191891 
L 83.055868 61.663261 
L 84.900496 57.879698 
L 88.589752 80.147373 
L 94.123636 74.139632 
L 95.968264 94.944959 
L 97.812893 110.216967 
L 99.657521 92.265854 
L 101.502149 102.142868 
L 107.036033 90.910743 
L 108.880661 72.368723 
L 110.725289 67.167215 
L 112.569917 79.307559 
L 114.414545 76.674767 
L 119.94843 84.046551 
L 121.793058 91.362889 
L 123.637686 79.101546 
L 125.482314 88.737505 
L 127.326942 90.763818 
L 132.860826 102.733683 
L 134.705455 82.773793 
L 136.550083 75.622025 
L 138.394711 69.896754 
L 145.773223 62.710747 
L 147.617851 64.85 
L 149.462479 62.54471 
L 151.307107 63.743695 
L 153.151736 65.076463 
L 158.68562 63.533418 
L 160.530248 62.9059 
L 162.374876 84.740254 
L 164.219504 82.775564 
L 166.064132 87.850811 
L 171.598017 90.974474 
L 173.442645 80.720931 
L 175.287273 81.745386 
L 177.131901 92.054683 
L 178.976529 93.273953 
L 186.355041 112.153823 
L 188.199669 121.516744 
L 190.044298 132.02074 
L 191.888926 147.631415 
L 197.42281 138.668074 
L 199.267438 150.494849 
L 201.112066 156.884024 
L 202.956694 165.022031 
L 204.801322 147.801673 
L 210.335207 128.120625 
L 212.179835 120.832267 
L 214.024463 117.949184 
L 215.869091 135.353822 
L 217.713719 131.176194 
L 223.247603 130.390793 
L 225.092231 121.511156 
L 226.93686 105.753294 
L 228.781488 119.171618 
L 230.626116 132.437431 
L 236.16 137.543758 
L 238.004628 121.136607 
L 239.849256 119.815948 
L 241.693884 139.371004 
L 243.538512 145.56973 
L 250.917025 156.076093 
L 252.761653 170.64486 
L 254.606281 155.826848 
L 256.450909 136.344969 
L 261.984793 136.965381 
L 263.829421 150.491784 
L 265.67405 134.064666 
L 267.518678 140.793438 
L 269.363306 150.149622 
L 274.89719 175.840752 
L 276.741818 178.192527 
L 278.586446 156.678908 
L 280.431074 159.472101 
L 282.275702 171.123859 
L 287.809587 179.186709 
L 289.654215 164.743684 
L 291.498843 144.459842 
L 293.343471 131.837167 
L 295.188099 122.628757 
L 300.721983 124.809446 
L 302.566612 116.884189 
L 304.41124 130.077533 
L 306.255868 119.828358 
L 308.100496 116.243135 
L 313.63438 113.55462 
L 315.479008 97.438266 
L 317.323636 106.32212 
L 319.168264 118.125807 
L 321.012893 113.282072 
L 326.546777 109.265628 
L 328.391405 122.119833 
L 330.236033 130.448643 
L 332.080661 129.364204 
L 333.925289 130.920373 
L 339.459174 140.063133 
L 341.303802 141.778625 
L 343.14843 129.411583 
L 344.993058 138.236284 
L 352.37157 141.367506 
L 354.216198 124.983335 
L 356.060826 123.279538 
L 357.905455 138.478702 
L 359.750083 160.507127 
L 365.283967 156.306772 
L 367.128595 178.383793 
L 368.973223 178.192018 
L 370.817851 162.695069 
L 372.662479 187.859021 
L 378.196364 183.278678 
L 380.040992 178.591566 
L 381.88562 156.319521 
L 383.730248 185.657412 
L 385.574876 194.900262 
L 391.10876 223.789485 
L 392.953388 224.958812 
L 394.798017 237.389705 
L 396.642645 233.366744 
L 398.487273 211.734652 
" style="fill:none;stroke:#ff0000;stroke-linecap:square;stroke-opacity:0.9;stroke-width:2;"/>
   </g>
   <g id="line2d_15">
    <path clip-path="url(#p5cbe1db08d)" d="M 73.832727 52.154182 
L 75.677355 56.71551 
L 81.21124 60.708164 
L 83.055868 61.866678 
L 84.900496 57.637997 
L 88.589752 80.246242 
L 94.123636 74.225416 
L 95.968264 94.634435 
L 97.812893 110.527482 
L 99.657521 92.358659 
L 101.502149 102.12112 
L 107.036033 91.57047 
L 108.880661 72.193688 
L 110.725289 66.823025 
L 112.569917 79.13365 
L 114.414545 76.524177 
L 119.94843 83.927948 
L 121.793058 91.043842 
L 123.637686 79.679642 
L 125.482314 88.898301 
L 127.326942 90.642951 
L 132.860826 102.662025 
L 134.705455 83.066719 
L 136.550083 75.359422 
L 138.394711 69.094618 
L 145.773223 62.243492 
L 147.617851 64.509532 
L 149.462479 62.369528 
L 151.307107 63.252834 
L 153.151736 64.046779 
L 158.68562 62.714136 
L 160.530248 62.913317 
L 162.374876 85.73521 
L 164.219504 83.235082 
L 166.064132 88.75864 
L 171.598017 91.258961 
L 173.442645 81.317338 
L 175.287273 81.78442 
L 177.131901 92.641082 
L 178.976529 94.49528 
L 186.355041 113.497118 
L 188.199669 122.605744 
L 190.044298 133.858462 
L 191.888926 149.309911 
L 197.42281 139.338133 
L 199.267438 152.545068 
L 201.112066 159.04938 
L 202.956694 167.791953 
L 204.801322 149.827334 
L 210.335207 129.408015 
L 212.179835 121.055257 
L 214.024463 119.881432 
L 215.869091 137.234066 
L 217.713719 131.854959 
L 223.247603 131.773206 
L 225.092231 122.129454 
L 226.93686 105.951517 
L 228.781488 119.674217 
L 230.626116 133.505383 
L 236.16 139.199313 
L 238.004628 121.699157 
L 239.849256 121.464652 
L 241.693884 140.768224 
L 243.538512 147.042234 
L 250.917025 157.760697 
L 252.761653 172.416697 
L 254.606281 156.386991 
L 256.450909 137.631744 
L 261.984793 137.321275 
L 263.829421 151.59071 
L 265.67405 135.122354 
L 267.518678 142.038301 
L 269.363306 151.292035 
L 274.89719 177.766936 
L 276.741818 179.819715 
L 278.586446 158.585042 
L 280.431074 160.456911 
L 282.275702 172.745133 
L 287.809587 181.710499 
L 289.654215 167.751905 
L 291.498843 145.802178 
L 293.343471 132.959448 
L 295.188099 123.649931 
L 300.721983 126.271284 
L 302.566612 117.474294 
L 304.41124 131.049502 
L 306.255868 120.45277 
L 308.100496 117.788451 
L 313.63438 114.183455 
L 315.479008 97.687064 
L 317.323636 107.002695 
L 319.168264 118.597938 
L 321.012893 113.410493 
L 326.546777 109.487075 
L 328.391405 122.284241 
L 330.236033 131.618365 
L 332.080661 130.257571 
L 333.925289 132.863165 
L 339.459174 141.071705 
L 341.303802 143.426228 
L 343.14843 130.78297 
L 344.993058 139.794279 
L 352.37157 143.15426 
L 354.216198 126.700773 
L 356.060826 125.840297 
L 357.905455 141.164407 
L 359.750083 162.907299 
L 365.283967 158.12973 
L 367.128595 180.976495 
L 368.973223 180.754478 
L 370.817851 164.726988 
L 372.662479 190.350596 
L 378.196364 185.733233 
L 380.040992 181.350554 
L 381.88562 159.459688 
L 383.730248 188.962805 
L 385.574876 198.890469 
L 391.10876 229.07757 
L 392.953388 229.818832 
L 394.798017 243.680722 
L 396.642645 238.507968 
L 398.487273 216.589606 
" style="fill:none;stroke:#008000;stroke-linecap:square;stroke-opacity:0.9;stroke-width:2;"/>
   </g>
   <g id="line2d_16">
    <path clip-path="url(#p5cbe1db08d)" d="M 73.832727 52.154182 
L 75.677355 56.672079 
L 81.21124 61.158398 
L 83.055868 61.695003 
L 84.900496 58.397425 
L 88.589752 80.455738 
L 94.123636 74.063699 
L 95.968264 94.302457 
L 97.812893 110.820454 
L 99.657521 92.133436 
L 101.502149 102.008247 
L 107.036033 90.975281 
L 108.880661 71.630681 
L 110.725289 66.478479 
L 112.569917 79.041966 
L 114.414545 76.540433 
L 119.94843 84.108866 
L 121.793058 91.267392 
L 123.637686 79.748023 
L 125.482314 89.248088 
L 127.326942 90.515285 
L 132.860826 102.768563 
L 134.705455 82.851384 
L 136.550083 75.449282 
L 138.394711 69.506776 
L 145.773223 62.271473 
L 147.617851 64.626191 
L 149.462479 62.607004 
L 151.307107 62.897701 
L 153.151736 64.410297 
L 158.68562 62.977226 
L 160.530248 62.952238 
L 162.374876 85.388417 
L 164.219504 82.985763 
L 166.064132 88.399804 
L 171.598017 91.237099 
L 173.442645 81.45532 
L 175.287273 82.122336 
L 177.131901 93.062079 
L 178.976529 94.884765 
L 186.355041 113.742757 
L 188.199669 122.629213 
L 190.044298 133.99605 
L 191.888926 149.459098 
L 197.42281 139.502021 
L 199.267438 152.634544 
L 201.112066 158.926262 
L 202.956694 167.375643 
L 204.801322 149.508134 
L 210.335207 130.085028 
L 212.179835 121.709349 
L 214.024463 119.97087 
L 215.869091 137.292943 
L 217.713719 132.105133 
L 223.247603 132.2758 
L 225.092231 122.210495 
L 226.93686 106.156719 
L 228.781488 119.548429 
L 230.626116 134.177589 
L 236.16 138.784652 
L 238.004628 122.308922 
L 239.849256 121.659849 
L 241.693884 141.028773 
L 243.538512 147.985046 
L 250.917025 157.807659 
L 252.761653 173.111506 
L 254.606281 156.997492 
L 256.450909 137.925561 
L 261.984793 137.725544 
L 263.829421 151.172264 
L 265.67405 135.46699 
L 267.518678 143.001954 
L 269.363306 151.74852 
L 274.89719 178.201693 
L 276.741818 180.346675 
L 278.586446 158.919907 
L 280.431074 161.052801 
L 282.275702 173.454088 
L 287.809587 181.908546 
L 289.654215 168.06858 
L 291.498843 145.835674 
L 293.343471 133.713831 
L 295.188099 123.894324 
L 300.721983 126.155719 
L 302.566612 117.940145 
L 304.41124 131.622539 
L 306.255868 121.167041 
L 308.100496 118.003331 
L 313.63438 114.698178 
L 315.479008 97.949511 
L 317.323636 107.501435 
L 319.168264 119.170474 
L 321.012893 114.014623 
L 326.546777 109.712258 
L 328.391405 123.005837 
L 330.236033 132.012723 
L 332.080661 130.543868 
L 333.925289 132.838704 
L 339.459174 142.021366 
L 341.303802 143.833088 
L 343.14843 131.134822 
L 344.993058 139.914789 
L 352.37157 143.653756 
L 354.216198 126.994812 
L 356.060826 125.621629 
L 357.905455 142.157151 
L 359.750083 163.191702 
L 365.283967 158.290209 
L 367.128595 181.794248 
L 368.973223 181.53609 
L 370.817851 165.279529 
L 372.662479 190.979353 
L 378.196364 185.831854 
L 380.040992 180.998898 
L 381.88562 159.993553 
L 383.730248 189.642979 
L 385.574876 198.945956 
L 391.10876 229.780983 
L 392.953388 229.791272 
L 394.798017 243.208386 
L 396.642645 238.650227 
L 398.487273 216.124808 
" style="fill:none;stroke:#ec5283;stroke-linecap:square;stroke-width:2;"/>
   </g>
   <g id="line2d_17">
    <path clip-path="url(#p5cbe1db08d)" d="M 73.832727 52.154182 
L 75.677355 56.801435 
L 81.21124 60.995563 
L 83.055868 61.773005 
L 84.900496 58.229714 
L 88.589752 80.241602 
L 94.123636 74.230026 
L 95.968264 94.345637 
L 97.812893 110.259208 
L 99.657521 92.109202 
L 101.502149 102.368434 
L 107.036033 90.710653 
L 108.880661 71.812369 
L 110.725289 67.039056 
L 112.569917 78.65681 
L 114.414545 76.081498 
L 119.94843 84.190529 
L 121.793058 91.327572 
L 123.637686 79.095825 
L 125.482314 88.77267 
L 127.326942 90.509608 
L 132.860826 102.567843 
L 134.705455 82.593291 
L 136.550083 75.223282 
L 138.394711 69.477643 
L 145.773223 62.145074 
L 147.617851 64.452069 
L 149.462479 62.807388 
L 151.307107 62.882831 
L 153.151736 64.374944 
L 158.68562 62.763488 
L 160.530248 62.275871 
L 162.374876 85.214767 
L 164.219504 83.36337 
L 166.064132 88.293781 
L 171.598017 90.939046 
L 173.442645 81.308384 
L 175.287273 81.738436 
L 177.131901 92.345893 
L 178.976529 94.144177 
L 186.355041 113.028258 
L 188.199669 122.540239 
L 190.044298 133.260616 
L 191.888926 148.901288 
L 197.42281 139.494246 
L 199.267438 151.731619 
L 201.112066 158.64063 
L 202.956694 167.029676 
L 204.801322 148.989811 
L 210.335207 128.844603 
L 212.179835 120.7666 
L 214.024463 119.163277 
L 215.869091 136.593006 
L 217.713719 131.44957 
L 223.247603 131.698575 
L 225.092231 122.182264 
L 226.93686 106.071562 
L 228.781488 119.020435 
L 230.626116 133.871812 
L 236.16 138.227134 
L 238.004628 121.830544 
L 239.849256 121.104143 
L 241.693884 140.659968 
L 243.538512 147.254004 
L 250.917025 157.195051 
L 252.761653 171.8459 
L 254.606281 155.949544 
L 256.450909 136.942528 
L 261.984793 137.624947 
L 263.829421 150.988403 
L 265.67405 134.277125 
L 267.518678 141.668016 
L 269.363306 150.954911 
L 274.89719 177.087 
L 276.741818 179.483493 
L 278.586446 157.32774 
L 280.431074 160.214982 
L 282.275702 172.063908 
L 287.809587 181.415664 
L 289.654215 167.239563 
L 291.498843 145.018329 
L 293.343471 132.646607 
L 295.188099 123.452859 
L 300.721983 125.713403 
L 302.566612 117.162876 
L 304.41124 130.657484 
L 306.255868 120.440922 
L 308.100496 117.318168 
L 313.63438 113.629895 
L 315.479008 97.465046 
L 317.323636 106.457011 
L 319.168264 117.960279 
L 321.012893 113.049528 
L 326.546777 108.540432 
L 328.391405 122.409749 
L 330.236033 131.389921 
L 332.080661 130.343538 
L 333.925289 131.805775 
L 339.459174 140.712234 
L 341.303802 142.730527 
L 343.14843 130.392254 
L 344.993058 139.662335 
L 352.37157 142.49206 
L 354.216198 126.480813 
L 356.060826 125.317641 
L 357.905455 140.710296 
L 359.750083 162.831141 
L 365.283967 157.325853 
L 367.128595 180.519858 
L 368.973223 180.297293 
L 370.817851 164.047735 
L 372.662479 190.059118 
L 378.196364 184.471406 
L 380.040992 180.734998 
L 381.88562 158.730449 
L 383.730248 188.724589 
L 385.574876 198.42036 
L 391.10876 228.063047 
L 392.953388 228.311496 
L 394.798017 242.553225 
L 396.642645 237.768453 
L 398.487273 214.993055 
" style="fill:none;stroke:#00ff00;stroke-linecap:square;stroke-opacity:0.9;stroke-width:2;"/>
   </g>
   <g id="line2d_18">
    <path clip-path="url(#p5cbe1db08d)" d="M 73.832727 52.154182 
L 75.677355 57.803703 
L 81.21124 61.770889 
L 83.055868 63.959242 
L 84.900496 59.426653 
L 88.589752 81.240443 
L 94.123636 76.827119 
L 95.968264 97.59771 
L 97.812893 114.355341 
L 99.657521 93.610985 
L 101.502149 105.083347 
L 107.036033 93.117485 
L 108.880661 72.756661 
L 110.725289 66.690051 
L 112.569917 81.565589 
L 114.414545 81.278785 
L 119.94843 88.391502 
L 121.793058 94.84631 
L 123.637686 83.214665 
L 125.482314 93.607783 
L 127.326942 92.542818 
L 132.860826 104.577252 
L 134.705455 82.558594 
L 136.550083 75.589868 
L 138.394711 69.493327 
L 145.773223 59.792931 
L 147.617851 62.478129 
L 149.462479 60.755433 
L 151.307107 60.237748 
L 153.151736 61.351179 
L 158.68562 58.954055 
L 160.530248 60.971693 
L 162.374876 88.588704 
L 164.219504 88.354774 
L 166.064132 96.666325 
L 171.598017 98.612272 
L 173.442645 87.99541 
L 175.287273 88.609575 
L 177.131901 104.990749 
L 178.976529 107.771494 
L 186.355041 128.983182 
L 188.199669 136.741214 
L 190.044298 146.940931 
L 191.888926 163.357776 
L 197.42281 151.503127 
L 199.267438 168.491253 
L 201.112066 176.068509 
L 202.956694 185.956944 
L 204.801322 165.39782 
L 210.335207 140.54156 
L 212.179835 131.518676 
L 214.024463 131.998052 
L 215.869091 150.256032 
L 217.713719 143.824906 
L 223.247603 143.79607 
L 225.092231 133.879489 
L 226.93686 117.319102 
L 228.781488 131.043125 
L 230.626116 145.660904 
L 236.16 149.620384 
L 238.004628 132.078305 
L 239.849256 132.91339 
L 241.693884 154.28174 
L 243.538512 161.740311 
L 250.917025 172.05377 
L 252.761653 188.976912 
L 254.606281 168.604888 
L 256.450909 151.299838 
L 261.984793 151.073839 
L 263.829421 163.262605 
L 265.67405 147.98779 
L 267.518678 157.380194 
L 269.363306 166.891549 
L 274.89719 193.292051 
L 276.741818 195.624299 
L 278.586446 172.337664 
L 280.431074 176.9952 
L 282.275702 190.291666 
L 287.809587 200.936238 
L 289.654215 184.463764 
L 291.498843 160.82439 
L 293.343471 147.279982 
L 295.188099 135.776883 
L 300.721983 139.059088 
L 302.566612 128.839041 
L 304.41124 140.040807 
L 306.255868 128.868286 
L 308.100496 128.460436 
L 313.63438 123.639283 
L 315.479008 104.699128 
L 317.323636 115.111105 
L 319.168264 126.147212 
L 321.012893 120.525888 
L 326.546777 115.357889 
L 328.391405 129.823177 
L 330.236033 138.717904 
L 332.080661 137.448277 
L 333.925289 139.928032 
L 339.459174 149.051393 
L 341.303802 150.432854 
L 343.14843 137.085412 
L 344.993058 147.808502 
L 352.37157 151.545843 
L 354.216198 133.823508 
L 356.060826 136.238081 
L 357.905455 154.623938 
L 359.750083 176.212587 
L 365.283967 167.945086 
L 367.128595 193.878515 
L 368.973223 194.440886 
L 370.817851 175.678192 
L 372.662479 202.869971 
L 378.196364 195.096414 
L 380.040992 193.733538 
L 381.88562 172.0265 
L 383.730248 204.700218 
L 385.574876 215.999399 
L 391.10876 250.297404 
L 392.953388 248.642554 
L 394.798017 265.797818 
L 396.642645 258.763334 
L 398.487273 232.32105 
" style="fill:none;stroke:#a5b9cf;stroke-linecap:square;stroke-width:2;"/>
   </g>
   <g id="patch_3">
    <path d="M 57.6 276.48 
L 57.6 41.472 
" style="fill:none;stroke:#000000;stroke-linecap:square;stroke-linejoin:miter;stroke-width:0.8;"/>
   </g>
   <g id="patch_4">
    <path d="M 414.72 276.48 
L 414.72 41.472 
" style="fill:none;stroke:#000000;stroke-linecap:square;stroke-linejoin:miter;stroke-width:0.8;"/>
   </g>
   <g id="patch_5">
    <path d="M 57.6 276.48 
L 414.72 276.48 
" style="fill:none;stroke:#000000;stroke-linecap:square;stroke-linejoin:miter;stroke-width:0.8;"/>
   </g>
   <g id="patch_6">
    <path d="M 57.6 41.472 
L 414.72 41.472 
" style="fill:none;stroke:#000000;stroke-linecap:square;stroke-linejoin:miter;stroke-width:0.8;"/>
   </g>
   <g id="text_14">
    <!-- SCHMOO -->
    <g transform="translate(209.025937 22.034625)scale(0.12 -0.12)">
     <defs>
      <path d="M 3425 4513 
L 3425 3897 
Q 3066 4069 2747 4153 
Q 2428 4238 2131 4238 
Q 1616 4238 1336 4038 
Q 1056 3838 1056 3469 
Q 1056 3159 1242 3001 
Q 1428 2844 1947 2747 
L 2328 2669 
Q 3034 2534 3370 2195 
Q 3706 1856 3706 1288 
Q 3706 609 3251 259 
Q 2797 -91 1919 -91 
Q 1588 -91 1214 -16 
Q 841 59 441 206 
L 441 856 
Q 825 641 1194 531 
Q 1563 422 1919 422 
Q 2459 422 2753 634 
Q 3047 847 3047 1241 
Q 3047 1584 2836 1778 
Q 2625 1972 2144 2069 
L 1759 2144 
Q 1053 2284 737 2584 
Q 422 2884 422 3419 
Q 422 4038 858 4394 
Q 1294 4750 2059 4750 
Q 2388 4750 2728 4690 
Q 3069 4631 3425 4513 
z
" id="DejaVuSans-53" transform="scale(0.015625)"/>
      <path d="M 4122 4306 
L 4122 3641 
Q 3803 3938 3442 4084 
Q 3081 4231 2675 4231 
Q 1875 4231 1450 3742 
Q 1025 3253 1025 2328 
Q 1025 1406 1450 917 
Q 1875 428 2675 428 
Q 3081 428 3442 575 
Q 3803 722 4122 1019 
L 4122 359 
Q 3791 134 3420 21 
Q 3050 -91 2638 -91 
Q 1578 -91 968 557 
Q 359 1206 359 2328 
Q 359 3453 968 4101 
Q 1578 4750 2638 4750 
Q 3056 4750 3426 4639 
Q 3797 4528 4122 4306 
z
" id="DejaVuSans-43" transform="scale(0.015625)"/>
      <path d="M 628 4666 
L 1259 4666 
L 1259 2753 
L 3553 2753 
L 3553 4666 
L 4184 4666 
L 4184 0 
L 3553 0 
L 3553 2222 
L 1259 2222 
L 1259 0 
L 628 0 
L 628 4666 
z
" id="DejaVuSans-48" transform="scale(0.015625)"/>
      <path d="M 628 4666 
L 1569 4666 
L 2759 1491 
L 3956 4666 
L 4897 4666 
L 4897 0 
L 4281 0 
L 4281 4097 
L 3078 897 
L 2444 897 
L 1241 4097 
L 1241 0 
L 628 0 
L 628 4666 
z
" id="DejaVuSans-4d" transform="scale(0.015625)"/>
      <path d="M 2522 4238 
Q 1834 4238 1429 3725 
Q 1025 3213 1025 2328 
Q 1025 1447 1429 934 
Q 1834 422 2522 422 
Q 3209 422 3611 934 
Q 4013 1447 4013 2328 
Q 4013 3213 3611 3725 
Q 3209 4238 2522 4238 
z
M 2522 4750 
Q 3503 4750 4090 4092 
Q 4678 3434 4678 2328 
Q 4678 1225 4090 567 
Q 3503 -91 2522 -91 
Q 1538 -91 948 565 
Q 359 1222 359 2328 
Q 359 3434 948 4092 
Q 1538 4750 2522 4750 
z
" id="DejaVuSans-4f" transform="scale(0.015625)"/>
     </defs>
     <use xlink:href="#DejaVuSans-53"/>
     <use x="63.476562" xlink:href="#DejaVuSans-43"/>
     <use x="133.300781" xlink:href="#DejaVuSans-48"/>
     <use x="208.496094" xlink:href="#DejaVuSans-4d"/>
     <use x="294.775391" xlink:href="#DejaVuSans-4f"/>
     <use x="373.486328" xlink:href="#DejaVuSans-4f"/>
    </g>
    <!-- daily_report -->
    <g transform="translate(200.466563 35.472)scale(0.12 -0.12)">
     <defs>
      <path d="M 603 3500 
L 1178 3500 
L 1178 0 
L 603 0 
L 603 3500 
z
M 603 4863 
L 1178 4863 
L 1178 4134 
L 603 4134 
L 603 4863 
z
" id="DejaVuSans-69" transform="scale(0.015625)"/>
      <path d="M 603 4863 
L 1178 4863 
L 1178 0 
L 603 0 
L 603 4863 
z
" id="DejaVuSans-6c" transform="scale(0.015625)"/>
      <path d="M 2059 -325 
Q 1816 -950 1584 -1140 
Q 1353 -1331 966 -1331 
L 506 -1331 
L 506 -850 
L 844 -850 
Q 1081 -850 1212 -737 
Q 1344 -625 1503 -206 
L 1606 56 
L 191 3500 
L 800 3500 
L 1894 763 
L 2988 3500 
L 3597 3500 
L 2059 -325 
z
" id="DejaVuSans-79" transform="scale(0.015625)"/>
      <path d="M 3263 -1063 
L 3263 -1509 
L -63 -1509 
L -63 -1063 
L 3263 -1063 
z
" id="DejaVuSans-5f" transform="scale(0.015625)"/>
      <path d="M 2631 2963 
Q 2534 3019 2420 3045 
Q 2306 3072 2169 3072 
Q 1681 3072 1420 2755 
Q 1159 2438 1159 1844 
L 1159 0 
L 581 0 
L 581 3500 
L 1159 3500 
L 1159 2956 
Q 1341 3275 1631 3429 
Q 1922 3584 2338 3584 
Q 2397 3584 2469 3576 
Q 2541 3569 2628 3553 
L 2631 2963 
z
" id="DejaVuSans-72" transform="scale(0.015625)"/>
      <path d="M 1159 525 
L 1159 -1331 
L 581 -1331 
L 581 3500 
L 1159 3500 
L 1159 2969 
Q 1341 3281 1617 3432 
Q 1894 3584 2278 3584 
Q 2916 3584 3314 3078 
Q 3713 2572 3713 1747 
Q 3713 922 3314 415 
Q 2916 -91 2278 -91 
Q 1894 -91 1617 61 
Q 1341 213 1159 525 
z
M 3116 1747 
Q 3116 2381 2855 2742 
Q 2594 3103 2138 3103 
Q 1681 3103 1420 2742 
Q 1159 2381 1159 1747 
Q 1159 1113 1420 752 
Q 1681 391 2138 391 
Q 2594 391 2855 752 
Q 3116 1113 3116 1747 
z
" id="DejaVuSans-70" transform="scale(0.015625)"/>
      <path d="M 1959 3097 
Q 1497 3097 1228 2736 
Q 959 2375 959 1747 
Q 959 1119 1226 758 
Q 1494 397 1959 397 
Q 2419 397 2687 759 
Q 2956 1122 2956 1747 
Q 2956 2369 2687 2733 
Q 2419 3097 1959 3097 
z
M 1959 3584 
Q 2709 3584 3137 3096 
Q 3566 2609 3566 1747 
Q 3566 888 3137 398 
Q 2709 -91 1959 -91 
Q 1206 -91 779 398 
Q 353 888 353 1747 
Q 353 2609 779 3096 
Q 1206 3584 1959 3584 
z
" id="DejaVuSans-6f" transform="scale(0.015625)"/>
     </defs>
     <use xlink:href="#DejaVuSans-64"/>
     <use x="63.476562" xlink:href="#DejaVuSans-61"/>
     <use x="124.755859" xlink:href="#DejaVuSans-69"/>
     <use x="152.539062" xlink:href="#DejaVuSans-6c"/>
     <use x="180.322266" xlink:href="#DejaVuSans-79"/>
     <use x="239.501953" xlink:href="#DejaVuSans-5f"/>
     <use x="289.501953" xlink:href="#DejaVuSans-72"/>
     <use x="328.365234" xlink:href="#DejaVuSans-65"/>
     <use x="389.888672" xlink:href="#DejaVuSans-70"/>
     <use x="453.365234" xlink:href="#DejaVuSans-6f"/>
     <use x="514.546875" xlink:href="#DejaVuSans-72"/>
     <use x="555.660156" xlink:href="#DejaVuSans-74"/>
    </g>
   </g>
   <g id="legend_1">
    <g id="patch_7">
     <path d="M 64.6 271.48 
L 178.64375 271.48 
Q 180.64375 271.48 180.64375 269.48 
L 180.64375 182.41125 
Q 180.64375 180.41125 178.64375 180.41125 
L 64.6 180.41125 
Q 62.6 180.41125 62.6 182.41125 
L 62.6 269.48 
Q 62.6 271.48 64.6 271.48 
z
" style="fill:#ffffff;opacity:0.8;stroke:#cccccc;stroke-linejoin:miter;"/>
    </g>
    <g id="line2d_19">
     <path d="M 66.6 188.509687 
L 86.6 188.509687 
" style="fill:none;stroke:#0000ff;stroke-linecap:square;stroke-opacity:0.9;stroke-width:2;"/>
    </g>
    <g id="line2d_20"/>
    <g id="text_15">
     <!-- alpaca -->
     <g transform="translate(94.6 192.009687)scale(0.1 -0.1)">
      <defs>
       <path d="M 3122 3366 
L 3122 2828 
Q 2878 2963 2633 3030 
Q 2388 3097 2138 3097 
Q 1578 3097 1268 2742 
Q 959 2388 959 1747 
Q 959 1106 1268 751 
Q 1578 397 2138 397 
Q 2388 397 2633 464 
Q 2878 531 3122 666 
L 3122 134 
Q 2881 22 2623 -34 
Q 2366 -91 2075 -91 
Q 1284 -91 818 406 
Q 353 903 353 1747 
Q 353 2603 823 3093 
Q 1294 3584 2113 3584 
Q 2378 3584 2631 3529 
Q 2884 3475 3122 3366 
z
" id="DejaVuSans-63" transform="scale(0.015625)"/>
      </defs>
      <use xlink:href="#DejaVuSans-61"/>
      <use x="61.279297" xlink:href="#DejaVuSans-6c"/>
      <use x="89.0625" xlink:href="#DejaVuSans-70"/>
      <use x="152.539062" xlink:href="#DejaVuSans-61"/>
      <use x="213.818359" xlink:href="#DejaVuSans-63"/>
      <use x="268.798828" xlink:href="#DejaVuSans-61"/>
     </g>
    </g>
    <g id="line2d_21">
     <path d="M 66.6 203.187812 
L 86.6 203.187812 
" style="fill:none;stroke:#ff0000;stroke-linecap:square;stroke-opacity:0.9;stroke-width:2;"/>
    </g>
    <g id="line2d_22"/>
    <g id="text_16">
     <!-- mattress -->
     <g transform="translate(94.6 206.687812)scale(0.1 -0.1)">
      <defs>
       <path d="M 3328 2828 
Q 3544 3216 3844 3400 
Q 4144 3584 4550 3584 
Q 5097 3584 5394 3201 
Q 5691 2819 5691 2113 
L 5691 0 
L 5113 0 
L 5113 2094 
Q 5113 2597 4934 2840 
Q 4756 3084 4391 3084 
Q 3944 3084 3684 2787 
Q 3425 2491 3425 1978 
L 3425 0 
L 2847 0 
L 2847 2094 
Q 2847 2600 2669 2842 
Q 2491 3084 2119 3084 
Q 1678 3084 1418 2786 
Q 1159 2488 1159 1978 
L 1159 0 
L 581 0 
L 581 3500 
L 1159 3500 
L 1159 2956 
Q 1356 3278 1631 3431 
Q 1906 3584 2284 3584 
Q 2666 3584 2933 3390 
Q 3200 3197 3328 2828 
z
" id="DejaVuSans-6d" transform="scale(0.015625)"/>
       <path d="M 2834 3397 
L 2834 2853 
Q 2591 2978 2328 3040 
Q 2066 3103 1784 3103 
Q 1356 3103 1142 2972 
Q 928 2841 928 2578 
Q 928 2378 1081 2264 
Q 1234 2150 1697 2047 
L 1894 2003 
Q 2506 1872 2764 1633 
Q 3022 1394 3022 966 
Q 3022 478 2636 193 
Q 2250 -91 1575 -91 
Q 1294 -91 989 -36 
Q 684 19 347 128 
L 347 722 
Q 666 556 975 473 
Q 1284 391 1588 391 
Q 1994 391 2212 530 
Q 2431 669 2431 922 
Q 2431 1156 2273 1281 
Q 2116 1406 1581 1522 
L 1381 1569 
Q 847 1681 609 1914 
Q 372 2147 372 2553 
Q 372 3047 722 3315 
Q 1072 3584 1716 3584 
Q 2034 3584 2315 3537 
Q 2597 3491 2834 3397 
z
" id="DejaVuSans-73" transform="scale(0.015625)"/>
      </defs>
      <use xlink:href="#DejaVuSans-6d"/>
      <use x="97.412109" xlink:href="#DejaVuSans-61"/>
      <use x="158.691406" xlink:href="#DejaVuSans-74"/>
      <use x="197.900391" xlink:href="#DejaVuSans-74"/>
      <use x="237.109375" xlink:href="#DejaVuSans-72"/>
      <use x="275.972656" xlink:href="#DejaVuSans-65"/>
      <use x="337.496094" xlink:href="#DejaVuSans-73"/>
      <use x="389.595703" xlink:href="#DejaVuSans-73"/>
     </g>
    </g>
    <g id="line2d_23">
     <path d="M 66.6 217.865937 
L 86.6 217.865937 
" style="fill:none;stroke:#008000;stroke-linecap:square;stroke-opacity:0.9;stroke-width:2;"/>
    </g>
    <g id="line2d_24"/>
    <g id="text_17">
     <!-- daily-open-rebal -->
     <g transform="translate(94.6 221.365937)scale(0.1 -0.1)">
      <defs>
       <path d="M 3513 2113 
L 3513 0 
L 2938 0 
L 2938 2094 
Q 2938 2591 2744 2837 
Q 2550 3084 2163 3084 
Q 1697 3084 1428 2787 
Q 1159 2491 1159 1978 
L 1159 0 
L 581 0 
L 581 3500 
L 1159 3500 
L 1159 2956 
Q 1366 3272 1645 3428 
Q 1925 3584 2291 3584 
Q 2894 3584 3203 3211 
Q 3513 2838 3513 2113 
z
" id="DejaVuSans-6e" transform="scale(0.015625)"/>
       <path d="M 3116 1747 
Q 3116 2381 2855 2742 
Q 2594 3103 2138 3103 
Q 1681 3103 1420 2742 
Q 1159 2381 1159 1747 
Q 1159 1113 1420 752 
Q 1681 391 2138 391 
Q 2594 391 2855 752 
Q 3116 1113 3116 1747 
z
M 1159 2969 
Q 1341 3281 1617 3432 
Q 1894 3584 2278 3584 
Q 2916 3584 3314 3078 
Q 3713 2572 3713 1747 
Q 3713 922 3314 415 
Q 2916 -91 2278 -91 
Q 1894 -91 1617 61 
Q 1341 213 1159 525 
L 1159 0 
L 581 0 
L 581 4863 
L 1159 4863 
L 1159 2969 
z
" id="DejaVuSans-62" transform="scale(0.015625)"/>
      </defs>
      <use xlink:href="#DejaVuSans-64"/>
      <use x="63.476562" xlink:href="#DejaVuSans-61"/>
      <use x="124.755859" xlink:href="#DejaVuSans-69"/>
      <use x="152.539062" xlink:href="#DejaVuSans-6c"/>
      <use x="180.322266" xlink:href="#DejaVuSans-79"/>
      <use x="237.751953" xlink:href="#DejaVuSans-2d"/>
      <use x="275.710938" xlink:href="#DejaVuSans-6f"/>
      <use x="336.892578" xlink:href="#DejaVuSans-70"/>
      <use x="400.369141" xlink:href="#DejaVuSans-65"/>
      <use x="461.892578" xlink:href="#DejaVuSans-6e"/>
      <use x="525.271484" xlink:href="#DejaVuSans-2d"/>
      <use x="561.355469" xlink:href="#DejaVuSans-72"/>
      <use x="600.21875" xlink:href="#DejaVuSans-65"/>
      <use x="661.742188" xlink:href="#DejaVuSans-62"/>
      <use x="725.21875" xlink:href="#DejaVuSans-61"/>
      <use x="786.498047" xlink:href="#DejaVuSans-6c"/>
     </g>
    </g>
    <g id="line2d_25">
     <path d="M 66.6 232.544062 
L 86.6 232.544062 
" style="fill:none;stroke:#ec5283;stroke-linecap:square;stroke-width:2;"/>
    </g>
    <g id="line2d_26"/>
    <g id="text_18">
     <!-- daily-close-rebal -->
     <g transform="translate(94.6 236.044062)scale(0.1 -0.1)">
      <use xlink:href="#DejaVuSans-64"/>
      <use x="63.476562" xlink:href="#DejaVuSans-61"/>
      <use x="124.755859" xlink:href="#DejaVuSans-69"/>
      <use x="152.539062" xlink:href="#DejaVuSans-6c"/>
      <use x="180.322266" xlink:href="#DejaVuSans-79"/>
      <use x="237.751953" xlink:href="#DejaVuSans-2d"/>
      <use x="273.835938" xlink:href="#DejaVuSans-63"/>
      <use x="328.816406" xlink:href="#DejaVuSans-6c"/>
      <use x="356.599609" xlink:href="#DejaVuSans-6f"/>
      <use x="417.78125" xlink:href="#DejaVuSans-73"/>
      <use x="469.880859" xlink:href="#DejaVuSans-65"/>
      <use x="531.404297" xlink:href="#DejaVuSans-2d"/>
      <use x="567.488281" xlink:href="#DejaVuSans-72"/>
      <use x="606.351562" xlink:href="#DejaVuSans-65"/>
      <use x="667.875" xlink:href="#DejaVuSans-62"/>
      <use x="731.351562" xlink:href="#DejaVuSans-61"/>
      <use x="792.630859" xlink:href="#DejaVuSans-6c"/>
     </g>
    </g>
    <g id="line2d_27">
     <path d="M 66.6 247.222187 
L 86.6 247.222187 
" style="fill:none;stroke:#00ff00;stroke-linecap:square;stroke-opacity:0.9;stroke-width:2;"/>
    </g>
    <g id="line2d_28"/>
    <g id="text_19">
     <!-- trader-baseline -->
     <g transform="translate(94.6 250.722187)scale(0.1 -0.1)">
      <use xlink:href="#DejaVuSans-74"/>
      <use x="39.208984" xlink:href="#DejaVuSans-72"/>
      <use x="80.322266" xlink:href="#DejaVuSans-61"/>
      <use x="141.601562" xlink:href="#DejaVuSans-64"/>
      <use x="205.078125" xlink:href="#DejaVuSans-65"/>
      <use x="266.601562" xlink:href="#DejaVuSans-72"/>
      <use x="301.339844" xlink:href="#DejaVuSans-2d"/>
      <use x="337.423828" xlink:href="#DejaVuSans-62"/>
      <use x="400.900391" xlink:href="#DejaVuSans-61"/>
      <use x="462.179688" xlink:href="#DejaVuSans-73"/>
      <use x="514.279297" xlink:href="#DejaVuSans-65"/>
      <use x="575.802734" xlink:href="#DejaVuSans-6c"/>
      <use x="603.585938" xlink:href="#DejaVuSans-69"/>
      <use x="631.369141" xlink:href="#DejaVuSans-6e"/>
      <use x="694.748047" xlink:href="#DejaVuSans-65"/>
     </g>
    </g>
    <g id="line2d_29">
     <path d="M 66.6 261.900312 
L 86.6 261.900312 
" style="fill:none;stroke:#a5b9cf;stroke-linecap:square;stroke-width:2;"/>
    </g>
    <g id="line2d_30"/>
    <g id="text_20">
     <!-- default-cfg -->
     <g transform="translate(94.6 265.400312)scale(0.1 -0.1)">
      <defs>
       <path d="M 2375 4863 
L 2375 4384 
L 1825 4384 
Q 1516 4384 1395 4259 
Q 1275 4134 1275 3809 
L 1275 3500 
L 2222 3500 
L 2222 3053 
L 1275 3053 
L 1275 0 
L 697 0 
L 697 3053 
L 147 3053 
L 147 3500 
L 697 3500 
L 697 3744 
Q 697 4328 969 4595 
Q 1241 4863 1831 4863 
L 2375 4863 
z
" id="DejaVuSans-66" transform="scale(0.015625)"/>
       <path d="M 544 1381 
L 544 3500 
L 1119 3500 
L 1119 1403 
Q 1119 906 1312 657 
Q 1506 409 1894 409 
Q 2359 409 2629 706 
Q 2900 1003 2900 1516 
L 2900 3500 
L 3475 3500 
L 3475 0 
L 2900 0 
L 2900 538 
Q 2691 219 2414 64 
Q 2138 -91 1772 -91 
Q 1169 -91 856 284 
Q 544 659 544 1381 
z
M 1991 3584 
L 1991 3584 
z
" id="DejaVuSans-75" transform="scale(0.015625)"/>
       <path d="M 2906 1791 
Q 2906 2416 2648 2759 
Q 2391 3103 1925 3103 
Q 1463 3103 1205 2759 
Q 947 2416 947 1791 
Q 947 1169 1205 825 
Q 1463 481 1925 481 
Q 2391 481 2648 825 
Q 2906 1169 2906 1791 
z
M 3481 434 
Q 3481 -459 3084 -895 
Q 2688 -1331 1869 -1331 
Q 1566 -1331 1297 -1286 
Q 1028 -1241 775 -1147 
L 775 -588 
Q 1028 -725 1275 -790 
Q 1522 -856 1778 -856 
Q 2344 -856 2625 -561 
Q 2906 -266 2906 331 
L 2906 616 
Q 2728 306 2450 153 
Q 2172 0 1784 0 
Q 1141 0 747 490 
Q 353 981 353 1791 
Q 353 2603 747 3093 
Q 1141 3584 1784 3584 
Q 2172 3584 2450 3431 
Q 2728 3278 2906 2969 
L 2906 3500 
L 3481 3500 
L 3481 434 
z
" id="DejaVuSans-67" transform="scale(0.015625)"/>
      </defs>
      <use xlink:href="#DejaVuSans-64"/>
      <use x="63.476562" xlink:href="#DejaVuSans-65"/>
      <use x="125" xlink:href="#DejaVuSans-66"/>
      <use x="160.205078" xlink:href="#DejaVuSans-61"/>
      <use x="221.484375" xlink:href="#DejaVuSans-75"/>
      <use x="284.863281" xlink:href="#DejaVuSans-6c"/>
      <use x="312.646484" xlink:href="#DejaVuSans-74"/>
      <use x="351.855469" xlink:href="#DejaVuSans-2d"/>
      <use x="387.939453" xlink:href="#DejaVuSans-63"/>
      <use x="442.919922" xlink:href="#DejaVuSans-66"/>
      <use x="478.125" xlink:href="#DejaVuSans-67"/>
     </g>
    </g>
   </g>
  </g>
 </g>
 <defs>
  <clipPath id="p5cbe1db08d">
   <rect height="235.008" width="357.12" x="57.6" y="41.472"/>
  </clipPath>
 </defs>
</svg>
