<?xml version="1.0" encoding="utf-8" standalone="no"?>
<!DOCTYPE svg PUBLIC "-//W3C//DTD SVG 1.1//EN"
  "http://www.w3.org/Graphics/SVG/1.1/DTD/svg11.dtd">
<svg height="345.6pt" version="1.1" viewBox="0 0 460.8 345.6" width="460.8pt" xmlns="http://www.w3.org/2000/svg" xmlns:xlink="http://www.w3.org/1999/xlink">
 <metadata>
  <rdf:RDF xmlns:cc="http://creativecommons.org/ns#" xmlns:dc="http://purl.org/dc/elements/1.1/" xmlns:rdf="http://www.w3.org/1999/02/22-rdf-syntax-ns#">
   <cc:Work>
    <dc:type rdf:resource="http://purl.org/dc/dcmitype/StillImage"/>
    <dc:date>2022-05-25T10:01:52.042587</dc:date>
    <dc:format>image/svg+xml</dc:format>
    <dc:creator>
     <cc:Agent>
      <dc:title>Matplotlib v3.4.3, https://matplotlib.org/</dc:title>
     </cc:Agent>
    </dc:creator>
   </cc:Work>
  </rdf:RDF>
 </metadata>
 <defs>
  <style type="text/css">*{stroke-linecap:butt;stroke-linejoin:round;}</style>
 </defs>
 <g id="figure_1">
  <g id="patch_1">
   <path d="M 0 345.6 
L 460.8 345.6 
L 460.8 0 
L 0 0 
z
" style="fill:#ffffff;"/>
  </g>
  <g id="axes_1">
   <g id="patch_2">
    <path d="M 57.6 276.48 
L 414.72 276.48 
L 414.72 41.472 
L 57.6 41.472 
z
" style="fill:#ffffff;"/>
   </g>
   <g id="matplotlib.axis_1">
    <g id="xtick_1">
     <g id="line2d_1">
      <defs>
       <path d="M 0 0 
L 0 3.5 
" id="mbf0ca99e90" style="stroke:#000000;stroke-width:0.8;"/>
      </defs>
      <g>
       <use style="stroke:#000000;stroke-width:0.8;" x="96.402295" xlink:href="#mbf0ca99e90" y="276.48"/>
      </g>
     </g>
     <g id="text_1">
      <!-- 2021-12 -->
      <g transform="translate(59.177474 310.951846)rotate(-30)scale(0.1 -0.1)">
       <defs>
        <path d="M 1228 531 
L 3431 531 
L 3431 0 
L 469 0 
L 469 531 
Q 828 903 1448 1529 
Q 2069 2156 2228 2338 
Q 2531 2678 2651 2914 
Q 2772 3150 2772 3378 
Q 2772 3750 2511 3984 
Q 2250 4219 1831 4219 
Q 1534 4219 1204 4116 
Q 875 4013 500 3803 
L 500 4441 
Q 881 4594 1212 4672 
Q 1544 4750 1819 4750 
Q 2544 4750 2975 4387 
Q 3406 4025 3406 3419 
Q 3406 3131 3298 2873 
Q 3191 2616 2906 2266 
Q 2828 2175 2409 1742 
Q 1991 1309 1228 531 
z
" id="DejaVuSans-32" transform="scale(0.015625)"/>
        <path d="M 2034 4250 
Q 1547 4250 1301 3770 
Q 1056 3291 1056 2328 
Q 1056 1369 1301 889 
Q 1547 409 2034 409 
Q 2525 409 2770 889 
Q 3016 1369 3016 2328 
Q 3016 3291 2770 3770 
Q 2525 4250 2034 4250 
z
M 2034 4750 
Q 2819 4750 3233 4129 
Q 3647 3509 3647 2328 
Q 3647 1150 3233 529 
Q 2819 -91 2034 -91 
Q 1250 -91 836 529 
Q 422 1150 422 2328 
Q 422 3509 836 4129 
Q 1250 4750 2034 4750 
z
" id="DejaVuSans-30" transform="scale(0.015625)"/>
        <path d="M 794 531 
L 1825 531 
L 1825 4091 
L 703 3866 
L 703 4441 
L 1819 4666 
L 2450 4666 
L 2450 531 
L 3481 531 
L 3481 0 
L 794 0 
L 794 531 
z
" id="DejaVuSans-31" transform="scale(0.015625)"/>
        <path d="M 313 2009 
L 1997 2009 
L 1997 1497 
L 313 1497 
L 313 2009 
z
" id="DejaVuSans-2d" transform="scale(0.015625)"/>
       </defs>
       <use xlink:href="#DejaVuSans-32"/>
       <use x="63.623047" xlink:href="#DejaVuSans-30"/>
       <use x="127.246094" xlink:href="#DejaVuSans-32"/>
       <use x="190.869141" xlink:href="#DejaVuSans-31"/>
       <use x="254.492188" xlink:href="#DejaVuSans-2d"/>
       <use x="290.576172" xlink:href="#DejaVuSans-31"/>
       <use x="354.199219" xlink:href="#DejaVuSans-32"/>
      </g>
     </g>
    </g>
    <g id="xtick_2">
     <g id="line2d_2">
      <g>
       <use style="stroke:#000000;stroke-width:0.8;" x="150.222032" xlink:href="#mbf0ca99e90" y="276.48"/>
      </g>
     </g>
     <g id="text_2">
      <!-- 2022-01 -->
      <g transform="translate(112.997211 310.951846)rotate(-30)scale(0.1 -0.1)">
       <use xlink:href="#DejaVuSans-32"/>
       <use x="63.623047" xlink:href="#DejaVuSans-30"/>
       <use x="127.246094" xlink:href="#DejaVuSans-32"/>
       <use x="190.869141" xlink:href="#DejaVuSans-32"/>
       <use x="254.492188" xlink:href="#DejaVuSans-2d"/>
       <use x="290.576172" xlink:href="#DejaVuSans-30"/>
       <use x="354.199219" xlink:href="#DejaVuSans-31"/>
      </g>
     </g>
    </g>
    <g id="xtick_3">
     <g id="line2d_3">
      <g>
       <use style="stroke:#000000;stroke-width:0.8;" x="204.04177" xlink:href="#mbf0ca99e90" y="276.48"/>
      </g>
     </g>
     <g id="text_3">
      <!-- 2022-02 -->
      <g transform="translate(166.816949 310.951846)rotate(-30)scale(0.1 -0.1)">
       <use xlink:href="#DejaVuSans-32"/>
       <use x="63.623047" xlink:href="#DejaVuSans-30"/>
       <use x="127.246094" xlink:href="#DejaVuSans-32"/>
       <use x="190.869141" xlink:href="#DejaVuSans-32"/>
       <use x="254.492188" xlink:href="#DejaVuSans-2d"/>
       <use x="290.576172" xlink:href="#DejaVuSans-30"/>
       <use x="354.199219" xlink:href="#DejaVuSans-32"/>
      </g>
     </g>
    </g>
    <g id="xtick_4">
     <g id="line2d_4">
      <g>
       <use style="stroke:#000000;stroke-width:0.8;" x="252.653145" xlink:href="#mbf0ca99e90" y="276.48"/>
      </g>
     </g>
     <g id="text_4">
      <!-- 2022-03 -->
      <g transform="translate(215.428325 310.951846)rotate(-30)scale(0.1 -0.1)">
       <defs>
        <path d="M 2597 2516 
Q 3050 2419 3304 2112 
Q 3559 1806 3559 1356 
Q 3559 666 3084 287 
Q 2609 -91 1734 -91 
Q 1441 -91 1130 -33 
Q 819 25 488 141 
L 488 750 
Q 750 597 1062 519 
Q 1375 441 1716 441 
Q 2309 441 2620 675 
Q 2931 909 2931 1356 
Q 2931 1769 2642 2001 
Q 2353 2234 1838 2234 
L 1294 2234 
L 1294 2753 
L 1863 2753 
Q 2328 2753 2575 2939 
Q 2822 3125 2822 3475 
Q 2822 3834 2567 4026 
Q 2313 4219 1838 4219 
Q 1578 4219 1281 4162 
Q 984 4106 628 3988 
L 628 4550 
Q 988 4650 1302 4700 
Q 1616 4750 1894 4750 
Q 2613 4750 3031 4423 
Q 3450 4097 3450 3541 
Q 3450 3153 3228 2886 
Q 3006 2619 2597 2516 
z
" id="DejaVuSans-33" transform="scale(0.015625)"/>
       </defs>
       <use xlink:href="#DejaVuSans-32"/>
       <use x="63.623047" xlink:href="#DejaVuSans-30"/>
       <use x="127.246094" xlink:href="#DejaVuSans-32"/>
       <use x="190.869141" xlink:href="#DejaVuSans-32"/>
       <use x="254.492188" xlink:href="#DejaVuSans-2d"/>
       <use x="290.576172" xlink:href="#DejaVuSans-30"/>
       <use x="354.199219" xlink:href="#DejaVuSans-33"/>
      </g>
     </g>
    </g>
    <g id="xtick_5">
     <g id="line2d_5">
      <g>
       <use style="stroke:#000000;stroke-width:0.8;" x="306.472883" xlink:href="#mbf0ca99e90" y="276.48"/>
      </g>
     </g>
     <g id="text_5">
      <!-- 2022-04 -->
      <g transform="translate(269.248062 310.951846)rotate(-30)scale(0.1 -0.1)">
       <defs>
        <path d="M 2419 4116 
L 825 1625 
L 2419 1625 
L 2419 4116 
z
M 2253 4666 
L 3047 4666 
L 3047 1625 
L 3713 1625 
L 3713 1100 
L 3047 1100 
L 3047 0 
L 2419 0 
L 2419 1100 
L 313 1100 
L 313 1709 
L 2253 4666 
z
" id="DejaVuSans-34" transform="scale(0.015625)"/>
       </defs>
       <use xlink:href="#DejaVuSans-32"/>
       <use x="63.623047" xlink:href="#DejaVuSans-30"/>
       <use x="127.246094" xlink:href="#DejaVuSans-32"/>
       <use x="190.869141" xlink:href="#DejaVuSans-32"/>
       <use x="254.492188" xlink:href="#DejaVuSans-2d"/>
       <use x="290.576172" xlink:href="#DejaVuSans-30"/>
       <use x="354.199219" xlink:href="#DejaVuSans-34"/>
      </g>
     </g>
    </g>
    <g id="xtick_6">
     <g id="line2d_6">
      <g>
       <use style="stroke:#000000;stroke-width:0.8;" x="358.5565" xlink:href="#mbf0ca99e90" y="276.48"/>
      </g>
     </g>
     <g id="text_6">
      <!-- 2022-05 -->
      <g transform="translate(321.331679 310.951846)rotate(-30)scale(0.1 -0.1)">
       <defs>
        <path d="M 691 4666 
L 3169 4666 
L 3169 4134 
L 1269 4134 
L 1269 2991 
Q 1406 3038 1543 3061 
Q 1681 3084 1819 3084 
Q 2600 3084 3056 2656 
Q 3513 2228 3513 1497 
Q 3513 744 3044 326 
Q 2575 -91 1722 -91 
Q 1428 -91 1123 -41 
Q 819 9 494 109 
L 494 744 
Q 775 591 1075 516 
Q 1375 441 1709 441 
Q 2250 441 2565 725 
Q 2881 1009 2881 1497 
Q 2881 1984 2565 2268 
Q 2250 2553 1709 2553 
Q 1456 2553 1204 2497 
Q 953 2441 691 2322 
L 691 4666 
z
" id="DejaVuSans-35" transform="scale(0.015625)"/>
       </defs>
       <use xlink:href="#DejaVuSans-32"/>
       <use x="63.623047" xlink:href="#DejaVuSans-30"/>
       <use x="127.246094" xlink:href="#DejaVuSans-32"/>
       <use x="190.869141" xlink:href="#DejaVuSans-32"/>
       <use x="254.492188" xlink:href="#DejaVuSans-2d"/>
       <use x="290.576172" xlink:href="#DejaVuSans-30"/>
       <use x="354.199219" xlink:href="#DejaVuSans-35"/>
      </g>
     </g>
    </g>
    <g id="xtick_7">
     <g id="line2d_7">
      <g>
       <use style="stroke:#000000;stroke-width:0.8;" x="412.376237" xlink:href="#mbf0ca99e90" y="276.48"/>
      </g>
     </g>
     <g id="text_7">
      <!-- 2022-06 -->
      <g transform="translate(375.151416 310.951846)rotate(-30)scale(0.1 -0.1)">
       <defs>
        <path d="M 2113 2584 
Q 1688 2584 1439 2293 
Q 1191 2003 1191 1497 
Q 1191 994 1439 701 
Q 1688 409 2113 409 
Q 2538 409 2786 701 
Q 3034 994 3034 1497 
Q 3034 2003 2786 2293 
Q 2538 2584 2113 2584 
z
M 3366 4563 
L 3366 3988 
Q 3128 4100 2886 4159 
Q 2644 4219 2406 4219 
Q 1781 4219 1451 3797 
Q 1122 3375 1075 2522 
Q 1259 2794 1537 2939 
Q 1816 3084 2150 3084 
Q 2853 3084 3261 2657 
Q 3669 2231 3669 1497 
Q 3669 778 3244 343 
Q 2819 -91 2113 -91 
Q 1303 -91 875 529 
Q 447 1150 447 2328 
Q 447 3434 972 4092 
Q 1497 4750 2381 4750 
Q 2619 4750 2861 4703 
Q 3103 4656 3366 4563 
z
" id="DejaVuSans-36" transform="scale(0.015625)"/>
       </defs>
       <use xlink:href="#DejaVuSans-32"/>
       <use x="63.623047" xlink:href="#DejaVuSans-30"/>
       <use x="127.246094" xlink:href="#DejaVuSans-32"/>
       <use x="190.869141" xlink:href="#DejaVuSans-32"/>
       <use x="254.492188" xlink:href="#DejaVuSans-2d"/>
       <use x="290.576172" xlink:href="#DejaVuSans-30"/>
       <use x="354.199219" xlink:href="#DejaVuSans-36"/>
      </g>
     </g>
    </g>
    <g id="text_8">
     <!-- date -->
     <g transform="translate(224.885 324.351346)scale(0.1 -0.1)">
      <defs>
       <path d="M 2906 2969 
L 2906 4863 
L 3481 4863 
L 3481 0 
L 2906 0 
L 2906 525 
Q 2725 213 2448 61 
Q 2172 -91 1784 -91 
Q 1150 -91 751 415 
Q 353 922 353 1747 
Q 353 2572 751 3078 
Q 1150 3584 1784 3584 
Q 2172 3584 2448 3432 
Q 2725 3281 2906 2969 
z
M 947 1747 
Q 947 1113 1208 752 
Q 1469 391 1925 391 
Q 2381 391 2643 752 
Q 2906 1113 2906 1747 
Q 2906 2381 2643 2742 
Q 2381 3103 1925 3103 
Q 1469 3103 1208 2742 
Q 947 2381 947 1747 
z
" id="DejaVuSans-64" transform="scale(0.015625)"/>
       <path d="M 2194 1759 
Q 1497 1759 1228 1600 
Q 959 1441 959 1056 
Q 959 750 1161 570 
Q 1363 391 1709 391 
Q 2188 391 2477 730 
Q 2766 1069 2766 1631 
L 2766 1759 
L 2194 1759 
z
M 3341 1997 
L 3341 0 
L 2766 0 
L 2766 531 
Q 2569 213 2275 61 
Q 1981 -91 1556 -91 
Q 1019 -91 701 211 
Q 384 513 384 1019 
Q 384 1609 779 1909 
Q 1175 2209 1959 2209 
L 2766 2209 
L 2766 2266 
Q 2766 2663 2505 2880 
Q 2244 3097 1772 3097 
Q 1472 3097 1187 3025 
Q 903 2953 641 2809 
L 641 3341 
Q 956 3463 1253 3523 
Q 1550 3584 1831 3584 
Q 2591 3584 2966 3190 
Q 3341 2797 3341 1997 
z
" id="DejaVuSans-61" transform="scale(0.015625)"/>
       <path d="M 1172 4494 
L 1172 3500 
L 2356 3500 
L 2356 3053 
L 1172 3053 
L 1172 1153 
Q 1172 725 1289 603 
Q 1406 481 1766 481 
L 2356 481 
L 2356 0 
L 1766 0 
Q 1100 0 847 248 
Q 594 497 594 1153 
L 594 3053 
L 172 3053 
L 172 3500 
L 594 3500 
L 594 4494 
L 1172 4494 
z
" id="DejaVuSans-74" transform="scale(0.015625)"/>
       <path d="M 3597 1894 
L 3597 1613 
L 953 1613 
Q 991 1019 1311 708 
Q 1631 397 2203 397 
Q 2534 397 2845 478 
Q 3156 559 3463 722 
L 3463 178 
Q 3153 47 2828 -22 
Q 2503 -91 2169 -91 
Q 1331 -91 842 396 
Q 353 884 353 1716 
Q 353 2575 817 3079 
Q 1281 3584 2069 3584 
Q 2775 3584 3186 3129 
Q 3597 2675 3597 1894 
z
M 3022 2063 
Q 3016 2534 2758 2815 
Q 2500 3097 2075 3097 
Q 1594 3097 1305 2825 
Q 1016 2553 972 2059 
L 3022 2063 
z
" id="DejaVuSans-65" transform="scale(0.015625)"/>
      </defs>
      <use xlink:href="#DejaVuSans-64"/>
      <use x="63.476562" xlink:href="#DejaVuSans-61"/>
      <use x="124.755859" xlink:href="#DejaVuSans-74"/>
      <use x="163.964844" xlink:href="#DejaVuSans-65"/>
     </g>
    </g>
   </g>
   <g id="matplotlib.axis_2">
    <g id="ytick_1">
     <g id="line2d_8">
      <defs>
       <path d="M 0 0 
L -3.5 0 
" id="m3dd35bc228" style="stroke:#000000;stroke-width:0.8;"/>
      </defs>
      <g>
       <use style="stroke:#000000;stroke-width:0.8;" x="57.6" xlink:href="#m3dd35bc228" y="258.269519"/>
      </g>
     </g>
     <g id="text_9">
      <!-- 85000 -->
      <g transform="translate(18.7875 262.068737)scale(0.1 -0.1)">
       <defs>
        <path d="M 2034 2216 
Q 1584 2216 1326 1975 
Q 1069 1734 1069 1313 
Q 1069 891 1326 650 
Q 1584 409 2034 409 
Q 2484 409 2743 651 
Q 3003 894 3003 1313 
Q 3003 1734 2745 1975 
Q 2488 2216 2034 2216 
z
M 1403 2484 
Q 997 2584 770 2862 
Q 544 3141 544 3541 
Q 544 4100 942 4425 
Q 1341 4750 2034 4750 
Q 2731 4750 3128 4425 
Q 3525 4100 3525 3541 
Q 3525 3141 3298 2862 
Q 3072 2584 2669 2484 
Q 3125 2378 3379 2068 
Q 3634 1759 3634 1313 
Q 3634 634 3220 271 
Q 2806 -91 2034 -91 
Q 1263 -91 848 271 
Q 434 634 434 1313 
Q 434 1759 690 2068 
Q 947 2378 1403 2484 
z
M 1172 3481 
Q 1172 3119 1398 2916 
Q 1625 2713 2034 2713 
Q 2441 2713 2670 2916 
Q 2900 3119 2900 3481 
Q 2900 3844 2670 4047 
Q 2441 4250 2034 4250 
Q 1625 4250 1398 4047 
Q 1172 3844 1172 3481 
z
" id="DejaVuSans-38" transform="scale(0.015625)"/>
       </defs>
       <use xlink:href="#DejaVuSans-38"/>
       <use x="63.623047" xlink:href="#DejaVuSans-35"/>
       <use x="127.246094" xlink:href="#DejaVuSans-30"/>
       <use x="190.869141" xlink:href="#DejaVuSans-30"/>
       <use x="254.492188" xlink:href="#DejaVuSans-30"/>
      </g>
     </g>
    </g>
    <g id="ytick_2">
     <g id="line2d_9">
      <g>
       <use style="stroke:#000000;stroke-width:0.8;" x="57.6" xlink:href="#m3dd35bc228" y="212.329589"/>
      </g>
     </g>
     <g id="text_10">
      <!-- 90000 -->
      <g transform="translate(18.7875 216.128808)scale(0.1 -0.1)">
       <defs>
        <path d="M 703 97 
L 703 672 
Q 941 559 1184 500 
Q 1428 441 1663 441 
Q 2288 441 2617 861 
Q 2947 1281 2994 2138 
Q 2813 1869 2534 1725 
Q 2256 1581 1919 1581 
Q 1219 1581 811 2004 
Q 403 2428 403 3163 
Q 403 3881 828 4315 
Q 1253 4750 1959 4750 
Q 2769 4750 3195 4129 
Q 3622 3509 3622 2328 
Q 3622 1225 3098 567 
Q 2575 -91 1691 -91 
Q 1453 -91 1209 -44 
Q 966 3 703 97 
z
M 1959 2075 
Q 2384 2075 2632 2365 
Q 2881 2656 2881 3163 
Q 2881 3666 2632 3958 
Q 2384 4250 1959 4250 
Q 1534 4250 1286 3958 
Q 1038 3666 1038 3163 
Q 1038 2656 1286 2365 
Q 1534 2075 1959 2075 
z
" id="DejaVuSans-39" transform="scale(0.015625)"/>
       </defs>
       <use xlink:href="#DejaVuSans-39"/>
       <use x="63.623047" xlink:href="#DejaVuSans-30"/>
       <use x="127.246094" xlink:href="#DejaVuSans-30"/>
       <use x="190.869141" xlink:href="#DejaVuSans-30"/>
       <use x="254.492188" xlink:href="#DejaVuSans-30"/>
      </g>
     </g>
    </g>
    <g id="ytick_3">
     <g id="line2d_10">
      <g>
       <use style="stroke:#000000;stroke-width:0.8;" x="57.6" xlink:href="#m3dd35bc228" y="166.38966"/>
      </g>
     </g>
     <g id="text_11">
      <!-- 95000 -->
      <g transform="translate(18.7875 170.188879)scale(0.1 -0.1)">
       <use xlink:href="#DejaVuSans-39"/>
       <use x="63.623047" xlink:href="#DejaVuSans-35"/>
       <use x="127.246094" xlink:href="#DejaVuSans-30"/>
       <use x="190.869141" xlink:href="#DejaVuSans-30"/>
       <use x="254.492188" xlink:href="#DejaVuSans-30"/>
      </g>
     </g>
    </g>
    <g id="ytick_4">
     <g id="line2d_11">
      <g>
       <use style="stroke:#000000;stroke-width:0.8;" x="57.6" xlink:href="#m3dd35bc228" y="120.449731"/>
      </g>
     </g>
     <g id="text_12">
      <!-- 100000 -->
      <g transform="translate(12.425 124.24895)scale(0.1 -0.1)">
       <use xlink:href="#DejaVuSans-31"/>
       <use x="63.623047" xlink:href="#DejaVuSans-30"/>
       <use x="127.246094" xlink:href="#DejaVuSans-30"/>
       <use x="190.869141" xlink:href="#DejaVuSans-30"/>
       <use x="254.492188" xlink:href="#DejaVuSans-30"/>
       <use x="318.115234" xlink:href="#DejaVuSans-30"/>
      </g>
     </g>
    </g>
    <g id="ytick_5">
     <g id="line2d_12">
      <g>
       <use style="stroke:#000000;stroke-width:0.8;" x="57.6" xlink:href="#m3dd35bc228" y="74.509802"/>
      </g>
     </g>
     <g id="text_13">
      <!-- 105000 -->
      <g transform="translate(12.425 78.309021)scale(0.1 -0.1)">
       <use xlink:href="#DejaVuSans-31"/>
       <use x="63.623047" xlink:href="#DejaVuSans-30"/>
       <use x="127.246094" xlink:href="#DejaVuSans-35"/>
       <use x="190.869141" xlink:href="#DejaVuSans-30"/>
       <use x="254.492188" xlink:href="#DejaVuSans-30"/>
       <use x="318.115234" xlink:href="#DejaVuSans-30"/>
      </g>
     </g>
    </g>
   </g>
   <g id="line2d_13">
    <path clip-path="url(#p0802916876)" d="M 73.832727 123.129125 
L 75.568848 126.216246 
L 80.77721 122.007119 
L 82.51333 113.898294 
L 84.249451 113.251884 
L 87.721692 113.391641 
L 92.930053 126.439213 
L 94.666174 145.816618 
L 96.402295 156.189308 
L 98.138415 144.472577 
L 99.874536 150.873214 
L 105.082897 137.286902 
L 106.819018 121.275874 
L 108.555139 115.841902 
L 110.291259 116.533036 
L 112.02738 110.513789 
L 117.235741 119.679095 
L 118.971862 118.944724 
L 120.707982 111.332479 
L 122.444103 111.516799 
L 124.180224 122.768386 
L 129.388585 133.480016 
L 131.124706 116.060662 
L 132.860826 111.021538 
L 134.596947 102.268927 
L 141.541429 89.789594 
L 143.27755 90.504186 
L 145.01367 89.716624 
L 146.749791 90.782393 
L 148.485912 95.254553 
L 153.694273 85.512909 
L 155.430394 75.73127 
L 157.166514 96.864035 
L 158.902635 92.71394 
L 160.638755 88.221966 
L 165.847117 89.066032 
L 167.583238 83.138411 
L 169.319358 82.79667 
L 171.055479 90.306182 
L 172.791599 90.222881 
L 179.736082 111.154945 
L 183.208323 129.187811 
L 184.944443 148.416295 
L 190.152805 148.640106 
L 191.888926 147.336383 
L 193.625046 149.257752 
L 195.361167 156.778626 
L 197.097287 135.153917 
L 202.305649 120.688559 
L 204.04177 109.321743 
L 205.77789 94.568182 
L 207.514011 140.977132 
L 209.250131 134.512244 
L 214.458493 143.1376 
L 216.194614 139.425597 
L 217.930734 127.976677 
L 219.666855 143.537097 
L 221.402975 162.896447 
L 226.611337 170.991153 
L 228.347457 160.675792 
L 230.083578 163.939744 
L 231.819699 181.715141 
L 233.555819 186.104602 
L 240.500301 194.541914 
L 242.236422 205.965716 
L 243.972543 198.574813 
L 245.708663 178.768681 
L 250.917025 186.877877 
L 252.653145 203.994279 
L 254.389266 184.570281 
L 256.125386 186.628106 
L 257.861507 198.459646 
L 263.069869 229.762015 
L 264.805989 232.516571 
L 266.54211 201.820738 
L 270.014351 223.714649 
L 275.222713 224.271382 
L 276.958833 210.255734 
L 278.694954 188.536636 
L 280.431074 180.266033 
L 282.167195 169.340161 
L 287.375557 170.871969 
L 289.111677 155.972484 
L 290.847798 164.727682 
L 292.583918 150.953259 
L 294.320039 142.225418 
L 299.528401 140.180297 
L 301.264521 134.676695 
L 303.000642 135.971848 
L 304.736762 153.148116 
L 306.472883 148.64099 
L 311.681245 140.91682 
L 313.417365 149.347812 
L 315.153486 162.146195 
L 316.889606 162.730171 
L 318.625727 162.055554 
L 323.834088 176.55391 
L 325.570209 180.999685 
L 327.30633 178.760004 
L 329.04245 191.126213 
L 335.986932 186.056175 
L 337.723053 173.060619 
L 339.459174 172.891725 
L 341.195294 187.506491 
L 342.931415 211.535276 
L 348.139776 208.534327 
L 349.875897 222.892882 
L 351.612018 227.762532 
L 353.348138 192.332939 
L 355.084259 217.827857 
L 360.29262 209.308721 
L 362.028741 202.840615 
L 363.764861 166.735759 
L 365.500982 199.603716 
L 367.237103 199.234275 
L 372.445464 223.430828 
L 374.181585 229.52673 
L 375.917705 239.929353 
L 377.653826 243.586797 
L 379.389947 229.55122 
L 384.598308 231.802777 
L 386.334429 215.034891 
L 388.070549 247.781829 
L 389.80667 258.227741 
L 391.54279 263.759702 
L 396.751152 243.117139 
L 398.487273 261.59941 
L 398.487273 261.59941 
" style="fill:none;stroke:#0000ff;stroke-linecap:square;stroke-opacity:0.9;stroke-width:2;"/>
   </g>
   <g id="line2d_14">
    <path clip-path="url(#p0802916876)" d="M 73.832727 123.129125 
L 75.568848 126.174439 
L 80.77721 121.962672 
L 82.51333 113.722713 
L 84.249451 113.426335 
L 87.721692 136.958738 
L 92.930053 126.06018 
L 94.666174 145.732727 
L 96.402295 156.318255 
L 98.138415 144.53143 
L 99.874536 151.052724 
L 105.082897 137.58439 
L 106.819018 121.554346 
L 108.555139 115.878702 
L 110.291259 116.908798 
L 112.02738 110.645709 
L 117.235741 120.090415 
L 118.971862 119.707457 
L 120.707982 112.227945 
L 122.444103 111.894302 
L 124.180224 123.251459 
L 129.388585 133.242468 
L 131.124706 116.173805 
L 132.860826 110.646874 
L 134.596947 102.593884 
L 141.541429 90.328061 
L 143.27755 91.422679 
L 145.01367 90.198799 
L 146.749791 91.789757 
L 148.485912 95.711986 
L 153.694273 85.249499 
L 155.430394 76.218748 
L 157.166514 96.486066 
L 158.902635 92.885731 
L 160.638755 88.73656 
L 165.847117 89.170842 
L 167.583238 83.933938 
L 169.319358 83.929314 
L 171.055479 90.65396 
L 172.791599 90.787265 
L 179.736082 112.021647 
L 183.208323 129.681557 
L 184.944443 148.740136 
L 190.152805 149.304767 
L 191.888926 146.049646 
L 193.625046 148.043031 
L 195.361167 156.199708 
L 197.097287 135.164788 
L 202.305649 121.169104 
L 204.04177 110.078477 
L 205.77789 95.614557 
L 207.514011 138.886374 
L 209.250131 132.794977 
L 214.458493 138.889577 
L 216.194614 133.444438 
L 217.930734 124.642364 
L 219.666855 140.463745 
L 221.402975 158.481466 
L 226.611337 167.288941 
L 228.347457 157.396985 
L 230.083578 159.16405 
L 231.819699 176.664908 
L 233.555819 180.836534 
L 240.500301 188.647081 
L 242.236422 200.673724 
L 243.972543 195.328529 
L 245.708663 175.083796 
L 250.917025 183.439796 
L 252.653145 201.35009 
L 254.389266 180.832395 
L 256.125386 182.910494 
L 257.861507 194.74784 
L 263.069869 224.006575 
L 264.805989 227.6496 
L 266.54211 198.040096 
L 268.27823 208.954339 
L 270.014351 218.290925 
L 275.222713 219.625719 
L 276.958833 205.296752 
L 278.694954 186.449644 
L 282.167195 168.870267 
L 287.375557 168.999474 
L 289.111677 154.965211 
L 290.847798 163.248198 
L 292.583918 150.217097 
L 294.320039 140.404656 
L 299.528401 138.924204 
L 301.264521 134.557962 
L 303.000642 134.981986 
L 304.736762 152.261403 
L 306.472883 148.551716 
L 311.681245 142.159911 
L 313.417365 150.886619 
L 315.153486 161.946342 
L 318.625727 162.057186 
L 325.570209 180.055322 
L 327.30633 176.614399 
L 329.04245 189.160277 
L 335.986932 183.982113 
L 337.723053 171.695154 
L 339.459174 166.641952 
L 341.195294 177.441914 
L 342.931415 202.33937 
L 348.139776 200.340015 
L 349.875897 214.504237 
L 351.612018 216.765874 
L 353.348138 189.036063 
L 355.084259 214.767626 
L 360.29262 209.352867 
L 362.028741 203.686577 
L 363.764861 167.636905 
L 365.500982 197.767898 
L 367.237103 195.85174 
L 374.181585 227.650185 
L 375.917705 236.594243 
L 377.653826 241.13371 
L 379.389947 227.996041 
L 384.598308 229.806701 
L 386.334429 212.89093 
L 388.070549 245.509344 
L 389.80667 255.516244 
L 391.54279 263.374074 
L 396.751152 242.364319 
L 398.487273 252.990139 
L 398.487273 252.990139 
" style="fill:none;stroke:#ff0000;stroke-linecap:square;stroke-opacity:0.9;stroke-width:2;"/>
   </g>
   <g id="line2d_15">
    <path clip-path="url(#p0802916876)" d="M 73.832727 123.129125 
L 75.568848 125.816345 
L 80.77721 121.841876 
L 82.51333 114.239293 
L 84.249451 113.633912 
L 87.721692 136.025677 
L 92.930053 126.016769 
L 94.666174 144.830983 
L 96.402295 156.249144 
L 98.138415 144.32108 
L 99.874536 150.600179 
L 105.082897 136.516874 
L 106.819018 120.93323 
L 108.555139 115.822244 
L 110.291259 115.998943 
L 112.02738 110.627037 
L 117.235741 120.093329 
L 118.971862 119.281974 
L 120.707982 112.378232 
L 122.444103 111.338501 
L 124.180224 122.480315 
L 129.388585 133.03831 
L 131.124706 115.895742 
L 132.860826 110.326453 
L 134.596947 102.538419 
L 141.541429 90.443221 
L 143.27755 90.310182 
L 145.01367 89.554029 
L 146.749791 91.485026 
L 148.485912 95.308271 
L 153.694273 84.701741 
L 155.430394 75.53542 
L 157.166514 97.291281 
L 158.902635 92.545499 
L 160.638755 88.889582 
L 165.847117 89.164237 
L 167.583238 83.464042 
L 169.319358 82.6822 
L 171.055479 90.593847 
L 172.791599 90.492008 
L 179.736082 111.45483 
L 181.472202 119.437197 
L 183.208323 128.640664 
L 184.944443 147.871843 
L 190.152805 148.76518 
L 191.888926 147.112678 
L 193.625046 148.525028 
L 195.361167 156.327517 
L 197.097287 134.528618 
L 202.305649 119.989902 
L 204.04177 109.093612 
L 205.77789 93.36971 
L 207.514011 139.830781 
L 209.250131 134.360988 
L 214.458493 142.817277 
L 216.194614 138.520872 
L 217.930734 127.354836 
L 219.666855 142.797736 
L 221.402975 161.664714 
L 226.611337 169.834278 
L 228.347457 159.456618 
L 230.083578 162.249375 
L 231.819699 180.673554 
L 233.555819 185.659259 
L 240.500301 193.022722 
L 242.236422 205.121244 
L 243.972543 197.406461 
L 245.708663 178.057937 
L 250.917025 184.935716 
L 252.653145 202.372821 
L 254.389266 183.175915 
L 256.125386 185.560855 
L 257.861507 197.42929 
L 263.069869 228.132142 
L 264.805989 231.464624 
L 266.54211 201.213665 
L 270.014351 222.813046 
L 275.222713 223.825937 
L 276.958833 208.738852 
L 278.694954 187.362818 
L 280.431074 178.536317 
L 282.167195 168.224735 
L 287.375557 169.424351 
L 289.111677 154.723897 
L 290.847798 163.769394 
L 292.583918 150.525206 
L 294.320039 140.24576 
L 299.528401 139.11008 
L 301.264521 132.863951 
L 303.000642 134.694606 
L 304.736762 152.555694 
L 306.472883 147.72545 
L 311.681245 140.359688 
L 313.417365 148.295761 
L 315.153486 161.138426 
L 316.889606 161.802357 
L 318.625727 161.917975 
L 323.834088 175.488617 
L 325.570209 180.362742 
L 327.30633 177.976202 
L 329.04245 190.825552 
L 335.986932 185.413711 
L 337.723053 171.985175 
L 339.459174 172.877043 
L 341.195294 187.291276 
L 342.931415 211.597167 
L 348.139776 208.341959 
L 349.875897 222.847758 
L 351.612018 227.710919 
L 353.348138 192.464848 
L 355.084259 217.950254 
L 360.29262 209.956566 
L 362.028741 203.560813 
L 363.764861 166.840492 
L 365.500982 199.47351 
L 367.237103 199.474206 
L 372.445464 223.073628 
L 374.181585 229.089064 
L 375.917705 239.606514 
L 377.653826 243.820086 
L 379.389947 229.915262 
L 384.598308 231.557834 
L 386.334429 216.073649 
L 388.070549 247.549519 
L 389.80667 258.036232 
L 391.54279 264.345069 
L 396.751152 243.460731 
L 398.487273 258.201797 
L 398.487273 258.201797 
" style="fill:none;stroke:#008000;stroke-linecap:square;stroke-opacity:0.9;stroke-width:2;"/>
   </g>
   <g id="line2d_16">
    <path clip-path="url(#p0802916876)" d="M 73.832727 123.129125 
L 75.568848 126.350747 
L 80.77721 122.275789 
L 82.51333 113.878188 
L 84.249451 113.179447 
L 87.721692 136.376297 
L 92.930053 125.968107 
L 94.666174 145.447104 
L 96.402295 156.560844 
L 98.138415 144.510077 
L 99.874536 151.325565 
L 105.082897 136.581654 
L 106.819018 121.88093 
L 108.555139 116.277489 
L 110.291259 116.674496 
L 112.02738 111.388663 
L 117.235741 120.04556 
L 118.971862 119.507447 
L 120.707982 111.959818 
L 122.444103 110.839237 
L 124.180224 122.916435 
L 129.388585 133.241203 
L 131.124706 115.403352 
L 132.860826 110.746615 
L 134.596947 102.210628 
L 141.541429 90.519358 
L 143.27755 90.827522 
L 145.01367 90.484685 
L 146.749791 91.619829 
L 148.485912 95.0284 
L 153.694273 84.951857 
L 155.430394 75.729132 
L 157.166514 97.371872 
L 158.902635 92.755788 
L 160.638755 88.909284 
L 165.847117 89.164578 
L 167.583238 84.198517 
L 169.319358 83.597649 
L 171.055479 91.184475 
L 172.791599 91.093564 
L 179.736082 111.731336 
L 181.472202 119.792717 
L 183.208323 129.129989 
L 184.944443 148.700442 
L 190.152805 148.697491 
L 191.888926 147.322844 
L 193.625046 149.157512 
L 195.361167 156.884507 
L 197.097287 134.884045 
L 202.305649 121.007662 
L 204.04177 109.567775 
L 205.77789 94.578189 
L 207.514011 141.688586 
L 209.250131 135.373222 
L 214.458493 143.253897 
L 216.194614 139.40448 
L 217.930734 128.708322 
L 219.666855 143.702698 
L 221.402975 162.917843 
L 226.611337 170.834611 
L 228.347457 161.167331 
L 230.083578 164.127034 
L 231.819699 181.49278 
L 233.555819 186.805255 
L 240.500301 194.334389 
L 242.236422 206.529625 
L 243.972543 198.30765 
L 245.708663 179.566865 
L 250.917025 186.555504 
L 252.653145 204.137543 
L 254.389266 184.32584 
L 256.125386 186.398269 
L 257.861507 198.856132 
L 263.069869 229.883047 
L 264.805989 231.91538 
L 266.54211 201.892937 
L 270.014351 223.122824 
L 275.222713 224.893624 
L 276.958833 210.352121 
L 278.694954 188.800734 
L 282.167195 169.85691 
L 287.375557 170.48634 
L 289.111677 156.158333 
L 290.847798 165.015609 
L 292.583918 151.074128 
L 294.320039 141.889607 
L 299.528401 139.913322 
L 301.264521 133.730819 
L 303.000642 135.190316 
L 304.736762 153.374195 
L 306.472883 148.794356 
L 311.681245 141.284844 
L 313.417365 149.291816 
L 315.153486 162.231959 
L 316.889606 162.376166 
L 318.625727 162.045954 
L 325.570209 181.249909 
L 327.30633 178.121798 
L 329.04245 191.351344 
L 335.986932 186.732431 
L 337.723053 172.48601 
L 339.459174 173.165578 
L 341.195294 187.405216 
L 342.931415 212.336198 
L 348.139776 208.699568 
L 349.875897 223.797904 
L 351.612018 227.888623 
L 353.348138 192.840519 
L 355.084259 218.341602 
L 360.29262 210.295893 
L 362.028741 203.084683 
L 363.764861 167.591311 
L 365.500982 199.550831 
L 367.237103 198.819859 
L 372.445464 224.03394 
L 374.181585 229.563207 
L 375.917705 239.818056 
L 377.653826 243.602823 
L 379.389947 229.449268 
L 384.598308 231.602143 
L 386.334429 215.927818 
L 388.070549 247.760839 
L 389.80667 258.101222 
L 391.54279 264.400666 
L 396.751152 243.418249 
L 398.487273 258.161992 
L 398.487273 258.161992 
" style="fill:none;stroke:#ec5283;stroke-linecap:square;stroke-width:2;"/>
   </g>
   <g id="line2d_17">
    <path clip-path="url(#p0802916876)" d="M 73.832727 123.129125 
L 75.568848 125.906317 
L 80.77721 122.192123 
L 82.51333 114.189254 
L 84.249451 113.40575 
L 87.721692 135.600109 
L 92.930053 125.705872 
L 94.666174 145.537604 
L 96.402295 155.587884 
L 98.138415 143.783649 
L 99.874536 151.05229 
L 105.082897 136.319856 
L 106.819018 121.6322 
L 108.555139 115.77281 
L 110.291259 116.039198 
L 112.02738 111.373169 
L 117.235741 120.05267 
L 118.971862 118.922467 
L 120.707982 111.619584 
L 122.444103 110.540107 
L 124.180224 122.489968 
L 129.388585 132.653964 
L 131.124706 115.149899 
L 132.860826 110.18908 
L 134.596947 102.206755 
L 141.541429 90.327168 
L 143.27755 90.945604 
L 145.01367 90.427645 
L 146.749791 91.299299 
L 148.485912 95.2871 
L 153.694273 85.291627 
L 155.430394 75.413868 
L 157.166514 96.847607 
L 158.902635 93.095204 
L 160.638755 88.56094 
L 165.847117 89.327749 
L 167.583238 83.117923 
L 169.319358 82.720835 
L 171.055479 90.560229 
L 172.791599 90.430311 
L 179.736082 111.596979 
L 183.208323 128.715092 
L 184.944443 147.646943 
L 190.152805 148.557629 
L 191.888926 147.191519 
L 193.625046 148.77029 
L 195.361167 156.364136 
L 197.097287 134.398962 
L 202.305649 120.398985 
L 204.04177 109.140458 
L 205.77789 93.405446 
L 207.514011 140.547969 
L 209.250131 134.068935 
L 214.458493 142.550885 
L 216.194614 137.960151 
L 217.930734 126.832781 
L 219.666855 142.625087 
L 221.402975 161.636138 
L 226.611337 169.932468 
L 228.347457 159.138626 
L 230.083578 162.002348 
L 231.819699 180.989128 
L 233.555819 185.625697 
L 240.500301 192.810258 
L 242.236422 205.255079 
L 243.972543 196.976828 
L 245.708663 177.28781 
L 250.917025 185.646856 
L 252.653145 202.774336 
L 254.389266 183.302546 
L 256.125386 185.642714 
L 257.861507 197.5686 
L 263.069869 228.219998 
L 264.805989 231.554998 
L 266.54211 200.404436 
L 270.014351 222.630881 
L 275.222713 223.136729 
L 276.958833 209.258979 
L 278.694954 187.230094 
L 280.431074 178.374294 
L 282.167195 168.089658 
L 287.375557 170.01444 
L 289.111677 154.932699 
L 290.847798 163.68852 
L 292.583918 150.194531 
L 294.320039 140.682634 
L 299.528401 138.901033 
L 301.264521 133.592881 
L 303.000642 134.231871 
L 304.736762 152.371449 
L 306.472883 147.83618 
L 311.681245 140.16709 
L 313.417365 148.808044 
L 315.153486 160.710744 
L 316.889606 161.748918 
L 318.625727 161.227613 
L 323.834088 175.209421 
L 325.570209 180.762098 
L 327.30633 177.416959 
L 329.04245 190.563881 
L 335.986932 185.290373 
L 337.723053 171.763607 
L 339.459174 171.999677 
L 341.195294 186.425348 
L 342.931415 211.90648 
L 348.139776 208.061615 
L 349.875897 223.15144 
L 351.612018 227.744474 
L 353.348138 192.028623 
L 355.084259 217.925671 
L 360.29262 209.609999 
L 362.028741 202.967157 
L 363.764861 166.728428 
L 365.500982 200.0436 
L 367.237103 199.369703 
L 372.445464 223.460963 
L 374.181585 228.94568 
L 375.917705 239.901309 
L 377.653826 244.18543 
L 379.389947 229.673789 
L 384.598308 232.049909 
L 386.334429 215.537851 
L 388.070549 247.811584 
L 389.80667 257.772337 
L 391.54279 263.545047 
L 396.751152 243.022978 
L 398.487273 258.164465 
L 398.487273 258.164465 
" style="fill:none;stroke:#00ff00;stroke-linecap:square;stroke-opacity:0.9;stroke-width:2;"/>
   </g>
   <g id="line2d_18">
    <path clip-path="url(#p0802916876)" d="M 73.832727 123.129125 
L 75.568848 125.320526 
L 80.77721 118.615818 
L 82.51333 112.778802 
L 84.249451 112.583018 
L 87.721692 132.388012 
L 92.930053 120.723574 
L 94.666174 138.682381 
L 96.402295 151.888603 
L 98.138415 139.974577 
L 99.874536 145.599894 
L 105.082897 128.773935 
L 106.819018 112.619199 
L 108.555139 105.611551 
L 110.291259 105.346222 
L 112.02738 102.278176 
L 117.235741 110.929532 
L 118.971862 106.131403 
L 120.707982 99.896011 
L 122.444103 94.777618 
L 124.180224 105.181227 
L 129.388585 117.938098 
L 131.124706 96.509702 
L 132.860826 92.049715 
L 134.596947 83.088579 
L 141.541429 71.909285 
L 145.01367 71.701406 
L 146.749791 73.157337 
L 148.485912 78.07636 
L 153.694273 63.514102 
L 155.430394 52.154182 
L 157.166514 78.052255 
L 158.902635 70.179249 
L 160.638755 68.242218 
L 165.847117 68.769873 
L 167.583238 59.609007 
L 169.319358 57.566131 
L 171.055479 69.646033 
L 172.791599 66.847554 
L 179.736082 87.45334 
L 181.472202 93.219011 
L 183.208323 103.142587 
L 184.944443 125.424543 
L 190.152805 124.211164 
L 191.888926 134.983326 
L 193.625046 135.074213 
L 195.361167 140.311688 
L 197.097287 117.064562 
L 202.305649 98.271169 
L 204.04177 88.50569 
L 205.77789 75.497802 
L 207.514011 132.107983 
L 209.250131 130.453607 
L 214.458493 145.468237 
L 216.194614 147.307307 
L 217.930734 128.627285 
L 219.666855 143.415428 
L 221.402975 163.626933 
L 226.611337 169.769638 
L 228.347457 159.080216 
L 230.083578 163.404032 
L 231.819699 179.612037 
L 233.555819 185.698479 
L 240.500301 194.423593 
L 242.236422 206.539334 
L 243.972543 187.556301 
L 245.708663 171.274453 
L 250.917025 175.379822 
L 252.653145 191.181692 
L 254.389266 171.885908 
L 256.125386 176.776633 
L 257.861507 193.949982 
L 263.069869 231.924886 
L 264.805989 227.531931 
L 266.54211 190.467991 
L 268.27823 202.999289 
L 270.014351 216.871884 
L 275.222713 217.735246 
L 276.958833 201.253272 
L 278.694954 173.130085 
L 280.431074 163.518399 
L 282.167195 149.658047 
L 287.375557 152.751532 
L 289.111677 134.077207 
L 290.847798 144.482583 
L 292.583918 131.995565 
L 294.320039 120.739859 
L 299.528401 119.682986 
L 301.264521 112.397343 
L 303.000642 116.800706 
L 304.736762 140.861054 
L 306.472883 138.676761 
L 311.681245 130.201693 
L 315.153486 154.227636 
L 316.889606 158.403558 
L 318.625727 158.43952 
L 323.834088 172.805654 
L 325.570209 177.946614 
L 327.30633 173.364572 
L 329.04245 189.957251 
L 335.986932 180.23706 
L 337.723053 164.403494 
L 339.459174 170.25792 
L 341.195294 193.127906 
L 342.931415 219.967562 
L 348.139776 214.430534 
L 349.875897 234.337433 
L 351.612018 244.179586 
L 353.348138 197.086468 
L 355.084259 223.96097 
L 360.29262 209.471803 
L 362.028741 199.21428 
L 363.764861 161.103642 
L 365.500982 198.059518 
L 367.237103 201.37507 
L 372.445464 226.54101 
L 374.181585 226.297859 
L 375.917705 240.167252 
L 377.653826 245.940177 
L 379.389947 230.04079 
L 384.598308 234.383989 
L 386.334429 216.134519 
L 388.070549 248.536413 
L 389.80667 258.644564 
L 391.54279 265.797818 
L 396.751152 239.306752 
L 398.487273 263.144476 
L 398.487273 263.144476 
" style="fill:none;stroke:#a5b9cf;stroke-linecap:square;stroke-width:2;"/>
   </g>
   <g id="patch_3">
    <path d="M 57.6 276.48 
L 57.6 41.472 
" style="fill:none;stroke:#000000;stroke-linecap:square;stroke-linejoin:miter;stroke-width:0.8;"/>
   </g>
   <g id="patch_4">
    <path d="M 414.72 276.48 
L 414.72 41.472 
" style="fill:none;stroke:#000000;stroke-linecap:square;stroke-linejoin:miter;stroke-width:0.8;"/>
   </g>
   <g id="patch_5">
    <path d="M 57.6 276.48 
L 414.72 276.48 
" style="fill:none;stroke:#000000;stroke-linecap:square;stroke-linejoin:miter;stroke-width:0.8;"/>
   </g>
   <g id="patch_6">
    <path d="M 57.6 41.472 
L 414.72 41.472 
" style="fill:none;stroke:#000000;stroke-linecap:square;stroke-linejoin:miter;stroke-width:0.8;"/>
   </g>
   <g id="text_14">
    <!-- TESTFUNDS -->
    <g transform="translate(200.470313 22.034625)scale(0.12 -0.12)">
     <defs>
      <path d="M -19 4666 
L 3928 4666 
L 3928 4134 
L 2272 4134 
L 2272 0 
L 1638 0 
L 1638 4134 
L -19 4134 
L -19 4666 
z
" id="DejaVuSans-54" transform="scale(0.015625)"/>
      <path d="M 628 4666 
L 3578 4666 
L 3578 4134 
L 1259 4134 
L 1259 2753 
L 3481 2753 
L 3481 2222 
L 1259 2222 
L 1259 531 
L 3634 531 
L 3634 0 
L 628 0 
L 628 4666 
z
" id="DejaVuSans-45" transform="scale(0.015625)"/>
      <path d="M 3425 4513 
L 3425 3897 
Q 3066 4069 2747 4153 
Q 2428 4238 2131 4238 
Q 1616 4238 1336 4038 
Q 1056 3838 1056 3469 
Q 1056 3159 1242 3001 
Q 1428 2844 1947 2747 
L 2328 2669 
Q 3034 2534 3370 2195 
Q 3706 1856 3706 1288 
Q 3706 609 3251 259 
Q 2797 -91 1919 -91 
Q 1588 -91 1214 -16 
Q 841 59 441 206 
L 441 856 
Q 825 641 1194 531 
Q 1563 422 1919 422 
Q 2459 422 2753 634 
Q 3047 847 3047 1241 
Q 3047 1584 2836 1778 
Q 2625 1972 2144 2069 
L 1759 2144 
Q 1053 2284 737 2584 
Q 422 2884 422 3419 
Q 422 4038 858 4394 
Q 1294 4750 2059 4750 
Q 2388 4750 2728 4690 
Q 3069 4631 3425 4513 
z
" id="DejaVuSans-53" transform="scale(0.015625)"/>
      <path d="M 628 4666 
L 3309 4666 
L 3309 4134 
L 1259 4134 
L 1259 2759 
L 3109 2759 
L 3109 2228 
L 1259 2228 
L 1259 0 
L 628 0 
L 628 4666 
z
" id="DejaVuSans-46" transform="scale(0.015625)"/>
      <path d="M 556 4666 
L 1191 4666 
L 1191 1831 
Q 1191 1081 1462 751 
Q 1734 422 2344 422 
Q 2950 422 3222 751 
Q 3494 1081 3494 1831 
L 3494 4666 
L 4128 4666 
L 4128 1753 
Q 4128 841 3676 375 
Q 3225 -91 2344 -91 
Q 1459 -91 1007 375 
Q 556 841 556 1753 
L 556 4666 
z
" id="DejaVuSans-55" transform="scale(0.015625)"/>
      <path d="M 628 4666 
L 1478 4666 
L 3547 763 
L 3547 4666 
L 4159 4666 
L 4159 0 
L 3309 0 
L 1241 3903 
L 1241 0 
L 628 0 
L 628 4666 
z
" id="DejaVuSans-4e" transform="scale(0.015625)"/>
      <path d="M 1259 4147 
L 1259 519 
L 2022 519 
Q 2988 519 3436 956 
Q 3884 1394 3884 2338 
Q 3884 3275 3436 3711 
Q 2988 4147 2022 4147 
L 1259 4147 
z
M 628 4666 
L 1925 4666 
Q 3281 4666 3915 4102 
Q 4550 3538 4550 2338 
Q 4550 1131 3912 565 
Q 3275 0 1925 0 
L 628 0 
L 628 4666 
z
" id="DejaVuSans-44" transform="scale(0.015625)"/>
     </defs>
     <use xlink:href="#DejaVuSans-54"/>
     <use x="61.083984" xlink:href="#DejaVuSans-45"/>
     <use x="124.267578" xlink:href="#DejaVuSans-53"/>
     <use x="187.744141" xlink:href="#DejaVuSans-54"/>
     <use x="248.828125" xlink:href="#DejaVuSans-46"/>
     <use x="306.347656" xlink:href="#DejaVuSans-55"/>
     <use x="379.541016" xlink:href="#DejaVuSans-4e"/>
     <use x="454.345703" xlink:href="#DejaVuSans-44"/>
     <use x="531.347656" xlink:href="#DejaVuSans-53"/>
    </g>
    <!-- daily_report -->
    <g transform="translate(200.466563 35.472)scale(0.12 -0.12)">
     <defs>
      <path d="M 603 3500 
L 1178 3500 
L 1178 0 
L 603 0 
L 603 3500 
z
M 603 4863 
L 1178 4863 
L 1178 4134 
L 603 4134 
L 603 4863 
z
" id="DejaVuSans-69" transform="scale(0.015625)"/>
      <path d="M 603 4863 
L 1178 4863 
L 1178 0 
L 603 0 
L 603 4863 
z
" id="DejaVuSans-6c" transform="scale(0.015625)"/>
      <path d="M 2059 -325 
Q 1816 -950 1584 -1140 
Q 1353 -1331 966 -1331 
L 506 -1331 
L 506 -850 
L 844 -850 
Q 1081 -850 1212 -737 
Q 1344 -625 1503 -206 
L 1606 56 
L 191 3500 
L 800 3500 
L 1894 763 
L 2988 3500 
L 3597 3500 
L 2059 -325 
z
" id="DejaVuSans-79" transform="scale(0.015625)"/>
      <path d="M 3263 -1063 
L 3263 -1509 
L -63 -1509 
L -63 -1063 
L 3263 -1063 
z
" id="DejaVuSans-5f" transform="scale(0.015625)"/>
      <path d="M 2631 2963 
Q 2534 3019 2420 3045 
Q 2306 3072 2169 3072 
Q 1681 3072 1420 2755 
Q 1159 2438 1159 1844 
L 1159 0 
L 581 0 
L 581 3500 
L 1159 3500 
L 1159 2956 
Q 1341 3275 1631 3429 
Q 1922 3584 2338 3584 
Q 2397 3584 2469 3576 
Q 2541 3569 2628 3553 
L 2631 2963 
z
" id="DejaVuSans-72" transform="scale(0.015625)"/>
      <path d="M 1159 525 
L 1159 -1331 
L 581 -1331 
L 581 3500 
L 1159 3500 
L 1159 2969 
Q 1341 3281 1617 3432 
Q 1894 3584 2278 3584 
Q 2916 3584 3314 3078 
Q 3713 2572 3713 1747 
Q 3713 922 3314 415 
Q 2916 -91 2278 -91 
Q 1894 -91 1617 61 
Q 1341 213 1159 525 
z
M 3116 1747 
Q 3116 2381 2855 2742 
Q 2594 3103 2138 3103 
Q 1681 3103 1420 2742 
Q 1159 2381 1159 1747 
Q 1159 1113 1420 752 
Q 1681 391 2138 391 
Q 2594 391 2855 752 
Q 3116 1113 3116 1747 
z
" id="DejaVuSans-70" transform="scale(0.015625)"/>
      <path d="M 1959 3097 
Q 1497 3097 1228 2736 
Q 959 2375 959 1747 
Q 959 1119 1226 758 
Q 1494 397 1959 397 
Q 2419 397 2687 759 
Q 2956 1122 2956 1747 
Q 2956 2369 2687 2733 
Q 2419 3097 1959 3097 
z
M 1959 3584 
Q 2709 3584 3137 3096 
Q 3566 2609 3566 1747 
Q 3566 888 3137 398 
Q 2709 -91 1959 -91 
Q 1206 -91 779 398 
Q 353 888 353 1747 
Q 353 2609 779 3096 
Q 1206 3584 1959 3584 
z
" id="DejaVuSans-6f" transform="scale(0.015625)"/>
     </defs>
     <use xlink:href="#DejaVuSans-64"/>
     <use x="63.476562" xlink:href="#DejaVuSans-61"/>
     <use x="124.755859" xlink:href="#DejaVuSans-69"/>
     <use x="152.539062" xlink:href="#DejaVuSans-6c"/>
     <use x="180.322266" xlink:href="#DejaVuSans-79"/>
     <use x="239.501953" xlink:href="#DejaVuSans-5f"/>
     <use x="289.501953" xlink:href="#DejaVuSans-72"/>
     <use x="328.365234" xlink:href="#DejaVuSans-65"/>
     <use x="389.888672" xlink:href="#DejaVuSans-70"/>
     <use x="453.365234" xlink:href="#DejaVuSans-6f"/>
     <use x="514.546875" xlink:href="#DejaVuSans-72"/>
     <use x="555.660156" xlink:href="#DejaVuSans-74"/>
    </g>
   </g>
   <g id="legend_1">
    <g id="patch_7">
     <path d="M 64.6 271.48 
L 178.64375 271.48 
Q 180.64375 271.48 180.64375 269.48 
L 180.64375 182.41125 
Q 180.64375 180.41125 178.64375 180.41125 
L 64.6 180.41125 
Q 62.6 180.41125 62.6 182.41125 
L 62.6 269.48 
Q 62.6 271.48 64.6 271.48 
z
" style="fill:#ffffff;opacity:0.8;stroke:#cccccc;stroke-linejoin:miter;"/>
    </g>
    <g id="line2d_19">
     <path d="M 66.6 188.509687 
L 86.6 188.509687 
" style="fill:none;stroke:#0000ff;stroke-linecap:square;stroke-opacity:0.9;stroke-width:2;"/>
    </g>
    <g id="line2d_20"/>
    <g id="text_15">
     <!-- alpaca -->
     <g transform="translate(94.6 192.009687)scale(0.1 -0.1)">
      <defs>
       <path d="M 3122 3366 
L 3122 2828 
Q 2878 2963 2633 3030 
Q 2388 3097 2138 3097 
Q 1578 3097 1268 2742 
Q 959 2388 959 1747 
Q 959 1106 1268 751 
Q 1578 397 2138 397 
Q 2388 397 2633 464 
Q 2878 531 3122 666 
L 3122 134 
Q 2881 22 2623 -34 
Q 2366 -91 2075 -91 
Q 1284 -91 818 406 
Q 353 903 353 1747 
Q 353 2603 823 3093 
Q 1294 3584 2113 3584 
Q 2378 3584 2631 3529 
Q 2884 3475 3122 3366 
z
" id="DejaVuSans-63" transform="scale(0.015625)"/>
      </defs>
      <use xlink:href="#DejaVuSans-61"/>
      <use x="61.279297" xlink:href="#DejaVuSans-6c"/>
      <use x="89.0625" xlink:href="#DejaVuSans-70"/>
      <use x="152.539062" xlink:href="#DejaVuSans-61"/>
      <use x="213.818359" xlink:href="#DejaVuSans-63"/>
      <use x="268.798828" xlink:href="#DejaVuSans-61"/>
     </g>
    </g>
    <g id="line2d_21">
     <path d="M 66.6 203.187812 
L 86.6 203.187812 
" style="fill:none;stroke:#ff0000;stroke-linecap:square;stroke-opacity:0.9;stroke-width:2;"/>
    </g>
    <g id="line2d_22"/>
    <g id="text_16">
     <!-- mattress -->
     <g transform="translate(94.6 206.687812)scale(0.1 -0.1)">
      <defs>
       <path d="M 3328 2828 
Q 3544 3216 3844 3400 
Q 4144 3584 4550 3584 
Q 5097 3584 5394 3201 
Q 5691 2819 5691 2113 
L 5691 0 
L 5113 0 
L 5113 2094 
Q 5113 2597 4934 2840 
Q 4756 3084 4391 3084 
Q 3944 3084 3684 2787 
Q 3425 2491 3425 1978 
L 3425 0 
L 2847 0 
L 2847 2094 
Q 2847 2600 2669 2842 
Q 2491 3084 2119 3084 
Q 1678 3084 1418 2786 
Q 1159 2488 1159 1978 
L 1159 0 
L 581 0 
L 581 3500 
L 1159 3500 
L 1159 2956 
Q 1356 3278 1631 3431 
Q 1906 3584 2284 3584 
Q 2666 3584 2933 3390 
Q 3200 3197 3328 2828 
z
" id="DejaVuSans-6d" transform="scale(0.015625)"/>
       <path d="M 2834 3397 
L 2834 2853 
Q 2591 2978 2328 3040 
Q 2066 3103 1784 3103 
Q 1356 3103 1142 2972 
Q 928 2841 928 2578 
Q 928 2378 1081 2264 
Q 1234 2150 1697 2047 
L 1894 2003 
Q 2506 1872 2764 1633 
Q 3022 1394 3022 966 
Q 3022 478 2636 193 
Q 2250 -91 1575 -91 
Q 1294 -91 989 -36 
Q 684 19 347 128 
L 347 722 
Q 666 556 975 473 
Q 1284 391 1588 391 
Q 1994 391 2212 530 
Q 2431 669 2431 922 
Q 2431 1156 2273 1281 
Q 2116 1406 1581 1522 
L 1381 1569 
Q 847 1681 609 1914 
Q 372 2147 372 2553 
Q 372 3047 722 3315 
Q 1072 3584 1716 3584 
Q 2034 3584 2315 3537 
Q 2597 3491 2834 3397 
z
" id="DejaVuSans-73" transform="scale(0.015625)"/>
      </defs>
      <use xlink:href="#DejaVuSans-6d"/>
      <use x="97.412109" xlink:href="#DejaVuSans-61"/>
      <use x="158.691406" xlink:href="#DejaVuSans-74"/>
      <use x="197.900391" xlink:href="#DejaVuSans-74"/>
      <use x="237.109375" xlink:href="#DejaVuSans-72"/>
      <use x="275.972656" xlink:href="#DejaVuSans-65"/>
      <use x="337.496094" xlink:href="#DejaVuSans-73"/>
      <use x="389.595703" xlink:href="#DejaVuSans-73"/>
     </g>
    </g>
    <g id="line2d_23">
     <path d="M 66.6 217.865937 
L 86.6 217.865937 
" style="fill:none;stroke:#008000;stroke-linecap:square;stroke-opacity:0.9;stroke-width:2;"/>
    </g>
    <g id="line2d_24"/>
    <g id="text_17">
     <!-- daily-open-rebal -->
     <g transform="translate(94.6 221.365937)scale(0.1 -0.1)">
      <defs>
       <path d="M 3513 2113 
L 3513 0 
L 2938 0 
L 2938 2094 
Q 2938 2591 2744 2837 
Q 2550 3084 2163 3084 
Q 1697 3084 1428 2787 
Q 1159 2491 1159 1978 
L 1159 0 
L 581 0 
L 581 3500 
L 1159 3500 
L 1159 2956 
Q 1366 3272 1645 3428 
Q 1925 3584 2291 3584 
Q 2894 3584 3203 3211 
Q 3513 2838 3513 2113 
z
" id="DejaVuSans-6e" transform="scale(0.015625)"/>
       <path d="M 3116 1747 
Q 3116 2381 2855 2742 
Q 2594 3103 2138 3103 
Q 1681 3103 1420 2742 
Q 1159 2381 1159 1747 
Q 1159 1113 1420 752 
Q 1681 391 2138 391 
Q 2594 391 2855 752 
Q 3116 1113 3116 1747 
z
M 1159 2969 
Q 1341 3281 1617 3432 
Q 1894 3584 2278 3584 
Q 2916 3584 3314 3078 
Q 3713 2572 3713 1747 
Q 3713 922 3314 415 
Q 2916 -91 2278 -91 
Q 1894 -91 1617 61 
Q 1341 213 1159 525 
L 1159 0 
L 581 0 
L 581 4863 
L 1159 4863 
L 1159 2969 
z
" id="DejaVuSans-62" transform="scale(0.015625)"/>
      </defs>
      <use xlink:href="#DejaVuSans-64"/>
      <use x="63.476562" xlink:href="#DejaVuSans-61"/>
      <use x="124.755859" xlink:href="#DejaVuSans-69"/>
      <use x="152.539062" xlink:href="#DejaVuSans-6c"/>
      <use x="180.322266" xlink:href="#DejaVuSans-79"/>
      <use x="237.751953" xlink:href="#DejaVuSans-2d"/>
      <use x="275.710938" xlink:href="#DejaVuSans-6f"/>
      <use x="336.892578" xlink:href="#DejaVuSans-70"/>
      <use x="400.369141" xlink:href="#DejaVuSans-65"/>
      <use x="461.892578" xlink:href="#DejaVuSans-6e"/>
      <use x="525.271484" xlink:href="#DejaVuSans-2d"/>
      <use x="561.355469" xlink:href="#DejaVuSans-72"/>
      <use x="600.21875" xlink:href="#DejaVuSans-65"/>
      <use x="661.742188" xlink:href="#DejaVuSans-62"/>
      <use x="725.21875" xlink:href="#DejaVuSans-61"/>
      <use x="786.498047" xlink:href="#DejaVuSans-6c"/>
     </g>
    </g>
    <g id="line2d_25">
     <path d="M 66.6 232.544062 
L 86.6 232.544062 
" style="fill:none;stroke:#ec5283;stroke-linecap:square;stroke-width:2;"/>
    </g>
    <g id="line2d_26"/>
    <g id="text_18">
     <!-- daily-close-rebal -->
     <g transform="translate(94.6 236.044062)scale(0.1 -0.1)">
      <use xlink:href="#DejaVuSans-64"/>
      <use x="63.476562" xlink:href="#DejaVuSans-61"/>
      <use x="124.755859" xlink:href="#DejaVuSans-69"/>
      <use x="152.539062" xlink:href="#DejaVuSans-6c"/>
      <use x="180.322266" xlink:href="#DejaVuSans-79"/>
      <use x="237.751953" xlink:href="#DejaVuSans-2d"/>
      <use x="273.835938" xlink:href="#DejaVuSans-63"/>
      <use x="328.816406" xlink:href="#DejaVuSans-6c"/>
      <use x="356.599609" xlink:href="#DejaVuSans-6f"/>
      <use x="417.78125" xlink:href="#DejaVuSans-73"/>
      <use x="469.880859" xlink:href="#DejaVuSans-65"/>
      <use x="531.404297" xlink:href="#DejaVuSans-2d"/>
      <use x="567.488281" xlink:href="#DejaVuSans-72"/>
      <use x="606.351562" xlink:href="#DejaVuSans-65"/>
      <use x="667.875" xlink:href="#DejaVuSans-62"/>
      <use x="731.351562" xlink:href="#DejaVuSans-61"/>
      <use x="792.630859" xlink:href="#DejaVuSans-6c"/>
     </g>
    </g>
    <g id="line2d_27">
     <path d="M 66.6 247.222187 
L 86.6 247.222187 
" style="fill:none;stroke:#00ff00;stroke-linecap:square;stroke-opacity:0.9;stroke-width:2;"/>
    </g>
    <g id="line2d_28"/>
    <g id="text_19">
     <!-- trader-baseline -->
     <g transform="translate(94.6 250.722187)scale(0.1 -0.1)">
      <use xlink:href="#DejaVuSans-74"/>
      <use x="39.208984" xlink:href="#DejaVuSans-72"/>
      <use x="80.322266" xlink:href="#DejaVuSans-61"/>
      <use x="141.601562" xlink:href="#DejaVuSans-64"/>
      <use x="205.078125" xlink:href="#DejaVuSans-65"/>
      <use x="266.601562" xlink:href="#DejaVuSans-72"/>
      <use x="301.339844" xlink:href="#DejaVuSans-2d"/>
      <use x="337.423828" xlink:href="#DejaVuSans-62"/>
      <use x="400.900391" xlink:href="#DejaVuSans-61"/>
      <use x="462.179688" xlink:href="#DejaVuSans-73"/>
      <use x="514.279297" xlink:href="#DejaVuSans-65"/>
      <use x="575.802734" xlink:href="#DejaVuSans-6c"/>
      <use x="603.585938" xlink:href="#DejaVuSans-69"/>
      <use x="631.369141" xlink:href="#DejaVuSans-6e"/>
      <use x="694.748047" xlink:href="#DejaVuSans-65"/>
     </g>
    </g>
    <g id="line2d_29">
     <path d="M 66.6 261.900312 
L 86.6 261.900312 
" style="fill:none;stroke:#a5b9cf;stroke-linecap:square;stroke-width:2;"/>
    </g>
    <g id="line2d_30"/>
    <g id="text_20">
     <!-- default-cfg -->
     <g transform="translate(94.6 265.400312)scale(0.1 -0.1)">
      <defs>
       <path d="M 2375 4863 
L 2375 4384 
L 1825 4384 
Q 1516 4384 1395 4259 
Q 1275 4134 1275 3809 
L 1275 3500 
L 2222 3500 
L 2222 3053 
L 1275 3053 
L 1275 0 
L 697 0 
L 697 3053 
L 147 3053 
L 147 3500 
L 697 3500 
L 697 3744 
Q 697 4328 969 4595 
Q 1241 4863 1831 4863 
L 2375 4863 
z
" id="DejaVuSans-66" transform="scale(0.015625)"/>
       <path d="M 544 1381 
L 544 3500 
L 1119 3500 
L 1119 1403 
Q 1119 906 1312 657 
Q 1506 409 1894 409 
Q 2359 409 2629 706 
Q 2900 1003 2900 1516 
L 2900 3500 
L 3475 3500 
L 3475 0 
L 2900 0 
L 2900 538 
Q 2691 219 2414 64 
Q 2138 -91 1772 -91 
Q 1169 -91 856 284 
Q 544 659 544 1381 
z
M 1991 3584 
L 1991 3584 
z
" id="DejaVuSans-75" transform="scale(0.015625)"/>
       <path d="M 2906 1791 
Q 2906 2416 2648 2759 
Q 2391 3103 1925 3103 
Q 1463 3103 1205 2759 
Q 947 2416 947 1791 
Q 947 1169 1205 825 
Q 1463 481 1925 481 
Q 2391 481 2648 825 
Q 2906 1169 2906 1791 
z
M 3481 434 
Q 3481 -459 3084 -895 
Q 2688 -1331 1869 -1331 
Q 1566 -1331 1297 -1286 
Q 1028 -1241 775 -1147 
L 775 -588 
Q 1028 -725 1275 -790 
Q 1522 -856 1778 -856 
Q 2344 -856 2625 -561 
Q 2906 -266 2906 331 
L 2906 616 
Q 2728 306 2450 153 
Q 2172 0 1784 0 
Q 1141 0 747 490 
Q 353 981 353 1791 
Q 353 2603 747 3093 
Q 1141 3584 1784 3584 
Q 2172 3584 2450 3431 
Q 2728 3278 2906 2969 
L 2906 3500 
L 3481 3500 
L 3481 434 
z
" id="DejaVuSans-67" transform="scale(0.015625)"/>
      </defs>
      <use xlink:href="#DejaVuSans-64"/>
      <use x="63.476562" xlink:href="#DejaVuSans-65"/>
      <use x="125" xlink:href="#DejaVuSans-66"/>
      <use x="160.205078" xlink:href="#DejaVuSans-61"/>
      <use x="221.484375" xlink:href="#DejaVuSans-75"/>
      <use x="284.863281" xlink:href="#DejaVuSans-6c"/>
      <use x="312.646484" xlink:href="#DejaVuSans-74"/>
      <use x="351.855469" xlink:href="#DejaVuSans-2d"/>
      <use x="387.939453" xlink:href="#DejaVuSans-63"/>
      <use x="442.919922" xlink:href="#DejaVuSans-66"/>
      <use x="478.125" xlink:href="#DejaVuSans-67"/>
     </g>
    </g>
   </g>
  </g>
 </g>
 <defs>
  <clipPath id="p0802916876">
   <rect height="235.008" width="357.12" x="57.6" y="41.472"/>
  </clipPath>
 </defs>
</svg>
