<?xml version="1.0" encoding="utf-8" standalone="no"?>
<!DOCTYPE svg PUBLIC "-//W3C//DTD SVG 1.1//EN"
  "http://www.w3.org/Graphics/SVG/1.1/DTD/svg11.dtd">
<svg height="345.6pt" version="1.1" viewBox="0 0 460.8 345.6" width="460.8pt" xmlns="http://www.w3.org/2000/svg" xmlns:xlink="http://www.w3.org/1999/xlink">
 <metadata>
  <rdf:RDF xmlns:cc="http://creativecommons.org/ns#" xmlns:dc="http://purl.org/dc/elements/1.1/" xmlns:rdf="http://www.w3.org/1999/02/22-rdf-syntax-ns#">
   <cc:Work>
    <dc:type rdf:resource="http://purl.org/dc/dcmitype/StillImage"/>
    <dc:date>2022-02-09T01:01:29.511452</dc:date>
    <dc:format>image/svg+xml</dc:format>
    <dc:creator>
     <cc:Agent>
      <dc:title>Matplotlib v3.4.3, https://matplotlib.org/</dc:title>
     </cc:Agent>
    </dc:creator>
   </cc:Work>
  </rdf:RDF>
 </metadata>
 <defs>
  <style type="text/css">*{stroke-linecap:butt;stroke-linejoin:round;}</style>
 </defs>
 <g id="figure_1">
  <g id="patch_1">
   <path d="M 0 345.6 
L 460.8 345.6 
L 460.8 0 
L 0 0 
z
" style="fill:#ffffff;"/>
  </g>
  <g id="axes_1">
   <g id="patch_2">
    <path d="M 57.6 276.48 
L 414.72 276.48 
L 414.72 41.472 
L 57.6 41.472 
z
" style="fill:#ffffff;"/>
   </g>
   <g id="matplotlib.axis_1">
    <g id="xtick_1">
     <g id="line2d_1">
      <defs>
       <path d="M 0 0 
L 0 3.5 
" id="m039f8c0a5f" style="stroke:#000000;stroke-width:0.8;"/>
      </defs>
      <g>
       <use style="stroke:#000000;stroke-width:0.8;" x="91.122023" xlink:href="#m039f8c0a5f" y="276.48"/>
      </g>
     </g>
     <g id="text_1">
      <!-- 2021-09 -->
      <g transform="translate(53.897202 310.951846)rotate(-30)scale(0.1 -0.1)">
       <defs>
        <path d="M 1228 531 
L 3431 531 
L 3431 0 
L 469 0 
L 469 531 
Q 828 903 1448 1529 
Q 2069 2156 2228 2338 
Q 2531 2678 2651 2914 
Q 2772 3150 2772 3378 
Q 2772 3750 2511 3984 
Q 2250 4219 1831 4219 
Q 1534 4219 1204 4116 
Q 875 4013 500 3803 
L 500 4441 
Q 881 4594 1212 4672 
Q 1544 4750 1819 4750 
Q 2544 4750 2975 4387 
Q 3406 4025 3406 3419 
Q 3406 3131 3298 2873 
Q 3191 2616 2906 2266 
Q 2828 2175 2409 1742 
Q 1991 1309 1228 531 
z
" id="DejaVuSans-32" transform="scale(0.015625)"/>
        <path d="M 2034 4250 
Q 1547 4250 1301 3770 
Q 1056 3291 1056 2328 
Q 1056 1369 1301 889 
Q 1547 409 2034 409 
Q 2525 409 2770 889 
Q 3016 1369 3016 2328 
Q 3016 3291 2770 3770 
Q 2525 4250 2034 4250 
z
M 2034 4750 
Q 2819 4750 3233 4129 
Q 3647 3509 3647 2328 
Q 3647 1150 3233 529 
Q 2819 -91 2034 -91 
Q 1250 -91 836 529 
Q 422 1150 422 2328 
Q 422 3509 836 4129 
Q 1250 4750 2034 4750 
z
" id="DejaVuSans-30" transform="scale(0.015625)"/>
        <path d="M 794 531 
L 1825 531 
L 1825 4091 
L 703 3866 
L 703 4441 
L 1819 4666 
L 2450 4666 
L 2450 531 
L 3481 531 
L 3481 0 
L 794 0 
L 794 531 
z
" id="DejaVuSans-31" transform="scale(0.015625)"/>
        <path d="M 313 2009 
L 1997 2009 
L 1997 1497 
L 313 1497 
L 313 2009 
z
" id="DejaVuSans-2d" transform="scale(0.015625)"/>
        <path d="M 703 97 
L 703 672 
Q 941 559 1184 500 
Q 1428 441 1663 441 
Q 2288 441 2617 861 
Q 2947 1281 2994 2138 
Q 2813 1869 2534 1725 
Q 2256 1581 1919 1581 
Q 1219 1581 811 2004 
Q 403 2428 403 3163 
Q 403 3881 828 4315 
Q 1253 4750 1959 4750 
Q 2769 4750 3195 4129 
Q 3622 3509 3622 2328 
Q 3622 1225 3098 567 
Q 2575 -91 1691 -91 
Q 1453 -91 1209 -44 
Q 966 3 703 97 
z
M 1959 2075 
Q 2384 2075 2632 2365 
Q 2881 2656 2881 3163 
Q 2881 3666 2632 3958 
Q 2384 4250 1959 4250 
Q 1534 4250 1286 3958 
Q 1038 3666 1038 3163 
Q 1038 2656 1286 2365 
Q 1534 2075 1959 2075 
z
" id="DejaVuSans-39" transform="scale(0.015625)"/>
       </defs>
       <use xlink:href="#DejaVuSans-32"/>
       <use x="63.623047" xlink:href="#DejaVuSans-30"/>
       <use x="127.246094" xlink:href="#DejaVuSans-32"/>
       <use x="190.869141" xlink:href="#DejaVuSans-31"/>
       <use x="254.492188" xlink:href="#DejaVuSans-2d"/>
       <use x="290.576172" xlink:href="#DejaVuSans-30"/>
       <use x="354.199219" xlink:href="#DejaVuSans-39"/>
      </g>
     </g>
    </g>
    <g id="xtick_2">
     <g id="line2d_2">
      <g>
       <use style="stroke:#000000;stroke-width:0.8;" x="148.753007" xlink:href="#m039f8c0a5f" y="276.48"/>
      </g>
     </g>
     <g id="text_2">
      <!-- 2021-10 -->
      <g transform="translate(111.528186 310.951846)rotate(-30)scale(0.1 -0.1)">
       <use xlink:href="#DejaVuSans-32"/>
       <use x="63.623047" xlink:href="#DejaVuSans-30"/>
       <use x="127.246094" xlink:href="#DejaVuSans-32"/>
       <use x="190.869141" xlink:href="#DejaVuSans-31"/>
       <use x="254.492188" xlink:href="#DejaVuSans-2d"/>
       <use x="290.576172" xlink:href="#DejaVuSans-31"/>
       <use x="354.199219" xlink:href="#DejaVuSans-30"/>
      </g>
     </g>
    </g>
    <g id="xtick_3">
     <g id="line2d_3">
      <g>
       <use style="stroke:#000000;stroke-width:0.8;" x="208.305024" xlink:href="#m039f8c0a5f" y="276.48"/>
      </g>
     </g>
     <g id="text_3">
      <!-- 2021-11 -->
      <g transform="translate(171.080203 310.951846)rotate(-30)scale(0.1 -0.1)">
       <use xlink:href="#DejaVuSans-32"/>
       <use x="63.623047" xlink:href="#DejaVuSans-30"/>
       <use x="127.246094" xlink:href="#DejaVuSans-32"/>
       <use x="190.869141" xlink:href="#DejaVuSans-31"/>
       <use x="254.492188" xlink:href="#DejaVuSans-2d"/>
       <use x="290.576172" xlink:href="#DejaVuSans-31"/>
       <use x="354.199219" xlink:href="#DejaVuSans-31"/>
      </g>
     </g>
    </g>
    <g id="xtick_4">
     <g id="line2d_4">
      <g>
       <use style="stroke:#000000;stroke-width:0.8;" x="265.936009" xlink:href="#m039f8c0a5f" y="276.48"/>
      </g>
     </g>
     <g id="text_4">
      <!-- 2021-12 -->
      <g transform="translate(228.711188 310.951846)rotate(-30)scale(0.1 -0.1)">
       <use xlink:href="#DejaVuSans-32"/>
       <use x="63.623047" xlink:href="#DejaVuSans-30"/>
       <use x="127.246094" xlink:href="#DejaVuSans-32"/>
       <use x="190.869141" xlink:href="#DejaVuSans-31"/>
       <use x="254.492188" xlink:href="#DejaVuSans-2d"/>
       <use x="290.576172" xlink:href="#DejaVuSans-31"/>
       <use x="354.199219" xlink:href="#DejaVuSans-32"/>
      </g>
     </g>
    </g>
    <g id="xtick_5">
     <g id="line2d_5">
      <g>
       <use style="stroke:#000000;stroke-width:0.8;" x="325.488026" xlink:href="#m039f8c0a5f" y="276.48"/>
      </g>
     </g>
     <g id="text_5">
      <!-- 2022-01 -->
      <g transform="translate(288.263205 310.951846)rotate(-30)scale(0.1 -0.1)">
       <use xlink:href="#DejaVuSans-32"/>
       <use x="63.623047" xlink:href="#DejaVuSans-30"/>
       <use x="127.246094" xlink:href="#DejaVuSans-32"/>
       <use x="190.869141" xlink:href="#DejaVuSans-32"/>
       <use x="254.492188" xlink:href="#DejaVuSans-2d"/>
       <use x="290.576172" xlink:href="#DejaVuSans-30"/>
       <use x="354.199219" xlink:href="#DejaVuSans-31"/>
      </g>
     </g>
    </g>
    <g id="xtick_6">
     <g id="line2d_6">
      <g>
       <use style="stroke:#000000;stroke-width:0.8;" x="385.040043" xlink:href="#m039f8c0a5f" y="276.48"/>
      </g>
     </g>
     <g id="text_6">
      <!-- 2022-02 -->
      <g transform="translate(347.815222 310.951846)rotate(-30)scale(0.1 -0.1)">
       <use xlink:href="#DejaVuSans-32"/>
       <use x="63.623047" xlink:href="#DejaVuSans-30"/>
       <use x="127.246094" xlink:href="#DejaVuSans-32"/>
       <use x="190.869141" xlink:href="#DejaVuSans-32"/>
       <use x="254.492188" xlink:href="#DejaVuSans-2d"/>
       <use x="290.576172" xlink:href="#DejaVuSans-30"/>
       <use x="354.199219" xlink:href="#DejaVuSans-32"/>
      </g>
     </g>
    </g>
    <g id="text_7">
     <!-- date -->
     <g transform="translate(224.885 324.351346)scale(0.1 -0.1)">
      <defs>
       <path d="M 2906 2969 
L 2906 4863 
L 3481 4863 
L 3481 0 
L 2906 0 
L 2906 525 
Q 2725 213 2448 61 
Q 2172 -91 1784 -91 
Q 1150 -91 751 415 
Q 353 922 353 1747 
Q 353 2572 751 3078 
Q 1150 3584 1784 3584 
Q 2172 3584 2448 3432 
Q 2725 3281 2906 2969 
z
M 947 1747 
Q 947 1113 1208 752 
Q 1469 391 1925 391 
Q 2381 391 2643 752 
Q 2906 1113 2906 1747 
Q 2906 2381 2643 2742 
Q 2381 3103 1925 3103 
Q 1469 3103 1208 2742 
Q 947 2381 947 1747 
z
" id="DejaVuSans-64" transform="scale(0.015625)"/>
       <path d="M 2194 1759 
Q 1497 1759 1228 1600 
Q 959 1441 959 1056 
Q 959 750 1161 570 
Q 1363 391 1709 391 
Q 2188 391 2477 730 
Q 2766 1069 2766 1631 
L 2766 1759 
L 2194 1759 
z
M 3341 1997 
L 3341 0 
L 2766 0 
L 2766 531 
Q 2569 213 2275 61 
Q 1981 -91 1556 -91 
Q 1019 -91 701 211 
Q 384 513 384 1019 
Q 384 1609 779 1909 
Q 1175 2209 1959 2209 
L 2766 2209 
L 2766 2266 
Q 2766 2663 2505 2880 
Q 2244 3097 1772 3097 
Q 1472 3097 1187 3025 
Q 903 2953 641 2809 
L 641 3341 
Q 956 3463 1253 3523 
Q 1550 3584 1831 3584 
Q 2591 3584 2966 3190 
Q 3341 2797 3341 1997 
z
" id="DejaVuSans-61" transform="scale(0.015625)"/>
       <path d="M 1172 4494 
L 1172 3500 
L 2356 3500 
L 2356 3053 
L 1172 3053 
L 1172 1153 
Q 1172 725 1289 603 
Q 1406 481 1766 481 
L 2356 481 
L 2356 0 
L 1766 0 
Q 1100 0 847 248 
Q 594 497 594 1153 
L 594 3053 
L 172 3053 
L 172 3500 
L 594 3500 
L 594 4494 
L 1172 4494 
z
" id="DejaVuSans-74" transform="scale(0.015625)"/>
       <path d="M 3597 1894 
L 3597 1613 
L 953 1613 
Q 991 1019 1311 708 
Q 1631 397 2203 397 
Q 2534 397 2845 478 
Q 3156 559 3463 722 
L 3463 178 
Q 3153 47 2828 -22 
Q 2503 -91 2169 -91 
Q 1331 -91 842 396 
Q 353 884 353 1716 
Q 353 2575 817 3079 
Q 1281 3584 2069 3584 
Q 2775 3584 3186 3129 
Q 3597 2675 3597 1894 
z
M 3022 2063 
Q 3016 2534 2758 2815 
Q 2500 3097 2075 3097 
Q 1594 3097 1305 2825 
Q 1016 2553 972 2059 
L 3022 2063 
z
" id="DejaVuSans-65" transform="scale(0.015625)"/>
      </defs>
      <use xlink:href="#DejaVuSans-64"/>
      <use x="63.476562" xlink:href="#DejaVuSans-61"/>
      <use x="124.755859" xlink:href="#DejaVuSans-74"/>
      <use x="163.964844" xlink:href="#DejaVuSans-65"/>
     </g>
    </g>
   </g>
   <g id="matplotlib.axis_2">
    <g id="ytick_1">
     <g id="line2d_7">
      <defs>
       <path d="M 0 0 
L -3.5 0 
" id="mfd01f11894" style="stroke:#000000;stroke-width:0.8;"/>
      </defs>
      <g>
       <use style="stroke:#000000;stroke-width:0.8;" x="57.6" xlink:href="#mfd01f11894" y="229.526189"/>
      </g>
     </g>
     <g id="text_8">
      <!-- 95000 -->
      <g transform="translate(18.7875 233.325408)scale(0.1 -0.1)">
       <defs>
        <path d="M 691 4666 
L 3169 4666 
L 3169 4134 
L 1269 4134 
L 1269 2991 
Q 1406 3038 1543 3061 
Q 1681 3084 1819 3084 
Q 2600 3084 3056 2656 
Q 3513 2228 3513 1497 
Q 3513 744 3044 326 
Q 2575 -91 1722 -91 
Q 1428 -91 1123 -41 
Q 819 9 494 109 
L 494 744 
Q 775 591 1075 516 
Q 1375 441 1709 441 
Q 2250 441 2565 725 
Q 2881 1009 2881 1497 
Q 2881 1984 2565 2268 
Q 2250 2553 1709 2553 
Q 1456 2553 1204 2497 
Q 953 2441 691 2322 
L 691 4666 
z
" id="DejaVuSans-35" transform="scale(0.015625)"/>
       </defs>
       <use xlink:href="#DejaVuSans-39"/>
       <use x="63.623047" xlink:href="#DejaVuSans-35"/>
       <use x="127.246094" xlink:href="#DejaVuSans-30"/>
       <use x="190.869141" xlink:href="#DejaVuSans-30"/>
       <use x="254.492188" xlink:href="#DejaVuSans-30"/>
      </g>
     </g>
    </g>
    <g id="ytick_2">
     <g id="line2d_8">
      <g>
       <use style="stroke:#000000;stroke-width:0.8;" x="57.6" xlink:href="#mfd01f11894" y="182.104977"/>
      </g>
     </g>
     <g id="text_9">
      <!-- 100000 -->
      <g transform="translate(12.425 185.904196)scale(0.1 -0.1)">
       <use xlink:href="#DejaVuSans-31"/>
       <use x="63.623047" xlink:href="#DejaVuSans-30"/>
       <use x="127.246094" xlink:href="#DejaVuSans-30"/>
       <use x="190.869141" xlink:href="#DejaVuSans-30"/>
       <use x="254.492188" xlink:href="#DejaVuSans-30"/>
       <use x="318.115234" xlink:href="#DejaVuSans-30"/>
      </g>
     </g>
    </g>
    <g id="ytick_3">
     <g id="line2d_9">
      <g>
       <use style="stroke:#000000;stroke-width:0.8;" x="57.6" xlink:href="#mfd01f11894" y="134.683766"/>
      </g>
     </g>
     <g id="text_10">
      <!-- 105000 -->
      <g transform="translate(12.425 138.482985)scale(0.1 -0.1)">
       <use xlink:href="#DejaVuSans-31"/>
       <use x="63.623047" xlink:href="#DejaVuSans-30"/>
       <use x="127.246094" xlink:href="#DejaVuSans-35"/>
       <use x="190.869141" xlink:href="#DejaVuSans-30"/>
       <use x="254.492188" xlink:href="#DejaVuSans-30"/>
       <use x="318.115234" xlink:href="#DejaVuSans-30"/>
      </g>
     </g>
    </g>
    <g id="ytick_4">
     <g id="line2d_10">
      <g>
       <use style="stroke:#000000;stroke-width:0.8;" x="57.6" xlink:href="#mfd01f11894" y="87.262555"/>
      </g>
     </g>
     <g id="text_11">
      <!-- 110000 -->
      <g transform="translate(12.425 91.061773)scale(0.1 -0.1)">
       <use xlink:href="#DejaVuSans-31"/>
       <use x="63.623047" xlink:href="#DejaVuSans-31"/>
       <use x="127.246094" xlink:href="#DejaVuSans-30"/>
       <use x="190.869141" xlink:href="#DejaVuSans-30"/>
       <use x="254.492188" xlink:href="#DejaVuSans-30"/>
       <use x="318.115234" xlink:href="#DejaVuSans-30"/>
      </g>
     </g>
    </g>
   </g>
   <g id="line2d_11">
    <path clip-path="url(#pf2675bd638)" d="M 73.832727 182.104977 
L 75.75376 179.569237 
L 77.674793 175.958262 
L 79.595826 180.995872 
L 81.516859 171.996497 
L 87.279957 166.479045 
L 89.20099 164.373642 
L 91.122023 166.824193 
L 93.043055 165.823716 
L 94.964088 165.50701 
L 102.648219 166.108544 
L 104.569252 168.340906 
L 106.490285 170.731138 
L 108.411318 179.900212 
L 114.174416 172.043719 
L 116.095449 184.945403 
L 118.016482 179.371018 
L 119.937515 180.707982 
L 121.858548 190.296385 
L 127.621646 206.590218 
L 129.542679 208.54657 
L 131.463712 201.519293 
L 133.384744 186.367185 
L 135.305777 178.619277 
L 141.068876 171.806857 
L 142.989909 192.221164 
L 144.910941 190.510665 
L 146.831974 197.887552 
L 148.753007 183.902542 
L 154.516105 201.491837 
L 156.437138 186.992777 
L 158.358171 184.077655 
L 160.279204 183.337381 
L 162.200237 182.808657 
L 167.963335 181.483386 
L 169.884368 180.812678 
L 171.805401 192.580727 
L 173.726434 173.807416 
L 175.647466 172.68014 
L 181.410565 164.836502 
L 183.331598 155.834704 
L 185.25263 151.361239 
L 187.173663 169.202946 
L 189.094696 182.395619 
L 194.857795 181.572555 
L 196.778827 189.220553 
L 198.69986 191.747301 
L 200.620893 179.829018 
L 202.541926 191.899859 
L 208.305024 172.903944 
L 210.226057 172.73967 
L 212.14709 163.430188 
L 214.068123 174.346001 
L 215.989155 167.382401 
L 221.752254 166.731277 
L 223.673287 178.445869 
L 225.59432 178.595633 
L 227.515352 186.134672 
L 229.436385 179.257164 
L 235.199484 176.267518 
L 237.120516 176.536905 
L 239.041549 181.374947 
L 240.962582 183.591074 
L 242.883615 184.951188 
L 248.646713 178.515574 
L 250.567746 171.260901 
L 252.488779 171.740869 
L 256.330845 172.061717 
L 262.093943 180.801892 
L 264.014976 199.089414 
L 265.936009 212.473599 
L 267.857041 200.84733 
L 269.778074 206.95371 
L 275.541173 190.065323 
L 277.462205 172.909252 
L 279.383238 166.066653 
L 281.304271 165.042537 
L 283.225304 162.421979 
L 288.988402 171.886743 
L 290.909435 167.506282 
L 292.830468 161.627993 
L 294.751501 156.513485 
L 296.672534 166.899011 
L 302.435632 180.63044 
L 304.356665 157.862478 
L 306.277698 153.928283 
L 308.198731 145.080807 
L 315.882862 133.350868 
L 317.803895 133.862818 
L 319.724927 133.614588 
L 321.64596 135.418257 
L 323.566993 139.352143 
L 329.330091 124.217551 
L 331.251124 112.952075 
L 333.172157 139.655444 
L 335.09319 130.373577 
L 337.014223 128.150703 
L 342.777321 127.534002 
L 344.698354 119.256007 
L 346.619387 117.045509 
L 348.54042 129.113364 
L 350.461452 126.394773 
L 358.145584 147.989632 
L 360.066616 154.532367 
L 361.987649 165.14529 
L 363.908682 188.29282 
L 369.671781 186.78235 
L 371.592813 198.006719 
L 373.513846 197.525822 
L 375.434879 203.651111 
L 377.355912 179.555375 
L 383.11901 159.257164 
L 385.040043 151.019361 
L 386.961076 133.361302 
L 388.882109 196.709548 
L 390.803141 194.719516 
L 396.56624 210.934955 
L 398.487273 212.957504 
" style="fill:none;stroke:#0000ff;stroke-linecap:square;stroke-opacity:0.9;stroke-width:2;"/>
   </g>
   <g id="line2d_12">
    <path clip-path="url(#pf2675bd638)" d="M 73.832727 182.104977 
L 75.75376 176.544909 
L 77.674793 172.563292 
L 79.595826 178.734172 
L 81.516859 166.967738 
L 87.279957 164.0095 
L 89.20099 162.944598 
L 91.122023 162.750597 
L 93.043055 163.917531 
L 94.964088 163.236081 
L 102.648219 162.379777 
L 104.569252 165.943563 
L 106.490285 167.459796 
L 108.411318 177.934117 
L 114.174416 170.856395 
L 116.095449 180.091354 
L 118.016482 175.661197 
L 119.937515 178.288297 
L 121.858548 190.456152 
L 127.621646 205.840754 
L 129.542679 205.426858 
L 131.463712 200.006067 
L 133.384744 188.572056 
L 135.305777 181.191324 
L 141.068876 175.031021 
L 142.989909 194.508606 
L 144.910941 192.954997 
L 146.831974 202.217458 
L 148.753007 188.607341 
L 154.516105 198.754675 
L 156.437138 184.641681 
L 158.358171 182.185105 
L 160.279204 179.677702 
L 162.200237 175.346911 
L 167.963335 181.480114 
L 169.884368 188.583086 
L 171.805401 191.382814 
L 173.726434 168.487494 
L 175.647466 161.035414 
L 181.410565 158.596878 
L 183.331598 151.139067 
L 185.25263 145.64618 
L 187.173663 157.902964 
L 189.094696 162.959669 
L 194.857795 165.959056 
L 196.778827 170.7289 
L 198.69986 176.902115 
L 200.620893 162.731047 
L 202.541926 161.496587 
L 208.305024 161.262082 
L 210.226057 156.893543 
L 212.14709 149.564826 
L 214.068123 151.732011 
L 215.989155 152.215662 
L 221.752254 150.776723 
L 223.673287 158.161516 
L 225.59432 163.73869 
L 227.515352 163.317203 
L 229.436385 156.480807 
L 235.199484 154.744385 
L 237.120516 156.457397 
L 239.041549 157.241917 
L 240.962582 157.201845 
L 242.883615 161.033757 
L 248.646713 157.148745 
L 250.567746 146.99082 
L 252.488779 146.687236 
L 256.330845 171.922096 
L 262.093943 161.654405 
L 264.014976 181.958258 
L 265.936009 193.12375 
L 267.857041 179.696328 
L 269.778074 187.823595 
L 275.541173 173.394454 
L 277.462205 157.180009 
L 279.383238 150.945275 
L 281.304271 152.499797 
L 283.225304 145.898737 
L 288.988402 155.775198 
L 290.909435 155.850593 
L 292.830468 147.351178 
L 294.751501 147.501762 
L 296.672534 159.779042 
L 302.435632 171.540874 
L 304.356665 152.846252 
L 306.277698 147.538218 
L 308.198731 138.552931 
L 315.882862 126.437259 
L 317.803895 127.044655 
L 319.724927 125.747131 
L 321.64596 127.806138 
L 323.566993 130.886574 
L 329.330091 120.545819 
L 331.251124 110.139827 
L 333.172157 132.785661 
L 335.09319 128.785048 
L 337.014223 123.304329 
L 342.777321 124.059476 
L 344.698354 118.334197 
L 346.619387 118.045862 
L 348.54042 125.979886 
L 350.461452 126.607048 
L 358.145584 148.587901 
L 360.066616 158.092657 
L 361.987649 167.081684 
L 363.908682 187.215895 
L 369.671781 188.381082 
L 371.592813 186.042208 
L 373.513846 187.789838 
L 375.434879 195.38238 
L 377.355912 173.166771 
L 383.11901 157.795425 
L 385.040043 146.618022 
L 386.961076 131.536873 
L 388.882109 174.958931 
L 390.803141 167.723897 
L 396.56624 173.739917 
L 398.487273 167.03303 
" style="fill:none;stroke:#ff0000;stroke-linecap:square;stroke-opacity:0.9;stroke-width:2;"/>
   </g>
   <g id="line2d_13">
    <path clip-path="url(#pf2675bd638)" d="M 73.832727 182.104977 
L 75.75376 176.718414 
L 77.674793 173.597681 
L 79.595826 179.236337 
L 81.516859 169.60594 
L 87.279957 164.186948 
L 89.20099 161.609429 
L 91.122023 164.40434 
L 93.043055 163.054722 
L 94.964088 162.819083 
L 102.648219 162.995878 
L 104.569252 165.037422 
L 106.490285 167.87294 
L 108.411318 176.536502 
L 114.174416 168.70501 
L 116.095449 181.568133 
L 118.016482 174.854552 
L 119.937515 176.382468 
L 121.858548 184.79105 
L 127.621646 201.091617 
L 129.542679 202.594822 
L 131.463712 195.996446 
L 133.384744 181.082783 
L 135.305777 173.045505 
L 141.068876 165.775732 
L 142.989909 186.002298 
L 144.910941 184.149783 
L 146.831974 191.541427 
L 148.753007 176.981048 
L 154.516105 195.572518 
L 156.437138 180.594206 
L 158.358171 176.586144 
L 160.279204 175.223012 
L 162.200237 171.376185 
L 167.963335 176.16093 
L 169.884368 183.763263 
L 171.805401 185.302239 
L 173.726434 166.930241 
L 175.647466 165.062497 
L 181.410565 158.15761 
L 183.331598 147.824938 
L 185.25263 143.699597 
L 187.173663 161.06274 
L 189.094696 174.556456 
L 194.857795 173.166502 
L 196.778827 181.963306 
L 198.69986 184.900761 
L 200.620893 172.678763 
L 202.541926 170.048424 
L 208.305024 165.463376 
L 210.226057 162.715687 
L 212.14709 155.121671 
L 214.068123 154.530271 
L 215.989155 147.373915 
L 221.752254 145.695867 
L 223.673287 157.763726 
L 225.59432 166.119887 
L 227.515352 166.283109 
L 229.436385 158.317854 
L 235.199484 154.861773 
L 237.120516 160.418601 
L 239.041549 160.334341 
L 240.962582 163.343118 
L 242.883615 163.957539 
L 248.646713 157.938027 
L 250.567746 149.675467 
L 252.488779 150.534376 
L 256.330845 170.808721 
L 262.093943 159.07423 
L 264.014976 177.528807 
L 265.936009 191.526564 
L 267.857041 179.862468 
L 269.778074 186.223144 
L 275.541173 168.513849 
L 277.462205 150.722493 
L 279.383238 143.389526 
L 281.304271 143.097798 
L 283.225304 139.318234 
L 288.988402 149.028446 
L 290.909435 144.339319 
L 292.830468 139.32853 
L 294.751501 134.522861 
L 296.672534 144.882796 
L 302.435632 158.549546 
L 304.356665 135.095056 
L 306.277698 131.438063 
L 308.198731 121.690318 
L 315.882862 109.063204 
L 317.803895 109.91339 
L 319.724927 110.047236 
L 321.64596 111.150967 
L 323.566993 115.715738 
L 329.330091 100.627361 
L 331.251124 87.424814 
L 333.172157 114.748027 
L 335.09319 105.768367 
L 337.014223 103.632599 
L 342.777321 102.994845 
L 344.698354 94.208918 
L 346.619387 92.37627 
L 348.54042 104.98524 
L 350.461452 101.707437 
L 358.145584 123.638678 
L 360.066616 130.065833 
L 361.987649 140.699768 
L 363.908682 164.233273 
L 369.671781 162.1966 
L 371.592813 174.332527 
L 373.513846 174.267932 
L 375.434879 180.462959 
L 377.355912 155.55351 
L 383.11901 134.671692 
L 385.040043 125.799223 
L 386.961076 108.030821 
L 388.882109 172.00833 
L 390.803141 170.114075 
L 396.56624 186.40468 
L 398.487273 188.434377 
" style="fill:none;stroke:#ff8040;stroke-linecap:square;stroke-opacity:0.9;stroke-width:2;"/>
   </g>
   <g id="line2d_14">
    <path clip-path="url(#pf2675bd638)" d="M 73.832727 183.053402 
L 75.75376 180.490713 
L 77.674793 177.014249 
L 79.595826 184.458742 
L 81.516859 173.802292 
L 87.279957 174.414619 
L 89.20099 173.073659 
L 91.122023 174.032192 
L 93.043055 180.722795 
L 94.964088 179.743818 
L 102.648219 179.956587 
L 104.569252 185.480665 
L 106.490285 187.238209 
L 108.411318 199.824954 
L 114.174416 194.032132 
L 116.095449 203.444074 
L 118.016482 200.650157 
L 119.937515 203.200731 
L 121.858548 213.704889 
L 127.621646 232.374804 
L 129.542679 231.826166 
L 131.463712 222.847158 
L 133.384744 210.491295 
L 135.305777 203.032505 
L 141.068876 197.44258 
L 142.989909 217.126981 
L 144.910941 219.445034 
L 146.831974 229.866802 
L 148.753007 214.736377 
L 154.516105 220.899846 
L 156.437138 208.582998 
L 158.358171 207.496679 
L 160.279204 211.667754 
L 162.200237 207.069627 
L 167.963335 215.685113 
L 169.884368 222.137702 
L 171.805401 225.866849 
L 173.726434 207.849387 
L 175.647466 200.210675 
L 181.410565 198.8713 
L 183.331598 191.095583 
L 185.25263 184.570387 
L 187.173663 198.763085 
L 189.094696 206.059639 
L 194.857795 210.844193 
L 196.778827 218.652291 
L 198.69986 221.427281 
L 200.620893 211.225378 
L 202.541926 211.565564 
L 208.305024 217.468369 
L 210.226057 212.553447 
L 212.14709 206.656704 
L 214.068123 207.932608 
L 215.989155 210.741862 
L 221.752254 208.66369 
L 223.673287 215.864415 
L 225.59432 218.756478 
L 227.515352 218.315695 
L 229.436385 210.928477 
L 235.199484 208.508361 
L 237.120516 210.079355 
L 239.041549 210.303584 
L 240.962582 209.489067 
L 242.883615 213.621282 
L 248.646713 211.606537 
L 250.567746 201.097315 
L 252.488779 201.048423 
L 256.330845 222.23412 
L 262.093943 215.228798 
L 264.014976 238.145721 
L 265.936009 249.18254 
L 267.857041 240.567297 
L 269.778074 251.226675 
L 275.541173 237.005407 
L 277.462205 221.170031 
L 279.383238 211.22516 
L 281.304271 211.790516 
L 283.225304 207.218804 
L 288.988402 215.614323 
L 290.909435 215.947445 
L 292.830468 208.789408 
L 294.751501 199.084061 
L 296.672534 209.859337 
L 302.435632 221.760962 
L 304.356665 200.915281 
L 306.277698 194.651143 
L 308.198731 186.403856 
L 315.882862 177.88189 
L 317.803895 178.775918 
L 319.724927 176.741241 
L 321.64596 177.021802 
L 323.566993 178.113863 
L 329.330091 163.671272 
L 331.251124 158.946883 
L 333.172157 177.639361 
L 335.09319 175.002373 
L 337.014223 174.477793 
L 342.777321 171.957896 
L 344.698354 166.400586 
L 346.619387 166.30643 
L 348.54042 171.931395 
L 350.461452 171.216592 
L 358.145584 194.022306 
L 360.066616 203.177159 
L 361.987649 214.371135 
L 363.908682 233.870092 
L 369.671781 239.028045 
L 371.592813 241.83598 
L 373.513846 243.462517 
L 375.434879 249.735632 
L 377.355912 233.508537 
L 383.11901 219.760894 
L 385.040043 212.542629 
L 386.961076 195.064669 
L 388.882109 265.797818 
L 390.803141 257.688299 
L 396.56624 262.738694 
L 398.487273 263.456028 
" style="fill:none;stroke:#0d0d0d;stroke-linecap:square;stroke-opacity:0.25;stroke-width:2;"/>
   </g>
   <g id="line2d_15">
    <path clip-path="url(#pf2675bd638)" d="M 73.832727 181.156553 
L 75.75376 172.625775 
L 77.674793 166.881137 
L 79.595826 170.969759 
L 81.516859 159.010726 
L 87.279957 147.404336 
L 89.20099 146.692897 
L 91.122023 146.980938 
L 93.043055 145.593461 
L 94.964088 144.816052 
L 102.648219 144.744973 
L 104.569252 147.374149 
L 106.490285 149.177782 
L 108.411318 157.303404 
L 114.174416 149.30851 
L 116.095449 156.235307 
L 118.016482 150.922143 
L 119.937515 152.83101 
L 121.858548 165.854456 
L 127.621646 183.912025 
L 129.542679 185.1159 
L 131.463712 177.187566 
L 133.384744 162.775527 
L 135.305777 153.834519 
L 141.068876 147.750731 
L 142.989909 168.525613 
L 144.910941 168.266896 
L 146.831974 176.936482 
L 148.753007 160.55253 
L 154.516105 169.03322 
L 156.437138 155.331293 
L 158.358171 154.06894 
L 160.279204 155.241102 
L 162.200237 151.016299 
L 167.963335 153.825969 
L 169.884368 161.24702 
L 171.805401 159.359276 
L 173.726434 136.728934 
L 175.647466 133.107523 
L 181.410565 124.394145 
L 183.331598 114.3822 
L 185.25263 110.701665 
L 187.173663 112.179042 
L 189.094696 122.710511 
L 194.857795 126.776188 
L 196.778827 133.499539 
L 198.69986 138.952799 
L 200.620893 123.216355 
L 202.541926 122.119579 
L 208.305024 125.563784 
L 210.226057 121.237718 
L 212.14709 112.347285 
L 214.068123 113.840268 
L 215.989155 112.793972 
L 221.752254 110.627637 
L 223.673287 116.430302 
L 225.59432 119.128591 
L 227.515352 118.403006 
L 229.436385 110.330358 
L 235.199484 110.033328 
L 237.120516 112.122651 
L 239.041549 111.2014 
L 240.962582 105.227534 
L 242.883615 104.517152 
L 248.646713 102.553878 
L 250.567746 90.949893 
L 252.488779 91.361486 
L 256.330845 116.795071 
L 262.093943 103.622213 
L 264.014976 129.27666 
L 265.936009 141.86118 
L 267.857041 128.73632 
L 269.778074 138.695815 
L 275.541173 126.641389 
L 277.462205 106.59403 
L 279.383238 99.846415 
L 281.304271 101.09516 
L 283.225304 89.817524 
L 288.988402 100.698989 
L 290.909435 101.269741 
L 292.830468 94.048419 
L 294.751501 93.302113 
L 296.672534 109.067895 
L 302.435632 119.215373 
L 304.356665 95.823918 
L 306.277698 91.152337 
L 308.198731 82.247866 
L 315.882862 71.109242 
L 317.803895 73.078182 
L 319.724927 72.730616 
L 321.64596 73.728758 
L 323.566993 78.894367 
L 329.330091 66.693937 
L 331.251124 52.154182 
L 333.172157 79.518966 
L 335.09319 77.153102 
L 337.014223 72.867202 
L 342.777321 71.791888 
L 344.698354 66.253481 
L 346.619387 63.007298 
L 348.54042 67.293261 
L 350.461452 67.640564 
L 358.145584 87.214312 
L 360.066616 100.89095 
L 361.987649 111.493426 
L 363.908682 130.30605 
L 369.671781 130.694028 
L 371.592813 119.084894 
L 373.513846 120.321926 
L 375.434879 128.36282 
L 377.355912 112.54821 
L 383.11901 100.529764 
L 385.040043 88.729885 
L 386.961076 73.937248 
L 388.882109 91.173449 
L 390.803141 84.430349 
L 396.56624 95.380096 
L 398.487273 88.485375 
" style="fill:none;stroke:#0d0d0d;stroke-linecap:square;stroke-opacity:0.25;stroke-width:2;"/>
   </g>
   <g id="patch_3">
    <path d="M 57.6 276.48 
L 57.6 41.472 
" style="fill:none;stroke:#000000;stroke-linecap:square;stroke-linejoin:miter;stroke-width:0.8;"/>
   </g>
   <g id="patch_4">
    <path d="M 414.72 276.48 
L 414.72 41.472 
" style="fill:none;stroke:#000000;stroke-linecap:square;stroke-linejoin:miter;stroke-width:0.8;"/>
   </g>
   <g id="patch_5">
    <path d="M 57.6 276.48 
L 414.72 276.48 
" style="fill:none;stroke:#000000;stroke-linecap:square;stroke-linejoin:miter;stroke-width:0.8;"/>
   </g>
   <g id="patch_6">
    <path d="M 57.6 41.472 
L 414.72 41.472 
" style="fill:none;stroke:#000000;stroke-linecap:square;stroke-linejoin:miter;stroke-width:0.8;"/>
   </g>
   <g id="text_12">
    <!-- TESTFUNDS0830 -->
    <g transform="translate(185.200312 22.034625)scale(0.12 -0.12)">
     <defs>
      <path d="M -19 4666 
L 3928 4666 
L 3928 4134 
L 2272 4134 
L 2272 0 
L 1638 0 
L 1638 4134 
L -19 4134 
L -19 4666 
z
" id="DejaVuSans-54" transform="scale(0.015625)"/>
      <path d="M 628 4666 
L 3578 4666 
L 3578 4134 
L 1259 4134 
L 1259 2753 
L 3481 2753 
L 3481 2222 
L 1259 2222 
L 1259 531 
L 3634 531 
L 3634 0 
L 628 0 
L 628 4666 
z
" id="DejaVuSans-45" transform="scale(0.015625)"/>
      <path d="M 3425 4513 
L 3425 3897 
Q 3066 4069 2747 4153 
Q 2428 4238 2131 4238 
Q 1616 4238 1336 4038 
Q 1056 3838 1056 3469 
Q 1056 3159 1242 3001 
Q 1428 2844 1947 2747 
L 2328 2669 
Q 3034 2534 3370 2195 
Q 3706 1856 3706 1288 
Q 3706 609 3251 259 
Q 2797 -91 1919 -91 
Q 1588 -91 1214 -16 
Q 841 59 441 206 
L 441 856 
Q 825 641 1194 531 
Q 1563 422 1919 422 
Q 2459 422 2753 634 
Q 3047 847 3047 1241 
Q 3047 1584 2836 1778 
Q 2625 1972 2144 2069 
L 1759 2144 
Q 1053 2284 737 2584 
Q 422 2884 422 3419 
Q 422 4038 858 4394 
Q 1294 4750 2059 4750 
Q 2388 4750 2728 4690 
Q 3069 4631 3425 4513 
z
" id="DejaVuSans-53" transform="scale(0.015625)"/>
      <path d="M 628 4666 
L 3309 4666 
L 3309 4134 
L 1259 4134 
L 1259 2759 
L 3109 2759 
L 3109 2228 
L 1259 2228 
L 1259 0 
L 628 0 
L 628 4666 
z
" id="DejaVuSans-46" transform="scale(0.015625)"/>
      <path d="M 556 4666 
L 1191 4666 
L 1191 1831 
Q 1191 1081 1462 751 
Q 1734 422 2344 422 
Q 2950 422 3222 751 
Q 3494 1081 3494 1831 
L 3494 4666 
L 4128 4666 
L 4128 1753 
Q 4128 841 3676 375 
Q 3225 -91 2344 -91 
Q 1459 -91 1007 375 
Q 556 841 556 1753 
L 556 4666 
z
" id="DejaVuSans-55" transform="scale(0.015625)"/>
      <path d="M 628 4666 
L 1478 4666 
L 3547 763 
L 3547 4666 
L 4159 4666 
L 4159 0 
L 3309 0 
L 1241 3903 
L 1241 0 
L 628 0 
L 628 4666 
z
" id="DejaVuSans-4e" transform="scale(0.015625)"/>
      <path d="M 1259 4147 
L 1259 519 
L 2022 519 
Q 2988 519 3436 956 
Q 3884 1394 3884 2338 
Q 3884 3275 3436 3711 
Q 2988 4147 2022 4147 
L 1259 4147 
z
M 628 4666 
L 1925 4666 
Q 3281 4666 3915 4102 
Q 4550 3538 4550 2338 
Q 4550 1131 3912 565 
Q 3275 0 1925 0 
L 628 0 
L 628 4666 
z
" id="DejaVuSans-44" transform="scale(0.015625)"/>
      <path d="M 2034 2216 
Q 1584 2216 1326 1975 
Q 1069 1734 1069 1313 
Q 1069 891 1326 650 
Q 1584 409 2034 409 
Q 2484 409 2743 651 
Q 3003 894 3003 1313 
Q 3003 1734 2745 1975 
Q 2488 2216 2034 2216 
z
M 1403 2484 
Q 997 2584 770 2862 
Q 544 3141 544 3541 
Q 544 4100 942 4425 
Q 1341 4750 2034 4750 
Q 2731 4750 3128 4425 
Q 3525 4100 3525 3541 
Q 3525 3141 3298 2862 
Q 3072 2584 2669 2484 
Q 3125 2378 3379 2068 
Q 3634 1759 3634 1313 
Q 3634 634 3220 271 
Q 2806 -91 2034 -91 
Q 1263 -91 848 271 
Q 434 634 434 1313 
Q 434 1759 690 2068 
Q 947 2378 1403 2484 
z
M 1172 3481 
Q 1172 3119 1398 2916 
Q 1625 2713 2034 2713 
Q 2441 2713 2670 2916 
Q 2900 3119 2900 3481 
Q 2900 3844 2670 4047 
Q 2441 4250 2034 4250 
Q 1625 4250 1398 4047 
Q 1172 3844 1172 3481 
z
" id="DejaVuSans-38" transform="scale(0.015625)"/>
      <path d="M 2597 2516 
Q 3050 2419 3304 2112 
Q 3559 1806 3559 1356 
Q 3559 666 3084 287 
Q 2609 -91 1734 -91 
Q 1441 -91 1130 -33 
Q 819 25 488 141 
L 488 750 
Q 750 597 1062 519 
Q 1375 441 1716 441 
Q 2309 441 2620 675 
Q 2931 909 2931 1356 
Q 2931 1769 2642 2001 
Q 2353 2234 1838 2234 
L 1294 2234 
L 1294 2753 
L 1863 2753 
Q 2328 2753 2575 2939 
Q 2822 3125 2822 3475 
Q 2822 3834 2567 4026 
Q 2313 4219 1838 4219 
Q 1578 4219 1281 4162 
Q 984 4106 628 3988 
L 628 4550 
Q 988 4650 1302 4700 
Q 1616 4750 1894 4750 
Q 2613 4750 3031 4423 
Q 3450 4097 3450 3541 
Q 3450 3153 3228 2886 
Q 3006 2619 2597 2516 
z
" id="DejaVuSans-33" transform="scale(0.015625)"/>
     </defs>
     <use xlink:href="#DejaVuSans-54"/>
     <use x="61.083984" xlink:href="#DejaVuSans-45"/>
     <use x="124.267578" xlink:href="#DejaVuSans-53"/>
     <use x="187.744141" xlink:href="#DejaVuSans-54"/>
     <use x="248.828125" xlink:href="#DejaVuSans-46"/>
     <use x="306.347656" xlink:href="#DejaVuSans-55"/>
     <use x="379.541016" xlink:href="#DejaVuSans-4e"/>
     <use x="454.345703" xlink:href="#DejaVuSans-44"/>
     <use x="531.347656" xlink:href="#DejaVuSans-53"/>
     <use x="594.824219" xlink:href="#DejaVuSans-30"/>
     <use x="658.447266" xlink:href="#DejaVuSans-38"/>
     <use x="722.070312" xlink:href="#DejaVuSans-33"/>
     <use x="785.693359" xlink:href="#DejaVuSans-30"/>
    </g>
    <!-- daily_report -->
    <g transform="translate(200.466563 35.472)scale(0.12 -0.12)">
     <defs>
      <path d="M 603 3500 
L 1178 3500 
L 1178 0 
L 603 0 
L 603 3500 
z
M 603 4863 
L 1178 4863 
L 1178 4134 
L 603 4134 
L 603 4863 
z
" id="DejaVuSans-69" transform="scale(0.015625)"/>
      <path d="M 603 4863 
L 1178 4863 
L 1178 0 
L 603 0 
L 603 4863 
z
" id="DejaVuSans-6c" transform="scale(0.015625)"/>
      <path d="M 2059 -325 
Q 1816 -950 1584 -1140 
Q 1353 -1331 966 -1331 
L 506 -1331 
L 506 -850 
L 844 -850 
Q 1081 -850 1212 -737 
Q 1344 -625 1503 -206 
L 1606 56 
L 191 3500 
L 800 3500 
L 1894 763 
L 2988 3500 
L 3597 3500 
L 2059 -325 
z
" id="DejaVuSans-79" transform="scale(0.015625)"/>
      <path d="M 3263 -1063 
L 3263 -1509 
L -63 -1509 
L -63 -1063 
L 3263 -1063 
z
" id="DejaVuSans-5f" transform="scale(0.015625)"/>
      <path d="M 2631 2963 
Q 2534 3019 2420 3045 
Q 2306 3072 2169 3072 
Q 1681 3072 1420 2755 
Q 1159 2438 1159 1844 
L 1159 0 
L 581 0 
L 581 3500 
L 1159 3500 
L 1159 2956 
Q 1341 3275 1631 3429 
Q 1922 3584 2338 3584 
Q 2397 3584 2469 3576 
Q 2541 3569 2628 3553 
L 2631 2963 
z
" id="DejaVuSans-72" transform="scale(0.015625)"/>
      <path d="M 1159 525 
L 1159 -1331 
L 581 -1331 
L 581 3500 
L 1159 3500 
L 1159 2969 
Q 1341 3281 1617 3432 
Q 1894 3584 2278 3584 
Q 2916 3584 3314 3078 
Q 3713 2572 3713 1747 
Q 3713 922 3314 415 
Q 2916 -91 2278 -91 
Q 1894 -91 1617 61 
Q 1341 213 1159 525 
z
M 3116 1747 
Q 3116 2381 2855 2742 
Q 2594 3103 2138 3103 
Q 1681 3103 1420 2742 
Q 1159 2381 1159 1747 
Q 1159 1113 1420 752 
Q 1681 391 2138 391 
Q 2594 391 2855 752 
Q 3116 1113 3116 1747 
z
" id="DejaVuSans-70" transform="scale(0.015625)"/>
      <path d="M 1959 3097 
Q 1497 3097 1228 2736 
Q 959 2375 959 1747 
Q 959 1119 1226 758 
Q 1494 397 1959 397 
Q 2419 397 2687 759 
Q 2956 1122 2956 1747 
Q 2956 2369 2687 2733 
Q 2419 3097 1959 3097 
z
M 1959 3584 
Q 2709 3584 3137 3096 
Q 3566 2609 3566 1747 
Q 3566 888 3137 398 
Q 2709 -91 1959 -91 
Q 1206 -91 779 398 
Q 353 888 353 1747 
Q 353 2609 779 3096 
Q 1206 3584 1959 3584 
z
" id="DejaVuSans-6f" transform="scale(0.015625)"/>
     </defs>
     <use xlink:href="#DejaVuSans-64"/>
     <use x="63.476562" xlink:href="#DejaVuSans-61"/>
     <use x="124.755859" xlink:href="#DejaVuSans-69"/>
     <use x="152.539062" xlink:href="#DejaVuSans-6c"/>
     <use x="180.322266" xlink:href="#DejaVuSans-79"/>
     <use x="239.501953" xlink:href="#DejaVuSans-5f"/>
     <use x="289.501953" xlink:href="#DejaVuSans-72"/>
     <use x="328.365234" xlink:href="#DejaVuSans-65"/>
     <use x="389.888672" xlink:href="#DejaVuSans-70"/>
     <use x="453.365234" xlink:href="#DejaVuSans-6f"/>
     <use x="514.546875" xlink:href="#DejaVuSans-72"/>
     <use x="555.660156" xlink:href="#DejaVuSans-74"/>
    </g>
   </g>
   <g id="legend_1">
    <g id="patch_7">
     <path d="M 64.6 122.862625 
L 155.792188 122.862625 
Q 157.792188 122.862625 157.792188 120.862625 
L 157.792188 48.472 
Q 157.792188 46.472 155.792188 46.472 
L 64.6 46.472 
Q 62.6 46.472 62.6 48.472 
L 62.6 120.862625 
Q 62.6 122.862625 64.6 122.862625 
z
" style="fill:#ffffff;opacity:0.8;stroke:#cccccc;stroke-linejoin:miter;"/>
    </g>
    <g id="line2d_16">
     <path d="M 66.6 54.570437 
L 86.6 54.570437 
" style="fill:none;stroke:#0000ff;stroke-linecap:square;stroke-opacity:0.9;stroke-width:2;"/>
    </g>
    <g id="line2d_17"/>
    <g id="text_13">
     <!-- alpaca -->
     <g transform="translate(94.6 58.070437)scale(0.1 -0.1)">
      <defs>
       <path d="M 3122 3366 
L 3122 2828 
Q 2878 2963 2633 3030 
Q 2388 3097 2138 3097 
Q 1578 3097 1268 2742 
Q 959 2388 959 1747 
Q 959 1106 1268 751 
Q 1578 397 2138 397 
Q 2388 397 2633 464 
Q 2878 531 3122 666 
L 3122 134 
Q 2881 22 2623 -34 
Q 2366 -91 2075 -91 
Q 1284 -91 818 406 
Q 353 903 353 1747 
Q 353 2603 823 3093 
Q 1294 3584 2113 3584 
Q 2378 3584 2631 3529 
Q 2884 3475 3122 3366 
z
" id="DejaVuSans-63" transform="scale(0.015625)"/>
      </defs>
      <use xlink:href="#DejaVuSans-61"/>
      <use x="61.279297" xlink:href="#DejaVuSans-6c"/>
      <use x="89.0625" xlink:href="#DejaVuSans-70"/>
      <use x="152.539062" xlink:href="#DejaVuSans-61"/>
      <use x="213.818359" xlink:href="#DejaVuSans-63"/>
      <use x="268.798828" xlink:href="#DejaVuSans-61"/>
     </g>
    </g>
    <g id="line2d_18">
     <path d="M 66.6 69.248562 
L 86.6 69.248562 
" style="fill:none;stroke:#ff0000;stroke-linecap:square;stroke-opacity:0.9;stroke-width:2;"/>
    </g>
    <g id="line2d_19"/>
    <g id="text_14">
     <!-- mattress -->
     <g transform="translate(94.6 72.748562)scale(0.1 -0.1)">
      <defs>
       <path d="M 3328 2828 
Q 3544 3216 3844 3400 
Q 4144 3584 4550 3584 
Q 5097 3584 5394 3201 
Q 5691 2819 5691 2113 
L 5691 0 
L 5113 0 
L 5113 2094 
Q 5113 2597 4934 2840 
Q 4756 3084 4391 3084 
Q 3944 3084 3684 2787 
Q 3425 2491 3425 1978 
L 3425 0 
L 2847 0 
L 2847 2094 
Q 2847 2600 2669 2842 
Q 2491 3084 2119 3084 
Q 1678 3084 1418 2786 
Q 1159 2488 1159 1978 
L 1159 0 
L 581 0 
L 581 3500 
L 1159 3500 
L 1159 2956 
Q 1356 3278 1631 3431 
Q 1906 3584 2284 3584 
Q 2666 3584 2933 3390 
Q 3200 3197 3328 2828 
z
" id="DejaVuSans-6d" transform="scale(0.015625)"/>
       <path d="M 2834 3397 
L 2834 2853 
Q 2591 2978 2328 3040 
Q 2066 3103 1784 3103 
Q 1356 3103 1142 2972 
Q 928 2841 928 2578 
Q 928 2378 1081 2264 
Q 1234 2150 1697 2047 
L 1894 2003 
Q 2506 1872 2764 1633 
Q 3022 1394 3022 966 
Q 3022 478 2636 193 
Q 2250 -91 1575 -91 
Q 1294 -91 989 -36 
Q 684 19 347 128 
L 347 722 
Q 666 556 975 473 
Q 1284 391 1588 391 
Q 1994 391 2212 530 
Q 2431 669 2431 922 
Q 2431 1156 2273 1281 
Q 2116 1406 1581 1522 
L 1381 1569 
Q 847 1681 609 1914 
Q 372 2147 372 2553 
Q 372 3047 722 3315 
Q 1072 3584 1716 3584 
Q 2034 3584 2315 3537 
Q 2597 3491 2834 3397 
z
" id="DejaVuSans-73" transform="scale(0.015625)"/>
      </defs>
      <use xlink:href="#DejaVuSans-6d"/>
      <use x="97.412109" xlink:href="#DejaVuSans-61"/>
      <use x="158.691406" xlink:href="#DejaVuSans-74"/>
      <use x="197.900391" xlink:href="#DejaVuSans-74"/>
      <use x="237.109375" xlink:href="#DejaVuSans-72"/>
      <use x="275.972656" xlink:href="#DejaVuSans-65"/>
      <use x="337.496094" xlink:href="#DejaVuSans-73"/>
      <use x="389.595703" xlink:href="#DejaVuSans-73"/>
     </g>
    </g>
    <g id="line2d_20">
     <path d="M 66.6 83.926687 
L 86.6 83.926687 
" style="fill:none;stroke:#ff8040;stroke-linecap:square;stroke-opacity:0.9;stroke-width:2;"/>
    </g>
    <g id="line2d_21"/>
    <g id="text_15">
     <!-- trader-0850 -->
     <g transform="translate(94.6 87.426687)scale(0.1 -0.1)">
      <use xlink:href="#DejaVuSans-74"/>
      <use x="39.208984" xlink:href="#DejaVuSans-72"/>
      <use x="80.322266" xlink:href="#DejaVuSans-61"/>
      <use x="141.601562" xlink:href="#DejaVuSans-64"/>
      <use x="205.078125" xlink:href="#DejaVuSans-65"/>
      <use x="266.601562" xlink:href="#DejaVuSans-72"/>
      <use x="301.339844" xlink:href="#DejaVuSans-2d"/>
      <use x="337.423828" xlink:href="#DejaVuSans-30"/>
      <use x="401.046875" xlink:href="#DejaVuSans-38"/>
      <use x="464.669922" xlink:href="#DejaVuSans-35"/>
      <use x="528.292969" xlink:href="#DejaVuSans-30"/>
     </g>
    </g>
    <g id="line2d_22">
     <path d="M 66.6 98.604812 
L 86.6 98.604812 
" style="fill:none;stroke:#0d0d0d;stroke-linecap:square;stroke-opacity:0.25;stroke-width:2;"/>
    </g>
    <g id="line2d_23"/>
    <g id="text_16">
     <!-- rando-min -->
     <g transform="translate(94.6 102.104812)scale(0.1 -0.1)">
      <defs>
       <path d="M 3513 2113 
L 3513 0 
L 2938 0 
L 2938 2094 
Q 2938 2591 2744 2837 
Q 2550 3084 2163 3084 
Q 1697 3084 1428 2787 
Q 1159 2491 1159 1978 
L 1159 0 
L 581 0 
L 581 3500 
L 1159 3500 
L 1159 2956 
Q 1366 3272 1645 3428 
Q 1925 3584 2291 3584 
Q 2894 3584 3203 3211 
Q 3513 2838 3513 2113 
z
" id="DejaVuSans-6e" transform="scale(0.015625)"/>
      </defs>
      <use xlink:href="#DejaVuSans-72"/>
      <use x="41.113281" xlink:href="#DejaVuSans-61"/>
      <use x="102.392578" xlink:href="#DejaVuSans-6e"/>
      <use x="165.771484" xlink:href="#DejaVuSans-64"/>
      <use x="229.248047" xlink:href="#DejaVuSans-6f"/>
      <use x="292.304688" xlink:href="#DejaVuSans-2d"/>
      <use x="328.388672" xlink:href="#DejaVuSans-6d"/>
      <use x="425.800781" xlink:href="#DejaVuSans-69"/>
      <use x="453.583984" xlink:href="#DejaVuSans-6e"/>
     </g>
    </g>
    <g id="line2d_24">
     <path d="M 66.6 113.282937 
L 86.6 113.282937 
" style="fill:none;stroke:#0d0d0d;stroke-linecap:square;stroke-opacity:0.25;stroke-width:2;"/>
    </g>
    <g id="line2d_25"/>
    <g id="text_17">
     <!-- rando-max -->
     <g transform="translate(94.6 116.782937)scale(0.1 -0.1)">
      <defs>
       <path d="M 3513 3500 
L 2247 1797 
L 3578 0 
L 2900 0 
L 1881 1375 
L 863 0 
L 184 0 
L 1544 1831 
L 300 3500 
L 978 3500 
L 1906 2253 
L 2834 3500 
L 3513 3500 
z
" id="DejaVuSans-78" transform="scale(0.015625)"/>
      </defs>
      <use xlink:href="#DejaVuSans-72"/>
      <use x="41.113281" xlink:href="#DejaVuSans-61"/>
      <use x="102.392578" xlink:href="#DejaVuSans-6e"/>
      <use x="165.771484" xlink:href="#DejaVuSans-64"/>
      <use x="229.248047" xlink:href="#DejaVuSans-6f"/>
      <use x="292.304688" xlink:href="#DejaVuSans-2d"/>
      <use x="328.388672" xlink:href="#DejaVuSans-6d"/>
      <use x="425.800781" xlink:href="#DejaVuSans-61"/>
      <use x="487.080078" xlink:href="#DejaVuSans-78"/>
     </g>
    </g>
   </g>
  </g>
 </g>
 <defs>
  <clipPath id="pf2675bd638">
   <rect height="235.008" width="357.12" x="57.6" y="41.472"/>
  </clipPath>
 </defs>
</svg>
