<?xml version="1.0" encoding="utf-8" standalone="no"?>
<!DOCTYPE svg PUBLIC "-//W3C//DTD SVG 1.1//EN"
  "http://www.w3.org/Graphics/SVG/1.1/DTD/svg11.dtd">
<svg height="345.6pt" version="1.1" viewBox="0 0 460.8 345.6" width="460.8pt" xmlns="http://www.w3.org/2000/svg" xmlns:xlink="http://www.w3.org/1999/xlink">
 <metadata>
  <rdf:RDF xmlns:cc="http://creativecommons.org/ns#" xmlns:dc="http://purl.org/dc/elements/1.1/" xmlns:rdf="http://www.w3.org/1999/02/22-rdf-syntax-ns#">
   <cc:Work>
    <dc:type rdf:resource="http://purl.org/dc/dcmitype/StillImage"/>
    <dc:date>2022-05-11T01:01:55.257429</dc:date>
    <dc:format>image/svg+xml</dc:format>
    <dc:creator>
     <cc:Agent>
      <dc:title>Matplotlib v3.4.3, https://matplotlib.org/</dc:title>
     </cc:Agent>
    </dc:creator>
   </cc:Work>
  </rdf:RDF>
 </metadata>
 <defs>
  <style type="text/css">*{stroke-linecap:butt;stroke-linejoin:round;}</style>
 </defs>
 <g id="figure_1">
  <g id="patch_1">
   <path d="M 0 345.6 
L 460.8 345.6 
L 460.8 0 
L 0 0 
z
" style="fill:#ffffff;"/>
  </g>
  <g id="axes_1">
   <g id="patch_2">
    <path d="M 57.6 276.48 
L 414.72 276.48 
L 414.72 41.472 
L 57.6 41.472 
z
" style="fill:#ffffff;"/>
   </g>
   <g id="matplotlib.axis_1">
    <g id="xtick_1">
     <g id="line2d_1">
      <defs>
       <path d="M 0 0 
L 0 3.5 
" id="mef8fa5ffd7" style="stroke:#000000;stroke-width:0.8;"/>
      </defs>
      <g>
       <use style="stroke:#000000;stroke-width:0.8;" x="85.070769" xlink:href="#mef8fa5ffd7" y="276.48"/>
      </g>
     </g>
     <g id="text_1">
      <!-- 2021-09 -->
      <g transform="translate(47.845948 310.951846)rotate(-30)scale(0.1 -0.1)">
       <defs>
        <path d="M 1228 531 
L 3431 531 
L 3431 0 
L 469 0 
L 469 531 
Q 828 903 1448 1529 
Q 2069 2156 2228 2338 
Q 2531 2678 2651 2914 
Q 2772 3150 2772 3378 
Q 2772 3750 2511 3984 
Q 2250 4219 1831 4219 
Q 1534 4219 1204 4116 
Q 875 4013 500 3803 
L 500 4441 
Q 881 4594 1212 4672 
Q 1544 4750 1819 4750 
Q 2544 4750 2975 4387 
Q 3406 4025 3406 3419 
Q 3406 3131 3298 2873 
Q 3191 2616 2906 2266 
Q 2828 2175 2409 1742 
Q 1991 1309 1228 531 
z
" id="DejaVuSans-32" transform="scale(0.015625)"/>
        <path d="M 2034 4250 
Q 1547 4250 1301 3770 
Q 1056 3291 1056 2328 
Q 1056 1369 1301 889 
Q 1547 409 2034 409 
Q 2525 409 2770 889 
Q 3016 1369 3016 2328 
Q 3016 3291 2770 3770 
Q 2525 4250 2034 4250 
z
M 2034 4750 
Q 2819 4750 3233 4129 
Q 3647 3509 3647 2328 
Q 3647 1150 3233 529 
Q 2819 -91 2034 -91 
Q 1250 -91 836 529 
Q 422 1150 422 2328 
Q 422 3509 836 4129 
Q 1250 4750 2034 4750 
z
" id="DejaVuSans-30" transform="scale(0.015625)"/>
        <path d="M 794 531 
L 1825 531 
L 1825 4091 
L 703 3866 
L 703 4441 
L 1819 4666 
L 2450 4666 
L 2450 531 
L 3481 531 
L 3481 0 
L 794 0 
L 794 531 
z
" id="DejaVuSans-31" transform="scale(0.015625)"/>
        <path d="M 313 2009 
L 1997 2009 
L 1997 1497 
L 313 1497 
L 313 2009 
z
" id="DejaVuSans-2d" transform="scale(0.015625)"/>
        <path d="M 703 97 
L 703 672 
Q 941 559 1184 500 
Q 1428 441 1663 441 
Q 2288 441 2617 861 
Q 2947 1281 2994 2138 
Q 2813 1869 2534 1725 
Q 2256 1581 1919 1581 
Q 1219 1581 811 2004 
Q 403 2428 403 3163 
Q 403 3881 828 4315 
Q 1253 4750 1959 4750 
Q 2769 4750 3195 4129 
Q 3622 3509 3622 2328 
Q 3622 1225 3098 567 
Q 2575 -91 1691 -91 
Q 1453 -91 1209 -44 
Q 966 3 703 97 
z
M 1959 2075 
Q 2384 2075 2632 2365 
Q 2881 2656 2881 3163 
Q 2881 3666 2632 3958 
Q 2384 4250 1959 4250 
Q 1534 4250 1286 3958 
Q 1038 3666 1038 3163 
Q 1038 2656 1286 2365 
Q 1534 2075 1959 2075 
z
" id="DejaVuSans-39" transform="scale(0.015625)"/>
       </defs>
       <use xlink:href="#DejaVuSans-32"/>
       <use x="63.623047" xlink:href="#DejaVuSans-30"/>
       <use x="127.246094" xlink:href="#DejaVuSans-32"/>
       <use x="190.869141" xlink:href="#DejaVuSans-31"/>
       <use x="254.492188" xlink:href="#DejaVuSans-2d"/>
       <use x="290.576172" xlink:href="#DejaVuSans-30"/>
       <use x="354.199219" xlink:href="#DejaVuSans-39"/>
      </g>
     </g>
    </g>
    <g id="xtick_2">
     <g id="line2d_2">
      <g>
       <use style="stroke:#000000;stroke-width:0.8;" x="122.530909" xlink:href="#mef8fa5ffd7" y="276.48"/>
      </g>
     </g>
     <g id="text_2">
      <!-- 2021-10 -->
      <g transform="translate(85.306088 310.951846)rotate(-30)scale(0.1 -0.1)">
       <use xlink:href="#DejaVuSans-32"/>
       <use x="63.623047" xlink:href="#DejaVuSans-30"/>
       <use x="127.246094" xlink:href="#DejaVuSans-32"/>
       <use x="190.869141" xlink:href="#DejaVuSans-31"/>
       <use x="254.492188" xlink:href="#DejaVuSans-2d"/>
       <use x="290.576172" xlink:href="#DejaVuSans-31"/>
       <use x="354.199219" xlink:href="#DejaVuSans-30"/>
      </g>
     </g>
    </g>
    <g id="xtick_3">
     <g id="line2d_3">
      <g>
       <use style="stroke:#000000;stroke-width:0.8;" x="161.23972" xlink:href="#mef8fa5ffd7" y="276.48"/>
      </g>
     </g>
     <g id="text_3">
      <!-- 2021-11 -->
      <g transform="translate(124.014899 310.951846)rotate(-30)scale(0.1 -0.1)">
       <use xlink:href="#DejaVuSans-32"/>
       <use x="63.623047" xlink:href="#DejaVuSans-30"/>
       <use x="127.246094" xlink:href="#DejaVuSans-32"/>
       <use x="190.869141" xlink:href="#DejaVuSans-31"/>
       <use x="254.492188" xlink:href="#DejaVuSans-2d"/>
       <use x="290.576172" xlink:href="#DejaVuSans-31"/>
       <use x="354.199219" xlink:href="#DejaVuSans-31"/>
      </g>
     </g>
    </g>
    <g id="xtick_4">
     <g id="line2d_4">
      <g>
       <use style="stroke:#000000;stroke-width:0.8;" x="198.69986" xlink:href="#mef8fa5ffd7" y="276.48"/>
      </g>
     </g>
     <g id="text_4">
      <!-- 2021-12 -->
      <g transform="translate(161.475039 310.951846)rotate(-30)scale(0.1 -0.1)">
       <use xlink:href="#DejaVuSans-32"/>
       <use x="63.623047" xlink:href="#DejaVuSans-30"/>
       <use x="127.246094" xlink:href="#DejaVuSans-32"/>
       <use x="190.869141" xlink:href="#DejaVuSans-31"/>
       <use x="254.492188" xlink:href="#DejaVuSans-2d"/>
       <use x="290.576172" xlink:href="#DejaVuSans-31"/>
       <use x="354.199219" xlink:href="#DejaVuSans-32"/>
      </g>
     </g>
    </g>
    <g id="xtick_5">
     <g id="line2d_5">
      <g>
       <use style="stroke:#000000;stroke-width:0.8;" x="237.408671" xlink:href="#mef8fa5ffd7" y="276.48"/>
      </g>
     </g>
     <g id="text_5">
      <!-- 2022-01 -->
      <g transform="translate(200.183851 310.951846)rotate(-30)scale(0.1 -0.1)">
       <use xlink:href="#DejaVuSans-32"/>
       <use x="63.623047" xlink:href="#DejaVuSans-30"/>
       <use x="127.246094" xlink:href="#DejaVuSans-32"/>
       <use x="190.869141" xlink:href="#DejaVuSans-32"/>
       <use x="254.492188" xlink:href="#DejaVuSans-2d"/>
       <use x="290.576172" xlink:href="#DejaVuSans-30"/>
       <use x="354.199219" xlink:href="#DejaVuSans-31"/>
      </g>
     </g>
    </g>
    <g id="xtick_6">
     <g id="line2d_6">
      <g>
       <use style="stroke:#000000;stroke-width:0.8;" x="276.117483" xlink:href="#mef8fa5ffd7" y="276.48"/>
      </g>
     </g>
     <g id="text_6">
      <!-- 2022-02 -->
      <g transform="translate(238.892662 310.951846)rotate(-30)scale(0.1 -0.1)">
       <use xlink:href="#DejaVuSans-32"/>
       <use x="63.623047" xlink:href="#DejaVuSans-30"/>
       <use x="127.246094" xlink:href="#DejaVuSans-32"/>
       <use x="190.869141" xlink:href="#DejaVuSans-32"/>
       <use x="254.492188" xlink:href="#DejaVuSans-2d"/>
       <use x="290.576172" xlink:href="#DejaVuSans-30"/>
       <use x="354.199219" xlink:href="#DejaVuSans-32"/>
      </g>
     </g>
    </g>
    <g id="xtick_7">
     <g id="line2d_7">
      <g>
       <use style="stroke:#000000;stroke-width:0.8;" x="311.08028" xlink:href="#mef8fa5ffd7" y="276.48"/>
      </g>
     </g>
     <g id="text_7">
      <!-- 2022-03 -->
      <g transform="translate(273.855459 310.951846)rotate(-30)scale(0.1 -0.1)">
       <defs>
        <path d="M 2597 2516 
Q 3050 2419 3304 2112 
Q 3559 1806 3559 1356 
Q 3559 666 3084 287 
Q 2609 -91 1734 -91 
Q 1441 -91 1130 -33 
Q 819 25 488 141 
L 488 750 
Q 750 597 1062 519 
Q 1375 441 1716 441 
Q 2309 441 2620 675 
Q 2931 909 2931 1356 
Q 2931 1769 2642 2001 
Q 2353 2234 1838 2234 
L 1294 2234 
L 1294 2753 
L 1863 2753 
Q 2328 2753 2575 2939 
Q 2822 3125 2822 3475 
Q 2822 3834 2567 4026 
Q 2313 4219 1838 4219 
Q 1578 4219 1281 4162 
Q 984 4106 628 3988 
L 628 4550 
Q 988 4650 1302 4700 
Q 1616 4750 1894 4750 
Q 2613 4750 3031 4423 
Q 3450 4097 3450 3541 
Q 3450 3153 3228 2886 
Q 3006 2619 2597 2516 
z
" id="DejaVuSans-33" transform="scale(0.015625)"/>
       </defs>
       <use xlink:href="#DejaVuSans-32"/>
       <use x="63.623047" xlink:href="#DejaVuSans-30"/>
       <use x="127.246094" xlink:href="#DejaVuSans-32"/>
       <use x="190.869141" xlink:href="#DejaVuSans-32"/>
       <use x="254.492188" xlink:href="#DejaVuSans-2d"/>
       <use x="290.576172" xlink:href="#DejaVuSans-30"/>
       <use x="354.199219" xlink:href="#DejaVuSans-33"/>
      </g>
     </g>
    </g>
    <g id="xtick_8">
     <g id="line2d_8">
      <g>
       <use style="stroke:#000000;stroke-width:0.8;" x="349.789091" xlink:href="#mef8fa5ffd7" y="276.48"/>
      </g>
     </g>
     <g id="text_8">
      <!-- 2022-04 -->
      <g transform="translate(312.56427 310.951846)rotate(-30)scale(0.1 -0.1)">
       <defs>
        <path d="M 2419 4116 
L 825 1625 
L 2419 1625 
L 2419 4116 
z
M 2253 4666 
L 3047 4666 
L 3047 1625 
L 3713 1625 
L 3713 1100 
L 3047 1100 
L 3047 0 
L 2419 0 
L 2419 1100 
L 313 1100 
L 313 1709 
L 2253 4666 
z
" id="DejaVuSans-34" transform="scale(0.015625)"/>
       </defs>
       <use xlink:href="#DejaVuSans-32"/>
       <use x="63.623047" xlink:href="#DejaVuSans-30"/>
       <use x="127.246094" xlink:href="#DejaVuSans-32"/>
       <use x="190.869141" xlink:href="#DejaVuSans-32"/>
       <use x="254.492188" xlink:href="#DejaVuSans-2d"/>
       <use x="290.576172" xlink:href="#DejaVuSans-30"/>
       <use x="354.199219" xlink:href="#DejaVuSans-34"/>
      </g>
     </g>
    </g>
    <g id="xtick_9">
     <g id="line2d_9">
      <g>
       <use style="stroke:#000000;stroke-width:0.8;" x="387.249231" xlink:href="#mef8fa5ffd7" y="276.48"/>
      </g>
     </g>
     <g id="text_9">
      <!-- 2022-05 -->
      <g transform="translate(350.02441 310.951846)rotate(-30)scale(0.1 -0.1)">
       <defs>
        <path d="M 691 4666 
L 3169 4666 
L 3169 4134 
L 1269 4134 
L 1269 2991 
Q 1406 3038 1543 3061 
Q 1681 3084 1819 3084 
Q 2600 3084 3056 2656 
Q 3513 2228 3513 1497 
Q 3513 744 3044 326 
Q 2575 -91 1722 -91 
Q 1428 -91 1123 -41 
Q 819 9 494 109 
L 494 744 
Q 775 591 1075 516 
Q 1375 441 1709 441 
Q 2250 441 2565 725 
Q 2881 1009 2881 1497 
Q 2881 1984 2565 2268 
Q 2250 2553 1709 2553 
Q 1456 2553 1204 2497 
Q 953 2441 691 2322 
L 691 4666 
z
" id="DejaVuSans-35" transform="scale(0.015625)"/>
       </defs>
       <use xlink:href="#DejaVuSans-32"/>
       <use x="63.623047" xlink:href="#DejaVuSans-30"/>
       <use x="127.246094" xlink:href="#DejaVuSans-32"/>
       <use x="190.869141" xlink:href="#DejaVuSans-32"/>
       <use x="254.492188" xlink:href="#DejaVuSans-2d"/>
       <use x="290.576172" xlink:href="#DejaVuSans-30"/>
       <use x="354.199219" xlink:href="#DejaVuSans-35"/>
      </g>
     </g>
    </g>
    <g id="text_10">
     <!-- date -->
     <g transform="translate(224.885 324.351346)scale(0.1 -0.1)">
      <defs>
       <path d="M 2906 2969 
L 2906 4863 
L 3481 4863 
L 3481 0 
L 2906 0 
L 2906 525 
Q 2725 213 2448 61 
Q 2172 -91 1784 -91 
Q 1150 -91 751 415 
Q 353 922 353 1747 
Q 353 2572 751 3078 
Q 1150 3584 1784 3584 
Q 2172 3584 2448 3432 
Q 2725 3281 2906 2969 
z
M 947 1747 
Q 947 1113 1208 752 
Q 1469 391 1925 391 
Q 2381 391 2643 752 
Q 2906 1113 2906 1747 
Q 2906 2381 2643 2742 
Q 2381 3103 1925 3103 
Q 1469 3103 1208 2742 
Q 947 2381 947 1747 
z
" id="DejaVuSans-64" transform="scale(0.015625)"/>
       <path d="M 2194 1759 
Q 1497 1759 1228 1600 
Q 959 1441 959 1056 
Q 959 750 1161 570 
Q 1363 391 1709 391 
Q 2188 391 2477 730 
Q 2766 1069 2766 1631 
L 2766 1759 
L 2194 1759 
z
M 3341 1997 
L 3341 0 
L 2766 0 
L 2766 531 
Q 2569 213 2275 61 
Q 1981 -91 1556 -91 
Q 1019 -91 701 211 
Q 384 513 384 1019 
Q 384 1609 779 1909 
Q 1175 2209 1959 2209 
L 2766 2209 
L 2766 2266 
Q 2766 2663 2505 2880 
Q 2244 3097 1772 3097 
Q 1472 3097 1187 3025 
Q 903 2953 641 2809 
L 641 3341 
Q 956 3463 1253 3523 
Q 1550 3584 1831 3584 
Q 2591 3584 2966 3190 
Q 3341 2797 3341 1997 
z
" id="DejaVuSans-61" transform="scale(0.015625)"/>
       <path d="M 1172 4494 
L 1172 3500 
L 2356 3500 
L 2356 3053 
L 1172 3053 
L 1172 1153 
Q 1172 725 1289 603 
Q 1406 481 1766 481 
L 2356 481 
L 2356 0 
L 1766 0 
Q 1100 0 847 248 
Q 594 497 594 1153 
L 594 3053 
L 172 3053 
L 172 3500 
L 594 3500 
L 594 4494 
L 1172 4494 
z
" id="DejaVuSans-74" transform="scale(0.015625)"/>
       <path d="M 3597 1894 
L 3597 1613 
L 953 1613 
Q 991 1019 1311 708 
Q 1631 397 2203 397 
Q 2534 397 2845 478 
Q 3156 559 3463 722 
L 3463 178 
Q 3153 47 2828 -22 
Q 2503 -91 2169 -91 
Q 1331 -91 842 396 
Q 353 884 353 1716 
Q 353 2575 817 3079 
Q 1281 3584 2069 3584 
Q 2775 3584 3186 3129 
Q 3597 2675 3597 1894 
z
M 3022 2063 
Q 3016 2534 2758 2815 
Q 2500 3097 2075 3097 
Q 1594 3097 1305 2825 
Q 1016 2553 972 2059 
L 3022 2063 
z
" id="DejaVuSans-65" transform="scale(0.015625)"/>
      </defs>
      <use xlink:href="#DejaVuSans-64"/>
      <use x="63.476562" xlink:href="#DejaVuSans-61"/>
      <use x="124.755859" xlink:href="#DejaVuSans-74"/>
      <use x="163.964844" xlink:href="#DejaVuSans-65"/>
     </g>
    </g>
   </g>
   <g id="matplotlib.axis_2">
    <g id="ytick_1">
     <g id="line2d_10">
      <defs>
       <path d="M 0 0 
L -3.5 0 
" id="mc663392eee" style="stroke:#000000;stroke-width:0.8;"/>
      </defs>
      <g>
       <use style="stroke:#000000;stroke-width:0.8;" x="57.6" xlink:href="#mc663392eee" y="273.671612"/>
      </g>
     </g>
     <g id="text_11">
      <!-- 80000 -->
      <g transform="translate(18.7875 277.470831)scale(0.1 -0.1)">
       <defs>
        <path d="M 2034 2216 
Q 1584 2216 1326 1975 
Q 1069 1734 1069 1313 
Q 1069 891 1326 650 
Q 1584 409 2034 409 
Q 2484 409 2743 651 
Q 3003 894 3003 1313 
Q 3003 1734 2745 1975 
Q 2488 2216 2034 2216 
z
M 1403 2484 
Q 997 2584 770 2862 
Q 544 3141 544 3541 
Q 544 4100 942 4425 
Q 1341 4750 2034 4750 
Q 2731 4750 3128 4425 
Q 3525 4100 3525 3541 
Q 3525 3141 3298 2862 
Q 3072 2584 2669 2484 
Q 3125 2378 3379 2068 
Q 3634 1759 3634 1313 
Q 3634 634 3220 271 
Q 2806 -91 2034 -91 
Q 1263 -91 848 271 
Q 434 634 434 1313 
Q 434 1759 690 2068 
Q 947 2378 1403 2484 
z
M 1172 3481 
Q 1172 3119 1398 2916 
Q 1625 2713 2034 2713 
Q 2441 2713 2670 2916 
Q 2900 3119 2900 3481 
Q 2900 3844 2670 4047 
Q 2441 4250 2034 4250 
Q 1625 4250 1398 4047 
Q 1172 3844 1172 3481 
z
" id="DejaVuSans-38" transform="scale(0.015625)"/>
       </defs>
       <use xlink:href="#DejaVuSans-38"/>
       <use x="63.623047" xlink:href="#DejaVuSans-30"/>
       <use x="127.246094" xlink:href="#DejaVuSans-30"/>
       <use x="190.869141" xlink:href="#DejaVuSans-30"/>
       <use x="254.492188" xlink:href="#DejaVuSans-30"/>
      </g>
     </g>
    </g>
    <g id="ytick_2">
     <g id="line2d_11">
      <g>
       <use style="stroke:#000000;stroke-width:0.8;" x="57.6" xlink:href="#mc663392eee" y="242.506534"/>
      </g>
     </g>
     <g id="text_12">
      <!-- 85000 -->
      <g transform="translate(18.7875 246.305753)scale(0.1 -0.1)">
       <use xlink:href="#DejaVuSans-38"/>
       <use x="63.623047" xlink:href="#DejaVuSans-35"/>
       <use x="127.246094" xlink:href="#DejaVuSans-30"/>
       <use x="190.869141" xlink:href="#DejaVuSans-30"/>
       <use x="254.492188" xlink:href="#DejaVuSans-30"/>
      </g>
     </g>
    </g>
    <g id="ytick_3">
     <g id="line2d_12">
      <g>
       <use style="stroke:#000000;stroke-width:0.8;" x="57.6" xlink:href="#mc663392eee" y="211.341455"/>
      </g>
     </g>
     <g id="text_13">
      <!-- 90000 -->
      <g transform="translate(18.7875 215.140674)scale(0.1 -0.1)">
       <use xlink:href="#DejaVuSans-39"/>
       <use x="63.623047" xlink:href="#DejaVuSans-30"/>
       <use x="127.246094" xlink:href="#DejaVuSans-30"/>
       <use x="190.869141" xlink:href="#DejaVuSans-30"/>
       <use x="254.492188" xlink:href="#DejaVuSans-30"/>
      </g>
     </g>
    </g>
    <g id="ytick_4">
     <g id="line2d_13">
      <g>
       <use style="stroke:#000000;stroke-width:0.8;" x="57.6" xlink:href="#mc663392eee" y="180.176377"/>
      </g>
     </g>
     <g id="text_14">
      <!-- 95000 -->
      <g transform="translate(18.7875 183.975595)scale(0.1 -0.1)">
       <use xlink:href="#DejaVuSans-39"/>
       <use x="63.623047" xlink:href="#DejaVuSans-35"/>
       <use x="127.246094" xlink:href="#DejaVuSans-30"/>
       <use x="190.869141" xlink:href="#DejaVuSans-30"/>
       <use x="254.492188" xlink:href="#DejaVuSans-30"/>
      </g>
     </g>
    </g>
    <g id="ytick_5">
     <g id="line2d_14">
      <g>
       <use style="stroke:#000000;stroke-width:0.8;" x="57.6" xlink:href="#mc663392eee" y="149.011298"/>
      </g>
     </g>
     <g id="text_15">
      <!-- 100000 -->
      <g transform="translate(12.425 152.810517)scale(0.1 -0.1)">
       <use xlink:href="#DejaVuSans-31"/>
       <use x="63.623047" xlink:href="#DejaVuSans-30"/>
       <use x="127.246094" xlink:href="#DejaVuSans-30"/>
       <use x="190.869141" xlink:href="#DejaVuSans-30"/>
       <use x="254.492188" xlink:href="#DejaVuSans-30"/>
       <use x="318.115234" xlink:href="#DejaVuSans-30"/>
      </g>
     </g>
    </g>
    <g id="ytick_6">
     <g id="line2d_15">
      <g>
       <use style="stroke:#000000;stroke-width:0.8;" x="57.6" xlink:href="#mc663392eee" y="117.846219"/>
      </g>
     </g>
     <g id="text_16">
      <!-- 105000 -->
      <g transform="translate(12.425 121.645438)scale(0.1 -0.1)">
       <use xlink:href="#DejaVuSans-31"/>
       <use x="63.623047" xlink:href="#DejaVuSans-30"/>
       <use x="127.246094" xlink:href="#DejaVuSans-35"/>
       <use x="190.869141" xlink:href="#DejaVuSans-30"/>
       <use x="254.492188" xlink:href="#DejaVuSans-30"/>
       <use x="318.115234" xlink:href="#DejaVuSans-30"/>
      </g>
     </g>
    </g>
    <g id="ytick_7">
     <g id="line2d_16">
      <g>
       <use style="stroke:#000000;stroke-width:0.8;" x="57.6" xlink:href="#mc663392eee" y="86.681141"/>
      </g>
     </g>
     <g id="text_17">
      <!-- 110000 -->
      <g transform="translate(12.425 90.48036)scale(0.1 -0.1)">
       <use xlink:href="#DejaVuSans-31"/>
       <use x="63.623047" xlink:href="#DejaVuSans-31"/>
       <use x="127.246094" xlink:href="#DejaVuSans-30"/>
       <use x="190.869141" xlink:href="#DejaVuSans-30"/>
       <use x="254.492188" xlink:href="#DejaVuSans-30"/>
       <use x="318.115234" xlink:href="#DejaVuSans-30"/>
      </g>
     </g>
    </g>
    <g id="ytick_8">
     <g id="line2d_17">
      <g>
       <use style="stroke:#000000;stroke-width:0.8;" x="57.6" xlink:href="#mc663392eee" y="55.516062"/>
      </g>
     </g>
     <g id="text_18">
      <!-- 115000 -->
      <g transform="translate(12.425 59.315281)scale(0.1 -0.1)">
       <use xlink:href="#DejaVuSans-31"/>
       <use x="63.623047" xlink:href="#DejaVuSans-31"/>
       <use x="127.246094" xlink:href="#DejaVuSans-35"/>
       <use x="190.869141" xlink:href="#DejaVuSans-30"/>
       <use x="254.492188" xlink:href="#DejaVuSans-30"/>
       <use x="318.115234" xlink:href="#DejaVuSans-30"/>
      </g>
     </g>
    </g>
   </g>
   <g id="line2d_18">
    <path clip-path="url(#p35dbf110c1)" d="M 73.832727 149.011298 
L 75.081399 149.383391 
L 76.33007 146.428853 
L 77.578741 150.455713 
L 78.827413 144.099996 
L 82.573427 140.111224 
L 83.822098 139.554609 
L 85.070769 141.090729 
L 86.319441 140.262978 
L 87.568112 140.627094 
L 92.562797 140.60218 
L 95.06014 144.532261 
L 96.308811 149.980732 
L 100.054825 145.146207 
L 101.303497 154.102155 
L 102.552168 150.002496 
L 103.800839 151.336985 
L 105.04951 157.483859 
L 108.795524 168.530293 
L 110.044196 169.602648 
L 111.292867 165.224101 
L 112.541538 155.674725 
L 113.79021 150.494803 
L 117.536224 145.636557 
L 118.784895 158.845467 
L 120.033566 156.912456 
L 121.282238 161.654451 
L 122.530909 152.106193 
L 126.276923 163.591323 
L 127.525594 154.322849 
L 128.774266 151.989185 
L 130.022937 152.104788 
L 131.271608 151.108044 
L 135.017622 150.206764 
L 136.266294 149.513703 
L 137.514965 157.625276 
L 138.763636 145.837401 
L 143.758322 139.561863 
L 145.006993 133.040615 
L 146.255664 130.958791 
L 147.504336 141.475145 
L 148.753007 149.473115 
L 152.499021 149.358835 
L 153.747692 154.54619 
L 154.996364 155.979371 
L 156.245035 148.312236 
L 157.493706 156.10225 
L 161.23972 143.853767 
L 162.488392 143.720013 
L 163.737063 137.410557 
L 164.985734 145.193892 
L 166.234406 141.318691 
L 169.98042 140.789336 
L 171.229091 148.301394 
L 172.477762 148.195896 
L 173.726434 152.899063 
L 174.975105 148.488963 
L 178.721119 146.614782 
L 179.96979 146.647909 
L 181.218462 149.714803 
L 182.467133 151.350196 
L 183.715804 151.674229 
L 187.461818 147.87357 
L 188.71049 142.954364 
L 189.959161 143.008549 
L 192.456503 143.244864 
L 196.202517 148.966842 
L 197.451189 161.083115 
L 198.69986 169.292595 
L 199.948531 161.365681 
L 201.197203 165.721882 
L 204.943217 154.318684 
L 206.191888 142.904366 
L 207.440559 138.229252 
L 208.689231 138.058393 
L 209.937902 135.758436 
L 213.683916 141.991408 
L 216.181259 135.115693 
L 217.42993 132.654209 
L 218.678601 140.121996 
L 222.424615 149.076522 
L 223.673287 134.379562 
L 224.921958 131.492585 
L 226.170629 125.805954 
L 231.165315 117.626587 
L 232.413986 117.573569 
L 233.662657 117.883994 
L 234.911329 118.591081 
L 236.16 121.695729 
L 239.906014 111.626451 
L 241.154685 103.398404 
L 242.403357 120.827993 
L 243.652028 115.264704 
L 244.900699 112.835521 
L 248.646713 112.121944 
L 249.895385 106.611982 
L 251.144056 105.044414 
L 252.392727 112.996578 
L 253.641399 111.194281 
L 259.884755 128.989886 
L 261.133427 135.903981 
L 262.382098 150.972779 
L 266.128112 149.691487 
L 267.376783 157.141335 
L 268.625455 157.312939 
L 269.874126 161.425233 
L 271.122797 145.54585 
L 274.868811 132.1263 
L 276.117483 126.002813 
L 277.366154 116.357884 
L 278.614825 158.004019 
L 279.863497 157.988176 
L 283.60951 168.551518 
L 284.858182 169.665256 
L 286.106853 156.067986 
L 287.355524 167.431427 
L 288.604196 181.10042 
L 292.35021 184.964443 
L 293.598881 177.721902 
L 294.847552 180.606713 
L 296.096224 191.554963 
L 297.344895 195.184341 
L 302.33958 201.710795 
L 303.588252 209.92288 
L 304.836923 197.388559 
L 306.085594 186.286076 
L 309.831608 188.185557 
L 311.08028 197.555033 
L 312.328951 185.596148 
L 313.577622 187.980673 
L 314.826294 192.320128 
L 318.572308 215.698607 
L 319.820979 216.092668 
L 321.06965 193.171853 
L 322.318322 200.722842 
L 323.566993 210.468095 
L 327.313007 212.7112 
L 328.561678 201.539258 
L 329.81035 183.411831 
L 331.059021 176.569704 
L 332.307692 165.758584 
L 336.053706 168.682401 
L 337.302378 156.67965 
L 338.551049 163.509233 
L 339.79972 153.140732 
L 341.048392 146.66973 
L 344.794406 144.704477 
L 346.043077 139.255073 
L 347.291748 141.432228 
L 348.54042 155.286857 
L 353.535105 144.849789 
L 354.783776 152.00857 
L 356.032448 161.786107 
L 358.52979 164.238955 
L 363.524476 179.290379 
L 364.773147 176.160396 
L 366.021818 187.00302 
L 371.016503 182.915609 
L 372.265175 172.389004 
L 373.513846 180.052792 
L 374.762517 193.579903 
L 376.011189 212.220308 
L 379.757203 207.324857 
L 381.005874 217.393065 
L 382.254545 223.922079 
L 383.503217 187.776039 
L 384.751888 206.006449 
L 388.497902 197.608306 
L 389.746573 192.517469 
L 390.995245 167.72726 
L 392.243916 194.568242 
L 393.492587 196.961122 
L 397.238601 213.543651 
L 398.487273 218.264622 
L 398.487273 218.264622 
" style="fill:none;stroke:#0000ff;stroke-linecap:square;stroke-opacity:0.9;stroke-width:2;"/>
   </g>
   <g id="line2d_19">
    <path clip-path="url(#p35dbf110c1)" d="M 73.832727 149.011298 
L 75.081399 145.857899 
L 76.33007 142.367264 
L 77.578741 146.349149 
L 78.827413 139.351408 
L 82.573427 137.063743 
L 83.822098 135.891416 
L 85.070769 136.121193 
L 86.319441 137.1066 
L 87.568112 136.610266 
L 92.562797 135.80346 
L 93.811469 138.311703 
L 95.06014 139.672873 
L 96.308811 146.465673 
L 100.054825 141.980658 
L 101.303497 147.492183 
L 102.552168 144.921994 
L 103.800839 146.396512 
L 105.04951 154.038166 
L 108.795524 164.260988 
L 110.044196 164.641542 
L 111.292867 161.055169 
L 112.541538 152.782881 
L 113.79021 148.74513 
L 117.536224 144.646447 
L 118.784895 156.772362 
L 120.033566 155.999599 
L 121.282238 162.128598 
L 122.530909 153.208439 
L 126.276923 159.956863 
L 127.525594 150.776762 
L 130.022937 147.477355 
L 131.271608 144.64127 
L 135.017622 148.204348 
L 136.266294 153.380715 
L 137.514965 154.746287 
L 138.763636 139.960589 
L 140.012308 135.571028 
L 143.758322 134.160766 
L 145.006993 128.504412 
L 146.255664 125.197657 
L 147.504336 133.50576 
L 148.753007 136.315925 
L 152.499021 138.206194 
L 154.996364 145.488168 
L 156.245035 136.287784 
L 157.493706 135.613642 
L 161.23972 135.199637 
L 162.488392 132.428563 
L 163.737063 127.84336 
L 164.985734 129.304401 
L 166.234406 128.852364 
L 169.98042 128.422705 
L 171.229091 133.496306 
L 172.477762 136.688993 
L 173.726434 136.274332 
L 174.975105 132.301747 
L 178.721119 130.652684 
L 179.96979 132.362327 
L 181.218462 132.477913 
L 182.467133 132.823309 
L 183.715804 134.990846 
L 187.461818 132.621305 
L 188.71049 126.206272 
L 189.959161 126.169575 
L 192.456503 142.40781 
L 196.202517 135.705019 
L 197.451189 148.833703 
L 198.69986 156.056461 
L 199.948531 147.819898 
L 201.197203 152.616527 
L 204.943217 143.524841 
L 206.191888 132.259439 
L 207.440559 129.051341 
L 208.689231 129.040298 
L 209.937902 125.048891 
L 213.683916 131.464721 
L 214.932587 131.520442 
L 216.181259 126.739278 
L 217.42993 126.07647 
L 218.678601 134.360828 
L 222.424615 141.899308 
L 223.673287 129.871613 
L 224.921958 126.242311 
L 226.170629 120.38515 
L 231.165315 111.867118 
L 232.413986 112.761007 
L 233.662657 111.793096 
L 234.911329 112.836266 
L 236.16 115.403282 
L 239.906014 108.368432 
L 241.154685 101.863039 
L 242.403357 116.755498 
L 244.900699 110.543252 
L 248.646713 110.931133 
L 249.895385 107.000689 
L 251.144056 106.89653 
L 252.392727 111.851882 
L 253.641399 112.151567 
L 258.636084 126.678996 
L 261.133427 139.078518 
L 262.382098 151.900365 
L 266.128112 152.853107 
L 267.376783 151.471832 
L 268.625455 152.753285 
L 269.874126 158.163456 
L 271.122797 143.093394 
L 274.868811 132.996891 
L 276.117483 125.566541 
L 277.366154 115.26795 
L 278.614825 144.343315 
L 279.863497 139.52049 
L 283.60951 143.667111 
L 284.858182 139.653442 
L 286.106853 133.734234 
L 287.355524 143.918006 
L 288.604196 157.103771 
L 292.35021 163.036776 
L 293.598881 155.348554 
L 294.847552 157.259507 
L 296.096224 168.726812 
L 297.344895 171.925207 
L 302.33958 177.511638 
L 303.588252 185.407321 
L 304.836923 181.975102 
L 306.085594 168.005908 
L 309.831608 174.213466 
L 311.08028 186.079566 
L 312.328951 172.076901 
L 313.577622 173.260965 
L 314.826294 181.947288 
L 318.572308 203.008958 
L 319.820979 205.718398 
L 321.06965 184.694225 
L 322.318322 192.444851 
L 323.566993 198.646713 
L 327.313007 199.474389 
L 328.561678 189.757851 
L 329.81035 176.57392 
L 331.059021 170.280568 
L 332.307692 164.567664 
L 336.053706 163.982287 
L 337.302378 154.193992 
L 338.551049 159.980194 
L 339.79972 151.138799 
L 341.048392 144.092252 
L 344.794406 143.450656 
L 346.043077 140.068437 
L 347.291748 140.821291 
L 348.54042 153.253657 
L 349.789091 150.513525 
L 353.535105 146.324756 
L 354.783776 151.835368 
L 356.032448 159.888069 
L 357.281119 160.38077 
L 358.52979 159.877297 
L 362.275804 168.891943 
L 363.524476 172.439797 
L 364.773147 170.251833 
L 366.021818 179.159571 
L 371.016503 175.518895 
L 372.265175 166.884774 
L 373.513846 164.262942 
L 374.762517 172.258889 
L 376.011189 189.675033 
L 379.757203 188.175886 
L 381.005874 198.24332 
L 382.254545 199.336619 
L 383.503217 180.272758 
L 384.751888 198.293356 
L 388.497902 195.173103 
L 389.746573 190.448648 
L 390.995245 165.532125 
L 392.243916 186.638508 
L 393.492587 185.529199 
L 398.487273 207.360665 
L 398.487273 207.360665 
" style="fill:none;stroke:#ff0000;stroke-linecap:square;stroke-opacity:0.9;stroke-width:2;"/>
   </g>
   <g id="line2d_20">
    <path clip-path="url(#p35dbf110c1)" d="M 73.832727 149.011298 
L 75.081399 145.548992 
L 76.33007 143.50493 
L 77.578741 146.768216 
L 78.827413 140.770814 
L 82.573427 136.913029 
L 83.822098 135.401557 
L 85.070769 137.257907 
L 86.319441 136.465558 
L 87.568112 136.316189 
L 92.562797 136.924765 
L 93.811469 138.607541 
L 95.06014 140.710237 
L 96.308811 145.783879 
L 100.054825 140.936574 
L 101.303497 149.443378 
L 102.552168 145.587412 
L 103.800839 147.355478 
L 105.04951 153.328562 
L 108.795524 163.783461 
L 110.044196 164.956121 
L 111.292867 160.594899 
L 112.541538 151.180787 
L 113.79021 145.204705 
L 117.536224 139.900655 
L 118.784895 153.781727 
L 120.033566 151.350566 
L 121.282238 156.335341 
L 122.530909 146.290441 
L 126.276923 157.960313 
L 127.525594 148.55973 
L 128.774266 146.078932 
L 130.022937 144.690307 
L 131.271608 142.184496 
L 135.017622 145.848649 
L 136.266294 150.315445 
L 137.514965 151.440228 
L 138.763636 139.722593 
L 140.012308 138.753866 
L 143.758322 133.131258 
L 145.006993 127.070593 
L 146.255664 124.0915 
L 147.504336 134.848103 
L 148.753007 142.875051 
L 152.499021 142.383333 
L 153.747692 147.845253 
L 154.996364 149.638565 
L 156.245035 141.394363 
L 157.493706 140.528135 
L 161.23972 136.972843 
L 162.488392 136.250215 
L 163.737063 131.156292 
L 164.985734 130.881917 
L 166.234406 126.141917 
L 169.98042 125.276972 
L 171.229091 133.314111 
L 172.477762 138.212943 
L 173.726434 138.523024 
L 174.975105 133.749531 
L 178.721119 131.28635 
L 179.96979 134.531072 
L 181.218462 134.776082 
L 182.467133 136.881581 
L 183.715804 136.595524 
L 187.461818 132.591005 
L 188.71049 127.285333 
L 189.959161 128.044966 
L 192.456503 142.527799 
L 196.202517 134.25696 
L 197.451189 147.045127 
L 198.69986 155.312808 
L 199.948531 148.161772 
L 201.197203 151.799151 
L 204.943217 140.045629 
L 206.191888 128.787402 
L 207.440559 123.57143 
L 208.689231 123.451788 
L 209.937902 121.22503 
L 213.683916 127.20437 
L 214.932587 124.613353 
L 216.181259 120.807111 
L 217.42993 118.538041 
L 218.678601 125.683237 
L 222.424615 134.690773 
L 223.673287 119.710138 
L 224.921958 116.833075 
L 226.170629 110.605083 
L 231.165315 102.179995 
L 232.413986 103.00658 
L 233.662657 102.758388 
L 234.911329 103.616606 
L 236.16 106.663798 
L 239.906014 96.755324 
L 241.154685 88.121962 
L 242.403357 105.937698 
L 243.652028 98.681065 
L 244.900699 96.604628 
L 248.646713 95.008533 
L 249.895385 88.947056 
L 251.144056 87.794774 
L 252.392727 95.729954 
L 253.641399 93.493133 
L 258.636084 108.364282 
L 259.884755 111.263045 
L 261.133427 119.241546 
L 262.382098 134.183272 
L 266.128112 132.78373 
L 267.376783 141.001179 
L 268.625455 140.639324 
L 269.874126 144.931907 
L 271.122797 128.777208 
L 274.868811 114.787746 
L 276.117483 108.279748 
L 277.366154 97.127295 
L 278.614825 142.305912 
L 279.863497 141.618819 
L 283.60951 152.439078 
L 284.858182 154.032259 
L 286.106853 139.973104 
L 287.355524 151.214078 
L 288.604196 164.932148 
L 292.35021 169.503821 
L 293.598881 161.898204 
L 294.847552 165.132184 
L 296.096224 176.396177 
L 297.344895 179.760622 
L 302.33958 185.946104 
L 303.588252 194.12209 
L 304.836923 180.458285 
L 306.085594 169.689047 
L 309.831608 171.706451 
L 311.08028 181.094678 
L 312.328951 168.34371 
L 313.577622 171.942318 
L 318.572308 205.852044 
L 319.820979 203.327604 
L 321.06965 178.202462 
L 323.566993 196.462428 
L 327.313007 196.763343 
L 328.561678 185.745591 
L 329.81035 165.758366 
L 331.059021 159.26291 
L 332.307692 149.917087 
L 336.053706 152.406045 
L 337.302378 139.137545 
L 338.551049 146.310521 
L 339.79972 137.212811 
L 341.048392 129.541078 
L 344.794406 129.231421 
L 346.043077 124.17426 
L 347.291748 127.691236 
L 348.54042 144.061097 
L 349.789091 142.644547 
L 353.535105 136.212386 
L 354.783776 144.476672 
L 356.032448 154.091634 
L 357.281119 156.178485 
L 358.52979 156.34948 
L 363.524476 170.005117 
L 364.773147 167.007874 
L 366.021818 178.64427 
L 371.016503 171.830667 
L 372.265175 161.108037 
L 373.513846 164.999042 
L 374.762517 177.631824 
L 376.011189 198.078009 
L 379.757203 194.408982 
L 381.005874 208.82883 
L 382.254545 215.15043 
L 383.503217 183.621492 
L 384.751888 201.511366 
L 388.497902 191.55454 
L 389.746573 185.103582 
L 390.995245 158.094136 
L 392.243916 184.186132 
L 393.492587 186.424825 
L 397.238601 203.578471 
L 398.487273 203.694643 
L 398.487273 203.694643 
" style="fill:none;stroke:#ff8040;stroke-linecap:square;stroke-opacity:0.9;stroke-width:2;"/>
   </g>
   <g id="line2d_21">
    <path clip-path="url(#p35dbf110c1)" d="M 73.832727 149.6346 
L 76.33007 146.200807 
L 77.578741 151.865709 
L 78.827413 143.037484 
L 82.573427 144.820813 
L 83.822098 144.891793 
L 86.319441 146.242362 
L 87.568112 145.375989 
L 92.562797 147.551871 
L 93.811469 149.779023 
L 95.06014 151.345885 
L 96.308811 158.173567 
L 100.054825 154.183784 
L 101.303497 159.046139 
L 102.552168 156.813848 
L 103.800839 159.699527 
L 105.04951 167.30405 
L 108.795524 178.791626 
L 110.044196 179.524048 
L 111.292867 180.834053 
L 112.541538 174.564865 
L 113.79021 171.632311 
L 117.536224 167.177581 
L 118.784895 181.668232 
L 120.033566 180.959895 
L 121.282238 187.015646 
L 122.530909 178.8799 
L 126.276923 188.07663 
L 127.525594 176.711756 
L 128.774266 174.764771 
L 130.022937 172.397602 
L 131.271608 169.652558 
L 135.017622 172.792074 
L 136.266294 177.249638 
L 137.514965 180.133045 
L 138.763636 166.599419 
L 140.012308 160.970203 
L 143.758322 158.189933 
L 145.006993 152.898602 
L 146.255664 148.277963 
L 147.504336 159.162145 
L 148.753007 164.930087 
L 152.499021 166.091255 
L 153.747692 169.574988 
L 154.996364 174.546273 
L 156.245035 169.025813 
L 157.493706 164.672211 
L 161.23972 163.833364 
L 162.488392 160.872196 
L 163.737063 157.314249 
L 164.985734 157.80109 
L 166.234406 159.984738 
L 169.98042 159.461734 
L 171.229091 163.32143 
L 172.477762 165.176688 
L 173.726434 165.175928 
L 174.975105 162.96976 
L 178.721119 159.314601 
L 179.96979 161.514516 
L 181.218462 162.11057 
L 182.467133 164.731813 
L 183.715804 167.032083 
L 187.461818 164.046684 
L 188.71049 156.657533 
L 189.959161 155.489661 
L 192.456503 170.75362 
L 196.202517 165.573276 
L 197.451189 180.669487 
L 198.69986 188.558709 
L 199.948531 179.623183 
L 201.197203 185.605191 
L 204.943217 176.659456 
L 206.191888 164.244448 
L 207.440559 160.034287 
L 208.689231 160.688129 
L 209.937902 156.650286 
L 213.683916 161.842142 
L 214.932587 161.447611 
L 216.181259 159.082344 
L 217.42993 161.843362 
L 218.678601 171.561895 
L 222.424615 176.201538 
L 223.673287 162.894625 
L 224.921958 159.330222 
L 226.170629 155.01116 
L 231.165315 149.310833 
L 232.413986 149.00681 
L 233.662657 149.384233 
L 234.911329 150.321296 
L 236.16 153.719479 
L 239.906014 146.900143 
L 241.154685 142.491385 
L 242.403357 155.163313 
L 243.652028 154.717642 
L 244.900699 152.10122 
L 248.646713 150.680761 
L 249.895385 146.583507 
L 251.144056 146.900478 
L 252.392727 154.123036 
L 253.641399 154.133429 
L 258.636084 169.561765 
L 259.884755 173.833207 
L 261.133427 178.799322 
L 262.382098 190.125605 
L 266.128112 190.39129 
L 267.376783 191.583862 
L 269.874126 199.969861 
L 271.122797 186.91936 
L 274.868811 176.000033 
L 276.117483 168.983746 
L 277.366154 162.901994 
L 278.614825 198.625251 
L 279.863497 199.722902 
L 283.60951 204.850567 
L 284.858182 203.235593 
L 286.106853 197.491709 
L 287.355524 207.508109 
L 288.604196 221.997175 
L 292.35021 228.449631 
L 293.598881 220.762738 
L 294.847552 221.516139 
L 296.096224 234.941716 
L 297.344895 237.412686 
L 302.33958 243.561614 
L 303.588252 248.595972 
L 304.836923 238.449488 
L 306.085594 225.229536 
L 309.831608 231.830085 
L 311.08028 244.246299 
L 312.328951 233.90333 
L 313.577622 237.575639 
L 314.826294 235.164874 
L 318.572308 254.52185 
L 319.820979 257.545524 
L 321.06965 238.801161 
L 323.566993 251.085831 
L 327.313007 254.961457 
L 329.81035 233.180284 
L 331.059021 226.318256 
L 332.307692 220.474845 
L 336.053706 221.702739 
L 337.302378 215.879812 
L 338.551049 222.088326 
L 339.79972 213.346994 
L 341.048392 208.34002 
L 344.794406 206.916624 
L 346.043077 201.785587 
L 347.291748 201.147497 
L 348.54042 213.895103 
L 349.789091 211.151411 
L 353.535105 206.207748 
L 354.783776 213.315938 
L 356.032448 221.227468 
L 357.281119 220.261107 
L 358.52979 219.868288 
L 362.275804 229.073179 
L 363.524476 233.280207 
L 364.773147 232.65087 
L 366.021818 239.780765 
L 371.016503 237.570626 
L 372.265175 228.88008 
L 373.513846 229.821932 
L 374.762517 233.643458 
L 376.011189 247.915645 
L 379.757203 243.014679 
L 381.005874 249.43595 
L 382.254545 255.018903 
L 383.503217 239.863711 
L 384.751888 255.473383 
L 388.497902 247.878629 
L 389.746573 244.125365 
L 390.995245 222.644139 
L 392.243916 242.38004 
L 393.492587 242.872364 
L 397.238601 257.783652 
L 398.487273 265.797818 
L 398.487273 265.797818 
" style="fill:none;stroke:#0d0d0d;stroke-linecap:square;stroke-opacity:0.25;stroke-width:2;"/>
   </g>
   <g id="line2d_22">
    <path clip-path="url(#p35dbf110c1)" d="M 73.832727 148.387996 
L 75.081399 143.187377 
L 76.33007 138.674439 
L 77.578741 141.357356 
L 78.827413 133.61864 
L 82.573427 125.896717 
L 83.822098 124.868083 
L 85.070769 123.163101 
L 86.319441 122.875808 
L 87.568112 121.61138 
L 92.562797 119.617205 
L 93.811469 120.840313 
L 95.06014 122.863142 
L 96.308811 128.485103 
L 100.054825 125.631681 
L 101.303497 132.134895 
L 102.552168 129.882678 
L 103.800839 131.838228 
L 105.04951 138.971389 
L 108.795524 147.77155 
L 110.044196 148.121533 
L 111.292867 139.861796 
L 112.541538 129.321436 
L 113.79021 124.092355 
L 117.536224 117.335904 
L 118.784895 128.547848 
L 120.033566 127.300514 
L 121.282238 133.676544 
L 122.530909 125.830682 
L 126.276923 136.407022 
L 127.525594 128.164686 
L 128.774266 125.918005 
L 130.022937 124.892487 
L 131.271608 122.144817 
L 135.017622 124.667722 
L 136.266294 129.371359 
L 137.514965 130.822701 
L 138.763636 115.782763 
L 140.012308 111.259375 
L 143.758322 110.585268 
L 145.006993 105.04972 
L 146.255664 103.305571 
L 147.504336 109.874047 
L 148.753007 110.706992 
L 152.499021 112.899635 
L 153.747692 114.107643 
L 154.996364 114.796466 
L 156.245035 103.595589 
L 157.493706 102.325655 
L 161.23972 100.62776 
L 162.488392 95.681516 
L 163.737063 92.000617 
L 164.985734 94.057524 
L 166.234406 97.839703 
L 169.98042 96.529285 
L 172.477762 109.151049 
L 173.726434 108.830899 
L 174.975105 102.228846 
L 178.721119 99.792955 
L 179.96979 100.904313 
L 181.218462 102.175019 
L 182.467133 99.974823 
L 183.715804 101.907275 
L 187.461818 102.298452 
L 188.71049 94.182326 
L 189.959161 93.588368 
L 192.456503 109.949864 
L 196.202517 99.287009 
L 197.451189 115.581207 
L 198.69986 121.383235 
L 199.948531 114.825906 
L 201.197203 116.769795 
L 204.943217 105.97324 
L 206.191888 93.708238 
L 207.440559 89.59694 
L 208.689231 89.653748 
L 209.937902 86.390093 
L 213.683916 96.135587 
L 214.932587 96.972455 
L 217.42993 86.479859 
L 218.678601 93.623931 
L 222.424615 102.064333 
L 223.673287 88.312005 
L 224.921958 84.196733 
L 226.170629 76.174633 
L 231.165315 68.470467 
L 232.413986 69.244539 
L 233.662657 68.919287 
L 234.911329 69.39239 
L 236.16 72.965006 
L 239.906014 59.659054 
L 241.154685 56.844183 
L 242.403357 66.734942 
L 243.652028 63.04829 
L 244.900699 58.839415 
L 248.646713 56.63763 
L 249.895385 53.58734 
L 251.144056 52.154182 
L 252.392727 59.707117 
L 253.641399 62.30785 
L 258.636084 76.724037 
L 261.133427 89.3583 
L 262.382098 101.866937 
L 266.128112 100.104383 
L 267.376783 97.071465 
L 268.625455 96.966445 
L 269.874126 102.178302 
L 271.122797 84.918725 
L 274.868811 76.905225 
L 276.117483 67.893987 
L 277.366154 55.422072 
L 278.614825 87.115379 
L 279.863497 78.221388 
L 283.60951 90.074367 
L 284.858182 88.993153 
L 286.106853 83.351469 
L 288.604196 107.928659 
L 292.35021 112.096262 
L 293.598881 103.404323 
L 294.847552 103.962386 
L 296.096224 111.955552 
L 297.344895 115.75132 
L 302.33958 121.98458 
L 303.588252 131.84437 
L 304.836923 124.152437 
L 306.085594 106.400105 
L 309.831608 111.055113 
L 311.08028 122.26539 
L 312.328951 107.374432 
L 313.577622 110.746039 
L 314.826294 119.556383 
L 318.572308 142.35435 
L 319.820979 143.486963 
L 321.06965 121.98545 
L 323.566993 138.841469 
L 327.313007 140.389283 
L 328.561678 127.370182 
L 329.81035 112.840725 
L 332.307692 96.981792 
L 336.053706 95.436498 
L 337.302378 80.437836 
L 338.551049 88.20513 
L 339.79972 79.381145 
L 341.048392 71.489817 
L 344.794406 71.618268 
L 346.043077 72.256599 
L 347.291748 74.140637 
L 348.54042 89.925366 
L 349.789091 86.819231 
L 353.535105 76.707027 
L 354.783776 83.612731 
L 356.032448 93.416985 
L 357.281119 93.843939 
L 358.52979 94.9114 
L 362.275804 105.129633 
L 363.524476 110.457257 
L 364.773147 107.394907 
L 366.021818 117.348355 
L 371.016503 113.342148 
L 372.265175 104.175557 
L 373.513846 103.026645 
L 374.762517 113.03331 
L 376.011189 133.056789 
L 379.757203 126.807484 
L 381.005874 140.535134 
L 382.254545 145.300396 
L 383.503217 114.555249 
L 384.751888 135.026103 
L 388.497902 123.963489 
L 389.746573 119.823291 
L 390.995245 90.867296 
L 392.243916 117.699183 
L 393.492587 120.315244 
L 397.238601 139.699609 
L 398.487273 141.917032 
L 398.487273 141.917032 
" style="fill:none;stroke:#0d0d0d;stroke-linecap:square;stroke-opacity:0.25;stroke-width:2;"/>
   </g>
   <g id="patch_3">
    <path d="M 57.6 276.48 
L 57.6 41.472 
" style="fill:none;stroke:#000000;stroke-linecap:square;stroke-linejoin:miter;stroke-width:0.8;"/>
   </g>
   <g id="patch_4">
    <path d="M 414.72 276.48 
L 414.72 41.472 
" style="fill:none;stroke:#000000;stroke-linecap:square;stroke-linejoin:miter;stroke-width:0.8;"/>
   </g>
   <g id="patch_5">
    <path d="M 57.6 276.48 
L 414.72 276.48 
" style="fill:none;stroke:#000000;stroke-linecap:square;stroke-linejoin:miter;stroke-width:0.8;"/>
   </g>
   <g id="patch_6">
    <path d="M 57.6 41.472 
L 414.72 41.472 
" style="fill:none;stroke:#000000;stroke-linecap:square;stroke-linejoin:miter;stroke-width:0.8;"/>
   </g>
   <g id="text_19">
    <!-- TESTFUNDS1550 -->
    <g transform="translate(185.200312 22.034625)scale(0.12 -0.12)">
     <defs>
      <path d="M -19 4666 
L 3928 4666 
L 3928 4134 
L 2272 4134 
L 2272 0 
L 1638 0 
L 1638 4134 
L -19 4134 
L -19 4666 
z
" id="DejaVuSans-54" transform="scale(0.015625)"/>
      <path d="M 628 4666 
L 3578 4666 
L 3578 4134 
L 1259 4134 
L 1259 2753 
L 3481 2753 
L 3481 2222 
L 1259 2222 
L 1259 531 
L 3634 531 
L 3634 0 
L 628 0 
L 628 4666 
z
" id="DejaVuSans-45" transform="scale(0.015625)"/>
      <path d="M 3425 4513 
L 3425 3897 
Q 3066 4069 2747 4153 
Q 2428 4238 2131 4238 
Q 1616 4238 1336 4038 
Q 1056 3838 1056 3469 
Q 1056 3159 1242 3001 
Q 1428 2844 1947 2747 
L 2328 2669 
Q 3034 2534 3370 2195 
Q 3706 1856 3706 1288 
Q 3706 609 3251 259 
Q 2797 -91 1919 -91 
Q 1588 -91 1214 -16 
Q 841 59 441 206 
L 441 856 
Q 825 641 1194 531 
Q 1563 422 1919 422 
Q 2459 422 2753 634 
Q 3047 847 3047 1241 
Q 3047 1584 2836 1778 
Q 2625 1972 2144 2069 
L 1759 2144 
Q 1053 2284 737 2584 
Q 422 2884 422 3419 
Q 422 4038 858 4394 
Q 1294 4750 2059 4750 
Q 2388 4750 2728 4690 
Q 3069 4631 3425 4513 
z
" id="DejaVuSans-53" transform="scale(0.015625)"/>
      <path d="M 628 4666 
L 3309 4666 
L 3309 4134 
L 1259 4134 
L 1259 2759 
L 3109 2759 
L 3109 2228 
L 1259 2228 
L 1259 0 
L 628 0 
L 628 4666 
z
" id="DejaVuSans-46" transform="scale(0.015625)"/>
      <path d="M 556 4666 
L 1191 4666 
L 1191 1831 
Q 1191 1081 1462 751 
Q 1734 422 2344 422 
Q 2950 422 3222 751 
Q 3494 1081 3494 1831 
L 3494 4666 
L 4128 4666 
L 4128 1753 
Q 4128 841 3676 375 
Q 3225 -91 2344 -91 
Q 1459 -91 1007 375 
Q 556 841 556 1753 
L 556 4666 
z
" id="DejaVuSans-55" transform="scale(0.015625)"/>
      <path d="M 628 4666 
L 1478 4666 
L 3547 763 
L 3547 4666 
L 4159 4666 
L 4159 0 
L 3309 0 
L 1241 3903 
L 1241 0 
L 628 0 
L 628 4666 
z
" id="DejaVuSans-4e" transform="scale(0.015625)"/>
      <path d="M 1259 4147 
L 1259 519 
L 2022 519 
Q 2988 519 3436 956 
Q 3884 1394 3884 2338 
Q 3884 3275 3436 3711 
Q 2988 4147 2022 4147 
L 1259 4147 
z
M 628 4666 
L 1925 4666 
Q 3281 4666 3915 4102 
Q 4550 3538 4550 2338 
Q 4550 1131 3912 565 
Q 3275 0 1925 0 
L 628 0 
L 628 4666 
z
" id="DejaVuSans-44" transform="scale(0.015625)"/>
     </defs>
     <use xlink:href="#DejaVuSans-54"/>
     <use x="61.083984" xlink:href="#DejaVuSans-45"/>
     <use x="124.267578" xlink:href="#DejaVuSans-53"/>
     <use x="187.744141" xlink:href="#DejaVuSans-54"/>
     <use x="248.828125" xlink:href="#DejaVuSans-46"/>
     <use x="306.347656" xlink:href="#DejaVuSans-55"/>
     <use x="379.541016" xlink:href="#DejaVuSans-4e"/>
     <use x="454.345703" xlink:href="#DejaVuSans-44"/>
     <use x="531.347656" xlink:href="#DejaVuSans-53"/>
     <use x="594.824219" xlink:href="#DejaVuSans-31"/>
     <use x="658.447266" xlink:href="#DejaVuSans-35"/>
     <use x="722.070312" xlink:href="#DejaVuSans-35"/>
     <use x="785.693359" xlink:href="#DejaVuSans-30"/>
    </g>
    <!-- daily_report -->
    <g transform="translate(200.466563 35.472)scale(0.12 -0.12)">
     <defs>
      <path d="M 603 3500 
L 1178 3500 
L 1178 0 
L 603 0 
L 603 3500 
z
M 603 4863 
L 1178 4863 
L 1178 4134 
L 603 4134 
L 603 4863 
z
" id="DejaVuSans-69" transform="scale(0.015625)"/>
      <path d="M 603 4863 
L 1178 4863 
L 1178 0 
L 603 0 
L 603 4863 
z
" id="DejaVuSans-6c" transform="scale(0.015625)"/>
      <path d="M 2059 -325 
Q 1816 -950 1584 -1140 
Q 1353 -1331 966 -1331 
L 506 -1331 
L 506 -850 
L 844 -850 
Q 1081 -850 1212 -737 
Q 1344 -625 1503 -206 
L 1606 56 
L 191 3500 
L 800 3500 
L 1894 763 
L 2988 3500 
L 3597 3500 
L 2059 -325 
z
" id="DejaVuSans-79" transform="scale(0.015625)"/>
      <path d="M 3263 -1063 
L 3263 -1509 
L -63 -1509 
L -63 -1063 
L 3263 -1063 
z
" id="DejaVuSans-5f" transform="scale(0.015625)"/>
      <path d="M 2631 2963 
Q 2534 3019 2420 3045 
Q 2306 3072 2169 3072 
Q 1681 3072 1420 2755 
Q 1159 2438 1159 1844 
L 1159 0 
L 581 0 
L 581 3500 
L 1159 3500 
L 1159 2956 
Q 1341 3275 1631 3429 
Q 1922 3584 2338 3584 
Q 2397 3584 2469 3576 
Q 2541 3569 2628 3553 
L 2631 2963 
z
" id="DejaVuSans-72" transform="scale(0.015625)"/>
      <path d="M 1159 525 
L 1159 -1331 
L 581 -1331 
L 581 3500 
L 1159 3500 
L 1159 2969 
Q 1341 3281 1617 3432 
Q 1894 3584 2278 3584 
Q 2916 3584 3314 3078 
Q 3713 2572 3713 1747 
Q 3713 922 3314 415 
Q 2916 -91 2278 -91 
Q 1894 -91 1617 61 
Q 1341 213 1159 525 
z
M 3116 1747 
Q 3116 2381 2855 2742 
Q 2594 3103 2138 3103 
Q 1681 3103 1420 2742 
Q 1159 2381 1159 1747 
Q 1159 1113 1420 752 
Q 1681 391 2138 391 
Q 2594 391 2855 752 
Q 3116 1113 3116 1747 
z
" id="DejaVuSans-70" transform="scale(0.015625)"/>
      <path d="M 1959 3097 
Q 1497 3097 1228 2736 
Q 959 2375 959 1747 
Q 959 1119 1226 758 
Q 1494 397 1959 397 
Q 2419 397 2687 759 
Q 2956 1122 2956 1747 
Q 2956 2369 2687 2733 
Q 2419 3097 1959 3097 
z
M 1959 3584 
Q 2709 3584 3137 3096 
Q 3566 2609 3566 1747 
Q 3566 888 3137 398 
Q 2709 -91 1959 -91 
Q 1206 -91 779 398 
Q 353 888 353 1747 
Q 353 2609 779 3096 
Q 1206 3584 1959 3584 
z
" id="DejaVuSans-6f" transform="scale(0.015625)"/>
     </defs>
     <use xlink:href="#DejaVuSans-64"/>
     <use x="63.476562" xlink:href="#DejaVuSans-61"/>
     <use x="124.755859" xlink:href="#DejaVuSans-69"/>
     <use x="152.539062" xlink:href="#DejaVuSans-6c"/>
     <use x="180.322266" xlink:href="#DejaVuSans-79"/>
     <use x="239.501953" xlink:href="#DejaVuSans-5f"/>
     <use x="289.501953" xlink:href="#DejaVuSans-72"/>
     <use x="328.365234" xlink:href="#DejaVuSans-65"/>
     <use x="389.888672" xlink:href="#DejaVuSans-70"/>
     <use x="453.365234" xlink:href="#DejaVuSans-6f"/>
     <use x="514.546875" xlink:href="#DejaVuSans-72"/>
     <use x="555.660156" xlink:href="#DejaVuSans-74"/>
    </g>
   </g>
   <g id="legend_1">
    <g id="patch_7">
     <path d="M 64.6 271.48 
L 155.792188 271.48 
Q 157.792188 271.48 157.792188 269.48 
L 157.792188 197.089375 
Q 157.792188 195.089375 155.792188 195.089375 
L 64.6 195.089375 
Q 62.6 195.089375 62.6 197.089375 
L 62.6 269.48 
Q 62.6 271.48 64.6 271.48 
z
" style="fill:#ffffff;opacity:0.8;stroke:#cccccc;stroke-linejoin:miter;"/>
    </g>
    <g id="line2d_23">
     <path d="M 66.6 203.187812 
L 86.6 203.187812 
" style="fill:none;stroke:#0000ff;stroke-linecap:square;stroke-opacity:0.9;stroke-width:2;"/>
    </g>
    <g id="line2d_24"/>
    <g id="text_20">
     <!-- alpaca -->
     <g transform="translate(94.6 206.687812)scale(0.1 -0.1)">
      <defs>
       <path d="M 3122 3366 
L 3122 2828 
Q 2878 2963 2633 3030 
Q 2388 3097 2138 3097 
Q 1578 3097 1268 2742 
Q 959 2388 959 1747 
Q 959 1106 1268 751 
Q 1578 397 2138 397 
Q 2388 397 2633 464 
Q 2878 531 3122 666 
L 3122 134 
Q 2881 22 2623 -34 
Q 2366 -91 2075 -91 
Q 1284 -91 818 406 
Q 353 903 353 1747 
Q 353 2603 823 3093 
Q 1294 3584 2113 3584 
Q 2378 3584 2631 3529 
Q 2884 3475 3122 3366 
z
" id="DejaVuSans-63" transform="scale(0.015625)"/>
      </defs>
      <use xlink:href="#DejaVuSans-61"/>
      <use x="61.279297" xlink:href="#DejaVuSans-6c"/>
      <use x="89.0625" xlink:href="#DejaVuSans-70"/>
      <use x="152.539062" xlink:href="#DejaVuSans-61"/>
      <use x="213.818359" xlink:href="#DejaVuSans-63"/>
      <use x="268.798828" xlink:href="#DejaVuSans-61"/>
     </g>
    </g>
    <g id="line2d_25">
     <path d="M 66.6 217.865937 
L 86.6 217.865937 
" style="fill:none;stroke:#ff0000;stroke-linecap:square;stroke-opacity:0.9;stroke-width:2;"/>
    </g>
    <g id="line2d_26"/>
    <g id="text_21">
     <!-- mattress -->
     <g transform="translate(94.6 221.365937)scale(0.1 -0.1)">
      <defs>
       <path d="M 3328 2828 
Q 3544 3216 3844 3400 
Q 4144 3584 4550 3584 
Q 5097 3584 5394 3201 
Q 5691 2819 5691 2113 
L 5691 0 
L 5113 0 
L 5113 2094 
Q 5113 2597 4934 2840 
Q 4756 3084 4391 3084 
Q 3944 3084 3684 2787 
Q 3425 2491 3425 1978 
L 3425 0 
L 2847 0 
L 2847 2094 
Q 2847 2600 2669 2842 
Q 2491 3084 2119 3084 
Q 1678 3084 1418 2786 
Q 1159 2488 1159 1978 
L 1159 0 
L 581 0 
L 581 3500 
L 1159 3500 
L 1159 2956 
Q 1356 3278 1631 3431 
Q 1906 3584 2284 3584 
Q 2666 3584 2933 3390 
Q 3200 3197 3328 2828 
z
" id="DejaVuSans-6d" transform="scale(0.015625)"/>
       <path d="M 2834 3397 
L 2834 2853 
Q 2591 2978 2328 3040 
Q 2066 3103 1784 3103 
Q 1356 3103 1142 2972 
Q 928 2841 928 2578 
Q 928 2378 1081 2264 
Q 1234 2150 1697 2047 
L 1894 2003 
Q 2506 1872 2764 1633 
Q 3022 1394 3022 966 
Q 3022 478 2636 193 
Q 2250 -91 1575 -91 
Q 1294 -91 989 -36 
Q 684 19 347 128 
L 347 722 
Q 666 556 975 473 
Q 1284 391 1588 391 
Q 1994 391 2212 530 
Q 2431 669 2431 922 
Q 2431 1156 2273 1281 
Q 2116 1406 1581 1522 
L 1381 1569 
Q 847 1681 609 1914 
Q 372 2147 372 2553 
Q 372 3047 722 3315 
Q 1072 3584 1716 3584 
Q 2034 3584 2315 3537 
Q 2597 3491 2834 3397 
z
" id="DejaVuSans-73" transform="scale(0.015625)"/>
      </defs>
      <use xlink:href="#DejaVuSans-6d"/>
      <use x="97.412109" xlink:href="#DejaVuSans-61"/>
      <use x="158.691406" xlink:href="#DejaVuSans-74"/>
      <use x="197.900391" xlink:href="#DejaVuSans-74"/>
      <use x="237.109375" xlink:href="#DejaVuSans-72"/>
      <use x="275.972656" xlink:href="#DejaVuSans-65"/>
      <use x="337.496094" xlink:href="#DejaVuSans-73"/>
      <use x="389.595703" xlink:href="#DejaVuSans-73"/>
     </g>
    </g>
    <g id="line2d_27">
     <path d="M 66.6 232.544062 
L 86.6 232.544062 
" style="fill:none;stroke:#ff8040;stroke-linecap:square;stroke-opacity:0.9;stroke-width:2;"/>
    </g>
    <g id="line2d_28"/>
    <g id="text_22">
     <!-- trader-0850 -->
     <g transform="translate(94.6 236.044062)scale(0.1 -0.1)">
      <use xlink:href="#DejaVuSans-74"/>
      <use x="39.208984" xlink:href="#DejaVuSans-72"/>
      <use x="80.322266" xlink:href="#DejaVuSans-61"/>
      <use x="141.601562" xlink:href="#DejaVuSans-64"/>
      <use x="205.078125" xlink:href="#DejaVuSans-65"/>
      <use x="266.601562" xlink:href="#DejaVuSans-72"/>
      <use x="301.339844" xlink:href="#DejaVuSans-2d"/>
      <use x="337.423828" xlink:href="#DejaVuSans-30"/>
      <use x="401.046875" xlink:href="#DejaVuSans-38"/>
      <use x="464.669922" xlink:href="#DejaVuSans-35"/>
      <use x="528.292969" xlink:href="#DejaVuSans-30"/>
     </g>
    </g>
    <g id="line2d_29">
     <path d="M 66.6 247.222187 
L 86.6 247.222187 
" style="fill:none;stroke:#0d0d0d;stroke-linecap:square;stroke-opacity:0.25;stroke-width:2;"/>
    </g>
    <g id="line2d_30"/>
    <g id="text_23">
     <!-- rando-min -->
     <g transform="translate(94.6 250.722187)scale(0.1 -0.1)">
      <defs>
       <path d="M 3513 2113 
L 3513 0 
L 2938 0 
L 2938 2094 
Q 2938 2591 2744 2837 
Q 2550 3084 2163 3084 
Q 1697 3084 1428 2787 
Q 1159 2491 1159 1978 
L 1159 0 
L 581 0 
L 581 3500 
L 1159 3500 
L 1159 2956 
Q 1366 3272 1645 3428 
Q 1925 3584 2291 3584 
Q 2894 3584 3203 3211 
Q 3513 2838 3513 2113 
z
" id="DejaVuSans-6e" transform="scale(0.015625)"/>
      </defs>
      <use xlink:href="#DejaVuSans-72"/>
      <use x="41.113281" xlink:href="#DejaVuSans-61"/>
      <use x="102.392578" xlink:href="#DejaVuSans-6e"/>
      <use x="165.771484" xlink:href="#DejaVuSans-64"/>
      <use x="229.248047" xlink:href="#DejaVuSans-6f"/>
      <use x="292.304688" xlink:href="#DejaVuSans-2d"/>
      <use x="328.388672" xlink:href="#DejaVuSans-6d"/>
      <use x="425.800781" xlink:href="#DejaVuSans-69"/>
      <use x="453.583984" xlink:href="#DejaVuSans-6e"/>
     </g>
    </g>
    <g id="line2d_31">
     <path d="M 66.6 261.900312 
L 86.6 261.900312 
" style="fill:none;stroke:#0d0d0d;stroke-linecap:square;stroke-opacity:0.25;stroke-width:2;"/>
    </g>
    <g id="line2d_32"/>
    <g id="text_24">
     <!-- rando-max -->
     <g transform="translate(94.6 265.400312)scale(0.1 -0.1)">
      <defs>
       <path d="M 3513 3500 
L 2247 1797 
L 3578 0 
L 2900 0 
L 1881 1375 
L 863 0 
L 184 0 
L 1544 1831 
L 300 3500 
L 978 3500 
L 1906 2253 
L 2834 3500 
L 3513 3500 
z
" id="DejaVuSans-78" transform="scale(0.015625)"/>
      </defs>
      <use xlink:href="#DejaVuSans-72"/>
      <use x="41.113281" xlink:href="#DejaVuSans-61"/>
      <use x="102.392578" xlink:href="#DejaVuSans-6e"/>
      <use x="165.771484" xlink:href="#DejaVuSans-64"/>
      <use x="229.248047" xlink:href="#DejaVuSans-6f"/>
      <use x="292.304688" xlink:href="#DejaVuSans-2d"/>
      <use x="328.388672" xlink:href="#DejaVuSans-6d"/>
      <use x="425.800781" xlink:href="#DejaVuSans-61"/>
      <use x="487.080078" xlink:href="#DejaVuSans-78"/>
     </g>
    </g>
   </g>
  </g>
 </g>
 <defs>
  <clipPath id="p35dbf110c1">
   <rect height="235.008" width="357.12" x="57.6" y="41.472"/>
  </clipPath>
 </defs>
</svg>
