<?xml version="1.0" encoding="utf-8" standalone="no"?>
<!DOCTYPE svg PUBLIC "-//W3C//DTD SVG 1.1//EN"
  "http://www.w3.org/Graphics/SVG/1.1/DTD/svg11.dtd">
<svg height="345.6pt" version="1.1" viewBox="0 0 460.8 345.6" width="460.8pt" xmlns="http://www.w3.org/2000/svg" xmlns:xlink="http://www.w3.org/1999/xlink">
 <metadata>
  <rdf:RDF xmlns:cc="http://creativecommons.org/ns#" xmlns:dc="http://purl.org/dc/elements/1.1/" xmlns:rdf="http://www.w3.org/1999/02/22-rdf-syntax-ns#">
   <cc:Work>
    <dc:type rdf:resource="http://purl.org/dc/dcmitype/StillImage"/>
    <dc:date>2022-03-05T01:01:46.519038</dc:date>
    <dc:format>image/svg+xml</dc:format>
    <dc:creator>
     <cc:Agent>
      <dc:title>Matplotlib v3.4.3, https://matplotlib.org/</dc:title>
     </cc:Agent>
    </dc:creator>
   </cc:Work>
  </rdf:RDF>
 </metadata>
 <defs>
  <style type="text/css">*{stroke-linecap:butt;stroke-linejoin:round;}</style>
 </defs>
 <g id="figure_1">
  <g id="patch_1">
   <path d="M 0 345.6 
L 460.8 345.6 
L 460.8 0 
L 0 0 
z
" style="fill:#ffffff;"/>
  </g>
  <g id="axes_1">
   <g id="patch_2">
    <path d="M 57.6 276.48 
L 414.72 276.48 
L 414.72 41.472 
L 57.6 41.472 
z
" style="fill:#ffffff;"/>
   </g>
   <g id="matplotlib.axis_1">
    <g id="xtick_1">
     <g id="line2d_1">
      <defs>
       <path d="M 0 0 
L 0 3.5 
" id="m243efab39b" style="stroke:#000000;stroke-width:0.8;"/>
      </defs>
      <g>
       <use style="stroke:#000000;stroke-width:0.8;" x="88.972058" xlink:href="#m243efab39b" y="276.48"/>
      </g>
     </g>
     <g id="text_1">
      <!-- 2021-09 -->
      <g transform="translate(51.747238 310.951846)rotate(-30)scale(0.1 -0.1)">
       <defs>
        <path d="M 1228 531 
L 3431 531 
L 3431 0 
L 469 0 
L 469 531 
Q 828 903 1448 1529 
Q 2069 2156 2228 2338 
Q 2531 2678 2651 2914 
Q 2772 3150 2772 3378 
Q 2772 3750 2511 3984 
Q 2250 4219 1831 4219 
Q 1534 4219 1204 4116 
Q 875 4013 500 3803 
L 500 4441 
Q 881 4594 1212 4672 
Q 1544 4750 1819 4750 
Q 2544 4750 2975 4387 
Q 3406 4025 3406 3419 
Q 3406 3131 3298 2873 
Q 3191 2616 2906 2266 
Q 2828 2175 2409 1742 
Q 1991 1309 1228 531 
z
" id="DejaVuSans-32" transform="scale(0.015625)"/>
        <path d="M 2034 4250 
Q 1547 4250 1301 3770 
Q 1056 3291 1056 2328 
Q 1056 1369 1301 889 
Q 1547 409 2034 409 
Q 2525 409 2770 889 
Q 3016 1369 3016 2328 
Q 3016 3291 2770 3770 
Q 2525 4250 2034 4250 
z
M 2034 4750 
Q 2819 4750 3233 4129 
Q 3647 3509 3647 2328 
Q 3647 1150 3233 529 
Q 2819 -91 2034 -91 
Q 1250 -91 836 529 
Q 422 1150 422 2328 
Q 422 3509 836 4129 
Q 1250 4750 2034 4750 
z
" id="DejaVuSans-30" transform="scale(0.015625)"/>
        <path d="M 794 531 
L 1825 531 
L 1825 4091 
L 703 3866 
L 703 4441 
L 1819 4666 
L 2450 4666 
L 2450 531 
L 3481 531 
L 3481 0 
L 794 0 
L 794 531 
z
" id="DejaVuSans-31" transform="scale(0.015625)"/>
        <path d="M 313 2009 
L 1997 2009 
L 1997 1497 
L 313 1497 
L 313 2009 
z
" id="DejaVuSans-2d" transform="scale(0.015625)"/>
        <path d="M 703 97 
L 703 672 
Q 941 559 1184 500 
Q 1428 441 1663 441 
Q 2288 441 2617 861 
Q 2947 1281 2994 2138 
Q 2813 1869 2534 1725 
Q 2256 1581 1919 1581 
Q 1219 1581 811 2004 
Q 403 2428 403 3163 
Q 403 3881 828 4315 
Q 1253 4750 1959 4750 
Q 2769 4750 3195 4129 
Q 3622 3509 3622 2328 
Q 3622 1225 3098 567 
Q 2575 -91 1691 -91 
Q 1453 -91 1209 -44 
Q 966 3 703 97 
z
M 1959 2075 
Q 2384 2075 2632 2365 
Q 2881 2656 2881 3163 
Q 2881 3666 2632 3958 
Q 2384 4250 1959 4250 
Q 1534 4250 1286 3958 
Q 1038 3666 1038 3163 
Q 1038 2656 1286 2365 
Q 1534 2075 1959 2075 
z
" id="DejaVuSans-39" transform="scale(0.015625)"/>
       </defs>
       <use xlink:href="#DejaVuSans-32"/>
       <use x="63.623047" xlink:href="#DejaVuSans-30"/>
       <use x="127.246094" xlink:href="#DejaVuSans-32"/>
       <use x="190.869141" xlink:href="#DejaVuSans-31"/>
       <use x="254.492188" xlink:href="#DejaVuSans-2d"/>
       <use x="290.576172" xlink:href="#DejaVuSans-30"/>
       <use x="354.199219" xlink:href="#DejaVuSans-39"/>
      </g>
     </g>
    </g>
    <g id="xtick_2">
     <g id="line2d_2">
      <g>
       <use style="stroke:#000000;stroke-width:0.8;" x="139.436496" xlink:href="#m243efab39b" y="276.48"/>
      </g>
     </g>
     <g id="text_2">
      <!-- 2021-10 -->
      <g transform="translate(102.211675 310.951846)rotate(-30)scale(0.1 -0.1)">
       <use xlink:href="#DejaVuSans-32"/>
       <use x="63.623047" xlink:href="#DejaVuSans-30"/>
       <use x="127.246094" xlink:href="#DejaVuSans-32"/>
       <use x="190.869141" xlink:href="#DejaVuSans-31"/>
       <use x="254.492188" xlink:href="#DejaVuSans-2d"/>
       <use x="290.576172" xlink:href="#DejaVuSans-31"/>
       <use x="354.199219" xlink:href="#DejaVuSans-30"/>
      </g>
     </g>
    </g>
    <g id="xtick_3">
     <g id="line2d_3">
      <g>
       <use style="stroke:#000000;stroke-width:0.8;" x="191.583081" xlink:href="#m243efab39b" y="276.48"/>
      </g>
     </g>
     <g id="text_3">
      <!-- 2021-11 -->
      <g transform="translate(154.35826 310.951846)rotate(-30)scale(0.1 -0.1)">
       <use xlink:href="#DejaVuSans-32"/>
       <use x="63.623047" xlink:href="#DejaVuSans-30"/>
       <use x="127.246094" xlink:href="#DejaVuSans-32"/>
       <use x="190.869141" xlink:href="#DejaVuSans-31"/>
       <use x="254.492188" xlink:href="#DejaVuSans-2d"/>
       <use x="290.576172" xlink:href="#DejaVuSans-31"/>
       <use x="354.199219" xlink:href="#DejaVuSans-31"/>
      </g>
     </g>
    </g>
    <g id="xtick_4">
     <g id="line2d_4">
      <g>
       <use style="stroke:#000000;stroke-width:0.8;" x="242.047518" xlink:href="#m243efab39b" y="276.48"/>
      </g>
     </g>
     <g id="text_4">
      <!-- 2021-12 -->
      <g transform="translate(204.822697 310.951846)rotate(-30)scale(0.1 -0.1)">
       <use xlink:href="#DejaVuSans-32"/>
       <use x="63.623047" xlink:href="#DejaVuSans-30"/>
       <use x="127.246094" xlink:href="#DejaVuSans-32"/>
       <use x="190.869141" xlink:href="#DejaVuSans-31"/>
       <use x="254.492188" xlink:href="#DejaVuSans-2d"/>
       <use x="290.576172" xlink:href="#DejaVuSans-31"/>
       <use x="354.199219" xlink:href="#DejaVuSans-32"/>
      </g>
     </g>
    </g>
    <g id="xtick_5">
     <g id="line2d_5">
      <g>
       <use style="stroke:#000000;stroke-width:0.8;" x="294.194103" xlink:href="#m243efab39b" y="276.48"/>
      </g>
     </g>
     <g id="text_5">
      <!-- 2022-01 -->
      <g transform="translate(256.969282 310.951846)rotate(-30)scale(0.1 -0.1)">
       <use xlink:href="#DejaVuSans-32"/>
       <use x="63.623047" xlink:href="#DejaVuSans-30"/>
       <use x="127.246094" xlink:href="#DejaVuSans-32"/>
       <use x="190.869141" xlink:href="#DejaVuSans-32"/>
       <use x="254.492188" xlink:href="#DejaVuSans-2d"/>
       <use x="290.576172" xlink:href="#DejaVuSans-30"/>
       <use x="354.199219" xlink:href="#DejaVuSans-31"/>
      </g>
     </g>
    </g>
    <g id="xtick_6">
     <g id="line2d_6">
      <g>
       <use style="stroke:#000000;stroke-width:0.8;" x="346.340688" xlink:href="#m243efab39b" y="276.48"/>
      </g>
     </g>
     <g id="text_6">
      <!-- 2022-02 -->
      <g transform="translate(309.115867 310.951846)rotate(-30)scale(0.1 -0.1)">
       <use xlink:href="#DejaVuSans-32"/>
       <use x="63.623047" xlink:href="#DejaVuSans-30"/>
       <use x="127.246094" xlink:href="#DejaVuSans-32"/>
       <use x="190.869141" xlink:href="#DejaVuSans-32"/>
       <use x="254.492188" xlink:href="#DejaVuSans-2d"/>
       <use x="290.576172" xlink:href="#DejaVuSans-30"/>
       <use x="354.199219" xlink:href="#DejaVuSans-32"/>
      </g>
     </g>
    </g>
    <g id="xtick_7">
     <g id="line2d_7">
      <g>
       <use style="stroke:#000000;stroke-width:0.8;" x="393.440829" xlink:href="#m243efab39b" y="276.48"/>
      </g>
     </g>
     <g id="text_7">
      <!-- 2022-03 -->
      <g transform="translate(356.216008 310.951846)rotate(-30)scale(0.1 -0.1)">
       <defs>
        <path d="M 2597 2516 
Q 3050 2419 3304 2112 
Q 3559 1806 3559 1356 
Q 3559 666 3084 287 
Q 2609 -91 1734 -91 
Q 1441 -91 1130 -33 
Q 819 25 488 141 
L 488 750 
Q 750 597 1062 519 
Q 1375 441 1716 441 
Q 2309 441 2620 675 
Q 2931 909 2931 1356 
Q 2931 1769 2642 2001 
Q 2353 2234 1838 2234 
L 1294 2234 
L 1294 2753 
L 1863 2753 
Q 2328 2753 2575 2939 
Q 2822 3125 2822 3475 
Q 2822 3834 2567 4026 
Q 2313 4219 1838 4219 
Q 1578 4219 1281 4162 
Q 984 4106 628 3988 
L 628 4550 
Q 988 4650 1302 4700 
Q 1616 4750 1894 4750 
Q 2613 4750 3031 4423 
Q 3450 4097 3450 3541 
Q 3450 3153 3228 2886 
Q 3006 2619 2597 2516 
z
" id="DejaVuSans-33" transform="scale(0.015625)"/>
       </defs>
       <use xlink:href="#DejaVuSans-32"/>
       <use x="63.623047" xlink:href="#DejaVuSans-30"/>
       <use x="127.246094" xlink:href="#DejaVuSans-32"/>
       <use x="190.869141" xlink:href="#DejaVuSans-32"/>
       <use x="254.492188" xlink:href="#DejaVuSans-2d"/>
       <use x="290.576172" xlink:href="#DejaVuSans-30"/>
       <use x="354.199219" xlink:href="#DejaVuSans-33"/>
      </g>
     </g>
    </g>
    <g id="text_8">
     <!-- date -->
     <g transform="translate(224.885 324.351346)scale(0.1 -0.1)">
      <defs>
       <path d="M 2906 2969 
L 2906 4863 
L 3481 4863 
L 3481 0 
L 2906 0 
L 2906 525 
Q 2725 213 2448 61 
Q 2172 -91 1784 -91 
Q 1150 -91 751 415 
Q 353 922 353 1747 
Q 353 2572 751 3078 
Q 1150 3584 1784 3584 
Q 2172 3584 2448 3432 
Q 2725 3281 2906 2969 
z
M 947 1747 
Q 947 1113 1208 752 
Q 1469 391 1925 391 
Q 2381 391 2643 752 
Q 2906 1113 2906 1747 
Q 2906 2381 2643 2742 
Q 2381 3103 1925 3103 
Q 1469 3103 1208 2742 
Q 947 2381 947 1747 
z
" id="DejaVuSans-64" transform="scale(0.015625)"/>
       <path d="M 2194 1759 
Q 1497 1759 1228 1600 
Q 959 1441 959 1056 
Q 959 750 1161 570 
Q 1363 391 1709 391 
Q 2188 391 2477 730 
Q 2766 1069 2766 1631 
L 2766 1759 
L 2194 1759 
z
M 3341 1997 
L 3341 0 
L 2766 0 
L 2766 531 
Q 2569 213 2275 61 
Q 1981 -91 1556 -91 
Q 1019 -91 701 211 
Q 384 513 384 1019 
Q 384 1609 779 1909 
Q 1175 2209 1959 2209 
L 2766 2209 
L 2766 2266 
Q 2766 2663 2505 2880 
Q 2244 3097 1772 3097 
Q 1472 3097 1187 3025 
Q 903 2953 641 2809 
L 641 3341 
Q 956 3463 1253 3523 
Q 1550 3584 1831 3584 
Q 2591 3584 2966 3190 
Q 3341 2797 3341 1997 
z
" id="DejaVuSans-61" transform="scale(0.015625)"/>
       <path d="M 1172 4494 
L 1172 3500 
L 2356 3500 
L 2356 3053 
L 1172 3053 
L 1172 1153 
Q 1172 725 1289 603 
Q 1406 481 1766 481 
L 2356 481 
L 2356 0 
L 1766 0 
Q 1100 0 847 248 
Q 594 497 594 1153 
L 594 3053 
L 172 3053 
L 172 3500 
L 594 3500 
L 594 4494 
L 1172 4494 
z
" id="DejaVuSans-74" transform="scale(0.015625)"/>
       <path d="M 3597 1894 
L 3597 1613 
L 953 1613 
Q 991 1019 1311 708 
Q 1631 397 2203 397 
Q 2534 397 2845 478 
Q 3156 559 3463 722 
L 3463 178 
Q 3153 47 2828 -22 
Q 2503 -91 2169 -91 
Q 1331 -91 842 396 
Q 353 884 353 1716 
Q 353 2575 817 3079 
Q 1281 3584 2069 3584 
Q 2775 3584 3186 3129 
Q 3597 2675 3597 1894 
z
M 3022 2063 
Q 3016 2534 2758 2815 
Q 2500 3097 2075 3097 
Q 1594 3097 1305 2825 
Q 1016 2553 972 2059 
L 3022 2063 
z
" id="DejaVuSans-65" transform="scale(0.015625)"/>
      </defs>
      <use xlink:href="#DejaVuSans-64"/>
      <use x="63.476562" xlink:href="#DejaVuSans-61"/>
      <use x="124.755859" xlink:href="#DejaVuSans-74"/>
      <use x="163.964844" xlink:href="#DejaVuSans-65"/>
     </g>
    </g>
   </g>
   <g id="matplotlib.axis_2">
    <g id="ytick_1">
     <g id="line2d_8">
      <defs>
       <path d="M 0 0 
L -3.5 0 
" id="m5b8963eaad" style="stroke:#000000;stroke-width:0.8;"/>
      </defs>
      <g>
       <use style="stroke:#000000;stroke-width:0.8;" x="57.6" xlink:href="#m5b8963eaad" y="261.200769"/>
      </g>
     </g>
     <g id="text_9">
      <!-- 85000 -->
      <g transform="translate(18.7875 264.999988)scale(0.1 -0.1)">
       <defs>
        <path d="M 2034 2216 
Q 1584 2216 1326 1975 
Q 1069 1734 1069 1313 
Q 1069 891 1326 650 
Q 1584 409 2034 409 
Q 2484 409 2743 651 
Q 3003 894 3003 1313 
Q 3003 1734 2745 1975 
Q 2488 2216 2034 2216 
z
M 1403 2484 
Q 997 2584 770 2862 
Q 544 3141 544 3541 
Q 544 4100 942 4425 
Q 1341 4750 2034 4750 
Q 2731 4750 3128 4425 
Q 3525 4100 3525 3541 
Q 3525 3141 3298 2862 
Q 3072 2584 2669 2484 
Q 3125 2378 3379 2068 
Q 3634 1759 3634 1313 
Q 3634 634 3220 271 
Q 2806 -91 2034 -91 
Q 1263 -91 848 271 
Q 434 634 434 1313 
Q 434 1759 690 2068 
Q 947 2378 1403 2484 
z
M 1172 3481 
Q 1172 3119 1398 2916 
Q 1625 2713 2034 2713 
Q 2441 2713 2670 2916 
Q 2900 3119 2900 3481 
Q 2900 3844 2670 4047 
Q 2441 4250 2034 4250 
Q 1625 4250 1398 4047 
Q 1172 3844 1172 3481 
z
" id="DejaVuSans-38" transform="scale(0.015625)"/>
        <path d="M 691 4666 
L 3169 4666 
L 3169 4134 
L 1269 4134 
L 1269 2991 
Q 1406 3038 1543 3061 
Q 1681 3084 1819 3084 
Q 2600 3084 3056 2656 
Q 3513 2228 3513 1497 
Q 3513 744 3044 326 
Q 2575 -91 1722 -91 
Q 1428 -91 1123 -41 
Q 819 9 494 109 
L 494 744 
Q 775 591 1075 516 
Q 1375 441 1709 441 
Q 2250 441 2565 725 
Q 2881 1009 2881 1497 
Q 2881 1984 2565 2268 
Q 2250 2553 1709 2553 
Q 1456 2553 1204 2497 
Q 953 2441 691 2322 
L 691 4666 
z
" id="DejaVuSans-35" transform="scale(0.015625)"/>
       </defs>
       <use xlink:href="#DejaVuSans-38"/>
       <use x="63.623047" xlink:href="#DejaVuSans-35"/>
       <use x="127.246094" xlink:href="#DejaVuSans-30"/>
       <use x="190.869141" xlink:href="#DejaVuSans-30"/>
       <use x="254.492188" xlink:href="#DejaVuSans-30"/>
      </g>
     </g>
    </g>
    <g id="ytick_2">
     <g id="line2d_9">
      <g>
       <use style="stroke:#000000;stroke-width:0.8;" x="57.6" xlink:href="#m5b8963eaad" y="226.83158"/>
      </g>
     </g>
     <g id="text_10">
      <!-- 90000 -->
      <g transform="translate(18.7875 230.630799)scale(0.1 -0.1)">
       <use xlink:href="#DejaVuSans-39"/>
       <use x="63.623047" xlink:href="#DejaVuSans-30"/>
       <use x="127.246094" xlink:href="#DejaVuSans-30"/>
       <use x="190.869141" xlink:href="#DejaVuSans-30"/>
       <use x="254.492188" xlink:href="#DejaVuSans-30"/>
      </g>
     </g>
    </g>
    <g id="ytick_3">
     <g id="line2d_10">
      <g>
       <use style="stroke:#000000;stroke-width:0.8;" x="57.6" xlink:href="#m5b8963eaad" y="192.462391"/>
      </g>
     </g>
     <g id="text_11">
      <!-- 95000 -->
      <g transform="translate(18.7875 196.26161)scale(0.1 -0.1)">
       <use xlink:href="#DejaVuSans-39"/>
       <use x="63.623047" xlink:href="#DejaVuSans-35"/>
       <use x="127.246094" xlink:href="#DejaVuSans-30"/>
       <use x="190.869141" xlink:href="#DejaVuSans-30"/>
       <use x="254.492188" xlink:href="#DejaVuSans-30"/>
      </g>
     </g>
    </g>
    <g id="ytick_4">
     <g id="line2d_11">
      <g>
       <use style="stroke:#000000;stroke-width:0.8;" x="57.6" xlink:href="#m5b8963eaad" y="158.093203"/>
      </g>
     </g>
     <g id="text_12">
      <!-- 100000 -->
      <g transform="translate(12.425 161.892421)scale(0.1 -0.1)">
       <use xlink:href="#DejaVuSans-31"/>
       <use x="63.623047" xlink:href="#DejaVuSans-30"/>
       <use x="127.246094" xlink:href="#DejaVuSans-30"/>
       <use x="190.869141" xlink:href="#DejaVuSans-30"/>
       <use x="254.492188" xlink:href="#DejaVuSans-30"/>
       <use x="318.115234" xlink:href="#DejaVuSans-30"/>
      </g>
     </g>
    </g>
    <g id="ytick_5">
     <g id="line2d_12">
      <g>
       <use style="stroke:#000000;stroke-width:0.8;" x="57.6" xlink:href="#m5b8963eaad" y="123.724014"/>
      </g>
     </g>
     <g id="text_13">
      <!-- 105000 -->
      <g transform="translate(12.425 127.523232)scale(0.1 -0.1)">
       <use xlink:href="#DejaVuSans-31"/>
       <use x="63.623047" xlink:href="#DejaVuSans-30"/>
       <use x="127.246094" xlink:href="#DejaVuSans-35"/>
       <use x="190.869141" xlink:href="#DejaVuSans-30"/>
       <use x="254.492188" xlink:href="#DejaVuSans-30"/>
       <use x="318.115234" xlink:href="#DejaVuSans-30"/>
      </g>
     </g>
    </g>
    <g id="ytick_6">
     <g id="line2d_13">
      <g>
       <use style="stroke:#000000;stroke-width:0.8;" x="57.6" xlink:href="#m5b8963eaad" y="89.354825"/>
      </g>
     </g>
     <g id="text_14">
      <!-- 110000 -->
      <g transform="translate(12.425 93.154044)scale(0.1 -0.1)">
       <use xlink:href="#DejaVuSans-31"/>
       <use x="63.623047" xlink:href="#DejaVuSans-31"/>
       <use x="127.246094" xlink:href="#DejaVuSans-30"/>
       <use x="190.869141" xlink:href="#DejaVuSans-30"/>
       <use x="254.492188" xlink:href="#DejaVuSans-30"/>
       <use x="318.115234" xlink:href="#DejaVuSans-30"/>
      </g>
     </g>
    </g>
    <g id="ytick_7">
     <g id="line2d_14">
      <g>
       <use style="stroke:#000000;stroke-width:0.8;" x="57.6" xlink:href="#m5b8963eaad" y="54.985636"/>
      </g>
     </g>
     <g id="text_15">
      <!-- 115000 -->
      <g transform="translate(12.425 58.784855)scale(0.1 -0.1)">
       <use xlink:href="#DejaVuSans-31"/>
       <use x="63.623047" xlink:href="#DejaVuSans-31"/>
       <use x="127.246094" xlink:href="#DejaVuSans-35"/>
       <use x="190.869141" xlink:href="#DejaVuSans-30"/>
       <use x="254.492188" xlink:href="#DejaVuSans-30"/>
       <use x="318.115234" xlink:href="#DejaVuSans-30"/>
      </g>
     </g>
    </g>
   </g>
   <g id="line2d_15">
    <path clip-path="url(#p11c63a67ab)" d="M 73.832727 158.093203 
L 75.514875 158.950481 
L 77.197023 155.829295 
L 78.879171 159.850425 
L 80.561319 153.403445 
L 85.607763 149.050783 
L 87.289911 147.960732 
L 88.972058 149.33813 
L 90.654206 148.83818 
L 99.064946 149.001996 
L 100.747094 151.501256 
L 102.429242 153.648491 
L 104.11139 160.140442 
L 109.157833 154.299172 
L 110.839981 164.189442 
L 112.522129 159.421216 
L 114.204277 160.607536 
L 115.886425 166.956942 
L 120.932869 178.537313 
L 122.615016 180.755073 
L 124.297164 175.694558 
L 125.979312 164.586621 
L 127.66146 158.719317 
L 132.707904 153.443893 
L 134.390052 167.858663 
L 136.0722 165.701307 
L 137.754348 171.467176 
L 139.436496 161.318141 
L 144.482939 173.682411 
L 146.165087 163.768976 
L 147.847235 160.646965 
L 149.529383 160.691637 
L 151.211531 159.729803 
L 156.257975 158.693189 
L 157.940122 158.127398 
L 159.62227 166.917022 
L 161.304418 153.655892 
L 162.986566 152.387137 
L 168.03301 147.309404 
L 169.715158 140.061526 
L 171.397306 137.647576 
L 173.079454 149.329626 
L 174.761602 158.083937 
L 179.808045 157.283841 
L 181.490193 163.519522 
L 183.172341 165.112028 
L 184.854489 156.123271 
L 186.536637 165.276077 
L 191.583081 151.455156 
L 193.265228 151.378738 
L 194.947376 144.679698 
L 196.629524 153.282463 
L 198.311672 148.480859 
L 203.358116 148.017153 
L 205.040264 156.083448 
L 206.722412 156.501368 
L 208.40456 161.51089 
L 210.086707 156.379803 
L 215.133151 154.083411 
L 216.815299 154.069853 
L 218.497447 158.272175 
L 220.179595 160.375998 
L 221.861743 160.46541 
L 226.908187 156.219519 
L 228.590334 150.73002 
L 230.272482 150.944536 
L 233.636778 151.178008 
L 238.683222 157.14152 
L 240.36537 170.4875 
L 242.047518 179.705427 
L 243.729666 170.997045 
L 245.411813 175.16801 
L 250.458257 162.723682 
L 252.140405 150.278916 
L 253.822553 145.120229 
L 255.504701 145.012261 
L 257.186849 142.829309 
L 262.233293 149.644924 
L 265.597588 141.749037 
L 267.279736 138.616656 
L 268.961884 147.029925 
L 274.008328 156.514874 
L 275.690476 140.592797 
L 277.372624 137.284572 
L 279.054772 130.568948 
L 285.783363 121.580577 
L 287.465511 122.182018 
L 289.147659 121.954859 
L 290.829807 123.218903 
L 292.511955 126.438303 
L 297.558398 115.47776 
L 299.240546 106.301477 
L 300.922694 125.951479 
L 302.604842 119.740293 
L 304.28699 117.178012 
L 309.333434 116.757398 
L 311.015582 110.800551 
L 312.69773 109.008991 
L 314.379878 117.542324 
L 316.062025 115.904924 
L 322.790617 131.240795 
L 324.472765 134.789125 
L 326.154913 143.568351 
L 327.837061 159.420127 
L 332.883504 157.951973 
L 334.565652 166.160794 
L 336.2478 166.486383 
L 337.929948 170.869621 
L 339.612096 152.941626 
L 344.65854 138.510488 
L 346.340688 131.92678 
L 348.022836 121.140679 
L 349.704984 166.448742 
L 351.387131 165.775606 
L 356.433575 176.901277 
L 358.115723 179.03896 
L 359.797871 163.961156 
L 361.480019 176.19872 
L 363.162167 191.104943 
L 368.20861 196.086751 
L 369.890758 187.340291 
L 371.572906 191.343962 
L 373.255054 203.143864 
L 374.937202 207.063589 
L 381.665794 214.213877 
L 383.347942 223.296169 
L 385.030089 209.318873 
L 386.712237 197.419829 
L 391.758681 199.443537 
L 393.440829 209.888723 
L 395.122977 196.729611 
L 396.805125 198.983618 
L 398.487273 211.502221 
L 398.487273 211.502221 
" style="fill:none;stroke:#0000ff;stroke-linecap:square;stroke-opacity:0.9;stroke-width:2;"/>
   </g>
   <g id="line2d_16">
    <path clip-path="url(#p11c63a67ab)" d="M 73.832727 158.093203 
L 77.197023 151.436981 
L 78.879171 155.702643 
L 80.561319 147.234155 
L 85.607763 144.863614 
L 87.289911 143.903535 
L 88.972058 143.936705 
L 90.654206 145.093151 
L 92.336354 144.458559 
L 99.064946 143.381229 
L 100.747094 146.47546 
L 102.429242 147.894281 
L 104.11139 154.939638 
L 109.157833 150.113431 
L 110.839981 156.910997 
L 112.522129 153.424782 
L 114.204277 155.475262 
L 115.886425 164.000074 
L 120.932869 175.401209 
L 122.615016 175.345508 
L 124.297164 171.261569 
L 125.979312 162.847791 
L 127.66146 157.408189 
L 132.707904 152.718965 
L 134.390052 166.607593 
L 136.0722 165.981576 
L 137.754348 172.082208 
L 139.436496 162.771772 
L 144.482939 170.033103 
L 146.165087 160.225847 
L 147.847235 158.225304 
L 149.529383 156.965038 
L 151.211531 153.315534 
L 156.257975 157.580889 
L 157.940122 162.851087 
L 159.62227 164.958454 
L 161.304418 148.082989 
L 162.986566 143.391274 
L 168.03301 141.412513 
L 169.715158 135.354006 
L 171.397306 131.739116 
L 173.079454 140.643154 
L 174.761602 144.149744 
L 179.808045 146.278572 
L 183.172341 153.878251 
L 184.854489 144.210715 
L 186.536637 142.908903 
L 191.583081 143.001176 
L 193.265228 140.486017 
L 194.947376 135.059822 
L 196.629524 135.907679 
L 198.311672 136.242876 
L 203.358116 134.956222 
L 205.040264 140.592077 
L 206.722412 144.497412 
L 208.40456 144.296896 
L 210.086707 139.762287 
L 215.133151 137.889959 
L 216.815299 139.964523 
L 218.497447 139.982203 
L 220.179595 140.410632 
L 221.861743 142.797596 
L 226.908187 139.508815 
L 228.590334 132.594204 
L 230.272482 132.728746 
L 233.636778 150.474243 
L 238.683222 142.971302 
L 240.36537 157.817278 
L 242.047518 166.003721 
L 243.729666 156.841056 
L 245.411813 161.887732 
L 250.458257 151.918091 
L 252.140405 140.144879 
L 253.822553 135.733506 
L 255.504701 136.508932 
L 257.186849 132.136914 
L 262.233293 138.84553 
L 263.91544 138.488825 
L 265.597588 133.447783 
L 267.279736 132.589479 
L 268.961884 142.337761 
L 274.008328 150.042428 
L 275.690476 136.507669 
L 277.372624 133.073874 
L 279.054772 126.664794 
L 285.783363 117.792675 
L 289.147659 117.525689 
L 290.829807 118.528352 
L 292.511955 121.475427 
L 297.558398 113.625785 
L 299.240546 106.027094 
L 300.922694 122.483304 
L 302.604842 119.087883 
L 304.28699 115.237551 
L 309.333434 115.910817 
L 311.015582 111.708285 
L 312.69773 111.61909 
L 314.379878 117.13496 
L 316.062025 117.295782 
L 322.790617 133.70464 
L 326.154913 147.157059 
L 327.837061 161.893974 
L 332.883504 162.7702 
L 334.565652 161.192366 
L 336.2478 162.240673 
L 337.929948 167.701258 
L 339.612096 151.627806 
L 344.65854 140.50354 
L 346.340688 132.543976 
L 348.022836 121.536066 
L 349.704984 153.199769 
L 351.387131 147.569074 
L 356.433575 152.350316 
L 358.115723 147.59386 
L 359.797871 141.138302 
L 361.480019 152.730382 
L 363.162167 167.246816 
L 368.20861 173.773831 
L 369.890758 165.05202 
L 371.572906 166.744448 
L 373.255054 180.311031 
L 374.937202 183.397937 
L 381.665794 189.264041 
L 383.347942 198.274891 
L 385.030089 194.688486 
L 386.712237 178.729684 
L 391.758681 185.659357 
L 393.440829 198.973545 
L 395.122977 183.711766 
L 396.805125 184.989582 
L 398.487273 194.775448 
L 398.487273 194.775448 
" style="fill:none;stroke:#ff0000;stroke-linecap:square;stroke-opacity:0.9;stroke-width:2;"/>
   </g>
   <g id="line2d_17">
    <path clip-path="url(#p11c63a67ab)" d="M 73.832727 158.093203 
L 75.514875 154.376349 
L 77.197023 151.789208 
L 78.879171 155.165531 
L 80.561319 149.269529 
L 85.607763 144.290594 
L 87.289911 143.005068 
L 88.972058 144.828689 
L 90.654206 143.855435 
L 92.336354 144.147855 
L 99.064946 144.662097 
L 100.747094 146.874661 
L 102.429242 148.412535 
L 104.11139 154.428368 
L 109.157833 149.159931 
L 110.839981 158.50124 
L 112.522129 153.589177 
L 114.204277 155.138709 
L 115.886425 161.344417 
L 120.932869 172.798177 
L 122.615016 175.028807 
L 124.297164 169.785511 
L 125.979312 158.464057 
L 127.66146 152.878773 
L 132.707904 146.623782 
L 134.390052 161.711126 
L 136.0722 159.794394 
L 137.754348 164.420159 
L 139.436496 154.269364 
L 144.482939 166.838804 
L 146.165087 156.384543 
L 147.847235 153.70737 
L 149.529383 152.091564 
L 151.211531 149.086217 
L 156.257975 153.112877 
L 157.940122 158.347735 
L 159.62227 159.751088 
L 161.304418 146.199375 
L 162.986566 145.064159 
L 168.03301 139.134533 
L 169.715158 132.08115 
L 171.397306 129.599242 
L 173.079454 140.749273 
L 174.761602 150.183029 
L 179.808045 149.648791 
L 181.490193 155.655875 
L 183.172341 157.007738 
L 184.854489 148.257177 
L 186.536637 147.432561 
L 191.583081 143.571869 
L 193.265228 142.491293 
L 194.947376 136.442526 
L 196.629524 136.501195 
L 198.311672 131.666841 
L 203.358116 130.364894 
L 205.040264 139.446948 
L 206.722412 144.922643 
L 208.40456 145.081507 
L 210.086707 139.729402 
L 215.133151 137.450291 
L 216.815299 140.984136 
L 218.497447 140.839265 
L 220.179595 143.316925 
L 221.861743 143.507733 
L 226.908187 138.842562 
L 228.590334 132.881201 
L 230.272482 133.82473 
L 233.636778 149.065846 
L 238.683222 140.450778 
L 240.36537 154.154366 
L 242.047518 163.942323 
L 243.729666 155.205333 
L 245.411813 160.292597 
L 250.458257 147.232397 
L 252.140405 134.84325 
L 253.822553 128.868519 
L 255.504701 128.756304 
L 257.186849 126.446702 
L 262.233293 132.655913 
L 263.91544 129.624539 
L 265.597588 125.262139 
L 267.279736 122.402823 
L 268.961884 131.592737 
L 274.008328 140.642637 
L 275.690476 124.204931 
L 277.372624 121.201574 
L 279.054772 114.644959 
L 285.783363 105.403242 
L 287.465511 105.695632 
L 289.147659 105.672515 
L 290.829807 106.414581 
L 292.511955 109.673044 
L 297.558398 98.525415 
L 299.240546 89.400254 
L 300.922694 108.837201 
L 302.604842 101.196361 
L 304.28699 98.332133 
L 309.333434 96.752165 
L 311.015582 89.988677 
L 312.69773 88.622306 
L 314.379878 97.750136 
L 316.062025 95.390125 
L 324.472765 115.305649 
L 326.154913 123.656963 
L 327.837061 140.343764 
L 332.883504 138.821705 
L 334.565652 147.371313 
L 336.2478 147.089326 
L 337.929948 152.081618 
L 339.612096 133.973375 
L 344.65854 118.522017 
L 346.340688 111.761298 
L 348.022836 99.406891 
L 349.704984 148.960153 
L 351.387131 148.839981 
L 356.433575 160.359451 
L 358.115723 161.874531 
L 359.797871 147.050554 
L 361.480019 159.464926 
L 363.162167 174.652118 
L 368.20861 179.240621 
L 369.890758 171.192296 
L 371.572906 174.532658 
L 373.255054 186.826062 
L 374.937202 191.04808 
L 381.665794 197.281457 
L 383.347942 206.729348 
L 385.030089 192.11688 
L 386.712237 179.624476 
L 391.758681 182.165221 
L 393.440829 192.185939 
L 395.122977 178.589856 
L 396.805125 182.297514 
L 398.487273 191.12301 
L 398.487273 191.12301 
" style="fill:none;stroke:#ff8040;stroke-linecap:square;stroke-opacity:0.9;stroke-width:2;"/>
   </g>
   <g id="line2d_18">
    <path clip-path="url(#p11c63a67ab)" d="M 73.832727 158.780586 
L 75.514875 156.738103 
L 77.197023 156.331195 
L 78.879171 159.550033 
L 80.561319 152.50805 
L 85.607763 152.713499 
L 87.289911 152.567907 
L 88.972058 154.90045 
L 90.654206 157.713574 
L 92.336354 157.262559 
L 99.064946 158.258684 
L 100.747094 162.599391 
L 102.429242 163.966069 
L 104.11139 171.134461 
L 109.157833 166.496485 
L 110.839981 170.078297 
L 112.522129 166.00883 
L 114.204277 167.737694 
L 115.886425 176.864263 
L 120.932869 188.447291 
L 122.615016 189.489343 
L 124.297164 188.435074 
L 125.979312 180.408355 
L 127.66146 177.392026 
L 132.707904 175.097847 
L 134.390052 189.080632 
L 136.0722 188.554777 
L 137.754348 194.623414 
L 139.436496 185.55309 
L 144.482939 193.579845 
L 146.165087 186.858209 
L 147.847235 184.011176 
L 149.529383 182.325432 
L 151.211531 180.055074 
L 156.257975 184.953653 
L 157.940122 188.100254 
L 159.62227 189.925287 
L 161.304418 173.52766 
L 162.986566 171.320284 
L 168.03301 168.849734 
L 169.715158 162.327553 
L 171.397306 158.494868 
L 174.761602 183.480677 
L 179.808045 183.310749 
L 181.490193 187.718061 
L 183.172341 182.100544 
L 184.854489 172.848117 
L 186.536637 173.575285 
L 191.583081 170.025527 
L 193.265228 167.297385 
L 194.947376 162.342848 
L 196.629524 165.366959 
L 198.311672 165.429549 
L 203.358116 165.055001 
L 205.040264 172.150852 
L 206.722412 176.753789 
L 208.40456 176.825228 
L 210.086707 174.512902 
L 215.133151 174.783288 
L 216.815299 177.007587 
L 218.497447 177.820844 
L 220.179595 177.725692 
L 221.861743 181.324715 
L 226.908187 180.678535 
L 228.590334 174.537075 
L 230.272482 174.534345 
L 233.636778 192.021252 
L 238.683222 185.11306 
L 240.36537 201.947156 
L 242.047518 211.710945 
L 243.729666 202.677414 
L 245.411813 206.660624 
L 250.458257 197.161743 
L 252.140405 185.27459 
L 253.822553 181.734671 
L 255.504701 182.507714 
L 257.186849 178.883764 
L 262.233293 185.403208 
L 263.91544 188.237575 
L 265.597588 184.815606 
L 267.279736 185.217268 
L 268.961884 192.982498 
L 274.008328 201.272838 
L 275.690476 189.911663 
L 277.372624 186.926019 
L 279.054772 181.172573 
L 285.783363 171.892915 
L 287.465511 173.043293 
L 290.829807 174.660806 
L 292.511955 175.960688 
L 297.558398 167.124076 
L 299.240546 157.159562 
L 300.922694 167.494738 
L 302.604842 163.048979 
L 304.28699 160.437395 
L 309.333434 162.460485 
L 311.015582 158.851895 
L 312.69773 158.227481 
L 316.062025 163.341642 
L 324.472765 182.842503 
L 326.154913 189.05524 
L 327.837061 202.541535 
L 332.883504 203.051655 
L 334.565652 207.508815 
L 336.2478 210.020246 
L 337.929948 217.410311 
L 339.612096 203.03177 
L 344.65854 192.435946 
L 346.340688 184.072214 
L 348.022836 173.036656 
L 349.704984 214.051553 
L 351.387131 214.232889 
L 356.433575 226.0027 
L 358.115723 222.477083 
L 359.797871 217.591756 
L 363.162167 240.907251 
L 368.20861 246.742779 
L 369.890758 238.47783 
L 371.572906 237.881243 
L 373.255054 250.093171 
L 374.937202 252.566858 
L 381.665794 258.756164 
L 383.347942 265.797818 
L 386.712237 240.527092 
L 391.758681 245.898069 
L 393.440829 258.596951 
L 395.122977 243.786791 
L 396.805125 246.527643 
L 398.487273 254.982464 
L 398.487273 254.982464 
" style="fill:none;stroke:#0d0d0d;stroke-linecap:square;stroke-opacity:0.25;stroke-width:2;"/>
   </g>
   <g id="line2d_19">
    <path clip-path="url(#p11c63a67ab)" d="M 73.832727 157.405819 
L 75.514875 151.918453 
L 77.197023 147.070321 
L 78.879171 149.343838 
L 80.561319 141.277607 
L 85.607763 134.311937 
L 87.289911 133.42817 
L 88.972058 134.146817 
L 90.654206 134.406213 
L 92.336354 133.991397 
L 99.064946 131.492687 
L 100.747094 133.204088 
L 102.429242 135.195373 
L 104.11139 139.108746 
L 109.157833 134.201182 
L 110.839981 139.320183 
L 112.522129 137.266733 
L 114.204277 139.101441 
L 115.886425 144.989343 
L 120.932869 155.747163 
L 122.615016 155.937137 
L 124.297164 153.60931 
L 125.979312 144.399595 
L 127.66146 139.440663 
L 132.707904 133.243708 
L 134.390052 147.360974 
L 136.0722 146.474653 
L 137.754348 152.648905 
L 139.436496 138.866475 
L 144.482939 150.993711 
L 146.165087 139.038381 
L 147.847235 136.099601 
L 149.529383 133.652433 
L 151.211531 130.075559 
L 156.257975 134.611399 
L 157.940122 140.439782 
L 159.62227 142.677215 
L 161.304418 124.329205 
L 162.986566 121.261351 
L 168.03301 115.451774 
L 169.715158 107.725926 
L 171.397306 105.327186 
L 173.079454 108.691394 
L 174.761602 115.446491 
L 179.808045 116.480058 
L 181.490193 124.12819 
L 183.172341 128.567232 
L 184.854489 118.841245 
L 186.536637 113.725312 
L 191.583081 111.522993 
L 193.265228 111.023255 
L 194.947376 105.811666 
L 196.629524 106.300492 
L 198.311672 104.25344 
L 203.358116 102.678419 
L 205.040264 108.024543 
L 206.722412 110.722341 
L 208.40456 111.468501 
L 210.086707 104.490721 
L 215.133151 101.343052 
L 216.815299 103.914184 
L 218.497447 101.746591 
L 220.179595 98.673331 
L 221.861743 103.353407 
L 226.908187 103.845941 
L 228.590334 98.241537 
L 230.272482 94.947602 
L 233.636778 113.225435 
L 238.683222 107.143673 
L 240.36537 126.02924 
L 242.047518 135.175887 
L 243.729666 125.759855 
L 245.411813 129.893779 
L 250.458257 118.341265 
L 252.140405 102.640858 
L 253.822553 99.12203 
L 255.504701 100.043597 
L 257.186849 96.522554 
L 262.233293 99.284391 
L 263.91544 101.20645 
L 265.597588 95.525016 
L 267.279736 92.45414 
L 268.961884 96.021668 
L 274.008328 103.491498 
L 275.690476 90.288946 
L 277.372624 86.547091 
L 279.054772 78.66994 
L 285.783363 67.713544 
L 287.465511 67.725079 
L 289.147659 66.211028 
L 290.829807 67.491014 
L 292.511955 70.761012 
L 297.558398 61.804671 
L 299.240546 52.154182 
L 300.922694 67.739068 
L 302.604842 63.28578 
L 304.28699 60.215154 
L 309.333434 58.953423 
L 311.015582 54.373739 
L 312.69773 54.81929 
L 314.379878 62.247464 
L 316.062025 62.896878 
L 322.790617 80.331668 
L 324.472765 86.216198 
L 326.154913 92.753353 
L 327.837061 108.568153 
L 332.883504 108.832883 
L 334.565652 116.047253 
L 336.2478 109.748195 
L 337.929948 118.111529 
L 339.612096 101.026505 
L 344.65854 87.825719 
L 346.340688 77.619543 
L 348.022836 61.709312 
L 349.704984 106.255136 
L 351.387131 98.251189 
L 356.433575 101.24648 
L 359.797871 88.715164 
L 361.480019 102.061778 
L 363.162167 117.769923 
L 368.20861 123.864763 
L 369.890758 114.68626 
L 371.572906 115.758766 
L 373.255054 133.132443 
L 374.937202 135.059527 
L 381.665794 141.956556 
L 383.347942 151.096766 
L 385.030089 147.952199 
L 386.712237 129.309168 
L 391.758681 134.203295 
L 393.440829 153.359836 
L 395.122977 138.197427 
L 396.805125 139.548706 
L 398.487273 153.635832 
L 398.487273 153.635832 
" style="fill:none;stroke:#0d0d0d;stroke-linecap:square;stroke-opacity:0.25;stroke-width:2;"/>
   </g>
   <g id="patch_3">
    <path d="M 57.6 276.48 
L 57.6 41.472 
" style="fill:none;stroke:#000000;stroke-linecap:square;stroke-linejoin:miter;stroke-width:0.8;"/>
   </g>
   <g id="patch_4">
    <path d="M 414.72 276.48 
L 414.72 41.472 
" style="fill:none;stroke:#000000;stroke-linecap:square;stroke-linejoin:miter;stroke-width:0.8;"/>
   </g>
   <g id="patch_5">
    <path d="M 57.6 276.48 
L 414.72 276.48 
" style="fill:none;stroke:#000000;stroke-linecap:square;stroke-linejoin:miter;stroke-width:0.8;"/>
   </g>
   <g id="patch_6">
    <path d="M 57.6 41.472 
L 414.72 41.472 
" style="fill:none;stroke:#000000;stroke-linecap:square;stroke-linejoin:miter;stroke-width:0.8;"/>
   </g>
   <g id="text_16">
    <!-- TESTFUNDS1330 -->
    <g transform="translate(185.200312 22.034625)scale(0.12 -0.12)">
     <defs>
      <path d="M -19 4666 
L 3928 4666 
L 3928 4134 
L 2272 4134 
L 2272 0 
L 1638 0 
L 1638 4134 
L -19 4134 
L -19 4666 
z
" id="DejaVuSans-54" transform="scale(0.015625)"/>
      <path d="M 628 4666 
L 3578 4666 
L 3578 4134 
L 1259 4134 
L 1259 2753 
L 3481 2753 
L 3481 2222 
L 1259 2222 
L 1259 531 
L 3634 531 
L 3634 0 
L 628 0 
L 628 4666 
z
" id="DejaVuSans-45" transform="scale(0.015625)"/>
      <path d="M 3425 4513 
L 3425 3897 
Q 3066 4069 2747 4153 
Q 2428 4238 2131 4238 
Q 1616 4238 1336 4038 
Q 1056 3838 1056 3469 
Q 1056 3159 1242 3001 
Q 1428 2844 1947 2747 
L 2328 2669 
Q 3034 2534 3370 2195 
Q 3706 1856 3706 1288 
Q 3706 609 3251 259 
Q 2797 -91 1919 -91 
Q 1588 -91 1214 -16 
Q 841 59 441 206 
L 441 856 
Q 825 641 1194 531 
Q 1563 422 1919 422 
Q 2459 422 2753 634 
Q 3047 847 3047 1241 
Q 3047 1584 2836 1778 
Q 2625 1972 2144 2069 
L 1759 2144 
Q 1053 2284 737 2584 
Q 422 2884 422 3419 
Q 422 4038 858 4394 
Q 1294 4750 2059 4750 
Q 2388 4750 2728 4690 
Q 3069 4631 3425 4513 
z
" id="DejaVuSans-53" transform="scale(0.015625)"/>
      <path d="M 628 4666 
L 3309 4666 
L 3309 4134 
L 1259 4134 
L 1259 2759 
L 3109 2759 
L 3109 2228 
L 1259 2228 
L 1259 0 
L 628 0 
L 628 4666 
z
" id="DejaVuSans-46" transform="scale(0.015625)"/>
      <path d="M 556 4666 
L 1191 4666 
L 1191 1831 
Q 1191 1081 1462 751 
Q 1734 422 2344 422 
Q 2950 422 3222 751 
Q 3494 1081 3494 1831 
L 3494 4666 
L 4128 4666 
L 4128 1753 
Q 4128 841 3676 375 
Q 3225 -91 2344 -91 
Q 1459 -91 1007 375 
Q 556 841 556 1753 
L 556 4666 
z
" id="DejaVuSans-55" transform="scale(0.015625)"/>
      <path d="M 628 4666 
L 1478 4666 
L 3547 763 
L 3547 4666 
L 4159 4666 
L 4159 0 
L 3309 0 
L 1241 3903 
L 1241 0 
L 628 0 
L 628 4666 
z
" id="DejaVuSans-4e" transform="scale(0.015625)"/>
      <path d="M 1259 4147 
L 1259 519 
L 2022 519 
Q 2988 519 3436 956 
Q 3884 1394 3884 2338 
Q 3884 3275 3436 3711 
Q 2988 4147 2022 4147 
L 1259 4147 
z
M 628 4666 
L 1925 4666 
Q 3281 4666 3915 4102 
Q 4550 3538 4550 2338 
Q 4550 1131 3912 565 
Q 3275 0 1925 0 
L 628 0 
L 628 4666 
z
" id="DejaVuSans-44" transform="scale(0.015625)"/>
     </defs>
     <use xlink:href="#DejaVuSans-54"/>
     <use x="61.083984" xlink:href="#DejaVuSans-45"/>
     <use x="124.267578" xlink:href="#DejaVuSans-53"/>
     <use x="187.744141" xlink:href="#DejaVuSans-54"/>
     <use x="248.828125" xlink:href="#DejaVuSans-46"/>
     <use x="306.347656" xlink:href="#DejaVuSans-55"/>
     <use x="379.541016" xlink:href="#DejaVuSans-4e"/>
     <use x="454.345703" xlink:href="#DejaVuSans-44"/>
     <use x="531.347656" xlink:href="#DejaVuSans-53"/>
     <use x="594.824219" xlink:href="#DejaVuSans-31"/>
     <use x="658.447266" xlink:href="#DejaVuSans-33"/>
     <use x="722.070312" xlink:href="#DejaVuSans-33"/>
     <use x="785.693359" xlink:href="#DejaVuSans-30"/>
    </g>
    <!-- daily_report -->
    <g transform="translate(200.466563 35.472)scale(0.12 -0.12)">
     <defs>
      <path d="M 603 3500 
L 1178 3500 
L 1178 0 
L 603 0 
L 603 3500 
z
M 603 4863 
L 1178 4863 
L 1178 4134 
L 603 4134 
L 603 4863 
z
" id="DejaVuSans-69" transform="scale(0.015625)"/>
      <path d="M 603 4863 
L 1178 4863 
L 1178 0 
L 603 0 
L 603 4863 
z
" id="DejaVuSans-6c" transform="scale(0.015625)"/>
      <path d="M 2059 -325 
Q 1816 -950 1584 -1140 
Q 1353 -1331 966 -1331 
L 506 -1331 
L 506 -850 
L 844 -850 
Q 1081 -850 1212 -737 
Q 1344 -625 1503 -206 
L 1606 56 
L 191 3500 
L 800 3500 
L 1894 763 
L 2988 3500 
L 3597 3500 
L 2059 -325 
z
" id="DejaVuSans-79" transform="scale(0.015625)"/>
      <path d="M 3263 -1063 
L 3263 -1509 
L -63 -1509 
L -63 -1063 
L 3263 -1063 
z
" id="DejaVuSans-5f" transform="scale(0.015625)"/>
      <path d="M 2631 2963 
Q 2534 3019 2420 3045 
Q 2306 3072 2169 3072 
Q 1681 3072 1420 2755 
Q 1159 2438 1159 1844 
L 1159 0 
L 581 0 
L 581 3500 
L 1159 3500 
L 1159 2956 
Q 1341 3275 1631 3429 
Q 1922 3584 2338 3584 
Q 2397 3584 2469 3576 
Q 2541 3569 2628 3553 
L 2631 2963 
z
" id="DejaVuSans-72" transform="scale(0.015625)"/>
      <path d="M 1159 525 
L 1159 -1331 
L 581 -1331 
L 581 3500 
L 1159 3500 
L 1159 2969 
Q 1341 3281 1617 3432 
Q 1894 3584 2278 3584 
Q 2916 3584 3314 3078 
Q 3713 2572 3713 1747 
Q 3713 922 3314 415 
Q 2916 -91 2278 -91 
Q 1894 -91 1617 61 
Q 1341 213 1159 525 
z
M 3116 1747 
Q 3116 2381 2855 2742 
Q 2594 3103 2138 3103 
Q 1681 3103 1420 2742 
Q 1159 2381 1159 1747 
Q 1159 1113 1420 752 
Q 1681 391 2138 391 
Q 2594 391 2855 752 
Q 3116 1113 3116 1747 
z
" id="DejaVuSans-70" transform="scale(0.015625)"/>
      <path d="M 1959 3097 
Q 1497 3097 1228 2736 
Q 959 2375 959 1747 
Q 959 1119 1226 758 
Q 1494 397 1959 397 
Q 2419 397 2687 759 
Q 2956 1122 2956 1747 
Q 2956 2369 2687 2733 
Q 2419 3097 1959 3097 
z
M 1959 3584 
Q 2709 3584 3137 3096 
Q 3566 2609 3566 1747 
Q 3566 888 3137 398 
Q 2709 -91 1959 -91 
Q 1206 -91 779 398 
Q 353 888 353 1747 
Q 353 2609 779 3096 
Q 1206 3584 1959 3584 
z
" id="DejaVuSans-6f" transform="scale(0.015625)"/>
     </defs>
     <use xlink:href="#DejaVuSans-64"/>
     <use x="63.476562" xlink:href="#DejaVuSans-61"/>
     <use x="124.755859" xlink:href="#DejaVuSans-69"/>
     <use x="152.539062" xlink:href="#DejaVuSans-6c"/>
     <use x="180.322266" xlink:href="#DejaVuSans-79"/>
     <use x="239.501953" xlink:href="#DejaVuSans-5f"/>
     <use x="289.501953" xlink:href="#DejaVuSans-72"/>
     <use x="328.365234" xlink:href="#DejaVuSans-65"/>
     <use x="389.888672" xlink:href="#DejaVuSans-70"/>
     <use x="453.365234" xlink:href="#DejaVuSans-6f"/>
     <use x="514.546875" xlink:href="#DejaVuSans-72"/>
     <use x="555.660156" xlink:href="#DejaVuSans-74"/>
    </g>
   </g>
   <g id="legend_1">
    <g id="patch_7">
     <path d="M 64.6 122.862625 
L 155.792188 122.862625 
Q 157.792188 122.862625 157.792188 120.862625 
L 157.792188 48.472 
Q 157.792188 46.472 155.792188 46.472 
L 64.6 46.472 
Q 62.6 46.472 62.6 48.472 
L 62.6 120.862625 
Q 62.6 122.862625 64.6 122.862625 
z
" style="fill:#ffffff;opacity:0.8;stroke:#cccccc;stroke-linejoin:miter;"/>
    </g>
    <g id="line2d_20">
     <path d="M 66.6 54.570437 
L 86.6 54.570437 
" style="fill:none;stroke:#0000ff;stroke-linecap:square;stroke-opacity:0.9;stroke-width:2;"/>
    </g>
    <g id="line2d_21"/>
    <g id="text_17">
     <!-- alpaca -->
     <g transform="translate(94.6 58.070437)scale(0.1 -0.1)">
      <defs>
       <path d="M 3122 3366 
L 3122 2828 
Q 2878 2963 2633 3030 
Q 2388 3097 2138 3097 
Q 1578 3097 1268 2742 
Q 959 2388 959 1747 
Q 959 1106 1268 751 
Q 1578 397 2138 397 
Q 2388 397 2633 464 
Q 2878 531 3122 666 
L 3122 134 
Q 2881 22 2623 -34 
Q 2366 -91 2075 -91 
Q 1284 -91 818 406 
Q 353 903 353 1747 
Q 353 2603 823 3093 
Q 1294 3584 2113 3584 
Q 2378 3584 2631 3529 
Q 2884 3475 3122 3366 
z
" id="DejaVuSans-63" transform="scale(0.015625)"/>
      </defs>
      <use xlink:href="#DejaVuSans-61"/>
      <use x="61.279297" xlink:href="#DejaVuSans-6c"/>
      <use x="89.0625" xlink:href="#DejaVuSans-70"/>
      <use x="152.539062" xlink:href="#DejaVuSans-61"/>
      <use x="213.818359" xlink:href="#DejaVuSans-63"/>
      <use x="268.798828" xlink:href="#DejaVuSans-61"/>
     </g>
    </g>
    <g id="line2d_22">
     <path d="M 66.6 69.248562 
L 86.6 69.248562 
" style="fill:none;stroke:#ff0000;stroke-linecap:square;stroke-opacity:0.9;stroke-width:2;"/>
    </g>
    <g id="line2d_23"/>
    <g id="text_18">
     <!-- mattress -->
     <g transform="translate(94.6 72.748562)scale(0.1 -0.1)">
      <defs>
       <path d="M 3328 2828 
Q 3544 3216 3844 3400 
Q 4144 3584 4550 3584 
Q 5097 3584 5394 3201 
Q 5691 2819 5691 2113 
L 5691 0 
L 5113 0 
L 5113 2094 
Q 5113 2597 4934 2840 
Q 4756 3084 4391 3084 
Q 3944 3084 3684 2787 
Q 3425 2491 3425 1978 
L 3425 0 
L 2847 0 
L 2847 2094 
Q 2847 2600 2669 2842 
Q 2491 3084 2119 3084 
Q 1678 3084 1418 2786 
Q 1159 2488 1159 1978 
L 1159 0 
L 581 0 
L 581 3500 
L 1159 3500 
L 1159 2956 
Q 1356 3278 1631 3431 
Q 1906 3584 2284 3584 
Q 2666 3584 2933 3390 
Q 3200 3197 3328 2828 
z
" id="DejaVuSans-6d" transform="scale(0.015625)"/>
       <path d="M 2834 3397 
L 2834 2853 
Q 2591 2978 2328 3040 
Q 2066 3103 1784 3103 
Q 1356 3103 1142 2972 
Q 928 2841 928 2578 
Q 928 2378 1081 2264 
Q 1234 2150 1697 2047 
L 1894 2003 
Q 2506 1872 2764 1633 
Q 3022 1394 3022 966 
Q 3022 478 2636 193 
Q 2250 -91 1575 -91 
Q 1294 -91 989 -36 
Q 684 19 347 128 
L 347 722 
Q 666 556 975 473 
Q 1284 391 1588 391 
Q 1994 391 2212 530 
Q 2431 669 2431 922 
Q 2431 1156 2273 1281 
Q 2116 1406 1581 1522 
L 1381 1569 
Q 847 1681 609 1914 
Q 372 2147 372 2553 
Q 372 3047 722 3315 
Q 1072 3584 1716 3584 
Q 2034 3584 2315 3537 
Q 2597 3491 2834 3397 
z
" id="DejaVuSans-73" transform="scale(0.015625)"/>
      </defs>
      <use xlink:href="#DejaVuSans-6d"/>
      <use x="97.412109" xlink:href="#DejaVuSans-61"/>
      <use x="158.691406" xlink:href="#DejaVuSans-74"/>
      <use x="197.900391" xlink:href="#DejaVuSans-74"/>
      <use x="237.109375" xlink:href="#DejaVuSans-72"/>
      <use x="275.972656" xlink:href="#DejaVuSans-65"/>
      <use x="337.496094" xlink:href="#DejaVuSans-73"/>
      <use x="389.595703" xlink:href="#DejaVuSans-73"/>
     </g>
    </g>
    <g id="line2d_24">
     <path d="M 66.6 83.926687 
L 86.6 83.926687 
" style="fill:none;stroke:#ff8040;stroke-linecap:square;stroke-opacity:0.9;stroke-width:2;"/>
    </g>
    <g id="line2d_25"/>
    <g id="text_19">
     <!-- trader-0850 -->
     <g transform="translate(94.6 87.426687)scale(0.1 -0.1)">
      <use xlink:href="#DejaVuSans-74"/>
      <use x="39.208984" xlink:href="#DejaVuSans-72"/>
      <use x="80.322266" xlink:href="#DejaVuSans-61"/>
      <use x="141.601562" xlink:href="#DejaVuSans-64"/>
      <use x="205.078125" xlink:href="#DejaVuSans-65"/>
      <use x="266.601562" xlink:href="#DejaVuSans-72"/>
      <use x="301.339844" xlink:href="#DejaVuSans-2d"/>
      <use x="337.423828" xlink:href="#DejaVuSans-30"/>
      <use x="401.046875" xlink:href="#DejaVuSans-38"/>
      <use x="464.669922" xlink:href="#DejaVuSans-35"/>
      <use x="528.292969" xlink:href="#DejaVuSans-30"/>
     </g>
    </g>
    <g id="line2d_26">
     <path d="M 66.6 98.604812 
L 86.6 98.604812 
" style="fill:none;stroke:#0d0d0d;stroke-linecap:square;stroke-opacity:0.25;stroke-width:2;"/>
    </g>
    <g id="line2d_27"/>
    <g id="text_20">
     <!-- rando-min -->
     <g transform="translate(94.6 102.104812)scale(0.1 -0.1)">
      <defs>
       <path d="M 3513 2113 
L 3513 0 
L 2938 0 
L 2938 2094 
Q 2938 2591 2744 2837 
Q 2550 3084 2163 3084 
Q 1697 3084 1428 2787 
Q 1159 2491 1159 1978 
L 1159 0 
L 581 0 
L 581 3500 
L 1159 3500 
L 1159 2956 
Q 1366 3272 1645 3428 
Q 1925 3584 2291 3584 
Q 2894 3584 3203 3211 
Q 3513 2838 3513 2113 
z
" id="DejaVuSans-6e" transform="scale(0.015625)"/>
      </defs>
      <use xlink:href="#DejaVuSans-72"/>
      <use x="41.113281" xlink:href="#DejaVuSans-61"/>
      <use x="102.392578" xlink:href="#DejaVuSans-6e"/>
      <use x="165.771484" xlink:href="#DejaVuSans-64"/>
      <use x="229.248047" xlink:href="#DejaVuSans-6f"/>
      <use x="292.304688" xlink:href="#DejaVuSans-2d"/>
      <use x="328.388672" xlink:href="#DejaVuSans-6d"/>
      <use x="425.800781" xlink:href="#DejaVuSans-69"/>
      <use x="453.583984" xlink:href="#DejaVuSans-6e"/>
     </g>
    </g>
    <g id="line2d_28">
     <path d="M 66.6 113.282937 
L 86.6 113.282937 
" style="fill:none;stroke:#0d0d0d;stroke-linecap:square;stroke-opacity:0.25;stroke-width:2;"/>
    </g>
    <g id="line2d_29"/>
    <g id="text_21">
     <!-- rando-max -->
     <g transform="translate(94.6 116.782937)scale(0.1 -0.1)">
      <defs>
       <path d="M 3513 3500 
L 2247 1797 
L 3578 0 
L 2900 0 
L 1881 1375 
L 863 0 
L 184 0 
L 1544 1831 
L 300 3500 
L 978 3500 
L 1906 2253 
L 2834 3500 
L 3513 3500 
z
" id="DejaVuSans-78" transform="scale(0.015625)"/>
      </defs>
      <use xlink:href="#DejaVuSans-72"/>
      <use x="41.113281" xlink:href="#DejaVuSans-61"/>
      <use x="102.392578" xlink:href="#DejaVuSans-6e"/>
      <use x="165.771484" xlink:href="#DejaVuSans-64"/>
      <use x="229.248047" xlink:href="#DejaVuSans-6f"/>
      <use x="292.304688" xlink:href="#DejaVuSans-2d"/>
      <use x="328.388672" xlink:href="#DejaVuSans-6d"/>
      <use x="425.800781" xlink:href="#DejaVuSans-61"/>
      <use x="487.080078" xlink:href="#DejaVuSans-78"/>
     </g>
    </g>
   </g>
  </g>
 </g>
 <defs>
  <clipPath id="p11c63a67ab">
   <rect height="235.008" width="357.12" x="57.6" y="41.472"/>
  </clipPath>
 </defs>
</svg>
