<?xml version="1.0" encoding="utf-8" standalone="no"?>
<!DOCTYPE svg PUBLIC "-//W3C//DTD SVG 1.1//EN"
  "http://www.w3.org/Graphics/SVG/1.1/DTD/svg11.dtd">
<svg height="345.6pt" version="1.1" viewBox="0 0 460.8 345.6" width="460.8pt" xmlns="http://www.w3.org/2000/svg" xmlns:xlink="http://www.w3.org/1999/xlink">
 <metadata>
  <rdf:RDF xmlns:cc="http://creativecommons.org/ns#" xmlns:dc="http://purl.org/dc/elements/1.1/" xmlns:rdf="http://www.w3.org/1999/02/22-rdf-syntax-ns#">
   <cc:Work>
    <dc:type rdf:resource="http://purl.org/dc/dcmitype/StillImage"/>
    <dc:date>2022-04-29T10:03:17.875690</dc:date>
    <dc:format>image/svg+xml</dc:format>
    <dc:creator>
     <cc:Agent>
      <dc:title>Matplotlib v3.4.3, https://matplotlib.org/</dc:title>
     </cc:Agent>
    </dc:creator>
   </cc:Work>
  </rdf:RDF>
 </metadata>
 <defs>
  <style type="text/css">*{stroke-linecap:butt;stroke-linejoin:round;}</style>
 </defs>
 <g id="figure_1">
  <g id="patch_1">
   <path d="M 0 345.6 
L 460.8 345.6 
L 460.8 0 
L 0 0 
z
" style="fill:#ffffff;"/>
  </g>
  <g id="axes_1">
   <g id="patch_2">
    <path d="M 57.6 276.48 
L 414.72 276.48 
L 414.72 41.472 
L 57.6 41.472 
z
" style="fill:#ffffff;"/>
   </g>
   <g id="matplotlib.axis_1">
    <g id="xtick_1">
     <g id="line2d_1">
      <defs>
       <path d="M 0 0 
L 0 3.5 
" id="me6432a9f87" style="stroke:#000000;stroke-width:0.8;"/>
      </defs>
      <g>
       <use style="stroke:#000000;stroke-width:0.8;" x="100.047069" xlink:href="#me6432a9f87" y="276.48"/>
      </g>
     </g>
     <g id="text_1">
      <!-- 2021-12 -->
      <g transform="translate(62.822249 310.951846)rotate(-30)scale(0.1 -0.1)">
       <defs>
        <path d="M 1228 531 
L 3431 531 
L 3431 0 
L 469 0 
L 469 531 
Q 828 903 1448 1529 
Q 2069 2156 2228 2338 
Q 2531 2678 2651 2914 
Q 2772 3150 2772 3378 
Q 2772 3750 2511 3984 
Q 2250 4219 1831 4219 
Q 1534 4219 1204 4116 
Q 875 4013 500 3803 
L 500 4441 
Q 881 4594 1212 4672 
Q 1544 4750 1819 4750 
Q 2544 4750 2975 4387 
Q 3406 4025 3406 3419 
Q 3406 3131 3298 2873 
Q 3191 2616 2906 2266 
Q 2828 2175 2409 1742 
Q 1991 1309 1228 531 
z
" id="DejaVuSans-32" transform="scale(0.015625)"/>
        <path d="M 2034 4250 
Q 1547 4250 1301 3770 
Q 1056 3291 1056 2328 
Q 1056 1369 1301 889 
Q 1547 409 2034 409 
Q 2525 409 2770 889 
Q 3016 1369 3016 2328 
Q 3016 3291 2770 3770 
Q 2525 4250 2034 4250 
z
M 2034 4750 
Q 2819 4750 3233 4129 
Q 3647 3509 3647 2328 
Q 3647 1150 3233 529 
Q 2819 -91 2034 -91 
Q 1250 -91 836 529 
Q 422 1150 422 2328 
Q 422 3509 836 4129 
Q 1250 4750 2034 4750 
z
" id="DejaVuSans-30" transform="scale(0.015625)"/>
        <path d="M 794 531 
L 1825 531 
L 1825 4091 
L 703 3866 
L 703 4441 
L 1819 4666 
L 2450 4666 
L 2450 531 
L 3481 531 
L 3481 0 
L 794 0 
L 794 531 
z
" id="DejaVuSans-31" transform="scale(0.015625)"/>
        <path d="M 313 2009 
L 1997 2009 
L 1997 1497 
L 313 1497 
L 313 2009 
z
" id="DejaVuSans-2d" transform="scale(0.015625)"/>
       </defs>
       <use xlink:href="#DejaVuSans-32"/>
       <use x="63.623047" xlink:href="#DejaVuSans-30"/>
       <use x="127.246094" xlink:href="#DejaVuSans-32"/>
       <use x="190.869141" xlink:href="#DejaVuSans-31"/>
       <use x="254.492188" xlink:href="#DejaVuSans-2d"/>
       <use x="290.576172" xlink:href="#DejaVuSans-31"/>
       <use x="354.199219" xlink:href="#DejaVuSans-32"/>
      </g>
     </g>
    </g>
    <g id="xtick_2">
     <g id="line2d_2">
      <g>
       <use style="stroke:#000000;stroke-width:0.8;" x="162.558193" xlink:href="#me6432a9f87" y="276.48"/>
      </g>
     </g>
     <g id="text_2">
      <!-- 2022-01 -->
      <g transform="translate(125.333372 310.951846)rotate(-30)scale(0.1 -0.1)">
       <use xlink:href="#DejaVuSans-32"/>
       <use x="63.623047" xlink:href="#DejaVuSans-30"/>
       <use x="127.246094" xlink:href="#DejaVuSans-32"/>
       <use x="190.869141" xlink:href="#DejaVuSans-32"/>
       <use x="254.492188" xlink:href="#DejaVuSans-2d"/>
       <use x="290.576172" xlink:href="#DejaVuSans-30"/>
       <use x="354.199219" xlink:href="#DejaVuSans-31"/>
      </g>
     </g>
    </g>
    <g id="xtick_3">
     <g id="line2d_3">
      <g>
       <use style="stroke:#000000;stroke-width:0.8;" x="225.069317" xlink:href="#me6432a9f87" y="276.48"/>
      </g>
     </g>
     <g id="text_3">
      <!-- 2022-02 -->
      <g transform="translate(187.844496 310.951846)rotate(-30)scale(0.1 -0.1)">
       <use xlink:href="#DejaVuSans-32"/>
       <use x="63.623047" xlink:href="#DejaVuSans-30"/>
       <use x="127.246094" xlink:href="#DejaVuSans-32"/>
       <use x="190.869141" xlink:href="#DejaVuSans-32"/>
       <use x="254.492188" xlink:href="#DejaVuSans-2d"/>
       <use x="290.576172" xlink:href="#DejaVuSans-30"/>
       <use x="354.199219" xlink:href="#DejaVuSans-32"/>
      </g>
     </g>
    </g>
    <g id="xtick_4">
     <g id="line2d_4">
      <g>
       <use style="stroke:#000000;stroke-width:0.8;" x="281.530977" xlink:href="#me6432a9f87" y="276.48"/>
      </g>
     </g>
     <g id="text_4">
      <!-- 2022-03 -->
      <g transform="translate(244.306156 310.951846)rotate(-30)scale(0.1 -0.1)">
       <defs>
        <path d="M 2597 2516 
Q 3050 2419 3304 2112 
Q 3559 1806 3559 1356 
Q 3559 666 3084 287 
Q 2609 -91 1734 -91 
Q 1441 -91 1130 -33 
Q 819 25 488 141 
L 488 750 
Q 750 597 1062 519 
Q 1375 441 1716 441 
Q 2309 441 2620 675 
Q 2931 909 2931 1356 
Q 2931 1769 2642 2001 
Q 2353 2234 1838 2234 
L 1294 2234 
L 1294 2753 
L 1863 2753 
Q 2328 2753 2575 2939 
Q 2822 3125 2822 3475 
Q 2822 3834 2567 4026 
Q 2313 4219 1838 4219 
Q 1578 4219 1281 4162 
Q 984 4106 628 3988 
L 628 4550 
Q 988 4650 1302 4700 
Q 1616 4750 1894 4750 
Q 2613 4750 3031 4423 
Q 3450 4097 3450 3541 
Q 3450 3153 3228 2886 
Q 3006 2619 2597 2516 
z
" id="DejaVuSans-33" transform="scale(0.015625)"/>
       </defs>
       <use xlink:href="#DejaVuSans-32"/>
       <use x="63.623047" xlink:href="#DejaVuSans-30"/>
       <use x="127.246094" xlink:href="#DejaVuSans-32"/>
       <use x="190.869141" xlink:href="#DejaVuSans-32"/>
       <use x="254.492188" xlink:href="#DejaVuSans-2d"/>
       <use x="290.576172" xlink:href="#DejaVuSans-30"/>
       <use x="354.199219" xlink:href="#DejaVuSans-33"/>
      </g>
     </g>
    </g>
    <g id="xtick_5">
     <g id="line2d_5">
      <g>
       <use style="stroke:#000000;stroke-width:0.8;" x="344.042101" xlink:href="#me6432a9f87" y="276.48"/>
      </g>
     </g>
     <g id="text_5">
      <!-- 2022-04 -->
      <g transform="translate(306.81728 310.951846)rotate(-30)scale(0.1 -0.1)">
       <defs>
        <path d="M 2419 4116 
L 825 1625 
L 2419 1625 
L 2419 4116 
z
M 2253 4666 
L 3047 4666 
L 3047 1625 
L 3713 1625 
L 3713 1100 
L 3047 1100 
L 3047 0 
L 2419 0 
L 2419 1100 
L 313 1100 
L 313 1709 
L 2253 4666 
z
" id="DejaVuSans-34" transform="scale(0.015625)"/>
       </defs>
       <use xlink:href="#DejaVuSans-32"/>
       <use x="63.623047" xlink:href="#DejaVuSans-30"/>
       <use x="127.246094" xlink:href="#DejaVuSans-32"/>
       <use x="190.869141" xlink:href="#DejaVuSans-32"/>
       <use x="254.492188" xlink:href="#DejaVuSans-2d"/>
       <use x="290.576172" xlink:href="#DejaVuSans-30"/>
       <use x="354.199219" xlink:href="#DejaVuSans-34"/>
      </g>
     </g>
    </g>
    <g id="xtick_6">
     <g id="line2d_6">
      <g>
       <use style="stroke:#000000;stroke-width:0.8;" x="404.536736" xlink:href="#me6432a9f87" y="276.48"/>
      </g>
     </g>
     <g id="text_6">
      <!-- 2022-05 -->
      <g transform="translate(367.311915 310.951846)rotate(-30)scale(0.1 -0.1)">
       <defs>
        <path d="M 691 4666 
L 3169 4666 
L 3169 4134 
L 1269 4134 
L 1269 2991 
Q 1406 3038 1543 3061 
Q 1681 3084 1819 3084 
Q 2600 3084 3056 2656 
Q 3513 2228 3513 1497 
Q 3513 744 3044 326 
Q 2575 -91 1722 -91 
Q 1428 -91 1123 -41 
Q 819 9 494 109 
L 494 744 
Q 775 591 1075 516 
Q 1375 441 1709 441 
Q 2250 441 2565 725 
Q 2881 1009 2881 1497 
Q 2881 1984 2565 2268 
Q 2250 2553 1709 2553 
Q 1456 2553 1204 2497 
Q 953 2441 691 2322 
L 691 4666 
z
" id="DejaVuSans-35" transform="scale(0.015625)"/>
       </defs>
       <use xlink:href="#DejaVuSans-32"/>
       <use x="63.623047" xlink:href="#DejaVuSans-30"/>
       <use x="127.246094" xlink:href="#DejaVuSans-32"/>
       <use x="190.869141" xlink:href="#DejaVuSans-32"/>
       <use x="254.492188" xlink:href="#DejaVuSans-2d"/>
       <use x="290.576172" xlink:href="#DejaVuSans-30"/>
       <use x="354.199219" xlink:href="#DejaVuSans-35"/>
      </g>
     </g>
    </g>
    <g id="text_7">
     <!-- date -->
     <g transform="translate(224.885 324.351346)scale(0.1 -0.1)">
      <defs>
       <path d="M 2906 2969 
L 2906 4863 
L 3481 4863 
L 3481 0 
L 2906 0 
L 2906 525 
Q 2725 213 2448 61 
Q 2172 -91 1784 -91 
Q 1150 -91 751 415 
Q 353 922 353 1747 
Q 353 2572 751 3078 
Q 1150 3584 1784 3584 
Q 2172 3584 2448 3432 
Q 2725 3281 2906 2969 
z
M 947 1747 
Q 947 1113 1208 752 
Q 1469 391 1925 391 
Q 2381 391 2643 752 
Q 2906 1113 2906 1747 
Q 2906 2381 2643 2742 
Q 2381 3103 1925 3103 
Q 1469 3103 1208 2742 
Q 947 2381 947 1747 
z
" id="DejaVuSans-64" transform="scale(0.015625)"/>
       <path d="M 2194 1759 
Q 1497 1759 1228 1600 
Q 959 1441 959 1056 
Q 959 750 1161 570 
Q 1363 391 1709 391 
Q 2188 391 2477 730 
Q 2766 1069 2766 1631 
L 2766 1759 
L 2194 1759 
z
M 3341 1997 
L 3341 0 
L 2766 0 
L 2766 531 
Q 2569 213 2275 61 
Q 1981 -91 1556 -91 
Q 1019 -91 701 211 
Q 384 513 384 1019 
Q 384 1609 779 1909 
Q 1175 2209 1959 2209 
L 2766 2209 
L 2766 2266 
Q 2766 2663 2505 2880 
Q 2244 3097 1772 3097 
Q 1472 3097 1187 3025 
Q 903 2953 641 2809 
L 641 3341 
Q 956 3463 1253 3523 
Q 1550 3584 1831 3584 
Q 2591 3584 2966 3190 
Q 3341 2797 3341 1997 
z
" id="DejaVuSans-61" transform="scale(0.015625)"/>
       <path d="M 1172 4494 
L 1172 3500 
L 2356 3500 
L 2356 3053 
L 1172 3053 
L 1172 1153 
Q 1172 725 1289 603 
Q 1406 481 1766 481 
L 2356 481 
L 2356 0 
L 1766 0 
Q 1100 0 847 248 
Q 594 497 594 1153 
L 594 3053 
L 172 3053 
L 172 3500 
L 594 3500 
L 594 4494 
L 1172 4494 
z
" id="DejaVuSans-74" transform="scale(0.015625)"/>
       <path d="M 3597 1894 
L 3597 1613 
L 953 1613 
Q 991 1019 1311 708 
Q 1631 397 2203 397 
Q 2534 397 2845 478 
Q 3156 559 3463 722 
L 3463 178 
Q 3153 47 2828 -22 
Q 2503 -91 2169 -91 
Q 1331 -91 842 396 
Q 353 884 353 1716 
Q 353 2575 817 3079 
Q 1281 3584 2069 3584 
Q 2775 3584 3186 3129 
Q 3597 2675 3597 1894 
z
M 3022 2063 
Q 3016 2534 2758 2815 
Q 2500 3097 2075 3097 
Q 1594 3097 1305 2825 
Q 1016 2553 972 2059 
L 3022 2063 
z
" id="DejaVuSans-65" transform="scale(0.015625)"/>
      </defs>
      <use xlink:href="#DejaVuSans-64"/>
      <use x="63.476562" xlink:href="#DejaVuSans-61"/>
      <use x="124.755859" xlink:href="#DejaVuSans-74"/>
      <use x="163.964844" xlink:href="#DejaVuSans-65"/>
     </g>
    </g>
   </g>
   <g id="matplotlib.axis_2">
    <g id="ytick_1">
     <g id="line2d_7">
      <defs>
       <path d="M 0 0 
L -3.5 0 
" id="m1fd80ef850" style="stroke:#000000;stroke-width:0.8;"/>
      </defs>
      <g>
       <use style="stroke:#000000;stroke-width:0.8;" x="57.6" xlink:href="#m1fd80ef850" y="246.554138"/>
      </g>
     </g>
     <g id="text_8">
      <!-- 112000 -->
      <g transform="translate(12.425 250.353357)scale(0.1 -0.1)">
       <use xlink:href="#DejaVuSans-31"/>
       <use x="63.623047" xlink:href="#DejaVuSans-31"/>
       <use x="127.246094" xlink:href="#DejaVuSans-32"/>
       <use x="190.869141" xlink:href="#DejaVuSans-30"/>
       <use x="254.492188" xlink:href="#DejaVuSans-30"/>
       <use x="318.115234" xlink:href="#DejaVuSans-30"/>
      </g>
     </g>
    </g>
    <g id="ytick_2">
     <g id="line2d_8">
      <g>
       <use style="stroke:#000000;stroke-width:0.8;" x="57.6" xlink:href="#m1fd80ef850" y="215.542826"/>
      </g>
     </g>
     <g id="text_9">
      <!-- 114000 -->
      <g transform="translate(12.425 219.342044)scale(0.1 -0.1)">
       <use xlink:href="#DejaVuSans-31"/>
       <use x="63.623047" xlink:href="#DejaVuSans-31"/>
       <use x="127.246094" xlink:href="#DejaVuSans-34"/>
       <use x="190.869141" xlink:href="#DejaVuSans-30"/>
       <use x="254.492188" xlink:href="#DejaVuSans-30"/>
       <use x="318.115234" xlink:href="#DejaVuSans-30"/>
      </g>
     </g>
    </g>
    <g id="ytick_3">
     <g id="line2d_9">
      <g>
       <use style="stroke:#000000;stroke-width:0.8;" x="57.6" xlink:href="#m1fd80ef850" y="184.531513"/>
      </g>
     </g>
     <g id="text_10">
      <!-- 116000 -->
      <g transform="translate(12.425 188.330732)scale(0.1 -0.1)">
       <defs>
        <path d="M 2113 2584 
Q 1688 2584 1439 2293 
Q 1191 2003 1191 1497 
Q 1191 994 1439 701 
Q 1688 409 2113 409 
Q 2538 409 2786 701 
Q 3034 994 3034 1497 
Q 3034 2003 2786 2293 
Q 2538 2584 2113 2584 
z
M 3366 4563 
L 3366 3988 
Q 3128 4100 2886 4159 
Q 2644 4219 2406 4219 
Q 1781 4219 1451 3797 
Q 1122 3375 1075 2522 
Q 1259 2794 1537 2939 
Q 1816 3084 2150 3084 
Q 2853 3084 3261 2657 
Q 3669 2231 3669 1497 
Q 3669 778 3244 343 
Q 2819 -91 2113 -91 
Q 1303 -91 875 529 
Q 447 1150 447 2328 
Q 447 3434 972 4092 
Q 1497 4750 2381 4750 
Q 2619 4750 2861 4703 
Q 3103 4656 3366 4563 
z
" id="DejaVuSans-36" transform="scale(0.015625)"/>
       </defs>
       <use xlink:href="#DejaVuSans-31"/>
       <use x="63.623047" xlink:href="#DejaVuSans-31"/>
       <use x="127.246094" xlink:href="#DejaVuSans-36"/>
       <use x="190.869141" xlink:href="#DejaVuSans-30"/>
       <use x="254.492188" xlink:href="#DejaVuSans-30"/>
       <use x="318.115234" xlink:href="#DejaVuSans-30"/>
      </g>
     </g>
    </g>
    <g id="ytick_4">
     <g id="line2d_10">
      <g>
       <use style="stroke:#000000;stroke-width:0.8;" x="57.6" xlink:href="#m1fd80ef850" y="153.520201"/>
      </g>
     </g>
     <g id="text_11">
      <!-- 118000 -->
      <g transform="translate(12.425 157.31942)scale(0.1 -0.1)">
       <defs>
        <path d="M 2034 2216 
Q 1584 2216 1326 1975 
Q 1069 1734 1069 1313 
Q 1069 891 1326 650 
Q 1584 409 2034 409 
Q 2484 409 2743 651 
Q 3003 894 3003 1313 
Q 3003 1734 2745 1975 
Q 2488 2216 2034 2216 
z
M 1403 2484 
Q 997 2584 770 2862 
Q 544 3141 544 3541 
Q 544 4100 942 4425 
Q 1341 4750 2034 4750 
Q 2731 4750 3128 4425 
Q 3525 4100 3525 3541 
Q 3525 3141 3298 2862 
Q 3072 2584 2669 2484 
Q 3125 2378 3379 2068 
Q 3634 1759 3634 1313 
Q 3634 634 3220 271 
Q 2806 -91 2034 -91 
Q 1263 -91 848 271 
Q 434 634 434 1313 
Q 434 1759 690 2068 
Q 947 2378 1403 2484 
z
M 1172 3481 
Q 1172 3119 1398 2916 
Q 1625 2713 2034 2713 
Q 2441 2713 2670 2916 
Q 2900 3119 2900 3481 
Q 2900 3844 2670 4047 
Q 2441 4250 2034 4250 
Q 1625 4250 1398 4047 
Q 1172 3844 1172 3481 
z
" id="DejaVuSans-38" transform="scale(0.015625)"/>
       </defs>
       <use xlink:href="#DejaVuSans-31"/>
       <use x="63.623047" xlink:href="#DejaVuSans-31"/>
       <use x="127.246094" xlink:href="#DejaVuSans-38"/>
       <use x="190.869141" xlink:href="#DejaVuSans-30"/>
       <use x="254.492188" xlink:href="#DejaVuSans-30"/>
       <use x="318.115234" xlink:href="#DejaVuSans-30"/>
      </g>
     </g>
    </g>
    <g id="ytick_5">
     <g id="line2d_11">
      <g>
       <use style="stroke:#000000;stroke-width:0.8;" x="57.6" xlink:href="#m1fd80ef850" y="122.508889"/>
      </g>
     </g>
     <g id="text_12">
      <!-- 120000 -->
      <g transform="translate(12.425 126.308107)scale(0.1 -0.1)">
       <use xlink:href="#DejaVuSans-31"/>
       <use x="63.623047" xlink:href="#DejaVuSans-32"/>
       <use x="127.246094" xlink:href="#DejaVuSans-30"/>
       <use x="190.869141" xlink:href="#DejaVuSans-30"/>
       <use x="254.492188" xlink:href="#DejaVuSans-30"/>
       <use x="318.115234" xlink:href="#DejaVuSans-30"/>
      </g>
     </g>
    </g>
    <g id="ytick_6">
     <g id="line2d_12">
      <g>
       <use style="stroke:#000000;stroke-width:0.8;" x="57.6" xlink:href="#m1fd80ef850" y="91.497576"/>
      </g>
     </g>
     <g id="text_13">
      <!-- 122000 -->
      <g transform="translate(12.425 95.296795)scale(0.1 -0.1)">
       <use xlink:href="#DejaVuSans-31"/>
       <use x="63.623047" xlink:href="#DejaVuSans-32"/>
       <use x="127.246094" xlink:href="#DejaVuSans-32"/>
       <use x="190.869141" xlink:href="#DejaVuSans-30"/>
       <use x="254.492188" xlink:href="#DejaVuSans-30"/>
       <use x="318.115234" xlink:href="#DejaVuSans-30"/>
      </g>
     </g>
    </g>
    <g id="ytick_7">
     <g id="line2d_13">
      <g>
       <use style="stroke:#000000;stroke-width:0.8;" x="57.6" xlink:href="#m1fd80ef850" y="60.486264"/>
      </g>
     </g>
     <g id="text_14">
      <!-- 124000 -->
      <g transform="translate(12.425 64.285483)scale(0.1 -0.1)">
       <use xlink:href="#DejaVuSans-31"/>
       <use x="63.623047" xlink:href="#DejaVuSans-32"/>
       <use x="127.246094" xlink:href="#DejaVuSans-34"/>
       <use x="190.869141" xlink:href="#DejaVuSans-30"/>
       <use x="254.492188" xlink:href="#DejaVuSans-30"/>
       <use x="318.115234" xlink:href="#DejaVuSans-30"/>
      </g>
     </g>
    </g>
   </g>
   <g id="line2d_14">
    <path clip-path="url(#pbbe2f047b8)" d="M 73.832727 180.646645 
L 75.849215 189.936066 
L 81.898679 184.359652 
L 83.915167 174.801369 
L 85.931654 173.079812 
L 89.96463 173.695847 
L 96.014094 199.277184 
L 98.030582 237.592732 
L 100.047069 252.991265 
L 102.063557 223.611474 
L 104.080045 230.792188 
L 110.129509 206.703176 
L 112.145997 178.55346 
L 114.162484 176.077793 
L 116.178972 183.76109 
L 118.19546 170.646779 
L 124.244924 182.327951 
L 126.261412 189.539969 
L 128.277899 171.454182 
L 130.294387 171.8295 
L 132.310875 197.038126 
L 138.360339 225.551516 
L 140.376827 200.086516 
L 142.393315 184.83606 
L 144.409802 173.722974 
L 152.475754 151.771695 
L 154.492242 147.936644 
L 156.50873 144.161263 
L 158.525217 149.070784 
L 160.541705 146.79826 
L 166.591169 139.348515 
L 168.607657 125.665015 
L 170.624145 143.46744 
L 172.640632 144.773205 
L 174.65712 144.455212 
L 180.706584 152.473652 
L 182.723072 135.789897 
L 184.73956 129.911275 
L 186.756047 144.632649 
L 188.772535 145.773802 
L 196.838487 170.446489 
L 198.854975 183.871717 
L 200.871462 200.281608 
L 202.88795 226.725467 
L 208.937414 224.50756 
L 210.953902 232.970243 
L 212.97039 241.011609 
L 214.986877 243.506576 
L 217.003365 218.762391 
L 223.052829 193.505766 
L 225.069317 177.674358 
L 227.085805 166.222604 
L 229.102292 191.072329 
L 231.11878 188.156599 
L 237.168244 187.87865 
L 239.184732 175.312131 
L 241.20122 156.37295 
L 243.217708 182.477863 
L 245.234195 201.540639 
L 251.283659 214.748216 
L 253.300147 195.389474 
L 255.316635 189.244708 
L 257.333123 214.409391 
L 259.34961 223.423174 
L 267.415562 242.016231 
L 269.43205 265.797818 
L 271.448538 258.548924 
L 273.465025 211.936337 
L 279.514489 212.17547 
L 281.530977 235.432494 
L 283.547465 202.050672 
L 285.563953 201.949601 
L 287.58044 201.84545 
L 293.629904 239.547121 
L 295.646392 253.024221 
L 297.66288 226.175854 
L 299.679368 222.685619 
L 301.695855 240.376734 
L 307.745319 249.255658 
L 309.761807 224.269434 
L 311.778295 199.373345 
L 313.794783 174.365563 
L 315.81127 163.787136 
L 321.860734 161.951821 
L 323.877222 148.32885 
L 325.89371 161.20225 
L 327.910198 141.111288 
L 329.926685 124.531512 
L 335.976149 119.733794 
L 337.992637 103.586908 
L 340.009125 107.700699 
L 342.025613 130.216778 
L 344.042101 122.560148 
L 350.091564 118.571013 
L 352.108052 135.589902 
L 354.12454 139.58388 
L 356.141028 127.591179 
L 358.157516 121.395427 
L 364.206979 147.825662 
L 366.223467 147.433183 
L 368.239955 130.468029 
L 370.256443 140.914454 
L 378.322394 141.408865 
L 380.338882 118.498564 
L 382.35537 109.222763 
L 384.371858 136.799079 
L 386.388346 185.032394 
L 392.437809 186.036044 
L 394.454297 224.59956 
L 396.470785 215.458152 
L 398.487273 188.730849 
" style="fill:none;stroke:#0000ff;stroke-linecap:square;stroke-opacity:0.9;stroke-width:2;"/>
   </g>
   <g id="line2d_15">
    <path clip-path="url(#pbbe2f047b8)" d="M 73.832727 180.646645 
L 75.849215 190.144018 
L 81.898679 185.020348 
L 83.915167 174.873453 
L 85.931654 172.91165 
L 89.96463 214.429716 
L 96.014094 199.793669 
L 98.030582 237.267047 
L 100.047069 253.81786 
L 102.063557 223.268605 
L 104.080045 230.131036 
L 110.129509 207.280253 
L 112.145997 177.922916 
L 114.162484 176.017127 
L 116.178972 184.00761 
L 118.19546 169.348154 
L 124.244924 182.618321 
L 126.261412 189.327438 
L 128.277899 171.307327 
L 130.294387 170.624581 
L 132.310875 197.114333 
L 138.360339 225.821589 
L 140.376827 199.10293 
L 142.393315 184.482785 
L 144.409802 173.657089 
L 152.475754 151.436315 
L 154.492242 148.169431 
L 156.50873 144.034629 
L 158.525217 148.234392 
L 160.541705 146.58091 
L 166.591169 139.090212 
L 168.607657 125.669161 
L 170.624145 143.777555 
L 172.640632 144.729847 
L 174.65712 144.149429 
L 180.706584 151.07526 
L 182.723072 135.553068 
L 184.73956 129.394781 
L 186.756047 143.249237 
L 188.772535 144.442007 
L 196.838487 169.193316 
L 198.854975 181.969733 
L 200.871462 198.607622 
L 202.88795 224.786915 
L 208.937414 221.369522 
L 210.953902 229.827844 
L 212.97039 238.141069 
L 214.986877 239.204578 
L 217.003365 215.113008 
L 223.052829 190.692311 
L 225.069317 175.496097 
L 227.085805 163.125078 
L 229.102292 185.570002 
L 231.11878 183.932862 
L 237.168244 182.648237 
L 239.184732 172.259288 
L 241.20122 153.168863 
L 243.217708 180.198854 
L 245.234195 196.635785 
L 251.283659 209.293147 
L 253.300147 192.384377 
L 255.316635 187.12198 
L 257.333123 210.982471 
L 259.34961 219.349374 
L 267.415562 236.550828 
L 269.43205 260.310574 
L 271.448538 254.654664 
L 273.465025 206.807353 
L 279.514489 206.16772 
L 281.530977 228.636316 
L 283.547465 194.779281 
L 285.563953 194.797301 
L 287.58044 192.096307 
L 293.629904 225.676026 
L 295.646392 237.221955 
L 297.66288 215.751332 
L 299.679368 211.19553 
L 301.695855 227.964801 
L 307.745319 236.632035 
L 309.761807 216.433775 
L 311.778295 193.73974 
L 313.794783 166.776446 
L 315.81127 157.776579 
L 321.860734 154.577847 
L 323.877222 142.931732 
L 325.89371 153.790743 
L 327.910198 134.66386 
L 329.926685 117.04328 
L 335.976149 114.58324 
L 337.992637 99.31294 
L 340.009125 101.402803 
L 342.025613 124.84967 
L 344.042101 116.043486 
L 350.091564 112.676531 
L 352.108052 128.899216 
L 354.12454 131.27739 
L 356.141028 119.046603 
L 358.157516 109.69674 
L 364.206979 137.457955 
L 366.223467 136.624782 
L 368.239955 118.919261 
L 370.256443 129.44888 
L 378.322394 128.412323 
L 380.338882 107.23536 
L 382.35537 97.786253 
L 384.371858 125.661051 
L 386.388346 174.267792 
L 392.437809 179.049591 
L 394.454297 213.770322 
L 396.470785 204.430282 
L 398.487273 171.153796 
" style="fill:none;stroke:#ff0000;stroke-linecap:square;stroke-opacity:0.9;stroke-width:2;"/>
   </g>
   <g id="line2d_16">
    <path clip-path="url(#pbbe2f047b8)" d="M 73.832727 180.646645 
L 75.849215 190.538642 
L 81.898679 184.437167 
L 83.915167 174.868037 
L 85.931654 173.403793 
L 89.96463 213.582013 
L 96.014094 199.45932 
L 98.030582 237.497502 
L 100.047069 252.387519 
L 102.063557 221.834331 
L 104.080045 229.869933 
L 110.129509 205.771847 
L 112.145997 176.628282 
L 114.162484 174.724921 
L 116.178972 183.572307 
L 118.19546 168.627648 
L 124.244924 181.298326 
L 126.261412 188.877933 
L 128.277899 169.853701 
L 130.294387 171.251996 
L 132.310875 195.24415 
L 138.360339 224.588914 
L 140.376827 198.383856 
L 142.393315 183.121645 
L 144.409802 172.793892 
L 152.475754 150.454016 
L 154.492242 145.69468 
L 156.50873 142.637611 
L 158.525217 147.774484 
L 160.541705 146.478538 
L 166.591169 138.526801 
L 168.607657 123.365326 
L 170.624145 142.735019 
L 172.640632 142.766632 
L 174.65712 142.634461 
L 180.706584 150.110122 
L 182.723072 133.719113 
L 184.73956 127.556188 
L 186.756047 141.879011 
L 188.772535 143.397463 
L 196.838487 168.659957 
L 198.854975 181.619378 
L 200.871462 199.327326 
L 202.88795 225.010407 
L 208.937414 221.660851 
L 210.953902 232.22665 
L 212.97039 238.322303 
L 214.986877 242.315141 
L 217.003365 216.339325 
L 223.052829 191.529699 
L 225.069317 176.6228 
L 227.085805 163.363573 
L 229.102292 187.650073 
L 231.11878 185.159064 
L 237.168244 184.747934 
L 239.184732 173.915154 
L 241.20122 154.24783 
L 243.217708 181.336217 
L 245.234195 198.864571 
L 251.283659 211.394527 
L 253.300147 192.830119 
L 255.316635 187.806714 
L 257.333123 212.706466 
L 259.34961 220.40134 
L 267.415562 239.11004 
L 269.43205 263.80671 
L 271.448538 255.054622 
L 273.465025 206.693101 
L 279.514489 207.786083 
L 281.530977 231.428293 
L 283.547465 198.026207 
L 285.563953 197.623842 
L 287.58044 199.038968 
L 293.629904 237.415552 
L 295.646392 249.35739 
L 297.66288 221.532843 
L 299.679368 220.056379 
L 301.695855 237.670951 
L 307.745319 245.374578 
L 309.761807 220.955309 
L 311.778295 195.656181 
L 313.794783 168.729915 
L 315.81127 159.027578 
L 321.860734 157.556175 
L 323.877222 143.216739 
L 325.89371 156.688721 
L 327.910198 137.407604 
L 329.926685 121.471505 
L 335.976149 115.313384 
L 337.992637 98.49836 
L 340.009125 102.991256 
L 342.025613 126.744356 
L 344.042101 118.322997 
L 350.091564 114.776379 
L 352.108052 131.107647 
L 354.12454 135.549996 
L 356.141028 122.911295 
L 358.157516 117.408507 
L 364.206979 144.159774 
L 366.223467 144.451393 
L 368.239955 126.073241 
L 370.256443 137.554731 
L 378.322394 137.233716 
L 380.338882 114.289841 
L 382.35537 104.739206 
L 384.371858 132.188335 
L 386.388346 180.638798 
L 392.437809 182.809571 
L 394.454297 220.45032 
L 396.470785 212.843763 
L 398.487273 178.28117 
" style="fill:none;stroke:#008000;stroke-linecap:square;stroke-opacity:0.9;stroke-width:2;"/>
   </g>
   <g id="line2d_17">
    <path clip-path="url(#pbbe2f047b8)" d="M 73.832727 180.646645 
L 75.849215 190.171228 
L 81.898679 184.861727 
L 83.915167 174.260456 
L 85.931654 172.772676 
L 89.96463 213.582109 
L 96.014094 198.64023 
L 98.030582 237.325258 
L 100.047069 254.072906 
L 102.063557 222.856724 
L 104.080045 230.940168 
L 110.129509 206.487218 
L 112.145997 177.740239 
L 114.162484 175.131683 
L 116.178972 183.766877 
L 118.19546 168.728794 
L 124.244924 181.328691 
L 126.261412 189.165103 
L 128.277899 170.150428 
L 130.294387 170.821134 
L 132.310875 196.608442 
L 138.360339 225.791372 
L 140.376827 199.245155 
L 142.393315 184.191722 
L 144.409802 174.37585 
L 152.475754 150.287034 
L 154.492242 146.856785 
L 156.50873 144.187891 
L 158.525217 147.494092 
L 160.541705 147.104999 
L 166.591169 138.749586 
L 168.607657 124.215397 
L 170.624145 142.225569 
L 172.640632 143.661034 
L 174.65712 142.664784 
L 180.706584 150.985406 
L 182.723072 135.270022 
L 184.73956 129.56063 
L 186.756047 143.256721 
L 188.772535 144.209463 
L 196.838487 170.183732 
L 198.854975 182.977372 
L 200.871462 199.140843 
L 202.88795 226.039987 
L 208.937414 223.568925 
L 210.953902 233.224251 
L 212.97039 239.734266 
L 214.986877 243.029365 
L 217.003365 218.298087 
L 223.052829 191.724229 
L 225.069317 176.816261 
L 227.085805 165.024744 
L 229.102292 189.401293 
L 231.11878 187.034193 
L 237.168244 185.990845 
L 239.184732 175.38638 
L 241.20122 154.352103 
L 243.217708 181.357553 
L 245.234195 199.847111 
L 251.283659 212.284984 
L 253.300147 194.443167 
L 255.316635 189.027943 
L 257.333123 213.377122 
L 259.34961 222.327559 
L 267.415562 239.660362 
L 269.43205 265.337204 
L 271.448538 256.16643 
L 273.465025 209.961776 
L 279.514489 210.955109 
L 281.530977 233.827298 
L 283.547465 200.131551 
L 285.563953 200.999972 
L 287.58044 201.517243 
L 293.629904 239.304183 
L 295.646392 252.35882 
L 297.66288 224.021433 
L 299.679368 221.60215 
L 301.695855 239.093488 
L 307.745319 246.764491 
L 309.761807 222.561215 
L 311.778295 197.630558 
L 313.794783 170.97561 
L 315.81127 160.473926 
L 321.860734 159.242047 
L 323.877222 144.831188 
L 325.89371 159.026901 
L 327.910198 139.254525 
L 329.926685 123.132269 
L 335.976149 117.511433 
L 337.992637 100.888081 
L 340.009125 105.721953 
L 342.025613 128.581614 
L 344.042101 121.380018 
L 350.091564 116.758377 
L 352.108052 132.884152 
L 354.12454 138.270277 
L 356.141028 126.638682 
L 358.157516 120.230181 
L 364.206979 145.583193 
L 366.223467 145.989349 
L 368.239955 127.91047 
L 370.256443 140.376701 
L 378.322394 139.958955 
L 380.338882 116.775927 
L 382.35537 107.554701 
L 384.371858 134.81794 
L 386.388346 183.433721 
L 392.437809 184.133856 
L 394.454297 222.121195 
L 396.470785 213.597342 
L 398.487273 181.095148 
" style="fill:none;stroke:#ec5283;stroke-linecap:square;stroke-width:2;"/>
   </g>
   <g id="line2d_18">
    <path clip-path="url(#pbbe2f047b8)" d="M 73.832727 180.646645 
L 75.849215 190.540681 
L 81.898679 184.602059 
L 83.915167 173.976684 
L 85.931654 173.908203 
L 89.96463 214.441202 
L 96.014094 198.946127 
L 98.030582 236.287404 
L 100.047069 252.619303 
L 102.063557 222.281141 
L 104.080045 230.331775 
L 110.129509 205.406689 
L 112.145997 177.094683 
L 114.162484 175.210182 
L 116.178972 183.550861 
L 118.19546 168.701506 
L 124.244924 180.710092 
L 126.261412 188.965129 
L 128.277899 169.8269 
L 130.294387 171.099929 
L 132.310875 195.242904 
L 138.360339 225.553826 
L 140.376827 198.734517 
L 142.393315 183.021178 
L 144.409802 172.666706 
L 152.475754 149.986595 
L 154.492242 146.627077 
L 156.50873 142.878893 
L 158.525217 147.055891 
L 160.541705 145.326747 
L 166.591169 137.789452 
L 168.607657 124.535094 
L 170.624145 142.797499 
L 172.640632 142.561628 
L 174.65712 142.912541 
L 180.706584 149.737977 
L 182.723072 133.164489 
L 184.73956 127.913941 
L 186.756047 141.636752 
L 188.772535 143.01733 
L 196.838487 168.214415 
L 198.854975 182.296454 
L 200.871462 198.153816 
L 202.88795 225.107417 
L 208.937414 221.277467 
L 210.953902 231.321856 
L 212.97039 238.100765 
L 214.986877 241.999094 
L 217.003365 216.11961 
L 223.052829 191.511073 
L 225.069317 176.43397 
L 227.085805 163.029036 
L 229.102292 187.666218 
L 231.11878 185.853183 
L 237.168244 185.106059 
L 239.184732 173.723195 
L 241.20122 154.184273 
L 243.217708 181.093279 
L 245.234195 199.262609 
L 251.283659 212.148006 
L 253.300147 193.563489 
L 255.316635 186.77577 
L 257.333123 212.149574 
L 259.34961 220.611003 
L 267.415562 239.382474 
L 269.43205 262.578699 
L 271.448538 253.425268 
L 273.465025 207.169388 
L 279.514489 208.520602 
L 281.530977 232.29976 
L 283.547465 198.135135 
L 285.563953 198.598367 
L 287.58044 198.373525 
L 293.629904 236.705368 
L 295.646392 249.604695 
L 297.66288 221.458783 
L 299.679368 220.212546 
L 301.695855 236.395742 
L 307.745319 244.804234 
L 309.761807 219.714919 
L 311.778295 195.100511 
L 313.794783 168.584225 
L 315.81127 157.900404 
L 321.860734 157.520384 
L 323.877222 143.41327 
L 325.89371 157.772632 
L 327.910198 136.630255 
L 329.926685 120.555858 
L 335.976149 115.806626 
L 337.992637 99.348024 
L 340.009125 102.985738 
L 342.025613 125.666049 
L 344.042101 118.190177 
L 350.091564 114.472706 
L 352.108052 131.474363 
L 354.12454 135.094047 
L 356.141028 123.297292 
L 358.157516 117.321128 
L 364.206979 143.678489 
L 366.223467 144.922259 
L 368.239955 126.216243 
L 370.256443 137.342545 
L 378.322394 138.201415 
L 380.338882 115.125789 
L 382.35537 105.03275 
L 384.371858 131.481601 
L 386.388346 180.718174 
L 392.437809 182.539137 
L 394.454297 220.681497 
L 396.470785 212.000173 
L 398.487273 178.615733 
" style="fill:none;stroke:#00ff00;stroke-linecap:square;stroke-opacity:0.9;stroke-width:2;"/>
   </g>
   <g id="line2d_19">
    <path clip-path="url(#pbbe2f047b8)" d="M 73.832727 180.646645 
L 75.849215 193.811574 
L 81.898679 184.206648 
L 83.915167 171.384521 
L 85.931654 171.41645 
L 89.96463 208.055212 
L 96.014094 199.254017 
L 98.030582 241.486361 
L 100.047069 255.721699 
L 102.063557 219.902953 
L 104.080045 220.218183 
L 110.129509 195.339279 
L 112.145997 171.589075 
L 114.162484 168.387095 
L 116.178972 173.334277 
L 118.19546 161.680956 
L 124.244924 173.54625 
L 126.261412 181.587015 
L 128.277899 165.924602 
L 130.294387 166.2739 
L 132.310875 191.361941 
L 138.360339 216.613344 
L 140.376827 182.387622 
L 142.393315 168.953036 
L 144.409802 153.238286 
L 152.475754 130.404259 
L 154.492242 123.127066 
L 156.50873 121.171625 
L 158.525217 126.979588 
L 160.541705 123.053268 
L 166.591169 114.708892 
L 168.607657 91.417307 
L 170.624145 110.129885 
L 172.640632 109.835666 
L 174.65712 109.866017 
L 180.706584 117.181209 
L 182.723072 99.541354 
L 184.73956 93.805831 
L 186.756047 110.471999 
L 188.772535 112.286301 
L 196.838487 141.663835 
L 198.854975 157.964561 
L 200.871462 176.277325 
L 202.88795 208.396011 
L 208.937414 202.37557 
L 210.953902 214.792066 
L 212.97039 221.061009 
L 214.986877 229.978134 
L 217.003365 200.434741 
L 223.052829 168.64079 
L 225.069317 152.605659 
L 227.085805 141.565311 
L 229.102292 172.298025 
L 231.11878 167.259607 
L 237.168244 168.881744 
L 239.184732 151.85515 
L 241.20122 127.188741 
L 243.217708 155.496573 
L 245.234195 181.495766 
L 251.283659 191.470724 
L 253.300147 167.498681 
L 255.316635 161.108048 
L 257.333123 191.809721 
L 259.34961 200.825611 
L 267.415562 220.241625 
L 269.43205 249.575249 
L 271.448538 232.808802 
L 273.465025 187.22844 
L 279.514489 185.703872 
L 281.530977 213.817543 
L 283.547465 178.054575 
L 285.563953 183.461429 
L 287.58044 193.003206 
L 293.629904 246.31546 
L 295.646392 253.688033 
L 297.66288 207.777381 
L 299.679368 208.960189 
L 301.695855 230.751587 
L 307.745319 240.522148 
L 309.761807 203.439968 
L 311.778295 163.77879 
L 313.794783 139.486021 
L 315.81127 121.720411 
L 321.860734 118.467004 
L 323.877222 97.031913 
L 325.89371 114.392001 
L 327.910198 94.14527 
L 329.926685 79.400616 
L 335.976149 71.238172 
L 337.992637 52.154182 
L 340.009125 56.739346 
L 342.025613 79.4509 
L 344.042101 75.73348 
L 350.091564 71.535751 
L 352.108052 89.056609 
L 354.12454 96.813728 
L 356.141028 86.167454 
L 358.157516 88.438656 
L 364.206979 110.973667 
L 366.223467 112.939587 
L 368.239955 92.219199 
L 370.256443 106.364155 
L 378.322394 105.109073 
L 380.338882 78.22812 
L 382.35537 71.46992 
L 384.371858 99.1205 
L 386.388346 150.554299 
L 392.437809 150.706004 
L 394.454297 192.19347 
L 396.470785 182.980456 
L 398.487273 146.807965 
" style="fill:none;stroke:#a5b9cf;stroke-linecap:square;stroke-width:2;"/>
   </g>
   <g id="patch_3">
    <path d="M 57.6 276.48 
L 57.6 41.472 
" style="fill:none;stroke:#000000;stroke-linecap:square;stroke-linejoin:miter;stroke-width:0.8;"/>
   </g>
   <g id="patch_4">
    <path d="M 414.72 276.48 
L 414.72 41.472 
" style="fill:none;stroke:#000000;stroke-linecap:square;stroke-linejoin:miter;stroke-width:0.8;"/>
   </g>
   <g id="patch_5">
    <path d="M 57.6 276.48 
L 414.72 276.48 
" style="fill:none;stroke:#000000;stroke-linecap:square;stroke-linejoin:miter;stroke-width:0.8;"/>
   </g>
   <g id="patch_6">
    <path d="M 57.6 41.472 
L 414.72 41.472 
" style="fill:none;stroke:#000000;stroke-linecap:square;stroke-linejoin:miter;stroke-width:0.8;"/>
   </g>
   <g id="text_15">
    <!-- UNCORRELATED -->
    <g transform="translate(187.044375 22.034625)scale(0.12 -0.12)">
     <defs>
      <path d="M 556 4666 
L 1191 4666 
L 1191 1831 
Q 1191 1081 1462 751 
Q 1734 422 2344 422 
Q 2950 422 3222 751 
Q 3494 1081 3494 1831 
L 3494 4666 
L 4128 4666 
L 4128 1753 
Q 4128 841 3676 375 
Q 3225 -91 2344 -91 
Q 1459 -91 1007 375 
Q 556 841 556 1753 
L 556 4666 
z
" id="DejaVuSans-55" transform="scale(0.015625)"/>
      <path d="M 628 4666 
L 1478 4666 
L 3547 763 
L 3547 4666 
L 4159 4666 
L 4159 0 
L 3309 0 
L 1241 3903 
L 1241 0 
L 628 0 
L 628 4666 
z
" id="DejaVuSans-4e" transform="scale(0.015625)"/>
      <path d="M 4122 4306 
L 4122 3641 
Q 3803 3938 3442 4084 
Q 3081 4231 2675 4231 
Q 1875 4231 1450 3742 
Q 1025 3253 1025 2328 
Q 1025 1406 1450 917 
Q 1875 428 2675 428 
Q 3081 428 3442 575 
Q 3803 722 4122 1019 
L 4122 359 
Q 3791 134 3420 21 
Q 3050 -91 2638 -91 
Q 1578 -91 968 557 
Q 359 1206 359 2328 
Q 359 3453 968 4101 
Q 1578 4750 2638 4750 
Q 3056 4750 3426 4639 
Q 3797 4528 4122 4306 
z
" id="DejaVuSans-43" transform="scale(0.015625)"/>
      <path d="M 2522 4238 
Q 1834 4238 1429 3725 
Q 1025 3213 1025 2328 
Q 1025 1447 1429 934 
Q 1834 422 2522 422 
Q 3209 422 3611 934 
Q 4013 1447 4013 2328 
Q 4013 3213 3611 3725 
Q 3209 4238 2522 4238 
z
M 2522 4750 
Q 3503 4750 4090 4092 
Q 4678 3434 4678 2328 
Q 4678 1225 4090 567 
Q 3503 -91 2522 -91 
Q 1538 -91 948 565 
Q 359 1222 359 2328 
Q 359 3434 948 4092 
Q 1538 4750 2522 4750 
z
" id="DejaVuSans-4f" transform="scale(0.015625)"/>
      <path d="M 2841 2188 
Q 3044 2119 3236 1894 
Q 3428 1669 3622 1275 
L 4263 0 
L 3584 0 
L 2988 1197 
Q 2756 1666 2539 1819 
Q 2322 1972 1947 1972 
L 1259 1972 
L 1259 0 
L 628 0 
L 628 4666 
L 2053 4666 
Q 2853 4666 3247 4331 
Q 3641 3997 3641 3322 
Q 3641 2881 3436 2590 
Q 3231 2300 2841 2188 
z
M 1259 4147 
L 1259 2491 
L 2053 2491 
Q 2509 2491 2742 2702 
Q 2975 2913 2975 3322 
Q 2975 3731 2742 3939 
Q 2509 4147 2053 4147 
L 1259 4147 
z
" id="DejaVuSans-52" transform="scale(0.015625)"/>
      <path d="M 628 4666 
L 3578 4666 
L 3578 4134 
L 1259 4134 
L 1259 2753 
L 3481 2753 
L 3481 2222 
L 1259 2222 
L 1259 531 
L 3634 531 
L 3634 0 
L 628 0 
L 628 4666 
z
" id="DejaVuSans-45" transform="scale(0.015625)"/>
      <path d="M 628 4666 
L 1259 4666 
L 1259 531 
L 3531 531 
L 3531 0 
L 628 0 
L 628 4666 
z
" id="DejaVuSans-4c" transform="scale(0.015625)"/>
      <path d="M 2188 4044 
L 1331 1722 
L 3047 1722 
L 2188 4044 
z
M 1831 4666 
L 2547 4666 
L 4325 0 
L 3669 0 
L 3244 1197 
L 1141 1197 
L 716 0 
L 50 0 
L 1831 4666 
z
" id="DejaVuSans-41" transform="scale(0.015625)"/>
      <path d="M -19 4666 
L 3928 4666 
L 3928 4134 
L 2272 4134 
L 2272 0 
L 1638 0 
L 1638 4134 
L -19 4134 
L -19 4666 
z
" id="DejaVuSans-54" transform="scale(0.015625)"/>
      <path d="M 1259 4147 
L 1259 519 
L 2022 519 
Q 2988 519 3436 956 
Q 3884 1394 3884 2338 
Q 3884 3275 3436 3711 
Q 2988 4147 2022 4147 
L 1259 4147 
z
M 628 4666 
L 1925 4666 
Q 3281 4666 3915 4102 
Q 4550 3538 4550 2338 
Q 4550 1131 3912 565 
Q 3275 0 1925 0 
L 628 0 
L 628 4666 
z
" id="DejaVuSans-44" transform="scale(0.015625)"/>
     </defs>
     <use xlink:href="#DejaVuSans-55"/>
     <use x="73.193359" xlink:href="#DejaVuSans-4e"/>
     <use x="147.998047" xlink:href="#DejaVuSans-43"/>
     <use x="217.822266" xlink:href="#DejaVuSans-4f"/>
     <use x="296.533203" xlink:href="#DejaVuSans-52"/>
     <use x="366.015625" xlink:href="#DejaVuSans-52"/>
     <use x="435.498047" xlink:href="#DejaVuSans-45"/>
     <use x="498.681641" xlink:href="#DejaVuSans-4c"/>
     <use x="556.644531" xlink:href="#DejaVuSans-41"/>
     <use x="617.302734" xlink:href="#DejaVuSans-54"/>
     <use x="678.386719" xlink:href="#DejaVuSans-45"/>
     <use x="741.570312" xlink:href="#DejaVuSans-44"/>
    </g>
    <!-- daily_report -->
    <g transform="translate(200.466563 35.472)scale(0.12 -0.12)">
     <defs>
      <path d="M 603 3500 
L 1178 3500 
L 1178 0 
L 603 0 
L 603 3500 
z
M 603 4863 
L 1178 4863 
L 1178 4134 
L 603 4134 
L 603 4863 
z
" id="DejaVuSans-69" transform="scale(0.015625)"/>
      <path d="M 603 4863 
L 1178 4863 
L 1178 0 
L 603 0 
L 603 4863 
z
" id="DejaVuSans-6c" transform="scale(0.015625)"/>
      <path d="M 2059 -325 
Q 1816 -950 1584 -1140 
Q 1353 -1331 966 -1331 
L 506 -1331 
L 506 -850 
L 844 -850 
Q 1081 -850 1212 -737 
Q 1344 -625 1503 -206 
L 1606 56 
L 191 3500 
L 800 3500 
L 1894 763 
L 2988 3500 
L 3597 3500 
L 2059 -325 
z
" id="DejaVuSans-79" transform="scale(0.015625)"/>
      <path d="M 3263 -1063 
L 3263 -1509 
L -63 -1509 
L -63 -1063 
L 3263 -1063 
z
" id="DejaVuSans-5f" transform="scale(0.015625)"/>
      <path d="M 2631 2963 
Q 2534 3019 2420 3045 
Q 2306 3072 2169 3072 
Q 1681 3072 1420 2755 
Q 1159 2438 1159 1844 
L 1159 0 
L 581 0 
L 581 3500 
L 1159 3500 
L 1159 2956 
Q 1341 3275 1631 3429 
Q 1922 3584 2338 3584 
Q 2397 3584 2469 3576 
Q 2541 3569 2628 3553 
L 2631 2963 
z
" id="DejaVuSans-72" transform="scale(0.015625)"/>
      <path d="M 1159 525 
L 1159 -1331 
L 581 -1331 
L 581 3500 
L 1159 3500 
L 1159 2969 
Q 1341 3281 1617 3432 
Q 1894 3584 2278 3584 
Q 2916 3584 3314 3078 
Q 3713 2572 3713 1747 
Q 3713 922 3314 415 
Q 2916 -91 2278 -91 
Q 1894 -91 1617 61 
Q 1341 213 1159 525 
z
M 3116 1747 
Q 3116 2381 2855 2742 
Q 2594 3103 2138 3103 
Q 1681 3103 1420 2742 
Q 1159 2381 1159 1747 
Q 1159 1113 1420 752 
Q 1681 391 2138 391 
Q 2594 391 2855 752 
Q 3116 1113 3116 1747 
z
" id="DejaVuSans-70" transform="scale(0.015625)"/>
      <path d="M 1959 3097 
Q 1497 3097 1228 2736 
Q 959 2375 959 1747 
Q 959 1119 1226 758 
Q 1494 397 1959 397 
Q 2419 397 2687 759 
Q 2956 1122 2956 1747 
Q 2956 2369 2687 2733 
Q 2419 3097 1959 3097 
z
M 1959 3584 
Q 2709 3584 3137 3096 
Q 3566 2609 3566 1747 
Q 3566 888 3137 398 
Q 2709 -91 1959 -91 
Q 1206 -91 779 398 
Q 353 888 353 1747 
Q 353 2609 779 3096 
Q 1206 3584 1959 3584 
z
" id="DejaVuSans-6f" transform="scale(0.015625)"/>
     </defs>
     <use xlink:href="#DejaVuSans-64"/>
     <use x="63.476562" xlink:href="#DejaVuSans-61"/>
     <use x="124.755859" xlink:href="#DejaVuSans-69"/>
     <use x="152.539062" xlink:href="#DejaVuSans-6c"/>
     <use x="180.322266" xlink:href="#DejaVuSans-79"/>
     <use x="239.501953" xlink:href="#DejaVuSans-5f"/>
     <use x="289.501953" xlink:href="#DejaVuSans-72"/>
     <use x="328.365234" xlink:href="#DejaVuSans-65"/>
     <use x="389.888672" xlink:href="#DejaVuSans-70"/>
     <use x="453.365234" xlink:href="#DejaVuSans-6f"/>
     <use x="514.546875" xlink:href="#DejaVuSans-72"/>
     <use x="555.660156" xlink:href="#DejaVuSans-74"/>
    </g>
   </g>
   <g id="legend_1">
    <g id="patch_7">
     <path d="M 64.6 137.54075 
L 178.64375 137.54075 
Q 180.64375 137.54075 180.64375 135.54075 
L 180.64375 48.472 
Q 180.64375 46.472 178.64375 46.472 
L 64.6 46.472 
Q 62.6 46.472 62.6 48.472 
L 62.6 135.54075 
Q 62.6 137.54075 64.6 137.54075 
z
" style="fill:#ffffff;opacity:0.8;stroke:#cccccc;stroke-linejoin:miter;"/>
    </g>
    <g id="line2d_20">
     <path d="M 66.6 54.570437 
L 86.6 54.570437 
" style="fill:none;stroke:#0000ff;stroke-linecap:square;stroke-opacity:0.9;stroke-width:2;"/>
    </g>
    <g id="line2d_21"/>
    <g id="text_16">
     <!-- alpaca -->
     <g transform="translate(94.6 58.070437)scale(0.1 -0.1)">
      <defs>
       <path d="M 3122 3366 
L 3122 2828 
Q 2878 2963 2633 3030 
Q 2388 3097 2138 3097 
Q 1578 3097 1268 2742 
Q 959 2388 959 1747 
Q 959 1106 1268 751 
Q 1578 397 2138 397 
Q 2388 397 2633 464 
Q 2878 531 3122 666 
L 3122 134 
Q 2881 22 2623 -34 
Q 2366 -91 2075 -91 
Q 1284 -91 818 406 
Q 353 903 353 1747 
Q 353 2603 823 3093 
Q 1294 3584 2113 3584 
Q 2378 3584 2631 3529 
Q 2884 3475 3122 3366 
z
" id="DejaVuSans-63" transform="scale(0.015625)"/>
      </defs>
      <use xlink:href="#DejaVuSans-61"/>
      <use x="61.279297" xlink:href="#DejaVuSans-6c"/>
      <use x="89.0625" xlink:href="#DejaVuSans-70"/>
      <use x="152.539062" xlink:href="#DejaVuSans-61"/>
      <use x="213.818359" xlink:href="#DejaVuSans-63"/>
      <use x="268.798828" xlink:href="#DejaVuSans-61"/>
     </g>
    </g>
    <g id="line2d_22">
     <path d="M 66.6 69.248562 
L 86.6 69.248562 
" style="fill:none;stroke:#ff0000;stroke-linecap:square;stroke-opacity:0.9;stroke-width:2;"/>
    </g>
    <g id="line2d_23"/>
    <g id="text_17">
     <!-- mattress -->
     <g transform="translate(94.6 72.748562)scale(0.1 -0.1)">
      <defs>
       <path d="M 3328 2828 
Q 3544 3216 3844 3400 
Q 4144 3584 4550 3584 
Q 5097 3584 5394 3201 
Q 5691 2819 5691 2113 
L 5691 0 
L 5113 0 
L 5113 2094 
Q 5113 2597 4934 2840 
Q 4756 3084 4391 3084 
Q 3944 3084 3684 2787 
Q 3425 2491 3425 1978 
L 3425 0 
L 2847 0 
L 2847 2094 
Q 2847 2600 2669 2842 
Q 2491 3084 2119 3084 
Q 1678 3084 1418 2786 
Q 1159 2488 1159 1978 
L 1159 0 
L 581 0 
L 581 3500 
L 1159 3500 
L 1159 2956 
Q 1356 3278 1631 3431 
Q 1906 3584 2284 3584 
Q 2666 3584 2933 3390 
Q 3200 3197 3328 2828 
z
" id="DejaVuSans-6d" transform="scale(0.015625)"/>
       <path d="M 2834 3397 
L 2834 2853 
Q 2591 2978 2328 3040 
Q 2066 3103 1784 3103 
Q 1356 3103 1142 2972 
Q 928 2841 928 2578 
Q 928 2378 1081 2264 
Q 1234 2150 1697 2047 
L 1894 2003 
Q 2506 1872 2764 1633 
Q 3022 1394 3022 966 
Q 3022 478 2636 193 
Q 2250 -91 1575 -91 
Q 1294 -91 989 -36 
Q 684 19 347 128 
L 347 722 
Q 666 556 975 473 
Q 1284 391 1588 391 
Q 1994 391 2212 530 
Q 2431 669 2431 922 
Q 2431 1156 2273 1281 
Q 2116 1406 1581 1522 
L 1381 1569 
Q 847 1681 609 1914 
Q 372 2147 372 2553 
Q 372 3047 722 3315 
Q 1072 3584 1716 3584 
Q 2034 3584 2315 3537 
Q 2597 3491 2834 3397 
z
" id="DejaVuSans-73" transform="scale(0.015625)"/>
      </defs>
      <use xlink:href="#DejaVuSans-6d"/>
      <use x="97.412109" xlink:href="#DejaVuSans-61"/>
      <use x="158.691406" xlink:href="#DejaVuSans-74"/>
      <use x="197.900391" xlink:href="#DejaVuSans-74"/>
      <use x="237.109375" xlink:href="#DejaVuSans-72"/>
      <use x="275.972656" xlink:href="#DejaVuSans-65"/>
      <use x="337.496094" xlink:href="#DejaVuSans-73"/>
      <use x="389.595703" xlink:href="#DejaVuSans-73"/>
     </g>
    </g>
    <g id="line2d_24">
     <path d="M 66.6 83.926687 
L 86.6 83.926687 
" style="fill:none;stroke:#008000;stroke-linecap:square;stroke-opacity:0.9;stroke-width:2;"/>
    </g>
    <g id="line2d_25"/>
    <g id="text_18">
     <!-- daily-open-rebal -->
     <g transform="translate(94.6 87.426687)scale(0.1 -0.1)">
      <defs>
       <path d="M 3513 2113 
L 3513 0 
L 2938 0 
L 2938 2094 
Q 2938 2591 2744 2837 
Q 2550 3084 2163 3084 
Q 1697 3084 1428 2787 
Q 1159 2491 1159 1978 
L 1159 0 
L 581 0 
L 581 3500 
L 1159 3500 
L 1159 2956 
Q 1366 3272 1645 3428 
Q 1925 3584 2291 3584 
Q 2894 3584 3203 3211 
Q 3513 2838 3513 2113 
z
" id="DejaVuSans-6e" transform="scale(0.015625)"/>
       <path d="M 3116 1747 
Q 3116 2381 2855 2742 
Q 2594 3103 2138 3103 
Q 1681 3103 1420 2742 
Q 1159 2381 1159 1747 
Q 1159 1113 1420 752 
Q 1681 391 2138 391 
Q 2594 391 2855 752 
Q 3116 1113 3116 1747 
z
M 1159 2969 
Q 1341 3281 1617 3432 
Q 1894 3584 2278 3584 
Q 2916 3584 3314 3078 
Q 3713 2572 3713 1747 
Q 3713 922 3314 415 
Q 2916 -91 2278 -91 
Q 1894 -91 1617 61 
Q 1341 213 1159 525 
L 1159 0 
L 581 0 
L 581 4863 
L 1159 4863 
L 1159 2969 
z
" id="DejaVuSans-62" transform="scale(0.015625)"/>
      </defs>
      <use xlink:href="#DejaVuSans-64"/>
      <use x="63.476562" xlink:href="#DejaVuSans-61"/>
      <use x="124.755859" xlink:href="#DejaVuSans-69"/>
      <use x="152.539062" xlink:href="#DejaVuSans-6c"/>
      <use x="180.322266" xlink:href="#DejaVuSans-79"/>
      <use x="237.751953" xlink:href="#DejaVuSans-2d"/>
      <use x="275.710938" xlink:href="#DejaVuSans-6f"/>
      <use x="336.892578" xlink:href="#DejaVuSans-70"/>
      <use x="400.369141" xlink:href="#DejaVuSans-65"/>
      <use x="461.892578" xlink:href="#DejaVuSans-6e"/>
      <use x="525.271484" xlink:href="#DejaVuSans-2d"/>
      <use x="561.355469" xlink:href="#DejaVuSans-72"/>
      <use x="600.21875" xlink:href="#DejaVuSans-65"/>
      <use x="661.742188" xlink:href="#DejaVuSans-62"/>
      <use x="725.21875" xlink:href="#DejaVuSans-61"/>
      <use x="786.498047" xlink:href="#DejaVuSans-6c"/>
     </g>
    </g>
    <g id="line2d_26">
     <path d="M 66.6 98.604812 
L 86.6 98.604812 
" style="fill:none;stroke:#ec5283;stroke-linecap:square;stroke-width:2;"/>
    </g>
    <g id="line2d_27"/>
    <g id="text_19">
     <!-- daily-close-rebal -->
     <g transform="translate(94.6 102.104812)scale(0.1 -0.1)">
      <use xlink:href="#DejaVuSans-64"/>
      <use x="63.476562" xlink:href="#DejaVuSans-61"/>
      <use x="124.755859" xlink:href="#DejaVuSans-69"/>
      <use x="152.539062" xlink:href="#DejaVuSans-6c"/>
      <use x="180.322266" xlink:href="#DejaVuSans-79"/>
      <use x="237.751953" xlink:href="#DejaVuSans-2d"/>
      <use x="273.835938" xlink:href="#DejaVuSans-63"/>
      <use x="328.816406" xlink:href="#DejaVuSans-6c"/>
      <use x="356.599609" xlink:href="#DejaVuSans-6f"/>
      <use x="417.78125" xlink:href="#DejaVuSans-73"/>
      <use x="469.880859" xlink:href="#DejaVuSans-65"/>
      <use x="531.404297" xlink:href="#DejaVuSans-2d"/>
      <use x="567.488281" xlink:href="#DejaVuSans-72"/>
      <use x="606.351562" xlink:href="#DejaVuSans-65"/>
      <use x="667.875" xlink:href="#DejaVuSans-62"/>
      <use x="731.351562" xlink:href="#DejaVuSans-61"/>
      <use x="792.630859" xlink:href="#DejaVuSans-6c"/>
     </g>
    </g>
    <g id="line2d_28">
     <path d="M 66.6 113.282937 
L 86.6 113.282937 
" style="fill:none;stroke:#00ff00;stroke-linecap:square;stroke-opacity:0.9;stroke-width:2;"/>
    </g>
    <g id="line2d_29"/>
    <g id="text_20">
     <!-- trader-baseline -->
     <g transform="translate(94.6 116.782937)scale(0.1 -0.1)">
      <use xlink:href="#DejaVuSans-74"/>
      <use x="39.208984" xlink:href="#DejaVuSans-72"/>
      <use x="80.322266" xlink:href="#DejaVuSans-61"/>
      <use x="141.601562" xlink:href="#DejaVuSans-64"/>
      <use x="205.078125" xlink:href="#DejaVuSans-65"/>
      <use x="266.601562" xlink:href="#DejaVuSans-72"/>
      <use x="301.339844" xlink:href="#DejaVuSans-2d"/>
      <use x="337.423828" xlink:href="#DejaVuSans-62"/>
      <use x="400.900391" xlink:href="#DejaVuSans-61"/>
      <use x="462.179688" xlink:href="#DejaVuSans-73"/>
      <use x="514.279297" xlink:href="#DejaVuSans-65"/>
      <use x="575.802734" xlink:href="#DejaVuSans-6c"/>
      <use x="603.585938" xlink:href="#DejaVuSans-69"/>
      <use x="631.369141" xlink:href="#DejaVuSans-6e"/>
      <use x="694.748047" xlink:href="#DejaVuSans-65"/>
     </g>
    </g>
    <g id="line2d_30">
     <path d="M 66.6 127.961062 
L 86.6 127.961062 
" style="fill:none;stroke:#a5b9cf;stroke-linecap:square;stroke-width:2;"/>
    </g>
    <g id="line2d_31"/>
    <g id="text_21">
     <!-- default-cfg -->
     <g transform="translate(94.6 131.461062)scale(0.1 -0.1)">
      <defs>
       <path d="M 2375 4863 
L 2375 4384 
L 1825 4384 
Q 1516 4384 1395 4259 
Q 1275 4134 1275 3809 
L 1275 3500 
L 2222 3500 
L 2222 3053 
L 1275 3053 
L 1275 0 
L 697 0 
L 697 3053 
L 147 3053 
L 147 3500 
L 697 3500 
L 697 3744 
Q 697 4328 969 4595 
Q 1241 4863 1831 4863 
L 2375 4863 
z
" id="DejaVuSans-66" transform="scale(0.015625)"/>
       <path d="M 544 1381 
L 544 3500 
L 1119 3500 
L 1119 1403 
Q 1119 906 1312 657 
Q 1506 409 1894 409 
Q 2359 409 2629 706 
Q 2900 1003 2900 1516 
L 2900 3500 
L 3475 3500 
L 3475 0 
L 2900 0 
L 2900 538 
Q 2691 219 2414 64 
Q 2138 -91 1772 -91 
Q 1169 -91 856 284 
Q 544 659 544 1381 
z
M 1991 3584 
L 1991 3584 
z
" id="DejaVuSans-75" transform="scale(0.015625)"/>
       <path d="M 2906 1791 
Q 2906 2416 2648 2759 
Q 2391 3103 1925 3103 
Q 1463 3103 1205 2759 
Q 947 2416 947 1791 
Q 947 1169 1205 825 
Q 1463 481 1925 481 
Q 2391 481 2648 825 
Q 2906 1169 2906 1791 
z
M 3481 434 
Q 3481 -459 3084 -895 
Q 2688 -1331 1869 -1331 
Q 1566 -1331 1297 -1286 
Q 1028 -1241 775 -1147 
L 775 -588 
Q 1028 -725 1275 -790 
Q 1522 -856 1778 -856 
Q 2344 -856 2625 -561 
Q 2906 -266 2906 331 
L 2906 616 
Q 2728 306 2450 153 
Q 2172 0 1784 0 
Q 1141 0 747 490 
Q 353 981 353 1791 
Q 353 2603 747 3093 
Q 1141 3584 1784 3584 
Q 2172 3584 2450 3431 
Q 2728 3278 2906 2969 
L 2906 3500 
L 3481 3500 
L 3481 434 
z
" id="DejaVuSans-67" transform="scale(0.015625)"/>
      </defs>
      <use xlink:href="#DejaVuSans-64"/>
      <use x="63.476562" xlink:href="#DejaVuSans-65"/>
      <use x="125" xlink:href="#DejaVuSans-66"/>
      <use x="160.205078" xlink:href="#DejaVuSans-61"/>
      <use x="221.484375" xlink:href="#DejaVuSans-75"/>
      <use x="284.863281" xlink:href="#DejaVuSans-6c"/>
      <use x="312.646484" xlink:href="#DejaVuSans-74"/>
      <use x="351.855469" xlink:href="#DejaVuSans-2d"/>
      <use x="387.939453" xlink:href="#DejaVuSans-63"/>
      <use x="442.919922" xlink:href="#DejaVuSans-66"/>
      <use x="478.125" xlink:href="#DejaVuSans-67"/>
     </g>
    </g>
   </g>
  </g>
 </g>
 <defs>
  <clipPath id="pbbe2f047b8">
   <rect height="235.008" width="357.12" x="57.6" y="41.472"/>
  </clipPath>
 </defs>
</svg>
