<?xml version="1.0" encoding="utf-8" standalone="no"?>
<!DOCTYPE svg PUBLIC "-//W3C//DTD SVG 1.1//EN"
  "http://www.w3.org/Graphics/SVG/1.1/DTD/svg11.dtd">
<svg height="345.6pt" version="1.1" viewBox="0 0 460.8 345.6" width="460.8pt" xmlns="http://www.w3.org/2000/svg" xmlns:xlink="http://www.w3.org/1999/xlink">
 <metadata>
  <rdf:RDF xmlns:cc="http://creativecommons.org/ns#" xmlns:dc="http://purl.org/dc/elements/1.1/" xmlns:rdf="http://www.w3.org/1999/02/22-rdf-syntax-ns#">
   <cc:Work>
    <dc:type rdf:resource="http://purl.org/dc/dcmitype/StillImage"/>
    <dc:date>2022-05-08T10:02:14.630708</dc:date>
    <dc:format>image/svg+xml</dc:format>
    <dc:creator>
     <cc:Agent>
      <dc:title>Matplotlib v3.4.3, https://matplotlib.org/</dc:title>
     </cc:Agent>
    </dc:creator>
   </cc:Work>
  </rdf:RDF>
 </metadata>
 <defs>
  <style type="text/css">*{stroke-linecap:butt;stroke-linejoin:round;}</style>
 </defs>
 <g id="figure_1">
  <g id="patch_1">
   <path d="M 0 345.6 
L 460.8 345.6 
L 460.8 0 
L 0 0 
z
" style="fill:#ffffff;"/>
  </g>
  <g id="axes_1">
   <g id="patch_2">
    <path d="M 57.6 276.48 
L 414.72 276.48 
L 414.72 41.472 
L 57.6 41.472 
z
" style="fill:#ffffff;"/>
   </g>
   <g id="matplotlib.axis_1">
    <g id="xtick_1">
     <g id="line2d_1">
      <defs>
       <path d="M 0 0 
L 0 3.5 
" id="m6be937ef19" style="stroke:#000000;stroke-width:0.8;"/>
      </defs>
      <g>
       <use style="stroke:#000000;stroke-width:0.8;" x="98.806154" xlink:href="#m6be937ef19" y="276.48"/>
      </g>
     </g>
     <g id="text_1">
      <!-- 2021-12 -->
      <g transform="translate(61.581333 310.951846)rotate(-30)scale(0.1 -0.1)">
       <defs>
        <path d="M 1228 531 
L 3431 531 
L 3431 0 
L 469 0 
L 469 531 
Q 828 903 1448 1529 
Q 2069 2156 2228 2338 
Q 2531 2678 2651 2914 
Q 2772 3150 2772 3378 
Q 2772 3750 2511 3984 
Q 2250 4219 1831 4219 
Q 1534 4219 1204 4116 
Q 875 4013 500 3803 
L 500 4441 
Q 881 4594 1212 4672 
Q 1544 4750 1819 4750 
Q 2544 4750 2975 4387 
Q 3406 4025 3406 3419 
Q 3406 3131 3298 2873 
Q 3191 2616 2906 2266 
Q 2828 2175 2409 1742 
Q 1991 1309 1228 531 
z
" id="DejaVuSans-32" transform="scale(0.015625)"/>
        <path d="M 2034 4250 
Q 1547 4250 1301 3770 
Q 1056 3291 1056 2328 
Q 1056 1369 1301 889 
Q 1547 409 2034 409 
Q 2525 409 2770 889 
Q 3016 1369 3016 2328 
Q 3016 3291 2770 3770 
Q 2525 4250 2034 4250 
z
M 2034 4750 
Q 2819 4750 3233 4129 
Q 3647 3509 3647 2328 
Q 3647 1150 3233 529 
Q 2819 -91 2034 -91 
Q 1250 -91 836 529 
Q 422 1150 422 2328 
Q 422 3509 836 4129 
Q 1250 4750 2034 4750 
z
" id="DejaVuSans-30" transform="scale(0.015625)"/>
        <path d="M 794 531 
L 1825 531 
L 1825 4091 
L 703 3866 
L 703 4441 
L 1819 4666 
L 2450 4666 
L 2450 531 
L 3481 531 
L 3481 0 
L 794 0 
L 794 531 
z
" id="DejaVuSans-31" transform="scale(0.015625)"/>
        <path d="M 313 2009 
L 1997 2009 
L 1997 1497 
L 313 1497 
L 313 2009 
z
" id="DejaVuSans-2d" transform="scale(0.015625)"/>
       </defs>
       <use xlink:href="#DejaVuSans-32"/>
       <use x="63.623047" xlink:href="#DejaVuSans-30"/>
       <use x="127.246094" xlink:href="#DejaVuSans-32"/>
       <use x="190.869141" xlink:href="#DejaVuSans-31"/>
       <use x="254.492188" xlink:href="#DejaVuSans-2d"/>
       <use x="290.576172" xlink:href="#DejaVuSans-31"/>
       <use x="354.199219" xlink:href="#DejaVuSans-32"/>
      </g>
     </g>
    </g>
    <g id="xtick_2">
     <g id="line2d_2">
      <g>
       <use style="stroke:#000000;stroke-width:0.8;" x="158.358171" xlink:href="#m6be937ef19" y="276.48"/>
      </g>
     </g>
     <g id="text_2">
      <!-- 2022-01 -->
      <g transform="translate(121.13335 310.951846)rotate(-30)scale(0.1 -0.1)">
       <use xlink:href="#DejaVuSans-32"/>
       <use x="63.623047" xlink:href="#DejaVuSans-30"/>
       <use x="127.246094" xlink:href="#DejaVuSans-32"/>
       <use x="190.869141" xlink:href="#DejaVuSans-32"/>
       <use x="254.492188" xlink:href="#DejaVuSans-2d"/>
       <use x="290.576172" xlink:href="#DejaVuSans-30"/>
       <use x="354.199219" xlink:href="#DejaVuSans-31"/>
      </g>
     </g>
    </g>
    <g id="xtick_3">
     <g id="line2d_3">
      <g>
       <use style="stroke:#000000;stroke-width:0.8;" x="217.910188" xlink:href="#m6be937ef19" y="276.48"/>
      </g>
     </g>
     <g id="text_3">
      <!-- 2022-02 -->
      <g transform="translate(180.685367 310.951846)rotate(-30)scale(0.1 -0.1)">
       <use xlink:href="#DejaVuSans-32"/>
       <use x="63.623047" xlink:href="#DejaVuSans-30"/>
       <use x="127.246094" xlink:href="#DejaVuSans-32"/>
       <use x="190.869141" xlink:href="#DejaVuSans-32"/>
       <use x="254.492188" xlink:href="#DejaVuSans-2d"/>
       <use x="290.576172" xlink:href="#DejaVuSans-30"/>
       <use x="354.199219" xlink:href="#DejaVuSans-32"/>
      </g>
     </g>
    </g>
    <g id="xtick_4">
     <g id="line2d_4">
      <g>
       <use style="stroke:#000000;stroke-width:0.8;" x="271.699107" xlink:href="#m6be937ef19" y="276.48"/>
      </g>
     </g>
     <g id="text_4">
      <!-- 2022-03 -->
      <g transform="translate(234.474286 310.951846)rotate(-30)scale(0.1 -0.1)">
       <defs>
        <path d="M 2597 2516 
Q 3050 2419 3304 2112 
Q 3559 1806 3559 1356 
Q 3559 666 3084 287 
Q 2609 -91 1734 -91 
Q 1441 -91 1130 -33 
Q 819 25 488 141 
L 488 750 
Q 750 597 1062 519 
Q 1375 441 1716 441 
Q 2309 441 2620 675 
Q 2931 909 2931 1356 
Q 2931 1769 2642 2001 
Q 2353 2234 1838 2234 
L 1294 2234 
L 1294 2753 
L 1863 2753 
Q 2328 2753 2575 2939 
Q 2822 3125 2822 3475 
Q 2822 3834 2567 4026 
Q 2313 4219 1838 4219 
Q 1578 4219 1281 4162 
Q 984 4106 628 3988 
L 628 4550 
Q 988 4650 1302 4700 
Q 1616 4750 1894 4750 
Q 2613 4750 3031 4423 
Q 3450 4097 3450 3541 
Q 3450 3153 3228 2886 
Q 3006 2619 2597 2516 
z
" id="DejaVuSans-33" transform="scale(0.015625)"/>
       </defs>
       <use xlink:href="#DejaVuSans-32"/>
       <use x="63.623047" xlink:href="#DejaVuSans-30"/>
       <use x="127.246094" xlink:href="#DejaVuSans-32"/>
       <use x="190.869141" xlink:href="#DejaVuSans-32"/>
       <use x="254.492188" xlink:href="#DejaVuSans-2d"/>
       <use x="290.576172" xlink:href="#DejaVuSans-30"/>
       <use x="354.199219" xlink:href="#DejaVuSans-33"/>
      </g>
     </g>
    </g>
    <g id="xtick_5">
     <g id="line2d_5">
      <g>
       <use style="stroke:#000000;stroke-width:0.8;" x="331.251124" xlink:href="#m6be937ef19" y="276.48"/>
      </g>
     </g>
     <g id="text_5">
      <!-- 2022-04 -->
      <g transform="translate(294.026303 310.951846)rotate(-30)scale(0.1 -0.1)">
       <defs>
        <path d="M 2419 4116 
L 825 1625 
L 2419 1625 
L 2419 4116 
z
M 2253 4666 
L 3047 4666 
L 3047 1625 
L 3713 1625 
L 3713 1100 
L 3047 1100 
L 3047 0 
L 2419 0 
L 2419 1100 
L 313 1100 
L 313 1709 
L 2253 4666 
z
" id="DejaVuSans-34" transform="scale(0.015625)"/>
       </defs>
       <use xlink:href="#DejaVuSans-32"/>
       <use x="63.623047" xlink:href="#DejaVuSans-30"/>
       <use x="127.246094" xlink:href="#DejaVuSans-32"/>
       <use x="190.869141" xlink:href="#DejaVuSans-32"/>
       <use x="254.492188" xlink:href="#DejaVuSans-2d"/>
       <use x="290.576172" xlink:href="#DejaVuSans-30"/>
       <use x="354.199219" xlink:href="#DejaVuSans-34"/>
      </g>
     </g>
    </g>
    <g id="xtick_6">
     <g id="line2d_6">
      <g>
       <use style="stroke:#000000;stroke-width:0.8;" x="388.882109" xlink:href="#m6be937ef19" y="276.48"/>
      </g>
     </g>
     <g id="text_6">
      <!-- 2022-05 -->
      <g transform="translate(351.657288 310.951846)rotate(-30)scale(0.1 -0.1)">
       <defs>
        <path d="M 691 4666 
L 3169 4666 
L 3169 4134 
L 1269 4134 
L 1269 2991 
Q 1406 3038 1543 3061 
Q 1681 3084 1819 3084 
Q 2600 3084 3056 2656 
Q 3513 2228 3513 1497 
Q 3513 744 3044 326 
Q 2575 -91 1722 -91 
Q 1428 -91 1123 -41 
Q 819 9 494 109 
L 494 744 
Q 775 591 1075 516 
Q 1375 441 1709 441 
Q 2250 441 2565 725 
Q 2881 1009 2881 1497 
Q 2881 1984 2565 2268 
Q 2250 2553 1709 2553 
Q 1456 2553 1204 2497 
Q 953 2441 691 2322 
L 691 4666 
z
" id="DejaVuSans-35" transform="scale(0.015625)"/>
       </defs>
       <use xlink:href="#DejaVuSans-32"/>
       <use x="63.623047" xlink:href="#DejaVuSans-30"/>
       <use x="127.246094" xlink:href="#DejaVuSans-32"/>
       <use x="190.869141" xlink:href="#DejaVuSans-32"/>
       <use x="254.492188" xlink:href="#DejaVuSans-2d"/>
       <use x="290.576172" xlink:href="#DejaVuSans-30"/>
       <use x="354.199219" xlink:href="#DejaVuSans-35"/>
      </g>
     </g>
    </g>
    <g id="text_7">
     <!-- date -->
     <g transform="translate(224.885 324.351346)scale(0.1 -0.1)">
      <defs>
       <path d="M 2906 2969 
L 2906 4863 
L 3481 4863 
L 3481 0 
L 2906 0 
L 2906 525 
Q 2725 213 2448 61 
Q 2172 -91 1784 -91 
Q 1150 -91 751 415 
Q 353 922 353 1747 
Q 353 2572 751 3078 
Q 1150 3584 1784 3584 
Q 2172 3584 2448 3432 
Q 2725 3281 2906 2969 
z
M 947 1747 
Q 947 1113 1208 752 
Q 1469 391 1925 391 
Q 2381 391 2643 752 
Q 2906 1113 2906 1747 
Q 2906 2381 2643 2742 
Q 2381 3103 1925 3103 
Q 1469 3103 1208 2742 
Q 947 2381 947 1747 
z
" id="DejaVuSans-64" transform="scale(0.015625)"/>
       <path d="M 2194 1759 
Q 1497 1759 1228 1600 
Q 959 1441 959 1056 
Q 959 750 1161 570 
Q 1363 391 1709 391 
Q 2188 391 2477 730 
Q 2766 1069 2766 1631 
L 2766 1759 
L 2194 1759 
z
M 3341 1997 
L 3341 0 
L 2766 0 
L 2766 531 
Q 2569 213 2275 61 
Q 1981 -91 1556 -91 
Q 1019 -91 701 211 
Q 384 513 384 1019 
Q 384 1609 779 1909 
Q 1175 2209 1959 2209 
L 2766 2209 
L 2766 2266 
Q 2766 2663 2505 2880 
Q 2244 3097 1772 3097 
Q 1472 3097 1187 3025 
Q 903 2953 641 2809 
L 641 3341 
Q 956 3463 1253 3523 
Q 1550 3584 1831 3584 
Q 2591 3584 2966 3190 
Q 3341 2797 3341 1997 
z
" id="DejaVuSans-61" transform="scale(0.015625)"/>
       <path d="M 1172 4494 
L 1172 3500 
L 2356 3500 
L 2356 3053 
L 1172 3053 
L 1172 1153 
Q 1172 725 1289 603 
Q 1406 481 1766 481 
L 2356 481 
L 2356 0 
L 1766 0 
Q 1100 0 847 248 
Q 594 497 594 1153 
L 594 3053 
L 172 3053 
L 172 3500 
L 594 3500 
L 594 4494 
L 1172 4494 
z
" id="DejaVuSans-74" transform="scale(0.015625)"/>
       <path d="M 3597 1894 
L 3597 1613 
L 953 1613 
Q 991 1019 1311 708 
Q 1631 397 2203 397 
Q 2534 397 2845 478 
Q 3156 559 3463 722 
L 3463 178 
Q 3153 47 2828 -22 
Q 2503 -91 2169 -91 
Q 1331 -91 842 396 
Q 353 884 353 1716 
Q 353 2575 817 3079 
Q 1281 3584 2069 3584 
Q 2775 3584 3186 3129 
Q 3597 2675 3597 1894 
z
M 3022 2063 
Q 3016 2534 2758 2815 
Q 2500 3097 2075 3097 
Q 1594 3097 1305 2825 
Q 1016 2553 972 2059 
L 3022 2063 
z
" id="DejaVuSans-65" transform="scale(0.015625)"/>
      </defs>
      <use xlink:href="#DejaVuSans-64"/>
      <use x="63.476562" xlink:href="#DejaVuSans-61"/>
      <use x="124.755859" xlink:href="#DejaVuSans-74"/>
      <use x="163.964844" xlink:href="#DejaVuSans-65"/>
     </g>
    </g>
   </g>
   <g id="matplotlib.axis_2">
    <g id="ytick_1">
     <g id="line2d_7">
      <defs>
       <path d="M 0 0 
L -3.5 0 
" id="mc53044a28d" style="stroke:#000000;stroke-width:0.8;"/>
      </defs>
      <g>
       <use style="stroke:#000000;stroke-width:0.8;" x="57.6" xlink:href="#mc53044a28d" y="264.144267"/>
      </g>
     </g>
     <g id="text_8">
      <!-- 90000 -->
      <g transform="translate(18.7875 267.943485)scale(0.1 -0.1)">
       <defs>
        <path d="M 703 97 
L 703 672 
Q 941 559 1184 500 
Q 1428 441 1663 441 
Q 2288 441 2617 861 
Q 2947 1281 2994 2138 
Q 2813 1869 2534 1725 
Q 2256 1581 1919 1581 
Q 1219 1581 811 2004 
Q 403 2428 403 3163 
Q 403 3881 828 4315 
Q 1253 4750 1959 4750 
Q 2769 4750 3195 4129 
Q 3622 3509 3622 2328 
Q 3622 1225 3098 567 
Q 2575 -91 1691 -91 
Q 1453 -91 1209 -44 
Q 966 3 703 97 
z
M 1959 2075 
Q 2384 2075 2632 2365 
Q 2881 2656 2881 3163 
Q 2881 3666 2632 3958 
Q 2384 4250 1959 4250 
Q 1534 4250 1286 3958 
Q 1038 3666 1038 3163 
Q 1038 2656 1286 2365 
Q 1534 2075 1959 2075 
z
" id="DejaVuSans-39" transform="scale(0.015625)"/>
       </defs>
       <use xlink:href="#DejaVuSans-39"/>
       <use x="63.623047" xlink:href="#DejaVuSans-30"/>
       <use x="127.246094" xlink:href="#DejaVuSans-30"/>
       <use x="190.869141" xlink:href="#DejaVuSans-30"/>
       <use x="254.492188" xlink:href="#DejaVuSans-30"/>
      </g>
     </g>
    </g>
    <g id="ytick_2">
     <g id="line2d_8">
      <g>
       <use style="stroke:#000000;stroke-width:0.8;" x="57.6" xlink:href="#mc53044a28d" y="237.244532"/>
      </g>
     </g>
     <g id="text_9">
      <!-- 92500 -->
      <g transform="translate(18.7875 241.04375)scale(0.1 -0.1)">
       <use xlink:href="#DejaVuSans-39"/>
       <use x="63.623047" xlink:href="#DejaVuSans-32"/>
       <use x="127.246094" xlink:href="#DejaVuSans-35"/>
       <use x="190.869141" xlink:href="#DejaVuSans-30"/>
       <use x="254.492188" xlink:href="#DejaVuSans-30"/>
      </g>
     </g>
    </g>
    <g id="ytick_3">
     <g id="line2d_9">
      <g>
       <use style="stroke:#000000;stroke-width:0.8;" x="57.6" xlink:href="#mc53044a28d" y="210.344796"/>
      </g>
     </g>
     <g id="text_10">
      <!-- 95000 -->
      <g transform="translate(18.7875 214.144015)scale(0.1 -0.1)">
       <use xlink:href="#DejaVuSans-39"/>
       <use x="63.623047" xlink:href="#DejaVuSans-35"/>
       <use x="127.246094" xlink:href="#DejaVuSans-30"/>
       <use x="190.869141" xlink:href="#DejaVuSans-30"/>
       <use x="254.492188" xlink:href="#DejaVuSans-30"/>
      </g>
     </g>
    </g>
    <g id="ytick_4">
     <g id="line2d_10">
      <g>
       <use style="stroke:#000000;stroke-width:0.8;" x="57.6" xlink:href="#mc53044a28d" y="183.445061"/>
      </g>
     </g>
     <g id="text_11">
      <!-- 97500 -->
      <g transform="translate(18.7875 187.24428)scale(0.1 -0.1)">
       <defs>
        <path d="M 525 4666 
L 3525 4666 
L 3525 4397 
L 1831 0 
L 1172 0 
L 2766 4134 
L 525 4134 
L 525 4666 
z
" id="DejaVuSans-37" transform="scale(0.015625)"/>
       </defs>
       <use xlink:href="#DejaVuSans-39"/>
       <use x="63.623047" xlink:href="#DejaVuSans-37"/>
       <use x="127.246094" xlink:href="#DejaVuSans-35"/>
       <use x="190.869141" xlink:href="#DejaVuSans-30"/>
       <use x="254.492188" xlink:href="#DejaVuSans-30"/>
      </g>
     </g>
    </g>
    <g id="ytick_5">
     <g id="line2d_11">
      <g>
       <use style="stroke:#000000;stroke-width:0.8;" x="57.6" xlink:href="#mc53044a28d" y="156.545326"/>
      </g>
     </g>
     <g id="text_12">
      <!-- 100000 -->
      <g transform="translate(12.425 160.344545)scale(0.1 -0.1)">
       <use xlink:href="#DejaVuSans-31"/>
       <use x="63.623047" xlink:href="#DejaVuSans-30"/>
       <use x="127.246094" xlink:href="#DejaVuSans-30"/>
       <use x="190.869141" xlink:href="#DejaVuSans-30"/>
       <use x="254.492188" xlink:href="#DejaVuSans-30"/>
       <use x="318.115234" xlink:href="#DejaVuSans-30"/>
      </g>
     </g>
    </g>
    <g id="ytick_6">
     <g id="line2d_12">
      <g>
       <use style="stroke:#000000;stroke-width:0.8;" x="57.6" xlink:href="#mc53044a28d" y="129.645591"/>
      </g>
     </g>
     <g id="text_13">
      <!-- 102500 -->
      <g transform="translate(12.425 133.44481)scale(0.1 -0.1)">
       <use xlink:href="#DejaVuSans-31"/>
       <use x="63.623047" xlink:href="#DejaVuSans-30"/>
       <use x="127.246094" xlink:href="#DejaVuSans-32"/>
       <use x="190.869141" xlink:href="#DejaVuSans-35"/>
       <use x="254.492188" xlink:href="#DejaVuSans-30"/>
       <use x="318.115234" xlink:href="#DejaVuSans-30"/>
      </g>
     </g>
    </g>
    <g id="ytick_7">
     <g id="line2d_13">
      <g>
       <use style="stroke:#000000;stroke-width:0.8;" x="57.6" xlink:href="#mc53044a28d" y="102.745856"/>
      </g>
     </g>
     <g id="text_14">
      <!-- 105000 -->
      <g transform="translate(12.425 106.545074)scale(0.1 -0.1)">
       <use xlink:href="#DejaVuSans-31"/>
       <use x="63.623047" xlink:href="#DejaVuSans-30"/>
       <use x="127.246094" xlink:href="#DejaVuSans-35"/>
       <use x="190.869141" xlink:href="#DejaVuSans-30"/>
       <use x="254.492188" xlink:href="#DejaVuSans-30"/>
       <use x="318.115234" xlink:href="#DejaVuSans-30"/>
      </g>
     </g>
    </g>
    <g id="ytick_8">
     <g id="line2d_14">
      <g>
       <use style="stroke:#000000;stroke-width:0.8;" x="57.6" xlink:href="#mc53044a28d" y="75.84612"/>
      </g>
     </g>
     <g id="text_15">
      <!-- 107500 -->
      <g transform="translate(12.425 79.645339)scale(0.1 -0.1)">
       <use xlink:href="#DejaVuSans-31"/>
       <use x="63.623047" xlink:href="#DejaVuSans-30"/>
       <use x="127.246094" xlink:href="#DejaVuSans-37"/>
       <use x="190.869141" xlink:href="#DejaVuSans-35"/>
       <use x="254.492188" xlink:href="#DejaVuSans-30"/>
       <use x="318.115234" xlink:href="#DejaVuSans-30"/>
      </g>
     </g>
    </g>
    <g id="ytick_9">
     <g id="line2d_15">
      <g>
       <use style="stroke:#000000;stroke-width:0.8;" x="57.6" xlink:href="#mc53044a28d" y="48.946385"/>
      </g>
     </g>
     <g id="text_16">
      <!-- 110000 -->
      <g transform="translate(12.425 52.745604)scale(0.1 -0.1)">
       <use xlink:href="#DejaVuSans-31"/>
       <use x="63.623047" xlink:href="#DejaVuSans-31"/>
       <use x="127.246094" xlink:href="#DejaVuSans-30"/>
       <use x="190.869141" xlink:href="#DejaVuSans-30"/>
       <use x="254.492188" xlink:href="#DejaVuSans-30"/>
       <use x="318.115234" xlink:href="#DejaVuSans-30"/>
      </g>
     </g>
    </g>
   </g>
   <g id="line2d_16">
    <path clip-path="url(#pcdf4361491)" d="M 73.832727 52.154182 
L 75.75376 58.514773 
L 81.516859 63.44527 
L 83.437891 64.873549 
L 85.358924 59.46722 
L 89.20099 60.362628 
L 94.964088 81.191607 
L 96.885121 107.740226 
L 98.806154 128.125445 
L 100.727187 104.271722 
L 102.648219 117.10309 
L 108.411318 102.819836 
L 110.332351 77.912132 
L 112.253384 71.917479 
L 114.174416 87.511418 
L 116.095449 83.455019 
L 121.858548 94.016821 
L 123.77958 103.169571 
L 125.700613 87.607775 
L 127.621646 99.48248 
L 129.542679 102.139247 
L 135.305777 117.670038 
L 137.22681 91.888868 
L 139.147843 83.37446 
L 141.068876 74.605716 
L 148.753007 65.602666 
L 150.67404 68.449503 
L 152.595073 65.622198 
L 154.516105 66.411597 
L 156.437138 68.748349 
L 162.200237 66.427793 
L 164.121269 66.176022 
L 166.042302 96.059922 
L 167.963335 92.578519 
L 169.884368 100.516776 
L 175.647466 103.541646 
L 177.568499 91.030666 
L 179.489532 91.021946 
L 181.410565 105.217815 
L 183.331598 107.956688 
L 191.015729 132.856459 
L 192.936762 144.246597 
L 194.857795 158.441637 
L 196.778827 178.838575 
L 202.541926 166.400018 
L 204.462959 182.511276 
L 206.383991 190.943397 
L 208.305024 202.745334 
L 210.226057 178.91182 
L 215.989155 153.268911 
L 217.910188 143.010515 
L 219.831221 139.741825 
L 221.752254 162.710702 
L 223.673287 156.065511 
L 229.436385 156.424555 
L 231.357418 143.716985 
L 233.278451 122.867965 
L 235.199484 140.827124 
L 237.120516 159.561509 
L 242.883615 165.571522 
L 244.804648 143.627115 
L 246.72568 142.589967 
L 248.646713 168.214672 
L 250.567746 176.651505 
L 258.251877 189.525713 
L 260.17291 209.700097 
L 262.093943 189.353122 
L 264.014976 163.961143 
L 269.778074 164.757101 
L 271.699107 181.624362 
L 273.62014 160.151604 
L 275.541173 170.643115 
L 277.462205 183.028916 
L 283.225304 216.647742 
L 285.146337 219.631436 
L 287.06737 190.733967 
L 288.988402 194.08501 
L 290.909435 209.848089 
L 296.672534 222.306236 
L 298.593566 203.495062 
L 300.514599 174.850984 
L 302.435632 159.245292 
L 304.356665 146.346146 
L 310.119763 149.807719 
L 312.040796 137.540588 
L 313.961829 155.966419 
L 315.882862 142.110766 
L 317.803895 138.506188 
L 323.566993 134.010377 
L 325.488026 112.306248 
L 327.409059 124.057462 
L 329.330091 139.081174 
L 331.251124 132.866082 
L 337.014223 126.975121 
L 338.935256 144.693175 
L 340.856288 156.506272 
L 342.777321 154.857095 
L 344.698354 157.951189 
L 350.461452 169.259668 
L 352.382485 172.384317 
L 354.303518 155.634521 
L 356.224551 167.564791 
L 363.908682 172.326322 
L 365.829715 150.844326 
L 367.750748 148.466016 
L 369.671781 169.727064 
L 371.592813 198.043835 
L 377.355912 191.223575 
L 379.276945 221.704777 
L 381.197977 221.156343 
L 383.11901 200.063353 
L 385.040043 233.396574 
L 390.803141 226.121444 
L 392.724174 220.513061 
L 394.645207 192.59855 
L 396.56624 231.03692 
L 398.487273 244.119818 
" style="fill:none;stroke:#0000ff;stroke-linecap:square;stroke-opacity:0.9;stroke-width:2;"/>
   </g>
   <g id="line2d_17">
    <path clip-path="url(#pcdf4361491)" d="M 73.832727 52.154182 
L 75.75376 59.016583 
L 81.516859 63.37983 
L 83.437891 64.634515 
L 85.358924 60.159225 
L 89.20099 89.401953 
L 94.964088 80.812609 
L 96.885121 107.707172 
L 98.806154 128.633713 
L 100.727187 104.513149 
L 102.648219 117.872148 
L 108.411318 102.623763 
L 110.332351 78.697116 
L 112.253384 71.100468 
L 114.174416 87.109064 
L 116.095449 83.721148 
L 121.858548 94.272903 
L 123.77958 103.059658 
L 125.700613 87.375886 
L 127.621646 99.404413 
L 129.542679 103.207659 
L 135.305777 118.439074 
L 137.22681 92.051444 
L 139.147843 83.517449 
L 141.068876 74.48485 
L 148.753007 65.908907 
L 150.67404 68.939849 
L 152.595073 66.52857 
L 154.516105 66.974974 
L 156.437138 67.920295 
L 162.200237 66.541048 
L 164.121269 65.934265 
L 166.042302 94.974593 
L 167.963335 92.16249 
L 169.884368 98.337651 
L 175.647466 102.308595 
L 177.568499 89.86175 
L 179.489532 90.49537 
L 181.410565 103.322774 
L 183.331598 105.666797 
L 191.015729 130.031018 
L 192.936762 141.923576 
L 194.857795 156.484971 
L 196.778827 175.860743 
L 202.541926 164.47973 
L 204.462959 180.143531 
L 206.383991 188.371485 
L 208.305024 199.606254 
L 210.226057 177.009816 
L 215.989155 151.591407 
L 217.910188 140.936486 
L 219.831221 138.013228 
L 221.752254 160.58191 
L 223.673287 154.857017 
L 229.436385 154.640414 
L 231.357418 142.243031 
L 233.278451 121.17061 
L 235.199484 138.938759 
L 237.120516 156.933818 
L 242.883615 163.551328 
L 244.804648 141.746809 
L 246.72568 140.764665 
L 248.646713 166.440212 
L 250.567746 173.769201 
L 258.251877 187.294457 
L 260.17291 206.946549 
L 262.093943 187.595386 
L 264.014976 161.427987 
L 269.778074 161.95824 
L 271.699107 180.705866 
L 273.62014 158.341393 
L 275.541173 167.860128 
L 277.462205 179.48734 
L 283.225304 213.172038 
L 285.146337 215.413637 
L 287.06737 188.517539 
L 288.988402 190.938161 
L 290.909435 206.649726 
L 296.672534 217.450636 
L 298.593566 199.149684 
L 300.514599 171.799787 
L 302.435632 156.138082 
L 304.356665 144.390994 
L 310.119763 146.758845 
L 312.040796 135.544948 
L 313.961829 154.028472 
L 315.882862 140.533675 
L 317.803895 135.808974 
L 323.566993 132.347921 
L 325.488026 110.997362 
L 327.409059 123.342321 
L 329.330091 138.219201 
L 331.251124 131.08623 
L 337.014223 125.989436 
L 338.935256 143.714296 
L 340.856288 154.2722 
L 342.777321 152.240797 
L 344.698354 154.439252 
L 350.461452 166.326118 
L 352.382485 168.195752 
L 354.303518 152.843906 
L 356.224551 163.590824 
L 363.908682 167.681615 
L 365.829715 147.629366 
L 367.750748 144.932391 
L 369.671781 164.969974 
L 371.592813 193.201924 
L 377.355912 187.701123 
L 379.276945 216.153802 
L 381.197977 216.340569 
L 383.11901 195.807762 
L 385.040043 228.52305 
L 390.803141 222.575635 
L 392.724174 216.256151 
L 394.645207 187.682204 
L 396.56624 226.200163 
L 398.487273 237.31179 
" style="fill:none;stroke:#ff0000;stroke-linecap:square;stroke-opacity:0.9;stroke-width:2;"/>
   </g>
   <g id="line2d_18">
    <path clip-path="url(#pcdf4361491)" d="M 73.832727 52.154182 
L 75.75376 58.033735 
L 81.516859 63.383904 
L 83.437891 64.124237 
L 85.358924 59.398275 
L 89.20099 88.918725 
L 94.964088 80.43004 
L 96.885121 107.448268 
L 98.806154 128.360869 
L 100.727187 103.575455 
L 102.648219 117.827254 
L 108.411318 103.256651 
L 110.332351 77.630345 
L 112.253384 71.261024 
L 114.174416 86.945403 
L 116.095449 83.807849 
L 121.858548 94.178119 
L 123.77958 103.371623 
L 125.700613 87.367159 
L 127.621646 100.132932 
L 129.542679 102.957714 
L 135.305777 117.543853 
L 137.22681 91.663701 
L 139.147843 82.755184 
L 141.068876 74.90913 
L 148.753007 65.620584 
L 150.67404 68.299667 
L 152.595073 65.965372 
L 154.516105 66.772309 
L 156.437138 68.437708 
L 162.200237 66.29734 
L 164.121269 65.668838 
L 166.042302 95.191324 
L 167.963335 93.15603 
L 169.884368 100.028911 
L 175.647466 102.865491 
L 177.568499 90.458676 
L 179.489532 91.154413 
L 181.410565 104.979258 
L 183.331598 107.593691 
L 191.015729 132.596425 
L 192.936762 143.775536 
L 194.857795 158.461491 
L 196.778827 177.73962 
L 202.541926 166.407313 
L 204.462959 182.262383 
L 206.383991 190.978493 
L 208.305024 202.6859 
L 210.226057 178.86892 
L 215.989155 153.064449 
L 217.910188 142.712859 
L 219.831221 139.84356 
L 221.752254 162.46937 
L 223.673287 156.275994 
L 229.436385 155.596901 
L 231.357418 143.69383 
L 233.278451 122.317289 
L 235.199484 139.66858 
L 237.120516 158.299768 
L 242.883615 164.952171 
L 244.804648 142.942496 
L 246.72568 141.761054 
L 248.646713 167.284651 
L 250.567746 176.015969 
L 258.251877 188.983737 
L 260.17291 209.39524 
L 262.093943 188.821444 
L 264.014976 163.024984 
L 269.778074 163.318281 
L 271.699107 181.08953 
L 273.62014 159.247882 
L 275.541173 169.7363 
L 277.462205 181.108802 
L 283.225304 215.668842 
L 285.146337 217.833916 
L 287.06737 190.735759 
L 288.988402 193.451117 
L 290.909435 209.276507 
L 296.672534 220.57588 
L 298.593566 202.000767 
L 300.514599 173.987969 
L 302.435632 157.909897 
L 304.356665 144.644012 
L 310.119763 147.953465 
L 312.040796 137.142453 
L 313.961829 154.699247 
L 315.882862 141.033156 
L 317.803895 137.185412 
L 323.566993 133.21367 
L 325.488026 111.245317 
L 327.409059 123.53119 
L 329.330091 138.075104 
L 331.251124 131.659771 
L 337.014223 126.178784 
L 338.935256 143.36357 
L 340.856288 155.377779 
L 342.777321 153.892455 
L 344.698354 156.835257 
L 350.461452 168.60077 
L 352.382485 170.610825 
L 354.303518 154.184444 
L 356.224551 166.728456 
L 363.908682 170.599423 
L 365.829715 149.7975 
L 367.750748 147.945034 
L 369.671781 167.943002 
L 371.592813 196.803881 
L 377.355912 190.169096 
L 379.276945 219.603702 
L 381.197977 220.189156 
L 383.11901 198.593468 
L 385.040043 232.117139 
L 390.803141 225.398387 
L 392.724174 220.007921 
L 394.645207 191.536476 
L 396.56624 230.217855 
L 398.487273 242.889841 
" style="fill:none;stroke:#008000;stroke-linecap:square;stroke-opacity:0.9;stroke-width:2;"/>
   </g>
   <g id="line2d_19">
    <path clip-path="url(#pcdf4361491)" d="M 73.832727 52.154182 
L 75.75376 58.397372 
L 81.516859 63.663819 
L 83.437891 64.07342 
L 85.358924 60.153656 
L 89.20099 88.666617 
L 94.964088 81.200292 
L 96.885121 107.74674 
L 98.806154 128.506976 
L 100.727187 104.201957 
L 102.648219 117.844589 
L 108.411318 102.742111 
L 110.332351 77.829943 
L 112.253384 71.201654 
L 114.174416 87.129602 
L 116.095449 84.14646 
L 121.858548 93.983386 
L 123.77958 102.7414 
L 125.700613 87.400176 
L 127.621646 99.635298 
L 129.542679 102.292525 
L 135.305777 118.290043 
L 137.22681 92.186976 
L 139.147843 82.558478 
L 141.068876 74.300442 
L 148.753007 65.563678 
L 150.67404 68.903366 
L 152.595073 66.200348 
L 154.516105 67.079749 
L 156.437138 67.865493 
L 162.200237 66.605916 
L 164.121269 65.451703 
L 166.042302 95.42692 
L 167.963335 93.119067 
L 169.884368 99.773387 
L 175.647466 102.94531 
L 177.568499 91.020876 
L 179.489532 91.294638 
L 181.410565 105.376515 
L 183.331598 107.535649 
L 191.015729 132.24139 
L 192.936762 144.461187 
L 194.857795 158.596783 
L 196.778827 178.883139 
L 202.541926 166.249759 
L 204.462959 182.509156 
L 206.383991 191.087838 
L 208.305024 202.633345 
L 210.226057 178.760979 
L 215.989155 152.545307 
L 217.910188 142.253143 
L 219.831221 139.692569 
L 221.752254 162.985616 
L 223.673287 155.833374 
L 229.436385 155.769456 
L 231.357418 143.768689 
L 233.278451 123.294237 
L 235.199484 140.083137 
L 237.120516 158.472631 
L 242.883615 165.239197 
L 244.804648 143.741256 
L 246.72568 142.344163 
L 248.646713 167.678444 
L 250.567746 176.142073 
L 258.251877 189.38788 
L 260.17291 209.482595 
L 262.093943 189.294466 
L 264.014976 163.158327 
L 269.778074 164.166245 
L 271.699107 181.537934 
L 273.62014 160.209571 
L 275.541173 169.472292 
L 277.462205 181.476464 
L 283.225304 215.69058 
L 285.146337 218.333199 
L 287.06737 190.633284 
L 288.988402 194.481574 
L 290.909435 209.338815 
L 296.672534 221.221395 
L 298.593566 202.5872 
L 300.514599 174.31707 
L 302.435632 158.111847 
L 304.356665 145.101203 
L 310.119763 149.19039 
L 312.040796 137.327224 
L 313.961829 154.705262 
L 315.882862 141.433055 
L 317.803895 137.741018 
L 323.566993 133.893203 
L 325.488026 111.539956 
L 327.409059 123.78047 
L 329.330091 139.016067 
L 331.251124 132.779359 
L 337.014223 126.303136 
L 338.935256 144.687459 
L 340.856288 155.505393 
L 342.777321 154.603564 
L 344.698354 156.883139 
L 350.461452 168.81783 
L 352.382485 171.251194 
L 354.303518 155.509972 
L 356.224551 166.874303 
L 363.908682 171.51188 
L 365.829715 150.076701 
L 367.750748 147.541139 
L 369.671781 168.893102 
L 371.592813 197.319113 
L 377.355912 190.628699 
L 379.276945 220.647611 
L 381.197977 219.973096 
L 383.11901 198.971332 
L 385.040043 232.494109 
L 390.803141 226.312477 
L 392.724174 220.546531 
L 394.645207 192.348568 
L 396.56624 230.558695 
L 398.487273 243.821504 
" style="fill:none;stroke:#ec5283;stroke-linecap:square;stroke-width:2;"/>
   </g>
   <g id="line2d_20">
    <path clip-path="url(#pcdf4361491)" d="M 73.832727 52.154182 
L 75.75376 58.478893 
L 81.516859 63.881759 
L 83.437891 64.555302 
L 85.358924 60.227624 
L 89.20099 88.763861 
L 94.964088 80.613548 
L 96.885121 106.803827 
L 98.806154 127.950906 
L 100.727187 103.471778 
L 102.648219 116.909696 
L 108.411318 102.684944 
L 110.332351 77.619366 
L 112.253384 70.562519 
L 114.174416 86.748825 
L 116.095449 83.937233 
L 121.858548 93.261387 
L 123.77958 102.647377 
L 125.700613 87.474386 
L 127.621646 99.691051 
L 129.542679 102.456792 
L 135.305777 117.775886 
L 137.22681 91.531896 
L 139.147843 83.047486 
L 141.068876 74.310753 
L 148.753007 65.342783 
L 150.67404 67.936179 
L 152.595073 65.576801 
L 154.516105 66.003724 
L 156.437138 68.421834 
L 162.200237 65.834765 
L 164.121269 65.820122 
L 166.042302 95.241306 
L 167.963335 91.947297 
L 169.884368 99.014773 
L 175.647466 102.503676 
L 177.568499 90.226733 
L 179.489532 90.435473 
L 181.410565 104.773471 
L 183.331598 106.446457 
L 191.015729 131.718245 
L 192.936762 143.166566 
L 194.857795 158.059579 
L 196.778827 177.29721 
L 202.541926 165.674131 
L 204.462959 181.671052 
L 206.383991 190.163501 
L 208.305024 201.476083 
L 210.226057 177.985521 
L 215.989155 152.181158 
L 217.910188 141.269924 
L 219.831221 139.144836 
L 221.752254 161.380863 
L 223.673287 155.436563 
L 229.436385 155.813187 
L 231.357418 143.310586 
L 233.278451 121.977478 
L 235.199484 139.621548 
L 237.120516 157.618437 
L 242.883615 164.620994 
L 244.804648 142.211053 
L 246.72568 141.660444 
L 248.646713 167.280409 
L 250.567746 175.742391 
L 258.251877 188.25311 
L 260.17291 207.87945 
L 262.093943 187.807062 
L 264.014976 162.453118 
L 269.778074 162.574957 
L 271.699107 179.937132 
L 273.62014 159.051402 
L 275.541173 168.935674 
L 277.462205 181.156451 
L 283.225304 214.318606 
L 285.146337 217.4823 
L 287.06737 189.546714 
L 288.988402 192.591849 
L 290.909435 208.515817 
L 296.672534 219.651401 
L 298.593566 201.822133 
L 300.514599 173.316686 
L 302.435632 157.257565 
L 304.356665 144.490963 
L 310.119763 147.919659 
L 312.040796 135.962947 
L 313.961829 154.290628 
L 315.882862 140.675678 
L 317.803895 136.517293 
L 323.566993 132.534495 
L 325.488026 111.44888 
L 327.409059 123.627442 
L 329.330091 138.148817 
L 331.251124 132.103821 
L 337.014223 125.738724 
L 338.935256 143.560866 
L 340.856288 155.319856 
L 342.777321 153.590475 
L 344.698354 156.541505 
L 350.461452 167.32986 
L 352.382485 170.372871 
L 354.303518 154.58236 
L 356.224551 165.584938 
L 363.908682 170.439579 
L 365.829715 149.300124 
L 367.750748 146.580828 
L 369.671781 167.897505 
L 371.592813 195.641506 
L 377.355912 189.48329 
L 379.276945 219.70377 
L 381.197977 218.816157 
L 383.11901 197.99006 
L 385.040043 232.067736 
L 390.803141 225.234806 
L 392.724174 218.605855 
L 394.645207 190.691634 
L 396.56624 229.818489 
L 398.487273 241.82418 
" style="fill:none;stroke:#00ff00;stroke-linecap:square;stroke-opacity:0.9;stroke-width:2;"/>
   </g>
   <g id="line2d_21">
    <path clip-path="url(#pcdf4361491)" d="M 73.832727 52.154182 
L 75.75376 59.448495 
L 81.516859 65.076658 
L 83.437891 67.75836 
L 85.358924 61.888256 
L 89.20099 89.750211 
L 94.964088 84.425381 
L 96.885121 111.37388 
L 98.806154 132.523058 
L 100.727187 106.818332 
L 102.648219 120.33971 
L 108.411318 104.737745 
L 110.332351 78.703691 
L 112.253384 71.637849 
L 114.174416 89.622654 
L 116.095449 90.039699 
L 121.858548 98.526074 
L 123.77958 107.94646 
L 125.700613 92.987737 
L 127.621646 106.401965 
L 129.542679 103.740717 
L 135.305777 121.247326 
L 137.22681 91.992334 
L 139.147843 83.036854 
L 141.068876 74.926337 
L 148.753007 62.513862 
L 150.67404 65.913112 
L 152.595073 63.313397 
L 154.516105 62.088509 
L 156.437138 63.189514 
L 162.200237 60.971906 
L 164.121269 63.822974 
L 166.042302 99.642493 
L 167.963335 98.795363 
L 169.884368 110.167337 
L 175.647466 112.385542 
L 177.568499 98.480762 
L 179.489532 100.30165 
L 181.410565 120.336147 
L 183.331598 123.905696 
L 191.015729 152.251799 
L 192.936762 162.884856 
L 194.857795 175.340346 
L 196.778827 197.792878 
L 202.541926 181.73174 
L 204.462959 204.224945 
L 206.383991 212.713233 
L 208.305024 226.349057 
L 210.226057 198.793762 
L 215.989155 166.592689 
L 217.910188 155.109039 
L 219.831221 155.924168 
L 221.752254 179.069872 
L 223.673287 171.43175 
L 229.436385 171.133546 
L 231.357418 158.468241 
L 233.278451 136.517273 
L 235.199484 153.906816 
L 237.120516 174.346985 
L 242.883615 179.023436 
L 244.804648 156.979175 
L 246.72568 157.269853 
L 248.646713 185.518936 
L 250.567746 195.089649 
L 258.251877 208.871177 
L 260.17291 229.881335 
L 262.093943 203.447147 
L 264.014976 180.47925 
L 269.778074 180.666246 
L 271.699107 195.68998 
L 273.62014 177.561893 
L 275.541173 189.115347 
L 277.462205 201.526112 
L 283.225304 236.233829 
L 285.146337 239.207372 
L 287.06737 208.685557 
L 288.988402 214.575231 
L 290.909435 231.654901 
L 296.672534 245.011886 
L 298.593566 224.105096 
L 300.514599 193.434078 
L 302.435632 175.868516 
L 304.356665 160.560911 
L 310.119763 165.462853 
L 312.040796 151.882107 
L 313.961829 166.662793 
L 315.882862 152.779481 
L 317.803895 150.980088 
L 323.566993 145.044756 
L 325.488026 119.888631 
L 327.409059 133.805186 
L 329.330091 148.804287 
L 331.251124 141.305076 
L 337.014223 134.44996 
L 338.935256 153.193401 
L 340.856288 164.445994 
L 342.777321 162.8774 
L 344.698354 166.321849 
L 350.461452 177.175685 
L 352.382485 179.982231 
L 354.303518 162.572785 
L 356.224551 175.732003 
L 363.908682 181.291367 
L 365.829715 157.968104 
L 367.750748 161.107601 
L 369.671781 185.566208 
L 371.592813 213.293676 
L 377.355912 202.312006 
L 379.276945 236.7436 
L 381.197977 236.44804 
L 383.11901 212.414488 
L 385.040043 248.45299 
L 390.803141 237.415638 
L 392.724174 236.473387 
L 394.645207 207.700614 
L 396.56624 250.17673 
L 398.487273 265.797818 
" style="fill:none;stroke:#a5b9cf;stroke-linecap:square;stroke-width:2;"/>
   </g>
   <g id="patch_3">
    <path d="M 57.6 276.48 
L 57.6 41.472 
" style="fill:none;stroke:#000000;stroke-linecap:square;stroke-linejoin:miter;stroke-width:0.8;"/>
   </g>
   <g id="patch_4">
    <path d="M 414.72 276.48 
L 414.72 41.472 
" style="fill:none;stroke:#000000;stroke-linecap:square;stroke-linejoin:miter;stroke-width:0.8;"/>
   </g>
   <g id="patch_5">
    <path d="M 57.6 276.48 
L 414.72 276.48 
" style="fill:none;stroke:#000000;stroke-linecap:square;stroke-linejoin:miter;stroke-width:0.8;"/>
   </g>
   <g id="patch_6">
    <path d="M 57.6 41.472 
L 414.72 41.472 
" style="fill:none;stroke:#000000;stroke-linecap:square;stroke-linejoin:miter;stroke-width:0.8;"/>
   </g>
   <g id="text_17">
    <!-- SCHMOO -->
    <g transform="translate(209.025937 22.034625)scale(0.12 -0.12)">
     <defs>
      <path d="M 3425 4513 
L 3425 3897 
Q 3066 4069 2747 4153 
Q 2428 4238 2131 4238 
Q 1616 4238 1336 4038 
Q 1056 3838 1056 3469 
Q 1056 3159 1242 3001 
Q 1428 2844 1947 2747 
L 2328 2669 
Q 3034 2534 3370 2195 
Q 3706 1856 3706 1288 
Q 3706 609 3251 259 
Q 2797 -91 1919 -91 
Q 1588 -91 1214 -16 
Q 841 59 441 206 
L 441 856 
Q 825 641 1194 531 
Q 1563 422 1919 422 
Q 2459 422 2753 634 
Q 3047 847 3047 1241 
Q 3047 1584 2836 1778 
Q 2625 1972 2144 2069 
L 1759 2144 
Q 1053 2284 737 2584 
Q 422 2884 422 3419 
Q 422 4038 858 4394 
Q 1294 4750 2059 4750 
Q 2388 4750 2728 4690 
Q 3069 4631 3425 4513 
z
" id="DejaVuSans-53" transform="scale(0.015625)"/>
      <path d="M 4122 4306 
L 4122 3641 
Q 3803 3938 3442 4084 
Q 3081 4231 2675 4231 
Q 1875 4231 1450 3742 
Q 1025 3253 1025 2328 
Q 1025 1406 1450 917 
Q 1875 428 2675 428 
Q 3081 428 3442 575 
Q 3803 722 4122 1019 
L 4122 359 
Q 3791 134 3420 21 
Q 3050 -91 2638 -91 
Q 1578 -91 968 557 
Q 359 1206 359 2328 
Q 359 3453 968 4101 
Q 1578 4750 2638 4750 
Q 3056 4750 3426 4639 
Q 3797 4528 4122 4306 
z
" id="DejaVuSans-43" transform="scale(0.015625)"/>
      <path d="M 628 4666 
L 1259 4666 
L 1259 2753 
L 3553 2753 
L 3553 4666 
L 4184 4666 
L 4184 0 
L 3553 0 
L 3553 2222 
L 1259 2222 
L 1259 0 
L 628 0 
L 628 4666 
z
" id="DejaVuSans-48" transform="scale(0.015625)"/>
      <path d="M 628 4666 
L 1569 4666 
L 2759 1491 
L 3956 4666 
L 4897 4666 
L 4897 0 
L 4281 0 
L 4281 4097 
L 3078 897 
L 2444 897 
L 1241 4097 
L 1241 0 
L 628 0 
L 628 4666 
z
" id="DejaVuSans-4d" transform="scale(0.015625)"/>
      <path d="M 2522 4238 
Q 1834 4238 1429 3725 
Q 1025 3213 1025 2328 
Q 1025 1447 1429 934 
Q 1834 422 2522 422 
Q 3209 422 3611 934 
Q 4013 1447 4013 2328 
Q 4013 3213 3611 3725 
Q 3209 4238 2522 4238 
z
M 2522 4750 
Q 3503 4750 4090 4092 
Q 4678 3434 4678 2328 
Q 4678 1225 4090 567 
Q 3503 -91 2522 -91 
Q 1538 -91 948 565 
Q 359 1222 359 2328 
Q 359 3434 948 4092 
Q 1538 4750 2522 4750 
z
" id="DejaVuSans-4f" transform="scale(0.015625)"/>
     </defs>
     <use xlink:href="#DejaVuSans-53"/>
     <use x="63.476562" xlink:href="#DejaVuSans-43"/>
     <use x="133.300781" xlink:href="#DejaVuSans-48"/>
     <use x="208.496094" xlink:href="#DejaVuSans-4d"/>
     <use x="294.775391" xlink:href="#DejaVuSans-4f"/>
     <use x="373.486328" xlink:href="#DejaVuSans-4f"/>
    </g>
    <!-- daily_report -->
    <g transform="translate(200.466563 35.472)scale(0.12 -0.12)">
     <defs>
      <path d="M 603 3500 
L 1178 3500 
L 1178 0 
L 603 0 
L 603 3500 
z
M 603 4863 
L 1178 4863 
L 1178 4134 
L 603 4134 
L 603 4863 
z
" id="DejaVuSans-69" transform="scale(0.015625)"/>
      <path d="M 603 4863 
L 1178 4863 
L 1178 0 
L 603 0 
L 603 4863 
z
" id="DejaVuSans-6c" transform="scale(0.015625)"/>
      <path d="M 2059 -325 
Q 1816 -950 1584 -1140 
Q 1353 -1331 966 -1331 
L 506 -1331 
L 506 -850 
L 844 -850 
Q 1081 -850 1212 -737 
Q 1344 -625 1503 -206 
L 1606 56 
L 191 3500 
L 800 3500 
L 1894 763 
L 2988 3500 
L 3597 3500 
L 2059 -325 
z
" id="DejaVuSans-79" transform="scale(0.015625)"/>
      <path d="M 3263 -1063 
L 3263 -1509 
L -63 -1509 
L -63 -1063 
L 3263 -1063 
z
" id="DejaVuSans-5f" transform="scale(0.015625)"/>
      <path d="M 2631 2963 
Q 2534 3019 2420 3045 
Q 2306 3072 2169 3072 
Q 1681 3072 1420 2755 
Q 1159 2438 1159 1844 
L 1159 0 
L 581 0 
L 581 3500 
L 1159 3500 
L 1159 2956 
Q 1341 3275 1631 3429 
Q 1922 3584 2338 3584 
Q 2397 3584 2469 3576 
Q 2541 3569 2628 3553 
L 2631 2963 
z
" id="DejaVuSans-72" transform="scale(0.015625)"/>
      <path d="M 1159 525 
L 1159 -1331 
L 581 -1331 
L 581 3500 
L 1159 3500 
L 1159 2969 
Q 1341 3281 1617 3432 
Q 1894 3584 2278 3584 
Q 2916 3584 3314 3078 
Q 3713 2572 3713 1747 
Q 3713 922 3314 415 
Q 2916 -91 2278 -91 
Q 1894 -91 1617 61 
Q 1341 213 1159 525 
z
M 3116 1747 
Q 3116 2381 2855 2742 
Q 2594 3103 2138 3103 
Q 1681 3103 1420 2742 
Q 1159 2381 1159 1747 
Q 1159 1113 1420 752 
Q 1681 391 2138 391 
Q 2594 391 2855 752 
Q 3116 1113 3116 1747 
z
" id="DejaVuSans-70" transform="scale(0.015625)"/>
      <path d="M 1959 3097 
Q 1497 3097 1228 2736 
Q 959 2375 959 1747 
Q 959 1119 1226 758 
Q 1494 397 1959 397 
Q 2419 397 2687 759 
Q 2956 1122 2956 1747 
Q 2956 2369 2687 2733 
Q 2419 3097 1959 3097 
z
M 1959 3584 
Q 2709 3584 3137 3096 
Q 3566 2609 3566 1747 
Q 3566 888 3137 398 
Q 2709 -91 1959 -91 
Q 1206 -91 779 398 
Q 353 888 353 1747 
Q 353 2609 779 3096 
Q 1206 3584 1959 3584 
z
" id="DejaVuSans-6f" transform="scale(0.015625)"/>
     </defs>
     <use xlink:href="#DejaVuSans-64"/>
     <use x="63.476562" xlink:href="#DejaVuSans-61"/>
     <use x="124.755859" xlink:href="#DejaVuSans-69"/>
     <use x="152.539062" xlink:href="#DejaVuSans-6c"/>
     <use x="180.322266" xlink:href="#DejaVuSans-79"/>
     <use x="239.501953" xlink:href="#DejaVuSans-5f"/>
     <use x="289.501953" xlink:href="#DejaVuSans-72"/>
     <use x="328.365234" xlink:href="#DejaVuSans-65"/>
     <use x="389.888672" xlink:href="#DejaVuSans-70"/>
     <use x="453.365234" xlink:href="#DejaVuSans-6f"/>
     <use x="514.546875" xlink:href="#DejaVuSans-72"/>
     <use x="555.660156" xlink:href="#DejaVuSans-74"/>
    </g>
   </g>
   <g id="legend_1">
    <g id="patch_7">
     <path d="M 64.6 271.48 
L 178.64375 271.48 
Q 180.64375 271.48 180.64375 269.48 
L 180.64375 182.41125 
Q 180.64375 180.41125 178.64375 180.41125 
L 64.6 180.41125 
Q 62.6 180.41125 62.6 182.41125 
L 62.6 269.48 
Q 62.6 271.48 64.6 271.48 
z
" style="fill:#ffffff;opacity:0.8;stroke:#cccccc;stroke-linejoin:miter;"/>
    </g>
    <g id="line2d_22">
     <path d="M 66.6 188.509687 
L 86.6 188.509687 
" style="fill:none;stroke:#0000ff;stroke-linecap:square;stroke-opacity:0.9;stroke-width:2;"/>
    </g>
    <g id="line2d_23"/>
    <g id="text_18">
     <!-- alpaca -->
     <g transform="translate(94.6 192.009687)scale(0.1 -0.1)">
      <defs>
       <path d="M 3122 3366 
L 3122 2828 
Q 2878 2963 2633 3030 
Q 2388 3097 2138 3097 
Q 1578 3097 1268 2742 
Q 959 2388 959 1747 
Q 959 1106 1268 751 
Q 1578 397 2138 397 
Q 2388 397 2633 464 
Q 2878 531 3122 666 
L 3122 134 
Q 2881 22 2623 -34 
Q 2366 -91 2075 -91 
Q 1284 -91 818 406 
Q 353 903 353 1747 
Q 353 2603 823 3093 
Q 1294 3584 2113 3584 
Q 2378 3584 2631 3529 
Q 2884 3475 3122 3366 
z
" id="DejaVuSans-63" transform="scale(0.015625)"/>
      </defs>
      <use xlink:href="#DejaVuSans-61"/>
      <use x="61.279297" xlink:href="#DejaVuSans-6c"/>
      <use x="89.0625" xlink:href="#DejaVuSans-70"/>
      <use x="152.539062" xlink:href="#DejaVuSans-61"/>
      <use x="213.818359" xlink:href="#DejaVuSans-63"/>
      <use x="268.798828" xlink:href="#DejaVuSans-61"/>
     </g>
    </g>
    <g id="line2d_24">
     <path d="M 66.6 203.187812 
L 86.6 203.187812 
" style="fill:none;stroke:#ff0000;stroke-linecap:square;stroke-opacity:0.9;stroke-width:2;"/>
    </g>
    <g id="line2d_25"/>
    <g id="text_19">
     <!-- mattress -->
     <g transform="translate(94.6 206.687812)scale(0.1 -0.1)">
      <defs>
       <path d="M 3328 2828 
Q 3544 3216 3844 3400 
Q 4144 3584 4550 3584 
Q 5097 3584 5394 3201 
Q 5691 2819 5691 2113 
L 5691 0 
L 5113 0 
L 5113 2094 
Q 5113 2597 4934 2840 
Q 4756 3084 4391 3084 
Q 3944 3084 3684 2787 
Q 3425 2491 3425 1978 
L 3425 0 
L 2847 0 
L 2847 2094 
Q 2847 2600 2669 2842 
Q 2491 3084 2119 3084 
Q 1678 3084 1418 2786 
Q 1159 2488 1159 1978 
L 1159 0 
L 581 0 
L 581 3500 
L 1159 3500 
L 1159 2956 
Q 1356 3278 1631 3431 
Q 1906 3584 2284 3584 
Q 2666 3584 2933 3390 
Q 3200 3197 3328 2828 
z
" id="DejaVuSans-6d" transform="scale(0.015625)"/>
       <path d="M 2834 3397 
L 2834 2853 
Q 2591 2978 2328 3040 
Q 2066 3103 1784 3103 
Q 1356 3103 1142 2972 
Q 928 2841 928 2578 
Q 928 2378 1081 2264 
Q 1234 2150 1697 2047 
L 1894 2003 
Q 2506 1872 2764 1633 
Q 3022 1394 3022 966 
Q 3022 478 2636 193 
Q 2250 -91 1575 -91 
Q 1294 -91 989 -36 
Q 684 19 347 128 
L 347 722 
Q 666 556 975 473 
Q 1284 391 1588 391 
Q 1994 391 2212 530 
Q 2431 669 2431 922 
Q 2431 1156 2273 1281 
Q 2116 1406 1581 1522 
L 1381 1569 
Q 847 1681 609 1914 
Q 372 2147 372 2553 
Q 372 3047 722 3315 
Q 1072 3584 1716 3584 
Q 2034 3584 2315 3537 
Q 2597 3491 2834 3397 
z
" id="DejaVuSans-73" transform="scale(0.015625)"/>
      </defs>
      <use xlink:href="#DejaVuSans-6d"/>
      <use x="97.412109" xlink:href="#DejaVuSans-61"/>
      <use x="158.691406" xlink:href="#DejaVuSans-74"/>
      <use x="197.900391" xlink:href="#DejaVuSans-74"/>
      <use x="237.109375" xlink:href="#DejaVuSans-72"/>
      <use x="275.972656" xlink:href="#DejaVuSans-65"/>
      <use x="337.496094" xlink:href="#DejaVuSans-73"/>
      <use x="389.595703" xlink:href="#DejaVuSans-73"/>
     </g>
    </g>
    <g id="line2d_26">
     <path d="M 66.6 217.865937 
L 86.6 217.865937 
" style="fill:none;stroke:#008000;stroke-linecap:square;stroke-opacity:0.9;stroke-width:2;"/>
    </g>
    <g id="line2d_27"/>
    <g id="text_20">
     <!-- daily-open-rebal -->
     <g transform="translate(94.6 221.365937)scale(0.1 -0.1)">
      <defs>
       <path d="M 3513 2113 
L 3513 0 
L 2938 0 
L 2938 2094 
Q 2938 2591 2744 2837 
Q 2550 3084 2163 3084 
Q 1697 3084 1428 2787 
Q 1159 2491 1159 1978 
L 1159 0 
L 581 0 
L 581 3500 
L 1159 3500 
L 1159 2956 
Q 1366 3272 1645 3428 
Q 1925 3584 2291 3584 
Q 2894 3584 3203 3211 
Q 3513 2838 3513 2113 
z
" id="DejaVuSans-6e" transform="scale(0.015625)"/>
       <path d="M 3116 1747 
Q 3116 2381 2855 2742 
Q 2594 3103 2138 3103 
Q 1681 3103 1420 2742 
Q 1159 2381 1159 1747 
Q 1159 1113 1420 752 
Q 1681 391 2138 391 
Q 2594 391 2855 752 
Q 3116 1113 3116 1747 
z
M 1159 2969 
Q 1341 3281 1617 3432 
Q 1894 3584 2278 3584 
Q 2916 3584 3314 3078 
Q 3713 2572 3713 1747 
Q 3713 922 3314 415 
Q 2916 -91 2278 -91 
Q 1894 -91 1617 61 
Q 1341 213 1159 525 
L 1159 0 
L 581 0 
L 581 4863 
L 1159 4863 
L 1159 2969 
z
" id="DejaVuSans-62" transform="scale(0.015625)"/>
      </defs>
      <use xlink:href="#DejaVuSans-64"/>
      <use x="63.476562" xlink:href="#DejaVuSans-61"/>
      <use x="124.755859" xlink:href="#DejaVuSans-69"/>
      <use x="152.539062" xlink:href="#DejaVuSans-6c"/>
      <use x="180.322266" xlink:href="#DejaVuSans-79"/>
      <use x="237.751953" xlink:href="#DejaVuSans-2d"/>
      <use x="275.710938" xlink:href="#DejaVuSans-6f"/>
      <use x="336.892578" xlink:href="#DejaVuSans-70"/>
      <use x="400.369141" xlink:href="#DejaVuSans-65"/>
      <use x="461.892578" xlink:href="#DejaVuSans-6e"/>
      <use x="525.271484" xlink:href="#DejaVuSans-2d"/>
      <use x="561.355469" xlink:href="#DejaVuSans-72"/>
      <use x="600.21875" xlink:href="#DejaVuSans-65"/>
      <use x="661.742188" xlink:href="#DejaVuSans-62"/>
      <use x="725.21875" xlink:href="#DejaVuSans-61"/>
      <use x="786.498047" xlink:href="#DejaVuSans-6c"/>
     </g>
    </g>
    <g id="line2d_28">
     <path d="M 66.6 232.544062 
L 86.6 232.544062 
" style="fill:none;stroke:#ec5283;stroke-linecap:square;stroke-width:2;"/>
    </g>
    <g id="line2d_29"/>
    <g id="text_21">
     <!-- daily-close-rebal -->
     <g transform="translate(94.6 236.044062)scale(0.1 -0.1)">
      <use xlink:href="#DejaVuSans-64"/>
      <use x="63.476562" xlink:href="#DejaVuSans-61"/>
      <use x="124.755859" xlink:href="#DejaVuSans-69"/>
      <use x="152.539062" xlink:href="#DejaVuSans-6c"/>
      <use x="180.322266" xlink:href="#DejaVuSans-79"/>
      <use x="237.751953" xlink:href="#DejaVuSans-2d"/>
      <use x="273.835938" xlink:href="#DejaVuSans-63"/>
      <use x="328.816406" xlink:href="#DejaVuSans-6c"/>
      <use x="356.599609" xlink:href="#DejaVuSans-6f"/>
      <use x="417.78125" xlink:href="#DejaVuSans-73"/>
      <use x="469.880859" xlink:href="#DejaVuSans-65"/>
      <use x="531.404297" xlink:href="#DejaVuSans-2d"/>
      <use x="567.488281" xlink:href="#DejaVuSans-72"/>
      <use x="606.351562" xlink:href="#DejaVuSans-65"/>
      <use x="667.875" xlink:href="#DejaVuSans-62"/>
      <use x="731.351562" xlink:href="#DejaVuSans-61"/>
      <use x="792.630859" xlink:href="#DejaVuSans-6c"/>
     </g>
    </g>
    <g id="line2d_30">
     <path d="M 66.6 247.222187 
L 86.6 247.222187 
" style="fill:none;stroke:#00ff00;stroke-linecap:square;stroke-opacity:0.9;stroke-width:2;"/>
    </g>
    <g id="line2d_31"/>
    <g id="text_22">
     <!-- trader-baseline -->
     <g transform="translate(94.6 250.722187)scale(0.1 -0.1)">
      <use xlink:href="#DejaVuSans-74"/>
      <use x="39.208984" xlink:href="#DejaVuSans-72"/>
      <use x="80.322266" xlink:href="#DejaVuSans-61"/>
      <use x="141.601562" xlink:href="#DejaVuSans-64"/>
      <use x="205.078125" xlink:href="#DejaVuSans-65"/>
      <use x="266.601562" xlink:href="#DejaVuSans-72"/>
      <use x="301.339844" xlink:href="#DejaVuSans-2d"/>
      <use x="337.423828" xlink:href="#DejaVuSans-62"/>
      <use x="400.900391" xlink:href="#DejaVuSans-61"/>
      <use x="462.179688" xlink:href="#DejaVuSans-73"/>
      <use x="514.279297" xlink:href="#DejaVuSans-65"/>
      <use x="575.802734" xlink:href="#DejaVuSans-6c"/>
      <use x="603.585938" xlink:href="#DejaVuSans-69"/>
      <use x="631.369141" xlink:href="#DejaVuSans-6e"/>
      <use x="694.748047" xlink:href="#DejaVuSans-65"/>
     </g>
    </g>
    <g id="line2d_32">
     <path d="M 66.6 261.900312 
L 86.6 261.900312 
" style="fill:none;stroke:#a5b9cf;stroke-linecap:square;stroke-width:2;"/>
    </g>
    <g id="line2d_33"/>
    <g id="text_23">
     <!-- default-cfg -->
     <g transform="translate(94.6 265.400312)scale(0.1 -0.1)">
      <defs>
       <path d="M 2375 4863 
L 2375 4384 
L 1825 4384 
Q 1516 4384 1395 4259 
Q 1275 4134 1275 3809 
L 1275 3500 
L 2222 3500 
L 2222 3053 
L 1275 3053 
L 1275 0 
L 697 0 
L 697 3053 
L 147 3053 
L 147 3500 
L 697 3500 
L 697 3744 
Q 697 4328 969 4595 
Q 1241 4863 1831 4863 
L 2375 4863 
z
" id="DejaVuSans-66" transform="scale(0.015625)"/>
       <path d="M 544 1381 
L 544 3500 
L 1119 3500 
L 1119 1403 
Q 1119 906 1312 657 
Q 1506 409 1894 409 
Q 2359 409 2629 706 
Q 2900 1003 2900 1516 
L 2900 3500 
L 3475 3500 
L 3475 0 
L 2900 0 
L 2900 538 
Q 2691 219 2414 64 
Q 2138 -91 1772 -91 
Q 1169 -91 856 284 
Q 544 659 544 1381 
z
M 1991 3584 
L 1991 3584 
z
" id="DejaVuSans-75" transform="scale(0.015625)"/>
       <path d="M 2906 1791 
Q 2906 2416 2648 2759 
Q 2391 3103 1925 3103 
Q 1463 3103 1205 2759 
Q 947 2416 947 1791 
Q 947 1169 1205 825 
Q 1463 481 1925 481 
Q 2391 481 2648 825 
Q 2906 1169 2906 1791 
z
M 3481 434 
Q 3481 -459 3084 -895 
Q 2688 -1331 1869 -1331 
Q 1566 -1331 1297 -1286 
Q 1028 -1241 775 -1147 
L 775 -588 
Q 1028 -725 1275 -790 
Q 1522 -856 1778 -856 
Q 2344 -856 2625 -561 
Q 2906 -266 2906 331 
L 2906 616 
Q 2728 306 2450 153 
Q 2172 0 1784 0 
Q 1141 0 747 490 
Q 353 981 353 1791 
Q 353 2603 747 3093 
Q 1141 3584 1784 3584 
Q 2172 3584 2450 3431 
Q 2728 3278 2906 2969 
L 2906 3500 
L 3481 3500 
L 3481 434 
z
" id="DejaVuSans-67" transform="scale(0.015625)"/>
      </defs>
      <use xlink:href="#DejaVuSans-64"/>
      <use x="63.476562" xlink:href="#DejaVuSans-65"/>
      <use x="125" xlink:href="#DejaVuSans-66"/>
      <use x="160.205078" xlink:href="#DejaVuSans-61"/>
      <use x="221.484375" xlink:href="#DejaVuSans-75"/>
      <use x="284.863281" xlink:href="#DejaVuSans-6c"/>
      <use x="312.646484" xlink:href="#DejaVuSans-74"/>
      <use x="351.855469" xlink:href="#DejaVuSans-2d"/>
      <use x="387.939453" xlink:href="#DejaVuSans-63"/>
      <use x="442.919922" xlink:href="#DejaVuSans-66"/>
      <use x="478.125" xlink:href="#DejaVuSans-67"/>
     </g>
    </g>
   </g>
  </g>
 </g>
 <defs>
  <clipPath id="pcdf4361491">
   <rect height="235.008" width="357.12" x="57.6" y="41.472"/>
  </clipPath>
 </defs>
</svg>
