<?xml version="1.0" encoding="utf-8" standalone="no"?>
<!DOCTYPE svg PUBLIC "-//W3C//DTD SVG 1.1//EN"
  "http://www.w3.org/Graphics/SVG/1.1/DTD/svg11.dtd">
<svg height="345.6pt" version="1.1" viewBox="0 0 460.8 345.6" width="460.8pt" xmlns="http://www.w3.org/2000/svg" xmlns:xlink="http://www.w3.org/1999/xlink">
 <metadata>
  <rdf:RDF xmlns:cc="http://creativecommons.org/ns#" xmlns:dc="http://purl.org/dc/elements/1.1/" xmlns:rdf="http://www.w3.org/1999/02/22-rdf-syntax-ns#">
   <cc:Work>
    <dc:type rdf:resource="http://purl.org/dc/dcmitype/StillImage"/>
    <dc:date>2022-05-08T10:01:34.729566</dc:date>
    <dc:format>image/svg+xml</dc:format>
    <dc:creator>
     <cc:Agent>
      <dc:title>Matplotlib v3.4.3, https://matplotlib.org/</dc:title>
     </cc:Agent>
    </dc:creator>
   </cc:Work>
  </rdf:RDF>
 </metadata>
 <defs>
  <style type="text/css">*{stroke-linecap:butt;stroke-linejoin:round;}</style>
 </defs>
 <g id="figure_1">
  <g id="patch_1">
   <path d="M 0 345.6 
L 460.8 345.6 
L 460.8 0 
L 0 0 
z
" style="fill:#ffffff;"/>
  </g>
  <g id="axes_1">
   <g id="patch_2">
    <path d="M 57.6 276.48 
L 414.72 276.48 
L 414.72 41.472 
L 57.6 41.472 
z
" style="fill:#ffffff;"/>
   </g>
   <g id="matplotlib.axis_1">
    <g id="xtick_1">
     <g id="line2d_1">
      <defs>
       <path d="M 0 0 
L 0 3.5 
" id="mcc5aa2cb1e" style="stroke:#000000;stroke-width:0.8;"/>
      </defs>
      <g>
       <use style="stroke:#000000;stroke-width:0.8;" x="98.806154" xlink:href="#mcc5aa2cb1e" y="276.48"/>
      </g>
     </g>
     <g id="text_1">
      <!-- 2021-12 -->
      <g transform="translate(61.581333 310.951846)rotate(-30)scale(0.1 -0.1)">
       <defs>
        <path d="M 1228 531 
L 3431 531 
L 3431 0 
L 469 0 
L 469 531 
Q 828 903 1448 1529 
Q 2069 2156 2228 2338 
Q 2531 2678 2651 2914 
Q 2772 3150 2772 3378 
Q 2772 3750 2511 3984 
Q 2250 4219 1831 4219 
Q 1534 4219 1204 4116 
Q 875 4013 500 3803 
L 500 4441 
Q 881 4594 1212 4672 
Q 1544 4750 1819 4750 
Q 2544 4750 2975 4387 
Q 3406 4025 3406 3419 
Q 3406 3131 3298 2873 
Q 3191 2616 2906 2266 
Q 2828 2175 2409 1742 
Q 1991 1309 1228 531 
z
" id="DejaVuSans-32" transform="scale(0.015625)"/>
        <path d="M 2034 4250 
Q 1547 4250 1301 3770 
Q 1056 3291 1056 2328 
Q 1056 1369 1301 889 
Q 1547 409 2034 409 
Q 2525 409 2770 889 
Q 3016 1369 3016 2328 
Q 3016 3291 2770 3770 
Q 2525 4250 2034 4250 
z
M 2034 4750 
Q 2819 4750 3233 4129 
Q 3647 3509 3647 2328 
Q 3647 1150 3233 529 
Q 2819 -91 2034 -91 
Q 1250 -91 836 529 
Q 422 1150 422 2328 
Q 422 3509 836 4129 
Q 1250 4750 2034 4750 
z
" id="DejaVuSans-30" transform="scale(0.015625)"/>
        <path d="M 794 531 
L 1825 531 
L 1825 4091 
L 703 3866 
L 703 4441 
L 1819 4666 
L 2450 4666 
L 2450 531 
L 3481 531 
L 3481 0 
L 794 0 
L 794 531 
z
" id="DejaVuSans-31" transform="scale(0.015625)"/>
        <path d="M 313 2009 
L 1997 2009 
L 1997 1497 
L 313 1497 
L 313 2009 
z
" id="DejaVuSans-2d" transform="scale(0.015625)"/>
       </defs>
       <use xlink:href="#DejaVuSans-32"/>
       <use x="63.623047" xlink:href="#DejaVuSans-30"/>
       <use x="127.246094" xlink:href="#DejaVuSans-32"/>
       <use x="190.869141" xlink:href="#DejaVuSans-31"/>
       <use x="254.492188" xlink:href="#DejaVuSans-2d"/>
       <use x="290.576172" xlink:href="#DejaVuSans-31"/>
       <use x="354.199219" xlink:href="#DejaVuSans-32"/>
      </g>
     </g>
    </g>
    <g id="xtick_2">
     <g id="line2d_2">
      <g>
       <use style="stroke:#000000;stroke-width:0.8;" x="158.358171" xlink:href="#mcc5aa2cb1e" y="276.48"/>
      </g>
     </g>
     <g id="text_2">
      <!-- 2022-01 -->
      <g transform="translate(121.13335 310.951846)rotate(-30)scale(0.1 -0.1)">
       <use xlink:href="#DejaVuSans-32"/>
       <use x="63.623047" xlink:href="#DejaVuSans-30"/>
       <use x="127.246094" xlink:href="#DejaVuSans-32"/>
       <use x="190.869141" xlink:href="#DejaVuSans-32"/>
       <use x="254.492188" xlink:href="#DejaVuSans-2d"/>
       <use x="290.576172" xlink:href="#DejaVuSans-30"/>
       <use x="354.199219" xlink:href="#DejaVuSans-31"/>
      </g>
     </g>
    </g>
    <g id="xtick_3">
     <g id="line2d_3">
      <g>
       <use style="stroke:#000000;stroke-width:0.8;" x="217.910188" xlink:href="#mcc5aa2cb1e" y="276.48"/>
      </g>
     </g>
     <g id="text_3">
      <!-- 2022-02 -->
      <g transform="translate(180.685367 310.951846)rotate(-30)scale(0.1 -0.1)">
       <use xlink:href="#DejaVuSans-32"/>
       <use x="63.623047" xlink:href="#DejaVuSans-30"/>
       <use x="127.246094" xlink:href="#DejaVuSans-32"/>
       <use x="190.869141" xlink:href="#DejaVuSans-32"/>
       <use x="254.492188" xlink:href="#DejaVuSans-2d"/>
       <use x="290.576172" xlink:href="#DejaVuSans-30"/>
       <use x="354.199219" xlink:href="#DejaVuSans-32"/>
      </g>
     </g>
    </g>
    <g id="xtick_4">
     <g id="line2d_4">
      <g>
       <use style="stroke:#000000;stroke-width:0.8;" x="271.699107" xlink:href="#mcc5aa2cb1e" y="276.48"/>
      </g>
     </g>
     <g id="text_4">
      <!-- 2022-03 -->
      <g transform="translate(234.474286 310.951846)rotate(-30)scale(0.1 -0.1)">
       <defs>
        <path d="M 2597 2516 
Q 3050 2419 3304 2112 
Q 3559 1806 3559 1356 
Q 3559 666 3084 287 
Q 2609 -91 1734 -91 
Q 1441 -91 1130 -33 
Q 819 25 488 141 
L 488 750 
Q 750 597 1062 519 
Q 1375 441 1716 441 
Q 2309 441 2620 675 
Q 2931 909 2931 1356 
Q 2931 1769 2642 2001 
Q 2353 2234 1838 2234 
L 1294 2234 
L 1294 2753 
L 1863 2753 
Q 2328 2753 2575 2939 
Q 2822 3125 2822 3475 
Q 2822 3834 2567 4026 
Q 2313 4219 1838 4219 
Q 1578 4219 1281 4162 
Q 984 4106 628 3988 
L 628 4550 
Q 988 4650 1302 4700 
Q 1616 4750 1894 4750 
Q 2613 4750 3031 4423 
Q 3450 4097 3450 3541 
Q 3450 3153 3228 2886 
Q 3006 2619 2597 2516 
z
" id="DejaVuSans-33" transform="scale(0.015625)"/>
       </defs>
       <use xlink:href="#DejaVuSans-32"/>
       <use x="63.623047" xlink:href="#DejaVuSans-30"/>
       <use x="127.246094" xlink:href="#DejaVuSans-32"/>
       <use x="190.869141" xlink:href="#DejaVuSans-32"/>
       <use x="254.492188" xlink:href="#DejaVuSans-2d"/>
       <use x="290.576172" xlink:href="#DejaVuSans-30"/>
       <use x="354.199219" xlink:href="#DejaVuSans-33"/>
      </g>
     </g>
    </g>
    <g id="xtick_5">
     <g id="line2d_5">
      <g>
       <use style="stroke:#000000;stroke-width:0.8;" x="331.251124" xlink:href="#mcc5aa2cb1e" y="276.48"/>
      </g>
     </g>
     <g id="text_5">
      <!-- 2022-04 -->
      <g transform="translate(294.026303 310.951846)rotate(-30)scale(0.1 -0.1)">
       <defs>
        <path d="M 2419 4116 
L 825 1625 
L 2419 1625 
L 2419 4116 
z
M 2253 4666 
L 3047 4666 
L 3047 1625 
L 3713 1625 
L 3713 1100 
L 3047 1100 
L 3047 0 
L 2419 0 
L 2419 1100 
L 313 1100 
L 313 1709 
L 2253 4666 
z
" id="DejaVuSans-34" transform="scale(0.015625)"/>
       </defs>
       <use xlink:href="#DejaVuSans-32"/>
       <use x="63.623047" xlink:href="#DejaVuSans-30"/>
       <use x="127.246094" xlink:href="#DejaVuSans-32"/>
       <use x="190.869141" xlink:href="#DejaVuSans-32"/>
       <use x="254.492188" xlink:href="#DejaVuSans-2d"/>
       <use x="290.576172" xlink:href="#DejaVuSans-30"/>
       <use x="354.199219" xlink:href="#DejaVuSans-34"/>
      </g>
     </g>
    </g>
    <g id="xtick_6">
     <g id="line2d_6">
      <g>
       <use style="stroke:#000000;stroke-width:0.8;" x="388.882109" xlink:href="#mcc5aa2cb1e" y="276.48"/>
      </g>
     </g>
     <g id="text_6">
      <!-- 2022-05 -->
      <g transform="translate(351.657288 310.951846)rotate(-30)scale(0.1 -0.1)">
       <defs>
        <path d="M 691 4666 
L 3169 4666 
L 3169 4134 
L 1269 4134 
L 1269 2991 
Q 1406 3038 1543 3061 
Q 1681 3084 1819 3084 
Q 2600 3084 3056 2656 
Q 3513 2228 3513 1497 
Q 3513 744 3044 326 
Q 2575 -91 1722 -91 
Q 1428 -91 1123 -41 
Q 819 9 494 109 
L 494 744 
Q 775 591 1075 516 
Q 1375 441 1709 441 
Q 2250 441 2565 725 
Q 2881 1009 2881 1497 
Q 2881 1984 2565 2268 
Q 2250 2553 1709 2553 
Q 1456 2553 1204 2497 
Q 953 2441 691 2322 
L 691 4666 
z
" id="DejaVuSans-35" transform="scale(0.015625)"/>
       </defs>
       <use xlink:href="#DejaVuSans-32"/>
       <use x="63.623047" xlink:href="#DejaVuSans-30"/>
       <use x="127.246094" xlink:href="#DejaVuSans-32"/>
       <use x="190.869141" xlink:href="#DejaVuSans-32"/>
       <use x="254.492188" xlink:href="#DejaVuSans-2d"/>
       <use x="290.576172" xlink:href="#DejaVuSans-30"/>
       <use x="354.199219" xlink:href="#DejaVuSans-35"/>
      </g>
     </g>
    </g>
    <g id="text_7">
     <!-- date -->
     <g transform="translate(224.885 324.351346)scale(0.1 -0.1)">
      <defs>
       <path d="M 2906 2969 
L 2906 4863 
L 3481 4863 
L 3481 0 
L 2906 0 
L 2906 525 
Q 2725 213 2448 61 
Q 2172 -91 1784 -91 
Q 1150 -91 751 415 
Q 353 922 353 1747 
Q 353 2572 751 3078 
Q 1150 3584 1784 3584 
Q 2172 3584 2448 3432 
Q 2725 3281 2906 2969 
z
M 947 1747 
Q 947 1113 1208 752 
Q 1469 391 1925 391 
Q 2381 391 2643 752 
Q 2906 1113 2906 1747 
Q 2906 2381 2643 2742 
Q 2381 3103 1925 3103 
Q 1469 3103 1208 2742 
Q 947 2381 947 1747 
z
" id="DejaVuSans-64" transform="scale(0.015625)"/>
       <path d="M 2194 1759 
Q 1497 1759 1228 1600 
Q 959 1441 959 1056 
Q 959 750 1161 570 
Q 1363 391 1709 391 
Q 2188 391 2477 730 
Q 2766 1069 2766 1631 
L 2766 1759 
L 2194 1759 
z
M 3341 1997 
L 3341 0 
L 2766 0 
L 2766 531 
Q 2569 213 2275 61 
Q 1981 -91 1556 -91 
Q 1019 -91 701 211 
Q 384 513 384 1019 
Q 384 1609 779 1909 
Q 1175 2209 1959 2209 
L 2766 2209 
L 2766 2266 
Q 2766 2663 2505 2880 
Q 2244 3097 1772 3097 
Q 1472 3097 1187 3025 
Q 903 2953 641 2809 
L 641 3341 
Q 956 3463 1253 3523 
Q 1550 3584 1831 3584 
Q 2591 3584 2966 3190 
Q 3341 2797 3341 1997 
z
" id="DejaVuSans-61" transform="scale(0.015625)"/>
       <path d="M 1172 4494 
L 1172 3500 
L 2356 3500 
L 2356 3053 
L 1172 3053 
L 1172 1153 
Q 1172 725 1289 603 
Q 1406 481 1766 481 
L 2356 481 
L 2356 0 
L 1766 0 
Q 1100 0 847 248 
Q 594 497 594 1153 
L 594 3053 
L 172 3053 
L 172 3500 
L 594 3500 
L 594 4494 
L 1172 4494 
z
" id="DejaVuSans-74" transform="scale(0.015625)"/>
       <path d="M 3597 1894 
L 3597 1613 
L 953 1613 
Q 991 1019 1311 708 
Q 1631 397 2203 397 
Q 2534 397 2845 478 
Q 3156 559 3463 722 
L 3463 178 
Q 3153 47 2828 -22 
Q 2503 -91 2169 -91 
Q 1331 -91 842 396 
Q 353 884 353 1716 
Q 353 2575 817 3079 
Q 1281 3584 2069 3584 
Q 2775 3584 3186 3129 
Q 3597 2675 3597 1894 
z
M 3022 2063 
Q 3016 2534 2758 2815 
Q 2500 3097 2075 3097 
Q 1594 3097 1305 2825 
Q 1016 2553 972 2059 
L 3022 2063 
z
" id="DejaVuSans-65" transform="scale(0.015625)"/>
      </defs>
      <use xlink:href="#DejaVuSans-64"/>
      <use x="63.476562" xlink:href="#DejaVuSans-61"/>
      <use x="124.755859" xlink:href="#DejaVuSans-74"/>
      <use x="163.964844" xlink:href="#DejaVuSans-65"/>
     </g>
    </g>
   </g>
   <g id="matplotlib.axis_2">
    <g id="ytick_1">
     <g id="line2d_7">
      <defs>
       <path d="M 0 0 
L -3.5 0 
" id="m4a8bafe03f" style="stroke:#000000;stroke-width:0.8;"/>
      </defs>
      <g>
       <use style="stroke:#000000;stroke-width:0.8;" x="57.6" xlink:href="#m4a8bafe03f" y="260.929399"/>
      </g>
     </g>
     <g id="text_8">
      <!-- 88000 -->
      <g transform="translate(18.7875 264.728618)scale(0.1 -0.1)">
       <defs>
        <path d="M 2034 2216 
Q 1584 2216 1326 1975 
Q 1069 1734 1069 1313 
Q 1069 891 1326 650 
Q 1584 409 2034 409 
Q 2484 409 2743 651 
Q 3003 894 3003 1313 
Q 3003 1734 2745 1975 
Q 2488 2216 2034 2216 
z
M 1403 2484 
Q 997 2584 770 2862 
Q 544 3141 544 3541 
Q 544 4100 942 4425 
Q 1341 4750 2034 4750 
Q 2731 4750 3128 4425 
Q 3525 4100 3525 3541 
Q 3525 3141 3298 2862 
Q 3072 2584 2669 2484 
Q 3125 2378 3379 2068 
Q 3634 1759 3634 1313 
Q 3634 634 3220 271 
Q 2806 -91 2034 -91 
Q 1263 -91 848 271 
Q 434 634 434 1313 
Q 434 1759 690 2068 
Q 947 2378 1403 2484 
z
M 1172 3481 
Q 1172 3119 1398 2916 
Q 1625 2713 2034 2713 
Q 2441 2713 2670 2916 
Q 2900 3119 2900 3481 
Q 2900 3844 2670 4047 
Q 2441 4250 2034 4250 
Q 1625 4250 1398 4047 
Q 1172 3844 1172 3481 
z
" id="DejaVuSans-38" transform="scale(0.015625)"/>
       </defs>
       <use xlink:href="#DejaVuSans-38"/>
       <use x="63.623047" xlink:href="#DejaVuSans-38"/>
       <use x="127.246094" xlink:href="#DejaVuSans-30"/>
       <use x="190.869141" xlink:href="#DejaVuSans-30"/>
       <use x="254.492188" xlink:href="#DejaVuSans-30"/>
      </g>
     </g>
    </g>
    <g id="ytick_2">
     <g id="line2d_8">
      <g>
       <use style="stroke:#000000;stroke-width:0.8;" x="57.6" xlink:href="#m4a8bafe03f" y="231.525966"/>
      </g>
     </g>
     <g id="text_9">
      <!-- 90000 -->
      <g transform="translate(18.7875 235.325185)scale(0.1 -0.1)">
       <defs>
        <path d="M 703 97 
L 703 672 
Q 941 559 1184 500 
Q 1428 441 1663 441 
Q 2288 441 2617 861 
Q 2947 1281 2994 2138 
Q 2813 1869 2534 1725 
Q 2256 1581 1919 1581 
Q 1219 1581 811 2004 
Q 403 2428 403 3163 
Q 403 3881 828 4315 
Q 1253 4750 1959 4750 
Q 2769 4750 3195 4129 
Q 3622 3509 3622 2328 
Q 3622 1225 3098 567 
Q 2575 -91 1691 -91 
Q 1453 -91 1209 -44 
Q 966 3 703 97 
z
M 1959 2075 
Q 2384 2075 2632 2365 
Q 2881 2656 2881 3163 
Q 2881 3666 2632 3958 
Q 2384 4250 1959 4250 
Q 1534 4250 1286 3958 
Q 1038 3666 1038 3163 
Q 1038 2656 1286 2365 
Q 1534 2075 1959 2075 
z
" id="DejaVuSans-39" transform="scale(0.015625)"/>
       </defs>
       <use xlink:href="#DejaVuSans-39"/>
       <use x="63.623047" xlink:href="#DejaVuSans-30"/>
       <use x="127.246094" xlink:href="#DejaVuSans-30"/>
       <use x="190.869141" xlink:href="#DejaVuSans-30"/>
       <use x="254.492188" xlink:href="#DejaVuSans-30"/>
      </g>
     </g>
    </g>
    <g id="ytick_3">
     <g id="line2d_9">
      <g>
       <use style="stroke:#000000;stroke-width:0.8;" x="57.6" xlink:href="#m4a8bafe03f" y="202.122533"/>
      </g>
     </g>
     <g id="text_10">
      <!-- 92000 -->
      <g transform="translate(18.7875 205.921752)scale(0.1 -0.1)">
       <use xlink:href="#DejaVuSans-39"/>
       <use x="63.623047" xlink:href="#DejaVuSans-32"/>
       <use x="127.246094" xlink:href="#DejaVuSans-30"/>
       <use x="190.869141" xlink:href="#DejaVuSans-30"/>
       <use x="254.492188" xlink:href="#DejaVuSans-30"/>
      </g>
     </g>
    </g>
    <g id="ytick_4">
     <g id="line2d_10">
      <g>
       <use style="stroke:#000000;stroke-width:0.8;" x="57.6" xlink:href="#m4a8bafe03f" y="172.7191"/>
      </g>
     </g>
     <g id="text_11">
      <!-- 94000 -->
      <g transform="translate(18.7875 176.518318)scale(0.1 -0.1)">
       <use xlink:href="#DejaVuSans-39"/>
       <use x="63.623047" xlink:href="#DejaVuSans-34"/>
       <use x="127.246094" xlink:href="#DejaVuSans-30"/>
       <use x="190.869141" xlink:href="#DejaVuSans-30"/>
       <use x="254.492188" xlink:href="#DejaVuSans-30"/>
      </g>
     </g>
    </g>
    <g id="ytick_5">
     <g id="line2d_11">
      <g>
       <use style="stroke:#000000;stroke-width:0.8;" x="57.6" xlink:href="#m4a8bafe03f" y="143.315666"/>
      </g>
     </g>
     <g id="text_12">
      <!-- 96000 -->
      <g transform="translate(18.7875 147.114885)scale(0.1 -0.1)">
       <defs>
        <path d="M 2113 2584 
Q 1688 2584 1439 2293 
Q 1191 2003 1191 1497 
Q 1191 994 1439 701 
Q 1688 409 2113 409 
Q 2538 409 2786 701 
Q 3034 994 3034 1497 
Q 3034 2003 2786 2293 
Q 2538 2584 2113 2584 
z
M 3366 4563 
L 3366 3988 
Q 3128 4100 2886 4159 
Q 2644 4219 2406 4219 
Q 1781 4219 1451 3797 
Q 1122 3375 1075 2522 
Q 1259 2794 1537 2939 
Q 1816 3084 2150 3084 
Q 2853 3084 3261 2657 
Q 3669 2231 3669 1497 
Q 3669 778 3244 343 
Q 2819 -91 2113 -91 
Q 1303 -91 875 529 
Q 447 1150 447 2328 
Q 447 3434 972 4092 
Q 1497 4750 2381 4750 
Q 2619 4750 2861 4703 
Q 3103 4656 3366 4563 
z
" id="DejaVuSans-36" transform="scale(0.015625)"/>
       </defs>
       <use xlink:href="#DejaVuSans-39"/>
       <use x="63.623047" xlink:href="#DejaVuSans-36"/>
       <use x="127.246094" xlink:href="#DejaVuSans-30"/>
       <use x="190.869141" xlink:href="#DejaVuSans-30"/>
       <use x="254.492188" xlink:href="#DejaVuSans-30"/>
      </g>
     </g>
    </g>
    <g id="ytick_6">
     <g id="line2d_12">
      <g>
       <use style="stroke:#000000;stroke-width:0.8;" x="57.6" xlink:href="#m4a8bafe03f" y="113.912233"/>
      </g>
     </g>
     <g id="text_13">
      <!-- 98000 -->
      <g transform="translate(18.7875 117.711452)scale(0.1 -0.1)">
       <use xlink:href="#DejaVuSans-39"/>
       <use x="63.623047" xlink:href="#DejaVuSans-38"/>
       <use x="127.246094" xlink:href="#DejaVuSans-30"/>
       <use x="190.869141" xlink:href="#DejaVuSans-30"/>
       <use x="254.492188" xlink:href="#DejaVuSans-30"/>
      </g>
     </g>
    </g>
    <g id="ytick_7">
     <g id="line2d_13">
      <g>
       <use style="stroke:#000000;stroke-width:0.8;" x="57.6" xlink:href="#m4a8bafe03f" y="84.5088"/>
      </g>
     </g>
     <g id="text_14">
      <!-- 100000 -->
      <g transform="translate(12.425 88.308019)scale(0.1 -0.1)">
       <use xlink:href="#DejaVuSans-31"/>
       <use x="63.623047" xlink:href="#DejaVuSans-30"/>
       <use x="127.246094" xlink:href="#DejaVuSans-30"/>
       <use x="190.869141" xlink:href="#DejaVuSans-30"/>
       <use x="254.492188" xlink:href="#DejaVuSans-30"/>
       <use x="318.115234" xlink:href="#DejaVuSans-30"/>
      </g>
     </g>
    </g>
    <g id="ytick_8">
     <g id="line2d_14">
      <g>
       <use style="stroke:#000000;stroke-width:0.8;" x="57.6" xlink:href="#m4a8bafe03f" y="55.105367"/>
      </g>
     </g>
     <g id="text_15">
      <!-- 102000 -->
      <g transform="translate(12.425 58.904585)scale(0.1 -0.1)">
       <use xlink:href="#DejaVuSans-31"/>
       <use x="63.623047" xlink:href="#DejaVuSans-30"/>
       <use x="127.246094" xlink:href="#DejaVuSans-32"/>
       <use x="190.869141" xlink:href="#DejaVuSans-30"/>
       <use x="254.492188" xlink:href="#DejaVuSans-30"/>
       <use x="318.115234" xlink:href="#DejaVuSans-30"/>
      </g>
     </g>
    </g>
   </g>
   <g id="line2d_15">
    <path clip-path="url(#p4919348aae)" d="M 73.832727 82.990168 
L 75.75376 85.797191 
L 81.516859 89.250955 
L 83.437891 87.764567 
L 85.358924 84.210228 
L 89.20099 84.349595 
L 94.964088 98.341573 
L 96.885121 126.689995 
L 98.806154 143.366975 
L 100.727187 122.23708 
L 102.648219 134.081779 
L 108.411318 117.69896 
L 110.332351 87.110246 
L 112.253384 83.817526 
L 114.174416 93.623513 
L 116.095449 78.927319 
L 121.858548 94.346231 
L 123.77958 104.119746 
L 125.700613 81.929501 
L 127.621646 94.365673 
L 129.542679 110.18441 
L 135.305777 127.913937 
L 137.22681 104.534338 
L 139.147843 89.231544 
L 141.068876 80.848083 
L 148.753007 58.720523 
L 150.67404 60.716483 
L 152.595073 58.21057 
L 154.516105 63.174529 
L 156.437138 66.797538 
L 162.200237 57.803812 
L 164.121269 57.767952 
L 166.042302 87.439042 
L 167.963335 88.216351 
L 169.884368 94.378323 
L 175.647466 96.840896 
L 177.568499 82.93402 
L 179.489532 78.916326 
L 181.410565 98.626478 
L 183.331598 98.43722 
L 191.015729 124.725058 
L 192.936762 139.325023 
L 194.857795 155.394247 
L 196.778827 182.688525 
L 202.541926 176.427404 
L 204.462959 192.694831 
L 206.383991 195.882166 
L 208.305024 203.793699 
L 210.226057 169.821676 
L 215.989155 145.386648 
L 217.910188 135.754288 
L 219.831221 122.486176 
L 221.752254 154.687293 
L 223.673287 147.882148 
L 229.436385 152.649996 
L 231.357418 141.781811 
L 233.278451 120.91148 
L 235.199484 147.135811 
L 237.120516 174.183415 
L 242.883615 179.018392 
L 244.804648 157.385698 
L 246.72568 155.306447 
L 248.646713 185.152377 
L 250.567746 193.430656 
L 258.251877 208.747435 
L 260.17291 233.632563 
L 262.093943 212.847339 
L 264.014976 183.827644 
L 269.778074 186.755062 
L 271.699107 206.678431 
L 273.62014 182.706086 
L 275.541173 189.53222 
L 277.462205 200.558534 
L 283.225304 241.065263 
L 285.146337 250.894542 
L 287.06737 215.277155 
L 288.988402 220.79905 
L 290.909435 238.049829 
L 296.672534 247.506616 
L 298.593566 219.614725 
L 300.514599 189.524674 
L 302.435632 172.865682 
L 304.356665 158.672427 
L 310.119763 160.3311 
L 312.040796 143.814883 
L 313.961829 160.923856 
L 315.882862 143.389347 
L 317.803895 136.794864 
L 323.566993 125.98161 
L 325.488026 108.602105 
L 327.409059 117.366658 
L 329.330091 139.975164 
L 331.251124 136.232384 
L 337.014223 123.896135 
L 338.935256 141.719365 
L 340.856288 155.689617 
L 342.777321 148.890433 
L 344.698354 151.915154 
L 350.461452 176.016627 
L 352.382485 181.649944 
L 354.303518 165.063005 
L 356.224551 182.640552 
L 363.908682 182.318293 
L 365.829715 160.873013 
L 367.750748 161.587587 
L 369.671781 181.874558 
L 371.592813 219.447461 
L 377.355912 212.247346 
L 379.276945 250.147874 
L 381.197977 247.694251 
L 383.11901 214.107225 
L 385.040043 262.816615 
L 390.803141 255.251334 
L 392.724174 248.871033 
L 394.645207 209.611686 
L 396.56624 257.719543 
L 398.487273 263.996026 
" style="fill:none;stroke:#0000ff;stroke-linecap:square;stroke-opacity:0.9;stroke-width:2;"/>
   </g>
   <g id="line2d_16">
    <path clip-path="url(#p4919348aae)" d="M 73.832727 82.990168 
L 75.75376 85.588217 
L 81.516859 89.509968 
L 83.437891 87.489915 
L 85.358924 83.807029 
L 89.20099 116.714016 
L 94.964088 99.14402 
L 96.885121 126.01218 
L 98.806154 142.460127 
L 100.727187 121.47751 
L 102.648219 133.758599 
L 108.411318 117.594579 
L 110.332351 87.133607 
L 112.253384 83.029305 
L 114.174416 93.696765 
L 116.095449 79.072903 
L 121.858548 93.403773 
L 123.77958 104.227525 
L 125.700613 81.733761 
L 127.621646 93.816498 
L 129.542679 110.234066 
L 135.305777 127.640876 
L 137.22681 104.296446 
L 139.147843 89.340908 
L 141.068876 79.879444 
L 148.753007 58.865207 
L 150.67404 61.064989 
L 152.595073 58.164387 
L 154.516105 62.163233 
L 156.437138 66.905673 
L 162.200237 57.322112 
L 164.121269 58.155159 
L 166.042302 87.896631 
L 167.963335 88.12611 
L 169.884368 94.754807 
L 175.647466 96.51916 
L 177.568499 83.082088 
L 179.489532 78.959156 
L 181.410565 98.679346 
L 183.331598 98.240177 
L 191.015729 124.332732 
L 192.936762 138.525755 
L 194.857795 154.365418 
L 196.778827 182.97417 
L 202.541926 176.91761 
L 204.462959 192.521631 
L 206.383991 196.262025 
L 208.305024 203.632737 
L 210.226057 169.43875 
L 215.989155 144.64695 
L 217.910188 135.311618 
L 219.831221 121.986979 
L 221.752254 155.874819 
L 223.673287 148.537457 
L 229.436385 153.364443 
L 231.357418 142.224509 
L 233.278451 121.277012 
L 235.199484 145.984682 
L 237.120516 175.059791 
L 242.883615 179.4547 
L 244.804648 156.956051 
L 246.72568 154.818397 
L 248.646713 185.192644 
L 250.567746 193.972853 
L 258.251877 208.206957 
L 260.17291 233.218383 
L 262.093943 213.235818 
L 264.014976 183.483395 
L 269.778074 186.591649 
L 271.699107 207.994773 
L 273.62014 182.399506 
L 275.541173 188.57789 
L 277.462205 200.407819 
L 283.225304 240.09958 
L 285.146337 250.494889 
L 287.06737 215.574284 
L 288.988402 221.681527 
L 290.909435 238.672553 
L 296.672534 248.32861 
L 298.593566 219.93069 
L 300.514599 190.27982 
L 302.435632 172.765871 
L 304.356665 158.229427 
L 310.119763 159.732689 
L 312.040796 144.394332 
L 313.961829 161.588338 
L 315.882862 143.244102 
L 317.803895 135.592851 
L 323.566993 126.370809 
L 325.488026 107.907321 
L 327.409059 117.237726 
L 329.330091 140.119359 
L 331.251124 135.413138 
L 337.014223 123.77743 
L 338.935256 141.81395 
L 340.856288 155.450541 
L 342.777321 148.961488 
L 344.698354 152.344551 
L 350.461452 176.819515 
L 352.382485 181.466363 
L 354.303518 166.045454 
L 356.224551 182.656262 
L 363.908682 182.211821 
L 365.829715 160.517967 
L 367.750748 162.213843 
L 369.671781 182.721553 
L 371.592813 219.291823 
L 377.355912 212.141735 
L 379.276945 250.238391 
L 381.197977 247.21184 
L 383.11901 214.025166 
L 385.040043 264.704431 
L 390.803141 255.553799 
L 392.724174 250.108219 
L 394.645207 210.251725 
L 396.56624 258.337052 
L 398.487273 265.480243 
" style="fill:none;stroke:#ff0000;stroke-linecap:square;stroke-opacity:0.9;stroke-width:2;"/>
   </g>
   <g id="line2d_17">
    <path clip-path="url(#p4919348aae)" d="M 73.832727 82.990168 
L 75.75376 85.854904 
L 81.516859 89.332672 
L 83.437891 88.421765 
L 85.358924 83.312332 
L 89.20099 117.196735 
L 94.964088 99.184801 
L 96.885121 126.401526 
L 98.806154 142.78757 
L 100.727187 122.148677 
L 102.648219 134.295713 
L 108.411318 117.301902 
L 110.332351 88.334237 
L 112.253384 83.306811 
L 114.174416 93.535485 
L 116.095449 79.140756 
L 121.858548 94.335387 
L 123.77958 104.295075 
L 125.700613 81.205898 
L 127.621646 94.79475 
L 129.542679 110.604439 
L 135.305777 127.090993 
L 137.22681 104.143147 
L 139.147843 89.866107 
L 141.068876 79.88938 
L 148.753007 59.275194 
L 150.67404 60.077593 
L 152.595073 58.649878 
L 154.516105 62.18161 
L 156.437138 66.804024 
L 162.200237 57.700407 
L 164.121269 57.674099 
L 166.042302 87.009513 
L 167.963335 88.959864 
L 169.884368 93.870549 
L 175.647466 96.099121 
L 177.568499 83.356485 
L 179.489532 79.149556 
L 181.410565 99.779244 
L 183.331598 98.740595 
L 191.015729 124.572969 
L 192.936762 138.524669 
L 194.857795 154.154228 
L 196.778827 182.019799 
L 202.541926 176.543195 
L 204.462959 193.274398 
L 206.383991 195.880271 
L 208.305024 202.665339 
L 210.226057 169.919264 
L 215.989155 145.665343 
L 217.910188 134.730415 
L 219.831221 122.412919 
L 221.752254 155.853663 
L 223.673287 147.870969 
L 229.436385 152.78632 
L 231.357418 141.779211 
L 233.278451 121.420178 
L 235.199484 146.745352 
L 237.120516 174.656207 
L 242.883615 179.553917 
L 244.804648 157.229882 
L 246.72568 154.628461 
L 248.646713 185.03723 
L 250.567746 193.862332 
L 258.251877 208.499957 
L 260.17291 233.171769 
L 262.093943 213.076508 
L 264.014976 183.431259 
L 269.778074 186.114637 
L 271.699107 207.672416 
L 273.62014 182.917178 
L 275.541173 189.724709 
L 277.462205 200.976074 
L 283.225304 240.221743 
L 285.146337 250.226792 
L 287.06737 215.701924 
L 288.988402 221.840359 
L 290.909435 238.763585 
L 296.672534 248.648601 
L 298.593566 218.999066 
L 300.514599 190.17396 
L 302.435632 172.225266 
L 304.356665 159.437219 
L 310.119763 160.515008 
L 312.040796 143.064169 
L 313.961829 162.282855 
L 315.882862 143.963394 
L 317.803895 136.232219 
L 323.566993 126.872714 
L 325.488026 108.535177 
L 327.409059 118.150105 
L 329.330091 139.617218 
L 331.251124 135.339817 
L 337.014223 123.098366 
L 338.935256 141.1349 
L 340.856288 156.096607 
L 342.777321 148.179381 
L 344.698354 152.776836 
L 350.461452 175.995943 
L 352.382485 180.840755 
L 354.303518 165.726254 
L 356.224551 182.901282 
L 363.908682 182.60444 
L 365.829715 160.207785 
L 367.750748 160.886418 
L 369.671781 181.562418 
L 371.592813 219.628336 
L 377.355912 212.279763 
L 379.276945 250.318499 
L 381.197977 246.881104 
L 383.11901 214.133044 
L 385.040043 264.084428 
L 390.803141 255.462403 
L 392.724174 250.324857 
L 394.645207 211.150142 
L 396.56624 257.619183 
L 398.487273 264.991374 
" style="fill:none;stroke:#008000;stroke-linecap:square;stroke-opacity:0.9;stroke-width:2;"/>
   </g>
   <g id="line2d_18">
    <path clip-path="url(#p4919348aae)" d="M 73.832727 82.990168 
L 75.75376 85.458838 
L 81.516859 90.211792 
L 83.437891 87.31997 
L 85.358924 84.423394 
L 89.20099 115.923023 
L 94.964088 98.905921 
L 96.885121 126.896533 
L 98.806154 142.52798 
L 100.727187 121.84576 
L 102.648219 134.144081 
L 108.411318 117.6003 
L 110.332351 87.033532 
L 112.253384 83.559068 
L 114.174416 92.78996 
L 116.095449 79.756138 
L 121.858548 94.231056 
L 123.77958 104.501195 
L 125.700613 81.190761 
L 127.621646 94.510234 
L 129.542679 111.213484 
L 135.305777 127.870497 
L 137.22681 104.182906 
L 139.147843 88.549186 
L 141.068876 80.103589 
L 148.753007 59.831714 
L 150.67404 60.051831 
L 152.595073 59.223388 
L 154.516105 63.195295 
L 156.437138 66.222793 
L 162.200237 58.427588 
L 164.121269 58.21164 
L 166.042302 87.407629 
L 167.963335 89.162421 
L 169.884368 93.853854 
L 175.647466 96.521364 
L 177.568499 83.237834 
L 179.489532 78.876238 
L 181.410565 98.866316 
L 183.331598 98.250085 
L 191.015729 124.864126 
L 192.936762 139.07978 
L 194.857795 155.118933 
L 196.778827 182.917151 
L 202.541926 176.239414 
L 204.462959 193.277881 
L 206.383991 196.510348 
L 208.305024 203.156532 
L 210.226057 170.571168 
L 215.989155 144.368879 
L 217.910188 134.694608 
L 219.831221 122.217032 
L 221.752254 155.763528 
L 223.673287 148.05296 
L 229.436385 153.354736 
L 231.357418 142.139821 
L 233.278451 120.950186 
L 235.199484 146.074464 
L 237.120516 174.341086 
L 242.883615 179.007182 
L 244.804648 156.84307 
L 246.72568 155.536816 
L 248.646713 184.54989 
L 250.567746 194.568504 
L 258.251877 209.082989 
L 260.17291 232.676379 
L 262.093943 212.658211 
L 264.014976 182.794351 
L 269.778074 186.089595 
L 271.699107 206.930872 
L 273.62014 183.326506 
L 275.541173 188.999717 
L 277.462205 200.775543 
L 283.225304 239.650323 
L 285.146337 250.510082 
L 287.06737 215.036041 
L 288.988402 221.825556 
L 290.909435 238.048023 
L 296.672534 248.494998 
L 298.593566 219.767473 
L 300.514599 189.642745 
L 302.435632 172.951634 
L 304.356665 158.909706 
L 310.119763 160.772487 
L 312.040796 144.107189 
L 313.961829 161.328448 
L 315.882862 142.907078 
L 317.803895 136.581548 
L 323.566993 126.960389 
L 325.488026 107.719378 
L 327.409059 117.325045 
L 329.330091 139.408077 
L 331.251124 135.564639 
L 337.014223 123.16872 
L 338.935256 142.145903 
L 340.856288 156.024984 
L 342.777321 149.048231 
L 344.698354 152.88584 
L 350.461452 176.500204 
L 352.382485 181.782994 
L 354.303518 164.918102 
L 356.224551 182.362047 
L 363.908682 181.994381 
L 365.829715 161.066318 
L 367.750748 161.374534 
L 369.671781 181.863238 
L 371.592813 220.187102 
L 377.355912 211.927239 
L 379.276945 250.283203 
L 381.197977 247.850889 
L 383.11901 213.877814 
L 385.040043 264.639867 
L 390.803141 255.355702 
L 392.724174 249.68857 
L 394.645207 209.932226 
L 396.56624 258.601671 
L 398.487273 265.646605 
" style="fill:none;stroke:#ec5283;stroke-linecap:square;stroke-width:2;"/>
   </g>
   <g id="line2d_19">
    <path clip-path="url(#p4919348aae)" d="M 73.832727 82.990168 
L 75.75376 85.316303 
L 81.516859 89.515417 
L 83.437891 87.503781 
L 85.358924 83.581453 
L 89.20099 116.482054 
L 94.964088 99.173124 
L 96.885121 126.864658 
L 98.806154 143.033745 
L 100.727187 121.641165 
L 102.648219 134.451917 
L 108.411318 117.581545 
L 110.332351 88.227604 
L 112.253384 84.099007 
L 114.174416 92.980822 
L 116.095449 79.54222 
L 121.858548 93.836144 
L 123.77958 103.450091 
L 125.700613 81.373418 
L 127.621646 93.916737 
L 129.542679 111.041611 
L 135.305777 127.313567 
L 137.22681 103.83761 
L 139.147843 88.581162 
L 141.068876 79.877617 
L 148.753007 59.101785 
L 150.67404 60.678121 
L 152.595073 58.480103 
L 154.516105 63.351742 
L 156.437138 66.577462 
L 162.200237 57.316356 
L 164.121269 58.57272 
L 166.042302 87.243106 
L 167.963335 88.104358 
L 169.884368 94.106155 
L 175.647466 96.233451 
L 177.568499 82.992753 
L 179.489532 78.849539 
L 181.410565 99.056565 
L 183.331598 99.108888 
L 191.015729 124.04684 
L 192.936762 139.697368 
L 194.857795 155.21872 
L 196.778827 181.965636 
L 202.541926 176.811824 
L 204.462959 193.772247 
L 206.383991 196.898796 
L 208.305024 203.494807 
L 210.226057 169.358101 
L 215.989155 145.296018 
L 217.910188 134.641577 
L 219.831221 122.422399 
L 221.752254 155.153808 
L 223.673287 148.356124 
L 229.436385 152.877948 
L 231.357418 142.343496 
L 233.278451 121.384795 
L 235.199484 146.076005 
L 237.120516 174.404737 
L 242.883615 178.896371 
L 244.804648 156.541682 
L 246.72568 155.489525 
L 248.646713 184.673364 
L 250.567746 193.787963 
L 258.251877 208.901657 
L 260.17291 233.632623 
L 262.093943 213.12514 
L 264.014976 183.721154 
L 269.778074 185.968055 
L 271.699107 206.9986 
L 273.62014 182.317641 
L 275.541173 188.744759 
L 277.462205 200.035642 
L 283.225304 240.193261 
L 285.146337 249.973518 
L 287.06737 216.001285 
L 288.988402 221.106412 
L 290.909435 238.679985 
L 296.672534 247.865439 
L 298.593566 219.683622 
L 300.514599 190.225356 
L 302.435632 172.115442 
L 304.356665 158.229323 
L 310.119763 160.312495 
L 312.040796 144.279497 
L 313.961829 161.393145 
L 315.882862 144.224492 
L 317.803895 135.560491 
L 323.566993 126.350157 
L 325.488026 107.669372 
L 327.409059 117.499446 
L 329.330091 139.242796 
L 331.251124 135.212741 
L 337.014223 123.988354 
L 338.935256 141.250172 
L 340.856288 155.871112 
L 342.777321 147.941517 
L 344.698354 152.14362 
L 350.461452 175.75713 
L 352.382485 182.179467 
L 354.303518 166.27873 
L 356.224551 182.531387 
L 363.908682 183.30696 
L 365.829715 160.217264 
L 367.750748 162.280031 
L 369.671781 182.311095 
L 371.592813 220.661986 
L 377.355912 211.930703 
L 379.276945 250.111426 
L 381.197977 247.925027 
L 383.11901 213.595419 
L 385.040043 264.040588 
L 390.803141 256.187961 
L 392.724174 249.900122 
L 394.645207 210.978605 
L 396.56624 258.563819 
L 398.487273 265.797818 
" style="fill:none;stroke:#00ff00;stroke-linecap:square;stroke-opacity:0.9;stroke-width:2;"/>
   </g>
   <g id="line2d_20">
    <path clip-path="url(#p4919348aae)" d="M 73.832727 82.990168 
L 75.75376 85.339929 
L 81.516859 90.174842 
L 83.437891 88.328463 
L 85.358924 83.439053 
L 89.20099 117.024576 
L 94.964088 99.433642 
L 96.885121 126.531357 
L 98.806154 143.522418 
L 100.727187 121.602276 
L 102.648219 134.210447 
L 108.411318 117.526506 
L 110.332351 87.267934 
L 112.253384 83.652459 
L 114.174416 93.752838 
L 116.095449 79.826983 
L 121.858548 92.152746 
L 123.77958 102.987319 
L 125.700613 79.097933 
L 127.621646 93.445311 
L 129.542679 107.52118 
L 135.305777 123.661238 
L 137.22681 98.646006 
L 139.147843 83.010222 
L 141.068876 74.490972 
L 148.753007 53.132584 
L 150.67404 54.336349 
L 152.595073 52.377189 
L 154.516105 56.406044 
L 156.437138 60.741798 
L 162.200237 52.154182 
L 164.121269 52.834035 
L 166.042302 81.837325 
L 167.963335 83.318355 
L 169.884368 88.508833 
L 175.647466 90.003307 
L 177.568499 76.700283 
L 179.489532 73.055546 
L 181.410565 92.791683 
L 183.331598 92.502004 
L 191.015729 119.064046 
L 192.936762 133.497227 
L 194.857795 148.904806 
L 196.778827 176.012002 
L 202.541926 170.73215 
L 204.462959 187.459605 
L 206.383991 190.174436 
L 208.305024 198.30735 
L 210.226057 164.57889 
L 215.989155 139.057926 
L 217.910188 129.731945 
L 219.831221 115.238814 
L 221.752254 149.337643 
L 223.673287 142.825097 
L 229.436385 147.684253 
L 231.357418 135.076387 
L 233.278451 114.13915 
L 235.199484 140.559053 
L 237.120516 169.085178 
L 242.883615 172.307119 
L 244.804648 151.286175 
L 246.72568 149.646373 
L 248.646713 178.416398 
L 250.567746 187.450722 
L 258.251877 202.497339 
L 260.17291 227.450118 
L 262.093943 206.177162 
L 264.014976 176.940817 
L 269.778074 180.804796 
L 271.699107 201.330788 
L 273.62014 175.547138 
L 275.541173 183.133834 
L 277.462205 194.781603 
L 283.225304 233.968869 
L 285.146337 244.623487 
L 287.06737 209.275001 
L 288.988402 215.494768 
L 290.909435 231.22603 
L 296.672534 241.085371 
L 298.593566 212.199995 
L 300.514599 183.580691 
L 302.435632 165.973657 
L 304.356665 150.044554 
L 310.119763 150.691422 
L 312.040796 134.647761 
L 313.961829 152.737119 
L 315.882862 131.099757 
L 317.803895 123.68433 
L 323.566993 114.670564 
L 325.488026 95.668794 
L 327.409059 105.620005 
L 329.330091 127.586286 
L 331.251124 123.480974 
L 337.014223 110.554124 
L 338.935256 129.488995 
L 340.856288 143.865289 
L 342.777321 135.863509 
L 344.698354 140.44651 
L 350.461452 164.79408 
L 352.382485 169.396774 
L 354.303518 154.054726 
L 356.224551 170.586417 
L 363.908682 170.319186 
L 365.829715 148.597164 
L 367.750748 148.832412 
L 369.671781 170.657525 
L 371.592813 207.683965 
L 377.355912 199.739939 
L 379.276945 239.175676 
L 381.197977 235.021773 
L 383.11901 202.192022 
L 385.040043 251.942002 
L 390.803141 243.872249 
L 392.724174 238.005911 
L 394.645207 198.602058 
L 396.56624 247.263117 
L 398.487273 254.0616 
" style="fill:none;stroke:#a5b9cf;stroke-linecap:square;stroke-width:2;"/>
   </g>
   <g id="patch_3">
    <path d="M 57.6 276.48 
L 57.6 41.472 
" style="fill:none;stroke:#000000;stroke-linecap:square;stroke-linejoin:miter;stroke-width:0.8;"/>
   </g>
   <g id="patch_4">
    <path d="M 414.72 276.48 
L 414.72 41.472 
" style="fill:none;stroke:#000000;stroke-linecap:square;stroke-linejoin:miter;stroke-width:0.8;"/>
   </g>
   <g id="patch_5">
    <path d="M 57.6 276.48 
L 414.72 276.48 
" style="fill:none;stroke:#000000;stroke-linecap:square;stroke-linejoin:miter;stroke-width:0.8;"/>
   </g>
   <g id="patch_6">
    <path d="M 57.6 41.472 
L 414.72 41.472 
" style="fill:none;stroke:#000000;stroke-linecap:square;stroke-linejoin:miter;stroke-width:0.8;"/>
   </g>
   <g id="text_16">
    <!-- SP500 -->
    <g transform="translate(217.280625 22.034625)scale(0.12 -0.12)">
     <defs>
      <path d="M 3425 4513 
L 3425 3897 
Q 3066 4069 2747 4153 
Q 2428 4238 2131 4238 
Q 1616 4238 1336 4038 
Q 1056 3838 1056 3469 
Q 1056 3159 1242 3001 
Q 1428 2844 1947 2747 
L 2328 2669 
Q 3034 2534 3370 2195 
Q 3706 1856 3706 1288 
Q 3706 609 3251 259 
Q 2797 -91 1919 -91 
Q 1588 -91 1214 -16 
Q 841 59 441 206 
L 441 856 
Q 825 641 1194 531 
Q 1563 422 1919 422 
Q 2459 422 2753 634 
Q 3047 847 3047 1241 
Q 3047 1584 2836 1778 
Q 2625 1972 2144 2069 
L 1759 2144 
Q 1053 2284 737 2584 
Q 422 2884 422 3419 
Q 422 4038 858 4394 
Q 1294 4750 2059 4750 
Q 2388 4750 2728 4690 
Q 3069 4631 3425 4513 
z
" id="DejaVuSans-53" transform="scale(0.015625)"/>
      <path d="M 1259 4147 
L 1259 2394 
L 2053 2394 
Q 2494 2394 2734 2622 
Q 2975 2850 2975 3272 
Q 2975 3691 2734 3919 
Q 2494 4147 2053 4147 
L 1259 4147 
z
M 628 4666 
L 2053 4666 
Q 2838 4666 3239 4311 
Q 3641 3956 3641 3272 
Q 3641 2581 3239 2228 
Q 2838 1875 2053 1875 
L 1259 1875 
L 1259 0 
L 628 0 
L 628 4666 
z
" id="DejaVuSans-50" transform="scale(0.015625)"/>
     </defs>
     <use xlink:href="#DejaVuSans-53"/>
     <use x="63.476562" xlink:href="#DejaVuSans-50"/>
     <use x="123.779297" xlink:href="#DejaVuSans-35"/>
     <use x="187.402344" xlink:href="#DejaVuSans-30"/>
     <use x="251.025391" xlink:href="#DejaVuSans-30"/>
    </g>
    <!-- daily_report -->
    <g transform="translate(200.466563 35.472)scale(0.12 -0.12)">
     <defs>
      <path d="M 603 3500 
L 1178 3500 
L 1178 0 
L 603 0 
L 603 3500 
z
M 603 4863 
L 1178 4863 
L 1178 4134 
L 603 4134 
L 603 4863 
z
" id="DejaVuSans-69" transform="scale(0.015625)"/>
      <path d="M 603 4863 
L 1178 4863 
L 1178 0 
L 603 0 
L 603 4863 
z
" id="DejaVuSans-6c" transform="scale(0.015625)"/>
      <path d="M 2059 -325 
Q 1816 -950 1584 -1140 
Q 1353 -1331 966 -1331 
L 506 -1331 
L 506 -850 
L 844 -850 
Q 1081 -850 1212 -737 
Q 1344 -625 1503 -206 
L 1606 56 
L 191 3500 
L 800 3500 
L 1894 763 
L 2988 3500 
L 3597 3500 
L 2059 -325 
z
" id="DejaVuSans-79" transform="scale(0.015625)"/>
      <path d="M 3263 -1063 
L 3263 -1509 
L -63 -1509 
L -63 -1063 
L 3263 -1063 
z
" id="DejaVuSans-5f" transform="scale(0.015625)"/>
      <path d="M 2631 2963 
Q 2534 3019 2420 3045 
Q 2306 3072 2169 3072 
Q 1681 3072 1420 2755 
Q 1159 2438 1159 1844 
L 1159 0 
L 581 0 
L 581 3500 
L 1159 3500 
L 1159 2956 
Q 1341 3275 1631 3429 
Q 1922 3584 2338 3584 
Q 2397 3584 2469 3576 
Q 2541 3569 2628 3553 
L 2631 2963 
z
" id="DejaVuSans-72" transform="scale(0.015625)"/>
      <path d="M 1159 525 
L 1159 -1331 
L 581 -1331 
L 581 3500 
L 1159 3500 
L 1159 2969 
Q 1341 3281 1617 3432 
Q 1894 3584 2278 3584 
Q 2916 3584 3314 3078 
Q 3713 2572 3713 1747 
Q 3713 922 3314 415 
Q 2916 -91 2278 -91 
Q 1894 -91 1617 61 
Q 1341 213 1159 525 
z
M 3116 1747 
Q 3116 2381 2855 2742 
Q 2594 3103 2138 3103 
Q 1681 3103 1420 2742 
Q 1159 2381 1159 1747 
Q 1159 1113 1420 752 
Q 1681 391 2138 391 
Q 2594 391 2855 752 
Q 3116 1113 3116 1747 
z
" id="DejaVuSans-70" transform="scale(0.015625)"/>
      <path d="M 1959 3097 
Q 1497 3097 1228 2736 
Q 959 2375 959 1747 
Q 959 1119 1226 758 
Q 1494 397 1959 397 
Q 2419 397 2687 759 
Q 2956 1122 2956 1747 
Q 2956 2369 2687 2733 
Q 2419 3097 1959 3097 
z
M 1959 3584 
Q 2709 3584 3137 3096 
Q 3566 2609 3566 1747 
Q 3566 888 3137 398 
Q 2709 -91 1959 -91 
Q 1206 -91 779 398 
Q 353 888 353 1747 
Q 353 2609 779 3096 
Q 1206 3584 1959 3584 
z
" id="DejaVuSans-6f" transform="scale(0.015625)"/>
     </defs>
     <use xlink:href="#DejaVuSans-64"/>
     <use x="63.476562" xlink:href="#DejaVuSans-61"/>
     <use x="124.755859" xlink:href="#DejaVuSans-69"/>
     <use x="152.539062" xlink:href="#DejaVuSans-6c"/>
     <use x="180.322266" xlink:href="#DejaVuSans-79"/>
     <use x="239.501953" xlink:href="#DejaVuSans-5f"/>
     <use x="289.501953" xlink:href="#DejaVuSans-72"/>
     <use x="328.365234" xlink:href="#DejaVuSans-65"/>
     <use x="389.888672" xlink:href="#DejaVuSans-70"/>
     <use x="453.365234" xlink:href="#DejaVuSans-6f"/>
     <use x="514.546875" xlink:href="#DejaVuSans-72"/>
     <use x="555.660156" xlink:href="#DejaVuSans-74"/>
    </g>
   </g>
   <g id="legend_1">
    <g id="patch_7">
     <path d="M 64.6 271.48 
L 178.64375 271.48 
Q 180.64375 271.48 180.64375 269.48 
L 180.64375 182.41125 
Q 180.64375 180.41125 178.64375 180.41125 
L 64.6 180.41125 
Q 62.6 180.41125 62.6 182.41125 
L 62.6 269.48 
Q 62.6 271.48 64.6 271.48 
z
" style="fill:#ffffff;opacity:0.8;stroke:#cccccc;stroke-linejoin:miter;"/>
    </g>
    <g id="line2d_21">
     <path d="M 66.6 188.509687 
L 86.6 188.509687 
" style="fill:none;stroke:#0000ff;stroke-linecap:square;stroke-opacity:0.9;stroke-width:2;"/>
    </g>
    <g id="line2d_22"/>
    <g id="text_17">
     <!-- alpaca -->
     <g transform="translate(94.6 192.009687)scale(0.1 -0.1)">
      <defs>
       <path d="M 3122 3366 
L 3122 2828 
Q 2878 2963 2633 3030 
Q 2388 3097 2138 3097 
Q 1578 3097 1268 2742 
Q 959 2388 959 1747 
Q 959 1106 1268 751 
Q 1578 397 2138 397 
Q 2388 397 2633 464 
Q 2878 531 3122 666 
L 3122 134 
Q 2881 22 2623 -34 
Q 2366 -91 2075 -91 
Q 1284 -91 818 406 
Q 353 903 353 1747 
Q 353 2603 823 3093 
Q 1294 3584 2113 3584 
Q 2378 3584 2631 3529 
Q 2884 3475 3122 3366 
z
" id="DejaVuSans-63" transform="scale(0.015625)"/>
      </defs>
      <use xlink:href="#DejaVuSans-61"/>
      <use x="61.279297" xlink:href="#DejaVuSans-6c"/>
      <use x="89.0625" xlink:href="#DejaVuSans-70"/>
      <use x="152.539062" xlink:href="#DejaVuSans-61"/>
      <use x="213.818359" xlink:href="#DejaVuSans-63"/>
      <use x="268.798828" xlink:href="#DejaVuSans-61"/>
     </g>
    </g>
    <g id="line2d_23">
     <path d="M 66.6 203.187812 
L 86.6 203.187812 
" style="fill:none;stroke:#ff0000;stroke-linecap:square;stroke-opacity:0.9;stroke-width:2;"/>
    </g>
    <g id="line2d_24"/>
    <g id="text_18">
     <!-- mattress -->
     <g transform="translate(94.6 206.687812)scale(0.1 -0.1)">
      <defs>
       <path d="M 3328 2828 
Q 3544 3216 3844 3400 
Q 4144 3584 4550 3584 
Q 5097 3584 5394 3201 
Q 5691 2819 5691 2113 
L 5691 0 
L 5113 0 
L 5113 2094 
Q 5113 2597 4934 2840 
Q 4756 3084 4391 3084 
Q 3944 3084 3684 2787 
Q 3425 2491 3425 1978 
L 3425 0 
L 2847 0 
L 2847 2094 
Q 2847 2600 2669 2842 
Q 2491 3084 2119 3084 
Q 1678 3084 1418 2786 
Q 1159 2488 1159 1978 
L 1159 0 
L 581 0 
L 581 3500 
L 1159 3500 
L 1159 2956 
Q 1356 3278 1631 3431 
Q 1906 3584 2284 3584 
Q 2666 3584 2933 3390 
Q 3200 3197 3328 2828 
z
" id="DejaVuSans-6d" transform="scale(0.015625)"/>
       <path d="M 2834 3397 
L 2834 2853 
Q 2591 2978 2328 3040 
Q 2066 3103 1784 3103 
Q 1356 3103 1142 2972 
Q 928 2841 928 2578 
Q 928 2378 1081 2264 
Q 1234 2150 1697 2047 
L 1894 2003 
Q 2506 1872 2764 1633 
Q 3022 1394 3022 966 
Q 3022 478 2636 193 
Q 2250 -91 1575 -91 
Q 1294 -91 989 -36 
Q 684 19 347 128 
L 347 722 
Q 666 556 975 473 
Q 1284 391 1588 391 
Q 1994 391 2212 530 
Q 2431 669 2431 922 
Q 2431 1156 2273 1281 
Q 2116 1406 1581 1522 
L 1381 1569 
Q 847 1681 609 1914 
Q 372 2147 372 2553 
Q 372 3047 722 3315 
Q 1072 3584 1716 3584 
Q 2034 3584 2315 3537 
Q 2597 3491 2834 3397 
z
" id="DejaVuSans-73" transform="scale(0.015625)"/>
      </defs>
      <use xlink:href="#DejaVuSans-6d"/>
      <use x="97.412109" xlink:href="#DejaVuSans-61"/>
      <use x="158.691406" xlink:href="#DejaVuSans-74"/>
      <use x="197.900391" xlink:href="#DejaVuSans-74"/>
      <use x="237.109375" xlink:href="#DejaVuSans-72"/>
      <use x="275.972656" xlink:href="#DejaVuSans-65"/>
      <use x="337.496094" xlink:href="#DejaVuSans-73"/>
      <use x="389.595703" xlink:href="#DejaVuSans-73"/>
     </g>
    </g>
    <g id="line2d_25">
     <path d="M 66.6 217.865937 
L 86.6 217.865937 
" style="fill:none;stroke:#008000;stroke-linecap:square;stroke-opacity:0.9;stroke-width:2;"/>
    </g>
    <g id="line2d_26"/>
    <g id="text_19">
     <!-- daily-open-rebal -->
     <g transform="translate(94.6 221.365937)scale(0.1 -0.1)">
      <defs>
       <path d="M 3513 2113 
L 3513 0 
L 2938 0 
L 2938 2094 
Q 2938 2591 2744 2837 
Q 2550 3084 2163 3084 
Q 1697 3084 1428 2787 
Q 1159 2491 1159 1978 
L 1159 0 
L 581 0 
L 581 3500 
L 1159 3500 
L 1159 2956 
Q 1366 3272 1645 3428 
Q 1925 3584 2291 3584 
Q 2894 3584 3203 3211 
Q 3513 2838 3513 2113 
z
" id="DejaVuSans-6e" transform="scale(0.015625)"/>
       <path d="M 3116 1747 
Q 3116 2381 2855 2742 
Q 2594 3103 2138 3103 
Q 1681 3103 1420 2742 
Q 1159 2381 1159 1747 
Q 1159 1113 1420 752 
Q 1681 391 2138 391 
Q 2594 391 2855 752 
Q 3116 1113 3116 1747 
z
M 1159 2969 
Q 1341 3281 1617 3432 
Q 1894 3584 2278 3584 
Q 2916 3584 3314 3078 
Q 3713 2572 3713 1747 
Q 3713 922 3314 415 
Q 2916 -91 2278 -91 
Q 1894 -91 1617 61 
Q 1341 213 1159 525 
L 1159 0 
L 581 0 
L 581 4863 
L 1159 4863 
L 1159 2969 
z
" id="DejaVuSans-62" transform="scale(0.015625)"/>
      </defs>
      <use xlink:href="#DejaVuSans-64"/>
      <use x="63.476562" xlink:href="#DejaVuSans-61"/>
      <use x="124.755859" xlink:href="#DejaVuSans-69"/>
      <use x="152.539062" xlink:href="#DejaVuSans-6c"/>
      <use x="180.322266" xlink:href="#DejaVuSans-79"/>
      <use x="237.751953" xlink:href="#DejaVuSans-2d"/>
      <use x="275.710938" xlink:href="#DejaVuSans-6f"/>
      <use x="336.892578" xlink:href="#DejaVuSans-70"/>
      <use x="400.369141" xlink:href="#DejaVuSans-65"/>
      <use x="461.892578" xlink:href="#DejaVuSans-6e"/>
      <use x="525.271484" xlink:href="#DejaVuSans-2d"/>
      <use x="561.355469" xlink:href="#DejaVuSans-72"/>
      <use x="600.21875" xlink:href="#DejaVuSans-65"/>
      <use x="661.742188" xlink:href="#DejaVuSans-62"/>
      <use x="725.21875" xlink:href="#DejaVuSans-61"/>
      <use x="786.498047" xlink:href="#DejaVuSans-6c"/>
     </g>
    </g>
    <g id="line2d_27">
     <path d="M 66.6 232.544062 
L 86.6 232.544062 
" style="fill:none;stroke:#ec5283;stroke-linecap:square;stroke-width:2;"/>
    </g>
    <g id="line2d_28"/>
    <g id="text_20">
     <!-- daily-close-rebal -->
     <g transform="translate(94.6 236.044062)scale(0.1 -0.1)">
      <use xlink:href="#DejaVuSans-64"/>
      <use x="63.476562" xlink:href="#DejaVuSans-61"/>
      <use x="124.755859" xlink:href="#DejaVuSans-69"/>
      <use x="152.539062" xlink:href="#DejaVuSans-6c"/>
      <use x="180.322266" xlink:href="#DejaVuSans-79"/>
      <use x="237.751953" xlink:href="#DejaVuSans-2d"/>
      <use x="273.835938" xlink:href="#DejaVuSans-63"/>
      <use x="328.816406" xlink:href="#DejaVuSans-6c"/>
      <use x="356.599609" xlink:href="#DejaVuSans-6f"/>
      <use x="417.78125" xlink:href="#DejaVuSans-73"/>
      <use x="469.880859" xlink:href="#DejaVuSans-65"/>
      <use x="531.404297" xlink:href="#DejaVuSans-2d"/>
      <use x="567.488281" xlink:href="#DejaVuSans-72"/>
      <use x="606.351562" xlink:href="#DejaVuSans-65"/>
      <use x="667.875" xlink:href="#DejaVuSans-62"/>
      <use x="731.351562" xlink:href="#DejaVuSans-61"/>
      <use x="792.630859" xlink:href="#DejaVuSans-6c"/>
     </g>
    </g>
    <g id="line2d_29">
     <path d="M 66.6 247.222187 
L 86.6 247.222187 
" style="fill:none;stroke:#00ff00;stroke-linecap:square;stroke-opacity:0.9;stroke-width:2;"/>
    </g>
    <g id="line2d_30"/>
    <g id="text_21">
     <!-- trader-baseline -->
     <g transform="translate(94.6 250.722187)scale(0.1 -0.1)">
      <use xlink:href="#DejaVuSans-74"/>
      <use x="39.208984" xlink:href="#DejaVuSans-72"/>
      <use x="80.322266" xlink:href="#DejaVuSans-61"/>
      <use x="141.601562" xlink:href="#DejaVuSans-64"/>
      <use x="205.078125" xlink:href="#DejaVuSans-65"/>
      <use x="266.601562" xlink:href="#DejaVuSans-72"/>
      <use x="301.339844" xlink:href="#DejaVuSans-2d"/>
      <use x="337.423828" xlink:href="#DejaVuSans-62"/>
      <use x="400.900391" xlink:href="#DejaVuSans-61"/>
      <use x="462.179688" xlink:href="#DejaVuSans-73"/>
      <use x="514.279297" xlink:href="#DejaVuSans-65"/>
      <use x="575.802734" xlink:href="#DejaVuSans-6c"/>
      <use x="603.585938" xlink:href="#DejaVuSans-69"/>
      <use x="631.369141" xlink:href="#DejaVuSans-6e"/>
      <use x="694.748047" xlink:href="#DejaVuSans-65"/>
     </g>
    </g>
    <g id="line2d_31">
     <path d="M 66.6 261.900312 
L 86.6 261.900312 
" style="fill:none;stroke:#a5b9cf;stroke-linecap:square;stroke-width:2;"/>
    </g>
    <g id="line2d_32"/>
    <g id="text_22">
     <!-- default-cfg -->
     <g transform="translate(94.6 265.400312)scale(0.1 -0.1)">
      <defs>
       <path d="M 2375 4863 
L 2375 4384 
L 1825 4384 
Q 1516 4384 1395 4259 
Q 1275 4134 1275 3809 
L 1275 3500 
L 2222 3500 
L 2222 3053 
L 1275 3053 
L 1275 0 
L 697 0 
L 697 3053 
L 147 3053 
L 147 3500 
L 697 3500 
L 697 3744 
Q 697 4328 969 4595 
Q 1241 4863 1831 4863 
L 2375 4863 
z
" id="DejaVuSans-66" transform="scale(0.015625)"/>
       <path d="M 544 1381 
L 544 3500 
L 1119 3500 
L 1119 1403 
Q 1119 906 1312 657 
Q 1506 409 1894 409 
Q 2359 409 2629 706 
Q 2900 1003 2900 1516 
L 2900 3500 
L 3475 3500 
L 3475 0 
L 2900 0 
L 2900 538 
Q 2691 219 2414 64 
Q 2138 -91 1772 -91 
Q 1169 -91 856 284 
Q 544 659 544 1381 
z
M 1991 3584 
L 1991 3584 
z
" id="DejaVuSans-75" transform="scale(0.015625)"/>
       <path d="M 2906 1791 
Q 2906 2416 2648 2759 
Q 2391 3103 1925 3103 
Q 1463 3103 1205 2759 
Q 947 2416 947 1791 
Q 947 1169 1205 825 
Q 1463 481 1925 481 
Q 2391 481 2648 825 
Q 2906 1169 2906 1791 
z
M 3481 434 
Q 3481 -459 3084 -895 
Q 2688 -1331 1869 -1331 
Q 1566 -1331 1297 -1286 
Q 1028 -1241 775 -1147 
L 775 -588 
Q 1028 -725 1275 -790 
Q 1522 -856 1778 -856 
Q 2344 -856 2625 -561 
Q 2906 -266 2906 331 
L 2906 616 
Q 2728 306 2450 153 
Q 2172 0 1784 0 
Q 1141 0 747 490 
Q 353 981 353 1791 
Q 353 2603 747 3093 
Q 1141 3584 1784 3584 
Q 2172 3584 2450 3431 
Q 2728 3278 2906 2969 
L 2906 3500 
L 3481 3500 
L 3481 434 
z
" id="DejaVuSans-67" transform="scale(0.015625)"/>
      </defs>
      <use xlink:href="#DejaVuSans-64"/>
      <use x="63.476562" xlink:href="#DejaVuSans-65"/>
      <use x="125" xlink:href="#DejaVuSans-66"/>
      <use x="160.205078" xlink:href="#DejaVuSans-61"/>
      <use x="221.484375" xlink:href="#DejaVuSans-75"/>
      <use x="284.863281" xlink:href="#DejaVuSans-6c"/>
      <use x="312.646484" xlink:href="#DejaVuSans-74"/>
      <use x="351.855469" xlink:href="#DejaVuSans-2d"/>
      <use x="387.939453" xlink:href="#DejaVuSans-63"/>
      <use x="442.919922" xlink:href="#DejaVuSans-66"/>
      <use x="478.125" xlink:href="#DejaVuSans-67"/>
     </g>
    </g>
   </g>
  </g>
 </g>
 <defs>
  <clipPath id="p4919348aae">
   <rect height="235.008" width="357.12" x="57.6" y="41.472"/>
  </clipPath>
 </defs>
</svg>
