<?xml version="1.0" encoding="utf-8" standalone="no"?>
<!DOCTYPE svg PUBLIC "-//W3C//DTD SVG 1.1//EN"
  "http://www.w3.org/Graphics/SVG/1.1/DTD/svg11.dtd">
<svg height="345.6pt" version="1.1" viewBox="0 0 460.8 345.6" width="460.8pt" xmlns="http://www.w3.org/2000/svg" xmlns:xlink="http://www.w3.org/1999/xlink">
 <metadata>
  <rdf:RDF xmlns:cc="http://creativecommons.org/ns#" xmlns:dc="http://purl.org/dc/elements/1.1/" xmlns:rdf="http://www.w3.org/1999/02/22-rdf-syntax-ns#">
   <cc:Work>
    <dc:type rdf:resource="http://purl.org/dc/dcmitype/StillImage"/>
    <dc:date>2022-02-17T01:01:36.697386</dc:date>
    <dc:format>image/svg+xml</dc:format>
    <dc:creator>
     <cc:Agent>
      <dc:title>Matplotlib v3.4.3, https://matplotlib.org/</dc:title>
     </cc:Agent>
    </dc:creator>
   </cc:Work>
  </rdf:RDF>
 </metadata>
 <defs>
  <style type="text/css">*{stroke-linecap:butt;stroke-linejoin:round;}</style>
 </defs>
 <g id="figure_1">
  <g id="patch_1">
   <path d="M 0 345.6 
L 460.8 345.6 
L 460.8 0 
L 0 0 
z
" style="fill:#ffffff;"/>
  </g>
  <g id="axes_1">
   <g id="patch_2">
    <path d="M 57.6 276.48 
L 414.72 276.48 
L 414.72 41.472 
L 57.6 41.472 
z
" style="fill:#ffffff;"/>
   </g>
   <g id="matplotlib.axis_1">
    <g id="xtick_1">
     <g id="line2d_1">
      <defs>
       <path d="M 0 0 
L 0 3.5 
" id="mc666a1ed00" style="stroke:#000000;stroke-width:0.8;"/>
      </defs>
      <g>
       <use style="stroke:#000000;stroke-width:0.8;" x="90.340586" xlink:href="#mc666a1ed00" y="276.48"/>
      </g>
     </g>
     <g id="text_1">
      <!-- 2021-09 -->
      <g transform="translate(53.115765 310.951846)rotate(-30)scale(0.1 -0.1)">
       <defs>
        <path d="M 1228 531 
L 3431 531 
L 3431 0 
L 469 0 
L 469 531 
Q 828 903 1448 1529 
Q 2069 2156 2228 2338 
Q 2531 2678 2651 2914 
Q 2772 3150 2772 3378 
Q 2772 3750 2511 3984 
Q 2250 4219 1831 4219 
Q 1534 4219 1204 4116 
Q 875 4013 500 3803 
L 500 4441 
Q 881 4594 1212 4672 
Q 1544 4750 1819 4750 
Q 2544 4750 2975 4387 
Q 3406 4025 3406 3419 
Q 3406 3131 3298 2873 
Q 3191 2616 2906 2266 
Q 2828 2175 2409 1742 
Q 1991 1309 1228 531 
z
" id="DejaVuSans-32" transform="scale(0.015625)"/>
        <path d="M 2034 4250 
Q 1547 4250 1301 3770 
Q 1056 3291 1056 2328 
Q 1056 1369 1301 889 
Q 1547 409 2034 409 
Q 2525 409 2770 889 
Q 3016 1369 3016 2328 
Q 3016 3291 2770 3770 
Q 2525 4250 2034 4250 
z
M 2034 4750 
Q 2819 4750 3233 4129 
Q 3647 3509 3647 2328 
Q 3647 1150 3233 529 
Q 2819 -91 2034 -91 
Q 1250 -91 836 529 
Q 422 1150 422 2328 
Q 422 3509 836 4129 
Q 1250 4750 2034 4750 
z
" id="DejaVuSans-30" transform="scale(0.015625)"/>
        <path d="M 794 531 
L 1825 531 
L 1825 4091 
L 703 3866 
L 703 4441 
L 1819 4666 
L 2450 4666 
L 2450 531 
L 3481 531 
L 3481 0 
L 794 0 
L 794 531 
z
" id="DejaVuSans-31" transform="scale(0.015625)"/>
        <path d="M 313 2009 
L 1997 2009 
L 1997 1497 
L 313 1497 
L 313 2009 
z
" id="DejaVuSans-2d" transform="scale(0.015625)"/>
        <path d="M 703 97 
L 703 672 
Q 941 559 1184 500 
Q 1428 441 1663 441 
Q 2288 441 2617 861 
Q 2947 1281 2994 2138 
Q 2813 1869 2534 1725 
Q 2256 1581 1919 1581 
Q 1219 1581 811 2004 
Q 403 2428 403 3163 
Q 403 3881 828 4315 
Q 1253 4750 1959 4750 
Q 2769 4750 3195 4129 
Q 3622 3509 3622 2328 
Q 3622 1225 3098 567 
Q 2575 -91 1691 -91 
Q 1453 -91 1209 -44 
Q 966 3 703 97 
z
M 1959 2075 
Q 2384 2075 2632 2365 
Q 2881 2656 2881 3163 
Q 2881 3666 2632 3958 
Q 2384 4250 1959 4250 
Q 1534 4250 1286 3958 
Q 1038 3666 1038 3163 
Q 1038 2656 1286 2365 
Q 1534 2075 1959 2075 
z
" id="DejaVuSans-39" transform="scale(0.015625)"/>
       </defs>
       <use xlink:href="#DejaVuSans-32"/>
       <use x="63.623047" xlink:href="#DejaVuSans-30"/>
       <use x="127.246094" xlink:href="#DejaVuSans-32"/>
       <use x="190.869141" xlink:href="#DejaVuSans-31"/>
       <use x="254.492188" xlink:href="#DejaVuSans-2d"/>
       <use x="290.576172" xlink:href="#DejaVuSans-30"/>
       <use x="354.199219" xlink:href="#DejaVuSans-39"/>
      </g>
     </g>
    </g>
    <g id="xtick_2">
     <g id="line2d_2">
      <g>
       <use style="stroke:#000000;stroke-width:0.8;" x="145.36678" xlink:href="#mc666a1ed00" y="276.48"/>
      </g>
     </g>
     <g id="text_2">
      <!-- 2021-10 -->
      <g transform="translate(108.141959 310.951846)rotate(-30)scale(0.1 -0.1)">
       <use xlink:href="#DejaVuSans-32"/>
       <use x="63.623047" xlink:href="#DejaVuSans-30"/>
       <use x="127.246094" xlink:href="#DejaVuSans-32"/>
       <use x="190.869141" xlink:href="#DejaVuSans-31"/>
       <use x="254.492188" xlink:href="#DejaVuSans-2d"/>
       <use x="290.576172" xlink:href="#DejaVuSans-31"/>
       <use x="354.199219" xlink:href="#DejaVuSans-30"/>
      </g>
     </g>
    </g>
    <g id="xtick_3">
     <g id="line2d_3">
      <g>
       <use style="stroke:#000000;stroke-width:0.8;" x="202.22718" xlink:href="#mc666a1ed00" y="276.48"/>
      </g>
     </g>
     <g id="text_3">
      <!-- 2021-11 -->
      <g transform="translate(165.002359 310.951846)rotate(-30)scale(0.1 -0.1)">
       <use xlink:href="#DejaVuSans-32"/>
       <use x="63.623047" xlink:href="#DejaVuSans-30"/>
       <use x="127.246094" xlink:href="#DejaVuSans-32"/>
       <use x="190.869141" xlink:href="#DejaVuSans-31"/>
       <use x="254.492188" xlink:href="#DejaVuSans-2d"/>
       <use x="290.576172" xlink:href="#DejaVuSans-31"/>
       <use x="354.199219" xlink:href="#DejaVuSans-31"/>
      </g>
     </g>
    </g>
    <g id="xtick_4">
     <g id="line2d_4">
      <g>
       <use style="stroke:#000000;stroke-width:0.8;" x="257.253374" xlink:href="#mc666a1ed00" y="276.48"/>
      </g>
     </g>
     <g id="text_4">
      <!-- 2021-12 -->
      <g transform="translate(220.028554 310.951846)rotate(-30)scale(0.1 -0.1)">
       <use xlink:href="#DejaVuSans-32"/>
       <use x="63.623047" xlink:href="#DejaVuSans-30"/>
       <use x="127.246094" xlink:href="#DejaVuSans-32"/>
       <use x="190.869141" xlink:href="#DejaVuSans-31"/>
       <use x="254.492188" xlink:href="#DejaVuSans-2d"/>
       <use x="290.576172" xlink:href="#DejaVuSans-31"/>
       <use x="354.199219" xlink:href="#DejaVuSans-32"/>
      </g>
     </g>
    </g>
    <g id="xtick_5">
     <g id="line2d_5">
      <g>
       <use style="stroke:#000000;stroke-width:0.8;" x="314.113775" xlink:href="#mc666a1ed00" y="276.48"/>
      </g>
     </g>
     <g id="text_5">
      <!-- 2022-01 -->
      <g transform="translate(276.888954 310.951846)rotate(-30)scale(0.1 -0.1)">
       <use xlink:href="#DejaVuSans-32"/>
       <use x="63.623047" xlink:href="#DejaVuSans-30"/>
       <use x="127.246094" xlink:href="#DejaVuSans-32"/>
       <use x="190.869141" xlink:href="#DejaVuSans-32"/>
       <use x="254.492188" xlink:href="#DejaVuSans-2d"/>
       <use x="290.576172" xlink:href="#DejaVuSans-30"/>
       <use x="354.199219" xlink:href="#DejaVuSans-31"/>
      </g>
     </g>
    </g>
    <g id="xtick_6">
     <g id="line2d_6">
      <g>
       <use style="stroke:#000000;stroke-width:0.8;" x="370.974176" xlink:href="#mc666a1ed00" y="276.48"/>
      </g>
     </g>
     <g id="text_6">
      <!-- 2022-02 -->
      <g transform="translate(333.749355 310.951846)rotate(-30)scale(0.1 -0.1)">
       <use xlink:href="#DejaVuSans-32"/>
       <use x="63.623047" xlink:href="#DejaVuSans-30"/>
       <use x="127.246094" xlink:href="#DejaVuSans-32"/>
       <use x="190.869141" xlink:href="#DejaVuSans-32"/>
       <use x="254.492188" xlink:href="#DejaVuSans-2d"/>
       <use x="290.576172" xlink:href="#DejaVuSans-30"/>
       <use x="354.199219" xlink:href="#DejaVuSans-32"/>
      </g>
     </g>
    </g>
    <g id="text_7">
     <!-- date -->
     <g transform="translate(224.885 324.351346)scale(0.1 -0.1)">
      <defs>
       <path d="M 2906 2969 
L 2906 4863 
L 3481 4863 
L 3481 0 
L 2906 0 
L 2906 525 
Q 2725 213 2448 61 
Q 2172 -91 1784 -91 
Q 1150 -91 751 415 
Q 353 922 353 1747 
Q 353 2572 751 3078 
Q 1150 3584 1784 3584 
Q 2172 3584 2448 3432 
Q 2725 3281 2906 2969 
z
M 947 1747 
Q 947 1113 1208 752 
Q 1469 391 1925 391 
Q 2381 391 2643 752 
Q 2906 1113 2906 1747 
Q 2906 2381 2643 2742 
Q 2381 3103 1925 3103 
Q 1469 3103 1208 2742 
Q 947 2381 947 1747 
z
" id="DejaVuSans-64" transform="scale(0.015625)"/>
       <path d="M 2194 1759 
Q 1497 1759 1228 1600 
Q 959 1441 959 1056 
Q 959 750 1161 570 
Q 1363 391 1709 391 
Q 2188 391 2477 730 
Q 2766 1069 2766 1631 
L 2766 1759 
L 2194 1759 
z
M 3341 1997 
L 3341 0 
L 2766 0 
L 2766 531 
Q 2569 213 2275 61 
Q 1981 -91 1556 -91 
Q 1019 -91 701 211 
Q 384 513 384 1019 
Q 384 1609 779 1909 
Q 1175 2209 1959 2209 
L 2766 2209 
L 2766 2266 
Q 2766 2663 2505 2880 
Q 2244 3097 1772 3097 
Q 1472 3097 1187 3025 
Q 903 2953 641 2809 
L 641 3341 
Q 956 3463 1253 3523 
Q 1550 3584 1831 3584 
Q 2591 3584 2966 3190 
Q 3341 2797 3341 1997 
z
" id="DejaVuSans-61" transform="scale(0.015625)"/>
       <path d="M 1172 4494 
L 1172 3500 
L 2356 3500 
L 2356 3053 
L 1172 3053 
L 1172 1153 
Q 1172 725 1289 603 
Q 1406 481 1766 481 
L 2356 481 
L 2356 0 
L 1766 0 
Q 1100 0 847 248 
Q 594 497 594 1153 
L 594 3053 
L 172 3053 
L 172 3500 
L 594 3500 
L 594 4494 
L 1172 4494 
z
" id="DejaVuSans-74" transform="scale(0.015625)"/>
       <path d="M 3597 1894 
L 3597 1613 
L 953 1613 
Q 991 1019 1311 708 
Q 1631 397 2203 397 
Q 2534 397 2845 478 
Q 3156 559 3463 722 
L 3463 178 
Q 3153 47 2828 -22 
Q 2503 -91 2169 -91 
Q 1331 -91 842 396 
Q 353 884 353 1716 
Q 353 2575 817 3079 
Q 1281 3584 2069 3584 
Q 2775 3584 3186 3129 
Q 3597 2675 3597 1894 
z
M 3022 2063 
Q 3016 2534 2758 2815 
Q 2500 3097 2075 3097 
Q 1594 3097 1305 2825 
Q 1016 2553 972 2059 
L 3022 2063 
z
" id="DejaVuSans-65" transform="scale(0.015625)"/>
      </defs>
      <use xlink:href="#DejaVuSans-64"/>
      <use x="63.476562" xlink:href="#DejaVuSans-61"/>
      <use x="124.755859" xlink:href="#DejaVuSans-74"/>
      <use x="163.964844" xlink:href="#DejaVuSans-65"/>
     </g>
    </g>
   </g>
   <g id="matplotlib.axis_2">
    <g id="ytick_1">
     <g id="line2d_7">
      <defs>
       <path d="M 0 0 
L -3.5 0 
" id="m3aab202d9d" style="stroke:#000000;stroke-width:0.8;"/>
      </defs>
      <g>
       <use style="stroke:#000000;stroke-width:0.8;" x="57.6" xlink:href="#m3aab202d9d" y="253.072723"/>
      </g>
     </g>
     <g id="text_8">
      <!-- 90000 -->
      <g transform="translate(18.7875 256.871942)scale(0.1 -0.1)">
       <use xlink:href="#DejaVuSans-39"/>
       <use x="63.623047" xlink:href="#DejaVuSans-30"/>
       <use x="127.246094" xlink:href="#DejaVuSans-30"/>
       <use x="190.869141" xlink:href="#DejaVuSans-30"/>
       <use x="254.492188" xlink:href="#DejaVuSans-30"/>
      </g>
     </g>
    </g>
    <g id="ytick_2">
     <g id="line2d_8">
      <g>
       <use style="stroke:#000000;stroke-width:0.8;" x="57.6" xlink:href="#m3aab202d9d" y="216.051745"/>
      </g>
     </g>
     <g id="text_9">
      <!-- 95000 -->
      <g transform="translate(18.7875 219.850964)scale(0.1 -0.1)">
       <defs>
        <path d="M 691 4666 
L 3169 4666 
L 3169 4134 
L 1269 4134 
L 1269 2991 
Q 1406 3038 1543 3061 
Q 1681 3084 1819 3084 
Q 2600 3084 3056 2656 
Q 3513 2228 3513 1497 
Q 3513 744 3044 326 
Q 2575 -91 1722 -91 
Q 1428 -91 1123 -41 
Q 819 9 494 109 
L 494 744 
Q 775 591 1075 516 
Q 1375 441 1709 441 
Q 2250 441 2565 725 
Q 2881 1009 2881 1497 
Q 2881 1984 2565 2268 
Q 2250 2553 1709 2553 
Q 1456 2553 1204 2497 
Q 953 2441 691 2322 
L 691 4666 
z
" id="DejaVuSans-35" transform="scale(0.015625)"/>
       </defs>
       <use xlink:href="#DejaVuSans-39"/>
       <use x="63.623047" xlink:href="#DejaVuSans-35"/>
       <use x="127.246094" xlink:href="#DejaVuSans-30"/>
       <use x="190.869141" xlink:href="#DejaVuSans-30"/>
       <use x="254.492188" xlink:href="#DejaVuSans-30"/>
      </g>
     </g>
    </g>
    <g id="ytick_3">
     <g id="line2d_9">
      <g>
       <use style="stroke:#000000;stroke-width:0.8;" x="57.6" xlink:href="#m3aab202d9d" y="179.030767"/>
      </g>
     </g>
     <g id="text_10">
      <!-- 100000 -->
      <g transform="translate(12.425 182.829985)scale(0.1 -0.1)">
       <use xlink:href="#DejaVuSans-31"/>
       <use x="63.623047" xlink:href="#DejaVuSans-30"/>
       <use x="127.246094" xlink:href="#DejaVuSans-30"/>
       <use x="190.869141" xlink:href="#DejaVuSans-30"/>
       <use x="254.492188" xlink:href="#DejaVuSans-30"/>
       <use x="318.115234" xlink:href="#DejaVuSans-30"/>
      </g>
     </g>
    </g>
    <g id="ytick_4">
     <g id="line2d_10">
      <g>
       <use style="stroke:#000000;stroke-width:0.8;" x="57.6" xlink:href="#m3aab202d9d" y="142.009788"/>
      </g>
     </g>
     <g id="text_11">
      <!-- 105000 -->
      <g transform="translate(12.425 145.809007)scale(0.1 -0.1)">
       <use xlink:href="#DejaVuSans-31"/>
       <use x="63.623047" xlink:href="#DejaVuSans-30"/>
       <use x="127.246094" xlink:href="#DejaVuSans-35"/>
       <use x="190.869141" xlink:href="#DejaVuSans-30"/>
       <use x="254.492188" xlink:href="#DejaVuSans-30"/>
       <use x="318.115234" xlink:href="#DejaVuSans-30"/>
      </g>
     </g>
    </g>
    <g id="ytick_5">
     <g id="line2d_11">
      <g>
       <use style="stroke:#000000;stroke-width:0.8;" x="57.6" xlink:href="#m3aab202d9d" y="104.98881"/>
      </g>
     </g>
     <g id="text_12">
      <!-- 110000 -->
      <g transform="translate(12.425 108.788029)scale(0.1 -0.1)">
       <use xlink:href="#DejaVuSans-31"/>
       <use x="63.623047" xlink:href="#DejaVuSans-31"/>
       <use x="127.246094" xlink:href="#DejaVuSans-30"/>
       <use x="190.869141" xlink:href="#DejaVuSans-30"/>
       <use x="254.492188" xlink:href="#DejaVuSans-30"/>
       <use x="318.115234" xlink:href="#DejaVuSans-30"/>
      </g>
     </g>
    </g>
    <g id="ytick_6">
     <g id="line2d_12">
      <g>
       <use style="stroke:#000000;stroke-width:0.8;" x="57.6" xlink:href="#m3aab202d9d" y="67.967832"/>
      </g>
     </g>
     <g id="text_13">
      <!-- 115000 -->
      <g transform="translate(12.425 71.767051)scale(0.1 -0.1)">
       <use xlink:href="#DejaVuSans-31"/>
       <use x="63.623047" xlink:href="#DejaVuSans-31"/>
       <use x="127.246094" xlink:href="#DejaVuSans-35"/>
       <use x="190.869141" xlink:href="#DejaVuSans-30"/>
       <use x="254.492188" xlink:href="#DejaVuSans-30"/>
       <use x="318.115234" xlink:href="#DejaVuSans-30"/>
      </g>
     </g>
    </g>
   </g>
   <g id="line2d_13">
    <path clip-path="url(#pef6f859855)" d="M 73.832727 179.030767 
L 75.666934 179.599959 
L 77.50114 176.738785 
L 79.335347 180.624532 
L 81.169553 173.603803 
L 86.672173 169.46335 
L 88.506379 167.805198 
L 90.340586 170.113965 
L 92.174792 168.568744 
L 94.008998 169.414917 
L 101.345824 169.52301 
L 103.180031 172.162629 
L 105.014237 174.377917 
L 106.848444 180.560139 
L 112.351063 174.770596 
L 114.18527 185.408085 
L 116.019476 180.107274 
L 117.853683 181.399668 
L 119.687889 188.145762 
L 125.190508 201.732136 
L 127.024715 203.19821 
L 128.858921 197.632059 
L 130.693128 186.223502 
L 132.527334 179.841347 
L 138.029954 174.088084 
L 139.86416 190.205079 
L 141.698367 187.468818 
L 143.532573 193.303483 
L 145.36678 181.908252 
L 150.869399 195.676576 
L 152.703606 184.810152 
L 154.537812 181.787608 
L 156.372018 181.885362 
L 158.206225 180.74169 
L 163.708844 179.717292 
L 165.543051 179.296836 
L 167.377257 188.462126 
L 169.211464 174.348033 
L 171.04567 173.103203 
L 176.54829 167.048007 
L 178.382496 159.697061 
L 180.216703 156.883628 
L 182.050909 169.447524 
L 183.885116 179.328394 
L 189.387735 178.670682 
L 191.221941 185.299318 
L 193.056148 186.623838 
L 194.890354 177.244315 
L 196.724561 187.002767 
L 202.22718 171.709868 
L 204.061387 172.015392 
L 205.895593 164.580973 
L 207.7298 173.407283 
L 209.564006 168.542176 
L 215.066626 167.908286 
L 216.900832 177.405833 
L 218.735039 176.608596 
L 220.569245 182.802302 
L 222.403451 176.918245 
L 227.906071 175.293297 
L 229.740277 175.361346 
L 231.574484 178.946753 
L 233.40869 180.884811 
L 235.242897 181.438361 
L 240.745516 176.712016 
L 242.579723 170.604622 
L 244.413929 171.073896 
L 248.082342 171.154588 
L 253.584961 177.715537 
L 255.419168 192.007791 
L 257.253374 202.078173 
L 259.087581 192.803179 
L 260.921787 197.73526 
L 266.424407 184.256353 
L 268.258613 170.85974 
L 270.09282 164.753768 
L 271.927026 164.87479 
L 273.761233 162.445231 
L 279.263852 169.524507 
L 281.098059 165.443874 
L 282.932265 161.628945 
L 284.766471 158.494833 
L 286.600678 166.819977 
L 292.103297 177.658098 
L 293.937504 159.853797 
L 295.77171 156.457843 
L 297.605917 149.720448 
L 304.942743 139.735614 
L 306.776949 140.611784 
L 308.611156 140.397053 
L 310.445362 141.534637 
L 312.279569 145.139734 
L 317.782188 133.079312 
L 319.616394 123.377429 
L 321.450601 143.982261 
L 323.284807 137.772569 
L 325.119014 135.091326 
L 330.621633 134.304298 
L 332.45584 127.644993 
L 334.290046 126.158669 
L 336.124253 135.897441 
L 337.958459 133.670474 
L 345.295285 150.02457 
L 347.129492 153.877408 
L 348.963698 163.03475 
L 350.797904 180.791799 
L 356.300524 179.14638 
L 358.13473 187.842987 
L 359.968937 187.639898 
L 361.803143 192.606622 
L 363.63735 173.388518 
L 369.139969 157.77579 
L 370.974176 150.889243 
L 372.808382 138.898096 
L 374.642589 188.264437 
L 376.476795 187.241681 
L 381.979414 199.658697 
L 383.813621 201.398049 
L 385.647827 185.137879 
L 387.482034 198.169052 
L 389.31624 214.176723 
L 394.81886 219.526134 
L 396.653066 210.616138 
L 398.487273 216.739049 
" style="fill:none;stroke:#0000ff;stroke-linecap:square;stroke-opacity:0.9;stroke-width:2;"/>
   </g>
   <g id="line2d_14">
    <path clip-path="url(#pef6f859855)" d="M 73.832727 179.030767 
L 75.666934 174.896436 
L 77.50114 171.847894 
L 79.335347 176.458553 
L 81.169553 167.112954 
L 86.672173 164.679841 
L 88.506379 164.007146 
L 90.340586 163.738495 
L 92.174792 165.025496 
L 94.008998 164.67051 
L 101.345824 163.44361 
L 103.180031 166.130106 
L 105.014237 167.955201 
L 106.848444 175.500186 
L 112.351063 169.988068 
L 114.18527 177.626475 
L 116.019476 174.024306 
L 117.853683 176.287754 
L 119.687889 185.14706 
L 125.190508 197.113924 
L 127.024715 197.269116 
L 128.858921 193.166774 
L 130.693128 183.76056 
L 132.527334 178.403029 
L 138.029954 173.770049 
L 139.86416 188.42233 
L 141.698367 187.440537 
L 143.532573 194.290079 
L 145.36678 183.72812 
L 150.869399 192.009096 
L 152.703606 181.452231 
L 154.537812 179.371966 
L 156.372018 177.495906 
L 158.206225 173.821667 
L 163.708844 178.476035 
L 165.543051 184.064121 
L 167.377257 186.114622 
L 169.211464 168.378531 
L 171.04567 162.971352 
L 176.54829 160.884667 
L 178.382496 154.337787 
L 180.216703 150.836424 
L 182.050909 160.471811 
L 183.885116 164.671641 
L 189.387735 166.328364 
L 191.221941 170.207308 
L 193.056148 174.48503 
L 194.890354 164.326046 
L 196.724561 162.616408 
L 202.22718 162.689466 
L 204.061387 159.547521 
L 205.895593 153.642366 
L 207.7298 155.228812 
L 209.564006 155.697628 
L 215.066626 154.635669 
L 216.900832 160.133157 
L 218.735039 164.257902 
L 220.569245 163.885846 
L 222.403451 159.51001 
L 227.906071 157.162361 
L 229.740277 159.210097 
L 231.574484 159.486628 
L 233.40869 159.812959 
L 235.242897 162.729984 
L 240.745516 159.678367 
L 242.579723 151.671516 
L 244.413929 151.450779 
L 248.082342 170.910228 
L 253.584961 163.042577 
L 255.419168 179.087016 
L 257.253374 187.583512 
L 259.087581 177.05947 
L 260.921787 183.416069 
L 266.424407 172.171619 
L 268.258613 159.061689 
L 270.09282 155.294639 
L 271.927026 155.45239 
L 273.761233 150.716583 
L 279.263852 158.435227 
L 281.098059 158.29674 
L 282.932265 152.469349 
L 284.766471 151.768123 
L 286.600678 161.995922 
L 292.103297 170.443506 
L 293.937504 155.953668 
L 295.77171 151.652765 
L 297.605917 145.109977 
L 304.942743 134.926788 
L 306.776949 135.60036 
L 308.611156 135.272225 
L 310.445362 136.603368 
L 312.279569 139.193121 
L 317.782188 130.568949 
L 319.616394 122.972185 
L 321.450601 140.655021 
L 323.284807 137.127078 
L 325.119014 132.808422 
L 330.621633 133.547369 
L 332.45584 129.336893 
L 334.290046 129.240914 
L 336.124253 135.308906 
L 337.958459 135.73785 
L 345.295285 152.622307 
L 347.129492 160.298177 
L 348.963698 167.370951 
L 350.797904 182.818847 
L 356.300524 184.085976 
L 358.13473 182.075615 
L 359.968937 183.364479 
L 361.803143 189.939244 
L 363.63735 172.191793 
L 369.139969 160.604663 
L 370.974176 151.488838 
L 372.808382 139.195501 
L 374.642589 173.429774 
L 376.476795 167.49975 
L 381.979414 172.227889 
L 383.813621 167.569794 
L 385.647827 160.444545 
L 387.482034 173.412216 
L 389.31624 189.058691 
L 394.81886 195.791999 
L 396.653066 186.940368 
L 398.487273 188.528737 
" style="fill:none;stroke:#ff0000;stroke-linecap:square;stroke-opacity:0.9;stroke-width:2;"/>
   </g>
   <g id="line2d_15">
    <path clip-path="url(#pef6f859855)" d="M 73.832727 179.030767 
L 75.666934 174.782699 
L 77.50114 172.374603 
L 79.335347 176.293503 
L 81.169553 169.088619 
L 86.672173 164.569804 
L 88.506379 162.691758 
L 90.340586 164.464272 
L 92.174792 163.864959 
L 94.008998 163.752233 
L 101.345824 164.288659 
L 103.180031 166.850193 
L 105.014237 168.786587 
L 106.848444 175.1964 
L 112.351063 169.253361 
L 114.18527 179.779288 
L 116.019476 174.9071 
L 117.853683 175.388061 
L 119.687889 182.651641 
L 125.190508 194.954766 
L 127.024715 196.987197 
L 128.858921 191.814059 
L 130.693128 180.074143 
L 132.527334 173.703643 
L 138.029954 166.769965 
L 139.86416 183.152575 
L 141.698367 180.227021 
L 143.532573 185.620737 
L 145.36678 174.911176 
L 150.869399 188.748416 
L 152.703606 177.138328 
L 154.537812 174.505505 
L 156.372018 172.14585 
L 158.206225 169.212975 
L 163.708844 173.671252 
L 165.543051 179.530306 
L 167.377257 180.5843 
L 169.211464 165.931927 
L 171.04567 164.941395 
L 176.54829 158.552188 
L 178.382496 151.305426 
L 180.216703 148.074656 
L 182.050909 160.463656 
L 183.885116 170.228624 
L 189.387735 169.32903 
L 191.221941 176.241801 
L 193.056148 178.423412 
L 194.890354 168.499043 
L 196.724561 167.325417 
L 202.22718 163.453282 
L 204.061387 162.463454 
L 205.895593 156.367299 
L 207.7298 155.512003 
L 209.564006 150.000144 
L 215.066626 149.545782 
L 216.900832 159.332761 
L 218.735039 164.680435 
L 220.569245 164.941055 
L 222.403451 158.926433 
L 227.906071 156.742497 
L 229.740277 160.838632 
L 231.574484 160.959587 
L 233.40869 162.991442 
L 235.242897 162.660095 
L 240.745516 157.859028 
L 242.579723 151.772221 
L 244.413929 152.538435 
L 248.082342 169.595104 
L 253.584961 160.076983 
L 255.419168 174.541654 
L 257.253374 184.869389 
L 259.087581 176.101597 
L 260.921787 181.072664 
L 266.424407 167.409394 
L 268.258613 153.462135 
L 270.09282 147.697578 
L 271.927026 147.242615 
L 273.761233 144.695564 
L 279.263852 151.688945 
L 281.098059 147.931384 
L 282.932265 143.549891 
L 284.766471 141.235366 
L 286.600678 149.999019 
L 292.103297 160.338098 
L 293.937504 142.607301 
L 295.77171 138.829413 
L 297.605917 131.769101 
L 304.942743 122.191772 
L 306.776949 122.472193 
L 308.611156 122.131973 
L 310.445362 123.464495 
L 312.279569 127.510881 
L 317.782188 114.856562 
L 319.616394 104.962915 
L 321.450601 125.647384 
L 323.284807 118.076608 
L 325.119014 115.26593 
L 330.621633 113.393813 
L 332.45584 106.198839 
L 334.290046 104.194713 
L 336.124253 114.372391 
L 337.958459 112.001722 
L 345.295285 128.736149 
L 347.129492 132.917264 
L 348.963698 141.952505 
L 350.797904 160.024934 
L 356.300524 158.382625 
L 358.13473 167.676069 
L 359.968937 167.7782 
L 361.803143 172.342407 
L 363.63735 153.215318 
L 369.139969 136.397168 
L 370.974176 129.254469 
L 372.808382 116.009652 
L 374.642589 169.182687 
L 376.476795 168.756982 
L 381.979414 181.352133 
L 383.813621 183.471935 
L 385.647827 166.550277 
L 387.482034 180.185857 
L 389.31624 196.55135 
L 394.81886 201.671388 
L 396.653066 192.719004 
L 398.487273 196.597403 
" style="fill:none;stroke:#ff8040;stroke-linecap:square;stroke-opacity:0.9;stroke-width:2;"/>
   </g>
   <g id="line2d_16">
    <path clip-path="url(#pef6f859855)" d="M 73.832727 179.771186 
L 75.666934 177.3223 
L 77.50114 177.079637 
L 79.335347 181.034556 
L 81.169553 173.959347 
L 86.672173 175.534003 
L 88.506379 173.545698 
L 90.340586 175.996675 
L 92.174792 178.470037 
L 94.008998 178.036698 
L 101.345824 177.535356 
L 103.180031 180.338213 
L 105.014237 181.72868 
L 106.848444 190.287406 
L 112.351063 184.552902 
L 114.18527 190.829116 
L 116.019476 187.884073 
L 117.853683 190.680496 
L 119.687889 201.57803 
L 125.190508 214.116203 
L 127.024715 213.954145 
L 128.858921 208.667821 
L 130.693128 199.764503 
L 132.527334 193.607876 
L 138.029954 197.268012 
L 139.86416 215.787583 
L 141.698367 214.835282 
L 143.532573 221.574716 
L 145.36678 210.568709 
L 150.869399 214.682326 
L 152.703606 207.36443 
L 154.537812 205.46552 
L 156.372018 200.974051 
L 158.206225 197.747059 
L 163.708844 202.925918 
L 165.543051 207.040063 
L 167.377257 209.112851 
L 169.211464 192.701088 
L 171.04567 188.519305 
L 176.54829 183.235576 
L 178.382496 179.63562 
L 180.216703 176.312543 
L 182.050909 193.606185 
L 183.885116 195.729867 
L 189.387735 200.444521 
L 191.221941 204.381324 
L 193.056148 216.278378 
L 194.890354 204.587695 
L 196.724561 207.278242 
L 202.22718 206.409237 
L 204.061387 203.543964 
L 205.895593 196.117094 
L 207.7298 197.383929 
L 209.564006 197.17939 
L 215.066626 198.907798 
L 216.900832 205.184697 
L 218.735039 205.146124 
L 220.569245 205.335317 
L 222.403451 199.954871 
L 227.906071 196.594578 
L 229.740277 197.686292 
L 231.574484 197.266834 
L 233.40869 197.646571 
L 235.242897 200.051579 
L 240.745516 203.704248 
L 242.579723 196.341746 
L 244.413929 196.089805 
L 248.082342 212.732152 
L 253.584961 203.697149 
L 255.419168 220.670459 
L 257.253374 232.088119 
L 259.087581 223.770587 
L 260.921787 227.587263 
L 266.424407 218.936075 
L 268.258613 203.54306 
L 270.09282 200.55557 
L 271.927026 201.794299 
L 273.761233 198.200785 
L 279.263852 203.349591 
L 281.098059 202.157349 
L 282.932265 198.355184 
L 284.766471 197.046193 
L 286.600678 205.970334 
L 292.103297 214.210071 
L 293.937504 202.149094 
L 295.77171 196.547913 
L 297.605917 188.969394 
L 304.942743 178.723271 
L 306.776949 180.130058 
L 308.611156 179.112463 
L 310.445362 179.299616 
L 312.279569 184.56926 
L 317.782188 178.607267 
L 319.616394 171.674361 
L 321.450601 188.222371 
L 323.284807 187.566089 
L 325.119014 183.898079 
L 330.621633 184.167375 
L 332.45584 180.73875 
L 334.290046 180.843434 
L 336.124253 184.566892 
L 337.958459 185.634169 
L 345.295285 203.448536 
L 347.129492 211.924741 
L 348.963698 219.682103 
L 350.797904 234.541017 
L 356.300524 234.918632 
L 358.13473 235.415062 
L 359.968937 239.61624 
L 361.803143 245.920109 
L 363.63735 231.366646 
L 369.139969 219.67975 
L 370.974176 210.297682 
L 372.808382 197.429729 
L 374.642589 233.104617 
L 376.476795 229.362485 
L 381.979414 235.959506 
L 383.813621 236.295689 
L 385.647827 232.867016 
L 387.482034 242.193206 
L 389.31624 257.403714 
L 394.81886 265.797818 
L 396.653066 260.422089 
L 398.487273 262.225407 
" style="fill:none;stroke:#0d0d0d;stroke-linecap:square;stroke-opacity:0.25;stroke-width:2;"/>
   </g>
   <g id="line2d_17">
    <path clip-path="url(#pef6f859855)" d="M 73.832727 178.290347 
L 75.666934 172.086906 
L 77.50114 167.929907 
L 79.335347 171.997014 
L 81.169553 161.213544 
L 86.672173 157.417007 
L 88.506379 155.914424 
L 90.340586 154.766476 
L 92.174792 154.754239 
L 94.008998 154.771964 
L 101.345824 149.229755 
L 103.180031 150.186985 
L 105.014237 151.309444 
L 106.848444 158.735621 
L 112.351063 152.132914 
L 114.18527 159.469824 
L 116.019476 156.51167 
L 117.853683 157.966665 
L 119.687889 166.185663 
L 125.190508 176.736464 
L 127.024715 176.800471 
L 128.858921 169.822742 
L 130.693128 159.682882 
L 132.527334 152.955918 
L 138.029954 145.96391 
L 139.86416 155.369746 
L 141.698367 155.296088 
L 143.532573 163.444248 
L 145.36678 153.373122 
L 150.869399 160.05752 
L 152.703606 149.152377 
L 154.537812 144.861562 
L 156.372018 143.148519 
L 158.206225 138.727552 
L 163.708844 140.610975 
L 165.543051 146.165016 
L 167.377257 148.645183 
L 169.211464 129.700352 
L 171.04567 122.505091 
L 176.54829 118.153386 
L 178.382496 111.716789 
L 180.216703 108.707027 
L 182.050909 115.369703 
L 183.885116 118.959007 
L 189.387735 119.584393 
L 191.221941 121.507385 
L 193.056148 123.368253 
L 194.890354 111.747962 
L 196.724561 109.818744 
L 202.22718 109.79952 
L 204.061387 106.176904 
L 205.895593 99.189267 
L 207.7298 98.804247 
L 209.564006 102.761604 
L 215.066626 101.991456 
L 216.900832 111.941221 
L 218.735039 121.448042 
L 220.569245 121.282952 
L 222.403451 111.218056 
L 227.906071 111.676855 
L 229.740277 113.078767 
L 231.574484 116.923709 
L 233.40869 115.960491 
L 235.242897 118.671623 
L 240.745516 113.564349 
L 242.579723 102.509092 
L 244.413929 102.409264 
L 248.082342 122.836369 
L 253.584961 115.716666 
L 255.419168 135.527621 
L 257.253374 145.669995 
L 259.087581 131.594436 
L 260.921787 134.22542 
L 266.424407 120.494167 
L 268.258613 105.934332 
L 270.09282 102.630667 
L 271.927026 104.195144 
L 273.761233 99.112962 
L 279.263852 103.617904 
L 281.098059 101.540637 
L 282.932265 85.231407 
L 284.766471 83.751897 
L 286.600678 94.122132 
L 292.103297 102.692645 
L 293.937504 86.735172 
L 295.77171 82.24161 
L 297.605917 74.635025 
L 304.942743 67.594591 
L 306.776949 66.634872 
L 308.611156 65.693931 
L 310.445362 66.937408 
L 312.279569 70.460817 
L 317.782188 57.774869 
L 319.616394 52.154182 
L 321.450601 72.237276 
L 323.284807 70.478588 
L 325.119014 68.615736 
L 330.621633 68.792211 
L 332.45584 61.343442 
L 334.290046 61.165247 
L 336.124253 70.640241 
L 337.958459 70.117098 
L 345.295285 88.870438 
L 347.129492 93.704693 
L 348.963698 101.824163 
L 350.797904 115.352048 
L 356.300524 118.560021 
L 358.13473 111.890516 
L 359.968937 116.759246 
L 361.803143 125.038337 
L 363.63735 106.649485 
L 369.139969 95.497234 
L 370.974176 85.920842 
L 372.808382 78.299535 
L 374.642589 103.189178 
L 376.476795 99.522772 
L 381.979414 103.105568 
L 383.813621 96.553995 
L 385.647827 89.686638 
L 387.482034 105.118649 
L 389.31624 121.672211 
L 394.81886 125.613258 
L 396.653066 116.017167 
L 398.487273 116.261658 
" style="fill:none;stroke:#0d0d0d;stroke-linecap:square;stroke-opacity:0.25;stroke-width:2;"/>
   </g>
   <g id="patch_3">
    <path d="M 57.6 276.48 
L 57.6 41.472 
" style="fill:none;stroke:#000000;stroke-linecap:square;stroke-linejoin:miter;stroke-width:0.8;"/>
   </g>
   <g id="patch_4">
    <path d="M 414.72 276.48 
L 414.72 41.472 
" style="fill:none;stroke:#000000;stroke-linecap:square;stroke-linejoin:miter;stroke-width:0.8;"/>
   </g>
   <g id="patch_5">
    <path d="M 57.6 276.48 
L 414.72 276.48 
" style="fill:none;stroke:#000000;stroke-linecap:square;stroke-linejoin:miter;stroke-width:0.8;"/>
   </g>
   <g id="patch_6">
    <path d="M 57.6 41.472 
L 414.72 41.472 
" style="fill:none;stroke:#000000;stroke-linecap:square;stroke-linejoin:miter;stroke-width:0.8;"/>
   </g>
   <g id="text_14">
    <!-- TESTFUNDS1330 -->
    <g transform="translate(185.200312 22.034625)scale(0.12 -0.12)">
     <defs>
      <path d="M -19 4666 
L 3928 4666 
L 3928 4134 
L 2272 4134 
L 2272 0 
L 1638 0 
L 1638 4134 
L -19 4134 
L -19 4666 
z
" id="DejaVuSans-54" transform="scale(0.015625)"/>
      <path d="M 628 4666 
L 3578 4666 
L 3578 4134 
L 1259 4134 
L 1259 2753 
L 3481 2753 
L 3481 2222 
L 1259 2222 
L 1259 531 
L 3634 531 
L 3634 0 
L 628 0 
L 628 4666 
z
" id="DejaVuSans-45" transform="scale(0.015625)"/>
      <path d="M 3425 4513 
L 3425 3897 
Q 3066 4069 2747 4153 
Q 2428 4238 2131 4238 
Q 1616 4238 1336 4038 
Q 1056 3838 1056 3469 
Q 1056 3159 1242 3001 
Q 1428 2844 1947 2747 
L 2328 2669 
Q 3034 2534 3370 2195 
Q 3706 1856 3706 1288 
Q 3706 609 3251 259 
Q 2797 -91 1919 -91 
Q 1588 -91 1214 -16 
Q 841 59 441 206 
L 441 856 
Q 825 641 1194 531 
Q 1563 422 1919 422 
Q 2459 422 2753 634 
Q 3047 847 3047 1241 
Q 3047 1584 2836 1778 
Q 2625 1972 2144 2069 
L 1759 2144 
Q 1053 2284 737 2584 
Q 422 2884 422 3419 
Q 422 4038 858 4394 
Q 1294 4750 2059 4750 
Q 2388 4750 2728 4690 
Q 3069 4631 3425 4513 
z
" id="DejaVuSans-53" transform="scale(0.015625)"/>
      <path d="M 628 4666 
L 3309 4666 
L 3309 4134 
L 1259 4134 
L 1259 2759 
L 3109 2759 
L 3109 2228 
L 1259 2228 
L 1259 0 
L 628 0 
L 628 4666 
z
" id="DejaVuSans-46" transform="scale(0.015625)"/>
      <path d="M 556 4666 
L 1191 4666 
L 1191 1831 
Q 1191 1081 1462 751 
Q 1734 422 2344 422 
Q 2950 422 3222 751 
Q 3494 1081 3494 1831 
L 3494 4666 
L 4128 4666 
L 4128 1753 
Q 4128 841 3676 375 
Q 3225 -91 2344 -91 
Q 1459 -91 1007 375 
Q 556 841 556 1753 
L 556 4666 
z
" id="DejaVuSans-55" transform="scale(0.015625)"/>
      <path d="M 628 4666 
L 1478 4666 
L 3547 763 
L 3547 4666 
L 4159 4666 
L 4159 0 
L 3309 0 
L 1241 3903 
L 1241 0 
L 628 0 
L 628 4666 
z
" id="DejaVuSans-4e" transform="scale(0.015625)"/>
      <path d="M 1259 4147 
L 1259 519 
L 2022 519 
Q 2988 519 3436 956 
Q 3884 1394 3884 2338 
Q 3884 3275 3436 3711 
Q 2988 4147 2022 4147 
L 1259 4147 
z
M 628 4666 
L 1925 4666 
Q 3281 4666 3915 4102 
Q 4550 3538 4550 2338 
Q 4550 1131 3912 565 
Q 3275 0 1925 0 
L 628 0 
L 628 4666 
z
" id="DejaVuSans-44" transform="scale(0.015625)"/>
      <path d="M 2597 2516 
Q 3050 2419 3304 2112 
Q 3559 1806 3559 1356 
Q 3559 666 3084 287 
Q 2609 -91 1734 -91 
Q 1441 -91 1130 -33 
Q 819 25 488 141 
L 488 750 
Q 750 597 1062 519 
Q 1375 441 1716 441 
Q 2309 441 2620 675 
Q 2931 909 2931 1356 
Q 2931 1769 2642 2001 
Q 2353 2234 1838 2234 
L 1294 2234 
L 1294 2753 
L 1863 2753 
Q 2328 2753 2575 2939 
Q 2822 3125 2822 3475 
Q 2822 3834 2567 4026 
Q 2313 4219 1838 4219 
Q 1578 4219 1281 4162 
Q 984 4106 628 3988 
L 628 4550 
Q 988 4650 1302 4700 
Q 1616 4750 1894 4750 
Q 2613 4750 3031 4423 
Q 3450 4097 3450 3541 
Q 3450 3153 3228 2886 
Q 3006 2619 2597 2516 
z
" id="DejaVuSans-33" transform="scale(0.015625)"/>
     </defs>
     <use xlink:href="#DejaVuSans-54"/>
     <use x="61.083984" xlink:href="#DejaVuSans-45"/>
     <use x="124.267578" xlink:href="#DejaVuSans-53"/>
     <use x="187.744141" xlink:href="#DejaVuSans-54"/>
     <use x="248.828125" xlink:href="#DejaVuSans-46"/>
     <use x="306.347656" xlink:href="#DejaVuSans-55"/>
     <use x="379.541016" xlink:href="#DejaVuSans-4e"/>
     <use x="454.345703" xlink:href="#DejaVuSans-44"/>
     <use x="531.347656" xlink:href="#DejaVuSans-53"/>
     <use x="594.824219" xlink:href="#DejaVuSans-31"/>
     <use x="658.447266" xlink:href="#DejaVuSans-33"/>
     <use x="722.070312" xlink:href="#DejaVuSans-33"/>
     <use x="785.693359" xlink:href="#DejaVuSans-30"/>
    </g>
    <!-- daily_report -->
    <g transform="translate(200.466563 35.472)scale(0.12 -0.12)">
     <defs>
      <path d="M 603 3500 
L 1178 3500 
L 1178 0 
L 603 0 
L 603 3500 
z
M 603 4863 
L 1178 4863 
L 1178 4134 
L 603 4134 
L 603 4863 
z
" id="DejaVuSans-69" transform="scale(0.015625)"/>
      <path d="M 603 4863 
L 1178 4863 
L 1178 0 
L 603 0 
L 603 4863 
z
" id="DejaVuSans-6c" transform="scale(0.015625)"/>
      <path d="M 2059 -325 
Q 1816 -950 1584 -1140 
Q 1353 -1331 966 -1331 
L 506 -1331 
L 506 -850 
L 844 -850 
Q 1081 -850 1212 -737 
Q 1344 -625 1503 -206 
L 1606 56 
L 191 3500 
L 800 3500 
L 1894 763 
L 2988 3500 
L 3597 3500 
L 2059 -325 
z
" id="DejaVuSans-79" transform="scale(0.015625)"/>
      <path d="M 3263 -1063 
L 3263 -1509 
L -63 -1509 
L -63 -1063 
L 3263 -1063 
z
" id="DejaVuSans-5f" transform="scale(0.015625)"/>
      <path d="M 2631 2963 
Q 2534 3019 2420 3045 
Q 2306 3072 2169 3072 
Q 1681 3072 1420 2755 
Q 1159 2438 1159 1844 
L 1159 0 
L 581 0 
L 581 3500 
L 1159 3500 
L 1159 2956 
Q 1341 3275 1631 3429 
Q 1922 3584 2338 3584 
Q 2397 3584 2469 3576 
Q 2541 3569 2628 3553 
L 2631 2963 
z
" id="DejaVuSans-72" transform="scale(0.015625)"/>
      <path d="M 1159 525 
L 1159 -1331 
L 581 -1331 
L 581 3500 
L 1159 3500 
L 1159 2969 
Q 1341 3281 1617 3432 
Q 1894 3584 2278 3584 
Q 2916 3584 3314 3078 
Q 3713 2572 3713 1747 
Q 3713 922 3314 415 
Q 2916 -91 2278 -91 
Q 1894 -91 1617 61 
Q 1341 213 1159 525 
z
M 3116 1747 
Q 3116 2381 2855 2742 
Q 2594 3103 2138 3103 
Q 1681 3103 1420 2742 
Q 1159 2381 1159 1747 
Q 1159 1113 1420 752 
Q 1681 391 2138 391 
Q 2594 391 2855 752 
Q 3116 1113 3116 1747 
z
" id="DejaVuSans-70" transform="scale(0.015625)"/>
      <path d="M 1959 3097 
Q 1497 3097 1228 2736 
Q 959 2375 959 1747 
Q 959 1119 1226 758 
Q 1494 397 1959 397 
Q 2419 397 2687 759 
Q 2956 1122 2956 1747 
Q 2956 2369 2687 2733 
Q 2419 3097 1959 3097 
z
M 1959 3584 
Q 2709 3584 3137 3096 
Q 3566 2609 3566 1747 
Q 3566 888 3137 398 
Q 2709 -91 1959 -91 
Q 1206 -91 779 398 
Q 353 888 353 1747 
Q 353 2609 779 3096 
Q 1206 3584 1959 3584 
z
" id="DejaVuSans-6f" transform="scale(0.015625)"/>
     </defs>
     <use xlink:href="#DejaVuSans-64"/>
     <use x="63.476562" xlink:href="#DejaVuSans-61"/>
     <use x="124.755859" xlink:href="#DejaVuSans-69"/>
     <use x="152.539062" xlink:href="#DejaVuSans-6c"/>
     <use x="180.322266" xlink:href="#DejaVuSans-79"/>
     <use x="239.501953" xlink:href="#DejaVuSans-5f"/>
     <use x="289.501953" xlink:href="#DejaVuSans-72"/>
     <use x="328.365234" xlink:href="#DejaVuSans-65"/>
     <use x="389.888672" xlink:href="#DejaVuSans-70"/>
     <use x="453.365234" xlink:href="#DejaVuSans-6f"/>
     <use x="514.546875" xlink:href="#DejaVuSans-72"/>
     <use x="555.660156" xlink:href="#DejaVuSans-74"/>
    </g>
   </g>
   <g id="legend_1">
    <g id="patch_7">
     <path d="M 64.6 122.862625 
L 155.792188 122.862625 
Q 157.792188 122.862625 157.792188 120.862625 
L 157.792188 48.472 
Q 157.792188 46.472 155.792188 46.472 
L 64.6 46.472 
Q 62.6 46.472 62.6 48.472 
L 62.6 120.862625 
Q 62.6 122.862625 64.6 122.862625 
z
" style="fill:#ffffff;opacity:0.8;stroke:#cccccc;stroke-linejoin:miter;"/>
    </g>
    <g id="line2d_18">
     <path d="M 66.6 54.570437 
L 86.6 54.570437 
" style="fill:none;stroke:#0000ff;stroke-linecap:square;stroke-opacity:0.9;stroke-width:2;"/>
    </g>
    <g id="line2d_19"/>
    <g id="text_15">
     <!-- alpaca -->
     <g transform="translate(94.6 58.070437)scale(0.1 -0.1)">
      <defs>
       <path d="M 3122 3366 
L 3122 2828 
Q 2878 2963 2633 3030 
Q 2388 3097 2138 3097 
Q 1578 3097 1268 2742 
Q 959 2388 959 1747 
Q 959 1106 1268 751 
Q 1578 397 2138 397 
Q 2388 397 2633 464 
Q 2878 531 3122 666 
L 3122 134 
Q 2881 22 2623 -34 
Q 2366 -91 2075 -91 
Q 1284 -91 818 406 
Q 353 903 353 1747 
Q 353 2603 823 3093 
Q 1294 3584 2113 3584 
Q 2378 3584 2631 3529 
Q 2884 3475 3122 3366 
z
" id="DejaVuSans-63" transform="scale(0.015625)"/>
      </defs>
      <use xlink:href="#DejaVuSans-61"/>
      <use x="61.279297" xlink:href="#DejaVuSans-6c"/>
      <use x="89.0625" xlink:href="#DejaVuSans-70"/>
      <use x="152.539062" xlink:href="#DejaVuSans-61"/>
      <use x="213.818359" xlink:href="#DejaVuSans-63"/>
      <use x="268.798828" xlink:href="#DejaVuSans-61"/>
     </g>
    </g>
    <g id="line2d_20">
     <path d="M 66.6 69.248562 
L 86.6 69.248562 
" style="fill:none;stroke:#ff0000;stroke-linecap:square;stroke-opacity:0.9;stroke-width:2;"/>
    </g>
    <g id="line2d_21"/>
    <g id="text_16">
     <!-- mattress -->
     <g transform="translate(94.6 72.748562)scale(0.1 -0.1)">
      <defs>
       <path d="M 3328 2828 
Q 3544 3216 3844 3400 
Q 4144 3584 4550 3584 
Q 5097 3584 5394 3201 
Q 5691 2819 5691 2113 
L 5691 0 
L 5113 0 
L 5113 2094 
Q 5113 2597 4934 2840 
Q 4756 3084 4391 3084 
Q 3944 3084 3684 2787 
Q 3425 2491 3425 1978 
L 3425 0 
L 2847 0 
L 2847 2094 
Q 2847 2600 2669 2842 
Q 2491 3084 2119 3084 
Q 1678 3084 1418 2786 
Q 1159 2488 1159 1978 
L 1159 0 
L 581 0 
L 581 3500 
L 1159 3500 
L 1159 2956 
Q 1356 3278 1631 3431 
Q 1906 3584 2284 3584 
Q 2666 3584 2933 3390 
Q 3200 3197 3328 2828 
z
" id="DejaVuSans-6d" transform="scale(0.015625)"/>
       <path d="M 2834 3397 
L 2834 2853 
Q 2591 2978 2328 3040 
Q 2066 3103 1784 3103 
Q 1356 3103 1142 2972 
Q 928 2841 928 2578 
Q 928 2378 1081 2264 
Q 1234 2150 1697 2047 
L 1894 2003 
Q 2506 1872 2764 1633 
Q 3022 1394 3022 966 
Q 3022 478 2636 193 
Q 2250 -91 1575 -91 
Q 1294 -91 989 -36 
Q 684 19 347 128 
L 347 722 
Q 666 556 975 473 
Q 1284 391 1588 391 
Q 1994 391 2212 530 
Q 2431 669 2431 922 
Q 2431 1156 2273 1281 
Q 2116 1406 1581 1522 
L 1381 1569 
Q 847 1681 609 1914 
Q 372 2147 372 2553 
Q 372 3047 722 3315 
Q 1072 3584 1716 3584 
Q 2034 3584 2315 3537 
Q 2597 3491 2834 3397 
z
" id="DejaVuSans-73" transform="scale(0.015625)"/>
      </defs>
      <use xlink:href="#DejaVuSans-6d"/>
      <use x="97.412109" xlink:href="#DejaVuSans-61"/>
      <use x="158.691406" xlink:href="#DejaVuSans-74"/>
      <use x="197.900391" xlink:href="#DejaVuSans-74"/>
      <use x="237.109375" xlink:href="#DejaVuSans-72"/>
      <use x="275.972656" xlink:href="#DejaVuSans-65"/>
      <use x="337.496094" xlink:href="#DejaVuSans-73"/>
      <use x="389.595703" xlink:href="#DejaVuSans-73"/>
     </g>
    </g>
    <g id="line2d_22">
     <path d="M 66.6 83.926687 
L 86.6 83.926687 
" style="fill:none;stroke:#ff8040;stroke-linecap:square;stroke-opacity:0.9;stroke-width:2;"/>
    </g>
    <g id="line2d_23"/>
    <g id="text_17">
     <!-- trader-0850 -->
     <g transform="translate(94.6 87.426687)scale(0.1 -0.1)">
      <defs>
       <path d="M 2034 2216 
Q 1584 2216 1326 1975 
Q 1069 1734 1069 1313 
Q 1069 891 1326 650 
Q 1584 409 2034 409 
Q 2484 409 2743 651 
Q 3003 894 3003 1313 
Q 3003 1734 2745 1975 
Q 2488 2216 2034 2216 
z
M 1403 2484 
Q 997 2584 770 2862 
Q 544 3141 544 3541 
Q 544 4100 942 4425 
Q 1341 4750 2034 4750 
Q 2731 4750 3128 4425 
Q 3525 4100 3525 3541 
Q 3525 3141 3298 2862 
Q 3072 2584 2669 2484 
Q 3125 2378 3379 2068 
Q 3634 1759 3634 1313 
Q 3634 634 3220 271 
Q 2806 -91 2034 -91 
Q 1263 -91 848 271 
Q 434 634 434 1313 
Q 434 1759 690 2068 
Q 947 2378 1403 2484 
z
M 1172 3481 
Q 1172 3119 1398 2916 
Q 1625 2713 2034 2713 
Q 2441 2713 2670 2916 
Q 2900 3119 2900 3481 
Q 2900 3844 2670 4047 
Q 2441 4250 2034 4250 
Q 1625 4250 1398 4047 
Q 1172 3844 1172 3481 
z
" id="DejaVuSans-38" transform="scale(0.015625)"/>
      </defs>
      <use xlink:href="#DejaVuSans-74"/>
      <use x="39.208984" xlink:href="#DejaVuSans-72"/>
      <use x="80.322266" xlink:href="#DejaVuSans-61"/>
      <use x="141.601562" xlink:href="#DejaVuSans-64"/>
      <use x="205.078125" xlink:href="#DejaVuSans-65"/>
      <use x="266.601562" xlink:href="#DejaVuSans-72"/>
      <use x="301.339844" xlink:href="#DejaVuSans-2d"/>
      <use x="337.423828" xlink:href="#DejaVuSans-30"/>
      <use x="401.046875" xlink:href="#DejaVuSans-38"/>
      <use x="464.669922" xlink:href="#DejaVuSans-35"/>
      <use x="528.292969" xlink:href="#DejaVuSans-30"/>
     </g>
    </g>
    <g id="line2d_24">
     <path d="M 66.6 98.604812 
L 86.6 98.604812 
" style="fill:none;stroke:#0d0d0d;stroke-linecap:square;stroke-opacity:0.25;stroke-width:2;"/>
    </g>
    <g id="line2d_25"/>
    <g id="text_18">
     <!-- rando-min -->
     <g transform="translate(94.6 102.104812)scale(0.1 -0.1)">
      <defs>
       <path d="M 3513 2113 
L 3513 0 
L 2938 0 
L 2938 2094 
Q 2938 2591 2744 2837 
Q 2550 3084 2163 3084 
Q 1697 3084 1428 2787 
Q 1159 2491 1159 1978 
L 1159 0 
L 581 0 
L 581 3500 
L 1159 3500 
L 1159 2956 
Q 1366 3272 1645 3428 
Q 1925 3584 2291 3584 
Q 2894 3584 3203 3211 
Q 3513 2838 3513 2113 
z
" id="DejaVuSans-6e" transform="scale(0.015625)"/>
      </defs>
      <use xlink:href="#DejaVuSans-72"/>
      <use x="41.113281" xlink:href="#DejaVuSans-61"/>
      <use x="102.392578" xlink:href="#DejaVuSans-6e"/>
      <use x="165.771484" xlink:href="#DejaVuSans-64"/>
      <use x="229.248047" xlink:href="#DejaVuSans-6f"/>
      <use x="292.304688" xlink:href="#DejaVuSans-2d"/>
      <use x="328.388672" xlink:href="#DejaVuSans-6d"/>
      <use x="425.800781" xlink:href="#DejaVuSans-69"/>
      <use x="453.583984" xlink:href="#DejaVuSans-6e"/>
     </g>
    </g>
    <g id="line2d_26">
     <path d="M 66.6 113.282937 
L 86.6 113.282937 
" style="fill:none;stroke:#0d0d0d;stroke-linecap:square;stroke-opacity:0.25;stroke-width:2;"/>
    </g>
    <g id="line2d_27"/>
    <g id="text_19">
     <!-- rando-max -->
     <g transform="translate(94.6 116.782937)scale(0.1 -0.1)">
      <defs>
       <path d="M 3513 3500 
L 2247 1797 
L 3578 0 
L 2900 0 
L 1881 1375 
L 863 0 
L 184 0 
L 1544 1831 
L 300 3500 
L 978 3500 
L 1906 2253 
L 2834 3500 
L 3513 3500 
z
" id="DejaVuSans-78" transform="scale(0.015625)"/>
      </defs>
      <use xlink:href="#DejaVuSans-72"/>
      <use x="41.113281" xlink:href="#DejaVuSans-61"/>
      <use x="102.392578" xlink:href="#DejaVuSans-6e"/>
      <use x="165.771484" xlink:href="#DejaVuSans-64"/>
      <use x="229.248047" xlink:href="#DejaVuSans-6f"/>
      <use x="292.304688" xlink:href="#DejaVuSans-2d"/>
      <use x="328.388672" xlink:href="#DejaVuSans-6d"/>
      <use x="425.800781" xlink:href="#DejaVuSans-61"/>
      <use x="487.080078" xlink:href="#DejaVuSans-78"/>
     </g>
    </g>
   </g>
  </g>
 </g>
 <defs>
  <clipPath id="pef6f859855">
   <rect height="235.008" width="357.12" x="57.6" y="41.472"/>
  </clipPath>
 </defs>
</svg>
