<?xml version="1.0" encoding="utf-8" standalone="no"?>
<!DOCTYPE svg PUBLIC "-//W3C//DTD SVG 1.1//EN"
  "http://www.w3.org/Graphics/SVG/1.1/DTD/svg11.dtd">
<svg height="345.6pt" version="1.1" viewBox="0 0 460.8 345.6" width="460.8pt" xmlns="http://www.w3.org/2000/svg" xmlns:xlink="http://www.w3.org/1999/xlink">
 <metadata>
  <rdf:RDF xmlns:cc="http://creativecommons.org/ns#" xmlns:dc="http://purl.org/dc/elements/1.1/" xmlns:rdf="http://www.w3.org/1999/02/22-rdf-syntax-ns#">
   <cc:Work>
    <dc:type rdf:resource="http://purl.org/dc/dcmitype/StillImage"/>
    <dc:date>2022-04-23T01:01:37.334799</dc:date>
    <dc:format>image/svg+xml</dc:format>
    <dc:creator>
     <cc:Agent>
      <dc:title>Matplotlib v3.4.3, https://matplotlib.org/</dc:title>
     </cc:Agent>
    </dc:creator>
   </cc:Work>
  </rdf:RDF>
 </metadata>
 <defs>
  <style type="text/css">*{stroke-linecap:butt;stroke-linejoin:round;}</style>
 </defs>
 <g id="figure_1">
  <g id="patch_1">
   <path d="M 0 345.6 
L 460.8 345.6 
L 460.8 0 
L 0 0 
z
" style="fill:#ffffff;"/>
  </g>
  <g id="axes_1">
   <g id="patch_2">
    <path d="M 57.6 276.48 
L 414.72 276.48 
L 414.72 41.472 
L 57.6 41.472 
z
" style="fill:#ffffff;"/>
   </g>
   <g id="matplotlib.axis_1">
    <g id="xtick_1">
     <g id="line2d_1">
      <defs>
       <path d="M 0 0 
L 0 3.5 
" id="m3536d3f97e" style="stroke:#000000;stroke-width:0.8;"/>
      </defs>
      <g>
       <use style="stroke:#000000;stroke-width:0.8;" x="85.906657" xlink:href="#m3536d3f97e" y="276.48"/>
      </g>
     </g>
     <g id="text_1">
      <!-- 2021-09 -->
      <g transform="translate(48.681836 310.951846)rotate(-30)scale(0.1 -0.1)">
       <defs>
        <path d="M 1228 531 
L 3431 531 
L 3431 0 
L 469 0 
L 469 531 
Q 828 903 1448 1529 
Q 2069 2156 2228 2338 
Q 2531 2678 2651 2914 
Q 2772 3150 2772 3378 
Q 2772 3750 2511 3984 
Q 2250 4219 1831 4219 
Q 1534 4219 1204 4116 
Q 875 4013 500 3803 
L 500 4441 
Q 881 4594 1212 4672 
Q 1544 4750 1819 4750 
Q 2544 4750 2975 4387 
Q 3406 4025 3406 3419 
Q 3406 3131 3298 2873 
Q 3191 2616 2906 2266 
Q 2828 2175 2409 1742 
Q 1991 1309 1228 531 
z
" id="DejaVuSans-32" transform="scale(0.015625)"/>
        <path d="M 2034 4250 
Q 1547 4250 1301 3770 
Q 1056 3291 1056 2328 
Q 1056 1369 1301 889 
Q 1547 409 2034 409 
Q 2525 409 2770 889 
Q 3016 1369 3016 2328 
Q 3016 3291 2770 3770 
Q 2525 4250 2034 4250 
z
M 2034 4750 
Q 2819 4750 3233 4129 
Q 3647 3509 3647 2328 
Q 3647 1150 3233 529 
Q 2819 -91 2034 -91 
Q 1250 -91 836 529 
Q 422 1150 422 2328 
Q 422 3509 836 4129 
Q 1250 4750 2034 4750 
z
" id="DejaVuSans-30" transform="scale(0.015625)"/>
        <path d="M 794 531 
L 1825 531 
L 1825 4091 
L 703 3866 
L 703 4441 
L 1819 4666 
L 2450 4666 
L 2450 531 
L 3481 531 
L 3481 0 
L 794 0 
L 794 531 
z
" id="DejaVuSans-31" transform="scale(0.015625)"/>
        <path d="M 313 2009 
L 1997 2009 
L 1997 1497 
L 313 1497 
L 313 2009 
z
" id="DejaVuSans-2d" transform="scale(0.015625)"/>
        <path d="M 703 97 
L 703 672 
Q 941 559 1184 500 
Q 1428 441 1663 441 
Q 2288 441 2617 861 
Q 2947 1281 2994 2138 
Q 2813 1869 2534 1725 
Q 2256 1581 1919 1581 
Q 1219 1581 811 2004 
Q 403 2428 403 3163 
Q 403 3881 828 4315 
Q 1253 4750 1959 4750 
Q 2769 4750 3195 4129 
Q 3622 3509 3622 2328 
Q 3622 1225 3098 567 
Q 2575 -91 1691 -91 
Q 1453 -91 1209 -44 
Q 966 3 703 97 
z
M 1959 2075 
Q 2384 2075 2632 2365 
Q 2881 2656 2881 3163 
Q 2881 3666 2632 3958 
Q 2384 4250 1959 4250 
Q 1534 4250 1286 3958 
Q 1038 3666 1038 3163 
Q 1038 2656 1286 2365 
Q 1534 2075 1959 2075 
z
" id="DejaVuSans-39" transform="scale(0.015625)"/>
       </defs>
       <use xlink:href="#DejaVuSans-32"/>
       <use x="63.623047" xlink:href="#DejaVuSans-30"/>
       <use x="127.246094" xlink:href="#DejaVuSans-32"/>
       <use x="190.869141" xlink:href="#DejaVuSans-31"/>
       <use x="254.492188" xlink:href="#DejaVuSans-2d"/>
       <use x="290.576172" xlink:href="#DejaVuSans-30"/>
       <use x="354.199219" xlink:href="#DejaVuSans-39"/>
      </g>
     </g>
    </g>
    <g id="xtick_2">
     <g id="line2d_2">
      <g>
       <use style="stroke:#000000;stroke-width:0.8;" x="126.153088" xlink:href="#m3536d3f97e" y="276.48"/>
      </g>
     </g>
     <g id="text_2">
      <!-- 2021-10 -->
      <g transform="translate(88.928267 310.951846)rotate(-30)scale(0.1 -0.1)">
       <use xlink:href="#DejaVuSans-32"/>
       <use x="63.623047" xlink:href="#DejaVuSans-30"/>
       <use x="127.246094" xlink:href="#DejaVuSans-32"/>
       <use x="190.869141" xlink:href="#DejaVuSans-31"/>
       <use x="254.492188" xlink:href="#DejaVuSans-2d"/>
       <use x="290.576172" xlink:href="#DejaVuSans-31"/>
       <use x="354.199219" xlink:href="#DejaVuSans-30"/>
      </g>
     </g>
    </g>
    <g id="xtick_3">
     <g id="line2d_3">
      <g>
       <use style="stroke:#000000;stroke-width:0.8;" x="167.741067" xlink:href="#m3536d3f97e" y="276.48"/>
      </g>
     </g>
     <g id="text_3">
      <!-- 2021-11 -->
      <g transform="translate(130.516246 310.951846)rotate(-30)scale(0.1 -0.1)">
       <use xlink:href="#DejaVuSans-32"/>
       <use x="63.623047" xlink:href="#DejaVuSans-30"/>
       <use x="127.246094" xlink:href="#DejaVuSans-32"/>
       <use x="190.869141" xlink:href="#DejaVuSans-31"/>
       <use x="254.492188" xlink:href="#DejaVuSans-2d"/>
       <use x="290.576172" xlink:href="#DejaVuSans-31"/>
       <use x="354.199219" xlink:href="#DejaVuSans-31"/>
      </g>
     </g>
    </g>
    <g id="xtick_4">
     <g id="line2d_4">
      <g>
       <use style="stroke:#000000;stroke-width:0.8;" x="207.987498" xlink:href="#m3536d3f97e" y="276.48"/>
      </g>
     </g>
     <g id="text_4">
      <!-- 2021-12 -->
      <g transform="translate(170.762677 310.951846)rotate(-30)scale(0.1 -0.1)">
       <use xlink:href="#DejaVuSans-32"/>
       <use x="63.623047" xlink:href="#DejaVuSans-30"/>
       <use x="127.246094" xlink:href="#DejaVuSans-32"/>
       <use x="190.869141" xlink:href="#DejaVuSans-31"/>
       <use x="254.492188" xlink:href="#DejaVuSans-2d"/>
       <use x="290.576172" xlink:href="#DejaVuSans-31"/>
       <use x="354.199219" xlink:href="#DejaVuSans-32"/>
      </g>
     </g>
    </g>
    <g id="xtick_5">
     <g id="line2d_5">
      <g>
       <use style="stroke:#000000;stroke-width:0.8;" x="249.575477" xlink:href="#m3536d3f97e" y="276.48"/>
      </g>
     </g>
     <g id="text_5">
      <!-- 2022-01 -->
      <g transform="translate(212.350656 310.951846)rotate(-30)scale(0.1 -0.1)">
       <use xlink:href="#DejaVuSans-32"/>
       <use x="63.623047" xlink:href="#DejaVuSans-30"/>
       <use x="127.246094" xlink:href="#DejaVuSans-32"/>
       <use x="190.869141" xlink:href="#DejaVuSans-32"/>
       <use x="254.492188" xlink:href="#DejaVuSans-2d"/>
       <use x="290.576172" xlink:href="#DejaVuSans-30"/>
       <use x="354.199219" xlink:href="#DejaVuSans-31"/>
      </g>
     </g>
    </g>
    <g id="xtick_6">
     <g id="line2d_6">
      <g>
       <use style="stroke:#000000;stroke-width:0.8;" x="291.163456" xlink:href="#m3536d3f97e" y="276.48"/>
      </g>
     </g>
     <g id="text_6">
      <!-- 2022-02 -->
      <g transform="translate(253.938635 310.951846)rotate(-30)scale(0.1 -0.1)">
       <use xlink:href="#DejaVuSans-32"/>
       <use x="63.623047" xlink:href="#DejaVuSans-30"/>
       <use x="127.246094" xlink:href="#DejaVuSans-32"/>
       <use x="190.869141" xlink:href="#DejaVuSans-32"/>
       <use x="254.492188" xlink:href="#DejaVuSans-2d"/>
       <use x="290.576172" xlink:href="#DejaVuSans-30"/>
       <use x="354.199219" xlink:href="#DejaVuSans-32"/>
      </g>
     </g>
    </g>
    <g id="xtick_7">
     <g id="line2d_7">
      <g>
       <use style="stroke:#000000;stroke-width:0.8;" x="328.726792" xlink:href="#m3536d3f97e" y="276.48"/>
      </g>
     </g>
     <g id="text_7">
      <!-- 2022-03 -->
      <g transform="translate(291.501971 310.951846)rotate(-30)scale(0.1 -0.1)">
       <defs>
        <path d="M 2597 2516 
Q 3050 2419 3304 2112 
Q 3559 1806 3559 1356 
Q 3559 666 3084 287 
Q 2609 -91 1734 -91 
Q 1441 -91 1130 -33 
Q 819 25 488 141 
L 488 750 
Q 750 597 1062 519 
Q 1375 441 1716 441 
Q 2309 441 2620 675 
Q 2931 909 2931 1356 
Q 2931 1769 2642 2001 
Q 2353 2234 1838 2234 
L 1294 2234 
L 1294 2753 
L 1863 2753 
Q 2328 2753 2575 2939 
Q 2822 3125 2822 3475 
Q 2822 3834 2567 4026 
Q 2313 4219 1838 4219 
Q 1578 4219 1281 4162 
Q 984 4106 628 3988 
L 628 4550 
Q 988 4650 1302 4700 
Q 1616 4750 1894 4750 
Q 2613 4750 3031 4423 
Q 3450 4097 3450 3541 
Q 3450 3153 3228 2886 
Q 3006 2619 2597 2516 
z
" id="DejaVuSans-33" transform="scale(0.015625)"/>
       </defs>
       <use xlink:href="#DejaVuSans-32"/>
       <use x="63.623047" xlink:href="#DejaVuSans-30"/>
       <use x="127.246094" xlink:href="#DejaVuSans-32"/>
       <use x="190.869141" xlink:href="#DejaVuSans-32"/>
       <use x="254.492188" xlink:href="#DejaVuSans-2d"/>
       <use x="290.576172" xlink:href="#DejaVuSans-30"/>
       <use x="354.199219" xlink:href="#DejaVuSans-33"/>
      </g>
     </g>
    </g>
    <g id="xtick_8">
     <g id="line2d_8">
      <g>
       <use style="stroke:#000000;stroke-width:0.8;" x="370.314771" xlink:href="#m3536d3f97e" y="276.48"/>
      </g>
     </g>
     <g id="text_8">
      <!-- 2022-04 -->
      <g transform="translate(333.08995 310.951846)rotate(-30)scale(0.1 -0.1)">
       <defs>
        <path d="M 2419 4116 
L 825 1625 
L 2419 1625 
L 2419 4116 
z
M 2253 4666 
L 3047 4666 
L 3047 1625 
L 3713 1625 
L 3713 1100 
L 3047 1100 
L 3047 0 
L 2419 0 
L 2419 1100 
L 313 1100 
L 313 1709 
L 2253 4666 
z
" id="DejaVuSans-34" transform="scale(0.015625)"/>
       </defs>
       <use xlink:href="#DejaVuSans-32"/>
       <use x="63.623047" xlink:href="#DejaVuSans-30"/>
       <use x="127.246094" xlink:href="#DejaVuSans-32"/>
       <use x="190.869141" xlink:href="#DejaVuSans-32"/>
       <use x="254.492188" xlink:href="#DejaVuSans-2d"/>
       <use x="290.576172" xlink:href="#DejaVuSans-30"/>
       <use x="354.199219" xlink:href="#DejaVuSans-34"/>
      </g>
     </g>
    </g>
    <g id="xtick_9">
     <g id="line2d_9">
      <g>
       <use style="stroke:#000000;stroke-width:0.8;" x="410.561202" xlink:href="#m3536d3f97e" y="276.48"/>
      </g>
     </g>
     <g id="text_9">
      <!-- 2022-05 -->
      <g transform="translate(373.336381 310.951846)rotate(-30)scale(0.1 -0.1)">
       <defs>
        <path d="M 691 4666 
L 3169 4666 
L 3169 4134 
L 1269 4134 
L 1269 2991 
Q 1406 3038 1543 3061 
Q 1681 3084 1819 3084 
Q 2600 3084 3056 2656 
Q 3513 2228 3513 1497 
Q 3513 744 3044 326 
Q 2575 -91 1722 -91 
Q 1428 -91 1123 -41 
Q 819 9 494 109 
L 494 744 
Q 775 591 1075 516 
Q 1375 441 1709 441 
Q 2250 441 2565 725 
Q 2881 1009 2881 1497 
Q 2881 1984 2565 2268 
Q 2250 2553 1709 2553 
Q 1456 2553 1204 2497 
Q 953 2441 691 2322 
L 691 4666 
z
" id="DejaVuSans-35" transform="scale(0.015625)"/>
       </defs>
       <use xlink:href="#DejaVuSans-32"/>
       <use x="63.623047" xlink:href="#DejaVuSans-30"/>
       <use x="127.246094" xlink:href="#DejaVuSans-32"/>
       <use x="190.869141" xlink:href="#DejaVuSans-32"/>
       <use x="254.492188" xlink:href="#DejaVuSans-2d"/>
       <use x="290.576172" xlink:href="#DejaVuSans-30"/>
       <use x="354.199219" xlink:href="#DejaVuSans-35"/>
      </g>
     </g>
    </g>
    <g id="text_10">
     <!-- date -->
     <g transform="translate(224.885 324.351346)scale(0.1 -0.1)">
      <defs>
       <path d="M 2906 2969 
L 2906 4863 
L 3481 4863 
L 3481 0 
L 2906 0 
L 2906 525 
Q 2725 213 2448 61 
Q 2172 -91 1784 -91 
Q 1150 -91 751 415 
Q 353 922 353 1747 
Q 353 2572 751 3078 
Q 1150 3584 1784 3584 
Q 2172 3584 2448 3432 
Q 2725 3281 2906 2969 
z
M 947 1747 
Q 947 1113 1208 752 
Q 1469 391 1925 391 
Q 2381 391 2643 752 
Q 2906 1113 2906 1747 
Q 2906 2381 2643 2742 
Q 2381 3103 1925 3103 
Q 1469 3103 1208 2742 
Q 947 2381 947 1747 
z
" id="DejaVuSans-64" transform="scale(0.015625)"/>
       <path d="M 2194 1759 
Q 1497 1759 1228 1600 
Q 959 1441 959 1056 
Q 959 750 1161 570 
Q 1363 391 1709 391 
Q 2188 391 2477 730 
Q 2766 1069 2766 1631 
L 2766 1759 
L 2194 1759 
z
M 3341 1997 
L 3341 0 
L 2766 0 
L 2766 531 
Q 2569 213 2275 61 
Q 1981 -91 1556 -91 
Q 1019 -91 701 211 
Q 384 513 384 1019 
Q 384 1609 779 1909 
Q 1175 2209 1959 2209 
L 2766 2209 
L 2766 2266 
Q 2766 2663 2505 2880 
Q 2244 3097 1772 3097 
Q 1472 3097 1187 3025 
Q 903 2953 641 2809 
L 641 3341 
Q 956 3463 1253 3523 
Q 1550 3584 1831 3584 
Q 2591 3584 2966 3190 
Q 3341 2797 3341 1997 
z
" id="DejaVuSans-61" transform="scale(0.015625)"/>
       <path d="M 1172 4494 
L 1172 3500 
L 2356 3500 
L 2356 3053 
L 1172 3053 
L 1172 1153 
Q 1172 725 1289 603 
Q 1406 481 1766 481 
L 2356 481 
L 2356 0 
L 1766 0 
Q 1100 0 847 248 
Q 594 497 594 1153 
L 594 3053 
L 172 3053 
L 172 3500 
L 594 3500 
L 594 4494 
L 1172 4494 
z
" id="DejaVuSans-74" transform="scale(0.015625)"/>
       <path d="M 3597 1894 
L 3597 1613 
L 953 1613 
Q 991 1019 1311 708 
Q 1631 397 2203 397 
Q 2534 397 2845 478 
Q 3156 559 3463 722 
L 3463 178 
Q 3153 47 2828 -22 
Q 2503 -91 2169 -91 
Q 1331 -91 842 396 
Q 353 884 353 1716 
Q 353 2575 817 3079 
Q 1281 3584 2069 3584 
Q 2775 3584 3186 3129 
Q 3597 2675 3597 1894 
z
M 3022 2063 
Q 3016 2534 2758 2815 
Q 2500 3097 2075 3097 
Q 1594 3097 1305 2825 
Q 1016 2553 972 2059 
L 3022 2063 
z
" id="DejaVuSans-65" transform="scale(0.015625)"/>
      </defs>
      <use xlink:href="#DejaVuSans-64"/>
      <use x="63.476562" xlink:href="#DejaVuSans-61"/>
      <use x="124.755859" xlink:href="#DejaVuSans-74"/>
      <use x="163.964844" xlink:href="#DejaVuSans-65"/>
     </g>
    </g>
   </g>
   <g id="matplotlib.axis_2">
    <g id="ytick_1">
     <g id="line2d_10">
      <defs>
       <path d="M 0 0 
L -3.5 0 
" id="mcc8b009408" style="stroke:#000000;stroke-width:0.8;"/>
      </defs>
      <g>
       <use style="stroke:#000000;stroke-width:0.8;" x="57.6" xlink:href="#mcc8b009408" y="252.568353"/>
      </g>
     </g>
     <g id="text_11">
      <!-- 85000 -->
      <g transform="translate(18.7875 256.367572)scale(0.1 -0.1)">
       <defs>
        <path d="M 2034 2216 
Q 1584 2216 1326 1975 
Q 1069 1734 1069 1313 
Q 1069 891 1326 650 
Q 1584 409 2034 409 
Q 2484 409 2743 651 
Q 3003 894 3003 1313 
Q 3003 1734 2745 1975 
Q 2488 2216 2034 2216 
z
M 1403 2484 
Q 997 2584 770 2862 
Q 544 3141 544 3541 
Q 544 4100 942 4425 
Q 1341 4750 2034 4750 
Q 2731 4750 3128 4425 
Q 3525 4100 3525 3541 
Q 3525 3141 3298 2862 
Q 3072 2584 2669 2484 
Q 3125 2378 3379 2068 
Q 3634 1759 3634 1313 
Q 3634 634 3220 271 
Q 2806 -91 2034 -91 
Q 1263 -91 848 271 
Q 434 634 434 1313 
Q 434 1759 690 2068 
Q 947 2378 1403 2484 
z
M 1172 3481 
Q 1172 3119 1398 2916 
Q 1625 2713 2034 2713 
Q 2441 2713 2670 2916 
Q 2900 3119 2900 3481 
Q 2900 3844 2670 4047 
Q 2441 4250 2034 4250 
Q 1625 4250 1398 4047 
Q 1172 3844 1172 3481 
z
" id="DejaVuSans-38" transform="scale(0.015625)"/>
       </defs>
       <use xlink:href="#DejaVuSans-38"/>
       <use x="63.623047" xlink:href="#DejaVuSans-35"/>
       <use x="127.246094" xlink:href="#DejaVuSans-30"/>
       <use x="190.869141" xlink:href="#DejaVuSans-30"/>
       <use x="254.492188" xlink:href="#DejaVuSans-30"/>
      </g>
     </g>
    </g>
    <g id="ytick_2">
     <g id="line2d_11">
      <g>
       <use style="stroke:#000000;stroke-width:0.8;" x="57.6" xlink:href="#mcc8b009408" y="220.588855"/>
      </g>
     </g>
     <g id="text_12">
      <!-- 90000 -->
      <g transform="translate(18.7875 224.388074)scale(0.1 -0.1)">
       <use xlink:href="#DejaVuSans-39"/>
       <use x="63.623047" xlink:href="#DejaVuSans-30"/>
       <use x="127.246094" xlink:href="#DejaVuSans-30"/>
       <use x="190.869141" xlink:href="#DejaVuSans-30"/>
       <use x="254.492188" xlink:href="#DejaVuSans-30"/>
      </g>
     </g>
    </g>
    <g id="ytick_3">
     <g id="line2d_12">
      <g>
       <use style="stroke:#000000;stroke-width:0.8;" x="57.6" xlink:href="#mcc8b009408" y="188.609358"/>
      </g>
     </g>
     <g id="text_13">
      <!-- 95000 -->
      <g transform="translate(18.7875 192.408577)scale(0.1 -0.1)">
       <use xlink:href="#DejaVuSans-39"/>
       <use x="63.623047" xlink:href="#DejaVuSans-35"/>
       <use x="127.246094" xlink:href="#DejaVuSans-30"/>
       <use x="190.869141" xlink:href="#DejaVuSans-30"/>
       <use x="254.492188" xlink:href="#DejaVuSans-30"/>
      </g>
     </g>
    </g>
    <g id="ytick_4">
     <g id="line2d_13">
      <g>
       <use style="stroke:#000000;stroke-width:0.8;" x="57.6" xlink:href="#mcc8b009408" y="156.62986"/>
      </g>
     </g>
     <g id="text_14">
      <!-- 100000 -->
      <g transform="translate(12.425 160.429079)scale(0.1 -0.1)">
       <use xlink:href="#DejaVuSans-31"/>
       <use x="63.623047" xlink:href="#DejaVuSans-30"/>
       <use x="127.246094" xlink:href="#DejaVuSans-30"/>
       <use x="190.869141" xlink:href="#DejaVuSans-30"/>
       <use x="254.492188" xlink:href="#DejaVuSans-30"/>
       <use x="318.115234" xlink:href="#DejaVuSans-30"/>
      </g>
     </g>
    </g>
    <g id="ytick_5">
     <g id="line2d_14">
      <g>
       <use style="stroke:#000000;stroke-width:0.8;" x="57.6" xlink:href="#mcc8b009408" y="124.650363"/>
      </g>
     </g>
     <g id="text_15">
      <!-- 105000 -->
      <g transform="translate(12.425 128.449582)scale(0.1 -0.1)">
       <use xlink:href="#DejaVuSans-31"/>
       <use x="63.623047" xlink:href="#DejaVuSans-30"/>
       <use x="127.246094" xlink:href="#DejaVuSans-35"/>
       <use x="190.869141" xlink:href="#DejaVuSans-30"/>
       <use x="254.492188" xlink:href="#DejaVuSans-30"/>
       <use x="318.115234" xlink:href="#DejaVuSans-30"/>
      </g>
     </g>
    </g>
    <g id="ytick_6">
     <g id="line2d_15">
      <g>
       <use style="stroke:#000000;stroke-width:0.8;" x="57.6" xlink:href="#mcc8b009408" y="92.670865"/>
      </g>
     </g>
     <g id="text_16">
      <!-- 110000 -->
      <g transform="translate(12.425 96.470084)scale(0.1 -0.1)">
       <use xlink:href="#DejaVuSans-31"/>
       <use x="63.623047" xlink:href="#DejaVuSans-31"/>
       <use x="127.246094" xlink:href="#DejaVuSans-30"/>
       <use x="190.869141" xlink:href="#DejaVuSans-30"/>
       <use x="254.492188" xlink:href="#DejaVuSans-30"/>
       <use x="318.115234" xlink:href="#DejaVuSans-30"/>
      </g>
     </g>
    </g>
    <g id="ytick_7">
     <g id="line2d_16">
      <g>
       <use style="stroke:#000000;stroke-width:0.8;" x="57.6" xlink:href="#mcc8b009408" y="60.691368"/>
      </g>
     </g>
     <g id="text_17">
      <!-- 115000 -->
      <g transform="translate(12.425 64.490587)scale(0.1 -0.1)">
       <use xlink:href="#DejaVuSans-31"/>
       <use x="63.623047" xlink:href="#DejaVuSans-31"/>
       <use x="127.246094" xlink:href="#DejaVuSans-35"/>
       <use x="190.869141" xlink:href="#DejaVuSans-30"/>
       <use x="254.492188" xlink:href="#DejaVuSans-30"/>
       <use x="318.115234" xlink:href="#DejaVuSans-30"/>
      </g>
     </g>
    </g>
   </g>
   <g id="line2d_17">
    <path clip-path="url(#pdcc6f952f5)" d="M 73.832727 156.62986 
L 75.174275 156.942856 
L 76.515823 154.746931 
L 77.85737 158.082793 
L 79.198918 151.830866 
L 83.223561 148.002866 
L 84.565109 147.051823 
L 85.906657 148.396636 
L 87.248204 147.772253 
L 88.589752 147.992407 
L 93.955943 148.299077 
L 96.639038 152.647541 
L 97.980586 158.277396 
L 102.005229 153.22296 
L 103.346777 162.433347 
L 104.688325 157.392824 
L 106.029872 158.802411 
L 107.37142 164.557458 
L 111.396063 176.118756 
L 112.737611 177.610669 
L 114.079159 172.938249 
L 115.420706 162.880244 
L 116.762254 157.231468 
L 120.786897 152.212408 
L 122.128445 166.231814 
L 123.469992 163.792593 
L 124.81154 169.215496 
L 126.153088 159.415329 
L 130.177731 171.153791 
L 131.519279 161.685295 
L 132.860826 159.505861 
L 134.202374 159.265064 
L 135.543922 158.211537 
L 139.568565 157.317386 
L 140.910113 156.735014 
L 142.25166 164.940801 
L 143.593208 152.596656 
L 144.934756 151.228014 
L 148.959399 146.312399 
L 150.300947 140.006215 
L 151.642494 137.076881 
L 152.984042 148.617747 
L 154.32559 156.64292 
L 158.350233 156.176602 
L 159.691781 161.936343 
L 161.033328 163.215108 
L 162.374876 155.004722 
L 163.716424 163.308065 
L 167.741067 150.034084 
L 169.082615 150.306783 
L 170.424162 143.892088 
L 171.76571 151.980677 
L 173.107258 147.518363 
L 177.131901 146.945363 
L 178.473449 154.633628 
L 179.814996 154.831882 
L 181.156544 160.117007 
L 182.498092 155.044457 
L 186.522735 153.191957 
L 187.864282 153.267333 
L 189.20583 156.468681 
L 190.547378 158.609251 
L 191.888926 158.885422 
L 195.913569 155.034946 
L 197.255116 149.194972 
L 198.596664 149.749684 
L 201.27976 149.681059 
L 205.304403 155.622097 
L 206.64595 167.966199 
L 207.987498 176.431776 
L 209.329046 168.623123 
L 210.670594 172.819394 
L 214.695237 161.060357 
L 216.036784 149.403336 
L 217.378332 144.302252 
L 218.71988 144.061483 
L 220.061427 142.077951 
L 224.086071 148.27145 
L 225.427618 145.450134 
L 226.769166 141.323982 
L 228.110714 138.815465 
L 229.452261 146.096496 
L 233.476905 155.499807 
L 234.818452 140.23103 
L 236.16 136.896452 
L 237.501548 131.446562 
L 242.867739 123.24998 
L 244.209286 123.158981 
L 245.550834 122.949926 
L 246.892382 123.891276 
L 248.233929 127.392797 
L 252.258573 116.93917 
L 253.60012 108.77334 
L 254.941668 126.506919 
L 256.283216 120.760905 
L 257.624763 118.609368 
L 261.649406 118.204014 
L 262.990954 112.208481 
L 264.332502 110.932807 
L 265.67405 119.283038 
L 267.015597 117.018178 
L 272.381788 132.043989 
L 273.723336 135.289417 
L 275.064884 142.894057 
L 276.406431 157.88131 
L 280.431074 156.72855 
L 281.772622 164.231833 
L 283.11417 164.049196 
L 284.455718 168.240172 
L 285.797265 151.980659 
L 289.821908 138.352533 
L 291.163456 132.313087 
L 292.505004 122.257303 
L 293.846551 164.774406 
L 295.188099 163.267448 
L 299.212742 174.598758 
L 300.55429 175.729907 
L 301.895838 162.192006 
L 303.237385 173.379636 
L 304.578933 187.119176 
L 308.603576 191.42908 
L 309.945124 183.886592 
L 311.286672 187.249653 
L 312.628219 198.772409 
L 313.969767 202.184309 
L 319.335958 208.61076 
L 320.677506 217.327825 
L 322.019053 203.931778 
L 323.360601 193.019813 
L 327.385244 195.502923 
L 328.726792 204.542861 
L 330.06834 192.420887 
L 331.409887 194.619705 
L 332.751435 199.525887 
L 336.776078 224.170781 
L 338.117626 224.440892 
L 339.459174 200.416635 
L 340.800721 208.308402 
L 342.142269 218.279455 
L 346.166912 220.997015 
L 347.50846 208.836046 
L 348.850008 190.632967 
L 350.191555 183.098596 
L 351.533103 172.001921 
L 355.557746 174.938383 
L 356.899294 163.461026 
L 358.240841 169.556996 
L 359.582389 158.936178 
L 360.923937 152.63125 
L 364.94858 150.685814 
L 366.290128 144.634663 
L 367.631675 146.998724 
L 368.973223 161.63097 
L 370.314771 159.246073 
L 374.339414 150.760603 
L 375.680962 158.442241 
L 377.022509 168.289214 
L 379.705605 170.773868 
L 385.071796 186.42652 
L 386.413343 183.420599 
L 387.754891 194.194147 
L 393.121082 190.345083 
L 394.46263 179.091743 
L 395.804177 187.081596 
L 397.145725 201.022 
L 398.487273 223.559514 
L 398.487273 223.559514 
" style="fill:none;stroke:#0000ff;stroke-linecap:square;stroke-opacity:0.9;stroke-width:2;"/>
   </g>
   <g id="line2d_18">
    <path clip-path="url(#pdcc6f952f5)" d="M 73.832727 156.62986 
L 75.174275 153.397986 
L 76.515823 149.867765 
L 77.85737 154.267545 
L 79.198918 146.656463 
L 83.223561 144.59436 
L 84.565109 143.142295 
L 85.906657 143.364945 
L 87.248204 144.584111 
L 88.589752 144.157517 
L 93.955943 142.999552 
L 95.297491 145.89703 
L 96.639038 147.166301 
L 97.980586 153.963596 
L 102.005229 149.198637 
L 103.346777 155.307602 
L 104.688325 152.362949 
L 106.029872 154.053077 
L 107.37142 162.06767 
L 111.396063 172.41552 
L 112.737611 172.596019 
L 114.079159 169.123594 
L 115.420706 160.792186 
L 116.762254 155.839012 
L 120.786897 151.847419 
L 122.128445 164.502419 
L 123.469992 163.980706 
L 124.81154 169.713674 
L 126.153088 160.579353 
L 130.177731 167.802376 
L 131.519279 158.360391 
L 132.860826 157.076238 
L 134.202374 155.194315 
L 135.543922 152.114194 
L 139.568565 155.918951 
L 140.910113 161.184015 
L 142.25166 162.960912 
L 143.593208 147.310981 
L 144.934756 142.899958 
L 148.959399 141.068555 
L 150.300947 135.445789 
L 151.642494 132.159693 
L 152.984042 140.82242 
L 154.32559 143.693982 
L 158.350233 145.902295 
L 159.691781 149.24271 
L 161.033328 153.051407 
L 162.374876 144.052496 
L 163.716424 142.505398 
L 167.741067 141.987253 
L 169.082615 139.692909 
L 170.424162 134.630367 
L 171.76571 136.081563 
L 177.131901 135.653861 
L 178.473449 140.733516 
L 179.814996 143.991675 
L 181.156544 144.045725 
L 182.498092 139.668632 
L 186.522735 138.190747 
L 187.864282 139.619632 
L 189.20583 139.942861 
L 190.547378 139.860695 
L 191.888926 142.176168 
L 195.913569 139.449417 
L 197.255116 133.37144 
L 198.596664 133.017451 
L 201.27976 150.071042 
L 205.304403 142.50595 
L 206.64595 156.367824 
L 207.987498 164.060701 
L 209.329046 154.917269 
L 210.670594 160.472012 
L 214.695237 150.462386 
L 216.036784 139.917948 
L 217.378332 135.964964 
L 218.71988 136.14637 
L 220.061427 131.982538 
L 224.086071 138.918077 
L 225.427618 138.461012 
L 226.769166 133.337003 
L 228.110714 133.303403 
L 229.452261 141.943534 
L 233.476905 149.028287 
L 234.818452 136.630184 
L 236.16 133.138221 
L 237.501548 127.440428 
L 242.867739 119.068337 
L 244.209286 119.534325 
L 245.550834 118.888278 
L 246.892382 119.562458 
L 248.233929 122.423203 
L 252.258573 115.041328 
L 253.60012 108.187408 
L 254.941668 123.051474 
L 256.283216 120.560886 
L 257.624763 116.9129 
L 261.649406 117.66085 
L 262.990954 113.479235 
L 264.332502 113.193774 
L 265.67405 118.472475 
L 267.015597 119.252548 
L 272.381788 133.913656 
L 275.064884 146.253756 
L 276.406431 159.99409 
L 280.431074 160.867319 
L 281.772622 159.498593 
L 283.11417 160.563107 
L 284.455718 165.839445 
L 285.797265 150.612895 
L 289.821908 140.566277 
L 291.163456 132.643299 
L 292.505004 122.224494 
L 293.846551 152.113708 
L 295.188099 147.01863 
L 299.212742 151.17464 
L 300.55429 146.438489 
L 301.895838 140.929708 
L 303.237385 151.623175 
L 304.578933 165.233465 
L 308.603576 170.782979 
L 309.945124 163.512433 
L 311.286672 165.021703 
L 312.628219 177.284735 
L 313.969767 180.18704 
L 319.335958 185.325376 
L 320.677506 193.927999 
L 322.019053 190.752397 
L 323.360601 176.377667 
L 327.385244 181.915923 
L 328.726792 194.736524 
L 330.06834 180.538941 
L 331.409887 181.643641 
L 332.751435 190.483897 
L 336.776078 211.726247 
L 338.117626 215.054594 
L 339.459174 193.384945 
L 340.800721 201.202206 
L 342.142269 207.880724 
L 346.166912 208.258987 
L 347.50846 198.581131 
L 348.850008 184.451986 
L 350.191555 178.78507 
L 351.533103 172.161534 
L 355.557746 172.283848 
L 356.899294 161.781658 
L 358.240841 168.080298 
L 359.582389 158.43604 
L 360.923937 151.400858 
L 364.94858 150.958001 
L 366.290128 147.694443 
L 367.631675 148.465952 
L 368.973223 160.996652 
L 370.314771 158.219998 
L 374.339414 153.391925 
L 375.680962 159.812484 
L 377.022509 167.663932 
L 378.364057 168.289715 
L 379.705605 168.015023 
L 383.730248 177.538392 
L 385.071796 180.110624 
L 386.413343 178.594132 
L 387.754891 187.334323 
L 393.121082 183.373288 
L 394.46263 174.840511 
L 395.804177 172.068671 
L 397.145725 180.532334 
L 398.487273 198.243803 
L 398.487273 198.243803 
" style="fill:none;stroke:#ff0000;stroke-linecap:square;stroke-opacity:0.9;stroke-width:2;"/>
   </g>
   <g id="line2d_19">
    <path clip-path="url(#pdcc6f952f5)" d="M 73.832727 156.62986 
L 75.174275 153.030732 
L 76.515823 150.819093 
L 77.85737 154.367113 
L 79.198918 148.420548 
L 83.223561 143.934571 
L 84.565109 142.663539 
L 85.906657 144.499498 
L 87.248204 143.740946 
L 88.589752 143.397342 
L 93.955943 143.947635 
L 95.297491 145.811589 
L 96.639038 147.903337 
L 97.980586 153.231463 
L 102.005229 148.056945 
L 103.346777 156.853513 
L 104.688325 152.490928 
L 106.029872 153.542081 
L 107.37142 159.499096 
L 111.396063 170.403049 
L 112.737611 172.286999 
L 114.079159 167.170088 
L 115.420706 157.409763 
L 116.762254 151.61243 
L 120.786897 146.461752 
L 122.128445 159.702335 
L 123.469992 158.182153 
L 124.81154 162.952073 
L 126.153088 152.835451 
L 130.177731 164.731043 
L 131.519279 154.805876 
L 134.202374 150.660254 
L 135.543922 147.933393 
L 139.568565 151.893719 
L 140.910113 157.184479 
L 142.25166 158.21821 
L 143.593208 145.793851 
L 144.934756 144.364233 
L 148.959399 139.075564 
L 150.300947 132.809916 
L 151.642494 129.714051 
L 152.984042 140.790475 
L 154.32559 149.110506 
L 158.350233 148.306488 
L 159.691781 154.467688 
L 161.033328 155.86338 
L 162.374876 147.531246 
L 169.082615 141.923722 
L 170.424162 136.663681 
L 171.76571 136.534818 
L 173.107258 131.468011 
L 177.131901 131.137833 
L 178.473449 139.292789 
L 179.814996 144.227058 
L 181.156544 144.54378 
L 182.498092 139.599771 
L 186.522735 137.059398 
L 187.864282 140.417731 
L 189.20583 140.727838 
L 190.547378 142.815135 
L 191.888926 142.897961 
L 195.913569 138.348164 
L 197.255116 133.184528 
L 198.596664 133.772362 
L 201.27976 148.504118 
L 205.304403 139.947041 
L 206.64595 153.347056 
L 207.987498 161.583799 
L 209.329046 154.260976 
L 210.670594 158.349258 
L 214.695237 146.269988 
L 216.036784 134.651336 
L 217.378332 129.383015 
L 218.71988 129.09572 
L 220.061427 126.970178 
L 224.086071 133.019301 
L 225.427618 130.193763 
L 226.769166 126.080562 
L 228.110714 123.69507 
L 229.452261 131.529475 
L 233.476905 140.610589 
L 234.818452 125.510295 
L 236.16 122.081439 
L 237.501548 116.295903 
L 242.867739 107.448453 
L 244.209286 107.714595 
L 245.550834 107.782645 
L 246.892382 108.906527 
L 248.233929 112.170625 
L 252.258573 101.641965 
L 253.60012 92.575624 
L 254.941668 110.970329 
L 256.283216 103.604468 
L 257.624763 101.328624 
L 261.649406 99.839459 
L 262.990954 93.641531 
L 264.332502 92.222821 
L 265.67405 100.666119 
L 267.015597 98.367471 
L 273.723336 116.940563 
L 275.064884 124.243358 
L 276.406431 140.196383 
L 280.431074 138.630186 
L 281.772622 146.626772 
L 283.11417 146.629399 
L 284.455718 150.899169 
L 285.797265 134.27822 
L 289.821908 120.017742 
L 291.163456 113.545212 
L 292.505004 102.249279 
L 293.846551 148.440112 
L 295.188099 147.563759 
L 299.212742 159.135246 
L 300.55429 160.462788 
L 301.895838 146.468278 
L 303.237385 157.720943 
L 304.578933 172.092479 
L 308.603576 176.562968 
L 309.945124 168.569069 
L 311.286672 171.968001 
L 312.628219 183.330457 
L 313.969767 187.419152 
L 319.335958 193.163615 
L 320.677506 201.801092 
L 322.019053 188.087227 
L 323.360601 176.827943 
L 327.385244 178.762546 
L 328.726792 188.204982 
L 330.06834 175.730754 
L 331.409887 179.112312 
L 332.751435 187.612376 
L 336.776078 213.912665 
L 338.117626 211.175014 
L 339.459174 185.437886 
L 340.800721 194.11544 
L 342.142269 203.734525 
L 346.166912 204.41844 
L 347.50846 193.123037 
L 348.850008 172.57246 
L 350.191555 165.997103 
L 351.533103 155.943476 
L 355.557746 158.496158 
L 356.899294 144.801403 
L 358.240841 152.71499 
L 359.582389 143.229899 
L 360.923937 135.501457 
L 364.94858 134.791216 
L 366.290128 129.978267 
L 367.631675 132.89618 
L 368.973223 149.898838 
L 370.314771 148.630026 
L 374.339414 142.743532 
L 375.680962 150.623735 
L 377.022509 160.278489 
L 378.364057 163.002285 
L 379.705605 162.981946 
L 385.071796 176.551934 
L 386.413343 174.095439 
L 387.754891 185.782198 
L 393.121082 179.27973 
L 394.46263 168.002766 
L 395.804177 171.512808 
L 397.145725 184.778538 
L 398.487273 205.609929 
L 398.487273 205.609929 
" style="fill:none;stroke:#ff8040;stroke-linecap:square;stroke-opacity:0.9;stroke-width:2;"/>
   </g>
   <g id="line2d_20">
    <path clip-path="url(#pdcc6f952f5)" d="M 73.832727 157.26945 
L 75.174275 155.438795 
L 76.515823 154.202403 
L 77.85737 158.83501 
L 79.198918 152.66649 
L 83.223561 151.69939 
L 84.565109 152.506907 
L 85.906657 151.939725 
L 87.248204 157.393461 
L 88.589752 157.184868 
L 93.955943 153.942614 
L 96.639038 156.580861 
L 97.980586 164.108225 
L 102.005229 161.038754 
L 103.346777 166.3619 
L 104.688325 163.61487 
L 106.029872 165.375924 
L 107.37142 174.954899 
L 111.396063 185.094376 
L 112.737611 185.635122 
L 114.079159 185.270908 
L 115.420706 177.783172 
L 116.762254 173.126919 
L 120.786897 170.0665 
L 122.128445 183.848157 
L 123.469992 183.161643 
L 124.81154 189.538968 
L 126.153088 181.112229 
L 130.177731 186.659284 
L 131.519279 179.263496 
L 132.860826 178.70742 
L 134.202374 174.756569 
L 135.543922 171.338593 
L 139.568565 174.752066 
L 140.910113 180.99489 
L 142.25166 182.619807 
L 143.593208 167.294805 
L 144.934756 164.763862 
L 148.959399 166.624835 
L 150.300947 159.435703 
L 151.642494 157.677077 
L 152.984042 166.196262 
L 154.32559 173.091764 
L 158.350233 174.693308 
L 159.691781 180.808157 
L 161.033328 182.196564 
L 162.374876 173.245364 
L 163.716424 173.074313 
L 167.741067 172.010436 
L 169.082615 169.916823 
L 170.424162 165.387743 
L 171.76571 165.323701 
L 173.107258 165.06807 
L 177.131901 164.791361 
L 178.473449 169.762427 
L 179.814996 171.559012 
L 181.156544 172.135874 
L 182.498092 169.947408 
L 186.522735 169.040994 
L 187.864282 167.83022 
L 189.20583 169.853092 
L 190.547378 170.670424 
L 191.888926 173.886454 
L 195.913569 177.388483 
L 197.255116 170.31813 
L 198.596664 168.125694 
L 201.27976 184.358516 
L 205.304403 176.410445 
L 206.64595 191.029728 
L 207.987498 197.485465 
L 209.329046 190.209824 
L 210.670594 196.340187 
L 214.695237 185.814148 
L 216.036784 176.663106 
L 217.378332 171.968921 
L 218.71988 171.498762 
L 220.061427 166.045316 
L 224.086071 171.137973 
L 225.427618 170.453741 
L 226.769166 166.546218 
L 228.110714 168.587675 
L 229.452261 175.852307 
L 233.476905 181.884053 
L 234.818452 168.743399 
L 236.16 164.716751 
L 237.501548 160.336149 
L 242.867739 154.33685 
L 244.209286 153.853106 
L 245.550834 154.409941 
L 246.892382 156.254265 
L 248.233929 157.203991 
L 252.258573 149.480261 
L 253.60012 151.088476 
L 254.941668 162.798009 
L 256.283216 163.258783 
L 257.624763 158.129082 
L 261.649406 159.973217 
L 262.990954 154.898339 
L 264.332502 154.322572 
L 265.67405 160.855464 
L 267.015597 160.17239 
L 272.381788 173.994574 
L 273.723336 178.483339 
L 275.064884 184.964389 
L 276.406431 199.575 
L 280.431074 200.927415 
L 281.772622 196.65636 
L 283.11417 197.791675 
L 284.455718 202.983248 
L 285.797265 184.474373 
L 289.821908 176.311977 
L 291.163456 167.348239 
L 292.505004 155.068162 
L 293.846551 195.306953 
L 295.188099 191.936575 
L 299.212742 198.294102 
L 300.55429 198.533351 
L 301.895838 193.047825 
L 303.237385 205.088282 
L 304.578933 218.704908 
L 308.603576 222.606049 
L 309.945124 216.255078 
L 311.286672 220.083695 
L 312.628219 229.170009 
L 313.969767 232.23007 
L 319.335958 239.088916 
L 320.677506 247.584333 
L 322.019053 240.718337 
L 323.360601 227.411877 
L 327.385244 233.372422 
L 328.726792 244.42134 
L 330.06834 232.828726 
L 331.409887 232.298594 
L 332.751435 238.252156 
L 336.776078 260.985159 
L 338.117626 265.797818 
L 339.459174 243.498886 
L 340.800721 251.832429 
L 342.142269 256.317316 
L 346.166912 257.353657 
L 347.50846 247.244165 
L 348.850008 232.078072 
L 350.191555 226.225042 
L 351.533103 221.079353 
L 355.557746 223.251163 
L 356.899294 213.685107 
L 358.240841 220.381038 
L 359.582389 210.889088 
L 360.923937 205.98715 
L 364.94858 204.86966 
L 366.290128 201.016577 
L 367.631675 200.983161 
L 368.973223 212.199771 
L 370.314771 208.496985 
L 374.339414 201.706339 
L 375.680962 207.812452 
L 377.022509 218.386703 
L 378.364057 217.43983 
L 379.705605 217.284663 
L 383.730248 226.183084 
L 385.071796 228.791399 
L 386.413343 224.103913 
L 387.754891 232.699254 
L 393.121082 231.138447 
L 394.46263 221.856203 
L 395.804177 231.752246 
L 398.487273 263.061563 
L 398.487273 263.061563 
" style="fill:none;stroke:#0d0d0d;stroke-linecap:square;stroke-opacity:0.25;stroke-width:2;"/>
   </g>
   <g id="line2d_21">
    <path clip-path="url(#pdcc6f952f5)" d="M 73.832727 155.99027 
L 75.174275 150.713162 
L 76.515823 146.529406 
L 77.85737 149.438627 
L 79.198918 140.054695 
L 83.223561 137.366551 
L 84.565109 135.411897 
L 88.589752 134.301329 
L 93.955943 129.686131 
L 95.297491 131.751276 
L 96.639038 132.842997 
L 97.980586 141.921062 
L 102.005229 136.303573 
L 103.346777 142.312006 
L 104.688325 138.321484 
L 106.029872 140.466772 
L 107.37142 147.689788 
L 111.396063 155.768799 
L 112.737611 156.304359 
L 114.079159 152.98074 
L 115.420706 145.819397 
L 116.762254 141.414821 
L 120.786897 133.156311 
L 122.128445 145.347793 
L 123.469992 142.655479 
L 124.81154 149.180782 
L 126.153088 139.138703 
L 130.177731 145.922407 
L 131.519279 134.120038 
L 132.860826 133.171143 
L 134.202374 132.42168 
L 135.543922 128.474527 
L 139.568565 131.741308 
L 140.910113 136.776081 
L 142.25166 134.973577 
L 143.593208 121.648427 
L 144.934756 116.873367 
L 148.959399 115.977254 
L 150.300947 109.521828 
L 151.642494 106.232124 
L 152.984042 111.152323 
L 154.32559 106.929433 
L 158.350233 107.516516 
L 159.691781 112.875229 
L 161.033328 113.026649 
L 162.374876 101.797511 
L 163.716424 102.254507 
L 167.741067 102.858127 
L 169.082615 97.582876 
L 170.424162 92.768662 
L 171.76571 96.258741 
L 173.107258 94.775166 
L 177.131901 94.903817 
L 178.473449 102.128828 
L 179.814996 107.376314 
L 181.156544 107.43604 
L 182.498092 100.412727 
L 186.522735 96.026566 
L 187.864282 97.773841 
L 189.20583 100.883898 
L 190.547378 97.843174 
L 191.888926 102.444097 
L 195.913569 96.849969 
L 197.255116 86.174744 
L 198.596664 85.551204 
L 201.27976 102.146554 
L 205.304403 95.29388 
L 206.64595 106.658512 
L 207.987498 113.124181 
L 209.329046 101.33692 
L 210.670594 106.79601 
L 214.695237 97.379032 
L 216.036784 86.121865 
L 217.378332 79.798267 
L 218.71988 79.734621 
L 220.061427 73.365045 
L 224.086071 81.235578 
L 225.427618 78.679944 
L 226.769166 71.8061 
L 228.110714 74.118574 
L 229.452261 85.306966 
L 233.476905 96.38439 
L 234.818452 83.424846 
L 236.16 81.3604 
L 237.501548 73.432522 
L 242.867739 60.911596 
L 244.209286 60.411417 
L 245.550834 62.081239 
L 248.233929 64.436398 
L 252.258573 56.536299 
L 253.60012 52.154182 
L 254.941668 68.072775 
L 256.283216 59.362779 
L 257.624763 54.872631 
L 261.649406 58.11094 
L 262.990954 55.711919 
L 264.332502 55.068981 
L 265.67405 60.494835 
L 267.015597 60.95373 
L 272.381788 75.074546 
L 275.064884 89.882004 
L 276.406431 103.363813 
L 280.431074 103.450399 
L 281.772622 93.179036 
L 283.11417 92.254741 
L 284.455718 97.400378 
L 285.797265 82.692214 
L 289.821908 69.163477 
L 291.163456 59.341515 
L 292.505004 54.231878 
L 293.846551 88.970671 
L 295.188099 83.285455 
L 299.212742 83.01185 
L 300.55429 76.458419 
L 301.895838 65.291872 
L 303.237385 74.922447 
L 304.578933 91.217221 
L 308.603576 97.872548 
L 309.945124 88.268626 
L 311.286672 91.287622 
L 312.628219 100.750707 
L 313.969767 104.069881 
L 319.335958 109.364494 
L 320.677506 122.352806 
L 322.019053 115.5507 
L 323.360601 99.645816 
L 327.385244 104.18544 
L 328.726792 121.622687 
L 330.06834 106.293142 
L 331.409887 109.364009 
L 332.751435 115.225481 
L 336.776078 146.819596 
L 338.117626 149.561312 
L 339.459174 122.435647 
L 342.142269 140.106592 
L 346.166912 142.811642 
L 348.850008 111.972276 
L 350.191555 102.713232 
L 351.533103 91.613627 
L 355.557746 94.426922 
L 356.899294 84.60501 
L 358.240841 89.254489 
L 359.582389 78.469892 
L 360.923937 69.484434 
L 364.94858 70.062207 
L 366.290128 63.118253 
L 367.631675 64.331135 
L 368.973223 79.297317 
L 370.314771 76.128663 
L 374.339414 71.146159 
L 377.022509 89.08211 
L 378.364057 90.121494 
L 379.705605 90.09105 
L 383.730248 102.79969 
L 385.071796 105.591029 
L 386.413343 104.222934 
L 387.754891 114.560062 
L 393.121082 110.237515 
L 394.46263 96.717347 
L 395.804177 97.587196 
L 397.145725 110.602171 
L 398.487273 133.208234 
L 398.487273 133.208234 
" style="fill:none;stroke:#0d0d0d;stroke-linecap:square;stroke-opacity:0.25;stroke-width:2;"/>
   </g>
   <g id="patch_3">
    <path d="M 57.6 276.48 
L 57.6 41.472 
" style="fill:none;stroke:#000000;stroke-linecap:square;stroke-linejoin:miter;stroke-width:0.8;"/>
   </g>
   <g id="patch_4">
    <path d="M 414.72 276.48 
L 414.72 41.472 
" style="fill:none;stroke:#000000;stroke-linecap:square;stroke-linejoin:miter;stroke-width:0.8;"/>
   </g>
   <g id="patch_5">
    <path d="M 57.6 276.48 
L 414.72 276.48 
" style="fill:none;stroke:#000000;stroke-linecap:square;stroke-linejoin:miter;stroke-width:0.8;"/>
   </g>
   <g id="patch_6">
    <path d="M 57.6 41.472 
L 414.72 41.472 
" style="fill:none;stroke:#000000;stroke-linecap:square;stroke-linejoin:miter;stroke-width:0.8;"/>
   </g>
   <g id="text_18">
    <!-- TESTFUNDS1330 -->
    <g transform="translate(185.200312 22.034625)scale(0.12 -0.12)">
     <defs>
      <path d="M -19 4666 
L 3928 4666 
L 3928 4134 
L 2272 4134 
L 2272 0 
L 1638 0 
L 1638 4134 
L -19 4134 
L -19 4666 
z
" id="DejaVuSans-54" transform="scale(0.015625)"/>
      <path d="M 628 4666 
L 3578 4666 
L 3578 4134 
L 1259 4134 
L 1259 2753 
L 3481 2753 
L 3481 2222 
L 1259 2222 
L 1259 531 
L 3634 531 
L 3634 0 
L 628 0 
L 628 4666 
z
" id="DejaVuSans-45" transform="scale(0.015625)"/>
      <path d="M 3425 4513 
L 3425 3897 
Q 3066 4069 2747 4153 
Q 2428 4238 2131 4238 
Q 1616 4238 1336 4038 
Q 1056 3838 1056 3469 
Q 1056 3159 1242 3001 
Q 1428 2844 1947 2747 
L 2328 2669 
Q 3034 2534 3370 2195 
Q 3706 1856 3706 1288 
Q 3706 609 3251 259 
Q 2797 -91 1919 -91 
Q 1588 -91 1214 -16 
Q 841 59 441 206 
L 441 856 
Q 825 641 1194 531 
Q 1563 422 1919 422 
Q 2459 422 2753 634 
Q 3047 847 3047 1241 
Q 3047 1584 2836 1778 
Q 2625 1972 2144 2069 
L 1759 2144 
Q 1053 2284 737 2584 
Q 422 2884 422 3419 
Q 422 4038 858 4394 
Q 1294 4750 2059 4750 
Q 2388 4750 2728 4690 
Q 3069 4631 3425 4513 
z
" id="DejaVuSans-53" transform="scale(0.015625)"/>
      <path d="M 628 4666 
L 3309 4666 
L 3309 4134 
L 1259 4134 
L 1259 2759 
L 3109 2759 
L 3109 2228 
L 1259 2228 
L 1259 0 
L 628 0 
L 628 4666 
z
" id="DejaVuSans-46" transform="scale(0.015625)"/>
      <path d="M 556 4666 
L 1191 4666 
L 1191 1831 
Q 1191 1081 1462 751 
Q 1734 422 2344 422 
Q 2950 422 3222 751 
Q 3494 1081 3494 1831 
L 3494 4666 
L 4128 4666 
L 4128 1753 
Q 4128 841 3676 375 
Q 3225 -91 2344 -91 
Q 1459 -91 1007 375 
Q 556 841 556 1753 
L 556 4666 
z
" id="DejaVuSans-55" transform="scale(0.015625)"/>
      <path d="M 628 4666 
L 1478 4666 
L 3547 763 
L 3547 4666 
L 4159 4666 
L 4159 0 
L 3309 0 
L 1241 3903 
L 1241 0 
L 628 0 
L 628 4666 
z
" id="DejaVuSans-4e" transform="scale(0.015625)"/>
      <path d="M 1259 4147 
L 1259 519 
L 2022 519 
Q 2988 519 3436 956 
Q 3884 1394 3884 2338 
Q 3884 3275 3436 3711 
Q 2988 4147 2022 4147 
L 1259 4147 
z
M 628 4666 
L 1925 4666 
Q 3281 4666 3915 4102 
Q 4550 3538 4550 2338 
Q 4550 1131 3912 565 
Q 3275 0 1925 0 
L 628 0 
L 628 4666 
z
" id="DejaVuSans-44" transform="scale(0.015625)"/>
     </defs>
     <use xlink:href="#DejaVuSans-54"/>
     <use x="61.083984" xlink:href="#DejaVuSans-45"/>
     <use x="124.267578" xlink:href="#DejaVuSans-53"/>
     <use x="187.744141" xlink:href="#DejaVuSans-54"/>
     <use x="248.828125" xlink:href="#DejaVuSans-46"/>
     <use x="306.347656" xlink:href="#DejaVuSans-55"/>
     <use x="379.541016" xlink:href="#DejaVuSans-4e"/>
     <use x="454.345703" xlink:href="#DejaVuSans-44"/>
     <use x="531.347656" xlink:href="#DejaVuSans-53"/>
     <use x="594.824219" xlink:href="#DejaVuSans-31"/>
     <use x="658.447266" xlink:href="#DejaVuSans-33"/>
     <use x="722.070312" xlink:href="#DejaVuSans-33"/>
     <use x="785.693359" xlink:href="#DejaVuSans-30"/>
    </g>
    <!-- daily_report -->
    <g transform="translate(200.466563 35.472)scale(0.12 -0.12)">
     <defs>
      <path d="M 603 3500 
L 1178 3500 
L 1178 0 
L 603 0 
L 603 3500 
z
M 603 4863 
L 1178 4863 
L 1178 4134 
L 603 4134 
L 603 4863 
z
" id="DejaVuSans-69" transform="scale(0.015625)"/>
      <path d="M 603 4863 
L 1178 4863 
L 1178 0 
L 603 0 
L 603 4863 
z
" id="DejaVuSans-6c" transform="scale(0.015625)"/>
      <path d="M 2059 -325 
Q 1816 -950 1584 -1140 
Q 1353 -1331 966 -1331 
L 506 -1331 
L 506 -850 
L 844 -850 
Q 1081 -850 1212 -737 
Q 1344 -625 1503 -206 
L 1606 56 
L 191 3500 
L 800 3500 
L 1894 763 
L 2988 3500 
L 3597 3500 
L 2059 -325 
z
" id="DejaVuSans-79" transform="scale(0.015625)"/>
      <path d="M 3263 -1063 
L 3263 -1509 
L -63 -1509 
L -63 -1063 
L 3263 -1063 
z
" id="DejaVuSans-5f" transform="scale(0.015625)"/>
      <path d="M 2631 2963 
Q 2534 3019 2420 3045 
Q 2306 3072 2169 3072 
Q 1681 3072 1420 2755 
Q 1159 2438 1159 1844 
L 1159 0 
L 581 0 
L 581 3500 
L 1159 3500 
L 1159 2956 
Q 1341 3275 1631 3429 
Q 1922 3584 2338 3584 
Q 2397 3584 2469 3576 
Q 2541 3569 2628 3553 
L 2631 2963 
z
" id="DejaVuSans-72" transform="scale(0.015625)"/>
      <path d="M 1159 525 
L 1159 -1331 
L 581 -1331 
L 581 3500 
L 1159 3500 
L 1159 2969 
Q 1341 3281 1617 3432 
Q 1894 3584 2278 3584 
Q 2916 3584 3314 3078 
Q 3713 2572 3713 1747 
Q 3713 922 3314 415 
Q 2916 -91 2278 -91 
Q 1894 -91 1617 61 
Q 1341 213 1159 525 
z
M 3116 1747 
Q 3116 2381 2855 2742 
Q 2594 3103 2138 3103 
Q 1681 3103 1420 2742 
Q 1159 2381 1159 1747 
Q 1159 1113 1420 752 
Q 1681 391 2138 391 
Q 2594 391 2855 752 
Q 3116 1113 3116 1747 
z
" id="DejaVuSans-70" transform="scale(0.015625)"/>
      <path d="M 1959 3097 
Q 1497 3097 1228 2736 
Q 959 2375 959 1747 
Q 959 1119 1226 758 
Q 1494 397 1959 397 
Q 2419 397 2687 759 
Q 2956 1122 2956 1747 
Q 2956 2369 2687 2733 
Q 2419 3097 1959 3097 
z
M 1959 3584 
Q 2709 3584 3137 3096 
Q 3566 2609 3566 1747 
Q 3566 888 3137 398 
Q 2709 -91 1959 -91 
Q 1206 -91 779 398 
Q 353 888 353 1747 
Q 353 2609 779 3096 
Q 1206 3584 1959 3584 
z
" id="DejaVuSans-6f" transform="scale(0.015625)"/>
     </defs>
     <use xlink:href="#DejaVuSans-64"/>
     <use x="63.476562" xlink:href="#DejaVuSans-61"/>
     <use x="124.755859" xlink:href="#DejaVuSans-69"/>
     <use x="152.539062" xlink:href="#DejaVuSans-6c"/>
     <use x="180.322266" xlink:href="#DejaVuSans-79"/>
     <use x="239.501953" xlink:href="#DejaVuSans-5f"/>
     <use x="289.501953" xlink:href="#DejaVuSans-72"/>
     <use x="328.365234" xlink:href="#DejaVuSans-65"/>
     <use x="389.888672" xlink:href="#DejaVuSans-70"/>
     <use x="453.365234" xlink:href="#DejaVuSans-6f"/>
     <use x="514.546875" xlink:href="#DejaVuSans-72"/>
     <use x="555.660156" xlink:href="#DejaVuSans-74"/>
    </g>
   </g>
   <g id="legend_1">
    <g id="patch_7">
     <path d="M 64.6 271.48 
L 155.792188 271.48 
Q 157.792188 271.48 157.792188 269.48 
L 157.792188 197.089375 
Q 157.792188 195.089375 155.792188 195.089375 
L 64.6 195.089375 
Q 62.6 195.089375 62.6 197.089375 
L 62.6 269.48 
Q 62.6 271.48 64.6 271.48 
z
" style="fill:#ffffff;opacity:0.8;stroke:#cccccc;stroke-linejoin:miter;"/>
    </g>
    <g id="line2d_22">
     <path d="M 66.6 203.187812 
L 86.6 203.187812 
" style="fill:none;stroke:#0000ff;stroke-linecap:square;stroke-opacity:0.9;stroke-width:2;"/>
    </g>
    <g id="line2d_23"/>
    <g id="text_19">
     <!-- alpaca -->
     <g transform="translate(94.6 206.687812)scale(0.1 -0.1)">
      <defs>
       <path d="M 3122 3366 
L 3122 2828 
Q 2878 2963 2633 3030 
Q 2388 3097 2138 3097 
Q 1578 3097 1268 2742 
Q 959 2388 959 1747 
Q 959 1106 1268 751 
Q 1578 397 2138 397 
Q 2388 397 2633 464 
Q 2878 531 3122 666 
L 3122 134 
Q 2881 22 2623 -34 
Q 2366 -91 2075 -91 
Q 1284 -91 818 406 
Q 353 903 353 1747 
Q 353 2603 823 3093 
Q 1294 3584 2113 3584 
Q 2378 3584 2631 3529 
Q 2884 3475 3122 3366 
z
" id="DejaVuSans-63" transform="scale(0.015625)"/>
      </defs>
      <use xlink:href="#DejaVuSans-61"/>
      <use x="61.279297" xlink:href="#DejaVuSans-6c"/>
      <use x="89.0625" xlink:href="#DejaVuSans-70"/>
      <use x="152.539062" xlink:href="#DejaVuSans-61"/>
      <use x="213.818359" xlink:href="#DejaVuSans-63"/>
      <use x="268.798828" xlink:href="#DejaVuSans-61"/>
     </g>
    </g>
    <g id="line2d_24">
     <path d="M 66.6 217.865937 
L 86.6 217.865937 
" style="fill:none;stroke:#ff0000;stroke-linecap:square;stroke-opacity:0.9;stroke-width:2;"/>
    </g>
    <g id="line2d_25"/>
    <g id="text_20">
     <!-- mattress -->
     <g transform="translate(94.6 221.365937)scale(0.1 -0.1)">
      <defs>
       <path d="M 3328 2828 
Q 3544 3216 3844 3400 
Q 4144 3584 4550 3584 
Q 5097 3584 5394 3201 
Q 5691 2819 5691 2113 
L 5691 0 
L 5113 0 
L 5113 2094 
Q 5113 2597 4934 2840 
Q 4756 3084 4391 3084 
Q 3944 3084 3684 2787 
Q 3425 2491 3425 1978 
L 3425 0 
L 2847 0 
L 2847 2094 
Q 2847 2600 2669 2842 
Q 2491 3084 2119 3084 
Q 1678 3084 1418 2786 
Q 1159 2488 1159 1978 
L 1159 0 
L 581 0 
L 581 3500 
L 1159 3500 
L 1159 2956 
Q 1356 3278 1631 3431 
Q 1906 3584 2284 3584 
Q 2666 3584 2933 3390 
Q 3200 3197 3328 2828 
z
" id="DejaVuSans-6d" transform="scale(0.015625)"/>
       <path d="M 2834 3397 
L 2834 2853 
Q 2591 2978 2328 3040 
Q 2066 3103 1784 3103 
Q 1356 3103 1142 2972 
Q 928 2841 928 2578 
Q 928 2378 1081 2264 
Q 1234 2150 1697 2047 
L 1894 2003 
Q 2506 1872 2764 1633 
Q 3022 1394 3022 966 
Q 3022 478 2636 193 
Q 2250 -91 1575 -91 
Q 1294 -91 989 -36 
Q 684 19 347 128 
L 347 722 
Q 666 556 975 473 
Q 1284 391 1588 391 
Q 1994 391 2212 530 
Q 2431 669 2431 922 
Q 2431 1156 2273 1281 
Q 2116 1406 1581 1522 
L 1381 1569 
Q 847 1681 609 1914 
Q 372 2147 372 2553 
Q 372 3047 722 3315 
Q 1072 3584 1716 3584 
Q 2034 3584 2315 3537 
Q 2597 3491 2834 3397 
z
" id="DejaVuSans-73" transform="scale(0.015625)"/>
      </defs>
      <use xlink:href="#DejaVuSans-6d"/>
      <use x="97.412109" xlink:href="#DejaVuSans-61"/>
      <use x="158.691406" xlink:href="#DejaVuSans-74"/>
      <use x="197.900391" xlink:href="#DejaVuSans-74"/>
      <use x="237.109375" xlink:href="#DejaVuSans-72"/>
      <use x="275.972656" xlink:href="#DejaVuSans-65"/>
      <use x="337.496094" xlink:href="#DejaVuSans-73"/>
      <use x="389.595703" xlink:href="#DejaVuSans-73"/>
     </g>
    </g>
    <g id="line2d_26">
     <path d="M 66.6 232.544062 
L 86.6 232.544062 
" style="fill:none;stroke:#ff8040;stroke-linecap:square;stroke-opacity:0.9;stroke-width:2;"/>
    </g>
    <g id="line2d_27"/>
    <g id="text_21">
     <!-- trader-0850 -->
     <g transform="translate(94.6 236.044062)scale(0.1 -0.1)">
      <use xlink:href="#DejaVuSans-74"/>
      <use x="39.208984" xlink:href="#DejaVuSans-72"/>
      <use x="80.322266" xlink:href="#DejaVuSans-61"/>
      <use x="141.601562" xlink:href="#DejaVuSans-64"/>
      <use x="205.078125" xlink:href="#DejaVuSans-65"/>
      <use x="266.601562" xlink:href="#DejaVuSans-72"/>
      <use x="301.339844" xlink:href="#DejaVuSans-2d"/>
      <use x="337.423828" xlink:href="#DejaVuSans-30"/>
      <use x="401.046875" xlink:href="#DejaVuSans-38"/>
      <use x="464.669922" xlink:href="#DejaVuSans-35"/>
      <use x="528.292969" xlink:href="#DejaVuSans-30"/>
     </g>
    </g>
    <g id="line2d_28">
     <path d="M 66.6 247.222187 
L 86.6 247.222187 
" style="fill:none;stroke:#0d0d0d;stroke-linecap:square;stroke-opacity:0.25;stroke-width:2;"/>
    </g>
    <g id="line2d_29"/>
    <g id="text_22">
     <!-- rando-min -->
     <g transform="translate(94.6 250.722187)scale(0.1 -0.1)">
      <defs>
       <path d="M 3513 2113 
L 3513 0 
L 2938 0 
L 2938 2094 
Q 2938 2591 2744 2837 
Q 2550 3084 2163 3084 
Q 1697 3084 1428 2787 
Q 1159 2491 1159 1978 
L 1159 0 
L 581 0 
L 581 3500 
L 1159 3500 
L 1159 2956 
Q 1366 3272 1645 3428 
Q 1925 3584 2291 3584 
Q 2894 3584 3203 3211 
Q 3513 2838 3513 2113 
z
" id="DejaVuSans-6e" transform="scale(0.015625)"/>
      </defs>
      <use xlink:href="#DejaVuSans-72"/>
      <use x="41.113281" xlink:href="#DejaVuSans-61"/>
      <use x="102.392578" xlink:href="#DejaVuSans-6e"/>
      <use x="165.771484" xlink:href="#DejaVuSans-64"/>
      <use x="229.248047" xlink:href="#DejaVuSans-6f"/>
      <use x="292.304688" xlink:href="#DejaVuSans-2d"/>
      <use x="328.388672" xlink:href="#DejaVuSans-6d"/>
      <use x="425.800781" xlink:href="#DejaVuSans-69"/>
      <use x="453.583984" xlink:href="#DejaVuSans-6e"/>
     </g>
    </g>
    <g id="line2d_30">
     <path d="M 66.6 261.900312 
L 86.6 261.900312 
" style="fill:none;stroke:#0d0d0d;stroke-linecap:square;stroke-opacity:0.25;stroke-width:2;"/>
    </g>
    <g id="line2d_31"/>
    <g id="text_23">
     <!-- rando-max -->
     <g transform="translate(94.6 265.400312)scale(0.1 -0.1)">
      <defs>
       <path d="M 3513 3500 
L 2247 1797 
L 3578 0 
L 2900 0 
L 1881 1375 
L 863 0 
L 184 0 
L 1544 1831 
L 300 3500 
L 978 3500 
L 1906 2253 
L 2834 3500 
L 3513 3500 
z
" id="DejaVuSans-78" transform="scale(0.015625)"/>
      </defs>
      <use xlink:href="#DejaVuSans-72"/>
      <use x="41.113281" xlink:href="#DejaVuSans-61"/>
      <use x="102.392578" xlink:href="#DejaVuSans-6e"/>
      <use x="165.771484" xlink:href="#DejaVuSans-64"/>
      <use x="229.248047" xlink:href="#DejaVuSans-6f"/>
      <use x="292.304688" xlink:href="#DejaVuSans-2d"/>
      <use x="328.388672" xlink:href="#DejaVuSans-6d"/>
      <use x="425.800781" xlink:href="#DejaVuSans-61"/>
      <use x="487.080078" xlink:href="#DejaVuSans-78"/>
     </g>
    </g>
   </g>
  </g>
 </g>
 <defs>
  <clipPath id="pdcc6f952f5">
   <rect height="235.008" width="357.12" x="57.6" y="41.472"/>
  </clipPath>
 </defs>
</svg>
