<?xml version="1.0" encoding="utf-8" standalone="no"?>
<!DOCTYPE svg PUBLIC "-//W3C//DTD SVG 1.1//EN"
  "http://www.w3.org/Graphics/SVG/1.1/DTD/svg11.dtd">
<svg height="345.6pt" version="1.1" viewBox="0 0 460.8 345.6" width="460.8pt" xmlns="http://www.w3.org/2000/svg" xmlns:xlink="http://www.w3.org/1999/xlink">
 <metadata>
  <rdf:RDF xmlns:cc="http://creativecommons.org/ns#" xmlns:dc="http://purl.org/dc/elements/1.1/" xmlns:rdf="http://www.w3.org/1999/02/22-rdf-syntax-ns#">
   <cc:Work>
    <dc:type rdf:resource="http://purl.org/dc/dcmitype/StillImage"/>
    <dc:date>2022-05-04T10:01:57.265261</dc:date>
    <dc:format>image/svg+xml</dc:format>
    <dc:creator>
     <cc:Agent>
      <dc:title>Matplotlib v3.4.3, https://matplotlib.org/</dc:title>
     </cc:Agent>
    </dc:creator>
   </cc:Work>
  </rdf:RDF>
 </metadata>
 <defs>
  <style type="text/css">*{stroke-linecap:butt;stroke-linejoin:round;}</style>
 </defs>
 <g id="figure_1">
  <g id="patch_1">
   <path d="M 0 345.6 
L 460.8 345.6 
L 460.8 0 
L 0 0 
z
" style="fill:#ffffff;"/>
  </g>
  <g id="axes_1">
   <g id="patch_2">
    <path d="M 57.6 276.48 
L 414.72 276.48 
L 414.72 41.472 
L 57.6 41.472 
z
" style="fill:#ffffff;"/>
   </g>
   <g id="matplotlib.axis_1">
    <g id="xtick_1">
     <g id="line2d_1">
      <defs>
       <path d="M 0 0 
L 0 3.5 
" id="mf7c4d8172a" style="stroke:#000000;stroke-width:0.8;"/>
      </defs>
      <g>
       <use style="stroke:#000000;stroke-width:0.8;" x="99.257481" xlink:href="#mf7c4d8172a" y="276.48"/>
      </g>
     </g>
     <g id="text_1">
      <!-- 2021-12 -->
      <g transform="translate(62.03266 310.951846)rotate(-30)scale(0.1 -0.1)">
       <defs>
        <path d="M 1228 531 
L 3431 531 
L 3431 0 
L 469 0 
L 469 531 
Q 828 903 1448 1529 
Q 2069 2156 2228 2338 
Q 2531 2678 2651 2914 
Q 2772 3150 2772 3378 
Q 2772 3750 2511 3984 
Q 2250 4219 1831 4219 
Q 1534 4219 1204 4116 
Q 875 4013 500 3803 
L 500 4441 
Q 881 4594 1212 4672 
Q 1544 4750 1819 4750 
Q 2544 4750 2975 4387 
Q 3406 4025 3406 3419 
Q 3406 3131 3298 2873 
Q 3191 2616 2906 2266 
Q 2828 2175 2409 1742 
Q 1991 1309 1228 531 
z
" id="DejaVuSans-32" transform="scale(0.015625)"/>
        <path d="M 2034 4250 
Q 1547 4250 1301 3770 
Q 1056 3291 1056 2328 
Q 1056 1369 1301 889 
Q 1547 409 2034 409 
Q 2525 409 2770 889 
Q 3016 1369 3016 2328 
Q 3016 3291 2770 3770 
Q 2525 4250 2034 4250 
z
M 2034 4750 
Q 2819 4750 3233 4129 
Q 3647 3509 3647 2328 
Q 3647 1150 3233 529 
Q 2819 -91 2034 -91 
Q 1250 -91 836 529 
Q 422 1150 422 2328 
Q 422 3509 836 4129 
Q 1250 4750 2034 4750 
z
" id="DejaVuSans-30" transform="scale(0.015625)"/>
        <path d="M 794 531 
L 1825 531 
L 1825 4091 
L 703 3866 
L 703 4441 
L 1819 4666 
L 2450 4666 
L 2450 531 
L 3481 531 
L 3481 0 
L 794 0 
L 794 531 
z
" id="DejaVuSans-31" transform="scale(0.015625)"/>
        <path d="M 313 2009 
L 1997 2009 
L 1997 1497 
L 313 1497 
L 313 2009 
z
" id="DejaVuSans-2d" transform="scale(0.015625)"/>
       </defs>
       <use xlink:href="#DejaVuSans-32"/>
       <use x="63.623047" xlink:href="#DejaVuSans-30"/>
       <use x="127.246094" xlink:href="#DejaVuSans-32"/>
       <use x="190.869141" xlink:href="#DejaVuSans-31"/>
       <use x="254.492188" xlink:href="#DejaVuSans-2d"/>
       <use x="290.576172" xlink:href="#DejaVuSans-31"/>
       <use x="354.199219" xlink:href="#DejaVuSans-32"/>
      </g>
     </g>
    </g>
    <g id="xtick_2">
     <g id="line2d_2">
      <g>
       <use style="stroke:#000000;stroke-width:0.8;" x="159.885739" xlink:href="#mf7c4d8172a" y="276.48"/>
      </g>
     </g>
     <g id="text_2">
      <!-- 2022-01 -->
      <g transform="translate(122.660919 310.951846)rotate(-30)scale(0.1 -0.1)">
       <use xlink:href="#DejaVuSans-32"/>
       <use x="63.623047" xlink:href="#DejaVuSans-30"/>
       <use x="127.246094" xlink:href="#DejaVuSans-32"/>
       <use x="190.869141" xlink:href="#DejaVuSans-32"/>
       <use x="254.492188" xlink:href="#DejaVuSans-2d"/>
       <use x="290.576172" xlink:href="#DejaVuSans-30"/>
       <use x="354.199219" xlink:href="#DejaVuSans-31"/>
      </g>
     </g>
    </g>
    <g id="xtick_3">
     <g id="line2d_3">
      <g>
       <use style="stroke:#000000;stroke-width:0.8;" x="220.513998" xlink:href="#mf7c4d8172a" y="276.48"/>
      </g>
     </g>
     <g id="text_3">
      <!-- 2022-02 -->
      <g transform="translate(183.289177 310.951846)rotate(-30)scale(0.1 -0.1)">
       <use xlink:href="#DejaVuSans-32"/>
       <use x="63.623047" xlink:href="#DejaVuSans-30"/>
       <use x="127.246094" xlink:href="#DejaVuSans-32"/>
       <use x="190.869141" xlink:href="#DejaVuSans-32"/>
       <use x="254.492188" xlink:href="#DejaVuSans-2d"/>
       <use x="290.576172" xlink:href="#DejaVuSans-30"/>
       <use x="354.199219" xlink:href="#DejaVuSans-32"/>
      </g>
     </g>
    </g>
    <g id="xtick_4">
     <g id="line2d_4">
      <g>
       <use style="stroke:#000000;stroke-width:0.8;" x="275.275005" xlink:href="#mf7c4d8172a" y="276.48"/>
      </g>
     </g>
     <g id="text_4">
      <!-- 2022-03 -->
      <g transform="translate(238.050185 310.951846)rotate(-30)scale(0.1 -0.1)">
       <defs>
        <path d="M 2597 2516 
Q 3050 2419 3304 2112 
Q 3559 1806 3559 1356 
Q 3559 666 3084 287 
Q 2609 -91 1734 -91 
Q 1441 -91 1130 -33 
Q 819 25 488 141 
L 488 750 
Q 750 597 1062 519 
Q 1375 441 1716 441 
Q 2309 441 2620 675 
Q 2931 909 2931 1356 
Q 2931 1769 2642 2001 
Q 2353 2234 1838 2234 
L 1294 2234 
L 1294 2753 
L 1863 2753 
Q 2328 2753 2575 2939 
Q 2822 3125 2822 3475 
Q 2822 3834 2567 4026 
Q 2313 4219 1838 4219 
Q 1578 4219 1281 4162 
Q 984 4106 628 3988 
L 628 4550 
Q 988 4650 1302 4700 
Q 1616 4750 1894 4750 
Q 2613 4750 3031 4423 
Q 3450 4097 3450 3541 
Q 3450 3153 3228 2886 
Q 3006 2619 2597 2516 
z
" id="DejaVuSans-33" transform="scale(0.015625)"/>
       </defs>
       <use xlink:href="#DejaVuSans-32"/>
       <use x="63.623047" xlink:href="#DejaVuSans-30"/>
       <use x="127.246094" xlink:href="#DejaVuSans-32"/>
       <use x="190.869141" xlink:href="#DejaVuSans-32"/>
       <use x="254.492188" xlink:href="#DejaVuSans-2d"/>
       <use x="290.576172" xlink:href="#DejaVuSans-30"/>
       <use x="354.199219" xlink:href="#DejaVuSans-33"/>
      </g>
     </g>
    </g>
    <g id="xtick_5">
     <g id="line2d_5">
      <g>
       <use style="stroke:#000000;stroke-width:0.8;" x="335.903264" xlink:href="#mf7c4d8172a" y="276.48"/>
      </g>
     </g>
     <g id="text_5">
      <!-- 2022-04 -->
      <g transform="translate(298.678443 310.951846)rotate(-30)scale(0.1 -0.1)">
       <defs>
        <path d="M 2419 4116 
L 825 1625 
L 2419 1625 
L 2419 4116 
z
M 2253 4666 
L 3047 4666 
L 3047 1625 
L 3713 1625 
L 3713 1100 
L 3047 1100 
L 3047 0 
L 2419 0 
L 2419 1100 
L 313 1100 
L 313 1709 
L 2253 4666 
z
" id="DejaVuSans-34" transform="scale(0.015625)"/>
       </defs>
       <use xlink:href="#DejaVuSans-32"/>
       <use x="63.623047" xlink:href="#DejaVuSans-30"/>
       <use x="127.246094" xlink:href="#DejaVuSans-32"/>
       <use x="190.869141" xlink:href="#DejaVuSans-32"/>
       <use x="254.492188" xlink:href="#DejaVuSans-2d"/>
       <use x="290.576172" xlink:href="#DejaVuSans-30"/>
       <use x="354.199219" xlink:href="#DejaVuSans-34"/>
      </g>
     </g>
    </g>
    <g id="xtick_6">
     <g id="line2d_6">
      <g>
       <use style="stroke:#000000;stroke-width:0.8;" x="394.575772" xlink:href="#mf7c4d8172a" y="276.48"/>
      </g>
     </g>
     <g id="text_6">
      <!-- 2022-05 -->
      <g transform="translate(357.350951 310.951846)rotate(-30)scale(0.1 -0.1)">
       <defs>
        <path d="M 691 4666 
L 3169 4666 
L 3169 4134 
L 1269 4134 
L 1269 2991 
Q 1406 3038 1543 3061 
Q 1681 3084 1819 3084 
Q 2600 3084 3056 2656 
Q 3513 2228 3513 1497 
Q 3513 744 3044 326 
Q 2575 -91 1722 -91 
Q 1428 -91 1123 -41 
Q 819 9 494 109 
L 494 744 
Q 775 591 1075 516 
Q 1375 441 1709 441 
Q 2250 441 2565 725 
Q 2881 1009 2881 1497 
Q 2881 1984 2565 2268 
Q 2250 2553 1709 2553 
Q 1456 2553 1204 2497 
Q 953 2441 691 2322 
L 691 4666 
z
" id="DejaVuSans-35" transform="scale(0.015625)"/>
       </defs>
       <use xlink:href="#DejaVuSans-32"/>
       <use x="63.623047" xlink:href="#DejaVuSans-30"/>
       <use x="127.246094" xlink:href="#DejaVuSans-32"/>
       <use x="190.869141" xlink:href="#DejaVuSans-32"/>
       <use x="254.492188" xlink:href="#DejaVuSans-2d"/>
       <use x="290.576172" xlink:href="#DejaVuSans-30"/>
       <use x="354.199219" xlink:href="#DejaVuSans-35"/>
      </g>
     </g>
    </g>
    <g id="text_7">
     <!-- date -->
     <g transform="translate(224.885 324.351346)scale(0.1 -0.1)">
      <defs>
       <path d="M 2906 2969 
L 2906 4863 
L 3481 4863 
L 3481 0 
L 2906 0 
L 2906 525 
Q 2725 213 2448 61 
Q 2172 -91 1784 -91 
Q 1150 -91 751 415 
Q 353 922 353 1747 
Q 353 2572 751 3078 
Q 1150 3584 1784 3584 
Q 2172 3584 2448 3432 
Q 2725 3281 2906 2969 
z
M 947 1747 
Q 947 1113 1208 752 
Q 1469 391 1925 391 
Q 2381 391 2643 752 
Q 2906 1113 2906 1747 
Q 2906 2381 2643 2742 
Q 2381 3103 1925 3103 
Q 1469 3103 1208 2742 
Q 947 2381 947 1747 
z
" id="DejaVuSans-64" transform="scale(0.015625)"/>
       <path d="M 2194 1759 
Q 1497 1759 1228 1600 
Q 959 1441 959 1056 
Q 959 750 1161 570 
Q 1363 391 1709 391 
Q 2188 391 2477 730 
Q 2766 1069 2766 1631 
L 2766 1759 
L 2194 1759 
z
M 3341 1997 
L 3341 0 
L 2766 0 
L 2766 531 
Q 2569 213 2275 61 
Q 1981 -91 1556 -91 
Q 1019 -91 701 211 
Q 384 513 384 1019 
Q 384 1609 779 1909 
Q 1175 2209 1959 2209 
L 2766 2209 
L 2766 2266 
Q 2766 2663 2505 2880 
Q 2244 3097 1772 3097 
Q 1472 3097 1187 3025 
Q 903 2953 641 2809 
L 641 3341 
Q 956 3463 1253 3523 
Q 1550 3584 1831 3584 
Q 2591 3584 2966 3190 
Q 3341 2797 3341 1997 
z
" id="DejaVuSans-61" transform="scale(0.015625)"/>
       <path d="M 1172 4494 
L 1172 3500 
L 2356 3500 
L 2356 3053 
L 1172 3053 
L 1172 1153 
Q 1172 725 1289 603 
Q 1406 481 1766 481 
L 2356 481 
L 2356 0 
L 1766 0 
Q 1100 0 847 248 
Q 594 497 594 1153 
L 594 3053 
L 172 3053 
L 172 3500 
L 594 3500 
L 594 4494 
L 1172 4494 
z
" id="DejaVuSans-74" transform="scale(0.015625)"/>
       <path d="M 3597 1894 
L 3597 1613 
L 953 1613 
Q 991 1019 1311 708 
Q 1631 397 2203 397 
Q 2534 397 2845 478 
Q 3156 559 3463 722 
L 3463 178 
Q 3153 47 2828 -22 
Q 2503 -91 2169 -91 
Q 1331 -91 842 396 
Q 353 884 353 1716 
Q 353 2575 817 3079 
Q 1281 3584 2069 3584 
Q 2775 3584 3186 3129 
Q 3597 2675 3597 1894 
z
M 3022 2063 
Q 3016 2534 2758 2815 
Q 2500 3097 2075 3097 
Q 1594 3097 1305 2825 
Q 1016 2553 972 2059 
L 3022 2063 
z
" id="DejaVuSans-65" transform="scale(0.015625)"/>
      </defs>
      <use xlink:href="#DejaVuSans-64"/>
      <use x="63.476562" xlink:href="#DejaVuSans-61"/>
      <use x="124.755859" xlink:href="#DejaVuSans-74"/>
      <use x="163.964844" xlink:href="#DejaVuSans-65"/>
     </g>
    </g>
   </g>
   <g id="matplotlib.axis_2">
    <g id="ytick_1">
     <g id="line2d_7">
      <defs>
       <path d="M 0 0 
L -3.5 0 
" id="mf964363d38" style="stroke:#000000;stroke-width:0.8;"/>
      </defs>
      <g>
       <use style="stroke:#000000;stroke-width:0.8;" x="57.6" xlink:href="#mf964363d38" y="266.423423"/>
      </g>
     </g>
     <g id="text_8">
      <!-- 50000 -->
      <g transform="translate(18.7875 270.222642)scale(0.1 -0.1)">
       <use xlink:href="#DejaVuSans-35"/>
       <use x="63.623047" xlink:href="#DejaVuSans-30"/>
       <use x="127.246094" xlink:href="#DejaVuSans-30"/>
       <use x="190.869141" xlink:href="#DejaVuSans-30"/>
       <use x="254.492188" xlink:href="#DejaVuSans-30"/>
      </g>
     </g>
    </g>
    <g id="ytick_2">
     <g id="line2d_8">
      <g>
       <use style="stroke:#000000;stroke-width:0.8;" x="57.6" xlink:href="#mf964363d38" y="223.116148"/>
      </g>
     </g>
     <g id="text_9">
      <!-- 60000 -->
      <g transform="translate(18.7875 226.915366)scale(0.1 -0.1)">
       <defs>
        <path d="M 2113 2584 
Q 1688 2584 1439 2293 
Q 1191 2003 1191 1497 
Q 1191 994 1439 701 
Q 1688 409 2113 409 
Q 2538 409 2786 701 
Q 3034 994 3034 1497 
Q 3034 2003 2786 2293 
Q 2538 2584 2113 2584 
z
M 3366 4563 
L 3366 3988 
Q 3128 4100 2886 4159 
Q 2644 4219 2406 4219 
Q 1781 4219 1451 3797 
Q 1122 3375 1075 2522 
Q 1259 2794 1537 2939 
Q 1816 3084 2150 3084 
Q 2853 3084 3261 2657 
Q 3669 2231 3669 1497 
Q 3669 778 3244 343 
Q 2819 -91 2113 -91 
Q 1303 -91 875 529 
Q 447 1150 447 2328 
Q 447 3434 972 4092 
Q 1497 4750 2381 4750 
Q 2619 4750 2861 4703 
Q 3103 4656 3366 4563 
z
" id="DejaVuSans-36" transform="scale(0.015625)"/>
       </defs>
       <use xlink:href="#DejaVuSans-36"/>
       <use x="63.623047" xlink:href="#DejaVuSans-30"/>
       <use x="127.246094" xlink:href="#DejaVuSans-30"/>
       <use x="190.869141" xlink:href="#DejaVuSans-30"/>
       <use x="254.492188" xlink:href="#DejaVuSans-30"/>
      </g>
     </g>
    </g>
    <g id="ytick_3">
     <g id="line2d_9">
      <g>
       <use style="stroke:#000000;stroke-width:0.8;" x="57.6" xlink:href="#mf964363d38" y="179.808872"/>
      </g>
     </g>
     <g id="text_10">
      <!-- 70000 -->
      <g transform="translate(18.7875 183.608091)scale(0.1 -0.1)">
       <defs>
        <path d="M 525 4666 
L 3525 4666 
L 3525 4397 
L 1831 0 
L 1172 0 
L 2766 4134 
L 525 4134 
L 525 4666 
z
" id="DejaVuSans-37" transform="scale(0.015625)"/>
       </defs>
       <use xlink:href="#DejaVuSans-37"/>
       <use x="63.623047" xlink:href="#DejaVuSans-30"/>
       <use x="127.246094" xlink:href="#DejaVuSans-30"/>
       <use x="190.869141" xlink:href="#DejaVuSans-30"/>
       <use x="254.492188" xlink:href="#DejaVuSans-30"/>
      </g>
     </g>
    </g>
    <g id="ytick_4">
     <g id="line2d_10">
      <g>
       <use style="stroke:#000000;stroke-width:0.8;" x="57.6" xlink:href="#mf964363d38" y="136.501596"/>
      </g>
     </g>
     <g id="text_11">
      <!-- 80000 -->
      <g transform="translate(18.7875 140.300815)scale(0.1 -0.1)">
       <defs>
        <path d="M 2034 2216 
Q 1584 2216 1326 1975 
Q 1069 1734 1069 1313 
Q 1069 891 1326 650 
Q 1584 409 2034 409 
Q 2484 409 2743 651 
Q 3003 894 3003 1313 
Q 3003 1734 2745 1975 
Q 2488 2216 2034 2216 
z
M 1403 2484 
Q 997 2584 770 2862 
Q 544 3141 544 3541 
Q 544 4100 942 4425 
Q 1341 4750 2034 4750 
Q 2731 4750 3128 4425 
Q 3525 4100 3525 3541 
Q 3525 3141 3298 2862 
Q 3072 2584 2669 2484 
Q 3125 2378 3379 2068 
Q 3634 1759 3634 1313 
Q 3634 634 3220 271 
Q 2806 -91 2034 -91 
Q 1263 -91 848 271 
Q 434 634 434 1313 
Q 434 1759 690 2068 
Q 947 2378 1403 2484 
z
M 1172 3481 
Q 1172 3119 1398 2916 
Q 1625 2713 2034 2713 
Q 2441 2713 2670 2916 
Q 2900 3119 2900 3481 
Q 2900 3844 2670 4047 
Q 2441 4250 2034 4250 
Q 1625 4250 1398 4047 
Q 1172 3844 1172 3481 
z
" id="DejaVuSans-38" transform="scale(0.015625)"/>
       </defs>
       <use xlink:href="#DejaVuSans-38"/>
       <use x="63.623047" xlink:href="#DejaVuSans-30"/>
       <use x="127.246094" xlink:href="#DejaVuSans-30"/>
       <use x="190.869141" xlink:href="#DejaVuSans-30"/>
       <use x="254.492188" xlink:href="#DejaVuSans-30"/>
      </g>
     </g>
    </g>
    <g id="ytick_5">
     <g id="line2d_11">
      <g>
       <use style="stroke:#000000;stroke-width:0.8;" x="57.6" xlink:href="#mf964363d38" y="93.19432"/>
      </g>
     </g>
     <g id="text_12">
      <!-- 90000 -->
      <g transform="translate(18.7875 96.993539)scale(0.1 -0.1)">
       <defs>
        <path d="M 703 97 
L 703 672 
Q 941 559 1184 500 
Q 1428 441 1663 441 
Q 2288 441 2617 861 
Q 2947 1281 2994 2138 
Q 2813 1869 2534 1725 
Q 2256 1581 1919 1581 
Q 1219 1581 811 2004 
Q 403 2428 403 3163 
Q 403 3881 828 4315 
Q 1253 4750 1959 4750 
Q 2769 4750 3195 4129 
Q 3622 3509 3622 2328 
Q 3622 1225 3098 567 
Q 2575 -91 1691 -91 
Q 1453 -91 1209 -44 
Q 966 3 703 97 
z
M 1959 2075 
Q 2384 2075 2632 2365 
Q 2881 2656 2881 3163 
Q 2881 3666 2632 3958 
Q 2384 4250 1959 4250 
Q 1534 4250 1286 3958 
Q 1038 3666 1038 3163 
Q 1038 2656 1286 2365 
Q 1534 2075 1959 2075 
z
" id="DejaVuSans-39" transform="scale(0.015625)"/>
       </defs>
       <use xlink:href="#DejaVuSans-39"/>
       <use x="63.623047" xlink:href="#DejaVuSans-30"/>
       <use x="127.246094" xlink:href="#DejaVuSans-30"/>
       <use x="190.869141" xlink:href="#DejaVuSans-30"/>
       <use x="254.492188" xlink:href="#DejaVuSans-30"/>
      </g>
     </g>
    </g>
    <g id="ytick_6">
     <g id="line2d_12">
      <g>
       <use style="stroke:#000000;stroke-width:0.8;" x="57.6" xlink:href="#mf964363d38" y="49.887044"/>
      </g>
     </g>
     <g id="text_13">
      <!-- 100000 -->
      <g transform="translate(12.425 53.686263)scale(0.1 -0.1)">
       <use xlink:href="#DejaVuSans-31"/>
       <use x="63.623047" xlink:href="#DejaVuSans-30"/>
       <use x="127.246094" xlink:href="#DejaVuSans-30"/>
       <use x="190.869141" xlink:href="#DejaVuSans-30"/>
       <use x="254.492188" xlink:href="#DejaVuSans-30"/>
       <use x="318.115234" xlink:href="#DejaVuSans-30"/>
      </g>
     </g>
    </g>
   </g>
   <g id="line2d_13">
    <path clip-path="url(#p754735379f)" d="M 73.832727 61.824226 
L 75.788478 57.027786 
L 81.655728 52.154182 
L 83.611479 66.171505 
L 85.567229 65.709498 
L 89.478729 66.038866 
L 95.34598 75.367343 
L 97.301731 85.392732 
L 99.257481 110.604629 
L 101.213231 108.67599 
L 103.168981 129.120328 
L 109.036232 128.633258 
L 110.991982 110.824941 
L 112.947733 102.803259 
L 114.903483 124.054015 
L 116.859233 127.264449 
L 122.726484 142.789465 
L 124.682234 138.295393 
L 126.637985 133.716012 
L 128.593735 142.700398 
L 130.549485 130.118512 
L 136.416736 139.502589 
L 138.372486 126.534043 
L 140.328237 125.428366 
L 142.283987 122.312628 
L 150.106988 122.805913 
L 152.062738 128.23671 
L 154.018488 134.627041 
L 155.974239 126.620561 
L 157.929989 135.349129 
L 163.79724 122.416244 
L 165.75299 132.502778 
L 167.70874 157.850999 
L 169.664491 159.760612 
L 171.620241 155.809582 
L 177.487492 160.823231 
L 179.443242 154.151412 
L 181.398992 151.034169 
L 183.354743 170.749068 
L 185.310493 169.976131 
L 193.133494 186.570531 
L 195.089244 193.645384 
L 197.044995 199.340098 
L 199.000745 211.195386 
L 204.867996 218.122147 
L 206.823746 224.893197 
L 208.779496 224.698222 
L 210.735246 244.130703 
L 212.690997 238.692656 
L 218.558248 212.650165 
L 220.513998 204.213669 
L 222.469748 216.019802 
L 224.425498 225.655921 
L 226.381249 216.010382 
L 232.248499 218.425128 
L 234.20425 205.915693 
L 236.16 189.957716 
L 238.11575 199.126163 
L 240.071501 210.558268 
L 245.938751 216.102869 
L 247.894502 190.134114 
L 249.850252 192.511363 
L 251.806002 207.535433 
L 253.761752 217.317448 
L 261.584754 226.901992 
L 263.540504 236.461474 
L 265.496254 220.973606 
L 267.452004 216.618224 
L 273.319255 204.790088 
L 275.275005 206.177379 
L 277.230756 201.815489 
L 279.186506 216.339858 
L 281.142256 228.937833 
L 287.009507 241.914618 
L 288.965257 236.585889 
L 290.921008 225.74821 
L 292.876758 234.143398 
L 294.832508 248.955184 
L 300.699759 265.053526 
L 302.655509 253.388712 
L 304.61126 231.515463 
L 306.56701 221.674917 
L 308.52276 210.964521 
L 314.390011 210.217369 
L 316.345761 189.391991 
L 318.301512 181.636117 
L 320.257262 177.307739 
L 322.213012 181.519049 
L 328.080263 152.648588 
L 330.036013 140.555642 
L 331.991763 151.424898 
L 333.947514 163.24938 
L 335.903264 164.272382 
L 341.770515 149.120779 
L 343.726265 171.182853 
L 345.682015 184.02349 
L 347.637766 189.688355 
L 349.593516 200.47563 
L 355.460767 202.779277 
L 357.416517 207.183764 
L 359.372267 196.647409 
L 361.328018 205.103681 
L 369.151019 211.352626 
L 371.106769 200.456719 
L 373.062519 215.905789 
L 375.018269 223.085178 
L 376.97402 226.208666 
L 382.841271 223.801792 
L 384.797021 242.428568 
L 386.752771 240.26089 
L 388.708521 238.029451 
L 390.664272 244.71309 
L 396.531522 238.376942 
L 398.487273 242.448082 
" style="fill:none;stroke:#0000ff;stroke-linecap:square;stroke-opacity:0.9;stroke-width:2;"/>
   </g>
   <g id="line2d_14">
    <path clip-path="url(#p754735379f)" d="M 73.832727 61.824226 
L 75.788478 57.347933 
L 81.655728 52.407893 
L 83.611479 66.409719 
L 85.567229 66.127456 
L 89.478729 78.894151 
L 95.34598 75.56046 
L 97.301731 85.296244 
L 99.257481 110.69884 
L 101.213231 108.372387 
L 103.168981 128.897726 
L 109.036232 128.473485 
L 110.991982 110.772278 
L 112.947733 102.588053 
L 114.903483 123.757532 
L 116.859233 126.729024 
L 122.726484 142.595707 
L 124.682234 138.421656 
L 126.637985 133.577652 
L 128.593735 142.488232 
L 130.549485 129.773324 
L 136.416736 139.524171 
L 138.372486 126.41534 
L 140.328237 125.248405 
L 142.283987 122.102143 
L 150.106988 123.126387 
L 152.062738 128.27714 
L 154.018488 135.318016 
L 155.974239 126.815882 
L 157.929989 135.510559 
L 163.79724 122.426102 
L 165.75299 132.283853 
L 167.70874 155.499312 
L 169.664491 157.203511 
L 171.620241 154.148363 
L 177.487492 158.459677 
L 179.443242 151.062661 
L 181.398992 146.536028 
L 183.354743 164.998342 
L 185.310493 163.345123 
L 193.133494 179.432888 
L 195.089244 186.165213 
L 197.044995 191.898562 
L 199.000745 205.202943 
L 204.867996 212.436421 
L 206.823746 219.279426 
L 208.779496 219.895692 
L 210.735246 239.355999 
L 212.690997 234.113636 
L 218.558248 209.829848 
L 220.513998 201.480675 
L 222.469748 211.213102 
L 224.425498 219.852775 
L 226.381249 210.882486 
L 232.248499 212.260912 
L 234.20425 201.306422 
L 236.16 187.382492 
L 238.11575 196.632719 
L 240.071501 210.488836 
L 245.938751 215.452089 
L 247.894502 192.398399 
L 249.850252 194.224746 
L 251.806002 208.845488 
L 253.761752 217.204477 
L 261.584754 225.736114 
L 263.540504 235.261397 
L 265.496254 222.993944 
L 267.452004 216.148877 
L 273.319255 206.080179 
L 275.275005 208.564771 
L 277.230756 203.510104 
L 279.186506 217.061199 
L 281.142256 230.010637 
L 287.009507 242.420195 
L 288.965257 237.137042 
L 290.921008 226.137252 
L 292.876758 234.230518 
L 294.832508 247.774949 
L 300.699759 261.320701 
L 302.655509 250.4016 
L 304.61126 230.274907 
L 306.56701 222.031783 
L 308.52276 212.920385 
L 314.390011 210.611687 
L 316.345761 193.269816 
L 318.301512 187.567278 
L 320.257262 182.919889 
L 322.213012 185.465736 
L 328.080263 160.252859 
L 330.036013 151.563481 
L 331.991763 162.075073 
L 333.947514 173.210367 
L 335.903264 173.694769 
L 341.770515 160.106127 
L 343.726265 180.861811 
L 345.682015 192.368937 
L 347.637766 197.179322 
L 349.593516 206.652892 
L 355.460767 209.247291 
L 357.416517 212.214074 
L 359.372267 201.951544 
L 361.328018 209.358136 
L 369.151019 214.030506 
L 371.106769 204.902844 
L 373.062519 218.146819 
L 375.018269 223.889244 
L 376.97402 227.92503 
L 382.841271 227.526948 
L 384.797021 246.317092 
L 386.752771 243.616848 
L 388.708521 241.228371 
L 390.664272 247.758568 
L 396.531522 242.669993 
L 398.487273 239.725863 
" style="fill:none;stroke:#ff0000;stroke-linecap:square;stroke-opacity:0.9;stroke-width:2;"/>
   </g>
   <g id="line2d_15">
    <path clip-path="url(#p754735379f)" d="M 73.832727 61.824226 
L 75.788478 56.935367 
L 81.655728 52.880118 
L 83.611479 66.085857 
L 85.567229 65.246395 
L 89.478729 78.121678 
L 95.34598 75.180981 
L 97.301731 84.990727 
L 99.257481 110.897901 
L 101.213231 107.854504 
L 103.168981 128.037401 
L 109.036232 127.673054 
L 110.991982 109.443547 
L 112.947733 101.254647 
L 114.903483 122.594695 
L 116.859233 126.403387 
L 122.726484 143.347208 
L 124.682234 137.338791 
L 126.637985 132.823533 
L 128.593735 141.446614 
L 130.549485 126.641505 
L 136.416736 136.108563 
L 138.372486 122.648639 
L 140.328237 122.554281 
L 142.283987 119.67905 
L 150.106988 121.448191 
L 152.062738 126.831645 
L 154.018488 133.882752 
L 155.974239 123.761327 
L 157.929989 133.528876 
L 163.79724 121.148096 
L 165.75299 130.884378 
L 167.70874 155.94695 
L 169.664491 158.109391 
L 171.620241 153.52156 
L 177.487492 158.358712 
L 179.443242 151.713703 
L 181.398992 148.167709 
L 183.354743 168.303914 
L 185.310493 167.785987 
L 193.133494 184.671613 
L 195.089244 191.422089 
L 197.044995 197.190343 
L 199.000745 208.987644 
L 204.867996 216.221408 
L 206.823746 223.064523 
L 208.779496 223.401095 
L 210.735246 242.931401 
L 212.690997 237.354221 
L 218.558248 211.295984 
L 220.513998 202.616158 
L 222.469748 214.793987 
L 224.425498 224.437913 
L 226.381249 214.508508 
L 232.248499 216.59994 
L 234.20425 204.508019 
L 236.16 188.665332 
L 238.11575 197.389892 
L 240.071501 209.319077 
L 245.938751 214.937662 
L 247.894502 189.12443 
L 249.850252 191.303519 
L 251.806002 206.803181 
L 253.761752 216.329991 
L 261.584754 226.024263 
L 263.540504 235.719142 
L 265.496254 219.88292 
L 267.452004 215.638019 
L 273.319255 204.249487 
L 275.275005 205.323521 
L 277.230756 201.1088 
L 279.186506 215.659527 
L 281.142256 228.532064 
L 287.009507 241.903373 
L 288.965257 236.821787 
L 290.921008 225.641502 
L 292.876758 234.494756 
L 294.832508 249.465426 
L 300.699759 265.357805 
L 302.655509 253.51243 
L 304.61126 231.417101 
L 306.56701 222.466747 
L 308.52276 211.351972 
L 314.390011 210.139368 
L 316.345761 188.537989 
L 318.301512 179.884007 
L 320.257262 175.636837 
L 322.213012 179.63039 
L 328.080263 148.833328 
L 330.036013 136.942635 
L 331.991763 148.065108 
L 333.947514 160.387755 
L 335.903264 160.542374 
L 341.770515 145.487021 
L 343.726265 167.945895 
L 345.682015 179.979754 
L 347.637766 185.850341 
L 349.593516 196.505649 
L 355.460767 198.597658 
L 357.416517 202.809502 
L 359.372267 191.98897 
L 361.328018 200.322895 
L 369.151019 206.611703 
L 371.106769 195.587738 
L 373.062519 211.051411 
L 375.018269 218.475182 
L 376.97402 222.094704 
L 382.841271 219.627522 
L 384.797021 238.3539 
L 386.752771 236.389681 
L 388.708521 233.97726 
L 390.664272 240.945683 
L 396.531522 234.613586 
L 398.487273 232.24509 
" style="fill:none;stroke:#008000;stroke-linecap:square;stroke-opacity:0.9;stroke-width:2;"/>
   </g>
   <g id="line2d_16">
    <path clip-path="url(#p754735379f)" d="M 73.832727 61.824226 
L 75.788478 57.115812 
L 81.655728 52.827875 
L 83.611479 65.796873 
L 85.567229 65.210512 
L 89.478729 78.074858 
L 95.34598 74.944183 
L 97.301731 84.889288 
L 99.257481 110.849293 
L 101.213231 107.916711 
L 103.168981 128.186375 
L 109.036232 127.582703 
L 110.991982 109.67621 
L 112.947733 101.021775 
L 114.903483 122.743366 
L 116.859233 126.370524 
L 122.726484 143.310894 
L 124.682234 138.394843 
L 126.637985 133.768898 
L 128.593735 142.628011 
L 130.549485 127.79302 
L 136.416736 137.464033 
L 138.372486 124.037027 
L 140.328237 123.347043 
L 142.283987 120.394075 
L 150.106988 122.331166 
L 152.062738 127.755885 
L 154.018488 134.513992 
L 155.974239 124.383579 
L 157.929989 134.000298 
L 163.79724 121.816241 
L 165.75299 131.464729 
L 167.70874 156.737376 
L 169.664491 158.895723 
L 171.620241 154.862996 
L 177.487492 159.456223 
L 179.443242 153.171849 
L 181.398992 149.852738 
L 183.354743 169.78798 
L 185.310493 168.946027 
L 193.133494 185.575577 
L 195.089244 193.036793 
L 197.044995 198.628356 
L 199.000745 210.333133 
L 204.867996 217.113364 
L 206.823746 223.982717 
L 208.779496 224.482766 
L 210.735246 243.629594 
L 212.690997 238.205684 
L 218.558248 212.433983 
L 220.513998 203.601478 
L 222.469748 215.969366 
L 224.425498 225.347632 
L 226.381249 215.687463 
L 232.248499 217.995354 
L 234.20425 205.524867 
L 236.16 189.789434 
L 238.11575 198.645592 
L 240.071501 210.202825 
L 245.938751 215.908882 
L 247.894502 190.068115 
L 249.850252 191.888015 
L 251.806002 207.322748 
L 253.761752 216.824778 
L 261.584754 226.575076 
L 263.540504 236.313196 
L 265.496254 220.470656 
L 267.452004 215.684517 
L 273.319255 204.139908 
L 275.275005 205.337022 
L 277.230756 201.133468 
L 279.186506 215.470062 
L 281.142256 228.546566 
L 287.009507 241.73152 
L 288.965257 237.011902 
L 290.921008 225.626424 
L 292.876758 234.431653 
L 294.832508 249.293037 
L 300.699759 265.172541 
L 302.655509 253.68394 
L 304.61126 231.6435 
L 306.56701 222.784925 
L 308.52276 211.705408 
L 314.390011 210.777562 
L 316.345761 188.888614 
L 318.301512 180.627402 
L 320.257262 176.404139 
L 322.213012 180.263708 
L 328.080263 149.485174 
L 330.036013 137.397387 
L 331.991763 148.797279 
L 333.947514 161.383134 
L 335.903264 161.809388 
L 341.770515 146.961556 
L 343.726265 169.230064 
L 345.682015 181.221874 
L 347.637766 187.251408 
L 349.593516 197.862881 
L 355.460767 200.32914 
L 357.416517 203.963944 
L 359.372267 193.59601 
L 361.328018 201.822962 
L 369.151019 208.119076 
L 371.106769 197.048123 
L 373.062519 212.162306 
L 375.018269 219.805828 
L 376.97402 223.610846 
L 382.841271 220.624156 
L 384.797021 239.642035 
L 386.752771 237.803668 
L 388.708521 235.234621 
L 390.664272 242.080498 
L 396.531522 235.988041 
L 398.487273 233.360441 
" style="fill:none;stroke:#ec5283;stroke-linecap:square;stroke-width:2;"/>
   </g>
   <g id="line2d_17">
    <path clip-path="url(#p754735379f)" d="M 73.832727 61.824226 
L 75.788478 57.13348 
L 81.655728 53.02483 
L 83.611479 65.751049 
L 85.567229 65.44015 
L 89.478729 78.051976 
L 95.34598 74.854222 
L 97.301731 84.071111 
L 99.257481 109.606204 
L 101.213231 107.016497 
L 103.168981 126.54746 
L 109.036232 125.766963 
L 110.991982 108.447374 
L 112.947733 100.239276 
L 114.903483 121.365606 
L 116.859233 124.992765 
L 122.726484 141.329927 
L 124.682234 135.346822 
L 126.637985 130.935556 
L 128.593735 139.680946 
L 130.549485 124.902966 
L 136.416736 134.581966 
L 138.372486 121.582598 
L 140.328237 120.902216 
L 142.283987 118.034155 
L 150.106988 119.631305 
L 152.062738 125.481793 
L 154.018488 131.858081 
L 155.974239 122.235153 
L 157.929989 131.772488 
L 163.79724 119.336162 
L 165.75299 129.403549 
L 167.70874 154.038909 
L 169.664491 155.611101 
L 171.620241 151.186943 
L 177.487492 155.979166 
L 179.443242 149.46024 
L 181.398992 145.942885 
L 183.354743 165.584385 
L 185.310493 165.107566 
L 193.133494 181.61248 
L 195.089244 188.577991 
L 197.044995 194.008399 
L 199.000745 205.617994 
L 204.867996 212.534339 
L 206.823746 219.011972 
L 208.779496 219.131443 
L 210.735246 238.261703 
L 212.690997 232.990076 
L 218.558248 207.794053 
L 220.513998 199.064008 
L 222.469748 210.755782 
L 224.425498 220.233563 
L 226.381249 210.912752 
L 232.248499 213.085847 
L 234.20425 201.15007 
L 236.16 185.165306 
L 238.11575 193.988793 
L 240.071501 205.403539 
L 245.938751 210.958468 
L 247.894502 186.128202 
L 249.850252 188.369374 
L 251.806002 203.230031 
L 253.761752 212.67787 
L 261.584754 221.887601 
L 263.540504 231.39745 
L 265.496254 216.136315 
L 267.452004 211.770101 
L 273.319255 200.398359 
L 275.275005 201.612236 
L 277.230756 197.405021 
L 279.186506 211.67461 
L 281.142256 224.513213 
L 287.009507 237.469538 
L 288.965257 232.327522 
L 290.921008 221.393105 
L 292.876758 230.172622 
L 294.832508 244.774553 
L 300.699759 260.319393 
L 302.655509 248.87822 
L 304.61126 227.053351 
L 306.56701 218.624066 
L 308.52276 207.907832 
L 314.390011 206.624215 
L 316.345761 185.395058 
L 318.301512 176.871171 
L 320.257262 173.035976 
L 322.213012 176.860256 
L 328.080263 146.5975 
L 330.036013 134.900753 
L 331.991763 146.069979 
L 333.947514 158.033182 
L 335.903264 158.228084 
L 341.770515 143.335891 
L 343.726265 165.297177 
L 345.682015 176.967461 
L 347.637766 182.93855 
L 349.593516 193.049906 
L 355.460767 195.361253 
L 357.416517 199.511945 
L 359.372267 188.849815 
L 361.328018 197.249176 
L 369.151019 203.061716 
L 371.106769 192.235077 
L 373.062519 207.199842 
L 375.018269 214.643114 
L 376.97402 218.23231 
L 382.841271 215.548405 
L 384.797021 234.073409 
L 386.752771 232.201389 
L 388.708521 229.606095 
L 390.664272 236.552499 
L 396.531522 230.593647 
L 398.487273 228.171263 
" style="fill:none;stroke:#00ff00;stroke-linecap:square;stroke-opacity:0.9;stroke-width:2;"/>
   </g>
   <g id="line2d_18">
    <path clip-path="url(#p754735379f)" d="M 73.832727 61.824226 
L 75.788478 59.500152 
L 81.655728 58.991586 
L 83.611479 64.621985 
L 85.567229 64.664307 
L 89.478729 76.463012 
L 95.34598 77.014726 
L 97.301731 85.25935 
L 99.257481 110.403531 
L 101.213231 105.775503 
L 103.168981 125.397448 
L 109.036232 121.131721 
L 110.991982 103.327582 
L 112.947733 91.875259 
L 114.903483 114.596029 
L 116.859233 120.337515 
L 122.726484 134.13523 
L 124.682234 131.103755 
L 126.637985 126.410821 
L 128.593735 136.026813 
L 130.549485 118.236285 
L 136.416736 129.824811 
L 138.372486 114.718109 
L 140.328237 115.486572 
L 142.283987 111.340195 
L 150.106988 117.211992 
L 152.062738 123.74206 
L 154.018488 134.136621 
L 155.974239 118.258471 
L 157.929989 130.239911 
L 163.79724 119.869463 
L 165.75299 128.464792 
L 167.70874 158.011017 
L 169.664491 160.284 
L 171.620241 155.576993 
L 177.487492 161.788483 
L 179.443242 155.487472 
L 181.398992 155.676461 
L 183.354743 176.509228 
L 185.310493 176.206852 
L 193.133494 193.738057 
L 195.089244 202.018202 
L 197.044995 207.544879 
L 199.000745 218.853234 
L 204.867996 222.684915 
L 206.823746 229.410768 
L 208.779496 228.328046 
L 210.735246 247.851279 
L 212.690997 242.525591 
L 218.558248 213.380836 
L 220.513998 204.130188 
L 222.469748 218.839927 
L 224.425498 229.803716 
L 226.381249 218.69167 
L 232.248499 222.256741 
L 234.20425 209.900916 
L 236.16 192.122329 
L 238.11575 200.967675 
L 240.071501 211.61548 
L 245.938751 217.037339 
L 247.894502 183.167334 
L 249.850252 187.070146 
L 251.806002 203.872728 
L 253.761752 216.51277 
L 261.584754 227.47009 
L 263.540504 236.544437 
L 265.496254 218.35766 
L 267.452004 215.258449 
L 273.319255 201.227631 
L 275.275005 195.782216 
L 277.230756 193.304619 
L 279.186506 211.763689 
L 281.142256 225.256274 
L 287.009507 238.855567 
L 288.965257 235.098653 
L 290.921008 221.518797 
L 292.876758 233.275035 
L 294.832508 247.89574 
L 300.699759 265.797818 
L 302.655509 252.361677 
L 304.61126 226.811682 
L 306.56701 219.168807 
L 308.52276 206.64576 
L 314.390011 205.326193 
L 316.345761 178.43897 
L 318.301512 170.28332 
L 320.257262 165.968206 
L 322.213012 173.07043 
L 328.080263 147.655375 
L 330.036013 130.453099 
L 331.991763 138.691119 
L 333.947514 153.096418 
L 335.903264 149.760414 
L 341.770515 135.214083 
L 343.726265 158.158835 
L 345.682015 168.341457 
L 347.637766 173.752193 
L 349.593516 183.185386 
L 355.460767 185.030932 
L 357.416517 188.150896 
L 359.372267 176.94935 
L 361.328018 188.200816 
L 369.151019 195.933396 
L 371.106769 184.009222 
L 373.062519 202.941824 
L 375.018269 212.750902 
L 376.97402 215.311058 
L 382.841271 208.903645 
L 384.797021 227.221827 
L 386.752771 227.628398 
L 388.708521 224.594142 
L 390.664272 232.835346 
L 396.531522 222.470028 
L 398.487273 220.95656 
" style="fill:none;stroke:#a5b9cf;stroke-linecap:square;stroke-width:2;"/>
   </g>
   <g id="patch_3">
    <path d="M 57.6 276.48 
L 57.6 41.472 
" style="fill:none;stroke:#000000;stroke-linecap:square;stroke-linejoin:miter;stroke-width:0.8;"/>
   </g>
   <g id="patch_4">
    <path d="M 414.72 276.48 
L 414.72 41.472 
" style="fill:none;stroke:#000000;stroke-linecap:square;stroke-linejoin:miter;stroke-width:0.8;"/>
   </g>
   <g id="patch_5">
    <path d="M 57.6 276.48 
L 414.72 276.48 
" style="fill:none;stroke:#000000;stroke-linecap:square;stroke-linejoin:miter;stroke-width:0.8;"/>
   </g>
   <g id="patch_6">
    <path d="M 57.6 41.472 
L 414.72 41.472 
" style="fill:none;stroke:#000000;stroke-linecap:square;stroke-linejoin:miter;stroke-width:0.8;"/>
   </g>
   <g id="text_14">
    <!-- STONKS -->
    <g transform="translate(211.730625 22.034625)scale(0.12 -0.12)">
     <defs>
      <path d="M 3425 4513 
L 3425 3897 
Q 3066 4069 2747 4153 
Q 2428 4238 2131 4238 
Q 1616 4238 1336 4038 
Q 1056 3838 1056 3469 
Q 1056 3159 1242 3001 
Q 1428 2844 1947 2747 
L 2328 2669 
Q 3034 2534 3370 2195 
Q 3706 1856 3706 1288 
Q 3706 609 3251 259 
Q 2797 -91 1919 -91 
Q 1588 -91 1214 -16 
Q 841 59 441 206 
L 441 856 
Q 825 641 1194 531 
Q 1563 422 1919 422 
Q 2459 422 2753 634 
Q 3047 847 3047 1241 
Q 3047 1584 2836 1778 
Q 2625 1972 2144 2069 
L 1759 2144 
Q 1053 2284 737 2584 
Q 422 2884 422 3419 
Q 422 4038 858 4394 
Q 1294 4750 2059 4750 
Q 2388 4750 2728 4690 
Q 3069 4631 3425 4513 
z
" id="DejaVuSans-53" transform="scale(0.015625)"/>
      <path d="M -19 4666 
L 3928 4666 
L 3928 4134 
L 2272 4134 
L 2272 0 
L 1638 0 
L 1638 4134 
L -19 4134 
L -19 4666 
z
" id="DejaVuSans-54" transform="scale(0.015625)"/>
      <path d="M 2522 4238 
Q 1834 4238 1429 3725 
Q 1025 3213 1025 2328 
Q 1025 1447 1429 934 
Q 1834 422 2522 422 
Q 3209 422 3611 934 
Q 4013 1447 4013 2328 
Q 4013 3213 3611 3725 
Q 3209 4238 2522 4238 
z
M 2522 4750 
Q 3503 4750 4090 4092 
Q 4678 3434 4678 2328 
Q 4678 1225 4090 567 
Q 3503 -91 2522 -91 
Q 1538 -91 948 565 
Q 359 1222 359 2328 
Q 359 3434 948 4092 
Q 1538 4750 2522 4750 
z
" id="DejaVuSans-4f" transform="scale(0.015625)"/>
      <path d="M 628 4666 
L 1478 4666 
L 3547 763 
L 3547 4666 
L 4159 4666 
L 4159 0 
L 3309 0 
L 1241 3903 
L 1241 0 
L 628 0 
L 628 4666 
z
" id="DejaVuSans-4e" transform="scale(0.015625)"/>
      <path d="M 628 4666 
L 1259 4666 
L 1259 2694 
L 3353 4666 
L 4166 4666 
L 1850 2491 
L 4331 0 
L 3500 0 
L 1259 2247 
L 1259 0 
L 628 0 
L 628 4666 
z
" id="DejaVuSans-4b" transform="scale(0.015625)"/>
     </defs>
     <use xlink:href="#DejaVuSans-53"/>
     <use x="63.476562" xlink:href="#DejaVuSans-54"/>
     <use x="124.560547" xlink:href="#DejaVuSans-4f"/>
     <use x="203.271484" xlink:href="#DejaVuSans-4e"/>
     <use x="278.076172" xlink:href="#DejaVuSans-4b"/>
     <use x="343.652344" xlink:href="#DejaVuSans-53"/>
    </g>
    <!-- daily_report -->
    <g transform="translate(200.466563 35.472)scale(0.12 -0.12)">
     <defs>
      <path d="M 603 3500 
L 1178 3500 
L 1178 0 
L 603 0 
L 603 3500 
z
M 603 4863 
L 1178 4863 
L 1178 4134 
L 603 4134 
L 603 4863 
z
" id="DejaVuSans-69" transform="scale(0.015625)"/>
      <path d="M 603 4863 
L 1178 4863 
L 1178 0 
L 603 0 
L 603 4863 
z
" id="DejaVuSans-6c" transform="scale(0.015625)"/>
      <path d="M 2059 -325 
Q 1816 -950 1584 -1140 
Q 1353 -1331 966 -1331 
L 506 -1331 
L 506 -850 
L 844 -850 
Q 1081 -850 1212 -737 
Q 1344 -625 1503 -206 
L 1606 56 
L 191 3500 
L 800 3500 
L 1894 763 
L 2988 3500 
L 3597 3500 
L 2059 -325 
z
" id="DejaVuSans-79" transform="scale(0.015625)"/>
      <path d="M 3263 -1063 
L 3263 -1509 
L -63 -1509 
L -63 -1063 
L 3263 -1063 
z
" id="DejaVuSans-5f" transform="scale(0.015625)"/>
      <path d="M 2631 2963 
Q 2534 3019 2420 3045 
Q 2306 3072 2169 3072 
Q 1681 3072 1420 2755 
Q 1159 2438 1159 1844 
L 1159 0 
L 581 0 
L 581 3500 
L 1159 3500 
L 1159 2956 
Q 1341 3275 1631 3429 
Q 1922 3584 2338 3584 
Q 2397 3584 2469 3576 
Q 2541 3569 2628 3553 
L 2631 2963 
z
" id="DejaVuSans-72" transform="scale(0.015625)"/>
      <path d="M 1159 525 
L 1159 -1331 
L 581 -1331 
L 581 3500 
L 1159 3500 
L 1159 2969 
Q 1341 3281 1617 3432 
Q 1894 3584 2278 3584 
Q 2916 3584 3314 3078 
Q 3713 2572 3713 1747 
Q 3713 922 3314 415 
Q 2916 -91 2278 -91 
Q 1894 -91 1617 61 
Q 1341 213 1159 525 
z
M 3116 1747 
Q 3116 2381 2855 2742 
Q 2594 3103 2138 3103 
Q 1681 3103 1420 2742 
Q 1159 2381 1159 1747 
Q 1159 1113 1420 752 
Q 1681 391 2138 391 
Q 2594 391 2855 752 
Q 3116 1113 3116 1747 
z
" id="DejaVuSans-70" transform="scale(0.015625)"/>
      <path d="M 1959 3097 
Q 1497 3097 1228 2736 
Q 959 2375 959 1747 
Q 959 1119 1226 758 
Q 1494 397 1959 397 
Q 2419 397 2687 759 
Q 2956 1122 2956 1747 
Q 2956 2369 2687 2733 
Q 2419 3097 1959 3097 
z
M 1959 3584 
Q 2709 3584 3137 3096 
Q 3566 2609 3566 1747 
Q 3566 888 3137 398 
Q 2709 -91 1959 -91 
Q 1206 -91 779 398 
Q 353 888 353 1747 
Q 353 2609 779 3096 
Q 1206 3584 1959 3584 
z
" id="DejaVuSans-6f" transform="scale(0.015625)"/>
     </defs>
     <use xlink:href="#DejaVuSans-64"/>
     <use x="63.476562" xlink:href="#DejaVuSans-61"/>
     <use x="124.755859" xlink:href="#DejaVuSans-69"/>
     <use x="152.539062" xlink:href="#DejaVuSans-6c"/>
     <use x="180.322266" xlink:href="#DejaVuSans-79"/>
     <use x="239.501953" xlink:href="#DejaVuSans-5f"/>
     <use x="289.501953" xlink:href="#DejaVuSans-72"/>
     <use x="328.365234" xlink:href="#DejaVuSans-65"/>
     <use x="389.888672" xlink:href="#DejaVuSans-70"/>
     <use x="453.365234" xlink:href="#DejaVuSans-6f"/>
     <use x="514.546875" xlink:href="#DejaVuSans-72"/>
     <use x="555.660156" xlink:href="#DejaVuSans-74"/>
    </g>
   </g>
   <g id="legend_1">
    <g id="patch_7">
     <path d="M 64.6 271.48 
L 178.64375 271.48 
Q 180.64375 271.48 180.64375 269.48 
L 180.64375 182.41125 
Q 180.64375 180.41125 178.64375 180.41125 
L 64.6 180.41125 
Q 62.6 180.41125 62.6 182.41125 
L 62.6 269.48 
Q 62.6 271.48 64.6 271.48 
z
" style="fill:#ffffff;opacity:0.8;stroke:#cccccc;stroke-linejoin:miter;"/>
    </g>
    <g id="line2d_19">
     <path d="M 66.6 188.509687 
L 86.6 188.509687 
" style="fill:none;stroke:#0000ff;stroke-linecap:square;stroke-opacity:0.9;stroke-width:2;"/>
    </g>
    <g id="line2d_20"/>
    <g id="text_15">
     <!-- alpaca -->
     <g transform="translate(94.6 192.009687)scale(0.1 -0.1)">
      <defs>
       <path d="M 3122 3366 
L 3122 2828 
Q 2878 2963 2633 3030 
Q 2388 3097 2138 3097 
Q 1578 3097 1268 2742 
Q 959 2388 959 1747 
Q 959 1106 1268 751 
Q 1578 397 2138 397 
Q 2388 397 2633 464 
Q 2878 531 3122 666 
L 3122 134 
Q 2881 22 2623 -34 
Q 2366 -91 2075 -91 
Q 1284 -91 818 406 
Q 353 903 353 1747 
Q 353 2603 823 3093 
Q 1294 3584 2113 3584 
Q 2378 3584 2631 3529 
Q 2884 3475 3122 3366 
z
" id="DejaVuSans-63" transform="scale(0.015625)"/>
      </defs>
      <use xlink:href="#DejaVuSans-61"/>
      <use x="61.279297" xlink:href="#DejaVuSans-6c"/>
      <use x="89.0625" xlink:href="#DejaVuSans-70"/>
      <use x="152.539062" xlink:href="#DejaVuSans-61"/>
      <use x="213.818359" xlink:href="#DejaVuSans-63"/>
      <use x="268.798828" xlink:href="#DejaVuSans-61"/>
     </g>
    </g>
    <g id="line2d_21">
     <path d="M 66.6 203.187812 
L 86.6 203.187812 
" style="fill:none;stroke:#ff0000;stroke-linecap:square;stroke-opacity:0.9;stroke-width:2;"/>
    </g>
    <g id="line2d_22"/>
    <g id="text_16">
     <!-- mattress -->
     <g transform="translate(94.6 206.687812)scale(0.1 -0.1)">
      <defs>
       <path d="M 3328 2828 
Q 3544 3216 3844 3400 
Q 4144 3584 4550 3584 
Q 5097 3584 5394 3201 
Q 5691 2819 5691 2113 
L 5691 0 
L 5113 0 
L 5113 2094 
Q 5113 2597 4934 2840 
Q 4756 3084 4391 3084 
Q 3944 3084 3684 2787 
Q 3425 2491 3425 1978 
L 3425 0 
L 2847 0 
L 2847 2094 
Q 2847 2600 2669 2842 
Q 2491 3084 2119 3084 
Q 1678 3084 1418 2786 
Q 1159 2488 1159 1978 
L 1159 0 
L 581 0 
L 581 3500 
L 1159 3500 
L 1159 2956 
Q 1356 3278 1631 3431 
Q 1906 3584 2284 3584 
Q 2666 3584 2933 3390 
Q 3200 3197 3328 2828 
z
" id="DejaVuSans-6d" transform="scale(0.015625)"/>
       <path d="M 2834 3397 
L 2834 2853 
Q 2591 2978 2328 3040 
Q 2066 3103 1784 3103 
Q 1356 3103 1142 2972 
Q 928 2841 928 2578 
Q 928 2378 1081 2264 
Q 1234 2150 1697 2047 
L 1894 2003 
Q 2506 1872 2764 1633 
Q 3022 1394 3022 966 
Q 3022 478 2636 193 
Q 2250 -91 1575 -91 
Q 1294 -91 989 -36 
Q 684 19 347 128 
L 347 722 
Q 666 556 975 473 
Q 1284 391 1588 391 
Q 1994 391 2212 530 
Q 2431 669 2431 922 
Q 2431 1156 2273 1281 
Q 2116 1406 1581 1522 
L 1381 1569 
Q 847 1681 609 1914 
Q 372 2147 372 2553 
Q 372 3047 722 3315 
Q 1072 3584 1716 3584 
Q 2034 3584 2315 3537 
Q 2597 3491 2834 3397 
z
" id="DejaVuSans-73" transform="scale(0.015625)"/>
      </defs>
      <use xlink:href="#DejaVuSans-6d"/>
      <use x="97.412109" xlink:href="#DejaVuSans-61"/>
      <use x="158.691406" xlink:href="#DejaVuSans-74"/>
      <use x="197.900391" xlink:href="#DejaVuSans-74"/>
      <use x="237.109375" xlink:href="#DejaVuSans-72"/>
      <use x="275.972656" xlink:href="#DejaVuSans-65"/>
      <use x="337.496094" xlink:href="#DejaVuSans-73"/>
      <use x="389.595703" xlink:href="#DejaVuSans-73"/>
     </g>
    </g>
    <g id="line2d_23">
     <path d="M 66.6 217.865937 
L 86.6 217.865937 
" style="fill:none;stroke:#008000;stroke-linecap:square;stroke-opacity:0.9;stroke-width:2;"/>
    </g>
    <g id="line2d_24"/>
    <g id="text_17">
     <!-- daily-open-rebal -->
     <g transform="translate(94.6 221.365937)scale(0.1 -0.1)">
      <defs>
       <path d="M 3513 2113 
L 3513 0 
L 2938 0 
L 2938 2094 
Q 2938 2591 2744 2837 
Q 2550 3084 2163 3084 
Q 1697 3084 1428 2787 
Q 1159 2491 1159 1978 
L 1159 0 
L 581 0 
L 581 3500 
L 1159 3500 
L 1159 2956 
Q 1366 3272 1645 3428 
Q 1925 3584 2291 3584 
Q 2894 3584 3203 3211 
Q 3513 2838 3513 2113 
z
" id="DejaVuSans-6e" transform="scale(0.015625)"/>
       <path d="M 3116 1747 
Q 3116 2381 2855 2742 
Q 2594 3103 2138 3103 
Q 1681 3103 1420 2742 
Q 1159 2381 1159 1747 
Q 1159 1113 1420 752 
Q 1681 391 2138 391 
Q 2594 391 2855 752 
Q 3116 1113 3116 1747 
z
M 1159 2969 
Q 1341 3281 1617 3432 
Q 1894 3584 2278 3584 
Q 2916 3584 3314 3078 
Q 3713 2572 3713 1747 
Q 3713 922 3314 415 
Q 2916 -91 2278 -91 
Q 1894 -91 1617 61 
Q 1341 213 1159 525 
L 1159 0 
L 581 0 
L 581 4863 
L 1159 4863 
L 1159 2969 
z
" id="DejaVuSans-62" transform="scale(0.015625)"/>
      </defs>
      <use xlink:href="#DejaVuSans-64"/>
      <use x="63.476562" xlink:href="#DejaVuSans-61"/>
      <use x="124.755859" xlink:href="#DejaVuSans-69"/>
      <use x="152.539062" xlink:href="#DejaVuSans-6c"/>
      <use x="180.322266" xlink:href="#DejaVuSans-79"/>
      <use x="237.751953" xlink:href="#DejaVuSans-2d"/>
      <use x="275.710938" xlink:href="#DejaVuSans-6f"/>
      <use x="336.892578" xlink:href="#DejaVuSans-70"/>
      <use x="400.369141" xlink:href="#DejaVuSans-65"/>
      <use x="461.892578" xlink:href="#DejaVuSans-6e"/>
      <use x="525.271484" xlink:href="#DejaVuSans-2d"/>
      <use x="561.355469" xlink:href="#DejaVuSans-72"/>
      <use x="600.21875" xlink:href="#DejaVuSans-65"/>
      <use x="661.742188" xlink:href="#DejaVuSans-62"/>
      <use x="725.21875" xlink:href="#DejaVuSans-61"/>
      <use x="786.498047" xlink:href="#DejaVuSans-6c"/>
     </g>
    </g>
    <g id="line2d_25">
     <path d="M 66.6 232.544062 
L 86.6 232.544062 
" style="fill:none;stroke:#ec5283;stroke-linecap:square;stroke-width:2;"/>
    </g>
    <g id="line2d_26"/>
    <g id="text_18">
     <!-- daily-close-rebal -->
     <g transform="translate(94.6 236.044062)scale(0.1 -0.1)">
      <use xlink:href="#DejaVuSans-64"/>
      <use x="63.476562" xlink:href="#DejaVuSans-61"/>
      <use x="124.755859" xlink:href="#DejaVuSans-69"/>
      <use x="152.539062" xlink:href="#DejaVuSans-6c"/>
      <use x="180.322266" xlink:href="#DejaVuSans-79"/>
      <use x="237.751953" xlink:href="#DejaVuSans-2d"/>
      <use x="273.835938" xlink:href="#DejaVuSans-63"/>
      <use x="328.816406" xlink:href="#DejaVuSans-6c"/>
      <use x="356.599609" xlink:href="#DejaVuSans-6f"/>
      <use x="417.78125" xlink:href="#DejaVuSans-73"/>
      <use x="469.880859" xlink:href="#DejaVuSans-65"/>
      <use x="531.404297" xlink:href="#DejaVuSans-2d"/>
      <use x="567.488281" xlink:href="#DejaVuSans-72"/>
      <use x="606.351562" xlink:href="#DejaVuSans-65"/>
      <use x="667.875" xlink:href="#DejaVuSans-62"/>
      <use x="731.351562" xlink:href="#DejaVuSans-61"/>
      <use x="792.630859" xlink:href="#DejaVuSans-6c"/>
     </g>
    </g>
    <g id="line2d_27">
     <path d="M 66.6 247.222187 
L 86.6 247.222187 
" style="fill:none;stroke:#00ff00;stroke-linecap:square;stroke-opacity:0.9;stroke-width:2;"/>
    </g>
    <g id="line2d_28"/>
    <g id="text_19">
     <!-- trader-baseline -->
     <g transform="translate(94.6 250.722187)scale(0.1 -0.1)">
      <use xlink:href="#DejaVuSans-74"/>
      <use x="39.208984" xlink:href="#DejaVuSans-72"/>
      <use x="80.322266" xlink:href="#DejaVuSans-61"/>
      <use x="141.601562" xlink:href="#DejaVuSans-64"/>
      <use x="205.078125" xlink:href="#DejaVuSans-65"/>
      <use x="266.601562" xlink:href="#DejaVuSans-72"/>
      <use x="301.339844" xlink:href="#DejaVuSans-2d"/>
      <use x="337.423828" xlink:href="#DejaVuSans-62"/>
      <use x="400.900391" xlink:href="#DejaVuSans-61"/>
      <use x="462.179688" xlink:href="#DejaVuSans-73"/>
      <use x="514.279297" xlink:href="#DejaVuSans-65"/>
      <use x="575.802734" xlink:href="#DejaVuSans-6c"/>
      <use x="603.585938" xlink:href="#DejaVuSans-69"/>
      <use x="631.369141" xlink:href="#DejaVuSans-6e"/>
      <use x="694.748047" xlink:href="#DejaVuSans-65"/>
     </g>
    </g>
    <g id="line2d_29">
     <path d="M 66.6 261.900312 
L 86.6 261.900312 
" style="fill:none;stroke:#a5b9cf;stroke-linecap:square;stroke-width:2;"/>
    </g>
    <g id="line2d_30"/>
    <g id="text_20">
     <!-- default-cfg -->
     <g transform="translate(94.6 265.400312)scale(0.1 -0.1)">
      <defs>
       <path d="M 2375 4863 
L 2375 4384 
L 1825 4384 
Q 1516 4384 1395 4259 
Q 1275 4134 1275 3809 
L 1275 3500 
L 2222 3500 
L 2222 3053 
L 1275 3053 
L 1275 0 
L 697 0 
L 697 3053 
L 147 3053 
L 147 3500 
L 697 3500 
L 697 3744 
Q 697 4328 969 4595 
Q 1241 4863 1831 4863 
L 2375 4863 
z
" id="DejaVuSans-66" transform="scale(0.015625)"/>
       <path d="M 544 1381 
L 544 3500 
L 1119 3500 
L 1119 1403 
Q 1119 906 1312 657 
Q 1506 409 1894 409 
Q 2359 409 2629 706 
Q 2900 1003 2900 1516 
L 2900 3500 
L 3475 3500 
L 3475 0 
L 2900 0 
L 2900 538 
Q 2691 219 2414 64 
Q 2138 -91 1772 -91 
Q 1169 -91 856 284 
Q 544 659 544 1381 
z
M 1991 3584 
L 1991 3584 
z
" id="DejaVuSans-75" transform="scale(0.015625)"/>
       <path d="M 2906 1791 
Q 2906 2416 2648 2759 
Q 2391 3103 1925 3103 
Q 1463 3103 1205 2759 
Q 947 2416 947 1791 
Q 947 1169 1205 825 
Q 1463 481 1925 481 
Q 2391 481 2648 825 
Q 2906 1169 2906 1791 
z
M 3481 434 
Q 3481 -459 3084 -895 
Q 2688 -1331 1869 -1331 
Q 1566 -1331 1297 -1286 
Q 1028 -1241 775 -1147 
L 775 -588 
Q 1028 -725 1275 -790 
Q 1522 -856 1778 -856 
Q 2344 -856 2625 -561 
Q 2906 -266 2906 331 
L 2906 616 
Q 2728 306 2450 153 
Q 2172 0 1784 0 
Q 1141 0 747 490 
Q 353 981 353 1791 
Q 353 2603 747 3093 
Q 1141 3584 1784 3584 
Q 2172 3584 2450 3431 
Q 2728 3278 2906 2969 
L 2906 3500 
L 3481 3500 
L 3481 434 
z
" id="DejaVuSans-67" transform="scale(0.015625)"/>
      </defs>
      <use xlink:href="#DejaVuSans-64"/>
      <use x="63.476562" xlink:href="#DejaVuSans-65"/>
      <use x="125" xlink:href="#DejaVuSans-66"/>
      <use x="160.205078" xlink:href="#DejaVuSans-61"/>
      <use x="221.484375" xlink:href="#DejaVuSans-75"/>
      <use x="284.863281" xlink:href="#DejaVuSans-6c"/>
      <use x="312.646484" xlink:href="#DejaVuSans-74"/>
      <use x="351.855469" xlink:href="#DejaVuSans-2d"/>
      <use x="387.939453" xlink:href="#DejaVuSans-63"/>
      <use x="442.919922" xlink:href="#DejaVuSans-66"/>
      <use x="478.125" xlink:href="#DejaVuSans-67"/>
     </g>
    </g>
   </g>
  </g>
 </g>
 <defs>
  <clipPath id="p754735379f">
   <rect height="235.008" width="357.12" x="57.6" y="41.472"/>
  </clipPath>
 </defs>
</svg>
