<?xml version="1.0" encoding="utf-8" standalone="no"?>
<!DOCTYPE svg PUBLIC "-//W3C//DTD SVG 1.1//EN"
  "http://www.w3.org/Graphics/SVG/1.1/DTD/svg11.dtd">
<svg height="345.6pt" version="1.1" viewBox="0 0 460.8 345.6" width="460.8pt" xmlns="http://www.w3.org/2000/svg" xmlns:xlink="http://www.w3.org/1999/xlink">
 <metadata>
  <rdf:RDF xmlns:cc="http://creativecommons.org/ns#" xmlns:dc="http://purl.org/dc/elements/1.1/" xmlns:rdf="http://www.w3.org/1999/02/22-rdf-syntax-ns#">
   <cc:Work>
    <dc:type rdf:resource="http://purl.org/dc/dcmitype/StillImage"/>
    <dc:date>2022-02-04T01:01:45.854706</dc:date>
    <dc:format>image/svg+xml</dc:format>
    <dc:creator>
     <cc:Agent>
      <dc:title>Matplotlib v3.4.3, https://matplotlib.org/</dc:title>
     </cc:Agent>
    </dc:creator>
   </cc:Work>
  </rdf:RDF>
 </metadata>
 <defs>
  <style type="text/css">*{stroke-linecap:butt;stroke-linejoin:round;}</style>
 </defs>
 <g id="figure_1">
  <g id="patch_1">
   <path d="M 0 345.6 
L 460.8 345.6 
L 460.8 0 
L 0 0 
z
" style="fill:#ffffff;"/>
  </g>
  <g id="axes_1">
   <g id="patch_2">
    <path d="M 57.6 276.48 
L 414.72 276.48 
L 414.72 41.472 
L 57.6 41.472 
z
" style="fill:#ffffff;"/>
   </g>
   <g id="matplotlib.axis_1">
    <g id="xtick_1">
     <g id="line2d_1">
      <defs>
       <path d="M 0 0 
L 0 3.5 
" id="m684ac5dc00" style="stroke:#000000;stroke-width:0.8;"/>
      </defs>
      <g>
       <use style="stroke:#000000;stroke-width:0.8;" x="91.649135" xlink:href="#m684ac5dc00" y="276.48"/>
      </g>
     </g>
     <g id="text_1">
      <!-- 2021-09 -->
      <g transform="translate(54.424314 310.951846)rotate(-30)scale(0.1 -0.1)">
       <defs>
        <path d="M 1228 531 
L 3431 531 
L 3431 0 
L 469 0 
L 469 531 
Q 828 903 1448 1529 
Q 2069 2156 2228 2338 
Q 2531 2678 2651 2914 
Q 2772 3150 2772 3378 
Q 2772 3750 2511 3984 
Q 2250 4219 1831 4219 
Q 1534 4219 1204 4116 
Q 875 4013 500 3803 
L 500 4441 
Q 881 4594 1212 4672 
Q 1544 4750 1819 4750 
Q 2544 4750 2975 4387 
Q 3406 4025 3406 3419 
Q 3406 3131 3298 2873 
Q 3191 2616 2906 2266 
Q 2828 2175 2409 1742 
Q 1991 1309 1228 531 
z
" id="DejaVuSans-32" transform="scale(0.015625)"/>
        <path d="M 2034 4250 
Q 1547 4250 1301 3770 
Q 1056 3291 1056 2328 
Q 1056 1369 1301 889 
Q 1547 409 2034 409 
Q 2525 409 2770 889 
Q 3016 1369 3016 2328 
Q 3016 3291 2770 3770 
Q 2525 4250 2034 4250 
z
M 2034 4750 
Q 2819 4750 3233 4129 
Q 3647 3509 3647 2328 
Q 3647 1150 3233 529 
Q 2819 -91 2034 -91 
Q 1250 -91 836 529 
Q 422 1150 422 2328 
Q 422 3509 836 4129 
Q 1250 4750 2034 4750 
z
" id="DejaVuSans-30" transform="scale(0.015625)"/>
        <path d="M 794 531 
L 1825 531 
L 1825 4091 
L 703 3866 
L 703 4441 
L 1819 4666 
L 2450 4666 
L 2450 531 
L 3481 531 
L 3481 0 
L 794 0 
L 794 531 
z
" id="DejaVuSans-31" transform="scale(0.015625)"/>
        <path d="M 313 2009 
L 1997 2009 
L 1997 1497 
L 313 1497 
L 313 2009 
z
" id="DejaVuSans-2d" transform="scale(0.015625)"/>
        <path d="M 703 97 
L 703 672 
Q 941 559 1184 500 
Q 1428 441 1663 441 
Q 2288 441 2617 861 
Q 2947 1281 2994 2138 
Q 2813 1869 2534 1725 
Q 2256 1581 1919 1581 
Q 1219 1581 811 2004 
Q 403 2428 403 3163 
Q 403 3881 828 4315 
Q 1253 4750 1959 4750 
Q 2769 4750 3195 4129 
Q 3622 3509 3622 2328 
Q 3622 1225 3098 567 
Q 2575 -91 1691 -91 
Q 1453 -91 1209 -44 
Q 966 3 703 97 
z
M 1959 2075 
Q 2384 2075 2632 2365 
Q 2881 2656 2881 3163 
Q 2881 3666 2632 3958 
Q 2384 4250 1959 4250 
Q 1534 4250 1286 3958 
Q 1038 3666 1038 3163 
Q 1038 2656 1286 2365 
Q 1534 2075 1959 2075 
z
" id="DejaVuSans-39" transform="scale(0.015625)"/>
       </defs>
       <use xlink:href="#DejaVuSans-32"/>
       <use x="63.623047" xlink:href="#DejaVuSans-30"/>
       <use x="127.246094" xlink:href="#DejaVuSans-32"/>
       <use x="190.869141" xlink:href="#DejaVuSans-31"/>
       <use x="254.492188" xlink:href="#DejaVuSans-2d"/>
       <use x="290.576172" xlink:href="#DejaVuSans-30"/>
       <use x="354.199219" xlink:href="#DejaVuSans-39"/>
      </g>
     </g>
    </g>
    <g id="xtick_2">
     <g id="line2d_2">
      <g>
       <use style="stroke:#000000;stroke-width:0.8;" x="151.037162" xlink:href="#m684ac5dc00" y="276.48"/>
      </g>
     </g>
     <g id="text_2">
      <!-- 2021-10 -->
      <g transform="translate(113.812341 310.951846)rotate(-30)scale(0.1 -0.1)">
       <use xlink:href="#DejaVuSans-32"/>
       <use x="63.623047" xlink:href="#DejaVuSans-30"/>
       <use x="127.246094" xlink:href="#DejaVuSans-32"/>
       <use x="190.869141" xlink:href="#DejaVuSans-31"/>
       <use x="254.492188" xlink:href="#DejaVuSans-2d"/>
       <use x="290.576172" xlink:href="#DejaVuSans-31"/>
       <use x="354.199219" xlink:href="#DejaVuSans-30"/>
      </g>
     </g>
    </g>
    <g id="xtick_3">
     <g id="line2d_3">
      <g>
       <use style="stroke:#000000;stroke-width:0.8;" x="212.404789" xlink:href="#m684ac5dc00" y="276.48"/>
      </g>
     </g>
     <g id="text_3">
      <!-- 2021-11 -->
      <g transform="translate(175.179969 310.951846)rotate(-30)scale(0.1 -0.1)">
       <use xlink:href="#DejaVuSans-32"/>
       <use x="63.623047" xlink:href="#DejaVuSans-30"/>
       <use x="127.246094" xlink:href="#DejaVuSans-32"/>
       <use x="190.869141" xlink:href="#DejaVuSans-31"/>
       <use x="254.492188" xlink:href="#DejaVuSans-2d"/>
       <use x="290.576172" xlink:href="#DejaVuSans-31"/>
       <use x="354.199219" xlink:href="#DejaVuSans-31"/>
      </g>
     </g>
    </g>
    <g id="xtick_4">
     <g id="line2d_4">
      <g>
       <use style="stroke:#000000;stroke-width:0.8;" x="271.792816" xlink:href="#m684ac5dc00" y="276.48"/>
      </g>
     </g>
     <g id="text_4">
      <!-- 2021-12 -->
      <g transform="translate(234.567995 310.951846)rotate(-30)scale(0.1 -0.1)">
       <use xlink:href="#DejaVuSans-32"/>
       <use x="63.623047" xlink:href="#DejaVuSans-30"/>
       <use x="127.246094" xlink:href="#DejaVuSans-32"/>
       <use x="190.869141" xlink:href="#DejaVuSans-31"/>
       <use x="254.492188" xlink:href="#DejaVuSans-2d"/>
       <use x="290.576172" xlink:href="#DejaVuSans-31"/>
       <use x="354.199219" xlink:href="#DejaVuSans-32"/>
      </g>
     </g>
    </g>
    <g id="xtick_5">
     <g id="line2d_5">
      <g>
       <use style="stroke:#000000;stroke-width:0.8;" x="333.160443" xlink:href="#m684ac5dc00" y="276.48"/>
      </g>
     </g>
     <g id="text_5">
      <!-- 2022-01 -->
      <g transform="translate(295.935623 310.951846)rotate(-30)scale(0.1 -0.1)">
       <use xlink:href="#DejaVuSans-32"/>
       <use x="63.623047" xlink:href="#DejaVuSans-30"/>
       <use x="127.246094" xlink:href="#DejaVuSans-32"/>
       <use x="190.869141" xlink:href="#DejaVuSans-32"/>
       <use x="254.492188" xlink:href="#DejaVuSans-2d"/>
       <use x="290.576172" xlink:href="#DejaVuSans-30"/>
       <use x="354.199219" xlink:href="#DejaVuSans-31"/>
      </g>
     </g>
    </g>
    <g id="xtick_6">
     <g id="line2d_6">
      <g>
       <use style="stroke:#000000;stroke-width:0.8;" x="394.528071" xlink:href="#m684ac5dc00" y="276.48"/>
      </g>
     </g>
     <g id="text_6">
      <!-- 2022-02 -->
      <g transform="translate(357.30325 310.951846)rotate(-30)scale(0.1 -0.1)">
       <use xlink:href="#DejaVuSans-32"/>
       <use x="63.623047" xlink:href="#DejaVuSans-30"/>
       <use x="127.246094" xlink:href="#DejaVuSans-32"/>
       <use x="190.869141" xlink:href="#DejaVuSans-32"/>
       <use x="254.492188" xlink:href="#DejaVuSans-2d"/>
       <use x="290.576172" xlink:href="#DejaVuSans-30"/>
       <use x="354.199219" xlink:href="#DejaVuSans-32"/>
      </g>
     </g>
    </g>
    <g id="text_7">
     <!-- date -->
     <g transform="translate(224.885 324.351346)scale(0.1 -0.1)">
      <defs>
       <path d="M 2906 2969 
L 2906 4863 
L 3481 4863 
L 3481 0 
L 2906 0 
L 2906 525 
Q 2725 213 2448 61 
Q 2172 -91 1784 -91 
Q 1150 -91 751 415 
Q 353 922 353 1747 
Q 353 2572 751 3078 
Q 1150 3584 1784 3584 
Q 2172 3584 2448 3432 
Q 2725 3281 2906 2969 
z
M 947 1747 
Q 947 1113 1208 752 
Q 1469 391 1925 391 
Q 2381 391 2643 752 
Q 2906 1113 2906 1747 
Q 2906 2381 2643 2742 
Q 2381 3103 1925 3103 
Q 1469 3103 1208 2742 
Q 947 2381 947 1747 
z
" id="DejaVuSans-64" transform="scale(0.015625)"/>
       <path d="M 2194 1759 
Q 1497 1759 1228 1600 
Q 959 1441 959 1056 
Q 959 750 1161 570 
Q 1363 391 1709 391 
Q 2188 391 2477 730 
Q 2766 1069 2766 1631 
L 2766 1759 
L 2194 1759 
z
M 3341 1997 
L 3341 0 
L 2766 0 
L 2766 531 
Q 2569 213 2275 61 
Q 1981 -91 1556 -91 
Q 1019 -91 701 211 
Q 384 513 384 1019 
Q 384 1609 779 1909 
Q 1175 2209 1959 2209 
L 2766 2209 
L 2766 2266 
Q 2766 2663 2505 2880 
Q 2244 3097 1772 3097 
Q 1472 3097 1187 3025 
Q 903 2953 641 2809 
L 641 3341 
Q 956 3463 1253 3523 
Q 1550 3584 1831 3584 
Q 2591 3584 2966 3190 
Q 3341 2797 3341 1997 
z
" id="DejaVuSans-61" transform="scale(0.015625)"/>
       <path d="M 1172 4494 
L 1172 3500 
L 2356 3500 
L 2356 3053 
L 1172 3053 
L 1172 1153 
Q 1172 725 1289 603 
Q 1406 481 1766 481 
L 2356 481 
L 2356 0 
L 1766 0 
Q 1100 0 847 248 
Q 594 497 594 1153 
L 594 3053 
L 172 3053 
L 172 3500 
L 594 3500 
L 594 4494 
L 1172 4494 
z
" id="DejaVuSans-74" transform="scale(0.015625)"/>
       <path d="M 3597 1894 
L 3597 1613 
L 953 1613 
Q 991 1019 1311 708 
Q 1631 397 2203 397 
Q 2534 397 2845 478 
Q 3156 559 3463 722 
L 3463 178 
Q 3153 47 2828 -22 
Q 2503 -91 2169 -91 
Q 1331 -91 842 396 
Q 353 884 353 1716 
Q 353 2575 817 3079 
Q 1281 3584 2069 3584 
Q 2775 3584 3186 3129 
Q 3597 2675 3597 1894 
z
M 3022 2063 
Q 3016 2534 2758 2815 
Q 2500 3097 2075 3097 
Q 1594 3097 1305 2825 
Q 1016 2553 972 2059 
L 3022 2063 
z
" id="DejaVuSans-65" transform="scale(0.015625)"/>
      </defs>
      <use xlink:href="#DejaVuSans-64"/>
      <use x="63.476562" xlink:href="#DejaVuSans-61"/>
      <use x="124.755859" xlink:href="#DejaVuSans-74"/>
      <use x="163.964844" xlink:href="#DejaVuSans-65"/>
     </g>
    </g>
   </g>
   <g id="matplotlib.axis_2">
    <g id="ytick_1">
     <g id="line2d_7">
      <defs>
       <path d="M 0 0 
L -3.5 0 
" id="mc5a9adf171" style="stroke:#000000;stroke-width:0.8;"/>
      </defs>
      <g>
       <use style="stroke:#000000;stroke-width:0.8;" x="57.6" xlink:href="#mc5a9adf171" y="236.76688"/>
      </g>
     </g>
     <g id="text_8">
      <!-- 95000 -->
      <g transform="translate(18.7875 240.566099)scale(0.1 -0.1)">
       <defs>
        <path d="M 691 4666 
L 3169 4666 
L 3169 4134 
L 1269 4134 
L 1269 2991 
Q 1406 3038 1543 3061 
Q 1681 3084 1819 3084 
Q 2600 3084 3056 2656 
Q 3513 2228 3513 1497 
Q 3513 744 3044 326 
Q 2575 -91 1722 -91 
Q 1428 -91 1123 -41 
Q 819 9 494 109 
L 494 744 
Q 775 591 1075 516 
Q 1375 441 1709 441 
Q 2250 441 2565 725 
Q 2881 1009 2881 1497 
Q 2881 1984 2565 2268 
Q 2250 2553 1709 2553 
Q 1456 2553 1204 2497 
Q 953 2441 691 2322 
L 691 4666 
z
" id="DejaVuSans-35" transform="scale(0.015625)"/>
       </defs>
       <use xlink:href="#DejaVuSans-39"/>
       <use x="63.623047" xlink:href="#DejaVuSans-35"/>
       <use x="127.246094" xlink:href="#DejaVuSans-30"/>
       <use x="190.869141" xlink:href="#DejaVuSans-30"/>
       <use x="254.492188" xlink:href="#DejaVuSans-30"/>
      </g>
     </g>
    </g>
    <g id="ytick_2">
     <g id="line2d_8">
      <g>
       <use style="stroke:#000000;stroke-width:0.8;" x="57.6" xlink:href="#mc5a9adf171" y="196.439352"/>
      </g>
     </g>
     <g id="text_9">
      <!-- 100000 -->
      <g transform="translate(12.425 200.238571)scale(0.1 -0.1)">
       <use xlink:href="#DejaVuSans-31"/>
       <use x="63.623047" xlink:href="#DejaVuSans-30"/>
       <use x="127.246094" xlink:href="#DejaVuSans-30"/>
       <use x="190.869141" xlink:href="#DejaVuSans-30"/>
       <use x="254.492188" xlink:href="#DejaVuSans-30"/>
       <use x="318.115234" xlink:href="#DejaVuSans-30"/>
      </g>
     </g>
    </g>
    <g id="ytick_3">
     <g id="line2d_9">
      <g>
       <use style="stroke:#000000;stroke-width:0.8;" x="57.6" xlink:href="#mc5a9adf171" y="156.111823"/>
      </g>
     </g>
     <g id="text_10">
      <!-- 105000 -->
      <g transform="translate(12.425 159.911042)scale(0.1 -0.1)">
       <use xlink:href="#DejaVuSans-31"/>
       <use x="63.623047" xlink:href="#DejaVuSans-30"/>
       <use x="127.246094" xlink:href="#DejaVuSans-35"/>
       <use x="190.869141" xlink:href="#DejaVuSans-30"/>
       <use x="254.492188" xlink:href="#DejaVuSans-30"/>
       <use x="318.115234" xlink:href="#DejaVuSans-30"/>
      </g>
     </g>
    </g>
    <g id="ytick_4">
     <g id="line2d_10">
      <g>
       <use style="stroke:#000000;stroke-width:0.8;" x="57.6" xlink:href="#mc5a9adf171" y="115.784295"/>
      </g>
     </g>
     <g id="text_11">
      <!-- 110000 -->
      <g transform="translate(12.425 119.583513)scale(0.1 -0.1)">
       <use xlink:href="#DejaVuSans-31"/>
       <use x="63.623047" xlink:href="#DejaVuSans-31"/>
       <use x="127.246094" xlink:href="#DejaVuSans-30"/>
       <use x="190.869141" xlink:href="#DejaVuSans-30"/>
       <use x="254.492188" xlink:href="#DejaVuSans-30"/>
       <use x="318.115234" xlink:href="#DejaVuSans-30"/>
      </g>
     </g>
    </g>
    <g id="ytick_5">
     <g id="line2d_11">
      <g>
       <use style="stroke:#000000;stroke-width:0.8;" x="57.6" xlink:href="#mc5a9adf171" y="75.456766"/>
      </g>
     </g>
     <g id="text_12">
      <!-- 115000 -->
      <g transform="translate(12.425 79.255985)scale(0.1 -0.1)">
       <use xlink:href="#DejaVuSans-31"/>
       <use x="63.623047" xlink:href="#DejaVuSans-31"/>
       <use x="127.246094" xlink:href="#DejaVuSans-35"/>
       <use x="190.869141" xlink:href="#DejaVuSans-30"/>
       <use x="254.492188" xlink:href="#DejaVuSans-30"/>
       <use x="318.115234" xlink:href="#DejaVuSans-30"/>
      </g>
     </g>
    </g>
   </g>
   <g id="line2d_12">
    <path clip-path="url(#p36e3788ec5)" d="M 73.832727 196.439352 
L 75.812328 196.400776 
L 77.791929 193.575373 
L 79.77153 197.582939 
L 81.751131 190.593487 
L 87.689933 184.90502 
L 89.669534 184.037923 
L 91.649135 186.239953 
L 93.628736 185.094703 
L 95.608337 184.917685 
L 103.526741 185.155865 
L 105.506341 188.232515 
L 107.485942 190.905391 
L 109.465543 197.740627 
L 115.404346 191.378604 
L 117.383947 202.378057 
L 119.363548 197.686779 
L 121.343149 199.079998 
L 123.322749 207.792665 
L 129.261552 221.780168 
L 131.241153 223.717501 
L 133.220754 217.548693 
L 135.200355 204.907277 
L 137.179956 198.264504 
L 143.118758 192.13872 
L 145.098359 209.169385 
L 147.07796 206.150584 
L 149.057561 212.610474 
L 151.037162 200.742046 
L 156.975965 215.713078 
L 158.955565 203.669099 
L 160.935166 200.806665 
L 162.914767 200.005011 
L 164.894368 198.853743 
L 170.833171 198.387017 
L 172.812772 197.191344 
L 174.792373 208.041212 
L 176.771973 192.058224 
L 178.751574 190.684241 
L 184.690377 183.813845 
L 186.669978 175.869093 
L 188.649579 172.951324 
L 190.62918 187.03796 
L 192.60878 197.464338 
L 198.547583 196.203931 
L 200.527184 203.532776 
L 202.506785 205.468389 
L 204.486386 195.554163 
L 206.465987 206.062632 
L 212.404789 189.141684 
L 214.38439 189.588 
L 216.363991 181.525106 
L 218.343592 191.661264 
L 220.323193 186.239625 
L 226.261996 185.173813 
L 228.241596 195.545196 
L 230.221197 195.549597 
L 232.200798 202.152315 
L 234.180399 195.429942 
L 240.119202 192.95008 
L 242.098803 193.134928 
L 244.078404 197.193121 
L 246.058004 199.492715 
L 248.037605 199.652706 
L 253.976408 194.977037 
L 255.956009 188.582659 
L 257.93561 188.889542 
L 261.894812 188.976296 
L 267.833614 196.510544 
L 269.813215 211.852176 
L 271.792816 222.343877 
L 273.772417 212.734451 
L 275.752018 217.554276 
L 281.69082 202.870467 
L 283.670421 188.625808 
L 285.650022 182.85506 
L 287.629623 182.335671 
L 289.609224 179.236489 
L 295.548027 187.296374 
L 297.527627 183.134091 
L 299.507228 178.819047 
L 301.486829 175.624812 
L 303.46643 185.261853 
L 309.405233 195.872888 
L 311.384834 176.986463 
L 313.364435 173.368132 
L 315.344035 165.852631 
L 323.262439 155.904316 
L 325.24204 155.811143 
L 327.221641 156.180318 
L 329.201242 156.900417 
L 331.180843 161.373118 
L 337.119645 148.426256 
L 339.099246 137.367892 
L 341.078847 159.783437 
L 343.058448 152.585825 
L 345.038049 149.436722 
L 350.976851 148.737385 
L 352.956452 141.366031 
L 354.936053 139.817154 
L 356.915654 150.16893 
L 358.895255 147.420489 
L 366.813659 166.21863 
L 368.793259 170.105461 
L 370.77286 180.04817 
L 372.752461 198.920367 
L 378.691264 197.367087 
L 380.670865 206.767792 
L 382.650466 207.490113 
L 384.630067 212.745297 
L 386.609667 191.64349 
L 392.54847 174.326569 
L 394.528071 166.595295 
L 396.507672 154.306807 
L 398.487273 200.351356 
" style="fill:none;stroke:#0000ff;stroke-linecap:square;stroke-opacity:0.9;stroke-width:2;"/>
   </g>
   <g id="line2d_13">
    <path clip-path="url(#p36e3788ec5)" d="M 73.832727 196.439352 
L 75.812328 191.961921 
L 77.791929 188.333166 
L 79.77153 193.396963 
L 81.751131 183.768234 
L 87.689933 181.147436 
L 89.669534 179.899201 
L 91.649135 179.569249 
L 93.628736 181.345154 
L 95.608337 180.434416 
L 103.526741 179.352062 
L 105.506341 182.178859 
L 107.485942 184.013857 
L 109.465543 193.15349 
L 115.404346 187.072937 
L 117.383947 194.758698 
L 119.363548 191.100512 
L 121.343149 193.08376 
L 123.322749 203.189258 
L 129.261552 216.865402 
L 131.241153 216.642468 
L 133.220754 211.876685 
L 135.200355 201.358998 
L 137.179956 195.387666 
L 143.118758 190.266691 
L 145.098359 206.649202 
L 147.07796 205.432904 
L 149.057561 213.090636 
L 151.037162 201.750065 
L 156.975965 210.27201 
L 158.955565 199.103326 
L 160.935166 196.848663 
L 162.914767 195.011212 
L 164.894368 191.204204 
L 170.833171 195.233415 
L 172.812772 202.181638 
L 174.792373 204.395502 
L 176.771973 184.343767 
L 178.751574 178.651208 
L 184.690377 176.638284 
L 186.669978 169.977116 
L 188.649579 165.726673 
L 190.62918 176.334286 
L 192.60878 180.249896 
L 198.547583 182.458776 
L 200.527184 187.14085 
L 202.506785 191.509864 
L 204.486386 180.259679 
L 206.465987 178.973249 
L 212.404789 178.47769 
L 214.38439 175.730455 
L 216.363991 169.386122 
L 218.343592 170.701871 
L 220.323193 170.625983 
L 226.261996 169.914172 
L 228.241596 175.854604 
L 230.221197 180.142838 
L 232.200798 180.476167 
L 234.180399 175.011671 
L 240.119202 172.957958 
L 242.098803 174.89875 
L 244.078404 175.559895 
L 246.058004 175.711082 
L 248.037605 178.356736 
L 253.976408 175.142202 
L 255.956009 166.526374 
L 257.93561 166.784832 
L 261.894812 187.488992 
L 267.833614 179.036101 
L 269.813215 196.619871 
L 271.792816 205.945211 
L 273.772417 194.293332 
L 275.752018 201.616298 
L 281.69082 189.244735 
L 283.670421 174.752998 
L 285.650022 170.318503 
L 287.629623 171.336951 
L 289.609224 165.336495 
L 295.548027 173.920131 
L 297.527627 173.902662 
L 299.507228 167.552213 
L 301.486829 167.090845 
L 303.46643 177.87258 
L 309.405233 187.501598 
L 311.384834 171.144693 
L 313.364435 167.057469 
L 315.344035 159.410109 
L 323.262439 148.607793 
L 325.24204 149.56783 
L 327.221641 148.715982 
L 329.201242 149.819386 
L 331.180843 153.171462 
L 337.119645 143.995526 
L 339.099246 135.712067 
L 341.078847 154.001218 
L 343.058448 151.041986 
L 345.038049 146.133023 
L 350.976851 147.296553 
L 352.956452 141.952912 
L 354.936053 142.357908 
L 356.915654 148.776466 
L 358.895255 148.997512 
L 366.813659 167.342955 
L 368.793259 175.682856 
L 370.77286 183.365322 
L 372.752461 200.563981 
L 378.691264 201.259472 
L 380.670865 199.369994 
L 382.650466 200.990811 
L 384.630067 208.23699 
L 386.609667 188.415547 
L 392.54847 176.241498 
L 394.528071 166.193606 
L 396.507672 153.14955 
L 398.487273 190.823078 
" style="fill:none;stroke:#ff0000;stroke-linecap:square;stroke-opacity:0.9;stroke-width:2;"/>
   </g>
   <g id="line2d_14">
    <path clip-path="url(#p36e3788ec5)" d="M 73.832727 196.439352 
L 75.812328 192.152447 
L 77.791929 189.182264 
L 79.77153 193.764705 
L 81.751131 185.549536 
L 87.689933 180.209877 
L 89.669534 179.164395 
L 91.649135 181.217854 
L 93.628736 179.613585 
L 95.608337 180.369032 
L 103.526741 180.527295 
L 105.506341 183.163244 
L 107.485942 185.733699 
L 109.465543 192.717393 
L 115.404346 185.939131 
L 117.383947 197.174813 
L 119.363548 192.602678 
L 121.343149 193.6709 
L 123.322749 202.139762 
L 129.261552 215.445896 
L 131.241153 217.735098 
L 133.220754 211.781131 
L 135.200355 199.170037 
L 137.179956 191.900133 
L 143.118758 184.987958 
L 145.098359 202.603023 
L 147.07796 199.33714 
L 149.057561 205.850174 
L 151.037162 192.928476 
L 156.975965 207.988196 
L 158.955565 196.230926 
L 160.935166 193.240419 
L 162.914767 191.002854 
L 164.894368 187.384769 
L 170.833171 191.914131 
L 172.812772 197.986802 
L 174.792373 200.11264 
L 176.771973 184.17461 
L 178.751574 183.142033 
L 184.690377 175.697493 
L 186.669978 167.409409 
L 188.649579 164.186324 
L 190.62918 177.405263 
L 192.60878 188.611917 
L 198.547583 187.591197 
L 200.527184 195.063988 
L 202.506785 196.93884 
L 204.486386 187.17193 
L 206.465987 185.407299 
L 212.404789 180.753938 
L 214.38439 179.620882 
L 216.363991 173.163382 
L 218.343592 172.309583 
L 220.323193 166.831664 
L 226.261996 165.721758 
L 228.241596 175.971482 
L 230.221197 182.951213 
L 232.200798 182.59994 
L 234.180399 176.73019 
L 240.119202 173.758197 
L 242.098803 177.488922 
L 244.078404 178.120295 
L 246.058004 180.273082 
L 248.037605 180.886138 
L 253.976408 175.444304 
L 255.956009 168.708644 
L 257.93561 169.139412 
L 261.894812 188.195363 
L 267.833614 177.241937 
L 269.813215 193.206739 
L 271.792816 204.287348 
L 273.772417 195.060414 
L 275.752018 200.370918 
L 281.69082 184.928869 
L 283.670421 170.731909 
L 285.650022 163.757208 
L 287.629623 163.2229 
L 289.609224 160.969105 
L 295.548027 168.140579 
L 297.527627 164.300646 
L 299.507228 160.009626 
L 301.486829 156.415708 
L 303.46643 166.987949 
L 309.405233 177.768153 
L 311.384834 158.840852 
L 313.364435 155.083156 
L 315.344035 146.504871 
L 323.262439 136.462383 
L 325.24204 136.647091 
L 327.221641 136.63535 
L 329.201242 138.014672 
L 331.180843 141.447876 
L 337.119645 128.508242 
L 339.099246 117.650255 
L 341.078847 140.335856 
L 343.058448 131.20368 
L 345.038049 128.357887 
L 350.976851 126.819521 
L 352.956452 118.263264 
L 354.936053 116.539396 
L 356.915654 127.677409 
L 358.895255 124.890964 
L 366.813659 143.741435 
L 368.793259 147.529263 
L 370.77286 157.775882 
L 372.752461 177.34871 
L 378.691264 175.843678 
L 380.670865 185.790975 
L 382.650466 185.265207 
L 384.630067 191.282484 
L 386.609667 170.286264 
L 392.54847 152.319626 
L 394.528071 143.957937 
L 396.507672 128.944714 
L 398.487273 187.476159 
" style="fill:none;stroke:#ff8040;stroke-linecap:square;stroke-opacity:0.9;stroke-width:2;"/>
   </g>
   <g id="line2d_15">
    <path clip-path="url(#p36e3788ec5)" d="M 73.832727 197.245902 
L 75.812328 194.780016 
L 77.791929 191.554004 
L 79.77153 198.85341 
L 81.751131 191.548134 
L 87.689933 190.5663 
L 89.669534 189.573602 
L 91.649135 189.651817 
L 93.628736 193.656803 
L 95.608337 193.396784 
L 103.526741 197.464024 
L 105.506341 200.775869 
L 107.485942 202.542435 
L 109.465543 209.082732 
L 115.404346 201.373579 
L 117.383947 209.374955 
L 119.363548 205.743911 
L 121.343149 208.989169 
L 123.322749 219.312795 
L 129.261552 232.049934 
L 131.241153 232.363256 
L 133.220754 230.39191 
L 135.200355 220.970625 
L 137.179956 215.169871 
L 143.118758 208.379615 
L 145.098359 226.156874 
L 147.07796 224.052705 
L 149.057561 233.647707 
L 151.037162 220.092842 
L 156.975965 234.07191 
L 158.955565 223.400205 
L 160.935166 222.900683 
L 162.914767 220.618567 
L 164.894368 217.830064 
L 170.833171 223.227029 
L 172.812772 229.680877 
L 174.792373 231.387385 
L 176.771973 212.871712 
L 178.751574 206.341703 
L 184.690377 206.940378 
L 186.669978 199.954872 
L 188.649579 198.935527 
L 190.62918 211.326208 
L 192.60878 213.54765 
L 198.547583 216.275781 
L 200.527184 221.514101 
L 202.506785 222.499426 
L 204.486386 213.207559 
L 206.465987 216.841831 
L 212.404789 211.277665 
L 214.38439 209.995856 
L 216.363991 201.949427 
L 218.343592 207.841451 
L 220.323193 209.277064 
L 226.261996 209.687334 
L 228.241596 215.308277 
L 230.221197 222.328686 
L 232.200798 221.786087 
L 234.180399 220.789841 
L 240.119202 218.613545 
L 242.098803 220.970067 
L 244.078404 223.074049 
L 246.058004 224.159038 
L 248.037605 226.513273 
L 253.976408 223.152128 
L 255.956009 215.678336 
L 257.93561 219.097809 
L 261.894812 239.90731 
L 267.833614 232.729779 
L 269.813215 247.936142 
L 271.792816 259.031331 
L 273.772417 246.483371 
L 275.752018 250.215119 
L 281.69082 235.511954 
L 283.670421 221.46648 
L 285.650022 216.074959 
L 287.629623 217.084981 
L 289.609224 212.892831 
L 295.548027 219.702071 
L 297.527627 219.26987 
L 299.507228 215.424498 
L 301.486829 210.963198 
L 303.46643 218.904673 
L 309.405233 227.742412 
L 311.384834 210.422355 
L 313.364435 203.021273 
L 315.344035 197.026967 
L 323.262439 186.344463 
L 325.24204 187.061926 
L 327.221641 187.274333 
L 329.201242 188.075007 
L 331.180843 194.50703 
L 337.119645 183.627024 
L 339.099246 178.338718 
L 341.078847 199.534808 
L 343.058448 196.540059 
L 345.038049 192.658035 
L 350.976851 193.115034 
L 352.956452 187.888772 
L 354.936053 188.184998 
L 356.915654 196.279059 
L 358.895255 194.47711 
L 366.813659 212.736195 
L 368.793259 226.067601 
L 370.77286 233.746546 
L 372.752461 249.546219 
L 378.691264 250.999553 
L 380.670865 249.096934 
L 382.650466 253.723087 
L 384.630067 259.400161 
L 386.609667 241.797273 
L 392.54847 231.355669 
L 394.528071 220.730599 
L 396.507672 215.582375 
L 398.487273 265.797818 
" style="fill:none;stroke:#0d0d0d;stroke-linecap:square;stroke-opacity:0.25;stroke-width:2;"/>
   </g>
   <g id="line2d_16">
    <path clip-path="url(#p36e3788ec5)" d="M 73.832727 195.632801 
L 75.812328 189.351913 
L 77.791929 182.294246 
L 79.77153 187.191684 
L 81.751131 177.182443 
L 87.689933 169.917265 
L 89.669534 166.857377 
L 91.649135 167.226607 
L 93.628736 167.169696 
L 95.608337 166.888245 
L 103.526741 164.838618 
L 105.506341 168.31128 
L 107.485942 169.325229 
L 109.465543 178.197535 
L 115.404346 171.138835 
L 117.383947 177.305573 
L 119.363548 172.778835 
L 121.343149 173.683643 
L 123.322749 181.326931 
L 129.261552 195.966291 
L 131.241153 196.988928 
L 133.220754 186.612507 
L 135.200355 174.512503 
L 137.179956 169.125896 
L 143.118758 166.82766 
L 145.098359 180.48269 
L 147.07796 179.443804 
L 149.057561 186.669839 
L 151.037162 174.294468 
L 156.975965 187.265595 
L 158.955565 174.468037 
L 160.935166 172.68855 
L 162.914767 169.394097 
L 164.894368 165.324487 
L 170.833171 168.492518 
L 172.812772 174.87891 
L 174.792373 177.332132 
L 176.771973 156.969039 
L 178.751574 150.169514 
L 184.690377 148.563094 
L 186.669978 139.888469 
L 188.649579 137.392426 
L 190.62918 140.478833 
L 192.60878 144.284975 
L 198.547583 145.567775 
L 200.527184 147.819677 
L 202.506785 145.32112 
L 204.486386 134.658288 
L 206.465987 130.379268 
L 212.404789 136.892082 
L 214.38439 135.143522 
L 216.363991 128.165794 
L 218.343592 130.418996 
L 220.323193 127.05373 
L 226.261996 126.099356 
L 228.241596 132.564905 
L 230.221197 137.405715 
L 232.200798 137.848418 
L 234.180399 135.210728 
L 240.119202 133.55734 
L 242.098803 132.701488 
L 244.078404 133.88583 
L 246.058004 130.794155 
L 248.037605 129.770863 
L 253.976408 124.949422 
L 255.956009 117.82637 
L 257.93561 118.131262 
L 261.894812 139.36856 
L 267.833614 129.790266 
L 269.813215 139.981098 
L 271.792816 145.500882 
L 273.772417 132.319726 
L 275.752018 137.255433 
L 281.69082 126.287661 
L 283.670421 108.14993 
L 285.650022 103.098104 
L 287.629623 102.797521 
L 289.609224 95.778107 
L 295.548027 101.488415 
L 297.527627 99.795802 
L 299.507228 95.873661 
L 301.486829 95.200098 
L 303.46643 106.641431 
L 309.405233 114.815244 
L 311.384834 94.238181 
L 313.364435 86.872237 
L 315.344035 78.233345 
L 323.262439 65.068486 
L 325.24204 64.824735 
L 327.221641 63.468581 
L 329.201242 64.036472 
L 331.180843 65.68177 
L 337.119645 59.046 
L 339.099246 52.154182 
L 341.078847 77.960592 
L 343.058448 72.991978 
L 345.038049 68.483268 
L 350.976851 64.69229 
L 352.956452 57.434639 
L 354.936053 57.359741 
L 356.915654 65.251815 
L 358.895255 67.325508 
L 366.813659 84.933191 
L 368.793259 91.652886 
L 370.77286 99.816692 
L 372.752461 121.599783 
L 378.691264 123.183411 
L 380.670865 124.459836 
L 382.650466 124.788091 
L 384.630067 132.634193 
L 386.609667 106.091482 
L 392.54847 89.305653 
L 394.528071 80.158543 
L 396.507672 68.372 
L 398.487273 105.420367 
" style="fill:none;stroke:#0d0d0d;stroke-linecap:square;stroke-opacity:0.25;stroke-width:2;"/>
   </g>
   <g id="patch_3">
    <path d="M 57.6 276.48 
L 57.6 41.472 
" style="fill:none;stroke:#000000;stroke-linecap:square;stroke-linejoin:miter;stroke-width:0.8;"/>
   </g>
   <g id="patch_4">
    <path d="M 414.72 276.48 
L 414.72 41.472 
" style="fill:none;stroke:#000000;stroke-linecap:square;stroke-linejoin:miter;stroke-width:0.8;"/>
   </g>
   <g id="patch_5">
    <path d="M 57.6 276.48 
L 414.72 276.48 
" style="fill:none;stroke:#000000;stroke-linecap:square;stroke-linejoin:miter;stroke-width:0.8;"/>
   </g>
   <g id="patch_6">
    <path d="M 57.6 41.472 
L 414.72 41.472 
" style="fill:none;stroke:#000000;stroke-linecap:square;stroke-linejoin:miter;stroke-width:0.8;"/>
   </g>
   <g id="text_13">
    <!-- TESTFUNDS1550 -->
    <g transform="translate(185.200312 22.034625)scale(0.12 -0.12)">
     <defs>
      <path d="M -19 4666 
L 3928 4666 
L 3928 4134 
L 2272 4134 
L 2272 0 
L 1638 0 
L 1638 4134 
L -19 4134 
L -19 4666 
z
" id="DejaVuSans-54" transform="scale(0.015625)"/>
      <path d="M 628 4666 
L 3578 4666 
L 3578 4134 
L 1259 4134 
L 1259 2753 
L 3481 2753 
L 3481 2222 
L 1259 2222 
L 1259 531 
L 3634 531 
L 3634 0 
L 628 0 
L 628 4666 
z
" id="DejaVuSans-45" transform="scale(0.015625)"/>
      <path d="M 3425 4513 
L 3425 3897 
Q 3066 4069 2747 4153 
Q 2428 4238 2131 4238 
Q 1616 4238 1336 4038 
Q 1056 3838 1056 3469 
Q 1056 3159 1242 3001 
Q 1428 2844 1947 2747 
L 2328 2669 
Q 3034 2534 3370 2195 
Q 3706 1856 3706 1288 
Q 3706 609 3251 259 
Q 2797 -91 1919 -91 
Q 1588 -91 1214 -16 
Q 841 59 441 206 
L 441 856 
Q 825 641 1194 531 
Q 1563 422 1919 422 
Q 2459 422 2753 634 
Q 3047 847 3047 1241 
Q 3047 1584 2836 1778 
Q 2625 1972 2144 2069 
L 1759 2144 
Q 1053 2284 737 2584 
Q 422 2884 422 3419 
Q 422 4038 858 4394 
Q 1294 4750 2059 4750 
Q 2388 4750 2728 4690 
Q 3069 4631 3425 4513 
z
" id="DejaVuSans-53" transform="scale(0.015625)"/>
      <path d="M 628 4666 
L 3309 4666 
L 3309 4134 
L 1259 4134 
L 1259 2759 
L 3109 2759 
L 3109 2228 
L 1259 2228 
L 1259 0 
L 628 0 
L 628 4666 
z
" id="DejaVuSans-46" transform="scale(0.015625)"/>
      <path d="M 556 4666 
L 1191 4666 
L 1191 1831 
Q 1191 1081 1462 751 
Q 1734 422 2344 422 
Q 2950 422 3222 751 
Q 3494 1081 3494 1831 
L 3494 4666 
L 4128 4666 
L 4128 1753 
Q 4128 841 3676 375 
Q 3225 -91 2344 -91 
Q 1459 -91 1007 375 
Q 556 841 556 1753 
L 556 4666 
z
" id="DejaVuSans-55" transform="scale(0.015625)"/>
      <path d="M 628 4666 
L 1478 4666 
L 3547 763 
L 3547 4666 
L 4159 4666 
L 4159 0 
L 3309 0 
L 1241 3903 
L 1241 0 
L 628 0 
L 628 4666 
z
" id="DejaVuSans-4e" transform="scale(0.015625)"/>
      <path d="M 1259 4147 
L 1259 519 
L 2022 519 
Q 2988 519 3436 956 
Q 3884 1394 3884 2338 
Q 3884 3275 3436 3711 
Q 2988 4147 2022 4147 
L 1259 4147 
z
M 628 4666 
L 1925 4666 
Q 3281 4666 3915 4102 
Q 4550 3538 4550 2338 
Q 4550 1131 3912 565 
Q 3275 0 1925 0 
L 628 0 
L 628 4666 
z
" id="DejaVuSans-44" transform="scale(0.015625)"/>
     </defs>
     <use xlink:href="#DejaVuSans-54"/>
     <use x="61.083984" xlink:href="#DejaVuSans-45"/>
     <use x="124.267578" xlink:href="#DejaVuSans-53"/>
     <use x="187.744141" xlink:href="#DejaVuSans-54"/>
     <use x="248.828125" xlink:href="#DejaVuSans-46"/>
     <use x="306.347656" xlink:href="#DejaVuSans-55"/>
     <use x="379.541016" xlink:href="#DejaVuSans-4e"/>
     <use x="454.345703" xlink:href="#DejaVuSans-44"/>
     <use x="531.347656" xlink:href="#DejaVuSans-53"/>
     <use x="594.824219" xlink:href="#DejaVuSans-31"/>
     <use x="658.447266" xlink:href="#DejaVuSans-35"/>
     <use x="722.070312" xlink:href="#DejaVuSans-35"/>
     <use x="785.693359" xlink:href="#DejaVuSans-30"/>
    </g>
    <!-- daily_report -->
    <g transform="translate(200.466563 35.472)scale(0.12 -0.12)">
     <defs>
      <path d="M 603 3500 
L 1178 3500 
L 1178 0 
L 603 0 
L 603 3500 
z
M 603 4863 
L 1178 4863 
L 1178 4134 
L 603 4134 
L 603 4863 
z
" id="DejaVuSans-69" transform="scale(0.015625)"/>
      <path d="M 603 4863 
L 1178 4863 
L 1178 0 
L 603 0 
L 603 4863 
z
" id="DejaVuSans-6c" transform="scale(0.015625)"/>
      <path d="M 2059 -325 
Q 1816 -950 1584 -1140 
Q 1353 -1331 966 -1331 
L 506 -1331 
L 506 -850 
L 844 -850 
Q 1081 -850 1212 -737 
Q 1344 -625 1503 -206 
L 1606 56 
L 191 3500 
L 800 3500 
L 1894 763 
L 2988 3500 
L 3597 3500 
L 2059 -325 
z
" id="DejaVuSans-79" transform="scale(0.015625)"/>
      <path d="M 3263 -1063 
L 3263 -1509 
L -63 -1509 
L -63 -1063 
L 3263 -1063 
z
" id="DejaVuSans-5f" transform="scale(0.015625)"/>
      <path d="M 2631 2963 
Q 2534 3019 2420 3045 
Q 2306 3072 2169 3072 
Q 1681 3072 1420 2755 
Q 1159 2438 1159 1844 
L 1159 0 
L 581 0 
L 581 3500 
L 1159 3500 
L 1159 2956 
Q 1341 3275 1631 3429 
Q 1922 3584 2338 3584 
Q 2397 3584 2469 3576 
Q 2541 3569 2628 3553 
L 2631 2963 
z
" id="DejaVuSans-72" transform="scale(0.015625)"/>
      <path d="M 1159 525 
L 1159 -1331 
L 581 -1331 
L 581 3500 
L 1159 3500 
L 1159 2969 
Q 1341 3281 1617 3432 
Q 1894 3584 2278 3584 
Q 2916 3584 3314 3078 
Q 3713 2572 3713 1747 
Q 3713 922 3314 415 
Q 2916 -91 2278 -91 
Q 1894 -91 1617 61 
Q 1341 213 1159 525 
z
M 3116 1747 
Q 3116 2381 2855 2742 
Q 2594 3103 2138 3103 
Q 1681 3103 1420 2742 
Q 1159 2381 1159 1747 
Q 1159 1113 1420 752 
Q 1681 391 2138 391 
Q 2594 391 2855 752 
Q 3116 1113 3116 1747 
z
" id="DejaVuSans-70" transform="scale(0.015625)"/>
      <path d="M 1959 3097 
Q 1497 3097 1228 2736 
Q 959 2375 959 1747 
Q 959 1119 1226 758 
Q 1494 397 1959 397 
Q 2419 397 2687 759 
Q 2956 1122 2956 1747 
Q 2956 2369 2687 2733 
Q 2419 3097 1959 3097 
z
M 1959 3584 
Q 2709 3584 3137 3096 
Q 3566 2609 3566 1747 
Q 3566 888 3137 398 
Q 2709 -91 1959 -91 
Q 1206 -91 779 398 
Q 353 888 353 1747 
Q 353 2609 779 3096 
Q 1206 3584 1959 3584 
z
" id="DejaVuSans-6f" transform="scale(0.015625)"/>
     </defs>
     <use xlink:href="#DejaVuSans-64"/>
     <use x="63.476562" xlink:href="#DejaVuSans-61"/>
     <use x="124.755859" xlink:href="#DejaVuSans-69"/>
     <use x="152.539062" xlink:href="#DejaVuSans-6c"/>
     <use x="180.322266" xlink:href="#DejaVuSans-79"/>
     <use x="239.501953" xlink:href="#DejaVuSans-5f"/>
     <use x="289.501953" xlink:href="#DejaVuSans-72"/>
     <use x="328.365234" xlink:href="#DejaVuSans-65"/>
     <use x="389.888672" xlink:href="#DejaVuSans-70"/>
     <use x="453.365234" xlink:href="#DejaVuSans-6f"/>
     <use x="514.546875" xlink:href="#DejaVuSans-72"/>
     <use x="555.660156" xlink:href="#DejaVuSans-74"/>
    </g>
   </g>
   <g id="legend_1">
    <g id="patch_7">
     <path d="M 64.6 122.862625 
L 155.792188 122.862625 
Q 157.792188 122.862625 157.792188 120.862625 
L 157.792188 48.472 
Q 157.792188 46.472 155.792188 46.472 
L 64.6 46.472 
Q 62.6 46.472 62.6 48.472 
L 62.6 120.862625 
Q 62.6 122.862625 64.6 122.862625 
z
" style="fill:#ffffff;opacity:0.8;stroke:#cccccc;stroke-linejoin:miter;"/>
    </g>
    <g id="line2d_17">
     <path d="M 66.6 54.570437 
L 86.6 54.570437 
" style="fill:none;stroke:#0000ff;stroke-linecap:square;stroke-opacity:0.9;stroke-width:2;"/>
    </g>
    <g id="line2d_18"/>
    <g id="text_14">
     <!-- alpaca -->
     <g transform="translate(94.6 58.070437)scale(0.1 -0.1)">
      <defs>
       <path d="M 3122 3366 
L 3122 2828 
Q 2878 2963 2633 3030 
Q 2388 3097 2138 3097 
Q 1578 3097 1268 2742 
Q 959 2388 959 1747 
Q 959 1106 1268 751 
Q 1578 397 2138 397 
Q 2388 397 2633 464 
Q 2878 531 3122 666 
L 3122 134 
Q 2881 22 2623 -34 
Q 2366 -91 2075 -91 
Q 1284 -91 818 406 
Q 353 903 353 1747 
Q 353 2603 823 3093 
Q 1294 3584 2113 3584 
Q 2378 3584 2631 3529 
Q 2884 3475 3122 3366 
z
" id="DejaVuSans-63" transform="scale(0.015625)"/>
      </defs>
      <use xlink:href="#DejaVuSans-61"/>
      <use x="61.279297" xlink:href="#DejaVuSans-6c"/>
      <use x="89.0625" xlink:href="#DejaVuSans-70"/>
      <use x="152.539062" xlink:href="#DejaVuSans-61"/>
      <use x="213.818359" xlink:href="#DejaVuSans-63"/>
      <use x="268.798828" xlink:href="#DejaVuSans-61"/>
     </g>
    </g>
    <g id="line2d_19">
     <path d="M 66.6 69.248562 
L 86.6 69.248562 
" style="fill:none;stroke:#ff0000;stroke-linecap:square;stroke-opacity:0.9;stroke-width:2;"/>
    </g>
    <g id="line2d_20"/>
    <g id="text_15">
     <!-- mattress -->
     <g transform="translate(94.6 72.748562)scale(0.1 -0.1)">
      <defs>
       <path d="M 3328 2828 
Q 3544 3216 3844 3400 
Q 4144 3584 4550 3584 
Q 5097 3584 5394 3201 
Q 5691 2819 5691 2113 
L 5691 0 
L 5113 0 
L 5113 2094 
Q 5113 2597 4934 2840 
Q 4756 3084 4391 3084 
Q 3944 3084 3684 2787 
Q 3425 2491 3425 1978 
L 3425 0 
L 2847 0 
L 2847 2094 
Q 2847 2600 2669 2842 
Q 2491 3084 2119 3084 
Q 1678 3084 1418 2786 
Q 1159 2488 1159 1978 
L 1159 0 
L 581 0 
L 581 3500 
L 1159 3500 
L 1159 2956 
Q 1356 3278 1631 3431 
Q 1906 3584 2284 3584 
Q 2666 3584 2933 3390 
Q 3200 3197 3328 2828 
z
" id="DejaVuSans-6d" transform="scale(0.015625)"/>
       <path d="M 2834 3397 
L 2834 2853 
Q 2591 2978 2328 3040 
Q 2066 3103 1784 3103 
Q 1356 3103 1142 2972 
Q 928 2841 928 2578 
Q 928 2378 1081 2264 
Q 1234 2150 1697 2047 
L 1894 2003 
Q 2506 1872 2764 1633 
Q 3022 1394 3022 966 
Q 3022 478 2636 193 
Q 2250 -91 1575 -91 
Q 1294 -91 989 -36 
Q 684 19 347 128 
L 347 722 
Q 666 556 975 473 
Q 1284 391 1588 391 
Q 1994 391 2212 530 
Q 2431 669 2431 922 
Q 2431 1156 2273 1281 
Q 2116 1406 1581 1522 
L 1381 1569 
Q 847 1681 609 1914 
Q 372 2147 372 2553 
Q 372 3047 722 3315 
Q 1072 3584 1716 3584 
Q 2034 3584 2315 3537 
Q 2597 3491 2834 3397 
z
" id="DejaVuSans-73" transform="scale(0.015625)"/>
      </defs>
      <use xlink:href="#DejaVuSans-6d"/>
      <use x="97.412109" xlink:href="#DejaVuSans-61"/>
      <use x="158.691406" xlink:href="#DejaVuSans-74"/>
      <use x="197.900391" xlink:href="#DejaVuSans-74"/>
      <use x="237.109375" xlink:href="#DejaVuSans-72"/>
      <use x="275.972656" xlink:href="#DejaVuSans-65"/>
      <use x="337.496094" xlink:href="#DejaVuSans-73"/>
      <use x="389.595703" xlink:href="#DejaVuSans-73"/>
     </g>
    </g>
    <g id="line2d_21">
     <path d="M 66.6 83.926687 
L 86.6 83.926687 
" style="fill:none;stroke:#ff8040;stroke-linecap:square;stroke-opacity:0.9;stroke-width:2;"/>
    </g>
    <g id="line2d_22"/>
    <g id="text_16">
     <!-- trader-0850 -->
     <g transform="translate(94.6 87.426687)scale(0.1 -0.1)">
      <defs>
       <path d="M 2034 2216 
Q 1584 2216 1326 1975 
Q 1069 1734 1069 1313 
Q 1069 891 1326 650 
Q 1584 409 2034 409 
Q 2484 409 2743 651 
Q 3003 894 3003 1313 
Q 3003 1734 2745 1975 
Q 2488 2216 2034 2216 
z
M 1403 2484 
Q 997 2584 770 2862 
Q 544 3141 544 3541 
Q 544 4100 942 4425 
Q 1341 4750 2034 4750 
Q 2731 4750 3128 4425 
Q 3525 4100 3525 3541 
Q 3525 3141 3298 2862 
Q 3072 2584 2669 2484 
Q 3125 2378 3379 2068 
Q 3634 1759 3634 1313 
Q 3634 634 3220 271 
Q 2806 -91 2034 -91 
Q 1263 -91 848 271 
Q 434 634 434 1313 
Q 434 1759 690 2068 
Q 947 2378 1403 2484 
z
M 1172 3481 
Q 1172 3119 1398 2916 
Q 1625 2713 2034 2713 
Q 2441 2713 2670 2916 
Q 2900 3119 2900 3481 
Q 2900 3844 2670 4047 
Q 2441 4250 2034 4250 
Q 1625 4250 1398 4047 
Q 1172 3844 1172 3481 
z
" id="DejaVuSans-38" transform="scale(0.015625)"/>
      </defs>
      <use xlink:href="#DejaVuSans-74"/>
      <use x="39.208984" xlink:href="#DejaVuSans-72"/>
      <use x="80.322266" xlink:href="#DejaVuSans-61"/>
      <use x="141.601562" xlink:href="#DejaVuSans-64"/>
      <use x="205.078125" xlink:href="#DejaVuSans-65"/>
      <use x="266.601562" xlink:href="#DejaVuSans-72"/>
      <use x="301.339844" xlink:href="#DejaVuSans-2d"/>
      <use x="337.423828" xlink:href="#DejaVuSans-30"/>
      <use x="401.046875" xlink:href="#DejaVuSans-38"/>
      <use x="464.669922" xlink:href="#DejaVuSans-35"/>
      <use x="528.292969" xlink:href="#DejaVuSans-30"/>
     </g>
    </g>
    <g id="line2d_23">
     <path d="M 66.6 98.604812 
L 86.6 98.604812 
" style="fill:none;stroke:#0d0d0d;stroke-linecap:square;stroke-opacity:0.25;stroke-width:2;"/>
    </g>
    <g id="line2d_24"/>
    <g id="text_17">
     <!-- rando-min -->
     <g transform="translate(94.6 102.104812)scale(0.1 -0.1)">
      <defs>
       <path d="M 3513 2113 
L 3513 0 
L 2938 0 
L 2938 2094 
Q 2938 2591 2744 2837 
Q 2550 3084 2163 3084 
Q 1697 3084 1428 2787 
Q 1159 2491 1159 1978 
L 1159 0 
L 581 0 
L 581 3500 
L 1159 3500 
L 1159 2956 
Q 1366 3272 1645 3428 
Q 1925 3584 2291 3584 
Q 2894 3584 3203 3211 
Q 3513 2838 3513 2113 
z
" id="DejaVuSans-6e" transform="scale(0.015625)"/>
      </defs>
      <use xlink:href="#DejaVuSans-72"/>
      <use x="41.113281" xlink:href="#DejaVuSans-61"/>
      <use x="102.392578" xlink:href="#DejaVuSans-6e"/>
      <use x="165.771484" xlink:href="#DejaVuSans-64"/>
      <use x="229.248047" xlink:href="#DejaVuSans-6f"/>
      <use x="292.304688" xlink:href="#DejaVuSans-2d"/>
      <use x="328.388672" xlink:href="#DejaVuSans-6d"/>
      <use x="425.800781" xlink:href="#DejaVuSans-69"/>
      <use x="453.583984" xlink:href="#DejaVuSans-6e"/>
     </g>
    </g>
    <g id="line2d_25">
     <path d="M 66.6 113.282937 
L 86.6 113.282937 
" style="fill:none;stroke:#0d0d0d;stroke-linecap:square;stroke-opacity:0.25;stroke-width:2;"/>
    </g>
    <g id="line2d_26"/>
    <g id="text_18">
     <!-- rando-max -->
     <g transform="translate(94.6 116.782937)scale(0.1 -0.1)">
      <defs>
       <path d="M 3513 3500 
L 2247 1797 
L 3578 0 
L 2900 0 
L 1881 1375 
L 863 0 
L 184 0 
L 1544 1831 
L 300 3500 
L 978 3500 
L 1906 2253 
L 2834 3500 
L 3513 3500 
z
" id="DejaVuSans-78" transform="scale(0.015625)"/>
      </defs>
      <use xlink:href="#DejaVuSans-72"/>
      <use x="41.113281" xlink:href="#DejaVuSans-61"/>
      <use x="102.392578" xlink:href="#DejaVuSans-6e"/>
      <use x="165.771484" xlink:href="#DejaVuSans-64"/>
      <use x="229.248047" xlink:href="#DejaVuSans-6f"/>
      <use x="292.304688" xlink:href="#DejaVuSans-2d"/>
      <use x="328.388672" xlink:href="#DejaVuSans-6d"/>
      <use x="425.800781" xlink:href="#DejaVuSans-61"/>
      <use x="487.080078" xlink:href="#DejaVuSans-78"/>
     </g>
    </g>
   </g>
  </g>
 </g>
 <defs>
  <clipPath id="p36e3788ec5">
   <rect height="235.008" width="357.12" x="57.6" y="41.472"/>
  </clipPath>
 </defs>
</svg>
