<?xml version="1.0" encoding="utf-8" standalone="no"?>
<!DOCTYPE svg PUBLIC "-//W3C//DTD SVG 1.1//EN"
  "http://www.w3.org/Graphics/SVG/1.1/DTD/svg11.dtd">
<svg height="345.6pt" version="1.1" viewBox="0 0 460.8 345.6" width="460.8pt" xmlns="http://www.w3.org/2000/svg" xmlns:xlink="http://www.w3.org/1999/xlink">
 <metadata>
  <rdf:RDF xmlns:cc="http://creativecommons.org/ns#" xmlns:dc="http://purl.org/dc/elements/1.1/" xmlns:rdf="http://www.w3.org/1999/02/22-rdf-syntax-ns#">
   <cc:Work>
    <dc:type rdf:resource="http://purl.org/dc/dcmitype/StillImage"/>
    <dc:date>2022-03-06T01:02:31.830319</dc:date>
    <dc:format>image/svg+xml</dc:format>
    <dc:creator>
     <cc:Agent>
      <dc:title>Matplotlib v3.4.3, https://matplotlib.org/</dc:title>
     </cc:Agent>
    </dc:creator>
   </cc:Work>
  </rdf:RDF>
 </metadata>
 <defs>
  <style type="text/css">*{stroke-linecap:butt;stroke-linejoin:round;}</style>
 </defs>
 <g id="figure_1">
  <g id="patch_1">
   <path d="M 0 345.6 
L 460.8 345.6 
L 460.8 0 
L 0 0 
z
" style="fill:#ffffff;"/>
  </g>
  <g id="axes_1">
   <g id="patch_2">
    <path d="M 57.6 276.48 
L 414.72 276.48 
L 414.72 41.472 
L 57.6 41.472 
z
" style="fill:#ffffff;"/>
   </g>
   <g id="matplotlib.axis_1">
    <g id="xtick_1">
     <g id="line2d_1">
      <defs>
       <path d="M 0 0 
L 0 3.5 
" id="mf20d7d1747" style="stroke:#000000;stroke-width:0.8;"/>
      </defs>
      <g>
       <use style="stroke:#000000;stroke-width:0.8;" x="88.972058" xlink:href="#mf20d7d1747" y="276.48"/>
      </g>
     </g>
     <g id="text_1">
      <!-- 2021-09 -->
      <g transform="translate(51.747238 310.951846)rotate(-30)scale(0.1 -0.1)">
       <defs>
        <path d="M 1228 531 
L 3431 531 
L 3431 0 
L 469 0 
L 469 531 
Q 828 903 1448 1529 
Q 2069 2156 2228 2338 
Q 2531 2678 2651 2914 
Q 2772 3150 2772 3378 
Q 2772 3750 2511 3984 
Q 2250 4219 1831 4219 
Q 1534 4219 1204 4116 
Q 875 4013 500 3803 
L 500 4441 
Q 881 4594 1212 4672 
Q 1544 4750 1819 4750 
Q 2544 4750 2975 4387 
Q 3406 4025 3406 3419 
Q 3406 3131 3298 2873 
Q 3191 2616 2906 2266 
Q 2828 2175 2409 1742 
Q 1991 1309 1228 531 
z
" id="DejaVuSans-32" transform="scale(0.015625)"/>
        <path d="M 2034 4250 
Q 1547 4250 1301 3770 
Q 1056 3291 1056 2328 
Q 1056 1369 1301 889 
Q 1547 409 2034 409 
Q 2525 409 2770 889 
Q 3016 1369 3016 2328 
Q 3016 3291 2770 3770 
Q 2525 4250 2034 4250 
z
M 2034 4750 
Q 2819 4750 3233 4129 
Q 3647 3509 3647 2328 
Q 3647 1150 3233 529 
Q 2819 -91 2034 -91 
Q 1250 -91 836 529 
Q 422 1150 422 2328 
Q 422 3509 836 4129 
Q 1250 4750 2034 4750 
z
" id="DejaVuSans-30" transform="scale(0.015625)"/>
        <path d="M 794 531 
L 1825 531 
L 1825 4091 
L 703 3866 
L 703 4441 
L 1819 4666 
L 2450 4666 
L 2450 531 
L 3481 531 
L 3481 0 
L 794 0 
L 794 531 
z
" id="DejaVuSans-31" transform="scale(0.015625)"/>
        <path d="M 313 2009 
L 1997 2009 
L 1997 1497 
L 313 1497 
L 313 2009 
z
" id="DejaVuSans-2d" transform="scale(0.015625)"/>
        <path d="M 703 97 
L 703 672 
Q 941 559 1184 500 
Q 1428 441 1663 441 
Q 2288 441 2617 861 
Q 2947 1281 2994 2138 
Q 2813 1869 2534 1725 
Q 2256 1581 1919 1581 
Q 1219 1581 811 2004 
Q 403 2428 403 3163 
Q 403 3881 828 4315 
Q 1253 4750 1959 4750 
Q 2769 4750 3195 4129 
Q 3622 3509 3622 2328 
Q 3622 1225 3098 567 
Q 2575 -91 1691 -91 
Q 1453 -91 1209 -44 
Q 966 3 703 97 
z
M 1959 2075 
Q 2384 2075 2632 2365 
Q 2881 2656 2881 3163 
Q 2881 3666 2632 3958 
Q 2384 4250 1959 4250 
Q 1534 4250 1286 3958 
Q 1038 3666 1038 3163 
Q 1038 2656 1286 2365 
Q 1534 2075 1959 2075 
z
" id="DejaVuSans-39" transform="scale(0.015625)"/>
       </defs>
       <use xlink:href="#DejaVuSans-32"/>
       <use x="63.623047" xlink:href="#DejaVuSans-30"/>
       <use x="127.246094" xlink:href="#DejaVuSans-32"/>
       <use x="190.869141" xlink:href="#DejaVuSans-31"/>
       <use x="254.492188" xlink:href="#DejaVuSans-2d"/>
       <use x="290.576172" xlink:href="#DejaVuSans-30"/>
       <use x="354.199219" xlink:href="#DejaVuSans-39"/>
      </g>
     </g>
    </g>
    <g id="xtick_2">
     <g id="line2d_2">
      <g>
       <use style="stroke:#000000;stroke-width:0.8;" x="139.436496" xlink:href="#mf20d7d1747" y="276.48"/>
      </g>
     </g>
     <g id="text_2">
      <!-- 2021-10 -->
      <g transform="translate(102.211675 310.951846)rotate(-30)scale(0.1 -0.1)">
       <use xlink:href="#DejaVuSans-32"/>
       <use x="63.623047" xlink:href="#DejaVuSans-30"/>
       <use x="127.246094" xlink:href="#DejaVuSans-32"/>
       <use x="190.869141" xlink:href="#DejaVuSans-31"/>
       <use x="254.492188" xlink:href="#DejaVuSans-2d"/>
       <use x="290.576172" xlink:href="#DejaVuSans-31"/>
       <use x="354.199219" xlink:href="#DejaVuSans-30"/>
      </g>
     </g>
    </g>
    <g id="xtick_3">
     <g id="line2d_3">
      <g>
       <use style="stroke:#000000;stroke-width:0.8;" x="191.583081" xlink:href="#mf20d7d1747" y="276.48"/>
      </g>
     </g>
     <g id="text_3">
      <!-- 2021-11 -->
      <g transform="translate(154.35826 310.951846)rotate(-30)scale(0.1 -0.1)">
       <use xlink:href="#DejaVuSans-32"/>
       <use x="63.623047" xlink:href="#DejaVuSans-30"/>
       <use x="127.246094" xlink:href="#DejaVuSans-32"/>
       <use x="190.869141" xlink:href="#DejaVuSans-31"/>
       <use x="254.492188" xlink:href="#DejaVuSans-2d"/>
       <use x="290.576172" xlink:href="#DejaVuSans-31"/>
       <use x="354.199219" xlink:href="#DejaVuSans-31"/>
      </g>
     </g>
    </g>
    <g id="xtick_4">
     <g id="line2d_4">
      <g>
       <use style="stroke:#000000;stroke-width:0.8;" x="242.047518" xlink:href="#mf20d7d1747" y="276.48"/>
      </g>
     </g>
     <g id="text_4">
      <!-- 2021-12 -->
      <g transform="translate(204.822697 310.951846)rotate(-30)scale(0.1 -0.1)">
       <use xlink:href="#DejaVuSans-32"/>
       <use x="63.623047" xlink:href="#DejaVuSans-30"/>
       <use x="127.246094" xlink:href="#DejaVuSans-32"/>
       <use x="190.869141" xlink:href="#DejaVuSans-31"/>
       <use x="254.492188" xlink:href="#DejaVuSans-2d"/>
       <use x="290.576172" xlink:href="#DejaVuSans-31"/>
       <use x="354.199219" xlink:href="#DejaVuSans-32"/>
      </g>
     </g>
    </g>
    <g id="xtick_5">
     <g id="line2d_5">
      <g>
       <use style="stroke:#000000;stroke-width:0.8;" x="294.194103" xlink:href="#mf20d7d1747" y="276.48"/>
      </g>
     </g>
     <g id="text_5">
      <!-- 2022-01 -->
      <g transform="translate(256.969282 310.951846)rotate(-30)scale(0.1 -0.1)">
       <use xlink:href="#DejaVuSans-32"/>
       <use x="63.623047" xlink:href="#DejaVuSans-30"/>
       <use x="127.246094" xlink:href="#DejaVuSans-32"/>
       <use x="190.869141" xlink:href="#DejaVuSans-32"/>
       <use x="254.492188" xlink:href="#DejaVuSans-2d"/>
       <use x="290.576172" xlink:href="#DejaVuSans-30"/>
       <use x="354.199219" xlink:href="#DejaVuSans-31"/>
      </g>
     </g>
    </g>
    <g id="xtick_6">
     <g id="line2d_6">
      <g>
       <use style="stroke:#000000;stroke-width:0.8;" x="346.340688" xlink:href="#mf20d7d1747" y="276.48"/>
      </g>
     </g>
     <g id="text_6">
      <!-- 2022-02 -->
      <g transform="translate(309.115867 310.951846)rotate(-30)scale(0.1 -0.1)">
       <use xlink:href="#DejaVuSans-32"/>
       <use x="63.623047" xlink:href="#DejaVuSans-30"/>
       <use x="127.246094" xlink:href="#DejaVuSans-32"/>
       <use x="190.869141" xlink:href="#DejaVuSans-32"/>
       <use x="254.492188" xlink:href="#DejaVuSans-2d"/>
       <use x="290.576172" xlink:href="#DejaVuSans-30"/>
       <use x="354.199219" xlink:href="#DejaVuSans-32"/>
      </g>
     </g>
    </g>
    <g id="xtick_7">
     <g id="line2d_7">
      <g>
       <use style="stroke:#000000;stroke-width:0.8;" x="393.440829" xlink:href="#mf20d7d1747" y="276.48"/>
      </g>
     </g>
     <g id="text_7">
      <!-- 2022-03 -->
      <g transform="translate(356.216008 310.951846)rotate(-30)scale(0.1 -0.1)">
       <defs>
        <path d="M 2597 2516 
Q 3050 2419 3304 2112 
Q 3559 1806 3559 1356 
Q 3559 666 3084 287 
Q 2609 -91 1734 -91 
Q 1441 -91 1130 -33 
Q 819 25 488 141 
L 488 750 
Q 750 597 1062 519 
Q 1375 441 1716 441 
Q 2309 441 2620 675 
Q 2931 909 2931 1356 
Q 2931 1769 2642 2001 
Q 2353 2234 1838 2234 
L 1294 2234 
L 1294 2753 
L 1863 2753 
Q 2328 2753 2575 2939 
Q 2822 3125 2822 3475 
Q 2822 3834 2567 4026 
Q 2313 4219 1838 4219 
Q 1578 4219 1281 4162 
Q 984 4106 628 3988 
L 628 4550 
Q 988 4650 1302 4700 
Q 1616 4750 1894 4750 
Q 2613 4750 3031 4423 
Q 3450 4097 3450 3541 
Q 3450 3153 3228 2886 
Q 3006 2619 2597 2516 
z
" id="DejaVuSans-33" transform="scale(0.015625)"/>
       </defs>
       <use xlink:href="#DejaVuSans-32"/>
       <use x="63.623047" xlink:href="#DejaVuSans-30"/>
       <use x="127.246094" xlink:href="#DejaVuSans-32"/>
       <use x="190.869141" xlink:href="#DejaVuSans-32"/>
       <use x="254.492188" xlink:href="#DejaVuSans-2d"/>
       <use x="290.576172" xlink:href="#DejaVuSans-30"/>
       <use x="354.199219" xlink:href="#DejaVuSans-33"/>
      </g>
     </g>
    </g>
    <g id="text_8">
     <!-- date -->
     <g transform="translate(224.885 324.351346)scale(0.1 -0.1)">
      <defs>
       <path d="M 2906 2969 
L 2906 4863 
L 3481 4863 
L 3481 0 
L 2906 0 
L 2906 525 
Q 2725 213 2448 61 
Q 2172 -91 1784 -91 
Q 1150 -91 751 415 
Q 353 922 353 1747 
Q 353 2572 751 3078 
Q 1150 3584 1784 3584 
Q 2172 3584 2448 3432 
Q 2725 3281 2906 2969 
z
M 947 1747 
Q 947 1113 1208 752 
Q 1469 391 1925 391 
Q 2381 391 2643 752 
Q 2906 1113 2906 1747 
Q 2906 2381 2643 2742 
Q 2381 3103 1925 3103 
Q 1469 3103 1208 2742 
Q 947 2381 947 1747 
z
" id="DejaVuSans-64" transform="scale(0.015625)"/>
       <path d="M 2194 1759 
Q 1497 1759 1228 1600 
Q 959 1441 959 1056 
Q 959 750 1161 570 
Q 1363 391 1709 391 
Q 2188 391 2477 730 
Q 2766 1069 2766 1631 
L 2766 1759 
L 2194 1759 
z
M 3341 1997 
L 3341 0 
L 2766 0 
L 2766 531 
Q 2569 213 2275 61 
Q 1981 -91 1556 -91 
Q 1019 -91 701 211 
Q 384 513 384 1019 
Q 384 1609 779 1909 
Q 1175 2209 1959 2209 
L 2766 2209 
L 2766 2266 
Q 2766 2663 2505 2880 
Q 2244 3097 1772 3097 
Q 1472 3097 1187 3025 
Q 903 2953 641 2809 
L 641 3341 
Q 956 3463 1253 3523 
Q 1550 3584 1831 3584 
Q 2591 3584 2966 3190 
Q 3341 2797 3341 1997 
z
" id="DejaVuSans-61" transform="scale(0.015625)"/>
       <path d="M 1172 4494 
L 1172 3500 
L 2356 3500 
L 2356 3053 
L 1172 3053 
L 1172 1153 
Q 1172 725 1289 603 
Q 1406 481 1766 481 
L 2356 481 
L 2356 0 
L 1766 0 
Q 1100 0 847 248 
Q 594 497 594 1153 
L 594 3053 
L 172 3053 
L 172 3500 
L 594 3500 
L 594 4494 
L 1172 4494 
z
" id="DejaVuSans-74" transform="scale(0.015625)"/>
       <path d="M 3597 1894 
L 3597 1613 
L 953 1613 
Q 991 1019 1311 708 
Q 1631 397 2203 397 
Q 2534 397 2845 478 
Q 3156 559 3463 722 
L 3463 178 
Q 3153 47 2828 -22 
Q 2503 -91 2169 -91 
Q 1331 -91 842 396 
Q 353 884 353 1716 
Q 353 2575 817 3079 
Q 1281 3584 2069 3584 
Q 2775 3584 3186 3129 
Q 3597 2675 3597 1894 
z
M 3022 2063 
Q 3016 2534 2758 2815 
Q 2500 3097 2075 3097 
Q 1594 3097 1305 2825 
Q 1016 2553 972 2059 
L 3022 2063 
z
" id="DejaVuSans-65" transform="scale(0.015625)"/>
      </defs>
      <use xlink:href="#DejaVuSans-64"/>
      <use x="63.476562" xlink:href="#DejaVuSans-61"/>
      <use x="124.755859" xlink:href="#DejaVuSans-74"/>
      <use x="163.964844" xlink:href="#DejaVuSans-65"/>
     </g>
    </g>
   </g>
   <g id="matplotlib.axis_2">
    <g id="ytick_1">
     <g id="line2d_8">
      <defs>
       <path d="M 0 0 
L -3.5 0 
" id="ma7a1396542" style="stroke:#000000;stroke-width:0.8;"/>
      </defs>
      <g>
       <use style="stroke:#000000;stroke-width:0.8;" x="57.6" xlink:href="#ma7a1396542" y="269.655621"/>
      </g>
     </g>
     <g id="text_9">
      <!-- 85000 -->
      <g transform="translate(18.7875 273.45484)scale(0.1 -0.1)">
       <defs>
        <path d="M 2034 2216 
Q 1584 2216 1326 1975 
Q 1069 1734 1069 1313 
Q 1069 891 1326 650 
Q 1584 409 2034 409 
Q 2484 409 2743 651 
Q 3003 894 3003 1313 
Q 3003 1734 2745 1975 
Q 2488 2216 2034 2216 
z
M 1403 2484 
Q 997 2584 770 2862 
Q 544 3141 544 3541 
Q 544 4100 942 4425 
Q 1341 4750 2034 4750 
Q 2731 4750 3128 4425 
Q 3525 4100 3525 3541 
Q 3525 3141 3298 2862 
Q 3072 2584 2669 2484 
Q 3125 2378 3379 2068 
Q 3634 1759 3634 1313 
Q 3634 634 3220 271 
Q 2806 -91 2034 -91 
Q 1263 -91 848 271 
Q 434 634 434 1313 
Q 434 1759 690 2068 
Q 947 2378 1403 2484 
z
M 1172 3481 
Q 1172 3119 1398 2916 
Q 1625 2713 2034 2713 
Q 2441 2713 2670 2916 
Q 2900 3119 2900 3481 
Q 2900 3844 2670 4047 
Q 2441 4250 2034 4250 
Q 1625 4250 1398 4047 
Q 1172 3844 1172 3481 
z
" id="DejaVuSans-38" transform="scale(0.015625)"/>
        <path d="M 691 4666 
L 3169 4666 
L 3169 4134 
L 1269 4134 
L 1269 2991 
Q 1406 3038 1543 3061 
Q 1681 3084 1819 3084 
Q 2600 3084 3056 2656 
Q 3513 2228 3513 1497 
Q 3513 744 3044 326 
Q 2575 -91 1722 -91 
Q 1428 -91 1123 -41 
Q 819 9 494 109 
L 494 744 
Q 775 591 1075 516 
Q 1375 441 1709 441 
Q 2250 441 2565 725 
Q 2881 1009 2881 1497 
Q 2881 1984 2565 2268 
Q 2250 2553 1709 2553 
Q 1456 2553 1204 2497 
Q 953 2441 691 2322 
L 691 4666 
z
" id="DejaVuSans-35" transform="scale(0.015625)"/>
       </defs>
       <use xlink:href="#DejaVuSans-38"/>
       <use x="63.623047" xlink:href="#DejaVuSans-35"/>
       <use x="127.246094" xlink:href="#DejaVuSans-30"/>
       <use x="190.869141" xlink:href="#DejaVuSans-30"/>
       <use x="254.492188" xlink:href="#DejaVuSans-30"/>
      </g>
     </g>
    </g>
    <g id="ytick_2">
     <g id="line2d_9">
      <g>
       <use style="stroke:#000000;stroke-width:0.8;" x="57.6" xlink:href="#ma7a1396542" y="235.987606"/>
      </g>
     </g>
     <g id="text_10">
      <!-- 90000 -->
      <g transform="translate(18.7875 239.786825)scale(0.1 -0.1)">
       <use xlink:href="#DejaVuSans-39"/>
       <use x="63.623047" xlink:href="#DejaVuSans-30"/>
       <use x="127.246094" xlink:href="#DejaVuSans-30"/>
       <use x="190.869141" xlink:href="#DejaVuSans-30"/>
       <use x="254.492188" xlink:href="#DejaVuSans-30"/>
      </g>
     </g>
    </g>
    <g id="ytick_3">
     <g id="line2d_10">
      <g>
       <use style="stroke:#000000;stroke-width:0.8;" x="57.6" xlink:href="#ma7a1396542" y="202.319592"/>
      </g>
     </g>
     <g id="text_11">
      <!-- 95000 -->
      <g transform="translate(18.7875 206.118811)scale(0.1 -0.1)">
       <use xlink:href="#DejaVuSans-39"/>
       <use x="63.623047" xlink:href="#DejaVuSans-35"/>
       <use x="127.246094" xlink:href="#DejaVuSans-30"/>
       <use x="190.869141" xlink:href="#DejaVuSans-30"/>
       <use x="254.492188" xlink:href="#DejaVuSans-30"/>
      </g>
     </g>
    </g>
    <g id="ytick_4">
     <g id="line2d_11">
      <g>
       <use style="stroke:#000000;stroke-width:0.8;" x="57.6" xlink:href="#ma7a1396542" y="168.651577"/>
      </g>
     </g>
     <g id="text_12">
      <!-- 100000 -->
      <g transform="translate(12.425 172.450796)scale(0.1 -0.1)">
       <use xlink:href="#DejaVuSans-31"/>
       <use x="63.623047" xlink:href="#DejaVuSans-30"/>
       <use x="127.246094" xlink:href="#DejaVuSans-30"/>
       <use x="190.869141" xlink:href="#DejaVuSans-30"/>
       <use x="254.492188" xlink:href="#DejaVuSans-30"/>
       <use x="318.115234" xlink:href="#DejaVuSans-30"/>
      </g>
     </g>
    </g>
    <g id="ytick_5">
     <g id="line2d_12">
      <g>
       <use style="stroke:#000000;stroke-width:0.8;" x="57.6" xlink:href="#ma7a1396542" y="134.983563"/>
      </g>
     </g>
     <g id="text_13">
      <!-- 105000 -->
      <g transform="translate(12.425 138.782782)scale(0.1 -0.1)">
       <use xlink:href="#DejaVuSans-31"/>
       <use x="63.623047" xlink:href="#DejaVuSans-30"/>
       <use x="127.246094" xlink:href="#DejaVuSans-35"/>
       <use x="190.869141" xlink:href="#DejaVuSans-30"/>
       <use x="254.492188" xlink:href="#DejaVuSans-30"/>
       <use x="318.115234" xlink:href="#DejaVuSans-30"/>
      </g>
     </g>
    </g>
    <g id="ytick_6">
     <g id="line2d_13">
      <g>
       <use style="stroke:#000000;stroke-width:0.8;" x="57.6" xlink:href="#ma7a1396542" y="101.315548"/>
      </g>
     </g>
     <g id="text_14">
      <!-- 110000 -->
      <g transform="translate(12.425 105.114767)scale(0.1 -0.1)">
       <use xlink:href="#DejaVuSans-31"/>
       <use x="63.623047" xlink:href="#DejaVuSans-31"/>
       <use x="127.246094" xlink:href="#DejaVuSans-30"/>
       <use x="190.869141" xlink:href="#DejaVuSans-30"/>
       <use x="254.492188" xlink:href="#DejaVuSans-30"/>
       <use x="318.115234" xlink:href="#DejaVuSans-30"/>
      </g>
     </g>
    </g>
    <g id="ytick_7">
     <g id="line2d_14">
      <g>
       <use style="stroke:#000000;stroke-width:0.8;" x="57.6" xlink:href="#ma7a1396542" y="67.647534"/>
      </g>
     </g>
     <g id="text_15">
      <!-- 115000 -->
      <g transform="translate(12.425 71.446753)scale(0.1 -0.1)">
       <use xlink:href="#DejaVuSans-31"/>
       <use x="63.623047" xlink:href="#DejaVuSans-31"/>
       <use x="127.246094" xlink:href="#DejaVuSans-35"/>
       <use x="190.869141" xlink:href="#DejaVuSans-30"/>
       <use x="254.492188" xlink:href="#DejaVuSans-30"/>
       <use x="318.115234" xlink:href="#DejaVuSans-30"/>
      </g>
     </g>
    </g>
   </g>
   <g id="line2d_15">
    <path clip-path="url(#p907ed9bea6)" d="M 73.832727 168.651577 
L 75.514875 168.65656 
L 77.197023 166.226581 
L 78.879171 169.591909 
L 80.561319 163.249812 
L 85.607763 159.187828 
L 87.289911 158.004945 
L 88.972058 159.991425 
L 90.654206 159.213665 
L 92.336354 159.438329 
L 99.064946 159.695191 
L 102.429242 163.916665 
L 104.11139 169.68275 
L 109.157833 164.423808 
L 110.839981 173.757403 
L 112.522129 169.800542 
L 114.204277 171.047503 
L 115.886425 177.932055 
L 120.932869 189.635632 
L 122.615016 190.93331 
L 124.297164 185.957901 
L 125.979312 175.331775 
L 127.66146 170.296078 
L 132.707904 164.59086 
L 134.390052 178.89627 
L 136.0722 176.669806 
L 137.754348 182.03188 
L 139.436496 172.091352 
L 144.482939 184.277835 
L 146.165087 174.780893 
L 147.847235 171.753882 
L 149.529383 171.541057 
L 151.211531 170.759426 
L 156.257975 170.172498 
L 157.940122 169.402799 
L 159.62227 177.830343 
L 161.304418 165.060878 
L 162.986566 163.802749 
L 168.03301 158.124884 
L 169.715158 151.750889 
L 171.397306 149.211353 
L 173.079454 160.964266 
L 174.761602 169.186628 
L 179.808045 169.031314 
L 181.490193 175.091284 
L 183.172341 176.17706 
L 184.854489 168.051975 
L 186.536637 176.644058 
L 191.583081 162.651545 
L 193.265228 163.255554 
L 194.947376 156.11903 
L 196.629524 164.749666 
L 198.311672 160.404406 
L 203.358116 159.478791 
L 205.040264 168.098705 
L 206.722412 167.358756 
L 208.40456 172.95729 
L 210.086707 168.090504 
L 215.133151 165.544414 
L 216.815299 165.946416 
L 218.497447 169.277277 
L 220.179595 171.426387 
L 221.861743 171.887531 
L 226.908187 167.522819 
L 228.590334 161.78181 
L 230.272482 162.259658 
L 233.636778 162.65778 
L 238.683222 168.718487 
L 240.36537 181.751288 
L 242.047518 190.500519 
L 243.729666 182.593174 
L 245.411813 186.764842 
L 250.458257 174.010637 
L 252.140405 162.21438 
L 253.822553 156.716129 
L 255.504701 156.563593 
L 257.186849 154.759286 
L 262.233293 161.243726 
L 265.597588 153.818209 
L 267.279736 151.054167 
L 268.961884 159.01358 
L 274.008328 168.182527 
L 275.690476 152.238786 
L 277.372624 149.812315 
L 279.054772 143.208279 
L 285.783363 134.560452 
L 287.465511 135.083696 
L 289.147659 134.712595 
L 290.829807 135.878806 
L 292.511955 139.421995 
L 297.558398 128.19709 
L 299.240546 119.252457 
L 300.922694 138.01448 
L 302.604842 131.823342 
L 304.28699 129.292382 
L 309.333434 128.710168 
L 311.015582 122.690551 
L 312.69773 121.734386 
L 314.379878 130.108457 
L 316.062025 127.97881 
L 324.472765 146.855308 
L 326.154913 155.015231 
L 327.837061 170.683301 
L 332.883504 169.876456 
L 334.565652 177.697326 
L 336.2478 177.306206 
L 337.929948 181.901959 
L 339.612096 164.649751 
L 344.65854 150.565594 
L 346.340688 143.718323 
L 348.022836 133.12184 
L 349.704984 178.31336 
L 351.387131 177.972397 
L 356.433575 189.785681 
L 358.115723 191.551304 
L 359.797871 176.323398 
L 361.480019 188.498507 
L 363.162167 203.393 
L 368.20861 207.914944 
L 369.890758 199.537273 
L 371.572906 203.137359 
L 373.255054 214.722645 
L 374.937202 218.720975 
L 381.665794 225.162827 
L 383.347942 234.183641 
L 385.030089 220.462396 
L 386.712237 209.224227 
L 391.758681 211.374411 
L 393.440829 221.17032 
L 395.122977 208.20947 
L 396.805125 210.631786 
L 398.487273 221.756477 
L 398.487273 221.756477 
" style="fill:none;stroke:#0000ff;stroke-linecap:square;stroke-opacity:0.9;stroke-width:2;"/>
   </g>
   <g id="line2d_16">
    <path clip-path="url(#p907ed9bea6)" d="M 73.832727 168.651577 
L 75.514875 164.691902 
L 77.197023 161.764985 
L 78.879171 165.792938 
L 80.561319 157.629779 
L 85.607763 155.853859 
L 87.289911 154.724112 
L 88.972058 155.107271 
L 90.654206 155.934246 
L 92.336354 155.168236 
L 99.064946 154.630061 
L 100.747094 156.825326 
L 102.429242 158.072769 
L 104.11139 165.707832 
L 109.157833 160.908908 
L 110.839981 167.499941 
L 112.522129 163.937016 
L 114.204277 166.074738 
L 115.886425 174.235041 
L 120.932869 185.166508 
L 122.615016 185.836791 
L 124.297164 181.814964 
L 125.979312 173.192962 
L 127.66146 167.727212 
L 132.707904 163.361576 
L 134.390052 177.380747 
L 136.0722 176.330841 
L 137.754348 182.624346 
L 139.436496 172.956726 
L 144.482939 180.038231 
L 146.165087 170.503281 
L 147.847235 168.879475 
L 149.529383 167.464816 
L 151.211531 164.159062 
L 156.257975 167.88909 
L 157.940122 173.320963 
L 159.62227 175.110274 
L 161.304418 158.556261 
L 162.986566 153.753665 
L 168.03301 152.551683 
L 169.715158 146.74666 
L 171.397306 142.473857 
L 173.079454 151.619854 
L 174.761602 155.49351 
L 179.808045 157.105323 
L 183.172341 164.686672 
L 184.854489 155.338965 
L 186.536637 153.870136 
L 191.583081 153.631691 
L 193.265228 150.935154 
L 194.947376 146.024604 
L 196.629524 147.061395 
L 198.311672 147.21231 
L 203.358116 146.25575 
L 205.040264 151.910881 
L 206.722412 155.454414 
L 208.40456 154.998747 
L 210.086707 150.871747 
L 215.133151 148.820359 
L 216.815299 150.512769 
L 218.497447 151.143268 
L 220.179595 151.405695 
L 221.861743 153.558481 
L 226.908187 150.843999 
L 228.590334 143.728414 
L 230.272482 143.755478 
L 233.636778 161.471402 
L 238.683222 153.686103 
L 240.36537 168.855156 
L 242.047518 176.350809 
L 243.729666 166.962992 
L 245.411813 172.344209 
L 250.458257 162.235269 
L 252.140405 150.729669 
L 253.822553 146.813582 
L 255.504701 147.545969 
L 257.186849 142.639165 
L 262.233293 150.032583 
L 263.91544 149.49215 
L 265.597588 144.207025 
L 267.279736 144.200372 
L 268.961884 153.002332 
L 274.008328 160.643053 
L 275.690476 147.51825 
L 277.372624 144.040851 
L 279.054772 138.185129 
L 285.783363 128.557526 
L 287.465511 128.963463 
L 289.147659 128.519377 
L 290.829807 129.742883 
L 292.511955 132.594636 
L 297.558398 124.62418 
L 299.240546 117.923111 
L 300.922694 133.694636 
L 304.28699 127.226938 
L 309.333434 127.833547 
L 311.015582 123.559749 
L 312.69773 122.87746 
L 314.379878 128.874285 
L 316.062025 128.836181 
L 322.790617 144.583935 
L 326.154913 157.940722 
L 327.837061 171.763279 
L 332.883504 172.992726 
L 334.565652 171.570593 
L 336.2478 172.565939 
L 337.929948 178.329252 
L 339.612096 162.309575 
L 344.65854 151.395345 
L 346.340688 143.602483 
L 348.022836 132.55073 
L 349.704984 164.005148 
L 351.387131 158.206894 
L 356.433575 162.866039 
L 358.115723 158.514226 
L 359.797871 152.073156 
L 361.480019 163.173367 
L 363.162167 177.641034 
L 368.20861 183.401758 
L 369.890758 175.71752 
L 371.572906 177.182944 
L 373.255054 190.198981 
L 374.937202 193.622457 
L 381.665794 199.373211 
L 383.347942 208.087808 
L 385.030089 204.289856 
L 386.712237 189.259026 
L 391.758681 195.428661 
L 393.440829 208.59449 
L 395.122977 193.859005 
L 396.805125 195.380539 
L 398.487273 204.719111 
L 398.487273 204.719111 
" style="fill:none;stroke:#ff0000;stroke-linecap:square;stroke-opacity:0.9;stroke-width:2;"/>
   </g>
   <g id="line2d_17">
    <path clip-path="url(#p907ed9bea6)" d="M 73.832727 168.651577 
L 75.514875 164.950011 
L 77.197023 162.398758 
L 78.879171 165.755273 
L 80.561319 159.421183 
L 85.607763 155.251343 
L 87.289911 154.172636 
L 88.972058 155.693126 
L 90.654206 154.588754 
L 92.336354 155.308503 
L 99.064946 155.051075 
L 100.747094 157.626808 
L 102.429242 159.434615 
L 104.11139 165.517559 
L 109.157833 159.840154 
L 110.839981 169.189865 
L 112.522129 165.356935 
L 114.204277 166.615505 
L 115.886425 172.890443 
L 120.932869 184.37539 
L 122.615016 186.031569 
L 124.297164 181.241438 
L 125.979312 170.384937 
L 127.66146 164.525639 
L 132.707904 158.733415 
L 134.390052 173.718687 
L 136.0722 171.437267 
L 137.754348 176.342218 
L 139.436496 166.016988 
L 144.482939 178.803248 
L 146.165087 168.582511 
L 147.847235 165.609029 
L 149.529383 163.571735 
L 151.211531 161.059303 
L 156.257975 164.918838 
L 157.940122 170.187806 
L 159.62227 171.328297 
L 161.304418 158.17273 
L 162.986566 157.141582 
L 168.03301 151.903717 
L 169.715158 144.893252 
L 171.397306 141.908182 
L 173.079454 152.888953 
L 174.761602 161.829485 
L 179.808045 161.465889 
L 181.490193 167.954655 
L 183.172341 169.280526 
L 184.854489 160.959293 
L 193.265228 154.361902 
L 194.947376 148.881871 
L 196.629524 149.029237 
L 198.311672 143.745465 
L 203.358116 143.460448 
L 205.040264 152.118164 
L 206.722412 156.799711 
L 208.40456 157.25828 
L 210.086707 151.986912 
L 215.133151 149.950458 
L 216.815299 153.298982 
L 218.497447 153.493675 
L 220.179595 155.544386 
L 221.861743 155.182117 
L 226.908187 150.84619 
L 228.590334 145.14759 
L 230.272482 145.878849 
L 233.636778 161.534419 
L 238.683222 152.646468 
L 240.36537 165.896275 
L 242.047518 175.532194 
L 243.729666 167.439093 
L 245.411813 171.707035 
L 250.458257 159.270307 
L 252.140405 146.731955 
L 253.822553 141.462656 
L 255.504701 140.978097 
L 257.186849 138.966747 
L 262.233293 145.22668 
L 263.91544 141.886625 
L 265.597588 137.881985 
L 267.279736 135.58441 
L 268.961884 143.762673 
L 274.008328 153.106265 
L 275.690476 136.808519 
L 277.372624 133.780777 
L 279.054772 127.243848 
L 285.783363 118.047157 
L 287.465511 119.001251 
L 289.147659 118.937397 
L 290.829807 119.464564 
L 292.511955 123.176347 
L 297.558398 111.917119 
L 299.240546 103.003612 
L 300.922694 122.088633 
L 302.604842 114.670612 
L 304.28699 111.88937 
L 309.333434 110.637273 
L 311.015582 103.69259 
L 312.69773 102.010761 
L 314.379878 111.128952 
L 316.062025 108.950616 
L 322.790617 124.147878 
L 324.472765 128.326903 
L 326.154913 135.937651 
L 327.837061 152.573491 
L 332.883504 151.279113 
L 334.565652 159.960227 
L 336.2478 159.314332 
L 337.929948 163.893964 
L 339.612096 146.874413 
L 344.65854 131.549841 
L 346.340688 124.918548 
L 348.022836 112.484847 
L 349.704984 161.151062 
L 351.387131 160.625846 
L 356.433575 172.160146 
L 358.115723 173.78708 
L 359.797871 159.186777 
L 361.480019 170.889975 
L 363.162167 186.494086 
L 368.20861 190.537864 
L 369.890758 182.324027 
L 371.572906 185.773927 
L 373.255054 198.008474 
L 374.937202 201.884455 
L 381.665794 208.746509 
L 383.347942 217.579201 
L 385.030089 202.774225 
L 386.712237 191.100391 
L 391.758681 193.275769 
L 393.440829 203.497009 
L 395.122977 190.094942 
L 396.805125 193.4384 
L 398.487273 202.25757 
L 398.487273 202.25757 
" style="fill:none;stroke:#ff8040;stroke-linecap:square;stroke-opacity:0.9;stroke-width:2;"/>
   </g>
   <g id="line2d_18">
    <path clip-path="url(#p907ed9bea6)" d="M 73.832727 169.324938 
L 75.514875 167.399557 
L 77.197023 166.024201 
L 78.879171 169.991741 
L 80.561319 162.387395 
L 85.607763 163.620449 
L 87.289911 162.518509 
L 90.654206 165.725203 
L 92.336354 164.742765 
L 99.064946 164.591394 
L 100.747094 168.04722 
L 102.429242 168.505402 
L 104.11139 177.518173 
L 109.157833 173.401672 
L 110.839981 179.946289 
L 112.522129 177.299739 
L 114.204277 179.238485 
L 115.886425 187.952255 
L 120.932869 197.729599 
L 122.615016 197.913926 
L 124.297164 199.322773 
L 125.979312 191.400252 
L 127.66146 184.330361 
L 132.707904 181.512169 
L 134.390052 196.471383 
L 136.0722 194.192216 
L 137.754348 201.74054 
L 139.436496 192.678044 
L 144.482939 202.222496 
L 146.165087 195.575586 
L 147.847235 192.865716 
L 149.529383 192.561579 
L 151.211531 190.184271 
L 156.257975 193.782509 
L 157.940122 198.636537 
L 159.62227 201.154999 
L 161.304418 184.911712 
L 162.986566 179.622526 
L 168.03301 176.403653 
L 169.715158 171.417737 
L 171.397306 167.758152 
L 173.079454 182.384904 
L 174.761602 184.978317 
L 179.808045 186.698665 
L 181.490193 190.755258 
L 183.172341 196.128494 
L 184.854489 185.264354 
L 186.536637 184.583299 
L 191.583081 185.962118 
L 193.265228 184.48256 
L 194.947376 179.966116 
L 196.629524 182.364923 
L 198.311672 179.790548 
L 203.358116 179.032412 
L 205.040264 185.780867 
L 206.722412 186.480208 
L 208.40456 187.025665 
L 210.086707 184.440359 
L 215.133151 183.707826 
L 216.815299 184.759979 
L 218.497447 186.696929 
L 220.179595 187.471419 
L 221.861743 188.719935 
L 226.908187 188.819016 
L 228.590334 177.47935 
L 230.272482 178.675726 
L 233.636778 195.839175 
L 238.683222 187.305606 
L 240.36537 202.623665 
L 242.047518 213.36877 
L 243.729666 202.569482 
L 245.411813 209.850892 
L 250.458257 199.741138 
L 252.140405 188.341731 
L 253.822553 183.652344 
L 255.504701 185.597873 
L 257.186849 180.186949 
L 262.233293 188.216523 
L 263.91544 185.691716 
L 265.597588 180.231154 
L 267.279736 177.675953 
L 268.961884 185.318101 
L 274.008328 192.586902 
L 275.690476 182.662428 
L 277.372624 179.030052 
L 279.054772 171.621545 
L 285.783363 163.987669 
L 287.465511 164.038313 
L 289.147659 163.387599 
L 290.829807 165.649286 
L 292.511955 168.798813 
L 297.558398 161.792411 
L 299.240546 155.637812 
L 300.922694 171.942783 
L 302.604842 171.045239 
L 304.28699 169.447655 
L 309.333434 170.495506 
L 311.015582 167.746278 
L 312.69773 167.154434 
L 314.379878 173.538927 
L 316.062025 171.425878 
L 322.790617 189.013576 
L 324.472765 192.752492 
L 326.154913 199.406904 
L 327.837061 213.058132 
L 332.883504 213.34497 
L 334.565652 215.554872 
L 336.2478 214.96569 
L 337.929948 218.998682 
L 339.612096 209.034626 
L 344.65854 197.86466 
L 346.340688 190.495402 
L 348.022836 180.375632 
L 349.704984 220.648454 
L 351.387131 214.545374 
L 356.433575 222.934402 
L 358.115723 216.602534 
L 359.797871 211.172939 
L 361.480019 222.530969 
L 363.162167 235.311179 
L 368.20861 239.351104 
L 369.890758 233.975096 
L 371.572906 236.29303 
L 373.255054 247.723383 
L 374.937202 251.503213 
L 381.665794 257.918373 
L 383.347942 265.797818 
L 385.030089 258.755559 
L 386.712237 246.807969 
L 391.758681 249.27688 
L 393.440829 259.922788 
L 395.122977 246.147445 
L 396.805125 247.957975 
L 398.487273 257.217945 
L 398.487273 257.217945 
" style="fill:none;stroke:#0d0d0d;stroke-linecap:square;stroke-opacity:0.25;stroke-width:2;"/>
   </g>
   <g id="line2d_19">
    <path clip-path="url(#p907ed9bea6)" d="M 73.832727 167.978217 
L 77.197023 157.774427 
L 78.879171 160.238942 
L 80.561319 152.088647 
L 87.289911 146.504602 
L 88.972058 146.779024 
L 90.654206 146.888402 
L 92.336354 146.736279 
L 99.064946 143.617721 
L 100.747094 145.340245 
L 102.429242 146.699731 
L 104.11139 155.231576 
L 109.157833 150.505456 
L 110.839981 155.878733 
L 112.522129 152.940043 
L 114.204277 153.597811 
L 115.886425 160.948625 
L 120.932869 172.27037 
L 122.615016 173.343655 
L 124.297164 165.712447 
L 125.979312 153.303208 
L 127.66146 148.461839 
L 132.707904 148.843618 
L 134.390052 162.007942 
L 136.0722 160.945191 
L 137.754348 167.033267 
L 139.436496 155.686448 
L 144.482939 163.071919 
L 146.165087 152.902404 
L 147.847235 150.310242 
L 149.529383 145.034924 
L 151.211531 141.364483 
L 156.257975 143.579814 
L 157.940122 148.404303 
L 159.62227 149.445905 
L 161.304418 131.369137 
L 162.986566 128.203619 
L 168.03301 127.915278 
L 169.715158 119.951299 
L 171.397306 115.109138 
L 173.079454 127.46563 
L 174.761602 128.529288 
L 179.808045 129.973051 
L 181.490193 135.797626 
L 183.172341 135.2691 
L 184.854489 125.185666 
L 186.536637 119.20626 
L 191.583081 114.065777 
L 193.265228 109.994577 
L 194.947376 103.417873 
L 196.629524 103.503473 
L 198.311672 95.980274 
L 203.358116 94.927178 
L 205.040264 102.750981 
L 206.722412 104.815799 
L 208.40456 104.80906 
L 210.086707 102.930042 
L 215.133151 99.14315 
L 216.815299 100.722011 
L 218.497447 100.983194 
L 220.179595 100.981671 
L 221.861743 105.720567 
L 226.908187 104.342925 
L 228.590334 99.195755 
L 230.272482 96.55471 
L 233.636778 115.79185 
L 238.683222 104.425258 
L 240.36537 122.522659 
L 242.047518 131.12334 
L 243.729666 121.15044 
L 245.411813 128.721572 
L 250.458257 112.440214 
L 252.140405 99.216143 
L 253.822553 93.561943 
L 255.504701 93.839207 
L 257.186849 89.372815 
L 262.233293 95.277101 
L 263.91544 94.430896 
L 265.597588 92.031464 
L 267.279736 85.882873 
L 268.961884 94.573038 
L 274.008328 106.011451 
L 275.690476 89.560178 
L 277.372624 86.249557 
L 279.054772 79.635597 
L 285.783363 65.910594 
L 287.465511 65.492206 
L 289.147659 65.884646 
L 290.829807 66.040345 
L 292.511955 73.326969 
L 297.558398 62.116873 
L 299.240546 52.154182 
L 300.922694 70.836567 
L 302.604842 65.374028 
L 304.28699 62.629375 
L 309.333434 60.352606 
L 311.015582 57.745655 
L 312.69773 57.311734 
L 314.379878 63.640849 
L 316.062025 65.864698 
L 322.790617 78.547365 
L 324.472765 86.528124 
L 326.154913 93.698336 
L 327.837061 110.123051 
L 332.883504 110.67976 
L 334.565652 107.600451 
L 336.2478 110.026351 
L 337.929948 117.214396 
L 339.612096 96.555823 
L 344.65854 87.764794 
L 346.340688 77.829206 
L 348.022836 65.439407 
L 349.704984 97.211251 
L 351.387131 87.350607 
L 356.433575 95.099835 
L 358.115723 91.465262 
L 359.797871 81.708182 
L 361.480019 94.798463 
L 363.162167 110.875922 
L 368.20861 119.33098 
L 369.890758 111.561886 
L 371.572906 113.081237 
L 373.255054 131.499247 
L 374.937202 133.388278 
L 381.665794 138.33865 
L 383.347942 148.406303 
L 385.030089 144.384242 
L 386.712237 127.132574 
L 391.758681 134.164748 
L 393.440829 144.955207 
L 395.122977 130.548689 
L 396.805125 132.675178 
L 398.487273 144.335845 
L 398.487273 144.335845 
" style="fill:none;stroke:#0d0d0d;stroke-linecap:square;stroke-opacity:0.25;stroke-width:2;"/>
   </g>
   <g id="patch_3">
    <path d="M 57.6 276.48 
L 57.6 41.472 
" style="fill:none;stroke:#000000;stroke-linecap:square;stroke-linejoin:miter;stroke-width:0.8;"/>
   </g>
   <g id="patch_4">
    <path d="M 414.72 276.48 
L 414.72 41.472 
" style="fill:none;stroke:#000000;stroke-linecap:square;stroke-linejoin:miter;stroke-width:0.8;"/>
   </g>
   <g id="patch_5">
    <path d="M 57.6 276.48 
L 414.72 276.48 
" style="fill:none;stroke:#000000;stroke-linecap:square;stroke-linejoin:miter;stroke-width:0.8;"/>
   </g>
   <g id="patch_6">
    <path d="M 57.6 41.472 
L 414.72 41.472 
" style="fill:none;stroke:#000000;stroke-linecap:square;stroke-linejoin:miter;stroke-width:0.8;"/>
   </g>
   <g id="text_16">
    <!-- TESTFUNDS1550 -->
    <g transform="translate(185.200312 22.034625)scale(0.12 -0.12)">
     <defs>
      <path d="M -19 4666 
L 3928 4666 
L 3928 4134 
L 2272 4134 
L 2272 0 
L 1638 0 
L 1638 4134 
L -19 4134 
L -19 4666 
z
" id="DejaVuSans-54" transform="scale(0.015625)"/>
      <path d="M 628 4666 
L 3578 4666 
L 3578 4134 
L 1259 4134 
L 1259 2753 
L 3481 2753 
L 3481 2222 
L 1259 2222 
L 1259 531 
L 3634 531 
L 3634 0 
L 628 0 
L 628 4666 
z
" id="DejaVuSans-45" transform="scale(0.015625)"/>
      <path d="M 3425 4513 
L 3425 3897 
Q 3066 4069 2747 4153 
Q 2428 4238 2131 4238 
Q 1616 4238 1336 4038 
Q 1056 3838 1056 3469 
Q 1056 3159 1242 3001 
Q 1428 2844 1947 2747 
L 2328 2669 
Q 3034 2534 3370 2195 
Q 3706 1856 3706 1288 
Q 3706 609 3251 259 
Q 2797 -91 1919 -91 
Q 1588 -91 1214 -16 
Q 841 59 441 206 
L 441 856 
Q 825 641 1194 531 
Q 1563 422 1919 422 
Q 2459 422 2753 634 
Q 3047 847 3047 1241 
Q 3047 1584 2836 1778 
Q 2625 1972 2144 2069 
L 1759 2144 
Q 1053 2284 737 2584 
Q 422 2884 422 3419 
Q 422 4038 858 4394 
Q 1294 4750 2059 4750 
Q 2388 4750 2728 4690 
Q 3069 4631 3425 4513 
z
" id="DejaVuSans-53" transform="scale(0.015625)"/>
      <path d="M 628 4666 
L 3309 4666 
L 3309 4134 
L 1259 4134 
L 1259 2759 
L 3109 2759 
L 3109 2228 
L 1259 2228 
L 1259 0 
L 628 0 
L 628 4666 
z
" id="DejaVuSans-46" transform="scale(0.015625)"/>
      <path d="M 556 4666 
L 1191 4666 
L 1191 1831 
Q 1191 1081 1462 751 
Q 1734 422 2344 422 
Q 2950 422 3222 751 
Q 3494 1081 3494 1831 
L 3494 4666 
L 4128 4666 
L 4128 1753 
Q 4128 841 3676 375 
Q 3225 -91 2344 -91 
Q 1459 -91 1007 375 
Q 556 841 556 1753 
L 556 4666 
z
" id="DejaVuSans-55" transform="scale(0.015625)"/>
      <path d="M 628 4666 
L 1478 4666 
L 3547 763 
L 3547 4666 
L 4159 4666 
L 4159 0 
L 3309 0 
L 1241 3903 
L 1241 0 
L 628 0 
L 628 4666 
z
" id="DejaVuSans-4e" transform="scale(0.015625)"/>
      <path d="M 1259 4147 
L 1259 519 
L 2022 519 
Q 2988 519 3436 956 
Q 3884 1394 3884 2338 
Q 3884 3275 3436 3711 
Q 2988 4147 2022 4147 
L 1259 4147 
z
M 628 4666 
L 1925 4666 
Q 3281 4666 3915 4102 
Q 4550 3538 4550 2338 
Q 4550 1131 3912 565 
Q 3275 0 1925 0 
L 628 0 
L 628 4666 
z
" id="DejaVuSans-44" transform="scale(0.015625)"/>
     </defs>
     <use xlink:href="#DejaVuSans-54"/>
     <use x="61.083984" xlink:href="#DejaVuSans-45"/>
     <use x="124.267578" xlink:href="#DejaVuSans-53"/>
     <use x="187.744141" xlink:href="#DejaVuSans-54"/>
     <use x="248.828125" xlink:href="#DejaVuSans-46"/>
     <use x="306.347656" xlink:href="#DejaVuSans-55"/>
     <use x="379.541016" xlink:href="#DejaVuSans-4e"/>
     <use x="454.345703" xlink:href="#DejaVuSans-44"/>
     <use x="531.347656" xlink:href="#DejaVuSans-53"/>
     <use x="594.824219" xlink:href="#DejaVuSans-31"/>
     <use x="658.447266" xlink:href="#DejaVuSans-35"/>
     <use x="722.070312" xlink:href="#DejaVuSans-35"/>
     <use x="785.693359" xlink:href="#DejaVuSans-30"/>
    </g>
    <!-- daily_report -->
    <g transform="translate(200.466563 35.472)scale(0.12 -0.12)">
     <defs>
      <path d="M 603 3500 
L 1178 3500 
L 1178 0 
L 603 0 
L 603 3500 
z
M 603 4863 
L 1178 4863 
L 1178 4134 
L 603 4134 
L 603 4863 
z
" id="DejaVuSans-69" transform="scale(0.015625)"/>
      <path d="M 603 4863 
L 1178 4863 
L 1178 0 
L 603 0 
L 603 4863 
z
" id="DejaVuSans-6c" transform="scale(0.015625)"/>
      <path d="M 2059 -325 
Q 1816 -950 1584 -1140 
Q 1353 -1331 966 -1331 
L 506 -1331 
L 506 -850 
L 844 -850 
Q 1081 -850 1212 -737 
Q 1344 -625 1503 -206 
L 1606 56 
L 191 3500 
L 800 3500 
L 1894 763 
L 2988 3500 
L 3597 3500 
L 2059 -325 
z
" id="DejaVuSans-79" transform="scale(0.015625)"/>
      <path d="M 3263 -1063 
L 3263 -1509 
L -63 -1509 
L -63 -1063 
L 3263 -1063 
z
" id="DejaVuSans-5f" transform="scale(0.015625)"/>
      <path d="M 2631 2963 
Q 2534 3019 2420 3045 
Q 2306 3072 2169 3072 
Q 1681 3072 1420 2755 
Q 1159 2438 1159 1844 
L 1159 0 
L 581 0 
L 581 3500 
L 1159 3500 
L 1159 2956 
Q 1341 3275 1631 3429 
Q 1922 3584 2338 3584 
Q 2397 3584 2469 3576 
Q 2541 3569 2628 3553 
L 2631 2963 
z
" id="DejaVuSans-72" transform="scale(0.015625)"/>
      <path d="M 1159 525 
L 1159 -1331 
L 581 -1331 
L 581 3500 
L 1159 3500 
L 1159 2969 
Q 1341 3281 1617 3432 
Q 1894 3584 2278 3584 
Q 2916 3584 3314 3078 
Q 3713 2572 3713 1747 
Q 3713 922 3314 415 
Q 2916 -91 2278 -91 
Q 1894 -91 1617 61 
Q 1341 213 1159 525 
z
M 3116 1747 
Q 3116 2381 2855 2742 
Q 2594 3103 2138 3103 
Q 1681 3103 1420 2742 
Q 1159 2381 1159 1747 
Q 1159 1113 1420 752 
Q 1681 391 2138 391 
Q 2594 391 2855 752 
Q 3116 1113 3116 1747 
z
" id="DejaVuSans-70" transform="scale(0.015625)"/>
      <path d="M 1959 3097 
Q 1497 3097 1228 2736 
Q 959 2375 959 1747 
Q 959 1119 1226 758 
Q 1494 397 1959 397 
Q 2419 397 2687 759 
Q 2956 1122 2956 1747 
Q 2956 2369 2687 2733 
Q 2419 3097 1959 3097 
z
M 1959 3584 
Q 2709 3584 3137 3096 
Q 3566 2609 3566 1747 
Q 3566 888 3137 398 
Q 2709 -91 1959 -91 
Q 1206 -91 779 398 
Q 353 888 353 1747 
Q 353 2609 779 3096 
Q 1206 3584 1959 3584 
z
" id="DejaVuSans-6f" transform="scale(0.015625)"/>
     </defs>
     <use xlink:href="#DejaVuSans-64"/>
     <use x="63.476562" xlink:href="#DejaVuSans-61"/>
     <use x="124.755859" xlink:href="#DejaVuSans-69"/>
     <use x="152.539062" xlink:href="#DejaVuSans-6c"/>
     <use x="180.322266" xlink:href="#DejaVuSans-79"/>
     <use x="239.501953" xlink:href="#DejaVuSans-5f"/>
     <use x="289.501953" xlink:href="#DejaVuSans-72"/>
     <use x="328.365234" xlink:href="#DejaVuSans-65"/>
     <use x="389.888672" xlink:href="#DejaVuSans-70"/>
     <use x="453.365234" xlink:href="#DejaVuSans-6f"/>
     <use x="514.546875" xlink:href="#DejaVuSans-72"/>
     <use x="555.660156" xlink:href="#DejaVuSans-74"/>
    </g>
   </g>
   <g id="legend_1">
    <g id="patch_7">
     <path d="M 64.6 122.862625 
L 155.792188 122.862625 
Q 157.792188 122.862625 157.792188 120.862625 
L 157.792188 48.472 
Q 157.792188 46.472 155.792188 46.472 
L 64.6 46.472 
Q 62.6 46.472 62.6 48.472 
L 62.6 120.862625 
Q 62.6 122.862625 64.6 122.862625 
z
" style="fill:#ffffff;opacity:0.8;stroke:#cccccc;stroke-linejoin:miter;"/>
    </g>
    <g id="line2d_20">
     <path d="M 66.6 54.570437 
L 86.6 54.570437 
" style="fill:none;stroke:#0000ff;stroke-linecap:square;stroke-opacity:0.9;stroke-width:2;"/>
    </g>
    <g id="line2d_21"/>
    <g id="text_17">
     <!-- alpaca -->
     <g transform="translate(94.6 58.070437)scale(0.1 -0.1)">
      <defs>
       <path d="M 3122 3366 
L 3122 2828 
Q 2878 2963 2633 3030 
Q 2388 3097 2138 3097 
Q 1578 3097 1268 2742 
Q 959 2388 959 1747 
Q 959 1106 1268 751 
Q 1578 397 2138 397 
Q 2388 397 2633 464 
Q 2878 531 3122 666 
L 3122 134 
Q 2881 22 2623 -34 
Q 2366 -91 2075 -91 
Q 1284 -91 818 406 
Q 353 903 353 1747 
Q 353 2603 823 3093 
Q 1294 3584 2113 3584 
Q 2378 3584 2631 3529 
Q 2884 3475 3122 3366 
z
" id="DejaVuSans-63" transform="scale(0.015625)"/>
      </defs>
      <use xlink:href="#DejaVuSans-61"/>
      <use x="61.279297" xlink:href="#DejaVuSans-6c"/>
      <use x="89.0625" xlink:href="#DejaVuSans-70"/>
      <use x="152.539062" xlink:href="#DejaVuSans-61"/>
      <use x="213.818359" xlink:href="#DejaVuSans-63"/>
      <use x="268.798828" xlink:href="#DejaVuSans-61"/>
     </g>
    </g>
    <g id="line2d_22">
     <path d="M 66.6 69.248562 
L 86.6 69.248562 
" style="fill:none;stroke:#ff0000;stroke-linecap:square;stroke-opacity:0.9;stroke-width:2;"/>
    </g>
    <g id="line2d_23"/>
    <g id="text_18">
     <!-- mattress -->
     <g transform="translate(94.6 72.748562)scale(0.1 -0.1)">
      <defs>
       <path d="M 3328 2828 
Q 3544 3216 3844 3400 
Q 4144 3584 4550 3584 
Q 5097 3584 5394 3201 
Q 5691 2819 5691 2113 
L 5691 0 
L 5113 0 
L 5113 2094 
Q 5113 2597 4934 2840 
Q 4756 3084 4391 3084 
Q 3944 3084 3684 2787 
Q 3425 2491 3425 1978 
L 3425 0 
L 2847 0 
L 2847 2094 
Q 2847 2600 2669 2842 
Q 2491 3084 2119 3084 
Q 1678 3084 1418 2786 
Q 1159 2488 1159 1978 
L 1159 0 
L 581 0 
L 581 3500 
L 1159 3500 
L 1159 2956 
Q 1356 3278 1631 3431 
Q 1906 3584 2284 3584 
Q 2666 3584 2933 3390 
Q 3200 3197 3328 2828 
z
" id="DejaVuSans-6d" transform="scale(0.015625)"/>
       <path d="M 2834 3397 
L 2834 2853 
Q 2591 2978 2328 3040 
Q 2066 3103 1784 3103 
Q 1356 3103 1142 2972 
Q 928 2841 928 2578 
Q 928 2378 1081 2264 
Q 1234 2150 1697 2047 
L 1894 2003 
Q 2506 1872 2764 1633 
Q 3022 1394 3022 966 
Q 3022 478 2636 193 
Q 2250 -91 1575 -91 
Q 1294 -91 989 -36 
Q 684 19 347 128 
L 347 722 
Q 666 556 975 473 
Q 1284 391 1588 391 
Q 1994 391 2212 530 
Q 2431 669 2431 922 
Q 2431 1156 2273 1281 
Q 2116 1406 1581 1522 
L 1381 1569 
Q 847 1681 609 1914 
Q 372 2147 372 2553 
Q 372 3047 722 3315 
Q 1072 3584 1716 3584 
Q 2034 3584 2315 3537 
Q 2597 3491 2834 3397 
z
" id="DejaVuSans-73" transform="scale(0.015625)"/>
      </defs>
      <use xlink:href="#DejaVuSans-6d"/>
      <use x="97.412109" xlink:href="#DejaVuSans-61"/>
      <use x="158.691406" xlink:href="#DejaVuSans-74"/>
      <use x="197.900391" xlink:href="#DejaVuSans-74"/>
      <use x="237.109375" xlink:href="#DejaVuSans-72"/>
      <use x="275.972656" xlink:href="#DejaVuSans-65"/>
      <use x="337.496094" xlink:href="#DejaVuSans-73"/>
      <use x="389.595703" xlink:href="#DejaVuSans-73"/>
     </g>
    </g>
    <g id="line2d_24">
     <path d="M 66.6 83.926687 
L 86.6 83.926687 
" style="fill:none;stroke:#ff8040;stroke-linecap:square;stroke-opacity:0.9;stroke-width:2;"/>
    </g>
    <g id="line2d_25"/>
    <g id="text_19">
     <!-- trader-0850 -->
     <g transform="translate(94.6 87.426687)scale(0.1 -0.1)">
      <use xlink:href="#DejaVuSans-74"/>
      <use x="39.208984" xlink:href="#DejaVuSans-72"/>
      <use x="80.322266" xlink:href="#DejaVuSans-61"/>
      <use x="141.601562" xlink:href="#DejaVuSans-64"/>
      <use x="205.078125" xlink:href="#DejaVuSans-65"/>
      <use x="266.601562" xlink:href="#DejaVuSans-72"/>
      <use x="301.339844" xlink:href="#DejaVuSans-2d"/>
      <use x="337.423828" xlink:href="#DejaVuSans-30"/>
      <use x="401.046875" xlink:href="#DejaVuSans-38"/>
      <use x="464.669922" xlink:href="#DejaVuSans-35"/>
      <use x="528.292969" xlink:href="#DejaVuSans-30"/>
     </g>
    </g>
    <g id="line2d_26">
     <path d="M 66.6 98.604812 
L 86.6 98.604812 
" style="fill:none;stroke:#0d0d0d;stroke-linecap:square;stroke-opacity:0.25;stroke-width:2;"/>
    </g>
    <g id="line2d_27"/>
    <g id="text_20">
     <!-- rando-min -->
     <g transform="translate(94.6 102.104812)scale(0.1 -0.1)">
      <defs>
       <path d="M 3513 2113 
L 3513 0 
L 2938 0 
L 2938 2094 
Q 2938 2591 2744 2837 
Q 2550 3084 2163 3084 
Q 1697 3084 1428 2787 
Q 1159 2491 1159 1978 
L 1159 0 
L 581 0 
L 581 3500 
L 1159 3500 
L 1159 2956 
Q 1366 3272 1645 3428 
Q 1925 3584 2291 3584 
Q 2894 3584 3203 3211 
Q 3513 2838 3513 2113 
z
" id="DejaVuSans-6e" transform="scale(0.015625)"/>
      </defs>
      <use xlink:href="#DejaVuSans-72"/>
      <use x="41.113281" xlink:href="#DejaVuSans-61"/>
      <use x="102.392578" xlink:href="#DejaVuSans-6e"/>
      <use x="165.771484" xlink:href="#DejaVuSans-64"/>
      <use x="229.248047" xlink:href="#DejaVuSans-6f"/>
      <use x="292.304688" xlink:href="#DejaVuSans-2d"/>
      <use x="328.388672" xlink:href="#DejaVuSans-6d"/>
      <use x="425.800781" xlink:href="#DejaVuSans-69"/>
      <use x="453.583984" xlink:href="#DejaVuSans-6e"/>
     </g>
    </g>
    <g id="line2d_28">
     <path d="M 66.6 113.282937 
L 86.6 113.282937 
" style="fill:none;stroke:#0d0d0d;stroke-linecap:square;stroke-opacity:0.25;stroke-width:2;"/>
    </g>
    <g id="line2d_29"/>
    <g id="text_21">
     <!-- rando-max -->
     <g transform="translate(94.6 116.782937)scale(0.1 -0.1)">
      <defs>
       <path d="M 3513 3500 
L 2247 1797 
L 3578 0 
L 2900 0 
L 1881 1375 
L 863 0 
L 184 0 
L 1544 1831 
L 300 3500 
L 978 3500 
L 1906 2253 
L 2834 3500 
L 3513 3500 
z
" id="DejaVuSans-78" transform="scale(0.015625)"/>
      </defs>
      <use xlink:href="#DejaVuSans-72"/>
      <use x="41.113281" xlink:href="#DejaVuSans-61"/>
      <use x="102.392578" xlink:href="#DejaVuSans-6e"/>
      <use x="165.771484" xlink:href="#DejaVuSans-64"/>
      <use x="229.248047" xlink:href="#DejaVuSans-6f"/>
      <use x="292.304688" xlink:href="#DejaVuSans-2d"/>
      <use x="328.388672" xlink:href="#DejaVuSans-6d"/>
      <use x="425.800781" xlink:href="#DejaVuSans-61"/>
      <use x="487.080078" xlink:href="#DejaVuSans-78"/>
     </g>
    </g>
   </g>
  </g>
 </g>
 <defs>
  <clipPath id="p907ed9bea6">
   <rect height="235.008" width="357.12" x="57.6" y="41.472"/>
  </clipPath>
 </defs>
</svg>
