<?xml version="1.0" encoding="utf-8" standalone="no"?>
<!DOCTYPE svg PUBLIC "-//W3C//DTD SVG 1.1//EN"
  "http://www.w3.org/Graphics/SVG/1.1/DTD/svg11.dtd">
<svg height="345.6pt" version="1.1" viewBox="0 0 460.8 345.6" width="460.8pt" xmlns="http://www.w3.org/2000/svg" xmlns:xlink="http://www.w3.org/1999/xlink">
 <metadata>
  <rdf:RDF xmlns:cc="http://creativecommons.org/ns#" xmlns:dc="http://purl.org/dc/elements/1.1/" xmlns:rdf="http://www.w3.org/1999/02/22-rdf-syntax-ns#">
   <cc:Work>
    <dc:type rdf:resource="http://purl.org/dc/dcmitype/StillImage"/>
    <dc:date>2022-05-26T10:01:54.031882</dc:date>
    <dc:format>image/svg+xml</dc:format>
    <dc:creator>
     <cc:Agent>
      <dc:title>Matplotlib v3.4.3, https://matplotlib.org/</dc:title>
     </cc:Agent>
    </dc:creator>
   </cc:Work>
  </rdf:RDF>
 </metadata>
 <defs>
  <style type="text/css">*{stroke-linecap:butt;stroke-linejoin:round;}</style>
 </defs>
 <g id="figure_1">
  <g id="patch_1">
   <path d="M 0 345.6 
L 460.8 345.6 
L 460.8 0 
L 0 0 
z
" style="fill:#ffffff;"/>
  </g>
  <g id="axes_1">
   <g id="patch_2">
    <path d="M 57.6 276.48 
L 414.72 276.48 
L 414.72 41.472 
L 57.6 41.472 
z
" style="fill:#ffffff;"/>
   </g>
   <g id="matplotlib.axis_1">
    <g id="xtick_1">
     <g id="line2d_1">
      <defs>
       <path d="M 0 0 
L 0 3.5 
" id="mab44d436d4" style="stroke:#000000;stroke-width:0.8;"/>
      </defs>
      <g>
       <use style="stroke:#000000;stroke-width:0.8;" x="96.282244" xlink:href="#mab44d436d4" y="276.48"/>
      </g>
     </g>
     <g id="text_1">
      <!-- 2021-12 -->
      <g transform="translate(59.057423 310.951846)rotate(-30)scale(0.1 -0.1)">
       <defs>
        <path d="M 1228 531 
L 3431 531 
L 3431 0 
L 469 0 
L 469 531 
Q 828 903 1448 1529 
Q 2069 2156 2228 2338 
Q 2531 2678 2651 2914 
Q 2772 3150 2772 3378 
Q 2772 3750 2511 3984 
Q 2250 4219 1831 4219 
Q 1534 4219 1204 4116 
Q 875 4013 500 3803 
L 500 4441 
Q 881 4594 1212 4672 
Q 1544 4750 1819 4750 
Q 2544 4750 2975 4387 
Q 3406 4025 3406 3419 
Q 3406 3131 3298 2873 
Q 3191 2616 2906 2266 
Q 2828 2175 2409 1742 
Q 1991 1309 1228 531 
z
" id="DejaVuSans-32" transform="scale(0.015625)"/>
        <path d="M 2034 4250 
Q 1547 4250 1301 3770 
Q 1056 3291 1056 2328 
Q 1056 1369 1301 889 
Q 1547 409 2034 409 
Q 2525 409 2770 889 
Q 3016 1369 3016 2328 
Q 3016 3291 2770 3770 
Q 2525 4250 2034 4250 
z
M 2034 4750 
Q 2819 4750 3233 4129 
Q 3647 3509 3647 2328 
Q 3647 1150 3233 529 
Q 2819 -91 2034 -91 
Q 1250 -91 836 529 
Q 422 1150 422 2328 
Q 422 3509 836 4129 
Q 1250 4750 2034 4750 
z
" id="DejaVuSans-30" transform="scale(0.015625)"/>
        <path d="M 794 531 
L 1825 531 
L 1825 4091 
L 703 3866 
L 703 4441 
L 1819 4666 
L 2450 4666 
L 2450 531 
L 3481 531 
L 3481 0 
L 794 0 
L 794 531 
z
" id="DejaVuSans-31" transform="scale(0.015625)"/>
        <path d="M 313 2009 
L 1997 2009 
L 1997 1497 
L 313 1497 
L 313 2009 
z
" id="DejaVuSans-2d" transform="scale(0.015625)"/>
       </defs>
       <use xlink:href="#DejaVuSans-32"/>
       <use x="63.623047" xlink:href="#DejaVuSans-30"/>
       <use x="127.246094" xlink:href="#DejaVuSans-32"/>
       <use x="190.869141" xlink:href="#DejaVuSans-31"/>
       <use x="254.492188" xlink:href="#DejaVuSans-2d"/>
       <use x="290.576172" xlink:href="#DejaVuSans-31"/>
       <use x="354.199219" xlink:href="#DejaVuSans-32"/>
      </g>
     </g>
    </g>
    <g id="xtick_2">
     <g id="line2d_2">
      <g>
       <use style="stroke:#000000;stroke-width:0.8;" x="149.815706" xlink:href="#mab44d436d4" y="276.48"/>
      </g>
     </g>
     <g id="text_2">
      <!-- 2022-01 -->
      <g transform="translate(112.590885 310.951846)rotate(-30)scale(0.1 -0.1)">
       <use xlink:href="#DejaVuSans-32"/>
       <use x="63.623047" xlink:href="#DejaVuSans-30"/>
       <use x="127.246094" xlink:href="#DejaVuSans-32"/>
       <use x="190.869141" xlink:href="#DejaVuSans-32"/>
       <use x="254.492188" xlink:href="#DejaVuSans-2d"/>
       <use x="290.576172" xlink:href="#DejaVuSans-30"/>
       <use x="354.199219" xlink:href="#DejaVuSans-31"/>
      </g>
     </g>
    </g>
    <g id="xtick_3">
     <g id="line2d_3">
      <g>
       <use style="stroke:#000000;stroke-width:0.8;" x="203.349168" xlink:href="#mab44d436d4" y="276.48"/>
      </g>
     </g>
     <g id="text_3">
      <!-- 2022-02 -->
      <g transform="translate(166.124347 310.951846)rotate(-30)scale(0.1 -0.1)">
       <use xlink:href="#DejaVuSans-32"/>
       <use x="63.623047" xlink:href="#DejaVuSans-30"/>
       <use x="127.246094" xlink:href="#DejaVuSans-32"/>
       <use x="190.869141" xlink:href="#DejaVuSans-32"/>
       <use x="254.492188" xlink:href="#DejaVuSans-2d"/>
       <use x="290.576172" xlink:href="#DejaVuSans-30"/>
       <use x="354.199219" xlink:href="#DejaVuSans-32"/>
      </g>
     </g>
    </g>
    <g id="xtick_4">
     <g id="line2d_4">
      <g>
       <use style="stroke:#000000;stroke-width:0.8;" x="251.701973" xlink:href="#mab44d436d4" y="276.48"/>
      </g>
     </g>
     <g id="text_4">
      <!-- 2022-03 -->
      <g transform="translate(214.477152 310.951846)rotate(-30)scale(0.1 -0.1)">
       <defs>
        <path d="M 2597 2516 
Q 3050 2419 3304 2112 
Q 3559 1806 3559 1356 
Q 3559 666 3084 287 
Q 2609 -91 1734 -91 
Q 1441 -91 1130 -33 
Q 819 25 488 141 
L 488 750 
Q 750 597 1062 519 
Q 1375 441 1716 441 
Q 2309 441 2620 675 
Q 2931 909 2931 1356 
Q 2931 1769 2642 2001 
Q 2353 2234 1838 2234 
L 1294 2234 
L 1294 2753 
L 1863 2753 
Q 2328 2753 2575 2939 
Q 2822 3125 2822 3475 
Q 2822 3834 2567 4026 
Q 2313 4219 1838 4219 
Q 1578 4219 1281 4162 
Q 984 4106 628 3988 
L 628 4550 
Q 988 4650 1302 4700 
Q 1616 4750 1894 4750 
Q 2613 4750 3031 4423 
Q 3450 4097 3450 3541 
Q 3450 3153 3228 2886 
Q 3006 2619 2597 2516 
z
" id="DejaVuSans-33" transform="scale(0.015625)"/>
       </defs>
       <use xlink:href="#DejaVuSans-32"/>
       <use x="63.623047" xlink:href="#DejaVuSans-30"/>
       <use x="127.246094" xlink:href="#DejaVuSans-32"/>
       <use x="190.869141" xlink:href="#DejaVuSans-32"/>
       <use x="254.492188" xlink:href="#DejaVuSans-2d"/>
       <use x="290.576172" xlink:href="#DejaVuSans-30"/>
       <use x="354.199219" xlink:href="#DejaVuSans-33"/>
      </g>
     </g>
    </g>
    <g id="xtick_5">
     <g id="line2d_5">
      <g>
       <use style="stroke:#000000;stroke-width:0.8;" x="305.235435" xlink:href="#mab44d436d4" y="276.48"/>
      </g>
     </g>
     <g id="text_5">
      <!-- 2022-04 -->
      <g transform="translate(268.010614 310.951846)rotate(-30)scale(0.1 -0.1)">
       <defs>
        <path d="M 2419 4116 
L 825 1625 
L 2419 1625 
L 2419 4116 
z
M 2253 4666 
L 3047 4666 
L 3047 1625 
L 3713 1625 
L 3713 1100 
L 3047 1100 
L 3047 0 
L 2419 0 
L 2419 1100 
L 313 1100 
L 313 1709 
L 2253 4666 
z
" id="DejaVuSans-34" transform="scale(0.015625)"/>
       </defs>
       <use xlink:href="#DejaVuSans-32"/>
       <use x="63.623047" xlink:href="#DejaVuSans-30"/>
       <use x="127.246094" xlink:href="#DejaVuSans-32"/>
       <use x="190.869141" xlink:href="#DejaVuSans-32"/>
       <use x="254.492188" xlink:href="#DejaVuSans-2d"/>
       <use x="290.576172" xlink:href="#DejaVuSans-30"/>
       <use x="354.199219" xlink:href="#DejaVuSans-34"/>
      </g>
     </g>
    </g>
    <g id="xtick_6">
     <g id="line2d_6">
      <g>
       <use style="stroke:#000000;stroke-width:0.8;" x="357.042012" xlink:href="#mab44d436d4" y="276.48"/>
      </g>
     </g>
     <g id="text_6">
      <!-- 2022-05 -->
      <g transform="translate(319.817191 310.951846)rotate(-30)scale(0.1 -0.1)">
       <defs>
        <path d="M 691 4666 
L 3169 4666 
L 3169 4134 
L 1269 4134 
L 1269 2991 
Q 1406 3038 1543 3061 
Q 1681 3084 1819 3084 
Q 2600 3084 3056 2656 
Q 3513 2228 3513 1497 
Q 3513 744 3044 326 
Q 2575 -91 1722 -91 
Q 1428 -91 1123 -41 
Q 819 9 494 109 
L 494 744 
Q 775 591 1075 516 
Q 1375 441 1709 441 
Q 2250 441 2565 725 
Q 2881 1009 2881 1497 
Q 2881 1984 2565 2268 
Q 2250 2553 1709 2553 
Q 1456 2553 1204 2497 
Q 953 2441 691 2322 
L 691 4666 
z
" id="DejaVuSans-35" transform="scale(0.015625)"/>
       </defs>
       <use xlink:href="#DejaVuSans-32"/>
       <use x="63.623047" xlink:href="#DejaVuSans-30"/>
       <use x="127.246094" xlink:href="#DejaVuSans-32"/>
       <use x="190.869141" xlink:href="#DejaVuSans-32"/>
       <use x="254.492188" xlink:href="#DejaVuSans-2d"/>
       <use x="290.576172" xlink:href="#DejaVuSans-30"/>
       <use x="354.199219" xlink:href="#DejaVuSans-35"/>
      </g>
     </g>
    </g>
    <g id="xtick_7">
     <g id="line2d_7">
      <g>
       <use style="stroke:#000000;stroke-width:0.8;" x="410.575474" xlink:href="#mab44d436d4" y="276.48"/>
      </g>
     </g>
     <g id="text_7">
      <!-- 2022-06 -->
      <g transform="translate(373.350653 310.951846)rotate(-30)scale(0.1 -0.1)">
       <defs>
        <path d="M 2113 2584 
Q 1688 2584 1439 2293 
Q 1191 2003 1191 1497 
Q 1191 994 1439 701 
Q 1688 409 2113 409 
Q 2538 409 2786 701 
Q 3034 994 3034 1497 
Q 3034 2003 2786 2293 
Q 2538 2584 2113 2584 
z
M 3366 4563 
L 3366 3988 
Q 3128 4100 2886 4159 
Q 2644 4219 2406 4219 
Q 1781 4219 1451 3797 
Q 1122 3375 1075 2522 
Q 1259 2794 1537 2939 
Q 1816 3084 2150 3084 
Q 2853 3084 3261 2657 
Q 3669 2231 3669 1497 
Q 3669 778 3244 343 
Q 2819 -91 2113 -91 
Q 1303 -91 875 529 
Q 447 1150 447 2328 
Q 447 3434 972 4092 
Q 1497 4750 2381 4750 
Q 2619 4750 2861 4703 
Q 3103 4656 3366 4563 
z
" id="DejaVuSans-36" transform="scale(0.015625)"/>
       </defs>
       <use xlink:href="#DejaVuSans-32"/>
       <use x="63.623047" xlink:href="#DejaVuSans-30"/>
       <use x="127.246094" xlink:href="#DejaVuSans-32"/>
       <use x="190.869141" xlink:href="#DejaVuSans-32"/>
       <use x="254.492188" xlink:href="#DejaVuSans-2d"/>
       <use x="290.576172" xlink:href="#DejaVuSans-30"/>
       <use x="354.199219" xlink:href="#DejaVuSans-36"/>
      </g>
     </g>
    </g>
    <g id="text_8">
     <!-- date -->
     <g transform="translate(224.885 324.351346)scale(0.1 -0.1)">
      <defs>
       <path d="M 2906 2969 
L 2906 4863 
L 3481 4863 
L 3481 0 
L 2906 0 
L 2906 525 
Q 2725 213 2448 61 
Q 2172 -91 1784 -91 
Q 1150 -91 751 415 
Q 353 922 353 1747 
Q 353 2572 751 3078 
Q 1150 3584 1784 3584 
Q 2172 3584 2448 3432 
Q 2725 3281 2906 2969 
z
M 947 1747 
Q 947 1113 1208 752 
Q 1469 391 1925 391 
Q 2381 391 2643 752 
Q 2906 1113 2906 1747 
Q 2906 2381 2643 2742 
Q 2381 3103 1925 3103 
Q 1469 3103 1208 2742 
Q 947 2381 947 1747 
z
" id="DejaVuSans-64" transform="scale(0.015625)"/>
       <path d="M 2194 1759 
Q 1497 1759 1228 1600 
Q 959 1441 959 1056 
Q 959 750 1161 570 
Q 1363 391 1709 391 
Q 2188 391 2477 730 
Q 2766 1069 2766 1631 
L 2766 1759 
L 2194 1759 
z
M 3341 1997 
L 3341 0 
L 2766 0 
L 2766 531 
Q 2569 213 2275 61 
Q 1981 -91 1556 -91 
Q 1019 -91 701 211 
Q 384 513 384 1019 
Q 384 1609 779 1909 
Q 1175 2209 1959 2209 
L 2766 2209 
L 2766 2266 
Q 2766 2663 2505 2880 
Q 2244 3097 1772 3097 
Q 1472 3097 1187 3025 
Q 903 2953 641 2809 
L 641 3341 
Q 956 3463 1253 3523 
Q 1550 3584 1831 3584 
Q 2591 3584 2966 3190 
Q 3341 2797 3341 1997 
z
" id="DejaVuSans-61" transform="scale(0.015625)"/>
       <path d="M 1172 4494 
L 1172 3500 
L 2356 3500 
L 2356 3053 
L 1172 3053 
L 1172 1153 
Q 1172 725 1289 603 
Q 1406 481 1766 481 
L 2356 481 
L 2356 0 
L 1766 0 
Q 1100 0 847 248 
Q 594 497 594 1153 
L 594 3053 
L 172 3053 
L 172 3500 
L 594 3500 
L 594 4494 
L 1172 4494 
z
" id="DejaVuSans-74" transform="scale(0.015625)"/>
       <path d="M 3597 1894 
L 3597 1613 
L 953 1613 
Q 991 1019 1311 708 
Q 1631 397 2203 397 
Q 2534 397 2845 478 
Q 3156 559 3463 722 
L 3463 178 
Q 3153 47 2828 -22 
Q 2503 -91 2169 -91 
Q 1331 -91 842 396 
Q 353 884 353 1716 
Q 353 2575 817 3079 
Q 1281 3584 2069 3584 
Q 2775 3584 3186 3129 
Q 3597 2675 3597 1894 
z
M 3022 2063 
Q 3016 2534 2758 2815 
Q 2500 3097 2075 3097 
Q 1594 3097 1305 2825 
Q 1016 2553 972 2059 
L 3022 2063 
z
" id="DejaVuSans-65" transform="scale(0.015625)"/>
      </defs>
      <use xlink:href="#DejaVuSans-64"/>
      <use x="63.476562" xlink:href="#DejaVuSans-61"/>
      <use x="124.755859" xlink:href="#DejaVuSans-74"/>
      <use x="163.964844" xlink:href="#DejaVuSans-65"/>
     </g>
    </g>
   </g>
   <g id="matplotlib.axis_2">
    <g id="ytick_1">
     <g id="line2d_8">
      <defs>
       <path d="M 0 0 
L -3.5 0 
" id="m4a7bb6c310" style="stroke:#000000;stroke-width:0.8;"/>
      </defs>
      <g>
       <use style="stroke:#000000;stroke-width:0.8;" x="57.6" xlink:href="#m4a7bb6c310" y="259.012758"/>
      </g>
     </g>
     <g id="text_9">
      <!-- 85000 -->
      <g transform="translate(18.7875 262.811976)scale(0.1 -0.1)">
       <defs>
        <path d="M 2034 2216 
Q 1584 2216 1326 1975 
Q 1069 1734 1069 1313 
Q 1069 891 1326 650 
Q 1584 409 2034 409 
Q 2484 409 2743 651 
Q 3003 894 3003 1313 
Q 3003 1734 2745 1975 
Q 2488 2216 2034 2216 
z
M 1403 2484 
Q 997 2584 770 2862 
Q 544 3141 544 3541 
Q 544 4100 942 4425 
Q 1341 4750 2034 4750 
Q 2731 4750 3128 4425 
Q 3525 4100 3525 3541 
Q 3525 3141 3298 2862 
Q 3072 2584 2669 2484 
Q 3125 2378 3379 2068 
Q 3634 1759 3634 1313 
Q 3634 634 3220 271 
Q 2806 -91 2034 -91 
Q 1263 -91 848 271 
Q 434 634 434 1313 
Q 434 1759 690 2068 
Q 947 2378 1403 2484 
z
M 1172 3481 
Q 1172 3119 1398 2916 
Q 1625 2713 2034 2713 
Q 2441 2713 2670 2916 
Q 2900 3119 2900 3481 
Q 2900 3844 2670 4047 
Q 2441 4250 2034 4250 
Q 1625 4250 1398 4047 
Q 1172 3844 1172 3481 
z
" id="DejaVuSans-38" transform="scale(0.015625)"/>
       </defs>
       <use xlink:href="#DejaVuSans-38"/>
       <use x="63.623047" xlink:href="#DejaVuSans-35"/>
       <use x="127.246094" xlink:href="#DejaVuSans-30"/>
       <use x="190.869141" xlink:href="#DejaVuSans-30"/>
       <use x="254.492188" xlink:href="#DejaVuSans-30"/>
      </g>
     </g>
    </g>
    <g id="ytick_2">
     <g id="line2d_9">
      <g>
       <use style="stroke:#000000;stroke-width:0.8;" x="57.6" xlink:href="#m4a7bb6c310" y="212.914125"/>
      </g>
     </g>
     <g id="text_10">
      <!-- 90000 -->
      <g transform="translate(18.7875 216.713344)scale(0.1 -0.1)">
       <defs>
        <path d="M 703 97 
L 703 672 
Q 941 559 1184 500 
Q 1428 441 1663 441 
Q 2288 441 2617 861 
Q 2947 1281 2994 2138 
Q 2813 1869 2534 1725 
Q 2256 1581 1919 1581 
Q 1219 1581 811 2004 
Q 403 2428 403 3163 
Q 403 3881 828 4315 
Q 1253 4750 1959 4750 
Q 2769 4750 3195 4129 
Q 3622 3509 3622 2328 
Q 3622 1225 3098 567 
Q 2575 -91 1691 -91 
Q 1453 -91 1209 -44 
Q 966 3 703 97 
z
M 1959 2075 
Q 2384 2075 2632 2365 
Q 2881 2656 2881 3163 
Q 2881 3666 2632 3958 
Q 2384 4250 1959 4250 
Q 1534 4250 1286 3958 
Q 1038 3666 1038 3163 
Q 1038 2656 1286 2365 
Q 1534 2075 1959 2075 
z
" id="DejaVuSans-39" transform="scale(0.015625)"/>
       </defs>
       <use xlink:href="#DejaVuSans-39"/>
       <use x="63.623047" xlink:href="#DejaVuSans-30"/>
       <use x="127.246094" xlink:href="#DejaVuSans-30"/>
       <use x="190.869141" xlink:href="#DejaVuSans-30"/>
       <use x="254.492188" xlink:href="#DejaVuSans-30"/>
      </g>
     </g>
    </g>
    <g id="ytick_3">
     <g id="line2d_10">
      <g>
       <use style="stroke:#000000;stroke-width:0.8;" x="57.6" xlink:href="#m4a7bb6c310" y="166.815493"/>
      </g>
     </g>
     <g id="text_11">
      <!-- 95000 -->
      <g transform="translate(18.7875 170.614712)scale(0.1 -0.1)">
       <use xlink:href="#DejaVuSans-39"/>
       <use x="63.623047" xlink:href="#DejaVuSans-35"/>
       <use x="127.246094" xlink:href="#DejaVuSans-30"/>
       <use x="190.869141" xlink:href="#DejaVuSans-30"/>
       <use x="254.492188" xlink:href="#DejaVuSans-30"/>
      </g>
     </g>
    </g>
    <g id="ytick_4">
     <g id="line2d_11">
      <g>
       <use style="stroke:#000000;stroke-width:0.8;" x="57.6" xlink:href="#m4a7bb6c310" y="120.716861"/>
      </g>
     </g>
     <g id="text_12">
      <!-- 100000 -->
      <g transform="translate(12.425 124.51608)scale(0.1 -0.1)">
       <use xlink:href="#DejaVuSans-31"/>
       <use x="63.623047" xlink:href="#DejaVuSans-30"/>
       <use x="127.246094" xlink:href="#DejaVuSans-30"/>
       <use x="190.869141" xlink:href="#DejaVuSans-30"/>
       <use x="254.492188" xlink:href="#DejaVuSans-30"/>
       <use x="318.115234" xlink:href="#DejaVuSans-30"/>
      </g>
     </g>
    </g>
    <g id="ytick_5">
     <g id="line2d_12">
      <g>
       <use style="stroke:#000000;stroke-width:0.8;" x="57.6" xlink:href="#m4a7bb6c310" y="74.618229"/>
      </g>
     </g>
     <g id="text_13">
      <!-- 105000 -->
      <g transform="translate(12.425 78.417448)scale(0.1 -0.1)">
       <use xlink:href="#DejaVuSans-31"/>
       <use x="63.623047" xlink:href="#DejaVuSans-30"/>
       <use x="127.246094" xlink:href="#DejaVuSans-35"/>
       <use x="190.869141" xlink:href="#DejaVuSans-30"/>
       <use x="254.492188" xlink:href="#DejaVuSans-30"/>
       <use x="318.115234" xlink:href="#DejaVuSans-30"/>
      </g>
     </g>
    </g>
   </g>
   <g id="line2d_13">
    <path clip-path="url(#p81053d2957)" d="M 73.832727 123.405511 
L 75.559613 126.509941 
L 80.740271 122.184394 
L 82.467157 114.355832 
L 84.194043 113.211398 
L 87.647814 113.770972 
L 92.828472 126.846848 
L 94.555358 145.373555 
L 96.282244 156.412054 
L 98.00913 144.635507 
L 99.736015 151.255166 
L 104.916673 137.500342 
L 106.643559 122.001738 
L 108.370445 116.302237 
L 110.097331 116.320106 
L 111.824217 110.720698 
L 117.004874 120.241985 
L 118.73176 119.239739 
L 120.458646 111.957584 
L 122.185532 112.243501 
L 123.912418 123.033001 
L 129.093075 133.891609 
L 130.819961 115.86109 
L 132.546847 111.29576 
L 134.273733 102.685408 
L 141.181277 89.954978 
L 142.908162 90.792019 
L 144.635048 90.294834 
L 146.361934 91.709074 
L 148.08882 95.587159 
L 153.269478 85.335834 
L 154.996364 75.751016 
L 156.72325 96.874923 
L 158.450135 92.655833 
L 160.177021 88.878137 
L 165.357679 89.113095 
L 167.084565 83.471272 
L 168.811451 83.708017 
L 170.538337 90.502562 
L 172.265222 90.981208 
L 179.172766 111.695934 
L 182.626538 129.344594 
L 184.353424 148.800184 
L 189.534081 149.212817 
L 191.260967 147.714932 
L 192.987853 149.273052 
L 194.714739 156.556201 
L 196.441625 135.764162 
L 201.622282 120.696481 
L 203.349168 109.365963 
L 205.076054 94.417435 
L 206.80294 141.126491 
L 208.529826 135.196255 
L 213.710484 143.655319 
L 215.437369 140.049748 
L 217.164255 128.590421 
L 218.891141 144.192665 
L 220.618027 163.661627 
L 225.798685 171.621115 
L 227.525571 161.309488 
L 229.252456 163.751391 
L 230.979342 182.669317 
L 232.706228 186.866374 
L 239.613772 194.956931 
L 241.340658 207.084029 
L 243.067544 198.49172 
L 244.794429 179.215662 
L 249.975087 187.191475 
L 251.701973 204.442354 
L 253.428859 184.599119 
L 255.155745 187.37212 
L 256.882631 199.141402 
L 262.063288 230.365819 
L 263.790174 233.227326 
L 265.51706 202.988313 
L 268.970832 223.680688 
L 274.151489 225.608027 
L 275.878375 210.875807 
L 277.605261 189.184717 
L 279.332147 180.608263 
L 281.059033 170.12947 
L 286.239691 171.320888 
L 287.966576 156.692466 
L 289.693462 165.271999 
L 291.420348 151.537642 
L 293.147234 142.377632 
L 298.327892 139.932133 
L 300.054778 134.253085 
L 301.781663 136.293452 
L 303.508549 153.634225 
L 305.235435 149.560466 
L 310.416093 141.622285 
L 312.142979 150.277604 
L 313.869865 162.471471 
L 315.59675 163.099297 
L 317.323636 163.036365 
L 322.504294 176.452425 
L 324.23118 181.922838 
L 325.958066 178.622672 
L 327.684952 192.057427 
L 334.592495 187.015349 
L 336.319381 173.528608 
L 338.046267 173.509841 
L 339.773153 187.896262 
L 341.500039 212.751595 
L 346.680696 208.957594 
L 348.407582 223.813217 
L 350.134468 228.736597 
L 351.861354 192.62866 
L 353.58824 218.550801 
L 358.768897 210.406293 
L 360.495783 203.370649 
L 362.222669 167.390373 
L 363.949555 200.496649 
L 365.676441 200.029748 
L 370.857099 223.786066 
L 372.583985 229.674044 
L 374.31087 240.881123 
L 376.037756 244.282267 
L 377.764642 229.69049 
L 382.9453 231.961564 
L 384.672186 216.352182 
L 386.399072 248.028153 
L 388.125957 258.605492 
L 389.852843 264.608523 
L 395.033501 243.242564 
L 396.760387 258.736488 
L 398.487273 246.269521 
L 398.487273 246.269521 
" style="fill:none;stroke:#0000ff;stroke-linecap:square;stroke-opacity:0.9;stroke-width:2;"/>
   </g>
   <g id="line2d_14">
    <path clip-path="url(#p81053d2957)" d="M 73.832727 123.405511 
L 75.559613 126.076344 
L 80.740271 122.451128 
L 82.467157 113.885202 
L 84.194043 113.748541 
L 87.647814 136.62738 
L 92.828472 126.775622 
L 94.555358 146.076698 
L 96.282244 156.702875 
L 98.00913 144.711992 
L 99.736015 151.956983 
L 104.916673 137.980216 
L 106.643559 122.589528 
L 108.370445 116.677714 
L 110.097331 116.709536 
L 111.824217 111.091676 
L 117.004874 120.310831 
L 118.73176 119.933104 
L 120.458646 112.323215 
L 122.185532 111.642014 
L 123.912418 123.297078 
L 129.093075 133.386718 
L 130.819961 116.203389 
L 132.546847 111.371102 
L 134.273733 102.955988 
L 141.181277 91.197423 
L 142.908162 91.368246 
L 144.635048 90.070488 
L 146.361934 91.987401 
L 148.08882 95.782338 
L 153.269478 85.677558 
L 154.996364 75.971776 
L 156.72325 96.96317 
L 158.450135 93.622386 
L 160.177021 89.120143 
L 165.357679 89.834392 
L 167.084565 84.204449 
L 168.811451 83.921332 
L 170.538337 90.871705 
L 172.265222 91.259013 
L 179.172766 111.779444 
L 180.899652 121.235414 
L 182.626538 129.688848 
L 184.353424 148.629617 
L 189.534081 149.687885 
L 191.260967 146.775985 
L 192.987853 148.456642 
L 194.714739 156.739137 
L 196.441625 135.071142 
L 201.622282 121.475675 
L 203.349168 109.680773 
L 205.076054 95.78376 
L 206.80294 139.873006 
L 208.529826 133.060503 
L 213.710484 138.695003 
L 215.437369 133.904255 
L 217.164255 124.870435 
L 218.891141 140.242862 
L 220.618027 158.784265 
L 225.798685 167.649115 
L 227.525571 156.985076 
L 229.252456 159.418294 
L 230.979342 176.828524 
L 232.706228 181.064447 
L 239.613772 188.764842 
L 241.340658 200.711879 
L 243.067544 195.857491 
L 244.794429 175.626039 
L 249.975087 184.593111 
L 251.701973 201.342149 
L 253.428859 181.493412 
L 255.155745 182.748771 
L 256.882631 195.281607 
L 262.063288 224.019855 
L 263.790174 228.0604 
L 265.51706 199.140195 
L 268.970832 219.680588 
L 274.151489 220.22217 
L 275.878375 206.356592 
L 277.605261 186.636954 
L 279.332147 178.370762 
L 281.059033 169.01549 
L 286.239691 169.649894 
L 287.966576 155.530762 
L 289.693462 164.134853 
L 291.420348 149.9958 
L 293.147234 140.166644 
L 298.327892 139.189247 
L 300.054778 134.510643 
L 301.781663 135.972461 
L 303.508549 152.443576 
L 305.235435 148.218752 
L 310.416093 142.145008 
L 312.142979 150.934276 
L 313.869865 162.409503 
L 315.59675 162.686582 
L 317.323636 162.754086 
L 324.23118 180.431881 
L 325.958066 177.184771 
L 327.684952 189.487597 
L 334.592495 184.267766 
L 336.319381 172.334669 
L 338.046267 166.812084 
L 339.773153 178.275194 
L 341.500039 203.269792 
L 346.680696 200.66853 
L 348.407582 215.337226 
L 350.134468 217.608496 
L 351.861354 189.69167 
L 353.58824 215.22017 
L 358.768897 209.801672 
L 360.495783 203.493286 
L 362.222669 168.195378 
L 363.949555 198.007152 
L 365.676441 195.864693 
L 370.857099 220.439011 
L 372.583985 227.887256 
L 374.31087 237.323627 
L 376.037756 241.283931 
L 377.764642 228.13967 
L 382.9453 230.216076 
L 384.672186 213.549017 
L 386.399072 246.29373 
L 388.125957 256.718906 
L 389.852843 264.221688 
L 395.033501 243.421604 
L 396.760387 253.977945 
L 398.487273 252.01982 
L 398.487273 252.01982 
" style="fill:none;stroke:#ff0000;stroke-linecap:square;stroke-opacity:0.9;stroke-width:2;"/>
   </g>
   <g id="line2d_15">
    <path clip-path="url(#p81053d2957)" d="M 73.832727 123.405511 
L 75.559613 125.823615 
L 80.740271 122.619722 
L 82.467157 113.763597 
L 84.194043 113.145593 
L 87.647814 136.267342 
L 92.828472 125.6456 
L 94.555358 145.391664 
L 96.282244 156.157245 
L 98.00913 144.666299 
L 99.736015 150.820316 
L 104.916673 136.976074 
L 106.643559 121.950522 
L 108.370445 116.216435 
L 110.097331 116.805868 
L 111.824217 111.741679 
L 117.004874 120.164565 
L 118.73176 119.736706 
L 120.458646 112.436422 
L 122.185532 110.919048 
L 123.912418 122.488901 
L 129.093075 133.601624 
L 130.819961 116.000094 
L 132.546847 110.900724 
L 134.273733 103.070776 
L 141.181277 90.611293 
L 142.908162 91.177437 
L 144.635048 89.965664 
L 146.361934 91.114049 
L 148.08882 95.105996 
L 153.269478 85.574316 
L 154.996364 75.748893 
L 156.72325 96.784943 
L 158.450135 93.187272 
L 160.177021 88.738239 
L 165.357679 89.301707 
L 167.084565 83.890638 
L 168.811451 83.012075 
L 170.538337 90.389348 
L 172.265222 90.830111 
L 179.172766 111.827835 
L 180.899652 119.442555 
L 182.626538 129.292023 
L 184.353424 147.988793 
L 189.534081 148.79841 
L 191.260967 147.654412 
L 192.987853 149.21361 
L 194.714739 157.078306 
L 196.441625 135.013489 
L 201.622282 120.377411 
L 203.349168 109.529352 
L 205.076054 93.887815 
L 206.80294 140.4816 
L 208.529826 134.056021 
L 213.710484 142.64307 
L 215.437369 139.092542 
L 217.164255 127.325392 
L 218.891141 142.721267 
L 220.618027 162.598919 
L 225.798685 170.652398 
L 227.525571 160.065348 
L 229.252456 162.724625 
L 230.979342 180.888268 
L 232.706228 185.61691 
L 239.613772 193.767206 
L 241.340658 205.669436 
L 243.067544 197.447389 
L 244.794429 178.261073 
L 249.975087 186.118269 
L 251.701973 203.123374 
L 253.428859 183.69091 
L 255.155745 186.661099 
L 256.882631 198.408769 
L 262.063288 229.334886 
L 263.790174 232.136318 
L 265.51706 201.197561 
L 268.970832 223.06086 
L 274.151489 224.403212 
L 275.878375 209.087821 
L 277.605261 187.932418 
L 279.332147 179.28183 
L 281.059033 168.982697 
L 286.239691 170.241491 
L 287.966576 154.83118 
L 289.693462 164.393647 
L 291.420348 150.907942 
L 293.147234 140.790597 
L 298.327892 139.42225 
L 300.054778 133.61837 
L 301.781663 135.246884 
L 303.508549 152.762141 
L 305.235435 148.619845 
L 310.416093 140.029525 
L 312.142979 149.541501 
L 313.869865 161.890574 
L 315.59675 162.177563 
L 317.323636 162.303764 
L 322.504294 176.243257 
L 324.23118 181.264916 
L 325.958066 177.752375 
L 327.684952 191.003785 
L 334.592495 185.865102 
L 336.319381 172.454861 
L 338.046267 172.923259 
L 339.773153 187.162815 
L 341.500039 212.231588 
L 346.680696 208.300377 
L 348.407582 223.492164 
L 350.134468 228.448895 
L 351.861354 193.031935 
L 353.58824 218.389636 
L 358.768897 210.144751 
L 360.495783 204.186321 
L 362.222669 167.308783 
L 363.949555 199.915442 
L 365.676441 199.566293 
L 370.857099 224.443052 
L 372.583985 229.860942 
L 374.31087 240.730482 
L 376.037756 244.216162 
L 377.764642 230.639421 
L 382.9453 232.437308 
L 384.672186 216.796248 
L 386.399072 248.60462 
L 388.125957 259.316598 
L 389.852843 265.309344 
L 395.033501 244.075825 
L 396.760387 259.040792 
L 398.487273 256.972867 
L 398.487273 256.972867 
" style="fill:none;stroke:#008000;stroke-linecap:square;stroke-opacity:0.9;stroke-width:2;"/>
   </g>
   <g id="line2d_16">
    <path clip-path="url(#p81053d2957)" d="M 73.832727 123.405511 
L 75.559613 125.857269 
L 80.740271 122.294245 
L 82.467157 113.659564 
L 84.194043 113.06619 
L 87.647814 136.967691 
L 92.828472 126.12521 
L 94.555358 146.09677 
L 96.282244 157.125296 
L 98.00913 144.779166 
L 99.736015 150.950651 
L 104.916673 137.733129 
L 106.643559 122.041346 
L 108.370445 116.359556 
L 110.097331 116.703641 
L 111.824217 111.250036 
L 117.004874 120.093436 
L 118.73176 119.339121 
L 120.458646 112.69285 
L 122.185532 111.432476 
L 123.912418 122.780523 
L 129.093075 133.385517 
L 130.819961 115.678815 
L 132.546847 110.930818 
L 134.273733 102.533324 
L 141.181277 90.94444 
L 142.908162 90.561249 
L 144.635048 90.72993 
L 146.361934 91.733742 
L 148.08882 95.660286 
L 153.269478 85.799742 
L 154.996364 76.474399 
L 156.72325 97.144722 
L 158.450135 93.551996 
L 160.177021 88.527748 
L 165.357679 89.6843 
L 167.084565 84.323333 
L 168.811451 83.908742 
L 170.538337 91.032189 
L 172.265222 91.490585 
L 179.172766 112.382714 
L 182.626538 129.381516 
L 184.353424 148.463293 
L 189.534081 148.809084 
L 191.260967 148.264991 
L 192.987853 149.545447 
L 194.714739 157.084125 
L 196.441625 135.360795 
L 201.622282 120.447359 
L 203.349168 109.308345 
L 205.076054 94.659137 
L 206.80294 141.87318 
L 208.529826 135.221376 
L 213.710484 143.56514 
L 215.437369 139.989172 
L 217.164255 128.934208 
L 218.891141 144.245034 
L 220.618027 163.463756 
L 225.798685 171.236454 
L 227.525571 160.915295 
L 229.252456 163.756875 
L 230.979342 182.074918 
L 232.706228 187.088614 
L 239.613772 195.032234 
L 241.340658 206.632246 
L 243.067544 198.789374 
L 244.794429 179.494861 
L 249.975087 187.403017 
L 251.701973 204.031332 
L 253.428859 184.425069 
L 255.155745 187.647383 
L 256.882631 198.833961 
L 262.063288 229.857267 
L 263.790174 233.162497 
L 265.51706 202.515721 
L 268.970832 223.946004 
L 274.151489 225.053707 
L 275.878375 210.905462 
L 277.605261 189.075104 
L 281.059033 170.122187 
L 286.239691 171.196159 
L 287.966576 155.958912 
L 289.693462 165.337418 
L 291.420348 151.173115 
L 293.147234 141.730513 
L 298.327892 139.975892 
L 300.054778 134.697899 
L 301.781663 135.727256 
L 303.508549 153.900131 
L 305.235435 148.831347 
L 310.416093 140.925975 
L 312.142979 150.115563 
L 313.869865 162.176179 
L 315.59675 163.378417 
L 317.323636 162.939187 
L 324.23118 182.103767 
L 325.958066 178.665926 
L 327.684952 191.807364 
L 334.592495 186.873971 
L 336.319381 173.765874 
L 338.046267 173.924012 
L 339.773153 187.492409 
L 341.500039 212.640173 
L 346.680696 209.014031 
L 348.407582 224.054979 
L 350.134468 228.637647 
L 351.861354 192.559749 
L 353.58824 218.317225 
L 358.768897 210.937525 
L 360.495783 203.940381 
L 362.222669 168.177583 
L 363.949555 200.43145 
L 365.676441 199.612832 
L 370.857099 224.61349 
L 372.583985 229.929402 
L 374.31087 240.484279 
L 376.037756 244.554839 
L 377.764642 230.36455 
L 382.9453 232.657819 
L 384.672186 216.103323 
L 386.399072 248.919702 
L 388.125957 258.83605 
L 389.852843 264.519532 
L 395.033501 243.494675 
L 396.760387 258.528531 
L 398.487273 256.877317 
L 398.487273 256.877317 
" style="fill:none;stroke:#ec5283;stroke-linecap:square;stroke-width:2;"/>
   </g>
   <g id="line2d_17">
    <path clip-path="url(#p81053d2957)" d="M 73.832727 123.405511 
L 75.559613 126.145438 
L 80.740271 122.191048 
L 82.467157 113.652352 
L 84.194043 113.133012 
L 87.647814 135.958015 
L 92.828472 126.026353 
L 94.555358 145.641286 
L 96.282244 156.562858 
L 98.00913 144.540679 
L 99.736015 150.719334 
L 104.916673 136.933774 
L 106.643559 122.06657 
L 108.370445 116.471732 
L 110.097331 117.038944 
L 111.824217 111.638589 
L 117.004874 120.382892 
L 118.73176 119.121589 
L 120.458646 112.0849 
L 122.185532 111.486006 
L 123.912418 122.570942 
L 129.093075 133.483699 
L 130.819961 115.884941 
L 132.546847 111.110923 
L 134.273733 102.943769 
L 141.181277 90.354762 
L 142.908162 91.167776 
L 144.635048 90.22216 
L 146.361934 91.655915 
L 148.08882 94.984606 
L 153.269478 85.412097 
L 154.996364 76.231245 
L 156.72325 97.536574 
L 158.450135 93.086265 
L 160.177021 88.945989 
L 165.357679 88.883137 
L 167.084565 83.567568 
L 168.811451 82.96281 
L 170.538337 90.906457 
L 172.265222 90.505087 
L 179.172766 111.48848 
L 182.626538 128.4505 
L 184.353424 147.918022 
L 189.534081 148.487008 
L 191.260967 147.852218 
L 192.987853 149.316048 
L 194.714739 156.48407 
L 196.441625 135.168275 
L 201.622282 120.640248 
L 203.349168 109.359785 
L 205.076054 93.347065 
L 206.80294 140.139052 
L 208.529826 134.664555 
L 213.710484 143.000514 
L 215.437369 139.170755 
L 217.164255 127.822263 
L 218.891141 143.216674 
L 220.618027 162.404851 
L 225.798685 170.315611 
L 227.525571 159.762064 
L 229.252456 162.647825 
L 230.979342 181.548539 
L 232.706228 185.874933 
L 239.613772 193.926138 
L 241.340658 205.592517 
L 243.067544 197.078203 
L 244.794429 178.586943 
L 249.975087 186.121867 
L 251.701973 202.660992 
L 253.428859 183.29603 
L 255.155745 185.898341 
L 256.882631 197.924749 
L 262.063288 228.897609 
L 263.790174 231.769937 
L 265.51706 201.407888 
L 268.970832 222.398139 
L 274.151489 224.469279 
L 275.878375 209.095911 
L 277.605261 187.660143 
L 279.332147 178.686154 
L 281.059033 168.882408 
L 286.239691 170.4464 
L 287.966576 155.214971 
L 289.693462 163.984485 
L 291.420348 150.541716 
L 293.147234 140.778096 
L 298.327892 139.304571 
L 300.054778 133.40213 
L 301.781663 135.184196 
L 303.508549 152.415668 
L 305.235435 147.839204 
L 310.416093 140.824152 
L 312.142979 149.125441 
L 313.869865 161.0368 
L 315.59675 162.064976 
L 317.323636 161.594041 
L 322.504294 175.707473 
L 324.23118 180.786369 
L 325.958066 177.91497 
L 327.684952 191.330904 
L 334.592495 185.641531 
L 336.319381 171.953316 
L 338.046267 172.867303 
L 339.773153 187.267141 
L 341.500039 211.833127 
L 346.680696 208.327022 
L 348.407582 223.363711 
L 350.134468 228.721015 
L 351.861354 193.04659 
L 353.58824 218.032746 
L 358.768897 210.176939 
L 360.495783 203.6127 
L 362.222669 167.227316 
L 363.949555 200.432311 
L 365.676441 199.27748 
L 370.857099 224.300106 
L 372.583985 230.107215 
L 374.31087 240.364674 
L 376.037756 244.084617 
L 377.764642 230.249458 
L 382.9453 232.442178 
L 384.672186 216.558839 
L 386.399072 248.633471 
L 388.125957 258.848466 
L 389.852843 264.87548 
L 395.033501 244.060473 
L 396.760387 258.780806 
L 398.487273 257.16871 
L 398.487273 257.16871 
" style="fill:none;stroke:#00ff00;stroke-linecap:square;stroke-opacity:0.9;stroke-width:2;"/>
   </g>
   <g id="line2d_18">
    <path clip-path="url(#p81053d2957)" d="M 73.832727 123.405511 
L 75.559613 125.237088 
L 80.740271 119.674119 
L 82.467157 112.923866 
L 84.194043 112.626133 
L 87.647814 133.033516 
L 92.828472 120.991565 
L 94.555358 139.880691 
L 96.282244 151.740531 
L 98.00913 139.937179 
L 99.736015 146.134065 
L 104.916673 128.770038 
L 106.643559 112.57217 
L 108.370445 105.892663 
L 110.097331 104.9986 
L 111.824217 102.250467 
L 117.004874 111.305472 
L 118.73176 107.17098 
L 120.458646 100.510919 
L 122.185532 95.541311 
L 123.912418 105.463468 
L 129.093075 118.185249 
L 130.819961 96.453978 
L 132.546847 92.170073 
L 134.273733 83.809517 
L 141.181277 71.955636 
L 142.908162 72.254451 
L 144.635048 71.869097 
L 146.361934 73.529476 
L 148.08882 78.394955 
L 153.269478 63.757019 
L 154.996364 52.154182 
L 156.72325 78.657948 
L 158.450135 70.946416 
L 160.177021 67.867318 
L 165.357679 68.225203 
L 167.084565 60.252406 
L 168.811451 58.315057 
L 170.538337 70.302743 
L 172.265222 66.499209 
L 179.172766 87.809351 
L 180.899652 92.557583 
L 182.626538 103.684266 
L 184.353424 125.276478 
L 189.534081 124.552434 
L 191.260967 134.868846 
L 192.987853 135.263052 
L 194.714739 140.831541 
L 196.441625 117.274616 
L 201.622282 97.577648 
L 203.349168 89.092508 
L 205.076054 75.407932 
L 206.80294 132.739463 
L 208.529826 130.715656 
L 213.710484 146.215426 
L 215.437369 147.684259 
L 217.164255 128.8807 
L 218.891141 144.361514 
L 220.618027 164.279666 
L 225.798685 170.268837 
L 227.525571 159.704113 
L 229.252456 164.080145 
L 230.979342 180.277863 
L 232.706228 186.213821 
L 239.613772 195.213533 
L 241.340658 207.245504 
L 243.067544 188.10835 
L 244.794429 171.500629 
L 249.975087 175.976641 
L 251.701973 191.635495 
L 253.428859 172.121951 
L 255.155745 177.182215 
L 256.882631 193.88257 
L 262.063288 231.969421 
L 263.790174 228.137909 
L 265.51706 191.265829 
L 267.243946 203.418695 
L 268.970832 217.831757 
L 274.151489 219.034439 
L 275.878375 202.39445 
L 277.605261 173.762177 
L 279.332147 163.808558 
L 281.059033 149.960529 
L 286.239691 153.431275 
L 287.966576 134.348888 
L 289.693462 145.330264 
L 291.420348 131.5347 
L 293.147234 120.636877 
L 298.327892 119.615421 
L 300.054778 113.251651 
L 301.781663 117.548426 
L 303.508549 141.047941 
L 305.235435 138.857054 
L 310.416093 130.48061 
L 312.142979 141.668302 
L 313.869865 155.493452 
L 315.59675 158.21419 
L 317.323636 159.337561 
L 324.23118 177.660505 
L 325.958066 174.038734 
L 327.684952 190.638168 
L 334.592495 181.180206 
L 336.319381 165.039924 
L 338.046267 169.932211 
L 339.773153 193.40442 
L 341.500039 220.420181 
L 346.680696 215.236057 
L 348.407582 235.342439 
L 350.134468 245.051373 
L 351.861354 198.206123 
L 353.58824 224.497004 
L 358.768897 209.373847 
L 360.495783 199.819345 
L 362.222669 161.662024 
L 363.949555 198.034705 
L 365.676441 201.68114 
L 370.857099 226.610277 
L 372.583985 226.904569 
L 374.31087 241.305948 
L 376.037756 246.8804 
L 377.764642 230.645963 
L 382.9453 235.11507 
L 384.672186 217.226615 
L 386.399072 249.045221 
L 388.125957 259.264404 
L 389.852843 265.797818 
L 395.033501 240.430432 
L 396.760387 264.563189 
L 398.487273 261.164238 
L 398.487273 261.164238 
" style="fill:none;stroke:#a5b9cf;stroke-linecap:square;stroke-width:2;"/>
   </g>
   <g id="patch_3">
    <path d="M 57.6 276.48 
L 57.6 41.472 
" style="fill:none;stroke:#000000;stroke-linecap:square;stroke-linejoin:miter;stroke-width:0.8;"/>
   </g>
   <g id="patch_4">
    <path d="M 414.72 276.48 
L 414.72 41.472 
" style="fill:none;stroke:#000000;stroke-linecap:square;stroke-linejoin:miter;stroke-width:0.8;"/>
   </g>
   <g id="patch_5">
    <path d="M 57.6 276.48 
L 414.72 276.48 
" style="fill:none;stroke:#000000;stroke-linecap:square;stroke-linejoin:miter;stroke-width:0.8;"/>
   </g>
   <g id="patch_6">
    <path d="M 57.6 41.472 
L 414.72 41.472 
" style="fill:none;stroke:#000000;stroke-linecap:square;stroke-linejoin:miter;stroke-width:0.8;"/>
   </g>
   <g id="text_14">
    <!-- TESTFUNDS -->
    <g transform="translate(200.470313 22.034625)scale(0.12 -0.12)">
     <defs>
      <path d="M -19 4666 
L 3928 4666 
L 3928 4134 
L 2272 4134 
L 2272 0 
L 1638 0 
L 1638 4134 
L -19 4134 
L -19 4666 
z
" id="DejaVuSans-54" transform="scale(0.015625)"/>
      <path d="M 628 4666 
L 3578 4666 
L 3578 4134 
L 1259 4134 
L 1259 2753 
L 3481 2753 
L 3481 2222 
L 1259 2222 
L 1259 531 
L 3634 531 
L 3634 0 
L 628 0 
L 628 4666 
z
" id="DejaVuSans-45" transform="scale(0.015625)"/>
      <path d="M 3425 4513 
L 3425 3897 
Q 3066 4069 2747 4153 
Q 2428 4238 2131 4238 
Q 1616 4238 1336 4038 
Q 1056 3838 1056 3469 
Q 1056 3159 1242 3001 
Q 1428 2844 1947 2747 
L 2328 2669 
Q 3034 2534 3370 2195 
Q 3706 1856 3706 1288 
Q 3706 609 3251 259 
Q 2797 -91 1919 -91 
Q 1588 -91 1214 -16 
Q 841 59 441 206 
L 441 856 
Q 825 641 1194 531 
Q 1563 422 1919 422 
Q 2459 422 2753 634 
Q 3047 847 3047 1241 
Q 3047 1584 2836 1778 
Q 2625 1972 2144 2069 
L 1759 2144 
Q 1053 2284 737 2584 
Q 422 2884 422 3419 
Q 422 4038 858 4394 
Q 1294 4750 2059 4750 
Q 2388 4750 2728 4690 
Q 3069 4631 3425 4513 
z
" id="DejaVuSans-53" transform="scale(0.015625)"/>
      <path d="M 628 4666 
L 3309 4666 
L 3309 4134 
L 1259 4134 
L 1259 2759 
L 3109 2759 
L 3109 2228 
L 1259 2228 
L 1259 0 
L 628 0 
L 628 4666 
z
" id="DejaVuSans-46" transform="scale(0.015625)"/>
      <path d="M 556 4666 
L 1191 4666 
L 1191 1831 
Q 1191 1081 1462 751 
Q 1734 422 2344 422 
Q 2950 422 3222 751 
Q 3494 1081 3494 1831 
L 3494 4666 
L 4128 4666 
L 4128 1753 
Q 4128 841 3676 375 
Q 3225 -91 2344 -91 
Q 1459 -91 1007 375 
Q 556 841 556 1753 
L 556 4666 
z
" id="DejaVuSans-55" transform="scale(0.015625)"/>
      <path d="M 628 4666 
L 1478 4666 
L 3547 763 
L 3547 4666 
L 4159 4666 
L 4159 0 
L 3309 0 
L 1241 3903 
L 1241 0 
L 628 0 
L 628 4666 
z
" id="DejaVuSans-4e" transform="scale(0.015625)"/>
      <path d="M 1259 4147 
L 1259 519 
L 2022 519 
Q 2988 519 3436 956 
Q 3884 1394 3884 2338 
Q 3884 3275 3436 3711 
Q 2988 4147 2022 4147 
L 1259 4147 
z
M 628 4666 
L 1925 4666 
Q 3281 4666 3915 4102 
Q 4550 3538 4550 2338 
Q 4550 1131 3912 565 
Q 3275 0 1925 0 
L 628 0 
L 628 4666 
z
" id="DejaVuSans-44" transform="scale(0.015625)"/>
     </defs>
     <use xlink:href="#DejaVuSans-54"/>
     <use x="61.083984" xlink:href="#DejaVuSans-45"/>
     <use x="124.267578" xlink:href="#DejaVuSans-53"/>
     <use x="187.744141" xlink:href="#DejaVuSans-54"/>
     <use x="248.828125" xlink:href="#DejaVuSans-46"/>
     <use x="306.347656" xlink:href="#DejaVuSans-55"/>
     <use x="379.541016" xlink:href="#DejaVuSans-4e"/>
     <use x="454.345703" xlink:href="#DejaVuSans-44"/>
     <use x="531.347656" xlink:href="#DejaVuSans-53"/>
    </g>
    <!-- daily_report -->
    <g transform="translate(200.466563 35.472)scale(0.12 -0.12)">
     <defs>
      <path d="M 603 3500 
L 1178 3500 
L 1178 0 
L 603 0 
L 603 3500 
z
M 603 4863 
L 1178 4863 
L 1178 4134 
L 603 4134 
L 603 4863 
z
" id="DejaVuSans-69" transform="scale(0.015625)"/>
      <path d="M 603 4863 
L 1178 4863 
L 1178 0 
L 603 0 
L 603 4863 
z
" id="DejaVuSans-6c" transform="scale(0.015625)"/>
      <path d="M 2059 -325 
Q 1816 -950 1584 -1140 
Q 1353 -1331 966 -1331 
L 506 -1331 
L 506 -850 
L 844 -850 
Q 1081 -850 1212 -737 
Q 1344 -625 1503 -206 
L 1606 56 
L 191 3500 
L 800 3500 
L 1894 763 
L 2988 3500 
L 3597 3500 
L 2059 -325 
z
" id="DejaVuSans-79" transform="scale(0.015625)"/>
      <path d="M 3263 -1063 
L 3263 -1509 
L -63 -1509 
L -63 -1063 
L 3263 -1063 
z
" id="DejaVuSans-5f" transform="scale(0.015625)"/>
      <path d="M 2631 2963 
Q 2534 3019 2420 3045 
Q 2306 3072 2169 3072 
Q 1681 3072 1420 2755 
Q 1159 2438 1159 1844 
L 1159 0 
L 581 0 
L 581 3500 
L 1159 3500 
L 1159 2956 
Q 1341 3275 1631 3429 
Q 1922 3584 2338 3584 
Q 2397 3584 2469 3576 
Q 2541 3569 2628 3553 
L 2631 2963 
z
" id="DejaVuSans-72" transform="scale(0.015625)"/>
      <path d="M 1159 525 
L 1159 -1331 
L 581 -1331 
L 581 3500 
L 1159 3500 
L 1159 2969 
Q 1341 3281 1617 3432 
Q 1894 3584 2278 3584 
Q 2916 3584 3314 3078 
Q 3713 2572 3713 1747 
Q 3713 922 3314 415 
Q 2916 -91 2278 -91 
Q 1894 -91 1617 61 
Q 1341 213 1159 525 
z
M 3116 1747 
Q 3116 2381 2855 2742 
Q 2594 3103 2138 3103 
Q 1681 3103 1420 2742 
Q 1159 2381 1159 1747 
Q 1159 1113 1420 752 
Q 1681 391 2138 391 
Q 2594 391 2855 752 
Q 3116 1113 3116 1747 
z
" id="DejaVuSans-70" transform="scale(0.015625)"/>
      <path d="M 1959 3097 
Q 1497 3097 1228 2736 
Q 959 2375 959 1747 
Q 959 1119 1226 758 
Q 1494 397 1959 397 
Q 2419 397 2687 759 
Q 2956 1122 2956 1747 
Q 2956 2369 2687 2733 
Q 2419 3097 1959 3097 
z
M 1959 3584 
Q 2709 3584 3137 3096 
Q 3566 2609 3566 1747 
Q 3566 888 3137 398 
Q 2709 -91 1959 -91 
Q 1206 -91 779 398 
Q 353 888 353 1747 
Q 353 2609 779 3096 
Q 1206 3584 1959 3584 
z
" id="DejaVuSans-6f" transform="scale(0.015625)"/>
     </defs>
     <use xlink:href="#DejaVuSans-64"/>
     <use x="63.476562" xlink:href="#DejaVuSans-61"/>
     <use x="124.755859" xlink:href="#DejaVuSans-69"/>
     <use x="152.539062" xlink:href="#DejaVuSans-6c"/>
     <use x="180.322266" xlink:href="#DejaVuSans-79"/>
     <use x="239.501953" xlink:href="#DejaVuSans-5f"/>
     <use x="289.501953" xlink:href="#DejaVuSans-72"/>
     <use x="328.365234" xlink:href="#DejaVuSans-65"/>
     <use x="389.888672" xlink:href="#DejaVuSans-70"/>
     <use x="453.365234" xlink:href="#DejaVuSans-6f"/>
     <use x="514.546875" xlink:href="#DejaVuSans-72"/>
     <use x="555.660156" xlink:href="#DejaVuSans-74"/>
    </g>
   </g>
   <g id="legend_1">
    <g id="patch_7">
     <path d="M 64.6 271.48 
L 178.64375 271.48 
Q 180.64375 271.48 180.64375 269.48 
L 180.64375 182.41125 
Q 180.64375 180.41125 178.64375 180.41125 
L 64.6 180.41125 
Q 62.6 180.41125 62.6 182.41125 
L 62.6 269.48 
Q 62.6 271.48 64.6 271.48 
z
" style="fill:#ffffff;opacity:0.8;stroke:#cccccc;stroke-linejoin:miter;"/>
    </g>
    <g id="line2d_19">
     <path d="M 66.6 188.509687 
L 86.6 188.509687 
" style="fill:none;stroke:#0000ff;stroke-linecap:square;stroke-opacity:0.9;stroke-width:2;"/>
    </g>
    <g id="line2d_20"/>
    <g id="text_15">
     <!-- alpaca -->
     <g transform="translate(94.6 192.009687)scale(0.1 -0.1)">
      <defs>
       <path d="M 3122 3366 
L 3122 2828 
Q 2878 2963 2633 3030 
Q 2388 3097 2138 3097 
Q 1578 3097 1268 2742 
Q 959 2388 959 1747 
Q 959 1106 1268 751 
Q 1578 397 2138 397 
Q 2388 397 2633 464 
Q 2878 531 3122 666 
L 3122 134 
Q 2881 22 2623 -34 
Q 2366 -91 2075 -91 
Q 1284 -91 818 406 
Q 353 903 353 1747 
Q 353 2603 823 3093 
Q 1294 3584 2113 3584 
Q 2378 3584 2631 3529 
Q 2884 3475 3122 3366 
z
" id="DejaVuSans-63" transform="scale(0.015625)"/>
      </defs>
      <use xlink:href="#DejaVuSans-61"/>
      <use x="61.279297" xlink:href="#DejaVuSans-6c"/>
      <use x="89.0625" xlink:href="#DejaVuSans-70"/>
      <use x="152.539062" xlink:href="#DejaVuSans-61"/>
      <use x="213.818359" xlink:href="#DejaVuSans-63"/>
      <use x="268.798828" xlink:href="#DejaVuSans-61"/>
     </g>
    </g>
    <g id="line2d_21">
     <path d="M 66.6 203.187812 
L 86.6 203.187812 
" style="fill:none;stroke:#ff0000;stroke-linecap:square;stroke-opacity:0.9;stroke-width:2;"/>
    </g>
    <g id="line2d_22"/>
    <g id="text_16">
     <!-- mattress -->
     <g transform="translate(94.6 206.687812)scale(0.1 -0.1)">
      <defs>
       <path d="M 3328 2828 
Q 3544 3216 3844 3400 
Q 4144 3584 4550 3584 
Q 5097 3584 5394 3201 
Q 5691 2819 5691 2113 
L 5691 0 
L 5113 0 
L 5113 2094 
Q 5113 2597 4934 2840 
Q 4756 3084 4391 3084 
Q 3944 3084 3684 2787 
Q 3425 2491 3425 1978 
L 3425 0 
L 2847 0 
L 2847 2094 
Q 2847 2600 2669 2842 
Q 2491 3084 2119 3084 
Q 1678 3084 1418 2786 
Q 1159 2488 1159 1978 
L 1159 0 
L 581 0 
L 581 3500 
L 1159 3500 
L 1159 2956 
Q 1356 3278 1631 3431 
Q 1906 3584 2284 3584 
Q 2666 3584 2933 3390 
Q 3200 3197 3328 2828 
z
" id="DejaVuSans-6d" transform="scale(0.015625)"/>
       <path d="M 2834 3397 
L 2834 2853 
Q 2591 2978 2328 3040 
Q 2066 3103 1784 3103 
Q 1356 3103 1142 2972 
Q 928 2841 928 2578 
Q 928 2378 1081 2264 
Q 1234 2150 1697 2047 
L 1894 2003 
Q 2506 1872 2764 1633 
Q 3022 1394 3022 966 
Q 3022 478 2636 193 
Q 2250 -91 1575 -91 
Q 1294 -91 989 -36 
Q 684 19 347 128 
L 347 722 
Q 666 556 975 473 
Q 1284 391 1588 391 
Q 1994 391 2212 530 
Q 2431 669 2431 922 
Q 2431 1156 2273 1281 
Q 2116 1406 1581 1522 
L 1381 1569 
Q 847 1681 609 1914 
Q 372 2147 372 2553 
Q 372 3047 722 3315 
Q 1072 3584 1716 3584 
Q 2034 3584 2315 3537 
Q 2597 3491 2834 3397 
z
" id="DejaVuSans-73" transform="scale(0.015625)"/>
      </defs>
      <use xlink:href="#DejaVuSans-6d"/>
      <use x="97.412109" xlink:href="#DejaVuSans-61"/>
      <use x="158.691406" xlink:href="#DejaVuSans-74"/>
      <use x="197.900391" xlink:href="#DejaVuSans-74"/>
      <use x="237.109375" xlink:href="#DejaVuSans-72"/>
      <use x="275.972656" xlink:href="#DejaVuSans-65"/>
      <use x="337.496094" xlink:href="#DejaVuSans-73"/>
      <use x="389.595703" xlink:href="#DejaVuSans-73"/>
     </g>
    </g>
    <g id="line2d_23">
     <path d="M 66.6 217.865937 
L 86.6 217.865937 
" style="fill:none;stroke:#008000;stroke-linecap:square;stroke-opacity:0.9;stroke-width:2;"/>
    </g>
    <g id="line2d_24"/>
    <g id="text_17">
     <!-- daily-open-rebal -->
     <g transform="translate(94.6 221.365937)scale(0.1 -0.1)">
      <defs>
       <path d="M 3513 2113 
L 3513 0 
L 2938 0 
L 2938 2094 
Q 2938 2591 2744 2837 
Q 2550 3084 2163 3084 
Q 1697 3084 1428 2787 
Q 1159 2491 1159 1978 
L 1159 0 
L 581 0 
L 581 3500 
L 1159 3500 
L 1159 2956 
Q 1366 3272 1645 3428 
Q 1925 3584 2291 3584 
Q 2894 3584 3203 3211 
Q 3513 2838 3513 2113 
z
" id="DejaVuSans-6e" transform="scale(0.015625)"/>
       <path d="M 3116 1747 
Q 3116 2381 2855 2742 
Q 2594 3103 2138 3103 
Q 1681 3103 1420 2742 
Q 1159 2381 1159 1747 
Q 1159 1113 1420 752 
Q 1681 391 2138 391 
Q 2594 391 2855 752 
Q 3116 1113 3116 1747 
z
M 1159 2969 
Q 1341 3281 1617 3432 
Q 1894 3584 2278 3584 
Q 2916 3584 3314 3078 
Q 3713 2572 3713 1747 
Q 3713 922 3314 415 
Q 2916 -91 2278 -91 
Q 1894 -91 1617 61 
Q 1341 213 1159 525 
L 1159 0 
L 581 0 
L 581 4863 
L 1159 4863 
L 1159 2969 
z
" id="DejaVuSans-62" transform="scale(0.015625)"/>
      </defs>
      <use xlink:href="#DejaVuSans-64"/>
      <use x="63.476562" xlink:href="#DejaVuSans-61"/>
      <use x="124.755859" xlink:href="#DejaVuSans-69"/>
      <use x="152.539062" xlink:href="#DejaVuSans-6c"/>
      <use x="180.322266" xlink:href="#DejaVuSans-79"/>
      <use x="237.751953" xlink:href="#DejaVuSans-2d"/>
      <use x="275.710938" xlink:href="#DejaVuSans-6f"/>
      <use x="336.892578" xlink:href="#DejaVuSans-70"/>
      <use x="400.369141" xlink:href="#DejaVuSans-65"/>
      <use x="461.892578" xlink:href="#DejaVuSans-6e"/>
      <use x="525.271484" xlink:href="#DejaVuSans-2d"/>
      <use x="561.355469" xlink:href="#DejaVuSans-72"/>
      <use x="600.21875" xlink:href="#DejaVuSans-65"/>
      <use x="661.742188" xlink:href="#DejaVuSans-62"/>
      <use x="725.21875" xlink:href="#DejaVuSans-61"/>
      <use x="786.498047" xlink:href="#DejaVuSans-6c"/>
     </g>
    </g>
    <g id="line2d_25">
     <path d="M 66.6 232.544062 
L 86.6 232.544062 
" style="fill:none;stroke:#ec5283;stroke-linecap:square;stroke-width:2;"/>
    </g>
    <g id="line2d_26"/>
    <g id="text_18">
     <!-- daily-close-rebal -->
     <g transform="translate(94.6 236.044062)scale(0.1 -0.1)">
      <use xlink:href="#DejaVuSans-64"/>
      <use x="63.476562" xlink:href="#DejaVuSans-61"/>
      <use x="124.755859" xlink:href="#DejaVuSans-69"/>
      <use x="152.539062" xlink:href="#DejaVuSans-6c"/>
      <use x="180.322266" xlink:href="#DejaVuSans-79"/>
      <use x="237.751953" xlink:href="#DejaVuSans-2d"/>
      <use x="273.835938" xlink:href="#DejaVuSans-63"/>
      <use x="328.816406" xlink:href="#DejaVuSans-6c"/>
      <use x="356.599609" xlink:href="#DejaVuSans-6f"/>
      <use x="417.78125" xlink:href="#DejaVuSans-73"/>
      <use x="469.880859" xlink:href="#DejaVuSans-65"/>
      <use x="531.404297" xlink:href="#DejaVuSans-2d"/>
      <use x="567.488281" xlink:href="#DejaVuSans-72"/>
      <use x="606.351562" xlink:href="#DejaVuSans-65"/>
      <use x="667.875" xlink:href="#DejaVuSans-62"/>
      <use x="731.351562" xlink:href="#DejaVuSans-61"/>
      <use x="792.630859" xlink:href="#DejaVuSans-6c"/>
     </g>
    </g>
    <g id="line2d_27">
     <path d="M 66.6 247.222187 
L 86.6 247.222187 
" style="fill:none;stroke:#00ff00;stroke-linecap:square;stroke-opacity:0.9;stroke-width:2;"/>
    </g>
    <g id="line2d_28"/>
    <g id="text_19">
     <!-- trader-baseline -->
     <g transform="translate(94.6 250.722187)scale(0.1 -0.1)">
      <use xlink:href="#DejaVuSans-74"/>
      <use x="39.208984" xlink:href="#DejaVuSans-72"/>
      <use x="80.322266" xlink:href="#DejaVuSans-61"/>
      <use x="141.601562" xlink:href="#DejaVuSans-64"/>
      <use x="205.078125" xlink:href="#DejaVuSans-65"/>
      <use x="266.601562" xlink:href="#DejaVuSans-72"/>
      <use x="301.339844" xlink:href="#DejaVuSans-2d"/>
      <use x="337.423828" xlink:href="#DejaVuSans-62"/>
      <use x="400.900391" xlink:href="#DejaVuSans-61"/>
      <use x="462.179688" xlink:href="#DejaVuSans-73"/>
      <use x="514.279297" xlink:href="#DejaVuSans-65"/>
      <use x="575.802734" xlink:href="#DejaVuSans-6c"/>
      <use x="603.585938" xlink:href="#DejaVuSans-69"/>
      <use x="631.369141" xlink:href="#DejaVuSans-6e"/>
      <use x="694.748047" xlink:href="#DejaVuSans-65"/>
     </g>
    </g>
    <g id="line2d_29">
     <path d="M 66.6 261.900312 
L 86.6 261.900312 
" style="fill:none;stroke:#a5b9cf;stroke-linecap:square;stroke-width:2;"/>
    </g>
    <g id="line2d_30"/>
    <g id="text_20">
     <!-- default-cfg -->
     <g transform="translate(94.6 265.400312)scale(0.1 -0.1)">
      <defs>
       <path d="M 2375 4863 
L 2375 4384 
L 1825 4384 
Q 1516 4384 1395 4259 
Q 1275 4134 1275 3809 
L 1275 3500 
L 2222 3500 
L 2222 3053 
L 1275 3053 
L 1275 0 
L 697 0 
L 697 3053 
L 147 3053 
L 147 3500 
L 697 3500 
L 697 3744 
Q 697 4328 969 4595 
Q 1241 4863 1831 4863 
L 2375 4863 
z
" id="DejaVuSans-66" transform="scale(0.015625)"/>
       <path d="M 544 1381 
L 544 3500 
L 1119 3500 
L 1119 1403 
Q 1119 906 1312 657 
Q 1506 409 1894 409 
Q 2359 409 2629 706 
Q 2900 1003 2900 1516 
L 2900 3500 
L 3475 3500 
L 3475 0 
L 2900 0 
L 2900 538 
Q 2691 219 2414 64 
Q 2138 -91 1772 -91 
Q 1169 -91 856 284 
Q 544 659 544 1381 
z
M 1991 3584 
L 1991 3584 
z
" id="DejaVuSans-75" transform="scale(0.015625)"/>
       <path d="M 2906 1791 
Q 2906 2416 2648 2759 
Q 2391 3103 1925 3103 
Q 1463 3103 1205 2759 
Q 947 2416 947 1791 
Q 947 1169 1205 825 
Q 1463 481 1925 481 
Q 2391 481 2648 825 
Q 2906 1169 2906 1791 
z
M 3481 434 
Q 3481 -459 3084 -895 
Q 2688 -1331 1869 -1331 
Q 1566 -1331 1297 -1286 
Q 1028 -1241 775 -1147 
L 775 -588 
Q 1028 -725 1275 -790 
Q 1522 -856 1778 -856 
Q 2344 -856 2625 -561 
Q 2906 -266 2906 331 
L 2906 616 
Q 2728 306 2450 153 
Q 2172 0 1784 0 
Q 1141 0 747 490 
Q 353 981 353 1791 
Q 353 2603 747 3093 
Q 1141 3584 1784 3584 
Q 2172 3584 2450 3431 
Q 2728 3278 2906 2969 
L 2906 3500 
L 3481 3500 
L 3481 434 
z
" id="DejaVuSans-67" transform="scale(0.015625)"/>
      </defs>
      <use xlink:href="#DejaVuSans-64"/>
      <use x="63.476562" xlink:href="#DejaVuSans-65"/>
      <use x="125" xlink:href="#DejaVuSans-66"/>
      <use x="160.205078" xlink:href="#DejaVuSans-61"/>
      <use x="221.484375" xlink:href="#DejaVuSans-75"/>
      <use x="284.863281" xlink:href="#DejaVuSans-6c"/>
      <use x="312.646484" xlink:href="#DejaVuSans-74"/>
      <use x="351.855469" xlink:href="#DejaVuSans-2d"/>
      <use x="387.939453" xlink:href="#DejaVuSans-63"/>
      <use x="442.919922" xlink:href="#DejaVuSans-66"/>
      <use x="478.125" xlink:href="#DejaVuSans-67"/>
     </g>
    </g>
   </g>
  </g>
 </g>
 <defs>
  <clipPath id="p81053d2957">
   <rect height="235.008" width="357.12" x="57.6" y="41.472"/>
  </clipPath>
 </defs>
</svg>
