<?xml version="1.0" encoding="utf-8" standalone="no"?>
<!DOCTYPE svg PUBLIC "-//W3C//DTD SVG 1.1//EN"
  "http://www.w3.org/Graphics/SVG/1.1/DTD/svg11.dtd">
<svg height="345.6pt" version="1.1" viewBox="0 0 460.8 345.6" width="460.8pt" xmlns="http://www.w3.org/2000/svg" xmlns:xlink="http://www.w3.org/1999/xlink">
 <metadata>
  <rdf:RDF xmlns:cc="http://creativecommons.org/ns#" xmlns:dc="http://purl.org/dc/elements/1.1/" xmlns:rdf="http://www.w3.org/1999/02/22-rdf-syntax-ns#">
   <cc:Work>
    <dc:type rdf:resource="http://purl.org/dc/dcmitype/StillImage"/>
    <dc:date>2021-12-28T01:02:11.184984</dc:date>
    <dc:format>image/svg+xml</dc:format>
    <dc:creator>
     <cc:Agent>
      <dc:title>Matplotlib v3.4.3, https://matplotlib.org/</dc:title>
     </cc:Agent>
    </dc:creator>
   </cc:Work>
  </rdf:RDF>
 </metadata>
 <defs>
  <style type="text/css">*{stroke-linecap:butt;stroke-linejoin:round;}</style>
 </defs>
 <g id="figure_1">
  <g id="patch_1">
   <path d="M 0 345.6 
L 460.8 345.6 
L 460.8 0 
L 0 0 
z
" style="fill:#ffffff;"/>
  </g>
  <g id="axes_1">
   <g id="patch_2">
    <path d="M 57.6 276.48 
L 414.72 276.48 
L 414.72 41.472 
L 57.6 41.472 
z
" style="fill:#ffffff;"/>
   </g>
   <g id="matplotlib.axis_1">
    <g id="xtick_1">
     <g id="line2d_1">
      <defs>
       <path d="M 0 0 
L 0 3.5 
" id="m5498c4de0e" style="stroke:#000000;stroke-width:0.8;"/>
      </defs>
      <g>
       <use style="stroke:#000000;stroke-width:0.8;" x="97.022338" xlink:href="#m5498c4de0e" y="276.48"/>
      </g>
     </g>
     <g id="text_1">
      <!-- 2021-09-01 -->
      <g transform="translate(45.652886 319.118252)rotate(-30)scale(0.1 -0.1)">
       <defs>
        <path d="M 1228 531 
L 3431 531 
L 3431 0 
L 469 0 
L 469 531 
Q 828 903 1448 1529 
Q 2069 2156 2228 2338 
Q 2531 2678 2651 2914 
Q 2772 3150 2772 3378 
Q 2772 3750 2511 3984 
Q 2250 4219 1831 4219 
Q 1534 4219 1204 4116 
Q 875 4013 500 3803 
L 500 4441 
Q 881 4594 1212 4672 
Q 1544 4750 1819 4750 
Q 2544 4750 2975 4387 
Q 3406 4025 3406 3419 
Q 3406 3131 3298 2873 
Q 3191 2616 2906 2266 
Q 2828 2175 2409 1742 
Q 1991 1309 1228 531 
z
" id="DejaVuSans-32" transform="scale(0.015625)"/>
        <path d="M 2034 4250 
Q 1547 4250 1301 3770 
Q 1056 3291 1056 2328 
Q 1056 1369 1301 889 
Q 1547 409 2034 409 
Q 2525 409 2770 889 
Q 3016 1369 3016 2328 
Q 3016 3291 2770 3770 
Q 2525 4250 2034 4250 
z
M 2034 4750 
Q 2819 4750 3233 4129 
Q 3647 3509 3647 2328 
Q 3647 1150 3233 529 
Q 2819 -91 2034 -91 
Q 1250 -91 836 529 
Q 422 1150 422 2328 
Q 422 3509 836 4129 
Q 1250 4750 2034 4750 
z
" id="DejaVuSans-30" transform="scale(0.015625)"/>
        <path d="M 794 531 
L 1825 531 
L 1825 4091 
L 703 3866 
L 703 4441 
L 1819 4666 
L 2450 4666 
L 2450 531 
L 3481 531 
L 3481 0 
L 794 0 
L 794 531 
z
" id="DejaVuSans-31" transform="scale(0.015625)"/>
        <path d="M 313 2009 
L 1997 2009 
L 1997 1497 
L 313 1497 
L 313 2009 
z
" id="DejaVuSans-2d" transform="scale(0.015625)"/>
        <path d="M 703 97 
L 703 672 
Q 941 559 1184 500 
Q 1428 441 1663 441 
Q 2288 441 2617 861 
Q 2947 1281 2994 2138 
Q 2813 1869 2534 1725 
Q 2256 1581 1919 1581 
Q 1219 1581 811 2004 
Q 403 2428 403 3163 
Q 403 3881 828 4315 
Q 1253 4750 1959 4750 
Q 2769 4750 3195 4129 
Q 3622 3509 3622 2328 
Q 3622 1225 3098 567 
Q 2575 -91 1691 -91 
Q 1453 -91 1209 -44 
Q 966 3 703 97 
z
M 1959 2075 
Q 2384 2075 2632 2365 
Q 2881 2656 2881 3163 
Q 2881 3666 2632 3958 
Q 2384 4250 1959 4250 
Q 1534 4250 1286 3958 
Q 1038 3666 1038 3163 
Q 1038 2656 1286 2365 
Q 1534 2075 1959 2075 
z
" id="DejaVuSans-39" transform="scale(0.015625)"/>
       </defs>
       <use xlink:href="#DejaVuSans-32"/>
       <use x="63.623047" xlink:href="#DejaVuSans-30"/>
       <use x="127.246094" xlink:href="#DejaVuSans-32"/>
       <use x="190.869141" xlink:href="#DejaVuSans-31"/>
       <use x="254.492188" xlink:href="#DejaVuSans-2d"/>
       <use x="290.576172" xlink:href="#DejaVuSans-30"/>
       <use x="354.199219" xlink:href="#DejaVuSans-39"/>
       <use x="417.822266" xlink:href="#DejaVuSans-2d"/>
       <use x="453.90625" xlink:href="#DejaVuSans-30"/>
       <use x="517.529297" xlink:href="#DejaVuSans-31"/>
      </g>
     </g>
    </g>
    <g id="xtick_2">
     <g id="line2d_2">
      <g>
       <use style="stroke:#000000;stroke-width:0.8;" x="133.095065" xlink:href="#m5498c4de0e" y="276.48"/>
      </g>
     </g>
     <g id="text_2">
      <!-- 2021-09-15 -->
      <g transform="translate(81.725614 319.118252)rotate(-30)scale(0.1 -0.1)">
       <defs>
        <path d="M 691 4666 
L 3169 4666 
L 3169 4134 
L 1269 4134 
L 1269 2991 
Q 1406 3038 1543 3061 
Q 1681 3084 1819 3084 
Q 2600 3084 3056 2656 
Q 3513 2228 3513 1497 
Q 3513 744 3044 326 
Q 2575 -91 1722 -91 
Q 1428 -91 1123 -41 
Q 819 9 494 109 
L 494 744 
Q 775 591 1075 516 
Q 1375 441 1709 441 
Q 2250 441 2565 725 
Q 2881 1009 2881 1497 
Q 2881 1984 2565 2268 
Q 2250 2553 1709 2553 
Q 1456 2553 1204 2497 
Q 953 2441 691 2322 
L 691 4666 
z
" id="DejaVuSans-35" transform="scale(0.015625)"/>
       </defs>
       <use xlink:href="#DejaVuSans-32"/>
       <use x="63.623047" xlink:href="#DejaVuSans-30"/>
       <use x="127.246094" xlink:href="#DejaVuSans-32"/>
       <use x="190.869141" xlink:href="#DejaVuSans-31"/>
       <use x="254.492188" xlink:href="#DejaVuSans-2d"/>
       <use x="290.576172" xlink:href="#DejaVuSans-30"/>
       <use x="354.199219" xlink:href="#DejaVuSans-39"/>
       <use x="417.822266" xlink:href="#DejaVuSans-2d"/>
       <use x="453.90625" xlink:href="#DejaVuSans-31"/>
       <use x="517.529297" xlink:href="#DejaVuSans-35"/>
      </g>
     </g>
    </g>
    <g id="xtick_3">
     <g id="line2d_3">
      <g>
       <use style="stroke:#000000;stroke-width:0.8;" x="174.321039" xlink:href="#m5498c4de0e" y="276.48"/>
      </g>
     </g>
     <g id="text_3">
      <!-- 2021-10-01 -->
      <g transform="translate(122.951588 319.118252)rotate(-30)scale(0.1 -0.1)">
       <use xlink:href="#DejaVuSans-32"/>
       <use x="63.623047" xlink:href="#DejaVuSans-30"/>
       <use x="127.246094" xlink:href="#DejaVuSans-32"/>
       <use x="190.869141" xlink:href="#DejaVuSans-31"/>
       <use x="254.492188" xlink:href="#DejaVuSans-2d"/>
       <use x="290.576172" xlink:href="#DejaVuSans-31"/>
       <use x="354.199219" xlink:href="#DejaVuSans-30"/>
       <use x="417.822266" xlink:href="#DejaVuSans-2d"/>
       <use x="453.90625" xlink:href="#DejaVuSans-30"/>
       <use x="517.529297" xlink:href="#DejaVuSans-31"/>
      </g>
     </g>
    </g>
    <g id="xtick_4">
     <g id="line2d_4">
      <g>
       <use style="stroke:#000000;stroke-width:0.8;" x="210.393766" xlink:href="#m5498c4de0e" y="276.48"/>
      </g>
     </g>
     <g id="text_4">
      <!-- 2021-10-15 -->
      <g transform="translate(159.024315 319.118252)rotate(-30)scale(0.1 -0.1)">
       <use xlink:href="#DejaVuSans-32"/>
       <use x="63.623047" xlink:href="#DejaVuSans-30"/>
       <use x="127.246094" xlink:href="#DejaVuSans-32"/>
       <use x="190.869141" xlink:href="#DejaVuSans-31"/>
       <use x="254.492188" xlink:href="#DejaVuSans-2d"/>
       <use x="290.576172" xlink:href="#DejaVuSans-31"/>
       <use x="354.199219" xlink:href="#DejaVuSans-30"/>
       <use x="417.822266" xlink:href="#DejaVuSans-2d"/>
       <use x="453.90625" xlink:href="#DejaVuSans-31"/>
       <use x="517.529297" xlink:href="#DejaVuSans-35"/>
      </g>
     </g>
    </g>
    <g id="xtick_5">
     <g id="line2d_5">
      <g>
       <use style="stroke:#000000;stroke-width:0.8;" x="254.196364" xlink:href="#m5498c4de0e" y="276.48"/>
      </g>
     </g>
     <g id="text_5">
      <!-- 2021-11-01 -->
      <g transform="translate(202.826912 319.118252)rotate(-30)scale(0.1 -0.1)">
       <use xlink:href="#DejaVuSans-32"/>
       <use x="63.623047" xlink:href="#DejaVuSans-30"/>
       <use x="127.246094" xlink:href="#DejaVuSans-32"/>
       <use x="190.869141" xlink:href="#DejaVuSans-31"/>
       <use x="254.492188" xlink:href="#DejaVuSans-2d"/>
       <use x="290.576172" xlink:href="#DejaVuSans-31"/>
       <use x="354.199219" xlink:href="#DejaVuSans-31"/>
       <use x="417.822266" xlink:href="#DejaVuSans-2d"/>
       <use x="453.90625" xlink:href="#DejaVuSans-30"/>
       <use x="517.529297" xlink:href="#DejaVuSans-31"/>
      </g>
     </g>
    </g>
    <g id="xtick_6">
     <g id="line2d_6">
      <g>
       <use style="stroke:#000000;stroke-width:0.8;" x="290.269091" xlink:href="#m5498c4de0e" y="276.48"/>
      </g>
     </g>
     <g id="text_6">
      <!-- 2021-11-15 -->
      <g transform="translate(238.89964 319.118252)rotate(-30)scale(0.1 -0.1)">
       <use xlink:href="#DejaVuSans-32"/>
       <use x="63.623047" xlink:href="#DejaVuSans-30"/>
       <use x="127.246094" xlink:href="#DejaVuSans-32"/>
       <use x="190.869141" xlink:href="#DejaVuSans-31"/>
       <use x="254.492188" xlink:href="#DejaVuSans-2d"/>
       <use x="290.576172" xlink:href="#DejaVuSans-31"/>
       <use x="354.199219" xlink:href="#DejaVuSans-31"/>
       <use x="417.822266" xlink:href="#DejaVuSans-2d"/>
       <use x="453.90625" xlink:href="#DejaVuSans-31"/>
       <use x="517.529297" xlink:href="#DejaVuSans-35"/>
      </g>
     </g>
    </g>
    <g id="xtick_7">
     <g id="line2d_7">
      <g>
       <use style="stroke:#000000;stroke-width:0.8;" x="331.495065" xlink:href="#m5498c4de0e" y="276.48"/>
      </g>
     </g>
     <g id="text_7">
      <!-- 2021-12-01 -->
      <g transform="translate(280.125614 319.118252)rotate(-30)scale(0.1 -0.1)">
       <use xlink:href="#DejaVuSans-32"/>
       <use x="63.623047" xlink:href="#DejaVuSans-30"/>
       <use x="127.246094" xlink:href="#DejaVuSans-32"/>
       <use x="190.869141" xlink:href="#DejaVuSans-31"/>
       <use x="254.492188" xlink:href="#DejaVuSans-2d"/>
       <use x="290.576172" xlink:href="#DejaVuSans-31"/>
       <use x="354.199219" xlink:href="#DejaVuSans-32"/>
       <use x="417.822266" xlink:href="#DejaVuSans-2d"/>
       <use x="453.90625" xlink:href="#DejaVuSans-30"/>
       <use x="517.529297" xlink:href="#DejaVuSans-31"/>
      </g>
     </g>
    </g>
    <g id="xtick_8">
     <g id="line2d_8">
      <g>
       <use style="stroke:#000000;stroke-width:0.8;" x="367.567792" xlink:href="#m5498c4de0e" y="276.48"/>
      </g>
     </g>
     <g id="text_8">
      <!-- 2021-12-15 -->
      <g transform="translate(316.198341 319.118252)rotate(-30)scale(0.1 -0.1)">
       <use xlink:href="#DejaVuSans-32"/>
       <use x="63.623047" xlink:href="#DejaVuSans-30"/>
       <use x="127.246094" xlink:href="#DejaVuSans-32"/>
       <use x="190.869141" xlink:href="#DejaVuSans-31"/>
       <use x="254.492188" xlink:href="#DejaVuSans-2d"/>
       <use x="290.576172" xlink:href="#DejaVuSans-31"/>
       <use x="354.199219" xlink:href="#DejaVuSans-32"/>
       <use x="417.822266" xlink:href="#DejaVuSans-2d"/>
       <use x="453.90625" xlink:href="#DejaVuSans-31"/>
       <use x="517.529297" xlink:href="#DejaVuSans-35"/>
      </g>
     </g>
    </g>
    <g id="xtick_9">
     <g id="line2d_9">
      <g>
       <use style="stroke:#000000;stroke-width:0.8;" x="411.37039" xlink:href="#m5498c4de0e" y="276.48"/>
      </g>
     </g>
     <g id="text_9">
      <!-- 2022-01-01 -->
      <g transform="translate(360.000938 319.118252)rotate(-30)scale(0.1 -0.1)">
       <use xlink:href="#DejaVuSans-32"/>
       <use x="63.623047" xlink:href="#DejaVuSans-30"/>
       <use x="127.246094" xlink:href="#DejaVuSans-32"/>
       <use x="190.869141" xlink:href="#DejaVuSans-32"/>
       <use x="254.492188" xlink:href="#DejaVuSans-2d"/>
       <use x="290.576172" xlink:href="#DejaVuSans-30"/>
       <use x="354.199219" xlink:href="#DejaVuSans-31"/>
       <use x="417.822266" xlink:href="#DejaVuSans-2d"/>
       <use x="453.90625" xlink:href="#DejaVuSans-30"/>
       <use x="517.529297" xlink:href="#DejaVuSans-31"/>
      </g>
     </g>
    </g>
    <g id="text_10">
     <!-- date -->
     <g transform="translate(224.885 332.517752)scale(0.1 -0.1)">
      <defs>
       <path d="M 2906 2969 
L 2906 4863 
L 3481 4863 
L 3481 0 
L 2906 0 
L 2906 525 
Q 2725 213 2448 61 
Q 2172 -91 1784 -91 
Q 1150 -91 751 415 
Q 353 922 353 1747 
Q 353 2572 751 3078 
Q 1150 3584 1784 3584 
Q 2172 3584 2448 3432 
Q 2725 3281 2906 2969 
z
M 947 1747 
Q 947 1113 1208 752 
Q 1469 391 1925 391 
Q 2381 391 2643 752 
Q 2906 1113 2906 1747 
Q 2906 2381 2643 2742 
Q 2381 3103 1925 3103 
Q 1469 3103 1208 2742 
Q 947 2381 947 1747 
z
" id="DejaVuSans-64" transform="scale(0.015625)"/>
       <path d="M 2194 1759 
Q 1497 1759 1228 1600 
Q 959 1441 959 1056 
Q 959 750 1161 570 
Q 1363 391 1709 391 
Q 2188 391 2477 730 
Q 2766 1069 2766 1631 
L 2766 1759 
L 2194 1759 
z
M 3341 1997 
L 3341 0 
L 2766 0 
L 2766 531 
Q 2569 213 2275 61 
Q 1981 -91 1556 -91 
Q 1019 -91 701 211 
Q 384 513 384 1019 
Q 384 1609 779 1909 
Q 1175 2209 1959 2209 
L 2766 2209 
L 2766 2266 
Q 2766 2663 2505 2880 
Q 2244 3097 1772 3097 
Q 1472 3097 1187 3025 
Q 903 2953 641 2809 
L 641 3341 
Q 956 3463 1253 3523 
Q 1550 3584 1831 3584 
Q 2591 3584 2966 3190 
Q 3341 2797 3341 1997 
z
" id="DejaVuSans-61" transform="scale(0.015625)"/>
       <path d="M 1172 4494 
L 1172 3500 
L 2356 3500 
L 2356 3053 
L 1172 3053 
L 1172 1153 
Q 1172 725 1289 603 
Q 1406 481 1766 481 
L 2356 481 
L 2356 0 
L 1766 0 
Q 1100 0 847 248 
Q 594 497 594 1153 
L 594 3053 
L 172 3053 
L 172 3500 
L 594 3500 
L 594 4494 
L 1172 4494 
z
" id="DejaVuSans-74" transform="scale(0.015625)"/>
       <path d="M 3597 1894 
L 3597 1613 
L 953 1613 
Q 991 1019 1311 708 
Q 1631 397 2203 397 
Q 2534 397 2845 478 
Q 3156 559 3463 722 
L 3463 178 
Q 3153 47 2828 -22 
Q 2503 -91 2169 -91 
Q 1331 -91 842 396 
Q 353 884 353 1716 
Q 353 2575 817 3079 
Q 1281 3584 2069 3584 
Q 2775 3584 3186 3129 
Q 3597 2675 3597 1894 
z
M 3022 2063 
Q 3016 2534 2758 2815 
Q 2500 3097 2075 3097 
Q 1594 3097 1305 2825 
Q 1016 2553 972 2059 
L 3022 2063 
z
" id="DejaVuSans-65" transform="scale(0.015625)"/>
      </defs>
      <use xlink:href="#DejaVuSans-64"/>
      <use x="63.476562" xlink:href="#DejaVuSans-61"/>
      <use x="124.755859" xlink:href="#DejaVuSans-74"/>
      <use x="163.964844" xlink:href="#DejaVuSans-65"/>
     </g>
    </g>
   </g>
   <g id="matplotlib.axis_2">
    <g id="ytick_1">
     <g id="line2d_10">
      <defs>
       <path d="M 0 0 
L -3.5 0 
" id="m09370f70d6" style="stroke:#000000;stroke-width:0.8;"/>
      </defs>
      <g>
       <use style="stroke:#000000;stroke-width:0.8;" x="57.6" xlink:href="#m09370f70d6" y="247.911989"/>
      </g>
     </g>
     <g id="text_11">
      <!-- 95000 -->
      <g transform="translate(18.7875 251.711208)scale(0.1 -0.1)">
       <use xlink:href="#DejaVuSans-39"/>
       <use x="63.623047" xlink:href="#DejaVuSans-35"/>
       <use x="127.246094" xlink:href="#DejaVuSans-30"/>
       <use x="190.869141" xlink:href="#DejaVuSans-30"/>
       <use x="254.492188" xlink:href="#DejaVuSans-30"/>
      </g>
     </g>
    </g>
    <g id="ytick_2">
     <g id="line2d_11">
      <g>
       <use style="stroke:#000000;stroke-width:0.8;" x="57.6" xlink:href="#m09370f70d6" y="218.837745"/>
      </g>
     </g>
     <g id="text_12">
      <!-- 97500 -->
      <g transform="translate(18.7875 222.636964)scale(0.1 -0.1)">
       <defs>
        <path d="M 525 4666 
L 3525 4666 
L 3525 4397 
L 1831 0 
L 1172 0 
L 2766 4134 
L 525 4134 
L 525 4666 
z
" id="DejaVuSans-37" transform="scale(0.015625)"/>
       </defs>
       <use xlink:href="#DejaVuSans-39"/>
       <use x="63.623047" xlink:href="#DejaVuSans-37"/>
       <use x="127.246094" xlink:href="#DejaVuSans-35"/>
       <use x="190.869141" xlink:href="#DejaVuSans-30"/>
       <use x="254.492188" xlink:href="#DejaVuSans-30"/>
      </g>
     </g>
    </g>
    <g id="ytick_3">
     <g id="line2d_12">
      <g>
       <use style="stroke:#000000;stroke-width:0.8;" x="57.6" xlink:href="#m09370f70d6" y="189.763501"/>
      </g>
     </g>
     <g id="text_13">
      <!-- 100000 -->
      <g transform="translate(12.425 193.56272)scale(0.1 -0.1)">
       <use xlink:href="#DejaVuSans-31"/>
       <use x="63.623047" xlink:href="#DejaVuSans-30"/>
       <use x="127.246094" xlink:href="#DejaVuSans-30"/>
       <use x="190.869141" xlink:href="#DejaVuSans-30"/>
       <use x="254.492188" xlink:href="#DejaVuSans-30"/>
       <use x="318.115234" xlink:href="#DejaVuSans-30"/>
      </g>
     </g>
    </g>
    <g id="ytick_4">
     <g id="line2d_13">
      <g>
       <use style="stroke:#000000;stroke-width:0.8;" x="57.6" xlink:href="#m09370f70d6" y="160.689257"/>
      </g>
     </g>
     <g id="text_14">
      <!-- 102500 -->
      <g transform="translate(12.425 164.488476)scale(0.1 -0.1)">
       <use xlink:href="#DejaVuSans-31"/>
       <use x="63.623047" xlink:href="#DejaVuSans-30"/>
       <use x="127.246094" xlink:href="#DejaVuSans-32"/>
       <use x="190.869141" xlink:href="#DejaVuSans-35"/>
       <use x="254.492188" xlink:href="#DejaVuSans-30"/>
       <use x="318.115234" xlink:href="#DejaVuSans-30"/>
      </g>
     </g>
    </g>
    <g id="ytick_5">
     <g id="line2d_14">
      <g>
       <use style="stroke:#000000;stroke-width:0.8;" x="57.6" xlink:href="#m09370f70d6" y="131.615013"/>
      </g>
     </g>
     <g id="text_15">
      <!-- 105000 -->
      <g transform="translate(12.425 135.414232)scale(0.1 -0.1)">
       <use xlink:href="#DejaVuSans-31"/>
       <use x="63.623047" xlink:href="#DejaVuSans-30"/>
       <use x="127.246094" xlink:href="#DejaVuSans-35"/>
       <use x="190.869141" xlink:href="#DejaVuSans-30"/>
       <use x="254.492188" xlink:href="#DejaVuSans-30"/>
       <use x="318.115234" xlink:href="#DejaVuSans-30"/>
      </g>
     </g>
    </g>
    <g id="ytick_6">
     <g id="line2d_15">
      <g>
       <use style="stroke:#000000;stroke-width:0.8;" x="57.6" xlink:href="#m09370f70d6" y="102.540769"/>
      </g>
     </g>
     <g id="text_16">
      <!-- 107500 -->
      <g transform="translate(12.425 106.339988)scale(0.1 -0.1)">
       <use xlink:href="#DejaVuSans-31"/>
       <use x="63.623047" xlink:href="#DejaVuSans-30"/>
       <use x="127.246094" xlink:href="#DejaVuSans-37"/>
       <use x="190.869141" xlink:href="#DejaVuSans-35"/>
       <use x="254.492188" xlink:href="#DejaVuSans-30"/>
       <use x="318.115234" xlink:href="#DejaVuSans-30"/>
      </g>
     </g>
    </g>
    <g id="ytick_7">
     <g id="line2d_16">
      <g>
       <use style="stroke:#000000;stroke-width:0.8;" x="57.6" xlink:href="#m09370f70d6" y="73.466525"/>
      </g>
     </g>
     <g id="text_17">
      <!-- 110000 -->
      <g transform="translate(12.425 77.265744)scale(0.1 -0.1)">
       <use xlink:href="#DejaVuSans-31"/>
       <use x="63.623047" xlink:href="#DejaVuSans-31"/>
       <use x="127.246094" xlink:href="#DejaVuSans-30"/>
       <use x="190.869141" xlink:href="#DejaVuSans-30"/>
       <use x="254.492188" xlink:href="#DejaVuSans-30"/>
       <use x="318.115234" xlink:href="#DejaVuSans-30"/>
      </g>
     </g>
    </g>
    <g id="ytick_8">
     <g id="line2d_17">
      <g>
       <use style="stroke:#000000;stroke-width:0.8;" x="57.6" xlink:href="#m09370f70d6" y="44.392281"/>
      </g>
     </g>
     <g id="text_18">
      <!-- 112500 -->
      <g transform="translate(12.425 48.1915)scale(0.1 -0.1)">
       <use xlink:href="#DejaVuSans-31"/>
       <use x="63.623047" xlink:href="#DejaVuSans-31"/>
       <use x="127.246094" xlink:href="#DejaVuSans-32"/>
       <use x="190.869141" xlink:href="#DejaVuSans-35"/>
       <use x="254.492188" xlink:href="#DejaVuSans-30"/>
       <use x="318.115234" xlink:href="#DejaVuSans-30"/>
      </g>
     </g>
    </g>
   </g>
   <g id="line2d_18">
    <path clip-path="url(#p33a62f61fa)" d="M 73.832727 189.763501 
L 76.409351 189.53637 
L 78.985974 185.428735 
L 81.562597 192.215806 
L 84.139221 181.52152 
L 91.869091 173.065118 
L 94.445714 171.275464 
L 97.022338 174.374087 
L 99.598961 173.371188 
L 102.175584 173.444899 
L 112.482078 173.861541 
L 115.058701 177.919719 
L 117.635325 181.46236 
L 120.211948 192.107528 
L 127.941818 181.978051 
L 130.518442 199.232974 
L 133.095065 191.47723 
L 135.671688 193.634539 
L 138.248312 205.420159 
L 145.978182 225.60305 
L 148.554805 228.735344 
L 151.131429 220.647469 
L 153.708052 202.06983 
L 156.284675 192.226658 
L 164.014545 182.94013 
L 166.591169 208.267898 
L 169.167792 204.597713 
L 171.744416 212.895588 
L 174.321039 196.012217 
L 182.050909 217.608994 
L 184.627532 199.895592 
L 187.204156 195.37499 
L 189.780779 194.817272 
L 192.357403 193.480278 
L 200.087273 191.707558 
L 202.663896 190.668571 
L 205.240519 206.240429 
L 207.817143 183.431463 
L 210.393766 181.447998 
L 218.123636 171.641221 
L 220.70026 159.960655 
L 223.276883 155.737606 
L 225.853506 176.493248 
L 228.43013 190.452557 
L 236.16 189.761345 
L 238.736623 199.837114 
L 241.313247 202.885594 
L 243.88987 187.803025 
L 246.466494 203.976572 
L 254.196364 180.088604 
L 256.772987 180.620084 
L 259.34961 168.864962 
L 261.926234 182.390426 
L 264.502857 175.370035 
L 272.232727 173.52742 
L 274.809351 187.966277 
L 277.385974 188.496131 
L 279.962597 197.469796 
L 282.539221 187.9432 
L 290.269091 184.32662 
L 292.845714 184.267612 
L 295.422338 190.809795 
L 297.998961 194.367169 
L 300.575584 195.445796 
L 308.305455 187.933752 
L 310.882078 177.721339 
L 313.458701 179.265405 
L 318.611948 178.520927 
L 326.341818 189.950437 
L 328.918442 211.70102 
L 331.495065 227.84687 
L 334.071688 213.539339 
L 336.648312 220.319933 
L 344.378182 199.106402 
L 346.954805 178.486335 
L 349.531429 169.10652 
L 352.108052 169.042343 
L 354.684675 164.770081 
L 362.414545 176.831666 
L 364.991169 171.210526 
L 367.567792 163.850206 
L 370.144416 159.769063 
L 372.721039 173.590536 
L 380.450909 189.111063 
L 383.027532 161.658848 
L 385.604156 156.64992 
L 388.180779 146.591943 
L 398.487273 132.101812 
" style="fill:none;stroke:#0000ff;stroke-linecap:square;stroke-opacity:0.9;stroke-width:2;"/>
   </g>
   <g id="line2d_19">
    <path clip-path="url(#p33a62f61fa)" d="M 73.832727 189.763501 
L 76.409351 183.656712 
L 78.985974 178.490759 
L 81.562597 185.121938 
L 84.139221 170.911251 
L 91.869091 167.714623 
L 94.445714 165.318778 
L 97.022338 166.129889 
L 99.598961 167.352059 
L 102.175584 167.071625 
L 112.482078 165.42933 
L 115.058701 169.554986 
L 117.635325 171.481098 
L 120.211948 184.579571 
L 127.941818 176.522636 
L 130.518442 187.569369 
L 133.095065 182.239174 
L 135.671688 185.446959 
L 138.248312 199.4282 
L 145.978182 218.650653 
L 148.554805 218.524651 
L 151.131429 211.667045 
L 153.708052 197.205723 
L 156.284675 189.208021 
L 164.014545 180.91448 
L 166.591169 204.304015 
L 169.167792 202.531712 
L 171.744416 213.658425 
L 174.321039 196.738664 
L 182.050909 209.874978 
L 184.627532 193.077416 
L 187.204156 190.3931 
L 189.780779 187.40714 
L 192.357403 181.863578 
L 200.087273 188.510159 
L 202.663896 196.975761 
L 205.240519 200.99297 
L 207.817143 172.916636 
L 210.393766 163.899231 
L 218.123636 161.579266 
L 220.70026 151.062918 
L 223.276883 144.439066 
L 225.853506 160.975869 
L 228.43013 167.099626 
L 236.16 169.354128 
L 238.736623 175.70059 
L 241.313247 183.515082 
L 243.88987 167.075776 
L 246.466494 164.338611 
L 254.196364 163.911044 
L 256.772987 159.107722 
L 259.34961 150.460768 
L 261.926234 152.545855 
L 264.502857 152.484193 
L 272.232727 151.381285 
L 274.809351 160.669033 
L 277.385974 166.925611 
L 279.962597 166.531822 
L 282.539221 158.645697 
L 290.269091 155.223612 
L 292.845714 158.676291 
L 295.422338 159.822525 
L 297.998961 159.127355 
L 300.575584 163.811145 
L 308.305455 158.410227 
L 310.882078 147.737817 
L 313.458701 146.232453 
L 318.611948 177.19244 
L 326.341818 164.5507 
L 328.918442 189.529221 
L 331.495065 203.285971 
L 334.071688 187.148716 
L 336.648312 196.58449 
L 344.378182 179.663606 
L 346.954805 158.600036 
L 349.531429 152.243884 
L 352.108052 152.871555 
L 354.684675 145.322696 
L 362.414545 157.483622 
L 364.991169 156.485191 
L 367.567792 147.252759 
L 370.144416 147.492987 
L 372.721039 162.315471 
L 380.450909 176.530447 
L 383.027532 153.79394 
L 385.604156 146.709571 
L 388.180779 137.276002 
L 398.487273 120.834697 
" style="fill:none;stroke:#ff0000;stroke-linecap:square;stroke-opacity:0.9;stroke-width:2;"/>
   </g>
   <g id="line2d_20">
    <path clip-path="url(#p33a62f61fa)" d="M 73.832727 189.763501 
L 76.409351 183.723501 
L 78.985974 178.924442 
L 81.562597 185.73109 
L 84.139221 174.20094 
L 91.869091 166.954753 
L 94.445714 165.108319 
L 97.022338 166.94351 
L 99.598961 166.439667 
L 102.175584 165.827752 
L 112.482078 166.460609 
L 115.058701 170.011188 
L 117.635325 173.426335 
L 120.211948 184.142712 
L 127.941818 174.060382 
L 130.518442 191.404301 
L 133.095065 184.235858 
L 135.671688 185.811446 
L 138.248312 197.518851 
L 145.978182 217.255905 
L 148.554805 219.996678 
L 151.131429 211.641255 
L 153.708052 193.672672 
L 156.284675 182.613079 
L 164.014545 173.489639 
L 166.591169 197.723097 
L 169.167792 194.515764 
L 171.744416 203.288988 
L 174.321039 185.133759 
L 182.050909 206.849439 
L 184.627532 188.927356 
L 187.204156 184.319573 
L 189.780779 181.374148 
L 192.357403 176.298172 
L 200.087273 183.579449 
L 202.663896 192.156585 
L 205.240519 194.801934 
L 207.817143 172.026406 
L 210.393766 170.76176 
L 218.123636 160.687063 
L 220.70026 148.381311 
L 223.276883 142.958595 
L 225.853506 163.199843 
L 228.43013 178.822638 
L 236.16 177.438752 
L 238.736623 188.002516 
L 241.313247 191.117413 
L 243.88987 176.102607 
L 246.466494 173.426313 
L 254.196364 167.777567 
L 256.772987 165.845456 
L 259.34961 155.943243 
L 261.926234 154.942363 
L 264.502857 147.109635 
L 272.232727 145.130677 
L 274.809351 160.6688 
L 277.385974 170.18931 
L 279.962597 170.585734 
L 282.539221 160.5155 
L 290.269091 157.434209 
L 292.845714 162.687636 
L 295.422338 163.460681 
L 297.998961 167.12407 
L 300.575584 166.84536 
L 308.305455 159.774392 
L 310.882078 150.009247 
L 313.458701 150.392404 
L 318.611948 177.980723 
L 326.341818 162.562847 
L 328.918442 186.016586 
L 331.495065 202.028994 
L 334.071688 188.162713 
L 336.648312 195.688267 
L 344.378182 173.771518 
L 346.954805 152.594599 
L 349.531429 142.962702 
L 352.108052 142.57053 
L 354.684675 138.303372 
L 362.414545 149.960238 
L 364.991169 143.89389 
L 367.567792 137.20945 
L 370.144416 132.130987 
L 372.721039 147.11731 
L 380.450909 162.661539 
L 383.027532 135.503835 
L 385.604156 129.678531 
L 388.180779 118.385024 
L 398.487273 102.529199 
" style="fill:none;stroke:#ff8040;stroke-linecap:square;stroke-opacity:0.9;stroke-width:2;"/>
   </g>
   <g id="line2d_21">
    <path clip-path="url(#p33a62f61fa)" d="M 73.832727 190.926471 
L 76.409351 188.582792 
L 78.985974 185.863847 
L 81.562597 194.470799 
L 84.139221 181.136176 
L 91.869091 188.188613 
L 94.445714 184.56112 
L 97.022338 185.663041 
L 99.598961 184.10276 
L 102.175584 183.284639 
L 112.482078 181.975639 
L 115.058701 186.437185 
L 117.635325 189.542622 
L 120.211948 201.949725 
L 127.941818 194.301681 
L 130.518442 205.721145 
L 133.095065 200.97558 
L 135.671688 204.467508 
L 138.248312 219.183474 
L 145.978182 247.727932 
L 148.554805 248.606328 
L 151.131429 240.671616 
L 153.708052 229.844936 
L 156.284675 221.616115 
L 164.014545 217.320248 
L 166.591169 242.943527 
L 169.167792 237.844927 
L 171.744416 251.410022 
L 174.321039 233.857745 
L 182.050909 249.972541 
L 184.627532 234.620665 
L 187.204156 229.987915 
L 189.780779 231.352717 
L 192.357403 226.041035 
L 200.087273 231.860021 
L 202.663896 240.753217 
L 205.240519 247.098854 
L 207.817143 222.217493 
L 210.393766 214.974047 
L 218.123636 203.617474 
L 220.70026 195.541742 
L 223.276883 189.463825 
L 225.853506 209.399327 
L 228.43013 221.668332 
L 236.16 222.323733 
L 238.736623 229.797593 
L 241.313247 241.035321 
L 243.88987 224.566778 
L 246.466494 220.617596 
L 254.196364 220.885313 
L 256.772987 213.880547 
L 259.34961 207.270762 
L 261.926234 212.000965 
L 264.502857 212.939704 
L 272.232727 213.690952 
L 274.809351 224.265042 
L 277.385974 233.133282 
L 279.962597 233.975844 
L 282.539221 215.337016 
L 290.269091 213.624289 
L 292.845714 216.248815 
L 295.422338 220.587584 
L 297.998961 223.089698 
L 300.575584 224.064385 
L 308.305455 216.599726 
L 310.882078 206.395878 
L 313.458701 205.880338 
L 318.611948 236.905986 
L 326.341818 225.610814 
L 328.918442 251.133566 
L 331.495065 265.797818 
L 334.071688 252.987573 
L 336.648312 260.228867 
L 344.378182 246.915172 
L 346.954805 231.231557 
L 349.531429 226.240154 
L 352.108052 227.141471 
L 354.684675 221.721324 
L 362.414545 235.470298 
L 364.991169 237.802103 
L 367.567792 234.927108 
L 370.144416 230.172874 
L 372.721039 244.649882 
L 380.450909 259.549169 
L 383.027532 241.628184 
L 385.604156 236.629556 
L 388.180779 229.859193 
L 398.487273 214.42549 
" style="fill:none;stroke:#0d0d0d;stroke-linecap:square;stroke-opacity:0.25;stroke-width:2;"/>
   </g>
   <g id="line2d_22">
    <path clip-path="url(#p33a62f61fa)" d="M 73.832727 188.600531 
L 76.409351 179.418128 
L 78.985974 171.856915 
L 81.562597 176.773143 
L 84.139221 160.695261 
L 91.869091 151.671102 
L 94.445714 146.530147 
L 97.022338 147.859918 
L 99.598961 150.673765 
L 102.175584 149.105783 
L 112.482078 148.172644 
L 115.058701 150.941033 
L 117.635325 153.639485 
L 120.211948 163.067659 
L 127.941818 150.713791 
L 130.518442 163.591823 
L 133.095065 159.480398 
L 135.671688 160.218716 
L 138.248312 170.624463 
L 145.978182 192.377591 
L 148.554805 193.21905 
L 151.131429 178.739815 
L 153.708052 164.182467 
L 156.284675 155.006035 
L 164.014545 144.305989 
L 166.591169 167.208833 
L 169.167792 159.903892 
L 171.744416 172.835937 
L 174.321039 154.380245 
L 182.050909 166.67684 
L 184.627532 147.105196 
L 187.204156 146.549632 
L 189.780779 144.857749 
L 192.357403 137.299977 
L 200.087273 147.464167 
L 202.663896 154.115655 
L 205.240519 159.316176 
L 207.817143 132.094013 
L 210.393766 127.569264 
L 218.123636 122.668927 
L 220.70026 112.635815 
L 223.276883 104.438439 
L 225.853506 108.748201 
L 228.43013 116.898127 
L 236.16 117.793078 
L 238.736623 131.31946 
L 241.313247 134.12425 
L 243.88987 114.986033 
L 246.466494 109.704139 
L 254.196364 107.801571 
L 256.772987 103.393309 
L 259.34961 91.216103 
L 261.926234 88.16029 
L 264.502857 88.587602 
L 272.232727 87.340934 
L 274.809351 95.956201 
L 277.385974 101.45436 
L 279.962597 103.091735 
L 282.539221 91.833806 
L 290.269091 85.672891 
L 292.845714 90.118509 
L 295.422338 90.219451 
L 297.998961 90.637733 
L 300.575584 101.319213 
L 308.305455 94.256458 
L 310.882078 82.285518 
L 313.458701 79.60141 
L 318.611948 108.07068 
L 326.341818 89.382027 
L 328.918442 118.68091 
L 331.495065 130.822392 
L 334.071688 105.825476 
L 336.648312 114.815987 
L 344.378182 93.738727 
L 346.954805 75.484373 
L 349.531429 68.446788 
L 352.108052 70.512086 
L 354.684675 70.743047 
L 362.414545 81.162036 
L 364.991169 81.796756 
L 367.567792 79.984017 
L 370.144416 76.615145 
L 372.721039 93.851634 
L 380.450909 113.626773 
L 383.027532 87.462877 
L 385.604156 80.879761 
L 388.180779 69.518537 
L 398.487273 52.154182 
" style="fill:none;stroke:#0d0d0d;stroke-linecap:square;stroke-opacity:0.25;stroke-width:2;"/>
   </g>
   <g id="patch_3">
    <path d="M 57.6 276.48 
L 57.6 41.472 
" style="fill:none;stroke:#000000;stroke-linecap:square;stroke-linejoin:miter;stroke-width:0.8;"/>
   </g>
   <g id="patch_4">
    <path d="M 414.72 276.48 
L 414.72 41.472 
" style="fill:none;stroke:#000000;stroke-linecap:square;stroke-linejoin:miter;stroke-width:0.8;"/>
   </g>
   <g id="patch_5">
    <path d="M 57.6 276.48 
L 414.72 276.48 
" style="fill:none;stroke:#000000;stroke-linecap:square;stroke-linejoin:miter;stroke-width:0.8;"/>
   </g>
   <g id="patch_6">
    <path d="M 57.6 41.472 
L 414.72 41.472 
" style="fill:none;stroke:#000000;stroke-linecap:square;stroke-linejoin:miter;stroke-width:0.8;"/>
   </g>
   <g id="text_19">
    <!-- TESTFUNDS1550 -->
    <g transform="translate(185.200312 22.034625)scale(0.12 -0.12)">
     <defs>
      <path d="M -19 4666 
L 3928 4666 
L 3928 4134 
L 2272 4134 
L 2272 0 
L 1638 0 
L 1638 4134 
L -19 4134 
L -19 4666 
z
" id="DejaVuSans-54" transform="scale(0.015625)"/>
      <path d="M 628 4666 
L 3578 4666 
L 3578 4134 
L 1259 4134 
L 1259 2753 
L 3481 2753 
L 3481 2222 
L 1259 2222 
L 1259 531 
L 3634 531 
L 3634 0 
L 628 0 
L 628 4666 
z
" id="DejaVuSans-45" transform="scale(0.015625)"/>
      <path d="M 3425 4513 
L 3425 3897 
Q 3066 4069 2747 4153 
Q 2428 4238 2131 4238 
Q 1616 4238 1336 4038 
Q 1056 3838 1056 3469 
Q 1056 3159 1242 3001 
Q 1428 2844 1947 2747 
L 2328 2669 
Q 3034 2534 3370 2195 
Q 3706 1856 3706 1288 
Q 3706 609 3251 259 
Q 2797 -91 1919 -91 
Q 1588 -91 1214 -16 
Q 841 59 441 206 
L 441 856 
Q 825 641 1194 531 
Q 1563 422 1919 422 
Q 2459 422 2753 634 
Q 3047 847 3047 1241 
Q 3047 1584 2836 1778 
Q 2625 1972 2144 2069 
L 1759 2144 
Q 1053 2284 737 2584 
Q 422 2884 422 3419 
Q 422 4038 858 4394 
Q 1294 4750 2059 4750 
Q 2388 4750 2728 4690 
Q 3069 4631 3425 4513 
z
" id="DejaVuSans-53" transform="scale(0.015625)"/>
      <path d="M 628 4666 
L 3309 4666 
L 3309 4134 
L 1259 4134 
L 1259 2759 
L 3109 2759 
L 3109 2228 
L 1259 2228 
L 1259 0 
L 628 0 
L 628 4666 
z
" id="DejaVuSans-46" transform="scale(0.015625)"/>
      <path d="M 556 4666 
L 1191 4666 
L 1191 1831 
Q 1191 1081 1462 751 
Q 1734 422 2344 422 
Q 2950 422 3222 751 
Q 3494 1081 3494 1831 
L 3494 4666 
L 4128 4666 
L 4128 1753 
Q 4128 841 3676 375 
Q 3225 -91 2344 -91 
Q 1459 -91 1007 375 
Q 556 841 556 1753 
L 556 4666 
z
" id="DejaVuSans-55" transform="scale(0.015625)"/>
      <path d="M 628 4666 
L 1478 4666 
L 3547 763 
L 3547 4666 
L 4159 4666 
L 4159 0 
L 3309 0 
L 1241 3903 
L 1241 0 
L 628 0 
L 628 4666 
z
" id="DejaVuSans-4e" transform="scale(0.015625)"/>
      <path d="M 1259 4147 
L 1259 519 
L 2022 519 
Q 2988 519 3436 956 
Q 3884 1394 3884 2338 
Q 3884 3275 3436 3711 
Q 2988 4147 2022 4147 
L 1259 4147 
z
M 628 4666 
L 1925 4666 
Q 3281 4666 3915 4102 
Q 4550 3538 4550 2338 
Q 4550 1131 3912 565 
Q 3275 0 1925 0 
L 628 0 
L 628 4666 
z
" id="DejaVuSans-44" transform="scale(0.015625)"/>
     </defs>
     <use xlink:href="#DejaVuSans-54"/>
     <use x="61.083984" xlink:href="#DejaVuSans-45"/>
     <use x="124.267578" xlink:href="#DejaVuSans-53"/>
     <use x="187.744141" xlink:href="#DejaVuSans-54"/>
     <use x="248.828125" xlink:href="#DejaVuSans-46"/>
     <use x="306.347656" xlink:href="#DejaVuSans-55"/>
     <use x="379.541016" xlink:href="#DejaVuSans-4e"/>
     <use x="454.345703" xlink:href="#DejaVuSans-44"/>
     <use x="531.347656" xlink:href="#DejaVuSans-53"/>
     <use x="594.824219" xlink:href="#DejaVuSans-31"/>
     <use x="658.447266" xlink:href="#DejaVuSans-35"/>
     <use x="722.070312" xlink:href="#DejaVuSans-35"/>
     <use x="785.693359" xlink:href="#DejaVuSans-30"/>
    </g>
    <!-- daily_report -->
    <g transform="translate(200.466563 35.472)scale(0.12 -0.12)">
     <defs>
      <path d="M 603 3500 
L 1178 3500 
L 1178 0 
L 603 0 
L 603 3500 
z
M 603 4863 
L 1178 4863 
L 1178 4134 
L 603 4134 
L 603 4863 
z
" id="DejaVuSans-69" transform="scale(0.015625)"/>
      <path d="M 603 4863 
L 1178 4863 
L 1178 0 
L 603 0 
L 603 4863 
z
" id="DejaVuSans-6c" transform="scale(0.015625)"/>
      <path d="M 2059 -325 
Q 1816 -950 1584 -1140 
Q 1353 -1331 966 -1331 
L 506 -1331 
L 506 -850 
L 844 -850 
Q 1081 -850 1212 -737 
Q 1344 -625 1503 -206 
L 1606 56 
L 191 3500 
L 800 3500 
L 1894 763 
L 2988 3500 
L 3597 3500 
L 2059 -325 
z
" id="DejaVuSans-79" transform="scale(0.015625)"/>
      <path d="M 3263 -1063 
L 3263 -1509 
L -63 -1509 
L -63 -1063 
L 3263 -1063 
z
" id="DejaVuSans-5f" transform="scale(0.015625)"/>
      <path d="M 2631 2963 
Q 2534 3019 2420 3045 
Q 2306 3072 2169 3072 
Q 1681 3072 1420 2755 
Q 1159 2438 1159 1844 
L 1159 0 
L 581 0 
L 581 3500 
L 1159 3500 
L 1159 2956 
Q 1341 3275 1631 3429 
Q 1922 3584 2338 3584 
Q 2397 3584 2469 3576 
Q 2541 3569 2628 3553 
L 2631 2963 
z
" id="DejaVuSans-72" transform="scale(0.015625)"/>
      <path d="M 1159 525 
L 1159 -1331 
L 581 -1331 
L 581 3500 
L 1159 3500 
L 1159 2969 
Q 1341 3281 1617 3432 
Q 1894 3584 2278 3584 
Q 2916 3584 3314 3078 
Q 3713 2572 3713 1747 
Q 3713 922 3314 415 
Q 2916 -91 2278 -91 
Q 1894 -91 1617 61 
Q 1341 213 1159 525 
z
M 3116 1747 
Q 3116 2381 2855 2742 
Q 2594 3103 2138 3103 
Q 1681 3103 1420 2742 
Q 1159 2381 1159 1747 
Q 1159 1113 1420 752 
Q 1681 391 2138 391 
Q 2594 391 2855 752 
Q 3116 1113 3116 1747 
z
" id="DejaVuSans-70" transform="scale(0.015625)"/>
      <path d="M 1959 3097 
Q 1497 3097 1228 2736 
Q 959 2375 959 1747 
Q 959 1119 1226 758 
Q 1494 397 1959 397 
Q 2419 397 2687 759 
Q 2956 1122 2956 1747 
Q 2956 2369 2687 2733 
Q 2419 3097 1959 3097 
z
M 1959 3584 
Q 2709 3584 3137 3096 
Q 3566 2609 3566 1747 
Q 3566 888 3137 398 
Q 2709 -91 1959 -91 
Q 1206 -91 779 398 
Q 353 888 353 1747 
Q 353 2609 779 3096 
Q 1206 3584 1959 3584 
z
" id="DejaVuSans-6f" transform="scale(0.015625)"/>
     </defs>
     <use xlink:href="#DejaVuSans-64"/>
     <use x="63.476562" xlink:href="#DejaVuSans-61"/>
     <use x="124.755859" xlink:href="#DejaVuSans-69"/>
     <use x="152.539062" xlink:href="#DejaVuSans-6c"/>
     <use x="180.322266" xlink:href="#DejaVuSans-79"/>
     <use x="239.501953" xlink:href="#DejaVuSans-5f"/>
     <use x="289.501953" xlink:href="#DejaVuSans-72"/>
     <use x="328.365234" xlink:href="#DejaVuSans-65"/>
     <use x="389.888672" xlink:href="#DejaVuSans-70"/>
     <use x="453.365234" xlink:href="#DejaVuSans-6f"/>
     <use x="514.546875" xlink:href="#DejaVuSans-72"/>
     <use x="555.660156" xlink:href="#DejaVuSans-74"/>
    </g>
   </g>
   <g id="legend_1">
    <g id="patch_7">
     <path d="M 64.6 122.862625 
L 155.792188 122.862625 
Q 157.792188 122.862625 157.792188 120.862625 
L 157.792188 48.472 
Q 157.792188 46.472 155.792188 46.472 
L 64.6 46.472 
Q 62.6 46.472 62.6 48.472 
L 62.6 120.862625 
Q 62.6 122.862625 64.6 122.862625 
z
" style="fill:#ffffff;opacity:0.8;stroke:#cccccc;stroke-linejoin:miter;"/>
    </g>
    <g id="line2d_23">
     <path d="M 66.6 54.570437 
L 86.6 54.570437 
" style="fill:none;stroke:#0000ff;stroke-linecap:square;stroke-opacity:0.9;stroke-width:2;"/>
    </g>
    <g id="line2d_24"/>
    <g id="text_20">
     <!-- alpaca -->
     <g transform="translate(94.6 58.070437)scale(0.1 -0.1)">
      <defs>
       <path d="M 3122 3366 
L 3122 2828 
Q 2878 2963 2633 3030 
Q 2388 3097 2138 3097 
Q 1578 3097 1268 2742 
Q 959 2388 959 1747 
Q 959 1106 1268 751 
Q 1578 397 2138 397 
Q 2388 397 2633 464 
Q 2878 531 3122 666 
L 3122 134 
Q 2881 22 2623 -34 
Q 2366 -91 2075 -91 
Q 1284 -91 818 406 
Q 353 903 353 1747 
Q 353 2603 823 3093 
Q 1294 3584 2113 3584 
Q 2378 3584 2631 3529 
Q 2884 3475 3122 3366 
z
" id="DejaVuSans-63" transform="scale(0.015625)"/>
      </defs>
      <use xlink:href="#DejaVuSans-61"/>
      <use x="61.279297" xlink:href="#DejaVuSans-6c"/>
      <use x="89.0625" xlink:href="#DejaVuSans-70"/>
      <use x="152.539062" xlink:href="#DejaVuSans-61"/>
      <use x="213.818359" xlink:href="#DejaVuSans-63"/>
      <use x="268.798828" xlink:href="#DejaVuSans-61"/>
     </g>
    </g>
    <g id="line2d_25">
     <path d="M 66.6 69.248562 
L 86.6 69.248562 
" style="fill:none;stroke:#ff0000;stroke-linecap:square;stroke-opacity:0.9;stroke-width:2;"/>
    </g>
    <g id="line2d_26"/>
    <g id="text_21">
     <!-- mattress -->
     <g transform="translate(94.6 72.748562)scale(0.1 -0.1)">
      <defs>
       <path d="M 3328 2828 
Q 3544 3216 3844 3400 
Q 4144 3584 4550 3584 
Q 5097 3584 5394 3201 
Q 5691 2819 5691 2113 
L 5691 0 
L 5113 0 
L 5113 2094 
Q 5113 2597 4934 2840 
Q 4756 3084 4391 3084 
Q 3944 3084 3684 2787 
Q 3425 2491 3425 1978 
L 3425 0 
L 2847 0 
L 2847 2094 
Q 2847 2600 2669 2842 
Q 2491 3084 2119 3084 
Q 1678 3084 1418 2786 
Q 1159 2488 1159 1978 
L 1159 0 
L 581 0 
L 581 3500 
L 1159 3500 
L 1159 2956 
Q 1356 3278 1631 3431 
Q 1906 3584 2284 3584 
Q 2666 3584 2933 3390 
Q 3200 3197 3328 2828 
z
" id="DejaVuSans-6d" transform="scale(0.015625)"/>
       <path d="M 2834 3397 
L 2834 2853 
Q 2591 2978 2328 3040 
Q 2066 3103 1784 3103 
Q 1356 3103 1142 2972 
Q 928 2841 928 2578 
Q 928 2378 1081 2264 
Q 1234 2150 1697 2047 
L 1894 2003 
Q 2506 1872 2764 1633 
Q 3022 1394 3022 966 
Q 3022 478 2636 193 
Q 2250 -91 1575 -91 
Q 1294 -91 989 -36 
Q 684 19 347 128 
L 347 722 
Q 666 556 975 473 
Q 1284 391 1588 391 
Q 1994 391 2212 530 
Q 2431 669 2431 922 
Q 2431 1156 2273 1281 
Q 2116 1406 1581 1522 
L 1381 1569 
Q 847 1681 609 1914 
Q 372 2147 372 2553 
Q 372 3047 722 3315 
Q 1072 3584 1716 3584 
Q 2034 3584 2315 3537 
Q 2597 3491 2834 3397 
z
" id="DejaVuSans-73" transform="scale(0.015625)"/>
      </defs>
      <use xlink:href="#DejaVuSans-6d"/>
      <use x="97.412109" xlink:href="#DejaVuSans-61"/>
      <use x="158.691406" xlink:href="#DejaVuSans-74"/>
      <use x="197.900391" xlink:href="#DejaVuSans-74"/>
      <use x="237.109375" xlink:href="#DejaVuSans-72"/>
      <use x="275.972656" xlink:href="#DejaVuSans-65"/>
      <use x="337.496094" xlink:href="#DejaVuSans-73"/>
      <use x="389.595703" xlink:href="#DejaVuSans-73"/>
     </g>
    </g>
    <g id="line2d_27">
     <path d="M 66.6 83.926687 
L 86.6 83.926687 
" style="fill:none;stroke:#ff8040;stroke-linecap:square;stroke-opacity:0.9;stroke-width:2;"/>
    </g>
    <g id="line2d_28"/>
    <g id="text_22">
     <!-- trader-0850 -->
     <g transform="translate(94.6 87.426687)scale(0.1 -0.1)">
      <defs>
       <path d="M 2034 2216 
Q 1584 2216 1326 1975 
Q 1069 1734 1069 1313 
Q 1069 891 1326 650 
Q 1584 409 2034 409 
Q 2484 409 2743 651 
Q 3003 894 3003 1313 
Q 3003 1734 2745 1975 
Q 2488 2216 2034 2216 
z
M 1403 2484 
Q 997 2584 770 2862 
Q 544 3141 544 3541 
Q 544 4100 942 4425 
Q 1341 4750 2034 4750 
Q 2731 4750 3128 4425 
Q 3525 4100 3525 3541 
Q 3525 3141 3298 2862 
Q 3072 2584 2669 2484 
Q 3125 2378 3379 2068 
Q 3634 1759 3634 1313 
Q 3634 634 3220 271 
Q 2806 -91 2034 -91 
Q 1263 -91 848 271 
Q 434 634 434 1313 
Q 434 1759 690 2068 
Q 947 2378 1403 2484 
z
M 1172 3481 
Q 1172 3119 1398 2916 
Q 1625 2713 2034 2713 
Q 2441 2713 2670 2916 
Q 2900 3119 2900 3481 
Q 2900 3844 2670 4047 
Q 2441 4250 2034 4250 
Q 1625 4250 1398 4047 
Q 1172 3844 1172 3481 
z
" id="DejaVuSans-38" transform="scale(0.015625)"/>
      </defs>
      <use xlink:href="#DejaVuSans-74"/>
      <use x="39.208984" xlink:href="#DejaVuSans-72"/>
      <use x="80.322266" xlink:href="#DejaVuSans-61"/>
      <use x="141.601562" xlink:href="#DejaVuSans-64"/>
      <use x="205.078125" xlink:href="#DejaVuSans-65"/>
      <use x="266.601562" xlink:href="#DejaVuSans-72"/>
      <use x="301.339844" xlink:href="#DejaVuSans-2d"/>
      <use x="337.423828" xlink:href="#DejaVuSans-30"/>
      <use x="401.046875" xlink:href="#DejaVuSans-38"/>
      <use x="464.669922" xlink:href="#DejaVuSans-35"/>
      <use x="528.292969" xlink:href="#DejaVuSans-30"/>
     </g>
    </g>
    <g id="line2d_29">
     <path d="M 66.6 98.604812 
L 86.6 98.604812 
" style="fill:none;stroke:#0d0d0d;stroke-linecap:square;stroke-opacity:0.25;stroke-width:2;"/>
    </g>
    <g id="line2d_30"/>
    <g id="text_23">
     <!-- rando-min -->
     <g transform="translate(94.6 102.104812)scale(0.1 -0.1)">
      <defs>
       <path d="M 3513 2113 
L 3513 0 
L 2938 0 
L 2938 2094 
Q 2938 2591 2744 2837 
Q 2550 3084 2163 3084 
Q 1697 3084 1428 2787 
Q 1159 2491 1159 1978 
L 1159 0 
L 581 0 
L 581 3500 
L 1159 3500 
L 1159 2956 
Q 1366 3272 1645 3428 
Q 1925 3584 2291 3584 
Q 2894 3584 3203 3211 
Q 3513 2838 3513 2113 
z
" id="DejaVuSans-6e" transform="scale(0.015625)"/>
      </defs>
      <use xlink:href="#DejaVuSans-72"/>
      <use x="41.113281" xlink:href="#DejaVuSans-61"/>
      <use x="102.392578" xlink:href="#DejaVuSans-6e"/>
      <use x="165.771484" xlink:href="#DejaVuSans-64"/>
      <use x="229.248047" xlink:href="#DejaVuSans-6f"/>
      <use x="292.304688" xlink:href="#DejaVuSans-2d"/>
      <use x="328.388672" xlink:href="#DejaVuSans-6d"/>
      <use x="425.800781" xlink:href="#DejaVuSans-69"/>
      <use x="453.583984" xlink:href="#DejaVuSans-6e"/>
     </g>
    </g>
    <g id="line2d_31">
     <path d="M 66.6 113.282937 
L 86.6 113.282937 
" style="fill:none;stroke:#0d0d0d;stroke-linecap:square;stroke-opacity:0.25;stroke-width:2;"/>
    </g>
    <g id="line2d_32"/>
    <g id="text_24">
     <!-- rando-max -->
     <g transform="translate(94.6 116.782937)scale(0.1 -0.1)">
      <defs>
       <path d="M 3513 3500 
L 2247 1797 
L 3578 0 
L 2900 0 
L 1881 1375 
L 863 0 
L 184 0 
L 1544 1831 
L 300 3500 
L 978 3500 
L 1906 2253 
L 2834 3500 
L 3513 3500 
z
" id="DejaVuSans-78" transform="scale(0.015625)"/>
      </defs>
      <use xlink:href="#DejaVuSans-72"/>
      <use x="41.113281" xlink:href="#DejaVuSans-61"/>
      <use x="102.392578" xlink:href="#DejaVuSans-6e"/>
      <use x="165.771484" xlink:href="#DejaVuSans-64"/>
      <use x="229.248047" xlink:href="#DejaVuSans-6f"/>
      <use x="292.304688" xlink:href="#DejaVuSans-2d"/>
      <use x="328.388672" xlink:href="#DejaVuSans-6d"/>
      <use x="425.800781" xlink:href="#DejaVuSans-61"/>
      <use x="487.080078" xlink:href="#DejaVuSans-78"/>
     </g>
    </g>
   </g>
  </g>
 </g>
 <defs>
  <clipPath id="p33a62f61fa">
   <rect height="235.008" width="357.12" x="57.6" y="41.472"/>
  </clipPath>
 </defs>
</svg>
